<?xml version="1.0" encoding="UTF-8" standalone="no"?>
<!DOCTYPE svg PUBLIC "-//W3C//DTD SVG 1.1//EN" "http://www.w3.org/Graphics/SVG/1.1/DTD/svg11.dtd">
<svg width="100%" height="100%" viewBox="0 0 17 20" version="1.1" xmlns="http://www.w3.org/2000/svg" xmlns:xlink="http://www.w3.org/1999/xlink" xml:space="preserve" xmlns:serif="http://www.serif.com/" style="fill-rule:evenodd;clip-rule:evenodd;stroke-linecap:round;stroke-linejoin:round;">
    <g id="sprite0" transform="matrix(1,0,0,1,8.4,9.95)">
        <g>
            <g id="shape0">
                <path d="M-1.85,-2.95L-1.75,-3L-1.85,-2.95M2.1,-7.7L2,-7.25L3.3,-5.4L3.5,-5.35L4.2,-4.25L4.2,-4.05L5.05,-3.65L5.6,-3.25L6.2,-2.55L6.4,-2.25L6.8,-1.05L6.85,-0.6L7.85,-1.3C7.683,-0.167 7.35,0.817 6.85,1.65C6.217,2.783 5.3,3.617 4.1,4.15L3.5,4.4L3.65,4.6L4.2,5.35L4.2,5.4L4.5,5.75L4.6,5.65L5.2,6.2L5.2,6.25L5.15,6.3L4.85,6.95L4.85,7L4.8,7.55L4.1,8.65L3.6,8.15L2.9,8.3L2.75,8.35L2.05,9.45C1.517,9.117 1.2,8.567 1.1,7.8L1,7.75L0.6,7.2L1.05,6.45L1.1,6.5C1.167,6.2 1.283,5.95 1.45,5.75L1.5,5.75L1.8,4.85L1.85,4.75C0.417,4.883 -1.1,4.633 -2.7,4L-2.7,3.95L-2.35,3.85L-1.4,3.5L-2,2.85L-2.45,2.15L-2.8,1.15L-3.25,1.1L-4.1,0.3L-4.1,0.2L-5.85,-1.3C-6.05,-1.2 -6.233,-1.133 -6.4,-1.1L-7.65,-1.75L-7.85,-2.55L-7.85,-2.85L-7.9,-3.3L-7.9,-3.5L-7.85,-3.7L-7.8,-3.8L-7.45,-4.8L-7.25,-5.2L-5.85,-6.05L-5.35,-6.15L-4.8,-6.2L-4.3,-6.25L-4.1,-6.25L-3.65,-5.8L-3.25,-5.25L-3.1,-5L-3.1,-4.55L-1.4,-3.1L-1.2,-3.1L-0.85,-3.35L-0.7,-3.4L-0.7,-3.45L-0.6,-3.5L-1.5,-4.85L-2.05,-4.8L-3.05,-5.7L-3.05,-6.6L-3,-6.85L-2.95,-7.3L-2.9,-7.5L-2.75,-7.7L-2.75,-7.75L-2.1,-8.65L-1.85,-9L-0.25,-9.45L0.3,-9.4L1.3,-9.2L1.5,-9.15L1.6,-9L1.8,-8.6L2.05,-8L2.1,-7.7" style="fill:rgb(40,10,2);"/>
                <path d="M2.1,-7.7L2.05,-8L1.8,-8.6L1.6,-9L1.5,-9.15L1.3,-9.2L0.3,-9.4L-0.25,-9.45L-1.85,-9L-2.1,-8.65L-2.75,-7.75L-2.75,-7.7L-2.9,-7.5L-2.95,-7.3L-3,-6.85L-3.05,-6.6L-3.05,-5.7L-2.05,-4.8L-1.5,-4.85L-0.6,-3.5L-0.7,-3.45L-0.7,-3.4L-0.85,-3.35L-1.2,-3.1L-1.4,-3.1L-3.1,-4.55L-3.1,-5L-3.25,-5.25L-3.65,-5.8L-4.1,-6.25L-4.3,-6.25L-4.8,-6.2L-5.35,-6.15L-5.85,-6.05L-7.25,-5.2L-7.45,-4.8L-7.8,-3.8L-7.85,-3.7L-7.9,-3.5L-7.9,-3.3L-7.85,-2.85L-7.85,-2.55L-7.65,-1.75L-6.4,-1.1C-6.233,-1.133 -6.05,-1.2 -5.85,-1.3L-4.1,0.2L-4.1,0.3L-3.25,1.1L-2.8,1.15L-2.45,2.15L-2,2.85L-1.4,3.5L-2.35,3.85L-2.7,3.95L-2.7,4C-1.1,4.633 0.417,4.883 1.85,4.75L1.8,4.85L1.5,5.75L1.45,5.75C1.283,5.95 1.167,6.2 1.1,6.5L1.05,6.45L0.6,7.2L1,7.75L1.1,7.8C1.2,8.567 1.517,9.117 2.05,9.45L2.75,8.35L2.9,8.3L3.6,8.15L4.1,8.65L4.8,7.55L4.85,7L4.85,6.95L5.15,6.3L5.2,6.25L5.2,6.2L4.6,5.65L4.5,5.75L4.2,5.4L4.2,5.35L3.65,4.6L3.5,4.4L4.1,4.15C5.3,3.617 6.217,2.783 6.85,1.65C7.35,0.817 7.683,-0.167 7.85,-1.3L6.85,-0.6L6.8,-1.05L6.4,-2.25L6.2,-2.55L5.6,-3.25L5.05,-3.65L4.2,-4.05L4.2,-4.25L3.5,-5.35L3.3,-5.4L2,-7.25L2.1,-7.7M-1.85,-2.95L-1.75,-3L-1.85,-2.95Z" style="fill:none;fill-rule:nonzero;stroke:rgb(40,10,2);stroke-width:1px;"/>
            </g>
            <g id="sprite1" transform="matrix(0.6122,0,0,0.6122,2.75088,8.55138)">
                <g id="sprite2" transform="matrix(0.8,0,0,0.8,1,-3.35)">
                    <g id="shape1">
                        <path d="M0.25,0.4L0.75,0.2C2.683,0.067 3.417,0.717 2.95,2.15C2.717,2.95 2.25,3.683 1.55,4.35C0.183,3.317 -0.417,2.317 -0.25,1.35C-0.217,0.817 -0.05,0.5 0.25,0.4" style="fill:rgb(51,34,28);"/>
                        <path d="M0.25,0.4C-0.05,0.5 -0.217,0.817 -0.25,1.35C-0.417,2.317 0.183,3.317 1.55,4.35C2.25,3.683 2.717,2.95 2.95,2.15C3.417,0.717 2.683,0.067 0.75,0.2L0.25,0.4Z" style="fill:none;fill-rule:nonzero;stroke:black;stroke-opacity:0.3;stroke-width:0.05px;"/>
                    </g>
                </g>
                <g id="sprite3" transform="matrix(0.8,0,0,0.8,-2.8,-2)">
                    <g id="shape2">
                        <path d="M0.05,-0.1C0.15,0.267 0.283,0.45 0.45,0.45L2.2,0.55C3.167,0.617 3.6,1.017 3.5,1.75C3.4,2.45 2.9,3.283 2,4.25C0.767,3.45 0.117,2 0.05,-0.1" style="fill:rgb(51,34,28);"/>
                        <path d="M0.05,-0.1C0.117,2 0.767,3.45 2,4.25C2.9,3.283 3.4,2.45 3.5,1.75" style="fill:none;fill-rule:nonzero;stroke:black;stroke-opacity:0.4;stroke-width:0.05px;"/>
                    </g>
                </g>
                <g id="sprite4" transform="matrix(0.8,0,0,0.8,-2.75,-5.75)">
                    <g id="shape3">
                        <path d="M0,3.4C0.167,2.567 0.433,1.9 0.8,1.4C1.167,0.833 1.583,0.45 2.05,0.25L3.35,-0.05L3.45,-0.05L4.25,0C4.95,0.033 5.517,0.167 5.95,0.4L6.4,0.7L7.4,1.95L7.75,3.2L7.7,4.3L7.7,4.4L6.9,5.35L5.45,5.65L3.8,5.7C1.967,5.7 0.7,4.933 0,3.4" style="fill:rgb(73,49,40);"/>
                        <path d="M6.9,5.35C5.967,6.117 4.917,6.55 3.75,6.65L3.4,6.7C2.4,6.767 1.6,6.633 1,6.3C0.5,6.033 0.183,5.7 0.05,5.3L0.05,5.25L0,3.4C0.7,4.933 1.967,5.7 3.8,5.7L5.45,5.65L6.9,5.35" style="fill:rgb(51,34,28);"/>
                        <path d="M0,3.4C0.167,2.567 0.433,1.9 0.8,1.4C1.167,0.833 1.583,0.45 2.05,0.25L3.35,-0.05L3.45,-0.05L4.25,0C4.95,0.033 5.517,0.167 5.95,0.4L6.4,0.7L7.4,1.95L7.75,3.2L7.7,4.3L7.7,4.4L6.9,5.35C5.967,6.117 4.917,6.55 3.75,6.65L3.4,6.7M0.05,5.3L0.05,5.25L0,3.4" style="fill:none;fill-rule:nonzero;stroke:black;stroke-opacity:0.3;stroke-width:0.05px;"/>
                        <path d="M8.5,2.35L8.45,2.4L8.5,2.35L7.75,3.85C6.617,5.183 5.35,5.883 3.95,5.95L-0.15,5.55L-0.9,4.4L0.75,4.75L0.8,4.75L0.75,4.75L0.9,4.75L2.2,4.85L2.5,4.85C3.767,4.817 4.917,4.583 5.95,4.15L8.45,2.4L8.5,2.3L8.5,2.35" style="fill:rgb(59,83,91);"/>
                        <path d="M8.5,2.3L8.45,2.4C7.083,3.667 4.567,4.45 0.9,4.75L0.75,4.75L0.8,4.75L0.75,4.75L-0.9,4.4L-0.05,2.85L1.65,3.25L2.65,3.3C4.317,3.267 5.85,2.567 7.25,1.2L8.5,2.3M0.8,4.75L0.9,4.75L0.8,4.75" style="fill:rgb(88,120,123);"/>
                        <path d="M8.45,2.4L5.95,4.15C4.917,4.583 3.767,4.817 2.5,4.85L2.2,4.85L0.9,4.75C4.567,4.45 7.083,3.667 8.45,2.4" style="fill:rgb(126,172,175);"/>
                        <path d="M2.5,4.85L2.2,4.85L0.9,4.75L0.8,4.75" style="fill:none;fill-rule:nonzero;stroke:black;stroke-opacity:0.3;stroke-width:0.05px;stroke-linecap:butt;stroke-linejoin:miter;stroke-miterlimit:3;"/>
                        <path d="M8.45,2.4L8.5,2.35L8.5,2.3L8.45,2.4" style="fill:none;fill-rule:nonzero;stroke:black;stroke-opacity:0.3;stroke-width:0.05px;stroke-linejoin:miter;stroke-miterlimit:3;"/>
                        <path d="M8.45,2.4L5.95,4.15" style="fill:none;fill-rule:nonzero;stroke:black;stroke-opacity:0.3;stroke-width:0.05px;stroke-linejoin:miter;stroke-miterlimit:3;"/>
                        <path d="M0.8,4.75L0.75,4.75L-0.9,4.4L-0.15,5.55L3.95,5.95C5.35,5.883 6.617,5.183 7.75,3.85L8.5,2.35M-0.9,4.4L-0.05,2.85L1.65,3.25L2.65,3.3C4.317,3.267 5.85,2.567 7.25,1.2L8.5,2.3" style="fill:none;fill-rule:nonzero;stroke:black;stroke-opacity:0.3;stroke-width:0.05px;stroke-linecap:butt;stroke-linejoin:miter;stroke-miterlimit:3;"/>
                    </g>
                </g>
                <g id="sprite5" transform="matrix(0.8,0,0,0.8,-2.1,-8.8)">
                    <g id="shape4">
                        <path d="M0,5.3L0.7,3.45L1.1,1.05C1.167,0.217 1.467,-0.117 2,0.05L2.55,0.35L4,2.25L4.45,2.95L5.6,4.5L4.95,5.1L3.85,5.5L3.15,5.55L2.8,5.6L0,5.3" style="fill:rgb(51,34,28);"/>
                        <path d="M0,5.3L0.7,3.45L1.1,1.05C1.167,0.217 1.467,-0.117 2,0.05L2.55,0.35L4,2.25L4.45,2.95L5.6,4.5" style="fill:none;fill-rule:nonzero;stroke:black;stroke-opacity:0.3;stroke-width:0.05px;"/>
                        <path d="M1.45,5L1.45,3.6L4.25,2.95L4.25,4.4C3.517,4.867 2.583,5.067 1.45,5" style="fill:rgb(213,54,148);"/>
                        <path d="M1.45,5L1.45,3.6L4.25,2.95L4.25,4.4C3.517,4.867 2.583,5.067 1.45,5Z" style="fill:none;fill-rule:nonzero;stroke:black;stroke-opacity:0.3;stroke-width:0.05px;stroke-linecap:butt;stroke-linejoin:miter;stroke-miterlimit:3;"/>
                    </g>
                </g>
                <g id="sprite6" transform="matrix(0.8,0,0,0.8,-9.4499,-21.4999)">
                    <g id="shape5">
                        <path d="M0.2,-5.55L0.3,-5.95L0.6,-6.3L0.65,-6.4C0.983,-7.1 1.417,-7.717 1.95,-8.25L2.5,-8.95C3.533,-9.483 4.617,-9.8 5.75,-9.9L6.8,-9.8L7.9,-9.6L8.9,-9.4L9.25,-9.3L9.5,-9L9.95,-8.15L10.4,-6.9L9,-8.4L6.2,-9.25C5.567,-9.183 4.933,-9 4.3,-8.7C2.133,-7.933 0.767,-6.883 0.2,-5.55" style="fill:rgb(195,118,70);"/>
                        <path d="M0.2,-5.55C0.767,-6.883 2.133,-7.933 4.3,-8.7C4.933,-9 5.567,-9.183 6.2,-9.25L9,-8.4L10.4,-6.9L10.55,-6.35C10.217,-6.717 9.65,-7.05 8.85,-7.35L7.4,-7.35C6.433,-7.317 5.5,-7.1 4.6,-6.7L4.15,-6.65L3.9,-6.35L3.85,-6.25C3.25,-5.583 2.75,-4.817 2.35,-3.95L1.95,-2.45L1.9,-1.85L0,-4.05L0,-4.1L0.1,-4.6L0.2,-5.55" style="fill:rgb(122,74,44);"/>
                        <path d="M10.55,-6.35L10.3,-5.4C9.433,-3.167 7.067,-1.533 3.2,-0.5L2.05,-0.4C1.283,-0.867 0.583,-1.483 -0.05,-2.25L0,-4.05L1.9,-1.85L1.95,-2.45L2.35,-3.95C2.75,-4.817 3.25,-5.583 3.85,-6.25L3.9,-6.35L4.15,-6.65L4.6,-6.7C5.5,-7.1 6.433,-7.317 7.4,-7.35L8.85,-7.35C9.65,-7.05 10.217,-6.717 10.55,-6.35" style="fill:rgb(84,50,30);"/>
                        <path d="M10.4,-6.9L9.95,-8.15L9.5,-9L9.25,-9.3L8.9,-9.4L7.9,-9.6L6.8,-9.8L5.75,-9.9C4.617,-9.8 3.533,-9.483 2.5,-8.95L1.95,-8.25C1.417,-7.717 0.983,-7.1 0.65,-6.4L0.6,-6.3L0.3,-5.95L0.2,-5.55L0.1,-4.6L0,-4.1L0,-4.05L-0.05,-2.25C0.583,-1.483 1.283,-0.867 2.05,-0.4L3.2,-0.5C7.067,-1.533 9.433,-3.167 10.3,-5.4L10.55,-6.35L10.4,-6.9Z" style="fill:none;fill-rule:nonzero;stroke:black;stroke-opacity:0.3;stroke-width:0.05px;"/>
                        <path d="M3.55,-1.15C2.883,-1.85 2.883,-2.6 3.55,-3.4C5.35,-4.167 6.317,-4.65 6.45,-4.85C6.05,-3.95 5.117,-2.767 3.65,-1.3L3.55,-1.15" style="fill:rgb(255,182,225);"/>
                        <path d="M3.55,-1.15L3.65,-1.3L5.2,-0.55L5.35,-0.25C5.55,-0.05 5.783,0.05 6.05,0.05L6.4,0.05L6.05,0.05C5.783,0.05 5.55,-0.05 5.35,-0.25L5.2,-0.55L6.4,0.05L7,0.3L9.45,-1.4L9.6,-1.25L9.75,-1.25L9.95,-1.3L10.05,-1.45L10.2,-1.55L10.2,-1.65L10.25,-1.75L10.2,-1.85L10.25,-1.75L10.2,-1.65L10.2,-1.55L10.05,-1.45L9.95,-1.3L9.75,-1.25L9.6,-1.25L9.45,-1.4L10.2,-1.85C10.633,-2.117 11.033,-2.333 11.4,-2.5L12,-1.6L6.1,2.6L3.9,-0.65L3.55,-1.05L3.55,-1.15" style="fill:rgb(128,32,89);"/>
                        <path d="M3.65,-1.3C5.117,-2.767 6.05,-3.95 6.45,-4.85L6.5,-4.9L6.7,-5.75L6.7,-5.9L9,-5.85L9.75,-4.8L11.4,-2.5C11.033,-2.333 10.633,-2.117 10.2,-1.85L10,-2.05L9.7,-2.1L9.35,-2L9.3,-1.75L9.4,-1.45L9.45,-1.4L9.4,-1.45L9.3,-1.75L9.35,-2L9.7,-2.1L10,-2.05L10.2,-1.85L9.45,-1.4L7,0.3L6.4,0.05L6.45,0L6.8,-0.25L6.85,-0.35L6.95,-0.5L7,-0.85C7.033,-1.083 6.933,-1.3 6.7,-1.5L6,-1.7L5.3,-1.5L5.1,-0.85L5.2,-0.55L5.1,-0.85L5.3,-1.5L6,-1.7L6.7,-1.5C6.933,-1.3 7.033,-1.083 7,-0.85L6.95,-0.5L6.85,-0.35L6.8,-0.25L6.45,0L6.4,0.05L5.2,-0.55L3.65,-1.3" style="fill:rgb(215,55,150);"/>
                        <path d="M6.45,-4.85C6.317,-4.65 5.35,-4.167 3.55,-3.4C2.883,-2.6 2.883,-1.85 3.55,-1.15L3.55,-1.05L3.9,-0.65L6.1,2.6L12,-1.6L11.4,-2.5L9.75,-4.8L9,-5.85L6.7,-5.9L6.7,-5.75L6.5,-4.9L6.45,-4.85" style="fill:none;fill-rule:nonzero;stroke:black;stroke-opacity:0.3;stroke-width:0.05px;"/>
                        <path d="M5.2,-0.55L5.1,-0.85L5.3,-1.5L6,-1.7L6.7,-1.5C6.933,-1.3 7.033,-1.083 7,-0.85L6.95,-0.5L6.85,-0.35L6.8,-0.25L6.45,0L6.4,0.05L6.05,0.05C5.783,0.05 5.55,-0.05 5.35,-0.25L5.2,-0.55M9.6,-1.25L9.4,-1.45L9.3,-1.75L9.35,-2L9.7,-2.1L10,-2.05L10.2,-1.85L10.25,-1.75L10.2,-1.65L10.2,-1.55L10.05,-1.45L9.95,-1.3L9.75,-1.25L9.6,-1.25Z" style="fill:none;fill-rule:nonzero;stroke:black;stroke-opacity:0.3;stroke-width:0.05px;stroke-linecap:butt;stroke-linejoin:miter;stroke-miterlimit:3;"/>
                        <path d="M3.2,-0.5L2.65,-1.2C2.283,-2.233 2.533,-3.417 3.4,-4.75C4.267,-5.783 5.317,-6.45 6.55,-6.75L9.3,-6.7L10.3,-5.4L12.95,-1.65L11.55,-1.65L10.65,-1.55L10.5,-1.55L9.05,-0.75C8.617,-0.583 8.2,-0.283 7.8,0.15L6.8,0.9L6.7,1L6.4,1.75L5.85,3.4L3.2,-0.5" style="fill:rgb(255,242,250);fill-opacity:0.24;"/>
                        <path d="M3.2,-0.5L5.85,3.4L6.4,1.75L6.7,1L6.8,0.9L7.8,0.15C8.2,-0.283 8.617,-0.583 9.05,-0.75L10.5,-1.55L10.65,-1.55L11.55,-1.65L12.95,-1.65L10.3,-5.4L9.3,-6.7L6.55,-6.75C5.317,-6.45 4.267,-5.783 3.4,-4.75C2.533,-3.417 2.283,-2.233 2.65,-1.2L3.2,-0.5Z" style="fill:none;fill-rule:nonzero;stroke:black;stroke-opacity:0.3;stroke-width:0.05px;"/>
                        <path d="M6.8,0.9L7.8,0.15C8.2,-0.283 8.617,-0.583 9.05,-0.75L10.5,-1.55L10.65,-1.55L11.55,-1.65L12.05,-1.6L12.95,-1.65L13.4,-1.55L14.85,0.7L12.95,0.45L11.5,0.65L10.35,1.3L9.45,1.95L8.5,2.85L6.8,0.9" style="fill:rgb(122,74,44);"/>
                        <path d="M6.8,0.9L8.5,2.85L9.45,1.95L10.35,1.3L11.5,0.65L12.95,0.45L14.85,0.7C14.85,1.9 14.583,3 14.05,4L13.8,4.45L12.7,5.55L10.7,6.25C9.267,6.217 8.067,6 7.1,5.6L5.8,3.6L5.85,3.4L6.4,1.75L6.7,1L6.8,0.9" style="fill:rgb(84,50,30);"/>
                        <path d="M14.85,0.7L13.4,-1.55L12.95,-1.65L12.05,-1.6L11.55,-1.65L10.65,-1.55L10.5,-1.55L9.05,-0.75C8.617,-0.583 8.2,-0.283 7.8,0.15L6.8,0.9L6.7,1L6.4,1.75L5.85,3.4" style="fill:none;fill-rule:nonzero;stroke:black;stroke-opacity:0.3;stroke-width:0.05px;"/>
                        <path d="M14.85,0.7C14.85,1.9 14.583,3 14.05,4L13.8,4.45L12.7,5.55L10.7,6.25C9.267,6.217 8.067,6 7.1,5.6L5.8,3.6L5.85,3.4" style="fill:none;fill-rule:nonzero;stroke:black;stroke-opacity:0.3;stroke-width:0.05px;"/>
                        <path d="M-0.45,-1.35L-2.2,-2.45L-5.15,-2.5L-6.85,-1.5C-8.75,-0.2 -9.783,1.183 -9.95,2.65L-9.95,2.25L-9.75,1.65C-9.617,0.883 -9.35,0.183 -8.95,-0.45L-8.6,-1.25L-5.75,-3L-4.7,-3.2L-3.55,-3.3L-2.55,-3.35L-2.15,-3.35L-1.85,-3.1L-1.25,-2.45L-0.45,-1.35" style="fill:rgb(195,118,70);"/>
                        <path d="M-9.95,2.65C-9.783,1.183 -8.75,-0.2 -6.85,-1.5L-5.15,-2.5L-2.2,-2.45L-0.45,-1.35L-0.15,-0.85L-2.05,-1.35L-3.45,-1L-6,0.35L-6.4,0.5L-6.55,0.9L-6.6,1C-7.033,1.8 -7.317,2.667 -7.45,3.6L-7.45,5.2L-7.35,5.75L-9.8,4.15L-9.8,4.1L-9.85,3.55L-9.95,2.65" style="fill:rgb(122,74,44);"/>
                        <path d="M-9.8,4.15L-7.35,5.75L-7.45,5.2L-7.45,3.6C-7.317,2.667 -7.033,1.8 -6.6,1L-6.55,0.9L-6.4,0.5L-6,0.35L-3.45,-1L-2.05,-1.35L-0.15,-0.85L-0.15,0.15C-0.417,2.55 -2.283,4.75 -5.75,6.75L-6.85,7.1C-7.717,6.867 -8.55,6.45 -9.35,5.85L-9.8,4.15" style="fill:rgb(84,50,30);"/>
                        <path d="M-6.6,1L-6.55,0.9L-6.6,1" style="fill:rgb(106,74,52);"/>
                        <path d="M-9.8,4.1L-9.85,4.15L-9.8,4.1" style="fill:rgb(73,49,40);"/>
                        <path d="M-0.45,-1.35L-1.25,-2.45L-1.85,-3.1L-2.15,-3.35L-2.55,-3.35L-3.55,-3.3L-4.7,-3.2L-5.75,-3L-8.6,-1.25L-8.95,-0.45C-9.35,0.183 -9.617,0.883 -9.75,1.65L-9.95,2.25L-9.95,2.65L-9.85,3.55L-9.8,4.1L-9.8,4.15L-9.35,5.85C-8.55,6.45 -7.717,6.867 -6.85,7.1L-5.75,6.75C-2.283,4.75 -0.417,2.55 -0.15,0.15L-0.15,-0.85L-0.45,-1.35Z" style="fill:none;fill-rule:nonzero;stroke:black;stroke-opacity:0.3;stroke-width:0.05px;"/>
                        <path d="M0.05,4.25L0.25,4.35L0.55,4.2L0.6,4.05L0.75,3.9L0.7,3.8L0.7,3.7L0.65,3.6L0.7,3.7L0.7,3.8L0.75,3.9L0.6,4.05L0.55,4.2L0.25,4.35L0.05,4.25L0.65,3.6L1.65,2.65L2.45,3.35L-2.15,8.95L-5.15,6.4L-5.55,6.1L-5.6,6L-5.55,5.85L-3.85,6.15L-2.55,6.4L-1.85,6.5L0.05,4.25M-3.85,6.15L-3.8,6.25L-3.6,6.4L-2.85,6.5L-2.6,6.4L-2.55,6.4L-2.6,6.4L-2.85,6.5L-3.6,6.4L-3.8,6.25L-3.85,6.15" style="fill:rgb(128,32,89);"/>
                        <path d="M0.05,4.25L-1.85,6.5L-2.55,6.4L-2.5,6.35L-2.25,6.05L-2.15,5.9L-2.1,5.75L-2.15,5.4C-2.217,5.167 -2.383,4.983 -2.65,4.85L-3.35,4.8C-3.617,4.867 -3.833,5.017 -4,5.25L-4,5.9L-3.85,6.15L-4,5.9L-4,5.25C-3.833,5.017 -3.617,4.867 -3.35,4.8L-2.65,4.85C-2.383,4.983 -2.217,5.167 -2.15,5.4L-2.1,5.75L-2.15,5.9L-2.25,6.05L-2.5,6.35L-2.55,6.4L-3.85,6.15L-5.55,5.85C-4.517,4.05 -3.917,2.65 -3.75,1.65L-3.75,0.7L-3.8,0.6C-3.167,-0.367 -2.417,-0.55 -1.55,0.05L-0.5,0.9L1.65,2.65L0.65,3.6L0.4,3.45L0.1,3.45L-0.2,3.65L-0.2,3.95L0,4.2L0.05,4.25L0,4.2L-0.2,3.95L-0.2,3.65L0.1,3.45L0.4,3.45L0.65,3.6L0.05,4.25" style="fill:rgb(215,55,150);"/>
                        <path d="M-5.6,6L-5.55,6.1L-5.6,6.05L-5.6,6" style="fill:rgb(255,242,250);fill-opacity:0.24;"/>
                        <path d="M-5.55,5.85L-5.6,6C-6.433,5.5 -6.617,4.783 -6.15,3.85L-3.75,1.65C-3.917,2.65 -4.517,4.05 -5.55,5.85" style="fill:rgb(255,182,225);"/>
                        <path d="M0.65,3.6L0.7,3.7L0.7,3.8L0.75,3.9L0.6,4.05L0.55,4.2L0.25,4.35L0.05,4.25L0,4.2L-0.2,3.95L-0.2,3.65L0.1,3.45L0.4,3.45L0.65,3.6M-2.55,6.4L-2.6,6.4L-2.85,6.5L-3.6,6.4L-3.8,6.25L-3.85,6.15L-4,5.9L-4,5.25C-3.833,5.017 -3.617,4.867 -3.35,4.8L-2.65,4.85C-2.383,4.983 -2.217,5.167 -2.15,5.4L-2.1,5.75L-2.15,5.9L-2.25,6.05L-2.5,6.35L-2.55,6.4" style="fill:none;fill-rule:nonzero;stroke:black;stroke-opacity:0.3;stroke-width:0.05px;stroke-linecap:butt;stroke-linejoin:miter;stroke-miterlimit:3;"/>
                        <path d="M-5.6,6L-5.55,6.1L-5.15,6.4L-2.15,8.95L2.45,3.35L1.65,2.65L-0.5,0.9L-1.55,0.05C-2.417,-0.55 -3.167,-0.367 -3.8,0.6L-3.75,0.7L-3.75,1.65L-6.15,3.85C-6.617,4.783 -6.433,5.5 -5.6,6L-5.6,6.05L-5.55,6.1" style="fill:none;fill-rule:nonzero;stroke:black;stroke-opacity:0.3;stroke-width:0.05px;"/>
                        <path d="M-4.15,-0.2C-3.283,-0.667 -2.383,-0.883 -1.45,-0.85L-0.15,0.15L3.35,3.1L2,3.45L1.2,3.8L1.05,3.85L-0.15,4.95L-1.15,6.15L-1.9,7.15L-1.95,7.25L-2.05,8.1L-2.15,9.8L-5.75,6.75L-6.45,6.15C-7.083,5.25 -7.167,4.067 -6.7,2.6C-6.1,1.367 -5.25,0.433 -4.15,-0.2" style="fill:rgb(255,242,250);fill-opacity:0.24;"/>
                        <path d="M-4.15,-0.2C-5.25,0.433 -6.1,1.367 -6.7,2.6C-7.167,4.067 -7.083,5.25 -6.45,6.15L-5.75,6.75L-2.15,9.8L-2.05,8.1L-1.95,7.25L-1.9,7.15L-1.15,6.15L-0.15,4.95L1.05,3.85L1.2,3.8L2,3.45L3.35,3.1L-0.15,0.15L-1.45,-0.85C-2.383,-0.883 -3.283,-0.667 -4.15,-0.2Z" style="fill:none;fill-rule:nonzero;stroke:black;stroke-opacity:0.3;stroke-width:0.05px;"/>
                        <path d="M-1.9,7.15L-1.15,6.15L-0.15,4.95L1.05,3.85L1.2,3.8L2,3.45L2.5,3.35L3.35,3.1L3.85,3.05L5.8,4.85L3.9,5.1L2.6,5.7L1.6,6.6L0.95,7.45L0.25,8.6L-1.9,7.15" style="fill:rgb(122,74,44);"/>
                        <path d="M-1.9,7.15L0.25,8.6L0.95,7.45L1.6,6.6L2.6,5.7L3.9,5.1L5.8,4.85C6.1,6.017 6.133,7.15 5.9,8.25L5.75,8.75L4.95,10.1L3.2,11.3L-0.4,11.6L-2.15,10L-2.15,9.8L-2.05,8.1L-1.95,7.25L-1.9,7.15" style="fill:rgb(88,53,31);"/>
                        <path d="M5.8,4.85L3.85,3.05L3.35,3.1L2.5,3.35L2,3.45L1.2,3.8L1.05,3.85L-0.15,4.95L-1.15,6.15L-1.9,7.15L-1.95,7.25L-2.05,8.1L-2.15,9.8" style="fill:none;fill-rule:nonzero;stroke:black;stroke-opacity:0.3;stroke-width:0.05px;"/>
                        <path d="M5.8,4.85C6.1,6.017 6.133,7.15 5.9,8.25L5.75,8.75L4.95,10.1L3.2,11.3L-0.4,11.6L-2.15,10L-2.15,9.8" style="fill:none;fill-rule:nonzero;stroke:black;stroke-opacity:0.3;stroke-width:0.05px;"/>
                        <path d="M17.65,2.8C18.317,3.433 18.85,4.15 19.25,4.95L19.3,5.05L20,7.2L20.25,8.8C20.383,10.5 20.167,12 19.6,13.3L19.5,13.5L18.8,14.65C18.267,15.45 17.383,16.217 16.15,16.95C15.117,17.483 14.017,17.9 12.85,18.2L8.35,18.45L8.2,18.45L6.8,18.25C5.533,17.983 4.5,17.5 3.7,16.8L2.15,15.25L4.4,14.2C3.6,12.3 3.633,10.517 4.5,8.85C6.6,6.517 9.567,6.85 13.4,9.85C12.433,8.45 12.433,6.767 13.4,4.8C13.6,3.7 14.683,3.067 16.65,2.9L17.65,2.8" style="fill:rgb(43,28,23);"/>
                        <path d="M17.65,2.8L16.65,2.9C14.983,1.933 12.95,1.167 10.55,0.6L12.35,0.6C13.817,0.667 15.2,1.117 16.5,1.95L17.65,2.8M7.95,1C6.417,1.7 4.3,4.017 1.6,7.95C1.1,9.05 0.717,10.117 0.45,11.15C0.35,10.55 0.35,9.917 0.45,9.25C0.617,7.617 1.05,6.25 1.75,5.15C2.417,4.05 3.417,3.133 4.75,2.4L4.8,2.35C5.9,1.717 6.95,1.267 7.95,1" style="fill:rgb(106,74,52);"/>
                        <path d="M16.65,2.9C14.683,3.067 13.6,3.7 13.4,4.8C12.433,6.767 12.433,8.45 13.4,9.85C9.567,6.85 6.6,6.517 4.5,8.85C3.633,10.517 3.6,12.3 4.4,14.2L2.15,15.25L1.2,13.75C0.767,12.917 0.517,12.05 0.45,11.15C0.717,10.117 1.1,9.05 1.6,7.95C4.3,4.017 6.417,1.7 7.95,1L8.45,0.9L9.05,0.75L10.55,0.6C12.95,1.167 14.983,1.933 16.65,2.9" style="fill:rgb(73,49,40);"/>
                        <path d="M19.3,5.05L19.25,4.95C18.85,4.15 18.317,3.433 17.65,2.8L16.5,1.95C15.2,1.117 13.817,0.667 12.35,0.6L10.55,0.6L9.05,0.75L8.45,0.9L7.95,1C6.95,1.267 5.9,1.717 4.8,2.35L4.75,2.4C3.417,3.133 2.417,4.05 1.75,5.15C1.05,6.25 0.617,7.617 0.45,9.25C0.35,9.917 0.35,10.55 0.45,11.15C0.517,12.05 0.767,12.917 1.2,13.75L2.15,15.25L3.7,16.8" style="fill:none;fill-rule:nonzero;stroke:black;stroke-opacity:0.3;stroke-width:0.05px;stroke-linecap:butt;stroke-linejoin:miter;stroke-miterlimit:3;"/>
                        <path d="M3.7,16.8C4.5,17.5 5.533,17.983 6.8,18.25L8.2,18.45L8.35,18.45L12.85,18.2C14.017,17.9 15.117,17.483 16.15,16.95C17.383,16.217 18.267,15.45 18.8,14.65L19.5,13.5L19.6,13.3C20.167,12 20.383,10.5 20.25,8.8L20,7.2L19.3,5.05" style="fill:none;fill-rule:nonzero;stroke:black;stroke-opacity:0.3;stroke-width:0.05px;"/>
                        <path d="M22.25,6.75L22.3,6.7C21.9,9.067 21.217,11.083 20.25,12.75C18.917,15.083 17.033,16.783 14.6,17.85L11,18.9C7.833,19.433 4.417,18.983 0.75,17.55L0.7,17.5L1.45,17.25C4.983,17.35 8.1,17.017 10.8,16.25C12.667,15.717 14.367,15 15.9,14.1L14.45,12.45C12.45,9.15 12.25,6.417 13.85,4.25C15.117,5.95 16.117,7.95 16.85,10.25L17.75,9.7L18.75,11.8C20.183,10.4 21.35,8.717 22.25,6.75M20.25,12.75L19.8,11.5L19.2,12.75L18.75,11.8L19.2,12.75L19.8,11.5L20.25,12.75M11,18.9L9.8,17.45L11.35,17.45L10.8,16.25L11.35,17.45L9.8,17.45L11,18.9M16.85,10.25C16.25,11.35 15.45,12.083 14.45,12.45C15.45,12.083 16.25,11.35 16.85,10.25" style="fill:rgb(59,83,91);"/>
                        <path d="M4.05,4.7L2.85,3.9L2.75,3.85L4.45,2.55L4.75,2.4C6.05,1.633 7.283,1.133 8.45,0.9L10.1,0.65L12.35,0.6L13.15,0.7L13.3,0.8L13.7,0.7L13.3,0.8L13.95,1.45L13.9,1.5L11.9,1.25L9.9,1.5C9.1,1.667 8.017,2.05 6.65,2.65C5.183,3.383 4.317,4.067 4.05,4.7" style="fill:rgb(126,172,175);"/>
                        <path d="M1.45,17.25L3.4,16.55C5.6,15.75 7.717,14.883 9.75,13.95L10.2,13.75L12.2,12.75C11.4,10.083 10.2,7.817 8.6,5.95L7.4,4.7L5.3,5.65L5.25,5.65L4.05,4.7C4.317,4.067 5.183,3.383 6.65,2.65C8.017,2.05 9.1,1.667 9.9,1.5L11.9,1.25L13.9,1.5L12.2,2.35L13.85,4.25C12.25,6.417 12.45,9.15 14.45,12.45L15.9,14.1C14.367,15 12.667,15.717 10.8,16.25C8.1,17.017 4.983,17.35 1.45,17.25M17.75,9.7L18.3,9.35L20.2,8.15L22.25,6.75C21.35,8.717 20.183,10.4 18.75,11.8L17.75,9.7M12.2,12.75L14.45,12.45L12.2,12.75M9.75,13.95L10.8,16.25L9.75,13.95" style="fill:rgb(88,120,123);"/>
                        <path d="M22.25,6.75L22.3,6.7C21.9,9.067 21.217,11.083 20.25,12.75C18.917,15.083 17.033,16.783 14.6,17.85L11,18.9C7.833,19.433 4.417,18.983 0.75,17.55L0.7,17.5L1.45,17.25L3.4,16.55C5.6,15.75 7.717,14.883 9.75,13.95L10.2,13.75L12.2,12.75C11.4,10.083 10.2,7.817 8.6,5.95L7.4,4.7L5.3,5.65L5.25,5.65L4.05,4.7L2.85,3.9L2.75,3.85M13.15,0.7L13.3,0.8L13.95,1.45L13.9,1.5L12.2,2.35L13.85,4.25C15.117,5.95 16.117,7.95 16.85,10.25L17.75,9.7L18.3,9.35L20.2,8.15L22.25,6.75M18.75,11.8L19.2,12.75L19.8,11.5L20.25,12.75M17.75,9.7L18.75,11.8M14.45,12.45L12.2,12.75M10.8,16.25L11.35,17.45L9.8,17.45L11,18.9M10.8,16.25L9.75,13.95M14.45,12.45C15.45,12.083 16.25,11.35 16.85,10.25" style="fill:none;fill-rule:nonzero;stroke:black;stroke-opacity:0.3;stroke-width:0.05px;"/>
                        <path d="M2.75,3.85L4.45,2.55L4.75,2.4C6.05,1.633 7.283,1.133 8.45,0.9L10.1,0.65L12.35,0.6L13.15,0.7" style="fill:none;fill-rule:nonzero;stroke:black;stroke-opacity:0.3;stroke-width:0.05px;stroke-linecap:butt;stroke-linejoin:miter;stroke-miterlimit:3;"/>
                        <path d="M12.35,8.95L12.35,9.05C12.35,10.483 11.933,11.717 11.1,12.75C10.267,13.783 9.25,14.3 8.05,14.3C6.883,14.3 5.867,13.783 5,12.75L4.5,12.05L4.5,11.9C4.5,10.467 4.917,9.233 5.75,8.2C6.617,7.2 7.633,6.7 8.8,6.7C10,6.7 11.017,7.2 11.85,8.2L12.35,8.95" style="fill:rgb(122,74,44);"/>
                        <path d="M4.5,12.05L5,12.75C5.867,13.783 6.883,14.3 8.05,14.3C9.25,14.3 10.267,13.783 11.1,12.75C11.933,11.717 12.35,10.483 12.35,9.05L12.35,8.95C12.85,9.817 13.1,10.817 13.1,11.95C13.1,13.383 12.683,14.617 11.85,15.65C11.017,16.683 10,17.2 8.8,17.2C7.633,17.2 6.617,16.683 5.75,15.65C4.95,14.65 4.533,13.45 4.5,12.05" style="fill:rgb(84,50,30);"/>
                        <path d="M4.5,12.05C4.533,13.45 4.95,14.65 5.75,15.65C6.617,16.683 7.633,17.2 8.8,17.2C10,17.2 11.017,16.683 11.85,15.65C12.683,14.617 13.1,13.383 13.1,11.95C13.1,10.817 12.85,9.817 12.35,8.95L11.85,8.2C11.017,7.2 10,6.7 8.8,6.7C7.633,6.7 6.617,7.2 5.75,8.2C4.917,9.233 4.5,10.467 4.5,11.9L4.5,12.05Z" style="fill:none;fill-rule:nonzero;stroke:black;stroke-opacity:0.3;stroke-width:0.05px;stroke-linecap:butt;stroke-linejoin:miter;stroke-miterlimit:3;"/>
                        <path d="M11.15,11.3C11.15,10.7 10.967,10.2 10.6,9.8C10.267,9.367 9.85,9.15 9.35,9.15C8.883,9.15 8.467,9.367 8.1,9.8C7.767,10.2 7.6,10.7 7.6,11.3C7.6,11.9 7.767,12.417 8.1,12.85C8.467,13.25 8.883,13.45 9.35,13.45C9.85,13.45 10.267,13.25 10.6,12.85C10.967,12.417 11.15,11.9 11.15,11.3M11.85,11.9C11.85,12.9 11.55,13.767 10.95,14.5C10.383,15.233 9.667,15.6 8.8,15.6C7.967,15.6 7.25,15.233 6.65,14.5C6.05,13.767 5.75,12.883 5.75,11.85C5.75,10.817 6.05,9.95 6.65,9.25C7.25,8.517 7.967,8.15 8.8,8.15C9.667,8.15 10.383,8.517 10.95,9.25C11.55,9.95 11.85,10.833 11.85,11.9" style="fill:rgb(213,54,148);"/>
                        <path d="M11.15,11.3C11.15,11.9 10.967,12.417 10.6,12.85C10.267,13.25 9.85,13.45 9.35,13.45C8.883,13.45 8.467,13.25 8.1,12.85C7.767,12.417 7.6,11.9 7.6,11.3C7.6,10.7 7.767,10.2 8.1,9.8C8.467,9.367 8.883,9.15 9.35,9.15C9.85,9.15 10.267,9.367 10.6,9.8C10.967,10.2 11.15,10.7 11.15,11.3" style="fill:rgb(255,182,225);"/>
                        <path d="M11.85,11.9C11.85,12.9 11.55,13.767 10.95,14.5C10.383,15.233 9.667,15.6 8.8,15.6C7.967,15.6 7.25,15.233 6.65,14.5C6.05,13.767 5.75,12.883 5.75,11.85C5.75,10.817 6.05,9.95 6.65,9.25C7.25,8.517 7.967,8.15 8.8,8.15C9.667,8.15 10.383,8.517 10.95,9.25C11.55,9.95 11.85,10.833 11.85,11.9Z" style="fill:none;fill-rule:nonzero;stroke:black;stroke-opacity:0.3;stroke-width:0.05px;stroke-linecap:butt;stroke-linejoin:miter;stroke-miterlimit:3;"/>
                        <path d="M14,7.3C14.133,6.367 14.417,5.533 14.85,4.8C15.45,3.8 16.183,3.3 17.05,3.3C17.95,3.3 18.7,3.8 19.3,4.8C19.733,5.533 20.017,6.367 20.15,7.3C20.017,8.233 19.733,9.067 19.3,9.8C18.7,10.833 17.95,11.35 17.05,11.35C16.183,11.35 15.45,10.833 14.85,9.8C14.417,9.067 14.133,8.233 14,7.3" style="fill:rgb(122,74,44);"/>
                        <path d="M20.15,7.3L20.2,8.55C20.2,9.983 19.9,11.217 19.3,12.25C18.7,13.283 17.95,13.8 17.05,13.8C16.183,13.8 15.45,13.283 14.85,12.25C14.217,11.217 13.9,9.967 13.9,8.5L14,7.3C14.133,8.233 14.417,9.067 14.85,9.8C15.45,10.833 16.183,11.35 17.05,11.35C17.95,11.35 18.7,10.833 19.3,9.8C19.733,9.067 20.017,8.233 20.15,7.3" style="fill:rgb(84,50,30);"/>
                        <path d="M14,7.3C14.133,6.367 14.417,5.533 14.85,4.8C15.45,3.8 16.183,3.3 17.05,3.3C17.95,3.3 18.7,3.8 19.3,4.8C19.733,5.533 20.017,6.367 20.15,7.3L20.2,8.55C20.2,9.983 19.9,11.217 19.3,12.25C18.7,13.283 17.95,13.8 17.05,13.8C16.183,13.8 15.45,13.283 14.85,12.25C14.217,11.217 13.9,9.967 13.9,8.5L14,7.3Z" style="fill:none;fill-rule:nonzero;stroke:black;stroke-opacity:0.3;stroke-width:0.05px;stroke-linecap:butt;stroke-linejoin:miter;stroke-miterlimit:3;"/>
                        <path d="M17.45,4.6C18.05,4.6 18.567,4.967 19,5.7C19.433,6.4 19.65,7.283 19.65,8.35C19.65,9.35 19.433,10.217 19,10.95C18.567,11.683 18.05,12.05 17.45,12.05C16.817,12.05 16.283,11.683 15.85,10.95C15.417,10.217 15.2,9.333 15.2,8.3C15.2,7.267 15.417,6.4 15.85,5.7C16.283,4.967 16.817,4.6 17.45,4.6M17.8,6.05L17.65,6C17.283,6 16.983,6.2 16.75,6.6C16.517,7 16.4,7.467 16.4,8C16.4,8.567 16.517,9.05 16.75,9.45C16.983,9.85 17.283,10.05 17.65,10.05L17.8,10.05L18.45,9.45C18.683,9.05 18.8,8.583 18.8,8.05C18.8,7.483 18.683,7 18.45,6.6L17.8,6.05" style="fill:rgb(213,54,148);"/>
                        <path d="M17.8,6.05L18.45,6.6C18.683,7 18.8,7.483 18.8,8.05C18.8,8.583 18.683,9.05 18.45,9.45L17.8,10.05L17.65,10.05C17.283,10.05 16.983,9.85 16.75,9.45C16.517,9.05 16.4,8.567 16.4,8C16.4,7.467 16.517,7 16.75,6.6C16.983,6.2 17.283,6 17.65,6L17.8,6.05" style="fill:rgb(255,182,225);"/>
                        <path d="M17.45,4.6C18.05,4.6 18.567,4.967 19,5.7C19.433,6.4 19.65,7.283 19.65,8.35C19.65,9.35 19.433,10.217 19,10.95C18.567,11.683 18.05,12.05 17.45,12.05C16.817,12.05 16.283,11.683 15.85,10.95C15.417,10.217 15.2,9.333 15.2,8.3C15.2,7.267 15.417,6.4 15.85,5.7C16.283,4.967 16.817,4.6 17.45,4.6Z" style="fill:none;fill-rule:nonzero;stroke:black;stroke-opacity:0.3;stroke-width:0.05px;stroke-linecap:butt;stroke-linejoin:miter;stroke-miterlimit:3;"/>
                    </g>
                </g>
            </g>
        </g>
    </g>
</svg>
