<?xml version="1.0" encoding="UTF-8" standalone="no"?>
<!DOCTYPE svg PUBLIC "-//W3C//DTD SVG 1.1//EN" "http://www.w3.org/Graphics/SVG/1.1/DTD/svg11.dtd">
<svg width="100%" height="100%" viewBox="0 0 21 26" version="1.1" xmlns="http://www.w3.org/2000/svg" xmlns:xlink="http://www.w3.org/1999/xlink" xml:space="preserve" xmlns:serif="http://www.serif.com/" style="fill-rule:evenodd;clip-rule:evenodd;stroke-miterlimit:3;">
    <g transform="matrix(1,0,0,1,0.193323,0.23925)">
        <g id="sprite0" transform="matrix(-0.8,0,0,0.8,10.6999,21.8003)">
            <g>
                <g id="sprite1" transform="matrix(1,0,0,1,0.45,0.25)">
                    <g id="shape0">
                        <path d="M-10.6,-3.6L10.4,-3.6L10.4,4.1L-10.6,4.1L-10.6,-3.6" style="fill:none;fill-rule:nonzero;"/>
                    </g>
                </g>
                <g id="sprite5" transform="matrix(0.8246,-0.0675,0,0.8246,-3.52617,-2.79249)">
                    <g id="sprite3">
                        <g id="sprite4">
                            <g id="sprite51" serif:id="sprite5">
                                <g id="shape1">
                                    <path d="M0.1,-0.75L0.05,-0.5C-1.083,-0.867 -1.967,-0.667 -2.6,0.1L-2.95,-0.3C-2.85,-0.8 -2.55,-1.233 -2.05,-1.6C-1.15,-1.8 -0.433,-1.517 0.1,-0.75" style="fill:rgb(254,247,224);"/>
                                    <path d="M-2.6,0.1C-1.967,-0.667 -1.083,-0.867 0.05,-0.5L0,0.45L-2.6,0.1" style="fill:rgb(217,206,180);"/>
                                    <path d="M0.1,-0.75C-0.433,-1.517 -1.15,-1.8 -2.05,-1.6C-2.55,-1.233 -2.85,-0.8 -2.95,-0.3L-2.6,0.1L0,0.45" style="fill:none;fill-rule:nonzero;stroke:rgb(147,85,11);stroke-width:0.05px;"/>
                                    <path d="M-2.7,-0.9L-0.7,-1.05L0.8,-1.25C1.8,-0.75 2.517,-0.2 2.95,0.4L3,0.45L1.95,0.7L0.75,0.95L-0.25,0.9C-0.183,0.5 -1,-0.1 -2.7,-0.9" style="fill:rgb(255,172,15);"/>
                                    <path d="M3,0.45C3.333,0.983 3.433,1.55 3.3,2.15L2.95,3.45L0.25,3.95C-0.95,4.183 -2.05,3.967 -3.05,3.3C-3.783,2.067 -3.867,0.867 -3.3,-0.3L-2.85,-0.85L-2.7,-0.9C-1,-0.1 -0.183,0.5 -0.25,0.9L0.75,0.95L1.95,0.7L3,0.45" style="fill:rgb(193,125,0);"/>
                                    <path d="M-2.7,-0.9L-0.7,-1.05L0.8,-1.25C1.8,-0.75 2.517,-0.2 2.95,0.4L3,0.45C3.333,0.983 3.433,1.55 3.3,2.15L2.95,3.45L0.25,3.95C-0.95,4.183 -2.05,3.967 -3.05,3.3C-3.783,2.067 -3.867,0.867 -3.3,-0.3L-2.85,-0.85L-2.7,-0.9Z" style="fill:none;fill-rule:nonzero;stroke:rgb(147,85,11);stroke-width:0.05px;"/>
                                    <path d="M-2.8,0.15L-3.45,0.25L-4.25,0.5L-2.2,0.65L-1.95,0.85L-2,1.25L-4.1,1.55L-5.6,1.75L-6.75,1.55C-6.483,1.017 -6.083,0.533 -5.55,0.1L-2.8,0.15" style="fill:rgb(254,247,224);"/>
                                    <path d="M-2.2,0.65L-4.25,0.5L-3.45,0.25L-2.8,0.15L-2.2,0.65M-6.75,1.55L-5.6,1.75L-4.1,1.55L-2,1.25L-2.05,2.9L-6.4,3.05L-7.05,2.5L-6.75,1.55" style="fill:rgb(226,209,175);"/>
                                    <path d="M-2.8,0.15L-5.55,0.1C-6.083,0.533 -6.483,1.017 -6.75,1.55L-7.05,2.5L-6.4,3.05L-2.05,2.9M-1.95,0.85L-2.2,0.65L-2.8,0.15" style="fill:none;fill-rule:nonzero;stroke:rgb(181,148,99);stroke-width:0.05px;"/>
                                    <path d="M-0.95,1.5L-1.05,1.55L-2.35,2.05L-0.65,2.1L-0.6,2.45L-1.05,2.8C-2.117,3.333 -2.867,3.6 -3.3,3.6L-4.6,3.35L-4.9,3.2C-4.733,2.633 -4.45,2.1 -4.05,1.6L-0.95,1.5" style="fill:rgb(254,247,224);"/>
                                    <path d="M-0.95,1.5L-0.65,1.75L-0.65,2.1L-2.35,2.05L-1.05,1.55L-0.95,1.5M-4.9,3.2L-4.6,3.35L-3.3,3.6C-2.867,3.6 -2.117,3.333 -1.05,2.8L-0.6,2.45L-0.45,3.9C-1.583,4.467 -2.883,4.733 -4.35,4.7L-5.05,4.25L-4.9,3.2" style="fill:rgb(226,209,175);"/>
                                    <path d="M-0.65,1.75L-0.95,1.5L-4.05,1.6C-4.45,2.1 -4.733,2.633 -4.9,3.2L-5.05,4.25L-4.35,4.7C-2.883,4.733 -1.583,4.467 -0.45,3.9" style="fill:none;fill-rule:nonzero;stroke:rgb(181,148,99);stroke-width:0.05px;"/>
                                </g>
                            </g>
                        </g>
                    </g>
                </g>
                <g id="sprite8" transform="matrix(0.8246,-0.0675,0,0.8246,4.15889,-0.829075)">
                    <g id="sprite6">
                        <g id="sprite7">
                            <g id="sprite81" serif:id="sprite8">
                                <g id="shape2">
                                    <path d="M-3.75,0.1L-3.45,-0.1L-2,-0.6L-0.05,-1C1.217,-0.4 2.15,0.233 2.75,0.9L2.8,1L2.1,1.65L1.15,2.3L0.65,1.95C-0.25,1.417 -1,1.15 -1.6,1.15C-2,1.15 -2.3,1.033 -2.5,0.8C-2.733,0.533 -3.15,0.3 -3.75,0.1" style="fill:rgb(255,172,15);"/>
                                    <path d="M-3.75,0.1C-3.15,0.3 -2.733,0.533 -2.5,0.8C-2.3,1.033 -2,1.15 -1.6,1.15C-1,1.15 -0.25,1.417 0.65,1.95L1.15,2.3L2.1,1.65L2.8,1C3.3,1.6 3.517,2.233 3.45,2.9L3.3,4.45L0.55,4.9C-1.15,5.233 -2.55,5.067 -3.65,4.4C-4.65,3.133 -4.933,2.033 -4.5,1.1L-4.5,1.05L-3.75,0.1" style="fill:rgb(193,125,0);"/>
                                    <path d="M2.8,1L2.75,0.9C2.15,0.233 1.217,-0.4 -0.05,-1L-2,-0.6L-3.45,-0.1L-3.75,0.1L-4.5,1.05L-4.5,1.1C-4.933,2.033 -4.65,3.133 -3.65,4.4C-2.55,5.067 -1.15,5.233 0.55,4.9L3.3,4.45L3.45,2.9C3.517,2.233 3.3,1.6 2.8,1Z" style="fill:none;fill-rule:nonzero;stroke:rgb(147,85,11);stroke-width:0.05px;"/>
                                    <path d="M-2.75,1.3C-2.65,2.033 -3.333,2.533 -4.8,2.8C-5.633,2.8 -6.05,2.45 -6.05,1.75L-5.85,1.5L-5.8,1.4L-2.75,1.3" style="fill:rgb(254,247,224);"/>
                                    <path d="M-6.05,1.75C-6.05,2.45 -5.633,2.8 -4.8,2.8C-3.333,2.533 -2.65,2.033 -2.75,1.3L-2.05,1.85L-1.75,3.65C-3.683,4.55 -5.033,4.967 -5.8,4.9C-6.233,4.833 -6.517,4.633 -6.65,4.3C-6.717,3.4 -6.517,2.55 -6.05,1.75" style="fill:rgb(226,209,175);"/>
                                    <path d="M-6.05,1.75C-6.517,2.55 -6.717,3.4 -6.65,4.3C-6.517,4.633 -6.233,4.833 -5.8,4.9C-5.033,4.967 -3.683,4.55 -1.75,3.65M-2.05,1.85L-2.75,1.3L-5.8,1.4L-5.85,1.5" style="fill:none;fill-rule:nonzero;stroke:rgb(181,148,99);stroke-width:0.05px;"/>
                                    <path d="M-2.75,4.75C-2.75,3.817 -2.567,3.117 -2.2,2.65L-2.2,2.6C-1.633,1.867 -1.067,1.65 -0.5,1.95L0.25,2.6L-0.45,4.1L0.75,3.3L-0.1,4.6L-1.1,5.15L-2.15,5.25L-2.75,4.75" style="fill:rgb(254,247,224);"/>
                                    <path d="M0.25,2.6L0.5,2.95L1.2,3.9C1.367,4.233 1.417,4.65 1.35,5.15C1.15,5.917 0.717,6.4 0.05,6.6L-0.9,6.7C-2.033,6.633 -2.65,6.317 -2.75,5.75L-2.75,4.75L-2.15,5.25L-1.1,5.15L-0.1,4.6L0.75,3.3L-0.45,4.1L0.25,2.6" style="fill:rgb(226,209,175);"/>
                                    <path d="M0.25,2.6L0.5,2.95L1.2,3.9C1.367,4.233 1.417,4.65 1.35,5.15C1.15,5.917 0.717,6.4 0.05,6.6L-0.9,6.7C-2.033,6.633 -2.65,6.317 -2.75,5.75L-2.75,4.75C-2.75,3.817 -2.567,3.117 -2.2,2.65L-2.2,2.6C-1.633,1.867 -1.067,1.65 -0.5,1.95L0.25,2.6Z" style="fill:none;fill-rule:nonzero;stroke:rgb(181,148,99);stroke-width:0.05px;"/>
                                    <path d="M2.8,2.25L3.5,2.9L3.8,3.45L3.5,3.75L2.95,3.75L2.15,2.65L2.05,2.7L2.1,2.6C2.3,2.3 2.517,2.167 2.75,2.2L2.8,2.25" style="fill:rgb(254,247,224);"/>
                                    <path d="M3.8,3.45L3.85,3.5L3.95,4.25C3.85,4.683 3.633,4.967 3.3,5.1L2.8,5.15C2.2,5.117 1.867,4.933 1.8,4.6C1.733,3.667 1.817,3.033 2.05,2.7L2.15,2.65L2.95,3.75L3.5,3.75L3.8,3.45" style="fill:rgb(226,209,175);"/>
                                    <path d="M2.8,2.25L3.5,2.9L3.8,3.45L3.85,3.5L3.95,4.25C3.85,4.683 3.633,4.967 3.3,5.1L2.8,5.15C2.2,5.117 1.867,4.933 1.8,4.6C1.733,3.667 1.817,3.033 2.05,2.7L2.1,2.6C2.3,2.3 2.517,2.167 2.75,2.2" style="fill:none;fill-rule:nonzero;stroke:rgb(181,148,99);stroke-width:0.05px;"/>
                                </g>
                            </g>
                        </g>
                    </g>
                </g>
                <g id="sprite10" transform="matrix(1,0,0,1,-1.7,-6.5)">
                    <g id="sprite11" transform="matrix(0.7119,-0.0247,0.006,0.7119,4.64999,-20.2)">
                        <g id="shape3">
                            <path d="M2.55,24.6L2.8,24.9L2.8,24.95L2.55,24.6M2.95,25L2.95,25.15L2.9,25.1L2.95,25" style="fill:rgb(255,204,255);"/>
                            <path d="M12.8,0.55L13.65,1.7C14.05,2.467 14.217,3.617 14.15,5.15L14.05,5.7C12.95,6.333 11.883,6.817 10.85,7.15L8.75,7.65C9.45,5.817 10.233,4.117 11.1,2.55C10.233,4.117 9.45,5.817 8.75,7.65L9.35,7.7L9.2,7.8C9.267,7.767 9.3,7.783 9.3,7.85L11.95,8.4L13.35,8.25L12.75,9.95L7.1,11.65L8,9.45L8.1,9.25L8.75,7.65L8.1,9.25L8,9.45L7.1,11.65L6.95,11.65L5.3,7.7L5.4,7.3L5.4,5.55C6.033,6.65 6.65,7.567 7.25,8.3L8,9.45L7.8,8.95L6.8,5.7C6.467,4.467 6.25,3.233 6.15,2C6.083,1.6 6.433,1.233 7.2,0.9C8.4,0.3 9.667,0.017 11,0.05L11.8,0.05L11.85,0L11.9,0L11.95,0.05L12.1,0.05L12.25,0.1L11.1,2.55L12.8,0.55M5.2,16.85L10.25,15.8L9.7,16.9C7.967,17.9 6.3,18.45 4.7,18.55L5.2,16.85M7.55,22.7L6.9,23.95C5.167,24.817 4,25.25 3.4,25.25L2.95,25.15L2.95,25C4.917,24.567 6.45,23.8 7.55,22.7" style="fill:rgb(255,247,223);"/>
                            <path d="M13.35,8.25L11.95,8.4L9.3,7.85C9.3,7.783 9.267,7.767 9.2,7.8L9.35,7.7L13.7,7.1L13.35,8.25M7.1,11.65L12.75,9.95L10.25,15.8L5.2,16.85L4.8,16.9L3.75,16.05L1.65,13.75C1.683,12.75 1.8,11.833 2,11L3.2,13.05C4.033,14.35 4.883,15.2 5.75,15.6L5.95,14.95C6.05,14.517 6.2,14.117 6.4,13.75L7.1,11.65L6.4,13.75C6.2,14.117 6.05,14.517 5.95,14.95C4.183,13.283 2.983,11.533 2.35,9.7L2.85,7.85C3.417,6.15 4.2,4.617 5.2,3.25C5.433,4.55 5.933,5.917 6.7,7.35L7.25,8.3C6.65,7.567 6.033,6.65 5.4,5.55L5.4,7.3L5.3,7.7L6.95,11.65L7.1,11.65M5.2,16.85L5.55,16L5.65,15.9L5.75,15.6L5.65,15.9L5.55,16L5.2,16.85M4.55,9.7C4.617,11.167 5.233,12.517 6.4,13.75C5.233,12.517 4.617,11.167 4.55,9.7" style="fill:rgb(216,209,188);"/>
                            <path d="M2,11L2.35,9.7C2.983,11.533 4.183,13.283 5.95,14.95L5.75,15.6C4.883,15.2 4.033,14.35 3.2,13.05L2,11M1.65,13.75L3.75,16.05L4.8,16.9L5.2,16.85L4.7,18.55C6.3,18.45 7.967,17.9 9.7,16.9L8.1,19.9C6.967,21.967 5.25,23.667 2.95,25L2.9,25.1L2.95,25.15L3.4,25.25C4,25.25 5.167,24.817 6.9,23.95C6.067,25.05 4.483,26.45 2.15,28.15C1.783,29.217 1.567,30.1 1.5,30.8L1.1,30.6L2.05,27.7C0.917,25.8 0.233,23.95 0,22.15C0.733,24.05 1.55,25.283 2.45,25.85C0.783,23.417 0.05,21.167 0.25,19.1C1.017,21.6 1.783,23.433 2.55,24.6L2.8,24.95L2.8,24.65L2.75,24.65C1.317,21.05 0.933,17.617 1.6,14.35L1.65,13.75M4.7,18.55C4.033,20.65 3.45,22.8 2.95,25C3.45,22.8 4.033,20.65 4.7,18.55M2.45,25.85L2.5,25.95L2.5,25.9L2.45,25.85M2.15,28.15L2.95,25.15L2.15,28.15" style="fill:rgb(178,173,158);"/>
                            <path d="M14.05,5.7L14.15,5.15C14.217,3.617 14.05,2.467 13.65,1.7L12.8,0.55M11.1,2.55C10.233,4.117 9.45,5.817 8.75,7.65L8.1,9.25L8,9.45L7.1,11.65L6.4,13.75C6.2,14.117 6.05,14.517 5.95,14.95L5.75,15.6L5.65,15.9L5.55,16L5.2,16.85L4.7,18.55C6.3,18.45 7.967,17.9 9.7,16.9L10.25,15.8L12.75,9.95L13.35,8.25L13.7,7.1M6.15,2C6.083,1.6 6.433,1.233 7.2,0.9C8.4,0.3 9.667,0.017 11,0.05L11.8,0.05L11.85,0L11.9,0L11.95,0.05L12.1,0.05L12.25,0.1L11.1,2.55M2,11L2.35,9.7L2.85,7.85C3.417,6.15 4.2,4.617 5.2,3.25M2.75,24.65C1.317,21.05 0.933,17.617 1.6,14.35L1.65,13.75C1.683,12.75 1.8,11.833 2,11M2.75,24.65L2.8,24.8L2.8,24.65M2.8,24.9L2.8,24.8M7.55,22.7L6.9,23.95C6.067,25.05 4.483,26.45 2.15,28.15C1.783,29.217 1.567,30.1 1.5,30.8L1.1,30.6L2.05,27.7M2.45,25.85C0.783,23.417 0.05,21.167 0.25,19.1M9.7,16.9L8.1,19.9C6.967,21.967 5.25,23.667 2.95,25L2.95,25.15L2.15,28.15M2.35,9.7C2.983,11.533 4.183,13.283 5.95,14.95M6.4,13.75C5.233,12.517 4.617,11.167 4.55,9.7M2.95,25C3.45,22.8 4.033,20.65 4.7,18.55M2.5,25.9L2.5,25.95L2.45,25.85" style="fill:none;fill-rule:nonzero;stroke:black;stroke-opacity:0.23;stroke-width:0.5px;stroke-linecap:round;"/>
                        </g>
                    </g>
                    <g id="sprite12" transform="matrix(-1.2362,0,0,1.2362,0.69997,3.25008)">
                        <g id="shape4">
                            <path d="M-1.25,-7.05C-1.45,-7.65 -1.283,-8.067 -0.75,-8.3C-0.45,-8.433 -0.233,-8.367 -0.1,-8.1L0.1,-7.7C0.3,-7.167 0.967,-6.683 2.1,-6.25C3.2,-5.783 3.95,-5.117 4.35,-4.25C3.583,-4.817 2.817,-5.233 2.05,-5.5C1.05,-5.867 0.333,-6.283 -0.1,-6.75C-0.833,-7.583 -1.217,-7.683 -1.25,-7.05" style="fill:rgb(255,247,223);"/>
                            <path d="M-1.25,-7.05C-1.217,-7.683 -0.833,-7.583 -0.1,-6.75C0.333,-6.283 1.05,-5.867 2.05,-5.5C2.817,-5.233 3.583,-4.817 4.35,-4.25C4.583,-3.65 4.633,-3.1 4.5,-2.6L3.95,-3.65L2.6,-4.75L3.15,-3.65C2.45,-3.783 1.683,-4.067 0.85,-4.5C-0.517,-5.3 -1.333,-5.567 -1.6,-5.3C-1.733,-5.8 -1.683,-6.133 -1.45,-6.3L-0.9,-6.3L-1,-6.45L-1.25,-7.05M-0.3,-5.45L-0.9,-6.3L-0.3,-5.45" style="fill:rgb(216,209,188);"/>
                            <path d="M4.5,-2.6L4,-2C3.067,-1.133 1.95,-1.05 0.65,-1.75C0.183,-2.05 -0.083,-2.45 -0.15,-2.95L0,-3.2L-0.15,-3.3C-0.617,-3.6 -0.967,-3.983 -1.2,-4.45L-1.6,-5.3C-1.333,-5.567 -0.517,-5.3 0.85,-4.5C1.683,-4.067 2.45,-3.783 3.15,-3.65L2.6,-4.75L3.95,-3.65L4.5,-2.6M0,-3.2C0.5,-2.867 1.133,-2.633 1.9,-2.5C1.133,-2.633 0.5,-2.867 0,-3.2" style="fill:rgb(178,173,158);"/>
                            <path d="M4.35,-4.25C3.95,-5.117 3.2,-5.783 2.1,-6.25C0.967,-6.683 0.3,-7.167 0.1,-7.7L-0.1,-8.1C-0.233,-8.367 -0.45,-8.433 -0.75,-8.3C-1.283,-8.067 -1.45,-7.65 -1.25,-7.05L-1,-6.45L-0.9,-6.3L-0.3,-5.45M4.35,-4.25C4.583,-3.65 4.633,-3.1 4.5,-2.6L4,-2C3.067,-1.133 1.95,-1.05 0.65,-1.75C0.183,-2.05 -0.083,-2.45 -0.15,-2.95L0,-3.2L-0.15,-3.3C-0.617,-3.6 -0.967,-3.983 -1.2,-4.45L-1.6,-5.3C-1.733,-5.8 -1.683,-6.133 -1.45,-6.3L-0.9,-6.3M1.9,-2.5C1.133,-2.633 0.5,-2.867 0,-3.2" style="fill:none;fill-rule:nonzero;stroke:black;stroke-opacity:0.3;stroke-width:0.25px;stroke-linecap:round;"/>
                            <path d="M1.45,-8.7L1.85,-8.8C1.683,-8.1 1.3,-7.4 0.7,-6.7C1.267,-6.6 1.817,-6.35 2.35,-5.95L2.6,-5.75L3.9,-4L4.2,-3.05L4.2,-3L4.3,-2.2L4.05,-2.2L3.4,-2.05L2.35,-1.95C1.517,-1.95 0.65,-2.133 -0.25,-2.5C-1.65,-3.067 -2.35,-3.867 -2.35,-4.9C-2.35,-5.233 -2.217,-5.6 -1.95,-6L-2.05,-6L-2.1,-6.55L-2.1,-6.6C-2.1,-7.1 -1.933,-7.6 -1.6,-8.1L-1.4,-7L-1.4,-6.25L-1.3,-6.2L-0.5,-7.2C0.1,-7.867 0.75,-8.367 1.45,-8.7" style="fill:rgb(255,247,223);"/>
                            <path d="M-1.6,-8.1C-1.933,-7.6 -2.1,-7.1 -2.1,-6.6L-2.1,-6.55L-2.05,-6L-1.95,-6C-2.217,-5.6 -2.35,-5.233 -2.35,-4.9C-2.35,-3.867 -1.65,-3.067 -0.25,-2.5C0.65,-2.133 1.517,-1.95 2.35,-1.95L3.4,-2.05L4.05,-2.2L4.3,-2.2L4.3,-1.65L3.35,-1.75L1.45,-1.55L0.9,-1.1L0.9,-1.05C0.833,-0.65 1.317,-0.25 2.35,0.15L2.45,0.2L1.3,0.6C-0.033,1.033 -1.15,0.633 -2.05,-0.6L-2.5,-1.25L-3,-2.3C-3.233,-2.867 -3.333,-3.4 -3.3,-3.9L-3,-5.4L-2.8,-5.85L-2.65,-5.9L-2.65,-6.2L-2.6,-6.25L-2.6,-6.35C-2.567,-7.05 -2.35,-7.717 -1.95,-8.35L-1.9,-8.4L-1.75,-8.5L-1.6,-8.1" style="fill:rgb(216,209,188);"/>
                            <path d="M1.45,-8.7C0.75,-8.367 0.1,-7.867 -0.5,-7.2L-1.3,-6.2L-1.4,-6.25L-1.4,-7.05C-0.567,-7.917 0.383,-8.467 1.45,-8.7M4.3,-1.65L3.9,-0.5L3.2,0.4L3,0.55C2.133,1.317 1.133,1.75 0,1.85L-2.5,1.5L-3.1,1.2L-4.6,0.15L-4.6,0.2C-5.233,-0.6 -5.583,-1.25 -5.65,-1.75L-5.65,-2.4C-5.417,-3.633 -4.85,-4.65 -3.95,-5.45L-3.3,-5.95L-3.25,-6.25L-3.2,-6.4C-3,-7.3 -2.583,-7.95 -1.95,-8.35C-2.35,-7.717 -2.567,-7.05 -2.6,-6.35L-2.6,-6.25L-2.65,-6.2L-2.65,-5.9L-2.8,-5.85L-3,-5.4L-3.3,-3.9C-3.333,-3.4 -3.233,-2.867 -3,-2.3L-2.5,-1.25L-2.05,-0.6C-1.15,0.633 -0.033,1.033 1.3,0.6L2.45,0.2L2.35,0.15C1.317,-0.25 0.833,-0.65 0.9,-1.05L0.9,-1.1L1.45,-1.55L3.35,-1.75L4.3,-1.65" style="fill:rgb(178,173,158);"/>
                            <path d="M4.3,-2.2L4.2,-3L4.2,-3.05L3.9,-4L2.6,-5.75L2.35,-5.95C1.817,-6.35 1.267,-6.6 0.7,-6.7C1.3,-7.4 1.683,-8.1 1.85,-8.8L1.45,-8.7C0.383,-8.467 -0.567,-7.917 -1.4,-7.05L-1.4,-7L-1.6,-8.1L-1.75,-8.5L-1.9,-8.4L-1.95,-8.35C-2.583,-7.95 -3,-7.3 -3.2,-6.4L-3.25,-6.25L-3.3,-5.95L-3.95,-5.45C-4.85,-4.65 -5.417,-3.633 -5.65,-2.4L-5.65,-1.75C-5.583,-1.25 -5.233,-0.6 -4.6,0.2M-1.4,-6.25L-1.4,-7M4.3,-2.2L4.3,-1.65L3.9,-0.5L3.2,0.4L3,0.55C2.133,1.317 1.133,1.75 0,1.85L-2.5,1.5L-3.1,1.2L-4.6,0.15" style="fill:none;fill-rule:nonzero;stroke:black;stroke-opacity:0.3;stroke-width:0.25px;stroke-linecap:round;"/>
                            <path d="M-7,-2.65C-7.133,-3.15 -7.083,-3.483 -6.85,-3.65L-6.3,-3.65L-6.4,-3.8L-6.65,-4.4C-6.617,-5.033 -6.233,-4.933 -5.5,-4.1C-5.067,-3.633 -4.35,-3.217 -3.35,-2.85L-1.05,-1.6L-0.5,0.5C-0.833,-0.7 -1.6,-1.567 -2.8,-2.1C-2.467,-1.733 -2.283,-1.367 -2.25,-1C-2.95,-1.133 -3.717,-1.417 -4.55,-1.85C-5.917,-2.65 -6.733,-2.917 -7,-2.65M-5.7,-2.8L-6.3,-3.65L-5.7,-2.8" style="fill:rgb(216,209,188);"/>
                            <path d="M-6.65,-4.4C-6.85,-5 -6.683,-5.417 -6.15,-5.65C-5.85,-5.783 -5.633,-5.717 -5.5,-5.45L-5.3,-5.05C-5.1,-4.517 -4.433,-4.033 -3.3,-3.6C-2.2,-3.133 -1.45,-2.467 -1.05,-1.6L-3.35,-2.85C-4.35,-3.217 -5.067,-3.633 -5.5,-4.1C-6.233,-4.933 -6.617,-5.033 -6.65,-4.4" style="fill:rgb(255,247,223);"/>
                            <path d="M-0.5,0.5L-0.45,0.65L-1.4,0.65L-1.4,0.7C-2.333,1.533 -3.45,1.6 -4.75,0.9C-5.217,0.6 -5.483,0.2 -5.55,-0.3L-5.4,-0.55L-5.55,-0.65C-6.017,-0.95 -6.367,-1.333 -6.6,-1.8L-7,-2.65C-6.733,-2.917 -5.917,-2.65 -4.55,-1.85C-3.717,-1.417 -2.95,-1.133 -2.25,-1C-2.283,-1.367 -2.467,-1.733 -2.8,-2.1C-1.6,-1.567 -0.833,-0.7 -0.5,0.5M-5.4,-0.55C-4.9,-0.217 -4.267,0.017 -3.5,0.15C-4.267,0.017 -4.9,-0.217 -5.4,-0.55" style="fill:rgb(178,173,158);"/>
                            <path d="M-7,-2.65C-7.133,-3.15 -7.083,-3.483 -6.85,-3.65L-6.3,-3.65L-6.4,-3.8L-6.65,-4.4C-6.85,-5 -6.683,-5.417 -6.15,-5.65C-5.85,-5.783 -5.633,-5.717 -5.5,-5.45L-5.3,-5.05C-5.1,-4.517 -4.433,-4.033 -3.3,-3.6C-2.2,-3.133 -1.45,-2.467 -1.05,-1.6M-1.4,0.65L-1.4,0.7C-2.333,1.533 -3.45,1.6 -4.75,0.9C-5.217,0.6 -5.483,0.2 -5.55,-0.3L-5.4,-0.55L-5.55,-0.65C-6.017,-0.95 -6.367,-1.333 -6.6,-1.8L-7,-2.65M-6.3,-3.65L-5.7,-2.8M-3.5,0.15C-4.267,0.017 -4.9,-0.217 -5.4,-0.55" style="fill:none;fill-rule:nonzero;stroke:black;stroke-opacity:0.3;stroke-width:0.25px;stroke-linecap:round;"/>
                        </g>
                    </g>
                    <g id="shape5">
                        <path d="M0.15,4.6L1.4,4.5C-0.333,5.633 -1.833,7.1 -3.1,8.9C-5.033,6.633 -7.283,4.85 -9.85,3.55L-9.7,3.35C-7.133,4.25 -5,5.483 -3.3,7.05C-2.2,6.05 -1.05,5.233 0.15,4.6M-0.75,3.35L-5.2,4.5L-3.1,4.65C-2.7,4.85 -2.4,5.15 -2.2,5.55C-2.933,5.15 -3.933,4.8 -5.2,4.5L-5.45,4.5L-5.65,4C-6.083,3.233 -6.433,2.217 -6.7,0.95L-5.85,0.55C-5.983,1.55 -5.95,2.517 -5.75,3.45L-3.3,1.95L-0.75,3.35M-5.65,4L-5.75,3.45L-5.65,4" style="fill:rgb(114,83,54);"/>
                        <path d="M1.4,4.5L0.15,4.6C-1.05,5.233 -2.2,6.05 -3.3,7.05C-5,5.483 -7.133,4.25 -9.7,3.35C-8.967,2.35 -7.967,1.55 -6.7,0.95C-6.433,2.217 -6.083,3.233 -5.65,4L-5.45,4.5L-5.2,4.5L-0.75,3.35L1.4,4.5M-3.1,4.65L-5.2,4.5C-3.933,4.8 -2.933,5.15 -2.2,5.55C-2.4,5.15 -2.7,4.85 -3.1,4.65L0.15,4.6L-3.1,4.65M-3.3,1.95L-5.75,3.45C-5.95,2.517 -5.983,1.55 -5.85,0.55L-3.3,1.95" style="fill:rgb(163,137,114);"/>
                        <path d="M1.4,4.5L0.15,4.6L-3.1,4.65L-5.2,4.5L-5.45,4.5L-5.65,4L-5.75,3.45C-5.95,2.517 -5.983,1.55 -5.85,0.55L-0.75,3.35L1.4,4.5C-0.333,5.633 -1.833,7.1 -3.1,8.9C-5.033,6.633 -7.283,4.85 -9.85,3.55L-9.7,3.35C-8.967,2.35 -7.967,1.55 -6.7,0.95L-5.85,0.55" style="fill:none;fill-rule:nonzero;stroke:black;stroke-opacity:0.3;stroke-width:0.25px;stroke-linecap:round;"/>
                        <path d="M-4.8,3.6L-4.7,4.15C-4.733,4.45 -4.883,4.683 -5.15,4.85L-5.95,5.1L-6.55,4.7L-6.8,4.15L-6.8,4L-6.15,4.25L-5.85,4.4L-5.55,4.3L-5.5,4.25L-5.55,4.3L-5.85,4.4L-6.15,4.25L-6.2,4.1L-5.4,4L-5.5,4.25L-4.8,3.6" style="fill:rgb(100,34,31);"/>
                        <path d="M-4.8,3.6L-5.5,4.25L-5.4,4L-6.2,4.1L-6.25,3.95L-6.1,3.65L-5.75,3.55L-5.5,3.65L-5.4,4L-5.5,3.65L-5.75,3.55L-6.1,3.65L-6.25,3.95L-6.15,4.25L-6.8,4L-6.4,3.35C-6.2,3.15 -5.967,3.05 -5.7,3.05C-5.4,3.05 -5.15,3.15 -4.95,3.35L-4.8,3.6M-5.55,3.65L-5.75,3.55L-6,3.65L-6.15,3.8L-6.1,3.95L-5.6,3.95L-5.5,3.85L-5.55,3.65M-5.5,3.2C-5.567,3.133 -5.667,3.1 -5.8,3.1L-6.1,3.2L-6.25,3.35L-6.2,3.5L-5.55,3.5L-5.4,3.35L-5.5,3.2" style="fill:rgb(174,40,34);"/>
                        <path d="M-5.5,3.2L-5.4,3.35L-5.55,3.5L-6.2,3.5L-6.25,3.35L-6.1,3.2L-5.8,3.1C-5.667,3.1 -5.567,3.133 -5.5,3.2M-5.55,3.65L-5.5,3.85L-5.6,3.95L-6.1,3.95L-6.15,3.8L-6,3.65L-5.75,3.55L-5.55,3.65" style="fill:rgb(251,146,142);"/>
                        <path d="M-6.8,4L-6.8,4.15L-6.55,4.7L-5.95,5.1L-5.15,4.85C-4.883,4.683 -4.733,4.45 -4.7,4.15L-4.8,3.6L-4.95,3.35C-5.15,3.15 -5.4,3.05 -5.7,3.05C-5.967,3.05 -6.2,3.15 -6.4,3.35L-6.8,4M-5.5,4.25L-5.55,4.3L-5.85,4.4L-6.15,4.25L-6.25,3.95L-6.1,3.65L-5.75,3.55L-5.5,3.65L-5.4,4L-5.5,4.25Z" style="fill:none;fill-rule:nonzero;stroke:black;stroke-opacity:0.3;stroke-width:0.25px;stroke-linecap:round;"/>
                    </g>
                    <g id="sprite13" transform="matrix(-0.181,0,0,0.181,-1.0499,-0.6)">
                        <g id="shape6">
                            <path d="M-2.25,19.95C-2.883,19.217 -3.2,18.433 -3.2,17.6C-3.2,16.9 -3.033,16.233 -2.7,15.6L8.7,16.65L-0.55,21.3L-2.05,20.1L-2.05,19.95L-2.25,19.95" style="fill:rgb(250,124,19);"/>
                            <path d="M-2.25,19.95C-2.883,19.217 -3.2,18.433 -3.2,17.6C-3.2,16.9 -3.033,16.233 -2.7,15.6L8.7,16.65L-0.55,21.3L-1.3,21.7M-0.55,21.3L-2.05,20.1L-2.25,19.95" style="fill:none;fill-rule:nonzero;stroke:rgb(76,0,0);stroke-opacity:0.3;stroke-width:1px;"/>
                            <path d="M26.95,19.95L23.35,20.35C19.117,20.55 14.517,19.833 9.55,18.2C1.817,15.667 -2.067,11.733 -2.1,6.4L-2.05,6.1C-0.85,4.033 0.817,2.517 2.95,1.55C2.883,1.983 2.867,2.483 2.9,3.05C2.767,6.883 5.633,10.417 11.5,13.65C16.4,16.35 21.267,17.683 26.1,17.65L26.95,19.95" style="fill:rgb(255,172,15);"/>
                            <path d="M-2.1,6.4C-2.067,11.733 1.817,15.667 9.55,18.2C14.517,19.833 19.117,20.55 23.35,20.35L26.95,19.95L27.65,22.3L23.05,22.4C13.517,22.4 4.367,20.75 -4.4,17.45C-4.567,12.85 -3.85,9.117 -2.25,6.25L-2.1,6.4" style="fill:rgb(250,124,19);"/>
                            <path d="M26.1,17.65C21.267,17.683 16.4,16.35 11.5,13.65C5.633,10.417 2.767,6.883 2.9,3.05C2.867,2.483 2.883,1.983 2.95,1.55C4.983,0.517 7.4,0 10.2,0L15.95,0.7C20.183,5.1 23.567,10.75 26.1,17.65M17.85,5.85L17.1,4.85C16.633,4.45 16.117,4.2 15.55,4.1C15.15,3.867 14.817,3.767 14.55,3.8L13.65,4.1C13.05,4.333 12.75,4.583 12.75,4.85C12.683,5.583 13.417,6.45 14.95,7.45L18.1,9.4L19.35,9.35L19.5,8.75L17.85,5.85" style="fill:rgb(255,204,0);"/>
                            <path d="M17.85,5.85L19.5,8.75L19.35,9.35L18.1,9.4L14.95,7.45C13.417,6.45 12.683,5.583 12.75,4.85C12.75,4.583 13.05,4.333 13.65,4.1L14.55,3.8C14.817,3.767 15.15,3.867 15.55,4.1C16.117,4.2 16.633,4.45 17.1,4.85L17.85,5.85" style="fill:rgb(255,255,204);"/>
                            <path d="M26.95,19.95L26.1,17.65C23.567,10.75 20.183,5.1 15.95,0.7L10.2,0C7.4,0 4.983,0.517 2.95,1.55C0.817,2.517 -0.85,4.033 -2.05,6.1L-2.25,6.25C-3.85,9.117 -4.567,12.85 -4.4,17.45C4.367,20.75 13.517,22.4 23.05,22.4L27.65,22.3L26.95,19.95Z" style="fill:none;fill-rule:nonzero;stroke:rgb(76,0,0);stroke-opacity:0.3;stroke-width:1px;"/>
                        </g>
                    </g>
                    <g id="sprite14" transform="matrix(-1.2362,0,0,1.2362,0.2,-2.9)">
                        <g id="shape7">
                            <path d="M0,1.4L0.2,0.4L0.55,0L0.85,0.4L1,1.25L0.85,2.3C0.75,2.667 0.6,2.833 0.4,2.8L0.05,2.4L0,1.4" style="fill:rgb(51,51,51);"/>
                            <path d="M0.7,0.85L0.45,0.7L0.4,0.4L0.45,0.1L0.7,0L0.9,0.1L1,0.4L0.9,0.7L0.7,0.85" style="fill:white;"/>
                        </g>
                    </g>
                    <g id="sprite15" transform="matrix(-1.2362,0,0,1.2362,-2.09999,-3.35)">
                        <g id="shape8">
                            <path d="M0.05,0.45C0.083,0.217 0.15,0.083 0.25,0.05C0.35,0.017 0.433,0.083 0.5,0.25L0.75,1.05L0.85,1.8L0.6,2.1C0.467,2.133 0.35,2.05 0.25,1.85L0.05,1.2L0.05,0.45" style="fill:rgb(51,51,51);"/>
                            <path d="M0.5,0.75L0.25,0.65L0.2,0.35L0.25,0.1L0.5,0L0.7,0.1L0.8,0.35L0.7,0.65L0.5,0.75" style="fill:white;"/>
                        </g>
                    </g>
                </g>
            </g>
        </g>
    </g>
</svg>
