<?xml version="1.0" encoding="UTF-8" standalone="no"?>
<!DOCTYPE svg PUBLIC "-//W3C//DTD SVG 1.1//EN" "http://www.w3.org/Graphics/SVG/1.1/DTD/svg11.dtd">
<svg width="100%" height="100%" viewBox="0 0 14 20" version="1.1" xmlns="http://www.w3.org/2000/svg" xmlns:xlink="http://www.w3.org/1999/xlink" xml:space="preserve" xmlns:serif="http://www.serif.com/" style="fill-rule:evenodd;clip-rule:evenodd;stroke-linecap:round;stroke-linejoin:round;">
    <g transform="matrix(1,0,0,1,-28.2,-11.8)">
        <g transform="matrix(1,0,0,1,34.6,21.9)">
            <g id="shape0">
                <path d="M6.9,-4.05L7.15,-3.5L5.25,-1.15L5.5,-0.5L5.75,0.25L5.9,0.8L6.05,1.4L6,1.85L2.95,5.1L2.85,5.25C2.117,5.65 1.317,5.85 0.45,5.85L-0.55,5.8L-0.75,5.15L-0.05,4.4L-1.55,3.8L-1.75,4.1L-1.55,4.65L-1.9,4.8L-1.65,5.15L-2.3,5.35C-2.2,6.483 -2.383,7.5 -2.85,8.4L-3.6,8.3L-3.5,7.6L-4.05,8.15L-4.15,9.05L-4.45,8.95L-4.75,8.95L-4.7,8.65C-4.9,8.55 -5.117,8.433 -5.35,8.3L-5.1,7.1L-5.65,7.45L-6.05,7.05C-5.183,6.517 -4.417,5.85 -3.75,5.05L-3.85,4.5L-3.45,4.25L-3.6,4L-2.9,3.8L-2.6,3.3L-4.15,2.75L-4.35,4.2C-4.55,4.033 -4.7,3.917 -4.8,3.85L-5.2,3.55L-5.35,2.95L-5.4,2.95L-5.35,2.9L-5.55,2.15C-5.55,2.25 -5.583,2.267 -5.65,2.2L-5.7,2.05L-6.1,0.95L-5.85,-1.4L-5.4,-3.25L-5.05,-3.6L-4.25,-4.35L-3.45,-4.85L-3.45,-4.7L-3.25,-4.35L-2.5,-7.9L-1,-8.75L-0.95,-8.75L-0.3,-8.2L-0.05,-9.15L0.9,-9.45L1.8,-9.7L2.65,-9.8L3,-9.2L3.2,-9.65L4,-8.8L4.8,-7.9L5.35,-6.95L5.35,-6.85L5.85,-5.65L6.1,-5.85L6.9,-4.1L6.9,-4.05Z" style="fill:none;fill-rule:nonzero;stroke:#260900;stroke-width:0.6px;"/>
                <path d="M0.65,-0.55L-0.05,0.8L-1.05,1.5L-0.05,0.8L-0.8,2.2L-1.7,2.95L-1.05,1.5L-0.3,0.1C0.1,0.033 0.417,-0.183 0.65,-0.55M-4.45,8.95L-4.75,8.95L-4.7,8.65L-4.65,7.3L-4.4,7.05L-3.3,5.9L-4.25,7.4L-4.45,8.95" style="fill:#c18300;"/>
                <path d="M0.65,-0.55C0.417,-0.183 0.1,0.033 -0.3,0.1L-1.05,1.5L-1.65,1.55L-0.85,0L0.2,-1.75L0.25,-1.8L0.65,-1.8C0.85,-1.833 0.983,-1.717 1.05,-1.45L0.65,-0.55M-3.5,7.6L-4.05,8.15L-4.15,9.05L-4.45,8.95L-4.25,7.4L-3.3,5.9L-4.4,7.05L-4.65,7.3L-4.7,8.65C-4.933,8.55 -5.15,8.433 -5.35,8.3L-5.1,7.1L-5.65,7.45L-6.05,7.05C-5.183,6.517 -4.417,5.85 -3.75,5.05L-3.85,4.5L-3.45,4.25L-3.6,4L-2.9,3.8L-2.45,3L-1.65,1.55L-1.05,1.5L-1.7,2.95L-2.2,3.9L-2.45,4.45L-2.7,4.35L-3.05,4L-2.9,3.9L-2.2,3.9L-2.9,3.9L-3.05,4L-2.7,4.35C-3,4.45 -2.85,4.65 -2.25,4.95L-2.8,4.75C-3.067,4.95 -3.05,5.15 -2.75,5.35L-2.5,5.4L-2.55,5.45L-2.7,5.45L-2.75,7.05L-2.95,6.5L-3.55,7.6L-3.5,7.6M-0.3,0.1L-0.85,0L-0.3,0.1M-3.45,4.25L-3.25,4.65L-2.8,4.75L-3.25,4.65L-3.45,4.25M-3.3,6.6C-3.667,7.1 -3.917,7.617 -4.05,8.15C-3.917,7.617 -3.667,7.1 -3.3,6.6M-2.9,3.8L-2.9,3.9L-2.9,3.8M-2.7,5.45L-3.7,5.1L-3.75,5.05L-3.7,5.1L-2.7,5.45M-1.7,2.95L-2.45,3L-1.7,2.95" style="fill:#960;"/>
                <path d="M-0.8,2.2L-1.3,3.35L-1.75,4.1L-1.55,4.65L-1.9,4.8L-1.65,5.15L-2.3,5.35C-2.2,6.483 -2.383,7.5 -2.85,8.4L-3.6,8.3L-3.5,7.6L-3.55,7.6L-2.95,6.5L-2.75,7.05L-2.7,5.45L-2.55,5.45L-2.5,5.4L-2.75,5.35C-3.05,5.15 -3.067,4.95 -2.8,4.75L-2.25,4.95C-2.85,4.65 -3,4.45 -2.7,4.35L-2.45,4.45L-2.2,3.9L-1.7,2.95L-0.8,2.2M-1.75,4.1L-1.9,4.45L-2.45,4.45L-1.9,4.45L-1.75,4.1M-2.3,5.35L-2.5,5.4L-2.3,5.35M-1.9,4.8L-2.25,4.95L-1.9,4.8M-1.3,3.35L-2.2,3.9L-1.3,3.35" style="fill:#d19d23;"/>
                <path d="M-0.05,0.8L-0.8,2.2L-1.3,3.35L-1.75,4.1L-1.55,4.65L-1.9,4.8L-1.65,5.15L-2.3,5.35C-2.2,6.483 -2.383,7.5 -2.85,8.4L-3.6,8.3L-3.5,7.6L-4.05,8.15L-4.15,9.05L-4.45,8.95L-4.75,8.95L-4.7,8.65C-4.933,8.55 -5.15,8.433 -5.35,8.3L-5.1,7.1L-5.65,7.45L-6.05,7.05C-5.183,6.517 -4.417,5.85 -3.75,5.05L-3.85,4.5L-3.45,4.25L-3.6,4L-2.9,3.8L-2.45,3L-1.65,1.55L-0.85,0L0.2,-1.75L0.25,-1.8L0.65,-1.8C0.85,-1.833 0.983,-1.717 1.05,-1.45L0.65,-0.55M-0.85,0L-0.3,0.1M-1.65,1.55L-1.05,1.5M-1.7,2.95L-0.8,2.2M-2.45,4.45L-1.9,4.45L-1.75,4.1M-2.7,4.35L-2.45,4.45M-2.2,3.9L-2.9,3.9L-3.05,4L-2.7,4.35M-2.25,4.95L-1.9,4.8M-2.5,5.4L-2.3,5.35M-2.8,4.75L-2.25,4.95M-2.7,5.45L-2.55,5.45L-2.5,5.4M-2.8,4.75L-3.25,4.65L-3.45,4.25M-4.05,8.15C-3.917,7.617 -3.667,7.1 -3.3,6.6M-2.2,3.9L-1.3,3.35M-3.75,5.05L-3.7,5.1L-2.7,5.45M-2.9,3.9L-2.9,3.8M-4.7,8.65L-4.65,7.3L-4.4,7.05M-2.45,3L-1.7,2.95" style="fill:none;fill-rule:nonzero;stroke:#000;stroke-opacity:0.3;stroke-width:0.05px;stroke-linecap:butt;stroke-linejoin:miter;stroke-miterlimit:3;"/>
                <path d="M-0.05,0.8L0.65,-0.55M-1.05,1.5L-0.05,0.8" style="fill:none;fill-rule:nonzero;stroke:#000;stroke-opacity:0.3;stroke-width:0.05px;stroke-linecap:butt;stroke-linejoin:miter;stroke-miterlimit:3;"/>
                <path d="M0.65,-0.55C0.417,-0.183 0.1,0.033 -0.3,0.1" style="fill:none;fill-rule:nonzero;stroke:#000;stroke-opacity:0.3;stroke-width:0.05px;stroke-linejoin:miter;stroke-miterlimit:3;"/>
                <path d="M-4.25,-4.35L-3.45,-4.85L-3.45,-4.7L-3.6,-3.95L-4.25,-0.15L-4.35,-3.4L-4.25,-4.35M-5.85,-1.4L-5.4,-3.25L-5.05,-3.6C-4.917,-3.7 -4.817,-3.533 -4.75,-3.1L-4.75,-3L-5.2,-2.45L-5.85,-1.4M-4.7,-2.75L-4.8,0L-5.3,1.1L-5.35,1.05L-5.2,-0.15L-5.45,0.9L-5.65,0.4L-5.3,-1.6L-4.7,-2.75" style="fill:#d2ba59;"/>
                <path d="M-4.25,-0.15L-3.6,-3.95L-3.45,-4.7L-3.05,-4.05L-3.3,-2.9L-3.65,-0.8L-3.95,1.05L-4.35,4.2L-4.85,3.5L-4.35,0.2L-4.25,-0.15M-5.35,2.9L-5.55,2.15L-5.35,1.05L-5.3,1.1L-4.8,0C-4.767,0.5 -4.95,1.467 -5.35,2.9M-5.7,2.05L-6.1,0.95L-5.85,-1.4L-5.2,-2.45L-4.75,-3L-4.5,-3.15L-4.7,-2.75L-5.3,-1.6L-5.65,0.4L-5.45,0.9L-5.7,2.05" style="fill:#b79c33;"/>
                <path d="M-4.25,-4.35L-4.35,-3.4L-4.25,-0.15L-4.35,0.2L-4.85,3.5L-5.25,3.1L-5.35,2.95L-5.4,2.95L-5.35,2.9C-4.95,1.467 -4.767,0.5 -4.8,0L-4.7,-2.75L-4.5,-3.15L-4.75,-3L-4.75,-3.1C-4.817,-3.533 -4.917,-3.7 -5.05,-3.6L-4.25,-4.35" style="fill:#ddca7d;"/>
                <path d="M-4.35,4.2C-4.55,4.033 -4.7,3.917 -4.8,3.85L-5.2,3.55L-5.35,2.95L-5.25,3.1L-4.85,3.5L-4.35,4.2M-5.55,2.15C-5.55,2.25 -5.583,2.267 -5.65,2.2L-5.7,2.05L-5.45,0.9L-5.2,-0.15L-5.35,1.05L-5.55,2.15" style="fill:#75631f;"/>
                <path d="M-5.35,1.05L-5.55,2.15M-5.35,1.05L-5.2,-0.15L-5.45,0.9L-5.7,2.05M-5.35,2.95L-5.25,3.1L-4.85,3.5" style="fill:none;fill-rule:nonzero;stroke:#000;stroke-opacity:0.3;stroke-width:0.05px;stroke-linecap:butt;stroke-linejoin:miter;stroke-miterlimit:3;"/>
                <path d="M-4.25,-0.15L-4.35,0.2L-4.85,3.5" style="fill:none;fill-rule:nonzero;stroke:#000;stroke-opacity:0.2;stroke-width:0.05px;stroke-linecap:butt;stroke-linejoin:miter;stroke-miterlimit:3;"/>
                <path d="M-3.45,-4.7L-3.45,-4.85L-4.25,-4.35L-5.05,-3.6L-5.4,-3.25L-5.85,-1.4L-6.1,0.95L-5.7,2.05L-5.65,2.2C-5.583,2.267 -5.55,2.25 -5.55,2.15L-5.35,2.9L-5.4,2.95L-5.35,2.95L-5.2,3.55L-4.8,3.85C-4.7,3.917 -4.55,4.033 -4.35,4.2L-3.95,1.05L-3.65,-0.8L-3.3,-2.9L-3.05,-4.05L-3.45,-4.7" style="fill:none;fill-rule:nonzero;stroke:#000;stroke-opacity:0.3;stroke-width:0.05px;stroke-linejoin:miter;stroke-miterlimit:3;"/>
                <path d="M-4.25,-0.15L-3.6,-3.95L-3.45,-4.7" style="fill:none;fill-rule:nonzero;stroke:#000;stroke-opacity:0.2;stroke-width:0.05px;stroke-linecap:butt;stroke-linejoin:miter;stroke-miterlimit:3;"/>
                <path d="M-0.3,-8.2L-0.05,-9.15L0.9,-9.45L-0.35,-5.05L1.8,-9.7L2.65,-9.8L-2.7,2.7L-3.55,2.35C-3.517,0.65 -3.217,-0.65 -2.65,-1.55C-2.783,-0.683 -2.717,-0.2 -2.45,-0.1C-1.85,0.1 -1.083,-1.35 -0.15,-4.45C-1.45,-1.683 -2,-0.883 -1.8,-2.05C-1.433,-3.417 -1.517,-4.017 -2.05,-3.85C-2.617,-3.25 -3.117,-2.267 -3.55,-0.9L-4.2,1.15L-2.5,-7.9L-1,-8.75L-0.95,-8.75L-1.05,-7.95L-1.55,-4.25L-0.3,-8.2" style="fill:#ddca7d;"/>
                <path d="M0.9,-9.45L1.8,-9.7L-0.35,-5.05L0.9,-9.45M-4.4,2L-4.2,1.15L-3.55,-0.9C-3.117,-2.267 -2.617,-3.25 -2.05,-3.85C-1.517,-4.017 -1.433,-3.417 -1.8,-2.05C-2,-0.883 -1.45,-1.683 -0.15,-4.45C-1.083,-1.35 -1.85,0.1 -2.45,-0.1C-2.717,-0.2 -2.783,-0.683 -2.65,-1.55C-3.217,-0.65 -3.517,0.65 -3.55,2.35L-4.4,2" style="fill:#d2ba59;"/>
                <path d="M-2.5,3.35L-4.2,2.7L-4.4,2L-2.7,2.7L-2.5,3.35M-0.95,-8.75L-0.3,-8.2L-1.55,-4.25L-1.05,-7.95L-0.95,-8.75" style="fill:#75631f;"/>
                <path d="M2.65,-9.8L2.9,-9.25L-2.5,3.35L-2.7,2.7L2.65,-9.8" style="fill:#b79c33;"/>
                <path d="M-3.55,2.35L-4.4,2" style="fill:none;fill-rule:nonzero;stroke:#000;stroke-opacity:0.3;stroke-width:0.05px;stroke-linecap:butt;stroke-linejoin:miter;stroke-miterlimit:3;"/>
                <path d="M-3.55,2.35L-2.7,2.7L2.65,-9.8" style="fill:none;fill-rule:nonzero;stroke:#000;stroke-opacity:0.2;stroke-width:0.05px;stroke-linecap:butt;stroke-linejoin:miter;stroke-miterlimit:3;"/>
                <path d="M-0.3,-8.2L-0.05,-9.15L0.9,-9.45L1.8,-9.7L2.65,-9.8L2.9,-9.25L-2.5,3.35L-4.2,2.7L-4.4,2L-4.2,1.15L-2.5,-7.9L-1,-8.75L-0.95,-8.75" style="fill:none;fill-rule:nonzero;stroke:#000;stroke-opacity:0.3;stroke-width:0.05px;stroke-linecap:butt;stroke-linejoin:miter;stroke-miterlimit:3;"/>
                <path d="M-0.95,-8.75L-0.3,-8.2L-1.55,-4.25L-1.05,-7.95L-0.95,-8.75" style="fill:none;fill-rule:nonzero;stroke:#000;stroke-opacity:0.3;stroke-width:0.05px;stroke-linejoin:miter;stroke-miterlimit:3;"/>
                <path d="M4,-8.8L4.8,-7.9L2.3,-3.95L4,-8.8M-1.05,-0.05L-0.8,0.45L0.05,0.65C0.55,0.55 1.067,0.033 1.6,-0.9C2.1,-2.167 1.933,-2.783 1.1,-2.75C2.333,-3.417 2.7,-2.783 2.2,-0.85C1.6,0.883 0.817,1.867 -0.15,2.1C-0.65,1.9 -0.95,1.55 -1.05,1.05L-1.05,-0.05M-0.05,3.8L-0.15,3.75L-1.25,3.3C-0.317,3.167 0.367,2.733 0.8,2L-0.05,3.8" style="fill:#d2ba59;"/>
                <path d="M4,-8.8L2.3,-3.95L4.8,-7.9L5.35,-6.95L5.35,-6.85L2.7,-2.55C3.5,-3.583 4.55,-4.617 5.85,-5.65L6.1,-5.85L6.9,-4.1L6.9,-4.05L0.65,3.15L-0.05,3.8L0.8,2C0.367,2.733 -0.317,3.167 -1.25,3.3L-2.4,2.85L-1.05,-0.05L3.2,-9.65L4,-8.8M-1.05,-0.05L-1.05,1.05C-0.95,1.55 -0.65,1.9 -0.15,2.1C0.817,1.867 1.6,0.883 2.2,-0.85C2.7,-2.783 2.333,-3.417 1.1,-2.75C1.933,-2.783 2.1,-2.167 1.6,-0.9C1.067,0.033 0.55,0.55 0.05,0.65L-0.8,0.45L-1.05,-0.05" style="fill:#ddca7d;"/>
                <path d="M5.35,-6.85L5.85,-5.65C4.55,-4.617 3.5,-3.583 2.7,-2.55L5.35,-6.85M0.15,4.45L-2.2,3.5L-2.4,2.85L-1.25,3.3L-0.15,3.75L0.15,4.45" style="fill:#75631f;"/>
                <path d="M6.9,-4.05L7.15,-3.5L0.85,3.8L0.15,4.45L-0.15,3.75L-0.05,3.8L0.65,3.15L6.9,-4.05" style="fill:#b79c33;"/>
                <path d="M4.8,-7.9L4,-8.8M-0.15,3.75L-0.05,3.8M-1.25,3.3L-0.15,3.75M-2.4,2.85L-1.25,3.3" style="fill:none;fill-rule:nonzero;stroke:#000;stroke-opacity:0.3;stroke-width:0.05px;stroke-linecap:butt;stroke-linejoin:miter;stroke-miterlimit:3;"/>
                <path d="M-0.05,3.8L0.65,3.15L6.9,-4.05" style="fill:none;fill-rule:nonzero;stroke:#000;stroke-opacity:0.2;stroke-width:0.05px;stroke-linecap:butt;stroke-linejoin:miter;stroke-miterlimit:3;"/>
                <path d="M4.8,-7.9L5.35,-6.95L5.35,-6.85" style="fill:none;fill-rule:nonzero;stroke:#000;stroke-opacity:0.3;stroke-width:0.05px;stroke-linecap:butt;stroke-linejoin:miter;stroke-miterlimit:3;"/>
                <path d="M5.35,-6.85L5.85,-5.65C4.55,-4.617 3.5,-3.583 2.7,-2.55L5.35,-6.85" style="fill:none;fill-rule:nonzero;stroke:#000;stroke-opacity:0.3;stroke-width:0.05px;stroke-linejoin:miter;stroke-miterlimit:3;"/>
                <path d="M5.85,-5.65L6.1,-5.85L6.9,-4.1L6.9,-4.05L7.15,-3.5L0.85,3.8L0.15,4.45L-2.2,3.5L-2.4,2.85L-1.05,-0.05L3.2,-9.65L4,-8.8" style="fill:none;fill-rule:nonzero;stroke:#000;stroke-opacity:0.3;stroke-width:0.05px;stroke-linejoin:miter;stroke-miterlimit:3;"/>
                <path d="M5.5,-0.35L5.5,-0.5L5.75,0.25L6.05,1.4L6,1.85L5.75,1.3L5.75,1.25L5.85,0.8L5.5,-0.35L5.85,0.8L4.8,0.85L4.65,0.55L4.6,1L2.3,2.85L2.05,3L0.9,4.15L0.25,5.25L0,5.2L-0.75,5.15L1.6,2.65L1.6,2.6L3.7,1.2L5.5,-0.35" style="fill:#ddca7d;"/>
                <path d="M5.5,-0.5L5.5,-0.35L3.7,1.2L1.6,2.6L5.2,-1.35L5.5,-0.5M5.85,0.8L5.75,1.25L5.75,1.3L4.6,2.55C4.9,1.783 4.967,1.217 4.8,0.85L5.85,0.8M4.6,1C4.267,2.933 3.333,3.933 1.8,4L2.3,2.85L4.6,1" style="fill:#d2ba59;"/>
                <path d="M5.75,1.3L6,1.85L2.95,5.1L2.85,5.25L2.6,4.65L2.75,4.5L4.6,2.55L2.75,4.5L2.6,4.65C1.8,5.05 1.017,5.25 0.25,5.25L0.9,4.15L2.05,3L2.3,2.85L1.8,4C3.333,3.933 4.267,2.933 4.6,1L4.65,0.55L4.8,0.85C4.967,1.217 4.9,1.783 4.6,2.55L5.75,1.3" style="fill:#b79c33;"/>
                <path d="M2.6,4.65L2.85,5.25C2.117,5.65 1.317,5.85 0.45,5.85L-0.55,5.8L-0.75,5.15L0,5.2L0.25,5.25C1.017,5.25 1.8,5.05 2.6,4.65" style="fill:#75631f;"/>
                <path d="M2.85,5.25L2.95,5.1L6,1.85M-0.75,5.15L1.6,2.65L1.6,2.6M-0.75,5.15L-0.55,5.8L0.45,5.85C1.317,5.85 2.117,5.65 2.85,5.25" style="fill:none;fill-rule:nonzero;stroke:#000;stroke-opacity:0.3;stroke-width:0.05px;stroke-linecap:butt;stroke-linejoin:miter;stroke-miterlimit:3;"/>
                <path d="M5.75,1.3L4.6,2.55L2.75,4.5L2.6,4.65C1.8,5.05 1.017,5.25 0.25,5.25L0,5.2L-0.75,5.15" style="fill:none;fill-rule:nonzero;stroke:#000;stroke-opacity:0.2;stroke-width:0.05px;stroke-linecap:butt;stroke-linejoin:miter;stroke-miterlimit:3;"/>
                <path d="M5.5,-0.5L5.5,-0.35L5.85,0.8L5.75,1.25L5.75,1.3M5.5,-0.5L5.2,-1.35L1.6,2.6" style="fill:none;fill-rule:nonzero;stroke:#000;stroke-opacity:0.3;stroke-width:0.05px;stroke-linejoin:miter;stroke-miterlimit:3;"/>
                <path d="M6,1.85L6.05,1.4L5.75,0.25L5.5,-0.5" style="fill:none;fill-rule:nonzero;stroke:#000;stroke-opacity:0.3;stroke-width:0.05px;stroke-linecap:butt;stroke-linejoin:miter;stroke-miterlimit:3;"/>
            </g>
        </g>
    </g>
</svg>
