<?xml version="1.0" encoding="UTF-8" standalone="no"?>
<!DOCTYPE svg PUBLIC "-//W3C//DTD SVG 1.1//EN" "http://www.w3.org/Graphics/SVG/1.1/DTD/svg11.dtd">
<svg width="100%" height="100%" viewBox="0 0 57 48" version="1.1" xmlns="http://www.w3.org/2000/svg" xmlns:xlink="http://www.w3.org/1999/xlink" xml:space="preserve" xmlns:serif="http://www.serif.com/" style="fill-rule:evenodd;clip-rule:evenodd;stroke-linecap:round;stroke-linejoin:round;">
    <g id="sprite0" transform="matrix(1,0,0,1,27.1,28)">
        <g>
            <g id="shape0">
                <path d="M14.5,-25.3L16.25,-23.4L17.1,-21C17.5,-21.867 18.083,-22.45 18.85,-22.75C19.817,-20.883 20.267,-18.667 20.2,-16.1L20.3,-15.95L20.3,-15.9L20.55,-15.55L21.6,-15.95L21.75,-15.75C24.017,-18.383 26.517,-20.417 29.25,-21.85C29.483,-20.183 29.067,-18.167 28,-15.8L29,-15.9C28.733,-14.3 27.8,-12.65 26.2,-10.95L25.6,-10.35L25.5,-10.3L26.65,-9.55C25.883,-8.483 24.917,-7.617 23.75,-6.95L22.85,-6.5L22.25,-6.3L21.75,-6.4L21.85,-5.4L22.1,-5.45L21.85,-3.35L21.1,-3.2L21.45,-2.85L21.2,-2L21.3,-1.85L20.15,-0.05L19.7,-0.6L19.55,-0.4L19.55,0.55L18.35,1.45L18.35,1.4L18.25,1.35L17.8,1.6L17.8,1.05L17.75,1.05L17.25,1.35L17.1,1.6C16.867,1.567 16.667,1.483 16.5,1.35L16.45,1.4L16.05,0.95L15.9,1L15.75,1.2L15.55,1L14.9,0.95C14.233,0.883 13.6,0.983 13,1.25L12.95,1.45L12.75,1.55L12.55,1.45C12.05,1.717 11.583,2.117 11.15,2.65L9.65,4.4C8.65,5.4 7.55,6.183 6.35,6.75L6.05,6.95L6.05,7L6.35,7.45L7.9,6.3L8.5,6.2L9.5,6.55L9.7,6.9L9.75,7.1L9.85,7.65L13,8.6L13,8.65L13.2,11.4L11.85,12.35L11.15,12.2L11.25,13.25L9.85,14.25L9.1,13.95L8.6,12.5L6.75,11.95L5.95,12.55L5.8,12.65L5.35,12.7L4.55,12.35C4.317,12.417 4.167,12.267 4.1,11.9L3.85,10.4C3.783,10.133 3.8,9.883 3.9,9.65L4.25,9L5.05,8.4L4.55,7.65L4.35,7.6L4.2,7.6L4.05,7.7L3.95,7.55L3.4,7.65L3.3,8.2L1.7,8.8L1.7,8.75L1.55,8.65L0.9,8.75L0.95,8.2L0.9,8.15L0.35,8.3L0.1,8.6L-0.6,8.2L-0.65,8.25C-1.717,8.983 -2.867,9.417 -4.1,9.55L-4.8,9.3L-4.5,9.95L-4.4,10.3C-4.267,10.833 -4.267,11.267 -4.4,11.6L-4.65,11.95L-4.05,12.8L-2.15,11.55C-1.85,11.317 -1.633,11.25 -1.5,11.35L-0.6,11.75C-0.467,11.817 -0.383,11.967 -0.35,12.2L-0.3,12.4L-0.2,12.95L2.8,13.95L2.9,16.9L1.55,17.75L0.8,17.55L0.75,17.4L0.8,18.6L-0.55,19.5L-1.3,19.25L-1.75,17.7L-3.55,17.05L-4.4,17.6L-4.55,17.7L-4.95,17.75L-5.7,17.3C-5.967,17.333 -6.133,17.167 -6.2,16.8L-6.4,15.4L-6.35,14.6L-5.9,14L-5.45,13.7L-6.1,12.75L-6.2,12.75C-6.6,12.75 -6.983,12.55 -7.35,12.15L-8.2,10.85L-8.25,10.7C-8.317,10.267 -8.267,9.867 -8.1,9.5L-8,9.4C-7.733,8.767 -7.117,8.45 -6.15,8.45L-7.3,7.2C-7.467,6.533 -7.5,5.85 -7.4,5.15L-7.55,5.05L-8.7,5.85L-8.65,5.9L-10.45,8.45L-10.45,8.85C-10.45,10.017 -10.717,11.2 -11.25,12.4L-11.8,12.9L-12.75,13.55C-13.917,14.183 -15.067,14.45 -16.2,14.35L-16.1,13.25L-19.8,13.4L-20.95,13.15L-21.85,12.8L-21.9,12.75L-21.45,11.8L-21.25,11.45C-23.617,11.05 -25.4,10.133 -26.6,8.7C-24.433,6.767 -22,5.383 -19.3,4.55L-17.7,4.05L-17.85,4L-15.2,1.85L-14.9,1.95L-15.15,1.15L-16.45,0.45L-15.5,-0.4C-14.2,-1.567 -12.783,-2.517 -11.25,-3.25L-11.45,-3.4L-11.55,-5.4L-12.45,-6.55L-11.5,-7.1L-11.45,-7.9C-12.65,-8.5 -13.717,-9.2 -14.65,-10C-15.883,-11.1 -16.883,-12.367 -17.65,-13.8L-18,-14.55L-18.85,-16.95L-16.55,-16.85C-14.65,-16.65 -12.867,-16.183 -11.2,-15.45L-10.7,-16L-10.65,-16L-10.05,-17.2L-9.65,-16.95L-6.8,-14.8L-4.2,-16.1C-4.6,-17.367 -4.817,-18.617 -4.85,-19.85C-4.917,-21.117 -4.783,-22.367 -4.45,-23.6L-3.8,-25.35L-3.2,-26.75L-2.15,-25.7C-0.783,-24.267 0.317,-22.717 1.15,-21.05C1.75,-19.717 2.217,-18.3 2.55,-16.8L4.8,-15.85L4.8,-16L4.75,-16.05L4.95,-16.2L5.3,-16.4L5.45,-17.15L8.1,-17.5L8,-16.95L9.2,-17.1L9.4,-17.45L9.5,-17.4L10.35,-17.05L11.35,-16.4L11.45,-16.6L12.2,-15.8L12.55,-16.15L13.15,-16.65L13.3,-16.75L13.3,-16.8C13.2,-17.567 13.4,-18.117 13.9,-18.45C13.033,-20.15 12.317,-21.867 11.75,-23.6C11.35,-24.9 11.033,-26.2 10.8,-27.5C11.667,-27.333 12.617,-26.833 13.65,-26L14.5,-25.3" style="fill:rgb(40,10,2);"/>
                <path d="M14.5,-25.3L13.65,-26C12.617,-26.833 11.667,-27.333 10.8,-27.5C11.033,-26.2 11.35,-24.9 11.75,-23.6C12.317,-21.867 13.033,-20.15 13.9,-18.45C13.4,-18.117 13.2,-17.567 13.3,-16.8L13.3,-16.75L13.15,-16.65L12.55,-16.15L12.2,-15.8L11.45,-16.6L11.35,-16.4L10.35,-17.05L9.5,-17.4L9.4,-17.45L9.2,-17.1L8,-16.95L8.1,-17.5L5.45,-17.15L5.3,-16.4L4.95,-16.2L4.75,-16.05L4.8,-16L4.8,-15.85L2.55,-16.8C2.217,-18.3 1.75,-19.717 1.15,-21.05C0.317,-22.717 -0.783,-24.267 -2.15,-25.7L-3.2,-26.75L-3.8,-25.35L-4.45,-23.6C-4.783,-22.367 -4.917,-21.117 -4.85,-19.85C-4.817,-18.617 -4.6,-17.367 -4.2,-16.1L-6.8,-14.8L-9.65,-16.95L-10.05,-17.2L-10.65,-16L-10.7,-16L-11.2,-15.45C-12.867,-16.183 -14.65,-16.65 -16.55,-16.85L-18.85,-16.95L-18,-14.55L-17.65,-13.8C-16.883,-12.367 -15.883,-11.1 -14.65,-10C-13.717,-9.2 -12.65,-8.5 -11.45,-7.9L-11.5,-7.1L-12.45,-6.55L-11.55,-5.4L-11.45,-3.4L-11.25,-3.25C-12.783,-2.517 -14.2,-1.567 -15.5,-0.4L-16.45,0.45L-15.15,1.15L-14.9,1.95L-15.2,1.85L-17.85,4L-17.7,4.05L-19.3,4.55C-22,5.383 -24.433,6.767 -26.6,8.7C-25.4,10.133 -23.617,11.05 -21.25,11.45L-21.45,11.8L-21.9,12.75L-21.85,12.8L-20.95,13.15L-19.8,13.4L-16.1,13.25L-16.2,14.35C-15.067,14.45 -13.917,14.183 -12.75,13.55L-11.8,12.9L-11.25,12.4C-10.717,11.2 -10.45,10.017 -10.45,8.85L-10.45,8.45L-8.65,5.9L-8.7,5.85L-7.55,5.05L-7.4,5.15C-7.5,5.85 -7.467,6.533 -7.3,7.2L-6.15,8.45C-7.117,8.45 -7.733,8.767 -8,9.4L-8.1,9.5C-8.267,9.867 -8.317,10.267 -8.25,10.7L-8.2,10.85L-7.35,12.15C-6.983,12.55 -6.6,12.75 -6.2,12.75L-6.1,12.75L-5.45,13.7L-5.9,14L-6.35,14.6L-6.4,15.4L-6.2,16.8C-6.133,17.167 -5.967,17.333 -5.7,17.3L-4.95,17.75L-4.55,17.7L-4.4,17.6L-3.55,17.05L-1.75,17.7L-1.3,19.25L-0.55,19.5L0.8,18.6L0.75,17.4L0.8,17.55L1.55,17.75L2.9,16.9L2.8,13.95L-0.2,12.95L-0.3,12.4L-0.35,12.2C-0.383,11.967 -0.467,11.817 -0.6,11.75L-1.5,11.35C-1.633,11.25 -1.85,11.317 -2.15,11.55L-4.05,12.8L-4.65,11.95L-4.4,11.6C-4.267,11.267 -4.267,10.833 -4.4,10.3L-4.5,9.95L-4.8,9.3L-4.1,9.55C-2.867,9.417 -1.717,8.983 -0.65,8.25L-0.6,8.2L0.1,8.6L0.35,8.3L0.9,8.15L0.95,8.2L0.9,8.75L1.55,8.65L1.7,8.75L1.7,8.8L3.3,8.2L3.4,7.65L3.95,7.55L4.05,7.7L4.2,7.6L4.35,7.6L4.55,7.65L5.05,8.4L4.25,9L3.9,9.65C3.8,9.883 3.783,10.133 3.85,10.4L4.1,11.9C4.167,12.267 4.317,12.417 4.55,12.35L5.35,12.7L5.8,12.65L5.95,12.55L6.75,11.95L8.6,12.5L9.1,13.95L9.85,14.25L11.25,13.25L11.15,12.2L11.85,12.35L13.2,11.4L13,8.65L13,8.6L9.85,7.65L9.75,7.1L9.7,6.9L9.5,6.55L8.5,6.2L7.9,6.3L6.35,7.45L6.05,7L6.05,6.95L6.35,6.75C7.55,6.183 8.65,5.4 9.65,4.4L11.15,2.65C11.583,2.117 12.05,1.717 12.55,1.45L12.75,1.55L12.95,1.45L13,1.25C13.6,0.983 14.233,0.883 14.9,0.95L15.55,1L15.75,1.2L15.9,1L16.05,0.95L16.45,1.4L16.5,1.35C16.667,1.483 16.867,1.567 17.1,1.6L17.25,1.35L17.75,1.05L17.8,1.05L17.8,1.6L18.25,1.35L18.35,1.4L18.35,1.45L19.55,0.55L19.55,-0.4L19.7,-0.6L20.15,-0.05L21.3,-1.85L21.2,-2L21.45,-2.85L21.1,-3.2L21.85,-3.35L22.1,-5.45L21.85,-5.4L21.75,-6.4L22.25,-6.3L22.85,-6.5L23.75,-6.95C24.917,-7.617 25.883,-8.483 26.65,-9.55L25.5,-10.3L25.6,-10.35L26.2,-10.95C27.8,-12.65 28.733,-14.3 29,-15.9L28,-15.8C29.067,-18.167 29.483,-20.183 29.25,-21.85C26.517,-20.417 24.017,-18.383 21.75,-15.75L21.6,-15.95L20.55,-15.55L20.3,-15.9L20.3,-15.95L20.2,-16.1C20.267,-18.667 19.817,-20.883 18.85,-22.75C18.083,-22.45 17.5,-21.867 17.1,-21L16.25,-23.4L14.5,-25.3Z" style="fill:none;fill-rule:nonzero;stroke:rgb(40,10,2);stroke-width:1px;"/>
            </g>
            <g id="shape1" transform="matrix(0.9659,-0.2588,0.2588,0.9659,6.19997,9.09989)">
                <path d="M0.05,-3.05L1.4,0.6L-0.15,1.15L-1.5,-2.55C-1.1,-3.083 -0.583,-3.25 0.05,-3.05" style="fill:rgb(11,12,13);"/>
                <path d="M0.05,-3.05L1.4,0.6L-0.15,1.15L-1.5,-2.55C-1.1,-3.083 -0.583,-3.25 0.05,-3.05Z" style="fill:none;fill-rule:nonzero;stroke:black;stroke-opacity:0.3;stroke-width:0.05px;"/>
            </g>
            <g id="shape2" transform="matrix(0.9659,-0.2588,0.2588,0.9659,8.49998,11.4498)">
                <path d="M-4,-2.95L-3.45,-3.45L0.7,-5.1L1.35,-5.05L2.2,-4.5L2.35,-4.1L-1.95,-2.5L-2.5,-2L-4,-2.95" style="fill:rgb(80,81,83);"/>
                <path d="M2.35,-4.1L2.35,-3.9L2.25,-2.45C2.217,-1.883 1.933,-1.483 1.4,-1.25L-2.75,0.4L-2.9,0.45L-2.8,-1.25L-2.5,-2L-1.95,-2.5L2.35,-4.1" style="fill:rgb(42,44,47);"/>
                <path d="M-2.9,0.45L-3.35,0.4L-4.05,-0.15C-4.283,-0.15 -4.383,-0.35 -4.35,-0.75L-4.25,-2.2L-4,-2.95L-2.5,-2L-2.8,-1.25L-2.9,0.45" style="fill:rgb(31,33,35);"/>
                <path d="M2.35,-4.1L2.35,-3.9L2.25,-2.45C2.217,-1.883 1.933,-1.483 1.4,-1.25L-2.75,0.4L-2.9,0.45L-3.35,0.4L-4.05,-0.15C-4.283,-0.15 -4.383,-0.35 -4.35,-0.75L-4.25,-2.2L-4,-2.95L-3.45,-3.45L0.7,-5.1L1.35,-5.05L2.2,-4.5L2.35,-4.1Z" style="fill:none;fill-rule:nonzero;stroke:black;stroke-opacity:0.3;stroke-width:0.05px;"/>
                <path d="M5.05,-1.55L2.9,-0.7L2.9,-0.8L-0.25,-2.7L1.95,-3.5L5.05,-1.6L5.05,-1.55" style="fill:rgb(38,39,40);"/>
                <path d="M-0.25,-2.7L2.9,-0.8L2.9,-0.7L3,1.75L2.35,1.4L2.25,-0.25L-0.1,-1.7L-0.25,-2.7" style="fill:rgb(17,18,19);"/>
                <path d="M2.9,-0.7L5.05,-1.55L4.55,1.2L3,1.75L2.9,-0.7" style="fill:rgb(49,51,52);"/>
                <path d="M5.05,-1.55L5.05,-1.6L1.95,-3.5L-0.25,-2.7L-0.1,-1.7L2.25,-0.25L2.35,1.4L3,1.75L4.55,1.2L5.05,-1.55Z" style="fill:none;fill-rule:nonzero;stroke:black;stroke-opacity:0.3;stroke-width:0.05px;"/>
                <path d="M2.55,-0.45L2.65,-0.4L2.15,2.45L0.55,3.05L0.45,0.55L2.55,-0.45" style="fill:rgb(49,51,52);"/>
                <path d="M0.55,3.05L-0.05,2.6L-0.15,1.05L-2.6,-0.45L-2.7,-1.45L0.45,0.4L0.45,0.55L0.55,3.05" style="fill:rgb(17,18,19);"/>
                <path d="M-2.7,-1.45L-0.5,-2.3L2.55,-0.45L0.45,0.55L0.45,0.4L-2.7,-1.45" style="fill:rgb(38,39,40);"/>
                <path d="M2.55,-0.45L2.65,-0.4L2.15,2.45L0.55,3.05L-0.05,2.6L-0.15,1.05L-2.6,-0.45L-2.7,-1.45L-0.5,-2.3L2.55,-0.45Z" style="fill:none;fill-rule:nonzero;stroke:black;stroke-opacity:0.3;stroke-width:0.05px;"/>
                <path d="M1.35,-5.05L2.2,-4.5L2.35,-4.1L2.35,-3.9L2.3,-3.25L5.05,-1.6L5.05,-1.55L4.55,1.2L3,1.75L2.35,1.4L2.35,1.35L2.15,2.45L0.55,3.05L-0.05,2.6L-0.15,1.05L-1.8,0.05L-2.75,0.4L-2.9,0.45L-3.35,0.4L-4.05,-0.15C-4.283,-0.15 -4.383,-0.35 -4.35,-0.75L-4.25,-2.2L-4,-2.95L-3.45,-3.45L0.7,-5.1L1.35,-5.05" style="fill-opacity:0.3;"/>
            </g>
            <g id="shape3" transform="matrix(0.9659,-0.2588,0.2588,0.9659,6.49986,2.35)">
                <path d="M-0.7,2.4L-1.65,2.6L-2.1,1.55C-2.367,1.117 -2.7,0.85 -3.1,0.75L-3.7,0.75L-4,0.95C-3.567,0.383 -2.867,0.233 -1.9,0.5L-1.1,1.2C-0.867,1.6 -0.733,2 -0.7,2.4" style="fill:rgb(38,39,40);"/>
                <path d="M-1.65,2.6L-1.65,3.05C-1.65,3.617 -1.8,4.033 -2.1,4.3L-2.45,4.6L-2.7,4.7L-3.1,4.65L-4.1,3.8C-4.4,3.333 -4.55,2.833 -4.55,2.3C-4.55,1.767 -4.4,1.35 -4.1,1.05L-4,0.95L-3.7,0.75L-3.1,0.75C-2.7,0.85 -2.367,1.117 -2.1,1.55L-1.65,2.6M-2.55,2.05L-3.1,1.65L-3.65,1.8L-3.85,2.5L-3.65,3.25L-3.1,3.7C-2.867,3.767 -2.683,3.717 -2.55,3.55L-2.35,2.9L-2.55,2.05" style="fill:rgb(49,51,52);"/>
                <path d="M-2.45,4.6L-2.1,4.3C-1.8,4.033 -1.65,3.617 -1.65,3.05L-1.65,2.6L-0.7,2.4L-0.7,2.75C-0.7,3.283 -0.833,3.7 -1.1,4L-1.6,4.35L-2.7,4.7L-2.45,4.6M-2.55,2.05L-2.35,2.9L-2.55,3.55C-2.683,3.717 -2.867,3.767 -3.1,3.7L-3.65,3.25L-3.85,2.5L-3.65,1.8L-3.1,1.65L-2.55,2.05" style="fill:rgb(17,18,19);"/>
                <path d="M-2.45,4.6L-2.7,4.7L-1.6,4.35L-1.1,4C-0.833,3.7 -0.7,3.283 -0.7,2.75L-0.7,2.4C-0.733,2 -0.867,1.6 -1.1,1.2L-1.9,0.5C-2.867,0.233 -3.567,0.383 -4,0.95L-4.1,1.05C-4.4,1.35 -4.55,1.767 -4.55,2.3C-4.55,2.833 -4.4,3.333 -4.1,3.8L-3.1,4.65L-2.7,4.7M-3.7,0.75L-4,0.95M-2.55,2.05L-2.35,2.9L-2.55,3.55C-2.683,3.717 -2.867,3.767 -3.1,3.7L-3.65,3.25L-3.85,2.5L-3.65,1.8L-3.1,1.65L-2.55,2.05Z" style="fill:none;fill-rule:nonzero;stroke:black;stroke-opacity:0.3;stroke-width:0.05px;"/>
            </g>
            <g id="shape4" transform="matrix(0.9659,-0.2588,0.2588,0.9659,6.49997,2.34995)">
                <path d="M2.65,-1.4L-1.25,1.9C-1.983,1.733 -2.317,1.333 -2.25,0.7L1.55,-2.5L2.65,-1.4" style="fill:rgb(17,18,19);"/>
                <path d="M2.65,-1.4L-1.25,1.9C-1.983,1.733 -2.317,1.333 -2.25,0.7L1.55,-2.5L2.65,-1.4Z" style="fill:none;fill-rule:nonzero;stroke:black;stroke-opacity:0.3;stroke-width:0.05px;"/>
            </g>
            <g id="shape5" transform="matrix(0.9659,-0.2588,0.2588,0.9659,6.50002,2.34983)">
                <path d="M4.35,-1.95C4.55,-0.517 4.233,0.717 3.4,1.75L-0.25,2.1C0.65,1.2 1.15,0.083 1.25,-1.25L1.2,-1.25L1.2,-1.35L4.35,-1.95M-0.9,-2.15L-0.2,-1.6L0.05,-0.6C0.05,-0.233 -0.033,0.033 -0.2,0.2C-0.4,0.433 -0.633,0.5 -0.9,0.4C-1.167,0.333 -1.383,0.15 -1.55,-0.15L-1.85,-1.1L-1.55,-1.95C-1.383,-2.15 -1.167,-2.217 -0.9,-2.15" style="fill:rgb(17,18,19);"/>
                <path d="M-0.25,2.1C-1.417,1.4 -2.25,0.367 -2.75,-1C-2.717,-2.033 -2.383,-3.067 -1.75,-4.1L-1.45,-4.2C-0.183,-3.633 0.7,-2.683 1.2,-1.35L1.2,-1.25L1.25,-1.25C1.15,0.083 0.65,1.2 -0.25,2.1M-0.9,-2.15C-1.167,-2.217 -1.383,-2.15 -1.55,-1.95L-1.85,-1.1L-1.55,-0.15C-1.383,0.15 -1.167,0.333 -0.9,0.4C-0.633,0.5 -0.4,0.433 -0.2,0.2C-0.033,0.033 0.05,-0.233 0.05,-0.6L-0.2,-1.6L-0.9,-2.15" style="fill:rgb(49,51,52);"/>
                <path d="M-1.45,-4.2C-0.35,-4.633 0.7,-4.8 1.7,-4.7C2.8,-4.1 3.683,-3.233 4.35,-2.1L4.35,-1.95L1.2,-1.35C0.7,-2.683 -0.183,-3.633 -1.45,-4.2" style="fill:rgb(38,39,40);"/>
                <path d="M-1.45,-4.2C-0.35,-4.633 0.7,-4.8 1.7,-4.7C2.8,-4.1 3.683,-3.233 4.35,-2.1L4.35,-1.95C4.55,-0.517 4.233,0.717 3.4,1.75L-0.25,2.1C-1.417,1.4 -2.25,0.367 -2.75,-1C-2.717,-2.033 -2.383,-3.067 -1.75,-4.1L-1.45,-4.2M-0.9,-2.15L-0.2,-1.6L0.05,-0.6C0.05,-0.233 -0.033,0.033 -0.2,0.2C-0.4,0.433 -0.633,0.5 -0.9,0.4C-1.167,0.333 -1.383,0.15 -1.55,-0.15L-1.85,-1.1L-1.55,-1.95C-1.383,-2.15 -1.167,-2.217 -0.9,-2.15Z" style="fill:none;fill-rule:nonzero;stroke:black;stroke-opacity:0.3;stroke-width:0.05px;"/>
            </g>
            <g id="shape6" transform="matrix(0.9659,-0.2588,0.2588,0.9659,6.44998,3.04978)">
                <path d="M4.55,-2.6C4.75,-1.167 4.433,0.067 3.6,1.1L-0.05,1.45L-0.65,1.05L-0.5,1.75L-0.5,2.1C-0.5,2.633 -0.633,3.05 -0.9,3.35L-1.4,3.7L-2.5,4.05L-2.9,4C-3.3,3.9 -3.633,3.617 -3.9,3.15L-4.35,1.65C-4.35,1.117 -4.2,0.7 -3.9,0.4L-3.8,0.3C-3.367,-0.233 -2.683,-0.383 -1.75,-0.15L-2.55,-1.65C-2.517,-2.683 -2.183,-3.717 -1.55,-4.75L-1.25,-4.85C-0.15,-5.283 0.9,-5.45 1.9,-5.35C3,-4.75 3.883,-3.883 4.55,-2.75L4.55,-2.6" style="fill-opacity:0.3;"/>
            </g>
            <g id="shape7" transform="matrix(0.9659,-0.2588,0.2588,0.9659,-4.60003,13.4499)">
                <path d="M0.1,-2.05L1.45,1.6L-0.1,2.15L-1.45,-1.55C-1.05,-2.083 -0.533,-2.25 0.1,-2.05" style="fill:rgb(17,18,19);"/>
                <path d="M0.1,-2.05L1.45,1.6L-0.1,2.15L-1.45,-1.55C-1.05,-2.083 -0.533,-2.25 0.1,-2.05Z" style="fill:none;fill-rule:nonzero;stroke:black;stroke-opacity:0.3;stroke-width:0.05px;"/>
            </g>
            <g id="shape8" transform="matrix(0.9659,-0.2588,0.2588,0.9659,-2.25005,15.7998)">
                <path d="M-3.65,-2.2L-3.05,-2.7L1.2,-4.1C1.533,-4.233 1.75,-4.233 1.85,-4.1L2.65,-3.45L2.8,-3L-1.6,-1.65L-2.2,-1.2L-3.65,-2.2" style="fill:rgb(80,81,83);"/>
                <path d="M2.8,-3L2.75,-2.8L2.6,-1.4C2.533,-0.867 2.233,-0.467 1.7,-0.2L-2.55,1.2L-2.7,1.25L-2.5,-0.45L-2.2,-1.2L-1.6,-1.65L2.8,-3" style="fill:rgb(42,44,47);"/>
                <path d="M-2.7,1.25L-3.1,1.2L-3.75,0.55C-4.017,0.517 -4.133,0.317 -4.1,-0.05L-3.9,-1.45L-3.65,-2.2L-2.2,-1.2L-2.5,-0.45L-2.7,1.25" style="fill:rgb(31,33,35);"/>
                <path d="M2.8,-3L2.75,-2.8L2.6,-1.4C2.533,-0.867 2.233,-0.467 1.7,-0.2L-2.55,1.2L-2.7,1.25L-3.1,1.2L-3.75,0.55C-4.017,0.517 -4.133,0.317 -4.1,-0.05L-3.9,-1.45L-3.65,-2.2L-3.05,-2.7L1.2,-4.1C1.533,-4.233 1.75,-4.233 1.85,-4.1L2.65,-3.45L2.8,-3Z" style="fill:none;fill-rule:nonzero;stroke:black;stroke-opacity:0.3;stroke-width:0.05px;"/>
                <path d="M0.1,-1.75L2.35,-2.5L5.35,-0.45L5.35,-0.4L3.15,0.4L3.15,0.3L0.1,-1.75" style="fill:rgb(38,39,40);"/>
                <path d="M3.15,2.85L2.5,2.5L2.5,0.8L0.2,-0.75L0.1,-1.75L3.15,0.3L3.15,2.85" style="fill:rgb(17,18,19);"/>
                <path d="M5.35,-0.4L4.7,2.4L3.15,2.85L3.15,0.4L5.35,-0.4" style="fill:rgb(49,51,52);"/>
                <path d="M3.15,2.85L2.5,2.5L2.5,0.8L0.2,-0.75L0.1,-1.75L2.35,-2.5L5.35,-0.45L5.35,-0.4L4.7,2.4L3.15,2.85Z" style="fill:none;fill-rule:nonzero;stroke:black;stroke-opacity:0.3;stroke-width:0.05px;"/>
                <path d="M-2.4,-0.65L-0.15,-1.35L2.85,0.65L0.65,1.5L0.65,1.4L-2.4,-0.65" style="fill:rgb(38,39,40);"/>
                <path d="M0.65,4L0.05,3.55L0,1.95L-2.3,0.35L-2.4,-0.65L0.65,1.4L0.65,4" style="fill:rgb(17,18,19);"/>
                <path d="M2.85,0.65L2.9,0.65L2.25,3.5L0.65,4L0.65,1.5L2.85,0.65" style="fill:rgb(49,51,52);"/>
                <path d="M-2.4,-0.65L-0.15,-1.35L2.85,0.65L2.9,0.65L2.25,3.5L0.65,4L0.05,3.55L0,1.95L-2.3,0.35L-2.4,-0.65Z" style="fill:none;fill-rule:nonzero;stroke:black;stroke-opacity:0.3;stroke-width:0.05px;"/>
            </g>
            <g id="shape31" serif:id="shape3" transform="matrix(0.9659,-0.2588,0.2588,0.9659,-4.40013,7.45)">
                <path d="M-0.7,2.4L-1.65,2.6L-2.1,1.55C-2.367,1.117 -2.7,0.85 -3.1,0.75L-3.7,0.75L-4,0.95C-3.567,0.383 -2.867,0.233 -1.9,0.5L-1.1,1.2C-0.867,1.6 -0.733,2 -0.7,2.4" style="fill:rgb(38,39,40);"/>
                <path d="M-1.65,2.6L-1.65,3.05C-1.65,3.617 -1.8,4.033 -2.1,4.3L-2.45,4.6L-2.7,4.7L-3.1,4.65L-4.1,3.8C-4.4,3.333 -4.55,2.833 -4.55,2.3C-4.55,1.767 -4.4,1.35 -4.1,1.05L-4,0.95L-3.7,0.75L-3.1,0.75C-2.7,0.85 -2.367,1.117 -2.1,1.55L-1.65,2.6M-2.55,2.05L-3.1,1.65L-3.65,1.8L-3.85,2.5L-3.65,3.25L-3.1,3.7C-2.867,3.767 -2.683,3.717 -2.55,3.55L-2.35,2.9L-2.55,2.05" style="fill:rgb(49,51,52);"/>
                <path d="M-2.45,4.6L-2.1,4.3C-1.8,4.033 -1.65,3.617 -1.65,3.05L-1.65,2.6L-0.7,2.4L-0.7,2.75C-0.7,3.283 -0.833,3.7 -1.1,4L-1.6,4.35L-2.7,4.7L-2.45,4.6M-2.55,2.05L-2.35,2.9L-2.55,3.55C-2.683,3.717 -2.867,3.767 -3.1,3.7L-3.65,3.25L-3.85,2.5L-3.65,1.8L-3.1,1.65L-2.55,2.05" style="fill:rgb(17,18,19);"/>
                <path d="M-2.45,4.6L-2.7,4.7L-1.6,4.35L-1.1,4C-0.833,3.7 -0.7,3.283 -0.7,2.75L-0.7,2.4C-0.733,2 -0.867,1.6 -1.1,1.2L-1.9,0.5C-2.867,0.233 -3.567,0.383 -4,0.95L-4.1,1.05C-4.4,1.35 -4.55,1.767 -4.55,2.3C-4.55,2.833 -4.4,3.333 -4.1,3.8L-3.1,4.65L-2.7,4.7M-3.7,0.75L-4,0.95M-2.55,2.05L-2.35,2.9L-2.55,3.55C-2.683,3.717 -2.867,3.767 -3.1,3.7L-3.65,3.25L-3.85,2.5L-3.65,1.8L-3.1,1.65L-2.55,2.05Z" style="fill:none;fill-rule:nonzero;stroke:black;stroke-opacity:0.3;stroke-width:0.05px;"/>
            </g>
            <g id="shape41" serif:id="shape4" transform="matrix(0.9659,-0.2588,0.2588,0.9659,-4.40003,7.44995)">
                <path d="M2.65,-1.4L-1.25,1.9C-1.983,1.733 -2.317,1.333 -2.25,0.7L1.55,-2.5L2.65,-1.4" style="fill:rgb(17,18,19);"/>
                <path d="M2.65,-1.4L-1.25,1.9C-1.983,1.733 -2.317,1.333 -2.25,0.7L1.55,-2.5L2.65,-1.4Z" style="fill:none;fill-rule:nonzero;stroke:black;stroke-opacity:0.3;stroke-width:0.05px;"/>
            </g>
            <g id="shape51" serif:id="shape5" transform="matrix(0.9659,-0.2588,0.2588,0.9659,-4.39998,7.44983)">
                <path d="M4.35,-1.95C4.55,-0.517 4.233,0.717 3.4,1.75L-0.25,2.1C0.65,1.2 1.15,0.083 1.25,-1.25L1.2,-1.25L1.2,-1.35L4.35,-1.95M-0.9,-2.15L-0.2,-1.6L0.05,-0.6C0.05,-0.233 -0.033,0.033 -0.2,0.2C-0.4,0.433 -0.633,0.5 -0.9,0.4C-1.167,0.333 -1.383,0.15 -1.55,-0.15L-1.85,-1.1L-1.55,-1.95C-1.383,-2.15 -1.167,-2.217 -0.9,-2.15" style="fill:rgb(17,18,19);"/>
                <path d="M-0.25,2.1C-1.417,1.4 -2.25,0.367 -2.75,-1C-2.717,-2.033 -2.383,-3.067 -1.75,-4.1L-1.45,-4.2C-0.183,-3.633 0.7,-2.683 1.2,-1.35L1.2,-1.25L1.25,-1.25C1.15,0.083 0.65,1.2 -0.25,2.1M-0.9,-2.15C-1.167,-2.217 -1.383,-2.15 -1.55,-1.95L-1.85,-1.1L-1.55,-0.15C-1.383,0.15 -1.167,0.333 -0.9,0.4C-0.633,0.5 -0.4,0.433 -0.2,0.2C-0.033,0.033 0.05,-0.233 0.05,-0.6L-0.2,-1.6L-0.9,-2.15" style="fill:rgb(49,51,52);"/>
                <path d="M-1.45,-4.2C-0.35,-4.633 0.7,-4.8 1.7,-4.7C2.8,-4.1 3.683,-3.233 4.35,-2.1L4.35,-1.95L1.2,-1.35C0.7,-2.683 -0.183,-3.633 -1.45,-4.2" style="fill:rgb(38,39,40);"/>
                <path d="M-1.45,-4.2C-0.35,-4.633 0.7,-4.8 1.7,-4.7C2.8,-4.1 3.683,-3.233 4.35,-2.1L4.35,-1.95C4.55,-0.517 4.233,0.717 3.4,1.75L-0.25,2.1C-1.417,1.4 -2.25,0.367 -2.75,-1C-2.717,-2.033 -2.383,-3.067 -1.75,-4.1L-1.45,-4.2M-0.9,-2.15L-0.2,-1.6L0.05,-0.6C0.05,-0.233 -0.033,0.033 -0.2,0.2C-0.4,0.433 -0.633,0.5 -0.9,0.4C-1.167,0.333 -1.383,0.15 -1.55,-0.15L-1.85,-1.1L-1.55,-1.95C-1.383,-2.15 -1.167,-2.217 -0.9,-2.15Z" style="fill:none;fill-rule:nonzero;stroke:black;stroke-opacity:0.3;stroke-width:0.05px;"/>
            </g>
            <g id="shape9" transform="matrix(1,0,0,1,-0.2,-2.9)">
                <path d="M-6.1,-0.3L-7.6,-0.8C-11.133,0.333 -13.833,1.767 -15.7,3.5C-12.867,4.1 -9.667,2.833 -6.1,-0.3M-3.9,4.3C-7.133,5.533 -10.233,5.7 -13.2,4.8L-16.25,3.35C-13.25,0.383 -9.733,-1.383 -5.7,-1.95L-3.9,4.3" style="fill:rgb(57,59,61);"/>
                <path d="M-6.1,-0.3C-9.667,2.833 -12.867,4.1 -15.7,3.5C-13.833,1.767 -11.133,0.333 -7.6,-0.8L-6.1,-0.3" style="fill:rgb(80,81,83);"/>
                <path d="M-3.9,4.3C-7.133,5.533 -10.233,5.7 -13.2,4.8L-16.25,3.35C-13.25,0.383 -9.733,-1.383 -5.7,-1.95" style="fill:none;fill-rule:nonzero;stroke:black;stroke-opacity:0.3;stroke-width:0.05px;"/>
                <path d="M1.15,-13.85L1.6,-15.35C0.3,-18.85 -1.267,-21.483 -3.1,-23.25C-3.533,-20.383 -2.117,-17.25 1.15,-13.85M-3.35,-11.45C-4.75,-14.583 -5.05,-17.667 -4.25,-20.7L-3,-23.85C0.133,-20.983 2.067,-17.55 2.8,-13.55L-3.35,-11.45" style="fill:rgb(57,59,61);"/>
                <path d="M1.15,-13.85C-2.117,-17.25 -3.533,-20.383 -3.1,-23.25C-1.267,-21.483 0.3,-18.85 1.6,-15.35L1.15,-13.85" style="fill:rgb(80,81,83);"/>
                <path d="M-3.35,-11.45C-4.75,-14.583 -5.05,-17.667 -4.25,-20.7L-3,-23.85C0.133,-20.983 2.067,-17.55 2.8,-13.55" style="fill:none;fill-rule:nonzero;stroke:black;stroke-opacity:0.3;stroke-width:0.05px;"/>
                <path d="M-10.5,-4.65C-13.667,-6.05 -15.983,-8.133 -17.45,-10.9C-14.383,-9.167 -11.45,-8.217 -8.65,-8.05L-10.5,-4.65" style="fill:rgb(57,59,61);"/>
                <path d="M-17.45,-10.9L-18.65,-14.05C-14.383,-14.083 -10.633,-12.85 -7.4,-10.35L-8.65,-8.05C-11.45,-8.217 -14.383,-9.167 -17.45,-10.9M-8.85,-9.45L-9.55,-10.9C-12.85,-12.6 -15.767,-13.483 -18.3,-13.55C-16.7,-11.15 -13.55,-9.783 -8.85,-9.45" style="fill:rgb(80,81,83);"/>
                <path d="M-8.85,-9.45C-13.55,-9.783 -16.7,-11.15 -18.3,-13.55C-15.767,-13.483 -12.85,-12.6 -9.55,-10.9L-8.85,-9.45" style="fill:rgb(116,117,118);"/>
                <path d="M-10.5,-4.65C-13.667,-6.05 -15.983,-8.133 -17.45,-10.9L-18.65,-14.05C-14.383,-14.083 -10.633,-12.85 -7.4,-10.35" style="fill:none;fill-rule:nonzero;stroke:black;stroke-opacity:0.3;stroke-width:0.05px;"/>
                <path d="M10.5,-8.65L10.55,-8.75C11.45,-4.883 11.45,-1.033 10.55,2.8L10.55,2.85L10.35,2.9C7.45,5.267 4.083,6.917 0.25,7.85C-3.95,6.883 -7.35,5.2 -9.95,2.8C-10.883,-1.033 -10.883,-4.883 -9.95,-8.75C-7.017,-11.183 -3.617,-12.883 0.25,-13.85C4.283,-12.65 7.7,-10.95 10.5,-8.75L10.5,-8.65" style="fill:rgb(76,255,246);"/>
                <path d="M10.5,-8.75C7.7,-10.95 4.283,-12.65 0.25,-13.85C-3.617,-12.883 -7.017,-11.183 -9.95,-8.75C-10.883,-4.883 -10.883,-1.033 -9.95,2.8C-7.35,5.2 -3.95,6.883 0.25,7.85C4.083,6.917 7.45,5.267 10.35,2.9L10.55,2.85L10.55,2.8C11.45,-1.033 11.45,-4.883 10.55,-8.75L10.5,-8.65" style="fill:none;fill-rule:nonzero;stroke:white;stroke-opacity:0.5;stroke-width:0.05px;"/>
                <path d="M-6.6,-6.85C-3.233,-10.017 0.667,-12.033 5.1,-12.9L5.4,-11.9C1.667,-11.4 -2,-9.533 -5.6,-6.3C-6.067,-3.667 -5.8,-0.767 -4.8,2.4L-5.75,2.8C-6.783,-0.4 -7.067,-3.617 -6.6,-6.85" style="fill:rgb(42,44,47);"/>
                <path d="M-10.6,-9.15C-7.433,-11.817 -3.733,-13.667 0.5,-14.7L5.1,-12.9C0.667,-12.033 -3.233,-10.017 -6.6,-6.85C-8.9,-7.583 -10.233,-8.35 -10.6,-9.15" style="fill:rgb(80,81,83);"/>
                <path d="M-10.6,-9.15C-10.233,-8.35 -8.9,-7.583 -6.6,-6.85C-7.067,-3.617 -6.783,-0.4 -5.75,2.8C-7.717,2.233 -9.55,1.133 -11.25,-0.5C-11.517,-3.367 -11.3,-6.25 -10.6,-9.15" style="fill:rgb(59,61,63);"/>
                <path d="M5.1,-12.9L0.5,-14.7C-3.733,-13.667 -7.433,-11.817 -10.6,-9.15C-11.3,-6.25 -11.517,-3.367 -11.25,-0.5C-9.55,1.133 -7.717,2.233 -5.75,2.8L-4.8,2.4C-5.8,-0.767 -6.067,-3.667 -5.6,-6.3C-2,-9.533 1.667,-11.4 5.4,-11.9L5.1,-12.9Z" style="fill:none;fill-rule:nonzero;stroke:black;stroke-opacity:0.3;stroke-width:0.05px;"/>
            </g>
            <g id="shape10" transform="matrix(1,0,0,1,0.8,-3.85)">
                <path d="M13.05,-12.15C9.683,-15.517 5.6,-17.2 0.8,-17.2C-3.967,-17.2 -8.067,-15.517 -11.5,-12.15C-14.9,-8.75 -16.6,-4.617 -16.6,0.25C-16.6,5.017 -14.9,9.083 -11.5,12.45C-8.067,15.85 -3.967,17.55 0.8,17.55C5.6,17.55 9.683,15.85 13.05,12.45C16.483,9.083 18.2,5.017 18.2,0.25C18.2,-4.617 16.483,-8.75 13.05,-12.15M16.55,-15.65C20.95,-11.283 23.15,-5.983 23.15,0.25C23.15,6.417 20.95,11.667 16.55,16C12.183,20.367 6.933,22.55 0.8,22.55C-5.367,22.55 -10.65,20.367 -15.05,16C-19.417,11.667 -21.6,6.417 -21.6,0.25C-21.6,-5.983 -19.417,-11.283 -15.05,-15.65C-10.65,-19.983 -5.367,-22.15 0.8,-22.15C6.933,-22.15 12.183,-19.983 16.55,-15.65" style="fill:rgb(77,255,246);fill-opacity:0.1;"/>
                <path d="M8.85,-7.9C6.617,-10.133 3.933,-11.25 0.8,-11.25C-2.367,-11.25 -5.067,-10.133 -7.3,-7.9C-9.533,-5.667 -10.65,-2.95 -10.65,0.25C-10.65,3.383 -9.533,6.05 -7.3,8.25C-5.067,10.483 -2.367,11.6 0.8,11.6C3.933,11.6 6.617,10.483 8.85,8.25C11.117,6.05 12.25,3.383 12.25,0.25C12.25,-2.95 11.117,-5.667 8.85,-7.9M13.05,-12.15C16.483,-8.75 18.2,-4.617 18.2,0.25C18.2,5.017 16.483,9.083 13.05,12.45C9.683,15.85 5.6,17.55 0.8,17.55C-3.967,17.55 -8.067,15.85 -11.5,12.45C-14.9,9.083 -16.6,5.017 -16.6,0.25C-16.6,-4.617 -14.9,-8.75 -11.5,-12.15C-8.067,-15.517 -3.967,-17.2 0.8,-17.2C5.6,-17.2 9.683,-15.517 13.05,-12.15" style="fill:rgb(77,255,246);fill-opacity:0.24;"/>
                <path d="M8.85,-7.9C11.117,-5.667 12.25,-2.95 12.25,0.25C12.25,3.383 11.117,6.05 8.85,8.25C6.617,10.483 3.933,11.6 0.8,11.6C-2.367,11.6 -5.067,10.483 -7.3,8.25C-9.533,6.05 -10.65,3.383 -10.65,0.25C-10.65,-2.95 -9.533,-5.667 -7.3,-7.9C-5.067,-10.133 -2.367,-11.25 0.8,-11.25C3.933,-11.25 6.617,-10.133 8.85,-7.9" style="fill:rgb(77,255,246);fill-opacity:0.45;"/>
            </g>
            <g id="shape11" transform="matrix(1.0029,0.0735,-0.1777,0.9841,20.4501,-12.9998)">
                <path d="M1.95,-1.4L1.1,-2.7C3.233,-5.8 5.2,-7.883 7,-8.95C6.133,-5.817 4.45,-3.3 1.95,-1.4" style="fill:rgb(80,81,83);"/>
                <path d="M7.1,-9.5C7.667,-7.733 7.567,-5.517 6.8,-2.85L6.5,-1.95C4.933,-0.017 3.3,1.267 1.6,1.9C-0.067,1.8 -0.7,0.8 -0.3,-1.1L0,-1.5C1.9,-4.933 4.267,-7.6 7.1,-9.5M1.95,-1.4C4.45,-3.3 6.133,-5.817 7,-8.95C5.2,-7.883 3.233,-5.8 1.1,-2.7L1.95,-1.4" style="fill:rgb(57,59,61);"/>
                <path d="M7.1,-9.5C4.267,-7.6 1.9,-4.933 0,-1.5L-0.3,-1.1C-0.7,0.8 -0.067,1.8 1.6,1.9C3.3,1.267 4.933,-0.017 6.5,-1.95L6.8,-2.85C7.567,-5.517 7.667,-7.733 7.1,-9.5Z" style="fill:none;fill-rule:nonzero;stroke:black;stroke-opacity:0.3;stroke-width:0.05px;"/>
                <path d="M1.3,-0.55C3.8,-2.183 5.917,-3.067 7.65,-3.2C6.217,-0.967 4.25,0.4 1.75,0.9L1.3,-0.55" style="fill:rgb(80,81,83);"/>
                <path d="M0.15,-0.05C2.517,-2.05 5.1,-3.217 7.9,-3.55C7.933,-1.917 7.317,-0.183 6.05,1.65L5.55,2.3C3.883,3.233 2.267,3.6 0.7,3.4C-0.667,2.633 -0.967,1.567 -0.2,0.2L0.15,-0.05M1.3,-0.55L1.75,0.9C4.25,0.4 6.217,-0.967 7.65,-3.2C5.917,-3.067 3.8,-2.183 1.3,-0.55" style="fill:rgb(57,59,61);"/>
                <path d="M0.15,-0.05L-0.2,0.2C-0.967,1.567 -0.667,2.633 0.7,3.4C2.267,3.6 3.883,3.233 5.55,2.3L6.05,1.65C7.317,-0.183 7.933,-1.917 7.9,-3.55C5.1,-3.217 2.517,-2.05 0.15,-0.05Z" style="fill:none;fill-rule:nonzero;stroke:black;stroke-opacity:0.3;stroke-width:0.05px;"/>
                <path d="M6.45,3.25C4.683,4.283 3.017,4.383 1.45,3.55L1.8,2.15C3.9,2.117 5.45,2.483 6.45,3.25" style="fill:rgb(80,81,83);"/>
                <path d="M6.75,3C6.05,4.4 4.983,5.517 3.55,6.35L2.95,6.6C1.65,6.467 0.583,5.933 -0.25,5C-0.65,3.733 -0.35,2.733 0.65,2L0.9,1.95C3.1,1.55 5.05,1.9 6.75,3M6.45,3.25C5.45,2.483 3.9,2.117 1.8,2.15L1.45,3.55C3.017,4.383 4.683,4.283 6.45,3.25" style="fill:rgb(57,59,61);"/>
                <path d="M6.75,3C5.05,1.9 3.1,1.55 0.9,1.95L0.65,2C-0.35,2.733 -0.65,3.733 -0.25,5C0.583,5.933 1.65,6.467 2.95,6.6L3.55,6.35C4.983,5.517 6.05,4.4 6.75,3Z" style="fill:none;fill-rule:nonzero;stroke:black;stroke-opacity:0.3;stroke-width:0.05px;"/>
                <path d="M-2.25,-1.7L0.6,-3.05L2.4,-1.6L-0.15,-0.1L-2.25,-1.7" style="fill:rgb(80,81,83);"/>
                <path d="M-0.15,-0.1L2.4,-1.6L2.1,4.6L-0.5,6.1L-0.15,-0.1" style="fill:rgb(57,59,61);"/>
                <path d="M-2.25,-1.7L-0.15,-0.1L-0.5,6.1L-2.5,4.55L-2.25,-1.7" style="fill:rgb(42,44,47);"/>
                <path d="M2.4,-1.6L0.6,-3.05L-2.25,-1.7L-2.5,4.55L-0.5,6.1L2.1,4.6L2.4,-1.6Z" style="fill:none;fill-rule:nonzero;stroke:black;stroke-opacity:0.3;stroke-width:0.05px;"/>
            </g>
            <g id="sprite1" transform="matrix(0.9899,-0.1403,0.1403,0.9899,-7.95103,5.05041)">
                <g id="shape12">
                    <path d="M4.3,-2.3C4.3,-1.567 4.033,-0.933 3.5,-0.4C3,0.133 2.383,0.4 1.65,0.4C0.917,0.4 0.3,0.133 -0.2,-0.4C-0.733,-0.933 -1,-1.567 -1,-2.3L-0.65,-3.65C-0.617,-2.917 -0.35,-2.3 0.15,-1.8C0.683,-1.267 1.3,-1 2,-1C2.733,-1 3.367,-1.267 3.9,-1.8L4.3,-2.3" style="fill:rgb(17,18,19);"/>
                    <path d="M-0.65,-3.65L-0.2,-4.15C0.3,-4.65 0.917,-4.9 1.65,-4.9C2.383,-4.9 3,-4.65 3.5,-4.15C4,-3.65 4.267,-3.033 4.3,-2.3L3.9,-1.8C3.367,-1.267 2.733,-1 2,-1C1.3,-1 0.683,-1.267 0.15,-1.8C-0.35,-2.3 -0.617,-2.917 -0.65,-3.65" style="fill:rgb(38,39,40);"/>
                    <path d="M-0.65,-3.65L-0.2,-4.15C0.3,-4.65 0.917,-4.9 1.65,-4.9C2.383,-4.9 3,-4.65 3.5,-4.15C4,-3.65 4.267,-3.033 4.3,-2.3C4.3,-1.567 4.033,-0.933 3.5,-0.4C3,0.133 2.383,0.4 1.65,0.4C0.917,0.4 0.3,0.133 -0.2,-0.4C-0.733,-0.933 -1,-1.567 -1,-2.3L-0.65,-3.65Z" style="fill:none;fill-rule:nonzero;stroke:black;stroke-opacity:0.3;stroke-width:0.05px;"/>
                </g>
                <g id="shape13">
                    <path d="M0.35,-1.6C0.883,-1.3 1.1,-0.85 1,-0.25L-2.45,1.45L-3,0L0.35,-1.6" style="fill:rgb(17,18,19);"/>
                    <path d="M0.35,-1.6L-3,0L-2.45,1.45L1,-0.25C1.1,-0.85 0.883,-1.3 0.35,-1.6Z" style="fill:none;fill-rule:nonzero;stroke:black;stroke-opacity:0.3;stroke-width:0.05px;"/>
                </g>
                <g id="shape14">
                    <path d="M-8,-2.4C-6.3,-1.733 -5.883,-0.433 -6.75,1.5C-8.283,3.1 -10.25,4.2 -12.65,4.8L-13.6,4.6C-16.133,3.9 -17.933,2.7 -19,1C-15.833,-1.1 -12.333,-2.233 -8.5,-2.4L-8,-2.4M-18.5,1.25C-15.5,2.117 -12.517,1.7 -9.55,0L-10.1,-1.8C-13.833,-1.167 -16.633,-0.15 -18.5,1.25" style="fill:rgb(57,59,61);"/>
                    <path d="M-18.5,1.25C-16.633,-0.15 -13.833,-1.167 -10.1,-1.8L-9.55,0C-12.517,1.7 -15.5,2.117 -18.5,1.25" style="fill:rgb(80,81,83);"/>
                    <path d="M-8,-2.4C-6.3,-1.733 -5.883,-0.433 -6.75,1.5C-8.283,3.1 -10.25,4.2 -12.65,4.8L-13.6,4.6C-16.133,3.9 -17.933,2.7 -19,1C-15.833,-1.1 -12.333,-2.233 -8.5,-2.4L-8,-2.4Z" style="fill:none;fill-rule:nonzero;stroke:black;stroke-opacity:0.3;stroke-width:0.05px;"/>
                </g>
                <g id="shape15">
                    <path d="M-6.35,-1.7L-6.6,-1.6L-6.75,-1.5L-6.35,-1.8L-6.35,-1.7M-8.6,-0.5L-7.35,1.45C-9.45,3.617 -11.667,5.2 -14,6.2L-14.85,5.7L-14.3,4.8C-12.733,2.667 -10.833,0.9 -8.6,-0.5M-5,-0.5L-5.5,-1.15L-4.85,-0.65L-5,-0.5" style="fill:rgb(80,81,83);"/>
                    <path d="M-6.75,-1.5L-6.6,-1.6L-6.35,-1.7L-6.15,-1.85L-5.5,-1.15L-5,-0.5L-3.5,1.25C-4.267,3.35 -5.617,5.15 -7.55,6.65L-8.55,6.85L-12.95,6.6L-14,6.2C-11.667,5.2 -9.45,3.617 -7.35,1.45L-8.6,-0.5L-7.35,-1.2L-6.75,-1.5M-14.85,5.7L-14.9,5.65L-14.3,4.8L-14.85,5.7" style="fill:rgb(57,59,61);"/>
                    <path d="M-6.75,-1.5L-6.6,-1.6L-6.35,-1.7L-6.15,-1.85L-5.5,-1.15L-5,-0.5L-3.5,1.25C-4.267,3.35 -5.617,5.15 -7.55,6.65L-8.55,6.85L-12.95,6.6L-14,6.2L-14.85,5.7L-14.9,5.65L-14.3,4.8C-12.733,2.667 -10.833,0.9 -8.6,-0.5L-7.35,-1.2L-6.75,-1.5Z" style="fill:none;fill-rule:nonzero;stroke:black;stroke-opacity:0.3;stroke-width:0.05px;"/>
                </g>
                <g id="shape16">
                    <path d="M-5.15,0.35L-2.95,2.15C-2.95,3.75 -3.4,5.3 -4.3,6.8L-4.9,7.2C-6.533,8.1 -8.067,8.383 -9.5,8.05C-8.933,5.383 -7.7,3.05 -5.8,1.05L-5.15,0.35M-5.15,2.8L-6.3,2.15C-7.9,4.35 -8.85,6.283 -9.15,7.95C-7.15,6.85 -5.817,5.133 -5.15,2.8" style="fill:rgb(57,59,61);"/>
                    <path d="M-5.15,2.8C-5.817,5.133 -7.15,6.85 -9.15,7.95C-8.85,6.283 -7.9,4.35 -6.3,2.15L-5.15,2.8" style="fill:rgb(80,81,83);"/>
                    <path d="M-5.15,0.35L-2.95,2.15C-2.95,3.75 -3.4,5.3 -4.3,6.8L-4.9,7.2C-6.533,8.1 -8.067,8.383 -9.5,8.05C-8.933,5.383 -7.7,3.05 -5.8,1.05L-5.15,0.35Z" style="fill:none;fill-rule:nonzero;stroke:black;stroke-opacity:0.3;stroke-width:0.05px;"/>
                </g>
                <g id="shape17">
                    <path d="M-4.85,-3.35L-7.1,-1.05L-9.65,-2.4L-6.7,-4.2L-4.85,-3.35" style="fill:rgb(80,81,83);"/>
                    <path d="M-7.1,-1.05L-4.85,-3.35L-0.8,0.75L-3.1,3.1L-7.1,-1.05" style="fill:rgb(57,59,61);"/>
                    <path d="M-7.1,-1.05L-3.1,3.1L-0.8,0.75L-4.85,-3.35L-6.7,-4.2L-9.65,-2.4L-7.1,-1.05Z" style="fill:none;fill-rule:nonzero;stroke:black;stroke-opacity:0.3;stroke-width:0.05px;"/>
                </g>
            </g>
            <g id="shape18" transform="matrix(0.8326,-0.6174,0.255,0.793,5.70013,-10.05)">
                <path d="M1.8,5.55C0.333,6.05 -1.117,5.917 -2.55,5.15C-3.983,4.45 -4.95,3.367 -5.45,1.9C-5.917,0.4 -5.783,-1.083 -5.05,-2.55C-4.317,-3.95 -3.217,-4.9 -1.75,-5.4C-0.25,-5.867 1.217,-5.75 2.65,-5.05C4.083,-4.283 5.033,-3.15 5.5,-1.65C6,-0.183 5.883,1.25 5.15,2.65C4.417,4.117 3.3,5.083 1.8,5.55" style="fill:rgb(172,173,140);"/>
                <path d="M1.8,5.55C0.333,6.05 -1.117,5.917 -2.55,5.15C-3.983,4.45 -4.95,3.367 -5.45,1.9C-5.917,0.4 -5.783,-1.083 -5.05,-2.55C-4.317,-3.95 -3.217,-4.9 -1.75,-5.4C-0.25,-5.867 1.217,-5.75 2.65,-5.05C4.083,-4.283 5.033,-3.15 5.5,-1.65C6,-0.183 5.883,1.25 5.15,2.65C4.417,4.117 3.3,5.083 1.8,5.55Z" style="fill:none;fill-rule:nonzero;stroke:black;stroke-opacity:0;stroke-width:1px;"/>
                <path d="M6.5,-3.6L7.5,-0.6L5.05,0.2L4.05,-2.8L6.5,-3.6" style="fill:rgb(172,173,140);"/>
                <path d="M6.5,-3.6L7.5,-0.6L5.05,0.2L4.05,-2.8L6.5,-3.6Z" style="fill:none;fill-rule:nonzero;stroke:black;stroke-opacity:0;stroke-width:1px;"/>
                <path d="M2,-7.4L4.65,-5.7L3.25,-3.55L0.6,-5.25L2,-7.4" style="fill:rgb(172,173,140);"/>
                <path d="M2,-7.4L4.65,-5.7L3.25,-3.55L0.6,-5.25L2,-7.4Z" style="fill:none;fill-rule:nonzero;stroke:black;stroke-opacity:0;stroke-width:1px;"/>
                <path d="M5.45,5.25L7.25,2.65L5.1,1.2L3.3,3.8L5.45,5.25" style="fill:rgb(172,173,140);"/>
                <path d="M5.45,5.25L7.25,2.65L5.1,1.2L3.3,3.8L5.45,5.25Z" style="fill:none;fill-rule:nonzero;stroke:black;stroke-opacity:0;stroke-width:1px;"/>
                <path d="M0.6,7.4L3.65,6.5L2.9,4.05L-0.15,4.95L0.6,7.4" style="fill:rgb(172,173,140);"/>
                <path d="M0.6,7.4L3.65,6.5L2.9,4.05L-0.15,4.95L0.6,7.4Z" style="fill:none;fill-rule:nonzero;stroke:black;stroke-opacity:0;stroke-width:1px;"/>
                <path d="M-3.15,-4L-0.1,-4.9L-0.85,-7.35L-3.9,-6.45L-3.15,-4" style="fill:rgb(172,173,140);"/>
                <path d="M-3.15,-4L-0.1,-4.9L-0.85,-7.35L-3.9,-6.45L-3.15,-4Z" style="fill:none;fill-rule:nonzero;stroke:black;stroke-opacity:0;stroke-width:1px;"/>
                <path d="M-7.55,0.95L-6.55,3.95L-4.1,3.15L-5.1,0.15L-7.55,0.95" style="fill:rgb(172,173,140);"/>
                <path d="M-7.55,0.95L-6.55,3.95L-4.1,3.15L-5.1,0.15L-7.55,0.95Z" style="fill:none;fill-rule:nonzero;stroke:black;stroke-opacity:0;stroke-width:1px;"/>
                <path d="M-6,-4.7L-7.2,-1.75L-4.85,-0.8L-3.65,-3.75L-6,-4.7" style="fill:rgb(172,173,140);"/>
                <path d="M-6,-4.7L-7.2,-1.75L-4.85,-0.8L-3.65,-3.75L-6,-4.7Z" style="fill:none;fill-rule:nonzero;stroke:black;stroke-opacity:0;stroke-width:1px;"/>
                <path d="M-1.4,7.35L-4.35,6.25L-3.45,3.85L-0.5,4.95L-1.4,7.35" style="fill:rgb(172,173,140);"/>
                <path d="M-1.4,7.35L-4.35,6.25L-3.45,3.85L-0.5,4.95L-1.4,7.35Z" style="fill:none;fill-rule:nonzero;stroke:black;stroke-opacity:0;stroke-width:1px;"/>
            </g>
            <g id="shape181" serif:id="shape18" transform="matrix(0.8326,-0.6174,0.255,0.793,7.00023,-9.69987)">
                <path d="M1.8,5.55C0.333,6.05 -1.117,5.917 -2.55,5.15C-3.983,4.45 -4.95,3.367 -5.45,1.9C-5.917,0.4 -5.783,-1.083 -5.05,-2.55C-4.317,-3.95 -3.217,-4.9 -1.75,-5.4C-0.25,-5.867 1.217,-5.75 2.65,-5.05C4.083,-4.283 5.033,-3.15 5.5,-1.65C6,-0.183 5.883,1.25 5.15,2.65C4.417,4.117 3.3,5.083 1.8,5.55" style="fill:rgb(172,173,140);"/>
                <path d="M1.8,5.55C0.333,6.05 -1.117,5.917 -2.55,5.15C-3.983,4.45 -4.95,3.367 -5.45,1.9C-5.917,0.4 -5.783,-1.083 -5.05,-2.55C-4.317,-3.95 -3.217,-4.9 -1.75,-5.4C-0.25,-5.867 1.217,-5.75 2.65,-5.05C4.083,-4.283 5.033,-3.15 5.5,-1.65C6,-0.183 5.883,1.25 5.15,2.65C4.417,4.117 3.3,5.083 1.8,5.55Z" style="fill:none;fill-rule:nonzero;stroke:black;stroke-opacity:0;stroke-width:1px;"/>
                <path d="M6.5,-3.6L7.5,-0.6L5.05,0.2L4.05,-2.8L6.5,-3.6" style="fill:rgb(172,173,140);"/>
                <path d="M6.5,-3.6L7.5,-0.6L5.05,0.2L4.05,-2.8L6.5,-3.6Z" style="fill:none;fill-rule:nonzero;stroke:black;stroke-opacity:0;stroke-width:1px;"/>
                <path d="M2,-7.4L4.65,-5.7L3.25,-3.55L0.6,-5.25L2,-7.4" style="fill:rgb(172,173,140);"/>
                <path d="M2,-7.4L4.65,-5.7L3.25,-3.55L0.6,-5.25L2,-7.4Z" style="fill:none;fill-rule:nonzero;stroke:black;stroke-opacity:0;stroke-width:1px;"/>
                <path d="M5.45,5.25L7.25,2.65L5.1,1.2L3.3,3.8L5.45,5.25" style="fill:rgb(172,173,140);"/>
                <path d="M5.45,5.25L7.25,2.65L5.1,1.2L3.3,3.8L5.45,5.25Z" style="fill:none;fill-rule:nonzero;stroke:black;stroke-opacity:0;stroke-width:1px;"/>
                <path d="M0.6,7.4L3.65,6.5L2.9,4.05L-0.15,4.95L0.6,7.4" style="fill:rgb(172,173,140);"/>
                <path d="M0.6,7.4L3.65,6.5L2.9,4.05L-0.15,4.95L0.6,7.4Z" style="fill:none;fill-rule:nonzero;stroke:black;stroke-opacity:0;stroke-width:1px;"/>
                <path d="M-3.15,-4L-0.1,-4.9L-0.85,-7.35L-3.9,-6.45L-3.15,-4" style="fill:rgb(172,173,140);"/>
                <path d="M-3.15,-4L-0.1,-4.9L-0.85,-7.35L-3.9,-6.45L-3.15,-4Z" style="fill:none;fill-rule:nonzero;stroke:black;stroke-opacity:0;stroke-width:1px;"/>
                <path d="M-7.55,0.95L-6.55,3.95L-4.1,3.15L-5.1,0.15L-7.55,0.95" style="fill:rgb(172,173,140);"/>
                <path d="M-7.55,0.95L-6.55,3.95L-4.1,3.15L-5.1,0.15L-7.55,0.95Z" style="fill:none;fill-rule:nonzero;stroke:black;stroke-opacity:0;stroke-width:1px;"/>
                <path d="M-6,-4.7L-7.2,-1.75L-4.85,-0.8L-3.65,-3.75L-6,-4.7" style="fill:rgb(172,173,140);"/>
                <path d="M-6,-4.7L-7.2,-1.75L-4.85,-0.8L-3.65,-3.75L-6,-4.7Z" style="fill:none;fill-rule:nonzero;stroke:black;stroke-opacity:0;stroke-width:1px;"/>
                <path d="M-1.4,7.35L-4.35,6.25L-3.45,3.85L-0.5,4.95L-1.4,7.35" style="fill:rgb(172,173,140);"/>
                <path d="M-1.4,7.35L-4.35,6.25L-3.45,3.85L-0.5,4.95L-1.4,7.35Z" style="fill:none;fill-rule:nonzero;stroke:black;stroke-opacity:0;stroke-width:1px;"/>
            </g>
            <g id="shape19" transform="matrix(1,0,0,1,6.65,-9.55)">
                <path d="M2.55,-3.75L2.8,-3.55C3.467,-3.15 3.8,-2.467 3.8,-1.5C3.8,-0.5 3.483,0.517 2.85,1.55C2.217,2.583 1.45,3.333 0.55,3.8L-1.75,3.9L-2.25,3.45L-0.25,3.2C0.617,2.733 1.383,1.983 2.05,0.95C2.683,-0.083 3,-1.1 3,-2.1C2.967,-2.767 2.817,-3.317 2.55,-3.75" style="fill:rgb(82,81,55);"/>
                <path d="M-2.25,3.45C-2.583,3.05 -2.75,2.517 -2.75,1.85C-2.75,0.817 -2.433,-0.2 -1.8,-1.2C-1.167,-2.233 -0.4,-2.983 0.5,-3.45C1.267,-3.85 1.95,-3.95 2.55,-3.75C2.817,-3.317 2.967,-2.767 3,-2.1C3,-1.1 2.683,-0.083 2.05,0.95C1.383,1.983 0.617,2.733 -0.25,3.2L-2.25,3.45" style="fill:rgb(77,255,246);"/>
                <path d="M-2.25,3.45C-2.583,3.05 -2.75,2.517 -2.75,1.85C-2.75,0.817 -2.433,-0.2 -1.8,-1.2C-1.167,-2.233 -0.4,-2.983 0.5,-3.45C1.267,-3.85 1.95,-3.95 2.55,-3.75C2.817,-3.317 2.967,-2.767 3,-2.1C3,-1.1 2.683,-0.083 2.05,0.95C1.383,1.983 0.617,2.733 -0.25,3.2L-2.25,3.45Z" style="fill:none;fill-rule:nonzero;stroke:black;stroke-opacity:0.3;stroke-width:0.05px;"/>
            </g>
            <g id="shape182" serif:id="shape18" transform="matrix(0.5926,-0.3572,0.1815,0.5896,1.44988,3.14968)">
                <path d="M1.8,5.55C0.333,6.05 -1.117,5.917 -2.55,5.15C-3.983,4.45 -4.95,3.367 -5.45,1.9C-5.917,0.4 -5.783,-1.083 -5.05,-2.55C-4.317,-3.95 -3.217,-4.9 -1.75,-5.4C-0.25,-5.867 1.217,-5.75 2.65,-5.05C4.083,-4.283 5.033,-3.15 5.5,-1.65C6,-0.183 5.883,1.25 5.15,2.65C4.417,4.117 3.3,5.083 1.8,5.55" style="fill:rgb(172,173,140);"/>
                <path d="M1.8,5.55C0.333,6.05 -1.117,5.917 -2.55,5.15C-3.983,4.45 -4.95,3.367 -5.45,1.9C-5.917,0.4 -5.783,-1.083 -5.05,-2.55C-4.317,-3.95 -3.217,-4.9 -1.75,-5.4C-0.25,-5.867 1.217,-5.75 2.65,-5.05C4.083,-4.283 5.033,-3.15 5.5,-1.65C6,-0.183 5.883,1.25 5.15,2.65C4.417,4.117 3.3,5.083 1.8,5.55Z" style="fill:none;fill-rule:nonzero;stroke:black;stroke-opacity:0;stroke-width:1px;"/>
                <path d="M6.5,-3.6L7.5,-0.6L5.05,0.2L4.05,-2.8L6.5,-3.6" style="fill:rgb(172,173,140);"/>
                <path d="M6.5,-3.6L7.5,-0.6L5.05,0.2L4.05,-2.8L6.5,-3.6Z" style="fill:none;fill-rule:nonzero;stroke:black;stroke-opacity:0;stroke-width:1px;"/>
                <path d="M2,-7.4L4.65,-5.7L3.25,-3.55L0.6,-5.25L2,-7.4" style="fill:rgb(172,173,140);"/>
                <path d="M2,-7.4L4.65,-5.7L3.25,-3.55L0.6,-5.25L2,-7.4Z" style="fill:none;fill-rule:nonzero;stroke:black;stroke-opacity:0;stroke-width:1px;"/>
                <path d="M5.45,5.25L7.25,2.65L5.1,1.2L3.3,3.8L5.45,5.25" style="fill:rgb(172,173,140);"/>
                <path d="M5.45,5.25L7.25,2.65L5.1,1.2L3.3,3.8L5.45,5.25Z" style="fill:none;fill-rule:nonzero;stroke:black;stroke-opacity:0;stroke-width:1px;"/>
                <path d="M0.6,7.4L3.65,6.5L2.9,4.05L-0.15,4.95L0.6,7.4" style="fill:rgb(172,173,140);"/>
                <path d="M0.6,7.4L3.65,6.5L2.9,4.05L-0.15,4.95L0.6,7.4Z" style="fill:none;fill-rule:nonzero;stroke:black;stroke-opacity:0;stroke-width:1px;"/>
                <path d="M-3.15,-4L-0.1,-4.9L-0.85,-7.35L-3.9,-6.45L-3.15,-4" style="fill:rgb(172,173,140);"/>
                <path d="M-3.15,-4L-0.1,-4.9L-0.85,-7.35L-3.9,-6.45L-3.15,-4Z" style="fill:none;fill-rule:nonzero;stroke:black;stroke-opacity:0;stroke-width:1px;"/>
                <path d="M-7.55,0.95L-6.55,3.95L-4.1,3.15L-5.1,0.15L-7.55,0.95" style="fill:rgb(172,173,140);"/>
                <path d="M-7.55,0.95L-6.55,3.95L-4.1,3.15L-5.1,0.15L-7.55,0.95Z" style="fill:none;fill-rule:nonzero;stroke:black;stroke-opacity:0;stroke-width:1px;"/>
                <path d="M-6,-4.7L-7.2,-1.75L-4.85,-0.8L-3.65,-3.75L-6,-4.7" style="fill:rgb(172,173,140);"/>
                <path d="M-6,-4.7L-7.2,-1.75L-4.85,-0.8L-3.65,-3.75L-6,-4.7Z" style="fill:none;fill-rule:nonzero;stroke:black;stroke-opacity:0;stroke-width:1px;"/>
                <path d="M-1.4,7.35L-4.35,6.25L-3.45,3.85L-0.5,4.95L-1.4,7.35" style="fill:rgb(172,173,140);"/>
                <path d="M-1.4,7.35L-4.35,6.25L-3.45,3.85L-0.5,4.95L-1.4,7.35Z" style="fill:none;fill-rule:nonzero;stroke:black;stroke-opacity:0;stroke-width:1px;"/>
            </g>
            <g id="shape183" serif:id="shape18" transform="matrix(0.5926,-0.3572,0.1815,0.5896,2.40008,3.54978)">
                <path d="M1.8,5.55C0.333,6.05 -1.117,5.917 -2.55,5.15C-3.983,4.45 -4.95,3.367 -5.45,1.9C-5.917,0.4 -5.783,-1.083 -5.05,-2.55C-4.317,-3.95 -3.217,-4.9 -1.75,-5.4C-0.25,-5.867 1.217,-5.75 2.65,-5.05C4.083,-4.283 5.033,-3.15 5.5,-1.65C6,-0.183 5.883,1.25 5.15,2.65C4.417,4.117 3.3,5.083 1.8,5.55" style="fill:rgb(172,173,140);"/>
                <path d="M1.8,5.55C0.333,6.05 -1.117,5.917 -2.55,5.15C-3.983,4.45 -4.95,3.367 -5.45,1.9C-5.917,0.4 -5.783,-1.083 -5.05,-2.55C-4.317,-3.95 -3.217,-4.9 -1.75,-5.4C-0.25,-5.867 1.217,-5.75 2.65,-5.05C4.083,-4.283 5.033,-3.15 5.5,-1.65C6,-0.183 5.883,1.25 5.15,2.65C4.417,4.117 3.3,5.083 1.8,5.55Z" style="fill:none;fill-rule:nonzero;stroke:black;stroke-opacity:0;stroke-width:1px;"/>
                <path d="M6.5,-3.6L7.5,-0.6L5.05,0.2L4.05,-2.8L6.5,-3.6" style="fill:rgb(172,173,140);"/>
                <path d="M6.5,-3.6L7.5,-0.6L5.05,0.2L4.05,-2.8L6.5,-3.6Z" style="fill:none;fill-rule:nonzero;stroke:black;stroke-opacity:0;stroke-width:1px;"/>
                <path d="M2,-7.4L4.65,-5.7L3.25,-3.55L0.6,-5.25L2,-7.4" style="fill:rgb(172,173,140);"/>
                <path d="M2,-7.4L4.65,-5.7L3.25,-3.55L0.6,-5.25L2,-7.4Z" style="fill:none;fill-rule:nonzero;stroke:black;stroke-opacity:0;stroke-width:1px;"/>
                <path d="M5.45,5.25L7.25,2.65L5.1,1.2L3.3,3.8L5.45,5.25" style="fill:rgb(172,173,140);"/>
                <path d="M5.45,5.25L7.25,2.65L5.1,1.2L3.3,3.8L5.45,5.25Z" style="fill:none;fill-rule:nonzero;stroke:black;stroke-opacity:0;stroke-width:1px;"/>
                <path d="M0.6,7.4L3.65,6.5L2.9,4.05L-0.15,4.95L0.6,7.4" style="fill:rgb(172,173,140);"/>
                <path d="M0.6,7.4L3.65,6.5L2.9,4.05L-0.15,4.95L0.6,7.4Z" style="fill:none;fill-rule:nonzero;stroke:black;stroke-opacity:0;stroke-width:1px;"/>
                <path d="M-3.15,-4L-0.1,-4.9L-0.85,-7.35L-3.9,-6.45L-3.15,-4" style="fill:rgb(172,173,140);"/>
                <path d="M-3.15,-4L-0.1,-4.9L-0.85,-7.35L-3.9,-6.45L-3.15,-4Z" style="fill:none;fill-rule:nonzero;stroke:black;stroke-opacity:0;stroke-width:1px;"/>
                <path d="M-7.55,0.95L-6.55,3.95L-4.1,3.15L-5.1,0.15L-7.55,0.95" style="fill:rgb(172,173,140);"/>
                <path d="M-7.55,0.95L-6.55,3.95L-4.1,3.15L-5.1,0.15L-7.55,0.95Z" style="fill:none;fill-rule:nonzero;stroke:black;stroke-opacity:0;stroke-width:1px;"/>
                <path d="M-6,-4.7L-7.2,-1.75L-4.85,-0.8L-3.65,-3.75L-6,-4.7" style="fill:rgb(172,173,140);"/>
                <path d="M-6,-4.7L-7.2,-1.75L-4.85,-0.8L-3.65,-3.75L-6,-4.7Z" style="fill:none;fill-rule:nonzero;stroke:black;stroke-opacity:0;stroke-width:1px;"/>
                <path d="M-1.4,7.35L-4.35,6.25L-3.45,3.85L-0.5,4.95L-1.4,7.35" style="fill:rgb(172,173,140);"/>
                <path d="M-1.4,7.35L-4.35,6.25L-3.45,3.85L-0.5,4.95L-1.4,7.35Z" style="fill:none;fill-rule:nonzero;stroke:black;stroke-opacity:0;stroke-width:1px;"/>
            </g>
            <g id="shape191" serif:id="shape19" transform="matrix(0.7118,0.0988,0,0.7118,2.15015,3.60013)">
                <path d="M2.55,-3.75L2.8,-3.55C3.467,-3.15 3.8,-2.467 3.8,-1.5C3.8,-0.5 3.483,0.517 2.85,1.55C2.217,2.583 1.45,3.333 0.55,3.8L-1.75,3.9L-2.25,3.45L-0.25,3.2C0.617,2.733 1.383,1.983 2.05,0.95C2.683,-0.083 3,-1.1 3,-2.1C2.967,-2.767 2.817,-3.317 2.55,-3.75" style="fill:rgb(82,81,55);"/>
                <path d="M-2.25,3.45C-2.583,3.05 -2.75,2.517 -2.75,1.85C-2.75,0.817 -2.433,-0.2 -1.8,-1.2C-1.167,-2.233 -0.4,-2.983 0.5,-3.45C1.267,-3.85 1.95,-3.95 2.55,-3.75C2.817,-3.317 2.967,-2.767 3,-2.1C3,-1.1 2.683,-0.083 2.05,0.95C1.383,1.983 0.617,2.733 -0.25,3.2L-2.25,3.45" style="fill:rgb(77,255,246);"/>
                <path d="M-2.25,3.45C-2.583,3.05 -2.75,2.517 -2.75,1.85C-2.75,0.817 -2.433,-0.2 -1.8,-1.2C-1.167,-2.233 -0.4,-2.983 0.5,-3.45C1.267,-3.85 1.95,-3.95 2.55,-3.75C2.817,-3.317 2.967,-2.767 3,-2.1C3,-1.1 2.683,-0.083 2.05,0.95C1.383,1.983 0.617,2.733 -0.25,3.2L-2.25,3.45Z" style="fill:none;fill-rule:nonzero;stroke:black;stroke-opacity:0.3;stroke-width:0.05px;"/>
            </g>
            <g id="shape184" serif:id="shape18" transform="matrix(0.4302,-0.4496,0.1773,0.5084,17.8499,-3.75022)">
                <path d="M1.8,5.55C0.333,6.05 -1.117,5.917 -2.55,5.15C-3.983,4.45 -4.95,3.367 -5.45,1.9C-5.917,0.4 -5.783,-1.083 -5.05,-2.55C-4.317,-3.95 -3.217,-4.9 -1.75,-5.4C-0.25,-5.867 1.217,-5.75 2.65,-5.05C4.083,-4.283 5.033,-3.15 5.5,-1.65C6,-0.183 5.883,1.25 5.15,2.65C4.417,4.117 3.3,5.083 1.8,5.55" style="fill:rgb(172,173,140);"/>
                <path d="M1.8,5.55C0.333,6.05 -1.117,5.917 -2.55,5.15C-3.983,4.45 -4.95,3.367 -5.45,1.9C-5.917,0.4 -5.783,-1.083 -5.05,-2.55C-4.317,-3.95 -3.217,-4.9 -1.75,-5.4C-0.25,-5.867 1.217,-5.75 2.65,-5.05C4.083,-4.283 5.033,-3.15 5.5,-1.65C6,-0.183 5.883,1.25 5.15,2.65C4.417,4.117 3.3,5.083 1.8,5.55Z" style="fill:none;fill-rule:nonzero;stroke:black;stroke-opacity:0;stroke-width:1px;"/>
                <path d="M6.5,-3.6L7.5,-0.6L5.05,0.2L4.05,-2.8L6.5,-3.6" style="fill:rgb(172,173,140);"/>
                <path d="M6.5,-3.6L7.5,-0.6L5.05,0.2L4.05,-2.8L6.5,-3.6Z" style="fill:none;fill-rule:nonzero;stroke:black;stroke-opacity:0;stroke-width:1px;"/>
                <path d="M2,-7.4L4.65,-5.7L3.25,-3.55L0.6,-5.25L2,-7.4" style="fill:rgb(172,173,140);"/>
                <path d="M2,-7.4L4.65,-5.7L3.25,-3.55L0.6,-5.25L2,-7.4Z" style="fill:none;fill-rule:nonzero;stroke:black;stroke-opacity:0;stroke-width:1px;"/>
                <path d="M5.45,5.25L7.25,2.65L5.1,1.2L3.3,3.8L5.45,5.25" style="fill:rgb(172,173,140);"/>
                <path d="M5.45,5.25L7.25,2.65L5.1,1.2L3.3,3.8L5.45,5.25Z" style="fill:none;fill-rule:nonzero;stroke:black;stroke-opacity:0;stroke-width:1px;"/>
                <path d="M0.6,7.4L3.65,6.5L2.9,4.05L-0.15,4.95L0.6,7.4" style="fill:rgb(172,173,140);"/>
                <path d="M0.6,7.4L3.65,6.5L2.9,4.05L-0.15,4.95L0.6,7.4Z" style="fill:none;fill-rule:nonzero;stroke:black;stroke-opacity:0;stroke-width:1px;"/>
                <path d="M-3.15,-4L-0.1,-4.9L-0.85,-7.35L-3.9,-6.45L-3.15,-4" style="fill:rgb(172,173,140);"/>
                <path d="M-3.15,-4L-0.1,-4.9L-0.85,-7.35L-3.9,-6.45L-3.15,-4Z" style="fill:none;fill-rule:nonzero;stroke:black;stroke-opacity:0;stroke-width:1px;"/>
                <path d="M-7.55,0.95L-6.55,3.95L-4.1,3.15L-5.1,0.15L-7.55,0.95" style="fill:rgb(172,173,140);"/>
                <path d="M-7.55,0.95L-6.55,3.95L-4.1,3.15L-5.1,0.15L-7.55,0.95Z" style="fill:none;fill-rule:nonzero;stroke:black;stroke-opacity:0;stroke-width:1px;"/>
                <path d="M-6,-4.7L-7.2,-1.75L-4.85,-0.8L-3.65,-3.75L-6,-4.7" style="fill:rgb(172,173,140);"/>
                <path d="M-6,-4.7L-7.2,-1.75L-4.85,-0.8L-3.65,-3.75L-6,-4.7Z" style="fill:none;fill-rule:nonzero;stroke:black;stroke-opacity:0;stroke-width:1px;"/>
                <path d="M-1.4,7.35L-4.35,6.25L-3.45,3.85L-0.5,4.95L-1.4,7.35" style="fill:rgb(172,173,140);"/>
                <path d="M-1.4,7.35L-4.35,6.25L-3.45,3.85L-0.5,4.95L-1.4,7.35Z" style="fill:none;fill-rule:nonzero;stroke:black;stroke-opacity:0;stroke-width:1px;"/>
            </g>
            <g id="shape185" serif:id="shape18" transform="matrix(0.4302,-0.4496,0.1773,0.5084,18.5499,-3.55022)">
                <path d="M1.8,5.55C0.333,6.05 -1.117,5.917 -2.55,5.15C-3.983,4.45 -4.95,3.367 -5.45,1.9C-5.917,0.4 -5.783,-1.083 -5.05,-2.55C-4.317,-3.95 -3.217,-4.9 -1.75,-5.4C-0.25,-5.867 1.217,-5.75 2.65,-5.05C4.083,-4.283 5.033,-3.15 5.5,-1.65C6,-0.183 5.883,1.25 5.15,2.65C4.417,4.117 3.3,5.083 1.8,5.55" style="fill:rgb(172,173,140);"/>
                <path d="M1.8,5.55C0.333,6.05 -1.117,5.917 -2.55,5.15C-3.983,4.45 -4.95,3.367 -5.45,1.9C-5.917,0.4 -5.783,-1.083 -5.05,-2.55C-4.317,-3.95 -3.217,-4.9 -1.75,-5.4C-0.25,-5.867 1.217,-5.75 2.65,-5.05C4.083,-4.283 5.033,-3.15 5.5,-1.65C6,-0.183 5.883,1.25 5.15,2.65C4.417,4.117 3.3,5.083 1.8,5.55Z" style="fill:none;fill-rule:nonzero;stroke:black;stroke-opacity:0;stroke-width:1px;"/>
                <path d="M6.5,-3.6L7.5,-0.6L5.05,0.2L4.05,-2.8L6.5,-3.6" style="fill:rgb(172,173,140);"/>
                <path d="M6.5,-3.6L7.5,-0.6L5.05,0.2L4.05,-2.8L6.5,-3.6Z" style="fill:none;fill-rule:nonzero;stroke:black;stroke-opacity:0;stroke-width:1px;"/>
                <path d="M2,-7.4L4.65,-5.7L3.25,-3.55L0.6,-5.25L2,-7.4" style="fill:rgb(172,173,140);"/>
                <path d="M2,-7.4L4.65,-5.7L3.25,-3.55L0.6,-5.25L2,-7.4Z" style="fill:none;fill-rule:nonzero;stroke:black;stroke-opacity:0;stroke-width:1px;"/>
                <path d="M5.45,5.25L7.25,2.65L5.1,1.2L3.3,3.8L5.45,5.25" style="fill:rgb(172,173,140);"/>
                <path d="M5.45,5.25L7.25,2.65L5.1,1.2L3.3,3.8L5.45,5.25Z" style="fill:none;fill-rule:nonzero;stroke:black;stroke-opacity:0;stroke-width:1px;"/>
                <path d="M0.6,7.4L3.65,6.5L2.9,4.05L-0.15,4.95L0.6,7.4" style="fill:rgb(172,173,140);"/>
                <path d="M0.6,7.4L3.65,6.5L2.9,4.05L-0.15,4.95L0.6,7.4Z" style="fill:none;fill-rule:nonzero;stroke:black;stroke-opacity:0;stroke-width:1px;"/>
                <path d="M-3.15,-4L-0.1,-4.9L-0.85,-7.35L-3.9,-6.45L-3.15,-4" style="fill:rgb(172,173,140);"/>
                <path d="M-3.15,-4L-0.1,-4.9L-0.85,-7.35L-3.9,-6.45L-3.15,-4Z" style="fill:none;fill-rule:nonzero;stroke:black;stroke-opacity:0;stroke-width:1px;"/>
                <path d="M-7.55,0.95L-6.55,3.95L-4.1,3.15L-5.1,0.15L-7.55,0.95" style="fill:rgb(172,173,140);"/>
                <path d="M-7.55,0.95L-6.55,3.95L-4.1,3.15L-5.1,0.15L-7.55,0.95Z" style="fill:none;fill-rule:nonzero;stroke:black;stroke-opacity:0;stroke-width:1px;"/>
                <path d="M-6,-4.7L-7.2,-1.75L-4.85,-0.8L-3.65,-3.75L-6,-4.7" style="fill:rgb(172,173,140);"/>
                <path d="M-6,-4.7L-7.2,-1.75L-4.85,-0.8L-3.65,-3.75L-6,-4.7Z" style="fill:none;fill-rule:nonzero;stroke:black;stroke-opacity:0;stroke-width:1px;"/>
                <path d="M-1.4,7.35L-4.35,6.25L-3.45,3.85L-0.5,4.95L-1.4,7.35" style="fill:rgb(172,173,140);"/>
                <path d="M-1.4,7.35L-4.35,6.25L-3.45,3.85L-0.5,4.95L-1.4,7.35Z" style="fill:none;fill-rule:nonzero;stroke:black;stroke-opacity:0;stroke-width:1px;"/>
            </g>
            <g id="shape192" serif:id="shape19" transform="matrix(0.5511,-0.0521,0.0463,0.6579,18.3498,-3.44986)">
                <path d="M2.55,-3.75L2.8,-3.55C3.467,-3.15 3.8,-2.467 3.8,-1.5C3.8,-0.5 3.483,0.517 2.85,1.55C2.217,2.583 1.45,3.333 0.55,3.8L-1.75,3.9L-2.25,3.45L-0.25,3.2C0.617,2.733 1.383,1.983 2.05,0.95C2.683,-0.083 3,-1.1 3,-2.1C2.967,-2.767 2.817,-3.317 2.55,-3.75" style="fill:rgb(82,81,55);"/>
                <path d="M-2.25,3.45C-2.583,3.05 -2.75,2.517 -2.75,1.85C-2.75,0.817 -2.433,-0.2 -1.8,-1.2C-1.167,-2.233 -0.4,-2.983 0.5,-3.45C1.267,-3.85 1.95,-3.95 2.55,-3.75C2.817,-3.317 2.967,-2.767 3,-2.1C3,-1.1 2.683,-0.083 2.05,0.95C1.383,1.983 0.617,2.733 -0.25,3.2L-2.25,3.45" style="fill:rgb(77,255,246);"/>
                <path d="M-2.25,3.45C-2.583,3.05 -2.75,2.517 -2.75,1.85C-2.75,0.817 -2.433,-0.2 -1.8,-1.2C-1.167,-2.233 -0.4,-2.983 0.5,-3.45C1.267,-3.85 1.95,-3.95 2.55,-3.75C2.817,-3.317 2.967,-2.767 3,-2.1C3,-1.1 2.683,-0.083 2.05,0.95C1.383,1.983 0.617,2.733 -0.25,3.2L-2.25,3.45Z" style="fill:none;fill-rule:nonzero;stroke:black;stroke-opacity:0.3;stroke-width:0.05px;"/>
            </g>
            <g id="shape20" transform="matrix(1,0,0,1,5,-9.4)">
                <path d="M-10,7.1C-13.7,6.267 -16.183,4.85 -17.45,2.85C-15.283,1.35 -12.617,1.017 -9.45,1.85L-10,7.1M-10.6,3.65L-16.2,3.05C-15.433,4.317 -13.767,5.217 -11.2,5.75L-10.6,3.65" style="fill:rgb(57,59,61);"/>
                <path d="M-10.6,3.65L-11.2,5.75C-13.767,5.217 -15.433,4.317 -16.2,3.05L-10.6,3.65" style="fill:rgb(80,81,83);"/>
                <path d="M-10,7.1C-13.7,6.267 -16.183,4.85 -17.45,2.85C-15.283,1.35 -12.617,1.017 -9.45,1.85L-10,7.1Z" style="fill:none;fill-rule:nonzero;stroke:black;stroke-opacity:0.3;stroke-width:0.05px;"/>
                <path d="M-8.45,-0.65C-10.717,-3.883 -12.933,-6.083 -15.1,-7.25C-14.567,-4.017 -12.833,-1.383 -9.9,0.65L-8.45,-0.65M-16.05,-1.15C-16.55,-3.817 -16.217,-6.033 -15.05,-7.8C-11.65,-5.8 -9.033,-3 -7.2,0.6L-10.25,1.9L-16.05,-1.15" style="fill:rgb(80,81,83);"/>
                <path d="M-7.2,0.6L-6.95,1.1L-10.05,4C-12.283,3.267 -14.217,1.9 -15.85,-0.1L-16.05,-1.15L-10.25,1.9L-7.2,0.6" style="fill:rgb(57,59,61);"/>
                <path d="M-8.45,-0.65L-9.9,0.65C-12.833,-1.383 -14.567,-4.017 -15.1,-7.25C-12.933,-6.083 -10.717,-3.883 -8.45,-0.65" style="fill:rgb(116,117,118);"/>
                <path d="M-7.2,0.6L-6.95,1.1L-10.05,4C-12.283,3.267 -14.217,1.9 -15.85,-0.1L-16.05,-1.15C-16.55,-3.817 -16.217,-6.033 -15.05,-7.8C-11.65,-5.8 -9.033,-3 -7.2,0.6Z" style="fill:none;fill-rule:nonzero;stroke:black;stroke-opacity:0.3;stroke-width:0.05px;"/>
                <path d="M-10.4,1.85C-9.8,0.85 -9.067,0.117 -8.2,-0.35C-7.167,-0.983 -6.233,-1.1 -5.4,-0.7C-4.6,-0.233 -4.117,0.6 -3.95,1.8L-3.95,2.25L-4.85,3.9C-7.317,4.733 -9.167,4.05 -10.4,1.85" style="fill:rgb(38,39,40);"/>
                <path d="M-4.85,3.9L-7.8,8.7L-8,8.8C-8.8,9.167 -9.55,9.167 -10.25,8.8C-11.05,8.4 -11.5,7.583 -11.6,6.35C-11.767,5.117 -11.5,3.85 -10.8,2.55L-10.4,1.85C-9.167,4.05 -7.317,4.733 -4.85,3.9" style="fill:rgb(17,18,19);"/>
                <path d="M-10.4,1.85C-9.8,0.85 -9.067,0.117 -8.2,-0.35C-7.167,-0.983 -6.233,-1.1 -5.4,-0.7C-4.6,-0.233 -4.117,0.6 -3.95,1.8L-3.95,2.25L-4.85,3.9L-7.8,8.7L-8,8.8C-8.8,9.167 -9.55,9.167 -10.25,8.8C-11.05,8.4 -11.5,7.583 -11.6,6.35C-11.767,5.117 -11.5,3.85 -10.8,2.55L-10.4,1.85Z" style="fill:none;fill-rule:nonzero;stroke:black;stroke-opacity:0.3;stroke-width:0.05px;"/>
                <path d="M9.35,-8.85C7.583,-12.383 6.6,-15.35 6.4,-17.75C7.8,-16.55 8.9,-15.117 9.7,-13.45L10.1,-12.4L10.3,-12.05L10.95,-9.45L9.35,-8.85" style="fill:rgb(116,117,118);"/>
                <path d="M9.15,-8.6L9.35,-8.85L10.95,-9.45L10.3,-12.05L10.1,-12.4L9.7,-13.45L9.5,-15.9L11.25,-14L12.1,-11.6L12.6,-7.45L13.85,-13.35C14.95,-11.217 15.367,-8.617 15.1,-5.55L12.6,-7.45L10,-7L9.15,-8.6" style="fill:rgb(57,59,61);"/>
                <path d="M9.15,-8.6C7.483,-11.7 6.367,-14.867 5.8,-18.1C6.667,-17.933 7.617,-17.433 8.65,-16.6L9.5,-15.9L9.7,-13.45C8.9,-15.117 7.8,-16.55 6.4,-17.75C6.6,-15.35 7.583,-12.383 9.35,-8.85L9.15,-8.6M12.1,-11.6C12.5,-12.467 13.083,-13.05 13.85,-13.35L12.6,-7.45L12.1,-11.6" style="fill:rgb(80,81,83);"/>
                <path d="M9.5,-15.9L8.65,-16.6C7.617,-17.433 6.667,-17.933 5.8,-18.1C6.367,-14.867 7.483,-11.7 9.15,-8.6L10,-7L12.6,-7.45L12.1,-11.6C12.5,-12.467 13.083,-13.05 13.85,-13.35C14.95,-11.217 15.367,-8.617 15.1,-5.55L12.6,-7.45M9.5,-15.9L11.25,-14L12.1,-11.6" style="fill:none;fill-rule:nonzero;stroke:black;stroke-opacity:0.3;stroke-width:0.05px;"/>
                <path d="M11.8,-3.95L10.15,-4.4L9.95,-4.5L9.8,-4.75C8.933,-5.617 8.433,-6.5 8.3,-7.4C8.2,-8.267 8.483,-8.867 9.15,-9.2L11.75,-9.25C12.283,-9.05 12.8,-8.783 13.3,-8.45C13.7,-6.783 13.2,-5.283 11.8,-3.95" style="fill:rgb(38,39,40);"/>
                <path d="M11.8,-3.95C13.2,-5.283 13.7,-6.783 13.3,-8.45L14.65,-7.3C15.517,-6.4 16,-5.517 16.1,-4.65C16.233,-3.883 16.033,-3.317 15.5,-2.95L11.8,-3.95" style="fill:rgb(17,18,19);"/>
                <path d="M13.3,-8.45C12.8,-8.783 12.283,-9.05 11.75,-9.25L9.15,-9.2C8.483,-8.867 8.2,-8.267 8.3,-7.4C8.433,-6.5 8.933,-5.617 9.8,-4.75L9.95,-4.5L10.15,-4.4L11.8,-3.95L15.5,-2.95C16.033,-3.317 16.233,-3.883 16.1,-4.65C16,-5.517 15.517,-6.4 14.65,-7.3L13.3,-8.45Z" style="fill:none;fill-rule:nonzero;stroke:black;stroke-opacity:0.3;stroke-width:0.05px;"/>
                <path d="M11.85,-8.05C13.15,-7.317 14.117,-5.85 14.75,-3.65C15.283,-1.517 15.367,0.717 15,3.05C14.567,5.617 13.783,7.55 12.65,8.85C11.55,9.85 10.383,10.2 9.15,9.9C7.417,9.533 6.017,10.1 4.95,11.6L3.8,12.85C2.267,14.317 0.367,15.133 -1.9,15.3L-4.4,14.95C-5.533,14.617 -6.567,14.017 -7.5,13.15C-8.933,11.617 -9.717,9.733 -9.85,7.5C-9.883,5.133 -9.233,3.1 -7.9,1.4C-6.8,0.067 -5.533,-0.817 -4.1,-1.25L-3.65,-1.35C-2.017,-1.817 -0.317,-1.8 1.45,-1.3C3.417,-0.867 4.817,-1.667 5.65,-3.7C6.15,-5.1 6.783,-6.117 7.55,-6.75C9.017,-8.117 10.45,-8.55 11.85,-8.05" style="fill:rgb(116,117,118);"/>
                <path d="M11.85,-8.05C13.15,-7.317 14.117,-5.85 14.75,-3.65C15.283,-1.517 15.367,0.717 15,3.05C14.567,5.617 13.783,7.55 12.65,8.85C11.55,9.85 10.383,10.2 9.15,9.9C7.417,9.533 6.017,10.1 4.95,11.6L3.8,12.85C2.267,14.317 0.367,15.133 -1.9,15.3L-4.4,14.95C-5.533,14.617 -6.567,14.017 -7.5,13.15C-8.933,11.617 -9.717,9.733 -9.85,7.5C-9.883,5.133 -9.233,3.1 -7.9,1.4C-6.8,0.067 -5.533,-0.817 -4.1,-1.25L-3.65,-1.35C-2.017,-1.817 -0.317,-1.8 1.45,-1.3C3.417,-0.867 4.817,-1.667 5.65,-3.7C6.15,-5.1 6.783,-6.117 7.55,-6.75C9.017,-8.117 10.45,-8.55 11.85,-8.05Z" style="fill:none;fill-rule:nonzero;stroke:black;stroke-opacity:0.3;stroke-width:0.05px;"/>
                <path d="M12.85,-7.3C14.15,-6.6 15.117,-5.15 15.75,-2.95C16.283,-0.783 16.367,1.467 16,3.8C15.6,6.133 14.867,7.85 13.8,8.95C12.767,10.05 11.467,10.517 9.9,10.35C8.367,10.183 7.05,10.833 5.95,12.3L4.8,13.55C3.3,15.05 1.4,15.867 -0.9,16L-3.4,15.7C-4.5,15.333 -5.517,14.733 -6.45,13.9C-7.917,12.333 -8.7,10.433 -8.8,8.2C-8.867,5.867 -8.233,3.833 -6.9,2.1C-5.8,0.8 -4.517,-0.067 -3.05,-0.5L-2.65,-0.65C-1.017,-1.083 0.7,-1.05 2.5,-0.55C4.433,-0.117 5.817,-0.933 6.65,-3C7.15,-4.367 7.783,-5.383 8.55,-6.05C10.017,-7.383 11.45,-7.8 12.85,-7.3" style="fill:rgb(80,81,83);"/>
                <path d="M12.85,-7.3C14.15,-6.6 15.117,-5.15 15.75,-2.95C16.283,-0.783 16.367,1.467 16,3.8C15.6,6.133 14.867,7.85 13.8,8.95C12.767,10.05 11.467,10.517 9.9,10.35C8.367,10.183 7.05,10.833 5.95,12.3L4.8,13.55C3.3,15.05 1.4,15.867 -0.9,16L-3.4,15.7C-4.5,15.333 -5.517,14.733 -6.45,13.9" style="fill:none;fill-rule:nonzero;stroke:black;stroke-opacity:0.3;stroke-width:0.05px;"/>
                <path d="M-1.1,-0.85L-1.4,-1.4L-1.45,-1.6L-1.3,-1.8L-1.1,-1.8L-0.95,-1.7L-0.55,-1.05L-0.5,-0.85L-0.7,0.3L-0.75,0.5L-0.95,0.55C-3.117,0.717 -4.667,1.75 -5.6,3.65L-4.6,4.4L-4.45,4.55L-4.5,4.75L-4.7,4.9L-4.9,4.85L-6.2,3.95L-6.3,3.75L-6.3,3.6C-5.267,1.467 -3.567,0.267 -1.2,0L-1.1,-0.85M1.65,14.1L1.7,14.2L2,15.2L1.95,15.45L1.8,15.55L1.55,15.55L1.45,15.4L1.2,14.65C-0.833,15.217 -2.65,14.933 -4.25,13.8L-4.35,13.65L-4.35,13.45L-3.85,12.4L-3.7,12.25L-3.45,12.25L-3.3,12.4L-3.35,12.65L-3.7,13.45C-2.233,14.383 -0.55,14.567 1.35,14L1.5,14L1.65,14.1M15.4,2.95L15.55,3.05L15.55,3.25C15.317,4.917 14.75,6.367 13.85,7.6L14.2,8.6L14.15,8.85L14,8.95L13.75,8.95L13.6,8.8L13.25,7.65L13.25,7.5L13.3,7.4C14.167,6.233 14.717,4.9 14.95,3.4L14.3,3.1L14.15,3L14.15,2.75L14.3,2.6L14.5,2.6L15.4,2.95M9.1,-4.45L8.95,-4.35L8.75,-4.35L8.65,-4.5L8,-5.35L6.75,-5.65L6.6,-5.8C6.533,-5.833 6.517,-5.9 6.55,-6L6.7,-6.15L6.9,-6.2L8.2,-5.85L8.4,-5.8L8.9,-5.1C10.1,-6.433 11.617,-6.617 13.45,-5.65L13.55,-5.5L13.6,-5.3L13.1,-3.75L12.95,-3.6L12.75,-3.55L12.6,-3.7C12.533,-3.767 12.517,-3.833 12.55,-3.9L12.95,-5.25C11.417,-6.017 10.133,-5.75 9.1,-4.45M3.7,-1.45L3.55,-1.65L3.6,-1.85L3.8,-2L4,-1.95L5.3,-1.05L5.4,-0.95C6.867,2.217 7.733,6.083 8,10.65L7.95,10.85L7.75,10.95L7.55,10.85L7.45,10.65C7.15,6.217 6.3,2.467 4.9,-0.6L3.7,-1.45" style="fill:rgb(77,255,246);"/>
                <path d="M3.2,11.55C2,12.783 0.65,13.4 -0.85,13.4C-2.35,13.433 -3.6,12.867 -4.6,11.7C-5.6,10.533 -6,9.1 -5.8,7.4C-5.7,5.8 -5.05,4.383 -3.85,3.15C-2.65,1.95 -1.3,1.333 0.2,1.3C1.667,1.267 2.883,1.85 3.85,3.05C4.883,4.217 5.333,5.633 5.2,7.3C5.067,8.933 4.4,10.35 3.2,11.55" style="fill:rgb(38,39,40);"/>
                <path d="M3.2,11.55C2,12.783 0.65,13.4 -0.85,13.4C-2.35,13.433 -3.6,12.867 -4.6,11.7C-5.6,10.533 -6,9.1 -5.8,7.4C-5.7,5.8 -5.05,4.383 -3.85,3.15C-2.65,1.95 -1.3,1.333 0.2,1.3C1.667,1.267 2.883,1.85 3.85,3.05C4.883,4.217 5.333,5.633 5.2,7.3C5.067,8.933 4.4,10.35 3.2,11.55Z" style="fill:none;fill-rule:nonzero;stroke:black;stroke-opacity:0.3;stroke-width:0.05px;"/>
                <path d="M4.35,7.25C4.217,8.617 3.65,9.8 2.65,10.8C1.65,11.833 0.533,12.35 -0.7,12.35C-1.933,12.383 -2.967,11.917 -3.8,10.95C-4.633,9.95 -4.983,8.75 -4.85,7.35C-4.75,5.983 -4.2,4.8 -3.2,3.8C-2.233,2.8 -1.117,2.3 0.15,2.3C1.383,2.233 2.417,2.7 3.25,3.7C4.083,4.7 4.45,5.883 4.35,7.25M1.4,9.25C1.933,8.683 2.233,8.017 2.3,7.25C2.367,6.483 2.167,5.833 1.7,5.3C1.233,4.733 0.65,4.467 -0.05,4.5C-0.717,4.533 -1.333,4.817 -1.9,5.35C-2.433,5.917 -2.733,6.583 -2.8,7.35C-2.867,8.117 -2.667,8.767 -2.2,9.3C-1.733,9.833 -1.167,10.1 -0.5,10.1C0.2,10.1 0.833,9.817 1.4,9.25" style="fill:rgb(77,255,246);"/>
                <path d="M1.4,9.25C0.833,9.817 0.2,10.1 -0.5,10.1C-1.167,10.1 -1.733,9.833 -2.2,9.3C-2.667,8.767 -2.867,8.117 -2.8,7.35C-2.733,6.583 -2.433,5.917 -1.9,5.35C-1.333,4.817 -0.717,4.533 -0.05,4.5C0.65,4.467 1.233,4.733 1.7,5.3C2.167,5.833 2.367,6.483 2.3,7.25C2.233,8.017 1.933,8.683 1.4,9.25" style="fill:white;"/>
                <path d="M4.35,7.25C4.217,8.617 3.65,9.8 2.65,10.8C1.65,11.833 0.533,12.35 -0.7,12.35C-1.933,12.383 -2.967,11.917 -3.8,10.95C-4.633,9.95 -4.983,8.75 -4.85,7.35C-4.75,5.983 -4.2,4.8 -3.2,3.8C-2.233,2.8 -1.117,2.3 0.15,2.3C1.383,2.233 2.417,2.7 3.25,3.7C4.083,4.7 4.45,5.883 4.35,7.25Z" style="fill:none;fill-rule:nonzero;stroke:black;stroke-opacity:0.3;stroke-width:0.05px;"/>
                <path d="M4.1,6.15L4.35,6.4L4.35,7.25L4.3,7.45C4.133,8.717 3.583,9.817 2.65,10.75L2.25,11.2C1.35,11.933 0.367,12.317 -0.7,12.35L-0.75,12.35C-0.217,11.75 0.133,11.033 0.3,10.2C0.4,9.567 0.383,8.983 0.25,8.45L0.5,8.2L0.65,8.1L1,7.3L0.85,6.6C1.217,6.267 1.65,6.017 2.15,5.85C2.883,5.65 3.533,5.75 4.1,6.15M-0.45,8.6C-0.317,9.067 -0.283,9.567 -0.35,10.1C-0.517,10.9 -0.9,11.567 -1.5,12.1L-1.7,12.25C-2.233,12.117 -2.717,11.883 -3.15,11.55L-3.8,10.9C-4.633,9.933 -4.983,8.75 -4.85,7.35L-4.85,7.25C-4.75,6.25 -4.4,5.333 -3.8,4.5C-3.7,5.167 -3.45,5.75 -3.05,6.25C-2.583,6.75 -2.033,7.067 -1.4,7.2L-1.4,7.6L-1.15,8.25L-1.05,8.35L-0.45,8.6" style="fill:rgb(138,137,101);"/>
                <path d="M3.25,3.7C3.683,4.2 3.983,4.75 4.15,5.35L2.05,5.15C1.417,5.35 0.883,5.667 0.45,6.1L0.25,6.05L-0.1,6L-0.6,6.1L-1,6.35L-1.1,6.5C-1.633,6.433 -2.117,6.167 -2.55,5.7C-3.017,5.167 -3.217,4.517 -3.15,3.75L-1.9,2.8C-1.267,2.433 -0.583,2.25 0.15,2.25C0.95,2.25 1.683,2.45 2.35,2.85L3.25,3.7" style="fill:rgb(172,173,140);"/>
                <path d="M4.1,6.15L4.35,6.4L4.35,7.25L4.3,7.45C4.133,8.717 3.583,9.817 2.65,10.75L2.25,11.2C1.35,11.933 0.367,12.317 -0.7,12.35L-0.75,12.35C-0.217,11.75 0.133,11.033 0.3,10.2C0.4,9.567 0.383,8.983 0.25,8.45L0.5,8.2L0.65,8.1L1,7.3L0.85,6.6C1.217,6.267 1.65,6.017 2.15,5.85C2.883,5.65 3.533,5.75 4.1,6.15M3.25,3.7C3.683,4.2 3.983,4.75 4.15,5.35L2.05,5.15C1.417,5.35 0.883,5.667 0.45,6.1L0.25,6.05L-0.1,6L-0.6,6.1L-1,6.35L-1.1,6.5C-1.633,6.433 -2.117,6.167 -2.55,5.7C-3.017,5.167 -3.217,4.517 -3.15,3.75L-1.9,2.8C-1.267,2.433 -0.583,2.25 0.15,2.25C0.95,2.25 1.683,2.45 2.35,2.85L3.25,3.7M-0.45,8.6C-0.317,9.067 -0.283,9.567 -0.35,10.1C-0.517,10.9 -0.9,11.567 -1.5,12.1L-1.7,12.25C-2.233,12.117 -2.717,11.883 -3.15,11.55L-3.8,10.9C-4.633,9.933 -4.983,8.75 -4.85,7.35L-4.85,7.25C-4.75,6.25 -4.4,5.333 -3.8,4.5C-3.7,5.167 -3.45,5.75 -3.05,6.25C-2.583,6.75 -2.033,7.067 -1.4,7.2L-1.4,7.6L-1.15,8.25L-1.05,8.35L-0.45,8.6Z" style="fill:none;fill-rule:nonzero;stroke:black;stroke-opacity:0.3;stroke-width:0.05px;"/>
                <path d="M14.2,-2.4C14.7,-1.133 14.85,0.333 14.65,2C14.483,3.633 14.017,5.017 13.25,6.15C12.483,7.217 11.683,7.7 10.85,7.6C10.017,7.5 9.35,6.8 8.85,5.5C8.35,4.233 8.2,2.767 8.4,1.1C8.567,-0.533 9.017,-1.917 9.75,-3.05C10.483,-4.183 11.283,-4.683 12.15,-4.55C13.017,-4.417 13.7,-3.7 14.2,-2.4" style="fill:rgb(38,39,40);"/>
                <path d="M14.2,-2.4C14.7,-1.133 14.85,0.333 14.65,2C14.483,3.633 14.017,5.017 13.25,6.15C12.483,7.217 11.683,7.7 10.85,7.6C10.017,7.5 9.35,6.8 8.85,5.5C8.35,4.233 8.2,2.767 8.4,1.1C8.567,-0.533 9.017,-1.917 9.75,-3.05C10.483,-4.183 11.283,-4.683 12.15,-4.55C13.017,-4.417 13.7,-3.7 14.2,-2.4Z" style="fill:none;fill-rule:nonzero;stroke:black;stroke-opacity:0.3;stroke-width:0.05px;"/>
                <path d="M12,-3.6C12.667,-3.5 13.233,-2.9 13.7,-1.8C14.1,-0.7 14.233,0.55 14.1,1.95C13.933,3.317 13.517,4.483 12.85,5.45C12.217,6.35 11.55,6.767 10.85,6.7C10.15,6.6 9.583,6 9.15,4.9C8.717,3.833 8.6,2.6 8.8,1.2C8.933,-0.2 9.317,-1.383 9.95,-2.35C10.583,-3.283 11.267,-3.7 12,-3.6M12.65,-0.3C12.417,-0.867 12.117,-1.183 11.75,-1.25C11.35,-1.283 10.983,-1.05 10.65,-0.55C10.283,-0.05 10.067,0.583 10,1.35C9.9,2.083 9.967,2.733 10.2,3.3C10.433,3.9 10.75,4.233 11.15,4.3C11.517,4.333 11.867,4.1 12.2,3.6C12.567,3.1 12.783,2.467 12.85,1.7C12.917,0.967 12.85,0.3 12.65,-0.3" style="fill:rgb(77,255,246);"/>
                <path d="M12.65,-0.3C12.85,0.3 12.917,0.967 12.85,1.7C12.783,2.467 12.567,3.1 12.2,3.6C11.867,4.1 11.517,4.333 11.15,4.3C10.75,4.233 10.433,3.9 10.2,3.3C9.967,2.733 9.9,2.083 10,1.35C10.067,0.583 10.283,-0.05 10.65,-0.55C10.983,-1.05 11.35,-1.283 11.75,-1.25C12.117,-1.183 12.417,-0.867 12.65,-0.3" style="fill:white;"/>
                <path d="M12,-3.6C12.667,-3.5 13.233,-2.9 13.7,-1.8C14.1,-0.7 14.233,0.55 14.1,1.95C13.933,3.317 13.517,4.483 12.85,5.45C12.217,6.35 11.55,6.767 10.85,6.7C10.15,6.6 9.583,6 9.15,4.9C8.717,3.833 8.6,2.6 8.8,1.2C8.933,-0.2 9.317,-1.383 9.95,-2.35C10.583,-3.283 11.267,-3.7 12,-3.6Z" style="fill:none;fill-rule:nonzero;stroke:black;stroke-opacity:0.3;stroke-width:0.05px;"/>
                <path d="M10.75,-3.35C11.183,-3.65 11.617,-3.75 12.05,-3.65C12.517,-3.583 12.917,-3.3 13.25,-2.8L13.7,-1.8L14.15,0.05C13.783,-0.383 13.367,-0.533 12.9,-0.4L11.9,0.4L11.8,0.25L11.6,0.2L11.3,0.25L11.05,0.5L11,0.6C10.7,0.5 10.45,0.167 10.25,-0.4C9.983,-1 9.9,-1.7 10,-2.5L10.75,-3.35" style="fill:rgb(172,173,140);"/>
                <path d="M14.05,0.9L14.15,1.1L14.1,2.05L14.1,2.3C13.9,3.6 13.483,4.667 12.85,5.5L12.6,5.95C12.033,6.617 11.433,6.883 10.8,6.75L10.75,6.75C11.117,6.217 11.383,5.517 11.55,4.65L11.6,2.8L11.85,2.6L11.9,2.5L12.15,1.7L12.15,0.95C12.383,0.617 12.65,0.4 12.95,0.3C13.383,0.2 13.75,0.4 14.05,0.9M10.75,1.4L10.7,1.7L10.8,2.4L10.9,2.55L11.2,2.85L11.15,4.5C11.017,5.3 10.75,5.933 10.35,6.4L10.25,6.5L9.45,5.65L9.1,4.9C8.667,3.767 8.55,2.467 8.75,1L8.75,0.95C8.883,-0.083 9.167,-0.983 9.6,-1.75C9.567,-1.083 9.65,-0.467 9.85,0.1C10.117,0.7 10.417,1.1 10.75,1.3L10.75,1.4" style="fill:rgb(138,137,101);"/>
                <path d="M10.75,-3.35C11.183,-3.65 11.617,-3.75 12.05,-3.65C12.517,-3.583 12.917,-3.3 13.25,-2.8L13.7,-1.8L14.15,0.05C13.783,-0.383 13.367,-0.533 12.9,-0.4L11.9,0.4L11.8,0.25L11.6,0.2L11.3,0.25L11.05,0.5L11,0.6C10.7,0.5 10.45,0.167 10.25,-0.4C9.983,-1 9.9,-1.7 10,-2.5L10.75,-3.35M14.05,0.9L14.15,1.1L14.1,2.05L14.1,2.3C13.9,3.6 13.483,4.667 12.85,5.5L12.6,5.95C12.033,6.617 11.433,6.883 10.8,6.75L10.75,6.75C11.117,6.217 11.383,5.517 11.55,4.65L11.6,2.8L11.85,2.6L11.9,2.5L12.15,1.7L12.15,0.95C12.383,0.617 12.65,0.4 12.95,0.3C13.383,0.2 13.75,0.4 14.05,0.9M10.75,1.4L10.7,1.7L10.8,2.4L10.9,2.55L11.2,2.85L11.15,4.5C11.017,5.3 10.75,5.933 10.35,6.4L10.25,6.5L9.45,5.65L9.1,4.9C8.667,3.767 8.55,2.467 8.75,1L8.75,0.95C8.883,-0.083 9.167,-0.983 9.6,-1.75C9.567,-1.083 9.65,-0.467 9.85,0.1C10.117,0.7 10.417,1.1 10.75,1.3L10.75,1.4Z" style="fill:none;fill-rule:nonzero;stroke:black;stroke-opacity:0.3;stroke-width:0.05px;"/>
            </g>
        </g>
    </g>
</svg>
