<?xml version="1.0" encoding="UTF-8" standalone="no"?>
<!DOCTYPE svg PUBLIC "-//W3C//DTD SVG 1.1//EN" "http://www.w3.org/Graphics/SVG/1.1/DTD/svg11.dtd">
<svg width="100%" height="100%" viewBox="0 0 19 28" version="1.1" xmlns="http://www.w3.org/2000/svg" xmlns:xlink="http://www.w3.org/1999/xlink" xml:space="preserve" xmlns:serif="http://www.serif.com/" style="fill-rule:evenodd;clip-rule:evenodd;stroke-linecap:round;stroke-linejoin:round;">
    <g id="sprite0" transform="matrix(1,0,0,1,9,13.6)">
        <g>
            <g id="shape0">
                <path d="M8.35,-3.1L8.2,-2.4L7.2,-0.15L7.2,0L7.15,1.2L7.1,1.4L7.1,1.45C7.567,1.783 7.733,2.25 7.6,2.85L7.4,3.3L7.2,3.55L7.05,3.75L6.55,4.2L6.4,4.75L6.2,5.25L6.2,6.5L6.4,6.5L7.1,6.65L6.65,7L6.65,7.05L6.7,7.45L6.65,7.85L6,7.65L5.75,8.25L5.15,9.15L5.15,9.3L5.1,9.95C5,10.45 4.8,10.783 4.5,10.95L2.8,11.2L1.6,11L0.9,11.05L0.9,11.2L0.85,11.85C0.783,12.35 0.583,12.667 0.25,12.8L-1.45,13.1L-3.1,12.65C-3.567,12.417 -3.733,11.85 -3.6,10.95L-3.4,10.15L-3.35,10L-3.75,9.7C-4.283,9.733 -4.75,9.583 -5.15,9.25C-5.583,8.95 -5.817,8.533 -5.85,8C-5.917,7.5 -5.8,6.933 -5.5,6.3L-5.4,6.1L-5.4,5.8L-5.2,4.5L-5,4.4L-5,4.45L-4.65,3.55C-6.317,2.65 -7.6,1.567 -8.5,0.3L-7.15,-0.35L-7.35,-1.35L-7.4,-2L-7.45,-2.75L-7.45,-3.5L-7,-5.4L-7.3,-6.85L-7.35,-7.8L-5.2,-8.3L-4.9,-8.55L-6.85,-11.2L-7.4,-12.1L-4.75,-11.6L-4.15,-13L-2.2,-10.2L-1.2,-10.45C-0.133,-11.75 1,-12.633 2.2,-13.1C3.133,-12.2 3.883,-10.983 4.45,-9.45L5.9,-8.3L6.75,-7.35L8,-8.45C8.4,-7.317 8.567,-6.05 8.5,-4.65L8.35,-3.1M6.5,0.8L6.55,0.85L6.6,0.85L6.75,0.7L6.85,0.35L6.5,0.8M6.5,2.45L6.1,2.9L6.25,3.2L6.45,3.55L6.75,3.25L6.95,2.9C7.05,2.567 6.983,2.317 6.75,2.15L6.75,2.1L6.8,1.85L6.8,1.9L6.5,2.45" style="fill:rgb(40,10,2);"/>
                <path d="M8.35,-3.1L8.5,-4.65C8.567,-6.05 8.4,-7.317 8,-8.45L6.75,-7.35L5.9,-8.3L4.45,-9.45C3.883,-10.983 3.133,-12.2 2.2,-13.1C1,-12.633 -0.133,-11.75 -1.2,-10.45L-2.2,-10.2L-4.15,-13L-4.75,-11.6L-7.4,-12.1L-6.85,-11.2L-4.9,-8.55L-5.2,-8.3L-7.35,-7.8L-7.3,-6.85L-7,-5.4L-7.45,-3.5L-7.45,-2.75L-7.4,-2L-7.35,-1.35L-7.15,-0.35L-8.5,0.3C-7.6,1.567 -6.317,2.65 -4.65,3.55L-5,4.45L-5,4.4L-5.2,4.5L-5.4,5.8L-5.4,6.1L-5.5,6.3C-5.8,6.933 -5.917,7.5 -5.85,8C-5.817,8.533 -5.583,8.95 -5.15,9.25C-4.75,9.583 -4.283,9.733 -3.75,9.7L-3.35,10L-3.4,10.15L-3.6,10.95C-3.733,11.85 -3.567,12.417 -3.1,12.65L-1.45,13.1L0.25,12.8C0.583,12.667 0.783,12.35 0.85,11.85L0.9,11.2L0.9,11.05L1.6,11L2.8,11.2L4.5,10.95C4.8,10.783 5,10.45 5.1,9.95L5.15,9.3L5.15,9.15L5.75,8.25L6,7.65L6.65,7.85L6.7,7.45L6.65,7.05L6.65,7L7.1,6.65L6.4,6.5L6.2,6.5L6.2,5.25L6.4,4.75L6.55,4.2L7.05,3.75L7.2,3.55L7.4,3.3L7.6,2.85C7.733,2.25 7.567,1.783 7.1,1.45L7.1,1.4L7.15,1.2L7.2,0L7.2,-0.15L8.2,-2.4L8.35,-3.1M6.5,0.8L6.55,0.85L6.6,0.85L6.75,0.7L6.85,0.35L6.5,0.8M6.5,2.45L6.1,2.9L6.25,3.2L6.45,3.55L6.75,3.25L6.95,2.9C7.05,2.567 6.983,2.317 6.75,2.15L6.75,2.1L6.8,1.85L6.8,1.9L6.5,2.45Z" style="fill:none;fill-rule:nonzero;stroke:rgb(40,10,2);stroke-width:1px;"/>
            </g>
            <g id="sprite1" transform="matrix(0.523,0,0,0.523,1.40005,11.0503)">
                <g id="shape1" transform="matrix(1,0,0,1,-0.45,-7.8)">
                    <g id="sprite2">
                        <g id="shape11" serif:id="shape1">
                            <path d="M-0.7,2.45L-0.2,1.1C0.5,0.067 1.717,-0.4 3.45,-0.3C5.35,-0.067 6.567,0.533 7.1,1.5C7.367,2.4 7.517,3.4 7.55,4.5L7.45,5.75C3.817,6.017 1.1,4.917 -0.7,2.45" style="fill:rgb(187,177,168);"/>
                            <path d="M7.45,5.75C7.317,6.717 6.933,7.333 6.3,7.6C5.367,8.033 4.283,8.217 3.05,8.15C1.817,8.083 0.767,7.783 -0.1,7.25C-0.967,6.783 -1.283,5.717 -1.05,4.05L-0.7,2.45C1.1,4.917 3.817,6.017 7.45,5.75" style="fill:rgb(215,203,194);"/>
                            <path d="M7.45,5.75C7.317,6.717 6.933,7.333 6.3,7.6C5.367,8.033 4.283,8.217 3.05,8.15C1.817,8.083 0.767,7.783 -0.1,7.25C-0.967,6.783 -1.283,5.717 -1.05,4.05L-0.7,2.45L-0.2,1.1C0.5,0.067 1.717,-0.4 3.45,-0.3C5.35,-0.067 6.567,0.533 7.1,1.5C7.367,2.4 7.517,3.4 7.55,4.5L7.45,5.75Z" style="fill:none;fill-rule:nonzero;stroke:black;stroke-opacity:0.3;stroke-width:0.05px;"/>
                        </g>
                    </g>
                </g>
                <g id="sprite3" transform="matrix(0.5008,-0.8655,0.8655,0.5008,-0.15006,-15.0499)">
                    <g id="shape2">
                        <path d="M1.5,-1.3L1.65,-1.4C3.583,-2.233 5.083,-1.683 6.15,0.25L6.2,0.7L6.05,3.35C5.95,4.317 5.717,5.1 5.35,5.7L4.05,6.8C2.883,7.333 1.85,7.483 0.95,7.25L-0.3,6.8L-1.75,5.7L-1.95,5.2L-1.95,4.3C-1.083,1.6 0.067,-0.267 1.5,-1.3" style="fill:rgb(229,220,214);"/>
                        <path d="M6.2,0.7L6.05,3.35C5.95,4.317 5.717,5.1 5.35,5.7M-1.95,5.2L-1.95,4.3C-1.083,1.6 0.067,-0.267 1.5,-1.3" style="fill:none;fill-rule:nonzero;stroke:black;stroke-opacity:0.3;stroke-width:0.05px;"/>
                    </g>
                </g>
                <g id="sprite4" transform="matrix(0.5008,-0.8655,0.8655,0.5008,2.94996,-12.5499)">
                    <g id="shape3">
                        <path d="M6.5,0.2L6.35,2.05C6.183,2.817 5.85,3.55 5.35,4.25C4.783,5.15 3.967,5.717 2.9,5.95C1.833,6.183 0.867,6 0,5.4C-0.9,4.867 -1.45,4.1 -1.65,3.1C-1.817,2.133 -1.667,1.05 -1.2,-0.15L-1.1,-0.2C-0.267,-1.133 1.183,-1.417 3.25,-1.05C5.283,-0.683 6.367,-0.267 6.5,0.2" style="fill:rgb(229,220,214);"/>
                        <path d="M6.5,0.2L6.35,2.05C6.183,2.817 5.85,3.55 5.35,4.25C4.783,5.15 3.967,5.717 2.9,5.95C1.833,6.183 0.867,6 0,5.4C-0.9,4.867 -1.45,4.1 -1.65,3.1C-1.817,2.133 -1.667,1.05 -1.2,-0.15L-1.1,-0.2" style="fill:none;fill-rule:nonzero;stroke:black;stroke-opacity:0.3;stroke-width:0.05px;"/>
                    </g>
                </g>
                <g id="sprite5" transform="matrix(1,0,0,1,-8.55,-4.25)">
                    <g id="shape12" serif:id="shape1">
                        <path d="M-0.7,2.45L-0.2,1.1C0.5,0.067 1.717,-0.4 3.45,-0.3C5.35,-0.067 6.567,0.533 7.1,1.5C7.367,2.4 7.517,3.4 7.55,4.5L7.45,5.75C3.817,6.017 1.1,4.917 -0.7,2.45" style="fill:rgb(187,177,168);"/>
                        <path d="M7.45,5.75C7.317,6.717 6.933,7.333 6.3,7.6C5.367,8.033 4.283,8.217 3.05,8.15C1.817,8.083 0.767,7.783 -0.1,7.25C-0.967,6.783 -1.283,5.717 -1.05,4.05L-0.7,2.45C1.1,4.917 3.817,6.017 7.45,5.75" style="fill:rgb(215,203,194);"/>
                        <path d="M7.45,5.75C7.317,6.717 6.933,7.333 6.3,7.6C5.367,8.033 4.283,8.217 3.05,8.15C1.817,8.083 0.767,7.783 -0.1,7.25C-0.967,6.783 -1.283,5.717 -1.05,4.05L-0.7,2.45L-0.2,1.1C0.5,0.067 1.717,-0.4 3.45,-0.3C5.35,-0.067 6.567,0.533 7.1,1.5C7.367,2.4 7.517,3.4 7.55,4.5L7.45,5.75Z" style="fill:none;fill-rule:nonzero;stroke:black;stroke-opacity:0.3;stroke-width:0.05px;"/>
                    </g>
                </g>
                <g id="sprite6" transform="matrix(1,0,0,1,-9.2,-16.55)">
                    <g id="shape4">
                        <path d="M0.6,-1.2C2.5,-2.433 4.733,-3.05 7.3,-3.05C9.633,-3.05 11.7,-2.533 13.5,-1.5C16.067,-0.2 17.6,2.167 18.1,5.6L18.1,5.65L18.15,6.45C18.283,8.15 17.983,9.7 17.25,11.1C16.75,12.2 15.883,13.2 14.65,14.1C12.583,15.6 10.133,16.35 7.3,16.35C4.433,16.35 1.983,15.6 -0.05,14.1C-1.283,13.2 -2.15,12.2 -2.65,11.1C-3.35,9.7 -3.65,8.15 -3.55,6.45L-3.45,5.5C-3.15,3.833 -2.633,2.433 -1.9,1.3C-1.233,0.233 -0.4,-0.6 0.6,-1.2" style="fill:rgb(229,220,214);"/>
                        <path d="M0.6,-1.2C-0.4,-0.6 -1.233,0.233 -1.9,1.3C-2.633,2.433 -3.15,3.833 -3.45,5.5L-3.55,6.45C-3.65,8.15 -3.35,9.7 -2.65,11.1C-2.15,12.2 -1.283,13.2 -0.05,14.1C1.983,15.6 4.433,16.35 7.3,16.35C10.133,16.35 12.583,15.6 14.65,14.1C15.883,13.2 16.75,12.2 17.25,11.1C17.983,9.7 18.283,8.15 18.15,6.45L18.1,5.65L18.1,5.6C17.6,2.167 16.067,-0.2 13.5,-1.5C11.7,-2.533 9.633,-3.05 7.3,-3.05C4.733,-3.05 2.5,-2.433 0.6,-1.2Z" style="fill:none;fill-rule:nonzero;stroke:black;stroke-opacity:0.3;stroke-width:0.05px;"/>
                        <path d="M16.55,5.1L17.7,4L18.1,4.3L18.15,4.55L17.95,6.2L16.55,5.1" style="fill:url(#_Radial1);"/>
                        <path d="M16.55,5.1L17.95,6.2L18.15,4.55L18.4,6.5C18.5,8.2 18.183,9.767 17.45,11.2L16.75,12.35C14.95,13.35 12.867,13.85 10.5,13.85C7.6,13.85 5.083,13.083 2.95,11.55C1.717,10.65 0.85,9.633 0.35,8.5L-0.5,6.1C1.7,7.467 4.317,8.15 7.35,8.15C9.317,8.15 11.117,7.867 12.75,7.3L14.75,8.9L15.1,6.1L15.6,5.8L16.55,5.1" style="fill:rgb(125,96,76);"/>
                        <path d="M16.75,12.35L14.8,14.25C12.733,15.783 10.233,16.55 7.3,16.55C4.4,16.55 1.883,15.783 -0.25,14.25C-1.483,13.35 -2.35,12.333 -2.85,11.2C-3.617,9.767 -3.95,8.2 -3.85,6.5L-3.4,4L-3.1,3.85L-0.95,5.8L-0.5,6.1L0.35,8.5C0.85,9.633 1.717,10.65 2.95,11.55C5.083,13.083 7.6,13.85 10.5,13.85C12.867,13.85 14.95,13.35 16.75,12.35" style="fill:rgb(103,73,57);"/>
                        <path d="M18.15,4.55L18.1,4.3L17.7,4L16.55,5.1L15.6,5.8L15.1,6.1L14.75,8.9L12.75,7.3C11.117,7.867 9.317,8.15 7.35,8.15C4.317,8.15 1.7,7.467 -0.5,6.1L-0.95,5.8L-3.1,3.85L-3.4,4L-3.85,6.5C-3.95,8.2 -3.617,9.767 -2.85,11.2C-2.35,12.333 -1.483,13.35 -0.25,14.25C1.883,15.783 4.4,16.55 7.3,16.55C10.233,16.55 12.733,15.783 14.8,14.25L16.75,12.35L17.45,11.2C18.183,9.767 18.5,8.2 18.4,6.5L18.15,4.55Z" style="fill:none;fill-rule:nonzero;stroke:black;stroke-opacity:0.3;stroke-width:0.05px;"/>
                        <path d="M11.75,9.4C11.383,8.8 11.533,8.45 12.2,8.35C12.867,8.183 13.35,8.383 13.65,8.95C13.983,9.583 13.917,10.3 13.45,11.1C12.583,10.5 12.017,9.933 11.75,9.4" style="fill:url(#_Radial2);"/>
                        <path d="M11.1,10.45L11.35,9.55L11.7,8.75L12.05,8.35L12.35,8.25L12.65,8.4C12.65,9.433 12.133,10.9 11.1,12.8L10.7,11.8L10.65,11.7L9.65,11.4C9.783,11.2 10.267,10.883 11.1,10.45L11,11L11.1,10.45" style="fill:rgb(204,192,178);"/>
                        <path d="M11.1,12.8C12.133,10.9 12.65,9.433 12.65,8.4C13.05,8.7 13.1,9.517 12.8,10.85C13.333,11.517 13.6,11.967 13.6,12.2L12.55,12.05L11.3,13.25L11.1,12.8M12.65,11.25L12.8,10.85L12.65,11.25" style="fill:rgb(180,160,145);"/>
                        <path d="M12.65,8.4L12.35,8.25L12.05,8.35L11.7,8.75L11.35,9.55L11.1,10.45L11,11M11.1,10.45C10.267,10.883 9.783,11.2 9.65,11.4L10.65,11.7L10.7,11.8L11.1,12.8L11.3,13.25L12.55,12.05L13.6,12.2C13.6,11.967 13.333,11.517 12.8,10.85L12.65,11.25M12.65,8.4C13.05,8.7 13.1,9.517 12.8,10.85" style="fill:none;fill-rule:nonzero;stroke:black;stroke-opacity:0.3;stroke-width:0.05px;"/>
                        <path d="M16.95,7C17.017,7.633 16.883,8.383 16.55,9.25C15.983,8.65 15.7,8 15.7,7.3C15.633,6.633 15.833,6.233 16.3,6.1C16.733,6 16.95,6.3 16.95,7" style="fill:url(#_Radial3);"/>
                        <path d="M16.35,6.25L16.35,6.2C16.717,6.067 17.183,6.35 17.75,7.05L18.35,7.8L20.05,8.15L19.2,8.75L19.2,8.9L19.3,9.7C18.133,8.9 17.15,7.75 16.35,6.25M18.65,8.25L18.35,7.8L18.65,8.25" style="fill:rgb(204,192,178);"/>
                        <path d="M19.3,9.7L19.2,10.45L17.6,9.85L16.7,10.35C16.633,10.15 16.7,9.65 16.9,8.85C15.967,7.483 15.783,6.617 16.35,6.25C17.15,7.75 18.133,8.9 19.3,9.7M16.9,8.85L17.2,9.15L16.9,8.85" style="fill:rgb(180,160,145);"/>
                        <path d="M16.35,6.25L16.35,6.2C16.717,6.067 17.183,6.35 17.75,7.05L18.35,7.8L20.05,8.15L19.2,8.75L19.2,8.9L19.3,9.7L19.2,10.45L17.6,9.85L16.7,10.35C16.633,10.15 16.7,9.65 16.9,8.85C15.967,7.483 15.783,6.617 16.35,6.25M18.35,7.8L18.65,8.25M17.2,9.15L16.9,8.85" style="fill:none;fill-rule:nonzero;stroke:black;stroke-opacity:0.3;stroke-width:0.05px;"/>
                        <path d="M7.4,-2.85C9.733,-2.85 11.733,-2.45 13.4,-1.65C15.067,-0.85 15.9,0.117 15.9,1.25C15.9,2.383 15.067,3.35 13.4,4.15C11.733,4.95 9.733,5.35 7.4,5.35L0.7,4.65C-1.433,4.183 -2.317,3.25 -1.95,1.85C-1.583,0.45 -0.517,-0.683 1.25,-1.55C2.983,-2.417 5.033,-2.85 7.4,-2.85" style="fill:rgb(189,180,176);"/>
                    </g>
                </g>
                <g id="sprite31" serif:id="sprite3" transform="matrix(0.9972,0.0751,-0.0751,0.9972,-11.0499,-12.95)">
                    <g id="shape21" serif:id="shape2">
                        <path d="M1.5,-1.3L1.65,-1.4C3.583,-2.233 5.083,-1.683 6.15,0.25L6.2,0.7L6.05,3.35C5.95,4.317 5.717,5.1 5.35,5.7L4.05,6.8C2.883,7.333 1.85,7.483 0.95,7.25L-0.3,6.8L-1.75,5.7L-1.95,5.2L-1.95,4.3C-1.083,1.6 0.067,-0.267 1.5,-1.3" style="fill:rgb(229,220,214);"/>
                        <path d="M6.2,0.7L6.05,3.35C5.95,4.317 5.717,5.1 5.35,5.7M-1.95,5.2L-1.95,4.3C-1.083,1.6 0.067,-0.267 1.5,-1.3" style="fill:none;fill-rule:nonzero;stroke:black;stroke-opacity:0.3;stroke-width:0.05px;"/>
                    </g>
                </g>
                <g id="sprite41" serif:id="sprite4" transform="matrix(0.9972,0.0751,-0.0992,0.9953,-11.9499,-8.80007)">
                    <g id="shape31" serif:id="shape3">
                        <path d="M6.5,0.2L6.35,2.05C6.183,2.817 5.85,3.55 5.35,4.25C4.783,5.15 3.967,5.717 2.9,5.95C1.833,6.183 0.867,6 0,5.4C-0.9,4.867 -1.45,4.1 -1.65,3.1C-1.817,2.133 -1.667,1.05 -1.2,-0.15L-1.1,-0.2C-0.267,-1.133 1.183,-1.417 3.25,-1.05C5.283,-0.683 6.367,-0.267 6.5,0.2" style="fill:rgb(229,220,214);"/>
                        <path d="M6.5,0.2L6.35,2.05C6.183,2.817 5.85,3.55 5.35,4.25C4.783,5.15 3.967,5.717 2.9,5.95C1.833,6.183 0.867,6 0,5.4C-0.9,4.867 -1.45,4.1 -1.65,3.1C-1.817,2.133 -1.667,1.05 -1.2,-0.15L-1.1,-0.2" style="fill:none;fill-rule:nonzero;stroke:black;stroke-opacity:0.3;stroke-width:0.05px;"/>
                    </g>
                </g>
                <g id="sprite7" transform="matrix(1,0,0,1,-20.25,-43.2)">
                    <g id="shape5">
                        <path d="M16.35,4.85C15.583,4.05 15.167,3.183 15.1,2.25C17.2,-0.35 19.433,-2.083 21.8,-2.95C23.6,-1.25 25.033,1.1 26.1,4.1C25.767,4.967 25.1,5.633 24.1,6.1C22.9,6.7 21.55,6.883 20.05,6.65C18.65,6.417 17.483,5.883 16.55,5.05L16.35,4.85" style="fill:rgb(185,153,126);"/>
                        <path d="M16.35,4.85L16.55,5.05C17.483,5.883 18.65,6.417 20.05,6.65C21.55,6.883 22.9,6.7 24.1,6.1C25.1,5.633 25.767,4.967 26.1,4.1C25.033,1.1 23.6,-1.25 21.8,-2.95C19.433,-2.083 17.2,-0.35 15.1,2.25C15.167,3.183 15.583,4.05 16.35,4.85Z" style="fill:none;fill-rule:nonzero;stroke:black;stroke-opacity:0.3;stroke-width:0.05px;"/>
                        <path d="M9.65,-2.75L12.2,0.95C11.3,1.217 10.333,1.95 9.3,3.15L4.5,0.7L3.45,-1.05L8.5,-0.05L9.7,1.35L9.65,-2.75" style="fill:rgb(211,188,162);"/>
                        <path d="M8.5,-0.05L9.65,-2.75L9.7,1.35L8.5,-0.05M12.2,0.95L14,3.55C13.5,6.117 12.283,7.383 10.35,7.35C8.45,6.25 6.5,4.033 4.5,0.7L9.3,3.15C10.333,1.95 11.3,1.217 12.2,0.95" style="fill:rgb(185,153,126);"/>
                        <path d="M8.5,-0.05L9.65,-2.75L12.2,0.95L14,3.55C13.5,6.117 12.283,7.383 10.35,7.35C8.45,6.25 6.5,4.033 4.5,0.7L3.45,-1.05L8.5,-0.05Z" style="fill:none;fill-rule:nonzero;stroke:black;stroke-opacity:0.3;stroke-width:0.05px;"/>
                        <path d="M32.85,5.95L31,9.1L30.45,8L32.85,5.95M2.95,21.9L3.35,22.3C5.35,24.267 7.567,25.7 10,26.6L14.6,27.45L15.05,27.55L16.1,27.55L20.3,27.05L20.7,27L22.7,26.3C24.567,25.533 26.3,24.45 27.9,23.05L28.7,22.3C30.933,20.033 32.467,17.5 33.3,14.7L33.8,13.15L33.6,16.15L33.3,17.5C32.467,20.3 30.933,22.833 28.7,25.1L27.9,25.85C26.3,27.25 24.567,28.333 22.7,29.1L20.7,29.8L20.3,29.85L16.1,30.35L15.05,30.35L14.6,30.25L10,29.4L9.6,29.25C5.933,27.483 3.167,25.283 1.3,22.65L2.95,21.9M3.55,19.5L5.7,20.55L3.95,21.4L3.9,21.45L3.55,19.5M3.95,21.4L3.9,21.45L3.95,21.4" style="fill:rgb(229,220,214);"/>
                        <path d="M31,9.1L32.85,5.95C33.65,8.083 33.967,10.483 33.8,13.15L33.3,14.7C32.467,17.5 30.933,20.033 28.7,22.3L27.9,23.05C26.3,24.45 24.567,25.533 22.7,26.3L20.7,27L20.3,27.05L16.1,27.55L15.05,27.55L14.6,27.45L10,26.6C7.567,25.7 5.35,24.267 3.35,22.3L2.95,21.9L3.9,21.45L3.95,21.4L5.7,20.55L3.55,19.5L3.4,18.25L3.8,18.1C3.567,17.2 3.417,16.3 3.35,15.4C3.65,11.867 5.083,8.8 7.65,6.2C10.583,3.267 14.117,1.8 18.25,1.8C22.417,1.8 25.95,3.267 28.85,6.2L30.45,8L31,9.1" style="fill:rgb(251,247,244);"/>
                        <path d="M3.35,15.4C3.417,16.3 3.567,17.2 3.8,18.1L3.4,18.25L3.3,16.8L3.35,15.4" style="fill:url(#_Radial4);"/>
                        <path d="M30.45,8L31,9.1M9.6,29.25L10,29.4L14.6,30.25L15.05,30.35L16.1,30.35L20.3,29.85L20.7,29.8L22.7,29.1C24.567,28.333 26.3,27.25 27.9,25.85L28.7,25.1C30.933,22.833 32.467,20.3 33.3,17.5L33.6,16.15M30.45,8L28.85,6.2C25.95,3.267 22.417,1.8 18.25,1.8C14.117,1.8 10.583,3.267 7.65,6.2C5.083,8.8 3.65,11.867 3.35,15.4L3.3,16.8L3.4,18.25L3.55,19.5L3.9,21.45" style="fill:none;fill-rule:nonzero;stroke:black;stroke-opacity:0.3;stroke-width:0.05px;"/>
                        <path d="M32.85,5.95L30.45,8M2.95,21.9L1.3,22.65C3.167,25.283 5.933,27.483 9.6,29.25M33.6,16.15L33.8,13.15C33.967,10.483 33.65,8.083 32.85,5.95M5.7,20.55L3.95,21.4L3.9,21.45L2.95,21.9" style="fill:none;fill-rule:nonzero;stroke:black;stroke-opacity:0.3;stroke-width:0.05px;"/>
                        <path d="M26,8.25C26.7,7.25 27.533,6.917 28.5,7.25C29.467,7.617 30.3,8.533 31,10C31.7,11.5 32.05,13.15 32.05,14.95C32.05,16.717 31.7,18.117 31,19.15C30.3,20.183 29.467,20.533 28.5,20.2C27.533,19.833 26.7,18.9 26,17.4C25.3,15.933 24.95,14.3 24.95,12.5C24.95,10.733 25.3,9.317 26,8.25" style="fill:url(#_Radial5);"/>
                        <path d="M8.5,7.4C9.733,6.833 10.767,6.767 11.6,7.2C12.433,7.6 12.817,8.383 12.75,9.55C12.717,10.75 12.25,11.983 11.35,13.25C10.45,14.483 9.383,15.4 8.15,16C6.917,16.6 5.883,16.7 5.05,16.3C4.217,15.867 3.833,15.05 3.9,13.85C3.967,12.683 4.45,11.483 5.35,10.25C6.25,8.983 7.3,8.033 8.5,7.4" style="fill:rgb(215,203,194);"/>
                        <path d="M12.05,6.35C12.65,7.083 12.933,7.983 12.9,9.05L12.8,10.25C9.167,11.917 6.117,11.483 3.65,8.95L3.55,7.15C5.917,6.183 8.75,5.917 12.05,6.35" style="fill:rgb(211,188,162);"/>
                        <path d="M12.8,10.25C12.6,11.15 12.167,12.05 11.5,12.95C10.6,14.15 9.517,14.95 8.25,15.35L5.35,15.15C4.383,12.983 3.817,10.917 3.65,8.95C6.117,11.483 9.167,11.917 12.8,10.25" style="fill:rgb(185,153,126);"/>
                        <path d="M5.35,15.15C4.383,12.983 3.817,10.917 3.65,8.95L3.55,7.15C5.917,6.183 8.75,5.917 12.05,6.35" style="fill:none;fill-rule:nonzero;stroke:black;stroke-opacity:0.3;stroke-width:0.05px;"/>
                        <path d="M17.5,11.6L19.25,11.3L20.2,11.5L20.75,12.2L20.4,12.9L19.65,13.05L18,12.5L16.25,12.25C16.283,12.017 16.7,11.8 17.5,11.6" style="fill:rgb(211,188,162);"/>
                        <path d="M17.5,11.6L19.25,11.3L20.2,11.5L20.75,12.2L20.4,12.9L19.65,13.05L18,12.5L16.25,12.25C16.283,12.017 16.7,11.8 17.5,11.6Z" style="fill:none;fill-rule:nonzero;stroke:black;stroke-opacity:0.3;stroke-width:0.05px;"/>
                        <path d="M24.55,7.95C24.95,7.483 25.267,7.267 25.5,7.3L25.15,8.4L24.85,9.75C24.783,10.117 24.65,10.317 24.45,10.35C24.217,10.483 24,10.483 23.8,10.35C23.633,10.25 23.55,10.067 23.55,9.8L23.75,9.05L24.55,7.95" style="fill:rgb(211,188,162);"/>
                        <path d="M24.55,7.95L23.75,9.05L23.55,9.8C23.55,10.067 23.633,10.25 23.8,10.35C24,10.483 24.217,10.483 24.45,10.35C24.65,10.317 24.783,10.117 24.85,9.75L25.15,8.4L25.5,7.3C25.267,7.267 24.95,7.483 24.55,7.95Z" style="fill:none;fill-rule:nonzero;stroke:black;stroke-opacity:0.3;stroke-width:0.05px;"/>
                        <path d="M27.7,19.5C27.967,20.133 27.867,20.933 27.4,21.9C26.233,21.967 25.35,21.667 24.75,21C25.45,19.933 26.433,19.433 27.7,19.5" style="fill:rgb(27,27,27);"/>
                        <path d="M27.7,19.5C27.967,20.133 27.867,20.933 27.4,21.9C26.233,21.967 25.35,21.667 24.75,21C25.45,19.933 26.433,19.433 27.7,19.5Z" style="fill:none;fill-rule:nonzero;stroke:black;stroke-opacity:0.3;stroke-width:0.05px;"/>
                        <path d="M23.2,20C23.1,21.067 22.767,22.217 22.2,23.45L21.85,23.9C21.083,24.667 20.183,25.15 19.15,25.35L16.5,25.15C15.667,24.883 15,24.433 14.5,23.8L14.3,23.5C13.867,22.633 13.6,21.783 13.5,20.95C13.367,19.783 13.5,18.633 13.9,17.5L14,17.25C14.7,15.95 15.633,15.117 16.8,14.75L20.2,14.65C21.267,15.05 22.1,15.75 22.7,16.75C23.133,17.75 23.3,18.833 23.2,20" style="fill:rgb(27,27,27);"/>
                        <path d="M13.4,19.3L13.9,18.05C14.6,16.85 15.533,16.017 16.7,15.55L20.15,15.3C21.283,15.5 22.167,16.067 22.8,17L23.35,18.35C23.15,19.283 22.817,20.067 22.35,20.7C21.683,21.533 20.817,22.067 19.75,22.3L16.8,22.4C15.933,22.167 15.183,21.8 14.55,21.3C13.917,20.7 13.533,20.05 13.4,19.35L13.4,19.3" style="fill:rgb(255,243,172);"/>
                        <path d="M23.35,18.35L23.45,20C23.317,21.267 22.95,22.3 22.35,23.1C21.683,23.933 20.817,24.467 19.75,24.7L16.8,24.8C15.933,24.567 15.183,24.2 14.55,23.7C13.917,23.1 13.533,22.45 13.4,21.75C13.2,20.883 13.2,20.067 13.4,19.3L13.4,19.35C13.533,20.05 13.917,20.7 14.55,21.3C15.183,21.8 15.933,22.167 16.8,22.4L19.75,22.3C20.817,22.067 21.683,21.533 22.35,20.7C22.817,20.067 23.15,19.283 23.35,18.35" style="fill:rgb(230,209,133);"/>
                        <path d="M13.4,19.3L13.9,18.05C14.6,16.85 15.533,16.017 16.7,15.55L20.15,15.3C21.283,15.5 22.167,16.067 22.8,17L23.35,18.35L23.45,20C23.317,21.267 22.95,22.3 22.35,23.1C21.683,23.933 20.817,24.467 19.75,24.7L16.8,24.8C15.933,24.567 15.183,24.2 14.55,23.7C13.917,23.1 13.533,22.45 13.4,21.75C13.2,20.883 13.2,20.067 13.4,19.3Z" style="fill:none;fill-rule:nonzero;stroke:black;stroke-opacity:0.3;stroke-width:0.05px;"/>
                        <path d="M18.65,17.15C19.05,16.417 19.567,16 20.2,15.9C20.833,15.833 21.417,16.117 21.95,16.75C22.483,17.417 22.8,18.217 22.9,19.15C23.033,20.117 22.9,20.967 22.5,21.7C22.1,22.433 21.583,22.833 20.95,22.9C20.317,23 19.733,22.733 19.2,22.1C18.7,21.467 18.383,20.667 18.25,19.7C18.15,18.767 18.283,17.917 18.65,17.15" style="fill:rgb(27,27,27);"/>
                        <path d="M18.65,17.15C19.05,16.417 19.567,16 20.2,15.9C20.833,15.833 21.417,16.117 21.95,16.75C22.483,17.417 22.8,18.217 22.9,19.15C23.033,20.117 22.9,20.967 22.5,21.7C22.1,22.433 21.583,22.833 20.95,22.9C20.317,23 19.733,22.733 19.2,22.1C18.7,21.467 18.383,20.667 18.25,19.7C18.15,18.767 18.283,17.917 18.65,17.15Z" style="fill:none;fill-rule:nonzero;stroke:black;stroke-opacity:0.3;stroke-width:0.05px;"/>
                        <path d="M17.7,19.9C17.333,19.867 17.067,19.7 16.9,19.4C16.767,19.1 16.783,18.767 16.95,18.4C17.15,17.967 17.45,17.65 17.85,17.45L19,17.25C19.433,17.317 19.717,17.517 19.85,17.85C19.983,18.117 19.95,18.45 19.75,18.85L18.85,19.75L17.7,19.9" style="fill:white;"/>
                        <path d="M22.05,21.6L21.7,21.25L21.65,20.6L22.1,20.1L22.75,20L23.15,20.35L23.15,20.9L22.7,21.5L22.05,21.6" style="fill:white;"/>
                        <path d="M29.55,9.45L29.7,9.6C30.2,10.333 30.617,11.217 30.95,12.25L31.4,14.75L31.45,15.15L31.05,17.35L30.05,19.05C29.583,19.483 29.05,19.583 28.45,19.35L28.2,19.2C27.6,18.533 27.117,17.783 26.75,16.95C26.317,16.05 26.033,15.05 25.9,13.95C25.833,12.783 25.95,11.733 26.25,10.8C26.583,9.9 27.05,9.3 27.65,9C28.217,8.633 28.85,8.783 29.55,9.45" style="fill:rgb(27,27,27);"/>
                        <path d="M26.05,15.05L26,14.25C25.933,13.117 26.1,12.133 26.5,11.3C26.833,10.5 27.317,9.917 27.95,9.55C28.583,9.283 29.233,9.45 29.9,10.05L30.85,11.55L30.95,13.5L30.45,15.75L29.25,17.3L27.7,17.45C27.167,17.15 26.683,16.5 26.25,15.5L26.05,15.05" style="fill:rgb(255,243,172);"/>
                        <path d="M26.05,15.05L26.25,15.5C26.683,16.5 27.167,17.15 27.7,17.45L29.25,17.3L30.45,15.75L30.95,13.5L30.85,11.55L31.2,12.75C31.367,13.417 31.417,14.167 31.35,15L30.85,17.25L29.65,18.8C29.117,19.267 28.6,19.317 28.1,18.95C27.567,18.65 27.083,18 26.65,17L26.05,15.05" style="fill:rgb(230,209,133);"/>
                        <path d="M30.85,11.55L29.9,10.05C29.233,9.45 28.583,9.283 27.95,9.55C27.317,9.917 26.833,10.5 26.5,11.3C26.1,12.133 25.933,13.117 26,14.25L26.05,15.05L26.65,17C27.083,18 27.567,18.65 28.1,18.95C28.6,19.317 29.117,19.267 29.65,18.8L30.85,17.25L31.35,15C31.417,14.167 31.367,13.417 31.2,12.75L30.85,11.55Z" style="fill:none;fill-rule:nonzero;stroke:black;stroke-opacity:0.3;stroke-width:0.05px;"/>
                        <path d="M27.9,12.1C28.267,12.5 28.583,13.133 28.85,14C29.083,14.867 29.183,15.7 29.15,16.5C29.117,17.3 28.95,17.833 28.65,18.1C28.383,18.367 28.033,18.283 27.6,17.85C27.233,17.45 26.933,16.817 26.7,15.95C26.433,15.083 26.317,14.25 26.35,13.45C26.417,12.617 26.583,12.067 26.85,11.8C27.15,11.533 27.5,11.633 27.9,12.1" style="fill:rgb(27,27,27);"/>
                        <path d="M27.9,12.1C27.5,11.633 27.15,11.533 26.85,11.8C26.583,12.067 26.417,12.617 26.35,13.45C26.317,14.25 26.433,15.083 26.7,15.95C26.933,16.817 27.233,17.45 27.6,17.85C28.033,18.283 28.383,18.367 28.65,18.1C28.95,17.833 29.117,17.3 29.15,16.5C29.183,15.7 29.083,14.867 28.85,14C28.583,13.133 28.267,12.5 27.9,12.1Z" style="fill:none;fill-rule:nonzero;stroke:black;stroke-opacity:0.3;stroke-width:0.05px;"/>
                        <path d="M27.25,14.95L26.85,15.6L26.35,15.45L26.05,14.7L26.1,13.7L26.55,13.15L27.05,13.25L27.35,14.05L27.25,14.95" style="fill:white;"/>
                        <path d="M28.95,16.9L28.65,16.5L28.55,15.85L28.8,15.4L29.2,15.35L29.55,15.75L29.6,16.35L29.35,16.85L28.95,16.9" style="fill:white;"/>
                        <path d="M21.9,26.8L21.65,25.55C21.65,24.683 21.95,23.95 22.55,23.35C23.183,22.75 23.917,22.45 24.75,22.45L24.85,22.45L25.6,22.55L27.2,22.35C27.8,22.05 28.217,21.5 28.45,20.7L28.7,20C28.833,19.767 29.017,19.617 29.25,19.55C29.683,19.417 30.15,19.6 30.65,20.1L31.25,21.2L31,21.95L30.9,22.3L30.8,21.7L30.45,21.15L30.15,20.8C29.983,20.767 29.867,20.85 29.8,21.05C29.7,21.383 29.65,21.733 29.65,22.1L29.65,22.2L29.8,23.2L30,23.6L29.9,23.75L28.7,24.75C27.967,25.283 27.1,25.767 26.1,26.2L25.95,26.3L25.75,25.75L25.6,25.5L25,24.9C24.667,24.667 24.3,24.55 23.9,24.55C23.633,24.55 23.433,24.65 23.3,24.85L23.2,25.45L23.25,25.95L24.05,26.8L24.3,26.95L23.7,27.05L21.9,26.8" style="fill:rgb(195,120,128);"/>
                        <path d="M31.25,21.2L31.4,22.05C31.567,22.917 31.517,23.7 31.25,24.4L31.15,24.75C30.717,25.617 30.067,26.35 29.2,26.95C28.233,27.617 26.967,28.15 25.4,28.55L24.75,28.65C23.917,28.65 23.183,28.333 22.55,27.7L21.9,26.8L23.7,27.05L24.3,26.95L24.05,26.8L23.25,25.95L23.2,25.45L23.25,25.6L23.65,26.1L24.05,26.45L24.75,26.75L25.05,26.8L25.85,26.5L25.95,26.3L26.1,26.2C27.1,25.767 27.967,25.283 28.7,24.75L29.9,23.75L30,23.6L30.15,23.7L30.2,23.75L30.45,23.45L30.65,22.75L30.65,22.45L30.5,21.35L30.45,21.15L30.8,21.7L30.9,22.3L31,21.95L31.25,21.2" style="fill:rgb(170,92,105);"/>
                        <path d="M21.9,26.8L21.65,25.55C21.65,24.683 21.95,23.95 22.55,23.35C23.183,22.75 23.917,22.45 24.75,22.45L24.85,22.45L25.6,22.55L27.2,22.35C27.8,22.05 28.217,21.5 28.45,20.7L28.7,20C28.833,19.767 29.017,19.617 29.25,19.55C29.683,19.417 30.15,19.6 30.65,20.1L31.25,21.2L31.4,22.05C31.567,22.917 31.517,23.7 31.25,24.4L31.15,24.75C30.717,25.617 30.067,26.35 29.2,26.95C28.233,27.617 26.967,28.15 25.4,28.55L24.75,28.65C23.917,28.65 23.183,28.333 22.55,27.7L21.9,26.8M23.2,25.45L23.3,24.85C23.433,24.65 23.633,24.55 23.9,24.55C24.3,24.55 24.667,24.667 25,24.9L25.6,25.5L25.75,25.75L25.95,26.3L25.85,26.5L25.05,26.8L24.75,26.75L24.05,26.45L23.65,26.1L23.25,25.6L23.2,25.45M30,23.6L29.8,23.2L29.65,22.2M29.65,22.1C29.65,21.733 29.7,21.383 29.8,21.05C29.867,20.85 29.983,20.767 30.15,20.8L30.45,21.15L30.5,21.35L30.65,22.45L30.65,22.75L30.45,23.45L30.2,23.75L30.15,23.7L30,23.6" style="fill:none;fill-rule:nonzero;stroke:black;stroke-opacity:0.3;stroke-width:0.05px;"/>
                        <path d="M26.75,26.2C26.783,25.733 26.983,25.267 27.35,24.8C27.717,24.3 28.167,23.983 28.7,23.85L30,24C29.967,24.5 29.767,24.967 29.4,25.4L28.1,26.4L26.75,26.2" style="fill:rgb(255,243,172);"/>
                        <path d="M30,24C30.4,24.3 30.6,24.7 30.6,25.2C30.6,25.767 30.4,26.3 30,26.8L28.7,27.8L27.35,27.6C26.95,27.3 26.75,26.867 26.75,26.3L26.75,26.2L28.1,26.4L29.4,25.4C29.767,24.967 29.967,24.5 30,24" style="fill:rgb(230,209,133);"/>
                        <path d="M26.75,26.2C26.783,25.733 26.983,25.267 27.35,24.8C27.717,24.3 28.167,23.983 28.7,23.85L30,24C30.4,24.3 30.6,24.7 30.6,25.2C30.6,25.767 30.4,26.3 30,26.8L28.7,27.8L27.35,27.6C26.95,27.3 26.75,26.867 26.75,26.3L26.75,26.2Z" style="fill:none;fill-rule:nonzero;stroke:black;stroke-opacity:0.3;stroke-width:0.05px;"/>
                        <path d="M28,28.85L28.05,28.95C28.417,29.283 28.8,29.4 29.2,29.3L30.25,28.55L30.5,28.3L30.9,27.6C31.1,27 30.967,26.517 30.5,26.15L30.45,26.1L30.6,25.2L30.55,24.65L31.05,24.9C32.017,25.5 32.367,26.367 32.1,27.5L31.75,28.4L31.4,28.85L31.05,29.25C30.35,29.95 29.7,30.417 29.1,30.65C28.3,30.85 27.583,30.617 26.95,29.95C26.517,29.483 26.35,28.767 26.45,27.8L26.5,27.65C26.6,28.317 27.1,28.717 28,28.85" style="fill:rgb(168,90,103);"/>
                        <path d="M28,28.85C27.1,28.717 26.6,28.317 26.5,27.65C26.633,26.983 26.9,26.4 27.3,25.9C27.833,25.867 28.117,26.167 28.15,26.8L27.75,27.75C27.717,28.217 27.8,28.583 28,28.85" style="fill:rgb(195,120,128);"/>
                        <path d="M26.5,27.65L26.45,27.8C26.35,28.767 26.517,29.483 26.95,29.95C27.583,30.617 28.3,30.85 29.1,30.65C29.7,30.417 30.35,29.95 31.05,29.25L31.4,28.85L31.75,28.4L32.1,27.5C32.367,26.367 32.017,25.5 31.05,24.9L30.55,24.65L30.6,25.2L30.45,26.1L30.5,26.15C30.967,26.517 31.1,27 30.9,27.6L30.5,28.3L30.25,28.55L29.2,29.3C28.8,29.4 28.417,29.283 28.05,28.95L28,28.85C27.8,28.583 27.717,28.217 27.75,27.75L28.15,26.8C28.117,26.167 27.833,25.867 27.3,25.9C26.9,26.4 26.633,26.983 26.5,27.65Z" style="fill:none;fill-rule:nonzero;stroke:black;stroke-opacity:0.3;stroke-width:0.05px;"/>
                    </g>
                </g>
            </g>
        </g>
    </g>
    <defs>
        <radialGradient id="_Radial1" cx="0" cy="0" r="1" gradientUnits="userSpaceOnUse" gradientTransform="matrix(17.7766,0,0,15.7286,10.6,4.3)"><stop offset="0" style="stop-color:rgb(125,96,76);stop-opacity:1"/><stop offset="0.52" style="stop-color:rgb(125,96,76);stop-opacity:1"/><stop offset="0.6" style="stop-color:rgb(113,83,66);stop-opacity:1"/><stop offset="1" style="stop-color:rgb(97,66,51);stop-opacity:1"/></radialGradient>
        <radialGradient id="_Radial2" cx="0" cy="0" r="1" gradientUnits="userSpaceOnUse" gradientTransform="matrix(0.57344,5.65248,7.53664,-0.4096,10.3,8.65)"><stop offset="0" style="stop-color:rgb(97,66,51);stop-opacity:1"/><stop offset="1" style="stop-color:rgb(97,66,51);stop-opacity:0"/></radialGradient>
        <radialGradient id="_Radial3" cx="0" cy="0" r="1" gradientUnits="userSpaceOnUse" gradientTransform="matrix(1.80224,5.65248,-4.58752,2.37568,17.45,5.7)"><stop offset="0" style="stop-color:rgb(97,66,51);stop-opacity:1"/><stop offset="1" style="stop-color:rgb(97,66,51);stop-opacity:0"/></radialGradient>
        <radialGradient id="_Radial4" cx="0" cy="0" r="1" gradientUnits="userSpaceOnUse" gradientTransform="matrix(30.8019,-14.6637,10.8954,22.8557,16.3,10.05)"><stop offset="0" style="stop-color:rgb(251,247,244);stop-opacity:1"/><stop offset="0.52" style="stop-color:rgb(251,247,244);stop-opacity:1"/><stop offset="0.62" style="stop-color:rgb(234,226,221);stop-opacity:1"/><stop offset="1" style="stop-color:rgb(215,203,194);stop-opacity:1"/></radialGradient>
        <radialGradient id="_Radial5" cx="0" cy="0" r="1" gradientUnits="userSpaceOnUse" gradientTransform="matrix(30.8019,-14.6637,10.8954,22.8557,16.65,10.2)"><stop offset="0" style="stop-color:rgb(211,188,162);stop-opacity:1"/><stop offset="0.51" style="stop-color:rgb(211,188,162);stop-opacity:1"/><stop offset="0.6" style="stop-color:rgb(198,170,143);stop-opacity:1"/><stop offset="1" style="stop-color:rgb(179,144,117);stop-opacity:1"/></radialGradient>
    </defs>
</svg>
