<?xml version="1.0" encoding="UTF-8" standalone="no"?>
<!DOCTYPE svg PUBLIC "-//W3C//DTD SVG 1.1//EN" "http://www.w3.org/Graphics/SVG/1.1/DTD/svg11.dtd">
<svg width="100%" height="100%" viewBox="0 0 20 27" version="1.1" xmlns="http://www.w3.org/2000/svg" xmlns:xlink="http://www.w3.org/1999/xlink" xml:space="preserve" xmlns:serif="http://www.serif.com/" style="fill-rule:evenodd;clip-rule:evenodd;stroke-linecap:round;stroke-linejoin:round;">
    <g transform="matrix(1,0,0,1,0,0.0204545)">
        <g id="sprite0" transform="matrix(1,0,0,1,9.6,13.15)">
            <g>
                <g id="shape0">
                    <path d="M6.3,-10.95L6.35,-10.9L7,-10.35L7.2,-10.4C7.533,-10.433 7.783,-10.3 7.95,-10L8.45,-9.4L8.45,-9.35L8.95,-8.6L8.4,-7.5L8.6,-7.1L8.65,-7.1L8.75,-6.5L8.75,-6.2L8.7,-5.7C8.633,-5.2 8.4,-4.767 8,-4.4L7.75,-4.15L7.75,-4.1L7.95,-3.8C8.417,-3.8 8.7,-3.633 8.8,-3.3L8.95,-3L9.05,-2.85L9.05,-2.6L9.1,-1.5L8.95,-0.85L8.65,-0.1L8.4,0.15L7.55,0.7L6.85,0.8L5.9,0.6L5.5,1.05L5.15,1.3C4.983,1.167 4.9,0.833 4.9,0.3L4.95,-0.2L4.85,-0.35L4.05,-0.2L4.05,0.5L3.85,1.55L4.1,2.85L4.1,3.25L3.65,4.8L2.8,3.45L2.65,3.55L2.65,3.65L2.55,4.25L2.5,4.45L3.85,6.1L4.55,6.15C4.617,5.983 4.717,5.917 4.85,5.95L5.05,6.05L5.45,6.05L6.15,6.5L6.5,7L5.4,7.45L5.4,7.5L5.5,7.9L5.45,8.3C5.65,8.8 5.667,9.267 5.5,9.7L4.45,9.15L3.7,9.05L3.45,8.7L3.1,8.65L2.9,9.1L2.45,9.25L2.25,9.2L1.05,9.7L1,9C1.033,8.633 1.117,8.3 1.25,8L1.25,7.45C1.317,7.183 1.45,7.05 1.65,7.05L2.05,6.65L0.9,5.15L0.6,4.9L-0.2,4.95L-0.55,4.95L-1.45,4.8L-1.95,5.65L-2.3,6.7L-2.65,7.25L-2.65,7.3L-1.75,9L-1.05,9.05C-0.983,8.883 -0.883,8.817 -0.75,8.85L-0.55,8.95L-0.15,8.95L0.6,9.4L0.9,9.9L-0.2,10.35L-0.2,10.4L-0.1,10.75L-0.15,11.15C0.083,11.65 0.1,12.117 -0.1,12.55L-1.15,12L-1.9,11.9L-2.15,11.6L-2.15,11.55L-2.5,11.55L-2.7,12L-3.15,12.15L-3.4,12.1L-4.55,12.6L-4.6,11.85L-4.35,10.9L-4.35,10.35C-4.283,10.083 -4.15,9.933 -3.95,9.9L-3.9,9.9L-3.45,9.5L-4.45,7.4C-4.85,6.867 -4.9,6.35 -4.6,5.85L-3.55,4.9L-3.15,3.95L-4.2,3.05L-4.8,2.3L-5.4,1.35L-5.6,1.55L-5.6,1.5L-5.65,1.55L-5.65,1.35L-6.25,-0.4C-7.15,-0.167 -7.95,0.35 -8.65,1.15L-8.7,1.15L-8.25,-0.4L-8.2,-0.4L-8.2,-0.45L-6.95,-2.75L-7,-2.8L-6.55,-3.4L-6.45,-3.6L-6.4,-3.65L-5.85,-3.95L-5.85,-3.9L-5.1,-4.2L-4.9,-5.95C-5.3,-6.517 -5.8,-7.017 -6.4,-7.45L-6.8,-5.45L-7.15,-5.85L-7.9,-7.15L-8.2,-7.8L-8.55,-8.35L-8.8,-8.9L-9,-9.25L-9.05,-9.3L-9.05,-9.35L-9.1,-9.45L-8.85,-9.65L-8.6,-9.75L-8.55,-9.75L-8.2,-9.85L-7.35,-10.05L-5.75,-10.35L-5.5,-10.25L-5.75,-9.45L-5.8,-9.35L-6.05,-8.75L-6,-8.75L-5,-8.6L-4.6,-8.55L-4.25,-9L-3.4,-9.3L-3.1,-9.45L-2.95,-9.45C-2.383,-10.583 -1.517,-11.65 -0.35,-12.65L-0.3,-12.6L-0.3,-12.65C1.167,-12.75 2.533,-12.483 3.8,-11.85L4.3,-11.6L4.5,-11.45L4.9,-11.2L5.95,-11.15L6.1,-11.05L6.3,-10.95M-1.6,-7.4L-1.75,-7.1L-1.7,-6.85L-1.65,-6.55L-1.5,-6.9L-1.6,-7.4" style="fill:rgb(40,10,2);"/>
                    <path d="M6.3,-10.95L6.35,-10.9L7,-10.35L7.2,-10.4C7.533,-10.433 7.783,-10.3 7.95,-10L8.45,-9.4L8.45,-9.35L8.95,-8.6L8.4,-7.5L8.6,-7.1L8.65,-7.1L8.75,-6.5L8.75,-6.2L8.7,-5.7C8.633,-5.2 8.4,-4.767 8,-4.4L7.75,-4.15L7.75,-4.1L7.95,-3.8C8.417,-3.8 8.7,-3.633 8.8,-3.3L8.95,-3L9.05,-2.85L9.05,-2.6L9.1,-1.5L8.95,-0.85L8.65,-0.1L8.4,0.15L7.55,0.7L6.85,0.8L5.9,0.6L5.5,1.05L5.15,1.3C4.983,1.167 4.9,0.833 4.9,0.3L4.95,-0.2L4.85,-0.35L4.05,-0.2L4.05,0.5L3.85,1.55L4.1,2.85L4.1,3.25L3.65,4.8L2.8,3.45L2.65,3.55L2.65,3.65L2.55,4.25L2.5,4.45L3.85,6.1L4.55,6.15C4.617,5.983 4.717,5.917 4.85,5.95L5.05,6.05L5.45,6.05L6.15,6.5L6.5,7L5.4,7.45L5.4,7.5L5.5,7.9L5.45,8.3C5.65,8.8 5.667,9.267 5.5,9.7L4.45,9.15L3.7,9.05L3.45,8.7L3.1,8.65L2.9,9.1L2.45,9.25L2.25,9.2L1.05,9.7L1,9C1.033,8.633 1.117,8.3 1.25,8L1.25,7.45C1.317,7.183 1.45,7.05 1.65,7.05L2.05,6.65L0.9,5.15L0.6,4.9L-0.2,4.95L-0.55,4.95L-1.45,4.8L-1.95,5.65L-2.3,6.7L-2.65,7.25L-2.65,7.3L-1.75,9L-1.05,9.05C-0.983,8.883 -0.883,8.817 -0.75,8.85L-0.55,8.95L-0.15,8.95L0.6,9.4L0.9,9.9L-0.2,10.35L-0.2,10.4L-0.1,10.75L-0.15,11.15C0.083,11.65 0.1,12.117 -0.1,12.55L-1.15,12L-1.9,11.9L-2.15,11.6L-2.15,11.55L-2.5,11.55L-2.7,12L-3.15,12.15L-3.4,12.1L-4.55,12.6L-4.6,11.85L-4.35,10.9L-4.35,10.35C-4.283,10.083 -4.15,9.933 -3.95,9.9L-3.9,9.9L-3.45,9.5L-4.45,7.4C-4.85,6.867 -4.9,6.35 -4.6,5.85L-3.55,4.9L-3.15,3.95L-4.2,3.05L-4.8,2.3L-5.4,1.35L-5.6,1.55L-5.6,1.5L-5.65,1.55L-5.65,1.35L-6.25,-0.4C-7.15,-0.167 -7.95,0.35 -8.65,1.15L-8.7,1.15L-8.25,-0.4L-8.2,-0.4L-8.2,-0.45L-6.95,-2.75L-7,-2.8L-6.55,-3.4L-6.45,-3.6L-6.4,-3.65L-5.85,-3.95L-5.85,-3.9L-5.1,-4.2L-4.9,-5.95C-5.3,-6.517 -5.8,-7.017 -6.4,-7.45L-6.8,-5.45L-7.15,-5.85L-7.9,-7.15L-8.2,-7.8L-8.55,-8.35L-8.8,-8.9L-9,-9.25L-9.05,-9.3L-9.05,-9.35L-9.1,-9.45L-8.85,-9.65L-8.6,-9.75L-8.55,-9.75L-8.2,-9.85L-7.35,-10.05L-5.75,-10.35L-5.5,-10.25L-5.75,-9.45L-5.8,-9.35L-6.05,-8.75L-6,-8.75L-5,-8.6L-4.6,-8.55L-4.25,-9L-3.4,-9.3L-3.1,-9.45L-2.95,-9.45C-2.383,-10.583 -1.517,-11.65 -0.35,-12.65L-0.3,-12.6L-0.3,-12.65C1.167,-12.75 2.533,-12.483 3.8,-11.85L4.3,-11.6L4.5,-11.45L4.9,-11.2L5.95,-11.15L6.1,-11.05L6.3,-10.95M-1.6,-7.4L-1.5,-6.9L-1.65,-6.55L-1.7,-6.85L-1.75,-7.1L-1.6,-7.4Z" style="fill:none;fill-rule:nonzero;stroke:rgb(40,10,2);stroke-width:1px;"/>
                </g>
                <g id="sprite2" transform="matrix(0.4,0,0,0.4,0.5001,9.6503)">
                    <g id="sprite1">
                        <g id="sprite21" serif:id="sprite2">
                            <g id="sprite3" transform="matrix(0.5099,0,0,0.5099,8.09934,-9.2)">
                                <g id="shape1">
                                    <path d="M11.85,2.75L13.5,5.2L7.9,7.3L5.6,0.55L6.8,0.45L8.25,0.6C9.583,0.867 10.783,1.583 11.85,2.75" style="fill:rgb(65,47,28);"/>
                                    <path d="M11.85,2.75L13.5,5.2L7.9,7.3L5.6,0.55L6.8,0.45L8.25,0.6C9.583,0.867 10.783,1.583 11.85,2.75Z" style="fill:none;fill-rule:nonzero;stroke:black;stroke-opacity:0.3;stroke-width:0.05px;"/>
                                    <path d="M4.6,7.1C4.033,6.1 3.7,5.017 3.6,3.85C3.433,2.583 3.533,1.6 3.9,0.9C4.233,0.133 4.733,-0.15 5.4,0.05C6,0.217 6.567,0.8 7.1,1.8C7.6,2.733 7.95,3.833 8.15,5.1C8.217,6.267 8.1,7.233 7.8,8C7.4,8.733 6.9,9.017 6.3,8.85C5.667,8.65 5.1,8.067 4.6,7.1" style="fill:rgb(163,25,28);"/>
                                    <path d="M4.6,7.1C4.033,6.1 3.7,5.017 3.6,3.85C3.433,2.583 3.533,1.6 3.9,0.9C4.233,0.133 4.733,-0.15 5.4,0.05C6,0.217 6.567,0.8 7.1,1.8C7.6,2.733 7.95,3.833 8.15,5.1C8.217,6.267 8.1,7.233 7.8,8C7.4,8.733 6.9,9.017 6.3,8.85C5.667,8.65 5.1,8.067 4.6,7.1Z" style="fill:none;fill-rule:nonzero;stroke:black;stroke-opacity:0.3;stroke-width:0.05px;"/>
                                    <path d="M6.5,4.55L6.8,5.7L7.75,13.85C1.817,13.783 -4.333,13.183 -10.7,12.05L-10.7,5.95L-4.85,0L4.5,1.1L5.15,1.8C5.717,2.6 6.167,3.517 6.5,4.55" style="fill:rgb(163,25,28);"/>
                                    <path d="M6.5,4.55L6.8,5.7L7.75,13.85C1.817,13.783 -4.333,13.183 -10.7,12.05L-10.7,5.95L-4.85,0L4.5,1.1L5.15,1.8" style="fill:none;fill-rule:nonzero;stroke:black;stroke-opacity:0.3;stroke-width:0.05px;"/>
                                    <path d="M7.7,7.15C8.233,7.75 8.517,8.517 8.55,9.45C8.517,10.75 8.017,12 7.05,13.2C6.05,14.4 4.85,15.2 3.45,15.6C2.017,15.967 0.783,15.817 -0.25,15.15C-0.883,14.717 -1.317,14.15 -1.55,13.45L-1.7,12.2C-1.767,11.5 -1.667,10.85 -1.4,10.25C-1.167,9.583 -0.8,8.967 -0.3,8.4C0.7,7.2 1.9,6.4 3.3,6L5,5.8C5.7,5.833 6.35,6.05 6.95,6.45L7.7,7.15" style="fill:rgb(163,25,28);"/>
                                    <path d="M7.7,7.15C8.233,7.75 8.517,8.517 8.55,9.45C8.517,10.75 8.017,12 7.05,13.2C6.05,14.4 4.85,15.2 3.45,15.6C2.017,15.967 0.783,15.817 -0.25,15.15C-0.883,14.717 -1.317,14.15 -1.55,13.45M-1.4,10.25C-1.167,9.583 -0.8,8.967 -0.3,8.4C0.7,7.2 1.9,6.4 3.3,6L5,5.8" style="fill:none;fill-rule:nonzero;stroke:black;stroke-opacity:0.3;stroke-width:0.05px;"/>
                                    <path d="M0.7,13.05C1.767,9.017 3.9,7.8 7.1,9.4C9.233,12.633 9.7,15.617 8.5,18.35C6,17.65 3.4,15.883 0.7,13.05" style="fill:rgb(65,47,28);"/>
                                    <path d="M0.7,13.05C1.767,9.017 3.9,7.8 7.1,9.4C9.233,12.633 9.7,15.617 8.5,18.35C6,17.65 3.4,15.883 0.7,13.05Z" style="fill:none;fill-rule:nonzero;stroke:black;stroke-opacity:0.3;stroke-width:0.05px;"/>
                                    <path d="M-7.6,5.75C-6.6,6.217 -5.667,7.05 -4.8,8.25L-3.95,9.7L-3.6,10.55L-3.35,11.25C-3.25,11.75 -3.2,12.233 -3.2,12.7C-3.167,13.933 -3.483,14.883 -4.15,15.55C-4.75,16.083 -5.517,16.317 -6.45,16.25C-7.383,16.15 -8.3,15.733 -9.2,15C-10.267,14.167 -11.1,13.1 -11.7,11.8C-12.467,10.167 -12.667,8.7 -12.3,7.4C-11.933,6.133 -11.233,5.433 -10.2,5.3L-9.2,5.3L-8.1,5.55L-7.6,5.75" style="fill:rgb(163,25,28);"/>
                                    <path d="M-7.6,5.75C-6.6,6.217 -5.667,7.05 -4.8,8.25M-3.35,11.25C-3.25,11.75 -3.2,12.233 -3.2,12.7C-3.167,13.933 -3.483,14.883 -4.15,15.55C-4.75,16.083 -5.517,16.317 -6.45,16.25C-7.383,16.15 -8.3,15.733 -9.2,15C-10.267,14.167 -11.1,13.1 -11.7,11.8C-12.467,10.167 -12.667,8.7 -12.3,7.4C-11.933,6.133 -11.233,5.433 -10.2,5.3" style="fill:none;fill-rule:nonzero;stroke:black;stroke-opacity:0.3;stroke-width:0.05px;"/>
                                    <path d="M-13.5,14.9C-13.4,13.133 -12.967,11.533 -12.2,10.1L-11.55,9.1L-11.55,9.05C-8.283,8.483 -6.283,10.5 -5.55,15.1L-13.3,18.45C-13.5,17.217 -13.567,16.033 -13.5,14.9" style="fill:rgb(65,47,28);"/>
                                    <path d="M-13.5,14.9C-13.4,13.133 -12.967,11.533 -12.2,10.1L-11.55,9.1L-11.55,9.05C-8.283,8.483 -6.283,10.5 -5.55,15.1L-13.3,18.45C-13.5,17.217 -13.567,16.033 -13.5,14.9Z" style="fill:none;fill-rule:nonzero;stroke:black;stroke-opacity:0.3;stroke-width:0.05px;"/>
                                </g>
                            </g>
                            <g id="sprite4" transform="matrix(0.5099,0,0,0.5099,4.5496,-14.5)">
                                <g id="shape2">
                                    <path d="M-7.95,5.2C-8.55,0.5 -6.233,-1 -1,0.7L8.05,11.4C6.883,14.633 4.117,15.85 -0.25,15.05L-7.95,5.2" style="fill:rgb(163,25,28);"/>
                                    <path d="M-1,0.7L8.05,11.4M-0.25,15.05L-7.95,5.2" style="fill:none;fill-rule:nonzero;stroke:black;stroke-opacity:0.3;stroke-width:0.05px;"/>
                                </g>
                            </g>
                            <g id="sprite5" transform="matrix(0.5099,0,0,0.5099,2.34967,-23.9)">
                                <g id="shape3">
                                    <path d="M-0.8,25.5L-2.2,25.05C-5.333,23.283 -6.65,20.883 -6.15,17.85C-5.85,15.983 -4.867,13.867 -3.2,11.5L-3.1,1.55C0,-1.05 3.117,-0.4 6.25,3.5L5.3,11.95C5.767,13.95 5.95,15.8 5.85,17.5L5.3,20.35L4.85,21.55L4.3,22.65C3,24.95 1.3,25.9 -0.8,25.5" style="fill:rgb(163,25,28);"/>
                                    <path d="M4.3,22.65L4.85,21.55L5.3,20.35L5.85,17.5C5.95,15.8 5.767,13.95 5.3,11.95L6.25,3.5C3.117,-0.4 0,-1.05 -3.1,1.55L-3.2,11.5C-4.867,13.867 -5.85,15.983 -6.15,17.85C-6.65,20.883 -5.333,23.283 -2.2,25.05L-0.8,25.5" style="fill:none;fill-rule:nonzero;stroke:black;stroke-opacity:0.3;stroke-width:0.05px;"/>
                                </g>
                            </g>
                            <g id="sprite6" transform="matrix(0.5099,0,0,0.5099,-3.65088,-31.2507)">
                                <g id="shape4">
                                    <path d="M9,-12.55C11.233,-14.417 14.15,-14.9 17.75,-14C16.45,-12.133 15.333,-10.067 14.4,-7.8L9,-12.55" style="fill:rgb(163,25,28);"/>
                                    <path d="M9,-12.55C11.233,-14.417 14.15,-14.9 17.75,-14C16.45,-12.133 15.333,-10.067 14.4,-7.8L9,-12.55Z" style="fill:none;fill-rule:nonzero;stroke:black;stroke-opacity:0.3;stroke-width:0.05px;"/>
                                    <path d="M12.1,-8.15C11.9,-9.583 10.85,-10.6 8.95,-11.2C10.85,-10.6 11.9,-9.583 12.1,-8.15M11.4,14C11.7,9.833 9.767,9.2 5.6,12.1C4.833,12.233 4.45,11.917 4.45,11.15C5.217,5.45 2.033,5.783 -5.1,12.15C-1.467,2.617 -5.083,1.733 -15.95,9.5L-17.8,10.9C-10.767,-1.967 -2.317,-9.633 7.55,-12.1C7.883,-13.3 9.033,-13.633 11,-13.1C13.033,-12.5 14.417,-11.433 15.15,-9.9C16.15,-8.333 15.733,-7.167 13.9,-6.4C9.7,0.1 9.55,3.35 13.45,3.35C17.317,3.317 17.983,4.467 15.45,6.8C14.783,8.3 15.117,9.75 16.45,11.15C15.05,14.117 13.367,15.067 11.4,14" style="fill:url(#_Radial1);"/>
                                    <path d="M8.95,-11.2C10.85,-10.6 11.9,-9.583 12.1,-8.15M16.45,11.15C15.117,9.75 14.783,8.3 15.45,6.8C17.983,4.467 17.317,3.317 13.45,3.35C9.55,3.35 9.7,0.1 13.9,-6.4C15.733,-7.167 16.15,-8.333 15.15,-9.9C14.417,-11.433 13.033,-12.5 11,-13.1C9.033,-13.633 7.883,-13.3 7.55,-12.1C-2.317,-9.633 -10.767,-1.967 -17.8,10.9L-15.95,9.5C-5.083,1.733 -1.467,2.617 -5.1,12.15C2.033,5.783 5.217,5.45 4.45,11.15C4.45,11.917 4.833,12.233 5.6,12.1C9.767,9.2 11.7,9.833 11.4,14" style="fill:none;fill-rule:nonzero;stroke:black;stroke-opacity:0.3;stroke-width:0.05px;"/>
                                    <path d="M13.95,11.4C13.35,11.8 12.55,12.05 11.55,12.15C10.983,10.15 9.117,10.317 5.95,12.65C5.183,12.783 4.783,12.467 4.75,11.7C5.55,6 2.383,6.333 -4.75,12.7C-1.117,3.133 -4.717,2.233 -15.55,10C-11.25,4.7 -7.167,1.283 -3.3,-0.25C-0.667,-0.85 3.05,1.967 7.85,8.2C9.117,9.833 11.15,10.9 13.95,11.4" style="fill:url(#_Radial2);"/>
                                    <path d="M9.25,-10.9C11.15,-10.3 12.2,-9.267 12.4,-7.8C10.6,-6.433 9,-5.933 7.6,-6.3C7,-7.3 7.55,-8.833 9.25,-10.9" style="fill:url(#_Radial3);"/>
                                </g>
                            </g>
                            <g id="sprite7" transform="matrix(0.5099,0,0,0.5099,-4.6011,-23.1013)">
                                <g id="shape5">
                                    <path d="M-5.1,-22.3C-3.067,-22.267 -0.917,-21.85 1.35,-21.05C2.717,-20.683 4.067,-20.167 5.4,-19.5L6.6,-18.85C8.867,-17.617 10.983,-16.067 12.95,-14.2L14.65,-12.35C18.45,-8.05 20.8,-3.3 21.7,1.9L21.8,2.6L21.25,3.3C18.05,7.3 13.75,9.3 8.35,9.3L6.55,9.25L6.4,9.25C-2.567,-1.283 -6.4,-11.8 -5.1,-22.3M6.6,-18.85L5.65,-18.85L6.6,-18.85" style="fill:rgb(215,192,154);"/>
                                    <path d="M21.8,2.6L22,6.35L21.95,7.7L21.9,8.1C21.467,11.133 20.333,13.85 18.5,16.25C15.3,20.25 11,22.25 5.6,22.25L3.8,22.2C-3.467,21.433 -9.75,17.983 -15.05,11.85C-19.717,6.45 -22.033,0.8 -22,-5.1L-21.85,-7.55C-21.617,-10.783 -20.717,-13.517 -19.15,-15.75L-19.05,-15.15L-18.95,-16C-17.617,-17.833 -15.817,-19.3 -13.55,-20.4C-11.717,-21.4 -9.717,-22 -7.55,-22.2L-6.15,-22.3L-5.1,-22.3C-6.4,-11.8 -2.567,-1.283 6.4,9.25L6.55,9.25L8.35,9.3C13.75,9.3 18.05,7.3 21.25,3.3L21.8,2.6" style="fill:rgb(199,168,134);"/>
                                    <path d="M-19.15,-15.75L-18.95,-16L-19.05,-15.15L-19.15,-15.75" style="fill:rgb(177,144,111);"/>
                                    <path d="M8.4,-26.1L9.35,-26.1M-5.1,-22.3C-3.067,-22.267 -0.917,-21.85 1.35,-21.05C2.717,-20.683 4.067,-20.167 5.4,-19.5L6.6,-18.85C8.867,-17.617 10.983,-16.067 12.95,-14.2L14.65,-12.35C18.45,-8.05 20.8,-3.3 21.7,1.9L21.8,2.6L22,6.35L21.95,7.7L21.9,8.1C21.467,11.133 20.333,13.85 18.5,16.25C15.3,20.25 11,22.25 5.6,22.25L3.8,22.2C-3.467,21.433 -9.75,17.983 -15.05,11.85C-19.717,6.45 -22.033,0.8 -22,-5.1L-21.85,-7.55C-21.617,-10.783 -20.717,-13.517 -19.15,-15.75L-18.95,-16C-17.617,-17.833 -15.817,-19.3 -13.55,-20.4C-11.717,-21.4 -9.717,-22 -7.55,-22.2L-6.15,-22.3L-5.1,-22.3M5.65,-18.85L6.6,-18.85" style="fill:none;fill-rule:nonzero;stroke:black;stroke-opacity:0.3;stroke-width:0.05px;"/>
                                    <path d="M12.25,-14.95C6.217,-12.883 0.85,-10.333 -3.85,-7.3C-3.25,-11.333 0.1,-15.383 6.2,-19.45C9.467,-17.95 11.483,-16.45 12.25,-14.95" style="fill:rgb(247,71,66);"/>
                                    <path d="M-14,12.9C-15.667,11.4 -17.167,9.383 -18.5,6.85C-16.033,3.183 -13.167,0.717 -9.9,-0.55C-12.333,2.883 -13.7,7.367 -14,12.9" style="fill:rgb(163,25,28);"/>
                                </g>
                            </g>
                            <g id="sprite8" transform="matrix(0.5099,0,0,0.5099,-13.151,-49.95)">
                                <g id="sprite9" transform="matrix(1,0,0,1,8.5,27.65)">
                                    <g id="shape6">
                                        <path d="M4.85,-14.7C5.417,-13.8 5.9,-12.4 6.3,-10.5L6.8,-7.2L7.05,-4.1C7.25,-0.833 9.183,2.85 12.85,6.95C8.917,10.45 5.917,12.6 3.85,13.4C-1.117,7.5 -4.217,-0.983 -5.45,-12.05C-2.883,-15.417 0.55,-16.3 4.85,-14.7" style="fill:rgb(215,192,154);"/>
                                        <path d="M-5.45,-12.05C-4.217,-0.983 -1.117,7.5 3.85,13.4C-2.95,16.067 -8.5,15.95 -12.8,13.05C-10.8,6.05 -9.65,-0.417 -9.35,-6.35L-9.05,-7.2C-8.117,-9.667 -6.917,-11.283 -5.45,-12.05" style="fill:rgb(199,167,133);"/>
                                        <path d="M12.85,6.95C9.183,2.85 7.25,-0.833 7.05,-4.1L6.8,-7.2L6.3,-10.5C5.9,-12.4 5.417,-13.8 4.85,-14.7M-9.35,-6.35C-9.65,-0.417 -10.8,6.05 -12.8,13.05" style="fill:none;fill-rule:nonzero;stroke:black;stroke-opacity:0.3;stroke-width:0.05px;"/>
                                        <path d="M-4.35,-4.6C0.083,-5.567 3.633,-7.533 6.3,-10.5L7.05,-4.1C3.583,-2.433 -0.133,-2.267 -4.1,-3.6L-4.35,-4.6" style="fill:rgb(247,71,66);"/>
                                        <path d="M-4.35,-4.6L-4.1,-3.6L-5.9,-4.3L-4.35,-4.6" style="fill:rgb(202,32,34);"/>
                                    </g>
                                </g>
                                <g id="sprite10" transform="matrix(1,0,0,1,-4,11.95)">
                                    <g id="shape7">
                                        <path d="M-17.15,-7L-17.35,-7.5C-17.517,-7.8 -17.117,-8.15 -16.15,-8.55L-14.9,-9L-14.6,-9.1L-13.1,-9.55L-8.75,-10.65C-4.95,-11.483 -2.35,-11.917 -0.95,-11.95C-0.05,-11.983 0.367,-11.85 0.3,-11.55C0.1,-10.55 -0.317,-9.217 -0.95,-7.55L-1.15,-7L-17.15,-7M-13.1,0.5L-14.6,-2.15L-16.95,-6.55L-17,-6.65L-17.1,-6.9L-13.1,0.5" style="fill:rgb(247,71,66);"/>
                                        <path d="M-1.15,-7L-3.7,-1.3L-3.95,0.6C-5.017,8.2 -5.75,11.983 -6.15,11.95C-6.417,12.117 -6.95,11.5 -7.75,10.1L-11.4,3.7L-13.1,0.5L-17.1,-6.9L-17.15,-7L-1.15,-7" style="fill:rgb(202,32,34);"/>
                                        <path d="M-17.15,-7L-17.35,-7.5C-17.517,-7.8 -17.117,-8.15 -16.15,-8.55L-14.9,-9L-14.6,-9.1L-13.1,-9.55L-8.75,-10.65C-4.95,-11.483 -2.35,-11.917 -0.95,-11.95C-0.05,-11.983 0.367,-11.85 0.3,-11.55C0.1,-10.55 -0.317,-9.217 -0.95,-7.55L-1.15,-7L-3.7,-1.3L-3.95,0.6C-5.017,8.2 -5.75,11.983 -6.15,11.95C-6.417,12.117 -6.95,11.5 -7.75,10.1L-11.4,3.7L-13.1,0.5L-14.6,-2.15L-16.95,-6.55L-17,-6.65L-17.1,-6.9L-17.15,-7Z" style="fill:none;fill-rule:nonzero;stroke:black;stroke-opacity:0.3;stroke-width:0.05px;"/>
                                        <path d="M-4.5,-4.05L-2.3,-4.2L2.8,-3.5L9.2,-2.2C12.5,-1.333 15.217,-0.267 17.35,1C16.383,4.8 13.25,7.55 7.95,9.25C5.183,2.583 1.033,-1.85 -4.5,-4.05" style="fill:rgb(235,220,189);"/>
                                        <path d="M-4.5,-4.05C1.033,-1.85 5.183,2.583 7.95,9.25C7.883,9.75 6.417,9.967 3.55,9.9C1.183,6.733 -1.717,3.917 -5.15,1.45C-6.75,0.35 -7.567,-0.75 -7.6,-1.85C-7.367,-3.017 -6.333,-3.75 -4.5,-4.05" style="fill:rgb(199,168,134);"/>
                                        <path d="M17.35,1C15.217,-0.267 12.5,-1.333 9.2,-2.2L2.8,-3.5L-2.3,-4.2L-4.5,-4.05C-6.333,-3.75 -7.367,-3.017 -7.6,-1.85C-7.567,-0.75 -6.75,0.35 -5.15,1.45C-1.717,3.917 1.183,6.733 3.55,9.9" style="fill:none;fill-rule:nonzero;stroke:black;stroke-opacity:0.3;stroke-width:0.05px;"/>
                                        <path d="M0.7,-1.05L2.8,-3.5L9.2,-2.2C6.7,-1.167 4.55,-0.15 2.75,0.85L0.7,-1.05" style="fill:rgb(247,71,66);"/>
                                        <path d="M0.7,-1.05L2.75,0.85C1.317,1.583 0.1,2.3 -0.9,3C-0.633,1.533 -0.1,0.183 0.7,-1.05" style="fill:rgb(202,32,34);"/>
                                    </g>
                                </g>
                            </g>
                            <g id="sprite11" transform="matrix(0.5099,0,0,0.5099,3.64942,-19.3007)">
                                <g id="shape8">
                                    <path d="M10.4,-10.8L10.4,-9.1L10.25,-7C9.85,-2.9 8.75,0.617 6.95,3.55C5.517,5.817 3.467,8.033 0.8,10.2C-5.7,9.533 -9.433,7.183 -10.4,3.15C-10.433,2.983 -10.917,2.35 -11.85,1.25L-11.5,1.15C-7.2,-0.483 -4.233,-2.333 -2.6,-4.4L-4.35,-7.7L-1.9,-11.7L-1.85,-11.7C2.983,-14.933 7.067,-14.633 10.4,-10.8" style="fill:rgb(199,168,134);"/>
                                    <path d="M-11.5,1.15C-10.967,0.817 -10.6,0.117 -10.4,-0.95C-10.067,-2.65 -9.417,-4.567 -8.45,-6.7L-4.4,-7.7L-4.35,-7.7L-2.6,-4.4C-4.233,-2.333 -7.2,-0.483 -11.5,1.15" style="fill:rgb(215,192,154);"/>
                                    <path d="M10.4,-10.8L10.4,-9.1L10.25,-7C9.85,-2.9 8.75,0.617 6.95,3.55C5.517,5.817 3.467,8.033 0.8,10.2M-8.45,-6.7L-4.4,-7.7L-4.35,-7.7L-1.9,-11.7" style="fill:none;fill-rule:nonzero;stroke:black;stroke-opacity:0.3;stroke-width:0.05px;"/>
                                    <path d="M9.15,-2.2C6.817,-1.667 5.6,0.283 5.5,3.65L9.3,10.75C10.067,8.617 10.517,6.6 10.65,4.7L10.65,4.75C10.617,7.583 9.883,10.633 8.45,13.9L2.65,5.05C2.783,0.55 4.933,-1.9 9.1,-2.3L9.15,-2.2" style="fill:rgb(163,25,28);"/>
                                    <path d="M9.15,-2.2L9.2,-2.15L10.65,4.35L10.65,4.7C10.517,6.6 10.067,8.617 9.3,10.75L5.5,3.65C5.6,0.283 6.817,-1.667 9.15,-2.2" style="fill:rgb(247,71,66);"/>
                                    <path d="M10.65,4.7L10.65,4.35L9.2,-2.15M9.15,-2.2L9.1,-2.3C4.933,-1.9 2.783,0.55 2.65,5.05L8.45,13.9C9.883,10.633 10.617,7.583 10.65,4.75L10.65,4.7" style="fill:none;fill-rule:nonzero;stroke:black;stroke-opacity:0.3;stroke-width:0.05px;"/>
                                </g>
                            </g>
                            <g id="sprite12" transform="matrix(0.5099,0,0,0.5099,-5.85065,-1.95)">
                                <g id="sprite13" transform="matrix(1,0,0,1,8.5,4.45)">
                                    <g id="shape9">
                                        <path d="M-1.7,-4L-0.25,-3.85C1.083,-3.583 2.283,-2.867 3.35,-1.7L5,0.75L-0.6,2.85L-2.9,-3.9L-1.7,-4" style="fill:rgb(77,55,33);"/>
                                        <path d="M-1.7,-4L-0.25,-3.85C1.083,-3.583 2.283,-2.867 3.35,-1.7L5,0.75L-0.6,2.85L-2.9,-3.9L-1.7,-4Z" style="fill:none;fill-rule:nonzero;stroke:black;stroke-opacity:0.3;stroke-width:0.05px;"/>
                                        <path d="M-1.4,-2.65C-0.9,-1.717 -0.55,-0.617 -0.35,0.65C-0.283,1.817 -0.4,2.783 -0.7,3.55C-1.1,4.283 -1.6,4.567 -2.2,4.4C-2.833,4.2 -3.4,3.617 -3.9,2.65C-4.467,1.65 -4.8,0.567 -4.9,-0.6C-5.067,-1.867 -4.967,-2.85 -4.6,-3.55C-4.267,-4.317 -3.767,-4.6 -3.1,-4.4C-2.5,-4.233 -1.933,-3.65 -1.4,-2.65" style="fill:rgb(163,25,28);"/>
                                        <path d="M-1.4,-2.65C-0.9,-1.717 -0.55,-0.617 -0.35,0.65C-0.283,1.817 -0.4,2.783 -0.7,3.55C-1.1,4.283 -1.6,4.567 -2.2,4.4C-2.833,4.2 -3.4,3.617 -3.9,2.65C-4.467,1.65 -4.8,0.567 -4.9,-0.6C-5.067,-1.867 -4.967,-2.85 -4.6,-3.55C-4.267,-4.317 -3.767,-4.6 -3.1,-4.4C-2.5,-4.233 -1.933,-3.65 -1.4,-2.65Z" style="fill:none;fill-rule:nonzero;stroke:black;stroke-opacity:0.3;stroke-width:0.05px;"/>
                                    </g>
                                </g>
                                <g id="sprite14" transform="matrix(1,0,0,1,-1.45,6.9)">
                                    <g id="shape10">
                                        <path d="M6.6,-5.1C7.167,-4.3 7.617,-3.383 7.95,-2.35L8.25,-1.2L9.2,6.95C3.267,6.883 -2.883,6.283 -9.25,5.15L-9.25,-0.95L-3.4,-6.9L5.95,-5.8L6.6,-5.1" style="fill:rgb(163,25,28);"/>
                                        <path d="M7.95,-2.35L8.25,-1.2L9.2,6.95C3.267,6.883 -2.883,6.283 -9.25,5.15L-9.25,-0.95L-3.4,-6.9L5.95,-5.8L6.6,-5.1" style="fill:none;fill-rule:nonzero;stroke:black;stroke-opacity:0.3;stroke-width:0.05px;"/>
                                    </g>
                                </g>
                                <g id="sprite15" transform="matrix(1,0,0,1,3.7,12.1)">
                                    <g id="shape11">
                                        <path d="M1.3,-6.3C2,-6.267 2.65,-6.05 3.25,-5.65L4,-4.95C4.533,-4.35 4.817,-3.583 4.85,-2.65C4.817,-1.35 4.317,-0.1 3.35,1.1C2.35,2.3 1.15,3.1 -0.25,3.5C-1.683,3.867 -2.917,3.717 -3.95,3.05C-4.583,2.617 -5.017,2.05 -5.25,1.35L-5.4,0.1C-5.467,-0.6 -5.367,-1.25 -5.1,-1.85C-4.867,-2.517 -4.5,-3.133 -4,-3.7C-3,-4.9 -1.8,-5.7 -0.4,-6.1L1.3,-6.3" style="fill:rgb(163,25,28);"/>
                                        <path d="M4,-4.95C4.533,-4.35 4.817,-3.583 4.85,-2.65C4.817,-1.35 4.317,-0.1 3.35,1.1C2.35,2.3 1.15,3.1 -0.25,3.5C-1.683,3.867 -2.917,3.717 -3.95,3.05C-4.583,2.617 -5.017,2.05 -5.25,1.35M-5.1,-1.85C-4.867,-2.517 -4.5,-3.133 -4,-3.7C-3,-4.9 -1.8,-5.7 -0.4,-6.1L1.3,-6.3" style="fill:none;fill-rule:nonzero;stroke:black;stroke-opacity:0.3;stroke-width:0.05px;"/>
                                        <path d="M-3,0.95C-1.933,-3.083 0.2,-4.3 3.4,-2.7C5.533,0.533 6,3.517 4.8,6.25C2.3,5.55 -0.3,3.783 -3,0.95" style="fill:rgb(77,55,33);"/>
                                        <path d="M-3,0.95C-1.933,-3.083 0.2,-4.3 3.4,-2.7C5.533,0.533 6,3.517 4.8,6.25C2.3,5.55 -0.3,3.783 -3,0.95Z" style="fill:none;fill-rule:nonzero;stroke:black;stroke-opacity:0.3;stroke-width:0.05px;"/>
                                    </g>
                                </g>
                                <g id="sprite16" transform="matrix(1,0,0,1,-8.35,11.85)">
                                    <g id="shape12">
                                        <path d="M-1.85,-6.55L-0.85,-6.55L0.25,-6.3L0.75,-6.1C1.75,-5.633 2.683,-4.8 3.55,-3.6L4.4,-2.15L4.75,-1.3L5,-0.6L5.15,0.85C5.183,2.083 4.867,3.033 4.2,3.7C3.6,4.233 2.833,4.467 1.9,4.4C0.967,4.3 0.05,3.883 -0.85,3.15C-1.917,2.317 -2.75,1.25 -3.35,-0.05C-4.117,-1.683 -4.317,-3.15 -3.95,-4.45C-3.583,-5.717 -2.883,-6.417 -1.85,-6.55" style="fill:rgb(163,25,28);"/>
                                        <path d="M0.75,-6.1C1.75,-5.633 2.683,-4.8 3.55,-3.6M5,-0.6L5.15,0.85C5.183,2.083 4.867,3.033 4.2,3.7C3.6,4.233 2.833,4.467 1.9,4.4C0.967,4.3 0.05,3.883 -0.85,3.15C-1.917,2.317 -2.75,1.25 -3.35,-0.05C-4.117,-1.683 -4.317,-3.15 -3.95,-4.45C-3.583,-5.717 -2.883,-6.417 -1.85,-6.55" style="fill:none;fill-rule:nonzero;stroke:black;stroke-opacity:0.3;stroke-width:0.05px;"/>
                                        <path d="M-3.2,-2.75L-3.2,-2.8C0.067,-3.367 2.067,-1.35 2.8,3.25L-4.95,6.6C-5.15,5.367 -5.217,4.183 -5.15,3.05C-5.05,1.283 -4.617,-0.317 -3.85,-1.75L-3.2,-2.75" style="fill:rgb(77,55,33);"/>
                                        <path d="M-3.2,-2.75L-3.2,-2.8C0.067,-3.367 2.067,-1.35 2.8,3.25L-4.95,6.6C-5.15,5.367 -5.217,4.183 -5.15,3.05C-5.05,1.283 -4.617,-0.317 -3.85,-1.75L-3.2,-2.75Z" style="fill:none;fill-rule:nonzero;stroke:black;stroke-opacity:0.3;stroke-width:0.05px;"/>
                                    </g>
                                </g>
                            </g>
                            <g id="sprite17" transform="matrix(0.5099,0,0,0.5099,-9.05032,-8.3)">
                                <g id="shape13">
                                    <path d="M0.5,1.5L7.2,13.85C5.4,16.75 2.667,17.85 -1,17.15L-7.2,4.45C-6.833,-0.25 -4.267,-1.233 0.5,1.5" style="fill:rgb(163,25,28);"/>
                                    <path d="M0.5,1.5L7.2,13.85M-1,17.15L-7.2,4.45" style="fill:none;fill-rule:nonzero;stroke:black;stroke-opacity:0.3;stroke-width:0.05px;"/>
                                </g>
                            </g>
                            <g id="sprite18" transform="matrix(0.5099,0,0,0.5099,-8.6004,-16.75)">
                                <g id="shape14">
                                    <path d="M-8.05,14.2L-8,14.25C-5.133,17.85 -2.267,17.85 0.6,14.25L6.45,1.2C7.517,2.133 8.367,3.667 9,5.8L4.8,13.2C4.433,15.233 3.883,17 3.15,18.5L1.55,21L-0.25,22.7C-2.383,24.3 -4.333,24.5 -6.1,23.3L-7.2,22.35C-9.367,19.517 -9.65,16.8 -8.05,14.2" style="fill:rgb(163,25,28);"/>
                                    <path d="M6.45,1.2L0.6,14.25C-2.267,17.85 -5.133,17.85 -8,14.25L-8.05,14.2C-7.05,12.6 -5.317,11.033 -2.85,9.5L1.1,0.35C3.267,-0.317 5.05,-0.033 6.45,1.2" style="fill:rgb(247,71,66);"/>
                                    <path d="M6.45,1.2C5.05,-0.033 3.267,-0.317 1.1,0.35L-2.85,9.5C-5.317,11.033 -7.05,12.6 -8.05,14.2C-9.65,16.8 -9.367,19.517 -7.2,22.35L-6.1,23.3M-0.25,22.7L1.55,21L3.15,18.5C3.883,17 4.433,15.233 4.8,13.2L9,5.8C8.367,3.667 7.517,2.133 6.45,1.2" style="fill:none;fill-rule:nonzero;stroke:black;stroke-opacity:0.3;stroke-width:0.05px;"/>
                                </g>
                            </g>
                            <g id="sprite19" transform="matrix(0.5099,0,0,0.5099,-13.4509,-36.5)">
                                <g id="shape15">
                                    <path d="M-16.25,22.15C-14.15,17.583 -11.383,12.567 -7.95,7.1L-7.7,6.7L-7.7,6.65C-4.7,4.883 -1.35,3.517 2.35,2.55L2.55,1.4L4.65,0.3L6.1,0.65C8.333,1.25 10.167,2.45 11.6,4.25L12.9,6.25L12.9,8.7L12.75,8.85L11.65,9.6L10.9,12.4C10.6,13.667 10.483,14.817 10.55,15.85C10.683,19.483 12.85,21.383 17.05,21.55L18.05,23.9L15.4,26L12.65,24.9L8.9,26.45L8.55,26.5C7.783,24.333 6.4,22.3 4.4,20.4C2.1,21 -0.067,21.967 -2.1,23.3C-2.5,21.3 -3.333,19.083 -4.6,16.65L-4.6,16.6C-9.133,17.433 -12.983,19.283 -16.15,22.15L-16.25,22.15L-16.15,22.15L-16.25,22.2L-16.25,22.15" style="fill:rgb(235,220,189);"/>
                                    <path d="M-16.15,22.15C-12.983,19.283 -9.133,17.433 -4.6,16.6L-4.6,16.65C-3.333,19.083 -2.5,21.3 -2.1,23.3C-0.067,21.967 2.1,21 4.4,20.4C6.4,22.3 7.783,24.333 8.55,26.5L8.9,26.45L12.65,24.9L15.4,26L18.05,23.9L18.5,24.9L18.5,29.05L18.35,29.6L17.65,30.65C17.117,31.15 16.367,31.433 15.4,31.5C14.2,30.167 12.017,30.183 8.85,31.55C7.117,28.65 5.6,26.767 4.3,25.9C1.6,27.033 -1,28.983 -3.5,31.75C-4.367,27.85 -5.383,24.667 -6.55,22.2C-10.983,23.433 -14.967,25.967 -18.5,29.8L-18.55,29.85C-17.95,27.15 -17.233,24.65 -16.4,22.35L-16.25,22.2L-16.15,22.15" style="fill:rgb(199,168,134);"/>
                                    <path d="M18.05,23.9L17.05,21.55C12.85,21.383 10.683,19.483 10.55,15.85C10.483,14.817 10.6,13.667 10.9,12.4L11.65,9.6L12.75,8.85L12.9,8.7L12.9,6.25L11.6,4.25C10.167,2.45 8.333,1.25 6.1,0.65L4.65,0.3L2.55,1.4L2.35,2.55C-1.35,3.517 -4.7,4.883 -7.7,6.65L-7.7,6.7L-7.95,7.1C-11.383,12.567 -14.15,17.583 -16.25,22.15L-16.15,22.15M18.05,23.9L18.5,24.9L18.5,29.05M15.4,31.5C14.2,30.167 12.017,30.183 8.85,31.55C7.117,28.65 5.6,26.767 4.3,25.9C1.6,27.033 -1,28.983 -3.5,31.75C-4.367,27.85 -5.383,24.667 -6.55,22.2C-10.983,23.433 -14.967,25.967 -18.5,29.8L-18.55,29.85C-17.95,27.15 -17.233,24.65 -16.4,22.35M-16.25,22.2L-16.25,22.15" style="fill:none;fill-rule:nonzero;stroke:black;stroke-opacity:0.3;stroke-width:0.05px;"/>
                                    <path d="M17.4,30.7C16.9,31.2 16.167,31.467 15.2,31.5C13.7,29.9 11.517,30.067 8.65,32C7.783,32.1 7.217,31.7 6.95,30.8C5.783,23.933 2.233,24.25 -3.7,31.75C-3,20.217 -7.467,19.05 -17.1,28.25C-14.1,21.883 -10.65,17.817 -6.75,16.05C-3.85,15.45 1.467,18.967 9.2,26.6C11.267,28.667 14,30.033 17.4,30.7" style="fill:url(#_Radial4);"/>
                                    <path d="M9.5,9.55L3.25,9.9C2.75,7.433 2.733,5.633 3.2,4.5C4.8,7.567 6.9,9.25 9.5,9.55" style="fill:rgb(198,168,133);"/>
                                    <path d="M3.2,4.5C4.8,7.567 6.9,9.25 9.5,9.55" style="fill:none;fill-rule:nonzero;stroke:black;stroke-opacity:0.3;stroke-width:0.05px;"/>
                                    <path d="M11.85,5C11.383,5.967 11.033,6.917 10.8,7.85C7.467,7.217 5.4,5.3 4.6,2.1C5.333,1.333 6.2,0.767 7.2,0.4C8,2.7 9.55,4.233 11.85,5" style="fill:rgb(163,25,28);"/>
                                    <path d="M7.2,0.4C9.133,-0.267 11.583,-0.15 14.55,0.75C13.417,2.183 12.517,3.6 11.85,5C9.55,4.233 8,2.7 7.2,0.4" style="fill:rgb(247,71,66);"/>
                                    <path d="M11.85,5C11.383,5.967 11.033,6.917 10.8,7.85C7.467,7.217 5.4,5.3 4.6,2.1C5.333,1.333 6.2,0.767 7.2,0.4C9.133,-0.267 11.583,-0.15 14.55,0.75C13.417,2.183 12.517,3.6 11.85,5Z" style="fill:none;fill-rule:nonzero;stroke:black;stroke-opacity:0.3;stroke-width:0.05px;"/>
                                    <path d="M-10.2,10.65C-9.433,9.617 -8.517,8.183 -7.45,6.35L-4.6,5C-4.433,10.1 -3.2,13.6 -0.9,15.5C-3.933,15.033 -7.033,13.417 -10.2,10.65" style="fill:rgb(202,32,34);"/>
                                    <path d="M-10.2,10.65C-9.433,9.617 -8.517,8.183 -7.45,6.35L-4.6,5" style="fill:none;fill-rule:nonzero;stroke:black;stroke-opacity:0.3;stroke-width:0.05px;"/>
                                </g>
                            </g>
                            <g id="sprite20" transform="matrix(0.5099,0,0,0.5099,4.19831,-38.4016)">
                                <g id="sprite211" serif:id="sprite21" transform="matrix(1,0,0,1,8.95,-0.35)">
                                    <g id="shape16">
                                        <path d="M17.65,-13.7L24.1,-13.9C22.867,-9.367 20.8,-7.65 17.9,-8.75L17.65,-13.7M-18.95,5.65L-15.2,13.15L-20.8,13.9C-22.233,13.767 -23.183,13.317 -23.65,12.55C-23.983,12.05 -24.133,11.617 -24.1,11.25C-24.167,10.417 -23.467,9.933 -22,9.8C-21.133,8.3 -20.117,6.917 -18.95,5.65" style="fill:url(#_Radial5);"/>
                                        <path d="M24.1,-13.9C22.867,-9.367 20.8,-7.65 17.9,-8.75L17.65,-13.7M-23.65,12.55C-23.183,13.317 -22.233,13.767 -20.8,13.9L-15.2,13.15L-18.95,5.65" style="fill:none;fill-rule:nonzero;stroke:black;stroke-opacity:0.3;stroke-width:0.05px;"/>
                                    </g>
                                </g>
                                <g id="sprite22" transform="matrix(1,0,0,1,19.5,-2.45)">
                                    <g id="shape17">
                                        <path d="M-9.3,-8.45L-8.9,-8.9C-6.433,-11.333 -3.467,-12.55 0,-12.55C3.467,-12.55 6.417,-11.333 8.85,-8.9C11.317,-6.433 12.55,-3.467 12.55,0L12.35,2.4L11.8,2.95C9.367,5.383 6.417,6.6 2.95,6.6C-0.517,6.6 -3.483,5.383 -5.95,2.95C-8.35,0.517 -9.55,-2.433 -9.55,-5.9L-9.3,-8.45" style="fill:rgb(243,253,255);"/>
                                        <path d="M12.35,2.4C11.883,4.833 10.717,6.983 8.85,8.85C6.417,11.283 3.467,12.5 0,12.5C-3.467,12.5 -6.433,11.283 -8.9,8.85C-11.3,6.417 -12.5,3.467 -12.5,0C-12.5,-3.267 -11.433,-6.083 -9.3,-8.45L-9.55,-5.9C-9.55,-2.433 -8.35,0.517 -5.95,2.95C-3.483,5.383 -0.517,6.6 2.95,6.6C6.417,6.6 9.367,5.383 11.8,2.95L12.35,2.4" style="fill:rgb(169,190,190);"/>
                                        <path d="M-9.3,-8.45L-8.9,-8.9C-6.433,-11.333 -3.467,-12.55 0,-12.55C3.467,-12.55 6.417,-11.333 8.85,-8.9C11.317,-6.433 12.55,-3.467 12.55,0L12.35,2.4C11.883,4.833 10.717,6.983 8.85,8.85C6.417,11.283 3.467,12.5 0,12.5C-3.467,12.5 -6.433,11.283 -8.9,8.85C-11.3,6.417 -12.5,3.467 -12.5,0C-12.5,-3.267 -11.433,-6.083 -9.3,-8.45Z" style="fill:none;fill-rule:nonzero;stroke:black;stroke-opacity:0.3;stroke-width:0.05px;"/>
                                        <path d="M2.95,-0.6C2.45,-2.267 2.4,-3.767 2.8,-5.1C3.2,-6.467 3.95,-7.267 5.05,-7.5C6.183,-7.767 7.317,-7.4 8.45,-6.4C9.583,-5.433 10.4,-4.117 10.9,-2.45C11.433,-0.75 11.483,0.783 11.05,2.15C10.65,3.483 9.883,4.283 8.75,4.55C7.65,4.783 6.533,4.417 5.4,3.45C4.3,2.45 3.483,1.1 2.95,-0.6" style="fill:rgb(1,1,1);"/>
                                        <path d="M9.6,4C9.367,4.467 8.983,4.75 8.45,4.85L6.9,4.65C6.433,4.35 6.117,3.917 5.95,3.35C5.783,2.85 5.817,2.367 6.05,1.9C6.283,1.433 6.667,1.133 7.2,1C7.733,0.9 8.25,0.983 8.75,1.25C9.25,1.583 9.583,2 9.75,2.5C9.917,3.067 9.867,3.567 9.6,4" style="fill:white;"/>
                                        <path d="M12.55,-1.4L11.4,-1.25C10.7,-1.25 10.1,-1.383 9.6,-1.65C9.1,-1.983 8.85,-2.35 8.85,-2.75C8.85,-3.183 9.1,-3.55 9.6,-3.85L11.4,-4.3L11.9,-4.4C12.167,-3.733 12.383,-2.733 12.55,-1.4" style="fill:white;"/>
                                        <path d="M12.55,-1.4C12.383,-2.733 12.167,-3.733 11.9,-4.4" style="fill:none;fill-rule:nonzero;stroke:black;stroke-opacity:0.3;stroke-width:0.05px;"/>
                                    </g>
                                </g>
                                <g id="sprite23" transform="matrix(1,0,0,1,6.4,1.4)">
                                    <g id="shape18">
                                        <path d="M-0.65,-16.35C4.617,-16.517 9.333,-14.667 13.5,-10.8C17.6,-6.933 19.95,-2.233 20.55,3.3C21.117,8.867 19.767,13.65 16.5,17.65C13.167,21.683 8.883,23.767 3.65,23.9C-1.583,24.033 -6.267,22.183 -10.4,18.35C-14.567,14.45 -16.933,9.75 -17.5,4.25C-18.1,-1.317 -16.75,-6.117 -13.45,-10.15C-10.15,-14.15 -5.883,-16.217 -0.65,-16.35" style="fill:url(#_Radial6);"/>
                                        <path d="M-0.65,-16.35C4.617,-16.517 9.333,-14.667 13.5,-10.8C17.6,-6.933 19.95,-2.233 20.55,3.3C21.117,8.867 19.767,13.65 16.5,17.65C13.167,21.683 8.883,23.767 3.65,23.9C-1.583,24.033 -6.267,22.183 -10.4,18.35C-14.567,14.45 -16.933,9.75 -17.5,4.25C-18.1,-1.317 -16.75,-6.117 -13.45,-10.15C-10.15,-14.15 -5.883,-16.217 -0.65,-16.35Z" style="fill:none;fill-rule:nonzero;stroke:black;stroke-opacity:0.3;stroke-width:0.05px;"/>
                                        <path d="M-15.05,-7.3C-17.95,-16.133 -17.95,-22.35 -15.05,-25.95C-7.483,-26.883 0.6,-24.333 9.2,-18.3C10.2,-17.233 10.983,-14.983 11.55,-11.55C10.95,-10.017 10.067,-9.2 8.9,-9.1L-3.15,-11.9C-8.683,-10.633 -12.65,-9.1 -15.05,-7.3M-5.3,-12.55C-5.1,-14.083 -7.35,-16.767 -12.05,-20.6C-7.35,-16.767 -5.1,-14.083 -5.3,-12.55" style="fill:url(#_Radial7);"/>
                                        <path d="M-15.05,-7.3C-17.95,-16.133 -17.95,-22.35 -15.05,-25.95C-7.483,-26.883 0.6,-24.333 9.2,-18.3C10.2,-17.233 10.983,-14.983 11.55,-11.55M-12.05,-20.6C-7.35,-16.767 -5.1,-14.083 -5.3,-12.55" style="fill:none;fill-rule:nonzero;stroke:black;stroke-opacity:0.3;stroke-width:0.05px;"/>
                                        <path d="M9.35,18.7L9.35,24C5.583,25.367 0.083,26 -7.15,25.9C-12.283,24.667 -16.767,22.567 -20.6,19.6L-20.6,19.55L-16.25,16.05C-14.35,14.283 -13.2,12.817 -12.8,11.65L-12.1,18.2C-10.167,19 -8.117,19.667 -5.95,20.2C-2.983,20.233 2.117,19.733 9.35,18.7" style="fill:rgb(199,168,134);"/>
                                        <path d="M-20.6,19.6L-20.65,19.6L-20.6,19.55L-20.6,19.6M-12.8,11.65L9.35,18.7C2.117,19.733 -2.983,20.233 -5.95,20.2C-8.117,19.667 -10.167,19 -12.1,18.2L-12.8,11.65" style="fill:url(#_Radial8);"/>
                                        <path d="M9.35,24C5.583,25.367 0.083,26 -7.15,25.9C-12.283,24.667 -16.767,22.567 -20.6,19.6L-20.65,19.6M-20.6,19.55L-16.25,16.05C-14.35,14.283 -13.2,12.817 -12.8,11.65M-20.6,19.6L-20.6,19.55" style="fill:none;fill-rule:nonzero;stroke:black;stroke-opacity:0.3;stroke-width:0.05px;"/>
                                        <path d="M-20.65,19.6L-20.6,19.55" style="fill:none;fill-rule:nonzero;stroke:black;stroke-opacity:0.3;stroke-width:0.05px;"/>
                                    </g>
                                </g>
                                <g id="sprite24" transform="matrix(1,0,0,1,22.55,20.75)">
                                    <g id="shape19">
                                        <path d="M10.1,-7.25L8.85,-8.15C7.483,-9.25 6.3,-10.35 5.3,-11.45C8.433,-11.683 10.033,-10.283 10.1,-7.25" style="fill:rgb(237,222,188);"/>
                                        <path d="M10.1,-7.25C10.033,-10.283 8.433,-11.683 5.3,-11.45" style="fill:none;fill-rule:nonzero;stroke:black;stroke-opacity:0.3;stroke-width:0.05px;"/>
                                        <path d="M-6.3,12.3L-5.8,11.45C-6.733,10.017 -7.883,9.05 -9.25,8.55L-9.15,6.25C-7.117,6.55 -5.483,7.65 -4.25,9.55C-4.883,10.683 -5.567,11.6 -6.3,12.3" style="fill:rgb(220,209,182);"/>
                                        <path d="M-9.25,8.55C-7.883,9.05 -6.733,10.017 -5.8,11.45L-6.3,12.3L-8.05,13.5C-8.883,12.8 -9.283,11.15 -9.25,8.55" style="fill:rgb(236,229,208);"/>
                                        <path d="M-9.25,8.55C-9.283,11.15 -8.883,12.8 -8.05,13.5L-6.3,12.3C-5.567,11.6 -4.883,10.683 -4.25,9.55C-5.483,7.65 -7.117,6.55 -9.15,6.25L-9.25,8.55Z" style="fill:none;fill-rule:nonzero;stroke:black;stroke-opacity:0.3;stroke-width:0.05px;"/>
                                        <path d="M0.55,-6.65L0.45,-6.7L0.55,-6.65C1.517,-5.617 2.233,-3.283 2.7,0.35C2.233,-3.283 1.517,-5.617 0.55,-6.65M4.05,-13.45L5.8,-11.25C6.433,-10.583 7.3,-10.117 8.4,-9.85C9,-9.783 9.5,-9.517 9.9,-9.05L10.65,-7.7L10.95,-6.85L11.15,-5.65L11.05,-4.95L10.35,-1.65L8.85,1.85L7.8,3.05C6.1,4.75 4.117,5.783 1.85,6.15L0,6.3C-3.033,6.3 -5.65,5.217 -7.85,3.05L-11,-0.55C-11.5,-8.317 -6.483,-12.617 4.05,-13.45M-4.5,-2.55L-4.7,-2.45L-1.75,0.15L-1.75,0C-2.05,-2.833 -2.967,-3.683 -4.5,-2.55M0.45,-6.7C-1.65,-7.033 -3.883,-6.75 -6.25,-5.85C-3.883,-6.75 -1.65,-7.033 0.45,-6.7" style="fill:rgb(235,220,189);"/>
                                        <path d="M11.15,-5.65C11.417,-3.683 11.433,-1.883 11.2,-0.25L10.5,3.05L9,6.55L7.95,7.75C6.25,9.45 4.267,10.483 2,10.85L0.15,11C-2.883,11 -5.5,9.917 -7.7,7.75C-8.733,6.683 -9.517,5.533 -10.05,4.3L-10.55,2.8L-10.6,2.55L-10.9,0.65L-11,-0.55L-7.85,3.05C-5.65,5.217 -3.033,6.3 0,6.3L1.85,6.15C4.117,5.783 6.1,4.75 7.8,3.05L8.85,1.85L10.35,-1.65L11.05,-4.95L11.15,-5.65M-1.75,0L-1.75,0.15L-4.7,-2.45L-4.5,-2.55C-2.967,-3.683 -2.05,-2.833 -1.75,0" style="fill:rgb(199,168,134);"/>
                                        <path d="M0.45,-6.7L0.55,-6.65M4.05,-13.45L5.8,-11.25C6.433,-10.583 7.3,-10.117 8.4,-9.85C9,-9.783 9.5,-9.517 9.9,-9.05L10.65,-7.7L10.95,-6.85L11.15,-5.65C11.417,-3.683 11.433,-1.883 11.2,-0.25L10.5,3.05L9,6.55L7.95,7.75C6.25,9.45 4.267,10.483 2,10.85L0.15,11C-2.883,11 -5.5,9.917 -7.7,7.75C-8.733,6.683 -9.517,5.533 -10.05,4.3M-4.5,-2.55C-2.967,-3.683 -2.05,-2.833 -1.75,0" style="fill:none;fill-rule:nonzero;stroke:black;stroke-opacity:0.3;stroke-width:0.05px;"/>
                                        <path d="M0.55,-6.65C1.517,-5.617 2.233,-3.283 2.7,0.35M-6.25,-5.85C-3.883,-6.75 -1.65,-7.033 0.45,-6.7" style="fill:none;fill-rule:nonzero;stroke:black;stroke-opacity:0.3;stroke-width:0.05px;"/>
                                        <path d="M3.8,5.5C5.333,4.967 6.717,4.083 7.95,2.85L9,1.65L9.7,0.3L10.4,3L8.9,6.55L7.85,7.7C6.15,9.4 4.167,10.433 1.9,10.8C2.7,9.167 3.333,7.4 3.8,5.5" style="fill:rgb(163,25,28);"/>
                                        <path d="M9.7,0.3L9,1.65L7.95,2.85C6.717,4.083 5.333,4.967 3.8,5.5C4.8,1.433 5.067,-3.317 4.6,-8.75C6.933,-6.05 8.633,-3.033 9.7,0.3" style="fill:rgb(247,71,66);"/>
                                    </g>
                                </g>
                                <g id="sprite25" transform="matrix(1,0,0,1,4.85,5.6)">
                                    <g id="shape20">
                                        <path d="M9.05,-8.85C11.583,-6.317 12.85,-3.267 12.85,0.3C12.85,3.933 11.583,7 9.05,9.5C6.583,12.033 3.567,13.3 0,13.3C-3.567,13.3 -6.617,12.033 -9.15,9.5C-11.617,7 -12.85,3.933 -12.85,0.3C-12.85,-3.267 -11.617,-6.317 -9.15,-8.85C-6.617,-11.383 -3.567,-12.65 0,-12.65C3.567,-12.65 6.583,-11.383 9.05,-8.85" style="fill:rgb(199,168,134);"/>
                                        <path d="M-8.65,-9.95C-6.25,-12.183 -3.417,-13.3 -0.15,-13.3L1.05,-13.25C4.017,-12.983 6.567,-11.767 8.7,-9.6C9.8,-8.533 10.65,-7.35 11.25,-6.05C12.017,-4.45 12.4,-2.683 12.4,-0.75C12.4,1.55 11.867,3.633 10.8,5.5C8.7,7.433 6.25,8.533 3.45,8.8L2.25,8.85C-1.217,8.85 -4.183,7.617 -6.65,5.15C-8.717,3.083 -9.9,0.633 -10.2,-2.2L-10.3,-3.7L-10.3,-3.8C-10.267,-6.1 -9.717,-8.15 -8.65,-9.95" style="fill:rgb(243,253,255);"/>
                                        <path d="M10.8,5.5C10.233,6.433 9.533,7.3 8.7,8.1C6.567,10.267 4.017,11.483 1.05,11.75L-0.15,11.8C-3.617,11.8 -6.583,10.567 -9.05,8.1C-11.483,5.667 -12.7,2.717 -12.7,-0.75L-12.7,-0.85C-12.667,-4.283 -11.45,-7.2 -9.05,-9.6L-8.65,-9.95C-9.717,-8.15 -10.267,-6.1 -10.3,-3.8L-10.3,-3.7L-10.2,-2.2C-9.9,0.633 -8.717,3.083 -6.65,5.15C-4.183,7.617 -1.217,8.85 2.25,8.85L3.45,8.8C6.25,8.533 8.7,7.433 10.8,5.5" style="fill:rgb(169,190,190);"/>
                                        <path d="M-8.65,-9.95C-6.25,-12.183 -3.417,-13.3 -0.15,-13.3L1.05,-13.25C4.017,-12.983 6.567,-11.767 8.7,-9.6C9.8,-8.533 10.65,-7.35 11.25,-6.05C12.017,-4.45 12.4,-2.683 12.4,-0.75C12.4,1.55 11.867,3.633 10.8,5.5C10.233,6.433 9.533,7.3 8.7,8.1C6.567,10.267 4.017,11.483 1.05,11.75L-0.15,11.8C-3.617,11.8 -6.583,10.567 -9.05,8.1C-11.483,5.667 -12.7,2.717 -12.7,-0.75L-12.7,-0.85C-12.667,-4.283 -11.45,-7.2 -9.05,-9.6L-8.65,-9.95Z" style="fill:none;fill-rule:nonzero;stroke:black;stroke-opacity:0.3;stroke-width:0.05px;"/>
                                        <path d="M1.1,-8.25C3.033,-8.25 4.667,-7.55 6,-6.15C7.333,-4.75 8,-3.05 8,-1.05C8,0.95 7.333,2.65 6,4.05C4.667,5.45 3.033,6.15 1.1,6.15C-0.833,6.15 -2.467,5.45 -3.8,4.05C-5.167,2.65 -5.85,0.95 -5.85,-1.05C-5.85,-3.05 -5.167,-4.75 -3.8,-6.15C-2.467,-7.55 -0.833,-8.25 1.1,-8.25" style="fill:rgb(1,1,1);"/>
                                        <path d="M-5.6,-1.75C-4.533,-1.75 -3.633,-1.483 -2.9,-0.95C-2.133,-0.417 -1.75,0.217 -1.75,0.95C-1.75,1.717 -2.133,2.35 -2.9,2.85C-3.633,3.383 -4.533,3.65 -5.6,3.65C-6.667,3.65 -7.583,3.383 -8.35,2.85C-9.083,2.35 -9.45,1.717 -9.45,0.95C-9.45,0.217 -9.083,-0.417 -8.35,-0.95C-7.583,-1.483 -6.667,-1.75 -5.6,-1.75" style="fill:white;"/>
                                        <path d="M4.25,1.25C4.783,0.683 5.417,0.4 6.15,0.4C6.883,0.4 7.533,0.683 8.1,1.25C8.633,1.783 8.9,2.45 8.9,3.25C8.9,4.05 8.633,4.733 8.1,5.3C7.533,5.867 6.883,6.15 6.15,6.15C5.417,6.15 4.783,5.867 4.25,5.3C3.683,4.733 3.4,4.05 3.4,3.25C3.4,2.45 3.683,1.783 4.25,1.25" style="fill:white;"/>
                                    </g>
                                </g>
                                <g id="sprite26" transform="matrix(1,0,0,1,7.6,-1)">
                                    <g id="shape21">
                                        <path d="M3.6,-10.6C6.7,-12.367 9.35,-13.483 11.55,-13.95L17.65,-14.9C19.45,-15.133 20.65,-14.35 21.25,-12.55L23.85,-12.4L23,-8.6C22.233,-5.933 21.4,-4.65 20.5,-4.75C17.9,-3.717 15.067,-3.117 12,-2.95C10.8,-2.217 8.883,-1.55 6.25,-0.95C3.75,1.683 -0.75,3.617 -7.25,4.85C-9.05,6.617 -11.083,9.367 -13.35,13.1C-14.883,14.667 -17.633,15 -21.6,14.1C-25.567,9.9 -25.183,5.667 -20.45,1.4C-18.583,-0.2 -16.217,-1.717 -13.35,-3.15C-12.383,-4.183 -10.383,-5.567 -7.35,-7.3C-4.283,-9 -0.633,-10.1 3.6,-10.6" style="fill-opacity:0.3;"/>
                                    </g>
                                </g>
                                <g id="sprite27" transform="matrix(1,0,0,1,-0.4,-10.65)">
                                    <g id="sprite28" transform="matrix(1,0,0,1,-19.35,-8.7)">
                                        <g id="shape22">
                                            <path d="M0.35,3.65C1.35,4.817 1.883,6.183 1.95,7.75C1.95,8.25 1.767,8.817 1.4,9.45C1.4,10.65 0.833,11.717 -0.3,12.65C-1.133,13.45 -2.183,13.917 -3.45,14.05C-3.583,14.65 -4.4,14.933 -5.9,14.9C-7.3,14.833 -8.583,14.55 -9.75,14.05L-10.3,13.25C-10.467,12.95 -10.467,12.567 -10.3,12.1L-10.5,11.8C-11.067,11.367 -11.317,10.483 -11.25,9.15C-11.183,7.883 -10.367,6.567 -8.8,5.2C-7.7,4.2 -6.35,3.683 -4.75,3.65C-4.383,3.25 -3.85,3.033 -3.15,3C-1.883,2.967 -0.717,3.183 0.35,3.65" style="fill:rgb(169,190,190);"/>
                                            <path d="M-9.75,14.05L-10.25,13.85C-10.717,13.583 -10.983,13.267 -11.05,12.9C-11.35,12.467 -11.633,12.25 -11.9,12.25C-12.167,12.317 -12.417,12.217 -12.65,11.95L-13.2,11.1C-13.367,10.8 -13.367,10.417 -13.2,9.95L-13.4,9.65C-13.967,9.217 -14.217,8.333 -14.15,7C-14.083,5.733 -13.267,4.417 -11.7,3.05C-10.6,2.05 -9.25,1.533 -7.65,1.5C-7.283,1.1 -6.75,0.883 -6.05,0.85C-3.883,0.817 -2.033,1.483 -0.5,2.85L0.35,3.65C-0.717,3.183 -1.883,2.967 -3.15,3C-3.85,3.033 -4.383,3.25 -4.75,3.65C-6.35,3.683 -7.7,4.2 -8.8,5.2C-10.367,6.567 -11.183,7.883 -11.25,9.15C-11.317,10.483 -11.067,11.367 -10.5,11.8L-10.3,12.1C-10.467,12.567 -10.467,12.95 -10.3,13.25L-9.75,14.05" style="fill:rgb(243,253,255);"/>
                                            <path d="M0.35,3.65C1.35,4.817 1.883,6.183 1.95,7.75C1.95,8.25 1.767,8.817 1.4,9.45C1.4,10.65 0.833,11.717 -0.3,12.65C-1.133,13.45 -2.183,13.917 -3.45,14.05C-3.583,14.65 -4.4,14.933 -5.9,14.9C-7.3,14.833 -8.583,14.55 -9.75,14.05L-10.25,13.85C-10.717,13.583 -10.983,13.267 -11.05,12.9C-11.35,12.467 -11.633,12.25 -11.9,12.25C-12.167,12.317 -12.417,12.217 -12.65,11.95L-13.2,11.1C-13.367,10.8 -13.367,10.417 -13.2,9.95L-13.4,9.65C-13.967,9.217 -14.217,8.333 -14.15,7C-14.083,5.733 -13.267,4.417 -11.7,3.05C-10.6,2.05 -9.25,1.533 -7.65,1.5C-7.283,1.1 -6.75,0.883 -6.05,0.85C-3.883,0.817 -2.033,1.483 -0.5,2.85L0.35,3.65Z" style="fill:none;fill-rule:nonzero;stroke:black;stroke-opacity:0.3;stroke-width:0.05px;"/>
                                            <path d="M14.1,-11.25C10.5,-6.65 5.367,0.467 -1.3,10.1C-4.967,9.967 -7.117,8.9 -7.75,6.9C-5.45,-0.933 -0.417,-8.2 7.35,-14.9L14.1,-11.25" style="fill:rgb(141,23,31);"/>
                                            <path d="M14.1,-11.25C10.5,-6.65 5.367,0.467 -1.3,10.1C-4.967,9.967 -7.117,8.9 -7.75,6.9C-5.45,-0.933 -0.417,-8.2 7.35,-14.9L14.1,-11.25Z" style="fill:none;fill-rule:nonzero;stroke:black;stroke-opacity:0.3;stroke-width:0.05px;"/>
                                        </g>
                                    </g>
                                    <g id="sprite29" transform="matrix(1,0,0,1,6.9,0)">
                                        <g id="shape23">
                                            <path d="M13.65,-15.25L13.75,-15.3L14,-15.05L13.65,-15.25L14,-15.05L18.15,-11.05C0.417,-3.65 -13.433,4.817 -23.4,14.35C-25.767,12.85 -26.467,10.4 -25.5,7L-24.6,4.6L-25.05,1.6C-25.15,-0.167 -25,-2.017 -24.6,-3.95C-26,-4.75 -26.667,-6.217 -26.6,-8.35L-25.75,-10.85C-24.117,-13.317 -21.983,-14.917 -19.35,-15.65C-20.517,-12.683 -20.683,-10.233 -19.85,-8.3C-19.05,-6.367 -16.8,-5.9 -13.1,-6.9L-10.75,-7.65C-10.983,-6.783 -11.35,-6 -11.85,-5.3C-0.017,-12.867 8.483,-16.183 13.65,-15.25M3.95,-18.3L4.85,-17.75L6.75,-16.45C5.883,-16.25 4.967,-15.867 4,-15.3L-2.95,-13.65L3.95,-18.3M-24.6,-3.95C-24.167,-5.817 -23.5,-7.733 -22.6,-9.7C-23.5,-7.733 -24.167,-5.817 -24.6,-3.95M-18.95,-0.7L-18.85,-0.75L-18.95,-0.7M-24.6,4.6L-22.2,1.8L-24.6,4.6" style="fill:rgb(141,23,31);"/>
                                            <path d="M14,-15.05C15.667,-14.017 17.05,-12.683 18.15,-11.05L14,-15.05M-25.75,-10.85C-23.85,-16.217 -21.467,-20.433 -18.6,-23.5C-11.5,-24.067 -4.85,-22.8 1.35,-19.7L3.4,-18.6L3.95,-18.3L-2.95,-13.65L4,-15.3C4.967,-15.867 5.883,-16.25 6.75,-16.45L11.9,-16.15L12.8,-15.75L13.65,-15.25C8.483,-16.183 -0.017,-12.867 -11.85,-5.3C-11.35,-6 -10.983,-6.783 -10.75,-7.65L-13.1,-6.9C-16.8,-5.9 -19.05,-6.367 -19.85,-8.3C-20.683,-10.233 -20.517,-12.683 -19.35,-15.65C-21.983,-14.917 -24.117,-13.317 -25.75,-10.85M-18.95,-0.7L-18.85,-0.75L-18.95,-0.7" style="fill:rgb(195,58,53);"/>
                                            <path d="M14,-15.05C15.667,-14.017 17.05,-12.683 18.15,-11.05C0.417,-3.65 -13.433,4.817 -23.4,14.35C-25.767,12.85 -26.467,10.4 -25.5,7L-24.6,4.6L-25.05,1.6C-25.15,-0.167 -25,-2.017 -24.6,-3.95C-26,-4.75 -26.667,-6.217 -26.6,-8.35M-18.6,-23.5C-11.5,-24.067 -4.85,-22.8 1.35,-19.7L3.4,-18.6L3.95,-18.3L4.85,-17.75L6.75,-16.45L11.9,-16.15L12.8,-15.75L13.65,-15.25L14,-15.05M-22.6,-9.7C-23.5,-7.733 -24.167,-5.817 -24.6,-3.95M-22.2,1.8L-24.6,4.6" style="fill:none;fill-rule:nonzero;stroke:black;stroke-opacity:0.3;stroke-width:0.05px;"/>
                                            <path d="M24.25,-7.7L21.45,-7.65C19.117,-6.617 16.55,-5.967 13.75,-5.7C12.55,-4.933 10.7,-4.183 8.2,-3.45C5.233,0.083 -0.483,3.05 -8.95,5.45C-9.483,6.383 -12.067,8.45 -16.7,11.65C-18.1,13.983 -20.633,16.867 -24.3,20.3C-24.8,19.067 -24.767,17.45 -24.2,15.45C-25.033,14.317 -25.533,13.133 -25.7,11.9C-25.633,10.5 -24.367,9.1 -21.9,7.7C-20.033,4.667 -16.65,1.883 -11.75,-0.65C-10.85,-1.683 -8.933,-3.05 -6,-4.75C-3.033,-6.45 0.467,-7.567 4.5,-8.1C7.5,-9.833 10.05,-10.917 12.15,-11.35L18.05,-12.4C19.817,-12.6 21.033,-11.967 21.7,-10.5C22.967,-10 23.817,-9.067 24.25,-7.7" style="fill:rgb(243,253,255);"/>
                                            <path d="M-24.3,20.3C-20.633,16.867 -18.1,13.983 -16.7,11.65C-12.067,8.45 -9.483,6.383 -8.95,5.45C-0.483,3.05 5.233,0.083 8.2,-3.45C10.7,-4.183 12.55,-4.933 13.75,-5.7C16.55,-5.967 19.117,-6.617 21.45,-7.65L24.25,-7.7L24.3,-7.45C26.333,-5.95 27.017,-4.383 26.35,-2.75L25.9,-2.6L24.45,-2.2C23.25,-2.033 22.05,-2.017 20.85,-2.15C18.35,-1.15 15.617,-0.567 12.65,-0.4C11.483,0.333 9.65,1 7.15,1.6C4.55,4.8 -0.483,7.217 -7.95,8.85C-8.317,9.65 -10.25,11.233 -13.75,13.6C-14.65,15.533 -16.5,17.833 -19.3,20.5L-21.05,23.65C-21.283,23.65 -22.067,23 -23.4,21.7L-24.3,20.3" style="fill:rgb(169,190,190);"/>
                                            <path d="M24.25,-7.7C23.817,-9.067 22.967,-10 21.7,-10.5C21.033,-11.967 19.817,-12.6 18.05,-12.4L12.15,-11.35C10.05,-10.917 7.5,-9.833 4.5,-8.1C0.467,-7.567 -3.033,-6.45 -6,-4.75C-8.933,-3.05 -10.85,-1.683 -11.75,-0.65C-16.65,1.883 -20.033,4.667 -21.9,7.7C-24.367,9.1 -25.633,10.5 -25.7,11.9C-25.533,13.133 -25.033,14.317 -24.2,15.45C-24.767,17.45 -24.8,19.067 -24.3,20.3L-23.4,21.7C-22.067,23 -21.283,23.65 -21.05,23.65M-19.3,20.5C-16.5,17.833 -14.65,15.533 -13.75,13.6C-10.25,11.233 -8.317,9.65 -7.95,8.85C-0.483,7.217 4.55,4.8 7.15,1.6C9.65,1 11.483,0.333 12.65,-0.4C15.617,-0.567 18.35,-1.15 20.85,-2.15C22.05,-2.017 23.25,-2.033 24.45,-2.2M26.35,-2.75C27.017,-4.383 26.333,-5.95 24.3,-7.45L24.25,-7.7" style="fill:none;fill-rule:nonzero;stroke:black;stroke-opacity:0.3;stroke-width:0.05px;"/>
                                        </g>
                                    </g>
                                </g>
                            </g>
                        </g>
                    </g>
                </g>
            </g>
        </g>
    </g>
    <defs>
        <radialGradient id="_Radial1" cx="0" cy="0" r="1" gradientUnits="userSpaceOnUse" gradientTransform="matrix(40.7962,-0.65536,-14.9094,41.0419,-14,-10.3)"><stop offset="0" style="stop-color:rgb(210,177,138);stop-opacity:1"/><stop offset="0.23" style="stop-color:rgb(210,177,138);stop-opacity:1"/><stop offset="0.73" style="stop-color:rgb(189,159,123);stop-opacity:1"/><stop offset="1" style="stop-color:rgb(189,159,123);stop-opacity:1"/></radialGradient>
        <radialGradient id="_Radial2" cx="0" cy="0" r="1" gradientUnits="userSpaceOnUse" gradientTransform="matrix(35.4714,21.2992,-25.0675,29.2454,11,-8.55)"><stop offset="0" style="stop-color:rgb(210,177,138);stop-opacity:0"/><stop offset="0.38" style="stop-color:rgb(210,177,138);stop-opacity:0"/><stop offset="0.6" style="stop-color:rgb(210,177,138);stop-opacity:1"/><stop offset="1" style="stop-color:rgb(210,177,138);stop-opacity:1"/></radialGradient>
        <radialGradient id="_Radial3" cx="0" cy="0" r="1" gradientUnits="userSpaceOnUse" gradientTransform="matrix(8.51968,-9.25696,12.4518,8.84736,4.9,-5.1)"><stop offset="0" style="stop-color:rgb(216,187,149);stop-opacity:0"/><stop offset="0.35" style="stop-color:rgb(216,187,149);stop-opacity:0"/><stop offset="0.71" style="stop-color:rgb(210,177,138);stop-opacity:1"/><stop offset="1" style="stop-color:rgb(210,177,138);stop-opacity:1"/></radialGradient>
        <radialGradient id="_Radial4" cx="0" cy="0" r="1" gradientUnits="userSpaceOnUse" gradientTransform="matrix(48.8243,26.7878,-18.2682,35.1437,7.6,6.45)"><stop offset="0" style="stop-color:rgb(195,165,128);stop-opacity:0"/><stop offset="0.38" style="stop-color:rgb(195,165,128);stop-opacity:0"/><stop offset="0.6" style="stop-color:rgb(192,162,126);stop-opacity:0.45"/><stop offset="1" style="stop-color:rgb(192,162,126);stop-opacity:0.45"/></radialGradient>
        <radialGradient id="_Radial5" cx="0" cy="0" r="1" gradientUnits="userSpaceOnUse" gradientTransform="matrix(2e-06,0,0,2e-06,-630.9,-23.75)"><stop offset="0" style="stop-color:rgb(169,190,190);stop-opacity:1"/><stop offset="0.38" style="stop-color:rgb(169,190,190);stop-opacity:1"/><stop offset="0.57" style="stop-color:rgb(243,253,255);stop-opacity:1"/><stop offset="1" style="stop-color:rgb(243,253,255);stop-opacity:1"/></radialGradient>
        <radialGradient id="_Radial6" cx="0" cy="0" r="1" gradientUnits="userSpaceOnUse" gradientTransform="matrix(41.8611,0,0,41.8611,5.2,-10.75)"><stop offset="0" style="stop-color:rgb(255,249,203);stop-opacity:1"/><stop offset="0.14" style="stop-color:rgb(255,249,203);stop-opacity:1"/><stop offset="0.47" style="stop-color:rgb(237,222,188);stop-opacity:1"/><stop offset="1" style="stop-color:rgb(237,222,188);stop-opacity:1"/></radialGradient>
        <radialGradient id="_Radial7" cx="0" cy="0" r="1" gradientUnits="userSpaceOnUse" gradientTransform="matrix(46.9402,0,0,46.9402,13.3,-23.65)"><stop offset="0" style="stop-color:rgb(255,249,203);stop-opacity:1"/><stop offset="0.14" style="stop-color:rgb(255,249,203);stop-opacity:1"/><stop offset="0.47" style="stop-color:rgb(237,222,188);stop-opacity:1"/><stop offset="1" style="stop-color:rgb(237,222,188);stop-opacity:1"/></radialGradient>
        <radialGradient id="_Radial8" cx="0" cy="0" r="1" gradientUnits="userSpaceOnUse" gradientTransform="matrix(15.7286,0,0,15.7286,0.85,-6.25)"><stop offset="0" style="stop-color:rgb(255,249,203);stop-opacity:1"/><stop offset="0.14" style="stop-color:rgb(255,249,203);stop-opacity:1"/><stop offset="0.47" style="stop-color:rgb(237,222,188);stop-opacity:1"/><stop offset="1" style="stop-color:rgb(237,222,188);stop-opacity:1"/></radialGradient>
    </defs>
</svg>
