<?xml version="1.0" encoding="UTF-8" standalone="no"?>
<!DOCTYPE svg PUBLIC "-//W3C//DTD SVG 1.1//EN" "http://www.w3.org/Graphics/SVG/1.1/DTD/svg11.dtd">
<svg width="100%" height="100%" viewBox="0 0 17 29" version="1.1" xmlns="http://www.w3.org/2000/svg" xmlns:xlink="http://www.w3.org/1999/xlink" xml:space="preserve" xmlns:serif="http://www.serif.com/" style="fill-rule:evenodd;clip-rule:evenodd;stroke-linecap:round;stroke-linejoin:round;">
    <g id="sprite0" transform="matrix(1,0,0,1,8.15,14.35)">
        <g>
            <g id="shape0">
                <path d="M6.95,-2.15L6.95,-1.6L7,-1.6L7.6,1L7.35,0.8L5.95,2.45L5.7,2.45L4.55,4.2L5.25,4.5L5.55,5L5.8,5.5L6.05,5.35L6.1,5.45L6.45,6.8L6.25,7.55L5.95,7.8L5.9,7.95L5.9,8L5.75,8.4L6.55,8.5L7.15,9.4L7.45,10.1L6.75,10.35L5.9,10.5L5.95,10.45L5.9,10.45L5.05,10.25L4.9,10.25L4.5,11.05L3.85,11.4L2.7,10.95L1.45,10.2L1.1,9.75L-0.1,9.45L-0.1,9.4C-0.533,9.467 -1.033,9.35 -1.6,9.05L-2.3,7.75L-2.35,7.75C-2.317,7.417 -2.217,7.183 -2.05,7.05L-1.95,7L-1.9,6.95L-1.9,6.9L-1.7,6.6L-1.2,6.45L-4.1,4.75L-4.25,4.35L-5.45,4.35L-7.35,2.1L-5.1,2.25L-5.7,0.7L-5.6,-0.7L-6.65,-1.35L-7.65,-6.45L-5.3,-4.85L-5.3,-4.95L-5.4,-5.05L-5.3,-5L-4.75,-6.25L-4.95,-6.25L-5.5,-7.8L-5.55,-7.9L-4.5,-13.5L-4.2,-13.85L-4.05,-13.8L-4,-13.85L-3.75,-13.8L-0.85,-10.25L-0.35,-8.75L0.65,-8.1L-0.2,-10.25L4.65,-7.55L5.55,-3.9L6.15,-3.15L6.65,-2.85L6.8,-2.35L6.95,-2.15M-0.5,-8.85L-0.6,-8.95L-1.25,-9.45L-0.5,-8.85M2.05,6.5L2,5.9L2,5.85L2.05,5.85L1.25,6.2L2.05,6.5M-0.25,7.25L-1.05,7.45L-0.2,8.15L-0.25,7.25M0.55,12.25L-0.6,12.2L0.55,12.3L0.6,12.35L1.2,13.05L0.55,12.25M1.2,13.05L0.5,13.7L0.45,13.7L-0.35,13.85L-0.4,13.85L-0.95,13.5L-1.2,12.85L-1.15,12.85L-1.2,12.8L-1.45,12.6L-1.6,12.1L-0.5,10.7L1.15,10.85L1.25,10.85L2,11.6L1.95,12.7L1.2,13.05" style="fill:rgb(40,10,2);"/>
                <path d="M6.95,-2.15L6.95,-1.6L7,-1.6L7.6,1L7.35,0.8L5.95,2.45L5.7,2.45L4.55,4.2L5.25,4.5L5.55,5L5.8,5.5L6.05,5.35L6.1,5.45L6.45,6.8L6.25,7.55L5.95,7.8L5.9,7.95L5.9,8L5.75,8.4L6.55,8.5L7.15,9.4L7.45,10.1L6.75,10.35L5.9,10.5L5.95,10.45L5.9,10.45L5.05,10.25L4.9,10.25L4.5,11.05L3.85,11.4L2.7,10.95L1.45,10.2L1.1,9.75L-0.1,9.45L-0.1,9.4C-0.533,9.467 -1.033,9.35 -1.6,9.05L-2.3,7.75L-2.35,7.75C-2.317,7.417 -2.217,7.183 -2.05,7.05L-1.95,7L-1.9,6.95L-1.9,6.9L-1.7,6.6L-1.2,6.45L-4.1,4.75L-4.25,4.35L-5.45,4.35L-7.35,2.1L-5.1,2.25L-5.7,0.7L-5.6,-0.7L-6.65,-1.35L-7.65,-6.45L-5.3,-4.85L-5.3,-4.95L-5.4,-5.05L-5.3,-5L-4.75,-6.25L-4.95,-6.25L-5.5,-7.8L-5.55,-7.9L-4.5,-13.5L-4.2,-13.85L-4.05,-13.8L-4,-13.85L-3.75,-13.8L-0.85,-10.25L-0.35,-8.75L0.65,-8.1L-0.2,-10.25L4.65,-7.55L5.55,-3.9L6.15,-3.15L6.65,-2.85L6.8,-2.35L6.95,-2.15M-0.5,-8.85L-0.6,-8.95L-1.25,-9.45L-0.5,-8.85M2.05,6.5L2,5.9L2,5.85L2.05,5.85L1.25,6.2L2.05,6.5M-0.25,7.25L-0.2,8.15L-1.05,7.45L-0.25,7.25M0.55,12.25L-0.6,12.2L0.55,12.3L0.6,12.35L1.2,13.05L0.55,12.25M1.2,13.05L1.95,12.7L2,11.6L1.25,10.85L1.15,10.85L-0.5,10.7L-1.6,12.1L-1.45,12.6L-1.2,12.8L-1.15,12.85L-1.2,12.85L-0.95,13.5L-0.4,13.85L-0.35,13.85L0.45,13.7L0.5,13.7L1.2,13.05Z" style="fill:none;fill-rule:nonzero;stroke:rgb(40,10,2);stroke-width:1px;"/>
            </g>
            <g id="sprite1" transform="matrix(0.49,0,0,0.49,3.0502,10.7005)">
                <g id="sprite2" transform="matrix(-0.0568,0.4033,0.5667,0.0798,4.9501,-0.5998)">
                    <g id="shape1">
                        <path d="M-8.15,3.95L-10.15,2.65L-10.15,-0.7L-6.85,-5.5L-3.35,-6.35L-0.35,-4.45L-0.45,-1.7L-0.55,-1.65L0.1,1.4L-4.55,1.85L-8.15,3.9L-8.15,3.95" style="fill:rgb(26,22,25);"/>
                        <path d="M-8.15,3.9L-6.2,5.2L-8.15,3.95L-8.15,3.9" style="fill:rgb(59,61,45);"/>
                        <path d="M-8.15,3.95L-10.15,2.65L-10.15,-0.7L-6.85,-5.5L-3.35,-6.35L-0.35,-4.45L-0.45,-1.7L-0.55,-1.65L0.1,1.4M-6.2,5.2L-8.15,3.95" style="fill:none;fill-rule:nonzero;stroke:black;stroke-opacity:0.4;stroke-width:0.5px;stroke-linecap:butt;stroke-linejoin:miter;stroke-miterlimit:3;"/>
                    </g>
                    <g id="pied1" transform="matrix(1,0,0,1,-8.15,1.4)">
                        <g id="shape2">
                            <path d="M8.25,0L7.1,2.85L5.25,5.3L1.95,3.8L0,2.5L3.6,0.45L8.25,0" style="fill:rgb(85,182,100);"/>
                        </g>
                    </g>
                    <g id="shape3">
                        <path d="M-8.15,3.9L-4.55,1.85L0.1,1.4L-1.05,4.25L-2.9,6.7L-6.2,5.2L-8.15,3.9" style="fill-opacity:0.3;"/>
                        <path d="M-8.15,3.9L-4.55,1.85L0.1,1.4L-1.05,4.25L-2.9,6.7L-6.2,5.2L-8.15,3.9Z" style="fill:none;fill-rule:nonzero;stroke:black;stroke-opacity:0.4;stroke-width:0.5px;stroke-linecap:butt;stroke-linejoin:miter;stroke-miterlimit:3;"/>
                    </g>
                </g>
                <g id="sprite4" transform="matrix(0.6155,0,0,0.6155,-3.00045,3.2498)">
                    <g id="shape4">
                        <path d="M-1.5,-4.85L-4,-1.9C-4.233,-1.567 -4.6,-1.4 -5.1,-1.4L-9.45,-2.05L-9.45,-2.2L-6.95,-5.35L-1.5,-4.85" style="fill:rgb(50,43,49);"/>
                        <path d="M-9.45,-2.2L-9.45,-2.05L-5.1,-1.4C-4.6,-1.4 -4.233,-1.567 -4,-1.9L-1.5,-4.85L-1.15,-4.85L1.3,-2.3L1.2,1.3L-1.25,2.55L-1.3,2.5L-3.5,-0.15L-7.25,-0.4L-9,1.5L-9.25,1.7L-10.1,1.05L-10.65,-0.7L-9.45,-2.2" style="fill:rgb(30,26,29);"/>
                        <path d="M-9.45,-2.2L-10.65,-0.7L-10.1,1.05L-9.25,1.7M-1.3,2.5L-1.25,2.55L1.2,1.3L1.3,-2.3L-1.15,-4.85L-1.5,-4.85L-6.95,-5.35L-9.45,-2.2" style="fill:none;fill-rule:nonzero;stroke:black;stroke-opacity:0.4;stroke-width:0.5px;stroke-linecap:butt;stroke-linejoin:miter;stroke-miterlimit:3;"/>
                    </g>
                    <g id="pied11" serif:id="pied1" transform="matrix(1,0,0,1,-9.25,-0.4)">
                        <g id="shape5">
                            <path d="M7.95,2.9L5.55,5L2.75,5.4L2.6,5.4L0.9,4.25L0,2.1L0.25,1.9L2,0L5.75,0.25L7.95,2.9" style="fill:rgb(98,210,115);"/>
                        </g>
                    </g>
                    <g id="shape6">
                        <path d="M-3.3,0.1L-1.3,2.5L-3.7,4.6L-6.5,5L-6.65,5L-8.35,3.85L-9.25,1.7L-9,1.5L-6.6,2.25L-5.95,2.35L-3.3,0.1" style="fill-opacity:0.3;"/>
                        <path d="M-9,1.5L-7.25,-0.4L-3.5,-0.15L-3.3,0.1L-1.3,2.5L-3.7,4.6L-6.5,5L-6.65,5L-8.35,3.85L-9.25,1.7L-9,1.5Z" style="fill:none;fill-rule:nonzero;stroke:black;stroke-opacity:0.4;stroke-width:0.5px;stroke-linecap:butt;stroke-linejoin:miter;stroke-miterlimit:3;"/>
                    </g>
                </g>
                <g id="sprite6" transform="matrix(1,0,0,1,-4.1,-8.5)">
                    <g id="shape7">
                        <path d="M0.25,-0.4L0.35,-0.3L0.35,0.1C0.35,0.5 0.183,0.833 -0.15,1.1L-1.55,1.6L-2.7,1.4L-4.75,1.9L-4.9,1.9L-5,1.85L-5.15,1.65L-5.5,1.5C-5.833,1.333 -6,1.067 -6,0.7L-5.6,0.1L-2.65,-0.8C-2.583,-0.8 -2.517,-0.833 -2.45,-0.9L-1.65,-0.95L-0.15,-0.7L0.25,-0.4" style="fill:rgb(69,66,54);"/>
                    </g>
                </g>
                <g id="sprite61" serif:id="sprite6" transform="matrix(-0.4099,0.2367,0.3592,0.6222,4e-05,-9.79981)">
                    <g id="shape71" serif:id="shape7">
                        <path d="M0.25,-0.4L0.35,-0.3L0.35,0.1C0.35,0.5 0.183,0.833 -0.15,1.1L-1.55,1.6L-2.7,1.4L-4.75,1.9L-4.9,1.9L-5,1.85L-5.15,1.65L-5.5,1.5C-5.833,1.333 -6,1.067 -6,0.7L-5.6,0.1L-2.65,-0.8C-2.583,-0.8 -2.517,-0.833 -2.45,-0.9L-1.65,-0.95L-0.15,-0.7L0.25,-0.4" style="fill:rgb(69,66,54);"/>
                    </g>
                </g>
                <g id="sprite7" transform="matrix(1,0,0,1,1.4,-11.1)">
                    <g id="shape8">
                        <path d="M4.45,3.05L4.15,3.1L3.95,3.1C3.75,3.267 3.367,3.267 2.8,3.1L2.65,3.05C2.55,2.917 2.5,2.917 2.5,3.05L0.05,1.25L0.05,1C-0.017,0.867 0,0.75 0.1,0.65C0.1,0.483 0.183,0.4 0.35,0.4C0.45,0.3 0.667,0.167 1,0L1.1,0.1L3.4,0.5C4.333,1.433 4.683,2.283 4.45,3.05" style="fill:rgb(59,56,46);"/>
                    </g>
                </g>
                <g id="sprite8" transform="matrix(2.0545,0,0,2.0545,-5.85,-21.3501)">
                    <g id="shape9">
                        <path d="M2.85,-5.15L6.4,-3.1L5.45,-3.1L2.85,-5.15" style="fill:rgb(209,211,195);"/>
                        <path d="M6.4,-3.1L7.35,0.75L5.45,-3.1L6.4,-3.1" style="fill:rgb(147,148,137);"/>
                        <path d="M7.35,0.75L3.95,-2.3L2.85,-5.15L5.45,-3.1L7.35,0.75" style="fill:rgb(119,119,112);"/>
                        <path d="M7.35,0.75L3.95,-2.3L2.85,-5.15L6.4,-3.1L7.35,0.75L5.45,-3.1L2.85,-5.15" style="fill:none;fill-rule:nonzero;stroke:black;stroke-opacity:0.3;stroke-width:0.05px;"/>
                        <path d="M4.4,-7.75L5.65,-2.6L3.15,-7.75L4.4,-7.75" style="fill:rgb(147,148,137);"/>
                        <path d="M-0.4,-10.45L4.4,-7.75L3.15,-7.75L-0.4,-10.45" style="fill:rgb(209,211,195);"/>
                        <path d="M5.65,-2.6L1.1,-6.65L-0.4,-10.45L3.15,-7.75L5.65,-2.6" style="fill:rgb(119,119,112);"/>
                        <path d="M5.65,-2.6L1.1,-6.65L-0.4,-10.45L4.4,-7.75L5.65,-2.6L3.15,-7.75L-0.4,-10.45" style="fill:none;fill-rule:nonzero;stroke:black;stroke-opacity:0.3;stroke-width:0.05px;"/>
                        <path d="M-0.55,-8.95L1.2,-7.95L3.4,-6.5L4.45,-3.85L2.3,-2.75L2.3,-5.75L0.1,-7.15L-0.55,-8.95M-5.45,-5.25L-4.9,-6.45L-1.15,-5.5L-1.15,-3.8L1.65,-2.35L-0.2,-1.45L-5.45,-5.25" style="fill:rgb(96,92,76);"/>
                        <path d="M3.4,-6.5L6.7,-2.4L4.45,-3.85L3.4,-6.5M-5.85,0.45L-5.45,-5.25L-0.2,-1.45L-2.45,2.35L-5.85,0.45" style="fill:rgb(82,79,64);"/>
                        <path d="M0.1,-7.15L2.3,-5.75L2.3,-2.75L4.45,-3.85L6.7,-2.4L5.55,0.35L1.3,3L-2.45,2.35L-0.2,-1.45L1.65,-2.35L-1.15,-3.8L-1.15,-5.5L0.8,-4.95L0.1,-7.15" style="fill:rgb(50,43,49);"/>
                        <path d="M0.1,-7.15L0.8,-4.95L-1.15,-5.5L-1.15,-7.9L0.1,-7.15" style="fill:rgb(67,57,65);"/>
                        <path d="M-4.9,-6.45L-3.95,-10.7C-3.883,-11.5 -3.667,-11.783 -3.3,-11.55L-2.1,-10.25L-0.55,-8.95L0.1,-7.15L-1.15,-7.9L-1.15,-5.5L-4.9,-6.45" style="fill:rgb(143,137,113);"/>
                        <path d="M-4.25,4.45L-5.85,0.45L-2.45,2.35L-2.45,5L-4.25,4.45" style="fill:rgb(69,66,54);"/>
                        <path d="M6.7,-2.4L6.7,0.3L3.9,4.45L0.35,6.25L-2.45,5L-2.45,2.35L1.3,3L5.55,0.35L6.7,-2.4" style="fill:rgb(30,26,29);"/>
                        <path d="M0.35,6.25L-1.25,6.25L-4.25,4.45L-2.45,5L0.35,6.25" style="fill:rgb(59,56,46);"/>
                        <path d="M-0.55,-8.95L1.2,-7.95L3.4,-6.5L6.7,-2.4L6.7,0.3L3.9,4.45L0.35,6.25L-1.25,6.25L-4.25,4.45L-5.85,0.45L-5.45,-5.25L-4.9,-6.45L-3.95,-10.7C-3.883,-11.5 -3.667,-11.783 -3.3,-11.55L-2.1,-10.25L-0.55,-8.95Z" style="fill:none;fill-rule:nonzero;stroke:black;stroke-opacity:0.3;stroke-width:0.05px;"/>
                        <path d="M-0.1,-1.4L-4.8,-4.3L-5.55,-5.25L-0.1,-1.4M4.45,-3.8L3.05,-6.75L3.55,-6.4L4.45,-3.8M-5.8,0.55L-2.35,2.4L-5.25,1.25L-5.8,0.55" style="fill:rgb(143,137,113);"/>
                    </g>
                    <g id="tete1" transform="matrix(0.0852,0,0,0.0883,-0.35,-6.8)">
                        <g id="shape10">
                            <path d="M0,28.85L0,0L24.9,15L24.9,41.4L0,28.85" style="fill:rgb(98,210,115);"/>
                        </g>
                    </g>
                    <g id="shape11">
                        <path d="M1.8,-3.15L1.35,-5.5L1.8,-5.5L1.8,-3.15" style="fill-opacity:0.3;"/>
                        <path d="M1.35,-5.5L1.8,-3.15L-0.35,-4.25L1.35,-5.5" style="fill-opacity:0.24;"/>
                        <path d="M-0.35,-6.8L1.35,-5.5L-0.35,-4.25L-0.35,-6.8" style="fill:white;fill-opacity:0.24;"/>
                        <path d="M1.8,-3.15L1.8,-5.5L-0.35,-6.8L-0.35,-4.25L1.8,-3.15Z" style="fill:none;fill-rule:nonzero;stroke:black;stroke-opacity:0.3;stroke-width:0.05px;"/>
                        <path d="M1.8,-5.5L1.4,-5.45L1.8,-3.15L1.35,-5.4L-0.25,-4.3L1.35,-5.5L-0.3,-6.8L-0.2,-6.75L1.4,-5.5L1.8,-5.5" style="fill:white;"/>
                        <path d="M-7.8,-6.65L-6.3,-2.65L-6.8,-1.6L-7.8,-6.65" style="fill:rgb(182,184,170);"/>
                        <path d="M-6.8,-1.6L-6.3,-2.65L-1.65,1.45L-6.8,-1.6" style="fill:rgb(147,148,137);"/>
                        <path d="M-6.3,-2.65L-7.8,-6.65L-3.8,-3.9L-6.3,-2.65" style="fill:rgb(251,251,251);"/>
                        <path d="M-6.3,-2.65L-3.8,-3.9C-2.833,-1.967 -2.117,-0.183 -1.65,1.45L-6.3,-2.65" style="fill:rgb(209,211,195);"/>
                        <path d="M-3.8,-3.9L-7.8,-6.65L-6.8,-1.6L-1.65,1.45" style="fill:none;fill-rule:nonzero;stroke:black;stroke-opacity:0.3;stroke-width:0.05px;"/>
                        <path d="M4.2,-2.55L4.9,-2.2L3.45,-0.15L2.75,-0.5L4.2,-2.55" style="fill:rgb(182,184,170);"/>
                        <path d="M3.85,2.2L3.2,1.85L2.75,-0.5L3.45,-0.15L3.85,2.2" style="fill:rgb(147,148,137);"/>
                        <path d="M4.9,-2.2L6.75,-1.85L7.15,0.45L5.7,2.2L3.85,2.2L3.45,-0.15L4.9,-2.2" style="fill:rgb(209,211,195);"/>
                        <path d="M4.2,-2.55L6.05,-2.25L6.75,-1.85L4.9,-2.2L4.2,-2.55" style="fill:rgb(251,251,251);"/>
                        <path d="M6.75,-1.85L6.05,-2.25L4.2,-2.55L2.75,-0.5L3.2,1.85L3.85,2.2L5.7,2.2L7.15,0.45L6.75,-1.85Z" style="fill:none;fill-rule:nonzero;stroke:black;stroke-opacity:0.3;stroke-width:0.05px;"/>
                    </g>
                    <g id="tete3" transform="matrix(0.0852,0,0,0.0883,4.05,-1.5)">
                        <g id="shape12">
                            <path d="M3.7,37.1L0,17.55L12.75,0L28.9,2.8L32.6,22.35L19.55,37.15L3.7,37.1" style="fill:rgb(98,210,115);"/>
                        </g>
                    </g>
                    <g id="shape13">
                        <path d="M6.45,-1.25L6.8,0.5L6.45,0.05L6.45,-1.25M4,0.05L5.1,-1.5L6.45,0.05L4,0.05" style="fill:white;fill-opacity:0.24;"/>
                        <path d="M6.8,0.5L5.7,1.8L6.45,0.05L6.8,0.5" style="fill-opacity:0.3;"/>
                        <path d="M5.7,1.8L4.35,1.8L6.45,0.05L5.7,1.8" style="fill-opacity:0.24;"/>
                        <path d="M5.1,-1.5L6.45,-1.25L6.8,0.5L5.7,1.8L4.35,1.8L4,0.05L5.1,-1.5Z" style="fill:none;fill-rule:nonzero;stroke:black;stroke-opacity:0.3;stroke-width:0.05px;"/>
                        <path d="M6.45,-1.25L6.5,-1.25L6.5,0.05L6.8,0.5L6.5,0.1L5.7,1.8L5.65,1.8L6.45,0.1L4.35,1.8L4.3,1.8L6.45,0.05L6.45,-1.25" style="fill:white;"/>
                        <path d="M2.35,0.45L0.5,0.1L-0.2,-0.25L1.65,0.05L2.35,0.45" style="fill:rgb(251,251,251);"/>
                        <path d="M2.35,0.45L2.75,2.75L1.3,4.5L-0.55,4.5L-0.95,2.15L0.5,0.1L2.35,0.45" style="fill:rgb(209,211,195);"/>
                        <path d="M0.5,0.1L-0.95,2.15L-1.65,1.8L-0.2,-0.25L0.5,0.1" style="fill:rgb(182,184,170);"/>
                        <path d="M-0.95,2.15L-0.55,4.5L-1.2,4.15L-1.65,1.8L-0.95,2.15" style="fill:rgb(147,148,137);"/>
                        <path d="M-0.55,4.5L1.3,4.5L2.75,2.75L2.35,0.45L1.65,0.05L-0.2,-0.25L-1.65,1.8L-1.2,4.15L-0.55,4.5Z" style="fill:none;fill-rule:nonzero;stroke:black;stroke-opacity:0.3;stroke-width:0.05px;"/>
                    </g>
                    <g id="tete2" transform="matrix(0.0852,0,0,0.0883,-0.35,0.8)">
                        <g id="shape121" serif:id="shape12">
                            <path d="M3.7,37.1L0,17.55L12.75,0L28.9,2.8L32.6,22.35L19.55,37.15L3.7,37.1" style="fill:rgb(98,210,115);"/>
                        </g>
                    </g>
                    <g id="shape14">
                        <path d="M2.05,1.05L2.4,2.8L2.05,2.35L-0.4,2.35L0.7,0.8L2.05,2.35L2.05,1.05" style="fill:white;fill-opacity:0.24;"/>
                        <path d="M2.4,2.8L1.3,4.1L2.05,2.35L2.4,2.8" style="fill-opacity:0.3;"/>
                        <path d="M1.3,4.1L-0.05,4.1L2.05,2.35L1.3,4.1" style="fill-opacity:0.24;"/>
                        <path d="M0.7,0.8L2.05,1.05L2.4,2.8L1.3,4.1L-0.05,4.1L-0.4,2.35L0.7,0.8Z" style="fill:none;fill-rule:nonzero;stroke:black;stroke-opacity:0.3;stroke-width:0.05px;"/>
                        <path d="M2.15,2.35L0.75,0.8L0.8,0.8L2.15,2.35L2.5,2.8L2.45,2.8L2.15,2.4L1.35,4.1L2.1,2.4L-0.3,2.4L-0.3,2.35L2.15,2.35" style="fill:white;"/>
                        <path d="M-7.5,1.85L-5.65,3.35L-5.6,4.05L-7.5,1.85" style="fill:rgb(182,184,170);"/>
                        <path d="M-5.65,3.35L-2.15,4.05L-5.6,4.05L-5.65,3.35" style="fill:rgb(147,148,137);"/>
                        <path d="M-4.75,2L-5.65,3.35L-7.5,1.85L-4.75,2" style="fill:rgb(251,251,251);"/>
                        <path d="M-2.15,4.05L-5.65,3.35L-4.75,2C-3.717,2.667 -2.85,3.35 -2.15,4.05" style="fill:rgb(209,211,195);"/>
                        <path d="M-7.5,1.85L-5.6,4.05L-2.15,4.05M-4.75,2L-7.5,1.85" style="fill:none;fill-rule:nonzero;stroke:black;stroke-opacity:0.3;stroke-width:0.05px;"/>
                        <path d="M-5.65,-8L-5.7,-8.1L-4.65,-13.65L-4.35,-14L-4.2,-13.95L-4.45,-13.65L-4.7,-12.35L-5.1,-10.1L-5.5,-8.1L-5.45,-8L-5.65,-8" style="fill:rgb(251,251,251);"/>
                        <path d="M-4.2,-13.95L-4.15,-14L-3.9,-13.95L-1.05,-10.45L-0.55,-8.95L-0.8,-9.15L-2.1,-10.25L-3.3,-11.55L-3.6,-11.6L-3.95,-10.7L-4.1,-10.85L-4.45,-11.6L-4.7,-12.35L-4.45,-13.65L-4.2,-13.95M-4.45,-8.6L-4.9,-6.45L-5.45,-8L-5.5,-8.1L-5.1,-10.1C-4.833,-9.967 -4.65,-9.683 -4.55,-9.25L-4.5,-9.15L-4.45,-8.6" style="fill:rgb(182,184,170);"/>
                        <path d="M-3.95,-10.7L-4.45,-8.6L-4.5,-9.15L-4.55,-9.25C-4.65,-9.683 -4.833,-9.967 -5.1,-10.1L-4.7,-12.35L-4.45,-11.6L-4.1,-10.85L-3.95,-10.7" style="fill:rgb(209,211,195);"/>
                        <path d="M-4.9,-6.45L-5.1,-6.45L-5.65,-8L-5.45,-8L-4.9,-6.45" style="fill:rgb(147,148,137);"/>
                        <path d="M-4.2,-13.95L-4.15,-14L-3.9,-13.95L-1.05,-10.45L-0.55,-8.95L-0.8,-9.15L-2.1,-10.25L-3.3,-11.55L-3.6,-11.6L-3.95,-10.7L-4.45,-8.6L-4.9,-6.45L-5.1,-6.45L-5.65,-8L-5.7,-8.1L-4.65,-13.65L-4.35,-14L-4.2,-13.95Z" style="fill:none;fill-rule:nonzero;stroke:black;stroke-opacity:0.3;stroke-width:0.05px;"/>
                    </g>
                </g>
                <g id="sprite11" transform="matrix(-0.3096,0.0292,0.0207,0.3008,4.90027,-11.2003)">
                    <g id="rune1" transform="matrix(-0.4875,0,0,0.4875,38.2,-8.75)">
                        <g id="shape15">
                            <path d="M86.75,30.8L82,57.2L60.3,97.25L51.5,101.65L36.3,93.55L20,82.05L0,53.55L0,34.9L18,24.75L31.9,32.15L31.9,22.7L40.35,5.4L61.05,0L76.25,8.1L86.75,30.8" style="fill:rgb(98,210,115);"/>
                        </g>
                    </g>
                    <g id="shape16">
                        <path d="M1.05,-4.75L8.45,-8.7L18.55,-6.1L11.15,-2.15L1.05,-4.75M22.7,6.95L29.45,3.35L38.25,8.3L30.8,12.25L22.05,7.3L22.7,6.95" style="fill:white;fill-opacity:0.55;"/>
                        <path d="M11.15,-2.15L18.55,-6.1L22.7,2.35C20.233,3.683 17.75,5 15.25,6.3L11.15,-2.15M38.25,8.3L38.25,17.4L30.8,21.35L30.8,12.25L38.25,8.3" style="fill:rgb(210,210,210);fill-opacity:0.35;"/>
                        <path d="M1.05,-4.75L11.15,-2.15L4.8,6.5L-4.05,6.3L1.05,-4.75M30.8,12.25L30.8,21.35L25.65,18.45L30.8,12.25M15.25,12.05L18.65,9.7L25.65,18.45L16.05,25L8.9,23.3L8.4,22.5L15.25,12.05" style="fill:white;fill-opacity:0.2;"/>
                        <path d="M22.7,2.35L22.7,6.95L22.05,7.3L18.65,9.7L15.25,12.05L15.25,6.3C17.75,5 20.233,3.683 22.7,2.35M38.25,17.4L28.5,31.3L21.05,35.25L30.8,21.35L38.25,17.4" style="fill-opacity:0.24;"/>
                        <path d="M8.85,38.7L-1.75,19.15L4.8,16.05L8.4,22.5L8.9,23.3L16.05,25L25.65,18.45L30.8,21.35L21.05,35.25L16.05,25L8.85,38.7" style="fill-opacity:0.3;"/>
                        <path d="M13.15,40.85L8.85,38.7L16.05,25L21.05,35.25L13.15,40.85M-1.75,19.15L-4.05,6.3L4.8,6.5L15.25,6.3L15.25,12.05L8.4,22.5L4.8,16.05L-1.75,19.15" style="fill-opacity:0.05;"/>
                        <path d="M28.5,31.3L20.55,36.9L13.15,40.85L21.05,35.25L28.5,31.3" style="fill-opacity:0.5;"/>
                        <path d="M18.55,-6.1L8.45,-8.7L1.05,-4.75L-4.05,6.3L-1.75,19.15L8.85,38.7L13.15,40.85L20.55,36.9L28.5,31.3L38.25,17.4L38.25,8.3L29.45,3.35L22.7,6.95L22.05,7.3M18.55,-6.1L22.7,2.35L22.7,6.95M8.9,23.3L8.4,22.5" style="fill:none;fill-rule:nonzero;stroke:black;stroke-opacity:0.3;stroke-width:0.05px;"/>
                    </g>
                </g>
                <g id="sprite14" transform="matrix(1,0,0,1,-11.05,-7.7)">
                    <g id="shape17">
                        <path d="M0.9,0.05L1.4,0.05L4.35,2.4L4.5,2.75L4.5,3C2.5,2.567 1.233,1.65 0.7,0.25L0.9,0.05" style="fill:rgb(96,92,76);"/>
                        <path d="M5.2,4.4L5.25,4.45L5.2,4.8C4.267,5.3 3.05,5.133 1.55,4.3C0.75,3.1 0.267,2.2 0.1,1.6C1.367,3.833 3,4.767 5,4.4L5.2,4.4" style="fill:rgb(59,56,46);"/>
                        <path d="M5.2,4.4L5,4.4C3,4.767 1.367,3.833 0.1,1.6L0,1.6C0.067,0.933 0.267,0.467 0.6,0.2L0.9,0.05L0.7,0.25C0.433,0.517 0.4,0.717 0.6,0.85C1.2,2.117 2.483,2.833 4.45,3L4.5,3L4.5,2.75L4.35,2.4L4.5,2.5L4.75,2.85L5.2,4.4M0.6,0.2L0.7,0.25L0.6,0.2" style="fill:rgb(69,66,54);"/>
                        <path d="M4.5,3L4.45,3C2.483,2.833 1.2,2.117 0.6,0.85C0.4,0.717 0.433,0.517 0.7,0.25C1.233,1.65 2.5,2.567 4.5,3" style="fill:rgb(143,137,113);"/>
                        <path d="M0.7,0.25L0.6,0.2" style="fill:none;fill-rule:nonzero;stroke:black;stroke-opacity:0.4;stroke-width:0.05px;stroke-linecap:butt;stroke-linejoin:miter;stroke-miterlimit:3;"/>
                    </g>
                </g>
                <g id="sprite15" transform="matrix(1,0,0,1,-6.85,-3.65)">
                    <g id="shape18">
                        <path d="M4.55,-2.35L4.35,-2.45L4.4,-2.55L4.55,-2.35M4.65,-1.95L4.65,-2.15L4.75,-1.95L4.65,-1.9L4.65,-1.95M4.25,1.75L4.2,1.9L4.1,1.9L3.75,1.55L4.25,1.75" style="fill:rgb(102,102,102);"/>
                        <path d="M1,-3.35L1.3,-3.25L1.3,-2.3L1.7,-2.2L3.05,-2.05L3.3,-1.7L4.6,-2.25L4.6,-2.3L4.65,-2.15L4.65,-1.95L3.4,-1.2L0.15,-1.2C0.217,-1.533 0.333,-1.867 0.5,-2.2L0.75,-3.2L1,-3.35M3.75,-1.15L3.7,-0.65L3.7,-0.55L3.5,-0.25L3.2,-0.5L3.2,-0.9L3.75,-1.15M3.75,0.6L3.5,1L3.5,1.1L3.3,1.25L3.1,1.1L3.3,0.4L3.5,0.5L3.6,0.6L3.75,0.6" style="fill:rgb(96,92,76);"/>
                        <path d="M3.4,-1.2L4.65,-1.95L4.65,-1.9L4.75,-1.95L4.75,-1.7L3.7,-1.2L3.75,-1.15L3.2,-0.9L2.7,-0.65L2.7,-0.5L2.6,-0.25C3.333,0.183 4,0.35 4.6,0.25L4.9,0.25L4.6,0.5L3.75,0.6L3.6,0.6L3.5,0.5L3.3,0.4L2.55,0.2L2.55,0.75C2.917,1.283 3.383,1.633 3.95,1.8L3.95,1.75L4.1,1.9L3.85,2.05L0.4,1.15L0,-0.4L0.15,-1.2L2.55,-0.9L2.95,-0.95L3.4,-1.2" style="fill:rgb(59,56,46);"/>
                        <path d="M3.95,1.75L3.95,1.8C3.383,1.633 2.917,1.283 2.55,0.75L2.55,0.2L3.3,0.4L3.1,1.1L3.3,1.25L3.45,1.3L3.75,1.5L3.75,1.55L3.95,1.75M3.2,-0.9L3.2,-0.5L3.5,-0.25L4.5,0L4.6,0.25C4,0.35 3.333,0.183 2.6,-0.25L2.7,-0.5L2.7,-0.65L3.2,-0.9" style="fill:rgb(69,66,54);"/>
                        <path d="M4.6,-2.3L4.6,-2.25L3.3,-1.7L3.05,-2.05L1.7,-2.2L1.3,-2.3L1.3,-3.25L1,-3.35C1.267,-3.517 1.5,-3.517 1.7,-3.35L1.7,-2.3L3.7,-2.2L3.75,-2.2L3.85,-2.3L4.35,-2.45L4.55,-2.35L4.6,-2.3M0.15,-1.2L3.4,-1.2L2.95,-0.95L2.55,-0.9L0.15,-1.2M3.7,-0.55L4.9,-0.25L4.9,0.25L4.6,0.25L4.5,0L3.5,-0.25L3.7,-0.55M3.5,1.1L4.2,1.4L4.25,1.75L3.75,1.55L3.75,1.5L3.45,1.3L3.3,1.25L3.5,1.1" style="fill:rgb(143,137,113);"/>
                        <path d="M4.2,1.9L4.1,1.9" style="fill:none;fill-rule:nonzero;stroke:rgb(0,255,0);stroke-width:0.05px;stroke-linecap:butt;stroke-linejoin:miter;stroke-miterlimit:3;"/>
                    </g>
                </g>
                <g id="sprite16" transform="matrix(1,0,0,1,6.45,-8)">
                    <g id="shape19">
                        <path d="M-2.4,3.15L-2.4,2.9L-2.15,2.65L-2.25,2.9L-2.4,3.15M-2.95,-0.75L-2.85,-0.95L-2.9,-0.8L-2.9,-0.75L-2.95,-0.75" style="fill:rgb(102,102,102);"/>
                        <path d="M-2,2.05L-1.9,2.05L-2.05,1.65L-2.05,1.55L-2,1.5L-1.8,1.5L-1.75,2.05L-1.8,2.25L-2,2.05M-2.95,1.55L-2.95,1.4L-2.7,1.25L-2.7,1.5L-2.95,1.55M-2.05,0.5L-2.15,0.4L-2.15,-0.15L-1.8,0L-1.8,0.5L-2,0.75L-2.05,0.5M-2.85,-0.95L-2.8,-1.15L-2.75,-1.15L-1.8,-0.8L-1.65,-1.15L-0.6,-1.65L-0.5,-2.7L-0.35,-2.95L-0.2,-2.8L0.3,-0.9L-1.65,-0.05L-2.9,-0.8L-2.85,-0.95" style="fill:rgb(96,92,76);"/>
                        <path d="M0.3,-0.9L0.5,-0.05L0.15,1.55L-2.25,3.15L-2.4,3.15L-2.25,2.9C-1.917,2.667 -1.617,2.25 -1.35,1.65L-1.35,1L-2,1.5L-2.05,1.55L-2.05,1.65L-2.7,1.75L-2.95,1.55L-2.7,1.5C-2.267,1.5 -1.817,1.2 -1.35,0.6L-1.4,0.35L-1.5,0.2L-1.8,0L-2.15,-0.15L-2.15,-0.25L-2.9,-0.5L-2.95,-0.75L-2.9,-0.75L-2.9,-0.8L-1.65,-0.05L-1.4,-0.05L-0.4,-0.45L0.3,-0.9" style="fill:rgb(59,56,46);"/>
                        <path d="M-2,0.75L-1.8,0.5L-1.8,0L-1.5,0.2L-1.4,0.35L-1.35,0.6C-1.817,1.2 -2.267,1.5 -2.7,1.5L-2.7,1.25L-2,0.75M-2,1.5L-1.35,1L-1.35,1.65C-1.617,2.25 -1.917,2.667 -2.25,2.9L-2.15,2.65L-1.9,2.3L-1.8,2.25L-1.75,2.05L-1.8,1.5L-2,1.5" style="fill:rgb(69,66,54);"/>
                        <path d="M-2.4,2.9L-2.4,2.55L-2,2.05L-1.8,2.25L-1.9,2.3L-2.15,2.65L-2.4,2.9M-2.95,1.4L-2.95,1L-2.05,0.5L-2,0.75L-2.7,1.25L-2.95,1.4M-2.8,-1.15L-2.75,-1.15L-2.65,-1.4L-2.55,-1.3L-2.3,-1.2L-2.15,-1.2L-0.75,-1.7L-0.85,-2.7C-0.683,-2.967 -0.517,-3.05 -0.35,-2.95L-0.5,-2.7L-0.6,-1.65L-1.65,-1.15L-1.8,-0.8L-2.75,-1.15L-2.8,-1.15M0.3,-0.9L-0.4,-0.45L-1.4,-0.05L-1.65,-0.05L0.3,-0.9" style="fill:rgb(143,137,113);"/>
                    </g>
                </g>
            </g>
        </g>
    </g>
</svg>
