<?xml version="1.0" encoding="UTF-8" standalone="no"?>
<!DOCTYPE svg PUBLIC "-//W3C//DTD SVG 1.1//EN" "http://www.w3.org/Graphics/SVG/1.1/DTD/svg11.dtd">
<svg width="100%" height="100%" viewBox="0 0 24 25" version="1.1" xmlns="http://www.w3.org/2000/svg" xmlns:xlink="http://www.w3.org/1999/xlink" xml:space="preserve" xmlns:serif="http://www.serif.com/" style="fill-rule:evenodd;clip-rule:evenodd;stroke-linecap:round;stroke-linejoin:round;">
    <g id="sprite0" transform="matrix(1,0,0,1,0.35,0.45)">
        <g>
            <g id="shape0">
                <path d="M12.6,3.35L14.55,5.3L15.35,6.4L16.2,8.65L16.3,8.45L16.4,8.6L16.55,8.75L16.65,8.9L16.7,9L16.7,9.05L16.75,9.1L16.75,9.15L16.8,9.4L22.65,9.95L16.95,11.35L17.25,11.7L17.25,11.85L17.15,11.9L17.2,12.75L17.9,13.15L17.75,13.2L19.3,14.3L17.25,13.85L17.2,14.35L17.15,14.35L16.9,16.3L16.15,17.2L15.95,17.9L15.75,17.6L13.45,19.4L9.8,19.4L9.7,19.5C9.3,20.033 8.783,20.45 8.15,20.75C7.883,20.95 7.617,20.95 7.35,20.75L5.05,18.95C4.883,18.817 4.883,18.667 5.05,18.5L5.85,17.95L5.25,17.5L5.15,17.55L5.1,17.6L5.1,17.5L5.2,17.4L4.15,16.45L3.9,15.5C3.7,15.567 3.467,15.483 3.2,15.25C1.533,15.483 0.683,15.333 0.65,14.8L0.15,11.25L0.45,10.3L0.6,10L1,10.05L1.95,11.15L1.35,11.55L2.05,12.85L3.5,11.45C3.667,11.317 4.033,11.5 4.6,12L4.9,12.1L5,12.05L6.2,11.5L6.2,11.45L6.3,11.4L6.35,11.15L6.35,10.95L4.8,9.8L5,7.85L5.25,6.55C7.75,5.15 10.2,4.083 12.6,3.35M13.3,1.8L14.15,2.85L14.6,3.65L12.3,2L12.3,2.05L10.6,2.35L10.55,2.35L10.6,2.45L10.65,2.45L10.85,2.65L9.1,3.1L8.95,2.9L8.65,2.55C8.217,2.05 8.033,1.667 8.1,1.4L8.3,1.2L8.65,1L8.8,0.95L11.1,0.05L13.3,1.8M17.4,18.15L17.2,19.6C17,20.433 16.667,21.267 16.2,22.1L13.8,22.7L13.55,22.65L13.15,22.7L12.9,22.7C12.733,22.467 12.7,22.033 12.8,21.4L12.9,20.9L12.95,20.7C13.55,20.4 14.1,20.217 14.6,20.15L14.5,20.45L16.15,19.9L16.15,19.85L17.35,17.3L17.4,18.15" style="fill:rgb(40,10,2);"/>
                <path d="M13.3,1.8L11.1,0.05L8.8,0.95L8.65,1L8.3,1.2L8.1,1.4C8.033,1.667 8.217,2.05 8.65,2.55L8.95,2.9L9.1,3.1L10.85,2.65L10.65,2.45L10.6,2.45L10.55,2.35L10.6,2.35L12.3,2.05L12.3,2L14.6,3.65L14.15,2.85L13.3,1.8M12.6,3.35C10.2,4.083 7.75,5.15 5.25,6.55L5,7.85L4.8,9.8L6.35,10.95L6.35,11.15L6.3,11.4L6.2,11.45L6.2,11.5L5,12.05L4.9,12.1L4.6,12C4.033,11.5 3.667,11.317 3.5,11.45L2.05,12.85L1.35,11.55L1.95,11.15L1,10.05L0.6,10L0.45,10.3L0.15,11.25L0.65,14.8C0.683,15.333 1.533,15.483 3.2,15.25C3.467,15.483 3.7,15.567 3.9,15.5L4.15,16.45L5.2,17.4L5.1,17.5L5.1,17.6L5.15,17.55L5.25,17.5L5.85,17.95L5.05,18.5C4.883,18.667 4.883,18.817 5.05,18.95L7.35,20.75C7.617,20.95 7.883,20.95 8.15,20.75C8.783,20.45 9.3,20.033 9.7,19.5L9.8,19.4L13.45,19.4L15.75,17.6L15.95,17.9L16.15,17.2L16.9,16.3L17.15,14.35L17.2,14.35L17.25,13.85L19.3,14.3L17.75,13.2L17.9,13.15L17.2,12.75L17.15,11.9L17.25,11.85L17.25,11.7L16.95,11.35L22.65,9.95L16.8,9.4L16.75,9.15L16.75,9.1L16.7,9.05L16.7,9L16.65,8.9L16.55,8.75L16.4,8.6L16.3,8.45L16.2,8.65L15.35,6.4L14.55,5.3L12.6,3.35M17.4,18.15L17.2,19.6C17,20.433 16.667,21.267 16.2,22.1L13.8,22.7L13.55,22.65L13.15,22.7L12.9,22.7C12.733,22.467 12.7,22.033 12.8,21.4L12.9,20.9L12.95,20.7C13.55,20.4 14.1,20.217 14.6,20.15L14.5,20.45L16.15,19.9L16.15,19.85L17.35,17.3L17.4,18.15Z" style="fill:none;fill-rule:nonzero;stroke:rgb(40,10,2);stroke-width:1px;"/>
                <path d="M14.7,15.8L14.15,17.25C13.85,17.95 13.4,18.517 12.8,18.95C12.567,19.183 12.3,19.183 12,18.95L9.45,16.6C9.25,16.4 9.217,16.2 9.35,16L11.2,14.05L12.25,14.75L14.7,15.8M11.8,16.3L12.2,16.85C12.6,16.717 12.917,16.383 13.15,15.85L12.25,14.75L13.15,15.85C12.917,16.383 12.6,16.717 12.2,16.85L11.8,16.3" style="fill:rgb(169,212,225);"/>
                <path d="M14.7,15.8L14.15,17.25C13.85,17.95 13.4,18.517 12.8,18.95C12.567,19.183 12.3,19.183 12,18.95L9.45,16.6C9.25,16.4 9.217,16.2 9.35,16L11.2,14.05L12.25,14.75L13.15,15.85C12.917,16.383 12.6,16.717 12.2,16.85L11.8,16.3" style="fill:none;fill-rule:nonzero;stroke:rgb(50,63,68);stroke-opacity:0.55;stroke-width:0.3px;"/>
                <path d="M0.45,10.3L0.6,10L1,10.05L1.95,11.15L1.35,11.55C1.35,11.083 1.05,10.667 0.45,10.3M4.8,12.2C4.133,12.1 3.4,12.667 2.6,13.9L1.7,13.45L1.35,11.55L2.05,12.85L3.5,11.45C3.7,11.283 4.133,11.533 4.8,12.2M1.7,13.45L2.05,12.85L1.7,13.45" style="fill:rgb(208,240,248);"/>
                <path d="M0.45,10.3C1.05,10.667 1.35,11.083 1.35,11.55L0.9,11.2L1.35,11.55L1.7,13.45L2.6,13.9C3.4,12.667 4.133,12.1 4.8,12.2L5.45,12.9L3.5,15.2C1.633,15.5 0.683,15.367 0.65,14.8L0.15,11.25L0.45,10.3" style="fill:rgb(169,212,225);"/>
                <path d="M1.35,11.55L1.95,11.15L1,10.05L0.6,10L0.45,10.3L0.15,11.25L0.65,14.8C0.683,15.367 1.633,15.5 3.5,15.2L5.45,12.9L4.8,12.2C4.133,11.533 3.7,11.283 3.5,11.45L2.05,12.85L1.7,13.45M1.35,11.55L0.9,11.2M1.35,11.55L2.05,12.85" style="fill:none;fill-rule:nonzero;stroke:rgb(50,63,68);stroke-opacity:0.55;stroke-width:0.3px;"/>
                <path d="M4.95,12.15L5.15,12.25L4.9,12.15L4.95,12.15M5.2,13.45L4.9,14.1C4.267,14.033 3.817,13.883 3.55,13.65L3.1,13.1C4.233,12.533 4.933,12.65 5.2,13.45" style="fill:rgb(229,169,19);"/>
                <path d="M3.1,13.1L4.4,12L4.95,12.15L4.9,12.15L5.15,12.25L5.45,12.7L5.2,13.4L5.2,13.45C4.933,12.65 4.233,12.533 3.1,13.1" style="fill:rgb(255,226,67);"/>
                <path d="M4.9,14.1L4.05,15.4C3.783,15.6 3.45,15.5 3.05,15.1C2.95,14.467 2.967,13.8 3.1,13.1L3.55,13.65C3.817,13.883 4.267,14.033 4.9,14.1" style="fill:rgb(179,102,12);"/>
                <path d="M3.1,13.1L4.4,12L4.95,12.15L5.15,12.25L5.45,12.7L5.2,13.4L5.2,13.45L4.9,14.1L4.05,15.4C3.783,15.6 3.45,15.5 3.05,15.1C2.95,14.467 2.967,13.8 3.1,13.1Z" style="fill:none;fill-rule:nonzero;stroke:black;stroke-opacity:0.3;stroke-width:0.3px;"/>
                <path d="M17.95,16.2C17.383,18.8 16.083,20.85 14.05,22.35C11.95,23.883 9.717,24.417 7.35,23.95C5.017,23.55 3.217,22.283 1.95,20.15C0.683,17.983 0.333,15.6 0.9,13C1.467,10.4 2.783,8.35 4.85,6.85C6.883,5.317 9.083,4.783 11.45,5.25C13.817,5.683 15.633,6.967 16.9,9.1C18.133,11.233 18.483,13.6 17.95,16.2" style="fill:url(#_Radial1);"/>
                <path d="M17.15,11.85C17.217,13.45 17.133,14.933 16.9,16.3C15.967,17.467 14.817,18.5 13.45,19.4L8.35,19.4C6.883,18.767 5.483,17.783 4.15,16.45L3.85,15C3.817,14.4 3.917,13.883 4.15,13.45L6.8,11.55L15.3,9.85L17.15,11.85" style="fill:rgb(169,212,225);"/>
                <path d="M17.15,11.85C17.217,13.45 17.133,14.933 16.9,16.3C15.967,17.467 14.817,18.5 13.45,19.4L8.35,19.4C6.883,18.767 5.483,17.783 4.15,16.45L3.85,15C3.817,14.4 3.917,13.883 4.15,13.45L6.8,11.55L15.3,9.85L17.15,11.85Z" style="fill:none;fill-rule:nonzero;stroke:rgb(50,63,68);stroke-opacity:0.55;stroke-width:0.3px;"/>
                <path d="M13.3,1.8L14.15,2.85L12.3,1.5L10.25,2.05L10.05,1.85L10.1,2.65L8.95,2.9L8.65,2.55L9.1,1.35L11.3,0.9L13.3,1.8" style="fill:rgb(208,240,248);"/>
                <path d="M8.95,2.9L10.1,2.65L10.05,1.85L10.25,2.05L12.3,1.5L14.15,2.85L14.6,3.65L12.3,2L12.3,2.05L10.6,2.35L10.55,2.35L10.6,2.45L10.65,2.45L10.85,2.65L9.1,3.1L8.95,2.9M10.25,2.05L10.55,2.35L10.25,2.05" style="fill:rgb(239,250,254);"/>
                <path d="M13.3,1.8L11.3,0.9L9.1,1.35L8.65,2.55C8.217,2.05 8.033,1.667 8.1,1.4L8.3,1.2L8.65,1L8.8,0.95L11.1,0.05L13.3,1.8" style="fill:rgb(151,199,215);"/>
                <path d="M14.15,2.85L13.3,1.8L11.1,0.05L8.8,0.95L8.65,1L8.3,1.2L8.1,1.4C8.033,1.667 8.217,2.05 8.65,2.55L8.95,2.9L9.1,3.1L10.85,2.65L10.65,2.45L10.6,2.45L10.55,2.35L10.05,1.85M14.15,2.85L14.6,3.65L12.3,2L12.3,2.05L10.6,2.35L10.55,2.35" style="fill:none;fill-rule:nonzero;stroke:rgb(50,63,68);stroke-opacity:0.55;stroke-width:0.3px;"/>
                <path d="M12.9,20.9L12.95,20.7C13.55,20.4 14.1,20.217 14.6,20.15L14.5,20.45L16.15,19.9L16.15,19.85L17.35,17.3L17.4,18.15L16.4,20.3L14.45,20.95L14.35,21.25L14.05,20.55L12.9,20.9M14.5,20.45L14.5,20.55L14.45,20.95L14.5,20.55L14.5,20.45" style="fill:rgb(239,250,254);"/>
                <path d="M17.4,18.15L17.2,19.6L15.95,21.4L13.8,22.15L12.8,21.4L12.9,20.9L14.05,20.55L14.35,21.25L14.45,20.95L16.4,20.3L17.4,18.15" style="fill:rgb(208,240,248);"/>
                <path d="M17.2,19.6C17,20.433 16.667,21.267 16.2,22.1L13.8,22.7L13.55,22.65L13.15,22.7L12.9,22.7C12.733,22.467 12.7,22.033 12.8,21.4L13.8,22.15L15.95,21.4L17.2,19.6" style="fill:rgb(151,199,215);"/>
                <path d="M12.9,20.9L12.95,20.7C13.55,20.4 14.1,20.217 14.6,20.15L14.5,20.45L16.15,19.9L16.15,19.85L17.35,17.3L17.4,18.15L17.2,19.6C17,20.433 16.667,21.267 16.2,22.1L13.8,22.7L13.55,22.65L13.15,22.7L12.9,22.7C12.733,22.467 12.7,22.033 12.8,21.4L12.9,20.9M14.35,21.25L14.45,20.95L14.5,20.55L14.5,20.45" style="fill:none;fill-rule:nonzero;stroke:rgb(50,63,68);stroke-opacity:0.55;stroke-width:0.3px;"/>
                <path d="M12.9,17C12.467,17.533 12,17.8 11.5,17.8C11.233,17.8 11,17.7 10.8,17.5L10.55,17.15L10.55,17C10.35,16.533 10.367,15.783 10.6,14.75L13.8,15.3C13.633,15.933 13.333,16.5 12.9,17" style="fill:white;"/>
                <path d="M12.9,17C12.467,17.533 12,17.8 11.5,17.8C11.233,17.8 11,17.7 10.8,17.5L10.55,17.15L10.55,17C10.35,16.533 10.367,15.783 10.6,14.75L13.8,15.3C13.633,15.933 13.333,16.5 12.9,17Z" style="fill:none;fill-rule:nonzero;stroke:rgb(52,69,75);stroke-opacity:0.55;stroke-width:0.5px;"/>
                <path d="M16.45,15.15L16.1,15.8C15.933,16.067 15.75,16.067 15.55,15.8C15.383,15.567 15.267,15.183 15.2,14.65L16.45,12.6L16.5,14.55L16.45,14.7L16.45,15.15" style="fill:white;"/>
                <path d="M16.45,15.15L16.45,14.7L16.5,14.55L16.45,12.6L15.2,14.65C15.267,15.183 15.383,15.567 15.55,15.8C15.75,16.067 15.933,16.067 16.1,15.8L16.45,15.15Z" style="fill:none;fill-rule:nonzero;stroke:rgb(52,69,75);stroke-opacity:0.55;stroke-width:0.5px;"/>
                <path d="M16.25,16.7L15.95,17.9L15.35,17.1L13.8,17.6L13.3,18.95L12.75,18C13.183,16.9 14.35,16.467 16.25,16.7" style="fill:rgb(208,240,248);"/>
                <path d="M16.25,16.7L15.95,17.9L15.35,17.1L13.8,17.6L13.3,18.95L12.75,18" style="fill:none;fill-rule:nonzero;stroke:rgb(52,69,75);stroke-opacity:0.55;stroke-width:0.5px;"/>
                <path d="M17.25,11.85L15.95,12.15L15.8,12.25L17.25,13.35L17.2,14.35L13.85,13.55L12.9,13.95L12.35,17.2L10.9,14.3L9.85,14.3L5.15,17.55L5.1,17.6L5.1,17.5L7.7,13.8L7.55,13.75L4,14.25L4.25,13.4L6.05,11.95L6.5,11.75L6.6,11.55L6.9,11.35L15.4,9.55L17.25,11.7L17.25,11.85" style="fill-opacity:0.3;"/>
                <path d="M5,7.85L5.75,6.9C7.883,5.733 10.183,4.85 12.65,4.25L14.55,5.3L15.35,6.4C15.75,7.067 16.033,7.867 16.2,8.8L15.9,7.65L11.9,10.05L8.25,9.5L8.6,8.2L7.95,7.25C7.55,7.25 7.133,7.383 6.7,7.65L7.25,8.5L4.8,9.8L5,7.85M9.5,7.5L8.6,8.2L9.5,7.5" style="fill:rgb(208,240,248);"/>
                <path d="M4.8,9.8L7.25,8.5L6.7,7.65C7.133,7.383 7.55,7.25 7.95,7.25L8.6,8.2L8.25,9.5L11.9,10.05L15.9,7.65L16.2,8.8C15.733,10.3 14.55,11.233 12.65,11.6L6.35,11.55L6.55,11.05L6.55,11L4.8,9.8M8.6,8.2L7.5,9.45C7.133,9.917 6.817,10.45 6.55,11.05C6.817,10.45 7.133,9.917 7.5,9.45L8.6,8.2" style="fill:rgb(169,212,225);"/>
                <path d="M14.55,5.3L12.65,4.25C10.183,4.85 7.883,5.733 5.75,6.9L5,7.85L5.25,6.55C7.75,5.15 10.2,4.083 12.6,3.35L14.55,5.3" style="fill:rgb(239,250,254);"/>
                <path d="M14.55,5.3L12.6,3.35C10.2,4.083 7.75,5.15 5.25,6.55L5,7.85L4.8,9.8L6.55,11L6.55,11.05C6.817,10.45 7.133,9.917 7.5,9.45L8.6,8.2L9.5,7.5M6.7,7.65C7.133,7.383 7.55,7.25 7.95,7.25L8.6,8.2M16.2,8.8C15.733,10.3 14.55,11.233 12.65,11.6L6.35,11.55L6.55,11.05M16.2,8.8C16.033,7.867 15.75,7.067 15.35,6.4L14.55,5.3" style="fill:none;fill-rule:nonzero;stroke:rgb(50,63,68);stroke-opacity:0.55;stroke-width:0.3px;"/>
                <path d="M6.35,11L6.4,10.75L6.5,10.55L6.6,10.45L7.25,10.85L7.7,11L8.4,11.2L9.2,11.3L11.55,11.15C13.05,10.85 14.283,10.333 15.25,9.6L15.75,9.2L16.3,8.45L16.4,8.6L16.55,8.75L16.65,8.9L15.95,9.8L15.55,10.1C14.55,10.867 13.25,11.4 11.65,11.7L9.2,11.85L8.4,11.75L7.85,11.7L7.8,11.7L6.5,11.1L6.35,11" style="fill:rgb(255,226,67);"/>
                <path d="M16.65,8.9L16.7,9L16.7,9.05L16.75,9.1L16.75,9.15L16.85,9.75L15.7,11C14.667,11.767 13.367,12.3 11.8,12.6L9.2,12.8L7.65,12.45C7.183,12.317 6.817,12.15 6.55,11.95L6.35,11.75L6.3,11.5L6.35,11.15L6.35,11L6.5,11.1L7.8,11.7L7.85,11.7L8.4,11.75L9.2,11.85L11.65,11.7C13.25,11.4 14.55,10.867 15.55,10.1L15.95,9.8L16.65,8.9" style="fill:rgb(229,169,19);"/>
                <path d="M16.85,9.75C16.85,10.45 16.417,11.133 15.55,11.8C14.617,12.6 13.4,13.117 11.9,13.35L9.2,13.5L7.95,13.2C7.117,12.933 6.583,12.517 6.35,11.95L6.35,11.75L6.55,11.95C6.817,12.15 7.183,12.317 7.65,12.45L9.2,12.8L11.8,12.6C13.367,12.3 14.667,11.767 15.7,11L16.85,9.75" style="fill:rgb(179,102,12);"/>
                <path d="M6.35,11L6.4,10.75L6.5,10.55L6.6,10.45L7.25,10.85L7.7,11L8.4,11.2L9.2,11.3L11.55,11.15C13.05,10.85 14.283,10.333 15.25,9.6L15.75,9.2L16.3,8.45L16.4,8.6L16.55,8.75L16.65,8.9L16.7,9L16.7,9.05L16.75,9.1L16.75,9.15L16.85,9.75C16.85,10.45 16.417,11.133 15.55,11.8C14.617,12.6 13.4,13.117 11.9,13.35L9.2,13.5L7.95,13.2C7.117,12.933 6.583,12.517 6.35,11.95L6.35,11.75L6.3,11.5L6.35,11.15L6.35,11Z" style="fill:none;fill-rule:nonzero;stroke:black;stroke-opacity:0.3;stroke-width:0.3px;"/>
                <path d="M12.6,12.35L12.65,12.35L12.8,13.35L12.25,16.65L10.7,13.7L10.55,12.7L10.6,12.7L12.05,15.55L12.6,12.35" style="fill:rgb(179,102,12);"/>
                <path d="M12.6,12.35L12.05,15.55L11.9,14.5L12.15,12.65L11.65,12.75L11.6,12.55L12.6,12.35" style="fill:url(#_Linear2);"/>
                <path d="M12.05,15.55L10.6,12.7L11.6,12.55L11.65,12.75L12.15,12.65L11.9,14.5L12.05,15.55" style="fill:rgb(229,169,19);"/>
                <path d="M10.7,13.7L12.25,16.65L12.8,13.35" style="fill:none;fill-rule:nonzero;stroke:black;stroke-opacity:0.3;stroke-width:0.3px;"/>
                <path d="M12.35,13L12.35,13.75L12.15,14.9L12,15.3L11.95,15.25L11.65,14.8L11.2,13.75L10.95,13.1L10.9,12.9L12.3,12.65L12.35,13" style="fill:rgb(255,226,67);"/>
                <path d="M10.3,13.75L5.25,17.1L6.1,15.9L10.2,13.2L10.3,13.75" style="fill:rgb(179,102,12);"/>
                <path d="M6.1,15.9L8.6,12.35L10.15,12.85L10.2,13.2L6.1,15.9" style="fill:rgb(229,169,19);"/>
                <path d="M10.3,13.75L5.25,17.1L6.1,15.9L8.6,12.35" style="fill:none;fill-rule:nonzero;stroke:black;stroke-opacity:0.3;stroke-width:0.3px;"/>
                <path d="M6.4,15.35L6.9,14.65L8,13.4L8.55,12.6L9.45,13.25L8.85,13.8L7.3,14.85L6.4,15.35" style="fill:rgb(255,226,67);"/>
                <path d="M7.85,13.25L0.7,14.15L2.55,13.25L7.9,12.7L7.85,13.25" style="fill:rgb(179,102,12);"/>
                <path d="M2.55,13.25L6.75,11.2L7.9,12.4L7.9,12.7L2.55,13.25" style="fill:rgb(229,169,19);"/>
                <path d="M7.85,13.25L0.7,14.15L2.55,13.25L6.75,11.2" style="fill:none;fill-rule:nonzero;stroke:black;stroke-opacity:0.3;stroke-width:0.3px;"/>
                <path d="M5,12.2L6.1,11.75L6.2,11.65L6.95,12.4L7.2,12.45L6.25,12.55L4,12.95C3.3,13.117 3.1,13.117 3.4,12.95L5,12.2" style="fill:rgb(255,226,67);"/>
                <path d="M18.15,13.5L13.45,12.4L13.4,12.05L14.65,11.05L18.15,13.5" style="fill:rgb(229,169,19);"/>
                <path d="M18.15,13.5L19.3,14.3L13.55,12.95L13.45,12.4L18.15,13.5" style="fill:rgb(179,102,12);"/>
                <path d="M13.55,12.95L19.3,14.3L18.15,13.5L14.65,11.05" style="fill:none;fill-rule:nonzero;stroke:black;stroke-opacity:0.3;stroke-width:0.3px;"/>
                <path d="M17.9,13.3L16.9,13.2L15.15,12.75L14.45,12.4L15.05,11.55L15.8,12.05L17.2,12.9L17.9,13.3" style="fill:rgb(255,226,67);"/>
                <path d="M20.7,9.75L15.45,11.1L15.35,10.8L16.1,9.3L20.7,9.75" style="fill:rgb(229,169,19);"/>
                <path d="M20.7,9.75L22.65,9.95L15.7,11.65L15.45,11.1L20.7,9.75" style="fill:rgb(179,102,12);"/>
                <path d="M15.7,11.65L22.65,9.95L20.7,9.75L16.1,9.3" style="fill:none;fill-rule:nonzero;stroke:black;stroke-opacity:0.3;stroke-width:0.3px;"/>
                <path d="M19.7,9.75C20.067,9.783 19.9,9.85 19.2,9.95L16.95,10.35L16.25,10.55L16.25,10.5L16.7,9.55L18,9.6L19.7,9.75" style="fill:rgb(255,226,67);"/>
                <path d="M5.65,18.05L7.05,17C7.35,17.067 7.667,17.25 8,17.55L10.35,18.35L9.7,19.5L8.15,20L5.65,18.05M7.45,18.7L7.8,19.15L8.85,18.35L8,17.55L8.85,18.35L7.8,19.15L7.45,18.7" style="fill:rgb(208,240,248);"/>
                <path d="M9.7,19.5C9.3,20.033 8.783,20.45 8.15,20.75C7.883,20.95 7.617,20.95 7.35,20.75L5.05,18.95C4.883,18.817 4.883,18.667 5.05,18.5L5.65,18.05L8.15,20L9.7,19.5" style="fill:rgb(169,212,225);"/>
                <path d="M5.65,18.05L7.05,17C7.35,17.067 7.667,17.25 8,17.55L8.85,18.35L7.8,19.15L7.45,18.7M10.35,18.35L9.7,19.5C9.3,20.033 8.783,20.45 8.15,20.75C7.883,20.95 7.617,20.95 7.35,20.75L5.05,18.95C4.883,18.817 4.883,18.667 5.05,18.5L5.65,18.05" style="fill:none;fill-rule:nonzero;stroke:rgb(50,63,68);stroke-opacity:0.55;stroke-width:0.5px;"/>
            </g>
        </g>
    </g>
    <defs>
        <radialGradient id="_Radial1" cx="0" cy="0" r="1" gradientUnits="userSpaceOnUse" gradientTransform="matrix(-9.33888,-1.72032,-1.88416,8.84736,9.45,14.15)"><stop offset="0" style="stop-color:rgb(208,240,248);stop-opacity:0.55"/><stop offset="0.27" style="stop-color:rgb(208,240,248);stop-opacity:0.55"/><stop offset="0.95" style="stop-color:rgb(208,240,248);stop-opacity:0"/><stop offset="1" style="stop-color:rgb(208,240,248);stop-opacity:0"/></radialGradient>
        <linearGradient id="_Linear2" x1="0" y1="0" x2="1" y2="0" gradientUnits="userSpaceOnUse" gradientTransform="matrix(0.8192,0.16384,-0.16384,0.8192,11.8867,13.4428)"><stop offset="0" style="stop-color:rgb(229,169,19);stop-opacity:1"/><stop offset="0.54" style="stop-color:rgb(229,169,19);stop-opacity:1"/><stop offset="1" style="stop-color:rgb(177,100,12);stop-opacity:1"/></linearGradient>
    </defs>
</svg>
