<?xml version="1.0" encoding="UTF-8" standalone="no"?>
<!DOCTYPE svg PUBLIC "-//W3C//DTD SVG 1.1//EN" "http://www.w3.org/Graphics/SVG/1.1/DTD/svg11.dtd">
<svg width="100%" height="100%" viewBox="0 0 24 23" version="1.1" xmlns="http://www.w3.org/2000/svg" xmlns:xlink="http://www.w3.org/1999/xlink" xml:space="preserve" xmlns:serif="http://www.serif.com/" style="fill-rule:evenodd;clip-rule:evenodd;stroke-linecap:round;stroke-linejoin:round;">
    <g transform="matrix(1,0,0,1,0.0237288,0)">
        <g id="sprite0" transform="matrix(1,0,0,1,0.5,0.5)">
            <g>
                <g id="shape0">
                    <path d="M21.75,4.9C21.95,5.267 22.033,5.7 22,6.2C21.9,6.867 21.583,7.483 21.05,8.05L20.55,8.4L20.65,8.75L20.85,10.7C20.85,11.933 20.6,13.083 20.1,14.15L20.25,14.05L20.2,16.85L19.9,16.9L20.05,17.65L20.05,17.75L20,18.05L19.75,18.4L19.35,18.75L18.25,19.2L16.4,19.25L15.5,19.05C14.967,18.883 14.5,18.65 14.1,18.35L13.1,18.4L13.05,18.4L13.2,19.25L13.15,19.8L12.45,20.95L12.2,21.15C11.667,21.483 11.083,21.65 10.45,21.65L10.35,21.65L8.8,21.25L7.95,20.6C7.65,20.2 7.5,19.75 7.5,19.25L7.6,18.65L8.4,17.5L8.85,17.15L8.45,16.85L8.35,16.9L7.75,16.5L7.65,16.15L7.2,15.7L6.05,16.1C5.25,16.133 4.583,15.983 4.05,15.65C3.45,15.317 3.133,14.867 3.1,14.3C3.033,14 3.083,13.683 3.25,13.35L3.7,12.8L1.2,12.85C-0.067,12.583 -0.35,11.883 0.35,10.75L1.55,9.1C3.85,6.2 6.167,4.667 8.5,4.5C9.333,3.833 10.283,3.383 11.35,3.15L11.8,3.1L12.2,2.65C13.7,1.117 16.333,0.233 20.1,0C21.1,0.033 21.617,0.417 21.65,1.15L21.55,1.75L20.25,4.1L21.5,4.6L21.75,4.9" style="fill:rgb(40,10,2);"/>
                    <path d="M21.75,4.9C21.95,5.267 22.033,5.7 22,6.2C21.9,6.867 21.583,7.483 21.05,8.05L20.55,8.4L20.65,8.75L20.85,10.7C20.85,11.933 20.6,13.083 20.1,14.15L20.25,14.05L20.2,16.85L19.9,16.9L20.05,17.65L20.05,17.75L20,18.05L19.75,18.4L19.35,18.75L18.25,19.2L16.4,19.25L15.5,19.05C14.967,18.883 14.5,18.65 14.1,18.35L13.1,18.4L13.05,18.4L13.2,19.25L13.15,19.8L12.45,20.95L12.2,21.15C11.667,21.483 11.083,21.65 10.45,21.65L10.35,21.65L8.8,21.25L7.95,20.6C7.65,20.2 7.5,19.75 7.5,19.25L7.6,18.65L8.4,17.5L8.85,17.15L8.45,16.85L8.35,16.9L7.75,16.5L7.65,16.15L7.2,15.7L6.05,16.1C5.25,16.133 4.583,15.983 4.05,15.65C3.45,15.317 3.133,14.867 3.1,14.3C3.033,14 3.083,13.683 3.25,13.35L3.7,12.8L1.2,12.85C-0.067,12.583 -0.35,11.883 0.35,10.75L1.55,9.1C3.85,6.2 6.167,4.667 8.5,4.5C9.333,3.833 10.283,3.383 11.35,3.15L11.8,3.1L12.2,2.65C13.7,1.117 16.333,0.233 20.1,0C21.1,0.033 21.617,0.417 21.65,1.15L21.55,1.75L20.25,4.1L21.5,4.6L21.75,4.9Z" style="fill:none;fill-rule:nonzero;stroke:rgb(40,10,2);stroke-width:1px;"/>
                    <path d="M21.75,4.9C21.95,5.267 22.033,5.7 22,6.2C21.9,6.867 21.583,7.483 21.05,8.05L19.75,8.85L19.15,9L18.9,8.95L18.55,9L17.6,8.5L17.35,8.3C19.683,7.7 21.15,6.567 21.75,4.9" style="fill:rgb(31,183,218);"/>
                    <path d="M17.1,7.25L17.15,6.9C17.217,6.2 17.533,5.583 18.1,5.05L18.55,4.7C18.95,4.367 19.417,4.167 19.95,4.1L20.2,4.1L21.5,4.6L21.75,4.9C21.15,6.567 19.683,7.7 17.35,8.3L17.1,7.25M20.7,5.05C20.8,4.717 20.717,4.483 20.45,4.35L19.45,4.25L18.25,4.95L17.55,6C17.383,6.3 17.45,6.55 17.75,6.75L18.75,6.8L19.85,6.15L20.7,5.05" style="fill:rgb(56,238,249);"/>
                    <path d="M20.7,5.05L19.85,6.15L18.75,6.8L17.75,6.75C17.45,6.55 17.383,6.3 17.55,6L18.25,4.95L19.45,4.25L20.45,4.35C20.717,4.483 20.8,4.717 20.7,5.05" style="fill:rgb(90,239,249);"/>
                    <path d="M19.75,8.85L19.85,8.85L20.4,9.65L20.25,10.3L17.95,10.6L15.75,8.8L16.2,7.3L16.55,7.2L16.5,7.25L16.25,8.4L18,9.95L19,9.85L18.9,8.95L19.15,9L19.75,8.85" style="fill-opacity:0.2;"/>
                    <path d="M16.5,7.25L17.1,7.25L17.35,8.3L17.6,8.5L18.55,9L18.9,8.95L19,9.85L18,9.95L16.25,8.4L16.5,7.25" style="fill-opacity:0.57;"/>
                    <path d="M11.6,18.4L11.8,18.45L12.5,19L11.6,19.75L10.3,19.5L10.55,18.6L11.6,18.4M9.25,19.65L7.95,19.4L8.2,18.5L9.3,18.3L10.2,18.95L9.25,19.65" style="fill:rgb(74,105,109);"/>
                    <path d="M7.6,18.65L10.35,17.8L11.6,18.4L10.55,18.6L10.3,19.5L11.6,19.75L12.5,19L11.8,18.45L12.3,18.7L13.15,19.8L12.45,20.95L12.2,21.15C11.167,21.35 10.5,21.217 10.2,20.75L10.2,20.6L9.35,20.95L7.95,20.6C7.65,20.2 7.5,19.75 7.5,19.25L7.6,18.65M10.2,20.1L10.2,20.6L10.2,20.1M9.25,19.65L10.2,18.95L9.3,18.3L8.2,18.5L7.95,19.4L9.25,19.65M19.75,18.4C18.117,18.767 16.583,18.6 15.15,17.9L15.25,17.5L16.05,15.7L17.7,15.35L19.25,16.15L19.5,16.35C19.933,16.783 20.117,17.217 20.05,17.65L20.05,17.75L20,18.05L19.75,18.4M17.55,16.25C18.817,16.583 19.633,17.183 20,18.05C19.633,17.183 18.817,16.583 17.55,16.25" style="fill:rgb(51,72,75);"/>
                    <path d="M7.6,18.65L8.4,17.5C9,16.933 9.7,16.617 10.5,16.55C11.333,16.517 12,16.8 12.5,17.4C12.967,18 13.2,18.617 13.2,19.25L13.15,19.8L12.3,18.7L11.8,18.45L11.6,18.4L10.35,17.8L7.6,18.65M12.2,21.15C11.667,21.483 11.083,21.65 10.45,21.65L10.35,21.65L8.8,21.25L7.95,20.6L9.35,20.95L10.2,20.6L10.2,20.75C10.5,21.217 11.167,21.35 12.2,21.15M19.75,18.4L19.35,18.75L18.25,19.2L16.4,19.25L15.5,19.05L13.9,18.2C13.167,17.633 12.817,17.067 12.85,16.5C12.85,15.9 13.317,15.5 14.25,15.3L17,15.2L17.7,15.35L16.05,15.7L15.25,17.5L15.15,17.9C16.583,18.6 18.117,18.767 19.75,18.4M10.2,20.75L10.45,21.65L10.2,20.75" style="fill:rgb(30,48,50);"/>
                    <path d="M21.75,4.9C21.95,5.267 22.033,5.7 22,6.2C21.9,6.867 21.583,7.483 21.05,8.05L19.75,8.85L19.15,9L18.9,8.95L18.55,9L17.6,8.5L17.35,8.3L17.1,7.25L17.15,6.9C17.217,6.2 17.533,5.583 18.1,5.05L18.55,4.7C18.95,4.367 19.417,4.167 19.95,4.1L20.2,4.1L21.5,4.6L21.75,4.9M13.15,19.8L13.2,19.25C13.2,18.617 12.967,18 12.5,17.4C12,16.8 11.333,16.517 10.5,16.55C9.7,16.617 9,16.933 8.4,17.5L7.6,18.65L7.5,19.25C7.5,19.75 7.65,20.2 7.95,20.6L8.8,21.25L10.35,21.65L10.45,21.65L10.2,20.75L10.2,20.1M13.15,19.8L12.45,20.95L12.2,21.15C11.667,21.483 11.083,21.65 10.45,21.65M17.7,15.35L17,15.2L14.25,15.3C13.317,15.5 12.85,15.9 12.85,16.5C12.817,17.067 13.167,17.633 13.9,18.2L15.5,19.05L16.4,19.25L18.25,19.2L19.35,18.75L19.75,18.4L20,18.05C19.633,17.183 18.817,16.583 17.55,16.25M17.7,15.35L19.25,16.15L19.5,16.35C19.933,16.783 20.117,17.217 20.05,17.65L20.05,17.75L20,18.05" style="fill:none;fill-rule:nonzero;stroke:black;stroke-opacity:0.3;stroke-width:0.05px;stroke-linecap:butt;stroke-linejoin:miter;stroke-miterlimit:3;"/>
                    <path d="M12.2,2.65C13.7,1.117 16.333,0.233 20.1,0C21.1,0.033 21.617,0.417 21.65,1.15C17.583,3.317 14.433,3.817 12.2,2.65" style="fill:rgb(228,234,235);"/>
                    <path d="M21.65,1.15L21.55,1.75C20.95,3.283 20.067,4.517 18.9,5.45L11.3,3.9L12.2,2.65C14.433,3.817 17.583,3.317 21.65,1.15" style="fill:rgb(200,213,214);"/>
                    <path d="M12.2,2.65C13.7,1.117 16.333,0.233 20.1,0C21.1,0.033 21.617,0.417 21.65,1.15L21.55,1.75C20.95,3.283 20.067,4.517 18.9,5.45L11.3,3.9L12.2,2.65Z" style="fill:none;fill-rule:nonzero;stroke:black;stroke-opacity:0.3;stroke-width:0.05px;"/>
                    <path d="M7.05,5.85L7.65,5.2C8.717,4.133 9.95,3.45 11.35,3.15L13.1,2.95C15.233,2.917 17.067,3.667 18.6,5.2C19.6,6.233 20.283,7.417 20.65,8.75L20.85,10.7C20.85,12.1 20.533,13.367 19.9,14.5L17.5,15.7C16.3,16.167 14.7,16 12.7,15.2C10.733,14.4 9.2,13 8.1,11C7,8.967 6.65,7.25 7.05,5.85" style="fill:rgb(228,234,235);"/>
                    <path d="M7.05,5.85C6.65,7.25 7,8.967 8.1,11C9.2,13 10.733,14.4 12.7,15.2C14.7,16 16.3,16.167 17.5,15.7L19.9,14.5L18.6,16.15C17.067,17.65 15.233,18.4 13.1,18.4C10.967,18.4 9.15,17.65 7.65,16.15C6.117,14.65 5.367,12.833 5.4,10.7C5.367,8.833 5.917,7.217 7.05,5.85" style="fill:rgb(200,213,214);"/>
                    <path d="M19.9,14.5C20.533,13.367 20.85,12.1 20.85,10.7L20.65,8.75C20.283,7.417 19.6,6.233 18.6,5.2C17.067,3.667 15.233,2.917 13.1,2.95L11.35,3.15C9.95,3.45 8.717,4.133 7.65,5.2L7.05,5.85C5.917,7.217 5.367,8.833 5.4,10.7C5.367,12.833 6.117,14.65 7.65,16.15C9.15,17.65 10.967,18.4 13.1,18.4C15.233,18.4 17.067,17.65 18.6,16.15L19.9,14.5Z" style="fill:none;fill-rule:nonzero;stroke:black;stroke-opacity:0.3;stroke-width:0.05px;stroke-linecap:butt;stroke-linejoin:miter;stroke-miterlimit:3;"/>
                    <path d="M8.2,6.3C8.2,5.3 8.75,4.467 9.85,3.8C10.983,3.2 12.317,2.983 13.85,3.15C15.45,3.283 16.783,3.75 17.85,4.55C18.95,5.417 19.5,6.35 19.5,7.35C19.5,8.35 18.95,9.133 17.85,9.7C16.783,10.333 15.45,10.583 13.85,10.45C12.317,10.317 10.983,9.817 9.85,8.95C8.75,8.15 8.2,7.267 8.2,6.3" style="fill:white;"/>
                    <path d="M15.45,5.4C15.583,4.667 15.767,4.017 16,3.45L16.95,3.95C16.583,4.65 16.4,5.433 16.4,6.3C16.433,6.833 16.617,7.15 16.95,7.25L17.1,7.15L17.2,6.8L16.95,6C17.417,6.367 17.667,6.8 17.7,7.3C17.767,7.767 17.7,8.1 17.5,8.3L16.7,8.35L15.85,7.35L15.5,6.45C15.433,6.15 15.417,5.8 15.45,5.4M14.65,7L15.25,7.75C15.55,8.25 15.633,8.717 15.5,9.15C15.4,9.583 15.15,9.867 14.75,10C14.317,10.167 13.9,10.167 13.5,10C13.033,9.767 12.817,9.283 12.85,8.55L13.4,9.15L13.95,9.15L14.1,9.05C14.3,8.583 14.133,8.25 13.6,8.05C11.967,7.55 9.983,7.867 7.65,9L7.65,7.5C9.517,6.7 11.5,6.383 13.6,6.55L14.65,7" style="fill:rgb(56,238,249);"/>
                    <path d="M9.45,6.6C6.217,9.8 3.583,10.633 1.55,9.1C4.017,6 6.5,4.45 9,4.45C9.3,4.983 9.467,5.6 9.5,6.3L9.45,6.6" style="fill:white;"/>
                    <path d="M6.4,12C4.867,12.7 3.133,12.983 1.2,12.85C-0.067,12.583 -0.35,11.883 0.35,10.75L1.55,9.1C3.583,10.633 6.217,9.8 9.45,6.6L9.1,8.35L8.1,10.5L6.4,12" style="fill:rgb(200,213,214);"/>
                    <path d="M1.55,9.1L0.35,10.75C-0.35,11.883 -0.067,12.583 1.2,12.85C3.133,12.983 4.867,12.7 6.4,12M8.1,10.5L9.1,8.35L9.45,6.6L9.5,6.3M1.55,9.1C4.017,6 6.5,4.45 9,4.45" style="fill:none;fill-rule:nonzero;stroke:black;stroke-opacity:0.3;stroke-width:0.05px;"/>
                    <path d="M20.25,14.05L20.2,16.85L13.7,17.4L20.25,14.05" style="fill:rgb(228,234,235);"/>
                    <path d="M20.25,14.05L20.2,16.85L13.7,17.4" style="fill:none;fill-rule:nonzero;stroke:black;stroke-opacity:0.3;stroke-width:0.05px;stroke-linecap:butt;stroke-linejoin:miter;stroke-miterlimit:3;"/>
                    <path d="M19,14.65C19.467,14.683 19.817,14.383 20.05,13.75L20.2,13.55L20.45,12.1C20.583,10.767 20.483,9.433 20.15,8.1C19.183,9.067 18.333,10.483 17.6,12.35L17.7,12.65L17.85,13L18.05,13.65L18.15,13.75C18.417,14.317 18.7,14.617 19,14.65" style="fill:rgb(24,81,83);"/>
                    <path d="M18.1,12.1L18.65,12.9L18.9,12.95C19.267,12.883 19.55,12.583 19.75,12.05L19.85,11.8L20.15,10.55L20.15,8.9C20.35,9.833 20.4,10.783 20.3,11.75L20.05,13L19.9,13.25C19.7,13.783 19.417,14.067 19.05,14.1L18.8,14.1C18.533,13.9 18.25,13.367 17.95,12.5L18.1,12.1" style="fill:rgb(32,184,219);"/>
                    <path d="M20.15,8.9L20.15,10.55L19.85,11.8L19.75,12.05C19.55,12.583 19.267,12.883 18.9,12.95L18.65,12.9L18.1,12.1C18.7,10.633 19.383,9.5 20.15,8.7L20.15,8.9" style="fill:rgb(56,238,249);"/>
                    <path d="M18.1,12.1L17.95,12.5C18.25,13.367 18.533,13.9 18.8,14.1L19.05,14.1C19.417,14.067 19.7,13.783 19.9,13.25L20.05,13L20.3,11.75C20.4,10.783 20.35,9.833 20.15,8.9L20.15,8.7C19.383,9.5 18.7,10.633 18.1,12.1Z" style="fill:none;fill-rule:nonzero;stroke:black;stroke-opacity:0.3;stroke-width:0.05px;"/>
                    <path d="M19.1,11L18.9,10.45L18.05,12.05L18.55,13.05C18.717,13.35 18.883,13.433 19.05,13.3L19.25,12.5L19.1,11" style="fill:rgb(24,81,83);"/>
                    <path d="M19.9,10.75L19.9,11L19.7,11.35L19.4,11.55L19.2,11.5L19.2,11.2L19.45,10.8L19.7,10.65L19.9,10.75" style="fill:white;"/>
                    <path d="M18.9,11.2L18.7,10.7L18.2,11.7L18.2,11.75L18.3,12L18.55,12.5C18.65,12.7 18.75,12.75 18.85,12.65L19,12.15L18.9,11.2" style="fill:rgb(56,238,249);"/>
                    <path d="M18.8,8.8C17.967,9.1 17.55,9.667 17.55,10.5" style="fill:none;fill-rule:nonzero;stroke:black;stroke-opacity:0.3;stroke-width:0.05px;"/>
                    <path d="M16.5,16.1C15.7,16.8 14.85,17.15 13.95,17.15L13.65,17.15C12.983,17.083 12.433,16.9 12,16.6C10.8,16 10.017,15 9.65,13.6C12.117,12.767 14.667,12.417 17.3,12.55L17.35,12.85L17.4,13.2L17.4,14.15C17.333,14.917 17.033,15.567 16.5,16.1" style="fill:rgb(24,81,83);"/>
                    <path d="M17,12.9C16.933,13.5 16.667,14 16.2,14.4C15.5,14.9 14.767,15.15 14,15.15L13.6,15.15L12.2,14.75L10.9,13.7C12.867,13.133 14.9,12.867 17,12.9" style="fill:rgb(56,238,249);"/>
                    <path d="M10.9,13.7L12.2,14.75L13.6,15.15L14,15.15C14.767,15.15 15.5,14.9 16.2,14.4C16.667,14 16.933,13.5 17,12.9L17.05,12.95L17.05,13.25L17.1,14L17,14.05C16.933,14.717 16.667,15.267 16.2,15.7C15.5,16.2 14.767,16.45 14,16.45L13.6,16.45L12.2,16C11.267,15.533 10.633,14.833 10.3,13.9L10.9,13.7" style="fill:rgb(32,184,219);"/>
                    <path d="M10.9,13.7L10.3,13.9C10.633,14.833 11.267,15.533 12.2,16L13.6,16.45L14,16.45C14.767,16.45 15.5,16.2 16.2,15.7C16.667,15.267 16.933,14.717 17,14.05L17.1,14L17.05,13.25L17.05,12.95L17,12.9C14.9,12.867 12.867,13.133 10.9,13.7Z" style="fill:none;fill-rule:nonzero;stroke:black;stroke-opacity:0.3;stroke-width:0.05px;"/>
                    <path d="M13.65,13.75L13.5,13.05L16.15,12.9L16.25,13.1L16.15,14.2C16.05,14.667 15.817,14.967 15.45,15.1C15.083,15.267 14.733,15.2 14.4,14.9C14.067,14.633 13.817,14.25 13.65,13.75" style="fill:rgb(24,81,83);"/>
                    <path d="M12.3,14.15L12.5,14.35L13.15,14.2L13.75,13.9L14.1,13.55C14.1,13.45 14,13.4 13.8,13.4L13.2,13.5L12.55,13.85L12.3,14.15" style="fill:white;"/>
                    <path d="M14.05,13.6L14.05,13L15.65,12.9L15.7,12.9L15.75,13.15L15.75,13.85L15.25,14.45L14.55,14.35L14.05,13.6" style="fill:rgb(56,238,249);"/>
                    <path d="M12.75,11.75C14.417,10.683 15.567,10.417 16.2,10.95" style="fill:none;fill-rule:nonzero;stroke:black;stroke-opacity:0.3;stroke-width:0.05px;"/>
                    <path d="M5.75,12L5.9,11.95L6.05,12L7.05,12.1L7.3,12.1L7.45,12.3L7.85,12.6L7.3,13.1L5.95,13.35L4.6,13.2C4.233,13.067 4.033,12.9 4,12.7C4.033,12.533 4.217,12.383 4.55,12.25L5.75,12L6.05,12L5.75,12" style="fill:white;"/>
                    <path d="M3.25,13.35L3.7,12.75C4.033,12.45 4.45,12.217 4.95,12.05L5.6,12L5.75,12L4.55,12.25C4.217,12.383 4.033,12.533 4,12.7C4.033,12.9 4.233,13.067 4.6,13.2L5.95,13.35L7.3,13.1L7.85,12.6L7.45,12.3L7.6,12.3L7.9,12.55L8.45,13.2L8.6,13.65L8.6,13.7C6,15.067 4.217,14.95 3.25,13.35" style="fill:rgb(228,234,235);"/>
                    <path d="M8.25,12.05L8.2,12.05L8.5,11.85L9.95,12.35L9.95,15.25L8.35,16.9L7.75,16.5L7.45,15.65L7.5,15.55L8.2,15.05L8.75,15.6L9.45,14.9L9.35,12.65L9.3,12.55L8.25,12.05" style="fill-opacity:0.2;"/>
                    <path d="M7.9,12.55L8.25,12.05L9.3,12.55L9.35,12.65L9.45,14.9L8.75,15.6L8.2,15.05L8.35,14.7L8.6,13.7L8.6,13.65L8.45,13.2L7.9,12.55" style="fill-opacity:0.35;"/>
                    <path d="M7.5,15.55L6.05,16.1C5.25,16.133 4.583,15.983 4.05,15.65C3.45,15.317 3.133,14.867 3.1,14.3C3.033,14 3.083,13.683 3.25,13.35C4.217,14.95 6,15.067 8.6,13.7L8.35,14.7L8.2,15.05L7.5,15.55" style="fill:rgb(200,213,214);"/>
                    <path d="M3.25,13.35L3.7,12.75C4.033,12.45 4.45,12.217 4.95,12.05L5.6,12L6.05,12L7.05,12.1M7.45,12.3L7.6,12.3L7.9,12.55L8.45,13.2L8.6,13.65L8.6,13.7L8.35,14.7L8.2,15.05L7.5,15.55L6.05,16.1C5.25,16.133 4.583,15.983 4.05,15.65C3.45,15.317 3.133,14.867 3.1,14.3C3.033,14 3.083,13.683 3.25,13.35" style="fill:none;fill-rule:nonzero;stroke:black;stroke-opacity:0.3;stroke-width:0.05px;stroke-linecap:butt;stroke-linejoin:miter;stroke-miterlimit:3;"/>
                </g>
            </g>
        </g>
    </g>
</svg>
