<?xml version="1.0" encoding="UTF-8" standalone="no"?>
<!DOCTYPE svg PUBLIC "-//W3C//DTD SVG 1.1//EN" "http://www.w3.org/Graphics/SVG/1.1/DTD/svg11.dtd">
<svg width="100%" height="100%" viewBox="0 0 20 24" version="1.1" xmlns="http://www.w3.org/2000/svg" xmlns:xlink="http://www.w3.org/1999/xlink" xml:space="preserve" xmlns:serif="http://www.serif.com/" style="fill-rule:evenodd;clip-rule:evenodd;stroke-linecap:round;stroke-linejoin:round;">
    <g transform="matrix(1,0,0,1,-0.0214286,0.00208333)">
        <g id="sprite0" transform="matrix(1,0,0,1,0.5,0.5)">
            <g>
                <g id="shape0">
                    <path d="M15.5,5.45C15.9,5.117 16.367,4.917 16.9,4.85L17.15,4.85L18.45,5.35L18.7,5.65C18.9,6.017 18.983,6.45 18.95,6.95C18.85,7.617 18.533,8.233 18,8.8L17.5,9.1L17.8,10.35L17.9,11.15C18,12.183 17.883,12.983 17.55,13.55L17.05,14.9L17.2,14.8L17.15,17.6L16.85,17.65L17,18.4L17,18.5L16.95,18.8L16.7,19.15L16.3,19.5L15.2,19.95L13.35,20L12.45,19.8C11.917,19.633 11.45,19.4 11.05,19.1L10.05,19.15L10,19.15L10.15,20L10.1,20.55L9.4,21.7L9.15,21.9C8.617,22.233 8.033,22.4 7.4,22.4L7.3,22.4L5.75,22L4.9,21.35C4.6,20.95 4.45,20.5 4.45,20L4.55,19.4L5.35,18.25L5.8,17.9L5.4,17.6L5.3,17.65L4.7,17.25L4.6,16.9L4.15,16.45L3,16.85C2.2,16.883 1.533,16.733 1,16.4C0.4,16.067 0.083,15.617 0.05,15.05C-0.017,14.75 0.033,14.433 0.2,14.1L0.65,13.5C0.983,13.2 1.4,12.967 1.9,12.8L2.45,12.75L2.35,11.45C2.317,9.583 2.867,7.967 4,6.6L4.6,5.95L4.75,5.85L3.95,5.05C3.483,4.583 3.267,4.183 3.3,3.85C3.567,3.55 4.05,3.467 4.75,3.6L4.9,3.6L4.5,2.05C4.3,1.117 4.383,0.45 4.75,0.05C5.25,-0.117 5.9,0.117 6.7,0.75L8.1,2L8.25,1.6C8.483,1.167 8.733,0.933 9,0.9L9.2,1.05L9.5,1.8L9.8,3.75L10.05,3.7C12.05,3.667 13.783,4.317 15.25,5.65L15.5,5.45" style="fill:rgb(40,10,2);"/>
                    <path d="M15.5,5.45C15.9,5.117 16.367,4.917 16.9,4.85L17.15,4.85L18.45,5.35L18.7,5.65C18.9,6.017 18.983,6.45 18.95,6.95C18.85,7.617 18.533,8.233 18,8.8L17.5,9.1L17.8,10.35L17.9,11.15C18,12.183 17.883,12.983 17.55,13.55L17.05,14.9L17.2,14.8L17.15,17.6L16.85,17.65L17,18.4L17,18.5L16.95,18.8L16.7,19.15L16.3,19.5L15.2,19.95L13.35,20L12.45,19.8C11.917,19.633 11.45,19.4 11.05,19.1L10.05,19.15L10,19.15L10.15,20L10.1,20.55L9.4,21.7L9.15,21.9C8.617,22.233 8.033,22.4 7.4,22.4L7.3,22.4L5.75,22L4.9,21.35C4.6,20.95 4.45,20.5 4.45,20L4.55,19.4L5.35,18.25L5.8,17.9L5.4,17.6L5.3,17.65L4.7,17.25L4.6,16.9L4.15,16.45L3,16.85C2.2,16.883 1.533,16.733 1,16.4C0.4,16.067 0.083,15.617 0.05,15.05C-0.017,14.75 0.033,14.433 0.2,14.1L0.65,13.5C0.983,13.2 1.4,12.967 1.9,12.8L2.45,12.75L2.35,11.45C2.317,9.583 2.867,7.967 4,6.6L4.6,5.95L4.75,5.85L3.95,5.05C3.483,4.583 3.267,4.183 3.3,3.85C3.567,3.55 4.05,3.467 4.75,3.6L4.9,3.6L4.5,2.05C4.3,1.117 4.383,0.45 4.75,0.05C5.25,-0.117 5.9,0.117 6.7,0.75L8.1,2L8.25,1.6C8.483,1.167 8.733,0.933 9,0.9L9.2,1.05L9.5,1.8L9.8,3.75L10.05,3.7C12.05,3.667 13.783,4.317 15.25,5.65L15.5,5.45Z" style="fill:none;fill-rule:nonzero;stroke:rgb(40,10,2);stroke-width:1px;"/>
                    <path d="M16.4,5L15.2,5.7L14.5,6.75C14.333,7.05 14.4,7.3 14.7,7.5L15.7,7.55L16.8,6.9L17.65,5.8C17.75,5.467 17.667,5.233 17.4,5.1L16.4,5M14.05,8L14.1,7.65C14.167,6.95 14.483,6.333 15.05,5.8L15.5,5.45C15.9,5.117 16.367,4.917 16.9,4.85L17.15,4.85L18.45,5.35L18.7,5.65C18.1,7.317 16.633,8.45 14.3,9.05L14.05,8" style="fill:rgb(78,192,58);"/>
                    <path d="M16.4,5L17.4,5.1C17.667,5.233 17.75,5.467 17.65,5.8L16.8,6.9L15.7,7.55L14.7,7.5C14.4,7.3 14.333,7.05 14.5,6.75L15.2,5.7L16.4,5" style="fill:rgb(127,219,82);"/>
                    <path d="M16.7,9.6L16.8,9.6L17.35,10.4L17.2,11.05L14.9,11.35L12.7,9.55L13.15,8.05L13.5,7.95L13.45,8L13.2,9.15L14.95,10.7L15.95,10.6L15.85,9.7L16.1,9.75L16.7,9.6" style="fill-opacity:0.2;"/>
                    <path d="M13.45,8L14.05,8L14.3,9.05L14.55,9.25L15.5,9.75L15.85,9.7L15.95,10.6L14.95,10.7L13.2,9.15L13.45,8" style="fill-opacity:0.57;"/>
                    <path d="M18.7,5.65C18.9,6.017 18.983,6.45 18.95,6.95C18.85,7.617 18.533,8.233 18,8.8L16.7,9.6L16.1,9.75L15.85,9.7L15.5,9.75L14.55,9.25L14.3,9.05C16.633,8.45 18.1,7.317 18.7,5.65" style="fill:rgb(45,161,40);"/>
                    <path d="M4.55,19.4L5.35,18.25C5.95,17.683 6.65,17.367 7.45,17.3C8.283,17.267 8.95,17.55 9.45,18.15C9.917,18.75 10.15,19.367 10.15,20L10.1,20.55L9.25,19.45L8.75,19.2L8.55,19.15L7.3,18.55L4.55,19.4M9.15,21.9C8.617,22.233 8.033,22.4 7.4,22.4L7.3,22.4L5.75,22L4.9,21.35L6.3,21.7L7.15,21.35L7.15,21.5L7.4,22.4L7.15,21.5C7.45,21.967 8.117,22.1 9.15,21.9M14.65,16.1L13,16.45L12.2,18.25L12.1,18.65C13.533,19.35 15.067,19.517 16.7,19.15L16.3,19.5L15.2,19.95L13.35,20L12.45,19.8L10.85,18.95C10.117,18.383 9.767,17.817 9.8,17.25C9.8,16.65 10.267,16.25 11.2,16.05L13.95,15.95L14.65,16.1" style="fill:rgb(6,70,19);"/>
                    <path d="M4.55,19.4L7.3,18.55L8.55,19.15L7.5,19.35L7.25,20.25L8.55,20.5L9.45,19.75L8.75,19.2L9.25,19.45L10.1,20.55L9.4,21.7L9.15,21.9C8.117,22.1 7.45,21.967 7.15,21.5L7.15,21.35L6.3,21.7L4.9,21.35C4.6,20.95 4.45,20.5 4.45,20L4.55,19.4M7.15,20.85L7.15,21.35L7.15,20.85M7.15,19.7L6.25,19.05L5.15,19.25L4.9,20.15L6.2,20.4L7.15,19.7M14.65,16.1L16.2,16.9L16.45,17.1C16.883,17.533 17.067,17.967 17,18.4L17,18.5L16.95,18.8L16.7,19.15C15.067,19.517 13.533,19.35 12.1,18.65L12.2,18.25L13,16.45L14.65,16.1M14.5,17C15.767,17.333 16.583,17.933 16.95,18.8C16.583,17.933 15.767,17.333 14.5,17" style="fill:rgb(19,107,35);"/>
                    <path d="M8.55,19.15L8.75,19.2L9.45,19.75L8.55,20.5L7.25,20.25L7.5,19.35L8.55,19.15M7.15,19.7L6.2,20.4L4.9,20.15L5.15,19.25L6.25,19.05L7.15,19.7" style="fill:rgb(25,141,47);"/>
                    <path d="M14.05,8L14.1,7.65C14.167,6.95 14.483,6.333 15.05,5.8L15.5,5.45C15.9,5.117 16.367,4.917 16.9,4.85L17.15,4.85L18.45,5.35L18.7,5.65C18.9,6.017 18.983,6.45 18.95,6.95C18.85,7.617 18.533,8.233 18,8.8L16.7,9.6L16.1,9.75L15.85,9.7L15.5,9.75L14.55,9.25L14.3,9.05L14.05,8M10.1,20.55L10.15,20C10.15,19.367 9.917,18.75 9.45,18.15C8.95,17.55 8.283,17.267 7.45,17.3C6.65,17.367 5.95,17.683 5.35,18.25L4.55,19.4L4.45,20C4.45,20.5 4.6,20.95 4.9,21.35L5.75,22L7.3,22.4L7.4,22.4L7.15,21.5L7.15,20.85M10.1,20.55L9.4,21.7L9.15,21.9C8.617,22.233 8.033,22.4 7.4,22.4M16.95,18.8L17,18.5L17,18.4C17.067,17.967 16.883,17.533 16.45,17.1L16.2,16.9L14.65,16.1L13.95,15.95L11.2,16.05C10.267,16.25 9.8,16.65 9.8,17.25C9.767,17.817 10.117,18.383 10.85,18.95L12.45,19.8L13.35,20L15.2,19.95L16.3,19.5L16.7,19.15L16.95,18.8C16.583,17.933 15.767,17.333 14.5,17" style="fill:none;fill-rule:nonzero;stroke:black;stroke-opacity:0.3;stroke-width:0.05px;stroke-linecap:butt;stroke-linejoin:miter;stroke-miterlimit:3;"/>
                    <path d="M4,6.6L4.6,5.95C5.667,4.883 6.9,4.2 8.3,3.9L10.05,3.7C12.183,3.667 14.017,4.417 15.55,5.95C16.55,6.983 17.233,8.167 17.6,9.5L17.8,11.45C17.8,12.85 17.483,14.117 16.85,15.25L14.45,16.45C13.25,16.917 11.65,16.75 9.65,15.95C7.683,15.15 6.15,13.75 5.05,11.75C3.95,9.717 3.6,8 4,6.6" style="fill:rgb(78,192,58);"/>
                    <path d="M4,6.6C3.6,8 3.95,9.717 5.05,11.75C6.15,13.75 7.683,15.15 9.65,15.95C11.65,16.75 13.25,16.917 14.45,16.45L16.85,15.25L15.55,16.9C14.017,18.4 12.183,19.15 10.05,19.15C7.917,19.15 6.1,18.4 4.6,16.9C3.067,15.4 2.317,13.583 2.35,11.45C2.317,9.583 2.867,7.967 4,6.6" style="fill:rgb(45,161,40);"/>
                    <path d="M16.85,15.25C17.483,14.117 17.8,12.85 17.8,11.45L17.6,9.5C17.233,8.167 16.55,6.983 15.55,5.95C14.017,4.417 12.183,3.667 10.05,3.7L8.3,3.9C6.9,4.2 5.667,4.883 4.6,5.95L4,6.6C2.867,7.967 2.317,9.583 2.35,11.45C2.317,13.583 3.067,15.4 4.6,16.9C6.1,18.4 7.917,19.15 10.05,19.15C12.183,19.15 14.017,18.4 15.55,16.9L16.85,15.25Z" style="fill:none;fill-rule:nonzero;stroke:black;stroke-opacity:0.3;stroke-width:0.05px;stroke-linecap:butt;stroke-linejoin:miter;stroke-miterlimit:3;"/>
                    <path d="M5.15,7.05C5.15,6.05 5.7,5.217 6.8,4.55C7.933,3.95 9.267,3.733 10.8,3.9C12.4,4.033 13.733,4.5 14.8,5.3C15.9,6.167 16.45,7.1 16.45,8.1C16.45,9.1 15.9,9.883 14.8,10.45C13.733,11.083 12.4,11.333 10.8,11.2C9.267,11.067 7.933,10.567 6.8,9.7C5.7,8.9 5.15,8.017 5.15,7.05" style="fill:rgb(127,219,82);"/>
                    <path d="M8.1,2L8.25,1.6C8.483,1.167 8.733,0.933 9,0.9L9.2,1.05L8.55,2.5L8.1,2M4.9,3.6L4.5,2.05C4.3,1.117 4.383,0.45 4.75,0.05C5.083,1.683 5.633,2.967 6.4,3.9L4.9,3.6" style="fill:rgb(78,192,58);"/>
                    <path d="M8.1,2L8.55,2.5L9.2,1.05L9.5,1.8L9.8,4L9.8,4.05L8.75,5.5C8.117,6 7.3,6.283 6.3,6.35L5.55,6.55L3.95,5.05C3.483,4.583 3.267,4.183 3.3,3.85C3.567,3.55 4.05,3.467 4.75,3.6L4.9,3.6L6.4,3.9C5.633,2.967 5.083,1.683 4.75,0.05C5.25,-0.117 5.9,0.117 6.7,0.75L8.1,2" style="fill:rgb(127,219,82);"/>
                    <path d="M9.2,1.05L9,0.9C8.733,0.933 8.483,1.167 8.25,1.6L8.1,2L8.55,2.5M9.2,1.05L9.5,1.8L9.8,4M5.55,6.55L3.95,5.05C3.483,4.583 3.267,4.183 3.3,3.85C3.567,3.55 4.05,3.467 4.75,3.6L4.9,3.6L4.5,2.05C4.3,1.117 4.383,0.45 4.75,0.05C5.25,-0.117 5.9,0.117 6.7,0.75L8.1,2M6.4,3.9L4.9,3.6" style="fill:none;fill-rule:nonzero;stroke:black;stroke-opacity:0.3;stroke-width:0.05px;"/>
                    <path d="M17.2,14.8L17.15,17.6L10.65,18.15C12.85,17.05 15.033,15.933 17.2,14.8" style="fill:rgb(78,192,58);"/>
                    <path d="M17.2,14.8L17.15,17.6L10.65,18.15" style="fill:none;fill-rule:nonzero;stroke:black;stroke-opacity:0.3;stroke-width:0.05px;stroke-linecap:butt;stroke-linejoin:miter;stroke-miterlimit:3;"/>
                    <path d="M17.15,15.2L17.15,16.15L16.35,14.65L17.15,15.2" style="fill:white;"/>
                    <path d="M17.15,15.2L17.15,16.15L16.35,14.65L17.15,15.2Z" style="fill:none;fill-rule:nonzero;stroke:black;stroke-opacity:0.3;stroke-width:0.05px;"/>
                    <path d="M14.25,18.05L13.15,18.05L14.25,16.35L14.25,18.05" style="fill:white;"/>
                    <path d="M14.25,18.05L13.15,18.05L14.25,16.35L14.25,18.05Z" style="fill:none;fill-rule:nonzero;stroke:black;stroke-opacity:0.3;stroke-width:0.05px;"/>
                    <path d="M5.15,15.8L5.7,16.35L6.4,15.65L6.3,13.4L6.25,13.3L5.2,12.8L5.15,12.8L5.45,12.6L6.9,13.1L6.9,16L5.3,17.65L4.7,17.25L4.4,16.4L4.45,16.3L5.15,15.8" style="fill-opacity:0.2;"/>
                    <path d="M5.15,15.8L5.3,15.45C5.5,15.117 5.583,14.783 5.55,14.45L5.55,14.4L5.4,13.95L4.85,13.3L5.2,12.8L6.25,13.3L6.3,13.4L6.4,15.65L5.7,16.35L5.15,15.8" style="fill-opacity:0.35;"/>
                    <path d="M4.85,13.3L5.4,13.95L5.55,14.4L5.55,14.45C2.95,15.817 1.167,15.7 0.2,14.1L0.65,13.5C0.983,13.2 1.4,12.967 1.9,12.8L2.55,12.75L2.7,12.75L1.5,13C1.167,13.133 0.983,13.283 0.95,13.45C0.983,13.65 1.183,13.817 1.55,13.95L2.9,14.1L4.25,13.85L4.8,13.35L4.4,13.05L4.55,13.05L4.85,13.3" style="fill:rgb(78,192,58);"/>
                    <path d="M5.55,14.45C5.583,14.783 5.5,15.117 5.3,15.45L5.15,15.8L4.45,16.3L3,16.85C2.2,16.883 1.533,16.733 1,16.4C0.4,16.067 0.083,15.617 0.05,15.05C-0.017,14.75 0.033,14.433 0.2,14.1C1.167,15.7 2.95,15.817 5.55,14.45" style="fill:rgb(45,161,40);"/>
                    <path d="M4,12.85L4.25,12.85L4.4,13.05L4.8,13.35L4.25,13.85L2.9,14.1L1.55,13.95C1.183,13.817 0.983,13.65 0.95,13.45C0.983,13.283 1.167,13.133 1.5,13L2.7,12.75L2.85,12.7L3,12.75L4,12.85M3,12.75L2.7,12.75L3,12.75" style="fill:rgb(127,219,82);"/>
                    <path d="M5.55,14.45C5.583,14.783 5.5,15.117 5.3,15.45L5.15,15.8L4.45,16.3L3,16.85C2.2,16.883 1.533,16.733 1,16.4C0.4,16.067 0.083,15.617 0.05,15.05C-0.017,14.75 0.033,14.433 0.2,14.1L0.65,13.5C0.983,13.2 1.4,12.967 1.9,12.8L2.55,12.75L3,12.75L4,12.85M4.85,13.3L5.4,13.95L5.55,14.4L5.55,14.45M4.4,13.05L4.55,13.05L4.85,13.3" style="fill:none;fill-rule:nonzero;stroke:black;stroke-opacity:0.3;stroke-width:0.05px;stroke-linecap:butt;stroke-linejoin:miter;stroke-miterlimit:3;"/>
                    <path d="M11.2,9.95C12.267,10.383 12.983,11.117 13.35,12.15C13.75,13.117 13.717,14.133 13.25,15.2C12.85,16.267 12.15,17.033 11.15,17.5C10.15,17.933 9.15,17.933 8.15,17.5C7.15,17.133 6.45,16.433 6.05,15.4C5.65,14.4 5.667,13.35 6.1,12.25C6.533,11.217 7.25,10.483 8.25,10.05L11.2,9.95" style="fill:rgb(45,161,40);"/>
                    <path d="M11.2,9.95C12.267,10.383 12.983,11.117 13.35,12.15C13.75,13.117 13.717,14.133 13.25,15.2C12.85,16.267 12.15,17.033 11.15,17.5C10.15,17.933 9.15,17.933 8.15,17.5C7.15,17.133 6.45,16.433 6.05,15.4C5.65,14.4 5.667,13.35 6.1,12.25C6.533,11.217 7.25,10.483 8.25,10.05L11.2,9.95Z" style="fill:none;fill-rule:nonzero;stroke:black;stroke-opacity:0.15;stroke-width:0.05px;"/>
                    <path d="M6.35,13.3L6.5,12.55C7.033,11.55 7.767,10.817 8.7,10.35L11.7,10.25C12.733,10.683 13.45,11.417 13.85,12.45L14,13L13.7,13.8C13.333,14.867 12.633,15.633 11.6,16.1C10.633,16.533 9.617,16.533 8.55,16.1C7.583,15.7 6.9,14.983 6.5,13.95L6.35,13.3" style="fill:white;"/>
                    <path d="M14,13C14.167,13.8 14.067,14.633 13.7,15.5C13.333,16.567 12.633,17.333 11.6,17.8C10.633,18.233 9.617,18.233 8.55,17.8C7.583,17.4 6.9,16.683 6.5,15.65C6.233,14.883 6.183,14.1 6.35,13.3L6.5,13.95C6.9,14.983 7.583,15.7 8.55,16.1C9.617,16.533 10.633,16.533 11.6,16.1C12.633,15.633 13.333,14.867 13.7,13.8L14,13" style="fill:rgb(231,226,211);"/>
                    <path d="M6.35,13.3L6.5,12.55C7.033,11.55 7.767,10.817 8.7,10.35L11.7,10.25C12.733,10.683 13.45,11.417 13.85,12.45L14,13C14.167,13.8 14.067,14.633 13.7,15.5C13.333,16.567 12.633,17.333 11.6,17.8C10.633,18.233 9.617,18.233 8.55,17.8C7.583,17.4 6.9,16.683 6.5,15.65C6.233,14.883 6.183,14.1 6.35,13.3Z" style="fill:none;fill-rule:nonzero;stroke:black;stroke-opacity:0.3;stroke-width:0.05px;"/>
                    <path d="M11.55,14.4L9.85,14.2C9.317,13.967 8.95,13.583 8.75,13.05C8.55,12.517 8.583,11.983 8.85,11.45C9.083,10.95 9.483,10.617 10.05,10.45L11.7,10.5C12.233,10.767 12.6,11.167 12.8,11.7C13,12.233 12.967,12.75 12.7,13.25C12.467,13.817 12.083,14.2 11.55,14.4" style="fill:rgb(100,156,221);"/>
                    <path d="M11.55,14.4L9.85,14.2C9.317,13.967 8.95,13.583 8.75,13.05C8.55,12.517 8.583,11.983 8.85,11.45C9.083,10.95 9.483,10.617 10.05,10.45L11.7,10.5C12.233,10.767 12.6,11.167 12.8,11.7C13,12.233 12.967,12.75 12.7,13.25C12.467,13.817 12.083,14.2 11.55,14.4Z" style="fill:none;fill-rule:nonzero;stroke:black;stroke-opacity:0.3;stroke-width:0.05px;"/>
                    <path d="M9.2,13.5L8.9,13.05C8.833,12.85 8.85,12.633 8.95,12.4L9.45,11.95L10,11.9C10.167,12 10.267,12.167 10.3,12.4L10.2,13.05L9.75,13.5L9.2,13.5" style="fill:white;"/>
                    <path d="M11.9,13.8L11.65,13.6C11.583,13.533 11.567,13.433 11.6,13.3L11.75,13L12,12.95L12.25,13.1L12.3,13.4L12.15,13.7L11.9,13.8" style="fill:white;"/>
                    <path d="M10.9,13.55L10.6,13.8L10,13.75L9.6,13.45L9.5,13L9.85,12.75L10.4,12.8L10.85,13.1L10.9,13.55" style="fill:white;"/>
                    <path d="M8.5,9.05C9.967,8.917 10.85,8.417 11.15,7.55C11.417,9.117 10.533,9.617 8.5,9.05" style="fill:rgb(93,87,62);"/>
                    <path d="M8.5,9.05C9.967,8.917 10.85,8.417 11.15,7.55C11.417,9.117 10.533,9.617 8.5,9.05Z" style="fill:none;fill-rule:nonzero;stroke:black;stroke-opacity:0.3;stroke-width:0.05px;"/>
                    <path d="M14.2,11.6C13.7,10.7 13.417,9.717 13.35,8.65C13.283,7.617 13.417,6.833 13.75,6.3C14.117,5.767 14.617,5.633 15.25,5.9C15.85,6.2 16.4,6.8 16.9,7.7C17.4,8.6 17.7,9.55 17.8,10.55C17.867,11.617 17.733,12.433 17.4,13C17.033,13.533 16.533,13.633 15.9,13.3C15.267,13.067 14.7,12.5 14.2,11.6" style="fill:rgb(45,161,40);"/>
                    <path d="M14.2,11.6C14.7,12.5 15.267,13.067 15.9,13.3C16.533,13.633 17.033,13.533 17.4,13C17.733,12.433 17.867,11.617 17.8,10.55C17.7,9.55 17.4,8.6 16.9,7.7C16.4,6.8 15.85,6.2 15.25,5.9C14.617,5.633 14.117,5.767 13.75,6.3C13.417,6.833 13.283,7.617 13.35,8.65C13.417,9.717 13.7,10.7 14.2,11.6Z" style="fill:none;fill-rule:nonzero;stroke:black;stroke-opacity:0.15;stroke-width:0.05px;"/>
                    <path d="M13.85,11.1L13.45,9.25C13.35,8.217 13.483,7.433 13.85,6.9C14.217,6.367 14.717,6.233 15.35,6.5L16.7,7.7L17.05,9.45C17.15,10.517 17.017,11.333 16.65,11.9C16.283,12.433 15.783,12.533 15.15,12.2C14.65,12.033 14.217,11.667 13.85,11.1" style="fill:white;"/>
                    <path d="M13.85,11.1C14.217,11.667 14.65,12.033 15.15,12.2C15.783,12.533 16.283,12.433 16.65,11.9C17.017,11.333 17.15,10.517 17.05,9.45L16.7,7.7L17,8.25C17.5,9.15 17.8,10.117 17.9,11.15C18,12.217 17.867,13.033 17.5,13.6C17.133,14.133 16.633,14.233 16,13.9C15.367,13.7 14.8,13.133 14.3,12.2L13.85,11.1" style="fill:rgb(231,226,211);"/>
                    <path d="M16.7,7.7L15.35,6.5C14.717,6.233 14.217,6.367 13.85,6.9C13.483,7.433 13.35,8.217 13.45,9.25L13.85,11.1L14.3,12.2C14.8,13.133 15.367,13.7 16,13.9C16.633,14.233 17.133,14.133 17.5,13.6C17.867,13.033 18,12.217 17.9,11.15C17.8,10.117 17.5,9.15 17,8.25L16.7,7.7Z" style="fill:none;fill-rule:nonzero;stroke:black;stroke-opacity:0.3;stroke-width:0.05px;"/>
                    <path d="M15.85,11.25C15.65,11.617 15.383,11.783 15.05,11.75C14.717,11.717 14.4,11.483 14.1,11.05C13.8,10.65 13.617,10.15 13.55,9.55C13.483,8.983 13.55,8.517 13.75,8.15C13.917,7.783 14.167,7.617 14.5,7.65C14.833,7.717 15.15,7.95 15.45,8.35C15.75,8.783 15.933,9.283 16,9.85C16.067,10.417 16.017,10.883 15.85,11.25" style="fill:rgb(100,156,221);"/>
                    <path d="M15.85,11.25C16.017,10.883 16.067,10.417 16,9.85C15.933,9.283 15.75,8.783 15.45,8.35C15.15,7.95 14.833,7.717 14.5,7.65C14.167,7.617 13.917,7.783 13.75,8.15C13.55,8.517 13.483,8.983 13.55,9.55C13.617,10.15 13.8,10.65 14.1,11.05C14.4,11.483 14.717,11.717 15.05,11.75C15.383,11.783 15.65,11.617 15.85,11.25Z" style="fill:none;fill-rule:nonzero;stroke:black;stroke-opacity:0.3;stroke-width:0.05px;"/>
                    <path d="M15.7,8.75L15.65,9.2L15.3,9.35C15.133,9.35 15,9.283 14.9,9.15L14.65,8.65L14.75,8.2L15.15,8L15.5,8.25L15.7,8.75" style="fill:white;"/>
                    <path d="M15.15,11.45L15.05,11.6L14.9,11.6L14.7,11.4L14.6,11.15L14.75,11L14.95,11L15.1,11.2L15.15,11.45" style="fill:white;"/>
                    <path d="M15.55,10.7L15.25,10.4L15.15,9.9L15.15,9.45C15.217,9.317 15.3,9.267 15.4,9.3L15.65,9.55L15.75,10.05L15.75,10.5L15.55,10.7" style="fill:white;"/>
                    <path d="M12.95,5.7C13.283,7.633 12.85,8.033 11.65,6.9C12.35,7.133 12.783,6.733 12.95,5.7" style="fill:rgb(93,87,62);"/>
                    <path d="M12.95,5.7C12.783,6.733 12.35,7.133 11.65,6.9C12.85,8.033 13.283,7.633 12.95,5.7Z" style="fill:none;fill-rule:nonzero;stroke:black;stroke-opacity:0.3;stroke-width:0.05px;"/>
                </g>
            </g>
        </g>
    </g>
</svg>
