<?xml version="1.0" encoding="UTF-8" standalone="no"?>
<!DOCTYPE svg PUBLIC "-//W3C//DTD SVG 1.1//EN" "http://www.w3.org/Graphics/SVG/1.1/DTD/svg11.dtd">
<svg width="100%" height="100%" viewBox="0 0 23 33" version="1.1" xmlns="http://www.w3.org/2000/svg" xmlns:xlink="http://www.w3.org/1999/xlink" xml:space="preserve" xmlns:serif="http://www.serif.com/" style="fill-rule:evenodd;clip-rule:evenodd;stroke-linecap:round;stroke-linejoin:round;">
    <g id="sprite0" transform="matrix(1,0,0,1,0.1,0.45)">
        <g>
            <g id="shape0">
                <path d="M18.85,9.75C21.017,12.283 22.1,15.333 22.1,18.9C22.1,22.467 21.017,25.5 18.85,28C16.683,30.533 14.083,31.8 11.05,31.8C8.017,31.8 5.417,30.533 3.25,28C1.083,25.5 0,22.467 0,18.9C0,15.333 1.083,12.283 3.25,9.75C5.417,7.25 8.017,6 11.05,6C14.083,6 16.683,7.25 18.85,9.75" style="fill:rgb(182,223,236);fill-opacity:0.15;"/>
                <path d="M11,28.65C8.7,28.65 6.733,27.7 5.1,25.8C3.467,23.9 2.65,21.6 2.65,18.9C2.65,16.2 3.467,13.883 5.1,11.95C6.733,10.083 8.7,9.15 11,9.15C13.333,9.15 15.317,10.083 16.95,11.95C18.583,13.883 19.4,16.2 19.4,18.9C19.4,21.6 18.583,23.9 16.95,25.8C15.317,27.7 13.333,28.65 11,28.65" style="fill:rgb(182,223,236);fill-opacity:0.35;"/>
                <path d="M15.7,4.8C15.533,6.167 15.167,7.367 14.6,8.4L14.65,8.65L14.9,10.25L15.1,10.3L15.1,10.35C15.467,10.683 15.633,11.05 15.6,11.45L16.55,12.55L17.55,14.35L17.7,14.7C18.033,15.7 18.183,16.633 18.15,17.5L18,18.75L18,18.9L17.6,20.15L17.75,20.2C17.983,20.4 18.033,20.733 17.9,21.2L17.8,21.3L17.35,22.1C16.85,22.9 16,23.383 14.8,23.55L14.75,23.55L14.7,23.7L14.15,24.65L14.15,24.7L14.1,24.8L14.1,25.55L13.5,26.4L13.5,26.65L13.45,26.7L13,27.55C12.667,27.217 12.467,26.817 12.4,26.35L12.4,26.25L12.5,26L12.2,26.15L12.1,26.15C12.4,26.617 12.517,27.15 12.45,27.75C12.083,27.75 11.8,27.617 11.6,27.35L11.6,27.3L11.25,27.05L10.95,26.75L10.55,26.75L10.3,27.25L10.25,27.3L10.25,27.5L10.3,27.8L10.2,28.25L10.05,28.45C9.817,28.283 9.683,28 9.65,27.6L9.65,27.3L9.5,27.2L9.25,26.6L9.1,26.45L8.85,26.45L8.95,27.45L9,27.75L8.85,28L7.85,27.9L8.2,28.25L8.25,28.25L8.5,28.75L8.5,29.05C8.167,29.083 7.833,28.933 7.5,28.6L7.3,28.35L7.05,27.9C6.717,27.267 6.633,26.917 6.8,26.85L7.45,27.45L7.45,27.35L7.4,27.2L7.25,27.05L7.1,26.85L7.05,26.75L7.05,26.7L7,26.7L7,26.65L6.9,26.4L6.95,26.35L6.9,26.35L6.8,25.6L6.8,25.55L6.35,25.4C6.117,25.3 6,25.15 6,24.95L6.1,24.4L6.35,24.15L6.85,24.95L7.05,25.15L7.4,24.85C7.6,24.683 7.833,24.567 8.1,24.5L8.35,24.45L8.4,24.35L8.6,23.6L8.4,23.55C6.533,23.083 5.267,22.4 4.6,21.5L4.65,21.5C5.083,21.4 5.633,21.4 6.3,21.5L5.7,20.8L5.1,20.2L4.9,20.1L4.65,19.9C3.483,19.033 2.967,18.167 3.1,17.3L3.65,17.5L2.7,16.1C2.3,15.233 2.15,14.417 2.25,13.65L2.25,13.5L2.4,13.05L2.5,12.9L2.55,12.85L2.65,12.8L4.35,13C4.917,12.8 5.417,12.483 5.85,12.05L3.65,11.85C2.25,9.983 1.167,8 0.4,5.9C1.8,6.867 3.283,8.2 4.85,9.9L6.65,9.55L6.35,8.7L6.05,7.25C6.95,7.717 7.8,8.417 8.6,9.35L10.3,9.45L10.5,9.75L11.05,9.7L12.9,9.95L12.7,8.45L12.7,8.4L13.05,7.05L12.8,7C12.433,5.933 12.283,4.95 12.35,4.05L13.3,4.9L13.75,5.45L14.15,4.65L12.3,0.05L13.6,1C14.4,1.667 15.117,2.517 15.75,3.55L15.7,4.8" style="fill:rgb(40,10,2);"/>
                <path d="M15.7,4.8C15.533,6.167 15.167,7.367 14.6,8.4L14.65,8.65L14.9,10.25L15.1,10.3L15.1,10.35C15.467,10.683 15.633,11.05 15.6,11.45L16.55,12.55L17.55,14.35L17.7,14.7C18.033,15.7 18.183,16.633 18.15,17.5L18,18.75L18,18.9L17.6,20.15L17.75,20.2C17.983,20.4 18.033,20.733 17.9,21.2L17.8,21.3L17.35,22.1C16.85,22.9 16,23.383 14.8,23.55L14.75,23.55L14.7,23.7L14.15,24.65L14.15,24.7L14.1,24.8L14.1,25.55L13.5,26.4L13.5,26.65L13.45,26.7L13,27.55C12.667,27.217 12.467,26.817 12.4,26.35L12.4,26.25L12.5,26L12.2,26.15L12.1,26.15C12.4,26.617 12.517,27.15 12.45,27.75C12.083,27.75 11.8,27.617 11.6,27.35L11.6,27.3L11.25,27.05L10.95,26.75L10.55,26.75L10.3,27.25L10.25,27.3L10.25,27.5L10.3,27.8L10.2,28.25L10.05,28.45C9.817,28.283 9.683,28 9.65,27.6L9.65,27.3L9.5,27.2L9.25,26.6L9.1,26.45L8.85,26.45L8.95,27.45L9,27.75L8.85,28L7.85,27.9L8.2,28.25L8.25,28.25L8.5,28.75L8.5,29.05C8.167,29.083 7.833,28.933 7.5,28.6L7.3,28.35L7.05,27.9C6.717,27.267 6.633,26.917 6.8,26.85L7.45,27.45L7.45,27.35L7.4,27.2L7.25,27.05L7.1,26.85L7.05,26.75L7.05,26.7L7,26.7L7,26.65L6.9,26.4L6.95,26.35L6.9,26.35L6.8,25.6L6.8,25.55L6.35,25.4C6.117,25.3 6,25.15 6,24.95L6.1,24.4L6.35,24.15L6.85,24.95L7.05,25.15L7.4,24.85C7.6,24.683 7.833,24.567 8.1,24.5L8.35,24.45L8.4,24.35L8.6,23.6L8.4,23.55C6.533,23.083 5.267,22.4 4.6,21.5L4.65,21.5C5.083,21.4 5.633,21.4 6.3,21.5L5.7,20.8L5.1,20.2L4.9,20.1L4.65,19.9C3.483,19.033 2.967,18.167 3.1,17.3L3.65,17.5L2.7,16.1C2.3,15.233 2.15,14.417 2.25,13.65L2.25,13.5L2.4,13.05L2.5,12.9L2.55,12.85L2.65,12.8L4.35,13C4.917,12.8 5.417,12.483 5.85,12.05L3.65,11.85C2.25,9.983 1.167,8 0.4,5.9C1.8,6.867 3.283,8.2 4.85,9.9L6.65,9.55L6.35,8.7L6.05,7.25C6.95,7.717 7.8,8.417 8.6,9.35L10.3,9.45L10.5,9.75L11.05,9.7L12.9,9.95L12.7,8.45L12.7,8.4L13.05,7.05L12.8,7C12.433,5.933 12.283,4.95 12.35,4.05L13.3,4.9L13.75,5.45L14.15,4.65L12.3,0.05L13.6,1C14.4,1.667 15.117,2.517 15.75,3.55L15.7,4.8Z" style="fill:none;fill-rule:nonzero;stroke:rgb(40,10,2);stroke-width:1px;"/>
                <path d="M9.6,27.55L9.6,27.3L9.7,26.9C9.867,26.3 10.017,26.033 10.15,26.1L10.2,27.35L10.2,27.45L10.25,27.75L10,27.4C9.833,27.4 9.7,27.45 9.6,27.55" style="fill:rgb(16,82,103);"/>
                <path d="M10.25,27.75L10.15,28.2L10,28.4C9.767,28.233 9.633,27.95 9.6,27.55C9.7,27.45 9.833,27.4 10,27.4L10.25,27.75" style="fill:rgb(238,179,42);"/>
                <path d="M9.6,27.55L9.6,27.3L9.7,26.9C9.867,26.3 10.017,26.033 10.15,26.1L10.2,27.35L10.2,27.45L10.25,27.75" style="fill:none;fill-rule:nonzero;stroke:white;stroke-width:0.05px;"/>
                <path d="M10.25,27.75L10.15,28.2L10,28.4C9.767,28.233 9.633,27.95 9.6,27.55" style="fill:none;fill-rule:nonzero;stroke:black;stroke-opacity:0.3;stroke-width:1px;"/>
                <path d="M10.35,25.1C10.617,25.9 10.583,26.6 10.25,27.2L9.9,27.35L9.45,27.15C9.183,26.75 9.033,26.117 9,25.25C9.433,24.683 9.883,24.633 10.35,25.1" style="fill:rgb(16,82,103);"/>
                <path d="M10.35,25.1C10.617,25.9 10.583,26.6 10.25,27.2L9.9,27.35L9.45,27.15C9.183,26.75 9.033,26.117 9,25.25C9.433,24.683 9.883,24.633 10.35,25.1Z" style="fill:none;fill-rule:nonzero;stroke:white;stroke-width:0.05px;"/>
                <path d="M8.15,28.2L7.7,28.1L7.45,28.55L7.25,28.3L7,27.85C6.667,27.217 6.583,26.867 6.75,26.8L8.15,28.2" style="fill:rgb(23,114,141);"/>
                <path d="M8.15,28.2L8.2,28.2L8.45,28.7L8.45,29C8.117,29.033 7.783,28.883 7.45,28.55L7.7,28.1L8.15,28.2" style="fill:rgb(238,179,42);"/>
                <path d="M7.45,28.55L7.25,28.3L7,27.85C6.667,27.217 6.583,26.867 6.75,26.8L8.15,28.2" style="fill:none;fill-rule:nonzero;stroke:white;stroke-width:0.05px;"/>
                <path d="M7.45,28.55C7.783,28.883 8.117,29.033 8.45,29L8.45,28.7L8.2,28.2L8.15,28.2" style="fill:none;fill-rule:nonzero;stroke:black;stroke-opacity:0.3;stroke-width:1px;"/>
                <path d="M7.4,27.3L7.35,27.15L7.4,26.75C7.967,26.717 8.433,26.867 8.8,27.2C9,27.467 9,27.717 8.8,27.95L7.55,27.75L7.45,27.7L7.4,27.55L7.35,27.45L7.4,27.3" style="fill:rgb(23,114,141);"/>
                <path d="M7.4,27.3L7.35,27.15L7.4,26.75C7.967,26.717 8.433,26.867 8.8,27.2C9,27.467 9,27.717 8.8,27.95L7.55,27.75" style="fill:none;fill-rule:nonzero;stroke:white;stroke-width:0.05px;"/>
                <path d="M14.05,24.7L14.05,25.5L13.45,26.35L12.7,26.5C12.467,25.9 12.45,25.283 12.65,24.65L14.05,24.7" style="fill:rgb(15,168,212);"/>
                <path d="M14.05,24.7L14.05,25.5L13.45,26.35L12.7,26.5C12.467,25.9 12.45,25.283 12.65,24.65L14.05,24.7Z" style="fill:none;fill-rule:nonzero;stroke:white;stroke-width:0.05px;"/>
                <path d="M14.1,24.65C13.8,25.083 13.3,25.217 12.6,25.05C11.867,24.517 11.45,23.917 11.35,23.25C12.017,22.35 12.717,22.15 13.45,22.65C13.783,23.15 14,23.817 14.1,24.65" style="fill:rgb(15,168,212);"/>
                <path d="M12.6,25.05C11.867,24.517 11.45,23.917 11.35,23.25C12.017,22.35 12.717,22.15 13.45,22.65C13.783,23.15 14,23.817 14.1,24.65" style="fill:none;fill-rule:nonzero;stroke:white;stroke-width:0.05px;"/>
                <path d="M6.3,24.1L6.8,24.9L7.1,25.2L7,25.55L6.3,25.35C6.067,25.25 5.95,25.1 5.95,24.9L6.05,24.35L6.3,24.1" style="fill:rgb(23,114,141);"/>
                <path d="M6.3,24.1L6.8,24.9L7.1,25.2L7,25.55L6.3,25.35C6.067,25.25 5.95,25.1 5.95,24.9L6.05,24.35L6.3,24.1Z" style="fill:none;fill-rule:nonzero;stroke:white;stroke-width:0.05px;"/>
                <path d="M8.9,26.3C7.967,26.667 7.283,26.667 6.85,26.3L6.75,25.55C6.75,25.35 6.95,25.1 7.35,24.8C7.683,24.533 8.1,24.383 8.6,24.35C9.1,25.05 9.2,25.7 8.9,26.3" style="fill:rgb(23,114,141);"/>
                <path d="M8.9,26.3C7.967,26.667 7.283,26.667 6.85,26.3L6.75,25.55C6.75,25.35 6.95,25.1 7.35,24.8C7.683,24.533 8.1,24.383 8.6,24.35" style="fill:none;fill-rule:nonzero;stroke:white;stroke-width:0.05px;"/>
                <path d="M8.1,24.6L8.75,23.6C9.35,23.467 9.783,23.583 10.05,23.95C10.517,24.483 10.75,25.1 10.75,25.8L10.4,26.45C9.3,26.517 8.517,26.383 8.05,26.05C7.783,25.617 7.8,25.133 8.1,24.6" style="fill:rgb(23,114,141);"/>
                <path d="M8.1,24.6L8.75,23.6C9.35,23.467 9.783,23.583 10.05,23.95C10.517,24.483 10.75,25.1 10.75,25.8L10.4,26.45C9.3,26.517 8.517,26.383 8.05,26.05" style="fill:none;fill-rule:nonzero;stroke:black;stroke-opacity:0.3;stroke-width:1px;"/>
                <path d="M8.3,25.8L8.7,26.15C8.933,26.517 8.983,27.017 8.85,27.65L8.55,27.8L8.1,27.65L7.75,27.5L7.2,27L6.85,26.35C6.95,26.05 7.167,25.833 7.5,25.7L8.3,25.8" style="fill:rgb(23,114,141);"/>
                <path d="M8.3,25.8L8.7,26.15C8.933,26.517 8.983,27.017 8.85,27.65M7.2,27L6.85,26.35" style="fill:none;fill-rule:nonzero;stroke:white;stroke-width:0.05px;"/>
                <path d="M8.4,26.9L8.4,26.35C8.333,26.117 8.15,25.917 7.85,25.75C7.583,25.617 7.367,25.683 7.2,25.95L7.1,26.5L7.25,26.9L7.1,26.85L6.9,26.4L6.9,26.25C6.9,26.117 6.95,25.967 7.05,25.8C7.283,25.5 7.567,25.433 7.9,25.6C8.233,25.8 8.433,26.05 8.5,26.35L8.5,26.9C8.433,27.033 8.317,27.117 8.15,27.15L7.5,26.8L7.4,26.55C7.333,26.283 7.4,26.067 7.6,25.9C7.467,26.1 7.433,26.317 7.5,26.55L8.1,27.05L8.4,26.9" style="fill:rgb(130,187,207);"/>
                <path d="M8.35,24.3C8.417,23.533 8.733,22.917 9.3,22.45C9.833,21.983 10.467,21.75 11.2,21.75C11.933,21.75 12.55,21.95 13.05,22.35C13.55,22.75 13.783,23.2 13.75,23.7C13.717,24.167 13.433,24.717 12.9,25.35C12.367,26.017 11.7,26.433 10.9,26.6L10.15,26.65C9.717,26.617 9.333,26.45 9,26.15C8.5,25.717 8.283,25.117 8.35,24.35L8.35,24.3" style="fill:rgb(23,114,141);"/>
                <path d="M8.35,24.3C8.417,23.533 8.733,22.917 9.3,22.45C9.833,21.983 10.467,21.75 11.2,21.75C11.933,21.75 12.55,21.95 13.05,22.35C13.55,22.75 13.783,23.2 13.75,23.7C13.717,24.167 13.433,24.717 12.9,25.35C12.367,26.017 11.7,26.433 10.9,26.6L10.15,26.65" style="fill:none;fill-rule:nonzero;stroke:white;stroke-width:0.05px;"/>
                <path d="M14.65,23.65C14.383,24.483 13.55,25.3 12.15,26.1L11,25.9L10,25.35C9.067,24.317 8.733,23.567 9,23.1C10.3,21.6 11.733,21.383 13.3,22.45C14.433,22.45 14.883,22.85 14.65,23.65" style="fill:rgb(130,187,207);"/>
                <path d="M14.65,23.65C14.383,24.483 13.55,25.3 12.15,26.1L11,25.9L10,25.35C9.067,24.317 8.733,23.567 9,23.1C10.3,21.6 11.733,21.383 13.3,22.45C14.433,22.45 14.883,22.85 14.65,23.65Z" style="fill:none;fill-rule:nonzero;stroke:white;stroke-width:0.05px;"/>
                <path d="M12.35,26.3L12.55,25.8C12.617,25.7 12.7,25.633 12.8,25.6L13.1,25.4L13.05,25.55L13.15,25.65L13.45,26.25L13.45,26.7L13.35,26.4L12.95,25.9L12.75,25.75C12.55,25.85 12.417,26.033 12.35,26.3" style="fill:rgb(184,134,62);"/>
                <path d="M13.45,26.7L13.45,26.75L12.95,27.55C12.617,27.25 12.417,26.85 12.35,26.35L12.35,26.3C12.417,26.033 12.55,25.85 12.75,25.75L12.95,25.9L13.35,26.4L13.45,26.7" style="fill:rgb(238,179,42);"/>
                <path d="M13.45,26.7L13.45,26.75L12.95,27.55C12.617,27.25 12.417,26.85 12.35,26.35L12.35,26.3L12.55,25.8C12.617,25.7 12.7,25.633 12.8,25.6L13.1,25.4M13.45,26.25L13.45,26.7L13.35,26.4L12.95,25.9L12.75,25.75" style="fill:none;fill-rule:nonzero;stroke:black;stroke-opacity:0.3;stroke-width:1px;"/>
                <path d="M10.75,25.6C10.25,26.167 9.783,26.417 9.35,26.35C8.75,25.25 8.617,24.283 8.95,23.45C9.45,23.383 9.95,23.7 10.45,24.4L10.75,25.6" style="fill:rgb(15,168,212);"/>
                <path d="M9.35,26.35C8.75,25.25 8.617,24.283 8.95,23.45M10.45,24.4L10.75,25.6" style="fill:none;fill-rule:nonzero;stroke:white;stroke-width:0.05px;"/>
                <path d="M8.95,24.35L8.95,24.4L9,24.8L8.85,24.7L8.75,24.2L8.8,24.1L8.95,24.35" style="fill:rgb(130,187,207);"/>
                <path d="M8.95,24.35L8.8,24.1L9.1,23.75C9.4,23.483 9.7,23.483 10,23.75C10.267,24.017 10.4,24.283 10.4,24.55L10.25,25.1C10.15,25.233 10.017,25.3 9.85,25.3L9.3,24.75L9.25,24.5C9.25,24.233 9.367,24.033 9.6,23.9C9.467,24.067 9.383,24.283 9.35,24.55C9.383,24.817 9.533,25.017 9.8,25.15L10.1,25.1L10.3,24.55L9.95,23.85C9.683,23.65 9.433,23.65 9.2,23.85L8.95,24.35" style="fill:rgb(182,223,236);"/>
                <path d="M10.9,26.7C10.9,26.333 10.95,26.083 11.05,25.95L11.6,25.85L12.05,26.1L11.5,26.2C11.4,26.6 11.417,26.95 11.55,27.25L11.2,27L10.9,26.7" style="fill:rgb(184,134,62);"/>
                <path d="M11.55,27.25C11.417,26.95 11.4,26.6 11.5,26.2L12.05,26.1C12.35,26.567 12.467,27.1 12.4,27.7C12.033,27.7 11.75,27.567 11.55,27.3L11.55,27.25" style="fill:rgb(238,179,42);"/>
                <path d="M10.9,26.7L11.2,27L11.55,27.25L11.55,27.3C11.75,27.567 12.033,27.7 12.4,27.7C12.467,27.1 12.35,26.567 12.05,26.1L11.6,25.85" style="fill:none;fill-rule:nonzero;stroke:black;stroke-opacity:0.3;stroke-width:1px;"/>
                <path d="M10.7,25.2L11.4,25.65L11.85,26.05L11.05,26.7L9.3,26.4C9.267,25.567 9.733,25.167 10.7,25.2" style="fill:rgb(15,168,212);"/>
                <path d="M10.7,25.2L11.4,25.65L11.85,26.05M11.05,26.7L9.3,26.4" style="fill:none;fill-rule:nonzero;stroke:white;stroke-width:0.05px;"/>
                <path d="M9.55,26.35L8.95,26.15C8.717,25.817 8.6,25.533 8.6,25.3L9.2,25.6L9.3,25.7L9.5,26.15L9.55,26.35" style="fill:rgb(15,168,212);"/>
                <path d="M9.55,26.35L8.95,26.15C8.717,25.817 8.6,25.533 8.6,25.3L9.2,25.6L9.3,25.7" style="fill:none;fill-rule:nonzero;stroke:white;stroke-width:0.05px;"/>
                <path d="M9.55,26.25L9.75,26.35L9.8,26.55L9.3,26.6L8.95,26.2L9.55,26.25" style="fill:rgb(15,168,212);"/>
                <path d="M9.55,26.25L8.95,26.2L9.3,26.6L9.8,26.55" style="fill:none;fill-rule:nonzero;stroke:white;stroke-width:0.05px;"/>
                <path d="M10.75,22.7C10.017,22.233 9.183,21.983 8.25,21.95C7.683,21.35 7.967,20.7 9.1,20C9.7,19.733 10.333,19.55 11,19.45C13.2,19.417 14.2,20.2 14,21.8C13.933,22.567 13.467,23.3 12.6,24C11.9,23.7 11.283,23.267 10.75,22.7" style="fill:rgb(23,114,141);"/>
                <path d="M10.75,22.7C10.017,22.233 9.183,21.983 8.25,21.95C7.683,21.35 7.967,20.7 9.1,20C9.7,19.733 10.333,19.55 11,19.45C13.2,19.417 14.2,20.2 14,21.8" style="fill:none;fill-rule:nonzero;stroke:white;stroke-width:0.05px;"/>
                <path d="M2.2,13.6L2.2,13.45L2.35,13L2.45,12.85L2.5,12.8L2.6,12.75L4.3,12.95L5.85,11.95L6,11.75C7.367,10.35 9.033,9.65 11,9.65C12.533,9.65 13.883,10.1 15.05,11C16.117,11.767 16.983,12.983 17.65,14.65C17.983,15.65 18.133,16.583 18.1,17.45C18.033,18.55 17.833,19.45 17.5,20.15L17.6,20.25L17.75,21.05L17.3,22.05C16.8,22.683 16.017,23.033 14.95,23.1L13.9,23.1L13.65,23.2C11.517,22.6 9.95,21.567 8.95,20.1L8.35,19.35L7.25,18.1L7.1,17.9L7.15,17.65L6.9,17.7L4.75,17.4L4,16.75C2.867,15.617 2.267,14.567 2.2,13.6" style="fill:rgb(15,168,212);"/>
                <path d="M17.3,22.05C16.8,22.85 15.95,23.333 14.75,23.5L13.15,23.5L12.15,23.4L10.95,23.1L10.8,23.05L9.45,22.35L9.25,22.3C8.05,22.067 6.983,21.65 6.05,21.05L5.05,20.15L4.85,20.05L4.6,19.85C3.433,18.983 2.917,18.117 3.05,17.25L3.6,17.45L2.65,16.05C2.25,15.183 2.1,14.367 2.2,13.6C2.267,14.567 2.867,15.617 4,16.75L4.75,17.4L6.9,17.7L7.15,17.65L7.1,17.9L7.25,18.1L8.35,19.35L8.95,20.1C9.95,21.567 11.517,22.6 13.65,23.2L13.9,23.1L14.95,23.1C16.017,23.033 16.8,22.683 17.3,22.05M4.1,17.9L3.6,17.45L4.1,17.9" style="fill:rgb(23,114,141);"/>
                <path d="M2.2,13.6L2.2,13.45L2.35,13L2.45,12.85L2.5,12.8L2.6,12.75L4.3,12.95L5.85,11.95L6,11.75C7.367,10.35 9.033,9.65 11,9.65C12.533,9.65 13.883,10.1 15.05,11C16.117,11.767 16.983,12.983 17.65,14.65C17.983,15.65 18.133,16.583 18.1,17.45C18.033,18.55 17.833,19.45 17.5,20.15L17.6,20.25L17.75,21.05L17.3,22.05C16.8,22.85 15.95,23.333 14.75,23.5L13.15,23.5M9.25,22.3C8.05,22.067 6.983,21.65 6.05,21.05L5.05,20.15L4.85,20.05L4.6,19.85C3.433,18.983 2.917,18.117 3.05,17.25L3.6,17.45L2.65,16.05C2.25,15.183 2.1,14.367 2.2,13.6M3.6,17.45L4.1,17.9" style="fill:none;fill-rule:nonzero;stroke:white;stroke-width:0.05px;"/>
                <path d="M16.25,22.6L16.6,22.25L16.7,21.95M16.6,22.25L16.65,22.45" style="fill:none;fill-rule:nonzero;stroke:black;stroke-opacity:0.3;stroke-width:0.05px;"/>
                <path d="M17.4,14.2L17.5,14.3C17.867,15.733 18.017,17.217 17.95,18.75L17.8,19.2L17.75,18C17.683,16.667 17.517,15.517 17.25,14.55L17.1,14C16.833,13.233 16.6,13.083 16.4,13.55L16.35,13.65C16.117,14.383 16.05,15.367 16.15,16.6C16.217,17.8 16.317,18.667 16.45,19.2C16.583,19.733 16.717,19.967 16.85,19.9C17.15,19.567 17.283,18.75 17.25,17.45L16.75,14.3C17.083,15.1 17.317,16.15 17.45,17.45C17.483,18.55 17.383,19.433 17.15,20.1L16.95,20.55L16.85,20.5C16.65,20.333 16.467,19.9 16.3,19.2L15.95,16.45C15.883,15.25 15.95,14.217 16.15,13.35L16.25,12.95L16.5,12.5L17.4,14.2" style="fill:rgb(182,223,236);"/>
                <path d="M15.9,17.3L16.1,17.9C16.2,18.333 16.533,18.967 17.1,19.8L17.7,20.45C17.867,20.783 17.583,20.967 16.85,21L15,19.85L14.8,19.1L15.9,17.3" style="fill:rgb(15,168,212);"/>
                <path d="M15.9,17.3L16.1,17.9C16.2,18.333 16.533,18.967 17.1,19.8L17.7,20.45" style="fill:none;fill-rule:nonzero;stroke:white;stroke-width:1px;"/>
                <path d="M7.25,18.1L8.35,19.35L8.35,19.45L9.05,21.35L8.2,20.95C7.667,20.25 7.35,19.533 7.25,18.8L7.25,18.1" style="fill:rgb(130,187,207);"/>
                <path d="M7.25,18.1C7.317,17.4 7.6,16.717 8.1,16.05C9.233,14.45 10.633,14.1 12.3,15C14,15.9 15.017,17.05 15.35,18.45C15.617,19.517 15.583,20.45 15.25,21.25C14.917,21.95 14.383,22.4 13.65,22.6L13.4,22.65C12,22.15 10.983,21.483 10.35,20.65L9.8,19.6C9.533,18.3 9.883,17.233 10.85,16.4C10.25,17.333 10.1,18.4 10.4,19.6C10.933,20.867 11.933,21.65 13.4,21.95C13.933,22.017 14.367,21.783 14.7,21.25C15.033,20.683 15.05,19.8 14.75,18.6C14.45,17.367 13.6,16.417 12.2,15.75C10.8,15.017 9.7,15.333 8.9,16.7C8.4,17.467 8.217,18.35 8.35,19.35L7.25,18.1" style="fill:rgb(182,223,236);"/>
                <path d="M17.7,20.15C17.933,20.35 17.983,20.683 17.85,21.15L17.5,21.15L17.2,21C16.933,21.2 16.783,21.2 16.75,21C16.75,20.8 16.85,20.567 17.05,20.3C17.317,20.1 17.533,20.05 17.7,20.15" style="fill:rgb(238,179,42);"/>
                <path d="M17.7,20.15C17.933,20.35 17.983,20.683 17.85,21.15L17.5,21.15L17.2,21C16.933,21.2 16.783,21.2 16.75,21C16.75,20.8 16.85,20.567 17.05,20.3C17.317,20.1 17.533,20.05 17.7,20.15Z" style="fill:none;fill-rule:nonzero;stroke:black;stroke-opacity:0.4;stroke-width:1px;"/>
                <path d="M14.4,20.25L14.35,20.15L14.4,20.25L13.6,20.95L13,21.2L11.95,21.35L11.2,21.3L10.7,21.1L10.4,20.95L9.5,20L9.2,19.55L8.8,18.3L10.45,17.65L11.7,17.45L12.5,17.55C13.533,18.05 14.167,18.9 14.4,20.1L14.4,20.25M14.35,20.15C13.85,18.817 13.25,18.05 12.55,17.85L11.95,17.75L10.7,17.85C10.2,17.95 9.7,18.15 9.2,18.45C9.2,18.85 9.333,19.267 9.6,19.7C9.833,20.167 10.2,20.533 10.7,20.8L10.95,20.95L11.95,21.15L13.15,20.95L14.35,20.15" style="fill:rgb(35,25,16);"/>
                <path d="M14.35,20.15L13.15,20.95L11.95,21.15L10.95,20.95L10.7,20.8C10.2,20.533 9.833,20.167 9.6,19.7C9.333,19.267 9.2,18.85 9.2,18.45C9.7,18.15 10.2,17.95 10.7,17.85L11.95,17.75L12.55,17.85C13.25,18.05 13.85,18.817 14.35,20.15" style="fill:rgb(236,236,236);"/>
                <path d="M14.35,20.15L14.4,20.25" style="fill:none;fill-rule:nonzero;stroke:black;stroke-opacity:0.4;stroke-width:1px;"/>
                <path d="M10.15,20.35L10.1,20.2L10.05,20.15L10.15,20.35Z" style="fill:none;fill-rule:nonzero;stroke:white;stroke-width:1px;"/>
                <path d="M11.25,23.75C10.85,23.783 10.683,24.017 10.75,24.45C10.117,23.883 9.317,23.567 8.35,23.5C6.483,23.033 5.217,22.35 4.55,21.45L4.6,21.45C5.667,22.117 7.883,22.883 11.25,23.75" style="fill:rgb(130,187,207);"/>
                <path d="M4.6,21.45C5.433,21.283 6.733,21.45 8.5,21.95C8.967,20.85 9.7,21.017 10.7,22.45C11.7,23.85 11.9,24.283 11.3,23.75L11.25,23.75C7.883,22.883 5.667,22.117 4.6,21.45" style="fill:rgb(182,223,236);"/>
                <path d="M11.3,23.75L11.25,23.75" style="fill:none;fill-rule:nonzero;stroke:white;stroke-width:1px;"/>
                <path d="M10.75,24.45C10.117,23.883 9.317,23.567 8.35,23.5C6.483,23.033 5.217,22.35 4.55,21.45L4.6,21.45C5.433,21.283 6.733,21.45 8.5,21.95" style="fill:none;fill-rule:nonzero;stroke:white;stroke-width:0.05px;"/>
                <path d="M6.25,21.45C5.317,20.517 4.917,19.633 5.05,18.8L6.45,19.05L8.05,19.55L9.1,21.05L9.25,21.3C9.45,21.8 9.45,22.117 9.25,22.25L6.35,21.6L6.25,21.45" style="fill:rgb(182,223,236);"/>
                <path d="M6.25,21.45C5.317,20.517 4.917,19.633 5.05,18.8L6.45,19.05L8.05,19.55L9.1,21.05" style="fill:none;fill-rule:nonzero;stroke:white;stroke-width:0.05px;"/>
                <path d="M8.85,21.35C9.05,21.75 9.117,22.15 9.05,22.55L8.2,22.5C7.733,22.133 7.45,21.617 7.35,20.95C7.783,20.883 8.267,21 8.8,21.3L8.85,21.35" style="fill:rgb(182,223,236);"/>
                <path d="M8.85,21.35L8.8,21.3C8.267,21 7.783,20.883 7.35,20.95C7.45,21.617 7.733,22.133 8.2,22.5" style="fill:none;fill-rule:nonzero;stroke:white;stroke-width:0.05px;"/>
                <path d="M16.65,18.95L16.65,18.9C16.35,17.967 16.217,17 16.25,16L16.35,15.45L16.65,14.8L17.1,14.2L17.4,15.25L17.5,15.8L17.6,16.95L17.6,17.2L17.55,17.65L17.45,18.2L17.2,18.7L17.05,18.95L16.65,18.95L16.7,18.85L17.1,18.65L17.35,18.05L17.5,17.3L17.5,17L17.4,15.65L17.1,14.5L16.65,15.1L16.4,15.85L16.35,16.25C16.283,16.817 16.4,17.683 16.7,18.85L16.65,18.95" style="fill:rgb(35,25,16);"/>
                <path d="M16.7,18.85C16.4,17.683 16.283,16.817 16.35,16.25L16.4,15.85L16.65,15.1L17.1,14.5L17.4,15.65L17.5,17L17.5,17.3L17.35,18.05L17.1,18.65L16.7,18.85" style="fill:rgb(236,236,236);"/>
                <path d="M16.65,18.95L16.7,18.85" style="fill:none;fill-rule:nonzero;stroke:black;stroke-opacity:0.4;stroke-width:1px;"/>
                <path d="M7.1,14.9C7.367,14.5 7.583,14.283 7.75,14.25L8.2,14.1L8.3,14.1L8.75,15.25C8.817,16.217 8.667,17.017 8.3,17.65L7.7,17L6.15,16.9L6.25,16.6L7.1,14.9" style="fill:rgb(15,168,212);"/>
                <path d="M8.3,17.65L8.2,17.7L7.5,18.25C6.1,18.617 5.65,18.167 6.15,16.9L7.7,17L8.3,17.65" style="fill:rgb(238,179,42);"/>
                <path d="M8.75,15.25C8.817,16.217 8.667,17.017 8.3,17.65M6.15,16.9L6.25,16.6L7.1,14.9" style="fill:none;fill-rule:nonzero;stroke:white;stroke-width:0.05px;"/>
                <path d="M8.3,17.65L8.2,17.7L7.5,18.25C6.1,18.617 5.65,18.167 6.15,16.9L7.7,17L8.3,17.65Z" style="fill:none;fill-rule:nonzero;stroke:black;stroke-opacity:0.3;stroke-width:0.05px;"/>
                <path d="M15.3,11.5L13.3,11.7L12.8,10.45L15.2,10.35L15.3,11.5" style="fill:rgb(201,128,47);"/>
                <path d="M15.3,11.5L13.3,11.7L12.8,10.45L15.2,10.35L15.3,11.5Z" style="fill:none;fill-rule:nonzero;stroke:black;stroke-opacity:0.3;stroke-width:0.05px;"/>
                <path d="M13.75,1.05C14.55,1.717 15.267,2.567 15.9,3.6L15.85,4.85C15.683,6.217 15.317,7.417 14.75,8.45L14.8,8.7L15.2,10.85C14.5,11.25 13.917,11.35 13.45,11.15L13.15,10.5L14.55,10.25L14.15,8.6L14.1,8.55C14.633,7.85 15.15,6.533 15.65,4.6L15.6,4.5L14.85,4.5L15.4,4.15L13.75,1.05" style="fill:rgb(130,187,207);"/>
                <path d="M13.75,1.05L15.4,4.15L14.85,4.5L15.6,4.5L15.65,4.6C15.15,6.533 14.633,7.85 14.1,8.55L14.15,8.6L14.55,10.25L13.15,10.5L12.85,8.5L12.85,8.45C13.083,7.217 13.567,5.967 14.3,4.7L12.4,0.1L13.75,1.05" style="fill:rgb(182,223,236);"/>
                <path d="M13.15,10.5L13.45,11.15C13.917,11.35 14.5,11.25 15.2,10.85L14.8,8.7L14.75,8.45C15.317,7.417 15.683,6.217 15.85,4.85L15.9,3.6C15.267,2.567 14.55,1.717 13.75,1.05L12.4,0.1L14.3,4.7C13.567,5.967 13.083,7.217 12.85,8.45L12.85,8.5L13.15,10.5Z" style="fill:none;fill-rule:nonzero;stroke:white;stroke-width:0.05px;"/>
                <path d="M12.75,7.05C13.817,6.617 13.967,5.917 13.2,4.95L14.1,6.2C13.933,6.967 13.483,7.25 12.75,7.05" style="fill:rgb(130,187,207);"/>
                <path d="M12.75,7.05C12.35,5.983 12.2,5 12.3,4.1L13.2,4.95C13.967,5.917 13.817,6.617 12.75,7.05" style="fill:rgb(182,223,236);"/>
                <path d="M13.2,4.95L12.3,4.1C12.2,5 12.35,5.983 12.75,7.05M13.2,4.95L14.1,6.2" style="fill:none;fill-rule:nonzero;stroke:white;stroke-width:0.05px;"/>
                <path d="M13,10.55L14.45,10.8L15.05,10.5L15.2,10.35L15.2,10.4L15.3,10.9C15.433,11.733 15.317,12 14.95,11.7L15,11.9L14.6,12.15L13.55,12.2L13.45,11.75L13.45,11.8L12.85,12L12.8,12L12.7,11.15L12.85,10.45L13,10.55M14.45,10.8L14.95,11.7L14.45,10.8M14.15,11.65L13.45,11.75L14.15,11.65" style="fill:rgb(238,179,42);"/>
                <path d="M15.2,10.4C15.633,10.833 15.767,11.317 15.6,11.85L15.05,12.3L14.5,12.6L14.1,12.6L13.75,12.5L12.9,12.25L12.85,12.1L12.8,12L12.85,12L13.45,11.8L13.45,11.75L13.55,12.2L14.6,12.15L15,11.9L14.95,11.7C15.317,12 15.433,11.733 15.3,10.9L15.2,10.4M13.45,11.8L13.55,12.2L13.75,12.5L13.55,12.2L13.45,11.8M15.05,12.3L15,11.9L15.05,12.3" style="fill:rgb(201,128,47);"/>
                <path d="M13,10.55L14.45,10.8L15.05,10.5M15.2,10.35L15.2,10.4C15.633,10.833 15.767,11.317 15.6,11.85L15.05,12.3L14.5,12.6L14.1,12.6L13.75,12.5L12.9,12.25L12.85,12.1L12.8,12L12.7,11.15L12.85,10.45M15,11.9L14.95,11.7L14.45,10.8M13.75,12.5L13.55,12.2L13.45,11.8L13.45,11.75L14.15,11.65M15,11.9L15.05,12.3" style="fill:none;fill-rule:nonzero;stroke:black;stroke-opacity:0.3;stroke-width:0.05px;"/>
                <path d="M11.95,13.45L10.15,14.35L9.4,13.05C9.767,12.65 10.617,12.317 11.95,12.05L11.95,13.45" style="fill:rgb(201,128,47);"/>
                <path d="M11.95,13.45L10.15,14.35L9.4,13.05C9.767,12.65 10.617,12.317 11.95,12.05L11.95,13.45Z" style="fill:none;fill-rule:nonzero;stroke:black;stroke-opacity:0.3;stroke-width:0.05px;"/>
                <path d="M11.25,11.5L11.45,12.1L11.75,13.2C11.25,14.1 10.567,14.35 9.7,13.95L8.7,11.8C7,12.067 5.3,12.067 3.6,11.8C2.2,9.933 1.117,7.95 0.35,5.85L3.45,10.95C3.783,10.583 4.167,10.333 4.6,10.2C4.167,10.6 3.983,10.967 4.05,11.3C5.383,11.567 7.033,11.583 9,11.35L9.5,12.1C10.233,12.4 10.817,12.2 11.25,11.5" style="fill:rgb(130,187,207);"/>
                <path d="M0.35,5.85C1.75,6.817 3.233,8.15 4.8,9.85L10.25,9.4L11.25,11.5C10.817,12.2 10.233,12.4 9.5,12.1L9,11.35C7.033,11.583 5.383,11.567 4.05,11.3C3.983,10.967 4.167,10.6 4.6,10.2C4.167,10.333 3.783,10.583 3.45,10.95L0.35,5.85" style="fill:rgb(182,223,236);"/>
                <path d="M0.35,5.85C1.75,6.817 3.233,8.15 4.8,9.85L10.25,9.4L11.25,11.5L11.45,12.1L11.75,13.2C11.25,14.1 10.567,14.35 9.7,13.95L8.7,11.8C7,12.067 5.3,12.067 3.6,11.8C2.2,9.933 1.117,7.95 0.35,5.85Z" style="fill:none;fill-rule:nonzero;stroke:white;stroke-width:0.05px;"/>
                <path d="M6.5,8.8L6.2,7.35C7.167,7.85 8.083,8.633 8.95,9.7C7.817,10.533 7,10.233 6.5,8.8" style="fill:rgb(182,223,236);"/>
                <path d="M8.95,9.7C8.717,10.567 8.133,10.85 7.2,10.55L6.5,8.8C7,10.233 7.817,10.533 8.95,9.7" style="fill:rgb(130,187,207);"/>
                <path d="M6.5,8.8L6.2,7.35C7.167,7.85 8.083,8.633 8.95,9.7M7.2,10.55L6.5,8.8" style="fill:none;fill-rule:nonzero;stroke:white;stroke-width:0.05px;"/>
                <path d="M9.8,14.7C9.433,14.233 9.283,13.667 9.35,13L11.25,12.75L11.95,12L12,12.05C12.667,13.283 12.717,13.8 12.15,13.6L12.25,13.75L11.85,14.15L10.7,14.6L10.45,14.2L10.45,14.25L9.85,14.7L9.8,14.7M11.2,13.75C10.933,13.717 10.683,13.867 10.45,14.2C10.683,13.867 10.933,13.717 11.2,13.75M12.15,13.6L11.25,12.75L12.15,13.6" style="fill:rgb(238,179,42);"/>
                <path d="M12,12.05C12.633,12.35 12.933,12.817 12.9,13.45L12.4,14.15L11.85,14.7L11.45,14.9L9.95,14.9L9.85,14.8L9.8,14.7L9.85,14.7L10.45,14.25L10.45,14.2L10.7,14.6L11.85,14.15L12.25,13.75L12.15,13.6C12.717,13.8 12.667,13.283 12,12.05M12.4,14.15L12.25,13.75L12.4,14.15M10.45,14.25L10.7,14.6L11.05,14.9L10.7,14.6L10.45,14.25" style="fill:rgb(201,128,47);"/>
                <path d="M9.8,14.7C9.433,14.233 9.283,13.667 9.35,13L11.25,12.75L11.95,12L12,12.05C12.633,12.35 12.933,12.817 12.9,13.45L12.4,14.15L11.85,14.7L11.45,14.9L9.95,14.9L9.85,14.8L9.8,14.7M10.45,14.25L10.45,14.2C10.683,13.867 10.933,13.717 11.2,13.75M12.15,13.6L12.25,13.75L12.4,14.15M11.05,14.9L10.7,14.6L10.45,14.25M11.25,12.75L12.15,13.6" style="fill:none;fill-rule:nonzero;stroke:black;stroke-opacity:0.3;stroke-width:0.05px;"/>
            </g>
        </g>
    </g>
</svg>
