<?xml version="1.0" encoding="UTF-8" standalone="no"?>
<!DOCTYPE svg PUBLIC "-//W3C//DTD SVG 1.1//EN" "http://www.w3.org/Graphics/SVG/1.1/DTD/svg11.dtd">
<svg width="100%" height="100%" viewBox="0 0 19 28" version="1.1" xmlns="http://www.w3.org/2000/svg" xmlns:xlink="http://www.w3.org/1999/xlink" xml:space="preserve" xmlns:serif="http://www.serif.com/" style="fill-rule:evenodd;clip-rule:evenodd;stroke-linecap:round;stroke-linejoin:round;">
    <g transform="matrix(1,0,0,1,-15.75,-11.05)">
        <g transform="matrix(1,0,0,1,25,25.05)">
            <g id="sprite0">
                <g id="shape0">
                    <path d="M2.6,-13.15L2.85,-13.5C3.683,-10.833 3.517,-8.35 2.35,-6.05L2.6,-5.75L4.95,-6.15L5.6,-6.15L3.15,-4.85L3.6,-4L5.25,-3.9L5.75,-4.8L7.15,-5.7L6.85,-3.85L7.9,-3.9L7.9,-1.25L8.2,-1.15L7.9,-1.15L7.9,-0.5L8.15,-0.5L8.65,-0.05C8.817,0.25 8.733,0.583 8.4,0.95L7.8,0.85L7.75,1.5L7.55,3.4L7.85,3.65L8.75,4.55L7.4,4.25L7.25,5.1L7.2,5.4C6.767,7.767 6.133,10.117 5.3,12.45L3.9,13.4L2.25,13.45L1.8,13.45C0.4,13.317 -0.967,12.867 -2.3,12.1L-1.85,10.6L-3.2,11.55L-5.05,10.1L-4.85,9.8L-5.2,8.75L-5.25,8.85C-5.583,9.317 -5.967,9.55 -6.4,9.55L-6.55,8.9L-6.5,8L-7.3,8.5L-7.4,7.6L-7.35,7.2L-7.55,7L-7.5,7L-8.7,7.05L-8.6,6.45L-8,5.3L-8.3,5L-8.75,4.25L-8.5,4.15C-8,4.05 -7.333,4.233 -6.5,4.7L-6.25,4.55C-6.117,4.517 -5.967,4.567 -5.8,4.7L-5.75,4.75L-4.7,4.25L-4.5,4.1L-2.6,2.8L-2.4,2.65L-2.1,2.45L-2,2.2L-1.95,1.9L-1.85,1.65L-1.25,1.35L-1.05,0.65L-1.55,0.85L-0.95,0.3C-0.65,-0.9 -0.4,-2.133 -0.2,-3.4L0.1,-3.55L-0.5,-3.35L0.4,-4.25L1.85,-5.25L1.85,-5.3C-0.583,-5.567 -2.717,-6.667 -4.55,-8.6L-4.15,-8.65C-2.65,-8.783 -0.983,-8.467 0.85,-7.7C1.05,-10.033 1.633,-11.85 2.6,-13.15M2.25,-4.15L2.15,-4.4L1.75,-4.2L2.25,-4.15M-5.35,6.1L-5.65,6.45L-5.65,6.5L-5.3,6.5L-5.15,6.25L-4.7,6.2L-4.6,6.25L-3.85,5.35L-3.75,5.2L-5.35,6.05L-5.35,6.1M-3.9,7.75L-3.85,8L-3.15,6.55L-3.75,7.25L-3.7,7.35C-3.633,7.583 -3.7,7.717 -3.9,7.75" style="fill:#280a02;fill-opacity:0;"/>
                    <path d="M2.6,-13.15C1.633,-11.85 1.05,-10.033 0.85,-7.7C-0.983,-8.467 -2.65,-8.783 -4.15,-8.65L-4.55,-8.6C-2.717,-6.667 -0.583,-5.567 1.85,-5.3L1.85,-5.25L0.4,-4.25L-0.5,-3.35L0.1,-3.55L-0.2,-3.4C-0.4,-2.133 -0.65,-0.9 -0.95,0.3L-1.55,0.85L-1.05,0.65L-1.25,1.35L-1.85,1.65L-1.95,1.9L-2,2.2L-2.1,2.45L-2.4,2.65L-2.6,2.8L-4.5,4.1L-4.7,4.25L-5.75,4.75L-5.8,4.7C-5.967,4.567 -6.117,4.517 -6.25,4.55L-6.5,4.7C-7.333,4.233 -8,4.05 -8.5,4.15L-8.75,4.25L-8.3,5L-8,5.3L-8.6,6.45L-8.7,7.05L-7.5,7L-7.55,7L-7.35,7.2L-7.4,7.6L-7.3,8.5L-6.5,8L-6.55,8.9L-6.4,9.55C-5.967,9.55 -5.583,9.317 -5.25,8.85L-5.2,8.75L-4.85,9.8L-5.05,10.1L-3.2,11.55L-1.85,10.6L-2.3,12.1C-0.967,12.867 0.4,13.317 1.8,13.45L2.25,13.45L3.9,13.4L5.3,12.45C6.133,10.117 6.767,7.767 7.2,5.4L7.25,5.1L7.4,4.25L8.75,4.55L7.85,3.65L7.55,3.4L7.75,1.5L7.8,0.85L8.4,0.95C8.733,0.583 8.817,0.25 8.65,-0.05L8.15,-0.5L7.9,-0.5L7.9,-1.15L8.2,-1.15L7.9,-1.25L7.9,-3.9L6.85,-3.85L7.15,-5.7L5.75,-4.8L5.25,-3.9L3.6,-4L3.15,-4.85L5.6,-6.15L4.95,-6.15L2.6,-5.75L2.35,-6.05C3.517,-8.35 3.683,-10.833 2.85,-13.5L2.6,-13.15Z" style="fill:none;fill-rule:nonzero;stroke:#280a02;stroke-width:1px;"/>
                </g>
                <g id="sprite1">
                    <g id="shape1">
                        <path d="M-6.45,7.65L-6.85,7.5L-7.55,7L-7.35,6.8L-5.05,6.5L-3.95,7.35C-3.717,8.717 -3.9,9.7 -4.5,10.3L-4.95,9.5L-5.2,8.75L-5.25,8.85C-5.583,9.317 -5.967,9.55 -6.4,9.55L-6.55,8.9L-6.45,7.65L-6,7.75L-6.45,7.65" style="fill:#5d4524;"/>
                        <path d="M-6.45,7.65L-6.55,8.9L-6.4,9.55C-5.967,9.55 -5.583,9.317 -5.25,8.85L-5.2,8.75L-4.95,9.5L-4.5,10.3C-3.9,9.7 -3.717,8.717 -3.95,7.35L-5.05,6.5L-7.35,6.8L-7.55,7L-6.85,7.5L-6.45,7.65L-6,7.75" style="fill:none;fill-rule:nonzero;stroke:#000;stroke-opacity:0.3;stroke-width:0.05px;"/>
                        <path d="M-2.5,3.2L-2.4,3L-1.85,1.75L-0.85,2.6L-1.15,3.35L-1.9,3.4L-2.5,3.2L-1.9,3.4L-1.15,3.35L-2.35,5.45L-3.8,7.3L-4.3,6.85L-4.3,6.8L-4.75,6.4L-3.85,5.35L-3.75,5.15L-2.5,3.2M-2.35,5.45L-3.25,5.55L-3.85,5.35L-3.25,5.55L-2.35,5.45" style="fill:#5d4524;"/>
                        <path d="M-1.15,3.35L-0.85,2.6L-1.85,1.75L-2.4,3L-2.5,3.2L-1.9,3.4L-1.15,3.35L-2.35,5.45L-3.8,7.3L-4.3,6.85M-4.3,6.8L-4.75,6.4L-3.85,5.35L-3.75,5.15L-2.5,3.2M-3.85,5.35L-3.25,5.55L-2.35,5.45" style="fill:none;fill-rule:nonzero;stroke:#000;stroke-opacity:0.3;stroke-width:0.05px;"/>
                        <path d="M-3.7,7.35C-3.633,7.583 -3.7,7.717 -3.9,7.75L-4.5,7.75L-5.05,7.35L-5.3,6.75L-5.15,6.25L-4.7,6.2L-4.05,6.65L-3.7,7.35" style="fill:#386291;"/>
                        <path d="M-3.7,7.35C-3.633,7.583 -3.7,7.717 -3.9,7.75L-4.5,7.75L-5.05,7.35L-5.3,6.75L-5.15,6.25L-4.7,6.2L-4.05,6.65L-3.7,7.35Z" style="fill:none;fill-rule:nonzero;stroke:#000;stroke-opacity:0.3;stroke-width:0.05px;"/>
                        <path d="M-8,5.3L-8.3,5L-8.75,4.25L-8.5,4.15C-7.967,4.05 -7.217,4.283 -6.25,4.85L-5.7,5.8C-6.067,6.9 -6.6,7.583 -7.3,7.85L-7.4,7.6L-7.3,6.85L-7.4,6.9L-7.3,6.15C-7.8,6.45 -8.233,6.55 -8.6,6.45L-8,5.3L-7.65,5.6L-8,5.3" style="fill:#b98848;"/>
                        <path d="M-7.4,7.6L-7.3,7.85C-6.6,7.583 -6.067,6.9 -5.7,5.8L-5.55,6.05C-5.95,7.383 -6.533,8.2 -7.3,8.5L-7.4,7.6M-8.6,6.45C-8.233,6.55 -7.8,6.45 -7.3,6.15L-7.4,6.9L-8.7,7.05L-8.6,6.45" style="fill:#5d4524;"/>
                        <path d="M-5.7,5.8L-6.25,4.85C-7.217,4.283 -7.967,4.05 -8.5,4.15L-8.75,4.25L-8.3,5L-8,5.3L-7.65,5.6M-7.4,6.9L-7.3,6.85L-7.4,7.6L-7.3,8.5C-6.533,8.2 -5.95,7.383 -5.55,6.05L-5.7,5.8M-7.4,6.9L-8.7,7.05L-8.6,6.45L-8,5.3" style="fill:none;fill-rule:nonzero;stroke:#000;stroke-opacity:0.3;stroke-width:0.05px;"/>
                        <path d="M-5.95,4.85L-5.7,5.45L-6,4.85L-5.95,4.85M-5.7,5.45L-4.25,4.7L-3.4,4.95L-4.25,4.7L-3.65,4.35L-2.15,3.25L-1.7,2.9L-1.15,2.35L-0.85,2.95L-1.45,3.45L-3.4,4.95L-5.4,6.05L-5.7,5.45M-1.45,3.45L-2.15,3.25L-1.45,3.45" style="fill:#5d4524;"/>
                        <path d="M-5.7,5.45L-5.95,4.85L-4.7,4.25L-4.25,4.7L-4.7,4.25L-4.5,4.1L-2.6,2.8L-2.15,3.25L-2.6,2.8L-2.4,2.65L-1.4,1.75L-1.15,2.35L-1.7,2.9L-2.15,3.25L-3.65,4.35L-4.25,4.7L-5.7,5.45" style="fill:#b98848;"/>
                        <path d="M-5.95,4.85L-6,4.85L-5.4,6.05L-3.4,4.95L-4.25,4.7L-4.7,4.25L-5.95,4.85M-2.15,3.25L-2.6,2.8L-4.5,4.1L-4.7,4.25M-1.15,2.35L-1.4,1.75L-2.4,2.65L-2.6,2.8M-2.15,3.25L-1.45,3.45L-0.85,2.95L-1.15,2.35M-1.45,3.45L-3.4,4.95" style="fill:none;fill-rule:nonzero;stroke:#000;stroke-opacity:0.3;stroke-width:0.05px;"/>
                        <path d="M-5.45,5.35L-5.35,6.1C-5.383,6.333 -5.5,6.45 -5.7,6.45L-6.25,6.15L-6.6,5.6L-6.6,4.9L-6.25,4.55C-6.117,4.517 -5.967,4.567 -5.8,4.7L-5.45,5.35" style="fill:#477db8;"/>
                        <path d="M-5.45,5.35L-5.35,6.1C-5.383,6.333 -5.5,6.45 -5.7,6.45L-6.25,6.15L-6.6,5.6L-6.6,4.9L-6.25,4.55C-6.117,4.517 -5.967,4.567 -5.8,4.7L-5.45,5.35Z" style="fill:none;fill-rule:nonzero;stroke:#000;stroke-opacity:0.3;stroke-width:0.05px;"/>
                        <path d="M5.25,-3.9L4.7,-2.95L1,-3.2L-0.2,-3.4L1.2,-4.3L5.25,-3.9M6.5,-2.95L5.45,-2.95L6.85,-3.85L7.9,-3.9L6.5,-2.95" style="fill:#836340;"/>
                        <path d="M-0.2,-3.4L1,-3.2L4.7,-2.95L5.25,-3.9L5.75,-4.8L5.45,-2.95L6.5,-2.95C6.633,2.283 5.867,7.45 4.2,12.55L3.9,13.4C1.767,13.667 -0.3,13.233 -2.3,12.1L-1.85,10.6L-1.45,9.4L-3.2,11.55L-5.05,10.1C-2.617,6.067 -1,1.567 -0.2,-3.4M0.5,2.15L0.5,2.1L0.85,0.65L0.5,2.1L0.5,2.15L0.4,2.5L0.5,2.15L0.4,2.45L0.4,2.5C0.4,4.2 -0.083,5.767 -1.05,7.2L-1.6,8.7L-1.05,7.2C-0.083,5.767 0.4,4.2 0.4,2.5L0.4,2.45L0.5,2.15M4,7.3C4.733,5.2 5.017,2.817 4.85,0.15C5.017,2.817 4.733,5.2 4,7.3M-1.05,7.2L-0.95,6.9L0.4,2.5L-0.95,6.9L-1.05,7.2" style="fill:#5a442c;"/>
                        <path d="M-3.2,11.55L-1.45,9.4L-1.85,10.6L-3.2,11.55M3.9,13.4L4.2,12.55C5.867,7.45 6.633,2.283 6.5,-2.95L7.9,-3.9C8.067,1.633 7.2,7.083 5.3,12.45L3.9,13.4M5.45,-2.95L5.75,-4.8L7.15,-5.7L6.85,-3.85L5.45,-2.95" style="fill:#2d2317;"/>
                        <path d="M5.25,-3.9L1.2,-4.3L-0.2,-3.4C-1,1.567 -2.617,6.067 -5.05,10.1L-3.2,11.55L-1.85,10.6L-2.3,12.1C-0.3,13.233 1.767,13.667 3.9,13.4L5.3,12.45C7.2,7.083 8.067,1.633 7.9,-3.9L6.85,-3.85L7.15,-5.7L5.75,-4.8L5.25,-3.9M0.4,2.5L0.5,2.15L0.4,2.45L0.4,2.5C0.4,4.2 -0.083,5.767 -1.05,7.2L-1.6,8.7M0.85,0.65L0.5,2.1L0.5,2.15M0.4,2.5L-0.95,6.9L-1.05,7.2M4.85,0.15C5.017,2.817 4.733,5.2 4,7.3" style="fill:none;fill-rule:nonzero;stroke:#000;stroke-opacity:0.3;stroke-width:0.05px;"/>
                        <path d="M2.25,-3.85L3.25,-1.45L6.25,-0.55L7.3,-0.15L3.65,0.2L3.8,1.2L3.95,2.9C5.083,3.333 6.083,3.933 6.95,4.7L7.25,5L7.2,5.4L3.95,4.65L3.85,6.8L5.5,6.95C5.3,8.517 4.967,9.9 4.5,11.1C3.833,12.567 3.083,13.35 2.25,13.45L1.8,13.45L1.7,13.4C1.167,13.267 0.717,13.033 0.35,12.7L-0.1,11.9L0.6,11.95L0.1,10.95L0.85,10.95L0.3,10.05L0.9,10.05L0.9,9.55L0.35,9.55L0.15,9.9L0.35,10.5L-0.25,10.4L-0.05,11.2L-0.75,10.9L-1.25,8.65L-1.3,6.3L1.65,6.6L2.05,4.75L-2.05,4L-1,3.55C0,3.217 1.05,2.983 2.15,2.85L2.2,1.5L2.1,0.45C1,0.65 -0.117,0.967 -1.25,1.4L-1.05,0.7C-0.117,-0.067 0.85,-0.683 1.85,-1.15L1.3,-3.4L-0.3,-2.75L-0.2,-3.4L1.2,-4.3L2.75,-4.1L2.3,-3.85L2.25,-3.85M0.85,9.25L0.85,9.15L0.8,8.75L0.65,9.05L0.85,9.25M3.65,8.95L3.5,8.8C3.3,8.6 3.067,8.5 2.8,8.5C2.5,8.5 2.25,8.6 2.05,8.8C1.85,9 1.733,9.233 1.7,9.5L1.85,9.65C2.05,9.85 2.3,9.95 2.6,9.95L3.35,9.65L3.65,8.95" style="fill-opacity:0.3;"/>
                        <path d="M5.9,1.35L2.6,1.8C1.433,2.067 0.25,2.517 -0.95,3.15L-1.7,3.55L-1.9,3.45L-1.4,1.9L-0.8,1.6L-0.3,1.4C0.733,0.933 1.783,0.583 2.85,0.35L3.5,0.2L6.25,0L7.05,0.05L7.85,0.15L7.75,1.5L5.9,1.35" style="fill-opacity:0.3;"/>
                        <path d="M-4.15,-8.65C-2.483,-8.817 -0.583,-8.4 1.55,-7.4L1.7,-6.85C0.333,-6.183 -1.617,-6.783 -4.15,-8.65" style="fill:#eee7ce;"/>
                        <path d="M1.7,-6.85L2.15,-5.3C-0.417,-5.467 -2.65,-6.567 -4.55,-8.6L-4.15,-8.65C-1.617,-6.783 0.333,-6.183 1.7,-6.85" style="fill:#ada996;"/>
                        <path d="M1.7,-6.85L2.15,-5.3C-0.417,-5.467 -2.65,-6.567 -4.55,-8.6L-4.15,-8.65C-2.483,-8.817 -0.583,-8.4 1.55,-7.4L1.7,-6.85Z" style="fill:none;fill-rule:nonzero;stroke:#000;stroke-opacity:0.3;stroke-width:0.05px;"/>
                        <path d="M2.6,-13.15L2.85,-13.5C3.683,-10.833 3.517,-8.35 2.35,-6.05L1.25,-7.25C2.517,-8.05 2.967,-10.017 2.6,-13.15" style="fill:#ada996;"/>
                        <path d="M2.6,-13.15C2.967,-10.017 2.517,-8.05 1.25,-7.25L0.85,-7.6C1.05,-9.967 1.633,-11.817 2.6,-13.15" style="fill:#eee7ce;"/>
                        <path d="M1.25,-7.25L2.35,-6.05C3.517,-8.35 3.683,-10.833 2.85,-13.5L2.6,-13.15C1.633,-11.817 1.05,-9.967 0.85,-7.6L1.25,-7.25Z" style="fill:none;fill-rule:nonzero;stroke:#000;stroke-opacity:0.3;stroke-width:0.05px;"/>
                        <path d="M2.15,-4.4L0.4,-4.25L1.85,-5.25L0.85,-7.6L2.6,-5.75L4.95,-6.15L3.15,-4.85L4.15,-2.45L7.15,-1.6L4.55,-0.85L4.5,-0.85L4.65,0.2L3.05,0.5L3,-0.6L-0.3,-0.25C0.667,-1.05 1.683,-1.7 2.75,-2.2L2.15,-4.4M4.85,3.6L4.7,6.05C4.033,7.283 3.283,7.25 2.45,5.95L2.9,3.75L0.4,2.75L4.8,1.9C5.967,2.333 6.983,2.917 7.85,3.65L4.85,3.6" style="fill:#eee7ce;"/>
                        <path d="M0.4,-4.25L2.15,-4.4L-0.5,-3.35L0.4,-4.25M-0.3,-0.25L3,-0.6C1.5,-0.3 -0.017,0.183 -1.55,0.85L-0.3,-0.25M3.05,0.5L4.65,0.2L4.8,1.9L0.4,2.75L2.9,3.75L-1.15,2.95L-0.1,2.55C0.867,2.183 1.917,1.95 3.05,1.85L3.05,0.5M4.55,-0.85L7.15,-1.6L8.2,-1.15L4.55,-0.85M3.15,-4.85L4.95,-6.15L5.6,-6.15L3.15,-4.85M7.85,3.65L8.75,4.55L4.85,3.6L7.85,3.65" style="fill:#ada996;"/>
                        <path d="M2.15,-4.4L2.75,-2.2C1.683,-1.7 0.667,-1.05 -0.3,-0.25L-1.55,0.85C-0.017,0.183 1.5,-0.3 3,-0.6L3.05,0.5L3.05,1.85C1.917,1.95 0.867,2.183 -0.1,2.55L-1.15,2.95L2.9,3.75L2.45,5.95C3.283,7.25 4.033,7.283 4.7,6.05L4.85,3.6L8.75,4.55L7.85,3.65C6.983,2.917 5.967,2.333 4.8,1.9L4.65,0.2L4.5,-0.85L4.55,-0.85L8.2,-1.15L7.15,-1.6L4.15,-2.45L3.15,-4.85L5.6,-6.15L4.95,-6.15L2.6,-5.75L0.85,-7.6L1.85,-5.25L0.4,-4.25L-0.5,-3.35L2.15,-4.4Z" style="fill:none;fill-rule:nonzero;stroke:#000;stroke-opacity:0.3;stroke-width:0.05px;"/>
                        <path d="M6.35,5.9L6.4,5.95C6.2,7.517 5.867,8.9 5.4,10.1C4.6,11.833 3.683,12.6 2.65,12.4C2.083,12.267 1.617,12.017 1.25,11.65L1.1,11.45L1.25,10.95L1.25,10.9L1.5,10.95L1.35,10.65L1.4,10.45L1.5,9.95L1.7,9.9L1.5,9.6L1.55,9.05L1.8,9.05L1.7,9.9L1.6,10.45L2.85,11C3.85,11.2 4.75,10.417 5.55,8.65L6.35,5.9M1.5,8.55L1.25,8.55L1.5,8.1L1.55,8L1.7,8.2L1.5,8.55M1,8.85L1.1,9.1L0.9,9.4L0.65,9.35L0.6,9.4L0.7,9.65L0.35,10L0.15,9.9L-0.4,7.65C-0.133,8.283 0.217,8.85 0.65,9.35L1,8.85M1.25,11.65L1.5,10.95L1.6,10.45L1.5,10.95L1.25,11.65M4.55,7.9L4.7,8.5L4.4,9.25C4.2,9.45 3.95,9.55 3.65,9.55C3.383,9.55 3.133,9.45 2.9,9.25C2.7,9.05 2.6,8.8 2.6,8.5L2.75,8.65C2.95,8.85 3.2,8.95 3.5,8.95L4.25,8.65L4.55,7.9M0.15,9.9L0.6,9.4L0.15,9.9" style="fill:#ada996;"/>
                        <path d="M1.1,11.45L0.8,10.9L1.25,10.9L1.25,10.95L1.1,11.45M1.35,10.65L1,9.95L1.5,9.95L1.4,10.45L1.35,10.65M1.5,9.6L1.2,9.05L1.55,9.05L1.5,9.6M1.8,9.05L1.75,8.5L1.5,8.55L1.7,8.2L1.75,8.25L1.75,8.1L1.7,7.7L1.5,8.1L1.25,8.55L1,8.85L0.65,9.35C0.217,8.85 -0.133,8.283 -0.4,7.65L-0.4,5.3L6.35,5.9L5.55,8.65C4.75,10.417 3.85,11.2 2.85,11L1.6,10.45L1.7,9.9L1.8,9.05M1.1,9.1L1.25,9.45L0.9,9.4L1.1,9.1M0.7,9.65L0.85,10.15L0.35,10L0.7,9.65M4.55,7.9L4.4,7.75C4.2,7.55 3.95,7.45 3.65,7.45C3.383,7.45 3.133,7.55 2.9,7.75C2.7,7.95 2.6,8.2 2.6,8.5C2.6,8.8 2.7,9.05 2.9,9.25C3.133,9.45 3.383,9.55 3.65,9.55C3.95,9.55 4.2,9.45 4.4,9.25L4.7,8.5L4.55,7.9M1.75,8.5L1.75,8.25L1.75,8.5" style="fill:#eee7ce;"/>
                        <path d="M6.35,5.9L6.4,5.95C6.2,7.517 5.867,8.9 5.4,10.1C4.6,11.833 3.683,12.6 2.65,12.4C2.083,12.267 1.617,12.017 1.25,11.65L1.1,11.45L0.8,10.9L1.25,10.9L1.5,10.95L1,9.95L1.5,9.95L1.7,9.9L1.5,9.6L1.2,9.05L1.8,9.05L1.75,8.5L1.5,8.55L1.25,8.55L1,8.85L1.1,9.1L1.25,9.45L0.9,9.4L0.65,9.35L0.6,9.4L0.7,9.65L0.85,10.15L0.35,10L0.15,9.9L-0.4,7.65L-0.4,5.3L6.35,5.9M1.6,10.45L1.5,10.95L1.25,11.65M2.6,8.5C2.6,8.2 2.7,7.95 2.9,7.75C3.133,7.55 3.383,7.45 3.65,7.45C3.95,7.45 4.2,7.55 4.4,7.75L4.55,7.9L4.7,8.5L4.4,9.25C4.2,9.45 3.95,9.55 3.65,9.55C3.383,9.55 3.133,9.45 2.9,9.25C2.7,9.05 2.6,8.8 2.6,8.5L2.75,8.65C2.95,8.85 3.2,8.95 3.5,8.95L4.25,8.65L4.55,7.9M1.25,8.55L1.5,8.1L1.7,7.7L1.75,8.1L1.75,8.5M1.7,8.2L1.75,8.25M1.55,8L1.7,8.2M1.8,9.05L1.7,9.9L1.6,10.45M0.65,9.35L1,8.85M0.6,9.4L0.15,9.9" style="fill:none;fill-rule:nonzero;stroke:#000;stroke-opacity:0.3;stroke-width:0.05px;"/>
                        <path d="M-1.95,1.9L-1.85,1.65L-0.5,1L0,0.75C1.033,0.283 2.083,-0.05 3.15,-0.25L3.8,-0.4L6.55,-0.6L8.15,-0.5L8.65,-0.05L8.4,0.25L6.55,0.1L6.2,0.1L3.1,0.45L2.9,0.5C1.767,0.8 0.617,1.233 -0.55,1.8L-0.65,1.85L-1.4,2.25L-1.95,1.9M0,0.75L-0.55,1.8L0,0.75M3.8,-0.4L3.1,0.45L3.8,-0.4M6.55,0.1L7.35,-0.55L6.55,0.1" style="fill:#b98848;"/>
                        <path d="M8.65,-0.05C8.817,0.25 8.733,0.583 8.4,0.95L6.2,0.75L2.9,1.15C1.733,1.45 0.55,1.9 -0.65,2.5L-1.4,2.9C-1.967,2.767 -2.15,2.433 -1.95,1.9L-1.4,2.25L-0.65,1.85L-0.55,1.8C0.617,1.233 1.767,0.8 2.9,0.5L3.1,0.45L6.2,0.1L6.55,0.1L8.4,0.25L8.65,-0.05M6.2,0.75L6.55,0.1L6.2,0.75M2.9,1.15L3.1,0.45L2.9,1.15M-0.65,2.5L-0.55,1.8L-0.65,2.5" style="fill:#5d4524;"/>
                        <path d="M-1.95,1.9L-1.85,1.65L-0.5,1L0,0.75C1.033,0.283 2.083,-0.05 3.15,-0.25L3.8,-0.4L6.55,-0.6L8.15,-0.5L8.65,-0.05C8.817,0.25 8.733,0.583 8.4,0.95L6.2,0.75L2.9,1.15C1.733,1.45 0.55,1.9 -0.65,2.5L-1.4,2.9C-1.967,2.767 -2.15,2.433 -1.95,1.9M-0.55,1.8L0,0.75M6.55,0.1L6.2,0.75M3.1,0.45L2.9,1.15M3.1,0.45L3.8,-0.4M-0.55,1.8L-0.65,2.5M7.35,-0.55L6.55,0.1" style="fill:none;fill-rule:nonzero;stroke:#000;stroke-opacity:0.3;stroke-width:0.05px;"/>
                    </g>
                </g>
            </g>
        </g>
    </g>
</svg>
