<?xml version="1.0" encoding="UTF-8" standalone="no"?>
<!DOCTYPE svg PUBLIC "-//W3C//DTD SVG 1.1//EN" "http://www.w3.org/Graphics/SVG/1.1/DTD/svg11.dtd">
<svg width="100%" height="100%" viewBox="0 0 16 18" version="1.1" xmlns="http://www.w3.org/2000/svg" xmlns:xlink="http://www.w3.org/1999/xlink" xml:space="preserve" xmlns:serif="http://www.serif.com/" style="fill-rule:evenodd;clip-rule:evenodd;stroke-linecap:round;stroke-linejoin:round;">
    <g transform="matrix(1,0,0,1,-17.4649,-16.25)">
        <g>
            <g id="shape0" transform="matrix(1,0,0,1,25,25)">
                <path d="M-3.65,-7.8L-3.6,-7.9L-2.65,-8.25C-2.25,-8.217 -1.917,-8.067 -1.65,-7.8L-1.55,-7.7L-0.75,-7.85C0.783,-8.05 2.2,-7.517 3.5,-6.25L3.6,-6.3L4.65,-6.15L5.35,-5.35L5.35,-5.25C5.45,-4.95 5.417,-4.65 5.25,-4.35L5.15,-4.15L5.45,-3.55C5.817,-2.75 6.067,-1.883 6.2,-0.95L6.25,2.05L6.35,2.1C6.683,2.267 6.9,2.533 7,2.9C7.1,3.267 7.05,3.6 6.85,3.9L6.8,3.95L6.05,4.5L5.4,4.5L5.35,4.6L4.25,6.05L2.6,7.1C1.867,7.733 1.017,8.117 0.05,8.25L-0.65,8.3L-1.1,8.25C-2,8.15 -2.867,7.767 -3.7,7.1L-3.9,6.95L-4.4,6.5C-5.167,5.733 -5.767,4.85 -6.2,3.85L-6.9,1.35C-7.233,-0.75 -6.95,-2.6 -6.05,-4.2C-5.483,-5.233 -4.767,-5.983 -3.9,-6.45L-4,-6.95C-4,-7.283 -3.883,-7.567 -3.65,-7.8" style="fill:#280a02;"/>
                <path d="M-3.65,-7.8C-3.883,-7.567 -4,-7.283 -4,-6.95L-3.9,-6.45C-4.767,-5.983 -5.483,-5.233 -6.05,-4.2C-6.95,-2.6 -7.233,-0.75 -6.9,1.35L-6.2,3.85C-5.767,4.85 -5.167,5.733 -4.4,6.5L-3.9,6.95L-3.7,7.1C-2.867,7.767 -2,8.15 -1.1,8.25L-0.65,8.3L0.05,8.25C1.017,8.117 1.867,7.733 2.6,7.1L4.25,6.05L5.35,4.6L5.4,4.5L6.05,4.5L6.8,3.95L6.85,3.9C7.05,3.6 7.1,3.267 7,2.9C6.9,2.533 6.683,2.267 6.35,2.1L6.25,2.05L6.2,-0.95C6.067,-1.883 5.817,-2.75 5.45,-3.55L5.15,-4.15L5.25,-4.35C5.417,-4.65 5.45,-4.95 5.35,-5.25L5.35,-5.35L4.65,-6.15L3.6,-6.3L3.5,-6.25C2.2,-7.517 0.783,-8.05 -0.75,-7.85L-1.55,-7.7L-1.65,-7.8C-1.917,-8.067 -2.25,-8.217 -2.65,-8.25L-3.6,-7.9L-3.65,-7.8Z" style="fill:none;fill-rule:nonzero;stroke:#280a02;stroke-width:1px;"/>
            </g>
            <g id="sprite0" transform="matrix(0.0498,0,0,0.0497,17.95,16.0496)">
                <g id="shape1">
                    <path d="M68.1,22.7L69.25,21.55C74.65,16.483 81.167,14.05 88.8,14.25C96.4,14.55 102.933,17.383 108.4,22.75C112.133,26.45 114.567,30.567 115.7,35.1C111.467,40.7 106.983,45.25 102.25,48.75C82.95,50.483 71.567,41.8 68.1,22.7" style="fill:#daa310;"/>
                    <path d="M68.1,22.7C71.567,41.8 82.95,50.483 102.25,48.75C91.75,56.65 80.083,59.267 67.25,56.6C63.417,51.833 61.483,46.333 61.45,40.1C61.383,33.333 63.6,27.533 68.1,22.7" style="fill:#9d570f;"/>
                    <path d="M102.25,48.75C106.983,45.25 111.467,40.7 115.7,35.1C114.567,30.567 112.133,26.45 108.4,22.75C102.933,17.383 96.4,14.55 88.8,14.25C81.167,14.05 74.65,16.483 69.25,21.55L68.1,22.7C63.6,27.533 61.383,33.333 61.45,40.1C61.483,46.333 63.417,51.833 67.25,56.6C80.083,59.267 91.75,56.65 102.25,48.75Z" style="fill:none;fill-rule:nonzero;stroke:#000;stroke-opacity:0.3;stroke-width:0.05px;"/>
                    <path d="M213.95,117.5C205.85,102.2 195.65,88.417 183.35,76.15L180.2,73.1C167.267,60.8 153.8,51.983 139.8,46.65C134.067,44.45 128.25,42.833 122.35,41.8C117.617,40.967 112.85,40.483 108.05,40.35L105.35,40.4L94.6,41.1C87.8,41.9 81.317,43.35 75.15,45.45C89.55,32.083 106.667,24.233 126.5,21.9C157.233,18.267 185.8,28.95 212.2,53.95L215.25,56.95L218.95,60.75C212.25,65.583 209.6,77.183 211,95.55C211.233,99.05 211.633,102.833 212.2,106.9C212.633,110.233 213.217,113.767 213.95,117.5M139.35,31.85L122.35,41.8L139.35,31.85" style="fill:#a56f32;"/>
                    <path d="M180.2,73.1L183.35,76.15C195.65,88.417 205.85,102.2 213.95,117.5C223.75,136.133 230.433,156.983 234,180.05C238.7,210.083 237.15,237.7 229.35,262.9C226.183,272.933 222.033,282.583 216.9,291.85C210.067,304.183 202.233,314.45 193.4,322.65C178.967,336.017 161.85,343.867 142.05,346.2L128.7,346.9L119.65,346.25C101.183,344.083 83.567,336.4 66.8,323.2L63.65,320.15C48.317,304.85 36.25,287.15 27.45,267.05C25.317,262.283 23.4,257.35 21.7,252.25C17.867,240.917 14.967,228.917 13,216.25C6.433,174.117 12.133,136.833 30.1,104.4C34.633,96.133 39.633,88.833 45.1,82.5C55.767,86.533 60.217,92.217 58.45,99.55C53.117,105.117 48.283,111.783 43.95,119.55C30.417,144.017 26.117,172.15 31.05,203.95C36.017,235.717 48.767,261.85 69.3,282.35C73.567,286.617 77.933,290.383 82.4,293.65C99.2,305.983 117.15,311.033 136.25,308.8L145.6,307.05C163.867,302.417 178.717,290.8 190.15,272.2L192.75,267.8C202.35,250.467 207.317,231.3 207.65,210.3C207.783,201.667 207.117,192.7 205.65,183.4C200.717,151.6 187.967,125.467 167.4,105C163,100.567 158.5,96.717 153.9,93.45C140.033,83.383 125.383,78.25 109.95,78.05L100.4,78.6C96.133,79.1 92.017,79.95 88.05,81.15C79.383,75.45 75.783,67.633 77.25,57.7C79.95,56.5 82.7,55.417 85.5,54.45C91.667,52.317 98.15,50.85 104.95,50.05L109.45,49.65L118.4,49.4C123.2,49.467 127.967,49.933 132.7,50.8C149.2,53.667 165.033,61.1 180.2,73.1M30.2,241.4L21.7,252.25L30.2,241.4M111.4,62L109.45,49.65L111.4,62M116.85,328.3L119.65,346.25L116.85,328.3" style="fill:#764206;"/>
                    <path d="M211,95.55C209.6,77.183 212.25,65.583 218.95,60.75C232.35,74.95 243.067,91.1 251.1,109.2C241.933,123.067 228.567,118.517 211,95.55M229.35,262.9C233.717,262.5 238.617,259.7 244.05,254.5C250.517,248.233 257.75,238.483 265.75,225.25C262.617,242.083 256.967,257.883 248.8,272.65C242.267,284.483 234.817,294.4 226.45,302.4C216.65,311.733 205.633,318.483 193.4,322.65C202.233,314.45 210.067,304.183 216.9,291.85C222.033,282.583 226.183,272.933 229.35,262.9" style="fill:#281602;"/>
                    <path d="M213.95,117.5C213.217,113.767 212.633,110.233 212.2,106.9C211.633,102.833 211.233,99.05 211,95.55C228.567,118.517 241.933,123.067 251.1,109.2C258.033,124.9 262.95,142.083 265.85,160.75C269.417,183.683 269.383,205.183 265.75,225.25C257.75,238.483 250.517,248.233 244.05,254.5C238.617,259.7 233.717,262.5 229.35,262.9C237.15,237.7 238.7,210.083 234,180.05C230.433,156.983 223.75,136.133 213.95,117.5M145.6,307.05L136.25,308.8C117.15,311.033 99.2,305.983 82.4,293.65C77.933,290.383 73.567,286.617 69.3,282.35C48.767,261.85 36.017,235.717 31.05,203.95C26.117,172.15 30.417,144.017 43.95,119.55C48.283,111.783 53.117,105.117 58.45,99.55C66.95,90.617 76.817,84.483 88.05,81.15C92.017,79.95 96.133,79.1 100.4,78.6L109.95,78.05C90.283,83.017 74.6,96.1 62.9,117.3C50.2,140.3 45.65,166.5 49.25,195.9L50,201.75C54.967,233.517 67.717,259.633 88.25,280.1C105.983,297.8 125.1,306.783 145.6,307.05" style="fill:#3b2103;"/>
                    <path d="M109.95,78.05C125.383,78.25 140.033,83.383 153.9,93.45C158.5,96.717 163,100.567 167.4,105C187.967,125.467 200.717,151.6 205.65,183.4C207.117,192.7 207.783,201.667 207.65,210.3L206.8,204.5C201.867,172.733 189.117,146.6 168.55,126.1C164.25,121.8 159.883,118 155.45,114.7L155.1,114.55C143.1,105.817 130.55,100.817 117.45,99.55L114.1,84.35L113.25,99.2L111.15,99.15C94.017,103.483 79.9,114.017 68.8,130.75L67.6,115.1L66.35,134.5L64.05,138.4C54.45,155.733 49.517,174.9 49.25,195.9C45.65,166.5 50.2,140.3 62.9,117.3C74.6,96.1 90.283,83.017 109.95,78.05M153.9,93.45L155.45,114.7L153.9,93.45" style="fill:#382a18;"/>
                    <path d="M75.15,45.45C81.317,43.35 87.8,41.9 94.6,41.1L105.35,40.4L108.05,40.35C112.85,40.483 117.617,40.967 122.35,41.8C128.25,42.833 134.067,44.45 139.8,46.65C153.8,51.983 167.267,60.8 180.2,73.1C165.033,61.1 149.2,53.667 132.7,50.8C127.967,49.933 123.2,49.467 118.4,49.4L109.45,49.65L104.95,50.05C98.15,50.85 91.667,52.317 85.5,54.45C82.7,55.417 79.95,56.5 77.25,57.7C75.783,67.633 79.383,75.45 88.05,81.15C76.817,84.483 66.95,90.617 58.45,99.55C60.217,92.217 55.767,86.533 45.1,82.5C39.633,88.833 34.633,96.133 30.1,104.4C12.133,136.833 6.433,174.117 13,216.25C14.967,228.917 17.867,240.917 21.7,252.25C23.4,257.35 25.317,262.283 27.45,267.05C36.25,287.15 48.317,304.85 63.65,320.15L66.8,323.2C62.233,319.567 57.733,315.533 53.3,311.1C37.967,295.833 25.9,278.167 17.1,258.1C10.3,242.6 5.467,225.667 2.6,207.3C-3.933,165.167 1.783,127.867 19.75,95.4C33.817,69.867 52.283,53.217 75.15,45.45M108.05,40.35L109.45,49.65L108.05,40.35M17.1,258.1L21.7,252.25L17.1,258.1" style="fill:#a55c08;"/>
                    <path d="M207.65,210.3C207.317,231.3 202.35,250.467 192.75,267.8L190.15,272.2C178.717,290.8 163.867,302.417 145.6,307.05C125.1,306.783 105.983,297.8 88.25,280.1C67.717,259.633 54.967,233.517 50,201.75L49.25,195.9C49.517,174.9 54.45,155.733 64.05,138.4L66.35,134.5L64.75,160.1C61.483,172.4 60.967,185.75 63.2,200.15C66.4,220.65 74.233,237.783 86.7,251.55L89.8,254.75C92.667,257.617 95.583,260.167 98.55,262.4L106.9,291.15L105.75,267C115.417,272.3 125.583,274.333 136.25,273.1L142.85,271.9C156.55,268.433 167.483,259.333 175.65,244.6L175.9,244.3L178,193.9L189.4,267.35L185.95,199.75C185.817,195.217 185.367,190.583 184.6,185.85C181.167,163.75 172.3,145.583 158,131.35L156.4,129.8L156.1,129.55L148.95,123.55L152.05,144.85C154.05,146.883 155.9,149.033 157.6,151.3C165.233,161.267 170.133,173.267 172.3,187.3C175.067,204.933 172.7,220.517 165.2,234.05C161.567,240.55 157.283,245.7 152.35,249.5L145,213.9L147.7,252.55C144.933,254.017 142.033,255.133 139,255.9L133.85,256.8C120.483,258.4 108.133,253.5 96.8,242.1C85.4,230.8 78.317,216.333 75.55,198.7C72.817,181.067 75.217,165.483 82.75,151.95C90.217,138.383 100.633,130.8 114,129.2L119.25,128.95C128.617,129.083 137.467,132.45 145.8,139.05L145.9,121.45C137.733,116.117 129.183,113.217 120.25,112.75L117.45,99.55C130.55,100.817 143.1,105.817 155.1,114.55L155.45,114.7L156.4,129.8L155.45,114.7C159.883,118 164.25,121.8 168.55,126.1C189.117,146.6 201.867,172.733 206.8,204.5L207.65,210.3M68.8,130.75C79.9,114.017 94.017,103.483 111.15,99.15L113.25,99.2L112.4,112.85L111.35,113C94.617,114.967 81.55,124.467 72.15,141.5L69.85,145.9L68.8,130.75M90.5,276.05L86.7,251.55L90.5,276.05" style="fill:#725331;"/>
                    <path d="M66.35,134.5L67.6,115.1L68.8,130.75L69.85,145.9L72.15,141.5C81.55,124.467 94.617,114.967 111.35,113L112.4,112.85L113.25,99.2L114.1,84.35L117.45,99.55L120.25,112.75C129.183,113.217 137.733,116.117 145.9,121.45L145.8,139.05C137.467,132.45 128.617,129.083 119.25,128.95L114,129.2C100.633,130.8 90.217,138.383 82.75,151.95C75.217,165.483 72.817,181.067 75.55,198.7C78.317,216.333 85.4,230.8 96.8,242.1C108.133,253.5 120.483,258.4 133.85,256.8L139,255.9C142.033,255.133 144.933,254.017 147.7,252.55L145,213.9L152.35,249.5C157.283,245.7 161.567,240.55 165.2,234.05C172.7,220.517 175.067,204.933 172.3,187.3C170.133,173.267 165.233,161.267 157.6,151.3C155.9,149.033 154.05,146.883 152.05,144.85L148.95,123.55L156.1,129.55L156.4,129.8L156.75,138.7L156.4,129.8L158,131.35C172.3,145.583 181.167,163.75 184.6,185.85C185.367,190.583 185.817,195.217 185.95,199.75L189.4,267.35L178,193.9L175.9,244.3L175.65,244.6C167.483,259.333 156.55,268.433 142.85,271.9L136.25,273.1C125.583,274.333 115.417,272.3 105.75,267L106.9,291.15L98.55,262.4C95.583,260.167 92.667,257.617 89.8,254.75L86.7,251.55L84.6,238.05L86.7,251.55C74.233,237.783 66.4,220.65 63.2,200.15C60.967,185.75 61.483,172.4 64.75,160.1L66.35,134.5" style="fill:#daa310;"/>
                    <path d="M218.95,60.75L215.25,56.95L212.2,53.95C185.8,28.95 157.233,18.267 126.5,21.9C106.667,24.233 89.55,32.083 75.15,45.45C52.283,53.217 33.817,69.867 19.75,95.4C1.783,127.867 -3.933,165.167 2.6,207.3C5.467,225.667 10.3,242.6 17.1,258.1C25.9,278.167 37.967,295.833 53.3,311.1C57.733,315.533 62.233,319.567 66.8,323.2C83.567,336.4 101.183,344.083 119.65,346.25L116.85,328.3M122.35,41.8L139.35,31.85M109.95,78.05C125.383,78.25 140.033,83.383 153.9,93.45C158.5,96.717 163,100.567 167.4,105C187.967,125.467 200.717,151.6 205.65,183.4C207.117,192.7 207.783,201.667 207.65,210.3C207.317,231.3 202.35,250.467 192.75,267.8L190.15,272.2C178.717,290.8 163.867,302.417 145.6,307.05C125.1,306.783 105.983,297.8 88.25,280.1C67.717,259.633 54.967,233.517 50,201.75L49.25,195.9C45.65,166.5 50.2,140.3 62.9,117.3C74.6,96.1 90.283,83.017 109.95,78.05M21.7,252.25L30.2,241.4M265.75,225.25C269.383,205.183 269.417,183.683 265.85,160.75C262.95,142.083 258.033,124.9 251.1,109.2C243.067,91.1 232.35,74.95 218.95,60.75M109.45,49.65L111.4,62M155.45,114.7L153.9,93.45M109.45,49.65L108.05,40.35M156.4,129.8L155.45,114.7M156.4,129.8L156.75,138.7M86.7,251.55L90.5,276.05M84.6,238.05L86.7,251.55M21.7,252.25L17.1,258.1M193.4,322.65C178.967,336.017 161.85,343.867 142.05,346.2L128.7,346.9L119.65,346.25M265.75,225.25C262.617,242.083 256.967,257.883 248.8,272.65C242.267,284.483 234.817,294.4 226.45,302.4C216.65,311.733 205.633,318.483 193.4,322.65" style="fill:none;fill-rule:nonzero;stroke:#000;stroke-opacity:0.3;stroke-width:0.05px;"/>
                    <path d="M207.1,79.15C204.6,73.65 202.8,67.367 201.7,60.3C204.833,56.933 208.883,54.6 213.85,53.3C221.117,51.467 228.117,52.383 234.85,56.05C241.617,59.85 246.167,65.35 248.5,72.55L248.95,74.15C237.05,89.017 223.1,90.683 207.1,79.15" style="fill:#daa310;"/>
                    <path d="M248.95,74.15C250.65,80.717 249.917,86.933 246.75,92.8C243.817,98.167 239.567,101.95 234,104.15C221.567,99.817 212.6,91.483 207.1,79.15C223.1,90.683 237.05,89.017 248.95,74.15" style="fill:#9d570f;"/>
                    <path d="M248.95,74.15C250.65,80.717 249.917,86.933 246.75,92.8C243.817,98.167 239.567,101.95 234,104.15C221.567,99.817 212.6,91.483 207.1,79.15C204.6,73.65 202.8,67.367 201.7,60.3C204.833,56.933 208.883,54.6 213.85,53.3C221.117,51.467 228.117,52.383 234.85,56.05C241.617,59.85 246.167,65.35 248.5,72.55L248.95,74.15Z" style="fill:none;fill-rule:nonzero;stroke:#000;stroke-opacity:0.3;stroke-width:0.05px;"/>
                    <path d="M244.1,234.05C246.5,228.75 249.983,223.417 254.55,218.05C259.317,218.083 264.017,219.4 268.65,222C275.317,225.867 279.717,231.35 281.85,238.45C283.85,245.617 282.983,252.333 279.25,258.6L278.35,259.95C258.417,261.283 247,252.65 244.1,234.05" style="fill:#daa310;"/>
                    <path d="M278.35,259.95C274.583,265.383 269.317,268.883 262.55,270.45C256.35,271.883 250.4,271.367 244.7,268.9C238.933,257.433 238.733,245.817 244.1,234.05C247,252.65 258.417,261.283 278.35,259.95" style="fill:#9d570f;"/>
                    <path d="M244.1,234.05C246.5,228.75 249.983,223.417 254.55,218.05C259.317,218.083 264.017,219.4 268.65,222C275.317,225.867 279.717,231.35 281.85,238.45C283.85,245.617 282.983,252.333 279.25,258.6L278.35,259.95C274.583,265.383 269.317,268.883 262.55,270.45C256.35,271.883 250.4,271.367 244.7,268.9C238.933,257.433 238.733,245.817 244.1,234.05Z" style="fill:none;fill-rule:nonzero;stroke:#000;stroke-opacity:0.3;stroke-width:0.05px;"/>
                    <path d="M104.1,174.9L106.45,164.95L125.8,176.45L125.45,180.25L128,191.15L127,191.8L110.9,184C106.667,183.8 104.4,180.767 104.1,174.9" style="fill:#85867e;"/>
                    <path d="M88.4,180.2L100.7,188.85L104.1,174.9C104.4,180.767 106.667,183.8 110.9,184L115,210.4L107.25,207.95L88.3,201.4L88.4,180.2" style="fill:#43433e;"/>
                    <path d="M110.9,184L127,191.8L121.75,194.95L123.9,208.8L115.45,233.6L92.85,243.6L60.8,243.15L49.45,202.15L88.4,180.2L88.3,201.4L107.25,207.95L115,210.4L110.9,184M104,226.7L107.25,207.95L104,226.7" style="fill-opacity:0.3;"/>
                    <path d="M88.4,180.2L100.7,188.85L104.1,174.9L106.45,164.95L125.8,176.45L128.35,151.25M110.9,184L127,191.8L128,191.15L125.45,180.25L125.8,176.45M127,191.8L121.75,194.95L123.9,208.8L136.65,214.85M131.45,193.95L128.3,192.4L127,191.8M137.55,185.35L128,191.15L128.3,192.4M107.25,207.95L104,226.7M88.3,201.4L107.25,207.95L115,210.4L110.9,184" style="fill:none;fill-rule:nonzero;stroke:#000;stroke-opacity:0.3;stroke-width:0.05px;"/>
                    <path d="M51.45,144.2C54.05,142.233 57.017,141.05 60.35,140.65C67.783,139.783 74.733,143.1 81.2,150.6C87.733,158.167 91.9,167.717 93.7,179.25C95.5,190.783 94.4,200.9 90.4,209.6C87.833,215.267 84.583,219.283 80.65,221.65C79.25,222.517 77.8,223.15 76.3,223.55L78.1,221.95C80.533,219.617 82.633,216.5 84.4,212.6C88.433,203.867 89.55,193.733 87.75,182.2C85.95,170.667 81.767,161.117 75.2,153.55C68.733,146.083 61.8,142.783 54.4,143.65L51.45,144.2" style="fill:#b3b8ad;"/>
                    <path d="M76.3,223.55C73.7,225.517 70.733,226.7 67.4,227.1C63.267,227.6 59.283,226.783 55.45,224.65C52.35,222.95 49.35,220.433 46.45,217.1C39.983,209.567 35.85,200.033 34.05,188.5C32.25,176.967 33.317,166.817 37.25,158.05C40.717,150.55 45.45,145.933 51.45,144.2L54.4,143.65C61.8,142.783 68.733,146.083 75.2,153.55C81.767,161.117 85.95,170.667 87.75,182.2C89.55,193.733 88.433,203.867 84.4,212.6C82.633,216.5 80.533,219.617 78.1,221.95L76.3,223.55M69.95,157.85L56.85,156.05C51.35,174.117 49.317,193.133 50.75,213.1L63.85,214.9C61.95,195.3 63.983,176.283 69.95,157.85" style="fill:#85867e;"/>
                    <path d="M69.95,157.85C63.983,176.283 61.95,195.3 63.85,214.9L50.75,213.1C49.317,193.133 51.35,174.117 56.85,156.05L69.95,157.85" style="fill:#43433e;"/>
                    <path d="M51.45,144.2C54.05,142.233 57.017,141.05 60.35,140.65C67.783,139.783 74.733,143.1 81.2,150.6C87.733,158.167 91.9,167.717 93.7,179.25C95.5,190.783 94.4,200.9 90.4,209.6C87.833,215.267 84.583,219.283 80.65,221.65C79.25,222.517 77.8,223.15 76.3,223.55C73.7,225.517 70.733,226.7 67.4,227.1C63.267,227.6 59.283,226.783 55.45,224.65C52.35,222.95 49.35,220.433 46.45,217.1C39.983,209.567 35.85,200.033 34.05,188.5C32.25,176.967 33.317,166.817 37.25,158.05C40.717,150.55 45.45,145.933 51.45,144.2M69.95,157.85C63.983,176.283 61.95,195.3 63.85,214.9L50.75,213.1C49.317,193.133 51.35,174.117 56.85,156.05L69.95,157.85" style="fill:none;fill-rule:nonzero;stroke:#000;stroke-opacity:0.3;stroke-width:0.05px;"/>
                </g>
            </g>
        </g>
    </g>
</svg>
