<?xml version="1.0" encoding="UTF-8" standalone="no"?>
<!DOCTYPE svg PUBLIC "-//W3C//DTD SVG 1.1//EN" "http://www.w3.org/Graphics/SVG/1.1/DTD/svg11.dtd">
<svg width="100%" height="100%" viewBox="0 0 16 23" version="1.1" xmlns="http://www.w3.org/2000/svg" xmlns:xlink="http://www.w3.org/1999/xlink" xml:space="preserve" xmlns:serif="http://www.serif.com/" style="fill-rule:evenodd;clip-rule:evenodd;stroke-linecap:round;stroke-linejoin:round;">
    <g transform="matrix(1,0,0,1,7.9,11.35)">
        <g id="sprite0">
            <g id="shape0">
                <path d="M-7.1,-9L-7.4,-10.75L-7.1,-10.85L-4.8,-8C-2.233,-8.2 0.3,-7.95 2.8,-7.25L6.8,-9.85L7.1,-9.65L7.4,-7.9L6.65,-7.35L7,-5.45L5.3,-4.5C5.567,-1.633 5.567,1.583 5.3,5.15L4.4,5.85C3.1,6.25 1.917,6.833 0.85,7.6C-0.017,8.333 -0.817,9.217 -1.55,10.25L-2.45,10.9C-3.65,8.1 -5,6.067 -6.5,4.8C-6.833,0.933 -6.7,-2.75 -6.1,-6.25L-6.75,-7.1L-6.9,-8.75L-7.1,-9" style="fill:#280a02;"/>
                <path d="M-7.1,-9L-7.4,-10.75L-7.1,-10.85L-4.8,-8C-2.233,-8.2 0.3,-7.95 2.8,-7.25L6.8,-9.85L7.1,-9.65L7.4,-7.9L6.65,-7.35L7,-5.45L5.3,-4.5C5.567,-1.633 5.567,1.583 5.3,5.15L4.4,5.85C3.1,6.25 1.917,6.833 0.85,7.6C-0.017,8.333 -0.817,9.217 -1.55,10.25L-2.45,10.9C-3.65,8.1 -5,6.067 -6.5,4.8C-6.833,0.933 -6.7,-2.75 -6.1,-6.25L-6.75,-7.1L-6.9,-8.75L-7.1,-9Z" style="fill:none;fill-rule:nonzero;stroke:#280a02;stroke-width:1px;"/>
            </g>
            <g id="sprite1" transform="matrix(0.0498,0,0,0.0497,-8.19972,-8.34838)">
                <g id="shape1">
                    <path d="M49.9,135.65C51.833,106.583 55.467,78.083 60.8,50.15C119.067,45.55 175.883,54.033 231.25,75.6C235.45,102.733 237.8,129.45 238.3,155.75C238.467,169.817 238.467,181.667 238.3,191.3C237.967,203.7 237.4,216.433 236.6,229.5C235.8,242.567 234.667,256.05 233.2,269.95C196.9,283.85 165.017,306.15 137.55,336.85C128.517,355.95 116.167,350.8 100.5,321.4C84.7,291.833 68.167,269.7 50.9,255C50.067,245.367 49.5,235.967 49.2,226.8L48.95,223.4L48.45,209.65L48.45,207.2L48.2,193.75C48.067,189.017 48.067,184.267 48.2,179.5C48.2,169.7 48.533,159.9 49.2,150.1L49.9,135.65C71.7,140.383 95.117,156.233 120.15,183.2C95.117,156.233 71.7,140.383 49.9,135.65M238.3,155.75C204.733,162.283 173.65,174.05 145.05,191.05C173.65,174.05 204.733,162.283 238.3,155.75M236.6,229.5C199.633,239.467 167.583,256.867 140.45,281.7C167.583,256.867 199.633,239.467 236.6,229.5M238.3,191.3C201.5,197.667 169.617,212.617 142.65,236.15C169.617,212.617 201.5,197.667 238.3,191.3M113.6,226.1C93.1,198.8 71.3,183.267 48.2,179.5C71.3,183.267 93.1,198.8 113.6,226.1M110.2,267.25C91.967,240.95 71.383,220.933 48.45,207.2C71.383,220.933 91.967,240.95 110.2,267.25" style="fill:#ffffe4;"/>
                    <path d="M49.9,135.65L48.2,135.15M49.9,135.65C71.7,140.383 95.117,156.233 120.15,183.2M48.45,207.2C71.383,220.933 91.967,240.95 110.2,267.25M48.2,179.5C71.3,183.267 93.1,198.8 113.6,226.1M142.65,236.15C169.617,212.617 201.5,197.667 238.3,191.3M140.45,281.7C167.583,256.867 199.633,239.467 236.6,229.5M145.05,191.05C173.65,174.05 204.733,162.283 238.3,155.75" style="fill:none;fill-rule:nonzero;stroke:#000;stroke-opacity:0.3;stroke-width:0.05px;"/>
                    <path d="M252.55,285.65C252.717,283.017 252.967,280.4 253.3,277.8C257,227.3 257.883,180.417 255.95,137.15L255.5,125.35C254.533,105.417 252.75,86.383 250.15,68.25L249.45,63.35L247.75,51.35C187.05,27.683 124.817,17.233 61.05,20L45.3,20.95L63.25,7C132.483,1.6 199.95,11.733 265.65,37.4C276.15,104.2 277.767,182.283 270.5,271.65L252.55,285.65M233.95,263.35L233.2,269.95C214.633,277.15 197.2,286.467 180.9,297.9C197.2,283.833 214.883,272.317 233.95,263.35M151.35,135.15C146.05,130.75 140.4,127.65 134.4,125.85C129.1,124.383 123.45,123.9 117.45,124.4L135.4,110.4C147.833,109.267 159.133,112.867 169.3,121.2L151.35,135.15M106.8,285.9L104.15,326.05L99.3,317.25C84.3,290.45 68.167,269.7 50.9,255L68.8,241.05C82.2,252.483 94.867,267.433 106.8,285.9" style="fill:#7cc7e0;"/>
                    <path d="M45.3,20.95L61.05,20C124.817,17.233 187.05,27.683 247.75,51.35L249.45,63.35L250.15,68.25C252.75,86.383 254.533,105.417 255.5,125.35L255.95,137.15C257.883,180.417 257,227.3 253.3,277.8C252.967,280.4 252.717,283.017 252.55,285.65C226.917,293.817 203.283,305.65 181.65,321.15C163.25,334.217 146.3,349.983 130.8,368.45C125.467,374.683 120.3,381.217 115.3,388.05C91.067,331.55 63.867,290.383 33.7,264.55C26.9,179.783 30.767,98.583 45.3,20.95M233.95,263.35C235.05,251.75 235.933,240.467 236.6,229.5C237.4,216.433 237.967,203.7 238.3,191.3C238.467,181.667 238.467,172.183 238.3,162.85C237.8,131.817 235.45,102.733 231.25,75.6C180.883,56 129.317,47.267 76.55,49.4L60.8,50.15C54.667,82.65 50.8,115.967 49.2,150.1C48.7,158.933 48.367,167.85 48.2,176.85C48.367,197.25 48.933,217.833 49.9,238.6L50.65,250.85L50.9,255C68.167,269.7 84.3,290.45 99.3,317.25L104.15,326.05L106.8,285.9L117.45,124.4C123.45,123.9 129.1,124.383 134.4,125.85C140.4,127.65 146.05,130.75 151.35,135.15L137.55,336.85C143.383,330.317 149.517,324.117 155.95,318.25C163.883,310.883 172.2,304.1 180.9,297.9C197.2,286.467 214.633,277.15 233.2,269.95L233.95,263.35" style="fill:#5e95a7;"/>
                    <path d="M115.3,388.05C120.3,381.217 125.467,374.683 130.8,368.45C146.3,349.983 163.25,334.217 181.65,321.15C164.05,336.017 147.9,353.667 133.2,374.1L115.3,388.05M155.95,318.25C149.517,324.117 143.383,330.317 137.55,336.85L151.35,135.15L169.3,121.2L155.95,318.25M50.9,255L50.65,250.85L49.9,238.6C48.933,217.833 48.367,197.25 48.2,176.85C48.367,167.85 48.7,158.933 49.2,150.1C50.8,115.967 54.667,82.65 60.8,50.15L76.55,49.4C71.717,77.667 68.567,106.583 67.1,136.15C66.3,150.517 65.983,165.05 66.15,179.75C66.15,189.55 66.383,199.433 66.85,209.4L67.1,212.85C67.433,222.15 68,231.55 68.8,241.05L50.9,255" style="fill:#4c7887;"/>
                    <path d="M252.55,285.65L270.5,271.65C277.767,182.283 276.15,104.2 265.65,37.4C199.95,11.733 132.483,1.6 63.25,7L45.3,20.95C30.767,98.583 26.9,179.783 33.7,264.55C63.867,290.383 91.067,331.55 115.3,388.05L133.2,374.1C147.9,353.667 164.05,336.017 181.65,321.15C203.283,305.65 226.917,293.817 252.55,285.65M76.55,49.4C129.317,47.267 180.883,56 231.25,75.6C235.45,102.733 237.8,131.817 238.3,162.85C238.467,172.183 238.467,181.667 238.3,191.3C237.967,203.7 237.4,216.433 236.6,229.5C235.933,240.467 235.05,251.75 233.95,263.35C214.883,272.317 197.2,283.833 180.9,297.9C172.2,304.1 163.883,310.883 155.95,318.25L169.3,121.2C159.133,112.867 147.833,109.267 135.4,110.4L117.45,124.4L106.8,285.9C94.867,267.433 82.2,252.483 68.8,241.05C68,231.55 67.433,222.15 67.1,212.85L66.85,209.4C66.383,199.433 66.15,189.55 66.15,179.75C65.983,165.05 66.3,150.517 67.1,136.15C68.567,106.583 71.717,77.667 76.55,49.4" style="fill:none;fill-rule:nonzero;stroke:#000;stroke-opacity:0.3;stroke-width:0.05px;"/>
                    <path d="M26.1,-8L21.7,-13.35L15.9,-48.4L51.7,-3.8L53.75,27.3L26.1,-8M73.6,105L49.5,78.55L46.55,48.15L29.3,25.35L27.15,3.3L65.45,56L71.15,79.75L46.55,48.15L71.15,79.75L73.6,105" style="fill:#a2a8aa;"/>
                    <path d="M51.7,-3.8L15.9,-48.4L21.95,-50.6L120.65,70.95L118.9,77.55L115.25,80L51.7,-3.8" style="fill:#d0d3d4;"/>
                    <path d="M26.1,-8L53.75,27.3L51.7,-3.8L115.25,80L116.15,89.3L120.35,105.75L120.4,105.95L130.15,144.45L129.85,153.5C129.617,151.067 129.017,150.017 128.05,150.35C126.35,147.55 124.467,146.233 122.4,146.4L122.2,154.5C121.467,151.867 120.667,150.483 119.8,150.35C117,147.717 113.7,145.183 109.9,142.75C99.933,131.45 87.833,118.867 73.6,105L71.15,79.75L65.45,56L27.15,3.3L26.1,-8M130.15,144.45L113.95,124.1L122.3,145.2L71.15,79.75L122.3,145.2L113.95,124.1L120.4,105.95L113.95,124.1L130.15,144.45M122.3,145.2L122.4,146.4L122.3,145.2M120.35,105.75L53.75,27.3L120.35,105.75" style="fill:#677274;"/>
                    <path d="M15.9,-48.4L21.7,-13.35L26.1,-8L53.75,27.3L120.35,105.75L120.4,105.95L130.15,144.45L129.85,153.5C129.617,151.067 129.017,150.017 128.05,150.35C126.35,147.55 124.467,146.233 122.4,146.4L122.2,154.5C121.467,151.867 120.667,150.483 119.8,150.35C117,147.717 113.7,145.183 109.9,142.75C99.933,131.45 87.833,118.867 73.6,105L49.5,78.55L46.55,48.15L29.3,25.35L27.15,3.3L26.1,-8M15.9,-48.4L21.95,-50.6L120.65,70.95L118.9,77.55L115.25,80L116.15,89.3L120.35,105.75M46.55,48.15L71.15,79.75L122.3,145.2L113.95,124.1L120.4,105.95M122.4,146.4L122.3,145.2M113.95,124.1L130.15,144.45" style="fill:none;fill-rule:nonzero;stroke:#000;stroke-opacity:0.3;stroke-width:0.05px;"/>
                    <path d="M139.15,85.9L142.85,82.95L142.2,73.6L301.2,-30.05L307.05,-25.85L232.3,23.15L139.15,85.9" style="fill:#d0d3d4;"/>
                    <path d="M297.95,20.2L300.85,33.7L215.9,88.8L208.4,112.35L202.35,140.3C178.983,147.8 158.567,154.65 141.1,160.85L130.55,138.55L152.7,99.35L132.25,91C133.917,89.533 135.767,88.233 137.8,87.1L139.15,85.9L232.3,23.15L222.7,65.55L297.95,20.2M142.5,150.1L208.4,112.35L142.5,150.1M137.6,142.25L159.15,104.5L222.7,65.55L159.15,104.5L137.6,142.25" style="fill:#677274;"/>
                    <path d="M307.05,-25.85L313.6,8.95L297.95,20.2L222.7,65.55L232.3,23.15L307.05,-25.85M300.85,33.7L305,58.2L252.15,88.1L258.2,119.2L202.35,140.3L208.4,112.35L215.9,88.8L300.85,33.7M252.15,88.1L208.4,112.35L252.15,88.1" style="fill:#a2a8aa;"/>
                    <path d="M139.15,85.9L142.85,82.95L142.2,73.6L301.2,-30.05L307.05,-25.85L313.6,8.95L297.95,20.2L300.85,33.7L305,58.2L252.15,88.1L258.2,119.2L202.35,140.3C178.983,147.8 158.567,154.65 141.1,160.85L130.55,138.55L152.7,99.35L132.25,91C133.917,89.533 135.767,88.233 137.8,87.1L139.15,85.9M222.7,65.55L297.95,20.2M208.4,112.35L252.15,88.1M222.7,65.55L159.15,104.5L137.6,142.25M208.4,112.35L142.5,150.1" style="fill:none;fill-rule:nonzero;stroke:#000;stroke-opacity:0.3;stroke-width:0.05px;"/>
                    <path d="M102.75,71.9C103.55,70.6 104.5,69.383 105.6,68.25C113.833,59.65 124.083,56.317 136.35,58.25C148.55,59.883 159.1,66.233 168,77.3C177.333,88.333 182.35,100.733 183.05,114.5L182.9,119.7C182.767,131.333 178.967,140.817 171.5,148.15C169.3,150.55 166.933,152.533 164.4,154.1C169.6,147.333 172.283,139.05 172.45,129.25L172.6,124.1C171.9,110.3 166.883,97.883 157.55,86.85C148.683,75.783 138.117,69.45 125.85,67.85C117.117,66.45 109.417,67.8 102.75,71.9" style="fill:#d0d3d4;"/>
                    <path d="M164.4,154.1L161.05,157.7C152.983,166.167 142.917,169.6 130.85,168C118.583,166.2 107.85,159.683 98.65,148.45C90.617,138.917 85.867,128.233 84.4,116.4L84.05,111.25C83.383,97.45 87.067,86.317 95.1,77.85C97.5,75.45 100.05,73.467 102.75,71.9C109.417,67.8 117.117,66.45 125.85,67.85C138.117,69.45 148.683,75.783 157.55,86.85C166.883,97.883 171.9,110.3 172.6,124.1L172.45,129.25C172.283,139.05 169.6,147.333 164.4,154.1" style="fill:#a2a8aa;"/>
                    <path d="M102.75,71.9C103.55,70.6 104.5,69.383 105.6,68.25C113.833,59.65 124.083,56.317 136.35,58.25C148.55,59.883 159.1,66.233 168,77.3C177.333,88.333 182.35,100.733 183.05,114.5L182.9,119.7C182.767,131.333 178.967,140.817 171.5,148.15C169.3,150.55 166.933,152.533 164.4,154.1L161.05,157.7C152.983,166.167 142.917,169.6 130.85,168C118.583,166.2 107.85,159.683 98.65,148.45C90.617,138.917 85.867,128.233 84.4,116.4L84.05,111.25C83.383,97.45 87.067,86.317 95.1,77.85C97.5,75.45 100.05,73.467 102.75,71.9Z" style="fill:none;fill-rule:nonzero;stroke:#000;stroke-opacity:0.3;stroke-width:0.05px;"/>
                    <path d="M105.45,130.8C102.117,125.167 100.317,119.183 100.05,112.85C99.617,104.65 101.783,98.2 106.55,93.5C111.45,88.6 117.45,86.883 124.55,88.35C131.65,89.783 137.817,93.95 143.05,100.85C148.317,107.55 151.1,114.983 151.4,123.15C151.667,130.217 150.083,136.133 146.65,140.9C147.45,131.133 146.767,124 144.6,119.5C132.667,137.5 120.233,135.717 107.3,114.15C105.267,117.017 104.65,122.567 105.45,130.8M124.2,95.6C122.233,93.967 119.9,93.617 117.2,94.55C115.1,95.45 113.417,97.05 112.15,99.35C111.05,101.117 110.6,103.017 110.8,105.05C110.833,106.683 111.35,108.117 112.35,109.35C113.317,110.783 114.683,111.667 116.45,112C118.383,112.333 120.3,111.867 122.2,110.6C124.767,108.9 126.35,106.567 126.95,103.6C127.683,100.133 126.767,97.467 124.2,95.6" style="fill:#c0d91b;"/>
                    <path d="M124.2,95.6C126.767,97.467 127.683,100.133 126.95,103.6C126.35,106.567 124.767,108.9 122.2,110.6C120.3,111.867 118.383,112.333 116.45,112C114.683,111.667 113.317,110.783 112.35,109.35C111.35,108.117 110.833,106.683 110.8,105.05C110.6,103.017 111.05,101.117 112.15,99.35C113.417,97.05 115.1,95.45 117.2,94.55C119.9,93.617 122.233,93.967 124.2,95.6" style="fill:#d3cbcc;"/>
                    <path d="M146.65,140.9L144.7,142.7C139.967,147.433 134.05,149.067 126.95,147.6C119.85,146.333 113.667,142.267 108.4,135.4C107.267,133.9 106.283,132.367 105.45,130.8C104.65,122.567 105.267,117.017 107.3,114.15C120.233,135.717 132.667,137.5 144.6,119.5C146.767,124 147.45,131.133 146.65,140.9" style="fill:#788a38;"/>
                    <path d="M105.45,130.8C102.117,125.167 100.317,119.183 100.05,112.85C99.617,104.65 101.783,98.2 106.55,93.5C111.45,88.6 117.45,86.883 124.55,88.35C131.65,89.783 137.817,93.95 143.05,100.85C148.317,107.55 151.1,114.983 151.4,123.15C151.667,130.217 150.083,136.133 146.65,140.9L144.7,142.7C139.967,147.433 134.05,149.067 126.95,147.6C119.85,146.333 113.667,142.267 108.4,135.4C107.267,133.9 106.283,132.367 105.45,130.8Z" style="fill:none;fill-rule:nonzero;stroke:#000;stroke-opacity:0.3;stroke-width:0.05px;"/>
                </g>
            </g>
        </g>
    </g>
</svg>
