<?xml version="1.0" encoding="UTF-8" standalone="no"?>
<!DOCTYPE svg PUBLIC "-//W3C//DTD SVG 1.1//EN" "http://www.w3.org/Graphics/SVG/1.1/DTD/svg11.dtd">
<svg width="100%" height="100%" viewBox="0 0 17 22" version="1.1" xmlns="http://www.w3.org/2000/svg" xmlns:xlink="http://www.w3.org/1999/xlink" xml:space="preserve" xmlns:serif="http://www.serif.com/" style="fill-rule:evenodd;clip-rule:evenodd;stroke-linecap:round;stroke-linejoin:round;">
    <g transform="matrix(1,0,0,1,8.35,10.9)">
        <g id="sprite0">
            <g id="shape0">
                <path d="M6.1,-5.9L5.9,-5.95L5.7,-5.85L4.4,-4.35L3.7,-4.7C2.233,-5.5 1.033,-6.567 0.1,-7.9L0.1,-10.1L0,-10.3L-0.2,-10.4L-0.4,-10.3L-0.5,-10.1L-0.5,-7.95L-0.85,-7.65C-1.75,-6.883 -2.75,-6.65 -3.85,-6.95L-4.75,-8.8L-4.95,-8.95L-5.15,-8.95L-5.3,-8.75L-5.3,-8.55L-4.4,-6.7L-5.05,-5.45C-5.617,-4.45 -6.167,-3.667 -6.7,-3.1C-7.1,-2.667 -7.483,-2.417 -7.85,-2.35C-7.083,-2.183 -6.483,-1.8 -6.05,-1.2L-6.4,-0.7L-7.3,-0.75C-7.6,-0.617 -7.6,-0.483 -7.3,-0.35L-6.65,-0.2L-6.65,-0.15L-6.6,-0.15L-5.9,1.25L-5.3,2.7L-5.35,3.05L-5.2,2.9C-4.9,3.867 -4.7,4.867 -4.6,5.9L-5.4,6.75L-5.45,7L-5.35,7.15L-5.15,7.25L-4.95,7.15L-4.25,6.3L-3.85,6.5C-2.45,7.2 -1.333,8.217 -0.5,9.55L-0.5,10.2L-0.4,10.4L-0.2,10.45L0,10.4L0.1,10.2L0.1,9.6L0.8,9.25L3.25,9.1L3.75,10.15L3.95,10.3L4.15,10.3L4.3,10.15L4.3,9.9L3.75,8.85L4.3,7.3C4.833,5.833 5.517,4.45 6.35,3.15L7.45,3.4L7.7,3.35L7.8,3.2L7.75,3L7.6,2.85L6.4,2.55L5.65,0.7L5.65,0.75C5.183,-0.783 4.883,-2.333 4.75,-3.9L6.15,-5.5L6.2,-5.7L6.1,-5.9Z" style="fill:none;fill-rule:nonzero;stroke:#280a02;stroke-width:1px;"/>
            </g>
            <g id="sprite1" transform="matrix(0.0498,0,0,0.0497,-6.15072,-8.19858)">
                <g id="shape1">
                    <path d="M17,-11.45C17.567,-12.983 18.617,-14.133 20.15,-14.9C21.517,-15.667 22.967,-15.767 24.5,-15.2C25.833,-14.6 26.883,-13.533 27.65,-12L45.75,25.65C68.183,31.417 88.517,26.533 106.75,11L106.75,10.7L113.65,4.65L113.65,-38.2C113.65,-39.733 114.233,-41.067 115.4,-42.2C116.533,-43.367 117.867,-43.95 119.4,-43.95C120.933,-43.95 122.283,-43.367 123.45,-42.2C124.583,-41.067 125.15,-39.733 125.15,-38.2L125.15,5.55C144.15,32.95 168.417,54.517 197.95,70.25C202.35,72.75 206.95,75.15 211.75,77.45L238.2,46.95C239.167,45.783 240.517,45.117 242.25,44.95C243.783,44.75 245.117,45.217 246.25,46.35C247.417,47.317 248.083,48.667 248.25,50.4C248.45,51.933 247.983,53.283 246.85,54.45L219.2,86.35C221.7,118.183 227.45,149.35 236.45,179.85L236.45,179.55C240.317,192.383 245.6,204.75 252.3,216.65L275.9,222.4C277.433,222.6 278.583,223.467 279.35,225C280.117,226.333 280.4,227.767 280.2,229.3C279.8,230.833 278.933,231.983 277.6,232.75C276.067,233.517 274.633,233.817 273.3,233.65L251.15,228.15C234.45,254.617 220.733,282.433 210,311.6C205.967,322.133 202.233,332.767 198.8,343.5L209.45,364.5C210.217,366.033 210.3,367.567 209.7,369.1C209.133,370.433 208.183,371.483 206.85,372.25C205.317,373.017 203.883,373.117 202.55,372.55C201.017,371.983 199.867,371.033 199.1,369.7L188.45,348.7C171.75,341.967 155.55,342.817 139.85,351.25L139.55,351.25C134.55,353.55 129.75,356.05 125.15,358.75L125.15,370.25C125.15,371.783 124.583,373.133 123.45,374.3C122.283,375.433 120.933,376 119.4,376C117.867,376 116.533,375.433 115.4,374.3C114.233,373.133 113.65,371.783 113.65,370.25L113.65,357C96.783,330.733 74.25,310.417 46.05,296.05L38.6,292.3L23.9,309C22.933,310.133 21.683,310.8 20.15,311C18.45,311.2 17.017,310.717 15.85,309.55C14.717,308.617 14.05,307.367 13.85,305.8C13.65,304.1 14.133,302.667 15.3,301.5L31.4,283.4C27.933,250.8 19.017,219.733 4.65,190.2L-9.45,162.3L-9.75,162L-10.05,161.45L-23,158.25C-29.133,155.583 -29.133,152.9 -23,150.2L-5.45,151.05C11.617,127.083 23.7,100.717 30.8,71.95C33.867,58.35 35.6,44.833 36,31.4L17.3,-7.15C16.533,-8.683 16.433,-10.117 17,-11.45M239.05,225.3L203.95,216.35C188.417,232.65 177.883,251.733 172.35,273.6C171.383,276.867 170.517,280.033 169.75,283.1L191.6,328.85L199.35,307.55L199.1,307.55C209.633,278.783 222.95,251.367 239.05,225.3M77.1,254.6L72.5,253.75L46.65,283.4L51.25,285.7C76.183,298.533 96.983,315.7 113.65,337.2L113.65,288.85C107.117,271.783 94.933,260.367 77.1,254.6M136.1,288.55L136.35,288.3L125.15,291.75L125.15,345.8C128.217,344.067 131.283,342.533 134.35,341.2C134.35,341 134.45,340.9 134.65,340.9C149.783,332.867 165.417,330.667 181.55,334.3L159.65,288.55C151.817,286.65 143.967,286.65 136.1,288.55M98.4,224.7L97.85,224.7L81.15,244C94.75,248.2 105.583,255.383 113.65,265.55L113.65,231.9C109.05,228.067 103.967,225.667 98.4,224.7M113.65,217.8L113.65,206.6L106.45,214.95C108.95,215.517 111.35,216.467 113.65,217.8M136.95,214.95C140.017,210.35 143.567,206.317 147.6,202.85L129.2,198.25L136.95,214.95M143.85,226.15C143.483,226.517 143.2,227 143,227.6L161.95,267C167.717,246.867 177.417,229.033 191.05,213.5L162.25,206.6C154.217,211 148.083,217.417 143.85,225.85L143.85,226.15M132.35,231.9L127.75,229.3L125.15,231.9L125.15,279.65L133.2,277.35L133.5,277.35C140.2,275.617 146.917,275.133 153.65,275.9L132.35,231.9M125.15,176.4L141,158.55C135.033,155.683 129.75,152.133 125.15,147.9L125.15,176.4M149.9,191.65C146.833,185.117 145.017,178.583 144.45,172.05L131.2,187.05L149.9,191.65M110.2,193.35L99.25,190.75C100.983,194.417 102.133,198.167 102.7,202L110.2,193.35M99.85,179L108.45,181.3L103.85,171.8C102.917,174.267 101.583,176.667 99.85,179M113.65,149.65C111.55,150.783 109.35,151.55 107.05,151.95L113.65,165.75L113.65,149.65M91.8,146.45L82.6,127.8C81.433,143.5 76.35,157.967 67.35,171.2L86.9,176.1C93.233,170.733 95.35,163.55 93.25,154.55L93.25,154.25C92.483,151.55 92,148.95 91.8,146.45M85.15,106.5L101.3,139.85C106.467,140.617 110.2,138.517 112.5,133.55L113.65,130.65L113.65,94.1C106.183,102.167 96.683,106.3 85.15,106.5M160.25,119.45L159.95,119.45C146.55,112.55 134.95,103.433 125.15,92.1L125.15,130.35C131.083,138.783 139.05,145.117 149.05,149.35L170.9,124.3L160.25,119.45M65.9,182.7L67.9,188.75C72.7,203.15 75.483,217.533 76.25,231.9L89.8,216.65C92.467,208.217 91.7,200.267 87.5,192.8L84.3,187.3L65.9,182.7M6.35,168.35L15,185C28.6,212.633 37.417,241.5 41.45,271.6L65.05,245.4C65.617,227.567 62.933,209.933 57,192.5L57,192.2L52.95,179.55L6.35,168.35M46.05,52.15C45.083,59.617 43.75,67.083 42.05,74.55C34.75,104.083 22.467,131.217 5.2,155.95L55.25,168.35C67.717,152.05 72.9,133.25 70.8,111.95C70.4,108.517 70.117,105.167 69.95,101.9L46.05,52.15M111.35,77.15L113.65,72.85L113.65,19.9C95.25,35.633 74.833,41.867 52.4,38.6L79.7,95C93.9,96.533 104.45,90.583 111.35,77.15M185.85,124.6C185.083,148.4 189.683,171.133 199.65,192.8C201.583,196.8 203.7,200.917 206,205.15L237.35,212.9C232.55,203.133 228.617,193.167 225.55,183C217.283,155.4 211.617,127.217 208.55,98.45L185.85,124.6M163.1,192.2C163.5,193.167 164.183,194.217 165.15,195.35L191.3,201.7L189.3,197.65C180.467,178.283 175.583,158.25 174.65,137.55L156.2,158.55C154.5,170.25 156.717,181.367 162.85,191.9L163.1,192.2M203.95,86.35C200.117,84.25 196.283,82.233 192.45,80.3C165.983,66.3 143.55,47.8 125.15,24.8L125.15,72.85C135.317,88.75 148.65,100.833 165.15,109.1L178.65,115.4L203.95,86.35" style="fill:#ebe4cd;"/>
                    <path d="M203.95,86.35L178.65,115.4L165.15,109.1C148.65,100.833 135.317,88.75 125.15,72.85L125.15,24.8C143.55,47.8 165.983,66.3 192.45,80.3C196.283,82.233 200.117,84.25 203.95,86.35M163.1,192.2L162.85,191.9C156.717,181.367 154.5,170.25 156.2,158.55L174.65,137.55C175.583,158.25 180.467,178.283 189.3,197.65L191.3,201.7L165.15,195.35C164.183,194.217 163.5,193.167 163.1,192.2M185.85,124.6L208.55,98.45C211.617,127.217 217.283,155.4 225.55,183C228.617,193.167 232.55,203.133 237.35,212.9L206,205.15C203.7,200.917 201.583,196.8 199.65,192.8C189.683,171.133 185.083,148.4 185.85,124.6M111.35,77.15C104.45,90.583 93.9,96.533 79.7,95L52.4,38.6C74.833,41.867 95.25,35.633 113.65,19.9L113.65,72.85L111.35,77.15M46.05,52.15L69.95,101.9C70.117,105.167 70.4,108.517 70.8,111.95C72.9,133.25 67.717,152.05 55.25,168.35L5.2,155.95C22.467,131.217 34.75,104.083 42.05,74.55C43.75,67.083 45.083,59.617 46.05,52.15M6.35,168.35L52.95,179.55L57,192.2L57,192.5C62.933,209.933 65.617,227.567 65.05,245.4L41.45,271.6C37.417,241.5 28.6,212.633 15,185L6.35,168.35M65.9,182.7L84.3,187.3L87.5,192.8C91.7,200.267 92.467,208.217 89.8,216.65L76.25,231.9C75.483,217.533 72.7,203.15 67.9,188.75L65.9,182.7M160.25,119.45L170.9,124.3L149.05,149.35C139.05,145.117 131.083,138.783 125.15,130.35L125.15,92.1C134.95,103.433 146.55,112.55 159.95,119.45L160.25,119.45M85.15,106.5C96.683,106.3 106.183,102.167 113.65,94.1L113.65,130.65L112.5,133.55C110.2,138.517 106.467,140.617 101.3,139.85L85.15,106.5M91.8,146.45C92,148.95 92.483,151.55 93.25,154.25L93.25,154.55C95.35,163.55 93.233,170.733 86.9,176.1L67.35,171.2C76.35,157.967 81.433,143.5 82.6,127.8L91.8,146.45M113.65,149.65L113.65,165.75L107.05,151.95C109.35,151.55 111.55,150.783 113.65,149.65M99.85,179C101.583,176.667 102.917,174.267 103.85,171.8L108.45,181.3L99.85,179M110.2,193.35L102.7,202C102.133,198.167 100.983,194.417 99.25,190.75L110.2,193.35M149.9,191.65L131.2,187.05L144.45,172.05C145.017,178.583 146.833,185.117 149.9,191.65M125.15,176.4L125.15,147.9C129.75,152.133 135.033,155.683 141,158.55L125.15,176.4M132.35,231.9L153.65,275.9C146.917,275.133 140.2,275.617 133.5,277.35L133.2,277.35L125.15,279.65L125.15,231.9L127.75,229.3L132.35,231.9M143.85,226.15L143.85,225.85C148.083,217.417 154.217,211 162.25,206.6L191.05,213.5C177.417,229.033 167.717,246.867 161.95,267L143,227.6C143.2,227 143.483,226.517 143.85,226.15M136.95,214.95L129.2,198.25L147.6,202.85C143.567,206.317 140.017,210.35 136.95,214.95M113.65,217.8C111.35,216.467 108.95,215.517 106.45,214.95L113.65,206.6L113.65,217.8M98.4,224.7C103.967,225.667 109.05,228.067 113.65,231.9L113.65,265.55C105.583,255.383 94.75,248.2 81.15,244L97.85,224.7L98.4,224.7M136.1,288.55C143.967,286.65 151.817,286.65 159.65,288.55L181.55,334.3C165.417,330.667 149.783,332.867 134.65,340.9C134.45,340.9 134.35,341 134.35,341.2C131.283,342.533 128.217,344.067 125.15,345.8L125.15,291.75L136.35,288.3L136.1,288.55M77.1,254.6C94.933,260.367 107.117,271.783 113.65,288.85L113.65,337.2C96.983,315.7 76.183,298.533 51.25,285.7L46.65,283.4L72.5,253.75L77.1,254.6M239.05,225.3C222.95,251.367 209.633,278.783 199.1,307.55L199.35,307.55L191.6,328.85L169.75,283.1C170.517,280.033 171.383,276.867 172.35,273.6C177.883,251.733 188.417,232.65 203.95,216.35L239.05,225.3" style="fill:#ebe4cd;fill-opacity:0.35;"/>
                    <path d="M17,-11.45C16.433,-10.117 16.533,-8.683 17.3,-7.15L36,31.4C35.6,44.833 33.867,58.35 30.8,71.95C23.7,100.717 11.617,127.083 -5.45,151.05L-23,150.2C-29.133,152.9 -29.133,155.583 -23,158.25L-10.05,161.45L-9.75,162L-9.45,162.3L4.65,190.2C19.017,219.733 27.933,250.8 31.4,283.4L15.3,301.5C14.133,302.667 13.65,304.1 13.85,305.8C14.05,307.367 14.717,308.617 15.85,309.55C17.017,310.717 18.45,311.2 20.15,311C21.683,310.8 22.933,310.133 23.9,309L38.6,292.3L46.05,296.05C74.25,310.417 96.783,330.733 113.65,357L113.65,370.25C113.65,371.783 114.233,373.133 115.4,374.3C116.533,375.433 117.867,376 119.4,376C120.933,376 122.283,375.433 123.45,374.3C124.583,373.133 125.15,371.783 125.15,370.25L125.15,358.75C129.75,356.05 134.55,353.55 139.55,351.25L139.85,351.25C155.55,342.817 171.75,341.967 188.45,348.7L199.1,369.7C199.867,371.033 201.017,371.983 202.55,372.55C203.883,373.117 205.317,373.017 206.85,372.25C208.183,371.483 209.133,370.433 209.7,369.1C210.3,367.567 210.217,366.033 209.45,364.5L198.8,343.5C202.233,332.767 205.967,322.133 210,311.6C220.733,282.433 234.45,254.617 251.15,228.15L273.3,233.65C274.633,233.817 276.067,233.517 277.6,232.75C278.933,231.983 279.8,230.833 280.2,229.3C280.4,227.767 280.117,226.333 279.35,225C278.583,223.467 277.433,222.6 275.9,222.4L252.3,216.65C245.6,204.75 240.317,192.383 236.45,179.55L236.45,179.85C227.45,149.35 221.7,118.183 219.2,86.35L246.85,54.45C247.983,53.283 248.45,51.933 248.25,50.4C248.083,48.667 247.417,47.317 246.25,46.35C245.117,45.217 243.783,44.75 242.25,44.95C240.517,45.117 239.167,45.783 238.2,46.95L211.75,77.45C206.95,75.15 202.35,72.75 197.95,70.25C168.417,54.517 144.15,32.95 125.15,5.55L125.15,-38.2C125.15,-39.733 124.583,-41.067 123.45,-42.2C122.283,-43.367 120.933,-43.95 119.4,-43.95C117.867,-43.95 116.533,-43.367 115.4,-42.2C114.233,-41.067 113.65,-39.733 113.65,-38.2L113.65,4.65L106.75,10.7L106.75,11C88.517,26.533 68.183,31.417 45.75,25.65L27.65,-12C26.883,-13.533 25.833,-14.6 24.5,-15.2C22.967,-15.767 21.517,-15.667 20.15,-14.9C18.617,-14.133 17.567,-12.983 17,-11.45M203.95,86.35L178.65,115.4L165.15,109.1C148.65,100.833 135.317,88.75 125.15,72.85L125.15,24.8C143.55,47.8 165.983,66.3 192.45,80.3C196.283,82.233 200.117,84.25 203.95,86.35M163.1,192.2L162.85,191.9C156.717,181.367 154.5,170.25 156.2,158.55L174.65,137.55C175.583,158.25 180.467,178.283 189.3,197.65L191.3,201.7L165.15,195.35C164.183,194.217 163.5,193.167 163.1,192.2M185.85,124.6L208.55,98.45C211.617,127.217 217.283,155.4 225.55,183C228.617,193.167 232.55,203.133 237.35,212.9L206,205.15C203.7,200.917 201.583,196.8 199.65,192.8C189.683,171.133 185.083,148.4 185.85,124.6M111.35,77.15C104.45,90.583 93.9,96.533 79.7,95L52.4,38.6C74.833,41.867 95.25,35.633 113.65,19.9L113.65,72.85L111.35,77.15M46.05,52.15L69.95,101.9C70.117,105.167 70.4,108.517 70.8,111.95C72.9,133.25 67.717,152.05 55.25,168.35L5.2,155.95C22.467,131.217 34.75,104.083 42.05,74.55C43.75,67.083 45.083,59.617 46.05,52.15M6.35,168.35L52.95,179.55L57,192.2L57,192.5C62.933,209.933 65.617,227.567 65.05,245.4L41.45,271.6C37.417,241.5 28.6,212.633 15,185L6.35,168.35M65.9,182.7L84.3,187.3L87.5,192.8C91.7,200.267 92.467,208.217 89.8,216.65L76.25,231.9C75.483,217.533 72.7,203.15 67.9,188.75L65.9,182.7M160.25,119.45L170.9,124.3L149.05,149.35C139.05,145.117 131.083,138.783 125.15,130.35L125.15,92.1C134.95,103.433 146.55,112.55 159.95,119.45L160.25,119.45M85.15,106.5C96.683,106.3 106.183,102.167 113.65,94.1L113.65,130.65L112.5,133.55C110.2,138.517 106.467,140.617 101.3,139.85L85.15,106.5M91.8,146.45C92,148.95 92.483,151.55 93.25,154.25L93.25,154.55C95.35,163.55 93.233,170.733 86.9,176.1L67.35,171.2C76.35,157.967 81.433,143.5 82.6,127.8L91.8,146.45M113.65,149.65L113.65,165.75L107.05,151.95C109.35,151.55 111.55,150.783 113.65,149.65M99.85,179C101.583,176.667 102.917,174.267 103.85,171.8L108.45,181.3L99.85,179M110.2,193.35L102.7,202C102.133,198.167 100.983,194.417 99.25,190.75L110.2,193.35M149.9,191.65L131.2,187.05L144.45,172.05C145.017,178.583 146.833,185.117 149.9,191.65M125.15,176.4L125.15,147.9C129.75,152.133 135.033,155.683 141,158.55L125.15,176.4M132.35,231.9L153.65,275.9C146.917,275.133 140.2,275.617 133.5,277.35L133.2,277.35L125.15,279.65L125.15,231.9L127.75,229.3L132.35,231.9M143.85,226.15L143.85,225.85C148.083,217.417 154.217,211 162.25,206.6L191.05,213.5C177.417,229.033 167.717,246.867 161.95,267L143,227.6C143.2,227 143.483,226.517 143.85,226.15M136.95,214.95L129.2,198.25L147.6,202.85C143.567,206.317 140.017,210.35 136.95,214.95M113.65,217.8C111.35,216.467 108.95,215.517 106.45,214.95L113.65,206.6L113.65,217.8M98.4,224.7C103.967,225.667 109.05,228.067 113.65,231.9L113.65,265.55C105.583,255.383 94.75,248.2 81.15,244L97.85,224.7L98.4,224.7M136.1,288.55C143.967,286.65 151.817,286.65 159.65,288.55L181.55,334.3C165.417,330.667 149.783,332.867 134.65,340.9C134.45,340.9 134.35,341 134.35,341.2C131.283,342.533 128.217,344.067 125.15,345.8L125.15,291.75L136.35,288.3L136.1,288.55M77.1,254.6C94.933,260.367 107.117,271.783 113.65,288.85L113.65,337.2C96.983,315.7 76.183,298.533 51.25,285.7L46.65,283.4L72.5,253.75L77.1,254.6M239.05,225.3C222.95,251.367 209.633,278.783 199.1,307.55L199.35,307.55L191.6,328.85L169.75,283.1C170.517,280.033 171.383,276.867 172.35,273.6C177.883,251.733 188.417,232.65 203.95,216.35L239.05,225.3" style="fill:none;fill-rule:nonzero;stroke:#000;stroke-opacity:0.3;stroke-width:0.05px;"/>
                    <path d="M142.6,194.5C145.367,193.767 147.75,192.983 149.75,192.15C160.25,189.317 168.967,183 175.9,173.2C189.2,154.8 197.133,124.6 199.7,82.6C203.667,98.8 207.933,113.95 212.5,128.05C220.433,154.583 228.367,176.2 236.3,192.9C215.467,191.8 202.483,209.467 197.35,245.9C196.35,252.533 195.65,259.75 195.25,267.55C186.517,246.817 177.983,233.083 169.65,226.35C169.083,226.083 168.6,225.933 168.2,225.9C162.033,221.833 155.483,221.65 148.55,225.35C148.55,215.55 146.767,205.95 143.2,196.55C142.8,195.85 142.6,195.167 142.6,194.5M-10.6,102.3C-0.467,91.4 10.35,75.867 21.85,55.7C27.383,45.7 33.133,34.533 39.1,22.2C33.933,86.767 44.733,133.167 71.5,161.4C74.067,163.867 76.55,166.017 78.95,167.85C78.55,168.683 78.05,169.283 77.45,169.65C73.083,176.717 70.117,184.517 68.55,193.05C62.383,184.65 55.833,180.45 48.9,180.45C39.967,179.983 29.85,186.9 18.55,201.2L19.75,179.75C19.15,141.483 9.033,115.667 -10.6,102.3" style="fill:#2c2727;"/>
                    <path d="M236.3,192.9C243.233,207.5 249.983,217.717 256.55,223.55C222.617,207.083 202.183,222.633 195.25,270.2C194.45,277.5 193.75,285.033 193.15,292.8C184.817,271.7 176.4,257.883 167.9,251.35C166.7,250.083 165.5,249.5 164.3,249.6C158.367,246.433 152.617,246.7 147.05,250.4C148.05,246.567 148.65,242.7 148.85,238.8L148.85,237.5C149.25,233.2 149.15,229.15 148.55,225.35C155.483,221.65 162.033,221.833 168.2,225.9C168.6,225.933 169.083,226.083 169.65,226.35C177.983,233.083 186.517,246.817 195.25,267.55C195.65,259.75 196.35,252.533 197.35,245.9C202.483,209.467 215.467,191.8 236.3,192.9M68.55,193.05C67.95,196.917 67.45,201.1 67.05,205.6L66.75,206.6C66.55,210.7 66.55,214.4 66.75,217.7C60.417,209.267 53.867,205.067 47.1,205.1C37.8,204.567 27.6,211.567 16.5,226.1C17.267,218.567 17.65,211.417 17.65,204.65C17.45,154.05 0.2,125.05 -34.1,117.65C-26.767,116.417 -18.933,111.3 -10.6,102.3C9.033,115.667 19.15,141.483 19.75,179.75L18.55,201.2C29.85,186.9 39.967,179.983 48.9,180.45C55.833,180.45 62.383,184.65 68.55,193.05" style="fill:#1b1716;"/>
                    <path d="M142.6,194.5C145.367,193.767 147.75,192.983 149.75,192.15C160.25,189.317 168.967,183 175.9,173.2C189.2,154.8 197.133,124.6 199.7,82.6C203.667,98.8 207.933,113.95 212.5,128.05C220.433,154.583 228.367,176.2 236.3,192.9C243.233,207.5 249.983,217.717 256.55,223.55C222.617,207.083 202.183,222.633 195.25,270.2C194.45,277.5 193.75,285.033 193.15,292.8C184.817,271.7 176.4,257.883 167.9,251.35C166.7,250.083 165.5,249.5 164.3,249.6C158.367,246.433 152.617,246.7 147.05,250.4M-10.6,102.3C-0.467,91.4 10.35,75.867 21.85,55.7C27.383,45.7 33.133,34.533 39.1,22.2C33.933,86.767 44.733,133.167 71.5,161.4C74.067,163.867 76.55,166.017 78.95,167.85M68.55,193.05C67.95,196.917 67.45,201.1 67.05,205.6L66.75,206.6C66.55,210.7 66.55,214.4 66.75,217.7C60.417,209.267 53.867,205.067 47.1,205.1C37.8,204.567 27.6,211.567 16.5,226.1C17.267,218.567 17.65,211.417 17.65,204.65C17.45,154.05 0.2,125.05 -34.1,117.65C-26.767,116.417 -18.933,111.3 -10.6,102.3" style="fill:none;fill-rule:nonzero;stroke:#000;stroke-opacity:0.3;stroke-width:0.05px;"/>
                    <path d="M73.05,149.75C72.583,141.95 73.5,134.567 75.8,127.6C76.9,123.133 78.417,118.8 80.35,114.6L90.6,145.95C88.967,145.617 87.467,145.85 86.1,146.65C81.467,147.05 77.117,148.083 73.05,149.75C77.117,148.083 81.467,147.05 86.1,146.65C87.467,145.85 88.967,145.617 90.6,145.95C95.2,145.85 99.9,146.617 104.7,148.25L111.25,150.45C113.983,151.583 116.517,152.783 118.85,154.05L133.2,129.7L136.5,144.95C137.733,153.317 137.817,161.067 136.75,168.2C138.883,170.733 141.15,173.65 143.55,176.95L149.05,186.1C148.95,186.733 149.283,187.35 150.05,187.95C154.183,196.283 156.433,204.8 156.8,213.5C156.3,216.9 155.367,220.317 154,223.75C150.9,230.383 146.283,235.917 140.15,240.35C137.75,242.35 135.183,244.1 132.45,245.6C128.45,247.267 124.3,248.55 120,249.45C114.1,249.65 107.75,248.717 100.95,246.65L99.75,246.6L98.55,246.1L89.1,242.25C82.067,239.083 75.317,234.033 68.85,227.1C66.35,224.133 63.9,221 61.5,217.7C56.767,210.2 52.95,202.233 50.05,193.8L48.15,181.65C49.717,174.017 52.85,167.2 57.55,161.2L59,159.8C60.633,157.5 62.6,155.667 64.9,154.3C67.3,152.3 70.017,150.783 73.05,149.75M136.75,168.2C132.783,164 128.9,160.617 125.1,158.05L123.4,156.85L118.85,154.05L123.4,156.85L125.1,158.05C128.9,160.617 132.783,164 136.75,168.2" style="fill:#2c2727;"/>
                    <path d="M156.8,213.5C157.567,216.8 157.867,220.367 157.7,224.2L157.55,225.15C157.417,228.717 156.9,232.133 156,235.4C155.433,239.133 154.467,242.7 153.1,246.1C149.6,252.6 145.017,257.983 139.35,262.25C136.983,264.25 134.417,266 131.65,267.5C127.617,269.2 123.267,270.4 118.6,271.1C113.033,271.833 106.85,271.133 100.05,269L98.85,269L97.65,268.55L88.2,264.7C80.833,261 74.1,255.783 68,249.05L60.65,239.6C55.517,232.233 51.7,224.417 49.2,216.15C48.533,212.25 47.917,208.05 47.35,203.55C46.983,200.417 46.867,197.05 47,193.45L47.1,192.55C47.267,188.683 47.617,185.05 48.15,181.65L50.05,193.8C52.95,202.233 56.767,210.2 61.5,217.7C63.9,221 66.35,224.133 68.85,227.1C75.317,234.033 82.067,239.083 89.1,242.25L98.55,246.1L99.75,246.6L100.95,246.65C107.75,248.717 114.1,249.65 120,249.45C124.3,248.55 128.45,247.267 132.45,245.6C135.183,244.1 137.75,242.35 140.15,240.35C146.283,235.917 150.9,230.383 154,223.75C155.367,220.317 156.3,216.9 156.8,213.5" style="fill:#1b1716;"/>
                    <path d="M90.6,145.95L80.35,114.6C78.417,118.8 76.9,123.133 75.8,127.6C73.5,134.567 72.583,141.95 73.05,149.75C77.117,148.083 81.467,147.05 86.1,146.65C87.467,145.85 88.967,145.617 90.6,145.95C95.2,145.85 99.9,146.617 104.7,148.25L111.25,150.45C113.983,151.583 116.517,152.783 118.85,154.05L133.2,129.7L136.5,144.95C137.733,153.317 137.817,161.067 136.75,168.2C138.883,170.733 141.15,173.65 143.55,176.95L149.05,186.1C148.95,186.733 149.283,187.35 150.05,187.95C154.183,196.283 156.433,204.8 156.8,213.5C157.567,216.8 157.867,220.367 157.7,224.2L157.55,225.15C157.417,228.717 156.9,232.133 156,235.4C155.433,239.133 154.467,242.7 153.1,246.1C149.6,252.6 145.017,257.983 139.35,262.25C136.983,264.25 134.417,266 131.65,267.5C127.617,269.2 123.267,270.4 118.6,271.1C113.033,271.833 106.85,271.133 100.05,269L98.85,269L97.65,268.55L88.2,264.7C80.833,261 74.1,255.783 68,249.05L60.65,239.6C55.517,232.233 51.7,224.417 49.2,216.15C48.533,212.25 47.917,208.05 47.35,203.55C46.983,200.417 46.867,197.05 47,193.45L47.1,192.55C47.267,188.683 47.617,185.05 48.15,181.65C49.717,174.017 52.85,167.2 57.55,161.2L59,159.8C60.633,157.5 62.6,155.667 64.9,154.3C67.3,152.3 70.017,150.783 73.05,149.75M118.85,154.05L123.4,156.85L125.1,158.05C128.9,160.617 132.783,164 136.75,168.2" style="fill:none;fill-rule:nonzero;stroke:#000;stroke-opacity:0.3;stroke-width:0.05px;"/>
                </g>
            </g>
        </g>
    </g>
</svg>
