<?xml version="1.0" encoding="UTF-8" standalone="no"?>
<!DOCTYPE svg PUBLIC "-//W3C//DTD SVG 1.1//EN" "http://www.w3.org/Graphics/SVG/1.1/DTD/svg11.dtd">
<svg width="100%" height="100%" viewBox="0 0 36 48" version="1.1" xmlns="http://www.w3.org/2000/svg" xmlns:xlink="http://www.w3.org/1999/xlink" xml:space="preserve" xmlns:serif="http://www.serif.com/" style="fill-rule:evenodd;clip-rule:evenodd;stroke-linecap:round;stroke-linejoin:round;">
    <g transform="matrix(1,0,0,1,18.3591,24.5977)">
        <g>
            <g id="sprite0" transform="matrix(-1.006,0,0,1,17.05,-22.85)">
                <g id="shape0">
                    <path d="M20.15,16L19.65,18.65L21.8,29.7C19.5,31 17.083,31.933 14.55,32.5L10.1,32.8L15.6,30.4C17.733,28.7 18.817,27.75 18.85,27.55C18.783,26.75 18.483,25.933 17.95,25.1L17.85,25.05L13.3,22.1L17.9,20.35L17.35,20.05L14.2,18.5L14.1,18.5L10.7,16.5L12.05,17L12.85,14.85L13.75,12.8L14.6,10.8L16.2,10.8L16.7,13.9L16.95,15.55L17.25,17.2L18.05,16.9L19.65,16.35L20.15,16M16.7,13.9L14.85,13.9L13.75,12.8L14.85,13.9L16.7,13.9M12.85,14.85L14.85,13.9L16.95,15.55L14.85,13.9L12.85,14.85M17.25,17.2L14.2,18.5L17.25,17.2" style="fill:#462c02;"/>
                    <path d="M1.35,29.65C2.017,27.817 3.2,26.3 4.9,25.1C5.267,23.833 5.867,22.6 6.7,21.4C7.033,20.733 7.467,20.1 8,19.5L8.35,18.55L8.9,15.85L9.3,16.1L10.7,16.5L14.1,18.5L14.2,18.5L12.35,19.2L14.2,18.5L17.35,20.05L17.9,20.35L13.3,22.1L8.2,24.4L13.3,22.1L13.05,21.95L13.3,22.1L17.85,25.05C15.617,23.983 12.4,23.767 8.2,24.4L6.9,24.65L13.05,21.95L6.9,24.65L6.85,25.05C12.783,24.983 15.7,26.767 15.6,30.4L10.1,32.8L6.7,33.05C3.8,32.383 2.017,31.25 1.35,29.65M12.35,19.2L14.1,18.5L12.35,19.2L9.9,20.3L12.35,19.2M13.05,21.95L17.35,20.05L13.05,21.95L9.9,20.3L13.05,21.95" style="fill:#80513c;"/>
                    <path d="M6.9,24.65L8.2,24.4C12.4,23.767 15.617,23.983 17.85,25.05L17.95,25.1C18.483,25.933 18.783,26.75 18.85,27.55C18.817,27.75 17.733,28.7 15.6,30.4C15.7,26.767 12.783,24.983 6.85,25.05L6.9,24.65" style="fill:#9b7564;"/>
                    <path d="M21.8,29.7L21.7,30.55L21.5,31.35L20.65,33.2C16.617,35.467 12.267,36.6 7.6,36.6L5.5,36.55C2.567,35.883 0.767,34.75 0.1,33.15L0,32.35L0.05,31.8C0.183,31.067 0.617,30.35 1.35,29.65C2.017,31.25 3.8,32.383 6.7,33.05L10.1,32.8L14.55,32.5C17.083,31.933 19.5,31 21.8,29.7" style="fill:#481f07;"/>
                    <path d="M26.2,6.3L26.15,6.6C25.917,6.667 25.267,7.017 24.2,7.65L19.3,9.8L19.65,16.35L18.05,16.9L17.75,9.15L26.2,6.3M7.95,9.15C7.417,9.017 6.85,8.7 6.25,8.2L6.35,7.6C8.583,8.433 11.117,9.05 13.95,9.45L10.7,16.5L9.3,16.1L11.5,10.35C10.333,10.083 9.15,9.683 7.95,9.15M21.1,1.3L22.15,2.2C18.283,4.167 13.933,5.133 9.1,5.1C9.667,3.967 10.55,2.883 11.75,1.85C14.517,1.083 17.633,0.9 21.1,1.3" style="fill:#8f9cad;"/>
                    <path d="M6.75,5.85L6.7,5.8C7.367,4.133 8.533,2.517 10.2,0.95C13.367,0.283 16.5,-0.033 19.6,0L22.75,0.15C24.683,1.417 25.9,3.067 26.4,5.1C22.933,6.6 19.433,7.667 15.9,8.3C12.467,8.333 9.533,7.867 7.1,6.9L6.75,5.85M22.15,2.2L21.1,1.3C17.633,0.9 14.517,1.083 11.75,1.85C10.55,2.883 9.667,3.967 9.1,5.1L8.6,6.1C10.933,6.8 13.6,7 16.6,6.7C19.267,6.367 21.833,5.65 24.3,4.55C23.733,3.717 23.017,2.933 22.15,2.2" style="fill:#babfbd;"/>
                    <path d="M9.1,5.1C13.933,5.133 18.283,4.167 22.15,2.2C23.017,2.933 23.733,3.717 24.3,4.55C21.833,5.65 19.267,6.367 16.6,6.7C13.6,7 10.933,6.8 8.6,6.1L9.1,5.1" style="fill:#435d70;"/>
                    <path d="M26.4,5.1L26.2,6.3L17.75,9.15L18.05,16.9L17.25,17.2L16.95,15.55L16.7,13.9L16.2,10.8L14.6,10.8L13.75,12.8L12.85,14.85L12.05,17L10.7,16.5L13.95,9.45C11.117,9.05 8.583,8.433 6.35,7.6L6.75,5.85L7.1,6.9C9.533,7.867 12.467,8.333 15.9,8.3C19.433,7.667 22.933,6.6 26.4,5.1M23.95,8.85L23.15,13.35L21.2,15.3L21.3,11.25L23.95,8.85M8.1,15.55L8.05,15.5L7.75,15.35C7.083,14.917 6.817,14.45 6.95,13.95L7.75,9.85L9.85,11.1L8.1,15.55" style="fill:#4c6a7f;"/>
                    <path d="M24.2,7.65L23.95,8.85L21.3,11.25L21.2,15.3L20.55,15.7L20.15,16L19.65,16.35L19.3,9.8L24.2,7.65M8.9,15.85L8.1,15.55L9.85,11.1L7.75,9.85L7.95,9.15C9.15,9.683 10.333,10.083 11.5,10.35L9.3,16.1L8.9,15.85" style="fill:#374c5b;"/>
                    <path d="M20.15,16L19.65,18.65L21.8,29.7L21.7,30.55L21.5,31.35L20.65,33.2C16.617,35.467 12.267,36.6 7.6,36.6L5.5,36.55C2.567,35.883 0.767,34.75 0.1,33.15L0,32.35L0.05,31.8C0.183,31.067 0.617,30.35 1.35,29.65C2.017,27.817 3.2,26.3 4.9,25.1C5.267,23.833 5.867,22.6 6.7,21.4C7.033,20.733 7.467,20.1 8,19.5L8.35,18.55L8.9,15.85M8.2,24.4L13.3,22.1L13.05,21.95L9.9,20.3M17.95,25.1L17.85,25.05L13.3,22.1L17.9,20.35L17.35,20.05L14.2,18.5L14.1,18.5L10.7,16.5M12.35,19.2L14.2,18.5L17.25,17.2M16.95,15.55L14.85,13.9L12.85,14.85M13.75,12.8L14.85,13.9L16.7,13.9M1.35,29.65C2.017,31.25 3.8,32.383 6.7,33.05L10.1,32.8L14.55,32.5C17.083,31.933 19.5,31 21.8,29.7" style="fill:none;fill-rule:nonzero;stroke:#391c0b;stroke-width:0.1px;"/>
                    <path d="M13.05,21.95L6.9,24.65M14.1,18.5L12.35,19.2L9.9,20.3M17.35,20.05L13.05,21.95" style="fill:none;fill-rule:nonzero;stroke:#9b7564;stroke-width:0.5px;"/>
                    <path d="M26.4,5.1L26.15,6.6C25.917,6.667 25.267,7.017 24.2,7.65L23.95,8.85L23.15,13.35L21.2,15.3L20.55,15.7L20.15,16L19.65,16.35L18.05,16.9L17.25,17.2L16.95,15.55L16.7,13.9L16.2,10.8L14.6,10.8L13.75,12.8L12.85,14.85L12.05,17L10.7,16.5L9.3,16.1L11.5,10.35C10.333,10.083 9.15,9.683 7.95,9.15C7.417,9.017 6.85,8.7 6.25,8.2L6.35,7.6L6.75,5.85L6.7,5.8C7.367,4.133 8.533,2.517 10.2,0.95C13.367,0.283 16.5,-0.033 19.6,0L22.75,0.15C24.683,1.417 25.9,3.067 26.4,5.1C22.933,6.6 19.433,7.667 15.9,8.3C12.467,8.333 9.533,7.867 7.1,6.9L6.75,5.85M8.9,15.85L8.1,15.55L8.05,15.5L7.75,15.35C7.083,14.917 6.817,14.45 6.95,13.95L7.75,9.85L7.95,9.15M22.15,2.2L21.1,1.3M22.15,2.2C23.017,2.933 23.733,3.717 24.3,4.55C21.833,5.65 19.267,6.367 16.6,6.7C13.6,7 10.933,6.8 8.6,6.1L9.1,5.1M8.9,15.85L9.3,16.1M24.2,7.65L19.3,9.8L19.65,16.35" style="fill:none;fill-rule:nonzero;stroke:#374c5b;stroke-width:0.1px;"/>
                </g>
            </g>
            <g id="shape1" transform="matrix(1.1883,0,0,1.1883,0.000135,0.00011)">
                <path d="M-13.3,-11.05C-11.3,-10.117 -9.067,-9.45 -6.6,-9.05L-8.1,-1.5L-9.3,-1.95L-8.45,-8.05C-9.483,-8.317 -10.567,-8.75 -11.7,-9.35C-12.133,-9.45 -12.667,-9.8 -13.3,-10.4L-13.3,-11.05M-1.95,-1.1L-3.5,-9.35C-1.233,-10.25 1,-11.283 3.2,-12.45L3.2,-12.05L1.7,-11L-2.05,-8.6L-0.7,-1.75L-1.95,-1.1M-0.85,-16.9C-2.65,-15.967 -4.633,-15.267 -6.8,-14.8L-8.25,-14.8L-9.2,-17.4C-7.067,-18.1 -4.617,-18.25 -1.85,-17.85L-0.85,-16.9" style="fill:#b3c4d9;"/>
                <path d="M1.7,-11L1.7,-9.6L-0.15,-7.1L0.45,-2.8L-0.1,-2.3L-0.4,-2.05L-0.7,-1.75L-2.05,-8.6L1.7,-11M-9.75,-2.2L-10.4,-2.5L-9.75,-7.2L-11.7,-8.55L-11.7,-9.35C-10.567,-8.75 -9.483,-8.317 -8.45,-8.05L-9.3,-1.95L-9.75,-2.2" style="fill:#455f72;"/>
                <path d="M3.2,-13.75L3.2,-12.45C1,-11.283 -1.233,-10.25 -3.5,-9.35L-1.95,-1.1L-2.6,-0.8L-3.05,-2.5L-3.55,-4.2L-4.5,-7.6L-5.85,-7.6L-6.2,-5.45L-6.55,-3.2L-6.95,-1L-8.1,-1.5L-6.6,-9.05C-9.067,-9.45 -11.3,-10.117 -13.3,-11.05L-13.3,-12.9L-12.75,-11.75C-10.583,-10.683 -8.033,-10.183 -5.1,-10.25C-2.267,-10.95 0.5,-12.117 3.2,-13.75M1.7,-9.6L1.7,-4.85L0.45,-2.8L-0.15,-7.1L1.7,-9.6M-10.4,-2.5L-10.45,-2.55L-10.8,-2.75C-11.4,-3.183 -11.7,-3.65 -11.7,-4.15L-11.7,-8.55L-9.75,-7.2L-10.4,-2.5" style="fill:#60859f;"/>
                <path d="M3.15,12.2L3.15,13.9L2.7,15.75C-0.633,18.417 -4.567,19.55 -9.1,19.15C-11.567,18.517 -13.217,17.383 -14.05,15.75C-14.55,14.55 -14.417,13.35 -13.65,12.15C-12.783,13.817 -11.117,14.983 -8.65,15.65L-5.9,15.4L-2.35,15.05C-0.35,14.483 1.483,13.533 3.15,12.2" style="fill:#5b2709;"/>
                <path d="M3.2,-13.75C0.5,-12.117 -2.267,-10.95 -5.1,-10.25C-8.033,-10.183 -10.583,-10.683 -12.75,-11.75L-13.3,-12.9L-13.3,-12.95C-12.967,-14.717 -12.25,-16.483 -11.15,-18.25C-7.683,-19.117 -4.217,-19.4 -0.75,-19.1C1.15,-17.633 2.467,-15.85 3.2,-13.75M-9.2,-17.4L-9.7,-17.25C-10.5,-16.083 -11.083,-14.9 -11.45,-13.7C-10.65,-13 -9.633,-12.567 -8.4,-12.4L-5.7,-12.35C-3.233,-12.617 -0.9,-13.25 1.3,-14.25L-0.85,-16.9L-1.85,-17.85C-4.617,-18.25 -7.067,-18.1 -9.2,-17.4" style="fill:#e9efed;"/>
                <path d="M-9.2,-17.4L-8.25,-14.8L-6.8,-14.8C-4.633,-15.267 -2.65,-15.967 -0.85,-16.9L1.3,-14.25C-0.9,-13.25 -3.233,-12.617 -5.7,-12.35L-8.4,-12.4C-9.633,-12.567 -10.65,-13 -11.45,-13.7C-11.083,-14.9 -10.5,-16.083 -9.7,-17.25L-9.2,-17.4" style="fill:#54758c;"/>
                <path d="M-13.65,12.15C-13.35,10.283 -12.633,8.717 -11.5,7.45L-10.65,3.65L-9.9,1.65L-9.75,0.6L-9.75,-2.2L-9.3,-1.95L-8.1,-1.5L-4.95,0.55L-4.9,0.55L-2.05,2.25L-1.55,2.5L-5.05,4.35L-5.3,4.2L-5.05,4.35L-0.8,7.4L-0.7,7.45L-0.8,7.45C-2.8,6.383 -5.5,6.167 -8.9,6.8L-9.9,7L-5.3,4.2L-9.9,7L-9.9,7.4C-5.033,7.367 -2.35,9.2 -1.85,12.9L-5.9,15.4L-8.65,15.65C-11.117,14.983 -12.783,13.817 -13.65,12.15M-5.3,4.2L-2.05,2.25L-5.3,4.2L-8.15,2.45L-5.3,4.2M-5.85,1.1L-4.9,0.55L-5.85,1.1L-8.15,2.45L-5.85,1.1L-4.95,0.55L-5.85,1.1M-5.05,4.35L-8.9,6.8L-5.05,4.35" style="fill:#a1664c;"/>
                <path d="M-8.1,-1.5L-6.95,-1L-6.55,-3.2L-6.2,-5.45L-5.85,-7.6L-4.5,-7.6L-3.55,-4.2L-3.05,-2.5L-2.6,-0.8L-1.95,-1.1L-0.7,-1.75L-0.4,-2.05L-0.4,0.7L3.15,12.2C1.483,13.533 -0.35,14.483 -2.35,15.05L-5.9,15.4L-1.85,12.9C-0.35,11.2 0.383,10.233 0.35,10C0.217,9.167 -0.133,8.317 -0.7,7.45L-0.8,7.4L-5.05,4.35L-1.55,2.5L-2.05,2.25L-4.9,0.55L-4.95,0.55L-8.1,-1.5M-6.55,-3.2L-5.1,-4.2L-3.05,-2.5L-5.1,-4.2L-6.55,-3.2M-3.55,-4.2L-5.1,-4.2L-6.2,-5.45L-5.1,-4.2L-3.55,-4.2M-2.6,-0.8L-4.9,0.55L-2.6,-0.8" style="fill:#583803;"/>
                <path d="M-0.7,7.45C-0.133,8.317 0.217,9.167 0.35,10C0.383,10.233 -0.35,11.2 -1.85,12.9C-2.35,9.2 -5.033,7.367 -9.9,7.4L-9.9,7L-8.9,6.8C-5.5,6.167 -2.8,6.383 -0.8,7.45L-0.7,7.45" style="fill:#c2937e;"/>
                <path d="M3.2,-12.45L3.2,-13.75C0.5,-12.117 -2.267,-10.95 -5.1,-10.25C-8.033,-10.183 -10.583,-10.683 -12.75,-11.75L-13.3,-12.9L-13.3,-10.4C-12.667,-9.8 -12.133,-9.45 -11.7,-9.35L-11.7,-4.15C-11.7,-3.65 -11.4,-3.183 -10.8,-2.75L-10.45,-2.55L-10.4,-2.5L-9.75,-2.2L-9.3,-1.95L-8.45,-8.05C-9.483,-8.317 -10.567,-8.75 -11.7,-9.35M-8.1,-1.5L-6.95,-1L-6.55,-3.2L-6.2,-5.45L-5.85,-7.6L-4.5,-7.6L-3.55,-4.2L-3.05,-2.5L-2.6,-0.8L-1.95,-1.1L-0.7,-1.75L-2.05,-8.6L1.7,-11L1.7,-4.85L0.45,-2.8L-0.1,-2.3L-0.4,-2.05L-0.7,-1.75M3.2,-12.45L3.2,-12.05L1.7,-11M-11.45,-13.7C-10.65,-13 -9.633,-12.567 -8.4,-12.4L-5.7,-12.35C-3.233,-12.617 -0.9,-13.25 1.3,-14.25L-0.85,-16.9L-1.85,-17.85M3.2,-13.75C2.467,-15.85 1.15,-17.633 -0.75,-19.1C-4.217,-19.4 -7.683,-19.117 -11.15,-18.25C-12.25,-16.483 -12.967,-14.717 -13.3,-12.95M-9.3,-1.95L-8.1,-1.5" style="fill:none;fill-rule:nonzero;stroke:#455f72;stroke-width:0.1px;"/>
                <path d="M-0.4,-2.05L-0.4,0.7L3.15,12.2L3.15,13.9L2.7,15.75C-0.633,18.417 -4.567,19.55 -9.1,19.15C-11.567,18.517 -13.217,17.383 -14.05,15.75C-14.55,14.55 -14.417,13.35 -13.65,12.15C-13.35,10.283 -12.633,8.717 -11.5,7.45L-10.65,3.65L-9.9,1.65L-9.75,0.6L-9.75,-2.2M-13.3,-12.95L-13.3,-12.9M-8.1,-1.5L-4.95,0.55L-4.9,0.55L-2.6,-0.8M-6.2,-5.45L-5.1,-4.2L-3.55,-4.2M-3.05,-2.5L-5.1,-4.2L-6.55,-3.2M-5.05,4.35L-1.55,2.5L-2.05,2.25L-4.9,0.55L-5.85,1.1M-5.3,4.2L-5.05,4.35L-0.8,7.4L-0.7,7.45M-5.9,15.4L-2.35,15.05C-0.35,14.483 1.483,13.533 3.15,12.2M-8.15,2.45L-5.3,4.2M-8.9,6.8L-5.05,4.35M-13.65,12.15C-12.783,13.817 -11.117,14.983 -8.65,15.65L-5.9,15.4" style="fill:none;fill-rule:nonzero;stroke:#48230e;stroke-width:0.1px;"/>
                <path d="M-2.05,2.25L-5.3,4.2L-9.9,7M-5.85,1.1L-8.15,2.45M-4.95,0.55L-5.85,1.1" style="fill:none;fill-rule:nonzero;stroke:#c2937e;stroke-width:0.5px;"/>
                <path d="M3.75,-17.35L5.95,-16.9L7.75,-18.5L7.25,-16.35L8.8,-14.65L6.4,-15L4.7,-13.6L5.15,-15.8L3.75,-17.35M-12.35,-20.7L-11.5,-18.25L-9.15,-17.45L-11.3,-16.7L-12.1,-14.35L-12.95,-16.6L-15.45,-17.6L-13.05,-18.4L-12.35,-20.7M-4.85,-3.75L-3.05,-6L-3.5,-9.1L-1.3,-7.1L1.5,-7.7L-0.55,-5.45L0,-2.6L-2,-4.35L-4.85,-3.75" style="fill:#fff;"/>
            </g>
        </g>
    </g>
</svg>
