<?xml version="1.0" encoding="UTF-8" standalone="no"?>
<!DOCTYPE svg PUBLIC "-//W3C//DTD SVG 1.1//EN" "http://www.w3.org/Graphics/SVG/1.1/DTD/svg11.dtd">
<svg width="100%" height="100%" viewBox="0 0 15 18" version="1.1" xmlns="http://www.w3.org/2000/svg" xmlns:xlink="http://www.w3.org/1999/xlink" xml:space="preserve" xmlns:serif="http://www.serif.com/" style="fill-rule:evenodd;clip-rule:evenodd;stroke-linecap:round;stroke-linejoin:round;">
    <g transform="matrix(1,0,0,1,0.00135135,0)">
        <g transform="matrix(1,0,0,1,7.3,8.6)">
            <g id="sprite0">
                <g id="sprite1">
                    <g id="shape0">
                        <path d="M0.65,-7.85C2.383,-7.35 3.85,-6.167 5.05,-4.3C6.25,-2.467 6.833,-0.5 6.8,1.6C6.767,3.7 6.133,5.3 4.9,6.4C4.367,6.867 3.8,7.2 3.2,7.4C2.533,7.833 1.8,8.067 1,8.1L-0.65,7.85C-2.417,7.35 -3.883,6.167 -5.05,4.3C-6.25,2.467 -6.833,0.5 -6.8,-1.6C-6.767,-3.7 -6.133,-5.317 -4.9,-6.45L-3.25,-7.4C-2.583,-7.833 -1.85,-8.067 -1.05,-8.1L0.65,-7.85M4.95,1.3C4.85,-0.3 4.333,-1.833 3.4,-3.3L3.9,-2.4C4.133,-0.967 4.15,0.2 3.95,1.1L3.9,1.25C3.7,2.05 3.3,2.617 2.7,2.95L3.55,2.95L4.2,1.2L4.85,0.7L4.95,1.3M1.2,7.1C1.767,7.033 2.283,6.833 2.75,6.5L3.25,6.15C4.017,5.45 4.533,4.533 4.8,3.4C4.3,4.267 3.5,5.15 2.4,6.05L2.4,5.9L1.4,6.8C1.467,4.867 0.833,3.683 -0.5,3.25L-1.55,3.35L-2,4.6L-2.55,5C-1.683,5.967 -0.7,6.617 0.4,6.95L1.2,7.1M-0.45,-6.4L-1.3,-6.6L-1.85,-6.45C-2.383,-6.283 -2.867,-6 -3.3,-5.6C-4.4,-4.633 -4.967,-3.217 -5,-1.35L-5,-1.05L-4.85,-1.3L-3.85,-2.05L-3.8,-1.9L-3.45,-1.1L-3.5,-3L-2.5,-3.75C-2.3,-2.55 -1.6,-2.183 -0.4,-2.65C0.2,-3.55 0.167,-4.733 -0.5,-6.2L-0.3,-6.35L-0.45,-6.4" style="fill:#280a02;"/>
                        <path d="M0.65,-7.85L-1.05,-8.1C-1.85,-8.067 -2.583,-7.833 -3.25,-7.4L-4.9,-6.45C-6.133,-5.317 -6.767,-3.7 -6.8,-1.6C-6.833,0.5 -6.25,2.467 -5.05,4.3C-3.883,6.167 -2.417,7.35 -0.65,7.85L1,8.1C1.8,8.067 2.533,7.833 3.2,7.4C3.8,7.2 4.367,6.867 4.9,6.4C6.133,5.3 6.767,3.7 6.8,1.6C6.833,-0.5 6.25,-2.467 5.05,-4.3C3.85,-6.167 2.383,-7.35 0.65,-7.85M4.95,1.3C4.85,-0.3 4.333,-1.833 3.4,-3.3L3.9,-2.4C4.133,-0.967 4.15,0.2 3.95,1.1L3.9,1.25C3.7,2.05 3.3,2.617 2.7,2.95L3.55,2.95L4.2,1.2L4.85,0.7L4.95,1.3M1.2,7.1L0.4,6.95C-0.7,6.617 -1.683,5.967 -2.55,5L-2,4.6L-1.55,3.35L-0.5,3.25C0.833,3.683 1.467,4.867 1.4,6.8L2.4,5.9L2.4,6.05C3.5,5.15 4.3,4.267 4.8,3.4C4.533,4.533 4.017,5.45 3.25,6.15L2.75,6.5C2.283,6.833 1.767,7.033 1.2,7.1M-0.45,-6.4L-1.3,-6.6L-1.85,-6.45C-2.383,-6.283 -2.867,-6 -3.3,-5.6C-4.4,-4.633 -4.967,-3.217 -5,-1.35L-5,-1.05L-4.85,-1.3L-3.85,-2.05L-3.8,-1.9L-3.45,-1.1L-3.5,-3L-2.5,-3.75C-2.3,-2.55 -1.6,-2.183 -0.4,-2.65C0.2,-3.55 0.167,-4.733 -0.5,-6.2L-0.3,-6.35L-0.45,-6.4" style="fill:none;fill-rule:nonzero;stroke:#280a02;stroke-width:1px;"/>
                    </g>
                </g>
                <g id="sprite2" transform="matrix(0.0498,0,0,0.0497,-6.80004,-10.5516)">
                    <g id="shape1">
                        <path d="M200.75,361.25C204.683,358.55 208.517,355.5 212.25,352.1C221.817,343.433 229.633,333.367 235.7,321.9C245.367,303.433 250.433,281.217 250.9,255.25C251.467,212.917 239.7,173.2 215.6,136.1C209.867,127.067 203.8,118.9 197.4,111.6C177.233,88.3 153.983,72.717 127.65,64.85C115.717,61.15 104.4,59.517 93.7,59.95C85.967,60.083 78.55,61.267 71.45,63.5C84.95,54.4 99.75,49.667 115.85,49.3C126.55,48.867 137.85,50.5 149.75,54.2C184.417,64.567 213.733,88.317 237.7,125.45C261.8,162.583 273.567,202.3 273,244.6C272.2,286.8 259.317,319.1 234.35,341.5C223.983,350.833 212.783,357.417 200.75,361.25" style="fill:#fde748;"/>
                        <path d="M71.45,63.5C78.55,61.267 85.967,60.083 93.7,59.95C104.4,59.517 115.717,61.15 127.65,64.85C153.983,72.717 177.233,88.3 197.4,111.6C203.8,118.9 209.867,127.067 215.6,136.1C239.7,173.2 251.467,212.917 250.9,255.25C250.433,281.217 245.367,303.433 235.7,321.9C229.633,333.367 221.817,343.433 212.25,352.1C208.517,355.5 204.683,358.55 200.75,361.25C187.25,370.117 172.5,374.833 156.5,375.4C145.833,375.633 134.65,374.067 122.95,370.7C88.15,360.233 58.833,336.367 35,299.1C10.9,261.967 -0.817,222.367 -0.15,180.3C0.517,137.867 13.3,105.4 38.2,82.9C48.433,73.567 59.517,67.1 71.45,63.5M110.6,79.85L97.6,79.2C90.733,79.3 84.2,80.367 78,82.4C67.533,85.567 57.8,91.25 48.8,99.45C26.967,119.15 15.717,147.617 15.05,184.85C14.483,221.75 24.783,256.517 45.95,289.15C66.883,321.917 92.6,342.85 123.1,351.95C133.467,354.983 143.317,356.383 152.65,356.15L160.9,355.5C171.833,353.933 182.017,350 191.45,343.7C194.95,341.333 198.333,338.683 201.6,335.75C223.533,316.05 234.85,287.7 235.55,250.7C235.983,213.567 225.617,178.683 204.45,146.05C183.417,113.417 157.7,92.6 127.3,83.6C121.567,81.8 116,80.55 110.6,79.85" style="fill:#dabb3c;"/>
                        <path d="M160.9,355.5L152.65,356.15C143.317,356.383 133.467,354.983 123.1,351.95C92.6,342.85 66.883,321.917 45.95,289.15C24.783,256.517 14.483,221.75 15.05,184.85C15.717,147.617 26.967,119.15 48.8,99.45C57.8,91.25 67.533,85.567 78,82.4C84.2,80.367 90.733,79.3 97.6,79.2L110.6,79.85C106.767,80.417 103.05,81.267 99.45,82.4C88.983,85.567 79.25,91.25 70.25,99.45C48.417,119.15 37.167,147.617 36.5,184.85C35.933,221.75 46.233,256.517 67.4,289.15C88.333,321.917 114.05,342.85 144.55,351.95C150.183,353.65 155.633,354.833 160.9,355.5" style="fill:#a9310e;"/>
                        <path d="M200.75,361.25C212.783,357.417 223.983,350.833 234.35,341.5C259.317,319.1 272.2,286.8 273,244.6C273.567,202.3 261.8,162.583 237.7,125.45C213.733,88.317 184.417,64.567 149.75,54.2C137.85,50.5 126.55,48.867 115.85,49.3C99.75,49.667 84.95,54.4 71.45,63.5C59.517,67.1 48.433,73.567 38.2,82.9C13.3,105.4 0.517,137.867 -0.15,180.3C-0.817,222.367 10.9,261.967 35,299.1C58.833,336.367 88.15,360.233 122.95,370.7C134.65,374.067 145.833,375.633 156.5,375.4C172.5,374.833 187.25,370.117 200.75,361.25M110.6,79.85C116,80.55 121.567,81.8 127.3,83.6C157.7,92.6 183.417,113.417 204.45,146.05C225.617,178.683 235.983,213.567 235.55,250.7C234.85,287.7 223.533,316.05 201.6,335.75C198.333,338.683 194.95,341.333 191.45,343.7C182.017,350 171.833,353.933 160.9,355.5C155.633,354.833 150.183,353.65 144.55,351.95C114.05,342.85 88.333,321.917 67.4,289.15C46.233,256.517 35.933,221.75 36.5,184.85C37.167,147.617 48.417,119.15 70.25,99.45C79.25,91.25 88.983,85.567 99.45,82.4C103.05,81.267 106.767,80.417 110.6,79.85" style="fill:none;fill-rule:nonzero;stroke:#000;stroke-opacity:0.3;stroke-width:0.05px;"/>
                        <path d="M126.65,87.8L130.7,84.75C159.633,94.217 184.217,114.65 204.45,146.05C208.283,152.017 211.783,158.033 214.95,164.1C219.783,192.8 220.117,216.15 215.95,234.15L214.95,237.85C210.65,253.483 202.65,264.8 190.95,271.8L184.2,275.65C198.933,256.85 202.533,224.783 195,179.45C186.9,155.483 174.25,134.05 157.05,115.15C148.15,105.35 138.017,96.233 126.65,87.8M220.5,236.65L234.2,226.2C235.2,234.2 235.65,242.367 235.55,250.7C235.317,261.033 234.3,270.767 232.5,279.9C223.033,297.767 207.167,315.767 184.9,333.9C184.9,333 184.95,332.15 185.05,331.35C208.117,308.05 220.667,284.983 222.7,262.15C223.367,253.617 222.633,245.117 220.5,236.65M39.2,186.35L59.1,171L59.95,173.7C62.083,180 64.5,185.517 67.2,190.25C68.8,196.55 71.05,203.183 73.95,210.15C80.617,222.65 78.483,227.667 67.55,225.2C60.917,222.167 55.117,217.15 50.15,210.15C46.217,204.417 42.85,197.383 40.05,189.05L39.2,186.35M66.55,152.45L86.45,137.1C90.517,161.4 104.417,168.65 128.15,158.85C125.683,162.35 122.7,165.667 119.2,168.8C106.6,175.8 96.25,179.017 88.15,178.45C76.45,177.55 69.25,168.883 66.55,152.45" style="fill:#be3308;fill-opacity:0.8;"/>
                        <path d="M207.5,271.6C213.033,263.167 217.367,251.517 220.5,236.65C222.633,245.117 223.367,253.617 222.7,262.15C220.667,284.983 208.117,308.05 185.05,331.35C178.983,337.317 172.283,343.283 164.95,349.25C166.183,310.55 153.25,286.917 126.15,278.35C118.25,277.45 111.267,277.9 105.2,279.7C97.667,281.967 91.533,286.417 86.8,293.05C84,296.75 81.633,301.25 79.7,306.55C78.233,310.583 77.05,315.133 76.15,320.2C51.283,290.067 36.483,262.783 31.75,238.35C29.617,226.983 29.617,216.233 31.75,206.1C32.783,201.167 34.367,196.383 36.5,191.75L39.2,186.35L40.05,189.05C42.85,197.383 46.217,204.417 50.15,210.15C55.117,217.15 60.917,222.167 67.55,225.2C78.483,227.667 80.617,222.65 73.95,210.15C71.05,203.183 68.8,196.55 67.2,190.25C63.6,175.95 63.383,163.35 66.55,152.45C69.25,168.883 76.45,177.55 88.15,178.45C96.25,179.017 106.6,175.8 119.2,168.8C122.7,165.667 125.683,162.35 128.15,158.85C140.65,140.85 140.15,117.167 126.65,87.8C138.017,96.233 148.15,105.35 157.05,115.15C174.25,134.05 186.9,155.483 195,179.45C202.533,224.783 198.933,256.85 184.2,275.65C181.4,279.15 178.25,282.183 174.75,284.75L171.05,287.15L176.45,287.8C189.283,288.6 199.633,283.2 207.5,271.6" style="fill:#ff450b;fill-opacity:0.8;"/>
                        <path d="M190.95,271.8C196.917,272.9 202.433,272.833 207.5,271.6C199.633,283.2 189.283,288.6 176.45,287.8L171.05,287.15L174.75,284.75C178.25,282.183 181.4,279.15 184.2,275.65L190.95,271.8M105.2,279.7C100.933,286.233 97.9,294.617 96.1,304.85L76.15,320.2C77.05,315.133 78.233,310.583 79.7,306.55C81.633,301.25 84,296.75 86.8,293.05C91.533,286.417 97.667,281.967 105.2,279.7" style="fill:#972806;fill-opacity:0.8;"/>
                        <path d="M126.65,87.8L130.7,84.75C159.633,94.217 184.217,114.65 204.45,146.05C208.283,152.017 211.783,158.033 214.95,164.1C219.783,192.8 220.117,216.15 215.95,234.15L214.95,237.85C210.65,253.483 202.65,264.8 190.95,271.8C196.917,272.9 202.433,272.833 207.5,271.6C213.033,263.167 217.367,251.517 220.5,236.65L234.2,226.2C235.2,234.2 235.65,242.367 235.55,250.7C235.317,261.033 234.3,270.767 232.5,279.9C223.033,297.767 207.167,315.767 184.9,333.9C184.9,333 184.95,332.15 185.05,331.35C178.983,337.317 172.283,343.283 164.95,349.25C166.183,310.55 153.25,286.917 126.15,278.35C118.25,277.45 111.267,277.9 105.2,279.7M76.15,320.2C51.283,290.067 36.483,262.783 31.75,238.35C29.617,226.983 29.617,216.233 31.75,206.1C32.783,201.167 34.367,196.383 36.5,191.75L39.2,186.35L59.1,171L59.95,173.7C62.083,180 64.5,185.517 67.2,190.25C63.6,175.95 63.383,163.35 66.55,152.45L86.45,137.1C90.517,161.4 104.417,168.65 128.15,158.85C140.65,140.85 140.15,117.167 126.65,87.8M184.2,275.65L190.95,271.8" style="fill:none;fill-rule:nonzero;stroke:#000;stroke-opacity:0.3;stroke-width:0.05px;"/>
                        <path d="M101,233.4C100.667,233.067 100.5,232.617 100.5,232.05C96.433,216.417 97,202.967 102.2,191.7C103.633,188.1 105.367,185 107.4,182.4C111.567,176.8 117.317,173.6 124.65,172.8C135.117,171.467 145.583,176.017 156.05,186.45C164.017,194.117 170.15,203.4 174.45,214.3C154.95,197.767 139.3,190.683 127.5,193.05C130.2,195.317 132.4,198.583 134.1,202.85C134.667,204.083 135,205.317 135.1,206.55L135.95,208.75C136.517,210.55 136.733,212.517 136.6,214.65L136.45,217.7L134.6,221.9C133.133,226.2 130.65,228.567 127.15,229C126.817,229.233 126.483,229.35 126.15,229.35C122.083,229.583 118.15,227.717 114.35,223.75C112.55,221.75 110.917,219.567 109.45,217.2C108.317,215.833 107.467,214.25 106.9,212.45C104.433,218.083 102.467,225.067 101,233.4" style="fill:#b42509;"/>
                        <path d="M174.45,214.3L177.45,224.3L179,229.7L180.35,239.15C179.45,238.25 178.55,237.45 177.65,236.75C170.45,230.683 162.167,227.817 152.8,228.15L145.05,229C141.55,229.8 138.183,231.1 134.95,232.9C132.583,234 130.267,235.683 128,237.95C120.7,243.917 117.05,251.35 117.05,260.25C116.717,260.45 116.717,260.55 117.05,260.55C116.917,262.017 117.133,263.533 117.7,265.1C114.1,261.167 111.067,256.9 108.6,252.3C105.233,246.667 102.7,240.367 101,233.4C102.467,225.067 104.433,218.083 106.9,212.45C107.467,214.25 108.317,215.833 109.45,217.2C110.917,219.567 112.55,221.75 114.35,223.75C118.15,227.717 122.083,229.583 126.15,229.35C126.483,229.35 126.817,229.233 127.15,229C130.65,228.567 133.133,226.2 134.6,221.9L136.45,217.7L136.6,214.65C136.733,212.517 136.517,210.55 135.95,208.75L135.1,206.55C135,205.317 134.667,204.083 134.1,202.85C132.4,198.583 130.2,195.317 127.5,193.05C139.3,190.683 154.95,197.767 174.45,214.3" style="fill:#791906;"/>
                        <path d="M180.35,239.15C180.217,240.817 180.217,242.617 180.35,244.55C180.217,247.45 179.933,250.15 179.5,252.65C178.933,256.817 177.7,260.867 175.8,264.8C171.4,275.367 164.583,281.55 155.35,283.35L153.35,283.5C142.517,284.3 132.15,279.633 122.25,269.5C120.35,267.933 118.833,266.467 117.7,265.1C117.133,263.533 116.917,262.017 117.05,260.55C116.717,260.55 116.717,260.45 117.05,260.25C117.05,251.35 120.7,243.917 128,237.95C130.267,235.683 132.583,234 134.95,232.9C138.183,231.1 141.55,229.8 145.05,229L152.8,228.15C162.167,227.817 170.45,230.683 177.65,236.75C178.55,237.45 179.45,238.25 180.35,239.15" style="fill:#4f1004;"/>
                        <path d="M101,233.4C100.667,233.067 100.5,232.617 100.5,232.05C96.433,216.417 97,202.967 102.2,191.7C103.633,188.1 105.367,185 107.4,182.4C111.567,176.8 117.317,173.6 124.65,172.8C135.117,171.467 145.583,176.017 156.05,186.45C164.017,194.117 170.15,203.4 174.45,214.3L177.45,224.3L179,229.7L180.35,239.15C180.217,240.817 180.217,242.617 180.35,244.55C180.217,247.45 179.933,250.15 179.5,252.65C178.933,256.817 177.7,260.867 175.8,264.8C171.4,275.367 164.583,281.55 155.35,283.35L153.35,283.5C142.517,284.3 132.15,279.633 122.25,269.5C120.35,267.933 118.833,266.467 117.7,265.1C114.1,261.167 111.067,256.9 108.6,252.3C105.233,246.667 102.7,240.367 101,233.4Z" style="fill:none;fill-rule:nonzero;stroke:#000;stroke-opacity:0.3;stroke-width:0.05px;"/>
                    </g>
                </g>
            </g>
        </g>
    </g>
</svg>
