<?xml version="1.0" encoding="UTF-8" standalone="no"?>
<!DOCTYPE svg PUBLIC "-//W3C//DTD SVG 1.1//EN" "http://www.w3.org/Graphics/SVG/1.1/DTD/svg11.dtd">
<svg width="100%" height="100%" viewBox="0 0 16 23" version="1.1" xmlns="http://www.w3.org/2000/svg" xmlns:xlink="http://www.w3.org/1999/xlink" xml:space="preserve" xmlns:serif="http://www.serif.com/" style="fill-rule:evenodd;clip-rule:evenodd;stroke-linecap:round;stroke-linejoin:round;">
    <g transform="matrix(1,0,0,1,7.7,11.35)">
        <g id="sprite0">
            <g id="sprite1">
                <g id="shape0">
                    <path d="M4.55,-9.3L4.7,-9.15L5.05,-8.75L6.05,-7.3L6.3,-6.7L7,-4.4L7.05,-4.3C7.183,-3.4 7.183,-2.483 7.05,-1.55L6.9,-0.8C6.6,0.633 6.033,1.8 5.2,2.7L4.7,3.2L4.15,3.6L4.1,3.65L2.7,4.35L2.5,7.75L2,7.9L2.05,7.95L2.45,7.8L2.85,8.55L2.9,8.5L2.9,8.85L2.75,9L2.9,9.2L3.2,9.85L2.6,9.9L2.4,10.8C2.133,10.733 1.883,10.6 1.65,10.4L1.15,10.85L0.85,10L0.6,10L0.25,10.85L-0.45,10.4L-0.95,10.75L-1.15,9.8L-1.75,9.5L-1.15,8.9L-0.85,8.75L-0.85,8.45L-0.8,8.5L-0.8,8.45L-0.75,8.25L-0.75,8.2L-0.3,7.75L0.3,4.45L-1.05,4.1L-1.65,3.85L-2.55,4.4L-2.75,4.1L-2.9,2.95C-3.633,2.25 -4.233,1.367 -4.7,0.3L-5.15,-1L-5.2,-1.25L-5.35,-1.2L-5.35,-1.25L-5.55,-1.6C-5.717,-1.967 -5.767,-2.383 -5.7,-2.85L-5.5,-3.3L-5.45,-4.3L-6.25,-4.3L-6.95,-4.55L-7.15,-4.7L-7.2,-4.75L-7.15,-4.8L-6.95,-5.1L-5.65,-6.3L-5.5,-6.4L-5.45,-6.4L-5.4,-6.45L-5,-6.5L-4.85,-6.9L-4.8,-6.9L-4.9,-7.15L-4.95,-7.5C-4.85,-8.267 -4.5,-8.9 -3.9,-9.4L-3.6,-9L-2.5,-10L-1.95,-10.3L-1.9,-10.35L-0.1,-10.85L0.65,-10.85L2.7,-10.45L2.95,-10.35L4.2,-9.6L4.25,-9.55L4.55,-9.3M2.8,-8.55L2.7,-8.5C1.933,-8.067 1.333,-7.467 0.9,-6.7L1.75,-5.35L2.15,-5.5L2.7,-8.35L2.8,-8.55M3.5,-8.4L2.8,-5.25L2.85,-5.2C3.183,-4.9 3.267,-4.633 3.1,-4.4L2.85,-4.3L2.9,-4.15L2.85,-3.7L2.8,-3.6L5.65,-1.05L5.75,-1.7L5.75,-3.95L5.1,-6.35L4.8,-7L3.35,-8.8L3.5,-8.4M1.55,-3.2C1.117,-3.333 0.9,-3.567 0.9,-3.9C0.867,-4.267 1.017,-4.45 1.35,-4.45L0.35,-5.4L0.35,-5.5L0.15,-4.95L0.05,-4.4L-0.05,-3.35L0.05,-2.25L0.35,-1.5L0.35,-1.15L0.85,-1.25L1.05,-1.25L1.3,-1.15L1.7,-3.15L1.55,-3.2M3,0.3C2.567,0.8 2.167,1.1 1.8,1.2C2.333,1.767 2.983,2.2 3.75,2.5L5.15,0.55L2.4,-3.25L1.85,-0.8L3,0.3M1.35,4.5L0.75,7.85L1.05,8.35L1.05,8.3L1.4,7.8L1.6,4.5L1.35,4.5" style="fill:#280a02;"/>
                    <path d="M4.55,-9.3L4.7,-9.15L5.05,-8.75L6.05,-7.3L6.3,-6.7L7,-4.4L7.05,-4.3C7.183,-3.4 7.183,-2.483 7.05,-1.55L6.9,-0.8C6.6,0.633 6.033,1.8 5.2,2.7L4.7,3.2L4.15,3.6L4.1,3.65L2.7,4.35L2.5,7.75L2,7.9L2.05,7.95L2.45,7.8L2.85,8.55L2.9,8.5L2.9,8.85L2.75,9L2.9,9.2L3.2,9.85L2.6,9.9L2.4,10.8C2.133,10.733 1.883,10.6 1.65,10.4L1.15,10.85L0.85,10L0.6,10L0.25,10.85L-0.45,10.4L-0.95,10.75L-1.15,9.8L-1.75,9.5L-1.15,8.9L-0.85,8.75L-0.85,8.45L-0.8,8.5L-0.8,8.45L-0.75,8.25L-0.75,8.2L-0.3,7.75L0.3,4.45L-1.05,4.1L-1.65,3.85L-2.55,4.4L-2.75,4.1L-2.9,2.95C-3.633,2.25 -4.233,1.367 -4.7,0.3L-5.15,-1L-5.2,-1.25L-5.35,-1.2L-5.35,-1.25L-5.55,-1.6C-5.717,-1.967 -5.767,-2.383 -5.7,-2.85L-5.5,-3.3L-5.45,-4.3L-6.25,-4.3L-6.95,-4.55L-7.15,-4.7L-7.2,-4.75L-7.15,-4.8L-6.95,-5.1L-5.65,-6.3L-5.5,-6.4L-5.45,-6.4L-5.4,-6.45L-5,-6.5L-4.85,-6.9L-4.8,-6.9L-4.9,-7.15L-4.95,-7.5C-4.85,-8.267 -4.5,-8.9 -3.9,-9.4L-3.6,-9L-2.5,-10L-1.95,-10.3L-1.9,-10.35L-0.1,-10.85L0.65,-10.85L2.7,-10.45L2.95,-10.35L4.2,-9.6L4.25,-9.55L4.55,-9.3M2.8,-8.55L2.7,-8.5C1.933,-8.067 1.333,-7.467 0.9,-6.7L1.75,-5.35L2.15,-5.5L2.7,-8.35L2.8,-8.55M3.5,-8.4L2.8,-5.25L2.85,-5.2C3.183,-4.9 3.267,-4.633 3.1,-4.4L2.85,-4.3L2.9,-4.15L2.85,-3.7L2.8,-3.6L5.65,-1.05L5.75,-1.7L5.75,-3.95L5.1,-6.35L4.8,-7L3.35,-8.8L3.5,-8.4M1.55,-3.2C1.117,-3.333 0.9,-3.567 0.9,-3.9C0.867,-4.267 1.017,-4.45 1.35,-4.45L0.35,-5.4L0.35,-5.5L0.15,-4.95L0.05,-4.4L-0.05,-3.35L0.05,-2.25L0.35,-1.5L0.35,-1.15L0.85,-1.25L1.05,-1.25L1.3,-1.15L1.7,-3.15L1.55,-3.2M3,0.3C2.567,0.8 2.167,1.1 1.8,1.2C2.333,1.767 2.983,2.2 3.75,2.5L5.15,0.55L2.4,-3.25L1.85,-0.8L3,0.3M1.35,4.5L0.75,7.85L1.05,8.35L1.05,8.3L1.4,7.8L1.6,4.5L1.35,4.5" style="fill:none;fill-rule:nonzero;stroke:#280a02;stroke-width:1px;"/>
                </g>
            </g>
            <g id="sprite2" transform="matrix(0.0498,0,0,0.0497,-5.7006,-12.8013)">
                <g id="shape1">
                    <path d="M158.35,141.8L161.85,123.8L166.6,99.3L168.6,89.1C175.233,73.767 180.633,73.433 184.8,88.1L183.3,94.85L175.6,99.8L171.85,109.3L163.35,130.05L158.35,141.8M176.6,168.75L171.35,171.5L166.1,173.5L162.85,174.5C159.017,175.167 155.35,175.083 151.85,174.25C150.517,173.917 149.183,173.417 147.85,172.75L142.6,169.25L141.1,167.75C140.933,165.75 141.017,163.833 141.35,162C145.017,164.333 149.017,166.083 153.35,167.25L155.6,167.75C159.267,168.583 163.1,169.083 167.1,169.25L176.6,168.75M173.1,174.25C173.933,176.583 173.6,179.5 172.1,183C171.6,183.5 171.183,184.083 170.85,184.75L180.3,193.25L171.35,204.25L162.35,192C162.183,192 162.1,192.083 162.1,192.25L158.1,210.45L144.85,210.45L148.1,194.25L145.6,193.5L148.35,192.5L149.85,192C154.683,190 159.433,187.083 164.1,183.25L166.85,181L173.1,174.25M216.05,225.2L233.5,241.2L224.8,278.65L205.8,252.2C212.467,245.867 215.883,236.867 216.05,225.2M130.85,158L121.15,148.8C116.65,136.633 120.217,127.217 131.85,120.55L137.6,130.55L143.1,139.8L130.85,158C130.683,143.2 132.933,134.05 137.6,130.55C132.933,134.05 130.683,143.2 130.85,158M161.85,123.8C162.183,126.133 162.683,128.217 163.35,130.05C162.683,128.217 162.183,126.133 161.85,123.8M166.6,99.3C167.933,103.467 169.683,106.8 171.85,109.3C169.683,106.8 167.933,103.467 166.6,99.3M170.85,184.75C168.183,187.75 165.35,190.167 162.35,192C165.35,190.167 168.183,187.75 170.85,184.75M152.1,195.25L148.1,194.25L152.1,195.25L149.85,192L152.1,195.25C155.6,194.917 158.933,193.917 162.1,192.25C158.933,193.917 155.6,194.917 152.1,195.25M162.85,174.5C160.017,172.667 157.6,170.417 155.6,167.75C157.6,170.417 160.017,172.667 162.85,174.5" style="fill:#ad8d5e;"/>
                    <path d="M183.3,94.85L179.3,113.8L173.85,138.8L170.85,151.55L172.1,152.55C178.733,158.683 180.233,164.083 176.6,168.75L167.1,169.25C163.1,169.083 159.267,168.583 155.6,167.75L153.85,165C153.517,164.833 153.35,164.583 153.35,164.25C151.017,160.25 149.6,155.6 149.1,150.3L149.1,150.05C144.6,153.017 142.017,157 141.35,162C142.017,157 144.6,153.017 149.1,150.05L149.1,150.3C149.6,155.6 151.017,160.25 153.35,164.25C153.35,164.583 153.517,164.833 153.85,165L155.6,167.75L153.35,167.25C149.017,166.083 145.017,164.333 141.35,162C141.017,163.833 140.933,165.75 141.1,167.75L142.6,169.25L147.85,172.75C149.183,173.417 150.517,173.917 151.85,174.25C155.35,175.083 159.017,175.167 162.85,174.5L166.1,173.5L171.35,171.5C172.183,172.333 172.767,173.25 173.1,174.25L166.85,181L164.1,183.25C159.433,187.083 154.683,190 149.85,192L148.35,192.5L145.6,193.5C136.933,190.5 132.517,185.75 132.35,179.25C132.017,171.75 134.933,167.917 141.1,167.75L130.85,158L143.1,139.8L149.1,150.05L149.1,149.8C151.933,148.3 154.683,147.467 157.35,147.3L158.35,141.8L163.35,130.05L171.85,109.3L175.6,99.8L183.3,94.85M180.3,193.25L185.8,198.25L206.55,216.7L216.05,225.2C215.883,236.867 212.467,245.867 205.8,252.2L199.05,242.95L180.55,217.2L171.35,204.25L180.3,193.25M158.1,210.45L153.85,229.7L148.6,252.7L136.1,254.45L143.6,215.95L144.85,210.45L158.1,210.45M173.85,138.8C168.683,138.633 165.183,135.717 163.35,130.05C165.183,135.717 168.683,138.633 173.85,138.8M179.3,113.8C176.333,113.133 173.85,111.633 171.85,109.3C173.85,111.633 176.333,113.133 179.3,113.8M149.85,192L148.85,190.25C145.517,183.917 145.017,178.417 147.35,173.75L147.85,172.75L147.35,173.75C145.017,178.417 145.517,183.917 148.85,190.25L149.85,192M153.85,229.7C149.517,229.367 146.1,224.783 143.6,215.95C146.1,224.783 149.517,229.367 153.85,229.7M185.8,198.25C186.967,204.55 185.217,210.867 180.55,217.2C185.217,210.867 186.967,204.55 185.8,198.25M170.85,151.55C166.683,148.05 162.183,146.633 157.35,147.3C162.183,146.633 166.683,148.05 170.85,151.55M206.55,216.7C208.883,228.367 206.383,237.117 199.05,242.95C206.383,237.117 208.883,228.367 206.55,216.7" style="fill:#f3d497;"/>
                    <path d="M158.35,141.8L161.85,123.8L166.6,99.3L168.6,89.1C175.233,73.767 180.633,73.433 184.8,88.1L183.3,94.85L179.3,113.8L173.85,138.8L170.85,151.55L172.1,152.55C178.733,158.683 180.233,164.083 176.6,168.75L171.35,171.5C172.183,172.333 172.767,173.25 173.1,174.25C173.933,176.583 173.6,179.5 172.1,183C171.6,183.5 171.183,184.083 170.85,184.75L180.3,193.25L185.8,198.25L206.55,216.7L216.05,225.2L233.5,241.2L224.8,278.65L205.8,252.2L199.05,242.95L180.55,217.2L171.35,204.25L162.35,192C162.183,192 162.1,192.083 162.1,192.25L158.1,210.45L153.85,229.7L148.6,252.7L136.1,254.45L143.6,215.95L144.85,210.45L148.1,194.25L145.6,193.5C136.933,190.5 132.517,185.75 132.35,179.25C132.017,171.75 134.933,167.917 141.1,167.75L130.85,158L121.15,148.8C116.65,136.633 120.217,127.217 131.85,120.55L137.6,130.55L143.1,139.8L149.1,150.05L149.1,149.8C151.933,148.3 154.683,147.467 157.35,147.3L158.35,141.8M163.35,130.05C162.683,128.217 162.183,126.133 161.85,123.8M171.85,109.3C169.683,106.8 167.933,103.467 166.6,99.3M163.35,130.05C165.183,135.717 168.683,138.633 173.85,138.8M171.85,109.3C173.85,111.633 176.333,113.133 179.3,113.8M171.35,171.5L166.1,173.5L162.85,174.5C159.017,175.167 155.35,175.083 151.85,174.25C150.517,173.917 149.183,173.417 147.85,172.75L147.35,173.75C145.017,178.417 145.517,183.917 148.85,190.25L149.85,192L152.1,195.25C155.6,194.917 158.933,193.917 162.1,192.25M162.35,192C165.35,190.167 168.183,187.75 170.85,184.75M147.85,172.75L142.6,169.25L141.1,167.75C140.933,165.75 141.017,163.833 141.35,162C142.017,157 144.6,153.017 149.1,150.05L149.1,150.3C149.6,155.6 151.017,160.25 153.35,164.25C153.35,164.583 153.517,164.833 153.85,165L155.6,167.75C157.6,170.417 160.017,172.667 162.85,174.5M148.1,194.25L152.1,195.25M130.85,158C130.683,143.2 132.933,134.05 137.6,130.55M143.6,215.95C146.1,224.783 149.517,229.367 153.85,229.7M180.55,217.2C185.217,210.867 186.967,204.55 185.8,198.25M199.05,242.95C206.383,237.117 208.883,228.367 206.55,216.7M157.35,147.3C162.183,146.633 166.683,148.05 170.85,151.55" style="fill:none;fill-rule:nonzero;stroke:#000;stroke-opacity:0.3;stroke-width:0.05px;"/>
                </g>
                <g transform="matrix(0.9916,-0.1295,0.1295,0.9916,152.924,429.328)">
                    <g id="sprite3">
                        <g id="oreille7">
                            <g id="shape2">
                                <path d="M3.3,-12.35C6.6,-12.183 9.917,-12.6 13.25,-13.6C17.25,-8.933 19.25,-3.783 19.25,1.85C19.25,4.183 18.917,6.6 18.25,9.1L15,11.35C0.533,19.517 -10.867,17.1 -19.2,4.1L-18.45,-1.65C-18.117,-3.483 -17.533,-5.133 -16.7,-6.6C-14.867,-11.1 -12.033,-14.267 -8.2,-16.1C-4.367,-14.1 -0.533,-12.85 3.3,-12.35" style="fill:#3bafc7;"/>
                            </g>
                        </g>
                    </g>
                </g>
                <g id="shape3">
                    <path d="M144.55,377.85L146.65,325.15L168.25,322.35L166.15,372C160.05,375.467 152.85,377.417 144.55,377.85M169.3,438.6L172.8,442.45C163.5,449.383 154.383,452.75 145.45,452.55C136.917,451.65 131.667,447.383 129.7,439.75C131.167,438.383 132.75,437.083 134.45,435.85C144.417,447.683 156.033,448.6 169.3,438.6" style="fill:#ad8d5e;"/>
                    <path d="M166.15,372L164.3,414.1C161.133,415.533 157.917,416.383 154.65,416.65C150.783,416.65 146.817,415.9 142.75,414.4L144.55,377.85C152.85,377.417 160.05,375.467 166.15,372M172.8,442.45C175.867,446.583 177.883,451.033 178.85,455.8L166.7,457.35C166.833,464.75 165.35,470.583 162.25,474.85C156.917,474.017 151.95,471.45 147.35,467.15L137.7,476.25C134.867,472.417 132.8,466.217 131.5,457.65L119.25,452.7C121.983,447.833 125.467,443.517 129.7,439.75C131.667,447.383 136.917,451.65 145.45,452.55C154.383,452.75 163.5,449.383 172.8,442.45M152.05,462.8L147.35,467.15L152.05,462.8" style="fill:#f3d497;"/>
                    <path d="M172.25,428.6C172.55,430.933 172.533,433.383 172.2,435.95L169.3,438.6C156.033,448.6 144.417,447.683 134.45,435.85C134.35,433.817 134.35,431.883 134.45,430.05C145.65,435.983 158.25,435.5 172.25,428.6" style="fill-opacity:0.35;"/>
                    <path d="M135.5,424.95C136.767,420.217 139.183,416.7 142.75,414.4C146.817,415.9 150.783,416.65 154.65,416.65C157.183,419.483 157.517,422.033 155.65,424.3C149.783,427.233 143.067,427.45 135.5,424.95" style="fill:#d3ffff;fill-opacity:0.55;"/>
                    <path d="M144.55,377.85L146.65,325.15L168.25,322.35L166.15,372L164.3,414.1C168.867,418.2 171.517,423.033 172.25,428.6C172.55,430.933 172.533,433.383 172.2,435.95L169.3,438.6L172.8,442.45C175.867,446.583 177.883,451.033 178.85,455.8L166.7,457.35C166.833,464.75 165.35,470.583 162.25,474.85C156.917,474.017 151.95,471.45 147.35,467.15L137.7,476.25C134.867,472.417 132.8,466.217 131.5,457.65L119.25,452.7C121.983,447.833 125.467,443.517 129.7,439.75C131.167,438.383 132.75,437.083 134.45,435.85C134.35,433.817 134.35,431.883 134.45,430.05C134.517,428.183 134.867,426.483 135.5,424.95C136.767,420.217 139.183,416.7 142.75,414.4L144.55,377.85M154.65,416.65C150.783,416.65 146.817,415.9 142.75,414.4M147.35,467.15L152.05,462.8M164.3,414.1C161.133,415.533 157.917,416.383 154.65,416.65M134.45,435.85C144.417,447.683 156.033,448.6 169.3,438.6" style="fill:none;fill-rule:nonzero;stroke:#000;stroke-opacity:0.3;stroke-width:0.05px;"/>
                </g>
                <g transform="matrix(1,0,0,1,116.1,429.9)">
                    <g id="sprite31" serif:id="sprite3">
                        <g id="oreille71" serif:id="oreille7">
                            <g id="shape21" serif:id="shape2">
                                <path d="M3.3,-12.35C6.6,-12.183 9.917,-12.6 13.25,-13.6C17.25,-8.933 19.25,-3.783 19.25,1.85C19.25,4.183 18.917,6.6 18.25,9.1L15,11.35C0.533,19.517 -10.867,17.1 -19.2,4.1L-18.45,-1.65C-18.117,-3.483 -17.533,-5.133 -16.7,-6.6C-14.867,-11.1 -12.033,-14.267 -8.2,-16.1C-4.367,-14.1 -0.533,-12.85 3.3,-12.35" style="fill:#3bafc7;"/>
                            </g>
                        </g>
                    </g>
                </g>
                <g id="shape4">
                    <path d="M114.4,377.8L123.35,325.85L145.1,325.85L136.6,374.8C130.1,377.467 122.7,378.467 114.4,377.8M131.1,441.25L134.1,445.5C123.967,451.167 114.483,453.333 105.65,452C97.317,450 92.65,445.083 91.65,437.25C93.317,436.083 95.067,435 96.9,434C105.233,447 116.633,449.417 131.1,441.25" style="fill:#ad8d5e;"/>
                    <path d="M136.6,374.8L129.35,416.3C126.017,417.3 122.7,417.717 119.4,417.55C115.567,417.05 111.733,415.8 107.9,413.8L114.4,377.8C122.7,378.467 130.1,377.467 136.6,374.8M134.1,445.5C136.6,450 138.017,454.667 138.35,459.5L126.1,459.5C125.267,466.833 123.033,472.417 119.4,476.25C114.233,474.75 109.65,471.583 105.65,466.75L94.9,474.5C92.567,470.333 91.317,463.917 91.15,455.25L79.65,448.75C82.983,444.25 86.983,440.417 91.65,437.25C92.65,445.083 97.317,450 105.65,452C114.483,453.333 123.967,451.167 134.1,445.5M110.9,463L105.65,466.75L110.9,463" style="fill:#f3d497;"/>
                    <path d="M135.35,431.75C135.35,434.083 135.017,436.5 134.35,439L131.1,441.25C116.633,449.417 105.233,447 96.9,434C97.067,432 97.317,430.083 97.65,428.25C107.983,435.583 120.55,436.75 135.35,431.75" style="fill-opacity:0.35;"/>
                    <path d="M99.4,423.3C101.233,418.8 104.067,415.633 107.9,413.8C111.733,415.8 115.567,417.05 119.4,417.55C121.567,420.717 121.567,423.3 119.4,425.3C113.233,427.433 106.567,426.767 99.4,423.3" style="fill:#d3ffff;fill-opacity:0.55;"/>
                    <path d="M114.4,377.8L123.35,325.85L145.1,325.85L136.6,374.8L129.35,416.3C133.35,420.967 135.35,426.117 135.35,431.75C135.35,434.083 135.017,436.5 134.35,439L131.1,441.25L134.1,445.5C136.6,450 138.017,454.667 138.35,459.5L126.1,459.5C125.267,466.833 123.033,472.417 119.4,476.25C114.233,474.75 109.65,471.583 105.65,466.75L94.9,474.5C92.567,470.333 91.317,463.917 91.15,455.25L79.65,448.75C82.983,444.25 86.983,440.417 91.65,437.25C93.317,436.083 95.067,435 96.9,434C97.067,432 97.317,430.083 97.65,428.25C97.983,426.417 98.567,424.767 99.4,423.3C101.233,418.8 104.067,415.633 107.9,413.8L114.4,377.8M119.4,417.55C115.567,417.05 111.733,415.8 107.9,413.8M119.4,417.55C122.7,417.717 126.017,417.3 129.35,416.3M105.65,466.75L110.9,463M96.9,434C105.233,447 116.633,449.417 131.1,441.25" style="fill:none;fill-rule:nonzero;stroke:#000;stroke-opacity:0.3;stroke-width:0.05px;"/>
                </g>
                <g id="tete" transform="matrix(1,0,0,1,15.8,54.75)">
                    <g id="shape5">
                        <path d="M126.05,24.1C108.917,34.267 96.017,48.583 87.35,67.05C85.517,70.217 84.017,73.8 82.85,77.8C80.183,84.3 78.1,91.383 76.6,99.05C75.1,102.55 74.433,106.55 74.6,111.05C73.433,117.85 72.85,124.667 72.85,131.5L72.85,134C72.85,155.167 78.1,176.067 88.6,196.7C90.433,200.533 92.517,204.367 94.85,208.2C109.483,233.333 129.55,250.817 155.05,260.65L161.8,262.65C153.467,267.817 145.05,271.733 136.55,274.4C130.05,276.367 123.55,277.6 117.05,278.1C105.083,278.1 92.767,275.867 80.1,271.4C54.967,260.9 35.233,242 20.9,214.7C18.733,210.7 16.733,206.617 14.9,202.45C1.433,172.65 -2.9,141.933 1.9,110.3C1.9,105.8 2.567,101.467 3.9,97.3C5.567,89.133 7.65,81.383 10.15,74.05C11.483,70.55 12.9,67.133 14.4,63.8L14.9,62.3C23.9,42.667 36.9,27.1 53.9,15.6C64.367,8.267 75.183,3.533 86.35,1.4C90.017,0.733 93.767,0.317 97.6,0.15C109.733,-0.683 122.383,1.633 135.55,7.1C140.217,8.933 144.633,11.017 148.8,13.35C140.967,15.517 133.383,19.1 126.05,24.1" style="fill:#fff0d0;"/>
                    </g>
                </g>
                <g id="oreille" transform="matrix(1,0,0,1,97.4,39.25)">
                    <g id="shape6">
                        <path d="M118.65,42.35C125.817,50.85 132.3,60.6 138.1,71.6C140.1,75.4 142.017,79.383 143.85,83.55C150.35,98.55 155.017,113.867 157.85,129.5C157.85,130.167 157.933,130.833 158.1,131.5C160.933,149.833 161.183,168.483 158.85,187.45C157.517,191.95 156.517,196.783 155.85,201.95C149.517,230.917 138.033,254.567 121.4,272.9L119.4,275.15L111.15,282.9C107.817,285.9 104.317,288.65 100.65,291.15L98.9,292.4C88.733,298.533 78.583,303.1 68.45,306.1C62.45,307.6 56.45,308.6 50.45,309.1L40.95,308.85C45.617,308.183 50.2,307.267 54.7,306.1C64.867,303.1 75.017,298.533 85.15,292.4L86.9,291.15C91.067,288.317 95.067,285.233 98.9,281.9L107.65,273.15C124.317,254.817 135.8,231.083 142.1,201.95C142.767,196.783 143.767,191.95 145.1,187.45C147.1,171.983 147.267,156.667 145.6,141.5L144.35,131.5C141.683,115.2 136.95,99.217 130.15,83.55C128.317,79.383 126.4,75.4 124.4,71.6C118.9,60.933 112.65,51.433 105.65,43.1L102.15,39.1L99.4,36.1L95.15,31.85C92.817,29.517 90.4,27.433 87.9,25.6C79.933,19.133 71.367,13.9 62.2,9.9L57.2,7.9C47.033,3.567 37.133,0.983 27.5,0.15L29.7,0.15C43.033,-0.683 56.783,1.9 70.95,7.9L75.95,9.9C85.083,13.9 93.65,19.133 101.65,25.6L102.15,26.1L108.65,31.6L111.4,34.35C113.9,36.85 116.317,39.517 118.65,42.35M77.2,35.1C79.533,36.767 81.933,38.683 84.4,40.85C79.767,42.683 75.283,44.933 70.95,47.6C53.783,57.6 40.7,71.167 31.7,88.3C30.033,91.633 28.467,95.05 27,98.55C24.333,104.883 22.167,111.55 20.5,118.55C19.167,122.217 18.5,126.033 18.5,130C17,137.167 16.25,144.333 16.25,151.5C16.083,171.5 20.983,191.067 30.95,210.2C32.617,213.7 34.617,217.2 36.95,220.7C50.283,243.333 68.6,259.317 91.9,268.65L89.9,270.4L79.45,267.65C54.283,258.483 34.717,242 20.75,218.2C18.417,214.7 16.417,211.2 14.75,207.7C4.75,188.567 -0.167,169 0,149C0,141.833 0.75,134.683 2.25,127.55C2.25,125.55 2.417,123.55 2.75,121.55C3.083,119.717 3.583,117.883 4.25,116.05C5.917,109.05 8.083,102.383 10.75,96.05C12.25,92.55 13.833,89.133 15.5,85.8C24.467,68.667 37.533,55.1 54.7,45.1C62.033,40.767 69.533,37.433 77.2,35.1" style="fill:#3bafc7;"/>
                    </g>
                </g>
                <g id="shape7">
                    <path d="M16.7,118.3C26.533,91.667 42.283,71.117 63.95,56.65C67.617,54.15 71.267,51.9 74.9,49.9L76.65,49.15C86.15,45.317 92.983,44.233 97.15,45.9C98.817,46.567 100.067,47.65 100.9,49.15C101.9,50.817 102.317,53.15 102.15,56.15C90.983,58.283 80.167,63.017 69.7,70.35C52.7,81.85 39.7,97.417 30.7,117.05L30.2,118.55C28.7,121.883 27.283,125.3 25.95,128.8C20.283,130.467 17.2,126.967 16.7,118.3M113.4,39.4C117.233,39.067 121.067,39.067 124.9,39.4C134.533,40.233 144.433,42.817 154.6,47.15L159.6,49.15C168.767,53.15 177.333,58.383 185.3,64.85C187.8,66.683 190.217,68.767 192.55,71.1L196.8,75.35L199.55,78.35L203.05,82.35C210.05,90.683 216.3,100.183 221.8,110.85C220.467,118.15 216.717,120.217 210.55,117.05C202.55,102.083 192.967,89.767 181.8,80.1C179.333,77.933 176.933,76.017 174.6,74.35C171.433,72.017 168.1,69.933 164.6,68.1C168.1,69.933 171.433,72.017 174.6,74.35C166.933,76.683 159.433,80.017 152.1,84.35C134.933,94.35 121.867,107.917 112.9,125.05C111.233,128.383 109.65,131.8 108.15,135.3C105.483,141.633 103.317,148.3 101.65,155.3C100.983,157.133 100.483,158.967 100.15,160.8L92.4,153.8C93.9,146.133 95.983,139.05 98.65,132.55C99.817,128.55 101.317,124.967 103.15,121.8C111.817,103.333 124.717,89.017 141.85,78.85C149.183,73.85 156.767,70.267 164.6,68.1C160.433,65.767 156.017,63.683 151.35,61.85C138.183,56.383 125.533,54.067 113.4,54.9C112.9,52.9 112.567,50.983 112.4,49.15C112.067,46.15 112.233,43.4 112.9,40.9L113.4,39.4M241.75,170.75L243,180.75C244.667,195.917 244.5,211.233 242.5,226.7C241.167,231.2 240.167,236.033 239.5,241.2C233.2,270.333 221.717,294.067 205.05,312.4L196.3,321.15C192.467,324.483 188.467,327.567 184.3,330.4L182.55,331.65C169.75,337.117 159.6,339.767 152.1,339.6C150.267,337.767 150.35,334.283 152.35,329.15C160.85,326.483 169.267,322.567 177.6,317.4L178.1,316.9L187.3,309.65L189.3,307.9C208.3,290.567 221.133,266.75 227.8,236.45C228.3,231.783 229.133,227.45 230.3,223.45C232.3,207.983 232.3,192.75 230.3,177.75C232.467,167.617 236.283,165.283 241.75,170.75" style="fill:#eda823;"/>
                    <path d="M74.9,49.9C75.4,49.567 75.9,49.317 76.4,49.15C88.067,42.983 100.067,39.733 112.4,39.4L113.4,39.4L112.9,40.9C112.233,43.4 112.067,46.15 112.4,49.15C112.567,50.983 112.9,52.9 113.4,54.9C109.567,55.067 105.817,55.483 102.15,56.15C102.317,53.15 101.9,50.817 100.9,49.15C100.067,47.65 98.817,46.567 97.15,45.9C92.983,44.233 86.15,45.317 76.65,49.15L74.9,49.9M221.8,110.85C223.8,114.65 225.717,118.633 227.55,122.8C234.35,138.467 239.083,154.45 241.75,170.75C236.283,165.283 232.467,167.617 230.3,177.75C228.133,161.617 223.633,145.717 216.8,130.05C214.8,125.383 212.717,121.05 210.55,117.05C216.717,120.217 220.467,118.15 221.8,110.85" style="fill:#fafa95;"/>
                    <path d="M255.25,168.75L255.5,170.75C258.333,189.083 258.583,207.733 256.25,226.7C254.917,231.2 253.917,236.033 253.25,241.2C246.917,270.167 235.433,293.817 218.8,312.15L216.8,314.4L208.55,322.15C205.217,325.15 201.717,327.9 198.05,330.4L196.3,331.65C186.133,337.783 175.983,342.35 165.85,345.35C159.85,346.85 153.85,347.85 147.85,348.35L138.35,348.1C143.017,347.433 147.6,346.517 152.1,345.35C162.267,342.35 172.417,337.783 182.55,331.65L184.3,330.4C188.467,327.567 192.467,324.483 196.3,321.15L205.05,312.4C221.717,294.067 233.2,270.333 239.5,241.2C240.167,236.033 241.167,231.2 242.5,226.7C244.5,211.233 244.667,195.917 243,180.75C247.667,180.583 251.75,176.583 255.25,168.75" style="fill-opacity:0.35;"/>
                    <path d="M138.35,348.1L134.1,348.35C120.8,348.35 107.15,345.767 93.15,340.6C61.183,327.3 36.95,301.833 20.45,264.2C16.483,255.367 13.25,246.533 10.75,237.7C3.75,212.9 2.25,187.6 6.25,161.8C6.25,156.8 7,151.967 8.5,147.3C9.167,143.8 9.917,140.467 10.75,137.3C12.417,130.633 14.4,124.3 16.7,118.3C17.2,126.967 20.283,130.467 25.95,128.8C23.45,136.133 21.367,143.883 19.7,152.05C18.367,156.217 17.7,160.55 17.7,165.05C12.9,196.683 17.233,227.4 30.7,257.2C32.533,261.367 34.533,265.45 36.7,269.45C51.033,296.75 70.767,315.65 95.9,326.15C108.567,330.617 120.883,332.85 132.85,332.85C139.35,332.35 145.85,331.117 152.35,329.15C150.35,334.283 150.267,337.767 152.1,339.6C159.6,339.767 169.75,337.117 182.55,331.65C172.417,337.783 162.267,342.35 152.1,345.35C147.6,346.517 143.017,347.433 138.35,348.1M100.15,160.8C99.817,162.8 99.65,164.8 99.65,166.8C98.15,173.933 97.4,181.083 97.4,188.25C97.233,208.25 102.15,227.817 112.15,246.95C113.817,250.45 115.817,253.95 118.15,257.45C132.117,281.25 151.683,297.733 176.85,306.9L187.3,309.65L178.1,316.9L177.6,317.4L170.85,315.4C145.35,305.567 125.283,288.083 110.65,262.95C108.317,259.117 106.233,255.283 104.4,251.45C93.9,230.817 88.65,209.917 88.65,188.75L88.65,186.25C88.65,179.417 89.233,172.6 90.4,165.8C90.233,161.3 90.9,157.3 92.4,153.8L100.15,160.8" style="fill:#aa7116;"/>
                    <path d="M25.95,128.8C27.283,125.3 28.7,121.883 30.2,118.55C46.367,137.05 67.1,148.8 92.4,153.8C90.9,157.3 90.233,161.3 90.4,165.8C89.233,172.6 88.65,179.417 88.65,186.25L88.65,188.75C88.65,209.917 93.9,230.817 104.4,251.45C106.233,255.283 108.317,259.117 110.65,262.95C125.283,288.083 145.35,305.567 170.85,315.4L177.6,317.4C169.267,322.567 160.85,326.483 152.35,329.15C145.85,331.117 139.35,332.35 132.85,332.85C120.883,332.85 108.567,330.617 95.9,326.15C70.767,315.65 51.033,296.75 36.7,269.45C34.533,265.45 32.533,261.367 30.7,257.2C17.233,227.4 12.9,196.683 17.7,165.05C17.7,160.55 18.367,156.217 19.7,152.05C21.367,143.883 23.45,136.133 25.95,128.8" style="fill-opacity:0.3;"/>
                    <path d="M124.9,39.4L127.1,39.4C140.433,38.567 154.183,41.15 168.35,47.15L173.35,49.15C182.483,53.15 191.05,58.383 199.05,64.85L199.55,65.35C201.717,67.017 203.883,68.85 206.05,70.85L208.8,73.6C211.3,76.1 213.717,78.767 216.05,81.6C223.217,90.1 229.7,99.85 235.5,110.85C237.5,114.65 239.417,118.633 241.25,122.8C247.75,137.8 252.417,153.117 255.25,168.75L255.5,170.75C258.333,189.083 258.583,207.733 256.25,226.7C254.917,231.2 253.917,236.033 253.25,241.2C246.917,270.167 235.433,293.817 218.8,312.15L216.8,314.4L208.55,322.15C205.217,325.15 201.717,327.9 198.05,330.4L196.3,331.65C186.133,337.783 175.983,342.35 165.85,345.35C159.85,346.85 153.85,347.85 147.85,348.35L138.35,348.1L134.1,348.35C120.8,348.35 107.15,345.767 93.15,340.6C61.183,327.3 36.95,301.833 20.45,264.2C16.483,255.367 13.25,246.533 10.75,237.7C3.75,212.9 2.25,187.6 6.25,161.8C6.25,156.8 7,151.967 8.5,147.3C9.167,143.8 9.917,140.467 10.75,137.3C12.417,130.633 14.4,124.3 16.7,118.3C26.533,91.667 42.283,71.117 63.95,56.65C67.617,54.15 71.267,51.9 74.9,49.9C75.4,49.567 75.9,49.317 76.4,49.15C88.067,42.983 100.067,39.733 112.4,39.4L113.4,39.4C117.233,39.067 121.067,39.067 124.9,39.4C134.533,40.233 144.433,42.817 154.6,47.15L159.6,49.15C168.767,53.15 177.333,58.383 185.3,64.85C187.8,66.683 190.217,68.767 192.55,71.1L196.8,75.35L199.55,78.35L203.05,82.35C210.05,90.683 216.3,100.183 221.8,110.85C223.8,114.65 225.717,118.633 227.55,122.8C234.35,138.467 239.083,154.45 241.75,170.75L243,180.75C244.667,195.917 244.5,211.233 242.5,226.7C241.167,231.2 240.167,236.033 239.5,241.2C233.2,270.333 221.717,294.067 205.05,312.4L196.3,321.15C192.467,324.483 188.467,327.567 184.3,330.4L182.55,331.65C172.417,337.783 162.267,342.35 152.1,345.35C147.6,346.517 143.017,347.433 138.35,348.1M174.6,74.35C176.933,76.017 179.333,77.933 181.8,80.1C192.967,89.767 202.55,102.083 210.55,117.05C212.717,121.05 214.8,125.383 216.8,130.05C223.633,145.717 228.133,161.617 230.3,177.75C232.3,192.75 232.3,207.983 230.3,223.45C229.133,227.45 228.3,231.783 227.8,236.45C221.133,266.75 208.3,290.567 189.3,307.9C166,298.567 147.683,282.583 134.35,259.95C132.017,256.45 130.017,252.95 128.35,249.45C118.383,230.317 113.483,210.75 113.65,190.75C113.65,183.583 114.4,176.417 115.9,169.25C115.9,165.283 116.567,161.467 117.9,157.8C119.567,150.8 121.733,144.133 124.4,137.8C125.867,134.3 127.433,130.883 129.1,127.55C138.1,110.417 151.183,96.85 168.35,86.85C172.683,84.183 177.167,81.933 181.8,80.1M164.6,68.1C168.1,69.933 171.433,72.017 174.6,74.35C166.933,76.683 159.433,80.017 152.1,84.35C134.933,94.35 121.867,107.917 112.9,125.05C111.233,128.383 109.65,131.8 108.15,135.3C105.483,141.633 103.317,148.3 101.65,155.3C100.983,157.133 100.483,158.967 100.15,160.8C99.817,162.8 99.65,164.8 99.65,166.8C98.15,173.933 97.4,181.083 97.4,188.25C97.233,208.25 102.15,227.817 112.15,246.95C113.817,250.45 115.817,253.95 118.15,257.45C132.117,281.25 151.683,297.733 176.85,306.9L187.3,309.65L189.3,307.9M113.4,54.9C125.533,54.067 138.183,56.383 151.35,61.85C156.017,63.683 160.433,65.767 164.6,68.1C156.767,70.267 149.183,73.85 141.85,78.85C124.717,89.017 111.817,103.333 103.15,121.8C101.317,124.967 99.817,128.55 98.65,132.55C95.983,139.05 93.9,146.133 92.4,153.8C90.9,157.3 90.233,161.3 90.4,165.8C89.233,172.6 88.65,179.417 88.65,186.25L88.65,188.75C88.65,209.917 93.9,230.817 104.4,251.45C106.233,255.283 108.317,259.117 110.65,262.95C125.283,288.083 145.35,305.567 170.85,315.4L177.6,317.4C169.267,322.567 160.85,326.483 152.35,329.15C145.85,331.117 139.35,332.35 132.85,332.85C120.883,332.85 108.567,330.617 95.9,326.15C70.767,315.65 51.033,296.75 36.7,269.45C34.533,265.45 32.533,261.367 30.7,257.2C17.233,227.4 12.9,196.683 17.7,165.05C17.7,160.55 18.367,156.217 19.7,152.05C21.367,143.883 23.45,136.133 25.95,128.8C27.283,125.3 28.7,121.883 30.2,118.55L30.7,117.05C39.7,97.417 52.7,81.85 69.7,70.35C80.167,63.017 90.983,58.283 102.15,56.15C105.817,55.483 109.567,55.067 113.4,54.9M187.3,309.65L178.1,316.9L177.6,317.4" style="fill:none;fill-rule:nonzero;stroke:#000;stroke-opacity:0.3;stroke-width:0.05px;"/>
                    <path d="M181.8,80.1C177.167,81.933 172.683,84.183 168.35,86.85C151.183,96.85 138.1,110.417 129.1,127.55C127.433,130.883 125.867,134.3 124.4,137.8C121.733,144.133 119.567,150.8 117.9,157.8C116.567,161.467 115.9,165.283 115.9,169.25C114.4,176.417 113.65,183.583 113.65,190.75C113.483,210.75 118.383,230.317 128.35,249.45C130.017,252.95 132.017,256.45 134.35,259.95C147.683,282.583 166,298.567 189.3,307.9L187.3,309.65L176.85,306.9C151.683,297.733 132.117,281.25 118.15,257.45C115.817,253.95 113.817,250.45 112.15,246.95C102.15,227.817 97.233,208.25 97.4,188.25C97.4,181.083 98.15,173.933 99.65,166.8C99.65,164.8 99.817,162.8 100.15,160.8C100.483,158.967 100.983,157.133 101.65,155.3C103.317,148.3 105.483,141.633 108.15,135.3C109.65,131.8 111.233,128.383 112.9,125.05C121.867,107.917 134.933,94.35 152.1,84.35C159.433,80.017 166.933,76.683 174.6,74.35C176.933,76.017 179.333,77.933 181.8,80.1M255.25,168.75L255.5,170.75C258.333,189.083 258.583,207.733 256.25,226.7C254.917,231.2 253.917,236.033 253.25,241.2C246.917,270.167 235.433,293.817 218.8,312.15L216.8,314.4L208.55,322.15C205.217,325.15 201.717,327.9 198.05,330.4L196.3,331.65C186.133,337.783 175.983,342.35 165.85,345.35C159.85,346.85 153.85,347.85 147.85,348.35L138.35,348.1C143.017,347.433 147.6,346.517 152.1,345.35C162.267,342.35 172.417,337.783 182.55,331.65L184.3,330.4C188.467,327.567 192.467,324.483 196.3,321.15L205.05,312.4C221.717,294.067 233.2,270.333 239.5,241.2C240.167,236.033 241.167,231.2 242.5,226.7C244.5,211.233 244.667,195.917 243,180.75C247.667,180.583 251.75,176.583 255.25,168.75" style="fill-opacity:0.35;"/>
                </g>
                <g id="sprite7" transform="matrix(1,0,0,1,44.05,150.65)">
                    <g id="shape8">
                        <path d="M1.9,-14.6L8.65,-10.85C10.483,-9.517 11.817,-7.933 12.65,-6.1C13.483,-4.1 13.733,-1.7 13.4,1.1L12.15,5.85C11.983,5.85 11.9,5.933 11.9,6.1L7.15,9.1C4.65,10.6 2.317,11.767 0.15,12.6L-3.1,13.85L-6.35,14.6C-9.35,14.933 -11.85,14.517 -13.85,13.35L-16.35,11.6C-18.017,9.767 -19.267,7.1 -20.1,3.6C-19.767,0.3 -19.267,-2.85 -18.6,-5.85C-17.933,-9.183 -16.933,-12.183 -15.6,-14.85L-13.6,-18.35C-12.933,-19.517 -11.6,-19.933 -9.6,-19.6C-7.767,-19.433 -5.267,-18.433 -2.1,-16.6L1.9,-14.6" style="fill:#eea923;"/>
                    </g>
                    <g id="oreille6" transform="matrix(1,0,0,1,-74.05,-82.55)">
                        <g id="shape9">
                            <path d="M114.15,53.45C125.983,60.95 137.317,70.517 148.15,82.15C138.983,92.983 130.567,99.15 122.9,100.65L117.9,100.65C114.067,100.317 110.067,99.483 105.9,98.15C112.567,102.15 117.067,106.733 119.4,111.9L119.9,112.9C123.067,121.9 124.817,132.633 125.15,145.1C114.317,148.267 104.167,148.35 94.7,145.35C91.7,144.35 88.783,143.1 85.95,141.6C80.95,136.8 77.367,130.65 75.2,123.15L74.95,131.9C74.617,133.067 74.117,134.317 73.45,135.65C68.95,142.95 56.883,152.767 37.25,165.1C30.583,155.433 28.333,144.367 30.5,131.9C32.667,125.4 35.333,119.567 38.5,114.4C43.633,105.733 50.033,98.983 57.7,94.15C50.2,97.983 43.133,100.483 36.5,101.65C25.333,103.65 15,102.15 5.5,97.15C3.667,96.15 1.833,94.983 0,93.65L5.5,86.65C13.667,76.517 22.333,68.283 31.5,61.95L34.25,60.2C39.417,57.533 45.483,57.283 52.45,59.45C49.783,55.117 47.783,50.533 46.45,45.7C45.783,43.367 45.3,41.033 45,38.7C46.8,23.067 53.783,10.167 65.95,0C71.617,6.667 76.533,12.833 80.7,18.5C89.533,31.133 94.45,41.533 95.45,49.7C95.117,50.867 94.617,52.117 93.95,53.45C99.083,51.283 104.067,50.7 108.9,51.7C110.733,52.033 112.483,52.617 114.15,53.45M82.7,71.7L75.95,67.95L71.95,65.95C68.783,64.117 66.283,63.117 64.45,62.95C62.45,62.617 61.117,63.033 60.45,64.2L58.45,67.7C57.117,70.367 56.117,73.367 55.45,76.7C54.783,79.7 54.283,82.85 53.95,86.15C54.783,89.65 56.033,92.317 57.7,94.15L60.2,95.9C62.2,97.067 64.7,97.483 67.7,97.15L70.95,96.4L74.2,95.15C76.367,94.317 78.7,93.15 81.2,91.65L85.95,88.65C85.95,88.483 86.033,88.4 86.2,88.4L87.45,83.65C87.783,80.85 87.533,78.45 86.7,76.45C85.867,74.617 84.533,73.033 82.7,71.7" style="fill:#3bafc7;"/>
                        </g>
                    </g>
                    <g id="shape10">
                        <path d="M43.85,18.1C40.017,17.767 36.017,16.933 31.85,15.6C38.517,19.6 43.017,24.183 45.35,29.35L45.85,30.35L42.35,53.8C37.683,58.633 30.45,61.633 20.65,62.8C17.65,61.8 14.733,60.55 11.9,59.05C6.9,54.25 3.317,48.1 1.15,40.6L0.9,49.35L-0.6,53.1C-19.1,65.567 -30.75,69.633 -35.55,65.3C-37.717,57.8 -37.717,46.65 -35.55,31.85C-30.417,23.183 -24.017,16.433 -16.35,11.6C-23.85,15.433 -30.917,17.933 -37.55,19.1C-49.217,16.433 -56.633,13.017 -59.8,8.85C-60.3,4.183 -53.633,-6.217 -39.8,-22.35C-34.633,-25.017 -28.567,-25.267 -21.6,-23.1C-24.267,-27.433 -26.267,-32.017 -27.6,-36.85C-17.267,-53.817 -9.017,-63.717 -2.85,-66.55C-0.35,-68.05 2.817,-67.217 6.65,-64.05C15.483,-51.417 20.4,-41.017 21.4,-32.85C21.067,-31.683 20.567,-30.433 19.9,-29.1C25.033,-31.267 30.017,-31.85 34.85,-30.85C47.017,-19.183 55.35,-9.267 59.85,-1.1C62.183,2.867 56.85,9.267 43.85,18.1M12.65,-6.1C11.817,-7.933 10.483,-9.517 8.65,-10.85L1.9,-14.6C0.4,-32.267 -1.683,-43.017 -4.35,-46.85C-4.017,-42.35 -5.767,-33.267 -9.6,-19.6C-11.6,-19.933 -12.933,-19.517 -13.6,-18.35L-15.6,-14.85C-16.933,-12.183 -17.933,-9.183 -18.6,-5.85C-30.067,-8.517 -40.217,-5.617 -49.05,2.85C-43.717,0.217 -34.067,0.467 -20.1,3.6C-19.267,7.1 -18.017,9.767 -16.35,11.6L-13.85,13.35C-19.183,24.683 -22.183,35.267 -22.85,45.1L-6.35,14.6L-3.1,13.85L0.15,12.6C12.65,21.433 22.55,30.35 29.85,39.35C27.517,31.017 19.95,20.933 7.15,9.1L11.9,6.1C11.9,5.933 11.983,5.85 12.15,5.85L13.4,1.1C26.7,-3.533 35.933,-6.017 41.1,-6.35C38.1,-11.183 28.617,-11.1 12.65,-6.1M8.65,-10.85C13.817,-18.017 17.567,-24.1 19.9,-29.1C17.567,-24.1 13.817,-18.017 8.65,-10.85M12.15,5.85C18.983,10.183 25.55,13.433 31.85,15.6C25.55,13.433 18.983,10.183 12.15,5.85M-21.6,-23.1C-20.267,-20.933 -18.267,-18.183 -15.6,-14.85C-18.267,-18.183 -20.267,-20.933 -21.6,-23.1M-3.1,13.85C-0.433,22.183 0.983,31.1 1.15,40.6C0.983,31.1 -0.433,22.183 -3.1,13.85" style="fill:#fff;fill-opacity:0.24;"/>
                        <path d="M34.85,-30.85C36.683,-30.517 38.433,-29.933 40.1,-29.1C51.933,-21.6 63.267,-12.033 74.1,-0.4C64.933,10.433 56.517,16.6 48.85,18.1L43.85,18.1C56.85,9.267 62.183,2.867 59.85,-1.1C55.35,-9.267 47.017,-19.183 34.85,-30.85M45.85,30.35C49.017,39.35 50.767,50.083 51.1,62.55C40.267,65.717 30.117,65.8 20.65,62.8C30.45,61.633 37.683,58.633 42.35,53.8L45.85,30.35M-0.6,53.1C-5.1,60.4 -17.167,70.217 -36.8,82.55C-43.467,72.883 -45.717,61.817 -43.55,49.35C-41.383,42.85 -38.717,37.017 -35.55,31.85C-37.717,46.65 -37.717,57.8 -35.55,65.3C-30.75,69.633 -19.1,65.567 -0.6,53.1M-37.55,19.1C-48.717,21.1 -59.05,19.6 -68.55,14.6C-70.383,13.6 -72.217,12.433 -74.05,11.1C-72.217,8.6 -70.383,6.267 -68.55,4.1C-60.383,-6.033 -51.717,-14.267 -42.55,-20.6L-39.8,-22.35C-53.633,-6.217 -60.3,4.183 -59.8,8.85C-56.633,13.017 -49.217,16.433 -37.55,19.1M-27.6,-36.85C-28.267,-39.183 -28.75,-41.517 -29.05,-43.85C-27.25,-59.483 -20.267,-72.383 -8.1,-82.55C-2.433,-75.883 2.483,-69.717 6.65,-64.05C2.817,-67.217 -0.35,-68.05 -2.85,-66.55C-9.017,-63.717 -17.267,-53.817 -27.6,-36.85" style="fill:#fff;fill-opacity:0.45;"/>
                        <path d="M1.9,-14.6L-2.1,-16.6C-5.267,-18.433 -7.767,-19.433 -9.6,-19.6C-5.767,-33.267 -4.017,-42.35 -4.35,-46.85C-1.683,-43.017 0.4,-32.267 1.9,-14.6M-18.6,-5.85C-19.267,-2.85 -19.767,0.3 -20.1,3.6C-34.067,0.467 -43.717,0.217 -49.05,2.85C-40.217,-5.617 -30.067,-8.517 -18.6,-5.85M-13.85,13.35C-11.85,14.517 -9.35,14.933 -6.35,14.6L-22.85,45.1C-22.183,35.267 -19.183,24.683 -13.85,13.35M0.15,12.6C2.317,11.767 4.65,10.6 7.15,9.1C19.95,20.933 27.517,31.017 29.85,39.35C22.55,30.35 12.65,21.433 0.15,12.6M13.4,1.1C13.733,-1.7 13.483,-4.1 12.65,-6.1C28.617,-11.1 38.1,-11.183 41.1,-6.35C35.933,-6.017 26.7,-3.533 13.4,1.1" style="fill-opacity:0.35;"/>
                        <path d="M34.85,-30.85C36.683,-30.517 38.433,-29.933 40.1,-29.1C51.933,-21.6 63.267,-12.033 74.1,-0.4C64.933,10.433 56.517,16.6 48.85,18.1L43.85,18.1C40.017,17.767 36.017,16.933 31.85,15.6C38.517,19.6 43.017,24.183 45.35,29.35L45.85,30.35C49.017,39.35 50.767,50.083 51.1,62.55C40.267,65.717 30.117,65.8 20.65,62.8C17.65,61.8 14.733,60.55 11.9,59.05C6.9,54.25 3.317,48.1 1.15,40.6L0.9,49.35L-0.6,53.1C-5.1,60.4 -17.167,70.217 -36.8,82.55C-43.467,72.883 -45.717,61.817 -43.55,49.35C-41.383,42.85 -38.717,37.017 -35.55,31.85C-30.417,23.183 -24.017,16.433 -16.35,11.6C-23.85,15.433 -30.917,17.933 -37.55,19.1C-48.717,21.1 -59.05,19.6 -68.55,14.6C-70.383,13.6 -72.217,12.433 -74.05,11.1C-72.217,8.6 -70.383,6.267 -68.55,4.1C-60.383,-6.033 -51.717,-14.267 -42.55,-20.6L-39.8,-22.35C-34.633,-25.017 -28.567,-25.267 -21.6,-23.1C-24.267,-27.433 -26.267,-32.017 -27.6,-36.85C-28.267,-39.183 -28.75,-41.517 -29.05,-43.85C-27.25,-59.483 -20.267,-72.383 -8.1,-82.55C-2.433,-75.883 2.483,-69.717 6.65,-64.05C15.483,-51.417 20.4,-41.017 21.4,-32.85C21.067,-31.683 20.567,-30.433 19.9,-29.1C25.033,-31.267 30.017,-31.85 34.85,-30.85M12.65,-6.1C11.817,-7.933 10.483,-9.517 8.65,-10.85L1.9,-14.6L-2.1,-16.6C-5.267,-18.433 -7.767,-19.433 -9.6,-19.6C-11.6,-19.933 -12.933,-19.517 -13.6,-18.35L-15.6,-14.85C-16.933,-12.183 -17.933,-9.183 -18.6,-5.85C-19.267,-2.85 -19.767,0.3 -20.1,3.6C-19.267,7.1 -18.017,9.767 -16.35,11.6L-13.85,13.35C-11.85,14.517 -9.35,14.933 -6.35,14.6L-3.1,13.85L0.15,12.6C2.317,11.767 4.65,10.6 7.15,9.1L11.9,6.1C11.9,5.933 11.983,5.85 12.15,5.85L13.4,1.1C13.733,-1.7 13.483,-4.1 12.65,-6.1M19.9,-29.1C17.567,-24.1 13.817,-18.017 8.65,-10.85M31.85,15.6C25.55,13.433 18.983,10.183 12.15,5.85M-15.6,-14.85C-18.267,-18.183 -20.267,-20.933 -21.6,-23.1M1.15,40.6C0.983,31.1 -0.433,22.183 -3.1,13.85" style="fill:none;fill-rule:nonzero;stroke:#000;stroke-opacity:0.3;stroke-width:0.05px;"/>
                    </g>
                </g>
                <g id="sprite71" serif:id="sprite7" transform="matrix(1,0,0,1,100.5,263.55)">
                    <g id="shape81" serif:id="shape8">
                        <path d="M1.9,-14.6L8.65,-10.85C10.483,-9.517 11.817,-7.933 12.65,-6.1C13.483,-4.1 13.733,-1.7 13.4,1.1L12.15,5.85C11.983,5.85 11.9,5.933 11.9,6.1L7.15,9.1C4.65,10.6 2.317,11.767 0.15,12.6L-3.1,13.85L-6.35,14.6C-9.35,14.933 -11.85,14.517 -13.85,13.35L-16.35,11.6C-18.017,9.767 -19.267,7.1 -20.1,3.6C-19.767,0.3 -19.267,-2.85 -18.6,-5.85C-17.933,-9.183 -16.933,-12.183 -15.6,-14.85L-13.6,-18.35C-12.933,-19.517 -11.6,-19.933 -9.6,-19.6C-7.767,-19.433 -5.267,-18.433 -2.1,-16.6L1.9,-14.6" style="fill:#eea923;"/>
                    </g>
                    <g id="oreille61" serif:id="oreille6" transform="matrix(1,0,0,1,-74.05,-82.55)">
                        <g id="shape91" serif:id="shape9">
                            <path d="M114.15,53.45C125.983,60.95 137.317,70.517 148.15,82.15C138.983,92.983 130.567,99.15 122.9,100.65L117.9,100.65C114.067,100.317 110.067,99.483 105.9,98.15C112.567,102.15 117.067,106.733 119.4,111.9L119.9,112.9C123.067,121.9 124.817,132.633 125.15,145.1C114.317,148.267 104.167,148.35 94.7,145.35C91.7,144.35 88.783,143.1 85.95,141.6C80.95,136.8 77.367,130.65 75.2,123.15L74.95,131.9C74.617,133.067 74.117,134.317 73.45,135.65C68.95,142.95 56.883,152.767 37.25,165.1C30.583,155.433 28.333,144.367 30.5,131.9C32.667,125.4 35.333,119.567 38.5,114.4C43.633,105.733 50.033,98.983 57.7,94.15C50.2,97.983 43.133,100.483 36.5,101.65C25.333,103.65 15,102.15 5.5,97.15C3.667,96.15 1.833,94.983 0,93.65L5.5,86.65C13.667,76.517 22.333,68.283 31.5,61.95L34.25,60.2C39.417,57.533 45.483,57.283 52.45,59.45C49.783,55.117 47.783,50.533 46.45,45.7C45.783,43.367 45.3,41.033 45,38.7C46.8,23.067 53.783,10.167 65.95,0C71.617,6.667 76.533,12.833 80.7,18.5C89.533,31.133 94.45,41.533 95.45,49.7C95.117,50.867 94.617,52.117 93.95,53.45C99.083,51.283 104.067,50.7 108.9,51.7C110.733,52.033 112.483,52.617 114.15,53.45M82.7,71.7L75.95,67.95L71.95,65.95C68.783,64.117 66.283,63.117 64.45,62.95C62.45,62.617 61.117,63.033 60.45,64.2L58.45,67.7C57.117,70.367 56.117,73.367 55.45,76.7C54.783,79.7 54.283,82.85 53.95,86.15C54.783,89.65 56.033,92.317 57.7,94.15L60.2,95.9C62.2,97.067 64.7,97.483 67.7,97.15L70.95,96.4L74.2,95.15C76.367,94.317 78.7,93.15 81.2,91.65L85.95,88.65C85.95,88.483 86.033,88.4 86.2,88.4L87.45,83.65C87.783,80.85 87.533,78.45 86.7,76.45C85.867,74.617 84.533,73.033 82.7,71.7" style="fill:#3bafc7;"/>
                        </g>
                    </g>
                    <g id="shape101" serif:id="shape10">
                        <path d="M43.85,18.1C40.017,17.767 36.017,16.933 31.85,15.6C38.517,19.6 43.017,24.183 45.35,29.35L45.85,30.35L42.35,53.8C37.683,58.633 30.45,61.633 20.65,62.8C17.65,61.8 14.733,60.55 11.9,59.05C6.9,54.25 3.317,48.1 1.15,40.6L0.9,49.35L-0.6,53.1C-19.1,65.567 -30.75,69.633 -35.55,65.3C-37.717,57.8 -37.717,46.65 -35.55,31.85C-30.417,23.183 -24.017,16.433 -16.35,11.6C-23.85,15.433 -30.917,17.933 -37.55,19.1C-49.217,16.433 -56.633,13.017 -59.8,8.85C-60.3,4.183 -53.633,-6.217 -39.8,-22.35C-34.633,-25.017 -28.567,-25.267 -21.6,-23.1C-24.267,-27.433 -26.267,-32.017 -27.6,-36.85C-17.267,-53.817 -9.017,-63.717 -2.85,-66.55C-0.35,-68.05 2.817,-67.217 6.65,-64.05C15.483,-51.417 20.4,-41.017 21.4,-32.85C21.067,-31.683 20.567,-30.433 19.9,-29.1C25.033,-31.267 30.017,-31.85 34.85,-30.85C47.017,-19.183 55.35,-9.267 59.85,-1.1C62.183,2.867 56.85,9.267 43.85,18.1M12.65,-6.1C11.817,-7.933 10.483,-9.517 8.65,-10.85L1.9,-14.6C0.4,-32.267 -1.683,-43.017 -4.35,-46.85C-4.017,-42.35 -5.767,-33.267 -9.6,-19.6C-11.6,-19.933 -12.933,-19.517 -13.6,-18.35L-15.6,-14.85C-16.933,-12.183 -17.933,-9.183 -18.6,-5.85C-30.067,-8.517 -40.217,-5.617 -49.05,2.85C-43.717,0.217 -34.067,0.467 -20.1,3.6C-19.267,7.1 -18.017,9.767 -16.35,11.6L-13.85,13.35C-19.183,24.683 -22.183,35.267 -22.85,45.1L-6.35,14.6L-3.1,13.85L0.15,12.6C12.65,21.433 22.55,30.35 29.85,39.35C27.517,31.017 19.95,20.933 7.15,9.1L11.9,6.1C11.9,5.933 11.983,5.85 12.15,5.85L13.4,1.1C26.7,-3.533 35.933,-6.017 41.1,-6.35C38.1,-11.183 28.617,-11.1 12.65,-6.1M8.65,-10.85C13.817,-18.017 17.567,-24.1 19.9,-29.1C17.567,-24.1 13.817,-18.017 8.65,-10.85M12.15,5.85C18.983,10.183 25.55,13.433 31.85,15.6C25.55,13.433 18.983,10.183 12.15,5.85M-21.6,-23.1C-20.267,-20.933 -18.267,-18.183 -15.6,-14.85C-18.267,-18.183 -20.267,-20.933 -21.6,-23.1M-3.1,13.85C-0.433,22.183 0.983,31.1 1.15,40.6C0.983,31.1 -0.433,22.183 -3.1,13.85" style="fill:#fff;fill-opacity:0.24;"/>
                        <path d="M34.85,-30.85C36.683,-30.517 38.433,-29.933 40.1,-29.1C51.933,-21.6 63.267,-12.033 74.1,-0.4C64.933,10.433 56.517,16.6 48.85,18.1L43.85,18.1C56.85,9.267 62.183,2.867 59.85,-1.1C55.35,-9.267 47.017,-19.183 34.85,-30.85M45.85,30.35C49.017,39.35 50.767,50.083 51.1,62.55C40.267,65.717 30.117,65.8 20.65,62.8C30.45,61.633 37.683,58.633 42.35,53.8L45.85,30.35M-0.6,53.1C-5.1,60.4 -17.167,70.217 -36.8,82.55C-43.467,72.883 -45.717,61.817 -43.55,49.35C-41.383,42.85 -38.717,37.017 -35.55,31.85C-37.717,46.65 -37.717,57.8 -35.55,65.3C-30.75,69.633 -19.1,65.567 -0.6,53.1M-37.55,19.1C-48.717,21.1 -59.05,19.6 -68.55,14.6C-70.383,13.6 -72.217,12.433 -74.05,11.1C-72.217,8.6 -70.383,6.267 -68.55,4.1C-60.383,-6.033 -51.717,-14.267 -42.55,-20.6L-39.8,-22.35C-53.633,-6.217 -60.3,4.183 -59.8,8.85C-56.633,13.017 -49.217,16.433 -37.55,19.1M-27.6,-36.85C-28.267,-39.183 -28.75,-41.517 -29.05,-43.85C-27.25,-59.483 -20.267,-72.383 -8.1,-82.55C-2.433,-75.883 2.483,-69.717 6.65,-64.05C2.817,-67.217 -0.35,-68.05 -2.85,-66.55C-9.017,-63.717 -17.267,-53.817 -27.6,-36.85" style="fill:#fff;fill-opacity:0.45;"/>
                        <path d="M1.9,-14.6L-2.1,-16.6C-5.267,-18.433 -7.767,-19.433 -9.6,-19.6C-5.767,-33.267 -4.017,-42.35 -4.35,-46.85C-1.683,-43.017 0.4,-32.267 1.9,-14.6M-18.6,-5.85C-19.267,-2.85 -19.767,0.3 -20.1,3.6C-34.067,0.467 -43.717,0.217 -49.05,2.85C-40.217,-5.617 -30.067,-8.517 -18.6,-5.85M-13.85,13.35C-11.85,14.517 -9.35,14.933 -6.35,14.6L-22.85,45.1C-22.183,35.267 -19.183,24.683 -13.85,13.35M0.15,12.6C2.317,11.767 4.65,10.6 7.15,9.1C19.95,20.933 27.517,31.017 29.85,39.35C22.55,30.35 12.65,21.433 0.15,12.6M13.4,1.1C13.733,-1.7 13.483,-4.1 12.65,-6.1C28.617,-11.1 38.1,-11.183 41.1,-6.35C35.933,-6.017 26.7,-3.533 13.4,1.1" style="fill-opacity:0.35;"/>
                        <path d="M34.85,-30.85C36.683,-30.517 38.433,-29.933 40.1,-29.1C51.933,-21.6 63.267,-12.033 74.1,-0.4C64.933,10.433 56.517,16.6 48.85,18.1L43.85,18.1C40.017,17.767 36.017,16.933 31.85,15.6C38.517,19.6 43.017,24.183 45.35,29.35L45.85,30.35C49.017,39.35 50.767,50.083 51.1,62.55C40.267,65.717 30.117,65.8 20.65,62.8C17.65,61.8 14.733,60.55 11.9,59.05C6.9,54.25 3.317,48.1 1.15,40.6L0.9,49.35L-0.6,53.1C-5.1,60.4 -17.167,70.217 -36.8,82.55C-43.467,72.883 -45.717,61.817 -43.55,49.35C-41.383,42.85 -38.717,37.017 -35.55,31.85C-30.417,23.183 -24.017,16.433 -16.35,11.6C-23.85,15.433 -30.917,17.933 -37.55,19.1C-48.717,21.1 -59.05,19.6 -68.55,14.6C-70.383,13.6 -72.217,12.433 -74.05,11.1C-72.217,8.6 -70.383,6.267 -68.55,4.1C-60.383,-6.033 -51.717,-14.267 -42.55,-20.6L-39.8,-22.35C-34.633,-25.017 -28.567,-25.267 -21.6,-23.1C-24.267,-27.433 -26.267,-32.017 -27.6,-36.85C-28.267,-39.183 -28.75,-41.517 -29.05,-43.85C-27.25,-59.483 -20.267,-72.383 -8.1,-82.55C-2.433,-75.883 2.483,-69.717 6.65,-64.05C15.483,-51.417 20.4,-41.017 21.4,-32.85C21.067,-31.683 20.567,-30.433 19.9,-29.1C25.033,-31.267 30.017,-31.85 34.85,-30.85M12.65,-6.1C11.817,-7.933 10.483,-9.517 8.65,-10.85L1.9,-14.6L-2.1,-16.6C-5.267,-18.433 -7.767,-19.433 -9.6,-19.6C-11.6,-19.933 -12.933,-19.517 -13.6,-18.35L-15.6,-14.85C-16.933,-12.183 -17.933,-9.183 -18.6,-5.85C-19.267,-2.85 -19.767,0.3 -20.1,3.6C-19.267,7.1 -18.017,9.767 -16.35,11.6L-13.85,13.35C-11.85,14.517 -9.35,14.933 -6.35,14.6L-3.1,13.85L0.15,12.6C2.317,11.767 4.65,10.6 7.15,9.1L11.9,6.1C11.9,5.933 11.983,5.85 12.15,5.85L13.4,1.1C13.733,-1.7 13.483,-4.1 12.65,-6.1M19.9,-29.1C17.567,-24.1 13.817,-18.017 8.65,-10.85M31.85,15.6C25.55,13.433 18.983,10.183 12.15,5.85M-15.6,-14.85C-18.267,-18.183 -20.267,-20.933 -21.6,-23.1M1.15,40.6C0.983,31.1 -0.433,22.183 -3.1,13.85" style="fill:none;fill-rule:nonzero;stroke:#000;stroke-opacity:0.3;stroke-width:0.05px;"/>
                    </g>
                </g>
            </g>
        </g>
    </g>
</svg>
