<?xml version="1.0" encoding="UTF-8" standalone="no"?>
<!DOCTYPE svg PUBLIC "-//W3C//DTD SVG 1.1//EN" "http://www.w3.org/Graphics/SVG/1.1/DTD/svg11.dtd">
<svg width="100%" height="100%" viewBox="0 0 14 18" version="1.1" xmlns="http://www.w3.org/2000/svg" xmlns:xlink="http://www.w3.org/1999/xlink" xml:space="preserve" xmlns:serif="http://www.serif.com/" style="fill-rule:evenodd;clip-rule:evenodd;stroke-linecap:round;stroke-linejoin:round;">
    <g transform="matrix(1,0,0,1,0.015505,-0.0179741)">
        <g transform="matrix(1.0005,0,0,1.0004,6.65032,8.69978)">
            <g id="sprite0">
                <g id="shape0">
                    <path d="M2.55,-6.15L2.4,-6.2L2.4,-6.25L0.95,-7.7L0.8,-7.8C0.2,-8.267 -0.4,-8.5 -1,-8.5L-1.05,-8.5L-0.65,-8.65L-0.5,-8.65C0.1,-8.683 0.7,-8.467 1.3,-8L1.45,-7.9L2.85,-6.45L2.85,-6.4L3,-6.4L2.55,-6.15M3.55,-6L3.6,-6L3.65,-5.5L3.65,-5.45L3.8,-5.4L3.35,-5.2L3.2,-5.25L3.1,-5.75L3.05,-5.75L3.55,-6M4.15,-5.25L4.2,-5.15L4.15,-4.75L4.1,-4.75L4.1,-4.7L4.4,-4.3C5.133,-2.9 5.833,-1.033 6.5,1.3L6.75,2.9C6.75,4.367 6.2,5.617 5.1,6.65C4.5,7.217 3.833,7.65 3.1,7.95L4.6,6.9C5.7,5.833 6.25,4.583 6.25,3.15L6,1.5C5.367,-0.8 4.667,-2.667 3.9,-4.1L3.6,-4.55L3.65,-4.9L3.6,-5L4.15,-5.25" style="fill:#658383;"/>
                    <path d="M3,-6.4L3.05,-6.35L3.45,-6.1L3.55,-6L3.05,-5.75L2.95,-5.9L2.55,-6.15L3,-6.4M3.8,-5.4L3.9,-5.4L4.15,-5.25L3.6,-5L3.35,-5.2L3.8,-5.4M-4.25,-4L-3.75,-3.05L-3.85,-2.8L-4.25,-4" style="fill:#849f9f;"/>
                    <path d="M-2.3,-7.95L-2.25,-7.5L-2.8,-7.15L-2.9,-7.5C-2.8,-7.967 -2.6,-8.117 -2.3,-7.95" style="fill:#e7edea;"/>
                    <path d="M-1.05,-8.5L-0.65,-8.65L-0.5,-8.65C0.1,-8.683 0.7,-8.467 1.3,-8L1.45,-7.9L2.85,-6.45L2.85,-6.4L3,-6.4L3.05,-6.35L3.45,-6.1L3.55,-6L3.6,-6L3.65,-5.5L3.65,-5.45L3.8,-5.4L3.9,-5.4L4.15,-5.25L4.2,-5.15L4.15,-4.75L4.1,-4.75L4.1,-4.7L4.4,-4.3C5.133,-2.9 5.833,-1.033 6.5,1.3L6.75,2.9C6.75,4.367 6.2,5.617 5.1,6.65C4.5,7.217 3.833,7.65 3.1,7.95M-2.9,-7.5C-2.8,-7.967 -2.6,-8.117 -2.3,-7.95" style="fill:none;fill-rule:nonzero;stroke:#000;stroke-opacity:0.6;stroke-width:0.05px;"/>
                    <path d="M-4.25,4.75C-3.683,5.517 -2.817,6.133 -1.65,6.6L-1.6,6.6L-1.2,6.75L-1.15,6.75L0.45,6.6" style="fill:none;fill-rule:nonzero;stroke:#000;stroke-opacity:0.3;stroke-width:0.05px;"/>
                    <path d="M-1.25,-8.45L-1.1,-8.45L-1.05,-8.5L-1,-8.5C-0.4,-8.5 0.2,-8.267 0.8,-7.8L0.95,-7.7L2.4,-6.25L2.4,-6.2L2.55,-6.15L1,-4.3L2.95,-5.9L3.05,-5.75L3.1,-5.75L3.2,-5.25L3.35,-5.2L2.15,-4.2L3.65,-4.9L3.6,-4.55L1,-3.3L0.8,-3.55L0.5,-3.95L0.15,-4.35L-0.05,-4.5C-0.517,-4.9 -1,-5.1 -1.5,-5.1L-1.95,-8.2C-1.783,-8.3 -1.6,-8.383 -1.4,-8.45L-1.25,-8.45M1.75,-6.4L0.7,-7.5L-0.95,-8.25L-1.4,-7.95C-0.133,-7.717 0.917,-7.067 1.75,-6L1.75,-6.4M3.9,-4.1C4.667,-2.667 5.367,-0.8 6,1.5L6.25,3.15C6.25,4.583 5.7,5.833 4.6,6.9L3.1,7.95L2.95,8L2.45,8.2C2.35,8.6 2.117,8.667 1.75,8.4L1,8.5L-0.1,8.55L-0.9,8.55L-1.8,8.3L-2.5,7.95C-3.967,7.15 -5.067,6.083 -5.8,4.75L-6.3,3.7L-6.1,3.25L-6.35,1.8L-6,-0.4L-5.5,-0.15L-5.7,-0.85L-4.65,-4.65L-4.3,-4.35L-4.25,-5.35L-4.2,-5.4C-3.833,-6.133 -3.367,-6.683 -2.8,-7.05L-2.2,-4.8L-2.8,-7.05L-2.8,-7.15L-2.25,-7.5L-1.8,-4.95L-2.2,-4.8C-2.767,-4.467 -3.267,-3.9 -3.7,-3.1L-3.75,-3.05L-4.25,-4L-3.85,-2.8L-3.9,-2.7C-4.4,-1.7 -4.817,-0.367 -5.15,1.3L-5.2,1.55L-5.25,2.25L-5.25,2.5L-5.2,2.75L-5.2,2.85L-5.15,2.95L-5.1,3.25L-5,3.4L-4.95,3.6L-4.6,4.25L-4.25,4.75C-4.25,5.25 -3.933,5.8 -3.3,6.4L-2.1,7.05L-1.6,6.85L-0.8,7.55L0.8,7.8L1,8.5L0.8,7.8L1.05,7.95L1.45,7.65L2,7.45C2.8,7.117 3.383,6.583 3.75,5.85C4.117,5.45 4.3,4.867 4.3,4.1L4.3,3.4L4.1,2.5L2.45,-1.85L2.4,-1.95L1.7,-3.2L3.9,-4.1M2.45,8.2L2,7.45L2.45,8.2M0.8,-3.55L3.2,-5.25L0.8,-3.55M0.5,-3.95L2.4,-6.2L0.5,-3.95M1.75,8.4L1.45,7.65L1.75,8.4" style="fill:#cfdada;"/>
                    <path d="M2.55,-6.15L2.95,-5.9L1,-4.3L2.55,-6.15M3.35,-5.2L3.6,-5L3.65,-4.9L2.15,-4.2L3.35,-5.2M-6.3,3.7C-6.6,3.033 -6.7,2.367 -6.6,1.7L-6.45,0.7C-5.65,-3.4 -4.467,-6.133 -2.9,-7.5L-2.8,-7.15L-2.8,-7.05C-3.367,-6.683 -3.833,-6.133 -4.2,-5.4L-4.25,-5.35L-4.3,-4.35L-4.65,-4.65L-5.7,-0.85L-5.5,-0.15L-6,-0.4L-6.35,1.8L-6.1,3.25L-6.3,3.7" style="fill:#e7edea;"/>
                    <path d="M3.6,-4.55L3.9,-4.1L1.7,-3.2L2.4,-1.95L2.45,-1.85L4.1,2.5L4.3,3.4L4.3,4.1C4.3,4.867 4.117,5.45 3.75,5.85C3.383,6.583 2.8,7.117 2,7.45L1.45,7.65L1.05,7.95L0.8,7.8L-0.8,7.55L-1.6,6.85L-2.1,7.05L-3.3,6.4C-3.933,5.8 -4.25,5.25 -4.25,4.75C-3.683,5.517 -2.817,6.133 -1.65,6.6L-1.6,6.6L-1.2,6.75L-1.15,6.75L0.45,6.6L1,6.45L1.3,6.25L2.2,5.6L2.25,5.7C2.417,6 2.733,6.183 3.2,6.25C2.767,5.983 2.533,5.683 2.5,5.35C3.3,4.383 3.55,3.25 3.25,1.95L3.05,1.2L2.95,0.9L2.15,-1.3L1.35,-2.85L1.3,-2.9L1.25,-3L1.15,-3.05L1.1,-3.2L1,-3.3L3.6,-4.55M-2.25,-7.5L-2.3,-7.95L-1.95,-8.2L-1.5,-5.1L-1.8,-4.95L-2.25,-7.5M1.3,6.25L2,7.45L1.3,6.25M1,6.45L1.45,7.65L1,6.45M0.45,6.6L0.8,7.8L0.45,6.6" style="fill:#849f9f;"/>
                    <path d="M2.2,5.6L2.35,5.45L2.5,5.35C2.533,5.683 2.767,5.983 3.2,6.25C2.733,6.183 2.417,6 2.25,5.7L2.2,5.6" style="fill:#779595;"/>
                    <path d="M-1.25,-8.45L-1.1,-8.45L-1.05,-8.5L-1,-8.5C-0.4,-8.5 0.2,-8.267 0.8,-7.8L0.95,-7.7L2.4,-6.25L2.85,-6.45M2.4,-6.25L2.4,-6.2L2.55,-6.15L2.95,-5.9L3.05,-5.75L3.1,-5.75L3.2,-5.25L3.65,-5.5M3.2,-5.25L3.35,-5.2L3.6,-5L3.65,-4.9L3.6,-4.55L4.1,-4.7M3.6,-4.55L3.9,-4.1C4.667,-2.667 5.367,-0.8 6,1.5L6.25,3.15C6.25,4.583 5.7,5.833 4.6,6.9L3.1,7.95M-0.1,8.55L-0.15,8.55M-2.9,-7.5L-2.8,-7.15L-2.8,-7.05L-2.2,-4.8C-2.767,-4.467 -3.267,-3.9 -3.7,-3.1M-2.25,-7.5L-2.3,-7.95M1.1,-3.2L1,-3.3L0.8,-3.55L0.5,-3.95L0.15,-4.35L-0.05,-4.5C-0.517,-4.9 -1,-5.1 -1.5,-5.1L-1.8,-4.95L-2.2,-4.8M-3.9,-2.7C-4.4,-1.7 -4.817,-0.367 -5.15,1.3L-5.2,1.55L-5.25,2.25L-5.25,2.5L-5.2,2.75L-5.2,2.85L-5.15,2.95L-5.1,3.25L-5,3.4M-4.95,3.6L-4.6,4.25L-4.25,4.75M0.45,6.6L1,6.45L1.3,6.25L2.2,5.6M2.5,5.35C3.3,4.383 3.55,3.25 3.25,1.95L3.05,1.2L2.95,0.9L2.15,-1.3L1.35,-2.85L1.3,-2.9L1.25,-3L1.15,-3.05M2,7.45L2.45,8.2M1,-3.3L3.6,-4.55M3.2,-5.25L0.8,-3.55M2.4,-6.2L0.5,-3.95M1.45,7.65L1.75,8.4M2,7.45L1.3,6.25M1,8.5L0.8,7.8L0.45,6.6M1.45,7.65L1,6.45M-1.8,-4.95L-2.25,-7.5" style="fill:none;fill-rule:nonzero;stroke:#000;stroke-opacity:0.3;stroke-width:0.05px;"/>
                    <path d="M3.1,7.95L2.95,8L2.45,8.2C2.35,8.6 2.117,8.667 1.75,8.4L1,8.5L-0.1,8.55M-0.15,8.55L-0.9,8.55L-1.8,8.3L-2.5,7.95C-3.967,7.15 -5.067,6.083 -5.8,4.75L-6.3,3.7C-6.6,3.033 -6.7,2.367 -6.6,1.7L-6.45,0.7C-5.65,-3.4 -4.467,-6.133 -2.9,-7.5M-2.3,-7.95L-1.95,-8.2C-1.783,-8.3 -1.6,-8.383 -1.4,-8.45L-1.25,-8.45" style="fill:none;fill-rule:nonzero;stroke:#000;stroke-opacity:0.6;stroke-width:0.05px;"/>
                    <path d="M-3.75,-3.05L-4.25,-4" style="fill:none;fill-rule:nonzero;stroke:#e7edea;stroke-width:0.05px;"/>
                </g>
                <g id="sprite1" transform="matrix(1,0,0,1,3.85,-2)">
                    <g id="shape1">
                        <path d="M0.25,-0.8L0.45,-0.55C0.65,-0.183 0.783,0.233 0.85,0.7L0.9,1.1C0.2,1.133 -0.383,0.95 -0.85,0.55L-0.9,0.5L-0.6,-0.55L-0.05,-1.15L0.25,-0.8" style="fill:#a04545;"/>
                    </g>
                </g>
                <g id="shape2">
                    <path d="M3.85,-2.9L4.1,-2.45C3.767,-2.383 3.483,-2.2 3.25,-1.9C3.25,-2.3 3.383,-2.633 3.65,-2.9L3.85,-2.9" style="fill:#fff;fill-opacity:0.8;"/>
                    <path d="M4.7,-1.3L4.3,-2.55L4.8,-1.9L5.1,-0.75L4.8,-0.65L4.7,-0.65C4.067,-0.65 3.55,-0.817 3.15,-1.15L3.1,-1.2L3,-1.45C3.467,-1.05 4.05,-0.867 4.75,-0.9L4.7,-1.3" style="fill:#849f9f;"/>
                    <path d="M4.7,-1.3L4.75,-0.9C4.05,-0.867 3.467,-1.05 3,-1.45L2.95,-1.5L3.25,-2.55L3.05,-1.55L3.1,-1.55C3.633,-1.217 4.167,-1.133 4.7,-1.3" style="fill-opacity:0.3;"/>
                </g>
                <g id="sprite11" serif:id="sprite1" transform="matrix(0.1965,0.8129,0.8129,-0.1965,-1.75002,7.54993)">
                    <g id="shape11" serif:id="shape1">
                        <path d="M0.25,-0.8L0.45,-0.55C0.65,-0.183 0.783,0.233 0.85,0.7L0.9,1.1C0.2,1.133 -0.383,0.95 -0.85,0.55L-0.9,0.5L-0.6,-0.55L-0.05,-1.15L0.25,-0.8" style="fill:#a04545;"/>
                    </g>
                </g>
                <g id="shape3">
                    <path d="M-1.45,6.75L-1.25,6.75L-1.15,6.8C-0.817,7.067 -0.583,7.45 -0.45,7.95L-0.45,8.3L-1.45,8.3L-2.1,8.05L-0.95,8.1L-0.65,8.05C-0.75,7.483 -1.017,7.05 -1.45,6.75" style="fill:#849f9f;"/>
                    <path d="M-2.45,7.55L-1.75,7.05L-2.05,7.85L-2.45,7.75L-2.45,7.55" style="fill:#fff;fill-opacity:0.8;"/>
                    <path d="M-0.95,8.1C-0.917,7.633 -1.1,7.217 -1.5,6.85C-1.767,6.917 -2.033,7.033 -2.3,7.2L-1.45,6.7L-1.45,6.75C-1.017,7.05 -0.75,7.483 -0.65,8.05L-0.95,8.1" style="fill-opacity:0.3;"/>
                </g>
                <g id="sprite12" serif:id="sprite1" transform="matrix(0.5643,0.7001,-0.7001,0.5643,5.30005,3.75004)">
                    <g id="shape12" serif:id="shape1">
                        <path d="M0.25,-0.8L0.45,-0.55C0.65,-0.183 0.783,0.233 0.85,0.7L0.9,1.1C0.2,1.133 -0.383,0.95 -0.85,0.55L-0.9,0.5L-0.6,-0.55L-0.05,-1.15L0.25,-0.8" style="fill:#a04545;"/>
                    </g>
                </g>
                <g id="shape4">
                    <path d="M5.75,3.1L5.8,3.1L5.9,3.25L5.75,3.6C5.55,3.4 5.25,3.317 4.85,3.35C5.117,3.15 5.417,3.067 5.75,3.1" style="fill:#fff;fill-opacity:0.8;"/>
                    <path d="M5.3,4.75L5.95,3.75L5.75,4.45L5.15,5.3L4.85,5.15L4.8,5.05C4.467,4.617 4.3,4.167 4.3,3.7L4.3,3.65L4.4,3.45C4.4,3.983 4.633,4.483 5.1,4.95L5.3,4.75" style="fill:#849f9f;"/>
                    <path d="M5.3,4.75L5.1,4.95C4.633,4.483 4.4,3.983 4.4,3.45L4.4,3.35L5.3,3.05L4.55,3.4L4.55,3.45C4.617,4.017 4.867,4.45 5.3,4.75" style="fill-opacity:0.3;"/>
                </g>
                <g id="sprite13" serif:id="sprite1" transform="matrix(0.4286,-0.9035,0.8085,0.6289,-0.449985,-6.45002)">
                    <g id="shape13" serif:id="shape1">
                        <path d="M0.25,-0.8L0.45,-0.55C0.65,-0.183 0.783,0.233 0.85,0.7L0.9,1.1C0.2,1.133 -0.383,0.95 -0.85,0.55L-0.9,0.5L-0.6,-0.55L-0.05,-1.15L0.25,-0.8" style="fill:#a04545;"/>
                    </g>
                </g>
                <g id="shape5">
                    <path d="M-0.4,-5.35C0.133,-5.55 0.533,-5.967 0.8,-6.6L0.5,-6.8L-0.7,-7.2L0.05,-7.25L1.1,-6.85L1.05,-6.45L1,-6.4C0.733,-5.8 0.383,-5.45 -0.05,-5.35L-0.15,-5.3L-0.4,-5.35" style="fill:#849f9f;"/>
                    <path d="M0.5,-6.8L0.8,-6.6C0.533,-5.967 0.133,-5.55 -0.4,-5.35L-0.45,-5.35L-1.15,-6.25L-0.4,-5.5L-0.4,-5.55C0.1,-5.783 0.4,-6.2 0.5,-6.8" style="fill-opacity:0.3;"/>
                    <path d="M-1.25,-6.9L-1.25,-6.95L-1.15,-7.05L-0.7,-7L-0.6,-5.85C-0.933,-6.117 -1.15,-6.467 -1.25,-6.9" style="fill:#fff;fill-opacity:0.8;"/>
                    <path d="M1.75,-6C0.917,-7.067 -0.133,-7.717 -1.4,-7.95L-0.95,-8.25L0.7,-7.5L1.75,-6.4L1.75,-6" style="fill:#e7edea;"/>
                </g>
                <g id="sprite2" transform="matrix(-0.735,-0.0526,-0.0526,0.735,-4.6501,-3.49998)">
                    <g id="sprite14" serif:id="sprite1" transform="matrix(1,0,0,1,-0.15,-0.1)">
                        <g id="shape14" serif:id="shape1">
                            <path d="M0.25,-0.8L0.45,-0.55C0.65,-0.183 0.783,0.233 0.85,0.7L0.9,1.1C0.2,1.133 -0.383,0.95 -0.85,0.55L-0.9,0.5L-0.6,-0.55L-0.05,-1.15L0.25,-0.8" style="fill:#a04545;"/>
                        </g>
                    </g>
                    <g id="shape6">
                        <path d="M-0.3,-1L-0.15,-1L0.1,-0.55C-0.233,-0.483 -0.517,-0.3 -0.75,0C-0.75,-0.4 -0.617,-0.733 -0.35,-1L-0.3,-1" style="fill:#fff;fill-opacity:0.8;"/>
                        <path d="M0.7,0.6L0.75,1C0.05,1.033 -0.533,0.85 -1,0.45L-1.05,0.4L-0.75,-0.65L-0.95,0.35L-0.9,0.35L0.7,0.6" style="fill-opacity:0.3;"/>
                        <path d="M0.7,0.6L0.3,-0.65L0.8,0L1.1,1.15L0.8,1.25L0.7,1.25C0.067,1.25 -0.45,1.083 -0.85,0.75L-0.9,0.7L-1,0.45C-0.533,0.85 0.05,1.033 0.75,1L0.7,0.6" style="fill:#849f9f;"/>
                    </g>
                </g>
                <g id="shape7">
                    <path d="M-6.45,1.8L-6.45,1.85L-6.35,2.2L-6.3,2.15L-5.85,2.1L-6.45,1.8M-6.2,2.9L-6.6,1.75L-6.5,1.75L-6.1,1.8L-5.95,1.85L-5.65,2.15L-6.05,2.85L-6.2,2.9" style="fill:#12ccf3;"/>
                    <path d="M-6.45,1.8L-5.85,2.1L-6.3,2.15L-6.35,2.2L-6.45,1.85L-6.45,1.8" style="fill:#c5f2fc;"/>
                    <path d="M-5.7,2.1L-5.9,1.9L-5.35,2.1L-5.3,2.35C-5.367,2.717 -5.533,2.95 -5.8,3.05L-6,3.1L-5.95,3.05C-5.717,2.817 -5.583,2.533 -5.55,2.2L-5.7,2.1" style="fill:#849f9f;"/>
                    <path d="M-6.2,2.9L-6.05,2.85L-5.65,2.15L-5.7,2.1L-5.55,2.2C-5.583,2.533 -5.717,2.817 -5.95,3.05L-6.05,3.15L-6.2,2.9" style="fill:#1f94a0;"/>
                </g>
                <g id="sprite3" transform="matrix(0.922,-0.3871,0.3871,0.922,-5.1001,4.70001)">
                    <g id="shape8">
                        <path d="M-0.75,-1L0.6,-0.45L0.6,-0.3L-0.85,-0.9L-0.75,-1M0.6,-0.2L0.65,0.05L0.65,0.15L-0.75,0.1L-0.7,-0.05L-0.9,-0.5L0.6,-0.2M0.7,0.25L0.75,0.55L-0.55,0.6L-0.8,0.4L0.7,0.25M-0.7,-0.05L0.65,0.05L-0.7,-0.05" style="fill:#cfdada;"/>
                        <path d="M0.6,-0.3L0.6,-0.2L-0.9,-0.5L-0.85,-0.9L0.6,-0.3M0.65,0.15L0.7,0.25L-0.8,0.4L-0.75,0.1L0.65,0.15" style="fill:#e7edea;"/>
                        <path d="M0.75,0.55L0.85,0.7L0.9,0.9L-0.45,1L-0.55,0.6L0.75,0.55" style="fill:#849f9f;"/>
                        <path d="M-0.45,1L-0.55,0.6L-0.8,0.4L-0.75,0.1L-0.7,-0.05L-0.9,-0.5L-0.85,-0.9L-0.75,-1" style="fill:none;fill-rule:nonzero;stroke:#000;stroke-opacity:0.6;stroke-width:0.05px;"/>
                        <path d="M-0.75,-1L0.6,-0.45L0.6,-0.2L0.65,0.05L0.65,0.15L0.7,0.25L0.75,0.55L0.85,0.7L0.9,0.9M0.65,0.05L-0.7,-0.05M-0.55,0.6L0.75,0.55" style="fill:none;fill-rule:nonzero;stroke:#000;stroke-opacity:0.3;stroke-width:0.05px;"/>
                    </g>
                </g>
                <g id="shape9">
                    <path d="M0.8,-3.55L1,-3.3L1.1,-3.2L1.15,-3.05L1.25,-3L1.3,-2.9L1.35,-2.85L2.15,-1.3L2.95,0.9L3.05,1.2L3.25,1.95C3.55,3.25 3.3,4.383 2.5,5.35L2.35,5.45L2.2,5.6L1.3,6.25L1,6.45L0.45,6.6L-1.15,6.75L-1.2,6.75L-1.6,6.6L-1.65,6.6C-2.817,6.133 -3.683,5.517 -4.25,4.75L-4.6,4.25L-4.95,3.6L-5,3.4L-5.1,3.25L-5.15,2.95L-5.2,2.85L-5.2,2.75L-5.25,2.5L-5.25,2.25L-5.2,1.55C-4.733,2.683 -3.483,3.133 -1.45,2.9L-0.2,2.5L0.3,2.3L0.5,2.3L-0.5,1.45L0.85,2.25L2.35,2.45C2.45,1.183 1.967,-0.583 0.9,-2.85L0.15,-4.35L0.5,-3.95L0.8,-3.55M1.05,-1.75L1.1,-0.95L1,-0.75L0.85,-0.5L0.65,-0.45L0.05,-0.55L-0.05,-0.6L-0.3,-0.95L-0.45,-1.2L-0.45,-1.95L-0.1,-2.45L0.6,-2.35L1.05,-1.75M-2.65,-0.7L-2.55,-0.85L-2.35,-0.85L-2.25,-0.8L-2.15,-0.65L-2.25,-0.55L-2.35,-0.5L-2.55,-0.55L-2.65,-0.7M-2.9,-2.5C-3.267,-1.933 -3.533,-1.067 -3.7,0.1C-3.9,1.233 -4.133,1.717 -4.4,1.55C-4.7,1.35 -4.817,0.933 -4.75,0.3L-4.1,-1.9L-3.4,-3.05L-2.65,-2.95L-2.9,-2.5M-1.15,-2.5L-1.2,-2.4L-1.3,-2.45L-1.3,-2.7L-1.2,-2.75L-1.1,-2.7L-1.1,-2.6L-1.15,-2.5M-1.8,-1.6L-2.1,-1.5L-2.4,-1.6L-2.55,-1.95L-2.4,-2.25L-2.1,-2.4L-1.8,-2.3L-1.65,-1.95L-1.8,-1.6M-2.4,1L-2.6,0.85L-2.65,0.6L-2.6,0.3C-2.567,0.167 -2.5,0.117 -2.4,0.15L-2.2,0.25L-2.1,0.55L-2.2,0.85L-2.4,1" style="fill:#fff;fill-opacity:0.4;"/>
                    <path d="M0.15,-4.35L0.5,-3.95L0.8,-3.55L1,-3.3L1.1,-3.2L1.15,-3.05L1.25,-3L1.3,-2.9L1.35,-2.85L2.15,-1.3L2.95,0.9L3.05,1.2L3.25,1.95C3.55,3.25 3.3,4.383 2.5,5.35C2.467,4.65 2.3,4.033 2,3.5L2.15,3.25L2.35,2.45C2.45,1.183 1.967,-0.583 0.9,-2.85L0.15,-4.35M2.2,5.6L1.3,6.25L1,6.45L0.45,6.6L-1.15,6.75L-1.2,6.75L-1.6,6.6L-1.65,6.6C-2.817,6.133 -3.683,5.517 -4.25,4.75L-4.6,4.25L-4.95,3.6L-5,3.4L-4.8,3.6C-2.067,5.667 0.083,5.783 1.65,3.95L2.2,5.6" style="fill-opacity:0.35;"/>
                    <path d="M0.15,-4.35L0.9,-2.85C1.967,-0.583 2.45,1.183 2.35,2.45L0.85,2.25L-0.5,1.45L0.5,2.3L0.3,2.3L-0.2,2.5L-1.45,2.9C-3.483,3.133 -4.733,2.683 -5.2,1.55L-5.15,1.3C-4.817,-0.367 -4.4,-1.7 -3.9,-2.7L-3.85,-2.8L-3.75,-3.05L-3.7,-3.1C-3.267,-3.9 -2.767,-4.467 -2.2,-4.8L-1.8,-4.95L-1.5,-5.1C-1,-5.1 -0.517,-4.9 -0.05,-4.5L0.15,-4.35M1.05,-1.75L0.6,-2.35L-0.1,-2.45L-0.45,-1.95L-0.45,-1.2L-0.3,-0.95L-0.05,-0.6L0.05,-0.55L0.65,-0.45L0.85,-0.5L1,-0.75L1.1,-0.95L1.05,-1.75M-2.9,-2.5L-2.65,-2.95L-3.4,-3.05L-4.1,-1.9L-4.75,0.3C-4.817,0.933 -4.7,1.35 -4.4,1.55C-4.133,1.717 -3.9,1.233 -3.7,0.1C-3.533,-1.067 -3.267,-1.933 -2.9,-2.5M-1.15,-2.5L-1.1,-2.6L-1.1,-2.7L-1.2,-2.75L-1.3,-2.7L-1.3,-2.45L-1.2,-2.4L-1.15,-2.5M-2.65,-0.7L-2.55,-0.55L-2.35,-0.5L-2.25,-0.55L-2.15,-0.65L-2.25,-0.8L-2.35,-0.85L-2.55,-0.85L-2.65,-0.7M-1.8,-1.6L-1.65,-1.95L-1.8,-2.3L-2.1,-2.4L-2.4,-2.25L-2.55,-1.95L-2.4,-1.6L-2.1,-1.5L-1.8,-1.6M-2.4,1L-2.2,0.85L-2.1,0.55L-2.2,0.25L-2.4,0.15C-2.5,0.117 -2.567,0.167 -2.6,0.3L-2.65,0.6L-2.6,0.85L-2.4,1" style="fill:#fff;fill-opacity:0.4;"/>
                    <path d="M1.05,-1.75L1.1,-0.95L1,-0.75L0.85,-0.5L0.65,-0.45L0.05,-0.55L-0.05,-0.6L-0.3,-0.95L-0.45,-1.2L-0.45,-1.95L-0.1,-2.45L0.6,-2.35L1.05,-1.75" style="fill:#fff;"/>
                    <path d="M2,3.5C2.3,4.033 2.467,4.65 2.5,5.35L2.35,5.45L2.3,5.5L1.8,3.85L0.85,2.65L0.5,2.3L-0.5,1.45L0.85,2.25L2,3.5" style="fill-opacity:0.5;"/>
                    <path d="M2.3,5.5L2.2,5.6L1.65,3.95L0.85,2.65L1.8,3.85L2.3,5.5" style="fill-opacity:0.6;"/>
                    <path d="M-2.65,-0.7L-2.55,-0.85L-2.35,-0.85L-2.25,-0.8L-2.15,-0.65L-2.25,-0.55L-2.35,-0.5L-2.55,-0.55L-2.65,-0.7M-1.15,-2.5L-1.2,-2.4L-1.3,-2.45L-1.3,-2.7L-1.2,-2.75L-1.1,-2.7L-1.1,-2.6L-1.15,-2.5M-2.4,1L-2.6,0.85L-2.65,0.6L-2.6,0.3C-2.567,0.167 -2.5,0.117 -2.4,0.15L-2.2,0.25L-2.1,0.55L-2.2,0.85L-2.4,1" style="fill:#fff;fill-opacity:0.7;"/>
                    <path d="M-2.9,-2.5C-3.267,-1.933 -3.533,-1.067 -3.7,0.1C-3.9,1.233 -4.133,1.717 -4.4,1.55C-4.7,1.35 -4.817,0.933 -4.75,0.3L-4.1,-1.9L-3.4,-3.05L-2.65,-2.95L-2.9,-2.5M-1.8,-1.6L-2.1,-1.5L-2.4,-1.6L-2.55,-1.95L-2.4,-2.25L-2.1,-2.4L-1.8,-2.3L-1.65,-1.95L-1.8,-1.6" style="fill:#fff;fill-opacity:0.8;"/>
                </g>
            </g>
        </g>
    </g>
</svg>
