<?xml version="1.0" encoding="UTF-8" standalone="no"?>
<!DOCTYPE svg PUBLIC "-//W3C//DTD SVG 1.1//EN" "http://www.w3.org/Graphics/SVG/1.1/DTD/svg11.dtd">
<svg width="100%" height="100%" viewBox="0 0 20 24" version="1.1" xmlns="http://www.w3.org/2000/svg" xmlns:xlink="http://www.w3.org/1999/xlink" xml:space="preserve" xmlns:serif="http://www.serif.com/" style="fill-rule:evenodd;clip-rule:evenodd;stroke-linecap:round;stroke-linejoin:round;">
    <g transform="matrix(1,0,0,1,9.8,11.6)">
        <g id="sprite0">
            <g id="sprite1">
                <g id="shape0">
                    <path d="M1,-9.05L3,-7.35C3.833,-5.25 4.483,-3.283 4.95,-1.45L4.5,-0.8L5.1,-0.8L5.5,1.4C7.233,1.867 8.483,3.45 9.25,6.15L6.6,6.3C7.033,7.5 6.9,8.883 6.2,10.45C5.2,10.117 4.383,9.7 3.75,9.2L2.45,11.1C0.917,10.1 -0,9 -0.3,7.8L-2.05,7.35L-5.6,6.1L-6.25,3.9L-6.55,1.95L-5.5,-1.85C-6.8,-2.317 -8.067,-3.617 -9.3,-5.75C-8.533,-6.25 -7.8,-6.533 -7.1,-6.6L-7.85,-9.6C-6.45,-9.467 -5.3,-9.05 -4.4,-8.35C-4.233,-9.283 -3.767,-10.2 -3,-11.1C-2.233,-10.267 -1.633,-9.45 -1.2,-8.65L1,-9.05" style="fill:#280a02;"/>
                    <path d="M1,-9.05L-1.2,-8.65C-1.633,-9.45 -2.233,-10.267 -3,-11.1C-3.767,-10.2 -4.233,-9.283 -4.4,-8.35C-5.3,-9.05 -6.45,-9.467 -7.85,-9.6L-7.1,-6.6C-7.8,-6.533 -8.533,-6.25 -9.3,-5.75C-8.067,-3.617 -6.8,-2.317 -5.5,-1.85L-6.55,1.95L-6.25,3.9L-5.6,6.1L-2.05,7.35L-0.3,7.8C-0,9 0.917,10.1 2.45,11.1L3.75,9.2C4.383,9.7 5.2,10.117 6.2,10.45C6.9,8.883 7.033,7.5 6.6,6.3L9.25,6.15C8.483,3.45 7.233,1.867 5.5,1.4L5.1,-0.8L4.5,-0.8L4.95,-1.45C4.483,-3.283 3.833,-5.25 3,-7.35L1,-9.05Z" style="fill:none;fill-rule:nonzero;stroke:#280a02;stroke-width:1px;"/>
                </g>
            </g>
            <g id="sprite2">
                <g id="shape1">
                    <path d="M2.45,11.1C-0.883,8.9 -1.317,6.233 1.15,3.1C4.517,5.767 4.95,8.433 2.45,11.1" style="fill:#527119;"/>
                    <path d="M2.45,11.1C-0.883,8.9 -1.317,6.233 1.15,3.1C4.517,5.767 4.95,8.433 2.45,11.1Z" style="fill:none;fill-rule:nonzero;stroke:#120000;stroke-opacity:0.3;stroke-width:0.05px;"/>
                    <path d="M6.2,10.45C2.5,9.25 1.333,6.733 2.7,2.9C6.567,4.533 7.733,7.05 6.2,10.45" style="fill:#739e23;"/>
                    <path d="M6.2,10.45C2.5,9.25 1.333,6.733 2.7,2.9C6.567,4.533 7.733,7.05 6.2,10.45Z" style="fill:none;fill-rule:nonzero;stroke:#120000;stroke-opacity:0.3;stroke-width:0.05px;"/>
                    <path d="M2.25,1.55C5.717,0.45 8.05,1.983 9.25,6.15C5.383,6.95 3.05,5.417 2.25,1.55" style="fill:#c7cd2d;"/>
                    <path d="M2.25,1.55C5.717,0.45 8.05,1.983 9.25,6.15C5.383,6.95 3.05,5.417 2.25,1.55Z" style="fill:none;fill-rule:nonzero;stroke:#120000;stroke-opacity:0.3;stroke-width:0.05px;"/>
                    <path d="M-2.15,-2.7C-4.55,-0.7 -6.933,-1.717 -9.3,-5.75C-6.533,-7.55 -4.15,-6.533 -2.15,-2.7" style="fill:#006c25;"/>
                    <path d="M-2.15,-2.7C-4.55,-0.7 -6.933,-1.717 -9.3,-5.75C-6.533,-7.55 -4.15,-6.533 -2.15,-2.7Z" style="fill:none;fill-rule:nonzero;stroke:#120000;stroke-opacity:0.3;stroke-width:0.05px;"/>
                    <path d="M-7.85,-9.6C-4.217,-9.233 -2.267,-7.05 -2,-3.05C-5.3,-3.05 -7.25,-5.233 -7.85,-9.6" style="fill:#39872d;"/>
                    <path d="M-7.85,-9.6C-4.217,-9.233 -2.267,-7.05 -2,-3.05C-5.3,-3.05 -7.25,-5.233 -7.85,-9.6Z" style="fill:none;fill-rule:nonzero;stroke:#120000;stroke-opacity:0.3;stroke-width:0.05px;"/>
                    <path d="M-1.9,-2.85C-4.9,-5.617 -5.267,-8.367 -3,-11.1C0,-7.867 0.367,-5.117 -1.9,-2.85" style="fill:#60a837;"/>
                    <path d="M-1.9,-2.85C-4.9,-5.617 -5.267,-8.367 -3,-11.1C0,-7.867 0.367,-5.117 -1.9,-2.85Z" style="fill:none;fill-rule:nonzero;stroke:#120000;stroke-opacity:0.3;stroke-width:0.05px;"/>
                    <path d="M1,-9.05L3,-7.35L1.95,-6.8C1.317,-7.5 0.633,-8.1 -0.1,-8.6L1,-9.05" style="fill:#ede8bb;"/>
                    <path d="M1,-9.05L-0.1,-8.6L-1.25,-8.35L-2.35,-8.15L-1.35,-8.65L1,-9.05M1.95,-6.8L3,-7.35C3.833,-5.25 4.483,-3.283 4.95,-1.45L3.75,-1.5L1.95,-6.8" style="fill:#eeda9d;"/>
                    <path d="M0.8,7.95L-2.05,7.35L-6.25,3.9L-5.75,1.5C-5.617,2.9 -5.35,4.017 -4.95,4.85C-3.783,5.383 -2.583,5.783 -1.35,6.05L0.8,7.95M1.7,-4L1.95,-6.8L3.75,-1.5L3.2,-0.75L3.9,-0.8L4.65,3.4C3.917,4.233 3,4.85 1.9,5.25L3.3,3.55C3.233,1.283 2.7,-1.233 1.7,-4" style="fill:#eeca59;"/>
                    <path d="M-0.1,-8.6C0.633,-8.1 1.317,-7.5 1.95,-6.8L1.7,-4L1.1,-5.55L-0.55,-7L-1.6,-6.8L-2.35,-6.6L-2.5,-6.45L-2.6,-6.25C-4.3,-3.483 -5.35,-0.9 -5.75,1.5L-6.25,3.9L-2.05,7.35L-5.6,6.1L-6.25,3.9L-6.55,1.95C-6.05,-1.183 -4.65,-4.55 -2.35,-8.15L-1.25,-8.35L-0.1,-8.6M1.8,7.4L0.8,7.95L-1.35,6.05L0.15,6.35L0.75,6.05L1.9,5.25C3,4.85 3.917,4.233 4.65,3.4L4.7,4.45C3.933,5.683 2.967,6.667 1.8,7.4M-2.35,-6.6L-2.25,-6.8L-1.25,-8.35L-2.25,-6.8L-2.35,-6.6" style="fill:#efc55c;"/>
                    <path d="M-1.6,-6.8L-0.55,-7L1.1,-5.55L1.7,-4C2.7,-1.233 3.233,1.283 3.3,3.55L1.9,5.25L0.75,6.05C-0.95,5.783 -2.583,5.3 -4.15,4.6C-4.517,3.767 -4.783,2.65 -4.95,1.25C-4.55,-1.25 -3.433,-3.933 -1.6,-6.8" style="fill:url(#_Linear1);"/>
                    <path d="M4.95,-1.45L4.5,-0.8L3.9,-0.8L3.2,-0.75L3.75,-1.5L4.95,-1.45M5.75,3.95C4.75,5.483 3.45,6.633 1.85,7.4L1.8,7.4C2.967,6.667 3.933,5.683 4.7,4.45L5.75,3.95M-4.95,1.25C-4.783,2.65 -4.517,3.767 -4.15,4.6L-4.95,4.85C-5.35,4.017 -5.617,2.9 -5.75,1.5L-4.95,1.25" style="fill:#6a5c24;"/>
                    <path d="M4.5,-0.8L5.1,-0.8L5.65,2.4L5.75,3.95L4.7,4.45L4.65,3.4L3.9,-0.8L4.5,-0.8M5.65,2.4C5.383,1.467 4.8,0.4 3.9,-0.8C4.8,0.4 5.383,1.467 5.65,2.4M0.75,6.05L0.15,6.35L-1.35,6.05C-2.583,5.783 -3.783,5.383 -4.95,4.85L-4.15,4.6C-2.583,5.3 -0.95,5.783 0.75,6.05M-2.35,-6.6L-1.6,-6.8C-3.433,-3.933 -4.55,-1.25 -4.95,1.25L-5.75,1.5C-5.35,-0.9 -4.3,-3.483 -2.6,-6.25L-2.5,-6.45L-2.35,-6.6" style="fill:#82712c;"/>
                    <path d="M3,-7.35L1,-9.05L-1.35,-8.65L-2.35,-8.15C-4.65,-4.55 -6.05,-1.183 -6.55,1.95L-6.25,3.9L-2.05,7.35L-5.6,6.1L-6.25,3.9L-5.75,1.5M3,-7.35C3.833,-5.25 4.483,-3.283 4.95,-1.45L4.5,-0.8L5.1,-0.8L5.65,2.4L5.75,3.95C4.75,5.483 3.45,6.633 1.85,7.4L1.8,7.4L0.8,7.95L-2.05,7.35M-1.6,-6.8L-0.55,-7L1.1,-5.55L1.7,-4L1.95,-6.8M3.9,-0.8C4.8,0.4 5.383,1.467 5.65,2.4M4.65,3.4C3.917,4.233 3,4.85 1.9,5.25L0.75,6.05L0.15,6.35M-1.35,6.05L0.8,7.95M1.7,-4C2.7,-1.233 3.233,1.283 3.3,3.55L1.9,5.25M-1.25,-8.35L-2.25,-6.8L-2.35,-6.6L-2.5,-6.45L-2.6,-6.25M-1.6,-6.8C-3.433,-3.933 -4.55,-1.25 -4.95,1.25C-4.783,2.65 -4.517,3.767 -4.15,4.6C-2.583,5.3 -0.95,5.783 0.75,6.05" style="fill:none;fill-rule:nonzero;stroke:#000;stroke-opacity:0.3;stroke-width:0.05px;"/>
                    <path d="M1.7,-4C2.7,-1.233 3.233,1.283 3.3,3.55L2.55,4.6L0.75,6.05L0.4,6L2.6,3.55C2.533,1.883 2.233,0.067 1.7,-1.9L1.05,-1.65L-0.6,-1.25L1.75,0.65L0.85,4.95L0,5.3L-4.3,4.75L-4.85,2.15L-3.65,1.1L-2.75,0.75L-2.05,2.25L-2.55,3.2L-1.1,3.2L-0.95,1.1L-2.65,-0.7L-2.95,-3.15L-1.7,-4.35L-0.85,-4.7L0.55,-4.7L0.95,-4.15L0.4,-5.55L-1.1,-6.9L-0.55,-7L1.1,-5.55L1.15,-5.5L1.7,-4" style="fill-opacity:0.3;"/>
                    <path d="M0.55,-5.45L1.05,-4.45L0.2,-4.1L-0.3,-5.1L0.55,-5.45M0.95,-3.95L1.25,-4.1L1.8,-3L1.05,-2.35L0.35,-3.75L0.95,-3.95M-0.6,-1.95L1.75,-0.05L0.9,0.3L-1.55,-1.7L-1.35,-1.75L-0.6,-1.95M-2.05,1.5L-2.55,2.45L-3.45,2.8L-2.9,1.85L-2.05,1.5" style="fill:#5f4a10;"/>
                    <path d="M1.05,-4.45L0.95,-3.95L0.35,-3.75L0,-3.35L0.2,-4.1L1.05,-4.45" style="fill:#48380c;"/>
                    <path d="M1.75,-0.05L1.3,2.05L0.85,4.2L0,4.55L0.45,2.45L0.45,2.4L0.9,0.3L1.75,-0.05M-3.65,0.35L-2.75,0L-2.05,1.5L-2.9,1.85L-3.65,0.35M-2.55,2.45L-1.1,2.45L-1.15,2.8L-3.45,2.8L-2.55,2.45M-1.7,-5.1L-0.85,-5.45L0.55,-5.45L-0.3,-5.1L-1.7,-5.1M1.3,2.05L0.45,2.4L1.3,2.05" style="fill:#826515;"/>
                    <path d="M1.05,-2.35L-0.6,-1.95L-1.35,-1.75L-1.55,-1.7L0.9,0.3L0.45,2.4L0.45,2.45L-0.45,4.5L-2.3,2.8L-0.45,4.5L0.45,2.45L0,4.55L-0.45,4.5L-3.65,4.1L-4.3,4L-4.85,1.45L-3.65,0.35L-3.35,0.95L-3.95,2.65L-3.35,0.95L-2.9,1.85L-3.45,2.8L-3.95,2.65L-3.45,2.8L-1.15,2.8L-1.1,2.45L-0.95,0.35L-2.55,-1.3L-2.65,-1.45L-2.95,-3.9L-1.7,-5.1L-1,-5.1L-2.15,-3.8L-2.55,-1.3L-2.15,-3.8L-1,-5.1L-0.3,-5.1L0.2,-4.1L0,-3.35L-1.35,-1.75L0,-3.35L0.35,-3.75L1.05,-2.35M-0.85,-3.55L-1.55,-2.85L-1.55,-1.7L-1.55,-2.85L-0.85,-3.55M-3.95,2.65L-4.2,2.15L-3.95,2.65L-3.65,4.1L-3.95,2.65" style="fill:#d69c0b;"/>
                    <path d="M1.05,-4.45L0.95,-3.95L1.25,-4.1M0.95,-3.95L0.35,-3.75L0,-3.35L-1.35,-1.75M0.45,2.4L1.3,2.05M-1,-5.1L-2.15,-3.8L-2.55,-1.3M-3.95,2.65L-3.35,0.95M-2.3,2.8L-0.45,4.5L0.45,2.45M-3.95,2.65L-3.65,4.1" style="fill:none;fill-rule:nonzero;stroke:#000;stroke-opacity:0.24;stroke-width:0.05px;"/>
                    <path d="M0.55,-5.45L1.05,-4.45M1.25,-4.1L1.8,-3L1.05,-2.35L-0.6,-1.95L1.75,-0.05L1.3,2.05L0.85,4.2L0,4.55L-0.45,4.5L-3.65,4.1L-4.3,4L-4.85,1.45L-3.65,0.35L-2.75,0L-2.05,1.5L-2.55,2.45L-1.1,2.45L-0.95,0.35L-2.55,-1.3L-2.65,-1.45L-2.95,-3.9L-1.7,-5.1L-0.85,-5.45L0.55,-5.45M-1.55,-1.7L-1.55,-2.85L-0.85,-3.55M-1.35,-1.75L-1.55,-1.7M-4.2,2.15L-3.95,2.65L-3.45,2.8" style="fill:none;fill-rule:nonzero;stroke:#000;stroke-opacity:0.3;stroke-width:0.05px;"/>
                </g>
            </g>
        </g>
    </g>
    <defs>
        <linearGradient id="_Linear1" x1="0" y1="0" x2="1" y2="0" gradientUnits="userSpaceOnUse" gradientTransform="matrix(-1.14688,13.1072,-13.1072,-1.14688,-0.17056,-6.9987)"><stop offset="0" style="stop-color:#462d11;stop-opacity:1"/><stop offset="1" style="stop-color:#593b30;stop-opacity:1"/></linearGradient>
    </defs>
</svg>
