<?xml version="1.0" encoding="UTF-8" standalone="no"?>
<!DOCTYPE svg PUBLIC "-//W3C//DTD SVG 1.1//EN" "http://www.w3.org/Graphics/SVG/1.1/DTD/svg11.dtd">
<svg width="100%" height="100%" viewBox="0 0 11 17" version="1.1" xmlns="http://www.w3.org/2000/svg" xmlns:xlink="http://www.w3.org/1999/xlink" xml:space="preserve" xmlns:serif="http://www.serif.com/" style="fill-rule:evenodd;clip-rule:evenodd;stroke-linecap:round;stroke-linejoin:round;">
    <g transform="matrix(1,0,0,1,-2.5,-0.15)">
        <g>
            <g id="shape0">
                <path d="M4.65,3.3L4.85,3C5.783,1.767 7.167,0.983 9,0.65C9.367,1.617 9.55,2.65 9.55,3.75L9.55,4.55L9.65,4.5L9.85,4.5L9.5,5.1C10.233,4.8 11,4.667 11.8,4.7L12.4,4.75C12.4,5.85 12.233,6.833 11.9,7.7L11.75,8.05C11.183,8.983 10.517,9.667 9.75,10.1L10.05,7.8L10.25,7.8C10.65,7.8 10.933,7.583 11.1,7.15L11.05,6.85C10.983,6.55 10.783,6.417 10.45,6.45C10.783,6.417 10.983,6.55 11.05,6.85L11.1,7.15C10.933,7.583 10.65,7.8 10.25,7.8L10.05,7.8L9.75,10.1L9.65,10.95L8.25,12.05L8,12.2L7.95,13.95L8,13.95L8.1,14.25L8,14.5L7.95,14.55L8.05,14.85L8.05,14.9L8.2,15.6L8.2,15.85L7.55,15.95L7.45,15.95L6.8,15.7L6.85,15.55L6.85,15.4L7.05,14.8L7.05,14.75L7.25,14.45L7.1,14.2C7.1,14.067 7.15,13.967 7.25,13.9L7.4,13.85L7.45,12.9L7.2,13.1L6.5,13.3L6.4,13.25L6.05,13.35C5.517,13.317 5.067,13.083 4.7,12.65L4.65,12.5L4.55,12.35L4.5,12.05L4.4,11.65L4.55,11.05L4.55,11L4.6,11L4.35,10.25L4.4,10.25L4.1,9.75L4.15,7.95C3.45,7.183 3.067,6.15 3,4.85L3.05,4.35C3.083,3.517 3.25,2.733 3.55,2L4.65,3.3L5.2,4.3L5.3,4.5L6.65,4.9L6.4,4.35C6.267,3.95 6.333,3.6 6.6,3.3C6.933,2.933 7.217,2.9 7.45,3.2L7.4,3.95L7.45,3.2C7.217,2.9 6.933,2.933 6.6,3.3C6.333,3.6 6.267,3.95 6.4,4.35L6.65,4.9L5.3,4.5L5.2,4.3L4.65,3.3M10.05,7.8L10.3,5.85L9.15,5.55L9.25,5.4L9.45,5.15L9.5,5.1L9.45,5.15L9.25,5.4L9.15,5.55L10.3,5.85L10.05,7.8M9.55,4.55L9.5,5.1L9.55,4.55M4.25,5.75L4.15,7.95L4.25,5.75L3.95,5.6L3.7,5.2L3.65,4.8C3.75,4.4 3.917,4.267 4.15,4.4C3.917,4.267 3.75,4.4 3.65,4.8L3.7,5.2L3.95,5.6L4.25,5.75L4.25,4.75L4.85,4.4L5.3,4.5L4.85,4.4L4.25,4.75L4.25,5.75M4.4,10.25L4.5,10.4L4.95,11.1L5.25,11.5L5.45,11.75L5.1,11.75L5.05,11.7L4.75,11.35L4.6,11L4.75,11.35L5.05,11.7L5.1,11.75L5.45,11.75L5.25,11.5L4.95,11.1L4.5,10.4L4.4,10.25M8,12.2L8,11.1L8,12.2M4.7,12.65L6.2,12.9L6.4,13.25L6.2,12.9L4.7,12.65M9.15,5.55L6.65,4.9L9.15,5.55M7.95,13.95L7.6,13.85L7.4,13.85L7.6,13.85L7.95,13.95M7.25,14.45L7.6,14.6L7.95,14.55L7.6,14.6L7.25,14.45M4.65,11.7L4.75,11.35L4.65,11.7L5.05,11.7L4.65,11.7L4.65,12.5L4.65,11.7M5.45,11.75L5.8,12.15L6.05,12.35L6.65,12.85L6.95,12.75L7.45,12.55L7.45,12.9L7.45,12.55L6.95,12.75L6.65,12.85L6.05,12.35L6.2,12.9L6.05,12.35L5.8,12.15L5.45,11.75M7.5,11.05L7.45,12.55L7.5,11.05" style="fill:#280a02;"/>
                <path d="M9.55,4.55L9.55,3.75C9.55,2.65 9.367,1.617 9,0.65C7.167,0.983 5.783,1.767 4.85,3L4.65,3.3L5.2,4.3L5.3,4.5L6.65,4.9L6.4,4.35C6.267,3.95 6.333,3.6 6.6,3.3C6.933,2.933 7.217,2.9 7.45,3.2L7.4,3.95M10.45,6.45C10.783,6.417 10.983,6.55 11.05,6.85L11.1,7.15C10.933,7.583 10.65,7.8 10.25,7.8L10.05,7.8L9.75,10.1C10.517,9.667 11.183,8.983 11.75,8.05L11.9,7.7C12.233,6.833 12.4,5.85 12.4,4.75L11.8,4.7C11,4.667 10.233,4.8 9.5,5.1L9.45,5.15L9.25,5.4L9.15,5.55L10.3,5.85L10.05,7.8M9.55,4.55L9.65,4.5L9.85,4.5L9.5,5.1L9.55,4.55M6.05,13.35C5.517,13.317 5.067,13.083 4.7,12.65L4.65,12.5L4.55,12.35L4.5,12.05L4.4,11.65L4.55,11.05L4.55,11L4.6,11L4.35,10.25L4.4,10.25L4.1,9.75L4.15,7.95C3.45,7.183 3.067,6.15 3,4.85L3.05,4.35C3.083,3.517 3.25,2.733 3.55,2L4.65,3.3M4.15,4.4C3.917,4.267 3.75,4.4 3.65,4.8L3.7,5.2L3.95,5.6L4.25,5.75L4.25,4.75L4.85,4.4L5.3,4.5M4.6,11L4.75,11.35L5.05,11.7L5.1,11.75L5.45,11.75L5.25,11.5L4.95,11.1L4.5,10.4L4.4,10.25M4.15,7.95L4.25,5.75M9.75,10.1L9.65,10.95L8.25,12.05L8,12.2L7.95,13.95L8,13.95L8.1,14.25L8,14.5L7.95,14.55L8.05,14.85L8.05,14.9L8.2,15.6L8.2,15.85L7.55,15.95L7.45,15.95L6.8,15.7L6.85,15.55L6.85,15.4L7.05,14.8L7.05,14.75L7.25,14.45L7.1,14.2C7.1,14.067 7.15,13.967 7.25,13.9L7.4,13.85L7.45,12.9L7.2,13.1L6.5,13.3L6.05,13.35M6.4,13.25L6.2,12.9L4.7,12.65M8,11.1L8,12.2M6.4,13.25L6.5,13.3M7.45,12.9L7.45,12.55L6.95,12.75L6.65,12.85L6.05,12.35L6.2,12.9M7.45,12.55L7.5,11.05M6.05,12.35L5.8,12.15L5.45,11.75M5.05,11.7L4.65,11.7L4.65,12.5M4.75,11.35L4.65,11.7M7.95,14.55L7.6,14.6L7.25,14.45M7.4,13.85L7.6,13.85L7.95,13.95M6.65,4.9L9.15,5.55" style="fill:none;fill-rule:nonzero;stroke:#280a02;stroke-width:1px;"/>
                <path d="M4.85,3C5.783,1.767 7.183,1 9.05,0.7C9.383,1.667 9.55,2.7 9.55,3.8C8.583,4.4 7.533,4.6 6.4,4.4C5.867,4.167 5.35,3.7 4.85,3M7.4,3.95L7.45,3.25C7.25,2.917 6.967,2.95 6.6,3.35C6.333,3.617 6.267,3.967 6.4,4.4C6.267,3.967 6.333,3.617 6.6,3.35C6.967,2.95 7.25,2.917 7.45,3.25L7.4,3.95M12.35,4.8L11.8,6.05L11.05,6.9C10.75,7.3 10.217,7.467 9.45,7.4L8.95,6.45C8.85,6.05 9.033,5.617 9.5,5.15C10.267,4.817 11.033,4.683 11.8,4.75L12.35,4.8M3,4.35C3.067,3.517 3.267,2.75 3.6,2.05L4.65,3.35L5.2,4.3L5.3,4.6C4.833,5.2 4.283,5.417 3.65,5.25L3,4.35M3.65,5.25L3.65,4.85C3.75,4.417 3.9,4.267 4.1,4.4C3.9,4.267 3.75,4.417 3.65,4.85L3.65,5.25M11.05,6.9C10.983,6.567 10.783,6.433 10.45,6.5C10.783,6.433 10.983,6.567 11.05,6.9" style="fill:#f1e8d2;"/>
                <path d="M4.85,3C5.35,3.7 5.867,4.167 6.4,4.4C7.533,4.6 8.583,4.4 9.55,3.8L9.5,5.15C9.033,5.617 8.85,6.05 8.95,6.45L9.45,7.4C9.65,7.667 9.933,7.817 10.3,7.85C10.7,7.85 10.95,7.617 11.05,7.15L11.05,6.9L11.05,7.15C10.95,7.617 10.7,7.85 10.3,7.85C9.933,7.817 9.65,7.667 9.45,7.4C10.217,7.467 10.75,7.3 11.05,6.9L11.8,6.05L12.35,4.8C12.383,5.867 12.233,6.833 11.9,7.7L11.75,8.05C10.95,9.483 9.85,10.35 8.45,10.65L5.3,8.85C3.9,8.083 3.15,6.75 3.05,4.85L3,4.35L3.65,5.25C4.283,5.417 4.833,5.2 5.3,4.6L5.2,4.3L4.65,3.35L4.85,3M7.5,5.95L7,5.35L6.4,4.4L7,5.35L7.5,5.95M5.3,4.6C5.4,4.933 5.333,5.217 5.1,5.45C4.9,5.85 4.6,5.95 4.2,5.75C3.9,5.65 3.717,5.483 3.65,5.25C3.717,5.483 3.9,5.65 4.2,5.75C4.6,5.95 4.9,5.85 5.1,5.45C5.333,5.217 5.4,4.933 5.3,4.6" style="fill:#97976f;"/>
                <path d="M9.55,3.8C9.55,2.7 9.383,1.667 9.05,0.7C7.183,1 5.783,1.767 4.85,3L4.65,3.35L3.6,2.05C3.267,2.75 3.067,3.517 3,4.35L3.05,4.85C3.15,6.75 3.9,8.083 5.3,8.85L8.45,10.65C9.85,10.35 10.95,9.483 11.75,8.05L11.9,7.7C12.233,6.833 12.383,5.867 12.35,4.8L11.8,4.75C11.033,4.683 10.267,4.817 9.5,5.15L9.55,3.8M6.4,4.4C6.267,3.967 6.333,3.617 6.6,3.35C6.967,2.95 7.25,2.917 7.45,3.25L7.4,3.95M11.05,6.9L11.05,7.15C10.95,7.617 10.7,7.85 10.3,7.85C9.933,7.817 9.65,7.667 9.45,7.4L8.95,6.45C8.85,6.05 9.033,5.617 9.5,5.15M6.4,4.4L7,5.35L7.5,5.95M10.45,6.5C10.783,6.433 10.983,6.567 11.05,6.9M4.1,4.4C3.9,4.267 3.75,4.417 3.65,4.85L3.65,5.25C3.717,5.483 3.9,5.65 4.2,5.75C4.6,5.95 4.9,5.85 5.1,5.45C5.333,5.217 5.4,4.933 5.3,4.6L5.2,4.3L4.65,3.35" style="fill:none;fill-rule:nonzero;stroke:#000;stroke-opacity:0.3;stroke-width:0.05px;"/>
                <path d="M8,11.15L7.9,14.55L7.35,14.45L7.5,11.1L8,11.15" style="fill:url(#_Linear1);"/>
                <path d="M8,11.15L7.9,14.55L7.35,14.45L7.5,11.1" style="fill:none;fill-rule:nonzero;stroke:#000;stroke-opacity:0.3;stroke-width:0.05px;"/>
                <path d="M7.1,14.85L7.15,14.85L7.55,15L8,14.9L8.05,14.95L8.2,15.7L8.2,15.85L8.25,15.9L8.2,15.9L7.55,16.05L7.5,16L7.5,16.05L6.85,15.75L6.85,15.6L6.9,15.45L7.05,14.9L7.1,14.85" style="fill:#212121;"/>
                <path d="M7.1,14.85L7.25,14.5L7.95,14.55L8.05,14.95L8,14.9L7.55,15L7.15,14.85L7.1,14.85"/>
                <path d="M8.05,14.95L7.95,14.55L7.25,14.5L7.1,14.85L7.05,14.9L6.9,15.45L6.85,15.6L6.85,15.75L7.5,16.05M8.05,14.95L8.2,15.7L8.2,15.85L8.25,15.9L8.2,15.9L7.55,16.05L7.5,16" style="fill:none;fill-rule:nonzero;stroke:#000;stroke-opacity:0.3;stroke-width:0.05px;"/>
                <path d="M7.25,14L7.6,13.9L8,14L8.15,14.35L8,14.55L7.6,14.65L7.25,14.55L7.1,14.3C7.1,14.167 7.15,14.067 7.25,14" style="fill:#e49b11;"/>
                <path d="M7.25,14L7.6,13.9L8,14L8.15,14.35L8,14.55L7.6,14.65L7.25,14.55L7.1,14.3C7.1,14.167 7.15,14.067 7.25,14Z" style="fill:none;fill-rule:nonzero;stroke:#000;stroke-opacity:0.3;stroke-width:0.05px;"/>
                <path d="M10.3,5.8L9.7,6.2L4.25,4.7L4.85,4.35L10.3,5.8" style="fill:#822d39;"/>
                <path d="M9.7,6.2L10.3,5.8L9.7,10.95L8.25,12.05L9.05,11.3L9.7,6.2" style="fill:#5c000d;"/>
                <path d="M4.25,4.7L9.7,6.2L9.05,11.3L8.25,12.05C7.75,12.417 7.217,12.667 6.65,12.8C5.75,12.267 4.917,11.233 4.15,9.7L4.25,4.7M5,5.85L4.9,9.5C5.467,10.6 6.083,11.367 6.75,11.8L6.9,11.75L7.9,11.25L8.5,10.9L8.95,7.1L5,5.85" style="fill:#820013;"/>
                <path d="M5,5.85L8.95,7.1L8.5,10.9L7.9,11.25L6.9,11.75L6.75,11.8C6.083,11.367 5.467,10.6 4.9,9.5L5,5.85" style="fill:#212121;"/>
                <path d="M10.3,5.8L4.85,4.35L4.25,4.7L4.15,9.7C4.917,11.233 5.75,12.267 6.65,12.8C7.217,12.667 7.75,12.417 8.25,12.05L9.7,10.95L10.3,5.8Z" style="fill:none;fill-rule:nonzero;stroke:#000;stroke-opacity:0.3;stroke-width:0.05px;"/>
                <path d="M5.65,9.1L7.1,9.1L6.55,10.65C6.217,10.183 5.767,10.083 5.2,10.35L5.65,9.1L5.2,10.35C5.767,10.083 6.217,10.183 6.55,10.65L7.1,9.1L7.6,9.1L7.5,9.35L7.35,9.65L6.65,11.5C6.583,11.7 6.567,11.883 6.6,12.05L6.05,12.1L6.05,12.05L6.15,11.7L6.4,11.05L6.55,10.65L6.4,11.05L6.15,11.7L6.05,12.05L6.05,12.1L5.65,12.1L4.65,11.75L4.45,11.65L4.55,11.05L4.6,11L4.65,10.75L5.3,9.1L5.65,9.1M7,12.65L7.95,12.2L7.2,13.05L6.5,13.3L6.45,13.25L7,12.65M5.2,10.35L4.9,11.05L4.9,11.1L4.65,11.7L4.65,11.75L4.65,11.7L4.9,11.1L4.9,11.05L5.2,10.35M6.05,12.05C5.617,11.75 5.15,11.633 4.65,11.7C5.15,11.633 5.617,11.75 6.05,12.05" style="fill:#b16507;"/>
                <path d="M6.6,12.05L7,12.65L6.45,13.25L6.1,13.3C5.533,13.3 5.083,13.083 4.75,12.65L4.65,12.45L4.6,12.3L4.5,12.05L4.45,11.65L4.65,11.75L5.65,12.1L6.05,12.1L6.6,12.05M4.75,12.65L6.2,12.85L6.45,13.25L6.2,12.85L4.75,12.65M6.2,12.85L6.05,12.1L6.2,12.85M4.65,11.75L4.65,12.45L4.65,11.75" style="fill:#e49b11;"/>
                <path d="M5.65,9.1L5.2,10.35C5.767,10.083 6.217,10.183 6.55,10.65L7.1,9.1M7.6,9.1L7.5,9.35L7.35,9.65L6.65,11.5C6.583,11.7 6.567,11.883 6.6,12.05L7,12.65L7.95,12.2L7.2,13.05L6.5,13.3L6.1,13.3C5.533,13.3 5.083,13.083 4.75,12.65L4.65,12.45L4.6,12.3L4.5,12.05L4.45,11.65L4.55,11.05L4.6,11L4.65,10.75L5.3,9.1M6.55,10.65L6.4,11.05L6.15,11.7L6.05,12.05L6.05,12.1L6.2,12.85L4.75,12.65M6.5,13.3L6.45,13.25L6.2,12.85M4.65,11.75L4.65,11.7L4.9,11.1L4.9,11.05L5.2,10.35M4.65,12.45L4.65,11.75M4.65,11.7C5.15,11.633 5.617,11.75 6.05,12.05" style="fill:none;fill-rule:nonzero;stroke:#000;stroke-opacity:0.3;stroke-width:0.05px;"/>
                <path d="M9.3,5.4C9.1,5.867 9,6.333 9,6.8L9.05,7.55L9.1,7.8C8.6,7.933 8.2,8.133 7.9,8.4L7.4,8.5C7.167,8.367 7.067,8.15 7.1,7.85L7.1,7.75L7.5,7.7L8.4,7.4L8.35,7.15C8.25,6.35 7.95,5.983 7.45,6.05L7.8,5.8C8.267,5.467 8.733,5.333 9.2,5.4L9.3,5.4M7.2,10.05L6.6,10.5L6.55,10.65L6.6,11L6.45,11.1L5.15,11.5L5.1,11.5C4.8,11.233 4.567,10.8 4.4,10.2L4.85,9.35L4.8,9.3C4.633,8.967 4.55,8.517 4.55,7.95L4.6,7.5L3.5,6.1L3.65,6C4.217,5.367 4.467,4.717 4.4,4.05C4.767,4.283 5.033,4.7 5.2,5.3L5.25,5.6L5.15,5.55C4.783,5.483 4.517,5.65 4.35,6.05L4.25,6.25L4.95,7L5.15,6.9L5.6,6.75L5.4,6.95L5.6,6.75L5.8,6.95L5.5,7.25L5.9,8.05L6.25,7.8L6.4,8.05L6.05,8.35L6.85,7.9L7.4,8.5L7.5,9.45L7.2,10.05M6.4,6.15L6.75,6.9L6.85,6.95L7.35,7.45L7.5,7.7L6.85,7.2L6.85,7.3L6.9,7.55L6.65,7.8L6.6,7.45L6.4,6.75L6.3,6.55L6.4,6.15M6.85,7.2L6.75,6.9L6.85,7.2M5.5,7.9L5.2,7.2L5.3,7.15L5.4,6.95L4.95,7L5.15,7.15L4.85,7.6L5.15,7.6L5.5,7.9L5.85,8.45L6.05,8.35L5.85,8.45L5.5,7.9M5.2,8.15L5.15,8.8L5.35,9.15L5.2,8.15M6.4,9L6.4,8.45L5.95,9.4L6.4,9M5.8,11.1L5.85,11.05L5.85,10.95L5.4,11.35L5.8,11.1M4.75,10.75L4.95,11.15L4.85,10.65L4.75,10.75" style="fill:#e49b11;"/>
                <path d="M9.3,5.4L9.2,5.4C8.733,5.333 8.267,5.467 7.8,5.8L7.45,6.05L7.6,5.75C7.967,5.083 8.65,4.667 9.65,4.5L9.85,4.5L9.3,5.4M4.4,4.05L4.4,4L4.35,3.5L5.15,4.3L5.6,5.5L5.65,5.75L5.25,5.6L5.2,5.3C5.033,4.7 4.767,4.283 4.4,4.05M5.6,6.75L6.4,6.15L6.3,6.55C6.2,6.617 6.117,6.667 6.05,6.7L5.8,6.95L5.6,6.75M6.65,7.8L6.4,8.05L6.25,7.8L6.6,7.45L6.65,7.8M5.2,8.15L5.35,9.15L5.15,8.8L5.2,8.15M6.4,9L5.95,9.4L6.4,8.45L6.4,9" style="fill:#ffcb50;"/>
                <path d="M6.3,6.55L6.4,6.75L6.6,7.45L6.25,7.8L5.9,8.05L5.5,7.25L6.05,6.7C6.117,6.667 6.2,6.617 6.3,6.55" style="fill:#820013;"/>
                <path d="M7.5,7.7L7.1,7.75L7.1,7.85C7.067,8.15 7.167,8.367 7.4,8.5L7.9,8.4C7.867,9.067 7.633,9.617 7.2,10.05L7.5,9.45L7.4,8.5L6.85,7.9L6.05,8.35L6.4,8.05L6.9,7.55L6.85,7.3L6.85,7.2L7.5,7.7M6.6,11L6.65,11.2L6.45,11.35L5.15,11.75L5.1,11.75C4.767,11.483 4.517,10.983 4.35,10.25L4.4,10.2C4.567,10.8 4.8,11.233 5.1,11.5L5.15,11.5L6.45,11.1L6.6,11M5.4,6.95L5.3,7.15L5.2,7.2L5.5,7.9L5.15,7.6L4.85,7.6L5.15,7.15L4.95,7L5.4,6.95M5.4,11.35L5.85,10.95L5.85,11.05L5.8,11.1L5.4,11.35M4.95,11.15L4.75,10.75L4.85,10.65L4.95,11.15" style="fill:#b16507;"/>
                <path d="M7.9,8.4C8.2,8.133 8.6,7.933 9.1,7.8L9.05,7.55L9,6.8C9,6.333 9.1,5.867 9.3,5.4L9.85,4.5L9.65,4.5C8.65,4.667 7.967,5.083 7.6,5.75L7.45,6.05C7.95,5.983 8.25,6.35 8.35,7.15L8.4,7.4L7.5,7.7L7.1,7.75L7.1,7.85C7.067,8.15 7.167,8.367 7.4,8.5M7.9,8.4C7.867,9.067 7.633,9.617 7.2,10.05L6.6,10.5L6.55,10.65L6.6,11L6.65,11.2L6.45,11.35L5.15,11.75L5.1,11.75C4.767,11.483 4.517,10.983 4.35,10.25L4.4,10.2L4.85,9.35L4.8,9.3C4.633,8.967 4.55,8.517 4.55,7.95L4.6,7.5L3.5,6.1L3.65,6C4.217,5.367 4.467,4.717 4.4,4.05L4.4,4L4.35,3.5L5.15,4.3L5.6,5.5L5.65,5.75L5.25,5.6L5.15,5.55C4.783,5.483 4.517,5.65 4.35,6.05L4.25,6.25L4.95,7L5.15,6.9L5.6,6.75L6.4,6.15L6.75,6.9L6.85,6.95L7.35,7.45L7.5,7.7M6.85,7.2L6.85,7.3L6.9,7.55L6.4,8.05L6.05,8.35L5.85,8.45L5.5,7.9L5.2,7.2L5.3,7.15L5.4,6.95L5.6,6.75M6.3,6.55L6.4,6.75L6.6,7.45L6.25,7.8L5.9,8.05L5.5,7.25L6.05,6.7C6.117,6.667 6.2,6.617 6.3,6.55M6.75,6.9L6.85,7.2M4.95,7L5.15,7.15L4.85,7.6M5.4,11.35L5.85,10.95L5.85,11.05L5.8,11.1M4.95,11.15L4.85,10.65L4.75,10.75" style="fill:none;fill-rule:nonzero;stroke:#000;stroke-opacity:0.3;stroke-width:0.05px;"/>
                <path d="M7.05,9.3L6.85,9.6L6.15,9.65L6.05,9.6L7.05,8.7L7.05,9.3" style="fill:#b16507;"/>
                <path d="M7.05,9.3L6.85,9.6L6.15,9.65L6.05,9.6L7.05,8.7L7.05,9.3Z" style="fill:none;fill-rule:nonzero;stroke:#000;stroke-opacity:0.3;stroke-width:0.05px;"/>
                <path d="M5.05,9.4L4.85,9.15L4.8,8.95L4.75,8.9C4.717,8.6 4.733,8.4 4.8,8.3L4.85,8.25L5.1,9.4L5.05,9.4" style="fill:#b16507;"/>
                <path d="M5.05,9.4L4.85,9.15L4.8,8.95L4.75,8.9C4.717,8.6 4.733,8.4 4.8,8.3L4.85,8.25L5.1,9.4L5.05,9.4Z" style="fill:none;fill-rule:nonzero;stroke:#000;stroke-opacity:0.3;stroke-width:0.05px;"/>
            </g>
        </g>
    </g>
    <defs>
        <linearGradient id="_Linear1" x1="0" y1="0" x2="1" y2="0" gradientUnits="userSpaceOnUse" gradientTransform="matrix(-175.964,-22.2822,22.2822,-175.964,35.0777,-38.9693)"><stop offset="0" style="stop-color:#242424;stop-opacity:1"/><stop offset="1" style="stop-color:#101010;stop-opacity:1"/></linearGradient>
    </defs>
</svg>
