<?xml version="1.0" encoding="UTF-8" standalone="no"?>
<!DOCTYPE svg PUBLIC "-//W3C//DTD SVG 1.1//EN" "http://www.w3.org/Graphics/SVG/1.1/DTD/svg11.dtd">
<svg width="100%" height="100%" viewBox="0 0 11 16" version="1.1" xmlns="http://www.w3.org/2000/svg" xmlns:xlink="http://www.w3.org/1999/xlink" xml:space="preserve" xmlns:serif="http://www.serif.com/" style="fill-rule:evenodd;clip-rule:evenodd;stroke-linecap:round;stroke-linejoin:round;">
    <g transform="matrix(1,0,0,1,-2.175,-0.75)">
        <g>
            <g id="shape0">
                <path d="M11.35,4.5L11.35,4.9L11.6,5.2L11.65,5.1L11.85,5.55L11.65,7.85L11.5,8.05C11.933,9.85 12.017,11.383 11.75,12.65L10.2,10.2C10.633,11.9 10.633,13.617 10.2,15.35L8.35,12.05C8.017,13.05 7.483,14.2 6.75,15.5C6.017,14.433 5.6,12.583 5.5,9.95L6.05,9.2L5.4,9.95L3.8,12.4C3.6,11.033 3.6,9.8 3.8,8.7L4.9,6.75L4.1,7.3L4,8.15L3.8,7.5L2.8,8.5C2.633,7.7 2.633,7.05 2.8,6.55C3.033,5.717 3.3,5.033 3.6,4.5L3.85,3.3L4,3L4.1,3.25L4.45,2.65L4.45,2.2C4.85,1.833 5.283,1.583 5.75,1.45L5.9,1.3C6.1,1.2 6.267,1.25 6.4,1.45L6.3,2.65C6.7,2.283 7.033,2.433 7.3,3.1L7.35,3.05L7.65,3L7.7,3L8.25,3.35L8.4,3.5C8.733,3.233 9.033,3.317 9.3,3.75L10.05,4.15L10.6,3.5L11.35,4.5" style="fill:#280a02;"/>
                <path d="M11.35,4.5L10.6,3.5L10.05,4.15L9.3,3.75C9.033,3.317 8.733,3.233 8.4,3.5L8.25,3.35L7.7,3L7.65,3L7.35,3.05L7.3,3.1C7.033,2.433 6.7,2.283 6.3,2.65L6.4,1.45C6.267,1.25 6.1,1.2 5.9,1.3L5.75,1.45C5.283,1.583 4.85,1.833 4.45,2.2L4.45,2.65L4.1,3.25L4,3L3.85,3.3L3.6,4.5C3.3,5.033 3.033,5.717 2.8,6.55C2.633,7.05 2.633,7.7 2.8,8.5L3.8,7.5L4,8.15L4.1,7.3L4.9,6.75L3.8,8.7C3.6,9.8 3.6,11.033 3.8,12.4L5.4,9.95L6.05,9.2L5.5,9.95C5.6,12.583 6.017,14.433 6.75,15.5C7.483,14.2 8.017,13.05 8.35,12.05L10.2,15.35C10.633,13.617 10.633,11.9 10.2,10.2L11.75,12.65C12.017,11.383 11.933,9.85 11.5,8.05L11.65,7.85L11.85,5.55L11.65,5.1L11.6,5.2L11.35,4.9L11.35,4.5Z" style="fill:none;fill-rule:nonzero;stroke:#280a02;stroke-width:1px;"/>
                <path d="M8.75,13.05L7.1,9.9L7.7,6.75L8.2,4.55L10.2,4.55L11.3,7.45L10.8,8.05C11.133,8.75 11.317,9.667 11.35,10.8C11.05,9.767 10.683,9.033 10.25,8.6L9.8,9.05L10.05,9.8L9.3,9.4L9.2,10.3C9.633,11.3 9.9,12.35 10,13.45L9.05,11.25L8.75,13.05M7.7,6.75L8.95,7.3L9.8,9.05L8.95,7.3L7.7,6.75M4.8,6.8C4.7,6.267 4.75,5.767 4.95,5.3C4.35,5.6 3.783,6.083 3.25,6.75L4.6,4.15L4.95,3.4L7,3.35L6.3,8.9L5.35,10.05L5.2,9.2C4.8,9.367 4.45,9.8 4.15,10.5C4.317,9.7 4.6,9.083 5,8.65L4.65,7.15L4.8,6.8L5.15,6.25L4.8,6.8" style="fill:#101010;"/>
                <path d="M11.3,7.45C11.833,9.517 11.967,11.267 11.7,12.7L10.15,10.25C10.583,11.95 10.583,13.667 10.15,15.4L8.75,13.05L9.05,11.25L10,13.45C9.9,12.35 9.633,11.3 9.2,10.3L9.3,9.4L10.05,9.8L9.8,9.05L10.25,8.6C10.683,9.033 11.05,9.767 11.35,10.8C11.317,9.667 11.133,8.75 10.8,8.05L11.3,7.45M4.8,6.8C4.033,7.233 3.35,7.817 2.75,8.55C2.583,7.75 2.583,7.1 2.75,6.6C3.05,5.533 3.4,4.717 3.8,4.15C4.167,3.817 4.55,3.567 4.95,3.4L4.6,4.15L3.25,6.75C3.783,6.083 4.35,5.6 4.95,5.3C4.75,5.767 4.7,6.267 4.8,6.8M5.35,10.05L3.75,12.45C3.55,11.083 3.55,9.85 3.75,8.75L4.65,7.15L5,8.65C4.6,9.083 4.317,9.7 4.15,10.5C4.45,9.8 4.8,9.367 5.2,9.2L5.35,10.05M10.05,9.8L10.15,10.25L10.05,9.8" style="fill:#2d2d2d;"/>
                <path d="M8.75,13.05L7.1,9.9L7.7,6.75L8.2,4.55L10.2,4.55L11.3,7.45C11.833,9.517 11.967,11.267 11.7,12.7L10.15,10.25C10.583,11.95 10.583,13.667 10.15,15.4L8.75,13.05M10.05,9.8L9.8,9.05L8.95,7.3L7.7,6.75M4.95,3.4C4.55,3.567 4.167,3.817 3.8,4.15C3.4,4.717 3.05,5.533 2.75,6.6C2.583,7.1 2.583,7.75 2.75,8.55C3.35,7.817 4.033,7.233 4.8,6.8L5.15,6.25M4.95,3.4L7,3.35L6.3,8.9L5.35,10.05L3.75,12.45C3.55,11.083 3.55,9.85 3.75,8.75L4.65,7.15L4.8,6.8M10.15,10.25L10.05,9.8" style="fill:none;fill-rule:nonzero;stroke:#000;stroke-opacity:0.3;stroke-width:0.05px;"/>
                <path d="M5.2,2.15L5.6,2.65L5.8,2.65L6.25,2.7L6.75,2.95L7.15,3.7C7.05,3.867 6.883,3.933 6.65,3.9C6.383,3.833 6.233,3.567 6.2,3.1L5.7,4.2L5.55,4.15L4.65,4.65L4.2,5.8L3.9,8.2L3.45,6.4C3.417,5.4 3.517,4.383 3.75,3.35L3.95,3.05L4.05,3.35L4.1,3.6L4.1,4.65L5.25,3.7C5.083,3.267 5.067,2.75 5.2,2.15M5.25,3.7L5.4,3.9L5.55,4.15L5.4,3.9L5.25,3.7M5.6,2.65C5.5,2.75 5.517,2.883 5.65,3.05L6.2,3.1L5.65,3.05C5.517,2.883 5.5,2.75 5.6,2.65" style="fill:#383838;"/>
                <path d="M5.7,1.5L5.85,1.35C6.05,1.283 6.2,1.35 6.3,1.55L6.25,2.7L5.8,2.65L5.6,2.65L5.2,2.15L5.7,1.5L5.2,2.15C5.067,2.75 5.083,3.267 5.25,3.7L4.1,4.65L4.1,3.6L4.6,3.95L4.4,3.5L4.4,2.25C4.8,1.883 5.233,1.633 5.7,1.5M6.25,2.7C6.683,2.333 7.017,2.483 7.25,3.15L7.15,3.7L6.75,2.95L6.25,2.7" style="fill:#4f4f4f;"/>
                <path d="M4.05,3.35L4.4,2.7L4.4,3.5L4.6,3.95L4.1,3.6L4.05,3.35" style="fill:#ff0df9;"/>
                <path d="M6.25,2.7L6.3,1.55C6.2,1.35 6.05,1.283 5.85,1.35L5.7,1.5L5.2,2.15M5.75,2.65L5.8,2.65L6.25,2.7C6.683,2.333 7.017,2.483 7.25,3.15L7.15,3.7C7.05,3.867 6.883,3.933 6.65,3.9C6.383,3.833 6.233,3.567 6.2,3.1L5.7,4.2L5.55,4.15L4.65,4.65L4.2,5.8L3.9,8.2L3.45,6.4C3.417,5.4 3.517,4.383 3.75,3.35L3.95,3.05L4.05,3.35L4.4,2.7L4.4,2.25C4.8,1.883 5.233,1.633 5.7,1.5M6.2,3.1L5.65,3.05C5.517,2.883 5.5,2.75 5.6,2.65M5.55,4.15L5.4,3.9L5.25,3.7M4.1,3.6L4.05,3.35M4.4,2.7L4.4,3.5L4.6,3.95L4.1,3.6" style="fill:none;fill-rule:nonzero;stroke:#000;stroke-opacity:0.3;stroke-width:0.05px;"/>
                <path d="M11.55,5.25L11.4,5.8L10.7,6.45L11.3,5.3L11.3,4.95L11.55,5.25" style="fill:#ff0df9;"/>
                <path d="M11.3,4.95L11.3,5.3L10.7,6.45L11.4,5.8L11.55,5.25L11.6,5.15L11.8,5.6L11.6,7.9L11.15,8.6C11.05,7.467 10.683,6.55 10.05,5.85L10.25,3.85L10.55,3.55L11.3,4.55L11.3,4.95" style="fill:#4f4f4f;"/>
                <path d="M10.25,3.85L10.05,5.85C10.683,6.55 11.05,7.467 11.15,8.6L9.45,10.8C10.017,9.633 10.333,8.383 10.4,7.05L9.55,6L9.85,4.8L9.2,4.6L8.7,5.2C8.133,4.8 7.967,4.267 8.2,3.6C8.6,3.233 8.95,3.3 9.25,3.8L10,4.2L10.25,3.85" style="fill:#383838;"/>
                <path d="M11.3,4.95L11.3,5.3L10.7,6.45L11.4,5.8L11.55,5.25L11.3,4.95L11.3,4.55L10.55,3.55L10.25,3.85L10,4.2L9.25,3.8C8.95,3.3 8.6,3.233 8.2,3.6C7.967,4.267 8.133,4.8 8.7,5.2L9.2,4.6L9.85,4.8L9.55,6L10.4,7.05C10.333,8.383 10.017,9.633 9.45,10.8L11.15,8.6L11.6,7.9L11.8,5.6L11.6,5.15L11.55,5.25" style="fill:none;fill-rule:nonzero;stroke:#000;stroke-opacity:0.3;stroke-width:0.05px;"/>
                <path d="M6.7,15.55C5.967,14.483 5.533,12.633 5.4,10C5.867,9.767 6.067,9.433 6,9L5.65,8.2C5.45,7.767 5.283,7.117 5.15,6.25C5.217,5.883 5.383,5.667 5.65,5.6L6,5.7C6.3,7 6.65,7.7 7.05,7.8C7.717,7.8 8.317,7.45 8.85,6.75L9.15,6.85C9.417,7.05 9.533,7.35 9.5,7.75C8.6,8.917 7.633,9.5 6.6,9.5C6.333,11.467 6.367,13.483 6.7,15.55" style="fill:#4f4f4f;"/>
                <path d="M6,5.7L8.85,6.75C8.317,7.45 7.717,7.8 7.05,7.8C6.65,7.7 6.3,7 6,5.7M9.5,7.75C9.367,8.283 9.05,8.817 8.55,9.35L8.4,9.55C8.033,10.083 8.067,10.683 8.5,11.35C8.233,12.517 7.633,13.917 6.7,15.55C6.367,13.483 6.333,11.467 6.6,9.5C7.633,9.5 8.6,8.917 9.5,7.75" style="fill:#383838;"/>
                <path d="M6.7,15.55C5.967,14.483 5.533,12.633 5.4,10C5.867,9.767 6.067,9.433 6,9L5.65,8.2C5.45,7.767 5.283,7.117 5.15,6.25C5.217,5.883 5.383,5.667 5.65,5.6L6,5.7L8.85,6.75L9.15,6.85C9.417,7.05 9.533,7.35 9.5,7.75C9.367,8.283 9.05,8.817 8.55,9.35L8.4,9.55C8.033,10.083 8.067,10.683 8.5,11.35C8.233,12.517 7.633,13.917 6.7,15.55C6.367,13.483 6.333,11.467 6.6,9.5" style="fill:none;fill-rule:nonzero;stroke:#000;stroke-opacity:0.3;stroke-width:0.05px;"/>
                <path d="M7.3,3.1L7.65,3.1C7.85,3.1 8.033,3.2 8.2,3.4C8.5,3.667 8.667,4.067 8.7,4.6C8.733,5.133 8.633,5.65 8.4,6.15C8.133,6.617 7.8,6.9 7.4,7C7.033,7.067 6.717,6.917 6.45,6.55C6.217,6.183 6.1,5.733 6.1,5.2C6.1,4.867 6.15,4.567 6.25,4.3L6.5,3.8L6.5,3.75C6.733,3.417 7,3.2 7.3,3.1" style="fill:#202020;"/>
                <path d="M7.3,3.1C7,3.2 6.733,3.417 6.5,3.75L6.5,3.8L6.25,4.3C6.15,4.567 6.1,4.867 6.1,5.2C6.1,5.733 6.217,6.183 6.45,6.55C6.717,6.917 7.033,7.067 7.4,7C7.8,6.9 8.133,6.617 8.4,6.15C8.633,5.65 8.733,5.133 8.7,4.6C8.667,4.067 8.5,3.667 8.2,3.4C8.033,3.2 7.85,3.1 7.65,3.1L7.3,3.1Z" style="fill:none;fill-rule:nonzero;stroke:#000;stroke-opacity:0.3;stroke-width:0.05px;"/>
                <path d="M7.6,3.8L7.8,4.3L7.65,4.9L7.25,5.25L6.9,5.05C6.8,4.917 6.75,4.75 6.75,4.55L6.95,4L7.25,3.75L7.6,3.8" style="fill:#fc94e8;"/>
                <path d="M8.25,4.1L8,5.15L7.3,5.8C7,5.867 6.75,5.767 6.55,5.5L6.55,5.4L6.45,5.25L6.45,5.05C6.45,4.65 6.533,4.317 6.7,4.05L7.35,3.55C7.617,3.483 7.833,3.55 8,3.75L8.1,3.9L8.25,4.1M7.6,3.8L7.25,3.75L6.95,4L6.75,4.55C6.75,4.75 6.8,4.917 6.9,5.05L7.25,5.25L7.65,4.9L7.8,4.3L7.6,3.8" style="fill:#ff0df9;"/>
                <path d="M8.25,4.1L8.35,4.6L8.1,5.75L7.4,6.35C7.133,6.417 6.9,6.317 6.7,6.05L6.45,5.3L6.45,5.25L6.55,5.4L6.55,5.5C6.75,5.767 7,5.867 7.3,5.8L8,5.15L8.25,4.1" style="fill:#980795;"/>
                <path d="M6.45,5.05L6.45,5.3L6.7,6.05C6.9,6.317 7.133,6.417 7.4,6.35L8.1,5.75L8.35,4.6L8.25,4.1L8.1,3.9L8,3.75C7.833,3.55 7.617,3.483 7.35,3.55L6.7,4.05C6.533,4.317 6.45,4.65 6.45,5.05Z" style="fill:none;fill-rule:nonzero;stroke:#000;stroke-opacity:0.3;stroke-width:0.05px;"/>
            </g>
        </g>
    </g>
</svg>
