<?xml version="1.0" encoding="UTF-8" standalone="no"?>
<!DOCTYPE svg PUBLIC "-//W3C//DTD SVG 1.1//EN" "http://www.w3.org/Graphics/SVG/1.1/DTD/svg11.dtd">
<svg width="100%" height="100%" viewBox="0 0 14 20" version="1.1" xmlns="http://www.w3.org/2000/svg" xmlns:xlink="http://www.w3.org/1999/xlink" xml:space="preserve" xmlns:serif="http://www.serif.com/" style="fill-rule:evenodd;clip-rule:evenodd;stroke-linecap:round;stroke-linejoin:round;">
    <g id="sprite0" transform="matrix(1,0,0,1,6.75,9.6)">
        <g>
            <g id="shape0">
                <path d="M2.95,-6.65L2.3,-6.05C3.7,-5.483 4.85,-4.483 5.75,-3.05L6.25,-2.15L4.4,-2.5L4.5,-0.2C4.5,1.8 4.217,3.6 3.65,5.2C3.25,5.033 2.85,4.55 2.45,3.75C2.483,5.017 2.283,5.95 1.85,6.55L1.55,6.2L0,9.15L-0.75,7.2L-1.25,7.7L-1.25,7.65L-2.15,6.05L-3.45,7.35L-3.6,4.25L-4,4.65C-4.3,3.517 -4.417,2.367 -4.35,1.2L-6.25,0.65L-5.6,-0.9L-5.4,-1.2L-5.6,-2.1L-6.25,-2.45C-6.117,-3.383 -5.683,-4.067 -4.95,-4.5L-5.05,-5.8L-5,-5.9L-5.75,-7.15L-6,-7.5C-5.567,-8 -5.083,-8.233 -4.55,-8.2C-3.883,-8.2 -3.133,-7.9 -2.3,-7.3L-2.45,-8.1L-2.7,-9.1L-1.25,-8.1L0.2,-6.4L2.95,-6.65M0.75,4.85L0.55,5.25C0.617,5.717 0.9,5.967 1.4,6L0.75,4.85" style="fill:rgb(40,10,2);"/>
                <path d="M2.95,-6.65L2.3,-6.05C3.7,-5.483 4.85,-4.483 5.75,-3.05L6.25,-2.15L4.4,-2.5L4.5,-0.2C4.5,1.8 4.217,3.6 3.65,5.2C3.25,5.033 2.85,4.55 2.45,3.75C2.483,5.017 2.283,5.95 1.85,6.55L1.55,6.2L0,9.15L-0.75,7.2L-1.25,7.7L-1.25,7.65L-2.15,6.05L-3.45,7.35L-3.6,4.25L-4,4.65C-4.3,3.517 -4.417,2.367 -4.35,1.2L-6.25,0.65L-5.6,-0.9L-5.4,-1.2L-5.6,-2.1L-6.25,-2.45C-6.117,-3.383 -5.683,-4.067 -4.95,-4.5L-5.05,-5.8L-5,-5.9L-5.75,-7.15L-6,-7.5C-5.567,-8 -5.083,-8.233 -4.55,-8.2C-3.883,-8.2 -3.133,-7.9 -2.3,-7.3L-2.45,-8.1L-2.7,-9.1L-1.25,-8.1L0.2,-6.4L2.95,-6.65M0.75,4.85L1.4,6C0.9,5.967 0.617,5.717 0.55,5.25L0.75,4.85Z" style="fill:none;fill-rule:nonzero;stroke:rgb(40,10,2);stroke-width:1px;"/>
            </g>
            <g id="sprite1" transform="matrix(0.0498,0,0,0.0497,-6.7998,-12.4021)">
                <g id="shape1">
                    <path d="M182.6,127.6L182.55,127.6C171.85,122.8 158,120.633 141,121.1C132.3,111.733 120.733,102.867 106.3,94.5C98.2,89.8 91.917,87.05 87.45,86.25C86.35,80.183 84.583,73.717 82.15,66.85C92.05,71.517 101.733,78.017 111.2,86.35C121.533,95.85 131.467,107.433 141,121.1C158.1,115.067 176.3,113.367 195.6,116C192.533,119.633 188.2,123.5 182.6,127.6M89.95,102.4C60.55,95.767 37.633,96.9 21.2,105.8C19.333,103 17.517,100.6 15.75,98.6C24.783,88.867 34.717,84.117 45.55,84.35C58.75,84.55 73.55,90.567 89.95,102.4" style="fill:rgb(92,68,71);"/>
                    <path d="M172.35,134.45L182.55,127.6L172.35,134.45M182.55,127.6L182.6,127.6C210.7,139.333 233.65,159.417 251.45,187.85L208.85,184.95L225.05,199.8C226.483,215.667 227.167,230.983 227.1,245.75L218.3,274.15C215.967,258.783 206.683,236.467 190.45,207.2L111.2,275.15L111.2,295.55L93.95,306.15C92.783,261.783 84.633,221.417 69.5,185.05L11.2,199.95C14.767,178.083 26.267,162.65 45.7,153.65C36.533,132.217 28.367,116.267 21.2,105.8C37.633,96.9 60.55,95.767 89.95,102.4C89.617,99.3 88.783,93.917 87.45,86.25C91.917,87.05 98.2,89.8 106.3,94.5C120.733,102.867 132.3,111.733 141,121.1C158,120.633 171.85,122.8 182.55,127.6M11,262.95C13.4,251.15 17.717,240.583 23.95,231.25L42.9,253.05C34.833,258.95 24.2,262.25 11,262.95" style="fill:rgb(54,40,42);"/>
                    <path d="M11.2,199.95L69.5,185.05C84.633,221.417 92.783,261.783 93.95,306.15L111.2,295.55L111.2,275.15L190.45,207.2C206.683,236.467 215.967,258.783 218.3,274.15L227.1,245.75C226.867,285.817 220.933,322.017 209.3,354.35C201.8,351.183 193.933,341.367 185.7,324.9C186.1,350.8 182.133,369.567 173.8,381.2C166.033,373.8 158.5,362.367 151.2,346.9C141.7,370.033 128.567,389.133 111.8,404.2L111.2,403.4L111.2,403.35C98.067,382.683 84.867,353.4 71.6,315.5C69.833,326.667 64.683,335.783 56.15,342.85C49.95,320.65 47.717,297.667 49.45,273.9C37.983,273.433 25.167,269.783 11,262.95C24.2,262.25 34.833,258.95 42.9,253.05L23.95,231.25C27.583,225.683 31.9,220.567 36.9,215.9L11.2,199.95M225.05,199.8L208.85,184.95L251.45,187.85C255.017,193.65 258.4,199.783 261.6,206.25L225.05,199.8" style="fill:rgb(21,16,17);"/>
                    <path d="M182.55,127.6L172.35,134.45M182.6,127.6L182.55,127.6M87.45,86.25C88.783,93.917 89.617,99.3 89.95,102.4C73.55,90.567 58.75,84.55 45.55,84.35C34.717,84.117 24.783,88.867 15.75,98.6C17.517,100.6 19.333,103 21.2,105.8C28.367,116.267 36.533,132.217 45.7,153.65C26.267,162.65 14.767,178.083 11.2,199.95L36.9,215.9C31.9,220.567 27.583,225.683 23.95,231.25C17.717,240.583 13.4,251.15 11,262.95C25.167,269.783 37.983,273.433 49.45,273.9C47.717,297.667 49.95,320.65 56.15,342.85C64.683,335.783 69.833,326.667 71.6,315.5C84.867,353.4 98.067,382.683 111.2,403.35M227.1,245.75C227.167,230.983 226.483,215.667 225.05,199.8L261.6,206.25C258.4,199.783 255.017,193.65 251.45,187.85C233.65,159.417 210.7,139.333 182.6,127.6C188.2,123.5 192.533,119.633 195.6,116C176.3,113.367 158.1,115.067 141,121.1C131.467,107.433 121.533,95.85 111.2,86.35C101.733,78.017 92.05,71.517 82.15,66.85C84.583,73.717 86.35,80.183 87.45,86.25M227.1,245.75C226.867,285.817 220.933,322.017 209.3,354.35C201.8,351.183 193.933,341.367 185.7,324.9C186.1,350.8 182.133,369.567 173.8,381.2C166.033,373.8 158.5,362.367 151.2,346.9C141.7,370.033 128.567,389.133 111.8,404.2L111.2,403.4" style="fill:none;fill-rule:nonzero;stroke:black;stroke-opacity:0.3;stroke-width:0.05px;"/>
                    <path d="M68.75,291L100.35,244.75C109.083,242.183 115.967,243.117 121,247.55C110.6,278.75 100.483,303.767 90.65,322.6C100.483,303.767 110.6,278.75 121,247.55C125.933,251.75 129.083,263.067 130.45,281.5L121.75,342.75C107.783,327.85 97.417,321.133 90.65,322.6C86.883,329.667 83.167,335.85 79.5,341.15C76.833,328.817 77.183,319.55 80.55,313.35L68.75,291" style="fill:rgb(129,118,78);"/>
                    <path d="M68.75,291L80.55,313.35C77.183,319.55 76.833,328.817 79.5,341.15C83.167,335.85 86.883,329.667 90.65,322.6C97.417,321.133 107.783,327.85 121.75,342.75L67.1,397.95L62.35,300.25L68.75,291" style="fill:rgb(182,172,110);"/>
                    <path d="M121,247.55C115.967,243.117 109.083,242.183 100.35,244.75L68.75,291L62.35,300.25L67.1,397.95L121.75,342.75L130.45,281.5C129.083,263.067 125.933,251.75 121,247.55C110.6,278.75 100.483,303.767 90.65,322.6C86.883,329.667 83.167,335.85 79.5,341.15C76.833,328.817 77.183,319.55 80.55,313.35" style="fill:none;fill-rule:nonzero;stroke:black;stroke-opacity:0.3;stroke-width:0.05px;"/>
                    <path d="M106.4,334.65L122.85,278.85C130.417,272.883 137.217,270.917 143.25,272.95C142.617,306.15 140.367,333.483 136.5,354.95C140.367,333.483 142.617,306.15 143.25,272.95C149.183,274.817 155.533,284 162.3,300.5L171.65,351.9C161.983,339 154,339.183 147.7,352.45C146.233,349.95 142.5,350.783 136.5,354.95C135.033,363.05 133.35,370.3 131.45,376.7C125.283,366.367 122.867,357.633 124.2,350.5L106.4,334.65" style="fill:rgb(129,118,78);"/>
                    <path d="M106.4,334.65L124.2,350.5C122.867,357.633 125.283,366.367 131.45,376.7C133.35,370.3 135.033,363.05 136.5,354.95C142.5,350.783 146.233,349.95 147.7,352.45C147.667,365.317 154.5,371.35 168.2,370.55L136.25,434.35L103.1,345.9L106.4,334.65" style="fill:rgb(182,172,110);"/>
                    <path d="M143.25,272.95C137.217,270.917 130.417,272.883 122.85,278.85L106.4,334.65L103.1,345.9L136.25,434.35L168.2,370.55C154.5,371.35 147.667,365.317 147.7,352.45C154,339.183 161.983,339 171.65,351.9L162.3,300.5C155.533,284 149.183,274.817 143.25,272.95C142.617,306.15 140.367,333.483 136.5,354.95C135.033,363.05 133.35,370.3 131.45,376.7C125.283,366.367 122.867,357.633 124.2,350.5" style="fill:none;fill-rule:nonzero;stroke:black;stroke-opacity:0.3;stroke-width:0.05px;"/>
                    <path d="M39.8,189.95L38.55,173.55L39.8,189.95M38.55,173.55L177.2,234.65C178.5,244.183 183.483,250.467 192.15,253.5C189.217,243.1 190.6,236.583 196.3,233.95C200.3,253.417 200.233,269.983 196.1,283.65C191.033,300.617 180.067,306.317 163.2,300.75C113.633,284.517 71.467,263.75 36.7,238.45C26.433,227.65 22.217,214.767 24.05,199.8L38.55,173.55" style="fill:rgb(129,118,78);"/>
                    <path d="M38.55,173.55L35.4,132.95C37.233,116.883 43.617,110.983 54.55,115.25C101.483,144.75 148.65,168.333 196.05,186C205.85,193.9 210.517,202.65 210.05,212.25C204.65,224.483 200.067,231.717 196.3,233.95C190.6,236.583 189.217,243.1 192.15,253.5C183.483,250.467 178.5,244.183 177.2,234.65L38.55,173.55" style="fill:rgb(182,172,110);"/>
                    <path d="M38.55,173.55L39.8,189.95M196.3,233.95C200.067,231.717 204.65,224.483 210.05,212.25C210.517,202.65 205.85,193.9 196.05,186C148.65,168.333 101.483,144.75 54.55,115.25C43.617,110.983 37.233,116.883 35.4,132.95L38.55,173.55L24.05,199.8C22.217,214.767 26.433,227.65 36.7,238.45C71.467,263.75 113.633,284.517 163.2,300.75C180.067,306.317 191.033,300.617 196.1,283.65C200.233,269.983 200.3,253.417 196.3,233.95C190.6,236.583 189.217,243.1 192.15,253.5" style="fill:none;fill-rule:nonzero;stroke:black;stroke-opacity:0.3;stroke-width:0.05px;"/>
                    <path d="M70.35,162.5L78.95,166.55L48.1,218.7L48.1,181.85L70.35,162.5M135.25,193.1L165.9,207.55L125.6,276.65L93.4,261.45L106.65,239.85L135.25,193.1" style="fill:rgb(221,96,96);"/>
                    <path d="M78.95,166.55L135.25,193.1L106.65,239.85L93.4,261.45L48.1,240.1L48.1,218.7L78.95,166.55M48.1,152L70.35,162.5L48.1,181.85L48.1,152M125.6,276.65L165.9,207.55L165.9,295.65L125.6,276.65" style="fill:rgb(204,58,58);"/>
                    <path d="M78.95,166.55L70.35,162.5L48.1,152L60.85,135.05L178.65,190.6L165.9,207.55L135.25,193.1L78.95,166.55" style="fill:rgb(238,156,156);"/>
                    <path d="M165.9,207.55L178.65,190.6L178.65,278.7L165.9,295.65L165.9,207.55" style="fill:rgb(129,40,40);"/>
                    <path d="M178.65,190.6L60.85,135.05L48.1,152L48.1,240.1L93.4,261.45L125.6,276.65L165.9,295.65L178.65,278.7L178.65,190.6Z" style="fill:none;fill-rule:nonzero;stroke:black;stroke-opacity:0.3;stroke-width:0.05px;"/>
                    <path d="M52.65,208.1C52.783,194.667 57.2,184.167 65.9,176.6C75.3,168.367 86.95,166 100.85,169.5C105.083,170.533 109.117,172.033 112.95,174C114.55,174.733 116.133,175.6 117.7,176.6L119.5,177.75C123.033,180.117 126.433,182.883 129.7,186.05L132.35,188.8L137.3,194.6L141.2,200.1L143.15,203.3C147.917,211.167 151.05,219.383 152.55,227.95C153.083,231.017 153.417,234.117 153.55,237.25L153.55,242.75C146.717,243.817 141.167,240.017 136.9,231.35L52.65,208.1" style="fill:rgb(204,58,58);"/>
                    <path d="M155.6,183.25L155.55,181.65L156,181.65L155.6,183.25" style="fill:rgb(212,185,144);"/>
                    <path d="M153.55,242.75C153.383,245.583 153.05,248.267 152.55,250.8C150.817,259.633 146.75,266.85 140.35,272.45L139.8,273.05C130.433,280.85 118.917,283.033 105.25,279.6C91.35,276.1 79.267,267.733 69,254.5C58.633,241.167 53.167,226.917 52.6,211.75L52.65,208.1L136.9,231.35C141.167,240.017 146.717,243.817 153.55,242.75" style="fill:rgb(129,40,40);"/>
                    <path d="M52.65,208.1C52.783,194.667 57.2,184.167 65.9,176.6C75.3,168.367 86.95,166 100.85,169.5C105.083,170.533 109.117,172.033 112.95,174C114.55,174.733 116.133,175.6 117.7,176.6L119.5,177.75C123.033,180.117 126.433,182.883 129.7,186.05L132.35,188.8L137.3,194.6L141.2,200.1L143.15,203.3C147.917,211.167 151.05,219.383 152.55,227.95C153.083,231.017 153.417,234.117 153.55,237.25L153.55,242.75C153.383,245.583 153.05,248.267 152.55,250.8C150.817,259.633 146.75,266.85 140.35,272.45L139.8,273.05C130.433,280.85 118.917,283.033 105.25,279.6C91.35,276.1 79.267,267.733 69,254.5C58.633,241.167 53.167,226.917 52.6,211.75L52.65,208.1Z" style="fill:none;fill-rule:nonzero;stroke:black;stroke-opacity:0.3;stroke-width:0.05px;"/>
                    <path d="M58.3,210.9C58.833,201.2 62.283,193.517 68.65,187.85C75.983,181.417 85.1,179.567 96,182.3C99.667,183.233 103.183,184.583 106.55,186.35L110.35,188.6C115.417,191.9 120.117,196.333 124.45,201.9L127.45,206.3L129.15,208.75C133.317,215.883 135.9,223.417 136.9,231.35C136.333,241.083 132.867,248.8 126.5,254.5C119.133,260.967 109.983,262.833 99.05,260.1C96.55,259.467 94.1,258.617 91.7,257.55C82.4,252.117 75.383,246.4 70.65,240.4C63.583,231.167 59.467,221.333 58.3,210.9" style="fill:rgb(255,238,212);"/>
                    <path d="M136.9,231.35L137.1,235.15L137.15,238.85C136.817,248.95 133.383,256.9 126.85,262.7C119.417,269.2 110.25,271.083 99.35,268.35C88.483,265.583 79.033,259.017 71,248.65C63.867,239.35 59.75,229.45 58.65,218.95L58.35,215.3L58.3,210.9C59.467,221.333 63.583,231.167 70.65,240.4C75.383,246.4 82.4,252.117 91.7,257.55C94.1,258.617 96.55,259.467 99.05,260.1C109.983,262.833 119.133,260.967 126.5,254.5C132.867,248.8 136.333,241.083 136.9,231.35" style="fill:rgb(212,185,144);"/>
                    <path d="M58.3,210.9C58.833,201.2 62.283,193.517 68.65,187.85C75.983,181.417 85.1,179.567 96,182.3C99.667,183.233 103.183,184.583 106.55,186.35L110.35,188.6C115.417,191.9 120.117,196.333 124.45,201.9L127.45,206.3L129.15,208.75C133.317,215.883 135.9,223.417 136.9,231.35L137.1,235.15L137.15,238.85C136.817,248.95 133.383,256.9 126.85,262.7C119.417,269.2 110.25,271.083 99.35,268.35C88.483,265.583 79.033,259.017 71,248.65C63.867,239.35 59.75,229.45 58.65,218.95L58.35,215.3L58.3,210.9Z" style="fill:none;fill-rule:nonzero;stroke:black;stroke-opacity:0.3;stroke-width:0.05px;"/>
                    <path d="M101.45,214.3L101.85,215.6C103.25,220.733 103.95,226.1 103.95,231.7C103.95,238.9 102.783,244.483 100.45,248.45C98.183,252.317 95.417,253.417 92.15,251.75C90.55,250.883 89.083,249.533 87.75,247.7C86.283,245.567 84.983,242.967 83.85,239.9C81.583,233.567 80.45,226.817 80.45,219.65C80.45,212.517 81.6,206.983 83.9,203.05C86.233,199.183 89.017,198.067 92.25,199.7C95.483,201.367 98.233,205.317 100.5,211.55L101.45,214.3"/>
                    <path d="M85.25,228.05C82.583,227.317 79.95,225.967 77.35,224C74.817,222.067 73.067,220.067 72.1,218C71.067,215.967 71.133,214.483 72.3,213.55C73.467,212.617 75.367,212.533 78,213.3L79.05,213.55L79.7,213.75C81.733,214.517 83.75,215.683 85.75,217.25C88.35,219.217 90.15,221.25 91.15,223.35C92.15,225.383 92.067,226.867 90.9,227.8C89.733,228.733 87.85,228.817 85.25,228.05" style="fill:rgb(255,254,252);"/>
                </g>
            </g>
        </g>
    </g>
</svg>
