<?xml version="1.0" encoding="UTF-8" standalone="no"?>
<!DOCTYPE svg PUBLIC "-//W3C//DTD SVG 1.1//EN" "http://www.w3.org/Graphics/SVG/1.1/DTD/svg11.dtd">
<svg width="100%" height="100%" viewBox="0 0 13 16" version="1.1" xmlns="http://www.w3.org/2000/svg" xmlns:xlink="http://www.w3.org/1999/xlink" xml:space="preserve" xmlns:serif="http://www.serif.com/" style="fill-rule:evenodd;clip-rule:evenodd;stroke-linecap:round;stroke-linejoin:round;">
    <g transform="matrix(1,0,0,1,-0.00958789,-0.0035137)">
        <g id="shape0" transform="matrix(0.640493,0,0,0.639207,6.09395,7.83412)">
            <g id="sprite0">
                <g id="shape01" serif:id="shape0">
                    <path d="M7.15,-6.7L8.45,-3.5L8.65,-2.7L8.65,-2.85L9.15,-2.7L9.6,-1.25L9.6,-1.15L9,0L8.7,2.8L7.8,5.5L7.35,6.2L6,7.7L4.95,8.35L4.9,8.35L4.9,8.4L4.8,8.45L4.7,8.55C4.633,8.55 4.583,8.583 4.55,8.65L3.9,9.15L2.4,9.8L2.2,9.85L1.75,10.95L1,12L0.5,11.65L0.45,11.75L-0.05,11.45L0.55,10.3L-0.25,11.55L-0.65,11.2L0.35,9.85L0,9.8L-0.9,9.45L-1.3,9.4L-1.8,9.15L-2.9,8.25L-2.65,8.9L-2.2,9.65L-3.45,9.9L-3.5,9.9C-4,8.8 -4.217,7.9 -4.15,7.2L-4.2,7.15L-4.75,6.4L-4.85,6.5L-4.9,6.6L-6.05,7.7L-5.9,6.45L-5.9,6.1L-6.05,5.3L-5.9,4.45L-6.25,3.7L-6.35,3.4L-7.25,3.35L-8.1,2.65L-8.15,2.5L-9,0.9L-7.75,1.5L-6.9,1.6C-7.3,-0.067 -7.367,-1.733 -7.1,-3.4L-7.15,-3.35L-7.35,-4.65C-7.217,-5.317 -6.917,-5.783 -6.45,-6.05L-6.4,-6.05L-5.1,-8.15L-4.3,-8.8C-4.267,-9.633 -4.017,-10.583 -3.55,-11.65L-3.5,-11.65L-2.05,-11.2L-2.6,-10.25L-2.7,-9.95L-2.65,-9.95C-1.95,-10.45 -1.05,-10.85 0.05,-11.15L0.25,-11.15L1.85,-10.95L1.7,-11.5L2.15,-11.75L3.2,-11.5L3.35,-10.35L3.4,-10.35L5.1,-9.2L6,-8.3C5.9,-8 6.05,-7.817 6.45,-7.75L7.15,-6.7Z" style="fill:none;fill-rule:nonzero;stroke:rgb(255,238,116);stroke-width:1px;"/>
                    <path d="M5.1,-9.2L6,-8.3L4.65,-7.45L3.7,-8.45L5.1,-9.2M6.45,-7.75L7.15,-6.7L5.85,-5.7L5.8,-5.8L5.05,-7L6.45,-7.75M-2.65,-9.95C-1.95,-10.45 -1.05,-10.85 0.05,-11.15L0.25,-11.15L2,-10.95L0.25,-10.2L0.1,-10.25L-2.65,-9.95" style="fill:rgb(150,128,85);"/>
                    <path d="M6,-8.3C5.9,-8 6.05,-7.817 6.45,-7.75L5.05,-7C4.617,-6.967 4.483,-7.117 4.65,-7.45L6,-8.3M7.15,-6.7L8.45,-3.5L7.1,-2.7L5.85,-5.7L7.15,-6.7M7.8,5.5L7.35,6.2L6,7.7L4.95,8.35L4.9,8.3L5.8,7.35L5.95,7.6L6.35,7.1L6.3,6.6L6.3,6.55L6.6,5.95L7.8,5.5M2,-10.95L3.4,-10.35L5.1,-9.2L3.7,-8.45L3.55,-8.5L2.1,-9.5L0.25,-10.2L2,-10.95" style="fill:rgb(83,66,38);"/>
                    <path d="M2.4,9.8C1.6,9.967 0.8,9.967 0,9.8C1,8.3 1.8,6.4 2.4,4.1L2.15,-3.7L1.95,-4.85C1.617,-7.183 1,-8.983 0.1,-10.25L0.25,-10.2L2.1,-9.5L3.55,-8.5L3.55,2.9C3.35,5.967 2.967,8.267 2.4,9.8M-0.9,9.45L-1.3,9.4L-1.8,9.15L-4.2,7.15L-5.05,-0.5C-5.017,-1.767 -4.867,-3 -4.6,-4.2L-4.5,-4.9C-4.267,-6.2 -3.65,-7.517 -2.65,-8.85C-2.15,-9.783 -1.633,-9.783 -1.1,-8.85C0.167,-7.083 0.867,-5.35 1,-3.65L1.05,-3.45L1.4,2.2L1.05,4.75C0.05,7.65 -0.6,9.217 -0.9,9.45M-5.45,5.35L-6.25,3.7C-7.283,1.1 -7.533,-1.483 -7,-4.05C-6.633,-5.783 -6,-7.15 -5.1,-8.15C-5.767,-6.717 -6.15,-5.217 -6.25,-3.65C-6.383,-1.417 -6.3,0.667 -6,2.6L-5.45,5.35M5.85,-5.7L7.1,-2.7C6.3,-1.267 5.983,0.233 6.15,1.8L6.6,5.95L6.3,6.55L6.3,6.6L6.35,7.1L5.95,7.6L5.8,7.35L4.9,8.3L4.65,0.85C4.583,-0.083 4.617,-0.983 4.75,-1.85C4.917,-3.283 5.267,-4.6 5.8,-5.8L5.85,-5.7M0.25,1.85L0.2,-2.8L-0.3,-5C-0.733,-6.333 -1.267,-6.983 -1.9,-6.95C-2.5,-6.95 -3.017,-6.3 -3.45,-5L-3.45,-4.95C-3.85,-3.617 -4.05,-2.017 -4.05,-0.15L-3.7,5.25C-3.433,6.983 -2.983,7.833 -2.35,7.8C-1.717,7.767 -1.117,6.883 -0.55,5.15C-0.15,4.083 0.117,2.983 0.25,1.85M-0.95,-3.45C-0.65,-2.483 -0.5,-1.317 -0.5,0.05C-0.5,1.45 -0.65,2.617 -0.95,3.55C-1.25,4.517 -1.617,5.017 -2.05,5.05C-2.517,5.05 -2.917,4.567 -3.25,3.6L-3.7,0.1C-3.7,-1.267 -3.55,-2.433 -3.25,-3.4L-2.7,-4.5L-2.1,-4.85C-1.667,-4.85 -1.283,-4.383 -0.95,-3.45M-1.6,-1.8C-1.767,-2.3 -1.967,-2.533 -2.2,-2.5C-2.433,-2.5 -2.617,-2.25 -2.75,-1.75L-3,0.05L-2.9,1.25L-2.75,1.85C-2.583,2.35 -2.383,2.6 -2.15,2.6C-1.917,2.567 -1.733,2.317 -1.6,1.85L-1.3,0.3L-1.35,0C-1.35,-0.7 -1.433,-1.3 -1.6,-1.8" style="fill:rgb(177,151,100);"/>
                    <path d="M3.55,-8.5L3.7,-8.45L3.55,-8.4L3.55,-8.5" style="fill:rgb(161,130,83);"/>
                    <path d="M4.9,8.35L4.9,8.4L4.8,8.45L4.7,8.55C4.633,8.55 4.583,8.583 4.55,8.65L3.9,9.15L2.4,9.8C2.967,8.267 3.35,5.967 3.55,2.9L3.55,-8.4L3.7,-8.45L4.65,-7.45C4.483,-7.117 4.617,-6.967 5.05,-7L5.8,-5.8C5.267,-4.6 4.917,-3.283 4.75,-1.85C4.617,-0.983 4.583,-0.083 4.65,0.85L4.9,8.3L4.9,8.35M0,9.8L-0.9,9.45C-0.6,9.217 0.05,7.65 1.05,4.75L1.4,2.2L1.05,-3.45L1,-3.65C0.867,-5.35 0.167,-7.083 -1.1,-8.85C-1.633,-9.783 -2.15,-9.783 -2.65,-8.85C-3.65,-7.517 -4.267,-6.2 -4.5,-4.9L-4.6,-4.2C-4.867,-3 -5.017,-1.767 -5.05,-0.5L-4.2,7.15L-5.45,5.35L-6,2.6C-6.3,0.667 -6.383,-1.417 -6.25,-3.65C-6.15,-5.217 -5.767,-6.717 -5.1,-8.15L-3.5,-9.5L-2.85,-9.9L-2.75,-9.95L-2.65,-9.95L0.1,-10.25C1,-8.983 1.617,-7.183 1.95,-4.85L2.15,-3.7L2.4,4.1C1.8,6.4 1,8.3 0,9.8M7.1,-2.7C7.7,-0.533 7.85,1.3 7.55,2.8L6.6,5.95L6.15,1.8C5.983,0.233 6.3,-1.267 7.1,-2.7M0.25,1.85C0.117,2.983 -0.15,4.083 -0.55,5.15C-1.117,6.883 -1.717,7.767 -2.35,7.8C-2.983,7.833 -3.433,6.983 -3.7,5.25L-4.05,-0.15C-4.05,-2.017 -3.85,-3.617 -3.45,-4.95L-3.45,-5C-3.017,-6.3 -2.5,-6.95 -1.9,-6.95C-1.267,-6.983 -0.733,-6.333 -0.3,-5L0.2,-2.8L0.25,1.85M-0.95,-3.45C-1.283,-4.383 -1.667,-4.85 -2.1,-4.85L-2.7,-4.5L-3.25,-3.4C-3.55,-2.433 -3.7,-1.267 -3.7,0.1L-3.25,3.6C-2.917,4.567 -2.517,5.05 -2.05,5.05C-1.617,5.017 -1.25,4.517 -0.95,3.55C-0.65,2.617 -0.5,1.45 -0.5,0.05C-0.5,-1.317 -0.65,-2.483 -0.95,-3.45" style="fill:rgb(226,206,130);"/>
                    <path d="M8.45,-3.5C9.05,-1.4 9.133,0.7 8.7,2.8L7.8,5.5L6.6,5.95L7.55,2.8C7.85,1.3 7.7,-0.533 7.1,-2.7L8.45,-3.5" style="fill:rgb(123,105,70);"/>
                    <path d="M4.95,8.35L4.9,8.35L4.9,8.3L4.95,8.35" style="fill:rgb(143,103,55);"/>
                    <path d="M-1.6,-1.8C-1.433,-1.3 -1.35,-0.7 -1.35,0L-1.3,0.3L-1.6,1.85C-1.733,2.317 -1.917,2.567 -2.15,2.6C-2.383,2.6 -2.583,2.35 -2.75,1.85L-2.9,1.25L-3,0.05L-2.75,-1.75C-2.617,-2.25 -2.433,-2.5 -2.2,-2.5C-1.967,-2.533 -1.767,-2.3 -1.6,-1.8M-2.05,-1.35L-2.3,-0.95L-2.4,0L-2.3,0.9L-2.1,1.3L-2.05,1.3L-1.9,1.2L-1.8,0.85C-1.733,0.617 -1.717,0.317 -1.75,-0.05L-1.85,-1C-1.883,-1.267 -1.95,-1.383 -2.05,-1.35" style="fill:rgb(107,98,44);"/>
                    <path d="M-2.05,-1.35C-1.95,-1.383 -1.883,-1.267 -1.85,-1L-1.75,-0.05C-1.717,0.317 -1.733,0.617 -1.8,0.85L-1.9,1.2L-2.05,1.3L-2.1,1.3L-2.3,0.9L-2.4,0L-2.3,-0.95L-2.05,-1.35" style="fill:rgb(101,91,41);"/>
                    <path d="M5.1,-9.2L6,-8.3C5.9,-8 6.05,-7.817 6.45,-7.75L7.15,-6.7L8.45,-3.5C9.05,-1.4 9.133,0.7 8.7,2.8L7.8,5.5L7.35,6.2L6,7.7L4.95,8.35L4.9,8.35L4.9,8.4L4.8,8.45L4.7,8.55C4.633,8.55 4.583,8.583 4.55,8.65L3.9,9.15L2.4,9.8C1.6,9.967 0.8,9.967 0,9.8L-0.9,9.45L-1.3,9.4L-1.8,9.15L-4.2,7.15L-5.45,5.35L-6.25,3.7C-7.283,1.1 -7.533,-1.483 -7,-4.05C-6.633,-5.783 -6,-7.15 -5.1,-8.15L-3.5,-9.5L-2.85,-9.9L-2.75,-9.95L-2.65,-9.95C-1.95,-10.45 -1.05,-10.85 0.05,-11.15L0.25,-11.15L2,-10.95L3.4,-10.35L5.1,-9.2M4.9,8.3L4.9,8.35" style="fill:none;fill-rule:nonzero;stroke:black;stroke-opacity:0.35;stroke-width:0.05px;"/>
                    <path d="M4.8,-7L4.4,-4.25M1.4,-9.85L1.75,-7.3M6.3,6.6L5.9,4.2M5.8,7.3L5.2,2.55M-5.55,-2.75L-5.65,-1.9L-5.15,-1.7C-5.05,-3.733 -4.567,-5.55 -3.7,-7.15M-5.45,-5.55C-5.117,-7.65 -4.317,-9.067 -3.05,-9.8M-4.65,6.55C-5.55,3.017 -5.883,0.2 -5.65,-1.9" style="fill:none;fill-rule:nonzero;stroke:rgb(56,37,16);stroke-opacity:0.2;stroke-width:0.05px;"/>
                    <path d="M4.55,5.1L4.8,1.3L5.15,7.3L4.55,5.1" style="fill:rgb(89,76,51);"/>
                    <path d="M3.05,-0.2L3.4,-5.65L3.6,2.85L3.05,-0.2" style="fill:rgb(56,37,16);fill-opacity:0.5;"/>
                    <path d="M3.2,-11.5L2.75,-11.3L1.7,-11.5L2.15,-11.75L3.2,-11.5" style="fill:rgb(123,105,70);"/>
                    <path d="M2.75,-11.3L3.2,-11.5C3.433,-9.867 3.483,-8.483 3.35,-7.35L3.25,-7.35L2.75,-11.3" style="fill:rgb(150,128,85);"/>
                    <path d="M1.7,-11.5L2.75,-11.3L3.25,-7.35L2.3,-7.1C2.233,-8.967 2.033,-10.433 1.7,-11.5" style="fill:rgb(177,151,100);"/>
                    <path d="M3.2,-11.5L2.15,-11.75L1.7,-11.5" style="fill:none;fill-rule:nonzero;stroke:rgb(56,37,16);stroke-opacity:0.5;stroke-width:0.05px;"/>
                    <path d="M0.5,11.65L0.45,11.75L-0.05,11.45L0.55,10.3L-0.25,11.55L-0.65,11.2C-0.05,10.633 0.417,9.833 0.75,8.8L0.8,8.6L1.05,8L1.45,8.35L1.3,8.95L1.6,8.4L2.55,8.9L1.75,10.95L1,12L0.5,11.65L1.65,9.5L0.5,11.65" style="fill:rgb(177,151,100);"/>
                    <path d="M1.05,8L0.8,8.6L0.75,8.8C0.417,9.833 -0.05,10.633 -0.65,11.2L-0.25,11.55L0.55,10.3L-0.05,11.45L0.45,11.75L0.5,11.65L1.65,9.5M0.5,11.65L1,12L1.75,10.95L2.55,8.9" style="fill:none;fill-rule:nonzero;stroke:rgb(56,37,16);stroke-opacity:0.5;stroke-width:0.05px;"/>
                    <path d="M-4.1,6.95L-3.05,7.85L-2.65,8.9L-2.2,9.65L-3.45,9.9L-3.5,9.9C-4.067,8.667 -4.267,7.683 -4.1,6.95" style="fill:rgb(177,151,100);"/>
                    <path d="M-3.05,7.85L-2.65,8.9L-2.2,9.65L-3.45,9.9L-3.5,9.9C-4.067,8.667 -4.267,7.683 -4.1,6.95" style="fill:none;fill-rule:nonzero;stroke:rgb(56,37,16);stroke-opacity:0.5;stroke-width:0.05px;"/>
                    <path d="M3.3,-4.7L3.55,-4.6L3.75,-3.95L3.45,-4.1L4.9,-2.65L5.35,-2.8L4.85,-3.5L6.15,-2.95L6.95,-1.85L7.95,-1.75L8.65,-2.25L8.65,-2.35L9,-2.1L8.45,-1.05L7.65,-0.8L5.65,-1.7L0.5,-5.05L-0.4,-5L-1.2,-5.75L-6.3,-4.8L-6.95,-4.2L-7.15,-3.35L-7.35,-4.65C-7.217,-5.317 -6.917,-5.783 -6.45,-6.05L-6.6,-5.35L-4.8,-5.45L-4.3,-5.75L-4.25,-5.75L-3.7,-5.95L-1.2,-6.05L-0.5,-6.55L1,-5.6L1.15,-5.5L2.15,-4.55L3.3,-4.7" style="fill:rgb(38,101,104);"/>
                    <path d="M3.75,-3.95L4.85,-3.5L5.35,-2.8L4.9,-2.65L3.45,-4.1L3.75,-3.95M9.6,-1.15L8.95,0L7.05,-0.45L6.35,-1.25L5.65,-1.7L7.65,-0.8L8.45,-1.05L9,-2.1L9.6,-1.15" style="fill:rgb(22,58,60);"/>
                    <path d="M1.15,-5.5L1.85,-5L2.6,-5L3.3,-4.7L2.15,-4.55L1.15,-5.5" style="fill:rgb(24,67,69);"/>
                    <path d="M8.95,0L8.95,0.6L7.7,1L6.05,-0.95L0.95,-3.95L0.1,-3.95L-0.65,-4.85L-1.6,-5.3L-6.65,-4.3L-7.15,-3.35L-6.95,-4.2L-6.3,-4.8L-1.2,-5.75L-0.4,-5L0.5,-5.05L5.65,-1.7L6.35,-1.25L7.05,-0.45L8.95,0" style="fill:rgb(56,37,16);fill-opacity:0.4;"/>
                    <path d="M8.65,-2.35L8.65,-2.85L9.15,-2.7L9.6,-1.25L9.6,-1.15L9,-2.1L8.65,-2.35M-6.45,-6.05L-6.15,-6.05L-4.3,-5.75L-4.8,-5.45L-6.6,-5.35L-6.45,-6.05M-3.7,-5.95L-0.75,-6.7L-0.5,-6.55L-1.2,-6.05L-3.7,-5.95" style="fill:rgb(44,160,160);"/>
                    <path d="M1.15,-5.5L1.85,-5L2.6,-5L3.3,-4.7M3.55,-4.6L3.75,-3.95L4.85,-3.5L6.15,-2.95L6.95,-1.85L7.95,-1.75L8.65,-2.25L8.65,-2.85L9.15,-2.7L9.6,-1.25L9.6,-1.15L8.95,0L7.05,-0.45L6.35,-1.25L5.65,-1.7L0.5,-5.05L-0.4,-5L-1.2,-5.75L-6.3,-4.8L-6.95,-4.2L-7.15,-3.35L-7.35,-4.65C-7.217,-5.317 -6.917,-5.783 -6.45,-6.05L-6.15,-6.05L-4.3,-5.75L-4.25,-5.75L-3.7,-5.95L-0.75,-6.7L-0.5,-6.55L1,-5.6M4.85,-3.5L5.35,-2.8L4.9,-2.65L3.45,-4.1L3.75,-3.95" style="fill:none;fill-rule:nonzero;stroke:rgb(45,72,6);stroke-opacity:0.5;stroke-width:0.05px;"/>
                    <path d="M-4.25,-7.7L-4.25,-7.8C-4.45,-8.8 -4.217,-10.083 -3.55,-11.65L-3.5,-11.65C-2.867,-11.35 -2.567,-10.883 -2.6,-10.25L-3.05,-8.9L-3.1,-8.8L-3.7,-8.8L-3.7,-7.75L-4.25,-7.7" style="fill:rgb(226,206,130);"/>
                    <path d="M-2.6,-10.25C-2.567,-10.883 -2.867,-11.35 -3.5,-11.65L-2.05,-11.2L-2.6,-10.25" style="fill:rgb(123,105,70);"/>
                    <path d="M-3.5,-11.65L-3.55,-11.65C-4.217,-10.083 -4.45,-8.8 -4.25,-7.8L-4.25,-7.7M-3.1,-8.8L-3.05,-8.9L-2.6,-10.25L-2.05,-11.2L-3.5,-11.65" style="fill:none;fill-rule:nonzero;stroke:rgb(56,37,16);stroke-opacity:0.5;stroke-width:0.05px;"/>
                    <path d="M3.1,-3.9L2.7,-4L2.7,-3.95L2.6,-4.1L1.65,-4.8L0.75,-5.3L-0.7,-5.8L-0.3,-6.05L0.75,-5.7L3.1,-3.9M-4.3,-0.1L-3.75,2.65L-3.75,3L-4.3,1.5L-4.7,-1.75L-4.4,-2.75L-1.45,-5.55L-1.65,-5.2L-1.8,-5L-4.6,-2.05L-4.3,-0.1M0.55,3.55L0.25,3.75L0.05,3.5L0.55,2.85L0.35,2.9L0,2.45L0.35,2.15L0.3,2.45L0.8,2.45L0.9,3.25L0.55,3.55M1.2,0.8L1.85,0.85L2.3,2.4L1.2,0.8M3.05,3.1L3.5,3.7L3.55,4.2L3.6,4.8L1.4,7.35L0.45,7.55L-0.5,6.8L1.05,7.05L1.1,7L3.05,4.65L3.05,3.1M-3,5.7L-3.05,5.7L-3.3,5.4L-1.95,5.9L-3,5.7" style="fill:rgb(24,67,69);"/>
                    <path d="M-2.5,-5.5L-1.45,-6.8C-0.783,-6.967 -0.067,-6.833 0.7,-6.4L2.35,-4.8L4,-3.8L3.4,-3.85L3.25,-3.9L3.1,-3.9L0.75,-5.7L-0.3,-6.05L-0.7,-5.8L-1.05,-5.85L-1.25,-5.85L-1.45,-5.55L-4.4,-2.75L-4.7,-1.75L-4.3,1.5L-3.75,3L-3.85,2.95L-3,4.1L0.1,6.05L0.55,6.05L1.5,5.7L2.15,4.55L1.9,3.3L1.85,2.9L0.35,1.75L0.35,2.15L0,2.45L0.35,2.9L0.55,2.85L0.05,3.5L-0.6,2.6L-0.55,2.4L-0.15,1.25L0.9,0.8L1.2,0.8L2.3,2.4L3.05,3.1L3.05,4.65L1.1,7L1.05,7.05L-0.5,6.8L-1.8,5.9L-1.95,5.9L-3.3,5.4L-3.4,5.25L-4.3,4.05L-3.7,3.95L-4.3,3.15L-5.1,-2.1L-4.9,-2.65L-4.45,-2.75L-2.5,-5.5" style="fill:rgb(38,101,104);"/>
                    <path d="M2.6,-4.1L1.35,-4.4L0.25,-5.3L-0.95,-5.25L-2.5,-3.3L-3.2,-2.9L-4.3,-1.65L-4.3,-0.1L-4.6,-2.05L-1.8,-5L-1.65,-5.2L-1.45,-5.55L-1.25,-5.85L-1.05,-5.85L-0.7,-5.8L0.75,-5.3L1.65,-4.8L2.6,-4.1M1.9,3.3L1.05,2.85L1.25,3.25L1,3.6L0.55,3.55L0.9,3.25L0.8,2.45L0.3,2.45L0.35,2.15L0.35,1.75L1.85,2.9L1.9,3.3M3.55,4.2L3.95,4.75L3.3,5.5L3.45,6.05L1.95,7.8L0.85,8.25L-1.65,6.45L-2.6,6.25L-3,5.7L-1.95,5.9L-1.8,5.9L-0.5,6.8L0.45,7.55L1.4,7.35L3.6,4.8L3.55,4.2" style="fill:rgb(56,37,16);fill-opacity:0.4;"/>
                    <path d="M-0.55,2.4L-0.4,0.65L0.9,0.8L-0.15,1.25L-0.55,2.4M-4.3,4.05L-4.35,4L-4.45,3.8L-5.15,0.4L-5.4,-2.6L-5.25,-2.95L-5.15,-3.05L-3.85,-4.3L-3.3,-4.5L-2.5,-5.5L-4.45,-2.75L-4.9,-2.65L-5.1,-2.1L-4.3,3.15L-3.7,3.95L-4.3,4.05" style="fill:rgb(44,160,160);"/>
                    <path d="M-2.5,-5.5L-1.45,-6.8C-0.783,-6.967 -0.067,-6.833 0.7,-6.4L2.35,-4.8L4,-3.8L3.4,-3.85L3.25,-3.9M3.1,-3.9L2.7,-4L2.7,-3.95L2.6,-4.1L1.65,-4.8L0.75,-5.3L-0.7,-5.8M-4.3,-0.1L-3.75,2.65L-3.75,3L-3.85,2.95L-3,4.1L0.1,6.05L0.55,6.05L1.5,5.7L2.15,4.55L1.9,3.3L1.85,2.9L0.35,1.75L0.35,2M0.55,3.55L0.25,3.75L0.05,3.5L-0.6,2.6L-0.55,2.4L-0.4,0.65L0.9,0.8M1.2,0.8L1.85,0.85L2.3,2.4L3.05,3.1L3.5,3.7L3.55,4.2L3.6,4.8L1.4,7.35L0.45,7.55L-0.5,6.8L-1.8,5.9L-1.95,5.9L-3,5.7L-3.05,5.7L-3.3,5.4M-3.4,5.25L-4.3,4.05M-4.35,4L-4.45,3.8L-5.15,0.4L-5.4,-2.6L-5.25,-2.95M-5.15,-3.05L-3.85,-4.3L-3.3,-4.5L-2.5,-5.5M-1.05,-5.85L-1.25,-5.85L-1.45,-5.55L-1.65,-5.2L-1.8,-5L-4.6,-2.05L-4.3,-0.1M0.35,2.15L0.3,2.45L0.8,2.45L0.9,3.25L0.55,3.55" style="fill:none;fill-rule:nonzero;stroke:rgb(56,37,16);stroke-opacity:0.5;stroke-width:0.05px;"/>
                    <path d="M-3.5,-3.65L-2.95,-3.9L-2.25,-3.5L-1.9,-3.1L-2.15,-2.9L-2.7,-3.45L-3.5,-3.65M-4.15,-2.2L-3.85,-2.45L-3.3,-1.95L-3.1,-1.2L-3.15,-0.6L-3.75,-1.15L-3.75,-1.1L-3.6,-0.3L-3.55,0.1L-3.05,0.6L-2.9,0.7C-2.667,0.833 -2.467,0.783 -2.3,0.55L-2.2,0.45L-2.15,0.3L-2.05,-0.35L-2.3,-1.5L-2.45,-1.8L-3.05,-2.45L-3.35,-2.25L-3.55,-3.05L-2.9,-3C-2.533,-2.833 -2.2,-2.5 -1.9,-2C-1.633,-1.5 -1.5,-0.967 -1.5,-0.4L-1.75,1.15L-2.15,1.55L-2.75,1.7L-3.15,1.55L-3.9,0.7L-4.1,-0.2L-4.1,-0.25L-4.25,-1.35L-4.25,-1.65L-4,-1.4L-4.15,-2.2M-2.35,-2.15L-2.45,-1.8L-2.35,-2.15M-4.1,-0.2L-3.6,-0.3L-4.1,-0.2M-1.75,1.15L-2.2,0.45L-1.75,1.15M-3.05,0.6L-3.15,1.55L-3.05,0.6" style="fill:rgb(226,206,130);"/>
                    <path d="M-2.9,2.35L-2.95,2.35L-3.2,2.15L-3.55,1.75L-4.1,0.85C-4.433,0.117 -4.6,-0.667 -4.6,-1.5L-4.55,-1.95L-4.25,-1.65L-4.25,-1.35L-4.1,-0.25L-4.1,-0.2L-3.9,0.7L-3.15,1.55L-2.75,1.7L-2.15,1.55L-1.75,1.15L-1.5,-0.4C-1.5,-0.967 -1.633,-1.5 -1.9,-2C-2.2,-2.5 -2.533,-2.833 -2.9,-3L-3.55,-3.05L-3.7,-3.6L-3.65,-3.65L-3.5,-3.65L-2.7,-3.45L-2.15,-2.9L-2.2,-2.9L-2.1,-2.8L-1.7,-2.05L-1.25,-0.45L-1.2,-0.2L-1.2,0.3C-1.2,1.1 -1.367,1.7 -1.7,2.1L-1.9,2.35C-2.2,2.55 -2.533,2.55 -2.9,2.35M-3.3,-1.95L-3.35,-2.25L-3.05,-2.45L-2.45,-1.8L-2.3,-1.5L-2.05,-0.35L-2.15,0.3L-2.2,0.45L-2.3,0.55C-2.467,0.783 -2.667,0.833 -2.9,0.7L-3.05,0.6L-3.55,0.1L-3.6,-0.3L-3.75,-1.1L-3.75,-1.15L-3.15,-0.6L-3.1,-1.2L-3.3,-1.95M-3.2,2.15L-3.15,1.55L-3.2,2.15M-2.65,-0.8L-2.45,-1.8L-2.65,-0.8" style="fill:rgb(177,151,100);"/>
                    <path d="M-4.55,-1.95L-4.15,-2.2L-4,-1.4L-4.55,-1.95" style="fill:rgb(133,117,54);"/>
                    <path d="M-1.7,-3.05L-1.5,-3.05L-1.3,-2.35L-0.8,-0.9C-0.833,-0.2 -0.983,-0.05 -1.25,-0.45L-1.7,-2.05L-2.1,-2.8L-1.7,-3.05" style="fill:rgb(123,105,70);"/>
                    <path d="M-1.9,-3.1L-1.85,-3.05L-1.7,-3.05L-2.1,-2.8L-2.2,-2.9L-2.15,-2.9L-1.9,-3.1M-2.1,-2.8L-2.15,-2.9L-2.1,-2.8" style="fill:rgb(104,87,49);"/>
                    <path d="M-1.7,2.1C-1.367,1.7 -1.2,1.1 -1.2,0.3L-1.2,-0.2L-1.25,-0.45C-0.983,-0.05 -0.833,-0.2 -0.8,-0.9L-0.7,-0.75L-0.7,0.5L-0.95,1.5L-1.7,2.1" style="fill:rgb(89,76,51);"/>
                    <path d="M-1.3,-2.35L-0.75,-1.8L-0.25,0L-0.65,1.5L-0.85,5.2L-1.2,3.1L-1.45,4.35L-1.8,3.05L-2.3,3.05L-2.9,2.4L-2.9,2.35C-2.533,2.55 -2.2,2.55 -1.9,2.35L-1.7,2.1L-0.95,1.5L-0.7,0.5L-0.7,-0.75L-0.8,-0.9L-1.3,-2.35" style="fill:rgb(56,37,16);fill-opacity:0.4;"/>
                    <path d="M-3.85,-2.45L-3.3,-1.95M-3.35,-2.25L-3.55,-3.05" style="fill:none;fill-rule:nonzero;stroke:rgb(55,47,13);stroke-opacity:0.5;stroke-width:0.05px;"/>
                    <path d="M-2.9,2.35L-2.95,2.35L-3.2,2.15L-3.55,1.75L-4.1,0.85C-4.433,0.117 -4.6,-0.667 -4.6,-1.5L-4.55,-1.95M-3.35,-2.25L-3.05,-2.45L-2.45,-1.8L-2.35,-2.15M-3.55,-3.05L-2.9,-3C-2.533,-2.833 -2.2,-2.5 -1.9,-2C-1.633,-1.5 -1.5,-0.967 -1.5,-0.4L-1.75,1.15L-2.15,1.55L-2.75,1.7L-3.15,1.55L-3.2,2.15M-3.15,1.55L-3.9,0.7L-4.1,-0.2L-4.1,-0.25L-4.25,-1.35L-4.25,-1.65M-3.75,-1.15L-3.75,-1.1L-3.6,-0.3L-3.55,0.1L-3.05,0.6L-2.9,0.7C-2.667,0.833 -2.467,0.783 -2.3,0.55L-2.2,0.45L-2.15,0.3L-2.05,-0.35L-2.3,-1.5L-2.45,-1.8L-2.65,-0.8M-3.6,-0.3L-4.1,-0.2M-2.15,-2.9L-2.1,-2.8M-2.2,0.45L-1.75,1.15M-1.7,2.1L-1.9,2.35C-2.2,2.55 -2.533,2.55 -2.9,2.35M-3.15,1.55L-3.05,0.6" style="fill:none;fill-rule:nonzero;stroke:rgb(56,37,16);stroke-opacity:0.3;stroke-width:0.05px;"/>
                    <path d="M-5.35,2.1L-4.8,2.6C-4.5,2.933 -4.3,3.367 -4.2,3.9L-4.7,3.7L-5.05,3.2L-5.45,2.9L-5.05,3.2L-4.7,3.7L-5.15,3.45L-7.25,3.35L-8.1,2.65L-8.15,2.5L-9,0.9L-7.75,1.5L-7.35,1.55L-7.1,2.15C-7.533,1.85 -7.8,1.8 -7.9,2L-7.7,2.5L-6.85,2.75L-6.4,2.75L-5.9,2.65L-5.45,2.9L-5.35,2.1" style="fill:rgb(38,101,104);"/>
                    <path d="M-7.35,1.55L-6.3,1.65L-6.4,2.75L-6.85,2.75L-6.9,2.45L-6.95,2.45L-7.1,2.15L-7.35,1.55" style="fill:rgb(24,67,69);"/>
                    <path d="M-5.35,2.1L-5.45,2.9L-5.9,2.65L-6.4,2.75L-6.3,1.65C-5.967,1.717 -5.65,1.867 -5.35,2.1M-7.1,2.15L-6.95,2.45L-6.9,2.45L-6.85,2.75L-7.7,2.5L-7.9,2C-7.8,1.8 -7.533,1.85 -7.1,2.15" style="fill:rgb(44,160,160);"/>
                    <path d="M-4.7,3.7L-4.2,3.9C-4.3,3.367 -4.5,2.933 -4.8,2.6L-5.35,2.1C-5.65,1.867 -5.967,1.717 -6.3,1.65L-7.35,1.55L-7.75,1.5L-9,0.9L-8.15,2.5L-8.1,2.65L-7.25,3.35L-5.15,3.45L-4.7,3.7L-5.05,3.2L-5.45,2.9L-5.9,2.65L-6.4,2.75L-6.85,2.75L-7.7,2.5L-7.9,2C-7.8,1.8 -7.533,1.85 -7.1,2.15L-6.95,2.45" style="fill:none;fill-rule:nonzero;stroke:rgb(56,37,16);stroke-opacity:0.2;stroke-width:0.05px;"/>
                    <path d="M-5.6,3.8L-4.65,3L-4.7,3.5L-5.05,3.9L-5.6,3.8M-6.05,5.3L-5.9,4.35L-5.2,4.25L-5.3,4.7L-5.1,5.15L-6.05,5.3M-5,5.5L-5,6.2L-5.4,6.45C-5.6,6.45 -5.633,6.233 -5.5,5.8L-5.3,5.6L-5.25,5.6L-5,5.5" style="fill:rgb(44,160,160);"/>
                    <path d="M-5.6,3.8L-5.05,3.9L-4.7,3.5L-4.8,3.9C-4.533,4.567 -4.433,5.133 -4.5,5.6C-4.5,5.967 -4.617,6.267 -4.85,6.5L-4.9,6.6L-6.05,7.7L-5.9,6.45L-5.9,6.1L-5.5,5.8C-5.633,6.233 -5.6,6.45 -5.4,6.45L-5,6.2L-5,5.5L-5.1,5.15L-5.3,4.7L-5.2,4.25L-5.9,4.35L-5.6,3.8M-5.05,3.9L-5.2,4.25L-5.05,3.9" style="fill:rgb(38,101,104);"/>
                    <path d="M-5.9,6.1L-6.05,5.3L-5.1,5.15L-5,5.5L-5.25,5.6L-5.3,5.6L-5.5,5.8L-5.9,6.1" style="fill:rgb(24,67,69);"/>
                    <path d="M-4.7,3.5L-4.65,3L-5.6,3.8L-5.9,4.35L-6.05,5.3L-5.9,6.1L-5.9,6.45L-6.05,7.7L-4.9,6.6L-4.85,6.5C-4.617,6.267 -4.5,5.967 -4.5,5.6C-4.433,5.133 -4.533,4.567 -4.8,3.9L-4.7,3.5L-5.05,3.9L-5.2,4.25L-5.3,4.7L-5.1,5.15L-5,5.5L-5,6.2L-5.4,6.45C-5.6,6.45 -5.633,6.233 -5.5,5.8L-5.3,5.6" style="fill:none;fill-rule:nonzero;stroke:rgb(56,37,16);stroke-opacity:0.2;stroke-width:0.05px;"/>
                </g>
            </g>
        </g>
    </g>
</svg>
