<?xml version="1.0" encoding="UTF-8" standalone="no"?>
<!DOCTYPE svg PUBLIC "-//W3C//DTD SVG 1.1//EN" "http://www.w3.org/Graphics/SVG/1.1/DTD/svg11.dtd">
<svg width="100%" height="100%" viewBox="0 0 17 21" version="1.1" xmlns="http://www.w3.org/2000/svg" xmlns:xlink="http://www.w3.org/1999/xlink" xml:space="preserve" xmlns:serif="http://www.serif.com/" style="fill-rule:evenodd;clip-rule:evenodd;stroke-linecap:round;stroke-linejoin:round;">
    <g transform="matrix(1,0,0,1,0.00840425,-0.0188207)">
        <g id="shape0" transform="matrix(0.80937,0,0,0.807744,7.6802,10.7622)">
            <g id="sprite0">
                <g id="shape01" serif:id="shape0">
                    <path d="M8.55,-9.4C9.617,-7.733 10.167,-5.667 10.2,-3.2L8.95,-5.95L8.95,-0.95L8.35,0.3L9.15,2.5L10.2,6.15L8.75,2.75L8.05,1L7.65,1.6L7.9,3.55L7.7,7.7L7,3.6L6.9,2.65L6.25,3.15L5.65,5.55L4.85,6.75L3.5,9.3L3.15,9.25L2.35,10.45L1,11.85L0.85,11.8L-0.3,11.6L-2.85,6.9L-3.1,5.6L-4.1,6.25L-4.2,6.3L-5.85,3.25L-6.3,2.1L-6.55,5.2C-6.983,3.167 -7.183,1.417 -7.15,-0.05L-7.3,-0.35L-8.65,4.05L-7.6,-1.2L-7.8,-1.65L-7.4,-7.95L-9,-6.55C-8.5,-7.683 -7.933,-8.65 -7.3,-9.45L-7.2,-11.25L-7.1,-11.25L-4.8,-12.65C-4.7,-12.717 -4.617,-12.767 -4.55,-12.8L-2.55,-10.2L-2.45,-9.75L-2.15,-10.2L-0.95,-10.2L0.6,-7.9L2.05,-9.6L4.2,-9.35L4.8,-9.95L4.9,-10.1L5.3,-10.45L5.6,-10.8L5.8,-10.9L6.7,-11.2L7.25,-11.2L8.25,-10.75L8.55,-9.4Z" style="fill:none;fill-rule:nonzero;stroke:rgb(255,238,116);stroke-width:1px;"/>
                    <path d="M-5.95,-9.4L-6.15,-9.05L-9,-6.55C-7.933,-9.017 -6.517,-10.75 -4.75,-11.75L-5.95,-9.4" style="fill:rgb(152,150,124);"/>
                    <path d="M-4.75,-11.75L-5.95,-9.4" style="fill:none;fill-rule:nonzero;stroke:rgb(56,37,16);stroke-opacity:0.3;stroke-width:0.05px;"/>
                    <path d="M-5.95,-9.4L-6.15,-9.05L-9,-6.55C-7.933,-9.017 -6.517,-10.75 -4.75,-11.75" style="fill:none;fill-rule:nonzero;stroke:black;stroke-opacity:0.3;stroke-width:0.05px;"/>
                    <path d="M8.25,-9.85C9.517,-8.083 10.167,-5.867 10.2,-3.2L8.35,-7.2L8.25,-9.85" style="fill:rgb(235,227,189);"/>
                    <path d="M8.35,-7.2L10.2,-3.2C10.167,-5.867 9.517,-8.083 8.25,-9.85" style="fill:none;fill-rule:nonzero;stroke:black;stroke-opacity:0.3;stroke-width:0.05px;"/>
                    <path d="M-6.55,5.2C-7.417,1.3 -7.383,-1.617 -6.45,-3.55C-6.15,-1.617 -6.183,1.3 -6.55,5.2" style="fill:rgb(152,150,124);"/>
                    <path d="M-6.55,5.2C-7.417,1.3 -7.383,-1.617 -6.45,-3.55C-6.15,-1.617 -6.183,1.3 -6.55,5.2Z" style="fill:none;fill-rule:nonzero;stroke:black;stroke-opacity:0.3;stroke-width:0.05px;"/>
                    <path d="M-8.65,4.05C-7.983,-0.417 -7.083,-3.65 -5.95,-5.65C-6.383,-3.45 -7.283,-0.217 -8.65,4.05" style="fill:rgb(152,150,124);"/>
                    <path d="M-8.65,4.05C-7.983,-0.417 -7.083,-3.65 -5.95,-5.65C-6.383,-3.45 -7.283,-0.217 -8.65,4.05Z" style="fill:none;fill-rule:nonzero;stroke:black;stroke-opacity:0.3;stroke-width:0.05px;"/>
                    <path d="M7.9,3.55L7.7,7.7L7,3.6C7.3,3 7.6,2.983 7.9,3.55" style="fill:rgb(235,227,189);"/>
                    <path d="M7,3.6C6.733,1.7 6.617,0.15 6.65,-1.05C7.35,0.083 7.767,1.617 7.9,3.55C7.6,2.983 7.3,3 7,3.6" style="fill:rgb(152,150,124);"/>
                    <path d="M7.9,3.55L7.7,7.7L7,3.6C6.733,1.7 6.617,0.15 6.65,-1.05C7.35,0.083 7.767,1.617 7.9,3.55Z" style="fill:none;fill-rule:nonzero;stroke:black;stroke-opacity:0.3;stroke-width:0.05px;"/>
                    <path d="M9.15,2.5L10.2,6.15L8.75,2.75C8.817,2.183 8.95,2.1 9.15,2.5" style="fill:rgb(235,227,189);"/>
                    <path d="M8.75,2.75C7.717,0.283 6.983,-1.7 6.55,-3.2C7.45,-1.9 8.317,0 9.15,2.5C8.95,2.1 8.817,2.183 8.75,2.75" style="fill:rgb(152,150,124);"/>
                    <path d="M9.15,2.5L10.2,6.15L8.75,2.75C7.717,0.283 6.983,-1.7 6.55,-3.2C7.45,-1.9 8.317,0 9.15,2.5Z" style="fill:none;fill-rule:nonzero;stroke:black;stroke-opacity:0.3;stroke-width:0.05px;"/>
                    <path d="M-7.75,-5.35L-7.75,-5.4L-7.7,-5.4L-7.75,-5.35" style="fill:rgb(187,175,43);"/>
                    <path d="M4.5,7.45L4.1,8.15C3.833,7.917 3.517,8.283 3.15,9.25L2.8,9.2L3.2,7.9L3.4,7.05L3.25,6.15L3.1,4.75C3.467,6.583 3.933,7.483 4.5,7.45M-7.1,-11.25L-6.15,-11.8C-5.717,-12 -5.3,-11.867 -4.9,-11.4L-3.75,-9.6L-3.6,-9.6L-3.6,-9.55L-3.4,-7.8L-5.1,-7.6C-5.833,-7.167 -6.317,-6.5 -6.55,-5.6L-6.55,-5.55L-6.6,-5.35L-6.65,-6.8L-6.7,-7.45L-6.8,-9.05L-6.65,-9.15L-6.75,-10.5L-7.1,-11.25M4.2,-9.35L4.8,-9.95L5.15,-8.1L5.3,-10.05L6.4,-10.05L7.2,-9.25L7.55,-7.5L7.8,-4.5L7.85,-0.95L7.75,-1.35C7.55,-2.483 7.3,-3.283 7,-3.75L6.7,-5.35C6.567,-5.617 6.333,-5.75 6,-5.75L5.65,-5.6C5.05,-5.333 4.7,-4.6 4.6,-3.4C4.667,-3.167 4.35,-2.75 3.65,-2.15C3.317,-2.117 3.033,-2.383 2.8,-2.95L2.5,-2.5L2.5,-2.4L2.1,-1.65C1.7,-1.35 1.367,-0.733 1.1,0.2L0.95,0.85L0.9,0.85L0.8,2.55L0.7,0.7C0.467,0.467 0.317,0.167 0.25,-0.2L-0.3,-2.7C-0.433,-3.233 -0.683,-3.733 -1.05,-4.2L-1.45,-4.6L-1.55,-4.75L-1.15,-5.65L-0.95,-6.75L-0.9,-6.9L-0.25,-7.3L-0.1,-6.15C-0.067,-5.717 0.133,-5.383 0.5,-5.15C1.267,-5.917 1.6,-7 1.5,-8.4L1.5,-8.9L1.9,-8.85L2.6,-8.7L2.75,-6.6L3,-8.65L3.7,-9.1L4.2,-9.35M1.6,-2.7L1.75,-4.25L1.65,-5.6L1.9,-8.85L1.65,-5.6L1.75,-4.25L1.6,-2.7M2.75,-6.6L2.5,-2.5L2.75,-6.6M5.6,-6.55L5.65,-5.6L5.6,-6.55M4.05,-1.8L4.2,-1.6L4.3,-0.95L4.2,0.05L4.05,0.4L3.85,-0.25L3.8,-0.95L3.85,-1.6L4.05,-1.8M5.85,3.45L5.85,2.2L6.15,3.2L5.85,3.45M-2.35,-9.35L-2.25,-9.35L-1.55,-8.15L-2.75,-9.05L-2.7,-9.4L-2.35,-9.35" style="fill:rgb(226,206,130);"/>
                    <path d="M8.15,-10.8L8.25,-10.75C8.617,-9.35 8.85,-7.617 8.95,-5.55L9,-4.45L8.5,-0.25L8.1,0.35L7.85,-0.9L7.85,-0.95L7.8,-4.5L7.55,-7.5L7.2,-9.25L8.15,-10.8M-2.75,-9.05L-1.55,-8.15L-0.9,-6.9L-0.95,-6.75L-1.15,-5.65L-1.55,-4.75L-3.4,-6L-3.4,-6.1L-3.3,-6.7L-2.9,-8.3L-2.9,-8.35L-2.75,-9.05" style="fill:rgb(123,105,70);"/>
                    <path d="M-2.55,-10.2L-2.45,-9.75L-2.7,-9.4L-2.75,-9.05L-2.9,-8.35L-2.9,-8.3L-3.3,-6.7L-3.4,-7.8L-3.6,-9.55L-3.6,-9.6L-3.75,-9.6L-2.55,-10.2M2.75,-6.6L2.6,-8.7L2.65,-8.7L3.7,-9.1L3,-8.65L2.75,-6.6" style="fill:rgb(89,76,51);"/>
                    <path d="M-4.8,-12.65C-4.7,-12.717 -4.617,-12.767 -4.55,-12.8L-2.55,-10.2L-3.75,-9.6L-4.9,-11.4L-4.8,-12.65M-0.95,-10.2L0.6,-7.9L-0.25,-7.3L-0.9,-6.9L-1.55,-8.15L-2.25,-9.35L-2.35,-9.35L-0.95,-10.2M1.4,-8.9L1.65,-9.15L2.05,-9.6L4.2,-9.35L3.7,-9.1L2.65,-8.7L2.6,-8.7L1.9,-8.85L1.5,-8.9L1.4,-8.9M7.25,-11.2L8.15,-10.8L7.2,-9.25L6.4,-10.05L7.25,-11.2M2.4,-9.15L1.9,-8.85L2.4,-9.15M-3.4,-7.8L-3.3,-6.7L-3.4,-6.1C-3.633,-6.233 -3.85,-6.233 -4.05,-6.1L-4.3,-5.85L-4.45,-5.65L-4.95,-3.95L-5,-3.65L-5.75,-3.05C-6.283,-3.183 -6.567,-3.85 -6.6,-5.05L-6.6,-5.35L-6.55,-5.55L-6.55,-5.6C-6.317,-6.5 -5.833,-7.167 -5.1,-7.6L-3.4,-7.8" style="fill:rgb(150,128,85);"/>
                    <path d="M-6.15,-11.8L-4.8,-12.65L-4.9,-11.4C-5.3,-11.867 -5.717,-12 -6.15,-11.8M-2.45,-9.75L-2.15,-10.2L-0.95,-10.2L-2.35,-9.35L-2.7,-9.4L-2.45,-9.75M5.8,-10.9L6.7,-11.2L7.25,-11.2L6.4,-10.05L5.3,-10.05L5.8,-10.9" style="fill:rgb(235,227,189);"/>
                    <path d="M6.95,2.6L6.25,3.15L6.15,3.2L5.85,2.2L5.85,3.45L5.45,3.75L4.85,6.75L4.5,7.45C3.933,7.483 3.467,6.583 3.1,4.75L3.05,4.35L3.1,4.75L3.25,6.15L2.5,9.15L1,11.85L0.85,11.8L0.35,11.7L-0.15,10.55L-0.25,10.3L-0.7,9.35L-0.7,6.95L-2.25,4.5L-1.4,0.1L-2.25,-3.4L-1.55,-4.75L-1.45,-4.6L-1.55,-2.25L-1.05,-4.2C-0.683,-3.733 -0.433,-3.233 -0.3,-2.7L0.25,-0.2C0.317,0.167 0.467,0.467 0.7,0.7L0.8,2.55L0.9,0.85L0.95,0.85L1.1,0.2C1.367,-0.733 1.7,-1.35 2.1,-1.65L2.5,-2.4L2.5,-2.5L2.8,-2.95C3.033,-2.383 3.317,-2.117 3.65,-2.15C4.35,-2.75 4.667,-3.167 4.6,-3.4C4.7,-4.6 5.05,-5.333 5.65,-5.6L5.75,-2.25L4.9,0.2L5.75,-1.55L7,-3.75C7.3,-3.283 7.55,-2.483 7.75,-1.35L7.85,-0.95L7.85,-0.6L7.8,0.8L6.95,2.6M4.1,8.15L3.5,9.3L3.15,9.25C3.517,8.283 3.833,7.917 4.1,8.15M-5.85,3.25L-7.25,-0.05C-7.583,-1.383 -7.683,-2.267 -7.55,-2.7L-7.15,-1.45L-7.5,-3.7C-7.267,-5.4 -6.983,-6.433 -6.65,-6.8L-6.6,-5.35L-6.6,-5.05C-6.567,-3.85 -6.283,-3.183 -5.75,-3.05L-5,-3.65L-4.95,-3.95L-4.45,-5.65L-3.9,0.9L-4.1,2.75L-4.65,4C-4.983,4.267 -5.383,4.017 -5.85,3.25M4.8,-9.95L4.9,-10.1L5.3,-10.05L5.15,-8.1L4.8,-9.95M2.5,-2.4L2.5,-1.05L2.5,-2.4M4.05,-1.8L3.85,-1.6L3.8,-0.95L3.85,-0.25L4.05,0.4L4.2,0.05L4.3,-0.95L4.2,-1.6L4.05,-1.8M3.05,4.35L3.3,3.45C3.533,2.75 3.583,2.05 3.45,1.35L3.25,0.1L3.15,-0.15L2.5,-1.05L2.55,1.1L3.05,4.35M1.95,0.45L1.6,0.05L1.35,1.6L1.35,1.75C1.35,2.683 1.45,3.533 1.65,4.3C1.85,5.067 2.033,4.683 2.2,3.15L2.2,2.7L1.95,0.45M0.75,4.25L0.55,4.95L0.65,6.25L0.55,4.95L0.75,4.25M0.7,10.4L0.85,11.8L0.7,10.4M5.75,-1.55L5.85,1.5L5.75,-1.55M-0.3,6.4L-0.35,5.65L-0.3,6.4" style="fill:rgb(38,101,104);"/>
                    <path d="M9,-4.45L8.95,-0.95L7.95,1.15L6.95,2.6L7.8,0.8L7.85,-0.6L7.85,-0.9L8.1,0.35L8.5,-0.25L9,-4.45M6.25,3.15L6.2,3.35L6.15,3.5L5.65,5.55L4.85,6.75L5.45,3.75L5.85,3.45L6.15,3.2L6.25,3.15M-4.1,6.25L-4.2,6.3L-5.85,3.25C-5.383,4.017 -4.983,4.267 -4.65,4L-4.1,2.75L-3.9,0.9L-4.45,-5.65L-4.3,-5.85L-4.05,-6.1C-3.85,-6.233 -3.633,-6.233 -3.4,-6.1L-3.4,-6L-3.6,-5.3L-3.75,-2.35L-3.75,-0.85C-3.517,-0.583 -3.35,-0.2 -3.25,0.3C-3.117,0.833 -3.267,1.417 -3.7,2.05L-3.65,3L-3.55,5.6L-4.1,6.25M-1.05,-4.2L-1.55,-2.25L-1.45,-4.6L-1.05,-4.2M5.65,-5.6L6,-5.75C6.333,-5.75 6.567,-5.617 6.7,-5.35L7,-3.75L5.75,-1.55L4.9,0.2L5.75,-2.25L5.75,-1.55L5.75,-2.25L5.65,-5.6M8.95,-0.95L8.5,-0.25L8.95,-0.95M8.1,0.35L7.8,0.8L8.1,0.35M1.95,0.45L2.2,2.7L2.2,3.15C2.033,4.683 1.85,5.067 1.65,4.3C1.45,3.533 1.35,2.683 1.35,1.75L1.35,1.6L1.6,0.05L1.95,0.45M-3.75,0.75L-3.85,-0.75L-3.8,-0.95L-3.75,-2.35L-3.8,-0.95L-3.85,-0.75L-3.75,0.75L-3.75,1.2L-3.75,0.75M-3.7,2.05L-3.75,1.2L-3.7,2.05" style="fill:rgb(24,67,69);"/>
                    <path d="M-0.3,11.6L-2.85,6.9L-3.1,5.6L-3.1,5.55L-3.65,3L-3.7,2.05C-3.267,1.417 -3.117,0.833 -3.25,0.3C-3.35,-0.2 -3.517,-0.583 -3.75,-0.85L-3.75,-2.35L-3.6,-5.3L-3.4,-6L-1.55,-4.75L-2.25,-3.4L-1.4,0.1L-2.25,4.5L-0.7,6.95L-0.7,9.35L-0.25,10.3L-0.15,10.55L-0.3,11.6M-7.25,-0.05L-7.8,-1.65L-7.75,-5.35L-7.7,-5.4L-7.75,-5.4L-7.2,-11.25L-7.1,-11.25L-6.75,-10.5L-6.65,-9.15L-6.8,-9.05L-6.7,-7.45L-6.65,-6.8C-6.983,-6.433 -7.267,-5.4 -7.5,-3.7L-7.15,-1.45L-7.55,-2.7C-7.683,-2.267 -7.583,-1.383 -7.25,-0.05M0.6,-7.9L1.4,-8.9L1.5,-8.9L1.5,-8.4C1.6,-7 1.267,-5.917 0.5,-5.15C0.133,-5.383 -0.067,-5.717 -0.1,-6.15L-0.25,-7.3L0.6,-7.9M4.9,-10.1L5.3,-10.45L5.6,-10.8L5.8,-10.9L5.3,-10.05L4.9,-10.1M2.5,-1.05L3.15,-0.15L3.25,0.1L3.45,1.35C3.583,2.05 3.533,2.75 3.3,3.45L3.05,4.35L2.55,1.1L2.5,-1.05" style="fill:rgb(44,160,160);"/>
                    <path d="M3.15,9.25L2.35,10.45L1,11.85L2.5,9.15L3.2,7.9L2.5,9.15L3.25,6.15L3.4,7.05L3.2,7.9L2.8,9.2L3.15,9.25M0.35,11.7L-0.3,11.6L-0.15,10.55L0.35,11.7M-3.1,5.6L-4.1,6.25L-3.55,5.6L-3.65,3L-3.1,5.55L-3.1,5.6M-3.1,5.55L-3.55,5.6L-3.1,5.55" style="fill:rgb(22,58,60);"/>
                    <path d="M8.15,-10.8L8.25,-10.75C8.617,-9.35 8.85,-7.617 8.95,-5.55M9,-4.45L8.95,-0.95L7.95,1.15L6.95,2.6L6.25,3.15L6.2,3.35M6.15,3.5L5.65,5.55L4.85,6.75L4.5,7.45L4.1,8.15L3.5,9.3L3.15,9.25L2.35,10.45L1,11.85L0.85,11.8L0.35,11.7L-0.3,11.6L-2.85,6.9L-3.1,5.6L-4.1,6.25L-4.2,6.3L-5.85,3.25L-7.25,-0.05L-7.8,-1.65L-7.75,-5.35L-7.75,-5.4L-7.2,-11.25L-7.1,-11.25L-6.15,-11.8L-4.8,-12.65C-4.7,-12.717 -4.617,-12.767 -4.55,-12.8L-2.55,-10.2L-2.45,-9.75L-2.15,-10.2L-0.95,-10.2L0.6,-7.9L1.4,-8.9L1.5,-9M1.65,-9.15L2.05,-9.6L4.2,-9.35L4.8,-9.95L4.9,-10.1L5.3,-10.45L5.6,-10.8L5.8,-10.9L6.7,-11.2L7.25,-11.2L8.15,-10.8M7.2,-9.25L7.55,-7.5L7.8,-4.5M8.1,0.35L8.5,-0.25L8.95,-0.95M2.75,-6.6L3,-8.65L3.7,-9.1L4.2,-9.35M2.65,-8.7L2.6,-8.7M2.5,-1.05L2.5,-2.5L2.75,-6.6M-0.25,10.3L-0.15,10.55L0.35,11.7M3.05,4.35L3.1,4.75L3.25,6.15L3.4,7.05L3.2,7.9L2.8,9.2L3.15,9.25M7.85,-0.6L7.8,0.8L8.1,0.35M5.45,3.75L5.85,3.45L6.15,3.2L6.25,3.15M7.8,0.8L6.95,2.6M3.05,4.35L2.55,1.1L2.5,-1.05M2.5,9.15L1,11.85M3.2,7.9L2.5,9.15L3.25,6.15M-2.7,-9.4L-2.75,-9.05L-2.9,-8.35M-0.9,-6.9L-0.25,-7.3L0.6,-7.9M-3.75,-9.6L-3.6,-9.6L-3.6,-9.55M-3.3,-6.7L-2.9,-8.3M-0.95,-6.75L-0.9,-6.9M-2.45,-9.75L-2.7,-9.4M-3.4,-6.1L-3.3,-6.7M-3.4,-6.1L-3.4,-6L-3.6,-5.3L-3.75,-2.35L-3.8,-0.95L-3.85,-0.75L-3.75,0.75M-3.7,2.05L-3.65,3L-3.1,5.55L-3.1,5.6M-3.75,1.2L-3.7,2.05M-3.55,5.6L-3.1,5.55M-4.1,6.25L-3.55,5.6L-3.65,3M-0.3,11.6L-0.15,10.55" style="fill:none;fill-rule:nonzero;stroke:rgb(56,37,16);stroke-opacity:0.5;stroke-width:0.05px;"/>
                    <path d="M1.9,-8.85L2.4,-9.15M1.9,-8.85L1.65,-5.6L1.75,-4.25L1.6,-2.7M5.65,-5.6L5.6,-6.55M5.75,-1.55L5.75,-2.25L5.65,-5.6M5.85,3.45L5.85,2.2M0.65,6.25L0.55,4.95L0.75,4.25M0.85,11.8L0.7,10.4M5.85,1.5L5.75,-1.55M-3.75,-2.35L-3.75,-0.85M-3.75,0.75L-3.75,1.2M-0.35,5.65L-0.3,6.4" style="fill:none;fill-rule:nonzero;stroke:rgb(56,37,16);stroke-opacity:0.3;stroke-width:0.05px;"/>
                    <path d="M-6.65,-6.8L-6.7,-7.45" style="fill:none;fill-rule:nonzero;stroke:black;stroke-opacity:0.25;stroke-width:0.05px;"/>
                    <path d="M-1.2,-6L-1.6,-2L0.2,-1.6L0.4,-5.7M0.05,0.95L0.2,-1.6M-1.6,-2L-1.6,1.2" style="fill:none;fill-rule:nonzero;stroke:rgb(56,37,16);stroke-opacity:0.3;stroke-width:0.05px;"/>
                </g>
            </g>
        </g>
    </g>
</svg>
