<?xml version="1.0" encoding="UTF-8" standalone="no"?>
<!DOCTYPE svg PUBLIC "-//W3C//DTD SVG 1.1//EN" "http://www.w3.org/Graphics/SVG/1.1/DTD/svg11.dtd">
<svg width="100%" height="100%" viewBox="0 0 17 20" version="1.1" xmlns="http://www.w3.org/2000/svg" xmlns:xlink="http://www.w3.org/1999/xlink" xml:space="preserve" xmlns:serif="http://www.serif.com/" style="fill-rule:evenodd;clip-rule:evenodd;stroke-linecap:round;stroke-linejoin:round;">
    <g transform="matrix(1,0,0,1,-0.0220375,0.00503752)">
        <g id="sprite0" transform="matrix(0.0498,0,0,0.0497,2.64895,-3e-05)">
            <g>
                <g id="shape0">
                    <path d="M260.5,168.2L251.15,172.45C225.917,127.617 206.283,101.333 192.25,93.6C212.683,114.367 232.717,153.033 252.35,209.6C233.85,161.8 208.533,129.033 176.4,111.3C211.033,201.7 226.867,284.25 223.9,358.95C216.167,361.25 208.05,362.267 199.55,362C182.983,361.533 165.05,356.483 145.75,346.85C107.583,327.55 75.2,296 48.6,252.2C22.267,209.133 9.233,166.883 9.5,125.45C9.367,83.983 22.133,55.067 47.8,38.7C60.4,30.467 74.417,26.35 89.85,26.35L94.65,26.5L101.3,37.7L65.5,37.7C79.333,39.167 92.05,41.733 103.65,45.4L65.15,59.35L146.25,83.4L146.25,64.45C158.15,65.25 170.633,71.567 183.7,83.4C175.533,71.567 163.05,62.7 146.25,56.8L171.6,56.8C196.467,74.3 218.883,98.433 238.85,129.2C247.283,142.133 254.5,155.133 260.5,168.2" style="fill:rgb(38,101,104);"/>
                    <path d="M223.9,358.95C226.867,284.25 211.033,201.7 176.4,111.3C208.533,129.033 233.85,161.8 252.35,209.6C232.717,153.033 212.683,114.367 192.25,93.6C206.283,101.333 225.917,127.617 251.15,172.45L260.5,168.2C274.367,198.3 281.7,228.433 282.5,258.6C283.533,302.233 270.65,332.683 243.85,349.95C237.45,353.917 230.8,356.917 223.9,358.95" style="fill:rgb(21,57,59);"/>
                    <path d="M171.6,56.8L146.25,56.8C163.05,62.7 175.533,71.567 183.7,83.4C170.633,71.567 158.15,65.25 146.25,64.45L146.25,83.4L65.15,59.35L103.65,45.4C92.05,41.733 79.333,39.167 65.5,37.7L101.3,37.7L94.65,26.5C109.15,27.167 124.883,31.467 141.85,39.4C152.017,44.2 161.933,50 171.6,56.8" style="fill:rgb(53,141,145);"/>
                    <path d="M260.5,168.2C254.5,155.133 247.283,142.133 238.85,129.2C218.883,98.433 196.467,74.3 171.6,56.8C161.933,50 152.017,44.2 141.85,39.4C124.883,31.467 109.15,27.167 94.65,26.5L89.85,26.35C74.417,26.35 60.4,30.467 47.8,38.7C22.133,55.067 9.367,83.983 9.5,125.45C9.233,166.883 22.267,209.133 48.6,252.2C75.2,296 107.583,327.55 145.75,346.85C165.05,356.483 182.983,361.533 199.55,362C208.05,362.267 216.167,361.25 223.9,358.95C230.8,356.917 237.45,353.917 243.85,349.95C270.65,332.683 283.533,302.233 282.5,258.6C281.7,228.433 274.367,198.3 260.5,168.2Z" style="fill:none;fill-rule:nonzero;stroke:black;stroke-opacity:0.3;stroke-width:0.05px;"/>
                    <path d="M38.95,58.25C46.983,55.517 55.717,54.15 65.15,54.15C73.883,54.017 83.317,55.217 93.45,57.75C124.917,65.317 153.633,82.517 179.6,109.35C195.833,113.883 210.933,124.883 224.9,142.35L206.85,142.35C210.95,148.15 214.767,153.983 218.3,159.85C213.5,152.717 207.7,145.8 200.9,139.1C200.9,143.633 199.65,149.983 197.15,158.15C146.05,103.45 93.317,70.15 38.95,58.25M262.7,359.7L263.9,366.85C258.333,366.517 250.45,363.433 240.25,357.6C244.117,371.5 240.883,384.117 230.55,395.45C222.583,389.45 217.2,380.883 214.4,369.75C205.733,376.683 198.05,381.217 191.35,383.35C190.217,376.75 190.283,369.933 191.55,362.9C182.217,366.333 172.433,368.1 162.2,368.2C147.1,367.967 131.033,364.433 114,357.6C98.467,351.133 83.883,342.583 70.25,331.95L46.1,358.3C43.033,353.567 40.533,348.517 38.6,343.15C54.467,327.017 65.883,307.55 72.85,284.75C76.583,287.117 79.883,289.9 82.75,293.1C84.417,289 87.017,284.05 90.55,278.25C113.25,314.383 142.483,336.633 178.25,345C175.417,339.467 175.417,334.367 178.25,329.7C184.85,337.967 190.983,343.233 196.65,345.5C199.383,339.067 202.967,332.483 207.4,325.75C202.033,342.783 199.65,356.817 200.25,367.85C205.35,366.383 209.3,362.4 212.1,355.9L230.55,378.45C234.15,367.417 232.95,351 226.95,329.2L233.45,341.8C242.65,351.2 252.4,357.167 262.7,359.7M29.75,290.2L24.45,283.2C7.883,260.267 -4.1,236.65 -11.5,212.35C-13.2,214.417 -15.067,217.083 -17.1,220.35C-19.733,214.217 -20.317,199.517 -18.85,176.25L-19.15,174.05C-19.95,168.117 -20.35,162.483 -20.35,157.15L-20.35,156.15C-23.75,157.483 -27.317,158.55 -31.05,159.35L-31.05,154.1C-12.45,139.767 2.767,122.117 14.6,101.15L14.6,120.2L6.9,130.4C-2.5,152.9 -6.817,171.367 -6.05,185.8C3.617,223.933 17.533,255.267 35.7,279.8C33.4,283.333 31.417,286.8 29.75,290.2M-19.65,97.9C-33.95,101.067 -44.733,99.6 -52,93.5C-50.667,89.967 -48.867,86.6 -46.6,83.4C-39.2,89.2 -28.85,91.2 -15.55,89.4C-17.017,92.133 -18.383,94.967 -19.65,97.9M-21.15,60.95C-32.883,35.983 -31.983,17.483 -18.45,5.45C-19.45,25.983 -15.133,41.75 -5.5,52.75L-15.05,57.55L-21.15,60.95M179.6,109.35L170.1,107.25L179.6,109.35M91.25,306.4C85.45,313.867 78.45,322.383 70.25,331.95C78.45,322.383 85.45,313.867 91.25,306.4M-20.35,156.15C-13.517,153.55 -4.433,144.967 6.9,130.4C-4.433,144.967 -13.517,153.55 -20.35,156.15M235.3,345.5C237.6,349.633 239.25,353.667 240.25,357.6C239.25,353.667 237.6,349.633 235.3,345.5M191.55,362.9C192.483,357.233 194.183,351.433 196.65,345.5C194.183,351.433 192.483,357.233 191.55,362.9M214.4,369.75C213.2,365.517 212.433,360.9 212.1,355.9C212.433,360.9 213.2,365.517 214.4,369.75M-5.5,207.55C-7,207.817 -9,209.417 -11.5,212.35C-9,209.417 -7,207.817 -5.5,207.55" style="fill:rgb(123,105,70);"/>
                    <path d="M218.3,159.85L222,166.75C224.533,171.283 226.933,175.867 229.2,180.5C241.767,207.2 248.35,234.683 248.95,262.95C249.283,281.65 246.95,298 241.95,312C252.383,326.633 259.3,342.533 262.7,359.7C252.4,357.167 242.65,351.2 233.45,341.8L226.95,329.2C232.95,351 234.15,367.417 230.55,378.45L212.1,355.9C209.3,362.4 205.35,366.383 200.25,367.85C199.65,356.817 202.033,342.783 207.4,325.75C202.967,332.483 199.383,339.067 196.65,345.5C190.983,343.233 184.85,337.967 178.25,329.7C175.417,334.367 175.417,339.467 178.25,345C142.483,336.633 113.25,314.383 90.55,278.25C87.017,284.05 84.417,289 82.75,293.1C79.883,289.9 76.583,287.117 72.85,284.75C65.883,307.55 54.467,327.017 38.6,343.15C34.967,333.617 33.25,323.35 33.45,312.35C27.983,312.55 23.117,315.95 18.85,322.55C19.75,312.917 23.383,302.133 29.75,290.2C31.417,286.8 33.4,283.333 35.7,279.8L36.35,278.75L35.7,279.8C17.533,255.267 3.617,223.933 -6.05,185.8C-6.817,171.367 -2.5,152.9 6.9,130.4L14.6,120.2L14.6,101.15C2.767,122.117 -12.45,139.767 -31.05,154.1C-31.05,133.9 -27.25,115.167 -19.65,97.9C-18.383,94.967 -17.017,92.133 -15.55,89.4C-28.85,91.2 -39.2,89.2 -46.6,83.4C-40.8,74.8 -32.317,67.317 -21.15,60.95L-15.05,57.55L-5.5,52.75C-15.133,41.75 -19.45,25.983 -18.45,5.45C-16.517,3.717 -14.367,2.117 -12,0.65C-11.1,31.083 1.783,52.033 26.65,63.5C30.517,61.333 34.617,59.583 38.95,58.25C93.317,70.15 146.05,103.45 197.15,158.15C199.65,149.983 200.9,143.633 200.9,139.1C207.7,145.8 213.5,152.717 218.3,159.85M34.85,66.75L26.65,63.5L34.85,66.75M241.95,312L240.45,309.95L241.95,312" style="fill:rgb(226,206,130);"/>
                    <path d="M38.95,58.25C46.983,55.517 55.717,54.15 65.15,54.15C73.883,54.017 83.317,55.217 93.45,57.75C124.917,65.317 153.633,82.517 179.6,109.35C195.833,113.883 210.933,124.883 224.9,142.35L206.85,142.35C210.95,148.15 214.767,153.983 218.3,159.85L222,166.75C224.533,171.283 226.933,175.867 229.2,180.5C241.767,207.2 248.35,234.683 248.95,262.95C249.283,281.65 246.95,298 241.95,312C252.383,326.633 259.3,342.533 262.7,359.7L263.9,366.85C258.333,366.517 250.45,363.433 240.25,357.6C244.117,371.5 240.883,384.117 230.55,395.45C222.583,389.45 217.2,380.883 214.4,369.75C205.733,376.683 198.05,381.217 191.35,383.35C190.217,376.75 190.283,369.933 191.55,362.9C182.217,366.333 172.433,368.1 162.2,368.2C147.1,367.967 131.033,364.433 114,357.6C98.467,351.133 83.883,342.583 70.25,331.95L46.1,358.3C43.033,353.567 40.533,348.517 38.6,343.15C34.967,333.617 33.25,323.35 33.45,312.35C27.983,312.55 23.117,315.95 18.85,322.55C19.75,312.917 23.383,302.133 29.75,290.2L24.45,283.2C7.883,260.267 -4.1,236.65 -11.5,212.35C-13.2,214.417 -15.067,217.083 -17.1,220.35C-19.733,214.217 -20.317,199.517 -18.85,176.25L-19.15,174.05C-19.95,168.117 -20.35,162.483 -20.35,157.15L-20.35,156.15C-23.75,157.483 -27.317,158.55 -31.05,159.35L-31.05,154.1C-31.05,133.9 -27.25,115.167 -19.65,97.9C-33.95,101.067 -44.733,99.6 -52,93.5C-50.667,89.967 -48.867,86.6 -46.6,83.4C-40.8,74.8 -32.317,67.317 -21.15,60.95C-32.883,35.983 -31.983,17.483 -18.45,5.45C-16.517,3.717 -14.367,2.117 -12,0.65C-11.1,31.083 1.783,52.033 26.65,63.5C30.517,61.333 34.617,59.583 38.95,58.25M170.1,107.25L179.6,109.35M26.65,63.5L34.85,66.75M6.9,130.4L14.6,120.2M196.65,345.5C199.383,339.067 202.967,332.483 207.4,325.75M35.7,279.8C33.4,283.333 31.417,286.8 29.75,290.2M36.35,278.75L35.7,279.8M6.9,130.4C-4.433,144.967 -13.517,153.55 -20.35,156.15M70.25,331.95C78.45,322.383 85.45,313.867 91.25,306.4M240.45,309.95L241.95,312M212.1,355.9C212.433,360.9 213.2,365.517 214.4,369.75M196.65,345.5C194.183,351.433 192.483,357.233 191.55,362.9M240.25,357.6C239.25,353.667 237.6,349.633 235.3,345.5M-15.55,89.4C-17.017,92.133 -18.383,94.967 -19.65,97.9M-15.05,57.55L-21.15,60.95M-11.5,212.35C-9,209.417 -7,207.817 -5.5,207.55" style="fill:none;fill-rule:nonzero;stroke:black;stroke-opacity:0.3;stroke-width:0.05px;"/>
                    <path d="M217.6,279.55C218.233,284.583 218.183,289.333 217.45,293.8L215.4,301.1C211.333,310.967 204.233,316.183 194.1,316.75C183.933,317.083 173.617,312.667 163.15,303.5C152.45,293.933 144.833,282.35 140.3,268.75C135.533,254.917 135.2,243.1 139.3,233.3C141.233,228.067 144.067,224.15 147.8,221.55C149.4,220.383 151.2,219.483 153.2,218.85C153.767,223.25 154.883,227.9 156.55,232.8C161.083,246.433 168.683,258.017 179.35,267.55C189.783,276.783 200.117,281.233 210.35,280.9C212.917,280.767 215.333,280.317 217.6,279.55" style="fill:rgb(235,227,189);"/>
                    <path d="M153.2,218.85C155.367,218.117 157.767,217.717 160.4,217.65C170.5,217.05 180.883,221.467 191.55,230.9C201.917,240.1 209.467,251.617 214.2,265.45C215.867,270.383 217,275.083 217.6,279.55C215.333,280.317 212.917,280.767 210.35,280.9C200.117,281.233 189.783,276.783 179.35,267.55C168.683,258.017 161.083,246.433 156.55,232.8C154.883,227.9 153.767,223.25 153.2,218.85" style="fill:rgb(80,215,221);"/>
                    <path d="M217.6,279.55C218.233,284.583 218.183,289.333 217.45,293.8L215.4,301.1C211.333,310.967 204.233,316.183 194.1,316.75C183.933,317.083 173.617,312.667 163.15,303.5C152.45,293.933 144.833,282.35 140.3,268.75C135.533,254.917 135.2,243.1 139.3,233.3C141.233,228.067 144.067,224.15 147.8,221.55C149.4,220.383 151.2,219.483 153.2,218.85C155.367,218.117 157.767,217.717 160.4,217.65C170.5,217.05 180.883,221.467 191.55,230.9C201.917,240.1 209.467,251.617 214.2,265.45C215.867,270.383 217,275.083 217.6,279.55C215.333,280.317 212.917,280.767 210.35,280.9C200.117,281.233 189.783,276.783 179.35,267.55C168.683,258.017 161.083,246.433 156.55,232.8C154.883,227.9 153.767,223.25 153.2,218.85" style="fill:none;fill-rule:nonzero;stroke:black;stroke-opacity:0.3;stroke-width:0.05px;"/>
                    <path d="M147.8,221.55C151.2,219.083 155.4,217.783 160.4,217.65C170.5,217.05 180.883,221.467 191.55,230.9C201.917,240.1 209.467,251.617 214.2,265.45C217.733,275.917 218.817,285.367 217.45,293.8L215.4,301.1C211.333,310.967 204.233,316.183 194.1,316.75C183.933,317.083 173.617,312.667 163.15,303.5C152.45,293.933 144.833,282.35 140.3,268.75C135.533,254.917 135.2,243.1 139.3,233.3C141.233,228.067 144.067,224.15 147.8,221.55" style="fill:url(#_Radial1);"/>
                    <path d="M156.95,164.6C157.583,169.633 157.533,174.383 156.8,178.85C156.233,181.317 155.55,183.75 154.75,186.15C150.683,196.017 143.583,201.233 133.45,201.8C123.283,202.133 112.967,197.717 102.5,188.55C91.8,178.983 84.183,167.4 79.65,153.8C74.883,139.967 74.55,128.15 78.65,118.35C80.583,113.117 83.417,109.2 87.15,106.6C88.75,105.433 90.55,104.533 92.55,103.9C93.117,108.3 94.233,112.95 95.9,117.85C100.433,131.483 108.033,143.067 118.7,152.6C129.133,161.833 139.467,166.283 149.7,165.95C152.267,165.817 154.683,165.367 156.95,164.6" style="fill:rgb(235,227,189);"/>
                    <path d="M92.55,103.9C94.717,103.167 97.117,102.767 99.75,102.7C109.85,102.1 120.233,106.517 130.9,115.95C141.267,125.15 148.817,136.667 153.55,150.5C155.217,155.433 156.35,160.133 156.95,164.6C154.683,165.367 152.267,165.817 149.7,165.95C139.467,166.283 129.133,161.833 118.7,152.6C108.033,143.067 100.433,131.483 95.9,117.85C94.233,112.95 93.117,108.3 92.55,103.9" style="fill:rgb(80,215,221);"/>
                    <path d="M156.95,164.6C157.583,169.633 157.533,174.383 156.8,178.85C156.233,181.317 155.55,183.75 154.75,186.15C150.683,196.017 143.583,201.233 133.45,201.8C123.283,202.133 112.967,197.717 102.5,188.55C91.8,178.983 84.183,167.4 79.65,153.8C74.883,139.967 74.55,128.15 78.65,118.35C80.583,113.117 83.417,109.2 87.15,106.6C88.75,105.433 90.55,104.533 92.55,103.9C94.717,103.167 97.117,102.767 99.75,102.7C109.85,102.1 120.233,106.517 130.9,115.95C141.267,125.15 148.817,136.667 153.55,150.5C155.217,155.433 156.35,160.133 156.95,164.6C154.683,165.367 152.267,165.817 149.7,165.95C139.467,166.283 129.133,161.833 118.7,152.6C108.033,143.067 100.433,131.483 95.9,117.85C94.233,112.95 93.117,108.3 92.55,103.9" style="fill:none;fill-rule:nonzero;stroke:black;stroke-opacity:0.3;stroke-width:0.05px;"/>
                    <path d="M78.65,118.35C80.583,113.117 83.417,109.2 87.15,106.6C90.55,104.133 94.75,102.833 99.75,102.7C109.85,102.1 120.233,106.517 130.9,115.95C141.267,125.15 148.817,136.667 153.55,150.5C157.083,160.967 158.167,170.417 156.8,178.85C156.233,181.317 155.55,183.75 154.75,186.15C150.683,196.017 143.583,201.233 133.45,201.8C123.283,202.133 112.967,197.717 102.5,188.55C91.8,178.983 84.183,167.4 79.65,153.8C74.883,139.967 74.55,128.15 78.65,118.35" style="fill:url(#_Radial2);"/>
                    <path d="M18.55,148.15C20.717,147.417 23.117,147.017 25.75,146.95C35.85,146.35 46.233,150.767 56.9,160.2C67.267,169.4 74.817,180.917 79.55,194.75C81.217,199.683 82.35,204.383 82.95,208.85C80.683,209.617 78.267,210.067 75.7,210.2C65.467,210.533 55.133,206.083 44.7,196.85C34.033,187.317 26.433,175.733 21.9,162.1C20.233,157.2 19.117,152.55 18.55,148.15" style="fill:rgb(80,215,221);"/>
                    <path d="M82.95,208.85C83.583,213.883 83.533,218.633 82.8,223.1L80.75,230.4C76.683,240.267 69.583,245.483 59.45,246.05C49.283,246.383 38.967,241.967 28.5,232.8C17.8,223.233 10.183,211.65 5.65,198.05C0.883,184.217 0.55,172.4 4.65,162.6C6.583,157.367 9.417,153.45 13.15,150.85C14.75,149.683 16.55,148.783 18.55,148.15C19.117,152.55 20.233,157.2 21.9,162.1C26.433,175.733 34.033,187.317 44.7,196.85C55.133,206.083 65.467,210.533 75.7,210.2C78.267,210.067 80.683,209.617 82.95,208.85" style="fill:rgb(235,227,189);"/>
                    <path d="M18.55,148.15C20.717,147.417 23.117,147.017 25.75,146.95C35.85,146.35 46.233,150.767 56.9,160.2C67.267,169.4 74.817,180.917 79.55,194.75C81.217,199.683 82.35,204.383 82.95,208.85C83.583,213.883 83.533,218.633 82.8,223.1L80.75,230.4C76.683,240.267 69.583,245.483 59.45,246.05C49.283,246.383 38.967,241.967 28.5,232.8C17.8,223.233 10.183,211.65 5.65,198.05C0.883,184.217 0.55,172.4 4.65,162.6C6.583,157.367 9.417,153.45 13.15,150.85C14.75,149.683 16.55,148.783 18.55,148.15C19.117,152.55 20.233,157.2 21.9,162.1C26.433,175.733 34.033,187.317 44.7,196.85C55.133,206.083 65.467,210.533 75.7,210.2C78.267,210.067 80.683,209.617 82.95,208.85" style="fill:none;fill-rule:nonzero;stroke:black;stroke-opacity:0.3;stroke-width:0.05px;"/>
                    <path d="M13.15,150.85C16.55,148.383 20.75,147.083 25.75,146.95C35.85,146.35 46.233,150.767 56.9,160.2C67.267,169.4 74.817,180.917 79.55,194.75C83.083,205.217 84.167,214.667 82.8,223.1L80.75,230.4C76.683,240.267 69.583,245.483 59.45,246.05C49.283,246.383 38.967,241.967 28.5,232.8C17.8,223.233 10.183,211.65 5.65,198.05C0.883,184.217 0.55,172.4 4.65,162.6C6.583,157.367 9.417,153.45 13.15,150.85" style="fill:url(#_Radial3);"/>
                    <path d="M238.85,129.2C218.883,98.433 196.467,74.3 171.6,56.8C161.933,50 152.017,44.2 141.85,39.4C124.883,31.467 109.15,27.167 94.65,26.5L89.85,26.35C74.417,26.35 60.4,30.467 47.8,38.7C38.2,44.833 30.4,52.75 24.4,62.45C1,50.717 -11.133,30.117 -12,0.65C-14.367,2.117 -16.517,3.717 -18.45,5.45C-31.983,17.483 -32.883,35.983 -21.15,60.95C-32.317,67.317 -40.8,74.8 -46.6,83.4C-48.867,86.6 -50.667,89.967 -52,93.5C-44.733,99.6 -33.95,101.067 -19.65,97.9C-27.25,115.167 -31.05,133.9 -31.05,154.1L-31.05,159.35C-27.317,158.55 -23.75,157.483 -20.35,156.15L-20.35,157.15C-20.35,162.483 -19.95,168.117 -19.15,174.05L-18.85,176.25C-20.317,199.517 -19.733,214.217 -17.1,220.35C-15.067,217.083 -13.2,214.417 -11.5,212.35C-4.1,236.65 7.883,260.267 24.45,283.2L29.75,290.2C23.383,302.133 19.75,312.917 18.85,322.55C23.117,315.95 27.983,312.55 33.45,312.35C33.25,323.35 34.967,333.617 38.6,343.15C40.533,348.517 43.033,353.567 46.1,358.3L70.25,331.95C83.883,342.583 98.467,351.133 114,357.6C131.033,364.433 147.1,367.967 162.2,368.2C172.433,368.1 182.217,366.333 191.55,362.9C190.283,369.933 190.217,376.75 191.35,383.35C198.05,381.217 205.733,376.683 214.4,369.75C217.2,380.883 222.583,389.45 230.55,395.45C240.883,384.117 244.117,371.5 240.25,357.6C250.45,363.433 258.333,366.517 263.9,366.85L262.7,359.7C261.333,352.733 259.383,346 256.85,339.5C274.817,321.433 283.367,294.467 282.5,258.6C281.7,228.433 274.367,198.3 260.5,168.2C254.5,155.133 247.283,142.133 238.85,129.2M239.45,128.9C247.883,141.833 255.1,154.85 261.1,167.95C274.967,198.15 282.3,228.367 283.1,258.6C284,294.467 275.5,321.483 257.6,339.65C260.033,346.05 261.95,352.683 263.35,359.55L264.55,366.8L264.5,367.15L264.25,367.4L263.9,367.5C258.467,367.167 250.917,364.283 241.25,358.85C244.583,372.417 241.183,384.75 231.05,395.85L230.6,396.05L230.2,395.95C222.333,390.017 216.95,381.667 214.05,370.9C205.617,377.533 198.117,381.883 191.55,383.95L191.25,383.95L190.9,383.8L190.7,383.45C189.633,377.117 189.633,370.6 190.7,363.9C181.667,367.1 172.167,368.733 162.2,368.8C147.033,368.6 130.9,365.083 113.8,358.25L113.75,358.15C98.35,351.75 83.883,343.3 70.35,332.8L46.6,358.75L46.25,358.95L45.85,358.85L45.6,358.65C42.5,353.883 39.983,348.8 38.05,343.4C34.45,334 32.717,323.883 32.85,313.05C27.85,313.517 23.367,316.817 19.4,322.95L19.05,323.2L18.65,323.2L18.35,322.95L18.25,322.5C19.117,312.9 22.7,302.15 29,290.25L23.95,283.6C7.583,260.933 -4.317,237.633 -11.75,213.7C-13.25,215.567 -14.833,217.883 -16.5,220.65L-16.9,221L-17.35,220.9L-17.65,220.6C-20.317,214.433 -20.917,199.667 -19.45,176.3L-19.8,174.15C-20.6,168.183 -21,162.517 -21,157.15L-21,157.1C-24.167,158.267 -27.467,159.233 -30.9,160L-31.25,160L-31.55,159.75L-31.7,159.35L-31.7,154.1C-31.7,134.233 -28.05,115.783 -20.75,98.75C-34.717,101.65 -45.267,100.067 -52.4,94L-52.55,93.65L-52.55,93.3C-51.217,89.733 -49.4,86.333 -47.1,83.1C-41.367,74.533 -33,67.067 -22,60.7C-33.567,35.633 -32.517,17.067 -18.85,5C-16.917,3.233 -14.733,1.617 -12.3,0.15L-11.85,0L-11.5,0.25L-11.35,0.65C-10.517,29.583 1.333,49.917 24.2,61.65C30.167,52.083 37.933,44.267 47.5,38.2C60.167,29.867 74.283,25.7 89.85,25.7L94.7,25.9C109.267,26.567 125.067,30.883 142.1,38.85C152.333,43.617 162.283,49.433 171.95,56.3C196.883,73.833 219.383,98.033 239.45,128.9" style="fill:rgb(255,238,116);"/>
                    <path d="M238.85,129.2C247.283,142.133 254.5,155.133 260.5,168.2C274.367,198.3 281.7,228.433 282.5,258.6C283.367,294.467 274.817,321.433 256.85,339.5C259.383,346 261.333,352.733 262.7,359.7L263.9,366.85C258.333,366.517 250.45,363.433 240.25,357.6C244.117,371.5 240.883,384.117 230.55,395.45C222.583,389.45 217.2,380.883 214.4,369.75C205.733,376.683 198.05,381.217 191.35,383.35C190.217,376.75 190.283,369.933 191.55,362.9C182.217,366.333 172.433,368.1 162.2,368.2C147.1,367.967 131.033,364.433 114,357.6C98.467,351.133 83.883,342.583 70.25,331.95L46.1,358.3C43.033,353.567 40.533,348.517 38.6,343.15C34.967,333.617 33.25,323.35 33.45,312.35C27.983,312.55 23.117,315.95 18.85,322.55C19.75,312.917 23.383,302.133 29.75,290.2L24.45,283.2C7.883,260.267 -4.1,236.65 -11.5,212.35C-13.2,214.417 -15.067,217.083 -17.1,220.35C-19.733,214.217 -20.317,199.517 -18.85,176.25L-19.15,174.05C-19.95,168.117 -20.35,162.483 -20.35,157.15L-20.35,156.15C-23.75,157.483 -27.317,158.55 -31.05,159.35L-31.05,154.1C-31.05,133.9 -27.25,115.167 -19.65,97.9C-33.95,101.067 -44.733,99.6 -52,93.5C-50.667,89.967 -48.867,86.6 -46.6,83.4C-40.8,74.8 -32.317,67.317 -21.15,60.95C-32.883,35.983 -31.983,17.483 -18.45,5.45C-16.517,3.717 -14.367,2.117 -12,0.65C-11.133,30.117 1,50.717 24.4,62.45C30.4,52.75 38.2,44.833 47.8,38.7C60.4,30.467 74.417,26.35 89.85,26.35L94.65,26.5C109.15,27.167 124.883,31.467 141.85,39.4C152.017,44.2 161.933,50 171.6,56.8C196.467,74.3 218.883,98.433 238.85,129.2Z" style="fill:none;fill-rule:nonzero;stroke:rgb(255,238,116);stroke-width:1.5px;"/>
                </g>
            </g>
        </g>
    </g>
    <defs>
        <radialGradient id="_Radial1" cx="0" cy="0" r="1" gradientUnits="userSpaceOnUse" gradientTransform="matrix(87.6544,-50.4627,101.417,175.8,182.35,243)"><stop offset="0" style="stop-color:rgb(53,141,145);stop-opacity:0.5"/><stop offset="0.22" style="stop-color:rgb(53,141,145);stop-opacity:0.5"/><stop offset="0.74" style="stop-color:rgb(53,141,145);stop-opacity:0"/><stop offset="1" style="stop-color:rgb(53,141,145);stop-opacity:0"/></radialGradient>
        <radialGradient id="_Radial2" cx="0" cy="0" r="1" gradientUnits="userSpaceOnUse" gradientTransform="matrix(87.6544,-50.4627,101.417,175.8,121.7,128.05)"><stop offset="0" style="stop-color:rgb(53,141,145);stop-opacity:0.5"/><stop offset="0.22" style="stop-color:rgb(53,141,145);stop-opacity:0.5"/><stop offset="0.74" style="stop-color:rgb(53,141,145);stop-opacity:0"/><stop offset="1" style="stop-color:rgb(53,141,145);stop-opacity:0"/></radialGradient>
        <radialGradient id="_Radial3" cx="0" cy="0" r="1" gradientUnits="userSpaceOnUse" gradientTransform="matrix(87.6544,-50.4627,101.417,175.8,47.7,172.3)"><stop offset="0" style="stop-color:rgb(53,141,145);stop-opacity:0.5"/><stop offset="0.22" style="stop-color:rgb(53,141,145);stop-opacity:0.5"/><stop offset="0.74" style="stop-color:rgb(53,141,145);stop-opacity:0"/><stop offset="1" style="stop-color:rgb(53,141,145);stop-opacity:0"/></radialGradient>
    </defs>
</svg>
