<?xml version="1.0" encoding="UTF-8" standalone="no"?>
<!DOCTYPE svg PUBLIC "-//W3C//DTD SVG 1.1//EN" "http://www.w3.org/Graphics/SVG/1.1/DTD/svg11.dtd">
<svg width="100%" height="100%" viewBox="0 0 48 48" version="1.1" xmlns="http://www.w3.org/2000/svg" xmlns:xlink="http://www.w3.org/1999/xlink" xml:space="preserve" xmlns:serif="http://www.serif.com/" style="fill-rule:evenodd;clip-rule:evenodd;stroke-linecap:round;stroke-linejoin:round;">
    <g transform="matrix(1,0,0,1,23.8,23.575)">
        <g>
            <g id="shape0">
                <path d="M12.3,-17.85L12.65,-17.65L14.1,-16.75L17.5,-13.85C19.167,-12.283 19.983,-11.233 19.95,-10.7L19.75,-10.95C19.65,-11.017 19.717,-10.917 19.95,-10.65L18.85,-11.5L18.6,-11.7L18.15,-12L17.6,-12.45L17.55,-12.55L13.8,-15.85L13.25,-16.75L12.25,-17.6L12.3,-17.85" style="fill:#666;"/>
                <path d="M12.2,-17.65L12.25,-17.6L12.05,-16.9L12.05,-17L12.2,-17.65" style="fill:#252525;"/>
                <path d="M6.9,-13.6L8.75,-14.35C10.45,-15.05 11.517,-15.9 11.95,-16.9L12.05,-17L12.05,-16.9C11.85,-16.433 11.517,-15.983 11.05,-15.55C10.483,-15.117 9.767,-14.717 8.9,-14.35L6.9,-13.6" style="fill:#2b2b2b;"/>
                <path d="M6.15,-19.65L6.3,-17.9L5.3,-17.3L3.6,-18L3.4,-18.35L3.25,-19.35C3.817,-19.917 4.5,-20.167 5.3,-20.1L6.15,-19.65" style="fill:#fff;"/>
                <path d="M-21.55,-8.4L-21.5,-8.6L-21.4,-8.55L-21.55,-8.4M0.95,-13L0.75,-13L-0.2,-13.05L0.95,-13M-12.1,-16.35L-12.1,-16.5L-12.05,-16.45L-12.1,-16.35" style="fill:#ccc;"/>
                <path d="M21.05,-8.9C22.783,-5.867 23.65,-2.5 23.65,1.2C23.65,7.3 21.283,12.5 16.55,16.8C11.95,21.267 6.417,23.5 -0.05,23.5L-1.6,23.5C3.933,23.133 8.7,20.933 12.7,16.9C17.233,12.667 19.517,7.567 19.55,1.6L19.4,-0.65C18.167,0.817 17.233,2.4 16.6,4.1C16.233,3.033 15.65,1.95 14.85,0.85C13.483,-1.15 11.95,-2.6 10.25,-3.5L9.35,-3.7C7.817,-4.7 6.133,-5.383 4.3,-5.75C3.433,-6.883 2.383,-7.8 1.15,-8.5L1.2,-8.5L4.3,-8.7L5.6,-8.9C8,-9.333 10.45,-10.133 12.95,-11.3L14,-11.65L14.95,-11.45L14.85,-11.65L15.45,-11.45L16.15,-11.2L18.3,-9.8C20.233,-8.133 21.15,-7.833 21.05,-8.9"/>
                <path d="M14,-11.65L14.85,-11.65L14.95,-11.45L14,-11.65" style="fill:#272727;"/>
                <path d="M-9.95,-18.85L-9.95,-18.65L-9.85,-18.15L-10.95,-17.65L-10.9,-17.75L-11.15,-17.55L-12.05,-16.75L-12.05,-16.8L-12,-16.9L-11.25,-18.05C-10.917,-18.35 -10.483,-18.617 -9.95,-18.85" style="fill:#eaeaea;"/>
                <path d="M-1.15,-13.15L-3.35,-12.15L-4.85,-11.75L-3.5,-11.45C-1.3,-10.883 0.183,-10.333 0.95,-9.8C1.483,-9.4 1.6,-9.017 1.3,-8.65L1.2,-8.5L1.15,-8.5L-3.9,-9.15C-5.867,-9.617 -7.8,-10.333 -9.7,-11.3C-10.867,-12.267 -12.35,-12.4 -14.15,-11.7L-14.35,-11.65L-15.1,-11.3L-17.85,-9.6C-20.85,-7.367 -22.083,-6.967 -21.55,-8.4L-21.4,-8.55C-20.4,-9.95 -19.2,-11.15 -17.8,-12.15L-12.05,-16.8L-12.05,-16.75L-11.15,-17.55L-10.9,-17.75L-10.95,-17.65L-9.85,-18.15L-9.8,-17.65L-9.1,-16.55L-9.35,-16.65C-8.817,-16.017 -8,-15.417 -6.9,-14.85C-5.4,-14.083 -3.667,-13.55 -1.7,-13.25L-1.6,-13.25L-1.15,-13.15M4.95,16.55C0.883,17.95 -3.25,17.467 -7.45,15.1L-10.15,13.15C-10.317,12.35 -9.95,11.717 -9.05,11.25C-8.183,10.717 -7.033,10.867 -5.6,11.7C-4.167,12.5 -2.183,12.95 0.35,13.05C2.15,12.85 3.583,12.517 4.65,12.05C3.583,13.483 3.683,14.983 4.95,16.55M-12.1,-16.35L-12.05,-16.45L-12.1,-16.5L-12.1,-16.35" style="fill:#67c6c6;"/>
                <path d="M10.45,-19.6L10.75,-18.8L10.55,-18.3L10.5,-18.35L9.05,-18.85L7.75,-19.3C8.15,-18.733 8.017,-18.15 7.35,-17.55C5.55,-16.183 3.717,-16.067 1.85,-17.2C-0.05,-18.367 -0.483,-19.367 0.55,-20.2L-6.65,-19.45L-8.4,-18.7L-7.8,-19.6L-7.2,-20.1C-6.767,-20.467 -6.217,-20.783 -5.55,-21.05C-3.45,-21.95 -0.983,-22.35 1.85,-22.25C4.617,-22.15 6.967,-21.6 8.9,-20.6L9.4,-20.35L10.35,-19.75L10.4,-19.6L10.45,-19.6M6.15,-19.65L5.3,-20.1C4.5,-20.167 3.817,-19.917 3.25,-19.35L3.4,-18.35L3.6,-18L5.3,-17.3L6.3,-17.9L6.15,-19.65" style="fill:#a8f0f0;"/>
                <path d="M-21.5,-8.6L-21.05,-9.4C-20.25,-10.8 -19.283,-12.117 -18.15,-13.35L-18.15,-13.15L-14.7,-16.45C-13.433,-17.383 -12.1,-18.167 -10.7,-18.8L-9.85,-19.2L-9.95,-18.85C-10.483,-18.617 -10.917,-18.35 -11.25,-18.05L-12,-16.9L-12.05,-16.8L-17.8,-12.15C-19.2,-11.15 -20.4,-9.95 -21.4,-8.55L-21.5,-8.6M-18.6,-7.8C-17.167,-9.033 -16.233,-9.517 -15.8,-9.25C-19.967,-5.85 -21.833,-0.75 -21.4,6.05C-23.433,-0.55 -22.5,-5.167 -18.6,-7.8" style="fill:#d5f7f7;"/>
                <path d="M-1.6,23.5C-4.233,23.333 -6.7,22.8 -9,21.9C-10.967,21.1 -12.817,20.05 -14.55,18.75L-15.75,17.85L-16.9,16.8C-21.5,12.5 -23.8,7.3 -23.8,1.2C-23.8,-2.267 -23.05,-5.467 -21.55,-8.4C-22.083,-6.967 -20.85,-7.367 -17.85,-9.6L-15.1,-11.3L-14.35,-11.65L-14.15,-11.7C-12.35,-12.4 -10.867,-12.267 -9.7,-11.3C-7.8,-10.333 -5.867,-9.617 -3.9,-9.15L1.15,-8.5C2.383,-7.8 3.433,-6.883 4.3,-5.75L0.55,-6.15C-3.417,-6.183 -6.817,-5.05 -9.65,-2.75L-9.75,-2.65L-10.35,-2C-11.25,-0.833 -11.933,0.433 -12.4,1.8C-13.6,5.067 -13.6,7.9 -12.4,10.3C-11.867,11.333 -11.117,12.283 -10.15,13.15L-7.45,15.1C-3.25,17.467 0.883,17.95 4.95,16.55C6.283,16.05 7.633,15.35 9,14.45C15.667,9.95 16.5,4.467 11.5,-2L10.65,-2.75L9.35,-3.7L10.25,-3.5C11.95,-2.6 13.483,-1.15 14.85,0.85C15.65,1.95 16.233,3.033 16.6,4.1C17.233,2.4 18.167,0.817 19.4,-0.65L19.55,1.6C19.517,7.567 17.233,12.667 12.7,16.9C8.7,20.933 3.933,23.133 -1.6,23.5M-18.6,-7.8C-22.5,-5.167 -23.433,-0.55 -21.4,6.05C-21.833,-0.75 -19.967,-5.85 -15.8,-9.25C-16.233,-9.517 -17.167,-9.033 -18.6,-7.8" style="fill:#0a525b;"/>
                <path d="M19.95,-10.7L21.05,-8.9C21.15,-7.833 20.233,-8.133 18.3,-9.8L16.15,-11.2L15.45,-11.45L14.85,-11.65L14,-11.65L12.95,-11.3C10.45,-10.133 8,-9.333 5.6,-8.9L4.3,-8.7L1.2,-8.5L1.3,-8.65C1.6,-9.017 1.483,-9.4 0.95,-9.8C0.183,-10.333 -1.3,-10.883 -3.5,-11.45L-4.85,-11.75L-3.35,-12.15L-1.15,-13.15L-0.2,-13.05L0.75,-13L3.3,-13L6.2,-13.45L6.9,-13.6L8.9,-14.35C9.767,-14.717 10.483,-15.117 11.05,-15.55L11.05,-15.3C10.983,-14.133 9.633,-13.083 7,-12.15C5.067,-11.517 2.9,-11.15 0.5,-11.05C4.067,-10.917 7.167,-11.283 9.8,-12.15C12.433,-13.083 13.783,-14.133 13.85,-15.3L13.8,-15.85L17.55,-12.55L17.6,-12.45L18.15,-12L18.6,-11.7L18.85,-11.5L19.95,-10.65C19.717,-10.917 19.65,-11.017 19.75,-10.95L19.95,-10.7M11.5,-2C16.5,4.467 15.667,9.95 9,14.45C7.633,15.35 6.283,16.05 4.95,16.55C3.683,14.983 3.583,13.483 4.65,12.05C3.583,12.517 2.15,12.85 0.35,13.05C-2.183,12.95 -4.167,12.5 -5.6,11.7C-7.033,10.867 -8.183,10.717 -9.05,11.25C-9.95,11.717 -10.317,12.35 -10.15,13.15C-11.117,12.283 -11.867,11.333 -12.4,10.3C-13.6,7.9 -13.6,5.067 -12.4,1.8C-11.933,0.433 -11.25,-0.833 -10.35,-2L-11.4,0.6C-11.833,1.9 -11.767,3.1 -11.2,4.2C-10.667,5.333 -10.017,6.333 -9.25,7.2C-7.15,9.733 -4.3,11.217 -0.7,11.65C2.367,11.65 4.867,11.167 6.8,10.2C10.733,8.167 12.3,4.1 11.5,-2" style="fill:#0b7d8c;"/>
                <path d="M12.25,-17.6L13.25,-16.75L13.8,-15.85L13.85,-15.3C13.783,-14.133 12.433,-13.083 9.8,-12.15C7.167,-11.283 4.067,-10.917 0.5,-11.05C2.9,-11.15 5.067,-11.517 7,-12.15C9.633,-13.083 10.983,-14.133 11.05,-15.3L11.05,-15.55C11.517,-15.983 11.85,-16.433 12.05,-16.9L12.25,-17.6" style="fill:#0c6e7a;"/>
                <path d="M-9.85,-19.2L-9.5,-20.05C-9.633,-19.283 -9.25,-18.45 -8.35,-17.55C-1.417,-13.95 5.067,-13.783 11.1,-17.05C11.667,-17.483 12,-18.05 12.1,-18.75L12.2,-17.85L12.2,-17.65L12.05,-17L11.95,-16.9C11.517,-15.9 10.45,-15.05 8.75,-14.35L6.9,-13.6L6.2,-13.45L3.3,-13L0.95,-13L-0.2,-13.05L-1.15,-13.15L-1.6,-13.25L-1.7,-13.25C-3.667,-13.55 -5.4,-14.083 -6.9,-14.85C-8,-15.417 -8.817,-16.017 -9.35,-16.65L-9.1,-16.55L-9.8,-17.65L-9.85,-18.15L-9.95,-18.65L-9.95,-18.85L-9.85,-19.2" style="fill:#2b3035;"/>
                <path d="M10.45,-19.6L10.4,-19.6L10.35,-19.75L9.4,-20.35L8.9,-20.6C6.967,-21.6 4.617,-22.15 1.85,-22.25C-0.983,-22.35 -3.45,-21.95 -5.55,-21.05C-6.217,-20.783 -6.767,-20.467 -7.2,-20.1L-7.8,-19.6L-8.4,-18.7L-6.65,-19.45L0.55,-20.2C-0.483,-19.367 -0.05,-18.367 1.85,-17.2C3.717,-16.067 5.55,-16.183 7.35,-17.55C8.017,-18.15 8.15,-18.733 7.75,-19.3L9.05,-18.85L10.5,-18.35L10.55,-18.3L10.75,-18.8L10.45,-19.6M-9.5,-20.05L-9.25,-20.4L-7.95,-21.55L-6.55,-22.25C-4.317,-23.183 -1.667,-23.6 1.4,-23.5C4.433,-23.4 7.017,-22.817 9.15,-21.75L9.6,-21.5L9.6,-21.45L10.3,-21C11.033,-20.533 11.567,-20.017 11.9,-19.45L12.2,-18.8L12.3,-17.85L12.25,-17.6L12.2,-17.65L12.2,-17.85L12.1,-18.75C12,-18.05 11.667,-17.483 11.1,-17.05C5.067,-13.783 -1.417,-13.95 -8.35,-17.55C-9.25,-18.45 -9.633,-19.283 -9.5,-20.05" style="fill:#5dafaf;"/>
                <path d="M12.3,-18.85L12.45,-17.85L12.45,-17.8C12.517,-17.767 12.617,-17.717 12.75,-17.65L14,-16.85L15.65,-15.5C17.15,-14.333 18.35,-13.067 19.25,-11.7L19.35,-11.7L20.05,-10.65L21.2,-8.9C22.9,-5.833 23.767,-2.467 23.8,1.2C23.767,7.267 21.383,12.467 16.65,16.8C12.05,21.267 6.517,23.5 0.05,23.5L-1.5,23.5C-4.1,23.333 -6.55,22.783 -8.85,21.85C-10.817,21.083 -12.667,20.067 -14.4,18.8L-15.65,17.8L-16.8,16.8C-21.4,12.467 -23.7,7.267 -23.7,1.2C-23.7,-2.267 -22.95,-5.483 -21.45,-8.45L-21.4,-8.6L-20.95,-9.4L-18.05,-13.35C-17.117,-14.55 -15.95,-15.6 -14.55,-16.5C-13.283,-17.4 -11.967,-18.183 -10.6,-18.85L-9.75,-19.2L-9.4,-20.05L-9.1,-20.4L-7.85,-21.55L-6.45,-22.3C-4.183,-23.233 -1.517,-23.633 1.55,-23.5C4.583,-23.433 7.167,-22.85 9.3,-21.75L9.7,-21.5L9.7,-21.45L10.45,-21L12,-19.45L12.3,-18.85M4.45,-5.75C6.25,-5.417 7.917,-4.733 9.45,-3.7L10.8,-2.75L11.65,-2C12.417,4.067 10.85,8.133 6.95,10.2C4.983,11.167 2.483,11.65 -0.55,11.65C-5.45,11.05 -8.967,8.567 -11.1,4.2C-11.667,3.1 -11.733,1.9 -11.3,0.6L-10.25,-2L-9.65,-2.65L-9.5,-2.75C-6.7,-5.05 -3.3,-6.183 0.7,-6.15L4.45,-5.75" style="fill:none;fill-rule:nonzero;stroke:#000;stroke-opacity:0.6;stroke-width:0.1px;"/>
                <path d="M15.05,-11.75L11.45,-8.6L12.2,-13.2L9,-17.2L13.75,-16.2L17.25,-19.4L16.2,-14.5L19.4,-10.9L15.05,-11.75M12.85,8.95L11.15,10.35L11.6,8.15L10.2,6.6L12.4,7.05L14.2,5.45L13.7,7.6L15.25,9.3L12.85,8.95M-16.05,-11.7L-16.85,-9.35L-17.7,-11.6L-20.2,-12.6L-17.8,-13.4L-17.1,-15.7L-16.25,-13.25L-13.9,-12.45L-16.05,-11.7M-11.55,18.9L-12.15,14.85L-9.25,17.45L-5.55,16.65L-8.25,19.65L-7.5,23.4L-10.15,21.05L-13.9,21.85L-11.55,18.9" style="fill:#fff;"/>
            </g>
        </g>
    </g>
</svg>
