<?xml version="1.0" encoding="UTF-8" standalone="no"?>
<!DOCTYPE svg PUBLIC "-//W3C//DTD SVG 1.1//EN" "http://www.w3.org/Graphics/SVG/1.1/DTD/svg11.dtd">
<svg width="100%" height="100%" viewBox="0 0 16 21" version="1.1" xmlns="http://www.w3.org/2000/svg" xmlns:xlink="http://www.w3.org/1999/xlink" xml:space="preserve" xmlns:serif="http://www.serif.com/" style="fill-rule:evenodd;clip-rule:evenodd;stroke-linecap:round;stroke-linejoin:round;">
    <g id="sprite0" transform="matrix(1,0,0,1,7.6,10.25)">
        <g>
            <g id="shape0">
                <path d="M-1,4.1L-2,3.75L-2.25,3.95L-2,4.2L-2.35,4.55L-1.8,5.35L-1,4.1M-0.7,-6.95L-1.65,-6.05L-0.45,-6.05L-0.15,-5.4C0.783,-5.767 1.767,-5.667 2.8,-5.1C3.3,-4.467 3.367,-3.567 3,-2.4L3.45,-2.55L5.8,-2.3C6.5,-1 6.383,0.25 5.45,1.45L4.15,1.7L4.2,1.75L4.3,1.95L4.35,2L4.75,2.55C5.917,4.25 6.683,5.767 7.05,7.1C5.55,7.3 3.983,6.867 2.35,5.8L1.35,7.5L1.65,7.6C1.15,8.6 0.567,9.317 -0.1,9.75C-1.8,9.183 -3.1,8.25 -4,6.95L-3.9,6.7L-2.8,4.9C-3.333,5.267 -3.85,5.517 -4.35,5.65C-5.783,4.55 -6.7,3.25 -7.1,1.75L-6.9,1.5L-4.8,-0.15L-4.5,0.9L-3.65,0.25C-3.95,-0.75 -3.833,-1.667 -3.3,-2.5L-3.85,-3.15C-4.183,-3.683 -4.417,-4.3 -4.55,-5C-4.917,-6.967 -4.65,-8.55 -3.75,-9.75L-0.7,-6.95" style="fill:rgb(40,10,2);"/>
                <path d="M-0.7,-6.95L-3.75,-9.75C-4.65,-8.55 -4.917,-6.967 -4.55,-5C-4.417,-4.3 -4.183,-3.683 -3.85,-3.15L-3.3,-2.5C-3.833,-1.667 -3.95,-0.75 -3.65,0.25L-4.5,0.9L-4.8,-0.15L-6.9,1.5L-7.1,1.75C-6.7,3.25 -5.783,4.55 -4.35,5.65C-3.85,5.517 -3.333,5.267 -2.8,4.9L-3.9,6.7L-4,6.95C-3.1,8.25 -1.8,9.183 -0.1,9.75C0.567,9.317 1.15,8.6 1.65,7.6L1.35,7.5L2.35,5.8C3.983,6.867 5.55,7.3 7.05,7.1C6.683,5.767 5.917,4.25 4.75,2.55L4.35,2L4.3,1.95L4.2,1.75L4.15,1.7L5.45,1.45C6.383,0.25 6.5,-1 5.8,-2.3L3.45,-2.55L3,-2.4C3.367,-3.567 3.3,-4.467 2.8,-5.1C1.767,-5.667 0.783,-5.767 -0.15,-5.4L-0.45,-6.05L-1.65,-6.05L-0.7,-6.95M-1,4.1L-1.8,5.35L-2.35,4.55L-2,4.2L-2.25,3.95L-2,3.75L-1,4.1Z" style="fill:none;fill-rule:nonzero;stroke:rgb(40,10,2);stroke-width:1px;"/>
            </g>
            <g id="sprite1" transform="matrix(0.0498,0,0,0.0497,-5.80056,-10.8507)">
                <g id="shape1">
                    <path d="M48.9,218.6L71.5,200.1L104.3,225.05L118.55,258.2L88.5,283.5C70.3,280.6 57.1,258.967 48.9,218.6" style="fill:rgb(77,45,13);"/>
                    <path d="M-22.45,248.75C-14.017,238.417 0.05,227.283 19.75,215.35C21.317,222.783 23.467,229.95 26.2,236.85C34.4,258.183 47.433,276.917 65.3,293.05C41.633,305.65 12.383,290.883 -22.45,248.75" style="fill:rgb(203,146,42);"/>
                    <path d="M48.9,218.6C57.1,258.967 70.3,280.6 88.5,283.5L71.15,298.4L76.6,302.65C60.467,318.017 44.783,327.783 29.55,331.95C0.817,310.017 -17.8,283.983 -26.3,253.85L-22.45,248.75C12.383,290.883 41.633,305.65 65.3,293.05C47.433,276.917 34.4,258.183 26.2,236.85L48.9,218.6M71.15,298.4L65.3,293.05L71.15,298.4" style="fill:rgb(151,89,25);"/>
                    <path d="M88.5,283.5L118.55,258.2L104.3,225.05L71.5,200.1L48.9,218.6L26.2,236.85C34.4,258.183 47.433,276.917 65.3,293.05L71.15,298.4L76.6,302.65C60.467,318.017 44.783,327.783 29.55,331.95C0.817,310.017 -17.8,283.983 -26.3,253.85L-22.45,248.75C-14.017,238.417 0.05,227.283 19.75,215.35C21.317,222.783 23.467,229.95 26.2,236.85M88.5,283.5L71.15,298.4" style="fill:none;fill-rule:nonzero;stroke:black;stroke-opacity:0.3;stroke-width:0.05px;"/>
                    <path d="M96.1,301.15L111.5,276.3L150.6,289.2L174.8,316.05L154.7,349.55C132.833,337.817 113.3,321.683 96.1,301.15" style="fill:rgb(77,45,13);"/>
                    <path d="M38.5,352.9C43.133,340.333 52.767,325.233 67.4,307.6C71.367,314.067 75.75,320.15 80.55,325.85C95.283,343.317 113.7,356.8 135.8,366.3C117.533,385.933 85.1,381.467 38.5,352.9" style="fill:rgb(203,146,42);"/>
                    <path d="M96.1,301.15C113.3,321.683 132.833,337.817 154.7,349.55L143.15,369.4L149.6,371.65C139.4,391.417 127.767,405.733 114.7,414.6C80.433,403.2 54.367,384.617 36.5,358.85C37,356.95 37.667,354.967 38.5,352.9C85.1,381.467 117.533,385.933 135.8,366.3C113.7,356.8 95.283,343.317 80.55,325.85L96.1,301.15M143.15,369.4C140.65,368.433 138.2,367.4 135.8,366.3C138.2,367.4 140.65,368.433 143.15,369.4" style="fill:rgb(151,89,25);"/>
                    <path d="M154.7,349.55L174.8,316.05L150.6,289.2L111.5,276.3L96.1,301.15L80.55,325.85C75.75,320.15 71.367,314.067 67.4,307.6C52.767,325.233 43.133,340.333 38.5,352.9C37.667,354.967 37,356.95 36.5,358.85C54.367,384.617 80.433,403.2 114.7,414.6C127.767,405.733 139.4,391.417 149.6,371.65L143.15,369.4L154.7,349.55M135.8,366.3C138.2,367.4 140.65,368.433 143.15,369.4M135.8,366.3C113.7,356.8 95.283,343.317 80.55,325.85" style="fill:none;fill-rule:nonzero;stroke:black;stroke-opacity:0.3;stroke-width:0.05px;"/>
                    <path d="M95.85,96.15C92.05,98.15 88.317,100.55 84.65,103.35C83.917,105.25 83.267,107.2 82.7,109.2C81.2,114.4 78.55,122.517 74.75,133.55L69.75,127.1L77.35,103.75L66.3,118.15C56.2,104.417 47.467,87.4 40.1,67.1C44,92.033 51.2,114.717 61.7,135.15C51.2,114.717 44,92.033 40.1,67.1C47.467,87.4 56.2,104.417 66.3,118.15L77.35,103.75L69.75,127.1L74.75,133.55C69.183,134.617 64.833,135.15 61.7,135.15C57.633,135.083 53.783,136 50.15,137.9C45.583,143.267 42.067,148.85 39.6,154.65C32.467,144.117 27.583,131.983 24.95,118.25C17.35,78.517 22.65,46.333 40.85,21.7C65.917,42.867 86.267,61.85 101.9,78.65L83.55,96.15L95.85,96.15M92,192.4C88.833,191.3 85.817,190.133 82.95,188.9L89.5,189.15L91.35,190.5L92,192.4" style="fill:rgb(93,100,23);"/>
                    <path d="M95.85,96.15L106.9,96.15C122.933,128.85 133.233,151.9 137.8,165.3C141.7,176.733 141.367,181 136.8,178.1L122.3,187.8C115.9,181.333 109.567,174.583 103.3,167.55C97.1,160.683 90.967,153.517 84.9,146.05L80.8,141.25L74.85,133.55L74.75,133.55L74.85,133.55L80.8,141.25L84.9,146.05C90.967,153.517 97.1,160.683 103.3,167.55C109.567,174.583 115.9,181.333 122.3,187.8L136.8,178.1C141.367,181 141.7,176.733 137.8,165.3L145.75,163.95C144.85,170.083 146.05,175.333 149.35,179.7C148.017,180.367 146.9,181.167 146,182.1L145.6,182.35C144.033,187.95 143.383,193.483 143.65,198.95C139.983,200.117 137.2,202.233 135.3,205.3L131.95,202.45C127.817,202.35 123.933,202.8 120.3,203.8C118.567,204.2 116.917,204.733 115.35,205.4C113.417,207.567 111.833,209.717 110.6,211.85L109.5,211.5C106.667,210.267 104.05,208.567 101.65,206.4L101.3,206.15L99.7,204.55C98.133,202.983 96.767,201.333 95.6,199.6C94.033,197.367 92.833,194.967 92,192.4C95.233,193.533 98.617,194.567 102.15,195.5L109.85,195.5L102.15,195.5C98.617,194.567 95.233,193.533 92,192.4L91.35,190.5L89.5,189.15L82.95,188.9C63.983,180.867 49.533,169.45 39.6,154.65C42.067,148.85 45.583,143.267 50.15,137.9C53.783,136 57.633,135.083 61.7,135.15C64.833,135.15 69.183,134.617 74.75,133.55C78.55,122.517 81.2,114.4 82.7,109.2C83.267,107.2 83.917,105.25 84.65,103.35C88.317,100.55 92.05,98.15 95.85,96.15M122.3,187.8L109.85,195.5C102.917,189.533 96.467,183.233 90.5,176.6C79.067,163.933 69.467,150.117 61.7,135.15C69.467,150.117 79.067,163.933 90.5,176.6C96.467,183.233 102.917,189.533 109.85,195.5L122.3,187.8" style="fill:rgb(47,50,14);"/>
                    <path d="M137.8,165.3C133.233,151.9 122.933,128.85 106.9,96.15L83.55,96.15L101.9,78.65C86.267,61.85 65.917,42.867 40.85,21.7C22.65,46.333 17.35,78.517 24.95,118.25C27.583,131.983 32.467,144.117 39.6,154.65C49.533,169.45 63.983,180.867 82.95,188.9C85.817,190.133 88.833,191.3 92,192.4C95.233,193.533 98.617,194.567 102.15,195.5L109.85,195.5L122.3,187.8L136.8,178.1C141.367,181 141.7,176.733 137.8,165.3M74.75,133.55L74.85,133.55L80.8,141.25L84.9,146.05C90.967,153.517 97.1,160.683 103.3,167.55C109.567,174.583 115.9,181.333 122.3,187.8M61.7,135.15C51.2,114.717 44,92.033 40.1,67.1C47.467,87.4 56.2,104.417 66.3,118.15L77.35,103.75L69.75,127.1L74.75,133.55M61.7,135.15C69.467,150.117 79.067,163.933 90.5,176.6C96.467,183.233 102.917,189.533 109.85,195.5" style="fill:none;fill-rule:nonzero;stroke:black;stroke-opacity:0.3;stroke-width:0.05px;"/>
                    <path d="M133.7,246L134.8,246.4L134.45,247.15L133.7,246M174.65,306C177.883,305.567 181.033,304.767 184.1,303.6L221.1,344.1C205.533,336.467 190.05,323.767 174.65,306C190.05,323.767 205.533,336.467 221.1,344.1L184.1,303.6C191.233,300.867 197.767,296.117 203.7,289.35C206.1,283.317 208.75,276.817 211.65,269.85C235.25,304.35 250.617,334.933 257.75,361.6C227.017,365.667 194.85,356.517 161.25,334.15C147.017,324.65 136.35,313.1 129.25,299.5L130,298.65C131.9,296.35 133.833,292.8 135.8,288C137.867,292.8 140.683,296.933 144.25,300.4C155.25,305.267 165.383,307.133 174.65,306M125.9,240.9L125.5,240.9L125.5,240.7L125.9,240.9" style="fill:rgb(93,100,23);"/>
                    <path d="M134.45,247.15L134.8,246.4L133.7,246L134.45,247.15C147.783,270.65 161.183,290.267 174.65,306C161.183,290.267 147.783,270.65 134.45,247.15M184.1,303.6C181.033,304.767 177.883,305.567 174.65,306C165.383,307.133 155.25,305.267 144.25,300.4C140.683,296.933 137.867,292.8 135.8,288C133.833,292.8 131.9,296.35 130,298.65L129.25,299.5C123.017,287.6 119.533,274.2 118.8,259.3C118.3,251.367 118.633,242.967 119.8,234.1L119.9,233L122.9,225.9L134.7,217.45C137.6,224.317 140.867,231.267 144.5,238.3C153.1,255.033 163.817,272.05 176.65,289.35L203.7,289.35L177.3,296.05L184.1,303.6L177.3,296.05L203.7,289.35L176.65,289.35C163.817,272.05 153.1,255.033 144.5,238.3C140.867,231.267 137.6,224.317 134.7,217.45L149.35,207.8C151.583,201.5 158.533,204.433 170.2,216.6C178.067,224.8 188.083,237.167 200.25,253.7L202.85,257.45L203.7,258.55L211.65,269.85C208.75,276.817 206.1,283.317 203.7,289.35C197.767,296.117 191.233,300.867 184.1,303.6M133.7,246C130.067,239.567 126.467,232.867 122.9,225.9C126.467,232.867 130.067,239.567 133.7,246M125.9,240.9L125.5,240.7L125.5,240.9L125.9,240.9" style="fill:rgb(47,50,14);"/>
                    <path d="M133.7,246L134.45,247.15C147.783,270.65 161.183,290.267 174.65,306C190.05,323.767 205.533,336.467 221.1,344.1L184.1,303.6L177.3,296.05L203.7,289.35L176.65,289.35C163.817,272.05 153.1,255.033 144.5,238.3C140.867,231.267 137.6,224.317 134.7,217.45L122.9,225.9C126.467,232.867 130.067,239.567 133.7,246M134.7,217.45L149.35,207.8C151.583,201.5 158.533,204.433 170.2,216.6C178.067,224.8 188.083,237.167 200.25,253.7L202.85,257.45L203.7,258.55L211.65,269.85C235.25,304.35 250.617,334.933 257.75,361.6C227.017,365.667 194.85,356.517 161.25,334.15C147.017,324.65 136.35,313.1 129.25,299.5C123.017,287.6 119.533,274.2 118.8,259.3C118.3,251.367 118.633,242.967 119.8,234.1L119.9,233L122.9,225.9" style="fill:none;fill-rule:nonzero;stroke:black;stroke-opacity:0.3;stroke-width:0.05px;"/>
                    <path d="M196.15,202.75C180.717,199.283 170.583,193.1 165.75,184.2C164.75,182.567 163.983,180.8 163.45,178.9C162.35,181.8 161.617,184.617 161.25,187.35C154.55,188.983 147.567,189.35 140.3,188.45C139,187.45 137.817,186.217 136.75,184.75C134.117,181.317 132.3,176.65 131.3,170.75C130.2,164.383 130.017,156.7 130.75,147.7C126.283,150.7 123.517,159.15 122.45,173.05C122.15,175.683 121.967,178.583 121.9,181.75C117.9,183.283 114.267,182.883 111,180.55C102.633,174.817 96.317,157.067 92.05,127.3C92.683,125.1 93.417,122.95 94.25,120.85C119.217,101.717 145.417,100 172.85,115.7C183.017,128.7 184.2,146.9 176.4,170.3C179.4,168.933 182.533,167.85 185.8,167.05C204.067,163.25 219.6,165.067 232.4,172.5C247.033,198.567 244.767,223.533 225.6,247.4C216.133,252.867 205.05,254.05 192.35,250.95L192.2,250.95C180.4,241.95 174.267,233.917 173.8,226.85C173.267,217.483 182.483,209.767 201.45,203.7L196.15,202.75M163.45,178.9C167.25,175.267 171.567,172.4 176.4,170.3C171.567,172.4 167.25,175.267 163.45,178.9M56.35,158.75C85.583,181.183 92.717,194.533 77.75,198.8L70.95,200.85L84.55,214.2L44.1,226.55C35.2,201.417 39.283,178.817 56.35,158.75M119.55,246.85C122.55,245.583 125.467,244.5 128.3,243.6C129.833,243.133 131.417,242.717 133.05,242.35C137.583,241.35 141.95,241 146.15,241.3C149.883,241.567 153.383,242.383 156.65,243.75C164.283,251.283 171.55,257.4 178.45,262.1C187.783,267.667 193.95,268.217 196.95,263.75C197.683,266.583 198.233,269.4 198.6,272.2C199.133,277.3 199.05,282.25 198.35,287.05C180.983,306.75 159.217,310.783 133.05,299.15C129.15,295.35 126.067,290.817 123.8,285.55C119.267,275.283 117.85,262.383 119.55,246.85M105.65,253C103.217,257 100.233,261.183 96.7,265.55C115.567,262.35 122.467,272.917 117.4,297.25C115.4,299.617 113.45,300.9 111.55,301.1C82.283,304.7 63.967,291.35 56.6,261.05C57.233,252.05 60.1,243.683 65.2,235.95C69.833,228.983 76.367,222.55 84.8,216.65C90.1,220.183 94.383,223.9 97.65,227.8C104.183,235.433 106.85,243.833 105.65,253M162.2,265.95C160.933,256.95 159.083,249.55 156.65,243.75C159.083,249.55 160.933,256.95 162.2,265.95" style="fill:rgb(133,221,158);"/>
                    <path d="M163.45,178.9C163.983,180.8 164.75,182.567 165.75,184.2C170.583,193.1 180.717,199.283 196.15,202.75C186.417,201.017 178.467,200.833 172.3,202.2C169.567,202.733 167.2,203.55 165.2,204.65C167.2,203.55 169.567,202.733 172.3,202.2C178.467,200.833 186.417,201.017 196.15,202.75L201.45,203.7C182.483,209.767 173.267,217.483 173.8,226.85C174.267,233.917 180.4,241.95 192.2,250.95L192.35,250.95C194.35,255.317 195.883,259.583 196.95,263.75C193.95,268.217 187.783,267.667 178.45,262.1C171.55,257.4 164.283,251.283 156.65,243.75C153.383,242.383 149.883,241.567 146.15,241.3C141.95,241 137.583,241.35 133.05,242.35C131.417,242.717 129.833,243.133 128.3,243.6C125.467,244.5 122.55,245.583 119.55,246.85C117.85,262.383 119.267,275.283 123.8,285.55C121.6,290.817 119.467,294.717 117.4,297.25C122.467,272.917 115.567,262.35 96.7,265.55C100.233,261.183 103.217,257 105.65,253C109.85,246 112.133,239.65 112.5,233.95C112.133,239.65 109.85,246 105.65,253C106.85,243.833 104.183,235.433 97.65,227.8C94.383,223.9 90.1,220.183 84.8,216.65C89.1,214.717 94.017,214.167 99.55,215L101.6,216.5C103.133,222.2 106.167,227.333 110.7,231.9L112.5,233.65L112.5,233.95L112.9,233.95C115.9,236.583 119.167,238.567 122.7,239.9C124.067,237.567 125.8,235.217 127.9,232.85C133.433,230.583 139.517,229.483 146.15,229.55C147.317,230.383 148.533,231.433 149.8,232.7C151.9,229.333 154.95,227.017 158.95,225.75C158.683,219.75 159.417,213.667 161.15,207.5C162.217,206.4 163.567,205.45 165.2,204.65C161.567,199.817 160.25,194.05 161.25,187.35C161.617,184.617 162.35,181.8 163.45,178.9M92.05,127.3C96.317,157.067 102.633,174.817 111,180.55C114.267,182.883 117.9,183.283 121.9,181.75C121.967,178.583 122.15,175.683 122.45,173.05C123.517,159.15 126.283,150.7 130.75,147.7C130.017,156.7 130.2,164.383 131.3,170.75C132.3,176.65 134.117,181.317 136.75,184.75C130.55,191.017 121.783,192.967 110.45,190.6L105.95,186.65C102.583,191.75 100.717,197.467 100.35,203.8C93.817,199 86.283,197.333 77.75,198.8C86.283,197.333 93.817,199 100.35,203.8C100.25,204.633 100.2,205.5 100.2,206.4C100.2,209.933 100.667,213.3 101.6,216.5L99.55,215C94.017,214.167 89.1,214.717 84.8,216.65C76.367,222.55 69.833,228.983 65.2,235.95C57.033,234.883 50,231.75 44.1,226.55L84.55,214.2L70.95,200.85L77.75,198.8C92.717,194.533 85.583,181.183 56.35,158.75C67.083,153.217 79.433,155.117 93.4,164.45C89.333,150.917 88.883,138.533 92.05,127.3M93.4,164.45L95.05,169.5C97.583,176.233 101.217,181.95 105.95,186.65C101.217,181.95 97.583,176.233 95.05,169.5L93.4,164.45M158.95,225.75C158.95,226.583 159,227.4 159.1,228.2C162.367,234.367 166.183,239.133 170.55,242.5C178.25,246.5 185.467,249.317 192.2,250.95C185.467,249.317 178.25,246.5 170.55,242.5C166.183,239.133 162.367,234.367 159.1,228.2C159,227.4 158.95,226.583 158.95,225.75M149.8,232.7C151.267,234.167 152.633,235.933 153.9,238C154.9,239.733 155.817,241.65 156.65,243.75C155.817,241.65 154.9,239.733 153.9,238C152.633,235.933 151.267,234.167 149.8,232.7M122.7,239.9C121.333,242.167 120.283,244.483 119.55,246.85C120.283,244.483 121.333,242.167 122.7,239.9" style="fill:rgb(83,152,103);"/>
                    <path d="M161.25,187.35C160.25,194.05 161.567,199.817 165.2,204.65C163.567,205.45 162.217,206.4 161.15,207.5C159.417,213.667 158.683,219.75 158.95,225.75C154.95,227.017 151.9,229.333 149.8,232.7C148.533,231.433 147.317,230.383 146.15,229.55C139.517,229.483 133.433,230.583 127.9,232.85C125.8,235.217 124.067,237.567 122.7,239.9C119.167,238.567 115.9,236.583 112.9,233.95L112.5,233.65L110.7,231.9C106.167,227.333 103.133,222.2 101.6,216.5C100.667,213.3 100.2,209.933 100.2,206.4C100.2,205.5 100.25,204.633 100.35,203.8C100.717,197.467 102.583,191.75 105.95,186.65L110.45,190.6C121.783,192.967 130.55,191.017 136.75,184.75C137.817,186.217 139,187.45 140.3,188.45C147.567,189.35 154.55,188.983 161.25,187.35" style="fill:rgb(231,195,26);"/>
                    <path d="M163.45,178.9C162.35,181.8 161.617,184.617 161.25,187.35C160.25,194.05 161.567,199.817 165.2,204.65C167.2,203.55 169.567,202.733 172.3,202.2C178.467,200.833 186.417,201.017 196.15,202.75M192.2,250.95L192.35,250.95C205.05,254.05 216.133,252.867 225.6,247.4C244.767,223.533 247.033,198.567 232.4,172.5C219.6,165.067 204.067,163.25 185.8,167.05C182.533,167.85 179.4,168.933 176.4,170.3C171.567,172.4 167.25,175.267 163.45,178.9M176.4,170.3C184.2,146.9 183.017,128.7 172.85,115.7C145.417,100 119.217,101.717 94.25,120.85C93.417,122.95 92.683,125.1 92.05,127.3C88.883,138.533 89.333,150.917 93.4,164.45C79.433,155.117 67.083,153.217 56.35,158.75C39.283,178.817 35.2,201.417 44.1,226.55C50,231.75 57.033,234.883 65.2,235.95C69.833,228.983 76.367,222.55 84.8,216.65C89.1,214.717 94.017,214.167 99.55,215L101.6,216.5C103.133,222.2 106.167,227.333 110.7,231.9L112.5,233.65L112.9,233.95L112.5,233.95C112.133,239.65 109.85,246 105.65,253C103.217,257 100.233,261.183 96.7,265.55M130.75,147.7C130.017,156.7 130.2,164.383 131.3,170.75C132.3,176.65 134.117,181.317 136.75,184.75C137.817,186.217 139,187.45 140.3,188.45C147.567,189.35 154.55,188.983 161.25,187.35M105.95,186.65C101.217,181.95 97.583,176.233 95.05,169.5L93.4,164.45M77.75,198.8C86.283,197.333 93.817,199 100.35,203.8C100.717,197.467 102.583,191.75 105.95,186.65L110.45,190.6C121.783,192.967 130.55,191.017 136.75,184.75M112.9,233.95C115.9,236.583 119.167,238.567 122.7,239.9C124.067,237.567 125.8,235.217 127.9,232.85C133.433,230.583 139.517,229.483 146.15,229.55C147.317,230.383 148.533,231.433 149.8,232.7C151.9,229.333 154.95,227.017 158.95,225.75C158.683,219.75 159.417,213.667 161.15,207.5C162.217,206.4 163.567,205.45 165.2,204.65M156.65,243.75C155.817,241.65 154.9,239.733 153.9,238C152.633,235.933 151.267,234.167 149.8,232.7M192.2,250.95C185.467,249.317 178.25,246.5 170.55,242.5C166.183,239.133 162.367,234.367 159.1,228.2C159,227.4 158.95,226.583 158.95,225.75M100.35,203.8C100.25,204.633 100.2,205.5 100.2,206.4C100.2,209.933 100.667,213.3 101.6,216.5M117.4,297.25C119.467,294.717 121.6,290.817 123.8,285.55C119.267,275.283 117.85,262.383 119.55,246.85C120.283,244.483 121.333,242.167 122.7,239.9M112.5,233.65L112.5,233.95M70.95,200.85L77.75,198.8M117.4,297.25C115.4,299.617 113.45,300.9 111.55,301.1C82.283,304.7 63.967,291.35 56.6,261.05C57.233,252.05 60.1,243.683 65.2,235.95M196.95,263.75C197.683,266.583 198.233,269.4 198.6,272.2C199.133,277.3 199.05,282.25 198.35,287.05C180.983,306.75 159.217,310.783 133.05,299.15C129.15,295.35 126.067,290.817 123.8,285.55M192.35,250.95C194.35,255.317 195.883,259.583 196.95,263.75M156.65,243.75C159.083,249.55 160.933,256.95 162.2,265.95" style="fill:none;fill-rule:nonzero;stroke:black;stroke-opacity:0.3;stroke-width:0.05px;"/>
                </g>
            </g>
        </g>
    </g>
</svg>
