<?xml version="1.0" encoding="UTF-8" standalone="no"?>
<!DOCTYPE svg PUBLIC "-//W3C//DTD SVG 1.1//EN" "http://www.w3.org/Graphics/SVG/1.1/DTD/svg11.dtd">
<svg width="100%" height="100%" viewBox="0 0 32 36" version="1.1" xmlns="http://www.w3.org/2000/svg" xmlns:xlink="http://www.w3.org/1999/xlink" xml:space="preserve" xmlns:serif="http://www.serif.com/" style="fill-rule:evenodd;clip-rule:evenodd;stroke-linecap:round;stroke-linejoin:round;">
    <g transform="matrix(1,0,0,1,-10.15,-9.25)">
        <g>
            <g id="shape0" transform="matrix(1,0,0,1,25.7,27.15)">
                <path d="M-1.4,-15.05L-1.6,-16.45L-1.6,-16.65C-1.8,-17.017 -1.5,-17.267 -0.7,-17.4C0.5,-17.233 1.517,-16.683 2.35,-15.75L2.8,-14.45L3.3,-14.2L3.55,-13.7L3.2,-13.25L2.8,-13.1L2.8,-12.8L2.95,-11.65L2.95,-11.55C2.85,-10.75 2.467,-10.1 1.8,-9.6L1.65,-9.5L1.75,-9.2L1.8,-9.15L2.3,-7.55L2.4,-7.2L2.45,-7C1.983,-7.033 1.483,-7.2 0.95,-7.5L0.95,-1.95L2.2,-1.05C5.7,1.25 9.617,2.967 13.95,4.1L15.1,4.4C14.9,5.367 14.45,6.3 13.75,7.2L11.6,9.4L13,10.05L12.05,11.2C10.783,12.567 9.25,13.8 7.45,14.9L7,14.95C6.067,14.05 5.117,13.4 4.15,13L-2,17.45C-6.8,15.517 -11.15,13.233 -15.05,10.6L-6.8,10.85L-9.8,5.75C-9.7,2.183 -8.917,-1.95 -7.45,-6.65L-7.35,-6.95L-7.4,-6.95L-7.4,-7.2L-7.3,-7.65L-6.8,-9.55L-6.7,-9.75L-6.85,-9.8L-8.05,-11.6L-8.75,-13.2L-9.1,-14.65C-9.267,-15.683 -8.667,-16 -7.3,-15.6L-1.4,-15.05" style="fill:#333;"/>
                <path d="M-1.4,-15.05L-7.3,-15.6C-8.667,-16 -9.267,-15.683 -9.1,-14.65L-8.75,-13.2L-8.05,-11.6L-6.85,-9.8L-6.7,-9.75L-6.8,-9.55L-7.3,-7.65L-7.4,-7.2L-7.4,-6.95L-7.35,-6.95L-7.45,-6.65C-8.917,-1.95 -9.7,2.183 -9.8,5.75L-6.8,10.85L-15.05,10.6C-11.15,13.233 -6.8,15.517 -2,17.45L4.15,13C5.117,13.4 6.067,14.05 7,14.95L7.45,14.9C9.25,13.8 10.783,12.567 12.05,11.2L13,10.05L11.6,9.4L13.75,7.2C14.45,6.3 14.9,5.367 15.1,4.4L13.95,4.1C9.617,2.967 5.7,1.25 2.2,-1.05L0.95,-1.95L0.95,-7.5C1.483,-7.2 1.983,-7.033 2.45,-7L2.4,-7.2L2.3,-7.55L1.8,-9.15L1.75,-9.2L1.65,-9.5L1.8,-9.6C2.467,-10.1 2.85,-10.75 2.95,-11.55L2.95,-11.65L2.8,-12.8L2.8,-13.1L3.2,-13.25L3.55,-13.7L3.3,-14.2L2.8,-14.45L2.35,-15.75C1.517,-16.683 0.5,-17.233 -0.7,-17.4C-1.5,-17.267 -1.8,-17.017 -1.6,-16.65L-1.6,-16.45L-1.4,-15.05Z" style="fill:none;fill-rule:nonzero;stroke:#260900;stroke-opacity:0.99;stroke-width:1px;"/>
            </g>
            <g id="sprite0" transform="matrix(0.0919,0,0,0.0918,-24.3544,22.4005)">
                <g id="shape1">
                    <path d="M473.85,-19.5L463.65,-20.6C468.817,-37.333 474.8,-54.733 481.6,-72.8L497.2,-81.5L484.8,-60.55L473.85,-19.5M654.7,146.9C659.833,142.267 664.3,138.617 668.1,135.95C677,135.35 685.817,133.5 694.55,130.4C688.383,138.567 680.467,146.567 670.8,154.4C665.3,152 659.933,149.5 654.7,146.9M615.4,199.2L615.5,199.1C626.4,192.667 636.533,185.633 645.9,178C654.833,178.433 664.783,176.95 675.75,173.55C661.917,188.417 645.25,202 625.75,214.3L615.4,199.2" style="fill:#6d7189;"/>
                    <path d="M463.65,-20.6L473.85,-19.5C461.917,30.333 454.183,74.283 450.65,112.35L486.95,177.3C462.05,178.2 437.233,177.883 412.5,176.35L517.05,227.4C538.117,206.267 565.083,189.45 597.95,176.95C601.55,179.117 603.15,180.383 602.75,180.75L615.4,199.2L605.65,189.5C603.55,186.9 601.8,185.7 600.4,185.9L590.1,193.4L523,242C470.533,220.733 423.233,195.867 381.1,167.4L470.55,169.85L438.1,114.55C439.233,75.483 447.75,30.433 463.65,-20.6M668.1,135.95C679.667,122.183 689.067,109.067 696.3,96.6L709.25,99.85C706.917,110.283 702.017,120.467 694.55,130.4C685.817,133.5 677,135.35 668.1,135.95M645.9,178C654.9,170.7 663.2,162.833 670.8,154.4C675.867,156.7 681.033,158.933 686.3,161.1C683.033,165.367 679.517,169.517 675.75,173.55C664.783,176.95 654.833,178.433 645.9,178" style="fill:#9ea3cb;"/>
                    <path d="M473.85,-19.5L484.8,-60.55L497.2,-81.5L546.9,-109.2C551.433,-78.667 554.183,-49.05 555.15,-20.35L544.25,-28.5C537.983,9.6 542.683,49.367 558.35,90.8L554.9,30.7L568.8,40.3C566.867,54.3 568.233,68.65 572.9,83.35L652.75,134.3L668.1,135.95C664.3,138.617 659.833,142.267 654.7,146.9C622.733,131.3 594.583,113.3 570.25,92.9L593.8,142.95C607.233,154.75 624.6,166.433 645.9,178C636.533,185.633 626.4,192.667 615.5,199.1L615.4,199.2L602.75,180.75C603.15,180.383 601.55,179.117 597.95,176.95C555.483,151.85 525.617,120.083 508.35,81.65L501.45,43.9C513.35,79.667 530.133,105.133 551.8,120.3L524,53.9L518.55,25.85L532.6,-31.1C512,-23.4 492.417,-19.533 473.85,-19.5M539.35,-58.15L532.6,-31.1L539.35,-58.15M559.4,109.2L558.35,90.8L559.4,109.2" style="fill:#858896;"/>
                    <path d="M597.95,176.95C565.083,189.45 538.117,206.267 517.05,227.4L412.5,176.35C437.233,177.883 462.05,178.2 486.95,177.3L450.65,112.35C454.183,74.283 461.917,30.333 473.85,-19.5C492.417,-19.533 512,-23.4 532.6,-31.1L518.55,25.85L524,53.9L551.8,120.3C530.133,105.133 513.35,79.667 501.45,43.9L508.35,81.65L506.35,77.15L508.35,81.65C525.617,120.083 555.483,151.85 597.95,176.95M558.35,90.8C542.683,49.367 537.983,9.6 544.25,-28.5L555.15,-20.35C555.75,-2.983 555.667,14.033 554.9,30.7L558.35,90.8M668.1,135.95L652.75,134.3L572.9,83.35C568.233,68.65 566.867,54.3 568.8,40.3C606.667,65.2 649.167,83.967 696.3,96.6C689.067,109.067 679.667,122.183 668.1,135.95M645.9,178C624.6,166.433 607.233,154.75 593.8,142.95L570.25,92.9C594.583,113.3 622.733,131.3 654.7,146.9C659.933,149.5 665.3,152 670.8,154.4C663.2,162.833 654.9,170.7 645.9,178" style="fill:#c0c4da;"/>
                    <path d="M590.1,193.4L600.4,185.9C601.8,185.7 603.55,186.9 605.65,189.5L615.4,199.2L625.75,214.3L621.05,214.8C610.617,204.833 600.3,197.7 590.1,193.4" style="fill:#6a3856;"/>
                    <path d="M473.85,-19.5L484.8,-60.55L497.2,-81.5L481.6,-72.8C474.8,-54.733 468.817,-37.333 463.65,-20.6C447.75,30.433 439.233,75.483 438.1,114.55L470.55,169.85L381.1,167.4C423.233,195.867 470.533,220.733 523,242L590.1,193.4L600.4,185.9C601.8,185.7 603.55,186.9 605.65,189.5M615.4,199.2L602.75,180.75C603.15,180.383 601.55,179.117 597.95,176.95C565.083,189.45 538.117,206.267 517.05,227.4L412.5,176.35C437.233,177.883 462.05,178.2 486.95,177.3L450.65,112.35C454.183,74.283 461.917,30.333 473.85,-19.5M532.6,-31.1L539.35,-58.15M555.15,-20.35C554.183,-49.05 551.433,-78.667 546.9,-109.2L497.2,-81.5M568.8,40.3L554.9,30.7L558.35,90.8L559.4,109.2M506.35,77.15L508.35,81.65C525.617,120.083 555.483,151.85 597.95,176.95M551.8,120.3L524,53.9L518.55,25.85L532.6,-31.1M570.25,92.9C594.583,113.3 622.733,131.3 654.7,146.9C659.833,142.267 664.3,138.617 668.1,135.95C679.667,122.183 689.067,109.067 696.3,96.6C649.167,83.967 606.667,65.2 568.8,40.3M615.4,199.2L615.5,199.1C626.4,192.667 636.533,185.633 645.9,178C654.9,170.7 663.2,162.833 670.8,154.4C665.3,152 659.933,149.5 654.7,146.9M625.75,214.3L621.05,214.8C610.617,204.833 600.3,197.7 590.1,193.4M615.4,199.2L625.75,214.3C645.25,202 661.917,188.417 675.75,173.55C679.517,169.517 683.033,165.367 686.3,161.1C681.033,158.933 675.867,156.7 670.8,154.4C680.467,146.567 688.383,138.567 694.55,130.4C702.017,120.467 706.917,110.283 709.25,99.85L696.3,96.6M554.9,30.7C555.667,14.033 555.75,-2.983 555.15,-20.35" style="fill:none;fill-rule:nonzero;stroke:#000;stroke-opacity:0.3;stroke-width:0.05px;"/>
                    <path d="M476.75,-51.95L476.55,-52.1L471.35,-53.25L470.75,-52.45L471.05,-53.3C473.183,-58.667 475.717,-63.633 478.65,-68.2C499.15,-69.933 518.75,-67.6 537.45,-61.2C532.183,-50.9 524.883,-41.067 515.55,-31.7C498.017,-25.8 480.867,-23.3 464.1,-24.2L464.4,-26.7C482.1,-30.067 499.333,-36.85 516.1,-47.05C507.933,-46.983 499.733,-47.6 491.5,-48.9C486.6,-49.7 481.683,-50.717 476.75,-51.95M471.35,-53.25L471.05,-53.3L471.35,-53.25" style="fill:#28282b;"/>
                    <path d="M470.75,-52.45L471.35,-53.25L476.55,-52.1L476.75,-51.95C478.917,-49.55 478.1,-47.95 474.3,-47.15C472.2,-44.483 469.15,-39.283 465.15,-31.55C466.417,-39.05 468.283,-46.017 470.75,-52.45" style="fill:#8c8b8d;"/>
                    <path d="M465.15,-31.55C469.15,-39.283 472.2,-44.483 474.3,-47.15C478.1,-47.95 478.917,-49.55 476.75,-51.95C481.683,-50.717 486.6,-49.7 491.5,-48.9C499.733,-47.6 507.933,-46.983 516.1,-47.05C499.333,-36.85 482.1,-30.067 464.4,-26.7L465.15,-31.55" style="fill:#3a383e;"/>
                    <path d="M470.75,-52.45C468.283,-46.017 466.417,-39.05 465.15,-31.55L464.4,-26.7L464.1,-24.2C480.867,-23.3 498.017,-25.8 515.55,-31.7C524.883,-41.067 532.183,-50.9 537.45,-61.2C518.75,-67.6 499.15,-69.933 478.65,-68.2C475.717,-63.633 473.183,-58.667 471.05,-53.3L471.35,-53.25M470.75,-52.45L471.05,-53.3" style="fill:none;fill-rule:nonzero;stroke:#000;stroke-opacity:0.3;stroke-width:0.05px;"/>
                    <path d="M570.85,-26.75L571.45,-24.7C564.483,-25.1 556.85,-28.25 548.55,-34.15C543.15,-42.317 538.5,-50.717 534.6,-59.35C541.467,-63.25 549.35,-63.833 558.25,-61.1C560.217,-57.233 562.083,-53.05 563.85,-48.55L563.7,-48.55L563.85,-48.55L564.1,-47.9L563.7,-48.55L561.7,-48L561.65,-47.85L555.9,-46.4C552.667,-45.9 549.333,-45.95 545.9,-46.55C554.533,-37.25 562.85,-30.65 570.85,-26.75" style="fill:#28282b;"/>
                    <path d="M561.65,-47.85L561.7,-48L563.7,-48.55L564.1,-47.9C566.167,-42.567 568.067,-36.833 569.8,-30.7C566.867,-37.167 564.75,-41.55 563.45,-43.85C561.717,-44.75 561.117,-46.083 561.65,-47.85" style="fill:#8c8b8d;"/>
                    <path d="M570.85,-26.75C562.85,-30.65 554.533,-37.25 545.9,-46.55C549.333,-45.95 552.667,-45.9 555.9,-46.4L561.65,-47.85C561.117,-46.083 561.717,-44.75 563.45,-43.85C564.75,-41.55 566.867,-37.167 569.8,-30.7L570.85,-26.75" style="fill:#3a383e;"/>
                    <path d="M563.85,-48.55C562.083,-53.05 560.217,-57.233 558.25,-61.1C549.35,-63.833 541.467,-63.25 534.6,-59.35C538.5,-50.717 543.15,-42.317 548.55,-34.15C556.85,-28.25 564.483,-25.1 571.45,-24.7L570.85,-26.75L569.8,-30.7C568.067,-36.833 566.167,-42.567 564.1,-47.9L563.85,-48.55L563.7,-48.55" style="fill:none;fill-rule:nonzero;stroke:#000;stroke-opacity:0.3;stroke-width:0.05px;"/>
                    <path d="M571.75,-106.4L573.45,-106.25C576.383,-105.917 578.8,-104.883 580.7,-103.15C582.633,-101.417 583.483,-99.5 583.25,-97.4C583.017,-95.333 581.783,-93.65 579.55,-92.35C577.35,-91.15 574.783,-90.717 571.85,-91.05L568.55,-91.8C565.55,-97.9 566.617,-102.767 571.75,-106.4M579.15,-102.85C578.517,-103.417 577.7,-103.767 576.7,-103.9C575.7,-104.033 574.817,-103.883 574.05,-103.45C573.283,-103.05 572.85,-102.5 572.75,-101.8C572.683,-101.067 573,-100.4 573.7,-99.8C574.333,-99.233 575.15,-98.883 576.15,-98.75C577.15,-98.617 578.033,-98.767 578.8,-99.2C579.533,-99.6 579.933,-100.167 580,-100.9C580.1,-101.6 579.817,-102.25 579.15,-102.85" style="fill:#9fa3c8;"/>
                    <path d="M579.15,-102.85C579.817,-102.25 580.1,-101.6 580,-100.9C579.933,-100.167 579.533,-99.6 578.8,-99.2C578.033,-98.767 577.15,-98.617 576.15,-98.75C575.15,-98.883 574.333,-99.233 573.7,-99.8C573,-100.4 572.683,-101.067 572.75,-101.8C572.85,-102.5 573.283,-103.05 574.05,-103.45C574.817,-103.883 575.7,-104.033 576.7,-103.9C577.7,-103.767 578.517,-103.417 579.15,-102.85" style="fill:#d6d8e7;"/>
                    <path d="M568.55,-91.8C567.05,-92.367 565.7,-93.15 564.5,-94.15C562.6,-95.95 561.767,-97.883 562,-99.95C562.233,-102.05 563.45,-103.717 565.65,-104.95C567.45,-105.917 569.483,-106.4 571.75,-106.4C566.617,-102.767 565.55,-97.9 568.55,-91.8" style="fill:#6c708e;"/>
                    <path d="M571.75,-106.4L573.45,-106.25C576.383,-105.917 578.8,-104.883 580.7,-103.15C582.633,-101.417 583.483,-99.5 583.25,-97.4C583.017,-95.333 581.783,-93.65 579.55,-92.35C577.35,-91.15 574.783,-90.717 571.85,-91.05L568.55,-91.8C567.05,-92.367 565.7,-93.15 564.5,-94.15C562.6,-95.95 561.767,-97.883 562,-99.95C562.233,-102.05 563.45,-103.717 565.65,-104.95C567.45,-105.917 569.483,-106.4 571.75,-106.4Z" style="fill:none;fill-rule:nonzero;stroke:#000;stroke-opacity:0.3;stroke-width:0.05px;"/>
                    <path d="M539.85,-113.5C516.683,-106.633 491.033,-106.367 462.9,-112.7C456.333,-114.433 452.467,-113.2 451.3,-109L449.5,-92.1C447.733,-97.367 446.45,-102.683 445.65,-108.05C443.917,-119.083 450.467,-122.417 465.3,-118.05C493.5,-113.75 514.867,-111.883 529.4,-112.45L539.85,-113.5" style="fill:#e4e5eb;"/>
                    <path d="M449.5,-92.1L451.3,-109C452.467,-113.2 456.333,-114.433 462.9,-112.7C491.033,-106.367 516.683,-106.633 539.85,-113.5C545.15,-114.467 548.783,-116 550.75,-118.1C552.15,-119.567 552.767,-121.3 552.6,-123.3C543.333,-128.1 534.95,-129.467 527.45,-127.4L527.1,-129.85C525.033,-133.75 528.3,-136.367 536.9,-137.7C550,-135.967 561.083,-129.967 570.15,-119.7C573.483,-115.933 575.317,-109.683 575.65,-100.95C575.883,-95.183 574.983,-87.75 572.95,-78.65C520.483,-64.183 481.917,-62.75 457.25,-74.35C454.05,-80.217 451.467,-86.133 449.5,-92.1" style="fill:#c0c4da;"/>
                    <path d="M539.85,-113.5L529.4,-112.45L527.45,-127.4C534.95,-129.467 543.333,-128.1 552.6,-123.3C552.767,-121.3 552.15,-119.567 550.75,-118.1C548.783,-116 545.15,-114.467 539.85,-113.5M457.25,-74.35C481.917,-62.75 520.483,-64.183 572.95,-78.65C571.917,-74.117 570.6,-69.167 569,-63.8C537.7,-53.1 504.8,-50.183 470.3,-55.05C465.167,-61.417 460.817,-67.85 457.25,-74.35M542.75,-120.05C544.217,-119.95 546.883,-119.3 550.75,-118.1C546.883,-119.3 544.217,-119.95 542.75,-120.05" style="fill:#858896;"/>
                    <path d="M539.85,-113.5L529.4,-112.45C514.867,-111.883 493.5,-113.75 465.3,-118.05C450.467,-122.417 443.917,-119.083 445.65,-108.05C446.45,-102.683 447.733,-97.367 449.5,-92.1C451.467,-86.133 454.05,-80.217 457.25,-74.35C460.817,-67.85 465.167,-61.417 470.3,-55.05C504.8,-50.183 537.7,-53.1 569,-63.8C570.6,-69.167 571.917,-74.117 572.95,-78.65C574.983,-87.75 575.883,-95.183 575.65,-100.95C575.317,-109.683 573.483,-115.933 570.15,-119.7C561.083,-129.967 550,-135.967 536.9,-137.7C528.3,-136.367 525.033,-133.75 527.1,-129.85L527.45,-127.4L529.4,-112.45M552.6,-123.3C552.767,-121.3 552.15,-119.567 550.75,-118.1C548.783,-116 545.15,-114.467 539.85,-113.5M550.75,-118.1C546.883,-119.3 544.217,-119.95 542.75,-120.05" style="fill:none;fill-rule:nonzero;stroke:#000;stroke-opacity:0.3;stroke-width:0.05px;"/>
                    <path d="M492.3,-77.45C491.667,-76.383 490.7,-75.483 489.4,-74.75C487.167,-73.483 484.617,-73.017 481.75,-73.35C478.85,-73.717 476.467,-74.767 474.6,-76.5C473.1,-77.9 472.267,-79.433 472.1,-81.1C477.5,-76.967 484.233,-75.75 492.3,-77.45" style="fill:#6c708e;"/>
                    <path d="M472.1,-81.1L472.15,-82.3C472.35,-84.433 473.55,-86.15 475.75,-87.45C477.95,-88.717 480.5,-89.167 483.4,-88.8C486.267,-88.467 488.65,-87.433 490.55,-85.7C492.45,-83.9 493.3,-81.933 493.1,-79.8C493,-78.933 492.733,-78.15 492.3,-77.45C484.233,-75.75 477.5,-76.967 472.1,-81.1M475.9,-82.5C476.567,-81.933 477.383,-81.583 478.35,-81.45C479.317,-81.35 480.183,-81.5 480.95,-81.9C481.717,-82.367 482.133,-82.967 482.2,-83.7C482.267,-84.4 481.983,-85.05 481.35,-85.65C480.717,-86.25 479.917,-86.6 478.95,-86.7C477.983,-86.833 477.1,-86.683 476.3,-86.25C475.533,-85.817 475.117,-85.25 475.05,-84.55C474.983,-83.817 475.267,-83.133 475.9,-82.5" style="fill:#9fa3c8;"/>
                    <path d="M475.9,-82.5C475.267,-83.133 474.983,-83.817 475.05,-84.55C475.117,-85.25 475.533,-85.817 476.3,-86.25C477.1,-86.683 477.983,-86.833 478.95,-86.7C479.917,-86.6 480.717,-86.25 481.35,-85.65C481.983,-85.05 482.267,-84.4 482.2,-83.7C482.133,-82.967 481.717,-82.367 480.95,-81.9C480.183,-81.5 479.317,-81.35 478.35,-81.45C477.383,-81.583 476.567,-81.933 475.9,-82.5" style="fill:#d6d8e7;"/>
                    <path d="M472.1,-81.1L472.15,-82.3C472.35,-84.433 473.55,-86.15 475.75,-87.45C477.95,-88.717 480.5,-89.167 483.4,-88.8C486.267,-88.467 488.65,-87.433 490.55,-85.7C492.45,-83.9 493.3,-81.933 493.1,-79.8C493,-78.933 492.733,-78.15 492.3,-77.45C491.667,-76.383 490.7,-75.483 489.4,-74.75C487.167,-73.483 484.617,-73.017 481.75,-73.35C478.85,-73.717 476.467,-74.767 474.6,-76.5C473.1,-77.9 472.267,-79.433 472.1,-81.1Z" style="fill:none;fill-rule:nonzero;stroke:#000;stroke-opacity:0.3;stroke-width:0.05px;"/>
                    <path d="M543.7,-109.4L545.55,-109.25L547,-109.1C551.033,-108.633 554.75,-107.583 558.15,-105.95C562.45,-103.917 566.2,-101 569.4,-97.2C574.833,-90.733 577.283,-83.45 576.75,-75.35C574.217,-72.483 571.95,-71.9 569.95,-73.6L570.05,-74.7C570.683,-80.3 569.05,-85.333 565.15,-89.8C562.55,-92.833 559.417,-94.983 555.75,-96.25L551.9,-97.3L550.1,-97.6L549.7,-97.65L549.1,-97.7C543.4,-98.167 538.283,-96.8 533.75,-93.6C529.017,-90.133 526.333,-85.6 525.7,-80C525.067,-74.433 526.7,-69.45 530.6,-65.05L531.8,-63.75C533.167,-62.35 534.683,-61.183 536.35,-60.25C530.45,-57.683 522.4,-60.167 512.2,-67.7C510.633,-71.6 510,-75.733 510.3,-80.1C522.8,-99.567 533.933,-109.333 543.7,-109.4" style="fill:#3a383e;"/>
                    <path d="M510.3,-80.1L510.45,-81.85C511.417,-90.517 515.467,-97.5 522.6,-102.8C528.867,-107.433 535.9,-109.633 543.7,-109.4C533.933,-109.333 522.8,-99.567 510.3,-80.1" style="fill:#a8a8a9;"/>
                    <path d="M531.8,-63.75L530.6,-65.05C526.7,-69.45 525.067,-74.433 525.7,-80C526.333,-85.6 529.017,-90.133 533.75,-93.6C538.283,-96.8 543.4,-98.167 549.1,-97.7L549.7,-97.65L550.1,-97.6L551.9,-97.3C554.033,-96.1 555.933,-94.533 557.6,-92.6L559.1,-90.7C539.067,-93.833 529.967,-84.85 531.8,-63.75" style="fill:#6a3856;"/>
                    <path d="M551.9,-97.3L555.75,-96.25C559.417,-94.983 562.55,-92.833 565.15,-89.8C569.05,-85.333 570.683,-80.3 570.05,-74.7L569.95,-73.6C569.05,-68.533 566.383,-64.433 561.95,-61.3C557.183,-57.867 551.733,-56.517 545.6,-57.25C542.133,-57.683 539.05,-58.683 536.35,-60.25L538.05,-60C544.183,-59.267 549.633,-60.6 554.4,-64C559.167,-67.433 561.867,-71.95 562.5,-77.55C563.033,-82.35 561.9,-86.733 559.1,-90.7L557.6,-92.6C555.933,-94.533 554.033,-96.1 551.9,-97.3" style="fill:#19191a;"/>
                    <path d="M559.1,-90.7C561.9,-86.733 563.033,-82.35 562.5,-77.55C561.867,-71.95 559.167,-67.433 554.4,-64C549.633,-60.6 544.183,-59.267 538.05,-60L536.35,-60.25C534.683,-61.183 533.167,-62.35 531.8,-63.75C529.967,-84.85 539.067,-93.833 559.1,-90.7" style="fill:#9c507a;"/>
                    <path d="M576.75,-75.35L576.6,-73.9C575.667,-65.3 571.617,-58.35 564.45,-53.05C557.317,-47.717 549.183,-45.6 540.05,-46.7C530.917,-47.8 523.45,-51.783 517.65,-58.65C515.25,-61.517 513.433,-64.533 512.2,-67.7C522.4,-60.167 530.45,-57.683 536.35,-60.25C539.05,-58.683 542.133,-57.683 545.6,-57.25C551.733,-56.517 557.183,-57.867 561.95,-61.3C566.383,-64.433 569.05,-68.533 569.95,-73.6C571.95,-71.9 574.217,-72.483 576.75,-75.35" style="fill:#28282b;"/>
                    <path d="M543.7,-109.4L545.55,-109.25L547,-109.1C551.033,-108.633 554.75,-107.583 558.15,-105.95C562.45,-103.917 566.2,-101 569.4,-97.2C574.833,-90.733 577.283,-83.45 576.75,-75.35L576.6,-73.9C575.667,-65.3 571.617,-58.35 564.45,-53.05C557.317,-47.717 549.183,-45.6 540.05,-46.7C530.917,-47.8 523.45,-51.783 517.65,-58.65C515.25,-61.517 513.433,-64.533 512.2,-67.7C510.633,-71.6 510,-75.733 510.3,-80.1L510.45,-81.85C511.417,-90.517 515.467,-97.5 522.6,-102.8C528.867,-107.433 535.9,-109.633 543.7,-109.4M531.8,-63.75L530.6,-65.05C526.7,-69.45 525.067,-74.433 525.7,-80C526.333,-85.6 529.017,-90.133 533.75,-93.6C538.283,-96.8 543.4,-98.167 549.1,-97.7L549.7,-97.65L550.1,-97.6L551.9,-97.3C554.033,-96.1 555.933,-94.533 557.6,-92.6L559.1,-90.7C561.9,-86.733 563.033,-82.35 562.5,-77.55C561.867,-71.95 559.167,-67.433 554.4,-64C549.633,-60.6 544.183,-59.267 538.05,-60L536.35,-60.25C534.683,-61.183 533.167,-62.35 531.8,-63.75" style="fill:none;fill-rule:nonzero;stroke:#000;stroke-opacity:0.3;stroke-width:0.05px;"/>
                </g>
            </g>
        </g>
    </g>
</svg>
