<?xml version="1.0" encoding="UTF-8"?>
<svg version="1.1" viewBox="0 0 139.45 174.15" xmlns="http://www.w3.org/2000/svg" xmlns:cc="http://creativecommons.org/ns#" xmlns:dc="http://purl.org/dc/elements/1.1/" xmlns:rdf="http://www.w3.org/1999/02/22-rdf-syntax-ns#" xmlns:xlink="http://www.w3.org/1999/xlink">
<metadata>
<rdf:RDF>
<cc:Work rdf:about="">
<dc:format>image/svg+xml</dc:format>
<dc:type rdf:resource="http://purl.org/dc/dcmitype/StillImage"/>
</cc:Work>
</rdf:RDF>
</metadata>
<g transform="translate(-206.45,-92)">
<use transform="translate(220.85,108.55)" width="125.05" height="157.60001" xlink:href="#c"/>
<use transform="translate(254.5,92)" width="46" height="46" xlink:href="#a"/>
<use transform="translate(206.45,151.55)" width="46" height="46" xlink:href="#a"/>
</g>
<defs>
<g id="c" transform="translate(-220.85,-108.55)">
<path d="m253.65 139.65 3.4-8.95 20.45-19.7 3.6-1.95 1.15 0.6-10.2 26-0.2 0.5q-5.8 6.55-13.65 7.4l-4.55-3.9" fill="#fff" fill-rule="evenodd"/>
<path d="m279.25 148.1 31.35-5.65 19.85-1.1 3.8 32.2-60.6 12.55q-4.7-18.5 5.6-38m-13.05 76.4v-10.35q-0.75-6.2 0-10.9 0.7-4.3 2.85-7.6l1.1-1.6q1.5-1.85 3.5-3.35l62.8-6.2v24.85l-70.25 15.15" fill="#9f8879" fill-rule="evenodd"/>
<path d="m273.65 186.1q-2.9 0.6-2.45 2.9l-4.95 0.85v-39.4l13-2.35q-10.3 19.5-5.6 38" fill="#cec3bb" fill-rule="evenodd"/>
<path d="m271.85 136.15 0.2-0.5 0.55 0.25-0.75 0.25" fill="#e4deda" fill-rule="evenodd"/>
<path d="m334.25 173.55 6.4-1.35-6.35 5.55-24.6 4.4-30.1 5.35-8.4 1.5q-0.45-2.3 2.45-2.9l60.6-12.55" fill="#b7ada7" fill-rule="evenodd"/>
<path d="m317.95 128.35q-23.8 7.9-38.7 19.75l-13 2.35 5.6-14.3 0.75-0.25q15.55-5.15 23.6-18.95l21.75 11.4m-86.5 48.5q16.95-14.7 22.2-37.2l4.55 3.9q-10.85 18.8-16.2 38.55-5.45-2.4-10.55-5.25m68.55 82.4 15.75-22.4-8 19.15-7.75 3.25m12.3-5.15 24.15-44.75 8.4-1.8-26.5 44-6.05 2.55" fill="#e9e7e4" fill-rule="evenodd"/>
<path d="m271.2 189 8.4-1.5q-3.4 1.3-5.95 3.2-2 1.5-3.5 3.35l-1.1 1.6q-2.15 3.3-2.85 7.6-0.75 4.7 0 10.9v10.35l-2.3-0.7-32.65-9.7q29.7-4.15 30.8-20.35l0.05-1.65-29.3-9.5-4.05-0.85-4-7.2 0.4-1.5 2.65 1.65 3.65 2.15q5.1 2.85 10.55 5.25 11.35 4.9 24.25 7.75l4.95-0.85m11.95 73.3-16.95-37.8 70.25-15.15-24.15 44.75-4.55 1.9 8-19.15-15.75 22.4-15.1 6.4-0.35-0.15-1.4-3.2" fill="#705c50" fill-rule="evenodd"/>
<path d="m263.9 223.8 2.3 0.7 16.95 37.8-10.3-5.55q-19.1-15.95-37.8-38.05l28.85 5.1" fill="#b6a498" fill-rule="evenodd"/>
<path d="m227.8 174.7 8.15-30.85 9.1-11.5 8.6 7.3q-5.25 22.5-22.2 37.2l-3.65-2.15m34.25 19.05q-1.1 16.2-30.8 20.35h-0.05l-9.85-2.95 0.7-7.4 4.75-16.7 35.25 6.7m-3.85-50.2 8.05 6.9v39.4q-12.9-2.85-24.25-7.75 5.35-19.75 16.2-38.55" fill="#ded6d1" fill-rule="evenodd"/>
<path d="m340.65 172.2-6.4 1.35-3.8-32.2-19.85 1.1-31.35 5.65q14.9-11.85 38.7-19.75l17.95 9.45v0.1l4.75 34.3m-61.05 15.3 30.1-5.35 24.6-4.4 7.7 4 3.4 24.85-0.55 0.95-8.4 1.8v-24.85l-62.8 6.2q2.55-1.9 5.95-3.2m-7.55-51.85 10.2-26 13.95 7.3q-8.05 13.8-23.6 18.95l-0.55-0.25" fill="#cbbeb6" fill-rule="evenodd"/>
<path d="m227.8 174.7-2.65-1.65 7.85-29.5 9.5-13.4 35-19.15-20.45 19.7-3.4 8.95-8.6-7.3-9.1 11.5-8.15 30.85m0.95 7.05 4.05 0.85 29.3 9.5-0.05 1.65-35.25-6.7-4.75 16.7 1.6-17.3 5.1-4.7m2.5 32.35 32.65 9.7-28.85-5.1q18.7 22.1 37.8 38.05l10.3 5.55 1.4 3.2-32.25-13.75-25.55-26.2-5.4-14.4 9.85 2.95h0.05m26.95-70.55q7.85-0.85 13.65-7.4l-5.6 14.3-8.05-6.9" fill="#f1efed" fill-rule="evenodd"/>
<path d="m340.65 172.2-4.75-34.3v-0.1l-17.95-9.45m-8.25 53.8 24.6-4.4 6.35-5.55m-63.15-61.2-35 19.15-9.5 13.4-7.85 29.5-0.4 1.5 4 7.2 4.05 0.85m49.45-72.95-1.15-0.6-3.6 1.95m18.7 5.95 21.75 11.4m-35.7-18.7 13.95 7.3m-11.65 148.55 0.35 0.15 15.1-6.4m7.75-3.25 4.55-1.9m-27.75 11.4-32.25-13.75-25.55-26.2-5.4-14.4 0.7-7.4 1.6-17.3 5.1-4.7m79 74.25-7.75 3.25m44.85-51.7-26.5 44-6.05 2.55m22-76.35 7.7 4 3.4 24.85-0.55 0.95" fill="none" stroke="#000" stroke-linecap="round" stroke-linejoin="round" stroke-opacity=".4"/>
</g>
<g id="a" transform="translate(23,23)">
<use transform="translate(-23,-23)" width="46" height="46" xlink:href="#b"/>
</g>
<g id="b" transform="translate(23,23)">
<path d="m15.9 0.25q0-6.45-4.6-11.05-4.55-4.55-11-4.55-6.5 0-11.1 4.55-4.55 4.6-4.5 11.05-0.05 6.45 4.5 11.05 4.6 4.55 11.1 4.55 6.45 0 11-4.55 4.6-4.6 4.6-11.05m0.35-16.55q6.75 6.75 6.75 16.3t-6.75 16.25q-6.75 6.75-16.25 6.75-9.55 0-16.3-6.75-6.7-6.7-6.7-16.25t6.7-16.3q6.75-6.7 16.3-6.7 9.5 0 16.25 6.7" fill="#fff" fill-opacity=".1098" fill-rule="evenodd"/>
<path d="m5.95-7.5q-2.8-2.8-6.7-2.8-3.95 0-6.75 2.8-2.75 2.75-2.75 6.7t2.75 6.7q2.8 2.8 6.75 2.8 3.9 0 6.7-2.8 2.75-2.75 2.75-6.7t-2.75-6.7m9.95 7.75q0 6.45-4.6 11.05-4.55 4.55-11 4.55-6.5 0-11.1-4.55-4.55-4.6-4.5-11.05-0.05-6.45 4.5-11.05 4.6-4.55 11.1-4.55 6.45 0 11 4.55 4.6 4.6 4.6 11.05" fill="#fff" fill-opacity=".30196" fill-rule="evenodd"/>
<path d="m2.8-3.25q1.4 1.45 1.4 3.5 0 2-1.4 3.45-1.45 1.4-3.45 1.4-2.05 0-3.5-1.4-1.4-1.45-1.4-3.45 0-2.05 1.4-3.5 1.45-1.4 3.5-1.4 2 0 3.45 1.4m-1.7 2.85q0-0.9-0.6-1.5-0.65-0.6-1.55-0.6t-1.5 0.6-0.6 1.5 0.6 1.5 1.5 0.65q0.9-0.05 1.55-0.65 0.6-0.6 0.6-1.5" fill="#fff" fill-opacity=".8" fill-rule="evenodd"/>
<path d="m2.8-3.25q-1.45-1.4-3.45-1.4-2.05 0-3.5 1.4-1.4 1.45-1.4 3.5 0 2 1.4 3.45 1.45 1.4 3.5 1.4 2 0 3.45-1.4 1.4-1.45 1.4-3.45 0-2.05-1.4-3.5m3.15-4.25q2.75 2.75 2.75 6.7t-2.75 6.7q-2.8 2.8-6.7 2.8-3.95 0-6.75-2.8-2.75-2.75-2.75-6.7t2.75-6.7q2.8-2.8 6.75-2.8 3.9 0 6.7 2.8" fill="#fff" fill-opacity=".49804" fill-rule="evenodd"/>
<path d="m1.1-0.4q0 0.9-0.6 1.5-0.65 0.6-1.55 0.65-0.9-0.05-1.5-0.65t-0.6-1.5 0.6-1.5 1.5-0.6 1.55 0.6q0.6 0.6 0.6 1.5" fill="#fff" fill-rule="evenodd"/>
</g>
</defs>
</svg>
