<?xml version="1.0" encoding="UTF-8" standalone="no"?>
<!DOCTYPE svg PUBLIC "-//W3C//DTD SVG 1.1//EN" "http://www.w3.org/Graphics/SVG/1.1/DTD/svg11.dtd">
<svg width="100%" height="100%" viewBox="0 0 20 36" version="1.1" xmlns="http://www.w3.org/2000/svg" xmlns:xlink="http://www.w3.org/1999/xlink" xml:space="preserve" xmlns:serif="http://www.serif.com/" style="fill-rule:evenodd;clip-rule:evenodd;stroke-linecap:round;stroke-linejoin:round;">
    <g transform="matrix(1,0,0,1,-20.5,-8.62955)">
        <g>
            <g id="shape0" transform="matrix(1,0,0,1,31.4,26.2)">
                <path d="M3,-13.15L3,-13.05L2.65,-12.25L2.65,-11.8L2.55,-11L2.55,-10.9L2.5,-10.7C2.433,-10.367 2.25,-10.117 1.95,-9.95L1.05,-9.75L0.65,-9.8L0.55,-8.8L1.85,-7.85L2.15,-7.65L2.95,-7.2C3.217,-7.067 3.517,-6.917 3.85,-6.75L3.7,-6.05L3.15,-4.9L2.65,-5.3L1.75,-6.1L0.4,-5.75L0.5,-2L0.55,-1.7L0.6,-0.75L0.65,-0.6L0.65,-0.75L1.3,0.5L1.75,1.15L2.95,2.5L3,2.6L3.1,2.7L3.05,2.6L3.6,3.15L3.65,3.25L3.7,3.25L4.55,4.2L5,4.8L5.05,4.8L5.2,4.95L5.2,5L5.7,5.75L5.75,5.7L5.85,5.9L6.5,6.9L6.7,7.25L6.75,7.4L6.8,7.35L7.55,8.8L7.8,8.8L8.05,9.25L8.3,10L6.9,10.6L6.65,10.7L6.05,10.9L6,10.9L5.55,11.05L2,11.65L1.25,11.65L1.25,11.7L1.75,12.55L1.8,12.6L1.9,12.85C0.533,13.75 -0.917,14.35 -2.45,14.65L-4,14.85L-4.2,14.9L-4.05,14.85L-4.8,14.85L-4.75,14.9L-2.9,16.9L-3,16.95L-2.9,17L-3.7,17.15L-6.5,16.55L-6.85,15.9L-7.65,15.4L-8,15.05L-8.1,15L-8.1,15.05C-9.033,14.183 -9.7,13.067 -10.1,11.7L-10.25,11.1L-10.45,10L-10.5,8.6L-10.5,8.1L-10.45,7.9L-10.45,7.85L-10.4,7.45L-10.4,7.4L-10.45,7.4L-10.4,7.2L-10.35,6.8L-10.35,6.55L-9.85,4.1L-9.85,4L-9.8,3.75L-9.75,3.75C-9.25,1.65 -8.433,-0.683 -7.3,-3.25L-6.75,-4.4L-6.25,-5.6L-5,-8.55L-5,-8.6L-4.45,-10L-3.75,-12.15L-3.75,-12.35L-3.7,-12.45L-3.75,-12.45L-5.45,-12.2L-5.55,-12.2L-5.45,-12.15C-6.117,-12.117 -6.717,-12.233 -7.25,-12.5L-7.5,-13.5C-7.5,-13.9 -7.383,-14.3 -7.15,-14.7L-6.05,-14.95L-5.2,-16.35C-2.967,-16.983 -0.9,-17.25 1,-17.15L2.9,-16.95L3.6,-15.7L4.5,-15.6L4.6,-15.45L4.8,-14.5C4.833,-13.733 4.233,-13.283 3,-13.15" style="fill:#333;"/>
                <path d="M3,-13.15L3,-13.05L2.65,-12.25L2.65,-11.8L2.55,-11L2.55,-10.9L2.5,-10.7C2.433,-10.367 2.25,-10.117 1.95,-9.95L1.05,-9.75L0.65,-9.8L0.55,-8.8L1.85,-7.85L2.15,-7.65L2.95,-7.2C3.217,-7.067 3.517,-6.917 3.85,-6.75L3.7,-6.05L3.15,-4.9L2.65,-5.3L1.75,-6.1L0.4,-5.75L0.5,-2L0.55,-1.7L0.6,-0.75L0.65,-0.6L0.65,-0.75L1.3,0.5L1.75,1.15L2.95,2.5L3,2.6L3.1,2.7L3.05,2.6L3.6,3.15L3.65,3.25L3.7,3.25L4.55,4.2L5,4.8L5.05,4.8L5.2,4.95L5.2,5L5.7,5.75L5.75,5.7L5.85,5.9L6.5,6.9L6.7,7.25L6.75,7.4L6.8,7.35L7.55,8.8L7.8,8.8L8.05,9.25L8.3,10L6.9,10.6L6.65,10.7L6.05,10.9L6,10.9L5.55,11.05L2,11.65L1.25,11.65L1.25,11.7L1.75,12.55L1.8,12.6L1.9,12.85C0.533,13.75 -0.917,14.35 -2.45,14.65L-4,14.85L-4.2,14.9L-4.05,14.85L-4.8,14.85L-4.75,14.9L-2.9,16.9L-3,16.95L-2.9,17L-3.7,17.15L-6.5,16.55L-6.85,15.9L-7.65,15.4L-8,15.05L-8.1,15L-8.1,15.05C-9.033,14.183 -9.7,13.067 -10.1,11.7L-10.25,11.1L-10.45,10L-10.5,8.6L-10.5,8.1L-10.45,7.9L-10.45,7.85L-10.4,7.45L-10.4,7.4L-10.45,7.4L-10.4,7.2L-10.35,6.8L-10.35,6.55L-9.85,4.1L-9.85,4L-9.8,3.75L-9.75,3.75C-9.25,1.65 -8.433,-0.683 -7.3,-3.25L-6.75,-4.4L-6.25,-5.6L-5,-8.55L-5,-8.6L-4.45,-10L-3.75,-12.15L-3.75,-12.35L-3.7,-12.45L-3.75,-12.45L-5.45,-12.2L-5.55,-12.2L-5.45,-12.15C-6.117,-12.117 -6.717,-12.233 -7.25,-12.5L-7.5,-13.5C-7.5,-13.9 -7.383,-14.3 -7.15,-14.7L-6.05,-14.95L-5.2,-16.35C-2.967,-16.983 -0.9,-17.25 1,-17.15L2.9,-16.95L3.6,-15.7L4.5,-15.6L4.6,-15.45L4.8,-14.5C4.833,-13.733 4.233,-13.283 3,-13.15Z" style="fill:none;fill-rule:nonzero;stroke:#260900;stroke-opacity:0.99;stroke-width:0.8px;"/>
            </g>
            <g id="sprite0" transform="matrix(0.0919,0,0,0.0918,-17.5544,21.1004)">
                <g id="shape1">
                    <path d="M491.55,239.55C486.483,238.85 481.667,237.85 477.1,236.55L488.8,237.05L491.55,239.55" style="fill:#92082d;"/>
                </g>
                <g id="sprite1" transform="matrix(3.5989,0.1463,-0.4783,2.1929,475.2,-128.1)">
                    <g id="shape2">
                        <path d="M7.75,20.75C5.317,15.383 4.45,9.733 5.15,3.8C15.55,-2.2 23.05,-1.067 27.65,7.2C26.017,13.467 24.267,21.95 22.4,32.65C23.167,45.85 24.733,58.95 27.1,71.95L28.3,78.05C29.733,81.383 31.283,84.45 32.95,87.25L32.95,87.3C34.35,89.667 35.833,91.817 37.4,93.75L37.7,94.1L39.15,96L39.1,96.05L38.6,96.5C37.567,97.367 36.433,98.117 35.2,98.75L34.55,99.05L30.55,100.45L27.15,101.05L27.1,101.1C27,101.1 26.917,101.15 26.85,101.25L24.85,103.05C21.417,105.683 16.95,106.7 11.45,106.1L8.55,105.65L8.35,105.65L8.6,106.7L11.7,107.15C17.133,107.65 21.6,106.633 25.1,104.1L27.4,102.1L27.45,102.05L31.05,101.35L35.1,99.95L35.4,99.8C36.767,99.1 38,98.3 39.1,97.4L39.75,96.8L40.05,97.2L45.2,104.7L45.1,104.75L43.75,105.95C41.317,107.917 38.6,109.483 35.6,110.65L31.3,112L31.2,112L31.1,112.05L27.8,114.3L23.85,116.3C20.817,117.567 17.667,118.283 14.4,118.45L11.65,118.45L11.5,118.5L11.7,119.45L14.65,119.45C18.683,119.217 22.55,118.167 26.25,116.3L28.05,115.3L31.55,112.95L31.65,112.9C33.15,112.533 34.583,112.1 35.95,111.6C39.017,110.4 41.767,108.833 44.2,106.9L45.75,105.55L47.8,109L47.7,109.05L45.95,110.55C43.783,112.083 40.883,113.533 37.25,114.9L33.15,116.3L32.75,116.45L32.55,116.55C31.583,117.517 30.4,118.383 29,119.15C25.667,120.95 21.133,122.1 15.4,122.6L12.6,122.75L12.5,122.8L12.75,123.75L15.65,123.55C21.317,123.083 25.85,121.967 29.25,120.2C30.75,119.4 32.017,118.483 33.05,117.45L33.15,117.35L36.3,116.3L37.55,115.85C41.217,114.45 44.15,112.983 46.35,111.45L48.3,109.85L51.75,116.3L52.05,116.95L49.5,119.05C46.633,121.183 43.433,122.7 39.9,123.6L35,124.45C33.767,126.15 32.467,127.65 31.1,128.95C27.433,132.383 23.217,134.467 18.45,135.2L15.45,135.5L14.1,129.6C10.7,132.133 7.617,133.467 4.85,133.6L2.2,133.3C1.633,130.367 1.167,127.217 0.8,123.85L3.2,123.75C6.333,123.383 9.267,122.367 12,120.7L11.75,119.7L11.65,119.75C8.983,121.417 6.117,122.417 3.05,122.75L0.75,122.85L0.55,120.6L2.8,120.6C5.533,120.267 8.283,118.95 11.05,116.65L10.8,115.65C10.7,115.65 10.633,115.683 10.6,115.75L9.9,116.3C7.467,118.2 5.05,119.3 2.65,119.6L0.45,119.6L0.25,116.3C0.05,112.467 -0.017,108.4 0.05,104.1L0.05,103.6L1.65,104.1C3.617,104.5 5.617,104.083 7.65,102.85L7.45,101.8L7.25,101.9C5.35,103.1 3.467,103.483 1.6,103.05L0.25,102.6L0.05,102.55C0.25,92.117 1.2,80.4 2.9,67.4L4.6,55.55C5.267,51.083 5.867,46.117 6.4,40.65L6.4,40.4C6.967,34.433 7.417,27.883 7.75,20.75" style="fill:#fbe4b5;"/>
                    </g>
                </g>
                <g id="sprite2" transform="matrix(3.5989,0.1463,-0.4783,2.1929,429.5,82.3)">
                    <g id="shape3">
                        <path d="M45.9,14.55L47.65,13.05L47.75,13L48.25,13.85L46.3,15.45C44.1,16.983 41.167,18.45 37.5,19.85L36.25,20.3L33.1,21.35L33,21.45C31.967,22.483 30.7,23.4 29.2,24.2C25.8,25.967 21.267,27.083 15.6,27.55L12.7,27.75L12.45,26.8L12.55,26.75L15.35,26.6C21.083,26.1 25.617,24.95 28.95,23.15C30.35,22.383 31.533,21.517 32.5,20.55L32.7,20.45L33.1,20.3L37.2,18.9C40.833,17.533 43.733,16.083 45.9,14.55M45.05,8.75L45.15,8.7L45.7,9.55L44.15,10.9C41.717,12.833 38.967,14.4 35.9,15.6L31.6,16.9L31.5,16.95L28,19.3L26.2,20.3C22.5,22.167 18.633,23.217 14.6,23.45L11.65,23.45L11.45,22.5L11.6,22.45L14.35,22.45C17.617,22.283 20.767,21.567 23.8,20.3L27.75,18.3L31.05,16.05L31.15,16L31.25,16L35.55,14.65C38.55,13.483 41.267,11.917 43.7,9.95L45.05,8.75M52,20.95C53.433,23.883 54.8,26.933 56.1,30.1C55.2,31.167 54.133,32.15 52.9,33.05L52.85,33.1C50.05,35 46.367,36.433 41.8,37.4L37,38.2L37.95,44.8C36.65,47.3 35.217,49.417 33.65,51.15C30.483,54.65 26.817,56.583 22.65,56.95L19.25,56.9C19.683,58.933 20.517,61.05 21.75,63.25C22.717,64.983 23.933,66.75 25.4,68.55L22.15,68.55C19.15,67.45 16.433,65.683 14,63.25L12.65,61.8L12.4,61.55C9.067,57.583 6.35,52.25 4.25,45.55C3.45,42.983 2.75,40.233 2.15,37.3L4.8,37.6C7.567,37.467 10.65,36.133 14.05,33.6L15.4,39.5L18.4,39.2C23.167,38.467 27.383,36.383 31.05,32.95C32.417,31.65 33.717,30.15 34.95,28.45L39.85,27.6C43.383,26.7 46.583,25.183 49.45,23.05L52,20.95M11.6,23.75L11.7,23.7L11.95,24.7C9.217,26.367 6.283,27.383 3.15,27.75L0.75,27.85L0.7,27.85L0.7,26.85L3,26.75C6.067,26.417 8.933,25.417 11.6,23.75M2.75,24.6L0.5,24.6L0.4,23.6L2.6,23.6C5,23.3 7.417,22.2 9.85,20.3L10.55,19.75L10.75,19.65L11,20.65C8.233,22.95 5.483,24.267 2.75,24.6M7.2,5.9C7.233,5.833 7.3,5.8 7.4,5.8L7.6,6.85C5.567,8.083 3.567,8.5 1.6,8.1L0,7.6L0,6.55L0.2,6.6L1.55,7.05C3.417,7.483 5.3,7.1 7.2,5.9M39.05,0.05L39.1,0L39.7,0.8L39.05,1.4L35.35,3.8L35.05,3.95C33.817,4.517 32.467,4.983 31,5.35L27.4,6.05L27.35,6.1L25.05,8.1C21.55,10.633 17.083,11.65 11.65,11.15L8.55,10.7L8.3,9.65L8.5,9.65L11.4,10.1C16.9,10.7 21.367,9.683 24.8,7.05L26.8,5.25L27.05,5.1L27.1,5.05L30.5,4.45L34.5,3.05L35.15,2.75L38.55,0.5L39.05,0.05" style="fill:#92082d;"/>
                    </g>
                </g>
                <g id="shape4">
                    <path d="M478.6,-37.95L478.7,-38.5C483.633,-51.5 488.4,-65.8 493,-81.4C486.8,-93.533 486.367,-106.067 491.7,-119L500.8,-121.35C526.967,-127.75 546.7,-126.95 560,-118.95C564.467,-116.183 568.167,-112.6 571.1,-108.2C562.233,-94.7 551.867,-76.35 540,-53.15C536.467,-24.117 535.833,4.833 538.1,33.7L521.15,44.2C520.017,40.4 520.433,37.083 522.4,34.25C514.7,27.383 507.683,32.05 501.35,48.25C486.283,24.117 478.7,-4.617 478.6,-37.95M539.55,47.25C543.083,54.783 547.183,61.733 551.85,68.1L551.7,68.1L554.85,97.65L553.5,96.25L552,94.25C547.033,87.55 543.733,78.483 542.1,67.05L542,65.9C541.067,59.7 540.25,53.483 539.55,47.25M561.8,170.6L544.15,171.7C543.717,164.267 542.817,157.033 541.45,150C540.417,144.7 539.2,139.483 537.8,134.35L537.2,132.1L537.05,131.75L534.55,124.3L533.7,122.15C531.5,116.217 528.967,110.383 526.1,104.65L525.1,101C524.9,100.633 524.8,100.267 524.8,99.9L524.15,97.65C520.783,84.283 520.017,72.567 521.85,62.5L523.35,60.65C524.917,72.883 528.517,83.617 534.15,92.85L536.95,96.7L538.3,98.75C542.933,105.65 546.9,112.683 550.2,119.85L551,121.95L554.1,129.35L554.7,131.5L555.25,132.5C556.983,137.867 558.4,143.317 559.5,148.85C560.967,155.983 561.733,163.233 561.8,170.6M483.55,210.7L471.35,210.1L465.8,171.4L463.8,158.25L461.7,145.2L461.25,143.1L460.45,138.4L460,136.2L460,135.65L458.55,127.15L454.95,107.2L454.55,104.85L453.35,98.65L453.15,96.3C451.15,61.7 458.433,28.55 475,-3.15C466.9,30.717 463.6,66.633 465.1,104.6L483.55,210.7" style="fill-opacity:0.35;"/>
                    <path d="M565.65,83.85L570,88.2L571.8,90.05L572.65,91C577.983,96.533 582.967,102.267 587.6,108.2L589.2,110.1L594.9,117.95L596.3,119.95L605.65,134.55C605.783,135.017 606.033,135.517 606.4,136.05C610.167,142.683 613.617,149.567 616.75,156.7C613.017,158.9 608.717,160.9 603.85,162.7C601.75,155.1 599.217,147.617 596.25,140.25L593.55,134.05L588.5,123.15L587.5,121.1L582.95,112.85L581.8,110.7C577.9,104.133 573.683,97.667 569.15,91.3L567.75,89.2L565.65,83.85M544.15,171.7C544.45,176.467 544.55,181.333 544.45,186.3C538.55,191.567 532.367,195.983 525.9,199.55C526.567,186.017 526.35,172.583 525.25,159.25C524.617,152.75 523.8,146.267 522.8,139.8L522.4,137.45L521.25,131.1L520.85,128.9L520.4,126.7L517.5,113.5C516.733,110.133 516.083,106.933 515.55,103.9L515.15,101.55C512.817,84.517 515.05,71.5 521.85,62.5C520.017,72.567 520.783,84.283 524.15,97.65L524.8,99.9C524.8,100.267 524.9,100.633 525.1,101L526.1,104.65C528.967,110.383 531.5,116.217 533.7,122.15L534.55,124.3L537.05,131.75L537.2,132.1L537.8,134.35C539.2,139.483 540.417,144.7 541.45,150C542.817,157.033 543.717,164.267 544.15,171.7M444.45,219.3C434.35,210.1 427.117,198 422.75,183C421.117,177.233 419.917,171.1 419.15,164.6C418.517,158.067 418.35,151.1 418.65,143.7L418.5,143.7L418.95,141.5C418.95,139.833 419.067,138.167 419.3,136.5L419.4,134.3L420.3,127C421.4,118.567 423.1,109.65 425.4,100.25L426.15,96.85C431.85,73.983 440.867,48.433 453.2,20.2C443.033,48.6 435.8,74.583 431.5,98.15C431.333,98.883 431.217,99.65 431.15,100.45C429.517,109.617 428.417,118.567 427.85,127.3C427.55,129.767 427.367,132.2 427.3,134.6L427.4,136.85C427.3,138.383 427.25,139.95 427.25,141.55L427.35,143.8C427.283,151.267 427.7,158.55 428.6,165.65C430.9,184.883 436.183,202.767 444.45,219.3" style="fill:#fff;fill-opacity:0.24;"/>
                    <path d="M538.1,33.7C535.833,4.833 536.467,-24.117 540,-53.15C551.867,-76.35 562.233,-94.7 571.1,-108.2C568.167,-112.6 564.467,-116.183 560,-118.95C546.7,-126.95 526.967,-127.75 500.8,-121.35L491.7,-119C486.367,-106.067 486.8,-93.533 493,-81.4C488.4,-65.8 483.633,-51.5 478.7,-38.5L478.6,-37.95C474.067,-26.05 469.533,-15.25 465,-5.55C460.767,3.283 456.833,11.867 453.2,20.2C440.867,48.433 431.85,73.983 426.15,96.85L425.4,100.25C423.1,109.65 421.4,118.567 420.3,127L419.4,134.3L419.3,136.5C419.067,138.167 418.95,139.833 418.95,141.5L418.5,143.7M538.1,33.7C538.467,38.2 538.95,42.717 539.55,47.25C543.083,54.783 547.183,61.733 551.85,68.1L551.8,68.25C555.733,73.617 560.067,78.533 564.8,83L570,88.2L571.8,90.05L572.65,91C577.983,96.533 582.967,102.267 587.6,108.2L589.2,110.1L594.9,117.95L596.3,119.95L605.65,134.55C605.783,135.017 606.033,135.517 606.4,136.05C610.167,142.683 613.617,149.567 616.75,156.7C613.017,158.9 608.717,160.9 603.85,162.7L603.65,162.8C592.65,166.567 578.7,169.167 561.8,170.6L544.15,171.7C544.45,176.467 544.55,181.333 544.45,186.3C538.55,191.567 532.367,195.983 525.9,199.55C512.833,206.783 498.717,210.5 483.55,210.7L471.35,210.1C471.95,214.6 473.933,219.35 477.3,224.35C480.533,229.05 484.967,233.967 490.6,239.1C474.067,236.7 460.333,231.417 449.4,223.25L445.25,219.9L444.45,219.3C434.35,210.1 427.117,198 422.75,183C421.117,177.233 419.917,171.1 419.15,164.6C418.517,158.067 418.35,151.1 418.65,143.7M521.85,62.5C522.117,60.8 522.533,59.183 523.1,57.65M521.85,62.5C520.017,72.567 520.783,84.283 524.15,97.65L524.8,99.9C524.8,100.267 524.9,100.633 525.1,101L526.1,104.65C528.967,110.383 531.5,116.217 533.7,122.15L534.55,124.3L537.05,131.75L537.2,132.1L537.8,134.35C539.2,139.483 540.417,144.7 541.45,150C542.817,157.033 543.717,164.267 544.15,171.7M551.7,68.1L551.85,68.1M539.55,47.25C540.25,53.483 541.067,59.7 542,65.9L542.1,67.05C543.733,78.483 547.033,87.55 552,94.25L553.5,96.25L554.85,97.65M471.35,210.1L465.8,171.4L463.8,158.25L461.7,145.2L461.25,143.1L460.45,138.4L460,136.2L460,135.65L458.55,127.15L454.95,107.2L454.55,104.85L453.35,98.65L453.15,96.3C451.15,61.7 458.433,28.55 475,-3.15" style="fill:none;fill-rule:nonzero;stroke:#000;stroke-opacity:0.3;stroke-width:0.1px;"/>
                </g>
                <g id="sprite3" transform="matrix(3.5989,0.1463,-0.4783,2.1929,510.25,-98.25)">
                    <g id="shape5">
                        <path d="M2.45,0L7.2,20.8C9.7,24.167 12.633,27.3 16,30.2L15.85,30.4C15.583,31.933 14.733,33.133 13.3,34L13.9,34.85C15.467,33.883 16.433,32.55 16.8,30.85C18.567,32.317 20.467,33.717 22.5,35.05C22.6,38.25 22.283,41.333 21.55,44.3C19.817,42.467 18.2,40.6 16.7,38.7L9.05,42.45L6.45,34.7L6.25,34.05L6.4,33.95C7.867,32.883 9.75,32.433 12.05,32.6L12.3,32.55L12.35,32.55L11.7,31.6C9.4,31.5 7.483,31.983 5.95,33.05C2.983,23.117 1,12.483 0,1.15L2.45,0" style="fill:#fbe4b5;"/>
                    </g>
                </g>
                <g id="sprite4" transform="matrix(3.5989,0.1463,-0.4783,2.1929,516.95,-31.6)">
                    <g id="shape6">
                        <path d="M9.9,0.2L10.05,0L10.85,0.65C10.483,2.35 9.517,3.683 7.95,4.65L7.35,3.8C8.783,2.933 9.633,1.733 9.9,0.2M6.4,2.35L6.35,2.35L6.1,2.4C3.8,2.233 1.917,2.683 0.45,3.75L0.3,3.85L0,2.85C1.533,1.783 3.45,1.3 5.75,1.4L6.4,2.35" style="fill:#92082d;"/>
                    </g>
                </g>
                <g id="shape7">
                    <path d="M551.9,-11L522.55,-3.9C520.383,-9.6 518.5,-15.383 516.9,-21.25C516.667,-21.817 516.533,-22.317 516.5,-22.75L515.9,-25C509.967,-47.2 507.917,-70.8 509.75,-95.8L519.1,-97.95L520.25,-90.85C519.117,-75.483 521.533,-59.6 527.5,-43.2L527.75,-41.85C530.45,-36.95 533.633,-32.1 537.3,-27.3L539.2,-25.15L539,-25.15L541.75,-21.8L541.9,-21.8L543.65,-19.85L543.5,-19.9L544.65,-18.6L545.25,-18.05C547.25,-15.683 549.467,-13.333 551.9,-11" style="fill-opacity:0.45;"/>
                    <path d="M539,-25.15L539.2,-25.15L541.9,-21.8L541.75,-21.8L539,-25.15M543.65,-19.85L544.65,-18.6L543.5,-19.9L543.65,-19.85" style="fill:#fbe4b5;"/>
                    <path d="M520.25,-90.85L526.25,-51.65C533.65,-43.883 542.7,-36.583 553.4,-29.75M556,-28.2C561.667,-24.733 567.833,-21.383 574.5,-18.15C573.333,-11.117 570.717,-4.4 566.65,2C561.317,-2.3 556.4,-6.633 551.9,-11L522.55,-3.9C520.383,-9.6 518.5,-15.383 516.9,-21.25M515.9,-25C509.967,-47.2 507.917,-70.8 509.75,-95.8L519.1,-97.95L520.25,-90.85M527.75,-41.85L526.25,-51.65M537.3,-27.3C533.633,-32.1 530.45,-36.95 527.75,-41.85M545.25,-18.05C547.25,-15.683 549.467,-13.333 551.9,-11M544.65,-18.6L543.5,-19.9M541.75,-21.8L539,-25.15" style="fill:none;fill-rule:nonzero;stroke:#000;stroke-opacity:0.3;stroke-width:0.05px;"/>
                    <path d="M553.4,-29.75L556,-28.2M516.9,-21.25C516.667,-21.817 516.533,-22.317 516.5,-22.75L515.9,-25M539.2,-25.15L537.3,-27.3M544.65,-18.6L545.25,-18.05M543.65,-19.85L544.65,-18.6M543.65,-19.85L541.9,-21.8L539.2,-25.15" style="fill:none;fill-rule:nonzero;stroke:#000;stroke-opacity:0.3;stroke-width:0.1px;"/>
                </g>
                <g id="sprite5" transform="matrix(3.5989,0.1463,-0.4783,2.1929,495.3,-96.3)">
                    <g id="shape8">
                        <path d="M5.15,45.6L4.8,44.1L4.6,43.4L4.75,43.35L4.8,43.35L5.1,43.1C6.533,40.4 8.3,38.967 10.4,38.8L10.9,39.35L10.95,39.4L11.5,39.9C12,40.3 12.517,40.517 13.05,40.55L14.35,40.35L15.5,39.5C16.367,42.033 16.833,44.183 16.9,45.95L16.95,47.95C16.917,49.583 16.75,51.083 16.45,52.45L16.4,52.55L16.4,52.45C15.133,47.617 13.767,45.2 12.3,45.2C10.867,45.1 9.183,47.517 7.25,52.45L7.1,52.8L7,52.45L5.15,45.6M0.25,0L4.3,0L6.95,13.5L6.95,17.9L15.15,38.5C14.483,39.233 13.817,39.583 13.15,39.55C12.45,39.45 11.75,38.917 11.05,37.95L10.9,37.8L10.65,37.75L10.4,37.75L10.2,37.8C7.9,38 5.983,39.45 4.45,42.15L4.4,42.35C2.767,35.483 1.5,29.017 0.6,22.95C-0.2,16.65 -0.2,9.85 0.6,2.55L0.25,0" style="fill:#f8e3b3;"/>
                    </g>
                </g>
                <g id="sprite6" transform="matrix(3.5989,0.1463,-0.4783,2.1929,493.2,-13.3)">
                    <g id="shape9">
                        <path d="M10.95,1.3L11.1,1.75L9.95,2.6L8.65,2.8C8.117,2.767 7.6,2.55 7.1,2.15L6.55,1.65L6.5,1.6L6,1.05C3.9,1.217 2.133,2.65 0.7,5.35L0.4,5.6L0.35,5.6L0.2,5.65L0.15,5.3L0.05,4.85L0,4.6L0.05,4.4C1.583,1.7 3.5,0.25 5.8,0.05L6,0L6.25,0L6.5,0.05L6.65,0.2C7.35,1.167 8.05,1.7 8.75,1.8C9.417,1.833 10.083,1.483 10.75,0.75L10.95,1.3" style="fill:#92082d;"/>
                    </g>
                </g>
                <g id="shape10">
                    <path d="M511.7,-86.2C506,-85.467 500.817,-86.933 496.15,-90.6L496.15,-96.2L510.7,-95.6L511.7,-86.2M533.3,11.4L521.15,0.35C519.617,-1.55 518.283,-3.483 517.15,-5.45L516.1,-7.35L515.6,-8.4L515.8,-8.25L513.85,-11.9C510.25,-19.267 507.95,-25.883 506.95,-31.75L507.75,-35.45L508.5,-41.4L511.65,-55.95L531.75,-8.4L532.1,-7.35C534,-1.65 534.65,3.133 534.05,7L533.3,11.4M527.15,-4.05L534.05,7L527.15,-4.05" style="fill-opacity:0.35;"/>
                    <path d="M511.65,-55.95L513.75,-65.6L511.7,-86.2L510.7,-95.6L496.15,-96.2L496.15,-90.6C489.75,-74.667 486.5,-59.75 486.4,-45.85C486.733,-32.417 488.2,-18.05 490.8,-2.75L490.85,-2.2L491,-1.15L491,-0.4L491.4,1.15L491.9,4.45C492.833,9.683 493.967,14.8 495.3,19.8L495.55,20.55L496.2,19.85C505.533,9.283 512.75,4.217 517.85,4.65C523.117,4.883 526.883,10.383 529.15,21.15L529.1,21.35L529.35,21.15C531.083,18.217 532.4,14.967 533.3,11.4L534.05,7L527.15,-4.05M506.95,-31.75L507.75,-35.45M508.5,-41.4L511.65,-55.95L531.75,-8.4L532.1,-7.35C534,-1.65 534.65,3.133 534.05,7" style="fill:none;fill-rule:nonzero;stroke:#000;stroke-opacity:0.3;stroke-width:0.05px;"/>
                    <path d="M507.75,-35.45L508.5,-41.4" style="fill:none;fill-rule:nonzero;stroke:#000;stroke-opacity:0.3;stroke-width:0.1px;"/>
                </g>
                <g id="sprite7" transform="matrix(3.5989,0.1463,-0.4783,2.1929,497.05,-114.15)">
                    <g id="shape11">
                        <path d="M8.8,6.5C8.8,8.333 8.367,9.867 7.5,11.1C6.633,12.4 5.6,13.05 4.4,13.05C3.2,13.05 2.167,12.4 1.3,11.1C0.433,9.867 0,8.333 0,6.5C0,5.2 0.233,4.033 0.7,3L1.3,1.9C2.167,0.633 3.2,0 4.4,0C5.6,0 6.633,0.633 7.5,1.9C8.367,3.167 8.8,4.7 8.8,6.5" style="fill:#92082d;"/>
                    </g>
                </g>
                <g id="shape12">
                    <path d="M503.2,-103.35C502.7,-102.617 502.35,-101.783 502.15,-100.85C501.85,-99.617 501.883,-98.433 502.25,-97.3L502.3,-97.25L502.25,-97.3C501.883,-98.433 501.85,-99.617 502.15,-100.85C502.35,-101.783 502.7,-102.617 503.2,-103.35L504.3,-104.4L505.75,-105C504.183,-102.933 504.1,-100.367 505.5,-97.3C506.833,-96.133 508.517,-95.533 510.55,-95.5L507,-95L506.65,-95C504.983,-95.133 503.65,-95.75 502.65,-96.85L502.3,-97.25C502.567,-96.55 503,-95.85 503.6,-95.15C505.067,-93.483 507.05,-92.6 509.55,-92.5C511.117,-92.433 512.617,-92.65 514.05,-93.15C511.483,-89.217 513.033,-87.75 518.7,-88.75C515,-86.017 510.983,-84.75 506.65,-84.95C502.317,-85.117 498.9,-86.7 496.4,-89.7C493.867,-92.5 493.033,-95.917 493.9,-99.95C494.533,-102.783 495.95,-105.3 498.15,-107.5C498.283,-103.733 500.483,-103.033 504.75,-105.4L503.2,-103.35" style="fill-opacity:0.3;"/>
                    <path d="M503.2,-103.35L504.75,-105.4L506.1,-106.55C508.233,-108.017 510.55,-108.7 513.05,-108.6C515.35,-108.5 517.25,-107.767 518.75,-106.4C521.283,-102.5 520.417,-98.467 516.15,-94.3C515.45,-93.867 514.75,-93.483 514.05,-93.15C512.617,-92.65 511.117,-92.433 509.55,-92.5C507.05,-92.6 505.067,-93.483 503.6,-95.15C503,-95.85 502.567,-96.55 502.3,-97.25L502.65,-96.85C503.65,-95.75 504.983,-95.133 506.65,-95L507,-95L510.55,-95.5L512.05,-96.45L513.35,-97.4C514.117,-98.2 514.617,-99.1 514.85,-100.1C515.15,-101.567 514.767,-102.867 513.7,-104C512.6,-105.1 511.15,-105.683 509.35,-105.75C508.017,-105.817 506.817,-105.567 505.75,-105L504.3,-104.4L503.2,-103.35" style="fill-opacity:0.45;"/>
                    <path d="M513.35,-97.4C513.517,-99.9 512.833,-101.767 511.3,-103L511.15,-102.35C511.017,-101.85 510.75,-101.417 510.35,-101.05C509.983,-100.65 509.567,-100.45 509.1,-100.45C508.633,-100.483 508.267,-100.717 508,-101.15C507.833,-101.55 507.817,-102 507.95,-102.5C508.05,-103 508.267,-103.467 508.6,-103.9L509.2,-104.2L505.75,-105C506.817,-105.567 508.017,-105.817 509.35,-105.75C511.15,-105.683 512.6,-105.1 513.7,-104C514.767,-102.867 515.15,-101.567 514.85,-100.1C514.617,-99.1 514.117,-98.2 513.35,-97.4" style="fill:#ccc;fill-opacity:0.24;"/>
                    <path d="M502.3,-97.25L502.25,-97.3C501.883,-98.433 501.85,-99.617 502.15,-100.85C502.35,-101.783 502.7,-102.617 503.2,-103.35L504.75,-105.4L506.1,-106.55C508.233,-108.017 510.55,-108.7 513.05,-108.6C515.35,-108.5 517.25,-107.767 518.75,-106.4M498.15,-107.5C495.95,-105.3 494.533,-102.783 493.9,-99.95C493.033,-95.917 493.867,-92.5 496.4,-89.7C498.9,-86.7 502.317,-85.117 506.65,-84.95C510.983,-84.75 515,-86.017 518.7,-88.75C522.433,-91.35 524.733,-94.667 525.6,-98.7C526.467,-102.633 525.633,-106.033 523.1,-108.9C520.6,-111.833 517.183,-113.4 512.85,-113.6C508.517,-113.767 504.5,-112.517 500.8,-109.85L498.15,-107.5M514.05,-93.15C512.617,-92.65 511.117,-92.433 509.55,-92.5C507.05,-92.6 505.067,-93.483 503.6,-95.15C503,-95.85 502.567,-96.55 502.3,-97.25L502.65,-96.85C503.65,-95.75 504.983,-95.133 506.65,-95L507,-95L510.55,-95.5L512.05,-96.45L513.35,-97.4C514.117,-98.2 514.617,-99.1 514.85,-100.1C515.15,-101.567 514.767,-102.867 513.7,-104C512.6,-105.1 511.15,-105.683 509.35,-105.75C508.017,-105.817 506.817,-105.567 505.75,-105L504.3,-104.4L503.2,-103.35M514.05,-93.15C514.75,-93.483 515.45,-93.867 516.15,-94.3" style="fill:none;fill-rule:nonzero;stroke:#000;stroke-opacity:0.3;stroke-width:0.1px;"/>
                </g>
                <g id="sprite8" transform="matrix(3.5989,0.1463,-0.4783,2.1929,460,-134.9)">
                    <g id="shape13">
                        <path d="M32,6.8C31.967,6.5 32.9,6.617 34.8,7.15L35.25,8C38.017,15.233 36.267,19.033 30,19.4C29.6,15.967 29.067,13.183 28.4,11.05C27.767,8.25 27.133,6.483 26.5,5.75C20.4,5.317 15.967,6.633 13.2,9.7C13.967,18.633 13.6,23.55 12.1,24.45C10.4,25.35 8.767,25.85 7.2,25.95C5.2,26.117 3.3,25.617 1.5,24.45C-0.033,21.117 -0.383,17.617 0.45,13.95L3.6,12.45C3.833,9.783 4.417,7.467 5.35,5.5C13.55,0.567 21.483,-1.05 29.15,0.65C30.417,2.417 31.367,4.467 32,6.8M57.85,127.8L59.25,126.7L60.7,126.7L61.7,128.65C62.167,129.583 62.583,130.85 62.95,132.45L59.05,135.55L56.75,137.05L56.55,137.15L55.35,137.85C52.017,139.683 48.617,140.933 45.15,141.6L42.85,141.8C43.817,143.3 44.567,144.783 45.1,146.25L45.55,147.6C40.883,153.833 35.45,157.5 29.25,158.6L28.5,158.75L26.9,158.9C28.667,162.2 30.983,165.483 33.85,168.75L31.65,169.75L22.85,167.25L21.35,164.3L24.85,165.75L19.3,155.35L21.35,149.2L23.25,149.2C23.55,150.633 23.95,152.05 24.45,153.45C31.783,152.15 37.567,148.267 41.8,141.8L42.4,141.8L41.65,137.05L41.55,136.4L41.3,135C47.267,133.833 52.783,131.433 57.85,127.8" style="fill:#ec9b5f;"/>
                    </g>
                </g>
                <g id="shape14">
                    <path d="M473.3,-76.55C466.033,-76.483 459.45,-77.867 453.55,-80.7C449.617,-88.2 450.017,-95.917 454.75,-103.85C462.15,-103.417 469.3,-102.067 476.2,-99.8C472.833,-94.233 470.633,-87.5 469.6,-79.6C469.867,-78.467 471.1,-77.45 473.3,-76.55" style="fill-opacity:0.45;"/>
                    <path d="M476.45,-121.65C508.317,-131.283 537.633,-133.683 564.4,-128.85C539.9,-129.15 516.75,-126.5 494.95,-120.9L476.45,-121.65M571.75,-114.9C571.75,-115.6 575.033,-115.217 581.6,-113.75C578.967,-113.783 575.733,-113.033 571.9,-111.5L571.75,-114.9M454.75,-103.85L466.85,-106.7C473.85,-106.833 480.35,-105.933 486.35,-104C482.783,-103.667 479.4,-102.267 476.2,-99.8C469.3,-102.067 462.15,-103.417 454.75,-103.85M593.1,175.85L592.1,173.85L588.85,166.95L570.35,167.85L568.15,167.85C584.85,165.017 600.017,160.45 613.65,154.15L614.45,153.7C610.05,158.167 603.633,162.083 595.2,165.45L598,173.3L598.5,174.3L597.75,174.5L593.1,175.85M489.25,217.55L486.45,217.75C492.617,216.217 497.3,214.433 500.5,212.4L499.3,207.25L481.3,208.15C487.467,207.683 493.333,206.85 498.9,205.65C506.133,204.117 513.017,201.967 519.55,199.2L507.2,206.55L509.8,211.4C503.967,214.367 497.117,216.417 489.25,217.55" style="fill:#f3f3f3;fill-opacity:0.24;"/>
                    <path d="M466.85,-106.7C468.95,-112.533 472.15,-117.517 476.45,-121.65L494.95,-120.9C490.517,-117.633 487.65,-112 486.35,-104C480.35,-105.933 473.85,-106.833 466.85,-106.7M581.6,-113.75L582.85,-111.8C589.35,-95.567 581.233,-87.483 558.5,-87.55C558.7,-95.15 558.117,-101.35 556.75,-106.15C563.383,-92.817 568.583,-92.017 572.35,-103.75L572.6,-99.05C574.4,-97.783 576.3,-98.133 578.3,-100.1C579.833,-101.567 579.9,-103.283 578.5,-105.25C577.767,-105.117 576.95,-104.383 576.05,-103.05C576.95,-104.383 577.767,-105.117 578.5,-105.25C579.9,-103.283 579.833,-101.567 578.3,-100.1C576.3,-98.133 574.4,-97.783 572.6,-99.05L572.35,-103.75L571.9,-111.5C575.733,-113.033 578.967,-113.783 581.6,-113.75M544.55,182.65L544.15,172.1L544.1,170.7C552.1,170.133 559.867,169.217 567.4,167.95L568.15,167.85L570.35,167.85L572.25,178.15C579.717,177.083 586.333,175.65 592.1,173.85L593.1,175.85C580.233,179.383 567.383,181.633 554.55,182.6L546.2,182.7L544.55,182.65M552.2,192.8L553.15,195.8C533.35,208.8 512.05,216.05 489.25,217.55C497.117,216.417 503.967,214.367 509.8,211.4L507.2,206.55L519.55,199.2C519.917,202.033 521.183,204.05 523.35,205.25C533.45,202.083 543.067,197.933 552.2,192.8M492.55,242.35L462.05,235.6L458.05,228.85L469.95,232.6L475.3,233.9L473.95,219.4C478.417,227.067 484.617,234.717 492.55,242.35" style="fill-opacity:0.3;"/>
                    <path d="M544.55,182.65L546.2,182.7L544.45,184.15C536.917,190.35 528.617,195.367 519.55,199.2C513.017,201.967 506.133,204.117 498.9,205.65C493.333,206.85 487.467,207.683 481.3,208.15L475.55,208.5L474.4,205.55C501.433,203.783 524.1,196.117 542.4,182.55L544.55,182.65M568.15,167.85L567.4,167.95C559.867,169.217 552.1,170.133 544.1,170.7L543.85,167.55C565.883,165.883 586.883,161.433 606.85,154.2C608.617,153.367 610.483,152.617 612.45,151.95L617.7,152.2L614.45,153.7L613.65,154.15C600.017,160.45 584.85,165.017 568.15,167.85" style="fill:#ffeaea;fill-opacity:0.45;"/>
                    <path d="M607.5,171.4L598.5,174.3L598,173.3L607.5,171.4" style="fill:#906d4e;"/>
                    <path d="M480.65,217.9C485.417,225.367 492.183,232.9 500.95,240.5L492.55,242.35C484.617,234.717 478.417,227.067 473.95,219.4C469.25,211.533 466.367,203.65 465.3,195.75L472.15,196.05C472.517,199.25 473.267,202.417 474.4,205.55L475.55,208.5C476.983,211.567 478.683,214.7 480.65,217.9" style="fill:#f3f3f3;fill-opacity:0.45;"/>
                    <path d="M466.85,-106.7C468.95,-112.533 472.15,-117.517 476.45,-121.65C508.317,-131.283 537.633,-133.683 564.4,-128.85C568.1,-124.783 570.55,-120.133 571.75,-114.9C571.75,-115.6 575.033,-115.217 581.6,-113.75L582.85,-111.8C589.35,-95.567 581.233,-87.483 558.5,-87.55C558.7,-95.15 558.117,-101.35 556.75,-106.15C555.783,-112.383 554.35,-116.35 552.45,-118.05C530.683,-119.883 514.1,-117.633 502.7,-111.3C501.167,-91.6 497.5,-80.883 491.7,-79.15C485.133,-77.417 479,-76.55 473.3,-76.55C466.033,-76.483 459.45,-77.867 453.55,-80.7C449.617,-88.2 450.017,-95.917 454.75,-103.85L466.85,-106.7C473.85,-106.833 480.35,-105.933 486.35,-104C488.083,-99.667 486.833,-93.383 482.6,-85.15C479.167,-82.65 476.533,-82.75 474.7,-85.45C473.367,-88.75 474.1,-92.067 476.9,-95.4C478.9,-95.633 479.883,-94.35 479.85,-91.55M571.75,-114.9L571.9,-111.5L572.35,-103.75L572.6,-99.05C574.4,-97.783 576.3,-98.133 578.3,-100.1C579.833,-101.567 579.9,-103.283 578.5,-105.25C577.767,-105.117 576.95,-104.383 576.05,-103.05" style="fill:none;fill-rule:nonzero;stroke:#000;stroke-opacity:0.3;stroke-width:0.05px;"/>
                    <path d="M544.55,182.65L546.2,182.7L554.55,182.6C567.383,181.633 580.233,179.383 593.1,175.85L597.75,174.5L598.5,174.3L607.5,171.4C612.633,169.5 617.817,167.417 623.05,165.15C622.483,161.583 621.583,158.75 620.35,156.65C619.25,154.45 618.367,152.967 617.7,152.2L612.45,151.95C610.483,152.617 608.617,153.367 606.85,154.2C586.883,161.433 565.883,165.883 543.85,167.55M570.35,167.85L568.15,167.85M474.4,205.55C501.433,203.783 524.1,196.117 542.4,182.55L544.55,182.65M546.2,182.7C548.967,186.133 550.967,189.5 552.2,192.8L553.15,195.8C533.35,208.8 512.05,216.05 489.25,217.55L486.45,217.75L480.65,217.9C485.417,225.367 492.183,232.9 500.95,240.5L492.55,242.35L462.05,235.6L458.05,228.85L469.95,232.6L455,208.95L465.3,195.75L472.15,196.05C472.517,199.25 473.267,202.417 474.4,205.55L475.55,208.5C476.983,211.567 478.683,214.7 480.65,217.9" style="fill:none;fill-rule:nonzero;stroke:#000;stroke-opacity:0.3;stroke-width:0.1px;"/>
                    <path d="M526.65,-100.4C539.283,-103.367 548.683,-108.517 554.85,-115.85L557.35,-115.4C566.55,-113.133 568.2,-108.25 562.3,-100.75L559.9,-98.05C551.233,-90.517 538.317,-87.65 521.15,-89.45C523.883,-91.85 525.617,-94.733 526.35,-98.1L526.65,-100.4M565.15,-86.35C564.55,-83.65 563.283,-80.883 561.35,-78.05L559.3,-75.3C554.4,-71.667 549.067,-70 543.3,-70.3C536.5,-70.733 529.517,-73.883 522.35,-79.75L521.35,-86.25C527.917,-81.85 534.667,-79.483 541.6,-79.15C549.467,-78.65 557.317,-81.05 565.15,-86.35M560.25,-63.1L559.85,-61.25C559.017,-57.35 557.1,-54.617 554.1,-53.05C550.8,-51.383 547.533,-50.617 544.3,-50.75C538.233,-51.117 531.85,-54.567 525.15,-61.1L523.85,-69.4C535.817,-59.333 547.95,-57.233 560.25,-63.1" style="fill:#fbe4b5;"/>
                    <path d="M562.3,-100.75C563.367,-98.917 564.183,-97.1 564.75,-95.3C553.483,-89.633 544.5,-86.467 537.8,-85.8C531.433,-84.933 525.917,-85.4 521.25,-87.2L520.9,-89.25L521.15,-89.45C538.317,-87.65 551.233,-90.517 559.9,-98.05L562.3,-100.75M561.35,-78.05C561.95,-76.85 562.1,-75.083 561.8,-72.75C550,-69.617 540.933,-68.517 534.6,-69.45C530.5,-69.983 526.733,-71.05 523.3,-72.65L522.35,-79.75C529.517,-73.883 536.5,-70.733 543.3,-70.3C549.067,-70 554.4,-71.667 559.3,-75.3L561.35,-78.05" style="fill:#746e5a;"/>
                    <path d="M564.75,-95.3C565.45,-92.833 565.633,-90.367 565.3,-87.9L565.15,-86.35C557.317,-81.05 549.467,-78.65 541.6,-79.15C534.667,-79.483 527.917,-81.85 521.35,-86.25L521.25,-87.2C525.917,-85.4 531.433,-84.933 537.8,-85.8C544.5,-86.467 553.483,-89.633 564.75,-95.3M561.8,-72.75C561.567,-69.883 561.15,-67.133 560.55,-64.5L560.25,-63.1C547.95,-57.233 535.817,-59.333 523.85,-69.4L523.3,-72.65C526.733,-71.05 530.5,-69.983 534.6,-69.45C540.933,-68.517 550,-69.617 561.8,-72.75" style="fill:#9a9278;"/>
                    <path d="M526.65,-100.4C539.283,-103.367 548.683,-108.517 554.85,-115.85L557.35,-115.4C566.55,-113.133 568.2,-108.25 562.3,-100.75C563.367,-98.917 564.183,-97.1 564.75,-95.3C565.45,-92.833 565.633,-90.367 565.3,-87.9L565.15,-86.35C564.55,-83.65 563.283,-80.883 561.35,-78.05C561.95,-76.85 562.1,-75.083 561.8,-72.75C561.567,-69.883 561.15,-67.133 560.55,-64.5L560.25,-63.1L559.85,-61.25C559.017,-57.35 557.1,-54.617 554.1,-53.05C550.8,-51.383 547.533,-50.617 544.3,-50.75C538.233,-51.117 531.85,-54.567 525.15,-61.1L523.85,-69.4L523.3,-72.65L522.35,-79.75L521.35,-86.25L521.25,-87.2L520.9,-89.25M561.35,-78.05L559.3,-75.3C554.4,-71.667 549.067,-70 543.3,-70.3C536.5,-70.733 529.517,-73.883 522.35,-79.75M562.3,-100.75L559.9,-98.05C551.233,-90.517 538.317,-87.65 521.15,-89.45" style="fill:none;fill-rule:nonzero;stroke:#000;stroke-opacity:0.3;stroke-width:0.05px;"/>
                    <path d="M520.9,-89.25L521.15,-89.45C523.883,-91.85 525.617,-94.733 526.35,-98.1L526.65,-100.4L520.9,-89.25Z" style="fill:none;fill-rule:nonzero;stroke:#000;stroke-opacity:0.3;stroke-width:0.1px;"/>
                </g>
            </g>
        </g>
    </g>
</svg>
