<?xml version="1.0" encoding="UTF-8" standalone="no"?>
<!DOCTYPE svg PUBLIC "-//W3C//DTD SVG 1.1//EN" "http://www.w3.org/Graphics/SVG/1.1/DTD/svg11.dtd">
<svg width="100%" height="100%" viewBox="0 0 22 19" version="1.1" xmlns="http://www.w3.org/2000/svg" xmlns:xlink="http://www.w3.org/1999/xlink" xml:space="preserve" xmlns:serif="http://www.serif.com/" style="fill-rule:evenodd;clip-rule:evenodd;stroke-linecap:round;stroke-linejoin:round;">
    <g id="sprite0" transform="matrix(1,0,0,1,10.95,9.45)">
        <g>
            <g id="shape0">
                <path d="M4.05,-2.5L5.65,-4L7.05,-4.5L7.4,-3.8L7.9,-2.65L8.1,-1.9L9.3,-2.7L8.35,-0.7L8.35,-0.2C8.917,-0.7 9.6,-1.117 10.4,-1.45C9.5,-0.217 8.917,1.017 8.65,2.25L8.45,3.9C8.417,5.133 8.7,6.383 9.3,7.65C8.533,7.317 7.933,6.933 7.5,6.5L8.15,8.9C6.95,8.233 6.117,7.367 5.65,6.3L5.4,6.45L5.2,6.55L4.95,6.7L3.85,7.3L3.55,7.45L2.7,7.8L1.05,8L0.75,8L-0.65,7.8L-1.15,8.35C-2.183,8.35 -3.033,7.983 -3.7,7.25L-4.05,5.9L-4.7,5.2L-5.5,4.15L-6,3.35L-6.85,1.1C-7.65,1.733 -8.55,1.983 -9.55,1.85L-7.55,-0.8C-8.35,-0.367 -9.317,-0.25 -10.45,-0.45C-9.317,-0.95 -8.45,-1.633 -7.85,-2.5C-7.75,-3.267 -7.467,-3.983 -7,-4.65C-6.767,-5.85 -6.817,-7.283 -7.15,-8.95C-6.45,-7.85 -5.95,-6.833 -5.65,-5.9L-5.6,-8.4L-4.8,-6.8L-4.25,-7.2L-2.95,-7.95L-2.05,-6.25L-2.75,-5.7L-3,-5.45L-3.05,-5.35L-3.45,-4.85L-3.5,-4.75L-3.95,-3.75C-0.783,-2.917 2.15,-1.667 4.85,0L4.8,-0.15L4.6,-1.05L4.55,-1.25L4.45,-1.55L4.35,-1.8L4.3,-2L4.05,-2.5M4.7,2.2L4.35,2.8L4.6,2.8L4.6,2.7L4.65,2.65L4.75,2.25L4.7,2.2M1.45,5.4L1.75,5.4L3,5.2L3.35,4.9L2.05,4.7L1.45,5.4" style="fill:rgb(40,10,2);"/>
                <path d="M4.05,-2.5L5.65,-4L7.05,-4.5L7.4,-3.8L7.9,-2.65L8.1,-1.9L9.3,-2.7L8.35,-0.7L8.35,-0.2C8.917,-0.7 9.6,-1.117 10.4,-1.45C9.5,-0.217 8.917,1.017 8.65,2.25L8.45,3.9C8.417,5.133 8.7,6.383 9.3,7.65C8.533,7.317 7.933,6.933 7.5,6.5L8.15,8.9C6.95,8.233 6.117,7.367 5.65,6.3L5.4,6.45L5.2,6.55L4.95,6.7L3.85,7.3L3.55,7.45L2.7,7.8L1.05,8L0.75,8L-0.65,7.8L-1.15,8.35C-2.183,8.35 -3.033,7.983 -3.7,7.25L-4.05,5.9L-4.7,5.2L-5.5,4.15L-6,3.35L-6.85,1.1C-7.65,1.733 -8.55,1.983 -9.55,1.85L-7.55,-0.8C-8.35,-0.367 -9.317,-0.25 -10.45,-0.45C-9.317,-0.95 -8.45,-1.633 -7.85,-2.5C-7.75,-3.267 -7.467,-3.983 -7,-4.65C-6.767,-5.85 -6.817,-7.283 -7.15,-8.95C-6.45,-7.85 -5.95,-6.833 -5.65,-5.9L-5.6,-8.4L-4.8,-6.8L-4.25,-7.2L-2.95,-7.95L-2.05,-6.25L-2.75,-5.7L-3,-5.45L-3.05,-5.35L-3.45,-4.85L-3.5,-4.75L-3.95,-3.75C-0.783,-2.917 2.15,-1.667 4.85,0L4.8,-0.15L4.6,-1.05L4.55,-1.25L4.45,-1.55L4.35,-1.8L4.3,-2L4.05,-2.5M4.7,2.2L4.35,2.8L4.6,2.8L4.6,2.7L4.65,2.65L4.75,2.25L4.7,2.2M1.45,5.4L1.75,5.4L3,5.2L3.35,4.9L2.05,4.7L1.45,5.4Z" style="fill:none;fill-rule:nonzero;stroke:rgb(40,10,2);stroke-width:1px;"/>
            </g>
            <g id="sprite1" transform="matrix(0.0498,0,0,0.0497,-6.9514,-7.99937)">
                <g id="shape1">
                    <path d="M48.5,164.6L49.4,107.5L240.65,191.9L218.25,232.8L48.5,164.6" style="fill:rgb(225,125,4);"/>
                    <path d="M48.5,164.6L218.25,232.8L240.65,191.9L49.4,107.5L48.5,164.6Z" style="fill:none;fill-rule:nonzero;stroke:black;stroke-opacity:0.3;stroke-width:0.05px;"/>
                    <path d="M45.65,81.95C130.65,102.617 207.367,138.017 275.8,188.15L256.65,219.55C187.35,177.983 113.017,141.8 33.65,111L45.65,81.95" style="fill:rgb(36,29,19);"/>
                    <path d="M45.65,81.95C130.65,102.617 207.367,138.017 275.8,188.15L256.65,219.55C187.35,177.983 113.017,141.8 33.65,111L45.65,81.95Z" style="fill:none;fill-rule:nonzero;stroke:black;stroke-opacity:0.3;stroke-width:0.05px;"/>
                    <path d="M27.5,-8.15C53.867,34.583 56.75,80.833 36.15,130.6C15.383,180.2 -13.9,202.667 -51.7,198C5.867,132.267 32.267,63.55 27.5,-8.15" style="fill:rgb(185,177,161);"/>
                    <path d="M27.5,-8.15C32.267,63.55 5.867,132.267 -51.7,198C-13.9,202.667 15.383,180.2 36.15,130.6C56.75,80.833 53.867,34.583 27.5,-8.15Z" style="fill:none;fill-rule:nonzero;stroke:black;stroke-opacity:0.3;stroke-width:0.05px;"/>
                    <path d="M19.05,114.4C-0.95,145.967 -30.8,158.433 -70.5,151.8C-8.233,125.067 13.983,68.05 -3.85,-19.25C32.217,37.517 39.85,82.067 19.05,114.4" style="fill:rgb(185,177,161);"/>
                    <path d="M19.05,114.4C39.85,82.067 32.217,37.517 -3.85,-19.25C13.983,68.05 -8.233,125.067 -70.5,151.8C-30.8,158.433 -0.95,145.967 19.05,114.4Z" style="fill:none;fill-rule:nonzero;stroke:black;stroke-opacity:0.3;stroke-width:0.05px;"/>
                    <path d="M218.9,307.25L229.2,300.2C231.9,298.133 234.45,296 236.85,293.8C244.05,287.033 250.75,279.233 256.95,270.4C276.35,241.833 284.583,208.517 281.65,170.45L280.3,157.75C278.433,145.283 275.583,133.4 271.75,122.1C269.083,114.033 265.967,106.233 262.4,98.7L258.05,90.15L257,88.4C256.3,87.367 254.95,84.767 252.95,80.6L281.05,70.45L281.05,70.65C283.65,74.95 286.083,79.433 288.35,84.1C291.95,91.633 295.083,99.433 297.75,107.5C301.55,118.8 304.383,130.683 306.25,143.15L307.6,155.8C310.567,193.867 302.35,227.2 282.95,255.8C276.75,264.767 270.05,272.55 262.85,279.15C258.017,283.45 252.983,287.283 247.75,290.65L246.2,291.65L239.9,295.15L218.9,307.25M54.25,15.9L80.25,1.3L98.1,35.2L72.1,49.8L54.25,15.9" style="fill:rgb(233,233,233);"/>
                    <path d="M252.95,80.6C254.95,84.767 256.3,87.367 257,88.4L258.05,90.15L262.4,98.7C265.967,106.233 269.083,114.033 271.75,122.1C275.583,133.4 278.433,145.283 280.3,157.75L281.65,170.45C284.583,208.517 276.35,241.833 256.95,270.4C250.75,279.233 244.05,287.033 236.85,293.8C234.45,296 231.9,298.133 229.2,300.2L218.9,307.25C218.167,307.65 217.417,308.033 216.65,308.4L192.15,271.75C194.983,269.95 197.833,267.883 200.7,265.55C207.6,259.55 213.917,252.2 219.65,243.5C231.217,225.067 237.1,204.15 237.3,180.75C237.433,173.35 236.983,165.683 235.95,157.75C235.017,151.65 233.767,145.683 232.2,139.85L230.95,135.55L229.05,130.1C228.517,128.133 227.867,126.25 227.1,124.45L226.05,121.3C224.483,117.533 222.783,113.9 220.95,110.4L252.95,80.6M72.1,49.8C67.333,52.8 62.767,56.433 58.4,60.7L53.65,66L51.9,68.1L36.05,30.9C37.083,29.733 38.217,28.633 39.45,27.6C44.25,23.167 49.183,19.267 54.25,15.9L72.1,49.8M43.25,79.8C32.317,97.233 27.083,118.417 27.55,143.35C27.55,153.983 28.65,164.317 30.85,174.35L31.05,175.3L30.45,173.55L33.85,193.05C35.25,200.317 33.267,208.883 27.9,218.75L19.1,228.3C3.733,200.1 -3.9,169.317 -3.8,135.95C-3.967,99.95 4.95,69.867 22.95,45.7L43.05,79.6L43.25,79.8M55.3,229.5C58.033,233.367 61.067,237.25 64.4,241.15C88.933,269.483 117.183,283.717 149.15,283.85C159.483,283.717 169.117,282.033 178.05,278.8L177.5,311.3L154.5,322.45C113.133,320.483 76.683,301.517 45.15,265.55C39.183,258.783 33.9,251.883 29.3,244.85L55.3,229.5" style="fill:rgb(181,182,182);"/>
                    <path d="M200.7,265.55C197.833,267.883 194.983,269.95 192.15,271.75L189.65,273.3L187.2,274.7C186.033,275.2 184.917,275.783 183.85,276.45L178.75,278.4L178.05,278.8C169.117,282.033 159.483,283.717 149.15,283.85C117.183,283.717 88.933,269.483 64.4,241.15C61.067,237.25 58.033,233.367 55.3,229.5L54.85,229.1C52.817,226.233 50.933,223.3 49.2,220.3C46.6,216.033 44.233,211.683 42.1,207.25C38.8,200.517 35.533,191.55 32.3,180.35L30.45,173.55L31.05,175.3L30.85,174.35C28.65,164.317 27.55,153.983 27.55,143.35C27.083,118.417 32.317,97.233 43.25,79.8L44.35,77.85C46.483,74.483 49,71.233 51.9,68.1L53.65,66L58.4,60.7C62.767,56.433 67.333,52.8 72.1,49.8L98.1,35.2C93.333,38.167 88.767,41.8 84.4,46.1C82.733,47.8 81.15,49.55 79.65,51.35L77.85,53.5C74.983,56.633 72.483,59.883 70.35,63.25L69.2,65.2C58.267,82.6 53.05,103.783 53.55,128.75C53.517,139.383 54.6,149.7 56.8,159.7L58.05,164.95L58.3,165.75C58.533,167.183 58.883,168.617 59.35,170.05C61.583,177.85 64.483,185.383 68.05,192.65C70.183,197.05 72.55,201.4 75.15,205.7L80.75,214.45L81.2,214.85C83.967,218.75 87.033,222.65 90.4,226.55C114.933,255.017 143.167,269.3 175.1,269.4C184.133,269.3 192.667,268.017 200.7,265.55" style="fill:rgb(124,124,124);"/>
                    <path d="M192.15,271.75L216.65,308.4L210.8,311.3C205.3,314.033 199.567,316.25 193.6,317.95C183.233,320.817 172.133,322.317 160.3,322.45L154.5,322.45L177.5,311.3L178.05,278.8L178.75,278.4L183.85,276.45C184.917,275.783 186.033,275.2 187.2,274.7L189.65,273.3L192.15,271.75M51.9,68.1C49,71.233 46.483,74.483 44.35,77.85L43.25,79.8L43.05,79.6L22.95,45.7C26.85,40.5 31.217,35.567 36.05,30.9L51.9,68.1M30.45,173.55L32.3,180.35C35.533,191.55 38.8,200.517 42.1,207.25C44.233,211.683 46.6,216.033 49.2,220.3C50.933,223.3 52.817,226.233 54.85,229.1L55.3,229.5L29.3,244.85C25.5,239.417 22.1,233.9 19.1,228.3L27.9,218.75C33.267,208.883 35.25,200.317 33.85,193.05L30.45,173.55" style="fill:rgb(222,222,222);"/>
                    <path d="M218.9,307.25L239.9,295.15L246.2,291.65L247.75,290.65C252.983,287.283 258.017,283.45 262.85,279.15C270.05,272.55 276.75,264.767 282.95,255.8C302.35,227.2 310.567,193.867 307.6,155.8L306.25,143.15C304.383,130.683 301.55,118.8 297.75,107.5C295.083,99.433 291.95,91.633 288.35,84.1C286.083,79.433 283.65,74.95 281.05,70.65L281.05,70.45L252.95,80.6L220.95,110.4C222.783,113.9 224.483,117.533 226.05,121.3L227.1,124.45C227.867,126.25 228.517,128.133 229.05,130.1L230.95,135.55L232.2,139.85C233.767,145.683 235.017,151.65 235.95,157.75C236.983,165.683 237.433,173.35 237.3,180.75C237.1,204.15 231.217,225.067 219.65,243.5C213.917,252.2 207.6,259.55 200.7,265.55C192.667,268.017 184.133,269.3 175.1,269.4C143.167,269.3 114.933,255.017 90.4,226.55C87.033,222.65 83.967,218.75 81.2,214.85L80.75,214.45L75.15,205.7C72.55,201.4 70.183,197.05 68.05,192.65C64.483,185.383 61.583,177.85 59.35,170.05C58.883,168.617 58.533,167.183 58.3,165.75L58.05,164.95L56.8,159.7C54.6,149.7 53.517,139.383 53.55,128.75C53.05,103.783 58.267,82.6 69.2,65.2L70.35,63.25C72.483,59.883 74.983,56.633 77.85,53.5L79.65,51.35C81.15,49.55 82.733,47.8 84.4,46.1C88.767,41.8 93.333,38.167 98.1,35.2L80.25,1.3L54.25,15.9C49.183,19.267 44.25,23.167 39.45,27.6C38.217,28.633 37.083,29.733 36.05,30.9C31.217,35.567 26.85,40.5 22.95,45.7C4.95,69.867 -3.967,99.95 -3.8,135.95C-3.9,169.317 3.733,200.1 19.1,228.3C22.1,233.9 25.5,239.417 29.3,244.85C33.9,251.883 39.183,258.783 45.15,265.55C76.683,301.517 113.133,320.483 154.5,322.45L160.3,322.45C172.133,322.317 183.233,320.817 193.6,317.95C199.567,316.25 205.3,314.033 210.8,311.3L216.65,308.4C217.417,308.033 218.167,307.65 218.9,307.25Z" style="fill:none;fill-rule:nonzero;stroke:black;stroke-opacity:0.3;stroke-width:0.05px;"/>
                    <path d="M301.75,122.45C301.517,120.85 302.167,123.067 303.7,129.1C304.7,133.7 305.55,138.383 306.25,143.15L307.6,155.8C308.033,161.233 308.233,166.567 308.2,171.8C303.567,187.2 301.267,202.55 301.3,217.85C297.1,231.317 291.533,243.217 284.6,253.55L271.4,273.1C269.567,275.833 258.867,283.317 239.3,295.55L229.4,272.95L196.65,268.75C217.75,251.017 230.817,228.267 235.85,200.5C241.417,169.467 252.867,141.733 270.2,117.3C280.2,119.367 290.717,121.083 301.75,122.45M297.75,107.5L299.35,112.85C297.317,106.383 296.783,104.6 297.75,107.5M33.65,148.7L43.6,210.7L1.3,182.4C-2.9,166.7 -4.283,145.717 -2.85,119.45L33.65,148.7" style="fill-opacity:0.3;"/>
                    <path d="M66.5,243.7C70.2,281.767 80.217,302.367 96.55,305.5C109.683,307.2 122.95,296.933 136.35,274.7C109.717,274.833 86.433,264.5 66.5,243.7M115.95,329.25C95.25,329.517 78.433,322.25 65.5,307.45L33.4,180L190.75,243.7L115.95,329.25" style="fill:rgb(241,159,31);"/>
                    <path d="M66.5,243.7C86.433,264.5 109.717,274.833 136.35,274.7C122.95,296.933 109.683,307.2 96.55,305.5C80.217,302.367 70.2,281.767 66.5,243.7" style="fill:rgb(252,197,65);"/>
                    <path d="M115.95,329.25L190.75,243.7L33.4,180L65.5,307.45C78.433,322.25 95.25,329.517 115.95,329.25Z" style="fill:none;fill-rule:nonzero;stroke:black;stroke-opacity:0.3;stroke-width:0.05px;"/>
                    <path d="M268.5,223.9C275.667,182.867 302.283,152.15 348.35,131.75C304.15,193.717 296.85,254.967 326.45,315.5C280.483,295.5 261.167,264.967 268.5,223.9" style="fill:rgb(185,177,161);"/>
                    <path d="M268.5,223.9C261.167,264.967 280.483,295.5 326.45,315.5C296.85,254.967 304.15,193.717 348.35,131.75C302.283,152.15 275.667,182.867 268.5,223.9Z" style="fill:none;fill-rule:nonzero;stroke:black;stroke-opacity:0.3;stroke-width:0.05px;"/>
                    <path d="M303.45,340.65C257.583,315.05 238.383,276.133 245.85,223.9C253.217,171.7 279.967,132.6 326.1,106.6C281.633,185.467 274.083,263.483 303.45,340.65" style="fill:rgb(250,237,209);"/>
                    <path d="M303.45,340.65C274.083,263.483 281.633,185.467 326.1,106.6C279.967,132.6 253.217,171.7 245.85,223.9C238.383,276.133 257.583,315.05 303.45,340.65Z" style="fill:none;fill-rule:nonzero;stroke:black;stroke-opacity:0.3;stroke-width:0.05px;"/>
                    <path d="M-5.25,100.25L2.75,72.8C28.15,130.6 67.317,169.183 120.25,188.55C172.383,212.45 218.167,221.55 257.6,215.85C275.533,213.117 292.2,207.4 307.6,198.7L296.8,236.1C281.767,240.633 265.617,242.717 248.35,242.35C213.883,241.05 173.2,231.5 126.3,213.7C70.433,192.267 26.583,154.45 -5.25,100.25" style="fill:rgb(64,53,38);"/>
                    <path d="M296.8,236.1L295.15,241.35C246.017,269.283 183.567,265.917 107.8,231.25C54.833,211.883 15.65,173.283 -9.75,115.45L-5.25,100.25C26.583,154.45 70.433,192.267 126.3,213.7C173.2,231.5 213.883,241.05 248.35,242.35C265.617,242.717 281.767,240.633 296.8,236.1" style="fill:rgb(36,29,19);"/>
                    <path d="M-5.25,100.25L2.75,72.8C28.15,130.6 67.317,169.183 120.25,188.55C172.383,212.45 218.167,221.55 257.6,215.85C275.533,213.117 292.2,207.4 307.6,198.7L296.8,236.1L295.15,241.35C246.017,269.283 183.567,265.917 107.8,231.25C54.833,211.883 15.65,173.283 -9.75,115.45L-5.25,100.25Z" style="fill:none;fill-rule:nonzero;stroke:black;stroke-opacity:0.3;stroke-width:0.05px;"/>
                    <path d="M135.2,253.85C124.067,260.217 113.083,261.767 102.25,258.5C90.25,254.233 81.717,245.867 76.65,233.4C75.85,231.567 75.2,229.733 74.7,227.9C71.6,217.133 71.783,206.1 75.25,194.8C75.25,194.4 75.333,194.067 75.5,193.8C78.333,183.3 83.183,174.867 90.05,168.5L91.7,189.35C90.167,192.083 88.967,195.067 88.1,198.3C85.1,207.8 85.35,216.9 88.85,225.6C92.35,234.167 98.383,240 106.95,243.1C114.317,245.467 121.767,244.433 129.3,240L135.2,253.85" style="fill:rgb(143,143,143);"/>
                    <path d="M90.05,168.5C92.583,166.167 95.267,164.083 98.1,162.25C108.933,154.85 120.083,152.967 131.55,156.6C143.083,159.6 151.717,167.333 157.45,179.8C163.05,191.867 163.917,205.183 160.05,219.75C157.917,227.683 154.667,234.633 150.3,240.6L141.55,228.5C143.95,224.867 145.75,220.783 146.95,216.25C149.617,206.117 149.033,196.817 145.2,188.35C141.2,179.917 135.167,174.667 127.1,172.6C119.233,170 111.467,171.3 103.8,176.5C98.633,179.6 94.6,183.883 91.7,189.35L90.05,168.5" style="fill:rgb(196,196,196);"/>
                    <path d="M150.3,240.6C146.6,245.267 142.233,249.283 137.2,252.65L135.2,253.85L129.3,240L130.75,239.05C135.083,236.183 138.683,232.667 141.55,228.5L150.3,240.6" style="fill:rgb(237,237,237);"/>
                    <path d="M135.2,253.85C124.067,260.217 113.083,261.767 102.25,258.5C90.25,254.233 81.717,245.867 76.65,233.4C75.85,231.567 75.2,229.733 74.7,227.9C71.6,217.133 71.783,206.1 75.25,194.8C75.25,194.4 75.333,194.067 75.5,193.8C78.333,183.3 83.183,174.867 90.05,168.5C92.583,166.167 95.267,164.083 98.1,162.25C108.933,154.85 120.083,152.967 131.55,156.6C143.083,159.6 151.717,167.333 157.45,179.8C163.05,191.867 163.917,205.183 160.05,219.75C157.917,227.683 154.667,234.633 150.3,240.6C146.6,245.267 142.233,249.283 137.2,252.65L135.2,253.85M129.3,240C121.767,244.433 114.317,245.467 106.95,243.1C98.383,240 92.35,234.167 88.85,225.6C85.35,216.9 85.1,207.8 88.1,198.3C88.967,195.067 90.167,192.083 91.7,189.35C94.6,183.883 98.633,179.6 103.8,176.5C111.467,171.3 119.233,170 127.1,172.6C135.167,174.667 141.2,179.917 145.2,188.35C149.033,196.817 149.617,206.117 146.95,216.25C145.75,220.783 143.95,224.867 141.55,228.5C138.683,232.667 135.083,236.183 130.75,239.05L129.3,240Z" style="fill:none;fill-rule:nonzero;stroke:black;stroke-opacity:0.3;stroke-width:0.05px;"/>
                    <path d="M271.05,194.2C279.917,223.833 275.167,253.267 256.8,282.5L236.95,289.1C256.15,253 262.25,219.1 255.25,187.4L271.05,194.2" style="fill:rgb(139,122,84);"/>
                    <path d="M271.05,194.2C279.917,223.833 275.167,253.267 256.8,282.5L236.95,289.1C256.15,253 262.25,219.1 255.25,187.4L271.05,194.2Z" style="fill:none;fill-rule:nonzero;stroke:black;stroke-opacity:0.3;stroke-width:0.05px;"/>
                    <path d="M37.7,68.9C17.433,115.033 10.1,152.583 15.7,181.55L0.55,171C-6.383,141.267 0.267,109.383 20.5,75.35L37.7,68.9" style="fill:rgb(139,122,84);"/>
                    <path d="M37.7,68.9C17.433,115.033 10.1,152.583 15.7,181.55L0.55,171C-6.383,141.267 0.267,109.383 20.5,75.35L37.7,68.9Z" style="fill:none;fill-rule:nonzero;stroke:black;stroke-opacity:0.3;stroke-width:0.05px;"/>
                    <path d="M10.2,66.35C-3.833,93.217 -9.567,113.867 -7,128.3L-18.25,138.65C-22.483,107.183 -12.933,79.183 10.4,54.65L10.2,66.35" style="fill:rgb(139,122,84);"/>
                    <path d="M10.2,66.35C-3.833,93.217 -9.567,113.867 -7,128.3L-18.25,138.65C-22.483,107.183 -12.933,79.183 10.4,54.65L10.2,66.35Z" style="fill:none;fill-rule:nonzero;stroke:black;stroke-opacity:0.3;stroke-width:0.05px;"/>
                    <path d="M308.75,183.3C316.15,212.133 313.267,236.167 300.1,255.4L284.6,264.95C298.333,238.583 301.683,208.767 294.65,175.5L308.75,183.3" style="fill:rgb(139,122,84);"/>
                    <path d="M308.75,183.3C316.15,212.133 313.267,236.167 300.1,255.4L284.6,264.95C298.333,238.583 301.683,208.767 294.65,175.5L308.75,183.3Z" style="fill:none;fill-rule:nonzero;stroke:black;stroke-opacity:0.3;stroke-width:0.05px;"/>
                </g>
            </g>
        </g>
    </g>
</svg>
