<?xml version="1.0" encoding="UTF-8" standalone="no"?>
<!DOCTYPE svg PUBLIC "-//W3C//DTD SVG 1.1//EN" "http://www.w3.org/Graphics/SVG/1.1/DTD/svg11.dtd">
<svg width="100%" height="100%" viewBox="0 0 19 29" version="1.1" xmlns="http://www.w3.org/2000/svg" xmlns:xlink="http://www.w3.org/1999/xlink" xml:space="preserve" xmlns:serif="http://www.serif.com/" style="fill-rule:evenodd;clip-rule:evenodd;stroke-linecap:round;stroke-linejoin:round;">
    <g id="sprite0" transform="matrix(1,0,0,1,9.4,14.4)">
        <g>
            <g id="shape0">
                <path d="M2.7,-6.8L5.8,-8.7L6.85,-9.2L5.05,-5C5.75,-2.767 6.633,-1.333 7.7,-0.7L7.8,-0.65L7.7,0.75L7.55,2.1L8.9,5.35L7.85,5.9L5.9,6.1L5.8,6.25L5.95,10.75L4.9,11.3L2.55,9.4L2.35,9.5L1.2,10.2L0.95,10.3L0.75,10.4L0.7,10.45L-0.75,13.35L-1.8,13.9L-2.75,9.85L-2.95,9.6L-4.6,6.95L-6.15,7.3L-6.15,3.5L-6.7,1.65L-8.9,-0.2L-7.6,-2.7L-7.8,-5.15C-6.767,-5.45 -6.1,-6.317 -5.8,-7.75L-6.8,-13.35L-5.75,-13.9L-2.7,-8.6C-1.133,-7.733 0.667,-7.133 2.7,-6.8" style="fill:rgb(40,10,2);"/>
                <path d="M2.7,-6.8C0.667,-7.133 -1.133,-7.733 -2.7,-8.6L-5.75,-13.9L-6.8,-13.35L-5.8,-7.75C-6.1,-6.317 -6.767,-5.45 -7.8,-5.15L-7.6,-2.7L-8.9,-0.2L-6.7,1.65L-6.15,3.5L-6.15,7.3L-4.6,6.95L-2.95,9.6L-2.75,9.85L-1.8,13.9L-0.75,13.35L0.7,10.45L0.75,10.4L0.95,10.3L1.2,10.2L2.35,9.5L2.55,9.4L4.9,11.3L5.95,10.75L5.8,6.25L5.9,6.1L7.85,5.9L8.9,5.35L7.55,2.1L7.7,0.75L7.8,-0.65L7.7,-0.7C6.633,-1.333 5.75,-2.767 5.05,-5L6.85,-9.2L5.8,-8.7L2.7,-6.8Z" style="fill:none;fill-rule:nonzero;stroke:rgb(40,10,2);stroke-width:1px;"/>
            </g>
            <g id="sprite1" transform="matrix(0.0498,0,0,0.0497,-7.30068,-7.99615)">
                <g id="shape1">
                    <path d="M10.1,-107.45L31.1,-118.5L92.75,-12.45L71.75,-1.45L10.1,-107.45M262.8,-13.6L283.8,-24.65L248.15,60.55L227.15,71.55L262.8,-13.6M302.9,148.2C302.8,157.9 302.317,167.3 301.45,176.4C300.583,185.5 299.317,194.367 297.65,203L276.65,214C279.95,196.767 281.7,178.5 281.9,159.2L302.9,148.2" style="fill:rgb(211,190,166);"/>
                    <path d="M71.75,-1.45L92.75,-12.45C123.983,5.383 159.967,17.717 200.7,24.55L182.05,35.85C165.317,33.217 149.367,29.6 134.2,25C117.533,20 101.917,13.933 87.35,6.8C81.95,4.133 76.75,1.383 71.75,-1.45M248.15,60.55C262.05,105.483 279.817,134.417 301.45,147.35L302.9,148.2L281.9,159.2C259.6,146.7 241.35,117.483 227.15,71.55L248.15,60.55M297.65,203L325.55,268.8L304.55,279.8L276.65,214L297.65,203" style="fill:rgb(238,215,188);"/>
                    <path d="M10.1,-107.45L71.75,-1.45C76.75,1.383 81.95,4.133 87.35,6.8C95.85,14.833 102.017,21.983 105.85,28.25L105.85,51C96.55,46.867 87.35,42.367 78.25,37.5C72.25,34.167 66.317,30.733 60.45,27.2C55.183,57.633 41.633,79.067 19.8,91.5C20.767,104.733 22.083,117.617 23.75,130.15C21.783,163.05 24.767,194.817 32.7,225.45L23.3,276.7L23.3,231.35C19,219.083 15.083,206.6 11.55,193.9L-31.9,157.3L-5.6,106.5C-7.567,90.533 -9,74.233 -9.9,57.6C10.867,51.433 24.183,33.767 30.05,4.6L10.1,-107.45M200.7,24.55L262.8,-13.6L227.15,71.55C241.35,117.483 259.6,146.7 281.9,159.2C281.7,178.5 279.95,196.767 276.65,214L304.55,279.8L290.85,281.1L281.6,268.8L290.75,268.8L272.2,234.4L269.75,240.75L266.8,249.25L258.4,238.1C252.133,230.467 252.133,211.917 258.4,182.45L233.45,196.65L239.35,179.2C215.35,165.2 197.967,130.733 187.2,75.8C175.733,73.667 164.417,71.083 153.25,68.05C141.217,60.483 132.85,54.217 128.15,49.25L134.2,25C149.367,29.6 165.317,33.217 182.05,35.85L200.7,24.55M5.85,172.15C4.55,167.15 3.417,162.3 2.45,157.6C1.383,152.233 0.5,147.05 -0.2,142.05L-2.25,129.7L-2.7,127.05L-19,153.65L5.85,172.15" style="fill:rgb(217,167,107);"/>
                    <path d="M153.25,68.05C164.417,71.083 175.733,73.667 187.2,75.8C197.967,130.733 215.35,165.2 239.35,179.2L233.45,196.65L233.15,196.8L232.85,198.3C230.717,204.267 228.467,210.083 226.1,215.75C223.767,221.25 221.367,226.583 218.9,231.75L215.4,238.95C211.367,246.683 207.15,254.083 202.75,261.15L197.9,256.15C201.433,248.217 204.467,240.433 207,232.8C212.2,216.833 215.25,201.467 216.15,186.7C198.317,204.1 179.517,215.75 159.75,221.65L160.9,218.1L162.25,215.75C165.283,209.583 165.133,205.083 161.8,202.25C155.133,196.083 151.8,189.917 151.8,183.75C154.533,176.117 154.533,169.217 151.8,163.05C144.267,148.35 132.967,138.6 117.9,133.8C104.267,129.3 92.9,131.85 83.8,141.45L82.35,143.2C85.583,136.467 87.833,128.983 89.1,120.75L89.7,114.45L89.85,112.65L96.9,108.1L89.25,100.05C88.55,95.35 87.367,91.083 85.7,87.25C81.6,78.05 75.833,73.55 68.4,73.75C60.567,73.55 53.267,78.05 46.5,87.25C39.667,96.45 35.367,107.617 33.6,120.75C33.1,123.183 32.8,125.633 32.7,128.1C31.933,137.8 33.2,146.417 36.5,153.95C40.533,163.05 46.517,167.7 54.45,167.9C60.517,167.7 66.433,164.517 72.2,158.35C69.267,165.583 69.567,172.383 73.1,178.75C76.433,166.917 81.867,158.5 89.4,153.5C108.967,142.433 119.3,146.35 120.4,165.25C120.967,174.05 125.8,184.133 134.9,195.5C136.767,202.733 136.533,209.483 134.2,215.75C132.9,219.283 130.983,222.667 128.45,225.9C118.55,225.7 108.467,224.233 98.2,221.5L96.9,215.75L96.3,214C100.1,200.867 108.317,197.483 120.95,203.85C119.383,195.75 115.667,190.667 109.8,188.6C101.767,185.767 94.667,186.2 88.5,189.9C79.3,196.867 74.017,204.317 72.65,212.25C68.25,210.183 63.85,207.933 59.45,205.5L59.45,179.8L43.15,193.3L50.9,200.5L45.2,196.8L64.7,270.4C56.867,254.533 50.067,237.833 44.3,220.3C36.267,196.233 30.1,170.633 25.8,143.5L23.75,130.15C22.083,117.617 20.767,104.733 19.8,91.5C41.633,79.067 55.183,57.633 60.45,27.2C66.317,30.733 72.25,34.167 78.25,37.5C87.35,42.367 96.55,46.867 105.85,51C121.217,57.733 137.017,63.417 153.25,68.05M180.3,116.05L146.65,125L166.35,149.55L180.3,116.05" style="fill:rgb(113,90,143);"/>
                    <path d="M232.85,198.3L233.15,196.8L233.45,196.65L232.85,198.3M203.65,340.75L203.5,340.6L204.1,340.3C203.9,340.4 203.75,340.55 203.65,340.75" style="fill:rgb(192,192,192);"/>
                    <path d="M266.8,249.25L269.75,240.75L272.2,234.4L290.75,268.8L281.6,268.8L266.8,249.25M180.3,116.05L166.35,149.55L146.65,125L180.3,116.05M50.9,200.5L43.15,193.3L59.45,179.8L59.45,205.5L50.9,200.5M72.65,212.25C74.017,204.317 79.3,196.867 88.5,189.9C94.667,186.2 101.767,185.767 109.8,188.6C115.667,190.667 119.383,195.75 120.95,203.85C108.317,197.483 100.1,200.867 96.3,214L96.9,215.75L98.2,221.5C89.867,219.233 81.35,216.15 72.65,212.25M128.45,225.9C130.983,222.667 132.9,219.283 134.2,215.75C136.533,209.483 136.767,202.733 134.9,195.5C125.8,184.133 120.967,174.05 120.4,165.25C119.3,146.35 108.967,142.433 89.4,153.5C81.867,158.5 76.433,166.917 73.1,178.75C69.567,172.383 69.267,165.583 72.2,158.35L75.75,153.95C78.183,150.617 80.383,147.033 82.35,143.2L83.8,141.45C92.9,131.85 104.267,129.3 117.9,133.8C132.967,138.6 144.267,148.35 151.8,163.05C154.533,169.217 154.533,176.117 151.8,183.75C151.8,189.917 155.133,196.083 161.8,202.25C165.133,205.083 165.283,209.583 162.25,215.75L160.9,218.1L159.75,221.65C149.55,224.583 139.117,226 128.45,225.9M89.25,100.05L96.9,108.1L89.85,112.65C89.95,108.15 89.75,103.95 89.25,100.05M5.85,172.15L-19,153.65L-2.7,127.05L-2.25,129.7L-0.2,142.05C0.5,147.05 1.383,152.233 2.45,157.6C3.417,162.3 4.55,167.15 5.85,172.15" style="fill:rgb(227,62,119);"/>
                    <path d="M290.85,281.1L265.3,283.6L250.35,284.95L249.3,286.85C232.567,273.617 222.2,261.567 218.2,250.7C216.433,245.9 215.5,241.983 215.4,238.95L218.9,231.75C221.367,226.583 223.767,221.25 226.1,215.75C228.467,210.083 230.717,204.267 232.85,198.3L233.45,196.65L258.4,182.45C252.133,211.917 252.133,230.467 258.4,238.1L266.8,249.25C264.333,255.917 261.633,262.433 258.7,268.8L281.6,268.8L290.85,281.1M244.75,388.15L197.45,350.3L194.7,348.1L188.5,352.8C180,359.033 170.95,364.95 161.35,370.55L160.9,371.45L144.45,379.5L140.35,381.55L110.85,440.6L90.85,358.95L87.8,354.7C75.333,337.367 64.067,319.35 54,300.65L23.3,307.85L23.3,276.7L32.7,225.45C24.767,194.817 21.783,163.05 23.75,130.15L25.8,143.5C30.1,170.633 36.267,196.233 44.3,220.3C50.067,237.833 56.867,254.533 64.7,270.4C67.933,276.967 71.317,283.433 74.85,289.8L77.8,294.9L79.4,297.55C83.6,304.717 88.05,311.667 92.75,318.4C97.65,325.467 102.8,332.317 108.2,338.95L108.35,338.95C119.783,335.25 130.65,330.317 140.95,324.15C164.717,309.75 185.317,288.75 202.75,261.15L242.25,301.1L244.75,388.15M32.1,256.75L32.1,296.7L49.9,292.4L44.3,281.55L32.1,256.75M117.9,372.45C112.4,370.883 107.4,368.733 102.9,366L113.35,411.65L129.9,374.8C125.7,374.3 121.7,373.517 117.9,372.45M203.65,340.75L231.55,366L231.55,311.95C223.317,322.05 214.167,331.5 204.1,340.3L203.5,340.6L203.65,340.75" style="fill:rgb(157,107,48);"/>
                    <path d="M134.2,25L128.15,49.25C132.85,54.217 141.217,60.483 153.25,68.05C137.017,63.417 121.217,57.733 105.85,51L105.85,28.25C102.017,21.983 95.85,14.833 87.35,6.8C101.917,13.933 117.533,20 134.2,25" style="fill:rgb(241,194,140);"/>
                    <path d="M72.2,158.35C66.433,164.517 60.517,167.7 54.45,167.9C46.517,167.7 40.533,163.05 36.5,153.95C33.2,146.417 31.933,137.8 32.7,128.1C32.8,125.633 33.1,123.183 33.6,120.75C35.367,107.617 39.667,96.45 46.5,87.25C53.267,78.05 60.567,73.55 68.4,73.75C75.833,73.55 81.6,78.05 85.7,87.25C87.367,91.083 88.55,95.35 89.25,100.05L75.6,85.8L75.6,121.65L89.85,112.65L89.7,114.45L89.1,120.75C87.833,128.983 85.583,136.467 82.35,143.2C77.55,148.4 74.167,153.45 72.2,158.35" style="fill:rgb(160,136,188);"/>
                    <path d="M82.35,143.2C80.383,147.033 78.183,150.617 75.75,153.95L72.2,158.35C74.167,153.45 77.55,148.4 82.35,143.2M89.25,100.05C89.75,103.95 89.95,108.15 89.85,112.65L75.6,121.65L75.6,85.8L89.25,100.05" style="fill:rgb(242,115,173);"/>
                    <path d="M128.45,225.9C139.117,226 149.55,224.583 159.75,221.65C155.417,233.283 147.867,243.85 137.1,253.35C125.167,263.65 112.1,263.75 97.9,253.65C95.767,251.583 94.05,249.583 92.75,247.65C90.983,244.883 90.15,242.183 90.25,239.55C88.683,231.117 86.833,226.467 84.7,225.6C76.367,226.2 72.25,222.867 72.35,215.6C72.35,214.433 72.45,213.317 72.65,212.25C81.35,216.15 89.867,219.233 98.2,221.5C98.6,223.733 98.9,226.283 99.1,229.15C105.267,237.75 113.283,238.483 123.15,231.35L128.45,225.9M123.75,271.55L112.6,301.25L100.85,271.55L123.75,271.55M59.45,205.5L59.45,208.25L50.9,200.5L59.45,205.5M32.1,256.75L44.3,281.55L49.9,292.4L32.1,296.7L32.1,256.75M117.9,372.45C121.7,373.517 125.7,374.3 129.9,374.8L113.35,411.65L102.9,366C107.4,368.733 112.4,370.883 117.9,372.45M266.8,249.25L281.6,268.8L258.7,268.8C261.633,262.433 264.333,255.917 266.8,249.25M183.25,212.25L199.4,236.9L172.5,236.9L183.25,212.25M204.1,340.3C214.167,331.5 223.317,322.05 231.55,311.95L231.55,366L203.65,340.75C203.75,340.55 203.9,340.4 204.1,340.3" style="fill:rgb(167,28,59);"/>
                    <path d="M64.7,270.4L45.2,196.8L50.9,200.5L59.45,208.25L59.45,205.5C63.85,207.933 68.25,210.183 72.65,212.25C72.45,213.317 72.35,214.433 72.35,215.6C72.25,222.867 76.367,226.2 84.7,225.6C86.833,226.467 88.683,231.117 90.25,239.55C90.15,242.183 90.983,244.883 92.75,247.65C94.05,249.583 95.767,251.583 97.9,253.65C112.1,263.75 125.167,263.65 137.1,253.35C147.867,243.85 155.417,233.283 159.75,221.65C179.517,215.75 198.317,204.1 216.15,186.7C215.25,201.467 212.2,216.833 207,232.8C204.467,240.433 201.433,248.217 197.9,256.15L202.75,261.15C185.317,288.75 164.717,309.75 140.95,324.15C130.65,330.317 119.783,335.25 108.35,338.95L108.2,338.95C102.8,332.317 97.65,325.467 92.75,318.4C88.05,311.667 83.6,304.717 79.4,297.55L77.8,294.9L74.85,289.8C71.317,283.433 67.933,276.967 64.7,270.4M98.2,221.5C108.467,224.233 118.55,225.7 128.45,225.9L123.15,231.35C113.283,238.483 105.267,237.75 99.1,229.15C98.9,226.283 98.6,223.733 98.2,221.5M123.75,271.55L100.85,271.55L112.6,301.25L123.75,271.55M183.25,212.25L172.5,236.9L199.4,236.9L183.25,212.25" style="fill:rgb(53,41,83);"/>
                    <path d="M160.9,371.45L131.85,429.6L110.85,440.6L140.35,381.55L144.45,379.5L160.9,371.45" style="fill:rgb(98,75,48);"/>
                    <path d="M265.3,283.6L263.1,286.85L265.75,377.15L244.75,388.15L242.25,301.1L242.1,297.85L249.3,286.85L250.35,284.95L265.3,283.6M197.45,350.3L193.65,352.8C186.117,357.467 178.333,361.917 170.3,366.15L165.45,368.5L163.55,369.5L161.35,370.55C170.95,364.95 180,359.033 188.5,352.8L194.7,348.1L197.45,350.3" style="fill:rgb(134,84,48);"/>
                    <path d="M215.4,238.95C215.5,241.983 216.433,245.9 218.2,250.7C222.2,261.567 232.567,273.617 249.3,286.85L242.1,297.85L242.25,301.1L202.75,261.15C207.15,254.083 211.367,246.683 215.4,238.95" style="fill:rgb(216,166,106);"/>
                    <path d="M92.75,-12.45L31.1,-118.5L10.1,-107.45L30.05,4.6C24.183,33.767 10.867,51.433 -9.9,57.6C-9,74.233 -7.567,90.533 -5.6,106.5L-31.9,157.3L11.55,193.9C15.083,206.6 19,219.083 23.3,231.35L23.3,307.85L54,300.65C64.067,319.35 75.333,337.367 87.8,354.7L90.85,358.95L110.85,440.6L131.85,429.6L160.9,371.45L161.35,370.55L163.55,369.5L165.45,368.5L170.3,366.15C178.333,361.917 186.117,357.467 193.65,352.8L197.45,350.3L244.75,388.15L265.75,377.15L263.1,286.85L265.3,283.6L290.85,281.1L304.55,279.8L325.55,268.8L297.65,203C299.317,194.367 300.583,185.5 301.45,176.4C302.317,167.3 302.8,157.9 302.9,148.2L301.45,147.35C279.817,134.417 262.05,105.483 248.15,60.55L283.8,-24.65L262.8,-13.6L200.7,24.55C159.967,17.717 123.983,5.383 92.75,-12.45M153.25,68.05C164.417,71.083 175.733,73.667 187.2,75.8C197.967,130.733 215.35,165.2 239.35,179.2L233.45,196.65L232.85,198.3C230.717,204.267 228.467,210.083 226.1,215.75C223.767,221.25 221.367,226.583 218.9,231.75L215.4,238.95C211.367,246.683 207.15,254.083 202.75,261.15C185.317,288.75 164.717,309.75 140.95,324.15C130.65,330.317 119.783,335.25 108.35,338.95L108.2,338.95C102.8,332.317 97.65,325.467 92.75,318.4C88.05,311.667 83.6,304.717 79.4,297.55L77.8,294.9L74.85,289.8C71.317,283.433 67.933,276.967 64.7,270.4C56.867,254.533 50.067,237.833 44.3,220.3C36.267,196.233 30.1,170.633 25.8,143.5L23.75,130.15C22.083,117.617 20.767,104.733 19.8,91.5C41.633,79.067 55.183,57.633 60.45,27.2C66.317,30.733 72.25,34.167 78.25,37.5C87.35,42.367 96.55,46.867 105.85,51C121.217,57.733 137.017,63.417 153.25,68.05M266.8,249.25L269.75,240.75L272.2,234.4L290.75,268.8L258.7,268.8C261.633,262.433 264.333,255.917 266.8,249.25M250.35,284.95L265.3,283.6M180.3,116.05L146.65,125L166.35,149.55L180.3,116.05M50.9,200.5L43.15,193.3L59.45,179.8L59.45,208.25L50.9,200.5M72.65,212.25C74.017,204.317 79.3,196.867 88.5,189.9C94.667,186.2 101.767,185.767 109.8,188.6C115.667,190.667 119.383,195.75 120.95,203.85C108.317,197.483 100.1,200.867 96.3,214L96.9,215.75L98.2,221.5C98.6,223.733 98.9,226.283 99.1,229.15C105.267,237.75 113.283,238.483 123.15,231.35L128.45,225.9C130.983,222.667 132.9,219.283 134.2,215.75C136.533,209.483 136.767,202.733 134.9,195.5C125.8,184.133 120.967,174.05 120.4,165.25C119.3,146.35 108.967,142.433 89.4,153.5C81.867,158.5 76.433,166.917 73.1,178.75C69.567,172.383 69.267,165.583 72.2,158.35C74.167,153.45 77.55,148.4 82.35,143.2L83.8,141.45C92.9,131.85 104.267,129.3 117.9,133.8C132.967,138.6 144.267,148.35 151.8,163.05C154.533,169.217 154.533,176.117 151.8,183.75C151.8,189.917 155.133,196.083 161.8,202.25C165.133,205.083 165.283,209.583 162.25,215.75L160.9,218.1L159.75,221.65C155.417,233.283 147.867,243.85 137.1,253.35C125.167,263.65 112.1,263.75 97.9,253.65C95.767,251.583 94.05,249.583 92.75,247.65C90.983,244.883 90.15,242.183 90.25,239.55C88.683,231.117 86.833,226.467 84.7,225.6C76.367,226.2 72.25,222.867 72.35,215.6C72.35,214.433 72.45,213.317 72.65,212.25M89.25,100.05L96.9,108.1L89.85,112.65L75.6,121.65L75.6,85.8L89.25,100.05M5.85,172.15L-19,153.65L-2.7,127.05L-2.25,129.7L-0.2,142.05C0.5,147.05 1.383,152.233 2.45,157.6C3.417,162.3 4.55,167.15 5.85,172.15M123.75,271.55L112.6,301.25L100.85,271.55L123.75,271.55M32.1,256.75L44.3,281.55L49.9,292.4L32.1,296.7L32.1,256.75M117.9,372.45C121.7,373.517 125.7,374.3 129.9,374.8L113.35,411.65L102.9,366C107.4,368.733 112.4,370.883 117.9,372.45M183.25,212.25L172.5,236.9L199.4,236.9L183.25,212.25M204.1,340.3C214.167,331.5 223.317,322.05 231.55,311.95L231.55,366L203.65,340.75L203.5,340.6L204.1,340.3C203.9,340.4 203.75,340.55 203.65,340.75M194.7,348.1L197.45,350.3" style="fill:none;fill-rule:nonzero;stroke:black;stroke-opacity:0.3;stroke-width:0.05px;"/>
                </g>
            </g>
        </g>
    </g>
</svg>
