<?xml version="1.0" encoding="UTF-8" standalone="no"?>
<!DOCTYPE svg PUBLIC "-//W3C//DTD SVG 1.1//EN" "http://www.w3.org/Graphics/SVG/1.1/DTD/svg11.dtd">
<svg width="100%" height="100%" viewBox="0 0 18 37" version="1.1" xmlns="http://www.w3.org/2000/svg" xmlns:xlink="http://www.w3.org/1999/xlink" xml:space="preserve" xmlns:serif="http://www.serif.com/" style="fill-rule:evenodd;clip-rule:evenodd;stroke-linecap:round;stroke-linejoin:round;">
    <g transform="matrix(1,0,0,1,-9.15,-9.8)">
        <g transform="matrix(1,0,0,1,17.95,27.95)">
            <g id="sprite0">
                <g id="sprite1">
                    <g id="shape0">
                        <path d="M2.9,-13.05L4,-6.2L4.4,4.05L5.7,3.25L5.7,3.45L5.25,3.9L5.6,3.9L5.8,4.15L4.45,4.7L4.45,4.75L4.5,4.7L4.55,5.8L6.65,10.8L7.05,10.85L7.6,11.65L6.75,11.85L6.8,12.2L8.3,12.35L7.75,13.1L7.5,13.1L7.75,13.15L5.85,13.05L5.35,13.5L6,14.25L4.3,15.4L3.05,14.75L1.85,15.05L2.35,15.75L0.75,16.9L0.1,16.1L-1.6,16.25L-1.5,17.45L-2.85,17.7L-3.1,15.85L-3.1,15.9L-3.95,16.9L-5.1,16.7L-5.05,16.65L-5.1,16.65L-4.65,15.2L-5.35,15.65L-5.85,15.2L-5.2,14.5L-4.9,14.3L-5.45,12.7L-5.9,11.2L-6.15,-0.15L-5.95,-1.85L-5.85,-2.9C-5.783,-3.867 -5.767,-4.817 -5.8,-5.75L-6,-8.7L-6.45,-11.75L-6.5,-11.75L-8.25,-13.05L-8.25,-13.1L-8.3,-13.55L-8.3,-13.6L-7.1,-14.15L-5.7,-14L-5.7,-14.05L-5.65,-14.25L-5.6,-14.25L-5.4,-15.4L-4.75,-15.35L-5,-14.1L-4.95,-14.1L-5,-13.95L-5.05,-13.9L-4.4,-13.85L-2.05,-14.4L-2.55,-15.7L-2.3,-15.6L-1.7,-15.85L-1.45,-14.95L-1.3,-14.65L-1.25,-14.7L-1.65,-17.55L-1.05,-17.65L-0.55,-15.2L-0.5,-15.2L-0.5,-14.95L-0.4,-15C-0.2,-15.367 -0.167,-15.75 -0.3,-16.15L-0.4,-16.35L-0.35,-16.35L-0.4,-16.4L2.25,-16.35L2.8,-13.4L4.6,-14.4L4.4,-14.15L5.05,-14.2L5.1,-14L2.9,-13.05" style="fill:#333;"/>
                        <path d="M2.9,-13.05L4,-6.2L4.4,4.05L5.7,3.25L5.7,3.45L5.25,3.9L5.6,3.9L5.8,4.15L4.45,4.7L4.45,4.75L4.5,4.7L4.55,5.8L6.65,10.8L7.05,10.85L7.6,11.65L6.75,11.85L6.8,12.2L8.3,12.35L7.75,13.1L7.5,13.1L7.75,13.15L5.85,13.05L5.35,13.5L6,14.25L4.3,15.4L3.05,14.75L1.85,15.05L2.35,15.75L0.75,16.9L0.1,16.1L-1.6,16.25L-1.5,17.45L-2.85,17.7L-3.1,15.85L-3.1,15.9L-3.95,16.9L-5.1,16.7L-5.05,16.65L-5.1,16.65L-4.65,15.2L-5.35,15.65L-5.85,15.2L-5.2,14.5L-4.9,14.3L-5.45,12.7L-5.9,11.2L-6.15,-0.15L-5.95,-1.85L-5.85,-2.9C-5.783,-3.867 -5.767,-4.817 -5.8,-5.75L-6,-8.7L-6.45,-11.75L-6.5,-11.75L-8.25,-13.05L-8.25,-13.1L-8.3,-13.55L-8.3,-13.6L-7.1,-14.15L-5.7,-14L-5.7,-14.05L-5.65,-14.25L-5.6,-14.25L-5.4,-15.4L-4.75,-15.35L-5,-14.1L-4.95,-14.1L-5,-13.95L-5.05,-13.9L-4.4,-13.85L-2.05,-14.4L-2.55,-15.7L-2.3,-15.6L-1.7,-15.85L-1.45,-14.95L-1.3,-14.65L-1.25,-14.7L-1.65,-17.55L-1.05,-17.65L-0.55,-15.2L-0.5,-15.2L-0.5,-14.95L-0.4,-15C-0.2,-15.367 -0.167,-15.75 -0.3,-16.15L-0.4,-16.35L-0.35,-16.35L-0.4,-16.4L2.25,-16.35L2.8,-13.4L4.6,-14.4L4.4,-14.15L5.05,-14.2L5.1,-14L2.9,-13.05Z" style="fill:none;fill-rule:nonzero;stroke:#000;stroke-width:1px;"/>
                    </g>
                </g>
                <g id="sprite2">
                    <g id="shape1">
                        <path d="M4,-6.2L4.4,4.05L3.4,4.7L3.35,5.05L3.5,5.25L4.45,4.7L4.55,5.8L6.65,10.8L6.9,11.25L5.55,11.8L5.25,11.9L2.75,12.8L2,13L1.2,13.2L-1.35,14.05L-1.75,14.2C-2.583,14.5 -3.467,14.933 -4.4,15.5L-4.65,15.05L-4.9,14.3L-5.9,11.2L-6.15,-0.15C-5.617,-3.95 -5.7,-7.833 -6.4,-11.8L-6.5,-11.8L-8.25,-13.1L-8.3,-13.6L-7.1,-14.15L-4.4,-13.85L-2.05,-14.4L-1.4,-14.6L-1.25,-14.7L-0.5,-14.95L-0.4,-15C-0.167,-15.433 -0.167,-15.9 -0.4,-16.4L2.25,-16.35L2.8,-13.4L2.9,-13.1L4,-6.2" style="fill:#8f9529;"/>
                        <path d="M2.8,-13.4L4.6,-14.4L4.4,-14.15L5.05,-14.2L5.1,-14L2.9,-13.1L2.8,-13.4M-1.05,-17.65L-0.5,-14.95L-1.25,-14.7L-1.65,-17.55L-1.05,-17.65M-2.3,-15.6L-1.7,-15.85L-1.4,-14.6L-2.05,-14.4L-2.55,-15.7L-2.3,-15.6M1.25,-9.85L1.2,-9.6L1.45,-9.7C1.917,-9.7 2.05,-9.333 1.85,-8.6L1.85,-8.55L1.6,-7.85C2.067,-7.85 2.2,-7.5 2,-6.8L2,-6.75L1.35,-5.5C1.683,-5.367 1.783,-4.9 1.65,-4.1C1.383,-3.1 0.783,-2.1 -0.15,-1.1L-0.7,-0.7C-1.233,3.4 -0.867,6.567 0.4,8.8C0.233,9.067 -0,9.233 -0.3,9.3C-1.5,7.033 -1.883,3.733 -1.45,-0.6L-1.75,-0.7C-2.55,-1.333 -2.983,-2.133 -3.05,-3.1C-3.083,-3.967 -2.8,-4.533 -2.2,-4.8L-2.1,-4.8L-2.25,-5.4C-2.35,-6.133 -2.133,-6.633 -1.6,-6.9L-1.3,-6.9C-1.5,-7.667 -1.317,-8.25 -0.75,-8.65L-0.45,-8.7L-0.45,-8.75C-0.417,-9.917 -0.033,-10.65 0.7,-10.95C1.2,-10.983 1.383,-10.617 1.25,-9.85M-3.4,9.95L-3.85,9.3L-3.05,8.85L-3.4,9.95M0.6,13.4L1.2,13.2L2,13L2.75,12.8L5.25,11.9L5.55,11.8L6.9,11.25L6.65,10.8L7.05,10.85L7.6,11.65L6.75,11.85L6.8,12.2L8.3,12.35L7.75,13.1L5.85,13.05L5.35,13.5L6,14.25L4.3,15.4L3.05,14.75L1.85,15.05L2.35,15.75L0.75,16.9L0.1,16.1L-1.6,16.25L-1.5,17.45L-2.85,17.7L-3.1,15.85L-4,16.85L-5.1,16.65L-4.65,15.1L-5.35,15.65L-5.85,15.2L-5.2,14.5L-4.9,14.3L-4.65,15.05L-4.4,15.5C-3.467,14.933 -2.583,14.5 -1.75,14.2L-1.35,14.05L0.6,13.4M-5.65,-14.05L-5.4,-15.4L-4.75,-15.35L-5.05,-13.95L-5.65,-14.05M5.8,4.15L4.45,4.7L3.5,5.25L3.35,5.05L3.4,4.7L5.7,3.25L5.7,3.45L5.25,3.9L5.6,3.9L5.8,4.15" style="fill:#ffc119;"/>
                        <path d="M5.5,10.05L5.9,10.8L4.2,11.4L3.75,10.65L5.5,10.05M1.75,12.25L1.15,11.6L3,10.95L3.55,11.6L1.75,12.25M-1.85,13.15L-2.1,13.2L-3.95,14L-4.3,13.15L-2.2,12.35L-1.85,13.15M-0.95,12.95L-1.4,12.2L0.5,11.75L0.8,12.5L-0.95,12.95" style="fill:#f8f0bd;"/>
                        <path d="M3.35,-13.25L2.9,-13.05L2.85,-13.4L3.15,-13.55L3.35,-13.25M-0.4,-16.35L0.8,-16.1L0.5,-15.55L-0.35,-15C-0.117,-15.433 -0.133,-15.883 -0.4,-16.35M-8.3,-13.55L-8.25,-13.6L-5.65,-12.55L-5.7,-11.35L-4.85,-6.5L-4.95,1.25L-4.4,10.2L-2.7,14.65L-1.75,14.2L-1.35,14.05L0.65,13.4L1.25,13.25L2.05,13L2.75,12.85L5.3,11.95L5.55,11.85L6.75,11.35L6.2,12.05L5.85,11.9L3.35,13.4L3.7,13.8L2.85,13.35L-1.5,14.35L-3.35,15.35L-3.1,15.9L-3.95,16.9L-5.1,16.7L-4.65,15.15L-5.35,15.65L-5.8,15.25L-5.15,14.5L-4.9,14.35L-5.85,11.25L-6.1,-0.1C-5.6,-3.9 -5.717,-7.783 -6.45,-11.75L-8.25,-13.05L-8.3,-13.55M-0.5,-15.2L-0.5,-14.9L-1.2,-14.65L-1.2,-15.2L-0.5,-15.2M-1.45,-14.95L-1.3,-14.6L-2.05,-14.35L-2.15,-14.65L-2,-14.8L-1.45,-14.95M2.05,-14.4L0.45,-12.25L-4.3,-12.6L-0.25,-13.25L2.05,-14.4M-5.05,-13.9L-5.7,-14L-5.65,-14.25L-4.95,-14.1L-5.05,-13.9M-3.35,9.1L-3.3,8.15L-2.95,8.9L-3.35,9.1M1.2,11.6L2.25,12.1L1.75,12.25L1.2,11.6M-0.65,12.05L0.05,12.7L-0.95,12.95L-1.4,12.25L-0.65,12.05M4.5,5.4L3.65,5.4L3.55,5.25L3.4,5.1L3.4,4.4L3.8,5.05L4.5,4.7L4.5,5.4M-4.1,10.15L-3.85,9.4L-3.3,10L-3.45,10.55L-4.1,10.15M3.75,10.7L4.2,10.5L4.5,11.35L4.2,11.4L3.75,10.7M5.85,13L5.45,12.65L7.75,13.15L5.85,13" style="fill-opacity:0.3;"/>
                        <path d="M-5.2,14.5L-5.85,15.2L-5.35,15.65L-4.65,15.1L-4.65,15.05L-4.9,14.3L-5.9,11.2L-6.15,-0.15C-5.617,-3.95 -5.733,-7.833 -6.5,-11.8L-8.25,-13.1L-8.3,-13.6L-7.1,-14.15L-5.65,-14.05L-5.4,-15.4L-4.75,-15.35L-5.05,-13.95L-4.4,-13.85L-2.05,-14.4L-2.55,-15.7L-2.3,-15.6L-1.7,-15.85L-1.4,-14.6L-1.25,-14.7L-1.65,-17.55L-1.05,-17.65L-0.5,-14.95L-0.4,-15C-0.167,-15.433 -0.167,-15.9 -0.4,-16.4L2.25,-16.35L2.8,-13.4L4.6,-14.4L4.4,-14.15L5.05,-14.2L5.1,-14L2.9,-13.1L4,-6.2L4.4,4.05L5.7,3.25L5.7,3.45L5.25,3.9L5.6,3.9L5.8,4.15L4.45,4.7L4.55,5.8L6.65,10.8L7.05,10.85L7.6,11.65L6.75,11.85L6.8,12.2L8.3,12.35L7.75,13.1L5.85,13.05L5.35,13.5L6,14.25L4.3,15.4L3.05,14.75L1.85,15.05L2.35,15.75L0.75,16.9L0.1,16.1L-1.6,16.25L-1.5,17.45L-2.85,17.7L-3.1,15.85L-4,16.85L-5.1,16.65L-4.65,15.1M2.8,-13.4L2.9,-13.1M1.25,-9.85L1.2,-9.6L1.45,-9.7C1.917,-9.7 2.05,-9.333 1.85,-8.6L1.85,-8.55L1.6,-7.85C2.067,-7.85 2.2,-7.5 2,-6.8L2,-6.75L1.35,-5.5C1.683,-5.367 1.783,-4.9 1.65,-4.1C1.383,-3.1 0.783,-2.1 -0.15,-1.1L-0.7,-0.7C-1.233,3.4 -0.867,6.567 0.4,8.8C0.233,9.067 -0,9.233 -0.3,9.3C-1.5,7.033 -1.883,3.733 -1.45,-0.6L-1.75,-0.7C-2.55,-1.333 -2.983,-2.133 -3.05,-3.1C-3.083,-3.967 -2.8,-4.533 -2.2,-4.8L-2.1,-4.8L-2.25,-5.4C-2.35,-6.133 -2.133,-6.633 -1.6,-6.9L-1.3,-6.9C-1.5,-7.667 -1.317,-8.25 -0.75,-8.65L-0.45,-8.7L-0.45,-8.75C-0.417,-9.917 -0.033,-10.65 0.7,-10.95C1.2,-10.983 1.383,-10.617 1.25,-9.85M-2.05,-14.4L-1.4,-14.6M-1.25,-14.7L-0.5,-14.95M-0.4,-15L0.5,-15.55M-5.05,-13.95L-5.65,-14.05M1.2,-9.6C0.733,-9.367 0.383,-8.883 0.15,-8.15L0.2,-8L0.2,-7.95L0.3,-6.85C0.667,-7.417 1.067,-7.767 1.5,-7.9L1.6,-7.85M0.3,-6.85L-0.25,-5.65L0,-4.55C0.333,-5.05 0.7,-5.367 1.1,-5.5L1.35,-5.5M-0.25,-5.65C-0.517,-6.383 -0.867,-6.8 -1.3,-6.9M-0.45,-8.7L0.15,-8.15M-1.45,-0.6L-0.95,-0.65C-1.15,-0.65 -1.217,-0.933 -1.15,-1.5L-0.75,-2.8L-0.75,-2.85C-0.95,-4.15 -1.4,-4.8 -2.1,-4.8M-0.7,-0.7L-0.95,-0.65M-3.35,8.05L-3.05,8.85L-3.4,9.95L-3.5,10.55M1.75,12.25L3.55,11.6L3,10.95L1.15,11.6L1.75,12.25M-4.65,15.05L-4.4,15.5C-3.467,14.933 -2.583,14.5 -1.75,14.2L-1.35,14.05L1.2,13.2L2,13L2.75,12.8L5.25,11.9L5.55,11.8L6.9,11.25L6.65,10.8M-2.2,12.35L-4.3,13.15L-3.95,14L-2.1,13.2L-1.85,13.15L-2.2,12.35M0.6,13.4L1.15,14.35M-1.4,12.2L-0.95,12.95L0.8,12.5L0.5,11.75L-1.4,12.2M-3.05,8.85L-3.85,9.3L-3.4,9.95M-1.75,14.2L-0.2,15.7M-2.25,15.25L-1.6,16.25M3.4,4L3.4,4.7L4.4,4.05M3.4,4.7L3.35,5.05L3.5,5.25L4.45,4.7M3.5,5.25L4.05,5.8M5.55,11.8L6.2,12M5.5,10.05L3.75,10.65L4.2,11.4L5.9,10.8L5.5,10.05M2.75,12.8L3.7,13.8M2,13L2.6,13.45M-0.75,-2.85L0,-4.55" style="fill:none;fill-rule:nonzero;stroke:#000;stroke-opacity:0.3;stroke-width:0.1px;"/>
                    </g>
                </g>
            </g>
        </g>
    </g>
</svg>
