<?xml version="1.0" encoding="UTF-8" standalone="no"?>
<!DOCTYPE svg PUBLIC "-//W3C//DTD SVG 1.1//EN" "http://www.w3.org/Graphics/SVG/1.1/DTD/svg11.dtd">
<svg width="100%" height="100%" viewBox="0 0 17 24" version="1.1" xmlns="http://www.w3.org/2000/svg" xmlns:xlink="http://www.w3.org/1999/xlink" xml:space="preserve" xmlns:serif="http://www.serif.com/" style="fill-rule:evenodd;clip-rule:evenodd;stroke-linecap:round;stroke-linejoin:round;">
    <g id="sprite0" transform="matrix(1,0,0,1,8.2,11.65)">
        <g>
            <g id="shape0">
                <path d="M4.5,-8.05C4.233,-7.483 4.217,-6.9 4.45,-6.3L5.5,-6.7C5.3,-5.633 5.267,-4.333 5.4,-2.8L7.15,-2.55L6.8,0L7.65,0.75L6.55,3.75L6.65,6.9L4.8,7.1C4.7,7.7 4.817,8.25 5.15,8.75L3.35,8.9C2.75,10.167 2,10.867 1.1,11L1.05,10.15L-0.05,11.2C-0.75,10.9 -1.45,9.983 -2.15,8.45C-3.45,8.317 -4.333,7.95 -4.8,7.35L-4.6,6.45L-5.65,6.8C-5.717,6.067 -5.617,5.2 -5.35,4.2L-5.4,4.15C-6.2,3.55 -6.717,2.933 -6.95,2.3L-6.2,1.2C-6.3,0.933 -6.8,0.583 -7.7,0.15C-7.367,-1.283 -6.817,-2.517 -6.05,-3.55C-6.217,-4.45 -6.433,-5.05 -6.7,-5.35C-6.267,-5.817 -5.733,-6.067 -5.1,-6.1L-4.4,-9.15L-3.1,-8.15C-3,-9.117 -2.6,-10.117 -1.9,-11.15C-1.267,-10.35 -0.333,-9.517 0.9,-8.65C2.2,-8.883 3.4,-8.683 4.5,-8.05" style="fill:rgb(40,10,2);"/>
                <path d="M4.5,-8.05C3.4,-8.683 2.2,-8.883 0.9,-8.65C-0.333,-9.517 -1.267,-10.35 -1.9,-11.15C-2.6,-10.117 -3,-9.117 -3.1,-8.15L-4.4,-9.15L-5.1,-6.1C-5.733,-6.067 -6.267,-5.817 -6.7,-5.35C-6.433,-5.05 -6.217,-4.45 -6.05,-3.55C-6.817,-2.517 -7.367,-1.283 -7.7,0.15C-6.8,0.583 -6.3,0.933 -6.2,1.2L-6.95,2.3C-6.717,2.933 -6.2,3.55 -5.4,4.15L-5.35,4.2C-5.617,5.2 -5.717,6.067 -5.65,6.8L-4.6,6.45L-4.8,7.35C-4.333,7.95 -3.45,8.317 -2.15,8.45C-1.45,9.983 -0.75,10.9 -0.05,11.2L1.05,10.15L1.1,11C2,10.867 2.75,10.167 3.35,8.9L5.15,8.75C4.817,8.25 4.7,7.7 4.8,7.1L6.65,6.9L6.55,3.75L7.65,0.75L6.8,0L7.15,-2.55L5.4,-2.8C5.267,-4.333 5.3,-5.633 5.5,-6.7L4.45,-6.3C4.217,-6.9 4.233,-7.483 4.5,-8.05Z" style="fill:none;fill-rule:nonzero;stroke:rgb(40,10,2);stroke-width:1px;"/>
            </g>
            <g id="sprite1" transform="matrix(0.0498,0,0,0.0497,-5.50092,-9.19875)">
                <g id="shape1">
                    <path d="M190.15,63.75L169.2,61.25L200.25,22.95C195.283,34.183 195,45.95 199.4,58.25C198.9,58.383 198.417,58.617 197.95,58.95C195.35,60.25 192.75,61.85 190.15,63.75M128.6,11.4C123.967,12.367 119.467,13.667 115.1,15.3L93.95,14.25L72.7,-39.5C85.1,-23.3 103.733,-6.333 128.6,11.4M-24.55,77.4L17.3,84.35C11.033,88.25 4.717,93.867 -1.65,101.2L-4.7,104.75L-11.45,113.8C-14.383,95.567 -18.75,83.433 -24.55,77.4M-44.6,188.7C-20,184.3 11.167,194.35 48.9,218.85L9.85,247.6L221.2,247.6L198.65,223.1L263.8,200.4C259.167,218.967 251.717,239.133 241.45,260.9C243.317,274.967 243.967,296.15 243.4,324.45C227.767,320.783 215.633,321.967 207,328C204.533,340.3 206.783,351.533 213.75,361.7C201.917,367.367 189.917,368.25 177.75,364.35C165.417,389.783 150.333,404.033 132.5,407.1L131.95,389.35L109.6,410.65C95.167,404.983 81.15,386.483 67.55,355.15C41.15,352.283 23.467,344.883 14.5,332.95L17.85,315C10.65,319.167 3.617,321.483 -3.25,321.95C-4.45,307.05 -2.45,289.533 2.75,269.4L2.4,269.05C-14.033,256.517 -24.55,243.917 -29.15,231.25C-23.25,223.583 -18.117,216.367 -13.75,209.6C-15.983,203.933 -26.267,196.967 -44.6,188.7M246.6,184.8L186.4,177.85L254.05,133.65C254.383,148.683 251.9,165.733 246.6,184.8M13.6,277.25L2.75,269.4L13.6,277.25M64.15,344.5L67.55,355.15L64.15,344.5" style="fill:rgb(155,180,190);"/>
                    <path d="M200.25,22.95L169.2,61.25L190.15,63.75C192.75,61.85 195.35,60.25 197.95,58.95C198.417,58.617 198.9,58.383 199.4,58.25C205.533,55.183 212.5,52.65 220.3,50.65C216.767,72.15 216.117,98.233 218.35,128.9L254.05,133.65L186.4,177.85L246.6,184.8C252.033,189.4 257.767,194.6 263.8,200.4L198.65,223.1L221.2,247.6L9.85,247.6L48.9,218.85C11.167,194.35 -20,184.3 -44.6,188.7C-37.733,159.833 -26.683,134.933 -11.45,114L-11.45,113.8L-4.7,104.75L-1.65,101.2C4.717,93.867 11.033,88.25 17.3,84.35L-24.55,77.4C-15.217,67.967 -4.45,62.883 7.75,62.15L21.95,0.6C31.75,6.733 40.383,13.65 47.85,21.35C50.083,1.817 58.367,-18.467 72.7,-39.5L93.95,14.25L115.1,15.3C119.467,13.667 123.967,12.367 128.6,11.4C154.6,6.333 178.483,10.183 200.25,22.95" style="fill:rgb(214,236,241);"/>
                    <path d="M190.15,63.75C192.75,61.85 195.35,60.25 197.95,58.95C198.417,58.617 198.9,58.383 199.4,58.25C195,45.95 195.283,34.183 200.25,22.95C178.483,10.183 154.6,6.333 128.6,11.4C123.967,12.367 119.467,13.667 115.1,15.3M72.7,-39.5C58.367,-18.467 50.083,1.817 47.85,21.35C40.383,13.65 31.75,6.733 21.95,0.6L7.75,62.15C-4.45,62.883 -15.217,67.967 -24.55,77.4C-18.75,83.433 -14.383,95.567 -11.45,113.8L-11.45,114C-26.683,134.933 -37.733,159.833 -44.6,188.7C-26.267,196.967 -15.983,203.933 -13.75,209.6C-18.117,216.367 -23.25,223.583 -29.15,231.25C-24.55,243.917 -14.033,256.517 2.4,269.05L2.75,269.4L13.6,277.25M-1.65,101.2L-4.7,104.75L-11.45,113.8M263.8,200.4C257.767,194.6 252.033,189.4 246.6,184.8C251.9,165.733 254.383,148.683 254.05,133.65L218.35,128.9C216.117,98.233 216.767,72.15 220.3,50.65C212.5,52.65 205.533,55.183 199.4,58.25M2.75,269.4C-2.45,289.533 -4.45,307.05 -3.25,321.95C3.617,321.483 10.65,319.167 17.85,315L14.5,332.95C23.467,344.883 41.15,352.283 67.55,355.15L64.15,344.5M67.55,355.15C81.15,386.483 95.167,404.983 109.6,410.65L131.95,389.35L132.5,407.1C150.333,404.033 165.417,389.783 177.75,364.35C189.917,368.25 201.917,367.367 213.75,361.7C206.783,351.533 204.533,340.3 207,328C215.633,321.967 227.767,320.783 243.4,324.45C243.967,296.15 243.317,274.967 241.45,260.9C251.717,239.133 259.167,218.967 263.8,200.4M128.6,11.4C103.733,-6.333 85.1,-23.3 72.7,-39.5" style="fill:none;fill-rule:nonzero;stroke:black;stroke-opacity:0.3;stroke-width:0.05px;"/>
                    <path d="M33.65,282C31.283,278.1 29.1,274.2 27.1,270.3C108,353.233 162.933,339.15 191.9,228.05L191.9,232.5C191.433,269.3 182.217,297.4 164.25,316.8C146.15,337.5 124.317,344.417 98.75,337.55C73.317,330.917 51.617,312.4 33.65,282" style="fill:rgb(171,222,210);fill-opacity:0.24;"/>
                    <path d="M19.7,82.4C41.233,59.8 67.317,52.167 97.95,59.5C128.717,67.767 154.567,88.467 175.5,121.6C197.033,155.567 207.683,193.833 207.45,236.4C206.85,278.167 195.733,310.05 174.1,332.05C152.433,355.717 126.283,363.583 95.65,355.65C65.017,348.317 39.05,327.317 17.75,292.65C-3.183,259.55 -13.483,222.167 -13.15,180.5C-12.883,138.167 -1.933,105.467 19.7,82.4" style="fill:rgb(155,180,190);"/>
                    <path d="M3,94.1C7.4,85.333 12.733,77.467 19,70.5C39.333,48.033 64,40.4 93,47.6C122.2,55.9 146.683,76.6 166.45,109.7C173.783,121.9 179.817,134.683 184.55,148.05C103.883,187.217 43.367,169.233 3,94.1" style="fill:rgb(129,154,148);"/>
                    <path d="M189.5,276C184.2,293.367 176.1,307.917 165.2,319.65C144.733,343.05 119.95,350.85 90.85,343.05C61.883,335.717 37.283,314.783 17.05,280.25C11.117,270.317 6.083,260.017 1.95,249.35C59.217,327.217 121.733,336.1 189.5,276" style="fill:rgb(62,88,89);"/>
                    <path d="M3,94.1C43.367,169.233 103.883,187.217 184.55,148.05C192.817,171.583 196.9,196.9 196.8,224C196.433,243.5 194,260.833 189.5,276C121.733,336.1 59.217,327.217 1.95,249.35C-7.617,224.283 -12.35,197.2 -12.25,168.1C-12.117,138.867 -7.033,114.2 3,94.1" style="fill:rgb(83,109,108);"/>
                    <path d="M184.55,148.05C179.817,134.683 173.783,121.9 166.45,109.7C146.683,76.6 122.2,55.9 93,47.6C64,40.4 39.333,48.033 19,70.5C12.733,77.467 7.4,85.333 3,94.1C-7.033,114.2 -12.117,138.867 -12.25,168.1C-12.35,197.2 -7.617,224.283 1.95,249.35C6.083,260.017 11.117,270.317 17.05,280.25C37.283,314.783 61.883,335.717 90.85,343.05C119.95,350.85 144.733,343.05 165.2,319.65C176.1,307.917 184.2,293.367 189.5,276C194,260.833 196.433,243.5 196.8,224C196.9,196.9 192.817,171.583 184.55,148.05Z" style="fill:none;fill-rule:nonzero;stroke:black;stroke-opacity:0.3;stroke-width:0.05px;"/>
                    <path d="M-2.65,176.8L-2.65,176.25C-2.55,147.15 4.667,124.617 19,108.65C32.967,93.15 49.933,87.95 69.9,93.05C90.033,98.717 106.95,112.9 120.65,135.6C134.617,159.033 141.6,185.417 141.6,214.75C141.5,219.617 141.267,224.3 140.9,228.8C86,227.267 38.15,209.933 -2.65,176.8" style="fill:rgb(157,126,41);"/>
                    <path d="M-2.65,176.8C38.15,209.933 86,227.267 140.9,228.8C138.533,250.8 131.5,268.067 119.8,280.6C105.6,296.933 88.5,302.317 68.5,296.75C48.633,291.65 31.65,277.217 17.55,253.45C4.083,230.85 -2.65,205.3 -2.65,176.8" style="fill:rgb(119,96,31);"/>
                    <path d="M140.9,228.8C141.267,224.3 141.5,219.617 141.6,214.75C141.6,185.417 134.617,159.033 120.65,135.6C106.95,112.9 90.033,98.717 69.9,93.05C49.933,87.95 32.967,93.15 19,108.65C4.667,124.617 -2.55,147.15 -2.65,176.25L-2.65,176.8C-2.65,205.3 4.083,230.85 17.55,253.45C31.65,277.217 48.633,291.65 68.5,296.75C88.5,302.317 105.6,296.933 119.8,280.6C131.5,268.067 138.533,250.8 140.9,228.8Z" style="fill:none;fill-rule:nonzero;stroke:black;stroke-opacity:0.2;stroke-width:0.05px;"/>
                    <path d="M6.9,158L13.5,157.25L6.9,158C9.533,145.567 14.517,135.15 21.85,126.75C33.55,114.083 47.383,109.95 63.35,114.35C80.017,118.717 93.8,130.183 104.7,148.75C115.567,167.783 121.067,188.9 121.2,212.1L121.2,214.25L130.8,228.25C77.2,224.817 30.583,205.833 -9.05,171.3L-14.9,160.45L6.9,158M116.6,207.5L121.2,214.25L116.6,207.5" style="fill:rgb(52,59,57);"/>
                    <path d="M-9.05,171.3C30.583,205.833 77.2,224.817 130.8,228.25L143.4,246.7L113.4,251.85L109.85,252.4L113.4,251.85C110.8,257.183 107.55,261.917 103.65,266.05C92.383,278.95 78.6,283.267 62.3,279C45.833,274.267 32.167,262.617 21.3,244.05C13.5,231.017 8.467,216.7 6.2,201.1C5.967,200.267 5.85,199.5 5.85,198.8L-9.05,171.3" style="fill:rgb(43,48,47);"/>
                    <path d="M13.5,157.25L6.9,158L-14.9,160.45L-9.05,171.3L5.85,198.8C5.85,199.5 5.967,200.267 6.2,201.1C8.467,216.7 13.5,231.017 21.3,244.05C32.167,262.617 45.833,274.267 62.3,279C78.6,283.267 92.383,278.95 103.65,266.05C107.55,261.917 110.8,257.183 113.4,251.85L143.4,246.7L130.8,228.25L121.2,214.25L116.6,207.5M121.2,214.25L121.2,212.1C121.067,188.9 115.567,167.783 104.7,148.75C93.8,130.183 80.017,118.717 63.35,114.35C47.383,109.95 33.55,114.083 21.85,126.75C14.517,135.15 9.533,145.567 6.9,158M109.85,252.4L113.4,251.85" style="fill:none;fill-rule:nonzero;stroke:black;stroke-opacity:0.3;stroke-width:0.05px;"/>
                    <path d="M11.2,183.25C11.267,165.783 15.617,152.217 24.25,142.55C32.883,132.917 43.333,129.7 55.6,132.9C68.1,136.1 78.55,144.767 86.95,158.9C95.617,173.3 99.817,189.233 99.55,206.7C99.217,224.8 94.733,238.7 86.1,248.4C77.767,258.333 67.367,261.7 54.9,258.5C42.533,255 32,246.05 23.3,231.65C14.867,217.217 10.833,201.083 11.2,183.25" style="fill:rgb(77,255,246);"/>
                    <path d="M11.2,183.25C10.833,201.083 14.867,217.217 23.3,231.65C32,246.05 42.533,255 54.9,258.5C67.367,261.7 77.767,258.333 86.1,248.4C94.733,238.7 99.217,224.8 99.55,206.7C99.817,189.233 95.617,173.3 86.95,158.9C78.55,144.767 68.1,136.1 55.6,132.9C43.333,129.7 32.883,132.917 24.25,142.55C15.617,152.217 11.267,165.783 11.2,183.25Z" style="fill:none;fill-rule:nonzero;stroke:black;stroke-opacity:0.3;stroke-width:0.05px;"/>
                    <path d="M18.5,185.85C18.533,172.417 21.867,161.983 28.5,154.55C35.133,147.117 43.167,144.65 52.6,147.15C62.233,149.583 70.267,156.25 76.7,167.15C83.367,178.217 86.617,190.467 86.45,203.9C86.183,217.833 82.733,228.517 76.1,235.95C69.7,243.55 61.7,246.15 52.1,243.75C42.567,241.017 34.467,234.117 27.8,223.05C21.3,211.95 18.2,199.55 18.5,185.85" style="fill:white;"/>
                    <path d="M101.7,107.95C89.133,95.983 76,89.533 62.3,88.6C82.533,76.767 88.15,62.983 79.15,47.25C98.783,49.017 114.4,55.533 126,66.8C97.133,63.6 89.033,77.317 101.7,107.95" style="fill:rgb(176,199,193);"/>
                </g>
            </g>
        </g>
    </g>
</svg>
