<?xml version="1.0" encoding="UTF-8" standalone="no"?>
<!DOCTYPE svg PUBLIC "-//W3C//DTD SVG 1.1//EN" "http://www.w3.org/Graphics/SVG/1.1/DTD/svg11.dtd">
<svg width="100%" height="100%" viewBox="0 0 17 37" version="1.1" xmlns="http://www.w3.org/2000/svg" xmlns:xlink="http://www.w3.org/1999/xlink" xml:space="preserve" xmlns:serif="http://www.serif.com/" style="fill-rule:evenodd;clip-rule:evenodd;stroke-linecap:round;stroke-linejoin:round;">
    <g transform="matrix(1,0,0,1,-16.975,-8.9)">
        <g transform="matrix(1,0,0,1,25.2,27.2)">
            <g id="sprite0">
                <g id="sprite1" transform="matrix(1,0,0,1,0.05,0)">
                    <g id="shape0">
                        <path d="M0.4,-14.85L0.9,-17.8C2.133,-17.067 3.167,-15.983 4,-14.55L3,-12.95L3.95,-13.45L4.45,-13.65L4.65,-13.4C5.483,-11.3 5.817,-9.067 5.65,-6.7L5.2,-6.9L3.65,-7.4L3.9,-5.25L3.95,-4.9L4.2,-2.8L4.65,0L5,2.2L5,2.4L5.1,2.75L5.35,3.4L5.25,3.65L5.5,4.9L6.1,7.55L6.25,8.05L6.95,10.1L7.75,11.5C7.083,12.633 6.333,13.517 5.5,14.15C4.667,14.75 3.733,15.117 2.7,15.25L2.25,15.25C0.117,15.117 -1.417,15.45 -2.35,16.25L-2.6,16.45C-3.367,17.217 -4.117,17.667 -4.85,17.8L-5.3,17.85C-6.167,17.85 -6.8,17.433 -7.2,16.6L-6.7,14.7L-6.25,12.15L-6.2,11.7L-5.8,8.7L-5.55,5.9L-5.5,5.7L-5.05,0.3L-4.95,-0.95C-5.617,-1.717 -6.2,-2.65 -6.7,-3.75L-6.8,-4.1L-5.65,-5.6L-7.15,-5.1C-7.65,-6.8 -7.85,-8.583 -7.75,-10.45L-5.55,-9.6L-5.3,-9.7L-3.7,-10.55L-3.35,-10.7L-3.95,-12.05L-4,-12.35L-3.9,-12.9L-3.45,-13.4L-3.25,-13.65L-2.45,-14.05L-1.95,-13.65L-1.5,-12.6L-1.15,-13L0.15,-14.55L0.4,-14.85" style="fill:#333;"/>
                        <path d="M0.4,-14.85L0.15,-14.55L-1.15,-13L-1.5,-12.6L-1.95,-13.65L-2.45,-14.05L-3.25,-13.65L-3.45,-13.4L-3.9,-12.9L-4,-12.35L-3.95,-12.05L-3.35,-10.7L-3.7,-10.55L-5.3,-9.7L-5.55,-9.6L-7.75,-10.45C-7.85,-8.583 -7.65,-6.8 -7.15,-5.1L-5.65,-5.6L-6.8,-4.1L-6.7,-3.75C-6.2,-2.65 -5.617,-1.717 -4.95,-0.95L-5.05,0.3L-5.5,5.7L-5.55,5.9L-5.8,8.7L-6.2,11.7L-6.25,12.15L-6.7,14.7L-7.2,16.6C-6.8,17.433 -6.167,17.85 -5.3,17.85L-4.85,17.8C-4.117,17.667 -3.367,17.217 -2.6,16.45L-2.35,16.25C-1.417,15.45 0.117,15.117 2.25,15.25L2.7,15.25C3.733,15.117 4.667,14.75 5.5,14.15C6.333,13.517 7.083,12.633 7.75,11.5L6.95,10.1L6.25,8.05L6.1,7.55L5.5,4.9L5.25,3.65L5.35,3.4L5.1,2.75L5,2.4L5,2.2L4.65,0L4.2,-2.8L3.95,-4.9L3.9,-5.25L3.65,-7.4L5.2,-6.9L5.65,-6.7C5.817,-9.067 5.483,-11.3 4.65,-13.4L4.45,-13.65L3.95,-13.45L3,-12.95L4,-14.55C3.167,-15.983 2.133,-17.067 0.9,-17.8L0.4,-14.85Z" style="fill:none;fill-rule:nonzero;stroke:#000;stroke-width:1px;"/>
                    </g>
                </g>
                <g id="sprite2" transform="matrix(1,0,0,1,0.05,0)">
                    <g id="shape1">
                        <path d="M-4.5,-7.3L-4.4,-9.45L2.95,-13.45L3,-12.85L3.35,-10L2.05,-9.8L1.1,-9.8L0.5,-9.75L-0.1,-9.65C-0.967,-9.483 -1.617,-9.167 -2.05,-8.7L-2.25,-8.6L-2.25,-8.55L-2.3,-8.5C-2.867,-7.967 -3.433,-7.6 -4,-7.4L-4.5,-7.3M3.6,-7.75L3.95,-4.9L2.1,-4.45L1.1,-4.45L0.5,-4.4L0.25,-4.35L-0.1,-4.3C-0.933,-4.133 -1.567,-3.833 -2,-3.4L-2.15,-3.3L-2.25,-3.25L-2.25,-3.2L-3.95,-2.1L-4.7,-1.95L-4.85,-1.9L-4.65,-4.95L-4.35,-5L-3.95,-5.05L-2.2,-5.95L-2.2,-6.05L-2.15,-6.1L-2.15,-3.3L-2.15,-6.1L-2.05,-6.2L-2.05,-6.25C-1.55,-6.617 -0.85,-6.867 0.05,-7L0.2,-7.05L0.5,-7.1L0.8,-7.1L1.6,-7.2L1.85,-7.2L3.6,-7.75M4.2,-2.8L4.65,0C4.05,0.367 3.417,0.617 2.75,0.75L2.05,0.85L1.1,0.85L0.65,0.9L0.5,0.9L-0.1,1C-0.933,1.133 -1.567,1.417 -2,1.85L-2.15,2L-2.25,2.05L-2.25,2.1C-2.85,2.667 -3.433,3.05 -4,3.25L-4.7,3.35L-5.3,3.3L-5.05,0.3L-4.35,0.3L-3.95,0.25L-2.2,-0.65L-2.2,-0.75L-2.15,-0.8L-2.15,2L-2.15,-0.8L-2.05,-0.9L-2.05,-0.95L-2,-0.95C-1.467,-1.35 -0.733,-1.617 0.2,-1.75L0.45,-1.8L0.8,-1.8L2.4,-2C3.033,-2.167 3.633,-2.433 4.2,-2.8M5,2.2L5,2.4L5.5,4.9C4.9,5.433 4.25,5.85 3.55,6.15L2.05,6.45L1.1,6.45L0.5,6.5C-0.667,6.633 -1.533,6.967 -2.1,7.5L-2.25,7.65L-2.2,5.15L-2.2,4.95L-2.2,5.15L-2.25,7.65L-2.25,7.7C-2.917,8.333 -3.567,8.733 -4.2,8.9L-4.7,8.95C-5.133,8.983 -5.5,8.9 -5.8,8.7L-5.55,5.9L-5.5,5.7L-5.1,5.85L-4.35,5.9L-4.1,5.9C-3.5,5.767 -2.867,5.45 -2.2,4.95L-2.2,4.85L-2.05,4.7L-2.05,4.65C-1.517,4.25 -0.767,3.983 0.2,3.85L0.2,4.1L0.5,6.5L0.2,4.1L0.2,3.85L0.5,3.8L0.95,3.8L1.6,3.7L3.1,3.35C3.733,3.117 4.3,2.767 4.8,2.3L5,2.2M6.1,7.55L6.25,8.05L6.95,10.1C6.317,10.9 5.617,11.517 4.85,11.95C4.05,12.35 3.183,12.567 2.25,12.6L1.2,12.6L0.85,9.85L1.2,12.6C-0.333,12.6 -1.483,12.9 -2.25,13.5L-2.6,13.8C-3.3,14.5 -3.967,14.933 -4.6,15.1L-5.3,15.2C-5.867,15.2 -6.333,15.033 -6.7,14.7L-6.25,12.15L-6.2,11.7L-5.8,11.9L-4.95,12L-4.4,11.95L-2.55,10.9L-2.35,10.75L-2.35,10.7L-2.15,10.6C-1.55,10.2 -0.667,9.95 0.5,9.85L0.85,9.85L1.7,9.8L1.75,9.8L4.15,9.15L5.3,8.35L6.1,7.55M-2.25,12.85L-2.35,10.75L-2.25,12.85" style="fill:#360b12;"/>
                        <path d="M-4.5,-7.3L-4,-7.4L-3.95,-5.05L-4.35,-5L-4.65,-4.95L-4.5,-7.3M-2.3,-8.5L-2.25,-8.55L-2.25,-8.6L-2.05,-8.7C-1.617,-9.167 -0.967,-9.483 -0.1,-9.65L0.05,-7C-0.85,-6.867 -1.55,-6.617 -2.05,-6.25L-2.05,-6.2L-2.15,-6.1C-2.15,-6.9 -2.2,-7.7 -2.3,-8.5M1.6,-9.8L2.05,-9.8L3.35,-10L3.6,-7.75L1.85,-7.2L1.6,-9.8M3.95,-4.9L4.2,-2.8C3.633,-2.433 3.033,-2.167 2.4,-2L2.1,-4.45L3.95,-4.9M4.65,0L5,2.2L4.8,2.3C4.3,2.767 3.733,3.117 3.1,3.35L2.75,0.75C3.417,0.617 4.05,0.367 4.65,0M5.5,4.9L6.1,7.55L5.3,8.35L4.15,9.15L3.55,6.15C4.25,5.85 4.9,5.433 5.5,4.9M6.95,10.1L7.75,11.5C7.083,12.633 6.333,13.517 5.5,14.15L4.85,11.95C5.617,11.517 6.317,10.9 6.95,10.1M2.7,15.25L2.25,15.25C0.117,15.117 -1.417,15.45 -2.35,16.25L-2.25,13.5C-1.483,12.9 -0.333,12.6 1.2,12.6L2.15,12.6L2.7,15.25M-4.85,17.8L-5.3,17.85C-6.167,17.85 -6.8,17.433 -7.2,16.6L-6.7,14.7C-6.333,15.033 -5.867,15.2 -5.3,15.2L-4.6,15.1L-4.85,17.8M-6.2,11.7L-5.8,8.7C-5.5,8.9 -5.133,8.983 -4.7,8.95L-4.2,8.9L-4.4,11.95L-4.95,12L-5.8,11.9L-6.2,11.7M-5.5,5.7L-5.3,3.3L-4.7,3.35L-4,3.25L-4.1,5.9L-4.35,5.9L-5.1,5.85L-5.5,5.7M-5.05,0.3L-4.85,-1.9L-4.7,-1.95L-3.95,-2.1L-3.95,0.25L-4.35,0.3L-5.05,0.3M-2.15,-3.3L-2,-3.4C-1.567,-3.833 -0.933,-4.133 -0.1,-4.3L0.25,-4.35L0.45,-1.8L0.2,-1.75C-0.733,-1.617 -1.467,-1.35 -2,-0.95L-2.05,-0.95L-2.05,-0.9L-2.15,-0.8L-2.15,-3.3M1.7,9.8L0.85,9.85L0.5,9.85C-0.667,9.95 -1.55,10.2 -2.15,10.6L-2.35,10.7L-2.25,7.7L-2.25,7.65L-2.1,7.5C-1.533,6.967 -0.667,6.633 0.5,6.5L0.85,9.75L0.85,9.85L0.85,9.75L0.5,6.5L1.1,6.45L1.25,6.45L1.7,9.8M-2.15,2L-2,1.85C-1.567,1.417 -0.933,1.133 -0.1,1L0.5,0.9L0.65,0.9L0.95,3.8L0.5,3.8L0.2,3.85C-0.767,3.983 -1.517,4.25 -2.05,4.65L-2.05,4.7L-2.2,4.85L-2.15,2M-0.1,1L0.2,3.85L-0.1,1M1.35,13.5L1.2,12.6L1.35,13.5" style="fill:#af0032;"/>
                        <path d="M-4,-7.4C-3.433,-7.6 -2.867,-7.967 -2.3,-8.5C-2.2,-7.7 -2.15,-6.9 -2.15,-6.1L-2.2,-6.05L-2.2,-5.95L-3.95,-5.05L-4,-7.4M-0.1,-9.65L0.5,-9.75L1.1,-9.8L1.6,-9.8L1.85,-7.2L1.6,-7.2L0.8,-7.1L0.5,-7.1L0.2,-7.05L0.05,-7L-0.1,-9.65M5.5,14.15C4.667,14.75 3.733,15.117 2.7,15.25L2.15,12.6L2.25,12.6C3.183,12.567 4.05,12.35 4.85,11.95L5.5,14.15M-2.35,16.25L-2.6,16.45C-3.367,17.217 -4.117,17.667 -4.85,17.8L-4.6,15.1C-3.967,14.933 -3.3,14.5 -2.6,13.8L-2.25,13.5L-2.35,16.25M-3.95,-2.1L-2.25,-3.2L-2.25,-3.25L-2.15,-3.3L-2.15,-0.8L-2.2,-0.75L-2.2,-0.65L-3.95,0.25L-3.95,-2.1M0.25,-4.35L0.5,-4.4L1.1,-4.45L2.1,-4.45L2.4,-2L0.8,-1.8L0.45,-1.8L0.25,-4.35M-4.1,5.9L-4,3.25C-3.433,3.05 -2.85,2.667 -2.25,2.1L-2.25,2.05L-2.15,2L-2.2,4.85L-2.2,4.95C-2.867,5.45 -3.5,5.767 -4.1,5.9M-4.4,11.95L-4.2,8.9C-3.567,8.733 -2.917,8.333 -2.25,7.7L-2.35,10.7L-2.35,10.75L-2.55,10.9L-4.4,11.95M4.15,9.15L1.75,9.8L1.7,9.8L1.25,6.45L2.05,6.45L3.55,6.15L4.15,9.15M0.65,0.9L1.1,0.85L2.05,0.85L2.75,0.75L3.1,3.35L1.6,3.7L0.95,3.8L0.65,0.9" style="fill:#51161c;"/>
                        <path d="M3.35,-10L3,-12.85L2.95,-13.45L-4.4,-9.45L-4.5,-7.3L-4.65,-4.95L-4.85,-1.9L-5.05,0.3L-5.5,5.7L-5.55,5.9L-5.8,8.7L-6.2,11.7L-6.25,12.15L-6.7,14.7L-7.2,16.6C-6.8,17.433 -6.167,17.85 -5.3,17.85L-4.85,17.8C-4.117,17.667 -3.367,17.217 -2.6,16.45L-2.35,16.25C-1.417,15.45 0.117,15.117 2.25,15.25L2.7,15.25C3.733,15.117 4.667,14.75 5.5,14.15C6.333,13.517 7.083,12.633 7.75,11.5L6.95,10.1L6.25,8.05L6.1,7.55L5.5,4.9L5,2.4L5,2.2L4.65,0L4.2,-2.8L3.95,-4.9L3.6,-7.75L3.35,-10M-2.15,-6.1C-2.15,-6.9 -2.2,-7.7 -2.3,-8.5M-2.15,-3.3L-2.15,-6.1M0.85,9.85L1.2,12.6L1.35,13.5M-2.15,-0.8L-2.15,-3.3M-2.15,2L-2.15,-0.8M-2.2,4.85L-2.15,2M0.2,3.85L-0.1,1M-2.2,4.95L-2.2,5.15L-2.25,7.65L-2.25,7.7L-2.35,10.7M0.5,6.5L0.2,4.1L0.2,3.85M0.85,9.85L0.85,9.75L0.5,6.5M-2.35,10.75L-2.25,12.85" style="fill:none;fill-rule:nonzero;stroke:#000;stroke-opacity:0.3;stroke-width:0.05px;"/>
                        <path d="M-4.4,-9.65L2.95,-13.45L3,-12.85L3.35,-10L3.6,-7.75L3.9,-5.25C0.8,-1.483 -2.117,-0.5 -4.85,-2.3L-4.65,-4.95L-4.5,-7.3L-4.4,-9.65" style="fill-opacity:0.3;"/>
                        <path d="M3.65,-14L3.05,-15C2.583,-15.8 1.833,-16.533 0.8,-17.2L0.9,-17.8C2.133,-17.067 3.167,-15.983 4,-14.55L3.65,-14M5.2,-6.9C5.3,-9 5.117,-10.633 4.65,-11.8L3.95,-13.45L4.45,-13.65L4.65,-13.4C5.483,-11.3 5.817,-9.067 5.65,-6.7L5.2,-6.9M3.5,-8.1C3.133,-10.467 2.2,-12.633 0.7,-14.6C2.7,-13.2 3.633,-11.033 3.5,-8.1" style="fill:#c6d8d5;"/>
                        <path d="M0.8,-17.2C1.833,-16.533 2.583,-15.8 3.05,-15L3.65,-14L3,-12.95L3.95,-13.45L4.65,-11.8C5.117,-10.633 5.3,-9 5.2,-6.9L3.3,-7.55L1.55,-6.7L-1.15,-13L0.15,-14.55L0.4,-14.85L0.8,-17.2M3.5,-8.1C3.633,-11.033 2.7,-13.2 0.7,-14.6C2.2,-12.633 3.133,-10.467 3.5,-8.1" style="fill:#a3b8b5;"/>
                        <path d="M-1.15,-13L1.55,-6.7L0.9,-6.25L-1.75,-12.4L-1.15,-13" style="fill:#7d918e;"/>
                        <path d="M3.65,-14L4,-14.55C3.167,-15.983 2.133,-17.067 0.9,-17.8L0.8,-17.2L0.4,-14.85L0.15,-14.55L-1.15,-13L-1.75,-12.4L0.9,-6.25L1.55,-6.7L3.3,-7.55L5.2,-6.9L5.65,-6.7C5.817,-9.067 5.483,-11.3 4.65,-13.4L4.45,-13.65L3.95,-13.45L3,-12.95L3.65,-14Z" style="fill:none;fill-rule:nonzero;stroke:#000;stroke-opacity:0.3;stroke-width:0.05px;"/>
                        <path d="M-3.7,-10.55L-3,-10.95L-0.35,-4.8L-1,-4.25L-3.7,-10.55" style="fill:#7d918e;"/>
                        <path d="M-1,-4.25L-2.35,-2.6L-2.85,0.05C-4.217,-0.85 -5.167,-1.85 -5.7,-2.95L-6.4,-4.6L-5.65,-5.6L-6.6,-5.25L-7,-6.45C-7.267,-7.383 -7.35,-8.65 -7.25,-10.25L-5.55,-9.6L-5.3,-9.7L-3.7,-10.55L-1,-4.25M-2.75,-2.55C-4.117,-4.117 -5.05,-6.283 -5.55,-9.05C-5.683,-5.983 -4.75,-3.817 -2.75,-2.55" style="fill:#a3b8b5;"/>
                        <path d="M-2.85,0.05L-3,0.65C-4.567,-0.25 -5.8,-1.717 -6.7,-3.75L-6.8,-4.1L-6.4,-4.6L-5.7,-2.95C-5.167,-1.85 -4.217,-0.85 -2.85,0.05M-6.6,-5.25L-7.15,-5.1C-7.65,-6.8 -7.85,-8.583 -7.75,-10.45L-7.25,-10.25C-7.35,-8.65 -7.267,-7.383 -7,-6.45L-6.6,-5.25M-2.75,-2.55C-4.75,-3.817 -5.683,-5.983 -5.55,-9.05C-5.05,-6.283 -4.117,-4.117 -2.75,-2.55" style="fill:#c6d8d5;"/>
                        <path d="M-3.7,-10.55L-3,-10.95L-0.35,-4.8L-1,-4.25L-2.35,-2.6L-2.85,0.05L-3,0.65C-4.567,-0.25 -5.8,-1.717 -6.7,-3.75L-6.8,-4.1L-6.4,-4.6L-5.65,-5.6L-6.6,-5.25L-7.15,-5.1C-7.65,-6.8 -7.85,-8.583 -7.75,-10.45L-7.25,-10.25L-5.55,-9.6L-5.3,-9.7L-3.7,-10.55Z" style="fill:none;fill-rule:nonzero;stroke:#000;stroke-opacity:0.3;stroke-width:0.05px;"/>
                        <path d="M-3.95,-12.05L-4,-12.35L-3.9,-12.9L-3.45,-13.4L-3.25,-13.65L-2.45,-14.05L-1.95,-13.65L-2.05,-12.95L-2.7,-12.1L-2.85,-12L-3.45,-11.85C-3.65,-11.783 -3.817,-11.85 -3.95,-12.05" style="fill:#856d44;"/>
                        <path d="M-2.85,-12L-2.7,-12.1L-2.05,-12.95L-1.95,-13.65L5.35,3.4C5.05,4.033 4.7,4.467 4.3,4.7L-2.85,-12" style="fill:#76603a;"/>
                        <path d="M-3.95,-12.05C-3.817,-11.85 -3.65,-11.783 -3.45,-11.85L-2.85,-12L4.3,4.7L3.35,4.95L-3.95,-12.05" style="fill:#544323;"/>
                        <path d="M-1.95,-13.65L-2.45,-14.05L-3.25,-13.65L-3.45,-13.4L-3.9,-12.9L-4,-12.35L-3.95,-12.05L3.35,4.95L4.3,4.7C4.7,4.467 5.05,4.033 5.35,3.4L-1.95,-13.65Z" style="fill:none;fill-rule:nonzero;stroke:#000;stroke-opacity:0.3;stroke-width:0.05px;"/>
                    </g>
                </g>
            </g>
        </g>
    </g>
</svg>
