<?xml version="1.0" encoding="UTF-8" standalone="no"?>
<!DOCTYPE svg PUBLIC "-//W3C//DTD SVG 1.1//EN" "http://www.w3.org/Graphics/SVG/1.1/DTD/svg11.dtd">
<svg width="100%" height="100%" viewBox="0 0 21 26" version="1.1" xmlns="http://www.w3.org/2000/svg" xmlns:xlink="http://www.w3.org/1999/xlink" xml:space="preserve" xmlns:serif="http://www.serif.com/" style="fill-rule:evenodd;clip-rule:evenodd;stroke-linecap:round;stroke-linejoin:round;">
    <g id="sprite0" transform="matrix(1,0,0,1,10.1,13)">
        <g>
            <g id="shape0">
                <path d="M4.9,-7.9L4.5,-6.9L3.15,-3.2L3.1,-3.05L2.85,-2.1L3.35,-1.45L3.65,-2.4L3.75,-2.55C4.117,-3.917 4.367,-5.317 4.5,-6.75C4.6,-4.217 5.35,-2.017 6.75,-0.15C7.283,0.583 7.933,1.267 8.7,1.9L9.35,1.9L9.35,2.05L8.8,2.1C8.467,3.267 8.367,4.4 8.5,5.5C8.633,6.3 8.867,7.067 9.2,7.8L9.6,8L9.4,8.15L8.85,7.95C7.55,8.55 6.583,9.4 5.95,10.5C5.683,10.9 5.483,11.35 5.35,11.85L5.55,12.3L5.2,12.5L4.2,10.9L4.1,10.7L3.6,9.85L3.2,10.25C2.433,10.95 1.583,11.383 0.65,11.55L-0.25,11.6L-1.5,11.5C-2.867,11.2 -4.083,10.5 -5.15,9.4L-6.2,8.15L-6.7,7.4L-6.95,7.7L-7,7.75L-7.2,7.3L-7.15,7.15L-7.05,7L-7.1,6.6C-7.667,5.433 -7.983,4.217 -8.05,2.95L-8.1,2.85L-9.15,0.4L-9.5,0.25L-9.6,-0.05L-9.4,0L-9.2,-0.45C-8.8,-1.583 -8.733,-3.217 -9,-5.35L-9.35,-5.85L-9.35,-6L-8.95,-5.5L-8.35,-5.65C-7.017,-6.25 -6.283,-8.033 -6.15,-11C-6.083,-8.7 -5.817,-6.283 -5.35,-3.75L-5.05,-4L-6.15,-11.15L-6.4,-12.5L-6.2,-12.25L-4.55,-4.25L-2.5,-4.7L-1.2,-4.55L-0.35,-4.35C0.55,-4.017 1.383,-3.5 2.15,-2.8L2.5,-3.65L2.55,-3.8C3.15,-5.167 3.85,-6.533 4.65,-7.9L4.9,-7.9M-6.75,-2.35L-9,-5.35C-8.467,-4.283 -7.8,-3.183 -7,-2.05L-6.75,-2.35M-6.4,-2.8C-7.133,-3.767 -7.983,-4.667 -8.95,-5.5L-6.55,-2.6L-6.4,-2.8M8.7,1.9L5.9,1.5L5.75,1.5L4.9,1.45L5.05,1.9L8.7,1.9M-7.05,7L-6.95,6.85L-7,6.85L-7.05,7M-9.35,0L-7.95,0.35L-7.8,-0.2L-9.35,0M-9.15,0.4L-8.05,1.3L-8.05,1L-9.15,0.4M6.25,2.85L8.8,2.1L5.2,2.45L5.3,3L6.1,2.9L6.25,2.85M6.4,5.45L6.2,5.35L5.4,4.85L5.4,4.8L5.4,5.55L9.15,7.75C8.483,7.017 7.567,6.25 6.4,5.45M5.15,6.85L6,7.15L6.15,7.2L8.85,7.95L5.25,6.35L5.15,6.85M5.35,11.85L4.8,10.2L4.75,9.95L4.35,8.85L4.15,9.2L5.35,11.85" style="fill:rgb(40,10,2);"/>
                <path d="M4.9,-7.9L4.5,-6.9L3.15,-3.2L3.1,-3.05L2.85,-2.1L3.35,-1.45L3.65,-2.4L3.75,-2.55C4.117,-3.917 4.367,-5.317 4.5,-6.75C4.6,-4.217 5.35,-2.017 6.75,-0.15C7.283,0.583 7.933,1.267 8.7,1.9L9.35,1.9L9.35,2.05L8.8,2.1C8.467,3.267 8.367,4.4 8.5,5.5C8.633,6.3 8.867,7.067 9.2,7.8L9.6,8L9.4,8.15L8.85,7.95C7.55,8.55 6.583,9.4 5.95,10.5C5.683,10.9 5.483,11.35 5.35,11.85L5.55,12.3L5.2,12.5L4.2,10.9L4.1,10.7L3.6,9.85L3.2,10.25C2.433,10.95 1.583,11.383 0.65,11.55L-0.25,11.6L-1.5,11.5C-2.867,11.2 -4.083,10.5 -5.15,9.4L-6.2,8.15L-6.7,7.4L-6.95,7.7L-7,7.75L-7.2,7.3L-7.15,7.15L-7.05,7L-7.1,6.6C-7.667,5.433 -7.983,4.217 -8.05,2.95L-8.1,2.85L-9.15,0.4L-9.5,0.25L-9.6,-0.05L-9.4,0L-9.2,-0.45C-8.8,-1.583 -8.733,-3.217 -9,-5.35L-9.35,-5.85L-9.35,-6L-8.95,-5.5L-8.35,-5.65C-7.017,-6.25 -6.283,-8.033 -6.15,-11C-6.083,-8.7 -5.817,-6.283 -5.35,-3.75L-5.05,-4L-6.15,-11.15L-6.4,-12.5L-6.2,-12.25L-4.55,-4.25L-2.5,-4.7L-1.2,-4.55L-0.35,-4.35C0.55,-4.017 1.383,-3.5 2.15,-2.8L2.5,-3.65L2.55,-3.8C3.15,-5.167 3.85,-6.533 4.65,-7.9L4.9,-7.9M-6.75,-2.35L-9,-5.35C-8.467,-4.283 -7.8,-3.183 -7,-2.05L-6.75,-2.35M-6.4,-2.8C-7.133,-3.767 -7.983,-4.667 -8.95,-5.5L-6.55,-2.6L-6.4,-2.8M-9.15,0.4L-8.05,1L-8.05,1.3L-9.15,0.4M-9.35,0L-7.8,-0.2L-7.95,0.35L-9.35,0M-7.05,7L-7,6.85L-6.95,6.85L-7.05,7M8.7,1.9L5.05,1.9L4.9,1.45L5.75,1.5L5.9,1.5L8.7,1.9M6.25,2.85L8.8,2.1L5.2,2.45L5.3,3L6.1,2.9L6.25,2.85M6.4,5.45C7.567,6.25 8.483,7.017 9.15,7.75L5.4,5.55L5.4,4.8L5.4,4.85L6.2,5.35L6.4,5.45M5.15,6.85L6,7.15L6.15,7.2L8.85,7.95L5.25,6.35L5.15,6.85M5.35,11.85L4.15,9.2L4.35,8.85L4.75,9.95L4.8,10.2L5.35,11.85Z" style="fill:none;fill-rule:nonzero;stroke:rgb(40,10,2);stroke-width:1px;"/>
            </g>
            <g id="sprite1" transform="matrix(0.0498,0,0,0.0497,-8.4505,-6.99642)">
                <g id="shape1">
                    <path d="M71.5,88.95L71,84.4C65.1,33.233 56.833,-22.883 46.2,-83.95C44.6,-92.75 43.05,-101.567 41.55,-110.4L45.4,-105.7C60,-41.967 71.967,18.883 81.3,76.85L81.95,81.05C78.417,83.417 74.933,86.05 71.5,88.95M30.1,296.45L29.3,297.25L24.8,287.75L26.25,284.85C27.417,288.717 28.7,292.583 30.1,296.45M-14.5,149.45L-21.1,146.25L-23.5,139.95L-18.65,141.25L-18.35,141.25L27.2,153C26.033,156.133 24.967,159.417 24,162.85L22.7,167.8L-14.5,149.45M-11.1,32.9L-18.2,22.95L-18.2,20.05L-9.8,30.35L-11.1,32.9L-9.8,30.35L53.15,107.1C51.417,109.033 49.8,111.083 48.3,113.25L-11.1,32.9M219.65,67.55L220.95,64.3C233.083,36.733 246.933,9.317 262.5,-17.95L268.45,-17.95L260.25,2C250.05,27.333 241.033,52.083 233.2,76.25L232.05,79.75C227.983,75.35 223.85,71.283 219.65,67.55M344.1,179.4L357.65,179.4L357.65,182.3L345.9,183.3L289.55,187.95L287.45,179.4L344.1,179.4M354.25,297.6L362.3,302.25L357.95,305.3L347.65,300.8L291.6,275.85L293.55,261.55L353.75,297.25L354.25,297.6M277.15,379.7L281.3,388.7L274.25,392.55C267.383,381.717 260.717,370.933 254.25,360.2L252.2,356.65L261.5,346.05L277.15,379.7" style="fill:rgb(118,105,63);"/>
                    <path d="M27.7,282.1C25.433,264.933 21.95,247.767 17.25,230.6L13.7,218.85C11.533,211.983 9.217,205.167 6.75,198.4L14.65,197.6C15.283,189.667 16.35,182.05 17.85,174.75L20.75,176.85C28.817,182.217 36.45,186.667 43.65,190.2L46.05,191.3C52.283,194.1 58.183,196.2 63.75,197.6C57.117,202.767 50.25,214.467 43.15,232.7L40.9,238.65C36.6,250.683 32.2,265.167 27.7,282.1M-18.65,141.25C-17.15,138.25 -15.817,134.983 -14.65,131.45C1.35,127.25 17.933,125.75 35.1,126.95C37.033,123.383 39.133,120 41.4,116.8L43.65,119.85C49.75,128.117 56.183,136.433 62.95,144.8L64.9,147.2L69.85,153.35L62.8,150.45C61.833,150.017 60.867,149.633 59.9,149.3C49.9,145.433 40.717,142.383 32.35,140.15L29,139.3C8.267,134.5 -7.517,135.15 -18.35,141.25L-18.65,141.25M-9.8,30.35C-5.533,29.683 -1.517,28.5 2.25,26.8C24.15,44.4 45.517,65 66.35,88.6L67.15,92.8C69.617,105.233 72.3,117.85 75.2,130.65L76,134L76.3,135.45L75.65,134.35L74.2,131.75C68.633,122.083 62.683,112.7 56.35,103.6L54.1,100.5C36.267,75.6 14.967,52.217 -9.8,30.35M305,137.7C316.033,152.633 329.067,166.533 344.1,179.4C324.133,175.333 305.567,172.65 288.4,171.35L285,171.2C268.5,170.133 253.317,170.4 239.45,172L237.05,172.35C225.683,173.75 215.217,176.1 205.65,179.4C212.217,168.033 218.167,156.5 223.5,144.8L224.65,142.4C231.85,126.2 238.083,109.667 243.35,92.8L244.45,89.25C247.883,93.45 251.217,97.917 254.45,102.65C260.983,111.85 266.767,121.283 271.8,130.95C274.7,136.65 277.45,142.4 280.05,148.2L305,137.7M340.55,251.55C342.717,267.417 347.283,282.767 354.25,297.6L353.75,297.25C340.117,282.25 321.45,266.85 297.75,251.05L294.35,248.8C281.383,240.233 266.9,231.6 250.9,222.9L248.65,221.75C238.117,216.083 227,210.35 215.3,204.55C226.033,204.65 236.333,204.433 246.2,203.9L248.5,203.9C263.933,203.033 278.3,201.467 291.6,199.2L294.7,198.75C295.667,204.217 296.417,209.733 296.95,215.3L297.75,226.25L340.55,251.55M288.9,352C283.967,360.467 280.05,369.7 277.15,379.7C273.483,367.667 269.883,356.4 266.35,345.9L264.9,341.55C257.7,320.717 250.617,303 243.65,288.4L242.05,285.2C235.817,272.633 229.633,262.483 223.5,254.75C230.8,259.15 238.533,263.333 246.7,267.3L248.8,268.45C261.467,274.45 275.15,279.983 289.85,285.05L293.05,286C291.25,294.367 288.85,302.367 285.85,310C284.45,313.733 282.883,317.383 281.15,320.95L288.9,352" style="fill:rgb(191,172,126);"/>
                    <path d="M6.75,198.4C0.75,182.1 -6.333,165.783 -14.5,149.45C-3,159.35 7.783,167.783 17.85,174.75C16.35,182.05 15.283,189.667 14.65,197.6L6.75,198.4M-14.65,131.45C-7.017,108.583 -5.833,75.733 -11.1,32.9C2.633,59.967 20.133,87.933 41.4,116.8C39.133,120 37.033,123.383 35.1,126.95C17.933,125.75 1.35,127.25 -14.65,131.45M2.25,26.8C28.55,15.1 43.15,-20.75 46.05,-80.75C47.75,-27.717 54.517,28.733 66.35,88.6C45.517,65 24.15,44.4 2.25,26.8M260.4,5.25C262.233,55.883 277.1,100.033 305,137.7L280.05,148.2C277.45,142.4 274.7,136.65 271.8,130.95C266.767,121.283 260.983,111.85 254.45,102.65C251.217,97.917 247.883,93.45 244.45,89.25C252.383,62.117 257.7,34.117 260.4,5.25M345.9,183.3C339.433,207 337.65,229.75 340.55,251.55L297.75,226.25L296.95,215.3C296.417,209.733 295.667,204.217 294.7,198.75C314.333,195.217 331.4,190.067 345.9,183.3M347.65,300.8C321.15,312.833 301.567,329.9 288.9,352L281.15,320.95C282.883,317.383 284.45,313.733 285.85,310C288.85,302.367 291.25,294.367 293.05,286C309.917,291.567 328.117,296.5 347.65,300.8" style="fill:rgb(217,207,176);"/>
                    <path d="M71.5,88.95C74.933,86.05 78.417,83.417 81.95,81.05L87.9,119.85L88.4,123.2L92.9,158.65L86.6,199.2C75.667,224.967 63.117,248.683 48.95,270.35L47,273.1C41.533,281.167 35.9,288.95 30.1,296.45C28.7,292.583 27.417,288.717 26.25,284.85L27.7,282.1L63.6,207.1L63.9,188.1L22.7,167.8L24,162.85C24.967,159.417 26.033,156.133 27.2,153L69.7,163.95L69.85,153.35L70.05,142.7L48.3,113.25C49.8,111.083 51.417,109.033 53.15,107.1L76.3,135.45L76.15,133.85L75.85,130L71.5,88.95M252.2,356.65C244.233,343.15 236.6,329.683 229.3,316.25L227.85,313.55C212.717,285.317 199.2,257.133 187.3,229L179.25,182.3C185.25,159.567 192.433,136.867 200.8,114.2C201.033,113.467 201.317,112.717 201.65,111.95C207.117,97.05 213.117,82.25 219.65,67.55C223.85,71.283 227.983,75.35 232.05,79.75C226.35,97.05 221.3,114.067 216.9,130.8L216.3,133.7C212.2,149.167 208.65,164.4 205.65,179.4L287.45,179.4L289.55,187.95L215.3,193.9L215.3,215.15L293.55,261.55L291.6,275.85L223.5,245.25L223.5,264.25L261.5,346.05L252.2,356.65" style="fill:rgb(75,66,38);"/>
                    <path d="M81.95,81.05L81.3,76.85C71.967,18.883 60,-41.967 45.4,-105.7L41.55,-110.4C43.05,-101.567 44.6,-92.75 46.2,-83.95C56.833,-22.883 65.1,33.233 71,84.4L71.5,88.95L75.85,130L76.15,133.85L76.3,135.45L53.15,107.1L-9.8,30.35C-5.533,29.683 -1.517,28.5 2.25,26.8C28.55,15.1 43.15,-20.75 46.05,-80.75L46.2,-83.95M81.95,81.05L87.9,119.85L88.4,123.2L92.9,158.65L86.6,199.2C75.667,224.967 63.117,248.683 48.95,270.35L47,273.1C41.533,281.167 35.9,288.95 30.1,296.45L29.3,297.25L24.8,287.75L26.25,284.85L27.7,282.1C25.433,264.933 21.95,247.767 17.25,230.6L13.7,218.85C11.533,211.983 9.217,205.167 6.75,198.4C0.75,182.1 -6.333,165.783 -14.5,149.45L-21.1,146.25L-23.5,139.95L-18.65,141.25C-17.15,138.25 -15.817,134.983 -14.65,131.45C-7.017,108.583 -5.833,75.733 -11.1,32.9L-18.2,22.95L-18.2,20.05L-9.8,30.35C14.967,52.217 36.267,75.6 54.1,100.5L56.35,103.6C62.683,112.7 68.633,122.083 74.2,131.75L75.65,134.35L76.3,135.45L76,134L75.2,130.65C72.3,117.85 69.617,105.233 67.15,92.8L66.35,88.6C54.517,28.733 47.75,-27.717 46.05,-80.75M219.65,67.55L220.95,64.3C233.083,36.733 246.933,9.317 262.5,-17.95L268.45,-17.95L260.25,2L260.4,5.25C262.233,55.883 277.1,100.033 305,137.7C316.033,152.633 329.067,166.533 344.1,179.4L357.65,179.4L357.65,182.3L345.9,183.3C339.433,207 337.65,229.75 340.55,251.55C342.717,267.417 347.283,282.767 354.25,297.6L362.3,302.25L357.95,305.3L347.65,300.8C321.15,312.833 301.567,329.9 288.9,352C283.967,360.467 280.05,369.7 277.15,379.7L281.3,388.7L274.25,392.55C267.383,381.717 260.717,370.933 254.25,360.2L252.2,356.65C244.233,343.15 236.6,329.683 229.3,316.25L227.85,313.55C212.717,285.317 199.2,257.133 187.3,229L179.25,182.3C185.25,159.567 192.433,136.867 200.8,114.2C201.033,113.467 201.317,112.717 201.65,111.95C207.117,97.05 213.117,82.25 219.65,67.55M232.05,79.75L233.2,76.25C241.033,52.083 250.05,27.333 260.25,2M353.75,297.25L354.25,297.6M244.45,89.25L243.35,92.8C238.083,109.667 231.85,126.2 224.65,142.4L223.5,144.8C218.167,156.5 212.217,168.033 205.65,179.4C215.217,176.1 225.683,173.75 237.05,172.35L239.45,172C253.317,170.4 268.5,170.133 285,171.2L288.4,171.35C305.567,172.65 324.133,175.333 344.1,179.4L205.65,179.4C208.65,164.4 212.2,149.167 216.3,133.7L216.9,130.8C221.3,114.067 226.35,97.05 232.05,79.75M289.55,187.95L345.9,183.3C331.4,190.067 314.333,195.217 294.7,198.75L291.6,199.2C278.3,201.467 263.933,203.033 248.5,203.9L246.2,203.9C236.333,204.433 226.033,204.65 215.3,204.55C227,210.35 238.117,216.083 248.65,221.75L250.9,222.9C266.9,231.6 281.383,240.233 294.35,248.8L297.75,251.05C321.45,266.85 340.117,282.25 353.75,297.25L293.55,261.55L215.3,215.15L215.3,193.9L289.55,187.95M260.4,5.25C257.7,34.117 252.383,62.117 244.45,89.25M-18.35,141.25C-7.517,135.15 8.267,134.5 29,139.3L32.35,140.15C40.717,142.383 49.9,145.433 59.9,149.3C60.867,149.633 61.833,150.017 62.8,150.45L69.85,153.35L64.9,147.2L62.95,144.8C56.183,136.433 49.75,128.117 43.65,119.85L41.4,116.8C20.133,87.933 2.633,59.967 -11.1,32.9L48.3,113.25L70.05,142.7L69.85,153.35L69.7,163.95L27.2,153L-18.35,141.25L-18.65,141.25M22.7,167.8L63.9,188.1L63.6,207.1L27.7,282.1C32.2,265.167 36.6,250.683 40.9,238.65L43.15,232.7C50.25,214.467 57.117,202.767 63.75,197.6C58.183,196.2 52.283,194.1 46.05,191.3L43.65,190.2C36.45,186.667 28.817,182.217 20.75,176.85L17.85,174.75C7.783,167.783 -3,159.35 -14.5,149.45L22.7,167.8M291.6,275.85L347.65,300.8C328.117,296.5 309.917,291.567 293.05,286L289.85,285.05C275.15,279.983 261.467,274.45 248.8,268.45L246.7,267.3C238.533,263.333 230.8,259.15 223.5,254.75C229.633,262.483 235.817,272.633 242.05,285.2L243.65,288.4C250.617,303 257.7,320.717 264.9,341.55L266.35,345.9C269.883,356.4 273.483,367.667 277.15,379.7L261.5,346.05L223.5,264.25L223.5,245.25L291.6,275.85M-9.8,30.35L-11.1,32.9" style="fill:none;fill-rule:nonzero;stroke:black;stroke-opacity:0.3;stroke-width:0.05px;"/>
                    <path d="M271.5,182.15L271.35,182.15C260.383,165.417 249.533,149.65 238.8,134.85C227.433,119.15 215.05,106.05 201.65,95.55C188.117,84.817 173.517,76.717 157.85,71.25C155.383,70.383 152.917,69.633 150.45,69C151.183,67.6 151.983,66.25 152.85,64.95C155.517,60.65 158.783,56.95 162.65,53.85C158.783,56.95 155.517,60.65 152.85,64.95C151.983,66.25 151.183,67.6 150.45,69L139.65,66.1C130.417,63.933 121.717,62.9 113.55,63C102.083,62.8 91.2,64.317 80.9,67.55C65.867,72.15 52.017,80.3 39.35,92C33.883,96.933 28.95,102.25 24.55,107.95C30.883,96.15 38.883,85.633 48.55,76.4C69.15,56.2 92.917,46.1 119.85,46.1C127.883,46.1 136.3,47.067 145.1,49C151.033,50.2 156.883,51.817 162.65,53.85C192.517,64.25 218.383,85.017 240.25,116.15C245.95,124.217 251,132.483 255.4,140.95C262.267,154.15 267.633,167.883 271.5,182.15" style="fill:rgb(227,199,138);"/>
                    <path d="M150.45,69C152.917,69.633 155.383,70.383 157.85,71.25C173.517,76.717 188.117,84.817 201.65,95.55C215.05,106.05 227.433,119.15 238.8,134.85C249.533,149.65 260.383,165.417 271.35,182.15L271.5,182.15C274.3,192.683 276.233,203.467 277.3,214.5L274.1,213.05C271.3,211.983 268.55,211.183 265.85,210.65L251.55,210.15C246.483,210.917 241.483,212.583 236.55,215.15C241.483,212.583 246.483,210.917 251.55,210.15L265.85,210.65C268.55,211.183 271.3,211.983 274.1,213.05L277.3,214.5C277.833,221.267 278.1,228.083 278.1,234.95L277.45,236.1C264.483,271.833 243.983,300.117 215.95,320.95C212.517,323.517 209.033,325.817 205.5,327.85C194.533,334.083 183,337.85 170.9,339.15C165.2,339.683 159.35,339.783 153.35,339.45L146.9,338.65L150.25,338.8C161.75,339.033 172.6,336.933 182.8,332.5C190.967,328.767 198.7,323.567 206,316.9L208.25,314.8L213.2,318.5C214.167,319.267 215.083,320.083 215.95,320.95C215.083,320.083 214.167,319.267 213.2,318.5L208.25,314.8C218.017,304.733 225.367,292.933 230.3,279.4L231.1,277.45L233.65,268.6C236.25,258.2 237.55,246.933 237.55,234.8C237.55,228.133 237.217,221.583 236.55,215.15C233.35,188.017 223.433,162.9 206.8,139.8C188.633,114.6 167.383,98.3 143.05,90.9C139.817,89.8 136.533,88.933 133.2,88.3C126.567,86.8 120.233,86.1 114.2,86.2C94.033,86.2 76.333,93.717 61.1,108.75C52.167,117.35 45.233,127.283 40.3,138.55C38.5,134.983 36.367,131.967 33.9,129.5C29.6,125.333 24.333,122.817 18.1,121.95C24.333,122.817 29.6,125.333 33.9,129.5C36.367,131.967 38.5,134.983 40.3,138.55C37.1,145.517 34.683,153.083 33.05,161.25C32.217,165.417 31.583,169.817 31.15,174.45C30.717,178.85 30.45,183.4 30.35,188.1C29.817,221.7 39.25,252.883 58.65,281.65C63.483,288.75 68.583,295.25 73.95,301.15C69.55,296.95 65.367,292.433 61.4,287.6C54.733,279.567 48.567,270.767 42.9,261.2C37.633,252.3 33.017,243.233 29.05,234C16.817,205.133 11.45,174.967 12.95,143.5L13.45,135.8C14.717,130.967 16.267,126.35 18.1,121.95C20.033,117.017 22.183,112.35 24.55,107.95C28.95,102.25 33.883,96.933 39.35,92C52.017,80.3 65.867,72.15 80.9,67.55C91.2,64.317 102.083,62.8 113.55,63C121.717,62.9 130.417,63.933 139.65,66.1L150.45,69C147.017,75.2 144.55,82.5 143.05,90.9C144.55,82.5 147.017,75.2 150.45,69" style="fill:rgb(215,177,94);"/>
                    <path d="M40.3,138.55C45.233,127.283 52.167,117.35 61.1,108.75C76.333,93.717 94.033,86.2 114.2,86.2C120.233,86.1 126.567,86.8 133.2,88.3C136.533,88.933 139.817,89.8 143.05,90.9C167.383,98.3 188.633,114.6 206.8,139.8C223.433,162.9 233.35,188.017 236.55,215.15C237.217,221.583 237.55,228.133 237.55,234.8C237.55,246.933 236.25,258.2 233.65,268.6L231.1,277.45C232.8,268.55 233.65,259.05 233.65,248.95C233.65,242.317 233.333,235.783 232.7,229.35C229.467,202.183 219.533,177.067 202.9,154C184.767,128.767 163.517,112.45 139.15,105.05C135.95,103.983 132.683,103.117 129.35,102.45C122.683,100.95 116.35,100.25 110.35,100.35C90.183,100.35 72.467,107.867 57.2,122.9C48.3,131.5 41.383,141.433 36.45,152.7C35.15,155.5 34.017,158.35 33.05,161.25C34.683,153.083 37.1,145.517 40.3,138.55M81.7,308.85L73.95,301.15C68.583,295.25 63.483,288.75 58.65,281.65C39.25,252.883 29.817,221.7 30.35,188.1C30.45,183.4 30.717,178.85 31.15,174.45C31.583,179.683 32.333,184.883 33.4,190.05C37.467,211.717 46.583,232.533 60.75,252.5C65.917,259.7 71.4,266.35 77.2,272.45L78.3,273.6C80.467,275.967 82.783,278.267 85.25,280.5C100.917,294.367 118.467,303.867 137.9,309C143.667,310.4 149.35,311.483 154.95,312.25L158.5,312.4C170.833,312.933 182.417,311.167 193.25,307.1C201.85,303.567 210.067,298.567 217.9,292.1L220.3,290.2L221.6,288.9C224.4,286.1 227.133,283.15 229.8,280.05L230.3,279.4C225.367,292.933 218.017,304.733 208.25,314.8L206,316.9C198.7,323.567 190.967,328.767 182.8,332.5C172.6,336.933 161.75,339.033 150.25,338.8L146.9,338.65C141.733,338.117 136.417,337.2 130.95,335.9C112.717,331.4 96.3,322.383 81.7,308.85" style="fill:rgb(73,64,36);"/>
                    <path d="M13.45,135.8L12.95,143.5C11.45,174.967 16.817,205.133 29.05,234C33.017,243.233 37.633,252.3 42.9,261.2C48.567,270.767 54.733,279.567 61.4,287.6C65.367,292.433 69.55,296.95 73.95,301.15L81.7,308.85C96.3,322.383 112.717,331.4 130.95,335.9C136.417,337.2 141.733,338.117 146.9,338.65L153.35,339.45C159.35,339.783 165.2,339.683 170.9,339.15C183,337.85 194.533,334.083 205.5,327.85C209.033,325.817 212.517,323.517 215.95,320.95C243.983,300.117 264.483,271.833 277.45,236.1L277.95,244.8C277.517,253.067 276.65,261 275.35,268.6C273.65,278.7 271.083,288.2 267.65,297.1C260.65,315.333 250.233,331.167 236.4,344.6L233.85,346.85C218.383,360.917 201.367,369.667 182.8,373.1C176.9,374.167 170.833,374.7 164.6,374.7C156.567,374.6 148.3,373.75 139.8,372.15C111.9,366.117 87.267,352.217 65.9,330.45C58.5,322.817 51.467,314.217 44.8,304.65C18.833,267.65 6.233,226.867 7,182.3C7.3,165.467 9.45,149.967 13.45,135.8M81.7,308.85C77.3,310.883 73.817,313.467 71.25,316.6C68.117,320.333 66.333,324.95 65.9,330.45C66.333,324.95 68.117,320.333 71.25,316.6C73.817,313.467 77.3,310.883 81.7,308.85M233.85,346.85C229.55,336.65 223.583,328.017 215.95,320.95C223.583,328.017 229.55,336.65 233.85,346.85" style="fill:rgb(163,122,78);"/>
                    <path d="M31.15,174.45C31.583,169.817 32.217,165.417 33.05,161.25C34.017,158.35 35.15,155.5 36.45,152.7C41.383,141.433 48.3,131.5 57.2,122.9C72.467,107.867 90.183,100.35 110.35,100.35C116.35,100.25 122.683,100.95 129.35,102.45C132.683,103.117 135.95,103.983 139.15,105.05C163.517,112.45 184.767,128.767 202.9,154C219.533,177.067 229.467,202.183 232.7,229.35C233.333,235.783 233.65,242.317 233.65,248.95C233.65,259.05 232.8,268.55 231.1,277.45L230.3,279.4L229.8,280.05C227.133,283.15 224.4,286.1 221.6,288.9L220.3,290.2L217.9,292.1C210.067,298.567 201.85,303.567 193.25,307.1C182.417,311.167 170.833,312.933 158.5,312.4L154.95,312.25C149.35,311.483 143.667,310.4 137.9,309C118.467,303.867 100.917,294.367 85.25,280.5C82.783,278.267 80.467,275.967 78.3,273.6L77.2,272.45C71.4,266.35 65.917,259.7 60.75,252.5C46.583,232.533 37.467,211.717 33.4,190.05C32.333,184.883 31.583,179.683 31.15,174.45" style="fill:rgb(118,105,63);"/>
                    <path d="M271.5,182.15C267.633,167.883 262.267,154.15 255.4,140.95C251,132.483 245.95,124.217 240.25,116.15C218.383,85.017 192.517,64.25 162.65,53.85C158.783,56.95 155.517,60.65 152.85,64.95C151.983,66.25 151.183,67.6 150.45,69C147.017,75.2 144.55,82.5 143.05,90.9C139.817,89.8 136.533,88.933 133.2,88.3C126.567,86.8 120.233,86.1 114.2,86.2C94.033,86.2 76.333,93.717 61.1,108.75C52.167,117.35 45.233,127.283 40.3,138.55C38.5,134.983 36.367,131.967 33.9,129.5C29.6,125.333 24.333,122.817 18.1,121.95C20.033,117.017 22.183,112.35 24.55,107.95C30.883,96.15 38.883,85.633 48.55,76.4C69.15,56.2 92.917,46.1 119.85,46.1C127.883,46.1 136.3,47.067 145.1,49C151.033,50.2 156.883,51.817 162.65,53.85M13.45,135.8C9.45,149.967 7.3,165.467 7,182.3C6.233,226.867 18.833,267.65 44.8,304.65C51.467,314.217 58.5,322.817 65.9,330.45C66.333,324.95 68.117,320.333 71.25,316.6C73.817,313.467 77.3,310.883 81.7,308.85L73.95,301.15C68.583,295.25 63.483,288.75 58.65,281.65C39.25,252.883 29.817,221.7 30.35,188.1C30.45,183.4 30.717,178.85 31.15,174.45C31.583,169.817 32.217,165.417 33.05,161.25C34.683,153.083 37.1,145.517 40.3,138.55M13.45,135.8C14.717,130.967 16.267,126.35 18.1,121.95M231.1,277.45L233.65,268.6C236.25,258.2 237.55,246.933 237.55,234.8C237.55,228.133 237.217,221.583 236.55,215.15C233.35,188.017 223.433,162.9 206.8,139.8C188.633,114.6 167.383,98.3 143.05,90.9M146.9,338.65C141.733,338.117 136.417,337.2 130.95,335.9C112.717,331.4 96.3,322.383 81.7,308.85M208.25,314.8L206,316.9C198.7,323.567 190.967,328.767 182.8,332.5C172.6,336.933 161.75,339.033 150.25,338.8L146.9,338.65M215.95,320.95C215.083,320.083 214.167,319.267 213.2,318.5L208.25,314.8C218.017,304.733 225.367,292.933 230.3,279.4L231.1,277.45M277.95,244.8C277.517,253.067 276.65,261 275.35,268.6C273.65,278.7 271.083,288.2 267.65,297.1C260.65,315.333 250.233,331.167 236.4,344.6L233.85,346.85C218.383,360.917 201.367,369.667 182.8,373.1C176.9,374.167 170.833,374.7 164.6,374.7C156.567,374.6 148.3,373.75 139.8,372.15C111.9,366.117 87.267,352.217 65.9,330.45M236.55,215.15C241.483,212.583 246.483,210.917 251.55,210.15L265.85,210.65C268.55,211.183 271.3,211.983 274.1,213.05L277.3,214.5C276.233,203.467 274.3,192.683 271.5,182.15M277.45,236.1L278.1,234.95C278.1,228.083 277.833,221.267 277.3,214.5M278.1,234.95L278.1,238.65L277.95,244.8M215.95,320.95C223.583,328.017 229.55,336.65 233.85,346.85" style="fill:none;fill-rule:nonzero;stroke:black;stroke-opacity:0.3;stroke-width:0.05px;"/>
                    <path d="M127.7,296.65C124.067,295.883 120.533,294.65 117.1,292.95C114.933,291.983 112.833,290.8 110.8,289.4L110.8,274.9C105.333,270.833 100.283,265.517 95.65,258.95C86.45,246.183 81.783,232.35 81.65,217.45C81.783,200.483 86.45,187.817 95.65,179.45C105.017,170.85 116.4,168.167 129.8,171.4C143.1,174.5 154.483,182.7 163.95,196C173.283,209.2 178,223.633 178.1,239.3C178.1,245.333 177.35,250.867 175.85,255.9C158.783,274.033 145.317,281.433 135.45,278.1L127.7,292.6L127.7,296.65M127.7,281.65L127.7,292.6L127.7,281.65M90.2,229.8C90.2,235.5 91.75,240.5 94.85,244.8C98.083,249.3 101.95,252.083 106.45,253.15C110.95,254.25 114.817,253.35 118.05,250.45C121.15,247.55 122.767,243.467 122.9,238.2C122.767,232.833 121.15,227.95 118.05,223.55C114.817,219.05 110.95,216.25 106.45,215.15C101.95,214.083 98.083,215 94.85,217.9C91.75,220.7 90.2,224.667 90.2,229.8M161.05,238.2C157.817,233.7 153.95,230.9 149.45,229.8C144.95,228.733 141.083,229.65 137.85,232.55C134.75,235.35 133.2,239.65 133.2,245.45C133.2,250.483 134.75,255.15 137.85,259.45C141.083,263.95 144.95,266.733 149.45,267.8C153.95,268.9 157.817,268 161.05,265.1C164.15,262.2 165.75,258.117 165.85,252.85C165.75,247.483 164.15,242.6 161.05,238.2M117.1,283.9L117.1,292.95L117.1,283.9M130.3,271.05L125.95,256.05L119,266.05C122.767,270.35 126.533,272.017 130.3,271.05" style="fill:rgb(140,119,91);"/>
                    <path d="M161.05,238.2C164.15,242.6 165.75,247.483 165.85,252.85C165.75,258.117 164.15,262.2 161.05,265.1C157.817,268 153.95,268.9 149.45,267.8C144.95,266.733 141.083,263.95 137.85,259.45C134.75,255.15 133.2,250.483 133.2,245.45C133.2,239.65 134.75,235.35 137.85,232.55C141.083,229.65 144.95,228.733 149.45,229.8C153.95,230.9 157.817,233.7 161.05,238.2M90.2,229.8C90.2,224.667 91.75,220.7 94.85,217.9C98.083,215 101.95,214.083 106.45,215.15C110.95,216.25 114.817,219.05 118.05,223.55C121.15,227.95 122.767,232.833 122.9,238.2C122.767,243.467 121.15,247.55 118.05,250.45C114.817,253.35 110.95,254.25 106.45,253.15C101.95,252.083 98.083,249.3 94.85,244.8C91.75,240.5 90.2,235.5 90.2,229.8M130.3,271.05C126.533,272.017 122.767,270.35 119,266.05L125.95,256.05L130.3,271.05" style="fill:rgb(62,54,46);"/>
                    <path d="M175.85,255.9C173.583,263.733 169.617,270.283 163.95,275.55C157.817,281.117 150.883,284.233 143.15,284.9L142.85,297.45C137.583,297.983 132.533,297.717 127.7,296.65L127.7,292.6L135.45,278.1C145.317,281.433 158.783,274.033 175.85,255.9" style="fill:rgb(206,196,182);"/>
                    <path d="M127.7,296.65C124.067,295.883 120.533,294.65 117.1,292.95C114.933,291.983 112.833,290.8 110.8,289.4L110.8,274.9C105.333,270.833 100.283,265.517 95.65,258.95C86.45,246.183 81.783,232.35 81.65,217.45C81.783,200.483 86.45,187.817 95.65,179.45C105.017,170.85 116.4,168.167 129.8,171.4C143.1,174.5 154.483,182.7 163.95,196C173.283,209.2 178,223.633 178.1,239.3C178.1,245.333 177.35,250.867 175.85,255.9C173.583,263.733 169.617,270.283 163.95,275.55C157.817,281.117 150.883,284.233 143.15,284.9L142.85,297.45C137.583,297.983 132.533,297.717 127.7,296.65L127.7,281.65M161.05,238.2C164.15,242.6 165.75,247.483 165.85,252.85C165.75,258.117 164.15,262.2 161.05,265.1C157.817,268 153.95,268.9 149.45,267.8C144.95,266.733 141.083,263.95 137.85,259.45C134.75,255.15 133.2,250.483 133.2,245.45C133.2,239.65 134.75,235.35 137.85,232.55C141.083,229.65 144.95,228.733 149.45,229.8C153.95,230.9 157.817,233.7 161.05,238.2M90.2,229.8C90.2,224.667 91.75,220.7 94.85,217.9C98.083,215 101.95,214.083 106.45,215.15C110.95,216.25 114.817,219.05 118.05,223.55C121.15,227.95 122.767,232.833 122.9,238.2C122.767,243.467 121.15,247.55 118.05,250.45C114.817,253.35 110.95,254.25 106.45,253.15C101.95,252.083 98.083,249.3 94.85,244.8C91.75,240.5 90.2,235.5 90.2,229.8M117.1,292.95L117.1,283.9M130.3,271.05C126.533,272.017 122.767,270.35 119,266.05L125.95,256.05L130.3,271.05Z" style="fill:none;fill-rule:nonzero;stroke:black;stroke-opacity:0.3;stroke-width:0.05px;"/>
                    <path d="M168.95,277.8L190.35,297.6L190.35,307.55L195.2,299.2C199.9,301.133 203.433,299.417 205.8,294.05C207.1,296.183 207.217,298.7 206.15,301.6C204.85,305.167 201.517,306.2 196.15,304.7C200.017,307.367 201.1,310.05 199.4,312.75C192.833,318.417 187.033,318.417 182,312.75C179.967,307.05 181.033,302.533 185.2,299.2L166.2,280.55L168.95,277.8" style="fill:rgb(140,119,91);"/>
                    <path d="M168.95,277.8L171.7,275.05L191,290.85C192.833,287.717 196.167,287.383 201,289.85C203.233,291.05 204.833,292.45 205.8,294.05C203.433,299.417 199.9,301.133 195.2,299.2L190.35,307.55L190.35,297.6L168.95,277.8" style="fill:rgb(206,196,182);"/>
                    <path d="M205.8,294.05C204.833,292.45 203.233,291.05 201,289.85C196.167,287.383 192.833,287.717 191,290.85L171.7,275.05L166.2,280.55L185.2,299.2C181.033,302.533 179.967,307.05 182,312.75C187.033,318.417 192.833,318.417 199.4,312.75C201.1,310.05 200.017,307.367 196.15,304.7C201.517,306.2 204.85,305.167 206.15,301.6C207.217,298.7 207.1,296.183 205.8,294.05Z" style="fill:none;fill-rule:nonzero;stroke:black;stroke-opacity:0.3;stroke-width:0.05px;"/>
                    <path d="M86.05,248L87.5,251.05L71.4,257.65C73.967,261.75 74.067,265.783 71.7,269.75C68.9,271.017 66.483,271.283 64.45,270.55C61.55,269.25 59.083,266.783 57.05,263.15C55.45,259.917 56.85,258.083 61.25,257.65C55.783,256.383 52.933,253.967 52.7,250.4C52.267,248.6 52.267,247.267 52.7,246.4C52.7,245 53.3,244.133 54.5,243.8C55.333,249.6 60.217,253.417 69.15,255.25C80.683,251.05 86.317,248.633 86.05,248" style="fill:rgb(140,119,91);"/>
                    <path d="M54.5,243.8C55.333,242.733 56.983,242.417 59.45,242.85C64.083,242.95 66.933,244.833 68,248.5L84.25,244.8L86.05,248C86.317,248.633 80.683,251.05 69.15,255.25C60.217,253.417 55.333,249.6 54.5,243.8" style="fill:rgb(206,196,182);"/>
                    <path d="M86.05,248L87.5,251.05L71.4,257.65C73.967,261.75 74.067,265.783 71.7,269.75C68.9,271.017 66.483,271.283 64.45,270.55C61.55,269.25 59.083,266.783 57.05,263.15C55.45,259.917 56.85,258.083 61.25,257.65C55.783,256.383 52.933,253.967 52.7,250.4C52.267,248.6 52.267,247.267 52.7,246.4C52.7,245 53.3,244.133 54.5,243.8C55.333,242.733 56.983,242.417 59.45,242.85C64.083,242.95 66.933,244.833 68,248.5L84.25,244.8L86.05,248Z" style="fill:none;fill-rule:nonzero;stroke:black;stroke-opacity:0.3;stroke-width:0.05px;"/>
                    <path d="M170.25,176.05L190.05,184.6L190.05,197.45L209.35,194.9L214.85,205.65C200.55,211.683 184.667,209.917 167.2,200.35L175.25,198.1L170.25,176.05M189.9,248.35L182.3,252.85L159.3,228.7L156.85,220.5L156.85,213.55L149.45,205.35L158.65,202.75L189.9,248.35" style="fill:rgb(171,116,58);"/>
                    <path d="M105.85,226.6L99.55,222.9L101.5,197.45L75.4,211.6L60.6,193.6L75.75,184.6L49.65,182L41.3,164.3L84.9,163.8L96,187.8L103.25,190.55L113.1,194.25L135.8,202.75C135.133,224.983 125.15,232.933 105.85,226.6" style="fill:rgb(172,116,58);"/>
                    <path d="M41.3,164.3L38.05,157.55L63.2,157.55L38.7,147.25L48.35,139.5L70.25,151.75L72.2,141.45L91.85,143.05C94.85,134.683 96.667,124.267 97.3,111.8L108.25,122.1C113.417,152.367 109.333,174.267 96,187.8L84.9,163.8L41.3,164.3M103.25,190.55C110.017,183.117 115.333,173.617 119.2,162.05C119.4,174.817 117.367,185.55 113.1,194.25L103.25,190.55M91.85,143.05C89.483,149.483 86.367,154.733 82.5,158.8L84.9,163.8L82.5,158.8C86.367,154.733 89.483,149.483 91.85,143.05" style="fill:rgb(102,74,41);"/>
                    <path d="M142.05,139.5L142.4,162.05C142.833,167.85 143.583,172.783 144.65,176.85L147.2,158.15C149.133,177.917 152.95,192.783 158.65,202.75L149.45,205.35C147.317,204.717 145.183,201.233 143.05,194.9L140.45,188.6C139.583,186.333 138.833,184.033 138.2,181.7C134.967,170.4 133.783,158.267 134.65,145.3L134.65,139.5L142.05,139.5M150.1,188.45C147.733,186.283 145.917,182.417 144.65,176.85C145.917,182.417 147.733,186.283 150.1,188.45" style="fill:rgb(117,82,46);"/>
                    <path d="M161.7,139.5L170.25,176.05L175.25,198.1L167.2,200.35L158.65,202.75C152.95,192.783 149.133,177.917 147.2,158.15L144.65,176.85C143.583,172.783 142.833,167.85 142.4,162.05L142.05,139.5L161.7,139.5M134.65,139.5L134.65,145.3C133.783,158.267 134.967,170.4 138.2,181.7C138.833,184.033 139.583,186.333 140.45,188.6L143.05,194.9C145.183,201.233 147.317,204.717 149.45,205.35L145.6,206.45L135.8,202.75L113.1,194.25C117.367,185.55 119.4,174.817 119.2,162.05C115.333,173.617 110.017,183.117 103.25,190.55L96,187.8C109.333,174.267 113.417,152.367 108.25,122.1L119.2,132.4L134.65,139.5" style="fill:rgb(211,166,98);"/>
                    <path d="M97.3,111.8L119.85,101.5L150.1,117.6L161.7,139.5L134.65,139.5L119.2,132.4L97.3,111.8" style="fill:rgb(230,202,124);"/>
                    <path d="M214.85,205.65L219,214.2L205.15,214.2L218.35,227.7L210.3,240.9L182.95,226.75L193.6,246.05L189.9,248.35L158.65,202.75L167.2,200.35C184.667,209.917 200.55,211.683 214.85,205.65M159.3,228.7L157.2,226.45L150.1,241.9C133.9,238.9 119.15,233.8 105.85,226.6C125.15,232.933 135.133,224.983 135.8,202.75L145.6,206.45L149.45,205.35L156.85,213.55L156.85,220.5L159.3,228.7M175.25,221.3L166.2,209.7L175.25,221.3" style="fill:rgb(228,201,127);"/>
                    <path d="M170.25,176.05L190.05,184.6L190.05,197.45L209.35,194.9L214.85,205.65L219,214.2L205.15,214.2L218.35,227.7L210.3,240.9L182.95,226.75L193.6,246.05L189.9,248.35L182.3,252.85L159.3,228.7L157.2,226.45L150.1,241.9C133.9,238.9 119.15,233.8 105.85,226.6L99.55,222.9L101.5,197.45L75.4,211.6L60.6,193.6L75.75,184.6L49.65,182L41.3,164.3L38.05,157.55L63.2,157.55L38.7,147.25L48.35,139.5L70.25,151.75L72.2,141.45L91.85,143.05C94.85,134.683 96.667,124.267 97.3,111.8L119.85,101.5L150.1,117.6L161.7,139.5L170.25,176.05L175.25,198.1L167.2,200.35L158.65,202.75L149.45,205.35L145.6,206.45L135.8,202.75L113.1,194.25L103.25,190.55L96,187.8L84.9,163.8L82.5,158.8C86.367,154.733 89.483,149.483 91.85,143.05M161.7,139.5L134.65,139.5L119.2,132.4L97.3,111.8M142.4,162.05C142.833,167.85 143.583,172.783 144.65,176.85C145.917,182.417 147.733,186.283 150.1,188.45M134.65,145.3C133.783,158.267 134.967,170.4 138.2,181.7C138.833,184.033 139.583,186.333 140.45,188.6L143.05,194.9M156.85,213.55L156.85,220.5M166.2,209.7L175.25,221.3" style="fill:none;fill-rule:nonzero;stroke:black;stroke-opacity:0.3;stroke-width:0.05px;"/>
                </g>
            </g>
        </g>
    </g>
</svg>
