<?xml version="1.0" encoding="UTF-8" standalone="no"?>
<!DOCTYPE svg PUBLIC "-//W3C//DTD SVG 1.1//EN" "http://www.w3.org/Graphics/SVG/1.1/DTD/svg11.dtd">
<svg width="100%" height="100%" viewBox="0 0 24 39" version="1.1" xmlns="http://www.w3.org/2000/svg" xmlns:xlink="http://www.w3.org/1999/xlink" xml:space="preserve" xmlns:serif="http://www.serif.com/" style="fill-rule:evenodd;clip-rule:evenodd;stroke-linecap:round;stroke-linejoin:round;">
    <g transform="matrix(1,0,0,1,-13.7,-4.25)">
        <g transform="matrix(1,0,0,1,25.55,23.35)">
            <g id="sprite0">
                <g id="sprite1">
                    <g id="shape0">
                        <path d="M5.45,-13.35C5.917,-12.483 6.233,-10.933 6.4,-8.7L7.2,-5.35C7.5,-4.283 7.95,-3.267 8.55,-2.3L9.1,-1.75L9.1,-1.25C9.033,-1.017 9.1,-0.667 9.3,-0.2L9.55,-0.25C9.95,-0.083 10.117,0.2 10.05,0.6L10.35,0.8C10.55,1.067 10.6,1.4 10.5,1.8L9.2,2.45L9.3,2.7C9.333,3.133 9.083,3.317 8.55,3.25L8.3,3.55L7.95,3.35L7.75,3.15L7.2,3.4L7.3,3.55L10.05,7.4L10.25,7.65L10.55,8L10.8,8.4L11.25,9.2L11.35,9.65L11.25,10.65L11,11.05L10.5,11.8L9.1,13.55L5.1,16.8L2.25,18.05L2.15,18.05L2,18.1L1.2,18.3L0.4,18.45L-0.2,18.5L-0.75,18.55L-1.15,18.6L-1.55,18.6L-4.3,18.4L-5.25,18.2L-5.45,18.15L-7.3,17.6C-8.233,17.267 -8.917,16.833 -9.35,16.3L-8.7,15.8L-8.55,15.7L-7.85,14.85L-7.8,14.9C-7,13.933 -6.3,12.767 -5.7,11.4L-5.7,11.3L-5.55,11.05L-6.1,10.95L-7.25,10.75L-7.45,11.05L-7.9,11.4L-8.25,11.1C-8.917,11.367 -9.283,11.217 -9.35,10.65L-9.3,10.35L-10.5,10.1L-11.15,9.95C-11.483,9.417 -11.4,8.9 -10.9,8.4C-11.067,8.033 -11.017,7.733 -10.75,7.5L-10.5,7.3L-10.15,7.3C-9.917,6.833 -9.8,6.367 -9.8,5.9C-10.1,5.433 -10.15,5.067 -9.95,4.8L-9.6,4.3C-9.2,3.167 -8.933,1.967 -8.8,0.7L-8.7,-0.3L-8.7,-3.5C-9.1,-6.467 -9.05,-8.5 -8.55,-9.6L-5.65,-11.7L-5,-12.1L-7,-14.85L-4.9,-14.55C-3.533,-14.35 -1.5,-14.8 1.2,-15.9L1.3,-16C1.3,-16.9 1,-17.733 0.4,-18.5L1.25,-18.6L1.35,-18.55L1.5,-18.55C2.267,-18.383 2.65,-18.1 2.65,-17.7L2.65,-17.6L2.5,-14.8L2.65,-14.75L4.45,-14.05L5.3,-13.6L5.45,-13.35" style="fill:#333;"/>
                        <path d="M5.45,-13.35C5.917,-12.483 6.233,-10.933 6.4,-8.7L7.2,-5.35C7.5,-4.283 7.95,-3.267 8.55,-2.3L9.1,-1.75L9.1,-1.25C9.033,-1.017 9.1,-0.667 9.3,-0.2L9.55,-0.25C9.95,-0.083 10.117,0.2 10.05,0.6L10.35,0.8C10.55,1.067 10.6,1.4 10.5,1.8L9.2,2.45L9.3,2.7C9.333,3.133 9.083,3.317 8.55,3.25L8.3,3.55L7.95,3.35L7.75,3.15L7.2,3.4L7.3,3.55L10.05,7.4L10.25,7.65L10.55,8L10.8,8.4L11.25,9.2L11.35,9.65L11.25,10.65L11,11.05L10.5,11.8L9.1,13.55L5.1,16.8L2.25,18.05L2.15,18.05L2,18.1L1.2,18.3L0.4,18.45L-0.2,18.5L-0.75,18.55L-1.15,18.6L-1.55,18.6L-4.3,18.4L-5.25,18.2L-5.45,18.15L-7.3,17.6C-8.233,17.267 -8.917,16.833 -9.35,16.3L-8.7,15.8L-8.55,15.7L-7.85,14.85L-7.8,14.9C-7,13.933 -6.3,12.767 -5.7,11.4L-5.7,11.3L-5.55,11.05L-6.1,10.95L-7.25,10.75L-7.45,11.05L-7.9,11.4L-8.25,11.1C-8.917,11.367 -9.283,11.217 -9.35,10.65L-9.3,10.35L-10.5,10.1L-11.15,9.95C-11.483,9.417 -11.4,8.9 -10.9,8.4C-11.067,8.033 -11.017,7.733 -10.75,7.5L-10.5,7.3L-10.15,7.3C-9.917,6.833 -9.8,6.367 -9.8,5.9C-10.1,5.433 -10.15,5.067 -9.95,4.8L-9.6,4.3C-9.2,3.167 -8.933,1.967 -8.8,0.7L-8.7,-0.3L-8.7,-3.5C-9.1,-6.467 -9.05,-8.5 -8.55,-9.6L-5.65,-11.7L-5,-12.1L-7,-14.85L-4.9,-14.55C-3.533,-14.35 -1.5,-14.8 1.2,-15.9L1.3,-16C1.3,-16.9 1,-17.733 0.4,-18.5L1.25,-18.6L1.35,-18.55L1.5,-18.55C2.267,-18.383 2.65,-18.1 2.65,-17.7L2.65,-17.6L2.5,-14.8L2.65,-14.75L4.45,-14.05L5.3,-13.6L5.45,-13.35Z" style="fill:none;fill-rule:nonzero;stroke:#000;stroke-width:1px;"/>
                    </g>
                </g>
                <g id="sprite2" transform="matrix(0.0919,0,0,0.0918,-48.8547,-4.39952)">
                    <g id="shape1">
                        <path d="M438.8,-56.5C448.8,-65.067 459.233,-72.683 470.1,-79.35L477.45,-83.7C471.483,-92.867 464.15,-102.95 455.45,-113.95L478.1,-110.5C493.167,-108.267 515.417,-113.267 544.85,-125.5L545.75,-126.2L546.15,-126.45C548.65,-128.683 551.117,-131.15 553.55,-133.85L553.65,-134.05C556.783,-138.383 558.3,-142.033 558.2,-145C558,-149.833 553.683,-153.033 545.25,-154.6C555.317,-153 560.467,-149.8 560.7,-145L560.7,-144.65L560.65,-143.8L560.25,-135.4C554.517,-126.4 548.233,-118.95 541.4,-113.05C530.667,-103.783 518.567,-98.317 505.1,-96.65L495.3,-96.2C489.4,-96.3 483.333,-97.067 477.1,-98.5L478.75,-84.7L477.4,-78.85L477.3,-78.75C473.733,-67.583 476.667,-54.033 486.1,-38.1C477.567,-46.267 468.583,-51.283 459.15,-53.15L458.6,-52.9L455.55,-53.25L448.75,-53.25L448.9,-53.4L438.8,-56.5" style="fill:#334a4a;"/>
                        <path d="M560.25,-135.4L559,-113.05L560.2,-112.8C567.3,-110.667 573.933,-108.1 580.1,-105.1L589.05,-100.4L590.8,-97.45C596,-88.017 599.533,-71.217 601.4,-47.05C603.433,-34.417 606.233,-22.1 609.8,-10.1C613.3,1.467 618.317,12.5 624.85,23L625.05,23.25C628.05,25.817 629.917,27.7 630.65,28.9C631.35,30.1 631.383,31.917 630.75,34.35C630.05,36.783 630.817,40.6 633.05,45.8C630.15,46.3 627.267,46.917 624.4,47.65L619.75,49.05L615.75,42.65C614.717,41.45 613.733,40.75 612.8,40.55C613.733,40.75 614.717,41.45 615.75,42.65L619.75,49.05C624.717,57.383 628.733,65.883 631.8,74.55L632.65,77.15C633.083,82.15 630.417,84.133 624.65,83.1C624.65,85 623.783,86.2 622.05,86.7C620.783,87.233 619.45,86.533 618.05,84.6L615.9,82C609.433,73.9 605.45,66.367 603.95,59.4L603.25,56.05C602.217,50.317 602.25,46.767 603.35,45.4C604.75,43.8 606.8,43.4 609.5,44.2C609.4,44.533 609.35,44.983 609.35,45.55C609.35,44.983 609.4,44.533 609.5,44.2L611.45,41.2C611.783,40.933 612.233,40.717 612.8,40.55C597.167,13.65 586.75,-18.233 581.55,-55.1C582.617,-45.3 582.533,-34.467 581.3,-22.6C580.5,-15.367 579.3,-7.75 577.7,0.25L574.35,14.55L573.35,18.5L573.35,18.8L572.75,25L572.6,28.95L572.5,32.45L570.95,39.5C571.017,47.367 571.783,55.217 573.25,63.05C574.95,72.45 577.583,81.833 581.15,91.2L582.25,94.05L582.2,94.05L584.1,99.2C585.5,102.967 587,106.717 588.6,110.45C574.667,95.75 564.15,71.75 557.05,38.45L555.95,26.25L557.05,38.45L561.65,90.25L563.5,96.2L565.35,102.4L568.8,113C576.867,136.333 587.4,158.467 600.4,179.4C612.833,187.067 622.933,192.433 630.7,195.5C602.933,226.833 569.25,244.767 529.65,249.3L514.6,250.3C501.6,250.667 488.183,249.25 474.35,246.05L458.3,230L460.4,225.4C466.567,212 470.883,200.633 473.35,191.3C486.95,196.967 498.95,197.017 509.35,191.45C511.783,190.183 514.083,188.633 516.25,186.8C518.383,179.5 517.267,172.333 512.9,165.3C516.267,156.2 514.917,149.083 508.85,143.95L507.4,130.05L503.3,103.05L503.35,103.05L500.05,79.45L500.25,79.25L486.1,-38.1C476.667,-54.033 473.733,-67.583 477.3,-78.75L477.4,-78.85L478.75,-84.7L477.1,-98.5C483.333,-97.067 489.4,-96.3 495.3,-96.2L505.1,-96.65C518.567,-98.317 530.667,-103.783 541.4,-113.05C548.233,-118.95 554.517,-126.4 560.25,-135.4M452.6,164.95L450.6,168.5C449.167,171.233 447.6,172.483 445.9,172.25C443.5,172.117 442.067,170.933 441.6,168.7C434.5,171.6 430.533,170.067 429.7,164.1L430.2,160.7C430.967,155.4 432.05,150.083 433.45,144.75C434.95,139.017 436.75,133.233 438.85,127.4C432.883,126.967 426.9,126.95 420.9,127.35C423.733,122.517 425.167,117.433 425.2,112.1C421.733,107.1 421.083,103.05 423.25,99.95C425.383,96.817 426.633,95.1 427,94.8C431.633,82.567 434.617,69.4 435.95,55.3L436.75,44.4C437.483,32.833 437.567,21.217 437,9.55C432.6,-22.583 433.2,-44.6 438.8,-56.5L448.9,-53.4L448.75,-53.25L455.55,-53.25L458.6,-52.9L459.15,-53.15C468.583,-51.283 477.567,-46.267 486.1,-38.1L491.9,27.1L492.6,37.2L492.6,38.05L493.1,48.8C493.367,57.867 493.433,66.933 493.3,76L493.25,81.4L493.1,86.1C492.8,96.3 492.217,106.517 491.35,116.75L458.55,118.25L458.95,118.55C460.517,119.65 461.467,122.95 461.8,128.45L461.75,128.95L461.85,131.05L461.9,135.05C461.833,139.417 461.033,144.117 459.5,149.15C457.9,154.05 455.6,159.317 452.6,164.95M558.95,-111.95L559,-113.05L558.95,-111.95M559.9,-109.8L546.8,-99.9C545.8,-99.267 543.233,-97.9 539.1,-95.8C534.933,-93.767 529.15,-91.8 521.75,-89.9L502,-86.15L483.65,-83.65L533.75,-76.8L559.9,-109.8M556.3,25.95L555.75,5.2L555.55,3.15C552.55,-26.35 545.283,-53 533.75,-76.8C545.283,-53 552.55,-26.35 555.55,3.15L555.75,5.2L556.3,25.95M512.9,-88.55L502,-86.15L512.9,-88.55M581.55,-55.1L580.85,-60.45C579.35,-69.85 576.7,-78.3 572.9,-85.8C576.7,-78.3 579.35,-69.85 580.85,-60.45L581.55,-55.1M458.55,118.25L458.35,118.2C456.283,117.033 453.75,117.25 450.75,118.85C450.217,117.55 449.417,116.633 448.35,116.1C447.583,115.667 446.667,115.45 445.6,115.45C444.433,115.95 443.333,117.067 442.3,118.8L438.85,127.4L442.3,118.8C443.333,117.067 444.433,115.95 445.6,115.45C446.667,115.45 447.583,115.667 448.35,116.1C449.417,116.633 450.217,117.55 450.75,118.85C453.75,117.25 456.283,117.033 458.35,118.2L458.55,118.25M451.25,120.3L450.75,118.85L451.25,120.3" style="fill:#2c3f3f;"/>
                        <path d="M545.75,-126.2C545.883,-136.033 542.667,-145.167 536.1,-153.6L545.25,-154.6C553.683,-153.033 558,-149.833 558.2,-145C558.3,-142.033 556.783,-138.383 553.65,-134.05L553.55,-133.85C551.117,-131.15 548.65,-128.683 546.15,-126.45L545.75,-126.2" style="fill:url(#_Radial1);"/>
                        <path d="M609.8,84.75L611,86.5L614,90.45C622.267,103.55 631.283,116.283 641.05,128.65L643.2,131.35L646.35,135.25C648.217,137.517 649.15,138.85 649.15,139.25L649.4,139.5C651.767,143.233 653.283,146.117 653.95,148.15C654.55,149.817 654.933,151.517 655.1,153.25C655.467,156.583 655.083,160.083 653.95,163.75L651.2,168.2L645.85,176.25C640.983,183.15 635.933,189.567 630.7,195.5C622.933,192.433 612.833,187.067 600.4,179.4C587.4,158.467 576.867,136.333 568.8,113L565.35,102.4L563.5,96.2L561.65,90.25L557.05,38.45C564.15,71.75 574.667,95.75 588.6,110.45C587,106.717 585.5,102.967 584.1,99.2L582.2,94.05L582.25,94.05L581.15,91.2C577.583,81.833 574.95,72.45 573.25,63.05C571.783,55.217 571.017,47.367 570.95,39.5L572.5,32.45L572.6,28.95L572.75,25L573.35,18.8L573.35,18.5L574.35,14.55L577.7,0.25C579.3,-7.75 580.5,-15.367 581.3,-22.6C582.533,-34.467 582.617,-45.3 581.55,-55.1C586.75,-18.233 597.167,13.65 612.8,40.55C612.233,40.717 611.783,40.933 611.45,41.2C610.383,41.867 609.733,42.867 609.5,44.2C606.8,43.4 604.75,43.8 603.35,45.4C602.25,46.767 602.217,50.317 603.25,56.05C600.45,57.583 597.683,59.267 594.95,61.1L591.5,54.4C587.6,46.8 584.033,39.083 580.8,31.25L579.5,28.15C577.667,23.65 575.95,19.117 574.35,14.55C575.95,19.117 577.667,23.65 579.5,28.15L580.8,31.25C584.033,39.083 587.6,46.8 591.5,54.4L594.95,61.1L593.9,60.45C596.4,64.717 599.017,68.933 601.75,73.1L608.2,83.65L609.2,85.05L609.8,84.75M474.35,246.05C467.05,244.417 459.683,242.25 452.25,239.55C441.95,235.917 434.433,231.183 429.7,225.35C446,213.35 459.233,195.55 469.4,171.95L469.75,171.3L471.05,168.15L476.4,169.05L488.85,170.2C490.183,168.267 491.117,166.417 491.65,164.65C493.417,159.583 492.483,155.183 488.85,151.45C492.917,149.017 493.883,145.833 491.75,141.9L488.8,140.5L488.85,140.35L490.1,129.5L491.35,116.75L490.1,129.5L488.85,140.35L488.65,140.45L485.85,139.2L481.2,137.25C474.767,134.683 468.317,132.617 461.85,131.05L461.75,128.95L461.8,128.45C461.467,122.95 460.517,119.65 458.95,118.55L458.55,118.25L491.35,116.75C492.217,106.517 492.8,96.3 493.1,86.1L493.25,81.4L493.3,76C493.433,66.933 493.367,57.867 493.1,48.8L492.6,38.05L492.6,37.2L491.9,27.1L486.1,-38.1L500.25,79.25L500.05,79.45L503.35,103.05L503.3,103.05L507.4,130.05L508.85,143.95C514.917,149.083 516.267,156.2 512.9,165.3C517.267,172.333 518.383,179.5 516.25,186.8C514.083,188.633 511.783,190.183 509.35,191.45C498.95,197.017 486.95,196.967 473.35,191.3C470.883,200.633 466.567,212 460.4,225.4L458.3,230L474.35,246.05M502,-86.15L521.75,-89.9C529.15,-91.8 534.933,-93.767 539.1,-95.8C543.233,-97.9 545.8,-99.267 546.8,-99.9L559.9,-109.8L533.75,-76.8L529.6,-84.9L533.75,-76.8L483.65,-83.65L502,-86.15M522,-89.65L521.75,-89.9L522,-89.65M572.5,39.05L572.5,32.45L572.5,39.05M590.85,115.45L588.6,110.45L590.85,115.45" style="fill:#172327;"/>
                        <path d="M609.5,44.2C609.733,42.867 610.383,41.867 611.45,41.2L609.5,44.2" style="fill:url(#_Radial2);"/>
                        <path d="M644.15,56.9C646.55,59.8 647.083,63.333 645.75,67.5C646.15,67.567 641.5,69.917 631.8,74.55C628.733,65.883 624.717,57.383 619.75,49.05L624.4,47.65C628.033,50.45 630.333,53.533 631.3,56.9C632.267,60.3 633.783,61.65 635.85,60.95C637.883,60.25 640.65,58.9 644.15,56.9M471.05,168.15L465.4,167.25L452.6,164.95C455.6,159.317 457.9,154.05 459.5,149.15L459.6,149.15L483.6,152.65C487.9,155.75 490.583,159.75 491.65,164.65C491.117,166.417 490.183,168.267 488.85,170.2L476.4,169.05L471.05,168.15M430.2,160.7L417.3,158.05C412.367,157.05 410.05,156.467 410.35,156.3C406.517,150.4 407.367,144.783 412.9,139.45C418.067,137.917 423.5,137.867 429.2,139.3C427.7,140.367 425.783,141.367 423.45,142.3L433.45,144.75C432.05,150.083 430.967,155.4 430.2,160.7" style="fill:#909490;"/>
                        <path d="M633.05,45.8L635.7,45.4C640,47 641.8,49.933 641.1,54.2L644.15,56.9C640.65,58.9 637.883,60.25 635.85,60.95C633.783,61.65 632.267,60.3 631.3,56.9C630.333,53.533 628.033,50.45 624.4,47.65C627.267,46.917 630.15,46.3 633.05,45.8M412.9,139.45C411.3,135.617 411.917,132.333 414.75,129.6L417.45,127.65L420.9,127.35C426.9,126.95 432.883,126.967 438.85,127.4C436.75,133.233 434.95,139.017 433.45,144.75L423.45,142.3C425.783,141.367 427.7,140.367 429.2,139.3C423.5,137.867 418.067,137.917 412.9,139.45M488.8,140.5L491.75,141.9C493.883,145.833 492.917,149.017 488.85,151.45C492.483,155.183 493.417,159.583 491.65,164.65C490.583,159.75 487.9,155.75 483.6,152.65L459.6,149.15L459.5,149.15C461.033,144.117 461.833,139.417 461.9,135.05L461.85,131.05C468.317,132.617 474.767,134.683 481.2,137.25L485.85,139.2L488.65,140.45L488.8,140.5M488.25,140.7L488.65,140.45L488.25,140.7" style="fill:#cfdbd7;"/>
                        <path d="M615.9,82L609.8,84.75L609.2,85.05L608.2,83.65L601.75,73.1L594.95,61.1C597.683,59.267 600.45,57.583 603.25,56.05L603.95,59.4C605.45,66.367 609.433,73.9 615.9,82" style="fill:#818581;"/>
                        <path d="M488.85,140.35L488.8,140.5L488.65,140.45L488.85,140.35" style="fill:url(#_Radial3);"/>
                        <path d="M438.8,-56.5C448.8,-65.067 459.233,-72.683 470.1,-79.35L477.45,-83.7C471.483,-92.867 464.15,-102.95 455.45,-113.95L478.1,-110.5C493.167,-108.267 515.417,-113.267 544.85,-125.5L545.75,-126.2C545.883,-136.033 542.667,-145.167 536.1,-153.6L545.25,-154.6C555.317,-153 560.467,-149.8 560.7,-145L560.7,-144.65L560.65,-143.8L560.25,-135.4L559,-113.05L560.2,-112.8C567.3,-110.667 573.933,-108.1 580.1,-105.1L589.05,-100.4L590.8,-97.45C596,-88.017 599.533,-71.217 601.4,-47.05C603.433,-34.417 606.233,-22.1 609.8,-10.1C613.3,1.467 618.317,12.5 624.85,23L625.05,23.25C628.05,25.817 629.917,27.7 630.65,28.9C631.35,30.1 631.383,31.917 630.75,34.35C630.05,36.783 630.817,40.6 633.05,45.8L635.7,45.4C640,47 641.8,49.933 641.1,54.2L644.15,56.9C646.55,59.8 647.083,63.333 645.75,67.5C646.15,67.567 641.5,69.917 631.8,74.55L632.65,77.15C633.083,82.15 630.417,84.133 624.65,83.1C624.65,85 623.783,86.2 622.05,86.7C620.783,87.233 619.45,86.533 618.05,84.6L615.9,82L609.8,84.75L611,86.5L614,90.45C622.267,103.55 631.283,116.283 641.05,128.65L643.2,131.35L646.35,135.25C648.217,137.517 649.15,138.85 649.15,139.25L649.4,139.5C651.767,143.233 653.283,146.117 653.95,148.15C654.55,149.817 654.933,151.517 655.1,153.25C655.467,156.583 655.083,160.083 653.95,163.75L651.2,168.2L645.85,176.25C640.983,183.15 635.933,189.567 630.7,195.5C602.933,226.833 569.25,244.767 529.65,249.3L514.6,250.3C501.6,250.667 488.183,249.25 474.35,246.05C467.05,244.417 459.683,242.25 452.25,239.55C441.95,235.917 434.433,231.183 429.7,225.35C446,213.35 459.233,195.55 469.4,171.95L469.75,171.3L471.05,168.15L465.4,167.25L452.6,164.95L450.6,168.5C449.167,171.233 447.6,172.483 445.9,172.25C443.5,172.117 442.067,170.933 441.6,168.7C434.5,171.6 430.533,170.067 429.7,164.1L430.2,160.7L417.3,158.05C412.367,157.05 410.05,156.467 410.35,156.3C406.517,150.4 407.367,144.783 412.9,139.45C411.3,135.617 411.917,132.333 414.75,129.6L417.45,127.65L420.9,127.35C423.733,122.517 425.167,117.433 425.2,112.1C421.733,107.1 421.083,103.05 423.25,99.95C425.383,96.817 426.633,95.1 427,94.8C431.633,82.567 434.617,69.4 435.95,55.3L436.75,44.4C437.483,32.833 437.567,21.217 437,9.55C432.6,-22.583 433.2,-44.6 438.8,-56.5M559,-113.05L558.95,-111.95M502,-86.15L521.75,-89.9C529.15,-91.8 534.933,-93.767 539.1,-95.8C543.233,-97.9 545.8,-99.267 546.8,-99.9L559.9,-109.8M533.75,-76.8C545.283,-53 552.55,-26.35 555.55,3.15L555.75,5.2L556.3,25.95M529.6,-84.9L533.75,-76.8M483.65,-83.65L502,-86.15L512.9,-88.55M521.75,-89.9L522,-89.65M572.9,-85.8C576.7,-78.3 579.35,-69.85 580.85,-60.45L581.55,-55.1C582.617,-45.3 582.533,-34.467 581.3,-22.6C580.5,-15.367 579.3,-7.75 577.7,0.25L574.35,14.55C575.95,19.117 577.667,23.65 579.5,28.15L580.8,31.25C584.033,39.083 587.6,46.8 591.5,54.4L594.95,61.1C597.683,59.267 600.45,57.583 603.25,56.05C602.217,50.317 602.25,46.767 603.35,45.4C604.75,43.8 606.8,43.4 609.5,44.2C609.733,42.867 610.383,41.867 611.45,41.2C611.783,40.933 612.233,40.717 612.8,40.55C613.733,40.75 614.717,41.45 615.75,42.65L619.75,49.05L624.4,47.65C627.267,46.917 630.15,46.3 633.05,45.8M609.5,44.2C609.4,44.533 609.35,44.983 609.35,45.55M574.35,14.55L573.35,18.5L573.35,18.8L572.75,25L572.6,28.95L572.5,32.45L572.5,39.05M570.95,39.5C571.017,47.367 571.783,55.217 573.25,63.05C574.95,72.45 577.583,81.833 581.15,91.2L582.25,94.05M582.2,94.05L584.1,99.2C585.5,102.967 587,106.717 588.6,110.45L590.85,115.45M615.9,82C609.433,73.9 605.45,66.367 603.95,59.4L603.25,56.05M609.2,85.05L609.8,84.75M593.9,60.45C596.4,64.717 599.017,68.933 601.75,73.1M619.75,49.05C624.717,57.383 628.733,65.883 631.8,74.55M555.95,26.25L557.05,38.45L561.65,90.25L563.5,96.2L565.35,102.4L568.8,113C576.867,136.333 587.4,158.467 600.4,179.4M486.1,-38.1L491.9,27.1L492.6,37.2L492.6,38.05L493.1,48.8C493.367,57.867 493.433,66.933 493.3,76L493.25,81.4L493.1,86.1C492.8,96.3 492.217,106.517 491.35,116.75L490.1,129.5L488.85,140.35L488.8,140.5L491.75,141.9C493.883,145.833 492.917,149.017 488.85,151.45C492.483,155.183 493.417,159.583 491.65,164.65C491.117,166.417 490.183,168.267 488.85,170.2L476.4,169.05L471.05,168.15M488.65,140.45L488.8,140.5M488.65,140.45L488.25,140.7M488.85,140.35L488.65,140.45L485.85,139.2L481.2,137.25C474.767,134.683 468.317,132.617 461.85,131.05L461.9,135.05C461.833,139.417 461.033,144.117 459.5,149.15C457.9,154.05 455.6,159.317 452.6,164.95M438.85,127.4L442.3,118.8C443.333,117.067 444.433,115.95 445.6,115.45C446.667,115.45 447.583,115.667 448.35,116.1C449.417,116.633 450.217,117.55 450.75,118.85C453.75,117.25 456.283,117.033 458.35,118.2L458.55,118.25L458.95,118.55C460.517,119.65 461.467,122.95 461.8,128.45L461.75,128.95L461.85,131.05M450.75,118.85L451.25,120.3M438.85,127.4C436.75,133.233 434.95,139.017 433.45,144.75C432.05,150.083 430.967,155.4 430.2,160.7M438.85,127.4C432.883,126.967 426.9,126.95 420.9,127.35" style="fill:none;fill-rule:nonzero;stroke:#000;stroke-opacity:0.3;stroke-width:0.05px;"/>
                        <path d="M544.4,135.7L547.4,144.2L533.4,177.5L530.35,168.8L537.7,151.45L544.4,135.7" style="fill:#4c4e47;"/>
                        <path d="M532.55,131.6L544.4,135.7L537.7,151.45C528.633,153.25 522.817,151.65 520.25,146.65C517.65,141.483 517.667,137.717 520.3,135.35C523.933,132.017 528.017,130.767 532.55,131.6" style="fill:#706f66;"/>
                        <path d="M530.35,168.8L530.3,168.7L507.9,177.75L502.3,161.95L517.4,126.45L532.55,131.6C528.017,130.767 523.933,132.017 520.3,135.35C517.667,137.717 517.65,141.483 520.25,146.65C522.817,151.65 528.633,153.25 537.7,151.45L530.35,168.8" style="fill:#a29f96;"/>
                        <path d="M532.55,131.6L544.4,135.7L547.4,144.2L533.4,177.5M502.3,161.95L517.4,126.45L532.55,131.6L502.3,161.95Z" style="fill:none;fill-rule:nonzero;stroke:#000;stroke-opacity:0.3;stroke-width:0.05px;"/>
                        <path d="M512.4,138.4C511.6,136.967 510.917,135.5 510.35,134L513.5,135.55C512.633,135.817 512.267,136.767 512.4,138.4M543.95,161.4L540.25,159.8L546.8,144.6L556.05,163.6C557.583,167.633 556.183,173.433 551.85,181C545.417,192.367 535.983,199.883 523.55,203.55C514.117,202.017 509.267,197.433 509,189.8C512.533,192.167 516.867,193.183 522,192.85C532.333,187.983 541.983,180.45 550.95,170.25L556.05,163.6L553.65,163.2L543.95,161.4" style="fill-opacity:0.3;"/>
                        <path d="M510.35,134C510.917,135.5 511.6,136.967 512.4,138.4C517.333,146.9 526.617,154.033 540.25,159.8L543.95,161.4C531.05,177.4 516.567,182.55 500.5,176.85C498.233,171.783 497.717,164.7 498.95,155.6C500.083,146.567 503.883,139.367 510.35,134" style="fill:#2c3f3f;"/>
                        <path d="M500.5,176.85C516.567,182.55 531.05,177.4 543.95,161.4L553.65,163.2L556.05,163.6L550.95,170.25C541.983,180.45 532.333,187.983 522,192.85C516.867,193.183 512.533,192.167 509,189.8L504.95,185.85L509,189.8C507.5,188.767 506.15,187.45 504.95,185.85C503.083,183.45 501.6,180.45 500.5,176.85" style="fill:#172327;"/>
                        <path d="M510.35,134C510.917,135.5 511.6,136.967 512.4,138.4C517.333,146.9 526.617,154.033 540.25,159.8L543.95,161.4M498.95,155.6C497.717,164.7 498.233,171.783 500.5,176.85M522,192.85C532.333,187.983 541.983,180.45 550.95,170.25M504.95,185.85L509,189.8" style="fill:none;fill-rule:nonzero;stroke:#000;stroke-opacity:0.3;stroke-width:0.05px;"/>
                        <path d="M459,-53C458.533,-52.833 458.3,-52.65 458.3,-52.45C456.767,-41.383 457.2,-22.933 459.6,2.9C461.9,28.333 462.717,47.833 462.05,61.4L455.2,60.5C455.767,40.333 454.767,21.833 452.2,5C447.167,-27.733 446.017,-47.117 448.75,-53.15L448.75,-53.2C456.05,-60.5 465.1,-67.233 475.9,-73.4C484.3,-78.133 493.783,-82.533 504.35,-86.6L521.65,-89.85L521.95,-89.85C502.783,-80.65 487.567,-72.533 476.3,-65.5C470.3,-61.767 464.533,-57.6 459,-53M458,-52.25C457.833,-51.583 457.883,-51.617 458.15,-52.35L458,-52.25M554.35,-105.55C566.083,-103.85 577.017,-100.983 587.15,-96.95C591.583,-84.617 598.383,-51.9 607.55,1.2L602.1,1.8C592.5,-53.733 585.767,-86.183 581.9,-95.55C570.833,-97.983 557.8,-98.7 542.8,-97.7L546.8,-99.9L554.35,-105.55M597,66.9L597.85,68.1L601.25,72.75C598.817,73.817 596.467,74.967 594.2,76.2C590.633,77.967 587.233,79.883 584,81.95C588.267,92.517 592.95,101.733 598.05,109.6C598.75,111.133 600.083,115.633 602.05,123.1C596.45,119 592.267,115.167 589.5,111.6C586.767,107.3 584.283,102.8 582.05,98.1C580.283,94.467 578.6,90.733 577,86.9L576.2,84.7L561.9,100.6L561.85,100.6C556.083,101.667 550.25,103.167 544.35,105.1C545.783,110.033 547.133,115.467 548.4,121.4C549.2,124.467 552.017,130.467 556.85,139.4C547.417,134.2 542.033,128.833 540.7,123.3C539.5,117.7 538.167,112.483 536.7,107.65C526.367,111.483 515.717,116.383 504.75,122.35C498.617,125.683 492.417,129.367 486.15,133.4L487.3,123.2C492.867,120.067 498.317,117.117 503.65,114.35C514.217,108.85 524.417,104.217 534.25,100.45C532.65,96.417 530.95,92.717 529.15,89.35C524.217,80.117 519.9,68.117 516.2,53.35C514.9,49.95 515.45,36.883 517.85,14.15L519.65,34C520.617,38.633 521.617,43.017 522.65,47.15L523.4,49.15L523.2,49.25C526.867,63.65 530.833,74.65 535.1,82.25C537.5,86.317 539.783,91.433 541.95,97.6C547.717,95.6 553.333,93.883 558.8,92.45L558.9,92.4C562.667,89.133 567.967,85.05 574.8,80.15L572.95,73.25C571.117,66.317 570.483,43.233 571.05,4C575.05,44.1 578.5,67.95 581.4,75.55C581.933,75.117 582.5,74.767 583.1,74.5C585.433,73.033 587.767,71.667 590.1,70.4C592.4,69.133 594.7,67.967 597,66.9M643.35,150.15L647.85,143.65C649.083,141.817 649.567,140.367 649.3,139.3C650.933,142.433 652.05,144.383 652.65,145.15C653.317,146.017 653.633,146.767 653.6,147.4L654.7,152.7C655.367,155.567 655.167,158.767 654.1,162.3L654.1,162.35C633.5,198.817 605.6,224.317 570.4,238.85L553.4,245C532.2,250.567 509.317,251.633 484.75,248.2L474.25,246L469.45,244.8C454.917,240.067 446.05,236.917 442.85,235.35C439.583,233.75 435.183,230.433 429.65,225.4C436.45,220.8 441.95,215.483 446.15,209.45C448.817,211.183 451.467,212.817 454.1,214.35C467.467,222.083 481.433,227.433 496,230.4C513.433,233.967 534.267,231.6 558.5,223.3C574.1,215.633 587.967,208.25 600.1,201.15C612.3,193.95 621.75,184.133 628.45,171.7C632.65,165.1 637.5,158.067 643,150.6L643.35,150.15" style="fill:#50553c;fill-opacity:0.85;"/>
                        <path d="M603.35,-2.9C602.783,-2.667 602.233,-2.3 601.7,-1.8L600.55,-0.45C599.483,1.217 599.05,3.083 599.25,5.15C599.417,7.25 600.167,9 601.5,10.4C602.9,11.767 604.467,12.35 606.2,12.15C607.867,11.95 609.3,11.067 610.5,9.5C610.3,10.867 609.883,12.133 609.25,13.3C608.15,15.367 606.75,16.483 605.05,16.65C603.317,16.85 601.733,16.083 600.3,14.35C598.9,12.55 598.083,10.3 597.85,7.6C597.617,4.967 598.017,2.6 599.05,0.5L600.2,-1.15C601.1,-2.183 602.133,-2.767 603.3,-2.9L603.35,-2.9M612.85,33C612.75,34.733 612.317,36.3 611.55,37.7C610.45,39.767 609.05,40.9 607.35,41.1C605.583,41.3 603.983,40.517 602.55,38.75C601.15,36.95 600.333,34.717 600.1,32.05C599.867,29.35 600.267,26.983 601.3,24.95L602.45,23.3L603.85,22.15C603.45,22.45 603.083,22.867 602.75,23.4C601.683,25.033 601.233,26.9 601.4,29C601.6,31.1 602.367,32.833 603.7,34.2C605.133,35.6 606.717,36.2 608.45,36C610.15,35.8 611.567,34.867 612.7,33.2L612.85,33M458.7,58.95C459.867,59.017 461.017,59.5 462.15,60.4L464,62.2C465.833,64.667 466.917,67.683 467.25,71.25C467.55,74.85 467.017,78.033 465.65,80.8C464.183,83.567 462.3,85.083 460,85.35C457.733,85.583 455.65,84.517 453.75,82.15C452.583,80.717 451.733,79.067 451.2,77.2C452.967,78.767 454.9,79.433 457,79.2C459.367,78.933 461.283,77.683 462.75,75.45C464.183,73.25 464.767,70.733 464.5,67.9C464.267,65.067 463.25,62.717 461.45,60.85L459.6,59.45L458.7,58.95M455.45,89.35C454.65,88.85 453.783,88.533 452.85,88.4C454.217,88.333 455.567,88.8 456.9,89.8C457.533,90.2 458.167,90.833 458.8,91.7C460.633,94.067 461.717,97.033 462.05,100.6C462.35,104.233 461.817,107.433 460.45,110.2C458.983,113 457.083,114.533 454.75,114.8C452.483,115.067 450.4,113.983 448.5,111.55C447.167,109.883 446.25,107.933 445.75,105.7L446.65,106.7C448.517,108.567 450.583,109.367 452.85,109.1C455.183,108.833 457.1,107.583 458.6,105.35C460.033,103.117 460.617,100.6 460.35,97.8C460.117,94.967 459.1,92.633 457.3,90.8L455.45,89.35" style="fill-opacity:0.3;"/>
                        <path d="M601.7,-1.8C600.133,3.633 600.783,7.15 603.65,8.75C606.017,10.017 608.35,9.433 610.65,7L611.85,5.5C611.75,6.9 611.3,8.2 610.5,9.4L610.5,9.5C609.3,11.067 607.867,11.95 606.2,12.15C604.467,12.35 602.9,11.767 601.5,10.4C600.167,9 599.417,7.25 599.25,5.15C599.05,3.083 599.483,1.217 600.55,-0.45L601.7,-1.8M603.9,22.05L603.95,22.1C602.317,27.467 602.933,30.95 605.8,32.55C608.2,33.817 610.55,33.25 612.85,30.85L614,29.35C613.933,30.65 613.55,31.867 612.85,33L612.7,33.2C611.567,34.867 610.15,35.8 608.45,36C606.717,36.2 605.133,35.6 603.7,34.2C602.367,32.833 601.6,31.1 601.4,29C601.233,26.9 601.683,25.033 602.75,23.4C603.083,22.867 603.45,22.45 603.85,22.15L603.9,22.05M459.6,59.45L461.45,60.85C463.25,62.717 464.267,65.067 464.5,67.9C464.767,70.733 464.183,73.25 462.75,75.45C461.283,77.683 459.367,78.933 457,79.2C454.9,79.433 452.967,78.767 451.2,77.2L450.85,76.8C449.483,75.5 448.583,73.95 448.15,72.15C448.95,72.883 449.733,73.517 450.5,74.05C453.867,76.25 456.933,76.2 459.7,73.9C463,70.967 462.967,66.15 459.6,59.45M455.45,89.35L457.3,90.8C459.1,92.633 460.117,94.967 460.35,97.8C460.617,100.6 460.033,103.117 458.6,105.35C457.1,107.583 455.183,108.833 452.85,109.1C450.583,109.367 448.517,108.567 446.65,106.7L445.75,105.7C444.883,104.6 444.283,103.367 443.95,102L445.25,103.1C449.05,106.1 452.467,106.317 455.5,103.75C458.833,100.817 458.817,96.017 455.45,89.35" style="fill:#6b4b24;"/>
                        <path d="M605.65,-0.5C606.617,-0.1 607.267,0.467 607.6,1.2L608.7,2.65C609.1,2.883 609.45,2.833 609.75,2.5L609.8,2.45C610.1,2.017 610.117,1.467 609.85,0.8C609.55,0.1 609.05,-0.55 608.35,-1.15C607.683,-1.717 606.983,-2.067 606.25,-2.2L606.15,-2.2C605.483,-2.333 605,-2.2 604.7,-1.8C604.367,-1.4 604.683,-0.967 605.65,-0.5M603.35,-2.9L604.85,-3.25C606.55,-3.45 608.117,-2.85 609.55,-1.45C610.917,-0.083 611.7,1.633 611.9,3.7L611.85,5.5L610.65,7C608.35,9.433 606.017,10.017 603.65,8.75C600.783,7.15 600.133,3.633 601.7,-1.8C602.233,-2.3 602.783,-2.667 603.35,-2.9M610.6,22.7C609.9,22.1 609.183,21.75 608.45,21.65L607.35,21.7C607.15,21.767 606.983,21.867 606.85,22C606.55,22.433 606.9,22.867 607.9,23.3C608.833,23.733 609.483,24.283 609.85,24.95C610.183,25.65 610.55,26.167 610.95,26.5L611.85,26.4L611.95,26.25C612.317,25.883 612.35,25.333 612.05,24.6C611.783,23.9 611.3,23.267 610.6,22.7M603.9,22.05C604.8,21.217 605.85,20.733 607.05,20.6C608.75,20.4 610.317,21 611.75,22.4C613.15,23.733 613.933,25.45 614.1,27.55L614,29.35L612.85,30.85C610.55,33.25 608.2,33.817 605.8,32.55C602.933,30.95 602.317,27.467 603.95,22.1L603.9,22.05M458.7,58.95L459.6,59.45C462.967,66.15 463,70.967 459.7,73.9C456.933,76.2 453.867,76.25 450.5,74.05C449.733,73.517 448.95,72.883 448.15,72.15C447.883,71.35 447.717,70.567 447.65,69.8C447.417,66.967 448.05,64.433 449.55,62.2C451.083,59.967 452.95,58.717 455.15,58.45C456.383,58.317 457.567,58.483 458.7,58.95M455,60.05L453.6,60.3C452.7,60.7 451.883,61.383 451.15,62.35C450.35,63.317 449.867,64.3 449.7,65.3C449.467,66.333 449.617,67.05 450.15,67.45L450.65,67.8C450.983,67.9 451.3,67.783 451.6,67.45C452.033,66.917 452.367,66.15 452.6,65.15C452.867,64.117 453.6,63.183 454.8,62.35C455.967,61.483 456.283,60.817 455.75,60.35L455,60.05M452.85,88.4C453.783,88.533 454.65,88.85 455.45,89.35C458.817,96.017 458.833,100.817 455.5,103.75C452.467,106.317 449.05,106.1 445.25,103.1L443.95,102C443.683,101.267 443.517,100.517 443.45,99.75C443.217,96.917 443.85,94.383 445.35,92.15C446.85,89.883 448.733,88.617 451,88.35L452.85,88.4M450.65,92.25C451.783,91.317 452.083,90.65 451.55,90.25L449.45,90.15C448.983,90.383 448.55,90.65 448.15,90.95L446.95,92.2C446.183,93.2 445.7,94.2 445.5,95.2C445.367,95.8 445.367,96.267 445.5,96.6L446,97.35L447.4,97.3L448.45,94.95C448.717,93.95 449.45,93.05 450.65,92.25" style="fill:#ba9541;"/>
                        <path d="M605.65,-0.5C604.683,-0.967 604.367,-1.4 604.7,-1.8C605,-2.2 605.483,-2.333 606.15,-2.2L606.25,-2.2C606.983,-2.067 607.683,-1.717 608.35,-1.15C609.05,-0.55 609.55,0.1 609.85,0.8C610.117,1.467 610.1,2.017 609.8,2.45L609.75,2.5C609.45,2.833 609.1,2.883 608.7,2.65L607.6,1.2C607.267,0.467 606.617,-0.1 605.65,-0.5M610.6,22.7C611.3,23.267 611.783,23.9 612.05,24.6C612.35,25.333 612.317,25.883 611.95,26.25L611.85,26.4L610.95,26.5C610.55,26.167 610.183,25.65 609.85,24.95C609.483,24.283 608.833,23.733 607.9,23.3C606.9,22.867 606.55,22.433 606.85,22C606.983,21.867 607.15,21.767 607.35,21.7L608.45,21.65C609.183,21.75 609.9,22.1 610.6,22.7M455,60.05L455.75,60.35C456.283,60.817 455.967,61.483 454.8,62.35C453.6,63.183 452.867,64.117 452.6,65.15C452.367,66.15 452.033,66.917 451.6,67.45C451.3,67.783 450.983,67.9 450.65,67.8L450.15,67.45C449.617,67.05 449.467,66.333 449.7,65.3C449.867,64.3 450.35,63.317 451.15,62.35C451.883,61.383 452.7,60.7 453.6,60.3L455,60.05M450.65,92.25C449.45,93.05 448.717,93.95 448.45,94.95L447.4,97.3L446,97.35L445.5,96.6C445.367,96.267 445.367,95.8 445.5,95.2C445.7,94.2 446.183,93.2 446.95,92.2L448.15,90.95C448.55,90.65 448.983,90.383 449.45,90.15L451.55,90.25C452.083,90.65 451.783,91.317 450.65,92.25" style="fill:#fff;"/>
                        <path d="M611.85,5.5L611.9,3.7C611.7,1.633 610.917,-0.083 609.55,-1.45C608.117,-2.85 606.55,-3.45 604.85,-3.25L603.35,-2.9C602.783,-2.667 602.233,-2.3 601.7,-1.8L600.55,-0.45C599.483,1.217 599.05,3.083 599.25,5.15C599.417,7.25 600.167,9 601.5,10.4C602.9,11.767 604.467,12.35 606.2,12.15C607.867,11.95 609.3,11.067 610.5,9.5L610.5,9.4C611.3,8.2 611.75,6.9 611.85,5.5M614,29.35L614.1,27.55C613.933,25.45 613.15,23.733 611.75,22.4C610.317,21 608.75,20.4 607.05,20.6C605.85,20.733 604.8,21.217 603.9,22.05L603.85,22.15C603.45,22.45 603.083,22.867 602.75,23.4C601.683,25.033 601.233,26.9 601.4,29C601.6,31.1 602.367,32.833 603.7,34.2C605.133,35.6 606.717,36.2 608.45,36C610.15,35.8 611.567,34.867 612.7,33.2L612.85,33C613.55,31.867 613.933,30.65 614,29.35M458.7,58.95L459.6,59.45L461.45,60.85C463.25,62.717 464.267,65.067 464.5,67.9C464.767,70.733 464.183,73.25 462.75,75.45C461.283,77.683 459.367,78.933 457,79.2C454.9,79.433 452.967,78.767 451.2,77.2L450.85,76.8C449.483,75.5 448.583,73.95 448.15,72.15C447.883,71.35 447.717,70.567 447.65,69.8C447.417,66.967 448.05,64.433 449.55,62.2C451.083,59.967 452.95,58.717 455.15,58.45C456.383,58.317 457.567,58.483 458.7,58.95M452.85,88.4C453.783,88.533 454.65,88.85 455.45,89.35L457.3,90.8C459.1,92.633 460.117,94.967 460.35,97.8C460.617,100.6 460.033,103.117 458.6,105.35C457.1,107.583 455.183,108.833 452.85,109.1C450.583,109.367 448.517,108.567 446.65,106.7L445.75,105.7C444.883,104.6 444.283,103.367 443.95,102C443.683,101.267 443.517,100.517 443.45,99.75C443.217,96.917 443.85,94.383 445.35,92.15C446.85,89.883 448.733,88.617 451,88.35L452.85,88.4" style="fill:none;fill-rule:nonzero;stroke:#000;stroke-opacity:0.3;stroke-width:0.05px;"/>
                    </g>
                </g>
            </g>
        </g>
    </g>
    <defs>
        <radialGradient id="_Radial1" cx="0" cy="0" r="1" gradientUnits="userSpaceOnUse" gradientTransform="matrix(622.1,-70.697,58.2451,654.131,238.85,-837.85)"><stop offset="0" style="stop-color:#485651;stop-opacity:1"/><stop offset="0.22" style="stop-color:#485651;stop-opacity:1"/><stop offset="0.53" style="stop-color:#2c3f3f;stop-opacity:1"/><stop offset="0.86" style="stop-color:#162326;stop-opacity:1"/><stop offset="1" style="stop-color:#162326;stop-opacity:1"/></radialGradient>
        <radialGradient id="_Radial2" cx="0" cy="0" r="1" gradientUnits="userSpaceOnUse" gradientTransform="matrix(415.58,-47.1859,38.912,436.961,462.75,-148.95)"><stop offset="0" style="stop-color:#595a37;stop-opacity:1"/><stop offset="0.22" style="stop-color:#595a37;stop-opacity:1"/><stop offset="0.55" style="stop-color:#393a29;stop-opacity:1"/><stop offset="1" style="stop-color:#393a29;stop-opacity:1"/></radialGradient>
        <radialGradient id="_Radial3" cx="0" cy="0" r="1" gradientUnits="userSpaceOnUse" gradientTransform="matrix(229.048,-26.0506,21.463,240.763,535.7,-54)"><stop offset="0" style="stop-color:#485651;stop-opacity:1"/><stop offset="0.22" style="stop-color:#485651;stop-opacity:1"/><stop offset="0.53" style="stop-color:#2c3f3f;stop-opacity:1"/><stop offset="0.86" style="stop-color:#162326;stop-opacity:1"/><stop offset="1" style="stop-color:#162326;stop-opacity:1"/></radialGradient>
    </defs>
</svg>
