<?xml version="1.0" encoding="UTF-8" standalone="no"?>
<!DOCTYPE svg PUBLIC "-//W3C//DTD SVG 1.1//EN" "http://www.w3.org/Graphics/SVG/1.1/DTD/svg11.dtd">
<svg width="100%" height="100%" viewBox="0 0 16 38" version="1.1" xmlns="http://www.w3.org/2000/svg" xmlns:xlink="http://www.w3.org/1999/xlink" xml:space="preserve" xmlns:serif="http://www.serif.com/" style="fill-rule:evenodd;clip-rule:evenodd;stroke-linecap:round;stroke-linejoin:round;">
    <g transform="matrix(1,0,0,1,-17.25,-6.45)">
        <g transform="matrix(1,0,0,1,25,25)">
            <g id="sprite0">
                <g id="shape0">
                    <path d="M0.75,-17.95L0.6,-18.05L1.3,-17.95C2.567,-17.55 3.317,-16.3 3.55,-14.2C3.683,-13.033 3.683,-12 3.55,-11.1L3.5,-10.75L3.35,-10.3L3.95,-10.15L4.25,-9.85L4.3,-9.65C4.267,-9.417 4.033,-9.133 3.6,-8.8L4.9,-8.75L4.95,-8.65L4.9,-8.35L4.9,-8.3L5,-7.85L5.05,-7.15C5.117,-6.417 5.067,-5.683 4.9,-4.95L4.7,-4.35L4.55,-4.25L4.5,-2.7C4.533,3.1 5.45,7.367 7.25,10.1L4.2,10.65C3.033,10.983 2.35,11.333 2.15,11.7L2.3,13.05C2.133,13.817 1.717,14.367 1.05,14.7L-0.85,14.85L-1.1,14.8L-2.45,15.05L-3.45,15.55L-4.9,16.4L-3.25,18.05C-5.65,18.317 -6.983,17.767 -7.25,16.4L-6.6,12.35L-5.2,6.25L-5.25,6.25L-5.15,5.95L-4.9,4.65L-5.8,4.5L-5.6,4.2L-5.4,4C-5.233,3.833 -5,3.683 -4.7,3.55L-3.9,-0.6L-3.8,-1.4L-4.3,-1.4C-3.8,-3 -3.583,-4.467 -3.65,-5.8L-3.75,-5.8L-3.85,-6.7L-3,-6.95C-3.433,-6.983 -3.617,-7.167 -3.55,-7.5L-3.35,-7.95L-3.2,-8.15L-2.4,-8.65C-1,-11.483 -1.317,-14.2 -3.35,-16.8C-2.117,-16.967 -0.967,-16.083 0.1,-14.15L2.25,-14.85C2.183,-15.917 1.683,-16.95 0.75,-17.95" style="fill:#280a02;fill-opacity:0;"/>
                    <path d="M0.75,-17.95C1.683,-16.95 2.183,-15.917 2.25,-14.85L0.1,-14.15C-0.967,-16.083 -2.117,-16.967 -3.35,-16.8C-1.317,-14.2 -1,-11.483 -2.4,-8.65L-3.2,-8.15L-3.35,-7.95L-3.55,-7.5C-3.617,-7.167 -3.433,-6.983 -3,-6.95L-3.85,-6.7L-3.75,-5.8L-3.65,-5.8C-3.583,-4.467 -3.8,-3 -4.3,-1.4L-3.8,-1.4L-3.9,-0.6L-4.7,3.55C-5,3.683 -5.233,3.833 -5.4,4L-5.6,4.2L-5.8,4.5L-4.9,4.65L-5.15,5.95L-5.25,6.25L-5.2,6.25L-6.6,12.35L-7.25,16.4C-6.983,17.767 -5.65,18.317 -3.25,18.05L-4.9,16.4L-3.45,15.55L-2.45,15.05L-1.1,14.8L-0.85,14.85L1.05,14.7C1.717,14.367 2.133,13.817 2.3,13.05L2.15,11.7C2.35,11.333 3.033,10.983 4.2,10.65L7.25,10.1C5.45,7.367 4.533,3.1 4.5,-2.7L4.55,-4.25L4.7,-4.35L4.9,-4.95C5.067,-5.683 5.117,-6.417 5.05,-7.15L5,-7.85L4.9,-8.3L4.9,-8.35L4.95,-8.65L4.9,-8.75L3.6,-8.8C4.033,-9.133 4.267,-9.417 4.3,-9.65L4.25,-9.85L3.95,-10.15L3.35,-10.3L3.5,-10.75L3.55,-11.1C3.683,-12 3.683,-13.033 3.55,-14.2C3.317,-16.3 2.567,-17.55 1.3,-17.95L0.6,-18.05L0.75,-17.95Z" style="fill:none;fill-rule:nonzero;stroke:#280a02;stroke-width:1px;"/>
                </g>
                <g id="sprite1">
                    <g id="shape1">
                        <path d="M-3.15,10.8L-4,11.1L-1.6,-4.8L-1.4,-6.4L3.2,-6.6C3,-0.4 3.483,4.417 4.65,7.85L3.85,8.65C3.05,7.183 2.55,5.433 2.35,3.4C2.05,5.667 1.95,7.9 2.05,10.1L-1.4,11.1C-1.467,7.767 -1.167,4.417 -0.5,1.05C-1.833,4.45 -2.717,7.7 -3.15,10.8" style="fill:#eee7ce;"/>
                        <path d="M-1.4,-6.4L-1.6,-4.8L-4,11.1L-3.15,10.8C-3.383,12.4 -3.483,13.983 -3.45,15.55L-4.9,16.4C-5.8,15.233 -6.367,13.883 -6.6,12.35C-5,5.717 -3.833,-0.5 -3.1,-6.3L-1.4,-6.4M-1.4,11.1L2.05,10.1L2.15,11.7L2.3,13.05C2.133,13.817 1.717,14.367 1.05,14.7L-0.85,14.85L-1.1,14.8L-1.4,11.1M3.85,8.65L4.65,7.85C3.483,4.417 3,-0.4 3.2,-6.6L4.6,-6.65C4.2,1.217 5.083,6.8 7.25,10.1L5.15,10.45L3.85,8.65" style="fill:#477db8;"/>
                        <path d="M-3.45,15.55C-3.483,13.983 -3.383,12.4 -3.15,10.8L-1.4,11.1L-1.1,14.8L-2.45,15.05L-3.45,15.55M2.15,11.7L2.05,10.1L3.85,8.65L5.15,10.45L4.2,10.65C3.033,10.983 2.35,11.333 2.15,11.7" style="fill:#386291;"/>
                        <path d="M-3.15,10.8C-2.717,7.7 -1.833,4.45 -0.5,1.05C-1.167,4.417 -1.467,7.767 -1.4,11.1L-3.15,10.8M2.05,10.1C1.95,7.9 2.05,5.667 2.35,3.4C2.55,5.433 3.05,7.183 3.85,8.65L2.05,10.1" style="fill:#9e9a89;"/>
                        <path d="M-6.6,12.35C-6.367,13.883 -5.8,15.233 -4.9,16.4L-3.25,18.05C-5.65,18.317 -6.983,17.767 -7.25,16.4L-6.6,12.35" style="fill:#508dcf;"/>
                        <path d="M-3.15,10.8C-2.717,7.7 -1.833,4.45 -0.5,1.05M2.05,10.1C1.95,7.9 2.05,5.667 2.35,3.4M-3.1,-6.3C-3.833,-0.5 -5,5.717 -6.6,12.35C-6.367,13.883 -5.8,15.233 -4.9,16.4L-3.45,15.55C-3.483,13.983 -3.383,12.4 -3.15,10.8M-1.1,14.8L-0.85,14.85L1.05,14.7C1.717,14.367 2.133,13.817 2.3,13.05L2.15,11.7L2.05,10.1M5.15,10.45L7.25,10.1C5.083,6.8 4.2,1.217 4.6,-6.65M2.15,11.7C2.35,11.333 3.033,10.983 4.2,10.65L5.15,10.45M-1.1,14.8L-2.45,15.05L-3.45,15.55M-6.6,12.35L-7.25,16.4C-6.983,17.767 -5.65,18.317 -3.25,18.05L-4.9,16.4" style="fill:none;fill-rule:nonzero;stroke:#000;stroke-opacity:0.3;stroke-width:0.05px;"/>
                        <path d="M4.5,-2.75L4.5,-2.7C3.567,-2.233 2.65,-1.817 1.75,-1.45L1.75,-1.3L1.8,-0.8L1.85,0.15L1.85,1.05L1.5,3.3L1.7,3.4L1.7,3.8L1.75,3.8L2.25,4.45L2.55,5.05C2.683,5.417 2.7,5.783 2.6,6.15L2.1,6.05L1.65,5.8L1,5.4L1,5.5C0.9,6.067 0.65,6.483 0.25,6.75L-0.3,6.4L-0.95,5.35L-1.45,5.5L-1.5,5.5C-1.3,5.933 -1.2,6.333 -1.2,6.7C-1.2,7.1 -1.3,7.467 -1.5,7.8L-2.25,7.25L-2.4,7.1L-2.75,6.7L-2.8,6.8C-3.033,7.333 -3.383,7.7 -3.85,7.9L-4.25,7.4C-4.483,7.033 -4.583,6.633 -4.55,6.2L-5.05,6.25L-5.25,6.25L-5,5.25L-3.75,4.75L-3.6,4.7L-3.55,4.45L-3.5,4.4L-3,4.2L-2.9,4.2L-2.35,3.05L-2.25,2.85L-1.65,1.1L-1.5,0.55L-1.45,0.35L-1.35,-0.25L-2.8,0.25L-4.05,0.2L-3.4,-4.15L-3.1,-4.2L-3.05,-4.4L4.6,-6.65L4.5,-2.75M0.25,1.7L0.35,0.9L0.35,0.4L0,0.35L-0.05,0.65L-0.65,2.55L-1.4,4.25L-0.6,3.8L-0.5,3.75L-0.5,3.4L-0.05,3.15L0.05,3.1L0.25,1.95L0.25,1.7" style="fill-opacity:0.3;"/>
                        <path d="M-3.55,3.1L-3.1,3L-2.3,3.15L-1.6,3.3L-1.55,3.3L-1.4,3.65L-1.55,4.05L-2.3,4.3L-3.15,4.15L-3.65,3.7L-3.65,3.2L-3.55,3.1M-1,5.1C-1,5.5 -1.1,5.867 -1.3,6.2L-2.05,5.65L-2.55,5.1L-2.6,5.2C-2.833,5.733 -3.183,6.083 -3.65,6.25L-4.05,5.8C-4.283,5.433 -4.383,5.033 -4.35,4.6L-4.85,4.65L-5.8,4.5L-5.6,4.2L-5.4,4C-5.467,4.267 -5.333,4.417 -5,4.45L-3.95,4.55L-4.25,4.6L-4.05,5.35L-3.6,5.95L-2.5,4.6L-2.5,4.5L-1.9,5.4L-1.35,5.85L-1,5.1M-4.35,4.6L-4.25,4.6L-4.35,4.6" style="fill:#5d4524;"/>
                        <path d="M-3.55,3.1L-3.65,3.2L-3.65,3.7L-3.15,4.15L-2.3,4.3L-1.55,4.05L-1.4,3.65C-1.133,4.183 -1,4.667 -1,5.1L-1.35,5.85L-1.9,5.4L-2.5,4.5L-2.5,4.6L-3.6,5.95L-4.05,5.35L-4.25,4.6L-3.95,4.55L-5,4.45C-5.333,4.417 -5.467,4.267 -5.4,4C-5.033,3.667 -4.417,3.367 -3.55,3.1" style="fill:#b98848;"/>
                        <path d="M-1.4,3.65L-1.55,3.3L-1.6,3.3L-2.3,3.15L-3.1,3L-3.55,3.1C-4.417,3.367 -5.033,3.667 -5.4,4L-5.6,4.2L-5.8,4.5L-4.85,4.65L-4.35,4.6C-4.383,5.033 -4.283,5.433 -4.05,5.8L-3.65,6.25C-3.183,6.083 -2.833,5.733 -2.6,5.2L-2.55,5.1L-2.05,5.65L-1.3,6.2C-1.1,5.867 -1,5.5 -1,5.1C-1,4.667 -1.133,4.183 -1.4,3.65M-4.25,4.6L-4.35,4.6M-4.25,4.6L-3.95,4.55" style="fill:none;fill-rule:nonzero;stroke:#000;stroke-opacity:0.3;stroke-width:0.05px;"/>
                        <path d="M-1.3,-1.05L-1.25,-1.3L-1.05,-2.6L0.35,-2.25L0.25,-1.5C-0.017,-1.3 -0.283,-1.167 -0.55,-1.1L-1.3,-1.05L-0.55,-1.1C-0.283,-1.167 -0.017,-1.3 0.25,-1.5L0.15,-0.95L-1.45,-0.55L-1.3,-1.05" style="fill:#5d4524;"/>
                        <path d="M0.15,-0.95L-0.45,0.95L-1.45,3.15L-2.85,2.8L-2.15,1.45L-2.05,1.2L-1.45,-0.55L0.15,-0.95M-0.45,0.95L-1.4,1.4L-2.15,1.45L-1.4,1.4L-0.45,0.95" style="fill:#b98848;"/>
                        <path d="M0.25,-1.5L0.35,-2.25L-1.05,-2.6L-1.25,-1.3L-1.3,-1.05L-0.55,-1.1C-0.283,-1.167 -0.017,-1.3 0.25,-1.5L0.15,-0.95L-0.45,0.95L-1.45,3.15L-2.85,2.8L-2.15,1.45L-2.05,1.2L-1.45,-0.55L-1.3,-1.05M-2.15,1.45L-1.4,1.4L-0.45,0.95" style="fill:none;fill-rule:nonzero;stroke:#000;stroke-opacity:0.3;stroke-width:0.05px;"/>
                        <path d="M-1.3,3.25C-1.2,3.383 -1.25,3.517 -1.45,3.65L-2.1,3.85L-2.85,3.7L-3.35,3.3L-3.35,2.8L-3.3,2.75L-3.25,2.9L-2.75,3.35L-2,3.5L-1.3,3.25" style="fill:#386291;"/>
                        <path d="M-3.3,2.75L-2.8,2.6L-2,2.7L-1.35,3.2L-1.3,3.25L-2,3.5L-2.75,3.35L-3.25,2.9L-3.3,2.75" style="fill:#477db8;"/>
                        <path d="M-1.3,3.25C-1.2,3.383 -1.25,3.517 -1.45,3.65L-2.1,3.85L-2.85,3.7L-3.35,3.3L-3.35,2.8L-3.3,2.75L-2.8,2.6L-2,2.7L-1.35,3.2L-1.3,3.25Z" style="fill:none;fill-rule:nonzero;stroke:#000;stroke-opacity:0.3;stroke-width:0.05px;"/>
                        <path d="M-0.75,3.75L-1.25,3.85L-2.3,3.95L-2.2,3.65L-2.05,3.4L-0.45,2.15L0,1.95L0.85,1.9L1.6,1.95L1.65,1.95L1.95,2.2L1.85,2.6C1.75,2.8 1.533,2.933 1.2,3L0.25,3.05C-0.017,3.783 0.033,4.367 0.4,4.8L1.05,3.35L1.95,3.9L2.65,4.2L2.75,3.45C2.883,3.817 2.9,4.167 2.8,4.5C2.567,4.533 2.25,4.433 1.85,4.2L1.2,3.75L1.15,3.9C1.083,4.433 0.85,4.833 0.45,5.1L-0.1,4.75C-0.433,4.483 -0.65,4.15 -0.75,3.75L-0.65,3.7L-0.35,3.6L-0.65,3.7L-0.75,3.75" style="fill:#5d4524;"/>
                        <path d="M2.75,3.45L2.65,4.2L1.95,3.9L1.05,3.35L0.4,4.8C0.033,4.367 -0.017,3.783 0.25,3.05L1.2,3C1.533,2.933 1.75,2.8 1.85,2.6L1.95,2.2C2.35,2.633 2.617,3.05 2.75,3.45" style="fill:#b98848;"/>
                        <path d="M1.95,2.2L1.65,1.95L1.6,1.95L0.85,1.9L0,1.95L-0.45,2.15L-2.05,3.4L-2.2,3.65L-2.3,3.95L-1.25,3.85L-0.75,3.75L-0.65,3.7L-0.35,3.6M2.75,3.45C2.617,3.05 2.35,2.633 1.95,2.2M-0.75,3.75C-0.65,4.15 -0.433,4.483 -0.1,4.75L0.45,5.1C0.85,4.833 1.083,4.433 1.15,3.9L1.2,3.75L1.85,4.2C2.25,4.433 2.567,4.533 2.8,4.5C2.9,4.167 2.883,3.817 2.75,3.45" style="fill:none;fill-rule:nonzero;stroke:#000;stroke-opacity:0.3;stroke-width:0.05px;"/>
                        <path d="M0.55,-2.2L0.5,-2.4L0.3,-3.7L1.85,-3.65L1.95,-2.9L1.25,-2.4L0.55,-2.2L1.25,-2.4L1.95,-2.9L2,-2.4L2.05,-1.45L1.05,-0.85L1,0.2L0.45,0.35L0.45,0.1L0.55,-0.7L0.55,-2.2M0.95,1.75L0.2,1.7L0.45,0.35L1,0.2L0.95,1.75" style="fill:#5d4524;"/>
                        <path d="M2.05,-1.45L2,-0.55L1.7,1.75L0.95,1.75L1,0.2L1.05,-0.85L2.05,-1.45M2,-0.55L1.2,0.1L1,0.2L1.2,0.1L2,-0.55" style="fill:#b98848;"/>
                        <path d="M1.95,-2.9L1.85,-3.65L0.3,-3.7L0.5,-2.4L0.55,-2.2L1.25,-2.4L1.95,-2.9L2,-2.4L2.05,-1.45L2,-0.55L1.7,1.75L0.95,1.75L0.2,1.7L0.45,0.35L0.45,0.1L0.55,-0.7L0.55,-2.2M1,0.2L0.45,0.35M1,0.2L1.2,0.1L2,-0.55" style="fill:none;fill-rule:nonzero;stroke:#000;stroke-opacity:0.3;stroke-width:0.05px;"/>
                        <path d="M1.9,1.8L1.85,2.2L1.25,2.55L0.45,2.6L0.2,2.5L-0.15,2.3L-0.3,1.85L-0.3,1.8C-0.2,1.667 -0.05,1.567 0.15,1.5L0.7,1.45L0.35,2.2L1.25,2.2L1.85,1.85L1.9,1.8" style="fill:#386291;"/>
                        <path d="M0.7,1.45L1.05,1.45L1.8,1.75L1.9,1.8L1.85,1.85L1.25,2.2L0.35,2.2L0.7,1.45" style="fill:#477db8;"/>
                        <path d="M1.9,1.8L1.85,2.2L1.25,2.55L0.45,2.6L0.2,2.5L-0.15,2.3L-0.3,1.85L-0.3,1.8C-0.2,1.667 -0.05,1.567 0.15,1.5L0.7,1.45L1.05,1.45L1.8,1.75L1.9,1.8Z" style="fill:none;fill-rule:nonzero;stroke:#000;stroke-opacity:0.3;stroke-width:0.05px;"/>
                        <path d="M-0.3,-1.6L-0.4,-1.7L-0.5,-1.85C-0.533,-2.317 -0.1,-2.783 0.8,-3.25L1.4,-3L0.55,-2L1.4,-3C1.633,-3.1 1.767,-3.067 1.8,-2.9L1.8,-2.6L0.55,-2L-0.3,-1.6" style="fill:#5d4524;"/>
                        <path d="M-0.3,-1.6L0.55,-2L0.05,-1.4L0.55,-2L1.8,-2.6L1,-1.4C0.5,-1.167 0.183,-1.167 0.05,-1.4L-0.3,-1.6" style="fill:#b98848;"/>
                        <path d="M1.4,-3L0.8,-3.25C-0.1,-2.783 -0.533,-2.317 -0.5,-1.85L-0.4,-1.7L-0.3,-1.6L0.05,-1.4L0.55,-2L1.4,-3C1.633,-3.1 1.767,-3.067 1.8,-2.9L1.8,-2.6L1,-1.4C0.5,-1.167 0.183,-1.167 0.05,-1.4" style="fill:none;fill-rule:nonzero;stroke:#000;stroke-opacity:0.3;stroke-width:0.05px;"/>
                        <path d="M-2.4,-2L-2.6,-1.4L-4.3,-1.4C-3.7,-3.3 -3.517,-5.017 -3.75,-6.55L-2.05,-6.55L-2,-6.25L-1.95,-4.9C-1.983,-4 -2.133,-3.05 -2.4,-2.05L-2.4,-2M-2.95,-6.55L-2.85,-6L-2.8,-4.9C-2.833,-4 -3,-3.05 -3.3,-2.05L-3.45,-1.4L-3.3,-2.05C-3,-3.05 -2.833,-4 -2.8,-4.9L-2.85,-6L-2.95,-6.55" style="fill:#211910;"/>
                        <path d="M-1.95,-4.9L-1.6,-4.95L2.45,-3.95L-2.4,-2L-2.4,-2.05C-2.133,-3.05 -1.983,-4 -1.95,-4.9M4.9,-4.95L3,-4.2L5.05,-7.15C5.117,-6.417 5.067,-5.683 4.9,-4.95M4.8,-8.6L-2.05,-6.55L-3.75,-6.55L3.1,-8.6L4.8,-8.6" style="fill:#5a442c;"/>
                        <path d="M-2.4,-2L2.45,-3.95L-1.6,-4.95L-1.95,-4.9L-2,-6.25L-2.05,-6.55L4.8,-8.6L5,-7.85L5.05,-7.15L3,-4.2L4.9,-4.95L4.7,-4.35C2.3,-3.15 -0.133,-2.167 -2.6,-1.4L-2.4,-2" style="fill:#2d2317;"/>
                        <path d="M-2.6,-1.4C-0.133,-2.167 2.3,-3.15 4.7,-4.35L4.9,-4.95C5.067,-5.683 5.117,-6.417 5.05,-7.15L5,-7.85L4.8,-8.6L3.1,-8.6L-3.75,-6.55C-3.517,-5.017 -3.7,-3.3 -4.3,-1.4L-2.6,-1.4M-3.45,-1.4L-3.3,-2.05C-3,-3.05 -2.833,-4 -2.8,-4.9L-2.85,-6L-2.95,-6.55" style="fill:none;fill-rule:nonzero;stroke:#000;stroke-opacity:0.3;stroke-width:0.05px;"/>
                        <path d="M-1.9,-5.85L-3.6,-5.8L-3.75,-5.8L-3.85,-6.7L3.2,-8.8L4.9,-8.75L4.95,-8.65L4.9,-8.35C4.233,-7.083 3.417,-5.9 2.45,-4.8L-1.9,-5.85" style="fill:#5a442c;"/>
                        <path d="M-1.9,-5.85L2.45,-4.8C3.417,-5.9 4.233,-7.083 4.9,-8.35L4.95,-8.65L4.9,-8.75L3.2,-8.8L-3.85,-6.7L-3.75,-5.8L-3.6,-5.8L-1.9,-5.85Z" style="fill:none;fill-rule:nonzero;stroke:#000;stroke-opacity:0.3;stroke-width:0.05px;"/>
                        <path d="M1.35,-5.2L1.6,-5.65C1.8,-5.817 2.033,-5.917 2.3,-5.95L2.95,-5.85L3.15,-5.5L2.85,-5.05C2.65,-4.85 2.417,-4.733 2.15,-4.7L1.55,-4.85L1.35,-5.2" style="fill:#477db8;"/>
                        <path d="M3.15,-5.5L3.15,-5.3L2.8,-4.65C2.6,-4.45 2.367,-4.333 2.1,-4.3C1.833,-4.267 1.633,-4.317 1.5,-4.45C1.333,-4.583 1.267,-4.767 1.3,-5L1.35,-5.2L1.55,-4.85L2.15,-4.7C2.417,-4.733 2.65,-4.85 2.85,-5.05L3.15,-5.5" style="fill:#386291;"/>
                        <path d="M1.35,-5.2L1.6,-5.65C1.8,-5.817 2.033,-5.917 2.3,-5.95L2.95,-5.85L3.15,-5.5L3.15,-5.3L2.8,-4.65C2.6,-4.45 2.367,-4.333 2.1,-4.3C1.833,-4.267 1.633,-4.317 1.5,-4.45C1.333,-4.583 1.267,-4.767 1.3,-5L1.35,-5.2Z" style="fill:none;fill-rule:nonzero;stroke:#000;stroke-opacity:0.3;stroke-width:0.05px;"/>
                        <path d="M2.25,-14.85C2.183,-15.917 1.683,-16.95 0.75,-17.95L0.6,-18.05L1.3,-17.95C2.567,-17.55 3.317,-16.3 3.55,-14.2C3.683,-13.033 3.683,-12 3.55,-11.1L3.5,-10.75L3.35,-10.3L3.95,-10.15L4.1,-10L3.15,-9.2L3.1,-9.4L2.55,-9.95L2.5,-10.4L2.25,-14.85M-3.35,-7.95L-3.2,-8.15L-2.4,-8.65C-1,-11.483 -1.317,-14.2 -3.35,-16.8C-2.117,-16.967 -0.967,-16.083 0.1,-14.15L0.05,-9.5L-1.45,-8.75L0.05,-8.95L-0.05,-8.05L-0.5,-8L-2.55,-7.75C-2.95,-7.717 -3.217,-7.783 -3.35,-7.95" style="fill:#477db8;"/>
                        <path d="M3.15,-9.2L4.1,-10L4.25,-9.85L4.3,-9.65C4.233,-9.317 3.783,-8.883 2.95,-8.35C3.15,-8.65 3.217,-8.933 3.15,-9.2M-0.55,-7.2L-2.65,-6.95C-3.35,-6.917 -3.65,-7.1 -3.55,-7.5L-3.35,-7.95C-3.217,-7.783 -2.95,-7.717 -2.55,-7.75L-0.5,-8L-0.05,-8.05L-0.15,-7.9L-0.55,-7.2M0.05,-8.95L-1.45,-8.75L0.05,-9.5L0.05,-8.95" style="fill:#386291;"/>
                        <path d="M2.25,-14.85L2.5,-10.4L0.05,-9.5L0.1,-14.15L2.25,-14.85M2.55,-9.95L3.1,-9.4L3.15,-9.2L3.05,-9.1L2.75,-9L-0.05,-8.05L0.05,-8.95C0.583,-9.017 1.417,-9.35 2.55,-9.95" style="fill:#eee7ce;"/>
                        <path d="M2.5,-10.4L2.55,-9.95C1.417,-9.35 0.583,-9.017 0.05,-8.95L0.05,-9.5L2.5,-10.4M2.95,-8.35L2.65,-8.2L-0.55,-7.2L-0.15,-7.9L-0.05,-8.05L2.75,-9L3.05,-9.1L3.15,-9.2C3.217,-8.933 3.15,-8.65 2.95,-8.35" style="fill:#9e9a89;"/>
                        <path d="M4.1,-10L3.95,-10.15L3.35,-10.3L3.5,-10.75L3.55,-11.1C3.683,-12 3.683,-13.033 3.55,-14.2C3.317,-16.3 2.567,-17.55 1.3,-17.95L0.6,-18.05L0.75,-17.95C1.683,-16.95 2.183,-15.917 2.25,-14.85L0.1,-14.15C-0.967,-16.083 -2.117,-16.967 -3.35,-16.8C-1.317,-14.2 -1,-11.483 -2.4,-8.65L-3.2,-8.15L-3.35,-7.95L-3.55,-7.5C-3.65,-7.1 -3.35,-6.917 -2.65,-6.95L-0.55,-7.2L2.65,-8.2L2.95,-8.35C3.783,-8.883 4.233,-9.317 4.3,-9.65L4.25,-9.85L4.1,-10M0.05,-8.95L-1.45,-8.75M0.05,-8.95C0.583,-9.017 1.417,-9.35 2.55,-9.95" style="fill:none;fill-rule:nonzero;stroke:#000;stroke-opacity:0.3;stroke-width:0.05px;"/>
                    </g>
                </g>
            </g>
        </g>
    </g>
</svg>
