<?xml version="1.0" encoding="UTF-8" standalone="no"?>
<!DOCTYPE svg PUBLIC "-//W3C//DTD SVG 1.1//EN" "http://www.w3.org/Graphics/SVG/1.1/DTD/svg11.dtd">
<svg width="100%" height="100%" viewBox="0 0 16 24" version="1.1" xmlns="http://www.w3.org/2000/svg" xmlns:xlink="http://www.w3.org/1999/xlink" xml:space="preserve" xmlns:serif="http://www.serif.com/" style="fill-rule:evenodd;clip-rule:evenodd;stroke-linecap:round;stroke-linejoin:round;">
    <g id="sprite0" transform="matrix(1,0,0,1,7.55,11.55)">
        <g>
            <g id="shape0">
                <path d="M3.25,-8.75L3.9,-8.65L4.25,-8.5L4.7,-8.15L4.9,-7.95L4.75,-7.9L6.5,-7.4L6.8,-7.1C7,-6.833 7.083,-6.483 7.05,-6.05L7.05,-5.9L6.95,-5.6L6.6,-4.95L6,-4.45L5.8,-4.4L5.6,-4.4L5.4,-4.45L5.3,-4.5L4.95,-4.6L4.05,5.9C2.917,7.7 1.583,9.233 0.05,10.5L-1.05,11.1C-2.583,9.367 -3.983,6.783 -5.25,3.35L-5.25,-7.1L-5.8,-7.55L-6,-7.85L-6.2,-7.9L-6.75,-8.2L-7.05,-9.2L-7.05,-9.4L-6.8,-10.35C-6.633,-10.683 -6.35,-10.917 -5.95,-11.05L-4.95,-10.75L-4.25,-10.9L-3.55,-10.85L-3.2,-10.65L-2.75,-10.3L-2.55,-10.1L-2.65,-10.05L2.55,-8.55L3.25,-8.75" style="fill:rgb(40,10,2);"/>
                <path d="M3.25,-8.75L3.9,-8.65L4.25,-8.5L4.7,-8.15L4.9,-7.95L4.75,-7.9L6.5,-7.4L6.8,-7.1C7,-6.833 7.083,-6.483 7.05,-6.05L7.05,-5.9L6.95,-5.6L6.6,-4.95L6,-4.45L5.8,-4.4L5.6,-4.4L5.4,-4.45L5.3,-4.5L4.95,-4.6L4.05,5.9C2.917,7.7 1.583,9.233 0.05,10.5L-1.05,11.1C-2.583,9.367 -3.983,6.783 -5.25,3.35L-5.25,-7.1L-5.8,-7.55L-6,-7.85L-6.2,-7.9L-6.75,-8.2L-7.05,-9.2L-7.05,-9.4L-6.8,-10.35C-6.633,-10.683 -6.35,-10.917 -5.95,-11.05L-4.95,-10.75L-4.25,-10.9L-3.55,-10.85L-3.2,-10.65L-2.75,-10.3L-2.55,-10.1L-2.65,-10.05L2.55,-8.55L3.25,-8.75Z" style="fill:none;fill-rule:nonzero;stroke:rgb(40,10,2);stroke-width:1px;"/>
            </g>
            <g id="sprite1" transform="matrix(0.0498,0,0,0.0497,-7.54983,-10.2495)">
                <g id="shape1">
                    <path d="M46,32.65C53.367,29.017 60.717,25.367 68.05,21.7L253.75,78.05L253.6,79.95L233.9,89.75L46,32.65M233.3,325.1C210.1,361.233 183.317,392.1 152.95,417.7L130.3,430.1C136.933,424.967 143.417,419.517 149.75,413.75C173.417,392.05 194.633,366.383 213.4,336.75L233.3,325.1" style="fill:rgb(70,13,0);"/>
                    <path d="M233.9,89.75L253.6,79.95L233.3,325.1L213.4,336.75L233.9,89.75" style="fill:rgb(96,18,0);"/>
                    <path d="M46,32.65L233.9,89.75L213.4,336.75C194.633,366.383 173.417,392.05 149.75,413.75C143.417,419.517 136.933,424.967 130.3,430.1C99.833,395.167 71.733,343.167 46,274.1L46,32.65M94.8,161.9C100.067,152.067 108.05,146.967 118.75,146.6C129.383,146.1 139.567,150.467 149.3,159.7C159.033,169.067 165.55,180.617 168.85,194.35C171.983,207.983 170.967,219.717 165.8,229.55C160.533,239.483 152.65,244.75 142.15,245.35C131.317,245.617 121.033,241.083 111.3,231.75C101.467,222.483 95,211.033 91.9,197.4C88.567,183.667 89.533,171.833 94.8,161.9M161.85,153.6C142.383,125.333 120.917,117.783 97.45,130.95C105.717,111.183 119.4,100.617 138.5,99.25C149.3,105.383 157.083,123.5 161.85,153.6M109,175.65C105.867,181.583 105.267,188.683 107.2,196.95C109.067,205.05 112.967,211.883 118.9,217.45C124.667,223.083 130.8,225.8 137.3,225.6C143.533,225.2 148.217,222.033 151.35,216.1C154.45,210.267 155.083,203.267 153.25,195.1C151.283,186.9 147.383,180.033 141.55,174.5C135.717,168.933 129.633,166.3 123.3,166.6C116.867,166.8 112.1,169.817 109,175.65M101.8,293.25C93.733,285.25 88.133,273.9 85,259.2C90.867,253.067 97.933,249.667 106.2,249L101.8,293.25M146.25,358.25C162.483,344.417 176.833,326.067 189.3,303.2L203.8,99.55L76.4,62L72,262.25C84.2,294.517 97.35,323.6 111.45,349.5L127.95,300.4L146.25,358.25M145.05,304.95L145.05,261.25C151.083,260.65 159.8,267.567 171.2,282C164.2,298.567 155.483,306.217 145.05,304.95" style="fill:rgb(186,41,14);"/>
                    <path d="M94.8,161.9C89.533,171.833 88.567,183.667 91.9,197.4C95,211.033 101.467,222.483 111.3,231.75C121.033,241.083 131.317,245.617 142.15,245.35C152.65,244.75 160.533,239.483 165.8,229.55C170.967,219.717 171.983,207.983 168.85,194.35C165.55,180.617 159.033,169.067 149.3,159.7C139.567,150.467 129.383,146.1 118.75,146.6C108.05,146.967 100.067,152.067 94.8,161.9M109,175.65C112.1,169.817 116.867,166.8 123.3,166.6C129.633,166.3 135.717,168.933 141.55,174.5C147.383,180.033 151.283,186.9 153.25,195.1C155.083,203.267 154.45,210.267 151.35,216.1C148.217,222.033 143.533,225.2 137.3,225.6C130.8,225.8 124.667,223.083 118.9,217.45C112.967,211.883 109.067,205.05 107.2,196.95C105.267,188.683 105.867,181.583 109,175.65M161.85,153.6C157.083,123.5 149.3,105.383 138.5,99.25C119.4,100.617 105.717,111.183 97.45,130.95C120.917,117.783 142.383,125.333 161.85,153.6M146.25,358.25L127.95,300.4L111.45,349.5C97.35,323.6 84.2,294.517 72,262.25L76.4,62L203.8,99.55L189.3,303.2C176.833,326.067 162.483,344.417 146.25,358.25M101.8,293.25L106.2,249C97.933,249.667 90.867,253.067 85,259.2C88.133,273.9 93.733,285.25 101.8,293.25M145.05,304.95C155.483,306.217 164.2,298.567 171.2,282C159.8,267.567 151.083,260.65 145.05,261.25L145.05,304.95" style="fill:rgb(158,180,199);"/>
                    <path d="M253.6,79.95L253.75,78.05L68.05,21.7C60.717,25.367 53.367,29.017 46,32.65L46,274.1C71.733,343.167 99.833,395.167 130.3,430.1L152.95,417.7C183.317,392.1 210.1,361.233 233.3,325.1L253.6,79.95M68.05,21.7L65.9,20.95M68.05,21.7L69.4,20.95M94.8,161.9C100.067,152.067 108.05,146.967 118.75,146.6C129.383,146.1 139.567,150.467 149.3,159.7C159.033,169.067 165.55,180.617 168.85,194.35C171.983,207.983 170.967,219.717 165.8,229.55C160.533,239.483 152.65,244.75 142.15,245.35C131.317,245.617 121.033,241.083 111.3,231.75C101.467,222.483 95,211.033 91.9,197.4C88.567,183.667 89.533,171.833 94.8,161.9M109,175.65C112.1,169.817 116.867,166.8 123.3,166.6C129.633,166.3 135.717,168.933 141.55,174.5C147.383,180.033 151.283,186.9 153.25,195.1C155.083,203.267 154.45,210.267 151.35,216.1C148.217,222.033 143.533,225.2 137.3,225.6C130.8,225.8 124.667,223.083 118.9,217.45C112.967,211.883 109.067,205.05 107.2,196.95C105.267,188.683 105.867,181.583 109,175.65M161.85,153.6C157.083,123.5 149.3,105.383 138.5,99.25C119.4,100.617 105.717,111.183 97.45,130.95C120.917,117.783 142.383,125.333 161.85,153.6M101.8,293.25C93.733,285.25 88.133,273.9 85,259.2C90.867,253.067 97.933,249.667 106.2,249L101.8,293.25M146.25,358.25C162.483,344.417 176.833,326.067 189.3,303.2L203.8,99.55L76.4,62L72,262.25C84.2,294.517 97.35,323.6 111.45,349.5L127.95,300.4L146.25,358.25M145.05,304.95C155.483,306.217 164.2,298.567 171.2,282C159.8,267.567 151.083,260.65 145.05,261.25L145.05,304.95Z" style="fill:none;fill-rule:nonzero;stroke:black;stroke-opacity:0.3;stroke-width:0.05px;"/>
                    <path d="M200.4,148.2C194.967,145.667 190.1,142.25 185.8,137.95C184.333,136.383 183.067,134.683 182,132.85L155.3,125.1C150.9,111.767 145.3,103.15 138.5,99.25C127,100.017 117.5,104.15 110,111.65L82.95,103.75L85,104.5C81.8,105.967 78.6,107.033 75.4,107.7L76.4,62L203.8,99.55L200.4,148.2" style="fill:rgb(111,127,140);"/>
                    <path d="M155.3,125.1L110,111.65C117.5,104.15 127,100.017 138.5,99.25C145.3,103.15 150.9,111.767 155.3,125.1M75.4,107.7C69.833,108.8 64.267,108.717 58.7,107.45C56.467,106.95 54.283,106.267 52.15,105.4L46,102.45L46,32.65C53.367,29.017 60.717,25.367 68.05,21.7L236.65,70.3L228.9,155.05L209.05,151.1C206.817,150.6 204.617,149.917 202.45,149.05L200.4,148.2L203.8,99.55L76.4,62L75.4,107.7" style="fill:rgb(124,24,0);"/>
                    <path d="M9.95,16.85C10.05,10.05 11.6,3.867 14.6,-1.7C18.2,-8.5 24.1,-13.217 32.3,-15.85L276.1,55.7L274.9,55.7L272.45,56C266.317,56.7 260.767,60.55 255.8,67.55C251.5,72.817 248.917,78.95 248.05,85.95L9.95,16.85" style="fill:rgb(218,227,227);"/>
                    <path d="M248.05,85.95C248.917,78.95 251.5,72.817 255.8,67.55C260.767,60.55 266.317,56.7 272.45,56L274.9,55.7L276.1,55.7L282.25,57.6C284.083,58.567 285.783,60.033 287.35,62L288.2,63.15C292.2,68.517 293.917,75.583 293.35,84.35C293.15,85.117 293,86.033 292.9,87.1C292.5,89.267 291.967,91.417 291.3,93.55C289.733,98.317 287.433,102.8 284.4,107C280.433,111.767 276.2,114.983 271.7,116.65C270.333,117.117 268.967,117.45 267.6,117.65L265,117.5L264.1,117.5L259.45,116.35L257.55,115.3C255.583,114.133 253.833,112.583 252.3,110.65C248.5,105.283 246.933,98.417 247.6,90.05C247.7,88.583 247.85,87.217 248.05,85.95" style="fill:rgb(101,112,114);"/>
                    <path d="M9.95,16.85L248.05,85.95C247.85,87.217 247.7,88.583 247.6,90.05C246.933,98.417 248.5,105.283 252.3,110.65C253.833,112.583 255.583,114.133 257.55,115.3L26.75,47.7C22.85,47.1 19.433,44.8 16.5,40.8C12.3,35.633 10.117,29.017 9.95,20.95C9.85,19.583 9.85,18.217 9.95,16.85" style="fill:rgb(140,155,158);"/>
                    <path d="M276.1,55.7L32.3,-15.85C24.1,-13.217 18.2,-8.5 14.6,-1.7C11.6,3.867 10.05,10.05 9.95,16.85C9.85,18.217 9.85,19.583 9.95,20.95C10.117,29.017 12.3,35.633 16.5,40.8C19.433,44.8 22.85,47.1 26.75,47.7L257.55,115.3M274.9,55.7L276.1,55.7L282.25,57.6C284.083,58.567 285.783,60.033 287.35,62L288.2,63.15C292.2,68.517 293.917,75.583 293.35,84.35C293.15,85.117 293,86.033 292.9,87.1C292.5,89.267 291.967,91.417 291.3,93.55C289.733,98.317 287.433,102.8 284.4,107C280.433,111.767 276.2,114.983 271.7,116.65C270.333,117.117 268.967,117.45 267.6,117.65L265,117.5L264.1,117.5L259.45,116.35" style="fill:none;fill-rule:nonzero;stroke:black;stroke-opacity:0.3;stroke-width:0.05px;"/>
                    <path d="M36.1,4.45C36.567,3.483 37.15,2.55 37.85,1.65C44.95,-8.083 54.483,-13.15 66.45,-13.55C71.15,-14.117 75.633,-13.567 79.9,-11.9C82.333,-11.133 84.667,-9.967 86.9,-8.4C90.133,-6.367 93.117,-4.033 95.85,-1.4L100.05,3.1C92.45,3.4 86.517,6.133 82.25,11.3C79.617,8.867 76.783,6.683 73.75,4.75C67.417,0.45 60.6,-1.267 53.3,-0.4C46.8,-0.2 41.067,1.417 36.1,4.45M186.4,48.1C186.9,47.133 187.483,46.217 188.15,45.35C195.25,35.617 204.8,30.55 216.8,30.15C221.467,29.55 225.933,30.083 230.2,31.75C232.667,32.517 235.017,33.683 237.25,35.25C240.45,37.317 243.417,39.65 246.15,42.25L250.4,46.8C242.8,47.1 236.85,49.833 232.55,55C229.917,52.567 227.1,50.367 224.1,48.4C217.767,44.133 210.95,42.433 203.65,43.3C197.117,43.5 191.367,45.1 186.4,48.1" style="fill:rgb(186,107,93);"/>
                    <path d="M82.25,11.3C80.483,13.167 79.017,15.45 77.85,18.15L77.3,19.5C75.633,23.467 74.317,27.55 73.35,31.75C72.55,35.25 72,38.75 71.7,42.25C68.1,42.65 64.55,42.567 61.05,42C58.05,41.5 55.083,40.667 52.15,39.5C45.917,36.967 40.367,33.267 35.5,28.4C32.767,25.567 30.867,22.2 29.8,18.3C31.067,13.433 33.167,8.817 36.1,4.45C41.067,1.417 46.8,-0.2 53.3,-0.4C60.6,-1.267 67.417,0.45 73.75,4.75C76.783,6.683 79.617,8.867 82.25,11.3M232.55,55C230.817,56.833 229.367,59.117 228.2,61.85L227.6,63.15C225.933,67.15 224.617,71.25 223.65,75.45C222.883,78.95 222.35,82.45 222.05,85.95L211.4,85.65C208.367,85.183 205.383,84.367 202.45,83.2C196.217,80.667 190.667,76.95 185.8,72.05C183.067,69.25 181.167,65.9 180.1,62C181.367,57.133 183.467,52.5 186.4,48.1C191.367,45.1 197.117,43.5 203.65,43.3C210.95,42.433 217.767,44.133 224.1,48.4C227.1,50.367 229.917,52.567 232.55,55" style="fill:rgb(186,41,14);"/>
                    <path d="M71.7,42.25C71.433,45.683 71.4,49.15 71.6,52.65C71.767,56.05 73.167,58.633 75.8,60.4C78.733,62.333 81.8,63.833 85,64.9C76.333,68.8 67.567,69.783 58.7,67.85C56.467,67.35 54.283,66.667 52.15,65.8C45.917,63.267 40.367,59.567 35.5,54.7C32.2,51.2 30.05,46.967 29.05,42C27.517,33.6 27.767,25.7 29.8,18.3C30.867,22.2 32.767,25.567 35.5,28.4C40.367,33.267 45.917,36.967 52.15,39.5C55.083,40.667 58.05,41.5 61.05,42C64.55,42.567 68.1,42.65 71.7,42.25M222.05,85.95C221.75,89.35 221.7,92.8 221.9,96.3C222.1,99.733 223.517,102.317 226.15,104.05C229.05,106.017 232.117,107.533 235.35,108.6C226.683,112.5 217.917,113.467 209.05,111.5C206.817,111.033 204.617,110.35 202.45,109.45C196.217,106.917 190.667,103.217 185.8,98.35C182.5,94.85 180.367,90.617 179.4,85.65C177.833,77.283 178.067,69.4 180.1,62C181.167,65.9 183.067,69.25 185.8,72.05C190.667,76.95 196.217,80.667 202.45,83.2C205.383,84.367 208.367,85.183 211.4,85.65L222.05,85.95" style="fill:rgb(102,20,0);"/>
                    <path d="M36.1,4.45C36.567,3.483 37.15,2.55 37.85,1.65C44.95,-8.083 54.483,-13.15 66.45,-13.55C71.15,-14.117 75.633,-13.567 79.9,-11.9C82.333,-11.133 84.667,-9.967 86.9,-8.4C90.133,-6.367 93.117,-4.033 95.85,-1.4L100.05,3.1C92.45,3.4 86.517,6.133 82.25,11.3C80.483,13.167 79.017,15.45 77.85,18.15L77.3,19.5C75.633,23.467 74.317,27.55 73.35,31.75C72.55,35.25 72,38.75 71.7,42.25C71.433,45.683 71.4,49.15 71.6,52.65C71.767,56.05 73.167,58.633 75.8,60.4C78.733,62.333 81.8,63.833 85,64.9C76.333,68.8 67.567,69.783 58.7,67.85C56.467,67.35 54.283,66.667 52.15,65.8C45.917,63.267 40.367,59.567 35.5,54.7C32.2,51.2 30.05,46.967 29.05,42C27.517,33.6 27.767,25.7 29.8,18.3C31.067,13.433 33.167,8.817 36.1,4.45M186.4,48.1C186.9,47.133 187.483,46.217 188.15,45.35C195.25,35.617 204.8,30.55 216.8,30.15C221.467,29.55 225.933,30.083 230.2,31.75C232.667,32.517 235.017,33.683 237.25,35.25C240.45,37.317 243.417,39.65 246.15,42.25L250.4,46.8C242.8,47.1 236.85,49.833 232.55,55C230.817,56.833 229.367,59.117 228.2,61.85L227.6,63.15C225.933,67.15 224.617,71.25 223.65,75.45C222.883,78.95 222.35,82.45 222.05,85.95C221.75,89.35 221.7,92.8 221.9,96.3C222.1,99.733 223.517,102.317 226.15,104.05C229.05,106.017 232.117,107.533 235.35,108.6C226.683,112.5 217.917,113.467 209.05,111.5C206.817,111.033 204.617,110.35 202.45,109.45C196.217,106.917 190.667,103.217 185.8,98.35C182.5,94.85 180.367,90.617 179.4,85.65C177.833,77.283 178.067,69.4 180.1,62C181.367,57.133 183.467,52.5 186.4,48.1Z" style="fill:none;fill-rule:nonzero;stroke:black;stroke-opacity:0.3;stroke-width:0.05px;"/>
                </g>
            </g>
        </g>
    </g>
</svg>
