<?xml version="1.0" encoding="UTF-8" standalone="no"?>
<!DOCTYPE svg PUBLIC "-//W3C//DTD SVG 1.1//EN" "http://www.w3.org/Graphics/SVG/1.1/DTD/svg11.dtd">
<svg width="100%" height="100%" viewBox="0 0 21 38" version="1.1" xmlns="http://www.w3.org/2000/svg" xmlns:xlink="http://www.w3.org/1999/xlink" xml:space="preserve" xmlns:serif="http://www.serif.com/" style="fill-rule:evenodd;clip-rule:evenodd;stroke-linecap:round;stroke-linejoin:round;">
    <g transform="matrix(1,0,0,1,-14.8,-6.1)">
        <g transform="matrix(1,0,0,1,25,25)">
            <g id="sprite0">
                <g id="shape0">
                    <path d="M5.6,-18L5.65,-17.7L5.35,-16.65L4.6,-15.9L4.35,-15.75L4.55,-15.4L4.8,-14.6L2.85,-11.45L3.1,-10.5L3.35,-9.6L4.15,-8.9L4.45,-8.6L4.8,-8.2L5.25,-7.7L5.65,-7.15C5.517,-6.383 5.2,-5.85 4.7,-5.55L5.1,-4.4L5.1,-4.35L6.1,-1.6L6.25,0.6L5.9,2.75L6.35,3.5L6.7,4.15L6.7,4.2C7.667,5.833 8.683,7.333 9.75,8.7C8.317,8.533 7.583,9.467 7.55,11.5C6.783,11.267 6.183,11.333 5.75,11.7L6.25,14.55L2.7,17L3.05,13.15C2.483,13.45 1.933,14.133 1.4,15.2C0.833,14.667 0.317,14.367 -0.15,14.3L-0.75,14.4L-1.35,14.8L-1.9,17.6L-6.15,18.55C-5.45,17.417 -4.8,16.15 -4.2,14.75L-4.15,14.65C-4.617,14.85 -5.133,15.3 -5.7,16C-6.5,14.433 -7.833,14.233 -9.7,15.4C-7.467,12.133 -5.667,8.583 -4.3,4.75L-3.85,3.45L-4.75,2.15C-4.95,1.717 -4.95,1.217 -4.75,0.65C-4.417,-0.217 -4.133,-1.083 -3.9,-1.95L-4.6,-2L-4.95,-2.7L-4.9,-3.15L-4.65,-3.75L-3.85,-4.5L-3.75,-4.55L-3.95,-4.85L-4.05,-5.4L-4.05,-5.5L-2.8,-7.5L-2.65,-9.55L-3.1,-9.6L-3.3,-10.3L-3.35,-10.5L-3.35,-10.55C-3.383,-11.05 -3.283,-11.55 -3.05,-12.05L-2.65,-12.05L-2.85,-14.5C-1.45,-14.533 -0.183,-14.8 0.95,-15.3L1.7,-15.65L1.85,-15.05L2.6,-16.25L3.5,-16.2L3.45,-16.45L3.45,-16.55L3.5,-16.95L3.75,-17.6L4.5,-18.35L5.3,-18.4L5.6,-18" style="fill:#280a02;fill-opacity:0;"/>
                    <path d="M5.6,-18L5.3,-18.4L4.5,-18.35L3.75,-17.6L3.5,-16.95L3.45,-16.55L3.45,-16.45L3.5,-16.2L2.6,-16.25L1.85,-15.05L1.7,-15.65L0.95,-15.3C-0.183,-14.8 -1.45,-14.533 -2.85,-14.5L-2.65,-12.05L-3.05,-12.05C-3.283,-11.55 -3.383,-11.05 -3.35,-10.55L-3.35,-10.5L-3.3,-10.3L-3.1,-9.6L-2.65,-9.55L-2.8,-7.5L-4.05,-5.5L-4.05,-5.4L-3.95,-4.85L-3.75,-4.55L-3.85,-4.5L-4.65,-3.75L-4.9,-3.15L-4.95,-2.7L-4.6,-2L-3.9,-1.95C-4.133,-1.083 -4.417,-0.217 -4.75,0.65C-4.95,1.217 -4.95,1.717 -4.75,2.15L-3.85,3.45L-4.3,4.75C-5.667,8.583 -7.467,12.133 -9.7,15.4C-7.833,14.233 -6.5,14.433 -5.7,16C-5.133,15.3 -4.617,14.85 -4.15,14.65L-4.2,14.75C-4.8,16.15 -5.45,17.417 -6.15,18.55L-1.9,17.6L-1.35,14.8L-0.75,14.4L-0.15,14.3C0.317,14.367 0.833,14.667 1.4,15.2C1.933,14.133 2.483,13.45 3.05,13.15L2.7,17L6.25,14.55L5.75,11.7C6.183,11.333 6.783,11.267 7.55,11.5C7.583,9.467 8.317,8.533 9.75,8.7C8.683,7.333 7.667,5.833 6.7,4.2L6.7,4.15L6.35,3.5L5.9,2.75L6.25,0.6L6.1,-1.6L5.1,-4.35L5.1,-4.4L4.7,-5.55C5.2,-5.85 5.517,-6.383 5.65,-7.15L5.25,-7.7L4.8,-8.2L4.45,-8.6L4.15,-8.9L3.35,-9.6L3.1,-10.5L2.85,-11.45L4.8,-14.6L4.55,-15.4L4.35,-15.75L4.6,-15.9L5.35,-16.65L5.65,-17.7L5.6,-18Z" style="fill:none;fill-rule:nonzero;stroke:#280a02;stroke-width:1px;"/>
                </g>
                <g id="sprite1">
                    <g id="shape1">
                        <path d="M9.75,8.7C8.317,8.533 7.583,9.467 7.55,11.5C6.05,11.033 5.183,11.7 4.95,13.5C3.75,12.367 2.567,12.933 1.4,15.2C-0.033,13.8 -1.183,14.033 -2.05,15.9C-2.817,13.933 -4.033,13.967 -5.7,16C-6.5,14.433 -7.833,14.233 -9.7,15.4C-6.1,10.133 -3.617,4.1 -2.25,-2.7L3.3,-2.7C5.167,1.767 7.317,5.567 9.75,8.7" style="fill:#895328;"/>
                        <path d="M9.75,8.7C7.317,5.567 5.167,1.767 3.3,-2.7L-2.25,-2.7C-3.617,4.1 -6.1,10.133 -9.7,15.4C-7.833,14.233 -6.5,14.433 -5.7,16C-4.033,13.967 -2.817,13.933 -2.05,15.9C-1.183,14.033 -0.033,13.8 1.4,15.2C2.567,12.933 3.75,12.367 4.95,13.5C5.183,11.7 6.05,11.033 7.55,11.5C7.583,9.467 8.317,8.533 9.75,8.7Z" style="fill:none;fill-rule:nonzero;stroke:#000;stroke-opacity:0.3;stroke-width:0.05px;"/>
                        <path d="M-1.05,8.25C-2.583,7.283 -3.633,6.217 -4.2,5.05L-4.3,4.75C-3.467,2.383 -2.783,-0.1 -2.25,-2.7L3.3,-2.7C4.333,-0.2 5.467,2.083 6.7,4.15C6.467,5.85 5.95,7.35 5.15,8.65L5.7,11.7C5.333,12.033 5.083,12.633 4.95,13.5C4.483,13.033 4,12.85 3.5,12.95L3.5,12.45L3.4,11.7L3.25,10.15L2.8,10.1L0.85,9.25L-0.15,14.3C-0.883,14.233 -1.517,14.767 -2.05,15.9C-2.217,15.433 -2.433,15.083 -2.7,14.85L-2.4,13.9L-1.75,11.4L-1.5,10.4L-1.25,9.1L-1.05,8.25" style="fill-opacity:0.3;"/>
                        <path d="M0.55,5.2L0,7.85L-1.75,6.2L0.55,5.2L-1.75,6.2L0,7.85L-0.15,8.6C-0.417,8.467 -0.7,8.317 -1,8.15L-1.45,7.85L-2,7.5L-1.75,6.2L-1.3,3.55L1.05,2.65L0.55,5.2L-1.3,3.55L0.55,5.2M0,7.85L-1,8.15L0,7.85" style="fill:#796d3e;"/>
                        <path d="M-0.15,8.6L-0.5,10.5L-1.9,17.6L-6.15,18.55C-5.45,17.417 -4.8,16.15 -4.2,14.75L-2.9,11.05L-2.25,8.55L-2,7.5L-1.45,7.85L-1,8.15C-0.7,8.317 -0.417,8.467 -0.15,8.6M-1.9,17.6L-4.2,14.75L-1.2,14.05L-2.9,11.05L-0.5,10.5L-2.25,8.55L-1,8.15L-2.25,8.55L-0.5,10.5L-2.9,11.05L-1.2,14.05L-4.2,14.75L-1.9,17.6" style="fill:#f0da7f;"/>
                        <path d="M0,7.85L0.55,5.2L-1.75,6.2L0,7.85L-0.15,8.6L-0.5,10.5L-1.9,17.6L-6.15,18.55C-5.45,17.417 -4.8,16.15 -4.2,14.75L-2.9,11.05L-2.25,8.55L-2,7.5L-1.75,6.2L-1.3,3.55L1.05,2.65L0.55,5.2L-1.3,3.55M-1,8.15L-2.25,8.55L-0.5,10.5L-2.9,11.05L-1.2,14.05L-4.2,14.75L-1.9,17.6M-1,8.15L0,7.85L-1,8.15Z" style="fill:none;fill-rule:nonzero;stroke:#000;stroke-opacity:0.3;stroke-width:0.05px;"/>
                        <path d="M1.65,1.3L3.95,2.1L2.2,3.9L3.95,2.1L1.65,1.3L3.45,-0.45L3.95,2.1L4.45,4.8L2.2,3.9L4.45,4.8L4.95,7.45L2.9,8.85L4.95,7.45L2.6,6.25L4.95,7.45L3.8,9.2L3.6,9.4L2.9,8.85L3.6,9.4L2.95,9.55L2.9,8.85L2.6,6.25L4.45,4.8L2.6,6.25L2.2,3.9L1.65,1.3" style="fill:#796d3e;"/>
                        <path d="M3.6,9.4L3.8,9.2L4.95,7.45L5.6,11L3.6,9.4L5.6,11L6.25,14.55L2.7,17L3.05,12.75L5.6,11L3.05,12.75L2.95,9.55L3.6,9.4M3.05,12.75L6.25,14.55L3.05,12.75" style="fill:#f0da7f;"/>
                        <path d="M2.2,3.9L3.95,2.1L1.65,1.3L2.2,3.9L4.45,4.8L3.95,2.1L3.45,-0.45L1.65,1.3M2.9,8.85L4.95,7.45L2.6,6.25L2.9,8.85L3.6,9.4L5.6,11L4.95,7.45L4.45,4.8L2.6,6.25L2.2,3.9M2.9,8.85L2.95,9.55L3.05,12.75L2.7,17L6.25,14.55L5.6,11L3.05,12.75L6.25,14.55" style="fill:none;fill-rule:nonzero;stroke:#000;stroke-opacity:0.3;stroke-width:0.05px;"/>
                        <path d="M3.2,-5.1C3.833,-4.733 4.467,-2.917 5.1,0.35C4.833,1.883 4.1,3.583 2.9,5.45L1.7,5.5C0.033,4.633 -1.533,3.383 -3,1.75L-3.05,1.4C-1.783,2.667 -0.45,3.683 0.95,4.45L2.15,4.4C3.35,2.5 4.083,0.8 4.35,-0.7L3.2,-5.1M0.95,-15.3L1.7,-15.65C3.133,-10.083 4.6,-5.4 6.1,-1.6L6.25,0.6C6.017,3.133 5.2,5.233 3.8,6.9C3.5,7.267 3,7.383 2.3,7.25L-1.45,5.45L1.25,6.65C1.983,6.817 2.5,6.717 2.8,6.35C4.2,4.65 5.017,2.55 5.25,0.05L5.1,-2.2C3.667,-5.767 2.283,-10.133 0.95,-15.3" style="fill:#7c776a;"/>
                        <path d="M3.2,-5.1L3.1,-5.15C2.667,-3.783 2.4,-2.333 2.3,-0.8L2.25,-0.2L2.5,0.35C2.9,0.717 3.15,0.333 3.25,-0.8C3.15,0.333 2.9,0.717 2.5,0.35L2.25,-0.2L2.3,-0.8C2.4,-2.333 2.667,-3.783 3.1,-5.15L3.2,-5.1L4.35,-0.7C4.083,0.8 3.35,2.5 2.15,4.4L0.95,4.45C-0.45,3.683 -1.783,2.667 -3.05,1.4L-3,1.75C-1.533,3.383 0.033,4.633 1.7,5.5L2.9,5.45C4.1,3.583 4.833,1.883 5.1,0.35C4.467,-2.917 3.833,-4.733 3.2,-5.1M-0.9,0.35C-0.7,1.217 -0.267,1.6 0.4,1.5C0.567,1.367 0.6,1.15 0.5,0.85C0.2,-1.017 -0.483,-2.683 -1.55,-4.15C-2.05,-3.85 -2.567,-2.167 -3.1,0.9L-3.05,1.4L-3.1,0.9C-2.567,-2.167 -2.05,-3.85 -1.55,-4.15C-0.483,-2.683 0.2,-1.017 0.5,0.85C0.6,1.15 0.567,1.367 0.4,1.5C-0.267,1.6 -0.7,1.217 -0.9,0.35M-1.45,5.45C-3.05,4.45 -4.15,3.35 -4.75,2.15C-4.95,1.717 -4.95,1.217 -4.75,0.65C-2.85,-4.417 -2.217,-9.467 -2.85,-14.5C-1.45,-14.533 -0.183,-14.8 0.95,-15.3C2.283,-10.133 3.667,-5.767 5.1,-2.2L5.25,0.05C5.017,2.55 4.2,4.65 2.8,6.35C2.5,6.717 1.983,6.817 1.25,6.65L-1.45,5.45" style="fill:#d8cfbb;"/>
                        <path d="M3.25,-0.8C3.15,0.333 2.9,0.717 2.5,0.35L2.25,-0.2L2.3,-0.8C2.4,-2.333 2.667,-3.783 3.1,-5.15L3.2,-5.1C3.833,-4.733 4.467,-2.917 5.1,0.35C4.833,1.883 4.1,3.583 2.9,5.45L1.7,5.5C0.033,4.633 -1.533,3.383 -3,1.75L-3.05,1.4L-3.1,0.9C-2.567,-2.167 -2.05,-3.85 -1.55,-4.15C-0.483,-2.683 0.2,-1.017 0.5,0.85C0.6,1.15 0.567,1.367 0.4,1.5C-0.267,1.6 -0.7,1.217 -0.9,0.35M0.95,-15.3L1.7,-15.65C3.133,-10.083 4.6,-5.4 6.1,-1.6L6.25,0.6C6.017,3.133 5.2,5.233 3.8,6.9C3.5,7.267 3,7.383 2.3,7.25L-1.45,5.45C-3.05,4.45 -4.15,3.35 -4.75,2.15C-4.95,1.717 -4.95,1.217 -4.75,0.65C-2.85,-4.417 -2.217,-9.467 -2.85,-14.5C-1.45,-14.533 -0.183,-14.8 0.95,-15.3" style="fill:none;fill-rule:nonzero;stroke:#000;stroke-opacity:0.3;stroke-width:0.05px;"/>
                        <path d="M0.9,-6.95L-1.6,-2.9L-1.65,-2.75C-1.783,-2.55 -2,-2.45 -2.3,-2.45L-2.75,-2.5L-2.75,-2.4C-2.717,-2.067 -2.817,-1.717 -3.05,-1.35C-3.25,-0.983 -3.5,-0.717 -3.8,-0.55L-4.35,-0.45C-3.75,-2.183 -3.3,-3.917 -3,-5.65L-1.65,-7.9L-2.7,-8.1L-2.6,-10.55L-1.15,-10.4L-0.25,-10.2L2.15,-14.05L3.1,-10.5L2.2,-9L2.7,-8.65L2.7,-8.7L4,-7.6L5.1,-4.4C4.967,-4.267 4.833,-4.167 4.7,-4.1L3.1,-5.55C2.4,-6.117 1.667,-6.583 0.9,-6.95" style="fill-opacity:0.3;"/>
                        <path d="M3.45,-16.45L3.45,-16.55L3.5,-16.95L3.75,-17.6L4.5,-18.35L5.3,-18.4L5.6,-18L5.35,-17.4L4.6,-16.6L4.05,-16.5L3.8,-16.55L3.6,-16.7L3.45,-16.45" style="fill:#a67c5c;"/>
                        <path d="M5.6,-18L5.65,-17.7L5.35,-16.65L4.6,-15.9L4.05,-15.75L3.6,-15L3.2,-15.25L3.6,-16L3.45,-16.45L3.6,-16.7L3.8,-16.55L4.05,-16.5L4.6,-16.6L5.35,-17.4L5.6,-18M4.05,-15.75L3.8,-15.85L3.7,-15.9L3.6,-16L3.7,-15.9L3.8,-15.85L4.05,-15.75" style="fill:#533f2f;"/>
                        <path d="M3.45,-16.45L3.45,-16.55L3.5,-16.95L3.75,-17.6L4.5,-18.35L5.3,-18.4L5.6,-18L5.65,-17.7L5.35,-16.65L4.6,-15.9L4.05,-15.75L3.6,-15L3.2,-15.25L3.6,-16L3.45,-16.45M3.6,-16L3.7,-15.9L3.8,-15.85L4.05,-15.75" style="fill:none;fill-rule:nonzero;stroke:#000;stroke-opacity:0.3;stroke-width:0.05px;"/>
                        <path d="M4.55,-15.4L4.8,-14.6L-1.6,-4.35L-1.65,-4.2C-1.783,-4 -2,-3.9 -2.3,-3.9L-3.25,-4.15L-3.95,-4.85L-4.05,-5.4L-4.05,-5.5L-4,-5.55C-3.867,-5.75 -3.65,-5.85 -3.35,-5.85C-3.05,-5.883 -2.733,-5.8 -2.4,-5.6L-1.85,-5.15L-1.8,-5.15L4.55,-15.4M-1.6,-4.35L-1.7,-4.9L-1.85,-5.15L-1.7,-4.9L-1.6,-4.35" style="fill:#533f2f;"/>
                        <path d="M-4.05,-5.5L2.6,-16.25L4.05,-16L4.55,-15.4L-1.8,-5.15L-1.85,-5.15L-2.4,-5.6C-2.733,-5.8 -3.05,-5.883 -3.35,-5.85C-3.65,-5.85 -3.867,-5.75 -4,-5.55L-4.05,-5.5" style="fill:#a67c5c;"/>
                        <path d="M-4.05,-5.5L2.6,-16.25L4.05,-16L4.55,-15.4L4.8,-14.6L-1.6,-4.35L-1.65,-4.2C-1.783,-4 -2,-3.9 -2.3,-3.9L-3.25,-4.15L-3.95,-4.85L-4.05,-5.4L-4.05,-5.5L-4,-5.55C-3.867,-5.75 -3.65,-5.85 -3.35,-5.85C-3.05,-5.883 -2.733,-5.8 -2.4,-5.6L-1.85,-5.15L-1.7,-4.9L-1.6,-4.35" style="fill:none;fill-rule:nonzero;stroke:#000;stroke-opacity:0.3;stroke-width:0.05px;"/>
                        <path d="M-3.3,-4.65L-3.1,-5L-2.8,-5L-2.7,-4.75L-2.9,-4.4L-3.1,-4.55L-3.3,-4.65L-3.1,-4.55L-2.9,-4.4L-2.85,-4.3L-3.1,-3.75C-3.3,-3.383 -3.55,-3.117 -3.85,-2.95L-4.65,-2.9L-4.9,-3.15L-4.65,-3.75L-3.85,-4.5L-3.3,-4.65" style="fill:#a67c5c;"/>
                        <path d="M-2.85,-4.3L-2.75,-3.85C-2.717,-3.517 -2.817,-3.167 -3.05,-2.8C-3.25,-2.433 -3.5,-2.167 -3.8,-2C-4.1,-1.867 -4.367,-1.867 -4.6,-2L-4.95,-2.7L-4.9,-3.15L-4.65,-2.9L-3.85,-2.95C-3.55,-3.117 -3.3,-3.383 -3.1,-3.75L-2.85,-4.3" style="fill:#533f2f;"/>
                        <path d="M-2.9,-4.4L-2.7,-4.75L-2.8,-5L-3.1,-5L-3.3,-4.65L-3.1,-4.55L-2.9,-4.4L-2.85,-4.3L-2.75,-3.85C-2.717,-3.517 -2.817,-3.167 -3.05,-2.8C-3.25,-2.433 -3.5,-2.167 -3.8,-2C-4.1,-1.867 -4.367,-1.867 -4.6,-2L-4.95,-2.7L-4.9,-3.15L-4.65,-3.75L-3.85,-4.5L-3.3,-4.65" style="fill:none;fill-rule:nonzero;stroke:#000;stroke-opacity:0.3;stroke-width:0.05px;"/>
                        <path d="M5.25,-7.7L5.65,-7.15C5.517,-6.383 5.2,-5.85 4.7,-5.55L3.1,-7.05L0.6,-8.55C-0.567,-9.117 -1.8,-9.467 -3.1,-9.6L-3.3,-10.3L-3.35,-10.5L-2.45,-10.35C-1.583,-10.183 -0.75,-9.917 0.05,-9.55L0.25,-9.45L1.2,-9L0.6,-8.55L0.05,-9.55L0.6,-8.55L1.2,-9L2.75,-7.95L3,-7.75L3.5,-7.3L4.4,-6.45L4.75,-6.75C4.983,-6.983 5.15,-7.3 5.25,-7.7M4.7,-5.55L4.75,-6.75L4.7,-5.55M3,-7.75L3.1,-7.05L3.5,-7.3L3.1,-7.05L3,-7.75M-3.1,-9.6L-2.45,-10.35L-3.1,-9.6" style="fill:#796d3e;"/>
                        <path d="M-3.35,-10.5L-3.35,-10.55C-3.383,-11.05 -3.283,-11.55 -3.05,-12.05L-2.15,-12L-1.15,-11.85L-1,-11.85L1.9,-10.7L2.5,-10.3L2.7,-10.15L4.15,-8.9L4.45,-8.6L4.8,-8.2L5.25,-7.7C5.15,-7.3 4.983,-6.983 4.75,-6.75L4.8,-8.2L3.5,-7.3L4.8,-8.2L4.75,-6.75L4.4,-6.45L3.5,-7.3L3,-7.75L2.75,-7.95L1.2,-9L0.25,-9.45L0.05,-9.55L-1.15,-11.85L-2.45,-10.35L-1.15,-11.85L0.05,-9.55C-0.75,-9.917 -1.583,-10.183 -2.45,-10.35L-3.35,-10.5M3,-7.75L2.7,-10.15L1.2,-9L2.7,-10.15L3,-7.75" style="fill:#efda7f;"/>
                        <path d="M5.25,-7.7L5.65,-7.15C5.517,-6.383 5.2,-5.85 4.7,-5.55L3.1,-7.05L0.6,-8.55C-0.567,-9.117 -1.8,-9.467 -3.1,-9.6L-3.3,-10.3L-3.35,-10.5L-3.35,-10.55C-3.383,-11.05 -3.283,-11.55 -3.05,-12.05L-2.15,-12L-1.15,-11.85L-1,-11.85L1.9,-10.7L2.5,-10.3L2.7,-10.15L4.15,-8.9L4.45,-8.6L4.8,-8.2L5.25,-7.7M4.75,-6.75L4.7,-5.55M0.05,-9.55L0.6,-8.55L1.2,-9L2.7,-10.15L3,-7.75L3.1,-7.05L3.5,-7.3L4.8,-8.2L4.75,-6.75M-2.45,-10.35L-1.15,-11.85L0.05,-9.55M-2.45,-10.35L-3.1,-9.6" style="fill:none;fill-rule:nonzero;stroke:#000;stroke-opacity:0.3;stroke-width:0.05px;"/>
                    </g>
                </g>
            </g>
        </g>
    </g>
</svg>
