<?xml version="1.0" encoding="UTF-8" standalone="no"?>
<!DOCTYPE svg PUBLIC "-//W3C//DTD SVG 1.1//EN" "http://www.w3.org/Graphics/SVG/1.1/DTD/svg11.dtd">
<svg width="100%" height="100%" viewBox="0 0 22 40" version="1.1" xmlns="http://www.w3.org/2000/svg" xmlns:xlink="http://www.w3.org/1999/xlink" xml:space="preserve" xmlns:serif="http://www.serif.com/" style="fill-rule:evenodd;clip-rule:evenodd;stroke-linecap:round;stroke-linejoin:round;">
    <g transform="matrix(1,0,0,1,-14.25,-5.1)">
        <g transform="matrix(1,0,0,1,25,25)">
            <g id="sprite0">
                <g id="shape0">
                    <path d="M1.8,-19.35L2.5,-19.35C2.8,-19.383 3,-19.15 3.1,-18.65L3.25,-17.7L3.25,-17.2L3.2,-16.55C3.1,-15.917 2.883,-15.35 2.55,-14.85L2.8,-14.45L2.85,-14.35L3,-14.15L3,-14.1L3.15,-13.8C3.817,-13.067 4.25,-12.15 4.45,-11.05L4.5,-10.2L4.45,-9.5L4.25,-8.35L4.05,-7.7L4.05,-7.05L4.1,-7L4.05,-6.65L4.05,-3.65L4.15,-2.9L4.8,-2.8L4.25,-1.6L4.3,-0.95C4.533,1.85 5.467,4.533 7.1,7.1L8.05,7.85L9.3,8.3C9.767,8.567 10.1,8.933 10.3,9.4C9.033,9.267 8.05,9.433 7.35,9.9C8.217,10.533 8.967,11.283 9.6,12.15C9.633,13.85 8.85,14.65 7.25,14.55C5.617,13.717 4.517,13.717 3.95,14.55C2.717,16.483 1.533,17.833 0.4,18.6C-1.2,19.667 -2.717,19.667 -4.15,18.6L-5.45,17.4L-7.35,15.55L-8.6,15.35C-9.2,15.383 -9.75,15.683 -10.25,16.25C-9.883,14.95 -9.333,14 -8.6,13.4C-7.967,12.9 -7.217,12.633 -6.35,12.6C-5.383,12.267 -4.767,11.65 -4.5,10.75L-4.05,2.8L-5.25,5.35L-6.8,2.9L-5.75,2.2L-5.75,-2.6L-6.1,-3.25L-5.85,-3.5L-6.15,-3.95L-6.6,-5.3L-6.55,-7.35L-6.35,-8.05L-4.9,-11.7L-4.5,-12.5L-4.35,-12.75C-4.75,-12.95 -5.017,-13.317 -5.15,-13.85L-5.2,-14.55L-5.25,-15.15L-5.05,-16.4C-4.85,-17.1 -4.483,-17.567 -3.95,-17.8L-3.5,-17.85L-3.4,-17.85L-3,-17.8C-2.467,-17.9 -2.117,-17.667 -1.95,-17.1L-1.95,-16.1L-1.8,-16.15C-1.467,-16.517 -1.15,-17.15 -0.85,-18.05L-0.85,-18.1L-0.45,-18.2L0.35,-18.2L0.45,-18.15C0.583,-17.617 0.75,-17.25 0.95,-17.05L1.05,-17.2C0.917,-17.467 0.883,-17.8 0.95,-18.2C1.017,-18.767 1.2,-19.133 1.5,-19.3L1.7,-19.4L1.8,-19.35M3.3,-11.55L3.25,-11.65L3.5,-9.05L3.6,-10.25C3.567,-10.883 3.467,-11.317 3.3,-11.55M-4.35,-7.3L-4.35,-8.15C-4.983,-6.983 -5.183,-5.883 -4.95,-4.85L-4.9,-4.75L-4.75,-4.5L-4.6,-4.65L-4.15,-4.45L-4.35,-7.3M-4.7,-2.55L-4.75,2.3L-4.05,2.45L-4.05,-2.45L-4.3,-2.5L-4.7,-2.55" style="fill:#280a02;fill-opacity:0;"/>
                    <path d="M1.8,-19.35L1.7,-19.4L1.5,-19.3C1.2,-19.133 1.017,-18.767 0.95,-18.2C0.883,-17.8 0.917,-17.467 1.05,-17.2L0.95,-17.05C0.75,-17.25 0.583,-17.617 0.45,-18.15L0.35,-18.2L-0.45,-18.2L-0.85,-18.1L-0.85,-18.05C-1.15,-17.15 -1.467,-16.517 -1.8,-16.15L-1.95,-16.1L-1.95,-17.1C-2.117,-17.667 -2.467,-17.9 -3,-17.8L-3.4,-17.85L-3.5,-17.85L-3.95,-17.8C-4.483,-17.567 -4.85,-17.1 -5.05,-16.4L-5.25,-15.15L-5.2,-14.55L-5.15,-13.85C-5.017,-13.317 -4.75,-12.95 -4.35,-12.75L-4.5,-12.5L-4.9,-11.7L-6.35,-8.05L-6.55,-7.35L-6.6,-5.3L-6.15,-3.95L-5.85,-3.5L-6.1,-3.25L-5.75,-2.6L-5.75,2.2L-6.8,2.9L-5.25,5.35L-4.05,2.8L-4.5,10.75C-4.767,11.65 -5.383,12.267 -6.35,12.6C-7.217,12.633 -7.967,12.9 -8.6,13.4C-9.333,14 -9.883,14.95 -10.25,16.25C-9.75,15.683 -9.2,15.383 -8.6,15.35L-7.35,15.55L-5.45,17.4L-4.15,18.6C-2.717,19.667 -1.2,19.667 0.4,18.6C1.533,17.833 2.717,16.483 3.95,14.55C4.517,13.717 5.617,13.717 7.25,14.55C8.85,14.65 9.633,13.85 9.6,12.15C8.967,11.283 8.217,10.533 7.35,9.9C8.05,9.433 9.033,9.267 10.3,9.4C10.1,8.933 9.767,8.567 9.3,8.3L8.05,7.85L7.1,7.1C5.467,4.533 4.533,1.85 4.3,-0.95L4.25,-1.6L4.8,-2.8L4.15,-2.9L4.05,-3.65L4.05,-6.65L4.1,-7L4.05,-7.05L4.05,-7.7L4.25,-8.35L4.45,-9.5L4.5,-10.2L4.45,-11.05C4.25,-12.15 3.817,-13.067 3.15,-13.8L3,-14.1L3,-14.15L2.85,-14.35L2.8,-14.45L2.55,-14.85C2.883,-15.35 3.1,-15.917 3.2,-16.55L3.25,-17.2L3.25,-17.7L3.1,-18.65C3,-19.15 2.8,-19.383 2.5,-19.35L1.8,-19.35M3.3,-11.55L3.25,-11.65L3.5,-9.05L3.6,-10.25C3.567,-10.883 3.467,-11.317 3.3,-11.55M-4.35,-7.3L-4.15,-4.45L-4.6,-4.65L-4.75,-4.5L-4.9,-4.75L-4.95,-4.85C-5.183,-5.883 -4.983,-6.983 -4.35,-8.15L-4.35,-7.3M-4.7,-2.55L-4.75,2.3L-4.05,2.45L-4.05,-2.45L-4.3,-2.5L-4.7,-2.55" style="fill:none;fill-rule:nonzero;stroke:#280a02;stroke-width:1px;"/>
                </g>
                <g id="sprite1">
                    <g id="shape1">
                        <path d="M3.65,-7.75L2.7,-5.8L2.3,-3.9C2.8,-0.2 3.6,3.233 4.7,6.4L5.9,11.4L3.85,8.15L3.7,7.65C2.567,3.85 1.75,-0.117 1.25,-4.25L0.55,3.25L1,7.9L0.05,4.1L-0.1,7.5C-0.4,10.467 -1.183,12.967 -2.45,15L-2.45,11.85L-1.4,7.45L-1.1,4.75L-1,2.1L-1.05,0.3L-1.05,-2.25C-2.05,-1.683 -3.05,-1.483 -4.05,-1.65L-4.1,-3.05C-3.033,-3.15 -2.067,-3.633 -1.2,-4.5L-1.5,-7.45L-4.35,-7.3L-4.35,-9.7L3.15,-12.35L3.65,-7.75" style="fill:#154d18;fill-opacity:0.55;"/>
                        <path d="M3.65,-7.75L4.3,-0.95C4.533,1.85 5.467,4.533 7.1,7.1L8.05,7.85L9.3,8.3C9.767,8.567 10.1,8.933 10.3,9.4C9.033,9.267 8.05,9.433 7.35,9.9C8.217,10.533 8.967,11.283 9.6,12.15C9.633,13.85 8.85,14.65 7.25,14.55C5.617,13.717 4.517,13.717 3.95,14.55C2.717,16.483 1.533,17.833 0.4,18.6C-1.2,19.667 -2.717,19.667 -4.15,18.6L-5.45,17.4L-7.35,15.55L-8.6,15.35C-9.2,15.383 -9.75,15.683 -10.25,16.25C-9.883,14.95 -9.333,14 -8.6,13.4C-7.967,12.9 -7.217,12.633 -6.35,12.6C-5.383,12.267 -4.767,11.65 -4.5,10.75C-4.133,6.417 -3.983,2.283 -4.05,-1.65C-3.05,-1.483 -2.05,-1.683 -1.05,-2.25L-1.05,0.3L-1,2.1L-1.1,4.75L-1.4,7.45L-2.45,11.85L-2.45,15C-1.183,12.967 -0.4,10.467 -0.1,7.5L0.05,4.1L1,7.9L0.55,3.25L1.25,-4.25C1.75,-0.117 2.567,3.85 3.7,7.65L3.85,8.15L5.9,11.4L4.7,6.4C3.6,3.233 2.8,-0.2 2.3,-3.9L2.7,-5.8L3.65,-7.75M5.4,8.2L5.2,7.7L4.7,6.4L5.2,7.7L5.4,8.2M-4.35,-7.3L-1.5,-7.45L-1.2,-4.5C-2.067,-3.633 -3.033,-3.15 -4.1,-3.05L-4.35,-7.3M1.2,9.85L1,7.9L1.2,9.85M6.55,9.35L7.35,9.9L6.55,9.35M-2.8,12.95L-2.45,11.85L-2.8,12.95" style="fill:#37a835;fill-opacity:0.55;"/>
                        <path d="M7.35,9.9C8.05,9.433 9.033,9.267 10.3,9.4C10.1,8.933 9.767,8.567 9.3,8.3L8.05,7.85L7.1,7.1C5.467,4.533 4.533,1.85 4.3,-0.95L3.65,-7.75L3.15,-12.35L-4.35,-9.7L-4.35,-7.3L-4.1,-3.05L-4.05,-1.65C-3.983,2.283 -4.133,6.417 -4.5,10.75C-4.767,11.65 -5.383,12.267 -6.35,12.6C-7.217,12.633 -7.967,12.9 -8.6,13.4C-9.333,14 -9.883,14.95 -10.25,16.25C-9.75,15.683 -9.2,15.383 -8.6,15.35L-7.35,15.55L-5.45,17.4L-4.15,18.6C-2.717,19.667 -1.2,19.667 0.4,18.6C1.533,17.833 2.717,16.483 3.95,14.55C4.517,13.717 5.617,13.717 7.25,14.55C8.85,14.65 9.633,13.85 9.6,12.15C8.967,11.283 8.217,10.533 7.35,9.9L6.55,9.35M2.3,-3.9C2.8,-0.2 3.6,3.233 4.7,6.4L5.2,7.7L5.4,8.2M-1.1,4.75L-1.4,7.45L-2.45,11.85L-2.8,12.95M1,7.9L0.55,3.25M1,7.9L1.2,9.85" style="fill:none;fill-rule:nonzero;stroke:#000;stroke-opacity:0.3;stroke-width:0.05px;"/>
                        <path d="M-5.25,5.35L-6.8,2.9L-4.9,3.3L-5.25,5.35" style="fill:#34c13a;"/>
                        <path d="M-6.8,2.9L-5.7,2.15L-3.9,2.45L-4.9,3.3L-6.8,2.9" style="fill:#1b611e;"/>
                        <path d="M-3.9,2.45L-5.25,5.35L-4.9,3.3L-3.9,2.45" style="fill:#154d18;"/>
                        <path d="M-6.8,2.9L-5.7,2.15L-3.9,2.45L-5.25,5.35L-6.8,2.9Z" style="fill:none;fill-rule:nonzero;stroke:#000;stroke-opacity:0.3;stroke-width:0.05px;"/>
                        <path d="M-5.75,-0.2L-5.75,-3.15L-4.7,-3.15L-4.75,-1L-4.75,0.7L-5.75,-0.2M-5.75,-2.25C-5.483,-1.45 -5.15,-1.033 -4.75,-1C-5.15,-1.033 -5.483,-1.45 -5.75,-2.25" style="fill:#916c30;"/>
                        <path d="M-4.75,0.7L-4.75,2.65C-5.117,2.883 -5.45,2.883 -5.75,2.65L-5.75,-0.2L-4.75,0.7M-4.75,1.2C-5.017,1.333 -5.35,1.1 -5.75,0.5C-5.35,1.1 -5.017,1.333 -4.75,1.2" style="fill:#e1a84b;"/>
                        <path d="M-5.75,-0.2L-5.75,-3.15L-4.7,-3.15L-4.75,-1L-4.75,2.65C-5.117,2.883 -5.45,2.883 -5.75,2.65L-5.75,-0.2M-4.75,-1C-5.15,-1.033 -5.483,-1.45 -5.75,-2.25M-5.75,0.5C-5.35,1.1 -5.017,1.333 -4.75,1.2" style="fill:none;fill-rule:nonzero;stroke:#000;stroke-opacity:0.3;stroke-width:0.05px;"/>
                        <path d="M2.25,-2.4L3.2,-3.05L4.8,-2.8L3.9,-2.05L2.25,-2.4" style="fill:#1b611e;"/>
                        <path d="M4.8,-2.8L3.55,-0.2L3.9,-2.05L4.8,-2.8" style="fill:#154d18;"/>
                        <path d="M3.55,-0.2L2.25,-2.4L3.9,-2.05L3.55,-0.2" style="fill:#34c13a;"/>
                        <path d="M2.25,-2.4L3.2,-3.05L4.8,-2.8L3.55,-0.2L2.25,-2.4Z" style="fill:none;fill-rule:nonzero;stroke:#000;stroke-opacity:0.3;stroke-width:0.05px;"/>
                        <path d="M3.15,-5.15L3.15,-7.75L4.05,-7.75L4.05,-4.35L3.15,-5.15M3.15,-7C3.383,-6.267 3.683,-5.883 4.05,-5.85C3.683,-5.883 3.383,-6.267 3.15,-7" style="fill:#916c30;"/>
                        <path d="M4.05,-4.35L4.05,-2.6C3.717,-2.4 3.417,-2.4 3.15,-2.6L3.15,-5.15L4.05,-4.35M4.05,-3.9C3.783,-3.8 3.483,-4.017 3.15,-4.55C3.483,-4.017 3.783,-3.8 4.05,-3.9" style="fill:#e1a84b;"/>
                        <path d="M3.15,-5.15L3.15,-7.75L4.05,-7.75L4.05,-2.6C3.717,-2.4 3.417,-2.4 3.15,-2.6L3.15,-5.15M3.15,-4.55C3.483,-4.017 3.783,-3.8 4.05,-3.9M4.05,-5.85C3.683,-5.883 3.383,-6.267 3.15,-7" style="fill:none;fill-rule:nonzero;stroke:#000;stroke-opacity:0.3;stroke-width:0.05px;"/>
                        <path d="M-4,-13.4L-4,-13.45L-2.95,-15.3L-2.55,-16L0.45,-16.6L0.95,-16.8L2.8,-14.45L3.15,-13.8C3.65,-12.667 4,-11.483 4.2,-10.25C4.167,-9.483 4.183,-8.85 4.25,-8.35L4,-7.55L3.95,-7.45L3.7,-6.8L3.55,-6.65L2.6,-6.1L1.9,-6.05L1.8,-6.1L1.4,-6.5L1.4,-6.55L1.35,-6.65L1.25,-7.3L1.25,-7.8L1.35,-8.3L1.4,-8.4L1.8,-9.1L2.2,-9L2.25,-8.95L2.35,-8.6C2.083,-8.633 1.9,-8.533 1.8,-8.3L1.8,-8.2L1.75,-7.85L1.75,-7.25L1.8,-7.05L1.8,-6.95C1.967,-6.717 2.15,-6.633 2.35,-6.7L2.8,-6.95L3,-7.15C3.367,-8.017 3.567,-9.05 3.6,-10.25C3.567,-10.883 3.467,-11.317 3.3,-11.55L3.3,-11.7C3.067,-12.333 2.683,-12.467 2.15,-12.1L1.8,-11.75L1.25,-11.05L0.95,-10.25L0.8,-9.6L0.8,-0.7L0.7,-1.35L0.6,-2.15L0.55,-2.85L0.45,-3.7C0.017,-6.633 -0.4,-8.317 -0.8,-8.75L-0.8,-8.8L-1.05,-9.2L-1.1,-9.25L-1.4,-9.5C-2.3,-10.167 -3.25,-10.05 -4.25,-9.15C-4.817,-8.317 -5.15,-7.517 -5.25,-6.75L-5.15,-5.2L-4.95,-4.85L-4.9,-4.75C-4.433,-3.983 -3.933,-3.617 -3.4,-3.65C-3.1,-3.65 -2.8,-3.8 -2.5,-4.1L-1.95,-4.8C-1.683,-5.233 -1.7,-5.6 -2,-5.9L-2.1,-5.95L-2.35,-6.1C-2.583,-6.133 -2.75,-5.9 -2.85,-5.4L-3,-6.1L-2.9,-6.45L-2.85,-6.5C-2.383,-6.933 -1.9,-7.017 -1.4,-6.75L-1.2,-6.65L-0.85,-6.35C-0.75,-5.983 -0.85,-5.517 -1.15,-4.95L-1.4,-4.45C-1.933,-3.617 -2.617,-3.133 -3.45,-3L-3.8,-2.95L-4.2,-2.95L-5.05,-3.05L-5.15,-3.15L-5.55,-3.8L-6,-5.15L-5.95,-7.2L-5.75,-7.9L-4.05,-13.3L-4,-13.4" style="fill:#c28123;"/>
                        <path d="M3.3,-11.55L3.2,-11.7L2.35,-11.65L1.8,-11.15L1.25,-10.25L1,-9.15L1,-5.8L0.95,-3.05L0.95,0.05L1,1.15L0.8,-0.7L0.8,-9.6L0.95,-10.25L1.25,-11.05L1.8,-11.75L2.15,-12.1C2.683,-12.467 3.067,-12.333 3.3,-11.7L3.3,-11.55M-0.8,-8.8L-0.85,-8.8L-1.4,-9.25L-1.65,-9.35C-2.383,-9.683 -3.167,-9.467 -4,-8.7L-4.3,-8.25C-4.967,-7.05 -5.183,-5.917 -4.95,-4.85L-5.15,-5.2L-5.25,-6.75C-5.15,-7.517 -4.817,-8.317 -4.25,-9.15C-3.25,-10.05 -2.3,-10.167 -1.4,-9.5L-1.1,-9.25L-1.05,-9.2L-0.8,-8.8" style="fill:#856025;"/>
                        <path d="M3.15,-13.8C3.817,-13.067 4.25,-12.15 4.45,-11.05L4.5,-10.2L4.45,-9.5L4.25,-8.35C4.183,-8.85 4.167,-9.483 4.2,-10.25C4,-11.483 3.65,-12.667 3.15,-13.8M-6.15,-3.95L-6.6,-5.3L-6.55,-7.35L-6.35,-8.05L-4.5,-12.5L-4.1,-13.25L-4.05,-13.3L-4.05,-13.4L-4,-13.4L-4.05,-13.3L-5.75,-7.9L-5.95,-7.2L-6,-5.15L-5.55,-3.8L-5.15,-3.15L-5.05,-3.05C-5.45,-3.183 -5.767,-3.417 -6,-3.75L-6.15,-3.95" style="fill:#e9ae5b;"/>
                        <path d="M3.7,-6.8L3.65,-6.7L3.4,-6.3C3.067,-5.833 2.683,-5.6 2.25,-5.6L2,-5.65L1.8,-5.8L1.6,-6.05L1.4,-6.5L1.8,-6.1L1.9,-6.05L2.6,-6.1L3.55,-6.65L3.7,-6.8M-0.85,-6.35L-0.7,-6.15L-0.55,-5.5C-0.55,-5.2 -0.667,-4.833 -0.9,-4.4L-1.4,-3.7L-1.7,-3.35C-2.133,-2.917 -2.633,-2.65 -3.2,-2.55L-4.3,-2.5C-4.933,-2.567 -5.417,-2.833 -5.75,-3.3L-6.15,-3.95L-6,-3.75C-5.767,-3.417 -5.45,-3.183 -5.05,-3.05L-4.2,-2.95L-3.8,-2.95L-3.45,-3C-2.617,-3.133 -1.933,-3.617 -1.4,-4.45L-1.15,-4.95C-0.85,-5.517 -0.75,-5.983 -0.85,-6.35" style="fill:#965b24;"/>
                        <path d="M-4,-13.4L-4,-13.45L-2.95,-15.3L-2.55,-16L0.45,-16.6L0.95,-16.8L2.8,-14.45L3.15,-13.8C3.817,-13.067 4.25,-12.15 4.45,-11.05L4.5,-10.2L4.45,-9.5L4.25,-8.35L4,-7.55L3.95,-7.45L3.7,-6.8L3.65,-6.7L3.4,-6.3C3.067,-5.833 2.683,-5.6 2.25,-5.6L2,-5.65L1.8,-5.8L1.6,-6.05L1.4,-6.5L1.4,-6.55L1.35,-6.65L1.25,-7.3L1.25,-7.8L1.35,-8.3L1.4,-8.4L1.8,-9.1L2.2,-9L2.25,-8.95L2.35,-8.6C2.083,-8.633 1.9,-8.533 1.8,-8.3L1.8,-8.2L1.75,-7.85L1.75,-7.25L1.8,-7.05L1.8,-6.95C1.967,-6.717 2.15,-6.633 2.35,-6.7L2.8,-6.95L3,-7.15C3.367,-8.017 3.567,-9.05 3.6,-10.25C3.567,-10.883 3.467,-11.317 3.3,-11.55L3.2,-11.7L2.35,-11.65L1.8,-11.15L1.25,-10.25L1,-9.15L1,-5.8L0.95,-3.05L0.95,0.05L1,1.15L0.8,-0.7L0.7,-1.35L0.6,-2.15L0.55,-2.85L0.45,-3.7C0.017,-6.633 -0.4,-8.317 -0.8,-8.75L-0.8,-8.8L-0.85,-8.8L-1.4,-9.25L-1.65,-9.35C-2.383,-9.683 -3.167,-9.467 -4,-8.7L-4.3,-8.25C-4.967,-7.05 -5.183,-5.917 -4.95,-4.85L-4.9,-4.75C-4.433,-3.983 -3.933,-3.617 -3.4,-3.65C-3.1,-3.65 -2.8,-3.8 -2.5,-4.1L-1.95,-4.8C-1.683,-5.233 -1.7,-5.6 -2,-5.9L-2.1,-5.95L-2.35,-6.1C-2.583,-6.133 -2.75,-5.9 -2.85,-5.4L-3,-6.1L-2.9,-6.45L-2.85,-6.5C-2.383,-6.933 -1.9,-7.017 -1.4,-6.75L-1.2,-6.65L-0.85,-6.35L-0.7,-6.15L-0.55,-5.5C-0.55,-5.2 -0.667,-4.833 -0.9,-4.4L-1.4,-3.7L-1.7,-3.35C-2.133,-2.917 -2.633,-2.65 -3.2,-2.55L-4.3,-2.5C-4.933,-2.567 -5.417,-2.833 -5.75,-3.3L-6.15,-3.95L-6.6,-5.3L-6.55,-7.35L-6.35,-8.05L-4.5,-12.5L-4.1,-13.25L-4.05,-13.3L-4.05,-13.4L-4,-13.4Z" style="fill:none;fill-rule:nonzero;stroke:#000;stroke-opacity:0.3;stroke-width:0.05px;"/>
                        <path d="M1.55,-11.05C1.55,-10.683 1.433,-10.35 1.2,-10.05C0.967,-9.783 0.683,-9.633 0.35,-9.6C0.017,-9.567 -0.25,-9.667 -0.45,-9.9L-0.75,-10.45L-0.8,-10.85L-0.45,-11.85C-0.217,-12.117 0.067,-12.283 0.4,-12.35L1.15,-12.1L1.2,-12L1.55,-11.05" style="fill-opacity:0.3;"/>
                        <path d="M0.95,-16.65L1,-16.8L2.8,-14.45L3,-14.15C2.767,-13.55 2.4,-13.067 1.9,-12.7L1.4,-12.35L1.05,-12.5L0.95,-12.6L0.4,-12.2L-0.55,-12.2C-1.05,-12.167 -1.333,-12.317 -1.4,-12.65L-1.5,-12.95C-1.733,-12.45 -1.683,-11.883 -1.35,-11.25L-2.1,-11.1L-3.15,-11.05C-3.983,-10.95 -4.567,-11.167 -4.9,-11.7L-4.45,-12.55L-4.1,-13.25L-4.05,-13.3L-4,-13.4L-4,-13.45L-2.95,-15.3L-2.55,-16L-2.25,-16.05L-1.95,-15.5C-1.883,-15.133 -1.9,-14.783 -2,-14.45C-1.6,-14.75 -1.233,-15.383 -0.9,-16.35L-0.85,-16.5C-0.817,-16.6 -0.683,-16.65 -0.45,-16.65L0.35,-16.65L0.4,-16.6L0.45,-16.6C0.583,-16.067 0.75,-15.683 0.95,-15.45L1.05,-15.6C0.917,-15.867 0.883,-16.217 0.95,-16.65" style="fill-opacity:0.3;"/>
                        <path d="M1.15,-12.7L1.25,-12.65L1.55,-11.7C1.55,-11.333 1.433,-11 1.2,-10.7C0.967,-10.4 0.683,-10.233 0.35,-10.2C0.05,-10.2 -0.217,-10.317 -0.45,-10.55L-0.75,-11.1C-0.55,-10.9 -0.3,-10.817 0,-10.85C0.333,-10.883 0.617,-11.033 0.85,-11.3C1.083,-11.6 1.2,-11.95 1.2,-12.35L1.15,-12.7" style="fill:#1d5d23;"/>
                        <path d="M-0.75,-11.1L-0.8,-11.5L-0.4,-12.5C-0.2,-12.767 0.067,-12.917 0.4,-12.95L1.15,-12.7L1.2,-12.35C1.2,-11.95 1.083,-11.6 0.85,-11.3C0.617,-11.033 0.333,-10.883 0,-10.85C-0.3,-10.817 -0.55,-10.9 -0.75,-11.1M0.3,-12.6L0.25,-12.6L0,-12.7L-0.25,-12.55L-0.35,-12.2L-0.35,-12.1L-0.25,-11.9L0,-11.8L0.3,-12L0.4,-12.3L0.3,-12.6" style="fill:#34c13a;"/>
                        <path d="M0.3,-12.6L0.4,-12.3L0.3,-12L0,-11.8L-0.25,-11.9L-0.35,-12.1L-0.35,-12.2L-0.25,-12.55L0,-12.7L0.25,-12.6L0.3,-12.6" style="fill:#99e29d;"/>
                        <path d="M-0.75,-11.1L-0.8,-11.5L-0.4,-12.5C-0.2,-12.767 0.067,-12.917 0.4,-12.95L1.15,-12.7L1.25,-12.65L1.55,-11.7C1.55,-11.333 1.433,-11 1.2,-10.7C0.967,-10.4 0.683,-10.233 0.35,-10.2C0.05,-10.2 -0.217,-10.317 -0.45,-10.55L-0.75,-11.1Z" style="fill:none;fill-rule:nonzero;stroke:#000;stroke-opacity:0.3;stroke-width:0.05px;"/>
                        <path d="M1.05,-17.2C0.917,-17.467 0.883,-17.8 0.95,-18.2C1.017,-18.767 1.2,-19.133 1.5,-19.3L1.7,-19.4L1.8,-19.35L2.45,-19.35L2.3,-19.3L2.1,-19.15C1.933,-18.95 1.817,-18.633 1.75,-18.2C1.683,-17.8 1.717,-17.45 1.85,-17.15L1.05,-17.2M-0.85,-18.05L-0.85,-18.1L-0.45,-18.2L0.15,-18.2L-0.05,-18.05L-0.1,-17.95L-0.85,-18.05" style="fill:#efca9f;"/>
                        <path d="M1.85,-17.15C1.717,-17.45 1.683,-17.8 1.75,-18.2C1.817,-18.633 1.933,-18.95 2.1,-19.15L2.3,-19.3L2.45,-19.35L2.5,-19.35C2.8,-19.383 3,-19.15 3.1,-18.65L3.25,-17.7L3.25,-17.2L3.2,-16.55C3.067,-15.583 2.633,-14.817 1.9,-14.25L1.45,-13.95L1.4,-13.95L1.55,-14.7C1.65,-15.433 1.483,-15.817 1.05,-15.85L1.2,-15.55L1.2,-14.8L1.15,-14.75L1.15,-14.55L1,-14.15L0.95,-14.15L0.4,-13.75L0,-13.75L-0.25,-13.8L-0.6,-14.2L-0.75,-15.25L-1.5,-14.5C-1.733,-14.033 -1.683,-13.483 -1.35,-12.85L-2.1,-12.65L-3.1,-12.6C-3.767,-12.733 -4.183,-13.15 -4.35,-13.85L-4.4,-14.55L-4.45,-15.15L-4.25,-16.4C-4.05,-17.067 -3.7,-17.517 -3.2,-17.75L-3.15,-17.8L-3,-17.8C-2.467,-17.9 -2.117,-17.667 -1.95,-17.1C-1.883,-16.733 -1.9,-16.367 -2,-16L-2.05,-15.9L-2.45,-15.3C-2.783,-15.267 -2.983,-15.35 -3.05,-15.55L-3.05,-16.15L-3.05,-15.55C-2.983,-15.35 -2.783,-15.267 -2.45,-15.3L-2.05,-15.9C-1.317,-15.667 -0.7,-16.267 -0.2,-17.7L-0.1,-17.95L-0.05,-18.05L0.15,-18.2L0.35,-18.2L0.45,-18.15C0.583,-17.617 0.75,-17.25 0.95,-17.05L1.3,-16.8C1.467,-16.8 1.65,-16.917 1.85,-17.15L2.1,-16.85L2.45,-17.3L2.45,-17.9L2.45,-17.3L2.1,-16.85L1.85,-17.15" style="fill:#ef9e41;"/>
                        <path d="M1.05,-17.2L1.85,-17.15C1.65,-16.917 1.467,-16.8 1.3,-16.8L0.95,-17.05L1.05,-17.2M-3.1,-12.6C-4.233,-12.467 -4.917,-12.883 -5.15,-13.85L-5.2,-14.55L-5.25,-15.15L-5.05,-16.4C-4.85,-17.1 -4.483,-17.567 -3.95,-17.8L-3.5,-17.85L-3.4,-17.85L-3,-17.8L-3.15,-17.8L-3.2,-17.75C-3.7,-17.517 -4.05,-17.067 -4.25,-16.4L-4.45,-15.15L-4.4,-14.55L-4.35,-13.85C-4.183,-13.15 -3.767,-12.733 -3.1,-12.6M-2,-16C-1.567,-16.333 -1.183,-17.017 -0.85,-18.05L-0.1,-17.95L-0.2,-17.7C-0.7,-16.267 -1.317,-15.667 -2.05,-15.9L-2,-16" style="fill:#efaf66;"/>
                        <path d="M1.4,-13.95L1.05,-14.1L1.15,-14.75L1.2,-14.8L1.2,-15.55L1.05,-15.85C1.483,-15.817 1.65,-15.433 1.55,-14.7L1.4,-13.95M0,-13.75L-0.55,-13.75C-1.05,-13.75 -1.333,-13.9 -1.4,-14.2L-1.5,-14.5L-0.75,-15.25L-0.6,-14.2L-0.25,-13.8L0,-13.75" style="fill:#965b24;"/>
                        <path d="M2.45,-19.35L1.8,-19.35L1.7,-19.4L1.5,-19.3C1.2,-19.133 1.017,-18.767 0.95,-18.2C0.883,-17.8 0.917,-17.467 1.05,-17.2L0.95,-17.05C0.75,-17.25 0.583,-17.617 0.45,-18.15L0.35,-18.2L-0.45,-18.2L-0.85,-18.1L-0.85,-18.05C-1.183,-17.017 -1.567,-16.333 -2,-16C-1.9,-16.367 -1.883,-16.733 -1.95,-17.1C-2.117,-17.667 -2.467,-17.9 -3,-17.8L-3.4,-17.85L-3.5,-17.85L-3.95,-17.8C-4.483,-17.567 -4.85,-17.1 -5.05,-16.4L-5.25,-15.15L-5.2,-14.55L-5.15,-13.85C-4.917,-12.883 -4.233,-12.467 -3.1,-12.6L-2.1,-12.65L-1.35,-12.85C-1.683,-13.483 -1.733,-14.033 -1.5,-14.5L-1.4,-14.2C-1.333,-13.9 -1.05,-13.75 -0.55,-13.75L0.4,-13.75L0.95,-14.15L1,-14.15L1.15,-14.55L1.15,-14.75L1.05,-14.1L1.4,-13.95L1.45,-13.95L1.9,-14.25C2.633,-14.817 3.067,-15.583 3.2,-16.55L3.25,-17.2L3.25,-17.7L3.1,-18.65C3,-19.15 2.8,-19.383 2.5,-19.35L2.45,-19.35L2.3,-19.3M1.85,-17.15L2.1,-16.85L2.45,-17.3L2.45,-17.9M-2.05,-15.9L-2,-16M-3.05,-16.15L-3.05,-15.55C-2.983,-15.35 -2.783,-15.267 -2.45,-15.3L-2.05,-15.9" style="fill:none;fill-rule:nonzero;stroke:#000;stroke-opacity:0.3;stroke-width:0.05px;"/>
                        <path d="M-0.3,-15.1L-0.35,-15.45L-0.15,-16.3L0.3,-16.65L0.65,-16.35L0.7,-16L0.5,-15.15L0.1,-14.8C-0.067,-14.8 -0.2,-14.9 -0.3,-15.1M0.2,-16.35L0.1,-16.45L-0.05,-16.35L-0.1,-16.05L-0.1,-15.95L-0.05,-15.8L0.1,-15.65L0.2,-15.75L0.3,-16.05L0.2,-16.35" style="fill:#34c13a;"/>
                        <path d="M0.2,-16.35L0.3,-16.05L0.2,-15.75L0.1,-15.65L-0.05,-15.8L-0.1,-15.95L-0.1,-16.05L-0.05,-16.35L0.1,-16.45L0.2,-16.35" style="fill:#99e29d;"/>
                        <path d="M0.65,-16.35L0.7,-16.3L0.9,-15.45L0.7,-14.6C0.6,-14.367 0.467,-14.25 0.3,-14.25C0.1,-14.25 -0.05,-14.367 -0.15,-14.6L-0.3,-15.1C-0.2,-14.9 -0.067,-14.8 0.1,-14.8L0.5,-15.15L0.7,-16L0.65,-16.35" style="fill:#1d5d23;"/>
                        <path d="M-0.3,-15.1L-0.35,-15.45L-0.15,-16.3L0.3,-16.65L0.65,-16.35L0.7,-16.3L0.9,-15.45L0.7,-14.6C0.6,-14.367 0.467,-14.25 0.3,-14.25C0.1,-14.25 -0.05,-14.367 -0.15,-14.6L-0.3,-15.1Z" style="fill:none;fill-rule:nonzero;stroke:#000;stroke-opacity:0.3;stroke-width:0.05px;"/>
                        <path d="M-5.25,-2.45C-5.883,-2.55 -6.167,-2.817 -6.1,-3.25L-5,-4.3L-4.6,-4.65C-4.167,-4.55 -3.883,-4.283 -3.75,-3.85L-4.65,-3.05L-5.25,-2.45M-5,-4.3C-4.7,-3.9 -4.583,-3.483 -4.65,-3.05C-4.583,-3.483 -4.7,-3.9 -5,-4.3" style="fill:#e1a84b;"/>
                        <path d="M-5.25,-2.45C-5.883,-2.55 -6.167,-2.817 -6.1,-3.25L-5,-4.3L-4.6,-4.65C-4.167,-4.55 -3.883,-4.283 -3.75,-3.85L-4.65,-3.05L-5.25,-2.45M-4.65,-3.05C-4.583,-3.483 -4.7,-3.9 -5,-4.3" style="fill:none;fill-rule:nonzero;stroke:#000;stroke-opacity:0.3;stroke-width:0.05px;"/>
                        <path d="M3.35,-6.8L2.9,-7.45C2.967,-7.783 3.1,-7.983 3.3,-8.05L3.5,-7.75L3.35,-6.8L3.5,-7.75L4.1,-7C4.133,-6.667 3.983,-6.467 3.65,-6.4L3.35,-6.8" style="fill:#e1a84b;"/>
                        <path d="M3.5,-7.75L3.3,-8.05C3.1,-7.983 2.967,-7.783 2.9,-7.45L3.35,-6.8L3.5,-7.75L4.1,-7C4.133,-6.667 3.983,-6.467 3.65,-6.4L3.35,-6.8" style="fill:none;fill-rule:nonzero;stroke:#000;stroke-opacity:0.3;stroke-width:0.05px;"/>
                    </g>
                </g>
            </g>
        </g>
    </g>
</svg>
