<?xml version="1.0" encoding="UTF-8" standalone="no"?>
<!DOCTYPE svg PUBLIC "-//W3C//DTD SVG 1.1//EN" "http://www.w3.org/Graphics/SVG/1.1/DTD/svg11.dtd">
<svg width="100%" height="100%" viewBox="0 0 18 30" version="1.1" xmlns="http://www.w3.org/2000/svg" xmlns:xlink="http://www.w3.org/1999/xlink" xml:space="preserve" xmlns:serif="http://www.serif.com/" style="fill-rule:evenodd;clip-rule:evenodd;stroke-linecap:round;stroke-linejoin:round;">
    <g id="sprite0" transform="matrix(1,0,0,1,8.55,14.6)">
        <g>
            <g id="shape0">
                <path d="M3.4,-4.2L3.35,-4.15C4.317,-2.083 5.117,0.133 5.75,2.5C6.517,3.3 7.25,4.317 7.95,5.55L8.05,5.65L7.95,5.7L7.45,6.05L6.75,6.4L5.9,6.8C4.067,9.667 1.883,12 -0.65,13.8L-1.25,14.1L-1.25,14.15L-1.3,14.15L-1.3,14.1C-2.4,12.533 -3.35,10.75 -4.15,8.75L-4.85,6.75L-6.2,1.6L-7.2,0.1L-8,-1.9L-8.05,-1.95L-8,-1.95L-6.25,-2.95L-3.9,-6.7L-3.45,-7.3L-3.7,-7L-3.95,-6.65C-3.85,-7.817 -3.85,-8.883 -3.95,-9.85L-2.65,-10.75L-2.3,-11.1L-1.55,-11.9L-1.3,-12.25L-0.35,-13.75L0.25,-14.1L0.35,-13.85C1.017,-11.65 2.067,-9.867 3.5,-8.5C3.3,-6.767 3.267,-5.333 3.4,-4.2M-3.4,-7.35L-2.05,-9L-2.55,-8.45L-3.4,-7.35M-1,-10.15L-1.45,-9.7L-1.8,-9.25L-1,-10.15" style="fill:rgb(40,10,2);"/>
                <path d="M3.4,-4.2C3.267,-5.333 3.3,-6.767 3.5,-8.5C2.067,-9.867 1.017,-11.65 0.35,-13.85L0.25,-14.1L-0.35,-13.75L-1.3,-12.25L-1.55,-11.9L-2.3,-11.1L-2.65,-10.75L-3.95,-9.85C-3.85,-8.883 -3.85,-7.817 -3.95,-6.65L-3.7,-7L-3.45,-7.3L-3.9,-6.7L-6.25,-2.95L-8,-1.95L-8.05,-1.95L-8,-1.9L-7.2,0.1L-6.2,1.6L-4.85,6.75L-4.15,8.75C-3.35,10.75 -2.4,12.533 -1.3,14.1L-1.3,14.15L-1.25,14.15L-1.25,14.1L-0.65,13.8C1.883,12 4.067,9.667 5.9,6.8L6.75,6.4L7.45,6.05L7.95,5.7L8.05,5.65L7.95,5.55C7.25,4.317 6.517,3.3 5.75,2.5C5.117,0.133 4.317,-2.083 3.35,-4.15L3.4,-4.2M-3.4,-7.35L-2.05,-9L-2.55,-8.45L-3.4,-7.35M-1,-10.15L-1.45,-9.7L-1.8,-9.25L-1,-10.15Z" style="fill:none;fill-rule:nonzero;stroke:rgb(40,10,2);stroke-width:1px;"/>
            </g>
            <g id="sprite1" transform="matrix(0.0498,0,0,0.0497,-6.75051,-9.09676)">
                <g id="shape1">
                    <path d="M128.8,17.65L248.25,275.7L117.5,430.2C73.233,374 37.217,285.783 9.45,165.55C34.783,99.617 70.6,50.317 116.9,17.65L128.8,17.65" style="fill:rgb(96,92,76);"/>
                    <path d="M128.8,17.65L248.25,275.7L117.5,430.2C73.233,374 37.217,285.783 9.45,165.55C34.783,99.617 70.6,50.317 116.9,17.65L128.8,17.65Z" style="fill:none;fill-rule:nonzero;stroke:black;stroke-opacity:0.3;stroke-width:0.05px;"/>
                    <path d="M181,183.25C174.967,167.817 168.65,152.95 162.05,138.65C154.917,123.383 147.4,108.767 139.5,94.8L122.8,119.8L109.95,126.3L109.95,126.4L109.85,126.65C109.75,126.65 109.7,126.7 109.7,126.8L109.45,126.65L109.35,126.55L109.1,125.45C101.333,110.817 95.9,94.85 92.8,77.55C70.267,113.95 57.517,143.55 54.55,166.35L65.6,186.45C65.367,184.983 65.283,183.467 65.35,181.9L65.35,180.45C65.517,176.45 66.383,173.1 67.95,170.4C68.75,168.933 69.633,167.867 70.6,167.2L71.95,166.5L79.55,162.3C80.383,161.5 81.283,161.017 82.25,160.85L83.1,160.85C85,160.917 86.633,162.383 88,165.25L89.25,169.05C89.583,170.35 89.783,171.783 89.85,173.35L89.85,175.65C89.617,179.75 88.683,183.233 87.05,186.1C86.317,187.3 85.583,188.233 84.85,188.9L83.1,189.9L74.9,194.55L73.55,195.25L71.85,195.5L70.4,195.15L86.2,224.05L63.05,239L63.15,239.15L63.05,239.25C62.95,239.35 62.9,239.433 62.9,239.5L62.65,239.4L62.4,239.25L56.4,240.85L32.4,225.3L32.4,109.5C39.833,97.667 47.917,85.783 56.65,73.85C59.583,69.783 62.65,65.7 65.85,61.6L66.1,61.35L66.7,60.4L66.7,60.5C81.167,41.867 97.267,23.25 115,4.65L115.2,4.15C115.2,3.983 115.25,3.9 115.35,3.9C115.417,3.8 115.5,3.8 115.6,3.9L115.7,4C152.967,53.433 190.75,125.683 229.05,220.75L212.85,337.15L184.2,288.5C195,274.633 202.717,266.15 207.35,263.05C199.417,234.95 190.633,208.35 181,183.25M110.7,174.3L120.25,168.95C122.617,167.617 125.067,167.033 127.6,167.2C137.9,167.533 147.617,180.683 156.75,206.65L158.95,217.8C159.683,223.533 160.05,229.217 160.05,234.85C159.983,248.417 157.583,261.567 152.85,274.3C149.817,281.733 146.183,287.25 141.95,290.85C140.05,292.317 138.083,293.45 136.05,294.25L130.15,297.7L129.55,298.05C125.05,300.683 119.983,301.467 114.35,300.4C111.417,299.833 108.4,298.817 105.3,297.35C83.567,282.483 73.933,262.383 76.4,237.05L86.2,231.55L87.55,234.5C99.55,258.733 110.4,270.45 120.1,269.65L122.35,266.95C128.15,260.817 130.883,248.317 130.55,229.45C129.717,213.517 124.85,203.6 115.95,199.7C112.85,205.5 111.5,215.7 111.9,230.3L102.1,235.85C97.3,225.383 94.767,215.9 94.5,207.4C94.267,200.8 95.45,194.8 98.05,189.4C100.75,183.767 104.883,178.783 110.45,174.45L110.7,174.3" style="fill:rgb(69,66,54);"/>
                    <path d="M115.9,-21.65L116.05,-21.4L115.9,-21.2C114.767,-17.6 113.8,-14 113,-10.4L111.25,-3.4L111.15,-3.15C107.95,10.15 105.983,23.333 105.25,36.4C103.783,58.067 105.383,79.383 110.05,100.35L110.15,100.6L110.15,100.75L110.05,101C109.95,101 109.9,101.033 109.9,101.1L109.65,101L109.55,100.85L109.3,99.75C104.733,79.017 103.183,57.9 104.65,36.4C105.383,23.267 107.35,10.083 110.55,-3.15L110.65,-3.55C111.05,-5.817 111.617,-8.133 112.35,-10.5C113.183,-14.033 114.133,-17.55 115.2,-21.05L115.45,-21.55L115.55,-21.8L115.8,-21.8L115.9,-21.65M62.75,213.1L63.1,213.2L63.35,213.45L63.25,213.6L63.1,213.8L62.6,213.6L58.95,211.5C38.217,199.733 18.167,185.233 -1.2,168L-9.4,160.5C-14.9,155.467 -20.25,150.2 -25.45,144.7L-25.95,144.25L-25.95,144L-25.85,143.75C-25.85,143.65 -25.8,143.65 -25.7,143.75L-25.45,143.85C-20.083,149.417 -14.617,154.817 -9.05,160.05L-0.85,167.5C18.417,184.733 38.433,199.233 59.2,211L62.75,213.1M109.3,360.6C109.3,360.433 109.35,360.317 109.45,360.25L109.55,360C109.55,359.9 109.633,359.9 109.8,360L109.9,360.1L110.05,360.35C109.95,360.45 109.9,360.567 109.9,360.7L108.7,366.95C104.033,389.517 102.433,410.967 103.9,431.3C104.733,443.8 106.783,455.883 110.05,467.55L110.05,467.7L109.9,467.8L109.8,468.05L109.55,467.95L109.45,467.8L109.2,466.95C106.1,455.517 104.133,443.633 103.3,431.3C101.733,410.967 103.333,389.483 108.1,366.85C108.4,364.717 108.8,362.633 109.3,360.6M191.25,279.35L191.4,279.35L214.2,286.6C236.233,293.133 258.983,298.65 282.45,303.15L283.65,303.25L283.9,303.4L284,303.5L282.3,303.75C258.767,299.35 236.017,293.833 214.05,287.2C206.45,284.933 198.85,282.317 191.25,279.35" style="fill:white;"/>
                    <path d="M176.7,78.8C159.533,44.833 140.217,12.817 118.75,-17.25L115.9,-21.2L116.05,-21.4L115.9,-21.65L128.9,-28.15C183.233,46.75 223.95,133.9 251.05,233.3L237.85,239.9C227.883,203.467 216.117,168.683 202.55,135.55L202.2,134.65L199.95,129.4C194.317,116 188.45,102.933 182.35,90.2L176.7,78.8" style="fill:rgb(251,251,251);"/>
                    <path d="M115.9,-21.2L118.75,-17.25C140.217,12.817 159.533,44.833 176.7,78.8L162.25,113C155.117,97.7 147.6,83.067 139.7,69.1L135.5,62L110.05,100.35C105.383,79.383 103.783,58.067 105.25,36.4C105.983,23.333 107.95,10.15 111.15,-3.15L111.25,-3.4L113,-10.4C113.8,-14 114.767,-17.6 115.9,-21.2M199.95,129.4L202.2,134.65L202.55,135.55C216.117,168.683 227.883,203.467 237.85,239.9C242.917,245.4 247.9,251.333 252.8,257.7L210.85,249.35C202.117,216.75 192.233,186.167 181.2,157.6L199.95,129.4" style="fill:rgb(209,211,195);"/>
                    <path d="M176.7,78.8L182.35,90.2C188.45,102.933 194.317,116 199.95,129.4L181.2,157.6C175.167,142.167 168.85,127.3 162.25,113L176.7,78.8M115.2,-21.05C114.133,-17.55 113.183,-14.033 112.35,-10.5C111.617,-8.133 111.05,-5.817 110.65,-3.55L110.55,-3.15C107.35,10.083 105.383,23.267 104.65,36.4C103.183,57.9 104.733,79.017 109.3,99.75C101.533,85.117 96.1,69.15 93,51.85L91.3,40.45C79.133,58.817 68.717,76.383 60.05,93.15C56.783,99.417 53.767,105.583 51,111.65C43.633,127.717 38.033,142.983 34.2,157.45L10.3,123.65C22.8,98.483 38.317,73.317 56.85,48.15C59.817,44.083 62.883,40 66.05,35.9L66.3,35.65L66.65,35.2L66.9,34.8C81.367,16.2 97.467,-2.417 115.2,-21.05M210.85,249.35L252.8,257.7L252.9,257.7C262.867,270.433 272.667,284.933 282.3,301.2L283.65,303.25L282.45,303.15C258.983,298.65 236.233,293.133 214.2,286.6L191.4,279.35C195.167,269.317 201.65,259.317 210.85,249.35" style="fill:rgb(222,224,208);"/>
                    <path d="M110.05,100.35L135.5,62L139.7,69.1L123.05,94.1L110.15,100.6L110.05,100.35M34.2,157.45C38.033,142.983 43.633,127.717 51,111.65C53.767,105.583 56.783,99.417 60.05,93.15C68.717,76.383 79.133,58.817 91.3,40.45L93,51.85C70.467,88.283 55.283,121.283 47.45,150.85L34.2,157.45M51.1,216.5C64.167,273.033 80.583,323.767 100.35,368.7L88.85,379.1C79.783,358.833 71.417,337.4 63.75,314.8C60.05,303.933 56.533,292.817 53.2,281.45C47.3,261.85 41.95,241.383 37.15,220.05L51.1,216.5M109.9,360.1L122.9,353.6L141.05,389.5C136.95,392.467 132.817,395.283 128.65,397.95L109.9,360.7C109.9,360.567 109.95,360.45 110.05,360.35L109.9,360.1M284,303.5L297,297L295.55,298.1L285.25,304.85L285.1,305C280.633,307.533 275.983,309.85 271.15,311.95C274.983,309.75 278.7,307.35 282.3,304.75C282.633,304.417 283.2,304 284,303.5" style="fill:rgb(119,119,112);"/>
                    <path d="M66.65,35.2L66.9,34.7L66.9,34.8L66.65,35.2" style="fill:rgb(241,243,225);"/>
                    <path d="M10.3,123.65L34.2,157.45L62.75,213.1L59.2,211C38.433,199.233 18.417,184.733 -0.85,167.5L-9.05,160.05C-14.617,154.817 -20.083,149.417 -25.45,143.85L10.3,123.65" style="fill:rgb(241,243,233);"/>
                    <path d="M237.85,239.9L251.05,233.3C266.25,249.8 281.083,270.217 295.55,294.55L297,297L284,303.5L283.9,303.4L283.65,303.25L282.3,301.2C272.667,284.933 262.867,270.433 252.9,257.7L252.8,257.7C247.9,251.333 242.917,245.4 237.85,239.9M34.2,157.45L47.45,150.85L76.2,206.85L63.25,213.35L63.1,213.2L62.75,213.1L34.2,157.45" style="fill:rgb(167,168,156);"/>
                    <path d="M-25.45,144.7C-20.25,150.2 -14.9,155.467 -9.4,160.5L-1.2,168C18.167,185.233 38.217,199.733 58.95,211.5L62.6,213.6L51.1,216.5L37.15,220.05L11.3,215.05C3.7,206.65 -3.167,196.6 -9.3,184.9C-15.433,173.133 -20.817,159.733 -25.45,144.7M169.45,365.25C177.95,356.85 186.117,347.783 193.95,338.05L205.85,375.55C198.35,384.85 190.667,393.833 182.8,402.5L169.45,365.25M213.1,311.45L191.25,279.35C198.85,282.317 206.45,284.933 214.05,287.2C236.017,293.833 258.767,299.35 282.3,303.75L284,303.5C283.2,304 282.633,304.417 282.3,304.75C278.7,307.35 274.983,309.75 271.15,311.95C265.583,315.15 259.75,317.967 253.65,320.4L242,324.35L213.1,311.45" style="fill:rgb(200,202,187);"/>
                    <path d="M100.35,368.7L109.3,360.6C108.8,362.633 108.4,364.717 108.1,366.85C103.333,389.483 101.733,410.967 103.3,431.3C104.133,443.633 106.1,455.517 109.2,466.95C87.067,435.75 67.983,399.733 51.95,358.9L63.75,314.8C71.417,337.4 79.783,358.833 88.85,379.1L100.35,368.7M11.3,215.05L37.15,220.05C41.95,241.383 47.3,261.85 53.2,281.45L37.75,319.05C27.283,286.95 18.467,252.283 11.3,215.05" style="fill:rgb(147,148,137);"/>
                    <path d="M141.05,389.5C150.917,382.233 160.383,374.15 169.45,365.25L182.8,402.5C163.7,423.4 143.25,442.233 121.45,459C117.583,461.867 113.783,464.717 110.05,467.55C106.783,455.883 104.733,443.8 103.9,431.3C102.433,410.967 104.033,389.517 108.7,366.95L109.9,360.7L128.65,397.95C132.817,395.283 136.95,392.467 141.05,389.5M193.95,338.05C200.583,329.717 206.967,320.85 213.1,311.45L242,324.35C230.633,342.483 218.583,359.55 205.85,375.55L193.95,338.05M53.2,281.45C56.533,292.817 60.05,303.933 63.75,314.8L51.95,358.9C46.883,346.067 42.15,332.783 37.75,319.05L53.2,281.45" style="fill:rgb(182,184,170);"/>
                    <path d="M242,324.35L253.65,320.4C217.05,377.833 173.467,424.717 122.9,461.05L110.05,467.55C113.783,464.717 117.583,461.867 121.45,459C143.25,442.233 163.7,423.4 182.8,402.5C190.667,393.833 198.35,384.85 205.85,375.55C218.583,359.55 230.633,342.483 242,324.35" style="fill:rgb(137,138,129);"/>
                    <path d="M251.05,233.3C223.95,133.9 183.233,46.75 128.9,-28.15L115.9,-21.65M139.7,69.1C147.6,83.067 155.117,97.7 162.25,113C168.85,127.3 175.167,142.167 181.2,157.6C192.233,186.167 202.117,216.75 210.85,249.35C201.65,259.317 195.167,269.317 191.4,279.35M110.15,100.6L123.05,94.1L139.7,69.1M93,51.85C96.1,69.15 101.533,85.117 109.3,99.75M10.3,123.65C22.8,98.483 38.317,73.317 56.85,48.15C59.817,44.083 62.883,40 66.05,35.9L66.3,35.65L66.65,35.2L66.9,34.8C81.367,16.2 97.467,-2.417 115.2,-21.05M47.45,150.85C55.283,121.283 70.467,88.283 93,51.85M63.25,213.35L76.2,206.85L47.45,150.85M62.6,213.6L51.1,216.5C64.167,273.033 80.583,323.767 100.35,368.7L109.3,360.6M109.9,360.1L122.9,353.6L141.05,389.5C150.917,382.233 160.383,374.15 169.45,365.25C177.95,356.85 186.117,347.783 193.95,338.05C200.583,329.717 206.967,320.85 213.1,311.45L191.25,279.35M37.15,220.05L51.1,216.5M88.85,379.1L100.35,368.7M37.75,319.05C42.15,332.783 46.883,346.067 51.95,358.9C67.983,399.733 87.067,435.75 109.2,466.95M11.3,215.05C18.467,252.283 27.283,286.95 37.75,319.05M297,297L295.55,294.55C281.083,270.217 266.25,249.8 251.05,233.3M271.15,311.95C275.983,309.85 280.633,307.533 285.1,305L285.25,304.85L295.55,298.1L297,297M253.65,320.4C259.75,317.967 265.583,315.15 271.15,311.95M110.05,467.55L122.9,461.05C173.467,424.717 217.05,377.833 253.65,320.4M-25.45,144.7C-20.817,159.733 -15.433,173.133 -9.3,184.9C-3.167,196.6 3.7,206.65 11.3,215.05M-25.45,143.85L10.3,123.65" style="fill:none;fill-rule:nonzero;stroke:black;stroke-opacity:0.3;stroke-width:0.05px;"/>
                    <path d="M202.2,134.65L202.55,135.55" style="fill:none;fill-rule:nonzero;stroke:rgb(54,255,163);stroke-width:0.05px;"/>
                    <path d="M148.75,-41C142.05,-54 136.25,-67.967 131.35,-82.9L128.05,-93.7L140.8,-100.2C141.2,-98.733 141.65,-97.3 142.15,-95.9C155.617,-51.3 176.767,-15.4 205.6,11.8L192.85,18.3C183.15,9.133 174.333,-1 166.4,-12.1C159.933,-21.1 154.05,-30.733 148.75,-41" style="fill:rgb(96,83,95);"/>
                    <path d="M128.05,-93.7L131.35,-82.9C136.25,-67.967 142.05,-54 148.75,-41C147.45,-17.233 144.917,1.783 141.15,16.05C136.017,7.983 130.75,0.033 125.35,-7.8L118.75,-17.25L115.65,-21.55L106.6,-11.75C102.2,-21.283 101.55,-36.317 104.65,-56.85L109.65,-63.3C116.617,-72.633 122.75,-82.767 128.05,-93.7M166.4,-12.1C174.333,-1 183.15,9.133 192.85,18.3C189.983,45.4 188.683,64.75 188.95,76.35C189.117,87.883 189.65,97.683 190.55,105.75L182.2,90.1C175.733,76.767 168.95,63.733 161.85,51C161.117,34 162.633,12.967 166.4,-12.1M84.65,12.9C76.25,22.867 68.333,32.783 60.9,42.65L55.75,49.65C57.883,25.95 57.883,4.383 55.75,-15.05C65.217,-20.617 74,-26.817 82.1,-33.65C85.367,-23.85 86.217,-8.333 84.65,12.9" style="fill:rgb(50,43,49);"/>
                    <path d="M148.75,-41C154.05,-30.733 159.933,-21.1 166.4,-12.1C162.633,12.967 161.117,34 161.85,51C155.25,39.067 148.35,27.417 141.15,16.05C144.917,1.783 147.45,-17.233 148.75,-41M104.65,-56.85C101.55,-36.317 102.2,-21.283 106.6,-11.75C102.367,-7.25 98.25,-2.717 94.25,1.85L84.65,12.9C86.217,-8.333 85.367,-23.85 82.1,-33.65L89.1,-39.9C94.633,-45.233 99.817,-50.883 104.65,-56.85" style="fill:rgb(67,57,65);"/>
                    <path d="M192.85,18.3L205.6,11.8C201.833,47.067 201.3,76.1 204,98.9L190.55,105.75C189.65,97.683 189.117,87.883 188.95,76.35C188.683,64.75 189.983,45.4 192.85,18.3" style="fill:rgb(30,26,29);"/>
                    <path d="M205.6,11.8C176.767,-15.4 155.617,-51.3 142.15,-95.9C141.65,-97.3 141.2,-98.733 140.8,-100.2L128.05,-93.7C122.75,-82.767 116.617,-72.633 109.65,-63.3L104.65,-56.85C99.817,-50.883 94.633,-45.233 89.1,-39.9L82.1,-33.65C74,-26.817 65.217,-20.617 55.75,-15.05C57.883,4.383 57.883,25.95 55.75,49.65L60.9,42.65C68.333,32.783 76.25,22.867 84.65,12.9L94.25,1.85C98.25,-2.717 102.367,-7.25 106.6,-11.75L115.65,-21.55L118.75,-17.25L125.35,-7.8C130.75,0.033 136.017,7.983 141.15,16.05C148.35,27.417 155.25,39.067 161.85,51C168.95,63.733 175.733,76.767 182.2,90.1L190.55,105.75L204,98.9C201.3,76.1 201.833,47.067 205.6,11.8Z" style="fill:none;fill-rule:nonzero;stroke:black;stroke-opacity:0.3;stroke-width:0.05px;"/>
                </g>
                <g id="bouclier1" transform="matrix(2.4504,0,0,2.4504,77,150.7)">
                    <g id="shape2">
                        <path d="M25.45,2.6C29.65,2.733 33.617,8.1 37.35,18.7L38.25,23.25C38.55,25.583 38.7,27.9 38.7,30.2C38.667,35.733 37.683,41.1 35.75,46.3C34.517,49.333 33.033,51.583 31.3,53.05C30.533,53.65 29.733,54.117 28.9,54.45L26.5,55.85L26.25,56C24.417,57.067 22.35,57.383 20.05,56.95L16.35,55.7C7.483,49.633 3.55,41.433 4.55,31.1L8.55,28.85L9.1,30.05C14,39.95 18.433,44.733 22.4,44.4L23.3,43.3C25.667,40.8 26.783,35.7 26.65,28C26.317,21.5 24.333,17.45 20.7,15.85C19.433,18.217 18.883,22.383 19.05,28.35L15.05,30.6C11.55,23 11,16.683 13.4,11.65C14.5,9.35 16.183,7.317 18.45,5.55L18.55,5.5L22.45,3.3C23.417,2.767 24.417,2.533 25.45,2.6M9.3,1.8C9.833,2.967 10.083,4.383 10.05,6.05C9.95,7.717 9.567,9.133 8.9,10.3L8,11.45L7.3,11.85L3.95,13.75L3.4,14.05L2.7,14.15C1.867,14.083 1.2,13.45 0.7,12.25C0.133,11.017 -0.083,9.6 0.05,8C0.117,6.367 0.467,5 1.1,3.9C1.433,3.3 1.8,2.867 2.2,2.6C2.367,2.467 2.55,2.367 2.75,2.3L5.85,0.6C6.183,0.267 6.55,0.067 6.95,0L7.3,0C8.067,0.033 8.733,0.633 9.3,1.8" style="fill:rgb(103,201,116);"/>
                    </g>
                </g>
                <g id="shape3">
                    <path d="M101.55,163.35L101.55,165.65C101.317,169.75 100.383,173.233 98.75,176.1C98.017,177.333 97.283,178.267 96.55,178.9L94.8,179.9L86.6,184.55C87.433,183.883 88.217,182.9 88.95,181.6L90.4,178.55C91.133,176.35 91.583,173.9 91.75,171.2L91.75,170.2L101.55,163.35M89.45,230L88.1,227.05L97.9,221.55L99.25,224.5C111.25,248.767 122.117,260.483 131.85,259.65C122.783,269.45 112.483,266.183 100.95,249.85C97.183,244.617 93.35,238 89.45,230M141.85,287.7L145.45,284.9C149.017,281.367 152.117,276.333 154.75,269.8C159.483,257.067 161.883,243.917 161.95,230.35C161.95,224.717 161.583,219.05 160.85,213.35L159.15,204.65L168.45,196.65L170.65,207.8C171.383,213.533 171.75,219.217 171.75,224.85C171.683,238.417 169.283,251.567 164.55,264.3C161.517,271.733 157.883,277.25 153.65,280.85C151.75,282.317 149.783,283.467 147.75,284.3L141.85,287.7M113.8,225.85C113.4,213.35 114.35,204.067 116.65,198C118.683,192.067 121.983,189.133 126.55,189.2L127.65,189.7C124.55,195.5 123.2,205.7 123.6,220.3L113.8,225.85" style="fill-opacity:0.3;"/>
                    <path d="M83.65,156.5L91.25,152.3C92.083,151.5 92.983,151.017 93.95,150.85L94.8,150.85C96.7,150.917 98.35,152.383 99.75,155.25C100.783,157.55 101.383,160.25 101.55,163.35L91.75,170.2C91.75,166.533 91.133,163.383 89.9,160.75C89.333,159.55 88.733,158.617 88.1,157.95C87.1,156.983 86.067,156.45 85,156.35L83.65,156.5M153.9,189.95C146.133,172.05 138,162.983 129.5,162.75C128.833,162.65 128.217,162.65 127.65,162.75C125.85,162.917 124.1,163.45 122.4,164.35L131.95,158.95C134.317,157.65 136.767,157.067 139.3,157.2C149.6,157.533 159.317,170.683 168.45,196.65L159.15,204.65L158.65,202.2C157.117,197.7 155.533,193.617 153.9,189.95" style="fill:white;fill-opacity:0.3;"/>
                    <path d="M153.9,189.95C145.867,178.017 137.817,170.367 129.75,167C124.35,167.5 120.1,169.633 117,173.4C112.1,179.833 108.5,187.833 106.2,197.4C105.967,190.8 107.15,184.8 109.75,179.4C112.45,173.767 116.583,168.783 122.15,164.45L122.4,164.35C124.1,163.45 125.85,162.917 127.65,162.75C128.217,162.65 128.833,162.65 129.5,162.75C138,162.983 146.133,172.05 153.9,189.95" style="fill:rgb(201,201,201);fill-opacity:0.24;"/>
                    <path d="M86.6,184.55L85.25,185.3L83.55,185.5C81.517,185.367 79.883,183.817 78.65,180.85C77.25,177.85 76.717,174.383 77.05,170.45C77.217,166.45 78.083,163.1 79.65,160.4C80.45,158.933 81.35,157.867 82.35,157.2C82.75,156.9 83.183,156.667 83.65,156.5L91.25,152.3C92.083,151.5 92.983,151.017 93.95,150.85L94.8,150.85C96.7,150.917 98.35,152.383 99.75,155.25C100.783,157.55 101.383,160.25 101.55,163.35L101.55,165.65C101.317,169.75 100.383,173.233 98.75,176.1C98.017,177.333 97.283,178.267 96.55,178.9L94.8,179.9L86.6,184.55M122.4,164.35L122.15,164.45C116.583,168.783 112.45,173.767 109.75,179.4C107.15,184.8 105.967,190.8 106.2,197.4C106.467,205.9 109,215.383 113.8,225.85C111.033,217.85 111,206 113.7,190.3C114.5,185.567 115.85,181.733 117.75,178.8C120.35,174.533 124.1,172.117 129,171.55C135.633,173.283 141.183,179.733 145.65,190.9C147.783,196.233 149.667,202.617 151.3,210.05L152.05,213.45C155.55,232.25 153.5,249.483 145.9,265.15C140.367,276.283 132.7,280.9 122.9,279C118.733,278.2 114.2,276.25 109.3,273.15C98.267,259.917 91.65,245.533 89.45,230M88.1,227.05C85.633,252.383 95.267,272.483 117,287.35C120.1,288.817 123.117,289.833 126.05,290.4C131.683,291.467 136.75,290.7 141.25,288.1L141.85,287.7L147.75,284.3C149.783,283.467 151.75,282.317 153.65,280.85C157.883,277.25 161.517,271.733 164.55,264.3C169.283,251.567 171.683,238.417 171.75,224.85C171.75,219.217 171.383,213.533 170.65,207.8L168.45,196.65C159.317,170.683 149.6,157.533 139.3,157.2C136.767,157.067 134.317,157.65 131.95,158.95L122.4,164.35M113.8,225.85L123.6,220.3C123.2,205.7 124.55,195.5 127.65,189.7C136.55,193.6 141.417,203.517 142.25,219.45C142.583,238.317 139.85,250.817 134.05,256.95L131.85,259.65C122.117,260.483 111.25,248.767 99.25,224.5L97.9,221.55L88.1,227.05" style="fill:none;fill-rule:nonzero;stroke:black;stroke-opacity:0.3;stroke-width:0.05px;"/>
                </g>
            </g>
        </g>
    </g>
</svg>
