<?xml version="1.0" encoding="UTF-8" standalone="no"?>
<!DOCTYPE svg PUBLIC "-//W3C//DTD SVG 1.1//EN" "http://www.w3.org/Graphics/SVG/1.1/DTD/svg11.dtd">
<svg width="100%" height="100%" viewBox="0 0 24 39" version="1.1" xmlns="http://www.w3.org/2000/svg" xmlns:xlink="http://www.w3.org/1999/xlink" xml:space="preserve" xmlns:serif="http://www.serif.com/" style="fill-rule:evenodd;clip-rule:evenodd;stroke-linecap:round;stroke-linejoin:round;">
    <g transform="matrix(1,0,0,1,-13.4,-5.75)">
        <g>
            <g id="shape0" transform="matrix(1,0,0,1,25,25)">
                <path d="M-2.5,-18.75C-0.767,-17.717 0.433,-15.667 1.1,-12.6C1.267,-11.4 0.733,-10.65 -0.5,-10.35L-0.65,-8.1C-0.683,-6.333 -0.517,-4.617 -0.15,-2.95L2.5,-6.4C2.833,-6.9 3.183,-6.9 3.55,-6.4C4.617,-4.467 4.95,-2.55 4.55,-0.65C4.35,0.017 3.95,0.45 3.35,0.65L1,0.65L1.3,1.4L3.8,2.2L4.8,4.6L2.45,3.6L2.7,3.95L3.3,4.8L5.65,7.55C5.983,7.383 6.4,7.383 6.9,7.55L8.3,8.6C8.667,9.133 8.85,9.667 8.85,10.2L8.85,10.4L9.1,10.55L11.15,12C8.517,12.4 6.8,13.333 6,14.8C4.133,11.233 1.883,7.933 -0.75,4.9L0.2,8.6C1.1,11.333 2.583,14.033 4.65,16.7C0.85,15.667 -2.45,16.35 -5.25,18.75L-6.7,13.9C-7.567,10.767 -8.15,7.767 -8.45,4.9L-8.55,3.9L-8.95,3.7C-10.083,1.8 -10.767,0.133 -11,-1.3C-11.133,-2.1 -11.133,-2.833 -11,-3.5C-10.833,-4.467 -10.383,-5.3 -9.65,-6C-9.25,-6.167 -8.833,-6.167 -8.4,-6L-8.3,-6.65L-8.15,-7.55L-9.2,-7.75C-9.833,-7.95 -10.467,-8.25 -11.1,-8.65C-9.7,-10.15 -8.583,-11.883 -7.75,-13.85L-7,-15.95L-6.9,-16.35C-6.633,-17.317 -6.25,-17.85 -5.75,-17.95L-3.8,-14.8C-2.967,-15.4 -2.533,-16.717 -2.5,-18.75M2.85,-0.45C3.317,-1.483 3.317,-2.567 2.85,-3.7C2.117,-2.767 1.267,-1.933 0.3,-1.2L0.45,-0.75L0.65,-0.2L2.85,-0.45" style="fill:#280a02;"/>
                <path d="M-2.5,-18.75C-0.767,-17.717 0.433,-15.667 1.1,-12.6C1.267,-11.4 0.733,-10.65 -0.5,-10.35L-0.65,-8.1C-0.683,-6.333 -0.517,-4.617 -0.15,-2.95L2.5,-6.4C2.833,-6.9 3.183,-6.9 3.55,-6.4C4.617,-4.467 4.95,-2.55 4.55,-0.65C4.35,0.017 3.95,0.45 3.35,0.65L1,0.65L1.3,1.4L3.8,2.2L4.8,4.6L2.45,3.6L2.7,3.95L3.3,4.8L5.65,7.55C5.983,7.383 6.4,7.383 6.9,7.55L8.3,8.6C8.667,9.133 8.85,9.667 8.85,10.2L8.85,10.4L9.1,10.55L11.15,12C8.517,12.4 6.8,13.333 6,14.8C4.133,11.233 1.883,7.933 -0.75,4.9L0.2,8.6C1.1,11.333 2.583,14.033 4.65,16.7C0.85,15.667 -2.45,16.35 -5.25,18.75L-6.7,13.9C-7.567,10.767 -8.15,7.767 -8.45,4.9L-8.55,3.9L-8.95,3.7C-10.083,1.8 -10.767,0.133 -11,-1.3C-11.133,-2.1 -11.133,-2.833 -11,-3.5C-10.833,-4.467 -10.383,-5.3 -9.65,-6C-9.25,-6.167 -8.833,-6.167 -8.4,-6L-8.3,-6.65L-8.15,-7.55L-9.2,-7.75C-9.833,-7.95 -10.467,-8.25 -11.1,-8.65C-9.7,-10.15 -8.583,-11.883 -7.75,-13.85L-7,-15.95L-6.9,-16.35C-6.633,-17.317 -6.25,-17.85 -5.75,-17.95L-3.8,-14.8C-2.967,-15.4 -2.533,-16.717 -2.5,-18.75M2.85,-0.45L0.65,-0.2L0.45,-0.75L0.3,-1.2C1.267,-1.933 2.117,-2.767 2.85,-3.7C3.317,-2.567 3.317,-1.483 2.85,-0.45" style="fill:none;fill-rule:nonzero;stroke:#280a02;stroke-width:1px;"/>
            </g>
            <g id="sprite0" transform="matrix(0.0919,0,0,0.0918,-25.905,17.0003)">
                <g id="shape1">
                    <path d="M463.6,14.95C466.733,-4.65 471.3,-23.517 477.3,-41.65C500.433,-44.883 524.217,-39.533 548.65,-25.6C547.783,-17.3 547.267,-9.117 547.1,-1.05L533.75,15.65C524.65,15.55 516.467,11.35 509.2,3.05C495.533,11.75 480.333,15.717 463.6,14.95M555.5,68.55C556.467,72.117 557.55,75.683 558.75,79.25L542.15,94.65L564,93.3C566.6,99.633 569.5,105.867 572.7,112L548.3,109.1L552,117.45L583.35,130.1C585.383,133.267 587.533,136.4 589.8,139.5C579.2,143.067 568.6,140.017 558,130.35C577.367,170.617 597.517,200.833 618.45,221C624.983,209.533 636.417,203.283 652.75,202.25C659.817,207.55 667.25,212.7 675.05,217.7C646.683,222.133 628.15,232.4 619.45,248.5C598.817,209.667 574.317,173.683 545.95,140.55C541.917,129.117 538.367,117.667 535.3,106.2L535.3,106.15C533.7,100.25 532.233,94.333 530.9,88.4L528.3,75.95L530.9,88.4C503.933,86.867 479.9,78.317 458.8,62.75L459.6,49.5C487.6,64.767 510.5,73.583 528.3,75.95C526.3,65.75 524.667,55.517 523.4,45.25C527.967,58.317 532.6,70.767 537.3,82.6L555.5,68.55M555.9,180.8C565.933,210.433 582.067,239.9 604.3,269.2C563.067,257.967 527.25,265.417 496.85,291.55C490.783,273.517 485.433,255.85 480.8,238.55L499.7,270.8C522.633,257.6 547.7,250.117 574.9,248.35L555.9,180.8" style="fill:#421306;"/>
                    <path d="M547.1,-1.05C546.567,23.383 549.367,46.583 555.5,68.55L537.3,82.6C532.6,70.767 527.967,58.317 523.4,45.25L522.15,33.7L523.4,45.25C524.667,55.517 526.3,65.75 528.3,75.95C510.5,73.583 487.6,64.767 459.6,49.5C460.433,37.733 461.767,26.217 463.6,14.95C480.333,15.717 495.533,11.75 509.2,3.05C516.467,11.35 524.65,15.55 533.75,15.65L547.1,-1.05M558.75,79.25C560.317,83.983 562.067,88.667 564,93.3L542.15,94.65L558.75,79.25M572.7,112C575.933,118.133 579.483,124.167 583.35,130.1L552,117.45L548.3,109.1L572.7,112M589.8,139.5C606.1,162.2 627.083,183.117 652.75,202.25C636.417,203.283 624.983,209.533 618.45,221C597.517,200.833 577.367,170.617 558,130.35C568.6,140.017 579.2,143.067 589.8,139.5M545.95,140.55C548.017,153.983 551.333,167.4 555.9,180.8L574.9,248.35C547.7,250.117 522.633,257.6 499.7,270.8L480.8,238.55C471.667,204.383 465.333,171.633 461.8,140.3C484,138.833 504.8,130.6 524.2,115.6L493.4,153.7C499.833,162.9 507.217,166.183 515.55,163.55C530.283,146.817 536.867,127.7 535.3,106.2C538.367,117.667 541.917,129.117 545.95,140.55M460.1,122.9C458.4,102.233 457.967,82.183 458.8,62.75C479.9,78.317 503.933,86.867 530.9,88.4L460.1,122.9" style="fill:#84250c;"/>
                    <path d="M461.8,140.3C461.133,134.467 460.567,128.667 460.1,122.9L530.9,88.4C532.233,94.333 533.7,100.25 535.3,106.15L535.3,106.2C536.867,127.7 530.283,146.817 515.55,163.55C507.217,166.183 499.833,162.9 493.4,153.7L524.2,115.6C504.8,130.6 484,138.833 461.8,140.3" style="fill:#3b1609;"/>
                    <path d="M463.6,14.95C466.733,-4.65 471.3,-23.517 477.3,-41.65C500.433,-44.883 524.217,-39.533 548.65,-25.6C547.783,-17.3 547.267,-9.117 547.1,-1.05C546.567,23.383 549.367,46.583 555.5,68.55C556.467,72.117 557.55,75.683 558.75,79.25C560.317,83.983 562.067,88.667 564,93.3C566.6,99.633 569.5,105.867 572.7,112C575.933,118.133 579.483,124.167 583.35,130.1C585.383,133.267 587.533,136.4 589.8,139.5C606.1,162.2 627.083,183.117 652.75,202.25C659.817,207.55 667.25,212.7 675.05,217.7C646.683,222.133 628.15,232.4 619.45,248.5C598.817,209.667 574.317,173.683 545.95,140.55C548.017,153.983 551.333,167.4 555.9,180.8C565.933,210.433 582.067,239.9 604.3,269.2C563.067,257.967 527.25,265.417 496.85,291.55C490.783,273.517 485.433,255.85 480.8,238.55C471.667,204.383 465.333,171.633 461.8,140.3C461.133,134.467 460.567,128.667 460.1,122.9C458.4,102.233 457.967,82.183 458.8,62.75L459.6,49.5C460.433,37.733 461.767,26.217 463.6,14.95M522.15,33.7L523.4,45.25C524.667,55.517 526.3,65.75 528.3,75.95L530.9,88.4C532.233,94.333 533.7,100.25 535.3,106.15L535.3,106.2C538.367,117.667 541.917,129.117 545.95,140.55" style="fill:none;fill-rule:nonzero;stroke:#000;stroke-opacity:0.3;stroke-width:0.05px;"/>
                    <path d="M469.4,-63.55C473.033,-72.283 476.1,-81.417 478.6,-90.95L498.7,-3.7C484.7,5.333 469.683,7.433 453.65,2.6C461.583,-18.833 466.833,-40.883 469.4,-63.55" style="fill:#9e8b59;"/>
                    <path d="M469.4,-63.55C466.833,-40.883 461.583,-18.833 453.65,2.6C446.95,0.6 440.067,-2.633 433,-7.1C448.433,-23.567 460.567,-42.383 469.4,-63.55" style="fill:#dad6a4;"/>
                    <path d="M453.65,2.6C469.683,7.433 484.7,5.333 498.7,-3.7L478.6,-90.95C476.1,-81.417 473.033,-72.283 469.4,-63.55C460.567,-42.383 448.433,-23.567 433,-7.1C440.067,-2.633 446.95,0.6 453.65,2.6Z" style="fill:none;fill-rule:nonzero;stroke:#000;stroke-opacity:0.3;stroke-width:0.05px;"/>
                    <path d="M548.65,-25.6L532.8,-1C518,-1.267 503.3,-9.867 488.7,-26.8C505.933,-16.4 519.817,-12.633 530.35,-15.5C507.183,-34.133 496.217,-48.867 497.45,-59.7C507.617,-41.833 524.683,-30.467 548.65,-25.6M512.4,-74.25C521.7,-80.55 526.417,-94.9 526.55,-117.3C537.617,-94.8 543.2,-73.517 543.3,-53.45C533,-54.717 522.7,-61.65 512.4,-74.25" style="fill:#693b10;"/>
                    <path d="M488.7,-26.8C483.6,-32.667 478.533,-39.533 473.5,-47.4C474.733,-86.267 480.633,-106.583 491.2,-108.35C498.267,-94.317 505.333,-82.95 512.4,-74.25C522.7,-61.65 533,-54.717 543.3,-53.45C543.2,-73.517 537.617,-94.8 526.55,-117.3C545.517,-105.9 558.567,-83.533 565.7,-50.2C567.6,-37.067 561.917,-28.867 548.65,-25.6C524.683,-30.467 507.617,-41.833 497.45,-59.7C496.217,-48.867 507.183,-34.133 530.35,-15.5C519.817,-12.633 505.933,-16.4 488.7,-26.8" style="fill:#d37621;"/>
                    <path d="M548.65,-25.6L532.8,-1C518,-1.267 503.3,-9.867 488.7,-26.8C483.6,-32.667 478.533,-39.533 473.5,-47.4C474.733,-86.267 480.633,-106.583 491.2,-108.35C498.267,-94.317 505.333,-82.95 512.4,-74.25C521.7,-80.55 526.417,-94.9 526.55,-117.3C545.517,-105.9 558.567,-83.533 565.7,-50.2C567.6,-37.067 561.917,-28.867 548.65,-25.6C524.683,-30.467 507.617,-41.833 497.45,-59.7M512.4,-74.25C522.7,-61.65 533,-54.717 543.3,-53.45" style="fill:none;fill-rule:nonzero;stroke:#000;stroke-opacity:0.3;stroke-width:0.05px;"/>
                    <path d="M495.95,25.4L495.95,18.4C510.15,18.6 524.033,16.717 537.6,12.75L537.6,19.75C525.267,25.017 511.383,26.9 495.95,25.4" style="fill:#dfaf00;"/>
                    <path d="M537.6,19.75L537.6,26.75C525.267,32.017 511.383,33.9 495.95,32.4L495.95,25.4C511.383,26.9 525.267,25.017 537.6,19.75" style="fill:#bd830c;"/>
                    <path d="M537.6,19.75L537.6,26.75C525.267,32.017 511.383,33.9 495.95,32.4L495.95,18.4C510.15,18.6 524.033,16.717 537.6,12.75" style="fill:none;fill-rule:nonzero;stroke:#000;stroke-opacity:0.3;stroke-width:0.05px;"/>
                    <path d="M544.7,50.25L544.7,57.25C532.367,62.517 518.483,64.4 503.05,62.9L503.05,55.9C518.483,57.4 532.367,55.517 544.7,50.25" style="fill:#bd830c;"/>
                    <path d="M503.05,55.9L503.05,48.9C517.25,49.1 531.133,47.217 544.7,43.25L544.7,50.25C532.367,55.517 518.483,57.4 503.05,55.9" style="fill:#dfaf00;"/>
                    <path d="M544.7,50.25L544.7,57.25C532.367,62.517 518.483,64.4 503.05,62.9L503.05,48.9C517.25,49.1 531.133,47.217 544.7,43.25" style="fill:none;fill-rule:nonzero;stroke:#000;stroke-opacity:0.3;stroke-width:0.05px;"/>
                    <path d="M649.35,205.05L648.5,209.55L648.4,210C647.633,214 645.633,217.05 642.4,219.15C638.167,221.917 633.05,222.283 627.05,220.25C621.083,218.217 615.983,214.35 611.75,208.65C608.35,204.117 606.317,199.25 605.65,194.05L605.4,190.8C605.433,189.533 605.567,188.35 605.8,187.25L606.05,186.25L607.35,180.5L607.15,182.95L607.15,183.25L607.4,186.2C608.067,191.4 610.1,196.283 613.5,200.85C617.733,206.517 622.85,210.367 628.85,212.4C634.817,214.433 639.917,214.067 644.15,211.3C646.15,210 647.683,208.35 648.75,206.35L649.35,205.05" style="fill:#bd830c;"/>
                    <path d="M650.35,201.2C650.15,202.567 649.817,203.85 649.35,205.05L648.75,206.35C647.683,208.35 646.15,210 644.15,211.3C639.917,214.067 634.817,214.433 628.85,212.4C622.85,210.367 617.733,206.517 613.5,200.85C610.1,196.283 608.067,191.4 607.4,186.2L608,183.65C608.967,180.55 610.8,178.117 613.5,176.35C617.733,173.583 622.85,173.217 628.85,175.25C634.817,177.283 639.917,181.133 644.15,186.8C647.65,191.5 649.717,196.3 650.35,201.2" style="fill:#d9ae08;"/>
                    <path d="M607.35,180.5C607.483,179.5 607.7,178.583 608,177.75C608.967,174.65 610.8,172.217 613.5,170.45C617.733,167.683 622.85,167.317 628.85,169.35C634.817,171.383 639.917,175.233 644.15,180.9C648.383,186.533 650.5,192.317 650.5,198.25L650.5,198.7L650.35,201.2C649.717,196.3 647.65,191.5 644.15,186.8C639.917,181.133 634.817,177.283 628.85,175.25C622.85,173.217 617.733,173.583 613.5,176.35C610.8,178.117 608.967,180.55 608,183.65L607.4,186.2L607.15,183.25L607.15,182.95L607.35,180.5" style="fill:#eed87e;"/>
                    <path d="M649.35,205.05L648.5,209.55L648.4,210C647.633,214 645.633,217.05 642.4,219.15C638.167,221.917 633.05,222.283 627.05,220.25C621.083,218.217 615.983,214.35 611.75,208.65C608.35,204.117 606.317,199.25 605.65,194.05L605.4,190.8C605.433,189.533 605.567,188.35 605.8,187.25L606.05,186.25L607.35,180.5C607.483,179.5 607.7,178.583 608,177.75C608.967,174.65 610.8,172.217 613.5,170.45C617.733,167.683 622.85,167.317 628.85,169.35C634.817,171.383 639.917,175.233 644.15,180.9C648.383,186.533 650.5,192.317 650.5,198.25L650.5,198.7L650.35,201.2C650.15,202.567 649.817,203.85 649.35,205.05Z" style="fill:none;fill-rule:nonzero;stroke:#000;stroke-opacity:0.3;stroke-width:0.05px;"/>
                    <path d="M615.45,195.9C615.217,194.9 615.117,193.85 615.15,192.75C615.95,191.117 616.833,189.767 617.8,188.7C618.2,188.1 618.667,187.633 619.2,187.3C620.6,185.867 622.217,184.833 624.05,184.2L625.05,183.95L625.05,184C625.317,183.8 625.617,183.65 625.95,183.55C626.95,183.083 628.067,182.8 629.3,182.7L632.35,182.4L636.65,182.8L637.7,182.9L640.05,183.5L641.6,184.65L641.3,186.9L635.5,187.1L635.35,187.1C632.883,187.2 630.767,187.65 629,188.45L628.65,188.55C627.35,189.017 626.15,189.633 625.05,190.4L625.05,190.35C624.25,190.717 623.5,191.183 622.8,191.75L622.5,192C620.667,193.233 619.05,194.9 617.65,197C616.75,196.8 616.017,196.433 615.45,195.9" style="fill:#d87519;"/>
                    <path d="M615.45,195.9C616.017,196.433 616.75,196.8 617.65,197C619.05,194.9 620.667,193.233 622.5,192L622.8,191.75C623.5,191.183 624.25,190.717 625.05,190.35L625.05,190.4C626.15,189.633 627.35,189.017 628.65,188.55L629,188.45C630.767,187.65 632.883,187.2 635.35,187.1L635.5,187.1L641.3,186.9L641.6,184.65C643.333,185.917 644.217,187.467 644.25,189.3L643.85,191.1L637.5,190.9C634.767,190.867 632.367,191.2 630.3,191.9C628.333,192.533 626.583,193.433 625.05,194.6L624.45,194.95C622.483,196.35 620.7,198.133 619.1,200.3L618.15,199.9C616.75,199.233 615.85,197.9 615.45,195.9" style="fill:#683b12;"/>
                    <path d="M625.05,183.95L624.05,184.2C622.217,184.833 620.6,185.867 619.2,187.3C618.667,187.633 618.2,188.1 617.8,188.7C616.833,189.767 615.95,191.117 615.15,192.75C615.117,193.85 615.217,194.9 615.45,195.9C615.85,197.9 616.75,199.233 618.15,199.9L619.1,200.3C620.7,198.133 622.483,196.35 624.45,194.95L625.05,194.6C626.583,193.433 628.333,192.533 630.3,191.9C632.367,191.2 634.767,190.867 637.5,190.9L643.85,191.1L644.25,189.3C644.217,187.467 643.333,185.917 641.6,184.65L640.05,183.5L637.7,182.9L636.65,182.8L632.35,182.4L629.3,182.7C628.067,182.8 626.95,183.083 625.95,183.55C625.617,183.65 625.317,183.8 625.05,184" style="fill:none;fill-rule:nonzero;stroke:#000;stroke-opacity:0.3;stroke-width:0.05px;"/>
                    <path d="M640.75,208.5C640.117,208.433 639.383,208.067 638.55,207.4C637.717,204.167 636.617,201.133 635.25,198.3L635.05,197.8L633.3,194.4L633.3,194.45C632.5,192.717 631.55,191.017 630.45,189.35L630.2,189C628.8,186.567 627,184.133 624.8,181.7L624.65,181.55C623.217,179.617 621.517,177.75 619.55,175.95C619.55,174.95 619.6,174.15 619.7,173.55C620.267,173.55 620.817,173.717 621.35,174.05L623.6,175.75L624.6,176.6L628.5,180.4L631.15,183.5L634,187.45L634.65,188.7L634.65,188.65L635.5,189.85C637,192.117 638.233,194.583 639.2,197.25L640.2,199.9C640.833,201.733 641.333,203.767 641.7,206C641.5,207 641.183,207.833 640.75,208.5" style="fill:#d87519;"/>
                    <path d="M619.7,173.55C619.6,174.15 619.55,174.95 619.55,175.95C621.517,177.75 623.217,179.617 624.65,181.55L624.8,181.7C627,184.133 628.8,186.567 630.2,189L630.45,189.35C631.55,191.017 632.5,192.717 633.3,194.45L633.3,194.4L635.05,197.8L635.25,198.3C636.617,201.133 637.717,204.167 638.55,207.4C639.383,208.067 640.117,208.433 640.75,208.5C639.95,209.933 638.867,210.267 637.5,209.5L636.5,208.95C635.567,205.483 634.367,202.217 632.9,199.15L632.4,198.2C631.3,195.7 629.95,193.25 628.35,190.85C626.617,188.217 624.533,185.6 622.1,183L616.35,177.2C616.317,176.4 616.333,175.717 616.4,175.15C616.833,173.617 617.933,173.083 619.7,173.55" style="fill:#683b12;"/>
                    <path d="M619.7,173.55C617.933,173.083 616.833,173.617 616.4,175.15C616.333,175.717 616.317,176.4 616.35,177.2L622.1,183C624.533,185.6 626.617,188.217 628.35,190.85C629.95,193.25 631.3,195.7 632.4,198.2L632.9,199.15C634.367,202.217 635.567,205.483 636.5,208.95L637.5,209.5C638.867,210.267 639.95,209.933 640.75,208.5C641.183,207.833 641.5,207 641.7,206C641.333,203.767 640.833,201.733 640.2,199.9L639.2,197.25C638.233,194.583 637,192.117 635.5,189.85L634.65,188.65M634.65,188.7L634,187.45L631.15,183.5L628.5,180.4L624.6,176.6L623.6,175.75L621.35,174.05C620.817,173.717 620.267,173.55 619.7,173.55L634.65,188.7Z" style="fill:none;fill-rule:nonzero;stroke:#000;stroke-opacity:0.3;stroke-width:0.05px;"/>
                    <path d="M500.4,211.9C500.567,210.867 500.833,209.883 501.2,208.95C502.4,205.517 504.683,202.45 508.05,199.75C513.317,195.55 519.667,193.45 527.1,193.45C534.533,193.45 540.883,195.55 546.15,199.75C551.417,203.95 554.05,209.017 554.05,214.95L554.05,215.4L553.85,217.95C553.083,213.25 550.517,209.15 546.15,205.65C540.883,201.45 534.533,199.35 527.1,199.35C519.667,199.35 513.317,201.45 508.05,205.65C504.683,208.35 502.4,211.417 501.2,214.85C500.867,215.717 500.617,216.633 500.45,217.6L500.15,214.75L500.15,214.45C500.183,213.583 500.267,212.733 500.4,211.9" style="fill:#eed87e;"/>
                    <path d="M553.85,217.95C553.617,219.383 553.2,220.783 552.6,222.15L551.85,223.65C550.55,226.017 548.65,228.183 546.15,230.15C540.883,234.383 534.533,236.5 527.1,236.5C519.667,236.5 513.317,234.383 508.05,230.15C503.817,226.75 501.283,222.567 500.45,217.6C500.617,216.633 500.867,215.717 501.2,214.85C502.4,211.417 504.683,208.35 508.05,205.65C513.317,201.45 519.667,199.35 527.1,199.35C534.533,199.35 540.883,201.45 546.15,205.65C550.517,209.15 553.083,213.25 553.85,217.95" style="fill:#d9ae08;"/>
                    <path d="M552.6,222.15L551.55,226.95L551.45,227.4C550.483,231.667 547.983,235.4 543.95,238.6C538.683,242.833 532.333,244.95 524.9,244.95C517.467,244.95 511.117,242.833 505.85,238.6C501.617,235.2 499.083,231.017 498.25,226.05L497.95,222.9C497.983,221.633 498.15,220.4 498.45,219.2L498.75,218.1L500.4,211.9C500.267,212.733 500.183,213.583 500.15,214.45L500.15,214.75L500.45,217.6C501.283,222.567 503.817,226.75 508.05,230.15C513.317,234.383 519.667,236.5 527.1,236.5C534.533,236.5 540.883,234.383 546.15,230.15C548.65,228.183 550.55,226.017 551.85,223.65L552.6,222.15" style="fill:#bd830c;"/>
                    <path d="M500.4,211.9C500.567,210.867 500.833,209.883 501.2,208.95C502.4,205.517 504.683,202.45 508.05,199.75C513.317,195.55 519.667,193.45 527.1,193.45C534.533,193.45 540.883,195.55 546.15,199.75C551.417,203.95 554.05,209.017 554.05,214.95L554.05,215.4L553.85,217.95C553.617,219.383 553.2,220.783 552.6,222.15L551.55,226.95L551.45,227.4C550.483,231.667 547.983,235.4 543.95,238.6C538.683,242.833 532.333,244.95 524.9,244.95C517.467,244.95 511.117,242.833 505.85,238.6C501.617,235.2 499.083,231.017 498.25,226.05L497.95,222.9C497.983,221.633 498.15,220.4 498.45,219.2L498.75,218.1L500.4,211.9Z" style="fill:none;fill-rule:nonzero;stroke:#000;stroke-opacity:0.3;stroke-width:0.05px;"/>
                    <path d="M510.4,224.55L513.15,224.9C514.883,222.333 516.883,220.117 519.15,218.25L519.55,217.9L522.35,215.7L522.35,215.75C523.717,214.617 525.217,213.6 526.85,212.7L527.25,212.5C529.45,211.067 532.083,209.883 535.15,208.95L535.35,208.9C537.483,207.967 539.883,207.25 542.55,206.75L542.95,204.35C545.083,205.05 546.167,206.3 546.2,208.1L545.75,210.05L537.85,212C534.45,212.9 531.45,214.067 528.85,215.5C526.417,216.8 524.25,218.283 522.35,219.95L521.6,220.55C519.133,222.617 516.917,225 514.95,227.7L513.75,227.65C512.017,227.45 510.9,226.417 510.4,224.55" style="fill:#683b12;"/>
                    <path d="M522.35,209.35L523.45,208.6C524.683,207.8 526.083,207.133 527.65,206.6L531.4,205.3C533,204.833 534.783,204.467 536.75,204.2L538.05,203.95L541,203.75C541.7,203.817 542.35,204.017 542.95,204.35L542.55,206.75C539.883,207.25 537.483,207.967 535.35,208.9L535.15,208.95C532.083,209.883 529.45,211.067 527.25,212.5L526.85,212.7C525.217,213.6 523.717,214.617 522.35,215.75L522.35,215.7L519.55,217.9L519.15,218.25C516.883,220.117 514.883,222.333 513.15,224.9L510.4,224.55C510.1,223.617 509.967,222.6 510,221.5C511,219.6 512.1,217.95 513.3,216.55C513.833,215.817 514.417,215.183 515.05,214.65C516.817,212.75 518.833,211.167 521.1,209.9L522.35,209.3L522.35,209.35" style="fill:#d87519;"/>
                    <path d="M542.95,204.35C542.35,204.017 541.7,203.817 541,203.75L538.05,203.95L536.75,204.2C534.783,204.467 533,204.833 531.4,205.3L527.65,206.6C526.083,207.133 524.683,207.8 523.45,208.6L522.35,209.35M522.35,209.3L521.1,209.9C518.833,211.167 516.817,212.75 515.05,214.65C514.417,215.183 513.833,215.817 513.3,216.55C512.1,217.95 511,219.6 510,221.5C509.967,222.6 510.1,223.617 510.4,224.55C510.9,226.417 512.017,227.45 513.75,227.65L514.95,227.7C516.917,225 519.133,222.617 521.6,220.55L522.35,219.95C524.25,218.283 526.417,216.8 528.85,215.5C531.45,214.067 534.45,212.9 537.85,212L545.75,210.05L546.2,208.1C546.167,206.3 545.083,205.05 542.95,204.35L522.35,209.3Z" style="fill:none;fill-rule:nonzero;stroke:#000;stroke-opacity:0.3;stroke-width:0.05px;"/>
                    <path d="M515.7,200.85L517.75,200.8L520.55,201.7L521.75,202.25C523.583,203.017 525.2,203.833 526.6,204.7L529.95,206.9L533.45,209.9L534.3,210.9L534.3,210.85L535.35,211.75C537.217,213.517 538.75,215.567 539.95,217.9C540.417,218.567 540.817,219.333 541.15,220.2C541.95,221.833 542.583,223.7 543.05,225.8C542.783,226.867 542.383,227.8 541.85,228.6L539.1,228.3C538.1,225.333 536.75,222.667 535.05,220.3L534.75,219.85L532.6,217.05L532.6,217.1C531.567,215.633 530.383,214.267 529.05,213L528.7,212.7C527,210.767 524.783,208.95 522.05,207.25L521.85,207.15C520.05,205.717 517.933,204.433 515.5,203.3L515.7,200.85" style="fill:#d87519;"/>
                    <path d="M541.85,228.6C540.85,230.3 539.5,231.017 537.8,230.75L536.6,230.5C535.433,227.367 533.933,224.517 532.1,221.95L531.5,221.15C530.1,219.05 528.4,217.067 526.4,215.2C524.267,213.167 521.683,211.267 518.65,209.5C516.583,208.2 514.2,206.917 511.5,205.65L511.6,203.6C512.1,201.9 513.467,200.983 515.7,200.85L515.5,203.3C517.933,204.433 520.05,205.717 521.85,207.15L522.05,207.25C524.783,208.95 527,210.767 528.7,212.7L529.05,213C530.383,214.267 531.567,215.633 532.6,217.1L532.6,217.05L534.75,219.85L535.05,220.3C536.75,222.667 538.1,225.333 539.1,228.3L541.85,228.6" style="fill:#683b12;"/>
                    <path d="M515.7,200.85L517.75,200.8L520.55,201.7L521.75,202.25C523.583,203.017 525.2,203.833 526.6,204.7L529.95,206.9L533.45,209.9L534.3,210.9M534.3,210.85L535.35,211.75C537.217,213.517 538.75,215.567 539.95,217.9C540.417,218.567 540.817,219.333 541.15,220.2C541.95,221.833 542.583,223.7 543.05,225.8C542.783,226.867 542.383,227.8 541.85,228.6C540.85,230.3 539.5,231.017 537.8,230.75L536.6,230.5C535.433,227.367 533.933,224.517 532.1,221.95L531.5,221.15C530.1,219.05 528.4,217.067 526.4,215.2C524.267,213.167 521.683,211.267 518.65,209.5C516.583,208.2 514.2,206.917 511.5,205.65L511.6,203.6C512.1,201.9 513.467,200.983 515.7,200.85L534.3,210.85Z" style="fill:none;fill-rule:nonzero;stroke:#000;stroke-opacity:0.3;stroke-width:0.05px;"/>
                    <path d="M592.45,37C590.117,40.5 587.667,43.867 585.1,47.1C575.933,58.567 565.2,68.467 552.9,76.8C551.8,71.167 549.533,66.283 546.1,62.15C549.533,66.283 551.8,71.167 552.9,76.8L547.4,85.15C542.333,87.55 536.933,87.317 531.2,84.45L529.7,78.85L463.55,50.05L448.95,43.8C446.283,67.733 450.317,90.15 461.05,111.05L476.85,115.85C480.883,118.383 481.1,122.267 477.5,127.5C469.733,131.1 462.783,131.1 456.65,127.5C444.217,106.9 436.683,88.65 434.05,72.75C432.65,64.15 432.65,56.25 434.05,49.05C436.083,38.65 441.05,29.65 448.95,22.05C456.217,18.817 463.967,20.417 472.2,26.85L524.5,68L524.25,67.65C529.517,61.25 535.9,58.467 543.4,59.3L546.1,62.15L580.9,17.55C584.767,12.05 588.617,12.05 592.45,17.55C604.017,38.65 607.75,59.483 603.65,80.05C598.35,72.55 594.617,58.2 592.45,37M524.5,68C526.667,71.333 528.4,74.95 529.7,78.85C528.4,74.95 526.667,71.333 524.5,68M536.6,109.75C527.367,127.15 515.667,142.367 501.5,155.4L480.7,155.4L536.6,109.75M599.4,120.25L606.35,137C589.283,131.133 571.933,122.317 554.3,110.55L599.4,120.25" style="fill:#dad6a4;"/>
                    <path d="M585.1,47.1C587.667,43.867 590.117,40.5 592.45,37C594.617,58.2 598.35,72.55 603.65,80.05C601.217,87.317 596.85,92.067 590.55,94.3C578.917,95.667 566.433,95.117 553.1,92.65C553.467,89.75 553.65,86.983 553.65,84.35C553.65,86.983 553.467,89.75 553.1,92.65L552.4,96.95C548.7,99.217 544.85,100.6 540.85,101.1L532.35,100.85L532.45,98.2L532.35,100.85L540.85,101.1C544.85,100.6 548.7,99.217 552.4,96.95L595.55,111.05L599.4,120.25L554.3,110.55C549.833,107.583 545.35,104.433 540.85,101.1L536.6,109.75L480.7,155.4L471.05,155.4C494.183,136.767 514.65,117.7 532.45,98.2C532.483,93.3 532.067,88.717 531.2,84.45C532.067,88.717 532.483,93.3 532.45,98.2L477.5,127.5C481.1,122.267 480.883,118.383 476.85,115.85L461.05,111.05C450.317,90.15 446.283,67.733 448.95,43.8L463.55,50.05C456.583,69.417 458.917,88.2 470.55,106.4C492.783,101.1 513,93.783 531.2,84.45C536.933,87.317 542.333,87.55 547.4,85.15L552.9,76.8C553.367,79.2 553.617,81.717 553.65,84.35C564.783,86.017 575.267,85.25 585.1,82.05C589.967,70.85 589.967,59.2 585.1,47.1" style="fill:#9e8b59;"/>
                    <path d="M585.1,47.1C587.667,43.867 590.117,40.5 592.45,37M603.65,80.05C607.75,59.483 604.017,38.65 592.45,17.55C588.617,12.05 584.767,12.05 580.9,17.55L546.1,62.15C549.533,66.283 551.8,71.167 552.9,76.8C565.2,68.467 575.933,58.567 585.1,47.1C589.967,59.2 589.967,70.85 585.1,82.05C575.267,85.25 564.783,86.017 553.65,84.35C553.65,86.983 553.467,89.75 553.1,92.65C566.433,95.117 578.917,95.667 590.55,94.3C596.85,92.067 601.217,87.317 603.65,80.05M477.5,127.5C469.733,131.1 462.783,131.1 456.65,127.5C444.217,106.9 436.683,88.65 434.05,72.75C432.65,64.15 432.65,56.25 434.05,49.05C436.083,38.65 441.05,29.65 448.95,22.05C456.217,18.817 463.967,20.417 472.2,26.85L524.5,68L524.25,67.65C529.517,61.25 535.9,58.467 543.4,59.3L546.1,62.15M532.45,98.2C532.483,93.3 532.067,88.717 531.2,84.45C513,93.783 492.783,101.1 470.55,106.4C458.917,88.2 456.583,69.417 463.55,50.05L448.95,43.8M477.5,127.5L532.45,98.2L532.35,100.85L540.85,101.1C544.85,100.6 548.7,99.217 552.4,96.95L553.1,92.65M531.2,84.45L529.7,78.85L463.55,50.05M552.9,76.8C553.367,79.2 553.617,81.717 553.65,84.35M529.7,78.85C528.4,74.95 526.667,71.333 524.5,68M554.3,110.55C549.833,107.583 545.35,104.433 540.85,101.1L536.6,109.75C527.367,127.15 515.667,142.367 501.5,155.4L471.05,155.4C494.183,136.767 514.65,117.7 532.45,98.2M552.4,96.95L595.55,111.05L599.4,120.25L606.35,137C589.283,131.133 571.933,122.317 554.3,110.55" style="fill:none;fill-rule:nonzero;stroke:#000;stroke-opacity:0.3;stroke-width:0.05px;"/>
                </g>
            </g>
        </g>
    </g>
</svg>
