<?xml version="1.0" encoding="UTF-8" standalone="no"?>
<!DOCTYPE svg PUBLIC "-//W3C//DTD SVG 1.1//EN" "http://www.w3.org/Graphics/SVG/1.1/DTD/svg11.dtd">
<svg width="100%" height="100%" viewBox="0 0 19 27" version="1.1" xmlns="http://www.w3.org/2000/svg" xmlns:xlink="http://www.w3.org/1999/xlink" xml:space="preserve" xmlns:serif="http://www.serif.com/" style="fill-rule:evenodd;clip-rule:evenodd;stroke-linecap:round;stroke-linejoin:round;">
    <g transform="matrix(1,0,0,1,0.0117647,0.00294118)">
        <g id="sprite0" transform="matrix(1,0,0,1,9.35,13.3)">
            <g>
                <g id="shape0">
                    <path d="M6.65,-8.2C7.617,-7.967 7.967,-7.217 7.7,-5.95C8.633,-5.483 8.8,-4.65 8.2,-3.45L8.75,-2.7L8.75,-2.65L8.8,-2.6C8.867,-2.233 8.6,-1.683 8,-0.95C8.567,0.217 8.267,1.083 7.1,1.65C7.533,2.983 7.05,3.617 5.65,3.55C5.617,4.85 4.867,5.483 3.4,5.45L3.2,6L3,5.75C2.5,6.683 1.65,6.85 0.45,6.25L0.4,6.4C0.067,7.1 -0.417,7.75 -1.05,8.35L-2.65,9.45L-4.1,10.1C-5.333,10.867 -6.133,11.783 -6.5,12.85L-6.9,11.7C-7.167,10.8 -7.2,9.983 -7,9.25C-6.767,8.383 -6.35,7.667 -5.75,7.1L-5.4,6.8L-4.8,6.05L-4.7,5.4L-4.7,5.3L-4.75,5.3L-5.05,4.45L-5.15,4.2C-5.617,4.233 -5.95,4.117 -6.15,3.85C-6.45,3.517 -6.583,3.1 -6.55,2.6C-7.617,1.967 -7.95,1.15 -7.55,0.15C-8.617,-0.483 -8.85,-1.333 -8.25,-2.4C-8.583,-2.633 -8.783,-2.95 -8.85,-3.35C-8.917,-3.783 -8.7,-4.25 -8.2,-4.75C-8.633,-5.45 -8.45,-6.017 -7.65,-6.45L-7.7,-7.25L-7.35,-8.1L-6.7,-8.4C-6.667,-9 -6.483,-9.467 -6.15,-9.8C-5.75,-10.267 -5.267,-10.467 -4.7,-10.4C-4.433,-11.767 -3.667,-12.217 -2.4,-11.75C-1.8,-12.45 -1.267,-12.8 -0.8,-12.8C-0.333,-12.833 0.017,-12.583 0.25,-12.05C1.383,-12.75 2.2,-12.5 2.7,-11.3C3.967,-11.8 4.733,-11.367 5,-10L6.3,-9.75C6.667,-9.483 6.783,-8.967 6.65,-8.2" style="fill:rgb(40,10,2);"/>
                    <path d="M6.65,-8.2C7.617,-7.967 7.967,-7.217 7.7,-5.95C8.633,-5.483 8.8,-4.65 8.2,-3.45L8.75,-2.7L8.75,-2.65L8.8,-2.6C8.867,-2.233 8.6,-1.683 8,-0.95C8.567,0.217 8.267,1.083 7.1,1.65C7.533,2.983 7.05,3.617 5.65,3.55C5.617,4.85 4.867,5.483 3.4,5.45L3.2,6L3,5.75C2.5,6.683 1.65,6.85 0.45,6.25L0.4,6.4C0.067,7.1 -0.417,7.75 -1.05,8.35L-2.65,9.45L-4.1,10.1C-5.333,10.867 -6.133,11.783 -6.5,12.85L-6.9,11.7C-7.167,10.8 -7.2,9.983 -7,9.25C-6.767,8.383 -6.35,7.667 -5.75,7.1L-5.4,6.8L-4.8,6.05L-4.7,5.4L-4.7,5.3L-4.75,5.3L-5.05,4.45L-5.15,4.2C-5.617,4.233 -5.95,4.117 -6.15,3.85C-6.45,3.517 -6.583,3.1 -6.55,2.6C-7.617,1.967 -7.95,1.15 -7.55,0.15C-8.617,-0.483 -8.85,-1.333 -8.25,-2.4C-8.583,-2.633 -8.783,-2.95 -8.85,-3.35C-8.917,-3.783 -8.7,-4.25 -8.2,-4.75C-8.633,-5.45 -8.45,-6.017 -7.65,-6.45L-7.7,-7.25L-7.35,-8.1L-6.7,-8.4C-6.667,-9 -6.483,-9.467 -6.15,-9.8C-5.75,-10.267 -5.267,-10.467 -4.7,-10.4C-4.433,-11.767 -3.667,-12.217 -2.4,-11.75C-1.8,-12.45 -1.267,-12.8 -0.8,-12.8C-0.333,-12.833 0.017,-12.583 0.25,-12.05C1.383,-12.75 2.2,-12.5 2.7,-11.3C3.967,-11.8 4.733,-11.367 5,-10L6.3,-9.75C6.667,-9.483 6.783,-8.967 6.65,-8.2Z" style="fill:none;fill-rule:nonzero;stroke:rgb(40,10,2);stroke-width:1px;"/>
                </g>
                <g id="sprite1" transform="matrix(0.0498,0,0,0.0497,-6.60088,-11.6492)">
                    <g id="shape1">
                        <path d="M-14.9,71.8C-11.633,68.8 -7.283,66.617 -1.85,65.25C-1.05,53.55 2.417,44.233 8.55,37.3C16.85,27.9 26.583,23.95 37.75,25.45C43.183,-2.283 58.683,-11.533 84.25,-2.3C96.65,-15.9 107.4,-22.9 116.5,-23.3C125.633,-23.7 132.783,-18.467 137.95,-7.6C160.117,-22.3 176.5,-17.4 187.1,7.1C212,-2.967 227.167,5.733 232.6,33.2C242.4,30.767 251.183,32.333 258.95,37.9C266.55,43.367 269,54.05 266.3,69.95C285.467,74.317 292.267,89.35 286.7,115.05C305.467,124.583 308.933,141.25 297.1,165.05L308.75,182L308.95,182.2C297.117,192.8 281.733,192.8 262.8,182.2L1,94.25C-8.8,88.517 -14.1,81.033 -14.9,71.8" style="fill:white;"/>
                        <path d="M297.1,165.05C301.733,167.917 305.467,173.083 308.3,180.55L308.75,182L297.1,165.05M308.95,182.2C310.45,189.667 305.133,200.75 293,215.45C304.567,239.117 298.583,256.6 275.05,267.9C283.483,294.833 273.683,307.483 245.65,305.85C245.383,333.617 228.8,346.267 195.9,343.8C185.4,369.1 166.217,373.867 138.35,358.1C134.383,365.033 126.417,368.233 114.45,367.7C102.483,367.133 93.3,361.283 86.9,350.15C63.233,358.983 44.117,348.567 29.55,318.9C19.917,319.467 12.917,317.3 8.55,312.4C2.717,305.733 0.133,297.217 0.8,286.85C-20.7,273.95 -27.433,257.5 -19.4,237.5C-40.633,224.967 -45.267,208.033 -33.3,186.7C-39.667,181.933 -43.6,175.4 -45.1,167.1C-46.6,158.667 -42.183,149.133 -31.85,138.5C-40.683,124.9 -37.083,113.55 -21.05,104.45C-22.383,98.45 -22.85,93.133 -22.45,88.5C-21.917,81.433 -19.4,75.867 -14.9,71.8C-14.1,81.033 -8.8,88.517 1,94.25L262.8,182.2C281.733,192.8 297.117,192.8 308.95,182.2" style="fill:rgb(204,193,193);"/>
                        <path d="M-14.9,71.8C-11.633,68.8 -7.283,66.617 -1.85,65.25C-1.05,53.55 2.417,44.233 8.55,37.3C16.85,27.9 26.583,23.95 37.75,25.45C43.183,-2.283 58.683,-11.533 84.25,-2.3C96.65,-15.9 107.4,-22.9 116.5,-23.3C125.633,-23.7 132.783,-18.467 137.95,-7.6C160.117,-22.3 176.5,-17.4 187.1,7.1C212,-2.967 227.167,5.733 232.6,33.2C242.4,30.767 251.183,32.333 258.95,37.9C266.55,43.367 269,54.05 266.3,69.95C285.467,74.317 292.267,89.35 286.7,115.05C305.467,124.583 308.933,141.25 297.1,165.05C301.733,167.917 305.467,173.083 308.3,180.55L308.75,182L308.95,182.2C310.45,189.667 305.133,200.75 293,215.45C304.567,239.117 298.583,256.6 275.05,267.9C283.483,294.833 273.683,307.483 245.65,305.85C245.383,333.617 228.8,346.267 195.9,343.8C185.4,369.1 166.217,373.867 138.35,358.1C134.383,365.033 126.417,368.233 114.45,367.7C102.483,367.133 93.3,361.283 86.9,350.15C63.233,358.983 44.117,348.567 29.55,318.9C19.917,319.467 12.917,317.3 8.55,312.4C2.717,305.733 0.133,297.217 0.8,286.85C-20.7,273.95 -27.433,257.5 -19.4,237.5C-40.633,224.967 -45.267,208.033 -33.3,186.7C-39.667,181.933 -43.6,175.4 -45.1,167.1C-46.6,158.667 -42.183,149.133 -31.85,138.5C-40.683,124.9 -37.083,113.55 -21.05,104.45C-22.383,98.45 -22.85,93.133 -22.45,88.5C-21.917,81.433 -19.4,75.867 -14.9,71.8Z" style="fill:none;fill-rule:nonzero;stroke:black;stroke-opacity:0.3;stroke-width:0.05px;"/>
                        <path d="M256.5,167.1C249.967,133.5 234.517,103.3 210.15,76.5C204.583,70.367 198.95,64.85 193.25,59.95C163.717,34.517 130.85,22.683 94.65,24.45C83.517,24.983 72.983,26.75 63.05,29.75C58.283,31.117 53.65,32.883 49.15,35.05C46.15,36.417 43.233,37.917 40.4,39.55L54.05,31C60.317,26.233 66.917,22.217 73.85,18.95C87.85,12.283 103.367,8.6 120.4,7.9C163.8,5.867 202.3,23.217 235.9,59.95C259.833,86.217 275.133,115.8 281.8,148.7L256.5,167.1" style="fill:rgb(255,247,212);"/>
                        <path d="M193.25,59.95C198.95,64.85 204.583,70.367 210.15,76.5C234.517,103.3 249.967,133.5 256.5,167.1C258.667,179.067 259.75,191.45 259.75,204.25C259.75,214.983 258.933,225.25 257.3,235.05L238.1,204.85L105.1,127.3L140.8,41.6C158.467,46.367 175.95,52.483 193.25,59.95M40.4,39.55C43.233,37.917 46.15,36.417 49.15,35.05C53.65,32.883 58.283,31.117 63.05,29.75C79.083,30.417 95,32.117 110.8,34.85C103.733,63.017 96.933,91.183 90.4,119.35L4.25,72.4C13.117,60.433 23.183,50.7 34.45,43.2C36.383,41.867 38.367,40.65 40.4,39.55M219.35,271.15L197.9,239.75L226.5,263L244.65,274.65C240.983,281.85 236.7,288.65 231.8,295.05L219.35,271.15" style="fill:rgb(228,190,26);"/>
                        <path d="M256.5,167.1L281.8,148.7C284.233,161.233 285.45,174.233 285.45,187.7C285.45,232.6 270.9,268.717 241.8,296.05C235.133,302.183 228.2,307.483 221,311.95L203.45,323L191.2,330.95C170.1,342.383 146.567,346.667 120.6,343.8C85.367,339.733 54.217,323.483 27.15,295.05C21.017,288.517 15.567,281.983 10.8,275.45C-7.033,250.95 -18.25,223.133 -22.85,192C-27.883,159.067 -24.7,129.333 -13.3,102.8C-10.033,94.9 -6.017,87.35 -1.25,80.15C0.517,77.45 2.35,74.867 4.25,72.4L90.4,119.35L105.1,127.3L238.1,204.85L257.3,235.05C258.933,225.25 259.75,214.983 259.75,204.25C259.75,191.45 258.667,179.067 256.5,167.1M219.35,271.15L231.8,295.05C236.7,288.65 240.983,281.85 244.65,274.65L226.5,263L197.9,239.75L219.35,271.15" style="fill:rgb(207,139,6);"/>
                        <path d="M63.05,29.75C72.983,26.75 83.517,24.983 94.65,24.45C130.85,22.683 163.717,34.517 193.25,59.95C175.95,52.483 158.467,46.367 140.8,41.6L105.1,127.3L90.4,119.35C96.933,91.183 103.733,63.017 110.8,34.85C95,32.117 79.083,30.417 63.05,29.75" style="fill:rgb(242,223,140);"/>
                        <path d="M281.8,148.7C275.133,115.8 259.833,86.217 235.9,59.95C202.3,23.217 163.8,5.867 120.4,7.9C103.367,8.6 87.85,12.283 73.85,18.95C66.917,22.217 60.317,26.233 54.05,31L40.4,39.55C38.367,40.65 36.383,41.867 34.45,43.2C23.183,50.7 13.117,60.433 4.25,72.4C2.35,74.867 0.517,77.45 -1.25,80.15C-6.017,87.35 -10.033,94.9 -13.3,102.8C-24.7,129.333 -27.883,159.067 -22.85,192C-18.25,223.133 -7.033,250.95 10.8,275.45C15.567,281.983 21.017,288.517 27.15,295.05C54.217,323.483 85.367,339.733 120.6,343.8C146.567,346.667 170.1,342.383 191.2,330.95L203.45,323L221,311.95C228.2,307.483 235.133,302.183 241.8,296.05C270.9,268.717 285.45,232.6 285.45,187.7C285.45,174.233 284.233,161.233 281.8,148.7Z" style="fill:none;fill-rule:nonzero;stroke:black;stroke-opacity:0.3;stroke-width:0.05px;"/>
                        <path d="M37.75,343.65C37.35,337.65 35.167,331.183 31.2,324.25C26.733,316.217 23.333,308.467 21,301C19.633,296.5 18.683,292.15 18.15,287.95C16.65,277.583 17.467,267.85 20.6,258.75C64,295.483 107.4,311.667 150.8,307.3C151.067,323.1 149.1,337.733 144.9,351.2C143.533,355.267 142.033,359.217 140.4,363.05C133.867,377.717 124.333,390.833 111.8,402.4C104.2,389.9 95.567,379.967 85.9,372.6C90.667,365.4 92.783,357.917 92.25,350.15C74.017,339.95 55.85,337.783 37.75,343.65M79.15,425.05C70.45,429.683 60.933,433.9 50.6,437.7C25.833,453.067 9.717,471.5 2.25,493C-1.417,485.133 -4.283,477.583 -6.35,470.35C3.85,442.75 25.75,418 59.35,396.1C67.25,403.567 73.85,413.217 79.15,425.05" style="fill:rgb(88,15,15);"/>
                        <path d="M16.95,377.3C19.117,375.267 21.417,373.367 23.85,371.6C29.583,367.1 33.533,362.133 35.7,356.7C54.9,356.3 71.633,361.6 85.9,372.6C81,379.967 73.25,387.05 62.65,393.85L59.35,396.1C47.95,385.333 33.817,379.067 16.95,377.3" style="fill:rgb(221,141,141);"/>
                        <path d="M-6.35,470.35C-11.783,451.85 -12.45,435.333 -8.35,420.8C-3.617,403.367 4.817,388.867 16.95,377.3C33.817,379.067 47.95,385.333 59.35,396.1C25.75,418 3.85,442.75 -6.35,470.35M35.7,356.7C37.467,352.633 38.15,348.283 37.75,343.65C55.85,337.783 74.017,339.95 92.25,350.15C92.783,357.917 90.667,365.4 85.9,372.6C71.633,361.6 54.9,356.3 35.7,356.7" style="fill:rgb(155,20,20);"/>
                        <path d="M111.8,402.4C102.567,410.833 91.683,418.383 79.15,425.05C73.85,413.217 67.25,403.567 59.35,396.1L62.65,393.85C73.25,387.05 81,379.967 85.9,372.6C95.567,379.967 104.2,389.9 111.8,402.4" style="fill:rgb(182,108,108);"/>
                        <path d="M37.75,343.65C37.35,337.65 35.167,331.183 31.2,324.25C26.733,316.217 23.333,308.467 21,301C19.633,296.5 18.683,292.15 18.15,287.95C16.65,277.583 17.467,267.85 20.6,258.75C64,295.483 107.4,311.667 150.8,307.3C151.067,323.1 149.1,337.733 144.9,351.2C143.533,355.267 142.033,359.217 140.4,363.05C133.867,377.717 124.333,390.833 111.8,402.4C102.567,410.833 91.683,418.383 79.15,425.05C70.45,429.683 60.933,433.9 50.6,437.7C25.833,453.067 9.717,471.5 2.25,493C-1.417,485.133 -4.283,477.583 -6.35,470.35C-11.783,451.85 -12.45,435.333 -8.35,420.8C-3.617,403.367 4.817,388.867 16.95,377.3C19.117,375.267 21.417,373.367 23.85,371.6C29.583,367.1 33.533,362.133 35.7,356.7C37.467,352.633 38.15,348.283 37.75,343.65M85.9,372.6C95.567,379.967 104.2,389.9 111.8,402.4M85.9,372.6C71.633,361.6 54.9,356.3 35.7,356.7M59.35,396.1C67.25,403.567 73.85,413.217 79.15,425.05M16.95,377.3C33.817,379.067 47.95,385.333 59.35,396.1" style="fill:none;fill-rule:nonzero;stroke:black;stroke-opacity:0.3;stroke-width:0.05px;"/>
                        <path d="M31.6,324.45L42.05,296.5L34.9,290.8C29.867,286.567 25.033,282 20.4,277.1C18.767,268.133 17.4,258.883 16.3,249.35L77.15,291.8C73.183,298.467 69.033,304.8 64.7,310.8L62.65,313.45C54.883,323.65 46.383,332.9 37.15,341.2C35.083,335.767 33.233,330.183 31.6,324.45M130.6,359.55L122.85,371.8C113.85,359.433 106.367,345.55 100.4,330.15C99.433,327.85 98.55,325.483 97.75,323.05C95.55,316.517 93.567,309.783 91.8,302.85L153.45,312.6C151.683,317.5 149.717,322.4 147.55,327.3C139.65,328 131.483,328 123.05,327.3L122.65,327.1L122.65,327.3L130.6,359.55M202.2,341.6L196.7,355.5C188.267,344.6 180.783,333.5 174.25,322.2L174.25,322C171.25,317.1 168.533,312.133 166.1,307.1L217.95,274.65C217.517,282.017 216.483,290.05 214.85,298.75L210.8,302L206.1,305.7C202.3,308.4 198.483,310.85 194.65,313.05L202.2,341.6M-18.35,209.8L-18.35,209.55C-17.55,196.917 -15.85,184.817 -13.25,173.25L11.85,239.15C7.483,243.65 3.4,247.467 -0.4,250.6L-2.45,252.45C-7.883,256.65 -12.85,259.567 -17.35,261.2L-18.15,252L-10.6,231.8C-13.867,224.6 -16.45,217.267 -18.35,209.8" style="fill:rgb(173,147,114);"/>
                        <path d="M31.6,324.45C27.267,310.583 23.667,295.683 20.8,279.75L20.4,277.1C25.033,282 29.867,286.567 34.9,290.8L42.05,296.5L31.6,324.45M147.55,327.3L146.1,330.15C141.733,339.683 136.567,349.483 130.6,359.55L122.65,327.3L122.65,327.1L123.05,327.3C131.483,328 139.65,328 147.55,327.3M214.85,298.75L214.25,301.4C211.55,313.633 207.533,327.033 202.2,341.6L194.65,313.05C198.483,310.85 202.3,308.4 206.1,305.7L210.8,302L214.85,298.75M-18.35,209.8C-16.45,217.267 -13.867,224.6 -10.6,231.8L-18.15,252C-19.25,237.333 -19.317,223.267 -18.35,209.8" style="fill:rgb(238,211,176);"/>
                        <path d="M20.4,277.1L20.8,279.75C23.667,295.683 27.267,310.583 31.6,324.45C33.233,330.183 35.083,335.767 37.15,341.2C46.383,332.9 54.883,323.65 62.65,313.45L64.7,310.8C69.033,304.8 73.183,298.467 77.15,291.8L16.3,249.35C17.4,258.883 18.767,268.133 20.4,277.1M147.55,327.3L146.1,330.15C141.733,339.683 136.567,349.483 130.6,359.55L122.85,371.8C113.85,359.433 106.367,345.55 100.4,330.15C99.433,327.85 98.55,325.483 97.75,323.05C95.55,316.517 93.567,309.783 91.8,302.85L153.45,312.6C151.683,317.5 149.717,322.4 147.55,327.3M214.85,298.75L214.25,301.4C211.55,313.633 207.533,327.033 202.2,341.6L196.7,355.5C188.267,344.6 180.783,333.5 174.25,322.2L174.25,322C171.25,317.1 168.533,312.133 166.1,307.1L217.95,274.65C217.517,282.017 216.483,290.05 214.85,298.75M-18.15,252L-17.35,261.2C-12.85,259.567 -7.883,256.65 -2.45,252.45L-0.4,250.6C3.4,247.467 7.483,243.65 11.85,239.15L-13.25,173.25C-15.85,184.817 -17.55,196.917 -18.35,209.55M-18.35,209.8C-19.317,223.267 -19.25,237.333 -18.15,252" style="fill:none;fill-rule:nonzero;stroke:black;stroke-opacity:0.3;stroke-width:0.05px;"/>
                        <path d="M-10,132.25C-4.167,112.383 6.783,95.367 22.85,81.2C47.35,58.767 77,49.583 111.8,53.65L112.65,53.9L113.45,53.9C148.817,58.233 179.017,76.25 204.05,107.95C224.717,133.95 236.75,161.9 240.15,191.8C211.717,241.2 170.5,261.883 116.5,253.85C58.267,233.717 16.1,193.183 -10,132.25M112.65,53.9C84.883,83.933 68.35,115.9 63.05,149.8C60.583,165.167 60.45,180.95 62.65,197.15C60.45,180.95 60.583,165.167 63.05,149.8C68.35,115.9 84.883,83.933 112.65,53.9" style="fill:rgb(219,30,30);"/>
                        <path d="M240.15,191.8C240.85,197.667 241.2,203.667 241.2,209.8C240.8,245.833 228.083,274.933 203.05,297.1C177.75,318.733 147.4,326.767 112,321.2C76.5,315.467 46.45,297.917 21.85,268.55C-3.183,238.617 -15.5,205.55 -15.1,169.35C-15.1,156.05 -13.4,143.683 -10,132.25C16.1,193.183 58.267,233.717 116.5,253.85C170.5,261.883 211.717,241.2 240.15,191.8" style="fill:rgb(159,15,15);"/>
                        <path d="M-10,132.25C-4.167,112.383 6.783,95.367 22.85,81.2C47.35,58.767 77,49.583 111.8,53.65L112.65,53.9L113.45,53.9C148.817,58.233 179.017,76.25 204.05,107.95C224.717,133.95 236.75,161.9 240.15,191.8C240.85,197.667 241.2,203.667 241.2,209.8C240.8,245.833 228.083,274.933 203.05,297.1C177.75,318.733 147.4,326.767 112,321.2C76.5,315.467 46.45,297.917 21.85,268.55C-3.183,238.617 -15.5,205.55 -15.1,169.35C-15.1,156.05 -13.4,143.683 -10,132.25M62.65,197.15C60.45,180.95 60.583,165.167 63.05,149.8C68.35,115.9 84.883,83.933 112.65,53.9" style="fill:none;fill-rule:nonzero;stroke:black;stroke-opacity:0.3;stroke-width:0.05px;"/>
                        <path d="M150,254.65L154.45,249.75C143.583,239.017 133.867,226.917 125.3,213.45C130.467,197.383 137.95,184.467 147.75,174.7C156.45,193.067 165.767,209.383 175.7,223.65C187,208.15 198.217,190.4 209.35,170.4C216.55,178.3 220.833,190.55 222.2,207.15L203.65,230.4L194.65,240.8C172.883,249.633 158,254.25 150,254.65M175.7,223.65C168.633,233.183 161.55,241.883 154.45,249.75C161.55,241.883 168.633,233.183 175.7,223.65" style="fill:white;"/>
                        <path d="M194.65,240.8L191.6,244.25C199.5,253.383 207.733,261.35 216.3,268.15L204.05,285.7C192.617,279.7 182.067,272.967 172.4,265.5C162.2,276.1 151.667,286.433 140.8,296.5C131,293.233 124.6,287.733 121.6,280C130.467,273.6 139.25,265.9 147.95,256.9L150,254.65C158,254.25 172.883,249.633 194.65,240.8M172.4,265.5C178.933,258.567 185.333,251.483 191.6,244.25C185.333,251.483 178.933,258.567 172.4,265.5" style="fill:rgb(204,193,193);"/>
                        <path d="M194.65,240.8L191.6,244.25C199.5,253.383 207.733,261.35 216.3,268.15L204.05,285.7C192.617,279.7 182.067,272.967 172.4,265.5C162.2,276.1 151.667,286.433 140.8,296.5C131,293.233 124.6,287.733 121.6,280C130.467,273.6 139.25,265.9 147.95,256.9L150,254.65L154.45,249.75C143.583,239.017 133.867,226.917 125.3,213.45C130.467,197.383 137.95,184.467 147.75,174.7C156.45,193.067 165.767,209.383 175.7,223.65C187,208.15 198.217,190.4 209.35,170.4C216.55,178.3 220.833,190.55 222.2,207.15L203.65,230.4L194.65,240.8M191.6,244.25C185.333,251.483 178.933,258.567 172.4,265.5M154.45,249.75C161.55,241.883 168.633,233.183 175.7,223.65" style="fill:none;fill-rule:nonzero;stroke:black;stroke-opacity:0.3;stroke-width:0.05px;"/>
                        <path d="M-9.8,134.7C-10.633,129.667 -11.317,124.483 -11.85,119.15C-8.05,112.083 -3.017,107.867 3.25,106.5C4.483,121.767 6.867,136.867 10.4,151.8C17.6,142.167 25.417,133.4 33.85,125.5C37.383,130.533 40.933,139.517 44.5,152.45C34.567,160.05 25.65,168.2 17.75,176.9L17.35,177.35L18.75,181.8L16.5,178.35C13.8,173.583 9.8,167.333 4.5,159.6L-9.8,134.7M10.4,151.8L4.5,159.6L10.4,151.8M17.35,177.35L16.5,178.35L17.35,177.35" style="fill:white;"/>
                        <path d="M18.75,181.8L19.15,183.05C24.883,199.517 31.967,215.767 40.4,231.8C36.333,233.7 31.7,234.8 26.5,235.1C17.933,222.433 10.733,208.35 4.9,192.85C1.367,197.75 -1.9,202.783 -4.9,207.95C-8.3,203.583 -11.233,197.667 -13.7,190.2C-10.133,183.267 -6.383,176.667 -2.45,170.4C-5.583,159.1 -8.033,147.2 -9.8,134.7L4.5,159.6C9.8,167.333 13.8,173.583 16.5,178.35C12.3,182.983 8.433,187.817 4.9,192.85C8.433,187.817 12.3,182.983 16.5,178.35L18.75,181.8M-2.45,170.4C0.117,166.167 2.433,162.567 4.5,159.6C2.433,162.567 0.117,166.167 -2.45,170.4" style="fill:rgb(204,193,193);"/>
                        <path d="M-9.8,134.7C-10.633,129.667 -11.317,124.483 -11.85,119.15C-8.05,112.083 -3.017,107.867 3.25,106.5C4.483,121.767 6.867,136.867 10.4,151.8C17.6,142.167 25.417,133.4 33.85,125.5C37.383,130.533 40.933,139.517 44.5,152.45C34.567,160.05 25.65,168.2 17.75,176.9L17.35,177.35L18.75,181.8L19.15,183.05C24.883,199.517 31.967,215.767 40.4,231.8C36.333,233.7 31.7,234.8 26.5,235.1C17.933,222.433 10.733,208.35 4.9,192.85C1.367,197.75 -1.9,202.783 -4.9,207.95C-8.3,203.583 -11.233,197.667 -13.7,190.2C-10.133,183.267 -6.383,176.667 -2.45,170.4C-5.583,159.1 -8.033,147.2 -9.8,134.7M4.5,159.6L10.4,151.8M4.9,192.85C8.433,187.817 12.3,182.983 16.5,178.35L17.35,177.35M4.5,159.6C2.433,162.567 0.117,166.167 -2.45,170.4" style="fill:none;fill-rule:nonzero;stroke:black;stroke-opacity:0.3;stroke-width:0.05px;"/>
                        <path d="M71.2,185.9C62.767,187 54.883,185.633 47.55,181.8L46.5,172.25C56.7,178.783 67.867,180.133 80,176.3L77.35,184.9C75.583,185.433 73.533,185.767 71.2,185.9M45.9,131L51.4,121.85C66.367,120.05 80.583,122.633 94.05,129.6L95.7,142.25C80.467,132.183 63.867,128.433 45.9,131M55.9,91.85L62.45,80.8C80.383,78.767 97.383,81.9 113.45,90.2L115.5,105.3C97.267,93.2 77.4,88.717 55.9,91.85" style="fill:white;"/>
                        <path d="M55.9,91.85C77.4,88.717 97.267,93.2 115.5,105.3L113.45,90.2C97.383,81.9 80.383,78.767 62.45,80.8L55.9,91.85M45.9,131C63.867,128.433 80.467,132.183 95.7,142.25L94.05,129.6C80.583,122.633 66.367,120.05 51.4,121.85L45.9,131M71.2,185.9C73.533,185.767 75.583,185.433 77.35,184.9L80,176.3C67.867,180.133 56.7,178.783 46.5,172.25L47.55,181.8C54.883,185.633 62.767,187 71.2,185.9Z" style="fill:none;fill-rule:nonzero;stroke:black;stroke-opacity:0.3;stroke-width:0.05px;"/>
                    </g>
                </g>
            </g>
        </g>
    </g>
</svg>
