<?xml version="1.0" encoding="UTF-8" standalone="no"?>
<!DOCTYPE svg PUBLIC "-//W3C//DTD SVG 1.1//EN" "http://www.w3.org/Graphics/SVG/1.1/DTD/svg11.dtd">
<svg width="100%" height="100%" viewBox="0 0 41 23" version="1.1" xmlns="http://www.w3.org/2000/svg" xmlns:xlink="http://www.w3.org/1999/xlink" xml:space="preserve" xmlns:serif="http://www.serif.com/" style="fill-rule:evenodd;clip-rule:evenodd;stroke-linecap:round;stroke-linejoin:round;">
    <g transform="matrix(1,0,0,1,-0.0234043,-0.0166667)">
        <g transform="matrix(1,0,0,1,20.5,11.2)">
            <g id="sprite0">
                <g id="sprite1">
                    <g id="shape0">
                        <path d="M10.65,0.5L10.75,0.3L10.8,-0.1L10.55,-1.35L10.45,-1.55L10.25,-1.6L9.3,-1.45L8.9,-0.85L8.8,-0.65L8.8,-0.45L8.75,-0.4C8.717,0.033 8.817,0.467 9.05,0.9L9.3,1.25L10.25,1.1L10.65,0.5M5.6,-8.25L5.25,-8.3C3.883,-6.333 2.717,-3.733 1.75,-0.5L1.85,-0.6L1.8,-0.25C2.567,-3.383 3.833,-6.05 5.6,-8.25M4.1,-10.65L4.15,-10.65L4.2,-10.6L4.4,-10.05L4.45,-10.05L4.6,-10L5.9,-9.6L8.1,-9.2C9.567,-8.8 10.8,-8.133 11.8,-7.2C12.867,-6.3 13.767,-5.233 14.5,-4L15.35,-2.2L15.8,-1.15L16.6,0.75L16.65,0.9L16.7,0.95L16.8,1.1L16.85,1.15L16.9,1.15L17,1.3L17.05,0.75L17.15,0.5L17.25,0.1L17.6,-0.35L18.1,-0.65C19.5,-0.417 20.117,0.45 19.95,1.95L19.95,2.1L19.9,2.25L19.7,3C19.433,3.767 19.083,4.133 18.65,4.1C18.117,4.067 17.7,3.8 17.4,3.3L17.35,3.25L17.25,3.1L16.85,2.4L16.85,2.35L16.45,1.7L16.35,1.45L15.8,0.55L15.65,0.35L13.7,-2.6L13.65,-2.7L13.45,-2.95L13.2,-2.95C12.633,-2.883 12.35,-2.583 12.35,-2.05L12.5,-1.45C12.9,0.05 12.733,1.55 12,3.05C10.9,4.55 9.933,5.367 9.1,5.5L9.1,6.1C9.667,6.933 9.717,7.6 9.25,8.1L9.15,8.15L9.1,8.35L8.95,8.3L8.9,8.25C8.367,8.183 8.217,7.467 8.45,6.1L8.5,5.5L8.25,5.4L7.85,5.1C5.717,3.6 4.233,2.1 3.4,0.6L3.05,-0.05L2.75,-0.4L2.35,-0.3L2.25,-0.25L2.25,-0.2L1.75,0.3L2,0.75C2.533,1.05 2.683,1.667 2.45,2.6L2.35,2.85C2.083,3.35 1.917,2.967 1.85,1.7C1.65,1.233 1.5,1.083 1.4,1.25L1.35,1.35L1.35,0.85L0.95,2.25L0.55,2.2C0.117,1.667 0,1.1 0.2,0.5L1.6,-3.4C2.367,-5.5 3.3,-7.317 4.4,-8.85L4.25,-9L4.15,-9.05L3.9,-9L3.75,-9.05L3.6,-9L3.35,-9.3L3.3,-9.8L3.35,-9.85C3.183,-10.517 3.433,-10.783 4.1,-10.65M2.95,2.25L2.95,2.45L2.85,2.5L2.75,2.25L2.75,1.6L2.85,1.65L2.95,1.9L2.95,2.25M-5.35,-6.95L-4.7,-6.2L-5.25,-7L-5.35,-6.95M-5.85,-8.1L-4.6,-8.85L-4.45,-8.95L-4.4,-8.95L-4.2,-9.55L-4.1,-9.65C-3.367,-9.95 -3.117,-9.683 -3.35,-8.85C-3.317,-8.717 -3.333,-8.55 -3.4,-8.35L-3.65,-7.9L-3.8,-8L-4.15,-8L-4.25,-7.95L-4.35,-7.75C-3.283,-6.45 -2.367,-4.85 -1.6,-2.95L-0.2,0.65C0,1.183 -0.117,1.767 -0.55,2.4L-0.95,2.55L-1.2,1.7L-1.2,1.75L-1.25,1.65C-1.35,1.517 -1.5,1.7 -1.7,2.2C-1.767,3.467 -1.933,3.883 -2.2,3.45L-2.3,3.25C-2.533,2.35 -2.383,1.7 -1.85,1.3C-1.683,1.133 -1.6,0.9 -1.6,0.6L-2,0.35L-2,0.3L-2.1,0.25L-2.5,0.25L-2.8,0.7L-3.15,1.45C-4.05,3.25 -5.667,5.217 -8,7.35L-8.5,7.6L-8.45,8.2C-8.217,9.467 -8.333,10.167 -8.8,10.3L-8.85,10.35L-8.9,10.35L-8.95,10.4L-9.1,10.7L-9.25,10.75L-9.3,10.5L-9.3,10.35C-9.7,9.883 -9.633,9.217 -9.1,8.35L-9.05,7.65C-9.85,7.55 -10.75,6.933 -11.75,5.8C-12.483,4.5 -12.65,3.033 -12.25,1.4L-12.1,0.8C-12.1,0.267 -12.383,0.033 -12.95,0.1L-13.1,0.1L-13.4,0.25L-13.45,0.3L-13.65,0.55L-13.7,0.65L-15.65,4.05L-15.8,4.3L-16.35,5.35L-16.45,5.65L-16.85,6.35L-16.85,6.4L-17.25,7.2L-17.35,7.35L-17.4,7.45C-17.7,8.017 -18.117,8.367 -18.65,8.5C-19.083,8.633 -19.433,8.367 -19.7,7.7L-19.9,6.95L-19.95,6.8L-19.95,6.65C-20.117,5.217 -19.5,4.217 -18.1,3.65L-17.55,3.85C-17.383,3.883 -17.267,4 -17.2,4.2L-17.05,4.75L-17.05,4.85L-17,5.35L-16.9,5.15L-16.85,5.15L-16.8,5.1L-16.7,4.9L-16.65,4.85L-16.6,4.7L-15.8,2.6L-15.35,1.5L-14.5,-0.5L-11.8,-4.35C-10.8,-5.483 -9.567,-6.45 -8.1,-7.25L-5.9,-8.15L-5.85,-8.1M-9,3.45L-8.8,3.05C-8.567,2.55 -8.467,2.083 -8.5,1.65L-8.55,1.6L-8.55,1.4L-8.65,1.2L-9.05,0.7L-10,0.75L-10.45,1.15L-10.5,1.2L-10.75,2.6L-10.7,2.95L-10.6,3.1L-10.2,3.6L-9.25,3.55L-9,3.45M-2.75,2.45L-2.7,2.4C-2.667,2.333 -2.633,2.317 -2.6,2.35L-2.6,2.95L-2.7,3.2L-2.8,3.25L-2.8,2.9L-2.85,2.8L-2.8,2.55L-2.75,2.45" style="fill:#280a02;"/>
                        <path d="M4.1,-10.65C3.433,-10.783 3.183,-10.517 3.35,-9.85L3.3,-9.8L3.35,-9.3L3.6,-9L3.75,-9.05L3.9,-9L4.15,-9.05L4.25,-9L4.4,-8.85C3.3,-7.317 2.367,-5.5 1.6,-3.4L0.2,0.5C0,1.1 0.117,1.667 0.55,2.2L0.95,2.25L1.35,0.85L1.35,1.35L1.4,1.25C1.5,1.083 1.65,1.233 1.85,1.7C1.917,2.967 2.083,3.35 2.35,2.85L2.45,2.6C2.683,1.667 2.533,1.05 2,0.75L1.75,0.3L2.25,-0.2L2.25,-0.25L2.35,-0.3L2.75,-0.4L3.05,-0.05L3.4,0.6C4.233,2.1 5.717,3.6 7.85,5.1L8.25,5.4L8.5,5.5L8.45,6.1C8.217,7.467 8.367,8.183 8.9,8.25L8.95,8.3L9.1,8.35L9.15,8.15L9.25,8.1C9.717,7.6 9.667,6.933 9.1,6.1L9.1,5.5C9.933,5.367 10.9,4.55 12,3.05C12.733,1.55 12.9,0.05 12.5,-1.45L12.35,-2.05C12.35,-2.583 12.633,-2.883 13.2,-2.95L13.45,-2.95L13.65,-2.7L13.7,-2.6L15.65,0.35L15.8,0.55L16.35,1.45L16.45,1.7L16.85,2.35L16.85,2.4L17.25,3.1L17.35,3.25L17.4,3.3C17.7,3.8 18.117,4.067 18.65,4.1C19.083,4.133 19.433,3.767 19.7,3L19.9,2.25L19.95,2.1L19.95,1.95C20.117,0.45 19.5,-0.417 18.1,-0.65L17.6,-0.35L17.25,0.1L17.15,0.5L17.05,0.75L17,1.3L16.9,1.15L16.85,1.15L16.8,1.1L16.7,0.95L16.65,0.9L16.6,0.75L15.8,-1.15L15.35,-2.2L14.5,-4C13.767,-5.233 12.867,-6.3 11.8,-7.2C10.8,-8.133 9.567,-8.8 8.1,-9.2L5.9,-9.6L4.6,-10L4.45,-10.05L4.4,-10.05L4.2,-10.6L4.15,-10.65L4.1,-10.65M5.6,-8.25C3.833,-6.05 2.567,-3.383 1.8,-0.25L1.85,-0.6L1.75,-0.5C2.717,-3.733 3.883,-6.333 5.25,-8.3L5.6,-8.25M10.65,0.5L10.25,1.1L9.3,1.25L9.05,0.9C8.817,0.467 8.717,0.033 8.75,-0.4L8.8,-0.45L8.8,-0.65L8.9,-0.85L9.3,-1.45L10.25,-1.6L10.45,-1.55L10.55,-1.35L10.8,-0.1L10.75,0.3L10.65,0.5M-5.85,-8.1L-4.6,-8.85L-4.45,-8.95L-4.4,-8.95L-4.2,-9.55L-4.1,-9.65C-3.367,-9.95 -3.117,-9.683 -3.35,-8.85C-3.317,-8.717 -3.333,-8.55 -3.4,-8.35L-3.65,-7.9L-3.8,-8L-4.15,-8L-4.25,-7.95L-4.35,-7.75C-3.283,-6.45 -2.367,-4.85 -1.6,-2.95L-0.2,0.65C0,1.183 -0.117,1.767 -0.55,2.4L-0.95,2.55L-1.2,1.7L-1.2,1.75L-1.25,1.65C-1.35,1.517 -1.5,1.7 -1.7,2.2C-1.767,3.467 -1.933,3.883 -2.2,3.45L-2.3,3.25C-2.533,2.35 -2.383,1.7 -1.85,1.3C-1.683,1.133 -1.6,0.9 -1.6,0.6L-2,0.35L-2,0.3L-2.1,0.25L-2.5,0.25L-2.8,0.7L-3.15,1.45C-4.05,3.25 -5.667,5.217 -8,7.35L-8.5,7.6L-8.45,8.2C-8.217,9.467 -8.333,10.167 -8.8,10.3L-8.85,10.35L-8.9,10.35L-8.95,10.4L-9.1,10.7L-9.25,10.75L-9.3,10.5L-9.3,10.35C-9.7,9.883 -9.633,9.217 -9.1,8.35L-9.05,7.65C-9.85,7.55 -10.75,6.933 -11.75,5.8C-12.483,4.5 -12.65,3.033 -12.25,1.4L-12.1,0.8C-12.1,0.267 -12.383,0.033 -12.95,0.1L-13.1,0.1L-13.4,0.25L-13.45,0.3L-13.65,0.55L-13.7,0.65L-15.65,4.05L-15.8,4.3L-16.35,5.35L-16.45,5.65L-16.85,6.35L-16.85,6.4L-17.25,7.2L-17.35,7.35L-17.4,7.45C-17.7,8.017 -18.117,8.367 -18.65,8.5C-19.083,8.633 -19.433,8.367 -19.7,7.7L-19.9,6.95L-19.95,6.8L-19.95,6.65C-20.117,5.217 -19.5,4.217 -18.1,3.65L-17.55,3.85C-17.383,3.883 -17.267,4 -17.2,4.2L-17.05,4.75L-17.05,4.85L-17,5.35L-16.9,5.15L-16.85,5.15L-16.8,5.1L-16.7,4.9L-16.65,4.85L-16.6,4.7L-15.8,2.6L-15.35,1.5L-14.5,-0.5L-11.8,-4.35C-10.8,-5.483 -9.567,-6.45 -8.1,-7.25L-5.9,-8.15L-5.85,-8.1M-9,3.45L-8.8,3.05C-8.567,2.55 -8.467,2.083 -8.5,1.65L-8.55,1.6L-8.55,1.4L-8.65,1.2L-9.05,0.7L-10,0.75L-10.45,1.15L-10.5,1.2L-10.75,2.6L-10.7,2.95L-10.6,3.1L-10.2,3.6L-9.25,3.55L-9,3.45" style="fill:none;fill-rule:nonzero;stroke:#280a02;stroke-width:1px;"/>
                    </g>
                </g>
                <g id="sprite2">
                    <g id="shape1">
                        <path d="M-11,3.7L-10.65,4.05C-10.35,4.217 -10.017,4.217 -9.65,4.05C-9.283,3.783 -9,3.45 -8.8,3.05C-8.567,2.55 -8.467,2.083 -8.5,1.65L-8.55,1.6L-8.55,1.4L-8.45,1.8C-8.417,2.233 -8.517,2.667 -8.75,3.1C-8.95,3.6 -9.233,3.933 -9.6,4.1L-10.6,4.2L-11,3.7" style="fill:#228691;"/>
                        <path d="M-12.95,0.1L-13.1,0.1L-13.4,0.25L-13.75,0.4C-11.583,-4.7 -8.85,-7.217 -5.55,-7.15C-3.55,-5.183 -2.15,-2.517 -1.35,0.85L-2,0.35L-2,0.3L-2.1,0.25L-2.5,0.25C-2.5,-0.85 -3.633,-2.583 -5.9,-4.95C-7.933,-5.317 -10.283,-3.633 -12.95,0.1" style="fill:#1a5f66;"/>
                        <path d="M-8.55,1.4L-8.65,1.2L-9.05,0.7L-10,0.75L-10.85,1.75C-11.117,2.217 -11.217,2.667 -11.15,3.1L-11,3.7L-10.6,4.2L-9.6,4.1C-9.233,3.933 -8.95,3.6 -8.75,3.1C-8.517,2.667 -8.417,2.233 -8.45,1.8L-8.55,1.4M-12.95,0.1C-10.283,-3.633 -7.933,-5.317 -5.9,-4.95C-3.633,-2.583 -2.5,-0.85 -2.5,0.25L-2.8,0.7L-3.15,1.45C-4.05,3.25 -5.667,5.217 -8,7.35C-9,8.017 -10.25,7.5 -11.75,5.8C-12.483,4.5 -12.65,3.033 -12.25,1.4L-12.1,0.8C-12.1,0.267 -12.383,0.033 -12.95,0.1" style="fill:#25939e;"/>
                        <path d="M-2.5,0.25L-2.1,0.25L-2,0.3L-2,0.35L-1.35,0.85C-2.15,-2.517 -3.55,-5.183 -5.55,-7.15C-8.85,-7.217 -11.583,-4.7 -13.75,0.4L-13.4,0.25L-13.1,0.1L-12.95,0.1C-12.383,0.033 -12.1,0.267 -12.1,0.8L-12.25,1.4C-12.65,3.033 -12.483,4.5 -11.75,5.8C-10.25,7.5 -9,8.017 -8,7.35C-5.667,5.217 -4.05,3.25 -3.15,1.45L-2.8,0.7L-2.5,0.25Z" style="fill:none;fill-rule:nonzero;stroke:#2495a8;stroke-width:0.05px;"/>
                        <path d="M-10.6,3.1L-10.2,3.6L-9.25,3.55L-8.35,2.6C-8.15,2.133 -8.067,1.683 -8.1,1.25L-8.2,0.9L-8.25,0.7L-8.65,0.2L-9.65,0.25L-10.5,1.2L-10.75,2.6L-10.7,2.95L-10.6,3.1M-11.2,1.05C-10.933,0.317 -10.333,-0.2 -9.4,-0.5L-6.8,-0.6C-5.933,-0.333 -5.517,0.317 -5.55,1.35C-5.583,2.383 -5.867,3.233 -6.4,3.9L-8,5.1L-10.15,4.85C-11.083,4.517 -11.567,3.983 -11.6,3.25C-11.6,2.483 -11.467,1.75 -11.2,1.05" style="fill:#83d8e3;fill-opacity:0.3;"/>
                        <path d="M-5.3,-7.7C-5.1,-8 -4.85,-8.083 -4.55,-7.95C-3.383,-6.617 -2.4,-4.95 -1.6,-2.95L-2.05,-2.15C-2.983,-4.483 -4.067,-6.333 -5.3,-7.7" style="fill:#27a6b4;"/>
                        <path d="M-0.55,2.4L-0.95,2.55C-2.15,-1.883 -3.667,-5.15 -5.5,-7.25L-5.3,-7.7C-4.067,-6.333 -2.983,-4.483 -2.05,-2.15L-0.55,2.4" style="fill:#248f9e;"/>
                        <path d="M-1.6,-2.95L-0.2,0.65C0,1.183 -0.117,1.767 -0.55,2.4L-2.05,-2.15L-1.6,-2.95" style="fill:#259aa7;"/>
                        <path d="M-4.55,-7.95C-3.383,-6.617 -2.4,-4.95 -1.6,-2.95L-0.2,0.65M-0.95,2.55C-2.15,-1.883 -3.667,-5.15 -5.5,-7.25M-5.3,-7.7C-4.067,-6.333 -2.983,-4.483 -2.05,-2.15L-0.55,2.4" style="fill:none;fill-rule:nonzero;stroke:#2495a8;stroke-width:0.05px;"/>
                        <path d="M-4.25,-6.7L-2.95,-4.65C-2.683,-4.15 -2.55,-3.717 -2.55,-3.35C-3.083,-4.517 -3.717,-5.617 -4.45,-6.65L-4.25,-6.7" style="fill:#e3e3e3;"/>
                        <path d="M-4,-6.2L-3.25,-5.05L-2.8,-4.1L-4.1,-6.35L-4,-6.2" style="fill:#f1fcfc;"/>
                        <path d="M-5.9,-8.15C-5.567,-7.883 -5.35,-7.5 -5.25,-7C-8.617,-5.733 -11.333,-3.333 -13.4,0.2L-13.65,0.55L-15.65,4.05L-15.8,4.3L-16.35,5.35L-16.45,5.65L-16.85,6.35L-16.85,6.4L-17.25,7.2L-17.35,7.35L-17.4,7.45C-17.7,8.017 -18.117,8.367 -18.65,8.5C-19.083,8.633 -19.433,8.367 -19.7,7.7L-19.9,6.95L-19.95,6.8C-19.55,7.967 -18.817,7.883 -17.75,6.55C-17.35,6.017 -17.117,5.45 -17.05,4.85L-17,5.35L-16.9,5.15L-16.85,5.15L-16.8,5.1L-16.7,4.9L-16.65,4.85L-16.6,4.7L-16.6,4.8L-16.45,4.7L-15.85,3.45L-14.05,0.05C-12.183,-3.117 -10.2,-5.267 -8.1,-6.4C-7.567,-6.7 -7.567,-6.983 -8.1,-7.25L-5.9,-8.15" style="fill:#24949f;"/>
                        <path d="M-8.1,-7.25C-7.567,-6.983 -7.567,-6.7 -8.1,-6.4C-10.2,-5.267 -12.183,-3.117 -14.05,0.05L-15.85,3.45L-16.45,4.7L-16.6,4.8L-16.6,4.7L-15.8,2.6L-15.35,1.5L-14.5,-0.5L-11.8,-4.35C-10.8,-5.483 -9.567,-6.45 -8.1,-7.25M-17.05,4.85C-17.117,5.45 -17.35,6.017 -17.75,6.55C-18.817,7.883 -19.55,7.967 -19.95,6.8L-19.95,6.65C-20.117,5.217 -19.5,4.217 -18.1,3.65C-17.567,3.65 -17.217,4.05 -17.05,4.85" style="fill:#2ebac9;"/>
                        <path d="M-5.25,-7C-8.617,-5.733 -11.333,-3.333 -13.4,0.2L-13.65,0.55L-15.65,4.05L-15.8,4.3L-16.35,5.35L-16.45,5.65L-16.85,6.35L-16.85,6.4L-17.25,7.2L-17.35,7.35L-17.4,7.45C-17.7,8.017 -18.117,8.367 -18.65,8.5C-19.083,8.633 -19.433,8.367 -19.7,7.7L-19.9,6.95L-19.95,6.8L-19.95,6.65C-20.117,5.217 -19.5,4.217 -18.1,3.65C-17.567,3.65 -17.217,4.05 -17.05,4.85L-17,5.35L-16.9,5.15L-16.85,5.15L-16.8,5.1L-16.7,4.9L-16.65,4.85L-16.6,4.7L-16.6,4.8M-8.1,-7.25C-9.567,-6.45 -10.8,-5.483 -11.8,-4.35L-14.5,-0.5L-15.35,1.5L-15.8,2.6L-16.6,4.7M-8.1,-7.25L-5.9,-8.15" style="fill:none;fill-rule:nonzero;stroke:#2495a8;stroke-width:0.05px;"/>
                        <path d="M-13.65,0.55L-13.5,0.75M-17.4,7.45L-17.4,7.55" style="fill:none;fill-rule:nonzero;stroke:#000;stroke-opacity:0.3;stroke-width:0.05px;"/>
                        <path d="M-19.65,5.75L-19.2,4.65L-18.55,4L-17.75,3.8C-17.483,3.8 -17.3,3.933 -17.2,4.2C-17.067,4.467 -17.033,4.7 -17.1,4.9L-18.1,5.9C-18.7,6.4 -19.133,6.617 -19.4,6.55C-19.667,6.45 -19.75,6.183 -19.65,5.75" style="fill:#82dae3;"/>
                        <path d="M-18.45,4.25L-18.25,4.35L-18.2,4.55L-18.55,4.85L-18.95,4.95L-19.05,4.8L-18.95,4.5L-18.7,4.3L-18.45,4.25" style="fill:#fff;"/>
                        <path d="M-7.95,6.9L-8.35,7.15C-8.517,7.35 -8.55,7.7 -8.45,8.2C-8.183,9.633 -8.383,10.35 -9.05,10.35C-9.583,9.85 -9.567,9.167 -9,8.3C-8.967,7.867 -8.983,7.467 -9.05,7.1L-9.25,6.95L-9.3,6.9L-9.35,6.9L-8.85,6.35C-8.55,6.183 -8.25,6.367 -7.95,6.9" style="fill:#289fac;"/>
                        <path d="M-9.05,10.35L-9.25,10.4C-9.717,9.933 -9.667,9.25 -9.1,8.35C-9.033,7.617 -9.083,7.15 -9.25,6.95L-9.05,7.1C-8.983,7.467 -8.967,7.867 -9,8.3C-9.567,9.167 -9.583,9.85 -9.05,10.35" style="fill:#218792;"/>
                        <path d="M-7.95,6.9L-8.35,7.15C-8.517,7.35 -8.55,7.7 -8.45,8.2C-8.183,9.633 -8.383,10.35 -9.05,10.35L-9.25,10.4C-9.717,9.933 -9.667,9.25 -9.1,8.35C-9.033,7.617 -9.083,7.15 -9.25,6.95L-9.3,6.9L-9.35,6.9" style="fill:none;fill-rule:nonzero;stroke:#2495a8;stroke-width:0.05px;"/>
                        <path d="M-9.3,10.5L-9.25,10.1L-9.1,9.8L-8.95,9.75L-8.9,10L-8.95,10.4L-9.1,10.7L-9.25,10.75L-9.3,10.5" style="fill:#5cd2de;"/>
                        <path d="M-8.9,10.15L-8.85,9.9L-8.8,9.75C-8.767,9.683 -8.733,9.667 -8.7,9.7L-8.65,9.8L-8.65,10.05L-8.8,10.25L-8.85,10.35L-8.9,10.15" style="fill:#fff;"/>
                        <path d="M-1.2,1.7L-1.2,1.75L-1.35,1.45L-1.7,2C-1.733,3.267 -1.933,3.683 -2.3,3.25C-2.533,2.35 -2.383,1.7 -1.85,1.3C-1.683,1.133 -1.6,0.883 -1.6,0.55L-1.7,-0.1C-1.433,0 -1.267,0.317 -1.2,0.85L-1.2,1.7" style="fill:#259aa7;"/>
                        <path d="M-2.3,3.25C-1.933,3.683 -1.733,3.267 -1.7,2L-1.35,1.45L-1.25,1.65C-1.35,1.517 -1.5,1.7 -1.7,2.2C-1.767,3.467 -1.933,3.883 -2.2,3.45L-2.3,3.25" style="fill:#218792;"/>
                        <path d="M-1.25,1.65L-1.2,1.75L-1.2,1.7M-1.7,-0.1L-1.6,0.55C-1.6,0.883 -1.683,1.133 -1.85,1.3C-2.383,1.7 -2.533,2.35 -2.3,3.25L-2.2,3.45C-1.933,3.883 -1.767,3.467 -1.7,2.2C-1.5,1.7 -1.35,1.517 -1.25,1.65L-1.7,-0.1Z" style="fill:none;fill-rule:nonzero;stroke:#2495a8;stroke-width:0.05px;"/>
                        <path d="M-2.7,3.2L-2.6,2.95L-2.6,2.35C-2.633,2.317 -2.667,2.333 -2.7,2.4L-2.8,2.65L-2.8,3.25L-2.7,3.2" style="fill:#5cd2de;"/>
                        <path d="M-2.75,2.9L-2.7,2.75L-2.65,2.55L-2.7,2.4L-2.75,2.45L-2.8,2.55L-2.85,2.8L-2.8,2.95L-2.75,2.9" style="fill:#abe7ed;"/>
                        <path d="M-5.25,-7.25L-6.35,-7.85L-4.6,-8.85L-4.45,-8.95L-4.4,-8.35C-4.467,-7.517 -4.75,-7.167 -5.25,-7.3L-5.25,-7.25M-4.2,-9.55L-4.1,-9.65C-3.267,-9.983 -3.067,-9.583 -3.5,-8.45L-3.5,-8.35L-3.55,-8.25C-3.65,-8.15 -3.8,-8.15 -4,-8.25C-4.2,-8.317 -4.267,-8.75 -4.2,-9.55" style="fill:#27a6b4;"/>
                        <path d="M-4.15,-8L-4.25,-7.95L-4.8,-7.05L-5.25,-7.25L-5.25,-7.3C-4.75,-7.167 -4.467,-7.517 -4.4,-8.35L-4.4,-8.25L-4.15,-8" style="fill:#228691;"/>
                        <path d="M-4.45,-8.95L-4.4,-8.95L-4.2,-9.55C-4.267,-8.75 -4.2,-8.317 -4,-8.25C-3.8,-8.15 -3.65,-8.15 -3.55,-8.25L-3.6,-8.2L-3.9,-8L-4.15,-8L-4.4,-8.25L-4.4,-8.35L-4.45,-8.95" style="fill:#2799a5;"/>
                        <path d="M-6.35,-7.85L-4.6,-8.85L-4.45,-8.95L-4.4,-8.95L-4.2,-9.55L-4.1,-9.65C-3.267,-9.983 -3.067,-9.583 -3.5,-8.45L-3.5,-8.35L-3.55,-8.25L-3.6,-8.2L-3.9,-8L-4.15,-8L-4.25,-7.95L-4.8,-7.05" style="fill:none;fill-rule:nonzero;stroke:#2495a8;stroke-width:0.05px;"/>
                        <path d="M-3.8,-8.1L-3.85,-8.55L-3.9,-8.8L-3.75,-9L-3.5,-9.05L-3.35,-8.85C-3.317,-8.717 -3.333,-8.55 -3.4,-8.35L-3.65,-7.9C-3.75,-7.867 -3.8,-7.933 -3.8,-8.1" style="fill:#36c2d1;"/>
                        <path d="M-3.65,-8.7L-3.7,-8.85L-3.7,-9.05L-3.55,-9.1L-3.45,-8.95L-3.55,-8.65C-3.617,-8.617 -3.65,-8.633 -3.65,-8.7" style="fill:#c1ecf0;"/>
                        <path d="M-7.45,-3.2L-7.6,-3.05C-7.633,-3.017 -7.667,-3.033 -7.7,-3.1L-7.75,-3.3L-7.7,-3.5L-7.6,-3.6L-7.45,-3.6L-7.4,-3.4L-7.45,-3.2" style="fill:#42a7b8;fill-opacity:0.67;"/>
                        <path d="M-7.8,-2.75L-7.85,-2.75L-7.9,-2.7L-7.9,-2.8L-7.85,-2.9L-7.8,-2.85L-7.8,-2.75" style="fill:#42a7b8;fill-opacity:0.67;"/>
                        <path d="M-7,-2.85L-7.05,-2.8L-7.1,-2.8L-7.1,-2.95L-7.05,-3L-7,-3L-7,-2.85" style="fill:#42a7b8;fill-opacity:0.67;"/>
                        <path d="M-5.15,3.45L-5.1,3.25L-4.95,3.2L-4.85,3.3L-4.85,3.5L-4.9,3.65L-5.05,3.75L-5.15,3.65L-5.15,3.45" style="fill:#42a7b8;fill-opacity:0.67;"/>
                        <path d="M-4.4,1.9L-4.45,1.9L-4.35,1.85L-4.35,1.95L-4.4,2L-4.4,1.9" style="fill:#42a7b8;fill-opacity:0.67;"/>
                        <path d="M-5.2,2.7L-5.15,2.6L-5.1,2.6L-5.1,2.65L-5.05,2.7L-5.15,2.8L-5.2,2.75L-5.2,2.7" style="fill:#42a7b8;fill-opacity:0.67;"/>
                        <path d="M-4.85,3.1L-4.8,3L-4.75,3L-4.75,3.05L-4.7,3.1L-4.8,3.2L-4.85,3.15L-4.85,3.1" style="fill:#42a7b8;fill-opacity:0.67;"/>
                        <path d="M-18.65,6.75L-18.8,6.9L-18.9,6.85L-18.95,6.65L-18.9,6.45L-18.8,6.35L-18.65,6.35L-18.6,6.55L-18.65,6.75" style="fill:#42a7b8;fill-opacity:0.67;"/>
                        <path d="M-18.95,7.2L-19,7.2L-19.05,7.25L-19.05,7.15L-19,7.05L-18.95,7.1L-18.95,7.2" style="fill:#42a7b8;fill-opacity:0.67;"/>
                        <path d="M-18.25,7.1L-18.3,7.15L-18.35,7.15L-18.35,7L-18.3,6.95L-18.25,6.95L-18.25,7.1" style="fill:#42a7b8;fill-opacity:0.67;"/>
                        <path d="M11.25,1.05L10.9,1.5L9.9,1.7C9.533,1.567 9.25,1.3 9.05,0.9C8.817,0.467 8.717,0.033 8.75,-0.4L8.8,-0.45L8.8,-0.65L8.7,-0.25C8.667,0.183 8.767,0.617 9,1.05C9.2,1.483 9.483,1.75 9.85,1.85L10.85,1.65L11.25,1.05" style="fill:#228691;"/>
                        <path d="M13.2,-2.95L13.55,-2.95L13.65,-2.9L14,-2.85C11.833,-7.483 9.1,-9.367 5.8,-8.5C3.8,-6.067 2.4,-3.067 1.6,0.5L2.25,-0.2L2.25,-0.25L2.35,-0.3L2.75,-0.4C2.75,-1.5 3.883,-3.5 6.15,-6.4C8.183,-7.233 10.533,-6.083 13.2,-2.95" style="fill:#1a5f66;"/>
                        <path d="M8.8,-0.65L8.9,-0.85L9.3,-1.45L10.25,-1.6C10.617,-1.533 10.9,-1.267 11.1,-0.8C11.367,-0.4 11.467,0.017 11.4,0.45L11.25,1.05L10.85,1.65L9.85,1.85C9.483,1.75 9.2,1.483 9,1.05C8.767,0.617 8.667,0.183 8.7,-0.25L8.8,-0.65M13.2,-2.95C10.533,-6.083 8.183,-7.233 6.15,-6.4C3.883,-3.5 2.75,-1.5 2.75,-0.4L3.05,-0.05L3.4,0.6C4.3,2.2 5.917,3.8 8.25,5.4C9.25,5.867 10.5,5.083 12,3.05C12.733,1.55 12.9,0.05 12.5,-1.45L12.35,-2.05C12.35,-2.583 12.633,-2.883 13.2,-2.95" style="fill:#25939e;"/>
                        <path d="M2.75,-0.4L2.35,-0.3L2.25,-0.25L2.25,-0.2L1.6,0.5C2.4,-3.067 3.8,-6.067 5.8,-8.5C9.1,-9.367 11.833,-7.483 14,-2.85L13.65,-2.9L13.55,-2.95L13.2,-2.95C12.633,-2.883 12.35,-2.583 12.35,-2.05L12.5,-1.45C12.9,0.05 12.733,1.55 12,3.05C10.5,5.083 9.25,5.867 8.25,5.4C5.917,3.8 4.3,2.2 3.4,0.6L3.05,-0.05L2.75,-0.4Z" style="fill:none;fill-rule:nonzero;stroke:#2495a8;stroke-width:0.05px;"/>
                        <path d="M10.65,0.5L10.25,1.1L9.3,1.25L8.4,0.5C8.2,0.1 8.117,-0.333 8.15,-0.8L8.25,-1.15L8.3,-1.4L8.7,-1.95C9,-2.217 9.333,-2.283 9.7,-2.15L10.55,-1.35L10.8,-0.1L10.75,0.3L10.65,0.5M11.25,-1.7C10.983,-2.367 10.383,-2.733 9.45,-2.8C8.55,-2.933 7.683,-2.767 6.85,-2.3C5.983,-1.867 5.567,-1.133 5.6,-0.1C5.633,0.933 5.917,1.717 6.45,2.25C7.017,2.717 7.55,3 8.05,3.1C8.55,3.167 9.267,2.917 10.2,2.35C11.133,1.817 11.617,1.183 11.65,0.45C11.65,-0.317 11.517,-1.033 11.25,-1.7" style="fill:#83d8e3;fill-opacity:0.3;"/>
                        <path d="M5.3,-9L4.55,-9.1C3.383,-7.5 2.4,-5.6 1.6,-3.4C1.733,-3.5 1.883,-3.267 2.05,-2.7C2.983,-5.3 4.067,-7.4 5.3,-9" style="fill:#27a6b4;"/>
                        <path d="M0.55,2.2L0.95,2.25C2.15,-2.483 3.667,-6.117 5.5,-8.65L5.3,-9C4.067,-7.4 2.983,-5.3 2.05,-2.7L0.55,2.2" style="fill:#248f9e;"/>
                        <path d="M1.6,-3.4L0.2,0.5C0,1.1 0.117,1.667 0.55,2.2L2.05,-2.7C1.883,-3.267 1.733,-3.5 1.6,-3.4" style="fill:#259aa7;"/>
                        <path d="M4.55,-9.1C3.383,-7.5 2.4,-5.6 1.6,-3.4L0.2,0.5M0.95,2.25C2.15,-2.483 3.667,-6.117 5.5,-8.65M5.3,-9C4.067,-7.4 2.983,-5.3 2.05,-2.7L0.55,2.2" style="fill:none;fill-rule:nonzero;stroke:#2495a8;stroke-width:0.05px;"/>
                        <path d="M4.5,-7.75C4.667,-7.95 4.733,-7.933 4.7,-7.7C3.967,-6.533 3.333,-5.3 2.8,-4L3.2,-5.4L4.5,-7.75" style="fill:#e3e3e3;"/>
                        <path d="M4.25,-7.25L3.5,-5.9L3.05,-4.85L4.35,-7.4L4.25,-7.25" style="fill:#f1fcfc;"/>
                        <path d="M5.9,-9.6C5.567,-9.267 5.35,-8.833 5.25,-8.3C8.617,-7.833 11.333,-6.083 13.4,-3.05L13.65,-2.7L15.65,0.35L15.8,0.55L16.35,1.45L16.45,1.7L16.85,2.35L16.85,2.4L17.25,3.1L17.35,3.25L17.4,3.3C17.7,3.8 18.117,4.067 18.65,4.1C19.083,4.133 19.433,3.767 19.7,3L19.9,2.25L19.95,2.1C19.55,3.367 18.817,3.45 17.75,2.35C17.35,1.917 17.117,1.383 17.05,0.75L17,1.3L16.9,1.15L16.85,1.15L16.8,1.1L16.7,0.95L16.65,0.9L16.6,0.75L16.6,0.85L16.45,0.8L15.85,-0.35L14.05,-3.3C12.183,-6.067 10.2,-7.783 8.1,-8.45C7.567,-8.55 7.567,-8.8 8.1,-9.2L5.9,-9.6" style="fill:#24949f;"/>
                        <path d="M8.1,-9.2C7.567,-8.8 7.567,-8.55 8.1,-8.45C10.2,-7.783 12.183,-6.067 14.05,-3.3L15.85,-0.35L16.45,0.8L16.6,0.85L16.6,0.75L15.8,-1.15L15.35,-2.2L14.5,-4C13.767,-5.233 12.867,-6.3 11.8,-7.2C10.8,-8.133 9.567,-8.8 8.1,-9.2M17.05,0.75C17.117,1.383 17.35,1.917 17.75,2.35C18.817,3.45 19.55,3.367 19.95,2.1L19.95,1.95C20.117,0.45 19.5,-0.417 18.1,-0.65C17.567,-0.517 17.217,-0.05 17.05,0.75" style="fill:#2ebac9;"/>
                        <path d="M5.25,-8.3C8.617,-7.833 11.333,-6.083 13.4,-3.05L13.65,-2.7L15.65,0.35L15.8,0.55L16.35,1.45L16.45,1.7L16.85,2.35L16.85,2.4L17.25,3.1L17.35,3.25L17.4,3.3C17.7,3.8 18.117,4.067 18.65,4.1C19.083,4.133 19.433,3.767 19.7,3L19.9,2.25L19.95,2.1L19.95,1.95C20.117,0.45 19.5,-0.417 18.1,-0.65C17.567,-0.517 17.217,-0.05 17.05,0.75L17,1.3L16.9,1.15L16.85,1.15L16.8,1.1L16.7,0.95L16.65,0.9L16.6,0.75L16.6,0.8M8.1,-9.2C9.567,-8.8 10.8,-8.133 11.8,-7.2C12.867,-6.3 13.767,-5.233 14.5,-4L15.35,-2.2L15.8,-1.15L16.6,0.75M8.1,-9.2L5.9,-9.6" style="fill:none;fill-rule:nonzero;stroke:#2495a8;stroke-width:0.05px;"/>
                        <path d="M13.65,-2.7L13.5,-2.5M17.4,3.3L17.4,3.4" style="fill:none;fill-rule:nonzero;stroke:#000;stroke-opacity:0.3;stroke-width:0.05px;"/>
                        <path d="M19.7,1.05L19.25,0.05L18.6,-0.45L17.8,-0.45C17.533,-0.383 17.35,-0.2 17.25,0.1C17.117,0.333 17.083,0.55 17.15,0.75L18.15,1.55C18.75,1.917 19.183,2.033 19.45,1.9C19.717,1.733 19.8,1.45 19.7,1.05" style="fill:#82dae3;"/>
                        <path d="M18.4,-0.2L18.2,0.05L18.15,0.25L18.5,0.4L18.9,0.45L19,0.25L18.9,0L18.65,-0.15L18.4,-0.2" style="fill:#fff;"/>
                        <path d="M7.95,4.95L8.35,5.1C8.517,5.267 8.55,5.6 8.45,6.1C8.183,7.633 8.383,8.333 9.05,8.2C9.583,7.567 9.567,6.867 9,6.1C8.967,5.667 8.983,5.267 9.05,4.9L9.3,4.65L9.35,4.65C9.183,4.383 9.017,4.233 8.85,4.2C8.55,4.1 8.25,4.35 7.95,4.95" style="fill:#289fac;"/>
                        <path d="M9.05,8.2L9.25,8.1C9.717,7.6 9.667,6.933 9.1,6.1C9.033,5.4 9.083,4.933 9.25,4.7L9.05,4.9C8.983,5.267 8.967,5.667 9,6.1C9.567,6.867 9.583,7.567 9.05,8.2" style="fill:#218792;"/>
                        <path d="M7.95,4.95L8.35,5.1C8.517,5.267 8.55,5.6 8.45,6.1C8.183,7.633 8.383,8.333 9.05,8.2L9.25,8.1C9.717,7.6 9.667,6.933 9.1,6.1C9.033,5.4 9.083,4.933 9.25,4.7L9.3,4.65L9.35,4.65" style="fill:none;fill-rule:nonzero;stroke:#2495a8;stroke-width:0.05px;"/>
                        <path d="M9.15,8.05L9.1,7.7L8.95,7.4L8.8,7.4L8.75,7.65L8.8,8.05L8.95,8.3L9.1,8.35L9.15,8.05" style="fill:#5cd2de;"/>
                        <path d="M9.15,8L9.1,7.75L9.05,7.6L8.95,7.65L8.9,7.75L8.9,8L9.05,8.1L9.1,8.2L9.15,8" style="fill:#fff;"/>
                        <path d="M1.35,1.35L1.5,1.05L1.85,1.5C1.883,2.767 2.083,3.133 2.45,2.6C2.683,1.667 2.533,1.05 2,0.75C1.833,0.65 1.75,0.433 1.75,0.1L1.85,-0.6C1.583,-0.433 1.417,-0.083 1.35,0.45L1.35,1.35" style="fill:#259aa7;"/>
                        <path d="M2.45,2.6C2.083,3.133 1.883,2.767 1.85,1.5L1.5,1.05L1.4,1.25C1.5,1.083 1.65,1.233 1.85,1.7C1.917,2.967 2.083,3.35 2.35,2.85L2.45,2.6" style="fill:#218792;"/>
                        <path d="M1.4,1.25L1.35,1.35M1.85,-0.6L1.75,0.1C1.75,0.433 1.833,0.65 2,0.75C2.533,1.05 2.683,1.667 2.45,2.6L2.35,2.85C2.083,3.35 1.917,2.967 1.85,1.7C1.65,1.233 1.5,1.083 1.4,1.25L1.85,-0.6Z" style="fill:none;fill-rule:nonzero;stroke:#2495a8;stroke-width:0.05px;"/>
                        <path d="M2.85,2.5L2.75,2.25L2.75,1.6L2.85,1.65L2.95,1.9L2.95,2.45L2.85,2.5" style="fill:#5cd2de;"/>
                        <path d="M2.85,2.3L2.8,2.1L2.75,1.95L2.8,1.75L2.85,1.8L2.9,1.9L2.95,2.15L2.9,2.25L2.85,2.3" style="fill:#abe7ed;"/>
                        <path d="M4.4,-9.45C4.467,-8.683 4.75,-8.4 5.25,-8.6L5.25,-8.55L6.35,-9.45L4.6,-10L4.45,-10.05L4.4,-9.45M4.2,-10.6L4.15,-10.65L4.1,-10.65C3.267,-10.817 3.067,-10.383 3.5,-9.35L3.5,-9.3L3.55,-9.2L4,-9.3C4.2,-9.433 4.267,-9.867 4.2,-10.6" style="fill:#27a6b4;"/>
                        <path d="M5.25,-8.55L5.25,-8.6C4.75,-8.4 4.467,-8.683 4.4,-9.45L4.4,-9.35L4.15,-9.05L4.25,-9L4.8,-8.25L5.25,-8.55" style="fill:#228691;"/>
                        <path d="M4.15,-9.05L4.4,-9.35L4.4,-9.45L4.45,-10.05L4.4,-10.05L4.2,-10.6C4.267,-9.867 4.2,-9.433 4,-9.3L3.55,-9.2L3.6,-9.15C3.667,-9.05 3.767,-9 3.9,-9L4.15,-9.05" style="fill:#2799a5;"/>
                        <path d="M4.8,-8.25L4.25,-9L4.15,-9.05L3.9,-9C3.767,-9 3.667,-9.05 3.6,-9.15L3.55,-9.2L3.5,-9.3L3.5,-9.35C3.067,-10.383 3.267,-10.817 4.1,-10.65L4.15,-10.65L4.2,-10.6L4.4,-10.05L4.45,-10.05L4.6,-10L6.35,-9.45" style="fill:none;fill-rule:nonzero;stroke:#2495a8;stroke-width:0.05px;"/>
                        <path d="M3.75,-9.2L3.8,-9.6L3.9,-9.9L3.7,-10.05L3.5,-10.05L3.3,-9.8L3.35,-9.3L3.6,-9C3.7,-8.967 3.75,-9.033 3.75,-9.2" style="fill:#36c2d1;"/>
                        <path d="M3.6,-9.65L3.6,-9.85L3.65,-10L3.6,-10.05L3.5,-10.05L3.4,-9.85L3.4,-9.7L3.5,-9.6C3.567,-9.567 3.6,-9.583 3.6,-9.65" style="fill:#c1ecf0;"/>
                        <path d="M7.45,-5L7.6,-4.95L7.7,-4.95L7.75,-5.15L7.7,-5.35L7.6,-5.5L7.45,-5.4L7.4,-5.2L7.45,-5" style="fill:#42a7b8;fill-opacity:0.67;"/>
                        <path d="M8,-4.65L8.05,-4.65L8.05,-4.75L8,-4.8L8,-4.75L7.95,-4.7L8,-4.65" style="fill:#42a7b8;fill-opacity:0.67;"/>
                        <path d="M7.05,-4.55L7.15,-4.55L7.15,-4.7L7.1,-4.75L7.05,-4.7L7.05,-4.55" style="fill:#42a7b8;fill-opacity:0.67;"/>
                        <path d="M5.6,2.2L5.5,2.05L5.4,2C5.333,2 5.283,2.033 5.25,2.1L5.25,2.3L5.3,2.5L5.45,2.5L5.55,2.4L5.6,2.2" style="fill:#42a7b8;fill-opacity:0.67;"/>
                        <path d="M4.4,0.8L4.45,0.8L4.35,0.75L4.35,0.85L4.4,0.9L4.4,0.8" style="fill:#42a7b8;fill-opacity:0.67;"/>
                        <path d="M5.3,1.4L5.25,1.3L5.2,1.3L5.2,1.35L5.15,1.4L5.25,1.5L5.3,1.45L5.3,1.4" style="fill:#42a7b8;fill-opacity:0.67;"/>
                        <path d="M5.05,1.85L5,1.75L4.95,1.75L4.95,1.8L4.9,1.85L5,1.95L5.05,1.9L5.05,1.85" style="fill:#42a7b8;fill-opacity:0.67;"/>
                        <path d="M18.65,2.35L18.8,2.4L18.9,2.4L18.95,2.2L18.9,2L18.8,1.85C18.733,1.85 18.683,1.883 18.65,1.95L18.6,2.15L18.65,2.35" style="fill:#42a7b8;fill-opacity:0.67;"/>
                        <path d="M19.2,2.7L19.25,2.7L19.25,2.6L19.2,2.55L19.2,2.6L19.15,2.65L19.2,2.7" style="fill:#42a7b8;fill-opacity:0.67;"/>
                        <path d="M18.25,2.75L18.35,2.75L18.35,2.6L18.3,2.55L18.25,2.6L18.25,2.75" style="fill:#42a7b8;fill-opacity:0.67;"/>
                    </g>
                </g>
            </g>
        </g>
    </g>
</svg>
