<?xml version="1.0" encoding="UTF-8" standalone="no"?>
<!DOCTYPE svg PUBLIC "-//W3C//DTD SVG 1.1//EN" "http://www.w3.org/Graphics/SVG/1.1/DTD/svg11.dtd">
<svg width="100%" height="100%" viewBox="0 0 15 30" version="1.1" xmlns="http://www.w3.org/2000/svg" xmlns:xlink="http://www.w3.org/1999/xlink" xml:space="preserve" xmlns:serif="http://www.serif.com/" style="fill-rule:evenodd;clip-rule:evenodd;stroke-linecap:round;stroke-linejoin:round;">
    <g id="sprite0" transform="matrix(1,0,0,1,0.5,0.5)">
        <g>
            <g id="shape0">
                <path d="M11.45,5.55C12.45,6.583 13.183,7.8 13.65,9.2C13.817,9.633 13.85,10.05 13.75,10.45C13.483,11.883 12.85,13.067 11.85,14L11.95,14L12.2,14.2C12.9,15.067 12.967,16.267 12.4,17.8L12.2,18.15C13.533,20.25 13.567,22.65 12.3,25.35C12.267,24.183 12.033,23.3 11.6,22.7C10.267,25.4 8.883,27.017 7.45,27.55L6.95,28.5C5.65,27.267 4.65,25.9 3.95,24.4L3.8,25.75C2.867,24.217 2.267,22.65 2,21.05L1.7,21.25L0,23.15C0.1,21.45 0.433,19.667 1,17.8L1.85,17.3L2.45,17.05L2.25,16.9C1.85,16.433 1.6,15.867 1.5,15.2C1.533,14.333 1.817,13.567 2.35,12.9L2.5,12.8L2.75,12.7L2.25,11.7L2.15,11.6C1.85,7.3 2.25,3.433 3.35,0C5.183,0.3 6.967,1.983 8.7,5.05L9.05,4.95C9.883,4.683 10.683,4.883 11.45,5.55" style="fill:rgb(40,10,2);"/>
                <path d="M11.45,5.55C10.683,4.883 9.883,4.683 9.05,4.95L8.7,5.05C6.967,1.983 5.183,0.3 3.35,0C2.25,3.433 1.85,7.3 2.15,11.6L2.25,11.7L2.75,12.7L2.5,12.8L2.35,12.9C1.817,13.567 1.533,14.333 1.5,15.2C1.6,15.867 1.85,16.433 2.25,16.9L2.45,17.05L1.85,17.3L1,17.8C0.433,19.667 0.1,21.45 0,23.15L1.7,21.25L2,21.05C2.267,22.65 2.867,24.217 3.8,25.75L3.95,24.4C4.65,25.9 5.65,27.267 6.95,28.5L7.45,27.55C8.883,27.017 10.267,25.4 11.6,22.7C12.033,23.3 12.267,24.183 12.3,25.35C13.567,22.65 13.533,20.25 12.2,18.15L12.4,17.8C12.967,16.267 12.9,15.067 12.2,14.2L11.95,14L11.85,14C12.85,13.067 13.483,11.883 13.75,10.45C13.85,10.05 13.817,9.633 13.65,9.2C13.183,7.8 12.45,6.583 11.45,5.55Z" style="fill:none;fill-rule:nonzero;stroke:rgb(40,10,2);stroke-width:1px;"/>
                <path d="M1.7,21.25L1.75,19.85C2.083,18.983 2.533,18.317 3.1,17.85L1.85,17.3L3.8,16.6L11.5,17.25C13.5,19.55 13.767,22.25 12.3,25.35C12.267,24.183 12.033,23.3 11.6,22.7C10.267,25.4 8.883,27.017 7.45,27.55L9.3,23.9L9.55,22.5L9.15,19L3.9,18.15L3.65,18C2.783,18.733 2.233,19.75 2,21.05L1.7,21.25" style="fill:rgb(23,114,141);"/>
                <path d="M1.85,17.3L3.1,17.85C2.533,18.317 2.083,18.983 1.75,19.85L1.7,21.25L0,23.15C0.1,21.45 0.433,19.667 1,17.8L1.85,17.3M2,21.05C2.233,19.75 2.783,18.733 3.65,18L3.9,18.15L9.15,19L9.55,22.5L9.3,23.9L7.45,27.55L6.95,28.5C5.65,27.267 4.65,25.9 3.95,24.4L3.75,23.7L3.95,24.4L3.8,25.75C2.867,24.217 2.267,22.65 2,21.05M5.85,20.8L4.15,19C4.317,21.267 5.067,23.267 6.4,25C6.467,23.1 6.917,21.25 7.75,19.45L5.85,20.8" style="fill:rgb(15,168,212);"/>
                <path d="M5.85,20.8L7.75,19.45C6.917,21.25 6.467,23.1 6.4,25C5.067,23.267 4.317,21.267 4.15,19L5.85,20.8" style="fill:rgb(18,203,254);"/>
                <path d="M1.7,21.25L2,21.05C2.233,19.75 2.783,18.733 3.65,18L3.9,18.15M9.3,23.9L7.45,27.55C8.883,27.017 10.267,25.4 11.6,22.7C12.033,23.3 12.267,24.183 12.3,25.35C13.767,22.25 13.5,19.55 11.5,17.25L3.8,16.6L1.85,17.3L1,17.8C0.433,19.667 0.1,21.45 0,23.15L1.7,21.25M3.95,24.4L3.75,23.7M3.95,24.4C4.65,25.9 5.65,27.267 6.95,28.5L7.45,27.55M2,21.05C2.267,22.65 2.867,24.217 3.8,25.75L3.95,24.4" style="fill:none;fill-rule:nonzero;stroke:black;stroke-opacity:0.3;stroke-width:0.05px;"/>
                <path d="M8.3,13.85C8.667,13.65 9,13.55 9.3,13.55C9,13.55 8.667,13.65 8.3,13.85M6.75,15.75L7,14.95C7.067,14.683 7.283,14.4 7.65,14.1L7.9,13.9L8,13.85C7.867,13.85 7.7,13.9 7.5,14L7.4,14.1C7.2,14.133 7.017,14.25 6.85,14.45C6.55,14.817 6.35,15.2 6.25,15.6C6.15,16.033 6.183,16.467 6.35,16.9L6.8,17.8L4.35,17.2L4.9,16.6C5.167,16.1 5.1,15.533 4.7,14.9C4.367,14.467 4.033,14.25 3.7,14.25L3.1,14.45L3.05,14.45L2.85,14.8L2.75,15.1L2.7,15.45C2.5,14.983 2.467,14.55 2.6,14.15L3.1,13.75L2.65,13.1L3.1,12.65L3.35,12.7L9.3,13.55L10.65,13.75L10.85,14.1L11.3,14.75L11.35,14.95C11.783,16.017 11.333,16.817 10,17.35C11.333,16.817 11.783,16.017 11.35,14.95L11.3,14.75L10.85,14.1L10.65,13.75L11.4,13.9L11.95,14L12.2,14.2C12.9,15.067 12.967,16.267 12.4,17.8C12.133,18.367 11.583,18.767 10.75,19C9.95,19.167 9.217,19.05 8.55,18.65L7.1,17.7L6.8,16.95C7.567,17.417 8.283,17.617 8.95,17.55C8.217,16.983 8.117,16.5 8.65,16.1C8.85,17.067 9.3,17.483 10,17.35C10.133,16.783 10.117,16.25 9.95,15.75L9.7,15.85L6.75,15.75" style="fill:rgb(201,128,47);"/>
                <path d="M8,13.85L7.9,13.9L7.65,14.1C7.283,14.4 7.067,14.683 7,14.95L6.75,15.75C6.683,16.15 6.7,16.55 6.8,16.95L7.1,17.7L8.55,18.65L7.5,18.35L6.8,17.8L6.35,16.9C6.183,16.467 6.15,16.033 6.25,15.6C6.35,15.2 6.55,14.817 6.85,14.45C7.017,14.25 7.2,14.133 7.4,14.1L7.5,14C7.7,13.9 7.867,13.85 8,13.85M3.1,14.45L3.7,14.25C4.033,14.25 4.367,14.467 4.7,14.9C5.1,15.533 5.167,16.1 4.9,16.6L4.35,17.2L3.1,17.45L3.55,17.25C4.45,16.75 4.45,15.9 3.55,14.7L3.2,14.5L3.1,14.5L3.1,14.45" style="fill:rgb(171,81,32);"/>
                <path d="M6.75,15.75L9.7,15.85L9.95,15.75C10.117,16.25 10.133,16.783 10,17.35C9.3,17.483 8.85,17.067 8.65,16.1C8.117,16.5 8.217,16.983 8.95,17.55C8.283,17.617 7.567,17.417 6.8,16.95C6.7,16.55 6.683,16.15 6.75,15.75M2.65,13.1L3.1,13.75L2.6,14.15C2.467,14.55 2.5,14.983 2.7,15.45L2.75,15.1L2.85,14.8L3.05,14.45L3.1,14.45L3.1,14.5L3.2,14.5L3.55,14.7C4.45,15.9 4.45,16.75 3.55,17.25L3.1,17.45L3.05,17.4L2.75,17.35C2.583,17.15 2.417,17 2.25,16.9C1.917,15.7 1.85,14.867 2.05,14.4C2.183,13.867 2.383,13.433 2.65,13.1M2.7,15.45C2.7,15.75 2.817,15.95 3.05,16.05C2.817,15.95 2.7,15.75 2.7,15.45" style="fill:rgb(238,179,42);"/>
                <path d="M3.1,12.65L2.65,13.1C2.383,13.433 2.183,13.867 2.05,14.4C1.85,14.867 1.917,15.7 2.25,16.9C1.85,16.433 1.6,15.867 1.5,15.2C1.533,14.333 1.817,13.567 2.35,12.9L2.5,12.8L3.1,12.65" style="fill:rgb(245,218,108);"/>
                <path d="M9.3,13.55C9,13.55 8.667,13.65 8.3,13.85M10,17.35C11.333,16.817 11.783,16.017 11.35,14.95L11.3,14.75L10.85,14.1L10.65,13.75L9.3,13.55L3.35,12.7L3.1,12.65L2.5,12.8L2.35,12.9C1.817,13.567 1.533,14.333 1.5,15.2C1.6,15.867 1.85,16.433 2.25,16.9C2.417,17 2.583,17.15 2.75,17.35L3.05,17.4L3.1,17.45L4.35,17.2L6.8,17.8L6.35,16.9C6.183,16.467 6.15,16.033 6.25,15.6C6.35,15.2 6.55,14.817 6.85,14.45C7.017,14.25 7.2,14.133 7.4,14.1L7.5,14C7.7,13.9 7.867,13.85 8,13.85M2.7,15.45L2.75,15.1L2.85,14.8L3.05,14.45L3.1,14.45L3.7,14.25C4.033,14.25 4.367,14.467 4.7,14.9C5.1,15.533 5.167,16.1 4.9,16.6L4.35,17.2M6.8,17.8L7.5,18.35L8.55,18.65C9.217,19.05 9.95,19.167 10.75,19C11.583,18.767 12.133,18.367 12.4,17.8C12.967,16.267 12.9,15.067 12.2,14.2L11.95,14M8.65,16.1C8.85,17.067 9.3,17.483 10,17.35M3.05,16.05C2.817,15.95 2.7,15.75 2.7,15.45M11.4,13.9L10.65,13.75" style="fill:none;fill-rule:nonzero;stroke:black;stroke-opacity:0.3;stroke-width:0.05px;"/>
                <path d="M11.45,5.55C12.45,6.583 13.183,7.8 13.65,9.2C13.817,9.633 13.85,10.05 13.75,10.45C13.35,12.717 12,14.333 9.7,15.3L10.2,14.6L10.35,14.05L10.45,13.1L10.35,12.15L10.2,11.95C10.033,11.083 9.65,10.183 9.05,9.25L8.45,8.3L8.3,8.2L8.05,7.85L11.45,5.55M3.35,0C5.183,0.3 6.967,1.983 8.7,5.05L7.85,5.5L6.45,6.35L5.95,6.7C5.85,4.467 5.05,2.367 3.55,0.4L3.35,0" style="fill:rgb(245,218,108);"/>
                <path d="M8.05,7.85L8.3,8.2L8.45,8.3L9.05,9.25C9.65,10.183 10.033,11.083 10.2,11.95L10.35,12.15L10.45,13.1C9.017,14.267 7.517,14.533 5.95,13.9L4.55,13.3L3.8,12.3L5.3,13.3C6.967,14.1 8.133,13.25 8.8,10.75C8.4,9.683 7.867,8.833 7.2,8.2L7.45,10.65C7.583,11.25 7.383,11.683 6.85,11.95L6.2,12C4.833,11.267 4.283,10.017 4.55,8.25C4.65,5.317 4.317,2.7 3.55,0.4C5.05,2.367 5.85,4.467 5.95,6.7L6,6.7C6.5,6.633 6.983,6.783 7.45,7.15L7.55,7.3L8.05,7.85M4.55,8.25C4.85,7.45 5.317,6.933 5.95,6.7C5.317,6.933 4.85,7.45 4.55,8.25" style="fill:rgb(238,179,42);"/>
                <path d="M11.45,5.55L8.05,7.85L7.55,7.3L7.45,7.15C6.983,6.783 6.5,6.633 6,6.7L5.95,6.7L6.45,6.35L7.85,5.5L8.7,5.05L9.05,4.95C9.883,4.683 10.683,4.883 11.45,5.55" style="fill:rgb(245,228,159);"/>
                <path d="M10.45,13.1L10.35,14.05L10.2,14.6L9.7,15.3C7.667,15.6 5.733,15.117 3.9,13.85C3.1,13.317 2.55,12.6 2.25,11.7L2.15,11.6C1.85,7.3 2.25,3.433 3.35,0L3.55,0.4C4.317,2.7 4.65,5.317 4.55,8.25C4.283,10.017 4.833,11.267 6.2,12L6.85,11.95C7.383,11.683 7.583,11.25 7.45,10.65L7.2,8.2C7.867,8.833 8.4,9.683 8.8,10.75C8.133,13.25 6.967,14.1 5.3,13.3L3.8,12.3L4.55,13.3L5.95,13.9C7.517,14.533 9.017,14.267 10.45,13.1" style="fill:rgb(201,128,47);"/>
                <path d="M9.7,15.3C12,14.333 13.35,12.717 13.75,10.45C13.85,10.05 13.817,9.633 13.65,9.2C13.183,7.8 12.45,6.583 11.45,5.55C10.683,4.883 9.883,4.683 9.05,4.95L8.7,5.05L7.85,5.5L6.45,6.35L5.95,6.7L6,6.7M9.7,15.3C7.667,15.6 5.733,15.117 3.9,13.85C3.1,13.317 2.55,12.6 2.25,11.7L2.15,11.6C1.85,7.3 2.25,3.433 3.35,0C5.183,0.3 6.967,1.983 8.7,5.05M5.95,6.7C5.317,6.933 4.85,7.45 4.55,8.25C4.283,10.017 4.833,11.267 6.2,12L6.85,11.95C7.383,11.683 7.583,11.25 7.45,10.65" style="fill:none;fill-rule:nonzero;stroke:black;stroke-opacity:0.3;stroke-width:0.05px;"/>
            </g>
        </g>
    </g>
</svg>
