<?xml version="1.0" encoding="UTF-8" standalone="no"?>
<!DOCTYPE svg PUBLIC "-//W3C//DTD SVG 1.1//EN" "http://www.w3.org/Graphics/SVG/1.1/DTD/svg11.dtd">
<svg width="100%" height="100%" viewBox="0 0 20 29" version="1.1" xmlns="http://www.w3.org/2000/svg" xmlns:xlink="http://www.w3.org/1999/xlink" xml:space="preserve" xmlns:serif="http://www.serif.com/" style="fill-rule:evenodd;clip-rule:evenodd;stroke-linecap:round;stroke-linejoin:round;">
    <g transform="matrix(1,0,0,1,0.0388889,-0.3)">
        <g id="sprite0" transform="matrix(1,0,0,1,0.45,0.8)">
            <g>
                <g id="shape0">
                    <path d="M14.15,4L16.35,4L15.1,5.35L16.7,5.8L15.5,6.65C16.533,7.45 17.017,8.617 16.95,10.15L16.75,10.05C17.55,11.75 18.133,13.633 18.5,15.7L18.6,16.2C19.133,18.9 18.583,21.35 16.95,23.55L14.75,25.15L14.15,25.65C12.85,26.617 11.433,27.117 9.9,27.15L9.45,27.15L6.15,26.3L6.1,26.3L5.35,25.85L4.95,25.55L2.35,22.7L2.1,22.35L2.05,22.25L1.3,20.95L0.55,19.1L0.2,17.6L0.2,17.45L0.15,17.25C-0.017,16.15 -0.033,14.967 0.1,13.7L0.25,12.8L0.55,11.7C0.917,10.5 1.45,9.417 2.15,8.45C2.717,7.65 3.317,7.017 3.95,6.55L2.3,6.5L1.55,6.55L2.3,5.6C2.933,4.933 3.65,4.467 4.45,4.2L3.95,3.65L5.2,3.5C5.033,2.8 4.633,2.067 4,1.3C5,1.133 6,1.3 7,1.8L7.3,1.15L7.35,1.4C7.683,0.867 8.117,0.417 8.65,0.05L9.25,1.25C9.583,0.783 10.033,0.367 10.6,0L11.45,1.5L12.25,0.3C13.05,1.033 13.517,1.95 13.65,3.05L13.95,2.3L14.15,4" style="fill:rgb(40,10,2);"/>
                    <path d="M14.15,4L16.35,4L15.1,5.35L16.7,5.8L15.5,6.65C16.533,7.45 17.017,8.617 16.95,10.15L16.75,10.05C17.55,11.75 18.133,13.633 18.5,15.7L18.6,16.2C19.133,18.9 18.583,21.35 16.95,23.55L14.75,25.15L14.15,25.65C12.85,26.617 11.433,27.117 9.9,27.15L9.45,27.15L6.15,26.3L6.1,26.3L5.35,25.85L4.95,25.55L2.35,22.7L2.1,22.35L2.05,22.25L1.3,20.95L0.55,19.1L0.2,17.6L0.2,17.45L0.15,17.25C-0.017,16.15 -0.033,14.967 0.1,13.7L0.25,12.8L0.55,11.7C0.917,10.5 1.45,9.417 2.15,8.45C2.717,7.65 3.317,7.017 3.95,6.55L2.3,6.5L1.55,6.55L2.3,5.6C2.933,4.933 3.65,4.467 4.45,4.2L3.95,3.65L5.2,3.5C5.033,2.8 4.633,2.067 4,1.3C5,1.133 6,1.3 7,1.8L7.3,1.15L7.35,1.4C7.683,0.867 8.117,0.417 8.65,0.05L9.25,1.25C9.583,0.783 10.033,0.367 10.6,0L11.45,1.5L12.25,0.3C13.05,1.033 13.517,1.95 13.65,3.05L13.95,2.3L14.15,4Z" style="fill:none;fill-rule:nonzero;stroke:rgb(40,10,2);stroke-width:1px;"/>
                    <path d="M6.45,4.75L6.55,4.7C7.483,4.1 8.517,3.817 9.65,3.85C11.783,3.917 13.65,5.117 15.25,7.45C16.883,9.817 17.967,12.567 18.5,15.7L18.6,16.2C19.167,18.867 18.617,21.317 16.95,23.55L14.75,25.15L14.15,25.65C12.85,26.617 11.433,27.117 9.9,27.15L9.45,27.15C6.683,27.083 4.317,25.6 2.35,22.7L1.35,20.95L0.6,19.1C0.067,17.467 -0.083,15.667 0.15,13.7L0.3,12.8L0.6,11.7C0.967,10.5 1.483,9.417 2.15,8.45C2.817,7.517 3.55,6.783 4.35,6.25L6,5.1L6.45,4.75" style="fill:rgb(245,130,120);fill-opacity:0.85;"/>
                    <path d="M7.05,16.45L7.05,16.65L7.25,17.2C7.383,17.4 7.55,17.5 7.75,17.5L8.2,17.2L8.25,17.2L8.4,16.45L8.2,15.75C8.1,15.517 7.95,15.4 7.75,15.4L7.25,15.75L7.05,16.45M9.3,18.5C9.3,19.6 9.05,20.533 8.55,21.3L8.2,21.75C9.7,22.917 11.35,23.067 13.15,22.2C14.583,21.5 15.767,20.467 16.7,19.1L16.7,20.8C16.733,21.167 16.633,21.567 16.4,22C16,23.967 15.5,24.967 14.9,25L14.75,25.15L14.15,25.65C12.85,26.617 11.433,27.117 9.9,27.15L9.45,27.15C7.983,27.117 6.633,26.683 5.4,25.85C4.3,25.083 3.283,24.033 2.35,22.7L2.1,22.35L1.35,20.95L0.6,19.1L0.2,17.6L0.15,17.15L0.15,17.1C1.483,18.9 2.85,19.95 4.25,20.25L4.15,18.5C4.15,17.4 4.4,16.45 4.9,15.65C5.4,14.883 6.017,14.5 6.75,14.5C7.45,14.5 8.05,14.883 8.55,15.65C9.05,16.45 9.3,17.4 9.3,18.5M12.65,15.05L12.3,14.8L11.95,15.05L11.85,15.55L11.85,15.65L11.95,16.05L12.3,16.3L12.65,16.05L12.75,15.55L12.65,15.05M8.15,18.4L7.9,18.15L7.55,18.4C7.45,18.5 7.4,18.65 7.4,18.85L7.4,18.95L7.55,19.3L7.9,19.5L8.15,19.3L8.3,18.85L8.15,18.4M11.6,14.15C12.1,14.15 12.517,14.417 12.85,14.95C13.217,15.517 13.4,16.183 13.4,16.95C13.4,17.717 13.217,18.367 12.85,18.9C12.517,19.467 12.1,19.75 11.6,19.75C11.1,19.75 10.667,19.467 10.3,18.9C9.967,18.367 9.8,17.717 9.8,16.95C9.8,16.183 9.967,15.517 10.3,14.95C10.667,14.417 11.1,14.15 11.6,14.15M12.6,16.9L12.4,16.75L12.2,16.9L12.05,17.2L12.05,17.25L12.2,17.55L12.4,17.7L12.6,17.55L12.7,17.2L12.6,16.9" style="fill:url(#_Radial1);"/>
                    <path d="M4.35,6.25L5.2,5.8C5.967,5.467 6.767,5.317 7.6,5.35C9.7,5.383 11.567,6.583 13.2,8.95L14.3,10.75L15.2,12.8C15.733,14.167 16.15,15.617 16.45,17.15L16.55,17.7L16.55,17.9L16.6,18.05L16.6,18.2L16.65,18.25L16.65,18.6L16.75,19.4L16.75,20.1L16.7,20.4L16.7,20.6L16.65,20.75L16.65,20.8L16.45,21.95L15.3,24.4L15,24.85L14.95,24.95L14.75,25.15L14.15,25.65C12.85,26.617 11.433,27.117 9.9,27.15L9.45,27.15C6.683,27.083 4.317,25.6 2.35,22.7L2.1,22.35L1.35,20.95L0.6,19.1C0.067,17.467 -0.083,15.667 0.15,13.7L0.3,12.8L0.6,11.7C0.967,10.5 1.483,9.417 2.15,8.45C2.817,7.517 3.55,6.783 4.35,6.25M11.95,10.75L11.65,10.35L10,10.75C8.733,11.183 7.5,11.75 6.3,12.45L5.3,8.75C4.867,9.083 4.483,9.5 4.15,10L3.7,10.75C3.433,11.217 3.217,11.7 3.05,12.2L2.85,13L2.75,13.6C2.617,14.933 2.717,16.167 3.05,17.3L3.6,18.55L4.25,19.7L5.2,20.9C6.733,22.133 8.067,22.75 9.2,22.75L9.45,22.75C10.483,22.717 11.433,22.383 12.3,21.75L12.75,21.4L12.8,21.3L12.9,21.2C13.933,19.733 14.283,18.1 13.95,16.3L13.9,15.95C13.533,14.017 12.883,12.283 11.95,10.75" style="fill:url(#_Radial2);"/>
                    <path d="M14.75,25.15L14.95,24.95L15,24.85L15.3,24.4L16.45,21.95L16.65,20.8L16.65,20.75L16.7,20.6L16.7,20.4L16.75,20.1L16.75,19.4L16.65,18.6L16.65,18.25L16.6,18.2L16.6,18.05L16.55,17.9L16.55,17.7L16.45,17.15C16.15,15.617 15.733,14.167 15.2,12.8L14.3,10.75L13.2,8.95C11.567,6.583 9.7,5.383 7.6,5.35C6.767,5.317 5.967,5.467 5.2,5.8L4.35,6.25L6,5.1L6.45,4.75L6.55,4.7C7.483,4.1 8.517,3.817 9.65,3.85C11.783,3.917 13.65,5.117 15.25,7.45C16.883,9.817 17.967,12.567 18.5,15.7L18.6,16.2C19.167,18.867 18.617,21.317 16.95,23.55L14.75,25.15" style="fill:rgb(188,67,57);"/>
                    <path d="M14.75,25.15L16.95,23.55C18.617,21.317 19.167,18.867 18.6,16.2L18.5,15.7C17.967,12.567 16.883,9.817 15.25,7.45C13.65,5.117 11.783,3.917 9.65,3.85C8.517,3.817 7.483,4.1 6.55,4.7L6.45,4.75L6,5.1L4.35,6.25C3.55,6.783 2.817,7.517 2.15,8.45C1.483,9.417 0.967,10.5 0.6,11.7L0.3,12.8L0.15,13.7C-0.083,15.667 0.067,17.467 0.6,19.1L1.35,20.95L2.1,22.35L2.35,22.7C4.317,25.6 6.683,27.083 9.45,27.15L9.9,27.15C11.433,27.117 12.85,26.617 14.15,25.65L14.75,25.15Z" style="fill:none;fill-rule:nonzero;stroke:black;stroke-opacity:0.3;stroke-width:0.05px;"/>
                    <path d="M4.75,7L6.1,11.5C4.433,12.5 3.367,13.933 2.9,15.8L1.85,15.8C1.683,14.3 1.95,12.683 2.65,10.95C3.117,9.683 3.817,8.367 4.75,7M2.75,18.15C3.083,18.25 3.367,18.483 3.6,18.85C3.833,19.183 3.95,19.567 3.95,20C3.95,20.4 3.833,20.717 3.6,20.95L2.75,21.15L2.65,21.15C2.35,21.05 2.1,20.833 1.9,20.5C1.667,20.167 1.55,19.783 1.55,19.35C1.55,18.95 1.667,18.633 1.9,18.4C2.1,18.2 2.35,18.117 2.65,18.15L2.75,18.15" style="fill:rgb(255,249,242);fill-opacity:0.55;"/>
                    <path d="M13.5,7.3C13.667,6.667 14.083,6.267 14.75,6.1C16.317,6.933 17.05,8.283 16.95,10.15C15.35,9.217 13.267,8.9 10.7,9.2C11.3,8.2 12.233,7.567 13.5,7.3C14.533,7.4 15.333,7.9 15.9,8.8C15.333,7.9 14.533,7.4 13.5,7.3M14.75,5.7C13.683,5.233 13.3,4.667 13.6,4L16.4,4L14.75,5.7M1.6,6.55L2.3,5.6C3.167,4.7 4.15,4.15 5.25,3.95C5.183,3.117 4.767,2.233 4,1.3C5.467,1.067 6.933,1.517 8.4,2.65C7,3.017 6.1,3.783 5.7,4.95L6.35,7.2C5.35,6.633 4,6.4 2.3,6.5L1.6,6.55" style="fill:rgb(139,115,0);"/>
                    <path d="M13.5,7.3C12.233,7.567 11.3,8.2 10.7,9.2C13.267,8.9 15.35,9.217 16.95,10.15C17.05,8.283 16.317,6.933 14.75,6.1C14.083,6.267 13.667,6.667 13.5,7.3C14.533,7.4 15.333,7.9 15.9,8.8M14.75,5.7C13.683,5.233 13.3,4.667 13.6,4L16.4,4L14.75,5.7M1.6,6.55L2.3,6.5C4,6.4 5.35,6.633 6.35,7.2L5.7,4.95C6.1,3.783 7,3.017 8.4,2.65C6.933,1.517 5.467,1.067 4,1.3C4.767,2.233 5.183,3.117 5.25,3.95C4.15,4.15 3.167,4.7 2.3,5.6L1.6,6.55Z" style="fill:none;fill-rule:nonzero;stroke:black;stroke-opacity:0.3;stroke-width:0.05px;"/>
                    <path d="M12.45,3.9L8.4,2.65C8.8,1.617 9.533,0.733 10.6,0C11.433,1.233 12.05,2.533 12.45,3.9" style="fill:rgb(115,79,0);"/>
                    <path d="M12.45,3.9L8.4,2.65C8.8,1.617 9.533,0.733 10.6,0C11.433,1.233 12.05,2.533 12.45,3.9Z" style="fill:none;fill-rule:nonzero;stroke:black;stroke-opacity:0.3;stroke-width:0.05px;"/>
                    <path d="M12.65,4.5L10.7,2.6L12.25,0.3C12.983,2 13.117,3.4 12.65,4.5" style="fill:rgb(180,153,125);"/>
                    <path d="M12.25,0.3C13.217,1.2 13.7,2.333 13.7,3.7L12.65,4.5C13.117,3.4 12.983,2 12.25,0.3" style="fill:rgb(255,241,200);"/>
                    <path d="M12.25,0.3C13.217,1.2 13.7,2.333 13.7,3.7L12.65,4.5L10.7,2.6L12.25,0.3Z" style="fill:none;fill-rule:nonzero;stroke:black;stroke-opacity:0.3;stroke-width:0.05px;"/>
                    <path d="M7.6,4.1C7.333,2.9 7.7,1.55 8.7,0.05L9.85,2.5L7.6,4.1" style="fill:rgb(180,153,125);"/>
                    <path d="M7.6,4.1L6.7,3.15C6.933,1.783 7.6,0.75 8.7,0.05C7.7,1.55 7.333,2.9 7.6,4.1" style="fill:rgb(255,241,200);"/>
                    <path d="M8.7,0.05C7.6,0.75 6.933,1.783 6.7,3.15L7.6,4.1L9.85,2.5L8.7,0.05Z" style="fill:none;fill-rule:nonzero;stroke:black;stroke-opacity:0.3;stroke-width:0.05px;"/>
                    <path d="M7.2,3.95C7.3,3.383 7.567,2.867 8,2.4C8.567,1.833 9.233,1.55 10,1.55L10.2,1.55C10.967,1.55 11.633,1.833 12.2,2.4C12.633,2.867 12.917,3.383 13.05,3.95L12.2,5.45C11.633,6.05 10.933,6.35 10.1,6.35C9.267,6.35 8.567,6.05 8,5.45C7.567,5.017 7.3,4.517 7.2,3.95M12.05,3.15C12.05,2.783 11.85,2.483 11.45,2.25C11.117,1.983 10.7,1.85 10.2,1.85C9.533,1.85 9.017,1.983 8.65,2.25C8.283,2.483 8.1,2.783 8.1,3.15C8.1,3.483 8.283,3.783 8.65,4.05C9.05,4.317 9.533,4.45 10.1,4.45C10.633,4.45 11.083,4.317 11.45,4.05C11.85,3.783 12.05,3.483 12.05,3.15" style="fill:rgb(255,226,24);"/>
                    <path d="M12.05,3.15C12.05,3.483 11.85,3.783 11.45,4.05C11.083,4.317 10.633,4.45 10.1,4.45C9.533,4.45 9.05,4.317 8.65,4.05C8.283,3.783 8.1,3.483 8.1,3.15C8.1,2.783 8.283,2.483 8.65,2.25C9.017,1.983 9.533,1.85 10.2,1.85C10.7,1.85 11.117,1.983 11.45,2.25C11.85,2.483 12.05,2.783 12.05,3.15" style="fill:rgb(255,237,116);"/>
                    <path d="M13.05,3.95L13.1,4.5C13.1,5.333 12.8,6.033 12.2,6.6C11.633,7.2 10.933,7.5 10.1,7.5C9.267,7.5 8.567,7.2 8,6.6C7.4,6.033 7.1,5.333 7.1,4.5L7.2,3.95C7.3,4.517 7.567,5.017 8,5.45C8.567,6.05 9.267,6.35 10.1,6.35C10.933,6.35 11.633,6.05 12.2,5.45L13.05,3.95" style="fill:rgb(204,167,27);"/>
                    <path d="M13.05,3.95L13.1,4.5C13.1,5.333 12.8,6.033 12.2,6.6C11.633,7.2 10.933,7.5 10.1,7.5C9.267,7.5 8.567,7.2 8,6.6C7.4,6.033 7.1,5.333 7.1,4.5L7.2,3.95C7.3,3.383 7.567,2.867 8,2.4C8.567,1.833 9.233,1.55 10,1.55L10.2,1.55C10.967,1.55 11.633,1.833 12.2,2.4C12.633,2.867 12.917,3.383 13.05,3.95Z" style="fill:none;fill-rule:nonzero;stroke:black;stroke-opacity:0.3;stroke-width:0.05px;"/>
                    <path d="M6.6,3.35L6.5,5.6L6,5.95L3.95,3.65L6.6,3.35M16.75,5.8L13.6,7.9L13.4,7.3L13.7,4.9L16.75,5.8" style="fill:rgb(115,79,0);"/>
                    <path d="M6.6,3.35L6.5,5.6L6,5.95L3.95,3.65L6.6,3.35M16.75,5.8L13.6,7.9L13.4,7.3L13.7,4.9L16.75,5.8Z" style="fill:none;fill-rule:nonzero;stroke:black;stroke-opacity:0.3;stroke-width:0.05px;"/>
                    <path d="M6.5,11.25L5.6,6.75C6.767,6.817 7.617,7.233 8.15,8C9.883,7.733 10.967,8.083 11.4,9.05C10.4,9.083 8.767,9.817 6.5,11.25M8.15,8C7.85,8.1 7.55,8.517 7.25,9.25C7.55,8.517 7.85,8.1 8.15,8" style="fill:rgb(139,115,0);"/>
                    <path d="M6.5,11.25L5.6,6.75C6.767,6.817 7.617,7.233 8.15,8C9.883,7.733 10.967,8.083 11.4,9.05C10.4,9.083 8.767,9.817 6.5,11.25M7.25,9.25C7.55,8.517 7.85,8.1 8.15,8" style="fill:none;fill-rule:nonzero;stroke:black;stroke-opacity:0.3;stroke-width:0.05px;"/>
                    <path d="M13.95,2.3C14.25,3.5 14.25,4.683 13.95,5.85L13.3,7.5L12.25,7.3C13.25,6.167 13.817,4.5 13.95,2.3M11.95,6.6L12.25,7.3C10.45,9.033 8.917,8.7 7.65,6.3L6.6,6.25C6.167,4.35 6.417,2.65 7.35,1.15C6.95,3.183 7.05,4.9 7.65,6.3L8.15,5.8L10.45,3.2L11.95,6.6" style="fill:rgb(255,241,200);"/>
                    <path d="M13.95,2.3C13.817,4.5 13.25,6.167 12.25,7.3L11.95,6.6L12.65,4.5C13.117,4.133 13.55,3.4 13.95,2.3M8.15,5.8L7.65,6.3C7.05,4.9 6.95,3.183 7.35,1.15C7.45,2.283 7.667,3.083 8,3.55L8.15,5.8" style="fill:rgb(180,153,125);"/>
                    <path d="M12.25,7.3L13.3,7.5L13.95,5.85C14.25,4.683 14.25,3.5 13.95,2.3C13.55,3.4 13.117,4.133 12.65,4.5L11.95,6.6L10.45,3.2L8.15,5.8L7.65,6.3C8.917,8.7 10.45,9.033 12.25,7.3L11.95,6.6M7.35,1.15C7.45,2.283 7.667,3.083 8,3.55L8.15,5.8M7.65,6.3L6.6,6.25C6.167,4.35 6.417,2.65 7.35,1.15" style="fill:none;fill-rule:nonzero;stroke:black;stroke-opacity:0.3;stroke-width:0.05px;"/>
                    <path d="M6.5,5.6C6.733,5.467 6.95,5.383 7.15,5.35C7.383,6.217 8.233,7.2 9.7,8.3C11.167,7.833 12.183,7.1 12.75,6.1L13.4,7.3L13.6,7.9C12.5,8.633 11.333,8.85 10.1,8.55L7.65,7.7C6.883,7.367 6.233,6.883 5.7,6.25L6,5.95L6.5,5.6" style="fill:rgb(115,79,0);"/>
                    <path d="M6.5,5.6C6.733,5.467 6.95,5.383 7.15,5.35C7.383,6.217 8.233,7.2 9.7,8.3C11.167,7.833 12.183,7.1 12.75,6.1L13.4,7.3M13.6,7.9C12.5,8.633 11.333,8.85 10.1,8.55L7.65,7.7C6.883,7.367 6.233,6.883 5.7,6.25L6,5.95" style="fill:none;fill-rule:nonzero;stroke:black;stroke-opacity:0.3;stroke-width:0.05px;"/>
                </g>
            </g>
        </g>
    </g>
    <defs>
        <radialGradient id="_Radial1" cx="0" cy="0" r="1" gradientUnits="userSpaceOnUse" gradientTransform="matrix(9.33888,0,0,10.4858,9.25,14.7)"><stop offset="0" style="stop-color:rgb(225,74,70);stop-opacity:0"/><stop offset="0.62" style="stop-color:rgb(227,71,67);stop-opacity:0.45"/><stop offset="1" style="stop-color:rgb(227,71,67);stop-opacity:0.45"/></radialGradient>
        <radialGradient id="_Radial2" cx="0" cy="0" r="1" gradientUnits="userSpaceOnUse" gradientTransform="matrix(11.4688,-1.88416,2.53952,15.2371,7.95,16.35)"><stop offset="0" style="stop-color:rgb(188,67,59);stop-opacity:0"/><stop offset="0.25" style="stop-color:rgb(188,67,59);stop-opacity:0"/><stop offset="0.62" style="stop-color:rgb(189,69,61);stop-opacity:0.55"/><stop offset="1" style="stop-color:rgb(189,69,61);stop-opacity:0.55"/></radialGradient>
    </defs>
</svg>
