<?xml version="1.0" encoding="UTF-8" standalone="no"?>
<!DOCTYPE svg PUBLIC "-//W3C//DTD SVG 1.1//EN" "http://www.w3.org/Graphics/SVG/1.1/DTD/svg11.dtd">
<svg width="100%" height="100%" viewBox="0 0 28 51" version="1.1" xmlns="http://www.w3.org/2000/svg" xmlns:xlink="http://www.w3.org/1999/xlink" xml:space="preserve" xmlns:serif="http://www.serif.com/" style="fill-rule:evenodd;clip-rule:evenodd;stroke-linecap:round;stroke-linejoin:round;">
    <g transform="matrix(1,0,0,1,0.0180556,0)">
        <g transform="matrix(1,0,0,1,13.75,25.05)">
            <g id="sprite0">
                <g id="shape0">
                    <path d="M0.35,-11.4L-1.45,-11.65L-0.9,-10.05L-0.7,-10.2L-0.5,-10.45L0.35,-11.4M8.45,-23.95L8.45,-24L8.5,-24.1L8.5,-24.15L8.55,-24.2L8.55,-24.3L8.65,-24.55L8.3,-23.5L8.3,-23.4L8.1,-22.45L8.05,-21.85L8.25,-21.1L8.45,-20.55L8.8,-20.35C8.067,-20.283 7.533,-19.867 7.2,-19.1L6.3,-17.15L6.4,-17.15L7,-16.45L7.15,-15.65L7.1,-15.4L7.1,-15.25L7,-14.9L6.95,-14.75C7.283,-14.85 7.617,-15.017 7.95,-15.25L8.6,-15.8L8.9,-16.15L8.75,-15.75L8.3,-14.65L7.85,-13.8L7.4,-13.05L7.4,-13L8.6,-12.05L13.3,-12.05L11.5,-10.85L6.6,-10.9L6.35,-10L6.25,-9.75C6.217,-9.35 6.233,-8.983 6.3,-8.65C4.333,-6.217 3.717,-4.117 4.45,-2.35L2.4,-0.2L2.7,0.55C3.067,0.75 3.317,1.067 3.45,1.5L3.2,1.85L3.2,2.05L4.45,5.45C5.483,6.383 6.683,7.15 8.05,7.75L6.1,7.85L6.75,9.3L5.75,9L6.6,11.4C5.867,10.667 5.1,10.167 4.3,9.9L5.2,11.7C6.4,14.433 7.367,17.35 8.1,20.45C7.5,19.75 6.8,19.25 6,18.95C6.633,20.25 7,21.783 7.1,23.55C6.667,22.683 6.167,22.133 5.6,21.9C5.833,23.233 5.867,24.133 5.7,24.6C4.3,24.633 2.767,23.283 1.1,20.55L1,22.65C0.133,21.883 -0.7,20.767 -1.5,19.3L-2,18.2L-3.75,13.6L-4.7,16.7L-4.85,14.3L-12.1,21.7C-13.067,20.1 -13.433,17.9 -13.2,15.1C-13.067,13.333 -12.683,11.333 -12.05,9.1L-11.05,8.7C-7.083,6.8 -5.183,2.867 -5.35,-3.1L-5.1,-3.3C-5.667,-4.667 -6,-6.25 -6.1,-8.05C-5.867,-8.983 -5.567,-9.417 -5.2,-9.35C-5.1,-9.883 -4.867,-10.25 -4.5,-10.45L-4.35,-9.65L-4.15,-12.1C-3.183,-10.333 -2.433,-10.217 -1.9,-11.75L-4.7,-12.2L-5.45,-13.6L-1.1,-12.85L0.8,-13.55L1.4,-15.65L1.65,-16.2L1.9,-16.7C1.9,-16.233 2,-15.85 2.2,-15.55L2.5,-15.2L2.6,-15.15L3.9,-16.7L5.1,-17.3L5.15,-17.3L6.05,-19.2L6.2,-19.7L6.2,-19.95L5.7,-20.55L5.45,-20.6L5.6,-20.65L6,-20.8L6.05,-20.8L6.15,-20.85L6.4,-20.95L6.9,-21.4L6.95,-21.5L7.4,-22.05L7.6,-22.4L7.8,-22.7L8.4,-23.9L8.45,-23.95" style="fill:#280a02;"/>
                    <path d="M8.45,-23.95L8.4,-23.9L7.8,-22.7L7.6,-22.4L7.4,-22.05L6.95,-21.5L6.9,-21.4L6.4,-20.95L6.15,-20.85L6.05,-20.8L6,-20.8L5.6,-20.65L5.45,-20.6L5.7,-20.55L6.2,-19.95L6.2,-19.7L6.05,-19.2L5.15,-17.3L5.1,-17.3L3.9,-16.7L2.6,-15.15L2.5,-15.2L2.2,-15.55C2,-15.85 1.9,-16.233 1.9,-16.7L1.65,-16.2L1.4,-15.65L0.8,-13.55L-1.1,-12.85L-5.45,-13.6L-4.7,-12.2L-1.9,-11.75C-2.433,-10.217 -3.183,-10.333 -4.15,-12.1L-4.35,-9.65L-4.5,-10.45C-4.867,-10.25 -5.1,-9.883 -5.2,-9.35C-5.567,-9.417 -5.867,-8.983 -6.1,-8.05C-6,-6.25 -5.667,-4.667 -5.1,-3.3L-5.35,-3.1C-5.183,2.867 -7.083,6.8 -11.05,8.7L-12.05,9.1C-12.683,11.333 -13.067,13.333 -13.2,15.1C-13.433,17.9 -13.067,20.1 -12.1,21.7L-4.85,14.3L-4.7,16.7L-3.75,13.6L-2,18.2L-1.5,19.3C-0.7,20.767 0.133,21.883 1,22.65L1.1,20.55C2.767,23.283 4.3,24.633 5.7,24.6C5.867,24.133 5.833,23.233 5.6,21.9C6.167,22.133 6.667,22.683 7.1,23.55C7,21.783 6.633,20.25 6,18.95C6.8,19.25 7.5,19.75 8.1,20.45C7.367,17.35 6.4,14.433 5.2,11.7L4.3,9.9C5.1,10.167 5.867,10.667 6.6,11.4L5.75,9L6.75,9.3L6.1,7.85L8.05,7.75C6.683,7.15 5.483,6.383 4.45,5.45L3.2,2.05L3.2,1.85L3.45,1.5C3.317,1.067 3.067,0.75 2.7,0.55L2.4,-0.2L4.45,-2.35C3.717,-4.117 4.333,-6.217 6.3,-8.65C6.233,-8.983 6.217,-9.35 6.25,-9.75L6.35,-10L6.6,-10.9L11.5,-10.85L13.3,-12.05L8.6,-12.05L7.4,-13L7.4,-13.05L7.85,-13.8L8.3,-14.65L8.75,-15.75L8.9,-16.15L8.6,-15.8L7.95,-15.25C7.617,-15.017 7.283,-14.85 6.95,-14.75L7,-14.9L7.1,-15.25L7.1,-15.4L7.15,-15.65L7,-16.45L6.4,-17.15L6.3,-17.15L7.2,-19.1C7.533,-19.867 8.067,-20.283 8.8,-20.35L8.45,-20.55L8.25,-21.1L8.05,-21.85L8.1,-22.45L8.3,-23.4L8.3,-23.5L8.65,-24.55L8.55,-24.3L8.55,-24.2L8.5,-24.15L8.5,-24.1L8.45,-24L8.45,-23.95M0.35,-11.4L-0.5,-10.45L-0.7,-10.2L-0.9,-10.05L-1.45,-11.65L0.35,-11.4" style="fill:none;fill-rule:nonzero;stroke:#280a02;stroke-width:1px;"/>
                </g>
                <g id="sprite1" transform="matrix(0.0919,0,0,0.0918,-50.3047,-2.04927)">
                    <g id="shape1">
                        <path d="M492,103.8C491.7,76.8 492.15,48.983 493.35,20.35C494.783,-21.25 497.717,-64.583 502.15,-109.65C514.25,-87.583 523.233,-88.783 529.1,-113.25C541.5,-74.717 554.017,-37.15 566.65,-0.55C546.583,23.283 529.7,33.65 516,30.55L492,103.8M549.65,178.2L553.95,167.3C555.583,163.867 555.15,160.367 552.65,156.8C547.083,149.167 543.167,141.267 540.9,133.1C551.067,145.3 562.533,153.85 575.3,158.75L570.55,145.75L575.9,148.65C578.167,152.883 580.933,155.933 584.2,157.8L584.3,159L575.25,167.3C576.783,180 580,186.283 584.9,186.15L585.8,227.3L569.65,205.45C570.983,200.217 570.733,195.917 568.9,192.55C562.767,181.783 557.65,178.767 553.55,183.5L549.65,178.2M574.15,129.1L573.7,128.15C553.367,105.483 541.217,80.417 537.25,52.95C553.35,79.283 568.717,100.967 583.35,118L583.45,126.35C579.417,124.95 576.317,125.867 574.15,129.1M557.25,203.45C558.017,206.85 556.417,208.283 552.45,207.75C547.783,205.15 544.833,201.45 543.6,196.65L547.8,197C549.7,198.7 551.25,198.65 552.45,196.85L557.25,203.45M593.45,166.25C599.083,166.883 602.783,172.217 604.55,182.25C602.517,187.45 599.1,187.717 594.3,183.05L593.45,166.25M577.15,230.05C573.983,231.683 570.5,230.533 566.7,226.6L567.3,216.85L577.15,230.05" style="fill:#725033;"/>
                        <path d="M525.5,220.75C518.967,206.45 512.65,189.733 506.55,170.6L496,204.2C494.4,183.367 493.283,162.033 492.65,140.2L501.25,137.65L500.95,143.75L506.8,135.8L545.4,187.35C539.633,198.85 533,209.983 525.5,220.75M575.9,148.65C574.067,145.317 572.55,141.25 571.35,136.45C571.917,133.25 572.85,130.8 574.15,129.1L583.9,152.85L575.9,148.65" style="fill:#441914;"/>
                        <path d="M566.65,-0.55C579.483,36.883 592.45,73.3 605.55,108.7L593.75,102.15L592.45,104.3L582.4,83.7L583.35,118C568.717,100.967 553.35,79.283 537.25,52.95C541.217,80.417 553.367,105.483 573.7,128.15L574.15,129.1C572.85,130.8 571.917,133.25 571.35,136.45C572.55,141.25 574.067,145.317 575.9,148.65L570.55,145.75L575.3,158.75C562.533,153.85 551.067,145.3 540.9,133.1C543.167,141.267 547.083,149.167 552.65,156.8C555.15,160.367 555.583,163.867 553.95,167.3L549.65,178.2L502.3,114.05L501.25,137.65L492.65,140.2C492.317,128.233 492.1,116.1 492,103.8L516,30.55C529.7,33.65 546.583,23.283 566.65,-0.55M591.5,124.45L592.55,128.1L591.6,127.1L591.5,124.45" style="fill:#39281a;"/>
                        <path d="M501.25,137.65L502.3,114.05L549.65,178.2L553.55,183.5L569.65,205.45L585.8,227.3L584.9,186.15L584.3,159L584.2,157.8L583.45,126.35L583.35,118L582.4,83.7L592.45,104.3L598.55,116.8L590.9,113.1L591.5,124.45L591.6,127.1L593.45,166.25L594.3,183.05L597.85,257.8L577.15,230.05L567.3,216.85L557.25,203.45L552.45,196.85L545.4,187.35L506.8,135.8L500.95,143.75L501.25,137.65" style="fill:#352a28;"/>
                        <path d="M605.55,108.7L619.45,146.3C611.317,138.433 602.983,132.983 594.45,129.95C597.683,136.35 600.817,142.917 603.85,149.65C616.883,179.35 627.4,211.217 635.4,245.25C628.867,237.517 621.3,232.033 612.7,228.8C619.467,242.767 623.517,259.4 624.85,278.7C619.95,269.5 614.517,263.567 608.55,260.9C611.083,275.333 611.467,285.15 609.7,290.35C594.133,290.517 577.283,275.767 559.15,246.1L558.1,269.05C548.733,260.783 539.8,248.583 531.3,232.45L525.5,220.75C533,209.983 539.633,198.85 545.4,187.35L552.45,196.85C551.25,198.65 549.7,198.7 547.8,197L543.6,196.65C544.833,201.45 547.783,205.15 552.45,207.75C556.417,208.283 558.017,206.85 557.25,203.45L567.3,216.85L566.7,226.6C570.5,230.533 573.983,231.683 577.15,230.05L597.85,257.8L594.3,183.05C599.1,187.717 602.517,187.45 604.55,182.25C602.783,172.217 599.083,166.883 593.45,166.25L591.6,127.1L592.55,128.1L591.5,124.45L590.9,113.1L598.55,116.8L592.45,104.3L593.75,102.15L605.55,108.7M553.55,183.5C557.65,178.767 562.767,181.783 568.9,192.55C570.733,195.917 570.983,200.217 569.65,205.45L553.55,183.5M584.9,186.15C580,186.283 576.783,180 575.25,167.3L584.3,159L584.9,186.15M584.2,157.8C580.933,155.933 578.167,152.883 575.9,148.65L583.9,152.85L574.15,129.1C576.317,125.867 579.417,124.95 583.45,126.35L584.2,157.8" style="fill:#873228;"/>
                        <path d="M492,103.8C491.7,76.8 492.15,48.983 493.35,20.35C494.783,-21.25 497.717,-64.583 502.15,-109.65C514.25,-87.583 523.233,-88.783 529.1,-113.25C541.5,-74.717 554.017,-37.15 566.65,-0.55C579.483,36.883 592.45,73.3 605.55,108.7L619.45,146.3C611.317,138.433 602.983,132.983 594.45,129.95C597.683,136.35 600.817,142.917 603.85,149.65C616.883,179.35 627.4,211.217 635.4,245.25C628.867,237.517 621.3,232.033 612.7,228.8C619.467,242.767 623.517,259.4 624.85,278.7C619.95,269.5 614.517,263.567 608.55,260.9C611.083,275.333 611.467,285.15 609.7,290.35C594.133,290.517 577.283,275.767 559.15,246.1L558.1,269.05C548.733,260.783 539.8,248.583 531.3,232.45L525.5,220.75C518.967,206.45 512.65,189.733 506.55,170.6L496,204.2C494.4,183.367 493.283,162.033 492.65,140.2C492.317,128.233 492.1,116.1 492,103.8M501.25,137.65L502.3,114.05L549.65,178.2L553.55,183.5L569.65,205.45L585.8,227.3L584.9,186.15L584.3,159L584.2,157.8L583.45,126.35L583.35,118L582.4,83.7L592.45,104.3L598.55,116.8L590.9,113.1L591.5,124.45L591.6,127.1L593.45,166.25L594.3,183.05L597.85,257.8L577.15,230.05L567.3,216.85L557.25,203.45L552.45,196.85L545.4,187.35L506.8,135.8L500.95,143.75L501.25,137.65" style="fill:none;fill-rule:nonzero;stroke:#000;stroke-opacity:0.3;stroke-width:0.05px;"/>
                        <path d="M586.2,-131.95C583.967,-125.35 580.783,-118.867 576.65,-112.5C571.483,-104.767 564.55,-97.2 555.85,-89.8L553.65,-87.75L544.15,-88.75L539.8,-89.05L542.05,-91.25C548.55,-97.55 553.833,-105.283 557.9,-114.45L558.8,-116.75C560.067,-116.317 561.7,-116.083 563.7,-116.05C566.9,-115.75 570.333,-116.65 574,-118.75C574.7,-118.95 575.45,-119.267 576.25,-119.7C579.183,-123.867 581.767,-128.017 584,-132.15L586.2,-131.95M600.95,-86.15C601.183,-94.483 602.833,-102.25 605.9,-109.45C608.033,-115.417 611.283,-121.133 615.65,-126.6C616.717,-121.2 619.617,-116.517 624.35,-112.55L625.8,-111.05L623.9,-107.5C620,-99.8 617.45,-92.817 616.25,-86.55L600.95,-86.15M415.9,258.6L431.45,228.55C458.55,203.85 484.5,176.867 509.3,147.6C503.333,131.767 504,113.583 511.3,93.05C519.433,69.683 535.8,43.467 560.4,14.4L571.45,22.25C519.683,78.983 506.783,117.75 532.75,138.55L415.9,258.6" style="fill:#2b2a2a;"/>
                        <path d="M553.65,-87.75L555.85,-89.8C564.55,-97.2 571.483,-104.767 576.65,-112.5C580.783,-118.867 583.967,-125.35 586.2,-131.95L615.3,-129.25L615.65,-126.6C611.283,-121.133 608.033,-115.417 605.9,-109.45C602.833,-102.25 601.183,-94.483 600.95,-86.15L553.65,-87.75M517.8,-16.45L560.4,14.4C535.8,43.467 519.433,69.683 511.3,93.05C504,113.583 503.333,131.767 509.3,147.6C484.5,176.867 458.55,203.85 431.45,228.55C458.217,182.417 483.183,134.133 506.35,83.7C503.017,73.6 503.717,59.2 508.45,40.5L501.25,32.7C503.35,20.7 504.567,7.7 504.9,-6.3C509.6,-9.467 513.9,-12.85 517.8,-16.45" style="fill:#101010;"/>
                        <path d="M553.65,-87.75L600.95,-86.15L601,-85.05C600.867,-79.917 601.283,-74.533 602.25,-68.9C585.35,-49.1 577.35,-28.1 578.25,-5.9C571.917,1.067 565.967,7.833 560.4,14.4L517.8,-16.45C538.267,-34.683 549.017,-57.483 550.05,-84.85L553.65,-87.75M431.45,228.55L422.9,235.75C419.1,217.15 421.383,184.833 429.75,138.8C451.883,126 469.167,108.767 481.6,87.1C490.633,71.467 497.183,53.333 501.25,32.7L508.45,40.5C503.717,59.2 503.017,73.6 506.35,83.7C483.183,134.133 458.217,182.417 431.45,228.55" style="fill:#201f1f;"/>
                        <path d="M544.15,-88.75L553.65,-87.75L550.05,-84.85C549.017,-57.483 538.267,-34.683 517.8,-16.45C513.9,-12.85 509.6,-9.467 504.9,-6.3C504.567,7.7 503.35,20.7 501.25,32.7C497.183,53.333 490.633,71.467 481.6,87.1C469.167,108.767 451.883,126 429.75,138.8C421.383,184.833 419.1,217.15 422.9,235.75L431.45,228.55L415.9,258.6C405.367,241.267 401.35,217.317 403.85,186.75L423,129.8C439.567,121.4 455.35,110.733 470.35,97.8C482.183,72.733 490.183,48.8 494.35,26C496.817,11 497.75,-3.433 497.15,-17.3C511.317,-29.267 521.217,-40.733 526.85,-51.7C536.65,-64.833 539.917,-75.033 536.65,-82.3C539.183,-84.333 541.683,-86.483 544.15,-88.75M560.4,14.4C565.967,7.833 571.917,1.067 578.25,-5.9C577.35,-28.1 585.35,-49.1 602.25,-68.9C601.283,-74.533 600.867,-79.917 601,-85.05L600.95,-86.15L616.25,-86.55L615.65,-83.7C615.05,-79.4 615.2,-75.433 616.1,-71.8C594.5,-45.233 587.667,-22.35 595.6,-3.15C586.7,5.517 578.65,13.983 571.45,22.25L560.4,14.4" style="fill:#555453;"/>
                        <path d="M539.8,-89.05L544.15,-88.75C541.683,-86.483 539.183,-84.333 536.65,-82.3C539.917,-75.033 536.65,-64.833 526.85,-51.7C531.517,-60.833 533.233,-69.767 532,-78.5L531,-82.6C534.167,-84.5 537.1,-86.65 539.8,-89.05M497.15,-17.3C497.75,-3.433 496.817,11 494.35,26C490.183,48.8 482.183,72.733 470.35,97.8C455.35,110.733 439.567,121.4 423,129.8L403.85,186.75C405.317,167.617 409.517,145.867 416.45,121.5C420.283,120.1 423.917,118.583 427.35,116.95C470.25,96.183 490.95,53.367 489.45,-11.5L497.15,-17.3" style="fill:#aaa9a9;"/>
                        <path d="M586.2,-131.95C583.967,-125.35 580.783,-118.867 576.65,-112.5C571.483,-104.767 564.55,-97.2 555.85,-89.8L553.65,-87.75L550.05,-84.85C549.017,-57.483 538.267,-34.683 517.8,-16.45C513.9,-12.85 509.6,-9.467 504.9,-6.3C504.567,7.7 503.35,20.7 501.25,32.7C497.183,53.333 490.633,71.467 481.6,87.1C469.167,108.767 451.883,126 429.75,138.8C421.383,184.833 419.1,217.15 422.9,235.75L431.45,228.55C458.55,203.85 484.5,176.867 509.3,147.6C503.333,131.767 504,113.583 511.3,93.05C519.433,69.683 535.8,43.467 560.4,14.4C565.967,7.833 571.917,1.067 578.25,-5.9C577.35,-28.1 585.35,-49.1 602.25,-68.9C601.283,-74.533 600.867,-79.917 601,-85.05L600.95,-86.15C601.183,-94.483 602.833,-102.25 605.9,-109.45C608.033,-115.417 611.283,-121.133 615.65,-126.6M615.3,-129.25L586.2,-131.95L584,-132.15M558.8,-116.75L557.9,-114.45C553.833,-105.283 548.55,-97.55 542.05,-91.25L539.8,-89.05C537.1,-86.65 534.167,-84.5 531,-82.6L532,-78.5C533.233,-69.767 531.517,-60.833 526.85,-51.7C521.217,-40.733 511.317,-29.267 497.15,-17.3L489.45,-11.5C490.95,53.367 470.25,96.183 427.35,116.95C423.917,118.583 420.283,120.1 416.45,121.5C409.517,145.867 405.317,167.617 403.85,186.75C401.35,217.317 405.367,241.267 415.9,258.6L532.75,138.55C506.783,117.75 519.683,78.983 571.45,22.25C578.65,13.983 586.7,5.517 595.6,-3.15C587.667,-22.35 594.5,-45.233 616.1,-71.8C615.2,-75.433 615.05,-79.4 615.65,-83.7L616.25,-86.55C617.45,-92.817 620,-99.8 623.9,-107.5L625.8,-111.05" style="fill:none;fill-rule:nonzero;stroke:#000;stroke-opacity:0.3;stroke-width:0.05px;"/>
                        <path d="M680.9,-108.7L667.5,-100.05L577.05,-101.55L496,-110.65L493.05,-121.55L589.8,-105.35L680.9,-108.7M556.1,-125.2C557.833,-133.1 560.05,-140.667 562.75,-147.9C564.783,-141.433 568.433,-138.133 573.7,-138C572.6,-135.167 572.033,-132.45 572,-129.85C572.067,-130.25 572.233,-130.65 572.5,-131.05L573.6,-133.7C577,-140.567 581.85,-146.717 588.15,-152.15C592.483,-155.917 596.933,-158.633 601.5,-160.3L602.05,-160.55L608.3,-161.95L609.05,-161.95L609.6,-162.05L615.3,-161.5L615.95,-161.35C618.95,-160.283 621.267,-158.117 622.9,-154.85C624.133,-152.517 624.717,-149.817 624.65,-146.75L624.4,-144.15L623.65,-139.9L623.2,-138.6C623.467,-136.7 622.3,-134 619.7,-130.5C630.733,-135.767 638.45,-141.983 642.85,-149.15C641.25,-145.117 639.5,-141.1 637.6,-137.1C636.233,-134.033 634.683,-130.983 632.95,-127.95L628.05,-119.8L628,-119.65L627.8,-119.5C623.567,-115.167 619.083,-114.033 614.35,-116.1L616.95,-127.65C611.517,-121.35 608.217,-117.667 607.05,-116.6C605.383,-115.367 603.717,-114.267 602.05,-113.3C596.85,-110.3 591.7,-109.017 586.6,-109.45C582.2,-109.883 578.767,-111.517 576.3,-114.35C575.833,-114.617 575.5,-114.967 575.3,-115.4C574.467,-116.567 573.8,-117.867 573.3,-119.3L571.25,-123.8L556.1,-125.2M603.25,-165.95L613.35,-186.75C614.15,-188.85 614.617,-190.7 614.75,-192.3L614.7,-195C614.133,-197.967 612.35,-200.117 609.35,-201.45L606.7,-202.25L608.55,-202.6L612.65,-204L627.6,-207.8L610.55,-166.3L610,-166.35C609.733,-166.35 609.55,-166.4 609.45,-166.5L603.25,-165.95M585.85,-128.15C587.05,-125.35 589.25,-123.817 592.45,-123.55C595.783,-123.317 599.183,-124.5 602.65,-127.1C606.25,-129.8 608.9,-133.117 610.6,-137.05L610.9,-138.1C612.167,-141.6 612.167,-144.683 610.9,-147.35C610.2,-149.117 609.167,-150.383 607.8,-151.15L607.15,-151.45C606.35,-151.983 605.417,-152.3 604.35,-152.4L603.45,-152.35C600.583,-152.483 597.417,-151.3 593.95,-148.8C590.483,-146.133 587.95,-142.883 586.35,-139.05C585.617,-137.517 585.183,-136.083 585.05,-134.75C584.717,-132.417 584.933,-130.333 585.7,-128.5L585.85,-128.15M572,-129.85L572,-129.45L572,-129.85" style="fill:#433a33;"/>
                        <path d="M496,-110.65L577.05,-101.55L667.5,-100.05L680.9,-108.7L692,-108.75L672.3,-95.7L581.85,-97.2L496,-110.65M535.65,-117.75L556.1,-125.2L571.25,-123.8L573.3,-119.3C573.8,-117.867 574.467,-116.567 575.3,-115.4C575.5,-114.967 575.833,-114.617 576.3,-114.35C578.767,-111.517 582.2,-109.883 586.6,-109.45C591.7,-109.017 596.85,-110.3 602.05,-113.3C603.717,-114.267 605.383,-115.367 607.05,-116.6C608.217,-117.667 611.517,-121.35 616.95,-127.65L614.35,-116.1C619.083,-114.033 623.567,-115.167 627.8,-119.5L641.05,-109.2L586.55,-109.15L535.65,-117.75" style="fill:#221d1a;"/>
                        <path d="M680.9,-108.7L589.8,-105.35L493.05,-121.55L496,-110.65L487.9,-125.8L535.65,-117.75L586.55,-109.15L641.05,-109.2L680.9,-108.7M562.75,-147.9C563.417,-150 564.2,-152.017 565.1,-153.95L567.85,-159.8C568.183,-154.5 569.283,-150.283 571.15,-147.15C571.983,-145.683 573.117,-144.433 574.55,-143.4L575.75,-142.45C578.983,-149.15 583.65,-154.817 589.75,-159.45C594.15,-162.683 598.55,-164.883 602.95,-166.05L603.25,-165.95L609.45,-166.5C609.55,-166.4 609.733,-166.35 610,-166.35L610.55,-166.3C612.683,-166.167 614.55,-165.65 616.15,-164.75L616.8,-164.45C619.667,-162.883 621.883,-160.333 623.45,-156.8C624.617,-154.1 625.167,-151.2 625.1,-148.1L624.85,-145.5C624.583,-143.667 624.183,-141.8 623.65,-139.9L624.4,-144.15L624.65,-146.75C624.717,-149.817 624.133,-152.517 622.9,-154.85C621.267,-158.117 618.95,-160.283 615.95,-161.35L615.3,-161.5L609.6,-162.05L609.05,-161.95L608.3,-161.95L602.05,-160.55L601.5,-160.3C596.933,-158.633 592.483,-155.917 588.15,-152.15C581.85,-146.717 577,-140.567 573.6,-133.7L572.5,-131.05C572.233,-130.65 572.067,-130.25 572,-129.85C572.033,-132.45 572.6,-135.167 573.7,-138C568.433,-138.133 564.783,-141.433 562.75,-147.9M612.65,-204C614.017,-204.467 615.4,-205.15 616.8,-206.05C618.6,-207.283 620.417,-208.817 622.25,-210.65L623.3,-211.8C624.9,-213.6 626.483,-215.667 628.05,-218L630.35,-221.55L632.45,-225.1C634.617,-229.067 636.7,-233.333 638.7,-237.9L639.2,-239.15L639.65,-240.3L640.6,-242.45L627.6,-207.8L612.65,-204M623.2,-138.6C626.733,-139.5 630.367,-141.317 634.1,-144.05C636.3,-145.583 638.583,-147.45 640.95,-149.65L644.35,-153.35L642.85,-149.15C638.45,-141.983 630.733,-135.767 619.7,-130.5C622.3,-134 623.467,-136.7 623.2,-138.6M575.75,-142.45C575.15,-141.617 574.767,-140.817 574.6,-140.05L574.1,-139L573.7,-138L574.1,-139L574.6,-140.05C574.767,-140.817 575.15,-141.617 575.75,-142.45" style="fill:#96918d;"/>
                        <path d="M640.6,-242.45L641.55,-244.85L637.95,-233.55L637.5,-232.65L635.4,-222.3C635,-220.267 634.933,-218.033 635.2,-215.6C635.533,-212.967 636.15,-210.233 637.05,-207.4C637.717,-205.567 638.5,-203.683 639.4,-201.75C635.467,-203.75 631.533,-205.767 627.6,-207.8L640.6,-242.45" style="fill:#342c28;"/>
                        <path d="M639.4,-201.75L643.3,-199.1C635.1,-198.667 629.217,-194.2 625.65,-185.7L616.15,-164.75C614.55,-165.65 612.683,-166.167 610.55,-166.3L627.6,-207.8C631.533,-205.767 635.467,-203.75 639.4,-201.75" style="fill:#191513;"/>
                        <path d="M585.85,-128.15L586.7,-127.85C587.533,-127.45 588.533,-127.167 589.7,-127C592.933,-126.833 596.283,-128.05 599.75,-130.65C603.35,-133.25 606,-136.567 607.7,-140.6L608.2,-141.7L608.8,-144.75C609,-146.85 608.717,-148.817 607.95,-150.65L607.8,-151.15C609.167,-150.383 610.2,-149.117 610.9,-147.35C612.167,-144.683 612.167,-141.6 610.9,-138.1L610.6,-137.05C608.9,-133.117 606.25,-129.8 602.65,-127.1C599.183,-124.5 595.783,-123.317 592.45,-123.55C589.25,-123.817 587.05,-125.35 585.85,-128.15" style="fill:#652417;"/>
                        <path d="M607.8,-151.15L607.95,-150.65C608.717,-148.817 609,-146.85 608.8,-144.75L608.2,-141.7L607.7,-140.6C606,-136.567 603.35,-133.25 599.75,-130.65C596.283,-128.05 592.933,-126.833 589.7,-127C588.533,-127.167 587.533,-127.45 586.7,-127.85L585.85,-128.15L585.7,-128.5C584.933,-130.333 584.717,-132.417 585.05,-134.75C585.183,-136.083 585.617,-137.517 586.35,-139.05C587.95,-142.883 590.483,-146.133 593.95,-148.8C597.417,-151.3 600.583,-152.483 603.45,-152.35L604.35,-152.4C605.417,-152.3 606.35,-151.983 607.15,-151.45L607.8,-151.15M602.15,-150.05C602.05,-150.283 601.817,-150.417 601.45,-150.45L601.1,-150.4L600.35,-150.4C599.517,-150.267 598.467,-149.8 597.2,-149C595.433,-147.933 593.867,-146.667 592.5,-145.2L591.25,-143.45L591.05,-143.1C590.517,-142.333 590.217,-141.617 590.15,-140.95L589.9,-140.85C589.8,-139.683 590.233,-139.05 591.2,-138.95L592.3,-139C593.133,-139.133 594.183,-139.55 595.45,-140.25C597.25,-141.317 598.867,-142.633 600.3,-144.2L600.75,-144.75L601.8,-146.15L602.7,-148.4C602.767,-149.067 602.7,-149.583 602.5,-149.95L602.15,-150.05" style="fill:#ca482e;"/>
                        <path d="M602.15,-150.05L602.5,-149.95C602.7,-149.583 602.767,-149.067 602.7,-148.4L601.8,-146.15L600.75,-144.75L600.3,-144.2C598.867,-142.633 597.25,-141.317 595.45,-140.25C594.183,-139.55 593.133,-139.133 592.3,-139L591.2,-138.95C590.233,-139.05 589.8,-139.683 589.9,-140.85L590.15,-140.95C590.217,-141.617 590.517,-142.333 591.05,-143.1L591.25,-143.45L592.5,-145.2C593.867,-146.667 595.433,-147.933 597.2,-149C598.467,-149.8 599.517,-150.267 600.35,-150.4L601.1,-150.4L601.45,-150.45C601.817,-150.417 602.05,-150.283 602.15,-150.05" style="fill:#f19987;"/>
                        <path d="M496,-110.65L487.9,-125.8L535.65,-117.75L556.1,-125.2C557.833,-133.1 560.05,-140.667 562.75,-147.9C563.417,-150 564.2,-152.017 565.1,-153.95L567.85,-159.8C568.183,-154.5 569.283,-150.283 571.15,-147.15C571.983,-145.683 573.117,-144.433 574.55,-143.4L575.75,-142.45C578.983,-149.15 583.65,-154.817 589.75,-159.45C594.15,-162.683 598.55,-164.883 602.95,-166.05L603.25,-165.95L613.35,-186.75C614.15,-188.85 614.617,-190.7 614.75,-192.3L614.7,-195C614.133,-197.967 612.35,-200.117 609.35,-201.45L606.7,-202.25L608.55,-202.6L612.65,-204C614.017,-204.467 615.4,-205.15 616.8,-206.05C618.6,-207.283 620.417,-208.817 622.25,-210.65L623.3,-211.8C624.9,-213.6 626.483,-215.667 628.05,-218L630.35,-221.55L632.45,-225.1C634.617,-229.067 636.7,-233.333 638.7,-237.9L639.2,-239.15L639.65,-240.3L640.6,-242.45L641.55,-244.85L637.95,-233.55L637.5,-232.65L635.4,-222.3C635,-220.267 634.933,-218.033 635.2,-215.6C635.533,-212.967 636.15,-210.233 637.05,-207.4C637.717,-205.567 638.5,-203.683 639.4,-201.75L643.3,-199.1C635.1,-198.667 629.217,-194.2 625.65,-185.7L616.15,-164.75L616.8,-164.45C619.667,-162.883 621.883,-160.333 623.45,-156.8C624.617,-154.1 625.167,-151.2 625.1,-148.1L624.85,-145.5C624.583,-143.667 624.183,-141.8 623.65,-139.9L623.2,-138.6C626.733,-139.5 630.367,-141.317 634.1,-144.05C636.3,-145.583 638.583,-147.45 640.95,-149.65L644.35,-153.35L642.85,-149.15C641.25,-145.117 639.5,-141.1 637.6,-137.1C636.233,-134.033 634.683,-130.983 632.95,-127.95L628.05,-119.8L628,-119.65L627.8,-119.5L641.05,-109.2L680.9,-108.7L692,-108.75L672.3,-95.7L581.85,-97.2L496,-110.65M603.25,-165.95L609.45,-166.5C609.55,-166.4 609.733,-166.35 610,-166.35L610.55,-166.3C612.683,-166.167 614.55,-165.65 616.15,-164.75M585.85,-128.15C587.05,-125.35 589.25,-123.817 592.45,-123.55C595.783,-123.317 599.183,-124.5 602.65,-127.1C606.25,-129.8 608.9,-133.117 610.6,-137.05L610.9,-138.1C612.167,-141.6 612.167,-144.683 610.9,-147.35C610.2,-149.117 609.167,-150.383 607.8,-151.15L607.15,-151.45C606.35,-151.983 605.417,-152.3 604.35,-152.4L603.45,-152.35C600.583,-152.483 597.417,-151.3 593.95,-148.8C590.483,-146.133 587.95,-142.883 586.35,-139.05C585.617,-137.517 585.183,-136.083 585.05,-134.75C584.717,-132.417 584.933,-130.333 585.7,-128.5L585.85,-128.15M573.7,-138L574.1,-139L574.6,-140.05C574.767,-140.817 575.15,-141.617 575.75,-142.45M572,-129.45L572,-129.85C572.033,-132.45 572.6,-135.167 573.7,-138M535.65,-117.75L586.55,-109.15L641.05,-109.2" style="fill:none;fill-rule:nonzero;stroke:#000;stroke-opacity:0.3;stroke-width:0.05px;"/>
                        <path d="M592.85,100.15C588.65,95.317 586,90.517 584.9,85.75C591.867,85.95 599.1,88.9 606.6,94.6C611.667,102.367 610.633,106.567 603.5,107.2L600.15,107.3C597.283,105 594.85,102.617 592.85,100.15" style="fill:#352a28;"/>
                        <path d="M603.5,107.2C610.633,106.567 611.667,102.367 606.6,94.6C599.1,88.9 591.867,85.95 584.9,85.75C586,90.517 588.65,95.317 592.85,100.15C577.483,89.65 566.583,80.533 560.15,72.8C568.95,74.833 576.783,73.667 583.65,69.3C597.75,85.567 614.917,98 635.15,106.6C628.95,108.767 621.883,109.25 613.95,108.05L617.25,115.75L603.5,107.2" style="fill:#725033;"/>
                        <path d="M592.85,100.15C594.85,102.617 597.283,105 600.15,107.3L603.5,107.2L617.25,115.75L620.6,123.5C581.833,114.6 554.233,86.35 537.8,38.75L560.45,34.25C563.117,39.417 565.95,44.367 568.95,49.1C573.383,56.333 578.283,63.067 583.65,69.3C576.783,73.667 568.95,74.833 560.15,72.8C566.583,80.533 577.483,89.65 592.85,100.15" style="fill:#39281a;"/>
                        <path d="M603.5,107.2C610.633,106.567 611.667,102.367 606.6,94.6C599.1,88.9 591.867,85.95 584.9,85.75C586,90.517 588.65,95.317 592.85,100.15C594.85,102.617 597.283,105 600.15,107.3L603.5,107.2M617.25,115.75L613.95,108.05C621.883,109.25 628.95,108.767 635.15,106.6C614.917,98 597.75,85.567 583.65,69.3C578.283,63.067 573.383,56.333 568.95,49.1C565.95,44.367 563.117,39.417 560.45,34.25L537.8,38.75C554.233,86.35 581.833,114.6 620.6,123.5L617.25,115.75" style="fill:none;fill-rule:nonzero;stroke:#000;stroke-opacity:0.3;stroke-width:0.05px;"/>
                        <path d="M573,141.15L573.95,149.65C539.75,130.95 521.05,96.05 517.85,44.95L540.6,46.2C541.667,52 543.033,57.617 544.7,63.05L546.1,68.15C542.933,69.883 538.4,69.633 532.5,67.4C531.033,70.767 529.45,73.883 527.75,76.75C530.05,86.917 538.767,101.167 553.9,119.5C555.167,122.4 556.85,125.35 558.95,128.35L562.25,129.25L573,141.15" style="fill:#39281a;"/>
                        <path d="M573,141.15L562.25,129.25C569.05,130.483 571.117,126.583 568.45,117.55C562.817,110.017 556.717,105.267 550.15,103.3C549.917,108.267 551.167,113.667 553.9,119.5C538.767,101.167 530.05,86.917 527.75,76.75C529.45,73.883 531.033,70.767 532.5,67.4C538.4,69.633 542.933,69.883 546.1,68.15C555,96.117 570.367,119 592.2,136.8C585.833,137.3 579.067,135.95 571.9,132.75L573,141.15" style="fill:#725033;"/>
                        <path d="M562.25,129.25L558.95,128.35C556.85,125.35 555.167,122.4 553.9,119.5C551.167,113.667 549.917,108.267 550.15,103.3C556.717,105.267 562.817,110.017 568.45,117.55C571.117,126.583 569.05,130.483 562.25,129.25" style="fill:#352a28;"/>
                        <path d="M546.1,68.15L544.7,63.05C543.033,57.617 541.667,52 540.6,46.2L517.85,44.95C521.05,96.05 539.75,130.95 573.95,149.65L573,141.15L571.9,132.75C579.067,135.95 585.833,137.3 592.2,136.8C570.367,119 555,96.117 546.1,68.15M562.25,129.25L558.95,128.35C556.85,125.35 555.167,122.4 553.9,119.5C551.167,113.667 549.917,108.267 550.15,103.3C556.717,105.267 562.817,110.017 568.45,117.55C571.117,126.583 569.05,130.483 562.25,129.25" style="fill:none;fill-rule:nonzero;stroke:#000;stroke-opacity:0.3;stroke-width:0.05px;"/>
                        <path d="M503.95,7.5L499.45,1.35C488.617,-16.55 482.533,-38.717 481.2,-65.15C483.767,-75.45 487.033,-80.183 491,-79.35C491.933,-85.183 494.433,-89.15 498.5,-91.25C504,-55.717 513.817,-27.733 527.95,-7.3C530.85,-2.9 534.05,1.183 537.55,4.95C537.617,12.85 535.783,20 532.05,26.4C535.783,20 537.617,12.85 537.55,4.95L536.85,-2.25L533.9,-10.25C537.967,-11.817 541.583,-11.933 544.75,-10.6C545.383,-9.767 545.883,-8.683 546.25,-7.35C551.183,-8.483 555.75,-6.6 559.95,-1.7C561.483,3.1 562.467,8.133 562.9,13.4C561.833,20.233 560.2,25.667 558,29.7C557.767,25.4 554.55,18.467 548.35,8.9C542.817,18.4 537.383,24.233 532.05,26.4C522.75,20.633 513.383,14.333 503.95,7.5M563,22.3C563.767,22.6 564.533,23 565.3,23.5L571,26.15L574.1,27.4C579.667,29.2 583.317,32.883 585.05,38.45L582.25,42.3L581.8,52.2C574.067,48.933 566.283,45.333 558.45,41.4L560.8,37.85L561.85,32.85C562.45,29.217 562.833,25.7 563,22.3M492.5,-57.95C490.7,-66.683 490.2,-73.817 491,-79.35C490.2,-73.817 490.7,-66.683 492.5,-57.95M579.2,46.35L582.25,42.3L579.2,46.35M547.75,3.65C547.75,-0.983 547.25,-4.65 546.25,-7.35C547.25,-4.65 547.75,-0.983 547.75,3.65" style="fill:#725033;"/>
                        <path d="M527.95,-7.3C530.017,-8.533 532,-9.517 533.9,-10.25L536.85,-2.25L537.55,4.95C534.05,1.183 530.85,-2.9 527.95,-7.3M562.9,13.4C563.1,16.233 563.133,19.2 563,22.3C562.833,25.7 562.45,29.217 561.85,32.85L560.8,37.85L558.45,41.4C566.283,45.333 574.067,48.933 581.8,52.2L581.35,62.25C577.783,67.217 572.217,67.4 564.65,62.8L549,51.4C542,57.233 534.833,60.317 527.5,60.65C525.167,60.617 522.9,57.817 520.7,52.25C519.6,51.85 518.7,51.067 518,49.9C516.967,48.267 516.233,46.083 515.8,43.35C514.9,38.517 516.167,32.55 519.6,25.45C513.8,19.45 508.583,13.467 503.95,7.5C513.383,14.333 522.75,20.633 532.05,26.4C530.717,28.633 529.167,30.817 527.4,32.95C525.067,35.683 522.283,38.233 519.05,40.6C522.283,38.233 525.067,35.683 527.4,32.95C529.167,30.817 530.717,28.633 532.05,26.4C537.383,24.233 542.817,18.4 548.35,8.9C554.55,18.467 557.767,25.4 558,29.7C560.2,25.667 561.833,20.233 562.9,13.4M549,51.4C552.367,48.567 555.517,45.233 558.45,41.4C555.517,45.233 552.367,48.567 549,51.4M520.7,52.25C523.333,53.283 525.8,52.617 528.1,50.25C525.8,52.617 523.333,53.283 520.7,52.25M527.4,32.95L519.6,25.45L527.4,32.95" style="fill:#39281a;"/>
                        <path d="M503.95,7.5L499.45,1.35C488.617,-16.55 482.533,-38.717 481.2,-65.15C483.767,-75.45 487.033,-80.183 491,-79.35C491.933,-85.183 494.433,-89.15 498.5,-91.25C504,-55.717 513.817,-27.733 527.95,-7.3C530.017,-8.533 532,-9.517 533.9,-10.25C537.967,-11.817 541.583,-11.933 544.75,-10.6C545.383,-9.767 545.883,-8.683 546.25,-7.35C551.183,-8.483 555.75,-6.6 559.95,-1.7C561.483,3.1 562.467,8.133 562.9,13.4C563.1,16.233 563.133,19.2 563,22.3C563.767,22.6 564.533,23 565.3,23.5L571,26.15L574.1,27.4C579.667,29.2 583.317,32.883 585.05,38.45L582.25,42.3L581.8,52.2L581.35,62.25C577.783,67.217 572.217,67.4 564.65,62.8L549,51.4C542,57.233 534.833,60.317 527.5,60.65C525.167,60.617 522.9,57.817 520.7,52.25C519.6,51.85 518.7,51.067 518,49.9C516.967,48.267 516.233,46.083 515.8,43.35C514.9,38.517 516.167,32.55 519.6,25.45C513.8,19.45 508.583,13.467 503.95,7.5M532.05,26.4C535.783,20 537.617,12.85 537.55,4.95C534.05,1.183 530.85,-2.9 527.95,-7.3M491,-79.35C490.2,-73.817 490.7,-66.683 492.5,-57.95M582.25,42.3L579.2,46.35M532.05,26.4C530.717,28.633 529.167,30.817 527.4,32.95C525.067,35.683 522.283,38.233 519.05,40.6M563,22.3C562.833,25.7 562.45,29.217 561.85,32.85L560.8,37.85L558.45,41.4C555.517,45.233 552.367,48.567 549,51.4M519.6,25.45L527.4,32.95M528.1,50.25C525.8,52.617 523.333,53.283 520.7,52.25M537.55,4.95L536.85,-2.25M546.25,-7.35C547.25,-4.65 547.75,-0.983 547.75,3.65" style="fill:none;fill-rule:nonzero;stroke:#000;stroke-opacity:0.3;stroke-width:0.05px;"/>
                    </g>
                </g>
            </g>
        </g>
    </g>
</svg>
