<?xml version="1.0" encoding="UTF-8" standalone="no"?>
<!DOCTYPE svg PUBLIC "-//W3C//DTD SVG 1.1//EN" "http://www.w3.org/Graphics/SVG/1.1/DTD/svg11.dtd">
<svg width="100%" height="100%" viewBox="0 0 23 45" version="1.1" xmlns="http://www.w3.org/2000/svg" xmlns:xlink="http://www.w3.org/1999/xlink" xml:space="preserve" xmlns:serif="http://www.serif.com/" style="fill-rule:evenodd;clip-rule:evenodd;stroke-linecap:round;stroke-linejoin:round;">
    <g transform="matrix(1,0,0,1,11.2,22.45)">
        <g id="sprite0">
            <g id="shape0">
                <path d="M9.95,-5.7C9.417,-4 8.583,-2.333 7.45,-0.7C10.083,-8.033 8.717,-13.7 3.35,-17.7C3.45,-16.8 3.083,-15.8 2.25,-14.7C2.017,-15.533 1.517,-15.967 0.75,-16L0.4,-14.75L0.35,-14.7L0.1,-14.5L-0.15,-14.4L-2.8,-5.5C-1.633,-0.967 0.45,3.083 3.45,6.65C2.717,6.417 2.183,6.483 1.85,6.85L2.85,8.45L2.85,8.5L3.3,9.4L3.7,10.1L5.05,12.35L5.9,13.2L5.95,13.4L5.85,13.6L5.65,13.75L5.45,13.7L4.95,13.2C4.45,12.567 4.033,11.533 3.7,10.1L3.25,11.9L2.7,12.1L4.15,14.6L4.9,15.6L4.95,15.8L4.8,16.05L4.6,16.15L4.4,16.05L3.45,14.75L1.15,10.8C0.75,10.967 0.333,11.2 -0.1,11.5L-0.75,12.1C0.283,14.567 1.433,16.933 2.7,19.2L3.35,20.3L3.35,20.5L3.2,20.75L2.95,20.8L2.8,20.7L2.2,19.6C0.9,17.267 -0.267,14.867 -1.3,12.4L-1.8,12.25L-1.75,12.25C-2.517,12.117 -3.233,12.333 -3.9,12.9C-3.467,14.967 -2.9,16.983 -2.2,18.95L-1.35,20.55L-1.3,20.8L-1.45,21L-1.7,21.05L-1.85,20.95L-2.75,19.25C-3.483,17.283 -4.05,15.267 -4.45,13.2L-4.55,13.25L-4.75,13.15C-5.383,12.417 -6.017,12.25 -6.65,12.65L-6.8,12.7L-7.15,18.15L-6.4,18.75C-6.567,19.783 -6.733,20.367 -6.9,20.5L-7.9,20.5L-7.9,20.45L-8.3,19.4L-8.2,19L-7.75,18.45C-7.817,16.75 -7.7,14.75 -7.4,12.45L-7.35,12.35L-6.2,8.15L-6.8,8.2L-9.25,16.5C-9.983,16.867 -10.467,16.683 -10.7,15.95L-6.35,1.5C-6.083,-2.167 -6.05,-5.583 -6.25,-8.75L-6.3,-9.6L-6.55,-9.7L-6.95,-10L-7.35,-9.95L-7.45,-9.9L-8.05,-8.75L-8.25,-9.35C-8.683,-10.617 -9.383,-10.983 -10.35,-10.45L-9.85,-11.35L-9.4,-13.1L-9.2,-14.35C-8.933,-13.25 -8.55,-12.467 -8.05,-12C-7.85,-11.767 -7.583,-11.617 -7.25,-11.55L-7.2,-11.7L-7.15,-11.75L-7.05,-12L-6.85,-12.25L-6.95,-12.85L-6.95,-13.3L-6.4,-12.65L-6.15,-12.8L-5.55,-12.95L-5.35,-13.8L-5.15,-13.45L-5,-12.9L-4.7,-12.8C-4.167,-13.6 -4.1,-14.783 -4.5,-16.35L-3.8,-15.5L-2.6,-14.3L-1.8,-13.95C-2.833,-13.683 -3.233,-12.867 -3,-11.5L-2.9,-10.95L-3.8,-11.45L-3.7,-10.5L-3.4,-8.3L-1.5,-14.65L-1.55,-14.65L-1.85,-15.15L-1.85,-15.2L-1.75,-15.5L-1.2,-17.45C-1.733,-17.983 -2.267,-17.817 -2.8,-16.95L-2.2,-19.3C-1.667,-19.633 -1.2,-19.483 -0.8,-18.85L-0.65,-19.4L-0.15,-19.55L0.2,-20.65C0.667,-21.05 1.1,-20.983 1.5,-20.45L1.15,-19.2L1.55,-18.8L1.45,-18.45C2.383,-19.117 2.75,-19.967 2.55,-21L2.2,-21.95C5.333,-21.85 7.767,-19.983 9.5,-16.35L10.55,-12.45C10.883,-10.15 10.683,-7.9 9.95,-5.7Z" style="fill:none;fill-rule:nonzero;stroke:#280a02;stroke-width:1px;"/>
            </g>
            <g id="sprite1" transform="matrix(0.0919,0,0,0.0918,-53.5054,-4.39943)">
                <g id="shape1">
                    <path d="M579.6,-161.05L584.35,-177.25C589.35,-181.383 594.15,-180.667 598.75,-175.1L593,-155.5L579.6,-161.05" style="fill:#724f33;"/>
                    <path d="M579.6,-161.05L584.35,-177.25C589.35,-181.383 594.15,-180.667 598.75,-175.1L593,-155.5L579.6,-161.05Z" style="fill:none;fill-rule:nonzero;stroke:#000;stroke-opacity:0.3;stroke-width:0.05px;"/>
                    <path d="M697.05,-87.55C700.55,-62.617 698.433,-38.117 690.7,-14.05C690.9,-50.417 684.967,-80.7 672.9,-104.9C657.2,-133.1 637.6,-150.083 614.1,-155.85L604.75,-128.25L592.2,-132.8L597.75,-152.9L592.2,-132.8L590.25,-126.3L586.45,-112.85L586.3,-112.7C586.3,-116.3 585.317,-119.083 583.35,-121.05C582.917,-121.483 582.433,-121.817 581.9,-122.05C579.067,-123.783 575.85,-124.533 572.25,-124.3L569.5,-124L568.2,-123.85C566.667,-123.617 565.417,-123.067 564.45,-122.2L562.95,-120.9L569.15,-142.15C563.283,-148.017 557.4,-146.15 551.5,-136.55L556.75,-156.15C561.983,-160.317 567.65,-160.7 573.75,-157.3C582.117,-160.467 590.117,-159 597.75,-152.9C608.083,-160.433 612.117,-169.75 609.85,-180.85C643.917,-167.55 672.983,-136.45 697.05,-87.55M573.75,-157.3L569.15,-142.15L573.75,-157.3" style="fill:#4c535b;"/>
                    <path d="M690.7,-14.05C684.933,4.25 675.883,22.317 663.55,40.15C692.083,-39.783 677.117,-101.517 618.65,-145.05C619.65,-135.05 615.683,-124.167 606.75,-112.4C604.017,-121.233 598.517,-125.867 590.25,-126.3L592.2,-132.8L604.75,-128.25L614.1,-155.85C637.6,-150.083 657.2,-133.1 672.9,-104.9C684.967,-80.7 690.9,-50.417 690.7,-14.05M586,-112.25C585.333,-111.483 584.4,-110.767 583.2,-110.1C581.133,-109.233 578.8,-108.8 576.2,-108.8L574.05,-108.95C570.583,-109.517 567.75,-110.5 565.55,-111.9C563.383,-113.433 562.2,-115.117 562,-116.95C561.867,-117.283 561.867,-117.567 562,-117.8C561.867,-119 562.183,-120.033 562.95,-120.9L564.45,-122.2C565.417,-123.067 566.667,-123.617 568.2,-123.85L569.5,-124L572.25,-124.3C575.85,-124.533 579.067,-123.783 581.9,-122.05C582.433,-121.817 582.917,-121.483 583.35,-121.05C585.317,-119.083 586.3,-116.3 586.3,-112.7L586,-112.25" style="fill:#2e3033;"/>
                    <path d="M556.75,-156.15L558.2,-162.05C564,-165.85 569.183,-164.267 573.75,-157.3L575.35,-163.2C584.617,-167.333 592.467,-165.217 598.9,-156.85L597.75,-152.9C590.117,-159 582.117,-160.467 573.75,-157.3C567.65,-160.7 561.983,-160.317 556.75,-156.15M609.85,-180.85C609.083,-184.117 607.833,-187.55 606.1,-191.15C640.067,-190.05 666.633,-169.683 685.8,-130.05C691.233,-115.783 694.983,-101.617 697.05,-87.55C672.983,-136.45 643.917,-167.55 609.85,-180.85" style="fill:#808286;"/>
                    <path d="M586.45,-112.85L586.3,-112.4L586,-112.25L586.3,-112.7L586.45,-112.85M586.3,-112.4L586.3,-112.7L586.3,-112.4" style="fill:#ebe4cd;fill-opacity:0.3;"/>
                    <path d="M697.05,-87.55C700.55,-62.617 698.433,-38.117 690.7,-14.05C684.933,4.25 675.883,22.317 663.55,40.15C692.083,-39.783 677.117,-101.517 618.65,-145.05C619.65,-135.05 615.683,-124.167 606.75,-112.4C604.017,-121.233 598.517,-125.867 590.25,-126.3L586.45,-112.85L586.3,-112.4L586,-112.25C585.333,-111.483 584.4,-110.767 583.2,-110.1C581.133,-109.233 578.8,-108.8 576.2,-108.8L574.05,-108.95C570.583,-109.517 567.75,-110.5 565.55,-111.9C563.383,-113.433 562.2,-115.117 562,-116.95C561.867,-117.283 561.867,-117.567 562,-117.8C561.867,-119 562.183,-120.033 562.95,-120.9L569.15,-142.15C563.283,-148.017 557.4,-146.15 551.5,-136.55L556.75,-156.15L558.2,-162.05C564,-165.85 569.183,-164.267 573.75,-157.3L575.35,-163.2C584.617,-167.333 592.467,-165.217 598.9,-156.85L597.75,-152.9C608.083,-160.433 612.117,-169.75 609.85,-180.85C609.083,-184.117 607.833,-187.55 606.1,-191.15C640.067,-190.05 666.633,-169.683 685.8,-130.05C691.233,-115.783 694.983,-101.617 697.05,-87.55M597.75,-152.9L592.2,-132.8L590.25,-126.3M562.95,-120.9L564.45,-122.2C565.417,-123.067 566.667,-123.617 568.2,-123.85L569.5,-124L572.25,-124.3C575.85,-124.533 579.067,-123.783 581.9,-122.05C582.433,-121.817 582.917,-121.483 583.35,-121.05C585.317,-119.083 586.3,-116.3 586.3,-112.7L586.45,-112.85M586.3,-112.7L586,-112.25M586.3,-112.7L586.3,-112.4M569.15,-142.15L573.75,-157.3" style="fill:none;fill-rule:nonzero;stroke:#000;stroke-opacity:0.3;stroke-width:0.05px;"/>
                    <path d="M465.75,221.8L567.85,-119.9C573.417,-121.433 578.15,-120.133 582.05,-116L481.6,227.7C477.467,219.1 472.183,217.133 465.75,221.8" style="fill:#724f33;"/>
                    <path d="M481.6,227.7C473.767,231.7 468.483,229.733 465.75,221.8C472.183,217.133 477.467,219.1 481.6,227.7" style="fill:#543a25;"/>
                    <path d="M465.75,221.8L567.85,-119.9C573.417,-121.433 578.15,-120.133 582.05,-116L481.6,227.7C473.767,231.7 468.483,229.733 465.75,221.8C472.183,217.133 477.467,219.1 481.6,227.7" style="fill:none;fill-rule:nonzero;stroke:#000;stroke-opacity:0.3;stroke-width:0.05px;"/>
                    <path d="M574.1,77.25C574.4,77.383 574.667,77.6 574.9,77.9L575.4,78.6L613.3,139.8L613.3,140L613.45,140.3L613.45,140.45C619.983,154.783 626.567,166.167 633.2,174.6L637.45,182.2C640.383,185.933 643.333,189.083 646.3,191.65C646.833,192.083 647.1,192.783 647.1,193.75C647.1,194.617 646.767,195.45 646.1,196.25C645.467,196.917 644.717,197.35 643.85,197.55C642.85,197.75 642.083,197.567 641.55,197C639.683,195.467 637.833,193.683 636,191.65C626.633,179.35 618.733,166.817 612.3,154.05L610.85,154.6C607.783,155.233 605.65,157.233 604.45,160.6C604.017,161.467 603.417,162.183 602.65,162.75C609.95,178.45 618.233,193.133 627.5,206.8C630.233,211.033 632.9,214.717 635.5,217.85C635.933,218.45 636.1,219.233 636,220.2C635.767,221.167 635.333,221.983 634.7,222.65C633.933,223.217 633.117,223.55 632.25,223.65C631.25,223.617 630.533,223.333 630.1,222.8C626.833,218.767 623.467,213.967 620,208.4C610.933,194.667 602.983,180.283 596.15,165.25L594.85,165.55C586.883,168.717 580.017,173.517 574.25,179.95C585.25,206.517 597.767,232.217 611.8,257.05L618.5,269.1C618.933,269.767 619,270.567 618.7,271.5C618.367,272.433 617.817,273.217 617.05,273.85C616.283,274.45 615.467,274.667 614.6,274.5C613.733,274.333 613.083,273.917 612.65,273.25L605.95,261.25C591.783,235.983 579.1,209.817 567.9,182.75L562.8,181.35L563,181.45C554.7,180.117 546.967,182.483 539.8,188.55C544.367,211.15 550.567,233 558.4,254.1C559.933,258.033 563.033,263.933 567.7,271.8C568.033,272.467 568.1,273.283 567.9,274.25C567.667,275.15 567.167,275.9 566.4,276.5C565.533,277 564.667,277.233 563.8,277.2C562.933,277.133 562.333,276.767 562,276.1C557,267.967 553.733,261.783 552.2,257.55C544.367,236.283 538.15,214.367 533.55,191.8L532.45,192.05C531.55,192.017 530.833,191.717 530.3,191.15C523.433,183.017 516.633,181.167 509.9,185.6C509.233,186.067 508.633,186.3 508.1,186.3C503.1,225.9 503.2,256.583 508.4,278.35C508.533,279.183 508.383,280.033 507.95,280.9C507.517,281.767 506.85,282.4 505.95,282.8C504.983,283.1 504.167,283.1 503.5,282.8C502.633,282.567 502.15,282.033 502.05,281.2C496.383,258.3 496.333,225.733 501.9,183.5L502.2,182.3L527.85,89.3C527.95,88.5 528.217,87.833 528.65,87.3C529.117,86.667 529.717,86.217 530.45,85.95L530.95,85.7L572.3,77.1L573.9,77.3L574.1,77.25M572.45,173.15C578.65,167.05 585.833,162.45 594,159.35L570,84.15L555.8,87.1L572.45,173.15M607.4,144L584.35,106.6L600.05,155.8C602.217,151.867 605.317,149.383 609.35,148.35L607.4,144M532.75,183.15L528.85,108.8L509.75,178.65C517.35,174.083 525.017,175.583 532.75,183.15M549.25,88.45L534.55,91.5L539.3,181.45C547.367,175.55 556.017,173.317 565.25,174.75L565.6,174.85L566.1,175.1L549.25,88.45" style="fill:#ebe4cd;"/>
                    <path d="M549.25,88.45L566.1,175.1L565.6,174.85L565.25,174.75C556.017,173.317 547.367,175.55 539.3,181.45L534.55,91.5L549.25,88.45M532.75,183.15C525.017,175.583 517.35,174.083 509.75,178.65L528.85,108.8L532.75,183.15M607.4,144L609.35,148.35C605.317,149.383 602.217,151.867 600.05,155.8L584.35,106.6L607.4,144M572.45,173.15L555.8,87.1L570,84.15L594,159.35C585.833,162.45 578.65,167.05 572.45,173.15" style="fill:#ebe4cd;fill-opacity:0.3;"/>
                    <path d="M574.1,77.25L573.9,77.3L572.3,77.1L530.95,85.7L530.45,85.95C529.717,86.217 529.117,86.667 528.65,87.3C528.217,87.833 527.95,88.5 527.85,89.3L502.2,182.3L501.9,183.5C496.333,225.733 496.383,258.3 502.05,281.2C502.15,282.033 502.633,282.567 503.5,282.8C504.167,283.1 504.983,283.1 505.95,282.8C506.85,282.4 507.517,281.767 507.95,280.9C508.383,280.033 508.533,279.183 508.4,278.35C503.2,256.583 503.1,225.9 508.1,186.3C508.633,186.3 509.233,186.067 509.9,185.6C516.633,181.167 523.433,183.017 530.3,191.15C530.833,191.717 531.55,192.017 532.45,192.05L533.55,191.8C538.15,214.367 544.367,236.283 552.2,257.55C553.733,261.783 557,267.967 562,276.1C562.333,276.767 562.933,277.133 563.8,277.2C564.667,277.233 565.533,277 566.4,276.5C567.167,275.9 567.667,275.15 567.9,274.25C568.1,273.283 568.033,272.467 567.7,271.8C563.033,263.933 559.933,258.033 558.4,254.1C550.567,233 544.367,211.15 539.8,188.55C546.967,182.483 554.7,180.117 563,181.45L562.8,181.35L567.9,182.75C579.1,209.817 591.783,235.983 605.95,261.25L612.65,273.25C613.083,273.917 613.733,274.333 614.6,274.5C615.467,274.667 616.283,274.45 617.05,273.85C617.817,273.217 618.367,272.433 618.7,271.5C619,270.567 618.933,269.767 618.5,269.1L611.8,257.05C597.767,232.217 585.25,206.517 574.25,179.95C580.017,173.517 586.883,168.717 594.85,165.55L596.15,165.25C602.983,180.283 610.933,194.667 620,208.4C623.467,213.967 626.833,218.767 630.1,222.8C630.533,223.333 631.25,223.617 632.25,223.65C633.117,223.55 633.933,223.217 634.7,222.65C635.333,221.983 635.767,221.167 636,220.2C636.1,219.233 635.933,218.45 635.5,217.85C632.9,214.717 630.233,211.033 627.5,206.8C618.233,193.133 609.95,178.45 602.65,162.75C603.417,162.183 604.017,161.467 604.45,160.6C605.65,157.233 607.783,155.233 610.85,154.6L612.3,154.05C618.733,166.817 626.633,179.35 636,191.65C637.833,193.683 639.683,195.467 641.55,197C642.083,197.567 642.85,197.75 643.85,197.55C644.717,197.35 645.467,196.917 646.1,196.25C646.767,195.45 647.1,194.617 647.1,193.75C647.1,192.783 646.833,192.083 646.3,191.65C643.333,189.083 640.383,185.933 637.45,182.2L633.2,174.6C626.567,166.167 619.983,154.783 613.45,140.45L613.45,140.3L613.3,140L613.3,139.8L575.4,78.6L574.9,77.9C574.667,77.6 574.4,77.383 574.1,77.25M549.25,88.45L566.1,175.1L565.6,174.85L565.25,174.75C556.017,173.317 547.367,175.55 539.3,181.45L534.55,91.5L549.25,88.45M532.75,183.15C525.017,175.583 517.35,174.083 509.75,178.65L528.85,108.8L532.75,183.15M607.4,144L609.35,148.35C605.317,149.383 602.217,151.867 600.05,155.8L584.35,106.6L607.4,144M572.45,173.15L555.8,87.1L570,84.15L594,159.35C585.833,162.45 578.65,167.05 572.45,173.15" style="fill:none;fill-rule:nonzero;stroke:#000;stroke-opacity:0.3;stroke-width:0.05px;"/>
                    <path d="M541.9,-66.55C540.067,-63.083 537.017,-59.567 532.75,-56C539.083,-21.033 545.667,9.517 552.5,35.65C541.2,14.483 531.4,-13.933 523.1,-49.6C519.733,-47.7 516.8,-46.967 514.3,-47.4L513,-63.65L540.6,-81.75C540.933,-76.583 541.367,-71.517 541.9,-66.55" style="fill:#3f131b;"/>
                    <path d="M514.3,-47.4C516.8,-46.967 519.733,-47.7 523.1,-49.6C531.4,-13.933 541.2,14.483 552.5,35.65C545.667,9.517 539.083,-21.033 532.75,-56C537.017,-59.567 540.067,-63.083 541.9,-66.55C549.633,5.45 575.55,67.717 619.65,120.25C606.917,116.317 599.467,120.467 597.3,132.7C586.833,129.767 582.033,144.15 582.9,175.85C565.467,144.85 555.717,137.9 553.65,155C547.883,139.5 538.85,139.95 526.55,156.35C523.817,139.617 516.8,133.45 505.5,137.85C514.733,69.283 517.667,7.533 514.3,-47.4M557.1,129.6L564.1,131.55L573.6,119.8L554.8,117.65L557.1,129.6" style="fill:#672130;"/>
                    <path d="M541.9,-66.55C541.367,-71.517 540.933,-76.583 540.6,-81.75L513,-63.65L514.3,-47.4C517.667,7.533 514.733,69.283 505.5,137.85C516.8,133.45 523.817,139.617 526.55,156.35C538.85,139.95 547.883,139.5 553.65,155C555.717,137.9 565.467,144.85 582.9,175.85C582.033,144.15 586.833,129.767 597.3,132.7C599.467,120.467 606.917,116.317 619.65,120.25C575.55,67.717 549.633,5.45 541.9,-66.55M557.1,129.6L554.8,117.65L573.6,119.8L564.1,131.55L557.1,129.6" style="fill:none;fill-rule:nonzero;stroke:#000;stroke-opacity:0.3;stroke-width:0.05px;"/>
                    <path d="M481.2,253.35C480.7,252.983 480.383,252.517 480.25,251.95C480.117,251.35 480.25,250.783 480.65,250.25C480.917,249.583 481.3,249.117 481.8,248.85L485.65,246.95L486.6,246.95L489.3,247.55L489.3,247.8C491.367,248.7 493.367,249.717 495.3,250.85L498.75,247.65C499.017,247.283 499.6,246.933 500.5,246.6C501.267,246.133 502.3,245.85 503.6,245.75L507.05,245.95L508.8,246.65C511.1,243.483 513.867,240.733 517.1,238.4L517.3,238.35C518.467,237.517 519.683,236.817 520.95,236.25C521.483,235.983 522,236.033 522.5,236.4C522.9,236.6 523.15,236.983 523.25,237.55C523.383,238.15 523.333,238.767 523.1,239.4L521.75,240.6C520.583,241.167 519.483,241.767 518.45,242.4C515.75,244.333 513.367,246.65 511.3,249.35L512.65,252.45C517.683,250.05 522.183,250.483 526.15,253.75L527.7,255C528.1,255.4 528.367,255.883 528.5,256.45C528.6,257.017 528.467,257.567 528.1,258.1L526.75,259.3C526.217,259.567 525.767,259.517 525.4,259.15L523.65,257.7L523.45,257.5C520.517,255.067 517.183,254.85 513.45,256.85L513.25,258.7C517.483,261 520.767,264.55 523.1,269.35L524.25,272.05C524.483,272.617 524.55,273.217 524.45,273.85L523.25,275.2C522.75,275.633 522.3,275.8 521.9,275.7C521.4,275.5 521.017,275.133 520.75,274.6L519.6,272.15C517.8,268.283 515.3,265.467 512.1,263.7C510.4,267.5 508.4,270.117 506.1,271.55C503.267,273.317 500.05,273.15 496.45,271.05L496.45,270.8L493.95,269.05C490.483,273.25 488.033,277.9 486.6,283L486.6,282.8C486.367,283.6 486.183,284.55 486.05,285.65C485.917,286.283 485.65,286.783 485.25,287.15C484.883,287.683 484.433,287.917 483.9,287.85C483.267,287.85 482.817,287.65 482.55,287.25C482.183,286.883 482.067,286.4 482.2,285.8C482.333,284.533 482.583,283.333 482.95,282.2C484.617,276.1 487.583,270.583 491.85,265.65L491.65,264.35C488.283,265.75 485.25,267.95 482.55,270.95L482.4,271L480.25,273.7C479.883,274.233 479.433,274.55 478.9,274.65C478.4,274.75 477.95,274.617 477.55,274.25C477.183,273.883 477,273.383 477,272.75C477,272.15 477.183,271.6 477.55,271.1L480.05,268.05L480.05,267.8C483.65,263.9 487.583,261.133 491.85,259.5L493,254.95C491.2,253.817 489.333,252.85 487.4,252.05L487.6,252L486.05,251.65L482.55,253.25L481.2,253.35M509.55,256.05L507.65,251.45L502.65,250.9L500.3,251.4L497.05,254.8L495.3,261.05L495.9,264.8C496.667,265.533 497.567,266.183 498.6,266.75C501.033,268.05 503.15,268.283 504.95,267.45C506.617,266.183 508.033,263.85 509.2,260.45L509.55,256.05" style="fill:#1b1716;"/>
                    <path d="M509.55,256.05L509.2,260.45C508.033,263.85 506.617,266.183 504.95,267.45C503.15,268.283 501.033,268.05 498.6,266.75C497.567,266.183 496.667,265.533 495.9,264.8L495.3,261.05L497.05,254.8L500.3,251.4L502.65,250.9L507.65,251.45L509.55,256.05" style="fill:#2c2727;"/>
                    <path d="M628.35,143.05C628.617,143.55 628.683,144.133 628.55,144.8L627.4,146.15C626.3,146.85 625.283,147.617 624.35,148.45C621.917,150.717 619.917,153.3 618.35,156.2L620.4,158.8C625.133,155.633 629.917,155.15 634.75,157.35L636.6,158.25C637.1,158.517 637.483,158.9 637.75,159.4C637.983,159.933 637.967,160.467 637.7,161L636.5,162.35L635.1,162.45L632.95,161.45L632.7,161.35C629.133,159.683 625.617,160.133 622.15,162.7L622.3,164.4C627.2,165.7 631.367,168.35 634.8,172.35L636.6,174.6C636.933,175.067 637.117,175.583 637.15,176.15L636.2,177.65C635.767,178.15 635.333,178.383 634.9,178.35C634.333,178.283 633.85,178.017 633.45,177.55L631.75,175.5C629.05,172.3 625.85,170.217 622.15,169.25C621.183,173.083 619.65,175.867 617.55,177.6C614.95,179.8 611.55,180.267 607.35,179L607.3,178.8L604.35,177.65C601.617,182.183 600.033,186.95 599.6,191.95L599.55,191.75L599.55,194.45C599.55,195.05 599.383,195.567 599.05,196C598.783,196.567 598.367,196.883 597.8,196.95C597.133,197.05 596.617,196.95 596.25,196.65C595.783,196.35 595.55,195.917 595.55,195.35C595.45,194.15 595.467,193 595.6,191.9C596.067,185.967 598.017,180.317 601.45,174.95L600.95,173.75C597.75,175.75 595.05,178.383 592.85,181.65L592.7,181.7L591,184.55C590.733,185.15 590.333,185.55 589.8,185.75L588.3,185.6C587.833,185.367 587.55,184.967 587.45,184.4C587.317,183.833 587.383,183.267 587.65,182.7C588.217,181.567 588.883,180.483 589.65,179.45L589.6,179.25C592.533,174.917 596.05,171.6 600.15,169.3L600.4,164.9C598.3,164.167 596.15,163.633 593.95,163.3L594.15,163.2L592.45,163.2L589.15,165.35C588.683,165.683 588.217,165.783 587.75,165.65C587.15,165.45 586.717,165.083 586.45,164.55C586.217,164.05 586.25,163.517 586.55,162.95C586.683,162.317 586.983,161.833 587.45,161.5L591.05,158.95L592.05,158.8L595,158.8L595.05,159L601.95,160.65L604.9,157.05C605.1,156.65 605.633,156.217 606.5,155.75C607.2,155.183 608.217,154.717 609.55,154.35C610.817,153.85 612.033,153.7 613.2,153.9L615.15,154.2C616.883,150.833 619.2,147.75 622.1,144.95L622.3,144.9L625.65,142.25L627.3,142.1C627.767,142.233 628.117,142.55 628.35,143.05M604.6,164L604.1,170.05L605.5,173.35C606.433,173.917 607.5,174.35 608.7,174.65C611.5,175.383 613.767,175.183 615.5,174.05C616.967,172.583 617.95,170.167 618.45,166.8L617.9,162.7L614.95,158.85L609.65,159.35L607.3,160.2L604.6,164" style="fill:#1b1716;"/>
                    <path d="M604.6,164L607.3,160.2L609.65,159.35L614.95,158.85L617.9,162.7L618.45,166.8C617.95,170.167 616.967,172.583 615.5,174.05C613.767,175.183 611.5,175.383 608.7,174.65C607.5,174.35 606.433,173.917 605.5,173.35L604.1,170.05L604.6,164" style="fill:#2c2727;"/>
                    <path d="M474.95,-75.45C481.917,-76.25 487.183,-71.4 490.75,-60.9L492.5,-54.6C494.4,-60.867 496.6,-65.1 499.1,-67.3L499.6,-67.5C501.467,-68.833 503.667,-69.033 506.2,-68.1C506.2,-67 506.35,-65.817 506.65,-64.55L506.75,-64.15C507.017,-63.017 507.4,-61.917 507.9,-60.85C505.867,-61.75 503.933,-61.667 502.1,-60.6C501.667,-60.6 501.283,-60.417 500.95,-60.05C498.383,-57.917 496.217,-53.667 494.45,-47.3L492.65,-53.85C487.95,-67.55 480.267,-71.583 469.6,-65.95C471.533,-67.817 473.317,-70.983 474.95,-75.45M531.65,-79.55C533.317,-82.15 535.333,-83.55 537.7,-83.75C540.667,-84.083 544.417,-82.3 548.95,-78.4L547.45,-84.7C545.783,-95.867 547.933,-103.65 553.9,-108.05C557.167,-105.65 560.067,-104.35 562.6,-104.15C551.367,-101.15 546.967,-92.233 549.4,-77.4C549.733,-75.433 550.233,-73.367 550.9,-71.2C546.4,-75.167 542.583,-76.95 539.45,-76.55C537.183,-76.383 535.183,-75 533.45,-72.4L532.9,-75.65L532.75,-75.9L531.65,-79.55" style="fill:#1b1716;"/>
                    <path d="M474.95,-75.45C476.783,-80.517 478.383,-87.017 479.75,-94.95C480.617,-99.183 481.317,-103.733 481.85,-108.6C484.817,-96.367 489,-87.733 494.4,-82.7C497.2,-80 500.467,-78.35 504.2,-77.75L506.7,-77.25L506.6,-76.65C505.833,-73.817 505.7,-70.967 506.2,-68.1C503.667,-69.033 501.467,-68.833 499.6,-67.5L499.1,-67.3C496.6,-65.1 494.4,-60.867 492.5,-54.6L490.75,-60.9C487.183,-71.4 481.917,-76.25 474.95,-75.45M526.85,-86.65L529.1,-88.75C536.733,-97.65 538.083,-111.483 533.15,-130.25L540.65,-120.9C545.55,-115.267 549.967,-110.983 553.9,-108.05C547.933,-103.65 545.783,-95.867 547.45,-84.7L548.95,-78.4C544.417,-82.3 540.667,-84.083 537.7,-83.75C535.333,-83.55 533.317,-82.15 531.65,-79.55C530.717,-82.017 529.317,-84.217 527.45,-86.15L526.85,-86.65" style="fill:#2c2727;"/>
                    <path d="M506.7,-77.25L504.2,-77.75C500.467,-78.35 497.2,-80 494.4,-82.7C489,-87.733 484.817,-96.367 481.85,-108.6C481.317,-103.733 480.617,-99.183 479.75,-94.95C478.383,-87.017 476.783,-80.517 474.95,-75.45C473.317,-70.983 471.533,-67.817 469.6,-65.95C480.267,-71.583 487.95,-67.55 492.65,-53.85L494.45,-47.3C496.217,-53.667 498.383,-57.917 500.95,-60.05C501.283,-60.417 501.667,-60.6 502.1,-60.6C503.933,-61.667 505.867,-61.75 507.9,-60.85M553.9,-108.05C549.967,-110.983 545.55,-115.267 540.65,-120.9L533.15,-130.25C538.083,-111.483 536.733,-97.65 529.1,-88.75L526.85,-86.65M553.9,-108.05C557.167,-105.65 560.067,-104.35 562.6,-104.15C551.367,-101.15 546.967,-92.233 549.4,-77.4C549.733,-75.433 550.233,-73.367 550.9,-71.2C546.4,-75.167 542.583,-76.95 539.45,-76.55C537.183,-76.383 535.183,-75 533.45,-72.4L532.9,-75.65L532.75,-75.9L531.65,-79.55" style="fill:none;fill-rule:nonzero;stroke:#000;stroke-opacity:0.3;stroke-width:0.05px;"/>
                    <path d="M528.05,-92.4C529.15,-92.167 530.15,-91.8 531.05,-91.3L533.35,-89.8L533.85,-89.45C535.75,-87.817 537.15,-85.917 538.05,-83.75L538,-80.15C537.467,-77.617 536.567,-75.183 535.3,-72.85L533.35,-69.9C531.483,-67.7 529.433,-66.05 527.2,-64.95L524.2,-63.6L523.85,-63.4L523.4,-63.4C521.233,-62.633 519.15,-62.2 517.15,-62.1L512.75,-62.9C511.717,-63.267 510.75,-63.717 509.85,-64.25C507.583,-65.417 505.75,-66.917 504.35,-68.75C503.717,-69.717 503.233,-70.7 502.9,-71.7C502.567,-74.267 502.917,-76.817 503.95,-79.35L504.2,-79.9L505.6,-82.7L507.45,-85.45C506.75,-87.483 506.383,-89.75 506.35,-92.25L506.75,-96.8L512.8,-90L515.2,-91.3L517.3,-92.05C518.833,-92.65 520.383,-92.983 521.95,-93.05L523.5,-93L528.05,-92.4L523.5,-93L521.95,-93.05L523.85,-102.5L526,-98.85C527.167,-96.85 527.85,-94.7 528.05,-92.4M507.45,-85.45C508.583,-86.783 509.733,-87.867 510.9,-88.7L511.4,-89.1L512.8,-90L511.4,-89.1L510.9,-88.7C509.733,-87.867 508.583,-86.783 507.45,-85.45" style="fill:#2c2727;"/>
                    <path d="M502.9,-71.7C503.233,-70.7 503.717,-69.717 504.35,-68.75C505.75,-66.917 507.583,-65.417 509.85,-64.25C510.75,-63.717 511.717,-63.267 512.75,-62.9L517.15,-62.1C519.15,-62.2 521.233,-62.633 523.4,-63.4L523.85,-63.4L524.2,-63.6L527.2,-64.95C529.433,-66.05 531.483,-67.7 533.35,-69.9L535.3,-72.85C536.567,-75.183 537.467,-77.617 538,-80.15L538.05,-83.75L538.95,-80.55L539.05,-80.25L539.45,-77.35L539.4,-73.6C538.967,-71.133 538.067,-68.75 536.7,-66.45L534.7,-63.5C532.967,-61.367 530.933,-59.683 528.6,-58.45L525.6,-57.1L525.25,-56.9L524.8,-56.85C522.633,-56.083 520.6,-55.733 518.7,-55.8L514.1,-56.5C513.067,-56.9 512.1,-57.35 511.2,-57.85C509.067,-58.983 507.267,-60.45 505.8,-62.25C505.133,-63.217 504.617,-64.233 504.25,-65.3C503.817,-66.233 503.467,-67.217 503.2,-68.25L503.15,-68.5C502.883,-69.667 502.8,-70.733 502.9,-71.7" style="fill:#1b1716;"/>
                    <path d="M538.05,-83.75C537.15,-85.917 535.75,-87.817 533.85,-89.45L533.35,-89.8L531.05,-91.3C530.15,-91.8 529.15,-92.167 528.05,-92.4L523.5,-93L521.95,-93.05C520.383,-92.983 518.833,-92.65 517.3,-92.05L515.2,-91.3L512.8,-90L511.4,-89.1L510.9,-88.7C509.733,-87.867 508.583,-86.783 507.45,-85.45L505.6,-82.7L504.2,-79.9L503.95,-79.35C502.917,-76.817 502.567,-74.267 502.9,-71.7C502.8,-70.733 502.883,-69.667 503.15,-68.5L503.2,-68.25C503.467,-67.217 503.817,-66.233 504.25,-65.3C504.617,-64.233 505.133,-63.217 505.8,-62.25C507.267,-60.45 509.067,-58.983 511.2,-57.85C512.1,-57.35 513.067,-56.9 514.1,-56.5L518.7,-55.8C520.6,-55.733 522.633,-56.083 524.8,-56.85L525.25,-56.9L525.6,-57.1L528.6,-58.45C530.933,-59.683 532.967,-61.367 534.7,-63.5L536.7,-66.45C538.067,-68.75 538.967,-71.133 539.4,-73.6L539.45,-77.35L539.05,-80.25L538.95,-80.55L538.05,-83.75M512.8,-90L506.75,-96.8L506.35,-92.25C506.383,-89.75 506.75,-87.483 507.45,-85.45M521.95,-93.05L523.85,-102.5L526,-98.85C527.167,-96.85 527.85,-94.7 528.05,-92.4" style="fill:none;fill-rule:nonzero;stroke:#000;stroke-opacity:0.3;stroke-width:0.05px;"/>
                </g>
            </g>
        </g>
    </g>
</svg>
