<?xml version="1.0" encoding="UTF-8" standalone="no"?>
<!DOCTYPE svg PUBLIC "-//W3C//DTD SVG 1.1//EN" "http://www.w3.org/Graphics/SVG/1.1/DTD/svg11.dtd">
<svg width="100%" height="100%" viewBox="0 0 22 27" version="1.1" xmlns="http://www.w3.org/2000/svg" xmlns:xlink="http://www.w3.org/1999/xlink" xml:space="preserve" xmlns:serif="http://www.serif.com/" style="fill-rule:evenodd;clip-rule:evenodd;stroke-linecap:round;stroke-linejoin:round;">
    <g id="sprite0" transform="matrix(1,0,0,1,0.15,0.15)">
        <g>
            <g id="shape0">
                <path d="M13.75,10.3L12.45,9.9L12.4,9.9L12.6,10L13.35,10.65L13.4,10.7L14.2,11.9L20.6,13.2L15.3,13.2L14.9,13.95L15.15,15.3L15.05,16.25L14.2,18.5L13.8,19L13.4,19.4L13.5,18.7L13.2,17.7C12.867,19.167 12.05,19.883 10.75,19.85L10.25,20.05L12,25.95L7.8,19.15L8.1,19.1L7.45,18.75L6.5,17.95L6.45,17.95L5.65,17L6.75,17.3L7.1,17.2C6.167,16.467 5.433,15.683 4.9,14.85L0.35,12.7L4.15,13.2L3.85,11.9L3.8,11.65C3.733,10.55 3.933,9.383 4.4,8.15C4.433,8.617 4.517,8.983 4.65,9.25L4.9,9.7L5,9.75C4.833,8.883 5.017,8.15 5.55,7.55L4.15,0.35L6.95,6.5L7.2,6.5C7.9,6.333 8.6,6.333 9.3,6.5C10.5,6.8 11.683,7.583 12.85,8.85L13.9,10.4L13.75,10.3" style="fill:rgb(40,10,2);"/>
                <path d="M13.75,10.3L12.45,9.9L12.4,9.9L12.6,10L13.35,10.65L13.4,10.7L14.2,11.9L20.6,13.2L15.3,13.2L14.9,13.95L15.15,15.3L15.05,16.25L14.2,18.5L13.8,19L13.4,19.4L13.5,18.7L13.2,17.7C12.867,19.167 12.05,19.883 10.75,19.85L10.25,20.05L12,25.95L7.8,19.15L8.1,19.1L7.45,18.75L6.5,17.95L6.45,17.95L5.65,17L6.75,17.3L7.1,17.2C6.167,16.467 5.433,15.683 4.9,14.85L0.35,12.7L4.15,13.2L3.85,11.9L3.8,11.65C3.733,10.55 3.933,9.383 4.4,8.15C4.433,8.617 4.517,8.983 4.65,9.25L4.9,9.7L5,9.75C4.833,8.883 5.017,8.15 5.55,7.55L4.15,0.35L6.95,6.5L7.2,6.5C7.9,6.333 8.6,6.333 9.3,6.5C10.5,6.8 11.683,7.583 12.85,8.85L13.9,10.4L13.75,10.3Z" style="fill:none;fill-rule:nonzero;stroke:rgb(40,10,2);stroke-width:1px;"/>
                <path d="M12.5,9.9L12.4,9.9L12.6,10L12.85,10.3L13.4,11L13.9,11.8L13.05,11.4L12.4,11.35L13.35,12.05L13.9,12.85L14.65,14.5C14.483,15.267 14.2,15.967 13.8,16.6L12.95,17.5L13.05,16.35L12.8,15.75L12.7,16.05C12.067,18.283 10.167,18.533 7,16.8L6.05,16.05L5.2,15.1L5.7,15.3C6.133,15.433 6.467,15.433 6.7,15.3L5.95,14.65C5.017,13.783 4.333,12.867 3.9,11.9L3.85,11.75L4.4,9.55L4.55,10.35C4.65,10.783 4.8,11.067 5,11.2C4.733,9.7 5.467,8.617 7.2,7.95C8.967,7.517 10.733,8.167 12.5,9.9M11.25,11.9L10.8,11.2C9.933,10.267 9.067,9.9 8.2,10.1C7.433,10.4 7.117,10.9 7.25,11.6L6.95,10.85C6.35,12.45 6.767,13.817 8.2,14.95L7.5,14.9L7.9,15.3L8.35,15.65C9.817,16.483 10.683,16.333 10.95,15.2L11.05,16L11.4,15.55L11.85,14.1C11.683,13.1 11.4,12.4 11,12L10.6,11.65L11.25,11.9" style="fill:rgb(193,217,223);fill-opacity:0.85;"/>
                <path d="M11.25,11.9L10.6,11.65L11,12C11.4,12.4 11.683,13.1 11.85,14.1L11.4,15.55L11.05,16L10.95,15.2C10.683,16.333 9.817,16.483 8.35,15.65L7.9,15.3L7.5,14.9L8.2,14.95C6.767,13.817 6.35,12.45 6.95,10.85L7.25,11.6C7.117,10.9 7.433,10.4 8.2,10.1C9.067,9.9 9.933,10.267 10.8,11.2L11.25,11.9M10,12.2C9.6,11.733 9.183,11.567 8.75,11.7C8.383,11.833 8.233,12.067 8.3,12.4L8.15,12.05C7.85,12.817 8.05,13.467 8.75,14L8.4,13.95L8.8,14.35C9.533,14.717 9.95,14.633 10.05,14.1L10.1,14.5L10.3,14.3L10.5,13.6L10.1,12.55L9.9,12.4L10.2,12.5L10,12.2" style="fill:rgb(213,235,189);fill-opacity:0.85;"/>
                <path d="M12.6,10L13.35,10.6L13.45,10.7L14.3,12.15L14.75,13.4L14.65,14.5L13.9,12.85L13.35,12.05L12.4,11.35L13.05,11.4L13.9,11.8L13.4,11L12.85,10.3L12.6,10M3.85,11.75L3.85,11.65C3.75,10.55 3.933,9.383 4.4,8.15C4.433,8.617 4.517,8.983 4.65,9.25L4.9,9.7L5,9.75C4.733,8.25 5.467,7.167 7.2,6.5C9.1,6.033 10.983,6.817 12.85,8.85L13.9,10.4L13.75,10.3L12.5,9.9C10.733,8.167 8.967,7.517 7.2,7.95C5.467,8.617 4.733,9.7 5,11.2C4.8,11.067 4.65,10.783 4.55,10.35L4.4,9.55L3.85,11.75M10,12.2L10.2,12.5L9.9,12.4L10.1,12.55L10.5,13.6L10.3,14.3L10.1,14.5L10.05,14.1C9.95,14.633 9.533,14.717 8.8,14.35L8.4,13.95L8.75,14C8.05,13.467 7.85,12.817 8.15,12.05L8.3,12.4C8.233,12.067 8.383,11.833 8.75,11.7C9.183,11.567 9.6,11.733 10,12.2" style="fill:rgb(240,254,254);fill-opacity:0.85;"/>
                <path d="M14.75,13.4L15.15,15.3L15.1,16.25C14.933,17.083 14.633,17.833 14.2,18.5L13.85,19L13.4,19.4L13.5,18.7L13.2,17.65C12.633,20.15 10.717,20.5 7.45,18.7L6.5,17.95L5.65,17L6.75,17.3L7.1,17.2C6.067,16.367 5.267,15.467 4.7,14.5C4.233,13.7 3.95,12.833 3.85,11.9L3.85,11.75L3.9,11.9C4.333,12.867 5.017,13.783 5.95,14.65L6.7,15.3C6.467,15.433 6.133,15.433 5.7,15.3L5.2,15.1L6.05,16.05L7,16.8C10.167,18.533 12.067,18.283 12.7,16.05L12.8,15.75L13.05,16.35L12.95,17.5L13.8,16.6C14.2,15.967 14.483,15.267 14.65,14.5L14.75,13.4" style="fill:rgb(149,179,187);fill-opacity:0.5;"/>
                <path d="M11.25,11.9L10.6,11.65L11,12C11.4,12.4 11.683,13.1 11.85,14.1L11.4,15.55L11.05,16L10.95,15.2C10.683,16.333 9.817,16.483 8.35,15.65L7.9,15.3L7.5,14.9L8.2,14.95C6.767,13.817 6.35,12.45 6.95,10.85L7.25,11.6C7.117,10.9 7.433,10.4 8.2,10.1C9.067,9.9 9.933,10.267 10.8,11.2L11.25,11.9" style="fill:none;fill-rule:nonzero;stroke:white;stroke-opacity:0.15;stroke-width:0.05px;"/>
                <path d="M12.5,9.9L12.4,9.9L12.6,10L13.35,10.6L13.45,10.7L14.3,12.15L14.75,13.4L15.15,15.3L15.1,16.25C14.933,17.083 14.633,17.833 14.2,18.5L13.85,19L13.4,19.4L13.5,18.7L13.2,17.65C12.633,20.15 10.717,20.5 7.45,18.7L6.5,17.95L5.65,17L6.75,17.3L7.1,17.2C6.067,16.367 5.267,15.467 4.7,14.5C4.233,13.7 3.95,12.833 3.85,11.9L3.85,11.65C3.75,10.55 3.933,9.383 4.4,8.15C4.433,8.617 4.517,8.983 4.65,9.25L4.9,9.7L5,9.75C4.733,8.25 5.467,7.167 7.2,6.5C9.1,6.033 10.983,6.817 12.85,8.85L13.9,10.4L13.75,10.3L12.5,9.9Z" style="fill:none;fill-rule:nonzero;stroke:black;stroke-opacity:0.24;stroke-width:0.05px;"/>
                <path d="M15.3,12.85L17.35,12.85L13.4,12.1L13.9,13.45L13.9,13.6L13.8,13.8L13.6,13.85L10.8,13.85L13.7,15.4L15,13.05L15.15,12.9L15.3,12.85M10.05,19L8.35,19.35L11.05,23.75L9.95,20.15L10,19.95L10.15,19.8L11.65,19.15L10.15,16.45L10.3,18.7L10.25,18.9L10.05,19M5.7,13.2L7.25,13.2L5.15,11.65L5.15,13.3L5.1,13.45L5,13.6L4.8,13.6L2.35,13.3L5.85,14.95L5.4,13.65L5.4,13.45L5.55,13.3C5.583,13.233 5.633,13.2 5.7,13.2M9.35,15.05L9.4,14.8L9.6,14.7L9.8,14.7L9.95,14.85L12.35,19.15L12.4,19.35L12.35,19.5L12.2,19.6L10.65,20.25L12.3,25.85L12.3,26.1L12.15,26.25L11.9,26.25L11.75,26.1L7.55,19.3L7.5,19.1L7.6,18.9L7.75,18.8L9.65,18.45L9.35,15.05M7.7,7.4L7.8,7.5L8.95,9.75L8.95,6.8L6.95,6.8L6.8,6.75L6.65,6.6L4.95,2.9L5.8,7.35L7.55,7.35L7.7,7.4M4.55,11.05L4.6,10.8L4.8,10.7L5.05,10.8L8.35,13.3L8.45,13.45L8.45,13.65L8.35,13.8L8.15,13.85L6.15,13.85L6.65,15.45L6.65,15.65L6.45,15.8L6.25,15.8L0.25,13L0.05,12.85L0.05,12.65L0.2,12.45L0.4,12.4L4.55,12.95L4.55,11.05M7.15,6.15L9.3,6.15L9.5,6.25L9.6,6.5L9.6,11.05L9.5,11.2L9.35,11.35L9.15,11.3L9,11.2L7.35,7.95L5.55,7.95L5.35,7.9L5.25,7.7L3.85,0.4L3.9,0.2L4.05,0.05L4.25,0.05L4.45,0.25L7.15,6.15M20.65,12.9L20.85,13L20.9,13.2L20.8,13.45L20.6,13.5L15.45,13.5L14.1,15.95L13.9,16.1L13.7,16.1L9.35,13.8L9.2,13.65L9.2,13.45L9.3,13.3L9.5,13.2L13.15,13.2L12.6,11.8L12.6,11.55L12.75,11.4L12.95,11.35L20.65,12.9" style="fill:rgb(219,191,112);fill-opacity:0.24;"/>
                <path d="M9.3,6.5L9.3,11.05L7.55,7.65L5.55,7.65L4.15,0.35L6.95,6.5L9.3,6.5M6.35,15.5L0.35,12.7L4.85,13.3L4.85,11.05L8.15,13.55L5.7,13.55L6.35,15.5M10,18.7L9.7,15L12.05,19.3L10.25,20.05L12,25.95L7.8,19.15L10,18.7M13.8,15.8L9.5,13.55L13.6,13.55L12.9,11.65L20.6,13.2L15.3,13.2L13.8,15.8" style="fill:rgb(240,254,254);"/>
                <path d="M9.3,6.5L9.3,11.05L7.55,7.65L5.55,7.65L4.15,0.35L6.95,6.5L9.3,6.5M6.35,15.5L0.35,12.7L4.85,13.3L4.85,11.05L8.15,13.55L5.7,13.55L6.35,15.5M10,18.7L9.7,15L12.05,19.3L10.25,20.05L12,25.95L7.8,19.15L10,18.7M13.8,15.8L9.5,13.55L13.6,13.55L12.9,11.65L20.6,13.2L15.3,13.2L13.8,15.8Z" style="fill:none;fill-rule:nonzero;stroke:rgb(219,191,112);stroke-width:0.05px;"/>
            </g>
        </g>
    </g>
</svg>
