<?xml version="1.0" encoding="UTF-8" standalone="no"?>
<!DOCTYPE svg PUBLIC "-//W3C//DTD SVG 1.1//EN" "http://www.w3.org/Graphics/SVG/1.1/DTD/svg11.dtd">
<svg width="100%" height="100%" viewBox="0 0 19 45" version="1.1" xmlns="http://www.w3.org/2000/svg" xmlns:xlink="http://www.w3.org/1999/xlink" xml:space="preserve" xmlns:serif="http://www.serif.com/" style="fill-rule:evenodd;clip-rule:evenodd;stroke-linecap:round;stroke-linejoin:round;">
    <g transform="matrix(1,0,0,1,0.0228571,0)">
        <g transform="matrix(1,0,0,1,9.25,21.95)">
            <g id="sprite0">
                <g id="sprite1">
                    <g id="shape0">
                        <path d="M6,-21.95L6.3,-20.75L6.3,-19.1L5,-17.8L5.35,-18.75L6,-21.95M3.6,-14.4L3.25,-14.55L2.95,-14.65C2.05,-14.983 2.333,-15.733 3.8,-16.9L5,-17.75C4.2,-16.883 3.85,-16.15 3.95,-15.55C3.95,-15.117 4.133,-14.817 4.5,-14.65L5.95,-14.9C6.483,-16.033 6.883,-17.217 7.15,-18.45L7.45,-15.9C7.317,-15.2 6.683,-14.667 5.55,-14.3L5.9,-14L5.95,-13.9C6.15,-13.2 5.883,-12.3 5.15,-11.2L4.65,-10.6L5.3,-10.6C6.433,-10.567 7.183,-10.8 7.55,-11.3C7.117,-10.467 6.317,-10 5.15,-9.9L4.25,-8.8C3.717,-8 3.283,-7.117 2.95,-6.15C2.483,-4.883 2.2,-3.467 2.1,-1.9L1.5,-0.75L2,1.15L6.75,13.4L6.75,13.35C6.817,13.117 6.983,12.983 7.25,12.95L7.3,13L7.45,13L7.7,13.05L8.2,13.3L8.25,13.4C8.85,14.333 8.867,15.65 8.3,17.35L7.35,19.45L7.25,19.7L7.2,19.8L7.3,19.9L8,20.75L8.35,21.25L8.8,22L7.8,21.85L7.15,21.7L7,21.65L6.2,21.4L5.1,20.95L-3.6,21.3L-4.55,21L-4.6,21L-4.7,20.9L-4.8,20.5L-4.75,20.25L-4.7,20.25L-4.7,20.2L-4.35,19.9L-3.75,19.6L-4.1,19.5L-4.35,15.8L-4.4,14.5L-7.75,18.45L-8.6,19.3C-8.967,15.1 -8.75,10.633 -7.95,5.9C-6.05,4.4 -4.683,2.5 -3.85,0.2C-3.517,-3.067 -3.017,-6.35 -2.35,-9.65L-3.05,-9.3L-2.25,-10L-1.9,-11.85L-1,-10.6L0.05,-10.75C0.383,-11.15 0.7,-11.917 1,-13.05L0.95,-10.7L1.75,-10.65L1.5,-11.45C1.4,-12.317 1.883,-13.15 2.95,-13.95L3.6,-14.35L3.6,-14.4M6.7,-18L6.25,-17.4L6.35,-18.65L6.7,-18M5.55,-17.05L6,-16.65L5.95,-15.95L5.5,-15.4L4.9,-15.25C4.7,-15.317 4.55,-15.467 4.45,-15.7L4.5,-16.35C4.6,-16.617 4.75,-16.817 4.95,-16.95L5.55,-17.05M4.6,-13.45L4.35,-13.85L3.8,-13.35C3.3,-12.75 3.033,-12.083 3,-11.35L3,-11.05L3.45,-11.3C4.317,-11.9 4.733,-12.483 4.7,-13.05L4.6,-13.45" style="fill:#280a02;"/>
                        <path d="M3.6,-14.4L3.25,-14.55L2.95,-14.65C2.05,-14.983 2.333,-15.733 3.8,-16.9L5,-17.75C4.2,-16.883 3.85,-16.15 3.95,-15.55C3.95,-15.117 4.133,-14.817 4.5,-14.65L5.95,-14.9C6.483,-16.033 6.883,-17.217 7.15,-18.45L7.45,-15.9C7.317,-15.2 6.683,-14.667 5.55,-14.3L5.9,-14L5.95,-13.9C6.15,-13.2 5.883,-12.3 5.15,-11.2L4.65,-10.6L5.3,-10.6C6.433,-10.567 7.183,-10.8 7.55,-11.3C7.117,-10.467 6.317,-10 5.15,-9.9L4.25,-8.8C3.717,-8 3.283,-7.117 2.95,-6.15C2.483,-4.883 2.2,-3.467 2.1,-1.9L1.5,-0.75L2,1.15L6.75,13.4L6.75,13.35C6.817,13.117 6.983,12.983 7.25,12.95L7.3,13L7.45,13L7.7,13.05L8.2,13.3L8.25,13.4C8.85,14.333 8.867,15.65 8.3,17.35L7.35,19.45L7.25,19.7L7.2,19.8L7.3,19.9L8,20.75L8.35,21.25L8.8,22L7.8,21.85L7.15,21.7L7,21.65L6.2,21.4L5.1,20.95L-3.6,21.3L-4.55,21L-4.6,21L-4.7,20.9L-4.8,20.5L-4.75,20.25L-4.7,20.25L-4.7,20.2L-4.35,19.9L-3.75,19.6L-4.1,19.5L-4.35,15.8L-4.4,14.5L-7.75,18.45L-8.6,19.3C-8.967,15.1 -8.75,10.633 -7.95,5.9C-6.05,4.4 -4.683,2.5 -3.85,0.2C-3.517,-3.067 -3.017,-6.35 -2.35,-9.65L-3.05,-9.3L-2.25,-10L-1.9,-11.85L-1,-10.6L0.05,-10.75C0.383,-11.15 0.7,-11.917 1,-13.05L0.95,-10.7L1.75,-10.65L1.5,-11.45C1.4,-12.317 1.883,-13.15 2.95,-13.95L3.6,-14.35L3.6,-14.4M4.6,-13.45L4.7,-13.05C4.733,-12.483 4.317,-11.9 3.45,-11.3L3,-11.05L3,-11.35C3.033,-12.083 3.3,-12.75 3.8,-13.35L4.35,-13.85L4.6,-13.45" style="fill:none;fill-rule:nonzero;stroke:#280a02;stroke-width:1px;"/>
                    </g>
                </g>
                <g id="sprite2" transform="matrix(0.0919,0,0,0.0918,-47.5048,-3.09933)">
                    <g id="shape1">
                        <path d="M470,92.5C473.567,31.033 482.267,-31.617 496.1,-95.45C508.567,-70.983 519.05,-75.3 527.55,-108.4C526.783,-60.7 527.717,-23.183 530.35,4.15L470,92.5M538.45,46.4L591.4,182.45C602.733,252.617 562.983,273.85 472.15,246.15C471.017,232.883 470.117,219.5 469.45,206C491.983,201.933 507.75,190.967 516.75,173.1L538.45,46.4" style="fill:#575c8f;"/>
                        <path d="M530.35,4.15C532.217,23.25 534.917,37.333 538.45,46.4L516.75,173.1C507.75,190.967 491.983,201.933 469.45,206C467.583,168.633 467.767,130.8 470,92.5L530.35,4.15" style="fill:#393956;"/>
                        <path d="M470,92.5C473.567,31.033 482.267,-31.617 496.1,-95.45C508.567,-70.983 519.05,-75.3 527.55,-108.4C526.783,-60.7 527.717,-23.183 530.35,4.15C532.217,23.25 534.917,37.333 538.45,46.4L591.4,182.45C602.733,252.617 562.983,273.85 472.15,246.15C471.017,232.883 470.117,219.5 469.45,206C467.583,168.633 467.767,130.8 470,92.5Z" style="fill:none;fill-rule:nonzero;stroke:#000;stroke-opacity:0.3;stroke-width:0.05px;"/>
                        <path d="M600.7,176.05C602.133,176.517 603.683,177.233 605.35,178.2L606,178.5L606.8,179.75C613.1,190.083 613.167,204.433 607,222.8C604.567,229.8 601.233,237.45 597,245.75L595.7,248.2L595.1,249.3L596.2,250.45C599.1,253.817 601.667,256.983 603.9,259.95L607.75,265.25C609.883,268.383 611.517,271.2 612.65,273.7C609.517,273.6 605.917,273.033 601.85,272L594.9,270.15L592.9,269.55L584.45,266.75L572.5,262.05C531.233,268.983 499.583,270.167 477.55,265.6C473.917,264.8 470.533,263.867 467.4,262.8L466.7,262.6L465.8,261.3C464.9,259.733 464.483,258.267 464.55,256.9L468.2,258.1L478.5,260.25C500.233,263.783 530.3,262.3 568.7,255.8C578.233,259.767 586.583,262.75 593.75,264.75L602.75,266.8L588.55,248.25L591.45,243.2L591.35,243.05L593,239.95L597.85,230L599.4,225.85L600.7,222.5C606.767,205.6 607.733,191.967 603.6,181.6L602.8,179.7L600.7,176.05M584.45,266.75L584.7,266.65L592.9,269.55L584.7,266.65L584.45,266.75" style="fill:#926e18;"/>
                        <path d="M464.55,256.9C464.65,256.033 464.933,255.183 465.4,254.35C465.4,254.217 465.45,254.133 465.55,254.1L465.7,253.9L468.3,254.1C514.833,258.233 551.067,256.083 577,247.65C591.767,226.383 598.017,202.2 595.75,175.1L596.5,175.15L597.95,175.3C598.75,175.4 599.667,175.65 600.7,176.05L602.8,179.7L603.6,181.6C607.733,191.967 606.767,205.6 600.7,222.5L599.4,225.85L597.85,230L593,239.95L591.35,243.05L591.45,243.2L588.55,248.25L602.75,266.8L593.75,264.75C586.583,262.75 578.233,259.767 568.7,255.8C530.3,262.3 500.233,263.783 478.5,260.25L468.2,258.1L464.55,256.9" style="fill:#e3b635;"/>
                        <path d="M465.7,253.9C466.5,252.6 467.783,251.45 469.55,250.45C471.317,249.283 473.533,248.233 476.2,247.3L480.6,247.8C525.367,252.167 555.5,250.667 571,243.3C576.2,238.5 580.383,232.45 583.55,225.15L584.85,221.85C589.083,210.45 590.85,196.283 590.15,179.35C591.217,176.617 593.083,175.2 595.75,175.1C598.017,202.2 591.767,226.383 577,247.65C551.067,256.083 514.833,258.233 468.3,254.1L465.7,253.9" style="fill:#fde346;"/>
                        <path d="M600.7,176.05C602.133,176.517 603.683,177.233 605.35,178.2L606,178.5L606.8,179.75C613.1,190.083 613.167,204.433 607,222.8C604.567,229.8 601.233,237.45 597,245.75L595.7,248.2L595.1,249.3L596.2,250.45C599.1,253.817 601.667,256.983 603.9,259.95L607.75,265.25C609.883,268.383 611.517,271.2 612.65,273.7C609.517,273.6 605.917,273.033 601.85,272L594.9,270.15L592.9,269.55L584.45,266.75L572.5,262.05C531.233,268.983 499.583,270.167 477.55,265.6C473.917,264.8 470.533,263.867 467.4,262.8L466.7,262.6L465.8,261.3C464.9,259.733 464.483,258.267 464.55,256.9C464.65,256.033 464.933,255.183 465.4,254.35C465.4,254.217 465.45,254.133 465.55,254.1L465.7,253.9C466.5,252.6 467.783,251.45 469.55,250.45C471.317,249.283 473.533,248.233 476.2,247.3L480.6,247.8C525.367,252.167 555.5,250.667 571,243.3C576.2,238.5 580.383,232.45 583.55,225.15L584.85,221.85C589.083,210.45 590.85,196.283 590.15,179.35C591.217,176.617 593.083,175.2 595.75,175.1L596.5,175.15L597.95,175.3C598.75,175.4 599.667,175.65 600.7,176.05M465.7,253.9L468.3,254.1M592.9,269.55L584.7,266.65L584.45,266.75" style="fill:none;fill-rule:nonzero;stroke:#000;stroke-opacity:0.3;stroke-width:0.05px;"/>
                        <path d="M526.85,-64.15L553.85,-62.8L548.9,-33.3C543.867,-19.433 540.75,-4.05 539.55,12.85C521.183,45.283 514.183,78.233 518.55,111.7C494.55,158.667 465.867,199.7 432.5,234.8C429.467,192 432.067,146.583 440.3,98.55C468,76.517 485.267,46.367 492.1,8.1L492.25,7.7L492.95,2.95C496.517,0.45 499.85,-2.217 502.95,-5.05L503.4,-5.5C518.6,-20.1 526.433,-39.5 526.9,-63.7C526.833,-63.833 526.817,-63.983 526.85,-64.15M497.85,121.6L502.05,34.95L450.2,108.25L441.35,196.4L497.85,121.6" style="fill:#a7b4b7;"/>
                        <path d="M517.25,-64.6L526.85,-64.15C526.817,-63.983 526.833,-63.833 526.9,-63.7C526.433,-39.5 518.6,-20.1 503.4,-5.5L502.95,-5.05C499.85,-2.217 496.517,0.45 492.95,2.95L492.25,7.7L492.1,8.1C485.267,46.367 468,76.517 440.3,98.55C432.067,146.583 429.467,192 432.5,234.8L423.6,243.85C419.4,198.283 421.717,149.7 430.55,98.1C459.517,75.1 477.083,43.217 483.25,2.45C501.15,-9.817 511.967,-26.733 515.7,-48.3L515.7,-48.5L515.75,-48.6L515.75,-48.7C516.583,-53.667 517.067,-58.817 517.2,-64.15L517.25,-64.6" style="fill:#d4e6e9;"/>
                        <path d="M548.9,-33.3L553.85,-62.8L526.85,-64.15L517.25,-64.6C517.283,-68.967 517.083,-73.5 516.65,-78.2L573.65,-75.35C569.95,-71.25 566.55,-66.9 563.45,-62.3L563.15,-61.85C557.35,-53.183 552.6,-43.667 548.9,-33.3" style="fill:#5f676a;"/>
                        <path d="M502.05,34.95L497.85,121.6L475.65,127.3L502.05,34.95" style="fill:#37cae6;"/>
                        <path d="M502.05,34.95L475.65,127.3L450.2,108.25L502.05,34.95" style="fill:#47fffe;"/>
                        <path d="M441.35,196.4L450.2,108.25L475.65,127.3L441.35,196.4" style="fill:#207483;"/>
                        <path d="M475.65,127.3L497.85,121.6L441.35,196.4L475.65,127.3" style="fill:#195b67;"/>
                        <path d="M548.9,-33.3C552.6,-43.667 557.35,-53.183 563.15,-61.85L563.45,-62.3C566.55,-66.9 569.95,-71.25 573.65,-75.35L516.65,-78.2C517.083,-73.5 517.283,-68.967 517.25,-64.6L517.2,-64.15C517.067,-58.817 516.583,-53.667 515.75,-48.7M432.5,234.8C465.867,199.7 494.55,158.667 518.55,111.7C514.183,78.233 521.183,45.283 539.55,12.85C540.75,-4.05 543.867,-19.433 548.9,-33.3M515.7,-48.3C511.967,-26.733 501.15,-9.817 483.25,2.45C477.083,43.217 459.517,75.1 430.55,98.1C421.717,149.7 419.4,198.283 423.6,243.85L432.5,234.8M497.85,121.6L502.05,34.95L450.2,108.25L441.35,196.4L497.85,121.6" style="fill:none;fill-rule:nonzero;stroke:#000;stroke-opacity:0.3;stroke-width:0.05px;"/>
                        <path d="M515.75,-48.6L515.7,-48.5" style="fill:none;fill-rule:nonzero;stroke:#f00;stroke-width:0.05px;"/>
                        <path d="M585.3,-192.1C585.933,-186.833 586.083,-180.833 585.75,-174.1C581.883,-167.9 577.133,-163.167 571.5,-159.9L575,-170.55C578.467,-174.45 581.9,-181.633 585.3,-192.1M577.55,-122.05C579.117,-121.15 580.267,-119.967 581,-118.5L581.5,-117.45C583.967,-109.85 581.067,-100.1 572.8,-88.2C571.3,-86.033 569.6,-83.783 567.7,-81.45C561.4,-81.383 555.383,-81.4 549.65,-81.5L549.35,-86.35L549.65,-81.5L535.8,-82.2C534.367,-85.2 533.517,-88.15 533.25,-91.05L549.5,-89.95C549.367,-88.783 549.317,-87.583 549.35,-86.35L554.35,-89.55L563.6,-88.9C567.2,-89.6 570.55,-92.85 573.65,-98.65C576.65,-107.483 577.7,-113.517 576.8,-116.75L567.05,-112.6C566.383,-114.267 565.383,-115.8 564.05,-117.2L564.6,-117.65L566.45,-119.25C570.517,-120.083 574.217,-121.017 577.55,-122.05M559,-73.5L550.8,-67.45L551.25,-63.6L553.1,-47.25L549.1,-42.35L551.25,-63.6L534.45,-65.9L536.85,-68.65L535.15,-70.8L531,-76C541.033,-74.3 550.367,-73.467 559,-73.5M581.7,-128.5C587.633,-140.733 591.9,-153.55 594.5,-166.95C596.467,-160.117 597.567,-150.967 597.8,-139.5C593.033,-134.3 587.667,-130.633 581.7,-128.5" style="fill:#2d3036;"/>
                        <path d="M577.6,-152.1C579.767,-151.5 581.25,-150.067 582.05,-147.8C582.983,-145.433 582.95,-142.917 581.95,-140.25C580.917,-137.583 579.233,-135.5 576.9,-134C574.6,-132.433 572.367,-131.967 570.2,-132.6C568,-133.2 566.45,-134.667 565.55,-137C564.783,-139.333 564.9,-141.85 565.9,-144.55C566.967,-147.183 568.6,-149.25 570.8,-150.75C573.133,-152.217 575.4,-152.667 577.6,-152.1M576.7,-150.55C575.5,-150.883 574.2,-150.633 572.8,-149.8C571.567,-148.9 570.667,-147.7 570.1,-146.2C569.533,-144.667 569.467,-143.233 569.9,-141.9C570.367,-140.567 571.25,-139.767 572.55,-139.5C573.783,-139.1 575.067,-139.333 576.4,-140.2C577.7,-141.033 578.65,-142.25 579.25,-143.85C579.85,-145.283 579.867,-146.683 579.3,-148.05C578.833,-149.383 577.967,-150.217 576.7,-150.55M536.85,-42L528,-26.5L526.85,-46.4L536.85,-42" style="fill:#207483;"/>
                        <path d="M576.7,-150.55C577.967,-150.217 578.833,-149.383 579.3,-148.05C579.867,-146.683 579.85,-145.283 579.25,-143.85C578.65,-142.25 577.7,-141.033 576.4,-140.2C575.067,-139.333 573.783,-139.1 572.55,-139.5C571.25,-139.767 570.367,-140.567 569.9,-141.9C569.467,-143.233 569.533,-144.667 570.1,-146.2C570.667,-147.7 571.567,-148.9 572.8,-149.8C574.2,-150.633 575.5,-150.883 576.7,-150.55M526.85,-46.4L540.3,-55.75L536.85,-42L526.85,-46.4" style="fill:#47fffe;"/>
                        <path d="M585.3,-192.1C581.9,-181.633 578.467,-174.45 575,-170.55C578.5,-182.25 580.933,-193.783 582.3,-205.15C583.667,-201.417 584.667,-197.067 585.3,-192.1M584.95,-156L586.3,-169.45L589.8,-162.5L584.95,-156M567.7,-81.45L574.5,-81.55C586.8,-81.15 595.05,-83.783 599.25,-89.45C594.217,-79.617 584.417,-74.483 569.85,-74.05L559,-73.5C550.367,-73.467 541.033,-74.3 531,-76L527.4,-76.65C510.667,-78.383 496.033,-75.433 483.5,-67.8C492.5,-78.467 505.033,-83.683 521.1,-83.45L535.8,-82.2L549.65,-81.5C555.383,-81.4 561.4,-81.383 567.7,-81.45M549.1,-42.35L520.7,-7.05L518.3,-48.2L534.45,-65.9L551.25,-63.6L549.1,-42.35M533.25,-91.05C532.317,-100.583 537.567,-109.567 549,-118C551.1,-119.6 553.417,-121.133 555.95,-122.6L556.35,-122.85L552.55,-124.65C546.15,-131.183 548.133,-139.75 558.5,-150.35C562,-153.183 566.2,-156.283 571.1,-159.65C562.533,-150.25 558.733,-142.217 559.7,-135.55C559.967,-130.85 562,-127.633 565.8,-125.9C571.867,-126.033 577.167,-126.9 581.7,-128.5C587.667,-130.633 593.033,-134.3 597.8,-139.5C596.667,-131.9 589.917,-126.083 577.55,-122.05C574.217,-121.017 570.517,-120.083 566.45,-119.25L564.6,-117.65L564.05,-117.2C561.95,-115.433 560.083,-113.6 558.45,-111.7C552.95,-105.3 549.967,-98.05 549.5,-89.95L533.25,-91.05M567.05,-112.6L576.8,-116.75C577.7,-113.517 576.65,-107.483 573.65,-98.65C570.55,-92.85 567.2,-89.6 563.6,-88.9L554.35,-89.55C563.917,-96.083 568.483,-102.333 568.05,-108.3C567.917,-109.8 567.583,-111.233 567.05,-112.6M565.8,-125.9L561.65,-125.9L556.35,-122.85L561.65,-125.9L565.8,-125.9M528,-26.5L544.85,-44.5L540.3,-55.75L526.85,-46.4L528,-26.5" style="fill:#4e5562;"/>
                        <path d="M552.55,-124.65L549.3,-126C539.467,-129.533 542.533,-137.65 558.5,-150.35C548.133,-139.75 546.15,-131.183 552.55,-124.65" style="fill:#666d76;"/>
                        <path d="M544.85,-44.5L528,-26.5L536.85,-42L544.85,-44.5" style="fill:#195b67;"/>
                        <path d="M544.85,-44.5L536.85,-42L540.3,-55.75L544.85,-44.5" style="fill:#37cae6;"/>
                        <path d="M575,-170.55L571.5,-159.9C577.133,-163.167 581.883,-167.9 585.75,-174.1C586.083,-180.833 585.933,-186.833 585.3,-192.1C584.667,-197.067 583.667,-201.417 582.3,-205.15C580.933,-193.783 578.5,-182.25 575,-170.55M577.6,-152.1C579.767,-151.5 581.25,-150.067 582.05,-147.8C582.983,-145.433 582.95,-142.917 581.95,-140.25C580.917,-137.583 579.233,-135.5 576.9,-134C574.6,-132.433 572.367,-131.967 570.2,-132.6C568,-133.2 566.45,-134.667 565.55,-137C564.783,-139.333 564.9,-141.85 565.9,-144.55C566.967,-147.183 568.6,-149.25 570.8,-150.75C573.133,-152.217 575.4,-152.667 577.6,-152.1M571.1,-159.65L571.4,-159.8L571.5,-159.9M584.95,-156L589.8,-162.5L586.3,-169.45L584.95,-156M577.55,-122.05C579.117,-121.15 580.267,-119.967 581,-118.5L581.5,-117.45C583.967,-109.85 581.067,-100.1 572.8,-88.2C571.3,-86.033 569.6,-83.783 567.7,-81.45L574.5,-81.55C586.8,-81.15 595.05,-83.783 599.25,-89.45C594.217,-79.617 584.417,-74.483 569.85,-74.05L559,-73.5L550.8,-67.45L551.25,-63.6L553.1,-47.25L549.1,-42.35L520.7,-7.05L518.3,-48.2L534.45,-65.9M535.15,-70.8L531,-76L527.4,-76.65C510.667,-78.383 496.033,-75.433 483.5,-67.8C492.5,-78.467 505.033,-83.683 521.1,-83.45L535.8,-82.2C534.367,-85.2 533.517,-88.15 533.25,-91.05C532.317,-100.583 537.567,-109.567 549,-118C551.1,-119.6 553.417,-121.133 555.95,-122.6L556.35,-122.85L552.55,-124.65L549.3,-126C539.467,-129.533 542.533,-137.65 558.5,-150.35C562,-153.183 566.2,-156.283 571.1,-159.65C562.533,-150.25 558.733,-142.217 559.7,-135.55C559.967,-130.85 562,-127.633 565.8,-125.9C571.867,-126.033 577.167,-126.9 581.7,-128.5C587.633,-140.733 591.9,-153.55 594.5,-166.95C596.467,-160.117 597.567,-150.967 597.8,-139.5C596.667,-131.9 589.917,-126.083 577.55,-122.05C574.217,-121.017 570.517,-120.083 566.45,-119.25L564.6,-117.65L564.05,-117.2C565.383,-115.8 566.383,-114.267 567.05,-112.6C567.583,-111.233 567.917,-109.8 568.05,-108.3C568.483,-102.333 563.917,-96.083 554.35,-89.55L549.35,-86.35L549.65,-81.5C555.383,-81.4 561.4,-81.383 567.7,-81.45M581.7,-128.5C587.667,-130.633 593.033,-134.3 597.8,-139.5M556.35,-122.85L561.65,-125.9L565.8,-125.9M564.05,-117.2C561.95,-115.433 560.083,-113.6 558.45,-111.7C552.95,-105.3 549.967,-98.05 549.5,-89.95C549.367,-88.783 549.317,-87.583 549.35,-86.35M549.65,-81.5L535.8,-82.2M531,-76C541.033,-74.3 550.367,-73.467 559,-73.5M528,-26.5L544.85,-44.5L540.3,-55.75L526.85,-46.4L528,-26.5" style="fill:none;fill-rule:nonzero;stroke:#000;stroke-opacity:0.3;stroke-width:0.05px;"/>
                    </g>
                </g>
            </g>
        </g>
    </g>
</svg>
