<?xml version="1.0" encoding="UTF-8" standalone="no"?>
<!DOCTYPE svg PUBLIC "-//W3C//DTD SVG 1.1//EN" "http://www.w3.org/Graphics/SVG/1.1/DTD/svg11.dtd">
<svg width="100%" height="100%" viewBox="0 0 22 38" version="1.1" xmlns="http://www.w3.org/2000/svg" xmlns:xlink="http://www.w3.org/1999/xlink" xml:space="preserve" xmlns:serif="http://www.serif.com/" style="fill-rule:evenodd;clip-rule:evenodd;stroke-linecap:round;stroke-linejoin:round;">
    <g id="sprite0" transform="matrix(1,0,0,1,10.7,18.75)">
        <g>
            <g id="shape0">
                <path d="M0.65,-18.25C1.35,-17.483 2.283,-16.017 3.45,-13.85L4.5,-9.9L5.3,-5.7L6.7,0.6C8.167,4.233 9.35,7.883 10.25,11.55L6.45,11.3C6.017,13.567 4.95,15.517 3.25,17.15C3.65,14.683 3.467,12.8 2.7,11.5C1.933,10.2 1,10.033 -0.1,11C-1.2,11.967 -1.733,12.867 -1.7,13.7C-1.667,14.533 -1.033,15.167 0.2,15.6C-1.233,16.933 -2.817,17.317 -4.55,16.75C-5.417,17.483 -6.267,17.95 -7.1,18.15L-7.3,16.7L-8.5,18.25C-9.067,18.183 -9.633,17.967 -10.2,17.6C-8.733,15.833 -7.017,11.05 -5.05,3.25L-4.95,3.15C-4.583,-1.75 -4.7,-6.083 -5.3,-9.85C-5.567,-11.583 -6.05,-13.267 -6.75,-14.9C-6.417,-15.5 -5.933,-15.917 -5.3,-16.15C-3.067,-15.95 -1.6,-16.567 -0.9,-18L0.65,-18.25" style="fill:rgb(40,10,2);"/>
                <path d="M0.65,-18.25C1.35,-17.483 2.283,-16.017 3.45,-13.85L4.5,-9.9L5.3,-5.7L6.7,0.6C8.167,4.233 9.35,7.883 10.25,11.55L6.45,11.3C6.017,13.567 4.95,15.517 3.25,17.15C3.65,14.683 3.467,12.8 2.7,11.5C1.933,10.2 1,10.033 -0.1,11C-1.2,11.967 -1.733,12.867 -1.7,13.7C-1.667,14.533 -1.033,15.167 0.2,15.6C-1.233,16.933 -2.817,17.317 -4.55,16.75C-5.417,17.483 -6.267,17.95 -7.1,18.15L-7.3,16.7L-8.5,18.25C-9.067,18.183 -9.633,17.967 -10.2,17.6C-8.733,15.833 -7.017,11.05 -5.05,3.25L-4.95,3.15C-4.583,-1.75 -4.7,-6.083 -5.3,-9.85C-5.567,-11.583 -6.05,-13.267 -6.75,-14.9C-6.417,-15.5 -5.933,-15.917 -5.3,-16.15C-3.067,-15.95 -1.6,-16.567 -0.9,-18L0.65,-18.25Z" style="fill:none;fill-rule:nonzero;stroke:rgb(40,10,2);stroke-width:1px;"/>
            </g>
            <g id="sprite1" transform="matrix(0.0919,0,0,0.0918,-49.4049,-7.39959)">
                <g id="shape1">
                    <path d="M483.75,114.9C487.65,61.467 486.35,14.233 479.85,-26.8C476.883,-45.433 471.667,-63.667 464.2,-81.5C467.867,-88.167 473.15,-92.817 480.05,-95.45C504.117,-93.083 520.1,-99.733 528,-115.4C532.433,-117.933 538.083,-118.883 544.95,-118.25C552.283,-109.95 562.267,-94.033 574.9,-70.5C580.2,-57.033 584.117,-42.65 586.65,-27.35C589.317,-11.85 592.117,3.5 595.05,18.7C597.65,29.367 602.867,52.267 610.7,87.4L617.4,117.75C608.267,137.583 600.133,150.367 593,156.1C580.067,166.533 562.633,173.183 540.7,176.05C528.1,174.983 517.067,171.1 507.6,164.4C498.233,157.667 489.5,150.167 481.4,141.9L483.75,114.9M544.6,33.05C547.1,35.917 550.083,38.417 553.55,40.55C556.417,39.417 558.333,37.7 559.3,35.4C564,28.367 566.917,15.517 568.05,-3.15C569.583,-22.117 568.317,-38.8 564.25,-53.2C560.117,-67.533 555.683,-81.767 550.95,-95.9C548.217,-77.633 543.167,-64.967 535.8,-57.9C518.167,-53.933 500.633,-54.7 483.2,-60.2L488.7,-51.05L530.25,-3.95L544.6,33.05L548.05,42.7L552.85,48.9L548.05,42.7L544.6,33.05M513.95,145.25L515.1,119.65C515.033,106.65 514.633,94.267 513.9,82.5L513.5,77.7C511.767,63.067 509.7,48.417 507.3,33.75C505.167,19.45 502.05,5.467 497.95,-8.2C496.083,-14.833 493.7,-21.333 490.8,-27.7C493.7,-21.333 496.083,-14.833 497.95,-8.2C502.05,5.467 505.167,19.45 507.3,33.75C509.7,48.417 511.767,63.067 513.5,77.7L513.9,82.5C514.633,94.267 515.033,106.65 515.1,119.65L513.95,145.25M507.2,-0.5C512.5,12.6 518.35,25.717 524.75,38.85L528.7,46C532.267,53.367 535.583,60.817 538.65,68.35C541.583,75.75 544.3,83.217 546.8,90.75C551.8,104.55 557.15,117.35 562.85,129.15C562.85,129.483 563,129.783 563.3,130.05C568.667,121.417 572.4,112.65 574.5,103.75C577.067,93.183 578,82.367 577.3,71.3L575.2,4.9C574.4,36.233 569.05,55.233 559.15,61.9L558.05,59.85C559.517,63.05 557.183,61.7 551.05,55.8C545.217,50.5 529.05,26.683 502.55,-15.65C504.55,-8.183 506.1,-3.133 507.2,-0.5" style="fill:rgb(81,67,64);"/>
                    <path d="M488.7,-51.05L483.2,-60.2C500.633,-54.7 518.167,-53.933 535.8,-57.9C543.167,-64.967 548.217,-77.633 550.95,-95.9C555.683,-81.767 560.117,-67.533 564.25,-53.2C568.317,-38.8 569.583,-22.117 568.05,-3.15C566.917,15.517 564,28.367 559.3,35.4C558.333,37.7 556.417,39.417 553.55,40.55C550.083,38.417 547.1,35.917 544.6,33.05L530.25,-3.95L488.7,-51.05M507.2,-0.5C506.1,-3.133 504.55,-8.183 502.55,-15.65C529.05,26.683 545.217,50.5 551.05,55.8C557.183,61.7 559.517,63.05 558.05,59.85L559.15,61.9C569.05,55.233 574.4,36.233 575.2,4.9L577.3,71.3C578,82.367 577.067,93.183 574.5,103.75C572.4,112.65 568.667,121.417 563.3,130.05C563,129.783 562.85,129.483 562.85,129.15C557.15,117.35 551.8,104.55 546.8,90.75C544.3,83.217 541.583,75.75 538.65,68.35C535.583,60.817 532.267,53.367 528.7,46L524.75,38.85C518.35,25.717 512.5,12.6 507.2,-0.5" style="fill:rgb(51,40,37);"/>
                    <path d="M610.7,87.4C626.7,126.833 639.533,166.467 649.2,206.3C635.267,202.267 621.55,201.417 608.05,203.75C603.35,228.517 591.65,249.733 572.95,267.4C577.417,240.667 575.467,220.233 567.1,206.1C558.633,191.967 548.383,190.117 536.35,200.55C524.317,211.017 518.583,220.8 519.15,229.9C519.483,239.033 526.417,245.933 539.95,250.6C524.25,265.167 507.033,269.417 488.3,263.35C478.7,271.05 469.45,276.033 460.55,278.3L457.95,262.6L445.35,279.3C438.883,278.633 432.683,276.367 426.75,272.5C442.75,253.267 461.467,201.167 482.9,116.2L483.75,114.9L481.4,141.9C489.5,150.167 498.233,157.667 507.6,164.4C517.067,171.1 528.1,174.983 540.7,176.05C562.633,173.183 580.067,166.533 593,156.1C600.133,150.367 608.267,137.583 617.4,117.75L610.7,87.4" style="fill:url(#_Radial1);"/>
                    <path d="M483.75,114.9C487.65,61.467 486.35,14.233 479.85,-26.8C476.883,-45.433 471.667,-63.667 464.2,-81.5C467.867,-88.167 473.15,-92.817 480.05,-95.45C504.117,-93.083 520.1,-99.733 528,-115.4C532.433,-117.933 538.083,-118.883 544.95,-118.25C552.283,-109.95 562.267,-94.033 574.9,-70.5C580.2,-57.033 584.117,-42.65 586.65,-27.35C589.317,-11.85 592.117,3.5 595.05,18.7C597.65,29.367 602.867,52.267 610.7,87.4C626.7,126.833 639.533,166.467 649.2,206.3C635.267,202.267 621.55,201.417 608.05,203.75C603.35,228.517 591.65,249.733 572.95,267.4C577.417,240.667 575.467,220.233 567.1,206.1C558.633,191.967 548.383,190.117 536.35,200.55C524.317,211.017 518.583,220.8 519.15,229.9C519.483,239.033 526.417,245.933 539.95,250.6C524.25,265.167 507.033,269.417 488.3,263.35C478.7,271.05 469.45,276.033 460.55,278.3L457.95,262.6L445.35,279.3C438.883,278.633 432.683,276.367 426.75,272.5C442.75,253.267 461.467,201.167 482.9,116.2M483.75,114.9L481.4,141.9M617.4,117.75L610.7,87.4" style="fill:none;fill-rule:nonzero;stroke:black;stroke-opacity:0.3;stroke-width:0.05px;"/>
                    <path d="M544.6,33.05L548.05,42.7L552.85,48.9M490.8,-27.7C493.7,-21.333 496.083,-14.833 497.95,-8.2C502.05,5.467 505.167,19.45 507.3,33.75C509.7,48.417 511.767,63.067 513.5,77.7L513.9,82.5C514.633,94.267 515.033,106.65 515.1,119.65L513.95,145.25M544.6,33.05L530.25,-3.95L488.7,-51.05" style="fill:none;fill-rule:nonzero;stroke:black;stroke-opacity:0.2;stroke-width:0.05px;"/>
                </g>
            </g>
        </g>
    </g>
    <defs>
        <radialGradient id="_Radial1" cx="0" cy="0" r="1" gradientUnits="userSpaceOnUse" gradientTransform="matrix(192.348,6.47168,-52.3469,179.978,544.9,95.2)"><stop offset="0" style="stop-color:rgb(81,67,64);stop-opacity:1"/><stop offset="0.53" style="stop-color:rgb(81,67,64);stop-opacity:1"/><stop offset="1" style="stop-color:rgb(56,45,42);stop-opacity:1"/></radialGradient>
    </defs>
</svg>
