<?xml version="1.0" encoding="UTF-8" standalone="no"?>
<!DOCTYPE svg PUBLIC "-//W3C//DTD SVG 1.1//EN" "http://www.w3.org/Graphics/SVG/1.1/DTD/svg11.dtd">
<svg width="100%" height="100%" viewBox="0 0 21 40" version="1.1" xmlns="http://www.w3.org/2000/svg" xmlns:xlink="http://www.w3.org/1999/xlink" xml:space="preserve" xmlns:serif="http://www.serif.com/" style="fill-rule:evenodd;clip-rule:evenodd;stroke-linecap:round;stroke-linejoin:round;">
    <g id="sprite0" transform="matrix(1,0,0,1,10.35,19.65)">
        <g>
            <g id="shape0">
                <path d="M-2.7,-17.95L-2.6,-17.8L-2.45,-17.6L-2.4,-17.55L-2.35,-17.45L-2.3,-17.4L-2.05,-17.1L-0.5,-19.15L0.1,-17.65L0.5,-15.3L1.4,-14.95L1.6,-13.3L4.35,-11.15C4.283,-10.65 4,-10.017 3.5,-9.25L4,-8.9C4.2,-8.333 4.25,-7.583 4.15,-6.65L6.45,-3.55C6.283,-2.983 5.867,-2.517 5.2,-2.15L6.15,-0.5C6.617,0.533 6.833,1.65 6.8,2.85L6.6,2.95C7.3,3.417 7.95,4 8.55,4.7C8.317,5.2 7.833,5.667 7.1,6.1L8.2,6.85L7.45,9.3L9.9,13.55L9.45,13.55L8.65,13.45L8.55,13.45L7.95,13.3L7.5,13.15L8.05,14.15L4.95,13.85L3.7,17L3,16.7L2.6,16.5L2.55,16.4L2.55,16.6L2.65,17.4L2.65,17.45L2.7,18.1L-1.65,16.5L-4.15,19.15L-4.5,17.95L-5.35,18.5L-5.5,18.6L-5.65,18.6L-5.95,18.75L-6.1,18.75L-6.6,18.85L-7.65,18.95L-8.35,18.9L-8.3,18.85C-7.667,17.583 -7.567,16.533 -8,15.7C-8.433,15.833 -8.95,15.717 -9.55,15.35C-8.55,14.783 -8.083,13.5 -8.15,11.5C-8.15,10.4 -8.45,9.6 -9.05,9.1L-8.25,8.35L-9.6,7.05L-9.3,6.3L-9.25,6.2L-9.1,3.25C-8.967,2.217 -8.717,1.35 -8.35,0.65C-8.883,0.617 -9.383,0.417 -9.85,0.05C-9.383,-0.483 -8.817,-1.583 -8.15,-3.25C-8.783,-4.05 -9.1,-4.917 -9.1,-5.85C-8.8,-6.117 -8.467,-6.25 -8.1,-6.25C-8.633,-7.583 -9.167,-8.217 -9.7,-8.15C-9.433,-8.983 -8.767,-9.867 -7.7,-10.8C-7.6,-11.5 -7.817,-12.267 -8.35,-13.1L-8.1,-13.25L-8.05,-13.3L-6.9,-13.35L-8.25,-15.85L-8.25,-15.9L-8.2,-15.9L-6.5,-15.85L-6.2,-15.8L-5.75,-15.7L-5.6,-15.65L-4.6,-15.25L-4.4,-15.8L-3.65,-17.4L-3.6,-17.4L-3.55,-17.5L-3,-18.2L-2.7,-17.95" style="fill:rgb(40,10,2);"/>
                <path d="M-2.7,-17.95L-2.6,-17.8L-2.45,-17.6L-2.4,-17.55L-2.35,-17.45L-2.3,-17.4L-2.05,-17.1L-0.5,-19.15L0.1,-17.65L0.5,-15.3L1.4,-14.95L1.6,-13.3L4.35,-11.15C4.283,-10.65 4,-10.017 3.5,-9.25L4,-8.9C4.2,-8.333 4.25,-7.583 4.15,-6.65L6.45,-3.55C6.283,-2.983 5.867,-2.517 5.2,-2.15L6.15,-0.5C6.617,0.533 6.833,1.65 6.8,2.85L6.6,2.95C7.3,3.417 7.95,4 8.55,4.7C8.317,5.2 7.833,5.667 7.1,6.1L8.2,6.85L7.45,9.3L9.9,13.55L9.45,13.55L8.65,13.45L8.55,13.45L7.95,13.3L7.5,13.15L8.05,14.15L4.95,13.85L3.7,17L3,16.7L2.6,16.5L2.55,16.4L2.55,16.6L2.65,17.4L2.65,17.45L2.7,18.1L-1.65,16.5L-4.15,19.15L-4.5,17.95L-5.35,18.5L-5.5,18.6L-5.65,18.6L-5.95,18.75L-6.1,18.75L-6.6,18.85L-7.65,18.95L-8.35,18.9L-8.3,18.85C-7.667,17.583 -7.567,16.533 -8,15.7C-8.433,15.833 -8.95,15.717 -9.55,15.35C-8.55,14.783 -8.083,13.5 -8.15,11.5C-8.15,10.4 -8.45,9.6 -9.05,9.1L-8.25,8.35L-9.6,7.05L-9.3,6.3L-9.25,6.2L-9.1,3.25C-8.967,2.217 -8.717,1.35 -8.35,0.65C-8.883,0.617 -9.383,0.417 -9.85,0.05C-9.383,-0.483 -8.817,-1.583 -8.15,-3.25C-8.783,-4.05 -9.1,-4.917 -9.1,-5.85C-8.8,-6.117 -8.467,-6.25 -8.1,-6.25C-8.633,-7.583 -9.167,-8.217 -9.7,-8.15C-9.433,-8.983 -8.767,-9.867 -7.7,-10.8C-7.6,-11.5 -7.817,-12.267 -8.35,-13.1L-8.1,-13.25L-8.05,-13.3L-6.9,-13.35L-8.25,-15.85L-8.25,-15.9L-8.2,-15.9L-6.5,-15.85L-6.2,-15.8L-5.75,-15.7L-5.6,-15.65L-4.6,-15.25L-4.4,-15.8L-3.65,-17.4L-3.6,-17.4L-3.55,-17.5L-3,-18.2L-2.7,-17.95Z" style="fill:none;fill-rule:nonzero;stroke:rgb(40,10,2);stroke-width:1px;"/>
            </g>
            <g id="sprite1" transform="matrix(0.0919,0,0,0.0918,-51.7553,-6.39961)">
                <g id="shape1">
                    <path d="M458.55,146.3C459.25,143.767 460.467,141.083 462.2,138.25L462.55,137.45C462.083,125.35 462.533,114.517 463.9,104.95C465.4,93.883 468.117,84.417 472.05,76.55C466.283,76.317 460.967,74.2 456.1,70.2C461.2,64.433 467.267,52.55 474.3,34.55C467.6,25.517 464.133,15.95 463.9,5.85C467.5,2.883 471.25,1.517 475.15,1.75C469.383,-12.683 463.617,-19.583 457.85,-18.95C460.517,-28.217 467.733,-37.9 479.5,-48C480.667,-55.567 478.3,-63.933 472.4,-73.1C473.2,-73.833 474.117,-74.4 475.15,-74.8L475.5,-74.95C478.5,-76.217 482.667,-76.483 488,-75.75C480.733,-85.35 475.933,-94.4 473.6,-102.9L473.6,-103.05L473.45,-103.7L474.15,-103.7C480.017,-104.533 486.067,-104.367 492.3,-103.2L495.45,-102.6L500.45,-101.35L502.35,-100.7C505.817,-99.533 509.35,-98.117 512.95,-96.45C513.617,-98.55 514.367,-100.55 515.2,-102.45C517.733,-109.383 520.55,-115.167 523.65,-119.8L523.85,-119.95L524.35,-120.75C526.317,-123.783 528.45,-126.3 530.75,-128.3L533.55,-125.8L534.95,-124.2L536.65,-122L536.65,-121.85L537.2,-121.2L540.3,-116.3L540.45,-116L540.3,-116.5L537.7,-120.6L540.8,-116.3L557.6,-139.05C560.267,-134.217 562.467,-128.75 564.2,-122.65C566.267,-115.05 567.717,-106.467 568.55,-96.9C572.117,-96.6 575.4,-95.333 578.4,-93.1C579.9,-87.333 580.65,-81.283 580.65,-74.95C594.05,-67.383 603.933,-59.6 610.3,-51.6C609.833,-46.133 606.767,-39.3 601.1,-31.1L606.8,-27C608.767,-21 609.233,-12.95 608.2,-2.85L633.5,31.1C631.533,37.3 626.917,42.4 619.65,46.4L630,64.05C635.2,75.517 637.683,87.783 637.45,100.85L635.05,101.65C642.783,107.017 649.933,113.483 656.5,121.05C640.8,113.983 629.383,107.883 622.25,102.75L620.65,101.65L623.1,100.85L623.1,96.25L632.25,96.25C627.983,79.317 621.3,61.6 612.2,43.1L612.2,42.9L611.85,42.3L611.65,42.15C615.35,38.883 617.833,35.2 619.1,31.1L593.8,-2.85C594.867,-12.95 594.417,-21 592.45,-27L591.75,-27.45C591.75,-27.683 591.8,-27.85 591.9,-27.95C592.5,-30.15 592.85,-32.15 592.95,-33.95L591.9,-35.2C595.5,-41.2 597.467,-46.35 597.8,-50.65C591.467,-58.65 581.6,-66.45 568.2,-74.05C568.2,-80.35 567.45,-86.4 565.95,-92.2C563.183,-94.3 560.183,-95.5 556.95,-95.8L556.75,-96.45L556.4,-97.55L555.7,-100.05L552.75,-108.45L551.05,-112.7L538.75,-89.35L536.15,-93.1L535.8,-93.75L535.45,-94.05L535.45,-94.25C533.383,-97.183 531.817,-99.067 530.75,-99.9C526.383,-94.433 522.517,-85.7 519.15,-73.7L517.8,-67.55C513.067,-69.883 508.5,-71.417 504.1,-72.15L501.65,-72.45C496.817,-72.883 492.083,-72.35 487.45,-70.85L487.65,-70.4C489.383,-62.4 493.2,-54.083 499.1,-45.45C493.533,-45.883 489.533,-44.567 487.1,-41.5C491.733,-33.4 493.767,-25.617 493.2,-18.15C484.4,-7.417 479.033,2.517 477.1,11.65C481.467,10.417 486.017,16.467 490.75,29.8C487.75,29.933 484.917,31.567 482.25,34.7C482.483,44.4 485.317,53.25 490.75,61.25C485.45,79.017 481.067,91 477.6,97.2C479.333,98.8 481.233,100.017 483.3,100.85L482.6,104.95C481.233,114.517 480.783,125.35 481.25,137.45C479.283,140.617 471.717,143.567 458.55,146.3M538.2,-89.2L538.2,-89.35L537.6,-90.55C537.833,-90.05 538.1,-89.65 538.4,-89.35L538.2,-89.2M631.4,102.6L635.05,101.65L631.4,102.6" style="fill:rgb(182,198,207);"/>
                    <path d="M656.5,121.05C653.633,126.417 648.267,131.467 640.4,136.2C644.1,138.5 648.083,141.283 652.35,144.55L644.25,171.25L671.05,217.3L665.9,217.15L657.55,216.35L656,216.05L649.6,214.65L644.9,213.05L650.65,223.8L617.2,220.45L603.7,255.05C600.8,253.983 598.25,252.867 596.05,251.7L593.45,250.3L591.75,249.2L590.9,248.55L591.2,250.45L591.75,254.9L592.1,259.45L592.1,259.75L592.6,266.85L545.15,249.35L517.8,278.55L513.95,265C511.317,267.5 508.267,269.6 504.8,271.3C504.2,271.5 503.683,271.767 503.25,272.1L501.85,272.55L498.2,273.8L496.65,274.15L491.3,275.25L479.85,276L472.25,275.85C472.25,275.75 472.3,275.7 472.4,275.7L472.75,275.1C479.783,261.2 480.817,249.833 475.85,241C471.25,242.133 465.65,240.867 459.05,237.2C469.917,230.767 475.117,216.617 474.65,194.75C474.417,182.85 471.067,174.217 464.6,168.85L473.25,160.95C466.317,156.35 461.417,151.467 458.55,146.3C471.717,143.567 479.283,140.617 481.25,137.45C480.783,125.35 481.233,114.517 482.6,104.95L483.3,100.85C481.233,100.017 479.333,98.8 477.6,97.2C481.067,91 485.45,79.017 490.75,61.25C485.317,53.25 482.483,44.4 482.25,34.7C484.917,31.567 487.75,29.933 490.75,29.8C486.017,16.467 481.467,10.417 477.1,11.65C479.033,2.517 484.4,-7.417 493.2,-18.15C493.767,-25.617 491.733,-33.4 487.1,-41.5C489.533,-44.567 493.533,-45.883 499.1,-45.45C493.2,-54.083 489.383,-62.4 487.65,-70.4L487.45,-70.85C492.083,-72.35 496.817,-72.883 501.65,-72.45L504.1,-72.15C508.5,-71.417 513.067,-69.883 517.8,-67.55L519.15,-73.7C522.517,-85.7 526.383,-94.433 530.75,-99.9C531.817,-99.067 533.383,-97.183 535.45,-94.25L535.45,-94.05L535.8,-93.75L536.15,-93.1L538.75,-89.35L551.05,-112.7L552.75,-108.45L555.7,-100.05L556.4,-97.55L556.75,-96.45L556.95,-95.8C560.183,-95.5 563.183,-94.3 565.95,-92.2C567.45,-86.4 568.2,-80.35 568.2,-74.05C581.6,-66.45 591.467,-58.65 597.8,-50.65C597.467,-46.35 595.5,-41.2 591.9,-35.2L592.95,-33.95C592.85,-32.15 592.5,-30.15 591.9,-27.95C591.8,-27.85 591.75,-27.683 591.75,-27.45L592.45,-27C594.417,-21 594.867,-12.95 593.8,-2.85L619.1,31.1C617.833,35.2 615.35,38.883 611.65,42.15L611.85,42.3L612.2,42.9L612.2,43.1C621.3,61.6 627.983,79.317 632.25,96.25L623.1,96.25L623.1,100.85L620.65,101.65L622.25,102.75C629.383,107.883 640.8,113.983 656.5,121.05M538.2,-89.2L538.4,-89.35C538.1,-89.65 537.833,-90.05 537.6,-90.55L538.2,-89.35L538.2,-89.2M587.75,235.8L589.3,241C589.9,243.4 590.433,245.917 590.9,248.55C590.433,245.917 589.9,243.4 589.3,241L587.75,235.8" style="fill:rgb(112,136,152);"/>
                    <path d="M619.65,46.4C623.917,52.067 627.367,57.95 630,64.05L619.65,46.4" style="fill:url(#_Radial1);"/>
                    <path d="M458.55,146.3C459.25,143.767 460.467,141.083 462.2,138.25L462.55,137.45C462.083,125.35 462.533,114.517 463.9,104.95C465.4,93.883 468.117,84.417 472.05,76.55C466.283,76.317 460.967,74.2 456.1,70.2C461.2,64.433 467.267,52.55 474.3,34.55C467.6,25.517 464.133,15.95 463.9,5.85C467.5,2.883 471.25,1.517 475.15,1.75C469.383,-12.683 463.617,-19.583 457.85,-18.95C460.517,-28.217 467.733,-37.9 479.5,-48C480.667,-55.567 478.3,-63.933 472.4,-73.1C473.2,-73.833 474.117,-74.4 475.15,-74.8L475.5,-74.95C478.5,-76.217 482.667,-76.483 488,-75.75C480.733,-85.35 475.933,-94.4 473.6,-102.9L473.6,-103.05L473.45,-103.7L474.15,-103.7C480.017,-104.533 486.067,-104.367 492.3,-103.2L495.45,-102.6L500.45,-101.35L502.35,-100.7C505.817,-99.533 509.35,-98.117 512.95,-96.45C513.617,-98.55 514.367,-100.55 515.2,-102.45C517.733,-109.383 520.55,-115.167 523.65,-119.8L523.85,-119.95L524.35,-120.75C526.317,-123.783 528.45,-126.3 530.75,-128.3L533.55,-125.8L534.95,-124.2L536.65,-122L536.65,-121.85L537.2,-121.2L537.7,-120.6L540.8,-116.3L557.6,-139.05C560.267,-134.217 562.467,-128.75 564.2,-122.65C566.267,-115.05 567.717,-106.467 568.55,-96.9C572.117,-96.6 575.4,-95.333 578.4,-93.1C579.9,-87.333 580.65,-81.283 580.65,-74.95C594.05,-67.383 603.933,-59.6 610.3,-51.6C609.833,-46.133 606.767,-39.3 601.1,-31.1L606.8,-27C608.767,-21 609.233,-12.95 608.2,-2.85L633.5,31.1C631.533,37.3 626.917,42.4 619.65,46.4C623.917,52.067 627.367,57.95 630,64.05C635.2,75.517 637.683,87.783 637.45,100.85L635.05,101.65C642.783,107.017 649.933,113.483 656.5,121.05C653.633,126.417 648.267,131.467 640.4,136.2C644.1,138.5 648.083,141.283 652.35,144.55L644.25,171.25L671.05,217.3L665.9,217.15L657.55,216.35L656,216.05L649.6,214.65L644.9,213.05L650.65,223.8L617.2,220.45L603.7,255.05C600.8,253.983 598.25,252.867 596.05,251.7L593.45,250.3L591.75,249.2L590.9,248.55L591.2,250.45L591.75,254.9L592.1,259.45L592.1,259.75L592.6,266.85L545.15,249.35L517.8,278.55L513.95,265C511.317,267.5 508.267,269.6 504.8,271.3C504.2,271.5 503.683,271.767 503.25,272.1L501.85,272.55L498.2,273.8L496.65,274.15L491.3,275.25L479.85,276L472.25,275.85C472.25,275.75 472.3,275.7 472.4,275.7L472.75,275.1C479.783,261.2 480.817,249.833 475.85,241C471.25,242.133 465.65,240.867 459.05,237.2C469.917,230.767 475.117,216.617 474.65,194.75C474.417,182.85 471.067,174.217 464.6,168.85L473.25,160.95C466.317,156.35 461.417,151.467 458.55,146.3M537.2,-121.2L540.3,-116.3L540.45,-116L540.3,-116.5L537.7,-120.6M635.05,101.65L631.4,102.6M590.9,248.55C590.433,245.917 589.9,243.4 589.3,241L587.75,235.8" style="fill:none;fill-rule:nonzero;stroke:black;stroke-opacity:0.3;stroke-width:0.05px;"/>
                    <path d="M618.45,97.9C626.083,124.8 630.933,152.85 633,182.05C600.767,215.417 554.917,232.75 495.45,234.05C492.45,202.783 491.133,167.633 491.5,128.6C491.5,123.033 491.55,117.483 491.65,111.95L492,95.25C493.267,34.85 497.25,-24.15 503.95,-81.75C523.35,-97.783 542.75,-105.167 562.15,-103.9C585.85,-42.3 604.617,24.633 618.45,96.9L618.45,97.9" style="fill:rgb(83,70,50);"/>
                    <path d="M618.45,96.9C604.617,24.633 585.85,-42.3 562.15,-103.9C542.75,-105.167 523.35,-97.783 503.95,-81.75C497.25,-24.15 493.267,34.85 492,95.25L491.65,111.95C491.55,117.483 491.5,123.033 491.5,128.6C491.133,167.633 492.45,202.783 495.45,234.05C554.917,232.75 600.767,215.417 633,182.05C630.933,152.85 626.083,124.8 618.45,97.9" style="fill:none;fill-rule:nonzero;stroke:black;stroke-opacity:0.3;stroke-width:0.05px;"/>
                    <path d="M507.4,-63C522.067,-53.3 532.683,-48 539.25,-47.1C544.783,-46.367 550.733,-46.6 557.1,-47.8C562.767,-62.167 564.267,-74.467 561.6,-84.7C566.7,-72.833 570.8,-61.283 573.9,-50.05C575.867,-42.65 576.617,-33.767 576.15,-23.4C575.917,-18.167 575.4,-12.5 574.6,-6.4C572.3,10.933 569,22.867 564.7,29.4C563.667,31.367 561.95,32.833 559.55,33.8C556.75,31.733 554.317,29.333 552.25,26.6L542.9,-8.7L511.35,-54.3L507.4,-63M516.05,-1L511.7,-12.45C538.167,27.75 553.767,49.983 558.5,54.25C564.6,60.117 567.017,61.467 565.75,58.3L566.8,60.1C574.533,55.433 581.467,42.25 587.6,20.55L585.5,69.25C585.4,80.383 583.617,91.233 580.15,101.8C577.15,110.833 572.467,119.767 566.1,128.6C565.767,128.4 565.6,128.133 565.6,127.8C560.4,116.033 555.717,103.283 551.55,89.55C547.283,74.517 541.917,59.75 535.45,45.25L531.65,38.05C525.983,25.083 520.783,12.067 516.05,-1" style="fill:rgb(49,37,26);"/>
                </g>
            </g>
        </g>
    </g>
    <defs>
        <radialGradient id="_Radial1" cx="0" cy="0" r="1" gradientUnits="userSpaceOnUse" gradientTransform="matrix(306.872,-33.6691,63.6518,304.415,506.5,-99.9)"><stop offset="0" style="stop-color:rgb(233,248,248);stop-opacity:1"/><stop offset="0.28" style="stop-color:rgb(233,248,248);stop-opacity:1"/><stop offset="1" style="stop-color:rgb(164,182,193);stop-opacity:1"/></radialGradient>
    </defs>
</svg>
