<?xml version="1.0" encoding="UTF-8" standalone="no"?>
<!DOCTYPE svg PUBLIC "-//W3C//DTD SVG 1.1//EN" "http://www.w3.org/Graphics/SVG/1.1/DTD/svg11.dtd">
<svg width="100%" height="100%" viewBox="0 0 19 38" version="1.1" xmlns="http://www.w3.org/2000/svg" xmlns:xlink="http://www.w3.org/1999/xlink" xml:space="preserve" xmlns:serif="http://www.serif.com/" style="fill-rule:evenodd;clip-rule:evenodd;stroke-linecap:round;stroke-linejoin:round;">
    <g id="sprite0" transform="matrix(1,0,0,1,9.1,18.9)">
        <g>
            <g id="shape0">
                <path d="M0.3,-18.4L3.5,-14.05C4.067,-12.817 4.467,-11.5 4.7,-10.1L5.6,-5.85L6.45,-1.4L7.15,2.35L7.2,2.6L7.5,3.85L7.6,4.5L7.6,4.7L7.95,7.3L7.95,7.2L8.65,11.85L7.65,13.6L7.45,12.35C7.083,12.95 6.583,13.483 5.95,13.95L6,15.2C5.467,15.933 4.767,16.35 3.9,16.45L3.8,15.2L0.4,16.2L0.3,17.7C-0.467,18.1 -1.283,18.267 -2.15,18.2L-1.95,16.6L-5.4,16.85L-5.75,18.3L-8.15,18.25L-7.3,14.6L-6.95,11.4L-6.4,5.9L-6.45,5.8C-6.017,-0.133 -6.183,-5.3 -6.95,-9.7C-7.25,-11.433 -7.8,-13.1 -8.6,-14.7C-8.2,-15.333 -7.617,-15.783 -6.85,-16.05C-4.217,-15.917 -2.45,-16.583 -1.55,-18.05L0.3,-18.4" style="fill:rgb(40,10,2);"/>
                <path d="M0.3,-18.4L3.5,-14.05C4.067,-12.817 4.467,-11.5 4.7,-10.1L5.6,-5.85L6.45,-1.4L7.15,2.35L7.2,2.6L7.5,3.85L7.6,4.5L7.6,4.7L7.95,7.3L7.95,7.2L8.65,11.85L7.65,13.6L7.45,12.35C7.083,12.95 6.583,13.483 5.95,13.95L6,15.2C5.467,15.933 4.767,16.35 3.9,16.45L3.8,15.2L0.4,16.2L0.3,17.7C-0.467,18.1 -1.283,18.267 -2.15,18.2L-1.95,16.6L-5.4,16.85L-5.75,18.3L-8.15,18.25L-7.3,14.6L-6.95,11.4L-6.4,5.9L-6.45,5.8C-6.017,-0.133 -6.183,-5.3 -6.95,-9.7C-7.25,-11.433 -7.8,-13.1 -8.6,-14.7C-8.2,-15.333 -7.617,-15.783 -6.85,-16.05C-4.217,-15.917 -2.45,-16.583 -1.55,-18.05L0.3,-18.4Z" style="fill:none;fill-rule:nonzero;stroke:rgb(40,10,2);stroke-width:1px;"/>
            </g>
            <g id="sprite1" transform="matrix(0.0919,0,0,0.0918,-51.3053,-8.39967)">
                <g id="shape1">
                    <path d="M564.15,84.75C569.883,83.05 579.167,82.05 592,81.75C604.8,81.283 615.283,84.767 623.45,92.2C631.583,99.6 637.383,116.417 640.85,142.65L644.6,171.15L644.7,170.2C647.9,186.1 650.383,202.867 652.15,220.5C649.45,227.233 645.883,233.567 641.45,239.5L639.6,225.8C635.4,232.367 629.917,238.3 623.15,243.6L623.85,257.05C617.95,264.917 610.3,269.55 600.9,270.95C600.633,266.25 600.217,261.65 599.65,257.15C589.05,261.683 576.767,265.383 562.8,268.25C562.433,273.55 561.933,278.983 561.3,284.55C553.1,288.883 544.333,290.6 535,289.7C536.133,285.667 536.883,279.85 537.25,272.25C525.517,273.617 512.867,274.533 499.3,275L495.75,290.95C487.883,292.95 479.117,292.683 469.45,290.15C472.817,278.317 475.883,265.15 478.65,250.65L478.7,250.65C480.4,239.583 481.783,227.967 482.85,215.8L489.55,145.8C505.45,121.333 524.667,103.333 547.2,91.8C552.6,89.033 558.267,86.617 564.2,84.55L564.15,84.75M503.8,242C503,252.8 501.5,263.8 499.3,275C501.5,263.8 503,252.8 503.8,242M617.3,194.4C620.167,212.333 622.117,228.733 623.15,243.6C622.117,228.733 620.167,212.333 617.3,194.4M561.7,207.4C564.067,225.7 564.433,245.983 562.8,268.25C564.433,245.983 564.067,225.7 561.7,207.4M537.25,272.25C537.45,267.85 537.533,262.85 537.5,257.25C537.533,262.85 537.45,267.85 537.25,272.25M599.65,257.15L599.05,253.25L599.65,257.15M639.6,225.8L638.8,220.6L639.6,225.8" style="fill:rgb(2,165,148);"/>
                    <path d="M564.15,84.75L564.2,84.55M489.55,145.8L482.85,215.8C481.783,227.967 480.4,239.583 478.7,250.65M478.65,250.65C475.883,265.15 472.817,278.317 469.45,290.15C479.117,292.683 487.883,292.95 495.75,290.95L499.3,275C501.5,263.8 503,252.8 503.8,242M644.7,170.2C647.9,186.1 650.383,202.867 652.15,220.5C649.45,227.233 645.883,233.567 641.45,239.5L639.6,225.8C635.4,232.367 629.917,238.3 623.15,243.6L623.85,257.05C617.95,264.917 610.3,269.55 600.9,270.95C600.633,266.25 600.217,261.65 599.65,257.15C589.05,261.683 576.767,265.383 562.8,268.25C562.433,273.55 561.933,278.983 561.3,284.55C553.1,288.883 544.333,290.6 535,289.7C536.133,285.667 536.883,279.85 537.25,272.25C525.517,273.617 512.867,274.533 499.3,275M644.6,171.15L640.85,142.65C637.383,116.417 631.583,99.6 623.45,92.2M638.8,220.6L639.6,225.8M599.05,253.25L599.65,257.15M537.5,257.25C537.533,262.85 537.45,267.85 537.25,272.25M562.8,268.25C564.433,245.983 564.067,225.7 561.7,207.4M623.15,243.6C622.117,228.733 620.167,212.333 617.3,194.4" style="fill:none;fill-rule:nonzero;stroke:black;stroke-opacity:0.3;stroke-width:0.05px;"/>
                    <path d="M488.2,154.7C492.8,90.133 490.917,33.85 482.55,-14.15C479.283,-32.883 473.333,-51.133 464.7,-68.9C469.133,-75.767 475.483,-80.65 483.75,-83.55C512.35,-81.95 531.483,-89.2 541.15,-105.3C546.417,-108 553.15,-109.15 561.35,-108.75C569.917,-100.65 581.533,-84.883 596.2,-61.45C602.333,-48.017 606.833,-33.667 609.7,-18.4C612.6,-2.767 615.717,12.683 619.05,27.95C622.717,41.517 625.817,57.617 628.35,76.25C631.317,94.483 633.933,108.15 636.2,117.25L641.2,140.6C638.967,147.133 630.15,155.9 614.75,166.9C599.25,177.833 578.417,185.133 552.25,188.8C537.25,188.1 524.167,184.517 513,178.05C501.967,171.583 493.7,163.8 488.2,154.7M558.7,44.2C561.733,46.967 565.317,49.35 569.45,51.35C572.817,50.183 575.1,48.4 576.3,46C581.933,38.733 585.567,25.667 587.2,6.8C589.267,-12.433 588,-29.233 583.4,-43.6C578.7,-58 573.6,-72.267 568.1,-86.4L549.55,-47.45L487,-48L493.5,-39.05L542.2,7.2L558.7,44.2L562.75,53.8L568.5,59.85L562.75,53.8L558.7,44.2M574.35,70.8C576.15,73.967 573.433,72.667 566.2,66.9C559.333,61.733 540.4,38.2 509.4,-3.7C511.733,3.8 513.5,8.85 514.7,11.45C520.9,24.55 527.717,37.617 535.15,50.65L539.65,57.7C547.917,72.333 554.933,87.2 560.7,102.3C566.5,116.1 572.683,128.883 579.25,140.65C579.25,140.983 579.433,141.3 579.8,141.6C586.267,132.6 590.867,123.583 593.6,114.55C596.7,103.817 597.917,92.867 597.25,81.7L595.6,14.65C594.233,46.35 587.583,65.7 575.65,72.7L574.35,70.8M520.8,158.5C521.5,149.933 522.067,141.3 522.5,132.6C522.733,117.633 522.3,103.55 521.2,90.35C519.333,75.583 517.067,60.85 514.4,46.15C512.067,31.717 508.533,17.683 503.8,4.05C501.7,-2.617 498.95,-9.133 495.55,-15.5C498.95,-9.133 501.7,-2.617 503.8,4.05C508.533,17.683 512.067,31.717 514.4,46.15C517.067,60.85 519.333,75.583 521.2,90.35C522.3,103.55 522.733,117.633 522.5,132.6C522.067,141.3 521.5,149.933 520.8,158.5" style="fill:rgb(2,165,148);"/>
                    <path d="M493.5,-39.05L487,-48L549.55,-47.45L568.1,-86.4C573.6,-72.267 578.7,-58 583.4,-43.6C588,-29.233 589.267,-12.433 587.2,6.8C585.567,25.667 581.933,38.733 576.3,46C575.1,48.4 572.817,50.183 569.45,51.35C565.317,49.35 561.733,46.967 558.7,44.2L542.2,7.2L493.5,-39.05M574.35,70.8L575.65,72.7C587.583,65.7 594.233,46.35 595.6,14.65L597.25,81.7C597.917,92.867 596.7,103.817 593.6,114.55C590.867,123.583 586.267,132.6 579.8,141.6C579.433,141.3 579.25,140.983 579.25,140.65C572.683,128.883 566.5,116.1 560.7,102.3C554.933,87.2 547.917,72.333 539.65,57.7L535.15,50.65C527.717,37.617 520.9,24.55 514.7,11.45C513.5,8.85 511.733,3.8 509.4,-3.7C540.4,38.2 559.333,61.733 566.2,66.9C573.433,72.667 576.15,73.967 574.35,70.8" style="fill:rgb(0,116,111);"/>
                    <path d="M488.2,154.7C492.8,90.133 490.917,33.85 482.55,-14.15C479.283,-32.883 473.333,-51.133 464.7,-68.9C469.133,-75.767 475.483,-80.65 483.75,-83.55C512.35,-81.95 531.483,-89.2 541.15,-105.3C546.417,-108 553.15,-109.15 561.35,-108.75C569.917,-100.65 581.533,-84.883 596.2,-61.45C602.333,-48.017 606.833,-33.667 609.7,-18.4C612.6,-2.767 615.717,12.683 619.05,27.95C622.717,41.517 625.817,57.617 628.35,76.25C631.317,94.483 633.933,108.15 636.2,117.25L641.2,140.6M495.55,-15.5C498.95,-9.133 501.7,-2.617 503.8,4.05C508.533,17.683 512.067,31.717 514.4,46.15C517.067,60.85 519.333,75.583 521.2,90.35C522.3,103.55 522.733,117.633 522.5,132.6C522.067,141.3 521.5,149.933 520.8,158.5" style="fill:none;fill-rule:nonzero;stroke:black;stroke-opacity:0.3;stroke-width:0.05px;"/>
                    <path d="M558.7,44.2L562.75,53.8L568.5,59.85M558.7,44.2L542.2,7.2L493.5,-39.05" style="fill:none;fill-rule:nonzero;stroke:black;stroke-opacity:0.2;stroke-width:0.05px;"/>
                    <path d="M559.8,-45.2L572.25,13.6L540.2,-36.2L483.25,-49.55L545.2,-49.9L570.8,-93.05L559.8,-45.2" style="fill:rgb(26,27,28);"/>
                </g>
            </g>
        </g>
    </g>
</svg>
