<?xml version="1.0" encoding="UTF-8" standalone="no"?>
<!DOCTYPE svg PUBLIC "-//W3C//DTD SVG 1.1//EN" "http://www.w3.org/Graphics/SVG/1.1/DTD/svg11.dtd">
<svg width="100%" height="100%" viewBox="0 0 19 39" version="1.1" xmlns="http://www.w3.org/2000/svg" xmlns:xlink="http://www.w3.org/1999/xlink" xml:space="preserve" xmlns:serif="http://www.serif.com/" style="fill-rule:evenodd;clip-rule:evenodd;stroke-linecap:round;stroke-linejoin:round;">
    <g id="sprite0" transform="matrix(1,0,0,1,9.05,19.45)">
        <g>
            <g id="shape0">
                <path d="M1.9,-18.25L3.45,-18.85L3.75,-18.95L4.3,-18.45L4.55,-17.75L4.55,-17.5L4.4,-16.6L4.05,-16.3L2.7,-15.8L4.6,-10.2L5.6,-9.1C5.8,-8.967 5.717,-8.85 5.35,-8.75L3.95,-8.2L8.55,3.8L7.95,6.75L5.15,5.6L5.05,5.55L4.15,2.95L4.55,8.15C4.783,9.217 5.3,9.283 6.1,8.35C5.133,11.95 3.983,15.367 2.65,18.6C2.45,18.967 2.2,19.05 1.9,18.85C-0.367,17.383 -2.85,15.35 -5.55,12.75C-4.317,12.85 -3.717,12.233 -3.75,10.9L-3.75,5.3L-5.05,9.85L-7.2,12.2L-8.55,9.95L-4,-4.9L-4.55,-4.7L-5.5,-4.45C-5.667,-4.45 -5.733,-4.533 -5.7,-4.7L-4.7,-6.35C-3.7,-8.617 -2.9,-11.117 -2.3,-13.85L-4.45,-13.05L-4.5,-13.05L-4.75,-13L-5.3,-13.45L-5.6,-14.4L-5.45,-15.3L-5,-15.6L-2.6,-16.55L-2.5,-17.2C-1.933,-17.7 -1.233,-18.1 -0.4,-18.4L1.8,-18.5L1.9,-18.25" style="fill:rgb(40,10,2);"/>
                <path d="M1.9,-18.25L3.45,-18.85L3.75,-18.95L4.3,-18.45L4.55,-17.75L4.55,-17.5L4.4,-16.6L4.05,-16.3L2.7,-15.8L4.6,-10.2L5.6,-9.1C5.8,-8.967 5.717,-8.85 5.35,-8.75L3.95,-8.2L8.55,3.8L7.95,6.75L5.15,5.6L5.05,5.55L4.15,2.95L4.55,8.15C4.783,9.217 5.3,9.283 6.1,8.35C5.133,11.95 3.983,15.367 2.65,18.6C2.45,18.967 2.2,19.05 1.9,18.85C-0.367,17.383 -2.85,15.35 -5.55,12.75C-4.317,12.85 -3.717,12.233 -3.75,10.9L-3.75,5.3L-5.05,9.85L-7.2,12.2L-8.55,9.95L-4,-4.9L-4.55,-4.7L-5.5,-4.45C-5.667,-4.45 -5.733,-4.533 -5.7,-4.7L-4.7,-6.35C-3.7,-8.617 -2.9,-11.117 -2.3,-13.85L-4.45,-13.05L-4.5,-13.05L-4.75,-13L-5.3,-13.45L-5.6,-14.4L-5.45,-15.3L-5,-15.6L-2.6,-16.55L-2.5,-17.2C-1.933,-17.7 -1.233,-18.1 -0.4,-18.4L1.8,-18.5L1.9,-18.25Z" style="fill:none;fill-rule:nonzero;stroke:rgb(40,10,2);stroke-width:1px;"/>
            </g>
            <g id="sprite1" transform="matrix(0.0919,0,0,0.0918,-48.9051,-8.44966)">
                <g id="shape1">
                    <path d="M582,19.65L577.2,21.5L579.6,51.25L559.95,3L573.15,-3.5L582,19.65M581.9,79.4L587.95,153L587.3,152.7L536.8,13.95L553.5,7.95L581.9,79.4" style="fill:rgb(111,127,140);"/>
                    <path d="M579.6,51.25L577.2,21.5L582,19.65L625.05,133.2L618.75,165.5L587.95,153L581.9,79.4L604.85,137.2C607.583,139.4 610.167,137.833 612.6,132.5L579.6,51.25" style="fill:rgb(158,180,199);"/>
                    <path d="M559.95,3L579.6,51.25L581.9,79.4L553.5,7.95L559.95,3" style="fill:rgb(124,24,0);"/>
                    <path d="M579.6,51.25L612.6,132.5C610.167,137.833 607.583,139.4 604.85,137.2L581.9,79.4L579.6,51.25" style="fill:rgb(186,41,14);"/>
                    <path d="M582,19.65L573.15,-3.5L559.95,3L579.6,51.25L612.6,132.5C610.167,137.833 607.583,139.4 604.85,137.2L581.9,79.4L553.5,7.95L559.95,3M587.95,153L618.75,165.5L625.05,133.2L582,19.65M553.5,7.95L536.8,13.95L587.3,152.7L587.95,153" style="fill:none;fill-rule:nonzero;stroke:black;stroke-opacity:0.3;stroke-width:0.05px;"/>
                    <path d="M507.35,21.15L479.6,115.75L479.35,67.45L492.8,22.9L507.35,21.15M479.8,148.3L515.35,20L528.25,18.35L479.95,189.15L479.8,148.3" style="fill:rgb(111,127,140);"/>
                    <path d="M507.35,21.15L515.35,20L479.8,148.3L479.6,115.75L507.35,21.15" style="fill:rgb(124,24,0);"/>
                    <path d="M479.6,115.75L479.8,148.3L466.5,196.05C462.1,200.217 458.417,200.9 455.45,198.1L479.6,115.75" style="fill:rgb(186,41,14);"/>
                    <path d="M479.95,189.15L477,199.6L453.55,224.85L439.1,200.45L479.35,67.45L479.6,115.75L455.45,198.1C458.417,200.9 462.1,200.217 466.5,196.05L479.8,148.3L479.95,189.15" style="fill:rgb(158,180,199);"/>
                    <path d="M515.35,20L507.35,21.15L479.6,115.75L455.45,198.1C458.417,200.9 462.1,200.217 466.5,196.05L479.8,148.3L515.35,20L528.25,18.35L479.95,189.15L477,199.6L453.55,224.85L439.1,200.45L479.35,67.45L492.8,22.9L507.35,21.15" style="fill:none;fill-rule:nonzero;stroke:black;stroke-opacity:0.3;stroke-width:0.05px;"/>
                    <path d="M555.2,-6.25L565.75,-11.2L568.25,18.4L568.2,18.5L559.7,46.45L555.2,-6.25M490.6,55.95L490.35,24.15L499.5,19.9L501.05,51.55L490.6,55.95" style="fill:rgb(124,24,0);"/>
                    <path d="M499.5,19.9L555.2,-6.25L559.7,46.45L559.95,48.9L544.65,99.2C541.85,104.167 538.95,105.267 535.95,102.5L509.7,47.9L501.05,51.55L499.5,19.9M528.55,231.75L537.5,125.2L559.75,214.4C551.55,228.467 541.15,234.25 528.55,231.75" style="fill:rgb(111,127,140);"/>
                    <path d="M568.2,18.5L581.7,181C584.233,192.467 589.883,193.2 598.65,183.2C588.083,222.367 575.55,259.45 561.05,294.45C558.85,298.683 556.067,299.733 552.7,297.6C528.067,281.667 501.05,259.45 471.65,230.95C485.183,232.217 491.733,225.533 491.3,210.9L490.6,55.95L501.05,51.55C511.617,176.117 513.033,236.333 505.3,232.2L552.2,277.1L579.8,202.9C573.233,213.133 566.617,161.8 559.95,48.9L559.7,46.45L568.2,18.5" style="fill:rgb(186,41,14);"/>
                    <path d="M501.05,51.55L509.7,47.9L535.95,102.5C538.95,105.267 541.85,104.167 544.65,99.2L559.95,48.9C566.617,161.8 573.233,213.133 579.8,202.9L552.2,277.1L505.3,232.2C513.033,236.333 511.617,176.117 501.05,51.55M528.55,231.75C541.15,234.25 551.55,228.467 559.75,214.4L537.5,125.2L528.55,231.75" style="fill:rgb(158,180,199);"/>
                    <path d="M555.2,-6.25L565.75,-11.2L568.25,18.4M568.2,18.5L581.7,181C584.233,192.467 589.883,193.2 598.65,183.2C588.083,222.367 575.55,259.45 561.05,294.45C558.85,298.683 556.067,299.733 552.7,297.6C528.067,281.667 501.05,259.45 471.65,230.95C485.183,232.217 491.733,225.533 491.3,210.9L490.6,55.95L490.35,24.15L499.5,19.9L555.2,-6.25L559.7,46.45L559.95,48.9C566.617,161.8 573.233,213.133 579.8,202.9L552.2,277.1L505.3,232.2C513.033,236.333 511.617,176.117 501.05,51.55L499.5,19.9" style="fill:none;fill-rule:nonzero;stroke:black;stroke-opacity:0.3;stroke-width:0.05px;"/>
                    <path d="M487.25,-63.25L501.9,-68.9L505.2,-88.6L546.25,-104.5L551.85,-88.05L577.6,-97.95C579.033,-98.283 580.3,-99.383 581.4,-101.25L581.55,-101.35L581.8,-98.65C582.033,-94.717 581.483,-91.5 580.15,-89C579.083,-87.1 577.817,-86 576.35,-85.7L483.2,-49.95C484.133,-50.483 484.967,-51.4 485.7,-52.7C487.033,-55.2 487.567,-58.417 487.3,-62.35L487.25,-63.25" style="fill:rgb(140,155,158);"/>
                    <path d="M477.55,-78L478.35,-77.9C480.483,-77.533 482.45,-75.833 484.25,-72.8C485.617,-70.5 486.55,-67.917 487.05,-65.05L487.25,-63.25L487.3,-62.35C487.567,-58.417 487.033,-55.2 485.7,-52.7C484.967,-51.4 484.133,-50.483 483.2,-49.95C482.333,-49.417 481.4,-49.233 480.4,-49.4C478.133,-49.8 476.133,-51.5 474.4,-54.5C472.6,-57.533 471.567,-61.017 471.3,-64.95C471,-68.817 471.55,-71.983 472.95,-74.45L472.95,-74.6C474.15,-76.867 475.683,-78 477.55,-78" style="fill:rgb(101,112,114);"/>
                    <path d="M487.25,-63.25L487.05,-65.05C486.55,-67.917 485.617,-70.5 484.25,-72.8C482.45,-75.833 480.483,-77.533 478.35,-77.9L477.55,-78L505.2,-88.6L501.9,-68.9L487.25,-63.25M581.55,-101.35L581.4,-101.25C580.3,-99.383 579.033,-98.283 577.6,-97.95L551.85,-88.05L546.25,-104.5L569.6,-113.5C570.567,-114.2 571.633,-114.433 572.8,-114.2C574.967,-113.833 576.933,-112.133 578.7,-109.1C580.033,-106.8 580.983,-104.217 581.55,-101.35" style="fill:rgb(218,227,227);"/>
                    <path d="M505.2,-88.6L477.55,-78C475.683,-78 474.15,-76.867 472.95,-74.6L472.95,-74.45C471.55,-71.983 471,-68.817 471.3,-64.95C471.567,-61.017 472.6,-57.533 474.4,-54.5C476.133,-51.5 478.133,-49.8 480.4,-49.4C481.4,-49.233 482.333,-49.417 483.2,-49.95L576.35,-85.7C577.817,-86 579.083,-87.1 580.15,-89C581.483,-91.5 582.033,-94.717 581.8,-98.65L581.55,-101.35C580.983,-104.217 580.033,-106.8 578.7,-109.1C576.933,-112.133 574.967,-113.833 572.8,-114.2C571.633,-114.433 570.567,-114.2 569.6,-113.5L546.25,-104.5L505.2,-88.6Z" style="fill:none;fill-rule:nonzero;stroke:black;stroke-opacity:0.3;stroke-width:0.05px;"/>
                    <path d="M551.55,-109.6L582.1,-19L593.25,-7.2C595.283,-5.833 594.417,-4.583 590.65,-3.45L565.3,6L542.35,81.6C539.517,86.567 536.617,87.667 533.65,84.9L507.45,30.3L482.8,40.65C477.767,42.55 474.233,43.5 472.2,43.5C470.367,43.433 469.717,42.633 470.25,41.1L481,22.8C495.833,-10.3 506.35,-48.383 512.55,-91.45L504.05,-87.9C503.75,-89.9 503.983,-92.433 504.75,-95.5C511.183,-100.867 518.933,-105.117 528,-108.25C536.967,-111.383 544.817,-111.833 551.55,-109.6M512.55,-91.45L513.1,-95.7L512.55,-91.45" style="fill:rgb(158,180,199);"/>
                    <path d="M551.55,-109.6L582.1,-19L593.25,-7.2C595.283,-5.833 594.417,-4.583 590.65,-3.45L565.3,6L542.35,81.6C539.517,86.567 536.617,87.667 533.65,84.9L507.45,30.3L482.8,40.65C477.767,42.55 474.233,43.5 472.2,43.5C470.367,43.433 469.717,42.633 470.25,41.1L481,22.8C495.833,-10.3 506.35,-48.383 512.55,-91.45L504.05,-87.9C503.75,-89.9 503.983,-92.433 504.75,-95.5C511.183,-100.867 518.933,-105.117 528,-108.25C536.967,-111.383 544.817,-111.833 551.55,-109.6M513.1,-95.7L512.55,-91.45" style="fill:none;fill-rule:nonzero;stroke:black;stroke-opacity:0.3;stroke-width:0.05px;"/>
                    <path d="M555.75,-6.75L551.55,-54.75L577,-6.75L555.75,-6.75M545.4,-1.4L532.8,3.7L523.75,-94.05C531.117,-93.55 537.433,-96.05 542.7,-101.55L545.4,-1.4M488.1,25.35L514.95,-36.2L520.95,8.3L488.1,25.35M537.7,65.15L520.6,22.75L556.2,8.05L537.7,65.15" style="fill:rgb(186,41,14);"/>
                </g>
            </g>
        </g>
    </g>
</svg>
