<?xml version="1.0" encoding="UTF-8" standalone="no"?>
<!DOCTYPE svg PUBLIC "-//W3C//DTD SVG 1.1//EN" "http://www.w3.org/Graphics/SVG/1.1/DTD/svg11.dtd">
<svg width="100%" height="100%" viewBox="0 0 15 32" version="1.1" xmlns="http://www.w3.org/2000/svg" xmlns:xlink="http://www.w3.org/1999/xlink" xml:space="preserve" xmlns:serif="http://www.serif.com/" style="fill-rule:evenodd;clip-rule:evenodd;stroke-linecap:round;stroke-linejoin:round;">
    <g transform="matrix(1,0,0,1,-0.05,0)">
        <g id="sprite0" transform="matrix(1,0,0,1,0.5,0.5)">
            <g>
                <g id="shape0">
                    <path d="M6.75,4.8L7.2,4.9L7.2,6.8L6.95,6.9L7.2,7.1L7.25,7.2L7.35,7.55L7.3,8L7.15,8.5L7.4,10.2L7.55,10.95L7.55,11L7.8,11L8,11.3L8.1,12L8,12.1L8.5,13.05L7.85,13.45C8.183,14.85 8.6,16.1 9.1,17.2C9.9,18.4 10.683,19.35 11.45,20.05C12.183,20.183 12.733,20.35 13.1,20.55L13.2,20.6L13.15,21.2L13.1,21.5L12.95,21.8L12.65,21.85L11.95,23.6L11.35,24.65L10.75,25.35L10.65,25.5L10.55,25.35C9.85,24.383 9.133,23.117 8.4,21.55L9.15,25.35L9.35,27.05L5.9,28.6L3.65,29.2L1.7,29.5L1.75,29.9L0.45,30.15L0.05,30.2L0.05,28.6L0.3,28.35L0.45,28.25L1.25,25.35L1.5,24.25L2.45,19L2.5,18.65L2.5,18.6L2.75,16.65L2.75,16.6L3.2,11.75L3.05,12.1L2.7,13.35L2.85,13.4L2.8,13.95L2.55,14.5L2.35,14.5L2.2,15.65C1.667,15.717 1.317,15.567 1.15,15.2L1.1,15.15L1.15,15.15L1.15,15.1L1.3,14.95L1.75,14.3L1.8,13.85L1.9,13.65L2.15,13.25L2.65,11.65L2.65,11.55L2.7,11.35L2.9,10L2.95,9.95L2.95,9.7L3,8.9L2.25,9.1L1.85,8.95L1.85,7.05L2.45,6.9L1.05,3.85L5.25,3.35L5.55,3.1L5.8,0L6.55,1.35L6.75,4.8" style="fill:rgb(40,10,2);"/>
                    <path d="M6.75,4.8L6.55,1.35L5.8,0L5.55,3.1L5.25,3.35L1.05,3.85L2.45,6.9L1.85,7.05L1.85,8.95L2.25,9.1L3,8.9L2.95,9.7L2.95,9.95L2.9,10L2.7,11.35L2.65,11.55L2.65,11.65L2.15,13.25L1.9,13.65L1.8,13.85L1.75,14.3L1.3,14.95L1.15,15.1L1.15,15.15L1.1,15.15L1.15,15.2C1.317,15.567 1.667,15.717 2.2,15.65L2.35,14.5L2.55,14.5L2.8,13.95L2.85,13.4L2.7,13.35L3.05,12.1L3.2,11.75L2.75,16.6L2.75,16.65L2.5,18.6L2.5,18.65L2.45,19L1.5,24.25L1.25,25.35L0.45,28.25L0.3,28.35L0.05,28.6L0.05,30.2L0.45,30.15L1.75,29.9L1.7,29.5L3.65,29.2L5.9,28.6L9.35,27.05L9.15,25.35L8.4,21.55C9.133,23.117 9.85,24.383 10.55,25.35L10.65,25.5L10.75,25.35L11.35,24.65L11.95,23.6L12.65,21.85L12.95,21.8L13.1,21.5L13.15,21.2L13.2,20.6L13.1,20.55C12.733,20.35 12.183,20.183 11.45,20.05C10.683,19.35 9.9,18.4 9.1,17.2C8.6,16.1 8.183,14.85 7.85,13.45L8.5,13.05L8,12.1L8.1,12L8,11.3L7.8,11L7.55,11L7.55,10.95L7.4,10.2L7.15,8.5L7.3,8L7.35,7.55L7.25,7.2L7.2,7.1L6.95,6.9L7.2,6.8L7.2,4.9L6.75,4.8Z" style="fill:none;fill-rule:nonzero;stroke:rgb(40,10,2);stroke-width:1px;"/>
                    <path d="M7.2,4.9L6.8,5.05L5.25,4.65L5.7,4.5L7.2,4.9" style="fill:rgb(243,220,130);"/>
                    <path d="M6.8,5.05L7.2,4.9L7.2,6.8L6.8,6.95L6.8,5.05M5.65,5L6.05,5.1L6,6.15L6.4,6.2L6.4,6.6L5.65,6.45L5.65,5" style="fill:rgb(220,138,45);"/>
                    <path d="M5.25,4.65L6.8,5.05L6.8,6.95L5.25,6.55L5.25,4.65M5.65,5L5.65,6.45L6.4,6.6L6.4,6.2L6,6.15L6.05,5.1L5.65,5" style="fill:rgb(219,181,35);"/>
                    <path d="M7.2,4.9L5.7,4.5L5.25,4.65L5.25,6.55L6.8,6.95L7.2,6.8L7.2,4.9M5.65,5L5.65,6.45L6.4,6.6L6.4,6.2L6,6.15L6.05,5.1L5.65,5Z" style="fill:none;fill-rule:nonzero;stroke:black;stroke-opacity:0.3;stroke-width:0.3px;"/>
                    <path d="M6.55,1.35L6.65,3L6.4,3.25L6.1,6.35L5.7,4.05L3.1,4.3L3.1,6.3L2.2,4.35L1.3,4.45L1.05,3.85L5.25,3.35L5.55,3.1C6.017,2.667 6.35,2.083 6.55,1.35M7.3,10.9C7.733,13.4 8.333,15.5 9.1,17.2C9.6,18.367 10.067,19.233 10.5,19.8L11.2,21.25L9.65,19.2C8.817,17.7 8.2,16.15 7.8,14.55C7.367,12.65 7.2,11.433 7.3,10.9M3.65,11.5L3.65,11.45C4.15,14.483 4.517,17.717 4.75,21.15L3.9,17.45C3.667,19.85 3.15,21.983 2.35,23.85L2.6,22.4L2.75,21.5L3.6,15.9C3.767,14.567 3.783,13.1 3.65,11.5M6.35,17.8L6.55,18.35L7.05,22.6L6.2,19.1L6.2,14.65L6.35,17.8" style="fill:rgb(13,85,134);"/>
                    <path d="M1.3,4.45L2.2,4.35L3.1,6.3L3.1,4.3L5.7,4.05L6.1,6.35L6.4,3.25L6.65,3L6.85,7.75L7,9.1L5.45,10.05L4.75,5.6L4.45,10.2L3.5,10L3.35,8.85L1.3,4.45M7.2,10.35L7.3,10.8L7.3,10.9C7.2,11.433 7.367,12.65 7.8,14.55C8.2,16.15 8.817,17.7 9.65,19.2L11.2,21.25L10.5,19.8L10.95,20.35L11.95,21.3L12,21.8L11.35,22.65L11,23.1C9.667,20.733 8.283,17.983 6.85,14.85L7.5,17.2L6.35,17.8L6.2,14.65L6.2,19.1L7.05,22.6L6.55,18.35L6.8,19.05L7.1,20.2L7.4,21.4L8.05,25.35L8.1,26.45C7.3,26.883 6.5,27.25 5.7,27.55L3.9,20.45L3.6,28.1L1.55,28.3L1.2,28.35L2.35,23.85C3.15,21.983 3.667,19.85 3.9,17.45L4.75,21.15C4.517,17.717 4.15,14.483 3.65,11.45L3.65,11.3L3.6,10.95L4.65,11.4L5.85,21.55L5.5,11.35C6.033,11.217 6.6,10.883 7.2,10.35" style="fill:rgb(9,59,96);"/>
                    <path d="M6.55,1.35C6.35,2.083 6.017,2.667 5.55,3.1L5.8,0L6.55,1.35" style="fill:rgb(7,38,79);"/>
                    <path d="M9.1,17.2C9.9,18.4 10.683,19.35 11.45,20.05L12.4,20.85L12.75,21L13.15,21.2L13.1,21.5L12.95,21.8L12.65,21.85L12,21.8L11.95,21.3L10.95,20.35L10.5,19.8C10.067,19.233 9.6,18.367 9.1,17.2M11.95,23.6L11.35,24.65L10.65,23.5L11,23.1L11.35,22.65L11.95,23.6M5.9,28.6L3.65,29.2L3.6,28.1L5.7,27.55L5.9,28.6M2.75,16.6L3.3,9.6L3.3,9.4L3.35,8.85L3.5,10L3.6,10.95L3.65,11.3L3.65,11.5L2.75,16.6M12.4,20.85L12,20.85L11.95,21.3L12,20.85L12.4,20.85" style="fill:rgb(220,138,45);"/>
                    <path d="M7,9.1L7.2,10.35C6.6,10.883 6.033,11.217 5.5,11.35L5.85,21.55L4.65,11.4L3.6,10.95L3.5,10L4.45,10.2L4.75,5.6L5.45,10.05L7,9.1M7.5,17.2L6.85,14.85C8.283,17.983 9.667,20.733 11,23.1L10.65,23.5L10.5,23.75C9.933,22.883 9.4,21.883 8.9,20.75L8.45,19.7L8.05,18.65L7.65,17.55L7.5,17.2M3.6,28.1L3.9,20.45L5.7,27.55L3.6,28.1" style="fill:rgb(7,36,77);"/>
                    <path d="M11.45,20.05C12.183,20.183 12.733,20.35 13.1,20.55L13.2,20.6L13.15,21.2L12.75,21L12.4,20.85L11.45,20.05M12.65,21.85L11.95,23.6L11.35,22.65L12,21.8L12.65,21.85M11.35,24.65L10.75,25.35L10.65,25.5L10.55,25.35C9.85,24.383 9.133,23.117 8.4,21.55L9.15,25.35L9.35,27.05L5.9,28.6L5.7,27.55C6.5,27.25 7.3,26.883 8.1,26.45L8.05,25.35L7.4,21.4L7.4,20.1L8.3,19.75L8.9,20.75C9.4,21.883 9.933,22.883 10.5,23.75L10.65,23.5L11.35,24.65M3.65,29.2L1.7,29.5L1.75,29.9L0.45,30.15L0.3,28.35L0.45,28.25L1.25,25.35L1.5,24.25L2.2,22.4L2.6,22.4L2.35,23.85L1.2,28.35L1.55,28.3L3.6,28.1L3.65,29.2M2.5,18.65L2.5,18.6L2.75,16.65L2.75,16.6L3.65,11.5C3.783,13.1 3.767,14.567 3.6,15.9L2.75,21.5L2.5,21.5L2.5,18.65M6.35,17.8L7.5,17.2L7.65,17.55L7.7,18.75L6.8,19.05L6.55,18.35L6.35,17.8M1.2,28.35L0.85,28.5L0.85,29.1L0.85,28.5L1.2,28.35M1.7,29.5L1.55,28.3L1.7,29.5" style="fill:rgb(219,181,35);"/>
                    <path d="M0.45,30.15L0.05,30.2L0.05,28.6L0.3,28.35L0.45,30.15M1.5,24.25L2.45,19L2.5,18.65L2.5,21.5L2.75,21.5L2.6,22.4L2.2,22.4L1.5,24.25M7.65,17.55L8.05,18.65L8.45,19.7L8.9,20.75L8.3,19.75L7.4,20.1L7.4,21.4L7.1,20.2L6.8,19.05L7.7,18.75L7.65,17.55" style="fill:rgb(243,220,130);"/>
                    <path d="M6.65,3L6.55,1.35C6.35,2.083 6.017,2.667 5.55,3.1L5.25,3.35L1.05,3.85L1.3,4.45L3.35,8.85L3.3,9.4L3.3,9.6L2.75,16.6M6.65,3L6.85,7.75L7,9.1L7.2,10.35L7.3,10.8M7.3,10.9C7.733,13.4 8.333,15.5 9.1,17.2C9.9,18.4 10.683,19.35 11.45,20.05C12.183,20.183 12.733,20.35 13.1,20.55L13.2,20.6L13.15,21.2L13.1,21.5L12.95,21.8L12.65,21.85L11.95,23.6L11.35,24.65L10.75,25.35L10.65,25.5L10.55,25.35C9.85,24.383 9.133,23.117 8.4,21.55L9.15,25.35L9.35,27.05L5.9,28.6L3.65,29.2L1.7,29.5L1.75,29.9L0.45,30.15L0.05,30.2L0.05,28.6L0.3,28.35L0.45,28.25L1.25,25.35L1.5,24.25L2.45,19L2.5,18.65L2.5,18.6L2.75,16.65M6.55,1.35L5.8,0L5.55,3.1M3.65,11.5L3.65,11.45M3.65,11.3L3.6,10.95L3.5,10L3.35,8.85M6.35,17.8L7.5,17.2L7.65,17.55L8.05,18.65L8.45,19.7L8.9,20.75C9.4,21.883 9.933,22.883 10.5,23.75L10.65,23.5L11,23.1L11.35,22.65L12,21.8L11.95,21.3L10.95,20.35L10.5,19.8C10.067,19.233 9.6,18.367 9.1,17.2M6.55,18.35L6.35,17.8M6.55,18.35L6.8,19.05L7.1,20.2L7.4,21.4L8.05,25.35L8.1,26.45C7.3,26.883 6.5,27.25 5.7,27.55L3.6,28.1L1.55,28.3L1.7,29.5M2.75,21.5L3.6,15.9C3.767,14.567 3.783,13.1 3.65,11.5M2.6,22.4L2.35,23.85L1.2,28.35L1.55,28.3M2.75,21.5L2.6,22.4M12.4,20.85L12.75,21M11.95,21.3L12,20.85L12.4,20.85M12.65,21.85L12,21.8M0.85,29.1L0.85,28.5L1.2,28.35" style="fill:none;fill-rule:nonzero;stroke:black;stroke-opacity:0.3;stroke-width:0.3px;"/>
                    <path d="M7.15,8.4L7.4,10.2L7.55,10.95L7.75,11.7L8.5,13.05C8.2,13.417 7.8,13.517 7.3,13.35L7.3,11.75L6.9,9.95L6.7,8.85L7.15,8.4M7.4,10.2C7.267,10.267 7.1,10.183 6.9,9.95C7.1,10.183 7.267,10.267 7.4,10.2M7.55,10.95C7.383,11.05 7.233,11.017 7.1,10.85C7.233,11.017 7.383,11.05 7.55,10.95" style="fill:rgb(136,181,195);"/>
                    <path d="M7.15,8.4L7.4,10.2L7.55,10.95L7.75,11.7L8.5,13.05C8.2,13.417 7.8,13.517 7.3,13.35L7.3,11.75L6.9,9.95L6.7,8.85L7.15,8.4M7.1,10.85C7.233,11.017 7.383,11.05 7.55,10.95M6.9,9.95C7.1,10.183 7.267,10.267 7.4,10.2" style="fill:none;fill-rule:nonzero;stroke:black;stroke-opacity:0.3;stroke-width:0.3px;"/>
                    <path d="M7.15,11.45L7.2,11.1L7.8,11L8,11.3L7.15,11.45" style="fill:rgb(219,181,35);"/>
                    <path d="M8,11.3L8.1,12L7.25,12.15L7.15,11.45L8,11.3" style="fill:rgb(220,138,45);"/>
                    <path d="M8,11.3L8.1,12L7.25,12.15L7.15,11.45L7.2,11.1L7.8,11L8,11.3Z" style="fill:none;fill-rule:nonzero;stroke:black;stroke-opacity:0.3;stroke-width:0.3px;"/>
                    <path d="M2.9,10L2.95,9.95L2.95,9.7L3,8.8L3.5,8.7L3.4,9.2L3.45,9.5L3.45,9.55L3.65,9.25L3.65,9.4L3.25,10.55L2.9,10L3.25,10.55L3,11.5L2.85,11.95L2.65,11.65L2.85,11.95L2.5,13C2.2,13.967 2.067,14.65 2.1,15.05L2.1,15.1L1.3,14.95L2.05,13.45L2.65,11.65L2.65,11.55L2.7,11.35L2.9,10" style="fill:rgb(178,207,215);"/>
                    <path d="M3.25,10.55L3.65,9.4C3.55,9.633 3.55,9.717 3.65,9.65L3.45,10.65L3.05,12.1L2.6,13.55C2.3,14.583 2.167,15.283 2.2,15.65C1.667,15.717 1.317,15.567 1.15,15.2L1.1,15.15L1.15,15.15L1.15,15.1L1.3,14.95L2.1,15.1L2.1,15.05C2.067,14.65 2.2,13.967 2.5,13L3,11.5L3.25,10.55L3.3,10.6L3.45,10.65L3.3,10.6L3.25,10.55M3.05,12.1L2.9,12.05L2.85,11.95L2.9,12.05L3.05,12.1" style="fill:rgb(136,181,195);"/>
                    <path d="M3.5,8.7L3,8.8L2.95,9.7L2.95,9.95L2.9,10L3.25,10.55L3.3,10.6L3.45,10.65L3.05,12.1L2.6,13.55C2.3,14.583 2.167,15.283 2.2,15.65C1.667,15.717 1.317,15.567 1.15,15.2L1.1,15.15L1.15,15.15L1.15,15.1L1.3,14.95L2.05,13.45L2.65,11.65L2.65,11.55L2.7,11.35L2.9,10M3.65,9.65L3.45,10.65M2.85,11.95L2.9,12.05L3.05,12.1M2.65,11.65L2.85,11.95" style="fill:none;fill-rule:nonzero;stroke:black;stroke-opacity:0.3;stroke-width:0.3px;"/>
                    <path d="M2.8,13.95L2.55,14.5L1.75,14.3L1.8,13.85L2.8,13.95" style="fill:rgb(220,138,45);"/>
                    <path d="M2.85,13.4L2.8,13.95L1.8,13.85L1.9,13.65C2.1,13.35 2.417,13.267 2.85,13.4" style="fill:rgb(219,181,35);"/>
                    <path d="M1.9,13.65L2.15,13.2L2.85,13.4C2.417,13.267 2.1,13.35 1.9,13.65" style="fill:rgb(243,220,130);"/>
                    <path d="M2.85,13.4L2.8,13.95L2.55,14.5L1.75,14.3L1.8,13.85L1.9,13.65L2.15,13.2L2.85,13.4Z" style="fill:none;fill-rule:nonzero;stroke:black;stroke-opacity:0.3;stroke-width:0.3px;"/>
                    <path d="M3.35,9.2L3.35,9.1L3.4,8.6L3.55,8.85C3.85,9.183 4.183,9.367 4.55,9.4L4.6,9.4C4.967,9.433 5.383,9.3 5.85,9L6.7,8.05L6.75,7.9L6.8,7.7L6.8,6.9L6.9,6.9L7.2,7.1L7.25,7.3L7.25,7.7L6.95,8.4L6.9,8.5L6.5,9C6.067,9.467 5.45,9.767 4.65,9.9C4.15,9.9 3.717,9.667 3.35,9.2M4.6,9.4L4.65,9.6L4.65,9.9L4.65,9.6L4.6,9.4M6.7,8.05L6.9,8.25L6.95,8.4L6.9,8.25L6.7,8.05" style="fill:rgb(178,207,215);"/>
                    <path d="M7.2,7.1L7.25,7.2L7.35,7.55L7.3,8L7,8.8L6.6,9.25C6.1,9.783 5.4,10.083 4.5,10.15L4.15,10.15C3.683,10.083 3.417,9.767 3.35,9.2C3.717,9.667 4.15,9.9 4.65,9.9L4.5,10.15L4.65,9.9C5.45,9.767 6.067,9.467 6.5,9L6.9,8.5L6.95,8.4L7.25,7.7L7.25,7.3L7.2,7.1M7,8.8L6.95,8.4L7,8.8" style="fill:rgb(136,181,195);"/>
                    <path d="M3.35,9.2L3.35,9.1L3.4,8.6L3.55,8.85C3.85,9.183 4.183,9.367 4.55,9.4L4.6,9.4C4.967,9.433 5.383,9.3 5.85,9L6.7,8.05L6.75,7.9L6.8,7.7L6.8,6.9L6.9,6.9L7.2,7.1L7.25,7.2L7.35,7.55L7.3,8L7,8.8L6.6,9.25C6.1,9.783 5.4,10.083 4.5,10.15L4.15,10.15C3.683,10.083 3.417,9.767 3.35,9.2M4.65,9.9L4.65,9.6L4.6,9.4M4.65,9.9L4.5,10.15M6.95,8.4L6.9,8.25L6.7,8.05M6.95,8.4L7,8.8" style="fill:none;fill-rule:nonzero;stroke:black;stroke-opacity:0.3;stroke-width:0.3px;"/>
                    <path d="M1.85,7.05L3.35,6.65L3.8,6.8L2.25,7.2L1.85,7.05" style="fill:rgb(243,220,130);"/>
                    <path d="M2.65,8.75L3.4,8.6L3.4,7.15L3,7.25L3.05,8.3L2.65,8.35L2.65,8.75M3.8,6.8L3.8,8.7L2.25,9.1L2.25,7.2L3.8,6.8" style="fill:rgb(219,181,35);"/>
                    <path d="M2.65,8.75L2.65,8.35L3.05,8.3L3,7.25L3.4,7.15L3.4,8.6L2.65,8.75M2.25,9.1L1.85,8.95L1.85,7.05L2.25,7.2L2.25,9.1" style="fill:rgb(220,138,45);"/>
                    <path d="M2.65,8.75L2.65,8.35L3.05,8.3L3,7.25L3.4,7.15L3.4,8.6L2.65,8.75M3.8,6.8L3.8,8.7L2.25,9.1L1.85,8.95L1.85,7.05L3.35,6.65L3.8,6.8Z" style="fill:none;fill-rule:nonzero;stroke:black;stroke-opacity:0.3;stroke-width:0.3px;"/>
                </g>
            </g>
        </g>
    </g>
</svg>
