<?xml version="1.0" encoding="UTF-8" standalone="no"?>
<!DOCTYPE svg PUBLIC "-//W3C//DTD SVG 1.1//EN" "http://www.w3.org/Graphics/SVG/1.1/DTD/svg11.dtd">
<svg width="100%" height="100%" viewBox="0 0 17 34" version="1.1" xmlns="http://www.w3.org/2000/svg" xmlns:xlink="http://www.w3.org/1999/xlink" xml:space="preserve" xmlns:serif="http://www.serif.com/" style="fill-rule:evenodd;clip-rule:evenodd;stroke-linecap:round;stroke-linejoin:round;">
    <g transform="matrix(1,0,0,1,-0.02,0)">
        <g id="sprite0" transform="matrix(1,0,0,1,0.5,0.5)">
            <g>
                <g id="shape0">
                    <path d="M5.25,0.05L5.55,0.2L5.6,0.2L5.65,0.25L5.9,0.45L6.15,1L6.2,1.25L6.05,2L6.35,2.55L6.6,3.6L6.6,3.85C6.933,3.917 7.233,4.083 7.5,4.35L7.9,4.85L8.05,5.6C8.283,7.267 8.117,9 7.55,10.8L7.75,13.2L8.2,17.15L8.75,19.85L8.95,20.15C9.717,21.317 11.067,22.05 13,22.35C14.067,22.25 14.6,21.667 14.6,20.6C14.6,19.967 14.117,19.517 13.15,19.25C14.117,18.95 14.85,19.167 15.35,19.9C15.85,20.667 16.067,21.5 16,22.4C15.9,23.267 15.433,23.85 14.6,24.15L11.6,24.45L9.85,24.6L8.45,25.05L8.45,25.95C7.917,26.483 7.317,26.9 6.65,27.2L6.85,27.55L7.15,28.65C7.25,29.55 7.1,30.317 6.7,30.95C6.1,31.883 5.267,32.267 4.2,32.1C3.3,32.033 2.633,31.583 2.2,30.75L2.15,30.7L2.2,30.7C1.4,30.033 0.683,28.733 0.05,26.8C-0.05,22.733 0.1,18.4 0.5,13.8L0.55,13.4L0.55,13.25L1.05,9.65C0.583,8.783 0.25,7.833 0.05,6.8C0.017,6.367 0.2,5.783 0.6,5.05L0.5,4.4C0.433,4 0.5,3.567 0.7,3.1L0.6,2.8L0.55,2.4L0.55,2.15L0.6,2L0.8,1.5L1.3,1.15L1.45,1.1L1.75,1.15L1.85,1.15L2.15,1.3L2.2,1.3L2.25,1.35L2.5,1.55L2.75,2.1L2.8,2.35L2.55,3.2L2.9,3.65C4,5.283 4.617,5.083 4.75,3.05L4.8,2.45L4.6,2.35L4.4,2.3L4.2,2.1L4,1.7L3.95,1.3L3.95,1.05L4,0.9L4.2,0.4L4.7,0.05L4.85,0L5.15,0.05L5.25,0.05M5.1,27.75L3.45,27.85C3.75,28.683 4.283,29.233 5.05,29.5C5.25,29.067 5.283,28.55 5.15,27.95L5.1,27.75" style="fill:rgb(40,10,2);"/>
                    <path d="M5.25,0.05L5.55,0.2L5.6,0.2L5.65,0.25L5.9,0.45L6.15,1L6.2,1.25L6.05,2L6.35,2.55L6.6,3.6L6.6,3.85C6.933,3.917 7.233,4.083 7.5,4.35L7.9,4.85L8.05,5.6C8.283,7.267 8.117,9 7.55,10.8L7.75,13.2L8.2,17.15L8.75,19.85L8.95,20.15C9.717,21.317 11.067,22.05 13,22.35C14.067,22.25 14.6,21.667 14.6,20.6C14.6,19.967 14.117,19.517 13.15,19.25C14.117,18.95 14.85,19.167 15.35,19.9C15.85,20.667 16.067,21.5 16,22.4C15.9,23.267 15.433,23.85 14.6,24.15L11.6,24.45L9.85,24.6L8.45,25.05L8.45,25.95C7.917,26.483 7.317,26.9 6.65,27.2L6.85,27.55L7.15,28.65C7.25,29.55 7.1,30.317 6.7,30.95C6.1,31.883 5.267,32.267 4.2,32.1C3.3,32.033 2.633,31.583 2.2,30.75L2.15,30.7L2.2,30.7C1.4,30.033 0.683,28.733 0.05,26.8C-0.05,22.733 0.1,18.4 0.5,13.8L0.55,13.4L0.55,13.25L1.05,9.65C0.583,8.783 0.25,7.833 0.05,6.8C0.017,6.367 0.2,5.783 0.6,5.05L0.5,4.4C0.433,4 0.5,3.567 0.7,3.1L0.6,2.8L0.55,2.4L0.55,2.15L0.6,2L0.8,1.5L1.3,1.15L1.45,1.1L1.75,1.15L1.85,1.15L2.15,1.3L2.2,1.3L2.25,1.35L2.5,1.55L2.75,2.1L2.8,2.35L2.55,3.2L2.9,3.65C4,5.283 4.617,5.083 4.75,3.05L4.8,2.45L4.6,2.35L4.4,2.3L4.2,2.1L4,1.7L3.95,1.3L3.95,1.05L4,0.9L4.2,0.4L4.7,0.05L4.85,0L5.15,0.05L5.25,0.05M5.1,27.75L3.45,27.85C3.75,28.683 4.283,29.233 5.05,29.5C5.25,29.067 5.283,28.55 5.15,27.95L5.1,27.75Z" style="fill:none;fill-rule:nonzero;stroke:rgb(40,10,2);stroke-width:1px;"/>
                    <path d="M0.7,12.15L1.2,8.55C1.8,7.817 2.4,7.3 3,7L4.7,6.8C5.567,6.967 6.45,7.567 7.35,8.6L7.75,13.2L8.2,17.15L8.75,19.85L8.95,20.15C8.783,21.55 9.083,23.033 9.85,24.6L8.45,25.05L7.8,23.75C7.1,22.883 6.817,21.567 6.95,19.8L7,19.35L7,15.4L5.95,17.5C3.45,16.2 1.7,14.417 0.7,12.15M5.1,27.75L3.45,27.85L3.35,27.4L3.3,26.95L3.2,26.2C4.067,26.4 4.683,26.85 5.05,27.55L5.1,27.75M4.95,25.95L3.35,25.8L3.2,25.85L3.6,18.25L4.95,25.95" style="fill:rgb(130,187,207);"/>
                    <path d="M8.95,20.15C9.717,21.317 11.067,22.05 13,22.35C14.067,22.25 14.6,21.667 14.6,20.6C14.6,19.967 14.117,19.517 13.15,19.25C14.117,18.95 14.85,19.167 15.35,19.9C15.85,20.667 16.067,21.5 16,22.4C15.9,23.267 15.433,23.85 14.6,24.15L11.6,24.45L9.85,24.6C9.083,23.033 8.783,21.55 8.95,20.15M8.45,25.05L8.45,25.95C7.917,26.483 7.317,26.9 6.65,27.2C6.15,26.567 5.583,26.15 4.95,25.95L3.6,18.25L3.2,25.85C3,25.917 2.85,26 2.75,26.1L3.2,26.2L3.3,26.95L3.35,27.4L3.45,27.85C3.75,28.683 4.283,29.233 5.05,29.5C4.85,30 4.417,30.417 3.75,30.75C3.283,30.917 2.767,30.917 2.2,30.75L2.2,30.7C1.4,30.033 0.683,28.733 0.05,26.8C-0.05,22.733 0.1,18.4 0.5,13.8L0.55,13.4L0.55,13.25L0.7,12.15C1.7,14.417 3.45,16.2 5.95,17.5L7,15.4L7,19.35L6.95,19.8C6.817,21.567 7.1,22.883 7.8,23.75L8.45,25.05" style="fill:rgb(182,223,236);"/>
                    <path d="M6.65,27.2L6.85,27.55L7.15,28.65C7.25,29.55 7.1,30.317 6.7,30.95C6.1,31.883 5.267,32.267 4.2,32.1C3.3,32.033 2.633,31.583 2.2,30.75L2.15,30.7L2.2,30.7L2.2,30.75C2.767,30.917 3.283,30.917 3.75,30.75C4.417,30.417 4.85,30 5.05,29.5C5.25,29.067 5.283,28.55 5.15,27.95L5.05,27.55C4.683,26.85 4.067,26.4 3.2,26.2L2.75,26.1C2.85,26 3,25.917 3.2,25.85L3.35,25.8L4.95,25.95C5.583,26.15 6.15,26.567 6.65,27.2" style="fill:rgb(238,179,42);"/>
                    <path d="M0.7,12.15L1.2,8.55C1.8,7.817 2.4,7.3 3,7L4.7,6.8C5.567,6.967 6.45,7.567 7.35,8.6L7.75,13.2L8.2,17.15L8.75,19.85L8.95,20.15C9.717,21.317 11.067,22.05 13,22.35C14.067,22.25 14.6,21.667 14.6,20.6C14.6,19.967 14.117,19.517 13.15,19.25C14.117,18.95 14.85,19.167 15.35,19.9C15.85,20.667 16.067,21.5 16,22.4C15.9,23.267 15.433,23.85 14.6,24.15L11.6,24.45L9.85,24.6L8.45,25.05L8.45,25.95C7.917,26.483 7.317,26.9 6.65,27.2L6.85,27.55L7.15,28.65C7.25,29.55 7.1,30.317 6.7,30.95C6.1,31.883 5.267,32.267 4.2,32.1C3.3,32.033 2.633,31.583 2.2,30.75L2.15,30.7L2.2,30.7C1.4,30.033 0.683,28.733 0.05,26.8C-0.05,22.733 0.1,18.4 0.5,13.8L0.55,13.4M0.55,13.25L0.7,12.15M7,19.35L6.95,19.8C6.817,21.567 7.1,22.883 7.8,23.75L8.45,25.05M5.05,29.5C5.25,29.067 5.283,28.55 5.15,27.95L5.1,27.75L3.45,27.85C3.75,28.683 4.283,29.233 5.05,29.5C4.85,30 4.417,30.417 3.75,30.75C3.283,30.917 2.767,30.917 2.2,30.75L2.2,30.7M3.3,26.95L3.35,27.4L3.45,27.85M4.95,25.95L3.35,25.8L3.2,25.85C3,25.917 2.85,26 2.75,26.1L3.2,26.2C4.067,26.4 4.683,26.85 5.05,27.55L5.1,27.75M6.65,27.2C6.15,26.567 5.583,26.15 4.95,25.95" style="fill:none;fill-rule:nonzero;stroke:black;stroke-opacity:0.3;stroke-width:0.05px;"/>
                    <path d="M7.5,4.35L7.4,5.6C7.167,8.233 6.6,10.733 5.7,13.1C3.767,11.767 2.1,9.967 0.7,7.7C0.6,6.633 0.683,5.833 0.95,5.3L1.55,5.6C2.917,8.167 4.067,9.533 5,9.7C5.4,9.767 5.883,8.45 6.45,5.75L6.45,4.05L4.75,7.7L1.5,4.35C2.067,4.217 2.533,3.983 2.9,3.65C4,5.283 4.617,5.083 4.75,3.05C5.35,3.25 5.883,3.083 6.35,2.55L6.6,3.6L6.6,3.85C6.933,3.917 7.233,4.083 7.5,4.35" style="fill:rgb(15,168,212);"/>
                    <path d="M1.55,5.6L0.95,5.3C0.683,5.833 0.6,6.633 0.7,7.7C2.1,9.967 3.767,11.767 5.7,13.1C6.6,10.733 7.167,8.233 7.4,5.6L7.5,4.35L7.9,4.85L8.05,5.6C8.45,8.3 7.75,11.217 5.95,14.35C2.683,12.617 0.717,10.1 0.05,6.8C0.017,6.367 0.2,5.783 0.6,5.05L0.5,4.4C0.433,3.933 0.533,3.417 0.8,2.85L2.3,2.75L2.9,3.65C2.533,3.983 2.067,4.217 1.5,4.35L4.75,7.7L6.45,4.05L6.45,5.75C5.883,8.45 5.4,9.767 5,9.7C4.067,9.533 2.917,8.167 1.55,5.6M6.35,2.55C5.883,3.083 5.35,3.25 4.75,3.05L4.75,2C5.05,1.633 5.383,1.533 5.75,1.7L6.35,2.55" style="fill:rgb(23,114,141);"/>
                    <path d="M7.5,4.35C7.233,4.083 6.933,3.917 6.6,3.85L6.6,3.6L6.35,2.55L5.75,1.7C5.383,1.533 5.05,1.633 4.75,2L4.75,3.05C4.617,5.083 4,5.283 2.9,3.65L2.3,2.75L0.8,2.85C0.533,3.417 0.433,3.933 0.5,4.4L0.6,5.05C0.2,5.783 0.017,6.367 0.05,6.8C0.717,10.1 2.683,12.617 5.95,14.35C7.75,11.217 8.45,8.3 8.05,5.6L7.9,4.85L7.5,4.35M6.45,5.75C5.883,8.45 5.4,9.767 5,9.7C4.067,9.533 2.917,8.167 1.55,5.6" style="fill:none;fill-rule:nonzero;stroke:black;stroke-opacity:0.3;stroke-width:0.05px;"/>
                    <path d="M2.75,2.1L2.8,2.35L2.5,3.25L1.9,3.65L1.5,3.6L1.45,3.55L1.4,3.55L1.25,3.4L1,2.9L1,2.35L1.25,2.9L1.35,3L1.5,3.1L1.9,3.15L2.5,2.75L2.75,2.1" style="fill:rgb(201,128,47);"/>
                    <path d="M1.4,3.55L1.2,3.45L1,3.4L0.8,3.2L0.6,2.8L0.55,2.4L0.55,2.15L0.6,2L0.8,1.5L1.3,1.15L1.45,1.1L1.75,1.15L1.85,1.15L2.15,1.3L1.9,1.3L1.25,1.7L1,2.35L1,2.9L1.25,3.4L1.4,3.55" style="fill:rgb(245,218,108);"/>
                    <path d="M2.15,1.3L2.2,1.3L2.25,1.35L2.5,1.55L2.75,2.1L2.5,2.75L1.9,3.15L1.5,3.1L1.35,3L1.25,2.9L1,2.35L1.25,1.7L1.9,1.3L2.15,1.3M2.3,2L2,1.9C1.867,1.9 1.767,1.967 1.7,2.1C1.6,2.2 1.55,2.333 1.55,2.5C1.55,2.667 1.6,2.8 1.7,2.9L2,3L2.15,3L2.3,2.8L2.4,2.4L2.35,2.1L2.3,2L2.35,2.1L2.4,2.4L2.3,2.8L2.15,3L2,3L1.7,2.9C1.6,2.8 1.55,2.667 1.55,2.5C1.55,2.333 1.6,2.2 1.7,2.1C1.767,1.967 1.867,1.9 2,1.9L2.3,2" style="fill:rgb(238,179,42);"/>
                    <path d="M2.75,2.1L2.8,2.35L2.5,3.25L1.9,3.65L1.5,3.6M1.4,3.55L1.2,3.45L1,3.4L0.8,3.2L0.6,2.8L0.55,2.4L0.55,2.15L0.6,2L0.8,1.5L1.3,1.15L1.45,1.1L1.75,1.15L1.85,1.15L2.15,1.3L2.2,1.3L2.25,1.35L2.5,1.55L2.75,2.1M2.3,2L2.35,2.1L2.4,2.4L2.3,2.8L2.15,3L2,3L1.7,2.9C1.6,2.8 1.55,2.667 1.55,2.5C1.55,2.333 1.6,2.2 1.7,2.1C1.767,1.967 1.867,1.9 2,1.9L2.3,2Z" style="fill:none;fill-rule:nonzero;stroke:black;stroke-opacity:0.3;stroke-width:0.05px;"/>
                    <path d="M4.8,2.45L4.6,2.35L4.4,2.3L4.2,2.1L4,1.7L3.95,1.3L3.95,1.05L4,0.9L4.2,0.4L4.7,0.05L4.85,0L5.15,0.05L5.25,0.05L5.55,0.2L5.3,0.2C5.033,0.233 4.817,0.367 4.65,0.6L4.4,1.25L4.4,1.8L4.65,2.3L4.8,2.45" style="fill:rgb(245,218,108);"/>
                    <path d="M5.55,0.2L5.6,0.2L5.65,0.25L5.9,0.45L6.15,1L5.9,1.65L5.3,2.05L4.9,2L4.75,1.9L4.65,1.8L4.4,1.25L4.65,0.6C4.817,0.367 5.033,0.233 5.3,0.2L5.55,0.2M5.4,0.8C5.267,0.8 5.167,0.867 5.1,1C5,1.1 4.95,1.233 4.95,1.4L5.1,1.8L5.4,1.9L5.55,1.9L5.7,1.7L5.8,1.3L5.75,1L5.7,0.9L5.4,0.8L5.7,0.9L5.75,1L5.8,1.3L5.7,1.7L5.55,1.9L5.4,1.9L5.1,1.8L4.95,1.4C4.95,1.233 5,1.1 5.1,1C5.167,0.867 5.267,0.8 5.4,0.8" style="fill:rgb(238,179,42);"/>
                    <path d="M6.15,1L6.2,1.25L5.9,2.15L5.3,2.55L4.9,2.5L4.85,2.45L4.8,2.45L4.65,2.3L4.4,1.8L4.4,1.25L4.65,1.8L4.75,1.9L4.9,2L5.3,2.05L5.9,1.65L6.15,1" style="fill:rgb(201,128,47);"/>
                    <path d="M5.55,0.2L5.6,0.2L5.65,0.25L5.9,0.45L6.15,1L6.2,1.25L5.9,2.15L5.3,2.55L4.9,2.5M4.8,2.45L4.6,2.35L4.4,2.3L4.2,2.1L4,1.7L3.95,1.3L3.95,1.05L4,0.9L4.2,0.4L4.7,0.05L4.85,0L5.15,0.05L5.25,0.05L5.55,0.2M5.4,0.8L5.7,0.9L5.75,1L5.8,1.3L5.7,1.7L5.55,1.9L5.4,1.9L5.1,1.8L4.95,1.4C4.95,1.233 5,1.1 5.1,1C5.167,0.867 5.267,0.8 5.4,0.8Z" style="fill:none;fill-rule:nonzero;stroke:black;stroke-opacity:0.3;stroke-width:0.05px;"/>
                </g>
            </g>
        </g>
    </g>
</svg>
