<?xml version="1.0" encoding="UTF-8" standalone="no"?>
<!DOCTYPE svg PUBLIC "-//W3C//DTD SVG 1.1//EN" "http://www.w3.org/Graphics/SVG/1.1/DTD/svg11.dtd">
<svg width="100%" height="100%" viewBox="0 0 14 31" version="1.1" xmlns="http://www.w3.org/2000/svg" xmlns:xlink="http://www.w3.org/1999/xlink" xml:space="preserve" xmlns:serif="http://www.serif.com/" style="fill-rule:evenodd;clip-rule:evenodd;stroke-linecap:round;stroke-linejoin:round;">
    <g id="sprite0" transform="matrix(1,0,0,1,0.5,0.5)">
        <g>
            <g id="shape0">
                <path d="M6,1.05L6.15,1.25L6.8,2.35L7,2.8L7.2,3.35L7.25,3.55L7.6,4.1L7.8,4.5C8.2,5.2 8.467,5.917 8.6,6.65C8.8,7.717 8.717,8.55 8.35,9.15L7.8,9.65L7.6,9.7L7.8,9.95C8.5,10.917 9.25,11.717 10.05,12.35L10.55,12.6L11.3,13L11.4,13.05C11.4,14.483 11.033,15.417 10.3,15.85L9.65,15.2L9.15,14.75L9.1,14.7L11.2,21.6L11.25,21.7L11.45,21.5L11.85,22L11.95,22.2L12.2,22.65L12.3,22.85L12.55,23.55C9.917,27.25 6.45,29.35 2.15,29.85L1.6,29.6L1.4,28.7L1.35,28.5L1.35,27.8L1.4,27.6L1.5,27.05L1.8,26.95L1.8,25.55L1.25,11.85L1.1,9.4C0.6,8.7 0.233,7.85 0,6.85L0.05,5.3L0.1,5.1L0.25,4.55L0.65,3.5L0.8,3.25C0.8,2.45 1.067,1.75 1.6,1.15C2.033,3.117 2.633,4.417 3.4,5.05L4.1,5.95L4.3,6.3C4.533,6.1 4.817,6.167 5.15,6.5C5.35,6.267 5.6,6.2 5.9,6.3C6.1,4.2 5.75,2.1 4.85,0L6,1.05" style="fill:rgb(40,10,2);"/>
                <path d="M6,1.05L4.85,0C5.75,2.1 6.1,4.2 5.9,6.3C5.6,6.2 5.35,6.267 5.15,6.5C4.817,6.167 4.533,6.1 4.3,6.3L4.1,5.95L3.4,5.05C2.633,4.417 2.033,3.117 1.6,1.15C1.067,1.75 0.8,2.45 0.8,3.25L0.65,3.5L0.25,4.55L0.1,5.1L0.05,5.3L0,6.85C0.233,7.85 0.6,8.7 1.1,9.4L1.25,11.85L1.8,25.55L1.8,26.95L1.5,27.05L1.4,27.6L1.35,27.8L1.35,28.5L1.4,28.7L1.6,29.6L2.15,29.85C6.45,29.35 9.917,27.25 12.55,23.55L12.3,22.85L12.2,22.65L11.95,22.2L11.85,22L11.45,21.5L11.25,21.7L11.2,21.6L9.1,14.7L9.15,14.75L9.65,15.2L10.3,15.85C11.033,15.417 11.4,14.483 11.4,13.05L11.3,13L10.55,12.6L10.05,12.35C9.25,11.717 8.5,10.917 7.8,9.95L7.6,9.7L7.8,9.65L8.35,9.15C8.717,8.55 8.8,7.717 8.6,6.65C8.467,5.917 8.2,5.2 7.8,4.5L7.6,4.1L7.25,3.55L7.2,3.35L7,2.8L6.8,2.35L6.15,1.25L6,1.05Z" style="fill:none;fill-rule:nonzero;stroke:rgb(40,10,2);stroke-width:1px;"/>
                <path d="M1.3,11.8L0.95,7.9L6.25,6.75L7.75,11.8L2.1,12.2L1.3,11.8" style="fill:rgb(105,92,31);"/>
                <path d="M1.3,11.8L2.1,12.2L7.75,11.8L10.7,21.45L10.9,21.2L11.3,21.7L11.45,21.9L11.7,22.35L11.8,22.55L12.05,23.25C10.383,25.617 8.383,27.367 6.05,28.5L1.85,26.95L1.85,25.5L1.3,11.8" style="fill:rgb(199,177,51);"/>
                <path d="M6.05,28.5C5.35,28.867 4.617,29.167 3.85,29.4L3.05,27.8L1.5,27L1.85,26.95L6.05,28.5" style="fill:rgb(234,223,181);"/>
                <path d="M3.85,29.4L2.15,29.85L1.6,29.55L1.4,28.7L1.4,27.55L1.5,27L3.05,27.8L3.85,29.4" style="fill:rgb(234,214,131);"/>
                <path d="M7.75,11.8L6.25,6.75L0.95,7.9L1.3,11.8L1.85,25.5L1.85,26.95L1.5,27L1.4,27.55L1.4,28.7L1.6,29.55L2.15,29.85L3.85,29.4C4.617,29.167 5.35,28.867 6.05,28.5C8.383,27.367 10.383,25.617 12.05,23.25L11.8,22.55L11.7,22.35L11.45,21.9L11.3,21.7L10.9,21.2L10.7,21.45L7.75,11.8Z" style="fill:none;fill-rule:nonzero;stroke:black;stroke-opacity:0.3;stroke-width:0.05px;"/>
                <path d="M8.1,11.3L8.55,12.8L7.5,11.4L7.85,11.4L8.1,11.3M9.95,17.4L11,20.95C8.133,23.85 5.267,25.45 2.4,25.75L2.2,18.55C3,19.55 3.883,20.05 4.85,20.05L5.2,19.1L5.4,18.4C6.067,16 6.25,13.9 5.95,12.1L5.95,11.95C6.617,13.45 7.7,15 9.2,16.6L9.65,17.1L9.95,17.4M2.15,17.65L1.85,12.05L2.15,12.3C2.817,12.867 3.4,13 3.9,12.7L3.85,13.25C3.717,14.55 3.383,15.683 2.85,16.65L2.5,17.2L2.15,17.65" style="fill:rgb(168,150,43);"/>
                <path d="M1.85,12.05L1.55,8.15L6.8,7L8.1,11.3L7.85,11.4L7.5,11.4L8.55,12.8L9.95,17.4L9.65,17.1L9.2,16.6C7.7,15 6.617,13.45 5.95,11.95L5.95,12.1C6.25,13.9 6.067,16 5.4,18.4L5.2,19.1L4.85,20.05C3.883,20.05 3,19.55 2.2,18.55L2.15,17.65L2.5,17.2L2.85,16.65C3.383,15.683 3.717,14.55 3.85,13.25L3.9,12.7C3.4,13 2.817,12.867 2.15,12.3L1.85,12.05M11,20.95L11.4,22.25C9.267,26.083 6.267,27.883 2.4,27.65L2.4,25.75C5.267,25.45 8.133,23.85 11,20.95" style="fill:rgb(134,118,39);"/>
                <path d="M1.55,8.15L6.8,7L8.1,11.3L8.55,12.8L9.95,17.4L11,20.95L11.4,22.25C9.267,26.083 6.267,27.883 2.4,27.65" style="fill:none;fill-rule:nonzero;stroke:black;stroke-opacity:0.3;stroke-width:0.05px;"/>
                <path d="M12.35,22.8L11.5,23.55L11.1,22.95L12,22.15L12.25,22.6L12.35,22.8M3.7,28.4L3.75,28.55L2,28.9L1.95,28.7L1.95,28L3.55,27.7L3.7,28.4M10.35,23.6L10.7,24.25L8.85,25.75L8.55,25.05L10.35,23.6M7.45,26.7L5.4,27.85L5.1,27.15L7.15,26L7.45,26.7" style="fill:rgb(236,150,33);"/>
                <path d="M12,22.15L11.1,22.95L11.5,23.55C9.367,26.083 6.767,27.7 3.7,28.4L3.55,27.7L1.95,28L2,27.8L2.05,27.25L2.45,27.15L3.4,26.9C6.2,25.967 8.717,24.333 10.95,22L11.45,21.45L11.9,21.95L12,22.15M10.35,23.6L8.55,25.05L8.85,25.75L10.7,24.25L10.35,23.6M7.45,26.7L7.15,26L5.1,27.15L5.4,27.85L7.45,26.7" style="fill:rgb(218,196,109);"/>
                <path d="M11.5,23.55L12.35,22.8L12.6,23.5C9.967,27.2 6.483,29.3 2.15,29.8L2,28.9L3.75,28.55L3.7,28.4C6.767,27.7 9.367,26.083 11.5,23.55" style="fill:rgb(167,146,63);"/>
                <path d="M12.35,22.8L12.25,22.6L12,22.15L11.9,21.95L11.45,21.45L10.95,22C8.717,24.333 6.2,25.967 3.4,26.9L2.45,27.15M3.7,28.4L3.75,28.55M2.15,29.8C6.483,29.3 9.967,27.2 12.6,23.5L12.35,22.8" style="fill:none;fill-rule:nonzero;stroke:black;stroke-opacity:0.3;stroke-width:0.05px;"/>
                <path d="M3.8,11.45L3.85,9.05L5.65,9.05L5.95,10.35C6.217,12.15 6.017,14.25 5.35,16.65L5.15,17.3L4.65,17.1C5.283,15.333 5.55,13.167 5.45,10.6L3.8,11.45" style="fill:rgb(167,146,63);"/>
                <path d="M3.8,11.45L5.45,10.6C5.55,13.167 5.283,15.333 4.65,17.1L4.25,16.9L4.55,16.25L3.65,15.65L3.15,16.15L2.45,15.45L2.8,14.9C3.367,13.9 3.7,12.75 3.8,11.45" style="fill:rgb(218,196,109);"/>
                <path d="M4.65,17.1L5.15,17.3L4.85,18.25C3.717,18.25 2.717,17.583 1.85,16.25L1.9,16.2C2.967,17 3.85,17.383 4.55,17.35L4.65,17.1" style="fill:rgb(185,96,28);"/>
                <path d="M1.9,16.2L2.45,15.45L3.15,16.15L3.65,15.65L4.55,16.25L4.25,16.9L4.65,17.1L4.55,17.35C3.85,17.383 2.967,17 1.9,16.2" style="fill:rgb(236,150,33);"/>
                <path d="M5.15,17.3L5.35,16.65C6.017,14.25 6.217,12.15 5.95,10.35L5.65,9.05L3.85,9.05L3.8,11.45C3.7,12.75 3.367,13.9 2.8,14.9L2.45,15.45L1.9,16.2L1.85,16.25C2.717,17.583 3.717,18.25 4.85,18.25L5.15,17.3Z" style="fill:none;fill-rule:nonzero;stroke:black;stroke-opacity:0.3;stroke-width:0.05px;"/>
                <path d="M7.95,9.9C8.65,10.933 9.4,11.733 10.2,12.3L10.75,12.65L10.55,13.45L10.05,13.3L9.7,14.1L10.2,14.45L10.05,14.8C8.783,13.633 7.583,11.967 6.45,9.8L7.95,9.9" style="fill:rgb(218,196,109);"/>
                <path d="M9.8,15.2L9.35,14.7C7.783,13.033 6.667,11.4 6,9.8L5.6,8.65L6.8,7.95L7.95,9.9L6.45,9.8C7.583,11.967 8.783,13.633 10.05,14.8L9.8,15.2" style="fill:rgb(167,146,63);"/>
                <path d="M11.4,13L11.5,13.05C11.567,14.483 11.217,15.417 10.45,15.85L9.8,15.2L10.05,14.8L10.2,15C10.7,14.767 11.1,14.1 11.4,13" style="fill:rgb(185,96,28);"/>
                <path d="M10.75,12.65L11.4,13C11.1,14.1 10.7,14.767 10.2,15L10.05,14.8L10.2,14.45L9.7,14.1L10.05,13.3L10.55,13.45L10.75,12.65" style="fill:rgb(236,150,33);"/>
                <path d="M9.8,15.2L9.35,14.7C7.783,13.033 6.667,11.4 6,9.8L5.6,8.65L6.8,7.95L7.95,9.9C8.65,10.933 9.4,11.733 10.2,12.3L10.75,12.65L11.4,13L11.5,13.05C11.567,14.483 11.217,15.417 10.45,15.85L9.8,15.2Z" style="fill:none;fill-rule:nonzero;stroke:black;stroke-opacity:0.3;stroke-width:0.05px;"/>
                <path d="M7.05,2.8L6.65,2.8L6.65,2.75L6,1L6.2,1.25L6.85,2.35L7.05,2.8M7.65,6.3L7.05,7.9L6.5,7.45L6.95,6.1L7.2,6.2L7.05,7.15L7.65,6.3M7.3,5.05L7.05,5.1L6.85,3.55L7.15,3.4L7.3,4.6L7.3,5.05" style="fill:rgb(236,150,33);"/>
                <path d="M6,1L6.65,2.75L6.65,2.8L7.05,2.8L7.2,3.35L7.15,3.4L6.85,3.55L7.05,5.1L7.3,5.05L7.2,6.2L6.95,6.1L6.5,7.45L7.05,7.9L7.65,6.3L7.85,5.9L7.95,5.55C8.117,6.417 8.083,7.133 7.85,7.7L7.7,8C7.367,8.533 6.933,8.617 6.4,8.25L5.9,6.45C6.167,4.283 5.833,2.133 4.9,0L6,1" style="fill:rgb(218,196,109);"/>
                <path d="M7.15,3.4L7.2,3.35L7.25,3.5L7.6,4.05L7.7,4.55L7.75,5L7.3,5.05L7.3,4.6L7.25,3.5L7.3,4.6L7.15,3.4M7.65,6.3L7.05,7.15L7.2,6.2L7.65,6.3" style="fill:rgb(185,96,28);"/>
                <path d="M6.4,8.25C6.933,8.617 7.367,8.533 7.7,8L7.85,7.7C8.083,7.133 8.117,6.417 7.95,5.55L7.85,5.9L7.65,6.3L7.2,6.2L7.3,5.05L7.75,5L7.7,4.55L7.6,4.05L7.85,4.45L8.65,6.6C8.85,7.667 8.767,8.5 8.4,9.1L7.85,9.6C7.483,9.7 7.067,9.483 6.6,8.95L6.4,8.25" style="fill:rgb(167,146,63);"/>
                <path d="M7.05,2.8L6.85,2.35L6.2,1.25L6,1L4.9,0C5.833,2.133 6.167,4.283 5.9,6.45L6.4,8.25L6.6,8.95C7.067,9.483 7.483,9.7 7.85,9.6L8.4,9.1C8.767,8.5 8.85,7.667 8.65,6.6L7.85,4.45L7.6,4.05L7.25,3.5L7.3,4.6M7.2,3.35L7.05,2.8M7.25,3.5L7.2,3.35" style="fill:none;fill-rule:nonzero;stroke:black;stroke-opacity:0.3;stroke-width:0.05px;"/>
                <path d="M7.05,8.15L7.05,8.65C6.717,9.417 6.267,9.7 5.7,9.5C5.367,10 4.967,10.233 4.5,10.2L4.6,8.8C5.3,9.067 5.75,8.767 5.95,7.9L5.6,7.05C6.067,7.483 6.367,7.933 6.5,8.4C6.733,8.467 6.917,8.383 7.05,8.15M5.7,9.5L6.05,8.95L5.95,7.9L6.05,8.95L5.7,9.5" style="fill:rgb(167,146,63);"/>
                <path d="M4.6,8.8L4.2,6.45L5.15,6.5C5.517,6.1 5.933,6.133 6.4,6.6C6.767,6.967 6.983,7.483 7.05,8.15C6.917,8.383 6.733,8.467 6.5,8.4C6.367,7.933 6.067,7.483 5.6,7.05L5.95,7.9C5.75,8.767 5.3,9.067 4.6,8.8M5.6,7.05L5.45,6.8L5.35,6.65L5.15,6.5L5.35,6.65L5.45,6.8L5.6,7.05" style="fill:rgb(218,196,109);"/>
                <path d="M7.05,8.15L7.05,8.65C6.717,9.417 6.267,9.7 5.7,9.5C5.367,10 4.967,10.233 4.5,10.2L4.6,8.8L4.2,6.45L5.15,6.5C5.517,6.1 5.933,6.133 6.4,6.6C6.767,6.967 6.983,7.483 7.05,8.15M5.6,7.05L5.95,7.9L6.05,8.95L5.7,9.5M5.15,6.5L5.35,6.65L5.45,6.8L5.6,7.05" style="fill:none;fill-rule:nonzero;stroke:black;stroke-opacity:0.3;stroke-width:0.05px;"/>
                <path d="M0.25,4.5C0.35,4.133 0.5,3.8 0.7,3.5L1.15,4.8L1.5,5.45L1.6,5.65L0.8,6.15L0.6,5.55L0.55,5.55L0.25,4.5M4.95,8.3L4.95,8.85L4.45,9.2L3.8,9.05L4.1,8.05L4.95,8.3M3.45,7.7L2.6,8.5L2.05,8L1.2,6.9L2.05,6.35L3.45,7.7" style="fill:rgb(236,150,33);"/>
                <path d="M0.7,3.5L0.85,3.25C0.85,2.45 1.117,1.733 1.65,1.1C2.083,3.067 2.667,4.383 3.4,5.05L4.1,5.9C4.633,6.733 4.917,7.533 4.95,8.3L4.1,8.05L3.8,9.05L4.45,9.2C2.65,10.067 1.2,8.767 0.1,5.3L0.15,5.05L0.25,4.5L0.55,5.55L0.6,5.55L0.8,6.15L1.6,5.65L1.5,5.45L1.15,4.8L0.7,3.5M1.15,4.8C0.95,4.233 0.85,3.717 0.85,3.25C0.85,3.717 0.95,4.233 1.15,4.8M3.45,7.7L2.05,6.35L1.2,6.9L2.05,8L2.6,8.5L3.45,7.7" style="fill:rgb(218,196,109);"/>
                <path d="M4.95,8.85L4.9,9.2L4.45,9.2L4.95,8.85" style="fill:rgb(185,96,28);"/>
                <path d="M4.9,9.2L4.6,10C4.033,11.233 3.217,11.4 2.15,10.5C1.117,9.633 0.417,8.4 0.05,6.8C0.017,6.267 0.033,5.767 0.1,5.3C1.2,8.767 2.65,10.067 4.45,9.2L4.9,9.2" style="fill:rgb(167,146,63);"/>
                <path d="M0.25,4.5C0.35,4.133 0.5,3.8 0.7,3.5L0.85,3.25C0.85,2.45 1.117,1.733 1.65,1.1C2.083,3.067 2.667,4.383 3.4,5.05L4.1,5.9C4.633,6.733 4.917,7.533 4.95,8.3L4.95,8.85L4.9,9.2L4.6,10C4.033,11.233 3.217,11.4 2.15,10.5C1.117,9.633 0.417,8.4 0.05,6.8C0.017,6.267 0.033,5.767 0.1,5.3L0.15,5.05L0.25,4.5M1.5,5.45L1.15,4.8C0.95,4.233 0.85,3.717 0.85,3.25" style="fill:none;fill-rule:nonzero;stroke:black;stroke-opacity:0.3;stroke-width:0.05px;"/>
            </g>
        </g>
    </g>
</svg>
