<?xml version="1.0" encoding="UTF-8" standalone="no"?>
<!DOCTYPE svg PUBLIC "-//W3C//DTD SVG 1.1//EN" "http://www.w3.org/Graphics/SVG/1.1/DTD/svg11.dtd">
<svg width="100%" height="100%" viewBox="0 0 24 29" version="1.1" xmlns="http://www.w3.org/2000/svg" xmlns:xlink="http://www.w3.org/1999/xlink" xml:space="preserve" xmlns:serif="http://www.serif.com/" style="fill-rule:evenodd;clip-rule:evenodd;stroke-linecap:round;stroke-linejoin:round;">
    <g transform="matrix(1,0,0,1,-10,-10.6)">
        <g>
            <g id="shape0" transform="matrix(1,0,0,1,21.8,24.65)">
                <path d="M6.3,-13.75C8.433,-10.417 10.167,-5.433 11.5,1.2L10.85,2.25C10.55,2.483 10.25,2.617 9.95,2.65L9.5,2.55L9.3,2.5C9.233,2.933 9.033,3.267 8.7,3.5L9.15,5.75L9.75,9.85L7.85,11L7.3,11L6.9,8.2L6.45,8.25L5.25,8.75L4.85,9L3.95,8.65L4.05,8.15L2.05,8.6L2.65,12.7L0.85,13.5L-0.25,13.75L-1,13.75L-1.55,10.75C-1.85,9.35 -2.233,8.1 -2.7,7L-2.7,7.9L-2.25,8.35L-2.45,8.55L-2.05,8.85L-2.55,9.3C-1.85,10.233 -1.483,11.2 -1.45,12.2L-2.25,12.45L-2.5,11.85L-2.75,12.55L-2.4,13.35L-3,13.55L-3.15,13.3L-4,13.3L-4.35,12.1L-4.7,12.65L-5.4,12.5C-4.8,11.633 -4.4,10.683 -4.2,9.65L-4.55,9.25L-4.3,8.85L-4.6,8.7L-4,8.15L-4,7.6L-4.85,8L-5.8,8L-6.55,8.7L-7.8,8.6L-8.25,8.4L-8.7,8L-9.45,7.5L-10.05,7.35L-10.35,7.95C-10.783,7.683 -11.167,7.117 -11.5,6.25C-11.3,4.217 -10.933,2.017 -10.4,-0.35L-9.6,-3.55C-8.467,-6.917 -7.483,-9.3 -6.65,-10.7L-5.4,-10.7L-5.85,1.7L-5.55,1.3L-3.9,0.75L-3.6,0.95L-3.4,1.1L-3,0.5L-3.05,0.45L-2.45,0.25C-3.15,-0.583 -3.95,-1.317 -4.85,-1.95L-4.9,-2.65L-3.75,-3.1C-3.45,-2.967 -3.317,-3.017 -3.35,-3.25L-2.3,-3.6L-3.2,-4.6L-2.75,-5.3L-2.05,-5.4L-1.85,-5.4L-1.65,-5.25C-1.517,-5.183 -1.383,-5.25 -1.25,-5.45L0.25,-5.65L1.9,-4.35L2.35,-4.4L2.75,-4.5L5.6,-1.9L5.65,-3.8L5.35,-8.15L4.6,-13.6L6.3,-13.75M-5.95,-10.7L-6,-10.45L-6.15,-9.55" style="fill:none;fill-rule:nonzero;stroke:#260900;stroke-width:0.6px;"/>
            </g>
            <g id="sprite0" transform="matrix(1,0,0,1,24.15,27.75)">
                <g id="shape1">
                    <path d="M3.05,-16.75L3.95,-16.85C6.083,-13.517 7.817,-8.533 9.15,-1.9L8.5,-0.85L7.2,-6.65L6.55,-9.15L5.65,-11.75C4.417,-14.617 3.55,-16.283 3.05,-16.75" style="fill:#ddca7d;"/>
                    <path d="M2.25,-16.7L3.05,-16.75L3.75,-12.15L2.25,-16.7" style="fill:#72611f;"/>
                    <path d="M5.15,-1.25L4.9,-1.25C4.733,-1.183 4.683,-0.983 4.75,-0.65L4.35,-0.8C3.783,-6.733 4.517,-9.517 6.55,-9.15L7.2,-6.65C7.2,-3.95 6.517,-2.15 5.15,-1.25M3.2,-3.45L3.3,-6.9L3,-11.25L2.25,-16.7L3.75,-12.15L3.05,-16.75C3.55,-16.283 4.417,-14.617 5.65,-11.75C4.317,-10.25 3.5,-7.483 3.2,-3.45" style="fill:#a28a2d;"/>
                    <path d="M8.5,-0.85C8.2,-0.617 7.9,-0.483 7.6,-0.45L7.15,-0.55C6.917,-0.617 6.7,-0.717 6.5,-0.85L5.55,-1.2L5.15,-1.25C6.517,-2.15 7.2,-3.95 7.2,-6.65L8.5,-0.85M4.35,-0.8L3.1,-1.45L3.2,-3.45C3.5,-7.483 4.317,-10.25 5.65,-11.75L6.55,-9.15C4.517,-9.517 3.783,-6.733 4.35,-0.8" style="fill:#d2ba59;"/>
                    <path d="M3.05,-16.75L3.95,-16.85C6.083,-13.517 7.817,-8.533 9.15,-1.9L8.5,-0.85M7.6,-0.45L7.15,-0.55C6.917,-0.617 6.7,-0.717 6.5,-0.85L5.55,-1.2L5.15,-1.25M4.75,-0.65L4.35,-0.8L3.1,-1.45L3.2,-3.45L3.3,-6.9L3,-11.25L2.25,-16.7" style="fill:none;fill-rule:nonzero;stroke:#000;stroke-opacity:0.3;stroke-width:0.05px;stroke-linecap:butt;stroke-linejoin:miter;stroke-miterlimit:3;"/>
                    <path d="M5.15,-1.25L4.9,-1.25C4.733,-1.183 4.683,-0.983 4.75,-0.65M3.05,-16.75C3.55,-16.283 4.417,-14.617 5.65,-11.75L6.55,-9.15L7.2,-6.65" style="fill:none;fill-rule:nonzero;stroke:#000;stroke-opacity:0.2;stroke-width:0.05px;stroke-linecap:butt;stroke-linejoin:miter;stroke-miterlimit:3;"/>
                    <path d="M2.25,-16.7L3.05,-16.75M7.2,-6.65L8.5,-0.85" style="fill:none;fill-rule:nonzero;stroke:#000;stroke-opacity:0.3;stroke-width:0.05px;stroke-linecap:butt;stroke-linejoin:miter;stroke-miterlimit:3;"/>
                    <path d="M8.5,-0.85C8.2,-0.617 7.9,-0.483 7.6,-0.45" style="fill:none;fill-rule:nonzero;stroke:#000;stroke-opacity:0.3;stroke-width:0.05px;stroke-linejoin:miter;stroke-miterlimit:3;"/>
                    <path d="M2.2,-0.5L2,-1.7C1.967,-2.5 2.183,-3.1 2.65,-3.5L4.15,-4.45C4.683,-4.65 5.217,-4.483 5.75,-3.95C6.283,-3.45 6.55,-3.067 6.55,-2.8C4.55,-2.3 3.1,-1.533 2.2,-0.5" style="fill:#a86426;"/>
                    <path d="M6.55,-2.8C6.75,-2.433 6.883,-1.85 6.95,-1.05C6.983,-0.283 6.717,0.217 6.15,0.45L4.35,1C3.75,1.133 3.2,0.9 2.7,0.3L2.2,-0.5C3.1,-1.533 4.55,-2.3 6.55,-2.8" style="fill:#73441a;"/>
                    <path d="M2.2,-0.5L2,-1.7C1.967,-2.5 2.183,-3.1 2.65,-3.5L4.15,-4.45C4.683,-4.65 5.217,-4.483 5.75,-3.95C6.283,-3.45 6.55,-3.067 6.55,-2.8C6.75,-2.433 6.883,-1.85 6.95,-1.05C6.983,-0.283 6.717,0.217 6.15,0.45L4.35,1C3.75,1.133 3.2,0.9 2.7,0.3L2.2,-0.5Z" style="fill:none;fill-rule:nonzero;stroke:#000;stroke-opacity:0.3;stroke-width:0.05px;stroke-linecap:butt;stroke-linejoin:miter;stroke-miterlimit:3;"/>
                    <path d="M-5.35,-1.4L-5.25,-0.45C-5.317,-0.017 -5.5,0.317 -5.8,0.55L-6.35,0.75L-5.8,0.55L-5.7,2.15L-5.65,3.7L-5.55,4.85C-5.75,5.017 -6.017,5.117 -6.35,5.15L-6.35,5.05L-6.35,5.15C-6.017,5.117 -5.75,5.017 -5.55,4.85L-5.55,5.45L-5.85,5.45L-6.35,5.35L-6.35,5.15L-6.35,5.35L-5.85,5.45C-6.117,5.683 -5.867,5.783 -5.1,5.75L-5.75,5.9L-6.25,6L-6.65,5.75L-6.25,6L-5.75,5.9C-5.917,6.2 -5.783,6.35 -5.35,6.35L-5.05,6.3L-5.1,6.35L-5.25,6.4L-6.45,6.6L-6.55,6.55L-6.45,6.6L-5.25,6.4L-4.45,7.9L-4.9,7.5L-4.9,8.75L-4.85,8.75L-5.1,9.45L-4.75,10.25L-5.1,10.35L-5.75,8.85L-5.65,7.1L-6.05,8.65L-6.15,9L-5.5,10.2L-6.35,10.2L-6.7,9L-7.05,9.55L-7.75,9.4C-7.15,8.533 -6.75,7.583 -6.55,6.55L-6.9,6.15L-6.65,5.75L-6.95,5.6L-6.35,5.05L-6.35,-1.3L-6.3,-1.35L-5.85,-1.55L-5.35,-1.4M-5.7,2.15L-6.35,2.5L-5.7,2.15M-6.35,4.1L-5.65,3.7L-6.35,4.1M-5.2,7.7C-5.3,8.333 -5.267,8.917 -5.1,9.45C-5.267,8.917 -5.3,8.333 -5.2,7.7" style="fill:#960;"/>
                    <path d="M-5.1,2.65L-5.05,3.9L-5.05,4.8L-4.6,5.25L-4.8,5.45L-4.4,5.75L-4.9,6.2C-4.2,7.133 -3.833,8.1 -3.8,9.1L-4.6,9.35L-4.85,8.75L-4.9,8.75L-4.9,7.5L-4.45,7.9L-5.25,6.4L-5.1,6.35L-5.05,6.3L-5.35,6.35C-5.783,6.35 -5.917,6.2 -5.75,5.9L-5.1,5.75C-5.867,5.783 -6.117,5.683 -5.85,5.45L-5.55,5.45L-5.55,4.85L-5.65,3.7C-5.35,3.467 -5.167,3.117 -5.1,2.65M-5.05,4.8L-5,5.2L-5.05,4.8M-5.05,3.9L-5.55,4.85L-5.05,3.9M-4.9,6.2L-5.05,6.3L-4.9,6.2M-5,5.2L-5.55,5.45L-5,5.2M-4.8,5.45L-5.1,5.75L-4.8,5.45" style="fill:#d19d23;"/>
                    <path d="M-5.8,0.55C-5.5,0.317 -5.317,-0.017 -5.25,-0.45L-5.2,1.1L-5.1,2.65C-5.167,3.117 -5.35,3.467 -5.65,3.7L-5.7,2.15L-5.8,0.55M-5.1,10.35L-5.35,10.45L-5.5,10.2L-6.15,9L-6.05,8.65L-5.65,7.1L-5.75,8.85L-5.1,10.35M-5.7,2.15L-5.2,1.1L-5.7,2.15" style="fill:#c18300;"/>
                    <path d="M-5.35,-1.4L-5.85,-1.55L-6.3,-1.35L-6.35,-1.3L-6.35,0.75L-5.8,0.55C-5.5,0.317 -5.317,-0.017 -5.25,-0.45L-5.2,1.1L-5.1,2.65L-5.05,3.9L-5.05,4.8L-5,5.2M-4.6,5.25L-4.8,5.45L-4.4,5.75L-4.9,6.2C-4.2,7.133 -3.833,8.1 -3.8,9.1L-4.6,9.35L-4.85,8.75L-5.1,9.45L-4.75,10.25L-5.1,10.35L-5.35,10.45L-5.5,10.2L-6.35,10.2L-6.7,9L-7.05,9.55L-7.75,9.4C-7.15,8.533 -6.75,7.583 -6.55,6.55L-6.9,6.15L-6.65,5.75L-6.95,5.6L-6.35,5.05L-6.35,0.75M-5.2,1.1L-5.7,2.15L-6.35,2.5M-5.65,3.7C-5.35,3.467 -5.167,3.117 -5.1,2.65M-6.35,5.05L-6.35,5.15C-6.017,5.117 -5.75,5.017 -5.55,4.85L-5.05,3.9M-5.65,3.7L-6.35,4.1M-6.35,5.15L-6.35,5.35L-5.85,5.45L-5.55,5.45M-6.65,5.75L-6.25,6L-5.75,5.9L-5.1,5.75L-4.8,5.45M-5.5,10.2L-6.15,9L-6.05,8.65M-5.25,6.4L-5.1,6.35L-5.05,6.3L-4.9,6.2M-6.55,6.55L-6.45,6.6L-5.25,6.4M-5.1,9.45C-5.267,8.917 -5.3,8.333 -5.2,7.7" style="fill:none;fill-rule:nonzero;stroke:#000;stroke-opacity:0.3;stroke-width:0.05px;stroke-linecap:butt;stroke-linejoin:miter;stroke-miterlimit:3;"/>
                    <path d="M-5.25,-0.45L-5.35,-1.4M-5.55,5.45L-5,5.2" style="fill:none;fill-rule:nonzero;stroke:#000;stroke-opacity:0.3;stroke-width:0.05px;stroke-linecap:butt;stroke-linejoin:miter;stroke-miterlimit:3;"/>
                    <path d="M-5.05,4.8L-4.6,5.25" style="fill:none;fill-rule:nonzero;stroke:#000;stroke-opacity:0.3;stroke-width:0.05px;stroke-linejoin:miter;stroke-miterlimit:3;"/>
                    <path d="M-7.15,2.9L-6.4,2.55C-6.9,0.183 -7.933,-0.867 -9.5,-0.6C-9.1,-1.033 -8.617,-1.3 -8.05,-1.4C-7.45,-1.5 -6.967,-1.317 -6.6,-0.85L-5.7,0.5C-5.533,0.867 -5.417,1.267 -5.35,1.7C-5.217,2.633 -5.317,3.367 -5.65,3.9C-5.95,4.3 -6.467,4.633 -7.2,4.9C-7.033,4.233 -7.017,3.567 -7.15,2.9" style="fill:#73441a;"/>
                    <path d="M-7.15,2.9C-7.95,0.967 -8.783,-0.133 -9.65,-0.4L-9.5,-0.6C-7.933,-0.867 -6.9,0.183 -6.4,2.55L-7.15,2.9" style="fill:#a86426;"/>
                    <path d="M-9.65,-0.4C-8.783,-0.133 -7.95,0.967 -7.15,2.9C-7.017,3.567 -7.033,4.233 -7.2,4.9C-7.9,5 -8.383,4.883 -8.65,4.55L-9.4,3.1L-9.9,1.15C-10,0.517 -9.917,0 -9.65,-0.4" style="fill:#523012;"/>
                    <path d="M-9.5,-0.6L-9.65,-0.4C-9.917,0 -10,0.517 -9.9,1.15L-9.4,3.1L-8.65,4.55C-8.383,4.883 -7.9,5 -7.2,4.9C-6.467,4.633 -5.95,4.3 -5.65,3.9C-5.317,3.367 -5.217,2.633 -5.35,1.7C-5.417,1.267 -5.533,0.867 -5.7,0.5L-6.6,-0.85C-6.967,-1.317 -7.45,-1.5 -8.05,-1.4C-8.617,-1.3 -9.1,-1.033 -9.5,-0.6Z" style="fill:none;fill-rule:nonzero;stroke:#000;stroke-opacity:0.3;stroke-width:0.05px;stroke-linecap:butt;stroke-linejoin:miter;stroke-miterlimit:3;"/>
                    <path d="M-8.3,-13.8L-8.35,-13.55C-9.583,-12.55 -10.233,-11.283 -10.3,-9.75C-9.3,-11.883 -8.7,-12.833 -8.5,-12.6L-8.7,-10.4L-9.8,-9.25L-10.4,-8.35L-10.4,-8.3L-10.6,-7.95C-11.067,-6.883 -11.417,-5.633 -11.65,-4.2C-12.217,-1.367 -12.017,1.667 -11.05,4.9L-11.8,4.4L-12.4,4.25C-12.7,2.083 -12.817,-0.483 -12.75,-3.45L-11.95,-6.65L-10.05,-11.6L-9,-13.8L-8.3,-13.8" style="fill:#ddca7d;"/>
                    <path d="M-8.35,-13.55L-8.3,-13.8L-7.75,-13.8C-8.25,-6.533 -8.333,-0.367 -8,4.7L-8.9,5.6C-9.267,2.133 -9.383,-1.217 -9.25,-4.45L-9.05,-6.8L-9,-7.25L-8.7,-10.4L-8.5,-12.6L-8.5,-12.65L-8.35,-13.55M-9.9,0.05C-9.7,-2.55 -9.75,-3.933 -10.05,-4.1C-10.483,-4.333 -10.817,-3.817 -11.05,-2.55C-10.883,-4.45 -10.567,-5.567 -10.1,-5.9C-9.8,-6.2 -9.55,-5.817 -9.35,-4.75L-9.9,0.05" style="fill:#b79c33;"/>
                    <path d="M-8.35,-13.55L-8.5,-12.65L-8.5,-12.6C-8.7,-12.833 -9.3,-11.883 -10.3,-9.75C-10.233,-11.283 -9.583,-12.55 -8.35,-13.55M-8.7,-10.4L-9,-7.25L-9.05,-6.8L-9.35,-4.75C-9.55,-5.817 -9.8,-6.2 -10.1,-5.9C-10.567,-5.567 -10.883,-4.45 -11.05,-2.55C-10.817,-3.817 -10.483,-4.333 -10.05,-4.1C-9.75,-3.933 -9.7,-2.55 -9.9,0.05L-10.15,5.5L-10.6,5.3L-11.05,4.9C-12.017,1.667 -12.217,-1.367 -11.65,-4.2C-11.417,-5.633 -11.067,-6.883 -10.6,-7.95L-10.4,-8.3L-10.4,-8.35L-9.8,-9.25L-8.7,-10.4M-9,-13.8L-10.05,-11.6L-11.95,-6.65C-10.817,-10.017 -9.833,-12.4 -9,-13.8M-12.75,-3.45C-12.817,-0.483 -12.7,2.083 -12.4,4.25L-12.7,4.85C-13.133,4.583 -13.517,4.017 -13.85,3.15L-12.75,-3.45" style="fill:#d2ba59;"/>
                    <path d="M-9.05,-6.8L-9.25,-4.45C-9.383,-1.217 -9.267,2.133 -8.9,5.6L-10.15,5.5L-9.9,0.05L-9.35,-4.75L-9.05,-6.8" style="fill:#a28a2d;"/>
                    <path d="M-8,4.7C-8.333,-0.367 -8.25,-6.533 -7.75,-13.8L-8.3,-13.8M-11.95,-6.65L-12.75,-3.45L-13.85,3.15C-13.517,4.017 -13.133,4.583 -12.7,4.85M-11.95,-6.65C-10.817,-10.017 -9.833,-12.4 -9,-13.8M-10.15,5.5L-10.6,5.3M-8.9,5.6L-10.15,5.5" style="fill:none;fill-rule:nonzero;stroke:#000;stroke-opacity:0.3;stroke-width:0.05px;stroke-linecap:butt;stroke-linejoin:miter;stroke-miterlimit:3;"/>
                    <path d="M-8.35,-13.55L-8.5,-12.65L-8.5,-12.6L-8.7,-10.4L-9,-7.25L-9.05,-6.8L-9.25,-4.45C-9.383,-1.217 -9.267,2.133 -8.9,5.6M-12.4,4.25L-11.8,4.4L-11.05,4.9L-10.6,5.3M-12.4,4.25L-12.7,4.85" style="fill:none;fill-rule:nonzero;stroke:#000;stroke-opacity:0.2;stroke-width:0.05px;stroke-linecap:butt;stroke-linejoin:miter;stroke-miterlimit:3;"/>
                    <path d="M-8.3,-13.8L-8.35,-13.55" style="fill:none;fill-rule:nonzero;stroke:#000;stroke-opacity:0.2;stroke-width:0.05px;stroke-linejoin:miter;stroke-miterlimit:3;"/>
                    <path d="M-8.9,5.6L-8,4.7" style="fill:none;fill-rule:nonzero;stroke:#000;stroke-opacity:0.3;stroke-width:0.05px;stroke-linecap:butt;stroke-linejoin:miter;stroke-miterlimit:3;"/>
                    <path d="M-8.3,-13.8L-9,-13.8" style="fill:none;fill-rule:nonzero;stroke:#000;stroke-opacity:0.3;stroke-width:0.05px;stroke-linejoin:miter;stroke-miterlimit:3;"/>
                    <path d="M3.7,-3.85C4.467,-3.15 5.167,-1.833 5.8,0.1C6.3,1.633 6.667,3.683 6.9,6.25L6.9,7.05C6.7,7.217 6.483,7.367 6.25,7.5L6.2,7.5C5.767,6.767 5.35,5.733 4.95,4.4C4.25,0.733 3.15,-2.033 1.65,-3.9L1.5,-4.15L2.55,-4.65L2.75,-4.5L2.85,-4.3C3.483,-3.633 4.017,-2.783 4.45,-1.75L3.95,-3.35L3.7,-3.85M5.95,2.35C5.117,0.617 4.483,-0.983 4.05,-2.45C4.117,-1.45 4.383,-0.35 4.85,0.85L5.35,2.1C5.017,1.4 4.9,1.767 5,3.2C5.233,5.167 5.683,5.933 6.35,5.5C6.783,4.933 6.65,3.883 5.95,2.35M5.95,3.6C6.183,4.533 6.133,4.85 5.8,4.55L5.8,4.5C5.533,4.233 5.333,3.6 5.2,2.6C5.2,2.267 5.367,2.367 5.7,2.9L5.95,3.6" style="fill:#ddca7d;"/>
                    <path d="M3.15,-4.9L3.7,-3.85L3.95,-3.35L4.45,-1.75C4.017,-2.783 3.483,-3.633 2.85,-4.3L3.15,-4.9" style="fill:#72611f;"/>
                    <path d="M3.15,-4.9L3.1,-4.95L3.6,-5.2C5.733,-1.933 7,2.05 7.4,6.75L6.9,7.05L6.9,6.25C6.667,3.683 6.3,1.633 5.8,0.1C5.167,-1.833 4.467,-3.15 3.7,-3.85L3.15,-4.9" style="fill:#a28a2d;"/>
                    <path d="M1.5,-4.15L1.65,-3.9C3.15,-2.033 4.25,0.733 4.95,4.4L5.4,7.3L5.45,7.7L5.5,7.9L4.95,7.9L4.5,4.9C3.767,1.133 2.65,-1.65 1.15,-3.45L1.5,-4.15" style="fill:#b79c33;"/>
                    <path d="M4.95,4.4C5.35,5.733 5.767,6.767 6.2,7.5L5.55,7.9L5.5,7.9L5.45,7.7L5.4,7.3L4.95,4.4M5.95,3.6L5.7,2.9C5.367,2.367 5.2,2.267 5.2,2.6C5.333,3.6 5.533,4.233 5.8,4.5L5.8,4.55C6.133,4.85 6.183,4.533 5.95,3.6M5.95,2.35C6.65,3.883 6.783,4.933 6.35,5.5C5.683,5.933 5.233,5.167 5,3.2C4.9,1.767 5.017,1.4 5.35,2.1L4.85,0.85C4.383,-0.35 4.117,-1.45 4.05,-2.45C4.483,-0.983 5.117,0.617 5.95,2.35" style="fill:#d2ba59;"/>
                    <path d="M7.4,6.75C7,2.05 5.733,-1.933 3.6,-5.2L3.1,-4.95L3.15,-4.9L2.85,-4.3L2.75,-4.5L2.55,-4.65L1.5,-4.15L1.65,-3.9M6.2,7.5L6.25,7.5C6.483,7.367 6.7,7.217 6.9,7.05M4.95,7.9L4.5,4.9C3.767,1.133 2.65,-1.65 1.15,-3.45" style="fill:none;fill-rule:nonzero;stroke:#000;stroke-opacity:0.3;stroke-width:0.05px;"/>
                    <path d="M6.9,7.05L7.4,6.75M1.15,-3.45L1.5,-4.15M5.5,7.9L5.55,7.9M5.5,7.9L4.95,7.9" style="fill:none;fill-rule:nonzero;stroke:#47301b;stroke-opacity:0.3;stroke-width:0.05px;stroke-linecap:butt;stroke-linejoin:miter;stroke-miterlimit:3;"/>
                    <path d="M1.65,-3.9C3.15,-2.033 4.25,0.733 4.95,4.4L5.4,7.3L5.45,7.7L5.5,7.9" style="fill:none;fill-rule:nonzero;stroke:#000;stroke-opacity:0.2;stroke-width:0.05px;"/>
                    <path d="M0,-7.5L0.4,-7.6C3,-5.667 4.8,-3.483 5.8,-1.05C5.067,-2.217 4.483,-2.933 4.05,-3.2L0,-7.5M5.65,3.4L5.25,3.7L5.15,2.2L4.8,0.25C4.667,-0.583 4.783,-0.95 5.15,-0.85C5.483,-0.683 5.717,0.1 5.85,1.5C5.917,2.2 5.85,2.833 5.65,3.4M4.1,5.15C3.667,5.283 3.267,5.45 2.9,5.65C2.733,4.383 2.867,3.583 3.3,3.25C4.133,2.35 4.033,0.85 3,-1.25L1.25,-3.5L0.95,-3.65L0.95,-3.7L0.85,-3.75C-0.917,-5.083 -2.667,-6.667 -4.4,-8.5L-4.2,-8.5L-4,-8.35L-1.65,-6.75L-3.6,-8.55L-2.85,-8.65L-0.45,-6.35C1.35,-4.683 2.767,-2.85 3.8,-0.85C4.5,0.383 4.733,1.633 4.5,2.9C4.067,3.867 3.933,4.617 4.1,5.15M-7.25,-5.75L-6.1,-6.2C-5.133,-5.6 -4.317,-4.883 -3.65,-4.05C-4.15,-4.883 -4.833,-5.65 -5.7,-6.35L-5.2,-6.5C-3.867,-6.133 -2.4,-4.733 -0.8,-2.3C-0.067,-1.133 0.55,0.283 1.05,1.95L1.35,2.9L1.5,4.15L1.25,5.15C0.217,5.05 -0.483,4.683 -0.85,4.05L-1.65,2.35L-1.95,1.4L-2.05,0.9L-2.05,0.8C-2.083,-0.267 -2.2,-0.967 -2.4,-1.3C-2.267,-0.5 -2.233,0.05 -2.3,0.35C-3.467,-2.517 -5.117,-4.55 -7.25,-5.75M-1.55,-0.7L-0.85,0.5C-1.35,-0.167 -1.5,0.217 -1.3,1.65C-0.833,3.583 -0.217,4.267 0.55,3.7C1.117,3.1 0.9,2.1 -0.1,0.7C-1.267,-0.9 -2.183,-2.433 -2.85,-3.9C-2.683,-2.867 -2.25,-1.8 -1.55,-0.7M-0.4,1.3L-0.05,1.85C0.35,2.783 0.317,3.133 -0.15,2.9L-0.15,2.85C-0.55,2.65 -0.833,2.033 -1,1C-1.033,0.7 -0.833,0.8 -0.4,1.3" style="fill:#ddca7d;"/>
                    <path d="M5.25,3.7L5.2,4.95L4.1,5.15C3.933,4.617 4.067,3.867 4.5,2.9C4.733,1.633 4.5,0.383 3.8,-0.85C2.767,-2.85 1.35,-4.683 -0.45,-6.35L-2.85,-8.65L-2.1,-8.75L-0.45,-7.45C2.283,-5.183 4.033,-2.617 4.8,0.25L5.15,2.2L5.25,3.7M2.9,5.65L2.5,5.9L2.2,2.55C2.667,2.95 3.033,2.917 3.3,2.45C3.567,1.75 3.533,0.917 3.2,-0.05L2.55,-1.3L2.8,0.2L2.75,1.2L1.8,1.15L1.1,-0.6L0.05,-2.7C-1.783,-5.367 -3.5,-7.267 -5.1,-8.4L-4.65,-8.45L-1.7,-5.5C-1.067,-4.967 -0.567,-4.267 -0.2,-3.4C-0.167,-3.833 0.05,-4.017 0.45,-3.95L0.95,-3.7L0.95,-3.65L1.25,-3.5L3,-1.25C4.033,0.85 4.133,2.35 3.3,3.25C2.867,3.583 2.733,4.383 2.9,5.65M1.25,5.15L-1.1,5.65C-1.233,4.45 -1.417,3.35 -1.65,2.35L-0.85,4.05C-0.483,4.683 0.217,5.05 1.25,5.15M2.05,-1.9L1.85,-2.2C1.117,-3.167 0.733,-3.45 0.7,-3.05C0.667,-1.917 1.217,-0.8 2.35,0.3C0.95,-2.1 0.85,-2.833 2.05,-1.9M-1.55,-0.7C-2.25,-1.8 -2.683,-2.867 -2.85,-3.9C-2.183,-2.433 -1.267,-0.9 -0.1,0.7C0.9,2.1 1.117,3.1 0.55,3.7C-0.217,4.267 -0.833,3.583 -1.3,1.65C-1.5,0.217 -1.35,-0.167 -0.85,0.5L-1.55,-0.7M-0.4,1.3C-0.833,0.8 -1.033,0.7 -1,1C-0.833,2.033 -0.55,2.65 -0.15,2.85L-0.15,2.9C0.317,3.133 0.35,2.783 -0.05,1.85L-0.4,1.3M-2.05,0.8L-2.05,0.9L-1.95,1.4L-2.3,0.35C-2.233,0.05 -2.267,-0.5 -2.4,-1.3C-2.2,-0.967 -2.083,-0.267 -2.05,0.8" style="fill:#d2ba59;"/>
                    <path d="M0,-7.5L4.05,-3.2C4.483,-2.933 5.067,-2.217 5.8,-1.05C6.3,0.117 6.633,1.35 6.8,2.65L6.4,2.95L6.3,1.25L6.1,2.95L6.1,3.15L5.65,3.4C5.85,2.833 5.917,2.2 5.85,1.5C5.717,0.1 5.483,-0.683 5.15,-0.85C4.783,-0.95 4.667,-0.583 4.8,0.25C4.033,-2.617 2.283,-5.183 -0.45,-7.45L0,-7.5M2.5,5.9L1.6,5.55L1.7,5.05L1.95,4.95L1.6,2.9L1.55,2.5C1.15,0.867 0.55,-0.683 -0.25,-2.15C-1.217,-3.883 -2.517,-5.45 -4.15,-6.85L-4.65,-6.7L-5.55,-7.7L-5.1,-8.4C-3.5,-7.267 -1.783,-5.367 0.05,-2.7L1.1,-0.6L1.8,1.15L2.75,1.2L2.8,0.2L2.55,-1.3L3.2,-0.05C3.533,0.917 3.567,1.75 3.3,2.45C3.033,2.917 2.667,2.95 2.2,2.55L1.8,1.15L2.2,2.55L2.5,5.9M-4.65,-8.45L-4.4,-8.5C-2.667,-6.667 -0.917,-5.083 0.85,-3.75L0.45,-3.95C0.05,-4.017 -0.167,-3.833 -0.2,-3.4C-0.567,-4.267 -1.067,-4.967 -1.7,-5.5L-4.65,-8.45M2.05,-1.9C0.85,-2.833 0.95,-2.1 2.35,0.3C1.217,-0.8 0.667,-1.917 0.7,-3.05C0.733,-3.45 1.117,-3.167 1.85,-2.2L2.05,-1.9" style="fill:#b79c33;"/>
                    <path d="M6.4,2.95L6.1,2.95L6.3,1.25L6.4,2.95M-6.1,-6.2C-5.8,-6.067 -5.667,-6.117 -5.7,-6.35C-4.833,-5.65 -4.15,-4.883 -3.65,-4.05C-4.317,-4.883 -5.133,-5.6 -6.1,-6.2M-4,-8.35C-3.867,-8.283 -3.733,-8.35 -3.6,-8.55L-1.65,-6.75L-4,-8.35" style="fill:#72611f;"/>
                    <path d="M1.7,5.05L1.25,5.15L1.5,4.15L1.35,2.9L1.05,1.95C0.55,0.283 -0.067,-1.133 -0.8,-2.3C-2.4,-4.733 -3.867,-6.133 -5.2,-6.5L-4.65,-6.7L-4.15,-6.85C-2.517,-5.45 -1.217,-3.883 -0.25,-2.15C0.55,-0.683 1.15,0.867 1.55,2.5L1.6,2.9L1.95,4.95L1.7,5.05M-1.1,5.65L-1.65,5.35C-2.15,0.717 -4,-2.75 -7.2,-5.05L-7.25,-5.75C-5.117,-4.55 -3.467,-2.517 -2.3,0.35L-1.95,1.4L-1.65,2.35C-1.417,3.35 -1.233,4.45 -1.1,5.65" style="fill:#a28a2d;"/>
                    <path d="M5.8,-1.05C4.8,-3.483 3,-5.667 0.4,-7.6L0,-7.5L-0.45,-7.45L-2.1,-8.75L-3.6,-8.55C-3.733,-8.35 -3.867,-8.283 -4,-8.35L-4.2,-8.5L-4.4,-8.5L-4.65,-8.45L-5.1,-8.4L-5.55,-7.7L-4.65,-6.7L-4.15,-6.85C-2.517,-5.45 -1.217,-3.883 -0.25,-2.15C0.55,-0.683 1.15,0.867 1.55,2.5L1.6,2.9L1.95,4.95L1.7,5.05L1.25,5.15L-1.1,5.65L-1.65,5.35C-2.15,0.717 -4,-2.75 -7.2,-5.05L-7.25,-5.75L-6.1,-6.2C-5.8,-6.067 -5.667,-6.117 -5.7,-6.35L-5.2,-6.5L-4.65,-6.7M5.8,-1.05C6.3,0.117 6.633,1.35 6.8,2.65L6.4,2.95L6.1,2.95L6.1,3.15L5.65,3.4L5.25,3.7L5.2,4.95L4.1,5.15C3.667,5.283 3.267,5.45 2.9,5.65L2.5,5.9L1.6,5.55L1.7,5.05M4.8,0.25L5.15,2.2L5.25,3.7M4.8,0.25C4.033,-2.617 2.283,-5.183 -0.45,-7.45" style="fill:none;fill-rule:nonzero;stroke:#000;stroke-opacity:0.3;stroke-width:0.05px;stroke-linecap:butt;stroke-linejoin:miter;stroke-miterlimit:3;"/>
                    <path d="M1.8,1.15L1.1,-0.6L0.05,-2.7C-1.783,-5.367 -3.5,-7.267 -5.1,-8.4M1.8,1.15L2.2,2.55L2.5,5.9M-1.65,2.35C-1.417,3.35 -1.233,4.45 -1.1,5.65M-1.95,1.4L-1.65,2.35M-1.95,1.4L-2.3,0.35C-3.467,-2.517 -5.117,-4.55 -7.25,-5.75" style="fill:none;fill-rule:nonzero;stroke:#000;stroke-opacity:0.2;stroke-width:0.05px;stroke-linecap:butt;stroke-linejoin:miter;stroke-miterlimit:3;"/>
                    <path d="M-2.05,0.8L-2.05,0.9" style="fill:none;fill-rule:nonzero;stroke:#47301b;stroke-opacity:0.3;stroke-width:0.05px;stroke-linecap:butt;stroke-linejoin:miter;stroke-miterlimit:3;"/>
                    <path d="M-8.45,-1.05L-7.9,-1.8L-7.65,-1.55C-5.517,0.45 -4.033,3.35 -3.2,7.15C-2.967,8.117 -2.783,9.133 -2.65,10.2L-2.6,10.65L-3.35,10.65L-3.9,7.65C-4.767,3.683 -6.283,0.783 -8.45,-1.05" style="fill:#b79c33;"/>
                    <path d="M-7.9,-1.8L-6.25,-2.35L-5.95,-2.15L-5.75,-2C-4.883,-1.267 -4.15,-0.35 -3.55,0.75L-4.2,-0.95L-4.55,-1.5C-3.45,-0.767 -2.483,0.6 -1.65,2.6C-0.983,4.233 -0.55,6.4 -0.35,9.1L-0.45,9.95L-1.5,10.4C-2.067,9.633 -2.633,8.55 -3.2,7.15C-4.033,3.35 -5.517,0.45 -7.65,-1.55L-7.9,-1.8M-4.15,0C-4.083,1.033 -3.733,2.167 -3.1,3.4L-2.45,4.75C-2.917,4.017 -3.117,4.383 -3.05,5.85C-2.783,7.95 -2.167,8.767 -1.2,8.3C-0.467,7.7 -0.583,6.6 -1.55,5C-2.717,3.2 -3.583,1.533 -4.15,0M-2,5.65L-1.65,6.3C-1.317,7.3 -1.4,7.65 -1.9,7.35L-1.9,7.3C-2.3,7 -2.55,6.317 -2.65,5.25C-2.65,4.95 -2.433,5.083 -2,5.65" style="fill:#ddca7d;"/>
                    <path d="M-5.75,-2L-5.35,-2.6L-4.55,-1.5L-4.2,-0.95L-3.55,0.75C-4.15,-0.35 -4.883,-1.267 -5.75,-2" style="fill:#72611f;"/>
                    <path d="M-5.35,-2.6L-5.4,-2.65L-4.65,-2.9C-1.65,0.533 0,4.7 0.3,9.6L-0.45,9.95L-0.35,9.1C-0.55,6.4 -0.983,4.233 -1.65,2.6C-2.483,0.6 -3.45,-0.767 -4.55,-1.5L-5.35,-2.6" style="fill:#a28a2d;"/>
                    <path d="M-1.5,10.4L-2.6,10.65L-2.65,10.2C-2.783,9.133 -2.967,8.117 -3.2,7.15C-2.633,8.55 -2.067,9.633 -1.5,10.4M-2,5.65C-2.433,5.083 -2.65,4.95 -2.65,5.25C-2.55,6.317 -2.3,7 -1.9,7.3L-1.9,7.35C-1.4,7.65 -1.317,7.3 -1.65,6.3L-2,5.65M-4.15,0C-3.583,1.533 -2.717,3.2 -1.55,5C-0.583,6.6 -0.467,7.7 -1.2,8.3C-2.167,8.767 -2.783,7.95 -3.05,5.85C-3.117,4.383 -2.917,4.017 -2.45,4.75L-3.1,3.4C-3.733,2.167 -4.083,1.033 -4.15,0" style="fill:#d2ba59;"/>
                    <path d="M0.3,9.6L-0.45,9.95" style="fill:none;fill-rule:nonzero;stroke:#47301b;stroke-opacity:0.3;stroke-width:0.05px;stroke-linecap:butt;stroke-linejoin:miter;stroke-miterlimit:3;"/>
                    <path d="M-7.9,-1.8L-6.25,-2.35L-5.95,-2.15L-5.75,-2L-5.35,-2.6L-5.4,-2.65L-4.65,-2.9C-1.65,0.533 0,4.7 0.3,9.6M-0.45,9.95L-1.5,10.4L-2.6,10.65L-3.35,10.65L-3.9,7.65C-4.767,3.683 -6.283,0.783 -8.45,-1.05M-7.9,-1.8L-7.65,-1.55" style="fill:none;fill-rule:nonzero;stroke:#000;stroke-opacity:0.3;stroke-width:0.05px;"/>
                    <path d="M-7.65,-1.55C-5.517,0.45 -4.033,3.35 -3.2,7.15C-2.967,8.117 -2.783,9.133 -2.65,10.2L-2.6,10.65" style="fill:none;fill-rule:nonzero;stroke:#000;stroke-opacity:0.2;stroke-width:0.05px;"/>
                    <path d="M-8.45,-1.05L-7.9,-1.8" style="fill:none;fill-rule:nonzero;stroke:#47301b;stroke-opacity:0.3;stroke-width:0.05px;stroke-linecap:butt;stroke-linejoin:miter;stroke-miterlimit:3;"/>
                </g>
            </g>
        </g>
    </g>
</svg>
