<?xml version="1.0" encoding="UTF-8" standalone="no"?>
<!DOCTYPE svg PUBLIC "-//W3C//DTD SVG 1.1//EN" "http://www.w3.org/Graphics/SVG/1.1/DTD/svg11.dtd">
<svg width="100%" height="100%" viewBox="0 0 17 19" version="1.1" xmlns="http://www.w3.org/2000/svg" xmlns:xlink="http://www.w3.org/1999/xlink" xml:space="preserve" xmlns:serif="http://www.serif.com/" style="fill-rule:evenodd;clip-rule:evenodd;stroke-linecap:round;stroke-linejoin:round;">
    <g transform="matrix(1,0,0,1,-18.525,-18.5191)">
        <g transform="matrix(1,0,0,1,26.85,27.7)">
            <g id="sprite0">
                <g id="shape0">
                    <path d="M3.3,-8.4C3.333,-8.767 3.067,-8.85 2.5,-8.65C-0.8,-7.583 -3.017,-5.783 -4.15,-3.25L-4.7,-1.5L-4.75,-1.25C-4.883,-0.45 -4.9,0.417 -4.8,1.35L-5.1,1.1C-5.333,0 -5.333,-1.05 -5.1,-2.05L-5.9,-1.2C-6.567,-0.533 -7.117,0.267 -7.55,1.2L-7.9,2.35C-7.367,3.517 -6.45,4.35 -5.15,4.85L-4.8,5.7L-4.6,5.95L-3.9,6.4L-3.95,6.65L-4.05,7.45C-4.017,8.683 -2.883,9.067 -0.65,8.6L0.3,7.65C0.7,7.15 0.817,6.467 0.65,5.6L0,6.25C-0.7,6.75 -1.367,6.4 -2,5.2C-1.933,4.967 -1.917,4.733 -1.95,4.5C-1.95,4.1 -2.05,3.75 -2.25,3.45L-1.85,3.15C-0.183,2.017 1.817,1.433 4.15,1.4L4.4,1.4C4.767,1.833 5.4,1.95 6.3,1.75L7.15,1.3C7.55,0.967 7.817,0.433 7.95,-0.3L7.95,-0.5L6.75,-0.75L6.25,-0.7L5.7,-1.85L5.35,-2.55L5.4,-2.55C5.4,-2.883 5.2,-3.217 4.8,-3.55L4.75,-3.55L4.6,-3.75L4.65,-4.8C4.617,-5.5 4.4,-6.05 4,-6.45L3.45,-7.25C3.283,-7.617 3.233,-8 3.3,-8.4Z" style="fill:none;fill-rule:nonzero;stroke:#260900;stroke-width:0.85px;"/>
                </g>
                <g id="sprite1" transform="matrix(0.0321,0,0,0.032,-8.70026,-10.052)">
                    <g id="shape1">
                        <path d="M437.7,235.1C441.667,242.1 445.5,249.183 449.2,256.35C436.267,259.05 423.583,261.967 411.15,265.1C414.483,255.867 417.317,245.867 419.65,235.1L437.7,235.1M390.35,225.25C388.883,247.783 383.417,264.767 373.95,276.2C351.917,269 331.967,257.383 314.1,241.35C315.8,220.95 322.967,201.117 335.6,181.85C354,193.583 372.25,208.05 390.35,225.25M319.7,294.05C289.167,305.883 260.633,319.383 234.1,334.55C219.067,343.117 204.683,352.233 190.95,361.9C199.85,348.2 210.933,334.983 224.2,322.25C233.833,312.983 244.617,303.983 256.55,295.25C266.217,288.15 276.65,281.217 287.85,274.45C298.017,281.817 308.633,288.35 319.7,294.05M147.3,384.15C141.167,211.083 209.217,121.767 351.45,116.2C376.483,143.8 398.917,173 418.75,203.8L402.15,203.8C381.783,183.733 355.35,163.867 322.85,144.2C296.183,174.167 278.783,205.567 270.65,238.4C257.683,244.867 245.683,251.783 234.65,259.15C220.75,268.383 208.333,278.333 197.4,289C178.133,307.8 163.517,328.783 153.55,351.95C149.783,365.65 147.7,376.383 147.3,384.15" style="fill:#6e6750;"/>
                        <path d="M418.75,203.8L421.45,203.8C433.783,214 439.65,224.433 439.05,235.1L419.65,235.1C417.317,245.867 414.483,255.867 411.15,265.1C398.783,268.233 386.383,271.933 373.95,276.2C383.417,264.767 388.883,247.783 390.35,225.25C372.25,208.05 354,193.583 335.6,181.85C322.967,201.117 315.8,220.95 314.1,241.35C331.967,257.383 351.917,269 373.95,276.2C354.817,281.5 336.733,287.45 319.7,294.05C308.633,288.35 298.017,281.817 287.85,274.45C276.65,281.217 266.217,288.15 256.55,295.25L234.65,259.15C245.683,251.783 257.683,244.867 270.65,238.4C278.783,205.567 296.183,174.167 322.85,144.2C355.35,163.867 381.783,183.733 402.15,203.8L418.75,203.8M147.6,392.15C147.2,389.95 147.1,387.283 147.3,384.15C147.7,376.383 149.783,365.65 153.55,351.95C163.517,328.783 178.133,307.8 197.4,289L224.2,322.25C210.933,334.983 199.85,348.2 190.95,361.9C176.017,372.4 161.867,383.517 148.5,395.25C148.1,394.35 147.8,393.317 147.6,392.15" style="fill:#ec9404;"/>
                        <path d="M449.2,256.35C459.767,276.65 469.333,297.6 477.9,319.2C379.233,329.733 286.167,358.45 198.7,405.35L148.35,405.35L147.8,395.9L148.5,395.25C151.9,403.283 162.017,399.417 178.85,383.65C182.283,376.283 186.317,369.033 190.95,361.9C204.683,352.233 219.067,343.117 234.1,334.55C260.633,319.383 289.167,305.883 319.7,294.05C338.9,303.983 359.417,311.367 381.25,316.2C393.683,302.967 403.65,285.933 411.15,265.1C423.583,261.967 436.267,259.05 449.2,256.35" style="fill:#413e33;"/>
                        <path d="M373.95,276.2C386.383,271.933 398.783,268.233 411.15,265.1C403.65,285.933 393.683,302.967 381.25,316.2C359.417,311.367 338.9,303.983 319.7,294.05C336.733,287.45 354.817,281.5 373.95,276.2M190.95,361.9C186.317,369.033 182.283,376.283 178.85,383.65C162.017,399.417 151.9,403.283 148.5,395.25C161.867,383.517 176.017,372.4 190.95,361.9" style="fill:#a35900;"/>
                        <path d="M148.5,395.25L147.8,395.9L147.6,392.15C147.8,393.317 148.1,394.35 148.5,395.25M234.65,259.15L256.55,295.25C244.617,303.983 233.833,312.983 224.2,322.25L197.4,289C208.333,278.333 220.75,268.383 234.65,259.15" style="fill:#fdf40a;"/>
                        <path d="M418.75,203.8L421.45,203.8C433.783,214 439.65,224.433 439.05,235.1L437.7,235.1C441.667,242.1 445.5,249.183 449.2,256.35C459.767,276.65 469.333,297.6 477.9,319.2C379.233,329.733 286.167,358.45 198.7,405.35L148.35,405.35L147.8,395.9L146.85,396.7M148.5,395.25L147.8,395.9L147.6,392.15C147.2,389.95 147.1,387.283 147.3,384.15C141.167,211.083 209.217,121.767 351.45,116.2C376.483,143.8 398.917,173 418.75,203.8M148.5,395.25C148.1,394.35 147.8,393.317 147.6,392.15" style="fill:none;fill-rule:nonzero;stroke:#000;stroke-opacity:0.3;stroke-width:0.2px;"/>
                        <path d="M124.1,267.4C127.833,248.3 133.633,230.267 141.5,213.3C176.567,134.1 245.583,77.85 348.55,44.55C366.983,37.75 375.383,40.017 373.75,51.35C371.883,64.183 373.433,76.283 378.4,87.65L359.55,60.6C235.85,113.467 157.367,182.4 124.1,267.4M245.1,352.8C258.5,344.4 272.5,336.833 287.1,330.1C334.067,308.4 399.017,295.583 481.95,291.65C499.883,290.65 512.267,293.033 519.1,298.8L518.2,304.7C422.033,309.467 331,325.5 245.1,352.8" style="fill:#d8d8cf;"/>
                        <path d="M124.1,267.4C157.367,182.4 235.85,113.467 359.55,60.6L378.4,87.65C382.167,96.283 387.917,104.5 395.65,112.3C408.117,124.833 414.867,142.333 415.9,164.8C407.733,150.8 392.467,136.233 370.1,121.1C360.5,114.3 354.283,103.017 351.45,87.25C322.55,89.75 277.75,115.917 217.05,165.75C156.35,215.583 129.1,289.783 135.3,388.35C129.967,382.817 125.683,376.733 122.45,370.1C117.383,333.033 117.933,298.8 124.1,267.4M518.2,304.7C514.233,327.533 506.133,344.433 493.9,355.4C498.633,343.933 494.6,335.3 481.8,329.5C313.1,339.467 212.483,370.283 179.95,421.95L172.8,411.8C178.867,405.4 185.133,399.267 191.6,393.4C208.267,378.2 226.1,364.667 245.1,352.8C331,325.5 422.033,309.467 518.2,304.7" style="fill:#bdb59b;"/>
                        <path d="M415.9,164.8C416.3,174.533 415.65,185.183 413.95,196.75C392.95,170.583 373.45,149.05 355.45,132.15C337.45,115.217 297.217,129.85 234.75,176.05C172.25,222.217 144.567,297.35 151.7,401.45C145.4,397.517 139.933,393.15 135.3,388.35C129.1,289.783 156.35,215.583 217.05,165.75C277.75,115.917 322.55,89.75 351.45,87.25C354.283,103.017 360.5,114.3 370.1,121.1C392.467,136.233 407.733,150.8 415.9,164.8M448.95,357.65L408.6,357.65L448.95,357.65M493.9,355.4C486.633,361.9 477.933,366.317 467.8,368.65C439,375.217 419.267,371.55 408.6,357.65L400.85,357.65C327.683,359.583 265.133,378.15 213.2,413.35C204.333,419.317 195.8,425.783 187.6,432.75L179.95,421.95C212.483,370.283 313.1,339.467 481.8,329.5C494.6,335.3 498.633,343.933 493.9,355.4" style="fill:#786b55;"/>
                        <path d="M378.4,87.65C373.433,76.283 371.883,64.183 373.75,51.35C375.383,40.017 366.983,37.75 348.55,44.55C245.583,77.85 176.567,134.1 141.5,213.3C133.633,230.267 127.833,248.3 124.1,267.4L121.35,274.65M378.4,87.65C382.167,96.283 387.917,104.5 395.65,112.3C408.117,124.833 414.867,142.333 415.9,164.8C416.3,174.533 415.65,185.183 413.95,196.75C392.95,170.583 373.45,149.05 355.45,132.15C337.45,115.217 297.217,129.85 234.75,176.05C172.25,222.217 144.567,297.35 151.7,401.45C145.4,397.517 139.933,393.15 135.3,388.35C129.967,382.817 125.683,376.733 122.45,370.1C117.383,333.033 117.933,298.8 124.1,267.4M408.6,357.65L448.95,357.65M493.9,355.4C486.633,361.9 477.933,366.317 467.8,368.65C439,375.217 419.267,371.55 408.6,357.65L400.85,357.65C327.683,359.583 265.133,378.15 213.2,413.35C204.333,419.317 195.8,425.783 187.6,432.75L187.05,433.2M245.1,352.8C258.5,344.4 272.5,336.833 287.1,330.1C334.067,308.4 399.017,295.583 481.95,291.65C499.883,290.65 512.267,293.033 519.1,298.8L518.2,304.7C514.233,327.533 506.133,344.433 493.9,355.4M179.95,421.95L187.6,432.75M179.95,421.95L172.8,411.8C178.867,405.4 185.133,399.267 191.6,393.4C208.267,378.2 226.1,364.667 245.1,352.8" style="fill:none;fill-rule:nonzero;stroke:#000;stroke-opacity:0.3;stroke-width:0.2px;"/>
                        <path d="M87.85,276.65C94.95,267.917 102.883,259.217 111.65,250.55C104.85,281.483 104.817,314.333 111.55,349.1L111.9,349.35L97.7,360.55C84.5,336.383 81.217,308.417 87.85,276.65" style="fill:#efefe5;"/>
                        <path d="M197,417.75C205.6,428.15 210.217,440.683 210.85,455.35C211.15,462.917 210.367,470 208.5,476.6C207.633,479.567 206.567,482.45 205.3,485.25C203.333,489.483 200.85,493.5 197.85,497.3L196.95,498.5L198,497.2C200.8,516.367 189.133,529.217 163,535.75C157.267,543.483 160.467,550.85 172.6,557.85C189.167,567.383 210.783,570.85 237.45,568.25C246.25,567.383 253.517,563.85 259.25,557.65C268.917,547.117 272.817,531.333 270.95,510.3C277.45,505.533 284.033,498.6 290.7,489.5C296.267,517.3 292.883,538.95 280.55,554.45C268.183,569.917 258.417,579.633 251.25,583.6C181.45,597.967 146.117,585.95 145.25,547.55L145.25,547.35C145.117,540.15 146.183,532.017 148.45,522.95L150.25,514.95C141.717,512.85 133.983,508.117 127.05,500.75C124.85,498.417 122.883,495.983 121.15,493.45C137.55,499.917 149.517,497.1 157.05,485L160.65,485.4C167.217,485.067 172.717,482.067 177.15,476.4L179.05,473.7C182.183,468.667 183.617,462.9 183.35,456.4C183.15,451.6 182.05,447.283 180.05,443.45C182.05,447.283 183.15,451.6 183.35,456.4C183.617,462.9 182.183,468.667 179.05,473.7L177.15,476.4C172.717,482.067 167.217,485.067 160.65,485.4L157.05,485C152.483,484.5 148.533,482.767 145.2,479.8C161.467,476.033 173.083,463.917 180.05,443.45C178.85,441.15 177.333,439.017 175.5,437.05L172.3,434.15C190.867,432.183 199.1,426.717 197,417.75M111.05,466.1C70.283,450.233 41.517,424.317 24.75,388.35C25.817,379.45 29.733,367.45 36.5,352.35C39.533,374.717 46.717,389.75 58.05,397.45C79.883,412.15 102.033,418.683 124.5,417.05L123.55,418.2C114.217,430.1 109.883,444.1 110.55,460.2L111.05,466.1M191.95,504.2L191.8,504.55L195.25,500.5L195.65,500L196.6,498.85L196.95,498.5L196.6,498.85L195.65,500L195.25,500.5L191.8,504.55L191.95,504.2L192.1,503.65L192.1,503.7L192.05,503.8L191.95,504.2M150.25,514.95C154.383,515.983 158.7,516.383 163.2,516.15C171.367,515.75 177.317,514.417 181.05,512.15C184.75,509.85 187.35,508.017 188.85,506.65L190.55,505.25L190.15,505.75L191.95,503.85L191.9,503.95L191.8,504.55L192.05,503.8L191.8,504.55L191.9,503.95L191.95,503.85L190.15,505.75L190.55,505.25L188.85,506.65C187.35,508.017 184.75,509.85 181.05,512.15C177.317,514.417 171.367,515.75 163.2,516.15C158.7,516.383 154.383,515.983 150.25,514.95M192.1,503.65L191.95,503.85L192.1,503.65M191.95,503.85L192.1,503.7L191.95,503.85" style="fill:#786b55;"/>
                        <path d="M97.7,360.55L111.9,349.35C123.633,357.683 147.4,376.433 183.2,405.6L183.4,405.75L183,405.5L183.2,405.6L183,405.5C172.967,401.767 166.3,399.867 163,399.8L156.8,399.5C155.033,399.7 152.983,400.15 150.65,400.85L147.35,401.95L145.35,402.65L143.8,403.25C126.2,389.017 110.833,374.783 97.7,360.55M208.5,476.6L208.55,476.65C228.783,514.65 249.583,525.867 270.95,510.3C268.35,514.233 267,516 266.9,515.6C242.867,535.167 219.9,529.033 198,497.2L196.95,498.5L197.85,497.3C200.85,493.5 203.333,489.483 205.3,485.25C206.567,482.45 207.633,479.567 208.5,476.6M191.95,504.2L192.05,503.8L192.1,503.7L192.1,503.65L191.95,504.2" style="fill:#d8d8cf;"/>
                        <path d="M87.85,276.65C81.217,308.417 84.5,336.383 97.7,360.55C110.833,374.783 126.2,389.017 143.8,403.25L145.35,402.65L147.35,401.95L150.65,400.85C152.983,400.15 155.033,399.7 156.8,399.5L163,399.8C166.3,399.867 172.967,401.767 183,405.5L183.4,405.75L183.2,405.6C187.133,407.967 190.85,411.017 194.35,414.75L197,417.75C199.1,426.717 190.867,432.183 172.3,434.15L175.5,437.05C177.333,439.017 178.85,441.15 180.05,443.45C173.083,463.917 161.467,476.033 145.2,479.8L143.4,478.05C138.5,472.85 135.883,466.4 135.55,458.7C135.217,451.033 137.267,444.367 141.7,438.7C146.133,433.033 151.65,430.05 158.25,429.75L163.85,430.2C166.883,430.833 169.7,432.15 172.3,434.15C169.7,432.15 166.883,430.833 163.85,430.2L158.25,429.75C151.65,430.05 146.133,433.033 141.7,438.7C137.267,444.367 135.217,451.033 135.55,458.7C135.883,466.4 138.5,472.85 143.4,478.05L145.2,479.8C148.533,482.767 152.483,484.5 157.05,485C149.517,497.1 137.55,499.917 121.15,493.45C115.65,485.45 112.283,476.333 111.05,466.1L110.55,460.2C109.883,444.1 114.217,430.1 123.55,418.2L124.5,417.05C128.067,412.683 131.95,409.133 136.15,406.4L136.1,406.45L143.8,403.25L136.1,406.45L136.15,406.4C131.95,409.133 128.067,412.683 124.5,417.05C102.033,418.683 79.883,412.15 58.05,397.45C46.717,389.75 39.533,374.717 36.5,352.35C49.867,322.517 66.983,297.283 87.85,276.65M198,497.2C219.9,529.033 242.867,535.167 266.9,515.6C267,516 268.35,514.233 270.95,510.3C272.817,531.333 268.917,547.117 259.25,557.65C253.517,563.85 246.25,567.383 237.45,568.25C210.783,570.85 189.167,567.383 172.6,557.85C160.467,550.85 157.267,543.483 163,535.75C189.133,529.217 200.8,516.367 198,497.2" style="fill:#bdb59b;"/>
                        <path d="M168.15,375.5L168.25,375.6L168.55,375.95L167.3,376.4L168.15,375.5" style="fill:#fdf40a;"/>
                        <path d="M111.9,349.35L111.55,349.1C104.817,314.333 104.85,281.483 111.65,250.55C102.883,259.217 94.95,267.917 87.85,276.65C66.983,297.283 49.867,322.517 36.5,352.35C29.733,367.45 25.817,379.45 24.75,388.35C41.517,424.317 70.283,450.233 111.05,466.1C112.283,476.333 115.65,485.45 121.15,493.45C122.883,495.983 124.85,498.417 127.05,500.75C133.983,508.117 141.717,512.85 150.25,514.95L148.45,522.95C146.183,532.017 145.117,540.15 145.25,547.35L144.95,547.5L145.25,547.55L145.25,547.35M111.9,349.35C123.633,357.683 147.4,376.433 183.2,405.6C187.133,407.967 190.85,411.017 194.35,414.75L197,417.75C205.6,428.15 210.217,440.683 210.85,455.35C211.15,462.917 210.367,470 208.5,476.6L208.55,476.65C228.783,514.65 249.583,525.867 270.95,510.3C277.45,505.533 284.033,498.6 290.7,489.5C296.267,517.3 292.883,538.95 280.55,554.45C268.183,569.917 258.417,579.633 251.25,583.6C181.45,597.967 146.117,585.95 145.25,547.55M168.15,375.5L168.25,375.6L168.55,375.95L167.3,376.4M183,405.5L183.4,405.75L183.2,405.6L183,405.5C172.967,401.767 166.3,399.867 163,399.8L156.8,399.5C155.033,399.7 152.983,400.15 150.65,400.85L147.35,401.95L145.35,402.65L143.8,403.25L136.1,406.45L136.15,406.4C131.95,409.133 128.067,412.683 124.5,417.05L123.55,418.2C114.217,430.1 109.883,444.1 110.55,460.2L111.05,466.1M145.2,479.8L143.4,478.05C138.5,472.85 135.883,466.4 135.55,458.7C135.217,451.033 137.267,444.367 141.7,438.7C146.133,433.033 151.65,430.05 158.25,429.75L163.85,430.2C166.883,430.833 169.7,432.15 172.3,434.15L175.5,437.05C177.333,439.017 178.85,441.15 180.05,443.45C182.05,447.283 183.15,451.6 183.35,456.4C183.617,462.9 182.183,468.667 179.05,473.7L177.15,476.4C172.717,482.067 167.217,485.067 160.65,485.4L157.05,485C152.483,484.5 148.533,482.767 145.2,479.8M208.5,476.6C207.633,479.567 206.567,482.45 205.3,485.25C203.333,489.483 200.85,493.5 197.85,497.3L196.95,498.5L196.6,498.85L195.65,500L195.25,500.5L191.8,504.55L191.95,504.2L192.05,503.8L191.8,504.55L191.9,503.95L191.95,503.85L190.15,505.75L190.55,505.25L188.85,506.65C187.35,508.017 184.75,509.85 181.05,512.15C177.317,514.417 171.367,515.75 163.2,516.15C158.7,516.383 154.383,515.983 150.25,514.95M192.1,503.7L192.05,503.8M191.95,503.85L192.1,503.65L191.95,504.2M192.1,503.7L191.95,503.85" style="fill:none;fill-rule:nonzero;stroke:#000;stroke-opacity:0.3;stroke-width:0.2px;"/>
                    </g>
                </g>
            </g>
        </g>
    </g>
</svg>
