<?xml version="1.0" encoding="UTF-8" standalone="no"?>
<!DOCTYPE svg PUBLIC "-//W3C//DTD SVG 1.1//EN" "http://www.w3.org/Graphics/SVG/1.1/DTD/svg11.dtd">
<svg width="100%" height="100%" viewBox="0 0 16 12" version="1.1" xmlns="http://www.w3.org/2000/svg" xmlns:xlink="http://www.w3.org/1999/xlink" xml:space="preserve" xmlns:serif="http://www.serif.com/" style="fill-rule:evenodd;clip-rule:evenodd;stroke-linecap:round;stroke-linejoin:round;">
    <g transform="matrix(1,0,0,1,-8.4,-14.5)">
        <g>
            <g id="shape0" transform="matrix(1,0,0,1,16.05,20.1)">
                <path d="M4.8,-2.15L4.9,-1.9C5.233,-2.867 5.833,-3.467 6.7,-3.7L5.95,-1.65L5.95,-1.55L5.85,-0.9L5.85,0.9L5.95,1.25L5.95,1.35C6.517,1.45 6.933,1.733 7.2,2.2L5.95,2.55L6.25,3.35C5.783,3.35 5.433,3.133 5.2,2.7L4.75,3L4.55,3.15L3.6,5L3.55,5L2.6,3.9L1.1,4.15L-1.5,4.2L-2.8,5.1L-2.8,4L-3.15,3.9L-3.8,3.7L-6.1,4.05C-6,3.683 -5.767,3.417 -5.4,3.25L-7.15,2.95C-6.783,2.483 -6.283,2.15 -5.65,1.95L-5.65,1.75L-5.55,1.4L-5.55,1.05L-5.45,-0.7L-5.55,-1.15L-5.4,-1.45L-5.35,-1.35C-5.717,-2.183 -5.5,-2.95 -4.7,-3.65C-4.567,-2.583 -3.983,-1.65 -2.95,-0.85C-3.117,-1.617 -3.117,-2.167 -2.95,-2.5C-2.383,-1.833 -1.35,-1.25 0.15,-0.75C0.717,-1.75 0.867,-2.433 0.6,-2.8C1.3,-2.633 1.883,-2.15 2.35,-1.35L3,-3.45L3.55,-5.1L4.3,-3.45L4.6,-2.75L5.1,-3.55C4.9,-3.05 4.8,-2.583 4.8,-2.15" style="fill:#333;"/>
                <path d="M4.8,-2.15C4.8,-2.583 4.9,-3.05 5.1,-3.55L4.6,-2.75L4.3,-3.45L3.55,-5.1L3,-3.45L2.35,-1.35C1.883,-2.15 1.3,-2.633 0.6,-2.8C0.867,-2.433 0.717,-1.75 0.15,-0.75C-1.35,-1.25 -2.383,-1.833 -2.95,-2.5C-3.117,-2.167 -3.117,-1.617 -2.95,-0.85C-3.983,-1.65 -4.567,-2.583 -4.7,-3.65C-5.5,-2.95 -5.717,-2.183 -5.35,-1.35L-5.4,-1.45L-5.55,-1.15L-5.45,-0.7L-5.55,1.05L-5.55,1.4L-5.65,1.75L-5.65,1.95C-6.283,2.15 -6.783,2.483 -7.15,2.95L-5.4,3.25C-5.767,3.417 -6,3.683 -6.1,4.05L-3.8,3.7L-3.15,3.9L-2.8,4L-2.8,5.1L-1.5,4.2L1.1,4.15L2.6,3.9L3.55,5L3.6,5L4.55,3.15L4.75,3L5.2,2.7C5.433,3.133 5.783,3.35 6.25,3.35L5.95,2.55L7.2,2.2C6.933,1.733 6.517,1.45 5.95,1.35L5.95,1.25L5.85,0.9L5.85,-0.9L5.95,-1.55L5.95,-1.65L6.7,-3.7C5.833,-3.467 5.233,-2.867 4.9,-1.9L4.8,-2.15Z" style="fill:none;fill-rule:nonzero;stroke:#260900;stroke-opacity:0.99;stroke-width:1px;"/>
            </g>
            <g id="sprite0" transform="matrix(0.0321,0,0,0.032,8.09972,10.0926)">
                <g id="shape1">
                    <path d="M429.4,311L429.4,352.9C449.767,356.6 464.233,366.4 472.8,382.3L433.2,392.5L442.7,417.05C426.233,417.45 413.967,408.683 405.9,390.75L225.7,431.2C195.133,443.767 173.467,457.65 160.7,472.85L160.7,424.8L57.7,439.7C61,428.2 68.25,419.733 79.45,414.3C61.15,413.6 42.933,410.767 24.8,405.8C55.4,408.033 88.717,403.95 124.75,393.55L90.7,425.55C201.467,393.283 314.367,355.1 429.4,311" style="fill:#d1c898;"/>
                    <path d="M429.4,311C314.367,355.1 201.467,393.283 90.7,425.55L124.75,393.55C88.717,403.95 55.4,408.033 24.8,405.8C38.267,388.167 58.233,375.9 84.7,369L84.7,276.5C69.233,248.167 74.7,222.417 101.1,199.25C105,232.65 123.267,261.867 155.9,286.9C150.133,262.633 150.133,245.333 155.9,235C174,255.467 206.383,273.733 253.05,289.8C270.583,258.233 275.3,236.85 267.2,225.65C294.6,231.717 315.933,254.317 331.2,293.45C346.6,302.117 363.6,300.267 382.2,287.9C376.833,256.833 384.733,228.2 405.9,202C397.6,221.367 395.35,239.633 399.15,256.8C409.083,224.567 427.983,204.75 455.85,197.35L429.4,269.05L429.4,311" style="fill:#f6f1c7;"/>
                    <path d="M24.8,405.8C42.933,410.767 61.15,413.6 79.45,414.3C68.25,419.733 61,428.2 57.7,439.7L160.7,424.8L160.7,472.85C173.467,457.65 195.133,443.767 225.7,431.2L405.9,390.75C413.967,408.683 426.233,417.45 442.7,417.05L433.2,392.5L472.8,382.3C464.233,366.4 449.767,356.6 429.4,352.9L429.4,269.05L455.85,197.35C427.983,204.75 409.083,224.567 399.15,256.8C395.35,239.633 397.6,221.367 405.9,202C384.733,228.2 376.833,256.833 382.2,287.9C363.6,300.267 346.6,302.117 331.2,293.45C315.933,254.317 294.6,231.717 267.2,225.65C275.3,236.85 270.583,258.233 253.05,289.8C206.383,273.733 174,255.467 155.9,235C150.133,245.333 150.133,262.633 155.9,286.9C123.267,261.867 105,232.65 101.1,199.25C74.7,222.417 69.233,248.167 84.7,276.5L84.7,369C58.233,375.9 38.267,388.167 24.8,405.8Z" style="fill:none;fill-rule:nonzero;stroke:#000;stroke-opacity:0.3;stroke-width:0.05px;"/>
                    <path d="M429.85,339.35L429.85,340.95C431.683,344.35 432.95,347.85 433.65,351.45C430.617,363.05 416.633,377.567 391.7,395C366.467,412.533 329.8,424.017 281.7,429.45C233.567,434.717 189.15,432.15 148.45,421.75C107.717,411.417 85.167,400.7 80.8,389.6L72,368.4C72.6,364.8 73.717,360.9 75.35,356.7C75.85,358.667 76.533,360.617 77.4,362.55C85.6,382.817 109.717,398.167 149.75,408.6C189.583,418.7 233.567,421.133 281.7,415.9C329.8,410.433 366.467,398.933 391.7,381.4C416.633,363.967 429.35,349.95 429.85,339.35M75.35,277.4C75.85,273.8 77.467,270.633 80.2,267.9C85.467,280.833 97.35,291.833 115.85,300.9C125.983,305.767 138.2,310 152.5,313.6C192.367,323.733 236.35,326.267 284.45,321.2C328.183,316.233 363.7,306.2 391,291.1C393.8,289.667 396.517,288.067 399.15,286.3C420.183,272.667 429.533,262.483 427.2,255.75C430.7,257.717 432.85,260.733 433.65,264.8C430.05,275.033 417.867,286.867 397.1,300.3L388.95,305.15C361.55,320.25 325.983,330.233 282.25,335.1C234.15,340.367 190.183,337.933 150.35,327.8C136.017,324.2 123.783,319.917 113.65,314.95C95.25,305.883 82.483,293.367 75.35,277.4" style="fill:#5d5345;"/>
                    <path d="M433.65,264.8C434.417,269.767 433.15,276.45 429.85,284.85C427.617,291.55 417.383,300.75 399.15,312.45L391,317.4C363.7,332.4 328.183,342.433 284.45,347.5C236.35,352.567 192.367,350.033 152.5,339.9C138.2,336.3 125.983,332.067 115.85,327.2C97.35,318.033 84.733,306.05 78,291.25C75.667,286.183 74.783,281.567 75.35,277.4C82.483,293.367 95.25,305.883 113.65,314.95C123.783,319.917 136.017,324.2 150.35,327.8C190.183,337.933 234.15,340.367 282.25,335.1C325.983,330.233 361.55,320.25 388.95,305.15L397.1,300.3C417.867,286.867 430.05,275.033 433.65,264.8M433.65,351.45C434.717,358.75 433.35,366.5 429.55,374.7C424.383,385.5 413.383,396.35 396.55,407.25C368.083,425.083 329.8,436.733 281.7,442.2C233.567,447.433 189.583,445 149.75,434.9C115.65,425.933 93.1,413.467 82.1,397.5L81.35,396.6L78.15,391.5C76.017,388.567 74.317,385.15 73.05,381.25C71.683,377.35 71.333,373.067 72,368.4L80.8,389.6C85.167,400.7 107.717,411.417 148.45,421.75C189.15,432.15 233.567,434.717 281.7,429.45C329.8,424.017 366.467,412.533 391.7,395C416.633,377.567 430.617,363.05 433.65,351.45" style="fill:#3f382b;"/>
                    <path d="M429.85,307.35L429.85,339.35C429.35,349.95 416.633,363.967 391.7,381.4C366.467,398.933 329.8,410.433 281.7,415.9C233.567,421.133 189.583,418.7 149.75,408.6C109.717,398.167 85.6,382.817 77.4,362.55C76.533,360.617 75.85,358.667 75.35,356.7L75.35,356.3C74.983,354.633 74.75,353.067 74.65,351.6C74.45,349.367 74.5,347.183 74.8,345.05L76.4,318.15C84.2,329.917 97.35,340.333 115.85,349.4C125.983,354.267 138.2,358.5 152.5,362.1C192.367,372.233 236.35,374.767 284.45,369.7C328.183,364.733 363.7,354.7 391,339.6C393.8,338.167 396.517,336.567 399.15,334.8C417.283,323.1 427.517,313.95 429.85,307.35" style="fill:#7e6853;"/>
                    <path d="M429.85,284.85L429.85,307.35C427.517,313.95 417.283,323.1 399.15,334.8C396.517,336.567 393.8,338.167 391,339.6C363.7,354.7 328.183,364.733 284.45,369.7C236.35,374.767 192.367,372.233 152.5,362.1C138.2,358.5 125.983,354.267 115.85,349.4C97.35,340.333 84.2,329.917 76.4,318.15L78,291.25C84.733,306.05 97.35,318.033 115.85,327.2C125.983,332.067 138.2,336.3 152.5,339.9C192.367,350.033 236.35,352.567 284.45,347.5C328.183,342.433 363.7,332.4 391,317.4L399.15,312.45C417.383,300.75 427.617,291.55 429.85,284.85" style="fill:#524436;"/>
                    <path d="M433.65,264.8C434.417,269.767 433.15,276.45 429.85,284.85L429.85,340.95C431.683,344.35 432.95,347.85 433.65,351.45C434.717,358.75 433.35,366.5 429.55,374.7C424.383,385.5 413.383,396.35 396.55,407.25C368.083,425.083 329.8,436.733 281.7,442.2C233.567,447.433 189.583,445 149.75,434.9C115.65,425.933 93.1,413.467 82.1,397.5L81.35,396.6L78.15,391.5C76.017,388.567 74.317,385.15 73.05,381.25C71.683,377.35 71.333,373.067 72,368.4C72.6,364.8 73.717,360.9 75.35,356.7L75.35,356.3C74.983,354.633 74.75,353.067 74.65,351.6C74.45,349.367 74.5,347.183 74.8,345.05L78,291.25C75.667,286.183 74.783,281.567 75.35,277.4C75.85,273.8 77.467,270.633 80.2,267.9C85.467,280.833 97.35,291.833 115.85,300.9C125.983,305.767 138.2,310 152.5,313.6C192.367,323.733 236.35,326.267 284.45,321.2C328.183,316.233 363.7,306.2 391,291.1C393.8,289.667 396.517,288.067 399.15,286.3C420.183,272.667 429.533,262.483 427.2,255.75C430.7,257.717 432.85,260.733 433.65,264.8M429.85,284.85C427.617,291.55 417.383,300.75 399.15,312.45L391,317.4C363.7,332.4 328.183,342.433 284.45,347.5C236.35,352.567 192.367,350.033 152.5,339.9C138.2,336.3 125.983,332.067 115.85,327.2C97.35,318.033 84.733,306.05 78,291.25M429.85,339.35C429.35,349.95 416.633,363.967 391.7,381.4C366.467,398.933 329.8,410.433 281.7,415.9C233.567,421.133 189.583,418.7 149.75,408.6C109.717,398.167 85.6,382.817 77.4,362.55C76.533,360.617 75.85,358.667 75.35,356.7" style="fill:none;fill-rule:nonzero;stroke:#0a0003;stroke-opacity:0.3;stroke-width:0.05px;"/>
                    <path d="M409.4,292L361.9,191.5C342.7,241.467 330.083,275.983 324.05,295.05C318.017,314.15 314.033,326.233 312.1,331.3L312.1,331.15L311.95,330.7C309.117,322.433 307.8,318 308,317.4C317.233,280.3 328.183,242.717 340.85,204.65C346.417,187.783 352.317,170.833 358.55,153.8C366.917,170.433 374.75,187.383 382.05,204.65C392.283,229.183 401.35,254.3 409.25,280C410.317,283.433 410.367,287.433 409.4,292M374.15,391.8C380.483,388.567 386.333,385.1 391.7,381.4C399.2,376.133 405.583,371.217 410.85,366.65C408.217,372.117 399.3,383.267 384.1,400.1L358.7,450.95L334,421.75L319.25,422.9L319.55,423.5L310.75,411.65L322.3,409.3L328.6,407.85C329.267,407.65 333.117,409.35 340.15,412.95C340.15,412.85 340.2,412.8 340.3,412.8C340.3,410.767 340.433,409.117 340.7,407.85C341.2,405.517 342.133,404.15 343.5,403.75L352.85,414.55L358.4,420.85L358.55,421C358.55,420.7 358.6,420.6 358.7,420.7L374.15,391.8M334,418.5L334.45,418.8C334.917,418.033 335.633,417.167 336.6,416.2L334,418.5" style="fill:#5d5345;"/>
                    <path d="M409.4,292L412.45,290.55C418.483,291.517 420.583,294.1 418.75,298.3C417.383,299.267 416.45,299.983 415.95,300.45L415.8,300.75L415.5,301.05L413.35,302.65C409.35,305.683 404.617,308.95 399.15,312.45L392.45,316.7C383.483,288.633 373.55,261.55 362.65,235.45C346.483,271.383 333.967,306.55 325.1,340.95C316.233,341.617 308.133,343.167 300.8,345.6L301.25,345.3C301.25,345.133 301.3,344.95 301.4,344.75L301.4,344.3C294.4,341.367 294.983,338.833 303.15,336.7C302.783,335.533 302.15,334.417 301.25,333.35L311.95,330.7L312.1,331.15L312.1,331.3C314.033,326.233 318.017,314.15 324.05,295.05C330.083,275.983 342.7,241.467 361.9,191.5L409.4,292M384.1,400.1C392.2,397.967 393.95,401.517 389.35,410.75C379.617,430.35 369.583,449.733 359.25,468.9L358.55,470.1L357.95,469.35C347.617,457.85 337.533,445.967 327.7,433.7L323.35,428.15L322.3,427C321.433,425.833 325.333,424.083 334,421.75L358.7,450.95L384.1,400.1" style="fill:#3f382d;"/>
                    <path d="M325.1,340.95C333.967,306.55 346.483,271.383 362.65,235.45C373.55,261.55 383.483,288.633 392.45,316.7C392.817,319.233 392.617,321.317 391.85,322.95C390.983,324.617 389.433,325.783 387.2,326.45L361.75,257.5L331.5,344.45C329.767,341.517 327.633,340.35 325.1,340.95" style="fill:#524436;"/>
                    <path d="M387.2,326.45C389.333,332.217 391.867,340.067 394.8,350L385.85,368.4L375.5,389.15L374.15,391.8L358.7,420.7C358.6,420.6 358.55,420.7 358.55,421L358.4,420.85L352.85,414.55L343.5,403.75L341.75,401.85L331.5,389L331.35,388.85L322.45,377.15L331.5,344.45L361.75,257.5L387.2,326.45" style="fill:#7b6953;"/>
                    <path d="M325.1,340.95C333.967,306.55 346.483,271.383 362.65,235.45C373.55,261.55 383.483,288.633 392.45,316.7M389.35,410.75C379.617,430.35 369.583,449.733 359.25,468.9L358.55,470.1L357.95,469.35C347.617,457.85 337.533,445.967 327.7,433.7M409.25,280C401.35,254.3 392.283,229.183 382.05,204.65C374.75,187.383 366.917,170.433 358.55,153.8C352.317,170.833 346.417,187.783 340.85,204.65C328.183,242.717 317.233,280.3 308,317.4M374.15,391.8L358.7,420.7C358.6,420.6 358.55,420.7 358.55,421L358.4,420.85L352.85,414.55L343.5,403.75" style="fill:none;fill-rule:nonzero;stroke:#0a0003;stroke-opacity:0.3;stroke-width:0.05px;"/>
                    <path d="M357.1,292.9L359.45,279.5L362.6,270.95L363.3,275.75L357.1,292.9M369.9,318.4L370.6,322.95L352.05,354.65L363,359.6L361.35,360.3L359.25,361.05L351,363.4L344.45,364.35L345.85,356.8L369.9,318.4M343.1,370.8L350.4,368.65L352.75,367.8L348.6,374.8L356,375.85C355.033,376.45 352.967,376.967 349.8,377.4L339.65,377.8L338.15,377.65L343.1,370.8" style="fill:#b3c5c8;"/>
                    <path d="M359.45,279.5L361.85,266.1L362.6,270.95L359.45,279.5M363.3,275.75L368.15,306.7C365.917,308.133 363.65,309.3 361.35,310.2L359.25,310.95C357.417,311.483 355.583,311.817 353.75,311.95L357.1,292.9L363.3,275.75M345.85,356.8L352.35,319.75C354.583,319.55 356.883,319.05 359.25,318.25L361.35,317.5C363.85,316.533 366.45,315.25 369.15,313.65L369.9,318.4L345.85,356.8M370.6,322.95L375.25,353.2C371.117,355.8 367.033,357.933 363,359.6L352.05,354.65L370.6,322.95M352.75,367.8L361.05,364.9L361.35,364.75L369.35,361.75L371.7,360.9C376.7,358.867 381.7,356.633 386.7,354.2C389,355.467 387.583,358.15 382.45,362.25C379.35,364.717 375.967,367.05 372.3,369.25C369.133,371.083 367.05,372.067 366.05,372.2L361.05,407.95L356,375.85L348.6,374.8L352.75,367.8M338.15,377.65C336.583,377.45 335.5,377.05 334.9,376.45C334.1,375.75 334.1,374.783 334.9,373.55L335.4,372.8L343.1,370.8L338.15,377.65" style="fill:#6b7c7f;"/>
                    <path d="M357.1,292.9L359.45,279.5L361.85,266.1L362.6,270.95L363.3,275.75L368.15,306.7C365.917,308.133 363.65,309.3 361.35,310.2L359.25,310.95C357.417,311.483 355.583,311.817 353.75,311.95L357.1,292.9M345.85,356.8L352.35,319.75C354.583,319.55 356.883,319.05 359.25,318.25L361.35,317.5C363.85,316.533 366.45,315.25 369.15,313.65L369.9,318.4L370.6,322.95L375.25,353.2C371.117,355.8 367.033,357.933 363,359.6L361.35,360.3L359.25,361.05L351,363.4L344.45,364.35L345.85,356.8M343.1,370.8L350.4,368.65L352.75,367.8L361.05,364.9L361.35,364.75L369.35,361.75L371.7,360.9C376.7,358.867 381.7,356.633 386.7,354.2C389,355.467 387.583,358.15 382.45,362.25C379.35,364.717 375.967,367.05 372.3,369.25C369.133,371.083 367.05,372.067 366.05,372.2L361.05,407.95L356,375.85C355.033,376.45 352.967,376.967 349.8,377.4L339.65,377.8L338.15,377.65C336.583,377.45 335.5,377.05 334.9,376.45C334.1,375.75 334.1,374.783 334.9,373.55L335.4,372.8L343.1,370.8" style="fill:none;fill-rule:nonzero;stroke:#0a0003;stroke-opacity:0.3;stroke-width:0.05px;"/>
                </g>
            </g>
        </g>
    </g>
</svg>
