<?xml version="1.0" encoding="UTF-8" standalone="no"?>
<!DOCTYPE svg PUBLIC "-//W3C//DTD SVG 1.1//EN" "http://www.w3.org/Graphics/SVG/1.1/DTD/svg11.dtd">
<svg width="100%" height="100%" viewBox="0 0 17 15" version="1.1" xmlns="http://www.w3.org/2000/svg" xmlns:xlink="http://www.w3.org/1999/xlink" xml:space="preserve" xmlns:serif="http://www.serif.com/" style="fill-rule:evenodd;clip-rule:evenodd;stroke-linecap:round;stroke-linejoin:round;">
    <g transform="matrix(1,0,0,1,-16.45,-16.2)">
        <g transform="matrix(1,0,0,1,24.45,23.35)">
            <g id="sprite0">
                <g id="sprite1">
                    <g id="shape0">
                        <path d="M-1.05,-6.5L-0.85,-6.55L-0.25,-6.65L2.25,-5.65L4.2,-4.3L4.3,-4.3L4.65,-3.85L5.7,-2.75L6.4,-2.65C7,-2.183 7.4,-1.533 7.6,-0.7L7.45,0.2C2.75,-0.667 -0.633,1.5 -2.7,6.7L-3.95,6.55C-4.383,6.25 -4.733,5.683 -5,4.85L-4.6,3.9L-5.2,2.9L-5.9,0.8L-5.85,0L-6.35,-0.05C-6.717,-0.217 -7.083,-0.417 -7.45,-0.65L-7.5,-1.3L-7.5,-1.9L-7.4,-3.05L-7.3,-3.25L-6.1,-4.1L-5.75,-4.3L-4.15,-4.9L-3.45,-5.4L-1.05,-6.5" style="fill:#333;"/>
                        <path d="M-1.05,-6.5L-0.85,-6.55L-0.25,-6.65L2.25,-5.65L4.2,-4.3L4.3,-4.3L4.65,-3.85L5.7,-2.75L6.4,-2.65C7,-2.183 7.4,-1.533 7.6,-0.7L7.45,0.2C2.75,-0.667 -0.633,1.5 -2.7,6.7L-3.95,6.55C-4.383,6.25 -4.733,5.683 -5,4.85L-4.6,3.9L-5.2,2.9L-5.9,0.8L-5.85,0L-6.35,-0.05C-6.717,-0.217 -7.083,-0.417 -7.45,-0.65L-7.5,-1.3L-7.5,-1.9L-7.4,-3.05L-7.3,-3.25L-6.1,-4.1L-5.75,-4.3L-4.15,-4.9L-3.45,-5.4L-1.05,-6.5Z" style="fill:none;fill-rule:nonzero;stroke:#000;stroke-width:1px;"/>
                    </g>
                </g>
                <g id="sprite2">
                    <g id="shape1">
                        <path d="M2.25,-5.65L1.6,-5.7L1.15,-5.65C0.417,-6.117 -0.317,-6.4 -1.05,-6.5L-0.85,-6.55L-0.25,-6.65L2.25,-5.65M-1.7,-4.9C-2.5,-4.533 -3.233,-4.017 -3.9,-3.35L-4.15,-3.15L-4.75,-3.65L-6.35,-3.5L-6.2,-3.75L-5.75,-4.3L-4.15,-4.9L-3.45,-5.4L-1.7,-4.9M-2.55,-1.7L-2.6,-1.75L-2.55,-1.8L0.15,-3.65L0.45,-3.35L2.7,-0.65L0.1,1.05L-0.15,1.25L-2.25,-1.4L-2.3,-1.4L-2.55,-1.7M2.85,-4.3L2.95,-4.3L3.45,-4.25L4.3,-4.3L4.65,-3.85L6.9,-1.4L5.1,-1.45L3.25,-3.8L3.2,-3.95L2.85,-4.3" style="fill:#af0032;"/>
                        <path d="M1.15,-5.65L1.6,-5.7L2.25,-5.65L4.2,-4.3L4.3,-4.3L3.45,-4.25L2.95,-4.3L2.85,-4.3C1.917,-4.233 1.033,-4.033 0.2,-3.7L0.15,-3.65L-2.55,-1.8L-2.6,-1.75L-2.55,-1.7L-4.35,0.65L-4.35,0.7L-5.25,2.35L-5.35,2.45L-5.9,0.8L-5.85,0L-5.75,-1L-5.55,-1.35L-4.15,-3.15L-3.9,-3.35C-3.233,-4.017 -2.5,-4.533 -1.7,-4.9C-0.833,-5.333 0.117,-5.583 1.15,-5.65M-5.75,-4.3L-6.2,-3.75L-6.35,-3.5L-7.4,-3.05L-7.3,-3.25L-6.1,-4.1L-5.75,-4.3M-7.5,-1.9L-7.3,-1.75L-7.5,-1.3L-7.5,-1.9" style="fill:#360b12;"/>
                        <path d="M-1.05,-6.5C-0.317,-6.4 0.417,-6.117 1.15,-5.65C0.117,-5.583 -0.833,-5.333 -1.7,-4.9L-3.45,-5.4L-1.05,-6.5M-4.15,-3.15L-5.55,-1.35L-5.7,-1.5L-5.7,-1.3L-7.3,-1.75L-6.35,-3.5L-4.75,-3.65L-4.15,-3.15M-4.35,0.7L-4.35,0.65L-2.55,-1.7L-2.3,-1.4L-2.25,-1.4L-0.15,1.25L-2.4,3.15L-4.15,0.95L-4.35,0.7M0.15,-3.65L0.2,-3.7C1.033,-4.033 1.917,-4.233 2.85,-4.3L3.2,-3.95L3.25,-3.8L5.1,-1.45L2.7,-0.65L0.45,-3.35L0.15,-3.65M-5.3,-2.6L-5.55,-1.9L-5.7,-1.5L-5.55,-1.9L-5.3,-2.6" style="fill:#51161c;"/>
                        <path d="M-7.4,-3.05L-6.35,-3.5L-7.3,-1.75L-7.5,-1.9L-7.4,-3.05" style="fill:url(#_Radial1);"/>
                        <path d="M-5.55,-1.35L-5.75,-1L-5.85,0L-6.35,-0.05C-6.717,-0.217 -7.083,-0.417 -7.45,-0.65L-7.5,-1.3L-7.3,-1.75L-5.7,-1.3L-5.75,-1L-5.7,-1.3L-5.7,-1.5L-5.55,-1.35M-5.35,2.45L-5.25,2.35L-4.35,0.7L-4.15,0.95L-2.4,3.15L-3.55,5.6L-5.2,2.9L-5.35,2.45" style="fill:#7b0023;"/>
                        <path d="M2.25,-5.65L-0.25,-6.65L-0.85,-6.55L-1.05,-6.5L-3.45,-5.4L-4.15,-4.9L-5.75,-4.3L-6.1,-4.1L-7.3,-3.25L-7.4,-3.05L-7.5,-1.9L-7.5,-1.3L-7.45,-0.65C-7.083,-0.417 -6.717,-0.217 -6.35,-0.05L-5.85,0L-5.9,0.8L-5.2,2.9L-3.55,5.6L-2.4,3.15L-0.15,1.25L0.1,1.05L2.7,-0.65L5.1,-1.45L6.9,-1.4L4.65,-3.85L4.3,-4.3L4.2,-4.3L2.25,-5.65M-5.75,-1L-5.85,0M-5.7,-1.5L-5.55,-1.9L-5.3,-2.6M-5.7,-1.3L-5.75,-1M-5.7,-1.5L-5.7,-1.3" style="fill:none;fill-rule:nonzero;stroke:#000;stroke-opacity:0.3;stroke-width:0.05px;"/>
                        <path d="M-2.9,0.95C-0.567,-2.217 2.533,-3.417 6.4,-2.65C7,-2.183 7.4,-1.533 7.6,-0.7C3.833,-1.267 0.8,-0.133 -1.5,2.7C-2.1,2.267 -2.567,1.683 -2.9,0.95" style="fill:#51161c;"/>
                        <path d="M7.6,-0.7L7.45,0.2C2.75,-0.667 -0.633,1.5 -2.7,6.7L-3.95,6.55C-4.383,6.25 -4.733,5.683 -5,4.85C-4.4,3.317 -3.7,2.017 -2.9,0.95C-2.567,1.683 -2.1,2.267 -1.5,2.7C0.8,-0.133 3.833,-1.267 7.6,-0.7" style="fill:#360b12;"/>
                        <path d="M-2.9,0.95C-0.567,-2.217 2.533,-3.417 6.4,-2.65C7,-2.183 7.4,-1.533 7.6,-0.7L7.45,0.2C2.75,-0.667 -0.633,1.5 -2.7,6.7L-3.95,6.55C-4.383,6.25 -4.733,5.683 -5,4.85C-4.4,3.317 -3.7,2.017 -2.9,0.95Z" style="fill:none;fill-rule:nonzero;stroke:#000;stroke-opacity:0.3;stroke-width:0.05px;"/>
                    </g>
                </g>
            </g>
        </g>
    </g>
    <defs>
        <radialGradient id="_Radial1" cx="0" cy="0" r="1" gradientUnits="userSpaceOnUse" gradientTransform="matrix(9.0112,-0.65536,0.65536,9.0112,-1.05,-6.3)"><stop offset="0" style="stop-color:#401018;stop-opacity:1"/><stop offset="0.29" style="stop-color:#401018;stop-opacity:1"/><stop offset="1" style="stop-color:#26090e;stop-opacity:1"/></radialGradient>
    </defs>
</svg>
