<?xml version="1.0" encoding="UTF-8" standalone="no"?>
<!DOCTYPE svg PUBLIC "-//W3C//DTD SVG 1.1//EN" "http://www.w3.org/Graphics/SVG/1.1/DTD/svg11.dtd">
<svg width="100%" height="100%" viewBox="0 0 15 15" version="1.1" xmlns="http://www.w3.org/2000/svg" xmlns:xlink="http://www.w3.org/1999/xlink" xml:space="preserve" xmlns:serif="http://www.serif.com/" style="fill-rule:evenodd;clip-rule:evenodd;stroke-linecap:round;stroke-linejoin:round;">
    <g transform="matrix(1,0,0,1,-17.6,-17.75)">
        <g transform="matrix(1,0,0,1,25,25)">
            <g id="sprite0">
                <g id="shape0">
                    <path d="M5.2,-3.95L6.05,-0.8L6.05,-0.9L6.8,-0.55L6.9,-0.15C6.9,0.283 6.5,0.717 5.7,1.15L5.3,1.4L4.9,1.55L4.45,1.75L3.4,3.6L3.4,4.75L3.35,5C3.183,5.633 2.883,6.1 2.45,6.4C2.017,6.733 1.583,6.817 1.15,6.65L0.8,6.5L0.55,6.65C-2.15,6.017 -4.2,4.6 -5.6,2.4C-6.467,2.133 -6.9,1.75 -6.9,1.25L-6.85,0.75L-6.2,0.05L-5.55,-3.2L-5.5,-3.35L-4.9,-3.85L-4.35,-5.45L-1.55,-6.6L1,-6.75L3.75,-6L4.35,-4.55C4.85,-4.383 5.133,-4.183 5.2,-3.95" style="fill:#280a02;fill-opacity:0;"/>
                    <path d="M5.2,-3.95C5.133,-4.183 4.85,-4.383 4.35,-4.55L3.75,-6L1,-6.75L-1.55,-6.6L-4.35,-5.45L-4.9,-3.85L-5.5,-3.35L-5.55,-3.2L-6.2,0.05L-6.85,0.75L-6.9,1.25C-6.9,1.75 -6.467,2.133 -5.6,2.4C-4.2,4.6 -2.15,6.017 0.55,6.65L0.8,6.5L1.15,6.65C1.583,6.817 2.017,6.733 2.45,6.4C2.883,6.1 3.183,5.633 3.35,5L3.4,4.75L3.4,3.6L4.45,1.75L4.9,1.55L5.3,1.4L5.7,1.15C6.5,0.717 6.9,0.283 6.9,-0.15L6.8,-0.55L6.05,-0.9L6.05,-0.8L5.2,-3.95Z" style="fill:none;fill-rule:nonzero;stroke:#280a02;stroke-width:1px;"/>
                </g>
                <g id="sprite1">
                    <g id="shape1">
                        <path d="M-5.85,1.95L4.85,0.85C3.517,3.783 2.083,5.717 0.55,6.65C-2.317,5.983 -4.45,4.417 -5.85,1.95" style="fill:#826220;"/>
                        <path d="M-5.85,1.95C-4.45,4.417 -2.317,5.983 0.55,6.65C2.083,5.717 3.517,3.783 4.85,0.85L-5.85,1.95Z" style="fill:none;fill-rule:nonzero;stroke:#000;stroke-opacity:0.3;stroke-width:0.05px;"/>
                        <path d="M-5.55,-3.2L-5.5,-3.35C-5.4,-3.65 -4.9,-3.933 -4,-4.2L-0.25,-4.85L3.55,-4.75C4.55,-4.55 5.1,-4.283 5.2,-3.95C5,-3.517 4.5,-3.183 3.7,-2.95L0.8,-2.35L-0.1,-2.3L-3.9,-2.4C-4.967,-2.6 -5.517,-2.867 -5.55,-3.2" style="fill:#de9f2e;"/>
                        <path d="M-5.55,-3.2C-5.517,-2.867 -4.967,-2.6 -3.9,-2.4L-0.1,-2.3L0.8,-2.35L1.6,1.45L0.15,1.6L-4.4,1.45C-5.633,1.25 -6.267,0.933 -6.3,0.5L-6.25,0.3L-5.55,-3.2" style="fill:#c28123;"/>
                        <path d="M0.8,-2.35L3.7,-2.95C4.5,-3.183 5,-3.517 5.2,-3.95L6.25,0C6.05,0.3 5.5,0.583 4.6,0.85L1.6,1.45L0.8,-2.35" style="fill:#856025;"/>
                        <path d="M5.2,-3.95C5.1,-4.283 4.55,-4.55 3.55,-4.75L-0.25,-4.85L-4,-4.2C-4.9,-3.933 -5.4,-3.65 -5.5,-3.35L-5.55,-3.2L-6.25,0.3L-6.3,0.5C-6.267,0.933 -5.633,1.25 -4.4,1.45L0.15,1.6L1.6,1.45L4.6,0.85C5.5,0.583 6.05,0.3 6.25,0L5.2,-3.95Z" style="fill:none;fill-rule:nonzero;stroke:#000;stroke-opacity:0.4;stroke-width:0.05px;"/>
                        <path d="M2.05,2.55L1.6,2.75L1.5,2.85C1.1,3.117 0.817,3.467 0.65,3.9L0.55,4.25L0.5,4.4L0.45,4.85C0.417,5.083 0.433,5.317 0.5,5.55L-0.1,5.35C-0.433,5.117 -0.667,4.683 -0.8,4.05L-0.8,3.9L-0.65,3.45L0.45,3.9C0.717,3.367 1.133,2.917 1.7,2.55L2.05,2.55" style="fill:#ef9e41;"/>
                        <path d="M-0.65,3.45L-0.05,2.8C0.217,2.633 0.5,2.55 0.8,2.55L1.7,2.55C1.133,2.917 0.717,3.367 0.45,3.9L-0.65,3.45" style="fill:#efaf66;"/>
                        <path d="M0.5,5.55L0.65,5.95L0.65,6L1,6.5L-0.05,5.85L-0.7,5.15L-0.85,4.3L-0.8,4L-0.8,4.05C-0.667,4.683 -0.433,5.117 -0.1,5.35L0.5,5.55" style="fill:#b1752f;"/>
                        <path d="M1,6.5L-0.05,5.85L-0.7,5.15L-0.85,4.3L-0.8,4L-0.8,3.9L-0.65,3.45L-0.05,2.8C0.217,2.633 0.5,2.55 0.8,2.55L2.05,2.55" style="fill:none;fill-rule:nonzero;stroke:#000;stroke-opacity:0.3;stroke-width:0.05px;"/>
                        <path d="M-6.85,0.75L-6.2,0.05L-6.2,0.4C-6.1,0.8 -5.683,1.067 -4.95,1.2L-3.75,1.35L-2.85,1.45L0.45,1.25L4.45,0.3C5.45,-0.133 5.983,-0.533 6.05,-0.9L6.8,-0.55L5.7,0.35L5.7,1.15L5.3,1.4L5.15,0.65L4.9,0.75C3.533,1.317 1.9,1.7 0,1.9L-2.4,2L-2.4,2.8L-3.15,2.8L-3.2,1.95L-3.9,1.9L-4.9,1.75C-5.967,1.517 -6.617,1.183 -6.85,0.75" style="fill:#e1a84b;"/>
                        <path d="M-6.85,0.75C-6.617,1.183 -5.967,1.517 -4.9,1.75L-3.9,1.9L-3.2,1.95L-3.15,2.8L-3.9,2.75L-4.9,2.55C-6.233,2.283 -6.9,1.85 -6.9,1.25L-6.85,0.75M-2.4,2.8L-2.4,2L0,1.9C1.9,1.7 3.533,1.317 4.9,0.75L5.15,0.65L5.3,1.4L4.9,1.55C3.533,2.117 1.9,2.5 0,2.7L-2.4,2.8M5.7,1.15L5.7,0.35L6.8,-0.55L6.9,-0.15C6.9,0.283 6.5,0.717 5.7,1.15" style="fill:#916c30;"/>
                        <path d="M6.8,-0.55L6.05,-0.9C5.983,-0.533 5.45,-0.133 4.45,0.3L0.45,1.25L-2.85,1.45L-3.75,1.35L-4.95,1.2C-5.683,1.067 -6.1,0.8 -6.2,0.4L-6.2,0.05L-6.85,0.75L-6.9,1.25C-6.9,1.85 -6.233,2.283 -4.9,2.55L-3.9,2.75L-3.15,2.8L-2.4,2.8L0,2.7C1.9,2.5 3.533,2.117 4.9,1.55L5.3,1.4L5.7,1.15C6.5,0.717 6.9,0.283 6.9,-0.15L6.8,-0.55Z" style="fill:none;fill-rule:nonzero;stroke:#000;stroke-opacity:0.4;stroke-width:0.05px;"/>
                        <path d="M0.1,4L0.15,3.9L0.25,3.55C0.417,3.083 0.667,2.733 1,2.5L1.1,2.4L1.5,2.25C1.767,2.15 2.033,2.15 2.3,2.25L2.4,2.3C2.7,2.4 2.933,2.6 3.1,2.9L3.3,3.3C3.467,3.733 3.5,4.183 3.4,4.65L3.3,3.6L3.25,3.5C3.05,2.967 2.733,2.617 2.3,2.45L1.55,2.4L1.45,2.45C1.317,2.483 1.167,2.567 1,2.7C0.633,2.967 0.367,3.317 0.2,3.75L0.15,3.9L0.1,4.1L0.1,4" style="fill:#efaf66;"/>
                        <path d="M3.4,4.65L3.4,4.75C3.233,5.383 2.933,5.85 2.5,6.15C2.067,6.483 1.633,6.567 1.2,6.4C0.9,6.3 0.667,6.133 0.5,5.9L0.25,5.35L0.2,5.3L0.1,4.9L0.1,4.1L0.15,3.9L0.2,3.75C0.367,3.317 0.633,2.967 1,2.7C1.167,2.567 1.317,2.483 1.45,2.45L1.55,2.4L2.3,2.45C2.733,2.617 3.05,2.967 3.25,3.5L3.3,3.6L3.4,4.65M2.85,5.15L2.95,4.9C3.083,4.433 3.067,4 2.9,3.6C2.767,3.167 2.533,2.9 2.2,2.8L1.3,2.9L1.2,2.95L0.9,3.25L0.5,4C0.4,4.467 0.417,4.917 0.55,5.35L0.6,5.45L1.3,6.15L2.3,5.95L2.85,5.15" style="fill:#ec9f4a;"/>
                        <path d="M2.1,3.1L1.65,3.15L1.45,3.4L1.35,3.65L1.35,4.2L1.4,4.3L1.7,4.6L2.15,4.5L2.45,4L2.45,3.45L2.1,3.1M0.9,3.25L1.2,2.95L1.3,2.9L2.2,2.8C2.533,2.9 2.767,3.167 2.9,3.6C3.067,4 3.083,4.433 2.95,4.9L2.85,5.15L2.55,5.45L1.55,5.65C1.25,5.55 1.017,5.317 0.85,4.95L0.85,4.85C0.683,4.45 0.667,4.017 0.8,3.55L0.9,3.25" style="fill:#67ccef;"/>
                        <path d="M2.1,3.1L2.45,3.45L2.45,4L2.15,4.5L1.7,4.6L1.4,4.3L1.35,4.2L1.35,3.65L1.45,3.4L1.65,3.15L2.1,3.1" style="fill:#fff4f1;"/>
                        <path d="M2.85,5.15L2.3,5.95L1.3,6.15L0.6,5.45L0.55,5.35C0.417,4.917 0.4,4.467 0.5,4L0.9,3.25L0.8,3.55C0.667,4.017 0.683,4.45 0.85,4.85L0.85,4.95C1.017,5.317 1.25,5.55 1.55,5.65L2.55,5.45L2.85,5.15" style="fill:#4b95af;"/>
                        <path d="M3.4,4.75L3.35,5C3.183,5.633 2.883,6.1 2.45,6.4C2.017,6.733 1.583,6.817 1.15,6.65L0.45,6.15L0.2,5.65L0.2,5.6L0.15,5.6L0.05,5.2L0,4.45L0.1,4L0.1,4.9L0.2,5.3L0.25,5.35L0.5,5.9C0.667,6.133 0.9,6.3 1.2,6.4C1.633,6.567 2.067,6.483 2.5,6.15C2.933,5.85 3.233,5.383 3.4,4.75" style="fill:#b1752f;"/>
                        <path d="M0.1,4L0.15,3.9L0.25,3.55C0.417,3.083 0.667,2.733 1,2.5L1.1,2.4L1.5,2.25C1.767,2.15 2.033,2.15 2.3,2.25L2.4,2.3C2.7,2.4 2.933,2.6 3.1,2.9L3.3,3.3C3.467,3.733 3.5,4.183 3.4,4.65M3.4,4.75L3.35,5C3.183,5.633 2.883,6.1 2.45,6.4C2.017,6.733 1.583,6.817 1.15,6.65L0.45,6.15L0.2,5.65L0.2,5.6L0.15,5.6L0.05,5.2L0,4.45L0.1,4M0.9,3.25L1.2,2.95L1.3,2.9L2.2,2.8C2.533,2.9 2.767,3.167 2.9,3.6C3.067,4 3.083,4.433 2.95,4.9L2.85,5.15L2.3,5.95L1.3,6.15L0.6,5.45L0.55,5.35C0.417,4.917 0.4,4.467 0.5,4L0.9,3.25" style="fill:none;fill-rule:nonzero;stroke:#000;stroke-opacity:0.3;stroke-width:0.05px;"/>
                        <path d="M-4,2.8L-4.95,2.75C-5.117,2.15 -5.117,1.55 -4.95,0.95C-4.683,0.717 -4.35,0.767 -3.95,1.1C-4.183,1.667 -4.2,2.233 -4,2.8" style="fill:#e1a84b;"/>
                        <path d="M-4,2.8L-4.95,2.75C-5.117,2.15 -5.117,1.55 -4.95,0.95C-4.683,0.717 -4.35,0.767 -3.95,1.1C-4.183,1.667 -4.2,2.233 -4,2.8Z" style="fill:none;fill-rule:nonzero;stroke:#000;stroke-opacity:0.4;stroke-width:0.05px;"/>
                        <path d="M-2,-4.7L-0.9,-4.75L1.45,-4.9L2,-2.7L-2.6,-2.4L-2,-4.7" style="fill:#154d18;"/>
                        <path d="M-0.9,-4.75L-2,-4.7L-3.15,-5.05C-1.983,-5.583 -1.45,-6.1 -1.55,-6.6L1,-6.75C0,-6.25 -0.617,-5.8 -0.85,-5.4L1.45,-4.9L-0.9,-4.75" style="fill:#9ae09d;"/>
                        <path d="M-3.15,-5.05L-4.35,-5.45L-1.55,-6.6C-1.45,-6.1 -1.983,-5.583 -3.15,-5.05M3.75,-6L1.45,-4.9L-0.85,-5.4C-0.617,-5.8 0,-6.25 1,-6.75L3.75,-6" style="fill:#5bca5c;"/>
                        <path d="M-2,-4.7L-2.6,-2.4L-5.05,-3.5L-4.35,-5.45L-3.15,-5.05L-2,-4.7" style="fill:#1b611e;"/>
                        <path d="M2,-2.7L1.45,-4.9L3.75,-6L4.5,-4.1L2,-2.7M-5.35,-3.15L-5.3,-3.2L-5.3,-3.15L-5.35,-3.15" style="fill:#37a835;"/>
                        <path d="M-2.6,-2.4L2,-2.7L4.5,-4.1L3.75,-6L1,-6.75L-1.55,-6.6L-4.35,-5.45L-5.05,-3.5L-2.6,-2.4" style="fill:none;fill-rule:nonzero;stroke:#000;stroke-opacity:0.4;stroke-width:0.05px;"/>
                        <path d="M1.45,-4.9L-0.9,-4.75" style="fill:none;fill-rule:nonzero;stroke:#000;stroke-opacity:0.3;stroke-width:0.05px;"/>
                    </g>
                </g>
            </g>
        </g>
    </g>
</svg>
