<?xml version="1.0" encoding="UTF-8" standalone="no"?>
<!DOCTYPE svg PUBLIC "-//W3C//DTD SVG 1.1//EN" "http://www.w3.org/Graphics/SVG/1.1/DTD/svg11.dtd">
<svg width="100%" height="100%" viewBox="0 0 21 19" version="1.1" xmlns="http://www.w3.org/2000/svg" xmlns:xlink="http://www.w3.org/1999/xlink" xml:space="preserve" xmlns:serif="http://www.serif.com/" style="fill-rule:evenodd;clip-rule:evenodd;stroke-linecap:round;stroke-linejoin:round;">
    <g transform="matrix(1,0,0,1,-15.02,-15.6)">
        <g transform="matrix(1,0,0,1,25,25)">
            <g id="sprite0">
                <g id="shape0">
                    <path d="M3.75,-8.9L4.65,-8.75L5,-8.85L5.35,-8.9L5.9,-8.4L6.4,-8.05L7.25,-8.1L8.05,-6.7L8.5,-6.7L9.05,-5.25L9.35,-5.25L9.5,-4.6L9.55,-4.1L9.45,-3.75L9.1,-2.95L8.7,-2L7.65,-0.6C7.25,-0.267 6.633,-0.067 5.8,0C4.667,0.1 3.567,-0.183 2.5,-0.85L2.55,-0.8L2.55,-0.6L-0.05,-0.9L-1,-0.65L-1,0.2C-1.533,1.133 -1.95,2.233 -2.25,3.5L-2.3,3.85L-2.3,6C-2.633,6.933 -3.1,7.7 -3.7,8.3C-4.133,8.8 -4.867,9.017 -5.9,8.95L-8.1,6.9L-9.4,4.55C-9.533,4.25 -9.5,4.033 -9.3,3.9L-9.1,3.85C-8.667,3.883 -8.383,3.8 -8.25,3.6L-8.2,2.5L-8.35,2.1L-7.95,1.85L-7.8,1.45L-7.65,0.35L-7.15,-0.9L-7.15,-1.1L-7.05,-1.8L-7.05,-1.95L-7.4,-2.25L-8.2,-4.75L-8.2,-5.2C-8.333,-5.367 -8.333,-5.6 -8.2,-5.9C-7,-7.2 -5.783,-7.9 -4.55,-8L-1.15,-8.7C-0.683,-8.533 -0.433,-8.367 -0.4,-8.2C0.633,-8.633 2.017,-8.867 3.75,-8.9" style="fill:#280a02;fill-opacity:0;"/>
                    <path d="M3.75,-8.9C2.017,-8.867 0.633,-8.633 -0.4,-8.2C-0.433,-8.367 -0.683,-8.533 -1.15,-8.7L-4.55,-8C-5.783,-7.9 -7,-7.2 -8.2,-5.9C-8.333,-5.6 -8.333,-5.367 -8.2,-5.2L-8.2,-4.75L-7.4,-2.25L-7.05,-1.95L-7.05,-1.8L-7.15,-1.1L-7.15,-0.9L-7.65,0.35L-7.8,1.45L-7.95,1.85L-8.35,2.1L-8.2,2.5L-8.25,3.6C-8.383,3.8 -8.667,3.883 -9.1,3.85L-9.3,3.9C-9.5,4.033 -9.533,4.25 -9.4,4.55L-8.1,6.9L-5.9,8.95C-4.867,9.017 -4.133,8.8 -3.7,8.3C-3.1,7.7 -2.633,6.933 -2.3,6L-2.3,3.85L-2.25,3.5C-1.95,2.233 -1.533,1.133 -1,0.2L-1,-0.65L-0.05,-0.9L2.55,-0.6L2.55,-0.8L2.5,-0.85C3.567,-0.183 4.667,0.1 5.8,0C6.633,-0.067 7.25,-0.267 7.65,-0.6L8.7,-2L9.1,-2.95L9.45,-3.75L9.55,-4.1L9.5,-4.6L9.35,-5.25L9.05,-5.25L8.5,-6.7L8.05,-6.7L7.25,-8.1L6.4,-8.05L5.9,-8.4L5.35,-8.9L5,-8.85L4.65,-8.75L3.75,-8.9Z" style="fill:none;fill-rule:nonzero;stroke:#280a02;stroke-width:1px;"/>
                </g>
                <g id="sprite1">
                    <g id="shape1">
                        <path d="M1.25,-8.05L1.25,-7.6L-0.9,-8L-0.4,-8.2C0.633,-8.633 2.017,-8.867 3.75,-8.9L4.65,-8.75L1.25,-8.05M3.3,-7.5L6.4,-8.05L7.25,-8.1L8.05,-6.7L4.95,-6.25L4.95,-5.85L4.15,-6.7L3.7,-7.15L3.3,-7.5M6.4,-4.9L9.05,-5.25L9.35,-5.25L9.4,-4.35C9.3,-3.883 8.85,-3.65 8.05,-3.65L7.5,-3.85L7.15,-4.1L6.4,-4.9" style="fill:#745549;"/>
                        <path d="M1.25,-7.6L1.25,-8.05L1.8,-7.75L2.3,-7.5C2.533,-7.367 2.867,-7.217 3.3,-7.05L3.3,-7.5L3.7,-7.15L4.15,-6.7L4.95,-5.85L4.95,-6.25L6.4,-4.65L6.4,-4.9L7.15,-4.1L7.5,-3.85L8.05,-3.65C8.85,-3.65 9.3,-3.883 9.4,-4.35L9.35,-5.25L9.5,-4.6L9.55,-4.1C9.45,-3.8 9.233,-3.55 8.9,-3.35L8.3,-3.15L6.15,-4.6L3.5,-6.5L1.85,-7.15L0.45,-7.4C-0.483,-7.367 -1.65,-7.067 -3.05,-6.5C-3.883,-7.033 -4.583,-7.217 -5.15,-7.05C-6.517,-6.583 -7.533,-5.967 -8.2,-5.2C-8.333,-5.367 -8.333,-5.6 -8.2,-5.9C-7,-7.2 -5.783,-7.9 -4.55,-8L-2.95,-6.8L-0.9,-8L1.25,-7.6" style="fill:#2e231d;"/>
                        <path d="M1.25,-8.05L4.65,-8.75L5,-8.85L5.35,-8.9L5.9,-8.4L6.4,-8.05L3.3,-7.5L3.3,-7.05C2.867,-7.217 2.533,-7.367 2.3,-7.5L1.8,-7.75L1.25,-8.05M-0.4,-8.2L-0.9,-8L-2.95,-6.8L-4.55,-8L-1.15,-8.7C-0.683,-8.533 -0.433,-8.367 -0.4,-8.2M6.4,-4.9L6.4,-4.65L4.95,-6.25L8.05,-6.7L8.5,-6.7L9.05,-5.25L6.4,-4.9" style="fill:#5d443b;"/>
                        <path d="M-2.7,3.95L-4.05,4.25L-5.95,4.2L-4.55,3.65L-3.65,3.3L-5.2,3.1C-6,2.867 -6.4,2.6 -6.4,2.3C-6.4,1.567 -6.1,0.8 -5.5,0L-4.3,-1.1L-4.25,-1.15L-4.55,-1.65L-7.4,-2.25C-6.7,-4.617 -5.317,-5.417 -3.25,-4.65L-0.9,-4.9L1.1,-1.95L1.35,-1.65L1.55,-1.45L0.85,-1.25L-0.5,-1.05L-1.25,-1.1L-1.2,-0.45L-1.95,1.65L-2.7,3.95" style="fill:#b59f87;"/>
                        <path d="M1.1,-1.95L-0.9,-4.9L-3.25,-4.65C-5.317,-5.417 -6.7,-4.617 -7.4,-2.25L-4.55,-1.65L-4.25,-1.15L-4.3,-1.1L-5.5,0C-6.1,0.8 -6.4,1.567 -6.4,2.3C-6.4,2.6 -6,2.867 -5.2,3.1L-3.65,3.3L-4.55,3.65L-5.95,4.2L-4.05,4.25L-2.7,3.95L-2.65,5L-2.65,6C-3.317,7.2 -3.983,7.983 -4.65,8.35L-6.15,8.5L-8,6.6L-8.85,5.4C-9.15,4.6 -9.233,4.083 -9.1,3.85C-8.667,3.883 -8.383,3.8 -8.25,3.6L-8.2,2.5L-8.35,2.1L-7.95,1.85C-7.583,0.85 -7.317,-0.133 -7.15,-1.1L-7.05,-1.8L-7.05,-1.95L-7.4,-2.25L-8.2,-4.75L-8.2,-5.2C-7.533,-5.967 -6.517,-6.583 -5.15,-7.05C-4.583,-7.217 -3.883,-7.033 -3.05,-6.5C-1.65,-7.067 -0.483,-7.367 0.45,-7.4L0.4,-6.2L0.4,-5.75L0.3,-4.15C0.433,-3.35 0.7,-2.617 1.1,-1.95M-6.15,3.8L-8.15,2.5L-8.2,2.5L-8.15,2.5L-6.15,3.8" style="fill:#5a5042;"/>
                        <path d="M1.55,-1.45L1.35,-1.65L1.1,-1.95C0.7,-2.617 0.433,-3.35 0.3,-4.15L0.4,-5.75L0.4,-6.2L2.6,-6.1C2.833,-6.167 3.7,-5.7 5.2,-4.7L7.65,-3.15L8.3,-3.15L8.9,-3.35C9.233,-3.55 9.45,-3.8 9.55,-4.1L9.45,-3.75L9.1,-2.95L8.7,-2C7.2,-0.933 6.133,-0.45 5.5,-0.55L2.5,-0.85C2.167,-1.017 1.85,-1.217 1.55,-1.45" style="fill:#836548;"/>
                        <path d="M0.4,-6.2L0.45,-7.4L1.85,-7.15L3.5,-6.5L6.15,-4.6L8.3,-3.15L7.65,-3.15L5.2,-4.7C3.7,-5.7 2.833,-6.167 2.6,-6.1L0.4,-6.2M8.7,-2L7.65,-0.6C7.25,-0.267 6.633,-0.067 5.8,0C4.667,0.1 3.567,-0.183 2.5,-0.85L5.5,-0.55C6.133,-0.45 7.2,-0.933 8.7,-2" style="fill:#413325;"/>
                        <path d="M-0.4,-8.2C-0.433,-8.367 -0.683,-8.533 -1.15,-8.7L-4.55,-8C-5.783,-7.9 -7,-7.2 -8.2,-5.9C-8.333,-5.6 -8.333,-5.367 -8.2,-5.2L-8.2,-4.75L-7.4,-2.25L-7.05,-1.95L-7.05,-1.8L-7.15,-1.1C-7.317,-0.133 -7.583,0.85 -7.95,1.85L-8.35,2.1L-8.2,2.5L-8.15,2.5L-6.15,3.8M-2.7,3.95L-1.95,1.65L-1.2,-0.45L-1.25,-1.1L-0.5,-1.05L0.85,-1.25L1.55,-1.45L1.35,-1.65L1.1,-1.95C0.7,-2.617 0.433,-3.35 0.3,-4.15L0.4,-5.75L0.4,-6.2L0.45,-7.4C-0.483,-7.367 -1.65,-7.067 -3.05,-6.5C-3.883,-7.033 -4.583,-7.217 -5.15,-7.05C-6.517,-6.583 -7.533,-5.967 -8.2,-5.2M8.3,-3.15L6.15,-4.6L3.5,-6.5L1.85,-7.15L0.45,-7.4M8.05,-6.7L7.25,-8.1L6.4,-8.05M9.05,-5.25L8.5,-6.7L8.05,-6.7M9.35,-5.25L9.05,-5.25M9.55,-4.1L9.5,-4.6L9.35,-5.25M9.55,-4.1C9.45,-3.8 9.233,-3.55 8.9,-3.35L8.3,-3.15M8.7,-2L9.1,-2.95L9.45,-3.75L9.55,-4.1M-8.2,2.5L-8.25,3.6C-8.383,3.8 -8.667,3.883 -9.1,3.85C-9.233,4.083 -9.15,4.6 -8.85,5.4L-8,6.6L-6.15,8.5L-4.65,8.35C-3.983,7.983 -3.317,7.2 -2.65,6L-2.65,5L-2.7,3.95M2.5,-0.85C3.567,-0.183 4.667,0.1 5.8,0C6.633,-0.067 7.25,-0.267 7.65,-0.6L8.7,-2M2.5,-0.85C2.167,-1.017 1.85,-1.217 1.55,-1.45" style="fill:none;fill-rule:nonzero;stroke:#000;stroke-opacity:0.3;stroke-width:0.05px;"/>
                        <path d="M4.65,-8.75L3.75,-8.9C2.017,-8.867 0.633,-8.633 -0.4,-8.2L-0.9,-8L1.25,-7.6M3.3,-7.05L3.3,-7.5M6.4,-8.05L5.9,-8.4L5.35,-8.9L5,-8.85L4.65,-8.75" style="fill:none;fill-rule:nonzero;stroke:#000;stroke-opacity:0.3;stroke-width:0.05px;"/>
                        <path d="M-0.8,-4.1L-0.8,-5.25L1.6,-4.85L1.6,-3.55C0.867,-3.483 0.067,-3.667 -0.8,-4.1" style="fill:#59453b;"/>
                        <path d="M-0.8,-4.1L-0.8,-5.25L1.6,-4.85L1.6,-3.55C0.867,-3.483 0.067,-3.667 -0.8,-4.1Z" style="fill:none;fill-rule:nonzero;stroke:#000;stroke-opacity:0.3;stroke-width:0.05px;"/>
                        <path d="M1.15,-1.85L1.55,-1.45L1.85,-1.25L-0.05,-1.4L-1.3,-1L-1.3,-0.15C-1.867,0.883 -2.3,2.1 -2.6,3.5L-2.6,5.65C-2.933,6.55 -3.383,7.317 -3.95,7.95C-4.383,8.25 -5.017,8.367 -5.85,8.3C-7.317,7.333 -8.467,5.867 -9.3,3.9L-9.1,3.85C-8,5.517 -6.817,6.867 -5.55,7.9C-4.65,7.867 -3.917,7.25 -3.35,6.05L-3.5,3.9C-3.1,2.4 -2.517,0.9 -1.75,-0.6L-1.4,-1.65L-0.05,-1.9L0.45,-1.95L1.15,-1.85" style="fill:#836548;"/>
                        <path d="M1.85,-1.25L2.5,-0.85L2.55,-0.8L2.55,-0.6L-0.05,-0.9L-1,-0.65L-1,0.2C-1.533,1.133 -1.95,2.233 -2.25,3.5L-2.3,3.85L-2.3,6C-2.633,6.933 -3.1,7.7 -3.7,8.3C-4.133,8.8 -4.867,9.017 -5.9,8.95L-8.1,6.9L-9.4,4.55C-9.533,4.25 -9.5,4.033 -9.3,3.9C-8.467,5.867 -7.317,7.333 -5.85,8.3C-5.017,8.367 -4.383,8.25 -3.95,7.95C-3.383,7.317 -2.933,6.55 -2.6,5.65L-2.6,3.5C-2.3,2.1 -1.867,0.883 -1.3,-0.15L-1.3,-1L-0.05,-1.4L1.85,-1.25" style="fill:#413325;"/>
                        <path d="M2.55,-0.8L2.55,-0.6L-0.05,-0.9L-1,-0.65L-1,0.2C-1.533,1.133 -1.95,2.233 -2.25,3.5L-2.3,3.85L-2.3,6C-2.633,6.933 -3.1,7.7 -3.7,8.3C-4.133,8.8 -4.867,9.017 -5.9,8.95L-8.1,6.9L-9.4,4.55C-9.533,4.25 -9.5,4.033 -9.3,3.9L-9.1,3.85C-8,5.517 -6.817,6.867 -5.55,7.9C-4.65,7.867 -3.917,7.25 -3.35,6.05L-3.5,3.9C-3.1,2.4 -2.517,0.9 -1.75,-0.6L-1.4,-1.65L-0.05,-1.9L0.45,-1.95L1.15,-1.85" style="fill:none;fill-rule:nonzero;stroke:#000;stroke-opacity:0.3;stroke-width:0.05px;"/>
                        <path d="M-6.15,3.5L-6.65,3.55C-7.15,3.483 -7.483,3.133 -7.65,2.5C-7.85,1.9 -7.85,1.183 -7.65,0.35C-7.45,-0.483 -7.117,-1.167 -6.65,-1.7C-6.15,-2.267 -5.667,-2.517 -5.2,-2.45L-4.9,-2.4C-4.567,-2.267 -4.333,-1.95 -4.2,-1.45C-4,-0.817 -4,-0.083 -4.2,0.75C-4.4,1.55 -4.75,2.233 -5.25,2.8L-6.15,3.5M-6.9,0.45L-6.9,1.65L-6.35,2.2C-6.083,2.233 -5.817,2.1 -5.55,1.8L-5,0.65C-4.867,0.183 -4.85,-0.217 -4.95,-0.55C-5.083,-0.883 -5.267,-1.067 -5.5,-1.1C-5.767,-1.133 -6.033,-1 -6.3,-0.7L-6.9,0.45" style="fill:#eebf46;"/>
                        <path d="M-4.9,-2.4L-4.4,-2.45C-3.933,-2.417 -3.6,-2.083 -3.4,-1.45C-3.2,-0.817 -3.2,-0.083 -3.4,0.75C-3.6,1.583 -3.95,2.267 -4.45,2.8C-4.917,3.333 -5.4,3.583 -5.9,3.55L-6.15,3.5L-5.25,2.8C-4.75,2.233 -4.4,1.55 -4.2,0.75C-4,-0.083 -4,-0.817 -4.2,-1.45C-4.333,-1.95 -4.567,-2.267 -4.9,-2.4M-6.9,0.45L-6.3,-0.7C-6.033,-1 -5.767,-1.133 -5.5,-1.1C-5.267,-1.067 -5.083,-0.883 -4.95,-0.55C-4.85,-0.217 -4.867,0.183 -5,0.65L-5.55,1.8C-5.817,2.1 -6.083,2.233 -6.35,2.2L-6.9,1.65L-6.9,0.45" style="fill:#765f22;"/>
                        <path d="M-6.15,3.5L-6.65,3.55C-7.15,3.483 -7.483,3.133 -7.65,2.5C-7.85,1.9 -7.85,1.183 -7.65,0.35C-7.45,-0.483 -7.117,-1.167 -6.65,-1.7C-6.15,-2.267 -5.667,-2.517 -5.2,-2.45L-4.9,-2.4L-4.4,-2.45C-3.933,-2.417 -3.6,-2.083 -3.4,-1.45C-3.2,-0.817 -3.2,-0.083 -3.4,0.75C-3.6,1.583 -3.95,2.267 -4.45,2.8C-4.917,3.333 -5.4,3.583 -5.9,3.55L-6.15,3.5M-6.9,0.45L-6.3,-0.7C-6.033,-1 -5.767,-1.133 -5.5,-1.1C-5.267,-1.067 -5.083,-0.883 -4.95,-0.55C-4.85,-0.217 -4.867,0.183 -5,0.65L-5.55,1.8C-5.817,2.1 -6.083,2.233 -6.35,2.2L-6.9,1.65L-6.9,0.45" style="fill:none;fill-rule:nonzero;stroke:#000;stroke-opacity:0.3;stroke-width:0.05px;"/>
                    </g>
                </g>
            </g>
        </g>
    </g>
</svg>
