<?xml version="1.0" encoding="UTF-8" standalone="no"?>
<!DOCTYPE svg PUBLIC "-//W3C//DTD SVG 1.1//EN" "http://www.w3.org/Graphics/SVG/1.1/DTD/svg11.dtd">
<svg width="100%" height="100%" viewBox="0 0 16 27" version="1.1" xmlns="http://www.w3.org/2000/svg" xmlns:xlink="http://www.w3.org/1999/xlink" xml:space="preserve" xmlns:serif="http://www.serif.com/" style="fill-rule:evenodd;clip-rule:evenodd;stroke-linecap:round;stroke-linejoin:round;">
    <g transform="matrix(1,0,0,1,-17.4,-11.5)">
        <g>
            <g id="shape0" transform="matrix(1,0,0,1,25,25)">
                <path d="M0.8,-12.8L1.1,-12.55C1.367,-12.283 1.5,-11.95 1.5,-11.55C1.5,-11.15 1.367,-10.817 1.1,-10.55L0.5,-10.15L0.5,-4.95L1.35,-4.8L4.55,-9.2L4.3,-9.8L4.3,-10.2L4.55,-10.9C4.783,-11.2 5.1,-11.383 5.5,-11.45L6.55,-11.2L7.05,-10.65L7.15,-10.25L6.9,-9.2L5.95,-8.6L5.2,-8.65L2,-4.2L2.2,-3.65L2.35,-3.75C3.783,-4.45 4.783,-4.583 5.35,-4.15L5.7,-3.6L6.1,-2.9L6.4,-2.45C6.533,-1.983 6.35,-1.317 5.85,-0.45C5.15,0.817 4.05,2.133 2.55,3.5L-0.7,5.95L-0.65,6.2C0.25,9.133 -0.583,11.4 -3.15,13L-2.45,11.05L-4.05,12.1L-3.6,11.45L-2.7,9.45C-3.433,10.417 -4.233,10.983 -5.1,11.15L-5.95,11.15C-5.417,10.783 -5.117,10.4 -5.05,10C-5.383,10.233 -5.85,10.233 -6.45,10C-5.25,9.133 -4.433,8.217 -4,7.25L-4.95,7L-5.1,6.85L-5.25,6.6L-5.8,5.7L-5.85,5.65L-6,5.4C-6.167,4.933 -6,4.233 -5.5,3.3L-5.45,3.3L-6.55,1.85C-6.55,1.25 -6.4,0.717 -6.1,0.25L-6.9,-0.9L-7.1,-1.15L-6.65,-2.15L-5.25,-3.85L-4.75,-4.25L-2.35,-6.1C-1.617,-6.567 -1.133,-6.717 -0.9,-6.55L-0.8,-6.4L-0.45,-5.65L-0.45,-10.2L-0.95,-10.55L-1.2,-10.85L-1.4,-11.55C-1.4,-11.95 -1.25,-12.283 -0.95,-12.55C-0.683,-12.85 -0.35,-13 0.05,-13L0.8,-12.8" style="fill:#280a02;"/>
                <path d="M0.8,-12.8L1.1,-12.55C1.367,-12.283 1.5,-11.95 1.5,-11.55C1.5,-11.15 1.367,-10.817 1.1,-10.55L0.5,-10.15L0.5,-4.95L1.35,-4.8L4.55,-9.2L4.3,-9.8L4.3,-10.2L4.55,-10.9C4.783,-11.2 5.1,-11.383 5.5,-11.45L6.55,-11.2L7.05,-10.65L7.15,-10.25L6.9,-9.2L5.95,-8.6L5.2,-8.65L2,-4.2L2.2,-3.65L2.35,-3.75C3.783,-4.45 4.783,-4.583 5.35,-4.15L5.7,-3.6L6.1,-2.9L6.4,-2.45C6.533,-1.983 6.35,-1.317 5.85,-0.45C5.15,0.817 4.05,2.133 2.55,3.5L-0.7,5.95L-0.65,6.2C0.25,9.133 -0.583,11.4 -3.15,13L-2.45,11.05L-4.05,12.1L-3.6,11.45L-2.7,9.45C-3.433,10.417 -4.233,10.983 -5.1,11.15L-5.95,11.15C-5.417,10.783 -5.117,10.4 -5.05,10C-5.383,10.233 -5.85,10.233 -6.45,10C-5.25,9.133 -4.433,8.217 -4,7.25L-4.95,7L-5.1,6.85L-5.25,6.6L-5.8,5.7L-5.85,5.65L-6,5.4C-6.167,4.933 -6,4.233 -5.5,3.3L-5.45,3.3L-6.55,1.85C-6.55,1.25 -6.4,0.717 -6.1,0.25L-6.9,-0.9L-7.1,-1.15L-6.65,-2.15L-5.25,-3.85L-4.75,-4.25L-2.35,-6.1C-1.617,-6.567 -1.133,-6.717 -0.9,-6.55L-0.8,-6.4L-0.45,-5.65L-0.45,-10.2L-0.95,-10.55L-1.2,-10.85L-1.4,-11.55C-1.4,-11.95 -1.25,-12.283 -0.95,-12.55C-0.683,-12.85 -0.35,-13 0.05,-13L0.8,-12.8Z" style="fill:none;fill-rule:nonzero;stroke:#280a02;stroke-width:1px;"/>
            </g>
            <g id="sprite0" transform="matrix(0.0321,0,0,0.032,19.6506,18.009)">
                <g id="shape1">
                    <path d="M299.75,-58.55L317.55,-83.1L340.35,-66.55L153.75,192.7L130.95,176.15L139.1,164.8L153.05,175L313.7,-48.3L299.75,-58.55" style="fill:#bd830c;"/>
                    <path d="M139.1,164.8L299.75,-58.55L313.7,-48.3L153.05,175L139.1,164.8" style="fill:#d9ae08;"/>
                    <path d="M299.75,-58.55L317.55,-83.1L340.35,-66.55L153.75,192.7L130.95,176.15L139.1,164.8L299.75,-58.55Z" style="fill:none;fill-rule:nonzero;stroke:#000;stroke-opacity:0.3;stroke-width:0.05px;"/>
                    <path d="M300,-100.65C300.933,-108.05 303.717,-114.95 308.35,-121.35C315.583,-131.45 325.367,-137.517 337.7,-139.55C350.033,-141.55 361.25,-138.917 371.35,-131.65C377.917,-126.917 382.75,-121.117 385.85,-114.25C385.017,-106.917 382.283,-100.033 377.65,-93.6C370.417,-83.5 360.617,-77.45 348.25,-75.45C335.917,-73.45 324.7,-76.083 314.6,-83.35C308.033,-88.083 303.167,-93.85 300,-100.65M345.8,-134.5C340.733,-135.033 336.317,-134.717 332.55,-133.55C328.95,-132.283 327.033,-130.55 326.8,-128.35C326.567,-126.15 328.1,-124.117 331.4,-122.25C334.9,-120.35 339.2,-119.15 344.3,-118.65C349.267,-118.15 353.583,-118.483 357.25,-119.65C361.017,-120.817 363.017,-122.5 363.25,-124.7C363.483,-126.9 361.867,-128.983 358.4,-130.95C355,-132.817 350.8,-134 345.8,-134.5" style="fill:#cf7626;"/>
                    <path d="M385.85,-114.25C387.55,-110.65 388.767,-106.65 389.5,-102.25C391.5,-89.917 388.883,-78.7 381.65,-68.6C374.383,-58.533 364.583,-52.5 352.25,-50.5C339.883,-48.467 328.667,-51.083 318.6,-58.35C308.5,-65.617 302.45,-75.433 300.45,-87.8C299.683,-92.267 299.533,-96.55 300,-100.65C303.167,-93.85 308.033,-88.083 314.6,-83.35C324.7,-76.083 335.917,-73.45 348.25,-75.45C360.617,-77.45 370.417,-83.5 377.65,-93.6C382.283,-100.033 385.017,-106.917 385.85,-114.25" style="fill:#713902;"/>
                    <path d="M345.8,-134.5C350.8,-134 355,-132.817 358.4,-130.95C361.867,-128.983 363.483,-126.9 363.25,-124.7C363.017,-122.5 361.017,-120.817 357.25,-119.65C353.583,-118.483 349.267,-118.15 344.3,-118.65C339.2,-119.15 334.9,-120.35 331.4,-122.25C328.1,-124.117 326.567,-126.15 326.8,-128.35C327.033,-130.55 328.95,-132.283 332.55,-133.55C336.317,-134.717 340.733,-135.033 345.8,-134.5" style="fill:#ffdec3;"/>
                    <path d="M300,-100.65C300.933,-108.05 303.717,-114.95 308.35,-121.35C315.583,-131.45 325.367,-137.517 337.7,-139.55C350.033,-141.55 361.25,-138.917 371.35,-131.65C377.917,-126.917 382.75,-121.117 385.85,-114.25C387.55,-110.65 388.767,-106.65 389.5,-102.25C391.5,-89.917 388.883,-78.7 381.65,-68.6C374.383,-58.533 364.583,-52.5 352.25,-50.5C339.883,-48.467 328.667,-51.083 318.6,-58.35C308.5,-65.617 302.45,-75.433 300.45,-87.8C299.683,-92.267 299.533,-96.55 300,-100.65Z" style="fill:none;fill-rule:nonzero;stroke:#000;stroke-opacity:0.3;stroke-width:0.05px;"/>
                    <path d="M153.45,-86.45L153.45,-116.8L181.65,-116.8L181.65,202.65L153.45,202.65L153.45,188.7L170.75,188.7L170.75,-86.45L153.45,-86.45" style="fill:#bd830c;"/>
                    <path d="M153.45,188.7L153.45,-86.45L170.75,-86.45L170.75,188.7L153.45,188.7" style="fill:#d9ae08;"/>
                    <path d="M153.45,202.65L153.45,-116.8L181.65,-116.8L181.65,202.65L153.45,202.65Z" style="fill:none;fill-rule:nonzero;stroke:#000;stroke-opacity:0.3;stroke-width:0.05px;"/>
                    <path d="M146.55,-174.95C142.15,-172.383 138.75,-169.533 136.35,-166.4C134.15,-163.267 133.6,-160.733 134.7,-158.8C135.8,-156.867 138.233,-156.133 142,-156.6C145.967,-157.067 150.15,-158.583 154.55,-161.15C158.883,-163.65 162.2,-166.467 164.5,-169.6C166.9,-172.7 167.55,-175.217 166.45,-177.15C165.35,-179.083 162.817,-179.833 158.85,-179.4C154.983,-178.933 150.883,-177.45 146.55,-174.95M129.15,-120.7C125.55,-127.233 123.75,-134.45 123.75,-142.35C123.75,-154.783 128.183,-165.417 137.05,-174.25C145.883,-183.117 156.517,-187.55 168.95,-187.55C177.05,-187.55 184.367,-185.65 190.9,-181.85C194.5,-175.417 196.3,-168.233 196.3,-160.3C196.3,-147.9 191.883,-137.267 183.05,-128.4C174.183,-119.567 163.533,-115.15 151.1,-115.15C143,-115.15 135.683,-117 129.15,-120.7" style="fill:#cf7626;"/>
                    <path d="M146.55,-174.95C150.883,-177.45 154.983,-178.933 158.85,-179.4C162.817,-179.833 165.35,-179.083 166.45,-177.15C167.55,-175.217 166.9,-172.7 164.5,-169.6C162.2,-166.467 158.883,-163.65 154.55,-161.15C150.15,-158.583 145.967,-157.067 142,-156.6C138.233,-156.133 135.8,-156.867 134.7,-158.8C133.6,-160.733 134.15,-163.267 136.35,-166.4C138.75,-169.533 142.15,-172.383 146.55,-174.95" style="fill:#ffdec3;"/>
                    <path d="M190.9,-181.85C194.4,-179.917 197.717,-177.383 200.85,-174.25C209.683,-165.417 214.1,-154.783 214.1,-142.35C214.1,-129.917 209.683,-119.283 200.85,-110.45C192.017,-101.617 181.383,-97.2 168.95,-97.2C156.517,-97.2 145.883,-101.617 137.05,-110.45C133.817,-113.683 131.183,-117.1 129.15,-120.7C135.683,-117 143,-115.15 151.1,-115.15C163.533,-115.15 174.183,-119.567 183.05,-128.4C191.883,-137.267 196.3,-147.9 196.3,-160.3C196.3,-168.233 194.5,-175.417 190.9,-181.85" style="fill:#713902;"/>
                    <path d="M129.15,-120.7C125.55,-127.233 123.75,-134.45 123.75,-142.35C123.75,-154.783 128.183,-165.417 137.05,-174.25C145.883,-183.117 156.517,-187.55 168.95,-187.55C177.05,-187.55 184.367,-185.65 190.9,-181.85C194.4,-179.917 197.717,-177.383 200.85,-174.25C209.683,-165.417 214.1,-154.783 214.1,-142.35C214.1,-129.917 209.683,-119.283 200.85,-110.45C192.017,-101.617 181.383,-97.2 168.95,-97.2C156.517,-97.2 145.883,-101.617 137.05,-110.45C133.817,-113.683 131.183,-117.1 129.15,-120.7Z" style="fill:none;fill-rule:nonzero;stroke:#000;stroke-opacity:0.3;stroke-width:0.05px;"/>
                    <path d="M343.9,106.4L357.3,127.8C361.633,131.5 364.583,136.2 366.15,141.9C369.817,156.433 364.15,177.517 349.15,205.15C327.517,244.483 292.95,285.783 245.45,329.05C198.017,371.85 151.417,403.983 105.65,425.45C60.083,446.55 28.783,450.783 11.75,438.15C10.083,436.85 8.6,435.467 7.3,434C5.267,431.6 3.7,428.933 2.6,426L-15.2,396.6C-14,398.067 -12.567,399.4 -10.9,400.6C-7.5,403.067 -3.6,404.9 0.8,406.1C19.033,410.9 46.433,404.833 83,387.9C128.767,366.433 175.367,334.3 222.8,291.5C270.3,248.2 304.867,206.9 326.5,167.6C336.533,149 342.383,133.383 344.05,120.75C344.683,115.417 344.633,110.633 343.9,106.4" style="fill:#411306;"/>
                    <path d="M-15.2,396.6C-17.233,394.2 -18.8,391.567 -19.9,388.7C-25.8,373.967 -20.55,351.633 -4.15,321.7C17.483,281.833 52.067,240.55 99.6,197.85C147.1,154.65 193.633,122.467 239.2,101.3C284.8,79.833 316.067,75.733 333,89C338.9,93.233 342.533,99.033 343.9,106.4C344.633,110.633 344.683,115.417 344.05,120.75C342.383,133.383 336.533,149 326.5,167.6C304.867,206.9 270.3,248.2 222.8,291.5C175.367,334.3 128.767,366.433 83,387.9C46.433,404.833 19.033,410.9 0.8,406.1C-3.6,404.9 -7.5,403.067 -10.9,400.6C-12.567,399.4 -14,398.067 -15.2,396.6" style="fill:#84250c;"/>
                    <path d="M343.9,106.4L357.3,127.8C361.633,131.5 364.583,136.2 366.15,141.9C369.817,156.433 364.15,177.517 349.15,205.15C327.517,244.483 292.95,285.783 245.45,329.05C198.017,371.85 151.417,403.983 105.65,425.45C60.083,446.55 28.783,450.783 11.75,438.15C10.083,436.85 8.6,435.467 7.3,434C5.267,431.6 3.7,428.933 2.6,426L-15.2,396.6C-17.233,394.2 -18.8,391.567 -19.9,388.7C-25.8,373.967 -20.55,351.633 -4.15,321.7C17.483,281.833 52.067,240.55 99.6,197.85C147.1,154.65 193.633,122.467 239.2,101.3C284.8,79.833 316.067,75.733 333,89C338.9,93.233 342.533,99.033 343.9,106.4Z" style="fill:none;fill-rule:nonzero;stroke:#000;stroke-opacity:0.3;stroke-width:0.05px;"/>
                    <path d="M142,18C168.967,80.067 203.083,115.05 244.35,122.95L244.35,177.55C177.583,242.283 102.983,290.25 20.55,321.45C7.317,275.95 -15.833,232.25 -48.9,190.35L-48.75,190.25C-41.217,193.383 -26.483,188.5 -4.55,175.6C18.65,161.967 43.283,143.133 69.35,119.1L83.85,104.9C102.983,85.9 118.033,68.167 129,51.7C139.5,35.867 143.833,24.633 142,18" style="fill:#84250c;"/>
                    <path d="M-53.85,182.65C-54.417,176.117 -50.05,165.933 -40.75,152.1C-29.983,135.8 -15.25,118.217 3.45,99.35C8.05,94.75 13.067,90.1 18.5,85.4C44.467,60.9 69.283,41.7 92.95,27.8C116.517,13.633 131.8,8.933 138.8,13.7C140.1,14.8 141.167,16.233 142,18C143.833,24.633 139.5,35.867 129,51.7C118.033,68.167 102.983,85.9 83.85,104.9L69.35,119.1C43.283,143.133 18.65,161.967 -4.55,175.6C-26.483,188.5 -41.217,193.383 -48.75,190.25L-48.9,190.35L-53.85,182.65" style="fill:#a8513a;"/>
                    <path d="M142,18C168.967,80.067 203.083,115.05 244.35,122.95L244.35,177.55C177.583,242.283 102.983,290.25 20.55,321.45C7.317,275.95 -15.833,232.25 -48.9,190.35C-49.533,190.083 -49.85,189.867 -49.85,189.7C-52.35,188.133 -53.683,185.783 -53.85,182.65C-54.417,176.117 -50.05,165.933 -40.75,152.1C-29.983,135.8 -15.25,118.217 3.45,99.35C8.05,94.75 13.067,90.1 18.5,85.4C44.467,60.9 69.283,41.7 92.95,27.8C116.517,13.633 131.8,8.933 138.8,13.7C140.1,14.8 141.167,16.233 142,18M-48.75,190.25L-48.9,190.35L-53.85,182.65" style="fill:none;fill-rule:nonzero;stroke:#000;stroke-opacity:0.3;stroke-width:0.05px;"/>
                    <path d="M101.5,231.25C146.9,194.05 175.5,147.083 187.3,90.35C178.833,83.75 171,75.15 163.8,64.55C205.867,59.283 229.9,73.55 235.9,107.35C237.733,117.317 237.967,128.967 236.6,142.3C235.567,181.333 215.583,213.517 176.65,238.85L191.45,187.45C169.983,223.017 143.733,249.167 112.7,265.9C107.633,255.333 101.233,245.95 93.5,237.75C101.233,245.95 107.633,255.333 112.7,265.9C108.733,287.267 98.05,295.333 80.65,290.1C72.55,277.933 65.133,262.55 58.4,243.95C69.367,276.55 68.95,295.1 57.15,299.6C52.017,289.767 46.817,277.533 41.55,262.9C46.817,277.533 52.017,289.767 57.15,299.6C39.017,318.5 19.6,326.617 -1.1,323.95C-10.967,314.55 -23.033,298.85 -37.3,276.85C-37.2,258.617 -32.317,241.483 -22.65,225.45L-12.85,243.4L-12.85,263.45L-14.35,262.75L-12.85,263.45C-8.05,265.55 -3.45,267.15 0.95,268.25C15.217,272.05 28.75,270.267 41.55,262.9C38.983,255.7 36.367,247.967 33.7,239.7C44.833,219.233 61.683,209.883 84.25,211.65L85.2,229.85C88.067,232.35 90.833,234.983 93.5,237.75L101.5,231.25M114.75,340.9C128.75,366.5 139.35,390.817 146.55,413.85C151.783,447.083 147.217,486.083 132.85,530.85L79.95,595.75L90.6,565.1L104,530.85L54,577.25C66.333,556.817 75.917,535.967 82.75,514.7C98.217,466.267 99.267,415.75 85.9,363.15L114.75,340.9M8.3,567.85C-0.567,569.517 -9.65,569.7 -18.95,568.4C-2.183,556.633 7.483,544.433 10.05,531.8C-0.783,538.8 -15.783,538.8 -34.95,531.8C32.65,482.433 61.65,426.133 52.05,362.9L67.1,356.25C88.667,418.117 69.067,488.65 8.3,567.85M187.3,90.35L189.2,80.15L187.3,90.35M8.95,300.75C4.45,306.983 1.1,314.717 -1.1,323.95C1.1,314.717 4.45,306.983 8.95,300.75" style="fill:#dad6a4;"/>
                    <path d="M235.9,107.35C271.9,115.817 282.167,139.217 266.7,177.55C251.333,217.583 227.167,246.267 194.2,263.6L123.35,300.75C124.083,304.983 122.517,308.933 118.65,312.6C114.117,316.833 109.233,320.017 104,322.15L114.75,340.9L85.9,363.15C84.8,358.65 83.55,354.133 82.15,349.6C79.483,340.767 76.45,331.883 73.05,322.95C65.15,332.983 57.233,341.55 49.3,348.65C40.367,356.483 31.433,362.517 22.5,366.75C13.567,364.083 4.583,358.7 -4.45,350.6C-4.15,340.633 -3.033,331.75 -1.1,323.95C19.6,326.617 39.017,318.5 57.15,299.6C62.583,310.1 67.883,317.883 73.05,322.95C84.483,325.983 94.8,325.717 104,322.15C94.8,325.717 84.483,325.983 73.05,322.95C67.883,317.883 62.583,310.1 57.15,299.6C68.95,295.1 69.367,276.55 58.4,243.95C65.133,262.55 72.55,277.933 80.65,290.1C98.05,295.333 108.733,287.267 112.7,265.9C143.733,249.167 169.983,223.017 191.45,187.45L176.65,238.85C215.583,213.517 235.567,181.333 236.6,142.3C237.967,128.967 237.733,117.317 235.9,107.35M146.55,413.85C174.817,505.117 149.033,575.967 69.2,626.4L79.95,595.75L132.85,530.85C147.217,486.083 151.783,447.083 146.55,413.85M90.6,565.1L40.2,598.4C45.167,591.4 49.767,584.35 54,577.25L104,530.85L90.6,565.1M82.75,514.7C59.883,545.333 35.067,563.05 8.3,567.85C69.067,488.65 88.667,418.117 67.1,356.25L52.05,362.9C51.317,358.2 50.4,353.45 49.3,348.65C57.233,341.55 65.15,332.983 73.05,322.95C76.45,331.883 79.483,340.767 82.15,349.6C83.55,354.133 84.8,358.65 85.9,363.15C99.267,415.75 98.217,466.267 82.75,514.7M-12.85,243.4L0.95,268.25C-3.45,267.15 -8.05,265.55 -12.85,263.45L-12.85,243.4M84.25,211.65L101.5,231.25L93.5,237.75C90.833,234.983 88.067,232.35 85.2,229.85L84.25,211.65M123.35,300.75C121.117,288.017 117.567,276.4 112.7,265.9C117.567,276.4 121.117,288.017 123.35,300.75M90.6,303.1C87.1,299.233 83.783,294.9 80.65,290.1C83.783,294.9 87.1,299.233 90.6,303.1" style="fill:#9e8b59;"/>
                    <path d="M101.5,231.25C146.9,194.05 175.5,147.083 187.3,90.35C178.833,83.75 171,75.15 163.8,64.55C205.867,59.283 229.9,73.55 235.9,107.35C271.9,115.817 282.167,139.217 266.7,177.55C251.333,217.583 227.167,246.267 194.2,263.6L123.35,300.75C124.083,304.983 122.517,308.933 118.65,312.6C114.117,316.833 109.233,320.017 104,322.15L114.75,340.9C128.75,366.5 139.35,390.817 146.55,413.85C174.817,505.117 149.033,575.967 69.2,626.4L79.95,595.75L90.6,565.1L40.2,598.4C45.167,591.4 49.767,584.35 54,577.25C66.333,556.817 75.917,535.967 82.75,514.7C59.883,545.333 35.067,563.05 8.3,567.85C-0.567,569.517 -9.65,569.7 -18.95,568.4C-2.183,556.633 7.483,544.433 10.05,531.8C-0.783,538.8 -15.783,538.8 -34.95,531.8C32.65,482.433 61.65,426.133 52.05,362.9C51.317,358.2 50.4,353.45 49.3,348.65C40.367,356.483 31.433,362.517 22.5,366.75C13.567,364.083 4.583,358.7 -4.45,350.6C-4.15,340.633 -3.033,331.75 -1.1,323.95C-10.967,314.55 -23.033,298.85 -37.3,276.85C-37.2,258.617 -32.317,241.483 -22.65,225.45L-12.85,243.4L0.95,268.25C15.217,272.05 28.75,270.267 41.55,262.9C38.983,255.7 36.367,247.967 33.7,239.7C44.833,219.233 61.683,209.883 84.25,211.65L101.5,231.25L93.5,237.75C101.233,245.95 107.633,255.333 112.7,265.9C143.733,249.167 169.983,223.017 191.45,187.45M236.6,142.3C237.967,128.967 237.733,117.317 235.9,107.35M189.2,80.15L187.3,90.35M93.5,237.75C90.833,234.983 88.067,232.35 85.2,229.85M58.4,243.95C65.133,262.55 72.55,277.933 80.65,290.1C83.783,294.9 87.1,299.233 90.6,303.1M112.7,265.9C117.567,276.4 121.117,288.017 123.35,300.75M57.15,299.6C62.583,310.1 67.883,317.883 73.05,322.95C84.483,325.983 94.8,325.717 104,322.15M85.9,363.15C84.8,358.65 83.55,354.133 82.15,349.6C79.483,340.767 76.45,331.883 73.05,322.95C65.15,332.983 57.233,341.55 49.3,348.65M41.55,262.9C46.817,277.533 52.017,289.767 57.15,299.6M85.9,363.15C99.267,415.75 98.217,466.267 82.75,514.7M-12.85,263.45L-14.35,262.75M-1.1,323.95C1.1,314.717 4.45,306.983 8.95,300.75M0.95,268.25C-3.45,267.15 -8.05,265.55 -12.85,263.45" style="fill:none;fill-rule:nonzero;stroke:#000;stroke-opacity:0.3;stroke-width:0.05px;"/>
                </g>
            </g>
        </g>
    </g>
</svg>
