<?xml version="1.0" encoding="UTF-8" standalone="no"?>
<!DOCTYPE svg PUBLIC "-//W3C//DTD SVG 1.1//EN" "http://www.w3.org/Graphics/SVG/1.1/DTD/svg11.dtd">
<svg width="100%" height="100%" viewBox="0 0 15 11" version="1.1" xmlns="http://www.w3.org/2000/svg" xmlns:xlink="http://www.w3.org/1999/xlink" xml:space="preserve" xmlns:serif="http://www.serif.com/" style="fill-rule:evenodd;clip-rule:evenodd;stroke-linecap:round;stroke-linejoin:round;">
    <g transform="matrix(1,0,0,1,-17.55,-19.7)">
        <g>
            <g id="shape0" transform="matrix(1,0,0,1,24.95,25)">
                <path d="M-2.75,-1.1C-2.717,-1.8 -2.483,-2.317 -2.05,-2.65L-1.7,-2.85L-1.6,-2.9L-1.1,-3.05L-0.95,-3.15L-0.7,-3.2L-0.65,-3.25L0.1,-3.1C0.633,-2.9 1.083,-2.483 1.45,-1.85L1.6,-1.55L2.35,-1.75L2.3,-2.1L2.25,-2.7C2.317,-3.367 2.55,-3.867 2.95,-4.2L3.3,-4.45L3.45,-4.45L3.9,-4.65L4.05,-4.7L4.1,-4.7L4.35,-4.8L4.4,-4.8L5.15,-4.7C5.683,-4.467 6.117,-4.033 6.45,-3.4L6.6,-3.15C6.867,-2.583 6.967,-2.017 6.9,-1.45C6.867,-0.75 6.65,-0.233 6.25,0.1L6,0.25L5.7,0.4L4.85,0.65L4.05,0.55L3.35,0.1L1.85,0.55L1.2,1.65L0.95,1.85L0.7,1.95L0.1,2.15L0.1,2.2L-0.15,2.25L-0.95,2.15L-1.2,2.05L-1.5,2.2L-1.1,2.7L-2.85,3.95L-3.25,3.95L-3.45,3.7L-4.65,4.85L-5.55,4.3L-6.1,4.25C-6.9,3.65 -7.1,3.133 -6.7,2.7L-6.45,2.35L-4.8,2.05L-5.3,1.45L-3.65,0.2L-3.3,0.2L-2.95,0.6L-2.8,0.45L-2.55,0.3L-2.75,-0.55L-2.75,-1.1M-5.8,3.5L-5.75,3.25L-5.9,3.2L-5.85,3.4L-5.8,3.5" style="fill:#280a02;"/>
                <path d="M-2.75,-1.1C-2.717,-1.8 -2.483,-2.317 -2.05,-2.65L-1.7,-2.85L-1.6,-2.9L-1.1,-3.05L-0.95,-3.15L-0.7,-3.2L-0.65,-3.25L0.1,-3.1C0.633,-2.9 1.083,-2.483 1.45,-1.85L1.6,-1.55L2.35,-1.75L2.3,-2.1L2.25,-2.7C2.317,-3.367 2.55,-3.867 2.95,-4.2L3.3,-4.45L3.45,-4.45L3.9,-4.65L4.05,-4.7L4.1,-4.7L4.35,-4.8L4.4,-4.8L5.15,-4.7C5.683,-4.467 6.117,-4.033 6.45,-3.4L6.6,-3.15C6.867,-2.583 6.967,-2.017 6.9,-1.45C6.867,-0.75 6.65,-0.233 6.25,0.1L6,0.25L5.7,0.4L4.85,0.65L4.05,0.55L3.35,0.1L1.85,0.55L1.2,1.65L0.95,1.85L0.7,1.95L0.1,2.15L0.1,2.2L-0.15,2.25L-0.95,2.15L-1.2,2.05L-1.5,2.2L-1.1,2.7L-2.85,3.95L-3.25,3.95L-3.45,3.7L-4.65,4.85L-5.55,4.3L-6.1,4.25C-6.9,3.65 -7.1,3.133 -6.7,2.7L-6.45,2.35L-4.8,2.05L-5.3,1.45L-3.65,0.2L-3.3,0.2L-2.95,0.6L-2.8,0.45L-2.55,0.3L-2.75,-0.55L-2.75,-1.1Z" style="fill:none;fill-rule:nonzero;stroke:#280a02;stroke-width:1px;"/>
            </g>
            <g id="sprite0" transform="matrix(0.0321,0,0,0.032,16.1494,14.7919)">
                <g id="shape1">
                    <path d="M395,319.05C371.7,323.55 348.95,329.85 326.75,337.95C322.717,316.017 316.633,294.617 308.5,273.75C335.367,265.817 363.283,260.583 392.25,258.05L395,319.05M220.3,311.6L221.75,320.55C228.917,335.217 236.733,346.283 245.2,353.75C250.5,358.417 256.1,362.983 262,367.45C254.5,371.55 247.083,375.883 239.75,380.45C234.783,383.483 229.85,386.667 224.95,390C221.983,391.933 219.067,393.917 216.2,395.95L222.85,386.95C206.15,374.85 194.25,356.767 187.15,332.7C197.983,325.1 209.033,318.067 220.3,311.6M175.4,427.65C159.7,440.917 144.383,455.35 129.45,470.95C97.983,461.717 87.05,443.183 96.65,415.35C104.317,406.483 112.15,397.983 120.15,389.85C137.217,419.583 155.633,432.183 175.4,427.65" style="fill:#3b2103;"/>
                    <path d="M187.15,332.7C194.25,356.767 206.15,374.85 222.85,386.95L216.2,395.95C202.367,405.65 188.767,416.217 175.4,427.65C155.633,432.183 137.217,419.583 120.15,389.85C141.483,368.183 163.817,349.133 187.15,332.7" style="fill:#764206;"/>
                    <path d="M395,319.05C371.7,323.55 348.95,329.85 326.75,337.95M308.5,273.75C335.367,265.817 363.283,260.583 392.25,258.05M220.3,311.6C209.033,318.067 197.983,325.1 187.15,332.7C163.817,349.133 141.483,368.183 120.15,389.85C112.15,397.983 104.317,406.483 96.65,415.35C87.05,443.183 97.983,461.717 129.45,470.95C144.383,455.35 159.7,440.917 175.4,427.65C188.767,416.217 202.367,405.65 216.2,395.95C219.067,393.917 221.983,391.933 224.95,390C229.85,386.667 234.783,383.483 239.75,380.45C247.083,375.883 254.5,371.55 262,367.45" style="fill:none;fill-rule:nonzero;stroke:#000;stroke-opacity:0.45;stroke-width:0.05px;"/>
                    <path d="M65.2,404.25C66.867,400.65 69.65,397.05 73.55,393.45C93.55,395.95 115.633,388.983 139.8,372.55L172.5,417.55L170.55,419.6L167.35,423.1L166.55,424.2C145.883,445.4 118.8,452.583 85.3,445.75C65.367,431.55 58.667,417.717 65.2,404.25M143.7,419.35L144.25,419.05C146.45,418.317 147.883,416.667 148.55,414.1C149.283,411.5 149.05,408.817 147.85,406.05C146.65,403.083 144.9,400.867 142.6,399.4C140.2,397.933 137.983,397.567 135.95,398.3C133.817,399.033 132.383,400.7 131.65,403.3L131.25,406.05C131.25,407.817 131.617,409.617 132.35,411.45C133.45,414.217 135.2,416.383 137.6,417.95C139.733,419.35 141.767,419.817 143.7,419.35M103.4,433.05L104,432.9C106.1,432.167 107.483,430.5 108.15,427.9C108.883,425.333 108.65,422.617 107.45,419.75C106.35,416.817 104.6,414.6 102.2,413.1C99.867,411.533 97.65,411.167 95.55,412C93.417,412.733 91.983,414.35 91.25,416.85C91.05,417.783 90.95,418.667 90.95,419.5C90.883,421.433 91.217,423.267 91.95,425C93.217,427.867 95.017,430.083 97.35,431.65C99.45,433.05 101.467,433.517 103.4,433.05" style="fill:#764206;"/>
                    <path d="M85.3,445.75C118.8,452.583 145.883,445.4 166.55,424.2L167.35,423.1L170.55,419.6L172.5,417.55L175.4,419.35L162.8,433.05C144.333,450.383 117.95,456.567 83.65,451.6L85.3,445.75M143.7,419.35C143.6,417.583 143.233,415.733 142.6,413.8C141.5,410.933 139.75,408.767 137.35,407.3C135.317,405.9 133.283,405.483 131.25,406.05L131.65,403.3C132.383,400.7 133.817,399.033 135.95,398.3C137.983,397.567 140.2,397.933 142.6,399.4C144.9,400.867 146.65,403.083 147.85,406.05C149.05,408.817 149.283,411.5 148.55,414.1C147.883,416.667 146.45,418.317 144.25,419.05L143.7,419.35M90.95,419.5C90.95,418.667 91.05,417.783 91.25,416.85C91.983,414.35 93.417,412.733 95.55,412C97.65,411.167 99.867,411.533 102.2,413.1C104.6,414.6 106.35,416.817 107.45,419.75C108.65,422.617 108.883,425.333 108.15,427.9C107.483,430.5 106.1,432.167 104,432.9L103.4,433.05C103.5,431.183 103.133,429.333 102.3,427.5C101.1,424.633 99.35,422.417 97.05,420.85C94.85,419.55 92.817,419.1 90.95,419.5" style="fill:#562f04;"/>
                    <path d="M65.2,404.25C58.667,417.717 65.367,431.55 85.3,445.75L83.65,451.6C59.183,433.133 53.033,417.35 65.2,404.25" style="fill:#a05908;"/>
                    <path d="M139.8,372.55C115.633,388.983 93.55,395.95 73.55,393.45C69.65,397.05 66.867,400.65 65.2,404.25C53.033,417.35 59.183,433.133 83.65,451.6C117.95,456.567 144.333,450.383 162.8,433.05L175.4,419.35L172.5,417.55L170.55,419.6M131.25,406.05C133.283,405.483 135.317,405.9 137.35,407.3C139.75,408.767 141.5,410.933 142.6,413.8C143.233,415.733 143.6,417.583 143.7,419.35C141.767,419.817 139.733,419.35 137.6,417.95C135.2,416.383 133.45,414.217 132.35,411.45C131.617,409.617 131.25,407.817 131.25,406.05M90.95,419.5C92.817,419.1 94.85,419.55 97.05,420.85C99.35,422.417 101.1,424.633 102.3,427.5C103.133,429.333 103.5,431.183 103.4,433.05C101.467,433.517 99.45,433.05 97.35,431.65C95.017,430.083 93.217,427.867 91.95,425C91.217,423.267 90.883,421.433 90.95,419.5" style="fill:none;fill-rule:nonzero;stroke:#000;stroke-opacity:0.45;stroke-width:0.05px;"/>
                    <path d="M266.4,246.95C277.767,251.383 287.15,260.35 294.55,273.85C301.883,287.35 305.117,301.383 304.25,315.95C303.35,330.483 298.567,341.3 289.9,348.4C281.1,355.567 271.033,356.9 259.7,352.4C248.2,347.933 238.8,338.95 231.5,325.45C224.067,312.05 220.8,298.067 221.7,283.5C222.267,275.467 224.05,268.533 227.05,262.7C229.25,258.133 232.3,254.25 236.2,251.05C238.4,249.217 240.733,247.817 243.2,246.85C250.167,243.683 257.9,243.717 266.4,246.95M248.05,264.3C245.917,267.733 246.7,271.883 250.4,276.75C254.167,281.683 258.717,287.267 264.05,293.5C269.283,299.8 273.85,305.033 277.75,309.2C281.583,313.167 284.533,313.433 286.6,310C288.8,306.533 288.783,301.383 286.55,294.55C284.317,287.683 280.517,281.067 275.15,274.7C269.817,268.333 264.467,264.15 259.1,262.15C253.9,260.117 250.217,260.833 248.05,264.3" style="fill:#94b0af;fill-opacity:0.85;"/>
                    <path d="M248.05,264.3C250.217,260.833 253.9,260.117 259.1,262.15C264.467,264.15 269.817,268.333 275.15,274.7C280.517,281.067 284.317,287.683 286.55,294.55C288.783,301.383 288.8,306.533 286.6,310C284.533,313.433 281.583,313.167 277.75,309.2C273.85,305.033 269.283,299.8 264.05,293.5C258.717,287.267 254.167,281.683 250.4,276.75C246.7,271.883 245.917,267.733 248.05,264.3" style="fill:#b2d4d3;fill-opacity:0.85;"/>
                    <path d="M266.4,246.95C277.767,251.383 287.15,260.35 294.55,273.85C301.883,287.35 305.117,301.383 304.25,315.95C303.35,330.483 298.567,341.3 289.9,348.4C281.1,355.567 271.033,356.9 259.7,352.4C248.2,347.933 238.8,338.95 231.5,325.45C224.067,312.05 220.8,298.067 221.7,283.5C222.267,275.467 224.05,268.533 227.05,262.7C229.25,258.133 232.3,254.25 236.2,251.05C238.4,249.217 240.733,247.817 243.2,246.85C250.167,243.683 257.9,243.717 266.4,246.95Z" style="fill:none;fill-rule:nonzero;stroke:#000;stroke-opacity:0.3;stroke-width:0.05px;"/>
                    <path d="M239.8,223C241.367,222.067 242.983,221.283 244.65,220.65L245.05,220.5C247.55,219.5 250.133,218.817 252.8,218.45L254.75,218.15C261.85,217.317 269.467,218.517 277.6,221.75C294.367,228.217 308.25,241.367 319.25,261.2C320.817,264.133 322.25,267.083 323.55,270.05L320.05,264.8C310.75,252.233 299.683,243.517 286.85,238.65C274.217,233.55 261.35,232.35 248.25,235.05L246.85,235.15C246.95,241.45 248.567,246.25 251.7,249.55C252.633,250.583 253.7,251.417 254.9,252.05C252.767,252.883 250.683,254.133 248.65,255.8L248.1,256.35C245.6,258.483 243.483,260.933 241.75,263.7L240.5,266.15L240.2,263C239.933,261.533 239.483,260.2 238.85,259C237.083,255.767 234.167,253.817 230.1,253.15C228.9,256.017 227.8,258.967 226.8,262C226.133,263.667 225.617,265.333 225.25,267C223.983,271.433 222.983,276 222.25,280.7L221.55,287.5C221.35,289.133 221.2,290.833 221.1,292.6L221,296.6C220.633,311.367 223.117,325.767 228.45,339.8L231.1,345.75C229.333,343.25 227.667,340.533 226.1,337.6C218.433,323.467 213.767,309.017 212.1,294.25C211.467,288.083 211.333,281.867 211.7,275.6L212.25,270.3C212.817,265.133 213.783,260.3 215.15,255.8C216.283,252.3 217.533,249.017 218.9,245.95C221.933,239.683 225.85,234.3 230.65,229.8L233.15,227.55C235.283,225.717 237.5,224.2 239.8,223" style="fill:#ffbf12;"/>
                    <path d="M228.45,339.8C223.117,325.767 220.633,311.367 221,296.6L221.1,292.6C221.2,290.833 221.35,289.133 221.55,287.5L222.25,280.7C222.983,276 223.983,271.433 225.25,267C225.617,265.333 226.133,263.667 226.8,262C227.8,258.967 228.9,256.017 230.1,253.15C234.167,253.817 237.083,255.767 238.85,259C239.483,260.2 239.933,261.533 240.2,263L240.5,266.15C239.933,267.183 239.467,268.3 239.1,269.5C237.267,273.933 236.117,279.1 235.65,285C235.283,289.7 235.517,294.317 236.35,298.85C237.55,306.95 240.217,314.833 244.35,322.5C251.017,334.567 259.467,342.633 269.7,346.7L270.4,347C274.633,348.567 278.733,349.217 282.7,348.95C285,348.75 287.267,348.233 289.5,347.4C291.967,346.4 294.367,344.967 296.7,343.1L299.7,340.2C305.633,333.933 308.967,325.167 309.7,313.9C310.433,300.9 307.483,288.35 300.85,276.25C294.283,264.183 285.883,256.167 275.65,252.2C273.717,251.467 271.783,250.917 269.85,250.55C265.117,249.617 260.683,249.883 256.55,251.35L254.9,252.05C253.7,251.417 252.633,250.583 251.7,249.55C248.567,246.25 246.95,241.45 246.85,235.15L248.25,235.05C261.35,232.35 274.217,233.55 286.85,238.65C299.683,243.517 310.75,252.233 320.05,264.8C325.95,280.1 328.35,295.867 327.25,312.1C325.95,333.5 318.85,349.467 305.95,360C301.25,363.767 296.4,366.433 291.4,368C286.233,369.667 280.8,370.133 275.1,369.4C270.767,368.933 266.25,367.783 261.55,365.95C257.65,364.483 253.95,362.633 250.45,360.4C242.35,355.333 235.017,348.467 228.45,339.8" style="fill:#d6a110;"/>
                    <path d="M248.1,256.35L248.65,255.8C250.683,254.133 252.767,252.883 254.9,252.05L256.55,251.35C260.683,249.883 265.117,249.617 269.85,250.55C271.783,250.917 273.717,251.467 275.65,252.2C285.883,256.167 294.283,264.183 300.85,276.25C307.483,288.35 310.433,300.9 309.7,313.9C308.967,325.167 305.633,333.933 299.7,340.2L296.7,343.1C294.367,344.967 291.967,346.4 289.5,347.4C287.267,348.233 285,348.75 282.7,348.95L285.2,346.45C291.1,340.183 294.417,331.417 295.15,320.15C295.883,307.15 292.933,294.6 286.3,282.5C279.733,270.4 271.333,262.367 261.1,258.4C259.167,257.667 257.233,257.117 255.3,256.75L248.1,256.35" style="fill:#a3660b;"/>
                    <path d="M323.55,270.05C331.483,287.317 334.8,305.083 333.5,323.35C332.2,344.75 325.1,360.75 312.2,371.35C309.7,373.383 307.15,375.083 304.55,376.45C301.517,378.017 298.433,379.217 295.3,380.05C290.767,381.083 286.15,381.317 281.45,380.75C276.917,380.217 272.3,379.017 267.6,377.15L265.7,376.45C257.2,372.783 249.45,367.35 242.45,360.15C238.383,355.883 234.6,351.083 231.1,345.75L228.45,339.8C235.017,348.467 242.35,355.333 250.45,360.4C253.95,362.633 257.65,364.483 261.55,365.95C266.25,367.783 270.767,368.933 275.1,369.4C280.8,370.133 286.233,369.667 291.4,368C296.4,366.433 301.25,363.767 305.95,360C318.85,349.467 325.95,333.5 327.25,312.1C328.35,295.867 325.95,280.1 320.05,264.8L323.55,270.05" style="fill:#d4840f;"/>
                    <path d="M188.75,301.75C188.183,295.917 188.083,290.1 188.45,284.3C189.85,262.8 196.95,246.8 209.75,236.3C213.45,233.233 217.333,230.917 221.4,229.35C222.5,228.883 223.567,228.517 224.6,228.25L239.8,223C237.5,224.2 235.283,225.717 233.15,227.55L230.65,229.8C225.85,234.3 221.933,239.683 218.9,245.95C217.533,249.017 216.283,252.3 215.15,255.8C213.783,260.3 212.817,265.133 212.25,270.3L211.7,275.6C211.333,281.867 211.467,288.083 212.1,294.25C202.167,284.583 194.383,287.083 188.75,301.75" style="fill:#ffd871;"/>
                    <path d="M269.4,389.2C261.667,390.5 253.283,389.4 244.25,385.9C230.017,380.267 217.833,369.783 207.7,354.45C206.033,351.883 204.417,349.117 202.85,346.15C194.917,331.75 190.217,316.95 188.75,301.75C194.383,287.083 202.167,284.583 212.1,294.25C213.767,309.017 218.433,323.467 226.1,337.6C227.667,340.533 229.333,343.25 231.1,345.75C234.6,351.083 238.383,355.883 242.45,360.15C249.45,367.35 257.2,372.783 265.7,376.45L267.6,377.15C272.3,379.017 276.917,380.217 281.45,380.75C286.15,381.317 290.767,381.083 295.3,380.05L269.4,389.2" style="fill:#9d570f;"/>
                    <path d="M239.8,223C241.367,222.067 242.983,221.283 244.65,220.65L245.05,220.5C247.55,219.5 250.133,218.817 252.8,218.45L254.75,218.15C261.85,217.317 269.467,218.517 277.6,221.75C294.367,228.217 308.25,241.367 319.25,261.2C320.817,264.133 322.25,267.083 323.55,270.05C331.483,287.317 334.8,305.083 333.5,323.35C332.2,344.75 325.1,360.75 312.2,371.35C309.7,373.383 307.15,375.083 304.55,376.45C301.517,378.017 298.433,379.217 295.3,380.05L277.85,386.85L273.85,388.25L269.4,389.2C261.667,390.5 253.283,389.4 244.25,385.9C230.017,380.267 217.833,369.783 207.7,354.45C206.033,351.883 204.417,349.117 202.85,346.15C194.917,331.75 190.217,316.95 188.75,301.75C188.183,295.917 188.083,290.1 188.45,284.3C189.85,262.8 196.95,246.8 209.75,236.3C213.45,233.233 217.333,230.917 221.4,229.35C222.5,228.883 223.567,228.517 224.6,228.25L239.8,223" style="fill:none;fill-rule:nonzero;stroke:#000;stroke-opacity:0.45;stroke-width:0.05px;"/>
                    <path d="M240.5,266.15L241.75,263.7C243.483,260.933 245.6,258.483 248.1,256.35L255.3,256.75C257.233,257.117 259.167,257.667 261.1,258.4C271.333,262.367 279.733,270.4 286.3,282.5C292.933,294.6 295.883,307.15 295.15,320.15C294.417,331.417 291.1,340.183 285.2,346.45L282.7,348.95C278.733,349.217 274.633,348.567 270.4,347L269.7,346.7C259.467,342.633 251.017,334.567 244.35,322.5C240.217,314.833 237.55,306.95 236.35,298.85C235.517,294.317 235.283,289.7 235.65,285C236.117,279.1 237.267,273.933 239.1,269.5C239.467,268.3 239.933,267.183 240.5,266.15" style="fill:none;fill-rule:nonzero;stroke:#000;stroke-opacity:0.3;stroke-width:0.05px;"/>
                    <path d="M239.8,223C237.5,224.2 235.283,225.717 233.15,227.55L230.65,229.8C225.85,234.3 221.933,239.683 218.9,245.95C217.533,249.017 216.283,252.3 215.15,255.8C213.783,260.3 212.817,265.133 212.25,270.3L211.7,275.6C211.333,281.867 211.467,288.083 212.1,294.25C213.767,309.017 218.433,323.467 226.1,337.6C227.667,340.533 229.333,343.25 231.1,345.75C234.6,351.083 238.383,355.883 242.45,360.15C249.45,367.35 257.2,372.783 265.7,376.45L267.6,377.15C272.3,379.017 276.917,380.217 281.45,380.75C286.15,381.317 290.767,381.083 295.3,380.05M254.9,252.05L256.55,251.35C260.683,249.883 265.117,249.617 269.85,250.55C271.783,250.917 273.717,251.467 275.65,252.2C285.883,256.167 294.283,264.183 300.85,276.25C307.483,288.35 310.433,300.9 309.7,313.9C308.967,325.167 305.633,333.933 299.7,340.2L296.7,343.1C294.367,344.967 291.967,346.4 289.5,347.4C287.267,348.233 285,348.75 282.7,348.95" style="fill:none;fill-rule:nonzero;stroke:#000;stroke-opacity:0.1;stroke-width:0.05px;"/>
                    <path d="M173.1,443.2L108.7,365.2L160.3,326.1L160.5,326.15L228.35,403.55L173.1,443.2M127.8,374.3L171.2,422.65L177.3,418.25L177.2,418L177.6,417.8C182.767,412.467 187.75,408.167 192.55,404.9C196.883,402 202.45,398.867 209.25,395.5L171.25,349.95L165.55,343.2L127.8,374.3M177.6,417.8L177.3,418.25L177.6,417.8" style="fill:#d6a110;"/>
                    <path d="M127.8,374.3L139.15,373.9L177.2,418L177.3,418.25L171.2,422.65L127.8,374.3" style="fill:#d4840f;"/>
                    <path d="M173.1,443.2L228.35,403.55L240.55,403.55L185.05,443.15L183.75,443.15L183.55,443.25L173.1,443.2M139.15,373.9L127.8,374.3L165.55,343.2L171.25,349.95C154.683,356.517 143.983,364.5 139.15,373.9" style="fill:#9d570f;"/>
                    <path d="M228.35,403.55L160.5,326.15L171.8,325.55L240.55,403.55L228.35,403.55" style="fill:#ffbf12;"/>
                    <path d="M160.5,326.15L160.3,326.1L108.7,365.2L173.1,443.2L183.55,443.25L183.75,443.15L185.05,443.15L240.55,403.55L171.8,325.55L160.5,326.15M177.3,418.25L177.2,418L139.15,373.9C143.983,364.5 154.683,356.517 171.25,349.95L209.25,395.5C202.45,398.867 196.883,402 192.55,404.9C187.75,408.167 182.767,412.467 177.6,417.8L177.3,418.25" style="fill:none;fill-rule:nonzero;stroke:#000;stroke-opacity:0.45;stroke-width:0.05px;"/>
                    <path d="M406.8,227.8L420.45,244.55C425.717,250.85 430.283,256.05 434.15,260.15C437.983,264.15 440.95,264.433 443.05,261C445.217,257.567 445.2,252.417 443,245.55C440.733,238.65 436.933,232.033 431.6,225.7C426.233,219.333 420.883,215.15 415.55,213.15C410.35,211.117 406.667,211.817 404.5,215.25C402.333,218.717 403.1,222.9 406.8,227.8M451,224.85C458.333,238.35 461.55,252.383 460.65,266.95C459.783,281.483 455.017,292.283 446.35,299.35C437.55,306.55 427.45,307.917 416.05,303.45C404.617,298.95 395.233,289.95 387.9,276.45C380.5,263.017 377.233,249.05 378.1,234.55C378.667,226.45 380.45,219.5 383.45,213.7C385.683,209.1 388.717,205.2 392.55,202C394.783,200.2 397.15,198.8 399.65,197.8C406.617,194.667 414.333,194.733 422.8,198C434.2,202.4 443.6,211.35 451,224.85" style="fill:#94b0af;fill-opacity:0.85;"/>
                    <path d="M406.8,227.8C403.1,222.9 402.333,218.717 404.5,215.25C406.667,211.817 410.35,211.117 415.55,213.15C420.883,215.15 426.233,219.333 431.6,225.7C436.933,232.033 440.733,238.65 443,245.55C445.2,252.417 445.217,257.567 443.05,261C440.95,264.433 437.983,264.15 434.15,260.15C430.283,256.05 425.717,250.85 420.45,244.55L406.8,227.8" style="fill:#b2d4d3;fill-opacity:0.85;"/>
                    <path d="M451,224.85C458.333,238.35 461.55,252.383 460.65,266.95C459.783,281.483 455.017,292.283 446.35,299.35C437.55,306.55 427.45,307.917 416.05,303.45C404.617,298.95 395.233,289.95 387.9,276.45C380.5,263.017 377.233,249.05 378.1,234.55C378.667,226.45 380.45,219.5 383.45,213.7C385.683,209.1 388.717,205.2 392.55,202C394.783,200.2 397.15,198.8 399.65,197.8C406.617,194.667 414.333,194.733 422.8,198C434.2,202.4 443.6,211.35 451,224.85Z" style="fill:none;fill-rule:nonzero;stroke:#000;stroke-opacity:0.3;stroke-width:0.05px;"/>
                    <path d="M396.25,174C397.817,173.067 399.433,172.283 401.1,171.65L401.5,171.5C404,170.5 406.583,169.8 409.25,169.4L411.2,169.15C418.3,168.317 425.9,169.517 434,172.75C450.8,179.217 464.683,192.367 475.65,212.2C477.217,215.133 478.65,218.083 479.95,221.05C478.85,219.117 477.7,217.367 476.5,215.8C467.167,203.233 456.1,194.517 443.3,189.65C430.667,184.55 417.8,183.35 404.7,186.05L403.3,186.15C403.4,192.45 405.017,197.25 408.15,200.55C409.05,201.583 410.1,202.417 411.3,203.05C409.2,203.883 407.133,205.133 405.1,206.8L404.55,207.35C402.05,209.45 399.917,211.883 398.15,214.65L396.95,217.15L396.65,214C396.383,212.5 395.917,211.15 395.25,209.95C393.517,206.717 390.617,204.783 386.55,204.15C385.35,207.017 384.25,209.967 383.25,213C382.583,214.667 382.067,216.333 381.7,218C380.4,222.433 379.383,227 378.65,231.7L377.95,238.45L377.55,243.6C377.45,244.9 377.4,246.233 377.4,247.6C377.033,262.367 379.533,276.767 384.9,290.8L387.5,296.75C385.767,294.25 384.117,291.517 382.55,288.55C374.883,274.45 370.217,260.017 368.55,245.25C367.917,239.083 367.783,232.85 368.15,226.55C368.25,224.817 368.433,223.067 368.7,221.3C369.267,216.133 370.233,211.3 371.6,206.8C372.7,203.3 373.95,200.017 375.35,196.95C378.383,190.683 382.3,185.283 387.1,180.75L389.6,178.55C391.733,176.717 393.95,175.2 396.25,174" style="fill:#ffbf12;"/>
                    <path d="M345.15,252.75C344.617,246.917 344.533,241.1 344.9,235.3C346.267,213.8 353.367,197.783 366.2,187.25C369.9,184.217 373.783,181.917 377.85,180.35C378.95,179.883 380,179.517 381,179.25L396.25,174C393.95,175.2 391.733,176.717 389.6,178.55L387.1,180.75C382.3,185.283 378.383,190.683 375.35,196.95C373.95,200.017 372.7,203.3 371.6,206.8C370.233,211.3 369.267,216.133 368.7,221.3C368.433,223.067 368.25,224.817 368.15,226.55C367.783,232.85 367.917,239.083 368.55,245.25C358.583,235.55 350.783,238.05 345.15,252.75" style="fill:#ffd871;"/>
                    <path d="M384.9,290.8C379.533,276.767 377.033,262.367 377.4,247.6C377.4,246.233 377.45,244.9 377.55,243.6L377.95,238.45L378.65,231.7C379.383,227 380.4,222.433 381.7,218C382.067,216.333 382.583,214.667 383.25,213C384.25,209.967 385.35,207.017 386.55,204.15C390.617,204.783 393.517,206.717 395.25,209.95C395.917,211.15 396.383,212.5 396.65,214L396.95,217.15C396.383,218.183 395.917,219.3 395.55,220.5C393.717,224.933 392.567,230.1 392.1,236C391.733,240.7 391.967,245.3 392.8,249.8C393.967,257.933 396.633,265.833 400.8,273.5C407.433,285.567 415.867,293.633 426.1,297.7C426.3,297.7 426.533,297.8 426.8,298C431.067,299.567 435.183,300.2 439.15,299.9C441.45,299.733 443.7,299.233 445.9,298.4C448.4,297.367 450.8,295.933 453.1,294.1L456.15,291.2C462.05,284.933 465.367,276.167 466.1,264.9C466.833,251.9 463.883,239.35 457.25,227.25C450.717,215.183 442.333,207.167 432.1,203.2C430.133,202.467 428.183,201.917 426.25,201.55C421.55,200.617 417.133,200.883 413,202.35L411.3,203.05C410.1,202.417 409.05,201.583 408.15,200.55C405.017,197.25 403.4,192.45 403.3,186.15L404.7,186.05C417.8,183.35 430.667,184.55 443.3,189.65C456.1,194.517 467.167,203.233 476.5,215.8C482.4,231.1 484.8,246.867 483.7,263.1C482.4,284.5 475.3,300.467 462.4,311C457.667,314.767 452.817,317.433 447.85,319C442.683,320.667 437.233,321.133 431.5,320.4C427.167,319.933 422.65,318.783 417.95,316.95C414.083,315.45 410.4,313.6 406.9,311.4C398.767,306.333 391.433,299.467 384.9,290.8" style="fill:#d6a110;"/>
                    <path d="M479.95,221.05C487.883,238.283 491.2,256.033 489.9,274.3C488.633,295.7 481.533,311.717 468.6,322.35C466.1,324.383 463.567,326.083 461,327.45C457.967,329.017 454.867,330.217 451.7,331.05C447.2,332.05 442.6,332.283 437.9,331.75C433.367,331.183 428.75,329.983 424.05,328.15L422.1,327.45C413.633,323.75 405.883,318.3 398.85,311.1C394.817,306.867 391.033,302.083 387.5,296.75L384.9,290.8C391.433,299.467 398.767,306.333 406.9,311.4C410.4,313.6 414.083,315.45 417.95,316.95C422.65,318.783 427.167,319.933 431.5,320.4C437.233,321.133 442.683,320.667 447.85,319C452.817,317.433 457.667,314.767 462.4,311C475.3,300.467 482.4,284.5 483.7,263.1C484.8,246.867 482.4,231.1 476.5,215.8C477.7,217.367 478.85,219.117 479.95,221.05" style="fill:#d4840f;"/>
                    <path d="M404.55,207.35L405.1,206.8C407.133,205.133 409.2,203.883 411.3,203.05L413,202.35C417.133,200.883 421.55,200.617 426.25,201.55C428.183,201.917 430.133,202.467 432.1,203.2C442.333,207.167 450.717,215.183 457.25,227.25C463.883,239.35 466.833,251.9 466.1,264.9C465.367,276.167 462.05,284.933 456.15,291.2L453.1,294.1C450.8,295.933 448.4,297.367 445.9,298.4C443.7,299.233 441.45,299.733 439.15,299.9L441.6,297.4C447.533,291.133 450.867,282.383 451.6,271.15C452.333,258.117 449.383,245.567 442.75,233.5C436.183,221.4 427.783,213.367 417.55,209.4C415.617,208.667 413.683,208.117 411.75,207.75L404.55,207.35" style="fill:#a3660b;"/>
                    <path d="M425.85,340.2C418.083,341.467 409.683,340.35 400.65,336.85C386.45,331.217 374.283,320.75 364.15,305.45C362.483,302.85 360.867,300.083 359.3,297.15C351.367,282.75 346.65,267.95 345.15,252.75C350.783,238.05 358.583,235.55 368.55,245.25C370.217,260.017 374.883,274.45 382.55,288.55C384.117,291.517 385.767,294.25 387.5,296.75C391.033,302.083 394.817,306.867 398.85,311.1C405.883,318.3 413.633,323.75 422.1,327.45L424.05,328.15C428.75,329.983 433.367,331.183 437.9,331.75C442.6,332.283 447.2,332.05 451.7,331.05L425.85,340.2" style="fill:#9d570f;"/>
                    <path d="M396.25,174C397.817,173.067 399.433,172.283 401.1,171.65L401.5,171.5C404,170.5 406.583,169.8 409.25,169.4L411.2,169.15C418.3,168.317 425.9,169.517 434,172.75C450.8,179.217 464.683,192.367 475.65,212.2C477.217,215.133 478.65,218.083 479.95,221.05C487.883,238.283 491.2,256.033 489.9,274.3C488.633,295.7 481.533,311.717 468.6,322.35C466.1,324.383 463.567,326.083 461,327.45C457.967,329.017 454.867,330.217 451.7,331.05L434.3,337.85L430.3,339.2L425.85,340.2C418.083,341.467 409.683,340.35 400.65,336.85C386.45,331.217 374.283,320.75 364.15,305.45C362.483,302.85 360.867,300.083 359.3,297.15C351.367,282.75 346.65,267.95 345.15,252.75C344.617,246.917 344.533,241.1 344.9,235.3C346.267,213.8 353.367,197.783 366.2,187.25C369.9,184.217 373.783,181.917 377.85,180.35C378.95,179.883 380,179.517 381,179.25L396.25,174" style="fill:none;fill-rule:nonzero;stroke:#000;stroke-opacity:0.45;stroke-width:0.05px;"/>
                    <path d="M396.25,174C393.95,175.2 391.733,176.717 389.6,178.55L387.1,180.75C382.3,185.283 378.383,190.683 375.35,196.95C373.95,200.017 372.7,203.3 371.6,206.8C370.233,211.3 369.267,216.133 368.7,221.3C368.433,223.067 368.25,224.817 368.15,226.55C367.783,232.85 367.917,239.083 368.55,245.25C370.217,260.017 374.883,274.45 382.55,288.55C384.117,291.517 385.767,294.25 387.5,296.75C391.033,302.083 394.817,306.867 398.85,311.1C405.883,318.3 413.633,323.75 422.1,327.45L424.05,328.15C428.75,329.983 433.367,331.183 437.9,331.75C442.6,332.283 447.2,332.05 451.7,331.05M411.3,203.05L413,202.35C417.133,200.883 421.55,200.617 426.25,201.55C428.183,201.917 430.133,202.467 432.1,203.2C442.333,207.167 450.717,215.183 457.25,227.25C463.883,239.35 466.833,251.9 466.1,264.9C465.367,276.167 462.05,284.933 456.15,291.2L453.1,294.1C450.8,295.933 448.4,297.367 445.9,298.4C443.7,299.233 441.45,299.733 439.15,299.9" style="fill:none;fill-rule:nonzero;stroke:#000;stroke-opacity:0.1;stroke-width:0.05px;"/>
                    <path d="M396.95,217.15L398.15,214.65C399.917,211.883 402.05,209.45 404.55,207.35L411.75,207.75C413.683,208.117 415.617,208.667 417.55,209.4C427.783,213.367 436.183,221.4 442.75,233.5C449.383,245.567 452.333,258.117 451.6,271.15C450.867,282.383 447.533,291.133 441.6,297.4L439.15,299.9C435.183,300.2 431.067,299.567 426.8,298C426.533,297.8 426.3,297.7 426.1,297.7C415.867,293.633 407.433,285.567 400.8,273.5C396.633,265.833 393.967,257.933 392.8,249.8C391.967,245.3 391.733,240.7 392.1,236C392.567,230.1 393.717,224.933 395.55,220.5C395.917,219.3 396.383,218.183 396.95,217.15" style="fill:none;fill-rule:nonzero;stroke:#000;stroke-opacity:0.3;stroke-width:0.05px;"/>
                </g>
            </g>
        </g>
    </g>
</svg>
