<?xml version="1.0" encoding="UTF-8" standalone="no"?>
<!DOCTYPE svg PUBLIC "-//W3C//DTD SVG 1.1//EN" "http://www.w3.org/Graphics/SVG/1.1/DTD/svg11.dtd">
<svg width="100%" height="100%" viewBox="0 0 28 29" version="1.1" xmlns="http://www.w3.org/2000/svg" xmlns:xlink="http://www.w3.org/1999/xlink" xml:space="preserve" xmlns:serif="http://www.serif.com/" style="fill-rule:evenodd;clip-rule:evenodd;stroke-linecap:round;stroke-linejoin:round;">
    <g transform="matrix(1,0,0,1,-11.25,-10.85)">
        <g>
            <g id="shape0" transform="matrix(1,0,0,1,24.95,24.95)">
                <path d="M5.5,-2.05C6.133,-1.95 6.133,-1.583 5.5,-0.95L5.4,-0.7L5.9,-0.9L6.35,-0.25L10.1,-1.65C11.567,-2.517 12.35,-2.917 12.45,-2.85C13.017,-2.483 13.3,-1.8 13.3,-0.8C12.9,0.633 12.283,1.967 11.45,3.2L10.4,4.55L10.25,4.8C9.983,6.2 9.883,7.967 9.95,10.1L10.4,10.3L10.8,11.05C10.867,11.35 10.8,11.633 10.6,11.9L9.9,12.35L9.05,12.15C8.783,11.95 8.633,11.7 8.6,11.4C8.533,11.1 8.6,10.817 8.8,10.55L9,10.35L9.35,10.15L9.55,10.1L9.6,10.1C9.7,8.167 9.667,6.633 9.5,5.5L7.7,6.5C7.633,7.333 7.617,8.267 7.65,9.3L8,9.45L8.35,10.05L8.2,10.75L7.6,11.1L6.9,10.95L6.5,10.35C6.467,10.083 6.533,9.85 6.7,9.65L6.85,9.5C6.917,9.4 7.017,9.35 7.15,9.35L7.3,9.3L7.35,9.3L7.35,6.6L4.15,6.85L1.9,6.4L-5.8,6.95L-5.8,11.2C-5.667,11.233 -5.517,11.3 -5.35,11.4C-5.117,11.6 -4.983,11.883 -4.95,12.25C-4.883,12.583 -4.95,12.883 -5.15,13.15L-5.9,13.65L-6.7,13.4C-6.967,13.2 -7.117,12.933 -7.15,12.6C-7.217,12.267 -7.15,11.95 -6.95,11.65L-6.75,11.45L-6.4,11.25L-6.2,11.2L-6.15,11.2C-6.117,9.533 -6.133,8.083 -6.2,6.85L-6.65,6.75L-7.95,6.2L-9.05,5.6L-9.35,7.6L-8.95,7.8L-8.6,8.4C-8.567,8.667 -8.633,8.9 -8.8,9.1L-9.4,9.45L-10.1,9.25L-10.45,8.65L-10.25,7.95L-10.1,7.8L-9.85,7.65L-9.65,7.6L-9.6,7.6C-9.433,6.6 -9.417,5.817 -9.55,5.25C-11.75,3.65 -12.967,1.35 -13.2,-1.65L-13.2,-1.9L-13.15,-1.9C-13.083,-2.067 -12.933,-2.167 -12.7,-2.2L-7.6,0.7C-7.7,-0.267 -7.3,-0.883 -6.4,-1.15L-6.35,-1.1L-6.3,-1.3C-6.4,-2.1 -6.133,-2.4 -5.5,-2.2C-5.067,-3.267 -4.233,-4.1 -3,-4.7C-3.7,-4.967 -4.283,-5.517 -4.75,-6.35L-5.3,-7.6C-5.667,-7.467 -5.967,-7.617 -6.2,-8.05L-7.85,-6.2C-7.817,-5.7 -7.65,-5.233 -7.35,-4.8L-6.45,-5.55L-6.45,-5.65L-5.9,-6.35L-5.9,-5.1L-7.3,-3L-8.3,-2.95L-8.55,-3.15C-9.883,-5.417 -10.45,-7.333 -10.25,-8.9C-7.15,-11.733 -4.767,-13.3 -3.1,-13.6C-0.4,-12.333 2.883,-10.467 6.75,-8C7.583,-7.333 7.883,-6.617 7.65,-5.85L5.5,-2.05" style="fill:#280a02;"/>
                <path d="M5.5,-2.05L7.65,-5.85C7.883,-6.617 7.583,-7.333 6.75,-8C2.883,-10.467 -0.4,-12.333 -3.1,-13.6C-4.767,-13.3 -7.15,-11.733 -10.25,-8.9C-10.45,-7.333 -9.883,-5.417 -8.55,-3.15L-8.3,-2.95L-7.3,-3L-5.9,-5.1L-5.9,-6.35L-6.45,-5.65L-6.45,-5.55L-7.35,-4.8C-7.65,-5.233 -7.817,-5.7 -7.85,-6.2L-6.2,-8.05C-5.967,-7.617 -5.667,-7.467 -5.3,-7.6L-4.75,-6.35C-4.283,-5.517 -3.7,-4.967 -3,-4.7C-4.233,-4.1 -5.067,-3.267 -5.5,-2.2C-6.133,-2.4 -6.4,-2.1 -6.3,-1.3L-6.35,-1.1L-6.4,-1.15C-7.3,-0.883 -7.7,-0.267 -7.6,0.7L-12.7,-2.2C-12.933,-2.167 -13.083,-2.067 -13.15,-1.9L-13.2,-1.9L-13.2,-1.65C-12.967,1.35 -11.75,3.65 -9.55,5.25C-9.417,5.817 -9.433,6.6 -9.6,7.6L-9.65,7.6L-9.85,7.65L-10.1,7.8L-10.25,7.95L-10.45,8.65L-10.1,9.25L-9.4,9.45L-8.8,9.1C-8.633,8.9 -8.567,8.667 -8.6,8.4L-8.95,7.8L-9.35,7.6L-9.05,5.6L-7.95,6.2L-6.65,6.75L-6.2,6.85C-6.133,8.083 -6.117,9.533 -6.15,11.2L-6.2,11.2L-6.4,11.25L-6.75,11.45L-6.95,11.65C-7.15,11.95 -7.217,12.267 -7.15,12.6C-7.117,12.933 -6.967,13.2 -6.7,13.4L-5.9,13.65L-5.15,13.15C-4.95,12.883 -4.883,12.583 -4.95,12.25C-4.983,11.883 -5.117,11.6 -5.35,11.4C-5.517,11.3 -5.667,11.233 -5.8,11.2L-5.8,6.95L1.9,6.4L4.15,6.85L7.35,6.6L7.35,9.3L7.3,9.3L7.15,9.35C7.017,9.35 6.917,9.4 6.85,9.5L6.7,9.65C6.533,9.85 6.467,10.083 6.5,10.35L6.9,10.95L7.6,11.1L8.2,10.75L8.35,10.05L8,9.45L7.65,9.3C7.617,8.267 7.633,7.333 7.7,6.5L9.5,5.5C9.667,6.633 9.7,8.167 9.6,10.1L9.55,10.1L9.35,10.15L9,10.35L8.8,10.55C8.6,10.817 8.533,11.1 8.6,11.4C8.633,11.7 8.783,11.95 9.05,12.15L9.9,12.35L10.6,11.9C10.8,11.633 10.867,11.35 10.8,11.05L10.4,10.3L9.95,10.1C9.883,7.967 9.983,6.2 10.25,4.8L10.4,4.55L11.45,3.2C12.283,1.967 12.9,0.633 13.3,-0.8C13.3,-1.8 13.017,-2.483 12.45,-2.85C12.35,-2.917 11.567,-2.517 10.1,-1.65L6.35,-0.25L5.9,-0.9L5.4,-0.7L5.5,-0.95C6.133,-1.583 6.133,-1.95 5.5,-2.05Z" style="fill:none;fill-rule:nonzero;stroke:#280a02;stroke-width:1px;"/>
            </g>
            <g id="sprite0" transform="matrix(0.0321,0,0,0.032,16.0014,17.8097)">
                <g id="shape1">
                    <path d="M555.4,337.75L601.35,351.2C591.35,398.5 587.1,461.633 588.6,540.6C585.233,540.233 581.733,540.183 578.1,540.45L578.1,540.15C583.5,434.483 575.933,367.017 555.4,337.75" style="fill:#9d7451;"/>
                    <path d="M588.6,540.6C593.467,541.633 598.05,543.733 602.35,546.9C610.183,552.7 614.8,560.417 616.2,570.05C617.7,579.65 615.55,588.383 609.75,596.25C603.983,604.083 596.283,608.7 586.65,610.1C577.017,611.5 568.283,609.317 560.45,603.55C552.583,597.75 547.9,590.033 546.4,580.4C545,570.767 547.2,562.033 553,554.2C554.867,551.767 556.867,549.667 559,547.9C562.1,545.167 565.667,543.2 569.7,542C571.633,541.233 573.767,540.667 576.1,540.3L578.1,540.15L578.1,540.45C581.733,540.183 585.233,540.233 588.6,540.6" style="fill:#eac54d;"/>
                    <path d="M601.35,351.2C591.35,398.5 587.1,461.633 588.6,540.6C593.467,541.633 598.05,543.733 602.35,546.9C610.183,552.7 614.8,560.417 616.2,570.05C617.7,579.65 615.55,588.383 609.75,596.25C603.983,604.083 596.283,608.7 586.65,610.1C577.017,611.5 568.283,609.317 560.45,603.55C552.583,597.75 547.9,590.033 546.4,580.4C545,570.767 547.2,562.033 553,554.2C554.867,551.767 556.867,549.667 559,547.9C562.1,545.167 565.667,543.2 569.7,542C571.633,541.233 573.767,540.667 576.1,540.3L578.1,540.15C583.5,434.483 575.933,367.017 555.4,337.75M578.1,540.15L578.1,540.45" style="fill:none;fill-rule:nonzero;stroke:#000;stroke-opacity:0.3;stroke-width:0.05px;"/>
                    <path d="M-11.75,462.35C-7.85,463.317 -4.117,465.05 -0.55,467.55C5.817,472.417 9.467,478.867 10.4,486.9C11.5,494.767 9.667,501.867 4.9,508.2C0.067,514.567 -6.383,518.267 -14.45,519.3C-22.283,520.333 -29.383,518.417 -35.75,513.55C-42.083,508.683 -45.817,502.283 -46.95,494.35C-47.883,486.483 -45.917,479.333 -41.05,472.9C-39.55,471.033 -37.917,469.35 -36.15,467.85C-33.55,465.617 -30.6,464.067 -27.3,463.2C-25.733,462.567 -23.967,462.15 -22,461.95L-20.45,461.8L-20.45,462.25C-17.45,462.05 -14.55,462.083 -11.75,462.35" style="fill:#736325;"/>
                    <path d="M-20.45,462.1C-11.683,410.233 -15.1,377.017 -30.7,362.45L6.3,369.45C-3.767,392.617 -9.783,423.583 -11.75,462.35C-14.55,462.083 -17.45,462.05 -20.45,462.25L-20.45,462.1" style="fill:#4d3b2a;"/>
                    <path d="M-11.75,462.35C-7.85,463.317 -4.117,465.05 -0.55,467.55C5.817,472.417 9.467,478.867 10.4,486.9C11.5,494.767 9.667,501.867 4.9,508.2C0.067,514.567 -6.383,518.267 -14.45,519.3C-22.283,520.333 -29.383,518.417 -35.75,513.55C-42.083,508.683 -45.817,502.283 -46.95,494.35C-47.883,486.483 -45.917,479.333 -41.05,472.9C-39.55,471.033 -37.917,469.35 -36.15,467.85C-33.55,465.617 -30.6,464.067 -27.3,463.2C-25.733,462.567 -23.967,462.15 -22,461.95L-20.45,461.8L-20.45,462.1C-11.683,410.233 -15.1,377.017 -30.7,362.45M6.3,369.45C-3.767,392.617 -9.783,423.583 -11.75,462.35L6.3,369.45Z" style="fill:none;fill-rule:nonzero;stroke:#000;stroke-opacity:0.3;stroke-width:0.05px;"/>
                    <path d="M489.35,348.15L527.05,359.05C518.85,397.85 515.35,449.633 516.55,514.4C513.85,514.1 511,514.1 508,514.4L508,514.1C512.4,427.367 506.183,372.05 489.35,348.15" style="fill:#4d3b2a;"/>
                    <path d="M516.55,514.4C520.583,515.233 524.367,516.95 527.9,519.55C534.367,524.317 538.15,530.683 539.25,538.65C540.483,546.483 538.717,553.617 533.95,560.05C529.183,566.517 522.867,570.317 515,571.45C507.067,572.65 499.867,570.867 493.4,566.1C487.067,561.333 483.25,554.983 481.95,547.05C480.817,539.183 482.633,532.033 487.4,525.6C488.9,523.633 490.533,521.9 492.3,520.4C494.833,518.167 497.783,516.583 501.15,515.65C502.717,514.983 504.433,514.517 506.3,514.25L508,514.1L508,514.4C511,514.1 513.85,514.1 516.55,514.4" style="fill:#736325;"/>
                    <path d="M527.05,359.05C518.85,397.85 515.35,449.633 516.55,514.4C520.583,515.233 524.367,516.95 527.9,519.55C534.367,524.317 538.15,530.683 539.25,538.65C540.483,546.483 538.717,553.617 533.95,560.05C529.183,566.517 522.867,570.317 515,571.45C507.067,572.65 499.867,570.867 493.4,566.1C487.067,561.333 483.25,554.983 481.95,547.05C480.817,539.183 482.633,532.033 487.4,525.6C488.9,523.633 490.533,521.9 492.3,520.4C494.833,518.167 497.783,516.583 501.15,515.65C502.717,514.983 504.433,514.517 506.3,514.25L508,514.1C512.4,427.367 506.183,372.05 489.35,348.15M508,514.1L508,514.4" style="fill:none;fill-rule:nonzero;stroke:#000;stroke-opacity:0.3;stroke-width:0.05px;"/>
                    <path d="M409.05,238.65C419.517,235.45 429.933,231.983 440.3,228.25L459.1,221.1L594.2,171.9C639.433,144.9 663.633,132.433 666.8,134.5C684.467,145.6 693.117,166.767 692.75,198C680.883,243.3 661.817,285.433 635.55,324.4L615.25,323.85C595.517,351.15 572.25,373.15 545.45,389.85C493.75,425.017 427.117,429.517 345.55,403.35C334.817,399.883 323.883,395.95 312.75,391.55C295.917,384.717 278.583,376.817 260.75,367.85C369.983,388.417 434.033,374.683 452.9,326.65C494.133,332.183 506.667,315.7 490.5,277.2L504.1,252.35L409.05,238.65" style="fill:#96994d;"/>
                    <path d="M409.05,238.65L504.1,252.35L490.5,277.2C506.667,315.7 494.133,332.183 452.9,326.65C434.033,374.683 369.983,388.417 260.75,367.85C206.45,342.617 158.333,316.733 116.4,290.2C95.167,276.933 75.017,264.467 55.95,252.8C179.117,276.067 294.15,272.133 401.05,241L409.05,238.65" style="fill:#4b4c27;"/>
                    <path d="M635.55,324.4C661.817,285.433 680.883,243.3 692.75,198C693.117,166.767 684.467,145.6 666.8,134.5C663.633,132.433 639.433,144.9 594.2,171.9L459.1,221.1L440.3,228.25C429.933,231.983 419.517,235.45 409.05,238.65L401.05,241C294.15,272.133 179.117,276.067 55.95,252.8M-131.85,164.75L-131.15,163.5L-131,163.5L-131.15,163.65C-128.083,162.717 -124.683,162.567 -120.95,163.2" style="fill:none;fill-rule:nonzero;stroke:#000;stroke-opacity:0.3;stroke-width:0.05px;"/>
                    <path d="M440.3,228.4L442.15,230.35C491.283,219.983 527.067,220.633 549.5,232.3L620.15,208.05L635.7,221.65L562.8,242.1C564.567,243.867 566.15,245.783 567.55,247.85C574.85,284.383 560.367,315.55 524.1,341.35L559.7,353L545.15,368.55L497.2,357.45C460.567,376.25 410.017,391.583 345.55,403.45C334.817,399.983 323.883,396.05 312.75,391.65C486.45,366.05 563.917,321.383 545.15,257.65C527.317,232.05 488.717,226.55 429.35,241.15L401.05,241.15C414.217,237.317 427.3,233.067 440.3,228.4" style="fill:#eac54d;"/>
                    <path d="M49.9,73.6C44.567,85.367 36.567,91.767 25.9,92.8C6.667,65.033 -3.183,43.917 -3.65,29.45C8.383,-0.283 23.333,-19.25 41.2,-27.45L41.2,-45L57.15,-32.25L57.15,-65.05L81.3,-40.5C82.7,-36.033 84.233,-32.117 85.9,-28.75C84.233,-32.117 82.7,-36.033 81.3,-40.5C76.8,-66.933 78.667,-89.267 86.9,-107.5L96.3,-76.55C100.867,-53.283 106.467,-32.533 113.1,-14.3C101.8,-9.7 92.733,-14.517 85.9,-28.75C66.733,-15.85 49.683,3.55 34.75,29.45C35.317,45.417 40.367,60.133 49.9,73.6M130.6,24.55C176.967,8.183 225.15,11.167 275.15,33.5L240.65,55.1C215.417,84.333 197.017,115.583 185.45,148.85C198.717,170.45 215.533,184.1 235.9,189.8L174.2,189.8C155.333,215.967 148.383,238.667 153.35,257.9C94.65,249.6 71.283,224.617 83.25,182.95C79.683,157.983 87.817,148.733 107.65,155.2C121.55,121.9 147.383,95.817 185.15,76.95C194.95,72.083 205.55,67.7 216.95,63.8C205.55,67.7 194.95,72.083 185.15,76.95C163.65,68.083 145.467,50.617 130.6,24.55M450.35,160.1C414.483,178.4 376.917,185.35 337.65,180.95L283.15,172.15C344.45,169.817 404.017,159.017 461.85,139.75L450.35,160.1M20.85,131.5C49.75,111.133 68.583,83.75 77.35,49.35L78.6,47.65C84.233,40.85 89.567,33.233 94.6,24.8L94.6,63.8C82.833,90.5 68.533,112.65 51.7,130.25C43.767,138.75 33.483,139.167 20.85,131.5M196.65,180.95C176.55,182.083 157.3,175.4 138.9,160.9C157.3,175.4 176.55,182.083 196.65,180.95" style="fill:#4b4c27;"/>
                    <path d="M81.3,-40.5L57.15,-65.05L57.15,-32.25L41.2,-45L41.2,-27.45C23.333,-19.25 8.383,-0.283 -3.65,29.45C-3.183,43.917 6.667,65.033 25.9,92.8C36.567,91.767 44.567,85.367 49.9,73.6C59.7,67.333 68.85,59.25 77.35,49.35C68.583,83.75 49.75,111.133 20.85,131.5L13,125.9C-28.933,54.3 -46.867,-6.117 -40.8,-55.35C56.2,-143.583 130.717,-192.517 182.75,-202.15C266.683,-161.95 368.967,-103.217 489.6,-25.95C515.2,-5.75 524.4,16.55 517.2,40.95L461.85,139.75C404.017,159.017 344.45,169.817 283.15,172.15L337.65,180.95C376.917,185.35 414.483,178.4 450.35,160.1C469.617,163 469.617,174.433 450.35,194.4L431.3,233.25L153.35,257.9C148.383,238.667 155.333,215.967 174.2,189.8L235.9,189.8C215.533,184.1 198.717,170.45 185.45,148.85C197.017,115.583 215.417,84.333 240.65,55.1L275.15,33.5C225.15,11.167 176.967,8.183 130.6,24.55C124.167,13.217 118.333,0.267 113.1,-14.3C106.467,-32.533 100.867,-53.283 96.3,-76.55L86.9,-107.5C78.667,-89.267 76.8,-66.933 81.3,-40.5C79.8,-45.367 78.433,-50.883 77.2,-57.05C78.433,-50.883 79.8,-45.367 81.3,-40.5" style="fill:#949955;"/>
                    <path d="M49.9,73.6C40.367,60.133 35.317,45.417 34.75,29.45C49.683,3.55 66.733,-15.85 85.9,-28.75C84.233,-32.117 82.7,-36.033 81.3,-40.5C79.8,-45.367 78.433,-50.883 77.2,-57.05M113.1,-14.3C101.8,-9.7 92.733,-14.517 85.9,-28.75M96.3,-76.55C100.867,-53.283 106.467,-32.533 113.1,-14.3C118.333,0.267 124.167,13.217 130.6,24.55C145.467,50.617 163.65,68.083 185.15,76.95C147.383,95.817 121.55,121.9 107.65,155.2C87.817,148.733 79.683,157.983 83.25,182.95C71.283,224.617 94.65,249.6 153.35,257.9L431.3,233.25L450.35,194.4C469.617,174.433 469.617,163 450.35,160.1C414.483,178.4 376.917,185.35 337.65,180.95M461.85,139.75L517.2,40.95C524.4,16.55 515.2,-5.75 489.6,-25.95C368.967,-103.217 266.683,-161.95 182.75,-202.15C130.717,-192.517 56.2,-143.583 -40.8,-55.35C-46.867,-6.117 -28.933,54.3 13,125.9L20.85,131.5C33.483,139.167 43.767,138.75 51.7,130.25C68.533,112.65 82.833,90.5 94.6,63.8L94.6,24.8C89.567,33.233 84.233,40.85 78.6,47.65M77.35,49.35C68.85,59.25 59.7,67.333 49.9,73.6M450.35,160.1L461.85,139.75M216.95,63.8C205.55,67.7 194.95,72.083 185.15,76.95M138.9,160.9C157.3,175.4 176.55,182.083 196.65,180.95" style="fill:none;fill-rule:nonzero;stroke:#000;stroke-opacity:0.3;stroke-width:0.05px;"/>
                    <path d="M175.1,240.05C185.367,242.083 196.167,243.533 207.5,244.4C242.633,246.8 282.9,243.383 328.3,234.15C356.533,228.45 386.717,220.467 418.85,210.2C433.25,205.5 448.017,200.4 463.15,194.9C478.95,209.467 482.217,228.433 472.95,251.8C449.517,266.567 426.483,279.233 403.85,289.8C366.183,307.1 329.55,318.6 293.95,324.3C268.083,328.4 242.767,329.417 218,327.35L175.95,301.55L129.85,273.1C135.25,257.233 150.333,246.217 175.1,240.05M403.85,289.8C421.15,263.267 426.15,236.733 418.85,210.2C426.15,236.733 421.15,263.267 403.85,289.8M207.5,244.4C203.567,268.6 193.05,287.65 175.95,301.55C193.05,287.65 203.567,268.6 207.5,244.4M293.95,324.3C319.75,298.133 331.2,268.083 328.3,234.15C331.2,268.083 319.75,298.133 293.95,324.3" style="fill:#9c7453;"/>
                    <path d="M218,327.35C196.233,325.583 174.883,321.433 153.95,314.9C125.617,306.1 98,293.017 71.1,275.65C61.667,269.483 52.367,262.85 43.2,255.75C35.833,220.15 47.7,197.25 78.8,187.05C94.867,205.45 114.767,219.517 138.5,229.25C149.833,233.817 162.033,237.417 175.1,240.05C150.333,246.217 135.25,257.233 129.85,273.1L175.95,301.55L218,327.35M71.1,275.65C102.5,267.983 124.967,252.517 138.5,229.25C124.967,252.517 102.5,267.983 71.1,275.65M153.95,314.9C162.183,311.167 169.517,306.717 175.95,301.55C169.517,306.717 162.183,311.167 153.95,314.9" style="fill:#4d3b2a;"/>
                    <path d="M175.1,240.05C185.367,242.083 196.167,243.533 207.5,244.4C242.633,246.8 282.9,243.383 328.3,234.15C356.533,228.45 386.717,220.467 418.85,210.2C433.25,205.5 448.017,200.4 463.15,194.9C478.95,209.467 482.217,228.433 472.95,251.8C449.517,266.567 426.483,279.233 403.85,289.8C366.183,307.1 329.55,318.6 293.95,324.3C268.083,328.4 242.767,329.417 218,327.35C196.233,325.583 174.883,321.433 153.95,314.9C125.617,306.1 98,293.017 71.1,275.65C61.667,269.483 52.367,262.85 43.2,255.75C35.833,220.15 47.7,197.25 78.8,187.05C94.867,205.45 114.767,219.517 138.5,229.25C149.833,233.817 162.033,237.417 175.1,240.05M175.95,301.55C193.05,287.65 203.567,268.6 207.5,244.4M418.85,210.2C426.15,236.733 421.15,263.267 403.85,289.8M138.5,229.25C124.967,252.517 102.5,267.983 71.1,275.65M175.95,301.55C169.517,306.717 162.183,311.167 153.95,314.9M328.3,234.15C331.2,268.083 319.75,298.133 293.95,324.3" style="fill:none;fill-rule:nonzero;stroke:#000;stroke-opacity:0.3;stroke-width:0.05px;"/>
                    <path d="M442.85,266.9C443.317,273.167 442.95,278.867 441.75,284C442.95,278.867 443.317,273.167 442.85,266.9M449.85,319.5L459.65,295.65L441.75,310.5L441.75,284L410.5,271.55C395.167,262.85 378.717,258.833 361.15,259.5C354.783,246.233 353,232.533 355.8,218.4C370.467,219.9 384.533,224.25 398,231.45C407.067,236.317 415.85,242.483 424.35,249.95L445.8,224.3L463.75,250.1L495.4,250.1L471.6,283.75L488.4,319.5L449.85,319.5M431.9,256.95L424.35,249.95L431.9,256.95M398,231.45C406.033,243.683 410.2,257.05 410.5,271.55C410.2,257.05 406.033,243.683 398,231.45" style="fill:#9c7453;"/>
                    <path d="M417.05,303.65C414.917,299.25 411.933,295.7 408.1,293C409.767,285.533 410.567,278.383 410.5,271.55C410.567,278.383 409.767,285.533 408.1,293C411.933,295.7 414.917,299.25 417.05,303.65M410.5,271.55L441.75,284L441.75,310.5L459.65,295.65L449.85,319.5L421.15,357.05L411.2,317.4L384.4,317.4L396.3,287.95C391.833,286.817 386.75,286.35 381.05,286.55C372.183,277.75 365.55,268.733 361.15,259.5C378.717,258.833 395.167,262.85 410.5,271.55M441.75,284C439.883,291.967 435.95,298.517 429.95,303.65C435.95,298.517 439.883,291.967 441.75,284M408.1,293C404.833,290.667 400.9,288.983 396.3,287.95C400.9,288.983 404.833,290.667 408.1,293" style="fill:#4d3b2a;"/>
                    <path d="M410.5,271.55C410.567,278.383 409.767,285.533 408.1,293C411.933,295.7 414.917,299.25 417.05,303.65M441.75,284C442.95,278.867 443.317,273.167 442.85,266.9M449.85,319.5L488.4,319.5L471.6,283.75L495.4,250.1L463.75,250.1L445.8,224.3L424.35,249.95L431.9,256.95M449.85,319.5L421.15,357.05L411.2,317.4L384.4,317.4L396.3,287.95C391.833,286.817 386.75,286.35 381.05,286.55C372.183,277.75 365.55,268.733 361.15,259.5C354.783,246.233 353,232.533 355.8,218.4C370.467,219.9 384.533,224.25 398,231.45C407.067,236.317 415.85,242.483 424.35,249.95M410.5,271.55C410.2,257.05 406.033,243.683 398,231.45M396.3,287.95C400.9,288.983 404.833,290.667 408.1,293M429.95,303.65C435.95,298.517 439.883,291.967 441.75,284" style="fill:none;fill-rule:nonzero;stroke:#000;stroke-opacity:0.3;stroke-width:0.05px;"/>
                    <path d="M330,285.55C331.9,267.617 323.35,250.85 304.35,235.25C312.483,210.85 329.633,205.233 355.8,218.4C370.933,231.033 379.817,245.017 382.45,260.35C366.283,285.95 348.8,294.35 330,285.55" style="fill:#9c7453;"/>
                    <path d="M382.45,260.35C385.35,277.35 380.45,296.033 367.75,316.4C342.417,336.1 325.583,336.1 317.25,316.4C324.75,305.733 329,295.45 330,285.55C348.8,294.35 366.283,285.95 382.45,260.35" style="fill:#4d3b2a;"/>
                    <path d="M330,285.55C331.9,267.617 323.35,250.85 304.35,235.25C312.483,210.85 329.633,205.233 355.8,218.4C370.933,231.033 379.817,245.017 382.45,260.35C385.35,277.35 380.45,296.033 367.75,316.4C342.417,336.1 325.583,336.1 317.25,316.4C324.75,305.733 329,295.45 330,285.55Z" style="fill:none;fill-rule:nonzero;stroke:#000;stroke-opacity:0.3;stroke-width:0.05px;"/>
                    <path d="M185.9,366.4L146.65,352.95L172.15,327.95L163.3,281.15L202,297.35L222.15,271.65L226.55,285.9C231.85,277.767 240.65,269.433 252.95,260.9C269.75,249.033 285.783,240.217 301.05,234.45C311.583,245.817 316.7,260.55 316.4,278.65L268.4,301.6C267.3,288.167 262.15,274.6 252.95,260.9C262.15,274.6 267.3,288.167 268.4,301.6L236.1,317L263.2,332.2C260.6,334.667 258.067,337.317 255.6,340.15L218.75,317.1C214.483,325.1 208.183,326.433 199.85,321.1C198.95,342.167 194.3,357.267 185.9,366.4M226.55,285.9L236.1,317L226.55,285.9" style="fill:#9c7453;"/>
                    <path d="M316.4,278.65C316.3,287.583 315,298.15 312.5,310.35C304.367,311.083 297.75,315.017 292.65,322.15L263.2,332.2L275.55,339.25L243.55,358.7L240.75,384.35L226.4,374.9L194.75,404.15C187.35,379.817 184.4,367.233 185.9,366.4C194.3,357.267 198.95,342.167 199.85,321.1C208.183,326.433 214.483,325.1 218.75,317.1L255.6,340.15C258.067,337.317 260.6,334.667 263.2,332.2L236.1,317L268.4,301.6C269.167,310.833 267.433,321.033 263.2,332.2C267.433,321.033 269.167,310.833 268.4,301.6L316.4,278.65M213.15,363.3C214.25,355.133 213.633,347.45 211.3,340.25C209.033,333.417 205.217,327.033 199.85,321.1C205.217,327.033 209.033,333.417 211.3,340.25C219.467,336.05 221.95,328.333 218.75,317.1C221.95,328.333 219.467,336.05 211.3,340.25C213.633,347.45 214.25,355.133 213.15,363.3" style="fill:#4d3b2a;"/>
                    <path d="M185.9,366.4L146.65,352.95L172.15,327.95L163.3,281.15L202,297.35L222.15,271.65L226.55,285.9C231.85,277.767 240.65,269.433 252.95,260.9C269.75,249.033 285.783,240.217 301.05,234.45C311.583,245.817 316.7,260.55 316.4,278.65C316.3,287.583 315,298.15 312.5,310.35C304.367,311.083 297.75,315.017 292.65,322.15L263.2,332.2L275.55,339.25L243.55,358.7L240.75,384.35L226.4,374.9L194.75,404.15C187.35,379.817 184.4,367.233 185.9,366.4M255.6,340.15C258.067,337.317 260.6,334.667 263.2,332.2L236.1,317L226.55,285.9M199.85,321.1C205.217,327.033 209.033,333.417 211.3,340.25C219.467,336.05 221.95,328.333 218.75,317.1M211.3,340.25C213.633,347.45 214.25,355.133 213.15,363.3M268.4,301.6C269.167,310.833 267.433,321.033 263.2,332.2M252.95,260.9C262.15,274.6 267.3,288.167 268.4,301.6" style="fill:none;fill-rule:nonzero;stroke:#000;stroke-opacity:0.3;stroke-width:0.05px;"/>
                    <path d="M345.7,270.3C348.6,287.3 343.7,305.983 331,326.35C305.667,346.05 288.85,346.05 280.55,326.35C288.017,315.683 292.267,305.4 293.3,295.5C312.067,304.3 329.533,295.9 345.7,270.3" style="fill:#4d3b2a;"/>
                    <path d="M293.3,295.5C295.167,277.567 286.617,260.8 267.65,245.2C275.783,220.8 292.933,215.183 319.1,228.35C334.233,240.983 343.1,254.967 345.7,270.3C329.533,295.9 312.067,304.3 293.3,295.5" style="fill:#9c7453;"/>
                    <path d="M345.7,270.3C348.6,287.3 343.7,305.983 331,326.35C305.667,346.05 288.85,346.05 280.55,326.35C288.017,315.683 292.267,305.4 293.3,295.5C295.167,277.567 286.617,260.8 267.65,245.2C275.783,220.8 292.933,215.183 319.1,228.35C334.233,240.983 343.1,254.967 345.7,270.3Z" style="fill:none;fill-rule:nonzero;stroke:#000;stroke-opacity:0.3;stroke-width:0.05px;"/>
                    <path d="M615.2,323.9L635.55,324.45C625.817,338.85 615.117,352.817 603.45,366.35C558.683,423.083 493.5,447.2 407.9,438.7C386.4,436.533 363.367,431.617 338.8,423.95C272.333,403.417 194.483,362.967 105.25,302.6C63.683,272.7 27.517,247.55 -3.25,227.15C-42.217,206.15 -69.267,191.4 -84.4,182.9L-95.45,176.3C-106.383,169.567 -114.9,165.217 -121,163.25L-131.2,163.65L-131.1,163.55C-128.467,159.05 -123.467,156.433 -116.1,155.7C-74.7,175.767 -17.367,208.133 55.9,252.8C74.967,264.5 95.117,276.983 116.35,290.25C158.283,316.783 206.4,342.667 260.7,367.9C278.567,376.867 295.9,384.767 312.7,391.6C323.833,396 334.767,399.917 345.5,403.35C427.1,429.517 493.733,425.033 545.4,389.9C572.233,373.167 595.5,351.167 615.2,323.9" style="fill:#4c4b28;"/>
                    <path d="M338.8,423.95C230.667,449.183 141.467,452.783 71.2,434.75C57,429.617 43.533,423.967 30.8,417.8C22.133,404.8 13.683,391.25 5.45,377.15C-11.85,347.35 -27.317,317.783 -40.95,288.45C-61.983,239.85 -76.467,204.667 -84.4,182.9C-69.267,191.4 -42.217,206.15 -3.25,227.15C27.517,247.55 63.683,272.7 105.25,302.6C194.483,362.967 272.333,403.417 338.8,423.95" style="fill:#746426;"/>
                    <path d="M30.8,417.8C-69.267,368.833 -123.833,287.017 -132.9,172.35C-133.167,169.083 -132.833,166.567 -131.9,164.8L-131.2,163.55L-131.1,163.55L-131.2,163.65L-121,163.25C-114.9,165.217 -106.383,169.567 -95.45,176.3L-84.4,182.9C-76.467,204.667 -61.983,239.85 -40.95,288.45C-27.317,317.783 -11.85,347.35 5.45,377.15C13.683,391.25 22.133,404.8 30.8,417.8" style="fill:#e9c44c;"/>
                    <path d="M635.55,324.45C625.817,338.85 615.117,352.817 603.45,366.35C558.683,423.083 493.5,447.2 407.9,438.7C386.4,436.533 363.367,431.617 338.8,423.95C230.667,449.183 141.467,452.783 71.2,434.75C57,429.617 43.533,423.967 30.8,417.8C-69.267,368.833 -123.833,287.017 -132.9,172.35C-133.167,169.083 -132.833,166.567 -131.9,164.8M-131.1,163.55C-128.467,159.05 -123.467,156.433 -116.1,155.7C-74.7,175.767 -17.367,208.133 55.9,252.8C74.967,264.5 95.117,276.983 116.35,290.25C158.283,316.783 206.4,342.667 260.7,367.9C278.567,376.867 295.9,384.767 312.7,391.6C323.833,396 334.767,399.917 345.5,403.35C427.1,429.517 493.733,425.033 545.4,389.9C572.233,373.167 595.5,351.167 615.2,323.9C640.9,288 660.433,243 673.8,188.9M-84.4,182.9C-69.267,191.4 -42.217,206.15 -3.25,227.15C27.517,247.55 63.683,272.7 105.25,302.6C194.483,362.967 272.333,403.417 338.8,423.95M-121,163.25C-114.9,165.217 -106.383,169.567 -95.45,176.3L-84.4,182.9" style="fill:none;fill-rule:nonzero;stroke:#000;stroke-opacity:0.3;stroke-width:0.05px;"/>
                    <path d="M4.35,343.25C7.917,343.25 11.233,345.217 14.3,349.15L21.05,359.1L22.85,362L16.7,340.6C15.567,337.767 15.333,335.8 16,334.7C21.333,339.733 25.717,346.55 29.15,355.15L33.65,339.75C33.75,339.283 33.983,339.05 34.35,339.05C34.817,338.85 35.433,339.133 36.2,339.9C37.3,341.767 37.8,344 37.7,346.6C37.8,351.267 37.1,356.633 35.6,362.7L41.8,362.15C46.367,361.883 49.767,362.683 52,364.55C50.6,367.817 47.8,370.2 43.6,371.7C41.267,372.533 38.333,373.183 34.8,373.65L35.6,376.45C38.4,378.883 40.267,380.75 41.2,382.05L45.15,388.1C46.083,390.333 46.45,391.783 46.25,392.45C46.083,393.483 45.3,394.033 43.9,394.1L42.05,394C42.917,396.9 43.25,399.317 43.05,401.25C42.85,402.483 42.383,403.183 41.65,403.35C40.417,403.75 38.967,402.633 37.3,400C34.5,395.433 31.983,390.067 29.75,383.9L29.45,384.15C28.417,388.75 27.483,391.7 26.65,393C25.417,394.667 24.15,395.367 22.85,395.1C20.817,394.733 19.567,393.383 19.1,391.05C18.8,390.017 18.933,388.467 19.5,386.4L22.85,375.2L5.6,377.15L5.5,377.15C3.233,377.45 1.6,377.083 0.6,376.05C-0.433,374.75 -0.583,373.533 0.15,372.4C0.517,371.933 1.083,371.517 1.85,371.15L2.95,370.55C7.35,368.883 11.833,367.45 16.4,366.25C14.367,363.15 12.45,359.833 10.65,356.3C9.183,353.3 7.783,351.283 6.45,350.25C4.95,349.217 3.833,348.383 3.1,347.75C1.9,346.783 1.3,345.883 1.3,345.05C1.3,343.55 2.317,342.95 4.35,343.25M154.5,376.3L151.1,373.8C149.9,372.867 149.3,371.983 149.3,371.15C149.3,369.65 150.333,369.033 152.4,369.3C155.933,369.3 159.25,371.267 162.35,375.2L169.05,385.15L170.9,388.1L164.7,366.65C163.6,363.85 163.367,361.883 164,360.75C169.333,365.817 173.733,372.633 177.2,381.2L181.65,365.8C181.75,365.333 181.983,365.1 182.35,365.1C182.817,364.933 183.433,365.217 184.2,365.95C185.333,367.817 185.85,370.05 185.75,372.65C185.85,377.35 185.15,382.733 183.65,388.8L189.8,388.25C194.367,387.95 197.783,388.733 200.05,390.6C198.65,393.867 195.833,396.25 191.6,397.75C189.267,398.617 186.333,399.283 182.8,399.75L183.65,402.55C186.45,404.95 188.317,406.817 189.25,408.15L193.15,414.15C194.083,416.417 194.467,417.867 194.3,418.5C194.1,419.533 193.3,420.1 191.9,420.2L190.1,420.05C190.933,422.95 191.25,425.383 191.05,427.35C190.883,428.55 190.417,429.25 189.65,429.45C188.45,429.817 187,428.7 185.3,426.1C182.5,421.5 179.983,416.117 177.75,409.95L177.45,410.25C176.417,414.817 175.483,417.75 174.65,419.05C173.45,420.75 172.2,421.45 170.9,421.15C168.833,420.783 167.567,419.433 167.1,417.1C166.8,416.067 166.933,414.533 167.5,412.5L170.9,401.25L153.65,403.25C151.317,403.517 149.633,403.133 148.6,402.1C147.567,400.8 147.417,399.583 148.15,398.45C148.617,397.817 149.55,397.217 150.95,396.65C155.35,394.95 159.85,393.5 164.45,392.3C162.383,389.2 160.467,385.883 158.7,382.35C157.2,379.35 155.8,377.333 154.5,376.3M-75.4,235.15L-78.75,232.65C-79.983,231.717 -80.6,230.833 -80.6,230C-80.6,228.5 -79.567,227.883 -77.5,228.15C-73.933,228.15 -70.617,230.117 -67.55,234.05C-66.983,234.717 -64.733,238.033 -60.8,244L-59.7,245.95L-59,246.95C-62.633,234.05 -64.733,226.9 -65.3,225.5C-66.333,222.7 -66.517,220.733 -65.85,219.6C-60.517,224.667 -56.133,231.5 -52.7,240.1L-48.2,224.65C-48.1,224.183 -47.867,223.95 -47.5,223.95C-47.133,223.783 -46.533,224.117 -45.7,224.95C-44.567,226.717 -44.05,228.917 -44.15,231.55C-44.05,236.217 -44.75,241.583 -46.25,247.65L-40.05,247.1C-35.483,246.8 -32.083,247.583 -29.85,249.45C-31.25,252.717 -34.05,255.1 -38.25,256.6C-40.583,257.467 -43.533,258.133 -47.1,258.6L-46.25,261.4C-43.45,263.833 -41.583,265.7 -40.65,267L-36.7,273C-35.767,275.267 -35.4,276.717 -35.6,277.35C-35.767,278.383 -36.55,279 -37.95,279.2L-39.8,278.9C-38.967,281.8 -38.633,284.233 -38.8,286.2C-39,287.5 -39.467,288.2 -40.2,288.3L-40.9,288.45C-41.933,288.25 -43.15,287.083 -44.55,284.95C-47.35,280.45 -49.917,275.067 -52.25,268.8L-52.4,269.25C-53.433,273.717 -54.367,276.6 -55.2,277.9C-56.433,279.6 -57.7,280.3 -59,280C-61.067,279.633 -62.333,278.283 -62.8,275.95C-63.067,274.917 -62.917,273.383 -62.35,271.35L-59,260.1L-76.25,262.1C-78.583,262.367 -80.267,261.983 -81.3,260.95C-82.3,259.65 -82.433,258.433 -81.7,257.3C-81.233,256.667 -80.3,256.067 -78.9,255.5C-74.6,253.8 -70.167,252.35 -65.6,251.15C-67.567,248.05 -69.433,244.733 -71.2,241.2C-72.7,238.2 -74.1,236.183 -75.4,235.15" style="fill-opacity:0.3;"/>
                    <path d="M59.95,295.4L106.25,313.8C97.283,378.867 94.45,465.667 97.75,574.2C94.383,573.633 90.883,573.55 87.25,573.95L87.25,573.75C90.283,428.317 81.183,335.533 59.95,295.4" style="fill:#9d7451;"/>
                    <path d="M97.75,574.2C102.617,575.333 107.2,577.633 111.5,581.1C119.333,587.433 123.967,595.867 125.4,606.4C126.867,616.933 124.717,626.483 118.95,635.05C113.15,643.65 105.433,648.717 95.8,650.25C86.167,651.783 77.433,649.367 69.6,643C61.733,636.667 57.05,628.25 55.55,617.75C54.15,607.217 56.35,597.65 62.15,589.05C64.017,586.417 66.033,584.133 68.2,582.2C71.267,579.233 74.817,577.083 78.85,575.75C80.817,574.95 82.967,574.35 85.3,573.95L87.25,573.75L87.25,573.95C90.883,573.55 94.383,573.633 97.75,574.2" style="fill:#eac54d;"/>
                    <path d="M106.25,313.8C97.283,378.867 94.45,465.667 97.75,574.2C102.617,575.333 107.2,577.633 111.5,581.1C119.333,587.433 123.967,595.867 125.4,606.4C126.867,616.933 124.717,626.483 118.95,635.05C113.15,643.65 105.433,648.717 95.8,650.25C86.167,651.783 77.433,649.367 69.6,643C61.733,636.667 57.05,628.25 55.55,617.75C54.15,607.217 56.35,597.65 62.15,589.05C64.017,586.417 66.033,584.133 68.2,582.2C71.267,579.233 74.817,577.083 78.85,575.75C80.817,574.95 82.967,574.35 85.3,573.95L87.25,573.75C90.283,428.317 81.183,335.533 59.95,295.4M87.25,573.75L87.25,573.95" style="fill:none;fill-rule:nonzero;stroke:#000;stroke-opacity:0.3;stroke-width:0.05px;"/>
                </g>
            </g>
        </g>
    </g>
</svg>
