<?xml version="1.0" encoding="UTF-8" standalone="no"?>
<!DOCTYPE svg PUBLIC "-//W3C//DTD SVG 1.1//EN" "http://www.w3.org/Graphics/SVG/1.1/DTD/svg11.dtd">
<svg width="100%" height="100%" viewBox="0 0 31 19" version="1.1" xmlns="http://www.w3.org/2000/svg" xmlns:xlink="http://www.w3.org/1999/xlink" xml:space="preserve" xmlns:serif="http://www.serif.com/" style="fill-rule:evenodd;clip-rule:evenodd;stroke-linecap:round;stroke-linejoin:round;">
    <g transform="matrix(1,0,0,1,-9.9,-15.7461)">
        <g transform="matrix(1,0,0,1,25,25)">
            <g id="sprite0">
                <g id="shape0">
                    <path d="M-1.25,-8.35L-0.8,-8.15C0.467,-7.683 1.567,-6.917 2.5,-5.85L2.7,-5.65L3.05,-5.75L3.1,-5.7L3.55,-5.7L3.7,-5.65L3.75,-5.65L4.15,-5.55L5,-5.1L7.35,-4.9C9.383,-4.6 10.8,-4.05 11.6,-3.25L11.7,-1.7L11.7,-1.65L10.35,-1.1L14.65,-0.15L14.75,1.45L14.7,1.45L9.15,2.05L8.15,2.9C7.017,3.667 5.617,4.317 3.95,4.85L4,5.8L3.1,6.05L2.1,6.25L1.55,6.35L0.1,6.65C-0.2,7.683 -0.717,8.383 -1.45,8.75L-1.5,8.75L-1.85,8.25L-1.85,8.85L-2.5,8.95L-3.6,8.75L-3.95,5.9L-5.45,5.75L-5.55,5.75L-5.75,5.7L-5.85,5.7L-4.85,7.9C-5.483,8.8 -6.117,9.233 -6.75,9.2L-6.85,9.2L-6.9,8.65L-7.1,9.15L-7.15,9.15L-7.4,9.05C-7.8,8.85 -8.217,8.533 -8.65,8.1L-8.7,7.75L-8.6,7.65L-8.7,6.85L-8.75,6.9L-10.55,7.6L-10.6,7.6L-11.45,7.35L-12.2,7.05L-12.2,7L-12.3,5.5L-12.3,5.45L-9.45,3.55L-9.45,2.95L-14.15,1.95L-14.2,0.75L-9.05,0.15L-8.05,-0.75L-7.6,-1.1L-7.35,-1.25C-7.05,-1.917 -6.567,-2.483 -5.9,-2.95L-5.2,-3.2L-5.4,-3.4C-5.667,-3.667 -5.967,-3.867 -6.3,-4L-7.65,-4.2L-7.65,-4.15L-7,-3.75L-6.85,-3.5C-6.85,-3.367 -6.967,-3.2 -7.2,-3L-8.95,-2.6L-14.15,-1.05C-14.283,-0.95 -14.433,-0.883 -14.6,-0.85L-14.55,-0.9C-13.217,-2.367 -11.667,-3.267 -9.9,-3.6C-9.633,-3.767 -9.517,-3.917 -9.55,-4.05L-9.85,-4.35L-11.5,-5.25C-12.267,-5.65 -12.55,-6 -12.35,-6.3C-12.283,-6.5 -12.033,-6.667 -11.6,-6.8L-9.25,-7.75C-6.217,-8.817 -3.583,-9.033 -1.35,-8.4L-1.25,-8.35" style="fill:#280a02;"/>
                    <path d="M-1.25,-8.35L-0.8,-8.15C0.467,-7.683 1.567,-6.917 2.5,-5.85L2.7,-5.65L3.05,-5.75L3.1,-5.7L3.55,-5.7L3.7,-5.65L3.75,-5.65L4.15,-5.55L5,-5.1L7.35,-4.9C9.383,-4.6 10.8,-4.05 11.6,-3.25L11.7,-1.7L11.7,-1.65L10.35,-1.1L14.65,-0.15L14.75,1.45L14.7,1.45L9.15,2.05L8.15,2.9C7.017,3.667 5.617,4.317 3.95,4.85L4,5.8L3.1,6.05L2.1,6.25L1.55,6.35L0.1,6.65C-0.2,7.683 -0.717,8.383 -1.45,8.75L-1.5,8.75L-1.85,8.25L-1.85,8.85L-2.5,8.95L-3.6,8.75L-3.95,5.9L-5.45,5.75L-5.55,5.75L-5.75,5.7L-5.85,5.7L-4.85,7.9C-5.483,8.8 -6.117,9.233 -6.75,9.2L-6.85,9.2L-6.9,8.65L-7.1,9.15L-7.15,9.15L-7.4,9.05C-7.8,8.85 -8.217,8.533 -8.65,8.1L-8.7,7.75L-8.6,7.65L-8.7,6.85L-8.75,6.9L-10.55,7.6L-10.6,7.6L-11.45,7.35L-12.2,7.05L-12.2,7L-12.3,5.5L-12.3,5.45L-9.45,3.55L-9.45,2.95L-14.15,1.95L-14.2,0.75L-9.05,0.15L-8.05,-0.75L-7.6,-1.1L-7.35,-1.25C-7.05,-1.917 -6.567,-2.483 -5.9,-2.95L-5.2,-3.2L-5.4,-3.4C-5.667,-3.667 -5.967,-3.867 -6.3,-4L-7.65,-4.2L-7.65,-4.15L-7,-3.75L-6.85,-3.5C-6.85,-3.367 -6.967,-3.2 -7.2,-3L-8.95,-2.6L-14.15,-1.05C-14.283,-0.95 -14.433,-0.883 -14.6,-0.85L-14.55,-0.9C-13.217,-2.367 -11.667,-3.267 -9.9,-3.6C-9.633,-3.767 -9.517,-3.917 -9.55,-4.05L-9.85,-4.35L-11.5,-5.25C-12.267,-5.65 -12.55,-6 -12.35,-6.3C-12.283,-6.5 -12.033,-6.667 -11.6,-6.8L-9.25,-7.75C-6.217,-8.817 -3.583,-9.033 -1.35,-8.4L-1.25,-8.35Z" style="fill:none;fill-rule:nonzero;stroke:#280a02;stroke-width:1px;"/>
                </g>
                <g id="sprite1" transform="matrix(0.0321,0,0,0.032,-6.94727,-9.25)">
                    <g transform="matrix(0.9982,-0.0605,0.0605,0.9982,225.104,322.816)">
                        <g id="sprite2">
                            <g id="chapeau">
                                <g id="shape1">
                                    <path d="M159.1,-183.7C184.4,-181.4 209.017,-177.633 232.95,-172.4C295.317,-159.133 337.683,-139.317 360.05,-112.95L360.05,-63.65L317.1,-48.2L449.65,-10.75L449.65,38.55L274.35,47.95C265.283,55.65 254.367,63.517 241.6,71.55C204.767,94.083 159.967,111.817 107.2,124.75L107.2,154.6C87.633,158.8 67.367,162.467 46.4,165.6C22.9,169.133 -0.017,171.783 -22.35,173.55L-73.85,176.1L-84.1,176.1L-84.1,146.5L-111.3,145.45L-120.25,144.8C-143.05,143.033 -164.967,140 -186,135.7L-187.75,135.35L-188.4,135.2L-189.95,134.95L-201.5,131.8L-349.25,183.7C-367.783,177.567 -384.3,170.833 -398.8,163.5L-398.8,114.25L-305.25,59.5C-306.483,53.367 -306.65,47.25 -305.75,41.15L-449.65,1.05L-449.65,-35.75L-286.65,-45.3C-276.15,-57.367 -260.95,-69.517 -241.05,-81.75C-225.517,-91.35 -208.483,-100 -189.95,-107.7C-156.05,-122.2 -117.35,-133.633 -73.85,-142C-61.983,-144.267 -49.683,-146.367 -36.95,-148.3C20.35,-156.867 73.633,-159.05 122.9,-154.85L159.1,-183.7" style="fill:#5e4047;"/>
                                </g>
                            </g>
                        </g>
                    </g>
                    <g id="shape2">
                        <path d="M673.3,284.95L676.25,334.15L501.85,354.1L498.6,304.95L673.3,284.95M339.65,440.9L341.45,470.7C322.15,476.067 302.133,480.95 281.4,485.35C258.2,490.283 235.5,494.317 213.3,497.45L216.75,496.9C213.517,489.567 210.233,481.717 206.9,473.35C204.1,464.917 201.833,457.017 200.1,449.65C186.2,451.483 172.517,452.917 159.05,453.95L148.8,454.6L176.85,422.9L157.25,424.35C116.583,426.65 78.25,425.217 42.25,420.05L40.65,419.9L29,417.45L-30.95,442.65C-30.95,459.783 -30.717,476.5 -30.25,492.8L-112.4,527.3L-115.4,478.15L-30.95,442.65L-30.6,404.8C-32.267,388.633 -30.75,374.7 -26.05,363C-18.917,353.833 -8.017,345.917 6.65,339.25C6.917,337.817 7.35,336.383 7.95,334.95C14.617,303.217 32.633,276.75 62,255.55C97.167,241.55 122.167,238.55 137,246.55C207.867,226.15 265.583,203.933 310.15,179.9C308.883,184.667 333.533,190.083 384.1,196.15C454.333,202.917 479.6,227.017 459.9,268.45C419.167,320.817 365.383,358.733 298.55,382.2C231.717,405.667 197.6,417.45 196.2,417.55C196,426.883 197.3,437.583 200.1,449.65C225.533,446.383 251.65,441.9 278.45,436.2C299.183,431.8 319.183,426.9 338.45,421.5L339.65,440.9M-77.6,382.45L-223.65,351.1L-225.9,313.85L-80.9,333.25C-81.167,337.117 -81.017,341.05 -80.45,345.05C-80.383,345.917 -80.133,346.867 -79.7,347.9L-77.6,382.45" style="fill-opacity:0.3;"/>
                        <path d="M501.85,354.1C493.283,362.333 482.85,370.867 470.55,379.7C435.15,404.367 391.517,424.767 339.65,440.9L338.45,421.5L310.6,399.05C374.133,382.083 426.467,359.233 467.6,330.5C479.867,321.7 490.2,313.183 498.6,304.95L501.85,354.1M213.3,497.45C195.9,499.883 178.817,501.767 162.05,503.1L151.8,503.75L150,474.2L148.8,454.6L159.05,453.95C172.517,452.917 186.2,451.483 200.1,449.65C201.833,457.017 204.1,464.917 206.9,473.35C210.233,481.717 213.517,489.567 216.75,496.9L213.3,497.45M113.85,474.65C90.983,474.283 68.917,472.583 47.65,469.55C45.717,455.317 44.867,441.217 45.1,427.25C50.2,428.183 55.433,428.133 60.8,427.1C72.533,441.4 88.1,445.6 107.5,439.7L108.35,444.15C108.883,447.617 109.683,451.067 110.75,454.5L111.15,456.85L113.85,474.65M31.95,466.6L-22.4,489.6L-30.25,492.8C-30.717,476.5 -30.95,459.783 -30.95,442.65L29,417.45L31.95,466.6M-112.4,527.3C-131.267,522.333 -148.15,516.617 -163.05,510.15L-166.05,461C-151.15,467.467 -134.267,473.183 -115.4,478.15L-112.4,527.3M577.65,188.3L580.65,237.55L538.7,255.55L527.8,253.05C528.333,245.117 527.15,237.317 524.25,229.65C522.15,224.35 519.383,219.35 515.95,214.65L577.65,188.3" style="fill-opacity:0.4;"/>
                        <path d="M150,474.2C140.833,474.567 131.767,474.75 122.8,474.75L113.85,474.65L111.15,456.85L110.75,454.5C109.683,451.067 108.883,447.617 108.35,444.15L107.5,439.7C88.1,445.6 72.533,441.4 60.8,427.1C55.433,428.133 50.2,428.183 45.1,427.25C44.867,441.217 45.717,455.317 47.65,469.55L45.85,469.3L45.2,469.2L43.65,469.05L31.95,466.6L29,417.45L40.65,419.9L42.25,420.05C78.25,425.217 116.583,426.65 157.25,424.35L176.85,422.9L148.8,454.6L150,474.2" style="fill-opacity:0.5;"/>
                        <path d="M-76,400.7C-77.6,394.633 -78.133,388.55 -77.6,382.45L-79.7,347.9C-79.2,350.667 -78.433,353.5 -77.4,356.4C-73.033,367.533 -65.333,377.4 -54.3,386L-76,400.7" style="fill:#342527;"/>
                        <path d="M673.3,284.95L676.25,334.15L501.85,354.1C493.283,362.333 482.85,370.867 470.55,379.7C435.15,404.367 391.517,424.767 339.65,440.9L341.45,470.7C322.15,476.067 302.133,480.95 281.4,485.35C258.2,490.283 235.5,494.317 213.3,497.45C195.9,499.883 178.817,501.767 162.05,503.1L151.8,503.75L150,474.2C140.833,474.567 131.767,474.75 122.8,474.75L113.85,474.75L113.85,474.65C90.983,474.283 68.917,472.583 47.65,469.55L47.65,469.6L45.85,469.3L45.2,469.2L43.65,469.05L31.95,466.6L-22.4,489.6L-30.25,493L-30.25,492.8L-112.4,527.3C-131.267,522.333 -148.15,516.617 -163.05,510.15L-166.05,461L-76,400.7C-77.6,394.633 -78.133,388.55 -77.6,382.45L-223.65,351.1L-225.9,313.85L-63.75,295C-54.017,282.3 -39.583,269.233 -20.45,255.8C-5.55,245.3 10.917,235.65 28.95,226.85C61.917,210.317 99.867,196.55 142.8,185.55C154.5,182.583 166.633,179.75 179.2,177.05C235.9,165.05 288.967,159.65 338.4,160.85L372.8,129.85C398.2,130.617 423,132.883 447.2,136.65C510.233,146.15 553.717,163.367 577.65,188.3L580.65,237.55L538.7,255.55L673.3,284.95M527.8,253.05L538.7,255.55M216.75,496.9L213.3,497.45M47.65,469.55L45.85,469.3M148.8,454.6L150,474.2M122.8,474.75L113.85,474.65M338.45,421.5L339.65,440.9M-22.4,489.6L-30.25,492.8M-76,400.7L-54.3,386" style="fill:none;fill-rule:nonzero;stroke:#000;stroke-opacity:0.3;stroke-width:0.05px;"/>
                    </g>
                    <g transform="matrix(0.9982,-0.0605,0.0605,0.9982,210.855,235.339)">
                        <g id="sprite4">
                            <g id="chapeau4">
                                <g id="shape3">
                                    <path d="M87.8,-115.7L108.25,-120.15L108.75,-119.85L123.8,-116.9L127.9,-115.95C164.567,-106.683 176.7,-93.4 164.3,-76.1C158.9,-64.4 153.05,-53.667 146.75,-43.9L198.4,7.2C205.533,14.9 203.167,23.633 191.3,33.4C120.9,91.933 41.25,120.85 -47.65,120.15C-89.583,119.117 -127.15,110.65 -160.35,94.75C-193.55,78.85 -207.083,67.05 -200.95,59.35L-174.5,41.55C-188.3,13.95 -191.883,-9.017 -185.25,-27.35C-177.017,-37.85 -160.067,-44.417 -134.4,-47.05C-41.1,-65.783 32.667,-88.517 86.9,-115.25L87.8,-115.7" style="fill:#8f81b8;"/>
                                </g>
                            </g>
                        </g>
                    </g>
                    <g id="shape4">
                        <path d="M338.05,137.75L339.3,157.9C300.8,224.267 245.817,261.267 174.35,268.9C138.517,272.833 105.117,273.117 74.15,269.75C57.417,262.917 53.933,254.55 63.7,244.65C66.067,246.45 69.133,248.1 72.9,249.6C103.9,252.967 137.317,252.7 173.15,248.8C244.617,241.133 299.583,204.117 338.05,137.75" style="fill:#fff;fill-opacity:0.24;"/>
                        <path d="M354.7,182.65L409.35,230.55C416.95,237.817 415.1,246.667 403.8,257.1C337.1,319.8 259.35,353.483 170.55,358.15C128.65,359.65 90.65,353.483 56.55,339.65C22.45,325.783 8.233,314.817 13.9,306.75L39.2,287.4L53.75,276.2L173.4,292.35C199.833,292.85 225.7,285.25 251,269.55L305.7,235.75C325.067,223.417 341.4,205.717 354.7,182.65" style="fill-opacity:0.3;"/>
                        <path d="M73.85,196.5C165.85,172.167 238.117,145.017 290.65,115.05L291.5,114.55L311.65,108.9C311.817,108.867 311.983,108.95 312.15,109.15C310.717,109.717 310.417,110.95 311.25,112.85L311.4,113.1C313.433,117.867 322.317,126.083 338.05,137.75C299.583,204.117 244.617,241.133 173.15,248.8C137.317,252.7 103.9,252.967 72.9,249.6C69.133,248.1 66.067,246.45 63.7,244.65C54.367,238.217 54.867,230.65 65.2,221.95C77.9,209.65 80.783,201.167 73.85,196.5" style="fill-opacity:0.4;"/>
                        <path d="M312.15,109.15L327.4,111.2L331.55,111.9C368.717,118.9 381.617,131.417 370.25,149.45C365.583,161.483 360.4,172.55 354.7,182.65L409.35,230.55C416.95,237.817 415.1,246.667 403.8,257.1C337.1,319.8 259.35,353.483 170.55,358.15C128.65,359.65 90.65,353.483 56.55,339.65C22.45,325.783 8.233,314.817 13.9,306.75L39.2,287.4C23.767,260.667 18.8,237.95 24.3,219.25C31.9,208.283 48.417,200.7 73.85,196.5C165.85,172.167 238.117,145.017 290.65,115.05L291.5,114.55L311.65,108.9C311.817,108.867 311.983,108.95 312.15,109.15M63.7,244.65C54.367,238.217 54.867,230.65 65.2,221.95M338.05,137.75C299.583,204.117 244.617,241.133 173.15,248.8C137.317,252.7 103.9,252.967 72.9,249.6C69.133,248.1 66.067,246.45 63.7,244.65M53.75,276.2L39.2,287.4M251,269.55C225.7,285.25 199.833,292.85 173.4,292.35M354.7,182.65C341.4,205.717 325.067,223.417 305.7,235.75" style="fill:none;fill-rule:nonzero;stroke:#000;stroke-opacity:0.3;stroke-width:0.05px;"/>
                    </g>
                    <g transform="matrix(0.9982,-0.0605,0.0605,0.9982,-252.25,34.7)">
                        <g id="chapeau2">
                            <g id="sprite7">
                                <g id="shape5">
                                    <path d="M541.6,103.45C552.967,118.117 563.55,134.45 573.35,152.45C531.917,207.317 478.017,236.317 411.65,239.45C377.583,241.017 345.967,239.533 316.8,235C313.667,204.433 305.2,181.117 291.4,165.05C283.533,155.95 274.1,149.133 263.1,144.6C231.8,132 218.517,129.983 223.25,138.55L242.4,151.65C249.367,158.283 246.833,165.883 234.8,174.45L180,183.65C120.1,194.65 64.9,207.833 14.4,223.2L0,227.4C44.533,183.733 94.85,157.967 150.95,150.1C166.817,141.9 168.2,134.217 155.1,127.05L105.05,95.85C69.783,74.017 69.883,57.683 105.35,46.85C131.183,36.883 156.067,28.5 180,21.7C276.967,-5.733 358.983,-7.133 426.05,17.5C432.183,19.767 438.133,22.217 443.9,24.85C481.633,42.15 514.2,68.35 541.6,103.45" style="fill:#5e4047;"/>
                                </g>
                            </g>
                        </g>
                    </g>
                    <g id="shape6">
                        <path d="M-224.4,256.65C-171.2,219.083 -120.45,194.2 -72.15,182L-63.15,179.9L-50.4,177.3C-33.367,175.233 -32.217,166.583 -46.95,151.35C-52.117,147.283 -53.45,142.65 -50.95,137.45C-43.917,132.617 -36.333,129.35 -28.2,127.65C-1.3,121.283 24.3,139.35 48.6,181.85C40.2,173.217 30.367,166.967 19.1,163.1C-12.9,152.433 -26.283,151.233 -21.05,159.5L-1.15,171.4C6.217,177.6 4.15,185.333 -7.35,194.6L-61.5,207.1C-120.6,221.7 -174.9,238.217 -224.4,256.65" style="fill-opacity:0.3;"/>
                        <path d="M48.6,181.85C63.367,197.05 73.217,219.8 78.15,250.1C107.55,252.867 139.217,252.433 173.15,248.8C239.183,241.667 291.217,209.467 329.25,152.2C318.383,134.8 306.833,119.133 294.6,105.2C265.133,71.833 231.05,47.65 192.35,32.65C186.417,30.383 180.317,28.3 174.05,26.4C105.617,5.833 23.833,12.183 -71.3,45.45C-94.767,53.717 -119.083,63.6 -144.25,75.1C-179.017,88.033 -178.133,104.333 -141.6,124L-89.75,152.1C-76.217,158.5 -77.15,166.267 -92.55,175.4C-148.05,186.633 -196.7,215.383 -238.5,261.65L-224.4,256.65C-174.9,238.217 -120.6,221.7 -61.5,207.1L-7.35,194.6C4.15,185.333 6.217,177.6 -1.15,171.4L-21.05,159.5C-26.283,151.233 -12.9,152.433 19.1,163.1C30.367,166.967 40.2,173.217 48.6,181.85Z" style="fill:none;fill-rule:nonzero;stroke:#000;stroke-opacity:0.3;stroke-width:0.05px;"/>
                        <path d="M327.65,159.45L327.65,159.55C327.617,160.217 327.4,160.833 327,161.4C316.933,175.333 306.133,187.717 294.6,198.55L294.65,198.55C294.017,199.15 293.267,199.467 292.4,199.5C291.533,199.533 290.767,199.3 290.1,198.8L290,198.75C289.333,198.183 288.933,197.483 288.8,196.65L288.8,196.7C282.5,165.933 267.183,136.167 242.85,107.4C239.183,125.4 238.683,146.083 241.35,169.45L241.35,169.5C241.417,170.333 241.217,171.1 240.75,171.8C240.283,172.467 239.667,172.933 238.9,173.2L238.85,173.2L236.55,173.1C236.55,173.667 236.417,174.217 236.15,174.75L236.1,174.8C235.667,175.533 235.067,176.05 234.3,176.35L234.25,176.35C233.45,176.65 232.65,176.65 231.85,176.35C206.783,167.117 182.95,161.183 160.35,158.55C183.283,190.817 210.367,213.783 241.6,227.45L241.65,227.45C242.483,227.85 243.083,228.483 243.45,229.35C243.817,230.217 243.817,231.083 243.45,231.95C243.117,232.817 242.517,233.45 241.65,233.85L241.7,233.85C222.133,242.85 201.05,248.75 178.45,251.55L178.4,251.55L176.85,251.4L176.8,251.35C176.333,251.15 175.917,250.883 175.55,250.55L175.5,250.5C162.533,237.7 148.667,221.367 133.9,201.5L133.85,201.45L133.5,200.75C124.067,178.25 116.367,155.65 110.4,132.95L110.4,132.9L110.35,132.85C107.083,120.917 106.4,112.683 108.3,108.15L108.25,108.2C109.517,104.8 111.75,102.85 114.95,102.35L114.9,102.35C117.333,101.75 120.5,102.317 124.4,104.05L124.7,104.2C163.267,119.133 199.5,140.65 233.4,168.75C214.733,131.117 204.2,95.583 201.8,62.15C201.133,58.583 201.517,56 202.95,54.4L202.95,54.35L203,54.3C204.333,52.067 206.867,51.183 210.6,51.65C215.167,52.117 222.5,55.583 232.6,62.05L232.8,62.2C251.033,74.133 268.65,86.933 285.65,100.6L286,100.9L286.15,101.05C302.683,121.017 316.35,139.85 327.15,157.55L327.15,157.5C327.517,158.1 327.683,158.75 327.65,159.45M193.4,67.2L194.15,68.5L194.2,68.65L209.4,124.45C209.633,125.283 209.55,126.117 209.15,126.95L209.1,127C208.7,127.767 208.083,128.3 207.25,128.6L207.2,128.65L204.75,128.6L204.7,128.6L137.95,101.65L137.9,101.65L136.45,100.5L136.4,100.4C136.033,99.867 135.817,99.283 135.75,98.65L132.55,45.5C132.483,44.7 132.7,43.967 133.2,43.3C133.667,42.633 134.283,42.183 135.05,41.95L135.15,41.95L137.45,42.1L137.5,42.1L192.3,66.4L193.5,67.3L193.4,67.2" style="fill:#02cff0;"/>
                    </g>
                    <g id="sprite8" transform="matrix(5.2311,-0.317,0.317,5.2311,106.5,47.1)">
                        <g id="shape7">
                            <path d="M23.45,4.85C26.783,7.317 29.983,9.95 33.05,12.75C35.95,16.717 38.317,20.433 40.15,23.9C38.117,26.4 35.95,28.6 33.65,30.5C32.75,24.1 29.867,17.8 25,11.6C23.8,15.333 23.333,19.767 23.6,24.9C20.367,17.4 18.717,10.417 18.65,3.95C18.383,2.017 19.983,2.317 23.45,4.85M2.45,11.65C9.717,14.983 16.45,19.583 22.65,25.45C17.417,23.15 12.417,21.65 7.65,20.95C11.85,28.117 17.083,33.3 23.35,36.5C19.583,37.967 15.567,38.833 11.3,39.1C9,36.533 6.567,33.283 4,29.35C2.467,24.983 1.267,20.617 0.4,16.25C-0.5,12.017 0.183,10.483 2.45,11.65M5.65,0L15.8,5.25L18.05,16.05L5.65,10.15L5.65,0" style="fill:#fff;"/>
                        </g>
                    </g>
                    <g transform="matrix(0.9982,-0.0605,0.0605,0.9982,72.9588,378.521)">
                        <g id="sprite9">
                            <g id="chapeau3">
                                <g id="shape8">
                                    <path d="M85.35,-152.2C88.15,-143.467 87.8,-132.55 84.3,-119.45C75.2,-113.717 69.767,-103.1 68,-87.6C74.9,-85.933 82.067,-83.783 89.5,-81.15C94.4,-78.55 97.883,-75.75 99.95,-72.75C105.717,-64.217 105.367,-51.217 98.9,-33.75C92.1,-16.45 93.15,8.8 102.05,42C113.75,77.633 125.367,104.967 136.9,124C126.767,158.767 109.917,180.7 86.35,189.8L73.25,168.8L73.25,193.2C57.683,195.8 39.867,193.7 19.8,186.9C16.3,129.267 12.183,73.533 7.45,19.7L7.2,17.35C6.333,13.883 5.733,10.4 5.4,6.9L4.7,2.3C-14.933,7.167 -30.15,2.05 -40.95,-13.05C-46.45,-12.417 -51.7,-12.733 -56.7,-14C-60.867,41.867 -48.117,98.95 -18.45,157.25C-40.817,183.817 -61.867,195.967 -81.6,193.7L-82.65,173.5L-92.1,190.8C-105.033,185.567 -119.617,174.117 -135.85,156.45L-136.1,145.2C-138.033,90 -136.283,27.983 -130.85,-40.85C-131.55,-57.083 -129.2,-70.883 -123.8,-82.25C-116.133,-91.05 -104.767,-98.35 -89.7,-104.15L-88.1,-108.15C-79.567,-139.417 -60,-164.75 -29.4,-184.15C19.5,-200.217 48.4,-197.25 57.3,-175.25C59.4,-174.717 61.5,-174.017 63.6,-173.15C74.767,-168.783 82.017,-161.8 85.35,-152.2" style="fill:#8f81b8;"/>
                                </g>
                            </g>
                        </g>
                    </g>
                    <g id="shape9">
                        <path d="M119.55,200.1C121.683,200.5 123.8,201.083 125.9,201.85C137.333,205.517 145.017,212.033 148.95,221.4C119.983,205.833 89.367,210.583 57.1,235.65L60.8,231.2C81.267,207.6 100.85,197.233 119.55,200.1C100.85,197.233 81.267,207.6 60.8,231.2C68.667,214.1 77.617,201.667 87.65,193.9C41.75,201.567 5.35,228.883 -21.55,275.85C-14.917,244.15 3.083,217.683 32.45,196.45C80.283,177.45 109.317,178.667 119.55,200.1" style="fill:#fff;fill-opacity:0.24;"/>
                        <path d="M135.5,286.95C142.5,288.217 149.8,289.917 157.4,292.05C143.067,299.717 130.533,310 119.8,322.9C111.367,332.967 104.05,344.633 97.85,357.9L105.85,490.5L117.6,455.4C125.7,484.667 138.467,503.233 155.9,511.1C152.5,513.033 149.3,515.15 146.3,517.45C130.367,528.75 116.267,544.233 104,563.9C97,506.567 89.533,451.183 81.6,397.75C81.367,396.883 81.233,396.1 81.2,395.4C80.133,391.967 79.317,388.517 78.75,385.05L77.8,380.5C58.467,386.567 42.95,382.383 31.25,367.95C25.817,368.917 20.567,368.917 15.5,367.95C14.7,423.983 30.867,480.2 64,536.6C50.3,527.1 37.8,521.367 26.5,519.4L16.05,537.4L14.85,518.05C-5.85,517.383 -28.533,525.667 -53.2,542.9L-54.15,531.65L-30.45,506.9L-20.7,478.2L-19.7,494.65C-1.067,486.517 4.117,458.983 -4.15,412.05C-8.75,386.583 -11.333,366.533 -11.9,351.9C-16.3,347.267 -20.517,341.667 -24.55,335.1C-28.117,317.133 -27.7,299.35 -23.3,281.75C-16.733,303.583 -12.367,309.267 -10.2,298.8L-8.75,292.95C-6.75,285.483 -3.8,278.767 0.1,272.8C8.767,259.367 22.067,249.5 40,243.2L31.85,265.55L30.2,268C30.033,268.2 29.95,268.383 29.95,268.55L29.25,269.65L28.95,269.95C23.483,279.717 23.767,294.05 29.8,312.95C34.367,324.883 40.683,328.083 48.75,322.55C56.783,316.983 64,308.833 70.4,298.1L70.5,297.7L70.9,296.4L72.05,292.6L73.5,288.85L76.2,283.1C97.7,282.867 114.833,283.75 127.6,285.75L135.5,286.95M31.25,367.95C14.417,338.35 11.25,310.55 21.75,284.55L22.4,282.65C24.267,278.35 26.45,274.117 28.95,269.95C26.45,274.117 24.267,278.35 22.4,282.65L21.75,284.55C11.25,310.55 14.417,338.35 31.25,367.95M78.95,311C75.683,326.833 74.183,340.433 74.45,351.8C74.417,352.633 74.433,353.467 74.5,354.3C74.867,362.833 75.967,371.567 77.8,380.5C75.967,371.567 74.867,362.833 74.5,354.3L74.05,351.15L74.5,354.3C74.433,353.467 74.417,352.633 74.45,351.8C74.183,340.433 75.683,326.833 78.95,311M68.25,309.1L70.2,299L70.4,298.1L70.2,299L68.25,309.1M15.5,367.95C5.667,366.15 -3.467,360.8 -11.9,351.9C-3.467,360.8 5.667,366.15 15.5,367.95" style="fill-opacity:0.3;"/>
                        <path d="M149.85,254.2L135.5,286.95L127.6,285.75C114.833,283.75 97.7,282.867 76.2,283.1L73.5,288.85C79.067,274.55 88.7,260.617 102.4,247.05C117.2,236.55 129.6,234.667 139.6,241.4L149.85,254.2M217.1,494C209.067,529.3 193.567,552.217 170.6,562.75L156.25,542.55L157.75,566.9C142.35,570.433 124.433,569.433 104,563.9C116.267,544.233 130.367,528.75 146.3,517.45C149.3,515.15 152.5,513.033 155.9,511.1L166.3,478.2L167.95,505.15C183.083,498.283 199.467,494.567 217.1,494M64,536.6C43.3,564.467 23.033,577.85 3.2,576.75L0.95,556.7L-7.45,574.5C-20.683,570.067 -35.933,559.533 -53.2,542.9C-28.533,525.667 -5.85,517.383 14.85,518.05L16.05,537.4L26.5,519.4C37.8,521.367 50.3,527.1 64,536.6" style="fill-opacity:0.4;"/>
                        <path d="M148.95,221.4C145.017,212.033 137.333,205.517 125.9,201.85C123.8,201.083 121.683,200.5 119.55,200.1C100.85,197.233 81.267,207.6 60.8,231.2L57.1,235.65M148.95,221.4C152.283,229.967 152.583,240.9 149.85,254.2M135.5,286.95C142.5,288.217 149.8,289.917 157.4,292.05C162.4,294.35 166.033,296.95 168.3,299.85C174.567,308.017 175,321.017 169.6,338.85C163.867,356.517 166.45,381.65 177.35,414.25C191.15,449.117 204.4,475.7 217.1,494C209.067,529.3 193.567,552.217 170.6,562.75L156.25,542.55L157.75,566.9C142.35,570.433 124.433,569.433 104,563.9C97,506.567 89.533,451.183 81.6,397.75C81.367,396.883 81.233,396.1 81.2,395.4C80.133,391.967 79.317,388.517 78.75,385.05L77.8,380.5C58.467,386.567 42.95,382.383 31.25,367.95C25.817,368.917 20.567,368.917 15.5,367.95C14.7,423.983 30.867,480.2 64,536.6C43.3,564.467 23.033,577.85 3.2,576.75C-0.333,576.45 -3.883,575.7 -7.45,574.5C-20.683,570.067 -35.933,559.533 -53.2,542.9L-54.15,531.65C-59.417,476.683 -61.417,414.683 -60.15,345.65C-61.817,329.483 -60.317,315.55 -55.65,303.85C-48.517,294.617 -37.6,286.65 -22.9,279.95L-21.55,275.85C-14.917,244.15 3.083,217.683 32.45,196.45C80.283,177.45 109.317,178.667 119.55,200.1M76.2,283.1C97.7,282.867 114.833,283.75 127.6,285.75L135.5,286.95M139.6,241.4C129.6,234.667 117.2,236.55 102.4,247.05C88.7,260.617 79.067,274.55 73.5,288.85L72.05,292.6L70.9,296.4L70.5,297.7L70.4,298.1L70.2,299L68.25,309.1M28.95,269.95C26.45,274.117 24.267,278.35 22.4,282.65L21.75,284.55C11.25,310.55 14.417,338.35 31.25,367.95M31.85,265.55L30.2,268C30.033,268.2 29.95,268.383 29.95,268.55L29.25,269.65L28.95,269.95M77.8,380.5C75.967,371.567 74.867,362.833 74.5,354.3L74.05,351.15M74.5,354.3C74.433,353.467 74.417,352.633 74.45,351.8C74.183,340.433 75.683,326.833 78.95,311M-7.45,574.5L0.95,556.7L3.2,576.75M-22.9,279.95L-23.3,281.75C-27.7,299.35 -28.117,317.133 -24.55,335.1C-20.517,341.667 -16.3,347.267 -11.9,351.9C-3.467,360.8 5.667,366.15 15.5,367.95" style="fill:none;fill-rule:nonzero;stroke:#000;stroke-opacity:0.3;stroke-width:0.05px;"/>
                    </g>
                </g>
            </g>
        </g>
    </g>
</svg>
