<?xml version="1.0" encoding="UTF-8" standalone="no"?>
<!DOCTYPE svg PUBLIC "-//W3C//DTD SVG 1.1//EN" "http://www.w3.org/Graphics/SVG/1.1/DTD/svg11.dtd">
<svg width="100%" height="100%" viewBox="0 0 25 24" version="1.1" xmlns="http://www.w3.org/2000/svg" xmlns:xlink="http://www.w3.org/1999/xlink" xml:space="preserve" xmlns:serif="http://www.serif.com/" style="fill-rule:evenodd;clip-rule:evenodd;stroke-linecap:round;stroke-linejoin:round;">
    <g transform="matrix(1,0,0,1,12.1,11.65)">
        <g id="sprite0">
            <g id="sprite1">
                <g id="shape0">
                    <path d="M4.55,-7.3C7.383,-4.933 8.833,-2.917 8.9,-1.25C9.167,-0.683 9.233,-0.15 9.1,0.35L9.05,0.5L9,0.6L9.05,1.3L9.2,2.4L9.15,3.15L9.15,3.9L9.4,4.4L9.6,2.45L9.6,0.45L10.05,1.6L10.35,2.45C10.517,3.083 10.567,4.017 10.5,5.25L10.45,6L11.6,5.6L11.05,7.45L11.05,8.5L10.35,11.15L7.85,10.1L6.75,10.7L6.7,10.6L5.15,9.1L4.15,9.75L1.95,8L-0.9,8.15L-5.85,7.3C-5.35,7.133 -5,6.917 -4.8,6.65C-6.333,6.117 -7.633,5.183 -8.7,3.85L-11.6,-1.95C-10.633,-1.217 -9.733,-0.583 -8.9,-0.05L-10.45,-5.2C-8.917,-2.767 -7.5,-1.417 -6.2,-1.15L-5.75,-1.05C-6.417,-2.717 -7.183,-5.15 -8.05,-8.35L-6.15,-6.65L-6.15,-7.6L-6.05,-9.85C-4.35,-8.25 -2.85,-7.117 -1.55,-6.45L-3.4,-8.85L-4.05,-9.4C-1.85,-8.733 0,-8.017 1.5,-7.25C0.933,-8.25 -0.25,-9.55 -2.05,-11.15C0.85,-9.783 3,-8.433 4.4,-7.1L3.35,-8.25L4.5,-7.35L4.55,-7.3" style="fill:#280a02;"/>
                    <path d="M4.55,-7.3C7.383,-4.933 8.833,-2.917 8.9,-1.25C9.167,-0.683 9.233,-0.15 9.1,0.35L9.05,0.5L9,0.6L9.05,1.3L9.2,2.4L9.15,3.15L9.15,3.9L9.4,4.4L9.6,2.45L9.6,0.45L10.05,1.6L10.35,2.45C10.517,3.083 10.567,4.017 10.5,5.25L10.45,6L11.6,5.6L11.05,7.45L11.05,8.5L10.35,11.15L7.85,10.1L6.75,10.7L6.7,10.6L5.15,9.1L4.15,9.75L1.95,8L-0.9,8.15L-5.85,7.3C-5.35,7.133 -5,6.917 -4.8,6.65C-6.333,6.117 -7.633,5.183 -8.7,3.85L-11.6,-1.95C-10.633,-1.217 -9.733,-0.583 -8.9,-0.05L-10.45,-5.2C-8.917,-2.767 -7.5,-1.417 -6.2,-1.15L-5.75,-1.05C-6.417,-2.717 -7.183,-5.15 -8.05,-8.35L-6.15,-6.65L-6.15,-7.6L-6.05,-9.85C-4.35,-8.25 -2.85,-7.117 -1.55,-6.45L-3.4,-8.85L-4.05,-9.4C-1.85,-8.733 0,-8.017 1.5,-7.25C0.933,-8.25 -0.25,-9.55 -2.05,-11.15C0.85,-9.783 3,-8.433 4.4,-7.1L3.35,-8.25L4.5,-7.35L4.55,-7.3Z" style="fill:none;fill-rule:nonzero;stroke:#280a02;stroke-width:1px;"/>
                </g>
            </g>
            <g id="sprite2">
                <g id="shape1">
                    <path d="M9.4,6.35L11.6,5.6L10.9,7.95L9.4,6.35" style="fill:#ad7837;"/>
                    <path d="M9.4,6.35L11.6,5.6L10.9,7.95L9.4,6.35Z" style="fill:none;fill-rule:nonzero;stroke:#000;stroke-opacity:0.3;stroke-width:0.05px;"/>
                    <path d="M5.6,-5.7C5.5,-3.3 5.633,-1.1 6,0.9L1.55,1.4L1.2,3.9L-4.95,3.9C-6.017,3.7 -7.117,3.15 -8.25,2.25L-10.45,-5.2C-8.917,-2.767 -7.5,-1.417 -6.2,-1.15L-5.2,-0.9L-5.3,-1.05C-5.933,-2.083 -6.217,-4.267 -6.15,-7.6L-6.05,-9.85C-2.483,-6.517 0.15,-5.233 1.85,-6L1.9,-6L1.65,-6.9C1.183,-7.967 -0.05,-9.383 -2.05,-11.15C1.917,-9.283 4.467,-7.467 5.6,-5.7M-4.5,-0.35L-5.2,-0.9L-4.5,-0.35" style="fill:#543015;"/>
                    <path d="M5.6,-5.7C4.467,-7.467 1.917,-9.283 -2.05,-11.15C-0.05,-9.383 1.183,-7.967 1.65,-6.9L1.9,-6L1.85,-6C0.15,-5.233 -2.483,-6.517 -6.05,-9.85L-6.15,-7.6C-6.217,-4.267 -5.933,-2.083 -5.3,-1.05L-5.2,-0.9L-4.5,-0.35M-4.95,3.9C-6.017,3.7 -7.117,3.15 -8.25,2.25L-10.45,-5.2C-8.917,-2.767 -7.5,-1.417 -6.2,-1.15L-5.2,-0.9" style="fill:none;fill-rule:nonzero;stroke:#000;stroke-opacity:0.3;stroke-width:0.05px;"/>
                    <path d="M-3.4,-8.85L-4.05,-9.4C0.35,-8.033 3.317,-6.517 4.85,-4.85C5.517,-5.517 5.017,-6.65 3.35,-8.25L4.5,-7.35L4.55,-7.3C6.083,-5.333 7.117,-3.55 7.65,-1.95L8.9,-1.05L9,0.35L8.6,-0.2L7.1,1.25L7.35,4C8.75,4.733 9.5,4.967 9.6,4.7L10.25,5.95C10.95,6.683 11.217,7.533 11.05,8.5L10.35,11.15L7.85,10.1L6.75,10.7L6.7,10.6L5.25,7.95L4,7.9L3.3,6.55L4.5,6.3L5.5,4.8L0.4,2.15L-0.35,3.8L-0.2,4.75L-0.9,5.3L-1.4,5.6L-1.45,6.25L-4.15,7C-3.983,6.167 -3.55,5.433 -2.85,4.8C-4.883,5.3 -7.8,3.05 -11.6,-1.95C-8.267,0.65 -5.8,1.8 -4.2,1.5L-1.95,1.5C-4.017,-0.567 -6.05,-3.85 -8.05,-8.35L-5.95,-6.45C-4.683,-5.25 -2.633,-4.217 0.2,-3.35L3.2,-3.35C1.2,-5.983 -1,-7.817 -3.4,-8.85M8.95,8.15L8.1,6.2L6.65,7.6L8.1,6.2L8.95,8.15M7.35,8.6L8.7,8.7L8.2,7.55L7.35,8.6" style="fill:#ad7837;"/>
                    <path d="M4.55,-7.3C7.517,-4.833 8.967,-2.75 8.9,-1.05L7.65,-1.95C7.117,-3.55 6.083,-5.333 4.55,-7.3M9,0.35L9.15,2.8L9.1,2.85L9.15,3.9L9.6,4.7C9.5,4.967 8.75,4.733 7.35,4L7.1,1.25L8.6,-0.2L9,0.35M6.7,10.6L5.15,9.1L4.15,9.75L1.95,8L-0.9,8.15L-5.85,7.3C-5.35,7.133 -5,6.917 -4.8,6.65C-6.333,6.117 -7.633,5.183 -8.7,3.85L-11.6,-1.95C-7.8,3.05 -4.883,5.3 -2.85,4.8C-3.55,5.433 -3.983,6.167 -4.15,7L-1.45,6.25L-1.4,5.6L-0.9,5.3L-0.2,4.75L-0.35,3.8L0.4,2.15L5.5,4.8L4.5,6.3L3.3,6.55L4,7.9L5.25,7.95L6.7,10.6M-4.2,1.5C-5.133,1.067 -6.417,-2.217 -8.05,-8.35C-6.05,-3.85 -4.017,-0.567 -1.95,1.5L-4.2,1.5M0.2,-3.35C0,-4.317 -1.2,-6.15 -3.4,-8.85C-1,-7.817 1.2,-5.983 3.2,-3.35L0.2,-3.35M8.7,8.7L7.35,8.6L8.2,7.55L8.7,8.7M1.8,7.15C1.567,7.417 1.617,7.7 1.95,8C1.617,7.7 1.567,7.417 1.8,7.15" style="fill:#7b4f21;"/>
                    <path d="M-3.4,-8.85L-4.05,-9.4C0.35,-8.033 3.317,-6.517 4.85,-4.85C5.517,-5.517 5.017,-6.65 3.35,-8.25L4.5,-7.35L4.55,-7.3C7.517,-4.833 8.967,-2.75 8.9,-1.05L9,0.35L9.15,2.8L9.1,2.85L9.15,3.9L9.6,4.7L10.25,5.95C10.95,6.683 11.217,7.533 11.05,8.5L10.35,11.15L7.85,10.1L6.75,10.7L6.7,10.6L5.15,9.1L4.15,9.75L1.95,8L-0.9,8.15L-5.85,7.3C-5.35,7.133 -5,6.917 -4.8,6.65C-6.333,6.117 -7.633,5.183 -8.7,3.85L-11.6,-1.95C-8.267,0.65 -5.8,1.8 -4.2,1.5C-5.133,1.067 -6.417,-2.217 -8.05,-8.35L-5.95,-6.45C-4.683,-5.25 -2.633,-4.217 0.2,-3.35C0,-4.317 -1.2,-6.15 -3.4,-8.85M6.65,7.6L8.1,6.2L8.95,8.15M7.35,8.6L8.2,7.55L8.7,8.7M1.95,8C1.617,7.7 1.567,7.417 1.8,7.15" style="fill:none;fill-rule:nonzero;stroke:#000;stroke-opacity:0.3;stroke-width:0.05px;"/>
                    <path d="M9.6,0.65L9.9,4.2L9.85,5.2L9.4,4.4L9.6,2.45L9.6,0.65" style="fill:#7b4f21;"/>
                    <path d="M9.6,0.65L9.6,0.45L10.05,1.6L10.35,2.45C10.517,3.083 10.567,4.017 10.5,5.25L10.45,6.15L10.25,5.95L9.85,5.2L10.25,5.95L10.45,6.15L10.4,6.35L9.8,5.6L9.85,5.2L9.9,4.2L9.6,0.65" style="fill:#ad7837;"/>
                    <path d="M10.45,6.15L10.5,5.25C10.567,4.017 10.517,3.083 10.35,2.45L10.05,1.6L9.6,0.45L9.6,2.45L9.4,4.4L9.85,5.2L10.25,5.95L10.45,6.15Z" style="fill:none;fill-rule:nonzero;stroke:#000;stroke-opacity:0.3;stroke-width:0.05px;"/>
                    <path d="M0.55,4.35L1.8,5.3C2.367,5.567 2.917,5.7 3.45,5.7C3.917,5.667 4.233,5.483 4.4,5.15C4.533,4.817 4.467,4.433 4.2,4L2.85,3L1.3,2.65C0.8,2.683 0.483,2.867 0.35,3.2C0.183,3.533 0.25,3.917 0.55,4.35" style="fill-opacity:0.3;"/>
                    <path d="M0.95,3.75L0.95,3.7C1.083,3.4 1.333,3.25 1.7,3.25L2.95,3.5L3.95,4.25L4.15,4.9L4.15,5.1L4.1,5.15L4.1,5.2C4,5.333 3.8,5.333 3.5,5.2C1.6,3.567 0.85,3.383 1.25,4.65L1.1,4.5C0.933,4.267 0.883,4.05 0.95,3.85L0.95,3.75" style="fill:#596f04;"/>
                    <path d="M1.25,4.65C0.85,3.383 1.6,3.567 3.5,5.2C3.8,5.333 4,5.333 4.1,5.2L3.4,5.55L2.1,5.3L1.25,4.65" style="fill:#83b127;"/>
                    <path d="M4.1,5.2L4.1,5.15L4.15,5.1L4.15,4.9L3.95,4.25L2.95,3.5L1.7,3.25C1.333,3.25 1.083,3.4 0.95,3.7L0.95,3.75M1.2,4.6L1.25,4.65L2.1,5.3L3.4,5.55L4.1,5.2L1.2,4.6Z" style="fill:none;fill-rule:nonzero;stroke:#000;stroke-opacity:0.3;stroke-width:0.05px;"/>
                    <path d="M5.1,4.1L4.5,5.2C3.167,3.933 1.633,3.1 -0.1,2.7C-0.933,1.633 -0.85,1.067 0.15,1L0.2,1C0.8,1.133 1.533,1.45 2.4,1.95L2.65,2C3.85,2.567 4.667,3.267 5.1,4.1" style="fill:#ad7837;"/>
                    <path d="M-1.1,0.75L0.15,1C-0.85,1.067 -0.933,1.633 -0.1,2.7C1.633,3.1 3.167,3.933 4.5,5.2L5.1,4.1L5.2,4.4L4.9,5.15L4.6,5.55L3.8,5L2.55,4.1C1.283,3.3 0.217,2.817 -0.65,2.65L-0.85,2.5C-1.583,2.033 -1.667,1.45 -1.1,0.75" style="fill:#7b4f21;"/>
                    <path d="M-1.1,0.75C-1.667,1.45 -1.583,2.033 -0.85,2.5L-0.65,2.65C0.217,2.817 1.283,3.3 2.55,4.1L3.8,5L4.6,5.55L4.9,5.15L5.2,4.4" style="fill:none;fill-rule:nonzero;stroke:#000;stroke-opacity:0.3;stroke-width:0.05px;"/>
                    <path d="M9.2,2.4L9,3.5L8.6,4.05L8.15,3.55L8.05,2.45L8.25,1.3L8.65,0.8L9.05,1.3L9.2,2.4" style="fill-opacity:0.3;"/>
                    <path d="M8.1,3.6L8,3.5L8,3.4L7.95,3.2L7.9,2.6L8.1,1.65C8.167,1.417 8.267,1.317 8.4,1.35C8.533,1.317 8.65,1.417 8.75,1.65L8.75,1.8L8.85,2.5L8.85,2.55C8.717,1.383 8.5,1.667 8.2,3.4L8.1,3.6" style="fill:#596f04;"/>
                    <path d="M8.85,2.55L8.8,2.6L8.85,2.65L8.7,3.4L8.35,3.75L8.1,3.6L8.2,3.4C8.5,1.667 8.717,1.383 8.85,2.55" style="fill:#83b127;"/>
                    <path d="M8.1,3.6L8,3.5L8,3.4L7.95,3.2L7.9,2.6L8.1,1.65C8.167,1.417 8.267,1.317 8.4,1.35C8.533,1.317 8.65,1.417 8.75,1.65L8.75,1.7M8.8,2.6L8.85,2.65L8.7,3.4L8.35,3.75L8.1,3.6L8.8,2.6Z" style="fill:none;fill-rule:nonzero;stroke:#000;stroke-opacity:0.3;stroke-width:0.05px;"/>
                    <path d="M8.45,-1.05L8.85,-1.35C9.15,-0.75 9.233,-0.183 9.1,0.35L9.05,0.5C8.817,0.767 8.583,1.35 8.35,2.25L8.1,3.2L7.95,3.85L7.75,3.5L7.75,3.25L7.55,2.75L7.55,2.5L7.95,3.55C8.117,2.183 8.433,1.217 8.9,0.65C8.933,-0.517 8.783,-1.083 8.45,-1.05" style="fill:#7b4f21;"/>
                    <path d="M7.55,2.5C7.483,1.633 7.6,0.867 7.9,0.2L7.95,0.1L8.45,-1.05C8.783,-1.083 8.933,-0.517 8.9,0.65C8.433,1.217 8.117,2.183 7.95,3.55L7.55,2.5" style="fill:#ad7837;"/>
                    <path d="M8.85,-1.35C9.15,-0.75 9.233,-0.183 9.1,0.35L9.05,0.5C8.817,0.767 8.583,1.35 8.35,2.25L8.1,3.2L7.95,3.85L7.75,3.5L7.75,3.25L7.55,2.75" style="fill:none;fill-rule:nonzero;stroke:#000;stroke-opacity:0.3;stroke-width:0.05px;"/>
                    <path d="M5.25,1.55L5.15,1.2C6.517,2.8 7.383,4.6 7.75,6.6C7.517,6.267 7.2,6.183 6.8,6.35L6.65,6.9C6.45,5.067 5.983,3.283 5.25,1.55" style="fill:#ad7837;"/>
                    <path d="M5.25,1.55C5.983,3.283 6.45,5.067 6.65,6.9L5.8,6.65C5.867,5.15 5.683,3.45 5.25,1.55" style="fill:#7b4f21;"/>
                    <path d="M7.75,6.6C7.383,4.6 6.517,2.8 5.15,1.2L5.25,1.55C5.683,3.45 5.867,5.15 5.8,6.65" style="fill:none;fill-rule:nonzero;stroke:#000;stroke-opacity:0.3;stroke-width:0.05px;"/>
                </g>
            </g>
        </g>
    </g>
</svg>
