<?xml version="1.0" encoding="UTF-8" standalone="no"?>
<!DOCTYPE svg PUBLIC "-//W3C//DTD SVG 1.1//EN" "http://www.w3.org/Graphics/SVG/1.1/DTD/svg11.dtd">
<svg width="100%" height="100%" viewBox="0 0 13 15" version="1.1" xmlns="http://www.w3.org/2000/svg" xmlns:xlink="http://www.w3.org/1999/xlink" xml:space="preserve" xmlns:serif="http://www.serif.com/" style="fill-rule:evenodd;clip-rule:evenodd;stroke-linecap:round;stroke-linejoin:round;">
    <g transform="matrix(1,0,0,1,-0.671875,-3.1)">
        <g>
            <g id="shape0">
                <path d="M11.35,6.2L11.45,6.15L11.5,6.3C12.033,7.633 12.25,8.867 12.15,10L12,11.1L11.75,11.35L11,11.1L11,12.55C10.8,13.583 10.45,14.25 9.95,14.55C10.05,13.617 10.033,12.8 9.9,12.1L8.6,13.3L8.85,12.1L8.8,12.25L8.3,12L7.95,13.5C7.85,13.633 7.733,13.633 7.6,13.5L6.65,12.4L6.6,12.45C6.433,14.917 5.55,16.383 3.95,16.85L4.55,15.7L4.55,15.65L4.7,15.2C4.1,15.6 3.45,15.8 2.75,15.8L2.25,15.75L2.7,13.55C2.233,13.683 1.733,13.95 1.2,14.35C1.1,12.25 1.267,10.717 1.7,9.75L2.15,9.1L2.75,8.6L3.75,8.1L2.75,7.7L2.6,7.65L2.75,7.45L2.8,7.4C3.367,6.767 4.083,6.317 4.95,6.05L6.3,5.9L6.5,5.9L6.4,5.4L6.8,5.9C7.9,6.033 8.733,6.7 9.3,7.9C9.767,7.967 10.117,8.267 10.35,8.8L10.35,8.7C10.383,7.367 10.2,5.717 9.8,3.75L9.75,3.6L9.9,3.75C10.433,4.317 10.9,5.05 11.3,5.95L11.2,5.9L11.35,6.2" style="fill:#280a02;"/>
                <path d="M11.35,6.2L11.2,5.9L11.3,5.95C10.9,5.05 10.433,4.317 9.9,3.75L9.75,3.6L9.8,3.75C10.2,5.717 10.383,7.367 10.35,8.7L10.35,8.8C10.117,8.267 9.767,7.967 9.3,7.9C8.733,6.7 7.9,6.033 6.8,5.9L6.4,5.4L6.5,5.9L6.3,5.9L4.95,6.05C4.083,6.317 3.367,6.767 2.8,7.4L2.75,7.45L2.6,7.65L2.75,7.7L3.75,8.1L2.75,8.6L2.15,9.1L1.7,9.75C1.267,10.717 1.1,12.25 1.2,14.35C1.733,13.95 2.233,13.683 2.7,13.55L2.25,15.75L2.75,15.8C3.45,15.8 4.1,15.6 4.7,15.2L4.55,15.65L4.55,15.7L3.95,16.85C5.55,16.383 6.433,14.917 6.6,12.45L6.65,12.4L7.6,13.5C7.733,13.633 7.85,13.633 7.95,13.5L8.3,12L8.8,12.25L8.85,12.1L8.6,13.3L9.9,12.1C10.033,12.8 10.05,13.617 9.95,14.55C10.45,14.25 10.8,13.583 11,12.55L11,11.1L11.75,11.35L12,11.1L12.15,10C12.25,8.867 12.033,7.633 11.5,6.3L11.45,6.15L11.35,6.2Z" style="fill:none;fill-rule:nonzero;stroke:#280a02;stroke-width:1px;"/>
                <path d="M9.35,9.35L9.65,8.85L9.3,7.9C10.033,8 10.483,8.683 10.65,9.95C10.95,10.517 11.05,11.367 10.95,12.5C10.783,13.567 10.45,14.233 9.95,14.5L9.85,12.1L9.35,9.35M2.8,7.35C3.733,7.117 4.667,7.117 5.6,7.35L4.2,7.9L3.7,8.05C3.433,7.85 3.05,7.7 2.55,7.6L2.8,7.35M1.2,14.3C1.4,13.333 2.233,12.467 3.7,11.7L3.05,12.6L2.9,12.85L2.65,13.55C2.183,13.683 1.7,13.933 1.2,14.3M2.25,15.75C3.517,15.217 4.4,14.267 4.9,12.9L6.25,12.1L6.3,11.65L6.55,10.6L7.35,10.55L6.7,11.8L4.65,15.15C3.95,15.65 3.15,15.85 2.25,15.75" style="fill:#101010;"/>
                <path d="M9.65,8.85L9.35,9.35C8.617,9.25 7.95,9.65 7.35,10.55L6.55,10.6L6.3,11.65L6.25,12.1L4.9,12.9C4.4,14.267 3.517,15.217 2.25,15.75L2.65,13.55L2.9,12.85L3.05,12.6L3.7,11.7C2.233,12.467 1.4,13.333 1.2,14.3C1.1,12.233 1.267,10.717 1.7,9.75C2,9.083 2.667,8.517 3.7,8.05L4.2,7.9L5.6,7.35C4.667,7.117 3.733,7.117 2.8,7.35C3.367,6.717 4.083,6.267 4.95,6C6.983,5.467 8.433,6.1 9.3,7.9L9.65,8.85" style="fill:#202020;"/>
                <path d="M9.35,9.35L9.85,12.1L9.95,14.5C10.45,14.233 10.783,13.567 10.95,12.5C11.05,11.367 10.95,10.517 10.65,9.95C10.483,8.683 10.033,8 9.3,7.9L9.65,8.85M4.2,7.9L3.7,8.05C2.667,8.517 2,9.083 1.7,9.75C1.267,10.717 1.1,12.233 1.2,14.3C1.7,13.933 2.183,13.683 2.65,13.55L2.25,15.75C3.15,15.85 3.95,15.65 4.65,15.15L6.7,11.8L7.35,10.55C7.95,9.65 8.617,9.25 9.35,9.35M3.05,12.6L2.9,12.85L2.65,13.55M9.3,7.9C8.433,6.1 6.983,5.467 4.95,6C4.083,6.267 3.367,6.717 2.8,7.35L2.55,7.6C3.05,7.7 3.433,7.85 3.7,8.05" style="fill:none;fill-rule:nonzero;stroke:#000;stroke-opacity:0.3;stroke-width:0.05px;"/>
                <path d="M8.75,12.25L8.3,11.95L7.8,12.85L7.2,11.25C7.8,10.55 8.383,10.333 8.95,10.6L8.75,12.25" style="fill:#101010;"/>
                <path d="M8.75,12.25L8.3,11.95L7.8,12.85L7.2,11.25C7.8,10.55 8.383,10.333 8.95,10.6L8.75,12.25Z" style="fill:none;fill-rule:nonzero;stroke:#000;stroke-opacity:0.3;stroke-width:0.05px;"/>
                <path d="M12.15,10L12,11.1L11.7,11.35L9.7,10.55L9.4,11.45L9.15,11.2C9.017,10.9 8.933,10.267 8.9,9.3C8.933,8.833 9.033,8.633 9.2,8.7L10.3,9.3L10.35,8.65C10.883,9.55 11.483,10 12.15,10M10.25,9.65L10.3,9.3L10.25,9.65M9.45,10.4L9.7,10.55L9.45,10.4" style="fill:#383838;"/>
                <path d="M12.15,10C11.483,10 10.883,9.55 10.35,8.65C10.35,7.283 10.133,5.583 9.7,3.55C10.333,4.15 10.867,4.95 11.3,5.95L11.15,5.9L11,5.95C10.733,6.583 10.617,7.283 10.65,8.05C10.717,7.55 10.85,7.217 11.05,7.05L11.5,8.6C11.267,7.567 11.183,6.8 11.25,6.3L11.3,6.2L11.4,6.15L11.45,6.25C11.983,7.583 12.217,8.833 12.15,10" style="fill:#4f4f4f;"/>
                <path d="M11.3,6.2L11.25,6.3C11.183,6.8 11.267,7.567 11.5,8.6L11.05,7.05C10.85,7.217 10.717,7.55 10.65,8.05C10.617,7.283 10.733,6.583 11,5.95L11.15,5.9L11.3,6.2" style="fill:#e10cdb;"/>
                <path d="M9.7,10.55L11.7,11.35L12,11.1L12.15,10C12.217,8.833 11.983,7.583 11.45,6.25L11.4,6.15L11.3,6.2L11.25,6.3C11.183,6.8 11.267,7.567 11.5,8.6L11.05,7.05C10.85,7.217 10.717,7.55 10.65,8.05C10.617,7.283 10.733,6.583 11,5.95L11.15,5.9L11.3,5.95C10.867,4.95 10.333,4.15 9.7,3.55C10.133,5.583 10.35,7.283 10.35,8.65L10.3,9.3L10.25,9.65M10.3,9.3L9.2,8.7C9.033,8.633 8.933,8.833 8.9,9.3C8.933,10.267 9.017,10.9 9.15,11.2L9.4,11.45L9.7,10.55L9.45,10.4M11.3,6.2L11.15,5.9" style="fill:none;fill-rule:nonzero;stroke:#000;stroke-opacity:0.3;stroke-width:0.05px;"/>
                <path d="M8,9.5L8.8,8.5C9.667,8.667 10.283,9.133 10.65,9.9L9.25,11.7C9.317,11 8.9,10.267 8,9.5" style="fill:#202020;"/>
                <path d="M8,9.5C8.9,10.267 9.317,11 9.25,11.7L10.65,9.9C10.883,10.4 10.833,10.833 10.5,11.2L9.85,12.1L8.6,13.3C8.933,12.4 8.867,11.55 8.4,10.75L8,9.5" style="fill:#101010;"/>
                <path d="M10.65,9.9C10.283,9.133 9.667,8.667 8.8,8.5M10.65,9.9C10.883,10.4 10.833,10.833 10.5,11.2L9.85,12.1L8.6,13.3C8.933,12.4 8.867,11.55 8.4,10.75" style="fill:none;fill-rule:nonzero;stroke:#000;stroke-opacity:0.3;stroke-width:0.05px;"/>
                <path d="M7.55,7.65L7.8,8.05L7.65,8.3L7.3,11.25L7.2,7.95L7.55,7.65" style="fill:#e10cdb;"/>
                <path d="M6.5,10.25C6.6,8.85 6.567,7.233 6.4,5.4L7.7,7.6L7.55,7.65L7.2,7.95L7.3,11.25L7.65,8.3L7.8,8.05L7.95,8L8.4,10.35L8.3,11.8L7.7,12.5C7.2,12.067 6.8,11.317 6.5,10.25" style="fill:#4f4f4f;"/>
                <path d="M8.3,11.8L7.9,13.45C7.833,13.617 7.717,13.617 7.55,13.45L6.6,12.4L6.1,13.15C5.933,12.983 5.817,12.717 5.75,12.35L5.75,10.95C5.817,10.45 5.95,10.217 6.15,10.25L6.45,10.6L6.45,10.55L6.5,10.25C6.8,11.317 7.2,12.067 7.7,12.5L8.3,11.8M6.6,12.4L6.2,11.95L6.6,12.4M6.4,11.05L6.45,10.6L6.4,11.05" style="fill:#383838;"/>
                <path d="M6.5,10.25C6.6,8.85 6.567,7.233 6.4,5.4L7.7,7.6L7.55,7.65L7.8,8.05L7.95,8L8.4,10.35L8.3,11.8L7.9,13.45C7.833,13.617 7.717,13.617 7.55,13.45L6.6,12.4L6.1,13.15C5.933,12.983 5.817,12.717 5.75,12.35L5.75,10.95C5.817,10.45 5.95,10.217 6.15,10.25L6.45,10.6L6.45,10.55L6.5,10.25M7.55,7.65L7.2,7.95L7.3,11.25L7.65,8.3L7.8,8.05M6.45,10.6L6.4,11.05M6.2,11.95L6.6,12.4" style="fill:none;fill-rule:nonzero;stroke:#000;stroke-opacity:0.3;stroke-width:0.05px;"/>
                <path d="M4.55,15.6L4.7,15.15L4.95,12.3L5.65,12.05L6,11.4L6.1,10.4C5.267,11.233 4.267,11.6 3.1,11.5L2.6,11.45L4.4,9.6L5.95,9.3C6.45,9.9 6.7,10.383 6.7,10.75L6.6,11.25L6.3,11.65C6.2,11.683 6.117,11.733 6.05,11.8C5.883,13.633 5.383,14.9 4.55,15.6M5.65,12.05L6.05,11.8L5.65,12.05" style="fill:#202020;"/>
                <path d="M4.95,12.3L3.45,12.25L2.8,11.95L2.35,11.6L2.6,11.45L3.1,11.5C4.267,11.6 5.267,11.233 6.1,10.4L6,11.4L5.65,12.05L4.95,12.3M6.6,11.25C6.667,14.45 5.783,16.317 3.95,16.85L4.55,15.7L4.55,15.6C5.383,14.9 5.883,13.633 6.05,11.8C6.117,11.733 6.2,11.683 6.3,11.65L6.6,11.25" style="fill:#101010;"/>
                <path d="M4.55,15.6L4.7,15.15L4.95,12.3L3.45,12.25L2.8,11.95L2.35,11.6L2.6,11.45L4.4,9.6M5.95,9.3C6.45,9.9 6.7,10.383 6.7,10.75L6.6,11.25C6.667,14.45 5.783,16.317 3.95,16.85L4.55,15.7M6.05,11.8L5.65,12.05L4.95,12.3M6.05,11.8C6.117,11.733 6.2,11.683 6.3,11.65L6.6,11.25" style="fill:none;fill-rule:nonzero;stroke:#000;stroke-opacity:0.3;stroke-width:0.05px;"/>
            </g>
        </g>
    </g>
</svg>
