<?xml version="1.0" encoding="UTF-8" standalone="no"?>
<!DOCTYPE svg PUBLIC "-//W3C//DTD SVG 1.1//EN" "http://www.w3.org/Graphics/SVG/1.1/DTD/svg11.dtd">
<svg width="100%" height="100%" viewBox="0 0 16 23" version="1.1" xmlns="http://www.w3.org/2000/svg" xmlns:xlink="http://www.w3.org/1999/xlink" xml:space="preserve" xmlns:serif="http://www.serif.com/" style="fill-rule:evenodd;clip-rule:evenodd;stroke-linecap:round;stroke-linejoin:round;">
    <g transform="matrix(1,0,0,1,-0.0118255,0.000801251)">
        <g id="sprite0" transform="matrix(0.0321,0,0,0.032,-1.15042,0)">
            <g>
                <g id="shape0">
                    <path d="M176.25,437.2L201.65,449C164.283,491.067 121.767,532.5 74.1,573.3C68.5,558.933 65.25,544.383 64.35,529.65L176.25,437.2" style="fill:rgb(138,119,86);"/>
                    <path d="M37.1,506C40.533,473.467 55.017,440.05 80.55,405.75L108.4,405.75C100.133,416.783 93.083,427.7 87.25,438.5C74.917,433.933 58.2,456.433 37.1,506" style="fill:rgb(148,102,75);"/>
                    <path d="M108.4,405.75L176.25,437.2L64.35,529.65C62.45,500.05 70.083,469.667 87.25,438.5C93.083,427.7 100.133,416.783 108.4,405.75" style="fill:rgb(197,170,123);"/>
                    <path d="M36.5,530.25C36,522.217 36.2,514.133 37.1,506C58.2,456.433 74.917,433.933 87.25,438.5C70.083,469.667 62.45,500.05 64.35,529.65L36.5,530.25" style="fill:rgb(107,74,54);"/>
                    <path d="M74.1,573.3L53.85,590.1C43.583,570.533 37.8,550.583 36.5,530.25L64.35,529.65C65.25,544.383 68.5,558.933 74.1,573.3" style="fill:rgb(75,52,38);"/>
                    <path d="M176.25,437.2L201.65,449C164.283,491.067 121.767,532.5 74.1,573.3L53.85,590.1C43.583,570.533 37.8,550.583 36.5,530.25C36,522.217 36.2,514.133 37.1,506C40.533,473.467 55.017,440.05 80.55,405.75L108.4,405.75L176.25,437.2M64.35,529.65C65.25,544.383 68.5,558.933 74.1,573.3M87.25,438.5C93.083,427.7 100.133,416.783 108.4,405.75M64.35,529.65C62.45,500.05 70.083,469.667 87.25,438.5" style="fill:none;fill-rule:nonzero;stroke:black;stroke-opacity:0.3;stroke-width:0.05px;"/>
                    <path d="M287.8,116.55C335.967,118.317 378.233,137 414.6,172.6C457.167,214.3 478.45,267.183 478.45,331.25L478.45,336L248.5,336L248.5,454.2L240.15,454.95L190.95,457.05C178.883,457.05 166.55,456.8 153.95,456.3C101.45,433.033 73.617,397.317 70.45,349.15C78.317,304.55 94.583,266.933 119.25,236.3C102.85,273.267 95.6,296.45 97.5,305.85C109.6,282.617 124.8,263.933 143.1,249.8C149.333,249.167 156.45,247.017 164.45,243.35C177.283,237.35 188.4,229.083 197.8,218.55C207.1,207.983 212,198.2 212.5,189.2C212.633,180.8 208.95,175.333 201.45,172.8C222.15,163 245.15,155.117 270.45,149.15L287.8,116.55" style="fill:rgb(197,170,123);"/>
                    <path d="M153.95,456.3C129.55,455.167 104.2,452.817 77.9,449.25C62.267,415.95 55.85,379.017 58.65,338.45C61.95,279.25 83.8,228.417 124.2,185.95C164.367,142.85 212.167,119.783 267.6,116.75C274.467,116.35 281.2,116.283 287.8,116.55L270.45,149.15C245.15,155.117 222.15,163 201.45,172.8L199.5,172.2C190.633,169.933 179.767,171.783 166.9,177.75C153.833,183.717 142.717,192.033 133.55,202.7C124.15,213.267 119.317,223.133 119.05,232.3L119.25,236.3C94.583,266.933 78.317,304.55 70.45,349.15C73.617,397.317 101.45,433.033 153.95,456.3" style="fill:rgb(138,119,86);"/>
                    <path d="M201.45,172.8C208.95,175.333 212.633,180.8 212.5,189.2C212,198.2 207.1,207.983 197.8,218.55C188.4,229.083 177.283,237.35 164.45,243.35C156.45,247.017 149.333,249.167 143.1,249.8C124.8,263.933 109.6,282.617 97.5,305.85C95.6,296.45 102.85,273.267 119.25,236.3L119.05,232.3C119.317,223.133 124.15,213.267 133.55,202.7C142.717,192.033 153.833,183.717 166.9,177.75C179.767,171.783 190.633,169.933 199.5,172.2L201.45,172.8" style="fill:rgb(214,193,159);"/>
                    <path d="M287.8,116.55C335.967,118.317 378.233,137 414.6,172.6C457.167,214.3 478.45,267.183 478.45,331.25L478.45,336M248.5,454.2L240.15,454.95L190.95,457.05C178.883,457.05 166.55,456.8 153.95,456.3C129.55,455.167 104.2,452.817 77.9,449.25C62.267,415.95 55.85,379.017 58.65,338.45C61.95,279.25 83.8,228.417 124.2,185.95C164.367,142.85 212.167,119.783 267.6,116.75C274.467,116.35 281.2,116.283 287.8,116.55" style="fill:none;fill-rule:nonzero;stroke:black;stroke-opacity:0.3;stroke-width:0.05px;"/>
                    <path d="M390.75,337.9L384.65,213.4L474.85,284.9L488.55,351.65L473.3,370.3L481.5,427.9L449.3,563.25L449.3,644.45L427.15,565.15L426.8,518.65L446.05,431.15L447.75,425.4L447.75,363.05L404.5,390.7L389.25,528.15L390.2,423.3L390.75,337.9M357.4,621.8L357.4,690.4L325.75,634.75L185.8,571.45L171.9,488.7L127.05,433.8L92,400.25C89.467,389.817 92.317,377.683 100.55,363.85L112.8,359.05L115.85,367.45C113.15,367.817 110.667,368.833 108.4,370.5L105.9,372.6C102.333,376.167 100.55,380.417 100.55,385.35C100.55,390.317 102.333,394.583 105.9,398.15C109.467,401.717 113.733,403.5 118.7,403.5C123.633,403.5 127.883,401.717 131.45,398.15C133.75,395.85 135.35,393.3 136.25,390.5C136.617,388.867 136.8,387.15 136.8,385.35L136.6,382.7C145.767,384.733 155.867,392.483 166.9,405.95C184.7,441.55 200.983,483.25 215.75,531.05L357.4,621.8" style="fill:rgb(75,52,38);"/>
                    <path d="M488.55,351.65L474.85,284.9L384.65,213.4L390.75,337.9L357.2,160.6L497.35,275.35C504.083,299.383 506.167,318.583 503.6,332.95L488.55,351.65M390.2,423.3L389.25,528.15L341.35,401.6L325.75,404.8L281.5,394.9L241.45,289.45L345.55,191.3L377.8,333.3L390.2,423.3M446.05,431.15L426.8,518.65L427.15,565.15L415.75,524.55L446.05,431.15M112.8,359.05L124.8,354.5L196.3,332L210.95,318.25L267.8,416.45L250.8,419.9L258.45,514.25L259.2,514.65L262.25,534.1L339.45,562.85L357.4,600.05L357.4,621.8L215.75,531.05C200.983,483.25 184.7,441.55 166.9,405.95C155.867,392.483 145.767,384.733 136.6,382.7C136.1,378.9 134.383,375.533 131.45,372.6C127.883,369.033 123.633,367.25 118.7,367.25L115.85,367.45L112.8,359.05" style="fill:rgb(107,74,54);"/>
                    <path d="M357.2,160.6L390.75,337.9L390.2,423.3L377.8,333.3L345.55,191.3L241.45,289.45L281.5,394.9L325.75,404.8L267.8,416.45L210.95,318.25L196.3,332L124.8,354.5L148.8,345.15C226.333,280.317 295.8,218.8 357.2,160.6M357.4,600.05L339.45,562.85L262.25,534.1L259.2,514.65L357.4,550.5L357.4,600.05" style="fill:rgb(148,102,75);"/>
                    <path d="M108.4,370.5C110.667,368.833 113.15,367.817 115.85,367.45L118.7,367.25C123.633,367.25 127.883,369.033 131.45,372.6C134.383,375.533 136.1,378.9 136.6,382.7L136.8,385.35C136.8,387.15 136.617,388.867 136.25,390.5C118.95,386.833 109.667,380.167 108.4,370.5" style="fill:rgb(197,170,123);"/>
                    <path d="M136.25,390.5C135.35,393.3 133.75,395.85 131.45,398.15C127.883,401.717 123.633,403.5 118.7,403.5C113.733,403.5 109.467,401.717 105.9,398.15C102.333,394.583 100.55,390.317 100.55,385.35C100.55,380.417 102.333,376.167 105.9,372.6L108.4,370.5C109.667,380.167 118.95,386.833 136.25,390.5" style="fill:rgb(138,119,86);"/>
                    <path d="M488.55,351.65L503.6,332.95C506.167,318.583 504.083,299.383 497.35,275.35L357.2,160.6L390.75,337.9L390.2,423.3L389.25,528.15L404.5,390.7L447.75,363.05L447.75,425.4L446.05,431.15L415.75,524.55L427.15,565.15L449.3,644.45L449.3,563.25L481.5,427.9L473.3,370.3L488.55,351.65M357.4,621.8L357.4,690.4L325.75,634.75L185.8,571.45L171.9,488.7L127.05,433.8L92,400.25C89.467,389.817 92.317,377.683 100.55,363.85L112.8,359.05L124.8,354.5L148.8,345.15C226.333,280.317 295.8,218.8 357.2,160.6M136.25,390.5C135.35,393.3 133.75,395.85 131.45,398.15C127.883,401.717 123.633,403.5 118.7,403.5C113.733,403.5 109.467,401.717 105.9,398.15C102.333,394.583 100.55,390.317 100.55,385.35C100.55,380.417 102.333,376.167 105.9,372.6L108.4,370.5C110.667,368.833 113.15,367.817 115.85,367.45L118.7,367.25C123.633,367.25 127.883,369.033 131.45,372.6C134.383,375.533 136.1,378.9 136.6,382.7L136.8,385.35C136.8,387.15 136.617,388.867 136.25,390.5M357.4,621.8L357.4,550.5L259.2,514.65L258.45,514.25L250.8,419.9L267.8,416.45L325.75,404.8L341.35,401.6L389.25,528.15" style="fill:none;fill-rule:nonzero;stroke:black;stroke-opacity:0.3;stroke-width:0.05px;"/>
                    <path d="M474.85,284.9L474.85,288.5C474.95,290.667 474.817,293.217 474.45,296.15C472.15,306.05 468.783,311.9 464.35,313.7C457.75,316.233 454.067,312.667 453.3,303C456.733,304.267 459.783,303.067 462.45,299.4C463.583,294.067 460.15,288.4 452.15,282.4C443.117,275.433 433.2,279.817 422.4,295.55C416.8,305.083 410.183,310.75 402.55,312.55C399.517,304.283 397.617,296.4 396.85,288.9C395.583,283.067 395.083,277.6 395.35,272.5C395.083,271.6 395.083,270.833 395.35,270.2C395.083,259.4 396.467,249.367 399.5,240.1C401.933,251.167 406.267,258.733 412.5,262.8C420.367,266.6 428.25,265.133 436.15,258.4L440.5,257.65L474.85,284.9M418,327.2C427.4,333.967 426.833,346.183 416.3,363.85C407.8,359.783 402.783,350.95 401.25,337.35C408.117,334.783 413.7,331.4 418,327.2" style="fill:rgb(124,37,26);"/>
                    <path d="M474.85,284.9L440.5,257.65C446.367,256.883 451.65,257.633 456.35,259.9C460.017,261.7 463.567,264.567 467,268.5C471.2,273.6 473.817,279.067 474.85,284.9M254.6,324C263.267,317 273.383,311.15 284.95,306.45C298.55,307.217 311.133,302 322.7,290.8C330.2,282.3 334.7,271.25 336.2,257.65C345.233,269.317 349.817,284.567 349.95,303.4C349.817,311.767 348.867,320.983 347.1,331.05C335.9,337.017 325.533,337.45 316,332.35C294.767,326.783 277.483,332 264.15,348L263.95,348.4L254.6,324M255,394.35L251,395.85C242.367,399.417 234.483,396.933 227.35,388.4C224.417,384.867 222.95,380.683 222.95,375.85C222.95,369.25 225.567,361.5 230.8,352.6L255,394.35M339.25,392.45C319.95,386.85 316.717,375.783 329.55,359.25C335.383,359.75 343.45,357.717 353.75,353.15C354.017,367.65 349.183,380.75 339.25,392.45" style="fill:rgb(195,59,42);"/>
                    <path d="M263.95,348.4C250.75,364.033 246.433,373.817 251,377.75C256.467,379.017 262.25,376.783 268.35,371.05C268.85,381.75 264.4,389.517 255,394.35L230.8,352.6C231.567,351.067 232.45,349.533 233.45,348C239.05,338.867 246.1,330.867 254.6,324L263.95,348.4" style="fill:rgb(195,95,82);"/>
                    <path d="M440.5,257.65L436.15,258.4C428.25,265.133 420.367,266.6 412.5,262.8C406.267,258.733 401.933,251.167 399.5,240.1C396.467,249.367 395.083,259.4 395.35,270.2C395.083,270.833 395.083,271.6 395.35,272.5C395.083,277.6 395.583,283.067 396.85,288.9C397.617,296.4 399.517,304.283 402.55,312.55C410.183,310.75 416.8,305.083 422.4,295.55C433.2,279.817 443.117,275.433 452.15,282.4C460.15,288.4 463.583,294.067 462.45,299.4C459.783,303.067 456.733,304.267 453.3,303C454.067,312.667 457.75,316.233 464.35,313.7C468.783,311.9 472.15,306.05 474.45,296.15C474.817,293.217 474.95,290.667 474.85,288.5L474.85,284.9C473.817,279.067 471.2,273.6 467,268.5C463.567,264.567 460.017,261.7 456.35,259.9C451.65,257.633 446.367,256.883 440.5,257.65M254.6,324C263.267,317 273.383,311.15 284.95,306.45C298.55,307.217 311.133,302 322.7,290.8C330.2,282.3 334.7,271.25 336.2,257.65C345.233,269.317 349.817,284.567 349.95,303.4C349.817,311.767 348.867,320.983 347.1,331.05C335.9,337.017 325.533,337.45 316,332.35C294.767,326.783 277.483,332 264.15,348L263.95,348.4C250.75,364.033 246.433,373.817 251,377.75C256.467,379.017 262.25,376.783 268.35,371.05C268.85,381.75 264.4,389.517 255,394.35L251,395.85C242.367,399.417 234.483,396.933 227.35,388.4C224.417,384.867 222.95,380.683 222.95,375.85C222.95,369.25 225.567,361.5 230.8,352.6C231.567,351.067 232.45,349.533 233.45,348C239.05,338.867 246.1,330.867 254.6,324M339.25,392.45C319.95,386.85 316.717,375.783 329.55,359.25C335.383,359.75 343.45,357.717 353.75,353.15C354.017,367.65 349.183,380.75 339.25,392.45M418,327.2C413.7,331.4 408.117,334.783 401.25,337.35C402.783,350.95 407.8,359.783 416.3,363.85C426.833,346.183 427.4,333.967 418,327.2Z" style="fill:none;fill-rule:nonzero;stroke:black;stroke-opacity:0.3;stroke-width:0.05px;"/>
                    <path d="M280.2,28.25C285.533,18.717 291.75,9.3 298.85,0C298.35,52 307.5,92.617 326.3,121.85L258.85,159.4C255.417,145.533 253.817,131.683 254.05,117.85C254.317,87.717 263.033,57.85 280.2,28.25" style="fill:rgb(75,52,38);"/>
                    <path d="M298.85,0C291.75,9.3 285.533,18.717 280.2,28.25C217.9,41.583 151.983,87.15 82.45,164.95C130.017,69.217 202.15,14.233 298.85,0" style="fill:rgb(148,102,75);"/>
                    <path d="M280.2,28.25C263.033,57.85 254.317,87.717 254.05,117.85C253.817,131.683 255.417,145.533 258.85,159.4C223.383,139.433 184.233,142.683 141.4,169.15C135.533,174.35 129.8,179.933 124.2,185.9C103.233,207.9 87.283,232.25 76.35,258.95C71.017,256.783 68.733,237.4 69.5,200.8C71.667,189.867 75.983,177.917 82.45,164.95C151.983,87.15 217.9,41.583 280.2,28.25" style="fill:rgb(107,74,54);"/>
                    <path d="M258.85,159.4L326.3,121.85C307.5,92.617 298.35,52 298.85,0C202.15,14.233 130.017,69.217 82.45,164.95C75.983,177.917 71.667,189.867 69.5,200.8C68.733,237.4 71.017,256.783 76.35,258.95C87.283,232.25 103.233,207.9 124.2,185.9C129.8,179.933 135.533,174.35 141.4,169.15C184.233,142.683 223.383,139.433 258.85,159.4Z" style="fill:none;fill-rule:nonzero;stroke:black;stroke-opacity:0.3;stroke-width:0.05px;"/>
                </g>
            </g>
        </g>
    </g>
</svg>
