<?xml version="1.0" encoding="UTF-8" standalone="no"?>
<!DOCTYPE svg PUBLIC "-//W3C//DTD SVG 1.1//EN" "http://www.w3.org/Graphics/SVG/1.1/DTD/svg11.dtd">
<svg width="100%" height="100%" viewBox="0 0 18 21" version="1.1" xmlns="http://www.w3.org/2000/svg" xmlns:xlink="http://www.w3.org/1999/xlink" xml:space="preserve" xmlns:serif="http://www.serif.com/" style="fill-rule:evenodd;clip-rule:evenodd;stroke-linecap:round;stroke-linejoin:round;">
    <g id="sprite0" transform="matrix(1,0,0,1,8.85,10.05)">
        <g>
            <g id="shape0">
                <path d="M5.5,-3.75L6,-3.6L6.05,-3.6L7,-3.2L7.95,-2.4C8.217,-2 8.35,-1.55 8.35,-1.05L8.35,-0.6L7.75,0.85L7.75,1.35C7.65,2.083 6.833,2.767 5.3,3.4C3.7,4.067 1.783,4.45 -0.45,4.55L-1.15,4.6L-1,5C0.333,5.7 1.567,5.95 2.7,5.75L3.15,4.6L4.2,5.05L4.45,4.65L4.7,4.55L4.75,4.5L5.05,4.45L5.2,4.35L5.6,4.45L6.25,5.1L6.55,6.15L6.25,7L6.1,7.15L5.95,7.15L5.7,7.25L5.65,7.25L5.55,7.35L5,7.85L4.1,9.6L2.15,9.1L2.1,9.15L1.9,9.3L1.8,9.3L1.45,9.4L1.35,9.45L0.95,9.4L0.25,8.7L0.1,8.4L0,8L-1.35,6.85L-1.65,7.15L-1.85,7.2L-2.45,7.5L-3.05,7.5C-3.45,7.4 -3.8,7.133 -4.1,6.7L-4.5,5.7L-4.5,4.65L-4.4,4.4L-6.1,4C-7.5,3.567 -8.25,3 -8.35,2.3L-8.35,1.15C-8.317,0.417 -7.617,-0.267 -6.25,-0.9L-6.3,-1.9L-5.95,-2.25C-5.85,-3.817 -5.9,-5.517 -6.1,-7.35L-6.1,-7.7C-6,-8.167 -5.417,-8.567 -4.35,-8.9L-0.25,-9.55L3.8,-9.1C4.9,-8.767 5.433,-8.333 5.4,-7.8L5.35,-7.55L5.25,-3.75L5.5,-3.75" style="fill:rgb(40,10,2);"/>
                <path d="M5.5,-3.75L6,-3.6L6.05,-3.6L7,-3.2L7.95,-2.4C8.217,-2 8.35,-1.55 8.35,-1.05L8.35,-0.6L7.75,0.85L7.75,1.35C7.65,2.083 6.833,2.767 5.3,3.4C3.7,4.067 1.783,4.45 -0.45,4.55L-1.15,4.6L-1,5C0.333,5.7 1.567,5.95 2.7,5.75L3.15,4.6L4.2,5.05L4.45,4.65L4.7,4.55L4.75,4.5L5.05,4.45L5.2,4.35L5.6,4.45L6.25,5.1L6.55,6.15L6.25,7L6.1,7.15L5.95,7.15L5.7,7.25L5.65,7.25L5.55,7.35L5,7.85L4.1,9.6L2.15,9.1L2.1,9.15L1.9,9.3L1.8,9.3L1.45,9.4L1.35,9.45L0.95,9.4L0.25,8.7L0.1,8.4L0,8L-1.35,6.85L-1.65,7.15L-1.85,7.2L-2.45,7.5L-3.05,7.5C-3.45,7.4 -3.8,7.133 -4.1,6.7L-4.5,5.7L-4.5,4.65L-4.4,4.4L-6.1,4C-7.5,3.567 -8.25,3 -8.35,2.3L-8.35,1.15C-8.317,0.417 -7.617,-0.267 -6.25,-0.9L-6.3,-1.9L-5.95,-2.25C-5.85,-3.817 -5.9,-5.517 -6.1,-7.35L-6.1,-7.7C-6,-8.167 -5.417,-8.567 -4.35,-8.9L-0.25,-9.55L3.8,-9.1C4.9,-8.767 5.433,-8.333 5.4,-7.8L5.35,-7.55L5.25,-3.75L5.5,-3.75Z" style="fill:none;fill-rule:nonzero;stroke:rgb(40,10,2);stroke-width:1px;"/>
            </g>
            <g id="sprite1" transform="matrix(0.0321,0,0,0.032,-8.65006,-9.7002)">
                <g id="shape1">
                    <path d="M236.95,458.2C308.183,496.6 370.967,492.967 425.3,447.3C431.233,467.567 433.6,487.55 432.4,507.25C392.433,559.983 336.133,567.45 263.5,529.65C277.667,534.383 292.333,532.617 307.5,524.35C288,522.783 265.467,510.683 239.9,488.05L236.95,458.2" style="fill:rgb(73,49,40);"/>
                    <path d="M432.4,507.25C430.433,539.917 418.717,572.1 397.25,603.8C316.15,591.2 253.267,554.883 208.6,494.85C200.7,460.583 210.15,448.367 236.95,458.2L239.9,488.05C265.467,510.683 288,522.783 307.5,524.35C292.333,532.617 277.667,534.383 263.5,529.65C336.133,567.45 392.433,559.983 432.4,507.25" style="fill:rgb(40,30,19);"/>
                    <path d="M432.4,507.25C430.433,539.917 418.717,572.1 397.25,603.8C316.15,591.2 253.267,554.883 208.6,494.85C200.7,460.583 210.15,448.367 236.95,458.2C308.183,496.6 370.967,492.967 425.3,447.3C431.233,467.567 433.6,487.55 432.4,507.25Z" style="fill:none;fill-rule:nonzero;stroke:black;stroke-opacity:0.3;stroke-width:0.05px;"/>
                    <path d="M156.3,415.4L169.3,409.6C171.667,408.067 174.133,406.933 176.7,406.2C182,404.4 187.8,404.3 194.1,405.9C201.6,407.867 208.5,411.717 214.8,417.45C218.933,421.383 222.767,426.2 226.3,431.9C235.167,446.167 239.6,461.867 239.6,479C239.6,496.133 235.167,509.567 226.3,519.3C223.533,522.367 220.683,524.833 217.75,526.7C215.783,527.9 213.717,528.767 211.55,529.3L196.8,536.1C199.533,534.6 202.083,532.8 204.45,530.7C204.85,529.933 205.35,529.283 205.95,528.75C214.783,519.017 219.2,505.583 219.2,488.45C219.2,471.35 214.783,455.65 205.95,441.35C197.083,427.083 186.45,418.333 174.05,415.1C170.683,414.367 167.333,414.033 164,414.1C161.433,414 158.867,414.433 156.3,415.4" style="fill:rgb(44,61,67);"/>
                    <path d="M196.8,536.1L192.95,538.1C187.05,540.233 180.75,540.367 174.05,538.5C161.65,535.3 151.017,526.65 142.15,512.55C136.05,502.883 132.017,492.75 130.05,482.15C129.05,476.717 128.55,471.15 128.55,465.45C128.55,459.75 129.05,454.483 130.05,449.65C132.017,439.783 136.05,431.617 142.15,425.15C145.483,421.35 149.033,418.55 152.8,416.75C153.967,416.117 155.133,415.667 156.3,415.4C158.867,414.433 161.433,414 164,414.1C167.333,414.033 170.683,414.367 174.05,415.1C186.45,418.333 197.083,427.083 205.95,441.35C214.783,455.65 219.2,471.35 219.2,488.45C219.2,505.583 214.783,519.017 205.95,528.75C205.35,529.283 204.85,529.933 204.45,530.7C202.083,532.8 199.533,534.6 196.8,536.1M193.8,483.8C193.8,473.367 191.15,463.75 185.85,454.95C180.35,446.35 173.85,441.083 166.35,439.15C160.25,437.517 154.933,438.65 150.4,442.55C149.233,443.217 148.15,444.083 147.15,445.15C141.65,451.083 138.9,459.267 138.9,469.7C138.9,480.133 141.65,489.667 147.15,498.3C152.483,506.9 158.883,512.183 166.35,514.15L171.1,514.85C176.6,515.05 181.517,512.8 185.85,508.1C191.15,502.333 193.8,494.233 193.8,483.8" style="fill:rgb(67,95,104);"/>
                    <path d="M193.8,483.8C193.8,494.233 191.15,502.333 185.85,508.1C181.517,512.8 176.6,515.05 171.1,514.85L166.35,514.15C158.883,512.183 152.483,506.9 147.15,498.3C141.65,489.667 138.9,480.133 138.9,469.7C138.9,459.267 141.65,451.083 147.15,445.15C148.15,444.083 149.233,443.217 150.4,442.55C154.933,438.65 160.25,437.517 166.35,439.15C173.85,441.083 180.35,446.35 185.85,454.95C191.15,463.75 193.8,473.367 193.8,483.8M177.6,494.9C180.733,491.667 182.3,487 182.3,480.9C182.3,474.8 180.733,469.233 177.6,464.2C174.433,459.133 170.683,456.083 166.35,455.05C162.817,454.117 159.767,454.8 157.2,457.1C156.433,457.4 155.75,457.917 155.15,458.65C151.983,462.083 150.4,466.75 150.4,472.65C150.4,478.75 151.983,484.317 155.15,489.35C158.283,494.217 162.017,497.267 166.35,498.5L169,498.75C172.167,498.883 175.033,497.6 177.6,494.9" style="fill:rgb(128,32,89);"/>
                    <path d="M177.6,494.9C175.033,497.6 172.167,498.883 169,498.75L166.35,498.5C162.017,497.267 158.283,494.217 155.15,489.35C151.983,484.317 150.4,478.75 150.4,472.65C150.4,466.75 151.983,462.083 155.15,458.65C155.75,457.917 156.433,457.4 157.2,457.1C159.767,454.8 162.817,454.117 166.35,455.05C170.683,456.083 174.433,459.133 177.6,464.2C180.733,469.233 182.3,474.8 182.3,480.9C182.3,487 180.733,491.667 177.6,494.9" style="fill:rgb(215,55,150);"/>
                    <path d="M156.3,415.4L169.3,409.6C171.667,408.067 174.133,406.933 176.7,406.2C182,404.4 187.8,404.3 194.1,405.9C201.6,407.867 208.5,411.717 214.8,417.45C218.933,421.383 222.767,426.2 226.3,431.9C235.167,446.167 239.6,461.867 239.6,479C239.6,496.133 235.167,509.567 226.3,519.3C223.533,522.367 220.683,524.833 217.75,526.7C215.783,527.9 213.717,528.767 211.55,529.3L196.8,536.1L192.95,538.1C187.05,540.233 180.75,540.367 174.05,538.5C161.65,535.3 151.017,526.65 142.15,512.55C136.05,502.883 132.017,492.75 130.05,482.15C129.05,476.717 128.55,471.15 128.55,465.45C128.55,459.75 129.05,454.483 130.05,449.65C132.017,439.783 136.05,431.617 142.15,425.15C145.483,421.35 149.033,418.55 152.8,416.75C153.967,416.117 155.133,415.667 156.3,415.4M193.8,483.8C193.8,494.233 191.15,502.333 185.85,508.1C181.517,512.8 176.6,515.05 171.1,514.85L166.35,514.15C158.883,512.183 152.483,506.9 147.15,498.3C141.65,489.667 138.9,480.133 138.9,469.7C138.9,459.267 141.65,451.083 147.15,445.15C148.15,444.083 149.233,443.217 150.4,442.55C154.933,438.65 160.25,437.517 166.35,439.15C173.85,441.083 180.35,446.35 185.85,454.95C191.15,463.75 193.8,473.367 193.8,483.8Z" style="fill:none;fill-rule:nonzero;stroke:black;stroke-opacity:0.3;stroke-width:0.05px;"/>
                    <path d="M417.65,444.65L426.5,442.2C428.1,441.2 429.683,440.6 431.25,440.4C434.983,439.867 439.017,440.567 443.35,442.5C451.817,445.9 459,452.883 464.9,463.45C471,474.05 474.05,485.15 474.05,496.75C474.05,508.383 471,517.05 464.9,522.75C463.133,524.35 461.267,525.7 459.3,526.8C457.9,527.4 456.517,527.717 455.15,527.75L445.1,530.65C446.9,530.083 448.583,529.117 450.15,527.75C450.55,527.583 450.833,527.233 451,526.7C457.1,520.967 460.15,512.283 460.15,500.65C460.15,489.05 457.1,477.95 451,467.35C445.1,456.983 437.917,450 429.45,446.4C427.317,445.533 425.167,444.867 423,444.4L417.65,444.65" style="fill:rgb(177,107,63);"/>
                    <path d="M445.1,530.65C444.333,531.183 443.45,531.583 442.45,531.85C438.517,532.517 434.183,531.883 429.45,529.95C421.017,526.55 413.85,519.567 407.95,509C401.817,498.167 398.75,486.95 398.75,475.35C398.75,463.75 401.817,455.183 407.95,449.65C410.083,447.55 412.533,446.083 415.3,445.25C416.1,444.95 416.883,444.75 417.65,444.65L423,444.4C425.167,444.867 427.317,445.533 429.45,446.4C437.917,450 445.1,456.983 451,467.35C457.1,477.95 460.15,489.05 460.15,500.65C460.15,512.283 457.1,520.967 451,526.7C450.833,527.233 450.55,527.583 450.15,527.75C448.583,529.117 446.9,530.083 445.1,530.65" style="fill:rgb(84,50,30);"/>
                    <path d="M445.1,530.65C444.333,531.183 443.45,531.583 442.45,531.85C438.517,532.517 434.183,531.883 429.45,529.95C421.017,526.55 413.85,519.567 407.95,509C401.817,498.167 398.75,486.95 398.75,475.35C398.75,463.75 401.817,455.183 407.95,449.65C410.083,447.55 412.533,446.083 415.3,445.25C416.1,444.95 416.883,444.75 417.65,444.65L426.5,442.2C428.1,441.2 429.683,440.6 431.25,440.4C434.983,439.867 439.017,440.567 443.35,442.5C451.817,445.9 459,452.883 464.9,463.45C471,474.05 474.05,485.15 474.05,496.75C474.05,508.383 471,517.05 464.9,522.75C463.133,524.35 461.267,525.7 459.3,526.8C457.9,527.4 456.517,527.717 455.15,527.75L445.1,530.65Z" style="fill:none;fill-rule:nonzero;stroke:black;stroke-opacity:0.3;stroke-width:0.05px;"/>
                    <path d="M314.55,527.8C313.183,523.267 311.7,521 310.1,521C347.1,496.2 366.3,471.7 367.7,447.5C388.367,460.5 406.867,465.617 423.2,462.85C436.367,472.883 444.433,484.6 447.4,498C427.333,514.533 410.017,525.45 395.45,530.75C362.383,536.05 335.417,535.067 314.55,527.8" style="fill:rgb(91,124,126);"/>
                    <path d="M447.4,498C452.5,513.733 450.917,525.633 442.65,533.7C405.85,566.767 368.767,583.2 331.4,583C324.3,560.967 318.683,542.567 314.55,527.8C335.417,535.067 362.383,536.05 395.45,530.75C410.017,525.45 427.333,514.533 447.4,498" style="fill:rgb(59,83,91);"/>
                    <path d="M314.55,527.8C313.183,523.267 311.7,521 310.1,521L305.7,524.55M447.4,498C452.5,513.733 450.917,525.633 442.65,533.7C405.85,566.767 368.767,583.2 331.4,583C324.3,560.967 318.683,542.567 314.55,527.8M447.4,498C444.433,484.6 436.367,472.883 423.2,462.85C406.867,465.617 388.367,460.5 367.7,447.5C366.3,471.7 347.1,496.2 310.1,521" style="fill:none;fill-rule:nonzero;stroke:black;stroke-opacity:0.3;stroke-width:0.05px;"/>
                    <path d="M401.4,516L404.35,526.1C405.783,530.3 407.033,534.633 408.1,539.1C405.567,543.633 402.333,546.05 398.4,546.35L397.55,531.35L396.8,519.3C396.233,512.667 395.433,505.65 394.4,498.25C396.933,503.983 399.267,509.9 401.4,516" style="fill:rgb(255,182,225);"/>
                    <path d="M387.15,531C387.55,524.467 387.733,517.75 387.7,510.85C387.667,499.817 387.183,488.25 386.25,476.15C392.317,485.317 397.733,494.933 402.5,505C405,510.333 407.3,515.767 409.4,521.3C411.967,528.2 414.367,535.3 416.6,542.6C407.8,550.533 397.2,554.967 384.8,555.9C385.9,547.967 386.683,539.667 387.15,531M401.4,516C399.267,509.9 396.933,503.983 394.4,498.25C395.433,505.65 396.233,512.667 396.8,519.3L397.55,531.35L398.4,546.35C402.333,546.05 405.567,543.633 408.1,539.1C407.033,534.633 405.783,530.3 404.35,526.1L401.4,516" style="fill:rgb(215,55,150);"/>
                    <path d="M387.15,531C386.683,539.667 385.9,547.967 384.8,555.9C397.2,554.967 407.8,550.533 416.6,542.6C414.367,535.3 411.967,528.2 409.4,521.3C407.3,515.767 405,510.333 402.5,505C397.733,494.933 392.317,485.317 386.25,476.15C387.183,488.25 387.667,499.817 387.7,510.85C387.733,517.75 387.55,524.467 387.15,531Z" style="fill:none;fill-rule:nonzero;stroke:black;stroke-opacity:0.3;stroke-width:0.05px;"/>
                    <path d="M273,566.75C270.033,558.95 268.55,551.017 268.55,542.95C268.55,531.317 271.6,522.633 277.7,516.9C279.867,514.8 282.333,513.317 285.1,512.45L287.45,511.9L292.75,511.65C294.917,512.117 297.083,512.767 299.25,513.6C307.717,517.2 314.9,524.183 320.8,534.55C324.733,541.35 327.4,548.383 328.8,555.65L312.85,564.05L312.85,562.25C312.85,555.183 310.983,548.45 307.25,542.05C303.683,535.517 299.35,531.15 294.25,528.95C289.917,527.25 286.267,527.4 283.3,529.4C282.533,529.867 281.75,530.45 280.95,531.15C277.417,534.65 275.65,539.95 275.65,547.05C275.65,552.75 276.833,558.3 279.2,563.7L273,566.75" style="fill:rgb(122,74,44);"/>
                    <path d="M287.45,511.9L296.3,509.45C297.867,508.45 299.45,507.85 301.05,507.65C304.783,507.117 308.817,507.8 313.15,509.7C321.617,513.133 328.8,520.117 334.7,530.65C340.8,541.25 343.85,552.367 343.85,564C343.85,575.6 340.8,584.267 334.7,590C332.9,591.767 331.017,593.117 329.05,594.05C327.683,594.683 326.317,595 324.95,595L314.9,597.95C316.667,597.35 318.333,596.367 319.9,595C320.3,594.867 320.6,594.5 320.8,593.9C326.9,588.367 329.95,579.8 329.95,568.2C329.95,563.867 329.567,559.683 328.8,555.65C327.4,548.383 324.733,541.35 320.8,534.55C314.9,524.183 307.717,517.2 299.25,513.6C297.083,512.767 294.917,512.117 292.75,511.65L287.45,511.9" style="fill:rgb(177,107,63);"/>
                    <path d="M279.2,563.7C276.833,558.3 275.65,552.75 275.65,547.05C275.65,539.95 277.417,534.65 280.95,531.15C281.75,530.45 282.533,529.867 283.3,529.4C286.267,527.4 289.917,527.25 294.25,528.95C299.35,531.15 303.683,535.517 307.25,542.05C310.983,548.45 312.85,555.183 312.85,562.25L312.85,564.05C312.45,570.25 310.583,574.933 307.25,578.1C304.483,580.7 301.233,581.567 297.5,580.7C296.5,580.767 295.417,580.55 294.25,580.05C289.117,577.817 284.683,573.517 280.95,567.15L279.2,563.7M287.75,539.1C287.15,539.4 286.65,539.817 286.25,540.35C284.083,542.45 283,545.667 283,550C283,554.133 284.083,558.2 286.25,562.2C288.417,566 291.083,568.6 294.25,570L296.3,570.25C298.467,570.917 300.433,570.367 302.2,568.6C304.567,566.533 305.75,563.333 305.75,559C305.75,554.867 304.567,550.783 302.2,546.75C300.033,542.917 297.383,540.333 294.25,539C291.683,537.867 289.517,537.9 287.75,539.1" style="fill:rgb(215,55,150);"/>
                    <path d="M287.75,539.1C289.517,537.9 291.683,537.867 294.25,539C297.383,540.333 300.033,542.917 302.2,546.75C304.567,550.783 305.75,554.867 305.75,559C305.75,563.333 304.567,566.533 302.2,568.6C300.433,570.367 298.467,570.917 296.3,570.25L294.25,570C291.083,568.6 288.417,566 286.25,562.2C284.083,558.2 283,554.133 283,550C283,545.667 284.083,542.45 286.25,540.35C286.65,539.817 287.15,539.4 287.75,539.1" style="fill:rgb(255,182,225);"/>
                    <path d="M314.9,597.95L312.25,599.05C308.317,599.783 303.983,599.15 299.25,597.15C290.783,593.75 283.6,586.767 277.7,576.2C275.933,573.067 274.367,569.917 273,566.75L279.2,563.7L280.95,567.15C284.683,573.517 289.117,577.817 294.25,580.05C295.417,580.55 296.5,580.767 297.5,580.7C301.233,581.567 304.483,580.7 307.25,578.1C310.583,574.933 312.45,570.25 312.85,564.05L328.8,555.65C329.567,559.683 329.95,563.867 329.95,568.2C329.95,579.8 326.9,588.367 320.8,593.9C320.6,594.5 320.3,594.867 319.9,595C318.333,596.367 316.667,597.35 314.9,597.95" style="fill:rgb(84,50,30);"/>
                    <path d="M273,566.75C270.033,558.95 268.55,551.017 268.55,542.95C268.55,531.317 271.6,522.633 277.7,516.9C279.867,514.8 282.333,513.317 285.1,512.45L287.45,511.9L296.3,509.45C297.867,508.45 299.45,507.85 301.05,507.65C304.783,507.117 308.817,507.8 313.15,509.7C321.617,513.133 328.8,520.117 334.7,530.65C340.8,541.25 343.85,552.367 343.85,564C343.85,575.6 340.8,584.267 334.7,590C332.9,591.767 331.017,593.117 329.05,594.05C327.683,594.683 326.317,595 324.95,595L314.9,597.95L312.25,599.05C308.317,599.783 303.983,599.15 299.25,597.15C290.783,593.75 283.6,586.767 277.7,576.2C275.933,573.067 274.367,569.917 273,566.75M279.2,563.7C276.833,558.3 275.65,552.75 275.65,547.05C275.65,539.95 277.417,534.65 280.95,531.15C281.75,530.45 282.533,529.867 283.3,529.4C286.267,527.4 289.917,527.25 294.25,528.95C299.35,531.15 303.683,535.517 307.25,542.05C310.983,548.45 312.85,555.183 312.85,562.25L312.85,564.05C312.45,570.25 310.583,574.933 307.25,578.1C304.483,580.7 301.233,581.567 297.5,580.7C296.5,580.767 295.417,580.55 294.25,580.05C289.117,577.817 284.683,573.517 280.95,567.15L279.2,563.7Z" style="fill:none;fill-rule:nonzero;stroke:black;stroke-opacity:0.3;stroke-width:0.05px;"/>
                    <path d="M511.8,313.95L511.8,342.6L511.5,345.55C508.167,368.95 482.583,390.483 434.75,410.15C384.583,430.717 324.967,442.9 255.9,446.7C186.233,450.133 127.483,444.283 79.65,429.15C35.583,415.383 12.367,397.517 10,375.55C9.8,375.017 9.7,374.45 9.7,373.85C9.5,372.283 9.5,370.717 9.7,369.15L9.7,367.95L10,347.55C10.4,350.483 11.283,353.3 12.65,356C20.317,373.3 42.65,387.85 79.65,399.65C127.483,414.783 186.233,420.633 255.9,417.2C324.967,413.4 384.583,401.217 434.75,380.65C475.683,363.65 500.283,345.417 508.55,325.95C510.15,321.95 511.233,317.95 511.8,313.95" style="fill:rgb(40,30,19);"/>
                    <path d="M10,347.55C9.8,346.183 9.7,344.817 9.7,343.45C9.5,342.083 9.5,340.8 9.7,339.6C10.7,314.167 36.283,291.35 86.45,271.15C136.25,250.783 195.983,238.883 265.65,235.45C334.717,231.45 393.35,237.033 441.55,252.2C485.05,265.8 508.367,283.733 511.5,306L511.5,308.05L511.8,313.1C511.6,313.3 511.6,313.583 511.8,313.95C511.233,317.95 510.15,321.95 508.55,325.95C500.283,345.417 475.683,363.65 434.75,380.65C384.583,401.217 324.967,413.4 255.9,417.2C186.233,420.633 127.483,414.783 79.65,399.65C42.65,387.85 20.317,373.3 12.65,356C11.283,353.3 10.4,350.483 10,347.55" style="fill:rgb(73,49,40);"/>
                    <path d="M10,347.55C9.8,346.183 9.7,344.817 9.7,343.45C9.5,342.083 9.5,340.8 9.7,339.6C10.7,314.167 36.283,291.35 86.45,271.15C136.25,250.783 195.983,238.883 265.65,235.45C334.717,231.45 393.35,237.033 441.55,252.2C485.05,265.8 508.367,283.733 511.5,306L511.5,308.05L511.8,313.1C511.6,313.3 511.6,313.583 511.8,313.95L511.8,342.6L511.5,345.55C508.167,368.95 482.583,390.483 434.75,410.15C384.583,430.717 324.967,442.9 255.9,446.7C186.233,450.133 127.483,444.283 79.65,429.15C35.583,415.383 12.367,397.517 10,375.55C9.8,375.017 9.7,374.45 9.7,373.85C9.5,372.283 9.5,370.717 9.7,369.15L9.7,367.95L10,347.55Z" style="fill:none;fill-rule:nonzero;stroke:black;stroke-opacity:0.3;stroke-width:0.05px;"/>
                    <path d="M443.6,252.95C447.933,254.35 452.167,255.833 456.3,257.4L456,303.45L456.3,306.4L456.3,307.85C454.933,323.883 434.467,338.167 394.9,350.7C363.233,360.533 326.733,367.067 285.4,370.3L261.2,371.5L258.55,371.6L257.35,371.7L255.9,371.75L252.95,371.9L228.75,373.1C200.383,373.7 174.4,372.517 150.8,369.55L133.4,381.9L93.85,366.15L93.85,357.3C71.017,349.367 59.1,339.417 58.1,327.45L58.1,326C58.1,325 58.2,324.017 58.4,323.05L58.1,284.35C62.833,281.783 67.95,279.283 73.45,276.85C77.183,281.75 84.267,286.017 94.7,289.65L103.55,292.45L121.6,279.15L158.45,291.8L158.45,302.15C180.117,304.417 203.55,305.333 228.75,304.9L252.95,303.7L255.9,303.55L257.35,303.5L258.55,303.4L261.2,303.3L285.4,302.1C326.733,298.9 363.233,292.383 394.9,282.55C404.167,279.717 412.333,276.75 419.4,273.65C433.4,267.45 441.467,260.55 443.6,252.95" style="fill-opacity:0.3;"/>
                    <path d="M79,63.35C82.333,48.617 100.433,35.7 133.3,24.6C168.933,12.267 211.733,5.65 261.7,4.75C311.1,3.283 353.117,7.9 387.75,18.6C421.983,29.1 438.817,42.633 438.25,59.2C438.05,61.767 437.45,64.267 436.45,66.7C430.75,79.767 412.95,91.55 383.05,102.05C347.017,114.283 304.2,121.133 254.6,122.6C204.833,123.467 162.733,118.533 128.3,107.8C98.767,98.667 82.333,87.483 79,74.25L79,63.35M341.7,76.95C365.5,70.283 377.8,62.8 378.6,54.5C379,46 367.783,39.067 344.95,33.7C321.717,28.133 293.583,25.783 260.55,26.65C227.283,27.283 198.65,30.767 174.65,37.1C150.617,43.767 138.417,51.45 138.05,60.15C137.25,68.45 148.367,75.283 171.4,80.65C194.4,85.983 222.533,88.433 255.8,88C289.067,87.333 317.7,83.65 341.7,76.95" style="fill:rgb(106,74,52);"/>
                    <path d="M341.7,76.95C317.7,83.65 289.067,87.333 255.8,88C222.533,88.433 194.4,85.983 171.4,80.65C148.367,75.283 137.25,68.45 138.05,60.15C138.417,51.45 150.617,43.767 174.65,37.1C198.65,30.767 227.283,27.283 260.55,26.65C293.583,25.783 321.717,28.133 344.95,33.7C367.783,39.067 379,46 378.6,54.5C377.8,62.8 365.5,70.283 341.7,76.95" style="fill:rgb(40,30,19);"/>
                    <path d="M436.45,66.7C431.35,161.2 431.95,231.417 438.25,277.35L438.25,281.2C435.683,296.5 417.283,310.183 383.05,322.25C369.05,327.083 353.983,331.083 337.85,334.25C318.183,337.983 296.933,340.617 274.1,342.15L254.6,342.8C204.833,343.7 162.733,338.783 128.3,328.05C97.2,318.35 80.667,306.467 78.7,292.4L78.4,291L78.4,287.75C88.433,224.05 88.633,152.883 79,74.25C82.333,87.483 98.767,98.667 128.3,107.8C162.733,118.533 204.833,123.467 254.6,122.6C304.2,121.133 347.017,114.283 383.05,102.05C412.95,91.55 430.75,79.767 436.45,66.7" style="fill:rgb(73,49,40);"/>
                    <path d="M79,63.35C82.333,48.617 100.433,35.7 133.3,24.6C168.933,12.267 211.733,5.65 261.7,4.75C311.1,3.283 353.117,7.9 387.75,18.6C421.983,29.1 438.817,42.633 438.25,59.2C438.05,61.767 437.45,64.267 436.45,66.7C431.35,161.2 431.95,231.417 438.25,277.35L438.25,281.2C435.683,296.5 417.283,310.183 383.05,322.25C369.05,327.083 353.983,331.083 337.85,334.25C318.183,337.983 296.933,340.617 274.1,342.15L254.6,342.8C204.833,343.7 162.733,338.783 128.3,328.05C97.2,318.35 80.667,306.467 78.7,292.4L78.4,291L78.4,287.75C88.433,224.05 88.633,152.883 79,74.25C78.4,72.117 78.2,69.867 78.4,67.5C78.4,66.133 78.6,64.75 79,63.35L79,74.25" style="fill:none;fill-rule:nonzero;stroke:black;stroke-opacity:0.3;stroke-width:0.05px;"/>
                    <path d="M73.85,244.8L73.85,244.2C73.65,241.033 77.633,236.817 85.8,231.55C82.9,243.15 90.267,252.733 107.9,260.3C114.5,263.1 122.083,265.7 130.65,268.1C160.117,276.533 193.967,281.433 232.2,282.8L254.65,282.95L259.9,282.95L262.5,283L284.9,283.1C323.133,282.167 357,277.65 386.5,269.55C395.033,267.217 402.6,264.683 409.2,261.95C426.867,254.583 434.25,245.1 431.35,233.5C439.483,238.833 443.45,243.083 443.25,246.25L443.25,246.85C442.283,255.483 436.083,263.317 424.65,270.35C415.317,275.983 402.6,281.133 386.5,285.8C357,293.9 323.133,298.417 284.9,299.35L262.5,299.25L259.9,299.2L254.65,299.2L232.2,299.05C193.967,297.683 160.117,292.783 130.65,284.35C114.517,279.517 101.8,274.233 92.5,268.5C81.033,261.333 74.817,253.433 73.85,244.8" style="fill:rgb(177,107,63);"/>
                    <path d="M443.25,246.85L443,293.75L443.25,296.7L443.25,298.2C442.083,314.133 423.167,327.3 386.5,337.7C357,345.8 323.133,350.333 284.9,351.3L262.5,351.2L259.9,351.15L254.65,351.15L232.2,351C193.967,349.6 160.117,344.683 130.65,336.25C93.95,325.45 75.017,312.083 73.85,296.15L73.85,294.65C73.85,293.683 73.95,292.7 74.15,291.7L73.85,244.8C74.817,253.433 81.033,261.333 92.5,268.5C101.8,274.233 114.517,279.517 130.65,284.35C160.117,292.783 193.967,297.683 232.2,299.05L254.65,299.2L259.9,299.2L262.5,299.25L284.9,299.35C323.133,298.417 357,293.9 386.5,285.8C402.6,281.133 415.317,275.983 424.65,270.35C436.083,263.317 442.283,255.483 443.25,246.85" style="fill:rgb(122,74,44);"/>
                    <path d="M73.85,244.8L73.85,244.2C73.65,241.033 77.633,236.817 85.8,231.55C82.9,243.15 90.267,252.733 107.9,260.3C114.5,263.1 122.083,265.7 130.65,268.1C160.117,276.533 193.967,281.433 232.2,282.8L254.65,282.95L259.9,282.95L262.5,283L284.9,283.1C323.133,282.167 357,277.65 386.5,269.55C395.033,267.217 402.6,264.683 409.2,261.95C426.867,254.583 434.25,245.1 431.35,233.5C439.483,238.833 443.45,243.083 443.25,246.25L443.25,246.85L443,293.75L443.25,296.7L443.25,298.2C442.083,314.133 423.167,327.3 386.5,337.7C357,345.8 323.133,350.333 284.9,351.3L262.5,351.2L259.9,351.15L254.65,351.15L232.2,351C193.967,349.6 160.117,344.683 130.65,336.25C93.95,325.45 75.017,312.083 73.85,296.15L73.85,294.65C73.85,293.683 73.95,292.7 74.15,291.7L73.85,244.8Z" style="fill:none;fill-rule:nonzero;stroke:black;stroke-opacity:0.3;stroke-width:0.05px;"/>
                    <path d="M148.05,263.85L148.05,274.15L145.1,273.55L120.9,285.4L120.9,333.8L135.4,338.8L114.15,350L114.15,280.65L148.05,263.85" style="fill:rgb(59,83,91);"/>
                    <path d="M78.4,263.55L112.95,246.4L148.05,263.85L114.15,280.65L78.4,263.55" style="fill:rgb(126,172,175);"/>
                    <path d="M114.15,350L76.95,330.85L78.4,263.55L114.15,280.65L114.15,350" style="fill:rgb(91,124,126);"/>
                    <path d="M148.05,263.85L148.05,274.15L145.1,273.55L120.9,285.4L120.9,333.8L135.4,338.8L114.15,350L76.95,330.85L78.4,263.55L112.95,246.4L148.05,263.85Z" style="fill:none;fill-rule:nonzero;stroke:black;stroke-opacity:0.3;stroke-width:0.05px;"/>
                    <path d="M368.2,262.1L368.8,258.15C370.867,236.217 379.2,218.367 393.8,204.6C407.767,189.9 423.7,183.85 441.6,186.45C446.733,186.817 451.767,188.117 456.7,190.35L457.9,190.65L488.15,202.9C484.017,201.433 479.9,200.6 475.8,200.4C474.367,199.833 473.033,199.65 471.8,199.85C455.767,198.717 441.267,204.95 428.3,218.55C413.733,232.117 405.417,249.883 403.35,271.85C386.917,272.95 375.2,269.7 368.2,262.1" style="fill:rgb(126,172,175);"/>
                    <path d="M488.15,202.9C499.65,206.833 509.517,215.117 517.75,227.75C525.75,240.417 529.95,254.75 530.35,270.75C526.25,275.75 521.017,278.35 514.65,278.55C514.85,273.883 514.65,269.417 514.05,265.15C512.817,257.35 510.45,250.283 506.95,243.95C502.017,234.45 495.75,228.4 488.15,225.8C485.683,224.867 483,224.217 480.1,223.85L477.65,223.85C467.383,223.283 458.033,228.117 449.6,238.35C439.933,248.417 434.283,261.533 432.65,277.7L432.65,279.4C424.017,287.933 413.933,290.717 402.4,287.75C402.2,282.55 402.517,277.25 403.35,271.85C405.417,249.883 413.733,232.117 428.3,218.55C441.267,204.95 455.767,198.717 471.8,199.85C473.033,199.65 474.367,199.833 475.8,200.4C479.9,200.6 484.017,201.433 488.15,202.9" style="fill:rgb(91,124,126);"/>
                    <path d="M432.65,279.4L432.65,277.7C434.283,261.533 439.933,248.417 449.6,238.35C458.033,228.117 467.383,223.283 477.65,223.85L480.1,223.85C483,224.217 485.683,224.867 488.15,225.8C495.75,228.4 502.017,234.45 506.95,243.95C510.45,250.283 512.817,257.35 514.05,265.15C511.583,280.217 505.917,292.867 497.05,303.1C487.417,313.333 477.15,318.267 466.25,317.9C461.917,317.167 457.9,315.767 454.2,313.7L453,313.45C450.533,311.75 448.467,309.967 446.8,308.1C443.933,305.333 441.367,302.083 439.1,298.35C435.833,292.417 433.683,286.1 432.65,279.4M472.1,239.2L470.85,239.2C466.75,239 462.95,241.05 459.45,245.35C455.35,249.417 452.983,254.8 452.35,261.5C451.55,268.033 452.483,273.8 455.15,278.8C456.183,280.5 457.317,281.9 458.55,283L461,285.25L461.3,285.25C462.933,286.183 464.683,286.733 466.55,286.9C471.083,287.1 475.3,285.067 479.2,280.8C482.9,276.5 485.267,271.183 486.3,264.85C486.9,257.983 485.867,252.217 483.2,247.55C481.133,243.65 478.567,241.15 475.5,240.05L472.1,239.2" style="fill:rgb(215,55,150);"/>
                    <path d="M472.1,239.2L475.5,240.05C478.567,241.15 481.133,243.65 483.2,247.55C485.867,252.217 486.9,257.983 486.3,264.85C485.267,271.183 482.9,276.5 479.2,280.8C475.3,285.067 471.083,287.1 466.55,286.9C464.683,286.733 462.933,286.183 461.3,285.25L461,285.25L458.55,283C457.317,281.9 456.183,280.5 455.15,278.8C452.483,273.8 451.55,268.033 452.35,261.5C452.983,254.8 455.35,249.417 459.45,245.35C462.95,241.05 466.75,239 470.85,239.2L472.1,239.2" style="fill:rgb(255,182,225);"/>
                    <path d="M436.05,350.25L411.35,340.2L405.5,338.55C395.233,333.883 386.8,326.167 380.2,315.4C371.6,302.167 367.4,287.833 367.6,272.4C367.6,268.867 367.8,265.433 368.2,262.1C375.2,269.7 386.917,272.95 403.35,271.85C402.517,277.25 402.2,282.55 402.4,287.75C402.4,302.817 406.417,316.683 414.45,329.35C417.75,334.55 421.65,339.1 426.15,343C429.05,345.8 432.35,348.217 436.05,350.25" style="fill:rgb(44,61,67);"/>
                    <path d="M514.05,265.15C514.65,269.417 514.85,273.883 514.65,278.55L514.35,285.5C512.083,300.967 506.433,313.9 497.4,324.3C487.733,334.533 477.45,339.467 466.55,339.1C462.217,338.367 458.217,336.967 454.55,334.9L453.3,334.65C450.833,332.95 448.783,331.183 447.15,329.35C444.25,326.55 441.667,323.283 439.4,319.55C432.833,307.65 430.583,294.267 432.65,279.4C433.683,286.1 435.833,292.417 439.1,298.35C441.367,302.083 443.933,305.333 446.8,308.1C448.467,309.967 450.533,311.75 453,313.45L454.2,313.7C457.9,315.767 461.917,317.167 466.25,317.9C477.15,318.267 487.417,313.333 497.05,303.1C505.917,292.867 511.583,280.217 514.05,265.15" style="fill:rgb(128,32,89);"/>
                    <path d="M530.35,270.75L530.35,272.95L529.75,284.95C526.45,306.183 517.917,323.95 504.15,338.25C489.35,351.65 473.433,357.7 456.4,356.4C449.6,355.467 443.533,353.6 438.2,350.8C437.367,350.433 436.65,350.25 436.05,350.25C432.35,348.217 429.05,345.8 426.15,343C421.65,339.1 417.75,334.55 414.45,329.35C406.417,316.683 402.4,302.817 402.4,287.75C413.933,290.717 424.017,287.933 432.65,279.4C430.583,294.267 432.833,307.65 439.4,319.55C441.667,323.283 444.25,326.55 447.15,329.35C448.783,331.183 450.833,332.95 453.3,334.65L454.55,334.9C458.217,336.967 462.217,338.367 466.55,339.1C477.45,339.467 487.733,334.533 497.4,324.3C506.433,313.9 512.083,300.967 514.35,285.5L514.65,278.55C521.017,278.35 526.25,275.75 530.35,270.75" style="fill:rgb(59,83,91);"/>
                    <path d="M368.2,262.1L368.8,258.15C370.867,236.217 379.2,218.367 393.8,204.6C407.767,189.9 423.7,183.85 441.6,186.45C446.733,186.817 451.767,188.117 456.7,190.35L457.9,190.65L488.15,202.9C499.65,206.833 509.517,215.117 517.75,227.75C525.75,240.417 529.95,254.75 530.35,270.75L530.35,272.95L529.75,284.95C526.45,306.183 517.917,323.95 504.15,338.25C489.35,351.65 473.433,357.7 456.4,356.4C449.6,355.467 443.533,353.6 438.2,350.8C437.367,350.433 436.65,350.25 436.05,350.25L411.35,340.2L405.5,338.55C395.233,333.883 386.8,326.167 380.2,315.4C371.6,302.167 367.4,287.833 367.6,272.4C367.6,268.867 367.8,265.433 368.2,262.1M432.65,279.4L432.65,277.7C434.283,261.533 439.933,248.417 449.6,238.35C458.033,228.117 467.383,223.283 477.65,223.85L480.1,223.85C483,224.217 485.683,224.867 488.15,225.8C495.75,228.4 502.017,234.45 506.95,243.95C510.45,250.283 512.817,257.35 514.05,265.15C514.65,269.417 514.85,273.883 514.65,278.55L514.35,285.5C512.083,300.967 506.433,313.9 497.4,324.3C487.733,334.533 477.45,339.467 466.55,339.1C462.217,338.367 458.217,336.967 454.55,334.9L453.3,334.65C450.833,332.95 448.783,331.183 447.15,329.35C444.25,326.55 441.667,323.283 439.4,319.55C432.833,307.65 430.583,294.267 432.65,279.4Z" style="fill:none;fill-rule:nonzero;stroke:rgb(23,0,0);stroke-opacity:0.3;stroke-width:0.05px;"/>
                    <path d="M360.55,296.85L360.55,289.5L363.5,288.9C381.4,285.367 388.883,280.833 385.95,275.3C394.217,277.867 398.25,279.833 398.05,281.2L398.05,281.5C397.05,285.633 390.75,289.383 379.15,292.75C374.05,294.117 367.85,295.483 360.55,296.85" style="fill:rgb(126,172,175);"/>
                    <path d="M360.55,296.85C367.85,295.483 374.05,294.117 379.15,292.75C390.75,289.383 397.05,285.633 398.05,281.5L397.75,303.65L398.05,305.15L398.05,305.7C397.05,311.6 384.55,316.817 360.55,321.35L360.55,296.85" style="fill:rgb(91,124,126);"/>
                    <path d="M398.05,281.5L398.05,281.2C398.25,279.833 394.217,277.867 385.95,275.3C388.883,280.833 381.4,285.367 363.5,288.9L360.55,289.5M398.05,281.5L397.75,303.65L398.05,305.15L398.05,305.7C397.05,311.6 384.55,316.817 360.55,321.35" style="fill:none;fill-rule:nonzero;stroke:black;stroke-opacity:0.3;stroke-width:0.05px;"/>
                    <path d="M370.15,328.6C368.75,320.733 366.383,313.65 363.05,307.35C358.117,297.917 351.817,291.917 344.15,289.35C341.583,288.383 338.933,287.7 336.2,287.3L333.55,287.3C323.317,286.7 313.967,291.517 305.5,301.75C295.867,311.783 290.25,324.867 288.65,341L288.65,342.8C280.017,351.433 269.983,354.183 258.55,351.05C258.15,345.95 258.45,340.733 259.45,335.4C261.417,313.367 269.683,295.567 284.25,282C297.217,268.4 311.783,262.2 327.95,263.4C329.117,263.2 330.383,263.383 331.75,263.95C335.883,264.15 340.017,264.95 344.15,266.35C355.583,270.283 365.433,278.55 373.7,291.15C381.767,303.917 385.983,318.283 386.35,334.25C382.217,339.15 377.017,341.7 370.75,341.9C370.917,337.367 370.717,332.933 370.15,328.6" style="fill:rgb(91,124,126);"/>
                    <path d="M344.15,266.35C340.017,264.95 335.883,264.15 331.75,263.95C330.383,263.383 329.117,263.2 327.95,263.4C311.783,262.2 297.217,268.4 284.25,282C269.683,295.567 261.417,313.367 259.45,335.4C242.917,336.4 231.2,333.15 224.3,325.65L224.9,321.55C226.867,299.683 235.133,281.867 249.7,268.1C263.667,253.333 279.6,247.233 297.5,249.8C302.633,250.2 307.667,251.583 312.6,253.95L314.05,254.25L344.15,266.35" style="fill:rgb(126,172,175);"/>
                    <path d="M288.65,342.8L288.65,341C290.25,324.867 295.867,311.783 305.5,301.75C313.967,291.517 323.317,286.7 333.55,287.3L336.2,287.3C338.933,287.7 341.583,288.383 344.15,289.35C351.817,291.917 358.117,297.917 363.05,307.35C366.383,313.65 368.75,320.733 370.15,328.6C367.583,343.567 361.867,356.167 353,366.4C343.367,376.633 333.133,381.65 322.3,381.45C317.967,380.683 313.933,379.217 310.2,377.05L309.05,376.75C306.483,375.15 304.417,373.467 302.85,371.7C299.883,368.767 297.317,365.433 295.15,361.7C291.817,355.767 289.65,349.467 288.65,342.8M328.2,302.65L326.75,302.65C322.817,302.45 319.083,304.517 315.55,308.85C311.417,312.983 309.05,318.4 308.45,325.1C307.65,331.567 308.533,337.267 311.1,342.2C312.1,343.967 313.283,345.35 314.65,346.35C315.25,347.117 316.033,347.9 317,348.7L317.3,348.7C318.867,349.667 320.633,350.25 322.6,350.45C327.133,350.65 331.367,348.583 335.3,344.25C338.833,339.917 341.2,334.6 342.4,328.3C343,321.433 341.917,315.633 339.15,310.9C337.183,307.167 334.617,304.717 331.45,303.55C330.483,303.15 329.4,302.85 328.2,302.65" style="fill:rgb(215,55,150);"/>
                    <path d="M370.75,341.9C377.017,341.7 382.217,339.15 386.35,334.25L386.35,336.3L385.8,348.4C382.433,369.667 373.867,387.467 360.1,401.8C345.333,415.2 329.4,421.217 312.3,419.85C305.6,418.85 299.6,416.967 294.3,414.2C293.5,413.833 292.7,413.65 291.9,413.65C288.367,411.683 285.117,409.317 282.15,406.55C277.65,402.617 273.717,397.983 270.35,392.65C262.483,380.083 258.55,366.217 258.55,351.05C269.983,354.183 280.017,351.433 288.65,342.8C286.483,357.733 288.75,371.117 295.45,382.95C297.617,386.683 300.183,389.917 303.15,392.65C304.717,394.65 306.783,396.433 309.35,398L310.5,398.3C314.233,400.467 318.267,401.833 322.6,402.4C333.433,402.8 343.667,397.883 353.3,387.65C362.367,377.217 368.083,364.333 370.45,349L370.75,341.9" style="fill:rgb(59,83,91);"/>
                    <path d="M370.15,328.6C370.717,332.933 370.917,337.367 370.75,341.9L370.45,349C368.083,364.333 362.367,377.217 353.3,387.65C343.667,397.883 333.433,402.8 322.6,402.4C318.267,401.833 314.233,400.467 310.5,398.3L309.35,398C306.783,396.433 304.717,394.65 303.15,392.65C300.183,389.917 297.617,386.683 295.45,382.95C288.75,371.117 286.483,357.733 288.65,342.8C289.65,349.467 291.817,355.767 295.15,361.7C297.317,365.433 299.883,368.767 302.85,371.7C304.417,373.467 306.483,375.15 309.05,376.75L310.2,377.05C313.933,379.217 317.967,380.683 322.3,381.45C333.133,381.65 343.367,376.633 353,366.4C361.867,356.167 367.583,343.567 370.15,328.6" style="fill:rgb(128,32,89);"/>
                    <path d="M328.2,302.65C329.4,302.85 330.483,303.15 331.45,303.55C334.617,304.717 337.183,307.167 339.15,310.9C341.917,315.633 343,321.433 342.4,328.3C341.2,334.6 338.833,339.917 335.3,344.25C331.367,348.583 327.133,350.65 322.6,350.45C320.633,350.25 318.867,349.667 317.3,348.7L317,348.7C316.033,347.9 315.25,347.117 314.65,346.35C313.283,345.35 312.1,343.967 311.1,342.2C308.533,337.267 307.65,331.567 308.45,325.1C309.05,318.4 311.417,312.983 315.55,308.85C319.083,304.517 322.817,302.45 326.75,302.65L328.2,302.65" style="fill:rgb(255,182,225);"/>
                    <path d="M259.45,335.4C258.45,340.733 258.15,345.95 258.55,351.05C258.55,366.217 262.483,380.083 270.35,392.65C273.717,397.983 277.65,402.617 282.15,406.55C285.117,409.317 288.367,411.683 291.9,413.65L267.4,403.6L261.5,402.1C251.267,397.4 242.8,389.633 236.1,378.8C227.467,365.6 223.35,351.333 223.75,336C223.75,332.467 223.933,329.017 224.3,325.65C231.2,333.15 242.917,336.4 259.45,335.4" style="fill:rgb(44,61,67);"/>
                    <path d="M288.65,342.8L288.65,341C290.25,324.867 295.867,311.783 305.5,301.75C313.967,291.517 323.317,286.7 333.55,287.3L336.2,287.3C338.933,287.7 341.583,288.383 344.15,289.35C351.817,291.917 358.117,297.917 363.05,307.35C366.383,313.65 368.75,320.733 370.15,328.6C370.717,332.933 370.917,337.367 370.75,341.9L370.45,349C368.083,364.333 362.367,377.217 353.3,387.65C343.667,397.883 333.433,402.8 322.6,402.4C318.267,401.833 314.233,400.467 310.5,398.3L309.35,398C306.783,396.433 304.717,394.65 303.15,392.65C300.183,389.917 297.617,386.683 295.45,382.95C288.75,371.117 286.483,357.733 288.65,342.8M386.35,334.25C385.983,318.283 381.767,303.917 373.7,291.15C365.433,278.55 355.583,270.283 344.15,266.35L314.05,254.25L312.6,253.95C307.667,251.583 302.633,250.2 297.5,249.8C279.6,247.233 263.667,253.333 249.7,268.1C235.133,281.867 226.867,299.683 224.9,321.55L224.3,325.65C223.933,329.017 223.75,332.467 223.75,336C223.35,351.333 227.467,365.6 236.1,378.8C242.8,389.633 251.267,397.4 261.5,402.1L267.4,403.6L291.9,413.65C292.7,413.65 293.5,413.833 294.3,414.2C299.6,416.967 305.6,418.85 312.3,419.85C329.4,421.217 345.333,415.2 360.1,401.8C373.867,387.467 382.433,369.667 385.8,348.4L386.35,336.3L386.35,334.25Z" style="fill:none;fill-rule:nonzero;stroke:rgb(23,0,0);stroke-opacity:0.3;stroke-width:0.05px;"/>
                </g>
            </g>
        </g>
    </g>
</svg>
