<?xml version="1.0" encoding="UTF-8" standalone="no"?>
<!DOCTYPE svg PUBLIC "-//W3C//DTD SVG 1.1//EN" "http://www.w3.org/Graphics/SVG/1.1/DTD/svg11.dtd">
<svg width="100%" height="100%" viewBox="0 0 19 23" version="1.1" xmlns="http://www.w3.org/2000/svg" xmlns:xlink="http://www.w3.org/1999/xlink" xml:space="preserve" xmlns:serif="http://www.serif.com/" style="fill-rule:evenodd;clip-rule:evenodd;stroke-linecap:round;stroke-linejoin:round;">
    <g id="sprite0" transform="matrix(1,0,0,1,9.4,11.25)">
        <g>
            <g id="shape0">
                <path d="M6,-7.45C6.967,-6.583 7.65,-5.717 8.05,-4.85L8.15,-4.8L8.15,-1.75L8.85,0.8L8.05,3L7.95,4.8L7.25,5.6L6.35,8.55L4.65,10.75L3.75,10.65L1.4,10.15L0.45,9.75L-0.4,9L-2.8,7.9L-5.75,4.7L-6.95,1.4L-8.8,-0.9L-8.9,-0.95L-7.85,-4.15L-7.7,-4.15L-5.8,-4.55L-5.8,-6.15L-6.55,-7.7L-6.65,-7.85L-4.2,-10.75L-4.15,-10.7L0.05,-9.85L1.2,-8.5L2.25,-10.55L5.25,-10.25L5.25,-10.1L6,-7.45" style="fill:rgb(40,10,2);"/>
                <path d="M6,-7.45C6.967,-6.583 7.65,-5.717 8.05,-4.85L8.15,-4.8L8.15,-1.75L8.85,0.8L8.05,3L7.95,4.8L7.25,5.6L6.35,8.55L4.65,10.75L3.75,10.65L1.4,10.15L0.45,9.75L-0.4,9L-2.8,7.9L-5.75,4.7L-6.95,1.4L-8.8,-0.9L-8.9,-0.95L-7.85,-4.15L-7.7,-4.15L-5.8,-4.55L-5.8,-6.15L-6.55,-7.7L-6.65,-7.85L-4.2,-10.75L-4.15,-10.7L0.05,-9.85L1.2,-8.5L2.25,-10.55L5.25,-10.25L5.25,-10.1L6,-7.45Z" style="fill:none;fill-rule:nonzero;stroke:rgb(40,10,2);stroke-width:1px;"/>
            </g>
            <g id="sprite1" transform="matrix(0.0321,0,0,0.032,-7.54956,-9.0474)">
                <g id="shape1">
                    <path d="M30.6,42.8L28.6,36.85L104.6,-53.25L106.65,-51.2L216.65,44.85L270.7,42.8L258.65,0.8L272.75,16.8L304.75,-47.15L398.75,-37.15L398.75,-33.2L334.8,-25.2L392.8,84.8L412.7,82.9L422.75,50.8C452.117,77.533 473.483,104.233 486.85,130.9L390.75,102.85L312.7,-11.1L280.75,26.85L334.8,94.85L290.75,68.85L226.7,82.9L204.75,166.95L206.65,130.9L206.65,60.85L112.6,-3.1L54.6,42.8L96.6,78.85L96.6,162.85L80.6,100.95L30.6,42.8M488.85,206.9L488.85,229L498.75,268.95L468.8,230.9L450.8,213L456.75,213L488.85,206.9M-39.45,255L-41.45,252.95L-9.35,153L-5.45,153L50.65,208.95L110.7,218.95L52.55,224.9L0.55,198.9L-39.45,255M272.75,16.8L280.75,26.85L272.75,16.8" style="fill:white;fill-opacity:0.89;"/>
                    <path d="M106.65,-51.2L236.7,-25.2L258.65,0.8L270.7,42.8L216.65,44.85L106.65,-51.2M398.75,-33.2L422.75,50.8L412.7,82.9L392.8,84.8L334.8,-25.2L398.75,-33.2M-5.45,153L54.6,140.9L50.65,208.95L-5.45,153" style="fill:rgb(58,186,218);fill-opacity:0.89;"/>
                    <path d="M486.85,130.9L488.85,132.9L488.85,206.9L456.75,213L450.8,213L468.8,230.9L498.75,268.95L510.8,308.95L486.85,376.95L482.75,433.05L460.8,459.05L450.8,469.1L434.8,509.05L438.75,461.1L466.8,423L468.8,381L468.8,359.05L476.8,302.95L432.75,274.9L428.85,250.95L432.75,176.95L370.7,134.95L334.8,94.85L280.75,26.85L312.7,-11.1L390.75,102.85L486.85,130.9M278.7,601.05L248.75,589.15L222.75,565.15L148.65,531.15L56.65,431L18.55,326.95L-39.45,255L0.55,198.9L52.55,224.9L110.7,218.95L108.65,206.9L96.6,162.85L96.6,78.85L54.6,42.8L112.6,-3.1L206.65,60.85L206.65,130.9L204.75,166.95L204.75,188.9L234.7,208.95L300.8,240.9L336.7,289L346.75,305L346.75,307.05L360.8,399.05L280.75,368.95L174.65,423L180.6,433.05L182.65,435.1L206.65,529.1L226.7,533.05L260.7,567.05L278.7,601.05M108.65,266.95L130.6,321L126.7,409.05L178.7,290.9L108.65,266.95M196.75,363L182.65,389L268.7,342.95L308.8,357.05L224.65,290.9L196.75,363M222.75,565.15L190.65,531.15L222.75,565.15" style="fill:rgb(126,218,227);"/>
                    <path d="M370.7,134.95L432.75,176.95L428.85,250.95L416.8,180.9L370.7,134.95M234.7,208.95L304.75,224.9L366.8,213L328.7,245L336.7,289L300.8,240.9L234.7,208.95M346.75,307.05L378.7,323L410.8,315.05L360.8,399.05L346.75,307.05M414.75,394.95C426.75,380.317 439.45,367.683 452.85,357.05C456.817,381.083 456.133,404.433 450.8,427.1C441.5,440.367 430.167,454.367 416.8,469.1C408.733,467.733 401.417,460.367 394.85,447C402.783,431 409.417,413.65 414.75,394.95M196.75,363L224.65,290.9L308.8,357.05L268.7,342.95L182.65,389L196.75,363M298.75,431C316.117,436.333 334.1,443.017 352.7,451.05C347.367,468.417 339.367,483.1 328.7,495.1C308.733,495.1 289.4,493.75 270.7,491.05C254.733,479.017 240.067,461.667 226.7,439C252.067,433.667 276.083,431 298.75,431" style="fill:white;"/>
                    <path d="M460.8,459.05L432.75,551.05L380.75,619.1L352.7,617.2L278.7,601.05L260.7,567.05L226.7,533.05L258.65,541.05L278.7,561.1L260.7,525.05L218.7,507.05L182.65,435.1L180.6,433.05L174.65,423L280.75,368.95L360.8,399.05L410.8,315.05L378.7,323L346.75,307.05L346.75,305L336.7,289L328.7,245L366.8,213L304.75,224.9L234.7,208.95L204.75,188.9L204.75,166.95L226.7,82.9L290.75,68.85L334.8,94.85L370.7,134.95L416.8,180.9L428.85,250.95L432.75,274.9L476.8,302.95L468.8,359.05L468.8,381L466.8,423L438.75,461.1L434.8,509.05L450.8,469.1L460.8,459.05M414.75,394.95C409.417,413.65 402.783,431 394.85,447C401.417,460.367 408.733,467.733 416.8,469.1C430.167,454.367 441.5,440.367 450.8,427.1C456.133,404.433 456.817,381.083 452.85,357.05C439.45,367.683 426.75,380.317 414.75,394.95M298.75,431C276.083,431 252.067,433.667 226.7,439C240.067,461.667 254.733,479.017 270.7,491.05C289.4,493.75 308.733,495.1 328.7,495.1C339.367,483.1 347.367,468.417 352.7,451.05C334.1,443.017 316.117,436.333 298.75,431M336.7,593.05C352.067,585.75 367.417,578.433 382.75,571.1L406.75,567.05L384.8,551.05L336.7,593.05M368.8,535.1L390.75,521.1L410.8,519.1L382.75,485.1L368.8,535.1" style="fill:rgb(26,98,126);"/>
                    <path d="M54.6,140.9L54.6,90.9L30.6,42.8L80.6,100.95L96.6,162.85L108.65,206.9L110.7,218.95L50.65,208.95L54.6,140.9" style="fill:rgb(26,98,126);fill-opacity:0.89;"/>
                    <path d="M108.65,266.95L178.7,290.9L126.7,409.05L130.6,321L108.65,266.95" style="fill:rgb(18,82,107);"/>
                    <path d="M182.65,435.1L218.7,507.05L260.7,525.05L278.7,561.1L258.65,541.05L226.7,533.05L206.65,529.1L182.65,435.1M368.8,535.1L382.75,485.1L410.8,519.1L390.75,521.1L368.8,535.1M336.7,593.05L384.8,551.05L406.75,567.05L382.75,571.1C367.417,578.433 352.067,585.75 336.7,593.05" style="fill:rgb(101,236,249);"/>
                    <path d="M30.6,42.8L28.6,36.85L104.6,-53.25L106.65,-51.2L236.7,-25.2L258.65,0.8L272.75,16.8L304.75,-47.15L398.75,-37.15L398.75,-33.2L422.75,50.8C452.117,77.533 473.483,104.233 486.85,130.9L488.85,132.9L488.85,229L498.75,268.95L510.8,308.95L486.85,376.95L482.75,433.05L460.8,459.05L432.75,551.05L380.75,619.1L352.7,617.2L278.7,601.05L248.75,589.15L222.75,565.15L148.65,531.15L56.65,431L18.55,326.95L-39.45,255L-41.45,252.95L-9.35,153L-5.45,153L54.6,140.9L54.6,90.9L30.6,42.8M334.8,94.85L280.75,26.85L272.75,16.8M50.65,208.95L54.6,140.9M190.65,531.15L222.75,565.15" style="fill:none;fill-rule:nonzero;stroke:white;stroke-opacity:0.5;stroke-width:0.05px;"/>
                </g>
            </g>
        </g>
    </g>
</svg>
