<?xml version="1.0" encoding="UTF-8" standalone="no"?>
<!DOCTYPE svg PUBLIC "-//W3C//DTD SVG 1.1//EN" "http://www.w3.org/Graphics/SVG/1.1/DTD/svg11.dtd">
<svg width="100%" height="100%" viewBox="0 0 16 25" version="1.1" xmlns="http://www.w3.org/2000/svg" xmlns:xlink="http://www.w3.org/1999/xlink" xml:space="preserve" xmlns:serif="http://www.serif.com/" style="fill-rule:evenodd;clip-rule:evenodd;stroke-linecap:round;stroke-linejoin:round;">
    <g transform="matrix(1,0,0,1,0,-0.15)">
        <g id="sprite0" transform="matrix(1,0,0,1,7.7,12.35)">
            <g>
                <g id="shape0">
                    <path d="M-0.05,-5.95L-1,-5.9L-2.4,-5.4L-2.6,-5.3L-3.05,-4.95L-3.05,-3.05C-2.15,-3.783 -1.15,-4.2 -0.05,-4.3L-0.05,-5.95M2.25,-5.45L2.15,-5.5L2.15,-4.15C2.95,-3.917 3.683,-3.517 4.35,-2.95L5,-2.3C5.333,-1.933 5.533,-1.467 5.6,-0.9L6.75,-0.15L7.1,0.1L7.1,2.3L4.85,4.8L-0.9,4.85L-0.2,8.4C0.133,9.533 0.517,10.567 0.95,11.5L0.3,11.85L-1.85,11.5L-2.8,8.8L-3.4,8.9L-4.85,8.9C-4.517,8.433 -4.267,7.9 -4.1,7.3L-3.95,6.7L-5.3,6.45C-6.167,6.183 -6.8,5.833 -7.2,5.4C-6.767,5 -6.2,4.65 -5.5,4.35L-5.65,3.1L-5.65,2.7C-5.65,1.067 -5.217,-0.367 -4.35,-1.6L-4.2,-1.8L-4.3,-1.95L-4.3,-3.55L-5.2,-2L-5.25,-1.95L-5.3,-3.95C-5.167,-7.883 -3.733,-10.35 -1,-11.35L4.4,-11.7L5.05,-10.8L5.05,-5.3L3.95,-4.6L2.25,-5.45" style="fill:rgb(40,10,2);"/>
                    <path d="M2.25,-5.45L3.95,-4.6L5.05,-5.3L5.05,-10.8L4.4,-11.7L-1,-11.35C-3.733,-10.35 -5.167,-7.883 -5.3,-3.95L-5.25,-1.95L-5.2,-2L-4.3,-3.55L-4.3,-1.95L-4.2,-1.8L-4.35,-1.6C-5.217,-0.367 -5.65,1.067 -5.65,2.7L-5.65,3.1L-5.5,4.35C-6.2,4.65 -6.767,5 -7.2,5.4C-6.8,5.833 -6.167,6.183 -5.3,6.45L-3.95,6.7L-4.1,7.3C-4.267,7.9 -4.517,8.433 -4.85,8.9L-3.4,8.9L-2.8,8.8L-1.85,11.5L0.3,11.85L0.95,11.5C0.517,10.567 0.133,9.533 -0.2,8.4L-0.9,4.85L4.85,4.8L7.1,2.3L7.1,0.1L6.75,-0.15L5.6,-0.9C5.533,-1.467 5.333,-1.933 5,-2.3L4.35,-2.95C3.683,-3.517 2.95,-3.917 2.15,-4.15L2.15,-5.5L2.25,-5.45M-0.05,-5.95L-0.05,-4.3C-1.15,-4.2 -2.15,-3.783 -3.05,-3.05L-3.05,-4.95L-2.6,-5.3L-2.4,-5.4L-1,-5.9L-0.05,-5.95Z" style="fill:none;fill-rule:nonzero;stroke:rgb(40,10,2);stroke-width:1px;"/>
                </g>
                <g id="sprite1" transform="matrix(0.0321,0,0,0.032,-7.80017,-8.4949)">
                    <g id="shape1">
                        <path d="M147.3,47.95L147.3,212C132.7,233.267 119.9,230.917 108.9,204.95L108.9,47.95L147.3,47.95" style="fill:rgb(102,20,0);"/>
                        <path d="M147.3,47.95L147.3,212C132.7,233.267 119.9,230.917 108.9,204.95L108.9,47.95L147.3,47.95Z" style="fill:none;fill-rule:nonzero;stroke:black;stroke-opacity:0.3;stroke-width:0.05px;"/>
                        <path d="M379,173.65C386.033,179.783 392.883,186.633 399.55,194.2C411.617,207.9 417.467,224.833 417.1,245L259.45,386.3L194.4,389.25L196.8,442.5L174.05,462.85C177.383,470.35 171.1,474.867 155.2,476.4C139.267,477.9 113.683,475.017 78.45,467.75C51.583,459.817 31.667,449.083 18.7,435.55C31.867,422.583 49.533,411.417 71.7,402.05C69.167,389.617 67.533,376.733 66.8,363.4C72.933,328.1 82.667,298.917 96,275.85C97.633,281.95 100.6,287.267 104.9,291.8C111.767,298.633 119.967,301.867 129.5,301.5L130.05,301.5C139.783,301.133 147.983,297.267 154.65,289.9C161.517,282.333 164.95,273.417 164.95,263.15C164.95,252.85 161.517,244.283 154.65,237.45C150.683,233.317 146.183,230.433 141.15,228.8C137.717,227.733 134.017,227.283 130.05,227.45C122.117,227.817 113.733,230.7 104.9,236.1C104.2,228.533 104.833,221.783 106.8,215.85C111.867,208.617 117.283,201.667 123.05,195C217.283,130.867 260.433,133.033 252.5,201.5C321.867,245.467 364.033,236.183 379,173.65M71.7,402.05C76.367,399.883 81.4,397.9 86.8,396.1C81.4,397.9 76.367,399.883 71.7,402.05" style="fill:rgb(158,180,199);"/>
                        <path d="M123.05,195L123.55,194.2C161.783,151.133 207.833,129.6 261.7,129.6C306.2,129.6 345.3,144.283 379,173.65C364.033,236.183 321.867,245.467 252.5,201.5C260.433,133.033 217.283,130.867 123.05,195" style="fill:rgb(111,127,140);"/>
                        <path d="M66.8,363.4L66.55,350.45C66.55,299.25 79.967,254.383 106.8,215.85C104.833,221.783 104.2,228.533 104.9,236.1C113.733,230.7 122.117,227.817 130.05,227.45C134.017,227.283 137.717,227.733 141.15,228.8C146.183,230.433 150.683,233.317 154.65,237.45C161.517,244.283 164.95,252.85 164.95,263.15C164.95,273.417 161.517,282.333 154.65,289.9C147.983,297.267 139.783,301.133 130.05,301.5L129.5,301.5C119.967,301.867 111.767,298.633 104.9,291.8C100.6,287.267 97.633,281.95 96,275.85C82.667,298.917 72.933,328.1 66.8,363.4" style="fill:rgb(199,219,222);"/>
                        <path d="M379,173.65C386.033,179.783 392.883,186.633 399.55,194.2C411.617,207.9 417.467,224.833 417.1,245L259.45,386.3L194.4,389.25L196.8,442.5L174.05,462.85C177.383,470.35 171.1,474.867 155.2,476.4C139.267,477.9 113.683,475.017 78.45,467.75C51.583,459.817 31.667,449.083 18.7,435.55C31.867,422.583 49.533,411.417 71.7,402.05C69.167,389.617 67.533,376.733 66.8,363.4L66.55,350.45C66.55,299.25 79.967,254.383 106.8,215.85C111.867,208.617 117.283,201.667 123.05,195L123.55,194.2C161.783,151.133 207.833,129.6 261.7,129.6C306.2,129.6 345.3,144.283 379,173.65M86.8,396.1C81.4,397.9 76.367,399.883 71.7,402.05" style="fill:none;fill-rule:nonzero;stroke:black;stroke-opacity:0.3;stroke-width:0.05px;"/>
                        <path d="M115.4,494.2C120.433,476.533 123.683,456.883 125.15,435.25C138.85,437.25 149.483,450.683 157.05,475.55C161.717,491.583 165.133,512.3 167.3,537.7C157.767,541.133 147.683,543.567 137.05,545L122.15,491.2L115.4,494.2" style="fill:rgb(111,127,140);"/>
                        <path d="M137.05,545C123.15,546.8 108.367,546.8 92.7,545C102.433,530.4 110,513.467 115.4,494.2L122.15,491.2L137.05,545" style="fill:rgb(158,180,199);"/>
                        <path d="M115.4,494.2C120.433,476.533 123.683,456.883 125.15,435.25C138.85,437.25 149.483,450.683 157.05,475.55C161.717,491.583 165.133,512.3 167.3,537.7C157.767,541.133 147.683,543.567 137.05,545C123.15,546.8 108.367,546.8 92.7,545C102.433,530.4 110,513.467 115.4,494.2Z" style="fill:none;fill-rule:nonzero;stroke:black;stroke-opacity:0.3;stroke-width:0.05px;"/>
                        <path d="M252.15,637.15C249.45,631.75 246.933,626.167 244.6,620.4C232.7,593 222.433,562.467 213.8,528.8C208.933,510.4 204.6,491.117 200.8,470.95C196.133,446.25 192.183,420.2 188.95,392.8L148.65,415.55L148.65,415.25L209.45,380.95C216.117,435.883 225.5,485.167 237.6,528.8C247.5,564.633 259.2,596.783 272.7,625.25L252.15,637.15" style="fill:rgb(95,108,119);"/>
                        <path d="M200.8,470.95C204.6,491.117 208.933,510.4 213.8,528.8C222.433,562.467 232.7,593 244.6,620.4C246.933,626.167 249.45,631.75 252.15,637.15L185.95,625.55C172.617,595.983 161,563.733 151.1,528.8C147.5,516 144.067,502.75 140.8,489.05L200.8,470.95" style="fill:rgb(158,180,199);"/>
                        <path d="M148.65,415.55L188.95,392.8C192.183,420.2 196.133,446.25 200.8,470.95L140.8,489.05C136.133,469.217 131.9,448.583 128.1,427.15L148.65,415.55" style="fill:rgb(111,127,140);"/>
                        <path d="M252.15,637.15L272.7,625.25C259.2,596.783 247.5,564.633 237.6,528.8C225.5,485.167 216.117,435.883 209.45,380.95L148.65,415.25L148.65,415.55L188.95,392.8M140.8,489.05C144.067,502.75 147.5,516 151.1,528.8C161,563.733 172.617,595.983 185.95,625.55L252.15,637.15M148.65,415.55L128.1,427.15C131.9,448.583 136.133,469.217 140.8,489.05" style="fill:none;fill-rule:nonzero;stroke:black;stroke-opacity:0.3;stroke-width:0.05px;"/>
                        <path d="M454.15,261.8L464.15,269.35C467.75,293.117 467.75,315.917 464.15,337.75C442.717,368.017 419.2,394.317 393.6,416.65C322.967,420.25 251.333,420.25 178.7,416.65L175.75,395.05L397.65,340.95C396.917,309.983 395.75,277.917 394.15,244.75L418.75,346.65L452.25,317.2L454.15,261.8M398.2,393.15L397.65,340.95L398.2,393.15" style="fill:rgb(140,155,158);"/>
                        <path d="M175.75,395.05L172.5,373.7C240.967,319.633 311.517,269.083 384.15,222.05C407.917,231.783 431.25,245.033 454.15,261.8L452.25,317.2L418.75,346.65L394.15,244.75C395.75,277.917 396.917,309.983 397.65,340.95L175.75,395.05" style="fill:rgb(218,227,227);"/>
                        <path d="M454.15,261.8L464.15,269.35C467.75,293.117 467.75,315.917 464.15,337.75C442.717,368.017 419.2,394.317 393.6,416.65C322.967,420.25 251.333,420.25 178.7,416.65L175.75,395.05L172.5,373.7C240.967,319.633 311.517,269.083 384.15,222.05C407.917,231.783 431.25,245.033 454.15,261.8M394.15,244.75C395.75,277.917 396.917,309.983 397.65,340.95L398.2,393.15" style="fill:none;fill-rule:nonzero;stroke:black;stroke-opacity:0.3;stroke-width:0.05px;"/>
                        <path d="M310.3,35.5L310.3,199.55C284.333,220.817 261.35,218.483 241.35,192.55L241.35,35.5L310.3,35.5" style="fill:rgb(102,20,0);"/>
                        <path d="M310.3,35.5L310.3,199.55C284.333,220.817 261.35,218.483 241.35,192.55L241.35,35.5L310.3,35.5Z" style="fill:none;fill-rule:nonzero;stroke:black;stroke-opacity:0.3;stroke-width:0.05px;"/>
                        <path d="M211.35,-50.2C218.917,-52 226.85,-53.167 235.15,-53.7C265.783,-61.633 300.65,-63.883 339.75,-60.45C348.75,-59.917 358.117,-58.833 367.85,-57.2L366.25,-51.8L366.25,122.8C348.05,111.267 330.483,101.983 313.55,94.95C276.417,79.65 242.35,74.883 211.35,80.65L211.35,-50.2M77.85,141.7C78.917,135.767 80.083,129.917 81.35,124.15C95.75,58.55 119,11.067 151.1,-18.3L168.65,96.85C166.683,97.917 164.7,99.083 162.7,100.35C130.633,121.817 103.15,156.067 80.25,203.1L79.75,204.7C79.383,205.067 79.1,205.517 78.9,206.05C77.3,183.35 76.95,161.9 77.85,141.7" style="fill:rgb(158,180,199);"/>
                        <path d="M367.85,-57.2C358.117,-58.833 348.75,-59.917 339.75,-60.45C300.65,-63.883 265.783,-61.633 235.15,-53.7C226.85,-53.167 218.917,-52 211.35,-50.2C188.65,-44.967 168.567,-34.333 151.1,-18.3C119,11.067 95.75,58.55 81.35,124.15C80.083,129.917 78.917,135.767 77.85,141.7C81.983,19.533 126.483,-57.217 211.35,-88.55C256.417,-105.317 312.917,-109.383 380.85,-100.75L367.85,-57.2" style="fill:rgb(218,227,227);"/>
                        <path d="M211.35,-50.2L211.35,80.65C196.217,83.517 181.983,88.917 168.65,96.85L151.1,-18.3C168.567,-34.333 188.65,-44.967 211.35,-50.2" style="fill:rgb(199,219,222);"/>
                        <path d="M366.25,122.8L366.25,-51.8L367.85,-57.2L380.85,-100.75L399.75,-71.55L399.75,100.35L366.25,122.8" style="fill:rgb(111,127,140);"/>
                        <path d="M211.35,80.65C242.35,74.883 276.417,79.65 313.55,94.95C330.483,101.983 348.05,111.267 366.25,122.8L399.75,100.35L399.75,-71.55L380.85,-100.75C312.917,-109.383 256.417,-105.317 211.35,-88.55C126.483,-57.217 81.983,19.533 77.85,141.7C76.95,161.9 77.3,183.35 78.9,206.05C79.1,205.517 79.383,205.067 79.75,204.7L80.25,203.1C103.15,156.067 130.633,121.817 162.7,100.35C164.7,99.083 166.683,97.917 168.65,96.85C181.983,88.917 196.217,83.517 211.35,80.65M366.25,-51.8L367.85,-57.2" style="fill:none;fill-rule:nonzero;stroke:black;stroke-opacity:0.3;stroke-width:0.05px;"/>
                        <path d="M92.2,412.75C92.533,398.883 97.217,386.9 106.25,376.8L110,372.75C109.667,381.95 117.15,387.9 132.45,390.6C128.117,391.667 124.25,394.1 120.85,397.9C116.317,402.933 114.15,408.967 114.35,416C114.15,423.033 116.317,428.983 120.85,433.85L122.45,435.45L92.2,412.75M171.1,371.4L174.6,374.9C183.967,385.2 188.65,397.817 188.65,412.75L188.65,415.45L151.65,434.65L153,433.05C157.5,427.983 159.75,421.95 159.75,414.95C159.75,407.917 157.5,401.967 153,397.1C150.467,394.4 147.667,392.5 144.6,391.4C163.7,392.3 172.533,385.633 171.1,371.4" style="fill:rgb(186,41,14);"/>
                        <path d="M110,372.75C118.667,364.65 128.767,360.417 140.3,360.05C152,359.683 162.267,363.467 171.1,371.4C172.533,385.633 163.7,392.3 144.6,391.4C142.1,390.5 139.5,390.05 136.8,390.05L132.45,390.6C117.15,387.9 109.667,381.95 110,372.75" style="fill:rgb(186,107,93);"/>
                        <path d="M122.45,435.45L120.85,433.85C116.317,428.983 114.15,423.033 114.35,416C114.15,408.967 116.317,402.933 120.85,397.9C124.25,394.1 128.117,391.667 132.45,390.6L136.8,390.05C139.5,390.05 142.1,390.5 144.6,391.4C147.667,392.5 150.467,394.4 153,397.1C157.5,401.967 159.75,407.917 159.75,414.95C159.75,421.95 157.5,427.983 153,433.05L151.65,434.65C147.317,438.617 142.367,440.7 136.8,440.9C132.1,441.067 127.767,439.617 123.8,436.55L122.45,435.45" style="fill:rgb(218,227,227);"/>
                        <path d="M188.65,415.45C188.117,429.35 183.433,441.333 174.6,451.4C165.067,462.233 153.633,467.833 140.3,468.2C126.967,468.533 115.617,463.567 106.25,453.3C96.683,443.033 92,430.417 92.2,415.45L92.2,412.75L122.45,435.45L123.8,436.55C127.767,439.617 132.1,441.067 136.8,440.9C142.367,440.7 147.317,438.617 151.65,434.65L188.65,415.45" style="fill:rgb(102,20,0);"/>
                        <path d="M92.2,412.75C92.533,398.883 97.217,386.9 106.25,376.8L110,372.75C118.667,364.65 128.767,360.417 140.3,360.05C152,359.683 162.267,363.467 171.1,371.4L174.6,374.9C183.967,385.2 188.65,397.817 188.65,412.75L188.65,415.45C188.117,429.35 183.433,441.333 174.6,451.4C165.067,462.233 153.633,467.833 140.3,468.2C126.967,468.533 115.617,463.567 106.25,453.3C96.683,443.033 92,430.417 92.2,415.45L92.2,412.75M122.45,435.45L120.85,433.85C116.317,428.983 114.15,423.033 114.35,416C114.15,408.967 116.317,402.933 120.85,397.9C124.25,394.1 128.117,391.667 132.45,390.6L136.8,390.05C139.5,390.05 142.1,390.5 144.6,391.4C147.667,392.5 150.467,394.4 153,397.1C157.5,401.967 159.75,407.917 159.75,414.95C159.75,421.95 157.5,427.983 153,433.05L151.65,434.65C147.317,438.617 142.367,440.7 136.8,440.9C132.1,441.067 127.767,439.617 123.8,436.55L122.45,435.45Z" style="fill:none;fill-rule:nonzero;stroke:black;stroke-opacity:0.3;stroke-width:0.05px;"/>
                    </g>
                </g>
            </g>
        </g>
    </g>
</svg>
