<?xml version="1.0" encoding="UTF-8" standalone="no"?>
<!DOCTYPE svg PUBLIC "-//W3C//DTD SVG 1.1//EN" "http://www.w3.org/Graphics/SVG/1.1/DTD/svg11.dtd">
<svg width="100%" height="100%" viewBox="0 0 17 21" version="1.1" xmlns="http://www.w3.org/2000/svg" xmlns:xlink="http://www.w3.org/1999/xlink" xml:space="preserve" xmlns:serif="http://www.serif.com/" style="fill-rule:evenodd;clip-rule:evenodd;stroke-linecap:round;stroke-linejoin:round;">
    <g id="sprite0" transform="matrix(1,0,0,1,8.3,10.05)">
        <g>
            <g id="shape0">
                <path d="M7.4,0.8C7.233,2.267 7.367,3.783 7.8,5.35L6.95,5.75L4.95,4.4L4.45,5.15C4.117,5.517 3.75,5.717 3.35,5.75L0,4.8C-0.133,6.2 0.017,7.65 0.45,9.15L-0.4,9.55C-2.867,8.15 -4.967,6.117 -6.7,3.45L-7.8,0.2L-6.95,-0.2L-6.15,0.3L-6.1,0.3L-6.35,-0.5L-6.2,-1.45L-7.15,-4.3L-5.9,-3.65L-5.85,-4.05L-4.9,-7.95L-4.75,-8.45L-4.45,-9.55L-3.85,-8.85C-3.317,-8.25 -2.733,-7.8 -2.1,-7.5L-1.95,-7.45L0.6,-6.25L0.2,-8.5L5.55,-4.55L5.85,-0.5L5.9,-0.25L5.95,-0.2C6.317,0.4 6.8,0.733 7.4,0.8" style="fill:rgb(40,10,2);"/>
                <path d="M7.4,0.8C7.233,2.267 7.367,3.783 7.8,5.35L6.95,5.75L4.95,4.4L4.45,5.15C4.117,5.517 3.75,5.717 3.35,5.75L0,4.8C-0.133,6.2 0.017,7.65 0.45,9.15L-0.4,9.55C-2.867,8.15 -4.967,6.117 -6.7,3.45L-7.8,0.2L-6.95,-0.2L-6.15,0.3L-6.1,0.3L-6.35,-0.5L-6.2,-1.45L-7.15,-4.3L-5.9,-3.65L-5.85,-4.05L-4.9,-7.95L-4.75,-8.45L-4.45,-9.55L-3.85,-8.85C-3.317,-8.25 -2.733,-7.8 -2.1,-7.5L-1.95,-7.45L0.6,-6.25L0.2,-8.5L5.55,-4.55L5.85,-0.5L5.9,-0.25L5.95,-0.2C6.317,0.4 6.8,0.733 7.4,0.8Z" style="fill:none;fill-rule:nonzero;stroke:rgb(40,10,2);stroke-width:1px;"/>
            </g>
            <g id="sprite1" transform="matrix(0.0321,0,0,0.032,-8.20009,-9.0492)">
                <g id="shape1">
                    <path d="M402.45,154.25L428,140.85L439,290.65L402.45,154.25" style="fill:rgb(147,148,137);"/>
                    <path d="M428,140.85L402.45,154.25L262.45,16.65L428,140.85" style="fill:rgb(209,211,195);"/>
                    <path d="M402.45,154.25L439,290.65L288.05,167.85L262.45,16.65L402.45,154.25" style="fill:rgb(119,119,112);"/>
                    <path d="M439,290.65L428,140.85L262.45,16.65L402.45,154.25M439,290.65L288.05,167.85L262.45,16.65" style="fill:none;fill-rule:nonzero;stroke:black;stroke-opacity:0.3;stroke-width:0.05px;"/>
                    <path d="M241.05,170.45L395.8,252.15C397.4,256.75 399.083,261.2 400.85,265.5C412.317,292.9 427.2,310.1 445.5,317.1C449.8,318.7 454.333,319.733 459.1,320.2C458.333,328.167 457.867,336.217 457.7,344.35C457.067,363.917 458.1,383.9 460.8,404.3C461.9,412.567 463.333,421 465.1,429.6C467.167,440.433 469.717,451.433 472.75,462.6C395.017,419.1 329.167,355.783 275.2,272.65L241.05,170.45" style="fill:rgb(119,119,112);"/>
                    <path d="M459.1,320.2C454.333,319.733 449.8,318.7 445.5,317.1C427.2,310.1 412.317,292.9 400.85,265.5C399.083,261.2 397.4,256.75 395.8,252.15L241.05,170.45L267.3,158.25L422.1,239.95C436.433,282.483 457.533,305.167 485.4,308L459.1,320.2" style="fill:rgb(182,184,170);"/>
                    <path d="M472.75,462.6C469.717,451.433 467.167,440.433 465.1,429.6C463.333,421 461.9,412.567 460.8,404.3C458.1,383.9 457.067,363.917 457.7,344.35C457.867,336.217 458.333,328.167 459.1,320.2L485.4,308C480.933,353.733 485.467,401.2 499,450.4L472.75,462.6" style="fill:rgb(147,148,137);"/>
                    <path d="M241.05,170.45L275.2,272.65C329.167,355.783 395.017,419.1 472.75,462.6L499,450.4C485.467,401.2 480.933,353.733 485.4,308C457.533,305.167 436.433,282.483 422.1,239.95L267.3,158.25L241.05,170.45Z" style="fill:none;fill-rule:nonzero;stroke:black;stroke-opacity:0.3;stroke-width:0.05px;"/>
                    <path d="M277.05,89.2C301.117,101.8 323.9,115.1 345.4,129.1C365.3,143.933 382.417,161.3 396.75,181.2C405.983,194.1 414.1,208.033 421.1,223C412.2,255.633 399.7,281.983 383.6,302.05C371.667,263.183 355.983,228.067 336.55,196.7C308.517,151.633 272.85,114.3 229.55,84.7C213.283,72.733 201.817,62.767 195.15,54.8L277.05,89.2M57.8,267.65C61.433,230.883 66.833,193.783 74,156.35L119.4,46.45C137.067,73.383 173.383,108.1 228.35,150.6C250.65,167.8 270.067,187.4 286.6,209.4C313.533,245.067 332.883,287.017 344.65,335.25C281.45,369.35 185.833,346.817 57.8,267.65" style="fill:rgb(96,92,76);"/>
                    <path d="M421.1,223C428.733,239.233 435.033,256.833 440,275.8C427.1,321.8 414.2,355.483 401.3,376.85C396.833,350.55 390.933,325.617 383.6,302.05C399.7,281.983 412.2,255.633 421.1,223M143.3,391.85L138.75,389.75C97.683,369.817 70.7,329.117 57.8,267.65C185.833,346.817 281.45,369.35 344.65,335.25C350.383,358.517 354.283,383.283 356.35,409.55C297.917,420.383 226.9,414.483 143.3,391.85" style="fill:rgb(69,66,54);"/>
                    <path d="M195.15,54.8C201.817,62.767 213.283,72.733 229.55,84.7C272.85,114.3 308.517,151.633 336.55,196.7C355.983,228.067 371.667,263.183 383.6,302.05L344.65,335.25C332.883,287.017 313.533,245.067 286.6,209.4C270.067,187.4 250.65,167.8 228.35,150.6C173.383,108.1 137.067,73.383 119.4,46.45L127.55,26.4L195.15,54.8" style="fill:rgb(50,43,49);"/>
                    <path d="M440,275.8C443.333,289 446.033,302.85 448.1,317.35C441.267,357.317 423.35,399.517 394.35,443.95C383.85,456.05 372.15,462.267 359.25,462.6C257.017,434.867 185.033,411.283 143.3,391.85C226.9,414.483 297.917,420.383 356.35,409.55C354.283,383.283 350.383,358.517 344.65,335.25L383.6,302.05C390.933,325.617 396.833,350.55 401.3,376.85C414.2,355.483 427.1,321.8 440,275.8" style="fill:rgb(30,26,29);"/>
                    <path d="M74,156.35C81.5,116.217 90.9,75.767 102.2,35L109.6,27.85C111.667,33.417 114.933,39.617 119.4,46.45L74,156.35M190.6,48.4L194.9,50.3C223.733,62.567 251.117,75.533 277.05,89.2L195.15,54.8C193.217,52.6 191.7,50.467 190.6,48.4" style="fill:rgb(143,137,113);"/>
                    <path d="M102.2,35L107,18.3C110.167,6.833 113.583,-4.717 117.25,-16.35C123.15,-8.083 129.283,-0.45 135.65,6.55C152.383,24.883 170.7,38.833 190.6,48.4C191.7,50.467 193.217,52.6 195.15,54.8L127.55,26.4L119.4,46.45C114.933,39.617 111.667,33.417 109.6,27.85L102.2,35" style="fill:rgb(67,57,65);"/>
                    <path d="M277.05,89.2C301.117,101.8 323.9,115.1 345.4,129.1C365.3,143.933 382.417,161.3 396.75,181.2C405.983,194.1 414.1,208.033 421.1,223C428.733,239.233 435.033,256.833 440,275.8C443.333,289 446.033,302.85 448.1,317.35C441.267,357.317 423.35,399.517 394.35,443.95C383.85,456.05 372.15,462.267 359.25,462.6C257.017,434.867 185.033,411.283 143.3,391.85L138.75,389.75C97.683,369.817 70.7,329.117 57.8,267.65C61.433,230.883 66.833,193.783 74,156.35C81.5,116.217 90.9,75.767 102.2,35L107,18.3C110.167,6.833 113.583,-4.717 117.25,-16.35C123.15,-8.083 129.283,-0.45 135.65,6.55C152.383,24.883 170.7,38.833 190.6,48.4L194.9,50.3C223.733,62.567 251.117,75.533 277.05,89.2Z" style="fill:none;fill-rule:nonzero;stroke:black;stroke-opacity:0.3;stroke-width:0.05px;"/>
                    <path d="M11.9,289.4L38.2,277.2L64,292.75L193.45,358.45C184.55,362.683 175.633,366.9 166.7,371.1L11.9,289.4M256.3,427C251.833,472.7 256.367,520.15 269.9,569.35L243.6,581.55C240.6,570.383 238.067,559.4 236,548.6C234.233,540 232.8,531.55 231.7,523.25C228.967,502.883 227.917,482.9 228.55,463.3C228.717,455.167 229.2,447.117 230,439.15L256.3,427" style="fill:rgb(147,148,137);"/>
                    <path d="M88.85,360.1L102.2,391.4C134.2,437.1 169.483,475.167 208.05,505.6C210.25,515.3 213.117,525.167 216.65,535.2L220.2,545C166.367,511.233 118.283,464.1 75.95,403.6L45.1,331.9L88.85,360.1" style="fill:rgb(119,119,112);"/>
                    <path d="M208.05,505.6C169.483,475.167 134.2,437.1 102.2,391.4L88.85,360.1L155.5,403.1C167.9,431.433 182.867,447.833 200.4,452.3C200.867,469.333 203.417,487.1 208.05,505.6" style="fill:rgb(50,43,49);"/>
                    <path d="M11.9,289.4L166.7,371.1C186.133,409.167 202.7,430.817 216.4,436.05C220.7,437.65 225.233,438.683 230,439.15L200.4,452.3C182.867,447.833 167.9,431.433 155.5,403.1L88.85,360.1L45.1,331.9L75.95,403.6L46.05,391.65L11.9,289.4" style="fill:rgb(209,211,195);"/>
                    <path d="M166.7,371.1C175.633,366.9 184.55,362.683 193.45,358.45C219.883,402.55 240.833,425.4 256.3,427L230,439.15C225.233,438.683 220.7,437.65 216.4,436.05C202.7,430.817 186.133,409.167 166.7,371.1" style="fill:rgb(252,253,240);"/>
                    <path d="M243.6,581.55C165.9,538.083 100.05,474.783 46.05,391.65L75.95,403.6C118.283,464.1 166.367,511.233 220.2,545L216.65,535.2C213.117,525.167 210.25,515.3 208.05,505.6C203.417,487.1 200.867,469.333 200.4,452.3L230,439.15C229.2,447.117 228.717,455.167 228.55,463.3C227.917,482.9 228.967,502.883 231.7,523.25C232.8,531.55 234.233,540 236,548.6C238.067,559.4 240.6,570.383 243.6,581.55" style="fill:rgb(182,184,170);"/>
                    <path d="M193.45,358.45L64,292.75L38.2,277.2L11.9,289.4L46.05,391.65C100.05,474.783 165.9,538.083 243.6,581.55L269.9,569.35C256.367,520.15 251.833,472.7 256.3,427C240.833,425.4 219.883,402.55 193.45,358.45M208.05,505.6C169.483,475.167 134.2,437.1 102.2,391.4L88.85,360.1L155.5,403.1C167.9,431.433 182.867,447.833 200.4,452.3C200.867,469.333 203.417,487.1 208.05,505.6Z" style="fill:none;fill-rule:nonzero;stroke:black;stroke-opacity:0.3;stroke-width:0.05px;"/>
                    <path d="M81.2,298L93.4,263.85L254.15,373.5L81.2,298" style="fill:rgb(147,148,137);"/>
                    <path d="M93.4,263.85L81.2,298L32.5,148.2L93.4,263.85" style="fill:rgb(182,184,170);"/>
                    <path d="M254.15,373.5L93.4,263.85L168.9,217.5C205.833,273.567 234.25,325.567 254.15,373.5" style="fill:rgb(209,211,195);"/>
                    <path d="M93.4,263.85L32.5,148.2L168.9,217.5L93.4,263.85" style="fill:rgb(251,251,251);"/>
                    <path d="M81.2,298L254.15,373.5M32.5,148.2L81.2,298M168.9,217.5L32.5,148.2" style="fill:none;fill-rule:nonzero;stroke:black;stroke-opacity:0.3;stroke-width:0.05px;"/>
                    <path d="M357.85,299.05L340.65,312.2L311.25,312.2L280.45,275.4L280.45,274.95L280.2,275.2L247.45,290L230.5,278.3L218.55,244.85L228.6,223.35L254.4,215L267.05,219.5L255.6,207.35L255.6,173.4L280.65,159.3L312.2,161.25L312.45,161.45L312.7,161.45L312.9,161.7L322.7,167.9C323.967,165.833 325.483,163.85 327.25,161.95L348.75,152.15L370.95,157.9L383.6,174.15L383.6,204.45L370,214.5C369.833,214.5 369.75,214.583 369.75,214.75L388.4,248.65L377.4,283.3L358.05,299.05L357.85,299.05" style="fill:rgb(50,43,49);"/>
                    <path d="M358.05,299.05L357.85,299.05" style="fill:none;fill-rule:nonzero;stroke:black;stroke-opacity:0.3;stroke-width:0.05px;"/>
                </g>
                <g id="chapeau2" transform="matrix(4.7775,0,0,4.7775,228.8,160.95)">
                    <g id="shape2">
                        <path d="M26.25,11.05L27.55,11.65L30.65,18.2L26.95,26.9L17.75,28.85L16.35,28.1L11.7,22.45L13.25,17.05L19.75,10.9L26.25,11.05M29.3,1.85L31.15,4.05L29.85,7.25L27.35,8.4L23.3,6.55L21.6,3.45L23,1.15L25.3,0L29.3,1.85M16.3,1.35C16.7,1.55 17.1,1.733 17.5,1.9L19.25,4.2L19.25,7.75L14.9,11.5L11.05,11.4L9.8,10.8L8,8.45L8.15,4.85L13.25,1.25L16.3,1.35M2,15.2L4.8,13.7L9.1,15.95L10.85,18.65L8.85,22.6L5.9,24.1L1.5,21.85L0,18.05L2,15.2" style="fill:rgb(103,201,116);"/>
                    </g>
                </g>
                <g id="shape3">
                    <path d="M354.9,164L344.4,169.3L338.65,166.65L349.65,161.15L354.9,163.55C354.767,163.717 354.767,163.867 354.9,164M331.05,213.45L354.2,213.95L360.4,216.8L329.85,216.35L328.9,215.85L331.05,213.45M323.15,213.25L330.55,213.45L328.4,216.1L323.15,213.25M273.2,186.95L273.2,187.2C273.067,187.2 273.067,187.283 273.2,187.45L273,204.4L267,201.55L267.75,184.35L273.2,186.95M311.9,170L311.9,170.25L297.85,170L292.1,167.15L306.65,167.6L311.9,170M238.35,233.75L251.7,226.6L257.45,229.7C257.283,229.867 257.283,230.033 257.45,230.2L244.3,236.9L238.35,233.75" style="fill:white;fill-opacity:0.55;"/>
                    <path d="M344.4,169.3L354.9,164L364.45,182.9L338.2,180.05L344.4,169.3M328.65,216.35L328.9,215.85L353.7,250.25L291.85,271.3L291.6,270.55L298.55,245.7L328.65,216.35M311.9,170.25L312.4,198.2L274.4,186.7L297.85,170L311.9,170.25M257.45,230.2L265.8,254.8L241.7,267.95L235,250.75L244.3,236.9L257.45,230.2" style="fill:white;fill-opacity:0.24;"/>
                    <path d="M354.9,164C354.767,163.867 354.767,163.717 354.9,163.55L365.9,182.9L377.15,180.05L378.1,181C377.933,181 377.85,181.067 377.85,181.2L377.35,181.2L366.4,184.1L371.9,195.1L365.2,184.55L345.1,194.6C345.1,194.433 345.183,194.35 345.35,194.35L363.5,184.1L337.25,180.25C337.25,180.117 337.333,180.05 337.5,180.05C337.5,179.883 337.65,179.883 337.95,180.05L338.2,180.05L364.45,182.9L354.9,164M377.15,180.05L377.85,181.2L377.15,180.05M337.25,180.5L337.25,180.25L337.7,181.2L337.25,181C337.083,180.833 337.083,180.667 337.25,180.5M331.05,213.45L328.9,215.85L329.85,216.35L355.15,250L355.15,250.25L355.4,250.5L355.4,250.75L357.8,285.35L354.2,251.95L317.15,295.9L352.75,251.95L291.85,271.3L353.7,250.25L328.9,215.85L328.65,216.35L328.65,216.1L328.4,216.1L330.55,213.45L331.05,213.45M273.2,186.95L273.7,187.9L273.2,187.45C273.067,187.283 273.067,187.2 273.2,187.2L273.2,186.95C273.2,186.783 273.283,186.7 273.45,186.7C273.617,186.567 273.783,186.567 273.95,186.7L274.4,186.7L312.4,198.2L311.9,170.25L311.9,170L313.6,198.4L320.75,198.4L313.35,199.6L299.5,216.35L299.5,215.85L311.9,199.4L273.2,186.95M242.65,268.9L241.45,268.15C241.45,268.017 241.533,267.95 241.7,267.95L265.8,254.8L257.45,230.2C257.283,230.033 257.283,229.867 257.45,229.7L267.25,254.8L267.25,255.05L271.8,269.15L266.55,256.95L257.95,275.8L265.35,256.45L242.65,268.9" style="fill:white;"/>
                    <path d="M345.35,194.35C345.183,194.35 345.1,194.433 345.1,194.6L340.1,192.45L332,177.65L337.25,180.25L345.35,194.35M337.25,180.5C337.083,180.667 337.083,180.833 337.25,181L337.7,181.2L337.25,180.25L337.25,180.5M314.05,299.45L313.1,298.75L306.9,295.4L284.7,268.4L291.85,271.3L314.05,299.45M273,204.4L281.6,215.6L275.6,212.75L267,201.55L273,204.4M241.45,268.15L235.95,265.55L228.8,247.4L235,250.75L241.7,267.95C241.533,267.95 241.45,268.017 241.45,268.15" style="fill-opacity:0.55;"/>
                    <path d="M338.65,166.65L344.4,169.3L338.2,180.05L337.95,180.05C337.65,179.883 337.5,179.883 337.5,180.05C337.333,180.05 337.25,180.117 337.25,180.25L332,177.65L338.65,166.65M292.1,242.6L323.15,213.25L328.4,216.1L328.65,216.1L328.65,216.35L298.55,245.7L292.1,242.6M273.2,186.95L267.75,184.35L292.1,167.15L297.85,170L274.4,186.7L273.95,186.7C273.783,186.567 273.617,186.567 273.45,186.7C273.283,186.7 273.2,186.783 273.2,186.95M228.8,247.4L238.35,233.75L244.3,236.9L235,250.75L228.8,247.4" style="fill:white;fill-opacity:0.35;"/>
                    <path d="M337.25,180.25L363.5,184.1L345.35,194.35L337.25,180.25M371.9,195.1L366.4,184.1L377.35,181.2L371.9,195.1M375.2,248.1L358.25,288.25L358,288.5L357.8,285.35L355.4,250.75L355.4,250.5L375.2,248.1M314.55,298.75L314.05,299.45L291.85,271.3L352.75,251.95L317.15,295.9L314.55,298.75M273.2,187.45L273.7,187.9L273.2,186.95L311.9,199.4L299.5,215.85L299.5,216.1L281.6,215.6L273,204.4L273.2,187.45M257.95,275.8L257.7,276.55L242.65,268.9L265.35,256.45L257.95,275.8" style="fill-opacity:0.24;"/>
                    <path d="M345.1,194.6L365.2,184.55L371.9,195.1L372.1,195.55L359.45,201.3L353.5,198.9L345.1,194.6M358.25,288.25L358.25,289.65L357.05,289.9L314.8,298.75L314.55,298.75L317.15,295.9L354.2,251.95L357.8,285.35L358,288.5L358.25,288.25M320.75,198.4L299.5,216.35L313.35,199.6L320.75,198.4M271.8,269.15L270.6,269.35L257.95,275.8L266.55,256.95L271.8,269.15" style="fill-opacity:0.3;"/>
                    <path d="M354.9,163.55L349.65,161.15L338.65,166.65L332,177.65L340.1,192.45L353.5,198.9L345.1,194.6L340.1,192.45M377.85,181.2L377.15,180.05L374.05,176.2L373.05,175L368.75,170L354.9,163.55M372.1,195.55L359.45,201.3L353.5,198.9M377.35,181.2L371.9,195.1M360.4,216.8L354.2,213.95L331.05,213.45L330.55,213.45L323.15,213.25L292.1,242.6L284.7,268.4L306.9,295.4L313.1,298.75M360.4,216.8L375.2,248.1L358.25,288.25L358,288.5M357.05,289.9L314.8,298.75L314.55,298.75M281.6,215.6L299.5,216.1M267.75,184.35L267,201.55L275.6,212.75L281.6,215.6M292.1,167.15L267.75,184.35M306.65,167.6L311.9,170L320.75,181.2L320.75,198.4L299.5,216.35M257.45,229.7L272.25,237.35L280.65,250.25L271.8,269.15M270.6,269.35L257.95,275.8M257.7,276.55L242.65,268.9L241.45,268.15L235.95,265.55L228.8,247.4L238.35,233.75L251.7,226.6L257.45,229.7" style="fill:none;fill-rule:nonzero;stroke:black;stroke-opacity:0.3;stroke-width:0.05px;"/>
                </g>
                <g id="chapeau1" transform="matrix(2.4709,0,0,2.4709,108.05,404.85)">
                    <g id="shape4">
                        <path d="M20.3,10.15C20.3,12.95 19.3,15.333 17.3,17.3C15.333,19.3 12.95,20.3 10.15,20.3C7.35,20.3 4.95,19.3 2.95,17.3C0.983,15.333 0,12.95 0,10.15C0,7.35 0.983,4.95 2.95,2.95C4.95,0.983 7.35,0 10.15,0C12.95,0 15.333,0.983 17.3,2.95C19.3,4.95 20.3,7.35 20.3,10.15" style="fill:rgb(103,201,116);"/>
                    </g>
                </g>
                <g id="shape5">
                    <path d="M109.85,420.8C110.95,423.667 112.767,426.3 115.3,428.7C120.267,433.633 126.167,436.1 133,436.1C140,436.1 145.9,433.633 150.7,428.7C153.233,426.3 155.133,423.667 156.4,420.8C157.533,423.667 158.1,426.767 158.1,430.1C158.1,437.1 155.633,443 150.7,447.8C145.9,452.733 140,455.2 133,455.2C126.167,455.2 120.267,452.733 115.3,447.8C110.367,443 107.9,437.1 107.9,430.1C107.9,426.767 108.55,423.667 109.85,420.8" style="fill-opacity:0.3;"/>
                    <path d="M109.85,420.8C108.55,423.667 107.9,426.767 107.9,430.1C107.9,437.1 110.367,443 115.3,447.8C120.267,452.733 126.167,455.2 133,455.2C140,455.2 145.9,452.733 150.7,447.8C155.633,443 158.1,437.1 158.1,430.1C158.1,426.767 157.533,423.667 156.4,420.8C155.133,417.767 153.233,414.983 150.7,412.45C145.9,407.517 140,405.05 133,405.05C126.167,405.05 120.267,407.517 115.3,412.45C112.767,414.983 110.95,417.767 109.85,420.8Z" style="fill:none;fill-rule:nonzero;stroke:black;stroke-opacity:0.3;stroke-width:0.05px;"/>
                </g>
            </g>
        </g>
    </g>
</svg>
