<?xml version="1.0" encoding="UTF-8" standalone="no"?>
<!DOCTYPE svg PUBLIC "-//W3C//DTD SVG 1.1//EN" "http://www.w3.org/Graphics/SVG/1.1/DTD/svg11.dtd">
<svg width="100%" height="100%" viewBox="0 0 14 8" version="1.1" xmlns="http://www.w3.org/2000/svg" xmlns:xlink="http://www.w3.org/1999/xlink" xml:space="preserve" xmlns:serif="http://www.serif.com/" style="fill-rule:evenodd;clip-rule:evenodd;stroke-linecap:round;stroke-linejoin:round;">
    <g transform="matrix(1,0,0,1,0.0137,0.0053)">
        <g id="sprite0" transform="matrix(0.6106,0,0,0.6106,0.20001,0.3)">
            <g>
                <g id="shape0">
                    <path d="M10.35,6.7C11.617,6.367 12.667,5.867 13.5,5.2L10,5.5C8.733,5.833 7.7,6.333 6.9,7L10.35,6.7M15.1,4.45L15.1,4.5L20.95,4.4L14.6,6.5L14.5,6.6L18.15,8.45L12.7,7.85L11.8,8.25L11.55,11.1L9.9,8.8L8.7,8.9L4.65,11.9L5.55,10.5L5.55,10.45L5.7,10.3L6.7,8.7L6.15,8.5L0.15,9.85L5.15,7L5.2,6.7L5.35,6.3L1.75,4.45L6.55,5C7.083,4.567 7.75,4.2 8.55,3.9L8.45,3.65L8.75,0.8L10.4,3.15L10.5,3.4L12.55,3.25L16.9,0L14.45,3.8L15.1,4.45" style="fill:rgb(40,10,2);"/>
                    <path d="M15.1,4.45L14.45,3.8L16.9,0L12.55,3.25L10.5,3.4L10.4,3.15L8.75,0.8L8.45,3.65L8.55,3.9C7.75,4.2 7.083,4.567 6.55,5L1.75,4.45L5.35,6.3L5.2,6.7L5.15,7L0.15,9.85L6.15,8.5L6.7,8.7L5.7,10.3L5.55,10.45L5.55,10.5L4.65,11.9L8.7,8.9L9.9,8.8L11.55,11.1L11.8,8.25L12.7,7.85L18.15,8.45L14.5,6.6L14.6,6.5L20.95,4.4L15.1,4.5L15.1,4.45M10.35,6.7L6.9,7C7.7,6.333 8.733,5.833 10,5.5L13.5,5.2C12.667,5.867 11.617,6.367 10.35,6.7Z" style="fill:none;fill-rule:nonzero;stroke:rgb(40,10,2);stroke-width:1px;"/>
                    <path d="M10.4,3.15L10.65,4L10.6,4L9,1.7L8.75,4.5L8.5,3.65L8.75,0.8L10.4,3.15" style="fill:rgb(179,102,12);"/>
                    <path d="M9.65,4.25L8.75,4.5L9,1.7L9.25,2.6L10.1,3.9L9.6,4.05L9.65,4.25" style="fill:rgb(229,169,19);"/>
                    <path d="M10.6,4L9.65,4.25L9.6,4.05L10.1,3.9L9.25,2.6L9,1.7L10.6,4" style="fill:url(#_Linear1);"/>
                    <path d="M8.5,3.65L8.75,0.8L10.4,3.15" style="fill:none;fill-rule:nonzero;stroke:black;stroke-opacity:0.3;stroke-width:0.3px;"/>
                    <path d="M12.45,3.3L16.9,0L16.25,1.05L12.55,3.8L12.45,3.3" style="fill:rgb(179,102,12);"/>
                    <path d="M16.25,1.05L14.1,4.35L12.65,4.1L12.55,3.8L16.25,1.05" style="fill:rgb(229,169,19);"/>
                    <path d="M12.45,3.3L16.9,0L16.25,1.05L14.1,4.35" style="fill:none;fill-rule:nonzero;stroke:black;stroke-opacity:0.3;stroke-width:0.3px;"/>
                    <path d="M2.9,5L7.4,5.55L7.5,5.85L6.35,6.8L2.9,5" style="fill:rgb(229,169,19);"/>
                    <path d="M2.9,5L1.75,4.45L7.3,5.05L7.4,5.55L2.9,5" style="fill:rgb(179,102,12);"/>
                    <path d="M7.3,5.05L1.75,4.45L2.9,5L6.35,6.8" style="fill:none;fill-rule:nonzero;stroke:black;stroke-opacity:0.3;stroke-width:0.3px;"/>
                    <path d="M15.2,5.2L15.2,5.4L15.1,5.55L15.05,5.75C14.75,5.517 14.317,5.35 13.75,5.25L10,5.5C8.633,5.867 7.533,6.417 6.7,7.15L5.8,8.2L5.65,8.1L5.55,7.95L5.35,7.8L5.5,7.6L6.6,6.5C7.5,5.833 8.6,5.333 9.9,5L13.85,4.65L14.25,4.75L15.2,5.2" style="fill:rgb(179,102,12);"/>
                    <path d="M15.2,5.2L14.25,4.75L13.85,4.65L9.9,5C8.6,5.333 7.5,5.833 6.6,6.5L5.5,7.6L5.35,7.8L5.35,7.7L5.25,7.6L5.25,7.55C5.217,6.95 5.567,6.333 6.3,5.7C7.167,4.967 8.283,4.417 9.65,4.05L13.35,3.8C14.35,4 14.967,4.367 15.2,4.9L15.25,5L15.2,5.05L15.2,5.2" style="fill:rgb(229,169,19);"/>
                    <path d="M5.25,7.55L5.2,7.35L5.15,7.1C5.083,6.5 5.433,5.883 6.2,5.25C7.033,4.517 8.133,3.967 9.5,3.6L13.25,3.35C14.217,3.55 14.833,3.917 15.1,4.45L15.15,4.7L15.2,4.9C14.967,4.367 14.35,4 13.35,3.8L9.65,4.05C8.283,4.417 7.167,4.967 6.3,5.7C5.567,6.333 5.217,6.95 5.25,7.55" style="fill:rgb(255,226,67);"/>
                    <path d="M5.35,7.8L5.55,7.95L5.65,8.1L5.8,8.2L6.7,7.15C7.533,6.417 8.633,5.867 10,5.5L13.75,5.25C14.317,5.35 14.75,5.517 15.05,5.75L15.1,5.55L15.2,5.4L15.2,5.05L15.25,5L15.2,4.9L15.15,4.7L15.1,4.45C14.833,3.917 14.217,3.55 13.25,3.35L9.5,3.6C8.133,3.967 7.033,4.517 6.2,5.25C5.433,5.883 5.083,6.5 5.15,7.1L5.2,7.35L5.25,7.55L5.25,7.6L5.35,7.7L5.35,7.8Z" style="fill:none;fill-rule:nonzero;stroke:black;stroke-opacity:0.3;stroke-width:0.3px;"/>
                    <path d="M14.95,4.25L15,4.35L15,4.4L15.05,4.4L15.05,4.45L15.2,4.75L15.2,5L14.25,6.15C13.35,6.917 12.167,7.5 10.7,7.9L6.7,8.2L5.25,7.65L5.2,7.4L5.15,7.1L5.15,7L5.35,7.1L6.85,7.45L6.9,7.5L10.5,7.15C11.967,6.75 13.15,6.167 14.05,5.4L14.4,5.1L14.95,4.25" style="fill:rgb(229,169,19);"/>
                    <path d="M5.15,7L5.2,6.7L5.3,6.4L6.1,6.8L6.6,6.95L10.35,6.7C11.717,6.333 12.817,5.783 13.65,5.05L14.1,4.6L14.55,3.95L14.7,4L14.95,4.25L14.4,5.1L14.05,5.4C13.15,6.167 11.967,6.75 10.5,7.15L6.9,7.5L6.85,7.45L5.35,7.1L5.15,7" style="fill:rgb(255,226,67);"/>
                    <path d="M15.2,5C15.267,5.6 14.917,6.233 14.15,6.9C13.317,7.633 12.217,8.183 10.85,8.55L7.1,8.8C6.133,8.6 5.517,8.217 5.25,7.65L6.7,8.2L10.7,7.9C12.167,7.5 13.35,6.917 14.25,6.15L15.2,5" style="fill:rgb(179,102,12);"/>
                    <path d="M14.95,4.25L15,4.35L15,4.4L15.05,4.4L15.05,4.45L15.2,4.75L15.2,5C15.267,5.6 14.917,6.233 14.15,6.9C13.317,7.633 12.217,8.183 10.85,8.55L7.1,8.8C6.133,8.6 5.517,8.217 5.25,7.65L5.2,7.4L5.15,7.1L5.15,7L5.2,6.7L5.3,6.4M6.1,6.8L6.6,6.95L10.35,6.7C11.717,6.333 12.817,5.783 13.65,5.05L14.1,4.6M14.55,3.95L14.7,4L14.95,4.25" style="fill:none;fill-rule:nonzero;stroke:black;stroke-opacity:0.3;stroke-width:0.3px;"/>
                    <path d="M11.3,10.2L11.5,7.4L11.55,7.4L11.8,8.25L11.55,11.1L9.9,8.75L9.65,7.9L11.3,10.2" style="fill:rgb(179,102,12);"/>
                    <path d="M10.55,7.65L11.5,7.4L11.3,10.2L11.05,9.3L11.1,7.7L10.6,7.85L10.55,7.65" style="fill:url(#_Linear2);"/>
                    <path d="M10.55,7.65L10.6,7.85L11.1,7.7L11.05,9.3L11.3,10.2L9.65,7.9L10.55,7.65" style="fill:rgb(229,169,19);"/>
                    <path d="M11.8,8.25L11.55,11.1L9.9,8.75" style="fill:none;fill-rule:nonzero;stroke:black;stroke-opacity:0.3;stroke-width:0.3px;"/>
                    <path d="M11.25,9.7L11.15,10.05L11.15,10L10.8,9.6L10.25,8.75L10,8.25L10,8.1L11.3,7.75L11.35,8.05L11.35,8.65L11.25,9.7" style="fill:rgb(255,226,67);"/>
                    <path d="M9.1,8.6L4.65,11.9L5.3,10.85L9,8.1L9.1,8.6" style="fill:rgb(179,102,12);"/>
                    <path d="M5.3,10.85L7.45,7.55L8.9,7.8L9,8.1L5.3,10.85" style="fill:rgb(229,169,19);"/>
                    <path d="M9.1,8.6L4.65,11.9L5.3,10.85L7.45,7.55" style="fill:none;fill-rule:nonzero;stroke:black;stroke-opacity:0.3;stroke-width:0.3px;"/>
                    <path d="M5.55,10.45L6.9,8.65L7.35,7.95L8.25,8.4L7.75,8.9L6.4,9.95L5.55,10.45" style="fill:rgb(255,226,67);"/>
                    <path d="M6.8,8.35L0.15,9.85L1.8,8.9L6.75,7.9L6.8,8.35" style="fill:rgb(179,102,12);"/>
                    <path d="M1.8,8.9L5.6,6.75L6.75,7.6L6.75,7.9L1.8,8.9" style="fill:rgb(229,169,19);"/>
                    <path d="M6.8,8.35L0.15,9.85L1.8,8.9L5.6,6.75" style="fill:none;fill-rule:nonzero;stroke:black;stroke-opacity:0.3;stroke-width:0.3px;"/>
                    <path d="M5.35,7.3L6.1,7.85L6.25,7.9L5.45,8.05L3.35,8.6C2.75,8.833 2.6,8.85 2.9,8.65C3.167,8.483 3.633,8.233 4.3,7.9L5.3,7.4L5.35,7.3" style="fill:rgb(255,226,67);"/>
                    <path d="M17,7.9L12.5,7.35L12.4,7.05L13.55,6.1L17,7.9" style="fill:rgb(229,169,19);"/>
                    <path d="M17,7.9L18.15,8.45L12.6,7.85L12.5,7.35L17,7.9" style="fill:rgb(179,102,12);"/>
                    <path d="M12.6,7.85L18.15,8.45L17,7.9L13.55,6.1" style="fill:none;fill-rule:nonzero;stroke:black;stroke-opacity:0.3;stroke-width:0.3px;"/>
                    <path d="M16.4,7.6L15.45,7.6L13.8,7.35L13.1,7.15L13.6,6.3L14.35,6.7L15.75,7.3L16.4,7.6" style="fill:rgb(255,226,67);"/>
                    <path d="M19.1,4.45L14.25,6.05L14.15,5.85L14.7,4.5L19.1,4.45" style="fill:rgb(229,169,19);"/>
                    <path d="M19.1,4.45L20.95,4.4L14.5,6.5L14.25,6.05L19.1,4.45" style="fill:rgb(179,102,12);"/>
                    <path d="M14.5,6.5L20.95,4.4L19.1,4.45L14.7,4.5" style="fill:none;fill-rule:nonzero;stroke:black;stroke-opacity:0.3;stroke-width:0.3px;"/>
                    <path d="M16.25,4.75L17.85,4.7C18.217,4.7 18.067,4.75 17.4,4.85C16.767,4.983 16.067,5.2 15.3,5.5L14.45,5.75L14.65,5.6L15,4.75L16.25,4.75" style="fill:rgb(255,226,67);"/>
                </g>
            </g>
        </g>
    </g>
    <defs>
        <linearGradient id="_Linear1" x1="0" y1="0" x2="1" y2="0" gradientUnits="userSpaceOnUse" gradientTransform="matrix(0.65536,-0.49152,0.49152,0.65536,9.62062,3.39338)"><stop offset="0" style="stop-color:rgb(229,169,19);stop-opacity:1"/><stop offset="0.54" style="stop-color:rgb(229,169,19);stop-opacity:1"/><stop offset="1" style="stop-color:rgb(177,100,12);stop-opacity:1"/></linearGradient>
        <linearGradient id="_Linear2" x1="0" y1="0" x2="1" y2="0" gradientUnits="userSpaceOnUse" gradientTransform="matrix(0.8192,0,0,0.8192,10.9389,8.46258)"><stop offset="0" style="stop-color:rgb(229,169,19);stop-opacity:1"/><stop offset="0.54" style="stop-color:rgb(229,169,19);stop-opacity:1"/><stop offset="1" style="stop-color:rgb(177,100,12);stop-opacity:1"/></linearGradient>
    </defs>
</svg>
