<?xml version="1.0" encoding="UTF-8" standalone="no"?>
<!DOCTYPE svg PUBLIC "-//W3C//DTD SVG 1.1//EN" "http://www.w3.org/Graphics/SVG/1.1/DTD/svg11.dtd">
<svg width="100%" height="100%" viewBox="0 0 24 20" version="1.1" xmlns="http://www.w3.org/2000/svg" xmlns:xlink="http://www.w3.org/1999/xlink" xml:space="preserve" xmlns:serif="http://www.serif.com/" style="fill-rule:evenodd;clip-rule:evenodd;stroke-linecap:round;stroke-linejoin:round;">
    <g id="sprite0" transform="matrix(1,0,0,1,0.5,0.5)">
        <g>
            <g id="shape0">
                <path d="M22.5,12.4C20.7,15.4 18.567,17.167 16.1,17.7C14.333,18.733 11.833,18.317 8.6,16.45L6.7,15.25C6,14.75 5.717,14.1 5.85,13.3L6.1,12.6L5.4,12.7C4.567,11.233 4.1,9.817 4,8.45C3.9,7.05 4,5.55 4.3,3.95C3.1,4.317 1.667,5.3 0,6.9L0.65,5.4C1.25,4.333 2,3.317 2.9,2.35L4.45,0.95L4.5,0.9L4.8,0.7L5.35,0.3L6.7,0.25L7.2,0.75C7.667,1.383 8.1,2.35 8.5,3.65L8.5,3.8L8.6,4L9.45,2.7L11.65,1.4L10.8,2.5L10.9,2.4L12,1.65C12.3,1.45 12.633,1.283 13,1.15L14.35,1.35C14.783,1.55 15.283,1.933 15.85,2.5L16.1,2.75L16.6,1.85L16.6,1.8L15.75,0.55L15.25,0L16.65,0.7C17.15,1.367 17.55,2.167 17.85,3.1L17.45,4.15L18.35,5.15L19,4.15L17.7,2.4C18.133,2.5 18.6,2.717 19.1,3.05L20.3,5.45L19.75,6.8L22.35,9.9L22.7,11.1L22.5,11.95L22.5,12.4M22.15,10.95L21.05,9.25L17.8,5.75L17.4,5.65L17.85,5.95C19.817,7.75 21.283,9.483 22.25,11.15L22.15,10.95M18.35,5.15L18.4,5.2L18.65,5.5L18.4,5.2L18.35,5.15" style="fill:rgb(40,10,2);"/>
                <path d="M22.5,12.4C20.7,15.4 18.567,17.167 16.1,17.7C14.333,18.733 11.833,18.317 8.6,16.45L6.7,15.25C6,14.75 5.717,14.1 5.85,13.3L6.1,12.6L5.4,12.7C4.567,11.233 4.1,9.817 4,8.45C3.9,7.05 4,5.55 4.3,3.95C3.1,4.317 1.667,5.3 0,6.9L0.65,5.4C1.25,4.333 2,3.317 2.9,2.35L4.45,0.95L4.5,0.9L4.8,0.7L5.35,0.3L6.7,0.25L7.2,0.75C7.667,1.383 8.1,2.35 8.5,3.65L8.5,3.8L8.6,4L9.45,2.7L11.65,1.4L10.8,2.5L10.9,2.4L12,1.65C12.3,1.45 12.633,1.283 13,1.15L14.35,1.35C14.783,1.55 15.283,1.933 15.85,2.5L16.1,2.75L16.6,1.85L16.6,1.8L15.75,0.55L15.25,0L16.65,0.7C17.15,1.367 17.55,2.167 17.85,3.1L17.45,4.15L18.35,5.15L19,4.15L17.7,2.4C18.133,2.5 18.6,2.717 19.1,3.05L20.3,5.45L19.75,6.8L22.35,9.9L22.7,11.1L22.5,11.95L22.5,12.4M18.65,5.5L18.4,5.2L18.35,5.15" style="fill:none;fill-rule:nonzero;stroke:rgb(40,10,2);stroke-width:1px;"/>
                <path d="M16.7,0.7L17.9,3.1L17.3,4.5L16,2.85L16.6,1.85L15.3,0L16.7,0.7M19.05,4.2L19.2,5L19.05,4.2C18.65,3.433 18.2,2.833 17.7,2.4C18.167,2.5 18.633,2.717 19.1,3.05L20.3,5.45L19.7,6.9L18.4,5.2L19.05,4.2M16.6,1.85L16.8,2.65L16.6,1.85" style="fill:rgb(96,201,53);"/>
                <path d="M16.7,0.7L17.9,3.1L17.3,4.5L16,2.85L16.6,1.85L15.3,0L16.7,0.7M16.8,2.65L16.6,1.85M19.2,5L19.05,4.2L18.4,5.2L19.7,6.9L20.3,5.45L19.1,3.05C18.633,2.717 18.167,2.5 17.7,2.4C18.2,2.833 18.65,3.433 19.05,4.2" style="fill:none;fill-rule:nonzero;stroke:white;stroke-opacity:0.55;stroke-width:0.05px;"/>
                <path d="M15.15,17.85C13.05,17.583 11.55,16.783 10.65,15.45L10.6,15.3C10.267,14.767 10.333,14.033 10.8,13.1C11.533,11.567 12.717,9.733 14.35,7.6C15.983,5.467 17.467,4.917 18.8,5.95C20.1,6.95 21.083,8.217 21.75,9.75L22.6,12.35C20.533,15.75 18.05,17.583 15.15,17.85" style="fill:rgb(19,20,22);"/>
                <path d="M15.85,4.9L16.05,5L16.8,5.3L17.2,5.5L17.95,6.1L18.15,6.25L19.1,7.4L19.6,8.15L19.85,8.8C20.183,9.8 20.217,10.833 19.95,11.9C19.683,13.233 19.05,14.317 18.05,15.15L17.35,15.65C16.117,16.483 14.8,16.817 13.4,16.65L13.35,16.65L12.8,16.5L11.2,15.95C10.333,15.517 9.6,14.833 9,13.9C8.533,13.2 8.233,12.467 8.1,11.7L8.05,11.6C7.95,10.9 7.983,10.167 8.15,9.4C8.417,8.233 8.933,7.267 9.7,6.5L10,6.15C10.133,6.05 10.283,5.933 10.45,5.8L10.8,5.6C11.567,5.067 12.4,4.75 13.3,4.65L15.3,4.75L15.8,4.9L15.85,4.9" style="fill:rgb(40,43,50);"/>
                <path d="M15.85,4.9L16.05,5L16.8,5.3L17.2,5.5L17.95,6.1L18.15,6.25L19.1,7.4L19.6,8.15L19.85,8.8C20.183,9.8 20.217,10.833 19.95,11.9C19.683,13.233 19.05,14.317 18.05,15.15L17.35,15.65C16.117,16.483 14.8,16.817 13.4,16.65L13.35,16.65L12.8,16.5L11.2,15.95C10.333,15.517 9.6,14.833 9,13.9C8.533,13.2 8.233,12.467 8.1,11.7L8.05,11.6C7.95,10.9 7.983,10.167 8.15,9.4C8.417,8.233 8.933,7.267 9.7,6.5L10,6.15C10.133,6.05 10.283,5.933 10.45,5.8L10.8,5.6C11.567,5.067 12.4,4.75 13.3,4.65L15.3,4.75L15.8,4.9L15.85,4.9Z" style="fill:none;fill-rule:nonzero;stroke:black;stroke-opacity:0.3;stroke-width:0.05px;"/>
                <path d="M6.95,1.7L6.85,1.45L6.55,1.05L6.1,0.6L6.75,0.7L6.1,0.6L6.55,1.05L6.85,1.45L6.95,1.7L5.25,1.3L6.1,0.6L4.8,0.8C4.7,0.833 4.617,0.883 4.55,0.95C4.617,0.883 4.7,0.833 4.8,0.8L6.1,0.6L5.25,1.3C4.55,1.4 3.783,1.75 2.95,2.35L4.5,0.95L4.55,0.95L4.85,0.7L5.4,0.25C5.867,-0.083 6.317,-0.083 6.75,0.25L7.25,0.75C7.717,1.383 8.133,2.35 8.5,3.65L7.4,2.05L7.1,1.8L6.95,1.7" style="fill:rgb(89,96,110);"/>
                <path d="M6.95,1.7L7.1,1.8L7.4,2.05L8.5,3.65L8.55,3.7L8.6,3.85L8.7,4.45L8.3,5.05L7.85,3.8L8.3,5.05C7.7,5.917 7.283,6.917 7.05,8.05C5.85,8.417 5.35,8.85 5.55,9.35C4.35,7.583 4.1,5.467 4.8,3L5.1,2.45C3.633,2.983 2.167,3.95 0.7,5.35C1.3,4.317 2.05,3.317 2.95,2.35C3.783,1.75 4.55,1.4 5.25,1.3L6.95,1.7L7,1.8L7.1,1.8L7,1.8L6.95,1.7M8.55,3.7L7.85,3.8L7,1.8C6.733,1.833 6.5,2.033 6.3,2.4C6.5,2.033 6.733,1.833 7,1.8L7.85,3.8L8.55,3.7M7.85,3.8C7.55,3.867 7.25,4.1 6.95,4.5C7.25,4.1 7.55,3.867 7.85,3.8" style="fill:rgb(66,71,81);"/>
                <path d="M8.7,4.45L8.85,4.9L8.45,5.6L8.35,6L7.75,8.2C7.717,8.433 8.033,8.667 8.7,8.9C8.2,11.4 7.117,12.667 5.45,12.7C4.617,11.233 4.15,9.817 4.05,8.45C3.95,7.083 4.05,5.583 4.35,3.95C3.15,4.317 1.7,5.3 0,6.9L0.7,5.35C2.167,3.95 3.633,2.983 5.1,2.45L4.8,3C4.1,5.467 4.35,7.583 5.55,9.35C5.35,8.85 5.85,8.417 7.05,8.05C7.283,6.917 7.7,5.917 8.3,5.05L8.35,5.25L8.45,5.6L8.35,5.25L8.3,5.05L8.7,4.45M4.8,3L4.45,3.75L4.35,3.95L4.45,3.75L4.8,3" style="fill:rgb(45,48,54);"/>
                <path d="M6.75,0.7L6.1,0.6L6.55,1.05L6.85,1.45L6.95,1.7L7,1.8L7.1,1.8L7.4,2.05M8.5,3.65C8.133,2.35 7.717,1.383 7.25,0.75L6.75,0.25C6.317,-0.083 5.867,-0.083 5.4,0.25L4.85,0.7L4.55,0.95C4.617,0.883 4.7,0.833 4.8,0.8L6.1,0.6L5.25,1.3M6.3,2.4C6.5,2.033 6.733,1.833 7,1.8L7.85,3.8L8.55,3.7L8.5,3.65M8.55,3.7L8.6,3.85L8.7,4.45L8.85,4.9M8.7,8.9C8.2,11.4 7.117,12.667 5.45,12.7C4.617,11.233 4.15,9.817 4.05,8.45C3.95,7.083 4.05,5.583 4.35,3.95C3.15,4.317 1.7,5.3 0,6.9L0.7,5.35C1.3,4.317 2.05,3.317 2.95,2.35L4.5,0.95L4.55,0.95M8.3,5.05L8.35,5.25L8.45,5.6M7.85,3.8L8.3,5.05M6.95,4.5C7.25,4.1 7.55,3.867 7.85,3.8M4.35,3.95L4.45,3.75L4.8,3L5.1,2.45" style="fill:none;fill-rule:nonzero;stroke:black;stroke-opacity:0.3;stroke-width:0.05px;"/>
                <path d="M11,2.4L12.1,1.65L13.1,1.15L14.45,1.35L15.95,2.5L16.15,2.7L17.5,4.1L22.45,9.9L22.8,11.1L22.55,12.2L22.55,11.85L22.25,11L21.15,9.3L17.9,5.8L16.5,4.35L15.9,3.8L15.25,3L15.1,2.85L15.15,2.85C15.35,2.717 15.617,2.6 15.95,2.5C15.617,2.6 15.35,2.717 15.15,2.85L15.1,2.85L15.25,3L15.9,3.8L15.05,2.9L15.1,2.85L14.75,2.6L15.1,2.85L15.05,2.9L14.65,2.5L14.1,2.05L13.45,1.8L13.35,1.8L12.1,2L11,2.4M14.45,1.35L13.35,1.8L14.45,1.35M17.5,4.1L16.5,4.35L17.5,4.1" style="fill:rgb(89,96,110);"/>
                <path d="M7.7,8.05L8.3,5.9L8.35,5.7L8.45,5.5L8.8,4.75L9.3,4.05L9.4,3.95L11,2.4L12.1,2L13.35,1.8L13.45,1.8L14.1,2.05L14.65,2.5L15.05,2.9L15.9,3.8L16.4,4.4C16.033,4.567 15.667,4.85 15.3,5.25C15.667,4.85 16.033,4.567 16.4,4.4L15.9,3.8L16.5,4.35L17.9,5.8L17.2,5.65C16.8,5.717 16.367,6.017 15.9,6.55C14.3,8.183 13.033,9.6 12.1,10.8L11.65,11.4L10.75,12.9C10.417,13.667 10.3,14.283 10.4,14.75C9.167,15.017 8.183,14.65 7.45,13.65L7.5,12C7.467,10.733 7.533,9.417 7.7,8.05M14.25,3.6L15.05,2.9L14.25,3.6M17.2,5.65L16.4,4.4L16.5,4.35L16.4,4.4L17.2,5.65M13.35,1.8L12.5,2.75L13.35,1.8" style="fill:rgb(66,71,81);"/>
                <path d="M16.6,17.4C14.867,18.833 12.233,18.517 8.7,16.45L6.8,15.25C6.1,14.75 5.817,14.117 5.95,13.35L7.55,8.8L7.7,8.05C7.533,9.417 7.467,10.733 7.5,12L7.45,13.65C8.183,14.65 9.167,15.017 10.4,14.75L10.55,15.1L10.65,15.25L11.45,16.2C12.35,17 13.583,17.483 15.15,17.65L16.6,17.4" style="fill:rgb(45,48,54);"/>
                <path d="M11,2.4L12.1,1.65L13.1,1.15L14.45,1.35L15.95,2.5L16.15,2.7L17.5,4.1L22.45,9.9L22.8,11.1L22.55,12.2L22.5,12.25C20.733,15.217 18.767,16.933 16.6,17.4C14.867,18.833 12.233,18.517 8.7,16.45L6.8,15.25C6.1,14.75 5.817,14.117 5.95,13.35L7.55,8.8L7.7,8.05L8.3,5.9L8.35,5.7L8.45,5.5L8.8,4.75L9.3,4.05L9.4,3.95L11,2.4L12.1,2L13.35,1.8L14.45,1.35M22.55,12.2L22.55,11.85L22.25,11L21.15,9.3L17.9,5.8L17.2,5.65C16.8,5.717 16.367,6.017 15.9,6.55C14.3,8.183 13.033,9.6 12.1,10.8L11.65,11.4L10.75,12.9C10.417,13.667 10.3,14.283 10.4,14.75L10.55,15.1L10.65,15.25L11.45,16.2C12.35,17 13.583,17.483 15.15,17.65L16.6,17.4M15.3,5.25C15.667,4.85 16.033,4.567 16.4,4.4L15.9,3.8L15.25,3L15.1,2.85L15.05,2.9L14.25,3.6M16.5,4.35L17.5,4.1M16.5,4.35L16.4,4.4L17.2,5.65M15.95,2.5C15.617,2.6 15.35,2.717 15.15,2.85L15.1,2.85L14.75,2.6L14.65,2.5L14.1,2.05L13.45,1.8L13.35,1.8L12.5,2.75" style="fill:none;fill-rule:nonzero;stroke:black;stroke-opacity:0.3;stroke-width:0.05px;"/>
                <path d="M13.75,3.25L12.3,5.9C12.1,6.567 12.083,7.133 12.25,7.6L13.05,8.7C12.683,9.467 12.083,9.917 11.25,10.05L10.75,9.55L10.1,8.45C10.2,7.817 10.417,7.183 10.75,6.55L11.3,5.6L11.7,4.9L13.75,3.25M19.4,8L19.35,8.5L19.2,10.15L19.15,10.3L19,10.95L18.6,11.95L18.25,12.3L18.05,12.1L17.95,11.6L17.95,11.55L19.4,8M9.55,6.1L10.05,6.8C9.917,7.633 9.433,8.1 8.6,8.2C8.133,7.9 7.75,7.367 7.45,6.6C7.717,5.433 8.383,4.133 9.45,2.7L11.65,1.4L9.9,3.6C9.567,4.6 9.45,5.433 9.55,6.1M18.05,13.65L19.05,12.3L18.4,14.45L17.1,14.4L15.7,15.8L14.3,14.6L15.8,15L16.95,13.4L18.05,13.65M12.5,12.9C12.333,12.4 12.383,11.717 12.65,10.85L15.9,12.4C15.667,12.967 15.317,13.4 14.85,13.7C14.517,13.933 14.2,14.05 13.9,14.05L13.45,14C13.15,13.9 12.917,13.733 12.75,13.5L12.55,13.05L12.5,12.9" style="fill:rgb(96,201,53);"/>
                <path d="M13.75,3.25L12.3,5.9C12.1,6.567 12.083,7.133 12.25,7.6L13.05,8.7C12.683,9.467 12.083,9.917 11.25,10.05L10.75,9.55L10.1,8.45C10.2,7.817 10.417,7.183 10.75,6.55L11.3,5.6L11.7,4.9L13.75,3.25M19.4,8L17.95,11.55L17.95,11.6L18.05,12.1L18.25,12.3L18.6,11.95L19,10.95L19.15,10.3L19.2,10.15L19.35,8.5L19.4,8M9.55,6.1L10.05,6.8C9.917,7.633 9.433,8.1 8.6,8.2C8.133,7.9 7.75,7.367 7.45,6.6C7.717,5.433 8.383,4.133 9.45,2.7L11.65,1.4L9.9,3.6C9.567,4.6 9.45,5.433 9.55,6.1M18.05,13.65L19.05,12.3L18.4,14.45L17.1,14.4L15.7,15.8L14.3,14.6L15.8,15L16.95,13.4L18.05,13.65M12.5,12.9C12.333,12.4 12.383,11.717 12.65,10.85L15.9,12.4C15.667,12.967 15.317,13.4 14.85,13.7C14.517,13.933 14.2,14.05 13.9,14.05L13.45,14C13.15,13.9 12.917,13.733 12.75,13.5L12.55,13.05L12.5,12.9Z" style="fill:none;fill-rule:nonzero;stroke:white;stroke-opacity:0.55;stroke-width:0.05px;"/>
                <path d="M17.95,6.1L18.15,6.25L19.1,7.4L19.6,8.15L19.85,8.8L18.75,7.75L18,7.6C17.6,7.667 17.167,7.967 16.7,8.5L14.3,11.05L12.25,13C12.017,13.5 11.9,13.933 11.9,14.3L11.9,14.8L12.05,15.2L12.15,15.35L12.95,16.25L13.4,16.65L13.35,16.65L12.8,16.5L11.2,15.95L11.1,15.95L10.65,15.25L10.55,15.1L10.4,14.75C10.3,14.283 10.417,13.667 10.75,12.9L11.65,11.4L12.1,10.8C13.033,9.6 14.3,8.183 15.9,6.55C16.367,6.017 16.8,5.717 17.2,5.65L17.45,5.6L17.95,6.1" style="fill-opacity:0.55;"/>
            </g>
        </g>
    </g>
</svg>
