<?xml version="1.0" encoding="UTF-8" standalone="no"?>
<!DOCTYPE svg PUBLIC "-//W3C//DTD SVG 1.1//EN" "http://www.w3.org/Graphics/SVG/1.1/DTD/svg11.dtd">
<svg width="100%" height="100%" viewBox="0 0 22 26" version="1.1" xmlns="http://www.w3.org/2000/svg" xmlns:xlink="http://www.w3.org/1999/xlink" xml:space="preserve" xmlns:serif="http://www.serif.com/" style="fill-rule:evenodd;clip-rule:evenodd;stroke-linecap:round;stroke-linejoin:round;">
    <g id="sprite0" transform="matrix(1,0,0,1,0.5,0.5)">
        <g>
            <g id="shape0">
                <path d="M20.45,12.65L20.45,12.8C20.883,14.1 20.933,15.2 20.6,16.1L20.1,17.2L19.85,17.6L19,18.45L18.9,18.5L18.75,18.6L18.2,19.05L18.2,19.65C15.667,19.783 12.933,20.867 10,22.9L9.9,23.05L9.1,23.85L8.95,23.9L8.8,24.05L7.8,24.85L7.55,24.95L5.95,24.95L5.35,24.85C4.117,24.417 2.95,23.85 1.85,23.15L0.7,22.05C-0.233,20.75 -0.233,18.917 0.7,16.55C1.033,15.083 1.233,13.7 1.3,12.4L1.45,8.35L1.2,6.3L1,5.45L1.8,6.2L2.2,6.6C4,8.567 5.3,10.983 6.1,13.85C7.467,13.083 8.867,12.5 10.3,12.1L10.65,11.1C10.983,9.667 11.183,8.283 11.25,6.95L11.3,6.85L11.4,4.9L11.35,2.95L11.2,1.65L11.1,0.85L10.9,0L11.7,0.75L12.15,1.2C13.917,3.133 15.217,5.55 16.05,8.45L16.1,8.4L16.15,8.4L16.25,8.35L16.45,8.2L17.45,8.35L18.5,9.15L18.6,9.25C19.4,10.117 20.017,11.25 20.45,12.65" style="fill:rgb(40,10,2);"/>
                <path d="M20.45,12.65C20.017,11.25 19.4,10.117 18.6,9.25L18.5,9.15L17.45,8.35L16.45,8.2L16.25,8.35L16.15,8.4L16.1,8.4L16.05,8.45C15.217,5.55 13.917,3.133 12.15,1.2L11.7,0.75L10.9,0L11.1,0.85L11.2,1.65L11.35,2.95L11.4,4.9L11.3,6.85L11.25,6.95C11.183,8.283 10.983,9.667 10.65,11.1L10.3,12.1C8.867,12.5 7.467,13.083 6.1,13.85C5.3,10.983 4,8.567 2.2,6.6L1.8,6.2L1,5.45L1.2,6.3L1.45,8.35L1.3,12.4C1.233,13.7 1.033,15.083 0.7,16.55C-0.233,18.917 -0.233,20.75 0.7,22.05L1.85,23.15C2.95,23.85 4.117,24.417 5.35,24.85L5.95,24.95L7.55,24.95L7.8,24.85L8.8,24.05L8.95,23.9L9.1,23.85L9.9,23.05L10,22.9C12.933,20.867 15.667,19.783 18.2,19.65L18.2,19.05L18.75,18.6L18.9,18.5L19,18.45L19.85,17.6L20.1,17.2L20.6,16.1C20.933,15.2 20.883,14.1 20.45,12.8L20.45,12.65Z" style="fill:none;fill-rule:nonzero;stroke:rgb(40,10,2);stroke-width:1px;"/>
                <path d="M18.6,9.25C19.4,10.117 20.017,11.25 20.45,12.65L20.45,12.8C20.883,14.1 20.933,15.2 20.6,16.1L20.1,17.2L19.85,17.6L19,18.45L18.9,18.5L18.75,18.6L17.75,19.4L18.25,18.6L18.35,17.95L18.5,16.9L18.35,15.9L18.25,15.6C18.083,14.667 17.683,13.683 17.05,12.65L16.4,11.6L16.3,11.5L16.05,11.1L18.6,9.25M11.7,0.75L12.15,1.2C13.917,3.133 15.217,5.55 16.05,8.45L15.9,8.5C15.333,8.833 14.683,9.233 13.95,9.7L13.85,9.75L13.85,9.55C13.65,7.55 13.35,5.733 12.95,4.1L12.65,3.05L11.75,0.85L11.7,0.75" style="fill:rgb(245,218,108);"/>
                <path d="M16.05,11.1L16.3,11.5L16.4,11.6L17.05,12.65C17.683,13.683 18.083,14.667 18.25,15.6L18.35,15.9L18.5,16.9C17.033,18.2 15.483,18.517 13.85,17.85L12.4,17.2L11.65,16C11.983,16.433 12.5,16.833 13.2,17.2C14.9,18.067 16.1,17.117 16.8,14.35C16.367,13.117 15.817,12.167 15.15,11.5L15.4,14.2C15.467,14.8 15.333,15.267 15,15.6L14.5,15.9L14.35,15.9C13.65,15.967 13.183,15.617 12.95,14.85C12.583,14.083 12.4,13.35 12.4,12.65L12.4,11.9L12.5,11.25C13.3,8.483 12.933,5.717 11.4,2.95L11.1,0.85L10.9,0L11.7,0.75L11.75,0.85L12.65,3.05L12.95,4.1C13.35,5.733 13.65,7.55 13.85,9.55L13.85,9.75L13.95,9.7C14.483,9.7 14.917,9.817 15.25,10.05L15.7,10.65L16.05,11.1M13.85,9.75C13.283,10.017 12.833,10.517 12.5,11.25C12.833,10.517 13.283,10.017 13.85,9.75" style="fill:rgb(238,179,42);"/>
                <path d="M18.5,16.9L18.35,17.95L18.25,18.6L17.75,19.4L17.45,19.5L15.9,19.5L15.25,19.4C14.05,18.967 12.883,18.4 11.75,17.7L10.6,16.6C9.7,15.333 9.717,13.5 10.65,11.1C10.983,9.667 11.183,8.283 11.25,6.95L11.4,2.95C12.933,5.717 13.3,8.483 12.5,11.25L12.4,11.9L12.4,12.65C12.4,13.35 12.583,14.083 12.95,14.85C13.183,15.617 13.65,15.967 14.35,15.9L14.5,15.9L15,15.6C15.333,15.267 15.467,14.8 15.4,14.2L15.15,11.5C15.817,12.167 16.367,13.117 16.8,14.35C16.1,17.117 14.9,18.067 13.2,17.2C12.5,16.833 11.983,16.433 11.65,16L12.4,17.2L13.85,17.85C15.483,18.517 17.033,18.2 18.5,16.9" style="fill:rgb(201,128,47);"/>
                <path d="M18.6,9.25L16.05,11.1L15.7,10.65L15.25,10.05C14.917,9.817 14.483,9.7 13.95,9.7C14.683,9.233 15.333,8.833 15.9,8.5L16.05,8.45L16.25,8.35L16.45,8.2L17.45,8.35L18.5,9.15L18.6,9.25" style="fill:rgb(245,228,159);"/>
                <path d="M19,18.45L19.85,17.6L20.1,17.2L20.6,16.1C20.933,15.2 20.883,14.1 20.45,12.8L20.45,12.65C20.017,11.25 19.4,10.117 18.6,9.25L18.5,9.15L17.45,8.35L16.45,8.2L16.25,8.35L16.05,8.45C15.217,5.55 13.917,3.133 12.15,1.2L11.7,0.75L10.9,0L11.1,0.85L11.4,2.95L11.25,6.95C11.183,8.283 10.983,9.667 10.65,11.1C9.717,13.5 9.7,15.333 10.6,16.6L11.75,17.7C12.883,18.4 14.05,18.967 15.25,19.4L15.9,19.5L17.45,19.5L17.75,19.4L18.75,18.6L18.9,18.5M19,18.45L18.9,18.55L18.75,18.6M13.85,9.75L13.95,9.7C14.683,9.233 15.333,8.833 15.9,8.5L16.05,8.45L16.1,8.4L16.15,8.4M12.5,11.25C12.833,10.517 13.283,10.017 13.85,9.75M12.5,11.25L12.4,11.9L12.4,12.65C12.4,13.35 12.583,14.083 12.95,14.85C13.183,15.617 13.65,15.967 14.35,15.9L14.5,15.9L15,15.6C15.333,15.267 15.467,14.8 15.4,14.2" style="fill:none;fill-rule:nonzero;stroke:black;stroke-opacity:0.3;stroke-width:0.05px;"/>
                <path d="M11.1,0.85L10.9,0L11.7,0.75L11.75,0.85L12.65,3.05L12.9,4.1C13.333,5.733 13.633,7.55 13.8,9.55L13.8,9.8L13.85,9.7L13.95,9.7C14.483,9.7 14.917,9.817 15.25,10.05L15.7,10.65L16,11.1L16.25,11.5L16.4,11.6L17.05,12.65C17.65,13.683 18.05,14.667 18.25,15.6L18.35,15.9L18.5,16.9L18.35,17.95L18.25,18.6L17.95,19L17.7,19.4L17.45,19.5L15.9,19.5L15.25,19.4C14.05,18.967 12.883,18.4 11.75,17.7L10.6,16.6C9.7,15.333 9.717,13.5 10.65,11.1L11.25,6.95C11.417,5.583 11.45,4.25 11.35,2.95L11.1,0.85" style="fill:rgb(124,13,13);fill-opacity:0.3;"/>
                <path d="M2.75,17.3L1.95,16.85C5.45,13.717 9.25,11.933 13.35,11.5C13.583,11.567 13.783,11.683 13.95,11.85C12.283,12.083 10.667,12.567 9.1,13.3C8.7,13.433 8.35,13.6 8.05,13.8C6.983,14.3 5.933,14.917 4.9,15.65L2.75,17.3M17.75,18.45L18.2,18.9C14.667,19.3 11.35,20.767 8.25,23.3C6.883,22 5.633,20.567 4.5,19L8.7,22.4C11.233,19.9 14.25,18.583 17.75,18.45" style="fill:rgb(238,179,42);"/>
                <path d="M13.95,11.85L14.05,12.45C12.35,12.65 10.717,13.1 9.15,13.8L8.15,14.25L5.35,15.85L3.2,17.55L2.75,17.3L4.9,15.65C5.933,14.917 6.983,14.3 8.05,13.8C8.35,13.6 8.7,13.433 9.1,13.3C10.667,12.567 12.283,12.083 13.95,11.85M18.2,18.9L18.2,19.65C15.267,19.817 12.05,21.25 8.55,23.95C8.483,24.15 8.383,23.933 8.25,23.3C11.35,20.767 14.667,19.3 18.2,18.9" style="fill:rgb(201,128,47);"/>
                <path d="M15.25,13.3L15.8,13.85L16,14.1C16.7,14.833 17.183,15.7 17.45,16.7C15.583,16.7 13.65,17.217 11.65,18.25C10.95,16.683 10.05,15.517 8.95,14.75L8.15,14.25L9.15,13.8L12.6,13.3L15.25,13.3" style="fill:rgb(15,168,212);"/>
                <path d="M17.45,16.7L17.7,17.8L17.75,18.45C14.25,18.583 11.233,19.9 8.7,22.4L4.5,19L2.75,18L3.2,17.55L5.35,15.85L8.15,14.25L8.95,14.75C10.05,15.517 10.95,16.683 11.65,18.25C13.65,17.217 15.583,16.7 17.45,16.7" style="fill:rgb(23,114,141);"/>
                <path d="M14.05,12.45L14.65,12.85L15.25,13.3L12.6,13.3L9.15,13.8C10.717,13.1 12.35,12.65 14.05,12.45" style="fill:rgb(18,199,249);"/>
                <path d="M2.75,17.3L1.95,16.85C5.45,13.717 9.25,11.933 13.35,11.5C13.583,11.567 13.783,11.683 13.95,11.85L14.05,12.45L14.65,12.85L15.25,13.3L15.8,13.85L16,14.1C16.7,14.833 17.183,15.7 17.45,16.7L17.7,17.8L17.75,18.45L18.2,18.9L18.2,19.65C15.267,19.817 12.05,21.25 8.55,23.95C8.483,24.15 8.383,23.933 8.25,23.3C6.883,22 5.633,20.567 4.5,19L2.75,18L3.2,17.55L2.75,17.3M8.15,14.25L9.15,13.8C10.717,13.1 12.35,12.65 14.05,12.45M8.15,14.25L5.35,15.85L3.2,17.55M17.75,18.45C14.25,18.583 11.233,19.9 8.7,22.4L4.5,19" style="fill:none;fill-rule:nonzero;stroke:black;stroke-opacity:0.3;stroke-width:0.05px;"/>
                <path d="M3.9,15.2L3.9,14.95C3.733,12.983 3.433,11.183 3,9.55L2.75,8.5L1.85,6.3L1.8,6.2L2.2,6.6C4,8.567 5.3,10.983 6.1,13.85L5.95,13.95L4,15.1L4.05,15.1L3.95,15.15L3.9,15.2L3.95,15.15L3.9,15.25L3.9,15.2M8.65,14.65L8.65,14.7C9.483,15.533 10.1,16.667 10.5,18.1L10.55,18.2C10.983,19.533 11.033,20.633 10.7,21.5L10.15,22.65L9.9,23.05L9.1,23.85L8.95,23.9L8.8,24.05L7.8,24.85L8.3,24.05L8.45,23.4L8.6,22.35L8.45,21.3L8.3,21.05C8.133,20.117 7.75,19.133 7.15,18.1L6.5,17.05L6.35,16.9L6.1,16.55L8.65,14.65" style="fill:rgb(245,218,108);"/>
                <path d="M1.8,6.2L1.85,6.3L2.75,8.5L3,9.55C3.433,11.183 3.733,12.983 3.9,14.95L3.9,15.2C3.367,15.433 2.933,15.933 2.6,16.7C2.933,15.933 3.367,15.433 3.9,15.2L3.9,15.25L3.95,15.15L4.05,15.1C4.583,15.1 5.017,15.233 5.35,15.5L5.75,16.1L6.1,16.55L6.35,16.9L6.5,17.05L7.15,18.1C7.75,19.133 8.133,20.117 8.3,21.05L8.45,21.3L8.6,22.35C7.1,23.65 5.533,23.967 3.9,23.3L2.5,22.6L1.7,21.45L3.25,22.6C4.983,23.467 6.2,22.517 6.9,19.75C6.467,18.55 5.9,17.6 5.2,16.9L5.45,19.65C5.55,20.25 5.417,20.717 5.05,21.05L4.55,21.3L4.4,21.3C3.733,21.4 3.267,21.067 3,20.3C2.667,19.5 2.5,18.767 2.5,18.1L2.5,17.3L2.6,16.7C3.4,13.9 3.017,11.117 1.45,8.35L1.2,6.3L1,5.45L1.8,6.2" style="fill:rgb(238,179,42);"/>
                <path d="M4.05,15.1L4,15.1L5.95,13.95L6.1,13.85L6.1,13.9L6.2,13.85L6.25,13.85L6.2,13.85L6.1,13.9L6.1,13.85L6.3,13.75L6.25,13.85L6.5,13.65L7.55,13.8L8.6,14.6L8.65,14.65L6.1,16.55L5.75,16.1L5.35,15.5C5.017,15.233 4.583,15.1 4.05,15.1" style="fill:rgb(245,228,159);"/>
                <path d="M1.45,8.35C3.017,11.117 3.4,13.9 2.6,16.7L2.5,17.3L2.5,18.1C2.5,18.767 2.667,19.5 3,20.3C3.267,21.067 3.733,21.4 4.4,21.3L4.55,21.3L5.05,21.05C5.417,20.717 5.55,20.25 5.45,19.65L5.2,16.9C5.9,17.6 6.467,18.55 6.9,19.75C6.2,22.517 4.983,23.467 3.25,22.6L1.7,21.45L2.5,22.6L3.9,23.3C5.533,23.967 7.1,23.65 8.6,22.35L8.45,23.4L8.3,24.05L7.8,24.85L7.55,24.95L5.95,24.95L5.35,24.85C4.117,24.417 2.95,23.85 1.85,23.15L0.7,22.05C-0.233,20.75 -0.233,18.917 0.7,16.55C1.033,15.083 1.233,13.7 1.3,12.4L1.45,8.35" style="fill:rgb(201,128,47);"/>
                <path d="M1.8,6.2L1,5.45L1.2,6.3L1.45,8.35L1.3,12.4C1.233,13.7 1.033,15.083 0.7,16.55C-0.233,18.917 -0.233,20.75 0.7,22.05L1.85,23.15C2.95,23.85 4.117,24.417 5.35,24.85L5.95,24.95L7.55,24.95L7.8,24.85L8.8,24.05L8.95,23.9M2.6,16.7C2.933,15.933 3.367,15.433 3.9,15.2L3.95,15.15L4.05,15.1L4,15.1L5.95,13.95L6.1,13.85C5.3,10.983 4,8.567 2.2,6.6L1.8,6.2M8.65,14.65L8.6,14.6L7.55,13.8L6.5,13.65L6.25,13.85L6.2,13.85L6.1,13.9L6.1,13.85L6.3,13.75L6.25,13.85M9.1,23.85L9.9,23.05L10.15,22.65L10.7,21.5C11.033,20.633 10.983,19.533 10.55,18.2L10.5,18.1C10.1,16.667 9.483,15.533 8.65,14.7L8.65,14.65M9.1,23.85L8.95,24L8.8,24.05M2.6,16.7L2.5,17.3L2.5,18.1C2.5,18.767 2.667,19.5 3,20.3C3.267,21.067 3.733,21.4 4.4,21.3L4.55,21.3L5.05,21.05C5.417,20.717 5.55,20.25 5.45,19.65" style="fill:none;fill-rule:nonzero;stroke:black;stroke-opacity:0.3;stroke-width:0.05px;"/>
            </g>
        </g>
    </g>
</svg>
