<?xml version="1.0" encoding="UTF-8" standalone="no"?>
<!DOCTYPE svg PUBLIC "-//W3C//DTD SVG 1.1//EN" "http://www.w3.org/Graphics/SVG/1.1/DTD/svg11.dtd">
<svg width="100%" height="100%" viewBox="0 0 23 23" version="1.1" xmlns="http://www.w3.org/2000/svg" xmlns:xlink="http://www.w3.org/1999/xlink" xml:space="preserve" xmlns:serif="http://www.serif.com/" style="fill-rule:evenodd;clip-rule:evenodd;stroke-linecap:round;stroke-linejoin:round;">
    <g id="sprite0" transform="matrix(1,0,0,1,0.5,0.5)">
        <g>
            <g id="shape0">
                <path d="M20.8,7.6L21.2,6.45L21.2,11.3L18.95,13.3L20.3,16.75C19.6,15.483 18.833,14.533 18,13.9L18,15.25L16.45,13.55C15.983,14.05 15.3,14.167 14.4,13.9L14.35,13.9L12.45,15.45L13.85,15.45C11.783,17.483 9.983,19.55 8.45,21.65L9.65,18.6L6.2,21.5L6.9,16.8L4.3,20.7L4.3,16.6L5.85,13.75L3.45,14.05C2.75,14.75 2.217,15.533 1.85,16.4L2.35,12.2L3.55,11.1C2.417,11.133 1.233,11.45 0,12.05L1.5,10L4.5,9.1L0.55,7.45L6.2,6.45L5.2,5.25L1.65,4.75L2.45,4.45C4.35,3.683 6.233,3.117 8.1,2.75C8.8,2.95 9.4,3.4 9.9,4.1L9.55,3.4L10.4,3.95L8.45,0L10.25,0.9L14.25,3.8L15.25,7.1L15.8,4.3L14.85,1L16.8,3.95L16.5,2.35L20.05,6.7L19.2,10.2C19.867,9.567 20.4,8.7 20.8,7.6M17.9,13.2L18.05,13.35L18.05,13.25L17.9,13.2" style="fill:rgb(40,10,2);"/>
                <path d="M20.8,7.6C20.4,8.7 19.867,9.567 19.2,10.2L20.05,6.7L16.5,2.35L16.8,3.95L14.85,1L15.8,4.3L15.25,7.1L14.25,3.8L10.25,0.9L8.45,0L10.4,3.95L9.55,3.4L9.9,4.1C9.4,3.4 8.8,2.95 8.1,2.75C6.233,3.117 4.35,3.683 2.45,4.45L1.65,4.75L5.2,5.25L6.2,6.45L0.55,7.45L4.5,9.1L1.5,10L0,12.05C1.233,11.45 2.417,11.133 3.55,11.1L2.35,12.2L1.85,16.4C2.217,15.533 2.75,14.75 3.45,14.05L5.85,13.75L4.3,16.6L4.3,20.7L6.9,16.8L6.2,21.5L9.65,18.6L8.45,21.65C9.983,19.55 11.783,17.483 13.85,15.45L12.45,15.45L14.35,13.9L14.4,13.9C15.3,14.167 15.983,14.05 16.45,13.55L18,15.25L18,13.9C18.833,14.533 19.6,15.483 20.3,16.75L18.95,13.3L21.2,11.3L21.2,6.45L20.8,7.6Z" style="fill:none;fill-rule:nonzero;stroke:rgb(40,10,2);stroke-width:1px;"/>
                <path d="M20.8,7.6L21.15,6.45L21.15,11.3L18.7,13.5C20.167,11.5 20.867,9.533 20.8,7.6M17.8,13.15L16.85,12.8L19.45,7.25L18.25,4.55L20.05,6.7L19.2,10.2L17.8,13.15M10.7,11.2C11.433,12.2 12.283,12.95 13.25,13.45L9.85,18.45L6.2,21.5L6.9,16.8L4.3,20.7L4.3,16.6L5.8,13.75L3.4,14.05C2.733,14.75 2.217,15.533 1.85,16.4L2.2,13.15L6.55,12.75L9,13.3C8.3,13.967 7.767,14.75 7.4,15.65L11.4,13.05L10.7,11.2M3.5,11.1C2.4,11.133 1.233,11.45 0,12.05L0.75,11.05L3.1,10L6.35,10.7L5.25,11.25L3.5,11.1M4.45,9.1L0.55,7.45L1.5,7.3L4.55,8.05L6.3,10.1L4.9,9.65L4.45,9.1M6.2,6.45L5.15,5.25L1.65,4.75L2.4,4.45L6.1,4.45L8.4,7.7L6.2,6.45M9.85,4.1L9.55,3.4L10.4,3.95L8.45,0L10.25,0.9L11.8,5.25L10.4,3.95L13.3,10.25L11.8,9.55L11.5,8.55L9.85,4.1M15.8,2.5L16.8,3.95L17.1,5.55L17.1,6.95L16.25,5.3L15.8,2.5M10.2,7.55L11.55,10.1L10.45,9.6C10.35,8.9 10,8.083 9.4,7.15L10.2,7.55M15.6,10.25L14.95,9.7L16.25,5.85C16.283,7.617 16.067,9.083 15.6,10.25M9.75,13.5L9,13.3L6.55,12.75L4.95,12.6L8.3,12L10.75,13.15L9.75,13.5M6.2,13.75L5.8,13.75L6.2,13.75M9.9,14.55C8.9,14.95 8,15.533 7.2,16.3L7.4,15.65L7.2,16.3C8,15.533 8.9,14.95 9.9,14.55" style="fill:rgb(193,217,223);"/>
                <path d="M18.7,13.5L17.8,13.15L19.2,10.2C19.833,9.567 20.367,8.7 20.8,7.6C20.867,9.533 20.167,11.5 18.7,13.5M16.85,12.8L17.1,11.55L15.15,11.15L11.65,11.05L10.4,10.75L10.7,11.2L11.4,13.05L7.4,15.65C7.767,14.75 8.3,13.967 9,13.3L9.75,13.5L10.75,13.15L8.3,12L4.95,12.6L6.55,12.75L2.2,13.15L2.35,12.2L3.5,11.1L5.25,11.25L6.35,10.7L3.1,10L0.75,11.05L1.5,10L4.45,9.1L4.9,9.65L6.3,10.1L4.55,8.05L1.5,7.3L6.2,6.45L8.4,7.7L6.1,4.45L2.4,4.45C4.3,3.683 6.2,3.117 8.1,2.75C8.8,2.95 9.383,3.4 9.85,4.1L11.5,8.55L11.8,9.55L13.3,10.25L10.4,3.95L11.8,5.25L10.25,0.9L14.25,3.8L15.25,7.1L15.8,4.35L14.85,1L15.8,2.5L16.25,5.3L17.1,6.95L17.1,5.55L16.8,3.95L16.5,2.4L18.25,4.55L19.45,7.25L16.85,12.8M16.25,5.3L16.25,5.85L16.25,5.3M13.95,9.45C13.783,8.417 13.333,7.317 12.6,6.15L11.8,5.25L12.6,6.15C13.333,7.317 13.783,8.417 13.95,9.45M10.45,9.6L11.55,10.1L10.2,7.55L9.4,7.15C10,8.083 10.35,8.9 10.45,9.6M11.5,8.55L10.2,7.55L11.5,8.55M15.25,7.1L15,8.3L15.25,7.1M17.45,10.55C17.817,9.817 18,9.2 18,8.7L17.1,6.95L18,8.7C18,9.2 17.817,9.817 17.45,10.55M16.25,5.85L14.95,9.7L15.6,10.25C16.067,9.083 16.283,7.617 16.25,5.85M5.3,10.15L4.9,9.65L5.3,10.15M7.2,7.6L6.2,6.45L7.2,7.6M10.2,11.7L7.65,11.2C6.683,11.533 5.783,12 4.95,12.6C5.783,12 6.683,11.533 7.65,11.2L10.2,11.7" style="fill:rgb(240,254,254);"/>
                <path d="M20.8,7.6L21.15,6.45L21.15,11.3L18.7,13.5L17.8,13.15L16.85,12.8M13.25,13.45L9.85,18.45L6.2,21.5L6.9,16.8L4.3,20.7L4.3,16.6L5.8,13.75L3.4,14.05C2.733,14.75 2.217,15.533 1.85,16.4L2.2,13.15L2.35,12.2L3.5,11.1C2.4,11.133 1.233,11.45 0,12.05L0.75,11.05L1.5,10L4.45,9.1L0.55,7.45L1.5,7.3L6.2,6.45L5.15,5.25L1.65,4.75L2.4,4.45C4.3,3.683 6.2,3.117 8.1,2.75C8.8,2.95 9.383,3.4 9.85,4.1L9.55,3.4L10.4,3.95L8.45,0L10.25,0.9L14.25,3.8L15.25,7.1L15.8,4.35L14.85,1L15.8,2.5L16.8,3.95L16.5,2.4L18.25,4.55L20.05,6.7L19.2,10.2C19.833,9.567 20.367,8.7 20.8,7.6M16.25,5.85L16.25,5.3L17.1,6.95L17.1,5.55L16.8,3.95M10.4,3.95L11.8,5.25L12.6,6.15C13.333,7.317 13.783,8.417 13.95,9.45M10.45,9.6C10.35,8.9 10,8.083 9.4,7.15L10.2,7.55L11.5,8.55L9.85,4.1M11.5,8.55L11.8,9.55M17.1,6.95L18,8.7C18,9.2 17.817,9.817 17.45,10.55M15,8.3L15.25,7.1M15.6,10.25C16.067,9.083 16.283,7.617 16.25,5.85M5.25,11.25L3.5,11.1M4.45,9.1L4.9,9.65L5.3,10.15M6.2,6.45L7.2,7.6M9.75,13.5L9,13.3C8.3,13.967 7.767,14.75 7.4,15.65L7.2,16.3C8,15.533 8.9,14.95 9.9,14.55M6.55,12.75L9,13.3M5.8,13.75L6.2,13.75M4.95,12.6L6.55,12.75M4.95,12.6C5.783,12 6.683,11.533 7.65,11.2L10.2,11.7" style="fill:none;fill-rule:nonzero;stroke:black;stroke-opacity:0.3;stroke-width:0.05px;"/>
                <path d="M14.1,13.55L13.6,13.35C12.533,13.983 11.55,14.717 10.65,15.55L10.9,15.55L11.2,15.65L11.35,15.9L11.3,16.2C10.767,17.167 10.283,18.167 9.85,19.2L12.8,15.9L12.45,15.9L12.15,15.75L12.05,15.45L12.15,15.15L14.1,13.55M17.55,13.9L17.65,13.6L17.7,13.6L16.6,12.55L16.4,13L17.55,14L17.55,13.9M18.5,13.35L18.35,13.65L18.85,14.1L18.5,13.35M20.7,16.65L20.65,16.95L20.45,17.15L20.15,17.15L19.9,16.95L18.4,14.85L18.4,15.3L18.3,15.55L18.1,15.7L17.8,15.65L17.6,15.5C17.133,14.7 16.467,14.05 15.6,13.55L15.55,13.5L15.35,13.75C14.65,14.183 14.05,14.617 13.55,15.05L13.85,15.05L14.15,15.15L14.25,15.45L14.15,15.75C12.083,17.783 10.3,19.833 8.8,21.9L8.55,22.1L8.25,22.05L8.05,21.85L8.05,21.55C8.617,19.783 9.333,18.067 10.2,16.4L9.6,16.4L9.3,16.3L9.2,16L9.3,15.7C10.533,14.4 11.867,13.35 13.3,12.55L13.65,12.5L15.25,13L15.4,13.05L15.45,13L16.1,11.65L16.3,11.45L16.55,11.45L16.75,11.55L17.65,12.35L17.65,11.75L17.7,11.5L17.95,11.35L18.2,11.35L18.4,11.55C19.433,13.183 20.2,14.883 20.7,16.65" style="fill:rgb(219,191,112);fill-opacity:0.24;"/>
                <path d="M17.95,13.9L17.95,15.3C17.45,14.433 16.75,13.717 15.85,13.15L16.45,11.85L18.05,13.35L18.05,11.75C19.05,13.35 19.8,15.017 20.3,16.75C19.6,15.483 18.817,14.533 17.95,13.9M13.85,15.45C11.783,17.517 9.983,19.6 8.45,21.7C9.083,19.733 9.9,17.833 10.9,16L9.6,16C10.8,14.733 12.1,13.7 13.5,12.9L15.15,13.4C13.983,14.067 13.083,14.75 12.45,15.45L13.85,15.45" style="fill:rgb(240,254,254);"/>
                <path d="M17.95,13.9C18.817,14.533 19.6,15.483 20.3,16.75C19.8,15.017 19.05,13.35 18.05,11.75L18.05,13.35L16.45,11.85L15.85,13.15C16.75,13.717 17.45,14.433 17.95,15.3L17.95,13.9M13.85,15.45C11.783,17.517 9.983,19.6 8.45,21.7C9.083,19.733 9.9,17.833 10.9,16L9.6,16C10.8,14.733 12.1,13.7 13.5,12.9L15.15,13.4C13.983,14.067 13.083,14.75 12.45,15.45L13.85,15.45Z" style="fill:none;fill-rule:nonzero;stroke:rgb(219,191,112);stroke-width:0.05px;"/>
                <path d="M11.65,11.05C13.717,13.883 15.533,14.05 17.1,11.55L16.85,12.8C16.45,13.9 15.633,14.267 14.4,13.9L13.25,13.45C12.283,12.95 11.433,12.2 10.7,11.2L10.4,10.75L11.65,11.05" style="fill:rgb(193,217,223);"/>
                <path d="M15.15,11.15L17.1,11.55C15.533,14.05 13.717,13.883 11.65,11.05L15.15,11.15" style="fill:rgb(240,254,254);"/>
                <path d="M15.15,11.15L11.65,11.05L10.4,10.75L10.7,11.2C11.433,12.2 12.283,12.95 13.25,13.45L14.4,13.9C15.633,14.267 16.45,13.9 16.85,12.8L17.1,11.55" style="fill:none;fill-rule:nonzero;stroke:black;stroke-opacity:0.3;stroke-width:0.05px;"/>
            </g>
        </g>
    </g>
</svg>
