<?xml version="1.0" encoding="UTF-8" standalone="no"?>
<!DOCTYPE svg PUBLIC "-//W3C//DTD SVG 1.1//EN" "http://www.w3.org/Graphics/SVG/1.1/DTD/svg11.dtd">
<svg width="100%" height="100%" viewBox="0 0 17 29" version="1.1" xmlns="http://www.w3.org/2000/svg" xmlns:xlink="http://www.w3.org/1999/xlink" xml:space="preserve" xmlns:serif="http://www.serif.com/" style="fill-rule:evenodd;clip-rule:evenodd;stroke-linecap:round;stroke-linejoin:round;">
    <g transform="matrix(1,0,0,1,-1.2998,-0.718275)">
        <g transform="matrix(-0.6,0,0,0.6,7.8998,26.2504)">
            <g id="sprite0">
                <g id="sprite1" transform="matrix(-1,0,0,1,-3.75,-4.5)">
                    <g id="shape0">
                        <path d="M7,-2.95L6.3,-1.95L7,-2.95M10.25,-2.45L9.35,-1.05L6.3,-1.95L2.5,2.25L-1.4,3L-2.5,0L-1.4,-3.4L1.75,-4.25L3.7,-2.25L6.85,-4.65L10.25,-2.45" style="fill:#8d4803;"/>
                        <path d="M10.25,-2.45L6.85,-4.65L3.7,-2.25L1.75,-4.25C3.383,-4.85 4.6,-5.567 5.4,-6.4C7.833,-5.333 9.483,-4.25 10.35,-3.15L10.5,-2.9L10.25,-2.45" style="fill:#e6b100;"/>
                        <path d="M6.3,-1.95L7,-2.95M6.3,-1.95L9.35,-1.05L10.25,-2.45L10.5,-2.9M1.75,-4.25L-1.4,-3.4L-2.5,0L-1.4,3L2.5,2.25L6.3,-1.95" style="fill:none;fill-rule:nonzero;stroke:#000;stroke-opacity:0.45;stroke-width:0.5px;"/>
                        <path d="M10.5,-2.9L10.35,-3.15C9.483,-4.25 7.833,-5.333 5.4,-6.4C4.6,-5.567 3.383,-4.85 1.75,-4.25" style="fill:none;fill-rule:nonzero;stroke:#000;stroke-opacity:0.24;stroke-width:0.5px;"/>
                    </g>
                </g>
                <g id="sprite2" transform="matrix(-1,0,0,1,-5.6,-9.45)">
                    <g id="shape1">
                        <path d="M3.05,1.7C3.05,1.133 2.8,0.483 2.3,-0.25C1.867,-0.917 1.567,-1.25 1.4,-1.25L0.15,-0.3L0.05,-0.25L-0.85,0.6L-1.85,1.2L-2.9,1.55L-0.45,-0.5C0.15,-1.2 0.583,-1.9 0.85,-2.6C2.383,-1.4 3.317,0 3.65,1.6L3.8,2L3.2,1.75L3.05,1.7" style="fill:#4f4c4a;"/>
                        <path d="M0.15,-0.3L1.4,-1.25C1.567,-1.25 1.867,-0.917 2.3,-0.25C2.8,0.483 3.05,1.133 3.05,1.7L2.8,1.6L2.25,1.4C2.15,1 1.933,0.667 1.6,0.4C1.267,0.133 0.783,-0.1 0.15,-0.3" style="fill:#1e1d12;"/>
                        <path d="M-1.85,1.2L-0.85,0.6L0.05,-0.25L0.15,-0.3C0.783,-0.1 1.267,0.133 1.6,0.4C1.933,0.667 2.15,1 2.25,1.4L-1.85,1.2" style="fill:#787668;"/>
                        <path d="M0.15,-0.3L1.4,-1.25C1.567,-1.25 1.867,-0.917 2.3,-0.25C2.8,0.483 3.05,1.133 3.05,1.7L3.2,1.75L3.8,2L3.65,1.6C3.317,0 2.383,-1.4 0.85,-2.6C0.583,-1.9 0.15,-1.2 -0.45,-0.5L-2.9,1.55L-1.85,1.2L-0.85,0.6L0.05,-0.25L0.15,-0.3M2.25,1.4L2.8,1.6L3.05,1.7M2.25,1.4L-1.85,1.2" style="fill:none;fill-rule:nonzero;stroke:#000;stroke-opacity:0.3;stroke-width:0.25px;stroke-linecap:butt;stroke-linejoin:miter;stroke-miterlimit:3;"/>
                    </g>
                </g>
                <g id="sprite3" transform="matrix(-1,0,0,1,3.85,-3)">
                    <g id="shape2">
                        <path d="M2.75,1.35L-0.35,2.8L-1.6,3L-3.1,2.45L-2.65,1.6L-3.7,1.2L-3.45,0.8L-4.05,0.2L-0.25,-3L4.05,-0.55L2.75,1.35M-2.9,-0.15L-3.45,0.8L-2.9,-0.15M-2.25,0.4L-2.65,1.6L-2.25,0.4" style="fill:#bb6906;"/>
                        <path d="M2.75,1.35L-0.35,2.8L-1.6,3L-3.1,2.45L-2.65,1.6L-3.7,1.2L-3.45,0.8L-4.05,0.2L-0.25,-3L4.05,-0.55L2.75,1.35M-2.65,1.6L-2.25,0.4M-3.45,0.8L-2.9,-0.15" style="fill:none;fill-rule:nonzero;stroke:#000;stroke-opacity:0.45;stroke-width:0.5px;"/>
                    </g>
                </g>
                <g id="sprite4" transform="matrix(-1,0,0,1,4.15,-5)">
                    <g id="shape3">
                        <path d="M2.75,-0.8L3.15,0.5L3.05,1.05C2.85,1.55 2.383,1.967 1.65,2.3L1.55,2.35L1.5,2.35L-0.75,2.6C-1.45,2.433 -2.083,2.067 -2.65,1.5C-3.217,0.933 -3.35,0.233 -3.05,-0.6L-2.3,-1.75L-1.15,-2.45L1.3,-2.35L2.75,-0.8" style="fill:#bb6906;"/>
                        <path d="M2.75,-0.8L3.15,0.5L3.05,1.05C2.85,1.55 2.383,1.967 1.65,2.3L1.55,2.35L1.5,2.35L-0.75,2.6C-1.45,2.433 -2.083,2.067 -2.65,1.5C-3.217,0.933 -3.35,0.233 -3.05,-0.6L-2.3,-1.75L-1.15,-2.45L1.3,-2.35L2.75,-0.8Z" style="fill:none;fill-rule:nonzero;stroke:#000;stroke-opacity:0.45;stroke-width:0.5px;"/>
                    </g>
                </g>
                <g id="shape4">
                    <path d="M4.1,-1.75L4.1,-1.8L4.25,-2.1L4.35,-2.1L4.15,-1.8L4.1,-1.75" style="fill:#cfd1b8;"/>
                    <path d="M4.35,-2.1L4.15,-1.8L4.1,-1.75" style="fill:none;fill-rule:nonzero;stroke:#000;stroke-opacity:0.45;stroke-width:0.5px;"/>
                </g>
                <g id="sprite5" transform="matrix(-1,0,0,1,0.1,-4.5)">
                    <g id="shape5">
                        <path d="M-4.3,-0.3L-4.25,-0.4L-4.2,-0.45L-3.85,-1.25C-3.35,-1.75 -2.883,-2.017 -2.45,-2.05C-1.55,-2.183 -0.8,-1.333 -0.2,0.5C-0.1,0.833 -0.05,1.25 -0.05,1.75L-2,1.3C-3.067,0.9 -3.833,0.367 -4.3,-0.3" style="fill:#cfd1b8;"/>
                        <path d="M-0.15,2.85L-0.15,3.1C-0.283,3.667 -0.233,4.1 0,4.4L0.9,4.75L0,4.8C-1.333,4.8 -2.467,4.333 -3.4,3.4L-3.9,2.9L-4,2.75L-4,2.7L-4.15,2.4C-4.517,1.667 -4.633,1.017 -4.5,0.45L-4.3,-0.3C-3.833,0.367 -3.067,0.9 -2,1.3L-0.05,1.75L-0.1,2.65L-0.15,2.85" style="fill:#bbbc98;"/>
                        <path d="M-2.3,-4.25L-1.3,-4.65L0,-4.8L2.1,-4.35L3.4,-3.4L3.85,-2.85C4.483,-2.05 4.8,-1.1 4.8,0C4.8,1.333 4.333,2.467 3.4,3.4C2.7,4.1 1.9,4.55 1,4.75L0.9,4.75L0,4.4C-0.233,4.1 -0.283,3.667 -0.15,3.1L-0.15,2.85C0.45,2.617 1,2.267 1.5,1.8L2.15,1C2.083,-0.633 1.533,-1.917 0.5,-2.85C0,-3.283 -0.6,-3.633 -1.3,-3.9L-2.3,-4.25" style="fill:#bb6906;"/>
                        <path d="M-2.3,-4.25L-1.3,-3.9C-0.6,-3.633 0,-3.283 0.5,-2.85C1.533,-1.917 2.083,-0.633 2.15,1L1.5,1.8C1,2.267 0.45,2.617 -0.15,2.85L-0.1,2.65L-0.05,1.75C-0.05,1.25 -0.1,0.833 -0.2,0.5C-0.8,-1.333 -1.55,-2.183 -2.45,-2.05C-2.883,-2.017 -3.35,-1.75 -3.85,-1.25L-4.2,-0.45L-4.25,-0.4L-4.3,-0.3L-4.5,0.45C-4.633,1.017 -4.517,1.667 -4.15,2.4L-4.2,2.4C-4.633,1.667 -4.833,0.867 -4.8,0L-4.75,-0.7C-4.617,-1.733 -4.167,-2.633 -3.4,-3.4L-3.4,-3.45L-2.3,-4.25" style="fill:#e6b100;"/>
                        <path d="M0.9,4.75L1,4.75C1.9,4.55 2.7,4.1 3.4,3.4C4.333,2.467 4.8,1.333 4.8,0C4.8,-1.1 4.483,-2.05 3.85,-2.85L3.4,-3.4L2.1,-4.35L0,-4.8L-1.3,-4.65L-2.3,-4.25L-3.4,-3.45L-3.4,-3.4C-4.167,-2.633 -4.617,-1.733 -4.75,-0.7L-4.8,0C-4.833,0.867 -4.633,1.667 -4.2,2.4M-0.15,2.85L-0.15,3.1C-0.283,3.667 -0.233,4.1 0,4.4L0.9,4.75L0,4.8C-1.333,4.8 -2.467,4.333 -3.4,3.4L-3.9,2.9L-4,2.75L-4,2.7L-4.15,2.4C-4.517,1.667 -4.633,1.017 -4.5,0.45L-4.3,-0.3L-4.25,-0.4L-4.2,-0.45L-3.85,-1.25C-3.35,-1.75 -2.883,-2.017 -2.45,-2.05C-1.55,-2.183 -0.8,-1.333 -0.2,0.5C-0.1,0.833 -0.05,1.25 -0.05,1.75L-0.1,2.65L-0.15,2.85" style="fill:none;fill-rule:nonzero;stroke:#000;stroke-opacity:0.45;stroke-width:0.5px;"/>
                        <path d="M-0.05,1.75L-2,1.3C-3.067,0.9 -3.833,0.367 -4.3,-0.3" style="fill:none;fill-rule:nonzero;stroke:#000;stroke-opacity:0.22;stroke-width:0.5px;"/>
                    </g>
                </g>
                <g id="sprite6" transform="matrix(-1,0,0,1,0.4,-10.35)">
                    <g id="shape6">
                        <path d="M-3.2,2.5L0.7,-2.7C1.633,-3.633 2.217,-3.633 2.45,-2.7C1.983,-0.733 1.983,0.617 2.45,1.35L3.2,2.35L1.75,3L0.3,3.35C-0.933,3.45 -2.1,3.167 -3.2,2.5" style="fill:#8d4803;"/>
                        <path d="M3.2,2.35L2.45,1.35C1.983,0.617 1.983,-0.733 2.45,-2.7C2.217,-3.633 1.633,-3.633 0.7,-2.7L-3.2,2.5" style="fill:none;fill-rule:nonzero;stroke:#000;stroke-opacity:0.45;stroke-width:0.5px;"/>
                    </g>
                </g>
                <g id="sprite7" transform="matrix(-0.3199,0.3199,0.3199,0.3199,-1.15005,-5.69999)">
                    <g id="shape7">
                        <path d="M2.35,-0.95L0.65,4.85L2,6.2L-0.35,8.4L-1.9,6.8L-1.1,6.05L-2.45,-0.95L2.35,-0.95" style="fill:#e6b100;"/>
                        <path d="M2.35,-0.95L0.65,4.85L2,6.2L-0.35,8.4" style="fill:none;fill-rule:nonzero;stroke:#000;stroke-opacity:0.45;stroke-width:0.5px;"/>
                        <path d="M-0.35,8.4L-1.9,6.8L-1.1,6.05L-2.45,-0.95" style="fill:none;fill-rule:nonzero;stroke:#000;stroke-opacity:0.24;stroke-width:0.5px;"/>
                    </g>
                </g>
                <g id="sprite71" serif:id="sprite7" transform="matrix(-0.3734,-0.3545,-0.0747,0.2789,3.49998,-7.10017)">
                    <g id="shape71" serif:id="shape7">
                        <path d="M2.35,-0.95L0.65,4.85L2,6.2L-0.35,8.4L-1.9,6.8L-1.1,6.05L-2.45,-0.95L2.35,-0.95" style="fill:#e6b100;"/>
                        <path d="M2.35,-0.95L0.65,4.85L2,6.2L-0.35,8.4" style="fill:none;fill-rule:nonzero;stroke:#000;stroke-opacity:0.45;stroke-width:0.5px;"/>
                        <path d="M-0.35,8.4L-1.9,6.8L-1.1,6.05L-2.45,-0.95" style="fill:none;fill-rule:nonzero;stroke:#000;stroke-opacity:0.24;stroke-width:0.5px;"/>
                    </g>
                </g>
                <g id="sprite8" transform="matrix(-1,0,0,1,-5,1.35)">
                    <g id="shape8">
                        <path d="M3.3,0.35L3.4,2L2.1,2.65L0.95,2.25L0.25,2.45L-0.7,1.7L-1.25,2.25L-3.1,1.75L-3.35,0L-3.25,-0.1L3.3,0.35M0.65,0.35L0.95,2.25L0.65,0.35M-1.3,0.35L-0.7,1.7L-1.3,0.35" style="fill:#e6b100;"/>
                        <path d="M-3.25,-0.1L-1.6,-2.65L2.25,-1.75L3.3,0.1L3.3,0.35L-3.25,-0.1" style="fill:#bb6906;"/>
                        <path d="M-3.25,-0.1L-1.6,-2.65L2.25,-1.75L3.3,0.1L3.3,0.35L3.4,2L2.1,2.65L0.95,2.25L0.25,2.45L-0.7,1.7L-1.25,2.25L-3.1,1.75L-3.35,0L-3.25,-0.1" style="fill:none;fill-rule:nonzero;stroke:#000;stroke-opacity:0.45;stroke-width:0.5px;"/>
                        <path d="M-0.7,1.7L-1.3,0.35M0.95,2.25L0.65,0.35" style="fill:none;fill-rule:nonzero;stroke:#000;stroke-opacity:0.24;stroke-width:0.5px;"/>
                    </g>
                </g>
                <g id="sprite9" transform="matrix(-1,0,0,1,-4.65,-1.6)">
                    <g id="shape9">
                        <path d="M-3.4,-0.25C-3.467,-0.717 -3.233,-1.183 -2.7,-1.65L-1.5,-2.4L0.1,-2.65C1.2,-2.65 2.017,-2.35 2.55,-1.75L3.3,-0.5C2.1,0.467 1.1,1.017 0.3,1.15C-1.367,1.083 -2.6,0.617 -3.4,-0.25" style="fill:#e6b100;"/>
                        <path d="M-3.4,-0.25C-2.6,0.617 -1.367,1.083 0.3,1.15C1.1,1.017 2.1,0.467 3.3,-0.5L3.4,0.05C3.4,0.65 3.117,1.233 2.55,1.8L2.45,1.9C1.85,2.4 1.2,2.65 0.5,2.65L-0.2,2.6L-1.65,1.95C-2.25,1.55 -2.75,1.017 -3.15,0.35L-3.4,-0.25" style="fill:#bb6906;"/>
                        <path d="M3.3,-0.5L3.4,0.05C3.4,0.65 3.117,1.233 2.55,1.8L2.45,1.9C1.85,2.4 1.2,2.65 0.5,2.65L-0.2,2.6L-1.65,1.95C-2.25,1.55 -2.75,1.017 -3.15,0.35L-3.4,-0.25" style="fill:none;fill-rule:nonzero;stroke:#000;stroke-opacity:0.45;stroke-width:0.5px;"/>
                        <path d="M3.3,-0.5L2.55,-1.75C2.017,-2.35 1.2,-2.65 0.1,-2.65L-1.5,-2.4L-2.7,-1.65C-3.233,-1.183 -3.467,-0.717 -3.4,-0.25" style="fill:none;fill-rule:nonzero;stroke:#000;stroke-opacity:0.24;stroke-width:0.5px;"/>
                    </g>
                </g>
                <g id="sprite10" transform="matrix(-1,0,0,1,-3.25,-18.4)">
                    <g id="shape10">
                        <path d="M-9.7,-4.85L-12.25,-1.35C-13.717,-3.15 -14.25,-4.75 -13.85,-6.15C-12.15,-6.117 -10.767,-5.683 -9.7,-4.85" style="fill:#e6b100;"/>
                        <path d="M-9.7,-4.85C-10.767,-5.683 -12.15,-6.117 -13.85,-6.15C-14.25,-4.75 -13.717,-3.15 -12.25,-1.35" style="fill:none;fill-rule:nonzero;stroke:#000;stroke-opacity:0.45;stroke-width:0.5px;"/>
                        <path d="M-5.1,6.7L-4.85,8.2C-6.683,8.7 -8.35,9.967 -9.85,12L-9.2,8.9L-12.85,11.4L-12.5,9.85L-13.4,10.8L-13.45,10.8C-12.917,9.4 -12.1,8.033 -11,6.7C-11.1,5.967 -11.5,5.717 -12.2,5.95L-11.15,4.35L-12.2,5.95L-13.15,7.7L-12.7,4.5L-9.6,4.2L-9.45,7.5L-5.1,6.7M-11.6,8.95L-12.5,9.85L-11.6,8.95" style="fill:#aeaf85;"/>
                        <path d="M-9.85,12C-10.75,13.2 -11.6,14.65 -12.4,16.35C-12.867,14.383 -13.017,12.733 -12.85,11.4L-9.2,8.9L-9.85,12M-13.45,10.8L-14,10.35L-13.15,7.7L-12.2,5.95C-11.5,5.717 -11.1,5.967 -11,6.7C-12.1,8.033 -12.917,9.4 -13.45,10.8" style="fill:#eaece1;"/>
                        <path d="M-9.6,4.2L-5.6,3.75L-5.1,6.7L-9.45,7.5L-9.6,4.2" style="fill:#bb6906;"/>
                        <path d="M-4.85,8.2C-6.683,8.7 -8.35,9.967 -9.85,12C-10.75,13.2 -11.6,14.65 -12.4,16.35C-12.867,14.383 -13.017,12.733 -12.85,11.4L-12.5,9.85L-13.4,10.8L-13.45,10.8L-14,10.35L-13.15,7.7L-12.7,4.5M-9.6,4.2L-9.45,7.5L-5.1,6.7M-11.15,4.35L-12.2,5.95L-13.15,7.7M-12.5,9.85L-11.6,8.95" style="fill:none;fill-rule:nonzero;stroke:#000;stroke-opacity:0.45;stroke-width:0.5px;"/>
                    </g>
                    <g id="sprite11" transform="matrix(0.5092,-0.0809,0.0809,0.5092,2.05039,-11.6501)">
                        <g id="shape11">
                            <path d="M-0.35,1.5L-0.3,1.45L-0.3,1.5L-0.35,1.5" style="fill:#aeaf85;"/>
                            <path d="M-0.3,3.65L-0.6,3.9L-0.3,3.6L-0.3,3.65M-2.45,1.4L-2.5,1.35L-2.45,1.35L-2.45,1.4" style="fill:#f9af06;"/>
                            <path d="M-1.8,4.95L-5.45,8.15L-7.35,4.05L-5.05,1.95L-1.8,4.95" style="fill:#34225d;"/>
                            <path d="M-2.45,-0.45L-2.45,1.35L-0.35,1.5L-0.3,1.5L0.75,1.75L1.35,2.15L-0.2,3.5L-0.7,4L-1.8,4.95L-5.05,1.95L-2.45,-0.45M-2.45,1.35L-2.5,1.35L-2.45,1.4L-2.45,1.35" style="fill:#573d8d;"/>
                            <path d="M-2.45,-0.45L-2.25,-6.55L-0.45,-8.15L1.95,-7.35L1.55,-3.7L1.15,-0.15L-0.3,1.45L1.15,-0.15L1.55,-3.7L3.95,-5.65L7.35,-3.15L1.35,2.15L0.75,1.75L-0.3,1.5L-0.3,1.45L-0.35,1.5L-2.45,1.35L-2.45,-0.45" style="fill:#8d73ca;"/>
                            <path d="M-2.45,1.35L-2.45,1.4M-0.3,3.6L-0.2,3.5M-0.3,3.65L-0.3,3.6L-0.6,3.9" style="fill:none;fill-rule:nonzero;stroke:#000;stroke-opacity:0.45;stroke-width:0.5px;stroke-linecap:butt;stroke-linejoin:miter;stroke-miterlimit:3;"/>
                            <path d="M1.55,-3.7L1.95,-7.35L-0.45,-8.15L-2.25,-6.55L-2.45,-0.45L-2.45,1.35M1.55,-3.7L3.95,-5.65L7.35,-3.15L1.35,2.15L-0.2,3.5L-0.3,3.65L-0.6,3.9L-0.7,4L-1.8,4.95L-5.45,8.15L-7.35,4.05L-5.05,1.95L-2.45,-0.45" style="fill:none;fill-rule:nonzero;stroke:#000;stroke-opacity:0.45;stroke-width:0.5px;stroke-linejoin:miter;stroke-miterlimit:3;"/>
                            <path d="M-0.35,1.5L-0.3,1.45L1.15,-0.15L1.55,-3.7" style="fill:none;fill-rule:nonzero;stroke:#000;stroke-opacity:0.45;stroke-width:0.5px;stroke-linecap:butt;stroke-linejoin:miter;stroke-miterlimit:3;"/>
                        </g>
                    </g>
                    <g id="sprite111" serif:id="sprite11" transform="matrix(0.5036,0.1098,-0.1098,0.5036,9.45003,-7.60081)">
                        <g id="shape111" serif:id="shape11">
                            <path d="M-0.35,1.5L-0.3,1.45L-0.3,1.5L-0.35,1.5" style="fill:#aeaf85;"/>
                            <path d="M-0.3,3.65L-0.6,3.9L-0.3,3.6L-0.3,3.65M-2.45,1.4L-2.5,1.35L-2.45,1.35L-2.45,1.4" style="fill:#f9af06;"/>
                            <path d="M-1.8,4.95L-5.45,8.15L-7.35,4.05L-5.05,1.95L-1.8,4.95" style="fill:#34225d;"/>
                            <path d="M-2.45,-0.45L-2.45,1.35L-0.35,1.5L-0.3,1.5L0.75,1.75L1.35,2.15L-0.2,3.5L-0.7,4L-1.8,4.95L-5.05,1.95L-2.45,-0.45M-2.45,1.35L-2.5,1.35L-2.45,1.4L-2.45,1.35" style="fill:#573d8d;"/>
                            <path d="M-2.45,-0.45L-2.25,-6.55L-0.45,-8.15L1.95,-7.35L1.55,-3.7L1.15,-0.15L-0.3,1.45L1.15,-0.15L1.55,-3.7L3.95,-5.65L7.35,-3.15L1.35,2.15L0.75,1.75L-0.3,1.5L-0.3,1.45L-0.35,1.5L-2.45,1.35L-2.45,-0.45" style="fill:#8d73ca;"/>
                            <path d="M-2.45,1.35L-2.45,1.4M-0.3,3.6L-0.2,3.5M-0.3,3.65L-0.3,3.6L-0.6,3.9" style="fill:none;fill-rule:nonzero;stroke:#000;stroke-opacity:0.45;stroke-width:0.5px;stroke-linecap:butt;stroke-linejoin:miter;stroke-miterlimit:3;"/>
                            <path d="M1.55,-3.7L1.95,-7.35L-0.45,-8.15L-2.25,-6.55L-2.45,-0.45L-2.45,1.35M1.55,-3.7L3.95,-5.65L7.35,-3.15L1.35,2.15L-0.2,3.5L-0.3,3.65L-0.6,3.9L-0.7,4L-1.8,4.95L-5.45,8.15L-7.35,4.05L-5.05,1.95L-2.45,-0.45" style="fill:none;fill-rule:nonzero;stroke:#000;stroke-opacity:0.45;stroke-width:0.5px;stroke-linejoin:miter;stroke-miterlimit:3;"/>
                            <path d="M-0.35,1.5L-0.3,1.45L1.15,-0.15L1.55,-3.7" style="fill:none;fill-rule:nonzero;stroke:#000;stroke-opacity:0.45;stroke-width:0.5px;stroke-linecap:butt;stroke-linejoin:miter;stroke-miterlimit:3;"/>
                        </g>
                    </g>
                    <g id="shape12">
                        <path d="M-3.85,7.05L-3.55,6.35C-2.583,4.017 -1.267,2.367 0.4,1.4L2.15,4.25C2.817,-0.183 3.917,-2.583 5.45,-2.95C5.883,-2.95 6.083,-2.233 6.05,-0.8L5.85,1L5.75,1.1C5.717,2.833 4.967,4.4 3.5,5.8L0.45,6.2C-0.783,6.267 -2.217,6.717 -3.85,7.55L-3.85,7.05" style="fill:#bb6906;"/>
                        <path d="M-1.35,-0.7L0.8,-1.55L6.45,-5C6.883,-4.167 7.1,-3.017 7.1,-1.55C7.1,0.15 6.8,1.817 6.2,3.45C5.5,4.55 4.6,5.333 3.5,5.8C4.967,4.4 5.717,2.833 5.75,1.1L5.85,1L6.05,-0.8C6.083,-2.233 5.883,-2.95 5.45,-2.95C3.917,-2.583 2.817,-0.183 2.15,4.25L0.4,1.4C-1.267,2.367 -2.583,4.017 -3.55,6.35L-3.85,7.05L-4.05,7.7L-4.65,9.2L-4.7,9.25C-5.167,8.817 -5.617,8.417 -6.05,8.05L-6.05,5.8C-8.383,4.3 -10.717,3.233 -13.05,2.6L-13.5,-2.25L-12.35,-3.85L-11.45,-2.35L-6.25,-0.55L-5.75,-0.55L-4.65,-0.9L-3.2,-1.2C-2.133,-0.967 -1.6,-1.033 -1.6,-1.4L-1.35,-0.7C-1.183,-0.233 -1.1,0.267 -1.1,0.8C-1.1,0.267 -1.183,-0.233 -1.35,-0.7M-3.4,-0.55L-3.45,-0.45L-3.4,-0.55M-3.6,-0.2L-3.45,-0.45L-4.35,1.05L-3.15,1.85L-2.4,0.9L-3.6,-0.2M-4.65,1.5L-4.35,1.05L-4.65,1.5" style="fill:#e6b100;"/>
                        <path d="M6.45,-5L0.8,-1.55L-1.35,-0.7L-1.6,-1.4C-1.6,-1.033 -2.133,-0.967 -3.2,-1.2L-4.65,-0.9L-5.75,-0.55L-6.25,-0.55L-11.45,-2.35L-12.35,-3.85L-11.95,-4.4C-9.283,-5.667 -6.85,-7.017 -4.65,-8.45L-4.55,-8.5L-2.45,-9.9L6.2,-5.45L6.45,-5M-6.35,-1.65C-5.917,-1.95 -5.35,-2.15 -4.65,-2.25L-2.25,-2.4L-2.1,-2.15L-1.6,-1.4L-2.1,-2.15L-2.25,-2.4L-4.65,-2.25C-5.35,-2.15 -5.917,-1.95 -6.35,-1.65M-13.05,2.6C-10.717,3.233 -8.383,4.3 -6.05,5.8L-6.05,8.05C-8.817,5.783 -11.417,4.8 -13.85,5.1L-13.05,2.85L-13.05,2.6" style="fill:#ffff2f;"/>
                        <path d="M-3.45,-0.45L-3.4,-0.55L-3.45,-0.45" style="fill:#cfd1b8;"/>
                        <path d="M-3.6,-0.2L-2.4,0.9L-3.15,1.85L-4.35,1.05L-3.6,-0.2" style="fill:#212014;"/>
                        <path d="M-3.85,7.05L-3.85,7.55L-4.05,7.7L-3.85,7.05" style="fill:#eaece1;"/>
                        <path d="M-4.7,9.25L-4.65,9.2L-4.65,9.25L-4.7,9.25" style="fill:#686742;"/>
                        <path d="M-1.35,-0.7C-1.183,-0.233 -1.1,0.267 -1.1,0.8M3.5,5.8C4.6,5.333 5.5,4.55 6.2,3.45C6.8,1.817 7.1,0.15 7.1,-1.55C7.1,-3.017 6.883,-4.167 6.45,-5L6.2,-5.45L-2.45,-9.9L-4.55,-8.5L-4.65,-8.45C-6.85,-7.017 -9.283,-5.667 -11.95,-4.4L-12.35,-3.85L-13.5,-2.25L-13.05,2.6L-13.05,2.85M-1.6,-1.4L-2.1,-2.15L-2.25,-2.4L-4.65,-2.25C-5.35,-2.15 -5.917,-1.95 -6.35,-1.65M5.85,1L6.05,-0.8C6.083,-2.233 5.883,-2.95 5.45,-2.95C3.917,-2.583 2.817,-0.183 2.15,4.25L0.4,1.4C-1.267,2.367 -2.583,4.017 -3.55,6.35L-3.85,7.05L-4.05,7.7L-3.85,7.55C-2.217,6.717 -0.783,6.267 0.45,6.2L3.5,5.8M-6.05,8.05C-5.617,8.417 -5.167,8.817 -4.7,9.25L-4.65,9.25L-4.65,9.2L-4.05,7.7M-3.45,-0.45L-3.4,-0.55M-3.45,-0.45L-3.6,-0.2L-2.4,0.9M-4.35,1.05L-4.65,1.5M-1.6,-1.4L-1.35,-0.7M-13.85,5.1C-11.417,4.8 -8.817,5.783 -6.05,8.05M-3.6,-0.2L-4.35,1.05" style="fill:none;fill-rule:nonzero;stroke:#000;stroke-opacity:0.45;stroke-width:0.5px;"/>
                    </g>
                    <g id="sprite12" transform="matrix(1,0,0,1,-5.35,-9.05)">
                        <g id="shape13">
                            <path d="M2.9,2.55L1.75,3.4L0.8,3.75L-1.15,3.65C-2.15,3.317 -2.883,2.683 -3.35,1.75C-3.883,0.817 -3.983,-0.15 -3.65,-1.15L-2.95,-2.4C-2.983,-2.067 -2.883,-1.583 -2.65,-0.95L-2.3,-0.25L-2.5,0.3C-2.667,0.833 -2.65,1.333 -2.45,1.8C-2.283,2.267 -2,2.55 -1.6,2.65C-1.233,2.75 -0.85,2.65 -0.45,2.35L-0.2,2.05L0.8,2.45L1.55,2.55L2.65,2.4L2.9,2.55" style="fill:#dddcc6;"/>
                            <path d="M-2.3,-0.25L-0.95,1.4L-0.2,2.05L-0.45,2.35C-0.85,2.65 -1.233,2.75 -1.6,2.65C-2,2.55 -2.283,2.267 -2.45,1.8C-2.65,1.333 -2.667,0.833 -2.5,0.3L-2.3,-0.25"/>
                            <path d="M2.95,2.5L2.9,2.55L2.65,2.4L2.95,2.5" style="fill:#a2b88f;"/>
                            <path d="M-2.95,-2.4L-2.9,-2.5L-2.8,-3.3L-1.95,-3.25L-1.65,-3.4L-0.4,-3.8L-0.2,-3.55C0.967,-2.217 1.617,-0.833 1.75,0.6L1.55,2.55L0.8,2.45L-0.2,2.05L-0.95,1.4L-2.3,-0.25L-2.65,-0.95C-2.883,-1.583 -2.983,-2.067 -2.95,-2.4M-0.55,-1.85L-0.4,-2.25L-0.55,-2.65L-0.95,-2.8L-1.35,-2.65L-1.55,-2.25L-1.35,-1.85C-1.25,-1.75 -1.117,-1.7 -0.95,-1.7L-0.55,-1.85" style="fill:#e6b100;"/>
                            <path d="M-0.55,-1.85L-0.95,-1.7C-1.117,-1.7 -1.25,-1.75 -1.35,-1.85L-1.55,-2.25L-1.35,-2.65L-0.95,-2.8L-0.55,-2.65L-0.4,-2.25L-0.55,-1.85" style="fill:#ffff2f;"/>
                            <path d="M-0.4,-3.8L-0.2,-3.8L1.15,-3.65C2.15,-3.35 2.9,-2.717 3.4,-1.75C3.767,-0.983 3.9,-0.2 3.8,0.6L3.65,1.15L3.5,1.55L3.5,2.6L2.95,2.5L2.65,2.4L1.55,2.55L1.75,0.6C1.617,-0.833 0.967,-2.217 -0.2,-3.55L-0.4,-3.8" style="fill:#854302;"/>
                            <path d="M-0.4,-3.8L-0.2,-3.8L1.15,-3.65C2.15,-3.35 2.9,-2.717 3.4,-1.75C3.767,-0.983 3.9,-0.2 3.8,0.6L3.65,1.15L3.5,1.55L3.5,2.6L2.95,2.5L2.9,2.55L2.65,2.4L2.95,2.5M-2.95,-2.4L-2.9,-2.5L-2.8,-3.3L-1.95,-3.25L-1.65,-3.4L-0.4,-3.8M1.55,2.55L2.65,2.4M-2.3,-0.25L-2.65,-0.95C-2.883,-1.583 -2.983,-2.067 -2.95,-2.4M-0.2,2.05L-0.95,1.4L-2.3,-0.25M-0.2,2.05L0.8,2.45L1.55,2.55" style="fill:none;fill-rule:nonzero;stroke:#000;stroke-opacity:0.45;stroke-width:0.5px;"/>
                            <path d="M2.9,2.55L1.75,3.4L0.8,3.75L-1.15,3.65C-2.15,3.317 -2.883,2.683 -3.35,1.75C-3.883,0.817 -3.983,-0.15 -3.65,-1.15L-2.95,-2.4" style="fill:none;fill-rule:nonzero;stroke:#2b0b18;stroke-opacity:0.24;stroke-width:0.5px;"/>
                            <path d="M-2.8,1.1L-2.9,0.7L-2.8,0.35L-2.6,0.15C-2.5,0.15 -2.417,0.217 -2.35,0.35L-2.25,0.7L-2.35,1.1L-2.6,1.25L-2.8,1.1" style="fill:#fff;"/>
                        </g>
                    </g>
                    <g id="shape14">
                        <path d="M-4.25,-3.25L1.65,-7.55L2.55,-5.7L-0.3,-3.25L-4.25,-3.25" style="fill:#e6b100;"/>
                        <path d="M-7.7,-4.5L-7.65,-5.05L-5.8,-7.3L-1.6,-9.55L0.9,-9.05L1.65,-7.55L-4.25,-3.25L-7.7,-4.5" style="fill:#ffff2f;"/>
                        <path d="M1.65,-7.55L0.9,-9.05L-1.6,-9.55L-5.8,-7.3L-7.65,-5.05L-7.7,-4.5M1.65,-7.55L2.55,-5.7" style="fill:none;fill-rule:nonzero;stroke:#000;stroke-opacity:0.45;stroke-width:0.5px;"/>
                        <path d="M5.55,-8.55L5.55,-8.45L5.35,-8.3L5.55,-8.55" style="fill:#a2b88f;"/>
                        <path d="M5.55,-8.55L5.35,-8.3L3.7,-7.05C3.833,-7.817 3.683,-8.483 3.25,-9.05C2.817,-9.617 2.083,-10.083 1.05,-10.45L1.8,-10.6C2.867,-10.7 3.8,-10.4 4.6,-9.7L4.9,-9.45L5.85,-9L5.55,-8.55" style="fill:#8d4803;"/>
                        <path d="M5.35,-8.3L5.55,-8.45L5.95,-7.1C6.017,-6.033 5.7,-5.1 5,-4.3C4.333,-3.533 3.467,-3.1 2.4,-3C1.333,-2.933 0.417,-3.233 -0.35,-3.9L-1.3,-5L-0.4,-5.25L0.05,-4.55C0.317,-4.25 0.667,-4.083 1.1,-4.05C1.533,-4.083 1.9,-4.25 2.2,-4.55C2.5,-4.85 2.65,-5.2 2.65,-5.6L2.45,-6.35L3.7,-7.05L5.35,-8.3" style="fill:#dddcc6;"/>
                        <path d="M-1.3,-5L-1.3,-5.1L-2,-5.5L-1.65,-6.25L-1.7,-6.4L-1.7,-6.6C-1.767,-7.5 -1.533,-8.317 -1,-9.05L-0.8,-9.3C-0.3,-9.9 0.317,-10.283 1.05,-10.45C2.083,-10.083 2.817,-9.617 3.25,-9.05C3.683,-8.483 3.833,-7.817 3.7,-7.05L2.45,-6.35C1.583,-5.95 0.633,-5.583 -0.4,-5.25L-1.3,-5M1.95,-8.3L1.8,-8.65L1.4,-8.85C1.233,-8.85 1.1,-8.783 1,-8.65L0.85,-8.3L1,-7.9C1.1,-7.8 1.233,-7.75 1.4,-7.75C1.533,-7.75 1.667,-7.8 1.8,-7.9L1.95,-8.3" style="fill:#e6b100;"/>
                        <path d="M1.95,-8.3L1.8,-7.9C1.667,-7.8 1.533,-7.75 1.4,-7.75C1.233,-7.75 1.1,-7.8 1,-7.9L0.85,-8.3L1,-8.65C1.1,-8.783 1.233,-8.85 1.4,-8.85L1.8,-8.65L1.95,-8.3" style="fill:#ffff2f;"/>
                        <path d="M2.45,-6.35L2.65,-5.6C2.65,-5.2 2.5,-4.85 2.2,-4.55C1.9,-4.25 1.533,-4.083 1.1,-4.05C0.667,-4.083 0.317,-4.25 0.05,-4.55L-0.4,-5.25C0.633,-5.583 1.583,-5.95 2.45,-6.35"/>
                        <path d="M5.55,-8.45L5.55,-8.55L5.35,-8.3L5.55,-8.45M-1.3,-5L-1.3,-5.1L-2,-5.5L-1.65,-6.25L-1.7,-6.4L-1.7,-6.6C-1.767,-7.5 -1.533,-8.317 -1,-9.05L-0.8,-9.3C-0.3,-9.9 0.317,-10.283 1.05,-10.45L1.8,-10.6C2.867,-10.7 3.8,-10.4 4.6,-9.7L4.9,-9.45L5.85,-9L5.55,-8.55M3.7,-7.05L5.35,-8.3M2.45,-6.35L3.7,-7.05M-0.4,-5.25L-1.3,-5M-0.4,-5.25C0.633,-5.583 1.583,-5.95 2.45,-6.35" style="fill:none;fill-rule:nonzero;stroke:#000;stroke-opacity:0.45;stroke-width:0.5px;"/>
                        <path d="M5.55,-8.45L5.95,-7.1C6.017,-6.033 5.7,-5.1 5,-4.3C4.333,-3.533 3.467,-3.1 2.4,-3C1.333,-2.933 0.417,-3.233 -0.35,-3.9L-1.3,-5" style="fill:none;fill-rule:nonzero;stroke:#2b0b18;stroke-opacity:0.24;stroke-width:0.5px;"/>
                        <path d="M2.05,-4.55C1.883,-4.65 1.8,-4.783 1.8,-4.95L2.05,-5.3L2.75,-5.5L3.4,-5.3L3.7,-4.95L3.4,-4.55L2.75,-4.4L2.05,-4.55" style="fill:#fff;"/>
                        <path d="M4.85,-3.8C2.583,-1.867 0.867,-1.7 -0.3,-3.3L4.85,-3.8" style="fill:#8d4803;"/>
                        <path d="M4.85,-3.8L-0.3,-3.3" style="fill:none;fill-rule:nonzero;stroke:#000;stroke-opacity:0.45;stroke-width:0.5px;"/>
                    </g>
                </g>
                <g id="sprite13" transform="matrix(-0.5305,0,0.0417,0.5305,-6.84925,-16.2489)">
                    <g id="shape15">
                        <path d="M-9.95,-26.6C-10.683,-20.833 -11.167,-15.1 -11.4,-9.4L-11.9,0" style="fill:none;fill-rule:nonzero;stroke:#511531;stroke-width:0.5px;"/>
                        <path d="M-3.25,-39.85C-4.817,-40.383 -6.167,-39.35 -7.3,-36.75C-8.533,-33.95 -9.35,-31.05 -9.75,-28.05L-9.95,-26.6" style="fill:none;fill-rule:nonzero;stroke:#52152f;stroke-opacity:0.6;stroke-width:0.5px;"/>
                        <path d="M5.9,-35C4.367,-34.833 2.817,-35.25 1.25,-36.25C0.483,-36.717 -0.217,-37.3 -0.85,-38C-1.683,-38.967 -2.483,-39.583 -3.25,-39.85" style="fill:none;fill-rule:nonzero;stroke:#52152c;stroke-opacity:0.4;stroke-width:0.5px;"/>
                        <path d="M12.1,-39.15C10.067,-36.65 8,-35.267 5.9,-35" style="fill:none;fill-rule:nonzero;stroke:#521529;stroke-opacity:0.2;stroke-width:0.5px;"/>
                    </g>
                </g>
                <g id="sprite131" serif:id="sprite13" transform="matrix(-0.5305,0,-0.0727,0.5305,3.09995,-21.1989)">
                    <g id="shape151" serif:id="shape15">
                        <path d="M-9.95,-26.6C-10.683,-20.833 -11.167,-15.1 -11.4,-9.4L-11.9,0" style="fill:none;fill-rule:nonzero;stroke:#511531;stroke-width:0.5px;"/>
                        <path d="M-3.25,-39.85C-4.817,-40.383 -6.167,-39.35 -7.3,-36.75C-8.533,-33.95 -9.35,-31.05 -9.75,-28.05L-9.95,-26.6" style="fill:none;fill-rule:nonzero;stroke:#52152f;stroke-opacity:0.6;stroke-width:0.5px;"/>
                        <path d="M5.9,-35C4.367,-34.833 2.817,-35.25 1.25,-36.25C0.483,-36.717 -0.217,-37.3 -0.85,-38C-1.683,-38.967 -2.483,-39.583 -3.25,-39.85" style="fill:none;fill-rule:nonzero;stroke:#52152c;stroke-opacity:0.4;stroke-width:0.5px;"/>
                        <path d="M12.1,-39.15C10.067,-36.65 8,-35.267 5.9,-35" style="fill:none;fill-rule:nonzero;stroke:#521529;stroke-opacity:0.2;stroke-width:0.5px;"/>
                    </g>
                </g>
            </g>
        </g>
    </g>
</svg>
