<?xml version="1.0" encoding="UTF-8" standalone="no"?>
<!DOCTYPE svg PUBLIC "-//W3C//DTD SVG 1.1//EN" "http://www.w3.org/Graphics/SVG/1.1/DTD/svg11.dtd">
<svg width="100%" height="100%" viewBox="0 0 35 22" version="1.1" xmlns="http://www.w3.org/2000/svg" xmlns:xlink="http://www.w3.org/1999/xlink" xml:space="preserve" xmlns:serif="http://www.serif.com/" style="fill-rule:evenodd;clip-rule:evenodd;stroke-linecap:round;stroke-linejoin:round;">
    <g transform="matrix(1,0,0,1,-7.3,-7.83182)">
        <g>
            <g id="shape0">
                <path d="M41.45,13.9L39.95,15.55L39.15,15.55L39.2,15.95L40.65,16.15L39.5,17.05C39.9,17.25 40.117,17.517 40.15,17.85L40,18.35L39.75,18.75L39.55,19L38.15,20.55L37.55,21L37.55,21.05C38.45,21.083 38.9,21.633 38.9,22.7C38.867,23.4 38.7,24.05 38.4,24.65L38.45,24.7L38.7,25.05L39.4,25.6L39.35,26.7L38.7,26.4L38.45,26.65L38.4,27.2L37.55,26.85L36.6,26.65L37.05,27.3L36.8,27.95L36.2,28.45L35.8,28.25L35.95,28.45C35.583,28.783 35.217,28.867 34.85,28.7L33.95,27.9L33.6,27.55L32.9,28.35L32.15,27.7C32.083,27.433 32.35,26.95 32.95,26.25L32.95,26.2L33.05,25.8C32.05,25.867 31.05,25.683 30.05,25.25C29.583,25.05 29.2,24.75 28.9,24.35L28.7,24.8C27.9,25.367 27.083,25.75 26.25,25.95L26,25.95L25.9,25.9L25.35,26.15L25.35,25.5L24.9,25L24.3,25.2L24.25,24.15L24.5,23.95L24.7,23.5C24.867,23.3 25.033,23.15 25.2,23.05L25.3,22.95L25.2,22.25L23.55,21.3L23.45,21.4L22,21.5L21.5,20.85L21.5,20.55L21.45,20.55L20.3,21.6L19.8,21.3L19.8,18.9L19.95,18.8C16.383,16.733 13.3,14.833 10.7,13.1C9.667,12.4 8.867,11.683 8.3,10.95L7.55,9.8C11.517,11.9 16.1,14.5 21.3,17.6L22.95,16.1L23.4,16.25L23.4,18.25L23.55,18.35L23.75,17.85L25.55,14.75C25.95,14.383 26.55,14.183 27.35,14.15L28.55,14.45L28.95,14.7C29.183,13.733 29.55,13.083 30.05,12.75C30.617,12.383 31.2,12.083 31.8,11.85L32,10.45C32.167,9.85 32.367,9.367 32.6,9C32.8,8.6 32.983,8.417 33.15,8.45L33.3,9.15L33.05,10.75L32.85,11.45L34.65,11.05L35.25,9.75L36.15,8.45C36.45,8.15 36.667,8.033 36.8,8.1L36.8,8.85L36.15,10.3L35.65,11.05C36.717,11.35 37.65,12.267 38.45,13.8L41.8,13.6L41.45,13.9M28.95,14.7L28.8,15.15M27.05,19.45L27.05,19.35L26.95,18.6L25.4,19.85L25.45,20.4L25.95,20.7L26.55,20.35L27.2,20.2L27.15,19.75L27.05,19.45" style="fill:none;fill-rule:nonzero;stroke:#260900;stroke-width:0.5px;"/>
            </g>
            <g id="sprite0" transform="matrix(0.6,0,0,0.6,33.1004,25.3503)">
                <g id="sprite1" transform="matrix(1,0,0,1,-10.8,-1.9)">
                    <g id="shape1">
                        <path d="M3.55,-1.3C4.017,-0.467 4,0.3 3.5,1C2.067,2.033 0.567,2.667 -1,2.9C-2.3,2.367 -3.133,1.25 -3.5,-0.45L-3.2,-1.15C-1.833,-2.717 -0.333,-3.35 1.3,-3.05C2.333,-2.683 3.083,-2.1 3.55,-1.3" style="fill:#35301c;"/>
                        <path d="M3.55,-1.3C4.017,-0.467 4,0.3 3.5,1C2.067,2.033 0.567,2.667 -1,2.9C-2.3,2.367 -3.133,1.25 -3.5,-0.45L-3.2,-1.15C-1.833,-2.717 -0.333,-3.35 1.3,-3.05C2.333,-2.683 3.083,-2.1 3.55,-1.3Z" style="fill:none;fill-rule:nonzero;stroke:#000;stroke-opacity:0.3;stroke-width:0.05px;"/>
                        <path d="M-0.3,1.15L-1.5,1.9L-2.1,3.25L-2.15,1.45L-0.95,0.45C-0.583,0.55 -0.367,0.783 -0.3,1.15" style="fill:#f5f3d8;"/>
                        <path d="M-2.1,3.25L-1.5,1.9L-0.3,1.15C-0.233,1.517 -0.35,2.033 -0.65,2.7L-2.1,3.25" style="fill:#b8b495;"/>
                        <path d="M-2.1,3.25L-0.65,2.7M-0.95,0.45L-2.15,1.45L-2.1,3.25L-0.95,0.45Z" style="fill:none;fill-rule:nonzero;stroke:#000;stroke-opacity:0.3;stroke-width:0.05px;"/>
                        <path d="M-3.85,1.7L-3.9,-0.1L-2.7,-1.1C-2.333,-1 -2.117,-0.767 -2.05,-0.4L-3.25,0.35L-3.85,1.7" style="fill:#f5f3d8;"/>
                        <path d="M-3.85,1.7L-3.25,0.35L-2.05,-0.4C-1.983,-0.033 -2.1,0.483 -2.4,1.15L-3.85,1.7" style="fill:#b8b495;"/>
                        <path d="M-2.7,-1.1L-3.9,-0.1L-3.85,1.7L-2.4,1.15" style="fill:none;fill-rule:nonzero;stroke:#000;stroke-opacity:0.3;stroke-width:0.05px;"/>
                    </g>
                </g>
                <g id="sprite2" transform="matrix(1,0,0,1,-9.4,-5.75)">
                    <g id="shape2">
                        <path d="M2.7,-2.8C3.8,-0.9 4.1,0.5 3.6,1.4C0.533,3.3 -1.833,3.567 -3.5,2.2C-4.267,-0.133 -3.6,-1.733 -1.5,-2.6L2.7,-2.8" style="fill:#35301c;"/>
                        <path d="M-3.5,2.2C-4.267,-0.133 -3.6,-1.733 -1.5,-2.6L2.7,-2.8" style="fill:none;fill-rule:nonzero;stroke:#000;stroke-opacity:0.3;stroke-width:0.05px;"/>
                    </g>
                </g>
                <g id="sprite3" transform="matrix(1,0,0,1,-12.45,-13.45)">
                    <g id="shape3">
                        <path d="M-3.15,0.9L-0.25,-4.1C0.95,-4.7 2.067,-4.517 3.1,-3.55C3.933,-2.883 4.267,-1.5 4.1,0.6L-0.65,4.45L-3.35,3.95C-4.083,3.583 -4.017,2.567 -3.15,0.9" style="fill:#535135;"/>
                        <path d="M-3.15,0.9L-0.25,-4.1C0.95,-4.7 2.067,-4.517 3.1,-3.55C3.933,-2.883 4.267,-1.5 4.1,0.6L-0.65,4.45L-3.35,3.95C-4.083,3.583 -4.017,2.567 -3.15,0.9Z" style="fill:none;fill-rule:nonzero;stroke:#000;stroke-opacity:0.3;stroke-width:0.05px;"/>
                    </g>
                </g>
                <g id="sprite4" transform="matrix(1,0,0,1,-7.95,-14.15)">
                    <g id="shape4">
                        <path d="M-4.75,-3.4L-4.65,-3.5C-3.983,-4.133 -2.983,-4.467 -1.65,-4.5C-1.017,-4.533 -0.35,-4.367 0.35,-4L1.75,-3L2.85,-1.95C4.483,-0.183 5.05,1.4 4.55,2.8C4.05,4.2 3.033,4.717 1.5,4.35C0,3.983 -1.55,3.067 -3.15,1.6L-4.75,-3.4" style="fill:#535135;"/>
                        <path d="M-4.75,-3.4L-4.65,-3.5C-3.983,-4.133 -2.983,-4.467 -1.65,-4.5C-1.017,-4.533 -0.35,-4.367 0.35,-4L1.75,-3L2.85,-1.95C4.483,-0.183 5.05,1.4 4.55,2.8C4.05,4.2 3.033,4.717 1.5,4.35C0,3.983 -1.55,3.067 -3.15,1.6" style="fill:none;fill-rule:nonzero;stroke:#000;stroke-opacity:0.3;stroke-width:0.05px;"/>
                    </g>
                </g>
                <g id="sprite5" transform="matrix(1,0,0,1,-0.95,-6.75)">
                    <g id="shape5">
                        <path d="M7.25,0.9C7.317,1.567 7.2,2.283 6.9,3.05L6.35,4.3C3.717,5.867 0.683,6.367 -2.75,5.8C1.15,4.4 4.483,2.767 7.25,0.9" style="fill:#f5f3d8;"/>
                        <path d="M6.35,4.3C5.483,5.767 4.167,6.717 2.4,7.15C0.233,7.717 -1.95,7.533 -4.15,6.6C-5.017,6.233 -5.7,5.683 -6.2,4.95C-6.967,3.85 -7.317,2.333 -7.25,0.4C-7.117,-2.8 -6.3,-4.983 -4.8,-6.15C-3.267,-7.317 -2,-7.7 -1,-7.3C0,-6.867 0.8,-6.35 1.4,-5.75L5.2,-2.5C6.467,-1.533 7.15,-0.4 7.25,0.9C4.483,2.767 1.15,4.4 -2.75,5.8C0.683,6.367 3.717,5.867 6.35,4.3" style="fill:#bca46e;"/>
                        <path d="M6.35,4.3C5.483,5.767 4.167,6.717 2.4,7.15C0.233,7.717 -1.95,7.533 -4.15,6.6C-5.017,6.233 -5.7,5.683 -6.2,4.95C-6.967,3.85 -7.317,2.333 -7.25,0.4C-7.117,-2.8 -6.3,-4.983 -4.8,-6.15C-3.267,-7.317 -2,-7.7 -1,-7.3C0,-6.867 0.8,-6.35 1.4,-5.75L5.2,-2.5C6.467,-1.533 7.15,-0.4 7.25,0.9C7.317,1.567 7.2,2.283 6.9,3.05L6.35,4.3Z" style="fill:none;fill-rule:nonzero;stroke:#000;stroke-opacity:0.3;stroke-width:0.05px;"/>
                    </g>
                </g>
                <g id="sprite6" transform="matrix(1,0,0,1,6.9,0)">
                    <g id="shape6">
                        <path d="M2,-1.1C2.533,-0.467 2.767,0.167 2.7,0.8C2.6,1.933 1.85,2.483 0.45,2.45L-1.1,2.2L-2.85,1.15C-3.75,0.15 -3.65,-0.9 -2.55,-2C-1.683,-2.733 -0.717,-2.917 0.35,-2.55L2,-1.1" style="fill:#35301c;"/>
                        <path d="M2,-1.1C2.533,-0.467 2.767,0.167 2.7,0.8C2.6,1.933 1.85,2.483 0.45,2.45L-1.1,2.2L-2.85,1.15C-3.75,0.15 -3.65,-0.9 -2.55,-2C-1.683,-2.733 -0.717,-2.917 0.35,-2.55L2,-1.1Z" style="fill:none;fill-rule:nonzero;stroke:#000;stroke-opacity:0.3;stroke-width:0.05px;"/>
                        <path d="M1.7,0.15L2.9,0.9L3.5,2.25L2.05,1.7C1.75,1.033 1.633,0.517 1.7,0.15" style="fill:#b8b495;"/>
                        <path d="M3.5,2.25L2.9,0.9L1.7,0.15C1.767,-0.217 1.983,-0.45 2.35,-0.55L3.55,0.45L3.5,2.25" style="fill:#f5f3d8;"/>
                        <path d="M3.5,2.25L3.55,0.45L2.35,-0.55M2.05,1.7L3.5,2.25L2.05,1.7Z" style="fill:none;fill-rule:nonzero;stroke:#000;stroke-opacity:0.3;stroke-width:0.05px;"/>
                        <path d="M0.15,0.95L1.35,1.7L1.95,3.05L0.5,2.5C0.2,1.833 0.083,1.317 0.15,0.95" style="fill:#b8b495;"/>
                        <path d="M1.95,3.05L1.35,1.7L0.15,0.95C0.217,0.583 0.433,0.35 0.8,0.25L2,1.25L1.95,3.05" style="fill:#f5f3d8;"/>
                        <path d="M1.95,3.05L2,1.25L0.8,0.25M0.5,2.5L1.95,3.05L0.5,2.5Z" style="fill:none;fill-rule:nonzero;stroke:#000;stroke-opacity:0.3;stroke-width:0.05px;"/>
                    </g>
                </g>
                <g id="sprite7" transform="matrix(1,0,0,1,6.55,-3.8)">
                    <g id="shape7">
                        <path d="M-2.55,2.6C-3.45,-0.467 -3,-2.367 -1.2,-3.1C1.667,-3.867 3.083,-3.017 3.05,-0.55C3.017,0.617 2.75,1.683 2.25,2.65L2.2,2.8L0.2,3.35C-0.8,3.45 -1.717,3.2 -2.55,2.6" style="fill:#35301c;"/>
                        <path d="M-2.55,2.6C-3.45,-0.467 -3,-2.367 -1.2,-3.1C1.667,-3.867 3.083,-3.017 3.05,-0.55C3.017,0.617 2.75,1.683 2.25,2.65L2.2,2.8" style="fill:none;fill-rule:nonzero;stroke:#000;stroke-opacity:0.3;stroke-width:0.05px;"/>
                    </g>
                </g>
                <g id="sprite8" transform="matrix(1,0,0,1,2.3,3.1)">
                    <g id="shape8">
                        <path d="M3.05,-1.5L4.25,0.15L3.8,1.25L2.85,2.05L2.15,1.75L2.45,2.1C1.817,2.667 1.2,2.8 0.6,2.5C0.067,2.2 -0.45,1.767 -0.95,1.2L-1.5,0.6L-2.65,1.9C-3.383,1.567 -3.8,1.2 -3.9,0.8C-4,0.367 -3.55,-0.417 -2.55,-1.55L-2.55,-1.65C-2.517,-1.883 -2.267,-2.05 -1.8,-2.15L-0.65,-2.4L1.05,-2.65L1.25,-2.65C1.95,-2.617 2.55,-2.233 3.05,-1.5M-1.5,0.6L-1.35,0.4L-1.5,0.6M2.15,1.75L1,0.45L2.15,1.75" style="fill:#535135;"/>
                        <path d="M3.05,-1.5L4.25,0.15L3.8,1.25L2.85,2.05L2.15,1.75L2.45,2.1C1.817,2.667 1.2,2.8 0.6,2.5C0.067,2.2 -0.45,1.767 -0.95,1.2L-1.5,0.6L-2.65,1.9C-3.383,1.567 -3.8,1.2 -3.9,0.8C-4,0.367 -3.55,-0.417 -2.55,-1.55L-2.55,-1.65C-2.517,-1.883 -2.267,-2.05 -1.8,-2.15L-0.65,-2.4L1.05,-2.65L1.25,-2.65C1.95,-2.617 2.55,-2.233 3.05,-1.5M1,0.45L2.15,1.75M-1.35,0.4L-1.5,0.6" style="fill:none;fill-rule:nonzero;stroke:#000;stroke-opacity:0.3;stroke-width:0.05px;"/>
                    </g>
                </g>
                <g id="sprite9" transform="matrix(1,0,0,1,3.55,-4.15)">
                    <g id="shape9">
                        <path d="M-3.8,5.6L-2.95,0.9L-1.85,-3L-0.85,-4.8L0.15,-5.75L1.35,-6.15C2.683,-6.35 3.467,-5.683 3.7,-4.15L3.85,-2.75L3.85,-2.2L2.95,-1.35C2.417,-0.75 2.15,0.25 2.15,1.65L2.65,2.75L2.5,3L1.75,4.55L1.3,5.25C-0.133,6.417 -1.833,6.533 -3.8,5.6" style="fill:#535135;"/>
                        <path d="M3.85,-2.2L3.8,-1.65C3.667,-0.217 3.283,1.25 2.65,2.75L2.15,1.65C2.15,0.25 2.417,-0.75 2.95,-1.35L3.85,-2.2" style="fill:#f5f3d8;"/>
                        <path d="M-3.8,5.6L-2.95,0.9L-1.85,-3L-0.85,-4.8L0.15,-5.75L1.35,-6.15C2.683,-6.35 3.467,-5.683 3.7,-4.15L3.85,-2.75L3.85,-2.2L3.8,-1.65C3.667,-0.217 3.283,1.25 2.65,2.75L2.5,3L1.75,4.55L1.3,5.25" style="fill:none;fill-rule:nonzero;stroke:#000;stroke-opacity:0.3;stroke-width:0.05px;"/>
                    </g>
                </g>
                <g id="sprite10" transform="matrix(1,0,0,1,1,-14.05)">
                    <g id="sprite11" transform="matrix(1,0,0,1,-2.2,2.85)">
                        <g id="BandeauBig1" transform="matrix(1,0,0,1,-9.25,-6.3)">
                            <g id="shape10">
                                <path d="M0,1.7C5.867,0.067 11.633,-0.4 17.3,0.3L17.4,2C17.467,4.967 16.817,7.717 15.45,10.25C11.217,12.117 7.683,12.917 4.85,12.65C2.05,10.117 0.6,7.833 0.5,5.8C0.4,3.767 0.233,2.4 0,1.7" style="fill:#a31817;"/>
                            </g>
                        </g>
                        <g id="shape11">
                            <path d="M8.15,-4.3C8.217,-1.333 7.567,1.417 6.2,3.95C1.967,5.817 -1.567,6.617 -4.4,6.35C-7.2,3.817 -8.65,1.533 -8.75,-0.5C-8.85,-2.533 -9.017,-3.9 -9.25,-4.6C-3.383,-6.233 2.383,-6.7 8.05,-6L8.15,-4.3" style="fill-opacity:0.6;"/>
                            <path d="M8.15,-4.3C8.217,-1.333 7.567,1.417 6.2,3.95C1.967,5.817 -1.567,6.617 -4.4,6.35C-7.2,3.817 -8.65,1.533 -8.75,-0.5C-8.85,-2.533 -9.017,-3.9 -9.25,-4.6C-3.383,-6.233 2.383,-6.7 8.05,-6L8.15,-4.3Z" style="fill:none;fill-rule:nonzero;stroke:#000;stroke-opacity:0.3;stroke-width:0.05px;"/>
                        </g>
                    </g>
                    <g id="sprite13" transform="matrix(1,0,0,1,8.05,0.6)">
                        <g id="BandeauBig2" transform="matrix(1,0,0,1,-3.1,-6.05)">
                            <g id="shape12">
                                <path d="M6.6,4.25L4.6,5.7C5.667,6.133 5.967,6.85 5.5,7.85C4.733,9.083 3.55,10.1 1.95,10.9C0.917,10.867 0.3,10.017 0.1,8.35C-0.167,6.15 0.133,5 1,4.9L2.1,5.05L2.85,3.8L6.6,4.15L6.6,4.25M7.9,0.5L5.4,3.25L1.4,3.25L2.9,0.2L8.5,0L7.9,0.5" style="fill:#a31817;"/>
                            </g>
                        </g>
                        <g id="shape13">
                            <path d="M1.55,-5.9L0.55,-4.7L2.9,-4.9L0.35,-2.8L-1.7,-2.8L-0.2,-5.85L1.55,-5.9M1.5,-0.35L1.15,-0.5L-1,-1L-0.25,-2.25L1.7,-2.05L0.4,-1.15L3.5,-1.8L1.5,-0.35" style="fill-opacity:0.35;"/>
                            <path d="M1.55,-5.9L-0.2,-5.85L-1.7,-2.8L2.3,-2.8L4.8,-5.55L5.4,-6.05L1.55,-5.9M1.5,-0.35L3.5,-1.8M1.7,-2.05L-0.25,-2.25L-1,-1" style="fill:none;fill-rule:nonzero;stroke:#000;stroke-opacity:0.3;stroke-width:0.05px;"/>
                            <path d="M-1,-1L1.15,-0.5L1.5,-0.35C2.567,0.083 2.867,0.8 2.4,1.8C1.633,3.033 0.45,4.05 -1.15,4.85C-2.183,4.817 -2.8,3.967 -3,2.3C-3.267,0.1 -2.967,-1.05 -2.1,-1.15L-1,-1" style="fill:none;fill-rule:nonzero;stroke:#000;stroke-opacity:0.3;stroke-width:0.05px;"/>
                        </g>
                    </g>
                    <g id="sprite15" transform="matrix(1,0,0,1,0.3,0.65)">
                        <g id="shape14">
                            <path d="M-6.45,-7.55C-3.85,-9.25 -1,-10.267 2.1,-10.6C4.233,-10.3 6.05,-8.7 7.55,-5.8C9.05,-2.9 8.95,-0.517 7.25,1.35C5.25,2.617 3.2,3.75 1.1,4.75C-0.5,5.283 -1.9,5.55 -3.1,5.55L-5.2,0.75C-5.067,-1.45 -4.8,-3.683 -4.4,-5.95L-6.45,-7.55M3,0.35L1.95,2.5L7.15,0.15L6.05,-0.95L3,0.35" style="fill:#f5f3d8;"/>
                            <path d="M-3.1,5.55C-6.933,5.45 -8.733,2.4 -8.5,-3.6C-8.067,-5.6 -7.383,-6.917 -6.45,-7.55L-4.4,-5.95C-4.8,-3.683 -5.067,-1.45 -5.2,0.75L-3.1,5.55M3,0.35L6.05,-0.95L7.15,0.15L1.95,2.5L3,0.35" style="fill:#bca46e;"/>
                            <path d="M-6.45,-7.55C-3.85,-9.25 -1,-10.267 2.1,-10.6C4.233,-10.3 6.05,-8.7 7.55,-5.8C9.05,-2.9 8.95,-0.517 7.25,1.35C5.25,2.617 3.2,3.75 1.1,4.75C-0.5,5.283 -1.9,5.55 -3.1,5.55C-6.933,5.45 -8.733,2.4 -8.5,-3.6C-8.067,-5.6 -7.383,-6.917 -6.45,-7.55Z" style="fill:none;fill-rule:nonzero;stroke:#000;stroke-opacity:0.3;stroke-width:0.05px;"/>
                        </g>
                    </g>
                    <g id="shape15">
                        <path d="M-2.8,-10.75L-1.85,-13.2C-1.483,-13.867 -1.183,-14.167 -0.95,-14.1C-0.717,-14.033 -0.617,-13.633 -0.65,-12.9C-0.683,-12.133 -0.833,-11.25 -1.1,-10.25C-1.367,-9.25 -1.683,-8.433 -2.05,-7.8C-2.383,-7.133 -2.667,-6.833 -2.9,-6.9C-3.133,-6.967 -3.25,-7.367 -3.25,-8.1L-2.8,-10.75" style="fill:#535135;"/>
                        <path d="M-2.8,-10.75L-1.85,-13.2C-1.483,-13.867 -1.183,-14.167 -0.95,-14.1C-0.717,-14.033 -0.617,-13.633 -0.65,-12.9C-0.683,-12.133 -0.833,-11.25 -1.1,-10.25C-1.367,-9.25 -1.683,-8.433 -2.05,-7.8C-2.383,-7.133 -2.667,-6.833 -2.9,-6.9C-3.133,-6.967 -3.25,-7.367 -3.25,-8.1L-2.8,-10.75Z" style="fill:none;fill-rule:nonzero;stroke:#000;stroke-opacity:0.3;stroke-width:0.05px;"/>
                        <path d="M2.55,-11.9L4.05,-14.05C4.583,-14.583 4.967,-14.783 5.2,-14.65C5.367,-14.517 5.35,-14.1 5.15,-13.4L4.05,-11L2.45,-8.9C1.983,-8.3 1.65,-8.067 1.45,-8.2C1.217,-8.333 1.2,-8.75 1.4,-9.45L2.55,-11.9" style="fill:#535135;"/>
                        <path d="M2.55,-11.9L4.05,-14.05C4.583,-14.583 4.967,-14.783 5.2,-14.65C5.367,-14.517 5.35,-14.1 5.15,-13.4L4.05,-11L2.45,-8.9C1.983,-8.3 1.65,-8.067 1.45,-8.2C1.217,-8.333 1.2,-8.75 1.4,-9.45L2.55,-11.9Z" style="fill:none;fill-rule:nonzero;stroke:#000;stroke-opacity:0.3;stroke-width:0.05px;"/>
                    </g>
                    <g id="sprite16" transform="matrix(1,0,0,1,7.3,-1.45)">
                        <g id="shape16">
                            <path d="M0.65,-3.2C1.05,-2.933 1.333,-2.517 1.5,-1.95L1.8,0.25C1.5,1.883 0.967,2.95 0.2,3.45L-0.95,3.2C-1.65,2.767 -1.633,1.4 -0.9,-0.9C-0.3,-2.7 0.217,-3.467 0.65,-3.2" style="fill:#535135;"/>
                            <path d="M0.2,3.45C0.967,2.95 1.5,1.883 1.8,0.25L1.5,-1.95C1.333,-2.517 1.05,-2.933 0.65,-3.2" style="fill:none;fill-rule:nonzero;stroke:#000;stroke-opacity:0.3;stroke-width:0.05px;"/>
                            <path d="M0.7,-1.95L0.25,1.6L-0.85,1.6L0.7,-1.95" style="fill:#fefcee;"/>
                        </g>
                    </g>
                    <g id="sprite17" transform="matrix(1,0,0,1,-0.4,1.3)">
                        <g id="shape17">
                            <path d="M-4.3,0.85C-4.033,-0.717 -3.467,-2.067 -2.6,-3.2C-0.6,-3.833 1.383,-3.4 3.35,-1.9C5.283,-0.4 5.033,0.983 2.6,2.25C0.133,3.483 -1.7,3.983 -2.9,3.75C-4.1,3.517 -4.567,2.55 -4.3,0.85" style="fill:#535135;"/>
                            <path d="M3.25,-0.45L0.55,0.85L-2.75,-1.5L0.75,-0.9L3.25,-0.45" style="fill:#fefcee;"/>
                        </g>
                    </g>
                    <g id="sprite18" transform="matrix(1,0,0,1,-0.5,5.45)">
                        <g id="BandeauBig" transform="matrix(1,0,0,1,-11,-7.35)">
                            <g id="shape18">
                                <path d="M21.95,4.3C21.25,5.7 20.233,6.933 18.9,8L17.7,8.9L14.15,10.6L13.6,10.85L13.1,11.05C9.667,12.517 6.967,13.35 5,13.55L3.1,13.9L1.75,10.9C1.217,9.667 0.883,8.617 0.75,7.75L0.45,6.2L0.1,2.8L0,0L1.4,2.55L2.6,5.6L3.1,6.55C3.5,7.317 4.267,7.833 5.4,8.1C9.3,8.933 14.217,7.4 20.15,3.5L21.45,3.7L21.95,4.3" style="fill:#a31817;"/>
                            </g>
                        </g>
                        <g id="BandeauSmall" transform="matrix(1,0,0,1,-10.9,-4.55)">
                            <g id="shape19">
                                <path d="M21.85,1.5C21.15,2.9 20.133,4.133 18.8,5.2L17.6,6.1L14.05,7.8L13.5,8.05L13,8.25C9.567,9.717 6.867,10.55 4.9,10.75L3,11.1L1.65,8.1C1.117,6.867 0.783,5.817 0.65,4.95L0.35,3.4L0,0C0.367,2.7 1.167,5.183 2.4,7.45L5.9,7.3C8.667,7 12.083,5.95 16.15,4.15C18.417,3.15 20.15,2.067 21.35,0.9L21.85,1.5" style="fill:#4a4930;"/>
                            </g>
                        </g>
                        <g id="shape20">
                            <path d="M-7.9,6.55L-9.25,3.55C-9.783,2.317 -10.117,1.267 -10.25,0.4L-10.55,-1.15L-10.9,-4.55C-10.533,-1.85 -9.733,0.633 -8.5,2.9L-7.9,6.55" style="fill:#fff;fill-opacity:0.15;"/>
                            <path d="M2.1,3.7L-7.2,5.4L-1.55,3L-5,2.75C-2.233,2.45 1.183,1.4 5.25,-0.4C7.517,-1.4 9.25,-2.483 10.45,-3.65L10.95,-3.05C10.25,-1.65 9.233,-0.417 7.9,0.65L6.7,1.55L3.15,3.25L2.6,3.5L2.1,3.7" style="fill-opacity:0.35;"/>
                            <path d="M10.95,-3.05C10.25,-1.65 9.233,-0.417 7.9,0.65L6.7,1.55L3.15,3.25L2.6,3.5M2.1,3.7C-1.333,5.167 -4.033,6 -6,6.2L-7.9,6.55L-9.25,3.55C-9.783,2.317 -10.117,1.267 -10.25,0.4L-10.55,-1.15L-10.9,-4.55L-11,-7.35M-9.6,-4.8L-8.4,-1.75L-7.9,-0.8C-7.5,-0.033 -6.733,0.483 -5.6,0.75C-1.7,1.583 3.217,0.05 9.15,-3.85" style="fill:none;fill-rule:nonzero;stroke:#000;stroke-opacity:0.3;stroke-width:0.05px;"/>
                            <path d="M2.6,3.5L2.1,3.7" style="fill:none;fill-rule:nonzero;stroke:#000;stroke-opacity:0.3;stroke-width:0.05px;"/>
                        </g>
                    </g>
                    <g id="sprite21" transform="matrix(1,0,0,1,4.25,3.65)">
                        <g id="shape21">
                            <path d="M3.3,-1.85L4.35,-1.4L4.6,0.75L2.85,1.9L0.7,2.85L-1,2.65L-2.35,2.4C-2.55,1.867 -2.5,1.5 -2.2,1.3L-1.25,0.6C-0.85,0.367 -0.3,-0.05 0.4,-0.65C1.1,-1.25 2.067,-1.65 3.3,-1.85" style="fill:#f5f3d8;"/>
                            <path d="M3.3,-1.85L4.35,-1.4L4.6,0.75L2.85,1.9L0.7,2.85L-1,2.65L-2.35,2.4" style="fill:none;fill-rule:nonzero;stroke:#000;stroke-opacity:0.3;stroke-width:0.05px;"/>
                            <path d="M1.55,-0.1C0.883,-0.167 0.217,-0.35 -0.45,-0.65L-0.25,-1.5C0.617,-2 1.45,-2.3 2.25,-2.4L2.9,-1.9C3,-1.1 2.85,-0.533 2.45,-0.2L1.55,-0.1" style="fill:#535135;"/>
                            <path d="M1.55,-0.1C0.883,-0.167 0.217,-0.35 -0.45,-0.65L-0.25,-1.5C0.617,-2 1.45,-2.3 2.25,-2.4L2.9,-1.9C3,-1.1 2.85,-0.533 2.45,-0.2L1.55,-0.1Z" style="fill:none;fill-rule:nonzero;stroke:#000;stroke-opacity:0.3;stroke-width:0.05px;"/>
                        </g>
                    </g>
                </g>
                <g id="sprite22" transform="matrix(1,0,0,1,-24.6,-13.8)">
                    <g id="shape22">
                        <path d="M-16.75,-10.15L-18,-12.05C-10.033,-6.983 -2.15,-2.25 5.65,2.15C5.217,2.317 4.917,2.533 4.75,2.8L2.65,2L0.95,0.35L-2.05,-0.8L-4.5,-2.85L-7.5,-4.1L-8.9,-5.6L-12.25,-6.95L-12.65,-7.9L-16.75,-10.15" style="fill:#dce3db;"/>
                        <path d="M-18,-12.05C-10.967,-8.35 -2.75,-3.7 6.65,1.9L5.65,2.15C-2.15,-2.25 -10.033,-6.983 -18,-12.05" style="fill:#626f65;"/>
                        <path d="M4.75,2.8C4.517,3.1 4.467,3.483 4.6,3.95C-2.2,0.15 -7.983,-3.367 -12.75,-6.6C-14.483,-7.767 -15.817,-8.95 -16.75,-10.15L-12.65,-7.9L-12.25,-6.95L-8.9,-5.6L-7.5,-4.1L-4.5,-2.85L-2.05,-0.8L0.95,0.35L2.65,2L4.75,2.8" style="fill:#fbfdff;"/>
                        <path d="M4.75,2.8C4.517,3.1 4.467,3.483 4.6,3.95C-2.2,0.15 -7.983,-3.367 -12.75,-6.6C-14.483,-7.767 -15.817,-8.95 -16.75,-10.15L-18,-12.05C-10.967,-8.35 -2.75,-3.7 6.65,1.9L5.65,2.15C5.217,2.317 4.917,2.533 4.75,2.8Z" style="fill:none;fill-rule:nonzero;stroke:#000;stroke-opacity:0.3;stroke-width:0.05px;"/>
                        <path d="M2.4,3.05L7.65,-1.6L8.4,-1.35L3.25,3.4L2.4,3.05" style="fill:#ffb679;"/>
                        <path d="M3.25,7.55L2.45,7.1L2.4,3.05L3.25,3.4L3.25,7.55" style="fill:#733402;"/>
                        <path d="M8.4,-1.35L8.4,2.8L3.25,7.55L3.25,3.4L8.4,-1.35" style="fill:#a96920;"/>
                        <path d="M2.4,3.05L7.65,-1.6L8.4,-1.35L8.4,2.8L3.25,7.55L2.45,7.1L2.4,3.05Z" style="fill:none;fill-rule:nonzero;stroke:#000;stroke-opacity:0.3;stroke-width:0.05px;"/>
                        <path d="M11.4,3.9C11.867,4.6 11.983,5.367 11.75,6.2C11.517,7.033 10.75,6.833 9.45,5.6C9.85,4.633 10.5,4.067 11.4,3.9" style="fill:#535135;"/>
                        <path d="M11.4,3.9C11.867,4.6 11.983,5.367 11.75,6.2C11.517,7.033 10.75,6.833 9.45,5.6" style="fill:none;fill-rule:nonzero;stroke:#000;stroke-opacity:0.3;stroke-width:0.05px;"/>
                        <path d="M8.15,5.75L8.5,4.4L8.55,3.55L17.3,8.9L15.75,10.2L8.15,5.75" style="fill:#a96920;"/>
                        <path d="M17.3,8.9L17.3,9.8L15.75,11.2L15.75,10.2L17.3,8.9" style="fill:#ffb679;"/>
                        <path d="M15.75,11.2L7.95,6.65L8.15,5.75L15.75,10.2L15.75,11.2" style="fill:#733402;"/>
                        <path d="M17.3,8.9L17.3,9.8L15.75,11.2L7.95,6.65L8.15,5.75L8.5,4.4L8.55,3.55L17.3,8.9Z" style="fill:none;fill-rule:nonzero;stroke:#000;stroke-opacity:0.3;stroke-width:0.05px;"/>
                        <path d="M8.8,2.25C9.8,2.65 10.667,3.2 11.4,3.9C11,4.4 10.883,4.783 11.05,5.05C10.283,5.25 9.517,5.717 8.75,6.45L8.5,7.25L6.1,7.45L5.25,6.3L5.25,5.8L3.6,4.75C3.5,4.083 3.617,3.45 3.95,2.85C4.65,2.05 5.45,1.55 6.35,1.35C7.017,1.317 7.833,1.617 8.8,2.25M8.4,6.8L8.75,6.45L8.4,6.8M5.25,5.4L5.25,5.8L5.25,5.4" style="fill:#535135;"/>
                        <path d="M11.05,5.05C10.283,5.25 9.517,5.717 8.75,6.45L8.5,7.25L6.1,7.45L5.25,6.3L5.25,5.8L3.6,4.75C3.5,4.083 3.617,3.45 3.95,2.85C4.65,2.05 5.45,1.55 6.35,1.35C7.017,1.317 7.833,1.617 8.8,2.25M5.25,5.8L5.25,5.4M8.75,6.45L8.4,6.8" style="fill:none;fill-rule:nonzero;stroke:#000;stroke-opacity:0.3;stroke-width:0.05px;"/>
                    </g>
                </g>
            </g>
        </g>
    </g>
</svg>
