<?xml version="1.0" encoding="UTF-8" standalone="no"?>
<!DOCTYPE svg PUBLIC "-//W3C//DTD SVG 1.1//EN" "http://www.w3.org/Graphics/SVG/1.1/DTD/svg11.dtd">
<svg width="100%" height="100%" viewBox="0 0 17 23" version="1.1" xmlns="http://www.w3.org/2000/svg" xmlns:xlink="http://www.w3.org/1999/xlink" xml:space="preserve" xmlns:serif="http://www.serif.com/" style="fill-rule:evenodd;clip-rule:evenodd;stroke-linecap:round;stroke-linejoin:round;">
    <g transform="matrix(1,0,0,1,-13.775,-18.975)">
        <g transform="matrix(1,0,0,1,22,30.05)">
            <g id="sprite0">
                <g id="shape0">
                    <path d="M6.1,2L7.45,3.35C7.617,3.65 7.55,3.883 7.25,4.05L6.85,4.2L5.95,4.35C6.25,4.817 6.6,5.117 7,5.25L7.85,5.55L7.5,6.1L6.7,6.9C6.967,9.5 6.583,10.75 5.55,10.65L2.95,10.3L1.55,9.8L-1.35,9.95L-3.9,8.95L-4.4,8.5L-3.5,7.75L-2.65,6.85L-4.05,6.75L-4.45,6.6C-4.783,6.433 -4.85,6.2 -4.65,5.9L-2.5,3.6L-2.1,3.1L-1.85,2.8L-2.9,2.3L-4.25,1.35L-4.4,1.05L-4.5,1.05C-5.933,1.017 -7,-0.083 -7.7,-2.25L-7.8,-2.95L-6.95,-4.45L-6.55,-4.9L-6.1,-5.3L-4.35,-6.3L-3.75,-7.15L-2.9,-7.75L-2.05,-8.25L-1.85,-8.8L-1.7,-8.95L-1.55,-8.95L-1.05,-8.75C-0.183,-9.117 0.7,-9.3 1.6,-9.3L3.2,-9.75L4,-10.6L4.1,-10.65L4.25,-10.55L4.85,-9.7L6.25,-9.25L6.6,-8.7C7.167,-6.967 7.133,-5.617 6.5,-4.65L6.55,-4.35L6.4,-1.95C6.733,-1.183 6.7,-0.45 6.3,0.25C6.467,0.217 6.6,0.283 6.7,0.45L7.05,1.1L7.15,2.05M1.55,9.8L0.55,9.3" style="fill:none;fill-rule:nonzero;stroke:#260900;stroke-width:0.85px;"/>
                </g>
                <g id="sprite1" transform="matrix(0.75,0,0,0.7499,2.6,6.80018)">
                    <g id="shape1" transform="matrix(1,0,0,1,-0.9,-9.3)">
                        <path d="M7.05,5.6C5.817,4.433 4.95,3.1 4.45,1.6L7.35,4.7C7.55,5.1 7.45,5.4 7.05,5.6" style="fill:#5e606f;"/>
                        <path d="M4.45,1.6C4.95,3.1 5.817,4.433 7.05,5.6L6.5,5.8C3.8,6.433 1.633,5.317 0,2.45C-0.067,0.15 1.117,-0.517 3.55,0.45L3.95,0.95L4.45,1.6" style="fill:#494952;"/>
                        <path d="M7.05,5.6C7.45,5.4 7.55,5.1 7.35,4.7M4.45,1.6L3.95,0.95L3.55,0.45C1.117,-0.517 -0.067,0.15 0,2.45C1.633,5.317 3.8,6.433 6.5,5.8L7.05,5.6" style="fill:none;fill-rule:nonzero;stroke:#000;stroke-opacity:0.24;stroke-width:0.05px;"/>
                        <path d="M7.35,4.7L4.45,1.6" style="fill:none;fill-rule:nonzero;stroke:#000;stroke-opacity:0.15;stroke-width:0.05px;"/>
                    </g>
                    <g id="shape2" transform="matrix(1,0,0,1,-9.35,-8.45)">
                        <path d="M4.4,4.1L6.15,2.9L4.1,9.45L5.3,8.4C5.3,9.267 4.883,10.7 4.05,12.7L0.65,11.35L0,10.75L1.2,9.75C2.033,9.15 2.8,7.983 3.5,6.25L4.4,4.1" style="fill:#5e606f;"/>
                        <path d="M4.4,4.1L5.35,2.05L6.8,0.75L7.25,0.45L8.15,0.05L8.95,0L9.55,0.1L11,0.7L12.25,2.3L12.8,3.3L13.15,4C13.717,5.333 14.4,6.133 15.2,6.4L16.35,6.8L15.85,7.55L15.7,7.7L12.3,10.7C11.7,11.2 10.95,11.6 10.05,11.9C7.083,12.767 5.083,13.033 4.05,12.7C4.883,10.7 5.3,9.267 5.3,8.4L4.1,9.45L6.15,2.9L4.4,4.1" style="fill:#494952;"/>
                        <path d="M4.05,12.7C5.083,13.033 7.083,12.767 10.05,11.9C10.95,11.6 11.7,11.2 12.3,10.7L15.7,7.7L15.85,7.55L16.35,6.8L15.2,6.4C14.4,6.133 13.717,5.333 13.15,4L12.8,3.3L12.25,2.3L11,0.7L9.55,0.1L8.95,0L8.15,0.05L7.25,0.45L6.8,0.75L5.35,2.05L4.4,4.1L3.5,6.25C2.8,7.983 2.033,9.15 1.2,9.75L0,10.75L0.65,11.35L4.05,12.7Z" style="fill:none;fill-rule:nonzero;stroke:#000;stroke-opacity:0.24;stroke-width:0.05px;"/>
                    </g>
                    <g id="shape3" transform="matrix(1,0,0,1,-2.8,-7.35)">
                        <path d="M5.4,2.2C7.133,4.433 8.033,5.783 8.1,6.25C8.7,10.55 8.25,12.633 6.75,12.5L3.25,12L0.05,10.65C-0.017,9.683 0.033,8.633 0.2,7.5C0.433,6.133 0.833,4.667 1.4,3.1C2.8,3.367 4.133,3.067 5.4,2.2" style="fill:#5e606f;"/>
                        <path d="M1.4,3.1L1.9,1.9L2.15,1.25L2.4,0.7C2.533,0.367 2.733,0.15 3,0.05L3.1,0.05L3.1,0.1L3.15,0.05L3.35,0.05C3.55,0.05 3.733,0.15 3.9,0.35L4.25,0.8L4.65,1.25L5.4,2.2C4.133,3.067 2.8,3.367 1.4,3.1" style="fill:#494952;"/>
                        <path d="M8.1,6.25C8.7,10.55 8.25,12.633 6.75,12.5L3.25,12L0.05,10.65" style="fill:none;fill-rule:nonzero;stroke:#000;stroke-opacity:0.24;stroke-width:0.05px;"/>
                    </g>
                    <g id="shape4" transform="matrix(1,0,0,1,-9.8,-5.9)">
                        <path d="M7.45,2.4C5.817,5.3 3.633,6.433 0.9,5.8L0.4,5.6C-0.033,5.4 -0.133,5.1 0.1,4.7L3,1.6L3.5,0.95C4.333,1.817 5.65,2.3 7.45,2.4" style="fill:#5e606f;"/>
                        <path d="M7.45,2.4C5.65,2.3 4.333,1.817 3.5,0.95L3.9,0.45C6.333,-0.517 7.517,0.133 7.45,2.4" style="fill:#494952;"/>
                        <path d="M0.1,4.7C-0.133,5.1 -0.033,5.4 0.4,5.6L0.9,5.8C3.633,6.433 5.817,5.3 7.45,2.4M3.9,0.45L3.5,0.95" style="fill:none;fill-rule:nonzero;stroke:#000;stroke-opacity:0.24;stroke-width:0.05px;"/>
                        <path d="M3.5,0.95L3,1.6L0.1,4.7L3.5,0.95Z" style="fill:none;fill-rule:nonzero;stroke:#000;stroke-opacity:0.15;stroke-width:0.05px;"/>
                    </g>
                    <g id="shape5" transform="matrix(1,0,0,1,-4.05,-6.75)">
                        <path d="M6.85,0C7.25,0.367 6.683,0.933 5.15,1.7C3.617,2.433 1.917,2.467 0.05,1.8C3.217,1.833 5.483,1.233 6.85,0" style="fill:#3d5150;"/>
                    </g>
                    <g id="shape6" transform="matrix(1,0,0,1,-2.1,-5.4)">
                        <path d="M4.15,0.85C4.517,0.917 4.867,1.083 5.2,1.35C5.667,1.817 5.9,2.45 5.9,3.25L5.45,5L5.2,5.45C4.7,6.117 4.117,6.517 3.45,6.65L2.5,6.65L2.35,6.6L2.25,6.55L1.7,6.2C1.233,5.733 0.983,5.133 0.95,4.4L0.95,4.3C0.95,3.5 1.2,2.767 1.7,2.1L2,1.7C2.433,1.267 2.917,1 3.45,0.9L3.9,0.85L4.15,0.85M4.95,1.85C4.583,1.45 4.117,1.317 3.55,1.45C3.017,1.55 2.55,1.867 2.15,2.4C1.75,2.967 1.55,3.567 1.55,4.2L1.7,5.1L2.15,5.8C2.55,6.2 3.017,6.333 3.55,6.2C4.117,6.1 4.583,5.783 4.95,5.25L5,5.2C5.367,4.667 5.55,4.083 5.55,3.45C5.55,2.783 5.35,2.25 4.95,1.85" style="fill:#379ec2;"/>
                        <path d="M4.95,1.85C5.35,2.25 5.55,2.783 5.55,3.45C5.55,4.083 5.367,4.667 5,5.2L4.95,5.25C4.583,5.783 4.117,6.1 3.55,6.2C3.017,6.333 2.55,6.2 2.15,5.8L1.7,5.1L1.55,4.2C1.55,3.567 1.75,2.967 2.15,2.4C2.55,1.867 3.017,1.55 3.55,1.45C4.117,1.317 4.583,1.45 4.95,1.85" style="fill:#ecd8bc;"/>
                        <path d="M2.35,6.6L2.1,6.55L2,6.5L1.85,6.45L1.3,6.1C0.8,5.633 0.55,5 0.55,4.2C0.55,3.4 0.8,2.667 1.3,2C1.767,1.333 2.35,0.933 3.05,0.8L3.55,0.75L3.65,0.75L4.15,0.85L3.9,0.85L3.45,0.9C2.917,1 2.433,1.267 2,1.7L1.7,2.1C1.2,2.767 0.95,3.5 0.95,4.3L0.95,4.4C0.983,5.133 1.233,5.733 1.7,6.2L2.25,6.55L2.35,6.6" style="fill:#1e5a6f;"/>
                        <path d="M4.15,0.85C4.517,0.917 4.867,1.083 5.2,1.35C5.667,1.817 5.9,2.45 5.9,3.25L5.45,5L5.2,5.45C4.7,6.117 4.117,6.517 3.45,6.65L2.5,6.65L2.35,6.6L2.1,6.55L2,6.5L1.85,6.45L1.3,6.1C0.8,5.633 0.55,5 0.55,4.2C0.55,3.4 0.8,2.667 1.3,2C1.767,1.333 2.35,0.933 3.05,0.8L3.55,0.75L3.65,0.75L4.15,0.85Z" style="fill:none;fill-rule:nonzero;stroke:#000;stroke-opacity:0.24;stroke-width:0.05px;"/>
                        <path d="M2.7,3.05C2.9,2.683 3.183,2.433 3.55,2.3L4.5,2.45C4.8,2.65 4.967,2.95 5,3.35C5.067,3.683 5,4.033 4.8,4.4L4,5.1L3.05,5C2.783,4.8 2.617,4.5 2.55,4.1C2.483,3.733 2.533,3.383 2.7,3.05"/>
                        <path d="M2.6,2.45C2.733,2.25 2.917,2.1 3.15,2L3.75,2.1L4.1,2.65L3.95,3.3L3.45,3.75L2.85,3.7L2.5,3.15L2.6,2.45" style="fill:#fff;"/>
                    </g>
                    <g id="shape7" transform="matrix(1,0,0,1,-13.85,-23.25)">
                        <path d="M12.25,1.9C13.25,1.467 14.217,1.217 15.15,1.15L15.95,1.15L16.65,1.2C13.317,3.133 12.2,4.767 13.3,6.1C12.5,5.4 11.967,4.75 11.7,4.15C11.367,3.317 11.55,2.567 12.25,1.9" style="fill:#5e606f;"/>
                        <path d="M16.65,1.2L18.75,1.85L19.2,2.6C20.133,5.433 19.833,7.533 18.3,8.9C17.433,9.467 16.7,9.533 16.1,9.1C18.8,8.333 19.767,6.55 19,3.75C18.833,3.15 18.567,2.75 18.2,2.55C18,2.583 17.8,2.833 17.6,3.3C17.433,3.6 17.3,4 17.2,4.5L16.75,6.05L16.3,7.2L15.9,7.55C15.467,7.517 15.017,7.367 14.55,7.1L14.3,6.95L13.3,6.1C12.2,4.767 13.317,3.133 16.65,1.2" style="fill:#494952;"/>
                        <path d="M16.1,9.1C15.133,9.033 14.617,8.367 14.55,7.1C15.017,7.367 15.467,7.517 15.9,7.55L16.3,7.2L16.75,6.05L17.2,4.5C17.3,4 17.433,3.6 17.6,3.3C17.8,2.833 18,2.583 18.2,2.55C18.567,2.75 18.833,3.15 19,3.75C19.767,6.55 18.8,8.333 16.1,9.1" style="fill:#787887;"/>
                        <path d="M12.25,1.9C13.25,1.467 14.217,1.217 15.15,1.15L15.95,1.15L16.65,1.2L18.75,1.85" style="fill:none;fill-rule:nonzero;stroke:#000;stroke-opacity:0.15;stroke-width:0.05px;"/>
                        <path d="M18.75,1.85L19.2,2.6C20.133,5.433 19.833,7.533 18.3,8.9M16.1,9.1C15.133,9.033 14.617,8.367 14.55,7.1L14.3,6.95L13.3,6.1C12.5,5.4 11.967,4.75 11.7,4.15C11.367,3.317 11.55,2.567 12.25,1.9" style="fill:none;fill-rule:nonzero;stroke:#000;stroke-opacity:0.3;stroke-width:0.05px;"/>
                        <path d="M18.3,8.9C17.433,9.467 16.7,9.533 16.1,9.1" style="fill:none;fill-rule:nonzero;stroke:#000;stroke-opacity:0.24;stroke-width:0.05px;"/>
                        <path d="M18.7,6.2L18.85,6.85L19.1,8.4L18.95,11.6C19.517,12.9 19.25,14.15 18.15,15.35L17.75,15.95C13.683,18.85 9.933,19.283 6.5,17.25L4.75,16C4.45,15.667 4.317,15.183 4.35,14.55L4.3,13.25C3.9,11.617 3.733,10.167 3.8,8.9L3.9,7.65C10.667,10.783 15.6,10.3 18.7,6.2" style="fill:#494952;"/>
                        <path d="M3.9,7.65C4,7.15 4.15,6.683 4.35,6.25C4.583,5.65 4.933,5.117 5.4,4.65L6.5,3.85C9.233,1.983 12.033,1.367 14.9,2C16.4,2.3 17.533,3.317 18.3,5.05L18.35,5.15L18.7,6.2C15.6,10.3 10.667,10.783 3.9,7.65" style="fill:#5e606f;"/>
                        <path d="M18.7,6.2L18.85,6.85L19.1,8.4L18.95,11.6C19.517,12.9 19.25,14.15 18.15,15.35L17.75,15.95C13.683,18.85 9.933,19.283 6.5,17.25L4.75,16C4.45,15.667 4.317,15.183 4.35,14.55L4.3,13.25C3.9,11.617 3.733,10.167 3.8,8.9L3.9,7.65" style="fill:none;fill-rule:nonzero;stroke:#000;stroke-opacity:0.3;stroke-width:0.05px;"/>
                        <path d="M3.9,7.65C4,7.15 4.15,6.683 4.35,6.25C4.583,5.65 4.933,5.117 5.4,4.65L6.5,3.85C9.233,1.983 12.033,1.367 14.9,2C16.4,2.3 17.533,3.317 18.3,5.05L18.35,5.15L18.7,6.2L3.9,7.65Z" style="fill:none;fill-rule:nonzero;stroke:#000;stroke-opacity:0.15;stroke-width:0.05px;"/>
                        <path d="M8.7,10.6L8.7,10.8C8.7,11.133 8.833,11.417 9.1,11.65C9.267,11.817 9.467,11.917 9.7,11.95L10,12L10.3,11.95L10.9,11.65L11.15,11.35L11.15,11.3L11.25,10.85L11.25,10.8C11.25,10.467 11.133,10.183 10.9,9.95C10.633,9.717 10.333,9.6 10,9.6C9.633,9.6 9.333,9.717 9.1,9.95L8.7,10.6L8.65,10.6C8.783,10.2 9.017,9.833 9.35,9.5C9.95,8.867 10.683,8.55 11.55,8.55C12.417,8.55 13.167,8.867 13.8,9.5C14.333,10.033 14.633,10.667 14.7,11.4L14.7,11.8L14.65,12.35C14.55,13.017 14.267,13.6 13.8,14.1C13.167,14.733 12.417,15.05 11.55,15.05C10.683,15.05 9.95,14.733 9.35,14.1C8.95,13.7 8.683,13.233 8.55,12.7L8.45,12.2L8.4,11.8C8.4,11.367 8.483,10.967 8.65,10.6L8.7,10.6" style="fill:#121218;"/>
                        <path d="M8.7,10.6L9.1,9.95C9.333,9.717 9.633,9.6 10,9.6C10.333,9.6 10.633,9.717 10.9,9.95C11.133,10.183 11.25,10.467 11.25,10.8L11.25,10.85L11.15,11.3L11.15,11.35L10.9,11.65L10.3,11.95L10,12L9.7,11.95C9.467,11.917 9.267,11.817 9.1,11.65C8.833,11.417 8.7,11.133 8.7,10.8L8.7,10.6" style="fill:#ded9d1;"/>
                        <path d="M8.65,10.6C8.483,10.967 8.4,11.367 8.4,11.8L8.45,12.2L8.55,12.7C8.683,13.233 8.95,13.7 9.35,14.1C9.95,14.733 10.683,15.05 11.55,15.05C12.417,15.05 13.167,14.733 13.8,14.1C14.267,13.6 14.55,13.017 14.65,12.35L14.7,11.8L14.7,11.4C14.633,10.667 14.333,10.033 13.8,9.5C13.167,8.867 12.417,8.55 11.55,8.55C10.683,8.55 9.95,8.867 9.35,9.5C9.017,9.833 8.783,10.2 8.65,10.6M14.2,9.15C14.8,9.783 15.15,10.517 15.25,11.35L15.3,11.85C15.3,12.883 14.933,13.767 14.2,14.5C13.5,15.267 12.633,15.65 11.6,15.65C10.6,15.65 9.733,15.267 9,14.5C8.3,13.767 7.95,12.883 7.95,11.85C7.95,11.317 8.033,10.833 8.2,10.4L9,9.15C9.733,8.417 10.6,8.05 11.6,8.05C12.633,8.05 13.5,8.417 14.2,9.15" style="fill:#379ec2;"/>
                        <path d="M8.7,10.6L8.65,10.6C8.483,10.967 8.4,11.367 8.4,11.8L8.45,12.2L8.55,12.7C8.683,13.233 8.95,13.7 9.35,14.1C9.95,14.733 10.683,15.05 11.55,15.05C12.417,15.05 13.167,14.733 13.8,14.1C14.267,13.6 14.55,13.017 14.65,12.35L14.7,11.8L14.7,11.4C14.633,10.667 14.333,10.033 13.8,9.5C13.167,8.867 12.417,8.55 11.55,8.55C10.683,8.55 9.95,8.867 9.35,9.5C9.017,9.833 8.783,10.2 8.65,10.6" style="fill:none;fill-rule:nonzero;stroke:#000;stroke-opacity:0.3;stroke-width:0.05px;"/>
                        <path d="M7.6,5.95L7.55,5.9L7.45,5.5C7.217,4.5 7.367,3.5 7.9,2.5L8.1,2.3L8.3,2.3C9.133,2.567 9.8,2.983 10.3,3.55L10.65,4.1L10.9,4.5L10.95,4.7L10.95,4.75L10.9,5.25L9.4,6.35L8.05,6.45L7.6,5.95" style="fill:#c7d0e3;"/>
                        <path d="M10.95,4.75L10.95,4.7L10.9,4.5L10.65,4.1L10.3,3.55C9.8,2.983 9.133,2.567 8.3,2.3L8.1,2.3L7.9,2.5C7.367,3.5 7.217,4.5 7.45,5.5L7.55,5.9L7.6,5.95" style="fill:none;fill-rule:nonzero;stroke:#000;stroke-opacity:0.3;stroke-width:0.05px;"/>
                        <path d="M0,10.25C0.333,9.517 0.717,8.867 1.15,8.3C4.75,7.433 6.533,7.917 6.5,9.75L6.2,11.15L6.15,11.45L5.4,12.8L4.9,12.8L3.9,12.2L2.7,11.25L1.7,10.55L0.8,10.45C0.633,10.85 0.683,11.35 0.95,11.95C1.983,14.75 3.717,15.483 6.15,14.15C5.95,14.95 5.367,15.433 4.4,15.6C2.467,15.567 1.033,14.1 0.1,11.2L0,10.25" style="fill:#494952;"/>
                        <path d="M6.15,14.15C3.717,15.483 1.983,14.75 0.95,11.95C0.683,11.35 0.633,10.85 0.8,10.45L1.7,10.55L2.7,11.25L3.9,12.2L4.9,12.8L5.4,12.8L6.15,11.45C6.817,12.55 6.817,13.45 6.15,14.15" style="fill:#787887;"/>
                        <path d="M6.5,9.75C6.533,7.917 4.75,7.433 1.15,8.3L1.65,7.7L2.25,7.15C2.983,6.517 3.85,6.033 4.85,5.7C5.717,5.7 6.267,6.167 6.5,7.1C6.667,7.733 6.667,8.617 6.5,9.75" style="fill:#5e606f;"/>
                        <path d="M1.15,8.3C0.717,8.867 0.333,9.517 0,10.25M1.15,8.3L1.65,7.7L2.25,7.15C2.983,6.517 3.85,6.033 4.85,5.7" style="fill:none;fill-rule:nonzero;stroke:#000;stroke-opacity:0.15;stroke-width:0.05px;"/>
                        <path d="M0,10.25L0.1,11.2C1.033,14.1 2.467,15.567 4.4,15.6M6.15,11.45L6.2,11.15L6.5,9.75C6.667,8.617 6.667,7.733 6.5,7.1C6.267,6.167 5.717,5.7 4.85,5.7M6.15,14.15C6.817,13.45 6.817,12.55 6.15,11.45" style="fill:none;fill-rule:nonzero;stroke:#000;stroke-opacity:0.3;stroke-width:0.05px;"/>
                        <path d="M4.4,15.6C5.367,15.433 5.95,14.95 6.15,14.15" style="fill:none;fill-rule:nonzero;stroke:#000;stroke-opacity:0.24;stroke-width:0.05px;"/>
                        <path d="M9.3,15.95C9.967,16.65 10.75,17.217 11.65,17.65L13.5,15.85C13.933,16.217 14.483,16.533 15.15,16.8L16.55,14.35L17.75,14.75L18.2,13.05" style="fill:none;fill-rule:nonzero;stroke:#000;stroke-opacity:0.3;stroke-width:0.5px;"/>
                        <path d="M10.3,18.15C10.967,17.883 11.717,17.883 12.55,18.15C12.817,18.417 12.917,18.667 12.85,18.9C12.65,19.833 12.183,20.517 11.45,20.95L11.3,21L11.2,20.95C10.7,20.35 10.35,19.7 10.15,19C10.05,18.733 10.1,18.45 10.3,18.15" style="fill:#7f8291;"/>
                        <path d="M11.3,21L11.2,20.95C10.7,20.35 10.35,19.7 10.15,19C10.05,18.733 10.1,18.45 10.3,18.15" style="fill:none;fill-rule:nonzero;stroke:#000;stroke-opacity:0.24;stroke-width:0.05px;"/>
                        <path d="M18.65,8.75L18.2,6.85C17.9,6.217 17.55,5.9 17.15,5.9C16.717,5.9 16.35,6.217 16.05,6.85L15.75,7.9L15.6,9.15L15.65,9.5L15.7,10.25L16.05,11.45C16.35,12.083 16.717,12.4 17.15,12.4C17.55,12.4 17.9,12.083 18.2,11.45L18.65,9.55L18.65,8.75M18.9,9.15C18.9,10.217 18.733,11.117 18.4,11.85C18.067,12.583 17.65,12.95 17.15,12.95C16.683,12.95 16.267,12.583 15.9,11.85C15.567,11.117 15.4,10.217 15.4,9.15C15.4,8.65 15.45,8.167 15.55,7.7L15.9,6.5C16.267,5.767 16.683,5.4 17.15,5.4C17.65,5.4 18.067,5.767 18.4,6.5C18.7,7.1 18.867,7.817 18.9,8.65L18.9,9.15" style="fill:#379ec2;"/>
                        <path d="M18.65,8.75L18.65,9.55L18.2,11.45C17.9,12.083 17.55,12.4 17.15,12.4C16.717,12.4 16.35,12.083 16.05,11.45L15.7,10.25L15.65,9.5L15.6,9.15L15.75,7.9L16.05,6.85C16.35,6.217 16.717,5.9 17.15,5.9C17.55,5.9 17.9,6.217 18.2,6.85L18.65,8.75M15.75,7.95L15.75,8.15L15.95,9L16.25,9.3L16.35,9.35L16.5,9.3L16.8,9L16.95,8.7L16.95,8.65L17,8.2L17,8.15L16.8,7.3L16.35,6.95C16.183,6.95 16.05,7.067 15.95,7.3L15.75,7.95L15.75,7.9L15.75,7.95" style="fill:#121218;"/>
                        <path d="M15.75,7.95L15.95,7.3C16.05,7.067 16.183,6.95 16.35,6.95L16.8,7.3L17,8.15L17,8.2L16.95,8.65L16.95,8.7L16.8,9L16.5,9.3L16.35,9.35L16.25,9.3L15.95,9L15.75,8.15L15.75,7.95" style="fill:#ded9d1;"/>
                        <path d="M18.65,8.75L18.65,9.55L18.2,11.45C17.9,12.083 17.55,12.4 17.15,12.4C16.717,12.4 16.35,12.083 16.05,11.45L15.7,10.25L15.65,9.5L15.6,9.15L15.75,7.9L16.05,6.85C16.35,6.217 16.717,5.9 17.15,5.9C17.55,5.9 17.9,6.217 18.2,6.85L18.65,8.75M15.75,7.95L15.75,7.9" style="fill:none;fill-rule:nonzero;stroke:#000;stroke-opacity:0.3;stroke-width:0.05px;"/>
                        <path d="M18.65,14.55C18.95,14.517 19.167,14.6 19.3,14.8L19.8,15.7C19.967,16.1 20.017,16.517 19.95,16.95L19.95,17L19.85,17.1C19.183,17.067 18.567,16.917 18,16.65L17.95,16.6L17.5,16.05C17.667,15.45 18.05,14.95 18.65,14.55" style="fill:#7f8291;"/>
                        <path d="M18.65,14.55C18.95,14.517 19.167,14.6 19.3,14.8L19.8,15.7C19.967,16.1 20.017,16.517 19.95,16.95L19.95,17" style="fill:none;fill-rule:nonzero;stroke:#000;stroke-opacity:0.24;stroke-width:0.05px;"/>
                        <path d="M17,3.45L16.85,3.6L15.7,3.95C15.167,3.95 14.667,3.783 14.2,3.45C14.1,3.317 14.05,3.117 14.05,2.85L14.05,2.75L14.15,2.3L14.35,1.8C14.65,1.133 15.1,0.567 15.7,0.1L15.85,0L16.05,0.15C16.75,0.85 17.1,1.683 17.1,2.65L17.1,3.05L17,3.45" style="fill:#c7d0e3;"/>
                        <path d="M14.05,2.85L14.05,2.75L14.15,2.3L14.35,1.8C14.65,1.133 15.1,0.567 15.7,0.1L15.85,0L16.05,0.15C16.75,0.85 17.1,1.683 17.1,2.65L17.1,3.05L17,3.45" style="fill:none;fill-rule:nonzero;stroke:#000;stroke-opacity:0.3;stroke-width:0.05px;"/>
                    </g>
                </g>
            </g>
        </g>
    </g>
</svg>
