<?xml version="1.0" encoding="UTF-8" standalone="no"?>
<!DOCTYPE svg PUBLIC "-//W3C//DTD SVG 1.1//EN" "http://www.w3.org/Graphics/SVG/1.1/DTD/svg11.dtd">
<svg width="100%" height="100%" viewBox="0 0 23 22" version="1.1" xmlns="http://www.w3.org/2000/svg" xmlns:xlink="http://www.w3.org/1999/xlink" xml:space="preserve" xmlns:serif="http://www.serif.com/" style="fill-rule:evenodd;clip-rule:evenodd;stroke-linecap:round;stroke-linejoin:round;">
    <g transform="matrix(1,0,0,1,-10.0901,-7.475)">
        <g transform="matrix(1,0,0,1,21.3,18.05)">
            <g id="sprite0">
                <g id="shape0">
                    <path d="M-5,-4.05L-5.4,-3.45L-5.25,-3.75L-5.1,-3.95L-5,-4.05L-4.9,-4.1L-4.5,-4.5L-4.35,-4.6L-4.35,-4.65L-4.3,-4.85C-4.233,-5.617 -3.633,-6.283 -2.5,-6.85C-1.3,-7.45 0.167,-7.75 1.9,-7.75L4.3,-7.5L4.3,-8.85L6.85,-10.15L7.05,-9.65L7.6,-8.6L8.55,-9.3L8.8,-8.7L9.55,-7.45L10.6,-8L11.15,-5.75L10.2,-5.8L9.95,-6.5L9.55,-6.35L9.25,-3.45L8.7,-2.8L8.1,-3.05L8.1,-2.6L8,-2.4L7.5,-1.7L7.5,-0.05L7.6,0.2L7.7,0.85L7.75,1.15L8.25,1.55C8.617,1.883 8.8,2.283 8.8,2.75L8.7,3.15L8.65,3.4L8.25,4L7.5,4.5L7.5,5.2L7.05,5.55C6.817,5.583 6.6,5.267 6.4,4.6L5.2,5.55L4.85,5.75L4.7,6.15L4.65,6.3L4.65,6.4C4.55,7.367 4.183,8.233 3.55,9L2.85,9.05L2.65,9.25L1.7,8.65L1.7,8.55L0.85,9.9C0.183,10.633 -0.267,9.783 -0.5,7.35L-0.55,7.6L-0.65,7.85L-1.05,8.45L-1.8,8.95L-1.8,9.7C-1.967,9.933 -2.117,10.05 -2.25,10.05C-2.483,10.117 -2.7,10 -2.9,9.7L-2.9,8.9L-3.55,8.45L-3.95,7.85L-4.05,7.6L-4.05,7.2C-4.05,6.733 -3.883,6.317 -3.55,5.95L-2.9,5.55L-2.9,3.75L-3.15,2L-4.9,1.2L-4.7,-0.55L-4.85,-0.7C-5.25,-1.133 -5.483,-1.65 -5.55,-2.25L-5.55,-2.95L-5.5,-3.4L-5.5,-3.2L-5.55,-2.5M-4.35,-4.6L-4.35,-4.5L-4.3,-4.85M-1.8,8.95L-2.25,9L-2.3,9L-2.9,8.9" style="fill:none;fill-rule:nonzero;stroke:#260900;stroke-width:0.85px;"/>
                </g>
                <g id="sprite1" transform="matrix(0.7,0,0,0.7,1.9501,9.3501)">
                    <g id="sprite2" transform="matrix(-1,0,0,1,5.75,-17.55)">
                        <g id="shape1">
                            <path d="M-1.6,12.15L-2.25,11.65L-2.25,8.45L-1.6,8.45L-1.6,12.15" style="fill:#224982;"/>
                            <path d="M-1.6,8.45L-0.65,8.45L-0.65,11.65C-0.95,12.05 -1.267,12.217 -1.6,12.15L-1.6,8.45" style="fill:#3173c5;"/>
                            <path d="M-0.65,8.45L-0.65,11.65C-0.95,12.05 -1.267,12.217 -1.6,12.15L-2.25,11.65L-2.25,8.45" style="fill:none;fill-rule:nonzero;stroke:#000;stroke-opacity:0.3;stroke-width:0.05px;"/>
                            <path d="M1,8.75C-0.667,10.117 -2.317,10.117 -3.95,8.75L-4.05,8.15C-4.05,7.483 -3.8,6.9 -3.3,6.4C-2.8,5.9 -2.2,5.65 -1.5,5.65C-0.8,5.65 -0.2,5.9 0.3,6.4C0.8,6.9 1.05,7.483 1.05,8.15L1,8.75" style="fill:#2b2b1a;"/>
                            <path d="M1,8.75L0.9,9.1L0.3,9.95C-0.2,10.45 -0.8,10.7 -1.5,10.7C-2.2,10.7 -2.8,10.45 -3.3,9.95L-3.85,9.1L-3.95,8.75C-2.317,10.117 -0.667,10.117 1,8.75" style="fill:#17170c;"/>
                            <path d="M-3.95,8.75L-3.85,9.1L-3.3,9.95C-2.8,10.45 -2.2,10.7 -1.5,10.7C-0.8,10.7 -0.2,10.45 0.3,9.95L0.9,9.1L1,8.75L1.05,8.15C1.05,7.483 0.8,6.9 0.3,6.4C-0.2,5.9 -0.8,5.65 -1.5,5.65C-2.2,5.65 -2.8,5.9 -3.3,6.4C-3.8,6.9 -4.05,7.483 -4.05,8.15L-3.95,8.75Z" style="fill:none;fill-rule:nonzero;stroke:#000;stroke-opacity:0.3;stroke-width:0.05px;"/>
                            <path d="M-1.6,7.2L-2.25,6.6L-2.25,-2.3L-0.65,-2.3L-0.65,2.95L-1.6,3.6L-1.6,7.2" style="fill:#224982;"/>
                            <path d="M-1.6,7.2L-1.6,3.6L-0.65,2.95L-0.65,6.6C-0.983,7.1 -1.3,7.3 -1.6,7.2" style="fill:#3173c5;"/>
                            <path d="M-0.65,6.6L-0.65,-2.3L-2.25,-2.3L-2.25,6.6L-1.6,7.2C-1.3,7.3 -0.983,7.1 -0.65,6.6Z" style="fill:none;fill-rule:nonzero;stroke:#000;stroke-opacity:0.3;stroke-width:0.05px;"/>
                            <path d="M2.35,-7.15L-4,-4.65L-6.85,-6.35L-6.65,-7.2L-5.15,-6.4L-3.9,-5.8L-3.45,-5.65L-2.05,-6.3L-4.1,-8.25L-3.7,-9.05L-2.35,-8.1L-1.1,-7.2L-0.7,-6.9L-0.65,-6.9L0.65,-7.5L-1.6,-9.6L-1.3,-10.3L2.35,-8.4L2.35,-7.15" style="fill:#3173c5;"/>
                            <path d="M2.35,-7.15L2.35,-2.7L-3.9,0.2L-4,-4.65L2.35,-7.15" style="fill:#2e64b0;"/>
                            <path d="M-4,-4.65L-3.9,0.2L-4.75,-0.75L-5.15,-4.85L-5.75,-5.1L-6.1,-4.05L-7.45,-4L-6.85,-6.35L-4,-4.65M-5.15,-6.4L-4.1,-8.25L-2.05,-6.3L-3.45,-7.1L-3.9,-5.8L-5.15,-6.4M-2.35,-8.1L-1.6,-9.6L0.65,-7.5L-0.7,-8.35L-1.1,-7.2L-2.35,-8.1" style="fill:#224982;"/>
                            <path d="M-3.9,0.2L2.35,-2.7L2.35,-8.4L-1.3,-10.3L-1.6,-9.6L-2.35,-8.1L-3.7,-9.05L-4.1,-8.25L-5.15,-6.4L-6.65,-7.2L-6.85,-6.35L-7.45,-4L-6.1,-4.05L-5.75,-5.1L-5.15,-4.85L-4.75,-0.75L-3.9,0.2M0.65,-7.5L-0.7,-8.35L-1.1,-7.2L-0.7,-6.9L-0.65,-6.9L0.65,-7.5M-1.1,-7.2L-2.35,-8.1M-2.05,-6.3L-3.45,-7.1L-3.9,-5.8L-3.45,-5.65L-2.05,-6.3M-3.9,-5.8L-5.15,-6.4" style="fill:none;fill-rule:nonzero;stroke:#000;stroke-opacity:0.3;stroke-width:0.05px;"/>
                        </g>
                    </g>
                    <g id="sprite4" transform="matrix(-1.1364,0,0,1.1364,-1.60004,-1.39986)">
                        <g id="shape2">
                            <path d="M1.6,-1.25C1.367,1.817 0.833,2.883 0,1.95C-0.8,0.983 -1.333,-0.083 -1.6,-1.25C-0.4,-2.383 0.667,-2.383 1.6,-1.25" style="fill:#2b2b1a;"/>
                        </g>
                    </g>
                    <g id="sprite41" serif:id="sprite4" transform="matrix(-1.1364,0,0,1.1364,2.29996,-2.74986)">
                        <g id="shape21" serif:id="shape2">
                            <path d="M1.6,-1.25C1.367,1.817 0.833,2.883 0,1.95C-0.8,0.983 -1.333,-0.083 -1.6,-1.25C-0.4,-2.383 0.667,-2.383 1.6,-1.25" style="fill:#2b2b1a;"/>
                        </g>
                    </g>
                    <g id="sprite5" transform="matrix(-1,0,0,1,0.05,-6.1)">
                        <g id="shape3">
                            <path d="M2.8,-4.1L3.45,-3.25C3.717,-2.883 3.9,-2.167 4,-1.1L4,0.85L3.95,1.1L3.95,1.3L3.9,1.55L3.85,1.7L3.15,3.2C2.817,3.6 2.05,3.95 0.85,4.25L0.8,4.2L-0.55,4.1C-1.917,3.6 -2.767,3.15 -3.1,2.75L-3.8,1.7L-3.85,1.5L-4.05,0.35L-4.05,-3.4C-4.05,-4.167 -3.933,-4.6 -3.7,-4.7L-3.65,-4.7L-2.55,-5.45L-2.5,-5.45L-1.25,-5.85L-1.05,-5.9L-0.25,-5.85L-0.05,-5.75C0.95,-5.517 1.9,-4.967 2.8,-4.1" style="fill:#17170c;"/>
                            <path d="M2.8,-4.1C1.9,-4.967 0.95,-5.517 -0.05,-5.75L-0.25,-5.85L-1.05,-5.9L-1.25,-5.85L-2.5,-5.45L-2.55,-5.45L-3.65,-4.7L-3.7,-4.7C-3.933,-4.6 -4.05,-4.167 -4.05,-3.4L-4.05,0.35L-3.85,1.5L-3.8,1.7L-3.1,2.75C-2.767,3.15 -1.917,3.6 -0.55,4.1L0.8,4.2L0.85,4.25C2.05,3.95 2.817,3.6 3.15,3.2L3.85,1.7L3.9,1.55L3.95,1.3L3.95,1.1L4,0.85L4,-1.1C3.9,-2.167 3.717,-2.883 3.45,-3.25L2.8,-4.1Z" style="fill:none;fill-rule:nonzero;stroke:#000;stroke-opacity:0.3;stroke-width:0.05px;"/>
                            <path d="M0.4,5.05L-0.95,5.9L-2.65,3.95L-2.65,1.9C-1.883,2.433 -0.867,2.883 0.4,3.25L0.4,5.05" style="fill:#a77d25;"/>
                            <path d="M0.4,5.05L-0.95,5.9L-2.65,3.95L-2.65,1.9C-1.883,2.433 -0.867,2.883 0.4,3.25L0.4,5.05Z" style="fill:none;fill-rule:nonzero;stroke:#000;stroke-opacity:0.2;stroke-width:0.5px;"/>
                        </g>
                    </g>
                    <g id="sprite6" transform="matrix(-1,0,0,1,-4.15,-5.35)">
                        <g id="shape4">
                            <path d="M8.95,-5.7L8.6,-7.1L10.7,-6.4L13.65,-7.45L12.75,-5L14.65,-3.4L11.7,-3.35L10.25,-1.95C10.25,-2.85 10.05,-3.633 9.65,-4.3L6.95,-5.1L8.95,-5.7" style="fill:#17170c;"/>
                            <path d="M10,-4.05L9.75,-3.9C6.217,-2.1 2.75,-0.7 -0.65,0.3L-1.1,-0.75C2.8,-1.65 6.417,-2.917 9.75,-4.55L10.05,-4.05L10,-4.05" style="fill:#17170c;"/>
                        </g>
                    </g>
                    <g id="sprite7" transform="matrix(-1,0,0,1,0.2,-14.1)">
                        <g id="shape5">
                            <path d="M10.95,-2.5L10.05,-3.45C8.683,-4.617 6.783,-5.35 4.35,-5.65L-1.3,-5.35L-3.55,-7L-2.7,-7.4C-0.733,-8.1 1.417,-8.283 3.75,-7.95C6.15,-7.617 8.05,-6.883 9.45,-5.75L10.7,-4.25L10.7,-4.2L10.8,-4.1L10.95,-2.5" style="fill:#a77d25;"/>
                            <path d="M10.95,-2.5L10.05,-3.45C8.683,-4.617 6.783,-5.35 4.35,-5.65L-1.3,-5.35L-3.55,-7L-2.7,-7.4C-0.733,-8.1 1.417,-8.283 3.75,-7.95C6.15,-7.617 8.05,-6.883 9.45,-5.75L10.7,-4.25L10.8,-4.1L10.7,-4.2L10.7,-4.25" style="fill:none;fill-rule:nonzero;stroke:#000;stroke-opacity:0.3;stroke-width:0.05px;"/>
                            <path d="M-6.55,-6.55C-6.317,-7.183 -5.683,-7.733 -4.65,-8.2C-3.25,-8.833 -1.567,-9.15 0.4,-9.15C2.367,-9.15 4.033,-8.833 5.4,-8.2C6.433,-7.733 7.083,-7.183 7.35,-6.55L7.5,-5.95L7.4,-5.4L7.35,-5.2L6.7,-4.45L5.2,-5.4C4,-5.967 2.567,-6.267 0.9,-6.3L0.2,-6.35C-1.767,-6.35 -3.45,-6.033 -4.85,-5.4L-6.1,-4.6L-6.55,-5.2L-6.65,-5.4L-6.7,-5.95L-6.55,-6.55M3.4,2.3C4.567,2.067 5.633,1.7 6.6,1.2L7.85,0.5L7.9,0.5L7.05,6.6C6.917,7.4 6.25,8.083 5.05,8.65C4.017,9.183 2.783,9.517 1.35,9.65L3.75,5.5L3.4,2.3" style="fill:#a77d25;"/>
                            <path d="M7.35,-6.55C7.083,-7.183 6.433,-7.733 5.4,-8.2C4.033,-8.833 2.367,-9.15 0.4,-9.15C-1.567,-9.15 -3.25,-8.833 -4.65,-8.2C-5.683,-7.733 -6.317,-7.183 -6.55,-6.55L-6.7,-5.95L-6.65,-5.4L-6.55,-5.2L-6.1,-4.6L-5.6,-4.2L-4.65,-3.65L-3.7,-3.25L-2.3,-2.9L0.4,-2.7C2.367,-2.7 4.033,-3.017 5.4,-3.65L6.7,-4.45L7.35,-5.2L7.4,-5.4L7.5,-5.95L7.35,-6.55M9.25,-5.7L9.15,-5.15L9.05,-4.9C8.75,-4.267 8.183,-3.683 7.35,-3.15L6.6,-2.75C4.867,-1.85 2.767,-1.4 0.3,-1.4C-2.167,-1.4 -4.283,-1.85 -6.05,-2.75L-6.9,-3.25C-7.667,-3.75 -8.183,-4.3 -8.45,-4.9L-8.55,-5.15L-8.65,-5.7L-8.65,-5.95C-8.617,-7.15 -7.75,-8.183 -6.05,-9.05C-4.283,-9.917 -2.167,-10.35 0.3,-10.35C2.767,-10.35 4.867,-9.917 6.6,-9.05C8.333,-8.183 9.217,-7.15 9.25,-5.95L9.25,-5.7" style="fill:#fd5;"/>
                            <path d="M-6.1,-4.6L-4.85,-5.4C-3.45,-6.033 -1.767,-6.35 0.2,-6.35L0.9,-6.3C1.633,-4.533 0.567,-3.4 -2.3,-2.9L-3.7,-3.25L-1.65,-5.1L-3.6,-5.1L-5.6,-4.2L-6.1,-4.6" style="fill:#a9eaf7;"/>
                            <path d="M-8.65,-5.7L-8.55,-5.15L-8.45,-4.9C-8.183,-4.3 -7.667,-3.75 -6.9,-3.25L-6.05,-2.75C-4.283,-1.85 -2.167,-1.4 0.3,-1.4C2.767,-1.4 4.867,-1.85 6.6,-2.75L7.35,-3.15C8.183,-3.683 8.75,-4.267 9.05,-4.9L9.15,-5.15L9.25,-5.7L9.15,-3L9.05,-2.75L8.15,-1.6C7.75,-1.233 7.233,-0.9 6.6,-0.6C4.867,0.3 2.767,0.75 0.3,0.75C-2.167,0.75 -4.283,0.3 -6.05,-0.6L-7.4,-1.45C-7.9,-1.85 -8.25,-2.283 -8.45,-2.75L-8.55,-3L-8.65,-5.7M-7.15,0.55L-7.1,0.6L-6.05,1.2C-4.283,2.1 -2.167,2.55 0.3,2.55L3.4,2.3L3.75,5.5L1.35,9.65L0.3,9.65C-1.533,9.65 -3.117,9.317 -4.45,8.65C-5.617,8.083 -6.25,7.4 -6.35,6.6L-7.15,0.55" style="fill:#dbae32;"/>
                            <path d="M0.9,-6.3C2.567,-6.267 4,-5.967 5.2,-5.4L6.7,-4.45L5.4,-3.65C4.033,-3.017 2.367,-2.7 0.4,-2.7L-2.3,-2.9C0.567,-3.4 1.633,-4.533 0.9,-6.3" style="fill:#4e819b;"/>
                            <path d="M-7.4,-1.45L-6.05,-0.6C-4.283,0.3 -2.167,0.75 0.3,0.75C2.767,0.75 4.867,0.3 6.6,-0.6C7.233,-0.9 7.75,-1.233 8.15,-1.6L7.95,0.2L7.9,0.5L7.85,0.5L6.6,1.2C5.633,1.7 4.567,2.067 3.4,2.3L0.3,2.55C-2.167,2.55 -4.283,2.1 -6.05,1.2L-7.1,0.6L-7.15,0.55L-7.15,0.35L-7.4,-1.45" style="fill:#966d21;"/>
                            <path d="M-5.6,-4.2L-3.6,-5.1L-1.65,-5.1L-3.7,-3.25L-4.65,-3.65L-5.6,-4.2" style="fill:#ebffff;"/>
                            <path d="M-6.55,-6.55L-6.7,-5.95L-6.65,-5.4L-6.55,-5.2L-6.1,-4.6L-5.6,-4.2L-4.65,-3.65L-3.7,-3.25L-2.3,-2.9L0.4,-2.7C2.367,-2.7 4.033,-3.017 5.4,-3.65L6.7,-4.45L7.35,-5.2L7.4,-5.4L7.5,-5.95L7.35,-6.55M9.25,-5.7L9.25,-5.95C9.217,-7.15 8.333,-8.183 6.6,-9.05C4.867,-9.917 2.767,-10.35 0.3,-10.35C-2.167,-10.35 -4.283,-9.917 -6.05,-9.05C-7.75,-8.183 -8.617,-7.15 -8.65,-5.95L-8.65,-5.7L-8.55,-3L-8.45,-2.75C-8.25,-2.283 -7.9,-1.85 -7.4,-1.45L-6.05,-0.6C-4.283,0.3 -2.167,0.75 0.3,0.75C2.767,0.75 4.867,0.3 6.6,-0.6C7.233,-0.9 7.75,-1.233 8.15,-1.6L9.05,-2.75L9.15,-3L9.25,-5.7M7.95,0.2L8.15,-1.6M1.35,9.65C2.783,9.517 4.017,9.183 5.05,8.65C6.25,8.083 6.917,7.4 7.05,6.6L7.9,0.5M-7.15,0.55L-6.35,6.6C-6.25,7.4 -5.617,8.083 -4.45,8.65C-3.117,9.317 -1.533,9.65 0.3,9.65L1.35,9.65M-7.15,0.35L-7.4,-1.45" style="fill:none;fill-rule:nonzero;stroke:#000;stroke-opacity:0.3;stroke-width:0.05px;"/>
                            <path d="M0.9,3.15L1,3.95L0.95,4.65L0.1,6C-0.467,6.6 -1.15,6.9 -1.95,6.9C-2.75,6.9 -3.45,6.6 -4.05,6L-4.35,5.7L-4.45,4.85L-4.35,4.15C-4.25,3.65 -4,3.183 -3.6,2.75C-3,2.183 -2.3,1.9 -1.5,1.9C-0.7,1.9 -0.017,2.183 0.55,2.75L0.9,3.15" style="fill:#fff;"/>
                            <path d="M0.9,3.15L1.4,4.15L1.45,4.85C1.45,5.65 1.15,6.333 0.55,6.9C-0.017,7.5 -0.7,7.8 -1.5,7.8C-2.3,7.8 -3,7.5 -3.6,6.9L-4.35,5.7L-4.05,6C-3.45,6.6 -2.75,6.9 -1.95,6.9C-1.15,6.9 -0.467,6.6 0.1,6L0.95,4.65L1,3.95L0.9,3.15" style="fill:#c2b7bb;"/>
                            <path d="M-4.35,5.7L-3.6,6.9C-3,7.5 -2.3,7.8 -1.5,7.8C-0.7,7.8 -0.017,7.5 0.55,6.9C1.15,6.333 1.45,5.65 1.45,4.85L1.4,4.15L0.9,3.15L0.55,2.75C-0.017,2.183 -0.7,1.9 -1.5,1.9C-2.3,1.9 -3,2.183 -3.6,2.75C-4,3.183 -4.25,3.65 -4.35,4.15L-4.45,4.85L-4.35,5.7Z" style="fill:none;fill-rule:nonzero;stroke:#000;stroke-opacity:0.3;stroke-width:0.05px;"/>
                            <path d="M-2.25,5.15C-2.25,5.45 -2.333,5.683 -2.5,5.85C-2.633,6.05 -2.817,6.15 -3.05,6.15C-3.283,6.15 -3.483,6.05 -3.65,5.85L-3.8,5.15L-3.65,4.45C-3.483,4.283 -3.283,4.2 -3.05,4.2C-2.817,4.2 -2.633,4.283 -2.5,4.45L-2.25,5.15" style="fill:#2ebffe;"/>
                            <path d="M-2.25,5.15L-2.5,4.45C-2.633,4.283 -2.817,4.2 -3.05,4.2C-3.283,4.2 -3.483,4.283 -3.65,4.45L-3.8,5.15L-3.65,5.85C-3.483,6.05 -3.283,6.15 -3.05,6.15C-2.817,6.15 -2.633,6.05 -2.5,5.85C-2.333,5.683 -2.25,5.45 -2.25,5.15Z" style="fill:none;fill-rule:nonzero;stroke:#000;stroke-opacity:0.2;stroke-width:0.5px;"/>
                            <path d="M-7.85,1L-7.75,0.65C-7.517,0.117 -7.2,-0.1 -6.8,0C-6.433,0.067 -6.083,0.4 -5.75,1L-5.25,2.5L-5.15,3.25L-5.15,4.1L-5.25,4.35C-5.483,4.917 -5.783,5.15 -6.15,5.05C-6.55,4.983 -6.917,4.633 -7.25,4L-7.75,2.55L-7.85,1.8L-7.85,1" style="fill:#fff;"/>
                            <path d="M-5.15,4.1L-5.35,5.2C-5.617,5.767 -5.933,6.017 -6.3,5.95C-6.7,5.85 -7.05,5.483 -7.35,4.85C-7.717,4.217 -7.933,3.5 -8,2.7L-8,1.95L-7.85,1L-7.85,1.8L-7.75,2.55L-7.25,4C-6.917,4.633 -6.55,4.983 -6.15,5.05C-5.783,5.15 -5.483,4.917 -5.25,4.35L-5.15,4.1" style="fill:#c2b7bb;"/>
                            <path d="M-7.85,1L-7.75,0.65C-7.517,0.117 -7.2,-0.1 -6.8,0C-6.433,0.067 -6.083,0.4 -5.75,1L-5.25,2.5L-5.15,3.25L-5.15,4.1L-5.35,5.2C-5.617,5.767 -5.933,6.017 -6.3,5.95C-6.7,5.85 -7.05,5.483 -7.35,4.85C-7.717,4.217 -7.933,3.5 -8,2.7L-8,1.95L-7.85,1Z" style="fill:none;fill-rule:nonzero;stroke:#000;stroke-opacity:0.3;stroke-width:0.05px;"/>
                            <path d="M-6.65,3.5L-6.5,2.85C-6.433,2.65 -6.317,2.583 -6.15,2.65L-5.85,3.05L-5.75,3.75L-5.85,4.45C-5.983,4.617 -6.1,4.683 -6.2,4.65L-6.5,4.25L-6.65,3.5" style="fill:#2ebffe;"/>
                            <path d="M-6.65,3.5L-6.5,2.85C-6.433,2.65 -6.317,2.583 -6.15,2.65L-5.85,3.05L-5.75,3.75L-5.85,4.45C-5.983,4.617 -6.1,4.683 -6.2,4.65L-6.5,4.25L-6.65,3.5Z" style="fill:none;fill-rule:nonzero;stroke:#000;stroke-opacity:0.2;stroke-width:0.5px;"/>
                            <path d="M10.1,-2.3L10.2,-2.3L10.45,-2.55C10.783,-3.017 10.917,-3.55 10.85,-4.15C11.15,-2.517 10.85,-1.233 9.95,-0.3L9.65,0C8.717,1 7.217,1.4 5.15,1.2L3.5,-0.45L5.45,-1.15L5.65,-1.15C7.683,-0.883 9.167,-1.267 10.1,-2.3" style="fill:#dbae32;"/>
                            <path d="M10.1,-2.3C9.167,-1.267 7.683,-0.883 5.65,-1.15L5.45,-1.15L3.5,-0.45L5.15,1.2C7.217,1.4 8.717,1 9.65,0L9.95,-0.3C10.85,-1.233 11.15,-2.517 10.85,-4.15C10.917,-3.55 10.783,-3.017 10.45,-2.55L10.2,-2.3L10.1,-2.3Z" style="fill:none;fill-rule:nonzero;stroke:#000;stroke-opacity:0.3;stroke-width:0.05px;"/>
                        </g>
                    </g>
                    <g id="sprite8" transform="matrix(-1,0,0,1,-6,-0.45)">
                        <g id="shape6">
                            <path d="M0,-2.25L0.95,-2.25L0.95,0.95C0.65,1.35 0.333,1.517 0,1.45L0,-2.25" style="fill:#3173c5;"/>
                            <path d="M0,1.45L-0.65,0.95L-0.65,-2.25L0,-2.25L0,1.45" style="fill:#224982;"/>
                            <path d="M0.95,-2.25L0.95,0.95C0.65,1.35 0.333,1.517 0,1.45L-0.65,0.95L-0.65,-2.25" style="fill:none;fill-rule:nonzero;stroke:#000;stroke-opacity:0.3;stroke-width:0.05px;"/>
                            <path d="M-2.4,-2.05C-0.767,-0.683 0.883,-0.683 2.55,-2.05L2.45,-1.7L1.85,-0.85C1.35,-0.35 0.75,-0.1 0.05,-0.1C-0.65,-0.1 -1.25,-0.35 -1.75,-0.85L-2.3,-1.7L-2.4,-2.05" style="fill:#17170c;"/>
                            <path d="M-2.4,-2.05L-2.5,-2.65C-2.5,-3.317 -2.25,-3.9 -1.75,-4.4C-1.25,-4.9 -0.65,-5.15 0.05,-5.15C0.75,-5.15 1.35,-4.9 1.85,-4.4C2.35,-3.9 2.6,-3.317 2.6,-2.65L2.55,-2.05C0.883,-0.683 -0.767,-0.683 -2.4,-2.05" style="fill:#2b2b1a;"/>
                            <path d="M2.55,-2.05L2.6,-2.65C2.6,-3.317 2.35,-3.9 1.85,-4.4C1.35,-4.9 0.75,-5.15 0.05,-5.15C-0.65,-5.15 -1.25,-4.9 -1.75,-4.4C-2.25,-3.9 -2.5,-3.317 -2.5,-2.65L-2.4,-2.05L-2.3,-1.7L-1.75,-0.85C-1.25,-0.35 -0.65,-0.1 0.05,-0.1C0.75,-0.1 1.35,-0.35 1.85,-0.85L2.45,-1.7L2.55,-2.05Z" style="fill:none;fill-rule:nonzero;stroke:#000;stroke-opacity:0.3;stroke-width:0.05px;"/>
                            <path d="M0.95,-7.75L0,-7.1L0,-3.5L-0.65,-4.1L-0.65,-10.4L0.95,-10.4L0.95,-7.75" style="fill:#224982;"/>
                            <path d="M0,-3.5L0,-7.1L0.95,-7.75L0.95,-4.1C0.617,-3.6 0.3,-3.4 0,-3.5" style="fill:#3173c5;"/>
                            <path d="M0,-3.5C0.3,-3.4 0.617,-3.6 0.95,-4.1L0.95,-10.4L-0.65,-10.4L-0.65,-4.1L0,-3.5Z" style="fill:none;fill-rule:nonzero;stroke:#000;stroke-opacity:0.3;stroke-width:0.05px;"/>
                            <path d="M2.95,-19.85L3.8,-11.2L2.95,-12.15L2.95,-19.85M-2.45,-8.3L-3.3,-9.25L-3.3,-16.95L-2.55,-9.55L-2.45,-8.3" style="fill:#224980;"/>
                            <path d="M2.95,-12.15L3.8,-11.2L-2.45,-8.3L-2.55,-9.55L2.95,-12.15" style="fill:#2e64b0;"/>
                            <path d="M2.95,-19.85L2.95,-12.15L-2.55,-9.55L-3.3,-16.95L2.95,-19.85" style="fill:#3173c5;"/>
                            <path d="M3.8,-11.2L2.95,-19.85L-3.3,-16.95L-3.3,-9.25L-2.45,-8.3L-2.55,-9.55L-3.3,-16.95M3.8,-11.2L-2.45,-8.3" style="fill:none;fill-rule:nonzero;stroke:#000;stroke-opacity:0.3;stroke-width:0.05px;"/>
                        </g>
                    </g>
                </g>
            </g>
        </g>
    </g>
</svg>
