<?xml version="1.0" encoding="UTF-8" standalone="no"?>
<!DOCTYPE svg PUBLIC "-//W3C//DTD SVG 1.1//EN" "http://www.w3.org/Graphics/SVG/1.1/DTD/svg11.dtd">
<svg width="100%" height="100%" viewBox="0 0 36 39" version="1.1" xmlns="http://www.w3.org/2000/svg" xmlns:xlink="http://www.w3.org/1999/xlink" xml:space="preserve" xmlns:serif="http://www.serif.com/" style="fill-rule:evenodd;clip-rule:evenodd;stroke-linecap:round;stroke-linejoin:round;">
    <g transform="matrix(1,0,0,1,-9.35,-7.17949)">
        <g>
            <g id="shape0">
                <path d="M43.65,36.7L43.9,37.5L43.2,38.15L41.65,39.45L35.05,39.85L31.5,36.9L31.6,36.9L31.1,36.9L29.35,36.85L29.55,37.05L30.85,38.4L31.45,39.05L32.25,42.8L28.65,45.2L23.5,45.2L20.1,42.8L20.1,39.55L20.15,39.45L19.45,39.8L19.65,40.3L15.9,41.4L13.35,40.75L11.6,40.25L11.95,39.5L9.85,38L9.85,34.55L9.9,34.45L10.3,33.7L11,32.7L11.05,32.65L12.85,31L14.05,30.25L16.75,30.4C16.45,29.5 16.433,28.783 16.7,28.25L17.65,24.35L19.05,22.8L19.45,22.45L20.35,21.65L18.25,20.2L15.35,18L13.75,16.5L13.15,15.95C12.15,14.85 11.783,14.083 12.05,13.65C12.35,13.117 13.117,13.117 14.35,13.65C15.217,13.983 16.167,14.55 17.2,15.35L18.55,16.4C20.15,17.7 21.2,18.85 21.7,19.85L21.9,20.2L22.1,19.95L25.1,18.9L26.8,17.35L27.8,16.65L27.6,16.35C27.033,15.55 26.583,14.683 26.25,13.75L25.8,11.95L25.7,11.25C25.667,9.917 26.167,8.933 27.2,8.3C28.4,7.567 29.583,7.483 30.75,8.05C31.583,8.383 32.267,9 32.8,9.9L33.45,11.15C33.917,12.383 34.017,13.533 33.75,14.6C34.383,14.7 34.767,15.033 34.9,15.6C35.133,16.3 34.983,16.883 34.45,17.35C35.517,18.15 36.317,19.017 36.85,19.95L37.4,19.75L37.75,19.75L38.2,19.85L38.65,20.25C38.85,20.55 38.917,20.883 38.85,21.25L38.75,21.55C38.617,22.017 38.35,22.417 37.95,22.75L38.25,23.1L38.55,23.65C39.25,24.783 39.483,26 39.25,27.3L38.85,28.5L38.45,30.25L39.8,30.3L40.95,31.5L43,33.7L43.65,36.7" style="fill:#290c03;"/>
                <path d="M43.65,36.7L43,33.7L40.95,31.5L39.8,30.3L38.45,30.25L38.85,28.5L39.25,27.3C39.483,26 39.25,24.783 38.55,23.65L38.25,23.1L37.95,22.75C38.35,22.417 38.617,22.017 38.75,21.55L38.85,21.25C38.917,20.883 38.85,20.55 38.65,20.25L38.2,19.85L37.75,19.75L37.4,19.75L36.85,19.95C36.317,19.017 35.517,18.15 34.45,17.35C34.983,16.883 35.133,16.3 34.9,15.6C34.767,15.033 34.383,14.7 33.75,14.6C34.017,13.533 33.917,12.383 33.45,11.15L32.8,9.9C32.267,9 31.583,8.383 30.75,8.05C29.583,7.483 28.4,7.567 27.2,8.3C26.167,8.933 25.667,9.917 25.7,11.25L25.8,11.95L26.25,13.75C26.583,14.683 27.033,15.55 27.6,16.35L27.8,16.65L26.8,17.35L25.1,18.9L22.1,19.95L21.9,20.2L21.7,19.85C21.2,18.85 20.15,17.7 18.55,16.4L17.2,15.35C16.167,14.55 15.217,13.983 14.35,13.65C13.117,13.117 12.35,13.117 12.05,13.65C11.783,14.083 12.15,14.85 13.15,15.95L13.75,16.5L15.35,18L18.25,20.2L20.35,21.65L19.45,22.45L19.05,22.8L17.65,24.35L16.7,28.25C16.433,28.783 16.45,29.5 16.75,30.4L14.05,30.25L12.85,31L11.05,32.65L11,32.7L10.3,33.7L9.9,34.45L9.85,34.55L9.85,38L11.95,39.5L11.6,40.25L13.35,40.75L15.9,41.4L19.65,40.3L19.45,39.8L20.15,39.45L20.1,39.55L20.1,42.8L23.5,45.2L28.65,45.2L32.25,42.8L31.45,39.05L30.85,38.4L29.55,37.05L29.35,36.85L31.1,36.9L31.6,36.9L31.5,36.9L35.05,39.85L41.65,39.45L43.2,38.15L43.9,37.5L43.65,36.7M19.05,22.8L19.3,22.55L19.45,22.45M31.1,36.9L31.5,36.9" style="fill:none;fill-rule:nonzero;stroke:#260900;stroke-width:1px;"/>
            </g>
            <g id="sprite0" transform="matrix(1.8151,0,0,1.8143,27.8501,37.05)">
                <g id="sprite1" transform="matrix(-0.4391,0,0,0.4391,5.44988,-1.14994)">
                    <g id="shape1">
                        <path d="M-6.65,3.55L-6.75,3.7L-7.6,3.15L-7.55,2.95L-6.65,3.55" style="fill:#b67b10;"/>
                        <path d="M-1.45,5.65L-2.3,5.55L-2.25,5.55L-1.45,5.65" style="fill:#9f5711;"/>
                        <path d="M-2.25,5.55L-4.6,5.2L-6.65,3.55L-7.55,2.95L-6.6,-1.6L-3.15,-5.25L0,-4L1.95,2.45L-1.95,5.25L-2.25,5.55" style="fill:#4a4a4a;"/>
                        <path d="M-3.15,-5.25L-2.6,-5.85L2.65,-6.1L4.05,-5.2C5.45,-4.167 6.483,-3.1 7.15,-2L7.65,-0.95L7.65,3.15L3.4,6.15L-1.45,5.65L-2.25,5.55L-1.95,5.25L1.95,2.45L0,-4L-3.15,-5.25" style="fill:#252525;"/>
                        <path d="M-3.15,-5.25L-2.6,-5.85L2.65,-6.1L4.05,-5.2C5.45,-4.167 6.483,-3.1 7.15,-2L7.65,-0.95L7.65,3.15L3.4,6.15L-1.45,5.65L-2.3,5.55M-2.25,5.55L-4.6,5.2L-6.65,3.55L-7.55,2.95L-6.6,-1.6L-3.15,-5.25M-6.75,3.7L-7.6,3.15L-7.55,2.95M-2.25,5.55L-1.45,5.65" style="fill:none;fill-rule:nonzero;stroke:#000;stroke-opacity:0.4;stroke-width:1px;"/>
                        <path d="M-5.95,4.75L-7.7,3.2L-6.45,-0.5L-4.9,-2.25L-3.1,-0.5L-1.6,5.65L-2.05,5.65L-3.4,1.25L-4.5,0.45L-4.5,0.5L-5.4,2.5L-5.95,4.75" style="fill:#ec9404;"/>
                        <path d="M-2.05,5.65L-4.9,5.65L-5.95,4.75L-5.4,2.5L-4.5,0.5L-4.5,0.45L-3.4,1.25L-2.05,5.65" style="fill:#fdf40a;"/>
                        <path d="M-5.95,4.75L-7.7,3.2L-6.45,-0.5L-4.9,-2.25L-3.1,-0.5L-1.6,5.65L-4.9,5.65L-5.95,4.75Z" style="fill:none;fill-rule:nonzero;stroke:#000;stroke-opacity:0.4;stroke-width:1px;"/>
                    </g>
                </g>
                <g id="sprite2" transform="matrix(-0.4092,-0.1578,-0.0597,0.3729,0.54988,-10.1995)">
                    <g id="shape2">
                        <path d="M4.25,-5.3C3.65,-4.167 2.917,-3.2 2.05,-2.4L-1.1,-0.05C-1.767,0.25 -2.483,-0.283 -3.25,-1.65C-3.817,-2.65 -4.317,-3.867 -4.75,-5.3C-4.85,-9.3 -1.85,-9.3 4.25,-5.3M-3.25,-14.2C-2.383,-15.133 -1.4,-15.633 -0.3,-15.7C1.3,-15.833 2.783,-15.05 4.15,-13.35C5.317,-11.917 5.75,-10.3 5.45,-8.5C1.717,-8.233 -1.183,-10.133 -3.25,-14.2" style="fill:#bdb59b;fill-opacity:0.5;"/>
                        <path d="M-4.75,-5.3L-5.15,-6.85C-5.683,-8.983 -5.4,-10.967 -4.3,-12.8L-3.25,-14.2C-1.183,-10.133 1.717,-8.233 5.45,-8.5L5.2,-7.55L4.25,-5.3C-1.85,-9.3 -4.85,-9.3 -4.75,-5.3" style="fill:#efe5c4;fill-opacity:0.5;"/>
                        <path d="M4.25,-5.3C3.65,-4.167 2.917,-3.2 2.05,-2.4L-1.1,-0.05C-1.767,0.25 -2.483,-0.283 -3.25,-1.65C-3.817,-2.65 -4.317,-3.867 -4.75,-5.3L-5.15,-6.85C-5.683,-8.983 -5.4,-10.967 -4.3,-12.8L-3.25,-14.2C-2.383,-15.133 -1.4,-15.633 -0.3,-15.7C1.3,-15.833 2.783,-15.05 4.15,-13.35C5.317,-11.917 5.75,-10.3 5.45,-8.5L5.2,-7.55L4.25,-5.3Z" style="fill:none;fill-rule:nonzero;stroke:#000;stroke-opacity:0.2;stroke-width:1px;"/>
                    </g>
                </g>
                <g id="sprite3" transform="matrix(-0.4391,0,0,0.4391,0.24982,-5.1998)">
                    <g id="shape3" transform="matrix(-1.0977,0.3735,0.2218,1.1494,-6.74974,-1.44974)">
                        <path d="M3.7,-5.35L4,-4.8C4.233,-4.2 4.35,-3.55 4.35,-2.85C4.35,-1.45 3.867,-0.267 2.9,0.7C1.9,1.667 0.7,2.167 -0.7,2.2L-2.75,1.75L-3.3,1.45C-3.733,0.717 -3.95,-0.117 -3.95,-1.05C-3.95,-2.45 -3.467,-3.633 -2.5,-4.6C-1.533,-5.6 -0.35,-6.1 1.05,-6.1C2.05,-6.1 2.933,-5.85 3.7,-5.35" style="fill:#fff;"/>
                        <path d="M-3.3,1.45L-2.75,1.75L-0.7,2.2C0.7,2.167 1.9,1.667 2.9,0.7C3.867,-0.267 4.35,-1.45 4.35,-2.85C4.35,-3.55 4.233,-4.2 4,-4.8L3.7,-5.35L4.2,-5L4.65,-4.6C5.617,-3.633 6.1,-2.45 6.1,-1.05C6.1,0.35 5.617,1.533 4.65,2.5C3.65,3.467 2.45,3.967 1.05,4C-0.35,3.967 -1.533,3.467 -2.5,2.5L-3.3,1.45" style="fill:#cecab0;"/>
                        <path d="M-3.3,1.45L-2.5,2.5C-1.533,3.467 -0.35,3.967 1.05,4C2.45,3.967 3.65,3.467 4.65,2.5C5.617,1.533 6.1,0.35 6.1,-1.05C6.1,-2.45 5.617,-3.633 4.65,-4.6L4.2,-5L3.7,-5.35C2.933,-5.85 2.05,-6.1 1.05,-6.1C-0.35,-6.1 -1.533,-5.6 -2.5,-4.6C-3.467,-3.633 -3.95,-2.45 -3.95,-1.05C-3.95,-0.117 -3.733,0.717 -3.3,1.45Z" style="fill:none;fill-rule:nonzero;stroke:#6b5b40;stroke-opacity:0.37;stroke-width:0.05px;"/>
                        <path d="M4.6,-1.6L5,-0.4L4.6,0.75C4.333,1.083 4.017,1.25 3.65,1.25C3.25,1.25 2.933,1.083 2.7,0.75C2.433,0.45 2.3,0.067 2.3,-0.4C2.3,-0.867 2.433,-1.267 2.7,-1.6C2.933,-1.9 3.25,-2.05 3.65,-2.05C4.017,-2.05 4.333,-1.9 4.6,-1.6" style="fill:#2d2922;"/>
                    </g>
                    <g id="shape4">
                        <path d="M-3.05,1.5L-1.45,0.65L-1.45,0.75L-2.95,1.5L-3.05,1.5" style="fill:#e09714;"/>
                        <path d="M-11.3,-3.05L-10.7,-4.8L-6.9,-9.3L-2.05,-11.5L1.9,-11.65L7.75,-9.6L11.1,-6.45L6.9,-8.15L3.1,-6.25L2.55,-5.4L-1.65,-1.35C-2.583,0.983 -4.483,1.4 -7.35,-0.1L-10,-1.45L-11.3,-3.05M-4.05,11.4L-4.45,11.3L-6.7,5.85L-8.95,4.45L-10.95,3.8L-12.85,5.7L-12.7,2.25L-11.2,0.75L-11.1,0.6L-9.25,0.35L-7.55,0.95C-6.583,0.883 -5.233,1.683 -3.5,3.35L-2,5.5C-1.733,8.833 -2.417,10.8 -4.05,11.4M1.3,-5.7L-0.3,-7.5L-2.25,-7L-2.7,-5.6L-2.75,-5.6L0.15,-4.25L1.25,-5.65L1.3,-5.7" style="fill:#4a4a4a;"/>
                        <path d="M13.35,-4.1L14.55,0.8C15.083,2 14.65,3.767 13.25,6.1C10.25,9.1 7.267,10.783 4.3,11.15L2.55,11.45L-0.1,6.6L0.7,-0.7L4.75,-3.75L8.6,-4.65L13.35,-4.1" style="fill:#3c3c3c;"/>
                        <path d="M-11.3,-3.05L-10,-1.45L-7.35,-0.1C-4.483,1.4 -2.583,0.983 -1.65,-1.35L2.55,-5.4L3.1,-6.25L6.9,-8.15L11.1,-6.45L11.6,-6.05L13.35,-4.1L8.6,-4.65L4.75,-3.75L0.7,-0.7L-0.1,6.6L2.55,11.45L-4.15,11.65L-3.5,11.55L-4.05,11.4C-2.417,10.8 -1.733,8.833 -2,5.5L-3.5,3.35C-5.233,1.683 -6.583,0.883 -7.55,0.95L-9.25,0.35L-11.1,0.6L-11.2,0.75L-12.7,2.25L-12.85,1.2L-11.3,-3.05M-3.05,1.5L-2.95,1.5L-1.45,0.75L-1.45,0.65L-3.05,1.5" style="fill:#252525;"/>
                        <path d="M1.3,-5.7L1.25,-5.65L0.15,-4.25L-2.75,-5.6L-2.7,-5.6L-2.25,-7L-0.3,-7.5L1.3,-5.7" style="fill:#969696;"/>
                        <path d="M-4.45,11.3C-7.783,10.333 -10.517,8.933 -12.65,7.1L-12.85,5.7L-10.95,3.8L-8.95,4.45L-6.7,5.85L-4.45,11.3" style="fill:#ec9404;"/>
                        <path d="M11.1,-6.45L7.75,-9.6L1.9,-11.65L-2.05,-11.5L-6.9,-9.3L-10.7,-4.8L-11.3,-3.05L-12.85,1.2L-12.7,2.25L-12.85,5.7L-12.65,7.1C-10.517,8.933 -7.783,10.333 -4.45,11.3L-4.05,11.4L-3.5,11.55L-4.15,11.65L2.55,11.45L4.3,11.15C7.267,10.783 10.25,9.1 13.25,6.1C14.65,3.767 15.083,2 14.55,0.8L13.35,-4.1L11.6,-6.05L11.1,-6.45L11.3,-6.35L11.6,-6.05" style="fill:none;fill-rule:nonzero;stroke:#000;stroke-opacity:0.4;stroke-width:1px;"/>
                    </g>
                    <g id="shape31" serif:id="shape3" transform="matrix(-1.0977,0.3735,0.2218,1.1494,4.05026,3.30027)">
                        <path d="M3.7,-5.35L4,-4.8C4.233,-4.2 4.35,-3.55 4.35,-2.85C4.35,-1.45 3.867,-0.267 2.9,0.7C1.9,1.667 0.7,2.167 -0.7,2.2L-2.75,1.75L-3.3,1.45C-3.733,0.717 -3.95,-0.117 -3.95,-1.05C-3.95,-2.45 -3.467,-3.633 -2.5,-4.6C-1.533,-5.6 -0.35,-6.1 1.05,-6.1C2.05,-6.1 2.933,-5.85 3.7,-5.35" style="fill:#fff;"/>
                        <path d="M-3.3,1.45L-2.75,1.75L-0.7,2.2C0.7,2.167 1.9,1.667 2.9,0.7C3.867,-0.267 4.35,-1.45 4.35,-2.85C4.35,-3.55 4.233,-4.2 4,-4.8L3.7,-5.35L4.2,-5L4.65,-4.6C5.617,-3.633 6.1,-2.45 6.1,-1.05C6.1,0.35 5.617,1.533 4.65,2.5C3.65,3.467 2.45,3.967 1.05,4C-0.35,3.967 -1.533,3.467 -2.5,2.5L-3.3,1.45" style="fill:#cecab0;"/>
                        <path d="M-3.3,1.45L-2.5,2.5C-1.533,3.467 -0.35,3.967 1.05,4C2.45,3.967 3.65,3.467 4.65,2.5C5.617,1.533 6.1,0.35 6.1,-1.05C6.1,-2.45 5.617,-3.633 4.65,-4.6L4.2,-5L3.7,-5.35C2.933,-5.85 2.05,-6.1 1.05,-6.1C-0.35,-6.1 -1.533,-5.6 -2.5,-4.6C-3.467,-3.633 -3.95,-2.45 -3.95,-1.05C-3.95,-0.117 -3.733,0.717 -3.3,1.45Z" style="fill:none;fill-rule:nonzero;stroke:#6b5b40;stroke-opacity:0.37;stroke-width:0.05px;"/>
                        <path d="M4.6,-1.6L5,-0.4L4.6,0.75C4.333,1.083 4.017,1.25 3.65,1.25C3.25,1.25 2.933,1.083 2.7,0.75C2.433,0.45 2.3,0.067 2.3,-0.4C2.3,-0.867 2.433,-1.267 2.7,-1.6C2.933,-1.9 3.25,-2.05 3.65,-2.05C4.017,-2.05 4.333,-1.9 4.6,-1.6" style="fill:#2d2922;"/>
                    </g>
                    <g id="shape5">
                        <path d="M4,-10.25C5.233,-9.25 5.933,-7.667 6.1,-5.5C4.133,-7.267 2.967,-8.733 2.6,-9.9C2.2,-11.167 2.667,-11.283 4,-10.25" style="fill:#fefff5;"/>
                        <path d="M-1.4,-14.95C-0.3,-14.383 0.8,-13.683 1.9,-12.85C5.233,-10.35 7.45,-6.65 8.55,-1.75C8.783,-0.05 7.183,1.5 3.75,2.9C0.317,4.233 -5.217,4.05 -12.85,2.35C-13.083,1.083 -12.583,0.267 -11.35,-0.1C-0.417,1.9 5.117,1.15 5.25,-2.35C5.017,-6.55 1.783,-10.167 -4.45,-13.2C-4.283,-14.5 -3.267,-15.083 -1.4,-14.95M4,-10.25C2.667,-11.283 2.2,-11.167 2.6,-9.9C2.967,-8.733 4.133,-7.267 6.1,-5.5C5.933,-7.667 5.233,-9.25 4,-10.25" style="fill:#bdb59b;"/>
                        <path d="M3.4,-4.3L3.65,-3.6C4.183,-2.367 3.517,-1.483 1.65,-0.95L-9.8,-1.3L-9.95,-1.3C-9.25,-5.967 -8.267,-8.883 -7,-10.05C-2.867,-9.017 0.6,-7.1 3.4,-4.3" style="fill:#f2f4d7;"/>
                        <path d="M-12.85,2.35C-13.95,-0.617 -13.567,-2.833 -11.7,-4.3C-11.3,-2.767 -10.717,-1.767 -9.95,-1.3L-9.8,-1.3L1.65,-0.95C3.517,-1.483 4.183,-2.367 3.65,-3.6L3.4,-4.3C2.067,-7.5 -0.783,-10.117 -5.15,-12.15C-6.017,-12.617 -6.867,-12.85 -7.7,-12.85C-8.4,-13.45 -8.6,-14.183 -8.3,-15.05C-8.067,-15.983 -7.283,-16.45 -5.95,-16.45C-4.717,-16.45 -3.2,-15.95 -1.4,-14.95C-3.267,-15.083 -4.283,-14.5 -4.45,-13.2C1.783,-10.167 5.017,-6.55 5.25,-2.35C5.117,1.15 -0.417,1.9 -11.35,-0.1C-12.583,0.267 -13.083,1.083 -12.85,2.35" style="fill:#786b55;"/>
                        <path d="M-11.7,-4.3C-12.233,-7.667 -10.9,-10.517 -7.7,-12.85C-6.867,-12.85 -6.017,-12.617 -5.15,-12.15L-7,-10.05C-8.267,-8.883 -9.25,-5.967 -9.95,-1.3C-10.717,-1.767 -11.3,-2.767 -11.7,-4.3M3.4,-4.3C0.6,-7.1 -2.867,-9.017 -7,-10.05L-5.15,-12.15C-0.783,-10.117 2.067,-7.5 3.4,-4.3" style="fill:#b4b08e;"/>
                        <path d="M-1.4,-14.95C-0.3,-14.383 0.8,-13.683 1.9,-12.85C5.233,-10.35 7.45,-6.65 8.55,-1.75C8.783,-0.05 7.183,1.5 3.75,2.9C0.317,4.233 -5.217,4.05 -12.85,2.35C-13.95,-0.617 -13.567,-2.833 -11.7,-4.3C-12.233,-7.667 -10.9,-10.517 -7.7,-12.85C-8.4,-13.45 -8.6,-14.183 -8.3,-15.05C-8.067,-15.983 -7.283,-16.45 -5.95,-16.45C-4.717,-16.45 -3.2,-15.95 -1.4,-14.95M-9.95,-1.3L-9.8,-1.3L1.65,-0.95C3.517,-1.483 4.183,-2.367 3.65,-3.6L3.4,-4.3C2.067,-7.5 -0.783,-10.117 -5.15,-12.15L-7,-10.05C-8.267,-8.883 -9.25,-5.967 -9.95,-1.3C-10.717,-1.767 -11.3,-2.767 -11.7,-4.3M-5.15,-12.15C-6.017,-12.617 -6.867,-12.85 -7.7,-12.85" style="fill:none;fill-rule:nonzero;stroke:#000;stroke-opacity:0.3;stroke-width:0.2px;"/>
                    </g>
                    <g id="sprite4" transform="matrix(0.8041,0.5918,-0.5918,0.8041,-5.45011,-5.65006)">
                        <g id="shape6">
                            <path d="M-1.05,-0.85L-0.65,-1.3L-0.35,-1.55C0.217,-1.917 0.883,-1.917 1.65,-1.55L1.95,-1.4L2,-0.4C1.9,0.167 1.483,0.4 0.75,0.3C0.117,0.1 -0.35,-0.133 -0.65,-0.4L-1.05,-0.85" style="fill:#6e6750;"/>
                            <path d="M1.95,-1.4L3.25,-1.05L3.65,-1C4.217,-1 4.5,-0.717 4.5,-0.15C4.5,0.417 4.217,0.883 3.65,1.25L3.25,1.5L1.65,1.85C0.883,1.85 0.217,1.65 -0.35,1.25L-0.65,1.05C-1.017,0.717 -1.2,0.317 -1.2,-0.15L-1.05,-0.85L-0.65,-0.4C-0.35,-0.133 0.117,0.1 0.75,0.3C1.483,0.4 1.9,0.167 2,-0.4L1.95,-1.4" style="fill:#413e33;"/>
                        </g>
                    </g>
                    <g id="sprite41" serif:id="sprite4" transform="matrix(0.8041,0.5918,-0.5918,0.8041,-12.1001,-8.40005)">
                        <g id="shape61" serif:id="shape6">
                            <path d="M-1.05,-0.85L-0.65,-1.3L-0.35,-1.55C0.217,-1.917 0.883,-1.917 1.65,-1.55L1.95,-1.4L2,-0.4C1.9,0.167 1.483,0.4 0.75,0.3C0.117,0.1 -0.35,-0.133 -0.65,-0.4L-1.05,-0.85" style="fill:#6e6750;"/>
                            <path d="M1.95,-1.4L3.25,-1.05L3.65,-1C4.217,-1 4.5,-0.717 4.5,-0.15C4.5,0.417 4.217,0.883 3.65,1.25L3.25,1.5L1.65,1.85C0.883,1.85 0.217,1.65 -0.35,1.25L-0.65,1.05C-1.017,0.717 -1.2,0.317 -1.2,-0.15L-1.05,-0.85L-0.65,-0.4C-0.35,-0.133 0.117,0.1 0.75,0.3C1.483,0.4 1.9,0.167 2,-0.4L1.95,-1.4" style="fill:#413e33;"/>
                        </g>
                    </g>
                </g>
                <g id="sprite21" serif:id="sprite2" transform="matrix(-0.4092,-0.1578,0.2316,0.2995,-3.89926,-8.24992)">
                    <g id="shape21" serif:id="shape2">
                        <path d="M4.25,-5.3C3.65,-4.167 2.917,-3.2 2.05,-2.4L-1.1,-0.05C-1.767,0.25 -2.483,-0.283 -3.25,-1.65C-3.817,-2.65 -4.317,-3.867 -4.75,-5.3C-4.85,-9.3 -1.85,-9.3 4.25,-5.3M-3.25,-14.2C-2.383,-15.133 -1.4,-15.633 -0.3,-15.7C1.3,-15.833 2.783,-15.05 4.15,-13.35C5.317,-11.917 5.75,-10.3 5.45,-8.5C1.717,-8.233 -1.183,-10.133 -3.25,-14.2" style="fill:#bdb59b;fill-opacity:0.5;"/>
                        <path d="M-4.75,-5.3L-5.15,-6.85C-5.683,-8.983 -5.4,-10.967 -4.3,-12.8L-3.25,-14.2C-1.183,-10.133 1.717,-8.233 5.45,-8.5L5.2,-7.55L4.25,-5.3C-1.85,-9.3 -4.85,-9.3 -4.75,-5.3" style="fill:#efe5c4;fill-opacity:0.5;"/>
                        <path d="M4.25,-5.3C3.65,-4.167 2.917,-3.2 2.05,-2.4L-1.1,-0.05C-1.767,0.25 -2.483,-0.283 -3.25,-1.65C-3.817,-2.65 -4.317,-3.867 -4.75,-5.3L-5.15,-6.85C-5.683,-8.983 -5.4,-10.967 -4.3,-12.8L-3.25,-14.2C-2.383,-15.133 -1.4,-15.633 -0.3,-15.7C1.3,-15.833 2.783,-15.05 4.15,-13.35C5.317,-11.917 5.75,-10.3 5.45,-8.5L5.2,-7.55L4.25,-5.3Z" style="fill:none;fill-rule:nonzero;stroke:#000;stroke-opacity:0.2;stroke-width:1px;"/>
                    </g>
                </g>
                <g id="sprite5" transform="matrix(-0.4601,0,0,0.4601,-6.39981,-0.95014)">
                    <g id="shape7">
                        <path d="M1.85,6.15L1.15,6.15L1.1,5.9L1.85,6.15" style="fill:#b67b10;"/>
                        <path d="M4.05,-5.2L6.25,-3.25L6.3,-3.2L5.4,-1.1L2.95,0.6L2.9,0.65L2.45,0.9L2.4,0.95L2.75,1.7L0.1,2.7L-1.35,1.4L-1.35,-0.45L-0.4,-3.05L4.05,-5.2" style="fill:#4a4a4a;"/>
                        <path d="M6.3,-3.2L7.15,-2L7.6,-1.05L5.8,2.15L3.9,2.65L3.3,1.5L2.75,1.7L2.4,0.95L2.45,0.9L2.9,0.65L2.95,0.6L5.4,-1.1L6.3,-3.2M-5.95,4.25L-6,4.4L-7.6,3.15L-6.6,-1.6L-5,-3.25L-4.35,-0.65L0.15,5C-1.417,5.367 -3.45,5.117 -5.95,4.25" style="fill:#252525;"/>
                        <path d="M-5,-3.25L-2.6,-5.85L2.65,-6.1L4.05,-5.2L-0.4,-3.05L-1.35,-0.45L-1.35,1.4L0.1,2.7L2.75,1.7L3.3,1.5L3.9,2.65L5.8,2.15L7.6,-1.05L7.65,-0.95L7.65,3.15L3.4,6.15L1.85,6.15L1.1,5.9L-2.9,5.8L-5.95,4.25C-3.45,5.117 -1.417,5.367 0.15,5L-4.35,-0.65L-5,-3.25" style="fill:#3c3c3c;"/>
                        <path d="M-5,-3.25L-2.6,-5.85L2.65,-6.1L4.05,-5.2L6.25,-3.25M6.3,-3.2L7.15,-2L7.6,-1.05L7.65,-0.95L7.65,3.15L3.4,6.15L1.15,6.15M1.1,5.9L-2.9,5.8L-5.95,4.25M-6,4.4L-7.6,3.15L-6.6,-1.6L-5,-3.25M1.85,6.15L1.1,5.9" style="fill:none;fill-rule:nonzero;stroke:#000;stroke-opacity:0.4;stroke-width:1px;"/>
                        <path d="M3,-2.15C3,-1.85 2.867,-1.6 2.6,-1.4C2.367,-1.167 2.067,-1.05 1.7,-1.05C1.333,-1.05 1.017,-1.167 0.75,-1.4C0.517,-1.6 0.4,-1.85 0.4,-2.15C0.4,-2.45 0.517,-2.717 0.75,-2.95C1.017,-3.15 1.333,-3.25 1.7,-3.25L2.6,-2.95C2.867,-2.717 3,-2.45 3,-2.15" style="fill:#969696;"/>
                        <path d="M-2.45,6.4L-4.05,5.95L-2.05,1.75L0.4,-0.65L3.25,0.3L5.55,5.85L2.25,6.75L0.35,3.05L-1.05,2.35L-2.45,6.4" style="fill:#ec9404;"/>
                        <path d="M2.25,6.75L0.4,7.25L-2.45,6.4L-1.05,2.35L0.35,3.05L2.25,6.75" style="fill:#fdf40a;"/>
                        <path d="M2.25,6.75L0.4,7.25L-2.45,6.4L-4.05,5.95L-2.05,1.75L0.4,-0.65L3.25,0.3L5.55,5.85L2.25,6.75Z" style="fill:none;fill-rule:nonzero;stroke:#000;stroke-opacity:0.4;stroke-width:1px;"/>
                    </g>
                </g>
                <g id="sprite6" transform="matrix(-0.4391,0,0,0.4391,-0.90011,1.80006)">
                    <g id="shape8">
                        <path d="M4.05,-5.2C5.45,-4.167 6.483,-3.1 7.15,-2L5.75,0.6L0.95,2.35L0.1,2.7L-0.75,0L-1.35,-0.45L-0.4,-3.05L4.05,-5.2" style="fill:#4a4a4a;"/>
                        <path d="M7.15,-2L7.65,-0.95L7.65,1.65L3.7,3.1L0.95,2.35L5.75,0.6L7.15,-2M-6.75,3.7L-7.6,3.15L-6.6,-1.6L-5,-3.25L-4.35,-0.65L-5.1,0L-6.75,3.7" style="fill:#252525;"/>
                        <path d="M7.65,1.65L7.65,3.15L3.4,6.15L1.15,6.15L0.1,2.7L0.95,2.35L3.7,3.1L7.65,1.65M-5,-3.25L-2.6,-5.85L2.65,-6.1L4.05,-5.2L-0.4,-3.05L-1.35,-0.45L-3.1,-1.75L-4.35,-0.65L-5,-3.25" style="fill:#3c3c3c;"/>
                        <path d="M0.6,6.15L-3.1,6.15L-4.5,5.25L-3.75,3L-2.6,1L-2.6,0.95L-1.15,1.75L0.6,6.15" style="fill:#fdf40a;"/>
                        <path d="M1.15,6.15L0.6,6.15L-1.15,1.75L-2.6,0.95L-2.6,1L-3.75,3L-4.5,5.25L-6.75,3.7L-5.1,0L-4.35,-0.65L-3.1,-1.75L-1.35,-0.45L-0.75,0L0.1,2.7L1.15,6.15" style="fill:#ec9404;"/>
                        <path d="M4.05,-5.2C5.45,-4.167 6.483,-3.1 7.15,-2L7.65,-0.95L7.65,3.15L3.4,6.15L-3.1,6.15L-4.5,5.25L-6.75,3.7L-7.6,3.15L-6.6,-1.6L-5,-3.25L-2.6,-5.85L2.65,-6.1L4.05,-5.2M-1.35,-0.45L-0.75,0L0.1,2.7L1.15,6.15M-1.35,-0.45L-3.1,-1.75L-4.35,-0.65L-5.1,0L-6.75,3.7" style="fill:none;fill-rule:nonzero;stroke:#000;stroke-opacity:0.4;stroke-width:1px;"/>
                        <path d="M2.25,-1.05L2.65,-0.25C2.65,0.05 2.517,0.3 2.25,0.5C2.017,0.733 1.717,0.85 1.35,0.85C0.983,0.85 0.667,0.733 0.4,0.5C0.167,0.3 0.05,0.05 0.05,-0.25C0.05,-0.55 0.167,-0.817 0.4,-1.05C0.667,-1.25 0.983,-1.35 1.35,-1.35L2.25,-1.05" style="fill:#969696;"/>
                    </g>
                </g>
            </g>
        </g>
    </g>
</svg>
