<?xml version="1.0" encoding="UTF-8" standalone="no"?>
<!DOCTYPE svg PUBLIC "-//W3C//DTD SVG 1.1//EN" "http://www.w3.org/Graphics/SVG/1.1/DTD/svg11.dtd">
<svg width="100%" height="100%" viewBox="0 0 19 24" version="1.1" xmlns="http://www.w3.org/2000/svg" xmlns:xlink="http://www.w3.org/1999/xlink" xml:space="preserve" xmlns:serif="http://www.serif.com/" style="fill-rule:evenodd;clip-rule:evenodd;stroke-linecap:round;stroke-linejoin:round;">
    <g transform="matrix(1,0,0,1,0.0145161,-0.352156)">
        <g transform="matrix(1,0,0,1,9.5,11.75)">
            <g id="sprite0">
                <g id="sprite1">
                    <g id="shape0">
                        <path d="M2.85,-10.85L3.8,-10L3.85,-9.85C4.283,-9.283 4.35,-8.6 4.05,-7.8L4.8,-7.4L5.2,-7.95C5.333,-8.183 5.617,-8.1 6.05,-7.7L6.1,-7.65L6.2,-7.65L6.3,-7.55L6.9,-6.05L7.1,-4.85L7.25,-4.65L7.4,-4.1L7.45,-3.05C7.417,-2.483 7.25,-2 6.95,-1.6L6.85,-1.5L6.9,-1.5L7.15,-1.6C7.383,-1.667 7.517,-1.6 7.55,-1.4L7.6,-1.05L7.6,-0.9L7.55,-0.65L7.35,0L7.4,-0.05L7.15,0.95L7.05,1.7L7.25,2.2L7.55,2.25L7.6,2.2L7.65,1.9L7.75,1.75L7.75,1.55C7.817,1.35 7.983,1.217 8.25,1.15L8.65,1.15L8.95,1.5L8.95,1.65L8.85,2.1L8.7,2.35L8.6,2.5L8.4,2.6L7.3,2.6C6.967,2.567 6.733,2.417 6.6,2.15L6.6,1.45L6.85,0.25L6.8,0.25L6.85,0.15L7,-0.5L6.65,-0.8L6.4,-0.55L6.4,-0.5L5.5,1.7L5.9,3.3L4.75,4.3L4.85,4.35C5.117,4.45 5.35,4.583 5.55,4.75L6,5.45C6.167,5.917 6.117,6.317 5.85,6.65L6.4,7.1L6,7.5L6.15,7.7L5.55,7.95L5.8,8.45L4.9,8.8L4.15,8.7L3.5,8.4C2.967,8.8 2.367,9 1.7,9L1.15,8.95L1.1,8.95L0.3,8.65L0.15,8.8L0.6,9.55L0.65,9.6L0.5,10.65L-0.6,10.95L-0.95,10.6L-1.5,11.05L-1.9,10.95L-2.6,11.2L-3.4,10.8L-3.35,9.65L-2.85,8.8L-3.2,7.9L-3.15,7.55L-2.7,6.8L-4.4,4.95L-6.2,5.45L-6.75,4.65L-6.9,4.35L-6.8,4.2C-6.3,3.567 -5.367,2.933 -4,2.3L-4.35,2.3L-4.2,2.25L-4.25,2.2L-5,2.65L-5.05,2.6L-5.05,2.45L-4.45,2.1L-5.85,1.3C-6.917,0.6 -7.45,0 -7.45,-0.5C-7.45,-0.9 -7.133,-1.233 -6.5,-1.5C-5.5,-1.867 -5.05,-2.45 -5.15,-3.25L-5.9,-3.4L-7.75,-3.85C-8.683,-4.25 -9.1,-4.7 -9,-5.2L-8.6,-5.9L-8.35,-6.1C-7.617,-6.733 -7.15,-6.817 -6.95,-6.35C-6.85,-6.15 -6.8,-5.833 -6.8,-5.4L-6.8,-5.3L-6.9,-5.05L-6.85,-5.05C-5.917,-4.617 -4.983,-4.467 -4.05,-4.6L-3.65,-4.7L-3.1,-4.85L-2.9,-6.1C-2.433,-6.667 -1.733,-7.05 -0.8,-7.25L1.05,-6.85L1.15,-6.95L2.45,-7.85L2.45,-7.9C3.15,-8.5 3.333,-9 3,-9.4L2.6,-9.6L2.85,-9.4L2.2,-9.5L1.5,-9.65C0.733,-9.817 0.517,-10.2 0.85,-10.8L2.85,-10.85M6.4,-1.15L6.45,-1.2L6.4,-1.2L6.4,-1.15M-0.9,2.4L-1.35,2.45L-1.15,3.5L-1.05,3.7L-1,3.75L-0.75,3.8L-0.4,3.55L-0.05,3.7L0,3.8L0.4,3.55L0.45,3.4L0.65,2.7L-0.3,2.45L-0.9,2.4M-4.5,0.15L-5.05,0.1L-5.25,0.4L-4.85,0.95L-4.85,1L-4.15,1.4L-3.5,1.5L-3.4,1.4L-3.35,1.15L-3.75,0.55C-3.983,0.383 -4.233,0.25 -4.5,0.15M-1.65,3.5L-1.8,3.35L-1.8,3.5L-1.65,3.55L-1.55,3.6L-1.65,3.5M-2.5,3.15L-2.55,3.15L-2.1,3.4L-2.2,3.15L-2.4,3.1L-2.5,3.1L-2.5,3.15" style="fill:#280a02;"/>
                        <path d="M2.85,-10.85L0.85,-10.8C0.517,-10.2 0.733,-9.817 1.5,-9.65L2.2,-9.5L2.85,-9.4L2.6,-9.6L3,-9.4C3.333,-9 3.15,-8.5 2.45,-7.9L2.45,-7.85L1.15,-6.95L1.05,-6.85L-0.8,-7.25C-1.733,-7.05 -2.433,-6.667 -2.9,-6.1L-3.1,-4.85L-3.65,-4.7L-4.05,-4.6C-4.983,-4.467 -5.917,-4.617 -6.85,-5.05L-6.9,-5.05L-6.8,-5.3L-6.8,-5.4C-6.8,-5.833 -6.85,-6.15 -6.95,-6.35C-7.15,-6.817 -7.617,-6.733 -8.35,-6.1L-8.6,-5.9L-9,-5.2C-9.1,-4.7 -8.683,-4.25 -7.75,-3.85L-5.9,-3.4L-5.15,-3.25C-5.05,-2.45 -5.5,-1.867 -6.5,-1.5C-7.133,-1.233 -7.45,-0.9 -7.45,-0.5C-7.45,0 -6.917,0.6 -5.85,1.3L-4.45,2.1L-5.05,2.45L-5.05,2.6L-5,2.65L-4.25,2.2L-4.2,2.25L-4.35,2.3L-4,2.3C-5.367,2.933 -6.3,3.567 -6.8,4.2L-6.9,4.35L-6.75,4.65L-6.2,5.45L-4.4,4.95L-2.7,6.8L-3.15,7.55L-3.2,7.9L-2.85,8.8L-3.35,9.65L-3.4,10.8L-2.6,11.2L-1.9,10.95L-1.5,11.05L-0.95,10.6L-0.6,10.95L0.5,10.65L0.65,9.6L0.6,9.55L0.15,8.8L0.3,8.65L1.1,8.95L1.15,8.95L1.7,9C2.367,9 2.967,8.8 3.5,8.4L4.15,8.7L4.9,8.8L5.8,8.45L5.55,7.95L6.15,7.7L6,7.5L6.4,7.1L5.85,6.65C6.117,6.317 6.167,5.917 6,5.45L5.55,4.75C5.35,4.583 5.117,4.45 4.85,4.35L4.75,4.3L5.9,3.3L5.5,1.7L6.4,-0.5L6.4,-0.55L6.65,-0.8L7,-0.5L6.85,0.15L6.8,0.25L6.85,0.25L6.6,1.45L6.6,2.15C6.733,2.417 6.967,2.567 7.3,2.6L8.4,2.6L8.6,2.5L8.7,2.35L8.85,2.1L8.95,1.65L8.95,1.5L8.65,1.15L8.25,1.15C7.983,1.217 7.817,1.35 7.75,1.55L7.75,1.75L7.65,1.9L7.6,2.2L7.55,2.25L7.25,2.2L7.05,1.7L7.15,0.95L7.4,-0.05L7.35,0L7.55,-0.65L7.6,-0.9L7.6,-1.05L7.55,-1.4C7.517,-1.6 7.383,-1.667 7.15,-1.6L6.9,-1.5L6.85,-1.5L6.95,-1.6C7.25,-2 7.417,-2.483 7.45,-3.05L7.4,-4.1L7.25,-4.65L7.1,-4.85L6.9,-6.05L6.3,-7.55L6.2,-7.65L6.1,-7.65L6.05,-7.7C5.617,-8.1 5.333,-8.183 5.2,-7.95L4.8,-7.4L4.05,-7.8C4.35,-8.6 4.283,-9.283 3.85,-9.85L3.8,-10L2.85,-10.85M-0.9,2.4L-0.3,2.45L0.65,2.7L0.45,3.4L0.4,3.55L0,3.8L-0.05,3.7L-0.4,3.55L-0.75,3.8L-1,3.75L-1.05,3.7L-1.15,3.5L-1.35,2.45L-0.9,2.4M-4.5,0.15L-5.05,0.1L-5.25,0.4L-4.85,0.95L-4.85,1L-4.15,1.4L-3.5,1.5L-3.4,1.4L-3.35,1.15L-3.75,0.55C-3.983,0.383 -4.233,0.25 -4.5,0.15" style="fill:none;fill-rule:nonzero;stroke:#280a02;stroke-width:1px;"/>
                    </g>
                </g>
                <g id="sprite2" transform="matrix(0.6,0,0,0.6,1.6504,8.8008)">
                    <g id="sprite3" transform="matrix(-1,0,0,1,-3.75,-4.5)">
                        <g id="shape1">
                            <path d="M1.75,-4.25C3.383,-4.85 4.6,-5.567 5.4,-6.4C7.833,-5.333 9.483,-4.25 10.35,-3.15L10.5,-2.9L10.25,-2.45L6.85,-4.65L3.7,-2.25L1.75,-4.25" style="fill:#58b8ca;"/>
                            <path d="M1.75,-4.25L3.7,-2.25L6.85,-4.65L10.25,-2.45L9.35,-1.05L6.3,-1.95L7,-2.95L6.3,-1.95L2.5,2.25L-1.4,3L-2.5,0L-1.4,-3.4L1.75,-4.25" style="fill:#1e84a5;"/>
                            <path d="M10.25,-2.45L10.5,-2.9M6.3,-1.95L9.35,-1.05L10.25,-2.45M6.3,-1.95L7,-2.95M1.75,-4.25L-1.4,-3.4L-2.5,0L-1.4,3L2.5,2.25L6.3,-1.95" style="fill:none;fill-rule:nonzero;stroke:#000;stroke-opacity:0.45;stroke-width:0.5px;"/>
                            <path d="M10.5,-2.9L10.35,-3.15C9.483,-4.25 7.833,-5.333 5.4,-6.4C4.6,-5.567 3.383,-4.85 1.75,-4.25" style="fill:none;fill-rule:nonzero;stroke:#000;stroke-opacity:0.24;stroke-width:0.5px;"/>
                        </g>
                    </g>
                    <g id="sprite4" transform="matrix(-1,0,0,1,-5.6,-9.45)">
                        <g id="shape2">
                            <path d="M2.15,-2.9L2.15,-2.95C3.15,-2.617 4.283,-2.017 5.55,-1.15L5.6,-0.95L5.5,-0.85C4.367,-1.65 3.25,-2.15 2.15,-2.35L2.1,-2.35C0.533,-2.783 -0.267,-1.7 -0.3,0.9C-0.367,1.4 -0.617,1.883 -1.05,2.35L-1.2,2.45L-1.05,2.35L-1.15,2.45L-1.5,2.6L-2.2,2.6C-2.467,2.533 -2.683,2.4 -2.85,2.2L-3.05,1.55L-3.05,1.5L-3,1.35L-3,1.2L-2.75,0.9C-2.583,0.733 -2.383,0.667 -2.15,0.7L-1.55,1.1L-1.1,0.95L-1.1,0.9L-0.95,0.55C-0.55,-2.45 0.483,-3.6 2.15,-2.9C0.517,-3.533 -0.483,-2.383 -0.85,0.55L-0.85,0.6L-1.1,0.95L-0.85,0.6L-0.85,0.55C-0.483,-2.383 0.517,-3.533 2.15,-2.9" style="fill:#1e84a5;"/>
                            <path d="M-3,1.25L-3,1.35L-3.05,1.5L-3.05,1.25L-3,1.25M-3.05,1.55L-2.85,2.2C-2.683,2.4 -2.467,2.533 -2.2,2.6L-1.5,2.6L-1.15,2.45L-1.5,2.75L-2.25,2.7L-2.9,2.25L-3.05,1.55M-1.05,2.35L-1.2,2.45L-1.05,2.35C-0.617,1.883 -0.367,1.4 -0.3,0.9C-0.267,-1.7 0.533,-2.783 2.1,-2.35L2.15,-2.35C3.25,-2.15 4.367,-1.65 5.5,-0.85L5.5,-0.8C4.367,-1.567 3.25,-2.067 2.15,-2.3C0.583,-2.767 -0.217,-1.7 -0.25,0.9C-0.317,1.433 -0.583,1.917 -1.05,2.35M2.15,-2.35L2.15,-2.3L2.15,-2.35" style="fill:#1f7983;"/>
                            <path d="M-3,1.2L-3,1.25L-3.05,1.25L-3,1.2" style="fill:#36c2d1;"/>
                            <path d="M2.15,-2.9C0.517,-3.533 -0.483,-2.383 -0.85,0.55L-0.85,0.6L-1.1,0.95L-1.55,1.1L-2.15,0.7C-2.383,0.667 -2.583,0.733 -2.75,0.9L-3,1.2L-3,1.25M-1.05,2.35L-1.2,2.45L-1.05,2.35C-0.617,1.883 -0.367,1.4 -0.3,0.9C-0.267,-1.7 0.533,-2.783 2.1,-2.35L2.15,-2.35L2.15,-2.3C3.25,-2.067 4.367,-1.567 5.5,-0.8M5.55,-1.15C4.283,-2.017 3.15,-2.617 2.15,-2.95M-1.05,2.35C-0.583,1.917 -0.317,1.433 -0.25,0.9C-0.217,-1.7 0.583,-2.767 2.15,-2.3M2.15,-2.9C0.483,-3.6 -0.55,-2.45 -0.95,0.55L-1.1,0.9L-1.1,0.95M-3.05,1.55L-2.9,2.25L-2.25,2.7L-1.5,2.75L-1.15,2.45M-3.05,1.25L-3.05,1.5M-3,1.2L-3.05,1.25" style="fill:none;fill-rule:nonzero;stroke:#000;stroke-opacity:0.45;stroke-width:0.5px;"/>
                            <path d="M-0.05,0.55L-0.25,0.75L-0.25,-0.15L-0.15,-1.05C0.15,-1.783 0.767,-2.333 1.7,-2.7L4.4,-1.4L4.2,-1.45L3.95,-1.4C2.483,-2.233 1.25,-2.05 0.25,-0.85L0.05,-0.4L-0.1,-0.1L-0.05,0.55" style="fill:#1e84a5;"/>
                            <path d="M-0.05,0.55L-0.1,-0.1L0.05,-0.4L0.25,-0.85C1.25,-2.05 2.483,-2.233 3.95,-1.4L3.35,-1.25L3.3,-1.15C3.2,-0.517 2.8,0.3 2.1,1.3C1.833,1.633 1.4,1.717 0.8,1.55C0.4,1.383 0.183,1.05 0.15,0.55L0.15,0.35L-0.05,0.55M1.2,-0.1L0.85,0C0.75,0.133 0.7,0.283 0.7,0.45L0.7,0.8L0.75,0.9L0.75,0.95L1,1L1.3,0.8L1.5,0.45L1.5,0L1.35,0L1.35,-0.1L1.2,-0.1" style="fill:#58b8ca;"/>
                            <path d="M3.95,-1.4L4.2,-1.45L4.4,-1.4L1.7,-2.7C0.767,-2.333 0.15,-1.783 -0.15,-1.05L-0.25,-0.15L-0.25,0.75L0.15,0.35L0.15,0.55C0.183,1.05 0.4,1.383 0.8,1.55C1.4,1.717 1.833,1.633 2.1,1.3C2.8,0.3 3.2,-0.517 3.3,-1.15L3.35,-1.25L3.95,-1.4M1.2,-0.1L0.85,0C0.75,0.133 0.7,0.283 0.7,0.45L0.7,0.8L0.75,0.9L0.75,0.95L1,1L1.3,0.8L1.5,0.45L1.5,0L1.35,0L1.35,-0.1L1.2,-0.1" style="fill:none;fill-rule:nonzero;stroke:#000;stroke-opacity:0.45;stroke-width:0.5px;"/>
                            <path d="M2.65,-1.6L2.55,-1.55L2.6,-1.55L2.65,-1.45L2.75,-1.55L2.7,-1.6L2.65,-1.6" style="fill:#42a7b8;fill-opacity:0.67;"/>
                            <path d="M1.95,-1.05L1.95,-1L2,-1.05L1.95,-1.05" style="fill:#42a7b8;fill-opacity:0.67;"/>
                            <path d="M2.15,-1.45L2.15,-1.4L2.1,-1.4L2.1,-1.35L2.2,-1.35L2.2,-1.4L2.15,-1.4L2.15,-1.45" style="fill:#42a7b8;fill-opacity:0.67;"/>
                            <path d="M2.25,-1.3L2.25,-1.25L2.2,-1.25L2.2,-1.2L2.3,-1.2L2.3,-1.25L2.25,-1.25L2.25,-1.3" style="fill:#42a7b8;fill-opacity:0.67;"/>
                        </g>
                    </g>
                    <g id="sprite5" transform="matrix(-1,0,0,1,3.85,-3)">
                        <g id="shape3">
                            <path d="M2.75,1.35L-0.35,2.8L-1.6,3L-3.1,2.45L-2.65,1.6L-3.7,1.2L-3.45,0.8L-4.05,0.2L-0.25,-3L4.05,-0.55L2.75,1.35M-2.9,-0.15L-3.45,0.8L-2.9,-0.15M-2.25,0.4L-2.65,1.6L-2.25,0.4" style="fill:#1e84a5;"/>
                            <path d="M2.75,1.35L-0.35,2.8L-1.6,3L-3.1,2.45L-2.65,1.6L-3.7,1.2L-3.45,0.8L-4.05,0.2L-0.25,-3L4.05,-0.55L2.75,1.35M-2.65,1.6L-2.25,0.4M-3.45,0.8L-2.9,-0.15" style="fill:none;fill-rule:nonzero;stroke:#000;stroke-opacity:0.45;stroke-width:0.5px;"/>
                        </g>
                    </g>
                    <g id="sprite6" transform="matrix(-1,0,0,1,4.15,-5)">
                        <g id="shape4">
                            <path d="M2.75,-0.8L3.15,0.5L3.05,1.05C2.85,1.55 2.383,1.967 1.65,2.3L1.55,2.35L1.5,2.35L-0.75,2.6C-1.45,2.433 -2.083,2.067 -2.65,1.5C-3.217,0.933 -3.35,0.233 -3.05,-0.6L-2.3,-1.75L-1.15,-2.45L1.3,-2.35L2.75,-0.8" style="fill:#1e84a5;"/>
                            <path d="M2.75,-0.8L3.15,0.5L3.05,1.05C2.85,1.55 2.383,1.967 1.65,2.3L1.55,2.35L1.5,2.35L-0.75,2.6C-1.45,2.433 -2.083,2.067 -2.65,1.5C-3.217,0.933 -3.35,0.233 -3.05,-0.6L-2.3,-1.75L-1.15,-2.45L1.3,-2.35L2.75,-0.8Z" style="fill:none;fill-rule:nonzero;stroke:#000;stroke-opacity:0.45;stroke-width:0.5px;"/>
                        </g>
                    </g>
                    <g id="shape5">
                        <path d="M4.1,-1.75L4.1,-1.8L4.25,-2.1L4.35,-2.1L4.15,-1.8L4.1,-1.75" style="fill:#cfd1b8;"/>
                        <path d="M4.35,-2.1L4.15,-1.8L4.1,-1.75" style="fill:none;fill-rule:nonzero;stroke:#000;stroke-opacity:0.45;stroke-width:0.5px;"/>
                    </g>
                    <g id="sprite7" transform="matrix(-1,0,0,1,0.1,-4.5)">
                        <g id="shape6">
                            <path d="M-2.3,-4.25L-1.3,-4.65L0,-4.8L2.1,-4.35L3.4,-3.4L3.85,-2.85C4.483,-2.05 4.8,-1.1 4.8,0C4.8,1.333 4.333,2.467 3.4,3.4C2.7,4.1 1.9,4.55 1,4.75L0.9,4.75L0,4.4C-0.233,4.1 -0.283,3.667 -0.15,3.1L-0.15,2.85C0.45,2.617 1,2.267 1.5,1.8L2.15,1C2.083,-0.633 1.533,-1.917 0.5,-2.85C0,-3.283 -0.6,-3.633 -1.3,-3.9L-2.3,-4.25" style="fill:#1e84a5;"/>
                            <path d="M-2.3,-4.25L-1.3,-3.9C-0.6,-3.633 0,-3.283 0.5,-2.85C1.533,-1.917 2.083,-0.633 2.15,1L1.5,1.8C1,2.267 0.45,2.617 -0.15,2.85L-0.15,3.1C-0.283,3.667 -0.233,4.1 0,4.4L0.9,4.75L0,4.8C-1.333,4.8 -2.467,4.333 -3.4,3.4L-3.9,2.9L-4,2.75L-4,2.7L-4.15,2.4L-4.2,2.4C-4.633,1.667 -4.833,0.867 -4.8,0L-4.75,-0.7C-4.617,-1.733 -4.167,-2.633 -3.4,-3.4L-3.4,-3.45L-2.3,-4.25M-0.15,2.85L-0.1,2.65L-0.05,1.75C-0.05,1.25 -0.1,0.833 -0.2,0.5C-0.8,-1.333 -1.55,-2.183 -2.45,-2.05C-2.883,-2.017 -3.35,-1.75 -3.85,-1.25L-4.2,-0.45L-4.25,-0.4L-4.3,-0.3L-4.5,0.45C-4.633,1.017 -4.517,1.667 -4.15,2.4C-4.517,1.667 -4.633,1.017 -4.5,0.45L-4.3,-0.3L-4.25,-0.4L-4.2,-0.45L-3.85,-1.25C-3.35,-1.75 -2.883,-2.017 -2.45,-2.05C-1.55,-2.183 -0.8,-1.333 -0.2,0.5C-0.1,0.833 -0.05,1.25 -0.05,1.75L-0.1,2.65L-0.15,2.85" style="fill:#58b8ca;"/>
                            <path d="M0.9,4.75L1,4.75C1.9,4.55 2.7,4.1 3.4,3.4C4.333,2.467 4.8,1.333 4.8,0C4.8,-1.1 4.483,-2.05 3.85,-2.85L3.4,-3.4L2.1,-4.35L0,-4.8L-1.3,-4.65L-2.3,-4.25L-3.4,-3.45L-3.4,-3.4C-4.167,-2.633 -4.617,-1.733 -4.75,-0.7L-4.8,0C-4.833,0.867 -4.633,1.667 -4.2,2.4M-0.15,2.85L-0.15,3.1C-0.283,3.667 -0.233,4.1 0,4.4L0.9,4.75L0,4.8C-1.333,4.8 -2.467,4.333 -3.4,3.4L-3.9,2.9L-4,2.75L-4,2.7L-4.15,2.4C-4.517,1.667 -4.633,1.017 -4.5,0.45L-4.3,-0.3L-4.25,-0.4L-4.2,-0.45L-3.85,-1.25C-3.35,-1.75 -2.883,-2.017 -2.45,-2.05C-1.55,-2.183 -0.8,-1.333 -0.2,0.5C-0.1,0.833 -0.05,1.25 -0.05,1.75L-0.1,2.65L-0.15,2.85" style="fill:none;fill-rule:nonzero;stroke:#000;stroke-opacity:0.45;stroke-width:0.5px;"/>
                        </g>
                    </g>
                    <g id="sprite8" transform="matrix(-1,0,0,1,0.4,-10.35)">
                        <g id="shape7">
                            <path d="M-3.2,2.5L0.7,-2.7C1.633,-3.633 2.217,-3.633 2.45,-2.7C1.983,-0.733 1.983,0.617 2.45,1.35L3.2,2.35L1.75,3L0.3,3.35C-0.933,3.45 -2.1,3.167 -3.2,2.5" style="fill:#1e84a5;"/>
                            <path d="M3.2,2.35L2.45,1.35C1.983,0.617 1.983,-0.733 2.45,-2.7C2.217,-3.633 1.633,-3.633 0.7,-2.7L-3.2,2.5" style="fill:none;fill-rule:nonzero;stroke:#000;stroke-opacity:0.45;stroke-width:0.5px;"/>
                        </g>
                    </g>
                    <g id="sprite9" transform="matrix(-0.3199,0.3199,0.3199,0.3199,-1.15006,-5.69989)">
                        <g id="shape8">
                            <path d="M2.35,-0.95L0.65,4.85L2,6.2L-0.35,8.4L-1.9,6.8L-1.1,6.05L-2.45,-0.95C-1.283,-2.683 0.317,-2.683 2.35,-0.95" style="fill:#1e84a5;"/>
                            <path d="M2.35,-0.95L0.65,4.85L2,6.2L-0.35,8.4" style="fill:none;fill-rule:nonzero;stroke:#000;stroke-opacity:0.45;stroke-width:0.5px;"/>
                            <path d="M-0.35,8.4L-1.9,6.8L-1.1,6.05L-2.45,-0.95" style="fill:none;fill-rule:nonzero;stroke:#000;stroke-opacity:0.24;stroke-width:0.5px;"/>
                        </g>
                    </g>
                    <g id="sprite91" serif:id="sprite9" transform="matrix(-0.3734,-0.3545,-0.0747,0.2789,3.50005,-7.10013)">
                        <g id="shape81" serif:id="shape8">
                            <path d="M2.35,-0.95L0.65,4.85L2,6.2L-0.35,8.4L-1.9,6.8L-1.1,6.05L-2.45,-0.95C-1.283,-2.683 0.317,-2.683 2.35,-0.95" style="fill:#1e84a5;"/>
                            <path d="M2.35,-0.95L0.65,4.85L2,6.2L-0.35,8.4" style="fill:none;fill-rule:nonzero;stroke:#000;stroke-opacity:0.45;stroke-width:0.5px;"/>
                            <path d="M-0.35,8.4L-1.9,6.8L-1.1,6.05L-2.45,-0.95" style="fill:none;fill-rule:nonzero;stroke:#000;stroke-opacity:0.24;stroke-width:0.5px;"/>
                        </g>
                    </g>
                    <g id="sprite10" transform="matrix(-1,0,0,1,-5,1.35)">
                        <g id="shape9">
                            <path d="M3.3,0.35L3.4,2L2.1,2.65L0.95,2.25L0.25,2.45L-0.7,1.7L-1.25,2.25L-3.1,1.75L-3.35,0L-3.25,-0.1L3.3,0.35M0.65,0.35L0.95,2.25L0.65,0.35M-1.3,0.35L-0.7,1.7L-1.3,0.35" style="fill:#58b8ca;"/>
                            <path d="M-3.25,-0.1L-1.6,-2.65L2.25,-1.75L3.3,0.1L3.3,0.35L-3.25,-0.1" style="fill:#1e84a5;"/>
                            <path d="M-3.25,-0.1L-1.6,-2.65L2.25,-1.75L3.3,0.1L3.3,0.35L3.4,2L2.1,2.65L0.95,2.25L0.25,2.45L-0.7,1.7L-1.25,2.25L-3.1,1.75L-3.35,0L-3.25,-0.1" style="fill:none;fill-rule:nonzero;stroke:#000;stroke-opacity:0.45;stroke-width:0.5px;"/>
                            <path d="M-0.7,1.7L-1.3,0.35M0.95,2.25L0.65,0.35" style="fill:none;fill-rule:nonzero;stroke:#000;stroke-opacity:0.24;stroke-width:0.5px;"/>
                        </g>
                    </g>
                    <g id="sprite11" transform="matrix(-1,0,0,1,-4.65,-1.6)">
                        <g id="shape10">
                            <path d="M-3.4,-0.25C-2.6,0.617 -1.367,1.083 0.3,1.15C1.1,1.017 2.1,0.467 3.3,-0.5L3.4,0.05C3.4,0.65 3.117,1.233 2.55,1.8L2.45,1.9C1.85,2.4 1.2,2.65 0.5,2.65L-0.2,2.6L-1.65,1.95C-2.25,1.55 -2.75,1.017 -3.15,0.35L-3.4,-0.25" style="fill:#1e84a5;"/>
                            <path d="M-3.4,-0.25C-3.467,-0.717 -3.233,-1.183 -2.7,-1.65L-1.5,-2.4L0.1,-2.65C1.2,-2.65 2.017,-2.35 2.55,-1.75L3.3,-0.5C2.1,0.467 1.1,1.017 0.3,1.15C-1.367,1.083 -2.6,0.617 -3.4,-0.25" style="fill:#58b8ca;"/>
                            <path d="M3.3,-0.5L3.4,0.05C3.4,0.65 3.117,1.233 2.55,1.8L2.45,1.9C1.85,2.4 1.2,2.65 0.5,2.65L-0.2,2.6L-1.65,1.95C-2.25,1.55 -2.75,1.017 -3.15,0.35L-3.4,-0.25" style="fill:none;fill-rule:nonzero;stroke:#000;stroke-opacity:0.45;stroke-width:0.5px;"/>
                            <path d="M3.3,-0.5L2.55,-1.75C2.017,-2.35 1.2,-2.65 0.1,-2.65L-1.5,-2.4L-2.7,-1.65C-3.233,-1.183 -3.467,-0.717 -3.4,-0.25" style="fill:none;fill-rule:nonzero;stroke:#000;stroke-opacity:0.45;stroke-width:0.5px;"/>
                        </g>
                    </g>
                    <g id="sprite12" transform="matrix(-1,0,0,1,-3.25,-18.4)">
                        <g id="shape11">
                            <path d="M4.3,-5.95L-3.6,-1.4L-9.6,-4.5" style="fill:none;fill-rule:nonzero;stroke:#000;stroke-opacity:0.45;stroke-width:0.5px;"/>
                            <path d="M-11.05,-8.8C-11.317,-8.6 -11.617,-7.767 -11.95,-6.3L-12.45,-4L-12.55,-3.35L-12.5,-3.35L-11.65,-6.65L-11.05,-8.8" style="fill:#2296a2;"/>
                            <path d="M-12.55,-3.35L-12.6,-2.6L-12.6,-2.55L-12.65,-2.45L-12.6,-2.35L-12.5,-0.85C-12.2,0.317 -11.583,1.133 -10.65,1.6C-10.35,1.8 -10.217,2.167 -10.25,2.7L-9.6,2.7L-8.35,-0.4C-8.717,-1.733 -9.267,-2.633 -10,-3.1C-10,-2.567 -10.083,-2.117 -10.25,-1.75L-10.6,-1.35L-10.75,-1.35L-11.2,-2.35L-11.3,-3.5L-12.5,-3.35L-12.55,-3.35M-12.6,-2.6L-12.5,-3.35L-12.6,-2.6" style="fill:#28aebd;"/>
                            <path d="M-8.05,1.8C-7.817,1.2 -7.683,0.583 -7.65,-0.05L-7.15,-1.85L-7.75,-3.6C-7.85,-2.533 -8.05,-1.467 -8.35,-0.4L-8.05,1.8" style="fill:#13454a;"/>
                            <path d="M-9.6,2.7L-8.4,2.7L-8.05,1.8L-8.35,-0.4L-9.6,2.7" style="fill:#1e828c;"/>
                            <path d="M-5.65,-8.35L-8.3,-8.1L-8.3,-8.05C-8.533,-7.883 -8.867,-8.133 -9.3,-8.8C-9.5,-9.133 -9.75,-9.3 -10.05,-9.3L-11.05,-8.8L-11.65,-6.65L-12.5,-3.35L-11.3,-3.5L-11.3,-3.85L-11.05,-5.15L-10.6,-5.55C-10.367,-5.45 -10.217,-5.167 -10.15,-4.7C-10.017,-4.267 -9.967,-3.767 -10,-3.2L-10,-3.1C-9.267,-2.633 -8.717,-1.733 -8.35,-0.4C-8.05,-1.467 -7.85,-2.533 -7.75,-3.6L-7.15,-1.85C-6.75,-2.983 -6.283,-3.75 -5.75,-4.15L-4.95,-5.3L-4.3,-6.6C-4.433,-7.133 -4.883,-7.717 -5.65,-8.35" style="fill:#1e84a5;"/>
                            <path d="M-6.95,-9.4L-8.5,-8.55L-9.15,-9.5C-9.45,-9.967 -10.083,-9.733 -11.05,-8.8L-10.05,-9.3C-9.75,-9.3 -9.5,-9.133 -9.3,-8.8C-8.867,-8.133 -8.533,-7.883 -8.3,-8.05L-8.3,-8.1L-5.65,-8.35L-6.95,-9.4" style="fill:#58b8ca;"/>
                            <path d="M-11.05,-8.8C-10.083,-9.733 -9.45,-9.967 -9.15,-9.5L-8.5,-8.55L-6.95,-9.4M-12.6,-2.6L-12.6,-2.55L-12.65,-2.45L-12.6,-2.35L-12.5,-0.85C-12.2,0.317 -11.583,1.133 -10.65,1.6C-10.35,1.8 -10.217,2.167 -10.25,2.7M-10,-3.1L-10,-3.2C-9.967,-3.767 -10.017,-4.267 -10.15,-4.7C-10.217,-5.167 -10.367,-5.45 -10.6,-5.55L-11.05,-5.15L-11.3,-3.85L-11.3,-3.5L-11.2,-2.35L-10.75,-1.35L-10.6,-1.35L-10.25,-1.75C-10.083,-2.117 -10,-2.567 -10,-3.1M-12.5,-3.35L-11.65,-6.65L-11.05,-8.8M-12.5,-3.35L-12.6,-2.6" style="fill:none;fill-rule:nonzero;stroke:#000;stroke-opacity:0.45;stroke-width:0.5px;"/>
                            <path d="M-4.85,-12.2L-5.2,-11.9L-4.15,-12.05C-4.517,-12.15 -4.5,-12.333 -4.1,-12.6L-4.4,-12.45L-4.85,-12.2" style="fill:#28a7b5;"/>
                            <path d="M-4.85,-12.2L-4.4,-12.45L-4.1,-12.6C-4.5,-12.333 -4.517,-12.15 -4.15,-12.05L-3.05,-12.35C-1.75,-12.617 -1.367,-13.233 -1.9,-14.2C-2.4,-15.233 -3.5,-15.283 -5.2,-14.35L-6.8,-12.95C-7.133,-11.583 -6.483,-11.333 -4.85,-12.2" style="fill:#58b8ca;"/>
                            <path d="M-4.15,-12.05L-5.2,-11.9L-4.85,-12.2L-4.4,-12.45L-4.1,-12.6M-4.15,-12.05L-3.05,-12.35C-1.75,-12.617 -1.367,-13.233 -1.9,-14.2C-2.4,-15.233 -3.5,-15.283 -5.2,-14.35L-6.8,-12.95C-7.133,-11.583 -6.483,-11.333 -4.85,-12.2" style="fill:none;fill-rule:nonzero;stroke:#000;stroke-opacity:0.45;stroke-width:0.5px;"/>
                            <path d="M-5.35,-12.05L-4.8,-12.45L-4.65,-12.5L-6.35,-13.1L-6.65,-12.85C-7.683,-11.383 -7.117,-9.667 -4.95,-7.7L-4.75,-7.5L-2.05,-7.55L-4.6,-9.35L-4.6,-9.4C-5.8,-10.467 -6.05,-11.35 -5.35,-12.05" style="fill:#58b8ca;"/>
                            <path d="M-6.65,-12.85C-8.217,-11.25 -7.633,-8.917 -4.9,-5.85C-4.667,-5.383 -4.483,-4.85 -4.35,-4.25L-2.8,-5.15L-2.65,-5.2L-0.4,-6.8L-2.05,-7.55L-4.75,-7.5L-4.95,-7.7C-7.117,-9.667 -7.683,-11.383 -6.65,-12.85" style="fill:#1e84a5;"/>
                            <path d="M-6.35,-13.1L-6.65,-12.85C-8.217,-11.25 -7.633,-8.917 -4.9,-5.85C-4.667,-5.383 -4.483,-4.85 -4.35,-4.25M-0.4,-6.8L-2.05,-7.55L-4.6,-9.35L-4.6,-9.4C-5.8,-10.467 -6.05,-11.35 -5.35,-12.05" style="fill:none;fill-rule:nonzero;stroke:#000;stroke-opacity:0.45;stroke-width:0.5px;"/>
                            <path d="M-10.85,3.05L-10.85,2.7C-11.617,0.767 -12,-1.017 -12,-2.65C-12,-3.683 -11.833,-4.633 -11.5,-5.5L-8.3,-6.45C-5.3,-6.983 -4.133,-6.367 -4.8,-4.6C-5.433,-2.833 -7.367,-0.1 -10.6,3.6L-10.7,3.55L-10.7,3.05L-10.85,3.05M-10.85,2.7L-10.7,3.05L-10.85,2.7" style="fill:#1e84a5;"/>
                            <path d="M-10.85,3.05L-10.85,2.7C-11.617,0.767 -12,-1.017 -12,-2.65C-12,-3.683 -11.833,-4.633 -11.5,-5.5L-8.3,-6.45C-5.3,-6.983 -4.133,-6.367 -4.8,-4.6C-5.433,-2.833 -7.367,-0.1 -10.6,3.6L-10.7,3.55L-10.7,3.05L-10.85,2.7" style="fill:none;fill-rule:nonzero;stroke:#000;stroke-opacity:0.45;stroke-width:0.5px;"/>
                            <path d="M-9.2,-5.05C-8.8,-4.55 -8.533,-3.95 -8.4,-3.25L-8.3,-2.55C-8.167,-1.583 -8.283,-0.733 -8.65,0C-9.017,0.8 -9.483,1.217 -10.05,1.25C-10.683,1.383 -11.233,1.15 -11.7,0.55C-12.2,-0.117 -12.5,-0.917 -12.6,-1.85L-12.45,-3.65L-12.25,-4.55C-11.85,-5.283 -11.35,-5.717 -10.75,-5.85C-10.183,-5.917 -9.667,-5.65 -9.2,-5.05" style="fill:#155e76;"/>
                            <path d="M-9.55,-4.55C-9.15,-4.05 -8.883,-3.45 -8.75,-2.75L-8.65,-2.05C-8.517,-1.083 -8.633,-0.233 -9,0.5C-9.367,1.3 -9.833,1.717 -10.4,1.75C-11.033,1.883 -11.583,1.65 -12.05,1.05C-12.55,0.383 -12.85,-0.417 -12.95,-1.35L-12.8,-3.15L-12.6,-4.05C-12.2,-4.783 -11.7,-5.217 -11.1,-5.35C-10.533,-5.417 -10.017,-5.15 -9.55,-4.55" style="fill:#fff5e9;"/>
                            <path d="M-9.55,-4.55C-9.15,-4.05 -8.883,-3.45 -8.75,-2.75L-8.65,-2.05C-8.517,-1.083 -8.633,-0.233 -9,0.5C-9.367,1.3 -9.833,1.717 -10.4,1.75C-11.033,1.883 -11.583,1.65 -12.05,1.05C-12.55,0.383 -12.85,-0.417 -12.95,-1.35L-12.8,-3.15L-12.6,-4.05C-12.2,-4.783 -11.7,-5.217 -11.1,-5.35C-10.533,-5.417 -10.017,-5.15 -9.55,-4.55Z" style="fill:none;fill-rule:nonzero;stroke:#000;stroke-opacity:0.24;stroke-width:0.5px;"/>
                            <path d="M-10.55,1.5C-10.85,1.667 -11.217,1.583 -11.65,1.25L-12.3,-0.35C-12.467,-1.017 -12.5,-1.65 -12.4,-2.25C-12.233,-2.883 -12,-3.283 -11.7,-3.45C-11.4,-3.65 -11.083,-3.567 -10.75,-3.2C-10.35,-2.867 -10.067,-2.367 -9.9,-1.7C-9.767,-1.033 -9.8,-0.367 -10,0.3C-10.067,0.9 -10.25,1.3 -10.55,1.5"/>
                            <path d="M-10.55,1.5C-10.85,1.667 -11.217,1.583 -11.65,1.25L-12.3,-0.35C-12.467,-1.017 -12.5,-1.65 -12.4,-2.25C-12.233,-2.883 -12,-3.283 -11.7,-3.45C-11.4,-3.65 -11.083,-3.567 -10.75,-3.2C-10.35,-2.867 -10.067,-2.367 -9.9,-1.7C-9.767,-1.033 -9.8,-0.367 -10,0.3C-10.067,0.9 -10.25,1.3 -10.55,1.5Z" style="fill:none;fill-rule:nonzero;stroke:#000;stroke-opacity:0.3;stroke-width:0.05px;"/>
                            <path d="M-11.8,-1.7L-12.2,-1.8L-12.45,-2.35L-12.5,-3L-12.2,-3.45L-11.9,-3.35L-11.6,-2.85L-11.6,-2.15C-11.633,-1.917 -11.7,-1.767 -11.8,-1.7" style="fill:#fff;"/>
                            <path d="M-13.75,6.95C-13.817,7.283 -14.033,7.433 -14.4,7.4L-14.7,7.05L-14.45,6.45L-14.1,6.4C-13.767,6.5 -13.65,6.683 -13.75,6.95M-13.4,6.7L-13.4,6.35C-13.533,6.017 -13.817,5.783 -14.25,5.65L-14.95,5.7L-15.4,6.2L-15.45,6.55L-15.3,7.25L-15.05,7.65C-14.85,7.683 -14.783,7.767 -14.85,7.9L-14.5,8.05C-13.3,8.05 -12.9,7.667 -13.3,6.9L-13.4,6.7" style="fill:#1e84a5;"/>
                            <path d="M-13.75,6.95C-13.65,6.683 -13.767,6.5 -14.1,6.4L-14.45,6.45L-14.7,7.05L-14.4,7.4C-14.033,7.433 -13.817,7.283 -13.75,6.95" style="fill:#58b8ca;"/>
                            <path d="M-13.4,6.7L-13.4,6.35C-13.533,6.017 -13.817,5.783 -14.25,5.65L-14.95,5.7L-15.4,6.2L-15.45,6.55L-15.3,7.25L-15.05,7.65C-14.85,7.683 -14.783,7.767 -14.85,7.9L-14.5,8.05C-13.3,8.05 -12.9,7.667 -13.3,6.9L-13.4,6.7Z" style="fill:none;fill-rule:nonzero;stroke:#000;stroke-opacity:0.45;stroke-width:0.5px;"/>
                            <path d="M-11.9,4.05L-12.8,3.65L-12.4,5.35C-12.233,5.783 -12.183,6.217 -12.25,6.65C-12.217,7.083 -12.333,7.333 -12.6,7.4L-13.05,7.5L-13.15,7.5L-14.3,7.95L-14.15,8L-13.15,8.15L-12.65,8.1C-12.083,8.067 -11.7,7.817 -11.5,7.35C-11.4,7.017 -11.4,6.633 -11.5,6.2L-11.9,4.05" style="fill:#1e84a5;"/>
                            <path d="M-11.9,4.05L-11.5,6.2C-11.4,6.633 -11.4,7.017 -11.5,7.35C-11.7,7.817 -12.083,8.067 -12.65,8.1L-13.15,8.15L-14.15,8L-14.3,7.95M-13.15,7.5L-13.05,7.5L-12.6,7.4C-12.333,7.333 -12.217,7.083 -12.25,6.65C-12.183,6.217 -12.233,5.783 -12.4,5.35L-12.8,3.65" style="fill:none;fill-rule:nonzero;stroke:#000;stroke-opacity:0.45;stroke-width:0.5px;"/>
                            <path d="M-10.05,2.65L-10.4,2.4L-11.3,1.7L-11.4,1.55L-11.65,1.45L-12.05,1.25L-12.45,1.1C-12.817,0.967 -13.033,1.083 -13.1,1.45L-13.15,2L-13.15,2.3L-13.05,2.65L-12.7,3.9L-11.85,4.2L-12.15,2.95C-12.183,2.583 -12,2.417 -11.6,2.45L-10.5,3.25L-10.05,3.4L-10.05,2.65" style="fill:#1e84a5;"/>
                            <path d="M-10.05,2.65L-10.4,2.4L-11.3,1.7L-11.4,1.55L-11.65,1.45L-12.05,1.25L-12.45,1.1C-12.817,0.967 -13.033,1.083 -13.1,1.45L-13.15,2L-13.15,2.3L-13.05,2.65L-12.7,3.9M-11.85,4.2L-12.15,2.95C-12.183,2.583 -12,2.417 -11.6,2.45L-10.5,3.25L-10.05,3.4" style="fill:none;fill-rule:nonzero;stroke:#000;stroke-opacity:0.45;stroke-width:0.5px;"/>
                            <path d="M-2.6,-7.55C-1.633,-8.017 -0.5,-8.3 0.8,-8.4C2.367,-8.033 3.533,-7.383 4.3,-6.45C4.167,-4.817 0.9,-3.033 -5.5,-1.1L-9.65,-4.25L-9.6,-4.55L-7.65,-5.9L-5.95,-6.7L-4.45,-7.05L-4.4,-7.1L-2.65,-7.5L-2.6,-7.55" style="fill:#58b8ca;"/>
                            <path d="M4.3,-6.45L4.95,-3.05C5.05,-2.417 4.95,-1.483 4.65,-0.25C4.283,2.25 2.667,4.083 -0.2,5.25C-2.1,6.683 -4.083,7.4 -6.15,7.4C-7.917,7.4 -8.8,6.683 -8.8,5.25L-8.8,4.6C-9.433,2.533 -9.767,0.5 -9.8,-1.5L-9.8,-1.75L-9.65,-4.25L-5.5,-1.1C0.9,-3.033 4.167,-4.817 4.3,-6.45" style="fill:#1e84a5;"/>
                            <path d="M-2.6,-7.55C-1.633,-8.017 -0.5,-8.3 0.8,-8.4C2.367,-8.033 3.533,-7.383 4.3,-6.45L4.95,-3.05C5.05,-2.417 4.95,-1.483 4.65,-0.25M-8.8,4.6C-9.433,2.533 -9.767,0.5 -9.8,-1.5M-7.65,-5.9L-5.95,-6.7L-4.45,-7.05" style="fill:none;fill-rule:nonzero;stroke:#000;stroke-opacity:0.45;stroke-width:0.5px;"/>
                            <path d="M-4.7,-2.1C-6.867,-2.133 -8.817,-1.517 -10.55,-0.25L-10.7,0.85C-10.7,2.017 -10.333,3.583 -9.6,5.55C-9.667,6.717 -9.9,7.967 -10.3,9.3C-9.833,10.167 -8.9,10.817 -7.5,11.25C-6.467,10.983 -5.617,10.583 -4.95,10.05C-3.317,8.483 -0.65,7.683 3.05,7.65C3.483,6.583 3.683,5.55 3.65,4.55L3.65,4.05C3.717,2.283 3.367,0.567 2.6,-1.1L2.5,-0.85C0.4,-1.717 -1.617,-2.15 -3.55,-2.15L-4.7,-2.1" style="fill:#58b8ca;"/>
                            <path d="M-4.7,-2.1L-3.55,-2.15C-1.617,-2.15 0.4,-1.717 2.5,-0.85L2.6,-1.1C3.367,0.567 3.717,2.283 3.65,4.05L3.65,4.55C3.683,5.55 3.483,6.583 3.05,7.65C-0.65,7.683 -3.317,8.483 -4.95,10.05C-5.617,10.583 -6.467,10.983 -7.5,11.25C-8.9,10.817 -9.833,10.167 -10.3,9.3C-9.9,7.967 -9.667,6.717 -9.6,5.55C-10.333,3.583 -10.7,2.017 -10.7,0.85L-10.55,-0.25C-8.817,-1.517 -6.867,-2.133 -4.7,-2.1Z" style="fill:none;fill-rule:nonzero;stroke:#000;stroke-opacity:0.45;stroke-width:0.5px;"/>
                            <path d="M-0.1,-2.8C-2.633,-2.333 -4.6,-1.6 -6,-0.6C-7.4,0.367 -8.917,0.033 -10.55,-1.6L-10.4,-2.55L-9.6,-4.4L-9.35,-4.8L-6.4,-5.4C-0.167,-5.467 1.933,-4.6 -0.1,-2.8" style="fill:#58b8ca;"/>
                            <path d="M-10.55,-1.6C-8.917,0.033 -7.4,0.367 -6,-0.6C-4.6,-1.6 -2.633,-2.333 -0.1,-2.8C0.5,-3.167 1.317,-3.3 2.35,-3.2C3.417,-3.1 4.183,-1.933 4.65,0.3L5.7,2.85L4.2,5.3L0.2,6.8L-0.65,5.7L-3.05,7.25L-4.95,6.25L-8.75,8.2C-9.917,6.267 -10.717,4.5 -11.15,2.9L-11,1.5L-10.7,-0.65L-10.7,-0.7L-10.55,-1.6" style="fill:#1e84a5;"/>
                            <path d="M-10.55,-1.6L-10.7,-0.7L-10.7,-0.65L-11,1.5L-11.15,2.9C-10.717,4.5 -9.917,6.267 -8.75,8.2L-4.95,6.25L-3.05,7.25L-0.65,5.7L0.2,6.8L4.2,5.3L5.7,2.85M-9.6,-4.4L-10.4,-2.55L-10.55,-1.6L-9.6,-4.4Z" style="fill:none;fill-rule:nonzero;stroke:#000;stroke-opacity:0.45;stroke-width:0.5px;"/>
                            <path d="M-2.1,6.05C-3.1,6.15 -3.917,5.85 -4.55,5.15C-5.117,4.35 -5.333,3.367 -5.2,2.2C-5.067,1 -4.633,-0.033 -3.9,-0.9C-3.067,-1.833 -2.15,-2.35 -1.15,-2.45C-0.15,-2.517 0.65,-2.2 1.25,-1.5C1.85,-0.733 2.083,0.233 1.95,1.4C1.817,2.6 1.35,3.633 0.55,4.5C-0.217,5.467 -1.1,5.983 -2.1,6.05" style="fill:#155e76;"/>
                            <path d="M0.9,2C0.767,2.967 0.367,3.817 -0.3,4.55C-0.967,5.35 -1.7,5.767 -2.5,5.8C-3.367,5.933 -4.05,5.7 -4.55,5.1C-5.05,4.433 -5.25,3.633 -5.15,2.7C-5.083,2.067 -4.883,1.467 -4.55,0.9L-4,0C-3.333,-0.733 -2.567,-1.167 -1.7,-1.3C-0.9,-1.367 -0.25,-1.1 0.25,-0.5C0.683,0 0.9,0.6 0.9,1.3L0.9,2" style="fill:#fff5e9;"/>
                            <path d="M0.9,2C0.767,2.967 0.367,3.817 -0.3,4.55C-0.967,5.35 -1.7,5.767 -2.5,5.8C-3.367,5.933 -4.05,5.7 -4.55,5.1C-5.05,4.433 -5.25,3.633 -5.15,2.7C-5.083,2.067 -4.883,1.467 -4.55,0.9L-4,0C-3.333,-0.733 -2.567,-1.167 -1.7,-1.3C-0.9,-1.367 -0.25,-1.1 0.25,-0.5C0.683,0 0.9,0.6 0.9,1.3L0.9,2Z" style="fill:none;fill-rule:nonzero;stroke:#000;stroke-opacity:0.24;stroke-width:0.5px;"/>
                            <path d="M-2.55,5.5C-3.017,5.667 -3.5,5.583 -4,5.25C-4.333,4.85 -4.517,4.317 -4.55,3.65C-4.617,2.983 -4.517,2.35 -4.25,1.75L-2.9,0.55C-2.467,0.35 -2.083,0.433 -1.75,0.8C-1.25,1.133 -0.967,1.633 -0.9,2.3C-0.867,2.967 -1.067,3.633 -1.5,4.3C-1.767,4.9 -2.117,5.3 -2.55,5.5"/>
                            <path d="M-2.55,5.5C-3.017,5.667 -3.5,5.583 -4,5.25C-4.333,4.85 -4.517,4.317 -4.55,3.65C-4.617,2.983 -4.517,2.35 -4.25,1.75L-2.9,0.55C-2.467,0.35 -2.083,0.433 -1.75,0.8C-1.25,1.133 -0.967,1.633 -0.9,2.3C-0.867,2.967 -1.067,3.633 -1.5,4.3C-1.767,4.9 -2.117,5.3 -2.55,5.5Z" style="fill:none;fill-rule:nonzero;stroke:#000;stroke-opacity:0.3;stroke-width:0.05px;"/>
                            <path d="M-1,3.15L-1.5,3.05L-1.65,2.5L-1.55,1.85L-1.15,1.4L-0.7,1.5L-0.4,2L-0.65,2.7L-1,3.15" style="fill:#fff;"/>
                            <path d="M-6.65,4.1L-7,4.3C-7.233,4.6 -7.233,4.917 -7,5.25L-6.4,5.05L-5.85,5.1C-5.65,5.133 -5.467,5.217 -5.3,5.35L-4.85,5.7C-4.55,6.333 -4.433,6.983 -4.5,7.65L-4.75,10L-4.65,11.55C-4.417,12.317 -3.983,12.917 -3.35,13.35C-2.717,13.817 -2.2,14.067 -1.8,14.1L-1.35,14.05L-1.15,13.8L-0.85,13.6C-0.717,13.267 -0.7,12.933 -0.8,12.6C-0.933,12.1 -1.35,11.833 -2.05,11.8C-2.45,11.833 -2.75,11.967 -2.95,12.2L-2.9,12.5C-2.8,12.667 -2.85,12.767 -3.05,12.8L-3.5,12.35L-3.95,11.05L-3.85,9.4L-3.5,7.85L-3.4,7.5L-3.45,6.3C-3.55,5.8 -3.817,5.4 -4.25,5.1C-4.617,4.8 -4.967,4.633 -5.3,4.6L-5.6,4.55L-6.05,4.45C-6.183,4.35 -6.383,4.233 -6.65,4.1M-1.8,12.55C-1.6,12.683 -1.5,12.883 -1.5,13.15C-1.5,13.35 -1.6,13.45 -1.8,13.45C-2.133,13.45 -2.367,13.267 -2.5,12.9C-2.6,12.6 -2.483,12.45 -2.15,12.45L-1.8,12.55" style="fill:#1e84a5;"/>
                            <path d="M-1.8,12.55L-2.15,12.45C-2.483,12.45 -2.6,12.6 -2.5,12.9C-2.367,13.267 -2.133,13.45 -1.8,13.45C-1.6,13.45 -1.5,13.35 -1.5,13.15C-1.5,12.883 -1.6,12.683 -1.8,12.55" style="fill:#58b8ca;"/>
                            <path d="M-6.65,4.1C-6.383,4.233 -6.183,4.35 -6.05,4.45L-5.6,4.55L-5.3,4.6C-4.967,4.633 -4.617,4.8 -4.25,5.1C-3.817,5.4 -3.55,5.8 -3.45,6.3L-3.4,7.5L-3.5,7.85L-3.85,9.4L-3.95,11.05L-3.5,12.35L-3.05,12.8C-2.85,12.767 -2.8,12.667 -2.9,12.5L-2.95,12.2C-2.75,11.967 -2.45,11.833 -2.05,11.8C-1.35,11.833 -0.933,12.1 -0.8,12.6C-0.7,12.933 -0.717,13.267 -0.85,13.6L-1.15,13.8L-1.35,14.05L-1.8,14.1C-2.2,14.067 -2.717,13.817 -3.35,13.35C-3.983,12.917 -4.417,12.317 -4.65,11.55L-4.75,10L-4.5,7.65C-4.433,6.983 -4.55,6.333 -4.85,5.7L-5.3,5.35C-5.467,5.217 -5.65,5.133 -5.85,5.1L-6.4,5.05L-7,5.25" style="fill:none;fill-rule:nonzero;stroke:#000;stroke-opacity:0.45;stroke-width:0.5px;"/>
                            <path d="M7.8,-3.25L8.6,-3.25L8.15,-2.1L7.2,-1.8L7.45,-2.45L7.8,-3.25" style="fill:#65d2de;"/>
                            <path d="M2.35,-2.45C2.217,-2.783 2.283,-3.05 2.55,-3.25L7.8,-3.25L7.45,-2.45L2.35,-2.45" style="fill:#1a5f66;"/>
                            <path d="M0.6,5.35L1.2,4.6C2.2,3.067 2.517,1.867 2.15,1C1.983,-0.033 2.05,-1.183 2.35,-2.45L7.45,-2.45L7.2,-1.8C6.8,-0.4 7.533,0.667 9.4,1.4C10.6,1.833 11,2.517 10.6,3.45C8.2,1.817 4.867,2.45 0.6,5.35" style="fill:#1e84a5;"/>
                            <path d="M8.15,-2.1C7.75,-0.567 8.467,0.55 10.3,1.25C11.4,1.65 11.95,2.183 11.95,2.85C11.95,3.683 11.05,4.7 9.25,5.9L6.6,7.4C5.567,7.9 4.233,8.067 2.6,7.9L0,7.5L0.05,7.15C0.083,6.483 0.267,5.883 0.6,5.35C4.867,2.45 8.2,1.817 10.6,3.45C11,2.517 10.6,1.833 9.4,1.4C7.533,0.667 6.8,-0.4 7.2,-1.8L8.15,-2.1M8.25,4.4C8.317,4.1 8.217,3.917 7.95,3.85L7,3.95C6.533,4.117 6.117,4.35 5.75,4.65C5.383,4.983 5.167,5.3 5.1,5.6C5,5.8 5.017,5.95 5.15,6.05L5.3,6.2L6.45,6.05L7.55,5.35L7.6,5.3L8.25,4.4" style="fill:#58b8ca;"/>
                            <path d="M8.6,-3.25L8.15,-2.1C7.75,-0.567 8.467,0.55 10.3,1.25C11.4,1.65 11.95,2.183 11.95,2.85C11.95,3.683 11.05,4.7 9.25,5.9L6.6,7.4C5.567,7.9 4.233,8.067 2.6,7.9L0,7.5M8.25,4.4L7.6,5.3L7.55,5.35L6.45,6.05L5.3,6.2L5.15,6.05C5.017,5.95 5,5.8 5.1,5.6C5.167,5.3 5.383,4.983 5.75,4.65C6.117,4.35 6.533,4.117 7,3.95L7.95,3.85C8.217,3.917 8.317,4.1 8.25,4.4" style="fill:none;fill-rule:nonzero;stroke:#000;stroke-opacity:0.45;stroke-width:0.5px;"/>
                            <path d="M10.95,-4.7L11,-4.7C11.267,-4.833 11.4,-4.95 11.4,-5.05C11.233,-5.217 11.05,-5.217 10.85,-5.05L10.95,-4.7" style="fill:#28a7b5;"/>
                            <path d="M13.8,-6.05L13.4,-6.4C12.233,-7.467 11.45,-7.6 11.05,-6.8L10.85,-5.2L10.85,-5.05C11.05,-5.217 11.233,-5.217 11.4,-5.05C11.4,-4.95 11.267,-4.833 11,-4.7L10.9,-4.7C9.367,-3.933 7.817,-3.667 6.25,-3.9L5.55,-4.05C4.45,-4.317 3.65,-4.667 3.15,-5.1C2.317,-5.133 1.833,-4.967 1.7,-4.6L1.65,-4.35L1.65,-4.25L1.7,-4.2L4.75,-3.2L5.65,-3.05C7.95,-2.717 10.2,-3.017 12.4,-3.95C13.833,-4.717 14.3,-5.417 13.8,-6.05" style="fill:#58b8ca;"/>
                            <path d="M13.8,-6.05C14.3,-5.417 13.833,-4.717 12.4,-3.95C10.2,-3.017 7.95,-2.717 5.65,-3.05L4.75,-3.2L1.7,-4.2L1.65,-4.25L1.7,-2.75L1.8,-2.3C1.967,-1.933 2.267,-1.7 2.7,-1.6L7,-1.55L9.35,-1.85C10.483,-2.017 11.517,-2.283 12.45,-2.65C14.017,-3.283 14.683,-4.05 14.45,-4.95L13.8,-6.05" style="fill:#1e84a5;"/>
                            <path d="M10.85,-5.05L10.85,-5.2L11.05,-6.8C11.45,-7.6 12.233,-7.467 13.4,-6.4L13.8,-6.05L14.45,-4.95C14.683,-4.05 14.017,-3.283 12.45,-2.65C11.517,-2.283 10.483,-2.017 9.35,-1.85L7,-1.55L2.7,-1.6M3.15,-5.1C3.65,-4.667 4.45,-4.317 5.55,-4.05L6.25,-3.9C7.817,-3.667 9.367,-3.933 10.9,-4.7L11,-4.7C11.267,-4.833 11.4,-4.95 11.4,-5.05M10.85,-5.05L10.95,-4.7" style="fill:none;fill-rule:nonzero;stroke:#000;stroke-opacity:0.45;stroke-width:0.5px;"/>
                        </g>
                    </g>
                </g>
            </g>
        </g>
    </g>
</svg>
