<?xml version="1.0" encoding="UTF-8" standalone="no"?>
<!DOCTYPE svg PUBLIC "-//W3C//DTD SVG 1.1//EN" "http://www.w3.org/Graphics/SVG/1.1/DTD/svg11.dtd">
<svg width="100%" height="100%" viewBox="0 0 17 24" version="1.1" xmlns="http://www.w3.org/2000/svg" xmlns:xlink="http://www.w3.org/1999/xlink" xml:space="preserve" xmlns:serif="http://www.serif.com/" style="fill-rule:evenodd;clip-rule:evenodd;stroke-linecap:round;stroke-linejoin:round;">
    <g transform="matrix(1,0,0,1,8.25,11.8)">
        <g id="sprite0">
            <g id="sprite1">
                <g id="shape0">
                    <path d="M-4.25,1.6L-3.75,2.4L-3.25,1.85L-4.25,1.6M-2.1,2.45L-1.95,2.6L-1.85,2.55L-2.1,2.45M-3.2,-10.65L-3.2,-10.7C-1.767,-10.4 -0.667,-9.95 0.1,-9.35C0.167,-10.017 0.4,-10.667 0.8,-11.3C2.067,-10.833 2.983,-10 3.55,-8.8L4.8,-7.95L4.8,-8C5.1,-8.433 5.517,-8.517 6.05,-8.25C6.25,-7.583 6.317,-6.817 6.25,-5.95L6.55,-4.35L6.75,-3.9L7.1,-3.9C7.367,-3.533 7.45,-3.117 7.35,-2.65L7.7,-1.7L7.35,0.35L7.2,0.45L7.35,0.6L6.95,2.05C6.517,2.517 5.85,2.85 4.95,3.05L3.45,3.3L3.75,3.7L4,3.8L4.7,4.2L5.15,4.9C5.317,5.367 5.267,5.767 5,6.1L5.1,6.2L5.15,6.1L6,6.65L6.45,7.85L6.35,7.75L5.85,7.55L6.15,8.35L5.05,7.85L5,9.1L4.05,8.25L3.3,8.15L2.75,7.9C2.183,8.3 1.533,8.533 0.8,8.6L-0.25,8.45L-0.65,8.35L-0.25,9L-0.2,9.05L-0.35,10.1L-0.5,10.15L-0.65,11.15L-1.3,10.35L-1.45,10.4L-1.8,10.05L-2,10.2L-2.7,11.25L-2.75,11.35L-3,10.15L-3,10.05L-3.7,10.25L-4.35,10.75L-4.45,10.8L-4.25,9.6L-4.2,9.45L-4.2,9.1L-3.7,8.25L-4.05,7.35L-4,7L-3.55,6.25L-5.25,4.4L-7.05,4.9L-7.6,4.1L-7.75,3.8L-7.65,3.65L-7.35,3.3L-7.4,2.3L-6.5,2.65L-5.1,1.9L-4.8,1.3L-6.05,0C-7.05,-1.7 -7.467,-3.317 -7.3,-4.85L-5.45,-4.65C-5.517,-5.45 -5.417,-6.267 -5.15,-7.1L-3.95,-7.05L-3.95,-7.1C-4.117,-8.333 -3.867,-9.517 -3.2,-10.65" style="fill:#280a02;"/>
                    <path d="M-3.2,-10.65C-3.867,-9.517 -4.117,-8.333 -3.95,-7.1L-3.95,-7.05L-5.15,-7.1C-5.417,-6.267 -5.517,-5.45 -5.45,-4.65L-7.3,-4.85C-7.467,-3.317 -7.05,-1.7 -6.05,0L-4.8,1.3L-5.1,1.9L-6.5,2.65L-7.4,2.3L-7.35,3.3L-7.65,3.65L-7.75,3.8L-7.6,4.1L-7.05,4.9L-5.25,4.4L-3.55,6.25L-4,7L-4.05,7.35L-3.7,8.25L-4.2,9.1L-4.2,9.45L-4.25,9.6L-4.45,10.8L-4.35,10.75L-3.7,10.25L-3,10.05L-3,10.15L-2.75,11.35L-2.7,11.25L-2,10.2L-1.8,10.05L-1.45,10.4L-1.3,10.35L-0.65,11.15L-0.5,10.15L-0.35,10.1L-0.2,9.05L-0.25,9L-0.65,8.35L-0.25,8.45L0.8,8.6C1.533,8.533 2.183,8.3 2.75,7.9L3.3,8.15L4.05,8.25L5,9.1L5.05,7.85L6.15,8.35L5.85,7.55L6.35,7.75L6.45,7.85L6,6.65L5.15,6.1L5.1,6.2L5,6.1C5.267,5.767 5.317,5.367 5.15,4.9L4.7,4.2L4,3.8L3.75,3.7L3.45,3.3L4.95,3.05C5.85,2.85 6.517,2.517 6.95,2.05L7.35,0.6L7.2,0.45L7.35,0.35L7.7,-1.7L7.35,-2.65C7.45,-3.117 7.367,-3.533 7.1,-3.9L6.75,-3.9L6.55,-4.35L6.25,-5.95C6.317,-6.817 6.25,-7.583 6.05,-8.25C5.517,-8.517 5.1,-8.433 4.8,-8L4.8,-7.95L3.55,-8.8C2.983,-10 2.067,-10.833 0.8,-11.3C0.4,-10.667 0.167,-10.017 0.1,-9.35C-0.667,-9.95 -1.767,-10.4 -3.2,-10.7L-3.2,-10.65M-2.1,2.45L-1.85,2.55L-1.95,2.6L-2.1,2.45M-4.25,1.6L-3.25,1.85L-3.75,2.4L-4.25,1.6" style="fill:none;fill-rule:nonzero;stroke:#280a02;stroke-width:1px;"/>
                </g>
            </g>
            <g id="sprite2" transform="matrix(0.6,0,0,0.6,0.8001,8.2503)">
                <g id="sprite3" transform="matrix(-1,0,0,1,-3.75,-4.5)">
                    <g id="shape1">
                        <path d="M9.1,-3.6L8.75,-3.55L8.2,-4.75L9.9,-5.45L9.9,-5.35L9.1,-3.6" style="fill:#e9bda1;"/>
                        <path d="M9.9,-5.35L9.85,-3.55L9.1,-3.6L9.9,-5.35" style="fill:#b37e5c;"/>
                        <path d="M9.1,-3.6L8.75,-3.55L8.2,-4.75L9.9,-5.45L9.9,-5.35L9.85,-3.55L9.1,-3.6Z" style="fill:none;fill-rule:nonzero;stroke:#000;stroke-opacity:0.3;stroke-width:0.05px;"/>
                        <path d="M7,-2.95L6.3,-1.95L7,-2.95M1.75,-4.25L3.7,-2.25L6.85,-4.65L10.25,-2.45L9.35,-1.05L6.3,-1.95L2.5,2.25L-1.4,3L-2.5,0L-1.4,-3.4L1.75,-4.25" style="fill:#82281d;"/>
                        <path d="M10.25,-2.45L6.85,-4.65L3.7,-2.25L1.75,-4.25C3.383,-4.85 4.6,-5.567 5.4,-6.4C7.833,-5.333 9.483,-4.25 10.35,-3.15L10.5,-2.9L10.25,-2.45" style="fill:#cc4333;"/>
                        <path d="M6.3,-1.95L7,-2.95M10.25,-2.45L10.5,-2.9L10.35,-3.15C9.483,-4.25 7.833,-5.333 5.4,-6.4C4.6,-5.567 3.383,-4.85 1.75,-4.25L-1.4,-3.4L-2.5,0L-1.4,3L2.5,2.25L6.3,-1.95L9.35,-1.05L10.25,-2.45" style="fill:none;fill-rule:nonzero;stroke:#000;stroke-opacity:0.3;stroke-width:0.05px;"/>
                        <path d="M5.45,-4.75L5.05,-4.5L3.8,-5.15L5.3,-7.7L5.4,-7.6L5.45,-4.75" style="fill:#e9bda1;"/>
                        <path d="M5.4,-7.6L6.4,-5.45L5.45,-4.75L5.4,-7.6" style="fill:#b37e5c;"/>
                        <path d="M5.45,-4.75L5.05,-4.5L3.8,-5.15L5.3,-7.7L5.4,-7.6L6.4,-5.45L5.45,-4.75Z" style="fill:none;fill-rule:nonzero;stroke:#000;stroke-opacity:0.3;stroke-width:0.05px;"/>
                        <path d="M0.95,-3.2L0.7,-2.9L-1.1,-3.25L-0.35,-5.9L-0.25,-5.8L0.95,-3.2" style="fill:#e9bda1;"/>
                        <path d="M-0.25,-5.8L1.75,-4.05L0.95,-3.2L-0.25,-5.8" style="fill:#b37e5c;"/>
                        <path d="M-0.25,-5.8L1.75,-4.05L0.95,-3.2L0.7,-2.9L-1.1,-3.25L-0.35,-5.9L-0.25,-5.8Z" style="fill:none;fill-rule:nonzero;stroke:#000;stroke-opacity:0.3;stroke-width:0.05px;"/>
                    </g>
                </g>
                <g id="sprite4" transform="matrix(-1,0,0,1,-5.6,-9.45)">
                    <g id="shape2">
                        <path d="M2,-0.3C2.4,0.3 2.667,0.95 2.8,1.65L2.9,2L2.05,1.65L-0.85,1.15L-2.9,1.6C-1.2,0.433 -0.117,-0.767 0.35,-2L2,-0.3" style="fill:#ff8a7c;"/>
                        <path d="M2,-0.3C2.4,0.3 2.667,0.95 2.8,1.65L2.9,2L2.05,1.65L-0.85,1.15L-2.9,1.6C-1.2,0.433 -0.117,-0.767 0.35,-2L2,-0.3Z" style="fill:none;fill-rule:nonzero;stroke:#000;stroke-opacity:0.4;stroke-width:0.05px;"/>
                    </g>
                </g>
                <g id="sprite5" transform="matrix(-1,0,0,1,3.85,-3)">
                    <g id="shape3">
                        <path d="M2.75,1.35L-0.35,2.8L-1.6,3L-3.1,2.45L-2.65,1.6L-3.7,1.2L-3.45,0.8L-4.05,0.2L-0.25,-3L4.05,-0.55L2.75,1.35M-2.9,-0.15L-3.45,0.8L-2.9,-0.15M-2.25,0.4L-2.65,1.6L-2.25,0.4" style="fill:#82281d;"/>
                        <path d="M2.75,1.35L-0.35,2.8L-1.6,3L-3.1,2.45L-2.65,1.6L-3.7,1.2L-3.45,0.8L-4.05,0.2L-0.25,-3L4.05,-0.55L2.75,1.35M-2.65,1.6L-2.25,0.4M-3.45,0.8L-2.9,-0.15" style="fill:none;fill-rule:nonzero;stroke:#000;stroke-opacity:0.3;stroke-width:0.05px;"/>
                        <path d="M-3.15,0.1L-3.3,1.3L-5.45,2.2L-3.15,0.1" style="fill:#b37e5c;"/>
                        <path d="M-5.45,2.2L-5.6,2.3L-4.8,0.35C-4.5,-0.017 -4.05,-0.317 -3.45,-0.55L-3.15,0.1L-5.45,2.2" style="fill:#e9bda1;"/>
                        <path d="M-3.15,0.1L-3.3,1.3L-5.45,2.2L-5.6,2.3L-4.8,0.35C-4.5,-0.017 -4.05,-0.317 -3.45,-0.55L-3.15,0.1Z" style="fill:none;fill-rule:nonzero;stroke:#000;stroke-opacity:0.45;stroke-width:0.05px;"/>
                        <path d="M-2.65,0.95L-2.8,2.15L-4.95,3.05L-2.65,0.95" style="fill:#b37e5c;"/>
                        <path d="M-4.95,3.05L-5.1,3.15L-4.3,1.2C-4,0.833 -3.55,0.533 -2.95,0.3L-2.65,0.95L-4.95,3.05" style="fill:#e9bda1;"/>
                        <path d="M-4.95,3.05L-5.1,3.15L-4.3,1.2C-4,0.833 -3.55,0.533 -2.95,0.3L-2.65,0.95L-2.8,2.15L-4.95,3.05Z" style="fill:none;fill-rule:nonzero;stroke:#000;stroke-opacity:0.45;stroke-width:0.05px;"/>
                        <path d="M-1.8,1.6C-1.6,1.9 -1.467,2.317 -1.4,2.85L-3.1,4.3L-1.8,1.6" style="fill:#b37e5c;"/>
                        <path d="M-3.1,4.3L-3.2,4.45L-3.25,2.35L-2.3,1.1L-1.8,1.6L-3.1,4.3" style="fill:#e9bda1;"/>
                        <path d="M-3.1,4.3L-3.2,4.45L-3.25,2.35L-2.3,1.1L-1.8,1.6C-1.6,1.9 -1.467,2.317 -1.4,2.85L-3.1,4.3Z" style="fill:none;fill-rule:nonzero;stroke:#000;stroke-opacity:0.45;stroke-width:0.05px;"/>
                    </g>
                </g>
                <g id="sprite6" transform="matrix(-1,0,0,1,4.15,-5)">
                    <g id="shape4">
                        <path d="M2.75,-0.8L3.15,0.5L3.05,1.05C2.85,1.55 2.383,1.967 1.65,2.3L1.55,2.35L1.5,2.35L-0.75,2.6C-1.45,2.433 -2.083,2.067 -2.65,1.5C-3.217,0.933 -3.35,0.233 -3.05,-0.6L-2.3,-1.75L-1.15,-2.45L1.3,-2.35L2.75,-0.8" style="fill:#82281d;"/>
                        <path d="M2.75,-0.8L3.15,0.5L3.05,1.05C2.85,1.55 2.383,1.967 1.65,2.3L1.55,2.35L1.5,2.35L-0.75,2.6C-1.45,2.433 -2.083,2.067 -2.65,1.5C-3.217,0.933 -3.35,0.233 -3.05,-0.6L-2.3,-1.75L-1.15,-2.45L1.3,-2.35L2.75,-0.8Z" style="fill:none;fill-rule:nonzero;stroke:#000;stroke-opacity:0.3;stroke-width:0.05px;"/>
                    </g>
                </g>
                <g id="shape5">
                    <path d="M4.1,-1.75L4.1,-1.8L4.25,-2.1L4.35,-2.1L4.15,-1.8L4.1,-1.75" style="fill:#cfd1b8;"/>
                    <path d="M4.35,-2.1L4.15,-1.8L4.1,-1.75" style="fill:none;fill-rule:nonzero;stroke:#000;stroke-opacity:0.45;stroke-width:0.5px;"/>
                </g>
                <g id="sprite7" transform="matrix(-1,0,0,1,0.1,-4.5)">
                    <g id="shape6">
                        <path d="M3.45,-0.4L3.55,0.15L3.55,0.9C3.55,2.2 3.083,3.4 2.15,4.5L1.85,4.85L0.05,5.1C-1.717,4.933 -3.133,4.167 -4.2,2.8C-4.9,1.867 -5.283,0.85 -5.35,-0.25L-5.35,-0.3C-4.683,0.933 -3.467,1.65 -1.7,1.85C0.233,2.017 1.85,1.617 3.15,0.65L3.45,-0.55L3.45,-0.4M-3.5,-4.65L-1.95,-4.85C-0.583,-4.85 0.6,-4.4 1.6,-3.5L1.65,-3.45C0.617,-2.883 -0.55,-2.567 -1.85,-2.5L-4.9,-2.8C-4.567,-3.533 -4.1,-4.15 -3.5,-4.65M-3.7,-3.7C-3.2,-3.167 -2.583,-2.767 -1.85,-2.5C-2.583,-2.767 -3.2,-3.167 -3.7,-3.7M-3.65,2.85C-2.35,3.85 -0.75,4.133 1.15,3.7C-0.75,4.133 -2.35,3.85 -3.65,2.85" style="fill:#b15112;"/>
                        <path d="M1.6,-3.5L3.8,-3.85L3.45,-0.4L3.45,-0.55C3.15,-1.75 2.55,-2.717 1.65,-3.45L1.6,-3.5" style="fill:#cc4333;"/>
                        <path d="M1.65,-3.45C2.55,-2.717 3.15,-1.75 3.45,-0.55L3.15,0.65C1.85,1.617 0.233,2.017 -1.7,1.85C-3.467,1.65 -4.683,0.933 -5.35,-0.3L-5.35,-0.95L-5.3,-1.5L-4.9,-2.8L-1.85,-2.5C-0.55,-2.567 0.617,-2.883 1.65,-3.45M2.05,-2.3L-1.85,-2.5L2.05,-2.3M1.05,0.65C-1.317,1.183 -3.3,0.783 -4.9,-0.55C-3.3,0.783 -1.317,1.183 1.05,0.65" style="fill:#ff8219;"/>
                        <path d="M3.45,-0.4L3.8,-3.85L1.6,-3.5C0.6,-4.4 -0.583,-4.85 -1.95,-4.85L-3.5,-4.65L-3.3,-4.85L-3.15,-4.95C-2.083,-5.817 -0.9,-6.233 0.4,-6.2C1.8,-6.2 3,-5.733 4,-4.8C5.1,-3.9 5.733,-2.7 5.9,-1.2L5.9,-0.45C5.9,0.85 5.433,2.05 4.5,3.15L2.7,4.55L1.85,4.85L2.15,4.5C3.083,3.4 3.55,2.2 3.55,0.9L3.55,0.15L3.45,-0.4" style="fill:#82281d;"/>
                        <path d="M3.45,-0.4L3.55,0.15L3.55,0.9C3.55,2.2 3.083,3.4 2.15,4.5L1.85,4.85L2.7,4.55L4.5,3.15C5.433,2.05 5.9,0.85 5.9,-0.45L5.9,-1.2C5.733,-2.7 5.1,-3.9 4,-4.8C3,-5.733 1.8,-6.2 0.4,-6.2C-0.9,-6.233 -2.083,-5.817 -3.15,-4.95L-3.3,-4.85L-3.5,-4.65L-1.95,-4.85C-0.583,-4.85 0.6,-4.4 1.6,-3.5L1.65,-3.45C2.55,-2.717 3.15,-1.75 3.45,-0.55L3.45,-0.4M-5.35,-0.3L-5.35,-0.25C-5.283,0.85 -4.9,1.867 -4.2,2.8C-3.133,4.167 -1.717,4.933 0.05,5.1L1.85,4.85M-5.35,-0.3L-5.35,-0.95L-5.3,-1.5L-4.9,-2.8C-4.567,-3.533 -4.1,-4.15 -3.5,-4.65M-1.85,-2.5C-2.583,-2.767 -3.2,-3.167 -3.7,-3.7M-1.85,-2.5L2.05,-2.3M1.15,3.7C-0.75,4.133 -2.35,3.85 -3.65,2.85M-4.9,-0.55C-3.3,0.783 -1.317,1.183 1.05,0.65" style="fill:none;fill-rule:nonzero;stroke:#000;stroke-opacity:0.3;stroke-width:0.05px;"/>
                    </g>
                </g>
                <g id="sprite8" transform="matrix(-0.9954,0.0957,0.0957,0.9954,0.55,-10.7001)">
                    <g id="shape7">
                        <path d="M0.1,-2.25C1.133,-2.35 2.05,-2.1 2.85,-1.5C3.55,-1.033 3.917,-0.383 3.95,0.45C3.917,1.117 3.583,1.733 2.95,2.3L2.85,2.35L2.75,2.45L2.15,2.7L0.05,3.15C-1.017,3.083 -1.883,2.833 -2.55,2.4L-2.7,2.3L-3.3,1.6L-3.6,0.85L-3.65,0.5C-3.683,-0.267 -3.333,-0.933 -2.6,-1.5C-1.967,-2 -1.167,-2.25 -0.2,-2.25L0.1,-2.25" style="fill:#82281d;"/>
                        <path d="M0.1,-2.25L-0.2,-2.25C-1.167,-2.25 -1.967,-2 -2.6,-1.5C-3.333,-0.933 -3.683,-0.267 -3.65,0.5L-3.6,0.85L-3.3,1.6L-2.7,2.3L-2.55,2.4C-1.883,2.833 -1.017,3.083 0.05,3.15L2.15,2.7L2.75,2.45L2.85,2.35L2.95,2.3C3.583,1.733 3.917,1.117 3.95,0.45C3.917,-0.383 3.55,-1.033 2.85,-1.5C2.05,-2.1 1.133,-2.35 0.1,-2.25Z" style="fill:none;fill-rule:nonzero;stroke:#000;stroke-opacity:0.3;stroke-width:0.05px;"/>
                    </g>
                </g>
                <g id="sprite9" transform="matrix(-0.3199,0.3199,0.3199,0.3199,-1.14995,-5.69985)">
                    <g id="shape8">
                        <path d="M2,-4.65C1.567,-5.117 0.9,-5.5 0,-5.8C-1.767,-6.233 -2.333,-5.55 -1.7,-3.75L-4.35,-6.55C-4.683,-7.817 -4.367,-8.633 -3.4,-9C-0.667,-8 1.15,-6.567 2.05,-4.7L2,-4.65" style="fill:#82281d;"/>
                        <path d="M-1.7,-3.75C-2.333,-5.55 -1.767,-6.233 0,-5.8C0.9,-5.5 1.567,-5.117 2,-4.65C3.8,-1.983 3.917,0.883 2.35,3.95L1.85,5.65L1.3,4.7L0.75,5.7L0.4,4.7L-0.4,5.5L-0.45,3.2C-1.617,1.6 -1.95,-0.65 -1.45,-3.55L-1.5,-3.6L-1.7,-3.75M0.05,3.6L-0.45,3.2L0.05,3.6" style="fill:#cc4333;"/>
                        <path d="M2,-4.65L2.05,-4.7C1.15,-6.567 -0.667,-8 -3.4,-9C-4.367,-8.633 -4.683,-7.817 -4.35,-6.55L-1.7,-3.75L-1.5,-3.6L-1.45,-3.55C-1.95,-0.65 -1.617,1.6 -0.45,3.2L0.05,3.6M-0.45,3.2L-0.4,5.5L0.4,4.7L0.75,5.7L1.3,4.7L1.85,5.65L2.35,3.95C3.917,0.883 3.8,-1.983 2,-4.65L-0.45,3.2Z" style="fill:none;fill-rule:nonzero;stroke:#000;stroke-opacity:0.3;stroke-width:0.05px;"/>
                    </g>
                </g>
                <g id="sprite91" serif:id="sprite9" transform="matrix(0.3176,0.2195,-0.1715,0.1899,4.2501,-5.99985)">
                    <g id="shape81" serif:id="shape8">
                        <path d="M2,-4.65C1.567,-5.117 0.9,-5.5 0,-5.8C-1.767,-6.233 -2.333,-5.55 -1.7,-3.75L-4.35,-6.55C-4.683,-7.817 -4.367,-8.633 -3.4,-9C-0.667,-8 1.15,-6.567 2.05,-4.7L2,-4.65" style="fill:#82281d;"/>
                        <path d="M-1.7,-3.75C-2.333,-5.55 -1.767,-6.233 0,-5.8C0.9,-5.5 1.567,-5.117 2,-4.65C3.8,-1.983 3.917,0.883 2.35,3.95L1.85,5.65L1.3,4.7L0.75,5.7L0.4,4.7L-0.4,5.5L-0.45,3.2C-1.617,1.6 -1.95,-0.65 -1.45,-3.55L-1.5,-3.6L-1.7,-3.75M0.05,3.6L-0.45,3.2L0.05,3.6" style="fill:#cc4333;"/>
                        <path d="M2,-4.65L2.05,-4.7C1.15,-6.567 -0.667,-8 -3.4,-9C-4.367,-8.633 -4.683,-7.817 -4.35,-6.55L-1.7,-3.75L-1.5,-3.6L-1.45,-3.55C-1.95,-0.65 -1.617,1.6 -0.45,3.2L0.05,3.6M-0.45,3.2L-0.4,5.5L0.4,4.7L0.75,5.7L1.3,4.7L1.85,5.65L2.35,3.95C3.917,0.883 3.8,-1.983 2,-4.65L-0.45,3.2Z" style="fill:none;fill-rule:nonzero;stroke:#000;stroke-opacity:0.3;stroke-width:0.05px;"/>
                    </g>
                </g>
                <g id="sprite10" transform="matrix(-1,0,0,1,-5,1.35)">
                    <g id="shape9">
                        <path d="M3.3,0.35L3.25,1.65L2.55,2L1.25,1.7L0.1,2.25L-0.7,1.7L-1.25,2.25L-3.1,1.75L-3.35,0L-3.25,-0.1C0.317,-0.867 2.5,-0.717 3.3,0.35M0.65,0.35L1.25,1.7L0.65,0.35M-1.3,0.35L-0.7,1.7L-1.3,0.35" style="fill:#cc4333;"/>
                        <path d="M-3.25,-0.1L-1.6,-2.65L2.25,-1.75L3.3,0.1L3.3,0.35C2.5,-0.717 0.317,-0.867 -3.25,-0.1" style="fill:#82281d;"/>
                        <path d="M-3.25,-0.1L-1.6,-2.65L2.25,-1.75L3.3,0.1L3.3,0.35L3.25,1.65L2.55,2L1.25,1.7L0.1,2.25L-0.7,1.7L-1.25,2.25L-3.1,1.75L-3.35,0L-3.25,-0.1M-0.7,1.7L-1.3,0.35M1.25,1.7L0.65,0.35" style="fill:none;fill-rule:nonzero;stroke:#000;stroke-opacity:0.3;stroke-width:0.05px;"/>
                        <path d="M3.6,2.85L2.15,0.35L2.55,-0.2C3.017,0.133 3.317,0.5 3.45,0.9L3.75,2.95L3.6,2.85" style="fill:#e9bda1;"/>
                        <path d="M3.6,2.85L2,1.6C1.967,1.067 2.017,0.65 2.15,0.35L3.6,2.85" style="fill:#b37e5c;"/>
                        <path d="M2.15,0.35C2.017,0.65 1.967,1.067 2,1.6L3.6,2.85L3.75,2.95L3.45,0.9C3.317,0.5 3.017,0.133 2.55,-0.2L2.15,0.35Z" style="fill:none;fill-rule:nonzero;stroke:#000;stroke-opacity:0.45;stroke-width:0.05px;"/>
                        <path d="M0.3,0.85C0.467,0.683 0.65,0.567 0.85,0.5C1.15,0.933 1.317,1.383 1.35,1.85L0.9,3.85L0.8,3.7L0.3,0.85" style="fill:#e9bda1;"/>
                        <path d="M0.3,0.85L0.8,3.7L-0.3,1.95L0.3,0.85" style="fill:#b37e5c;"/>
                        <path d="M0.8,3.7L0.9,3.85L1.35,1.85C1.317,1.383 1.15,0.933 0.85,0.5C0.65,0.567 0.467,0.683 0.3,0.85L-0.3,1.95L0.8,3.7Z" style="fill:none;fill-rule:nonzero;stroke:#000;stroke-opacity:0.45;stroke-width:0.05px;"/>
                        <path d="M-2.1,0.2L-1.7,0.6C-1.467,0.867 -1.3,1.25 -1.2,1.75L-2.6,3.5L-2.65,3L-2.1,0.2" style="fill:#e9bda1;"/>
                        <path d="M-2.65,3L-2.85,1.45L-2.15,0.15L-2.1,0.2L-2.65,3" style="fill:#b37e5c;"/>
                        <path d="M-2.65,3L-2.85,1.45L-2.15,0.15L-1.7,0.6C-1.467,0.867 -1.3,1.25 -1.2,1.75L-2.6,3.5L-2.65,3Z" style="fill:none;fill-rule:nonzero;stroke:#000;stroke-opacity:0.45;stroke-width:0.05px;"/>
                    </g>
                </g>
                <g id="sprite11" transform="matrix(-1,0,0,1,-4.65,-1.6)">
                    <g id="shape10">
                        <path d="M-3.4,-0.25C-3.467,-0.717 -3.233,-1.183 -2.7,-1.65L-1.5,-2.4L0.1,-2.65C1.2,-2.65 2.017,-2.35 2.55,-1.75L3.3,-0.5C2.1,0.467 1.1,1.017 0.3,1.15C-1.367,1.083 -2.6,0.617 -3.4,-0.25" style="fill:#cc4333;"/>
                        <path d="M-3.4,-0.25C-2.6,0.617 -1.367,1.083 0.3,1.15C1.1,1.017 2.1,0.467 3.3,-0.5L3.4,0.05C3.4,0.65 3.117,1.233 2.55,1.8L2.45,1.9C1.85,2.4 1.2,2.65 0.5,2.65L-0.2,2.6L-1.65,1.95C-2.25,1.55 -2.75,1.017 -3.15,0.35L-3.4,-0.25" style="fill:#82281d;"/>
                        <path d="M3.3,-0.5L2.55,-1.75C2.017,-2.35 1.2,-2.65 0.1,-2.65L-1.5,-2.4L-2.7,-1.65C-3.233,-1.183 -3.467,-0.717 -3.4,-0.25L-3.15,0.35C-2.75,1.017 -2.25,1.55 -1.65,1.95L-0.2,2.6L0.5,2.65C1.2,2.65 1.85,2.4 2.45,1.9L2.55,1.8C3.117,1.233 3.4,0.65 3.4,0.05L3.3,-0.5Z" style="fill:none;fill-rule:nonzero;stroke:#000;stroke-opacity:0.3;stroke-width:0.05px;"/>
                    </g>
                </g>
                <g id="sprite12" transform="matrix(-1,0,0,1,-3.25,-18.4)">
                    <g id="shape11">
                        <path d="M-9.95,-8.65L-10.45,-4.75L-12.25,-4.85C-12.483,-6.45 -12.4,-7.867 -12,-9.1C-11.1,-9.533 -10.417,-9.383 -9.95,-8.65" style="fill:#82281d;"/>
                        <path d="M-9.95,-8.65C-10.417,-9.383 -11.1,-9.533 -12,-9.1C-12.4,-7.867 -12.483,-6.45 -12.25,-4.85L-10.45,-4.75L-9.95,-8.65Z" style="fill:none;fill-rule:nonzero;stroke:#000;stroke-opacity:0.3;stroke-width:0.05px;"/>
                        <path d="M-10.15,9.75C-4.35,9.883 0.233,8.15 3.6,4.55L3.8,7.4C1.567,9.167 -1.783,10.083 -6.25,10.15L-10.15,9.75" style="fill:#b15112;"/>
                        <path d="M-10.15,9.75C-11.65,9.417 -12.767,8.85 -13.5,8.05L-14.15,5.7L-13.4,4.75C-9.467,6.483 -4.733,6.1 0.8,3.6L3.45,1.25L3.6,4.55C0.233,8.15 -4.35,9.883 -10.15,9.75" style="fill:#ff8219;"/>
                        <path d="M3.45,1.25L0.8,3.6C-4.733,6.1 -9.467,6.483 -13.4,4.75L-14.15,5.7L-13.5,8.05C-12.767,8.85 -11.65,9.417 -10.15,9.75L-6.25,10.15C-1.783,10.083 1.567,9.167 3.8,7.4" style="fill:none;fill-rule:nonzero;stroke:#000;stroke-opacity:0.3;stroke-width:0.05px;"/>
                        <path d="M3.45,-13.05C4.517,-11.183 4.933,-9.217 4.7,-7.15L2.85,-8.6C3.15,-9 3.35,-10.483 3.45,-13.05M6.7,-7.15C7.467,-4.75 7.4,-2.5 6.5,-0.4C5.733,0.833 4.733,1.833 3.5,2.6C5.467,0.3 6.533,-2.95 6.7,-7.15M-3.95,-9.65L-4.05,-9.7C-3.45,-11 -3.183,-12.483 -3.25,-14.15C-2.583,-13.083 -2.2,-12.017 -2.1,-10.95L-3.95,-9.65" style="fill:#82281d;"/>
                        <path d="M-2.1,-10.95C-0.833,-11.95 1,-12.683 3.4,-13.15L3.45,-13.05C3.35,-10.483 3.15,-9 2.85,-8.6L4.7,-7.15L4.7,-7.1L6.7,-7.2L6.7,-7.15C6.533,-2.95 5.467,0.3 3.5,2.6L2.95,2.9C4.35,-4.7 2.05,-8.883 -3.95,-9.65L-2.1,-10.95M-4.05,-9.7C-5.183,-9.833 -6.467,-9.85 -7.9,-9.75C-7,-11.883 -5.45,-13.35 -3.25,-14.15C-3.183,-12.483 -3.45,-11 -4.05,-9.7" style="fill:#cc4333;"/>
                        <path d="M-2.1,-10.95C-0.833,-11.95 1,-12.683 3.4,-13.15L3.45,-13.05C4.517,-11.183 4.933,-9.217 4.7,-7.15L4.7,-7.1L6.7,-7.2L6.7,-7.15C7.467,-4.75 7.4,-2.5 6.5,-0.4C5.733,0.833 4.733,1.833 3.5,2.6L2.95,2.9M-3.95,-9.65L-4.05,-9.7M-7.9,-9.75C-7,-11.883 -5.45,-13.35 -3.25,-14.15C-2.583,-13.083 -2.2,-12.017 -2.1,-10.95L-7.9,-9.75Z" style="fill:none;fill-rule:nonzero;stroke:#000;stroke-opacity:0.3;stroke-width:0.05px;"/>
                        <path d="M0.7,-10C1.533,-9.6 2.317,-9.067 3.05,-8.4C4.85,-6.733 5.75,-4.7 5.75,-2.3L5.75,-1.85C5.65,0.35 4.75,2.233 3.05,3.8C1.217,5.5 -0.983,6.35 -3.55,6.35C-6.117,6.35 -8.317,5.5 -10.15,3.8C-11.483,2.567 -12.333,1.117 -12.7,-0.55C-11.5,-1.617 -7.367,-0.967 -0.3,1.4C2,0.933 3.283,-0.617 3.55,-3.25C3.65,-4.383 3.217,-5.083 2.25,-5.35C-5.983,-3.117 -10.717,-3.367 -11.95,-6.1C-11.517,-6.933 -10.917,-7.7 -10.15,-8.4L-7.65,-10.1L-5.25,-10.8L-3.55,-10.95C-2.017,-10.95 -0.6,-10.633 0.7,-10" style="fill:#cc4333;"/>
                        <path d="M-11.95,-6.1C-10.717,-3.367 -5.983,-3.117 2.25,-5.35C3.217,-5.083 3.65,-4.383 3.55,-3.25C3.283,-0.617 2,0.933 -0.3,1.4C-7.367,-0.967 -11.5,-1.617 -12.7,-0.55L-12.85,-2.3C-12.85,-3.7 -12.55,-4.967 -11.95,-6.1" style="fill:#82281d;"/>
                        <path d="M0.7,-10C-0.6,-10.633 -2.017,-10.95 -3.55,-10.95L-5.25,-10.8M-7.65,-10.1L-10.15,-8.4C-10.917,-7.7 -11.517,-6.933 -11.95,-6.1C-12.55,-4.967 -12.85,-3.7 -12.85,-2.3L-12.7,-0.55C-12.333,1.117 -11.483,2.567 -10.15,3.8C-8.317,5.5 -6.117,6.35 -3.55,6.35C-0.983,6.35 1.217,5.5 3.05,3.8C4.75,2.233 5.65,0.35 5.75,-1.85" style="fill:none;fill-rule:nonzero;stroke:#000;stroke-opacity:0.3;stroke-width:0.05px;"/>
                        <path d="M2.65,-2.95C2.417,-3.583 2.033,-4.033 1.5,-4.3L-0.45,-4.15C-1.15,-3.85 -1.7,-3.267 -2.1,-2.4C-2.5,-1.533 -2.617,-0.683 -2.45,0.15L-2.15,1L-2.85,-0.45C-3.017,-1.35 -2.9,-2.25 -2.5,-3.15C-2.067,-4.017 -1.483,-4.633 -0.75,-5L1.3,-5.1C1.933,-4.767 2.35,-4.167 2.55,-3.3L2.65,-2.95" style="fill:#e2e2e2;"/>
                        <path d="M-2.15,1L-2.45,0.15C-2.617,-0.683 -2.5,-1.533 -2.1,-2.4C-1.7,-3.267 -1.15,-3.85 -0.45,-4.15L1.5,-4.3C2.033,-4.033 2.417,-3.583 2.65,-2.95C2.75,-2.183 2.633,-1.417 2.3,-0.65C1.967,0.283 1.417,0.967 0.65,1.4L-1.55,1.5L-2.15,1" style="fill:#fff;"/>
                        <path d="M-2.15,1L-1.55,1.5L0.65,1.4C1.417,0.967 1.967,0.283 2.3,-0.65C2.633,-1.417 2.75,-2.183 2.65,-2.95L2.55,-3.3C2.35,-4.167 1.933,-4.767 1.3,-5.1L-0.75,-5C-1.483,-4.633 -2.067,-4.017 -2.5,-3.15C-2.9,-2.25 -3.017,-1.35 -2.85,-0.45L-2.15,1Z" style="fill:none;fill-rule:nonzero;stroke:#000;stroke-opacity:0.3;stroke-width:0.05px;"/>
                        <path d="M-1.3,-3.7C-0.933,-3.767 -0.617,-3.583 -0.35,-3.15C-0.083,-2.717 0.05,-2.167 0.05,-1.5C0.05,-0.833 -0.083,-0.25 -0.35,0.25C-0.617,0.75 -0.933,1.033 -1.3,1.1C-1.633,1.133 -1.933,0.933 -2.2,0.5C-2.467,0.067 -2.6,-0.483 -2.6,-1.15C-2.6,-1.817 -2.467,-2.4 -2.2,-2.9C-1.933,-3.4 -1.633,-3.667 -1.3,-3.7" style="fill:#151500;"/>
                        <path d="M-1.3,-3.7C-1.633,-3.667 -1.933,-3.4 -2.2,-2.9C-2.467,-2.4 -2.6,-1.817 -2.6,-1.15C-2.6,-0.483 -2.467,0.067 -2.2,0.5C-1.933,0.933 -1.633,1.133 -1.3,1.1C-0.933,1.033 -0.617,0.75 -0.35,0.25C-0.083,-0.25 0.05,-0.833 0.05,-1.5C0.05,-2.167 -0.083,-2.717 -0.35,-3.15C-0.617,-3.583 -0.933,-3.767 -1.3,-3.7Z" style="fill:none;fill-rule:nonzero;stroke:#000;stroke-opacity:0.3;stroke-width:0.05px;"/>
                        <path d="M0.15,-2.8L0.3,-2.4L0.15,-1.9L-0.2,-1.65C-0.367,-1.617 -0.5,-1.667 -0.6,-1.8L-0.75,-2.25L-0.6,-2.7L-0.2,-2.95L0.15,-2.8" style="fill:#fff;"/>
                        <path d="M-13.2,-1.85L-14.2,0.25C-14.367,-0.55 -14.217,-1.25 -13.75,-1.85L-13.2,-1.85M-14.55,3.1C-11.917,5.1 -8.433,5.817 -4.1,5.25L-4.9,6.15C-8.4,6.95 -11.483,6.65 -14.15,5.25L-14.55,3.1M-5.55,0.8L-7.45,1.35C-7.183,0.617 -6.8,0.067 -6.3,-0.3C-5.767,-0.167 -5.517,0.2 -5.55,0.8" style="fill:#82281d;"/>
                        <path d="M-13.2,-1.85L-12.8,-2.6L-12.6,-2.7C-11.667,-3.3 -10.6,-3.6 -9.4,-3.6C-8.667,-3.6 -7.567,-3.2 -6.1,-2.4L-4,0.5L-4.1,5.25C-8.433,5.817 -11.917,5.1 -14.55,3.1L-14.75,1.8L-14.2,0.25L-13.2,-1.85M-7.45,1.35L-5.55,0.8C-5.517,0.2 -5.767,-0.167 -6.3,-0.3C-6.8,0.067 -7.183,0.617 -7.45,1.35" style="fill:#cc4333;"/>
                        <path d="M-4,0.5L-6.1,-2.4C-7.567,-3.2 -8.667,-3.6 -9.4,-3.6C-10.6,-3.6 -11.667,-3.3 -12.6,-2.7L-12.8,-2.6L-13.2,-1.85L-14.2,0.25L-14.75,1.8L-14.55,3.1L-14.15,5.25C-11.483,6.65 -8.4,6.95 -4.9,6.15M-13.2,-1.85L-13.75,-1.85C-14.217,-1.25 -14.367,-0.55 -14.2,0.25M-5.55,0.8C-5.517,0.2 -5.767,-0.167 -6.3,-0.3C-6.8,0.067 -7.183,0.617 -7.45,1.35" style="fill:none;fill-rule:nonzero;stroke:#000;stroke-opacity:0.3;stroke-width:0.05px;"/>
                        <path d="M1.8,-7.5C3.167,-7.1 3.6,-6.25 3.1,-4.95C1.367,-4.05 -0.567,-3.483 -2.7,-3.25C-3.2,-3.917 -3.4,-4.533 -3.3,-5.1L1.8,-7.5" style="fill:#cc4333;"/>
                        <path d="M1.8,-7.5L-3.3,-5.1C-3.4,-4.533 -3.2,-3.917 -2.7,-3.25C-0.567,-3.483 1.367,-4.05 3.1,-4.95C3.6,-6.25 3.167,-7.1 1.8,-7.5Z" style="fill:none;fill-rule:nonzero;stroke:#000;stroke-opacity:0.3;stroke-width:0.05px;"/>
                        <path d="M1.75,4C2.383,2.4 3.3,0.817 4.5,-0.75C6.533,-3.183 8.45,-4.067 10.25,-3.4C9.55,0.067 8.333,2.85 6.6,4.95L1.65,5.6L1.75,4" style="fill:#ff8219;"/>
                        <path d="M10.25,-3.4C10.55,-0.833 9.867,1.867 8.2,4.7C7,6.633 5.233,7.667 2.9,7.8L1.65,5.65L1.65,5.6L6.6,4.95C8.333,2.85 9.55,0.067 10.25,-3.4" style="fill:#b15112;"/>
                        <path d="M1.75,4C2.383,2.4 3.3,0.817 4.5,-0.75C6.533,-3.183 8.45,-4.067 10.25,-3.4C10.55,-0.833 9.867,1.867 8.2,4.7C7,6.633 5.233,7.667 2.9,7.8M1.65,5.65L1.65,5.6" style="fill:none;fill-rule:nonzero;stroke:#000;stroke-opacity:0.3;stroke-width:0.05px;"/>
                        <path d="M-5.45,6.45C-5.083,5.283 -4.633,4.417 -4.1,3.85C-3.4,4.483 -2.967,5.067 -2.8,5.6L-1.85,3.65C-1.283,3.95 -0.783,4.433 -0.35,5.1C-0.317,4.033 -0.167,3.233 0.1,2.7C1.1,3.033 1.833,3.5 2.3,4.1C0.933,6.2 -1.65,6.983 -5.45,6.45" style="fill:#ff8219;"/>
                        <path d="M-5.45,6.45C-5.083,5.283 -4.633,4.417 -4.1,3.85C-3.4,4.483 -2.967,5.067 -2.8,5.6L-1.85,3.65C-1.283,3.95 -0.783,4.433 -0.35,5.1C-0.317,4.033 -0.167,3.233 0.1,2.7C1.1,3.033 1.833,3.5 2.3,4.1" style="fill:none;fill-rule:nonzero;stroke:#000;stroke-opacity:0.3;stroke-width:0.05px;"/>
                    </g>
                </g>
            </g>
        </g>
    </g>
</svg>
