<?xml version="1.0" encoding="UTF-8"?>
<svg version="1.1" viewBox="0 0 186.1 230.1" xmlns="http://www.w3.org/2000/svg" xmlns:cc="http://creativecommons.org/ns#" xmlns:dc="http://purl.org/dc/elements/1.1/" xmlns:rdf="http://www.w3.org/1999/02/22-rdf-syntax-ns#" xmlns:xlink="http://www.w3.org/1999/xlink">
<metadata>
<rdf:RDF>
<cc:Work rdf:about="">
<dc:format>image/svg+xml</dc:format>
<dc:type rdf:resource="http://purl.org/dc/dcmitype/StillImage"/>
</cc:Work>
</rdf:RDF>
</metadata>
<g transform="translate(-158.85,-57.2)">
<use transform="translate(174.8,73.45)" width="170.14999" height="213.85001" xlink:href="#c"/>
<use transform="translate(257.25,111.4)" width="46" height="46" xlink:href="#a"/>
<use transform="translate(158.85,138.1)" width="46" height="46" xlink:href="#a"/>
<use transform="translate(250.55,57.2)" width="46" height="46" xlink:href="#a"/>
</g>
<defs>
<g id="c" transform="translate(-174.8,-73.45)">
<path d="m343.9 228.7-26.5 44-6.05 2.55 0.15-0.3-0.7 0.3 0.05-0.15 5.75-2.4 26.45-43.95 0.3-0.05-0.1 0.1 0.65-0.1m-37.1 48.45-7.75 3.25 0.25-0.3-0.8 0.3 0.1-0.15 7.4-3.1 0.3-0.15-0.05 0.15-6.95 2.95 6.95-2.95 0.7-0.3-0.15 0.3m-129.9-116.4 2.1-5.1 7 5.8-7.85 4.8-1.25-5.5m134.6 114.2 5.35-2.25 26.4-43.9-26.4 43.9-5.35 2.25" fill="#dfdce7" fill-rule="evenodd"/>
<path d="m338.9 193.35-4.75-34.3v-0.1l-17.65-9.3-0.2-0.1 0.15-0.05 0.2 0.1 0.35-0.1 17.95 9.45v0.1l4.75 34.3-0.7 0.15 0.15-0.15-4.75-34.3v-0.1l-17.75-9.35 17.75 9.35v0.1l4.75 34.3-0.3 0.1 0.05-0.1m-43.75-55-0.45-0.25-13.45-7.05 13.45 7.05-0.05 0.1-0.2-0.1-13.75-7.2 0.05-0.1 0.5 0.25 0.05-0.25 13.95 7.3-0.1 0.25m-24.3 18.7-0.75 0.25 0.2-0.5 0.55 0.25" fill="#c5bed3" fill-rule="evenodd"/>
<path d="m339.15 193.35-0.15 0.15 0.7-0.15-6.35 5.55-0.4 0.1-0.15-0.1-0.2 0.05-0.05-0.05 6.15-5.3 0.15-0.15 0.3-0.1m-27.8 81.9-4.55 1.9 0.15-0.3 3.85-1.6-3.85 1.6-0.7 0.3 0.05-0.15 4.25-1.75 0.3-0.15-0.05 0.15 0.7-0.3-0.15 0.3m-12.3 5.15-15.1 6.4-0.25-0.15-0.3 0.15-0.1-0.05 0.25-0.15h0.05l14.65-6.2 0.35-0.15-0.1 0.15 0.8-0.3-0.25 0.3m39.95-86.9-6.2 5.4 6.2-5.4m-55.3 93.15 14.8-6.25-14.8 6.25" fill="#756796" fill-rule="evenodd"/>
<path d="m175.2 168-0.4-2.2 2.1-5.05 1.25 5.5-2.95 1.75m3.8-12.35 2.25-5.35 0.7-0.45q19-11.65 22.7-29.85l0.1-0.4 6.75-4.4 7.55 14.6q-9.35 7.6-14.75 20.55l-18.3 11.1-7-5.8m32.85-40.3 0.2-0.15 0.2 0.35-0.4-0.2m43.8-19.6 7.55-6.55-4.8 19.25-2.85-5.05 0.1-7.65m14.75-12.8 3.15-2.75 19.5-6.75 16.2 31.1-13.65 1.9 3.7-6.85q-8.8-16.3-28.9-16.65m10.9 47.85-0.05 0.25-0.5-0.25-0.05 0.1-0.2-0.1-1-0.55 1 0.55-10.2 26-0.2 0.5q-5.55 6.3-12.95 7.35l-0.45 0.05h-0.25l-4.55-3.9 3.4-8.95 20.45-19.7 3.6-1.95 0.15 0.05 0.1-0.05 0.3 0.15 0.25-0.15 1.15 0.6m-1.4-0.45 0.85 0.45-0.85-0.45" fill="#fff" fill-rule="evenodd"/>
<path d="m316.3 149.55-0.1-0.05-21.55-11.3 0.05-0.1 0.45 0.25 0.1-0.25 14.6 7.65 3.4 1.8 3.75 1.95-0.35 0.1-0.2-0.1-0.15 0.05m17.05 49.35 7.7 4 3.4 24.85-0.55 0.95-0.65 0.1 0.1-0.1 0.55-0.95-3.4-24.85-7.55-3.9 7.55 3.9 3.4 24.85-0.55 0.95-0.3 0.05 0.05-0.05 0.55-0.95-3.4-24.85-7.65-3.95 0.2-0.05 0.15 0.1 0.4-0.1m-121.3-83.7 16.5 8.3 5.05 2.6 10.6 5.3 9.35 4.75 7.8 3.9-0.25 0.15-48.85-24.65-0.2-0.35m40.6-16.85 3-2.6-0.1 7.65-2.9-5.05m42.5 40 21.3 11.15-21.3-11.15" fill="#cfcadb" fill-rule="evenodd"/>
<path d="m332.5 194.7-3.8-32.15v-0.05l-19.85 1.1-31.35 5.65q14.9-11.85 38.7-19.75l0.3 0.15 17.65 9.3v0.1l4.75 34.3-6.4 1.35m-121-79.5 0.35 0.15 0.4 0.2 48.85 24.65-14.8 8.1-22.75-9.7-4.5-8.8-7.55-14.6m97.75-10.65 4 43-3.4-1.8-2.45-28.15-11.8-11.15 13.65-1.9m23.35 94.4 7.65 3.95 3.4 24.85-0.55 0.95-8.4 1.8v-24.85l-62.8 6.2q2.3-1.7 5.3-2.95l0.45-0.2 0.2-0.05 30.1-5.35 24.6-4.4 0.05 0.05m-52.1-68.15 0.2 0.1 13.75 7.2q-8 13.75-23.4 18.9l-0.2 0.05-0.55-0.25 10.2-26" fill="#a6b7a6" fill-rule="evenodd"/>
<path d="m277.5 169.25 31.35-5.65 19.85-1.1v0.05l3.8 32.15-60.6 12.55q-4.7-18.4 5.5-37.85l0.05-0.1 0.05-0.05m-65.55 78.65-5.45-2.5-8.3-24.5 7.9-2.4 3.5 10.6 7.6 13.95-5.25 4.85m51.25-158.7 7.2-6.25q20.1 0.35 28.9 16.65l-3.7 6.85-35.5 4.95-1.7-2.95 4.8-19.25m8.7 122.65 62.8-6.2v24.85l-70.25 15.15v-10.35q-0.75-6.2 0-10.9 0.7-4.3 2.85-7.6l1.1-1.6q1.5-1.85 3.5-3.35m-67.6-61.5 12.85-7.85 7.65 9.4-11.4 37.95-1.25 5.7v5.7l-5.4 6-15.15-3.6v-0.15q-1.15-27.6 12.4-52.65l0.3-0.5m-18.3 11.1 0.1 0.3q5.2 18.5-0.45 35.2l-0.35 0.95-7.15-31.65 7.85-4.8" fill="#6f8a6f" fill-rule="evenodd"/>
<path d="m332.5 194.7 6.4-1.35-0.05 0.1-0.15 0.15-6.15 5.3-24.6 4.4-30.1 5.35-0.2 0.05-0.45 0.2q-3 1.25-5.3 2.95-2 1.5-3.5 3.35l-1.1 1.6q-2.15 3.3-2.85 7.6-0.75 4.7 0 10.9v10.35l70.25-15.15-24.15 44.75-4.25 1.75-0.3 0.15 8-19.15-15.75 22.4-14.65 6.2h-0.05l-0.25 0.15-0.15 0.05-0.35-0.15-1.4-3.2-16.95-37.8-2.3-0.7-32.65-9.7h0.2l0.4-0.05q29.1-4.3 30.2-20.3v-0.15l0.05-1.5-29.3-9.5-4.05-0.85-5.1 4.7-1.6 17.3-0.7 7.4 5.4 14.4 12.6 12.9-25.65-11.7 5.25-4.85-7.6-13.95-3.5-10.6 7.9-2.4-3.25-0.15 0.05-0.05 2.25-4.45-24.95-6.4-6.75-3.85 10.25 2.45 15.15 3.6 5.4-6v-5.7l1.25-5.7 11.4-37.95-7.65-9.4 6.4-3.9 22.75 9.7-5.55 3-9.5 13.4-7.85 29.5 0.25 0.15 0.45 0.3 1.95 1.2 3.65 2.15q5.1 2.85 10.55 5.25 11.35 4.9 24.25 7.75l4.95-0.85q-0.45-2.3 2.45-2.9l60.6-12.55m-37.25-56.6-13.95-7.3-1.15-0.6-0.25 0.15-0.3-0.15-0.1 0.05-0.15-0.05-3.6 1.95-14.4 7.9-7.8-3.9 6.55-24.75 35.5-4.95 11.8 11.15 2.45 28.15-14.6-7.65" fill="#566b56" fill-rule="evenodd"/>
<path d="m316.2 149.5q-23.8 7.9-38.7 19.75l-12.7 2.3-0.1 0.05h-0.2l-8.05-6.9h0.25l0.45-0.05q7.4-1.05 12.95-7.35l0.75-0.25 0.2-0.05q15.4-5.15 23.4-18.9l0.2 0.1 21.55 11.3m-33.4 137.15-32.25-13.75-12.95-13.3-12.6-12.9-5.4-14.4 9.85 2.95h0.05l32.65 9.7-28.85-5.1q18.7 22.1 37.8 38.05l10.3 5.55 1.4 3.2m-76.3-41.25-3.85-1.75-11.4-23.4-6.95-5.7 3.8-9.5 24.95 6.4-2.25 4.45-0.05 0.05 3.25 0.15-15.8 4.8 8.3 24.5m-25.15-44.2-6.15-33.2 2.95-1.75 7.15 31.65 0.35-0.95q5.65-16.7 0.45-35.2l-0.1-0.3 18.3-11.1q5.4-12.95 14.75-20.55l4.5 8.8-6.4 3.9-12.85 7.85-0.3 0.5q-13.55 25.05-12.4 52.65v0.15l-10.25-2.45m-0.1-50.9 8.75-21.2 14.75-9.5-0.1 0.4q-3.7 18.2-22.7 29.85l-0.7 0.45m47.3-26.8 16-9.6-10.95 12.2-5.05-2.6m114.55 105.2-0.05 0.05-26.45 43.95-5.75 2.4-0.3 0.15 24.15-44.75 8.4-1.8m-104.4-100.05q14.55-6.5 16.85-25.25l2.85 5.05q-4.55 14.45-14.2 22.95l-5.5-2.75m-12.65 67.2-1.95-1.2-0.45-0.3-0.25-0.15 7.85-29.5 9.5-13.4 5.55-3 14.8-8.1 0.25-0.15 14.4-7.9-20.45 19.7-3.4 8.95 4.55 3.9q-10.75 18.65-16.1 38.2l-0.05 0.25-0.05 0.1q-5.45-2.4-10.55-5.25l0.3-0.3q16.7-14.6 21.9-36.9l-8.6-7.3-9.1 11.5-8.15 30.85m-5.75 29.05 1.6-17.3 5.1-4.7 4.05 0.85 29.3 9.5-0.05 1.5v0.15l-35.25-6.7-4.75 16.7m85.7 52.25-7.4 3.1-0.35 0.15 15.75-22.4-8 19.15" fill="#e2e9e2" fill-rule="evenodd"/>
<path d="m244.55 113.9 8.1-15.55 2.9 5.05q-2.3 18.75-16.85 25.25l-5.1-2.55 10.95-12.2m-14.85 84.1-3.65-2.15 8.15-30.85 9.1-11.5 8.6 7.3q-5.2 22.3-21.9 36.9l-0.3 0.3m30.4-86.6-6.55 24.75-9.35-4.75q9.65-8.5 14.2-22.95l1.7 2.95m-3.65 53.3 8.05 6.9v39.4q-12.9-2.85-24.25-7.75l0.05-0.1 0.05-0.25q5.35-19.55 16.1-38.2m3.85 50.2q-1.1 16-30.2 20.3l-0.4 0.05h-0.25l-9.85-2.95 0.7-7.4 4.75-16.7 35.25 6.7" fill="#d3dcd3" fill-rule="evenodd"/>
<path d="m277.5 169.25-0.05 0.05-0.05 0.1q-10.2 19.45-5.5 37.85-2.9 0.6-2.45 2.9l-4.95 0.85v-39.4h0.2l0.1-0.05 12.7-2.3" fill="#bfccbf" fill-rule="evenodd"/>
<path d="m262.15 244.95 2.3 0.7 16.95 37.8-10.3-5.55q-19.1-15.95-37.8-38.05l28.85 5.1" fill="#94a994" fill-rule="evenodd"/>
<path d="m338.9 193.35-4.75-34.3v-0.1l-17.65-9.3-0.3-0.15m23.5 43.85-4.75-34.3v-0.1l-17.95-9.45m-0.35 0.1 17.75 9.35v0.1l4.75 34.3-0.15 0.15m0.7-0.15-6.35 5.55 7.7 4 3.4 24.85-0.55 0.95-26.5 44-6.05 2.55-4.55 1.9-7.75 3.25-15.1 6.4-0.25-0.15-0.3 0.15-0.1-0.05-0.15 0.05-0.35-0.15-32.25-13.75-12.95-13.3m75.65-112.05 3.75 1.95m15.55 49.4 6.15-5.3 0.15-0.15 0.05-0.1m4.45 35.35 0.55-0.95-3.4-24.85-7.55-3.9-0.15-0.1-0.2 0.05 7.65 3.95 3.4 24.85-0.55 0.95-0.05 0.05m0.3-0.05-0.1 0.1-26.4 43.9-5.35 2.25-0.7 0.3-3.85 1.6m26-77.85 0.4-0.1m-0.8 0 0.05 0.05m-22.05 76.3 0.3-0.15 5.75-2.4 26.45-43.95m-10.25-29.85 6.2-5.4m-44.3-55.4 0.45 0.25m0.1-0.25-13.95-7.3m-0.05 0.25 13.45 7.05m-0.05 0.1 21.55 11.3m-21.75-11.4 0.2 0.1m15.2 7.55 3.4 1.8m-18-9.45 14.6 7.65m-48.5-5.7 14.4-7.9 3.6-1.95 0.15 0.05 0.1-0.05 0.3 0.15m0.25-0.15 1.15 0.6m-20.2 9.4 0.25-0.15m18.15-9.8 1 0.55 0.2 0.1 13.75 7.2m-13.7-7.3-0.85-0.45m0.85 0.45 0.5 0.25m35.4 18.55-0.2-0.1-21.3-11.15m12.8 64.95 24.6-4.4m-34.05 81.5 0.8-0.3 6.95-2.95 0.7-0.3m-0.65 0.15-0.3 0.15-7.4 3.1-0.35 0.15-14.65 6.2h-0.05l-0.25 0.15m15.2-6.35-14.8 6.25m26.85-11.4-4.25 1.75" fill="none" stroke="#000" stroke-linecap="round" stroke-linejoin="round" stroke-opacity=".4"/>
<path d="m237.6 259.6-25.65-11.7-5.45-2.5-3.85-1.75-11.4-23.4-6.95-5.7 3.8-9.5-6.75-3.85-6.15-33.2-0.4-2.2 2.1-5.05 2.1-5.1 2.25-5.35 8.75-21.2 14.75-9.5 6.75-4.4 0.35 0.15 0.2-0.15 16.5 8.3 16-9.6 8.1-15.55 3-2.6 7.55-6.55 7.2-6.25 3.15-2.75 19.5-6.75 16.2 31.1 4 43m-101.4-32.2 0.4 0.2m48.85 24.65-48.85-24.65" fill="none" stroke="#000" stroke-linecap="round" stroke-linejoin="round" stroke-opacity=".4" stroke-width=".05"/>
</g>
<g id="a" transform="translate(23,23)">
<use transform="translate(-23,-23)" width="46" height="46" xlink:href="#b"/>
</g>
<g id="b" transform="translate(23,23)">
<path d="m15.9 0.25q0-6.45-4.6-11.05-4.55-4.55-11-4.55-6.5 0-11.1 4.55-4.55 4.6-4.5 11.05-0.05 6.45 4.5 11.05 4.6 4.55 11.1 4.55 6.45 0 11-4.55 4.6-4.6 4.6-11.05m0.35-16.55q6.75 6.75 6.75 16.3t-6.75 16.25q-6.75 6.75-16.25 6.75-9.55 0-16.3-6.75-6.7-6.7-6.7-16.25t6.7-16.3q6.75-6.7 16.3-6.7 9.5 0 16.25 6.7" fill="#fff" fill-opacity=".1098" fill-rule="evenodd"/>
<path d="m5.95-7.5q-2.8-2.8-6.7-2.8-3.95 0-6.75 2.8-2.75 2.75-2.75 6.7t2.75 6.7q2.8 2.8 6.75 2.8 3.9 0 6.7-2.8 2.75-2.75 2.75-6.7t-2.75-6.7m9.95 7.75q0 6.45-4.6 11.05-4.55 4.55-11 4.55-6.5 0-11.1-4.55-4.55-4.6-4.5-11.05-0.05-6.45 4.5-11.05 4.6-4.55 11.1-4.55 6.45 0 11 4.55 4.6 4.6 4.6 11.05" fill="#fff" fill-opacity=".30196" fill-rule="evenodd"/>
<path d="m2.8-3.25q1.4 1.45 1.4 3.5 0 2-1.4 3.45-1.45 1.4-3.45 1.4-2.05 0-3.5-1.4-1.4-1.45-1.4-3.45 0-2.05 1.4-3.5 1.45-1.4 3.5-1.4 2 0 3.45 1.4m-1.7 2.85q0-0.9-0.6-1.5-0.65-0.6-1.55-0.6t-1.5 0.6-0.6 1.5 0.6 1.5 1.5 0.65q0.9-0.05 1.55-0.65 0.6-0.6 0.6-1.5" fill="#fff" fill-opacity=".8" fill-rule="evenodd"/>
<path d="m2.8-3.25q-1.45-1.4-3.45-1.4-2.05 0-3.5 1.4-1.4 1.45-1.4 3.5 0 2 1.4 3.45 1.45 1.4 3.5 1.4 2 0 3.45-1.4 1.4-1.45 1.4-3.45 0-2.05-1.4-3.5m3.15-4.25q2.75 2.75 2.75 6.7t-2.75 6.7q-2.8 2.8-6.7 2.8-3.95 0-6.75-2.8-2.75-2.75-2.75-6.7t2.75-6.7q2.8-2.8 6.75-2.8 3.9 0 6.7 2.8" fill="#fff" fill-opacity=".49804" fill-rule="evenodd"/>
<path d="m1.1-0.4q0 0.9-0.6 1.5-0.65 0.6-1.55 0.65-0.9-0.05-1.5-0.65t-0.6-1.5 0.6-1.5 1.5-0.6 1.55 0.6q0.6 0.6 0.6 1.5" fill="#fff" fill-rule="evenodd"/>
</g>
</defs>
</svg>
