<?xml version="1.0" encoding="UTF-8" standalone="no"?>
<!DOCTYPE svg PUBLIC "-//W3C//DTD SVG 1.1//EN" "http://www.w3.org/Graphics/SVG/1.1/DTD/svg11.dtd">
<svg width="100%" height="100%" viewBox="0 0 14 18" version="1.1" xmlns="http://www.w3.org/2000/svg" xmlns:xlink="http://www.w3.org/1999/xlink" xml:space="preserve" xmlns:serif="http://www.serif.com/" style="fill-rule:evenodd;clip-rule:evenodd;stroke-linecap:round;stroke-linejoin:round;">
    <g transform="matrix(1,0,0,1,-1.85,-0.05)">
        <g>
            <g id="shape0">
                <path d="M8.3,1.55L9,0.55C10.5,1.65 11.6,3.05 12.3,4.75C12.467,4.517 12.85,4.367 13.45,4.3C13.417,5.1 13.233,5.783 12.9,6.35L12.5,5.1L10.9,4.9L9.5,4.35L10,4.95L9.05,4.45L9.05,3.25C9.383,3.383 9.717,3.633 10.05,4L10.45,4.55L10.25,3.3L10.2,3.2C9.867,2.467 9.233,1.917 8.3,1.55C9.233,1.917 9.867,2.467 10.2,3.2L10.25,3.3L10.45,4.55L10.05,4C9.717,3.633 9.383,3.383 9.05,3.25L9.05,4.45L10,4.95L9.5,4.35L10.9,4.9L12.5,5.1L12.9,6.35L13.1,7.05L12.35,7.15L13.05,7.6L14.35,7.3L14.4,7.6L14.1,8.25L14.25,8.3L13.55,12.25L12.45,12.1L11.75,12L11.55,12.15L11.5,12.15L10.8,12L11.55,13.05L11.6,13.15L11.75,13.3L11.8,13.25L11.85,13.25C12.25,13.05 12.633,13.183 13,13.65L13,13.75L13.05,14.15L12.8,14.65L13.15,14.95L12.95,15.15L13.05,15.3L12.65,15.45L12.85,15.75L12.3,15.95L11.85,15.85L11.45,15.7C11.15,15.933 10.8,16.05 10.4,16.05L10.1,16L10.05,16L9.7,15.9L9.55,16L9.8,16.4L9.7,17L9.05,17.2L8.85,17L8.55,17.25L8.3,17.2L7.9,17.35L7.45,17.1L7.45,16.45L7.85,15.85C7.617,15.65 7.483,15.45 7.45,15.25L7.55,14.75L7.55,14.7L7.65,14.6L6.85,13.65L5.5,13.95C5.533,14.383 5.433,14.65 5.2,14.75L5.2,14.55L4.45,14.8L3.65,15.1C3.583,14.667 3.633,14.3 3.8,14C3.9,13.667 4.067,13.483 4.3,13.45L4.5,13.45L4.65,13.5L4.3,13.05L4.7,13.05L5.25,13.25L5.35,13.3L5.35,13.35L5.4,13.25C5.7,12.85 6.283,12.467 7.15,12.1L7.7,12.5L8.3,11.9L9.35,13.05L9.65,12.9L9.65,12.8L9.75,11.75L9.1,11.65L8,11.5L7.7,11.35L5.9,12.25L5.9,10.45C4.933,10.517 3.75,10.167 2.35,9.4C3.083,8.767 3.85,8.283 4.65,7.95C3.25,6.417 2.65,4.767 2.85,3C4.25,2.367 5.917,2.367 7.85,3L8.1,2L7.95,1.75L7.65,1.4L8.3,1.55M6.6,13.3L6.85,13.65L6.6,13.3M4.65,13.5L4.75,13.8L4.65,14.05L4.55,14.15L4.45,14.2C4.317,14.167 4.283,14.083 4.35,13.95C4.283,14.083 4.317,14.167 4.45,14.2L4.55,14.15L4.65,14.05L4.75,13.8L4.65,13.5M5.35,13.35L4.95,14.05L5.25,13.75L5.5,13.85L5.5,13.95L5.5,13.85L5.25,13.75L4.95,14.05L5.35,13.35M5.2,14.55L5.05,14.3L5.2,14.55M6.85,9.85L7.55,10.6L7.85,8.95L7.45,8.5L7.3,8.3L7.25,8.4C7.117,8.8 7.117,9.25 7.25,9.75L7.4,9.55L7.25,9.75C7.117,9.25 7.117,8.8 7.25,8.4L7.3,8.3L7.45,8.5L8.1,8.75L8.7,10.9L9.25,9.95L9.75,10.2L10.6,11.65L10.65,11.7L11.75,12L10.65,11.7L10.6,11.65L9.75,10.2L9.25,9.95L8.7,10.9L8.1,8.75L7.45,8.5L7.85,8.95L7.55,10.6L6.85,9.85L7.05,10.7L7.7,11.35L7.05,10.7L6.85,9.85L6.5,9.55L6.85,7.85L4.95,6.8C4.45,6.533 4.25,6.3 4.35,6.1L5.1,4.4L4.6,3.35L4.3,2.95C5.6,3.25 6.45,3.867 6.85,4.8L6.85,4.9L7.05,6.15L6.7,5.6L5.65,4.85L5.65,6.05L7.35,7L7.85,6.55L7.15,5.6L8.5,6.2L9.5,5.9L8.3,5.2C7.833,4.933 7.633,4.7 7.7,4.5L8.45,2.8L8.1,2L8.45,2.8L7.7,4.5C7.633,4.7 7.833,4.933 8.3,5.2L9.5,5.9L8.5,6.2L7.15,5.6L7.85,6.55L7.35,7L5.65,6.05L5.65,4.85L6.7,5.6L7.05,6.15L6.85,4.9L6.85,4.8C6.45,3.867 5.6,3.25 4.3,2.95L4.6,3.35L5.1,4.4L4.35,6.1C4.25,6.3 4.45,6.533 4.95,6.8L6.85,7.85L6.5,9.55L6.85,9.85M8.1,6.85L7.95,7.05L7.8,7.55L7.9,8.35L9.8,8.85L10.05,8.45L10.05,8.4L10.75,8.3L10.65,8.05L10.65,8L10.55,7.65L11.65,8L11.75,7.75L11.8,7.5L12.15,7.6L12.35,7.65L12.15,7.6L11.8,7.5L11.75,7.75L11.65,8L10.55,7.65L10.65,8L10.65,8.05L10.75,8.3L10.05,8.4L10.05,8.45L9.8,8.85L9.9,8.85L9.95,8.7L10.05,8.6C10.45,8.5 10.95,8.5 11.55,8.6C10.95,8.5 10.45,8.5 10.05,8.6L9.95,8.7L9.9,8.85L9.8,8.85L7.9,8.35L7.8,7.55L7.95,7.05L8.1,6.85L7.85,6.55L8.1,6.85L8.35,7.2L8.1,6.85M7.35,7L6.9,7.4L6.9,7.45L6.85,7.85L6.9,7.45L6.9,7.4L7.35,7M9.55,16L8.7,16.25C8.333,16.217 8.05,16.083 7.85,15.85C8.05,16.083 8.333,16.217 8.7,16.25L9.55,16M9.1,16.55L8.85,17L9.1,16.55M8.4,16.55L8.3,17.2L8.4,16.55M8.75,14.2L8.85,14.2L9.3,14.4L9.65,14.6L9.65,14.65L9.85,14.95L9.95,15.3L9.7,15.9L9.95,15.3L9.85,14.95L9.65,14.65L9.65,14.6L9.3,14.4L8.85,14.2L9.2,14.7C9.333,15 9.317,15.25 9.15,15.45L9.1,15.55L8.4,15.8L8.3,15.7L8.1,15.4L8.25,15.15L8.35,15.1L8.45,14.95L8.35,15.1L8.25,15.15L8.1,15.4L8.3,15.7L8.4,15.8L9.1,15.55L9.15,15.45C9.317,15.25 9.333,15 9.2,14.7L8.85,14.2L8.75,14.2C8.35,14.067 7.983,14.2 7.65,14.6C7.983,14.2 8.35,14.067 8.75,14.2L9.05,13.35L9.35,13.05L9.05,13.35L8.75,14.2M10.45,14.95L10.45,14.55L9.55,14.1L10.45,14.55L10.45,14.85L10.95,14.85L10.5,14.95L10.45,14.95L10.45,15.3L10.5,15.35L10.5,15.45L10.4,15.9L10.1,16L10.4,15.9L10.5,15.45L10.5,15.35L10.45,15.3L10.45,14.95L10.5,14.95L10.95,14.85L10.45,14.85L10.45,14.95M12.45,14.9L12.65,15.45L12.45,14.9L12.4,14.95L12,15.05L12.1,14.7L12.2,14.6L12.5,14.4L12.5,14.3L12.3,14L12.05,13.95L11.8,13.4L11.75,13.3L11.8,13.25L11.75,13.3L11.8,13.4L12.05,13.95L12.3,14L12.5,14.3L12.5,14.4L12.2,14.6L12.1,14.7L12,15.05L12.4,14.95L12.45,14.9L12.65,14.75L12.7,14.7L12.8,14.65L12.7,14.7L12.65,14.75L12.45,14.9M11.95,14.25L11.65,14.55L11.15,14.8L11.1,14.8L10.95,14.85L10.95,14.5L10.75,14.5L10.6,14.25L10.1,13.5L10.6,14.25L11.05,13.65L11.25,13.6L11.5,13.7L11.8,13.9L11.9,14.2L11.95,14.25L12,14.5L12.05,14.7L11.95,15.05L11.9,15.2L12,15.05L11.9,15.2L11.95,15.05L12.05,14.7L12,14.5L11.95,14.25L11.9,14.2L11.8,13.9L11.5,13.7L11.25,13.6L11.05,13.65L10.6,14.25L10.75,14.5L10.95,14.5L10.95,14.85L11.1,14.8L11.15,14.8L11.65,14.55L11.95,14.25M11.45,15.7L11.6,15.55L11.8,15.4L11.8,15.3L11.9,15.2L11.8,15.3L11.8,15.4L11.6,15.55L11.45,15.7M12.1,14.7L12.15,14.35L12.1,14.1L12.05,13.95L12.1,14.1L12.15,14.35L12.1,14.7M12.65,14.75L12.95,15.15L12.65,14.75M11.8,7.5L10.4,7.15L10.55,7.65L10.4,7.15L10.1,6.35L10.4,7.15L11.8,7.5M11.6,13.15L11.55,13.05L11.6,13.15M9.75,11.75L10.6,11.95L10.8,12L10.6,11.95L9.75,11.75M8.5,6.2L9.75,6.35L9.8,5.85L9.75,6.35L10.1,6.35L10.1,6.3L10.25,5.8L10.25,5.65L10.35,5.7L10.4,5.55L10.35,5.5L9.9,5.3L9.8,5.5L9.8,5.85L9.5,5.9L9.8,5.85L9.8,5.5L9.9,5.3L10.35,5.5L10.4,5.55L10.35,5.7L10.25,5.65L10.25,5.8L10.1,6.3L10.1,6.35L9.75,6.35L8.5,6.2M10.9,9.7L10.55,10L10.3,9.7L10.5,9.2L10.35,9.05L10.75,9.45L10.9,9.7L11,9.85L10.9,9.7L10.75,9.45L10.5,9.2L10.3,9.7L10.55,10L10.9,9.7M9.9,8.85L9.85,9L9.85,9.05L9.75,9.2L9.65,9.5L9.75,9.2L9.85,9.05L9.85,9L9.9,8.85M9.05,8.15L9.1,8.3L9.35,8.55L9.7,8.45L9.5,8.45L9.05,8.15L8.25,7.7L8.35,7.2L8.4,6.8L9.5,7.1L9.5,7.85L9.5,7.1L8.4,6.8L8.35,7.2L8.25,7.7L9.05,8.15L9.5,8.45L9.7,8.45L10.05,8.4L9.7,8.45L9.35,8.55L9.1,8.3L9.05,8.15M13.05,7.6L14.1,8.25L13.05,7.6M12,7.15L11.85,7.15L11.3,6.85L11.35,7.05L11.6,7.25L11.65,7.3L11.8,7.3L11.95,7.2L12,7.15L12.35,7.15L12.3,7.2L12.15,7.6L12.3,7.2L12.35,7.15L12,7.15L11.95,7.2L11.8,7.3L11.65,7.3L11.6,7.25L11.35,7.05L11.3,6.85L10.65,6.4L10.7,5.95L10.65,6.4L11.3,6.85L11.85,7.15L12,7.15M10.35,5.5L10,4.95L10.35,5.5M11.8,6.55L11.8,5.8L10.8,5.5L10.7,5.95L10.4,5.55L10.7,5.95L10.8,5.5L11.8,5.8L11.8,6.55M10.35,5.7L10.25,5.8L10.35,5.7" style="fill:#280a02;"/>
                <path d="M12.9,6.35C13.233,5.783 13.417,5.1 13.45,4.3C12.85,4.367 12.467,4.517 12.3,4.75C11.6,3.05 10.5,1.65 9,0.55L8.3,1.55C9.233,1.917 9.867,2.467 10.2,3.2L10.25,3.3L10.45,4.55L10.05,4C9.717,3.633 9.383,3.383 9.05,3.25L9.05,4.45L10,4.95L9.5,4.35L10.9,4.9L12.5,5.1L12.9,6.35L13.1,7.05L12.35,7.15L13.05,7.6L14.35,7.3L14.4,7.6L14.1,8.25L14.25,8.3L13.55,12.25L12.45,12.1L11.75,12L11.55,12.15L11.5,12.15L10.8,12L11.55,13.05L11.6,13.15L11.75,13.3L11.8,13.25L11.85,13.25C12.25,13.05 12.633,13.183 13,13.65L13,13.75L13.05,14.15L12.8,14.65L13.15,14.95L12.95,15.15L13.05,15.3L12.65,15.45L12.85,15.75L12.3,15.95L11.85,15.85L11.45,15.7C11.15,15.933 10.8,16.05 10.4,16.05L10.1,16L10.05,16L9.7,15.9L9.55,16L9.8,16.4L9.7,17L9.05,17.2L8.85,17L8.55,17.25L8.3,17.2L7.9,17.35L7.45,17.1L7.45,16.45L7.85,15.85C7.617,15.65 7.483,15.45 7.45,15.25L7.55,14.75L7.55,14.7L7.65,14.6L6.85,13.65L5.5,13.95C5.533,14.383 5.433,14.65 5.2,14.75L5.2,14.55L4.45,14.8L3.65,15.1C3.583,14.667 3.633,14.3 3.8,14C3.9,13.667 4.067,13.483 4.3,13.45L4.5,13.45L4.65,13.5L4.3,13.05L4.7,13.05L5.25,13.25L5.35,13.3L5.35,13.35L5.4,13.25C5.7,12.85 6.283,12.467 7.15,12.1L7.7,12.5M9.35,13.05L9.65,12.9L9.65,12.8L9.75,11.75L9.1,11.65L8,11.5L7.7,11.35L5.9,12.25L5.9,10.45C4.933,10.517 3.75,10.167 2.35,9.4C3.083,8.767 3.85,8.283 4.65,7.95C3.25,6.417 2.65,4.767 2.85,3C4.25,2.367 5.917,2.367 7.85,3L8.1,2L7.95,1.75L7.65,1.4L8.3,1.55M7.7,11.35L7.05,10.7L6.85,9.85L6.5,9.55L6.85,7.85L4.95,6.8C4.45,6.533 4.25,6.3 4.35,6.1L5.1,4.4L4.6,3.35L4.3,2.95C5.6,3.25 6.45,3.867 6.85,4.8L6.85,4.9L7.05,6.15L6.7,5.6L5.65,4.85L5.65,6.05L7.35,7L7.85,6.55L7.15,5.6L8.5,6.2L9.5,5.9L8.3,5.2C7.833,4.933 7.633,4.7 7.7,4.5L8.45,2.8L8.1,2M9.8,5.85L9.75,6.35L10.1,6.35L10.1,6.3L10.25,5.8L10.25,5.65L10.35,5.7L10.4,5.55L10.35,5.5L9.9,5.3L9.8,5.5L9.8,5.85L9.5,5.9M10.25,5.8L10.35,5.7M10.4,5.55L10.7,5.95L10.8,5.5L11.8,5.8L11.8,6.55M10,4.95L10.35,5.5M12.35,7.65L12.15,7.6L11.8,7.5L11.75,7.75L11.65,8L10.55,7.65L10.65,8L10.65,8.05L10.75,8.3L10.05,8.4L10.05,8.45L9.8,8.85L9.9,8.85L9.95,8.7L10.05,8.6C10.45,8.5 10.95,8.5 11.55,8.6M12.15,7.6L12.3,7.2L12.35,7.15L12,7.15L11.95,7.2L11.8,7.3L11.65,7.3L11.6,7.25L11.35,7.05L11.3,6.85L10.65,6.4L10.7,5.95M11.3,6.85L11.85,7.15L12,7.15M14.1,8.25L13.05,7.6M10.55,7.65L10.4,7.15L10.1,6.35M9.5,7.85L9.5,7.1L8.4,6.8L8.35,7.2L8.25,7.7L9.05,8.15L9.5,8.45L9.7,8.45L10.05,8.4M7.85,6.55L8.1,6.85L8.35,7.2M9.7,8.45L9.35,8.55L9.1,8.3L9.05,8.15M9.65,9.5L9.75,9.2L9.85,9.05L9.85,9L9.9,8.85M10.35,9.05L10.75,9.45L10.9,9.7L11,9.85M10.5,9.2L10.3,9.7L10.55,10L10.9,9.7M9.75,6.35L8.5,6.2M7.4,9.55L7.25,9.75C7.117,9.25 7.117,8.8 7.25,8.4L7.3,8.3L7.45,8.5L8.1,8.75L8.7,10.9L9.25,9.95L9.75,10.2L10.6,11.65L10.65,11.7L11.75,12M7.65,14.6C7.983,14.2 8.35,14.067 8.75,14.2L9.05,13.35L9.35,13.05M10.8,12L10.6,11.95L9.75,11.75M11.8,13.25L11.75,13.3L11.8,13.4L12.05,13.95L12.3,14L12.5,14.3L12.5,14.4L12.2,14.6L12.1,14.7L12,15.05L12.4,14.95L12.45,14.9L12.65,14.75L12.7,14.7L12.8,14.65M11.55,13.05L11.6,13.15M10.4,7.15L11.8,7.5M12.95,15.15L12.65,14.75M10.1,13.5L10.6,14.25L11.05,13.65L11.25,13.6L11.5,13.7L11.8,13.9L11.9,14.2L11.95,14.25L12,14.5L12.05,14.7L11.95,15.05L11.9,15.2L12,15.05M12.05,13.95L12.1,14.1L12.15,14.35L12.1,14.7M11.9,15.2L11.8,15.3L11.8,15.4L11.6,15.55L11.45,15.7M10.6,14.25L10.75,14.5L10.95,14.5L10.95,14.85L11.1,14.8L11.15,14.8L11.65,14.55L11.95,14.25M12.65,15.45L12.45,14.9M9.7,15.9L9.95,15.3L9.85,14.95L9.65,14.65L9.65,14.6L9.3,14.4L8.85,14.2L9.2,14.7C9.333,15 9.317,15.25 9.15,15.45L9.1,15.55L8.4,15.8L8.3,15.7L8.1,15.4L8.25,15.15L8.35,15.1L8.45,14.95M9.55,14.1L10.45,14.55L10.45,14.85L10.95,14.85L10.5,14.95L10.45,14.95L10.45,15.3L10.5,15.35L10.5,15.45L10.4,15.9L10.1,16M10.45,14.85L10.45,14.95M8.85,14.2L8.75,14.2M8.3,17.2L8.4,16.55M8.85,17L9.1,16.55M7.85,15.85C8.05,16.083 8.333,16.217 8.7,16.25L9.55,16M6.85,7.85L6.9,7.45L6.9,7.4L7.35,7M9.8,8.85L7.9,8.35L7.8,7.55L7.95,7.05L8.1,6.85M7.45,8.5L7.85,8.95L7.55,10.6L6.85,9.85M5.05,14.3L5.2,14.55M5.5,13.95L5.5,13.85L5.25,13.75L4.95,14.05L5.35,13.35M4.35,13.95C4.283,14.083 4.317,14.167 4.45,14.2L4.55,14.15L4.65,14.05L4.75,13.8L4.65,13.5M6.85,13.65L6.6,13.3" style="fill:none;fill-rule:nonzero;stroke:#280a02;stroke-width:1px;"/>
                <path d="M4.65,13.5L4.3,13.05L4.7,13.05L5.05,13.6L4.65,14.05L4.75,13.8L4.65,13.5L4.75,13.8L4.65,14.05L4.55,14.15L3.65,15.1C3.583,14.667 3.633,14.3 3.8,14C3.9,13.667 4.067,13.483 4.3,13.45L4.5,13.45L4.65,13.5M4.55,14.15L4.45,14.2C4.317,14.167 4.283,14.083 4.35,13.95C4.283,14.083 4.317,14.167 4.45,14.2L4.55,14.15" style="fill:#f1e8d2;"/>
                <path d="M4.65,14.05L5.05,13.6L4.7,13.05L5.25,13.25L5.35,13.3L5.45,13.4L5.5,13.85L5.2,14.55L4.45,14.8L3.65,15.1L4.55,14.15L4.65,14.05" style="fill:#97976f;"/>
                <path d="M4.7,13.05L4.3,13.05L4.65,13.5L4.75,13.8L4.65,14.05L4.55,14.15L4.45,14.2C4.317,14.167 4.283,14.083 4.35,13.95M4.7,13.05L5.25,13.25L5.35,13.3L5.45,13.4L5.5,13.85L5.2,14.55L4.45,14.8L3.65,15.1C3.583,14.667 3.633,14.3 3.8,14C3.9,13.667 4.067,13.483 4.3,13.45L4.5,13.45L4.65,13.5" style="fill:none;fill-rule:nonzero;stroke:#000;stroke-opacity:0.3;stroke-width:0.05px;"/>
                <path d="M8.45,12.85L9.55,13.15L9.95,14.35L9.55,15.4L8.15,15.15L6.85,13.65L4.9,14.1L5.45,13.5L6.65,12.7L7.75,13.55L8.45,12.85M6.6,13.3L6.85,13.65L6.6,13.3" style="fill:#5c1a23;"/>
                <path d="M4.9,14.1L5.4,13.25C5.7,12.85 6.283,12.467 7.15,12.1L8.45,12.85L7.75,13.55L6.65,12.7L5.45,13.5L4.9,14.1" style="fill:#931224;"/>
                <path d="M8.45,12.85L9.55,13.15L9.95,14.35L9.55,15.4L8.15,15.15L6.85,13.65L4.9,14.1M6.85,13.65L6.6,13.3" style="fill:none;fill-rule:nonzero;stroke:#000;stroke-opacity:0.45;stroke-width:0.05px;"/>
                <path d="M4.9,14.1L5.4,13.25C5.7,12.85 6.283,12.467 7.15,12.1L8.45,12.85" style="fill:none;fill-rule:nonzero;stroke:#000;stroke-opacity:0.24;stroke-width:0.05px;"/>
                <path d="M4.95,14.05L5.25,13.75L5.5,13.85C5.567,14.35 5.467,14.65 5.2,14.75L5.2,14.55L5.05,14.3C4.917,14.233 4.883,14.15 4.95,14.05" style="fill:#97976f;"/>
                <path d="M5.05,14.3L5.2,14.55L5.2,14.75C5.467,14.65 5.567,14.35 5.5,13.85L5.25,13.75L4.95,14.05" style="fill:none;fill-rule:nonzero;stroke:#000;stroke-opacity:0.3;stroke-width:0.05px;"/>
                <path d="M12.75,14.85L12.95,15.15L12.75,14.85M12.65,15.45L12.85,15.75L12.3,15.95L11.85,15.85L10.75,15.4L10.3,14.7L11.8,13.85L13.15,14.95L12.95,15.15L13.05,15.3L12.65,15.45L12.5,15.05L12.65,15.45" style="fill:#5c1a23;"/>
                <path d="M12.95,15.15L12.75,14.85M12.65,15.45L13.05,15.3L12.95,15.15L13.15,14.95L11.8,13.85L10.3,14.7L10.75,15.4L11.85,15.85L12.3,15.95L12.85,15.75L12.65,15.45L12.5,15.05" style="fill:none;fill-rule:nonzero;stroke:#000;stroke-opacity:0.45;stroke-width:0.05px;"/>
                <path d="M11.65,13.45L11.5,13.5L11.45,13.5L11.1,13.6L11.45,13.35L11.8,13.25L11.65,13.45L11.8,13.25L11.85,13.25C12.25,13.05 12.633,13.183 13,13.65L13,13.75L13.05,14.15L12.7,14.7L12.4,14.95L12.75,14.4L12.65,14L12.65,13.9C12.317,13.5 11.983,13.35 11.65,13.45" style="fill:#e49b11;"/>
                <path d="M11.1,13.6L11.45,13.5L11.5,13.5L11.65,13.45C11.983,13.35 12.317,13.5 12.65,13.9L12.65,14L12.75,14.4L12.4,14.95L11.95,15.05C11.65,15.083 11.4,15.017 11.2,14.85L10.85,14.25L10.9,13.9L11.1,13.6M12.15,13.9L12.3,14L12.5,14.3L12.15,14.65L11.6,14.45C11.4,14.217 11.367,13.967 11.5,13.7L11.65,13.45L11.5,13.7C11.367,13.967 11.4,14.217 11.6,14.45L12.15,14.65L12.5,14.3L12.3,14L12.15,13.9" style="fill:#b16507;"/>
                <path d="M11.65,13.45L11.8,13.25L11.45,13.35L11.1,13.6L10.9,13.9L10.85,14.25L11.2,14.85C11.4,15.017 11.65,15.083 11.95,15.05L12.4,14.95L12.7,14.7L13.05,14.15L13,13.75L13,13.65C12.633,13.183 12.25,13.05 11.85,13.25L11.8,13.25M11.65,13.45L11.5,13.7C11.367,13.967 11.4,14.217 11.6,14.45L12.15,14.65L12.5,14.3L12.3,14L12.15,13.9" style="fill:none;fill-rule:nonzero;stroke:#000;stroke-opacity:0.3;stroke-width:0.05px;"/>
                <path d="M8.4,16.55L8.3,17.2L8.4,16.55M9.1,16.55L8.85,17L9.1,16.55M9.8,16.4L9.7,17L9.05,17.2L8.85,17L8.55,17.25L8.3,17.2L7.9,17.35L7.45,17.1L7.45,16.55L9.8,16.4" style="fill:#931224;"/>
                <path d="M9.8,16.4L7.45,16.55L7.45,16.45L7.85,15.8L9.2,15.45L9.8,16.4" style="fill:#5c1a23;"/>
                <path d="M8.85,17L9.05,17.2L9.7,17L9.8,16.4L9.2,15.45L7.85,15.8L7.45,16.45L7.45,17.1L7.9,17.35L8.3,17.2L8.55,17.25L8.85,17" style="fill:none;fill-rule:nonzero;stroke:#000;stroke-opacity:0.45;stroke-width:0.05px;"/>
                <path d="M8.85,17L9.1,16.55M8.3,17.2L8.4,16.55" style="fill:none;fill-rule:nonzero;stroke:#000;stroke-opacity:0.24;stroke-width:0.05px;"/>
                <path d="M8.3,11.9L9.5,13.2C8.933,12.967 8.333,12.967 7.7,13.2L7.4,13.3L7.45,13.2C7.55,12.7 7.833,12.267 8.3,11.9" style="fill:#212121;"/>
                <path d="M10.1,16L10.05,16L9.25,15.55C8.883,15.217 8.7,14.817 8.7,14.35C8.7,13.95 8.817,13.617 9.05,13.35L9.25,13.15L9.7,12.8L10.4,12.65L10.9,12.7L11.25,12.85L10.9,13L10.25,13.35C9.883,13.683 9.683,14.133 9.65,14.7L9.9,15L10.5,15.35L10.5,15.45L10.4,15.9L10.1,16" style="fill:#5c1a23;"/>
                <path d="M10.5,15.35L9.9,15L9.65,14.7C9.683,14.133 9.883,13.683 10.25,13.35L10.9,13L11.25,12.85L11.6,13.15C11.9,13.417 12.067,13.733 12.1,14.1L12.15,14.35L11.9,15.2L12,14.5L11.95,14.25L11.9,14.2L11.8,13.9L11.25,13.6C10.95,13.567 10.7,13.883 10.5,14.55L10.45,14.95L10.45,15.3L10.5,15.35" style="fill:#931224;"/>
                <path d="M10.1,16L10.4,15.9L10.5,15.45L10.5,15.35L10.45,15.3L10.45,14.95L10.5,14.55C10.7,13.883 10.95,13.567 11.25,13.6L11.8,13.9L11.9,14.2L11.95,14.25L12,14.5L11.9,15.2L11.8,15.3L11.8,15.4L11.6,15.55C11.267,15.883 10.867,16.05 10.4,16.05L10.1,16M11.95,14.25L11.1,14.8L10.45,14.95L11.1,14.8L11.95,14.25" style="fill:#212121;"/>
                <path d="M11.25,12.85L10.9,12.7L10.4,12.65L9.7,12.8L9.25,13.15L9.05,13.35C8.817,13.617 8.7,13.95 8.7,14.35C8.7,14.817 8.883,15.217 9.25,15.55L10.05,16L10.1,16L10.4,15.9L10.5,15.45L10.5,15.35L10.45,15.3L10.45,14.95L10.5,14.55C10.7,13.883 10.95,13.567 11.25,13.6L11.8,13.9L11.9,14.2L11.95,14.25L12,14.5L11.9,15.2L11.8,15.3L11.8,15.4L11.6,15.55C11.267,15.883 10.867,16.05 10.4,16.05L10.1,16M11.25,12.85L11.6,13.15C11.9,13.417 12.067,13.733 12.1,14.1L12.15,14.35L11.9,15.2" style="fill:none;fill-rule:nonzero;stroke:#000;stroke-opacity:0.45;stroke-width:0.05px;"/>
                <path d="M10.45,14.95L11.1,14.8L11.95,14.25" style="fill:none;fill-rule:nonzero;stroke:#000;stroke-opacity:0.22;stroke-width:0.05px;"/>
                <path d="M9.85,14.95L9.55,15.35L9.1,15.55C9.3,15.283 9.333,15 9.2,14.7L8.85,14.2L9.2,14.7C9.333,15 9.3,15.283 9.1,15.55L8.7,15.55L8.1,15.4L7.85,15.2L7.55,14.75L7.55,14.7C7.95,14.167 8.383,14 8.85,14.2L9.3,14.4L9.65,14.6L9.85,14.95M8.45,14.95L8.35,15.1L8.1,15.4L8.35,15.1L8.45,14.95" style="fill:#e49b11;"/>
                <path d="M9.85,14.95L9.95,15.3L9.55,16L8.7,16.25C8.333,16.217 8.05,16.083 7.85,15.85C7.617,15.65 7.483,15.45 7.45,15.25L7.55,14.75L7.85,15.2L8.1,15.4L8.7,15.55L9.1,15.55L9.55,15.35L9.85,14.95M8.1,15.4L8.4,15.8L9.1,15.55L8.4,15.8L8.1,15.4" style="fill:#b16507;"/>
                <path d="M7.55,14.75L7.45,15.25C7.483,15.45 7.617,15.65 7.85,15.85C8.05,16.083 8.333,16.217 8.7,16.25L9.55,16L9.95,15.3L9.85,14.95L9.65,14.6L9.3,14.4L8.85,14.2L9.2,14.7C9.333,15 9.3,15.283 9.1,15.55L8.4,15.8L8.1,15.4L8.35,15.1L8.45,14.95M7.55,14.75L7.55,14.7C7.95,14.167 8.383,14 8.85,14.2" style="fill:none;fill-rule:nonzero;stroke:#000;stroke-opacity:0.3;stroke-width:0.05px;"/>
            </g>
            <g id="shape1">
                <path d="M9.55,14.1L10.1,13.55L10.75,14.5L10.95,14.5L10.95,14.85L10.45,14.85L10.45,14.55L9.55,14.1" style="fill:#931224;"/>
                <path d="M10.95,14.85L10.95,14.5L10.75,14.5L10.1,13.55" style="fill:none;fill-rule:nonzero;stroke:#000;stroke-opacity:0.24;stroke-width:0.05px;"/>
                <path d="M9.55,14.1L10.45,14.55L10.45,14.85L10.95,14.85" style="fill:none;fill-rule:nonzero;stroke:#000;stroke-opacity:0.45;stroke-width:0.05px;"/>
                <path d="M11.65,13.2L10.4,13.5L9.9,13.35L9.4,13.15L9.65,12.8C9.817,12.533 9.817,12.05 9.65,11.35C9.75,11.05 9.95,11.05 10.25,11.35L11.65,13.2" style="fill:#5c1a23;"/>
                <path d="M9.4,13.15L9.65,12.8C9.817,12.533 9.817,12.05 9.65,11.35C9.75,11.05 9.95,11.05 10.25,11.35L11.65,13.2" style="fill:none;fill-rule:nonzero;stroke:#000;stroke-opacity:0.45;stroke-width:0.05px;"/>
                <path d="M9,0.55C10.667,2.517 11.367,4.767 11.1,7.3L9.4,7.6C6.833,8.033 4.65,6.5 2.85,3C4.25,2.367 5.917,2.367 7.85,3C7.983,2.067 8.367,1.25 9,0.55M4.65,7.95L5.9,7.95C5.133,8.95 3.95,9.433 2.35,9.4C3.083,8.767 3.85,8.283 4.65,7.95M13.45,4.3C13.183,5 12.8,5.4 12.3,5.5L12.3,4.75C12.467,4.517 12.85,4.367 13.45,4.3" style="fill:#f1e8d2;"/>
                <path d="M9,0.55C10.5,1.65 11.6,3.05 12.3,4.75L12.3,5.5C12.8,5.4 13.183,5 13.45,4.3C13.383,5.333 13.067,6.2 12.5,6.9L12.2,7.25L10.9,8.55C8.7,10.717 7.033,11.95 5.9,12.25L5.9,10.45C4.933,10.517 3.75,10.167 2.35,9.4C3.95,9.433 5.133,8.95 5.9,7.95L4.65,7.95C3.25,6.417 2.65,4.767 2.85,3C4.65,6.5 6.833,8.033 9.4,7.6L11.1,7.3C11.367,4.767 10.667,2.517 9,0.55" style="fill:#97976f;"/>
                <path d="M12.3,4.75C11.6,3.05 10.5,1.65 9,0.55C8.367,1.25 7.983,2.067 7.85,3C5.917,2.367 4.25,2.367 2.85,3C2.65,4.767 3.25,6.417 4.65,7.95C3.85,8.283 3.083,8.767 2.35,9.4C3.75,10.167 4.933,10.517 5.9,10.45L5.9,12.25C7.033,11.95 8.7,10.717 10.9,8.55L12.2,7.25L12.5,6.9C13.067,6.2 13.383,5.333 13.45,4.3C12.85,4.367 12.467,4.517 12.3,4.75Z" style="fill:none;fill-rule:nonzero;stroke:#000;stroke-opacity:0.3;stroke-width:0.05px;"/>
                <path d="M6.95,7.7L7.05,7.55L10.1,6L10.85,6.5L10.9,6.5C11.667,7 12.517,7.467 13.45,7.9L13.6,8.1L13.25,8.65L11.45,9.3L11.25,9.3L10.9,9.15L10.35,9.05L9.8,9L9.7,9.25L8.95,8.95L6.95,7.7M11.45,8.9L10.9,8.7L10.05,8.6L9.95,8.7L9.8,9L9.95,8.7L10.05,8.6L10.9,8.7L11.45,8.9" style="fill:#c7316a;"/>
                <path d="M13.6,8.1L14,8.7L13.85,10.5L13.85,10.4L11.55,12.15L11.5,12.15L10.6,11.95L10.6,11.5L11.2,10.2L11,9.5L11.25,9.3L11.45,9.3L13.25,8.65L13.6,8.1" style="fill:#931224;"/>
                <path d="M10.6,11.95L9.1,11.65L8,11.5L7.05,10.7C6.85,10.133 6.75,9.55 6.75,8.95L6.95,7.7L8.95,8.95L9.7,9.25L9.8,9L10.35,9.05L10.9,9.15L11.25,9.3L11,9.5L11.2,10.2L10.6,11.5L10.6,11.95M9.65,9.75L9.7,9.25L9.65,9.75M10.75,9.85L10.5,9.4L10.1,9.8L10.35,10.1L10.75,9.85L10.9,10L10.75,9.85" style="fill:#5c1a23;"/>
                <path d="M10.1,9.8L10.5,9.4L10.75,9.85L10.35,10.1L10.1,9.8" style="fill:#212014;"/>
                <path d="M6.95,7.7L7.05,7.55L10.1,6L10.85,6.5L10.9,6.5C11.667,7 12.517,7.467 13.45,7.9L13.6,8.1L14,8.7L13.85,10.5M13.85,10.4L11.55,12.15L11.5,12.15L10.6,11.95L9.1,11.65L8,11.5L7.05,10.7C6.85,10.133 6.75,9.55 6.75,8.95L6.95,7.7M9.7,9.25L9.8,9L9.95,8.7L10.05,8.6L10.9,8.7L11.45,8.9M9.7,9.25L9.65,9.75M10.1,9.8L10.5,9.4L10.75,9.85L10.9,10" style="fill:none;fill-rule:nonzero;stroke:#000;stroke-opacity:0.45;stroke-width:0.05px;"/>
                <path d="M10.2,3.2L10.25,3.25L10.5,4.5L10.05,3.95C9.717,3.583 9.383,3.35 9.05,3.25L9.05,2.65L10.2,3.2M11.05,5.55L11.85,6.05L11.5,7C10.467,6.367 9.4,5.767 8.3,5.2C7.833,4.933 7.65,4.7 7.75,4.5L8.4,3L8.5,3.95L8.45,4.35L10.4,5.9L11.05,5.55" style="fill:#b16507;"/>
                <path d="M9.05,3.25L9.05,4.4L11.05,5.55L10.4,5.9L8.45,4.35L8.5,3.95L8.4,3L8.45,2.8C8.417,2.467 8.25,2.1 7.95,1.7C8.75,1.967 9.5,2.467 10.2,3.2L9.05,2.65L9.05,3.25" style="fill:#e49b11;"/>
                <path d="M7.95,1.7L7.7,1.35C9,1.65 9.833,2.267 10.2,3.2C9.5,2.467 8.75,1.967 7.95,1.7" style="fill:#ffcb50;"/>
                <path d="M10.2,3.2L10.25,3.25L10.5,4.5L10.05,3.95C9.717,3.583 9.383,3.35 9.05,3.25L9.05,4.4L11.05,5.55L11.85,6.05L11.5,7C10.467,6.367 9.4,5.767 8.3,5.2C7.833,4.933 7.65,4.7 7.75,4.5L8.4,3L8.45,2.8C8.417,2.467 8.25,2.1 7.95,1.7L7.7,1.35C9,1.65 9.833,2.267 10.2,3.2Z" style="fill:none;fill-rule:nonzero;stroke:#000;stroke-opacity:0.3;stroke-width:0.05px;"/>
                <path d="M7.7,7.15L8.45,7.65L8.1,8.6L4.95,6.8C4.45,6.533 4.25,6.3 4.35,6.1L5,4.6L5.15,5.6L5.05,5.95L7.05,7.55L7.7,7.15M6.85,4.8L6.85,4.9L7.05,6.15L6.7,5.6L5.65,4.85L5.65,4.25L6.85,4.8" style="fill:#b16507;"/>
                <path d="M4.6,3.35L4.3,2.95C5.6,3.25 6.45,3.867 6.85,4.8C6.117,4.067 5.367,3.583 4.6,3.35" style="fill:#ffcb50;"/>
                <path d="M5,4.6L5.1,4.4L4.6,3.35C5.367,3.583 6.117,4.067 6.85,4.8L5.65,4.25L5.65,6.05L7.7,7.15L7.05,7.55L5.05,5.95L5.15,5.6L5,4.6" style="fill:#e49b11;"/>
                <path d="M7.7,7.15L8.45,7.65L8.1,8.6L4.95,6.8C4.45,6.533 4.25,6.3 4.35,6.1L5,4.6L5.1,4.4L4.6,3.35L4.3,2.95C5.6,3.25 6.45,3.867 6.85,4.8L6.85,4.9L7.05,6.15L6.7,5.6L5.65,4.85L5.65,6.05L7.7,7.15Z" style="fill:none;fill-rule:nonzero;stroke:#000;stroke-opacity:0.3;stroke-width:0.05px;"/>
                <path d="M12.1,7.6L10.15,7.1L10.1,7.05L10.1,6.3L10.2,5.8L10.55,5.35C10.817,5.15 11.117,5.067 11.45,5.1L12.2,5.7C12.367,6.033 12.417,6.383 12.35,6.75L12.3,7.2L12.1,7.6M12.15,6.75L12.05,6.3L11.8,6.05L11.45,6.2L11.3,6.5L11.25,6.55L11.35,7.05L11.65,7.3L11.95,7.2L12.05,7.05L12.15,6.75" style="fill:#818181;"/>
                <path d="M12.15,6.75L12.05,7.05L11.95,7.2L11.65,7.3L11.35,7.05L11.25,6.55L11.3,6.5L11.45,6.2L11.8,6.05L12.05,6.3L12.15,6.75" style="fill:#21221f;"/>
                <path d="M12.1,7.6L10.15,7.1L10.1,7.05L10.1,6.3L10.2,5.8L10.55,5.35C10.817,5.15 11.117,5.067 11.45,5.1L12.2,5.7C12.367,6.033 12.417,6.383 12.35,6.75L12.3,7.2L12.1,7.6L12.3,7.65M12.15,6.75L12.05,7.05L11.95,7.2L11.65,7.3L11.35,7.05L11.25,6.55L11.3,6.5L11.45,6.2L11.8,6.05L12.05,6.3L12.15,6.75Z" style="fill:none;fill-rule:nonzero;stroke:#000;stroke-opacity:0.3;stroke-width:0.05px;"/>
                <path d="M10.1,4.6L11,5.2L12.2,5.2L13,6.75L13.05,7.05L11.8,7.15L10.6,6.4L10.65,5.95L9.5,4.35L10.1,4.6M11.8,6.55L11.8,5.8L10.75,5.5L10.65,5.95L10.75,5.5L11.8,5.8L11.8,6.55" style="fill:#b16507;"/>
                <path d="M10.1,4.6L10.85,4.9L12.45,5.1L13,6.75L12.2,5.2L11,5.2L10.1,4.6" style="fill:#e49b11;"/>
                <path d="M13,6.75L12.45,5.1L10.85,4.9L10.1,4.6L9.5,4.35L10.65,5.95L10.75,5.5L11.8,5.8L11.8,6.55M13,6.75L13.05,7.05L11.8,7.15L10.6,6.4L10.65,5.95" style="fill:none;fill-rule:nonzero;stroke:#000;stroke-opacity:0.3;stroke-width:0.05px;"/>
                <path d="M13.05,7.6L14.1,8.25L12.45,9.15L12.15,9.25L13.85,8.25L10.3,5.8L13.05,7.6L14.35,7.3L14.4,7.6C14.3,7.467 13.85,7.467 13.05,7.6M9.85,9L10.05,8.6C10.45,8.5 10.95,8.5 11.55,8.6C10.783,8.567 10.217,8.7 9.85,9" style="fill:#ffcb50;"/>
                <path d="M14.1,8.25L13.05,7.6C13.85,7.467 14.3,7.467 14.4,7.6L14.1,8.25M10.3,5.8L13.85,8.25L12.15,9.25L10.75,9.45L10.3,9L10.3,9.35L9.95,9.5L9.85,9L9.75,9.2L8.1,8.75L7.45,8.5L7.3,8.3L7.25,8.4L6.75,8.15L6.9,7.4C7.767,6.367 8.9,5.833 10.3,5.8M11.55,8.6C10.95,8.5 10.45,8.5 10.05,8.6L9.85,9C10.217,8.7 10.783,8.567 11.55,8.6" style="fill:#e49b11;"/>
                <path d="M12.15,9.25L12.45,9.15L14.1,8.25L14.25,8.3L13.55,12.25L12.45,12.1L10.65,11.7L9.75,10.2L9.25,9.95L8.7,10.9L8.1,8.75L9.75,9.2L9.65,9.55L9.75,9.2L9.85,9L9.95,9.5L10.3,9.35L10.3,9L10.5,9.2L10.3,9.7L10.55,10L10.9,9.7L10.75,9.45L12.15,9.25M11,9.85L10.9,9.7L11,9.85M7.25,8.4L7.3,8.3L7.45,8.5L7.85,8.95L7.55,10.6L6.5,9.55L6.75,8.15L7.25,8.4C7.117,8.8 7.117,9.25 7.25,9.75L7.4,9.55L7.25,9.75C7.117,9.25 7.117,8.8 7.25,8.4" style="fill:#b16507;"/>
                <path d="M10.5,9.2L10.75,9.45L10.9,9.7L10.55,10L10.3,9.7L10.5,9.2" style="fill:#884e05;"/>
                <path d="M14.1,8.25L13.05,7.6L10.3,5.8C8.9,5.833 7.767,6.367 6.9,7.4L6.75,8.15L6.5,9.55L7.55,10.6L7.85,8.95L7.45,8.5L8.1,8.75L8.7,10.9L9.25,9.95L9.75,10.2L10.65,11.7L12.45,12.1L13.55,12.25L14.25,8.3L14.1,8.25L14.4,7.6L14.35,7.3L13.05,7.6M9.65,9.55L9.75,9.2L10.05,8.6C10.45,8.5 10.95,8.5 11.55,8.6M10.3,9L10.75,9.45L10.9,9.7L11,9.85M10.5,9.2L10.3,9.7L10.55,10L10.9,9.7M7.45,8.5L7.3,8.3L7.25,8.4C7.117,8.8 7.117,9.25 7.25,9.75L7.4,9.55" style="fill:none;fill-rule:nonzero;stroke:#000;stroke-opacity:0.3;stroke-width:0.05px;"/>
                <path d="M11.75,7.75L11.65,8L9.65,7.25L9.8,5.5L9.9,5.3L9.75,7.05L11.7,7.75L11.75,7.75" style="fill:#121212;"/>
                <path d="M9.9,5.3L11.95,6.2L11.75,7.75L11.7,7.75L9.75,7.05L9.9,5.3" style="fill:#212121;"/>
                <path d="M11.75,7.75L11.65,8L9.65,7.25L9.8,5.5L9.9,5.3L11.95,6.2L11.75,7.75Z" style="fill:none;fill-rule:nonzero;stroke:#000;stroke-opacity:0.3;stroke-width:0.05px;"/>
                <path d="M11.65,6.3L11.6,7.4L11.4,7.3L10.4,6.95L10.2,6.85L10.25,5.65L11.65,6.3" style="fill:#c5001c;"/>
                <path d="M11.65,6.3L11.6,7.4L11.4,7.3L10.4,6.95L10.2,6.85L10.25,5.65L11.65,6.3Z" style="fill:none;fill-rule:nonzero;stroke:#000;stroke-opacity:0.3;stroke-width:0.05px;"/>
                <path d="M9.7,8.25L9.95,8.4L9.8,8.8L7.85,8.3L7.75,7.55L7.9,7.05L9,7.75L9,7.8L9.05,8.25L9.35,8.5L9.65,8.4L9.7,8.25" style="fill:#fefdfa;"/>
                <path d="M9,7.75L9.15,7.4L9.5,7.3L9.7,7.55L9.8,8L9.7,8.25L9.65,8.4L9.35,8.5L9.05,8.25L9,7.8L9,7.75" style="fill:#21221f;"/>
                <path d="M9.7,8.25L9.8,8L9.7,7.55L9.5,7.3L9.15,7.4L9,7.75L7.9,7.05L8.25,6.6C8.517,6.333 8.8,6.233 9.1,6.3C9.433,6.4 9.683,6.6 9.85,6.9C10.05,7.233 10.133,7.6 10.1,8L9.95,8.4L9.7,8.25" style="fill:#818181;"/>
                <path d="M9,7.75L9.15,7.4L9.5,7.3L9.7,7.55L9.8,8L9.7,8.25L9.65,8.4L9.35,8.5L9.05,8.25L9,7.8L9,7.75M9.95,8.4L10.1,8C10.133,7.6 10.05,7.233 9.85,6.9C9.683,6.6 9.433,6.4 9.1,6.3C8.8,6.233 8.517,6.333 8.25,6.6L7.9,7.05L7.75,7.55L7.85,8.3L9.8,8.8L9.95,8.85M9.95,8.4L9.8,8.8" style="fill:none;fill-rule:nonzero;stroke:#000;stroke-opacity:0.3;stroke-width:0.05px;"/>
                <path d="M8.4,6.95L9.25,7.25L9.5,7.75L10.7,8L10.75,8.25L9.5,8.4L8.3,7.6L8.4,7.15L7.15,5.55L7.55,5.7L8.4,6.95L8.4,7.15L8.4,6.95" style="fill:#b16507;"/>
                <path d="M8.4,6.95L8.45,6.75L9.5,7.05L9.5,7.75L9.5,7.05L8.45,6.75L8.4,6.95L7.55,5.7L7.75,5.8L8.7,6.45L9.9,6.45L10.7,8L9.5,7.75L9.25,7.25L8.4,6.95" style="fill:#e49b11;"/>
                <path d="M10.7,8L9.9,6.45L8.7,6.45L7.75,5.8L8.55,6.15L10.15,6.3L10.7,8" style="fill:#ffcb50;"/>
                <path d="M9.5,7.75L9.5,7.05L8.45,6.75L8.4,6.95L8.4,7.15L8.3,7.6L9.5,8.4L10.75,8.25L10.7,8L10.15,6.3L8.55,6.15L7.75,5.8L7.55,5.7L7.15,5.55L8.4,7.15" style="fill:none;fill-rule:nonzero;stroke:#000;stroke-opacity:0.3;stroke-width:0.05px;"/>
            </g>
        </g>
    </g>
</svg>
