<?xml version="1.0" encoding="UTF-8"?>
<svg version="1.1" viewBox="0 0 221.6 104.85" xmlns="http://www.w3.org/2000/svg" xmlns:cc="http://creativecommons.org/ns#" xmlns:dc="http://purl.org/dc/elements/1.1/" xmlns:rdf="http://www.w3.org/1999/02/22-rdf-syntax-ns#" xmlns:xlink="http://www.w3.org/1999/xlink">
<metadata>
<rdf:RDF>
<cc:Work rdf:about="">
<dc:format>image/svg+xml</dc:format>
<dc:type rdf:resource="http://purl.org/dc/dcmitype/StillImage"/>
</cc:Work>
</rdf:RDF>
</metadata>
<g transform="translate(-241.62 -56.775)">
<use transform="translate(241.65,56.8)" width="221.55" height="104.8" xlink:href="#a"/>
</g>
<defs>
<g id="a" transform="translate(-241.65,-56.8)">
<path d="m402.35 136.1-8.85 3.55-75.95-32.3-0.25-0.3q-19.55-23.35-47.2-41.95 27.65 18.6 47.2 41.95l0.25 0.3-35.3-15.05h-0.05l-10.45-4.45-0.6-1q-5.7-9-12.15-17.9 6.45 8.9 12.15 17.9l0.6 1-30.1-12.8 17.35-6.1 5.65-1.95 5.45-1.9 10.3-3.65q48.75 40.45 121.65 74.55l0.3 0.1-0.3-0.1q-72.9-34.1-121.65-74.55l9.3-3.25q85.15 26.3 132.15 69.25l0.6 0.55-0.6-0.55q-47-42.95-132.15-69.25l4.2-1.4 169.3 54.8-40.7 16.4h-0.05l-20.05 8.1h-0.05m-30.45-35.45q15.7 10.8 16.75 19.5-44.6-17.8-59.25-37.8 16.9 4.05 42.5 18.3-25.6-14.25-42.5-18.3 14.65 20 59.25 37.8-1.05-8.7-16.75-19.5m-2.15 6.7q-0.45-3.2-6.2-7.2-9.45-5.25-15.7-6.75 5.4 7.4 21.9 13.95-16.5-6.55-21.9-13.95 6.25 1.5 15.7 6.75 5.75 4 6.2 7.2m-105.1-40.35q9 11.9 16.7 24l0.85 1.3-0.85-1.3q-7.7-12.1-16.7-24" fill="#9d6002" fill-rule="evenodd"/>
<path d="m317.55 107.35 75.95 32.3 8.85-3.55h0.05l20.05-8.1h0.05l40.7-16.4v21.95l-41.2 16.55-19.95 8.05q-4.25 1.7-8.55 3.45l-75.95-32.3-37.95-16.15 2.65-20.85-2.65 20.85-10.25-4.35q3.9-10.5 2.4-20.95 1.5 10.45-2.4 20.95l-27.7-11.8v-21.95l30.1 12.8 10.45 4.45h0.05l35.3 15.05v21.95-21.95m84.85 28.75-0.35 22.05 0.35-22.05m19.6 14 0.5-22.1-0.5 22.1" fill="#694001" fill-rule="evenodd"/>
<path d="m317.55 107.35 75.95 32.3 8.85-3.55-0.3-0.1q-72.9-34.1-121.65-74.55l-10.3 3.65q27.65 18.6 47.2 41.95l0.25 0.3m-35.3-15.05-2.65 20.85 37.95 16.15v-21.95m84.8 28.75h0.05m20.05-8.1-0.6-0.55q-47-42.95-132.15-69.25l-9.3 3.25m91.5 39.2q-25.6-14.25-42.5-18.3 14.65 20 59.25 37.8-1.05-8.7-16.75-19.5m-54.35 28.65 75.95 32.3q4.3-1.75 8.55-3.45l0.35-22.05m-32.65-28.75q-16.5-6.55-21.9-13.95 6.25 1.5 15.7 6.75 5.75 4 6.2 7.2m93.45 4.25v21.95l-41.2 16.55-19.95 8.05m61.15-46.55-169.3-54.8-4.2 1.4m132.8 69.8-0.5 22.1m-163-81.15q6.45 8.9 12.15 17.9l0.6 1q1.5 10.45-2.4 20.95m12.85-16.5-0.85-1.3q-7.7-12.1-16.7-24l-5.65 1.95-17.35 6.1 30.1 12.8m-30.1-12.8v21.95l27.7 11.8" fill="none" stroke="#6b2116" stroke-linecap="round" stroke-linejoin="round" stroke-width=".05"/>
<path d="m401.5 83.9-0.35-7.55 2.65 1.15 2.45 2.1 0.2-7.3 3.95 7.75 1.4-8.05 1.75-0.45 0.35-2.65 2.8 6.7 1.55-0.45 1.4 5.15-1.05 2.65q-0.75-2.5-0.8-3.95l-1.65 2.15-0.15 0.35-1.1 2.15-4.05-1.9q-5.6 0.85-8.1 4.85l-0.3-1.15-0.95-1.55 0.95 1.55 0.3 1.15 0.6 2.15 0.55 2.15 1.7-0.45 1.65-0.45-1.9 5.9 0.25 0.85 0.85 3.2 0.85-0.25 2.8-0.75 1.6 1-0.7-2.5 1.05-0.3 0.45-1.5 1.75 2.8-0.3-5.65 2 0.85 1.8 1.55 0.2-5.45 2.95 5.8 0.8-4.65 0.25-1.35 1.3-0.35 0.25-2 2.1 5 1.1-0.3h0.1l0.45 1.75 0.55 2.05-0.8 2.05q-0.55-1.9-0.55-3l-1.25 1.6-0.95 1.9-3.05-1.45q-4.15 0.65-6.05 3.65l0.9 3.2 1.25-0.3 1.25-0.35-1.4 4.45 0.15 0.6 0.65 2.4 0.6-0.15 2.15-0.6 2.85 1.85 2.1 1.85 1.55 1.75 0.1-0.1 0.55-0.6 0.65-0.85q0.85 0.1 1.7-0.35 1.2-0.7 2.5-1.15v0.05l-0.3 1.1 3.7 1 2.6-0.7 0.45 1.7-3.05 0.45-1.35 1.45-3.05 0.85-3.8-1.45-6.7-1 1.4 1-0.1 0.85-0.15-0.35-0.15-0.25-0.3 0.15q-0.6 0.45-1.3 0.4l-0.95-2.95q0.35 1.6-0.7 2.6-0.5-0.1-0.5-0.75-0.45-0.2-0.45 0.4-0.35 0.15-0.65-0.8l-0.6 0.75-0.1-1.25q0 0.7-0.7 1-0.15 0.7-0.75 0.9l-0.35-0.65h0.05l-1.7-6.35v-3.15l-2.4-0.35 1.9 1.35-0.15 1.1-0.15-0.45-0.25-0.35-0.4 0.25q-0.8 0.6-1.75 0.55l-1.25-4q0.45 2.15-0.95 3.5-0.65-0.15-0.7-1-0.6-0.3-0.55 0.55-0.5 0.15-0.85-1.1l-0.85 1-0.1-1.65q0 0.95-0.95 1.35-0.2 0.9-1 1.2l-0.45-0.85 0.05-0.05-2.25-8.45-0.05-6.4-2.9-10.7 1.4-0.4 0.6-2.05 2.3 3.75m17.15-0.7 2.85-3.4 1.75-0.5 3.05 6.6-3.05-2-0.05-0.15-0.25-1.25q-0.1-0.55-0.55-0.4v0.15l-0.65 1.05-0.4 0.55-1.3 0.85-0.7 0.1-0.55-1.2-0.15-0.4m11.8 11.85 0.05-0.05 0.05 0.1 0.3 0.7 1.95 4.15-2.3-1.5-0.05-0.1-0.15-0.95-0.05-0.1q-0.1-0.3-0.4-0.2v0.1l-0.45 0.8-0.3 0.4-0.95 0.65-0.55 0.05-0.45-0.9-0.1-0.3 2.15-2.55 1.25-0.3m2.65 9.35 1.1-0.3 0.55 2.15-1.65-0.7v-1.15m-5.3 11.4-0.6-0.65 0.6 0.65m-12.65-15.35-0.2-0.85-0.7-1.15 0.7 1.15 0.2 0.85m-3.45-0.5 1.45 5.5 0.05 1.65-0.05-1.65-1.45-5.5" fill="#96a419" fill-rule="evenodd"/>
<path d="m414.9 83.65 1.1-2.15 0.15-0.35 1.65-2.15q0.05 1.45 0.8 3.95l-0.25 0.6 0.3-0.35 0.15 0.4 0.55 1.2 0.7-0.1 1.3-0.85 0.4-0.55 0.65-1.05v-0.15q0.45-0.15 0.55 0.4l0.25 1.25 0.05 0.15 3.05 2 0.45 1-0.05 5-1.1 0.3-2.1-5-0.25 2-1.3 0.35-0.25 1.35-5.05-6.45-1.75-0.8m12.35 10 3.2 1.4-1.25 0.3-2.15 2.55 0.1 0.3 0.45 0.9 0.55-0.05 0.95-0.65 0.3-0.4 0.45-0.8v-0.1q0.3-0.1 0.4 0.2l0.05 0.1 0.15 0.95 0.05 0.1 2.3 1.5 0.35 0.75-0.05 3.7v1.15l1.65 0.7 1.3 0.6 0.25 0.35-0.7 1.7 1.3 1.85-3.55-0.65-0.65 2q-1.3 0.45-2.5 1.15-0.85 0.45-1.7 0.35l-0.65 0.85-0.55 0.6-0.1 0.1-1.55-1.75 2.6-1.05 2.85-3.85-1.05-3.95-4.5-5.7-1.3-0.6 0.95-1.9 1.25-1.6q0 1.1 0.55 3l0.8-2.05-0.55-2.05m3.3 1.45 0.15 0.05 0.25 0.45-0.1 0.2-0.3-0.7m-3.5 2.8-0.2 0.25 0.15-0.4-0.15 0.4 0.2-0.25" fill="#605a0a" fill-rule="evenodd"/>
<path d="m402.75 86.6q2.5-4 8.1-4.85l4.05 1.9 1.75 0.8 5.05 6.45-0.8 4.65-2.95-5.8-0.2 5.45-1.8-1.55-2-0.85 0.3 5.65-1.75-2.8-0.45 1.5-1.05 0.3 0.7 2.5-1.6-1-2.8 0.75 0.9-1.6 4.45-5.9 0.2-2.35-4.4 3.15-2.85 3.75-0.25-0.85 1.9-5.9-1.65 0.45 4-4 1.45-2.25-4.1 1.1-3.6 3.45-0.6-2.15m12.85 15.45-0.45-1.6q1.9-3 6.05-3.65l3.05 1.45 1.3 0.6 4.5 5.7 1.05 3.95-2.85 3.85-2.6 1.05-2.1-1.85-2.85-1.85-2.15 0.6 0.7-1.25 3.35-4.4 0.15-1.75-3.35 2.35-2.1 2.8-0.15-0.6 1.4-4.45-1.25 0.35 3-3 1.05-1.7-3.05 0.8-2.7 2.6" fill="#d8d366" fill-rule="evenodd"/>
<path d="m403.35 88.75 3.6-3.45 4.1-1.1-1.45 2.25-4 4-1.7 0.45-0.55-2.15m2.25 8 2.85-3.75 4.4-3.15-0.2 2.35-4.45 5.9-0.9 1.6-0.85 0.25-0.85-3.2m10 5.3 2.7-2.6 3.05-0.8-1.05 1.7-3 3-1.25 0.3-0.45-1.6m1.7 6 2.1-2.8 3.35-2.35-0.15 1.75-3.35 4.4-0.7 1.25-0.6 0.15-0.65-2.4" fill="#e8e672" fill-rule="evenodd"/>
<path d="m418.6 82.95 1.05-2.65-1.4-5.15-1.55 0.45-2.8-6.7-0.35 2.65-1.75 0.45-1.4 8.05-3.95-7.75-0.2 7.3-2.45-2.1-2.65-1.15 0.35 7.55 0.95 1.55 0.3 1.15q2.5-4 8.1-4.85l4.05 1.9m3.7-0.7-0.25 0.6 0.3-0.35 2.85-3.4 1.75-0.5 3.05 6.6 0.45 1-0.05 5h0.1l0.45 1.75 3.2 1.4 0.05-0.05 0.05 0.1 0.15 0.05m0.25 0.45-0.1 0.2 1.95 4.15 0.35 0.75-0.05 3.7 1.1-0.3 0.55 2.15 1.3 0.6m0.25 0.35-0.7 1.7 1.3 1.85-3.55-0.65-0.65 2v0.05l-0.3 1.1 3.7 1 2.6-0.7 0.45 1.7-3.05 0.45-1.35 1.45-3.05 0.85-3.8-1.45-6.7-1 1.4 1-0.1 0.85m-7.65-0.8h0.05l-1.7-6.35v-3.15l-2.4-0.35 1.9 1.35-0.15 1.1m-10.2-1 0.05-0.05-2.25-8.45-0.05-6.4-2.9-10.7 1.4-0.4 0.6-2.05 2.3 3.75m4.1 6.55 1.65-0.45-1.9 5.9 0.25 0.85 0.85 3.2 0.85-0.25 2.8-0.75 1.6 1-0.7-2.5 1.05-0.3 0.45-1.5 1.75 2.8-0.3-5.65 2 0.85 1.8 1.55 0.2-5.45 2.95 5.8 0.8-4.65-5.05-6.45-1.75-0.8m6.8 7.25 0.25-1.35 1.3-0.35 0.25-2 2.1 5 1.1-0.3m0.3 5.85 0.8-2.05-0.55-2.05m-3 4.6-3.05-1.45q-4.15 0.65-6.05 3.65l0.9 3.2 1.25-0.3 1.25-0.35-1.4 4.45 0.15 0.6 0.65 2.4 0.6-0.15 2.15-0.6 2.85 1.85 2.1 1.85 2.6-1.05 2.85-3.85-1.05-3.95-4.5-5.7-1.3-0.6m2.75-0.5-0.15 0.4 0.2-0.25 2.15-2.55 1.25-0.3m0.1 0.05 0.3 0.7m-27.5-7.05 0.55 2.15 1.7-0.45m-2.85-3.85 0.6 2.15m29.75 15.65v1.15l1.65 0.7m-9.1 7.15 1.55 1.75 0.6 0.65m-14.6-8.7-0.05-1.65-1.45-5.5m2.55-1.5 0.7 1.15 0.2 0.85" fill="none" stroke="#000" stroke-linecap="round" stroke-linejoin="round" stroke-opacity=".30196" stroke-width=".05"/>
</g>
</defs>
</svg>
