<?xml version="1.0" encoding="UTF-8"?>
<svg version="1.1" viewBox="0 0 86.902 36.642" xmlns="http://www.w3.org/2000/svg" xmlns:cc="http://creativecommons.org/ns#" xmlns:dc="http://purl.org/dc/elements/1.1/" xmlns:rdf="http://www.w3.org/1999/02/22-rdf-syntax-ns#" xmlns:xlink="http://www.w3.org/1999/xlink">
<metadata>
<rdf:RDF>
<cc:Work rdf:about="">
<dc:format>image/svg+xml</dc:format>
<dc:type rdf:resource="http://purl.org/dc/dcmitype/StillImage"/>
</cc:Work>
</rdf:RDF>
</metadata>
<g transform="translate(-231.5 -181.66)">
<use transform="translate(231.5,181.65)" width="86.900002" height="36.650002" xlink:href="#a"/>
</g>
<defs>
<g id="a" transform="translate(-231.5,-181.65)">
<path d="m234.6 195.85q0.7-0.45 1.8-0.85 3.65-1.4 8.85-1.4t8.85 1.4q3.65 1.35 3.7 3.3l-0.05 0.35-0.1 0.45-0.3 0.05q-3.9 1.3-9.45 1.3t-9.45-1.3l-0.2-0.05q-3.7-1.3-3.7-3.05l0.05-0.2m53.1-5.65-4.2 0.25-6.05-0.6-1.3-0.4q-3.05-1-3.05-2.4v-0.15q0.6-0.4 1.45-0.7 2.85-1.05 6.9-1.05 4 0 6.85 1.05 1.4 0.55 2.15 1.2l-0.25 0.15-1.55 1.3 1.55-1.3 0.25-0.15q3.1-2.2 7.95-3.45 5-1.35 8.9-0.95 3.9 0.35 4.4 2.25l0.05 0.75-0.2 0.15-0.6 0.4q-3.3 2-8.2 3.3-5.3 1.4-9.35 1.2h-0.15l-3.15-0.6-0.9-0.55q-0.4-0.35-0.5-0.85l-0.05-0.1v-0.1l-0.1 0.1q-0.6 0.6-0.85 1.25m4.4 9.15 0.3-0.05q-3.95-0.25-6.9-1.25l-0.2-0.05q-2.8-0.95-3.45-2.2l-0.25-0.85v-0.2q0.75-0.45 1.85-0.85 2.1-0.8 4.7-1.15 0.85 0.75 2.65 1.1l1.1 0.15 7.6-0.65 1.65 0.55q2.8 1.05 3.5 2.45l0.2 0.85-0.05 0.35-0.1 0.45-0.3 0.05-5.35 1.1 3.6 0.75 0.35 0.05q2.65 0.7 4.8 1.7l3.4 1.95q2.35 1.65 2.7 3.15v1l-0.35 0.7h-0.3q-4.1 0.25-9.45-1.2l-1.95-0.55q-2.65-0.85-4.75-1.9l-2.1-1.25-0.6-0.4q-2-1.45-2.35-2.65-0.15-0.5 0-0.95l0.05-0.2m6.95-0.2-5-0.15-1.65 0.3 1.65-0.3 5 0.15m-40 7.25q0.75-0.45 1.8-0.85 3.7-1.4 8.9-1.4 5.15 0 8.85 1.4 3.65 1.35 3.65 3.3v0.35l-0.15 0.45-0.25 0.05q-3.95 1.3-9.45 1.3-5.55 0-9.45-1.3l-0.25-0.05q-3.7-1.3-3.65-3.05v-0.2" fill="#fff" fill-rule="evenodd"/>
<path d="m257.75 198.65q3.2 1.3 3.25 3.15l-0.15 0.8q-0.6 1.45-3.55 2.55-3.65 1.35-8.85 1.35t-8.85-1.35q-3.7-1.4-3.65-3.35v-0.35l0.45 0.2q3.65 1.35 8.85 1.35t8.85-1.35q2.95-1.1 3.55-2.55l0.1-0.45m17.3-7.1q2.7 0.9 6.4 0.9 3.45 0 6.05-0.8v0.05q0.15 0.6 0.65 1.05-2.6 0.35-4.7 1.15-1.1 0.4-1.85 0.85l-1.1 0.85-2.75-0.7q-2.85-1.1-2.85-2.6 0-0.4 0.15-0.75m7.95 8.8 0.45 0.2q2.6 0.95 6 1.25-0.8 0.65-0.8 1.5t0.95 1.55q-1.6-0.3-2.95-0.8-3.7-1.4-3.65-3.35v-0.35m16.5-7 1.3-0.35q5-1.35 8.2-3.6 2.05-1.5 2.6-2.75 2.85 0.45 3.3 2.1l0.05 0.75q-0.2 1.55-2.75 3.4-3 2.1-7.55 3.45-0.7-1.4-3.5-2.45l-1.65-0.55m5.2 4.65 0.1-0.45q3.2 1.3 3.25 3.15l-0.15 0.8-0.1 0.15q-2.15-1-4.8-1.7l-0.35-0.05q1.6-0.9 2.05-1.9m9.2 8.75 0.5 0.35q3.15 2.25 2.7 4.15l-0.35 0.7q-1 1.25-4.1 1.55-3.9 0.35-8.9-0.95-3.6-1-6.3-2.45l-2.75-0.75q-2.85-1.05-2.85-2.55l0.2-0.75 1 0.3 1.2 0.25q2.7 1.45 6.3 2.45 5 1.3 8.9 0.95 3.1-0.3 4.1-1.55l0.35-0.7v-1m-16.45 3.35-1.9-1.2q-1.9-1.35-2.5-2.55 0.6 1.2 2.5 2.55l1.9 1.2m-15.2-0.9q3.2 1.3 3.2 3.15l-0.15 0.8q-0.6 1.45-3.5 2.55-3.7 1.35-8.85 1.35-5.2 0-8.9-1.35-3.65-1.4-3.65-3.35l0.05-0.35 0.4 0.2q3.7 1.35 8.9 1.35 5.15 0 8.85-1.35 2.9-1.1 3.5-2.55l0.15-0.45" fill="#ccb266" fill-rule="evenodd"/>
<path d="m235.95 201.45q-3.25-1.35-3.2-3.15 0-1.4 1.85-2.45l-0.05 0.2q0 1.75 3.7 3.05l0.2 0.05q3.9 1.3 9.45 1.3t9.45-1.3l0.3-0.05q-0.6 1.45-3.55 2.55-3.65 1.35-8.85 1.35t-8.85-1.35l-0.45-0.2m37.15-14.55v0.15q0 1.4 3.05 2.4l1.3 0.4 6.05 0.6 4.2-0.25q-0.4 0.75-0.2 1.45-0.2-0.7 0.2-1.45 0.25-0.65 0.85-1.25l0.1-0.1v0.1l0.05 0.1q0.1 0.5 0.5 0.85l0.9 0.55 3.15 0.6h0.15q4.05 0.2 9.35-1.2 4.9-1.3 8.2-3.3l0.6-0.4 0.2-0.15-0.15 0.65q-0.55 1.25-2.6 2.75-3.2 2.25-8.2 3.6l-1.3 0.35-7.6 0.65-1.1-0.15q-1.8-0.35-2.65-1.1-0.5-0.45-0.65-1.05v-0.05q-2.6 0.8-6.05 0.8-3.7 0-6.4-0.9l-0.5-0.15q-2.85-1.1-2.85-2.6 0-1.1 1.4-1.9m7.4 8.7 1.1-0.85v0.2l0.25 0.85q0.65 1.25 3.45 2.2l0.2 0.05q2.95 1 6.9 1.25l-0.3 0.05q-2.05 0.6-2.4 1.9l-0.1 0.4-0.15 0.15 0.15-0.15 0.1-0.4q0.35-1.3 2.4-1.9l-0.05 0.2q-0.15 0.45 0 0.95 0.35 1.2 2.35 2.65l0.6 0.4 2.1 1.25q2.1 1.05 4.75 1.9l1.95 0.55q5.35 1.45 9.45 1.2h0.3q-1 1.25-4.1 1.55-3.9 0.35-8.9-0.95-3.6-1-6.3-2.45l-1.2-0.25-1-0.3-0.55-0.2-1.9-1q-0.95-0.7-0.95-1.55t0.8-1.5q-3.4-0.3-6-1.25l-0.45-0.2q-3.25-1.3-3.2-3.15-0.05-0.85 0.7-1.6m24.2 2.4q-0.45 1-2.05 1.9l-3.6-0.75 5.35-1.1 0.3-0.05m-10.45 8.6-1.4-0.85-0.4-0.25-0.1-0.1-0.25-0.15q-2.6-1.95-2.5-3.6-0.1 1.65 2.5 3.6l0.25 0.15 0.1 0.1 0.4 0.25 1.4 0.85m-33.8 5.4q-3.25-1.3-3.25-3.15 0-1.4 1.85-2.45v0.2q-0.05 1.75 3.65 3.05l0.25 0.05q3.9 1.3 9.45 1.3 5.5 0 9.45-1.3l0.25-0.05q-0.6 1.45-3.5 2.55-3.7 1.35-8.85 1.35-5.2 0-8.9-1.35l-0.4-0.2" fill="#eec846" fill-rule="evenodd"/>
<path d="m234.6 195.85q0.7-0.45 1.8-0.85 3.65-1.4 8.85-1.4t8.85 1.4q3.65 1.35 3.7 3.3l-0.05 0.35m-21.8 2.8q-3.25-1.35-3.2-3.15 0-1.4 1.85-2.45m23.05 3.25 0.1-0.45m15.35-11.75q-1.4 0.8-1.4 1.9 0 1.5 2.85 2.6l0.5 0.15q2.7 0.9 6.4 0.9 3.45 0 6.05-0.8-0.2-0.7 0.2-1.45 0.25-0.65 0.85-1.25l0.1-0.1 1.55-1.3 0.25-0.15q-0.75-0.65-2.15-1.2-2.85-1.05-6.85-1.05-4.05 0-6.9 1.05-0.85 0.3-1.45 0.7m8.5 7.85-1.1 0.85q-0.75 0.75-0.7 1.6-0.05 1.85 3.2 3.15l0.45 0.2q2.6 0.95 6 1.25l0.15-0.15 0.1-0.4q0.35-1.3 2.4-1.9l0.3-0.05 1.65-0.3 5 0.15 3.6 0.75 0.35 0.05q2.65 0.7 4.8 1.7l3.4 1.95q2.35 1.65 2.7 3.15v1l-0.35 0.7q-1 1.25-4.1 1.55-3.9 0.35-8.9-0.95-3.6-1-6.3-2.45l-1.2-0.25-1-0.3-0.55-0.2-1.9-1q-0.95-0.7-0.95-1.55t0.8-1.5m-7.85-7.05q0.75-0.45 1.85-0.85 2.1-0.8 4.7-1.15-0.5-0.45-0.65-1.05v-0.05m12 1.7-7.6 0.65-1.1-0.15q-1.8-0.35-2.65-1.1m23.45-6.1q-0.55 1.25-2.6 2.75-3.2 2.25-8.2 3.6l-1.3 0.35 1.65 0.55q2.8 1.05 3.5 2.45m6.95-9.7 0.15-0.65-0.05-0.75q-0.5-1.9-4.4-2.25-3.9-0.4-8.9 0.95-4.85 1.25-7.95 3.45m14.35 10.15-0.1 0.45q-0.45 1-2.05 1.9m2.15-2.35 0.05-0.35-0.2-0.85m-15.05 5.3q-0.1 1.65 2.5 3.6l0.25 0.15 0.1 0.1 0.4 0.25 1.4 0.85m-33.8 5.4q-3.25-1.3-3.25-3.15 0-1.4 1.85-2.45 0.75-0.45 1.8-0.85 3.7-1.4 8.9-1.4 5.15 0 8.85 1.4 3.65 1.35 3.65 3.3v0.35l-0.15 0.45q-0.6 1.45-3.5 2.55-3.7 1.35-8.85 1.35-5.2 0-8.9-1.35l-0.4-0.2m-24.5-10.55 0.45 0.2q3.65 1.35 8.85 1.35t8.85-1.35q2.95-1.1 3.55-2.55" fill="none" stroke="#d5a913" stroke-linecap="round" stroke-linejoin="round" stroke-width="2.5"/>
<path d="m257.75 198.65q3.2 1.3 3.25 3.15l-0.15 0.8q-0.6 1.45-3.55 2.55-3.65 1.35-8.85 1.35t-8.85-1.35q-3.7-1.4-3.65-3.35v-0.35m44.55-5.85-2.75-0.7q-2.85-1.1-2.85-2.6 0-0.4 0.15-0.75m29.6 4.8q4.55-1.35 7.55-3.45 2.55-1.85 2.75-3.4l-0.05-0.75q-0.45-1.65-3.3-2.1m-3.8 15 0.1-0.15 0.15-0.8q-0.05-1.85-3.25-3.15m9.1 9.2 0.5 0.35q3.15 2.25 2.7 4.15l-0.35 0.7q-1 1.25-4.1 1.55-3.9 0.35-8.9-0.95-3.6-1-6.3-2.45l-2.75-0.75q-2.85-1.05-2.85-2.55l0.2-0.75m-2.45-1.2q-1.6-0.3-2.95-0.8-3.7-1.4-3.65-3.35v-0.35m10.05 6q0.6 1.2 2.5 2.55l1.9 1.2m-15.2-0.9q3.2 1.3 3.2 3.15l-0.15 0.8q-0.6 1.45-3.5 2.55-3.7 1.35-8.85 1.35-5.2 0-8.9-1.35-3.65-1.4-3.65-3.35l0.05-0.35" fill="none" stroke="#ccb266" stroke-linecap="round" stroke-linejoin="round" stroke-width="2.5"/>
</g>
</defs>
</svg>
