<?xml version="1.0" encoding="UTF-8"?>
<svg version="1.1" viewBox="0 0 240.25 84.544" xmlns="http://www.w3.org/2000/svg" xmlns:cc="http://creativecommons.org/ns#" xmlns:dc="http://purl.org/dc/elements/1.1/" xmlns:rdf="http://www.w3.org/1999/02/22-rdf-syntax-ns#" xmlns:xlink="http://www.w3.org/1999/xlink">
<metadata>
<rdf:RDF>
<cc:Work rdf:about="">
<dc:format>image/svg+xml</dc:format>
<dc:type rdf:resource="http://purl.org/dc/dcmitype/StillImage"/>
</cc:Work>
</rdf:RDF>
</metadata>
<g transform="translate(-173.32 -167.48)">
<use transform="matrix(-1.1679 .3195 -.3195 -1.1679 224.42 221.79)" width="28.65" height="30.549999" xlink:href="#a"/>
<use transform="matrix(-.3199 -.7608 .7608 -.3199 256.82 205.41)" width="28.65" height="30.549999" xlink:href="#a"/>
<use transform="translate(173.35,167.5)" width="240.2" height="83.949997" xlink:href="#b"/>
<use transform="matrix(.5433 .9409 -.9409 .5433 219.63 211.26)" width="28.65" height="30.549999" xlink:href="#a"/>
<use transform="matrix(.4903 .4903 -.4903 .4903 215.97 219.46)" width="28.65" height="30.549999" xlink:href="#a"/>
</g>
<defs>
<g id="a" transform="translate(14.3,15.25)">
<path d="m11.35 15.3q-9.65-1.2-12.05-8.8-1.05 3.55-6.25 4.8-2.3-3.05-0.65-5.75-3.7 2.3-6.7-0.75 1.6-4.85 6.7-5.6-4.35-0.55-4.6-8.2 5-1.25 9.75 2.2-0.3-4.35 3.5-8.45 3.7 4.15 1.9 7.55 1.25-1.7 5.25-2.85l0.4-0.1 0.2 0.65q1.2 4.55-2.35 7.65 4.75-2.6 7.9-0.05-0.85 6.45-7.15 5.45 6.1 3.9 4.15 12.25" fill="#124601" fill-rule="evenodd"/>
<path d="m11.35 15.3q-9.65-1.2-12.05-8.8-1.05 3.55-6.25 4.8-2.3-3.05-0.65-5.75-3.7 2.3-6.7-0.75 1.6-4.85 6.7-5.6-4.35-0.55-4.6-8.2 5-1.25 9.75 2.2-0.3-4.35 3.5-8.45 3.7 4.15 1.9 7.55 1.25-1.7 5.25-2.85l0.4-0.1 0.2 0.65q1.2 4.55-2.35 7.65 4.75-2.6 7.9-0.05-0.85 6.45-7.15 5.45 6.1 3.9 4.15 12.25z" fill="none" stroke="#003d00" stroke-linecap="round" stroke-linejoin="round" stroke-width=".05"/>
</g>
<g id="b" transform="translate(-173.35,-167.5)">
<path d="m355.6 189.2 5.15 1.2q-5.9 5.5-11.15 11.1l-0.55 0.6 0.55-0.6q5.25-5.6 11.15-11.1l15.95 3.8-27.65 7.9-9.6 2.75 0.8-0.8q7.05-7.5 15.35-14.85-8.3 7.35-15.35 14.85l-0.8 0.8-32.45 9.3 0.25-0.2q17.9-14.45 43.3-25.9l5.05 1.15m-110.2 11.85 0.85-0.15h-0.05l-0.8 0.15m44.5-9.7 38.85-8.45 3.85 0.9q-32.7 6.75-59.25 15.35 0.4-0.95-0.55-1.7 10.55-4.4 16.65-5.9l0.1-0.05 0.35-0.15m-11.9 15.15 1.85-0.7q10.25-4.1 10.25-5.75v-0.2l6.05-1.15q-9.5 8.7-32.55 16.7l-0.75 0.3q0.85-0.85 0.9-1.3 0-0.8-0.45-1.45l-4.15 1.2q0.35-2 5.65-4.45 8.7-3.25 14.4-4.15l-1.2 0.95q-4.5 3.35-14.7 6.45 10.2-3.1 14.7-6.45m-16.8 2-1.6 0.85q-2.3 1.3-6.35 2.65l-0.45 0.15q1.95-1.05 4.35-2.15l4.05-1.5m26.05 2.75q3.15-2.3 6-3l2.9-0.7-8.9 3.7m-76.5 15.65 0.55-0.35-0.15 0.45-0.4-0.1m18.45 5.05q0.1-0.1 0.25-0.1l-0.05 0.15-0.2-0.05" fill="#db9c35" fill-rule="evenodd"/>
<path d="m229.05 204.65v-0.05l3.7-0.8v0.05h-0.05l-3.65 0.8m60.35-13.2h0.15l0.4-0.1h-0.05l-0.35 0.1 0.35-0.1-0.35 0.15-0.1 0.05-0.05-0.1m6.75 16.1 3.6-1.55q-0.5 0.65-1.5 1.05l-2.1 0.5m-6.05-7.7v0.2q0 1.65-10.25 5.75l-1.85 0.7 1.2-0.95q-5.7 0.9-14.4 4.15-5.3 2.45-5.65 4.45l4.15-1.2q0.45 0.65 0.45 1.45-0.05 0.45-0.9 1.3-9.45 3.2-21.05 6.35 0.1-0.8 0.55-1.6 2-3.85 10.45-8.3l0.45-0.15q4.05-1.35 6.35-2.65l1.6-0.85q2.6-1.3 5-2l4.95-1.9q3.15-1.65 8.75-4.05 6.55-2.9 7.95-2.9 2.15 0 2.25 2.2-12.35 2.65-28.9 8.65 16.55-6 28.9-8.65" fill="#e3b459" fill-rule="evenodd"/>
<path d="m339.45 204.85 9.6-2.75q-1.4 6.45 2.2 12.95l-9.4 2.7-34.85 9.95v-13.55l32.45-9.3 2.4 12.9-2.4-12.9m37.25-10.65v13.55l-25.45 7.3q-3.6-6.5-2.2-12.95l27.65-7.9" fill="#764203" fill-rule="evenodd"/>
<path d="m307 227.7-69.7 19.95-7.85-2.1-18.3-4.95-37.8-10.25v-13.55l28.5 7.7 8.85 2.4h0.05l0.4 0.1 11.1 3.05 6.9 1.9h0.05l0.2 0.05 7.9 2.1 69.7-19.95v13.55m-95.85 12.9-0.45-13.7 0.45 13.7m18.3 4.95-0.3-13.6 0.3 13.6" fill="#5e4a24" fill-rule="evenodd"/>
<path d="m173.35 216.8 39.1-8.55h0.05l0.45-0.1 9.25-2h0.1l6.75-1.5 3.65-0.8h0.05l1.55-0.35h0.05l11.05-2.45 0.8-0.15 30.25-6.6q-0.85 2.1-7.8 3.8l-9.6 1.8q-7.3 2-22.15 7.9-4.55 1.8-10.1 4.65l-10.25 4.95q-4.85 1.95-14.7 7.1l-28.5-7.7m159.25-33 8.5 2 9.45 2.25q-25.4 11.45-43.3 25.9l-0.25 0.2-69.7 19.95-7.9-2.1 0.05-0.15q31.35-9.9 57.8-20.6l8.9-3.7 2.1-0.5q1-0.4 1.5-1.05 0.45-0.65 0.45-1.45 0-2.25-2.3-2.25-5.2 0-11.85 4.25l-8.4 5.35-10.35 2.9-3.6 0.95 0.05 0.45q-0.05 1.75-9.8 5.8-8.9 3.65-14.3 4.75l-17.4 3.3-11.1-3.05 0.15-0.45q25.1-15.45 62.05-27.4 26.55-8.6 59.25-15.35m8.5 2q-18.75 10.45-41.35 20.2 22.6-9.75 41.35-20.2m-88.3 26.35q-8.45 4.45-10.45 8.3-0.45 0.8-0.55 1.6 11.6-3.15 21.05-6.35l0.75-0.3q23.05-8 32.55-16.7l-6.05 1.15q-0.1-2.2-2.25-2.2-1.4 0-7.95 2.9-5.6 2.4-8.75 4.05l-4.95 1.9q-2.4 0.7-5 2l-4.05 1.5q-2.4 1.1-4.35 2.15" fill="#997c3c" fill-rule="evenodd"/>
<path d="m276.45 194.3 12.95-2.85 0.05 0.1q-6.1 1.5-16.65 5.9 0.95 0.75 0.55 1.7-36.95 11.95-62.05 27.4l-0.55 0.35h-0.05l-8.85-2.4q9.85-5.15 14.7-7.1l10.25-4.95q5.55-2.85 10.1-4.65 14.85-5.9 22.15-7.9l9.6-1.8q6.95-1.7 7.8-3.8m-54.2 35.75 17.4-3.3q5.4-1.1 14.3-4.75 9.75-4.05 9.8-5.8l-0.05-0.45 3.6-0.95 10.35-2.9 8.4-5.35q6.65-4.25 11.85-4.25 2.3 0 2.3 2.25 0 0.8-0.45 1.45l-3.6 1.55-2.9 0.7q-2.85 0.7-6 3-26.45 10.7-57.8 20.6-0.15 0-0.25 0.1h-0.05l-6.9-1.9" fill="#b89647" fill-rule="evenodd"/>
<path d="m360.75 190.4-5.15-1.2q-8.3 7.35-15.35 14.85l-0.8 0.8m9.6-2.75 0.55-0.6q5.25-5.6 11.15-11.1l15.95 3.8v13.55l-25.45 7.3q-3.6-6.5-2.2-12.95l27.65-7.9m-34.85 23.55-34.85 9.95m21.75-44.8 3.85 0.9 8.5 2 9.45 2.25m-8.7 29.7-2.4-12.9m-32.45 9.3 0.25-0.2q17.9-14.45 43.3-25.9m-60.45 11.8q-12.35 2.65-28.9 8.65l-4.05 1.5q-2.4 1.1-4.35 2.15-8.45 4.45-10.45 8.3-0.45 0.8-0.55 1.6 11.6-3.15 21.05-6.35m0.45-2.75-4.15 1.2q0.35-2 5.65-4.45 8.7-3.25 14.4-4.15l-1.2 0.95q-4.5 3.35-14.7 6.45m26.8-13.1 6.05-1.15q-9.5 8.7-32.55 16.7l-0.75 0.3m44.15-1.55v13.55m-77.8 4.25h-0.05" fill="none" stroke="#000" stroke-linecap="round" stroke-linejoin="round" stroke-opacity=".30196" stroke-width=".05"/>
<path d="m289.4 191.45h0.15l0.35-0.1 38.85-8.45m-55.4 16.25q26.55-8.6 59.25-15.35" fill="none" stroke="#815223" stroke-linecap="round" stroke-linejoin="round" stroke-width=".05"/>
<path d="m234.35 203.5 11.05-2.45 0.8-0.15 30.25-6.6 12.95-2.85m-78.65 35.45 0.55-0.35" fill="none" stroke="#4e1414" stroke-linecap="round" stroke-linejoin="round" stroke-width=".05"/>
<path d="m232.75 203.85 1.55-0.35m-1.55 0.35h-0.05l-3.65 0.8" fill="none" stroke="#4f2d13" stroke-linecap="round" stroke-linejoin="round" stroke-width=".05"/>
<path d="m307 227.7-69.7 19.95-7.85-2.1-18.3-4.95-37.8-10.25v-13.55l39.1-8.55m0.5-0.1 9.25-2m0.1 0 6.75-1.5m70.7 1.35q22.6-9.75 41.35-20.2m-41.35 20.2-3.6 1.55m-8.9 3.7 8.9-3.7m-84.85 19q25.1-15.45 62.05-27.4m-62.65 27.75 0.45 13.7m18.05-8.65q0.1-0.1 0.25-0.1 31.35-9.9 57.8-20.6m-58.1 20.7 0.3 13.6m-0.05-13.55-0.2-0.05m0.2 0.05 7.9 2.1 69.7-19.95" fill="none" stroke="#78441d" stroke-linecap="round" stroke-linejoin="round" stroke-width=".05"/>
<path d="m267.7 239-19.3 5.55-0.15-0.05 0.1-13.45-26.95-10.3 13.55-4.45 33.65 20.5-0.9 2.2" fill="#200" fill-opacity=".49804" fill-rule="evenodd"/>
<path d="m335.3 175.4 0.1-0.15 12.3-2.75q-7.1 2.1-12.4 2.9m-79.45 47.15 0.5 0.45-0.5-0.45m37.75 6.9 0.15-0.65-0.15 0.75v-0.1m76.05-61.7-0.2 0.25-0.35-0.3 0.85-0.2-0.15 0.05-0.15 0.2m-91.45 47.45-7.2 2.6 0.55-0.4 6.65-2.2" fill="#db9c35" fill-rule="evenodd"/>
<path d="m277.3 188.35-0.75 0.2v-0.05l0.75-0.15m105.15 16.55-0.15 0.05 0.05-0.05h0.1m-20.25 5.6-0.5 0.15 0.15-0.05 0.35-0.1" fill="#eccb8c" fill-rule="evenodd"/>
<path d="m335.3 175.4v-0.1l0.1-0.05-0.1 0.15m31 9.6 0.1 0.25-1.3 0.35 1.2-0.6m-4.45 25.6 0.35-0.1-0.35 0.1" fill="#e3b459" fill-rule="evenodd"/>
<path d="m326.8 220.35 0.05-0.05 0.35-0.1-0.4 0.15" fill="#410101" fill-rule="evenodd"/>
<path d="m293.05 229.7 0.4-0.15 0.15-0.1v0.1l-0.55 0.15" fill="#941010" fill-rule="evenodd"/>
<path d="m369.95 167.5-0.3 0.25 0.15-0.2 0.15-0.05" fill="#b61212" fill-rule="evenodd"/>
<path d="m239.95 209 0.85 0.75q-2.9 5.65-1.65 12.2-1.25-6.55 1.65-12.2l6.9 5.85 8.15 6.95 0.5 0.45 4.55 3.85 10.4 8.85 7.6-2.1 14.05-3.9h0.1l0.55-0.15 8.05-2.25q-0.45 7.25 1.6 14.5l-31.9 9.65-32.2-29.5-10.3-9.45-0.1-12.35 11.2 8.85m70.2 15.95 16.65-4.6 0.4-0.15 18.35-5.1h0.05l16.25-4.5-0.15 0.05 0.5-0.15 20.15-5.6-0.05 0.05 0.15-0.05 31.1-8.65-0.45 12.45-71.85 21.7-27.7 8.3-10.3 3.1q-2.05-7.25-1.6-14.5l8.5-2.35q-0.5 7.3 3.4 13.75-3.9-6.45-3.4-13.75m31.1 5.45q-1.5-7.2 4.35-15.3-5.85 8.1-4.35 15.3" fill="#5e4a24" fill-rule="evenodd"/>
<path d="m276.55 188.55-1.45 0.85-9.85 3.55q-4.1 2-13.2 5.85-9 4.25-9.75 5.95l-2.35 4.25-11.2-8.85 47.8-11.6m-35.75 21.2q23.65-15.65 51.65-24.4-11.4 4.7-15.1 6.85-10.35 5.9-18.8 12.45-8.5 6.6-10.85 10.95l-6.9-5.85m20.1 17.1q6.2-1.75 16.9-6.05 18.65-7.45 29.05-14.1l8.7-6.7q5.6-4.5 9.7-6.2l11.8-4.85-7 6.05-9.75 7.45-9.4 7.2q-14 11.8-17.55 14.35l-4.6 3.8q-2.85 2.25-5.5 2.8-1.35 0.3-4.35 3l-7.6 2.1-10.4-8.85m40.75 0.45q30.65-29.4 72-57.35l10.8 7.1-3.2 1.55-14.95 6.4-1.2 0.6 1.3-0.35 0.8-0.1q4.7-0.7 13.15-3.6 5.35-1.85 7.3-2.4l5.1 3.4-13.95 6.3q-25.7 11.8-48.3 24.3l-12.15 6.95-8.2 4.85-8.5 2.35m-30.1-9.9-1.55 0.5q4.65-8.95 8.95-12.6t11.75-8.3 37.75-8.85l-1.45 1.2-0.9 0.75q-18.1 14.65-47.9 25.1l-6.65 2.2m74-2.3q19.35-12.25 45.15-24.45l8.4-3.95 9.9 6.55q-4.05 1.15-12.1 4.25-7.1 2.75-20.5 8.05l-14.2 4.95-0.35 0.1-16.25 4.5h-0.05m-57.4-10.2q-1.55 1.5-2.6 3.45l6.8-2.75q2.25-1.1 6.1-2.3 3.9-1.3 7.8-5.2l-2.75 0.3q-7.05 0.85-11.65 3.6l-1.1 0.65-2.6 2.25" fill="#997c3c" fill-rule="evenodd"/>
<path d="m335.3 175.3v0.1q5.3-0.8 12.4-2.9l21.4-4.8 0.35 0.3 0.2-0.25 0.3-0.25 3.7 2.45q-41.35 27.95-72 57.35l-8.05 2.25 0.15-0.75-0.15 0.65-0.15 0.1-0.4 0.15h-0.1l-14.05 3.9q3-2.7 4.35-3 2.65-0.55 5.5-2.8l4.6-3.8q3.55-2.55 17.55-14.35l9.4-7.2 9.75-7.45 7-6.05-11.8 4.85q-4.1 1.7-9.7 6.2l-8.7 6.7q-10.4 6.65-29.05 14.1-10.7 4.3-16.9 6.05l-4.55-3.85-0.5-0.45-8.15-6.95q2.35-4.35 10.85-10.95 8.45-6.55 18.8-12.45 3.7-2.15 15.1-6.85-28 8.75-51.65 24.4l-0.85-0.75 2.35-4.25q0.75-1.7 9.75-5.95 9.1-3.85 13.2-5.85l9.85-3.55 1.45-0.85 0.75-0.2 58-13.05m-57.1 39.9q29.8-10.45 47.9-25.1l0.9-0.75 1.45-1.2q-30.3 4.2-37.75 8.85t-11.75 8.3-8.95 12.6l1.55-0.5-0.55 0.4 7.2-2.6m88.2-29.95-0.1-0.25 14.95-6.4 3.2-1.55 3.2 2.1q-1.95 0.55-7.3 2.4-8.45 2.9-13.15 3.6l-0.8 0.1m32.7 1.45-8.4 3.95q-25.8 12.2-45.15 24.45l-18.35 5.1-0.35 0.1-0.05 0.05-16.65 4.6 8.2-4.85 12.15-6.95q22.6-12.5 48.3-24.3l13.95-6.3 6.35 4.15m-36.9 23.8 14.2-4.95q13.4-5.3 20.5-8.05 8.05-3.1 12.1-4.25l4.55 3-31.1 8.65h-0.1l-20.15 5.6m-74.05-5.6 2.6-2.25 1.1-0.65q4.6-2.75 11.65-3.6l2.75-0.3q-3.9 3.9-7.8 5.2-3.85 1.2-6.1 2.3l-6.8 2.75q1.05-1.95 2.6-3.45" fill="#b89647" fill-rule="evenodd"/>
<path d="m345.6 215.1q-5.85 8.1-4.35 15.3m-39.6-3.1q-0.45 7.25 1.6 14.5m10.3-3.1q-3.9-6.45-3.4-13.75m-71-3q-1.25-6.55 1.65-12.2" fill="none" stroke="#513315" stroke-linecap="round" stroke-linejoin="round" stroke-width=".05"/>
<path d="m335.4 175.25-0.1 0.05-58 13.05-0.75 0.2m-36.6 20.45 0.85 0.75q23.65-15.65 51.65-24.4m-44.75 30.25 8.15 6.95m0.5 0.45 4.55 3.85m18 6.75 14.05-3.9h0.1m0.55-0.15 8.05-2.25q30.65-29.4 72-57.35l-3.7-2.45-0.85 0.2-21.4 4.8-12.3 2.75m-63.85 42.15-1.55 0.5q4.65-8.95 8.95-12.6t11.75-8.3 37.75-8.85l-1.45 1.2-0.9 0.75q-18.1 14.65-47.9 25.1m-6.65 2.2 6.65-2.2m109.45-36.05-3.2-2.1-10.8-7.1m19.1 12.6-5.1-3.4m-42.1 35.95q19.35-12.25 45.15-24.45l8.4-3.95-6.35-4.15-13.95 6.3q-25.7 11.8-48.3 24.3l-12.15 6.95-8.2 4.85 16.65-4.6 0.05-0.05m0.35-0.1 18.35-5.1h0.05l16.25-4.5 0.35-0.1m46.8-17.25-9.9-6.55m14.45 9.55-4.55-3m-26.65 11.65-20.15 5.6m20.15-5.6h0.1l31.1-8.65-0.45 12.45-71.85 21.7-27.7 8.3-10.3 3.1-31.9 9.65-32.2-29.5-10.3-9.45-0.1-12.35 47.8-11.6m11.6 16.35q-1.55 1.5-2.6 3.45l6.8-2.75q2.25-1.1 6.1-2.3 3.9-1.3 7.8-5.2l-2.75 0.3q-7.05 0.85-11.65 3.6l-1.1 0.65-2.6 2.25m5.45 24.65-0.55 0.15m17.1-4.75-8.5 2.35m-45.3-4.3-0.5-0.45m23.05 11.05-7.6 2.1-10.4-8.85m-20.1-17.1 6.9 5.85m-7.75-6.6-11.2-8.85" fill="none" stroke="#78441d" stroke-linecap="round" stroke-linejoin="round" stroke-width=".05"/>
</g>
</defs>
</svg>
