<?xml version="1.0" encoding="UTF-8"?>
<svg version="1.1" viewBox="0 0 58.2 58.45" xmlns="http://www.w3.org/2000/svg" xmlns:cc="http://creativecommons.org/ns#" xmlns:dc="http://purl.org/dc/elements/1.1/" xmlns:rdf="http://www.w3.org/1999/02/22-rdf-syntax-ns#" xmlns:xlink="http://www.w3.org/1999/xlink">
<metadata>
<rdf:RDF>
<cc:Work rdf:about="">
<dc:format>image/svg+xml</dc:format>
<dc:type rdf:resource="http://purl.org/dc/dcmitype/StillImage"/>
</cc:Work>
</rdf:RDF>
</metadata>
<g transform="translate(-349.35 -112.85)">
<use transform="translate(349.35,112.85)" width="58.200001" height="58.450001" xlink:href="#a"/>
</g>
<defs>
<g id="a" transform="translate(29.1,29.2)">
<use transform="translate(-29.1,-29.2)" width="58.200001" height="58.450001" xlink:href="#b"/>
</g>
<g id="b" transform="translate(29.1,29.2)">
<path d="m-17.75-3.6 5.75-4.4q6.25-7 5.75-11.55l-5.25-6.05q0.65-1.15 2.45 0.35l2.15 2.15q4.2-1.4 3.65-4.15 2.05-2.9 2.9 0l-2 5.05q-3.65 5.1-3.25 11.65v5.1l1.45 2.55-2 2.2-3.3 1.35 1.7-4.1q-1.65 1-2.55-0.4v-1.95h-2.55l-0.95 5.85q-1.6-2.15-3.95-2.2v-1.45" fill="#6b5e25" fill-rule="evenodd"/>
<path d="m-11.5-25.6 5.25 6.05q0.5 4.55-5.75 11.55l-5.75 4.4v3.1q-1.15-0.15-2.1-0.65v-7.35q1-0.6 2.1 0.6v2.85l3.25-2.05 3.8-5.1q3.15-4.2 2.2-7.45l-3.3-3.8q-0.05-1.5 0.3-2.15m1.2 21.75q0.9 1.4 2.55 0.4l-1.7 4.1-1.2 2.8-1.8-0.25 2.15-7.05m-7.45 0.25v-1.45 1.45m46.35-8.75q-3.4 5.2-3.8 12.55l-1.8 8.55 0.9 2.55-5.3 4.35h-10.55q-7.05 4-16.15 3.15-6.25-0.05-12.55-6.1v-3.2q1.35-3.95-5.15-8.7 5.4 2.25 10.75 4.45 5.55 3.1 5.75 6.2 0.2 2.3 9.05 1.3l5.3-1.75 10.6 1.1q5.05-2.7 6.9-10.85l1.3-8.6-1.1-2 5.85-3" fill="#d7c88a" fill-rule="evenodd"/>
<path d="m-17.75-2.15q2.35 0.05 3.95 2.2l0.95-5.85h2.55v1.95l-2.15 7.05 1.8 0.25 0.75-1.75 2.5 1.2q0.45 3.4 5.3 2.2l2.15-1.45 1.65 1.65h1.4v-3.1l3.5-0.35-0.55 3.45h0.95l8.7 2 5.65-8q1.2-5.2-1.8-9.1l0.95-3.25 2.65 1.8 2.55-2v-4q1.45-3.35 2.9 0v4.9l-5.85 3 1.1 2-1.3 8.6q-1.85 8.15-6.9 10.85l-10.6-1.1-5.3 1.75q-8.85 1-9.05-1.3-0.2-3.1-5.75-6.2-5.35-2.2-10.75-4.45 1.2-4.2 3.75-5.4l-0.55-5.55q1.25 0.1 2.75 1.65v7.35q0.95 0.5 2.1 0.65v-1.65m-4.2-1.25-0.1-1.2 0.1 1.2m7.85 5.25 0.3-1.8-0.3 1.8m20.15 3.45q-1.1 1.55-2 1.15 0.9 0.4 2-1.15" fill="#f4f0df" fill-rule="evenodd"/>
<path d="m-17.75-3.6v1.45q2.35 0.05 3.95 2.2l0.95-5.85h2.55v1.95q0.9 1.4 2.55 0.4l-1.7 4.1 3.3-1.35 2-2.2-1.45-2.55v-5.1q-0.4-6.55 3.25-11.65l2-5.05q-0.85-2.9-2.9 0 0.55 2.75-3.65 4.15l-2.15-2.15q-1.8-1.5-2.45-0.35-0.35 0.65-0.3 2.15l3.3 3.8q0.95 3.25-2.2 7.45l-3.8 5.1-3.25 2.05v1.45m5.3 6.8 1.8 0.25 1.2-2.8m-0.45 1.05 2.5 1.2q0.45 3.4 5.3 2.2l2.15-1.45 1.65 1.65h1.4v-3.1l3.5-0.35-0.55 3.45h0.95l8.7 2 5.65-8q1.2-5.2-1.8-9.1l0.95-3.25 2.65 1.8 2.55-2v-4q1.45-3.35 2.9 0v4.9q-3.4 5.2-3.8 12.55l-1.8 8.55 0.9 2.55-5.3 4.35h-10.55q-7.05 4-16.15 3.15-6.25-0.05-12.55-6.1v-3.2q1.35-3.95-5.15-8.7 1.2-4.2 3.75-5.4l-0.55-5.55q1.25 0.1 2.75 1.65 1-0.6 2.1 0.6v2.85m-4.3 0.45 0.1 1.2m2.1 2.25q0.95 0.5 2.1 0.65v-1.65m21.8 8.6q0.9 0.4 2-1.15m-19.85-5.25-0.3 1.8" fill="none" stroke="#000" stroke-linecap="round" stroke-linejoin="round" stroke-opacity=".4"/>
<path d="m-16.1 15.9-0.6 1.3-1-1.25-1.8 3.8-0.65 2.05q-0.45-0.5-0.55-1.85l-0.55-3.65-7.1 12.2-0.25 0.25 3.95-10-3.2 1.35q2.85-5.1 7.45-7.5l-3 0.4 4.65-3v5.1l2.6 0.75 0.3-0.6-0.05 0.15-0.2 0.5-0.05-0.05 0.05 0.05" fill="#960" fill-rule="evenodd"/>
<path d="m-28.35 28.5 7.1-12.2 0.55 3.65q0.1 1.35 0.55 1.85l0.65-2.05 1.8-3.8 1 1.25 0.6-1.3 2.3 1.55 0.2-0.15-2.05 3.05-1.05-3.15q-1.65 6.4-3.65 10.35l-1.45-6.8-6.55 7.75" fill="#6a4800" fill-rule="evenodd"/>
<path d="m-28.35 28.5 6.55-7.75 1.45 6.8q2-3.95 3.65-10.35l1.05 3.15 2.05-3.05m-0.2 0.15-2.3-1.55-0.05-0.05-2.6-0.75v-5.1l-4.65 3 3-0.4q-4.6 2.4-7.45 7.5l3.2-1.35-3.95 10 0.25-0.25z" fill="none" stroke="#000" stroke-linecap="round" stroke-linejoin="round" stroke-opacity=".4"/>
</g>
</defs>
</svg>
