<?xml version="1.0" encoding="UTF-8"?>
<svg width="114px" height="80px" version="1.1" viewBox="197.6 244.05 113.75 79.9" xmlns="http://www.w3.org/2000/svg" xmlns:xlink="http://www.w3.org/1999/xlink">
<defs>
<g id="a">
<path d="m243.8 283.4q3.4 10.4 18.85 10.45l3.35-0.15h0.1q7.95 6.45 5.5 12.75l0.25 0.2q1.55 1.1 1.45 1.85l-0.35 0.5-0.9 0.35-3.5 0.4-2.65-2.4v-3.7l-3.3-1.05-0.05-0.05h-0.1l-15.15-4.75-7.8-15.9-15.25-1.15q-1.8-2.05-6.4-0.85-2.1-0.05-3.7 0.5 1.6-0.55 3.7-0.5 4.6-1.2 6.4 0.85l-0.75-0.05 1.8 5.9-6.95-0.2-3.75 9.3 10 9-10.55 7.45h-0.1-0.45l-0.4-0.05-0.25-0.05-0.8-0.05h-0.05l-0.2 0.05h-0.1l-9.7-2.15h-0.1l-0.75-0.5-3.4-4.4-0.15-0.55q1.15-3.75 11.4-15.35l0.1-0.15q0.4-6.85 4.9-8.5l0.15-0.05q1.3-7.25 6.75-10.45l0.9 4q4.15 2.05 2.4-1.4l-1.15-3.65 0.1-0.05 1.95-0.65h0.15l-0.9 0.25 0.9-0.25 7.2-0.85h0.2l4.4 0.3 0.5 0.05h0.3l9 3.5-2 3.5-2 0.5 0.25 5.35 0.6 2.8 0.1 0.05m-42.65 26 0.85 0.5-0.85-0.5m11.95 2.7 0.95 0.05-0.95-0.05m91.55-6.45q1.6 0 2.9-1.4l0.05-0.05 3.75 4.25h-0.1l-8.65-1.75h-0.05l-0.55-0.15-0.85-0.1q-0.8 0-1.45 0.45l-2.25 6.1-0.1 1.95 0.25 5.75q2.35 2.1-5.25 3.25h-0.1l-7.05-0.7h-0.15q-1.05-0.35-1.35-0.8l0.2-1.05 0.7-0.7q8.55-2.8 11.25-11.5l3.75-6.2v-0.05q1.85 1.75 3.45 2.4l1 0.25 0.6 0.05m-19.45 17.6-1.5-0.8 1.5 0.8" fill="#bea781"/>
<path d="m243.3 296.1h-0.1l-1.1 0.35h-0.15 0.15-0.05-0.05-0.05l-2.9-0.7-0.2-0.05-1.65-0.95q0.8 0.6 1.85 1-1.05-0.4-1.85-1-2.25-1.7-2.7-5.05l0.1-0.05-0.15-1.2-0.1 0.1-1.75 1.8h0.05-0.05q-2.95 2.15-7.75 1.5l-0.25 0.85-0.2 0.25q-0.75 1.05-1.1 2.2l-0.3 1.2-0.1 1.3 0.05 0.85 0.05 0.3 0.2 1.35 0.3 0.95 0.55 1.45 0.05 0.15q0.95 0.1 1.75 1.05 0.9 1.05 1.5 3.2l-0.35 0.7q-1.55 2.9-5.5 4h-0.1l-0.7 0.2-0.8 0.1-5.85 0.2 10.55-7.45-10-9 3.75-9.3 6.95 0.2-1.8-5.9 0.75 0.05 15.25 1.15 7.8 15.9 15.15 4.75h-0.1l-0.45 0.05-10.15-0.3-2.55-0.7-2-0.95q-2.8-1.65-3.9-4.55l-0.45-1.65 0.45 1.65m25.25 13.65h-0.1l-1.85-0.05q-3.85-0.4-5.3-1.05-1.15-0.55-0.95-1.2l0.45-0.15 0.65-0.3 1.2-0.7 0.05-0.1q1.15-1 0.85-2.1l0.05-0.15q-0.25-0.65-1-1.35l3.3 1.05v3.7l2.65 2.4m-43.2-26.05q-0.2-1.9-1.1-2.95 0.9 1.05 1.1 2.95m-3.5 7.5 2.9 0.65h0.1-0.1l-2.9-0.65m14.5-7.25q-0.65 2.65-1.85 4.45l-0.05 0.05 0.05-0.05q1.2-1.8 1.85-4.45" fill="#957e59"/>
<path d="m214.4 255.25-0.4 0.45-3.55 4.25h-0.1l-5.4-3.9-0.05-0.05q0.05-0.85 0.5-1.85l5.55-7.65 0.2-0.25h0.05q2.25-0.15 5.1 2.5l0.05 0.05 6.1-4.7v-0.05l6.65 1.25q-7.5 11.1-6.1 23.55v0.05 0.05l0.05-0.05 1.15 3.65q1.75 3.45-2.4 1.4l-0.9-4q-3.7-10.45-6.45-14.75l-0.05 0.05m0.05-0.05-0.05-0.1q-1.4-2.05-4.05-4.4 2.65 2.35 4.05 4.4l0.05 0.1-0.45 0.5 0.45-0.5m-9.05-1.05q-0.4 1.05-0.45 1.9 0.05-0.85 0.45-1.9m14.3-1.45q-1.75-2.4-3.35-3.9 1.6 1.5 3.35 3.9" fill="#91c758"/>
<path d="m247.1 300.65h0.1l2 0.95 2.55 0.7 10.15 0.3-0.45 4.35v0.05l-0.65 0.3 0.65-0.3-0.65 0.3-0.45 0.15q-0.2 0.65 0.95 1.2v0.05l-0.15 1.25-39.65 1.7q3.95-1.1 5.5-4l0.35-0.7q-0.6-2.15-1.5-3.2-0.8-0.95-1.75-1.05l-0.05-0.15-0.55-1.45-0.3-0.95-0.2-1.35-0.05-0.3-0.05-0.85h0.05l24.15 3m-24.15-3v0.85-0.85" fill="#b0ad99"/>
<path d="m247.2 300.65q-2.8-1.65-3.9-4.55l-0.45-1.65m0.25-13.9 0.7 2.85q3.4 10.4 18.85 10.45l3.35-0.15h0.1q7.95 6.45 5.5 12.75l0.25 0.2q1.55 1.1 1.45 1.85l-0.35 0.5q-1 0.65-4.4 0.75h-0.1l-1.85-0.05m-45.1 1.95h-0.1l-0.7 0.2m-7.85 0.2-0.8-0.05-0.25 0.05h-0.1m-13.95-7.05-0.15-0.55q1.15-3.75 11.4-15.35l0.1-0.15q0.4-6.85 4.9-8.5l0.15-0.05q1.6-0.55 3.7-0.5 4.6-1.2 6.4 0.85 0.9 1.05 1.1 2.95m-11.35-28-3.55 4.25h-0.1m-4.95-5.8 5.55-7.65 0.2-0.25h0.05q2.25-0.15 5.1 2.5l0.05 0.05 6.1-4.7v-0.05l6.65 1.25q-7.5 11.1-6.1 23.55v0.05 0.05l0.05-0.05 1.15 3.65q1.75 3.45-2.4 1.4l-0.9-4q-5.45 3.2-6.75 10.45m11.1-12.2q3.15-0.85 7.2-0.85h0.2m4.9 0.35h0.3l9 3.5-2 3.5-2 0.5 0.25 5.35m-20.05-11.65 0.1-0.05 1.2-0.4 0.9-0.25m-2.2 0.7h-0.05m39.45 33.65h0.1l0.05 0.05q0.75 0.7 1 1.35l-0.05 0.15m-40.55-35.25v0.05m-12.65-18.2q2.65 2.35 4.05 4.4l0.05 0.1q2.75 4.3 6.45 14.75m-6.45-14.75-0.45 0.5m2.35-6.9q1.6 1.5 3.35 3.9m-14.75 3.35q0.05-0.85 0.45-1.9m27.25 36.2h-0.05q-2.95 2.15-7.75 1.5h-0.1l-2.9-0.65m2.75 1.5-0.2 0.25q-0.75 1.05-1.1 2.2l-0.3 1.2q-0.1 0.6-0.05 1.3m11.5-9.2 0.05-0.05q1.2-1.8 1.85-4.45m-2 4.65 0.1-0.15m0.15 1.2-0.15-1.2m-0.1 0.15-1.7 1.75m4.55 4.4q0.8 0.6 1.85 1l2.9 0.7h0.15m-19.15 2.05v-0.85m0 0.85 0.05 0.3 0.2 1.35 0.3 0.95 0.55 1.45 0.05 0.15q0.95 0.1 1.75 1.05 0.9 1.05 1.5 3.2m-0.25 0.5-0.1 0.2q-1.55 2.9-5.5 4m-7.45 0.5-0.95-0.05m-11.1-2.2-0.85-0.5m103.5-3.75q1.6 0 2.9-1.4m-2.9 1.4-0.6-0.05-1-0.25q-1.6-0.65-3.45-2.4v0.05l-3.75 6.2q-2.7 8.7-11.25 11.5l-0.7 0.7-0.2 1.05 1.5 0.8 7.05 0.7h0.1q7.6-1.15 5.25-3.25l-0.25-5.75 0.1-1.95 2.25-6.1m2.3-0.35 0.55 0.15h0.05l8.65 1.75h0.1l-3.75-4.25-0.05 0.05m-6.2 2.2q-0.95-0.05-1.65 0.45m2.3-0.35-0.65-0.1m-38.65-0.25-0.05 0.1m-1.85 1-0.45 0.15q-0.2 0.65 0.95 1.2 1.45 0.65 5.3 1.05m-4.15-7.15-0.55 0.05-10.15-0.3-2.55-0.7-2-0.95m15.5 5.55 0.85-2.1m-2.1 2.9 1.2-0.7m-1.85 1 0.65-0.3" fill="none" stroke="#2b0000" stroke-opacity=".38039" stroke-width=".5"/>
<path d="m243.2 296.1q1.1 2.9 3.9 4.55m19.5 9.05h-0.1q-3.7-0.4-5.2-1m-47.25 3.45h-0.1-0.45l-0.4-0.05-0.25-0.05m-10.85-2.15h-0.1m-4.3-5.45q1.05-3.75 11.3-15.35l0.1-0.15q0.4-6.85 4.9-8.5l0.15-0.05q1.3-7.25 6.75-10.45-3.7-10.4-6.4-14.7m-4.05 4.7-5.4-3.9-0.05-0.05m11.4-7.25 6.05-4.7 0.1 0.05m0.55 24.8q1-0.4 2.1-0.7h0.15l7.2-0.85m1.9 21.2v0.05m0.15 1.1-0.15-1.1m4.7 7.15-0.2-0.05-1.65-0.95q-2.25-1.7-2.7-5.05m7.55 6.75h-0.05-0.05m65.6 7.8-0.05-0.05q-1.3 1.45-2.85 1.45m6.6 2.8-8.75-1.75-1.15-0.25h-0.2m-16.1 16.8q-2.8-0.85-0.55-2.55 8.55-2.8 11.25-11.5l3.75-6.25 0.1 0.05m-14.4 20.25h-0.15m-21.5-19.15q0.3 1.1-0.85 2.1m-1.25 0.75 1.25-0.75m0.85-2.1q-0.25-0.75-1.05-1.5l-0.05-0.05" fill="none" stroke="#634527" stroke-width=".5"/>
</g>
</defs>
<use xlink:href="#a"/>
</svg>
