<?xml version="1.0" encoding="UTF-8"?>
<svg version="1.1" viewBox="0 0 53.25 57.3" xmlns="http://www.w3.org/2000/svg" xmlns:cc="http://creativecommons.org/ns#" xmlns:dc="http://purl.org/dc/elements/1.1/" xmlns:rdf="http://www.w3.org/1999/02/22-rdf-syntax-ns#" xmlns:xlink="http://www.w3.org/1999/xlink">
<metadata>
<rdf:RDF>
<cc:Work rdf:about="">
<dc:format>image/svg+xml</dc:format>
<dc:type rdf:resource="http://purl.org/dc/dcmitype/StillImage"/>
</cc:Work>
</rdf:RDF>
</metadata>
<g transform="translate(-248.35,-171.3)">
<use transform="translate(248.35,171.3)" width="53.25" height="57.299999" xlink:href="#a"/>
</g>
<defs>
<g id="a" transform="translate(-248.35,-171.3)">
<path d="m251.55 203.25-0.1-2.45q0.2-3.5 0.95-6.9 0.65-3 2-5.75 1.4-2.75 3.4-5.1 1.6-1.95 3.6-3.55 2.05-1.6 4.35-2.85 1.5-0.9 3.2-1.4l0.95-0.3q1.75-0.55 3.6-0.75l3.75 0.5q1.9 0.05 3.7 0.65 2.1 0.7 4.05 1.75 1.95 1.1 3.6 2.6 1.7 1.45 3.05 3.2l2.3 3.6 1.65 3.45 1.05 3.6 0.8 4.8 0.15 4.05-0.75 0.3-0.2-0.3q-0.85-1-2.05-1t-2.05 1l-0.1-0.1q-1.25-1.2-3-1.2-1.65 0-2.85 1.1l-0.5-0.85-0.1-0.1q-1.05-1.4-2.55-1.4-1.55 0-2.65 1.5l-0.05 0.05-0.75-0.85q-1.5-1.4-3.65-1.4t-3.65 1.4l-0.65 0.75q-1.05-0.95-2.45-0.95l-1.3 0.25q-0.35-1.15-1.2-2.05-1.3-1.4-3.15-1.4t-3.2 1.4q-0.75 0.8-1.05 1.75-1.35-1.45-3.35-1.45-2.05 0-3.5 1.55-1.05 1.2-1.3 2.85m28.9-23.6-0.15-0.35-0.35-0.15q-0.2 0-0.35 0.15l-0.15 0.35 0.15 0.35 0.35 0.15 0.35-0.15 0.15-0.35m-6.3 10q-0.95 0.7-0.95 1.65 0 1 1 1.7t2.4 0.7 2.4-0.7l0.2-0.1 0.2 0.2q1.6 1.6 3.9 1.6t3.9-1.6q1.6-1.55 1.6-3.8t-1.6-3.85q-1.6-1.55-3.9-1.55t-3.9 1.55q-1.5 1.5-1.6 3.6l-0.95-0.15q-0.9-0.75-2.1-0.75l-1.4 0.3 0.85-2.15 2.2-2.6-14.6-0.6-2 1.6-1.6 2-0.8 2.4 14.9 0.2-0.3 0.35h2.15m-0.95-8.35 0.4-4.8-2.2 0.4-3.4 1.6-2.75 2.2 7.95 0.6m1.75-2.7-0.9 0.25q-0.35 0.3-0.35 0.65t0.35 0.6l0.9 0.3 0.85-0.3q0.4-0.25 0.4-0.6t-0.4-0.65q-0.35-0.25-0.85-0.25m-5.65-2.7-0.05 0.05 0.4-0.05h-0.35m17.9 23.8q-0.2-0.3-0.5-0.3t-0.55 0.3l-0.2 0.7 0.2 0.7q0.25 0.3 0.55 0.3t0.5-0.3l0.25-0.7-0.25-0.7" fill="#afdea9" fill-rule="evenodd"/>
<path d="m280.45 179.65-0.15 0.35-0.35 0.15-0.35-0.15-0.15-0.35 0.15-0.35q0.15-0.15 0.35-0.15l0.35 0.15 0.15 0.35m-5.5-1.05q0.5 0 0.85 0.25 0.4 0.3 0.4 0.65t-0.4 0.6l-0.85 0.3-0.9-0.3q-0.35-0.25-0.35-0.6t0.35-0.65l0.9-0.25m-1.75 2.7-7.95-0.6 2.75-2.2 3.4-1.6 2.2-0.4-0.4 4.8m3.65 7.6 0.95 0.15q0.1-2.1 1.6-3.6 1.6-1.55 3.9-1.55t3.9 1.55q1.6 1.6 1.6 3.85t-1.6 3.8q-1.6 1.6-3.9 1.6t-3.9-1.6l-0.2-0.2-0.2 0.1q-1 0.7-2.4 0.7t-2.4-0.7-1-1.7q0-0.95 0.95-1.65l0.05-0.05q1-0.7 2.4-0.7h0.25m-4.55 0.4-14.9-0.2 0.8-2.4 1.6-2 2-1.6 14.6 0.6-2.2 2.6-0.85 2.15-0.9 0.65-0.15 0.2m-5.8 34.2 0.7 3-5.2-2.7-0.35-3.55 0.8 0.65v2.55h4.05v0.05" fill="#fff" fill-rule="evenodd"/>
<path d="m269.3 175.9h0.35l-0.4 0.05 0.05-0.05" fill="#72a5e2" fill-rule="evenodd"/>
<path d="m259.7 200.3q0.3-0.95 1.05-1.75 1.35-1.4 3.2-1.4t3.15 1.4q0.85 0.9 1.2 2.05-0.7 0.25-1.3 0.8-1.05 1.1-1.05 2.6 0 1.05 0.5 1.85-1.1 0.8-2.5 0.8-1.85 0-3.2-1.4-1.3-1.4-1.3-3.35 0-0.85 0.25-1.6m32.4 13.6q-0.3 1.25-1.25 2.3l-0.3-0.25q0.4-0.45 0.4-1.05t-0.4-1.05q-0.35-0.45-0.85-0.45t-0.9 0.45q-0.35 0.45-0.35 1.05t0.35 1.05l-0.25 0.1q-0.7-0.7-1.65-0.7v-0.25q0-1.1-0.8-1.9l-0.2-0.2q-0.75-0.6-1.75-0.6-1.15 0-1.95 0.8l-0.3 0.4q-1-0.45-2.2-0.45-0.15-1.05-1.05-1.8-1-0.9-2.4-0.95v-0.5l-0.25-1.65 0.3-0.35q1.35-1.3 3.3-1.3h0.3q1.75 0.1 3 1.3l0.6 0.65q1.05-0.85 2.4-1.05l0.95-0.1 1.65 0.25q1.2 0.35 2.15 1.3 0.9 0.85 1.3 1.95l0.3 1.75-0.15 1.25m-14.15 9.6-0.3 0.3-0.2 0.1q-0.75 0.55-1.85 0.55t-1.9-0.55l-0.3-0.2-0.1-0.15-0.1-0.1h0.25l1.05-0.3 0.45-0.75q0-0.45-0.45-0.75l-0.8-0.3 0.15-0.05q-0.65-0.85-0.65-1.9 0-0.75 0.35-1.4l0.65-0.95 0.5-0.4v0.25q0 1.15 0.8 2.1l-0.1 0.05-0.2 0.45 0.2 0.45 0.45 0.2 0.45-0.2 0.15-0.15q0.6 0.4 1.3 0.6l-0.1 0.05-0.7 0.65q-0.25 0.35-0.25 0.8 0 0.85 0.95 1.45l0.3 0.15m-9.6-1.9-0.15 0.1v-0.05l-0.25-0.55-0.5-0.2-0.55 0.2-0.2 0.55 0.2 0.5 0.05 0.05h-0.75l-0.5-0.1-0.8-0.45-0.6-0.6-0.3-0.4q0.65-0.15 1.1-0.65 0.6-0.6 0.65-1.5l0.25-0.45 0.45 0.1 0.4-0.05q-0.55-0.65-0.7-1.4l-0.1-0.85q0-0.5 0.15-0.9v-0.15l0.15-0.3 0.5-0.9 0.25-0.3 1.1-0.7 0.35-0.15 1.15-0.2q1.5 0 2.55 1.05l0.2 0.2q0.9 1 0.9 2.3v0.05q0 1.05-0.5 1.85l-0.1 0.2-0.5 0.5-0.7 0.6-1.85 0.45-0.7-0.05q-0.3 0.55-0.3 1.25l0.05 0.55-0.2 0.2-0.2 0.15v0.05m18.85-11.95-0.15-0.35q-0.15-0.15-0.35-0.15l-0.35 0.15-0.15 0.35 0.15 0.35 0.35 0.15 0.35-0.15 0.15-0.35" fill="#79c76d" fill-rule="evenodd"/>
<path d="m268.3 200.6 1.3-0.25q1.4 0 2.45 0.95-0.85 1.15-0.85 2.6 0 0.8 0.3 1.55-1.35 0.2-2.35 1.25l-0.55 0.8q-0.65 1.05-0.65 2.4 0 1.15 0.45 2.05l0.15 0.5-0.35 0.15-1.1 0.7-0.25 0.3v-0.05l-0.25-0.2-0.3 0.2-0.1 0.45 0.1 0.45 0.05 0.05-0.05 0.1-0.15 0.05q-0.25-1-1.15-1.75l-0.95-0.6q-0.85-0.4-1.95-0.4l-0.4 0.05 0.1-0.95v-0.45q-0.2-1-0.9-1.7l-0.8-0.6 0.7-0.35q0.7-0.45 0.7-1.15t-0.7-1.2l-0.3-0.15 0.25-0.15q1.35 1.4 3.2 1.4 1.4 0 2.5-0.8-0.5-0.8-0.5-1.85 0-1.5 1.05-2.6 0.6-0.55 1.3-0.8m12.5 0.75q1.1-1.5 2.65-1.5 1.5 0 2.55 1.4l0.1 0.1 0.5 0.85-0.15 0.1q-1.25 1.25-1.25 2.95 0 1.25 0.7 2.25-1.35 0.2-2.4 1.05l-0.6-0.65q-1.25-1.2-3-1.3l-0.15-0.75 0.25-0.25q0.45-0.5 0.45-1.2t-0.45-1.25l-0.05-0.05q0.25-0.9 0.8-1.65l0.05-0.1m14.7 6.9 0.25 0.9v0.6q0 1.7-1.15 2.9l-0.9 0.8-0.25 0.1-0.2 0.1-1.15 0.25 0.15-1.25-0.3-1.75q-0.4-1.1-1.3-1.95-0.95-0.95-2.15-1.3l0.6-0.85q1.1-1.15 2.65-1.2h0.1q1.6 0 2.75 1.2l0.8 1.15 0.1 0.3m-31.5 12.4h-0.4l-1.35-0.65-0.35-0.15-0.05-0.1-0.35-0.85-0.05-0.5v-0.05l0.25-0.2 0.3-0.5-0.2-0.45 0.25-0.4 0.85-0.5q-0.35 0.45-0.35 1.05 0 0.75 0.5 1.3 0.55 0.55 1.3 0.55t1.25-0.55l0.15-0.15q-0.05 0.9-0.65 1.5-0.45 0.5-1.1 0.65m8.45-7.15v-0.1q0.1-1.05 0.85-1.85l0.2-0.2q1.1-0.95 2.6-0.95h0.15q1.4 0.05 2.4 0.95 0.9 0.75 1.05 1.8l0.05 0.5v0.2q-0.1 1.15-0.95 2l-0.35-0.05q-1 0-1.7 0.65l-0.35 0.45h-0.3l-1.4-0.25q-0.65-0.25-1.2-0.7l-0.15-0.15q0-1.3-0.9-2.3m-8.15-3.6 0.3 0.25 0.25-0.25 0.15-0.5-0.15-0.55-0.25-0.2-0.3 0.2-0.1 0.55 0.1 0.5" fill="#397e30" fill-rule="evenodd"/>
<path d="m251.55 203.25q0.25-1.65 1.3-2.85 1.45-1.55 3.5-1.55 2 0 3.35 1.45-0.25 0.75-0.25 1.6 0 1.95 1.3 3.35l-0.25 0.15-1.4-0.3q-1 0-1.7 0.45-0.7 0.5-0.7 1.2t0.7 1.15l0.4 0.25 1-0.2 1.3 0.3 0.8 0.6q0.7 0.7 0.9 1.7v0.45l-0.1 0.95-0.9 1.35q-0.85 0.75-2 0.75-1.05 0-1.85-0.6l-0.3-0.3-0.25-0.3q-0.5-0.65-0.55-1.5l-0.05-0.35q0-1.25 0.85-2.15l0.25-0.2-0.15-0.2-0.05-0.05q-0.55-0.5-1.35-0.5l-0.4 0.05q-0.55 0.1-0.95 0.45l-0.3 0.4-0.3-0.25-0.55-0.5-0.25-0.3q-0.8-1-1-2.25l-0.15-1v-0.25l0.2 0.15-0.1-1.15m20.5-1.95 0.65-0.75q1.5-1.4 3.65-1.4t3.65 1.4l0.75 0.85v0.05q-0.55 0.75-0.8 1.65-0.45-0.45-1-0.45-0.6 0-1.05 0.5-0.45 0.55-0.45 1.25t0.45 1.2q0.45 0.55 1.05 0.55l0.8-0.3 0.15 0.75h-0.3q-1.95 0-3.3 1.3l-0.3 0.35 0.25 1.65v0.5h-0.15q-1.5 0-2.6 0.95l-0.2 0.2q-1-0.65-2.2-0.65-1.55 0-2.7 1.05-0.45-0.9-0.45-2.05 0-1.35 0.65-2.4l0.55-0.8q1-1.05 2.35-1.25-0.3-0.75-0.3-1.55 0-1.45 0.85-2.6m14.55 0.9q1.2-1.1 2.85-1.1 1.75 0 3 1.2l0.1 0.1q0.85-1 2.05-1t2.05 1l0.2 0.3q0.55 0.8 0.65 1.8l-0.1 1.05-0.85 1.95-1.05 0.75-0.1-0.3-0.8-1.15q-1.15-1.2-2.75-1.2h-0.1q-1.55 0.05-2.65 1.2l-0.6 0.85-1.65-0.25-0.95 0.1q-0.7-1-0.7-2.25 0-1.7 1.25-2.95l0.15-0.1m-32.2 4.4-0.2 0.55 0.2 0.5q0.25 0.25 0.55 0.25l0.5-0.25 0.2-0.2 0.05-0.3-0.25-0.55-0.5-0.2q-0.25 0-0.45 0.15l-0.1 0.05m-2.05-1.65-0.25 0.1q-0.15 0.15-0.15 0.35l0.15 0.35 0.35 0.15 0.35-0.15 0.15-0.35-0.15-0.35-0.35-0.15-0.1 0.05" fill="#55b946" fill-rule="evenodd"/>
<path d="m269.2 222.25-0.15 0.2-0.35 0.2-0.35-0.2-0.15-0.45 0.15-0.4v-0.05l0.2-0.15 0.15-0.05h0.1l0.25 0.2 0.15 0.45v0.25m-1-0.55-0.25 0.45-0.5 0.25q-0.3 0-0.5-0.2l-0.05-0.05-0.2-0.5 0.2-0.55 0.55-0.2 0.5 0.2 0.25 0.55v0.05m-11.45-7.65-0.3 0.1-0.35-0.2-0.15-0.45v-0.1l0.15-0.35 0.3-0.2 0.25 0.3 0.3 0.3v0.05l-0.15 0.45-0.05 0.1m-1.55-2.65-0.85-0.3-0.2-0.1-0.3-0.3-0.35-0.7-0.05-0.35 0.1-0.55 0.15-0.3 0.3-0.4q0.4-0.35 0.95-0.45l0.4-0.05q0.8 0 1.35 0.5l0.05 0.05 0.15 0.2-0.25 0.2q-0.85 0.9-0.85 2.15l0.05 0.35-0.5 0.05h-0.15m5.3-6 0.3 0.15q0.7 0.5 0.7 1.2t-0.7 1.15l-0.7 0.35-1.3-0.3-1 0.2-0.4-0.25q-0.7-0.45-0.7-1.15t0.7-1.2q0.7-0.45 1.7-0.45l1.4 0.3m5.85 9.1-0.05-0.05-0.1-0.45 0.1-0.45 0.3-0.2 0.25 0.2v0.05l-0.5 0.9m-14-9.55 0.1-0.05 0.35 0.15 0.15 0.35-0.15 0.35-0.35 0.15-0.35-0.15-0.15-0.35q0-0.2 0.15-0.35l0.25-0.1m2.05 1.65 0.1-0.05q0.2-0.15 0.45-0.15l0.5 0.2 0.25 0.55-0.05 0.3-0.2 0.2-0.5 0.25q-0.3 0-0.55-0.25l-0.2-0.5 0.2-0.55m6.6 8.3h-0.3l-0.55-0.15-0.2-0.35 0.2-0.35 0.55-0.15 0.3 0.05 0.2 0.1 0.25 0.35-0.25 0.35-0.2 0.15m3.3-5-0.1-0.5 0.1-0.55 0.3-0.2 0.25 0.2 0.15 0.55-0.15 0.5-0.25 0.25-0.3-0.25m-0.6 3.4-0.5 0.1-0.55-0.1-0.2-0.15 0.2-0.2 0.55-0.05 0.5 0.05 0.25 0.2-0.25 0.15m-3.25 3.8 0.65-0.2 0.6 0.2 0.1 0.1 0.2 0.45-0.3 0.5-0.25 0.2-0.35 0.05-0.65-0.25-0.25-0.5q0-0.3 0.25-0.55m5.55 0.95 0.15-0.7-0.1-0.65h0.1q0.15 0.75 0.7 1.4l-0.4 0.05-0.45-0.1m5.55 0.95 0.7-0.6 0.5-0.5 0.25 0.5-0.3 0.5-0.6 0.25-0.55-0.15m17.25-3.05q-0.35-0.45-0.35-1.05t0.35-1.05q0.4-0.45 0.9-0.45t0.85 0.45q0.4 0.45 0.4 1.05t-0.4 1.05q-0.35 0.45-0.85 0.45t-0.9-0.45m-1.6-16.25 0.25 0.7-0.25 0.7q-0.2 0.3-0.5 0.3t-0.55-0.3l-0.2-0.7 0.2-0.7q0.25-0.3 0.55-0.3t0.5 0.3m-7.45 6.15-0.8 0.3q-0.6 0-1.05-0.55-0.45-0.5-0.45-1.2t0.45-1.25q0.45-0.5 1.05-0.5 0.55 0 1 0.45l0.05 0.05q0.45 0.55 0.45 1.25t-0.45 1.2l-0.25 0.25m-3.45 13.2 0.2 0.3v0.15l-0.05 0.3-0.15 0.15-0.45 0.2-0.45-0.2-0.2-0.45 0.2-0.45 0.1-0.05q0.15-0.15 0.35-0.15l0.45 0.2m-2.6 2.3 0.8 0.3q0.45 0.3 0.45 0.75l-0.45 0.75-1.05 0.3h-0.25q-0.45-0.05-0.8-0.3-0.45-0.3-0.45-0.75t0.45-0.75 1.05-0.3h0.25m13.5-11.7-0.15 0.35-0.35 0.15-0.35-0.15-0.15-0.35 0.15-0.35 0.35-0.15q0.2 0 0.35 0.15l0.15 0.35m-4.2 10.7q-0.3-0.3-0.3-0.7t0.3-0.7 0.7-0.3l0.7 0.3 0.3 0.7-0.3 0.7-0.7 0.3q-0.4 0-0.7-0.3m-3.45-0.3 0.15 0.35-0.15 0.35-0.35 0.15-0.35-0.15-0.15-0.35 0.05-0.1 0.8-0.25" fill="#783823" fill-rule="evenodd"/>
<path d="m290.85 216.2-1.6 1.2q-0.15-0.8-0.7-1.35l0.25-0.1q0.4 0.45 0.9 0.45t0.85-0.45l0.3 0.25m-39.4-11.95v-0.35l0.1-0.65 0.1 1.15-0.2-0.15m14.6 12.45-0.45-0.65-0.8-0.5q0.6-0.5 1.4-0.6-0.15 0.4-0.15 0.9l0.1 0.85h-0.1" fill="#eecec4" fill-rule="evenodd"/>
<path d="m297.5 204.5v0.75l-0.2 0.95-0.65 1.15-0.1 0.15 0.85-1.95 0.1-1.05m-11.35 15.55-0.5 0.45q-1 0.9-2.45 0.9h-0.1l-0.45-0.65 0.35-0.4q0.3 0.3 0.7 0.3l0.7-0.3 0.3-0.7-0.3-0.7 0.3-0.15 0.45 0.65q0.45 0.45 1 0.6m-12.9 3.45-0.15 0.05-0.4 0.1-0.75 0.05-0.6-0.05h-0.15l-0.8-0.3-0.25-0.15-0.5-0.4-0.45-0.55v-0.25l-0.15-0.45-0.25-0.2-0.05-0.15-0.05-0.55q0-0.7 0.3-1.25l0.7 0.05 1.85-0.45 0.55 0.15 0.6-0.25 0.3-0.5-0.25-0.5 0.1-0.2 0.7 0.3q-0.35 0.65-0.35 1.4 0 1.05 0.65 1.9l-0.15 0.05h-0.25q-0.6 0-1.05 0.3t-0.45 0.75 0.45 0.75q0.35 0.25 0.8 0.3l0.05 0.05m-13.4-5.15-0.1-0.05-0.6-0.45-0.5-0.5-0.35-0.5h0.1l0.45 0.05q0.65 0 1.1-0.35l0.5 0.55q-0.25 0.25-0.25 0.55l0.25 0.5 0.65 0.25 0.35-0.05v0.05l0.05 0.5-1.55-0.5-0.1-0.05m-3.9-4.95-0.05-0.05q-0.7-0.8-0.7-1.95h0.15l0.5-0.05q0.05 0.85 0.55 1.5l-0.3 0.2-0.15 0.35m41.55-8.15-0.1 0.3 0.1-0.3m-21.1 11.65q-0.35 0.5-0.35 1.15 0 0.55 0.25 1l-0.45-0.2q-0.2 0-0.35 0.15-0.8-0.95-0.8-2.1v-0.25l1.4 0.25h0.3m0.1 2.45 0.25 0.3q0.55 0.5 1.25 0.65l-0.25 0.1q-0.7-0.2-1.3-0.6l0.05-0.3v-0.15m-5.15 4.3-0.95-0.3 0.95 0.3" fill="#cf795c" fill-rule="evenodd"/>
<path d="m257.65 216.5-0.35-0.35-0.25-0.35-0.2-0.5-0.05-0.15-0.1-0.75 0.05-0.35 0.05-0.1 0.15-0.45v-0.05q0.8 0.6 1.85 0.6 1.15 0 2-0.75l0.2 0.65-0.3-0.05-0.55 0.15-0.2 0.35 0.2 0.35 0.55 0.15h0.3q-0.15 0.7-0.65 1.25l-0.4 0.4q-0.45 0.35-1.1 0.35l-0.45-0.05h-0.1l-0.65-0.35m10.9-4.05-0.15-0.5q1.15-1.05 2.7-1.05 1.2 0 2.2 0.65-0.75 0.8-0.85 1.85v0.1l-0.2-0.2q-1.05-1.05-2.55-1.05l-1.15 0.2m4.3 5.25q0.5-0.8 0.5-1.85v-0.05l0.15 0.15q0.55 0.45 1.2 0.7l-0.5 0.4-0.65 0.95-0.7-0.3" fill="#98472c" fill-rule="evenodd"/>
<path d="m289.25 217.4v0.35l-0.05 0.45-0.1 0.45-0.55 0.8-0.9 0.6-0.7 0.1h-0.1l-0.7-0.1q-0.55-0.15-1-0.6l-0.45-0.65-0.3 0.15-0.7-0.3q-0.4 0-0.7 0.3t-0.3 0.7 0.3 0.7l-0.35 0.4 0.45 0.65 0.1 0.5-0.1 0.55-0.05 0.15-0.8 0.75q-0.8 0.5-1.85 0.6h-0.45l-1.3-0.15-0.6-0.25-0.4-0.2q-0.95-0.6-0.95-1.45 0-0.45 0.25-0.8l0.7-0.65 0.1-0.05 0.25-0.1q-0.7-0.15-1.25-0.65l-0.25-0.3-0.2-0.3q-0.25-0.45-0.25-1 0-0.65 0.35-1.15l0.35-0.45q0.7-0.65 1.7-0.65l0.35 0.05q0.85-0.85 0.95-2v-0.2l-0.05-0.5q1.2 0 2.2 0.45l0.3-0.4q0.8-0.8 1.95-0.8 1 0 1.75 0.6l0.2 0.2q0.8 0.8 0.8 1.9v0.25q0.95 0 1.65 0.7 0.55 0.55 0.7 1.35m-27.55-5.45 0.4-0.05q1.1 0 1.95 0.4l0.95 0.6q0.9 0.75 1.15 1.75l0.05 0.15v0.15q-0.8 0.1-1.4 0.6l0.8 0.5 0.45 0.65 0.1 0.65-0.15 0.7-0.25 0.45-0.15 0.15q-0.5 0.55-1.25 0.55t-1.3-0.55q-0.5-0.55-0.5-1.3 0-0.6 0.35-1.05l-0.85 0.5-0.25 0.4-0.1-0.1-0.6-0.2-0.65 0.2-0.5-0.55 0.4-0.4q0.5-0.55 0.65-1.25l0.2-0.15 0.25-0.35-0.25-0.35-0.2-0.1-0.2-0.65 0.9-1.35m2 1.35 0.25-0.15-0.25-0.2-0.5-0.05-0.55 0.05-0.2 0.2 0.2 0.15 0.55 0.1 0.5-0.1m15.05 7-0.05 0.1 0.15 0.35 0.35 0.15 0.35-0.15 0.15-0.35-0.15-0.35-0.8 0.25" fill="#345528" fill-rule="evenodd"/>
<path d="m296.85 202.7 0.75-0.3-0.1 2.1q-0.1-1-0.65-1.8" fill="#caffff" fill-rule="evenodd"/>
<path d="m280.45 179.65-0.15 0.35-0.35 0.15-0.35-0.15-0.15-0.35 0.15-0.35q0.15-0.15 0.35-0.15l0.35 0.15 0.15 0.35m-13.95 43.85 2.2 0.85" fill="none" stroke="#fff" stroke-linecap="round" stroke-linejoin="round"/>
<path d="m297.6 202.4-0.15-4.05-0.8-4.8-1.05-3.6-1.65-3.45-2.3-3.6q-1.35-1.75-3.05-3.2-1.65-1.5-3.6-2.6-1.95-1.05-4.05-1.75-1.8-0.6-3.7-0.65l-3.75-0.5q-1.85 0.2-3.6 0.75l-0.95 0.3q-1.7 0.5-3.2 1.4-2.3 1.25-4.35 2.85-2 1.6-3.6 3.55-2 2.35-3.4 5.1-1.35 2.75-2 5.75-0.75 3.4-0.95 6.9l0.1 2.45 0.1 1.15-0.2-0.15m46.15-1.85-0.1 2.1m-0.1 1.05 0.1-1.05" fill="none" stroke="#78c86c" stroke-linecap="round" stroke-linejoin="round"/>
<path d="m297.5 185.6q3.6 6.4 3.6 14.35l-0.15 3.3q-0.6 5.75-3.2 10.6-1.75 3.2-4.3 6-7.7 8.25-18.5 8.25l-5.45-0.6q-7.4-1.6-13-7.65-7.65-8.25-7.65-19.9t7.65-19.9 18.45-8.25 18.5 8.25q2.2 2.4 3.75 5.05" fill="none" stroke="#732d28" stroke-linecap="round" stroke-linejoin="round"/>
<path d="m295.75 209.45v0.25m-15.35 14.25h-0.05m-11.15-1.7-0.15 0.2-0.35 0.2-0.35-0.2-0.15-0.45 0.15-0.4m-0.15 0.1-0.25 0.45-0.5 0.25q-0.3 0-0.5-0.2l-0.05-0.05-0.2-0.5 0.2-0.55 0.55-0.2 0.5 0.2 0.25 0.55v0.05m-2 0.5-0.5-0.1-0.8-0.45m-3-1.8-2.05-1.5m-1.2-1-1-0.85-0.1-0.1m-0.8-2.35-0.3 0.1-0.35-0.2-0.15-0.45v-0.1l0.15-0.35 0.3-0.2m-2.55-2.15-0.35-0.7m12.85 4.5-0.05-0.05-0.1-0.45 0.1-0.45 0.3-0.2 0.25 0.2v0.05m-14.5-8.65 0.1-0.05 0.35 0.15 0.15 0.35-0.15 0.35-0.35 0.15-0.35-0.15-0.15-0.35q0-0.2 0.15-0.35l0.25-0.1m2.05 1.65 0.1-0.05q0.2-0.15 0.45-0.15l0.5 0.2 0.25 0.55-0.05 0.3-0.2 0.2-0.5 0.25q-0.3 0-0.55-0.25l-0.2-0.5 0.2-0.55m2.55 6.85v0.05l-0.15 0.45-0.05 0.1m4.25 0.85h-0.3l-0.55-0.15-0.2-0.35 0.2-0.35 0.55-0.15 0.3 0.05 0.2 0.1 0.25 0.35-0.25 0.35-0.2 0.15m3.3-5-0.1-0.5 0.1-0.55 0.3-0.2 0.25 0.2 0.15 0.55-0.15 0.5-0.25 0.25-0.3-0.25m-0.6 3.4-0.5 0.1-0.55-0.1-0.2-0.15 0.2-0.2 0.55-0.05 0.5 0.05 0.25 0.2-0.25 0.15m-3.25 3.8 0.65-0.2 0.6 0.2 0.1 0.1 0.2 0.45-0.3 0.5-0.25 0.2-0.35 0.05-0.65-0.25-0.25-0.5q0-0.3 0.25-0.55m5.6-0.4h0.1m0.7 1.4-0.4 0.05-0.45-0.1m2.55 3.35 0.15-0.05h0.1l0.25 0.2 0.15 0.45v0.25m-0.65-0.85-0.2 0.15v0.05m28.2-14.1 0.85-1.95 0.1-0.3m-24.75 12.65 0.25 0.5-0.3 0.5-0.6 0.25-0.55-0.15m3.95 0q0.15-0.15 0.35-0.15l0.45 0.2m0.15 0.75-0.15 0.15-0.45 0.2-0.45-0.2-0.2-0.45 0.2-0.45 0.1-0.05m1 0.35v0.15l-0.05 0.3m10.75-10.15-0.15 0.35-0.35 0.15-0.35-0.15-0.15-0.35 0.15-0.35 0.35-0.15q0.2 0 0.35 0.15l0.15 0.35m-7.65 10.4 0.15 0.35-0.15 0.35-0.35 0.15-0.35-0.15-0.15-0.35 0.05-0.1m-8.35 3.05 0.95 0.3" fill="none" stroke="#57291a" stroke-linecap="round" stroke-linejoin="round"/>
</g>
</defs>
</svg>
