<?xml version="1.0" encoding="UTF-8"?>
<svg version="1.1" viewBox="0 0 117.69 92.569" xmlns="http://www.w3.org/2000/svg" xmlns:cc="http://creativecommons.org/ns#" xmlns:dc="http://purl.org/dc/elements/1.1/" xmlns:rdf="http://www.w3.org/1999/02/22-rdf-syntax-ns#" xmlns:xlink="http://www.w3.org/1999/xlink">
<metadata>
<rdf:RDF>
<cc:Work rdf:about="">
<dc:format>image/svg+xml</dc:format>
<dc:type rdf:resource="http://purl.org/dc/dcmitype/StillImage"/>
</cc:Work>
</rdf:RDF>
</metadata>
<g transform="translate(-216.13 -154.11)">
<use transform="translate(216.15,154.1)" width="117.65" height="92.550003" xlink:href="#a"/>
</g>
<defs>
<g id="a" transform="translate(-216.15,-154.1)">
<path d="m277.8 168.15q-0.25-0.6-0.05-1.45 0.45-1.05 1-0.45-0.4-3.25 0.25-3.45 0.6-0.15 1.2 1.65-0.4-5.3 1.4-1.2 0.7-2.45 1.55-1.1l1.1 2.05 0.3 0.8 0.1-0.4q-0.45-4.2 1.5-1.9 0.35-5.5 1.5-0.9 0.9-2 1.2-1.5l0.4 0.9 0.2 3.05q1.25-1.55 1.7-0.6 0.45 0.9 0.1 4.1 0.85-1.4 1.15-0.25-0.5 0.15-1.15 0.6l-0.8-0.85q-0.9-1.6-1.8-2.5l-1.05-0.8q-1.55-0.25-1.9 2.05-0.2 1.1-0.15 2.7-0.45-0.7-0.85-0.6l-1.75-2.25q-1.6-2.35-1.85 1.25l-1.25 0.1q-0.6-0.1-1.1 1.4l-0.95-0.45m15.45-5.4q-0.25-0.6-0.05-1.4 0.45-1.05 1-0.45-0.4-3.25 0.25-3.45 0.6-0.15 1.2 1.65-0.4-5.3 1.4-1.2 0.7-2.45 1.55-1.1l1.1 2.05 0.3 0.8 0.1-0.4q-0.45-4.2 1.5-1.9 0.35-5.5 1.5-0.9 0.9-2 1.2-1.5l0.4 0.9 0.2 3.05q2.45-3 1.8 3.5 0.85-1.4 1.15-0.25-0.5 0.15-1.15 0.6l-0.8-0.85q-1.35-2.45-2.85-3.3-2.1-0.35-2.05 4.15v0.6q-0.45-0.7-0.85-0.6l-1.75-2.25q-1.6-2.35-1.85 1.25l-1.25 0.1-0.5 0.25q-0.35 0.3-0.6 1.15l-0.95-0.45v-0.05m15.3 0.8q0.85-0.05 1 0.45l-1.15-0.15 0.15-0.3m-31.35 6.15v-0.3l0.3 0.5-0.25 0.15-0.05-0.35m15.5-5-0.05-0.65 0.3 0.5-0.25 0.15m0.4 4.2q0.85-0.05 1 0.45l-1.15-0.15 0.15-0.3m0.55 2-0.15 0.25-0.15-0.15 0.3-0.1m15.3-5.1-0.15-0.15 0.3-0.1-0.15 0.25" fill="#bdf850" fill-rule="evenodd"/>
<path d="m279.85 167.2 1.25-0.1q0.25-3.6 1.85-1.25l1.75 2.25q-0.5 0.05-0.85 1.25-0.75-0.4-1.2-0.5-1.2-0.25 0.05 1.7l-0.25 0.1-0.45 0.15 0.05 0.05q-1.3 0.8 0.9 1.35l-0.15 0.35q-1-0.45-1.8-0.5 0.25 1.2-0.25 1.9-0.5-0.15-1.25-1.05l-1.3 0.55q-0.05-0.65 0.4-1.3l0.75-0.85 0.05-0.05h-0.05l-1.65-0.35q-0.1-0.3 1.15-0.65l-0.75-0.9-0.05-0.2 0.3 0.05 1.1 0.4 0.75 0.55q-0.75-1.05-0.25-1.65l0.05-0.05 0.05 0.05q0.9 0.3 1.3 1.45 0.2-1.65 1.6-2.2v-0.05l-0.3-0.35q-0.5-0.1-1.85 0.75-0.5-0.85-0.95-0.9m5.7 1.5q-0.05-1.6 0.15-2.7 0.35-2.3 1.9-2.05l1.05 0.8q0.9 0.9 1.8 2.5-0.7-0.25-1.25 1.35-1.75-0.95-1.9-0.4-0.45-0.05-1.6 0.7l-0.15-0.2m23.3-6.3-0.3 1.15-0.15 0.3 1.15 0.15 0.75 0.25-0.9 0.6-0.85 0.4-0.65 0.2 0.75 0.85 0.4 1.1q-1.2-0.65-2.15-0.7 0.25 1.2-0.25 1.9-0.5-0.15-1.25-1.05l-1.3 0.55q-0.1-0.8 0.6-1.6l0.6-0.6-1.3-0.1q0.95-0.5 0.5-0.8l0.25-0.1q-0.7-0.45-0.8-1.1 1.05 0.1 2.15 1l-0.4-0.75q-0.15-0.55 0.2-0.95 0.45 0.15 0.8 0.55l0.5 0.8 0.05 0.15v-0.05q0.15-1 0.7-1.55 0.35-0.4 0.9-0.6m-21.25 6.15-0.05 0.6-0.3 0.75 0.55 0.1-0.55-0.1 0.3-0.75 0.4 0.75-0.15 0.1 1.15 0.25-0.2 0.2-0.6 0.35-1.1 0.45-0.25 0.1 0.45 0.55 0.55 1.05v0.2-0.05q-1.1-0.55-1.95-0.6 0.2 1.1-0.25 1.7l-1.1-0.9-1.2 0.45 0.05-0.4q0.05-0.5 0.5-1l0.55-0.55-0.95-0.1-0.6-0.25q-0.05-0.15 0.2-0.25 0.25-0.2 0.85-0.35l-0.2-0.15-0.35-0.4-0.15-0.45 0.65 0.15 0.6 0.3 0.65 0.45q-0.7-0.95-0.15-1.5 0.85 0.25 1.25 1.35 0.1-1.35 1.15-1.9l0.25-0.15m0.25 3.35-0.25-0.35v-0.05l0.65 0.2-0.1 0.2h-0.3m0.7-0.75q0.95-0.5 0.5-0.8l0.25-0.1q-0.7-0.45-0.8-1.1 1.05 0.1 2.15 1-0.8-1.05-0.2-1.7l0.8 0.55 0.5 0.8 0.05 0.15v-0.05q0.15-1 0.7-1.55l0.4-0.35 0.5-0.25-0.05 0.4-0.25 0.75-0.15 0.3 1.15 0.15 0.75 0.25-0.9 0.6-1.5 0.6 0.75 0.85 0.4 1.1q-1.2-0.65-2.15-0.7 0.25 1.2-0.25 1.9l-1.25-1.05-1.3 0.55q-0.1-0.8 0.6-1.6l0.6-0.6-1.3-0.1m-5.6-3.4-0.3 1.1 0.3-1.1m19.8-4.9-0.6 0.15q-0.45 0.15-1 0.55l-0.15-0.2v-0.6q-0.05-4.5 2.05-4.15 1.5 0.85 2.85 3.3-0.7-0.25-1.25 1.35-1.75-0.95-1.9-0.4m-2.6-0.1q-0.5 0.05-0.85 1.25l-1.2-0.5q-1.2-0.25 0.05 1.7l-0.25 0.1-0.45 0.15 0.05 0.05q-1.3 0.8 0.9 1.35l-0.15 0.35-1.8-0.5q0.25 1.2-0.25 1.9l-1.25-1.05-1.3 0.55q-0.05-0.65 0.4-1.3l0.75-0.85 0.05-0.05h-0.05l-1.65-0.35q-0.1-0.3 1.15-0.65-0.7-0.45-0.8-1.1 0.7 0.05 1.4 0.45l0.75 0.55q-0.8-1.05-0.2-1.7 0.95 0.35 1.35 1.5 0.2-1.65 1.6-2.2v-0.05l-0.05-0.1-0.9-0.15-1.2 0.65q-0.5-0.85-0.95-0.9l1.25-0.1q0.25-3.6 1.85-1.25l1.75 2.25m-1.4 5.65 0.05-0.4 0.5-1 0.55-0.55-0.95-0.1-0.6-0.25 0.2-0.25 0.85-0.35-0.2-0.15-0.35-0.4-0.15-0.45 0.65 0.15 0.6 0.3 0.65 0.45q-0.7-0.95-0.15-1.5 0.85 0.25 1.25 1.35 0.1-1.35 1.15-1.9l0.25-0.1v-0.05 0.05l-0.05 0.55-0.3 0.75 0.55 0.1-0.55-0.1 0.3-0.75 0.4 0.75-0.15 0.1 1.15 0.25-0.2 0.2q-0.55 0.2-0.6 0.35l-1.1 0.45-0.25 0.1 0.45 0.55 0.55 1.05v0.2-0.05q-1.1-0.55-1.95-0.6 0.2 1.1-0.25 1.7l-1.1-0.9-1.2 0.45m4.55-1.85-0.25-0.35v-0.05l0.65 0.2-0.1 0.2h-0.3m-5.2-3.05 0.3-1.1-0.3 1.1" fill="#8ed807" fill-rule="evenodd"/>
<path d="m277.8 168.15 0.95 0.45q0.5-1.5 1.1-1.4 0.45 0.05 0.95 0.9 1.35-0.85 1.85-0.75l0.3 0.35v0.05q-1.4 0.55-1.6 2.2-0.4-1.15-1.3-1.45l-0.05-0.05-0.05 0.05q-0.5 0.6 0.25 1.65l-0.75-0.55-1.1-0.4-0.3-0.05 0.05 0.2 0.75 0.9q-1.25 0.35-1.15 0.65l1.65 0.35h0.05l-0.05 0.05-0.75 0.85q-0.45 0.65-0.4 1.3-1.5 0.35-0.4-1.75-2.7-0.65-0.55-1.65l0.25-0.15-0.3-0.5q-1-1.85 0.6-1.25m6.9-0.05q0.4-0.1 0.85 0.6l0.15 0.2q1.15-0.75 1.6-0.7l0.3 0.35-0.3-0.35q0.15-0.55 1.9 0.4 0.55-1.6 1.25-1.35l0.8 0.85q0.65-0.45 1.15-0.6l0.45-0.15q0.5-0.1 0.55 0.35v0.05-0.05q-0.05-0.45-0.55-0.35l0.4-1q-2.7-0.65-0.55-1.65l0.25-0.15-0.3-0.5-0.35-0.9q-0.15-0.75 0.9-0.35h0.05l0.95 0.45q0.25-0.85 0.6-1.15l0.5-0.25q0.45 0.05 0.95 0.9l1.2-0.65 0.9 0.15 0.05 0.1v0.05q-1.4 0.55-1.6 2.2-0.4-1.15-1.35-1.5-0.6 0.65 0.2 1.7l-0.75-0.55q-0.7-0.4-1.4-0.45 0.1 0.65 0.8 1.1-1.25 0.35-1.15 0.65l1.65 0.35h0.05l-0.05 0.05-0.75 0.85q-0.45 0.65-0.4 1.3l-0.3 0.05 0.05-0.4-0.5 0.25-0.4 0.35q-0.55 0.55-0.7 1.55v0.05l-0.05-0.15-0.5-0.8-0.8-0.55q-0.6 0.65 0.2 1.7-1.1-0.9-2.15-1 0.1 0.65 0.8 1.1l-0.25 0.1-0.1-0.1-1.15-0.25 0.15-0.1-0.4-0.75 0.05-0.6-0.25 0.15q-1.05 0.55-1.15 1.9-0.4-1.1-1.25-1.35-0.55 0.55 0.15 1.5l-0.65-0.45-0.6-0.3-0.65-0.15 0.15 0.45 0.35 0.4 0.2 0.15q-0.6 0.15-0.85 0.35-0.25 0.1-0.2 0.25l0.6 0.25 0.95 0.1-0.55 0.55q-0.45 0.5-0.5 1l-0.05 0.4q-0.9 0.2-0.75-0.55l0.25-0.65 0.15-0.35q-2.2-0.55-0.9-1.35l0.4-0.2 0.25-0.1q-1.25-1.95-0.05-1.7 0.45 0.1 1.2 0.5 0.35-1.2 0.85-1.25m23.15-5.95q0.9-0.4 1 0.2v0.05q-0.55 0.2-0.9 0.6-0.55 0.55-0.7 1.55v0.05l-0.05-0.15-0.5-0.8q-0.35-0.4-0.8-0.55-0.35 0.4-0.2 0.95l0.4 0.75q-1.1-0.9-2.15-1 0.1 0.65 0.8 1.1l-0.25 0.1-0.1-0.1-1.15-0.25 0.15-0.1-0.4-0.75 0.05-0.55v-0.05 0.05l-0.25 0.1q-1.05 0.55-1.15 1.9-0.4-1.1-1.25-1.35-0.55 0.55 0.15 1.5l-0.65-0.45-0.6-0.3-0.65-0.15 0.15 0.45 0.35 0.4 0.2 0.15-0.85 0.35-0.2 0.25 0.6 0.25 0.95 0.1-0.55 0.55-0.5 1-0.05 0.4q-0.9 0.2-0.75-0.55l0.25-0.65 0.15-0.35q-2.2-0.55-0.9-1.35l0.4-0.2 0.25-0.1q-1.25-1.95-0.05-1.7l1.2 0.5q0.35-1.2 0.85-1.25 0.4-0.1 0.85 0.6l0.15 0.2q0.55-0.4 1-0.55l0.6-0.15q0.25 0.05 0.3 0.35-0.05-0.3-0.3-0.35 0.15-0.55 1.9 0.4 0.55-1.6 1.25-1.35l0.8 0.85q0.65-0.45 1.15-0.6m-20.25 9.35 0.95-0.35 1.3 0.1-0.6 0.6q-0.7 0.8-0.6 1.6h-0.05q0.1-0.4-0.55-1.3l0.1-0.25 0.1-0.2-0.65-0.2m15.45-5.35 0.95-0.35 1.3 0.1-0.6 0.6q-0.7 0.8-0.6 1.6h-0.05q0.1-0.4-0.55-1.3l0.1-0.25 0.1-0.2-0.65-0.2" fill="#bbfa47" fill-rule="evenodd"/>
<path d="m292.4 167.5q-0.3-1.15-1.15 0.25 0.35-3.2-0.1-4.1l1.15-0.5 0.35 0.9 0.05 0.65q-2.15 1 0.55 1.65l-0.4 1-0.45 0.15m0.8-4.7 0.05-0.05v0.05h-0.05m15.95 2.75q4.45 2.25 7.05 5.9l-22.25 9.1q-5.7 2.3-11.35 4.65-1.9-3.3-5-5-3.9-2.15-9.75-1.9 2.95 1.8 4.7 3.85 3.2 3.6 2.5 7.85l-29.85 14.05q-3.7-5.35-8.45-8-3.25-1.85-7-2.5-3.4-0.55-7.15-0.15l54.6-23.7 0.05 0.35q-2.15 1 0.55 1.65-1.1 2.1 0.4 1.75l1.3-0.55q0.75 0.9 1.25 1.05h0.05q0.65 0.2 0.7-1.1l1.05 0.35q-0.15 0.75 0.75 0.55l1.2-0.45 1.1 0.9 0.05 0.05q0.6 0.15 0.65-1l2.3 0.2h0.05l1.3-0.55 1.25 1.05h0.05q0.65 0.2 0.7-1.1 4.15 1.55 1.55-1.7l0.15-0.25q2.15-0.9 1.2-1.3l-0.75-0.25q-0.15-0.5-1-0.45l0.25-0.75 0.3-0.05 1.3-0.55 1.25 1.05h0.05q0.65 0.2 0.7-1.1l1.05 0.35q-0.15 0.75 0.75 0.55l1.2-0.45 1.1 0.9 0.05 0.05q0.6 0.15 0.65-1 2.1 0.75 2.3 0.2h0.05l1.3-0.55q0.75 0.9 1.25 1.05h0.05q0.65 0.2 0.7-1.1 4.15 1.55 1.55-1.7l0.15-0.25h0.05m7.6 27.35 15.95-9.8q-0.55 14.55-7.9 24.05l-61.05 38.4q9-11 5.15-19.9l29.15-18.5-5.65 16.6q11.9-13.45 14.75-25.9l9.6-4.95m-28.7-20.75-0.2-0.25h0.3l-0.1 0.25m15.25-5.6h0.3l-0.1 0.25-0.2-0.25" fill="#e0c734" fill-rule="evenodd"/>
<path d="m310.3 164.25q0.95 0.4-1.15 1.3h-0.05l-0.3 0.1 0.15 0.15q2.6 3.25-1.55 1.7-0.05 1.3-0.7 1.1h-0.05q0.5-0.7 0.25-1.9 0.95 0.05 2.15 0.7l-0.4-1.1-0.75-0.85 0.65-0.2 0.85-0.4 0.9-0.6m-24.7 9.95q0.45-0.6 0.25-1.7 0.85 0.05 1.95 0.6v0.05-0.2l-0.55-1.05-0.45-0.55 0.25-0.1 1.1-0.45 0.6-0.35 0.2-0.2 0.1 0.1q0.45 0.3-0.5 0.8l-0.95 0.35v0.05l0.25 0.35 0.2 0.25q0.65 0.9 0.55 1.3l-2.3-0.2q-0.05 1.15-0.65 1l-0.05-0.05m-3.15-3.55-0.4 0.2-0.05-0.05 0.45-0.15m0.35 1.9-0.25 0.65-1.05-0.35q-0.05 1.3-0.7 1.1h-0.05q0.5-0.7 0.25-1.9 0.8 0.05 1.8 0.5m15.1-7.25-0.4 0.2-0.05-0.05 0.45-0.15m0.35 1.9-0.25 0.65-1.05-0.35q-0.05 1.3-0.7 1.1h-0.05q0.5-0.7 0.25-1.9l1.8 0.5m2.8 1.65q0.45-0.6 0.25-1.7 0.85 0.05 1.95 0.6v0.05-0.2l-0.55-1.05-0.45-0.55 0.25-0.1 1.1-0.45q0.05-0.15 0.6-0.35l0.2-0.2 0.1 0.1q0.45 0.3-0.5 0.8l-0.95 0.35v0.05l0.25 0.35 0.2 0.25q0.65 0.9 0.55 1.3-0.2 0.55-2.3-0.2-0.05 1.15-0.65 1l-0.05-0.05m-6.2 0.75q0.95 0.4-1.2 1.3l-0.3 0.1 0.15 0.15q2.6 3.25-1.55 1.7-0.05 1.3-0.7 1.1h-0.05q0.5-0.7 0.25-1.9 0.95 0.05 2.15 0.7l-0.4-1.1-0.75-0.85 1.5-0.6 0.9-0.6" fill="#7ab906" fill-rule="evenodd"/>
<path d="m293.95 180.55q2.25 3.35 5.45 5.85l-76.8 35.55-4.45-3.85q-1.4-8.75-0.6-14.6l19.2-7.45q4.75 2.65 8.45 8l29.85-14.05q0.7-4.25-2.5-7.85l5.05-1.95q3.1 1.7 5 5 5.65-2.35 11.35-4.65m11.3 9.25 2.05 0.85-68.5 43.2-7.95-5.4 74.4-38.65" fill="#4f450d" fill-rule="evenodd"/>
<path d="m299.4 186.4q2.6 1.95 5.85 3.4l-74.4 38.65-1.1-0.8-7.15-5.7 76.8-35.55m7.9 4.25q4.25 1.55 9.45 2.25l-9.6 4.95q-2.85 12.45-14.75 25.9l5.65-16.6-29.15 18.5q3.85 8.9-5.15 19.9-12.35-3.7-24.95-11.7l68.5-43.2m-89.75 12.85q0.9-7.25 5.05-10.1 3.75-0.4 7.15 0.15 3.75 0.65 7 2.5l-19.2 7.45m60.05-23.3-5.05 1.95q-1.75-2.05-4.7-3.85 5.85-0.25 9.75 1.9" fill="#6c5f11" fill-rule="evenodd"/>
<path d="m291.15 163.65q-0.45-0.95-1.7 0.6l-0.2-3.05-0.4-0.9q-0.3-0.5-1.2 1.5-1.15-4.6-1.5 0.9-1.95-2.3-1.5 1.9l-0.1 0.4-0.3-0.8-1.1-2.05q-0.85-1.35-1.55 1.1-1.8-4.1-1.4 1.2-0.6-1.8-1.2-1.65-0.65 0.2-0.25 3.45-0.55-0.6-1 0.45-0.2 0.85 0.05 1.45m14.6-0.65q-0.3-1.15-1.15 0.25 0.35-3.2-0.1-4.1m2.1-0.9q-0.25-0.6-0.05-1.4 0.45-1.05 1-0.45-0.4-3.25 0.25-3.45 0.6-0.15 1.2 1.65-0.4-5.3 1.4-1.2 0.7-2.45 1.55-1.1l1.1 2.05 0.3 0.8 0.1-0.4q-0.45-4.2 1.5-1.9 0.35-5.5 1.5-0.9 0.9-2 1.2-1.5l0.4 0.9 0.2 3.05q2.45-3 1.8 3.5 0.85-1.4 1.15-0.25m0.7 1.4q0.85-0.05 1 0.45m-32.35 5.7v-0.3m0 0.3 0.05 0.35m15.4-6 0.05 0.65m0.55-1.95v0.05m0.85 6.55q-0.15-0.5-1-0.45m0.55 2-0.15 0.25m15.45-5.35 0.15-0.25" fill="none" stroke="#89ce09" stroke-linecap="round" stroke-linejoin="round" stroke-width=".5"/>
<path d="m277.8 168.15 0.95 0.45q0.5-1.5 1.1-1.4m4.85 0.9q0.4-0.1 0.85 0.6m4.9-1.45 0.8 0.85q0.65-0.45 1.15-0.6m-0.1-4.35q-0.15-0.75 0.9-0.35m14.65-0.65q0.9-0.4 1 0.2v0.05l-0.3 1.15m1 0.45 0.75 0.25q0.95 0.4-1.15 1.3m-31.95 3.85q-1-1.85 0.6-1.25m-0.55 1.9 0.25-0.15-0.3-0.5m0.05 0.65q-2.15 1 0.55 1.65-1.1 2.1 0.4 1.75l1.3-0.55q0.75 0.9 1.25 1.05m2.2-6.2v-0.05l-0.3-0.35q-0.5-0.1-1.85 0.75-0.5-0.85-0.95-0.9m7.75 1.35-0.3-0.35q-0.45-0.05-1.6 0.7l-0.15-0.2m2 0.45 0.05-0.6m-4.3 5.2 1.2-0.45 1.1 0.9m3.35-3.95-1.15-0.25-0.55-0.1 0.3-0.75 0.4 0.75-0.15 0.1m-3.1-1.9q-0.5 0.05-0.85 1.25-0.75-0.4-1.2-0.5-1.2-0.25 0.05 1.7l-0.25 0.1-0.4 0.2q-1.3 0.8 0.9 1.35l-0.15 0.35-0.25 0.65q-0.15 0.75 0.75 0.55m4.55-1.85-0.25-0.35v-0.05l0.95-0.35q0.95-0.5 0.5-0.8l-0.1-0.1m-6.3-1.4 0.3-1.1m-2.15 6.2q0.65 0.2 0.7-1.1l1.05 0.35m3.1 1.05q0.6 0.15 0.65-1l2.3 0.2q0.1-0.4-0.55-1.3l-0.2-0.25m0.3 0 0.1-0.2-0.65-0.2m15.15-8.65-0.6 0.15q-0.45 0.15-1 0.55l-0.15-0.2q-0.45-0.7-0.85-0.6-0.5 0.05-0.85 1.25l-1.2-0.5q-1.2-0.25 0.05 1.7l-0.25 0.1-0.4 0.2q-1.3 0.8 0.9 1.35l-0.15 0.35-0.25 0.65q-0.15 0.75 0.75 0.55m4.3-5.2q-0.05-0.3-0.3-0.35 0.15-0.55 1.9 0.4 0.55-1.6 1.25-1.35l0.8 0.85q0.65-0.45 1.15-0.6m-9.45 0.25v-0.05l-0.05-0.1-0.9-0.15-1.2 0.65q-0.5-0.85-0.95-0.9l-0.5 0.25q-0.35 0.3-0.6 1.15l-0.95-0.45h-0.05m10.05 1.85-0.55-0.1 0.3-0.75 0.05-0.55v-0.05m1.35 1.7-1.15-0.25 0.15-0.1-0.4-0.75m0.3 2.75-0.25-0.35v-0.05l0.95-0.35q0.95-0.5 0.5-0.8l-0.1-0.1m-0.3 3.2 1.3-0.55q0.75 0.9 1.25 1.05m-13.95-3.9 0.25-0.15-0.3-0.5-0.35-0.9m6.1-0.75-0.3 1.1m-1.85 5.1q0.65 0.2 0.7-1.1l1.05 0.35m-4.9 1.05-0.15 0.3 1.15 0.15 0.75 0.25q0.95 0.4-1.2 1.3m-0.15 0.25q2.6 3.25-1.55 1.7-0.05 1.3-0.7 1.1m-0.05 0-1.25-1.05-1.3 0.55h-0.05m5.05-5.35 1.3-0.55 1.25 1.05m-3.35-1.25q0.5-0.1 0.55 0.35v0.05l-0.05 0.4 0.3-0.05m-0.55 0.8 0.25-0.75m0.15 3-0.15-0.15 0.3-0.1m-0.8-3.55-0.45 0.15m-1.95-0.25q-0.7-0.25-1.25 1.35-1.75-0.95-1.9-0.4m0.85 3.7-0.1 0.25m4.65-7.45q-2.15 1 0.55 1.65l-0.4 1m13.85 1.25q0.65 0.2 0.7-1.1 4.15 1.55 1.55-1.7l-0.15-0.15 0.3-0.1h0.05m-5.85 1 0.2 0.25 0.1-0.25 0.1-0.2-0.65-0.2m1 1.95h0.05m-0.6-1.3q0.65 0.9 0.55 1.3-0.2 0.55-2.3-0.2-0.05 1.15-0.65 1m-0.05-0.05-1.1-0.9-1.2 0.45m10.8-4.4-1.15-0.15 0.15-0.3" fill="none" stroke="#6aa005" stroke-linecap="round" stroke-linejoin="round" stroke-width=".5"/>
<path d="m291.15 163.65 1.15-0.5m0.9-0.35 0.05-0.05m15.9 2.8q4.45 2.25 7.05 5.9l-22.25 9.1q2.25 3.35 5.45 5.85 2.6 1.95 5.85 3.4l2.05 0.85q4.25 1.55 9.45 2.25l15.95-9.8q-0.55 14.55-7.9 24.05l-61.05 38.4q-12.35-3.7-24.95-11.7l-7.95-5.4-1.1-0.8-7.15-5.7-4.45-3.85q-1.4-8.75-0.6-14.6 0.9-7.25 5.05-10.1l54.6-23.7m0.4 10.5q-3.9-2.15-9.75-1.9 2.95 1.8 4.7 3.85 3.2 3.6 2.5 7.85l-29.85 14.05q-3.7-5.35-8.45-8m40.85-15.85q3.1 1.7 5 5 5.65-2.35 11.35-4.65m-30.2 65q9-11 5.15-19.9l29.15-18.5-5.65 16.6q11.9-13.45 14.75-25.9l9.6-4.95m-94.15 0.5q3.75-0.4 7.15 0.15 3.75 0.65 7 2.5" fill="none" stroke="#af991b" stroke-linecap="round" stroke-linejoin="round" stroke-width="2.25"/>
<path d="m287.85 171.9h0.3m15.45-5.35h-0.3" fill="none" stroke="#8ed807" stroke-linecap="round" stroke-linejoin="round" stroke-width=".5"/>
</g>
</defs>
</svg>
