<?xml version="1.0" encoding="UTF-8"?>
<svg version="1.1" viewBox="0 0 53.251 57.25" xmlns="http://www.w3.org/2000/svg" xmlns:cc="http://creativecommons.org/ns#" xmlns:dc="http://purl.org/dc/elements/1.1/" xmlns:rdf="http://www.w3.org/1999/02/22-rdf-syntax-ns#" xmlns:xlink="http://www.w3.org/1999/xlink">
<metadata>
<rdf:RDF>
<cc:Work rdf:about="">
<dc:format>image/svg+xml</dc:format>
<dc:type rdf:resource="http://purl.org/dc/dcmitype/StillImage"/>
</cc:Work>
</rdf:RDF>
</metadata>
<g transform="translate(-248.35 -171.35)">
<use transform="translate(248.35,171.35)" width="53.25" height="57.25" xlink:href="#a"/>
</g>
<defs>
<g id="a" transform="translate(-248.35,-171.35)">
<path d="m287.9 176.1 0.8 7.5-4.4-3.4-1.6-6.8 5.2 2.7m-17.95 4.85-4.5 2.4-0.5 0.35-1.35 1.2-2.45 2.3q-2.8 4.9-5.25 10.05-2.35 4.9-4.15 9.95-0.75-5.5-0.2-10.9 0.55-5.65 3.1-10.55 2.7-5.15 7.5-8.4 5.05-3.35 10.95-3.75l6-0.3 2.2 5.8-6.1 0.35-5.25 1.5m3.85 34-0.3-0.05-0.5 0.1-1.1-2.6-0.5-6.7 1.5-5.5 0.9 14.75" fill="#fff" fill-rule="evenodd"/>
<path d="m288.2 175.65q2.75 1.75 5.25 4.4 7.6 8.25 7.65 19.9-0.05 11.65-7.65 19.9-7.7 8.25-18.5 8.25t-18.45-8.25q-2.25-2.4-3.8-5.05l1.3-0.75 2.05-2 1.7-2.6 1.95-1.6q0.4-0.45 1.05-0.75 0.95-0.5 2.5-0.7l4.8-0.25 0.55-0.05 0.75 4.3-0.4-0.1-0.95-0.3h-4l-3 1-2.2 2-1.8 2.6 3 3.4 4.2 3.2 4.45 1.55 6.05 0.85h0.3l1.15-0.1 4.15-0.45 0.3-0.05h0.1l5.7-2 5.6-4q3.85-4.7 4.6-7.8l0.4-1.2q-2.25-2.25-4.4-2.2l-2.6 1.2-3.2 2.6-2.8 1.4-0.85 0.3 0.85-1.8 0.5-3.2-0.5-2.6h0.6q2.45 0 4.15-1.7 1.75-1.65 1.75-4t-1.75-4.05q-1.7-1.65-4.15-1.65l-1.75 0.25 0.2-1.1q-0.25-3.9-1.05-6.25l-0.7-1.5q0.3 3.35-0.45 6.15-1.05 3.3-2.75 5.45l-0.45-1.8-1.2-4.15 0.7-2.45-0.8-5.85-1.15-2.6 6.1-0.35-2.2-5.8-6 0.3q-5.9 0.4-10.95 3.75-4.8 3.25-7.5 8.4-2.55 4.9-3.1 10.55-0.55 5.4 0.2 10.9l0.45-0.35 0.9-1.05q1-1.8 2.3-3.45 2.95-3.95 7.3-7.05-2.15-1.2-2.35-5.25 0.2-1.6 0.8-2.85l2.45-2.3 1.35-1.2 0.7-0.25-0.2-0.1 4.5-2.4q2 2 2.5 3.8l0.05 0.35 0.1 1.35-0.55 4.25-0.05 0.35-0.25 0.5-0.05 0.05-1.6 2-3.25 2.5-5.7 3.45-4.8 4.8-2 3.5-1.25 3.35 4.4-6.5 3.85-3.4 3.65-1.8 1.75-0.4 2.35-0.65 0.15-0.05-0.7 3.3-0.95 0.3-2.15 0.3-1.95 0.65-4.15 2.3-1.65 1.85-2.9 5.2-2.25 1.9-0.15 0.1q-3.6-6.4-3.55-14.35 0-1.7 0.15-3.3 0.95-9.55 7.5-16.6 7.65-8.25 18.45-8.2l5.5 0.55 2.35 0.65-0.1 0.35 1.6 6.8 4.4 3.4-0.8-7.5 0.3-0.45m-22.1 12q-2.25-1.1-3.55 2.6 0.1 3.05 2.7 3.85 1.8-0.25 2.3-2.35 0.05-2.75-1.45-4.1m0.7 20.35 0.2-0.45-0.2-0.45-0.5-0.2-0.5 0.2-0.2 0.45 0.2 0.45 0.5 0.2q0.3 0 0.5-0.2m19.55-2.2q-0.2 0-0.35 0.15l-0.1 0.35 0.1 0.35 0.35 0.15 0.3-0.15 0.15-0.35-0.15-0.35-0.3-0.15m4.45-1.1 0.2 0.55 0.45 0.25 0.45-0.25 0.2-0.55-0.2-0.6-0.45-0.2q-0.25 0-0.45 0.2l-0.2 0.6m4.15-5.6q-0.4 0-0.7 0.3-0.25 0.3-0.25 0.7l0.25 0.7q0.3 0.3 0.7 0.3l0.65-0.3 0.3-0.7-0.3-0.7q-0.25-0.3-0.65-0.3" fill="#820000" fill-rule="evenodd"/>
<path d="m288.2 175.65-0.3 0.45-5.2-2.7 0.1-0.35q2.85 0.9 5.4 2.6m-35.8 38.65 0.15-0.1-0.15 0.1" fill-rule="evenodd"/>
<path d="m265.45 183.35 0.2 0.1-0.7 0.25 0.5-0.35" fill="#ecf2fb" fill-rule="evenodd"/>
<path d="m266.1 187.65q1.5 1.35 1.45 4.1-0.5 2.1-2.3 2.35-2.6-0.8-2.7-3.85 1.3-3.7 3.55-2.6m12.2 20.65 0.55 0.2 0.25 0.6v0.25l-0.25 0.3-0.55 0.25-0.4-0.1-0.2-0.15-0.2-0.55 0.2-0.6 0.6-0.2m-11.5-0.3q-0.2 0.2-0.5 0.2l-0.5-0.2-0.2-0.45 0.2-0.45 0.5-0.2 0.5 0.2 0.2 0.45-0.2 0.45m19.55-2.2 0.3 0.15 0.15 0.35-0.15 0.35-0.3 0.15-0.35-0.15-0.1-0.35 0.1-0.35q0.15-0.15 0.35-0.15m8.6-6.7q0.4 0 0.65 0.3l0.3 0.7-0.3 0.7-0.65 0.3q-0.4 0-0.7-0.3l-0.25-0.7q0-0.4 0.25-0.7 0.3-0.3 0.7-0.3m-4.15 5.6 0.2-0.6q0.2-0.2 0.45-0.2l0.45 0.2 0.2 0.6-0.2 0.55-0.45 0.25-0.45-0.25-0.2-0.55m-1.15 7.3-0.2-0.2-0.25-0.6 0.25-0.65q0.25-0.25 0.6-0.25l0.4 0.1q-0.3 0-0.6 0.35-0.25 0.35-0.25 0.85l0.05 0.4" fill="#c00" fill-rule="evenodd"/>
<path d="m252.55 214.2 2.25-1.9 2.9-5.2 1.65-1.85 4.15-2.3 1.95-0.65 2.15-0.3 0.95-0.3 0.05 4.4-0.55 0.05-4.8 0.25q-1.55 0.2-2.5 0.7-0.65 0.3-1.05 0.75l-1.95 1.6-1.7 2.6-2.05 2-1.3 0.75-0.5 0.3-0.25-0.5 0.6-0.4m16.7-15.8-0.15 0.05-2.35 0.65-1.75 0.4-3.65 1.8-3.85 3.4-4.4 6.5 1.25-3.35 2-3.5 4.8-4.8 5.7-3.45 3.25-2.5 1.6-2 0.05-0.05-2.5 6.85m3.2-13.65q-0.5-1.8-2.5-3.8l5.25-1.5 1.15 2.6 0.8 5.85-0.7 2.45q-1.7-3.7-4.15-6.8l0.15 1.2m5.65 11.55q1.7-2.15 2.75-5.45 0.75-2.8 0.45-6.15l0.7 1.5q0.8 2.35 1.05 6.25l-0.2 1.1q-1.35 0.35-2.45 1.4-1.7 1.7-1.7 4.05l0.25 1.75-0.3 0.3-0.55-4.75" fill="#f03" fill-rule="evenodd"/>
<path d="m268.55 201.7 0.7-3.3 2.5-6.85 0.25-0.5 0.05-0.35 0.55-4.25-0.1-1.35-0.05-0.35-0.15-1.2q2.45 3.1 4.15 6.8l1.2 4.15 0.45 1.8 0.55 4.75 0.15 2.25h-0.1l0.05 0.05 0.05 0.1 0.05 0.05-0.15 0.85-0.4 3.95-0.6 0.2-0.2 0.6 0.2 0.55 0.2 0.15-1.25 3.15 2.2-3.3 0.25-0.3 1.2-1.85 0.8-4.6-0.6-6 3.1 5.9 0.4 1.9 0.5 2.6-0.5 3.2-0.85 1.8-0.35 0.7-1.75 1.7 0.5 1.5q-0.65 0.05-1.15 0.4l-0.35 0.45q-0.45 0.05-0.75 0.35-0.35 0.35-0.4 0.9h-0.1q0-0.55-0.5-1l-0.2-0.15-0.65-0.2-0.1-0.3v-0.05l0.05-0.5-0.3-1.05q-0.3-0.45-0.75-0.45t-0.75 0.45l-0.05 0.1 0.05-0.1q0.3-0.45 0.75-0.45t0.75 0.45l0.3 1.05-0.05 0.5v0.05l-0.1 0.25-0.15 0.25q-0.3 0.45-0.75 0.45l-0.5-0.15-0.25-0.3q-0.3-0.45-0.3-1.05 0-0.55 0.25-0.95l-0.55-0.05-0.6 0.05-0.05 0.05 0.05 0.05q0.4 0.4 0.4 0.9t-0.4 0.85l-0.25 0.25-0.2 0.1-0.45 0.05q-0.55 0-0.9-0.35l-0.05-0.05q-0.35-0.35-0.35-0.85t0.35-0.9l0.05-0.05q0.15-0.15 0.4-0.2-0.25 0.05-0.4 0.2l-0.05 0.05q-0.35 0.4-0.35 0.9t0.35 0.85l0.05 0.05-0.05 0.25q-0.35 0.35-0.35 0.8 0 0.5 0.35 0.85l0.45 0.3v0.1l0.2 0.6 0.1 0.1-0.1 0.65 0.05 0.4-1 0.2q0.55-0.3 0.55-0.75t-0.55-0.75l-0.55-0.2 0.1-0.5-0.3-0.75 0.2-0.2q0.4-0.4 0.4-1l-0.05-0.4-0.15-0.35-0.2-0.3-0.25-0.2-0.1-0.05-1.1-2.55-1.3-3 0.4 0.1-0.75-4.3-0.05-4.4m4.45 13.3 0.5-0.1 0.3 0.05-0.9-14.75-1.5 5.5 0.5 6.7 1.1 2.6m0.8-0.05q0.3 0.05 0.55 0.25-0.25-0.2-0.55-0.25m-1.25 2.35-0.5-0.55 0.5 0.55" fill="#f90" fill-rule="evenodd"/>
<path d="m282.85 193.55 1.75-0.25q2.45 0 4.15 1.65 1.75 1.7 1.75 4.05t-1.75 4q-1.7 1.7-4.15 1.7h-0.6l-0.4-1.9-3.1-5.9 0.6 6-0.8 4.6-1.2 1.85v-0.25l-0.25-0.6-0.55-0.2 0.4-3.95 0.2-0.5-0.05-0.35-0.05-0.05-0.05-0.1 0.05-0.05-0.15-2.25 0.3-0.3-0.25-1.75q0-2.35 1.7-4.05 1.1-1.05 2.45-1.4m-15.7 25.9-0.05-0.05q-0.4-0.4-0.4-0.95t0.4-0.95q0.45-0.4 1.05-0.4t1 0.4l0.4 0.65 0.15-0.1q-0.3-0.35-0.3-0.9v-0.05q0-0.55 0.4-1 0.4-0.4 0.95-0.4l0.6 0.15 0.1 0.05 0.25 0.2 0.2 0.3 0.15 0.35 0.05 0.4q0 0.6-0.4 1l-0.2 0.2 0.3 0.75-0.1 0.5 0.55 0.2q0.55 0.3 0.55 0.75t-0.55 0.75l-1.3 0.3-1.3-0.3q-0.55-0.3-0.55-0.75l0.1-0.3 0.2-0.3-0.3-0.45-0.95 0.3-1-0.35m7.25-4.2-0.05-0.05 0.05-0.05v0.1m-1.85 2.05-0.05 0.25q0 1 0.7 1.7l0.05 0.05-0.05-0.05q-0.7-0.7-0.7-1.7l0.05-0.25 2.3 2.7h-0.2l-1-0.4 1 0.4 0.15 0.7-0.05 0.55-0.2 0.3q-0.2 0.35-0.55 0.35t-0.6-0.35l-0.15-0.45-0.05-0.4 0.1-0.65 0.1-0.2 0.25-0.25-0.4-0.3-0.25-0.05-0.45-0.3q-0.35-0.35-0.35-0.85 0-0.45 0.35-0.8m-0.5-0.55-0.6-0.85 0.6 0.85m5.3-0.1 0.1 0.3-0.2-0.05 0.1-0.25m0.75 0.5 0.2 0.15q0.5 0.45 0.5 1h0.1q0.05-0.55 0.4-0.9 0.3-0.3 0.75-0.35l0.35-0.45q0.5-0.35 1.15-0.4h0.15q0.75 0 1.25 0.4 0.55 0.4 0.55 0.95l-0.05 0.4-0.5 0.55q-0.5 0.4-1.25 0.4h-0.05l0.05-0.5q0-0.6-0.4-1t-1-0.4l-0.25 0.05 0.25-0.05q0.6 0 1 0.4t0.4 1l-0.05 0.5-0.35 0.5-0.25 0.25-0.65 0.15-0.3 0.2-0.1 0.05-1 0.25h-0.4l-0.75-0.3-0.25-0.25-0.1 0.05-0.05 0.05-0.55 0.45-0.6-0.45-0.05-0.15-1.05 0.3 0.7-0.7 2.2-2.15m-0.2-7.35 0.4 0.1 0.55-0.25-2.2 3.3 1.25-3.15m-13.9 5.4v0.05l-0.3 0.5q-0.3 0.35-0.75 0.35h-0.1q-0.4-0.05-0.65-0.35l-0.05-0.05-0.25-0.7q0-0.45 0.3-0.8 0.15-0.15 0.35-0.2l0.4-0.1 0.25 0.05q0.3 0.05 0.5 0.25l0.3 0.8v0.2m0.6 2.6q0.5 0 0.85 0.3l0.35 0.75v0.1q0 0.5-0.35 0.8-0.35 0.35-0.85 0.35t-0.85-0.35q-0.35-0.3-0.35-0.8t0.35-0.85l0.25-0.15 0.6-0.15m14.3 0.5v0.1q0 0.6 0.4 1t1 0.4h0.1-0.1q-0.6 0-1-0.4t-0.4-1v-0.1m-2.65 1.4 0.1-0.1 0.8 0.2h0.35-0.35l-0.8-0.2-0.1 0.1m1.35 0.05 0.7-0.4q0.5-0.4 0.5-1v-0.05 0.05q0 0.6-0.5 1l-0.7 0.4m-1.7-0.45 0.05 0.05 0.4 0.25-0.4-0.25-0.05-0.05m-6.35-1.15-0.15 0.1q-0.4 0.35-0.4 0.85l0.1 0.4-0.1-0.4q0-0.5 0.4-0.85l0.15-0.1m2.15 1.45-0.75-0.1q-0.75 0-1.3 0.3l-0.25 0.15 0.25-0.15q0.55-0.3 1.3-0.3l0.75 0.1m-0.2-1.25-0.1-0.1q-0.4-0.35-1-0.35l-0.7 0.15 0.7-0.15q0.6 0 1 0.35l0.1 0.1" fill="#f00" fill-rule="evenodd"/>
<path d="m278.85 203.5 0.05 0.35-0.2 0.5 0.15-0.85m8.35 14.35-0.15-0.1v-0.05l0.15 0.15" fill="#205e9b" fill-rule="evenodd"/>
<path d="m283.15 212.3 0.85-0.3 2.8-1.4 3.2-2.6 2.6-1.2q2.15-0.05 4.4 2.2l-0.4 1.2q-0.75 3.1-4.6 7.8l-5.6 4-5.7 2-0.4 0.05-4.15 0.45-1.45 0.1-6.05-0.85-4.45-1.55-4.2-3.2-3-3.4 1.8-2.6 2.2-2 3-1h4l0.95 0.3 1.3 3q-0.8 0-1.4 0.55-0.55 0.6-0.55 1.45t0.55 1.4l0.55 0.4v0.05q0 0.55 0.3 0.9l-0.15 0.1-0.4-0.65q-0.4-0.4-1-0.4t-1.05 0.4q-0.4 0.4-0.4 0.95t0.4 0.95l0.05 0.05 0.35 0.55q0.4 0.4 1 0.4l0.7-0.15-0.1 0.3q0 0.45 0.55 0.75l1.3 0.3 1.3-0.3 1-0.2 0.15 0.45q0.25 0.35 0.6 0.35t0.55-0.35l0.2-0.3 0.05-0.55-0.15-0.7h0.55l1.05-0.3 0.05 0.15 0.6 0.45 0.55-0.45 0.05-0.05 0.1-0.05 0.25 0.25 0.75 0.3v0.1l0.05 0.35-0.05 0.5q0 0.55 0.25 0.95 0.3 0.4 0.7 0.4l0.25-0.05 0.4-0.35 0.3-0.95-0.3-0.95-0.2-0.25 0.1-0.05 0.3-0.2 0.65-0.15 0.15 0.1 1.3 0.35 1.25-0.35q0.55-0.3 0.55-0.8t-0.55-0.85l-0.3-0.15 0.05-0.4q0-0.55-0.55-0.95-0.5-0.4-1.25-0.4h-0.15l-0.5-1.5 1.75-1.7 0.35-0.7m2.65 3.05q0 0.75 0.45 1.3t1.05 0.55h0.05q0.65 0 1.1-0.55t0.45-1.3-0.45-1.3-1.1-0.55-1.1 0.55-0.45 1.3m-21.8-0.15 0.8 0.2q0.65 0 1.1-0.45 0.5-0.45 0.5-1.05t-0.5-1.05q-0.45-0.45-1.1-0.45t-1.15 0.45q-0.45 0.45-0.45 1.05v0.05l-0.25-0.05-0.4 0.1-0.55-0.2-0.65 0.25q-0.25 0.3-0.25 0.7l0.25 0.65 0.65 0.3h0.15l0.05 0.05q0.25 0.3 0.65 0.35l0.15 0.35 0.55 0.25 0.5-0.25 0.25-0.55-0.25-0.6-0.05-0.05v-0.05m0.6 2.6-0.6 0.15-0.25 0.15q-0.35 0.35-0.35 0.85t0.35 0.8q0.35 0.35 0.85 0.35t0.85-0.35q0.35-0.3 0.35-0.8v-0.1l-0.35-0.75q-0.35-0.3-0.85-0.3m12.3 4 0.3-0.45-0.3-0.45-0.7-0.2-0.7 0.2q-0.3 0.2-0.3 0.45l0.3 0.45 0.7 0.2 0.7-0.2m13.55-11.4-0.4-0.1q-0.35 0-0.6 0.25l-0.25 0.65 0.25 0.6 0.2 0.2 0.2 0.45q0.3 0.35 0.65 0.35l0.6-0.35 0.3-0.85-0.3-0.85-0.6-0.35h-0.05m-3.25 7.45-0.15-0.15v0.05l0.15 0.1" fill="#ca7900" fill-rule="evenodd"/>
<path d="m269.4 217.1-0.55-0.4q-0.55-0.55-0.55-1.4t0.55-1.45q0.6-0.55 1.4-0.55l1.1 2.55-0.6-0.15q-0.55 0-0.95 0.4-0.4 0.45-0.4 1m3.2-0.05q0.35 0.35 0.9 0.35l0.45-0.05 0.2-0.1 0.25-0.25q0.4-0.35 0.4-0.85t-0.4-0.9v-0.1l0.6-0.05 0.55 0.05q-0.25 0.4-0.25 0.95 0 0.6 0.3 1.05l0.25 0.3 0.5 0.15q0.45 0 0.75-0.45l0.15-0.25 0.2 0.05 0.65 0.2-2.2 2.15q-0.4-0.4-0.4-0.95 0-0.5 0.35-0.9-0.35 0.4-0.35 0.9 0 0.55 0.4 0.95l-0.7 0.7h-0.35l-2.3-2.7 0.05-0.25m0.4 2.2 0.25 0.05 0.4 0.3-0.25 0.25-0.1 0.2-0.1-0.1-0.2-0.6v-0.1m8.65-0.35h0.05q0.75 0 1.25-0.4l0.5-0.55 0.3 0.15q0.55 0.35 0.55 0.85t-0.55 0.8l-1.25 0.35-1.3-0.35-0.15-0.1 0.25-0.25 0.35-0.5m4.15-3.55q0-0.75 0.45-1.3t1.1-0.55 1.1 0.55 0.45 1.3-0.45 1.3-1.1 0.55h-0.05q-0.6 0-1.05-0.55t-0.45-1.3m-22.6-1.4v-0.05q0-0.6 0.45-1.05 0.5-0.45 1.15-0.45t1.1 0.45q0.5 0.45 0.5 1.05t-0.5 1.05q-0.45 0.45-1.1 0.45l-0.8-0.2v-0.2l-0.3-0.8q-0.2-0.2-0.5-0.25m0.8 1.3 0.05 0.05 0.25 0.6-0.25 0.55-0.5 0.25-0.55-0.25-0.15-0.35h0.1q0.45 0 0.75-0.35l0.3-0.5m-1.85 0.45h-0.15l-0.65-0.3-0.25-0.65q0-0.4 0.25-0.7l0.65-0.25 0.55 0.2q-0.2 0.05-0.35 0.2-0.3 0.35-0.3 0.8l0.25 0.7m17.85 4.35 0.2 0.25 0.3 0.95-0.3 0.95-0.4 0.35-0.25 0.05q-0.4 0-0.7-0.4-0.25-0.4-0.25-0.95l0.05-0.5-0.05-0.35v-0.1h0.4l1-0.25m-3.1 1.75-0.7 0.2-0.7-0.2-0.3-0.45q0-0.25 0.3-0.45l0.7-0.2 0.7 0.2 0.3 0.45-0.3 0.45m-7.7-1.55-0.7 0.15q-0.6 0-1-0.4l-0.35-0.55 1 0.35 0.95-0.3 0.3 0.45-0.2 0.3m21.25-9.85h0.05l0.6 0.35 0.3 0.85-0.3 0.85-0.6 0.35q-0.35 0-0.65-0.35l-0.2-0.45-0.05-0.4q0-0.5 0.25-0.85 0.3-0.35 0.6-0.35" fill="#ff0" fill-rule="evenodd"/>
<path d="m280.7 224h-0.1l-0.3 0.05 0.4-0.05m-4.55 0.5-1.15 0.1h-0.3l1.45-0.1" fill="#72a5e2" fill-rule="evenodd"/>
<path d="m252.7 214.8q1.55 2.65 3.8 5.05 7.65 8.25 18.45 8.25t18.5-8.25q7.6-8.25 7.65-19.9-0.05-11.65-7.65-19.9-2.5-2.65-5.25-4.4-2.55-1.7-5.4-2.6l-2.35-0.65-5.5-0.55q-10.8-0.05-18.45 8.2-6.55 7.05-7.5 16.6-0.15 1.6-0.15 3.3-0.05 7.95 3.55 14.35" fill="none" stroke="#e32020" stroke-linecap="round" stroke-linejoin="round"/>
<path d="m267.15 219.45-0.05-0.05q-0.4-0.4-0.4-0.95t0.4-0.95q0.45-0.4 1.05-0.4t1 0.4l0.4 0.65 0.15-0.1q-0.3-0.35-0.3-0.9v-0.05q0-0.55 0.4-1 0.4-0.4 0.95-0.4l0.6 0.15-1.1-2.55m2.75 1.7 0.5-0.1 0.3 0.05m-0.8 0.05q-0.25 0.05-0.4 0.2l-0.05 0.05q-0.35 0.4-0.35 0.9t0.35 0.85l0.05 0.05q0.35 0.35 0.9 0.35l0.45-0.05 0.2-0.1 0.25-0.25q0.4-0.35 0.4-0.85t-0.4-0.9l-0.05-0.05q-0.25-0.2-0.55-0.25m-2.45 0.9 0.1 0.05 0.25 0.2 0.2 0.3 0.15 0.35 0.5 0.55 0.05-0.25m0.65 2.25-0.05-0.05q-0.7-0.7-0.7-1.7l0.05-0.25q-0.35 0.35-0.35 0.8 0 0.5 0.35 0.85l0.45 0.3 0.25 0.05 0.4 0.3 1 0.4h0.2l-2.3-2.7m-0.5-0.55 0.05 0.4q0 0.6-0.4 1l-0.2 0.2 0.3 0.75-0.1 0.5 0.55 0.2q0.55 0.3 0.55 0.75t-0.55 0.75l-1.3 0.3-1.3-0.3q-0.55-0.3-0.55-0.75l0.1-0.3 0.2-0.3 0.25-0.15q0.55-0.3 1.3-0.3l0.75 0.1m1.55 1.5-0.05-0.4 0.1-0.65 0.1-0.2 0.25-0.25m-2.2-3.7 0.6 0.85m3.5-1.6 0.05-0.1q0.3-0.45 0.75-0.45t0.75 0.45l0.3 1.05-0.05 0.5v0.05l0.1 0.3 0.65 0.2 0.2 0.15q0.5 0.45 0.5 1h0.1q0.05-0.55 0.4-0.9 0.3-0.3 0.75-0.35l0.35-0.45q0.5-0.35 1.15-0.4m-5.7 1.25-0.25-0.3q-0.3-0.45-0.3-1.05 0-0.55 0.25-0.95l-0.55-0.05-0.6 0.05-0.05 0.05m2.9 1.7-0.15 0.25q-0.3 0.45-0.75 0.45l-0.5-0.15q-0.35 0.4-0.35 0.9 0 0.55 0.4 0.95l2.2-2.15m-0.75-0.5-0.1 0.25 0.2 0.05m2.6 0.1 0.25-0.05q0.6 0 1 0.4t0.4 1l-0.05 0.5h0.05q0.75 0 1.25-0.4l0.5-0.55 0.05-0.4q0-0.55-0.55-0.95-0.5-0.4-1.25-0.4h-0.15m-17.55-1v0.05l-0.3 0.5q-0.3 0.35-0.75 0.35h-0.1q-0.4-0.05-0.65-0.35l-0.05-0.05-0.25-0.7q0-0.45 0.3-0.8 0.15-0.15 0.35-0.2l0.4-0.1 0.25 0.05q0.3 0.05 0.5 0.25l0.3 0.8v0.2m0.6 2.6q0.5 0 0.85 0.3l0.35 0.75v0.1q0 0.5-0.35 0.8-0.35 0.35-0.85 0.35t-0.85-0.35q-0.35-0.3-0.35-0.8t0.35-0.85l0.25-0.15 0.6-0.15m16.45 1.85-0.65 0.15-0.3 0.2-0.1 0.05-1 0.25h-0.4l-0.75-0.3-0.25-0.25-0.1 0.05-0.05 0.05-0.55 0.45-0.6-0.45-0.05-0.15-1.05 0.3h-0.35m5.55-0.2h-0.1q-0.6 0-1-0.4t-0.4-1v-0.1m2.75 0.6-0.35 0.5-0.25 0.25m-2.25-1.35v0.05q0 0.6-0.5 1l-0.7 0.4m-0.1 0.05h-0.35l-0.8-0.2-0.1 0.1m0.1-0.1-0.4-0.25-0.05-0.05-0.7 0.7m-0.55 0 0.15 0.7-0.05 0.55-0.2 0.3q-0.2 0.35-0.55 0.35t-0.6-0.35l-0.15-0.45m-4.15-1.6-0.1-0.4q0-0.5 0.4-0.85l0.15-0.1m-2.4 1.3 1 0.35 0.95-0.3 0.3 0.45m0.3-1.9 0.7-0.15q0.6 0 1 0.35l0.1 0.1" fill="none" stroke="#ff0" stroke-linecap="round" stroke-linejoin="round"/>
</g>
</defs>
</svg>
