<?xml version="1.0" encoding="UTF-8"?>
<svg version="1.1" viewBox="0 0 117.69 91.775" xmlns="http://www.w3.org/2000/svg" xmlns:cc="http://creativecommons.org/ns#" xmlns:dc="http://purl.org/dc/elements/1.1/" xmlns:rdf="http://www.w3.org/1999/02/22-rdf-syntax-ns#" xmlns:xlink="http://www.w3.org/1999/xlink">
<metadata>
<rdf:RDF>
<cc:Work rdf:about="">
<dc:format>image/svg+xml</dc:format>
<dc:type rdf:resource="http://purl.org/dc/dcmitype/StillImage"/>
</cc:Work>
</rdf:RDF>
</metadata>
<g transform="translate(-216.13 -154.5)">
<use transform="translate(216.15,154.5)" width="117.65" height="91.75" xlink:href="#a"/>
</g>
<defs>
<g id="a" transform="translate(-216.15,-154.5)">
<path d="m239.65 181.5q-0.25-0.6-0.05-1.45 0.45-1.05 1-0.45-0.4-3.25 0.25-3.45 0.6-0.15 1.2 1.65-0.4-5.3 1.4-1.2 0.7-2.45 1.55-1.1l1.1 2.05 0.3 0.8 0.1-0.4q-0.45-4.2 1.5-1.9 0.35-5.5 1.5-0.9 0.9-2 1.2-1.5l0.4 0.9 0.2 3.05q1.8-2.2 1.95 0.65-0.25-0.25-0.5-0.2-0.55 0.15-0.35 2.6-0.2-2.45 0.35-2.6 0.25-0.05 0.5 0.2l0.6 1.2 0.1 0.25-0.05-0.3q-0.3-4.85 1.45-0.9 0.7-2.45 1.55-1.1l0.35 0.6 0.75 1.45 0.3 0.8 0.1-0.4q-0.2-1.8 0.05-2.4 0.3-0.1 0.55-0.25l0.9 0.75 0.1-1.15q0.35-3.35 1.2-0.55l0.2 0.8 0.6-1.15q0.4-0.65 0.6-0.35l0.05 0.1 0.35 0.8 0.2 3.05q2.45-3 1.8 3.5 0.85-1.4 1.15-0.25l-1.15 0.6-0.8-0.85q-1.35-2.45-2.85-3.3-2.25-0.4-2.05 4.75-0.45-0.7-0.85-0.6l-1.75-2.25q-1.15-1.65-1.6-0.35l-0.1 0.45q-0.15 0.45-0.15 1.15l-0.85-0.2-0.4 0.3-0.3 0.1q-0.45 0.25-0.8 1.3l-0.95-0.45-0.15-0.6 0.1-0.85q0.45-1.05 1-0.45l-0.1-0.85-0.1-0.05-0.25-0.4q-1.2-2.1-2.6-2.9-2.25-0.4-2.05 4.75-0.45-0.7-0.85-0.6l-1.75-2.25q-1.6-2.35-1.85 1.25l-1.25 0.1q-0.6-0.1-1.1 1.4-0.55-0.3-0.95-0.45m-0.55 1.9-0.05-0.65 0.3 0.5-0.25 0.15m28.75 1.2-1.15-0.15 0.15-0.3q0.85-0.05 1 0.45m-0.6 1.8-0.15-0.15 0.3-0.1-0.15 0.25m-16.3-1.75 0.25 0.45 0.05 0.05-0.15 0.1-0.1 0.05-0.05-0.65" fill="#bdf850" fill-rule="evenodd"/>
<path d="m239.65 181.5q0.4 0.15 0.95 0.45 0.5-1.5 1.1-1.4 0.45 0.05 0.95 0.9 2.05-1.3 2.15-0.4v0.05q-1.4 0.55-1.6 2.2-0.4-1.15-1.35-1.5-0.6 0.65 0.2 1.7l-0.75-0.55q-0.7-0.4-1.4-0.45 0.1 0.65 0.8 1.1-1.25 0.35-1.15 0.65l1.65 0.35h0.05l-0.55 0.55-0.25 0.35q-0.45 0.65-0.4 1.3-1.25 0.25-0.7-1.05l0.3-0.7q-2.7-0.65-0.55-1.65l0.25-0.15-0.3-0.5q-1-1.85 0.6-1.25m6.9-0.05q0.4-0.1 0.85 0.6l0.1 0.15 0.05 0.05 0.35-0.2 1.05-0.45 0.2-0.05 0.3 0.35-0.3-0.35 0.05-0.1 0.2-0.1q0.45-0.05 1.65 0.6 0.55-1.6 1.25-1.35l0.1 0.05 0.1 0.85q-0.55-0.6-1 0.45l-0.1 0.85-1.05-0.3q0.05 0.45 0.4 0.8l0.8 0.1 0.95 0.45q0.35-1.05 0.8-1.3l0.3-0.1 0.25 0.1 0.7 0.8q0.75-0.5 1.25-0.65l0.1-0.05q0.7-0.25 0.8 0.3v0.05l-0.1 0.05-0.75 0.5h-0.05q-0.3 0.3-0.45 0.75l-0.05 0.15-0.2 0.7v0.05l-0.05-0.2-0.6-0.9-0.7-0.4q-0.6 0.65 0.2 1.7l-0.75-0.55q-0.7-0.4-1.4-0.45 0.1 0.65 0.8 1.1-1.25 0.35-1.15 0.65l0.25 0.2 0.25 0.05 1.15 0.1h0.05l-0.55 0.55-0.25 0.35q-0.45 0.65-0.4 1.3-1.5 0.35-0.4-1.75l-0.8-0.25-0.25-0.1h-0.05 0.05v0.2h-0.05v-0.2q-0.6-0.35-0.3-0.75 0.2-0.25 0.85-0.55-0.65 0.3-0.85 0.55l-0.25-0.35 0.1-0.25 0.1-0.2-0.65-0.2 0.95-0.35 0.5 0.05 0.05 0.1-0.2-0.4-0.15-0.45v-0.25l-0.95-0.2 0.15-0.1-0.4-0.75 0.05-0.6-0.25 0.15q-1.05 0.55-1.15 1.9-0.4-1.1-1.25-1.35-0.55 0.55 0.15 1.5l-0.65-0.45-0.6-0.3-0.55-0.1-0.1-0.05v0.1l0.15 0.35 0.35 0.4 0.2 0.15q-0.6 0.15-0.85 0.35l-0.2 0.25 0.6 0.25 0.95 0.1-0.55 0.55-0.5 1-0.05 0.4q-0.9 0.2-0.75-0.55l0.25-0.65 0.15-0.35q-2.2-0.55-0.9-1.35l0.4-0.2 0.25-0.1-0.2-0.3q-0.95-1.65 0.15-1.4l1.2 0.5q0.35-1.2 0.85-1.25m11.9 1.9q0.4-0.1 0.85 0.6l0.15 0.2q1.15-0.75 1.6-0.7l0.3 0.35-0.3-0.35q0.15-0.55 1.9 0.4 0.55-1.6 1.25-1.35l0.8 0.85 1.15-0.6q0.9-0.4 1 0.2v0.05q-0.55 0.2-0.9 0.6-0.55 0.55-0.7 1.55v0.05l-0.05-0.15-0.5-0.8-0.8-0.55q-0.6 0.65 0.2 1.7-1.1-0.9-2.15-1 0.1 0.65 0.8 1.1l-0.25 0.1-0.1-0.1-1.15-0.25 0.15-0.1-0.4-0.75 0.05-0.6-0.25 0.15q-1.05 0.55-1.15 1.9-0.4-1.1-1.25-1.35-0.55 0.55 0.15 1.5l-0.65-0.45-0.6-0.3-0.65-0.15 0.15 0.45 0.35 0.4 0.2 0.15q-0.6 0.15-0.85 0.35-0.25 0.1-0.2 0.25l0.6 0.25 0.95 0.1-0.55 0.55-0.5 1-0.05 0.4q-0.9 0.2-0.75-0.55l0.25-0.65 0.15-0.35q-1.35-0.35-1.35-0.8-0.05-0.25 0.45-0.55l0.4-0.2h0.05l0.2-0.1q-1.25-1.95-0.05-1.7l1.2 0.5q0.35-1.2 0.85-1.25m3.85 3.05 1.3 0.1-0.6 0.6q-0.7 0.8-0.6 1.6h-0.05q0.1-0.4-0.55-1.3l0.1-0.25 0.1-0.2-0.65-0.2 0.95-0.35m-11.3-1.1 0.1-0.05 0.15-0.1-0.05-0.05-0.25-0.45 0.05 0.65m-0.4-1.75q0-0.2 0.15-0.25-0.15 0.05-0.15 0.25" fill="#bbfa47" fill-rule="evenodd"/>
<path d="m241.7 180.55 1.25-0.1q0.25-3.6 1.85-1.25l1.75 2.25q-0.5 0.05-0.85 1.25l-1.2-0.5q-1.1-0.25-0.15 1.4l0.2 0.3-0.25 0.1-0.45 0.15 0.05 0.05q-1.3 0.8 0.9 1.35l-0.15 0.35q-1-0.45-1.8-0.5 0.25 1.2-0.25 1.9-0.5-0.15-1.25-1.05l-1.3 0.55q-0.05-0.65 0.4-1.3l0.25-0.35 0.55-0.55h-0.05l-1.65-0.35q-0.1-0.3 1.15-0.65-0.7-0.45-0.8-1.1 0.7 0.05 1.4 0.45l0.75 0.55q-0.8-1.05-0.2-1.7 0.95 0.35 1.35 1.5 0.2-1.65 1.6-2.2v-0.05q-0.1-0.9-2.15 0.4-0.5-0.85-0.95-0.9m5.7 1.5q-0.2-5.15 2.05-4.75 1.4 0.8 2.6 2.9l0.25 0.4q-0.7-0.25-1.25 1.35-1.2-0.65-1.65-0.6l-0.2 0.1-0.05 0.1-0.2 0.05-1.05 0.45-0.35 0.2-0.05-0.05-0.1-0.15m-2.6-0.95-0.3 1.1 0.3-1.1m0.35 6 0.05-0.4 0.5-1 0.55-0.55-0.95-0.1-0.6-0.25 0.2-0.25q0.25-0.2 0.85-0.35l-0.2-0.15-0.35-0.4-0.15-0.35v-0.1l0.1 0.05 0.55 0.1 0.6 0.3 0.65 0.45q-0.7-0.95-0.15-1.5 0.85 0.25 1.25 1.35 0.1-1.35 1.15-1.9l0.25-0.15-0.05 0.6-0.3 0.75 0.55 0.1-0.55-0.1 0.3-0.75 0.4 0.75-0.15 0.1 0.95 0.2v0.25l-0.6 0.35-1.1 0.45-0.25 0.1 0.45 0.55 0.55 1.05v0.2-0.05q-1.1-0.55-1.95-0.6 0.2 1.1-0.25 1.7l-1.1-0.9-1.2 0.45m6.25-4.3 0.15 0.6-0.8-0.1q-0.35-0.35-0.4-0.8l1.05 0.3m2.2-0.35 0.4-0.3 0.85 0.2q0-0.7 0.15-1.15l0.1-0.45q0.45-1.3 1.6 0.35l1.75 2.25q-0.5 0.05-0.85 1.25l-1.2-0.5q-1.2-0.25 0.05 1.7l-0.2 0.1h-0.05l-0.45 0.15 0.05 0.05q-0.5 0.3-0.45 0.55 0 0.45 1.35 0.8l-0.15 0.35q-1-0.45-1.8-0.5 0.25 1.2-0.25 1.9-0.5-0.15-1.25-1.05l-1.3 0.55q-0.05-0.65 0.4-1.3l0.25-0.35 0.55-0.55h-0.05l-1.15-0.1-0.25-0.05-0.25-0.2q-0.1-0.3 1.15-0.65-0.7-0.45-0.8-1.1 0.7 0.05 1.4 0.45l0.75 0.55q-0.8-1.05-0.2-1.7l0.7 0.4 0.6 0.9 0.05 0.2v-0.05l0.2-0.7 0.05-0.15q0.15-0.45 0.45-0.75h0.05l0.75-0.5 0.1-0.05-0.15 0.75-0.15 0.35 0.15-0.35 0.15-0.75v-0.05q-0.1-0.55-0.8-0.3l-0.1 0.05q-0.5 0.15-1.25 0.65l-0.7-0.8-0.25-0.1m5.7 1.5q-0.2-5.15 2.05-4.75 1.5 0.85 2.85 3.3-0.7-0.25-1.25 1.35-1.75-0.95-1.9-0.4-0.45-0.05-1.6 0.7l-0.15-0.2m9.3 0.9-0.9 0.6-1.5 0.6 0.75 0.85 0.4 1.1q-1.2-0.65-2.15-0.7 0.25 1.2-0.25 1.9l-1.25-1.05-1.3 0.55q-0.1-0.8 0.6-1.6l0.6-0.6-1.3-0.1q0.95-0.5 0.5-0.8l0.25-0.1q-0.7-0.45-0.8-1.1 1.05 0.1 2.15 1-0.8-1.05-0.2-1.7l0.8 0.55 0.5 0.8 0.05 0.15v-0.05q0.15-1 0.7-1.55 0.35-0.4 0.9-0.6l-0.3 1.15-0.15 0.3 1.15 0.15 0.75 0.25m-5.9 0.65-0.2 0.2-0.6 0.35-1.1 0.45-0.25 0.1 0.45 0.55 0.55 1.05v0.2-0.05l-1.95-0.6q0.2 1.1-0.25 1.7-0.4-0.15-1.1-0.9l-1.2 0.45 0.05-0.4 0.5-1 0.55-0.55-0.95-0.1-0.6-0.25q-0.05-0.15 0.2-0.25 0.25-0.2 0.85-0.35l-0.2-0.15-0.35-0.4-0.15-0.45 0.65 0.15 0.6 0.3 0.65 0.45q-0.7-0.95-0.15-1.5 0.85 0.25 1.25 1.35 0.1-1.35 1.15-1.9l0.25-0.15-0.05 0.6 0.4 0.75-0.15 0.1 1.15 0.25m-1.1 1.65-0.25-0.35v-0.05l0.65 0.2-0.1 0.2h-0.3m-0.3-2.75-0.3 0.75 0.55 0.1-0.55-0.1 0.3-0.75m-10.8 2.2 0.25 0.1-0.25 0.1v-0.2m0.25-2.35 0.15 0.3-0.5-0.05 0.35-0.25m-1.3 0.6 0.65 0.2-0.1 0.2h-0.3l-0.25-0.35v-0.05" fill="#8ed807" fill-rule="evenodd"/>
<path d="m253.85 179.45 0.05-0.05 0.05 0.3-0.1-0.25m3.4-1.45 1.2-0.55q-0.25 0.6-0.05 2.4l-0.1 0.4-0.3-0.8-0.75-1.45m1.75-0.8 1-0.4-0.1 1.15-0.9-0.75m2.2-0.95 0.8-0.35-0.6 1.15-0.2-0.8m1.45-0.6 17.6-7.65 1.35 6.35q1.4 0.9 2.9 1.45 4.55 1.7 9.95-0.1l1.3-7.55q2.85 0.15 6.05-0.9l0.8-4.55q9.3 2.35 13.6 8.35l-22.25 9.1q-5.7 2.3-11.35 4.65-1.9-3.3-5-5-3.9-2.15-9.75-1.9 2.95 1.8 4.7 3.85-1.75-2.05-4.7-3.85 5.85-0.25 9.75 1.9l-5.05 1.95q3.2 3.6 2.5 7.85l-29.85 14.05q-3.7-5.35-8.45-8-3.25-1.85-7-2.5-3.4-0.55-7.15-0.15 3.75-0.4 7.15 0.15 3.75 0.65 7 2.5l-19.2 7.45q0.9-7.25 5.05-10.1l16.75-7.25q-0.55 1.3 0.7 1.05l1.3-0.55q0.75 0.9 1.25 1.05h0.05q0.65 0.2 0.7-1.1l1.05 0.35q-0.15 0.75 0.75 0.55l1.2-0.45 1.1 0.9 0.05 0.05q0.6 0.15 0.65-1 2.1 0.75 2.3 0.2h0.05l0.25-0.1 0.8 0.25q-1.1 2.1 0.4 1.75l1.3-0.55q0.75 0.9 1.25 1.05h0.05q0.65 0.2 0.7-1.1l1.05 0.35q-0.15 0.75 0.75 0.55l1.2-0.45q0.7 0.75 1.1 0.9l0.05 0.05q0.6 0.15 0.65-1l2.3 0.2h0.05l1.3-0.55 1.25 1.05h0.05q0.65 0.2 0.7-1.1 4.15 1.55 1.55-1.7l0.15-0.25q2.15-0.9 1.2-1.3l-0.75-0.25q-0.15-0.5-1-0.45l0.3-1.15v-0.05q-0.1-0.6-1-0.2-0.3-1.15-1.15 0.25 0.65-6.5-1.8-3.5l-0.2-3.05-0.35-0.8m-0.85 11.75-0.2-0.25h0.3l-0.1 0.25m-11.8-2.15-0.1 0.25-0.2-0.25h0.3" fill="#630" fill-rule="evenodd"/>
<path d="m280.15 167.55-0.4-1.9h0.6q0.2 0.6 1.6 1.4l0.25 0.1q1.5 0.7 5.9 1.25 2.7 0.35 4.9-0.65 1.6-0.8 2.9-2.25-1.65-0.75-3.1-1.2l-0.2-1.65-0.8-2-4.3-1.55-0.4-1.9h0.6l0.65 0.75 0.95 0.65q1.4 0.75 6.15 1.35 4.05 0.5 6.9-2l0.9-0.9h0.3l-0.95 5.65-0.8 4.55q-3.2 1.05-6.05 0.9l-1.3 7.55q-5.4 1.8-9.95 0.1 1.9-3.35-0.05-6.7l-4.3-1.55m16.05-2.05-0.45 2.65 0.45-2.65" fill="#775900" fill-rule="evenodd"/>
<path d="m280.35 165.65-0.2-0.05q3.05-2.9 8.25-2.3 2.05 0.2 4.4 1 1.45 0.45 3.1 1.2-1.3 1.45-2.9 2.25-2.2 1-4.9 0.65-4.4-0.55-5.9-1.25l-0.25-0.1q-1.4-0.8-1.6-1.4m7.35-8.45-0.2-0.05q5.05-4.75 15.75-0.1l-0.9 0.9q-2.85 2.5-6.9 2-4.75-0.6-6.15-1.35l-0.95-0.65-0.65-0.75" fill="#664d00" fill-rule="evenodd"/>
<path d="m280.25 168-0.1-0.45 4.3 1.55q1.95 3.35 0.05 6.7-1.5-0.55-2.9-1.45l-1.35-6.35m8.15-4.7-0.9-4.2 4.3 1.55 0.8 2 0.2 1.65q-2.35-0.8-4.4-1" fill="#b08500" fill-rule="evenodd"/>
<path d="m293.95 180.15q2.25 3.35 5.45 5.85l-76.8 35.55-4.45-3.85q-1.4-8.75-0.6-14.6l19.2-7.45q4.75 2.65 8.45 8l29.85-14.05q0.7-4.25-2.5-7.85l5.05-1.95q3.1 1.7 5 5 5.65-2.35 11.35-4.65m11.3 9.25 2.05 0.85-68.5 43.2-7.95-5.4 74.4-38.65" fill="#402000" fill-rule="evenodd"/>
<path d="m299.4 186q2.6 1.95 5.85 3.4l-74.4 38.65-1.1-0.8-7.15-5.7 76.8-35.55m7.9 4.25q4.25 1.55 9.45 2.25l15.95-9.8q-0.55 14.55-7.9 24.05l-61.05 38.4q-12.35-3.7-24.95-11.7l68.5-43.2m9.45 2.25-9.6 4.95q-2.85 12.45-14.75 25.9l5.65-16.6-29.15 18.5q3.85 8.9-5.15 19.9 9-11 5.15-19.9l29.15-18.5-5.65 16.6q11.9-13.45 14.75-25.9l9.6-4.95" fill="#422611" fill-rule="evenodd"/>
<path d="m244.3 184-0.4 0.2-0.05-0.05 0.45-0.15m0.35 1.9-0.25 0.65-1.05-0.35q-0.05 1.3-0.7 1.1h-0.05q0.5-0.7 0.25-1.9 0.8 0.05 1.8 0.5m9.85 3.3q0.5-0.7 0.25-1.9 0.8 0.05 1.8 0.5l-0.25 0.65-1.05-0.35q-0.05 1.3-0.7 1.1h-0.05m1.3-3.1-0.05-0.05 0.45-0.15-0.4 0.2m9.15 3.1q0.5-0.7 0.25-1.9 0.95 0.05 2.15 0.7l-0.4-1.1-0.75-0.85 1.5-0.6 0.9-0.6q0.95 0.4-1.2 1.3l-0.3 0.1 0.15 0.15q2.6 3.25-1.55 1.7-0.05 1.3-0.7 1.1h-0.05m-2.15-3.6q0.45 0.3-0.5 0.8l-0.95 0.35v0.05l0.25 0.35 0.2 0.25q0.65 0.9 0.55 1.3l-2.3-0.2q-0.05 1.15-0.65 1l-0.05-0.05q0.45-0.6 0.25-1.7l1.95 0.6v0.05-0.2l-0.55-1.05-0.45-0.55 0.25-0.1 1.1-0.45 0.6-0.35 0.2-0.2 0.1 0.1m-15.35 1.95q0.45-0.6 0.25-1.7 0.85 0.05 1.95 0.6v0.05-0.2l-0.55-1.05-0.45-0.55 0.25-0.1 1.1-0.45 0.6-0.35 0.15 0.45-0.35 0.25-0.95 0.35v0.05l0.25 0.35 0.2 0.25 0.25 0.35q-0.3 0.4 0.3 0.75v0.2q-0.2 0.55-2.3-0.2-0.05 1.15-0.65 1l-0.05-0.05" fill="#7ab906" fill-rule="evenodd"/>
<path d="m253.25 178.25q-0.15-2.85-1.95-0.65l-0.2-3.05-0.4-0.9q-0.3-0.5-1.2 1.5-1.15-4.6-1.5 0.9-1.95-2.3-1.5 1.9l-0.1 0.4-0.3-0.8-1.1-2.05q-0.85-1.35-1.55 1.1-1.8-4.1-1.4 1.2-0.6-1.8-1.2-1.65-0.65 0.2-0.25 3.45-0.55-0.6-1 0.45-0.2 0.85 0.05 1.45m12.75-0.85q-0.2-2.45 0.35-2.6 0.25-0.05 0.5 0.2l0.6 1.2m0.05-0.05q-0.3-4.85 1.45-0.9 0.7-2.45 1.55-1.1l0.35 0.6m1.2-0.55q0.3-0.1 0.55-0.25m1-0.4q0.35-3.35 1.2-0.55m0.8-0.35q0.4-0.65 0.6-0.35l0.05 0.1m-23.55 7.75-0.05-0.65m13.35-2.1 0.1 0.85q-0.55-0.6-1 0.45l-0.1 0.85 0.15 0.6m14.6-0.65q-0.3-1.15-1.15 0.25 0.65-6.5-1.8-3.5l-0.2-3.05-0.35-0.8m-0.65 0.25-0.6 1.15-0.2-0.8m-7.3 3.15 0.05 0.3-0.1-0.25m4.6-2q-0.25 0.6-0.05 2.4l-0.1 0.4-0.3-0.8-0.75-1.45m2.75-1.2-0.1 1.15-0.9-0.75m8.25 9.2 0.15-0.25m0.45-1.55q-0.15-0.5-1-0.45m-15.9 0.5 0.05 0.65" fill="none" stroke="#89ce09" stroke-linecap="round" stroke-linejoin="round" stroke-width=".5"/>
<path d="m239.65 181.5q0.4 0.15 0.95 0.45 0.5-1.5 1.1-1.4m4.85 0.9q0.4-0.1 0.85 0.6m4.9-1.45 0.1 0.05m-13.05 5.1 0.3-0.7q-2.7-0.65-0.55-1.65m-0.05-0.65q-1-1.85 0.6-1.25m5.15-0.4v-0.05q-0.1-0.9-2.15 0.4-0.5-0.85-0.95-0.9m2.8 1.65 0.3-1.1m1.75 0.35q-0.5 0.05-0.85 1.25l-1.2-0.5q-1.1-0.25-0.15 1.4l0.2 0.3-0.25 0.1-0.4 0.2q-1.3 0.8 0.9 1.35l-0.15 0.35-0.25 0.65q-0.15 0.75 0.75 0.55l1.2-0.45 1.1 0.9m2-5.65-0.3-0.35-0.2 0.05-1.05 0.45-0.35 0.2-0.05-0.05-0.1-0.15m4.9-1.45q-0.7-0.25-1.25 1.35-1.2-0.65-1.65-0.6l-0.2 0.1-0.05 0.1m0.25 0.95 0.05-0.6m2.1 1.5 0.95 0.45q0.35-1.05 0.8-1.3l0.3-0.1m4.85 0.9q0.4-0.1 0.85 0.6m4.9-1.45 0.8 0.85 1.15-0.6m-15.4 0.55 0.8 0.1m5.15-0.4v-0.05q-0.1-0.55-0.8-0.3l-0.1 0.05q-0.5 0.15-1.25 0.65l-0.7-0.8-0.25-0.1m-1.65 6.25 1.3-0.55q0.75 0.9 1.25 1.05m2.05-1.4 0.15-0.35q-1.35-0.35-1.35-0.8-0.05-0.25 0.45-0.55m0.4-0.2h0.05l0.2-0.1q-1.25-1.95-0.05-1.7l0.15-0.35 0.15-0.75m10.45 0v-0.05q-0.1-0.6-1-0.2m2.45 2.1-0.75-0.25-1.15-0.15 0.15-0.3 0.3-1.15m-4.35 2.6q0.45 0.3-0.5 0.8m0.1 2.3 1.3-0.55 1.25 1.05m0.05 0q0.65 0.2 0.7-1.1 4.15 1.55 1.55-1.7l-0.15-0.15 0.3-0.1q2.15-0.9 1.2-1.3m-5.8 0.75-0.1-0.1m-3.3 4q0.6 0.15 0.65-1l2.3 0.2q0.1-0.4-0.55-1.3l-0.2-0.25-0.25-0.35v-0.05l0.95-0.35m-0.95-2.6-0.3-0.35q-0.45-0.05-1.6 0.7l-0.15-0.2m2.05-0.15-0.05 0.6 0.4 0.75-0.15 0.1 1.15 0.25m-5.65 3.5 1.2-0.45q0.7 0.75 1.1 0.9m2.2-4.2-0.55-0.1 0.3-0.75m-2.85-1.05q-0.5 0.05-0.85 1.25l-1.2-0.5m5.5 3.05-0.1 0.25m-0.45-0.65 0.65 0.2-0.1 0.2m0.45 1.55h0.05m-6.2-2.8-0.4 0.2m-1.25 3.1q0.65 0.2 0.7-1.1l1.05 0.35 0.25-0.65m-0.25 0.65q-0.15 0.75 0.75 0.55m7.15-6.5q-0.7-0.25-1.25 1.35-1.75-0.95-1.9-0.4m-10.45 0.35v-0.25l-0.95-0.2-0.55-0.1 0.3-0.75 0.4 0.75-0.15 0.1m1.25 1.2 0.05 0.1 0.25 0.45 0.05 0.05-0.15 0.1-0.1 0.05q-0.65 0.3-0.85 0.55-0.3 0.4 0.3 0.75h0.05l0.25 0.1 0.8 0.25q-1.1 2.1 0.4 1.75m-1.2-4.45 0.15 0.3m-0.5-0.05-0.95 0.35 0.65 0.2-0.1 0.2-0.1 0.25 0.25 0.35m0.45-2.05 0.15 0.45-0.35 0.25m0.35-1.2q-0.15 0.05-0.15 0.25m-0.9 1.7-0.25-0.35v-0.05m0.45 0.65-0.2-0.25m-2.2 2.35q0.6 0.15 0.65-1 2.1 0.75 2.3 0.2v-0.2m0 0.2h0.05l0.25-0.1m-8.1 0.6q0.65 0.2 0.7-1.1l1.05 0.35m-5.35-3.8 0.3 0.5-0.25 0.15m0.95 3.4 1.3-0.55q0.75 0.9 1.25 1.05m-3.25-1.55q-0.55 1.3 0.7 1.05" fill="none" stroke="#6aa005" stroke-linecap="round" stroke-linejoin="round" stroke-width=".5"/>
<path d="m253.85 179.45 0.05-0.05m3.35-1.4 1.2-0.55m0.55-0.25 1-0.4m1.2-0.55 0.8-0.35m0.65-0.25 17.6-7.65m22.35-5.3q9.3 2.35 13.6 8.35l-22.25 9.1q2.25 3.35 5.45 5.85 2.6 1.95 5.85 3.4l2.05 0.85q4.25 1.55 9.45 2.25l15.95-9.8q-0.55 14.55-7.9 24.05l-61.05 38.4q-12.35-3.7-24.95-11.7l-7.95-5.4-1.1-0.8-7.15-5.7-4.45-3.85q-1.4-8.75-0.6-14.6 0.9-7.25 5.05-10.1l16.75-7.25m38.25-5.95q-3.9-2.15-9.75-1.9 2.95 1.8 4.7 3.85m5.05-1.95q3.1 1.7 5 5 5.65-2.35 11.35-4.65m-30.2 65q9-11 5.15-19.9l29.15-18.5-5.65 16.6q11.9-13.45 14.75-25.9l9.6-4.95m-80 3.15q4.75 2.65 8.45 8l29.85-14.05q0.7-4.25-2.5-7.85m-49.95 11.25q3.75-0.4 7.15 0.15 3.75 0.65 7 2.5" fill="none" stroke="#9b4e00" stroke-linecap="round" stroke-linejoin="round" stroke-width="2.25"/>
<path d="m303.25 157.05-0.9 0.9q-2.85 2.5-6.9 2-4.75-0.6-6.15-1.35l-0.95-0.65-0.65-0.75m8.2 8.3q-1.3 1.45-2.9 2.25-2.2 1-4.9 0.65-4.4-0.55-5.9-1.25l-0.25-0.1q-1.4-0.8-1.6-1.4" fill="none" stroke="#664d00" stroke-linecap="round" stroke-linejoin="round" stroke-width=".5"/>
<path d="m280.25 168-0.1-0.45-0.4-1.9h0.6l-0.2-0.05q3.05-2.9 8.25-2.3l-0.9-4.2-0.4-1.9h0.6l-0.2-0.05q5.05-4.75 15.75-0.1m0.3 0-0.95 5.65-0.8 4.55q-3.2 1.05-6.05 0.9l0.45-2.65m-7.8-2.2q2.05 0.2 4.4 1 1.45 0.45 3.1 1.2m-11.4 10.3q4.55 1.7 9.95-0.1l1.3-7.55m-11.25 7.65q-1.5-0.55-2.9-1.45l-1.35-6.35" fill="none" stroke="#4f3c00" stroke-linecap="round" stroke-linejoin="round" stroke-width=".5"/>
<path d="m261.9 187.15h-0.3m-11.9-1.9h0.3" fill="none" stroke="#8ed807" stroke-linecap="round" stroke-linejoin="round" stroke-width=".5"/>
</g>
</defs>
</svg>
