<?xml version="1.0" encoding="UTF-8"?>
<svg version="1.1" viewBox="0 0 149.42 143.35" xmlns="http://www.w3.org/2000/svg" xmlns:cc="http://creativecommons.org/ns#" xmlns:dc="http://purl.org/dc/elements/1.1/" xmlns:rdf="http://www.w3.org/1999/02/22-rdf-syntax-ns#" xmlns:xlink="http://www.w3.org/1999/xlink">
<metadata>
<rdf:RDF>
<cc:Work rdf:about="">
<dc:format>image/svg+xml</dc:format>
<dc:type rdf:resource="http://purl.org/dc/dcmitype/StillImage"/>
</cc:Work>
</rdf:RDF>
</metadata>
<g transform="translate(-99.829 -80.726)">
<use transform="translate(99.85,80.7)" width="149.39999" height="143.39999" xlink:href="#a"/>
</g>
<defs>
<g id="a" transform="translate(74.7,71.7)">
<use transform="translate(-74.7,-71.7)" width="149.39999" height="143.39999" xlink:href="#b"/>
</g>
<g id="b" transform="translate(74.7,71.7)">
<path d="m45-6.05-0.15 0.15-2.4-1-4.45-1.05-2.3-0.55-2.15-0.55-2.55-0.7-1.6-0.55q-2.5-1-4.9-2.3-1.3-0.7-2.75-0.8-1.4-0.15-2.7-1.05l-1.75-0.9q-2.95-1.05-5.3-3.3l-3.4-3.35-1.35-1.35q-2.7-3-4.8-6.65-0.45-0.75-0.75-1.65-1.35-4.15-2.15-8.6l-0.35-2.05q-1-5.75-0.55-11.5l0.2-3.55 0.15-1.6 0.9-1.5q7.95-12.6 16-10.4 8.05 2.15 0.1 8.4 0.45-3-0.8-4.55-4.4-4.6-9.8 3.6-16.1 27.6 18.35 45.5 12.05 5.7 21.25 11.85m-44.85-8.85q1.45 2.75 5.75 7.4l0.75 0.65q-13.25-6.2-25.8-0.4-3.75 1.8-7.2 6-4.15 7.9-9.75 13.55l-7.55 3.85-2.85 0.15-6.15-0.1q14.2-1.3 23.2-16.25 6.9-14.95 29.6-14.85m-23.65 34.9q3.3-1.35 6.1-3.5 5.35-3.4 11.45-1.65 2.75 0.4 5.5 1.3l-1.55 0.15-2.9 0.65-0.55 0.15-1.7-0.3-1.55-0.2q-0.65-0.15-1.35 0l-1.55 0.4q-5.6 1.6-9.4 6.3l-2 2.35q-0.95 1.1-1.5 2.4-1.35 3.3-3.25 6.2l-1.8 2.65-1.45 1.5-1.3 1.05-8.15 7.8-1.85 1.15q-1.45 0.6-2.75 1.65l-3.2 2.7q-1.25 1.15-2.95 1.75-1.35 0.5-2.6 1.3l-11.3-0.55q-10.55-2.6-8.9-7.15 2.65-6.3 7.55-3-5.9 2.05-3.6 5.1 8.5 10.85 31.6-7.55 4.85-4.35 6.35-9.6 3.25-8.1 8.6-13.05" fill="#e3953b" fill-rule="evenodd"/>
<path d="m-1-58.95-0.15 1.6-0.2 3.55q-0.45 5.75 0.55 11.5l0.35 2.05q0.8 4.45 2.15 8.6 0.3 0.9 0.75 1.65 2.1 3.65 4.8 6.65l1.35 1.35 3.4 3.35q2.35 2.25 5.3 3.3l1.75 0.9q1.3 0.9 2.7 1.05 1.45 0.1 2.75 0.8 2.4 1.3 4.9 2.3l1.6 0.55 2.55 0.7 2.15 0.55 2.3 0.55 4.45 1.05 2.4 1 0.15-0.15 4.05 2.8 0.45 0.35q11.2 8.25 17.3 17.4 1.9 6.25 1.9 11.8v0.05q0 4.5-1.3 8.55l-0.5-1q-2-3.95-4.3-7.3l-0.35-0.45 0.15-0.15q-1.6-5.95-4.85-11.1-1.85-2.9-4.5-4.95l-10.15-7.7-4.55-3.3q-3.95-2.75-8.35-4.65l-6.5-2.55h-0.05v0.05l3.65 2.2q5.1 3.1 9 7.45l2.7 2.85 2.45 2.8 4.45 5q-2-0.95-4.1-1.7 3.4 3.25 6.15 6.6 7.15 8.75 9.9 18.3 3.8 13.25 0.2 17.2-0.7-5.75-3.05-10.7l-0.05-0.2q-0.9-5.7-3.15-11.1l-0.9-1.8-5.7-9.7q-2.95-4.75-6.5-9.05l-1.1-0.95-2.15-1.7-0.9-0.85q-3.2-3.25-7.05-5.6l-1.55-1.3-5.15-4.9-2.45-1.85q-3.25-2.35-5.85-5.4-1.8-2.15-4-3.95l-1.7-1.75-1.9-2.5-1.55-2.45-1.65-3.15-1.3-2.95q-1.95-5.05-3.25-10.3-1.4-5.7-1.1-11.8l0.05-0.1q1.15-3.95 3.1-7.4m7.65 52.1 9.4 8.55q-3.35-0.2-6.35-1.35-5.25-2.1-10.8-3.35-5.6-1.25-11.4-0.7l-3.25 0.4q-5.05 0.7-9.55 2.85l-1.6 1 7.35 0.6 4.7 0.6 4.6 1 4.2 1.2q4 1.15 7.85 2.8l0.2 0.25q-3.45 2.55-1.3 4.1 0.75 0.5 2.1 0.9 4.2-0.1 5.3-2.1l2.85 1.75q3.55 2.15 5.35 5.85l0.7 1.8 0.15 0.55q-1.45-0.15-2.8-1.25l-1.6-1.15q-3.3-2.1-7-3.4-0.8-0.3-1.6-0.8l-3.55-2-2-0.8-4.45-1.85q-0.5-0.25-1.1-0.4l-7.9 0.25-6.75 1.5-2.3 0.65-0.35 0.1q-5.25 1-10.25 3.35-1 0.5-2 0.7l-1.55 0.35-5.6 1.05 7.55-3.85q5.6-5.65 9.75-13.55 3.45-4.2 7.2-6 12.55-5.8 25.8 0.4m-60.45 62.65q1.25-0.8 2.6-1.3 1.7-0.6 2.95-1.75l3.2-2.7q1.3-1.05 2.75-1.65l1.85-1.15 8.15-7.8 1.3-1.05 1.45-1.5 1.8-2.65q1.9-2.9 3.25-6.2 0.55-1.3 1.5-2.4l2-2.35q3.8-4.7 9.4-6.3l1.55-0.4q0.7-0.15 1.35 0l1.55 0.2 1.7 0.3-2.65 0.85q-5.75 2.1-10 6.35l3.75-1.8q2.85-1.3 5.95-1.9l2.55-0.55 3.3-0.15q3 0.35 5.9 1.35 4.05 1.45 7.25 4.25l5.35 4.25q2.8 2 4.45 4.85l0.55 1.05 0.05 0.4 1.8 3.55 0.45 1.1 0.75 3.25-1.6-1.1-0.85-0.6h-0.05l-0.65-0.4-6.6-6.8-2.45-2.25q-4.8-3.65-10.85-4.35l-3.2-0.3-3.9 0.4-6.3 1.8q-1.2 0.4-2.3 1.1l-1.4 0.8-2.2 0.95q-1.7 0.6-3.25 1.65-4.45 2.95-8.3 6.6l-2.2 1.95q-4.3 3.6-9.15 6.4t-9.95 5.25l-1.2 0.55-1.4 0.2" fill="#e3791e" fill-rule="evenodd"/>
<path d="m-4.1-51.55-0.05 0.1q-0.3 6.1 1.1 11.8 1.3 5.25 3.25 10.3l1.3 2.95 1.65 3.15 1.55 2.45 1.9 2.5 1.7 1.75q2.2 1.8 4 3.95 2.6 3.05 5.85 5.4l2.45 1.85 5.15 4.9 1.55 1.3q3.85 2.35 7.05 5.6l0.9 0.85 2.15 1.7 1.1 0.95q3.55 4.3 6.5 9.05l5.7 9.7 0.9 1.8q2.25 5.4 3.15 11.1l-0.05 0.05q-4.45-9.2-14.6-15.75l-0.65-0.4-0.15-0.15-7.5-8.2q-6.9-7.2-15.75-15.45 8.85 8.25 15.75 15.45-14.9-13.35-27.35-11.75l-2.35 1.5-0.3-0.15q-3.85-1.65-7.85-2.8l-4.2-1.2-4.6-1-4.7-0.6-7.35-0.6 1.6-1q4.5-2.15 9.55-2.85l3.25-0.4q5.8-0.55 11.4 0.7 5.55 1.25 10.8 3.35 3 1.15 6.35 1.35l-9.4-8.55-0.75-0.65q-4.3-4.65-5.75-7.4-3.3-6.2-4.9-13.8-2.3-12.95 0.65-22.85m49.8 63.65-4.45-5-2.45-2.8-2.7-2.85q-3.9-4.35-9-7.45l-3.65-2.2 0.05-0.05 6.5 2.55q4.4 1.9 8.35 4.65l4.55 3.3 10.15 7.7q2.65 2.05 4.5 4.95 3.25 5.15 4.85 11.1l-0.15 0.15q-6.8-9.45-16.55-14.05m-89.35 4.05 5.6-1.05 1.55-0.35q1-0.2 2-0.7 5-2.35 10.25-3.35l0.35-0.1 2.3-0.65 6.75-1.5 7.9-0.25q0.6 0.15 1.1 0.4l4.45 1.85 2 0.8 3.55 2q0.8 0.5 1.6 0.8 3.7 1.3 7 3.4l1.6 1.15q1.35 1.1 2.8 1.25l-0.15-0.55-0.7-1.8q-1.8-3.7-5.35-5.85l-2.85-1.75q0.4-0.75 0.35-1.85 6.5-2.6 17.9 10.2l3.95 4.7q6.8 10.7 4.95 18.95l-0.65-1.85q-3.9-9.3-17.25-12.45h-0.05q-4.15-4-8.35-6.8-4.7-3.1-9.4-4.65 4.7 1.55 9.4 4.65 4.2 2.8 8.35 6.8h0.05l3.35 4.85 1 1.7q3.55 6.3 2.7 9.85l-0.4-0.05-0.75-3.25-0.45-1.1-1.8-3.55-0.05-0.4-0.55-1.05q-1.65-2.85-4.45-4.85l-5.35-4.25q-3.2-2.8-7.25-4.25-2.9-1-5.9-1.35l-3.3 0.15-2.55 0.55q-3.1 0.6-5.95 1.9l-3.75 1.8q4.25-4.25 10-6.35l2.65-0.85 0.55-0.15 2.9-0.65 1.55-0.15q-2.75-0.9-5.5-1.3-6.1-1.75-11.45 1.65-2.8 2.15-6.1 3.5-6 2.4-13.75 2.2-12.7-1.35-19.05-4.95-6.4-3.6-1.15-8.9 4.75-4.45 6.35 1.5-2.7-1.55-5.45 2.75-1.05 2.7 2.65 3.45l0.3 0.05 0.65 0.1h0.3l6.15 0.1 2.85-0.15m-7.55 38.9q5.1-2.45 9.95-5.25t9.15-6.4l2.2-1.95q3.85-3.65 8.3-6.6 1.55-1.05 3.25-1.65l2.2-0.95 1.4-0.8q1.1-0.7 2.3-1.1l6.3-1.8 3.9-0.4 3.2 0.3q6.05 0.7 10.85 4.35l2.45 2.25 6.6 6.8v0.05q-14.2-8.45-28.35-0.7-7.85 3.65-11.9 2.3l1.75 1.6q4.4 3.2 11.85 1.75-4.9 6.6-18.55 4.45-8.05-3.2-18.35 1.3-4.3 1.9-8.45 2.75l-0.05-0.3m82.85-9.5q4.95 5.1 6.6 11.3 0.6 2.35 0.7 4.9 11.6-1.8 9.9-18l-0.4-3q5.9 12.15 3.45 18.25l-1.5 2.85-0.15 0.2q-2.05 2.7-5.2 3.3-7 3.05-14.95 2.25 2.4-2 3.05-6.25 1.85-6.7-1.25-14.1l-1.35-2.8 1.1 1.1" fill="#be4b00" fill-rule="evenodd"/>
<path d="m54.75 41.6 0.05 0.2-0.1-0.15 0.05-0.05m-31.3-49.8v-0.05h0.05l-0.05 0.05m-21.65 14.95 0.3 0.15-0.1 0.1-0.2-0.25m-54.2 48.85 1.2-0.55 0.05 0.3-1.25 0.25m76.8-11.6-0.05 0.2-0.35-0.25 0.4 0.05" fill="#e46004" fill-rule="evenodd"/>
<path d="m47.75 17q-2.75-3.35-6.15-6.6 2.1 0.75 4.1 1.7 9.75 4.6 16.55 14.05l0.35 0.45q2.3 3.35 4.3 7.3v7.05q-3.7-10.75-19.15-23.95m20.95 9.35v-0.05q0-5.55-1.9-11.8-5.3-14.95 3.65-19.05 3.7 3.15-2.35 7.65-2.85 4.15 3.45 20.35 1 2.65 1.65 5.4l0.5 2.55q-0.75 5.2-2.35 10.15l-0.05-4.15q-0.1-5.95-2.6-11.05m-36.9-9.2 7.5 8.2q-4.15-2.95-8.7-5.65-1.95-1.2-4.25-1.45-11.4-12.8-17.9-10.2 0.05 1.1-0.35 1.85-1.1 2-5.3 2.1-1.35-0.4-2.1-0.9-2.15-1.55 1.3-4.1l0.1-0.1 2.35-1.5q12.45-1.6 27.35 11.75m-14.45 10.45q13.35 3.15 17.25 12.45l0.15 1.8q0.1 3 0.55 5.9-1.6-3.9-4.45-7.4l-1.6-1.6q-3.5-2.8-7.55-4.6l-1-1.7-3.35-4.85m3.5 14.25 0.65 0.4h0.05l0.85 0.6 0.7 1.4 0.45 1.15 1.65 4.6-0.5 0.1-0.95-0.85q-1.9-1.65-4.05-2.8-5-2.75-10.65-3.35l-1.8-0.25q-5.65-0.85-10.85 1.45l-1.6 0.6q-3.55 1.2-7.3 1.15-2.1 0-4.1-0.75l-1.05-0.2-1.75-1.6q4.05 1.35 11.9-2.3 14.15-7.75 28.35 0.7v-0.05" fill="#e3a266" fill-rule="evenodd"/>
<path d="m54.8 41.8q2.35 4.95 3.05 10.7 3.6-3.95-0.2-17.2-2.75-9.55-9.9-18.3 15.45 13.2 19.15 23.95v-7.05l0.5 1q1.3-4.05 1.3-8.55 2.5 5.1 2.6 11.05l0.05 4.15q1.6-4.95 2.35-10.15 0.5 2.95 0.5 6.05-4.55 9.3-7.9 18.8l0.4-2.65q0.4-2.15 0.15-4.4-0.3-2.9-1.9-5.35l-3.75-6 0.5 1.4 0.6 2.65q0.6 3.75 0.5 7.6-0.05 3-1.6 5.5l-1.65 2.4q-3.4 4.8-9.15 4.45l1.5-2.85q2.45-6.1-3.45-18.25l0.4 3q-0.4-2.8-2-5-1.9-2.6-4.25-4.85l-5-4.65q1.5 2.2 2.65 5.3 2.05 5.5 1.85 11.4-0.25 6.05-3.85 10.9-1.65-6.2-6.6-11.3l-0.6-1-0.9-1.3q-1.95-3.35-4.65-6.15l0.55 1 1.05 4.05q1.1 4.8 1.1 9.7l0.25 2.55q0.55 2.5 0.35 5.05l-0.45-1.2-0.9-1.65q-1.35-2.5-3.6-4.25l-2.2-1.6-2.5-1.65-2.45-1.45q-3-1.6-6.35-2.3l-3.6-0.6-5.5-0.25-1.1 0.15 1.1 0.15 2.7 0.5 1.9 0.8q4 1.85 6.45 5.5l2.8 4.25q1.5 2.3 3.75 3l-0.85 0.15-2.4 0.6-2.05 0.3-7.6-0.2-3.55-0.85-11.15-2.75-3.7-0.35-4.6 0.45-0.5-0.45q-5-3.4-8.8-0.95 0.3 7.35-5 3.95-1.85-5.3 7-7.45 13.65 2.15 18.55-4.45-7.45 1.45-11.85-1.75l1.05 0.2q2 0.75 4.1 0.75 3.75 0.05 7.3-1.15l1.6-0.6q5.2-2.3 10.85-1.45l1.8 0.25q5.65 0.6 10.65 3.35 2.15 1.15 4.05 2.8l0.95 0.85 0.85 0.95-0.35-1.05-1.65-4.6-0.45-1.15-0.7-1.4 1.6 1.1 0.35 0.25 0.05-0.2q0.85-3.55-2.7-9.85 4.05 1.8 7.55 4.6l1.6 1.6q2.85 3.5 4.45 7.4-0.45-2.9-0.55-5.9l-0.15-1.8 0.65 1.85q1.85-8.25-4.95-18.95l-3.95-4.7q2.3 0.25 4.25 1.45 4.55 2.7 8.7 5.65l0.15 0.15 0.65 0.4q10.15 6.55 14.6 15.75l0.1 0.15" fill="#e3700b" fill-rule="evenodd"/>
<path d="m-17.05 56.2 4.6-0.45 3.7 0.35 11.15 2.75 3.55 0.85 7.6 0.2 2.05-0.3 2.4-0.6 0.85-0.15q-2.25-0.7-3.75-3l-2.8-4.25q-2.45-3.65-6.45-5.5l-1.9-0.8-2.7-0.5-1.1-0.15 1.1-0.15 5.5 0.25 3.6 0.6q3.35 0.7 6.35 2.3l2.45 1.45 2.5 1.65 2.2 1.6q2.25 1.75 3.6 4.25l0.9 1.65 0.45 1.2q0.2-2.55-0.35-5.05l-0.25-2.55q0-4.9-1.1-9.7l-1.05-4.05-0.55-1q2.7 2.8 4.65 6.15l0.9 1.3 0.6 1-1.1-1.1 1.35 2.8q3.1 7.4 1.25 14.1-0.65 4.25-3.05 6.25-1.35 1.1-3.25 1.55-21.25 7.55-43.9-12.95m55.3 0.65q3.6-4.85 3.85-10.9 0.2-5.9-1.85-11.4-1.15-3.1-2.65-5.3l5 4.65q2.35 2.25 4.25 4.85 1.6 2.2 2 5 1.7 16.2-9.9 18-0.1-2.55-0.7-4.9m12.15 5q5.75 0.35 9.15-4.45l1.65-2.4q1.55-2.5 1.6-5.5 0.1-3.85-0.5-7.6l-0.6-2.65-0.5-1.4 3.75 6q1.6 2.45 1.9 5.35 0.25 2.25-0.15 4.4l-0.4 2.65q3.35-9.5 7.9-18.8 0.05 11-5.95 23-6.8 6.1-13.15 7-7 0.9-10.05-2.1 3.15-0.6 5.2-3.3l0.15-0.2" fill="#d45600" fill-rule="evenodd"/>
<path d="m24.7 50.1 0.5-0.1 0.35 1.05-0.85-0.95" fill="#e38235" fill-rule="evenodd"/>
<path d="m23.75-17.9q-34.45-17.9-18.35-45.5 5.4-8.2 9.8-3.6 1.25 1.55 0.8 4.55 7.95-6.25-0.1-8.4-8.05-2.2-16 10.4l-0.9 1.5q-1.95 3.45-3.1 7.4-2.95 9.9-0.65 22.85 1.6 7.6 4.9 13.8 1.45 2.75 5.75 7.4l0.75 0.65 9.4 8.55q8.85 8.25 15.75 15.45l7.5 8.2 0.15 0.15 0.65 0.4q10.15 6.55 14.6 15.75m0.1 0.15q2.35 4.95 3.05 10.7 3.6-3.95-0.2-17.2-2.75-9.55-9.9-18.3-2.75-3.35-6.15-6.6 2.1 0.75 4.1 1.7 9.75 4.6 16.55 14.05l0.35 0.45q2.3 3.35 4.3 7.3l0.5 1q1.3-4.05 1.3-8.55m0-0.05q0-5.55-1.9-11.8m-64.7-7.6 2.35-1.5q12.45-1.6 27.35 11.75m-84.45-0.95h-0.3m-0.95-0.15q-3.7-0.75-2.65-3.45 2.75-4.3 5.45-2.75-1.6-5.95-6.35-1.5-5.25 5.3 1.15 8.9 6.35 3.6 19.05 4.95 7.75 0.2 13.75-2.2 3.3-1.35 6.1-3.5 5.35-3.4 11.45-1.65 2.75 0.4 5.5 1.3 4.7 1.55 9.4 4.65 4.2 2.8 8.35 6.8h0.05q13.35 3.15 17.25 12.45l0.65 1.85q1.85-8.25-4.95-18.95l-3.95-4.7q-11.4-12.8-17.9-10.2 0.05 1.1-0.35 1.85-1.1 2-5.3 2.1-1.35-0.4-2.1-0.9-2.15-1.55 1.3-4.1m0.1-0.1-0.1 0.1m-55.8 48.8 1.4-0.2 1.25-0.25q4.15-0.85 8.45-2.75 10.3-4.5 18.35-1.3-8.85 2.15-7 7.45 5.3 3.4 5-3.95 3.8-2.45 8.8 0.95l0.5 0.45q22.65 20.5 43.9 12.95 1.9-0.45 3.25-1.55 2.4-2 3.05-6.25 1.85-6.7-1.25-14.1l-1.35-2.8 1.1 1.1q4.95 5.1 6.6 11.3 0.6 2.35 0.7 4.9 11.6-1.8 9.9-18l-0.4-3q5.9 12.15 3.45 18.25l-1.5 2.85m-28.85-19.6 0.85 0.6 1.6 1.1m0.4 0.05-0.05 0.2-0.35-0.25m0.4 0.05q0.85-3.55-2.7-9.85l-1-1.7-3.35-4.85m3.5 14.3q-14.2-8.45-28.35-0.7-7.85 3.65-11.9 2.3l1.75 1.6q4.4 3.2 11.85 1.75-4.9 6.6-18.55 4.45m79.15-9.5-0.1-0.15m18.5-12.8q-0.65-2.75-1.65-5.4-6.3-16.2-3.45-20.35 6.05-4.5 2.35-7.65-8.95 4.1-3.65 19.05m-66.65-29.4q-22.7-0.1-29.6 14.85-9 14.95-23.2 16.25m29.15 3.8q-5.35 4.95-8.6 13.05-1.5 5.25-6.35 9.6-23.1 18.4-31.6 7.55-2.3-3.05 3.6-5.1-4.9-3.3-7.55 3-1.65 4.55 8.9 7.15l11.3 0.55m98.85 9.55q3.05 3 10.05 2.1 6.35-0.9 13.15-7m-18 1.6q-2.05 2.7-5.2 3.3-7 3.05-14.95 2.25" fill="none" stroke="#280000" stroke-linecap="round" stroke-linejoin="round" stroke-opacity=".38824"/>
<path d="m45-6.05q-9.2-6.15-21.25-11.85m43.05 32.4q-6.1-9.15-17.3-17.4l-0.45-0.35-4.05-2.8m29.2 43.5q0-3.1-0.5-6.05l-0.5-2.55m-4.95 31.6q6-12 5.95-23" fill="none" stroke="#280000" stroke-linecap="round" stroke-linejoin="round" stroke-opacity=".38824"/>
</g>
</defs>
</svg>
