<?xml version="1.0" encoding="UTF-8"?>
<svg version="1.1" viewBox="0 0 173.21 43.3" xmlns="http://www.w3.org/2000/svg" xmlns:cc="http://creativecommons.org/ns#" xmlns:dc="http://purl.org/dc/elements/1.1/" xmlns:rdf="http://www.w3.org/1999/02/22-rdf-syntax-ns#" xmlns:xlink="http://www.w3.org/1999/xlink">
<metadata>
<rdf:RDF>
<cc:Work rdf:about="">
<dc:format>image/svg+xml</dc:format>
<dc:type rdf:resource="http://purl.org/dc/dcmitype/StillImage"/>
</cc:Work>
</rdf:RDF>
</metadata>
<g transform="translate(-190.28 -206.72)">
<use transform="translate(190.3,206.75)" width="173.14999" height="43.25" xlink:href="#a"/>
</g>
<defs>
<g id="a" transform="translate(-190.3,-206.75)">
<path d="m260.05 245.8q-2.4 1.2-5.65 0.75-7.55 0.35-15.15 1.6-11.75 1.8-23.65 1.85-11.6 0-21.7-5.05-1.55-0.7-3.3-0.9l-0.15-0.1q7.4 0.3 14.35 2.45 3.7 1.15 7.6 1.7 8.35 0.5 16.85-0.45l12.35-1.2q6.45-0.5 12.7-2l5.75 1.35m-66.4-19.1 0.6-0.95q1.9-2.8 5.25-4.25 13.6-5.85 28.4-6.9l23.5-0.8q15.9-0.25 31.8 0.1l19.85 0.8q12.85 0.85 20.2 10.95l0.35 1.05-1.05 0.85q-2.95 1.8-6.5 2.75-17.55 4.5-35.75 4.5h-1.95l-0.5-0.1v0.1l-2.2-0.05-0.35-0.1v0.1h-0.65l-0.15-0.05 0.05-0.45 0.05-1.7 0.5 0.05 1.25 0.1v0.05l0.15-0.05 1.4 0.05 0.2 0.05q16.1 0.7 31.55-3.95 3.85-1.2 5.2-4.5 0.55-1.45-0.25-2.6-3-4.45-8.55-5.45-15.6-2.3-31.3-1-14 0.75-28.1 0.6-13.55-0.15-26.9 2.4-8 1.6-14.5 5.8-1.5 0.95-1.65 3-0.3 4.1 3.4 5.9 5.2 2.5 10.65 4l-10.6-0.9q-6.95-0.7-12.05-4.9l-0.05-0.15q-1.1-2.1-1.3-4.35m79.65 7.95-8.2-0.5-4.2 0.1 8.75-2.05 3.8 0.3 1.15 0.05-0.05 1.7-0.05 0.45h-1.1l-0.1-0.1v0.05m1.25-0.4 0.75 0.4-0.75-0.4m1.8-1.5-0.2 0.25q-0.4 1.7 1.7 1.7-2.1 0-1.7-1.7l0.2-0.25m-2.9-0.25-0.9 0.85 0.75 1.25-0.75-1.25 0.9-0.85m4.65 0.3q0 0.85 0.4 1.45 0.4 0.55 0.95 0.55-0.55 0-0.95-0.55-0.4-0.6-0.4-1.45" fill="#ff9" fill-opacity=".4" fill-rule="evenodd"/>
<path d="m275.05 238.75-0.95 1.1 31.65-0.85 15.9-1.7 12.25-1.65 1.25-0.15 5.75-0.75q-7.65 5.15-17.85 6.25l-11.05 0.4q-9.2-0.7-18.4 0-7.2 0.35-14.4 0.25l-6-0.05q-0.2-0.85-0.1-1.75l0.15-0.8 0.15-0.25 1.65-0.05m-0.95 1.1h-1 1" fill="#fff" fill-opacity=".4" fill-rule="evenodd"/>
<path d="m340.9 234.75 2.75-0.4q5.4-0.5 9.6-3.7 5.2-4.15 3.35-9.95l-0.25-0.6q-0.45-0.85-1.35-1.35-3.5-2-7.65-2.55-15.05-1.95-29.85-5.05l-10.75-1.95 0.6-1.8 2.6-0.65q13.85 0.95 27.15 3.95 10.1 2.25 19.2 6.65l3.8 2q5.3 3.05 2.25 7.9-1.35 2.1-3.35 3.4-13 8.75-29.05 10.15l-8.05 1.05-21.15 1.05-25.6 0.2-12.85-0.15-0.05 1.15q-1 1.05-2.2 1.7l-5.75-1.35 1.45-0.4 1-0.6 0.2-0.7-22.2-1.15h-0.65q-13.2-0.6-25.95-2.95-6.05-0.95-11.5-4-5.7-3.15-3-7.95 0.2 2.25 1.3 4.35l0.05 0.15q5.1 4.2 12.05 4.9l10.6 0.9q7.35 1.95 15.15 2.1h0.35q12.1 0.1 24.25 0.5 2.85-2 6.3-0.85l3.7 1.05v0.05l-0.7 0.05h1.05l5.35-0.05-5.35 0.05q3.9-1.05 6.35-4.4l0.35-0.7 0.2-0.05h1l-0.45 3.45-0.15 0.55-1.65 0.05-0.15 0.25-0.15 0.8q-0.1 0.9 0.1 1.75l6 0.05q7.2 0.1 14.4-0.25 9.2-0.7 18.4 0l11.05-0.4q10.2-1.1 17.85-6.25m-78.6 8.2q0-1.25 1.3-2.15t3.1-0.9q-1.8 0-3.1 0.9t-1.3 2.15m-1.4-8.7q-11.2-0.05-13.35-4.4-0.35-4.85 5.85-6.45 14.1-4 28.2 0.55 2.65 2.85-0.2 5.75-1.4 1.45-3.15 1.65l-11.05-0.55q0.9-1.05 4.05-0.35 5.2 0.85 9-3-5.05-4.45-12.3-4.45-8.4-0.05-14.4 5.2l-0.75 1.1q0.6 1.9 2.7 1.8l14.15 1.1-8.75 2.05m-3.5 5.35-0.45 3.15 0.45-3.15" fill="#fefe25" fill-rule="evenodd"/>
<path d="m340.9 234.75 2.75-0.4q5.4-0.5 9.6-3.7 5.2-4.15 3.35-9.95l-0.25-0.6q-0.45-0.85-1.35-1.35-3.5-2-7.65-2.55-15.05-1.95-29.85-5.05l-10.75-1.95 0.6-1.8 2.6-0.65q13.85 0.95 27.15 3.95 10.1 2.25 19.2 6.65l3.8 2q5.3 3.05 2.25 7.9-1.35 2.1-3.35 3.4-13 8.75-29.05 10.15l-8.05 1.05-21.15 1.05-25.6 0.2-12.85-0.15-0.05 1.15q-1 1.05-2.2 1.7-2.4 1.2-5.65 0.75-7.55 0.35-15.15 1.6-11.75 1.8-23.65 1.85-11.6 0-21.7-5.05-1.55-0.7-3.3-0.9l-0.3-0.05 0.15-0.05q7.4 0.3 14.35 2.45 3.7 1.15 7.6 1.7 8.35 0.5 16.85-0.45l12.35-1.2q6.45-0.5 12.7-2l1.45-0.4 1-0.6 0.2-0.7-22.2-1.15h-0.65q-13.2-0.6-25.95-2.95-6.05-0.95-11.5-4-5.7-3.15-3-7.95l0.6-0.95q1.9-2.8 5.25-4.25 13.6-5.85 28.4-6.9l23.5-0.8q15.9-0.25 31.8 0.1l19.85 0.8q12.85 0.85 20.2 10.95l0.35 1.05-1.05 0.85q-2.95 1.8-6.5 2.75-17.55 4.5-35.75 4.5h-2.45l-2.2-0.05-0.45 3.45-0.15 0.55-0.95 1.1 31.65-0.85 15.9-1.7 12.25-1.65 1.25-0.15 5.75-0.75m-67.8 5.1-5.35 0.05h-1.05q-1.8 0-3.1 0.9t-1.3 2.15m15.8-10.15q16.1 0.7 31.55-3.95 3.85-1.2 5.2-4.5 0.55-1.45-0.25-2.6-3-4.45-8.55-5.45-15.6-2.3-31.3-1-14 0.75-28.1 0.6-13.55-0.15-26.9 2.4-8 1.6-14.5 5.8-1.5 0.95-1.65 3-0.3 4.1 3.4 5.9 5.2 2.5 10.65 4 7.35 1.95 15.15 2.1h0.35q12.1 0.1 24.25 0.5 2.85-2 6.3-0.85l3.7 1.05 0.35 0.1q3.9-1.05 6.35-4.4l0.35-0.7-1.05-0.1-0.1-0.05-8.2-0.5-4.2 0.1q-11.2-0.05-13.35-4.4-0.35-4.85 5.85-6.45 14.1-4 28.2 0.55 2.65 2.85-0.2 5.75-1.4 1.45-3.15 1.65l-11.05-0.55q0.9-1.05 4.05-0.35 5.2 0.85 9-3-5.05-4.45-12.3-4.45-8.4-0.05-14.4 5.2l-0.75 1.1q0.6 1.9 2.7 1.8l14.15 1.1 3.8 0.3h1.35l1.65 0.2h0.05l1.4 0.05 0.2 0.05 1.25-0.3m-22.4 10.25 0.45-3.15m17.4-7.1 0.3 0.1 1.25 0.1h0.1m-3-0.2 1.15 0.05 0.2-0.05m-0.3 2.2 0.05-0.45 0.05-1.7 0.5 0.05m-0.6 2.1h-1.1l-0.1-0.1-0.75-1.25 0.9-0.85m1 2.3 0.05-0.1 0.15 0.05h0.65m0-0.1-0.75-0.4m1.1 0.5h-0.35m0.35 0-0.35-0.1m-0.65 0.1-0.2 0.05m3.4-0.1q-2.1 0-1.7-1.7l0.2-0.25 0.15-0.05m1.85 2.1-0.5-0.1m1.6 0.1q-0.55 0-0.95-0.55-0.4-0.6-0.4-1.45m-10.7 7.05 0.35 0.05m-0.35-0.05-0.7 0.05m6.4-0.05h1" fill="none" stroke="#666" stroke-linecap="round" stroke-linejoin="round" stroke-opacity=".50196" stroke-width=".05"/>
</g>
</defs>
</svg>
