<?xml version="1.0" encoding="UTF-8"?>
<svg version="1.1" viewBox="0 0 124.31 130.85" xmlns="http://www.w3.org/2000/svg" xmlns:cc="http://creativecommons.org/ns#" xmlns:dc="http://purl.org/dc/elements/1.1/" xmlns:rdf="http://www.w3.org/1999/02/22-rdf-syntax-ns#" xmlns:xlink="http://www.w3.org/1999/xlink">
<metadata>
<rdf:RDF>
<cc:Work rdf:about="">
<dc:format>image/svg+xml</dc:format>
<dc:type rdf:resource="http://purl.org/dc/dcmitype/StillImage"/>
</cc:Work>
</rdf:RDF>
</metadata>
<g transform="translate(-253.52 -209.58)">
<use transform="translate(253.55,209.6)" width="124.25" height="130.85001" xlink:href="#a"/>
</g>
<defs>
<g id="a">
<use width="124.25" height="130.85001" xlink:href="#b"/>
</g>
<g id="b">
<path d="m76.35 23.2 5.1-7 19.4-13.8 11.2-2.4h8.2l-3.8 4.4-1.55 1.05-0.1 0.1q-0.4 0.2-0.75 0.5l-3.95 2.75-17.25 12q-5.8 5.9-9 11.8l-6.8 15 1.8 1.2-1.1-0.4-8.1-2.8h3.2l9.8-15.6 7.4-9.2 11.4-9.4 7.6-7.4h-4l-14.2 11.8-12.6 12-4.8 7.3-4-2.5 3.4-4.65 0.05-0.05 3.45-4.7" fill="#f7daa8" fill-rule="evenodd"/>
<path d="m110.1 8.8q-12.85 9.35-20.05 19.5-3.9 5.5-6.15 11.2-1.5 3.8-2.25 7.7l1.4 1-6-0.6 6.8-15q3.2-5.9 9-11.8l17.25-12m-40.65 23.8 4 2.5 4.8-7.3 12.6-12 14.2-11.8h4l-7.6 7.4-11.4 9.4-7.4 9.2-9.8 15.6-4.25-3.15-0.55 0.75-2.2-2.8v-5.2l3.6-2.6" fill="#755c1c" fill-rule="evenodd"/>
<path d="m102.85 36.95q2.7 2.55 4.2 5.45 5.45 1.15 7.8 5.4l4.95 11.25q-0.15 0.3-0.15 0.65l1.95 3.45 2.65 6.05-0.05 1.8-6.7-0.65-1.25 2.3q0.55 3.1 0.25 6.15-0.5 5.1-3 9.3l-0.75 1.15-0.85 1.1-0.95 1.1-2.1 2.15-4-8.8q-0.75 4.95-3.4 9.25l-1.4 2q-0.7 0.95 3.5-2.7 4.2-3.7 1.6 2.45-2.65 6.15-13.05 10.7 0.75-8.15-4.45-13.3 4.7 6.55-13.65 23.15l-6.85 1.85q1.2-2.7 2.1-5.8l1.6-2.4-0.95 1-1.65 1.6q-2.9 2.9-6 4.95l4.8-5.35 1.5-1.5 0.95-1.05 0.8-1.25 0.8-1.4 0.9-1.4 3.85-6 0.8-1.2 1.4-2.4 2.85-4.75 1.2-2.25 0.05-0.05q4.2-13.4 4.65-27.8l-0.2-0.8q-1.7-5.8-7.75-11.55l-1.8-1.2 6 0.6-1.4-1q0.75-3.9 2.25-7.7 9.5-4 18.95-2.55m-102.05 25.75 0.35-1.55-0.3 2.45-0.05-0.9m7.9-18.9q3.7-5.65 8.5-10.05l1.2-1.1q2.65-1.4 11.4-3.4 12.5-2.9 10.8-1 11.1-2.75 20.85 6.75l-3.6-5.2 4.6 2.2-4.2-5.25q2.35 1 4.55 2.25-1.3-3.1-3.45-5.85l-0.1-0.35-4-3h1.2l2 0.05 3.25 0.65 1.15 0.1q0.2 0 0.25-0.4 0.15-0.8 1-1.35 0.3-0.25 0.75-0.25l2 0.15 1 0.15q1.6 0.35 3.2 0.85l0.9 0.4q2.3 1.35 4.4 3.05l-3.45 4.7-0.05 0.05-3.4 4.65-3.6 2.6v5.2l2.2 2.8 0.55-0.75 4.25 3.15h-3.2l8.1 2.8-7.35 0.2q-12.15 0.1-23.55 3.5l1.35 0.75q0.25 0.9-0.35 1.4-15.05 12.5-24.05 29.8l-0.8 0.15q0.15-5.15 2.3-10.25-5 7.6-7.25 16.5l-1.15 3.45q-1.8 5.45-2.85 11-1.2-4.5 0-10.1l-1.7 1.25 0.1-8.15q1.8-5.5 4.55-10.65 8.8-16.75 23.9-28.65 3.45-1.9 7.35-2.9 6.75-1.7 13.7-2.75l0.35-1.85-9.05 0.3v-0.2l8.4-1.6q-14.3-14.1-32.4-5.6 1.05-0.85 2.2-1.55-11.7-0.1-20.65 9l-2.1 2.35m89.15 6q2.15-0.15 4.2 0.55 1.9 0.65 3.65 1.55l6.95 3.85 2.15 1.3 1.05 0.75 3.8 3v-1.1q-12.2-19.55-36.6-11.5l1.65 2.6h0.15q5.55 2.25 11.05 27.1l-2-17.1q-0.45-3.8-0.75-7.7 1.45 0.95 2.75 2.65 2.15 2.8 4.7 5.3 1.7 1.75 2.95 3.8 1 1.6 2.4 2.85l0.7 0.5-0.5-2.6q-0.5-3.15-1.7-6l-1.25-2.8q-1.15-2.4-2.9-4.45l-1.6-1.8-0.5-0.5-0.35-0.25m-33.2-27.8 0.05-0.05-0.15-0.1 0.1 0.15" fill="#b7600b" fill-rule="evenodd"/>
<path d="m90.05 28.3 6.4 4.1q3.8 2.1 6.4 4.55-9.45-1.45-18.95 2.55 2.25-5.7 6.15-11.2m-82.8 71.5q-3.5-6.9-5.5-14.75-2.95-11.65-0.95-22.35l0.05 0.9 0.3-2.45q1.65-7.4 5.7-14.4l1.85-2.95 2.1-2.35q8.95-9.1 20.65-9-1.15 0.7-2.2 1.55 18.1-8.5 32.4 5.6l-8.4 1.6-0.4 0.2h0.4l9.05-0.3-0.35 1.85q-6.95 1.05-13.7 2.75-3.9 1-7.35 2.9l1.1-1.65q1.15-1.55-0.25-3.25l-6.55-0.1 0.65-2q-7.45-0.15-11.8 5.55l-0.8 1.25 1.75 0.35q-16.55 9.35-17.1 26.95-0.25 8.4 4.55 12.2l-0.1 8.15-5.1 3.75m11.15-67.15q6.95-6.1 16.05-9.8l4-1.2 4.2-1.2q3.1-0.8 6.4-0.75l6.2 0.1 4 3 0.1 0.35q2.15 2.75 3.45 5.85-2.2-1.25-4.55-2.25l4.2 5.25-4.6-2.2 3.6 5.2q-9.75-9.5-20.85-6.75 1.7-1.9-10.8 1-8.75 2-11.4 3.4m59.35 15.75 1.1 0.4q6.05 5.75 7.75 11.55-5.55-1.5-11.15 1.6-0.2 0.05-0.2 0.45l4-1.6q-6.05 26.8-17.45 50.45-0.15 0.35-0.15 0.75 2.85 0.7 5.6 0l-0.2 0.2-4.8 5.35q-10.2 6.6-23 3.65l-1.6-2v-7.6l-0.7 0.5q-5.45 4.6-14.1 3.9l-0.45-0.3q-6.7-4.2-8.35-10.8 1.05-5.55 2.85-11l1.15-3.45 0.55 0.1q3.4 0.6 4.2-2.8l1-3.7q9-17.3 24.05-29.8 0.6-0.5 0.35-1.4l-1.35-0.75q11.4-3.4 23.55-3.5l7.35-0.2m20.1 1.4 0.35 0.25 0.5 0.5 1.6 1.8q1.75 2.05 2.9 4.45l1.25 2.8q1.2 2.85 1.7 6l0.5 2.6-0.7-0.5q-1.4-1.25-2.4-2.85-1.25-2.05-2.95-3.8-2.55-2.5-4.7-5.3-1.3-1.7-2.75-2.65 0.3 3.9 0.75 7.7l2 17.1q-5.5-24.85-11.05-27.1h-0.15l-1.65-2.6q24.4-8.05 36.6 11.5v1.1l-3.8-3-1.05-0.75-2.15-1.3-6.95-3.85q-1.75-0.9-3.65-1.55-2.05-0.7-4.2-0.55m-57 26.6q-6.75 10.8-7.4 22.85l0.2 0.35q10-6.35 14.5-20.75 1.75-5.5-0.9-8.85-1.5-0.15-2.3 1.25l-0.95 1.75q-0.5 0.95-1.5 1.25h-0.2q-0.15 0.05-0.25 0.15l-1.2 2" fill="#eaa719" fill-rule="evenodd"/>
<path d="m67.25 112q-2.75 0.7-5.6 0 0-0.4 0.15-0.75 11.4-23.65 17.45-50.45l-4 1.6q0-0.4 0.2-0.45 5.6-3.1 11.15-1.6l0.2 0.8q-0.45 14.4-4.65 27.8l-0.05 0.05-1.2 2.25-2.85 4.75-1.4 2.4-0.8 1.2-3.85 6-0.9 1.4-0.8 1.4-0.8 1.25-0.95 1.05-1.3 1.3m-54.8-24.1q-4.8-3.8-4.55-12.2 0.55-17.6 17.1-26.95l-1.75-0.35 0.8-1.25q4.35-5.7 11.8-5.55l-0.65 2 6.55 0.1q1.4 1.7 0.25 3.25l-1.1 1.65q-15.1 11.9-23.9 28.65-2.75 5.15-4.55 10.65m28.4-11.5 1.2-2q0.1-0.1 0.25-0.15h0.2q1-0.3 1.5-1.25l0.95-1.75q0.8-1.4 2.3-1.25 2.65 3.35 0.9 8.85-4.5 14.4-14.5 20.75l-0.2-0.35q0.65-12.05 7.4-22.85m29.5 34.35-0.45 0.25 0.95-1-0.5 0.75" fill="#f2cc7b" fill-rule="evenodd"/>
<path d="m124.2 71q1.15 28.8-21.05 46.9l-2.85 2.15q-3 2.5-2.5 2.9l-2.75 0.3-7.6 0.9-2 0.35q-13.8 5.65-28.3 6.3l-11.6-0.35-5.5-0.75-0.1-0.1-0.1 0.1-7.3-3.45q-10.3-5.4-15.3-11.65l-5.8-7.55q-2.35-3.5-4.2-7.25l6.8-5q-1.2 5.6 0 10.1 1.65 6.6 8.35 10.8l0.45 0.3q8.65 0.7 14.1-3.9l0.7-0.5v7.6l1.6 2q12.8 2.95 23-3.65 3.1-2.05 6-4.95l1.65-1.6 0.45-0.25-1.1 1.65q-0.9 3.1-2.1 5.8l6.85-1.85q18.35-16.6 13.65-23.15 5.2 5.15 4.45 13.3 10.4-4.55 13.05-10.7 2.6-6.15-1.6-2.45-4.2 3.65-3.5 2.7l1.4-2q2.65-4.3 3.4-9.25l4 8.8 2.1-2.15 0.95-1.1 0.85-1.1 0.75-1.15q2.5-4.2 3-9.3 0.3-3.05-0.25-6.15l1.25-2.3 6.7 0.65" fill="#7a3c03" fill-rule="evenodd"/>
<path d="m100.3 120.05-0.55 1.3-0.55 1.4-1.4 0.2q-0.5-0.4 2.5-2.9" fill="#b27129" fill-rule="evenodd"/>
<path d="m18.05 90.45q2.25-8.9 7.25-16.5-2.15 5.1-2.3 10.25l0.8-0.15-1 3.7q-0.8 3.4-4.2 2.8l-0.55-0.1" fill="#f0c160" fill-rule="evenodd"/>
<path d="m76.35 23.2 5.1-7 19.4-13.8 11.2-2.4h8.2l-3.8 4.4-1.55 1.05-0.1 0.1q-0.4 0.2-0.75 0.5l-3.95 2.75q-12.85 9.35-20.05 19.5l6.4 4.1q3.8 2.1 6.4 4.55 2.7 2.55 4.2 5.45 5.45 1.15 7.8 5.4l4.95 11.25q-0.15 0.3-0.15 0.65l1.95 3.45 2.65 6.05-0.05 1.8q1.15 28.8-21.05 46.9l-2.85 2.15-0.55 1.3-0.55 1.4-1.4 0.2-2.75 0.3-7.6 0.9-2 0.35q-13.8 5.65-28.3 6.3l-11.6-0.35-5.5-0.75-0.1-0.1-0.1 0.1-7.3-3.45q-10.3-5.4-15.3-11.65l-5.8-7.55q-2.35-3.5-4.2-7.25-3.5-6.9-5.5-14.75-2.95-11.65-0.95-22.35l0.35-1.55q1.65-7.4 5.7-14.4l1.85-2.95q3.7-5.65 8.5-10.05l1.2-1.1q6.95-6.1 16.05-9.8l4-1.2 4.2-1.2q3.1-0.8 6.4-0.75l6.2 0.1h1.2l2 0.05 3.25 0.65 1.15 0.1q0.2 0 0.25-0.4 0.15-0.8 1-1.35 0.3-0.25 0.75-0.25l2 0.15 1 0.15q1.6 0.35 3.2 0.85l0.9 0.4q2.3 1.35 4.4 3.05m-3.5 22.4h-3.2" fill="none" stroke="#600" stroke-linecap="round" stroke-linejoin="round" stroke-opacity=".70196" stroke-width=".05"/>
</g>
</defs>
</svg>
