<?xml version="1.0" encoding="UTF-8"?>
<svg version="1.1" viewBox="0 0 178.58 69.818" xmlns="http://www.w3.org/2000/svg" xmlns:cc="http://creativecommons.org/ns#" xmlns:dc="http://purl.org/dc/elements/1.1/" xmlns:rdf="http://www.w3.org/1999/02/22-rdf-syntax-ns#" xmlns:xlink="http://www.w3.org/1999/xlink">
<metadata>
<rdf:RDF>
<cc:Work rdf:about="">
<dc:format>image/svg+xml</dc:format>
<dc:type rdf:resource="http://purl.org/dc/dcmitype/StillImage"/>
</cc:Work>
</rdf:RDF>
</metadata>
<g transform="translate(-185.58 -165.68)">
<use transform="translate(185.6,165.7)" width="178.55" height="69.800003" xlink:href="#a"/>
</g>
<defs>
<g id="a" transform="translate(-185.6,-165.7)">
<path d="m350.5 186.6 2.25 0.7q1.05 0.25 1.55 0.8l0.75-0.05q3.25 0 5.55 1t2.3 2.4-2.3 2.4-5.55 1l-3.95-0.45-1 0.95q1.85 0.15 3.25 0.75 1.95 0.8 1.95 1.95t-1.95 1.95-4.75 0.8l-4.4-0.65-2.6 1.9h0.1q3.4 0 5.8 1.05 2.45 1.05 2.45 2.55t-2.45 2.55q-2.4 1.05-5.8 1.05l-1.25-0.05q-3.45-3.55-10.3-6.5-13.6-5.85-32.85-5.85t-32.9 5.85q-13.6 5.85-13.6 14.15 0 3.75 2.75 7-2.75-3.25-2.75-7 0-8.3 13.6-14.15 13.65-5.85 32.9-5.85t32.85 5.85q6.85 2.95 10.3 6.5-2.6-0.15-4.6-1-1.1-0.45-1.65-1l-2.8 1.85h0.05q4.8 0 8.15 1.8l0.35 0.2 0.3-0.15 1.3-0.4 3.45-0.4q2.8 0 4.75 0.8t1.95 1.95-1.95 1.95-4.75 0.8l-1.25-0.05-0.75-0.05q-0.2 2.35-3.4 4.05t-7.65 1.8l0.05 0.5q0 1.8-4.15 3.05-4.1 1.3-9.95 1.3t-10-1.3l-1.35-0.45-2.2 0.45v0.3q0 1.35-2.1 2.25-1.75 0.8-4.1 0.95-0.05 2.4-4.05 4.1-4.05 1.75-9.75 1.75t-9.75-1.75q-3.55-1.5-3.95-3.55l-1.85-0.35-1.8 1.25q-1.3 0.7-2.9 1.05l-3.4 0.3q-3.7 0-6.35-1.35l-0.1-0.05q-0.5 1.3-2.6 2.25-2.7 1.3-6.55 1.3t-6.6-1.3q-2.45-1.15-2.65-2.7l-6.5 0.7q-4.9 0-8.4-1.3-3.45-1.25-3.45-3.05t3.45-3.1q2.4-0.85 5.5-1.1l-1.1-1.3h-0.1l-2-0.25-1.5 1.5q-2.05 1.55-4.95 1.55t-5-1.55q-2.05-1.55-2.05-3.75l0.05-0.55h-0.75q-3.4 0-5.8-1.25t-2.4-3 2.4-3q1.65-0.85 3.85-1.1l-2.35-1.15-0.6-0.25q-2.2 1.3-5.2 1.3-3.2 0-5.5-1.5-2.25-1.45-2.25-3.55 0-1.8 1.7-3.2-2.25-0.2-3.9-1.3-2-1.3-2-3.15l0.2-1.15q0.45-1.15 1.8-2.05 1.45-0.95 3.3-1.2l0.05-0.1-0.15-0.1q-1.25-0.6-1.25-1.5t1.25-1.55q1.3-0.6 3.1-0.6h0.3q2.95-2.3 8.25-4.5-0.9-0.6-0.9-1.35 0-1.2 2.35-2.05 2.35-0.8 5.65-0.8l3.95 0.35 1-0.3-0.05-0.35q0-0.95 1.4-1.6t3.4-0.65h0.5l0.6-1.15 0.05-0.1 1.1-2.3q2-4.25 17.65-2.25l4.5 0.65q4.05-9.65 23-1.85l1.95-0.75q4.5-1.55 13.05-2.8 9-1.3 14.65 3.7l1.95-0.15q2.9 0 4.95 0.9 1.05 0.45 1.6 1 22.3-0.35 30.15 6.35l0.65 0.55 2.15-0.2q2 0 3.4 0.6 1.45 0.6 1.45 1.45l-0.1 0.45q-0.25 0.55-1.35 1l-0.85 0.3 0.3 0.25q1.5-0.65 3.4-0.65 2.4 0 4.1 1 1.75 1 1.75 2.4 0 0.95-0.75 1.7l-1 0.7q-1.7 1-4.1 1l-1.75-0.15-0.3-0.05-0.4-0.1q-0.8-0.2-1.45-0.55v2.3-2.3q0.65 0.35 1.45 0.55l0.4 0.1 0.3 0.05 1.75 0.15q2.4 0 4.1-1l1-0.7m-60.65-18.5-15.05 4.85-4.45 0.15 4.45-0.15 15.05-4.85m-19 6.1-0.5-1.1-0.45-1.55 0.45 1.55 0.5 1.1-0.5 0.15 0.5-0.15 3.95-1.25-3.95 1.25q2.5 4.4 11.1 7.8 6.2 2.5 13.75 3.7-7.55-1.2-13.75-3.7-8.6-3.4-11.1-7.8m-2.2-2.95 1.25 0.3 1.3 0.35-1.3-0.35-1.25-0.3m30.4 14.95-0.65-1.5-1.15-1.7-1.6-1.4 0.1 1.25v2.55l-0.05 0.3 0.05-0.3v-2.55l-0.1-1.25 1.6 1.4 1.15 1.7 0.65 1.5 7.2 0.55-7.2-0.55-3.35-0.5 3.35 0.5q1 2.95 0.45 7.2 6.2-2.9 6.75-6.65 0.1-1-0.15-2.05l2.65 2.15-2.65-2.15q0.25 1.05 0.15 2.05-0.55 3.75-6.75 6.65 0.55-4.25-0.45-7.2m36.7-2.45q-10.6 3.1-24.45 3.1h-2.55 2.55q13.85 0 24.45-3.1l-2.7-2.05 2.7 2.05 2.15-0.7 0.65-0.25-0.65 0.25-2.15 0.7 0.6 0.45-0.6-0.45m-40.05 1.95q-0.4 4.9-3.5 7-0.1-2.4-1.85-4.05-2.4-2.3-7.9-3.25l3.8 6.6-3.8-6.6q5.5 0.95 7.9 3.25 1.75 1.65 1.85 4.05 3.1-2.1 3.5-7m-27.25 6.3 4.05-4.4-1.9 1.45-3 2.1q0.15-2.25-0.15-4.05-0.35-2-1.2-3.55l-1.5-1.95-1.15-0.95 0.15 1.8v0.5q0 4.05-1.5 6.55l-0.65 0.95-1.45 1.35q-0.05-1.55-0.8-2.75l2.4-2.25-0.35 1.55 0.35-1.55-2.4 2.25q0.75 1.2 0.8 2.75l1.45-1.35 0.65-0.95q1.5-2.5 1.5-6.55v-0.5l-0.15-1.8 1.15 0.95 1.5 1.95q0.85 1.55 1.2 3.55 0.3 1.8 0.15 4.05l3-2.1 1.9-1.45-4.05 4.4 0.2-0.1q6-3.2 5.55-7.35l-0.15-0.8 0.95 0.7q2.2 1.65 3.15 3.35 0.65 1.3 0.55 2.6l-1.1-1 1.1 1q0.1-1.3-0.55-2.6-0.95-1.7-3.15-3.35l-0.95-0.7 0.15 0.8q0.45 4.15-5.55 7.35l-1.2 0.6 0.05-0.7 0.05-0.2 0.05-0.35v-0.1l-0.75 0.55 0.75-0.55v0.1l-0.05 0.35-0.05 0.2-0.05 0.7 1-0.5m10.15-0.9 0.1-0.7 3.95 3.55-3.95-3.55-0.1 0.7m30.15-4.25-2.5-0.1 2.5 0.1q2.5 2.55 1.9 5.15 0.6-2.6-1.9-5.15m28.25-8.55-1.3 0.4q-1.4 0.6-1.4 1.45l0.05 0.3q0.2 0.65 1.35 1.15l0.9 0.3 1.3 1.15-1.3-1.15-0.9-0.3q-1.15-0.5-1.35-1.15l-1.55-1.05 1.55 1.05-0.05-0.3q0-0.85 1.4-1.45l1.3-0.4m-17.1-2.85 5 1.05-5-1.05m7.9 18.1h-7.7 7.7m-12.7-0.4-4.15 0.2 4.15-0.2m-8.55-15.3 22.3 0.7 1.65-0.2-1.65 0.2-22.3-0.7m-17.45-8.9 3.95 0.9-3.95-0.9m-8.55 2.95 10.6-1.45-10.6 1.45m17.5 6.25 6.85-0.8-6.85 0.8m-0.35-8.5q-1.7 0.15-3.05 0.75l-0.15 0.1-0.5 0.25q-1.4 0.8-1.4 1.8 0 1.25 2.05 2.15l1.45 0.5 0.35 0.1 3.2 0.3q2.9 0 4.95-0.9l0.25-0.1 2.3-0.1 1.2 0.75 1.8 0.5 0.85 0.1h0.95l1.9-0.15 1.35-0.3 0.3-0.15q1.4-0.5 1.5-1.25l6.3-0.35-6.3 0.35q-0.1 0.75-1.5 1.25l-0.3 0.15-1.35 0.3-1.9 0.15h-0.95l-0.85-0.1-1.8-0.5-1.2-0.75-2.3 0.1-0.25 0.1q-2.05 0.9-4.95 0.9l-3.2-0.3-0.35-0.1-0.15 2.55 0.15-2.55-1.45-0.5q-2.05-0.9-2.05-2.15 0-1 1.4-1.8l0.5-0.25 0.15-0.1q1.35-0.6 3.05-0.75m3.25 7.05 4.55-0.85-4.55 0.85m10 0.15-2.95 0.05-1.25 0.05 1.25-0.05 2.95-0.05m-6.1-2.25q1.85-0.85 1.85-2.05 0-0.6-0.5-1.15 0.5 0.55 0.5 1.15 0 1.2-1.85 2.05m12.15-0.6v-0.15q0-0.85-1.5-1.45-1.45-0.55-3.55-0.55t-3.6 0.55q-1.45 0.6-1.45 1.45l0.25 0.65-0.25-0.65q0-0.85 1.45-1.45 1.5-0.55 3.6-0.55t3.55 0.55q1.5 0.6 1.5 1.45v0.15m-35 14.8 1.25 3.3-1.25-3.3m2.5 3.7-1.85-4.55 1.85 4.55m55.8-10.35 0.35-0.15 3.25-1.4-3.25 1.4-0.35 0.15 1.4-0.25-1.4 0.25-1.75 0.65 1.75-0.65-1.15 0.05-1-0.05q0.15 0.45 0.4 0.6v0.05l1.1 1.55 0.2-0.55q0.4-0.75 1.4-1.3l0.75-0.35-0.75 0.35q-1 0.55-1.4 1.3l-0.2 0.55-1.1-1.55v-0.05q-0.25-0.15-0.4-0.6l1 0.05 1.15-0.05m-117.2 19.65-3.8-6.35q0.35 0.1-0.6-1l-1.1-1.95 0.55 0.1 2.15 0.45q3.6 1 5.4 2.85l0.05 0.05q1.05 1.15 1.45 2.6v0.2l0.15 1.05q0.25-0.2 0.45-0.35l0.6-0.55q2.4-2.45 2.55-7.2l-0.1-2.7-0.05-0.35 0.3 0.2q3.55 2.75 3.75 8.2l-1.15 0.9 1.15-0.9q-0.2-5.45-3.75-8.2l-0.3-0.2 0.05 0.35 0.1 2.7q-0.15 4.75-2.55 7.2l-0.6 0.55q-0.2 0.15-0.45 0.35l-0.15-1.05v-0.2q-0.4-1.45-1.45-2.6l-0.05-0.05q-1.8-1.85-5.4-2.85l-2.15-0.45-0.55-0.1 1.1 1.95q0.95 1.1 0.6 1l3.8 6.35 11.55-1.35-11.55 1.35h-0.25 0.25l0.4 0.7-0.65-0.7 0.65 0.7-0.4-0.7m-6.75-22.05 0.9 0.6 1.05 0.4 2.35 0.25 3.4-0.65q1.4-0.65 1.4-1.6l-0.1-0.5-0.35-0.5 2.55-1.05 1.4-0.3q1.25-0.35 1.25-0.9t-1.25-0.95l-3-0.35-3 0.35-1.15 0.7 1.15-0.7 3-0.35 3 0.35q1.25 0.4 1.25 0.95t-1.25 0.9l-1.4 0.3-2.55 1.05 0.35 0.5 0.1 0.5q0 0.95-1.4 1.6l-3.4 0.65-2.35-0.25q0.65 0.5 0.65 1.15 0 1.2-2.35 2-2.35 0.85-5.65 0.85l-4.25-0.45 4.25 0.45q3.3 0 5.65-0.85 2.35-0.8 2.35-2 0-0.65-0.65-1.15l-1.05-0.4-0.9-0.6-0.45-0.1 0.25-0.1 0.2 0.2-0.2-0.2-0.25 0.1-0.65-0.15 0.65 0.15 0.45 0.1m-0.4-0.5 0.2 0.3-0.2-0.3-0.7 0.25-0.25-0.05-0.1-0.05 0.1 0.05 0.25 0.05 0.7-0.25-0.05-0.15 0.05 0.15m9.05-1.5-0.95-0.6q-1.2-0.55-2.9-0.65 1.7 0.1 2.9 0.65l0.95 0.6m-3.25-2.4-0.05 0.15q0 0.55 1.25 0.9l3 0.4 1.6-0.1-1.6 0.1-3-0.4q-1.25-0.35-1.25-0.9l0.05-0.15m-21.35 14.7 0.8-4.8-0.8 4.8m1.85-1.45-1.15 2.3 1.15-2.3m3.85-4.45 0.6 0.15-3 3.45 3-3.45-0.6-0.15-1.75 1.5 1.75-1.5-0.8-0.25-0.35-0.1-1.1-0.55 1.1 0.55 0.35 0.1 0.8 0.25m-9.35 7.8 1.6-0.55q1.3-0.6 1.3-1.5t-1.3-1.55q-1.15-0.55-2.75-0.6 1.6 0.05 2.75 0.6 1.3 0.65 1.3 1.55t-1.3 1.5l-1.6 0.55q1 0.3 1.85 0.85 1.7 1.15 1.95 2.65l0.05 0.55q0 1.5-1.25 2.6l-0.75 0.55-0.3 0.2 0.3-0.2 0.75-0.55q1.25-1.1 1.25-2.6l-0.05-0.55q-0.25-1.5-1.95-2.65-0.85-0.55-1.85-0.85l-1.45 0.1-2.75-0.45 2.75 0.45 1.45-0.1m-4.4-0.45 0.2 0.1h-0.25 0.25l-0.2-0.1m141.25-10.85-3.3-0.6 3.3 0.6m20.7 7.45q-2.8 0.05-4.8 0.95-2.3 1-2.3 2.4t2.3 2.4l1.6 0.55-1.6-0.55q-2.3-1-2.3-2.4t2.3-2.4q2-0.9 4.8-0.95m-10.7 1.5 0.35 1.75-0.35-1.75m-3.95-5.25-0.1 0.55q0 1.4 1.7 2.4l0.25 0.15-0.25-0.15q-1.7-1-1.7-2.4l0.1-0.55m-1.45 1.5 1.7 1.05-1.7-1.05m-1.6-3.95 0.95 0.2 0.6 0.05-0.6-0.05-0.95-0.2m-102.45 16.45 0.7-0.3-0.2 2.4 0.2-2.4-0.7 0.3m23.35-11.3 0.3-2.2q0-7.05-11.45-12.05-2.75-1.2-5.8-2.1 3.05 0.9 5.8 2.1 11.45 5 11.45 12.05l-0.3 2.2q1.2 0.85 1.85 2l-0.65 0.8 0.65-0.8q-0.65-1.15-1.85-2-1.55-1.2-4.1-1.9l-2.55-0.6-0.45-0.1 3.8 6.65-3.8-6.65 0.45 0.1 2.55 0.6q2.55 0.7 4.1 1.9-0.8 2.9-3.7 5.4 2.9-2.5 3.7-5.4m-3.7 5.4-1-0.85-1.45-2.8-1.4-2.75 1.4 2.75 1.45 2.8 1 0.85q-2.75 2.35-7.45 4.4l-0.55 0.25 0.55-0.25q4.7-2.05 7.45-4.4m-1.05-17.85-0.5 0.2 0.5-0.2 0.7-0.9 1.65-1.35 2.95-0.45-2.95 0.45-1.65 1.35-0.7 0.9 3.65-1.45-3.65 1.45m-0.3-1.85 2.65-0.4-2.65 0.4m-16.65-0.65 5.8-0.4-11.65 6.85 11.65-6.85-5.8 0.4m-4.6 2.5 2.3-1.25-2.3 1.25m15.2-2.5 2.35 0.3 17.4-2.2-17.4 2.2-2.35-0.3m15.35 14.7 0.7-2.8-0.7 2.8m-10.4 2-1.6 1.25 1.6-1.25m-0.6 1.25 2.05 1.55-2.05-1.55m93 25.5q-0.4-2.65-2.2-5.05 1.8 2.4 2.2 5.05m-88.05 2.1 1.85 0.7-2.4-0.15 2.4 0.15-1.85-0.7m-20.9-17.25-0.15 0.1v-0.05 0.05l0.15-0.1q5.95-1.2 11-3.3 0.2 1 0 2 0.2-1 0-2-5.05 2.1-11 3.3 3.15-1.5 4.8-3.2l1.55-2.35-4.45 2.45-1.85 0.75v-1l4.05-3.3-4.05 3.3v1l1.85-0.75 4.45-2.45-1.55 2.35q-1.65 1.7-4.8 3.2l-0.15 0.05 0.15-0.05m17.05 25.6-0.1 0.6q0 1.85 2.5 3.2-2.5-1.35-2.5-3.2l0.1-0.6-0.2-0.1q-2.7-1.25-6.55-1.25l-4 0.4q-0.55-1.4-3.4-2.45-3.45-1.25-8.35-1.25l-2.9 0.15 2.9-0.15q4.9 0 8.35 1.25 2.85 1.05 3.4 2.45l4-0.4q3.85 0 6.55 1.25l0.2 0.1q0.25-1.2 1.7-2.15l0.8-0.5q2.65-1.35 6.35-1.35t6.3 1.35q2.65 1.35 2.65 3.25 0 1.05-0.85 2 0.85-0.95 0.85-2 0-1.9-2.65-3.25-2.6-1.35-6.3-1.35t-6.35 1.35l-0.8 0.5q-1.45 0.95-1.7 2.15m14.9-7.1-2.3-0.15-1.7-1.25 1.7 1.25 2.3 0.15m-25.65 6.15-2.6 0.85q-2.7 1.3-2.7 3.1l0.05 0.35-0.05-0.35q0-1.8 2.7-3.1l2.6-0.85m12.45-1.2q3.3 3.85 10.55 7.05-7.25-3.2-10.55-7.05m-26.2-25.6-0.15 0.3 0.15-0.3 2.2-4.05-1.15 4.7 1.15-4.7-2.2 4.05-0.15 0.3 0.15-0.3m33.85 21.55-3.65-1.45 6.9 0.4 8.45 6.25q0.7-0.45 1.7-0.9t2.15-0.75l0.8-0.25-5.45-2.25q-0.75 0.2-1.25 0l-2.15-1.4-3.55-2.35 3.55 2.35 2.15 1.4q0.5 0.2 1.25 0l5.45 2.25-0.8 0.25q-1.15 0.3-2.15 0.75t-1.7 0.9l-8.45-6.25-6.9-0.4 3.65 1.45m-24.15-0.85-3.5-1.7 3.5 1.7m-1.8-1.7 8.1 2.55-8.1-2.55m-12 2.7-1.35-0.6q-1.35-0.8-1.35-2t1.35-2.05l0.45-0.2-0.45 0.2q-1.35 0.85-1.35 2.05t1.35 2l1.35 0.6m-7.4-7.5q-2.3 0.2-4.05 1.5-1.8 1.35-2 3.2 0.2-1.85 2-3.2 1.75-1.3 4.05-1.5m1.2-18.05 2.65 3.85 3.15 3.55-3.15-3.55-2.65-3.85m-18.75 4.95q9.05 2.5 20.5 2.5l4.05-0.05-4.05 0.05q-11.45 0-20.5-2.5-1.9 1.15-4.5 1.15l-0.9-0.05 0.9 0.05q2.6 0 4.5-1.15-3.75-1.05-7.1-2.5l-4-2 4 2q3.35 1.45 7.1 2.5m6-0.6-1.9-2.7 1.1 3.5-0.65-0.3-2-4.85-0.3 1.05 0.3-1.05 0.05-0.3-0.9-1.15 0.9 1.15-0.05 0.3 2 4.85 0.65 0.3-1.1-3.5-1.5-1.95 0.5-2.65-0.5 2.65 1.5 1.95 1.9 2.7m3.35 9.05-1.8-1.8 0.5-0.75 0.3-1-0.3 1 1.3 0.45-1.3-0.45-0.5 0.75 1.8 1.8m-4.8-8.55-1.6-0.45-1.9-0.2 1.9 0.2-0.65-0.65 0.65 0.65 1.6 0.45m109.55-2.55 3.1-0.85-3.1 0.85m15.8-0.65 2.1-0.45-2.1 0.45m14.8 19.45v-0.3q0-2.4-3.05-4.15 3.05 1.75 3.05 4.15v0.3m-8.8-8.3-0.55-0.7 0.55 0.7m1.95-6.8-0.85 0.65 0.85-0.65m-2.2 3 3.25-2.55-3.25 2.55m0.3-1.5-1.75 0.65 1.75-0.65m-0.85-0.45 0.7-0.45-0.7 0.45m1.1 2.55 0.45-0.45 0.9-0.45q2.4-1.05 5.75-1.05-3.35 0-5.75 1.05l-0.9 0.45-0.45 0.45m7.75-4.8q0.6 0.4 1.6 0.8l0.35 0.15-0.35-0.15q-1-0.4-1.6-0.8m7.85-3.85-1.5-0.05-3.5 0.4 3.5-0.4 1.5 0.05m-124.75 24.85q1.9 0 3.2-0.85 1.4-0.8 1.4-2 0 1.2-1.4 2-1.3 0.85-3.2 0.85m-18.25-11.4 1.95-0.15 1.2 0.05-1.2-0.05-1.95 0.15m-2.95-1.4 0.25-0.2 1.45-1.2-1.45 1.2-0.25 0.2m116.3 9.7-1.8 0.4 2.1 0.1-0.3-0.5m-18.1 2.25 5.1-1.55-5.1 1.55m2.5 0.85-11.9-1.25 11.9 1.25q1-0.8 3.05-1.45l3.1-0.7-3.1 0.7q-2.05 0.65-3.05 1.45-1.05 0.75-1.05 1.65 0 1.45 2.75 2.6-2.75-1.15-2.75-2.6 0-0.9 1.05-1.65m-13.2 3.05q-1.4 0.85-1.4 1.95 0 1.35 2.05 2.25 2.1 0.95 5 0.95h0.85-0.85q-2.9 0-5-0.95-2.05-0.9-2.05-2.25 0-1.1 1.4-1.95-2.85-0.8-6.3-0.9h-0.25l0.1-0.05 0.45-0.35-0.3 0.4 0.3-0.4-0.45 0.35-0.1 0.05h0.25q3.45 0.1 6.3 0.9l0.65-0.35q2.1-0.9 5-0.9t4.95 0.9q1.85 0.85 2.1 2-0.25-1.15-2.1-2-2.05-0.9-4.95-0.9t-5 0.9l-0.65 0.35m-18.75 1.75q-2.35 1.45-2.35 3.3l0.1 0.65-0.1-0.65q0-1.85 2.35-3.3m10.65-2.65h-0.1l-5.9 0.75 5.9-0.75 0.1-0.1 0.05-1.55-0.05 1.55-0.1 0.1h0.1v-0.1l1.15-1.55-1.15 1.55v0.1h1.55-1.55m3.25-1.3-1.15 0.9 1.15-0.9m-12.25-5.05 1.3 0.15 1.05 0.75-1.05-0.75-1.3-0.15m2.05-1.2 2.4 1.2-2.4-1.2m1.2 1.65-1.95-0.3-3.4-2.4 3.4 2.4 1.95 0.3m21.85-0.35 1.05-0.05-1.05 0.05-3.75 1h-1.15l-2.25-0.15 7.15-0.85-7.15 0.85 2.25 0.15 1.15 0.05v-0.05h0.2l8.35 0.4-8.35-0.4h-0.2v0.05l-1.15-0.05h1.15l3.75-1m-3.75 1.05-2.75 0.7 2.75-0.7 0.2-0.05-0.2 0.05m0.2-2.4 2.15-0.1-2.15 0.1m-0.15-4.75 1.95-0.65-1.95 0.65m0.65 1.85h-0.45 0.45m35.35 9.5h-0.5q-4.8 0-8.2-1.8-1.65-0.9-2.5-1.95 0.85 1.05 2.5 1.95 3.4 1.8 8.2 1.8h0.5m-5-27.8-1.3 0.35-12.2 1.35 12.2-1.35 1.3-0.35m4.45 15.5-4.9 0.2 1.85-1.45-1.85 1.45 4.9-0.2m-6.65-1.9-0.1 0.15-1.25 0.15 1.35-0.3-1.35 0.3 1.25-0.15 0.1-0.15m-54.75-38.4-0.2 1.6 0.1 1.2-0.1-1.2 0.2-1.6m-1.35 4.4 1.7-0.05-1.7 0.05m0.05 46.3 3.4 1.4-3.4-1.4m-1.1-28.2 3-2.2-3 2.2m-36.65 0.45-1.4 2.5 1.4-2.5m14.85 5.4q-0.6-2.65-4.55-5.3 0.4 1.6-0.1 3.05 0.5-1.45 0.1-3.05 3.95 2.65 4.55 5.3" fill="#333" fill-rule="evenodd"/>
<path d="m354.3 188.1 0.75-0.05q3.25 0 5.55 1t2.3 2.4-2.3 2.4-5.55 1l-3.95-0.45-1.6-0.55q-2.3-1-2.3-2.4t2.3-2.4q2-0.9 4.8-0.95m-4.2 7.25q1.85 0.15 3.25 0.75 1.95 0.8 1.95 1.95t-1.95 1.95-4.75 0.8l-4.4-0.65-0.35-0.15q-1-0.4-1.6-0.8m-0.65 2.85h0.1q3.4 0 5.8 1.05 2.45 1.05 2.45 2.55t-2.45 2.55q-2.4 1.05-5.8 1.05l-1.25-0.05q-2.6-0.15-4.6-1-1.1-0.45-1.65-1m7.35 3.3 3.45-0.4q2.8 0 4.75 0.8t1.95 1.95-1.95 1.95-4.75 0.8l-1.25-0.05-0.75-0.05q-0.2 2.35-3.4 4.05t-7.65 1.8l0.05 0.5q0 1.8-4.15 3.05-4.1 1.3-9.95 1.3t-10-1.3l-1.35-0.45m-2.2 0.45v0.3q0 1.35-2.1 2.25-1.75 0.8-4.1 0.95-0.05 2.4-4.05 4.1-4.05 1.75-9.75 1.75t-9.75-1.75q-3.55-1.5-3.95-3.55l-0.1-0.65q0-1.85 2.35-3.3 0.7-0.45 1.7-0.9t2.15-0.75l0.8-0.25-5.45-2.25q-0.75 0.2-1.25 0l-2.15-1.4-3.55-2.35m3.65 11.5-1.8 1.25q-1.3 0.7-2.9 1.05l-3.4 0.3q-3.7 0-6.35-1.35l-0.1-0.05q-0.5 1.3-2.6 2.25-2.7 1.3-6.55 1.3t-6.6-1.3q-2.45-1.15-2.65-2.7l-6.5 0.7q-4.9 0-8.4-1.3-3.45-1.25-3.45-3.05t3.45-3.1q2.4-0.85 5.5-1.1l2.9-0.15q4.9 0 8.35 1.25 2.85 1.05 3.4 2.45l4-0.4q3.85 0 6.55 1.25l0.2 0.1q0.25-1.2 1.7-2.15l0.8-0.5q2.65-1.35 6.35-1.35t6.3 1.35q2.65 1.35 2.65 3.25 0 1.05-0.85 2m-43.45-8.4h-0.1l-2-0.25-1.5 1.5q-2.05 1.55-4.95 1.55t-5-1.55q-2.05-1.55-2.05-3.75l0.05-0.55h-0.75q-3.4 0-5.8-1.25t-2.4-3 2.4-3q1.65-0.85 3.85-1.1m-2.95-1.4q-2.2 1.3-5.2 1.3-3.2 0-5.5-1.5-2.25-1.45-2.25-3.55 0-1.8 1.7-3.2-2.25-0.2-3.9-1.3-2-1.3-2-3.15l0.2-1.15q0.45-1.15 1.8-2.05 1.45-0.95 3.3-1.2h0.25l-0.2-0.1-0.15-0.1q-1.25-0.6-1.25-1.5t1.25-1.55q1.3-0.6 3.1-0.6h0.3q1.6 0.05 2.75 0.6 1.3 0.65 1.3 1.55t-1.3 1.5l-1.6 0.55-1.45 0.1-2.75-0.45m11.3-8.35q-0.9-0.6-0.9-1.35 0-1.2 2.35-2.05 2.35-0.8 5.65-0.8l3.95 0.35 0.1 0.05 0.25 0.05 0.7-0.25-0.05-0.15-0.05-0.35q0-0.95 1.4-1.6t3.4-0.65h0.5q1.7 0.1 2.9 0.65l0.95 0.6 0.35 0.5 0.1 0.5q0 0.95-1.4 1.6l-3.4 0.65-2.35-0.25q0.65 0.5 0.65 1.15 0 1.2-2.35 2-2.35 0.85-5.65 0.85l-4.25-0.45-0.6-0.15-0.8-0.25-0.35-0.1-1.1-0.55m17.9-7.9 0.05-0.1 1.15-0.7 3-0.35 3 0.35q1.25 0.4 1.25 0.95t-1.25 0.9l-1.4 0.3-2.55 1.05m72.7-8.1 1.95-0.15q2.9 0 4.95 0.9 1.05 0.45 1.6 1 0.5 0.55 0.5 1.15 0 1.2-1.85 2.05l-0.25 0.1q-2.05 0.9-4.95 0.9l-3.2-0.3-0.35-0.1-0.15 2.55m41.05 0.55 2.15-0.2q2 0 3.4 0.6 1.45 0.6 1.45 1.45l-0.1 0.45q-0.25 0.55-1.35 1l-0.85 0.3m0.3 0.25q1.5-0.65 3.4-0.65 2.4 0 4.1 1 1.75 1 1.75 2.4 0 0.95-0.75 1.7l-1 0.7q-1.7 1-4.1 1l-1.75-0.15-0.3-0.05-0.4-0.1q-0.8-0.2-1.45-0.55v2.3m-71.15-16.65 4.45-0.15 15.05-4.85m-19 6.1 3.95-1.25m-3.6-1.05-1.3-0.35-1.25-0.3m1.7 3.1 0.5-0.15m24.85 11.5 0.05-0.3v-2.55l-0.1-1.25 1.6 1.4 1.15 1.7 0.65 1.5q1 2.95 0.45 7.2 6.2-2.9 6.75-6.65 0.1-1-0.15-2.05l2.65 2.15q2.5 2.55 1.9 5.15m25.1-8.25-2.7-2.05m-55.45 7.7 1.1 1q0.1-1.3-0.55-2.6-0.95-1.7-3.15-3.35l-0.95-0.7 0.15 0.8q0.45 4.15-5.55 7.35l-1.2 0.6 0.05-0.7 0.05-0.2 0.05-0.35v-0.1l-0.75 0.55m15.8 2.25-3.95-3.55-0.1 0.7m-17.2-2.75 0.35-1.55-2.4 2.25q0.75 1.2 0.8 2.75l1.45-1.35 0.65-0.95q1.5-2.5 1.5-6.55v-0.5l-0.15-1.8 1.15 0.95 1.5 1.95q0.85 1.55 1.2 3.55 0.3 1.8 0.15 4.05l3-2.1 1.9-1.45-4.05 4.4m17.8 0-3.8-6.6q5.5 0.95 7.9 3.25 1.75 1.65 1.85 4.05 3.1-2.1 3.5-7m-13.05 2.25 1.85 4.55m-1.25-0.4-1.25-3.3m41.3-15.15-6.3 0.35q-0.1 0.75-1.5 1.25l-0.3 0.15-1.35 0.3-1.9 0.15h-0.95l-0.85-0.1-1.8-0.5-1.2-0.75-2.3 0.1m2.3-0.1-0.25-0.65q0-0.85 1.45-1.45 1.5-0.55 3.6-0.55t3.55 0.55q1.5 0.6 1.5 1.45v0.15m-10.25 2.95 1.25-0.05 2.95-0.05m-5.45-1-4.55 0.85m-4.85-1.5-1.45-0.5q-2.05-0.9-2.05-2.15 0-1 1.4-1.8l0.5-0.25 0.15-0.1q1.35-0.6 3.05-0.75m7.2 7.7-6.85 0.8m-6.9-7.7-10.6 1.45m12.5-2.05-3.95-0.9m41.4 9.4-1.65 0.2-22.3-0.7m4.4 15.5 4.15-0.2m5 0.4h7.7m-2.9-17.05-5-1.05m18 7.6-1.3-1.15-0.9-0.3q-1.15-0.5-1.35-1.15l-1.55-1.05m1.55 1.05-0.05-0.3q0-0.85 1.4-1.45l1.3-0.4m3.3 3.85 1.4-0.25m-3.15 0.9 1.1 1.55 0.2-0.55q0.4-0.75 1.4-1.3l0.75-0.35m-1.7 0-1.15 0.05-1-0.05q0.15 0.45 0.4 0.6v0.05m-2.8 0.95 0.6 0.45m1.8-2.05-0.6-0.05-0.95-0.2m3.3 5-1.7-1.05m3.3 1.6-0.25-0.15q-1.7-1-1.7-2.4l0.1-0.55m4.3 7-0.35-1.75m-13.3-9.55 3.3 0.6m-135.3 18.7 0.3-0.2 0.75-0.55q1.25-1.1 1.25-2.6l-0.05-0.55q-0.25-1.5-1.95-2.65-0.85-0.55-1.85-0.85m7.6-6.3 1.75-1.5m-2.4 3.6 3-3.45m-5.6 6.6 1.15-2.3m-1.05-3.35-0.8 4.8m27.15-13.35-1.6 0.1-3-0.4q-1.25-0.35-1.25-0.9l0.05-0.15m-5.85 4.3 0.45 0.1-0.2-0.2-0.25 0.1-0.65-0.15m0.9 0.05-0.2-0.3m2.35 1.5-1.05-0.4-0.9-0.6m17.35 18.2 1.15-0.9q-0.2-5.45-3.75-8.2l-0.3-0.2 0.05 0.35 0.1 2.7q-0.15 4.75-2.55 7.2l-0.6 0.55q-0.2 0.15-0.45 0.35l-0.15-1.05v-0.2q-0.4-1.45-1.45-2.6l-0.05-0.05q-1.8-1.85-5.4-2.85l-2.15-0.45-0.55-0.1 1.1 1.95q0.95 1.1 0.6 1l3.8 6.35m11.55-1.35 0.2-2.4-0.7 0.3m23.35-11.3q1.2 0.85 1.85 2l-0.65 0.8m7.45-19.65-17.4 2.2-2.35-0.3m-12.9 1.25-2.3 1.25m-1.25 3.95 11.65-6.85-5.8 0.4m22.25-0.2-2.95 0.45-1.65 1.35-0.7 0.9 3.65-1.45m-1.3-0.8-2.65 0.4m-0.2 2.05 0.5-0.2m4.75 12.45q-1.55-1.2-4.1-1.9l-2.55-0.6-0.45-0.1 3.8 6.65m-4.25-5.05 1.4 2.75 1.45 2.8 1 0.85m-1-0.85-2.05-1.55m-1 0 1.6-1.25m11.1-4.8-0.7 2.8m69.65 22.25h0.05q4.8 0 8.15 1.8l0.35 0.2 0.3-0.15 1.3-0.4m-86.4 7.7 2.4 0.15-1.85-0.7m-9.9-20.55q0.2 1 0 2m-11 1.3q3.15-1.5 4.8-3.2l1.55-2.35-4.45 2.45-1.85 0.75v-1l4.05-3.3m-4.25 6.7v0.05l0.15-0.1m1.05 28.95-0.05-0.35q0-1.8 2.7-3.1l2.6-0.85m21.65-7.55 1.7 1.25 2.3 0.15m-12.5 10.9q-2.5-1.35-2.5-3.2l0.1-0.6m-8.5-6.2-8.1-2.55m-1.7 0 3.5 1.7m27.4-0.2 8.45 6.25m-8.45-6.25-6.9-0.4 3.65 1.45m-32.8-20.9 1.15-4.7-2.2 4.05-0.15 0.3 0.15-0.3m-4.5 3.55 0.65 0.7-0.4-0.7m-0.25 0-3.15-3.55-2.65-3.85m-7.25 22.75q0.2-1.85 2-3.2 1.75-1.3 4.05-1.5m6.5 2.65-0.45 0.2q-1.35 0.85-1.35 2.05t1.35 2l1.35 0.6m-24.95-20.6q-1.9 1.15-4.5 1.15l-0.9-0.05m7.65-5 0.3-1.05 0.05-0.3-0.9-1.15m-0.65 5.65 1.9 0.2-0.65-0.65m0.25-3.75 2 4.85 0.65 0.3-1.1-3.5-1.5-1.95 0.5-2.65m-0.15 7.35 1.6 0.45m3.8 5-0.3 1 1.3 0.45m-1.3-0.45-0.5 0.75 1.8 1.8m-5.25-11.75 1.9 2.7m1.55 7.25-1.45 1.2-0.25 0.2m6.1 1.3-1.2-0.05-1.95 0.15m22.85 8.55q0 1.2-1.4 2-1.3 0.85-3.2 0.85m119.75-24.5 3.5-0.4 1.5 0.05m-8.5 6.7q-3.35 0-5.75 1.05l-0.9 0.45-0.45 0.45m-0.4-3-0.7 0.45m-0.9 1.1 1.75-0.65m2.95-1.05-3.25 2.55m1.35-2.35 0.85-0.65m-2.5 6.1 0.55 0.7m5.75 3.85q3.05 1.75 3.05 4.15v0.3m-12.7-19.9-2.1 0.45m-12.7-0.2-3.1 0.85m6.25 20.8 2.1 0.1-0.3-0.5m4.3-9.95-1.35 0.3 1.25-0.15 0.1-0.15m3.6 0.65-1.85 1.45 4.9-0.2m-17.95-13.8 12.2-1.35 1.3-0.35m-6.2 24.05q0.85 1.05 2.5 1.95 3.4 1.8 8.2 1.8h0.5m-35.8-9.5h0.45m1.3-2.5-1.95 0.65m-1.2 7.1h1.15l3.75-1-7.15 0.85 2.25 0.15 1.15 0.05v-0.05h0.2l8.35 0.4m-6.2-2.85-2.15 0.1m-0.2 2.4 0.2-0.05m-2.95 0.75 2.75-0.7m4.8-1.1-1.05 0.05m-27.2-2.35 3.4 2.4 1.95 0.3m1.2-0.45-2.4-1.2m0.3 2.1-1.05-0.75-1.3-0.15m10.65 6.3-0.1 0.05h0.25l0.3-0.4-0.45 0.35m0.45-0.35 1.15-0.9m-2.1-0.35-1.15 1.55v0.1h1.55m-7.55 0.75 5.9-0.75 0.1-0.1 0.05-1.55m-0.15 1.65h0.1m1.8 0q3.45 0.1 6.3 0.9l0.65-0.35q2.1-0.9 5-0.9t4.95 0.9q1.85 0.85 2.1 2m6.65-6.85-3.1 0.7q-2.05 0.65-3.05 1.45-1.05 0.75-1.05 1.65 0 1.45 2.75 2.6m-8.4 3.95h-0.85q-2.9 0-5-0.95-2.05-0.9-2.05-2.25 0-1.1 1.4-1.95m1.3-4.3 11.9 1.25m2.6-2.4-5.1 1.55m-61.2-24.5q0.5-1.45 0.1-3.05 3.95 2.65 4.55 5.3m-16.25-2.9 1.4-2.5m39.65-2.65-3 2.2m4.5 29.6-3.4-1.4m1.65-46.35-1.7 0.05" fill="none" stroke="#000" stroke-linecap="round" stroke-linejoin="round" stroke-width="2.5"/>
<path d="m340.45 209.2 1.1 1.3q1.8 2.4 2.2 5.05m-73.85-44 0.45 1.55 0.5 1.1q2.5 4.4 11.1 7.8 6.2 2.5 13.75 3.7l3.35 0.5 7.2 0.55 2.5 0.1h2.55q13.85 0 24.45-3.1m8.15-3.15-3.25 1.4-0.35 0.15m-1.75 0.65 1.75-0.65m-1.75 0.65-0.65 0.25-2.15 0.7m-112.65 18.05 11.55-1.35m5.9-29.75q3.05 0.9 5.8 2.1 11.45 5 11.45 12.05l-0.3 2.2m-3.7 5.4q2.9-2.5 3.7-5.4m-3.95 36.8q-2.75-3.25-2.75-7 0-8.3 13.6-14.15 13.65-5.85 32.9-5.85t32.85 5.85q6.85 2.95 10.3 6.5m-86.65-16.75q-2.75 2.35-7.45 4.4l-0.55 0.25q-5.05 2.1-11 3.3l-0.15 0.05m29.45 30.45q-7.25-3.2-10.55-7.05m-30.45-22.05h-0.25l-4.05 0.05q-11.45 0-20.5-2.5-3.75-1.05-7.1-2.5l-4-2m82.7-23.3-0.1-1.2 0.2-1.6" fill="none" stroke="#c6c600" stroke-linecap="round" stroke-linejoin="round" stroke-width="3.25"/>
</g>
</defs>
</svg>
