<?xml version="1.0" encoding="UTF-8"?>
<svg version="1.1" viewBox="0 0 130.85 75.15" xmlns="http://www.w3.org/2000/svg" xmlns:cc="http://creativecommons.org/ns#" xmlns:dc="http://purl.org/dc/elements/1.1/" xmlns:rdf="http://www.w3.org/1999/02/22-rdf-syntax-ns#" xmlns:xlink="http://www.w3.org/1999/xlink">
<metadata>
<rdf:RDF>
<cc:Work rdf:about="">
<dc:format>image/svg+xml</dc:format>
<dc:type rdf:resource="http://purl.org/dc/dcmitype/StillImage"/>
</cc:Work>
</rdf:RDF>
</metadata>
<g transform="translate(-276.25 -110.2)">
<use transform="translate(276.25,110.2)" width="130.85001" height="75.150002" xlink:href="#b"/>
</g>
<defs>
<g id="b" transform="translate(-13.2 .1)">
<use transform="translate(13.2,14.75)" width="53.299999" height="47.849998" xlink:href="#e"/>
<use transform="translate(33.15,6.2)" width="110.9" height="35.150002" xlink:href="#a"/>
<use transform="translate(34.2 -.1)" width="91.550003" height="75.150002" xlink:href="#c"/>
</g>
<g id="e" transform="translate(-13.2,-14.75)">
<path d="m13.9 35.25v0.1l2.5 0.15 5.75-0.55q7.1-1.35 13.7-6.4 1.4-3.05 3.7-5.5-6.1 0.85-11.8 5.1l-0.6 0.45-0.25 0.2-0.35 0.3-0.3 0.2-3.55 2.3q-6.1 3.65-8.8 3.65m32.25 12.85q3.9-4.85 7.65-10.55l1-3.55q-3.75-5.55-5.1-13.65-1.6 2.35-2.1 5.65l-0.05 0.25q-0.1 8-2.55 15.4l1.15 6.45m11.9-22.4 0.9-1.3q0.6-0.5 1.6-3.15l5.3-6.4q-2.3 0.5-5.25 2.25-2.7 1.5-4 2.85-0.65 4.2 1.45 5.75" fill="#a6b60e" fill-rule="evenodd"/>
<path d="m36.15 58.25 3.9-3.4 6.1-6.75-1.15-6.45q2.45-7.4 2.55-15.4l-0.2-0.05q-5.7 4.05-7.85 9.85-0.55 9.15-3.05 15.55h0.05q4-4.45 6.4-4.55l2.1-5.4-2.1 5.4q-2.65 5.8-6.75 11.2m18.65-24.25 1.25-3.75q1.1-3 2-4.55-2.1-1.55-1.45-5.75-0.45-0.7 0.15-2.7 0.35-1.1 0.8-1.7l0.25-0.4-2 0.1-4.4 0.6q-2.1 0.4-4.05 1.4-0.45 0.15-0.85 0.45l-0.25 0.1q-2.8 1.5-5.4 4 5.2-3.65 11.9-4.3-1.8 1.1-2.9 2.75l-0.15 0.1q1.35 8.1 5.1 13.65m-2.05-16.5q1.95-1.4 4.8-1.95-2.85 0.55-4.8 1.95" fill="#82840d" fill-rule="evenodd"/>
<path d="m27.75 28.15q5.7-4.25 11.8-5.1-2.3 2.45-3.7 5.5-1 2.05-1.5 4.45l-1.8 8.1q-1.45 4-5.4 8 4.45-1.25 7.65-5.8l4.3-6.85 0.4-0.4q2.15-5.8 7.85-9.85l0.25-0.2q0.5-3.3 2.1-5.65l0.15-0.1q1.1-1.65 2.9-2.75-6.7 0.65-11.9 4.3 2.6-2.5 5.4-4l0.25-0.1q0.4-0.3 0.85-0.45-5-1.6-10.1 1.3-4.3 2.45-6.75 6.55-0.8 1.4-2.75 3.05m8.7 23.5q-2.55 6.3-7.45 10.85 1.9-0.6 5.2-2.85l1.95-1.4q4.1-5.4 6.75-11.2-2.4 0.1-6.4 4.55l-0.05 0.05m24.1-30.4q-0.5 3.1 0.85 5.5t4.45 5.15l-0.05-9.8q0-5.8 0.6-6.7l-0.55-0.55-5.3 6.4m-21 1.8 0.45-0.45 0.85-0.8-0.85 0.8-0.45 0.45" fill="#8c980d" fill-rule="evenodd"/>
<path d="m13.9 35.25q2.7 0 8.8-3.65l3.55-2.3 0.3-0.2 0.35-0.3 0.25-0.2 0.6-0.45m8.1 0.4q-6.6 5.05-13.7 6.4l-5.75 0.55-2.5-0.15-0.6-0.05 0.6-0.05m22.55 16.35v0.05q-2.55 6.3-7.45 10.85 1.9-0.6 5.2-2.85l1.95-1.4 3.9-3.4 6.1-6.75q3.9-4.85 7.65-10.55l1-3.55 1.25-3.75q1.1-3 2-4.55l0.9-1.3q0.6-0.5 1.6-3.15-0.5 3.1 0.85 5.5t4.45 5.15l-0.05-9.8q0-5.8 0.6-6.7l-0.55-0.55q-2.3 0.5-5.25 2.25-2.7 1.5-4 2.85-0.45-0.7 0.15-2.7 0.35-1.1 0.8-1.7l0.25-0.4-2 0.1-4.4 0.6q-2.1 0.4-4.05 1.4-5-1.6-10.1 1.3-4.3 2.45-6.75 6.55-0.8 1.4-2.75 3.05m8.7 23.45q2.5-6.4 3.05-15.55m-3 15.55-0.05 0.05m-0.6-23.1q-1 2.05-1.5 4.45l-1.8 8.1q-1.45 4-5.4 8 4.45-1.25 7.65-5.8l4.3-6.85 0.4-0.4m8.1-10.05-0.05 0.25m-0.2-0.05 0.25-0.2m-0.25-8.75q-0.45 0.15-0.85 0.45l-0.25 0.1q-2.8 1.5-5.4 4" fill="none" stroke="#000" stroke-linecap="round" stroke-linejoin="round" stroke-opacity=".3098" stroke-width=".2"/>
<path d="m27.75 28.15q5.7-4.25 11.8-5.1-2.3 2.45-3.7 5.5m7.05 18.5q-2.4 0.1-6.4 4.55m3-15.55q2.15-5.8 7.85-9.85m0.2 0.05q-0.1 8-2.55 15.4l-2.1 5.4q-2.65 5.8-6.75 11.2m11.45-32.25q0.5-3.3 2.1-5.65 1.35 8.1 5.1 13.65m-13.95-12.2-0.85 0.8-0.45 0.45m5.45 18.6 1.15 6.45m-5.3-26.3q5.2-3.65 11.9-4.3-1.8 1.1-2.9 2.75l-0.15 0.1m7.85-4.8q-2.85 0.55-4.8 1.95m3.85 2.45q-0.65 4.2 1.45 5.75m2.5-4.45 5.3-6.4" fill="none" stroke="#3f4006" stroke-linecap="round" stroke-linejoin="round" stroke-opacity=".4" stroke-width=".2"/>
<path d="m65.85 14.85 0.55 0.55q-0.6 0.9-0.6 6.7l0.05 9.8q-3.1-2.75-4.45-5.15t-0.85-5.5q-1 2.65-1.6 3.15l-0.9 1.3q-0.9 1.55-2 4.55l-1.25 3.75-1 3.55q-3.75 5.7-7.65 10.55l-6.1 6.75-3.9 3.4-1.95 1.4q-3.3 2.25-5.2 2.85 4.9-4.55 7.45-10.85l0.05-0.05h-0.05q2.5-6.4 3.05-15.55l-0.4 0.4-4.3 6.85q-3.2 4.55-7.65 5.8 3.95-4 5.4-8l1.8-8.1q0.5-2.4 1.5-4.45-6.6 5.05-13.7 6.4l-5.75 0.55-2.5-0.15v-0.1q2.7 0 8.8-3.65l3.55-2.3 0.3-0.2 0.35-0.3 0.25-0.2 0.6-0.45q1.95-1.65 2.75-3.05 2.45-4.1 6.75-6.55 5.1-2.9 10.1-1.3 1.95-1 4.05-1.4l4.4-0.6 2-0.1-0.25 0.4q-0.45 0.6-0.8 1.7-0.6 2-0.15 2.7 1.3-1.35 4-2.85 2.95-1.75 5.25-2.25m-18.3 11.4 0.05-0.25-0.25 0.2 0.2 0.05" fill-opacity=".27843" fill-rule="evenodd"/>
</g>
<g id="a" transform="translate(.1 .1)">
<use transform="translate(-.1 -.1)" width="110.9" height="35.150002" xlink:href="#d"/>
</g>
<g id="d" transform="translate(.1 .1)">
<path d="m76.7 0.4 0.1 0.1-1.7 1.85q-2.2 2.1-5.6 3.75-8.05 4.05-21.95 5.15-6.35-1.15-12.4-1.25 6.45-3.7 18.25-4.75l1.3-0.1 0.5-0.05 0.75-0.05 0.65-0.05 6.7-0.9q11.2-1.75 13.4-3.7m-4.4 32-24.05-2-6.8-1.75q-6.35-6.65-19-13.3 5.2 0.5 11.2 2.5l0.5 0.15q13.6 5.55 28.15 9.05l10 5.35m-47.6-7.35-2.9-0.25q-1.4 0.05-6.6-1.1l-15.2-0.8q2.7-1.25 8.05-2.15l8.05-0.8q7.75 2.55 8.6 5.1" fill="#88950b" fill-rule="evenodd"/>
<path d="m97.75 32.5-9.05 0.35-16.4-0.45-10-5.35q-14.55-3.5-28.15-9.05v-0.2q11.55-1.2 23.1 1.35 16 6.15 28.85 8.85v0.05q-10.8-0.3-12.95 1.3l-10.85-2.3 10.85 2.3q12 2.2 24.6 3.15m-56.3-3.85-7.45-1.8-9.3-1.8q-0.85-2.55-8.6-5.1-0.85-0.8-4.75-1.8l-3.45-0.65-0.9-0.1 1.8-1.35q2.25-1.7 4.55-2.75 2.45-1.15 5.65-1.85l1.5-0.3 0.4-0.1 11.1-1q-10.35 1.1-16.9 5.4 3.3-0.45 7-0.1h0.35q12.65 6.65 19 13.3m-26.35-13.2q-3.9 0.45-7.2 2.05 3.3-1.6 7.2-2.05" fill="#6a6c0a" fill-rule="evenodd"/>
<path d="m53.4 5.25q-11.8 1.05-18.25 4.75 6.05 0.1 12.4 1.25 4.3 0.8 8.7 2.05l15.25 4.55q7.95 1.75 17.95 1.75-5.75 2.3-16 1.35l-15.2-1.8h-1q-11.55-2.55-23.1-1.35l-0.5 0.05q-6-2-11.2-2.5h-0.35q-3.7-0.35-7 0.1 6.55-4.3 16.9-5.4l2.1-0.05h1.05-1.05l-2.1 0.05-11.1 1-0.4 0.1-1.5 0.3q1.35-4.7 10.45-6.25 7.55-1.35 16.5-0.15l7.45 0.2m32.8 22.8q12.7 2.6 24.5 2.35-2.6 0.95-9.15 1.7l-3.8 0.4q-12.6-0.95-24.6-3.15 2.15-1.6 12.95-1.3h0.1m-71-4.35q5.55 1.8 8.6 4.5 3 2.65 5.1 6.75l-16.6-6.95q-9.8-4.1-11.8-4.3 0-0.35-0.5-0.8l15.2 0.8" fill="#727c0a" fill-rule="evenodd"/>
<path d="m76.7 0.4q-2.2 1.95-13.4 3.7l-6.7 0.9-0.65 0.05-0.75 0.05-0.5 0.05-1.3 0.1m-5.85 6q13.9-1.1 21.95-5.15 3.4-1.65 5.6-3.75l1.7-1.85 0.35-0.5-0.45 0.4m9.4 27.6 0.1 0.05q12.7 2.6 24.5 2.35-2.6 0.95-9.15 1.7l-3.8 0.4-9.05 0.35-16.4-0.45-24.05-2-6.8-1.75-7.45-1.8-9.3-1.8-2.9-0.25q-1.4 0.05-6.6-1.1 5.55 1.8 8.6 4.5 3 2.65 5.1 6.75l-16.6-6.95q-9.8-4.1-11.8-4.3 0-0.35-0.5-0.8 2.7-1.25 8.05-2.15l8.05-0.8q-0.85-0.8-4.75-1.8l-3.45-0.65-0.9-0.1 1.8-1.35q2.25-1.7 4.55-2.75 2.45-1.15 5.65-1.85 1.35-4.7 10.45-6.25 7.55-1.35 16.5-0.15l7.45 0.2m32.7 22.75q-12.85-2.7-28.85-8.85m28.85 8.9h0.1m-38.65-16.8q4.3 0.8 8.7 2.05l15.25 4.55q7.95 1.75 17.95 1.75-5.75 2.3-16 1.35l-15.2-1.8h-1m-23.1-1.35-0.5 0.05 0.5 0.15m-15.15-6.55 1.5-0.3 0.4-0.1 11.1-1" fill="none" stroke="#000" stroke-linecap="round" stroke-linejoin="round" stroke-opacity=".3098" stroke-width=".2"/>
<path d="m53.4 5.25q-11.8 1.05-18.25 4.75 6.05 0.1 12.4 1.25m25.6 18.1q2.15-1.6 12.95-1.3m-28.85-8.9q-11.55-2.55-23.1-1.35m0 0.2q13.6 5.55 28.15 9.05l10.85 2.3q12 2.2 24.6 3.15m-65.75-22.45 2.1-0.05h1.05m27.15 17.05 10 5.35m-40.3-22.35q-10.35 1.1-16.9 5.4 3.3-0.45 7-0.1h0.35q5.2 0.5 11.2 2.5m-25.75-0.35q3.3-1.6 7.2-2.05m1 4.5q7.75 2.55 8.6 5.1m-9.5-1.35-15.2-0.8m22.45-7.55q12.65 6.65 19 13.3" fill="none" stroke="#333404" stroke-linecap="round" stroke-linejoin="round" stroke-opacity=".4" stroke-width=".2"/>
</g>
<g id="c" transform="translate(-34.2 .1)">
<path d="m64.25 21.8q0 1.35-1.85 2.3t-4.45 0.95q-2.55 0-4.4-0.95t-1.85-2.3 1.85-2.35q1.85-0.95 4.4-0.95 2.6 0 4.45 0.95 1.85 1 1.85 2.35" fill-opacity=".4902" fill-rule="evenodd"/>
<path d="m47.75 12 1.05 1.3q2.7 2.85 6.55 2.85 2.9 0 5.15-1.6l1.4-1.25q2.75-2.9 2.75-6.95 0-2.6-1.1-4.7l1.8 1.55q3 3.2 3 7.7 0 4.55-3 7.75-3.05 3.2-7.3 3.2-4.3 0-7.3-3.2-2.65-2.8-3-6.65" fill="#c96" fill-rule="evenodd"/>
<path d="m63.55 1.65q1.1 2.1 1.1 4.7 0 4.05-2.75 6.95l-1.4 1.25q-2.25 1.6-5.15 1.6-3.85 0-6.55-2.85l-1.05-1.3-0.05-1.1q0-4.5 3.05-7.7 3-3.2 7.3-3.2 3.05 0 5.5 1.65m-10.9 5.65q0 1.05 0.7 1.8t1.7 0.75 1.7-0.75 0.7-1.8-0.7-1.8-1.7-0.75-1.7 0.75-0.7 1.8" fill="#fc3" fill-rule="evenodd"/>
<path d="m52.65 7.3q0-1.05 0.7-1.8t1.7-0.75 1.7 0.75 0.7 1.8-0.7 1.8-1.7 0.75-1.7-0.75-0.7-1.8" fill="#ff9" fill-rule="evenodd"/>
<path d="m47.75 12q0.35 3.85 3 6.65 3 3.2 7.3 3.2 4.25 0 7.3-3.2 3-3.2 3-7.75 0-4.5-3-7.7l-1.8-1.55q-2.45-1.65-5.5-1.65-4.3 0-7.3 3.2-3.05 3.2-3.05 7.7z" fill="none" stroke="#282828" stroke-linecap="round" stroke-linejoin="round" stroke-opacity=".4" stroke-width=".2"/>
<path d="m123.75 40.15v0.1l-3.25 0.4q-3.9 0.35-8.45-0.2-11-1.15-24.3-6.9-4.6-3.6-9.85-6.5 9.25 0.6 20.7 5.4l1.25 0.55 0.5 0.2 0.65 0.3 0.6 0.3 6.8 2.5q11.55 4.1 15.35 3.85m-34.05 18.3q-9.45-5.65-19.4-12.35l-4.35-4.3q0.6-7.15-4.35-17.25 4.15 2.75 7.6 6.8l0.35 0.3q6.8 9.8 16.35 18.8l3.8 8m-35.2-26.65-2.35-1.55q-1.3-0.6-4.8-3.75l-12.7-7.5q3.55 0.45 9.15 2.35 4.95 1.7 7.9 3.2 4.45 5.2 2.8 7.25" fill="#a6b60e" fill-rule="evenodd"/>
<path d="m112.15 70.3-8.3-3.95q-6.9-3.6-14.15-7.9l-3.8-8q-9.55-9-16.35-18.8l0.15-0.15q11.35 4.6 19.2 11.6 8.35 11.3 17.2 18.95l-0.05 0.05q-9.25-5.2-12.65-5.2l-7.5-6.45 7.5 6.45q8.5 6.95 18.75 13.4m-46.2-28.5-4.9-4.6-6.55-5.4q1.65-2.05-2.8-7.25 0-0.85-2.5-3.3-1.35-1.3-2.45-2l-0.7-0.55h2.8l6.65 0.35q3.25 0.45 6.75 1.45l1.65 0.5 0.4 0.15q5.1 1.6 10.75 4.5-10.15-4.1-20-4.4 3.35 1.25 6.25 3.15l0.3 0.15q4.95 10.1 4.35 17.25m-10.9-20.55q-3.9-1.55-8.3-2 4.4 0.45 8.3 2" fill="#82840d" fill-rule="evenodd"/>
<path d="m98.6 32.45q-11.45-4.8-20.7-5.4 5.25 2.9 9.85 6.5 3.05 2.5 5.75 5.35l9.2 9.95q5.4 4.75 14.25 9.4-7.25-1.2-15.4-6.55-8.2-5.35-11.75-8.15l-0.9-0.45q-7.85-7-19.2-11.6l-0.5-0.15q-3.45-4.05-7.6-6.8l-0.3-0.15q-2.9-1.9-6.25-3.15 9.85 0.3 20 4.4-5.65-2.9-10.75-4.5l-0.4-0.15-1.65-0.5q5.6-2.35 15.15 0.85 7.95 2.65 14.75 7.55 2.35 1.65 6.45 3.55m7.55 29.7q8.8 7.5 19.5 12.8-3.2-0.6-9.7-3.15l-3.8-1.5q-10.25-6.45-18.75-13.4 3.4 0 12.65 5.2l0.1 0.05m-58.8-35.65q3.2 3.7 3.35 6.9 0.15 3-1.8 6.6l-8.2-12.1q-4.8-7.1-6.4-8.2 0.35-0.2 0.35-0.7l12.7 7.5m30.55 0.55-0.9-0.5-1.95-0.9 1.95 0.9 0.9 0.5" fill="#8c980d" fill-rule="evenodd"/>
<path d="m123.75 40.15q-3.8 0.25-15.35-3.85l-6.8-2.5-0.6-0.3-0.65-0.3-0.5-0.2-1.25-0.55m-10.85 1.1q13.3 5.75 24.3 6.9 4.55 0.55 8.45 0.2l3.25-0.4 0.8-0.15-0.8 0.05m-17.65 21.9 0.05 0.1q8.8 7.5 19.5 12.8-3.2-0.6-9.7-3.15l-3.8-1.5-8.3-3.95q-6.9-3.6-14.15-7.9-9.45-5.65-19.4-12.35l-4.35-4.3-4.9-4.6-6.55-5.4-2.35-1.55q-1.3-0.6-4.8-3.75 3.2 3.7 3.35 6.9 0.15 3-1.8 6.6l-8.2-12.1q-4.8-7.1-6.4-8.2 0.35-0.2 0.35-0.7 3.55 0.45 9.15 2.35 4.95 1.7 7.9 3.2 0-0.85-2.5-3.3-1.35-1.3-2.45-2l-0.7-0.55h2.8l6.65 0.35q3.25 0.45 6.75 1.45 5.6-2.35 15.15 0.85 7.95 2.65 14.75 7.55 2.35 1.65 6.45 3.55m7.5 29.6q-8.85-7.65-17.2-18.95m17.15 19 0.1 0.05m-18.4-28.6q3.05 2.5 5.75 5.35l9.2 9.95q5.4 4.75 14.25 9.4-7.25-1.2-15.4-6.55-8.2-5.35-11.75-8.15l-0.9-0.45m-19.7-11.75 0.35 0.3m0.15-0.15-0.5-0.15m-6.95-10.85 1.65 0.5 0.4 0.15q5.1 1.6 10.75 4.5" fill="none" stroke="#000" stroke-linecap="round" stroke-linejoin="round" stroke-opacity=".3098" stroke-width=".2"/>
<path d="m98.6 32.45q-11.45-4.8-20.7-5.4 5.25 2.9 9.85 6.5m5.65 23.35q3.4 0 12.65 5.2m-17.15-19q-7.85-7-19.2-11.6m-0.15 0.15q6.8 9.8 16.35 18.8l7.5 6.45q8.5 6.95 18.75 13.4m-42.95-38.95q-3.45-4.05-7.6-6.8 4.95 10.1 4.35 17.25m9.1-16.15 1.95 0.9 0.9 0.5m8 23.4 3.8 8m-14.65-32.8q-10.15-4.1-20-4.4 3.35 1.25 6.25 3.15l0.3 0.15m-14.85-5.3q4.4 0.45 8.3 2m-3.35 3.3q4.45 5.2 2.8 7.25m-7.15-5.3-12.7-7.5" fill="none" stroke="#3f4006" stroke-linecap="round" stroke-linejoin="round" stroke-opacity=".4" stroke-width=".2"/>
</g>
</defs>
</svg>
