<?xml version="1.0" encoding="UTF-8"?>
<svg version="1.1" viewBox="0 0 181.95 182.7" xmlns="http://www.w3.org/2000/svg" xmlns:cc="http://creativecommons.org/ns#" xmlns:dc="http://purl.org/dc/elements/1.1/" xmlns:rdf="http://www.w3.org/1999/02/22-rdf-syntax-ns#" xmlns:xlink="http://www.w3.org/1999/xlink">
<metadata>
<rdf:RDF>
<cc:Work rdf:about="">
<dc:format>image/svg+xml</dc:format>
<dc:type rdf:resource="http://purl.org/dc/dcmitype/StillImage"/>
</cc:Work>
</rdf:RDF>
</metadata>
<g transform="translate(-171.3,-60.8)">
<use transform="translate(171.3,60.8)" width="181.95" height="182.7" xlink:href="#a"/>
</g>
<defs>
<g id="a" transform="translate(141.3,138.05)">
<use transform="translate(-141.3,-138.05)" width="181.95" height="182.7" xlink:href="#b"/>
</g>
<g id="b" transform="translate(141.3,138.05)">
<path d="m-23.15-24.8q2-14.35 1-26.6-1.5-18.1-6.8-31.4l-7.95-20.15q-0.3-2.35 0.75-4.8 3.9-9.3 11.5-16.1 17.75-16 40.9-9.3 2.95 0.8 6 1.05 7.15 0.65 11.8 5.15l0.1 1.75q0 2.45-1.15 4.7l-2.35 4.2q-2.35 3.8-6.65 5.85-3.8 1.85-7.75 3.4-4 1.55-8.3 2.3l-9.25 1.15q-7.75 0.55-15.1-1.9-3.9-1.3-7.9-1.95-1.95-0.35-2 1.75l-0.05 1.3q-0.65 8.2 1.75 15.9 1.95 6.3 4.95 12.1l1.15 2.55q3 8.05 4.65 16.45 0.85 4.35 0.85 8.8v5.8q0 2.45-0.5 4.8l-0.9 4.1q-1.2 5.15-4.5 9.3-1.85 2.35-3.45 0.65l-0.8-0.85m-114.15 35.7q-1.3-4.2-1.9-8.55 19.55-21.4 47.9-26.8l5.85-0.4 7.35 1.35 0.65 0.65q1.8 1.8 3.25 3.9 1.9 2.75 3.15 5.8 2.2 5.45 0.4 10.7-0.4 1.25-1.5 1.2l-8.4 0.55-2.25 0.25q-2.3 0.1-4.4 1.05-5.6 2.55-9.1 7.7-2.1 3.05-3.5 6.4-1.5 3.7-3.5 7.1-0.3 0.55-0.85 0.75-1.75 0.65-2.7-0.55l-1.8-2.2-6.2-7.55q-4.85-6.3-12.3-9.3-3.75-1.5-6.9 0.85l-1.15 1.4-2.1 5.7m7.9-59.25-1.3-4.2q-3.05-12.55 5.8-21.95 6.6-7.05 14.6-12.55 10.45-7.2 22.55-10.6 3.3-1.05 6.65-0.05 9 2.6 16.15 8.75 8.4 7.25 16.15 15.3 6.75 7 10.9 15.85 6.1 13.05 9 27.15l2.05 11.25-0.25 2.75q-0.65 8-5.65 14.1l-0.25 0.25-0.7 0.4-0.8-0.15q-1.75-0.8-2.5-2.7-1.45-3.6-1.95-7.45-0.9-6.45-2.25-12.85l-0.75-3.55q-1.5-8.3-5-15.9-1.05-2.25-2.4-4.35l-4.2-7.25q-2.3-4.45-5.35-8.35-5.5-7-12.8-12l-3.05-2.25q-1.9-1.4-3.45-3.15-1.35-1.5-3.25-2.15-0.65-0.2-1.2-0.65-0.65-0.6-1.45-0.6l-0.8 0.1q-0.55 0.3-0.75 0.8-1.5 3.9-3.75 7.5l-2.9 4.25q-4.65 6.3-10.45 11.6l-3.85 3.7q-6.15 6-14.3 8.7-2.2 0.75-4.45 0.85-2.15 0.1-4-0.6h-0.05" fill="#6c4900" fill-rule="evenodd"/>
<path d="m-23.15-24.8 0.8 0.85q1.6 1.7 3.45-0.65 3.3-4.15 4.5-9.3l0.9-4.1q0.5-2.35 0.5-4.8v-5.8q0-4.45-0.85-8.8-1.65-8.4-4.65-16.45l-1.15-2.55q-3-5.8-4.95-12.1-2.4-7.7-1.75-15.9l0.05-1.3q0.05-2.1 2-1.75 4 0.65 7.9 1.95 7.35 2.45 15.1 1.9l9.25-1.15q4.3-0.75 8.3-2.3 3.95-1.55 7.75-3.4 4.3-2.05 6.65-5.85l2.35-4.2q1.15-2.25 1.15-4.7l-0.1-1.75q1.9 1.85 3.4 4.35 1.85 3.15 0.8 6.6-0.9 3.05-2.25 5.8-4.4 8.85-7.95 17.9-4.8 12.2-8.8 24.5-3.7 11.4-5.8 23-2.3 4.4-4.95 8.6-3.85 6.05-7.25 12.35-4.1 7.6-7.25 15.65l-2.9 7.85q-2.75 8.15-4.65 16.25v0.05q-4.05 0.4-7.95-0.75-1.7-0.55-2.95-1.9 0.05-12.1-1.25-24 1.6-7.3 2.55-14.1m34.55-4.5-0.25 2.8-1.8 4.1q0.8-3.55 2.05-6.9m-45.7 48.45q-6.9 2.15-14.9 0.1-1.1-0.35-1.8 0.35l-0.4 0.4v-4.6q-0.75-4.25-1.95-8.25l-0.85-0.45q-1.8-1.2-3.75-2.15l-3.5-1.9q-2.3-1.45-4.95-1.55l-3.15-0.3q-3.15-0.4-6.2 0.5-1.8 0.5-3.35 1.3l-2.4 1.45q-7.55 5.05-12.1 12.85-2.35 4.05-3.95 8.45l-0.95 2.8-0.4 1.7q-0.05 0.65-0.25 1.3-0.45 1.95-2.35 2.95-4.9 2.6-10.5 1.95l-4.95-0.65-7.95-1.3-1.15-0.15q-1.55-2-2.75-4.45l-4.2-8.3q-2.7-5-4.3-10.3l2.1-5.7 1.15-1.4q3.15-2.35 6.9-0.85 7.45 3 12.3 9.3l6.2 7.55 1.8 2.2q0.95 1.2 2.7 0.55 0.55-0.2 0.85-0.75 2-3.4 3.5-7.1 1.4-3.35 3.5-6.4 3.5-5.15 9.1-7.7 2.1-0.95 4.4-1.05l2.25-0.25 8.4-0.55q1.1 0.05 1.5-1.2 1.8-5.25-0.4-10.7-1.25-3.05-3.15-5.8-1.45-2.1-3.25-3.9l-0.65-0.65q5.85 1.45 11.45 4-4.1-5.65-9.05-10.65-7.35-7.4-16.9-11.35-16.05-6.6-31.45 2-1-0.7-1.6-1.65-2.3-3.4-3.75-7.2h0.05q1.85 0.7 4 0.6 2.25-0.1 4.45-0.85 8.15-2.7 14.3-8.7l3.85-3.7q5.8-5.3 10.45-11.6l2.9-4.25q2.25-3.6 3.75-7.5 0.2-0.5 0.75-0.8l0.8-0.1q0.8 0 1.45 0.6 0.55 0.45 1.2 0.65 1.9 0.65 3.25 2.15 1.55 1.75 3.45 3.15l3.05 2.25q7.3 5 12.8 12 3.05 3.9 5.35 8.35l4.2 7.25q1.35 2.1 2.4 4.35 3.5 7.6 5 15.9l0.75 3.55q1.35 6.4 2.25 12.85 0.5 3.85 1.95 7.45 0.75 1.9 2.5 2.7l0.8 0.15 0.7-0.4v0.65l-0.9 15.1-0.05 0.85-0.35 4.8v0.05m-19.05-12-1.6-4.8q-4.5-11.9-11.7-21.85 7.2 9.95 11.7 21.85l1.6 4.8" fill="#402c00" fill-rule="evenodd"/>
<path d="m13.45-44.8q-1.4 7.7-2.05 15.5-1.25 3.35-2.05 6.9l-16 36.55q-3.5 1.45-6.9 1.8v-0.05q1.9-8.1 4.65-16.25l2.9-7.85q3.15-8.05 7.25-15.65 3.4-6.3 7.25-12.35 2.65-4.2 4.95-8.6m-37.9 58.1q-2.1 1.9-4.35 3.3-2.65 1.6-5.5 2.55v-0.05l0.35-4.8 0.05-0.85 0.9-15.1v-0.65l0.25-0.25q5-6.1 5.65-14.1l0.25-2.75q0.65 4.35 1.15 8.7 1.3 11.9 1.25 24m-26.95 2.1q-8.25-4.8-18.05-4.65-1.85-0.65-3.7 0-12.55 4.75-17.9 16.15-1 2.05-1.55 4.4-1.3 5.8-7.3 8.55-7.25 3.4-15.65 1.1-6.5-1.9-10.5-7l1.15 0.15 7.95 1.3 4.95 0.65q5.6 0.65 10.5-1.95 1.9-1 2.35-2.95 0.2-0.65 0.25-1.3l0.4-1.7 0.95-2.8q1.6-4.4 3.95-8.45 4.55-7.8 12.1-12.85l2.4-1.45q1.55-0.8 3.35-1.3 3.05-0.9 6.2-0.5l3.15 0.3q2.65 0.1 4.95 1.55l3.5 1.9q1.95 0.95 3.75 2.15l0.85 0.45q1.2 4 1.95 8.25" fill="#201500" fill-rule="evenodd"/>
<path d="m34.05-126.95q-4.65-4.5-11.8-5.15-3.05-0.25-6-1.05-23.15-6.7-40.9 9.3-7.6 6.8-11.5 16.1-1.05 2.45-0.75 4.8l7.95 20.15q5.3 13.3 6.8 31.4 1 12.25-1 26.6m57.2-102.15q1.9 1.85 3.4 4.35 1.85 3.15 0.8 6.6-0.9 3.05-2.25 5.8-4.4 8.85-7.95 17.9-4.8 12.2-8.8 24.5-3.7 11.4-5.8 23-1.4 7.7-2.05 15.5l-0.25 2.8m-17.8 40.65q-3.5 1.45-6.9 1.8-4.05 0.4-7.95-0.75-1.7-0.55-2.95-1.9-2.1 1.9-4.35 3.3-2.65 1.6-5.5 2.55-6.9 2.15-14.9 0.1-1.1-0.35-1.8 0.35l-0.4 0.4v-4.6q-8.25-4.8-18.05-4.65-1.85-0.65-3.7 0-12.55 4.75-17.9 16.15-1 2.05-1.55 4.4-1.3 5.8-7.3 8.55-7.25 3.4-15.65 1.1-6.5-1.9-10.5-7-1.55-2-2.75-4.45l-4.2-8.3q-2.7-5-4.3-10.3-1.3-4.2-1.9-8.55 19.55-21.4 47.9-26.8l5.85-0.4 7.35 1.35q5.85 1.45 11.45 4-4.1-5.65-9.05-10.65-7.35-7.4-16.9-11.35-16.05-6.6-31.45 2-1-0.7-1.6-1.65-2.3-3.4-3.75-7.2l-1.3-4.2q-3.05-12.55 5.8-21.95 6.6-7.05 14.6-12.55 10.45-7.2 22.55-10.6 3.3-1.05 6.65-0.05 9 2.6 16.15 8.75 8.4 7.25 16.15 15.3 6.75 7 10.9 15.85 6.1 13.05 9 27.15l2.05 11.25q0.65 4.35 1.15 8.7 1.6-7.3 2.55-14.1m-43.5 5.3q7.2 9.95 11.7 21.85l1.6 4.8q1.2 4 1.95 8.25m26.95-2.1q0.05-12.1-1.25-24" fill="none" stroke="#000" stroke-linecap="round" stroke-linejoin="round" stroke-opacity=".41961"/>
<path d="m35.1-128q0.45 0.45 0.45 1.05t-0.45 1.05-1.05 0.45-1.05-0.45-0.45-1.05 0.45-1.05 1.05-0.45l1.05 0.45m-26 21.75q0.45-0.45 1.05-0.45t1.05 0.45l0.45 1.05q0 0.6-0.45 1.05t-1.05 0.45-1.05-0.45-0.45-1.05 0.45-1.05m-4.95 0.6q0.6 0 1.05 0.45l0.45 1.05q0 0.6-0.45 1.05t-1.05 0.45-1.05-0.45-0.45-1.05 0.45-1.05 1.05-0.45m13.4-1.3q0 0.6-0.45 1.05t-1.05 0.45-1.05-0.45-0.45-1.05 0.45-1.05 1.05-0.45l1.05 0.45 0.45 1.05m14.7-15.2q0.45-0.45 1.05-0.45t1.05 0.45l0.45 1.05q0 0.6-0.45 1.05t-1.05 0.45-1.05-0.45-0.45-1.05 0.45-1.05m-0.2 6.05q0 0.6-0.45 1.05t-1.05 0.45-1.05-0.45-0.45-1.05 0.45-1.05 1.05-0.45 1.05 0.45l0.45 1.05m-6.65 3.2q0.45-0.45 1.05-0.45t1.05 0.45 0.45 1.05-0.45 1.05-1.05 0.45-1.05-0.45-0.45-1.05 0.45-1.05m-2.5 3.7q0 0.6-0.45 1.05t-1.05 0.45-1.05-0.45-0.45-1.05 0.45-1.05 1.05-0.45 1.05 0.45l0.45 1.05m-47.05 1.9q0 0.6-0.45 1.05t-1.05 0.45-1.05-0.45-0.45-1.05 0.45-1.05l1.05-0.45q0.6 0 1.05 0.45t0.45 1.05m3.45-0.2q0.45-0.45 1.05-0.45t1.05 0.45 0.45 1.05-0.45 1.05-1.05 0.45-1.05-0.45-0.45-1.05l0.45-1.05m-6.8 5.05q0.45-0.45 1.05-0.45t1.05 0.45 0.45 1.05-0.45 1.05-1.05 0.45-1.05-0.45-0.45-1.05 0.45-1.05m14.8-3.3q0.45 0.45 0.45 1.05t-0.45 1.05-1.05 0.45-1.05-0.45-0.45-1.05l0.45-1.05q0.45-0.45 1.05-0.45t1.05 0.45m3.8 1q0.45-0.45 1.05-0.45t1.05 0.45 0.45 1.05-0.45 1.05-1.05 0.45-1.05-0.45-0.45-1.05 0.45-1.05m8.05 0.1q0.45 0.45 0.45 1.05t-0.45 1.05-1.05 0.45-1.05-0.45-0.45-1.05l0.45-1.05q0.45-0.45 1.05-0.45t1.05 0.45m-90.3 27.85q0.45-0.45 1.05-0.45t1.05 0.45 0.45 1.05-0.45 1.05-1.05 0.45-1.05-0.45-0.45-1.05l0.45-1.05m5.55-4.15q0 0.6-0.45 1.05t-1.05 0.45-1.05-0.45-0.45-1.05l0.45-1.05q0.45-0.45 1.05-0.45t1.05 0.45 0.45 1.05m1.85-2.75q-0.6 0-1.05-0.45t-0.45-1.05 0.45-1.05 1.05-0.45 1.05 0.45 0.45 1.05-0.45 1.05-1.05 0.45m-18.2 20.45q0.6 0 1.05 0.45t0.45 1.05-0.45 1.05-1.05 0.45-1.05-0.45-0.45-1.05l0.45-1.05q0.45-0.45 1.05-0.45m-15.55 11.8q0.45-0.45 1.05-0.45t1.05 0.45 0.45 1.05-0.45 1.05-1.05 0.45-1.05-0.45-0.45-1.05l0.45-1.05m5.2-3.05q0.45-0.45 1.05-0.45t1.05 0.45 0.45 1.05-0.45 1.05-1.05 0.45-1.05-0.45-0.45-1.05l0.45-1.05m6.75-1.75q-0.45 0.45-1.05 0.45t-1.05-0.45-0.45-1.05l0.45-1.05q0.45-0.45 1.05-0.45t1.05 0.45 0.45 1.05-0.45 1.05m10.8-15.55q0.45-0.45 1.05-0.45t1.05 0.45 0.45 1.05-0.45 1.05-1.05 0.45-1.05-0.45-0.45-1.05l0.45-1.05m-3.9 4.6q0.45-0.45 1.05-0.45t1.05 0.45 0.45 1.05-0.45 1.05-1.05 0.45-1.05-0.45-0.45-1.05l0.45-1.05m-25.3 19.05q0-0.6 0.45-1.05l1.05-0.45q0.6 0 1.05 0.45t0.45 1.05-0.45 1.05-1.05 0.45-1.05-0.45-0.45-1.05m-4.5 1.6q-0.6 0-1.05-0.45t-0.45-1.05l0.45-1.05q0.45-0.45 1.05-0.45t1.05 0.45 0.45 1.05-0.45 1.05-1.05 0.45m44.4 45.05q0.45-0.45 1.05-0.45t1.05 0.45 0.45 1.05-0.45 1.05-1.05 0.45-1.05-0.45-0.45-1.05 0.45-1.05m64.9-76.9q0 0.6-0.45 1.05t-1.05 0.45-1.05-0.45-0.45-1.05l0.45-1.05q0.45-0.45 1.05-0.45t1.05 0.45 0.45 1.05m-5.9-15.95q-0.45 0.45-1.05 0.45t-1.05-0.45-0.45-1.05 0.45-1.05l1.05-0.45q0.6 0 1.05 0.45t0.45 1.05-0.45 1.05m-0.9 3.8q0.45-0.45 1.05-0.45t1.05 0.45 0.45 1.05-0.45 1.05-1.05 0.45-1.05-0.45-0.45-1.05l0.45-1.05m4.05 5.7q0.45 0.45 0.45 1.05t-0.45 1.05-1.05 0.45-1.05-0.45-0.45-1.05 0.45-1.05l1.05-0.45q0.6 0 1.05 0.45m5.65 16.15q0.6 0 1.05 0.45t0.45 1.05-0.45 1.05-1.05 0.45-1.05-0.45-0.45-1.05 0.45-1.05 1.05-0.45m-3-5.3q0.45-0.45 1.05-0.45t1.05 0.45 0.45 1.05-0.45 1.05-1.05 0.45-1.05-0.45-0.45-1.05l0.45-1.05m5.6 11.65q0.45 0.45 0.45 1.05t-0.45 1.05-1.05 0.45-1.05-0.45-0.45-1.05l0.45-1.05 1.05-0.45q0.6 0 1.05 0.45m1.2 6.05q0.45 0.45 0.45 1.05t-0.45 1.05-1.05 0.45-1.05-0.45-0.45-1.05 0.45-1.05l1.05-0.45q0.6 0 1.05 0.45m-0.55 5.6q0.6 0 1.05 0.45t0.45 1.05-0.45 1.05-1.05 0.45-1.05-0.45-0.45-1.05l0.45-1.05q0.45-0.45 1.05-0.45m-66.45-32.4q0.45-0.45 1.05-0.45t1.05 0.45 0.45 1.05-0.45 1.05-1.05 0.45-1.05-0.45-0.45-1.05l0.45-1.05m4.1 5.1 0.45-1.05q0.45-0.45 1.05-0.45t1.05 0.45 0.45 1.05-0.45 1.05-1.05 0.45-1.05-0.45-0.45-1.05m7.25 2.35q0.45 0.45 0.45 1.05t-0.45 1.05-1.05 0.45-1.05-0.45-0.45-1.05 0.45-1.05l1.05-0.45q0.6 0 1.05 0.45m5.05 5q0 0.6-0.45 1.05t-1.05 0.45-1.05-0.45-0.45-1.05 0.45-1.05 1.05-0.45 1.05 0.45 0.45 1.05m1.6 3.3q0.45-0.45 1.05-0.45t1.05 0.45 0.45 1.05-0.45 1.05-1.05 0.45-1.05-0.45-0.45-1.05l0.45-1.05m4.65 4.3q0.6 0 1.05 0.45t0.45 1.05-0.45 1.05-1.05 0.45-1.05-0.45-0.45-1.05l0.45-1.05q0.45-0.45 1.05-0.45m1.9 5.4 1.05-0.45q0.6 0 1.05 0.45t0.45 1.05-0.45 1.05-1.05 0.45-1.05-0.45-0.45-1.05l0.45-1.05m4 4.75q0.6 0 1.05 0.45t0.45 1.05-0.45 1.05-1.05 0.45-1.05-0.45-0.45-1.05 0.45-1.05 1.05-0.45m2.05 5.65q0.45-0.45 1.05-0.45t1.05 0.45 0.45 1.05-0.45 1.05-1.05 0.45-1.05-0.45-0.45-1.05l0.45-1.05m2.05 6.7 0.45-1.05q0.45-0.45 1.05-0.45t1.05 0.45 0.45 1.05-0.45 1.05-1.05 0.45-1.05-0.45-0.45-1.05m2.35 4.55q0.45-0.45 1.05-0.45t1.05 0.45 0.45 1.05-0.45 1.05-1.05 0.45-1.05-0.45-0.45-1.05l0.45-1.05m1.35 5.85q0.45-0.45 1.05-0.45t1.05 0.45 0.45 1.05-0.45 1.05-1.05 0.45-1.05-0.45-0.45-1.05 0.45-1.05m-26.55 16.9q0 0.6-0.45 1.05t-1.05 0.45-1.05-0.45-0.45-1.05 0.45-1.05 1.05-0.45 1.05 0.45 0.45 1.05m-4.25-6.7q0.6 0 1.05 0.45t0.45 1.05-0.45 1.05-1.05 0.45-1.05-0.45-0.45-1.05l0.45-1.05q0.45-0.45 1.05-0.45m-5.25-4.6q0.45-0.45 1.05-0.45t1.05 0.45 0.45 1.05-0.45 1.05-1.05 0.45-1.05-0.45-0.45-1.05l0.45-1.05m7.8 17.05 0.45-1.05q0.45-0.45 1.05-0.45t1.05 0.45 0.45 1.05-0.45 1.05-1.05 0.45-1.05-0.45-0.45-1.05m-6.7 5.3q0.45-0.45 1.05-0.45t1.05 0.45 0.45 1.05-0.45 1.05-1.05 0.45-1.05-0.45-0.45-1.05l0.45-1.05m6.95-0.95q0.6 0 1.05 0.45t0.45 1.05-0.45 1.05-1.05 0.45-1.05-0.45-0.45-1.05l0.45-1.05q0.45-0.45 1.05-0.45m29.9-13.9 0.45-1.05q0.45-0.45 1.05-0.45t1.05 0.45 0.45 1.05-0.45 1.05-1.05 0.45-1.05-0.45-0.45-1.05m0.4-7.5q0.6 0 1.05 0.45t0.45 1.05-0.45 1.05-1.05 0.45-1.05-0.45-0.45-1.05 0.45-1.05l1.05-0.45m27.8-20.15q0.6 0 1.05 0.45t0.45 1.05-0.45 1.05-1.05 0.45-1.05-0.45-0.45-1.05l0.45-1.05q0.45-0.45 1.05-0.45m-1.7 6.35 1.05-0.45q0.6 0 1.05 0.45t0.45 1.05-0.45 1.05-1.05 0.45-1.05-0.45-0.45-1.05l0.45-1.05m0.65 5.95q0.45 0.45 0.45 1.05t-0.45 1.05-1.05 0.45-1.05-0.45-0.45-1.05l0.45-1.05q0.45-0.45 1.05-0.45t1.05 0.45m-4.85 5.3 1.05-0.45q0.6 0 1.05 0.45t0.45 1.05-0.45 1.05-1.05 0.45-1.05-0.45-0.45-1.05l0.45-1.05m-3.75 1.35q0.6 0 1.05 0.45t0.45 1.05-0.45 1.05-1.05 0.45-1.05-0.45-0.45-1.05l0.45-1.05q0.45-0.45 1.05-0.45m-17.2 13.6q0.45-0.45 1.05-0.45t1.05 0.45 0.45 1.05-0.45 1.05-1.05 0.45-1.05-0.45-0.45-1.05l0.45-1.05m2.55 5.2q0.6 0 1.05 0.45t0.45 1.05-0.45 1.05-1.05 0.45-1.05-0.45-0.45-1.05l0.45-1.05q0.45-0.45 1.05-0.45m5.35 3.6q0.45 0.45 0.45 1.05t-0.45 1.05-1.05 0.45-1.05-0.45-0.45-1.05 0.45-1.05l1.05-0.45q0.6 0 1.05 0.45m-57.95 3.75q0.45-0.45 1.05-0.45t1.05 0.45 0.45 1.05-0.45 1.05-1.05 0.45l-1.05-0.45q-0.45-0.45-0.45-1.05t0.45-1.05m-2.65 3.55q0.45 0.45 0.45 1.05t-0.45 1.05-1.05 0.45-1.05-0.45l-0.45-1.05q0-0.6 0.45-1.05t1.05-0.45 1.05 0.45m-5.7 4.7q0.45-0.45 1.05-0.45t1.05 0.45 0.45 1.05-0.45 1.05-1.05 0.45-1.05-0.45l-0.45-1.05q0-0.6 0.45-1.05m-0.05 6.05q0 0.6-0.45 1.05t-1.05 0.45-1.05-0.45-0.45-1.05 0.45-1.05 1.05-0.45 1.05 0.45 0.45 1.05m-21.15-7.35q0.45-0.45 1.05-0.45t1.05 0.45 0.45 1.05-0.45 1.05-1.05 0.45-1.05-0.45-0.45-1.05 0.45-1.05m6.25 4.55q0.45 0.45 0.45 1.05t-0.45 1.05-1.05 0.45-1.05-0.45l-0.45-1.05q0-0.6 0.45-1.05t1.05-0.45 1.05 0.45m1.65 4.65q0.45-0.45 1.05-0.45t1.05 0.45 0.45 1.05-0.45 1.05-1.05 0.45-1.05-0.45l-0.45-1.05q0-0.6 0.45-1.05m3.65 4.4q0.45-0.45 1.05-0.45t1.05 0.45 0.45 1.05-0.45 1.05-1.05 0.45-1.05-0.45-0.45-1.05 0.45-1.05m4.5-1.85q0.45-0.45 1.05-0.45t1.05 0.45 0.45 1.05-0.45 1.05-1.05 0.45-1.05-0.45-0.45-1.05 0.45-1.05m-18.75-15.25q0.45 0.45 0.45 1.05t-0.45 1.05-1.05 0.45-1.05-0.45l-0.45-1.05q0-0.6 0.45-1.05t1.05-0.45 1.05 0.45m-7.9-2.5q0.45-0.45 1.05-0.45t1.05 0.45 0.45 1.05-0.45 1.05-1.05 0.45l-1.05-0.45q-0.45-0.45-0.45-1.05t0.45-1.05m-3.45 1.9q0.45 0.45 0.45 1.05t-0.45 1.05-1.05 0.45-1.05-0.45l-0.45-1.05q0-0.6 0.45-1.05t1.05-0.45 1.05 0.45m-4.55 5.7q0.45-0.45 1.05-0.45t1.05 0.45 0.45 1.05-0.45 1.05-1.05 0.45-1.05-0.45-0.45-1.05 0.45-1.05" fill="#6c4900" fill-rule="evenodd"/>
<path d="m-78.7-99.75q0.9 0.9 0.9 2.15t-0.9 2.1q-0.85 0.9-2.1 0.9t-2.15-0.9q-0.85-0.85-0.85-2.1t0.85-2.15q0.9-0.85 2.15-0.85t2.1 0.85m75.3-37.85q1.25 0 2.1 0.85 0.9 0.9 0.9 2.15t-0.9 2.1q-0.85 0.9-2.1 0.9t-2.15-0.9q-0.85-0.85-0.85-2.1t0.85-2.15q0.9-0.85 2.15-0.85m-10.8 3.4q0.9-0.85 2.15-0.85t2.1 0.85q0.9 0.9 0.9 2.15t-0.9 2.1q-0.85 0.9-2.1 0.9t-2.15-0.9q-0.85-0.85-0.85-2.1t0.85-2.15m-3.55 4.4q0.9 0.9 0.9 2.15t-0.9 2.1q-0.85 0.9-2.1 0.9t-2.15-0.9q-0.85-0.85-0.85-2.1t0.85-2.15q0.9-0.85 2.15-0.85t2.1 0.85m-8.85 4.8q1.25 0 2.1 0.85 0.9 0.9 0.9 2.15t-0.9 2.1q-0.85 0.9-2.1 0.9t-2.15-0.9q-0.85-0.85-0.85-2.1t0.85-2.15q0.9-0.85 2.15-0.85m-2.7 10q0 1.25-0.9 2.1-0.85 0.9-2.1 0.9t-2.15-0.9q-0.85-0.85-0.85-2.1t0.85-2.15q0.9-0.85 2.15-0.85t2.1 0.85q0.9 0.9 0.9 2.15m-4.1 7.85q0 1.25-0.9 2.1-0.85 0.9-2.1 0.9t-2.15-0.9q-0.85-0.85-0.85-2.1t0.85-2.15q0.9-0.85 2.15-0.85t2.1 0.85q0.9 0.9 0.9 2.15m0.45 6.85q0.9 0.9 0.9 2.15t-0.9 2.1q-0.85 0.9-2.1 0.9t-2.15-0.9q-0.85-0.85-0.85-2.1t0.85-2.15q0.9-0.85 2.15-0.85t2.1 0.85m-56.8 0.25q1.25 0 2.1 0.85 0.9 0.9 0.9 2.15t-0.9 2.1q-0.85 0.9-2.1 0.9t-2.15-0.9q-0.85-0.85-0.85-2.1t0.85-2.15q0.9-0.85 2.15-0.85m-5.3 6.15q0 1.25-0.9 2.1-0.85 0.9-2.1 0.9t-2.15-0.9q-0.85-0.85-0.85-2.1t0.85-2.15q0.9-0.85 2.15-0.85t2.1 0.85q0.9 0.9 0.9 2.15m-13.05 1.95q0.9-0.85 2.15-0.85t2.1 0.85q0.9 0.9 0.9 2.15t-0.9 2.1q-0.85 0.9-2.1 0.9t-2.15-0.9q-0.85-0.85-0.85-2.1t0.85-2.15m-5.35 4.15q1.25 0 2.1 0.85 0.9 0.9 0.9 2.15t-0.9 2.1q-0.85 0.9-2.1 0.9t-2.15-0.9q-0.85-0.85-0.85-2.1t0.85-2.15q0.9-0.85 2.15-0.85m-3.9 8.8q0 1.25-0.9 2.1-0.85 0.9-2.1 0.9t-2.15-0.9q-0.85-0.85-0.85-2.1t0.85-2.15q0.9-0.85 2.15-0.85t2.1 0.85q0.9 0.9 0.9 2.15m-9.2 3.4q1.25 0 2.1 0.85 0.9 0.9 0.9 2.15t-0.9 2.1q-0.85 0.9-2.1 0.9t-2.15-0.9q-0.85-0.85-0.85-2.1t0.85-2.15q0.9-0.85 2.15-0.85m-1.2 11.05q0 1.25-0.9 2.1-0.85 0.9-2.1 0.9t-2.15-0.9q-0.85-0.85-0.85-2.1t0.85-2.15q0.9-0.85 2.15-0.85t2.1 0.85q0.9 0.9 0.9 2.15m-5.7 6.7q0.9-0.85 2.15-0.85t2.1 0.85q0.9 0.9 0.9 2.15t-0.9 2.1q-0.85 0.9-2.1 0.9t-2.15-0.9q-0.85-0.85-0.85-2.1t0.85-2.15m7.7 11.15q0 1.25-0.9 2.1-0.85 0.9-2.1 0.9t-2.15-0.9q-0.85-0.85-0.85-2.1t0.85-2.15q0.9-0.85 2.15-0.85t2.1 0.85q0.9 0.9 0.9 2.15m3.8 5.05q0.9 0.9 0.9 2.15t-0.9 2.1q-0.85 0.9-2.1 0.9t-2.15-0.9q-0.85-0.85-0.85-2.1t0.85-2.15q0.9-0.85 2.15-0.85t2.1 0.85m-0.5 26.6q1.25 0 2.1 0.85 0.9 0.9 0.9 2.15t-0.9 2.1q-0.85 0.9-2.1 0.9t-2.15-0.9q-0.85-0.85-0.85-2.1t0.85-2.15q0.9-0.85 2.15-0.85m-9.4 6.2q0.9-0.85 2.15-0.85t2.1 0.85q0.9 0.9 0.9 2.15t-0.9 2.1q-0.85 0.9-2.1 0.9t-2.15-0.9q-0.85-0.85-0.85-2.1t0.85-2.15m-6.6 6q0.9-0.85 2.15-0.85t2.1 0.85q0.9 0.9 0.9 2.15t-0.9 2.1q-0.85 0.9-2.1 0.9t-2.15-0.9q-0.85-0.85-0.85-2.1t0.85-2.15m51.8-37.35q0 1.25-0.9 2.1-0.85 0.9-2.1 0.9t-2.15-0.9q-0.85-0.85-0.85-2.1t0.85-2.15q0.9-0.85 2.15-0.85t2.1 0.85q0.9 0.9 0.9 2.15m4.65 1.65q1.25 0 2.1 0.85 0.9 0.9 0.9 2.15t-0.9 2.1q-0.85 0.9-2.1 0.9t-2.15-0.9q-0.85-0.85-0.85-2.1t0.85-2.15q0.9-0.85 2.15-0.85m-13.15-4.8q0 1.25-0.9 2.1-0.85 0.9-2.1 0.9t-2.15-0.9q-0.85-0.85-0.85-2.1t0.85-2.15q0.9-0.85 2.15-0.85t2.1 0.85q0.9 0.9 0.9 2.15m-0.55 18.2q0.9 0.9 0.9 2.15t-0.9 2.1q-0.85 0.9-2.1 0.9t-2.15-0.9q-0.85-0.85-0.85-2.1t0.85-2.15q0.9-0.85 2.15-0.85t2.1 0.85m9.1-1.8q0.9 0.9 0.9 2.15t-0.9 2.1q-0.85 0.9-2.1 0.9t-2.15-0.9q-0.85-0.85-0.85-2.1t0.85-2.15q0.9-0.85 2.15-0.85t2.1 0.85m-18.3-19.55q0.9 0.9 0.9 2.15t-0.9 2.1q-0.85 0.9-2.1 0.9t-2.15-0.9q-0.85-0.85-0.85-2.1t0.85-2.15q0.9-0.85 2.15-0.85t2.1 0.85m-13.1 1.4q0.9-0.85 2.15-0.85t2.1 0.85q0.9 0.9 0.9 2.15t-0.9 2.1q-0.85 0.9-2.1 0.9t-2.15-0.9q-0.85-0.85-0.85-2.1t0.85-2.15m9.5 22.7q0.9-0.85 2.15-0.85t2.1 0.85q0.9 0.9 0.9 2.15t-0.9 2.1q-0.85 0.9-2.1 0.9t-2.15-0.9q-0.85-0.85-0.85-2.1t0.85-2.15m-8.35 3.7q0.9-0.85 2.15-0.85t2.1 0.85q0.9 0.9 0.9 2.15t-0.9 2.1q-0.85 0.9-2.1 0.9t-2.15-0.9q-0.85-0.85-0.85-2.1t0.85-2.15m34.15-5.15q0-1.25 0.85-2.15 0.9-0.85 2.15-0.85t2.1 0.85q0.9 0.9 0.9 2.15t-0.9 2.1q-0.85 0.9-2.1 0.9t-2.15-0.9q-0.85-0.85-0.85-2.1m53.9-66.05q0 1.25-0.9 2.1-0.85 0.9-2.1 0.9t-2.15-0.9q-0.85-0.85-0.85-2.1t0.85-2.15q0.9-0.85 2.15-0.85t2.1 0.85q0.9 0.9 0.9 2.15m-1.8 6.15q0.9-0.85 2.15-0.85t2.1 0.85q0.9 0.9 0.9 2.15t-0.9 2.1q-0.85 0.9-2.1 0.9t-2.15-0.9q-0.85-0.85-0.85-2.1t0.85-2.15m6.9 8.3q0.9 0.9 0.9 2.15t-0.9 2.1q-0.85 0.9-2.1 0.9t-2.15-0.9q-0.85-0.85-0.85-2.1t0.85-2.15q0.9-0.85 2.15-0.85t2.1 0.85m-3.2 10.8q0-1.25 0.85-2.15 0.9-0.85 2.15-0.85t2.1 0.85q0.9 0.9 0.9 2.15t-0.9 2.1q-0.85 0.9-2.1 0.9t-2.15-0.9q-0.85-0.85-0.85-2.1m-10.5 2q0 1.25-0.9 2.1-0.85 0.9-2.1 0.9t-2.15-0.9q-0.85-0.85-0.85-2.1t0.85-2.15q0.9-0.85 2.15-0.85t2.1 0.85q0.9 0.9 0.9 2.15m0.95 5.1q1.25 0 2.1 0.85 0.9 0.9 0.9 2.15t-0.9 2.1q-0.85 0.9-2.1 0.9t-2.15-0.9q-0.85-0.85-0.85-2.1t0.85-2.15q0.9-0.85 2.15-0.85m11.7-0.35q0.9-0.85 2.15-0.85t2.1 0.85q0.9 0.9 0.9 2.15t-0.9 2.1q-0.85 0.9-2.1 0.9t-2.15-0.9q-0.85-0.85-0.85-2.1t0.85-2.15m-33.5-28.05q1.25 0 2.1 0.85 0.9 0.9 0.9 2.15t-0.9 2.1q-0.85 0.9-2.1 0.9t-2.15-0.9q-0.85-0.85-0.85-2.1t0.85-2.15q0.9-0.85 2.15-0.85m6.6 6.35q1.25 0 2.1 0.85 0.9 0.9 0.9 2.15t-0.9 2.1q-0.85 0.9-2.1 0.9t-2.15-0.9q-0.85-0.85-0.85-2.1t0.85-2.15q0.9-0.85 2.15-0.85m-15.45-11.5q0.9-0.85 2.15-0.85t2.1 0.85q0.9 0.9 0.9 2.15t-0.9 2.1q-0.85 0.9-2.1 0.9t-2.15-0.9q-0.85-0.85-0.85-2.1t0.85-2.15m-2.3-3q0 1.25-0.9 2.1-0.85 0.9-2.1 0.9t-2.15-0.9q-0.85-0.85-0.85-2.1t0.85-2.15q0.9-0.85 2.15-0.85t2.1 0.85q0.9 0.9 0.9 2.15m26.85 24.05q0 1.25-0.9 2.1-0.85 0.9-2.1 0.9t-2.15-0.9q-0.85-0.85-0.85-2.1t0.85-2.15q0.9-0.85 2.15-0.85t2.1 0.85q0.9 0.9 0.9 2.15m-30.4 38.45q0.9 0.9 0.9 2.15t-0.9 2.1q-0.85 0.9-2.1 0.9t-2.15-0.9q-0.85-0.85-0.85-2.1t0.85-2.15q0.9-0.85 2.15-0.85t2.1 0.85m5.9 6.7q0.9 0.9 0.9 2.15t-0.9 2.1q-0.6 0.65-1.45 0.85l-0.5 0.6q-0.85 0.9-2.1 0.9t-2.15-0.9q-0.85-0.85-0.85-2.1t0.85-2.15q0.65-0.6 1.45-0.75l0.5-0.7q0.9-0.85 2.15-0.85t2.1 0.85m48.2-21.95q0 1.25-0.9 2.1-0.85 0.9-2.1 0.9t-2.15-0.9q-0.85-0.85-0.85-2.1t0.85-2.15q0.9-0.85 2.15-0.85t2.1 0.85q0.9 0.9 0.9 2.15m-0.1 9.05q0 1.25-0.9 2.1-0.85 0.9-2.1 0.9t-2.15-0.9q-0.85-0.85-0.85-2.1t0.85-2.15q0.9-0.85 2.15-0.85t2.1 0.85q0.9 0.9 0.9 2.15m-8.6 0.25q0 1.25-0.9 2.1-0.85 0.9-2.1 0.9t-2.15-0.9q-0.85-0.85-0.85-2.1t0.85-2.15q0.9-0.85 2.15-0.85t2.1 0.85q0.9 0.9 0.9 2.15m-7.75-10.7q0.9-0.85 2.15-0.85t2.1 0.85q0.9 0.9 0.9 2.15t-0.9 2.1q-0.85 0.9-2.1 0.9t-2.15-0.9q-0.85-0.85-0.85-2.1t0.85-2.15m4.7 17.65q0.9-0.85 2.15-0.85t2.1 0.85q0.55 0.55 0.75 1.2 0.15-0.9 0.8-1.6 0.9-0.85 2.15-0.85t2.1 0.85q0.9 0.9 0.9 2.15t-0.9 2.1q-0.85 0.9-2.1 0.9t-2.15-0.9l-0.7-1.1q-0.15 0.85-0.85 1.5-0.85 0.9-2.1 0.9t-2.15-0.9q-0.85-0.85-0.85-2.1t0.85-2.15m9.7 10.65q0 1.25-0.9 2.1-0.85 0.9-2.1 0.9l-1-0.15q-0.85 0.7-1.95 0.7-1.25 0-2.15-0.9-0.85-0.85-0.85-2.1t0.85-2.15q0.9-0.85 2.15-0.85l1 0.15q0.8-0.7 1.95-0.7 1.25 0 2.1 0.85 0.9 0.9 0.9 2.15m-4.7 5.95q1.25 0 2.1 0.85 0.9 0.9 0.9 2.15t-0.9 2.1q-0.85 0.9-2.1 0.9t-2.15-0.9q-0.85-0.85-0.85-2.1t0.85-2.15q0.9-0.85 2.15-0.85m52.35-117.95q0 1.25-0.9 2.1-0.85 0.9-2.1 0.9t-2.15-0.9q-0.85-0.85-0.85-2.1t0.85-2.15q0.9-0.85 2.15-0.85t2.1 0.85q0.9 0.9 0.9 2.15m2.25 3.3q0-1.25 0.85-2.15 0.9-0.85 2.15-0.85t2.1 0.85q0.9 0.9 0.9 2.15t-0.9 2.1q-0.85 0.9-2.1 0.9t-2.15-0.9q-0.85-0.85-0.85-2.1m8.65 3.45q1.25 0 2.1 0.85 0.9 0.9 0.9 2.15t-0.9 2.1q-0.85 0.9-2.1 0.9t-2.15-0.9q-0.85-0.85-0.85-2.1t0.85-2.15q0.9-0.85 2.15-0.85m-32-12.85q1.25 0 2.1 0.85 0.9 0.9 0.9 2.15t-0.9 2.1q-0.85 0.9-2.1 0.9t-2.15-0.9q-0.85-0.85-0.85-2.1t0.85-2.15q0.9-0.85 2.15-0.85m6.85 2.3q0.9-0.85 2.15-0.85t2.1 0.85q0.9 0.9 0.9 2.15t-0.9 2.1q-0.85 0.9-2.1 0.9t-2.15-0.9q-0.85-0.85-0.85-2.1t0.85-2.15m21.95 22.1q0-1.25 0.85-2.15 0.9-0.85 2.15-0.85t2.1 0.85q0.9 0.9 0.9 2.15t-0.9 2.1q-0.85 0.9-2.1 0.9t-2.15-0.9q-0.85-0.85-0.85-2.1m-4.45 13.6q1.25 0 2.1 0.85 0.9 0.9 0.9 2.15t-0.9 2.1q-0.85 0.9-2.1 0.9t-2.15-0.9q-0.85-0.85-0.85-2.1t0.85-2.15q0.9-0.85 2.15-0.85m1.55-7.5q0.9-0.85 2.15-0.85t2.1 0.85q0.9 0.9 0.9 2.15t-0.9 2.1q-0.85 0.9-2.1 0.9t-2.15-0.9q-0.85-0.85-0.85-2.1t0.85-2.15m-7.05 16.8q0.9-0.85 2.15-0.85t2.1 0.85q0.9 0.9 0.9 2.15t-0.9 2.1q-0.85 0.9-2.1 0.9t-2.15-0.9q-0.85-0.85-0.85-2.1t0.85-2.15m-0.95 7.55q1.25 0 2.1 0.85 0.9 0.9 0.9 2.15t-0.9 2.1q-0.85 0.9-2.1 0.9t-2.15-0.9q-0.85-0.85-0.85-2.1t0.85-2.15q0.9-0.85 2.15-0.85m-6 11.5q0-1.25 0.85-2.15 0.9-0.85 2.15-0.85t2.1 0.85q0.9 0.9 0.9 2.15t-0.9 2.1q-0.85 0.9-2.1 0.9t-2.15-0.9q-0.85-0.85-0.85-2.1m2.3 6.65q0.9 0.9 0.9 2.15t-0.9 2.1q-0.85 0.9-2.1 0.9t-2.15-0.9q-0.85-0.85-0.85-2.1t0.85-2.15q0.9-0.85 2.15-0.85t2.1 0.85m-2.3 8.65q0.9 0.9 0.9 2.15t-0.9 2.1q-0.85 0.9-2.1 0.9t-2.15-0.9q-0.85-0.85-0.85-2.1t0.85-2.15q0.9-0.85 2.15-0.85t2.1 0.85m-1 11.2q0 1.25-0.9 2.1-0.85 0.9-2.1 0.9t-2.15-0.9q-0.85-0.85-0.85-2.1t0.85-2.15q0.9-0.85 2.15-0.85t2.1 0.85q0.9 0.9 0.9 2.15m-2.3 6.8q0.9 0.9 0.9 2.15t-0.9 2.1q-0.85 0.9-2.1 0.9t-2.15-0.9q-0.85-0.85-0.85-2.1t0.85-2.15q0.9-0.85 2.15-0.85t2.1 0.85m-5.2 9.15q0.9-0.85 2.15-0.85t2.1 0.85q0.9 0.9 0.9 2.15t-0.9 2.1q-0.85 0.9-2.1 0.9t-2.15-0.9q-0.85-0.85-0.85-2.1t0.85-2.15m-64.4 39.7q1.25 0 2.1 0.85 0.9 0.9 0.9 2.15t-0.9 2.1q-0.85 0.9-2.1 0.9t-2.15-0.9q-0.85-0.85-0.85-2.1t0.85-2.15q0.9-0.85 2.15-0.85m1.8 7.4q0.9-0.85 2.15-0.85t2.1 0.85q0.9 0.9 0.9 2.15t-0.9 2.1q-0.85 0.9-2.1 0.9t-2.15-0.9q-0.85-0.85-0.85-2.1t0.85-2.15m-8.45-8.95q0.9 0.9 0.9 2.15t-0.9 2.1q-0.85 0.9-2.1 0.9t-2.15-0.9q-0.85-0.85-0.85-2.1t0.85-2.15q0.9-0.85 2.15-0.85t2.1 0.85m-13.4-0.3q0.9-0.85 2.15-0.85t2.1 0.85q0.9 0.9 0.9 2.15t-0.9 2.1q-0.85 0.9-2.1 0.9t-2.15-0.9q-0.85-0.85-0.85-2.1t0.85-2.15m-2.75 6.35q0 1.25-0.9 2.1-0.85 0.9-2.1 0.9t-2.15-0.9q-0.85-0.85-0.85-2.1t0.85-2.15q0.9-0.85 2.15-0.85t2.1 0.85q0.9 0.9 0.9 2.15m-11.6 4.1q0.9-0.85 2.15-0.85t2.1 0.85q0.9 0.9 0.9 2.15t-0.9 2.1q-0.85 0.9-2.1 0.9t-2.15-0.9q-0.85-0.85-0.85-2.1t0.85-2.15m-29 17.45q0.9 0.9 0.9 2.15t-0.9 2.1q-0.85 0.9-2.1 0.9t-2.15-0.9q-0.85-0.85-0.85-2.1t0.85-2.15q0.9-0.85 2.15-0.85t2.1 0.85m4.15 3q0.9-0.85 2.15-0.85t2.1 0.85q0.9 0.9 0.9 2.15t-0.9 2.1q-0.85 0.9-2.1 0.9t-2.15-0.9q-0.85-0.85-0.85-2.1t0.85-2.15m13.15-0.45q0.9 0.9 0.9 2.15t-0.9 2.1q-0.85 0.9-2.1 0.9t-2.15-0.9q-0.85-0.85-0.85-2.1t0.85-2.15q0.9-0.85 2.15-0.85t2.1 0.85m11.65-8q-0.85 0.9-2.1 0.9t-2.15-0.9q-0.85-0.85-0.85-2.1t0.85-2.15q0.9-0.85 2.15-0.85t2.1 0.85q0.9 0.9 0.9 2.15t-0.9 2.1m-8.1 3.85q0.9-0.85 2.15-0.85t2.1 0.85q0.9 0.9 0.9 2.15t-0.9 2.1q-0.85 0.9-2.1 0.9t-2.15-0.9q-0.85-0.85-0.85-2.1t0.85-2.15m-40.4-30.75q1.25 0 2.1 0.85 0.9 0.9 0.9 2.15t-0.9 2.1q-0.85 0.9-2.1 0.9t-2.15-0.9q-0.85-0.85-0.85-2.1t0.85-2.15q0.9-0.85 2.15-0.85m4.9 13.9q-0.85 0.9-2.1 0.9t-2.15-0.9q-0.85-0.85-0.85-2.1t0.85-2.15q0.9-0.85 2.15-0.85t2.1 0.85q0.9 0.9 0.9 2.15t-0.9 2.1m-0.15 4.05q0.9-0.85 2.15-0.85t2.1 0.85q0.9 0.9 0.9 2.15t-0.9 2.1q-0.85 0.9-2.1 0.9t-2.15-0.9q-0.85-0.85-0.85-2.1t0.85-2.15m6.25 7.05q1.25 0 2.1 0.85 0.9 0.9 0.9 2.15t-0.9 2.1q-0.85 0.9-2.1 0.9t-2.15-0.9q-0.85-0.85-0.85-2.1t0.85-2.15q0.9-0.85 2.15-0.85" fill-opacity=".38824" fill-rule="evenodd"/>
</g>
</defs>
</svg>
