<?xml version="1.0" encoding="UTF-8"?>
<svg version="1.1" viewBox="0 0 49.225 40.6" xmlns="http://www.w3.org/2000/svg" xmlns:cc="http://creativecommons.org/ns#" xmlns:dc="http://purl.org/dc/elements/1.1/" xmlns:rdf="http://www.w3.org/1999/02/22-rdf-syntax-ns#" xmlns:xlink="http://www.w3.org/1999/xlink">
<metadata>
<rdf:RDF>
<cc:Work rdf:about="">
<dc:format>image/svg+xml</dc:format>
<dc:type rdf:resource="http://purl.org/dc/dcmitype/StillImage"/>
</cc:Work>
</rdf:RDF>
</metadata>
<g transform="translate(-289.98 -163.12)">
<use transform="translate(290,163.15)" width="49.200001" height="40.549999" xlink:href="#a"/>
</g>
<defs>
<g id="a" transform="translate(-5,1.4)">
<path d="m23.4 5.55 10.05 2.1 7.5 5 0.45 0.7-0.05-0.5 2.85 1.35 0.5 1.4q1.55 4.05 5.95 5.8 1.9 1 3.55 2.35-2 3.95-5 6.9l-12.5 2.4-0.75-0.8 5.6-2.4-12.7-2.35-12.3-8.15-0.25-0.4-4.55-7.3 9.25 5.85 6.2 0.65-0.45-0.25 12.6 1.85-27.85-11.6-6.5-4.15 0.55-2 1-3.4 4.15 1.45 6.75 4.05 0.3 0.2 0.2 0.1 3.6 0.75 1.85 0.4 1 0.4 7.2 3.1-7.2-3.1-1-0.4m25 25.9q-3.4 3.05-7.95 5l-0.35 0.1-0.65-0.7 8.95-4.4m-27.55-25.7 9.15 4.2-5.6-4 5.6 4 5.35 3.85-5.35-3.85-9.15-4.2m-8.35-3.9 4.95 2.25-4.95-2.25m6.05 6 6.95 3.55-6.95-3.55m-13-5.85 15.25 8-15.25-8m24.95 19.85 11.15 0.4-11.15-0.4m4.45 3.55 14.85-1-14.85 1" fill="#e89646" fill-rule="evenodd"/>
<path d="m41.35 12.85-0.1-0.5-1.2-6.55-0.05-1.05q1.9 1.9 2.25 4.7l1.95 4.75-2.85-1.35m7.85 17.8-0.8 0.8-8.95 4.4 0.65 0.7-7.2 2.25-2.5 0.35-2.35-1.9 5.45-2.95-8.85-2.1-8.1-12.85 12.3 8.15 12.7 2.35-5.6 2.4 0.75 0.8 12.5-2.4m-22.45-12.75v-0.05l-15.25-9.7 27.85 11.6-12.6-1.85" fill="#b85f1d" fill-rule="evenodd"/>
<path d="m40.95 12.65-7.5-5-10.05-2.1-1.85-0.4-3.6-0.75-0.2-0.1-0.3-0.2-6.75-4.05 8.35 2.85 16.95 1.95 4.95 7.8" fill="#fadd7e" fill-rule="evenodd"/>
<path d="m41.4 13.35-0.05-0.5-0.1-0.5m0.15 1-0.45-0.7-4.95-7.8-16.95-1.95-8.35-2.85m19.7 39.1-2.35-1.9 5.45-2.95-8.85-2.1-8.1-12.85m-0.25-0.4-4.55-7.3 9.25 5.85 6.2 0.65m-0.45-0.3-15.25-9.7-6.5-4.15 0.55-2 1-3.4 4.15 1.45m29.35 5.75-0.05-1.05m-22.55-0.65-4.95-2.25" fill="none" stroke="#000" stroke-linecap="round" stroke-linejoin="round" stroke-opacity=".37255" stroke-width=".05"/>
<path d="m41.25 12.35 0.15 1m-1.35-7.55 1.2 6.55" fill="none" stroke="#42341e" stroke-linecap="round" stroke-linejoin="round" stroke-width=".05"/>
<path d="m23.4 5.55 1 0.4 7.2 3.1m-10.05-3.9 1.85 0.4m1 0.4 5.6 4 5.35 3.85m-5.35-3.85-9.15-4.2m4.65 5.65-6.95-3.55m31.25 16.55-14.85 1m6.7-3.15-11.15-0.4" fill="none" stroke="#f0b95e" stroke-linecap="round" stroke-linejoin="round" stroke-width=".05"/>
<path d="m20.8 10-15.25-8" fill="none" stroke="#e28121" stroke-linecap="round" stroke-linejoin="round" stroke-width=".05"/>
</g>
</defs>
</svg>
