<?xml version="1.0" encoding="UTF-8"?>
<svg version="1.1" viewBox="0 0 39.3 36.507" xmlns="http://www.w3.org/2000/svg" xmlns:cc="http://creativecommons.org/ns#" xmlns:dc="http://purl.org/dc/elements/1.1/" xmlns:rdf="http://www.w3.org/1999/02/22-rdf-syntax-ns#" xmlns:xlink="http://www.w3.org/1999/xlink">
<metadata>
<rdf:RDF>
<cc:Work rdf:about="">
<dc:format>image/svg+xml</dc:format>
<dc:type rdf:resource="http://purl.org/dc/dcmitype/StillImage"/>
</cc:Work>
</rdf:RDF>
</metadata>
<g transform="translate(-117.5 -209.19)">
<use transform="translate(117.5,209.2)" width="39.299999" height="36.5" xlink:href="#a"/>
</g>
<defs>
<g id="a" transform="translate(-117.5,-209.2)">
<path d="m133.05 232.7 0.85 1.2 3.1 1q-0.55 0.1-0.9 0.75l0.5 0.55h-0.05l-0.1 0.05-0.25 0.05 0.4 0.35 0.95 0.1q1.2-0.1 1.55 0.75l-0.05 0.05-0.2 0.05-0.25-0.2-0.3-0.2 0.5 0.4h0.05l0.05 0.4-0.75 0.15-1.4 0.35q1.15 1.1 2.75 0.35 1.75-0.85 3.45-0.7l1.4-0.1 2.3 1.4 0.75 0.45 0.4 0.25 0.1 0.1 0.7 0.5q-0.95 0.55-1.95 0.75l-1.4 0.15q-1.7 0-3.55-0.8l0.8-0.75-5.55 0.7q-3.95 0.55-6.65 0.05-1.45-0.45-3.25-1.65l1-0.75 1.8-1-3.2-0.9-0.35-0.1q-1.85-0.6-2.35-2.25 0.6-0.55 1.3-0.9 1.95-1 4.75-0.8l3.05 0.2m22.6 7.7 0.05-1.05v-0.5l-0.1-1.65q0.95 0.7 0.95 1.55l-0.25 1-0.1 0.15-0.55 0.5m-37.85-2.4 0.65-0.05q1.35 0.15 1.55 0.85l-0.1 0.3-0.5 0.4-0.8 0.05-0.8-0.35-0.05-0.25q0.05-0.4 0.25-0.6l-0.2-0.35" fill="#f30" fill-rule="evenodd"/>
<path d="m137 234.9 0.75 0.25q2.5 0.85 4.9 1.95l1.7 0.95-1.4 0.1q-1.7-0.15-3.45 0.7-1.6 0.75-2.75-0.35l1.4-0.35 0.75-0.15-0.05-0.4h-0.05l-0.5-0.4 0.3 0.2 0.25 0.2 0.2-0.05 0.05-0.05q-0.35-0.85-1.55-0.75l-0.95-0.1-0.4-0.35 0.25-0.05 0.1-0.05h0.05l-0.5-0.55q0.35-0.65 0.9-0.75" fill="#e02c00" fill-rule="evenodd"/>
<path d="m147.4 239.9-0.15-0.15 0.45 0.3-1.05-1.75-0.35-0.55-1.4-1.85-1.5-1.65q-3.2-3.2-6.8-3.7-2.95-0.75-0.9-5.2l2.35-5.55 0.1-0.2 2.15-0.65 0.65-0.15q2.6 1.15 5.7 3.2l2.15 1.5 0.7 0.4 0.9 0.95q3.25 3.45 4.55 8.1l0.05 0.3 0.6 3.95 0.1 1.65v0.5l-0.05 1.05-0.45 4.3-0.15 0.75-0.85-0.6-5.6-4.1-0.7-0.5-0.1-0.1-0.4-0.25m-9.75-27.65-1.65 4.15q-1.45 3.35-6.65 1.25l0.25-1.75 0.05-1.05q1.15-5.6 3.45-5.4 2.2 0.2 3.55 1.5l1 1.3m-3.45-1.85-0.9 0.15q-0.45 0.2-0.55 0.7-0.15 0.55 0.15 1.05l0.75 0.6 0.9-0.1 0.55-0.8q0.15-0.5-0.1-0.95-0.3-0.5-0.8-0.65m5.5 10.1q-1 0.55-1.25 1.6-0.3 1.1 0.25 2.05 0.5 0.9 1.05-1 0.5-1.95 6.8 2.65l0.1 0.05q6.15 4.45 3.85 1.25-1.85-2.5-3.85-4.05l-1.2-0.9q-2.7-1.7-3.75-2-1.1-0.2-2 0.35" fill="#fff" fill-rule="evenodd"/>
<path d="m132.1 231.25q-1.35-3.1 1.3-5.8l-4.35-6.15 0.3-1.65q5.2 2.1 6.65-1.25l1.65-4.15 2.6 3.55q0.75 2.1 0.4 2.85l-0.35 0.3-2.15 0.65-0.1 0.2-2.35 5.55q-2.05 4.45 0.9 5.2 3.6 0.5 6.8 3.7l1.5 1.65 1.4 1.85 0.35 0.55 1.05 1.75-0.45-0.3 0.15 0.15-0.75-0.45-2.3-1.4-1.7-0.95q-2.4-1.1-4.9-1.95l-0.75-0.25-3.1-1-0.85-1.2-0.9-1.3-0.05-0.15" fill="#6cf" fill-rule="evenodd"/>
<path d="m139.7 220.5q0.9-0.55 2-0.35 1.05 0.3 3.75 2l1.2 0.9q2 1.55 3.85 4.05 2.3 3.2-3.85-1.25l-0.1-0.05q-6.3-4.6-6.8-2.65-0.55 1.9-1.05 1-0.55-0.95-0.25-2.05 0.25-1.05 1.25-1.6m-5.5-10.1q0.5 0.15 0.8 0.65 0.25 0.45 0.1 0.95l-0.55 0.8-0.9 0.1-0.75-0.6q-0.3-0.5-0.15-1.05 0.1-0.5 0.55-0.7l0.9-0.15" fill="#bbe9ff" fill-rule="evenodd"/>
<path d="m129.35 217.65-0.3 1.65 4.35 6.15q-2.65 2.7-1.3 5.8m0.05 0.15 0.9 1.3 0.85 1.2 3.1 1 0.75 0.25q2.5 0.85 4.9 1.95l1.7 0.95 2.3 1.4 0.75 0.45 0.4 0.25m-9.75-20.35 0.1-0.2 2.15-0.65 0.35-0.3q0.35-0.75-0.4-2.85l-2.6-3.55m-8.3 5.4 0.25-1.75 0.05-1.05q1.15-5.6 3.45-5.4 2.2 0.2 3.55 1.5l1 1.3m17.95 24.95-0.6-3.95-0.05-0.3q-1.3-4.65-4.55-8.1l-0.9-0.95-0.7-0.4-2.15-1.5q-3.1-2.05-5.7-3.2l-0.65 0.15m8.3 21.8q-0.95 0.55-1.95 0.75l-1.4 0.15q-1.7 0-3.55-0.8l0.8-0.75-5.55 0.7q-3.95 0.55-6.65 0.05-1.45-0.45-3.25-1.65l1-0.75 1.8-1-3.2-0.9-0.35-0.1q-1.85-0.6-2.35-2.25 0.6-0.55 1.3-0.9 1.95-1 4.75-0.8l3.05 0.2m14.85 7.55 0.7 0.5 5.6 4.1 0.85 0.6 0.15-0.75 0.45-4.3 0.05-1.05v-0.5l-0.1-1.65q0.95 0.7 0.95 1.55l-0.25 1-0.1 0.15-0.55 0.5m-37.85-2.4 0.2 0.35q-0.2 0.2-0.25 0.6l0.05 0.25 0.8 0.35 0.8-0.05 0.5-0.4 0.1-0.3q-0.2-0.7-1.55-0.85l-0.65 0.05" fill="none" stroke="#5a451b" stroke-linecap="round" stroke-linejoin="round" stroke-width=".5"/>
</g>
</defs>
</svg>
