<?xml version="1.0" encoding="UTF-8"?>
<svg version="1.1" viewBox="0 0 85.727 94.484" xmlns="http://www.w3.org/2000/svg" xmlns:cc="http://creativecommons.org/ns#" xmlns:dc="http://purl.org/dc/elements/1.1/" xmlns:rdf="http://www.w3.org/1999/02/22-rdf-syntax-ns#" xmlns:xlink="http://www.w3.org/1999/xlink">
<metadata>
<rdf:RDF>
<cc:Work rdf:about="">
<dc:format>image/svg+xml</dc:format>
<dc:type rdf:resource="http://purl.org/dc/dcmitype/StillImage"/>
</cc:Work>
</rdf:RDF>
</metadata>
<g transform="translate(-206.02 -170.55)">
<use transform="translate(206,170.55)" width="85.75" height="94.5" xlink:href="#d"/>
<use transform="matrix(.466 0 0 .3241 209.65 249)" width="48.150002" height="39.900002" xlink:href="#a"/>
<use transform="translate(206,170.55)" width="85.75" height="94.5" xlink:href="#c"/>
<use transform="matrix(.466 0 0 .3241 209.65 249)" width="48.150002" height="39.900002" xlink:href="#a"/>
<use transform="translate(233.2,186.4)" width="31.4" height="22.75" xlink:href="#b"/>
</g>
<defs>
<g id="d" transform="translate(-206,-170.55)">
<path d="m257.8 262.6q-15.5 0.95-21.1-0.4-5.65-1.35-5.6-2.55-1.45 0.7-2 1.45-0.55 0.7-6.8 3.75-7.65 0.65-12.65-1-3.4-2-3.6-3.1-0.3-1.2 2.7-1.95l0.75-0.15 0.25 0.2 2.1-1.65q-1 3.45-0.7 3.15l4.25-0.3 6.4 0.45q2.3 0.35 10.65-3.1-2.75-1.25-3.45-2.7 6.25-0.15 12.25-3.1l-0.05 0.05q-1.7 2.2-2.45 2.4l5.65-0.25h0.65q21.45 6.4 39.35 1.05l3.1-1.05q2.35 0 4.15-0.8l0.1 0.6q0 3.3-9.25 5.65-9.2 2.35-24.7 3.35m-23.2-4.25q-0.25-0.25-0.35-0.2l-0.35-0.15-0.45 0.55-1.05 0.45 2.2-0.65m-0.75-0.35q-0.75-0.3-1.35-0.6l-6.55 3.05 5.55-1.7 2.35-0.75" fill="#666" fill-opacity=".35294" fill-rule="evenodd"/>
<path d="m273.85 172.2 3.6-0.65 1.95 2.9-1.3 4.9 9.75 27.6 0.3 6.35 0.2 14.25q-0.3 20.95-3.95 22.8-0.85 0.4 1.2 0.95l2.25 0.5v3.9l-3.25 1.95-2.95-0.65v-2.6l-6.15 2.6-21.45 3.25-16.25-2.3-2.25 1.3-2.3-1.35 0.6-3 2.5-1.4 2.1 0.45 0.75-24.15 5.8-2.4-5.85 0.2 1.45-3.6-7.35-18-2.25 0.3-4.25-1.3 2.3-3.55 2.9 0.65 7.15-10.4 33.2-14.85 1.55-4.65" fill="#c2b68b" fill-rule="evenodd"/>
<path d="m273.85 172.2 3.6-0.65 1.95 2.9-1.3 4.9 9.75 27.6 0.3 6.35 0.2 14.25q-0.3 20.95-3.95 22.8-0.85 0.4 1.2 0.95l2.25 0.5v3.9l-3.25 1.95-2.95-0.65v-2.6l-6.15 2.6-21.45 3.25-16.25-2.3-2.25 1.3-2.3-1.35 0.6-3 2.5-1.4 2.1 0.45 0.75-24.15 5.8-2.4-5.85 0.2 1.45-3.6-7.35-18-2.25 0.3-4.25-1.3 2.3-3.55 2.9 0.65 7.15-10.4 33.2-14.85z" fill="none" stroke="#5f5132" stroke-linecap="round" stroke-linejoin="round" stroke-width="2"/>
<path d="m239 255.55 2.5-2.5 6.05 1.05q7.75 1.4 11.25-4.9 3.45-6.4 0.1-13.05l-1.05-1.45q-4.5-4.65-10.2-6.7l-0.15-0.55-0.15-0.45q3.95-2.3 7.6-5.15 1.4-1.1 3.1-1.65 2.6-0.9 3-3.25 0.1-0.6-0.45-0.75l-8.1-2.6q2.75-3.95 6.9-6.4 1.05-0.6 1.3-1.65 0.65-3.05-2.5-2.2-13.35 3.35-26.75 1.1 2.25-1.25 3.55-3.35 3.55-5.7 8.95-9.55 4.8-3.5 10.9-4.85 2.85-0.65 5.55-2.05 3.75-2 6.95-4.85 2.3-0.35 4.25-2.6l0.25-0.15 0.15-0.35 0.35-0.5q1.45-1.95 1.55-3.5l0.05-0.35 1.25-0.2 0.1 6.95v0.4q-2.15 1.45-4.7 2.6l-1.25 0.3q-2.55 1.9-5.15 4.6l-0.7 1.25q-0.85 0.6-1.25 1.35l-0.05 0.15q-1.35 0.8-1.85 2.2-3.8 4.4-8.3 7.5l-0.9 0.75q10.1 0.35 18.8-2.15h0.35l0.35-0.4 2.8-1.5 0.9-0.15q0.3 6.25 3.15 11.2l0.55 1.1v0.2l-2.6 2.75v0.75l-1.3 2.05q-6.95 3.5-14.15 7.95l-6.05 3.8 16.7-4.05 5.75-1.85q1.25 1.6 2.55 2.35l0.75 1.7-1.5 3.65q0.1 0.5 0.45 0.7l0.1 0.05v1.65l-3.85 3.15-0.35 0.7q1.2 8.85-0.45 17-0.15 0.55-1.25 1.05-9.55 3.75-19.35 5.6-4.8 0.8-9.35-0.15l-0.55-0.35-1.6-0.45-0.05-0.05q-1.4-0.6-2.95-0.95" fill="#a38b56" fill-rule="evenodd"/>
<path d="m275.2 172.15 1.75-0.35 1.95 2.9-1.3 4.8 9.65 27.3 0.3 6.25 0.2 14.05q-0.3 20.7-3.9 22.5-0.85 0.4 1.2 0.95l2.2 0.45v3.85l-3.2 1.95-2.9-0.65v-2.55l-6.1 2.55-21.2 3.2-16.1-2.25-2.25 1.3-1.3-0.8q1.25-0.2 2.6-0.8l2.2-1.25q1.55 0.35 2.95 0.95l0.05 0.05 1.6 0.45 0.55 0.35q4.55 0.95 9.35 0.15 9.8-1.85 19.35-5.6 1.1-0.5 1.25-1.05 1.65-8.15 0.45-17l0.35-0.7 3.85-3.15v-1.65l-0.1-0.05q-0.35-0.2-0.45-0.7l1.5-3.65-0.75-1.7q-1.3-0.75-2.55-2.35l-5.75 1.85-16.7 4.05 6.05-3.8q7.2-4.45 14.15-7.95l1.3-2.05v-0.75l2.6-2.75v-0.2l-0.55-1.1q-2.85-4.95-3.15-11.2l-0.9 0.15-2.8 1.5-0.35 0.4h-0.35q-8.7 2.5-18.8 2.15l0.9-0.75q4.5-3.1 8.3-7.5 0.5-1.4 1.85-2.2l0.05-0.15q0.4-0.75 1.25-1.35l0.7-1.25q2.6-2.7 5.15-4.6l1.25-0.3q2.55-1.15 4.7-2.6v-0.4l-0.1-6.95m-48.45 33.15 0.6-0.9-0.05 0.6 0.05 0.5-0.6-0.2" fill="#837045" fill-rule="evenodd"/>
<path d="m266.15 183.7-2.6 5.75-4.7 5.6-3.55 2.85-7.4 5.95-7.1 0.95-6.5-2.5 8.55-10.1 13-6 10.3-2.5m-3.85 4.1 1.25 1.65-1.25-1.65m-7 8v2.1-2.1" fill="#b19972" fill-rule="evenodd"/>
<path d="m273.25 179-2.85 1.9 1.9 1.9m-6-1 0.85 1.25q1.6-1.05 3.25-2.15l-1.1-1.1m-1 5-1.15-1.75-1 0.65-2.6 5.75 1.75 2.35m12-4 1.55 4.2 1.45-0.2m-3 2 0.75-1.2 0.8-0.6 2.45 6.8 2-1m-28 0.1 3.55-2.85 4.7-5.6-1.25-1.65m3.85-4.1-10.3 2.5-13 6-8.55 10.1 6.5 2.5 7.1-0.95 7.4-5.95v-2.1m30 8-1.85 0.95 1.85 5.05-0.1 3.7 1.6-0.7m-1.6 0.7-0.2 5.75 2.3-0.45m-1 5-1.4-0.85-0.25 7.8q1-0.25 1.65-0.95m-4-7 2.1 0.1 0.5 0.05 0.1-3.7-2.7 0.55m2.35 10.95-0.2 6.7q1 0 1.85-0.65m-1.85 0.65-0.15 4.35-2.35 4.1 1.35 0.9m-2-41 2.15-1.05-2.15-5.95-2 1m-24-1.9v2.9m27 30 1.4 0.1 0.95-0.15m-4.35 14.05 1.65 1.1-1.65 2.9m2-12 1.3 0.55 0.85 0.1m-1.65-21.65 2.4-2.3" fill="none" stroke="#5f5132" stroke-linecap="round" stroke-linejoin="round" stroke-width=".5"/>
<path d="m247.55 226.25 12.95-3.75 14.8-7.7-19.1 6.85" fill="none" stroke="#5f5132" stroke-linecap="round" stroke-linejoin="round" stroke-width=".5"/>
<path d="m254.9 232.45 2.55-1.65-0.3-1.2-2.2-0.25 0.3 1.2-2.85 2.9-0.8 3.85 3.3-4.85m1.2-4.15q0.75-1.35 1.9-2.6 2.55-2.8 5.5-3.3t4.5 1.65q1.1 1.6 1.05 3.85 0.75 0.35 1.25 1 0.9 1.2 0.75 3.05l-0.05 0.65-0.05 0.2q-0.5 2.45-2.35 4.4l-1.4 1.25-0.55 0.35q-0.9 2-2.7 3.7-2.7 2.8-5.95 3.35-2.95 0.45-4.65-1.15l-1.75 0.5q-2.85 0.5-4.45-1.65-1.5-2.1-0.8-5.6 0.7-3.45 3.25-6.3 2.6-2.7 5.45-3.2l1.05-0.15q2.1 0.05 3.4 1.75l0.1 0.15 1.7-0.45q3.25-0.55 5 1.4 0.85 1 1.2 2.3 0.9-1.7 1.3-3.7l0.25-1.85-0.25 1.85q-0.4 2-1.3 3.7-0.35-1.3-1.2-2.3-1.75-1.95-5-1.4l-1.7 0.45-0.1-0.15q-1.3-1.7-3.4-1.75m1.45-0.6 1.9 1.5 1.15-0.2 3.35 0.1-1.45-1-2.65-0.8 0.65-3.25-2.15 2.25-0.8 1.4m10.15 2.6 0.65-3.2-2.75-3.25 0.5 3-0.5 2.6 2.1 0.85m1.45 1.05 1.05 0.45-0.55 2.55 1-2.05-1.1-2.9-0.4 1.95m-4.2 1.3-2.8-0.15 2.4 2.05-0.45 5 1.55-2.1 0.05-3.1-0.75-1.7m1.7 6.15 0.8-2.3q0.35-1.7 0.05-3.05 0.3 1.35-0.05 3.05l-0.8 2.3m-7.05-8.6q-2.3 0.8-4.3 2.8-2.75 2.7-3.4 6.05-0.7 3.3 1.05 5.3l0.4 0.35-0.4-0.35q-1.75-2-1.05-5.3 0.65-3.35 3.4-6.05 2-2 4.3-2.8m8.4 6.9 0.65-0.75-0.35-3.65-0.1 0.65-0.2 3.75m-8.55 5.75 3.25-1.8-5.15 0.2-3.3-5.6-0.55 2.55-0.25 3.75 2.5 1.45 3.5-0.55m-8.9-0.45-1.25 0.85-2.5-1.4 1.75 2.15 2.65 0.8 0.7-0.7-0.55-5.55-0.8 3.85" fill="#855a30" fill-rule="evenodd"/>
<path d="m254.9 232.45-3.3 4.85 0.8-3.85 2.85-2.9-0.3-1.2 2.2 0.25 0.3 1.2-2.55 1.65m12.8-2.15-2.1-0.85 0.5-2.6-0.5-3 2.75 3.25-0.65 3.2m1.45 1.05 0.4-1.95 1.1 2.9-1 2.05 0.55-2.55-1.05-0.45m-4.2 1.3 0.75 1.7-0.05 3.1-1.55 2.1 0.45-5-2.4-2.05 2.8 0.15" fill="#c5925f" fill-rule="evenodd"/>
<path d="m257.55 227.7 0.8-1.4 2.15-2.25-0.65 3.25 2.65 0.8 1.45 1-3.35-0.1-1.15 0.2-1.9-1.5m-7 14.7 0.8-3.85 0.55 5.55-0.7 0.7-2.65-0.8-1.75-2.15 2.5 1.4 1.25-0.85m8.9 0.45-3.5 0.55-2.5-1.45 0.25-3.75 0.55-2.55 3.3 5.6 5.15-0.2-3.25 1.8m8.55-5.75 0.2-3.75 0.1-0.65 0.35 3.65-0.65 0.75" fill="#583c21" fill-rule="evenodd"/>
<path d="m256.1 228.3q0.75-1.35 1.9-2.6 2.55-2.8 5.5-3.3t4.5 1.65q1.1 1.6 1.05 3.85 0.75 0.35 1.25 1 0.9 1.2 0.75 3.05l-0.05 0.65-0.05 0.2q-0.5 2.45-2.35 4.4l-1.4 1.25-0.55 0.35q-0.9 2-2.7 3.7-2.7 2.8-5.95 3.35-2.95 0.45-4.65-1.15l-1.75 0.5q-2.85 0.5-4.45-1.65-1.5-2.1-0.8-5.6 0.7-3.45 3.25-6.3 2.6-2.7 5.45-3.2l1.05-0.15q2.1 0.05 3.4 1.75l0.1 0.15 1.7-0.45q3.25-0.55 5 1.4 0.85 1 1.2 2.3 0.9-1.7 1.3-3.7l0.25-1.85m-15.7 16.8-0.4-0.35q-1.75-2-1.05-5.3 0.65-3.35 3.4-6.05 2-2 4.3-2.8m7.9 3.25q0.3 1.35-0.05 3.05l-0.8 2.3" fill="none" stroke="#863724" stroke-linecap="round" stroke-linejoin="round" stroke-width=".5"/>
<path d="m260.15 245.2-4.85 1.4 0.95 6.7 1.15-0.2 2.75-7.9m7.3-7.1-5.45 12.6-3.8 3.15-3.5 1.2-3.5-0.9-1.6-9 4.25 0.15 7.2-1.8 6.4-5.4m-7.35 12.65 1.95-6.5 3.4-3.05-3.4 3.05-1.95 6.5m-6.5-3.85-2.8-0.15 0.9 6.65 2.2 0.25-0.3-6.75" fill="#67251d" fill-rule="evenodd"/>
<path d="m253.6 246.9 0.3 6.75-2.2-0.25-0.9-6.65 2.8 0.15" fill="#3e1311" fill-rule="evenodd"/>
<path d="m260.15 245.2-2.75 7.9-1.15 0.2-0.95-6.7 4.85-1.4" fill="#591c1a" fill-rule="evenodd"/>
<path d="m260.15 245.2-2.75 7.9-1.15 0.2-0.95-6.7 4.85-1.4m7.3-7.1-5.45 12.6-3.8 3.15-3.5 1.2-3.5-0.9-1.6-9 4.25 0.15 7.2-1.8 6.4-5.4m-2 3.1-3.4 3.05-1.95 6.5m-6.5-3.85 0.3 6.75-2.2-0.25-0.9-6.65 2.8 0.15" fill="none" stroke="#863724" stroke-linecap="round" stroke-linejoin="round" stroke-width=".5"/>
<path d="m266.8 222.55 1.4 1.3q0.85 0.85 1.05 2 0.25 1.35 0.8 2.65 1.1 0.75 1.15 2.35 0.1 1.65-0.45 3.1-0.65 2.25-2.5 4.05l-0.15 0.3-0.05-0.05-0.35 0.2-0.05-0.05h-0.1q-0.25 0.05-0.3 0.25l-1.7 4.85-0.1-0.05q-0.25 0-0.35 0.2-0.75 1.5-1.2 3.1l-1.05 3.05-0.85 1.2-0.5 0.6-0.2-0.05q-0.15 0-0.25 0.15l-2.85 2.4-1.85 0.55-0.25-0.05q-0.7 0.45-1.2 0.4l-0.3 0.1-0.5-0.05q-1.3-0.8-0.35-2l0.95-1.5q1.35-2.9 2-6.1l0.4-2.3 0.3-2.6 0.7-1.5q1.1-2.5 2.55-4.85l0.5-0.65 0.5-0.6 0.4-0.4q0.4-0.6 0.15-0.95l-0.65-0.45-5.15 0.65-0.8 0.15-0.25-0.55q-0.25-0.45-0.1-1.05 0.3-1.35 0.9-2.7 1.45-3.15 4.7-4.6l0.65-0.3 2.4-0.95q1.7-0.2 2.9 0.75" fill="#423624" fill-opacity=".26274" fill-rule="evenodd"/>
</g>
<g id="a">
<path d="m27.2 2.05 0.35 0.35q1.15 0.35 0.9 1.1l18.15 20.9-1.25 2.75q-4.2 5.7-15.4 7.1-11.2 1.35-21.05-9.25 0.6-3.1 2.1-5.75 1.05-1.9 2.55-3.55l1.6-1.85 0.7-1.55q0.2-0.65 3.15-6.1 3-5.55 5.4-5.25 1.9 0.25 2.8 1.1" fill="url(#e)" fill-rule="evenodd"/>
<path d="m6.6 18.2 14.65-16.9q1.1-1.25 2.7-1.3 1.5 0.05 2.6 1.3l0.65 0.75q-0.9-0.85-2.8-1.1-2.4-0.3-5.4 5.25-2.95 5.45-3.15 6.1l-0.7 1.55-1.6 1.85q-1.5 1.65-2.55 3.55-1.5 2.65-2.1 5.75 9.85 10.6 21.05 9.25 11.2-1.4 15.4-7.1l1.25-2.75 0.5 0.6q0.8 0.9 1.05 2.2 0.05 3.9-3.65 6.2-7.05 4.45-14.35 5.85-10.35 2-21.35-2.05-4.85-1.85-7-4.9l-0.25-0.35q-0.85-1.3-1.2-2.8l-0.15-0.45q-0.25-1.25-0.2-2.65l0.7-1.05 5.6-6.5 0.3-0.3" fill="#e6e1ce" fill-rule="evenodd"/>
<path d="m6.3 18.5-0.45 0.15 0.75-0.45-0.3 0.3" fill="#c0ab7a" fill-rule="evenodd"/>
</g>
<linearGradient id="e" x1="-819.2" x2="819.2" gradientTransform="matrix(-.0147 -9e-4 .0012 -.0197 20.95 19.05)" gradientUnits="userSpaceOnUse">
<stop stop-color="#fff" offset="0"/>
<stop stop-color="#e6e1ce" offset="1"/>
</linearGradient>
<g id="c" transform="translate(-206,-170.55)">
<path d="m240.5 199.3-0.15-0.8q0-0.9 0.6-1.55 0.65-0.6 1.55-0.6l0.85 0.15q0.35 0.15 0.65 0.45l0.3 0.4 0.3 0.55 0.05 0.6-0.2 0.9-0.45 0.6-0.1 0.1-0.5 0.35h-0.05l-0.75 0.2h-0.1l-1-0.25 0.05-0.25-0.3-0.65q-0.25-0.25-0.6-0.25l-0.15 0.05m15.9-8.85-0.15-0.15q-0.4-0.45-0.4-1.15t0.4-1.2q0.45-0.45 1.05-0.45t1 0.45l0.45 1.2v0.35l-0.45 0.8-0.65 0.45-0.35 0.05-0.6-0.15-0.3-0.2m-22.7 15.2-0.25-0.6q0-0.35 0.25-0.6t0.6-0.25l0.6 0.25 0.25 0.6-0.25 0.6-0.6 0.25q-0.35 0-0.6-0.25m1.15 2.35 0.25-0.65 0.65-0.25q0.35 0 0.6 0.25l0.3 0.65-0.3 0.6q-0.25 0.3-0.6 0.3t-0.65-0.3q-0.25-0.25-0.25-0.6" fill="#f7f2ee" fill-rule="evenodd"/>
<path d="m251 190.8v-0.15q0-0.55 0.35-0.95 0.4-0.35 0.95-0.35t0.9 0.35q0.4 0.4 0.4 0.95l-0.2 0.75-0.2 0.15q-0.35 0.4-0.9 0.4t-0.95-0.4q-0.3-0.3-0.35-0.75" fill="#f9f5f2" fill-rule="evenodd"/>
<path d="m243.35 196.5-0.1-0.5q0-0.55 0.4-0.95t0.95-0.4q0.45 0 0.85 0.3l0.1 0.1q0.4 0.4 0.4 0.95l-0.05 0.4-0.05 0.1-0.3 0.45q-0.4 0.4-0.95 0.4h-0.3l-0.3-0.4q-0.3-0.3-0.65-0.45m3.65-3.15 0.2-0.45q0.3-0.25 0.65-0.25t0.6 0.25l0.3 0.65-0.1 0.4-0.1-0.1q-0.55-0.55-1.3-0.55l-0.25 0.05m3.25 1.9-0.65-0.4q-0.35-0.35-0.35-0.9 0-0.35 0.15-0.6-0.35-0.4-0.35-0.85 0-0.7 0.75-1.25l1.2-0.45q0.05 0.45 0.35 0.75 0.4 0.4 0.95 0.4t0.9-0.4l0.2-0.15v0.05q0.3 0.5 0.65 0.5-0.35 0-0.65-0.5v-0.05l0.2-0.75q0-0.55-0.4-0.95l0.2-0.6q0.3-0.45 0.65-0.45t0.6 0.45l0.3 1.15v0.05l-0.3 1.15-0.6 0.5 0.1 0.55v0.3l-0.75 0.9-1.2 0.5q0.5 0.05 0.8 0.35l0.35 0.55 0.5-0.1q0.45 0 0.75 0.3 0.35 0.35 0.35 0.8l-0.35 0.75-0.35 0.3-0.4 0.05q-0.45 0-0.8-0.35l-0.15-0.25-0.05-0.05-0.15 0.15-0.6 0.1q-0.55 0-0.95-0.4-0.35-0.35-0.35-0.9l0.05-0.25-0.3-0.05-0.3 0.05m9.5-5.8-0.05-0.25 0.25-0.55-0.05-0.2q0-0.25 0.15-0.45 0.2-0.15 0.45-0.15l0.4 0.15 0.15 0.2q0.5 0 0.8 0.3h0.05q0.4 0.3 0.4 0.7t-0.4 0.7l-0.9 0.3h-0.15l-0.8-0.3-0.3-0.45m-2.1 6.35q0 0.5-0.4 0.9-0.35 0.45-0.9 0.45t-0.95-0.45q-0.35-0.4-0.35-1t0.35-1.05q0.3-0.3 0.7-0.35l0.25-0.05q0.55 0 0.9 0.4 0.4 0.45 0.4 1.05v0.1m-8.4 6.6-0.35 0.6q-0.3 0.35-0.8 0.35t-0.85-0.35q-0.3-0.3-0.3-0.8 0-0.3 0.15-0.55v-0.05l0.15-0.25 0.15-0.1 0.7-0.2 0.45 0.1 0.35 0.2q0.35 0.35 0.35 0.85v0.2m-3.85-0.6 0.35 0.2 0.3 0.65-0.1 0.35h0.1q0.35 0 0.6 0.25l0.25 0.6-0.25 0.6-0.6 0.25-0.6-0.25q-0.25-0.25-0.25-0.6l0.05-0.3h-0.1l-0.65-0.3-0.2-0.3-0.05-0.3 0.25-0.65 0.3-0.15 0.15-0.05 0.2-0.05 0.25 0.05m-2.1 1.55-0.2 0.4-0.4 0.2-0.25-0.05-0.85 0.25q-0.6 0-1.05-0.45l-0.35-0.7v-0.6l0.1-0.3-0.15 0.1-0.5-0.8q-0.55-0.55-1.3-0.55h-0.1l0.1-0.1 0.3-0.6v-0.2 0.2l-0.3 0.6-0.1 0.1-0.5 0.2h-0.15l-0.35-0.15-0.05 0.4-0.3 0.35-0.15 0.15q-0.25 0.35-0.25 0.8h-0.1l-0.5-0.2-0.2-0.45-0.45-0.3q-0.3-0.3-0.3-0.8t0.3-0.85q0.35-0.3 0.85-0.3 0.45 0 0.8 0.3l0.2-0.5q0.3-0.25 0.65-0.25t0.6 0.25l0.3 0.45q0.3-0.25 0.75-0.25l0.45 0.1 0.15-0.3 0.5-0.2 0.15-0.05q0.35 0 0.6 0.25l0.3 0.65-0.05 0.25-0.25 0.35-0.5 0.3-0.1 0.55q0.4-0.35 0.95-0.35l0.45 0.05 0.55 0.35q0.45 0.45 0.45 1.05v0.15l0.05 0.05 0.2 0.45m-3.25 0.1 0.05 0.3-0.3 0.65-0.65 0.3-0.55-0.15q0.6-0.1 1.05-0.55l0.4-0.55m-2.55 0.9q-0.2 0.2-0.5 0.2l-0.5-0.2-0.2-0.5 0.2-0.5 0.1-0.05 0.45 0.7 0.45 0.35m6.95-4.95 0.2-0.9-0.05-0.6 0.2 0.7-0.2 0.65-0.15 0.15m2.55-2.4 0.25-0.55q0.3-0.3 0.7-0.3 0.35 0 0.65 0.25l0.05 0.05 0.3 0.7-0.25 0.65-0.05 0.05q-0.3 0.3-0.7 0.3l-0.45-0.1-0.25-0.2q-0.3-0.3-0.3-0.7l0.05-0.15m5.2-2.8h-0.1l-0.25 0.05v-0.3q0-0.55-0.4-0.95-0.35-0.35-0.9-0.35t-0.95 0.35l-0.2 0.35 0.2-0.35q0.4-0.35 0.95-0.35t0.9 0.35q0.4 0.4 0.4 0.95v0.3l0.25-0.05h0.1m7.75-5.55 0.1 0.2q0.2 0.2 0.45 0.2l0.4-0.2 0.2-0.4-0.05-0.25 0.05 0.25-0.2 0.4-0.4 0.2q-0.25 0-0.45-0.2l-0.1-0.2m2.7-1.2q0-0.35 0.25-0.6 0.25-0.2 0.6-0.2l0.6 0.2 0.25 0.6-0.25 0.55-0.6 0.25-0.6-0.25q-0.25-0.2-0.25-0.55m-16.7 15.55q-0.3 0.05-0.5 0.25l-0.2 0.3 0.2-0.3q0.2-0.2 0.5-0.25m-5.2-1.95q0-0.55-0.4-0.95l-0.5-0.3 0.5 0.3q0.4 0.4 0.4 0.95m-0.1 0.55-0.3 0.4-0.05 0.1 0.05-0.1 0.3-0.4m-3.75-1.6-0.05 0.15 0.25 0.6 0.15 0.15-0.15-0.15-0.25-0.6 0.05-0.15m6.15 2.85-0.35-0.1q-0.25 0-0.45 0.15-0.15 0.2-0.15 0.45l0.15 0.4 0.2 0.15-0.2-0.15-0.15-0.4q0-0.25 0.15-0.45 0.2-0.15 0.45-0.15l0.35 0.1m-8.45 0.8-0.25-0.6 0.25-0.65q0.3-0.25 0.65-0.25t0.6 0.25l0.3 0.65-0.3 0.6q-0.25 0.3-0.6 0.3t-0.65-0.3m1.1-1.7 0.4 0.05 0.65-0.2-0.65 0.2-0.4-0.05" fill="#f0ebe3" fill-rule="evenodd"/>
<path d="m245.45 194.95q0.05-0.65 0.5-1.1t1.05-0.5l0.25-0.05q0.75 0 1.3 0.55l0.1 0.1q0.45 0.5 0.45 1.2l-0.1 0.7-0.4 0.55q-0.3-0.25-0.65-0.25-0.4 0-0.7 0.3l-0.25 0.55q-0.6-0.1-1.05-0.55l-0.05-0.05 0.05-0.4q0-0.55-0.4-0.95l-0.1-0.1" fill="#fff" fill-rule="evenodd"/>
<path d="m244.3 202.95q-0.4 0.4-0.95 0.4h-0.05l-0.2-0.45-0.05-0.05v-0.15q0-0.6-0.45-1.05l-0.55-0.35 0.25-0.45 0.3-0.2 0.75-0.2h0.05l0.45 0.1 0.5 0.3 0.45 0.9v0.1l-0.3 0.15-0.25 0.65 0.05 0.3m0.3-5.05-0.3-0.55h0.3q0.55 0 0.95-0.4l0.3-0.45 0.55 0.4q0.55 0.55 0.55 1.3t-0.55 1.3h-0.25q-0.4-0.4-0.95-0.4l-0.6 0.15 0.2-0.65-0.2-0.7" fill="#e7ddd3" fill-rule="evenodd"/>
<path d="m249 195.85q0.5-0.55 1.25-0.6l0.3-0.05 0.3 0.05-0.05 0.25q0 0.55 0.35 0.9 0.4 0.4 0.95 0.4l0.6-0.1 0.2-0.1 0.15 0.25q0.35 0.35 0.8 0.35l0.4-0.05 0.1 0.5-0.35 0.75-0.75 0.35-0.7-0.25-0.4 0.55-0.4 0.35q-0.55-0.5-1.3-0.5l-0.8 0.15q0-0.5-0.4-0.9l-0.55-0.35 0.55 0.35q0.4 0.4 0.4 0.9l-0.6 0.4q-0.4 0.45-0.5 1h-0.25q-0.55 0-0.95-0.4t-0.4-0.95 0.4-0.95l0.15-0.1 0.45 0.1q0.4 0 0.7-0.3l0.05-0.05 0.25-0.65-0.3-0.7-0.05-0.05 0.4-0.55m10.55-3.15q0.4 0.5 0.4 1.15 0 0.8-0.6 1.35-0.55 0.6-1.35 0.6h-0.35v-0.1q0-0.6-0.4-1.05-0.35-0.4-0.9-0.4l-0.25 0.05-0.05-0.45v-0.05l0.75-0.45q0.6-0.55 0.6-1.3v-0.05l0.45-0.1 0.25 0.3q0.55 0.5 1.25 0.5h0.2m-4.25 1.2v0.25q0 0.6-0.55 1l-0.15 0.15q-0.3-0.3-0.75-0.3l-0.5 0.1-0.35-0.55q-0.3-0.3-0.8-0.35l1.2-0.5 0.75-0.9 0.6 0.3 0.55 0.8m-8.2 7.75-0.85 0.35-0.7-0.25-0.15 0.05-0.25-0.05-0.2 0.05-0.15-0.05-0.45-0.9-0.5-0.3v-0.1l0.05-0.35 0.1-0.1 0.45-0.6 0.15-0.15 0.6-0.15q0.55 0 0.95 0.4h0.25q0.4 0.05 0.7 0.35 0.4 0.4 0.4 0.9l-0.1 0.5-0.15 0.1-0.15 0.25v0.05m-1.55 0.1 0.6-0.35q0.4-0.4 0.4-0.95t-0.4-0.95q0.4 0.4 0.4 0.95t-0.4 0.95l-0.6 0.35" fill="#c5ae94" fill-rule="evenodd"/>
<path d="m261.85 188.5 0.2-0.05q0.55 0 0.95 0.4t0.4 0.95-0.4 0.95-0.95 0.4-0.95-0.4l-0.25-0.55h0.15l0.9-0.3q0.4-0.3 0.4-0.7t-0.4-0.7h-0.05" fill="#eee7df" fill-rule="evenodd"/>
<path d="m258.75 189.5 0.6-0.1 0.4 0.05 0.3 0.45 0.8 0.3 0.25 0.55v0.3q0 0.7-0.55 1.15-0.4 0.4-1 0.5h-0.2q-0.7 0-1.25-0.5l-0.25-0.3q-0.25-0.35-0.25-0.85l0.05-0.3 0.65-0.45 0.45-0.8" fill="#e4dacf" fill-rule="evenodd"/>
<path d="m254.95 190.25 0.5-0.05q0.5 0 0.95 0.25l0.3 0.2 0.1 0.1q0.55 0.55 0.6 1.25v0.05q0 0.75-0.6 1.3l-0.75 0.45-0.6 0.1h-0.15l-0.55-0.8-0.6-0.3v-0.3l-0.1-0.55 0.6-0.5 0.3-1.15v-0.05" fill="#eae1d7" fill-rule="evenodd"/>
<path d="m251.75 199.4 0.05 0.05q0.6 0.6 0.6 1.4t-0.6 1.35q-0.55 0.6-1.35 0.6-0.7 0-1.2-0.4v-0.2q0-0.5-0.35-0.85l-0.35-0.2-0.05-0.3 0.05-0.4q0.1-0.55 0.5-1l0.6-0.4 0.8-0.15q0.75 0 1.3 0.5" fill="#f0eae3" fill-rule="evenodd"/>
<path d="m240.2 203-0.15 0.45-0.4 0.55q-0.45 0.45-1.05 0.55h-0.25l-0.85-0.2-0.45-0.35-0.45-0.7-0.1-0.6v-0.1q0-0.45 0.25-0.8l0.15-0.15 0.3-0.35 0.4-0.25h0.15l0.5-0.2h0.1q0.75 0 1.3 0.55l0.5 0.8 0.05 0.2v0.6" fill="#f3efeb" fill-rule="evenodd"/>
<path d="m240.5 199.3-0.15-0.8q0-0.9 0.6-1.55 0.65-0.6 1.55-0.6l0.85 0.15-0.1-0.5q0-0.55 0.4-0.95t0.95-0.4q0.45 0 0.85 0.3 0.05-0.65 0.5-1.1t1.05-0.5l0.2-0.45q0.3-0.25 0.65-0.25t0.6 0.25l0.3 0.65-0.1 0.4q0.45 0.5 0.45 1.2l-0.1 0.7q0.5-0.55 1.25-0.6l-0.65-0.4q-0.35-0.35-0.35-0.9 0-0.35 0.15-0.6-0.35-0.4-0.35-0.85 0-0.7 0.75-1.25l1.2-0.45v-0.15q0-0.55 0.35-0.95 0.4-0.35 0.95-0.35t0.9 0.35l0.2-0.6q0.3-0.45 0.65-0.45t0.6 0.45l0.3 1.15 0.5-0.05q0.5 0 0.95 0.25l-0.15-0.15q-0.4-0.45-0.4-1.15t0.4-1.2q0.45-0.45 1.05-0.45t1 0.45l0.45 1.2v0.35l0.6-0.1 0.4 0.05-0.05-0.25 0.25-0.55-0.05-0.2q0-0.25 0.15-0.45 0.2-0.15 0.45-0.15l0.4 0.15 0.15 0.2q0.5 0 0.8 0.3m-5.8 5.3-0.6 0.1h-0.15v0.25q0 0.6-0.55 1l-0.15 0.15m-2.05 3.2-0.4 0.55-0.4 0.35m-4.65 2.25-0.85 0.35-0.7-0.25-0.15 0.05 0.35 0.2 0.3 0.65-0.1 0.35m-0.7 0.55h-0.1l-0.65-0.3-0.2-0.3q-0.4 0.4-0.95 0.4h-0.05l-0.2 0.4-0.4 0.2-0.25-0.05-0.85 0.25q-0.6 0-1.05-0.45l-0.35-0.7-0.15 0.45 0.05 0.3-0.3 0.65-0.65 0.3-0.55-0.15h-0.25l-0.85-0.2q-0.2 0.2-0.5 0.2l-0.5-0.2-0.2-0.5 0.2-0.5 0.1-0.05-0.1-0.6v-0.1h-0.1l-0.5-0.2-0.2-0.45-0.45-0.3q-0.3-0.3-0.3-0.8t0.3-0.85q0.35-0.3 0.85-0.3 0.45 0 0.8 0.3l0.2-0.5q0.3-0.25 0.65-0.25t0.6 0.25l0.3 0.45q0.3-0.25 0.75-0.25l0.45 0.1 0.15-0.3 0.5-0.2 0.15-0.05q0.35 0 0.6 0.25l0.3 0.65-0.05 0.25 1 0.25h0.1l0.75-0.2h0.05l0.5-0.35m0.7-2.2-0.3-0.55-0.3-0.4q-0.3-0.3-0.65-0.45m10.05-5.1-0.2 0.15q-0.35 0.4-0.9 0.4t-0.95-0.4q-0.3-0.3-0.35-0.75m-4 2.55 0.25-0.05q0.75 0 1.3 0.55l0.1 0.1m-2.8 2.55-0.3 0.45q-0.4 0.4-0.95 0.4h-0.3m2.7-0.35 0.25-0.55q0.3-0.3 0.7-0.3 0.35 0 0.65 0.25l0.4-0.55m-3.1 0.55 0.05-0.4q0-0.55-0.4-0.95l-0.1-0.1m1.55 2.05q-0.6-0.1-1.05-0.55l-0.05-0.05-0.05 0.1 0.55 0.4q0.55 0.55 0.55 1.3t-0.55 1.3q0.4 0.05 0.7 0.35 0.4 0.4 0.4 0.9l-0.1 0.5 0.7-0.2 0.45 0.1-0.05-0.3 0.05-0.4h-0.25q-0.55 0-0.95-0.4t-0.4-0.95 0.4-0.95l0.15-0.1-0.25-0.2q-0.3-0.3-0.3-0.7l0.05-0.15m2.4-3.65 0.2-0.35q0.4-0.35 0.95-0.35t0.9 0.35q0.4 0.4 0.4 0.95v0.3l0.25-0.05h0.1l1.2-0.5 0.75-0.9v-0.3l-0.1-0.55q-0.35 0-0.65-0.5v-0.05l0.2-0.75q0-0.55-0.4-0.95m-1 4.5q0.5 0.05 0.8 0.35l0.35 0.55 0.5-0.1q0.45 0 0.75 0.3m-1.9 1.4 0.15-0.15m-4.25-0.15 0.05 0.05 0.3 0.7-0.25 0.65 0.55 0.35q0.4 0.4 0.4 0.9l0.8-0.15q0.75 0 1.3 0.5m0.95-2.7 0.2-0.1m8.15-8.4 0.05 0.25-0.2 0.4-0.4 0.2q-0.25 0-0.45-0.2l-0.1-0.2m2.7-1.2q0-0.35 0.25-0.6 0.25-0.2 0.6-0.2l0.6 0.2 0.25 0.6-0.25 0.55-0.6 0.25-0.6-0.25q-0.25-0.2-0.25-0.55m-1.8 2.75 0.25 0.55m-0.25-0.55-0.8-0.3-0.3-0.45m-1 0.05-0.45 0.8-0.65 0.45-0.05 0.3q0 0.5 0.25 0.85m-2.9-1.65v0.05m1.75 0.35 0.1 0.1q0.55 0.55 0.6 1.25v0.05q0 0.75-0.6 1.3l-0.75 0.45m0.65-3.15 0.6 0.15 0.35-0.05m-1.25-0.3 0.3 0.2m-0.6 3.65 0.25-0.05q0.55 0 0.9 0.4 0.4 0.45 0.4 1.05v0.1m-3.5-3 0.6 0.3 0.55 0.8m-6.75 6.55q0.1-0.55 0.5-1l0.6-0.4m-1.1 2.1 0.35 0.2q0.35 0.35 0.35 0.85v0.2m-4.65-3.15 0.6-0.15q0.55 0 0.95 0.4h0.25m-0.25 0q0.4 0.4 0.4 0.95t-0.4 0.95l-0.6 0.35m-1.7-1.2v-0.1l0.05-0.35m-0.5 0.35 0.45 0.1 0.5 0.3 0.45 0.9 0.15 0.05 0.2-0.05 0.25 0.05m-0.6 0.05 0.15-0.05m-0.15 0.05v-0.1m-0.5 1.2-0.05-0.3 0.25-0.65 0.3-0.15m-2.75-0.55 0.55 0.35q0.45 0.45 0.45 1.05v0.15l0.05 0.05 0.2 0.45m1.95 0.2 0.2-0.3q0.2-0.2 0.5-0.25m1.15-1.35v-0.05l0.15-0.25 0.15-0.1m-5.9-0.85-0.25 0.35-0.5 0.3-0.1 0.55q0.4-0.35 0.95-0.35l0.45 0.05 0.25-0.45 0.3-0.2m-3.95-0.7v0.2l-0.3 0.6-0.1 0.1h0.1q0.75 0 1.3 0.55l0.5 0.8 0.15-0.1 0.05-0.1 0.3-0.4m-0.8-1.8 0.5 0.3q0.4 0.4 0.4 0.95m-0.6 1.15 0.05 0.2 0.1-0.3m-0.25 1.35-0.4 0.55q-0.45 0.45-1.05 0.55m1.6-2.15v0.6m2.25 0.9-0.2-0.15-0.15-0.4q0-0.25 0.15-0.45 0.2-0.15 0.45-0.15l0.35 0.1m-5.8-1.95-0.15-0.15-0.25-0.6 0.05-0.15m0.7 1.05-0.35-0.15-0.05 0.4 0.4-0.25h0.15l0.5-0.2m-3.65 2.8-0.25-0.6 0.25-0.65q0.3-0.25 0.65-0.25t0.6 0.25l0.3 0.65-0.3 0.6q-0.25 0.3-0.6 0.3t-0.65-0.3m2.6-2.35-0.3 0.35-0.15 0.15q-0.25 0.35-0.25 0.8m0.25-0.8-0.65 0.2-0.4-0.05m1.8 2.4-0.45-0.35-0.45-0.7" fill="none" stroke="#dddeb8" stroke-linecap="round" stroke-linejoin="round" stroke-width=".5"/>
<path d="m261.85 188.5 0.2-0.05q0.55 0 0.95 0.4t0.4 0.95-0.4 0.95-0.95 0.4-0.95-0.4" fill="none" stroke="#b5ae6f" stroke-linecap="round" stroke-linejoin="round" stroke-width=".5"/>
<path d="m261.85 188.5h0.05q0.4 0.3 0.4 0.7t-0.4 0.7l-0.9 0.3h-0.15" fill="none" stroke="#bab57a" stroke-linecap="round" stroke-linejoin="round" stroke-width=".5"/>
<path d="m261.1 190.75v0.3q0 0.7-0.55 1.15-0.4 0.4-1 0.5" fill="none" stroke="#bdb87d" stroke-linecap="round" stroke-linejoin="round" stroke-width=".5"/>
<path d="m256.1 194.3-0.05-0.45v-0.05m1.35-1.8 0.45-0.1" fill="none" stroke="#dddeb8" stroke-linecap="round" stroke-linejoin="round" stroke-width=".5"/>
<path d="m233.7 205.65-0.25-0.6q0-0.35 0.25-0.6t0.6-0.25l0.6 0.25 0.25 0.6-0.25 0.6-0.6 0.25q-0.35 0-0.6-0.25m1.15 2.35 0.25-0.65 0.65-0.25q0.35 0 0.6 0.25l0.3 0.65-0.3 0.6q-0.25 0.3-0.6 0.3t-0.65-0.3q-0.25-0.25-0.25-0.6" fill="none" stroke="#dedbbe" stroke-linecap="round" stroke-linejoin="round" stroke-width=".5"/>
<path d="m257.8 262.6q-15.5 0.95-21.1-0.4-5.65-1.35-5.6-2.55-1.45 0.7-2 1.45-0.55 0.7-6.8 3.75-7.65 0.65-12.65-1-3.4-2-3.6-3.1-0.3-1.2 2.7-1.95l0.75-0.15 0.25 0.2 2.1-1.65q-1 3.45-0.7 3.15l4.25-0.3 6.4 0.45q2.3 0.35 10.65-3.1-2.75-1.25-3.45-2.7 6.25-0.15 12.25-3.1l-0.05 0.05q-1.7 2.2-2.45 2.4l5.65-0.25h0.65q21.45 6.4 39.35 1.05l3.1-1.05q2.35 0 4.15-0.8l0.1 0.6q0 3.3-9.25 5.65-9.2 2.35-24.7 3.35m-23.2-4.25q-0.25-0.25-0.35-0.2l-0.35-0.15-0.45 0.55-1.05 0.45 2.2-0.65m-0.75-0.35q-0.75-0.3-1.35-0.6l-6.55 3.05 5.55-1.7 2.35-0.75" fill="#666" fill-opacity=".35294" fill-rule="evenodd"/>
<path d="m273.85 172.2 3.6-0.65 1.95 2.9-1.3 4.9 9.75 27.6 0.3 6.35 0.2 14.25q-0.3 20.95-3.95 22.8-0.85 0.4 1.2 0.95l2.25 0.5v3.9l-3.25 1.95-2.95-0.65v-2.6l-6.15 2.6-21.45 3.25-16.25-2.3-2.25 1.3-2.3-1.35 0.6-3 2.5-1.4 2.1 0.45 0.75-24.15 5.8-2.4-5.85 0.2 1.45-3.6-7.35-18-2.25 0.3-4.25-1.3 2.3-3.55 2.9 0.65 7.15-10.4 33.2-14.85 1.55-4.65" fill="#c2b68b" fill-rule="evenodd"/>
<path d="m273.85 172.2 3.6-0.65 1.95 2.9-1.3 4.9 9.75 27.6 0.3 6.35 0.2 14.25q-0.3 20.95-3.95 22.8-0.85 0.4 1.2 0.95l2.25 0.5v3.9l-3.25 1.95-2.95-0.65v-2.6l-6.15 2.6-21.45 3.25-16.25-2.3-2.25 1.3-2.3-1.35 0.6-3 2.5-1.4 2.1 0.45 0.75-24.15 5.8-2.4-5.85 0.2 1.45-3.6-7.35-18-2.25 0.3-4.25-1.3 2.3-3.55 2.9 0.65 7.15-10.4 33.2-14.85z" fill="none" stroke="#5f5132" stroke-linecap="round" stroke-linejoin="round" stroke-width="2"/>
<path d="m239 255.55 2.5-2.5 6.05 1.05q7.75 1.4 11.25-4.9 3.45-6.4 0.1-13.05l-1.05-1.45q-4.5-4.65-10.2-6.7l-0.15-0.55-0.15-0.45q3.95-2.3 7.6-5.15 1.4-1.1 3.1-1.65 2.6-0.9 3-3.25 0.1-0.6-0.45-0.75l-8.1-2.6q2.75-3.95 6.9-6.4 1.05-0.6 1.3-1.65 0.65-3.05-2.5-2.2-13.35 3.35-26.75 1.1 2.25-1.25 3.55-3.35 3.55-5.7 8.95-9.55 4.8-3.5 10.9-4.85 2.85-0.65 5.55-2.05 3.75-2 6.95-4.85 2.3-0.35 4.25-2.6l0.25-0.15 0.15-0.35 0.35-0.5q1.45-1.95 1.55-3.5l0.05-0.35 1.25-0.2 0.1 6.95v0.4q-2.15 1.45-4.7 2.6l-1.25 0.3q-2.55 1.9-5.15 4.6l-0.7 1.25q-0.85 0.6-1.25 1.35l-0.05 0.15q-1.35 0.8-1.85 2.2-3.8 4.4-8.3 7.5l-0.9 0.75q10.1 0.35 18.8-2.15h0.35l0.35-0.4 2.8-1.5 0.9-0.15q0.3 6.25 3.15 11.2l0.55 1.1v0.2l-2.6 2.75v0.75l-1.3 2.05q-6.95 3.5-14.15 7.95l-6.05 3.8 16.7-4.05 5.75-1.85q1.25 1.6 2.55 2.35l0.75 1.7-1.5 3.65q0.1 0.5 0.45 0.7l0.1 0.05v1.65l-3.85 3.15-0.35 0.7q1.2 8.85-0.45 17-0.15 0.55-1.25 1.05-9.55 3.75-19.35 5.6-4.8 0.8-9.35-0.15l-0.55-0.35-1.6-0.45-0.05-0.05q-1.4-0.6-2.95-0.95" fill="#a38b56" fill-rule="evenodd"/>
<path d="m275.2 172.15 1.75-0.35 1.95 2.9-1.3 4.8 9.65 27.3 0.3 6.25 0.2 14.05q-0.3 20.7-3.9 22.5-0.85 0.4 1.2 0.95l2.2 0.45v3.85l-3.2 1.95-2.9-0.65v-2.55l-6.1 2.55-21.2 3.2-16.1-2.25-2.25 1.3-1.3-0.8q1.25-0.2 2.6-0.8l2.2-1.25q1.55 0.35 2.95 0.95l0.05 0.05 1.6 0.45 0.55 0.35q4.55 0.95 9.35 0.15 9.8-1.85 19.35-5.6 1.1-0.5 1.25-1.05 1.65-8.15 0.45-17l0.35-0.7 3.85-3.15v-1.65l-0.1-0.05q-0.35-0.2-0.45-0.7l1.5-3.65-0.75-1.7q-1.3-0.75-2.55-2.35l-5.75 1.85-16.7 4.05 6.05-3.8q7.2-4.45 14.15-7.95l1.3-2.05v-0.75l2.6-2.75v-0.2l-0.55-1.1q-2.85-4.95-3.15-11.2l-0.9 0.15-2.8 1.5-0.35 0.4h-0.35q-8.7 2.5-18.8 2.15l0.9-0.75q4.5-3.1 8.3-7.5 0.5-1.4 1.85-2.2l0.05-0.15q0.4-0.75 1.25-1.35l0.7-1.25q2.6-2.7 5.15-4.6l1.25-0.3q2.55-1.15 4.7-2.6v-0.4l-0.1-6.95m-48.45 33.15 0.6-0.9-0.05 0.6 0.05 0.5-0.6-0.2" fill="#837045" fill-rule="evenodd"/>
<path d="m262.35 187.55-0.2 0.05-0.1 0.2 0.05 0.15 1.15 1.5-4.55 5.4-3.15 2.55v-1.6l-0.05-0.15-0.2-0.1q-0.1 0-0.15 0.1l-0.1 0.15v2l-7.25 5.8-6.95 0.95-6.1-2.35 8.25-9.8 12.9-5.95 9.8-2.35-2.2 4.9-1-1.35-0.15-0.1" fill="#745c41" fill-rule="evenodd"/>
<path d="m242.65 192.05 0.1-0.05 13-6 0.05-0.05 10.25-2.5q0.4-0.25 0.75-0.45l0.15 0.2 0.15 0.1-0.15-0.1-0.05-0.2 0.15-0.15 3-1.95-0.9-0.9-0.1-0.2 0.1-0.15q0.05-0.1 0.15-0.1l0.2 0.1 0.95 0.95 2.65-1.8 0.2-0.05 0.15 0.1 0.05 0.2-0.1 0.15-2.6 1.75 1.7 1.7 0.05 0.15-0.05 0.2-0.2 0.05-0.15-0.05-1.75-1.75-2.9 1.9 1 1.55 0.05 0.15-0.1 0.15-0.2 0.05-0.15-0.1-1-1.55-0.75 0.5-2.5 5.55 1.65 2.2 0.05 0.2-0.1 0.15-0.15 0.05-0.2-0.1-1.55-2.1-4.5 5.35-0.05 0.05-3.45 2.8v2.75l-0.05 0.2-0.2 0.05-0.15-0.05-0.1-0.2v-2.35l-7 5.6-0.1 0.05-7.1 0.95h-0.15l-6.5-2.5-0.1-0.1-0.05-0.15 0.05-0.15 8.55-10.1m19.7-4.5 0.15 0.1 1 1.35 2.2-4.9-9.8 2.35-12.9 5.95-8.25 9.8 6.1 2.35 6.95-0.95 7.25-5.8v-2l0.1-0.15q0.05-0.1 0.15-0.1l0.2 0.1 0.05 0.15v1.6l3.15-2.55 4.55-5.4-1.15-1.5-0.05-0.15 0.1-0.2 0.2-0.05m4.95-4.3 0.05-0.05-0.05 0.05-0.15 0.05 0.15-0.05" fill="#52412e" fill-rule="evenodd"/>
<path d="m277.3 193.8 0.75-1.2 0.8-0.6-1.55-4.2m1.55 4.2 1.45-0.2m5 12-1.85 0.95 1.85 5.05-0.1 3.7 1.6-0.7m-1.6 0.7-0.2 5.75 2.3-0.45m-1 11q-0.65 0.7-1.65 0.95l-0.2 6.7q1 0 1.85-0.65m-4-6 1.4 0.1 0.95-0.15 0.25-7.8-0.5-0.05-2.1-0.1m2.7-3.55-0.1 3.7 1.4 0.85m-4 13 1.3 0.55 0.85 0.1-0.15 4.35-2.35 4.1 1.35 0.9m-2-41 2.15-1.05-2.15-5.95-2 1m1 45 1.65 1.1-1.65 2.9m2-29 2.7-0.55m-2.2-3.45 2.4-2.3m-6.35-21.5 2.45 6.8 2-1" fill="none" stroke="#5f5132" stroke-linecap="round" stroke-linejoin="round" stroke-width=".5"/>
<path d="m275.2 214.6h0.2l0.15 0.1v0.2l-0.1 0.15-14.8 7.7h-0.05l-12.95 3.75h-0.2l-0.15-0.15q-0.05-0.15 0.05-0.2l0.15-0.15 12.95-3.75 11.5-6-15.65 5.65h-0.2l-0.1-0.15v-0.2q0-0.1 0.15-0.1l18.95-6.8 0.1-0.05" fill="#5f5132" fill-rule="evenodd"/>
<path d="m254.9 232.45 2.55-1.65-0.3-1.2-2.2-0.25 0.3 1.2-2.85 2.9-0.8 3.85 3.3-4.85m1.2-4.15q0.75-1.35 1.9-2.6 2.55-2.8 5.5-3.3t4.5 1.65q1.1 1.6 1.05 3.85 0.75 0.35 1.25 1 0.9 1.2 0.75 3.05l-0.05 0.65-0.05 0.2q-0.5 2.45-2.35 4.4l-1.4 1.25-0.55 0.35q-0.9 2-2.7 3.7-2.7 2.8-5.95 3.35-2.95 0.45-4.65-1.15l-1.75 0.5q-2.85 0.5-4.45-1.65-1.5-2.1-0.8-5.6 0.7-3.45 3.25-6.3 2.6-2.7 5.45-3.2l1.05-0.15q2.1 0.05 3.4 1.75l0.1 0.15 1.7-0.45q3.25-0.55 5 1.4 0.85 1 1.2 2.3 0.9-1.7 1.3-3.7l0.25-1.85-0.25 1.85q-0.4 2-1.3 3.7-0.35-1.3-1.2-2.3-1.75-1.95-5-1.4l-1.7 0.45-0.1-0.15q-1.3-1.7-3.4-1.75m1.45-0.6 1.9 1.5 1.15-0.2 3.35 0.1-1.45-1-2.65-0.8 0.65-3.25-2.15 2.25-0.8 1.4m11.6 3.65 1.05 0.45-0.55 2.55 1-2.05-1.1-2.9-0.4 1.95m-4.2 1.3-2.8-0.15 2.4 2.05-0.45 5 1.55-2.1 0.05-3.1-0.75-1.7m2.75-2.35 0.65-3.2-2.75-3.25 0.5 3-0.5 2.6 2.1 0.85m-8.1-0.1q-2.3 0.8-4.3 2.8-2.75 2.7-3.4 6.05-0.7 3.3 1.05 5.3l0.4 0.35-0.4-0.35q-1.75-2-1.05-5.3 0.65-3.35 3.4-6.05 2-2 4.3-2.8m8.4 6.9 0.65-0.75-0.35-3.65-0.1 0.65-0.2 3.75m-1.35 1.7 0.8-2.3q0.35-1.7 0.05-3.05 0.3 1.35-0.05 3.05l-0.8 2.3m-7.2 4.05 3.25-1.8-5.15 0.2-3.3-5.6-0.55 2.55-0.25 3.75 2.5 1.45 3.5-0.55m-8.9-0.45-1.25 0.85-2.5-1.4 1.75 2.15 2.65 0.8 0.7-0.7-0.55-5.55-0.8 3.85" fill="#855a30" fill-rule="evenodd"/>
<path d="m254.9 232.45-3.3 4.85 0.8-3.85 2.85-2.9-0.3-1.2 2.2 0.25 0.3 1.2-2.55 1.65m14.25-1.1 0.4-1.95 1.1 2.9-1 2.05 0.55-2.55-1.05-0.45m-1.45-1.05-2.1-0.85 0.5-2.6-0.5-3 2.75 3.25-0.65 3.2m-2.75 2.35 0.75 1.7-0.05 3.1-1.55 2.1 0.45-5-2.4-2.05 2.8 0.15" fill="#c5925f" fill-rule="evenodd"/>
<path d="m257.55 227.7 0.8-1.4 2.15-2.25-0.65 3.25 2.65 0.8 1.45 1-3.35-0.1-1.15 0.2-1.9-1.5m10.45 9.4 0.2-3.75 0.1-0.65 0.35 3.65-0.65 0.75m-17.45 5.3 0.8-3.85 0.55 5.55-0.7 0.7-2.65-0.8-1.75-2.15 2.5 1.4 1.25-0.85m8.9 0.45-3.5 0.55-2.5-1.45 0.25-3.75 0.55-2.55 3.3 5.6 5.15-0.2-3.25 1.8" fill="#583c21" fill-rule="evenodd"/>
<path d="m256.1 228.3q0.75-1.35 1.9-2.6 2.55-2.8 5.5-3.3t4.5 1.65q1.1 1.6 1.05 3.85 0.75 0.35 1.25 1 0.9 1.2 0.75 3.05l-0.05 0.65-0.05 0.2q-0.5 2.45-2.35 4.4l-1.4 1.25-0.55 0.35q-0.9 2-2.7 3.7-2.7 2.8-5.95 3.35-2.95 0.45-4.65-1.15l-1.75 0.5q-2.85 0.5-4.45-1.65-1.5-2.1-0.8-5.6 0.7-3.45 3.25-6.3 2.6-2.7 5.45-3.2l1.05-0.15q2.1 0.05 3.4 1.75l0.1 0.15 1.7-0.45q3.25-0.55 5 1.4 0.85 1 1.2 2.3 0.9-1.7 1.3-3.7l0.25-1.85m-15.7 16.8-0.4-0.35q-1.75-2-1.05-5.3 0.65-3.35 3.4-6.05 2-2 4.3-2.8m7.9 3.25q0.3 1.35-0.05 3.05l-0.8 2.3" fill="none" stroke="#863724" stroke-linecap="round" stroke-linejoin="round" stroke-width=".5"/>
<path d="m260.1 250.75 1.95-6.5 3.4-3.05-3.4 3.05-1.95 6.5m7.35-12.65-5.45 12.6-3.8 3.15-3.5 1.2-3.5-0.9-1.6-9 4.25 0.15 7.2-1.8 6.4-5.4m-7.3 7.1-4.85 1.4 0.95 6.7 1.15-0.2 2.75-7.9m-6.55 1.7-2.8-0.15 0.9 6.65 2.2 0.25-0.3-6.75" fill="#67251d" fill-rule="evenodd"/>
<path d="m253.6 246.9 0.3 6.75-2.2-0.25-0.9-6.65 2.8 0.15" fill="#3e1311" fill-rule="evenodd"/>
<path d="m260.15 245.2-2.75 7.9-1.15 0.2-0.95-6.7 4.85-1.4" fill="#591c1a" fill-rule="evenodd"/>
<path d="m265.45 241.2-3.4 3.05-1.95 6.5m7.35-12.65-5.45 12.6-3.8 3.15-3.5 1.2-3.5-0.9-1.6-9 4.25 0.15 7.2-1.8 6.4-5.4m-7.3 7.1-2.75 7.9-1.15 0.2-0.95-6.7 4.85-1.4m-6.55 1.7 0.3 6.75-2.2-0.25-0.9-6.65 2.8 0.15" fill="none" stroke="#863724" stroke-linecap="round" stroke-linejoin="round" stroke-width=".5"/>
<path d="m266.8 222.55 1.4 1.3q0.85 0.85 1.05 2 0.25 1.35 0.8 2.65 1.1 0.75 1.15 2.35 0.1 1.65-0.45 3.1-0.65 2.25-2.5 4.05l-0.15 0.3-0.05-0.05-0.35 0.2-0.05-0.05h-0.1q-0.25 0.05-0.3 0.25l-1.7 4.85-0.1-0.05q-0.25 0-0.35 0.2-0.75 1.5-1.2 3.1l-1.05 3.05-0.85 1.2-0.5 0.6-0.2-0.05q-0.15 0-0.25 0.15l-2.85 2.4-1.85 0.55-0.25-0.05q-0.7 0.45-1.2 0.4l-0.3 0.1-0.5-0.05q-1.3-0.8-0.35-2l0.95-1.5q1.35-2.9 2-6.1l0.4-2.3 0.3-2.6 0.7-1.5q1.1-2.5 2.55-4.85l0.5-0.65 0.5-0.6 0.4-0.4q0.4-0.6 0.15-0.95l-0.65-0.45-5.15 0.65-0.8 0.15-0.25-0.55q-0.25-0.45-0.1-1.05 0.3-1.35 0.9-2.7 1.45-3.15 4.7-4.6l0.65-0.3 2.4-0.95q1.7-0.2 2.9 0.75" fill="#423624" fill-opacity=".26274" fill-rule="evenodd"/>
</g>
<g id="b" transform="translate(-233.2,-186.4)">
<path d="m240.5 199.3-0.15-0.8q0-0.9 0.6-1.55 0.65-0.6 1.55-0.6l0.85 0.15q0.35 0.15 0.65 0.45l0.3 0.4 0.3 0.55 0.05 0.6-0.2 0.9-0.45 0.6-0.1 0.1-0.5 0.35h-0.05l-0.75 0.2h-0.1l-1-0.25 0.05-0.25-0.3-0.65q-0.25-0.25-0.6-0.25l-0.15 0.05m15.9-8.85-0.15-0.15q-0.4-0.45-0.4-1.15t0.4-1.2q0.45-0.45 1.05-0.45t1 0.45l0.45 1.2v0.35l-0.45 0.8-0.65 0.45-0.35 0.05-0.6-0.15-0.3-0.2m-22.7 15.2-0.25-0.6q0-0.35 0.25-0.6t0.6-0.25l0.6 0.25 0.25 0.6-0.25 0.6-0.6 0.25q-0.35 0-0.6-0.25m1.15 2.35 0.25-0.65 0.65-0.25q0.35 0 0.6 0.25l0.3 0.65-0.3 0.6q-0.25 0.3-0.6 0.3t-0.65-0.3q-0.25-0.25-0.25-0.6" fill="#f7f2ee" fill-rule="evenodd"/>
<path d="m251 190.8v-0.15q0-0.55 0.35-0.95 0.4-0.35 0.95-0.35t0.9 0.35q0.4 0.4 0.4 0.95l-0.2 0.75-0.2 0.15q-0.35 0.4-0.9 0.4t-0.95-0.4q-0.3-0.3-0.35-0.75" fill="#f9f5f2" fill-rule="evenodd"/>
<path d="m243.35 196.5-0.1-0.5q0-0.55 0.4-0.95t0.95-0.4q0.45 0 0.85 0.3l0.1 0.1q0.4 0.4 0.4 0.95l-0.05 0.4-0.05 0.1-0.3 0.45q-0.4 0.4-0.95 0.4h-0.3l-0.3-0.4q-0.3-0.3-0.65-0.45m3.65-3.15 0.2-0.45q0.3-0.25 0.65-0.25t0.6 0.25l0.3 0.65-0.1 0.4-0.1-0.1q-0.55-0.55-1.3-0.55l-0.25 0.05m3.25 1.9-0.65-0.4q-0.35-0.35-0.35-0.9 0-0.35 0.15-0.6-0.35-0.4-0.35-0.85 0-0.7 0.75-1.25l1.2-0.45q0.05 0.45 0.35 0.75 0.4 0.4 0.95 0.4t0.9-0.4l0.2-0.15v0.05q0.3 0.5 0.65 0.5-0.35 0-0.65-0.5v-0.05l0.2-0.75q0-0.55-0.4-0.95l0.2-0.6q0.3-0.45 0.65-0.45t0.6 0.45l0.3 1.15v0.05l-0.3 1.15-0.6 0.5 0.1 0.55v0.3l-0.75 0.9-1.2 0.5q0.5 0.05 0.8 0.35l0.35 0.55 0.5-0.1q0.45 0 0.75 0.3 0.35 0.35 0.35 0.8l-0.35 0.75-0.35 0.3-0.4 0.05q-0.45 0-0.8-0.35l-0.15-0.25-0.05-0.05-0.15 0.15-0.6 0.1q-0.55 0-0.95-0.4-0.35-0.35-0.35-0.9l0.05-0.25-0.3-0.05-0.3 0.05m9.5-5.8-0.05-0.25 0.25-0.55-0.05-0.2q0-0.25 0.15-0.45 0.2-0.15 0.45-0.15l0.4 0.15 0.15 0.2q0.5 0 0.8 0.3h0.05q0.4 0.3 0.4 0.7t-0.4 0.7l-0.9 0.3h-0.15l-0.8-0.3-0.3-0.45m-2.1 6.35q0 0.5-0.4 0.9-0.35 0.45-0.9 0.45t-0.95-0.45q-0.35-0.4-0.35-1t0.35-1.05q0.3-0.3 0.7-0.35l0.25-0.05q0.55 0 0.9 0.4 0.4 0.45 0.4 1.05v0.1m-8.4 6.6-0.35 0.6q-0.3 0.35-0.8 0.35t-0.85-0.35q-0.3-0.3-0.3-0.8 0-0.3 0.15-0.55v-0.05l0.15-0.25 0.15-0.1 0.7-0.2 0.45 0.1 0.35 0.2q0.35 0.35 0.35 0.85v0.2m-3.85-0.6 0.35 0.2 0.3 0.65-0.1 0.35h0.1q0.35 0 0.6 0.25l0.25 0.6-0.25 0.6-0.6 0.25-0.6-0.25q-0.25-0.25-0.25-0.6l0.05-0.3h-0.1l-0.65-0.3-0.2-0.3-0.05-0.3 0.25-0.65 0.3-0.15 0.15-0.05 0.2-0.05 0.25 0.05m-2.1 1.55-0.2 0.4-0.4 0.2-0.25-0.05-0.85 0.25q-0.6 0-1.05-0.45l-0.35-0.7v-0.6l0.1-0.3-0.15 0.1-0.5-0.8q-0.55-0.55-1.3-0.55h-0.1l0.1-0.1 0.3-0.6v-0.2 0.2l-0.3 0.6-0.1 0.1-0.5 0.2h-0.15l-0.35-0.15-0.05 0.4-0.3 0.35-0.15 0.15q-0.25 0.35-0.25 0.8h-0.1l-0.5-0.2-0.2-0.45-0.45-0.3q-0.3-0.3-0.3-0.8t0.3-0.85q0.35-0.3 0.85-0.3 0.45 0 0.8 0.3l0.2-0.5q0.3-0.25 0.65-0.25t0.6 0.25l0.3 0.45q0.3-0.25 0.75-0.25l0.45 0.1 0.15-0.3 0.5-0.2 0.15-0.05q0.35 0 0.6 0.25l0.3 0.65-0.05 0.25-0.25 0.35-0.5 0.3-0.1 0.55q0.4-0.35 0.95-0.35l0.45 0.05 0.55 0.35q0.45 0.45 0.45 1.05v0.15l0.05 0.05 0.2 0.45m-3.25 0.1 0.05 0.3-0.3 0.65-0.65 0.3-0.55-0.15q0.6-0.1 1.05-0.55l0.4-0.55m-2.55 0.9q-0.2 0.2-0.5 0.2l-0.5-0.2-0.2-0.5 0.2-0.5 0.1-0.05 0.45 0.7 0.45 0.35m6.95-4.95 0.2-0.9-0.05-0.6 0.2 0.7-0.2 0.65-0.15 0.15m2.55-2.4 0.25-0.55q0.3-0.3 0.7-0.3 0.35 0 0.65 0.25l0.05 0.05 0.3 0.7-0.25 0.65-0.05 0.05q-0.3 0.3-0.7 0.3l-0.45-0.1-0.25-0.2q-0.3-0.3-0.3-0.7l0.05-0.15m5.2-2.8h-0.1l-0.25 0.05v-0.3q0-0.55-0.4-0.95-0.35-0.35-0.9-0.35t-0.95 0.35l-0.2 0.35 0.2-0.35q0.4-0.35 0.95-0.35t0.9 0.35q0.4 0.4 0.4 0.95v0.3l0.25-0.05h0.1m10.45-6.75q0-0.35 0.25-0.6 0.25-0.2 0.6-0.2l0.6 0.2 0.25 0.6-0.25 0.55-0.6 0.25-0.6-0.25q-0.25-0.2-0.25-0.55m-2.7 1.2 0.1 0.2q0.2 0.2 0.45 0.2l0.4-0.2 0.2-0.4-0.05-0.25 0.05 0.25-0.2 0.4-0.4 0.2q-0.25 0-0.45-0.2l-0.1-0.2m-14 14.35q-0.3 0.05-0.5 0.25l-0.2 0.3 0.2-0.3q0.2-0.2 0.5-0.25m-5.2-1.95q0-0.55-0.4-0.95l-0.5-0.3 0.5 0.3q0.4 0.4 0.4 0.95m-0.1 0.55-0.3 0.4-0.05 0.1 0.05-0.1 0.3-0.4m2.4 1.25-0.35-0.1q-0.25 0-0.45 0.15-0.15 0.2-0.15 0.45l0.15 0.4 0.2 0.15-0.2-0.15-0.15-0.4q0-0.25 0.15-0.45 0.2-0.15 0.45-0.15l0.35 0.1m-6.15-2.85-0.05 0.15 0.25 0.6 0.15 0.15-0.15-0.15-0.25-0.6 0.05-0.15m-2.3 3.65-0.25-0.6 0.25-0.65q0.3-0.25 0.65-0.25t0.6 0.25l0.3 0.65-0.3 0.6q-0.25 0.3-0.6 0.3t-0.65-0.3m1.1-1.7 0.4 0.05 0.65-0.2-0.65 0.2-0.4-0.05" fill="#f0ebe3" fill-rule="evenodd"/>
<path d="m245.45 194.95q0.05-0.65 0.5-1.1t1.05-0.5l0.25-0.05q0.75 0 1.3 0.55l0.1 0.1q0.45 0.5 0.45 1.2l-0.1 0.7-0.4 0.55q-0.3-0.25-0.65-0.25-0.4 0-0.7 0.3l-0.25 0.55q-0.6-0.1-1.05-0.55l-0.05-0.05 0.05-0.4q0-0.55-0.4-0.95l-0.1-0.1" fill="#fff" fill-rule="evenodd"/>
<path d="m244.3 202.95q-0.4 0.4-0.95 0.4h-0.05l-0.2-0.45-0.05-0.05v-0.15q0-0.6-0.45-1.05l-0.55-0.35 0.25-0.45 0.3-0.2 0.75-0.2h0.05l0.45 0.1 0.5 0.3 0.45 0.9v0.1l-0.3 0.15-0.25 0.65 0.05 0.3m0.3-5.05-0.3-0.55h0.3q0.55 0 0.95-0.4l0.3-0.45 0.55 0.4q0.55 0.55 0.55 1.3t-0.55 1.3h-0.25q-0.4-0.4-0.95-0.4l-0.6 0.15 0.2-0.65-0.2-0.7" fill="#e7ddd3" fill-rule="evenodd"/>
<path d="m249 195.85q0.5-0.55 1.25-0.6l0.3-0.05 0.3 0.05-0.05 0.25q0 0.55 0.35 0.9 0.4 0.4 0.95 0.4l0.6-0.1 0.2-0.1 0.15 0.25q0.35 0.35 0.8 0.35l0.4-0.05 0.1 0.5-0.35 0.75-0.75 0.35-0.7-0.25-0.4 0.55-0.4 0.35q-0.55-0.5-1.3-0.5l-0.8 0.15-0.6 0.4q-0.4 0.45-0.5 1h-0.25q-0.55 0-0.95-0.4t-0.4-0.95 0.4-0.95l0.15-0.1 0.45 0.1q0.4 0 0.7-0.3l0.05-0.05 0.55 0.35q0.4 0.4 0.4 0.9 0-0.5-0.4-0.9l-0.55-0.35 0.25-0.65-0.3-0.7-0.05-0.05 0.4-0.55m10.55-3.15q0.4 0.5 0.4 1.15 0 0.8-0.6 1.35-0.55 0.6-1.35 0.6h-0.35v-0.1q0-0.6-0.4-1.05-0.35-0.4-0.9-0.4l-0.25 0.05-0.05-0.45v-0.05l0.75-0.45q0.6-0.55 0.6-1.3v-0.05l0.45-0.1 0.25 0.3q0.55 0.5 1.25 0.5h0.2m-4.25 1.2v0.25q0 0.6-0.55 1l-0.15 0.15q-0.3-0.3-0.75-0.3l-0.5 0.1-0.35-0.55q-0.3-0.3-0.8-0.35l1.2-0.5 0.75-0.9 0.6 0.3 0.55 0.8m-8.2 7.75-0.85 0.35-0.7-0.25-0.15 0.05-0.25-0.05-0.2 0.05-0.15-0.05-0.45-0.9-0.5-0.3v-0.1l0.05-0.35 0.1-0.1 0.45-0.6 0.15-0.15 0.6-0.15q0.55 0 0.95 0.4h0.25q0.4 0.05 0.7 0.35 0.4 0.4 0.4 0.9l-0.1 0.5-0.15 0.1-0.15 0.25v0.05m-1.55 0.1 0.6-0.35q0.4-0.4 0.4-0.95t-0.4-0.95q0.4 0.4 0.4 0.95t-0.4 0.95l-0.6 0.35" fill="#c5ae94" fill-rule="evenodd"/>
<path d="m261.85 188.5 0.2-0.05q0.55 0 0.95 0.4t0.4 0.95-0.4 0.95-0.95 0.4-0.95-0.4l-0.25-0.55h0.15l0.9-0.3q0.4-0.3 0.4-0.7t-0.4-0.7h-0.05" fill="#eee7df" fill-rule="evenodd"/>
<path d="m258.75 189.5 0.6-0.1 0.4 0.05 0.3 0.45 0.8 0.3 0.25 0.55v0.3q0 0.7-0.55 1.15-0.4 0.4-1 0.5h-0.2q-0.7 0-1.25-0.5l-0.25-0.3q-0.25-0.35-0.25-0.85l0.05-0.3 0.65-0.45 0.45-0.8" fill="#e4dacf" fill-rule="evenodd"/>
<path d="m254.95 190.25 0.5-0.05q0.5 0 0.95 0.25l0.3 0.2 0.1 0.1q0.55 0.55 0.6 1.25v0.05q0 0.75-0.6 1.3l-0.75 0.45-0.6 0.1h-0.15l-0.55-0.8-0.6-0.3v-0.3l-0.1-0.55 0.6-0.5 0.3-1.15v-0.05" fill="#eae1d7" fill-rule="evenodd"/>
<path d="m251.75 199.4 0.05 0.05q0.6 0.6 0.6 1.4t-0.6 1.35q-0.55 0.6-1.35 0.6-0.7 0-1.2-0.4v-0.2q0-0.5-0.35-0.85l-0.35-0.2-0.05-0.3 0.05-0.4q0.1-0.55 0.5-1l0.6-0.4 0.8-0.15q0.75 0 1.3 0.5" fill="#f0eae3" fill-rule="evenodd"/>
<path d="m240.2 203-0.15 0.45-0.4 0.55q-0.45 0.45-1.05 0.55h-0.25l-0.85-0.2-0.45-0.35-0.45-0.7-0.1-0.6v-0.1q0-0.45 0.25-0.8l0.15-0.15 0.3-0.35 0.4-0.25h0.15l0.5-0.2h0.1q0.75 0 1.3 0.55l0.5 0.8 0.05 0.2v0.6" fill="#f3efeb" fill-rule="evenodd"/>
<path d="m240.5 199.3-0.15-0.8q0-0.9 0.6-1.55 0.65-0.6 1.55-0.6l0.85 0.15-0.1-0.5q0-0.55 0.4-0.95t0.95-0.4q0.45 0 0.85 0.3 0.05-0.65 0.5-1.1t1.05-0.5l0.2-0.45q0.3-0.25 0.65-0.25t0.6 0.25l0.3 0.65-0.1 0.4q0.45 0.5 0.45 1.2l-0.1 0.7q0.5-0.55 1.25-0.6l-0.65-0.4q-0.35-0.35-0.35-0.9 0-0.35 0.15-0.6-0.35-0.4-0.35-0.85 0-0.7 0.75-1.25l1.2-0.45v-0.15q0-0.55 0.35-0.95 0.4-0.35 0.95-0.35t0.9 0.35l0.2-0.6q0.3-0.45 0.65-0.45t0.6 0.45l0.3 1.15 0.5-0.05q0.5 0 0.95 0.25l-0.15-0.15q-0.4-0.45-0.4-1.15t0.4-1.2q0.45-0.45 1.05-0.45t1 0.45l0.45 1.2v0.35l0.6-0.1 0.4 0.05-0.05-0.25 0.25-0.55-0.05-0.2q0-0.25 0.15-0.45 0.2-0.15 0.45-0.15l0.4 0.15 0.15 0.2q0.5 0 0.8 0.3m-5.8 5.3-0.6 0.1h-0.15v0.25q0 0.6-0.55 1l-0.15 0.15m-2.05 3.2-0.4 0.55-0.4 0.35m-4.65 2.25-0.85 0.35-0.7-0.25-0.15 0.05 0.35 0.2 0.3 0.65-0.1 0.35m-0.7 0.55h-0.1l-0.65-0.3-0.2-0.3q-0.4 0.4-0.95 0.4h-0.05l-0.2 0.4-0.4 0.2-0.25-0.05-0.85 0.25q-0.6 0-1.05-0.45l-0.35-0.7-0.15 0.45 0.05 0.3-0.3 0.65-0.65 0.3-0.55-0.15h-0.25l-0.85-0.2q-0.2 0.2-0.5 0.2l-0.5-0.2-0.2-0.5 0.2-0.5 0.1-0.05-0.1-0.6v-0.1h-0.1l-0.5-0.2-0.2-0.45-0.45-0.3q-0.3-0.3-0.3-0.8t0.3-0.85q0.35-0.3 0.85-0.3 0.45 0 0.8 0.3l0.2-0.5q0.3-0.25 0.65-0.25t0.6 0.25l0.3 0.45q0.3-0.25 0.75-0.25l0.45 0.1 0.15-0.3 0.5-0.2 0.15-0.05q0.35 0 0.6 0.25l0.3 0.65-0.05 0.25 1 0.25h0.1l0.75-0.2h0.05l0.5-0.35m0.7-2.2-0.3-0.55-0.3-0.4q-0.3-0.3-0.65-0.45m10.05-5.1-0.2 0.15q-0.35 0.4-0.9 0.4t-0.95-0.4q-0.3-0.3-0.35-0.75m-4 2.55 0.25-0.05q0.75 0 1.3 0.55l0.1 0.1m-4.35 3.4h0.3q0.55 0 0.95-0.4l0.3-0.45 0.05-0.1 0.05-0.4q0-0.55-0.4-0.95l-0.1-0.1m1.55 2.05 0.25-0.55q0.3-0.3 0.7-0.3 0.35 0 0.65 0.25l0.4-0.55m-2 1.15q-0.6-0.1-1.05-0.55l-0.05-0.05m0.5 3.1q0.55-0.55 0.55-1.3t-0.55-1.3l-0.55-0.4m1.65 1.55-0.25-0.2q-0.3-0.3-0.3-0.7l0.05-0.15m7.15-4.2-0.75 0.9-1.2 0.5q0.5 0.05 0.8 0.35l0.35 0.55 0.5-0.1q0.45 0 0.75 0.3m-5.2-1.95 0.2-0.35q0.4-0.35 0.95-0.35t0.9 0.35q0.4 0.4 0.4 0.95v0.3l0.25-0.05h0.1m-4.7 3.85-0.15 0.1q-0.4 0.4-0.4 0.95t0.4 0.95 0.95 0.4h0.25q0.1-0.55 0.5-1l0.6-0.4q0-0.5-0.4-0.9l-0.55-0.35 0.25-0.65-0.3-0.7-0.05-0.05m4.1 0.3 0.15-0.15m-0.15 0.15 0.2-0.1m7.95-6.4 0.25 0.55m1.55-3.3q0-0.35 0.25-0.6 0.25-0.2 0.6-0.2l0.6 0.2 0.25 0.6-0.25 0.55-0.6 0.25-0.6-0.25q-0.25-0.2-0.25-0.55m-1.6 0.75 0.05 0.25-0.2 0.4-0.4 0.2q-0.25 0-0.45-0.2l-0.1-0.2m-1.2 0.85-0.45 0.8-0.65 0.45-0.05 0.3q0 0.5 0.25 0.85m3-1.7-0.8-0.3-0.3-0.45m-5.7 2.5q-0.35 0-0.65-0.5v-0.05l0.2-0.75q0-0.55-0.4-0.95m0.85 2.25 0.1 0.55v0.3l0.6 0.3 0.55 0.8m-0.35-3.65v0.05m1.45 0.15 0.3 0.2 0.6 0.15 0.35-0.05m-0.95-0.1 0.1 0.1q0.55 0.55 0.6 1.25v0.05q0 0.75-0.6 1.3l-0.75 0.45m0.05 0.5 0.25-0.05q0.55 0 0.9 0.4 0.4 0.45 0.4 1.05v0.1m-9.1 5.35-0.05-0.3 0.05-0.4m1.1-1.4 0.8-0.15q0.75 0 1.3 0.5m-3.2 1.75 0.35 0.2q0.35 0.35 0.35 0.85v0.2m-1.85-1.15 0.7-0.2 0.45 0.1m-3.95-1.9 0.6-0.15q0.55 0 0.95 0.4h0.25q0.4 0.05 0.7 0.35 0.4 0.4 0.4 0.9l-0.1 0.5-0.15 0.1-0.15 0.25v0.05m-0.95-2.15q0.4 0.4 0.4 0.95t-0.4 0.95l-0.6 0.35m-1.7-1.2v-0.1l0.05-0.35m-0.5 0.35 0.45 0.1 0.5 0.3 0.45 0.9 0.15 0.05 0.2-0.05 0.25 0.05m-1.1 1.15-0.05-0.3 0.25-0.65 0.3-0.15v-0.1m0 0.1 0.15-0.05m-2.9-0.5 0.55 0.35q0.45 0.45 0.45 1.05v0.15l0.05 0.05 0.2 0.45m1.95 0.2 0.2-0.3q0.2-0.2 0.5-0.25m-4.45-2.6-0.25 0.35-0.5 0.3-0.1 0.55q0.4-0.35 0.95-0.35l0.45 0.05 0.25-0.45 0.3-0.2m-3.95-0.7v0.2l-0.3 0.6-0.1 0.1h0.1q0.75 0 1.3 0.55l0.5 0.8 0.15-0.1 0.05-0.1 0.3-0.4m-0.8-1.8 0.5 0.3q0.4 0.4 0.4 0.95m-0.6 1.15 0.05 0.2 0.1-0.3m-0.1 0.3v0.6m-0.15 0.45-0.4 0.55q-0.45 0.45-1.05 0.55m3.85-0.65-0.2-0.15-0.15-0.4q0-0.25 0.15-0.45 0.2-0.15 0.45-0.15l0.35 0.1m-4.8-2-0.5 0.2h-0.15l-0.4 0.25-0.3 0.35-0.15 0.15q-0.25 0.35-0.25 0.8m1.1-1.55-0.35-0.15-0.05 0.4m0.05-0.4-0.15-0.15-0.25-0.6 0.05-0.15m-2.3 3.65-0.25-0.6 0.25-0.65q0.3-0.25 0.65-0.25t0.6 0.25l0.3 0.65-0.3 0.6q-0.25 0.3-0.6 0.3t-0.65-0.3m2.15-1.85-0.65 0.2-0.4-0.05m1.8 2.4-0.45-0.35-0.45-0.7" fill="none" stroke="#dddeb8" stroke-linecap="round" stroke-linejoin="round" stroke-width=".5"/>
<path d="m261.85 188.5 0.2-0.05q0.55 0 0.95 0.4t0.4 0.95-0.4 0.95-0.95 0.4-0.95-0.4" fill="none" stroke="#b5ae6f" stroke-linecap="round" stroke-linejoin="round" stroke-width=".5"/>
<path d="m261.85 188.5h0.05q0.4 0.3 0.4 0.7t-0.4 0.7l-0.9 0.3h-0.15" fill="none" stroke="#bab57a" stroke-linecap="round" stroke-linejoin="round" stroke-width=".5"/>
<path d="m261.1 190.75v0.3q0 0.7-0.55 1.15-0.4 0.4-1 0.5" fill="none" stroke="#bdb87d" stroke-linecap="round" stroke-linejoin="round" stroke-width=".5"/>
<path d="m256.1 194.3-0.05-0.45v-0.05m1.35-1.8 0.45-0.1" fill="none" stroke="#dddeb8" stroke-linecap="round" stroke-linejoin="round" stroke-width=".5"/>
<path d="m233.7 205.65-0.25-0.6q0-0.35 0.25-0.6t0.6-0.25l0.6 0.25 0.25 0.6-0.25 0.6-0.6 0.25q-0.35 0-0.6-0.25m1.15 2.35 0.25-0.65 0.65-0.25q0.35 0 0.6 0.25l0.3 0.65-0.3 0.6q-0.25 0.3-0.6 0.3t-0.65-0.3q-0.25-0.25-0.25-0.6" fill="none" stroke="#dedbbe" stroke-linecap="round" stroke-linejoin="round" stroke-width=".5"/>
</g>
</defs>
</svg>
