<?xml version="1.0" encoding="UTF-8"?>
<svg version="1.1" viewBox="0 0 74.338 69.625" xmlns="http://www.w3.org/2000/svg" xmlns:cc="http://creativecommons.org/ns#" xmlns:dc="http://purl.org/dc/elements/1.1/" xmlns:rdf="http://www.w3.org/1999/02/22-rdf-syntax-ns#" xmlns:xlink="http://www.w3.org/1999/xlink">
<metadata>
<rdf:RDF>
<cc:Work rdf:about="">
<dc:format>image/svg+xml</dc:format>
<dc:type rdf:resource="http://purl.org/dc/dcmitype/StillImage"/>
</cc:Work>
</rdf:RDF>
</metadata>
<g transform="translate(-89.675,-22.2)">
<use transform="translate(89.65,22.2)" width="74.349998" height="69.599998" xlink:href="#a"/>
</g>
<defs>
<g id="a" transform="translate(-89.65,-22.2)">
<path d="m102.55 59.3 1.05-0.3 1.45 1 4.55 0.3q-0.1 0.4-0.6 0.3l-2.4 0.15q-1.15-0.15-2.5 0l-0.1 0.1-0.4 0.2-1.05-1.75m1.55 2.75h0.25l0.95 0.7 1.05 0.05 0.15 0.05 0.1 0.2 0.05 0.2 0.1 0.25 0.05 0.2v0.15l-0.15 0.6-1.55 0.35-0.9-2.45-0.1-0.3m-3.95-5-0.2 0.15-1.35-0.25 1.55 0.1" fill="#fefcfb" fill-rule="evenodd"/>
<path d="m102.55 59.3 1.05 1.75 0.5 1 0.1 0.3 0.9 2.45q0.7 2.35 1.05 5.05l28.05-0.75-27.85 5.45-0.3 4.7 14-0.9 4.85-0.65 2.15-0.4 7.2-1.5q7.4-1.85 14.4-4.6 6.1-2.45 11.9-5.6l0.1 0.55q1.6 9.05-4.55 13.35-27.8 2.65-55.55 11.45l-2.35 0.5q-2.95-0.3-5.1-5.05-2.25-5.05-2.25-12.2t2.25-12.2q2.2-4.85 5.25-5.05h0.25l1.35 0.25q1.4 0.5 2.6 2.1m56.75 1.55-9.2 0.7 0.9 0.05-33.3 2.45 39.6-7.2q1.15 1.7 2 4m-61.45 1.45q-2.15 0-3.7 3.5-1.5 3.5-1.5 8.45t1.5 8.45q1.55 3.5 3.7 3.5t3.65-3.5q1.55-3.5 1.55-8.45t-1.55-8.45q-1.5-3.5-3.65-3.5 2.15 0 3.65 3.5 1.55 3.5 1.55 8.45t-1.55 8.45q-1.5 3.5-3.65 3.5t-3.7-3.5q-1.5-3.5-1.5-8.45t1.5-8.45q1.55-3.5 3.7-3.5m-0.35 5.8q-1.25 0-2.15 1.8-0.85 1.85-0.85 4.45t0.85 4.4q0.9 1.85 2.15 1.85t2.1-1.85q0.9-1.8 0.9-4.4t-0.9-4.45q-0.85-1.8-2.1-1.8" fill="#906" fill-rule="evenodd"/>
<path d="m103.6 61.05 0.4-0.2 0.1-0.1q1.35-0.15 2.5 0l2.4-0.15q0.5 0.1 0.6-0.3l-4.55-0.3-1.45-1-1.05 0.3q-1.2-1.6-2.6-2.1l0.2-0.15q12.55 0.75 25.05-0.3 12.8-1.15 25.5-4.2 4.1 0.65 6.6 4.3l-39.6 7.2 33.3-2.45-0.9-0.05 9.2-0.7 1.25 4.75q-5.8 3.15-11.9 5.6-7 2.75-14.4 4.6l-7.2 1.5q-1.05-0.4-2.2 0l0.05 0.4-4.85 0.65-14 0.9 0.3-4.7 27.85-5.45-28.05 0.75q-0.35-2.7-1.05-5.05l1.55-0.35 0.15-0.6v-0.15l-0.05-0.2-0.1-0.25-0.05-0.2-0.1-0.2-0.15-0.05-1.05-0.05-0.95-0.7h-0.25l-0.5-1m-6.1 7.05q1.25 0 2.1 1.8 0.9 1.85 0.9 4.45t-0.9 4.4q-0.85 1.85-2.1 1.85t-2.15-1.85q-0.85-1.8-0.85-4.4t0.85-4.45q0.9-1.8 2.15-1.8m16.1 6.7q-0.95-0.45-2.3 0.55l0.55-0.05q0.95 0.25 1.75-0.5" fill="#ffaae3" fill-rule="evenodd"/>
<path d="m98.2 91.45 2.35-0.5-1.95 0.5h-0.4" fill="#164936" fill-rule="evenodd"/>
<path d="m124.9 77.7-0.05-0.4q1.15-0.4 2.2 0l-2.15 0.4m-11.3-2.9q-0.8 0.75-1.75 0.5l-0.55 0.05q1.35-1 2.3-0.55" fill="#cab7a5" fill-rule="evenodd"/>
<path d="m160.55 65.6-1.25-4.75m-2-4q-2.5-3.65-6.6-4.3-12.7 3.05-25.5 4.2-12.5 1.05-25.05 0.3m-1.95 34.4q-2.95-0.3-5.1-5.05-2.25-5.05-2.25-12.2t2.25-12.2q2.2-4.85 5.25-5.05h0.25l1.55 0.1m-1.95 34.4 2.35-0.5q27.75-8.8 55.55-11.45 6.15-4.3 4.55-13.35l-0.1-0.55m-3.25-8.75q1.15 1.7 2 4" fill="none" stroke="#220d0d" stroke-linecap="round" stroke-linejoin="round" stroke-width=".75"/>
<path d="m97.85 62.3q2.15 0 3.65 3.5 1.55 3.5 1.55 8.45t-1.55 8.45q-1.5 3.5-3.65 3.5t-3.7-3.5q-1.5-3.5-1.5-8.45t1.5-8.45q1.55-3.5 3.7-3.5" fill="none" stroke="#ffaae3" stroke-linecap="round" stroke-linejoin="round" stroke-width=".75"/>
<path d="m155.1 24.35q0.45 0 0.75 0.3l0.35 0.8-0.35 0.75q-0.3 0.35-0.75 0.35t-0.8-0.35q-0.3-0.3-0.3-0.75t0.3-0.8q0.35-0.3 0.8-0.3m-22.05-0.1q0 0.85-0.6 1.45t-1.45 0.6-1.45-0.6-0.6-1.45 0.6-1.45 1.45-0.6 1.45 0.6 0.6 1.45m-6.25 16.95q-0.6 0-1.05-0.45-0.4-0.4-0.4-1t0.4-1.05q0.45-0.4 1.05-0.4t1 0.4q0.45 0.45 0.45 1.05t-0.45 1q-0.4 0.45-1 0.45m24.85 3.85q0.6 0 1 0.4 0.45 0.45 0.45 1.05t-0.45 1q-0.4 0.45-1 0.45t-1.05-0.45q-0.4-0.4-0.4-1t0.4-1.05q0.45-0.4 1.05-0.4m-55.75-21q0.45 0.45 0.45 1.05t-0.45 1q-0.4 0.45-1 0.45t-1.05-0.45q-0.4-0.4-0.4-1t0.4-1.05q0.45-0.4 1.05-0.4t1 0.4m1.3 25.25q0 0.55-0.4 0.95t-0.95 0.4-0.95-0.4-0.4-0.95 0.4-0.95 0.95-0.4 0.95 0.4 0.4 0.95m11-15.15q-0.3 0.35-0.75 0.35l-0.8-0.35q-0.3-0.3-0.3-0.75t0.3-0.8q0.35-0.3 0.8-0.3l0.75 0.3q0.35 0.35 0.35 0.8t-0.35 0.75m-15 22.5 0.25 0.6-0.25 0.6-0.6 0.25-0.6-0.25-0.25-0.6q0-0.35 0.25-0.6t0.6-0.25l0.6 0.25m-0.5 33.95q-0.3 0.35-0.75 0.35t-0.8-0.35q-0.3-0.3-0.3-0.75t0.3-0.8q0.35-0.3 0.8-0.3l0.75 0.3q0.35 0.35 0.35 0.8l-0.35 0.75m50.7-38.2q-0.6 0.6-1.45 0.6t-1.45-0.6-0.6-1.45 0.6-1.45 1.45-0.6 1.45 0.6 0.6 1.45-0.6 1.45m-7.6 32.7q0-0.45 0.3-0.8 0.35-0.3 0.8-0.3t0.75 0.3l0.35 0.8q0 0.45-0.35 0.75-0.3 0.35-0.75 0.35t-0.8-0.35q-0.3-0.3-0.3-0.75m4.5-0.8q-0.4-0.4-0.4-1t0.4-1.05q0.45-0.4 1.05-0.4t1 0.4q0.45 0.45 0.45 1.05l-0.45 1q-0.4 0.45-1 0.45t-1.05-0.45m-13.65 5.2q-0.4 0.4-0.95 0.4t-0.95-0.4-0.4-0.95 0.4-0.95 0.95-0.4l0.95 0.4q0.4 0.4 0.4 0.95t-0.4 0.95m19.2-4.15q0.85 0 1.45 0.6t0.6 1.45-0.6 1.45-1.45 0.6-1.45-0.6-0.6-1.45 0.6-1.45 1.45-0.6" fill="#ffd5f3" fill-opacity=".50196" fill-rule="evenodd"/>
<path d="m138.45 28.85q-3.75-2.7-5.25 0.95v-0.05q-0.7-0.9 0.85-2.95 1.5-2.1 5.4-2.1 3.8 0 5.3 4 1.45 3.95 0.05 7.75-1.45 3.8-5.7 4-4.25 0.25-5.95 2.95t-0.6 4.4q1.05 1.65 2.8 3.55 0.85 0.9 2.25 4.3l-1-0.4q-0.65 2.7-3 1.85l-5.55-0.3q-0.5-5.15-1.45-8-0.75-2.2 0.2-4.4 0.65-1.6 2.15-2.5 1.75-1.05 3.85-1.05 3.05-0.05 5.75-1.5 2.8-1.6 2.7-5.1-0.05-3.45-2.8-5.4m-41.95 8.25q-0.1-3.2-2.25-1.8t-1 4.25q1.4 3.6 5.2 2.2 2.1-0.75 4.3-0.5 3.65 0.5 6.55 2.9 2.25 1.8 3.6 4.5 0.95 2.05 0.8 4.45-0.2 2.65-2.3 3.9l-0.4 0.2-0.05 0.05-0.9 0.2-6.1 0.7v-0.05q2.1-2.65 2.15-6 0.05-3.65-2.3-6.3-3-3.35-5.85-0.5-2.6 2.45-5.7 0-1.35-1.1-1.95-2.75-1-3-0.4-6 0.6-3.35 3.75-4.85 2.45-1.25 3.9 1.3 1.65 3-1.05 4.1" fill="#ffaae3" fill-opacity=".2" fill-rule="evenodd"/>
<path d="m162.6 49.05q-2.8 7.15-9.25 10.85-6.45 3.65-11.65 8.4-5.1 4.65-6.15 14.2-0.15 1.35-4.45 2.25l-5.9-0.2q0.5-1.5 3.05-7 1.4-3.15 4.1-6.2l3.3-3.4q0.2-0.35 0.55-0.55l0.2-0.2q1.65-1.9 4-3.2 4.85-2.65 8.45-6.55 3.55-3.85 5.95-8.85 2.35-5.1-0.05-10.4-2.45-5.3-7.25-3.95-2.1 0.55-2.8 2.25-0.6 1.35-0.1 2.45 0.95 2.1 2.9 2.9 2.35 1.05 4.2-1.5-0.2 2.25-3.2 2.4-3.2 0.15-4.95-3.25-0.75-1.5-0.7-3.25 0-2.35 2.65-4.6t8.55-1.6q5.85 0.6 8.6 6.25 2.75 5.6-0.05 12.75" fill="#ffd9f8" fill-opacity=".70196" fill-rule="evenodd"/>
<path d="m117.95 38.05q-1.2-1.1-2.4-0.5-1.45 0.75-1.5 2.4-0.1 3.35 2.65 5.5 3.55 2.55 6.35 5.9 4.65 5.6 4 12.55l-0.45 2.65q-2.15 8.9-10.35 11.85l-3.7 1.05q-0.15-2.6 0.25-6.3 3.25-2.15 5.2-5.75 2.4-4.25 1.4-9-0.95-4.35-4.05-7.95t-4.7-9.25q-1.55-5.7 1.6-7.25 3.05-1.5 5.3 0.7 2.2 2.2 1 4.15l-0.6-0.75" fill="#ffd5fa" fill-opacity=".70196" fill-rule="evenodd"/>
<path d="m108.7 63.4q1.35-1.6 3.45-2 2.35-0.5 3.45 1.6 0.5 0.9 0.25 1.45-0.2 0.6-1.2 0.75-1.4 0.15-1.9-0.3h-0.1q-0.65-0.55-0.15-1.75 0-0.15 0.15-0.15h0.25l0.15 0.15v0.25q-0.3 0.7-0.1 1.05h0.05l1.6 0.2q0.6-0.15 0.75-0.45l-0.25-0.95q-0.9-1.75-2.9-1.3-1.85 0.35-3 1.75-1.35 1.65-2.85 2.3h-0.25l-0.15-0.15v-0.25q0-0.15 0.15-0.15 1.35-0.6 2.6-2.05m39.1-10.1-0.15 0.2-0.15 0.05q-2.05-0.25-2.65 1.7-0.65 1.9-2.3 2.65-1.8 0.8-3.85 0.45-1.3-0.2-1.55-0.85-0.3-0.6 0.45-1.6h0.05l0.05-0.05q0.85-0.95 1.85-0.25 0.95 0.6 0.8 1.1 0 0.55-1.05 0.9h-0.05l-0.15-0.05-0.15-0.15v-0.2l0.15-0.15 0.7-0.4-0.55-0.55q-0.65-0.5-1.15 0.1-0.55 0.65-0.4 1.05t1.05 0.55l3.55-0.45q1.4-0.7 2-2.35 0.75-2.3 3.25-2l0.2 0.1 0.05 0.2m2.65 14.75 0.15 0.15v0.1l-0.05 0.1v0.05l-0.15 0.15-0.4 0.25v0.05q-0.3 0.5-0.15 0.7l1.15 0.05q0.95-0.25 1.2-0.7 0.2-0.5-0.25-1.3-0.4-0.85-1-0.95-0.7-0.15-1.65 0.45-1.55 1-2.95 2.45h-0.05q-0.65 0.7-0.95 1.6-0.9 1.95-3.2 2.35l-0.2-0.05-0.1-0.2v-0.2l0.25-0.1q1.95-0.35 2.7-2.05 0.4-0.9 1.1-1.6v-0.05l0.1-0.05q1.45-1.5 3-2.6 1.1-0.7 1.95-0.5 0.9 0.15 1.5 1.2 0.65 1.1 0.25 1.85-0.35 0.7-1.65 1l-1.55-0.15h-0.05q-0.5-0.4 0.05-1.45v-0.05q0.25-0.4 0.7-0.5h0.25m-20.55-3.8q-0.4 0.2-0.3 1.05 0.15 1.85 2.2 1.75 1.9-0.15 3.05-1.55l2.25-2.9 0.25-0.1h0.15l0.15 0.25-0.05 0.15-2.25 2.9q-1.35 1.6-3.55 1.8-2.55 0.15-2.75-2.3-0.15-1.3 0.6-1.6 0.65-0.35 2.1 0.25 0.7 0.3 0.5 1.05-0.3 1.1-1.75 0.85l-0.25-0.15v-0.15l0.1-0.25h0.2q0.9 0.1 1.15-0.5l-0.2-0.3q-1.1-0.5-1.6-0.25" fill="#906" fill-opacity=".6" fill-rule="evenodd"/>
</g>
</defs>
</svg>
