<?xml version="1.0" encoding="UTF-8"?>
<svg version="1.1" viewBox="0 0 241.1 190.8" xmlns="http://www.w3.org/2000/svg" xmlns:cc="http://creativecommons.org/ns#" xmlns:dc="http://purl.org/dc/elements/1.1/" xmlns:rdf="http://www.w3.org/1999/02/22-rdf-syntax-ns#" xmlns:xlink="http://www.w3.org/1999/xlink">
<metadata>
<rdf:RDF>
<cc:Work rdf:about="">
<dc:format>image/svg+xml</dc:format>
<dc:type rdf:resource="http://purl.org/dc/dcmitype/StillImage"/>
</cc:Work>
</rdf:RDF>
</metadata>
<g transform="translate(-169.85 -77.45)">
<use transform="translate(169.85,77.45)" width="241.10001" height="190.8" xlink:href="#a"/>
</g>
<defs>
<g id="a" transform="translate(120.55,95.4)">
<use transform="translate(-120.55,-95.4)" width="241.10001" height="190.8" xlink:href="#b"/>
</g>
<g id="b" transform="translate(120.55,95.4)">
<path d="m42.1-71.4q-1.45-7.9 1.65-17.1l-6.65 8.7q-9.55 13.6-7.95 24.85l-3.3 0.2q-0.65-9.95 4.9-24.15-8.85 9.05-9.8 24.9-1.35 0.15-2.35 0.65-2.95-2.1-2.9-12.65 16.35-24.85 36.45-28.9-4.85 1.5-7.5 11.3-1.9 7.1-2.55 12.2m9.9 17.65q43.15-18.5 46.05 9.15 0.95 16.05 16.25 19.35-13.6-1.1-17.5 5.8-3.15-27.6-16.95-17-5.4 9.65 0.65 12.6-7.15-0.1-11.85-2-4.95-11.75 5.8-19.75-13.6-4-30.7 0.8 0.8-0.7 1.25-1.8 16.25-6.75 34.2-2.5-5.45-3.7-27.2-4.65m-157.1 136.55q-8.1 3.3-14.95 1.45 11.2-1.6 16.25-9.15 3.05-4.65 3.85-11.6 10.5-15.15 11.25-21.65 0.55-4.9-4.35-4.9-2.65 0-6.9 1.4 3.9-2.65 6.25-5.6 1.2-1.55 2.05-3.15 1.35-2.7 1.6-5.65 0.35-4.05-1.4-8.55l-0.55-1.4q-0.8-6.85-0.55-12.55l0.05-1.2 0.15-1.55 0.05-0.45q0.75-7.45 3.45-12.9l0.9-1.65q29.5-34.45 77.85-37.1 14.85 1.8 25.4 4.9 4.7 1.4 8.55 3.05-1.75 1.6-1.85 3.4 0.1-1.8 1.85-3.4 2.25-1.9 5.6-0.8 7.55 8.9 4.45 27.1-1.75 18-17.75 33.5-13 12.2-16.95 2.35-25.3 6.8-52.8 3.15-23.1-3.3-34.65-22.45l-0.5 1.05 1.3 4.65 3.25 8.5 3.2 3.9q6 7 14.55 10.7l2.05 0.3h0.3l0.05 0.05 2.5 0.25 1.25 0.65q-2.45 0.75-5.95 2.2l-0.3 0.15-1.95 0.8q-9.5 4.25-15.25 13l-0.6 0.95q4.05-2.45 10.1-4.6 4.9-1.6 9.85-2.05-3.4 1.7-6.5 4.3-10.2 8.75-17.5 20.15-3.1 4.8-7.2 8.35-1.8 4.4-9.5 12.1m127.1-124.85q-22.7-5.85-49.65-1.3-32.75 6.2-49.05 30.8-4.55 10.3 8.8 18.25 17.3 8 34.6 6.25 21.3-0.15 35.1-4.65-1.85 7.2 5.75 2.75 11.2-5.3 9.1-10.6 14.3-11.95 8.9-35.3-3.75-3.4-3.55-6.2" fill="#db0202" fill-rule="evenodd"/>
<path d="m37.1-79.8 6.65-8.7q-3.1 9.2-1.65 17.1-1.4 10.05 1.85 12.3 1.5 4.9 1.65 8.25l6.4-2.9q21.75 0.95 27.2 4.65-17.95-4.25-34.2 2.5-0.45 1.1-1.25 1.8 17.1-4.8 30.7-0.8-10.75 8-5.8 19.75-4.7-1.9-7.05-5.55 1.05-15.5-15.7 1.25 2.15-9.15-5.55-13.4l-3.05-0.3-0.85-5.15q-3.15-5.3-7.3-5.95-1.6-11.25 7.95-24.85m-16.15 25.8q0.95-15.85 9.8-24.9-5.55 14.2-4.9 24.15-0.95 0.25-1.95 0.7l-2.95 0.05m22.8 9.2q-1.25 1.1-3.4 1.25 2.15-0.15 3.4-1.25m-5.6 6.15q5.5 9.25 7.75 27.35-1.95 17.45-12.35 33.05-1.35-18.25-4.25-12.4-4.25 5.55-1.6 20.2-3.7 4.5-8.2 8.8-11-13.3-39 19.5-14.45 25.05-44 37.05 25.4-36.7-16.95-30.8-13.55 14.15-24.65 18.7 7.7-7.7 9.5-12.1 4.1-3.55 7.2-8.35 7.3-11.4 17.5-20.15 3.1-2.6 6.5-4.3-4.95 0.45-9.85 2.05-6.05 2.15-10.1 4.6l0.6-0.95q5.75-8.75 15.25-13l1.95-0.8 0.3-0.15q3.5-1.45 5.95-2.2l-1.25-0.65-2.5-0.25-0.05-0.05h-0.3l-2.05-0.3q-8.55-3.7-14.55-10.7l-3.2-3.9-3.25-8.5-1.3-4.65 0.5-1.05q11.55 19.15 34.65 22.45 27.5 3.65 52.8-3.15 3.95 9.85 16.95-2.35 16-15.5 17.75-33.5 3.1-18.2-4.45-27.1 2.3 0.75 5.1 2.9 1.95 1.95 3.6 4.7m6.85-7.95q0.7-1.65 0.6-4.25 0.1 2.6-0.6 4.25m-87.75 103.3q14.3-7.45 9.95-16.3-1.1-3.8-9.95 9.55-4.4 7.75 0 6.75m-8.55-27.65q-4.75 2.6-5.75 8.25l-0.15 1.05 2.55 1.9 4.4-1.9 2.5-5.65-0.65-2.5-2.9-1.15q0.8-0.45 1.65-0.75l-5 1.25 3.35-0.5" fill="#900" fill-rule="evenodd"/>
<path d="m18.6-53.35q1-0.5 2.35-0.65l2.95-0.05q1-0.45 1.95-0.7l3.3-0.2q4.15 0.65 7.3 5.95l0.85 5.15 0.85 5.2q-1.65-2.75-3.6-4.7-2.8-2.15-5.1-2.9-3.35-1.1-5.6 0.8-3.85-1.65-8.55-3.05 0.5-3.6 3.3-4.85m-86.5 59.05q-13.35-7.95-8.8-18.25 16.3-24.6 49.05-30.8 26.95-4.55 49.65 1.3-0.2 2.8 3.55 6.2 1.05 7-11 2.8-13.45-4.85-27.35-1.45 7.1-7.7-5.45-4.45-14.15 6.55-6.4 8.8-7.4 3.6-14.95 9.45-12.85 11.6-12.2 25.4 5.65 4.8 18.5 7.25-17.3 1.75-34.6-6.25m16.1-1q-12.25-10.5 9.7-32.35-21.95 21.85-9.7 32.35" fill="#530000" fill-rule="evenodd"/>
<path d="m42.1-71.4q0.65-5.1 2.55-12.2 2.65-9.8 7.5-11.3-20.1 4.05-36.45 28.9-0.05 10.55 2.9 12.65 1-0.5 2.35-0.65l2.95-0.05q1-0.45 1.95-0.7l3.3-0.2q-1.6-11.25 7.95-24.85m14.9 26.05q43.15-18.5 46.05 9.15 0.95 16.05 16.25 19.35l5.75 0.75m-77.95-46.9q-1.4 10.05 1.85 12.3 1.5 4.9 1.65 8.25l6.4-2.9m27.2 4.65q-17.95-4.25-34.2 2.5-0.45 1.1-1.25 1.8m24.9 18.95q4.7 1.9 11.85 2-6.05-2.95-0.65-12.6 13.8-10.6 16.95 17 3.9-6.9 17.5-5.8m-85.15-29.7q4.15 0.65 7.3 5.95l0.85 5.15 3.05 0.3q2.15-0.15 3.4-1.25m-6.45 0.95 0.85 5.2q5.5 9.25 7.75 27.35-1.95 17.45-12.35 33.05-1.35-18.25-4.25-12.4-4.25 5.55-1.6 20.2-3.7 4.5-8.2 8.8-11-13.3-39 19.5-14.45 25.05-44 37.05 25.4-36.7-16.95-30.8-13.55 14.15-24.65 18.7-8.1 3.3-14.95 1.45 11.2-1.6 16.25-9.15 3.05-4.65 3.85-11.6 10.5-15.15 11.25-21.65 0.55-4.9-4.35-4.9-2.65 0-6.9 1.4 3.9-2.65 6.25-5.6 1.2-1.55 2.05-3.15 1.35-2.7 1.6-5.65 0.35-4.05-1.4-8.55l-0.55-1.4q-0.8-6.85-0.55-12.55l0.05-1.2 0.15-1.55 0.05-0.45q0.75-7.45 3.45-12.9l0.9-1.65q29.5-34.45 77.85-37.1 14.85 1.8 25.4 4.9 0.5-3.6 3.3-4.85m10.85 7.1q2.3 0.75 5.1 2.9 1.95 1.95 3.6 4.7m2.2-4.9q7.7 4.25 5.55 13.4 16.75-16.75 15.7-1.25 2.35 3.65 7.05 5.55m-23.05-25q0.1 2.6-0.6 4.25m-112.9 52.3q-13.35-7.95-8.8-18.25 16.3-24.6 49.05-30.8 26.95-4.55 49.65 1.3 0.1-1.8 1.85-3.4-3.85-1.65-8.55-3.05m10.25 12.65q-3.75-3.4-3.55-6.2m1.85-3.4q2.25-1.9 5.6-0.8m-3.9 10.4q1.05 7-11 2.8-13.45-4.85-27.35-1.45 7.1-7.7-5.45-4.45-14.15 6.55-6.4 8.8-7.4 3.6-14.95 9.45-12.85 11.6-12.2 25.4 5.65 4.8 18.5 7.25m35.1-4.65q-1.85 7.2 5.75 2.75 11.2-5.3 9.1-10.6m-58.75-27.1q-21.95 21.85-9.7 32.35m0.5 24.35 2.9 1.15 0.65 2.5-2.5 5.65-4.4 1.9-2.55-1.9 0.15-1.05q1-5.65 5.75-8.25" fill="none" stroke="#000" stroke-linecap="round" stroke-linejoin="round" stroke-opacity=".4"/>
<path d="m-33.3 11.95q21.3-0.15 35.1-4.65m14.85-7.85q14.3-11.95 8.9-35.3m-58.85 47.8q-17.3 1.75-34.6-6.25m25.15 51q14.3-7.45 9.95-16.3-1.1-3.8-9.95 9.55-4.4 7.75 0 6.75" fill="none" stroke="#000" stroke-linecap="round" stroke-linejoin="round" stroke-opacity=".4"/>
</g>
</defs>
</svg>
