<?xml version="1.0" encoding="UTF-8"?>
<svg version="1.1" viewBox="0 0 78.55 73.2" xmlns="http://www.w3.org/2000/svg" xmlns:cc="http://creativecommons.org/ns#" xmlns:dc="http://purl.org/dc/elements/1.1/" xmlns:rdf="http://www.w3.org/1999/02/22-rdf-syntax-ns#" xmlns:xlink="http://www.w3.org/1999/xlink">
<metadata>
<rdf:RDF>
<cc:Work rdf:about="">
<dc:format>image/svg+xml</dc:format>
<dc:type rdf:resource="http://purl.org/dc/dcmitype/StillImage"/>
</cc:Work>
</rdf:RDF>
</metadata>
<g transform="translate(-235.68 -163.38)">
<use transform="translate(235.7,163.4)" width="78.5" height="73.150002" xlink:href="#a"/>
</g>
<defs>
<g id="a" transform="translate(-235.7,-163.4)">
<path d="m288.9 166.45v3.45-3.45m-52.1 67.4q8.75-5.2 17.05-11.6l6.35-5.1q9.8-8.15 19-17.95l-1.4-0.85q-0.9-0.9-0.9-2.25t0.9-2.3q0.95-0.9 2.3-0.9t2.25 0.9l0.75 1.1 1.6-1.8q-1.25-0.2-2.2-1.15-1.15-1.15-1.15-2.75t1.15-2.75 2.75-1.15l0.55 0.05q-0.55-0.9-0.55-2.05 0-1.7 1.2-2.95l0.05-0.05-1.05-0.95-0.7 0.95q-0.9 0.9-2.2 0.9t-2.2-0.9-0.9-2.2 0.9-2.2 2.2-0.9q1.15 0 2 0.7 0.35-0.8 1.3-1.6 1.5-2.9 3.05-4.2l-0.6-0.45q-0.85-0.85-0.85-2.05t0.85-2.05 2.05-0.85 2.05 0.85 0.85 2.05q0 1-0.55 1.75l0.5 0.25q0.9-0.5 2-0.5 1.7 0 2.9 1.2 1.25 1.25 1.25 2.95 0 1.2-0.6 2.1l1.8 0.3q0.65-0.35 1.45-0.35 1.35 0 2.3 0.95l0.3 0.35 1.9 0.7q1-0.75 2.35-0.75 1.75 0 3 1.25t1.25 3-1.25 3l-2.05 1.15q-1.2 1.9-3.65 4.15l0.15 1.15q0 1.7-1.25 2.9-1.2 1.25-2.9 1.25l-1.95-0.45q-11.85 16.3-29.4 27.15-14.95 9.25-34 14.55v-1.6m69.7-56.75-0.65 0.5-0.6 0.75q0-1.1-0.65-1.95 0.65 0.85 0.65 1.95l0.6-0.75 0.65-0.5m-17.6-7.2q0.65 0.4 1.45 0.4 1.2 0 2.05-0.85l0.3-0.3-0.3 0.3q-0.85 0.85-2.05 0.85-0.8 0-1.45-0.4m4.3-0.5-0.95 0.7q-1.2 1.25-1.2 2.95t1.2 2.9q1.25 1.25 2.95 1.25t2.9-1.25l0.65-0.8-0.65 0.8q-1.2 1.25-2.9 1.25t-2.95-1.25q-1.2-1.2-1.2-2.9t1.2-2.95l0.95-0.7m15.25 11.5v-2.25 2.25m-3.85-0.6v0.3l0.15 1.05q-0.3 0.15-0.55 0.4-0.75 0.75-0.75 1.8t0.75 1.8 1.8 0.75 1.8-0.75l0.6-0.8h0.45l0.95-0.1-0.95 0.1h-0.45l-0.6 0.8q-0.75 0.75-1.8 0.75t-1.8-0.75-0.75-1.8 0.75-1.8q0.25-0.25 0.55-0.4l-0.15-1.05v-0.3l-0.3 0.35q-0.95 0.95-2.3 0.95t-2.3-0.95-0.95-2.3 0.95-2.3l0.85-0.6-0.85 0.6q-0.95 0.95-0.95 2.3t0.95 2.3 2.3 0.95 2.3-0.95l0.3-0.35q0.1-1.1 0.65-1.95-0.55 0.85-0.65 1.95m-4.85 8.8 1.85-3.15-1.85 3.15m1.2-10v-1.45 1.45m3.8 2.55q0.25 1.1 1.1 1.95 1.05 1.05 2.55 1.25-1.5-0.2-2.55-1.25-0.85-0.85-1.1-1.95m1.4 7.25q-0.3-1-1.1-1.8-1.2-1.2-2.9-1.2l-0.55 0.05q-1.35 0.15-2.4 1.15-1.2 1.25-1.2 2.95t1.2 2.9l1 0.8-1-0.8q-1.2-1.2-1.2-2.9t1.2-2.95q1.05-1 2.4-1.15l0.55-0.05q1.7 0 2.9 1.2 0.8 0.8 1.1 1.8m-12.25-15.25v-2.05 2.05m-8.45 5.7 0.2-1.25q0-1.3-0.9-2.2l-0.2-0.2 0.2 0.2q0.9 0.9 0.9 2.2l-0.2 1.25m3.45 3.45h-1.95 1.95m0.6 4.65q1.65-0.05 2.8-1.25 1.25-1.2 1.25-2.9t-1.25-2.95q-1.2-1.2-2.9-1.2-1.65 0-2.9 1.15 1.25-1.15 2.9-1.15 1.7 0 2.9 1.2 1.25 1.25 1.25 2.95t-1.25 2.9q-1.15 1.2-2.8 1.25h-0.1l-0.7-0.05 0.3 0.65 0.5-0.6m-4.8 5.65h0.55q1.6 0 2.75-1.15l0.5-0.6q0.65-0.95 0.65-2.15l-0.15-1.15 0.15 1.15q0 1.2-0.65 2.15l-0.5 0.6q-1.15 1.15-2.75 1.15h-0.55m-4.35-17.2 2.2 2.35-2.2-2.35m8.35 11.5-0.7-0.95q-0.95-0.95-2.2-1.1 1.25 0.15 2.2 1.1l0.7 0.95m-3.5 1.55 3.3 2.4-3.3-2.4m-6 10.25 0.9 0.1q1.35 0 2.25-0.95 0.95-0.9 0.95-2.25l-0.2-1.2 0.2 1.2q0 1.35-0.95 2.25-0.9 0.95-2.25 0.95l-0.9-0.1m-6.35 10.35 2.65 5.75-2.65-5.75m-5.15 4.3 3.1 7.05-3.1-7.05m-7.5 3.3 2.65 6.25-2.65-6.25m-6.35 5.1 1.35 4.8-1.35-4.8m25.3-27.55 2.25 2.05-2.25-2.05" fill="#6c9" fill-rule="evenodd"/>
<path d="m236.8 233.85q8.75-5.2 17.05-11.6l6.35-5.1q9.8-8.15 19-17.95l-1.4-0.85q-0.9-0.9-0.9-2.25t0.9-2.3q0.95-0.9 2.3-0.9t2.25 0.9l0.75 1.1 1.6-1.8q-1.25-0.2-2.2-1.15-1.15-1.15-1.15-2.75t1.15-2.75 2.75-1.15l0.55 0.05q-0.55-0.9-0.55-2.05 0-1.7 1.2-2.95l0.05-0.05-1.05-0.95-0.7 0.95q-0.9 0.9-2.2 0.9t-2.2-0.9-0.9-2.2 0.9-2.2 2.2-0.9q1.15 0 2 0.7 0.35-0.8 1.3-1.6 1.5-2.9 3.05-4.2l-0.6-0.45q-0.85-0.85-0.85-2.05t0.85-2.05 2.05-0.85 2.05 0.85 0.85 2.05q0 1-0.55 1.75l0.5 0.25q0.9-0.5 2-0.5 1.7 0 2.9 1.2 1.25 1.25 1.25 2.95 0 1.2-0.6 2.1l1.8 0.3q0.65-0.35 1.45-0.35 1.35 0 2.3 0.95l0.3 0.35 1.9 0.7q1-0.75 2.35-0.75 1.75 0 3 1.25t1.25 3-1.25 3l-2.05 1.15q-1.2 1.9-3.65 4.15l0.15 1.15q0 1.7-1.25 2.9-1.2 1.25-2.9 1.25l-1.95-0.45q-11.85 16.3-29.4 27.15-14.95 9.25-34 14.55m61.95-60.3-0.65 0.8q-1.2 1.25-2.9 1.25t-2.95-1.25q-1.2-1.2-1.2-2.9t1.2-2.95l0.95-0.7m-0.5-0.25-0.3 0.3q-0.85 0.85-2.05 0.85-0.8 0-1.45-0.4m15.7 6.5q0.65 0.85 0.65 1.95l0.6-0.75 0.65-0.5m-5.95-1.65-0.85 0.6q-0.95 0.95-0.95 2.3t0.95 2.3 2.3 0.95 2.3-0.95l0.3-0.35q0.1-1.1 0.65-1.95m4.55 6.4-0.95 0.1h-0.45l-0.6 0.8q-0.75 0.75-1.8 0.75t-1.8-0.75-0.75-1.8 0.75-1.8q0.25-0.25 0.55-0.4l-0.15-1.05v-0.3m-4.4 13.45-1-0.8q-1.2-1.2-1.2-2.9t1.2-2.95q1.05-1 2.4-1.15l0.55-0.05q1.7 0 2.9 1.2 0.8 0.8 1.1 1.8m2.25-4.05q-1.5-0.2-2.55-1.25-0.85-0.85-1.1-1.95m-20.2-5.95 0.2 0.2q0.9 0.9 0.9 2.2l-0.2 1.25m1.05 0.95q1.25-1.15 2.9-1.15 1.7 0 2.9 1.2 1.25 1.25 1.25 2.95t-1.25 2.9q-1.15 1.2-2.8 1.25l-0.5 0.6 0.15 1.15q0 1.2-0.65 2.15l-0.5 0.6q-1.15 1.15-2.75 1.15h-0.55m4-5.7 0.7 0.05h0.1m-0.8-0.05 0.3 0.65m-3.2-2.7q1.25 0.15 2.2 1.1l0.7 0.95m-5.6 7.5 0.2 1.2q0 1.35-0.95 2.25-0.9 0.95-2.25 0.95l-0.9-0.1" fill="none" stroke="#236946" stroke-linecap="round" stroke-linejoin="round" stroke-width="2.25"/>
<path d="m288.9 169.9v-3.45m19.55 12.2v2.25m-7.5-3.25v1.45m0.65 6.85-1.85 3.15m-5.85-17.5v2.05m-6.95 9.15h1.95m-6.35-4.55-2.2-2.35m8.15 15.45-3.3-2.4m-3.8 7.8-2.25-2.05m-23.95 32.35-1.35-4.8m9 1.15-2.65-6.25m10.6 3.75-3.1-7.05m7.8 1.45-2.65-5.75" fill="none" stroke="#cf0" stroke-linecap="round" stroke-linejoin="round" stroke-width="2.25"/>
</g>
</defs>
</svg>
