<?xml version="1.0" encoding="UTF-8"?>
<svg version="1.1" viewBox="0 0 71.3 50.65" xmlns="http://www.w3.org/2000/svg" xmlns:cc="http://creativecommons.org/ns#" xmlns:dc="http://purl.org/dc/elements/1.1/" xmlns:rdf="http://www.w3.org/1999/02/22-rdf-syntax-ns#" xmlns:xlink="http://www.w3.org/1999/xlink">
<metadata>
<rdf:RDF>
<cc:Work rdf:about="">
<dc:format>image/svg+xml</dc:format>
<dc:type rdf:resource="http://purl.org/dc/dcmitype/StillImage"/>
</cc:Work>
</rdf:RDF>
</metadata>
<g transform="translate(-7.55 -9.35)">
<use transform="translate(7.55,9.35)" width="71.300003" height="50.650002" xlink:href="#a"/>
</g>
<defs>
<g id="a" transform="translate(.5 .5)">
<use transform="translate(-.5 -.5)" width="71.300003" height="50.650002" xlink:href="#b"/>
</g>
<g id="b" transform="translate(.5 .5)">
<path d="m51.7 29.45 0.05-0.15 0.45 0.4-0.5-0.25m0.7-6.85-1.5 1.05-0.7-1 1.9-0.05h0.3m-48.85 7.05 0.2-0.1 0.6-0.2 0.1 0.3 0.3 0.1-1-0.2-0.05 0.05-0.15 0.05m7.85-1.1h0.05l0.95 0.05v0.2l-0.95-0.15-0.05-0.1m5.5 6.7 0.55-0.6 0.5 0.35-1.05 0.25m17.45-8.9-0.1-0.05h0.1v0.05m-13.4 7.2v-0.05l0.05-0.1-0.05 0.15" fill="#f00" fill-rule="evenodd"/>
<path d="m48 36.25v0.1l-1.4-0.65 0.85 0.3 0.55 0.25m19.35-8.8 0.45 0.55-0.25 0.05-0.2-0.6m-28 17.2 0.05-0.1 0.5-0.05-0.55 0.15" fill="#f55" fill-rule="evenodd"/>
<path d="m53.4 30.8 0.05-0.1 0.05 0.05-0.1 0.05m-3.7-2.05-0.35 1.45h-0.05l0.1-1.15 0.2-0.3h0.1m-46.85 1.15 0.25-0.2h0.1l0.35-0.05-0.45 0.15-0.25 0.1" fill="#9c0101" fill-rule="evenodd"/>
<path d="m62.8 25.75 0.1-0.2 0.15-0.1 0.2-0.05q1.85 0.1 3.35 1.15l0.2 0.15 0.3 0.45 0.15 0.2 0.1 0.1 0.2 0.6q0.3 0.6-0.05 1.1l-0.35 0.1-0.3-0.05-0.15-0.15q-0.9-2.55-3.9-3.05l-0.1-0.15 0.1-0.1m-13.35 15.55 0.95-0.8 0.25-0.2q0.75-0.1 0.85 0.6v0.15l-0.25 0.2-0.3 0.15-0.05 0.15-0.1 0.15-0.05 0.1q-5.5 2.85-11.35 3l-0.05-0.15 0.55-0.15q4.55-1.65 9.4-3.1l0.15-0.1" fill="#fff" fill-rule="evenodd"/>
<path d="m40.85 24.3 0.15-0.4 0.45 0.5 2.55 2.55 0.65 0.4 4.65 2.85h0.05l0.35-1.45 0.5-2.1-2.85-3.8-2.75-3.65-3.45-1.9h-2.75l-0.3-2.7 2.45-1.3 5.55 3.15 4.1 6.2 0.7 1 1.5-1.05h0.05v-4.3l-6.7-10.25-6.1-3-4.75 1.8v-4.25l3.9-2.6 7.75 4.5 8.75 12.7 0.85 5.05-0.45 0.5-2.2 2.65 1 3.9-1.05 1.4-0.05 0.1-1.2-1.1-0.45-0.4-0.05 0.15-0.65 2.8-0.15 0.55 1.1 2.8-1.25 2.3-0.4 0.7-0.6 1.1-3.2 0.15-3.2-0.6 0.7-2.2 3.9 0.45 0.05-1.15v-0.1l0.2-3.45-2.2-1.95-1.15-1.05-2.15-1.3-2.05-1.85-0.45-0.4 0.65-1.95m-36.5 5.05-1.9-4.7 7-15 11-7 9 1 3 4h-10l-9 5-5 12 2.95 3.9 0.05 0.1 0.95 0.15 2.65 0.3 2.85-6.45 0.85-2.05 7.9-4.9 5.45 0.3 1.35 2.65-5 1-1.85 1.1-3.15 1.9-1.7 3.15-0.8 1.35-2.5 4.5 2.5 1.85v0.05l0.6 0.45 0.9 0.65 7.55-4.95 2.9-3.35 0.45-0.6 0.9 0.55 0.1 0.05 2.1 1.3-3 3-3 2-4 4 3.8 4.3 5.85-1.55 0.15 2.7-1.8 0.55-6 1-7-3v-3l-0.3-0.25-3.2-2.4-0.5-0.35-0.55 0.6-1.45 1.4-3-1-1-4-6.7-1.9-0.3-0.1-0.1-0.3" fill="#feead3" fill-rule="evenodd"/>
<path d="m8.65 41.65-0.1 0.15q3.4 2.9 8.2 2.95 0.4 0 0.45 0.5l-0.25 0.8-0.4 0.4q-7.1 1.3-10.35-4.2-0.25-0.45-0.1-1 0.65-2 2.15-3.45l0.65-0.15q2.45 1.6-0.25 4" fill="#620e7b" fill-rule="evenodd"/>
<path d="m41.45 24.4-0.45-0.5-0.15 0.4-6.95-0.45q-5.4 0-9.2 0.85-2.05 0.5-2.95 1.1l1.7-3.15 3.15-1.9 5.55-0.25q8.25 0 14.1 2.05l0.9 0.35 0.2-0.05 2.85 3.8-0.5 2.1h-0.1l-0.2 0.3-0.1 1.15-4.65-2.85 1.55 0.5q0.7-0.45 0.7-1 0-1.25-3.8-2.15l-1.65-0.3m-0.8 2.25 2.05 1.85 2.15 1.3 1.15 1.05-2.15 0.55-0.65 0.15 3.15 2.2 0.15 1.1-0.05 0.8 0.15 0.05 1.4 0.65-0.05 1.15-3.9-0.45-0.7 2.2 3.2 0.6 3.2-0.15 0.6-1.1 0.1 0.7q0 1.1-1 2l-0.15 0.1q-4.85 1.45-9.4 3.1l-0.5 0.05-4.05 0.15q-6.25 0-10.7-1.6-3.8-1.35-4.3-3.2l-0.1-0.6q0-1 0.9-1.9l0.3 0.25v3l7 3 6-1 1.8-0.55-0.15-2.7-5.85 1.55-3.8-4.3 4-4 3-2 3-3-2.1-1.3v-0.05l6.3 0.35m10.1 11.25 1.25-2.3-1.1-2.8 0.15-0.55 2.05 0.15 0.4-0.4 0.3-0.8-0.15-0.25-0.15-0.2-0.05-0.05 1.05-1.4-1-3.9 2.2-2.65q5.25 0.45 9.25 2.2 5.35 2.4 5.35 5.8t-5.35 5.75q-4.7 2.1-11.1 2.4 1.4 1.25 1.4 2.7 0 3.35-7.45 5.7-7.4 2.35-17.9 2.35t-17.95-2.35q-7.4-2.35-7.4-5.7 0-2.6 4.45-4.6-3.35-0.2-5.9-1.2-3.1-1.25-3.1-3 0-1.7 2.85-2.9l-0.35 0.55q-0.15 0.45 0.2 0.6 4.1 1.95 8.55 3.15l0.05 0.95 0.05 0.8v0.15l0.8 0.75q2.65 2.75 6 0.5l0.4 0.4 1.05 0.5 0.1 0.05q-0.6 2.1 0.8 3.45 0.8 1.9 4.4 3.35 4.7 1.9 11.3 1.9t11.25-1.9q4.7-1.9 4.7-4.55 0-1.45-1.4-2.65m12.05-12.15-1-0.05q-2.55 0-4.4 0.9-1.8 0.95-1.8 2.3l0.05 0.4 0.2-0.1q1.75-0.65 4.2-0.65t4.15 0.65q1.75 0.7 1.75 1.65l-0.1 0.45 0.3-0.15q1.85-0.9 1.85-2.25l-0.2-0.9-0.45-0.55-0.1-0.1-0.15-0.2-0.3-0.45-0.2-0.15q-1.5-1.05-3.35-1.15l-0.2 0.05-0.15 0.1-0.1 0.2m-50.4 2.85-0.2-1.05q0-2.85 5.7-4.9l-2.85 6.45-2.65-0.3v-0.2m20.5-2.25-2.9 3.35-7.55 4.95-0.9-0.65 1.5-0.15-2.05-0.45-0.05 0.1-2.5-1.85 2.5-4.5 1.05 0.95q1-0.5 2.85-0.95l8.05-0.8m-24.25 15.3q2.7-2.4 0.25-4l-0.65 0.15q-1.5 1.45-2.15 3.45-0.15 0.55 0.1 1 3.25 5.5 10.35 4.2l0.4-0.4 0.25-0.8q-0.05-0.5-0.45-0.5-4.8-0.05-8.2-2.95l0.1-0.15" fill="#9a1ac0" fill-rule="evenodd"/>
<path d="m40.85 24.3-0.65 1.95 0.45 0.4-6.3-0.35h-0.1l-0.9-0.55-0.45 0.6-8.05 0.8q-1.85 0.45-2.85 0.95l-1.05-0.95 0.8-1.35q0.9-0.6 2.95-1.1 3.8-0.85 9.2-0.85l6.95 0.45m9.5 14.3 0.4-0.7q1.4 1.2 1.4 2.65 0 2.65-4.7 4.55-4.65 1.9-11.25 1.9t-11.3-1.9q-3.6-1.45-4.4-3.35-0.25-0.6-0.25-1.2l0.1-0.65q0.5 1.85 4.3 3.2 4.45 1.6 10.7 1.6l4.05-0.15-0.05 0.1 0.05 0.15q5.85-0.15 11.35-3l0.05-0.1 0.1-0.15 0.05-0.15 0.3-0.15 0.25-0.2v-0.15q-0.1-0.7-0.85-0.6l-0.25 0.2-0.95 0.8q1-0.9 1-2l-0.1-0.7m-5.7-11.25-0.65-0.4-2.55-2.55 1.65 0.3q3.8 0.9 3.8 2.15 0 0.55-0.7 1l-1.55-0.5m23.15 0.65 0.2 0.9q0 1.35-1.85 2.25l-0.3 0.15 0.1-0.45q0-0.95-1.75-1.65-1.7-0.65-4.15-0.65t-4.2 0.65l-0.2 0.1-0.05-0.4q0-1.35 1.8-2.3 1.85-0.9 4.4-0.9l1 0.05-0.1 0.1 0.1 0.15q3 0.5 3.9 3.05l0.15 0.15 0.3 0.05 0.35-0.1q0.35-0.5 0.05-1.1l0.25-0.05" fill="#d582ee" fill-rule="evenodd"/>
<path d="m46 30.85 2.2 1.95-0.2 3.45-0.55-0.25-0.85-0.3-0.15-0.05 0.05-0.8-0.15-1.1-3.15-2.2 0.65-0.15 2.15-0.55m5.05 1.4 0.65-2.8 0.5 0.25 1.2 1.1 0.1-0.05 0.15 0.2 0.15 0.25-0.3 0.8-0.4 0.4-2.05-0.15m-30.7 7.65-0.1 0.65q0 0.6 0.25 1.2-1.4-1.35-0.8-3.45l-0.1-0.05-1.05-0.5-0.4-0.4q-3.35 2.25-6-0.5l-0.8-0.75v-0.15l-0.05-0.8-0.05-0.95q-4.45-1.2-8.55-3.15-0.35-0.15-0.2-0.6l0.35-0.55 0.25-0.1 0.6-0.2 0.05-0.05 1 0.2 6.7 1.9 1 4 3 1 1.45-1.4 1.05-0.25 3.2 2.4q-0.9 0.9-0.9 1.9l0.1 0.6" fill="#4e0364" fill-rule="evenodd"/>
<path d="m50.2 22.65 1.9-0.05h0.3" fill="none" stroke="#9c0101" stroke-linecap="round" stroke-linejoin="round"/>
<path d="m26.6 20.75 5.55-0.25q8.25 0 14.1 2.05l0.9 0.35 0.2-0.05m8.35-0.1q5.25 0.45 9.25 2.2 5.35 2.4 5.35 5.8t-5.35 5.75q-4.7 2.1-11.1 2.4 1.4 1.25 1.4 2.7 0 3.35-7.45 5.7-7.4 2.35-17.9 2.35t-17.95-2.35q-7.4-2.35-7.4-5.7 0-2.6 4.45-4.6-3.35-0.2-5.9-1.2-3.1-1.25-3.1-3 0-1.7 2.85-2.9l0.25-0.1 0.45-0.15 0.2-0.1 0.6-0.2m7.05-0.8h0.05l0.95 0.05-0.2-1.05q0-2.85 5.7-4.9" fill="none" stroke="#4e0364" stroke-linecap="round" stroke-linejoin="round"/>
<path d="m41.45 24.4-0.45-0.5-0.15 0.4-0.65 1.95 0.45 0.4 2.05 1.85 2.15 1.3 1.15 1.05 2.2 1.95-0.2 3.45v0.1l-0.05 1.15-3.9-0.45-0.7 2.2 3.2 0.6 3.2-0.15 0.6-1.1 0.4-0.7 1.25-2.3-1.1-2.8 0.15-0.55 0.65-2.8 0.05-0.15 0.45 0.4 1.2 1.1 0.05-0.1 1.05-1.4-1-3.9 2.2-2.65 0.45-0.5-0.85-5.05-8.75-12.7-7.75-4.5-3.9 2.6v4.25l4.75-1.8 6.1 3 6.7 10.25v4.3h-0.05l-1.5 1.05-0.7-1-4.1-6.2-5.55-3.15-2.45 1.3 0.3 2.7h2.75l3.45 1.9 2.75 3.65 2.85 3.8-0.5 2.1-0.35 1.45h-0.05l-4.65-2.85-0.65-0.4-2.55-2.55m-37.1 4.95-1.9-4.7 7-15 11-7 9 1 3 4h-10l-9 5-5 12 2.95 3.9 0.05 0.1 0.95 0.15 2.65 0.3 2.85-6.45 0.85-2.05 7.9-4.9 5.45 0.3 1.35 2.65-5 1-1.85 1.1-3.15 1.9-1.7 3.15m-17 3.95-0.3-0.1-0.1-0.3m12.55 5.9-1.45 1.4-3-1-1-4-6.7-1.9m13.2 5.25-0.5-0.35-0.55 0.6m1.05-0.25 3.2 2.4 0.3 0.25v3l7 3 6-1 1.8-0.55-0.15-2.7-5.85 1.55-3.8-4.3 4-4 3-2 3-3-2.1-1.3-0.1-0.05-0.9-0.55-0.45 0.6-2.9 3.35-7.55 4.95-0.9-0.65-0.6-0.45v-0.05l-2.5-1.85 2.5-4.5 0.8-1.35" fill="none" stroke="#9e8a70" stroke-linecap="round" stroke-linejoin="round"/>
</g>
</defs>
</svg>
