<?xml version="1.0" encoding="UTF-8"?>
<svg version="1.1" viewBox="0 0 104.35 73.713" xmlns="http://www.w3.org/2000/svg" xmlns:cc="http://creativecommons.org/ns#" xmlns:dc="http://purl.org/dc/elements/1.1/" xmlns:rdf="http://www.w3.org/1999/02/22-rdf-syntax-ns#" xmlns:xlink="http://www.w3.org/1999/xlink">
<metadata>
<rdf:RDF>
<cc:Work rdf:about="">
<dc:format>image/svg+xml</dc:format>
<dc:type rdf:resource="http://purl.org/dc/dcmitype/StillImage"/>
</cc:Work>
</rdf:RDF>
</metadata>
<g transform="translate(-23.325 -29.125)">
<use transform="translate(23.35,29.15)" width="104.3" height="73.650002" xlink:href="#c"/>
<use transform="matrix(.3849 -.0476 .059 .4767 33.807 74.049)" width="18.049999" height="14.2" xlink:href="#a"/>
<use transform="matrix(.4641 .1244 -.1021 .3811 49.228 80.523)" width="18.049999" height="14.2" xlink:href="#a"/>
<use transform="matrix(.4805 0 0 .4805 46.137 63.801)" width="18.049999" height="14.2" xlink:href="#a"/>
<use transform="matrix(.4088 0 0 .4805 87.304 52.801)" width="18.049999" height="14.2" xlink:href="#a"/>
<use transform="matrix(.4952 -.0435 .138 .4734 99.021 58.853)" width="18.049999" height="14.2" xlink:href="#a"/>
<use transform="matrix(.4641 .1244 -.1244 .4641 89.022 73.23)" width="18.049999" height="14.2" xlink:href="#a"/>
<use transform="matrix(.2918 -.2436 .2773 .3922 111.82 77.633)" width="18.049999" height="14.2" xlink:href="#a"/>
<use transform="matrix(.3549 .0502 -.0672 .4756 40.926 45.828)" width="18.049999" height="14.2" xlink:href="#a"/>
<use transform="matrix(.4432 .0428 -.0461 .4781 56.91 45.841)" width="18.049999" height="14.2" xlink:href="#a"/>
<use transform="matrix(.3482 -.043 .0589 .4767 61.233 76.601)" width="18.049999" height="14.2" xlink:href="#a"/>
<use transform="matrix(.3703 -.0992 .1297 .4842 88.543 93.509)" width="18.049999" height="14.2" xlink:href="#a"/>
</g>
<defs>
<g id="c" transform="translate(.3 .35)">
<path d="m79.7 8.75 1.35 1.55-0.5 4.35 2.4 1.9 4.35 17.3-4.8 3.35 6.25-0.95 12.95 13.45-1 2.6-0.05 0.05q-7.6 8.85-21.65 19.1-10.4 2.3-16.45 1.1l-7.55-23.1 0.55-4.55 7.25 7.2-6.25-12-0.5-10.6 1.45 1.45-0.5-5.75-5.25-10.6 2.3 6.15 1.3 3.75-1 3.8 1.15 12.7-6.4-0.7-4.1 2.7 2.9 1.9-5.8 5.75 3.8-1.8-4.7 12.35-2.3-0.5 3.25 8.25q-7.75-4.4-14.6-6.35t-9.8-4.05q-12.25 0-17.7 2.7l4.3-7.3 7-22.35 2.15-1.95 3.35-18.35 2.4-2.9-1.35-6.9 1.1-1.4 1.85-0.1 0.65 0.4 0.4-0.15 1.45-0.1 0.75 0.5 0.6-0.3 28.9 3.25 23.1 4.55 1.15-0.2 1.2 0.35 0.65 0.45m-20.05 5.65-0.45-1.45 0.95-1.95-1.45 1.45 0.95 1.95m-16.55-4.8-2.4 0.45-0.95-1.9q-0.1-0.2-0.3 0.6l-0.2 0.85-3.35-1 3.85 3.4v-1l3.35-1.4m12.05 2.65-4.15-0.75-0.45-1.9-0.5 1.9-5.75-0.95 2.4 1.45 4.3 0.45 1.45 1.95v-1.95l2.7-0.2m24.7 1.2-1.45 2.4 2.9 0.45-1.45-0.95v-1.9m-5.3 1.4-0.5-0.95-0.8 1.25-0.05-0.8-0.8 0.5h-1.7l2.8 0.55 2.5-0.55h-1.45m-11.05-1.4 1.45 1.9-0.5-1.45 4.35-0.45h-5.3m-40.85-6.35-1 1.45-1.4-1.95v2.4l-1 0.5h1.95v0.95l2.9-1.45-1.45-1.9m23.3 25.8 1.45 3.85-1.45-11v7.15m-16.35-22.45 3.85-0.5-6.25-0.95 2.4 1.45m-17.25 21.15 10.6-5-8.25 1.85v1.05l-2.35 2.1m9.1 22.15-12 2.2 10.1-0.95 20.65 11.05-18.75-12.3" fill="#f99" fill-rule="evenodd"/>
<path d="m79.7 8.75 1.6 0.15 0.85 0.95-0.85 5 2.85 1.45 5 17.6 14.5 15.8-2.95 2.6 1-2.6-12.95-13.45-6.25 0.95 4.8-3.35-4.35-17.3-2.4-1.9 0.5-4.35-1.35-1.55m-24.7 40.7-1.6-4.8-3.35 0.95-0.35 1.45-7.55 16.5v5.4q-11.5-2.65-18.75-1.9-10.1-0.55-23.35-5.8 5.45-2.7 17.7-2.7 2.95 2.1 9.8 4.05t14.6 6.35l-3.25-8.25 2.3 0.5 4.7-12.35-3.8 1.8 5.8-5.75-2.9-1.9 4.1-2.7 6.4 0.7-1.15-12.7 1-3.8-1.3-3.75-2.3-6.15 5.25 10.6 0.5 5.75-1.45-1.45 0.5 10.6 6.25 12-7.25-7.2-0.55 4.55m8.5-36h5.3l-4.35 0.45 0.5 1.45-1.45-1.9m11.05 1.4h1.45l-2.5 0.55-2.8-0.55h1.7l0.8-0.5 0.05 0.8 0.8-1.25 0.5 0.95m5.3-1.4v1.9l1.45 0.95-2.9-0.45 1.45-2.4m-24.7-1.2-2.7 0.2v1.95l-1.45-1.95-4.3-0.45-2.4-1.45 5.75 0.95 0.5-1.9 0.45 1.9 4.15 0.75m-12.05-2.65-3.35 1.4v1l-3.85-3.4 3.35 1 0.2-0.85q0.2-0.8 0.3-0.6l0.95 1.9 2.4-0.45m16.55 4.8-0.95-1.95 1.45-1.45-0.95 1.95 0.45 1.45m-13.7 18.5v-7.15l1.45 11-1.45-3.85m-23.3-25.8 1.45 1.9-2.9 1.45v-0.95h-1.95l1-0.5v-2.4l1.4 1.95 1-1.45m-1.2 46.65 18.75 12.3-20.65-11.05-10.1 0.95 12-2.2m-9.1-22.15 2.35-2.1v-1.05l8.25-1.85-10.6 5m17.25-21.15-2.4-1.45 6.25 0.95-3.85 0.5" fill="#fe6d6d" fill-rule="evenodd"/>
<path d="m100.7 52.3 2.95-2.6-14.5-15.8-5-17.6-2.85-1.45 0.85-5-0.85-0.95-1.6-0.15m20.95 43.6q-7.6 8.85-21.65 19.1-10.4 2.3-16.45 1.1l-7.55-23.1-1.6-4.8-3.35 0.95-0.35 1.45-7.55 16.5v5.4q-11.5-2.65-18.75-1.9-10.1-0.55-23.35-5.8l4.3-7.3 7-22.35 2.15-1.95 3.35-18.35 2.4-2.9-1.35-6.9 1.1-1.4 1.85-0.1 0.65 0.4 0.4-0.15 1.45-0.1 0.75 0.5 0.6-0.3 28.9 3.25 23.1 4.55 1.15-0.2 1.2 0.35 0.65 0.45" fill="none" stroke="#930b0b" stroke-linecap="round" stroke-linejoin="round" stroke-width=".75"/>
<path d="m49.1 40.3 6.4 0.7-1.15-12.7 1-3.8-1.3-3.75-2.3-6.15m-51.7 46.65q5.45-2.7 17.7-2.7 2.95 2.1 9.8 4.05t14.6 6.35" fill="none" stroke="#930b0b" stroke-linecap="round" stroke-linejoin="round" stroke-width=".75"/>
</g>
<g id="a" transform="translate(21.15,-2.5)">
<use transform="translate(-21.15,2.5)" width="18.049999" height="14.2" xlink:href="#b"/>
</g>
<g id="b" transform="translate(21.15,-2.5)">
<path d="m-16.65 4.75q2.3 1.55 4.25 2.25l0.4 1.25 1.25 0.3 0.85-0.8 1.15 0.35-0.6 0.75-1.85 1.55-0.85 0.45q-1.8-0.95-2.85-2.05 1.05 1.1 2.85 2.05l0.85-0.45 1.85-1.55 1.4-0.6 1.4-2.3 2.2 1-0.3 0.85 1.3 0.3-0.45 3-3.05-0.5-2.05 0.8 0.3 0.15 3.45-0.5 0.85 3.5-1.65-0.2 0.25 1.75-2.15 0.15-1.4-2.65-2.7-1-2.95 1.15-1.35 2.7-2.15-0.2 0.25-1.7-1.7 0.2 0.85-3.45 3.45 0.4 0.5-0.25-2.3-0.85-3 0.55-0.55-3 1.3-0.3-0.3-0.9 2.2-1 1.45 2.25 1.35 0.6q-1.25-1.25-1.6-2.6-0.35-1.45 0.05-2.25l-0.2 0.8m8.45 2.25q-4.75-0.65-8.25-3.05 0.35-0.75 1.3-1.05 1.95-0.65 2.9 1.3 0.7-1.8 2.8-1.3 2.05 0.45 1.4 3.65l-0.15 0.45m-3 3.4 2.3 1-2.3-1m-0.75 2.2-3.1-1.15 3.1 1.15" fill="#f00" fill-rule="evenodd"/>
<path d="m-8.75 8.1-1.15-0.35-0.85 0.8-1.25-0.3-0.4-1.25q-1.95-0.7-4.25-2.25l0.2-0.8q3.5 2.4 8.25 3.05l-0.55 1.1" fill="#260404" fill-rule="evenodd"/>
<path d="m-16.65 4.75 0.2-0.8q-0.4 0.8-0.05 2.25 0.35 1.35 1.6 2.6 1.05 1.1 2.85 2.05l0.85-0.45 1.85-1.55 0.6-0.75 0.55-1.1m-8.25-3.05q0.35-0.75 1.3-1.05 1.95-0.65 2.9 1.3 0.7-1.8 2.8-1.3 2.05 0.45 1.4 3.65l-0.15 0.45m-1.15 1.85 1.4-0.6 1.4-2.3 2.2 1-0.3 0.85 1.3 0.3-0.45 3-3.05-0.5-2.05 0.8 0.3 0.15 3.45-0.5 0.85 3.5-1.65-0.2 0.25 1.75-2.15 0.15-1.4-2.65-2.7-1-2.95 1.15-1.35 2.7-2.15-0.2 0.25-1.7-1.7 0.2 0.85-3.45 3.45 0.4 0.5-0.25-2.3-0.85-3 0.55-0.55-3 1.3-0.3-0.3-0.9 2.2-1 1.45 2.25 1.35 0.6m-0.15 2.65 3.1 1.15m3.05-1.2-2.3-1" fill="none" stroke="#d80101" stroke-linecap="round" stroke-linejoin="round" stroke-width=".5"/>
</g>
</defs>
</svg>
