<?xml version="1.0" encoding="UTF-8"?>
<svg width="241px" height="88px" version="1.1" viewBox="139.25 165.87 240.75 87.58" xmlns="http://www.w3.org/2000/svg" xmlns:xlink="http://www.w3.org/1999/xlink">
<defs>
<g id="d">
<path d="m184.35 211.2-0.15-0.1q-3.75-2.05-4.45-2-0.35 0.05-0.5 0.25-1.25 1.55-3.1 0.9 2-0.4 3.15-2.15l-0.75-0.6-0.95 0.1q-1.95 0.7-4.25-0.7 2.3 1.05 3.7-0.25-1.75-1.85-3.5-1.5l0.6-0.4-0.3-0.1-4.95-3.7q2.35 1.35 4.65 2.5l0.1-0.3v-0.65l0.85 1.75 1.2 0.75-1.35-3.85q1.4 1.85 2.3 4.1l0.45 0.5 2.3 1.4 0.05-0.05-0.85-2.55-0.75-1.45q-1.05-1.75-1.55-3.55l0.2 0.35 0.45 0.8 0.55 0.75 0.95 1.55q1.25 2.3 1.5 4.5l1.1 0.55 2.75 1.45 0.4 1.55 0.15 0.15" fill="#638549"/>
<path d="m181.05 208.05-1.1-0.55q-0.25-2.2-1.5-4.5l-0.95-1.55-0.55-0.75-0.45-0.8-0.2-0.35q0.5 1.8 1.55 3.55l0.75 1.45 0.85 2.55-0.05 0.05-2.3-1.4-0.45-0.5q-0.9-2.25-2.3-4.1l1.35 3.85-1.2-0.75-0.85-1.75v0.65l-0.1 0.3q-2.3-1.15-4.65-2.5l4.95 3.7 0.3 0.1-0.6 0.4q1.75-0.35 3.5 1.5-1.4 1.3-3.7 0.25 2.3 1.4 4.25 0.7l0.95-0.1 0.75 0.6q-1.15 1.75-3.15 2.15 1.85 0.65 3.1-0.9 0.15-0.2 0.5-0.25 0.7-0.05 4.45 2l0.15 0.1-2.95 1.4h-4.4l-1.8-1.25-3.45-3.2-2.85-3.9-1.05-3.6 0.65-2.35 3.25-1.05 4.2 2.1 0.3 0.2h0.05l2.15 1.5 3.3 4.25 2.05 4.2-2.75-1.45" fill="#1e4811"/>
<path d="m183.8 209.5-2.05-4.2-3.3-4.25-2.15-1.5m-0.05 0-0.3-0.2-4.2-2.1-3.25 1.05-0.65 2.35 1.05 3.6 2.85 3.9 3.45 3.2 1.8 1.25h4.4l2.95-1.4" fill="none" stroke="#000" stroke-opacity=".4" stroke-width=".5"/>
<path d="m199.35 208.6-0.6 0.45-0.4 0.25q-0.45 0.25-0.8 0.6-1.1 0.85-1.55 1.9l-0.8 0.05h0.05l-2.05 0.1-0.4 0.7-0.15 0.05h0.1l3.15-0.05 0.35 0.3q0.6 1.05 1.85 1.15-1.2-0.7-1.8-1.85l0.65-0.1q0.3 0.05 0.55 0.25 1.2 0.8 2.9 0.6-1.6 0.05-2.4-0.95l2.5 0.1-0.35-0.35 0.2-0.05 3.65-0.75-3.35 0.25v-0.2l0.05-0.3-0.75 0.7-0.85 0.05 1.35-1.6-2.05 1.5-0.3 0.15-1.7 0.2 0.8-1.05v-0.05q0.3-0.35 0.7-0.55l1.45-1.5" fill="#638549"/>
<path d="m199.35 208.6-1.55 0.3-2.75 1.4-1.85 1.65 2.05-0.1h-0.05l0.8-0.05q0.45-1.05 1.55-1.9 0.35-0.35 0.8-0.6l0.4-0.25 0.6-0.45-1.45 1.5q-0.4 0.2-0.7 0.55v0.05l-0.8 1.05 1.7-0.2 0.3-0.15 2.05-1.5-1.35 1.6 0.85-0.05 0.75-0.7-0.05 0.3v0.2l3.35-0.25-3.65 0.75-0.2 0.05 0.35 0.35-2.5-0.1q0.8 1 2.4 0.95-1.7 0.2-2.9-0.6-0.25-0.2-0.55-0.25l-0.65 0.1q0.6 1.15 1.8 1.85-1.25-0.1-1.85-1.15l-0.35-0.3-3.15 0.05h-0.1l1.8 1.4 2.85 1 1.35-0.25 2.65-0.85 2.35-1.35 1.05-1.55-0.1-1.35-1.95-1.25-3.05 0.1h-0.2-0.05" fill="#1e4811"/>
<path d="m193.2 211.95 1.85-1.65 2.75-1.4 1.55-0.3m-4.15 3.25h0.05m-2.6 0.85 1.8 1.4 2.85 1 1.35-0.25 2.65-0.85 2.35-1.35 1.05-1.55-0.1-1.35-1.95-1.25-3.05 0.1h-0.2" fill="none" stroke="#000" stroke-opacity=".4" stroke-width=".5"/>
<path d="m184.05 212.35 0.15-0.55-1.4-2.45 3.55-5.05 1.45-1.95q-2.6-3.2-3.2-7.6l-0.25-3.15q-0.05-0.75 0.05-1.55-0.4-0.8-0.25-1.5l0.05-0.8-0.05-0.05q1.45 3 1.75 6.55 0.15 1.45 0.55 2.7l0.15 0.2 1.75 4 0.1 0.1 2.8-4.5 0.1-1.1q-1.25-3.95-1-8.1l2.7 6.65 1.4-2.4-0.8-3.1 0.85 0.75q0.35 0.25 0.8 0.3l5.85-8.65-4.85 10.5-0.4 0.45 1.8-0.1q-4.2 1.65-5.15 5.9 4.75 0.1 7.95-3.9-2.65 4.5-7.75 5.8-1.05 0.3-2 0.9l-0.75 1.7q4.8 0.95 9.35-0.85-2.85 3.05-7.45 2.5-0.7-0.1-1.45 0.3-1.35 0.65-6.15 7.65l-0.25 0.4m8.55-25.8 0.4-0.15 0.5 0.05 0.2 0.15 0.15 0.2v0.25l-0.05 0.4-0.1 0.15-0.4 0.2q-0.8 0.1-0.9-0.7l0.2-0.55" fill="#638549"/>
<path d="m184.15 187.7 0.35-0.55 5.7-7.6 8-2.4 4.65 2.4 2.85 5.8-0.25 8.35-2.55 8.2-1.9 3.7-6.65 3.9-2.25 1.2-8.05 1.65 0.25-0.4q4.8-7 6.15-7.65 0.75-0.4 1.45-0.3 4.6 0.55 7.45-2.5-4.55 1.8-9.35 0.85l0.75-1.7q0.95-0.6 2-0.9 5.1-1.3 7.75-5.8-3.2 4-7.95 3.9 0.95-4.25 5.15-5.9l-1.8 0.1 0.4-0.45 4.85-10.5-5.85 8.65q-0.45-0.05-0.8-0.3l-0.85-0.75 0.8 3.1-1.4 2.4-2.7-6.65q-0.25 4.15 1 8.1l-0.1 1.1-2.8 4.5-0.1-0.1-1.75-4-0.15-0.2q-0.4-1.25-0.55-2.7-0.3-3.55-1.75-6.55m-1.35 21.65v0.05l-1.7-7.85 0.8-9.4 2.3-4.4-0.05 0.8q-0.15 0.7 0.25 1.5-0.1 0.8-0.05 1.55l0.25 3.15q0.6 4.4 3.2 7.6l-1.45 1.95-3.55 5.05m9.8-22.8-0.2 0.55q0.1 0.8 0.9 0.7l0.4-0.2 0.1-0.15 0.05-0.4v-0.25l-0.15-0.2-0.2-0.15-0.5-0.05-0.4 0.15" fill="#1e4811"/>
<path d="m184.15 187.7 0.35-0.55 5.7-7.6 8-2.4 4.65 2.4 2.85 5.8-0.25 8.35-2.55 8.2-1.9 3.7-6.65 3.9-2.25 1.2-8.05 1.65m-1.25-3v0.05l-1.7-7.85 0.8-9.4 2.3-4.4" fill="none" stroke="#000" stroke-opacity=".4" stroke-width=".5"/>
<path d="m328.55 209.25 0.45 2.4-1.35 5.35-0.05 0.15-0.1 0.05-1.1 0.15-0.5-0.65q1.95-3.55 2.65-7.45" fill="#d0f0c1"/>
<path d="m325.9 216.7 0.5 0.65 1.1-0.15 0.1-0.05 0.05-0.15 1.35-5.35-0.45-2.4 0.7-2.15 0.75 7.25q0.8 3.75-0.55 6.9-1.15 1.1-3.2 0.4-2-1.9-0.9-3.7l0.55-1.25" fill="#6c3"/>
<path d="m325.9 216.7-0.55 1.25q-1.1 1.8 0.9 3.7 2.05 0.7 3.2-0.4 1.35-3.15 0.55-6.9l-0.75-7.25-0.7 2.15q-0.7 3.9-2.65 7.45" fill="none" stroke="#220d0d" stroke-opacity=".50196" stroke-width=".5"/>
<path d="m327.05 193.9 16 3.7-27.7 7.7 0.55-0.6q5.25-5.45 11.15-10.8-5.9 5.35-11.15 10.8l-0.55 0.6-9.6 2.7h-0.05l-32.5 9.05 0.25-0.15q17.95-14.1 43.4-25.35l5.05 1.15 5.15 1.2m-115.6 10.4 0.85-0.2v0.05l-0.85 0.15m44.6-9.5 38.95-8.25 3.85 0.85q-32.75 6.65-59.35 15.05 0.35-1-0.6-1.7 10.6-4.3 16.7-5.75l0.15-0.05 0.3-0.15m49.7 13.2 0.75-0.8q7.1-7.3 15.4-14.5-8.3 7.2-15.4 14.5l-0.75 0.8m-43.45 2.6-8.9 3.6q3.15-2.2 6-2.9l2.9-0.7m-66.8 23.75-0.05 0.15-0.25-0.1 0.3-0.05m60.8-31.25 6-1.1q-9.45 8.45-32.55 16.3h-0.05l-0.75 0.25 0.9-1.25-0.45-1.4-4.15 1.15q0.35-1.95 5.7-4.35 8.65-3.15 14.4-4.05l-1.2 0.95 1.85-0.7q10.3-4 10.3-5.65v-0.15m-37.4 12q1.95-1.05 4.35-2.1l4.05-1.45-1.6 0.85q-2.3 1.25-6.4 2.55l-0.4 0.15m10.5 0.8q10.2-3 14.75-6.3-4.55 3.3-14.75 6.3m-52.65 13.6 0.55-0.3-0.15 0.4-0.4-0.1" fill="#db9c35"/>
<path d="m195.1 207.8v-0.05l3.7-0.8v0.05h-0.05l-3.65 0.8m60.5-12.9h0.1l0.45-0.1h-0.1l-0.3 0.15-0.15 0.05v-0.1m0.1 0 0.35-0.1-0.35 0.1m10.25 14.2-1.5 1-2.15 0.5 3.65-1.5m-37 9.45q-9.45 3.15-21.1 6.2 0.1-0.75 0.55-1.55 2.05-3.75 10.5-8.1l0.4-0.15q4.1-1.3 6.4-2.55l1.6-0.85q16.6-5.85 29-8.45-12.4 2.6-29 8.45 2.6-1.3 5.05-2l4.95-1.8q3.15-1.65 8.75-4 6.55-2.8 7.95-2.8 2.2 0 2.3 2.15v0.15q0 1.65-10.3 5.65l-1.85 0.7 1.2-0.95q-5.75 0.9-14.4 4.05-5.35 2.4-5.7 4.35l4.15-1.15 0.45 1.4-0.9 1.25" fill="#e3b459"/>
<path d="m315.35 205.3 27.7-7.7v13.2l-25.45 7.15-9.45 2.6-34.95 9.75v-13.25l32.5-9.05h0.05l9.6-2.7q-1.4 6.3 2.25 12.65-3.65-6.35-2.25-12.65m-7.2 15.25-2.45-12.55 2.45 12.55" fill="#764203"/>
<path d="m195.2 234.5v-0.1l0.25 0.1h-0.25" fill="#410101"/>
<path d="m229.75 218.3 0.1 0.35-0.15-0.35h0.05" fill="#941010"/>
<path d="m273.2 230.3-69.85 19.45-7.85-2.05-18.35-4.85-37.9-9.95v-13.3l28.6 7.55 8.85 2.35h0.05l0.4 0.1 11.1 3h0.05l6.9 1.8v0.1h0.25l7.9 2.05 69.85-19.5v13.25m-96.5-0.8 0.45 13.35-0.45-13.35m18.8 18.2-0.3-13.2 0.3 13.2" fill="#624d04"/>
<path d="m139.25 219.6 39.2-8.3h0.05l0.45-0.1 9.25-1.95h0.1l6.8-1.45 3.65-0.8h0.05l1.5-0.35h0.1l11.05-2.35 0.85-0.15 30.3-6.45q-0.85 2-7.85 3.65l-9.6 1.8q-7.3 1.95-22.2 7.7-4.55 1.75-10.1 4.55-6.1 3.1-10.3 4.8-4.85 1.9-14.7 6.95l-28.6-7.55m159.6-32.2 8.55 1.95 9.45 2.2q-25.45 11.25-43.4 25.35l-0.25 0.15-69.85 19.5-7.9-2.05 0.05-0.15q31.4-9.65 57.9-20.15l8.9-3.6 2.15-0.5 1.5-1 0.45-1.45q0-2.15-2.3-2.15-5.2 0-11.9 4.15l-8.4 5.2-10.35 2.85-3.6 0.95-0.1-0.35q23.1-7.85 32.55-16.3l-6 1.1q-0.1-2.15-2.3-2.15-1.4 0-7.95 2.8-5.6 2.35-8.75 4l-4.95 1.8q-2.45 0.7-5.05 2l-4.05 1.45q-2.4 1.05-4.35 2.1-8.45 4.35-10.5 8.1-0.45 0.8-0.55 1.55 11.65-3.05 21.1-6.2l0.75-0.25 0.15 0.35v0.45q0 1.7-9.8 5.6-8.9 3.55-14.35 4.65l-17.4 3.25h-0.05l-11.1-3 0.15-0.4q25.15-15.1 62.2-26.75 26.6-8.4 59.35-15.05m8.55 1.95q-18.8 10.2-41.45 19.75 22.65-9.55 41.45-19.75" fill="#896907"/>
<path d="m242.6 197.7 13-2.8v0.1q-6.1 1.45-16.7 5.75 0.95 0.7 0.6 1.7-37.05 11.65-62.2 26.75l-0.55 0.3h-0.05l-8.85-2.35q9.85-5.05 14.7-6.95 4.2-1.7 10.3-4.8 5.55-2.8 10.1-4.55 14.9-5.75 22.2-7.7l9.6-1.8q7-1.65 7.85-3.65m-12.75 20.95 3.6-0.95 10.35-2.85 8.4-5.2q6.7-4.15 11.9-4.15 2.3 0 2.3 2.15l-0.45 1.45-3.65 1.5-2.9 0.7q-2.85 0.7-6 2.9-26.5 10.5-57.9 20.15l-0.3 0.05-6.9-1.8 17.4-3.25q5.45-1.1 14.35-4.65 9.8-3.9 9.8-5.6v-0.45" fill="#dd8d15"/>
<path d="m343.05 197.6-16-3.7q-5.9 5.35-11.15 10.8l-0.55 0.6 27.7-7.7v13.2l-25.45 7.15m-9.45 2.6-34.95 9.75m21.8-43.75 3.85 0.85 8.55 1.95 9.45 2.2m5.05 1.15 5.15 1.2m-5.15-1.2q-8.3 7.2-15.4 14.5l-0.75 0.8m9.6-2.7q-1.4 6.3 2.25 12.65m-11.9-9.95 2.45 12.55m-34.95-3.5 0.25-0.15q17.95-14.1 43.4-25.35m-60.55 11.55 6-1.1q-9.45 8.45-32.55 16.3h-0.05l-0.75 0.25q-9.45 3.15-21.1 6.2 0.1-0.75 0.55-1.55 2.05-3.75 10.5-8.1 1.95-1.05 4.35-2.1l4.05-1.45m16.85-1.95q-4.55 3.3-14.75 6.3m14.75-6.3 1.2-0.95q-5.75 0.9-14.4 4.05-5.35 2.4-5.7 4.35l4.15-1.15m43.8 1.15v13.25m-16.9-27.2q-12.4 2.6-29 8.45" fill="none" stroke="#000" stroke-opacity=".30196" stroke-width=".5"/>
<path d="m255.6 194.9h0.1m0.35-0.1 38.95-8.25m-38.95 8.25-0.35 0.1m-16.2 7.55q26.6-8.4 59.35-15.05" fill="none" stroke="#815223" stroke-width=".5"/>
<path d="m200.4 206.65 11.05-2.35 0.85-0.15 30.3-6.45 13-2.8" fill="none" stroke="#4e1414" stroke-width=".5"/>
<path d="m273.2 230.3-69.85 19.45-7.85-2.05-18.35-4.85-37.9-9.95v-13.3l39.2-8.3m0.5-0.1 9.25-1.95m0.1 0 6.8-1.45 3.65-0.8h0.05l1.5-0.35m65.65 2.45q22.65-9.55 41.45-19.75m-45.1 21.25-8.9 3.6q-26.5 10.5-57.9 20.15m-0.05 0.15 7.9 2.05 69.85-19.5m-7.25-7.95-3.65 1.5m-85.55 18.9 0.55-0.3q25.15-15.1 62.2-26.75m-62.35 40.4-0.45-13.35m18.5 4.9 0.3-0.05m-0.3 0.05v0.1l0.3 13.2m-0.05-13.2-0.25-0.1" fill="none" stroke="#7a4703" stroke-width=".5"/>
<path d="m233.8 241.3-19.35 5.45-0.15-0.1 0.15-13.05-27.05-10.1 13.6-4.35 33.75 20-0.95 2.15" fill="#200" fill-opacity=".49804"/>
<path d="m335.45 171.7 0.85-0.2-0.15 0.05-0.15 0.2-0.2 0.25-0.35-0.3m-33.8 7.4 12.35-2.7q-7.1 2.05-12.4 2.8l0.05-0.1m-79.7 46.15 0.5 0.4-0.5-0.4m37.8 6.75 0.2-0.65-0.2 0.75v-0.1m-15.4-13.95-7.25 2.55 0.55-0.35 6.7-2.2" fill="#db9c35"/>
<path d="m242.7 192.05 0.75-0.15-0.75 0.15m85.5 21.55 0.3-0.1-0.45 0.15 0.15-0.05" fill="#eccb8c"/>
<path d="m301.55 179.15 0.1-0.05-0.05 0.1-0.05-0.05m31.1 9.45 0.1 0.25-1.3 0.35 1.2-0.6m-4.45 25 0.35-0.1h-0.05l-0.3 0.1m-105.75 12.05v0.05-0.05" fill="#e3b459"/>
<path d="m328.5 213.5h0.05-0.05" fill="#b61212"/>
<path d="m380 199.6-0.45 12.15-72 21.15-27.75 8.15-10.35 3-31.95 9.4-32.3-28.8-10.3-9.2-0.1-12.05 11.2 8.65 0.85 0.7 6.9 5.7 8.2 6.8 0.5 0.4v0.05l4.55 3.75 10.45 8.65 8.3-2.25 13.9-3.75h0.1l8.1-2.2q-0.45 7.05 1.6 14.15-2.05-7.1-1.6-14.15l8.5-2.3 16.7-4.5 0.05-0.05 0.35-0.05 18.4-5 16.35-4.4-0.15 0.05 0.45-0.15h0.05l20.15-5.45h-0.05 0.2-0.15 0.15l31.15-8.45m-72.45 33.3q-1.5-7.05 4.3-14.9-5.8 7.85-4.3 14.9m-31.2-5.3q-0.45 7.15 3.45 13.45-3.9-6.3-3.45-13.45m-71.15-2.95q-1.25-6.35 1.65-11.9-2.9 5.55-1.65 11.9" fill="#624d04"/>
<path d="m340 173.9 10.85 6.9-3.2 1.55-15 6.25-1.2 0.6 1.3-0.35 0.8-0.1q4.7-0.65 13.15-3.5l7.3-2.35 5.15 3.3-14 6.15q-25.75 11.55-48.4 23.75l-12.15 6.75-8.25 4.75-8.5 2.3q30.7-28.7 72.15-56m25.5 16.35 9.95 6.4q-4.05 1.15-12.15 4.15l-20.55 7.85-14.2 4.85-0.35 0.1-16.35 4.4q19.4-11.95 45.25-23.9l8.4-3.85m-170.7 13.15 47.9-11.35-1.45 0.85-9.9 3.45q-4.1 1.95-13.25 5.75-9 4.1-9.75 5.8l-2.35 4.15-11.2-8.65m12.05 9.35q23.75-15.25 51.8-23.8-11.45 4.6-15.15 6.65-10.4 5.8-18.85 12.2-8.5 6.4-10.9 10.65l-6.9-5.7m20.15 16.7q6.2-1.7 16.9-5.9 18.75-7.3 29.2-13.75l8.65-6.55q5.6-4.35 9.75-6.05l11.85-4.75-7.05 5.95-9.75 7.25q-6.55 4.65-9.4 7-14.05 11.55-17.65 14.05l-4.6 3.7q-2.85 2.15-5.5 2.7-1.35 0.25-4.35 2.95l0.7-0.2-8.3 2.25-10.45-8.65m32.65 2.65 0.1-0.1v0.1h-0.1m-22-11.85-1.5 0.45q4.65-8.7 8.95-12.25 4.3-3.6 11.8-8.1 7.45-4.6 37.8-8.7l-1.45 1.2-0.9 0.75q-18.15 14.3-48 24.45l-6.7 2.2m34.8-18.85-2.75 0.25q-7.05 0.8-11.65 3.5l-1.1 0.7q-1.5 1-2.65 2.15-1.55 1.5-2.6 3.4l6.8-2.7q2.25-1.05 6.15-2.25 3.9-1.25 7.8-5.05" fill="#896907"/>
<path d="m335.45 171.7 0.35 0.3 0.2-0.25 0.15-0.2 0.15-0.05 3.7 2.4q-41.45 27.3-72.15 56l-8.1 2.2 0.2-0.75-0.2 0.65-0.1 0.1-13.9 3.75-0.7 0.2q3-2.7 4.35-2.95 2.65-0.55 5.5-2.7l4.6-3.7q3.6-2.5 17.65-14.05 2.85-2.35 9.4-7l9.75-7.25 7.05-5.95-11.85 4.75q-4.15 1.7-9.75 6.05l-8.65 6.55q-10.45 6.45-29.2 13.75-10.7 4.2-16.9 5.9l-4.55-3.75v-0.05l-0.5-0.4-8.2-6.8q2.4-4.25 10.9-10.65 8.45-6.4 18.85-12.2 3.7-2.05 15.15-6.65-28.05 8.55-51.8 23.8l-0.85-0.7 2.35-4.15q0.75-1.7 9.75-5.8 9.15-3.8 13.25-5.75l9.9-3.45 1.45-0.85 0.75-0.15 58.1-12.75 0.05 0.05q5.3-0.75 12.4-2.8l21.45-4.7m15.4 9.1 3.15 2.1-7.3 2.35q-8.45 2.85-13.15 3.5l-0.8 0.1-0.1-0.25 15-6.25 3.2-1.55m8.3 5.4 6.35 4.05-8.4 3.85q-25.85 11.95-45.25 23.9l-18.4 5-0.35 0.05-0.05 0.05-16.7 4.5 8.25-4.75 12.15-6.75q22.65-12.2 48.4-23.75l14-6.15m16.3 10.45 4.55 2.95-31.15 8.45h-0.2 0.05l-20.15 5.45 14.2-4.85 20.55-7.85q8.1-3 12.15-4.15m-131.1 21.4q29.85-10.15 48-24.45l0.9-0.75 1.45-1.2q-30.35 4.1-37.8 8.7-7.5 4.5-11.8 8.1-4.3 3.55-8.95 12.25l1.5-0.45-0.55 0.35 7.25-2.55m28.1-16.65q-3.9 3.8-7.8 5.05-3.9 1.2-6.15 2.25l-6.8 2.7q1.05-1.9 2.6-3.4 1.15-1.15 2.65-2.15l1.1-0.7q4.6-2.7 11.65-3.5l2.75-0.25" fill="#dd8d15"/>
<path d="m311.85 218q-5.8 7.85-4.3 14.9m-39.7-3q-0.45 7.05 1.6 14.15m-62.6-31.3q-2.9 5.55-1.65 11.9" fill="none" stroke="#513315" stroke-width=".5"/>
<path d="m336.3 171.5-0.85 0.2m0.85-0.2 3.7 2.4 10.85 6.9 3.15 2.1 5.15 3.3 6.35 4.05 9.95 6.4 4.55 2.95-0.45 12.15-72 21.15-27.75 8.15-10.35 3-31.95 9.4-32.3-28.8-10.3-9.2-0.1-12.05 47.9-11.35 0.75-0.15 58.1-12.75 0.1-0.05 12.35-2.7 21.45-4.7m-59.1 55.9 8.25-4.75 12.15-6.75q22.65-12.2 48.4-23.75l14-6.15m6.35 4.05-8.4 3.85q-25.85 11.95-45.25 23.9l16.35-4.4 0.3-0.1m20.2-5.45h0.15l31.15-8.45m-51.45 13.9 20.15-5.45m-20.15 5.45h-0.05m-122.5-1.45 0.85 0.7q23.75-15.25 51.8-23.8m-44.9 29.5 8.2 6.8m0.5 0.45 4.55 3.75m18.75 6.4 13.9-3.75m0.1 0 8.1-2.2q30.7-28.7 72.15-56m-102.35 46.35-1.5 0.45q4.65-8.7 8.95-12.25 4.3-3.6 11.8-8.1 7.45-4.6 37.8-8.7l-1.45 1.2-0.9 0.75q-18.15 14.3-48 24.45m-6.7 2.2 6.7-2.2m49.1 4.95 18.4-5m-35.5 9.6 16.7-4.5 0.05-0.05m-20.65-21.65-2.75 0.25q-7.05 0.8-11.65 3.5l-1.1 0.7q-1.5 1-2.65 2.15-1.55 1.5-2.6 3.4l6.8-2.7q2.25-1.05 6.15-2.25 3.9-1.25 7.8-5.05m-12.7 30.7h-0.1m20.15 8.95q-3.9-6.3-3.45-13.45l-8.5 2.3m-54.1-11.45-6.9-5.7m15.6 12.9v0.05m0-0.05-0.5-0.4m23.8 10.6-8.3 2.25-10.45-8.65m-21-17.4-11.2-8.65" fill="none" stroke="#7a4703" stroke-width=".5"/>
<path d="m285.1 200.8 2.7 3.95-5.1 5.4-32.55-5.6-2.6-4.55 8.6-5.2 28.95 6m8.25-4.15 20.65-8.65-15.35 15.5-5.7 0.2 0.4-7.05" fill="#110c21" fill-opacity=".49804"/>
</g>
<g id="c">
<path d="m3.9 3.8-0.4 1.7-4.95-0.75-0.2-1.65 5.55 0.7" fill="#966832"/>
<path d="m-1.65 3.1 0.7-0.9 4.55 0.55 0.3 1.05-5.55-0.7" fill="#daa854"/>
<path d="m3.9 3.8-0.4 1.7-4.95-0.75-0.2-1.65" fill="none" stroke="#7a5323" stroke-width=".5"/>
<path d="m-1.65 3.1 0.7-0.9 4.55 0.55 0.3 1.05" fill="none" stroke="#7a5323" stroke-width=".5"/>
<path d="M6.35 4.9 L5.3 3.35 6.95 0.85 8.1 2.5 6.35 4.9" fill="#966832"/>
<path d="m4.45 3.2 0.85 0.15 1.05 1.55-0.8-0.05-1.1-1.65" fill="#80572a"/>
<path d="m5.3 3.35-0.85-0.15h-0.05l2.55-2.35-1.65 2.5" fill="#daa854"/>
<path d="m4.45 3.2 1.1 1.65 0.8 0.05m0.6-4.05-2.55 2.35h0.05m2.5-2.35 1.15 1.65-1.75 2.4" fill="none" stroke="#7a5323" stroke-width=".5"/>
</g>
<g id="b">
<use xlink:href="#c"/>
</g>
<g id="a">
<path d="m220.3 228.9 0.45 2.4-1.35 5.35-0.05 0.15-0.1 0.05-1.1 0.15-0.5-0.65q1.95-3.55 2.65-7.45" fill="#d0f0c1"/>
<path d="m220.3 228.9 0.7-2.15 0.75 7.25q0.8 3.75-0.55 6.9-1.15 1.1-3.2 0.4-2-1.9-0.9-3.7l0.55-1.25 0.5 0.65 1.1-0.15 0.1-0.05 0.05-0.15 1.35-5.35-0.45-2.4" fill="#6c3"/>
<path d="m217.65 236.35-0.55 1.25q-1.1 1.8 0.9 3.7 2.05 0.7 3.2-0.4 1.35-3.15 0.55-6.9l-0.75-7.25-0.7 2.15m-2.65 7.45q1.95-3.55 2.65-7.45" fill="none" stroke="#220d0d" stroke-opacity=".50196" stroke-width=".5"/>
</g>
</defs>
<use xlink:href="#d"/>
<use transform="matrix(6.6515 .66072 -.29039 6.6802 258.2 155.6)" xlink:href="#b"/>
<use xlink:href="#a"/>
</svg>
