<?xml version="1.0" encoding="UTF-8"?>
<svg version="1.1" viewBox="0 0 123.46 141.75" xmlns="http://www.w3.org/2000/svg" xmlns:cc="http://creativecommons.org/ns#" xmlns:dc="http://purl.org/dc/elements/1.1/" xmlns:rdf="http://www.w3.org/1999/02/22-rdf-syntax-ns#" xmlns:xlink="http://www.w3.org/1999/xlink">
<metadata>
<rdf:RDF>
<cc:Work rdf:about="">
<dc:format>image/svg+xml</dc:format>
<dc:type rdf:resource="http://purl.org/dc/dcmitype/StillImage"/>
</cc:Work>
</rdf:RDF>
</metadata>
<g transform="translate(-273.73 -61.246)">
<use transform="matrix(5.3198 -8.2575 7.8929 5.5395 270.22 91.902)" width="3.8499999" height="5.0999999" xlink:href="#c"/>
<use transform="matrix(1.2127 -3.0315 -2.8729 -.8029 315.88 172.07)" width="24.25" height="18" xlink:href="#b"/>
<use transform="matrix(-2.101 -2.391 -2.251 2.0452 417.8 139.69)" width="34.799999" height="35.299999" xlink:href="#a"/>
</g>
<defs>
<g id="c" transform="translate(3.1 .55)">
<use transform="translate(-3.1 -.55)" width="3.8499999" height="5.0999999" xlink:href="#f"/>
</g>
<g id="f" transform="translate(3.1 .55)">
<path d="m-1.05 4.4-0.7 0.15-0.4-0.05-0.6-0.6-0.1-0.3 0.4-0.15 0.85-0.5 1.15-2.9h0.2l0.75-0.1q0 2.7-1.55 4.45" fill="#c7980a" fill-rule="evenodd"/>
<path d="m-0.75-0.2 0.15-0.15 0.7-0.2 0.65 0.25v0.7q0 1.7-0.7 2.95l-1.1 1.05q1.55-1.75 1.55-4.45l-0.75 0.1-0.5-0.25" fill="#f3e074" fill-rule="evenodd"/>
<path d="m-2.85 3.6-0.25-0.5 0.8-0.95 0.65-1.65 0.9-0.7 0.5 0.25h-0.2l-1.15 2.9-0.85 0.5-0.4 0.15" fill="#9c7809" fill-rule="evenodd"/>
<path d="m0.75-0.3v0.7m-2.5 4.15-0.4-0.05" fill="none" stroke="#080808" stroke-linecap="round" stroke-linejoin="round" stroke-opacity=".30196" stroke-width=".05"/>
<path d="m-0.75-0.2 0.15-0.15 0.7-0.2 0.65 0.25m0 0.7q0 1.7-0.7 2.95l-1.1 1.05-0.7 0.15m-0.4-0.05-0.6-0.6-0.1-0.3-0.25-0.5 0.8-0.95 0.65-1.65 0.9-0.7" fill="none" stroke="#080808" stroke-linecap="round" stroke-linejoin="round" stroke-opacity=".30196" stroke-width=".05"/>
<path d="m-0.3 1.1 0.25-0.15 0.3 0.15 0.1 0.35-0.1 0.35-0.3 0.15-0.25-0.15-0.15-0.35 0.15-0.35" fill="#080839" fill-rule="evenodd"/>
<path d="M -0.05,1.4 0.1,1.3 0.2,1.4 0.25,1.5 0.2,1.65 0.1,1.7 -0.05,1.65 -0.1,1.5 -0.05,1.4" fill="#fff" fill-opacity=".6" fill-rule="evenodd"/>
<path d="m-0.05 2.6 0.15 0.05v0.25l-0.25 0.3-0.2 0.2-0.2-0.05 0.05-0.25 0.2-0.3 0.25-0.2" fill="#080839" fill-rule="evenodd"/>
<path d="m-0.15 2.9h0.05v0.1l-0.2 0.2v-0.05l-0.05-0.05 0.1-0.15 0.1-0.05" fill="#fff" fill-opacity=".6" fill-rule="evenodd"/>
<path d="m-1.45 1.9h0.35l0.2 0.2v0.35l-0.2 0.2-0.3 0.05-0.25-0.25v-0.3l0.2-0.25" fill="#080839" fill-rule="evenodd"/>
<path d="m-1.25 2.2h0.15l0.05 0.1v0.1l-0.05 0.1h-0.15l-0.1-0.2 0.1-0.1" fill="#fff" fill-opacity=".6" fill-rule="evenodd"/>
<path d="m-1.65 3.15 0.1 0.05q0.05 0.1-0.05 0.2l-0.3 0.15-0.3 0.05-0.15-0.1 0.1-0.15 0.3-0.2h0.3" fill="#080839" fill-rule="evenodd"/>
<path d="m-1.9 3.35h0.05l-0.05 0.1-0.1 0.05h-0.15v-0.1l0.15-0.05h0.1" fill="#fff" fill-opacity=".6" fill-rule="evenodd"/>
</g>
<g id="b" transform="translate(18.85,3.65)">
<use transform="translate(-18.85,-3.65)" width="24.25" height="18" xlink:href="#e"/>
</g>
<g id="e" transform="translate(18.85,3.65)">
<path d="m5.25-2.95 0.15 0.05-0.2 0.4 0.05-0.45" fill="#e99540" fill-rule="evenodd"/>
<path d="m5.2-2.5-1.15 9.1q-5.55 6.35-11.65 7.5l-4.1-4.1q2.85-0.65 6.15-2.3 8-4.05 10.75-10.2" fill="#9c7809" fill-rule="evenodd"/>
<path d="m-7.6 14.1-1.5 0.2-1.8 0.05-7.95-4.25 4.55 0.35 2.6-0.45 4.1 4.1" fill="#c7980a" fill-rule="evenodd"/>
<path d="m0.3-3.65q1 0.9 3.3 0.7h1.65l-0.05 0.45q-2.75 6.15-10.75 10.2-3.3 1.65-6.15 2.3l-2.6 0.45-4.55-0.35 2.45-4.45q1.3-2.35 2.8-3.75 3.85-3.75 13.9-5.55" fill="#574408" fill-rule="evenodd"/>
<path d="m0.3-3.65q1 0.9 3.3 0.7h1.65l0.15 0.05-0.2 0.4" fill="none" stroke="#080808" stroke-linecap="round" stroke-linejoin="round" stroke-opacity=".30196" stroke-width=".05"/>
<path d="m5.2-2.5-1.15 9.1q-5.55 6.35-11.65 7.5l-1.5 0.2-1.8 0.05-7.95-4.25 2.45-4.45q1.3-2.35 2.8-3.75 3.85-3.75 13.9-5.55m4.95 0.7-0.05 0.45q-2.75 6.15-10.75 10.2-3.3 1.65-6.15 2.3l-2.6 0.45-4.55-0.35" fill="none" stroke="#080808" stroke-linecap="round" stroke-linejoin="round" stroke-opacity=".30196" stroke-width=".05"/>
</g>
<g id="a" transform="translate(25.4,18.65)">
<use transform="translate(-25.4,-18.65)" width="34.799999" height="35.299999" xlink:href="#d"/>
</g>
<g id="d" transform="translate(25.4,18.65)">
<path d="m1.35 6-3.15-0.9q-4.45-0.35-8.75 1.25-6.2 4.2-11.1 10.3l1-13.05q0.45-8.2 3.05-11.9 2.6-3.75 6.75-5.25 4.1-1.5 8.15-1.75l2.4 0.1q5.75 7.05 1.65 21.2" fill="#c7980a" fill-rule="evenodd"/>
<path d="m5.25-12.9 2.65 4.75q1.95 5.45 1.4 8.8l-2.65 7.65q-2.55-1.35-5.3-2.3 4.1-14.15-1.65-21.2 2.8 0.45 5.55 2.3" fill="#9c7809" fill-rule="evenodd"/>
<path d="m-21.65 16.65q-3.3-7.1-3.7-13.2v-3.1q0.15-3.7 1.2-7 0.4-1.45 1.95-4.2 1.7-3.05 3-4.4 2.9-2.15 7.55-2.05l9.25 0.35 1.85 0.6 0.2 0.05q2.4 1 5.6 3.4-2.75-1.85-5.55-2.3l-2.4-0.1q-4.05 0.25-8.15 1.75-4.15 1.5-6.75 5.25-2.6 3.7-3.05 11.9l-1 13.05" fill="#f3e074" fill-rule="evenodd"/>
<path d="m5.25-12.9 2.65 4.75q1.95 5.45 1.4 8.8l-2.65 7.65q-2.55-1.35-5.3-2.3l-3.15-0.9q-4.45-0.35-8.75 1.25-6.2 4.2-11.1 10.3-3.3-7.1-3.7-13.2v-3.1q0.15-3.7 1.2-7 0.4-1.45 1.95-4.2 1.7-3.05 3-4.4 2.9-2.15 7.55-2.05l9.25 0.35 1.85 0.6m0.2 0.05q2.4 1 5.6 3.4z" fill="none" stroke="#080808" stroke-linecap="round" stroke-linejoin="round" stroke-opacity=".30196" stroke-width=".05"/>
<path d="m1.75-7.65q-0.5 0.55-1.3 0.55t-1.3-0.55q-0.5-0.6-0.5-1.4 0-0.85 0.5-1.4 0.5-0.6 1.3-0.55 0.8-0.05 1.3 0.55 0.5 0.55 0.55 1.4-0.05 0.8-0.55 1.4m2.05 3.95q-0.05-0.55 0.3-0.9t0.85-0.35 0.85 0.35l0.3 0.9-0.3 0.9q-0.35 0.35-0.85 0.35t-0.85-0.35q-0.35-0.4-0.3-0.9m-12.1-14.45q0.55 0.45 0.55 1.15 0 0.65-0.55 1.15-0.6 0.45-1.4 0.45-0.85 0-1.4-0.45-0.55-0.5-0.55-1.15 0-0.7 0.55-1.15 0.55-0.5 1.4-0.5 0.8 0 1.4 0.5m-4.85 5.05q0.6 0.55 0.65 1.35-0.05 0.8-0.65 1.35-0.7 0.55-1.65 0.55t-1.6-0.55-0.65-1.35 0.65-1.35 1.6-0.55 1.65 0.55m-11.5 16.6q-0.7-0.55-0.7-1.35 0-0.85 0.7-1.4 0.6-0.55 1.6-0.55t1.65 0.55 0.65 1.4q0 0.8-0.65 1.35t-1.65 0.55-1.6-0.55" fill="#080839" fill-rule="evenodd"/>
<path d="m-10.4-1.9q0 1.15-0.75 1.95-0.75 0.75-1.8 0.75-1.1 0-1.85-0.75-0.75-0.8-0.7-1.95-0.05-1.2 0.7-1.95 0.75-0.8 1.85-0.75 1.05-0.05 1.8 0.75 0.75 0.75 0.75 1.95" fill="#080839" fill-rule="evenodd"/>
<path d="m-12.85-2.15q-0.5 0-0.85-0.35t-0.35-0.9 0.35-0.9 0.85-0.35q0.45 0 0.8 0.35t0.35 0.9-0.35 0.9-0.8 0.35" fill="#f0b981" fill-rule="evenodd"/>
<path d="m0.85-10.7 0.25 0.65-0.25 0.65-0.55 0.2-0.6-0.2-0.25-0.65 0.25-0.65 0.6-0.25 0.55 0.25m-10.7-5.75-0.3-0.7 0.3-0.7 0.6-0.25 0.65 0.25q0.25 0.25 0.25 0.7 0 0.4-0.25 0.7-0.25 0.25-0.65 0.25t-0.6-0.25m8 18.1-0.3-0.7 0.3-0.7q0.2-0.25 0.6-0.25t0.65 0.25 0.25 0.7q0 0.4-0.25 0.7l-0.65 0.25-0.6-0.25m-21 0-0.3-0.7 0.3-0.7q0.2-0.25 0.6-0.25t0.65 0.25 0.25 0.7q0 0.4-0.25 0.7l-0.65 0.25-0.6-0.25" fill="#f0b981" fill-rule="evenodd"/>
</g>
</defs>
</svg>
