<?xml version="1.0" encoding="UTF-8"?>
<svg version="1.1" viewBox="0 0 122.85 104.25" xmlns="http://www.w3.org/2000/svg" xmlns:cc="http://creativecommons.org/ns#" xmlns:dc="http://purl.org/dc/elements/1.1/" xmlns:rdf="http://www.w3.org/1999/02/22-rdf-syntax-ns#" xmlns:xlink="http://www.w3.org/1999/xlink">
<metadata>
<rdf:RDF>
<cc:Work rdf:about="">
<dc:format>image/svg+xml</dc:format>
<dc:type rdf:resource="http://purl.org/dc/dcmitype/StillImage"/>
</cc:Work>
</rdf:RDF>
</metadata>
<g transform="translate(-38.551 -31.35)">
<use transform="translate(93.5,31.35)" width="67.900002" height="100.55" xlink:href="#k"/>
<use transform="translate(120.3,88.35)" width="27.85" height="37" xlink:href="#j"/>
<use transform="translate(131,116.45)" width="5.4499998" height="4.8000002" xlink:href="#i"/>
<use transform="matrix(-.1015 0 0 .2133 134.35 119.22)" width="24.75" height="5.9000001" xlink:href="#d"/>
<use transform="matrix(-.15 0 0 .15 135.35 97.548)" width="32.200001" height="137.89999" xlink:href="#g"/>
<use transform="matrix(-.1145 .0965 .0965 .1145 132.45 88.362)" width="98.75" height="123.55" xlink:href="#c"/>
<use transform="matrix(-.1145 .0965 .0965 .1145 136.94 88.308)" width="135.05" height="92.099998" xlink:href="#b"/>
<use transform="translate(38.55,34.05)" width="120.85" height="101.55" xlink:href="#e"/>
</g>
<defs>
<g id="k" transform="translate(-54.45 .5)">
<path d="m120.85 4.35-6.75 5.9-13.9 14.25-5.65 9.25-2.55-2.85 1.1-1.8 2.75-4.65 14.55-24.45h2.6q-15.8 33-2.5 8.05l6.85-8h0.85l2.65 4.3m-34.95 36.35v0.1h-0.05l0.05-0.1m29.1-3.05v0.7q0 3.9-3.35 7.1l0.35 0.3 1.5 1.55-6.9 11.1q-16.9 20.9-36.15 15.15l-0.45 1.5 0.85 2.6 0.4-1.05 0.1 1.2 0.05 1.35 0.65 1.85v0.05l2.7 5.5q2.55 5.25 11.8 7.95 17.5 3.25 28.7-5.15l-3 3.45-0.1 0.05h-0.4q-4.9 3.35-10.85 5.05l-1.35 0.35q-5.2 1.25-11.2 1.3h-0.65q-13.25-0.2-22.7-6.7h-0.4q-2.25-2.25-4-4.75-3-4.3-4.4-9.25-1.3-4.45-1.25-9.45-0.05-10.2 5.25-18.15 1.9-2.9 4.55-5.5-3.75-3.3-3.75-7.4 0-0.85 0.15-1.6 0.9-4.85 7.4-8.45l-4.2 7.9 1.8 6.05 0.75 0.4q1.55 5.8 26.45 7.1l12.45-2.8q7.45-4.9 9.2-9.3m-50.25 8.1 0.1 0.1q1.65 1.45 4.05 2.75 7.9 4.25 19.1 4.25t19.1-4.25q2.75-1.5 4.55-3.15-1.8 1.65-4.55 3.15-7.9 4.25-19.1 4.25t-19.1-4.25q-2.4-1.3-4.05-2.75l-0.1-0.1m7.4 22.2q0.6-0.55 0.15-0.6l-0.15 0.6" fill="#ab7e34" fill-rule="evenodd"/>
<path d="m92 30.9 2.55 2.85 5.65-9.25 13.9-14.25 6.75-5.9 1 1.6-11.7 13-5.05 4.9-1.8 2.55-3.15 4.35-4.1 6.05-2.45 3.6-3.35 0.45h-1.75l-2.6-0.05v-0.1l3.15-5.05 2.95-4.75" fill="#93652f" fill-rule="evenodd"/>
<path d="m 117.35,0.05 -6.85,8 Q 97.2,33 113,0 l 4.35,0.05" fill="#6d4b23" fill-rule="evenodd"/>
<path d="m93.1 29.1-1.1 1.8-2.95 4.75-8.4 0.45-0.75 3.85-2.75-0.85-1.6-0.7q-3.05-1.55-3.05-3.55 0-2.5 4.65-4.25 4.7-1.75 11.35-1.75l4.6 0.25m2.95 7.7 4.1-6.05q4.35 1.7 4.35 4.1 0 2.05-3.15 3.6l-1.55 0.65-0.1 0.05-3.65-2.35" fill="#6d4723" fill-rule="evenodd"/>
<path d="m95.85 24.45-2.75 4.65-4.6-0.25q-6.65 0-11.35 1.75-4.65 1.75-4.65 4.25 0 2 3.05 3.55l1.6 0.7 2.75 0.85 5.95 0.85h0.05l2.6 0.05h1.75l3.35-0.45 1.75-0.35-0.1 0.1 4.45-1 0.1-0.05 1.55-0.65q3.15-1.55 3.15-3.6 0-2.4-4.35-4.1l3.15-4.35q2 0.7 3.8 1.7 7.45 4 7.9 9.55-1.75 4.4-9.2 9.3l-12.45 2.8q-24.9-1.3-26.45-7.1l-0.75-0.4-1.8-6.05 4.2-7.9 0.35-0.2q7.9-4.25 19.1-4.25l7.85 0.6m11.25 10.5 0.45 0.4-0.65 1.95-1.55 1.75q-0.65 1.3-0.2 2.6l3.45-0.2q2.1-2.75 0.25-5.65l-1.75-0.85m6.4 12.35q8.3 9.35 8.3 22.1 0 5-1.25 9.45-1.65 5.65-5.3 10.5-11.2 8.4-28.7 5.15-9.25-2.7-11.8-7.95l-2.7-5.5v-0.05l-0.65-1.85-0.05-1.35-0.1-1.2-0.4 1.05-0.85-2.6 0.45-1.5q19.25 5.75 36.15-15.15l6.9-11.1m-0.95 11.3-2.85 1.75v1.5q1.05 2.75 3.9 3.95h0.25q2.05-2.3 1.3-6.1l-1.1-1.1h-1.5m-12.3-15.8-1.05 0.35q-4.45-0.15-8.25 1.25l-0.35 0.15q2.95 2.3 7.15 1.8l2.5-2.15v-1.4m-28.1 25.15 0.15-0.6q0.45 0.05-0.15 0.6" fill="#cfac5f" fill-rule="evenodd"/>
<path d="m107.1 34.95 1.75 0.85q1.85 2.9-0.25 5.65l-3.45 0.2q-0.45-1.3 0.2-2.6l1.55-1.75 0.65-1.95-0.45-0.4m5.45 23.65h1.5l1.1 1.1q0.75 3.8-1.3 6.1h-0.25q-2.85-1.2-3.9-3.95v-1.5l2.85-1.75m-12.3-15.8v1.4l-2.5 2.15q-4.2 0.5-7.15-1.8l0.35-0.15q3.8-1.4 8.25-1.25l1.05-0.35" fill="#ebdabe" fill-rule="evenodd"/>
<path d="m89.05 35.65-3.15 5.05-0.05 0.1-5.95-0.85 0.75-3.85 8.4-0.45m4.55 4.75 2.45-3.6 3.65 2.35-4.45 1 0.1-0.1-1.75 0.35" fill="#493216" fill-rule="evenodd"/>
<path d="m120.85 4.35-2.65-4.3h-0.85m-4.35-0.05h-2.6l-14.55 24.45-2.75 4.65-1.1 1.8-2.95 4.75-3.15 5.05m7.7-0.3 2.45-3.6 4.1-6.05 3.15-4.35 1.8-2.55 5.05-4.9 11.7-13-1-1.6m-7.85-4.35 4.35 0.05m-48.8 28.25 0.35-0.2q7.9-4.25 19.1-4.25l7.85 0.6m7.45 1.95q2 0.7 3.8 1.7 7.45 4 7.9 9.55v0.7q0 3.9-3.35 7.1l0.35 0.3 1.5 1.55q8.3 9.35 8.3 22.1 0 5-1.25 9.45-1.65 5.65-5.3 10.5l-3 3.45-0.1 0.05m-0.15 0h-0.25q-4.9 3.35-10.85 5.05l-1.35 0.35q-5.2 1.25-11.2 1.3h-0.65q-13.25-0.2-22.7-6.7h-0.25m-0.15 0q-2.25-2.25-4-4.75-3-4.3-4.4-9.25-1.3-4.45-1.25-9.45-0.05-10.2 5.25-18.15 1.9-2.9 4.55-5.5-3.75-3.3-3.75-7.4 0-0.85 0.15-1.6 0.9-4.85 7.4-8.45m43.1 17.15q-1.8 1.65-4.55 3.15-7.9 4.25-19.1 4.25t-19.1-4.25q-2.4-1.3-4.05-2.75l-0.1-0.1" fill="none" stroke="#3d2c12" stroke-linecap="round" stroke-linejoin="round"/>
</g>
<g id="j">
<path d="m14.4 4.8q0.55-2.3 0.5-4.75 5.15 0.4 8.85 5.3 1.4 1.85 2.35 4-2.4 0.75-4.5 2.05l-0.15 0.1 5.55 0.4q0.85 3.05 0.85 6.6l-0.3 4.2h-1.6q0.65 1.25 0.9 2.95l-0.9 2.3-2.25 0.15v3.55l-0.7 0.9-1.55 0.35 0.1 1.1q-3.35 3-7.6 3-2.6 0-4.8-1.1 0.25-2.1 0.95-4.1l-0.2 0.2q-1.4 1.25-2.2 3.1-1.95-1.3-3.65-3.55-1.85-2.45-2.85-5.4l1.65-1.6-2.1 0.15q-0.75-2.9-0.75-6.2 0-1.85 0.25-3.55l2.6-1.95-0.05-0.15-1.75-1.55q0.5-1.6 1.25-3.05 0.95-0.4 2.05-0.65l-0.15-0.15-0.8-1.15 0.65-0.95q4.1-5.35 9.8-5.35l0.45 4.8h0.1" fill="#ebdabe" fill-rule="evenodd"/>
</g>
<g id="i" transform="translate(-91.95,-84.6)">
<path d="m95.35 85.35-0.7 1.85 2.25 0.7m-4.45-2.8 0.85 2.5-0.5 1.3" fill="none" stroke="#524b38" stroke-linecap="round" stroke-linejoin="round"/>
</g>
<g id="d" transform="translate(12.35,2.95)">
<use transform="translate(-12.35,-2.95)" width="24.75" height="5.9000001" xlink:href="#h"/>
</g>
<g id="h" transform="translate(12.35,2.95)">
<path d="m0-2.95 8.8 0.85q3.6 0.9 3.6 2.1t-3.6 2.05l-8.8 0.9q-5.15 0-8.7-0.9-3.7-0.85-3.65-2.05-0.05-1.2 3.65-2.1l8.7-0.85" fill="#241506" fill-opacity=".33333" fill-rule="evenodd"/>
</g>
<g id="g" transform="translate(15.35,141.35)">
<path d="m4.2-83.6q-2.05 33.4 5.2 49 7.3 15.55 1.6 23.05t-10.05 7.6q-4.35 0.05-10.55-4.25-6.2-4.35-2.3-19.4 15.8-23.35 10.85-60.4l5.25 4.4m0.6 73.25-1.4-1.15 1.4 1.15m-6.05-4.1 1.6 6.3 3.05-3.35-4.65-2.95q-2.4-1.15-4.7-1.65l-0.1-0.05 0.1 0.05q2.3 0.5 4.7 1.65m-9.05-2.05 1.6 5.5 2.65-5.15-4.25-0.35-1.55 0.15 1.55-0.15" fill="#c7c701" fill-rule="evenodd"/>
<path d="m-1.05-88q0.9-20.05-4.45-27.75-5.4-7.75-3.55-14.85 1.8-7.15 5.6-9 3.8-1.9 6.35-0.95 5.55 1.35 9.1 5.55 9.3 10.9-1.35 21.9-2.4 2.45-3.3 6.05-2.8 11.45-3.15 23.45l-5.25-4.4" fill="#8e8d02" fill-rule="evenodd"/>
<path d="m3.4-11.5-3.05 3.35-1.6-6.3 4.65 2.95m-9.45-4.65-2.65 5.15-1.6-5.5 4.25 0.35" fill="#ebeded" fill-rule="evenodd"/>
<path d="m11-11.55q-5.7 7.5-10.05 7.6-4.35 0.05-10.55-4.25-6.2-4.35-2.3-19.4 15.8-23.35 10.85-60.4" fill="none" stroke="#7e7e01" stroke-linecap="round" stroke-linejoin="round"/>
<path d="m3.4-11.5 1.4 1.15m-6.05-4.1q-2.4-1.15-4.7-1.65l-0.1-0.05m-4.25-0.35-1.55 0.15m1.55-0.15 4.25 0.35m4.8 1.7 4.65 2.95" fill="none" stroke="#524b38" stroke-linecap="round" stroke-linejoin="round"/>
<path d="m-1.05-88q0.9-20.05-4.45-27.75-5.4-7.75-3.55-14.85 1.8-7.15 5.6-9 3.8-1.9 6.35-0.95 5.55 1.35 9.1 5.55 9.3 10.9-1.35 21.9-2.4 2.45-3.3 6.05-2.8 11.45-3.15 23.45-2.05 33.4 5.2 49 7.3 15.55 1.6 23.05z" fill="none" stroke="#5f5e01" stroke-linecap="round" stroke-linejoin="round"/>
<path d="m11.8-123.25q-0.9 5.45-5.6 8.7-4.6 3.35-10.1 2.45t-8.85-5.65q-3.25-4.55-2.3-10 0.9-5.55 5.45-8.9 4.7-3.25 10.2-2.3 5.5 0.9 8.75 5.45 3.35 4.7 2.45 10.25m-18.65-6.1q-0.6-1.6-1.9-1.8t-2.5 1.1q-1.05 1.3-1.35 3.25-0.35 1.95 0.2 3.55 0.75 1.6 2.05 1.8t2.35-1.1q1.2-1.3 1.55-3.2 0.25-1.6-0.15-2.95l0.15 0.3q1.1 1.55 3 1.9l3.7-0.2q1.55-0.9 2.2-3 0.3-1.95-0.5-3.75-0.85-1.55-3-2.2-1.9-0.3-3.7 0.5-1.65 1.15-2.2 3-0.3 1.55 0.1 2.8" fill="#c8c7b7" fill-rule="evenodd"/>
<path d="m-6.6-128.7q0.4 1.35 0.15 2.95-0.35 1.9-1.55 3.2-1.05 1.3-2.35 1.1t-2.05-1.8q-0.55-1.6-0.2-3.55 0.3-1.95 1.35-3.25 1.2-1.3 2.5-1.1t1.9 1.8l0.25 0.65" fill-rule="evenodd"/>
<path d="m-6.85-129.35q-0.4-1.25-0.1-2.8 0.55-1.85 2.2-3 1.8-0.8 3.7-0.5 2.15 0.65 3 2.2 0.8 1.8 0.5 3.75-0.65 2.1-2.2 3l-3.7 0.2q-1.9-0.35-3-1.9l-0.15-0.3-0.25-0.65" fill="#fff" fill-rule="evenodd"/>
<path d="m11.8-123.25q-0.9 5.45-5.6 8.7-4.6 3.35-10.1 2.45t-8.85-5.65q-3.25-4.55-2.3-10 0.9-5.55 5.45-8.9 4.7-3.25 10.2-2.3 5.5 0.9 8.75 5.45 3.35 4.7 2.45 10.25z" fill="none" stroke="#4b5140" stroke-linecap="round" stroke-linejoin="round" stroke-width=".25"/>
</g>
<g id="c" transform="translate(49.4,61.75)">
<use transform="matrix(4.7517 0 0 4.7517 -34.343 -61.743)" width="6.5" height="6.5" xlink:href="#a"/>
<use transform="matrix(4.7517 0 0 4.7517 18.457 -45.893)" width="6.5" height="6.5" xlink:href="#a"/>
<use transform="matrix(4.7517,0,0,4.7517,3.3571,-7.3929)" width="6.5" height="6.5" xlink:href="#a"/>
<use transform="matrix(4.7517 0 0 4.7517 -36.543 30.607)" width="6.5" height="6.5" xlink:href="#a"/>
<use transform="matrix(4.7517 0 0 4.7517 -49.393 -7.3929)" width="6.5" height="6.5" xlink:href="#a"/>
<use transform="matrix(4.7517 0 0 4.7517 3.3571 30.907)" width="6.5" height="6.5" xlink:href="#a"/>
</g>
<g id="a" transform="translate(3.25,3.25)">
<use transform="translate(-3.25,-3.25)" width="6.5" height="6.5" xlink:href="#f"/>
</g>
<g id="f" transform="translate(3.25,3.25)">
<path d="m0-0.25q-0.3 0.35-0.8 0.35l-0.85-0.35-0.3-0.8 0.3-0.85 0.85-0.3q0.5 0 0.8 0.3l0.35 0.85q0 0.5-0.35 0.8" fill="#dedede" fill-rule="evenodd"/>
<path d="m0-0.25q0.35-0.3 0.35-0.8l-0.35-0.85q-0.3-0.3-0.8-0.3l-0.85 0.3-0.3 0.85 0.3 0.8 0.85 0.35q0.5 0 0.8-0.35m2.1-1.9q0.9 0.9 0.9 2.15t-0.9 2.1q-0.85 0.9-2.1 0.9t-2.15-0.9q-0.85-0.85-0.85-2.1t0.85-2.15q0.9-0.85 2.15-0.85t2.1 0.85" fill="#dd84be" fill-opacity=".47059" fill-rule="evenodd"/>
<path d="m2.1-2.15q0.9 0.9 0.9 2.15t-0.9 2.1q-0.85 0.9-2.1 0.9t-2.15-0.9q-0.85-0.85-0.85-2.1t0.85-2.15q0.9-0.85 2.15-0.85t2.1 0.85z" fill="none" stroke="#de2c85" stroke-linecap="round" stroke-linejoin="round" stroke-width=".5"/>
</g>
<g id="b" transform="translate(67.55,46.05)">
<use transform="matrix(4.7517 0 0 4.7517 -67.543 -29.393)" width="6.5" height="6.5" xlink:href="#a"/>
<use transform="matrix(4.7517 0 0 4.7517 36.607 -3.6929)" width="6.5" height="6.5" xlink:href="#a"/>
<use transform="matrix(4.7517 0 0 4.7517 -51.093 15.157)" width="6.5" height="6.5" xlink:href="#a"/>
<use transform="matrix(4.7517 0 0 4.7517 -.3929 -46.043)" width="6.5" height="6.5" xlink:href="#a"/>
<use transform="matrix(4.7517 0 0 4.7517 -11.643 5.0071)" width="6.5" height="6.5" xlink:href="#a"/>
<use transform="matrix(4.7517 0 0 4.7517 -42.443 -24.543)" width="6.5" height="6.5" xlink:href="#a"/>
</g>
<g id="e" transform="translate(.5 -2.2)">
<path d="m9.95 85.15q-1.25-0.25-2.1-1.65-0.45-3.25 0.05-6.9l-1.7 0.9-0.15-3.2 0.05-3.05q0.15-2.8 0.75-6 0.9-5.5 2.7-9.75l2.2 5.4-0.15-8.45 0.05-1.35q2.15-3.2 4.1-3.5l2.2 0.7q1.55 1.4 2.2 5.6l0.25 2.5-0.95 2.4 0.4 5 0.45-0.75-0.2 1.9-0.1 0.6-0.2 1.3v0.1l-0.05 0.25-0.1-0.1-0.85 2.7-0.4 2.35 0.4-0.4-0.3 1.2-0.5 1.6q-1.1 3.25-2.55 5.9-2.85 5.15-5.5 4.7" fill="#db8a04" fill-rule="evenodd"/>
<path d="m18 74.55 0.5-1.6 0.3-1.2 1.15-2.4-0.1-1.85-0.15 0.05 0.05-0.35 0.05-0.25v-0.1l0.2-1.3 0.1-0.6 15.25 1.1-0.55 4.15-0.2 1.1-1.1 4.45v0.1l-15.5-1.3" fill="#b87403" fill-rule="evenodd"/>
<path d="m9.55 55.5 0.3-0.8 0.05 0.1 0.35 0.2q1-1 1.35-2.55l0.15 8.45-2.2-5.4m18.6 29.7h-4.6l-0.05-0.6-1.25 0.65-2.45 0.05q-0.35-1.25-1.3-2.05l-0.3 0.05q-0.65 0.8-0.9 1.95l-7.35 0.1v-0.2q2.65 0.45 5.5-4.7 1.45-2.65 2.55-5.9l15.5 1.3q-1.05 3.2-2.45 5.7-1.25 2.3-2.5 3.35l-0.4 0.3" fill="#945e03" fill-rule="evenodd"/>
<path d="m20.1 64.95 0.2-1.9 2-3.5 13.25 3.25v1.2l-0.2 2.05-15.25-1.1" fill="#c47b04" fill-rule="evenodd"/>
<path d="m17.95 48.3 6.9 2.25 0.1 1.75q0.35-0.85 0.9-1.35l2.55 0.8 0.15 1.2 0.6-1 4.2 1.4 0.9 1.35q0.65 1.3 0.9 3.5l0.4 4.6-13.25-3.25 0.35-0.55-1.6-3.95-0.65 1.35-0.25-2.5q-0.65-4.2-2.2-5.6" fill="#ab6b03" fill-rule="evenodd"/>
<path d="m28.55 85.25-0.4-0.05 0.4-0.3v0.35" fill="#5e3402" fill-rule="evenodd"/>
<path d="m18.8 71.75-0.4 0.4 0.4-2.35 0.85-2.7 0.1 0.1-0.05 0.35 0.15-0.05 0.1 1.85-1.15 2.4m1.5-8.7-0.45 0.75-0.4-5 0.95-2.4 0.65-1.35 1.6 3.95-0.35 0.55-2 3.5" fill="#fcc787" fill-rule="evenodd"/>
<path d="m48.1 75.85-0.75 4.05-0.45-0.1-3.45 5.25-14.9 0.2v-0.35q1.25-1.05 2.5-3.35 1.4-2.5 2.45-5.7v-0.1l14.6 0.1" fill="#5e3201" fill-opacity=".85098" fill-rule="evenodd"/>
<path d="m35.15 58.2 0.7-3.1 5.3 1.15 8.05 4.05 0.05 8.95-1.15 6.6-14.6-0.1 1.1-4.45 0.2-1.1 0.55-4.15 0.2-2.05v-1.2l-0.4-4.6" fill="#874802" fill-opacity=".88235" fill-rule="evenodd"/>
<path d="m9.95 85.15q-1.25-0.25-2.1-1.65-0.45-3.25 0.05-6.9l-1.7 0.9-0.15-3.2 0.05-3.05q0.15-2.8 0.75-6 0.9-5.5 2.7-9.75l0.3-0.8 0.05 0.1 0.35 0.2q1-1 1.35-2.55l0.05-1.35q2.15-3.2 4.1-3.5l2.2 0.7 6.9 2.25 0.1 1.75q0.35-0.85 0.9-1.35l2.55 0.8 0.15 1.2 0.6-1 4.2 1.4 0.9 1.35q0.65 1.3 0.9 3.5m-7 27h-4.6l-0.05-0.6-1.25 0.65-2.45 0.05q-0.35-1.25-1.3-2.05l-0.3 0.05q-0.65 0.8-0.9 1.95l-7.35 0.1v-0.2m25.4-19.1 0.2-2.05v-1.2" fill="none" stroke="#630" stroke-linecap="round" stroke-linejoin="round"/>
<path d="m108.75 74.85-0.3 4.2h-1.6q0.65 1.25 0.9 2.95l-0.9 2.3-2.25 0.15v3.55l-0.7 0.9-1.55 0.35 0.1 1.1q-3.35 3-7.6 3-2.6 0-4.8-1.1 0.25-2.1 0.95-4.1l-0.2 0.2q-1.4 1.25-2.2 3.1-1.95-1.3-3.65-3.55-1.85-2.45-2.85-5.4l1.65-1.6-2.1 0.15q-0.75-2.9-0.75-6.2 0-1.85 0.25-3.55 1.2-1.05 2.6-1.95l-0.05-0.15-1.75-1.55q0.5-1.6 1.25-3.05 0.95-0.4 2.05-0.65l-0.15-0.15-0.8-1.15 0.65-0.95q4.1-5.35 9.8-5.35l0.45 4.8h0.1q0.55-2.3 0.5-4.75 5.15 0.4 8.85 5.3 1.4 1.85 2.35 4-2.4 0.75-4.5 2.05l-0.15 0.1 5.55 0.4q0.85 3.05 0.85 6.6z" fill="none" stroke="#90581a" stroke-linecap="round" stroke-linejoin="round" stroke-width=".05"/>
<path d="m85.15 22.75q11.7-8.6 20.15-17.95-26.15 31.3-25.15 32.9l5.3 1.6 7.75 0.4 2.45-2.45 1.65-0.8q2.25 2.8 4.5-4.9l0.25-1q4.3 1.8 4.3 4.25 0 2.7-5.25 4.6-5.2 1.95-12.55 1.95t-12.6-1.95q-5.2-1.9-5.2-4.6t5.2-4.65q2.8-1 11.6-9.9l-2.4 2.5m7.25-3.1 0.3-0.65-0.3-0.7q-0.25-0.25-0.65-0.25t-0.7 0.25q-0.25 0.3-0.25 0.7t0.25 0.65l0.7 0.3 0.65-0.3m-62.25 62.7 0.25-0.5-0.25-0.55-0.5-0.2-0.55 0.2-0.2 0.55 0.2 0.5 0.55 0.25 0.5-0.25m29.65-31.35-5.1 6.35-3.05 3.95-1.9 2.45h-0.05q-0.5 0-0.85 0.3-0.3 0.35-0.3 0.85l0.05 0.4q-8.95 12.05-6.8 11.85l-0.05 0.4q0 1.8 1.25 3.05t4.6-0.25l1-0.5q9.55-0.7 9.1 4.4l-7.3 1.5q-4.8 1.15-9.6 2.75l0.1-0.8q0-1.2-0.9-2.1-0.85-0.85-2.05-0.85t-2.1 0.85q-0.85 0.9-10.35 6.5l-5.55 3.2q-4.8 2.65-6.5 3.3-1.55 0.5 8.2 1.15l18.05 0.9q-4.55 2.4-15.25 2.6l-20.05-1.05 9.6-8.25 0.05-0.05 3.55-3.15-3.55 3.15-0.05 0.05-14 2.25 17.6-5.45 0.2-0.15 0.35-0.3q13.4-12.05 22.8-22.1l4.95-5.45 0.3-0.4q1.5 0.05 13.6-11.35m-3.6 22.7q1.8-1.7 3.95-3.7l0.4-0.45 2.35-2.4-0.3 1.25-2.4 2.55-0.85 1-3.15 1.75m-18 5.7 0.3-0.65-0.3-0.7-0.65-0.25-0.7 0.25q-0.25 0.3-0.25 0.7l0.25 0.65q0.3 0.3 0.7 0.3l0.65-0.3m0.9 0.6q-0.5 0-1 0.45l-9.55 6.4q-9 5.95 0.55 0.7 9.5-5.25 10-5.25t0.8-0.35q0.35-0.3 0.35-0.8t-0.35-0.85q-0.3-0.3-0.8-0.3m21.75-5.8-0.3 0.05-2.15 0.1 2.05-0.95 0.2-0.1-0.15 0.35 0.2 0.45 0.15 0.1m-14.15 9.25q-0.4 0-0.7 0.25-0.25 0.3-0.25 0.7l0.25 0.65q0.3 0.3 0.7 0.3l0.65-0.3 0.3-0.65-0.3-0.7q-0.25-0.25-0.65-0.25" fill="#ff99ca" fill-opacity=".58039" fill-rule="evenodd"/>
<path d="m92.4 19.65-0.65 0.3-0.7-0.3q-0.25-0.25-0.25-0.65t0.25-0.7q0.3-0.25 0.7-0.25t0.65 0.25l0.3 0.7-0.3 0.65m-62.25 62.7-0.5 0.25-0.55-0.25-0.2-0.5 0.2-0.55 0.55-0.2 0.5 0.2 0.25 0.55-0.25 0.5m8.05-2.95-0.65 0.3q-0.4 0-0.7-0.3l-0.25-0.65q0-0.4 0.25-0.7l0.7-0.25 0.65 0.25 0.3 0.7-0.3 0.65m19.1-28.5 0.15 0.4-0.15 0.4-0.4 0.15-0.4-0.15-0.15-0.4q0-0.25 0.15-0.4t0.4-0.15 0.4 0.15m3.35 22.4 0.05-0.1 0.45-0.2h0.1l-0.4 1.2-0.15-0.1-0.2-0.45 0.15-0.35m-13.95 10.15q0.4 0 0.65 0.25l0.3 0.7-0.3 0.65-0.65 0.3q-0.4 0-0.7-0.3l-0.25-0.65q0-0.4 0.25-0.7 0.3-0.25 0.7-0.25" fill="#fff" fill-rule="evenodd"/>
<path d="m59.8 51q-12.1 11.4-13.6 11.35l4.8-5.8q3.55-4.55 6-8.55l2.2-3.85q1.85-3.55 2.75-6.65l0.2-0.85 5.15 6.95q-1 0.5-2.5 2l-4.5 4.85-0.5 0.55m-2.1 33.25q0.45-5.1-9.1-4.4l2.5-1.75 1.2-1 2.9-2.5 1-0.9 3.15-1.75q-1.5 1.7 0.9-0.1h0.05l1.75-1.4 4.6-3.8 3.95-3.65 4.6-4.45 0.35 1-2.15 2.15-5.75 5.25q-0.4 0.35-0.6 1l4.1 0.05h6.3l0.2 2.85-0.95 0.6-5.35 0.9q-3.6 0.55-5.35 1.65-0.75 0.5-1.15 1.15-1.35 1.95-2.7 2.6l2.8 0.95 3.85 1.4 6.6 2.8-12.25 0.6-0.5 0.05-4.95 0.7m5.2-17.1q2.5-2.75 3.75-5 2.2-4 0.65-6.55-2.85-4.65 7.15 0.95l-7.75 7.7-4.1 4.15 0.3-1.25m-2.05 7.05 0.4-1.2h-0.1l-0.45 0.2-0.05 0.1-0.2 0.1-2.05 0.95 2.15-0.1 0.3-0.05m-3.55-23.3q-0.15-0.15-0.4-0.15t-0.4 0.15-0.15 0.4l0.15 0.4 0.4 0.15 0.4-0.15 0.15-0.4-0.15-0.4" fill="#d15791" fill-opacity=".70196" fill-rule="evenodd"/>
<path d="m119.85 2.7-5.4 4.35m-9.4 5.4-9.05 13.75" fill="none" stroke="#6d4b23" stroke-linecap="round" stroke-linejoin="round"/>
<path d="m48.6 79.85-1 0.5q-3.35 1.5-4.6 0.25t-1.25-3.05l0.05-0.4q-2.15 0.2 6.8-11.85l-0.05-0.4q0-0.5 0.3-0.85 0.35-0.3 0.85-0.3h0.05l1.9-2.45 3.05-3.95 5.1-6.35m-13.6 11.35-0.3 0.4-4.95 5.45q-9.4 10.05-22.8 22.1l-0.35 0.3-0.2 0.15-3.55 3.15-0.05 0.05-9.6 8.25 20.05 1.05q10.7-0.2 15.25-2.6l-18.05-0.9q-9.75-0.65-8.2-1.15 1.7-0.65 6.5-3.3l5.55-3.2q9.5-5.6 10.35-6.5 0.9-0.85 2.1-0.85t2.05 0.85q0.9 0.9 0.9 2.1l-0.1 0.8q4.8-1.6 9.6-2.75l7.3-1.5m-9.1-4.4 2.5-1.75 1.2-1 2.9-2.5 1-0.9q1.8-1.7 3.95-3.7l0.4-0.45 2.35-2.4q2.5-2.75 3.75-5 2.2-4 0.65-6.55-2.85-4.65 7.15 0.95l-7.75 7.7-4.1 4.15-2.4 2.55-0.85 1q-1.5 1.7 0.9-0.1h0.05l1.75-1.4 4.6-3.8 3.95-3.65 4.6-4.45 0.35 1-2.15 2.15-5.75 5.25q-0.4 0.35-0.6 1l4.1 0.05h6.3l0.2 2.85-0.95 0.6-5.35 0.9q-3.6 0.55-5.35 1.65-0.75 0.5-1.15 1.15-1.35 1.95-2.7 2.6l2.8 0.95 3.85 1.4 6.6 2.8-12.25 0.6-0.5 0.05-4.95 0.7m-18.6-4.25q0.5 0 0.8 0.3 0.35 0.35 0.35 0.85t-0.35 0.8q-0.3 0.35-0.8 0.35t-10 5.25q-9.55 5.25-0.55-0.7l9.55-6.4q0.5-0.45 1-0.45m7.1-17.65 4.8-5.8q3.55-4.55 6-8.55l2.2-3.85q1.85-3.55 2.75-6.65l0.2-0.85 5.15 6.95q-1 0.5-2.5 2l-4.5 4.85-0.5 0.55m-42.2 39.75-17.6 5.45 14-2.25" fill="none" stroke="#ff3395" stroke-linecap="round" stroke-linejoin="round" stroke-opacity=".43137"/>
<path d="m80.5 31.7-0.3 0.65q-0.25 0.3-0.65 0.3t-0.7-0.3l-0.25-0.65q0-0.4 0.25-0.7l0.7-0.25 0.65 0.25 0.3 0.7" fill="#fff" fill-rule="evenodd"/>
</g>
</defs>
</svg>
