<?xml version="1.0" encoding="UTF-8"?>
<svg version="1.1" viewBox="0 0 154.93 160.75" xmlns="http://www.w3.org/2000/svg" xmlns:cc="http://creativecommons.org/ns#" xmlns:dc="http://purl.org/dc/elements/1.1/" xmlns:rdf="http://www.w3.org/1999/02/22-rdf-syntax-ns#" xmlns:xlink="http://www.w3.org/1999/xlink">
<metadata>
<rdf:RDF>
<cc:Work rdf:about="">
<dc:format>image/svg+xml</dc:format>
<dc:type rdf:resource="http://purl.org/dc/dcmitype/StillImage"/>
</cc:Work>
</rdf:RDF>
</metadata>
<g transform="translate(-57.095 -38.099)">
<use transform="translate(80,56)" width="119" height="142.85001" xlink:href="#b"/>
<use transform="matrix(.6028 0 0 .6028 107.05 91.45)" width="140.95" height="148.25" xlink:href="#a"/>
<use transform="matrix(.6028 0 0 .6028 85.05 95.8)" width="140.95" height="148.25" xlink:href="#a"/>
<use transform="matrix(.5638 .2117 -.2117 .5638 147.5 62.6)" width="140.95" height="148.25" xlink:href="#a"/>
<use transform="matrix(.5638 .2117 -.2117 .5638 125.4 58.95)" width="140.95" height="148.25" xlink:href="#a"/>
<use transform="matrix(.3287 .5043 -.5043 .3287 151.85 55.9)" width="140.95" height="148.25" xlink:href="#a"/>
<use transform="matrix(.3287 .5043 -.5043 .3287 136.2 39.85)" width="140.95" height="148.25" xlink:href="#a"/>
<use transform="matrix(.1303 .587 -.587 .1303 198 74)" width="140.95" height="148.25" xlink:href="#a"/>
<use transform="matrix(.1303 .587 -.587 .1303 189 53.5)" width="140.95" height="148.25" xlink:href="#a"/>
<use transform="matrix(.3287 .5043 -.5043 .3287 140.35 49.65)" width="140.95" height="148.25" xlink:href="#a"/>
<use transform="matrix(.3287 .5043 -.5043 .3287 124.7 33.6)" width="140.95" height="148.25" xlink:href="#a"/>
<use transform="matrix(.1303 .587 -.587 .1303 186.5 67.75)" width="140.95" height="148.25" xlink:href="#a"/>
<use transform="matrix(.1303 .587 -.587 .1303 177.5 47.25)" width="140.95" height="148.25" xlink:href="#a"/>
<use transform="matrix(-.3147 .5122 -.5122 -.3147 164.75 111.9)" width="140.95" height="148.25" xlink:href="#a"/>
<use transform="matrix(-.3147 .5122 -.5122 -.3147 172.55 90.9)" width="140.95" height="148.25" xlink:href="#a"/>
<use transform="matrix(-.4741 .3685 -.3685 -.4741 168.15 161.3)" width="140.95" height="148.25" xlink:href="#a"/>
<use transform="matrix(-.4741 .3685 -.3685 -.4741 182.8 144.35)" width="140.95" height="148.25" xlink:href="#a"/>
<use transform="matrix(.4872 .3524 -.3524 .4872 141.3 41.9)" width="140.95" height="148.25" xlink:href="#a"/>
<use transform="matrix(.4872 .3524 -.3524 .4872 120.95 32.6)" width="140.95" height="148.25" xlink:href="#a"/>
<use transform="matrix(.3319 .5006 -.5006 .3319 190.8 42.3)" width="140.95" height="148.25" xlink:href="#a"/>
<use transform="matrix(.3319 .5006 -.5006 .3319 175.05 26.35)" width="140.95" height="148.25" xlink:href="#a"/>
<use transform="matrix(-.0861 .5948 -.5948 -.0861 195.4 90.05)" width="140.95" height="148.25" xlink:href="#a"/>
<use transform="matrix(-.0861 .5948 -.5948 -.0861 194.3 67.7)" width="140.95" height="148.25" xlink:href="#a"/>
<use transform="matrix(-.2894 .526 -.526 -.2894 218.05 134.05)" width="140.95" height="148.25" xlink:href="#a"/>
<use transform="matrix(-.2894 .526 -.526 -.2894 224.85 112.75)" width="140.95" height="148.25" xlink:href="#a"/>
</g>
<defs>
<g id="b" transform="translate(-35.55,-29.65)">
<path d="m137.1 131.2q-17.4 17.45-42.05 17.45t-42.1-17.45q-17.4-17.4-17.4-42.05t17.4-42.1q17.45-17.4 42.1-17.4t42.05 17.4q17.45 17.45 17.45 42.1t-17.45 42.05" fill="url(#h)" fill-rule="evenodd"/>
<path d="m82.1 172q14.3-42.4 2.3-69.8h8.35q11.75 31.25-4 69.8h-6.65" fill="#990" fill-rule="evenodd"/>
<path d="m82.1 172q14.3-42.4 2.3-69.8h8.35q11.75 31.25-4 69.8" fill="none" stroke="#660" stroke-linecap="round" stroke-linejoin="round"/>
<path d="m109.25 79.9q5.3 5.3 5.3 12.75t-5.3 12.7q-5.25 5.3-12.7 5.3t-12.75-5.3q-5.25-5.25-5.25-12.7t5.25-12.75q5.3-5.25 12.75-5.25t12.7 5.25" fill="#660" fill-rule="evenodd"/>
<path d="m109.25 79.9q5.3 5.3 5.3 12.75t-5.3 12.7q-5.25 5.3-12.7 5.3t-12.75-5.3q-5.25-5.25-5.25-12.7t5.25-12.75q5.3-5.25 12.75-5.25t12.7 5.25z" fill="none" stroke="#330" stroke-linecap="round" stroke-linejoin="round"/>
</g>
<radialGradient id="h" cx="0" cy="0" r="819.2" gradientTransform="matrix(.0731 0 0 .0731 95.05 89.15)" gradientUnits="userSpaceOnUse">
<stop stop-color="#ccc" offset=".51373"/>
<stop stop-color="#fff" offset=".98431"/>
</radialGradient>
<g id="a">
<path d="m61.95 73.95q2.5 0 4.25 1.75t1.75 4.25-1.75 4.25-4.25 1.75-4.25-1.75-1.75-4.25 1.75-4.25 4.25-1.75" fill="#fff" fill-rule="evenodd"/>
<path d="m63.95 0v77h-4v-77h4" fill="url(#g)" fill-rule="evenodd"/>
<path d="m140.95 81h-77v-4h77v4" fill="url(#f)" fill-rule="evenodd"/>
<path d="m100.8 148.25-40.85-65.15 3.35-2.1 40.85 65.15-3.35 2.1" fill="url(#e)" fill-rule="evenodd"/>
<path d="m1.8 125.5 59.65-48.5 2.5 3.1-59.65 48.5-2.5-3.1" fill="url(#d)" fill-rule="evenodd"/>
<path d="m2.45 32.25 60.4 47.4-2.45 3.15-60.4-47.4 2.45-3.15" fill="url(#c)" fill-rule="evenodd"/>
</g>
<linearGradient id="g" x1="-819.2" x2="819.2" gradientTransform="matrix(0 -.0342 .0024 0 61.95 35)" gradientUnits="userSpaceOnUse">
<stop stop-color="#fff" offset="0"/>
<stop stop-color="#fff" stop-opacity="0" offset="1"/>
</linearGradient>
<linearGradient id="f" x1="-819.2" x2="819.2" gradientTransform="matrix(.0342 0 0 .0024 105.95 79)" gradientUnits="userSpaceOnUse">
<stop stop-color="#fff" offset="0"/>
<stop stop-color="#fff" stop-opacity="0" offset="1"/>
</linearGradient>
<linearGradient id="e" x1="-819.2" x2="819.2" gradientTransform="matrix(.0181 .0289 -.0021 .0013 83.95 117.6)" gradientUnits="userSpaceOnUse">
<stop stop-color="#fff" offset="0"/>
<stop stop-color="#fff" stop-opacity="0" offset="1"/>
</linearGradient>
<linearGradient id="d" x1="-819.2" x2="819.2" gradientTransform="matrix(-.0265 .0215 -.0015 -.0019 30.15 105)" gradientUnits="userSpaceOnUse">
<stop stop-color="#fff" offset="0"/>
<stop stop-color="#fff" stop-opacity="0" offset="1"/>
</linearGradient>
<linearGradient id="c" x1="-819.2" x2="819.2" gradientTransform="matrix(-.0268 -.021 .0015 -.0019 28.7 55.35)" gradientUnits="userSpaceOnUse">
<stop stop-color="#fff" offset="0"/>
<stop stop-color="#fff" stop-opacity="0" offset="1"/>
</linearGradient>
</defs>
</svg>
