<?xml version="1.0" encoding="UTF-8"?>
<svg version="1.1" viewBox="0 0 330.35 191.4" xmlns="http://www.w3.org/2000/svg" xmlns:cc="http://creativecommons.org/ns#" xmlns:dc="http://purl.org/dc/elements/1.1/" xmlns:rdf="http://www.w3.org/1999/02/22-rdf-syntax-ns#" xmlns:xlink="http://www.w3.org/1999/xlink">
<metadata>
<rdf:RDF>
<cc:Work rdf:about="">
<dc:format>image/svg+xml</dc:format>
<dc:type rdf:resource="http://purl.org/dc/dcmitype/StillImage"/>
</cc:Work>
</rdf:RDF>
</metadata>
<g transform="translate(-54.5 -158.1)">
<use transform="translate(54.5,158.1)" width="330.35001" height="191.39999" xlink:href="#a"/>
</g>
<defs>
<g id="a" transform="translate(165.15,95.7)">
<use transform="translate(-165.15,-95.7)" width="330.35001" height="191.39999" xlink:href="#b"/>
</g>
<g id="b" transform="translate(165.15,95.7)">
<path d="m164.05-53.9-0.1 0.25q-5.15 1.15-10.7 1.4l-10.75 1.35q-25.55 4.95-48.25 17.25l-5.15 2.85q-2.45 1.4-5.35 1.95l-2.15 0.2q1.65-4.1 4.45-7.8 1.4-1.75-0.15-2.95-12.75 1.8-24.45 7.6l-13.9 7.25q-7.45 4.1-14.6 8.85-4.9 3.3-9.55 6.95l-37.1 12.95q1.45-3.75 1.5-7.95 0.05-2.45-2.05-2.8-5.05 0.85-9.4 4-6.55 4.65-11.75 10.7-2.35 2.8-3.15 6.3-9.95-4.75-12.75-15.6-1.25-4.55-5.75-5.85-7-2-14.3-2.2l0.15-0.05q5.8-2.25 9.55-7 1.55-1.95-0.05-3.7-1.25-1.4-8.25-0.8-4.55 2.7-7.15 8.15-1 2.15-0.05 2.8l1.15 0.7-27.95 4.25q-13.05 2.35-25.5 6.85-7.1 2.55-14.15 4.9l-6.5 2.05 4.1-5.35q8.6-10.7 18.45-20.2 4.3-4.15 9.1-7.8l-1.55 4.75q-0.5 1.85 0.6 3.2l0.85 0.8q2.6 2 5.9 1.35 7.75-1.5 14.95-5 8.95-4.35 17.45-9.5 10.35-6.2 17.5-15.8l0.85-1.45 1.1-0.3 7.15-2.05q23.55 9.05 51.45 0.45l2.05-0.25-1.6 7.55q46.55 0.55 90.4-15.45 6.65-2.45 13.5-0.55l-6.2 4.4 0.35 1.8q7.5 2.85 14.05-1.95 3.55-2.6 4.3-7 0.55-3.1 0.05-6.2l1.5 0.55q3.75 1.3 7.65 2 5.2 0.95 10.2 2.45 3.8 1.15 7.7 1.85 11.5 2.1 22.3 4.85m-290.5 43.1 7.05-5.65-7.05 5.65m246.9-39.5-11.95 4.25 11.95-4.25m-19.05 7.75-10.55 6.35 10.55-6.35m36-14.1-11.25 3.5 11.25-3.5m-198.2 13.5 8.65-3-8.65 3m43.1 18.5q-7.15 1.3-9.65 8.6-0.65 2.1 0.75 3.1 2.45 1.8 5.5 0.8 4.35-1.45 6.55-5.25 1.7-2.9-0.25-5-1.25-1.35-2.9-2.25m-117.2 21.6-8.7 9.95 8.7-9.95" fill="#666637" fill-rule="evenodd"/>
<path d="m114.7-65.6q0.5 3.1-0.05 6.2-0.75 4.4-4.3 7-6.55 4.8-14.05 1.95l-0.35-1.8 6.2-4.4q-6.85-1.9-13.5 0.55-43.85 16-90.4 15.45l1.6-7.55-2.05 0.25q-27.9 8.6-51.45-0.45l19.35-5.85q13-4.05 25-10.15 6.45-3.3 12.6-7 7.45-4.55 14.15-10.1 7.9-6.6 15.4-13.7h0.05q2.2 1.35 4.35 1.85 9.55 2.25 19.3 3.1-15.8 2.8-30.1 10.65-8.25 4.55-15.85 9.95-7.55 5.3-7.05 13.6 0 0.9 2.9 0.9 4.65 0 9.15-1.25 6.25-1.65 12.25-3.95 12.65-4.9 24.5-11.2l4.45-2.5q4 1.7 7.65 2.2l3.55 0.2h3.6q-10.05 5.05-13.6 15.05 7.75 1.65 14.95-3l5.1-3.4 3.25-2.4q0.7-0.5 1.75-0.5 2.35 0.05 4.5-1l3.35-1.3q3.25-0.95 6.4-2.2l3.65-0.45q4.5 0.4 8.6 2.75 2.5 1.45 5.15 2.5m-91.3 56.85q-9.5 7.45-17.7 16.5-1.4 1.55-2.15 3.7l4.8-0.25 9.7-3.05q5.55-2.1 11.3-3.9 8.65-2.65 17.2-5-6.9 2.75-12.7 8.05l-19.2 17.35q-2.85 2.55-5.15 5.55-6.3 8-13.15 15.55-1.75 1.85-3.25 3.85-1.7 2.3-3 4.85-8.05 15.8-13.2 32.85l-0.95 3.65-0.5 2.75-0.4 1.5-3.9-2.65q-6.35-4.6-14.1-6.8l-1.45-0.55q12.25-13.55 17.8-30.15 0.45-1.4 0.45-2.8 0-0.35-0.35-0.7-7 2.15-13.3 7.35-4.95 4.1-10.35 7.7-8.25 5.55-15.75 12.05-1.25 1.05-2.65 0.45l-1.65-0.95q-5-3.75-11.3-5.55-3.7-1-7.25-2.55l-10.65-4.45-2.95-1.2q0.25-2.4 3.35-3.95 2.7-1.4 5.15-3.3 12.45-9.6 19.15-23.65 0.6-1.25-0.55-1.9-3.15-1.85-6.35-0.1l-1.45 0.7q6.8-11.85 6.8-25.05 0-0.4-0.9-0.15-1.95 0.5-3.6 1.8-7.35 5.7-13.95 12.45l-4.9 4.45q-3.4 2.75-7.2 3.8-0.6 0.2-1.25-0.3-3.25-2.45-7.2-2.75l6.3-12.25q3.7-6.75 2.3-13.5-7.1 0.6-11.35 6.7l-6.85 9.35q-3.3 4.35-6.15 9-6.15 9.95-9.05 20.1l-0.25 2.1-0.35 0.45-24-17.65q8.6-13.6 14.55-21.8l6.5-2.05q7.05-2.35 14.15-4.9 12.45-4.5 25.5-6.85l27.95-4.25 4.65-0.1q7.3 0.2 14.3 2.2 4.5 1.3 5.75 5.85 2.8 10.85 12.75 15.6l-0.05 0.4q-0.35 1.9 1.1 2.95 2.45 1.75 5.5 1.45 4-0.4 7.35-2.6 3.7-2.4 6.65-5.75 2.8-3.1 4.3-6.7l37.1-12.95m-50-46.05 11.15-4.5-11.15 4.5m38.05-19.5 9-7.35-9 7.35m-56.4 26.15 9.85-3.65-9.85 3.65m38.35-15.15 8.15-5.5-8.15 5.5m28.3 73.7-8.45 7.7 8.45-7.7m-172.1 6.35-7.05 9.85 7.05-9.85m177.05-101.65 7.75-5.6-7.75 5.6m-52.2 156.65-4.95 12.7 4.95-12.7m11.3-22.6-7.8 13.45 7.8-13.45m18.3-22.55-11.25 13.4 11.25-13.4" fill="#52522e" fill-rule="evenodd"/>
<path d="m163.95-53.65 0.75-0.1-0.65-0.15q-10.8-2.75-22.3-4.85-3.9-0.7-7.7-1.85-5-1.5-10.2-2.45-3.9-0.7-7.65-2l-1.5-0.55m-168.35 17.2-7.15 2.05-1.1 0.3-0.85 1.45q-7.15 9.6-17.5 15.8-8.5 5.15-17.45 9.5-7.2 3.5-14.95 5-3.3 0.65-5.9-1.35l-0.85-0.8m283.35-37.2q-5.15 1.15-10.7 1.4l-10.75 1.35q-25.55 4.95-48.25 17.25l-5.15 2.85q-2.45 1.4-5.35 1.95l-2.15 0.2q1.65-4.1 4.45-7.8 1.4-1.75-0.15-2.95-12.75 1.8-24.45 7.6l-13.9 7.25q-7.45 4.1-14.6 8.85-4.9 3.3-9.55 6.95-9.5 7.45-17.7 16.5-1.4 1.55-2.15 3.7l4.8-0.25 9.7-3.05q5.55-2.1 11.3-3.9 8.65-2.65 17.2-5-6.9 2.75-12.7 8.05l-19.2 17.35q-2.85 2.55-5.15 5.55-6.3 8-13.15 15.55-1.75 1.85-3.25 3.85-1.7 2.3-3 4.85-8.05 15.8-13.2 32.85l-0.95 3.65-0.5 2.75-0.4 1.5-3.9-2.65q-6.35-4.6-14.1-6.8l-1.45-0.55q12.25-13.55 17.8-30.15 0.45-1.4 0.45-2.8 0-0.35-0.35-0.7-7 2.15-13.3 7.35-4.95 4.1-10.35 7.7-8.25 5.55-15.75 12.05-1.25 1.05-2.65 0.45l-1.65-0.95q-5-3.75-11.3-5.55-3.7-1-7.25-2.55l-10.65-4.45-2.95-1.2q0.25-2.4 3.35-3.95 2.7-1.4 5.15-3.3 12.45-9.6 19.15-23.65 0.6-1.25-0.55-1.9-3.15-1.85-6.35-0.1l-1.45 0.7q6.8-11.85 6.8-25.05 0-0.4-0.9-0.15-1.95 0.5-3.6 1.8-7.35 5.7-13.95 12.45l-4.9 4.45q-3.4 2.75-7.2 3.8-0.6 0.2-1.25-0.3-3.25-2.45-7.2-2.75l6.3-12.25q3.7-6.75 2.3-13.5-7.1 0.6-11.35 6.7l-6.85 9.35q-3.3 4.35-6.15 9-6.15 9.95-9.05 20.1l-0.25 2.1v0.7l-0.35-0.25-24-17.65q8.6-13.6 14.55-21.8l4.1-5.35q8.6-10.7 18.45-20.2 4.3-4.15 9.1-7.8l-1.55 4.75q-0.5 1.85 0.6 3.2m65.75-31.95 19.35-5.85q13-4.05 25-10.15 6.45-3.3 12.6-7 7.45-4.55 14.15-10.1 7.9-6.6 15.4-13.7h0.05q2.2 1.35 4.35 1.85 9.55 2.25 19.3 3.1-15.8 2.8-30.1 10.65-8.25 4.55-15.85 9.95-7.55 5.3-7.05 13.6 0 0.9 2.9 0.9 4.65 0 9.15-1.25 6.25-1.65 12.25-3.95 12.65-4.9 24.5-11.2l4.45-2.5q4 1.7 7.65 2.2l3.55 0.2h3.6q-10.05 5.05-13.6 15.05 7.75 1.65 14.95-3l5.1-3.4 3.25-2.4q0.7-0.5 1.75-0.5 2.35 0.05 4.5-1l3.35-1.3q3.25-0.95 6.4-2.2l3.65-0.45q4.5 0.4 8.6 2.75 2.5 1.45 5.15 2.5m-186.05 56.4 0.15-0.05q5.8-2.25 9.55-7 1.55-1.95-0.05-3.7-1.25-1.4-8.25-0.8-4.55 2.7-7.15 8.15-1 2.15-0.05 2.8l1.15 0.7 4.65-0.1m32.8 23.65q0.8-3.5 3.15-6.3 5.2-6.05 11.75-10.7 4.35-3.15 9.4-4 2.1 0.35 2.05 2.8-0.05 4.2-1.5 7.95m-4-28.85q-7.15 1.3-9.65 8.6-0.65 2.1 0.75 3.1 2.45 1.8 5.5 0.8 4.35-1.45 6.55-5.25 1.7-2.9-0.25-5-1.25-1.35-2.9-2.25m-20.85 39.1-0.05 0.4q-0.35 1.9 1.1 2.95 2.45 1.75 5.5 1.45 4-0.4 7.35-2.6 3.7-2.4 6.65-5.75 2.8-3.1 4.3-6.7" fill="none" stroke="#000" stroke-linecap="round" stroke-linejoin="round" stroke-opacity=".4"/>
<path d="m-119.4-16.45-7.05 5.65m252.6-42.35 11.25-3.5m-46.55 20.45 10.55-6.35m7.1-3.5 11.95-4.25m-172.6 4.15-8.65 3m25.7-8.65-9.85 3.65m65.4-33.5-9 7.35m-26.9 15-11.15 4.5m28.15-14-8.15 5.5m-137 70.2 8.7-9.95m-22.55 29.65 7.05-9.85m163.65 1.35 8.45-7.7m-28.9 29.6 11.25-13.4m-26.1 36 7.8-13.45m-16.25 35.3 4.95-12.7m59.95-162.25-7.75 5.6" fill="none" stroke="#b8bb9d" stroke-linecap="round" stroke-linejoin="round"/>
</g>
</defs>
</svg>
