<?xml version="1.0" encoding="UTF-8"?>
<svg version="1.1" viewBox="0 0 59.5 45.984" xmlns="http://www.w3.org/2000/svg" xmlns:cc="http://creativecommons.org/ns#" xmlns:dc="http://purl.org/dc/elements/1.1/" xmlns:rdf="http://www.w3.org/1999/02/22-rdf-syntax-ns#" xmlns:xlink="http://www.w3.org/1999/xlink">
<metadata>
<rdf:RDF>
<cc:Work rdf:about="">
<dc:format>image/svg+xml</dc:format>
<dc:type rdf:resource="http://purl.org/dc/dcmitype/StillImage"/>
</cc:Work>
</rdf:RDF>
</metadata>
<g transform="translate(-295.03 -189.33)">
<use transform="translate(295.05,189.35)" width="59.450001" height="45.950001" xlink:href="#a"/>
</g>
<defs>
<g id="a" transform="translate(-295.05,-189.35)">
<path d="m322.75 204.8 0.15 0.2 0.15 0.3-0.7-2.4q-0.75-2.2-0.8-4.8l0.45 1.1 0.6 1.65q0.5 1.5 1.1 0.9l-0.1 0.25v0.05q-0.55 1.25-0.05 0.35l0.1-0.25q2.15 7.3 2.05 3.45v-5.4l0.15-0.3q0.2 0.35 0.3-0.25l0.4-3.45 0.45 2.5 0.55 2.1 0.1-0.3 0.3-1.5q0.1-0.85 0.45-0.9l0.15 0.6 0.1 0.9 0.05 0.6v-0.9l0.05-2.1v-5.75q-0.1-1.45 0.2-2.1 0 1.85 0.25 3.6 1.25 9.5 4.55 16.2l0.6 1.45 0.15 0.35-0.05 0.1h0.1-0.1l0.05-0.1q1.55-4.65 0.35-12.85h0.7q0.5 7 0.1 12.85l-0.1 0.25 0.05 0.35-0.05-0.35 0.1-0.25-0.05 0.6-0.05 0.3 0.35-0.45 0.05-0.6 0.05-0.05 0.1 0.3 0.3 1.2 0.3-0.3 0.1-0.6 0.3-1.5 0.15 0.3 0.2 0.6 0.25 0.45 0.25 0.15 0.05-0.6 0.05-0.3v-0.3l0.15 0.3 0.05 0.9 0.1 0.9 0.3 2.1 0.25-0.95 0.3-3.25v-0.55h0.1q0.9 4.9 2.1 9.6h0.6l0.4 0.15 1.35 0.45 1.15-2.4q1.95-4.45 2.3-7.05 0.4-2.6 0.5 5.25 0.05 7.8 0.9 7.8 0.65 0 1.15 0.9l-0.9 0.7q-0.85 0.35-1.35 1.7 0.65 0.6 1.4 0.4l0.95-0.25q0.4-0.1 0.3 0.75-1.1-0.1-2.1 0.4-0.15 0.05-0.3 0.2-0.5 0.45-0.4 1.55h3.1l-4.75 0.3-3.45-0.7-1.1-1.3-0.05 0.1q-0.2 0.4 0 0.95l-0.45-0.1-0.5-1.1-0.9-1.95-0.45-1.35v1.35q-0.75-1.05-1.35-2.55v1.8l-0.6-2.1q0.1 0.75-0.15 0.9l-0.35-1.2-0.1-0.4v0.55q-0.1 0.35-0.35-0.3-0.35-1-0.55-2.55l-0.05 1.7-0.4 3.1-0.35-1.05q-0.4-1.8-0.4-0.6l-0.05 0.05-0.8-2.3-0.05 1.05-1-2.1-0.15 1.8-0.9-1.35-0.15 0.9-0.8-1.65-0.1 1.35-1.1-2.9-0.25 2.6-0.75-2.25 0.05 2.7-0.05-0.15q-0.5-0.7-0.7-2.25v2.55l-0.7-1.65v1.05q0.05 1.8-0.2 1.5l-0.3-0.75q-0.65-0.4-1.05-1.5l0.4 2.7-0.4-0.4q-0.85-1.05-0.85 0.4l0.05 0.15q-0.3 0.2-0.55-0.3-0.2-0.25 0.15 0.75l-0.05 0.15-1.5-1.05 0.35 2.35-1.15-0.7-0.75-1.8-0.7 1.8-1.65-3-1.2-2.9-0.5-1.65 3.25 1.2-0.6-3-2.4-1.5-1.7-5.25-0.25-4.1 2 4.45q0.45 1.05 1.1 1.5 0.35 0.25 0.6-0.45 0.2-0.65 0.55 0.2v0.05l0.1 0.3-0.1-0.35-0.2-1.15q-0.15-1.1 0-1.1l0.9 0.1 0.25-0.25-0.2-0.6-0.45-1.55-0.2-0.75q0.9 1.8 2 2.9l1.15 1.1q0.2 0.15 0.4-0.15l0.05-0.55-0.35-2.65 0.1-0.05m12.1 6.75v2.2h0.7v-1.9 1.9h-0.7v-2.2l0.15-0.65-0.35 0.1q0.1-0.2-0.15 0l0.05 0.05v0.05l0.05 0.1 0.25 0.35m-4.1-9.4-0.35 2.1v0.25l0.05 1.1v0.3l0.1 0.3q0.2 1.5 0.8 2.6l0.45 0.75 0.2 0.35 0.3 0.85q0.15 0.9 0.55 1.2h0.1l0.4-0.45 0.25-0.7-0.35-0.9-0.35-0.6-0.05-0.2-0.5-1.2-0.4-1-0.15-0.3-0.4-0.9-0.15-0.45q-0.35-0.9-0.45-2.05l-0.05-1.05m8.8 10.25-0.1-0.6v3.4l-0.05 0.2q-0.3 0.65-0.3 1.5v0.1h0.6l0.5 0.5 0.1 0.7 0.05 0.15 0.15 0.6-0.1-1.2-0.1-0.45-0.5-2.65-0.25-2.25m-5.05-1.45v0.05l-0.05 0.05 0.05-0.05v-0.05m-6.7 16.05q1.05 2.35 3.1 3.7l0.25-0.15 0.45-0.8 0.45-0.95 1.85 2 0.7 0.2 0.9 0.25 0.1 0.3q0 0.45-0.6 0.45l-5.6-0.55-1.05-0.15-3.15 0.3-0.45 0.15-0.9 0.1-6.75 0.2-1.2 0.15-0.35 0.1-0.4 0.2-0.8 0.6q-0.3 0.1-0.6-0.2-0.95-0.75-1.55-1.75l-0.2-0.45-0.1-0.2q-0.4-0.05-0.45 0.35h-0.05q0.1-2.6-0.4-5.2-0.3-1.45-0.95-2.7l-0.6-0.7-2.45-2.3 0.1-0.15q1.9 0.8 3.45 2l1.35 1.45 0.3 0.35-0.05-1.2-0.25-0.95v-0.1l2.15 2.35 0.5 0.6q0.55 0.8 0.7 1.8-0.05 0.15 0.05 0.3 0.25-1.55-0.05-3.05l0.9 1.2 2.5 2.4 2.3 1.55q1.35 0.85 2.6 2 0.5 0.6 1.25 0.6l0.7-0.3 1.05-1.5 1.15-2.3h0.1" fill="#f5eed3" fill-rule="evenodd"/>
<path d="m315.3 207.9 1.7 5.25 2.4 1.5 0.6 3-3.25-1.2 0.5 1.65 1.2 2.9 1.65 3 0.7-1.8 0.75 1.8 1.15 0.7-0.35-2.35 1.5 1.05 0.05-0.15q-0.35-1-0.15-0.75 0.25 0.5 0.55 0.3l-0.05-0.15q0-1.45 0.85-0.4l0.4 0.4-0.4-2.7q0.4 1.1 1.05 1.5l0.3 0.75q0.25 0.3 0.2-1.5v-1.05l0.7 1.65v-2.55q0.2 1.55 0.7 2.25l0.05 0.15-0.05-2.7 0.75 2.25 0.25-2.6 1.1 2.9 0.1-1.35 0.8 1.65 0.15-0.9 0.9 1.35 0.15-1.8 1 2.1 0.05-1.05 0.8 2.3 0.05-0.05q0-1.2 0.4 0.6l0.35 1.05 0.4-3.1 0.05-1.7q0.2 1.55 0.55 2.55 0.25 0.65 0.35 0.3v-0.55l0.1 0.4 0.35 1.2q0.25-0.15 0.15-0.9l0.6 2.1v-1.8q0.6 1.5 1.35 2.55v-1.35l0.45 1.35 0.9 1.95 0.5 1.1 0.45 0.1q-0.2-0.55 0-0.95l0.05-0.1 1.1 1.3 3.45 0.7 4.75-0.3h4.05l-12.3 3.45q-6.7-0.3-13.25 1.65v0.3h-0.05l0.05-0.3-0.05 0.3-7.3 0.1q-8.95 0.4-17.2-3.85l-1-0.55-0.3-1.1 5.35-0.95 1-1.7-14.4-17.1 11.15 7.8 0.05-0.3-0.65-0.15 0.1-7.25 0.1 0.05 0.05 3.3 1.65-11.15q0.4 5.2 1.8 9.65l0.3-3.9 0.15 1.25q0.25 1.8 0.95 2.7l0.45 0.6 0.4-1.25v-0.4l0.05-0.15 0.1 0.4 1.25-10.35 2.5 8.7-0.15-1.65m24.25 4.5 0.25 2.25 0.5 2.65 0.1 0.45 0.1 1.2-0.15-0.6-0.05-0.15-0.1-0.7-0.5-0.5h-0.6v-0.1q0-0.85 0.3-1.5l0.05-0.2v-3.4l0.1 0.6m-8.8-10.25 0.05 1.05q0.1 1.15 0.45 2.05l0.15 0.45 0.4 0.9 0.15 0.3 0.4 1 0.5 1.2 0.05 0.2 0.35 0.6 0.35 0.9-0.25 0.7-0.4 0.45h-0.1q-0.4-0.3-0.55-1.2l-0.3-0.85-0.2-0.35-0.45-0.75q-0.6-1.1-0.8-2.6l-0.1-0.3v-0.3l-0.05-1.1v-0.25l0.35-2.1m-19.3 28.7q0.05-0.4 0.45-0.35l0.1 0.2 0.2 0.45q0.6 1 1.55 1.75 0.3 0.3 0.6 0.2l0.8-0.6 0.4-0.2 0.35-0.1 1.2-0.15 6.75-0.2 0.9-0.1 0.45-0.15 3.15-0.3 1.05 0.15 5.6 0.55q0.6 0 0.6-0.45l-0.1-0.3-0.9-0.25-0.7-0.2-1.85-2-0.45 0.95-0.45 0.8-0.25 0.15q-2.05-1.35-3.1-3.7h-0.1l-1.15 2.3-1.05 1.5-0.7 0.3q-0.75 0-1.25-0.6-1.25-1.15-2.6-2l-2.3-1.55-2.5-2.4-0.9-1.2q0.3 1.5 0.05 3.05-0.1-0.15-0.05-0.3-0.15-1-0.7-1.8l-0.5-0.6-2.15-2.35v0.1l0.25 0.95 0.05 1.2-0.3-0.35-1.35-1.45q-1.55-1.2-3.45-2l-0.7-0.45 0.6 0.6-0.6-0.6 0.7 0.45-0.1 0.15 2.45 2.3 0.6 0.7q0.65 1.25 0.95 2.7 0.5 2.6 0.4 5.2v0.4l0.05-0.4-0.05 0.4v-0.4h0.05m-0.9-11.05q0.85 0.5 1.35 1.55-0.5-1.05-1.35-1.55m17.25 7.2-0.05-0.15-0.05 0.15 0.05-0.15 0.05 0.15m-12.55-3.65-0.75-1.4-0.15-0.5 0.15 0.5 0.75 1.4" fill="#fffdea" fill-rule="evenodd"/>
<path d="m334.5 210.95-0.15-0.35-0.6-1.45q-3.3-6.7-4.55-16.2-0.25-1.75-0.25-3.6-0.3 0.65-0.2 2.1v5.75l-0.05 2.1v0.9l-0.05-0.6-0.1-0.9-0.15-0.6q-0.35 0.05-0.45 0.9l-0.3 1.5-0.1 0.3-0.55-2.1-0.45-2.5-0.4 3.45q-0.1 0.6-0.3 0.25l-0.15 0.3v5.4q0.1 3.85-2.05-3.45l-0.1 0.25q-0.5 0.9 0.05-0.35v-0.05l0.1-0.25q-0.6 0.6-1.1-0.9l-0.6-1.65-0.45-1.1q0.05 2.6 0.8 4.8l0.7 2.4-0.15-0.3-0.15-0.2-0.15-0.1 0.05 0.15 0.35 2.65-0.05 0.55q-0.2 0.3-0.4 0.15l-1.15-1.1q-1.1-1.1-2-2.9l0.2 0.75 0.45 1.55 0.2 0.6-0.25 0.25-0.9-0.1q-0.15 0 0 1.1l0.2 1.15 0.1 0.35-0.1-0.3v-0.05q-0.35-0.85-0.55-0.2-0.25 0.7-0.6 0.45-0.65-0.45-1.1-1.5l-2-4.45 0.25 4.1m35.15 21.85h-3.1q-0.1-1.1 0.4-1.55 0.15-0.15 0.3-0.2 1-0.5 2.1-0.4 0.1-0.85-0.3-0.75l-0.95 0.25q-0.75 0.2-1.4-0.4 0.5-1.35 1.35-1.7l0.9-0.7q-0.5-0.9-1.15-0.9-0.85 0-0.9-7.8-0.1-7.85-0.5-5.25-0.35 2.6-2.3 7.05l-1.15 2.4-1.35-0.45-0.4-0.15h-0.6q-1.2-4.7-2.1-9.6l-0.1-0.8v1.35l-0.3 3.25-0.25 0.95-0.3-2.1-0.1-0.9-0.05-0.9-0.15-0.3v0.3l-0.05 0.3-0.05 0.6-0.25-0.15-0.25-0.45-0.2-0.6-0.15-0.3-0.3 1.5-0.1 0.6-0.3 0.3-0.3-1.2-0.15-0.45v0.2l-0.05 0.6-0.35 0.45 0.05-0.3-0.05-0.35 0.1-0.25 0.15 0.3 0.1 0.15m-1.05 0.15-0.25-0.35-0.05-0.1v-0.05h-0.1l0.05-0.1q1.55-4.65 0.35-12.85h0.7q0.5 7 0.1 12.85m3.55-2.15v-1.05m-3.6 3.8 0.05-0.6m-1 0.05-0.1 0.1m0-0.05 0.1-0.05q0.1-0.2-0.15 0l0.05 0.05m-0.1 0 0.05-0.05v-0.05m0.15 0.05 0.35-0.1-0.15 0.65m-5.95 23.6h0.05m0-0.3-0.05 0.3-7.3 0.1q-8.95 0.4-17.2-3.85l-1-0.55-0.3-1.1 5.35-0.95 1-1.7-14.4-17.1 11.15 7.8 0.05-0.3-0.65-0.15 0.1-7.25 0.1-0.55v0.6l0.05 3.3 1.65-11.15q0.4 5.2 1.8 9.65l0.3-3.9 0.15 1.25q0.25 1.8 0.95 2.7l0.45 0.6 0.4-1.25v-0.4l0.05-0.15 0.1 0.4 1.25-10.35v-0.65 0.65l2.5 8.7-0.15-1.65m13.65 26.95q6.55-1.95 13.25-1.65l12.3-3.45h-4.05m-31.05-25.55-0.45-0.7m4.65-1.45 0.05 0.1q0.35-0.75 0.1-0.45l-0.05 0.05" fill="none" stroke="#600" stroke-linecap="round" stroke-linejoin="round" stroke-opacity=".6902" stroke-width=".05"/>
<path d="m335.55 211.85v1.9h-0.7v-2.2" fill="none" stroke="#f5eed3" stroke-linecap="round" stroke-linejoin="round"/>
<path d="m330.75 202.15-0.35 2.1v0.25l0.05 1.1v0.3l0.1 0.3q0.2 1.5 0.8 2.6l0.45 0.75 0.2 0.35 0.3 0.85q0.15 0.9 0.55 1.2h0.1l0.4-0.45 0.25-0.7-0.35-0.9-0.35-0.6-0.05-0.2-0.5-1.2-0.4-1-0.15-0.3-0.4-0.9-0.15-0.45q-0.35-0.9-0.45-2.05l-0.05-1.05m8.8 10.25-0.1-0.6v3.4l-0.05 0.2q-0.3 0.65-0.3 1.5v0.1h0.6l0.5 0.5 0.1 0.7 0.05 0.15 0.15 0.6-0.1-1.2-0.1-0.45-0.5-2.65-0.25-2.25" fill="none" stroke="#fffdea" stroke-linecap="round" stroke-linejoin="round" stroke-width=".05"/>
<path d="m311.45 230.85-0.05 0.4v-0.4m-4.4-10.9-0.6-0.6 0.7 0.45m4.8 1.65v-0.1q-0.5-1.05-1.35-1.55m17.15 7.2 0.05-0.15 0.05 0.15m-13.45-5.55 0.15 0.5 0.75 1.4" fill="none" stroke="#d9cebf" stroke-linecap="round" stroke-linejoin="round" stroke-width=".05"/>
</g>
</defs>
</svg>
