<?xml version="1.0" encoding="UTF-8"?>
<svg version="1.1" viewBox="0 0 113.7 70.45" xmlns="http://www.w3.org/2000/svg" xmlns:cc="http://creativecommons.org/ns#" xmlns:dc="http://purl.org/dc/elements/1.1/" xmlns:rdf="http://www.w3.org/1999/02/22-rdf-syntax-ns#" xmlns:xlink="http://www.w3.org/1999/xlink">
<metadata>
<rdf:RDF>
<cc:Work rdf:about="">
<dc:format>image/svg+xml</dc:format>
<dc:type rdf:resource="http://purl.org/dc/dcmitype/StillImage"/>
</cc:Work>
</rdf:RDF>
</metadata>
<g transform="translate(-351.2,-59.9)">
<use transform="translate(351.2,59.9)" width="113.7" height="70.449997" xlink:href="#a"/>
</g>
<defs>
<g id="a" transform="translate(4,4)">
<use transform="translate(-4,-4)" width="113.7" height="70.449997" xlink:href="#b"/>
</g>
<g id="b" transform="translate(4,4)">
<path d="m91.85 33.65-1.05 0.1q-15.3 1.4-29.45-11.85-6.2-6.7-11.5-11.85-10.3-10.05-13.85-10.05-5.75 0-7.95 2.75l-0.4 0.7q-3.1 4.85-7.5 9.9l-0.25 0.35 0.85 0.15h0.85q3.5-0.25 6.15-2.6m63.05 22.5 2.35-2.1q1.2-1.2 3.7-1.2 5.2 0 7.2 2.7 1.65 2.2 1.65 7.2 0 2.55-1.5 3.85l-3.35 1.8q-4.35 2.15-4.8 8.2l-0.05 1.35q0 6.9-9.05 6.9-1.5 0-2.6-1.5l-1.9-3.3q-2.95-4.8-9.6-4.8l-53.05 2.15q-14.2-1.15-17.6-7.3l-0.75-1.6q-0.95-2.55-1.25-6.35-0.2-2.55-0.2-11.45 0-16 10.9-16 2.05 0 9 1.4m33.15 28.2 0.2 0.2m11.05-9.35 0.75 0.15" fill="none" stroke="#f4ffdb" stroke-linecap="round" stroke-linejoin="round" stroke-width="8"/>
<path d="m27.65 3.45q3.95-2.4 6.05-2.4 2 0 3.4 1.6 1.45 1.6 1.45 3.95 0 1.8-1.45 1.8l-5.8-0.75q-0.75 0-4.35 2.8-3.7 2.9-5.35 3.4h-0.85l-0.6-0.5q4.4-5.05 7.5-9.9" fill="url(#f)" fill-rule="evenodd"/>
<path d="m21.6 13.85q1.65-0.5 5.35-3.4 3.6-2.8 4.35-2.8l5.8 0.75q1.45 0 1.45-1.8 0-2.35-1.45-3.95-1.4-1.6-3.4-1.6-2.1 0-6.05 2.4l0.4-0.7q2.2-2.75 7.95-2.75 3.55 0 13.85 10.05 5.3 5.15 11.5 11.85 14.15 13.25 29.45 11.85l2.35-2.1q1.2-1.2 3.7-1.2 5.2 0 7.2 2.7 1.65 2.2 1.65 7.2 0 2.55-1.5 3.85l-3.35 1.8q-4.35 2.15-4.8 8.2-1.1-3.05-5.75-5.55-5.2-2.8-10.5-3.05h-0.25l-0.85 0.05-1.5 0.25-2.75 0.25q-3.4 0-14.3-7.15-10.85-7.05-13.35-10.75-6.85-10-14.25-10-4.7 1.25-8.7 1.25l-7.6-0.9q-3.45-0.9-6.2-0.9-4.65 0-6.95 5.55-1.8 4.35-1.8 10.75 0 2.65 0.75 5.1l0.7 3.2q0 1.15-1.05 3.25l-0.25 0.55q-0.95-2.55-1.25-6.35-0.2-2.55-0.2-11.45 0-16 10.9-16 2.05 0 9 1.4l0.85 0.15h0.85q3.5-0.25 6.15-2.6-2.65 2.35-6.15 2.6m42.7 18.9 0.05-0.2q-5.75-3.05-14.55-13.1-7.7-8.75-9.75-8.75-1.45 0-2.4 2.05 4.3 1.1 7.45 3.85 2 1.7 5.3 6.1 3.15 4.25 5.5 6.1 3.4 2.75 8.1 3.9l0.3 0.05 0.75 0.15-0.75-0.15m30 1.35q-0.65 0.25-1.15 0.95l0.25 0.1q-11.35 2.3-11.35 4.1 0 1.35 6.05 1.8l5.75 0.3 0.3-0.15q3.85 0.15 6.25-1.25l0.65 0.85q0.9-1.25 0.9-1.7 0-1.9-2-3.85-1.85-1.8-3.3-1.8l-1.8 0.3q-0.35 0.15-0.55 0.35m-2.45-0.45-1.05 0.1 1.05-0.1" fill="#fffff7" fill-rule="evenodd"/>
<path d="m64.3 32.75-0.3-0.05q-4.7-1.15-8.1-3.9-2.35-1.85-5.5-6.1-3.3-4.4-5.3-6.1-3.15-2.75-7.45-3.85 0.95-2.05 2.4-2.05 2.05 0 9.75 8.75 8.8 10.05 14.55 13.1l-0.05 0.2" fill="url(#e)" fill-rule="evenodd"/>
<path d="m96.05 54.2-0.05 1.35q0 6.9-9.05 6.9-1.5 0-2.6-1.5l-1.9-3.3q-2.95-4.8-9.6-4.8l-53.05 2.15q-14.2-1.15-17.6-7.3l-0.75-1.6 0.25-0.55q1.05-2.1 1.05-3.25l-0.7-3.2q-0.75-2.45-0.75-5.1 0-6.4 1.8-10.75 2.3-5.55 6.95-5.55 2.75 0 6.2 0.9l7.6 0.9q4 0 8.7-1.25 7.4 0 14.25 10 2.5 3.7 13.35 10.75 10.9 7.15 14.3 7.15l2.75-0.25 1.5-0.25 0.85-0.05h0.25q5.3 0.25 10.5 3.05 4.65 2.5 5.75 5.55m-42.8-12.1-0.2-0.2 0.2 0.2" fill="url(#d)" fill-rule="evenodd"/>
<path d="m94.3 34.1q0.2-0.2 0.55-0.35l1.8-0.3q1.45 0 3.3 1.8 2 1.95 2 3.85 0 0.45-0.9 1.7l-0.65-0.85q-2.4 1.4-6.25 1.25l-0.3 0.15-5.75-0.3q-6.05-0.45-6.05-1.8 0-1.8 11.35-4.1l-0.25-0.1q0.5-0.7 1.15-0.95" fill="url(#c)" fill-rule="evenodd"/>
<path d="m27.65 3.45q-3.1 4.85-7.5 9.9m0.6 0.5h0.85q3.5-0.25 6.15-2.6m-0.1-7.8 0.4-0.7q2.2-2.75 7.95-2.75 3.55 0 13.85 10.05 5.3 5.15 11.5 11.85 14.15 13.25 29.45 11.85l2.35-2.1q1.2-1.2 3.7-1.2 5.2 0 7.2 2.7 1.65 2.2 1.65 7.2 0 2.55-1.5 3.85l-3.35 1.8q-4.35 2.15-4.8 8.2l-0.05 1.35q0 6.9-9.05 6.9-1.5 0-2.6-1.5l-1.9-3.3q-2.95-4.8-9.6-4.8l-53.05 2.15q-14.2-1.15-17.6-7.3l-0.75-1.6q-0.95-2.55-1.25-6.35-0.2-2.55-0.2-11.45 0-16 10.9-16 2.05 0 9 1.4l0.25-0.35m44.15 19.4 0.75 0.15m-45.15-19.2 0.85 0.15m32.3 28.05 0.2 0.2m37.55-8.35 1.05-0.1" fill="none" stroke="#5a924b" stroke-linecap="round" stroke-linejoin="round" stroke-opacity=".36078" stroke-width=".05"/>
</g>
<linearGradient id="f" x1="-819.2" x2="819.2" gradientTransform="matrix(.0112 0 0 .0078 29.35 7.45)" gradientUnits="userSpaceOnUse">
<stop stop-color="#e4f9d4" offset="0"/>
<stop stop-color="#c7ebad" offset="1"/>
</linearGradient>
<linearGradient id="e" x1="-819.2" x2="819.2" gradientTransform="matrix(.0163 0 0 .0135 51 21.7)" gradientUnits="userSpaceOnUse">
<stop stop-color="#e4f9d4" offset="0"/>
<stop stop-color="#c7ebad" offset="1"/>
</linearGradient>
<linearGradient id="d" x1="-819.2" x2="819.2" gradientTransform="matrix(.0578 0 0 .0273 48.65 40.05)" gradientUnits="userSpaceOnUse">
<stop stop-color="#e4f9d4" offset="0"/>
<stop stop-color="#c7ebad" offset="1"/>
</linearGradient>
<linearGradient id="c" x1="-819.2" x2="819.2" gradientTransform="matrix(.0121 0 0 .0048 92 37.4)" gradientUnits="userSpaceOnUse">
<stop stop-color="#e4f9d4" offset="0"/>
<stop stop-color="#c7ebad" offset="1"/>
</linearGradient>
</defs>
</svg>
