<?xml version="1.0" encoding="UTF-8"?>
<svg version="1.1" viewBox="0 0 54.504 53.251" xmlns="http://www.w3.org/2000/svg" xmlns:cc="http://creativecommons.org/ns#" xmlns:dc="http://purl.org/dc/elements/1.1/" xmlns:rdf="http://www.w3.org/1999/02/22-rdf-syntax-ns#" xmlns:xlink="http://www.w3.org/1999/xlink">
<metadata>
<rdf:RDF>
<cc:Work rdf:about="">
<dc:format>image/svg+xml</dc:format>
<dc:type rdf:resource="http://purl.org/dc/dcmitype/StillImage"/>
</cc:Work>
</rdf:RDF>
</metadata>
<g transform="translate(-373.02 -273.98)">
<use transform="translate(373,273.65)" width="54.5" height="53.599998" xlink:href="#a"/>
<use transform="translate(391.35,295.05)" width="22" height="24.35" xlink:href="#b"/>
</g>
<defs>
<g id="a" transform="translate(28.95,29.6)">
<use transform="translate(-28.95,-29.6)" width="54.5" height="53.599998" xlink:href="#c"/>
</g>
<g id="c" transform="translate(28.95,29.6)">
<path d="m12.1-14.05 0.75 1.5-0.15 0.15-0.3 0.1-1.2 0.35-0.3-0.5 0.05-0.1q1-0.7 1.15-1.5m1.35 2.2q2.05 1.1 2.7 3.2l-1.35 0.55-0.9 0.3-0.6-0.1-1.2-2.45v-0.05l0.1-0.2 1.25-1.25m3.1 3.6v0.05l0.5 0.65h0.05q1.35-0.65 3.35-0.9 2.05-0.15 1.35 1.45l-3.3 2.35-0.15 0.25q-0.35 0.55 0.05 1.7l1.2 2.75h-0.05l-0.95-0.55-0.8-0.3-1 0.7-1.9-4.4 0.6-0.8q-0.55-0.3-0.7-0.7-0.2-0.55 0.7-1.35l1.05-0.9m4.85 3.75q2.35 1.15 4.1 3.45v0.05l-0.75-0.35-0.7-0.3-2.55-1.3q-0.25-0.8-0.1-1.55m-10.4-11.85 0.2 0.45 0.1 0.25-0.3 0.2-0.3 0.05-0.35-0.1-0.15-0.05-0.3-0.2v-0.05q-0.15-0.45 0.35-0.6l0.75 0.05m-5.15 3.05v-0.1q0-0.45 0.6-0.7l1.3-0.5h0.15l0.05-0.05h0.45l0.65 0.5q0.25 0.65-0.8 1.15l-0.65 0.25-0.95 0.1q-0.65-0.05-0.8-0.45v-0.2m-5.7 0.3 1.65 0.05q0.95 0.15 1.3 0.45l0.15 0.2 0.1 0.25q0 0.45-0.6 0.65l-0.8 0.15-0.75-0.05q-1.2 0-1.35-0.5l0.05-0.35v-0.2l-0.05-0.3 0.3-0.35m16.95 5.45-1.6 2.25 1.6-2.25m-26-7.05v-0.1l-0.05-0.25v-0.05l0.4-0.4q1.2 0.35 1.35 0.8v0.4l-0.2 0.15h-0.6q-0.65-0.15-0.9-0.55m2.95 1.8-0.2-0.05-0.05-0.05 0.55-0.65 0.65-0.05 0.65 0.05 1.05 0.35 0.3 0.45q0.15 0.45-0.3 0.6l-1.3-0.15-1.25-0.5h-0.1" fill="#e0b359" fill-rule="evenodd"/>
<path d="m9.7-17h0.65l0.85 0.55 0.7 1.2q0.3 0.6 0.2 1.2-0.15 0.8-1.15 1.5l-0.05 0.1-0.3 0.45-1.15 0.75q-1.45 0.8-3.4 1.2l-1.35 0.3q0.5-1.85-0.25-2.9l-0.1-0.1-0.9-0.65 0.9 0.65 0.1 0.1q0.75 1.05 0.25 2.9l-5.95 0.2q-5.25 0.35-5.95-0.7l-0.9-0.95q0.15-1.45 1.05-2.4l0.4-0.45 1-0.65 0.25-0.1-0.25 0.1-1 0.65-0.4 0.45q-0.9 0.95-1.05 2.4l-0.7-0.45q-1.25-1.05-0.85-2.6l0.2-0.55 1-1.65 1.6 0.95 1.45 0.7q1.8-0.45 4.1 1.3l4.75 0.1 1.9-1.15 2.2-0.55 0.55-0.05 0.3-0.05 0.5 0.05 0.65 0.15q1.5 0.4 1.4 2.45 0.1-2.05-1.4-2.45l-0.65-0.15-0.5-0.05-0.3 0.05-0.55 0.05 0.7-0.5 1.35-1.4h0.1m3.15 4.45 0.6 0.7-1.25 1.25-0.1 0.2-0.25-0.45-0.65-1.1 1.2-0.35 0.3-0.1 0.15-0.15m3.3 3.9 0.4 0.4-1.05 0.9q-0.9 0.8-0.7 1.35 0.15 0.4 0.7 0.7l-0.6 0.8-1-2.1-0.45-0.95-0.15-0.35 0.6 0.1 0.9-0.3 1.35-0.55m5.65 1.65-0.4 2.5q-0.15 0.75 0.1 1.55l2.55 1.3 0.7 0.3 0.75 0.35v-0.05l0.05 0.05h-0.05q-2.45 1.45-4.85 1.25l0.3 4q-1.9-0.95-3.15-2.75l-0.3 0.15-0.45-1.1-0.25-0.65 1-0.7 0.8 0.3 0.95 0.55h0.05l-1.2-2.75q-0.4-1.15-0.05-1.7l0.15-0.25 3.3-2.35m-10.8-9.35-0.75-0.05q-0.5 0.15-0.35 0.6v0.05l0.3 0.2 0.15 0.05 0.35 0.1 0.3-0.05 0.3-0.2-0.1-0.25-0.2-0.45m-10.85 3.35-0.3 0.35 0.05 0.3v0.2l-0.05 0.35q0.15 0.5 1.35 0.5l0.75 0.05 0.8-0.15q0.6-0.2 0.6-0.65l-0.1-0.25-0.15-0.2q-0.35-0.3-1.3-0.45l-1.65-0.05m5.7-0.3v0.2q0.15 0.4 0.8 0.45l0.95-0.1 0.65-0.25q1.05-0.5 0.8-1.15l-0.65-0.5h-0.45l-0.05 0.05h-0.15l-1.3 0.5q-0.6 0.25-0.6 0.7v0.1m10.4 4.75-2.35 1.95 2.35-1.95m-4.4-2.3 0.85-1.55-0.85 1.55m-20.75-3.75q0.25 0.4 0.9 0.55h0.6l0.2-0.15v-0.4q-0.15-0.45-1.35-0.8l-0.4 0.4v0.05l0.05 0.25v0.1m2.95 1.8h0.1l1.25 0.5 1.3 0.15q0.45-0.15 0.3-0.6l-0.3-0.45-1.05-0.35-0.65-0.05-0.65 0.05-0.55 0.65 0.05 0.05 0.2 0.05m4.65-0.7-0.3 0.5-0.1 0.25q-0.6 1.6 0.45 3.2-1.05-1.6-0.45-3.2l0.1-0.25 0.3-0.5" fill="#9c7c3e" fill-rule="evenodd"/>
<path d="m12.65-25.1q0.2 0.7-0.25 1.4l-1.2 3.2-0.3 0.65-1.2 2.85h-0.1l-1.35 1.4 0.9-2.35q1.15-3.2 1.4-4.8v-0.05l2.1-2.3m-2.2 2.35 0.1-0.05v0.05h-0.1m-9 0.25 0.45-0.25-0.25 0.4-0.2-0.15m8 11.25 1.15-0.75 0.3-0.45 0.3 0.5 0.65 1.1 0.25 0.45v0.05h-0.05l-0.35 0.05h-0.2l-1.15 0.05-0.25 0.1-0.65-1.1" fill="#634521" fill-rule="evenodd"/>
<path d="m19.1 11.7-0.35 2.35 0.4 0.25-0.75 0.05-1.1 0.2q-0.85 0.2-0.85 0.65 0.1 0.55 1.05 0.75l1.6 0.2 0.95-0.3 0.1 0.35q0.3 3.15-3.8 1.35-11.35 1.8-16.2 1.8-4.7-0.05-10.25-2.95-6.05-3.1-7.3-6.75l-0.95-2.15 0.05 0.05q0.55 0.45-0.2-0.35 2.15 2.2 5.25 4.35 5.75 4.25 11.35 4.35 5.55-0.05 7.1-1.3t3.1-1.9q1.6-0.7 3.65-0.5l2.85-0.05q0.7-0.45 2.3-1.1l0.2 0.1q0.3 0 0.85 0.3l0.95 0.25m-31.25-21.5 3.35-1.85 0.7 0.45 0.9 0.95q0.7 1.05 5.95 0.7l5.95-0.2 1.35-0.3q1.95-0.4 3.4-1.2l0.65 1.1-0.55 0.2-0.2 0.2-0.45 0.85-2.35 1.5q-2 1.2-5.2 1.5-3.25 0.3-9.05-1.95-1.8-0.65-4.45-1.95m5.3-5.7-1.8-1.85-1.25-1.35q-2.05-2.15-2.75-3.4 6.5 3.1 8.75 3.6 3.95 0.9 9.65-1.1 2.4-0.85 4.7-3.15h0.1q-0.25 1.6-1.4 4.8l-0.9 2.35-0.7 0.5-2.2 0.55-1.9 1.15-4.75-0.1q-2.3-1.75-4.1-1.3l-1.45-0.7m12.55-7.05-1.3 0.75q-1.8 0.85-3.6 0.65l-1.05-0.05-5.35-0.95q-3.05-0.65-3.75-2-0.65-1.35 0.75-2.15l0.7-0.3-0.35 0.65 0.05 0.9q0.55 1.65 4.55 2.45l4.15 0.45 0.95-0.35 0.2 0.15-0.85 1.2 0.85-1.2 0.25-0.4 0.55-0.5q0.3 0.85 1.85 0.85l1.4-0.15m11.6 37.1q0.2-1.6 0-3.4 0.2 1.8 0 3.4" fill="#705739" fill-rule="evenodd"/>
<path d="m1.9-22.75 0.4-0.6 0.15 0.1-0.55 0.5m15.2 33.8h0.2v0.1l-0.2-0.1" fill="#8c622f" fill-rule="evenodd"/>
<path d="m-12.65-22.1q-0.6-0.9-0.6-1.3 0-1.15 2.1-3l3.85-2.75 4.7-0.1 5.25 1.5 1.35 0.25 2.9-0.3 3-0.3q1.25 0.3 2.25 1.65l0.5 1.35-2.1 2.3-0.1 0.05q-2.3 2.3-4.7 3.15-5.7 2-9.65 1.1-2.25-0.5-8.75-3.6m30.15 23.75q1.05 2.75 1.55 6.4 0.2 1.55 0.05 3.65l-0.95-0.25q-0.55-0.3-0.85-0.3v-0.1q-0.4-4.05-2.05-8.95l-0.3-0.95-1.15-3.05-1.7-3.95-0.6-1.3-0.8-1.7-0.05-0.1-0.55-1.2 0.25-0.1 1.15-0.05h0.2l0.35-0.05h0.05l1.2 2.45 0.15 0.35 0.45 0.95 1 2.1 1.9 4.4 0.25 0.65 0.45 1.1m1.65 12.65 0.35 0.35q0.45 0.45 0.55 1.2l-0.95 0.3-1.6-0.2q-0.95-0.2-1.05-0.75 0-0.45 0.85-0.65l1.1-0.2 0.75-0.05m-37.5-6.8q-0.5-0.6-0.75-3.2-0.25-2.8 2.35-7.85 2.55-5.1 4.6-6.25 2.65 1.3 4.45 1.95 5.8 2.25 9.05 1.95 3.2-0.3 5.2-1.5l2.35-1.5 0.45-0.85 0.2-0.2 0.55-0.2 0.55 1.2 0.05 0.1 0.8 1.7 0.6 1.3 1.7 3.95 1.15 3.05 0.3 0.95q1.65 4.9 2.05 8.95h-0.2q-1.6 0.65-2.3 1.1l-2.85 0.05q-2.05-0.2-3.65 0.5-1.55 0.65-3.1 1.9t-7.1 1.3q-5.6-0.1-11.35-4.35-3.1-2.15-5.25-4.35l0.15 0.3-0.15-0.3q0.75 0.8 0.2 0.35l-0.05-0.05m24.05-30.05 1.65-1.45 2.2-0.5 0.6 0.3q0.45 0.25 0.4 1.4 0.05-1.15-0.4-1.4l-0.6-0.3-2.2 0.5-1.65 1.45-1.4 0.15q-1.55 0-1.85-0.85l-0.15-0.1-0.4 0.6-0.45 0.25-0.95 0.35-4.15-0.45q-4-0.8-4.55-2.45l-0.05-0.9 0.35-0.65-0.7 0.3q-1.4 0.8-0.75 2.15 0.7 1.35 3.75 2l5.35 0.95 1.05 0.05q1.8 0.2 3.6-0.65l1.3-0.75m-2.6-1.95-0.8 1.15 0.8-1.15m2.45-1.8q5.5-0.7 1.8 2.3 3.7-3-1.8-2.3m13.95 40.95-2.1 0.4h-0.05l-0.05-0.5 0.05 0.5h0.05l2.1-0.4" fill="#8c6d47" fill-rule="evenodd"/>
<path d="m-12.65-22.1q-0.6-0.9-0.6-1.3 0-1.15 2.1-3l3.85-2.75 4.7-0.1 5.25 1.5 1.35 0.25 2.9-0.3 3-0.3q1.25 0.3 2.25 1.65l0.5 1.35q0.2 0.7-0.25 1.4l-1.2 3.2-0.3 0.65-1.2 2.85h0.65l0.85 0.55 0.7 1.2q0.3 0.6 0.2 1.2l0.75 1.5 0.6 0.7q2.05 1.1 2.7 3.2l0.4 0.4m0 0.05 0.5 0.65h0.05q1.35-0.65 3.35-0.9 2.05-0.15 1.35 1.45l-0.4 2.5q2.35 1.15 4.1 3.45l0.05 0.05h-0.05q-2.45 1.45-4.85 1.25l0.3 4q-1.9-0.95-3.15-2.75l-0.3 0.15q1.05 2.75 1.55 6.4 0.2 1.55 0.05 3.65l-0.35 2.35 0.4 0.25 0.35 0.35q0.45 0.45 0.55 1.2l0.1 0.35q0.3 3.15-3.8 1.35-11.35 1.8-16.2 1.8-4.7-0.05-10.25-2.95-6.05-3.1-7.3-6.75l-0.95-2.15q-0.5-0.6-0.75-3.2-0.25-2.8 2.35-7.85 2.55-5.1 4.6-6.25l3.35-1.85q-1.25-1.05-0.85-2.6l0.2-0.55 1-1.65 1.6 0.95-1.8-1.85-1.25-1.35q-2.05-2.15-2.75-3.4m23.2-0.7q0.05-1.15-0.4-1.4l-0.6-0.3-2.2 0.5-1.65 1.45-1.3 0.75q-1.8 0.85-3.6 0.65l-1.05-0.05-5.35-0.95q-3.05-0.65-3.75-2-0.65-1.35 0.75-2.15l0.7-0.3m9.8 3.85 0.4-0.6 0.8-1.15m7.45 1.75v-0.05m0 0.05q-0.25 1.6-1.4 4.8l-0.9 2.35 1.35-1.4h0.1m1.25 4.45q1-0.7 1.15-1.5m-1.2 1.6 0.05-0.1q0.1-2.05-1.4-2.45l-0.65-0.15-0.5-0.05-0.3 0.05-0.55 0.05-2.2 0.55-1.9 1.15 0.9 0.65 0.1 0.1q0.75 1.05 0.25 2.9l1.35-0.3q1.95-0.4 3.4-1.2l1.15-0.75 0.3-0.45 0.3 0.5m1.5-0.45 0.15-0.15m-11.2-9.8 0.25-0.4m-1.1 1.6 0.85-1.2m6.6 6.75-0.7 0.5m2.55 4.95-0.65-1.1m2.65 0.9v-0.05l-0.25-0.45-0.65-1.1m4.3 6.65 1.6-2.25m0.2 18.6q-0.4-4.05-2.05-8.95l-0.3-0.95-1.15-3.05-1.7-3.95-0.6-1.3-0.8-1.7-0.05-0.1-0.55-1.2m3.2 2.25 0.15 0.35 0.45 0.95 2.35-1.95m-2.95 0.65-1.2-2.45m4.7 10.25 0.25 0.65 0.45 1.1m-2.6-6.15 0.6-0.8m1.3 5.2-1.9-4.4-1-2.1m-1.2-5.8-0.85 1.55m-4.5-13.15q3.7-3-1.8-2.3m-13.65 15.1q0.15-1.45 1.05-2.4l0.4-0.45 1-0.65 0.25-0.1-1.45-0.7m5.6 5.95q-1.05-1.6-0.45-3.2l0.1-0.25 0.3-0.5q-2.3-1.75-4.1-1.3m-2.7 3.6 0.9 0.95q0.7 1.05 5.95 0.7l5.95-0.2m-13.5-1.9 0.7 0.45m-10.4 18.4 0.15 0.3 0.05 0.05q0.55 0.45-0.2-0.35m35.8 3.85v0.1q0.2 1.8 0 3.4l0.05 0.5h0.05l2.1-0.4m-16.05-28.05-4.75-0.1" fill="none" stroke="#362a1b" stroke-linecap="round" stroke-linejoin="round" stroke-opacity=".50196" stroke-width=".05"/>
<path d="m15.1 11.75 3.45-1.3 0.1 1.75-3.5 0.3-0.05-0.75" fill="#704e26" fill-rule="evenodd"/>
<path d="m15.1 11.75 0.05 0.75 3.5-0.3-0.1-1.75z" fill="none" stroke="#000" stroke-linecap="round" stroke-linejoin="round" stroke-opacity=".50196" stroke-width=".05"/>
<path d="m18.55 8.15-3.45 1.3-0.1-1.75 3.5-0.3 0.05 0.75" fill="#704e26" fill-rule="evenodd"/>
<path d="m18.55 8.15-0.05-0.75-3.5 0.3 0.1 1.75z" fill="none" stroke="#000" stroke-linecap="round" stroke-linejoin="round" stroke-opacity=".50196" stroke-width=".05"/>
<path d="m12.9-7.8-2.25 1.9-0.6-1.65 2.6-0.95 0.25 0.7" fill="#704e26" fill-rule="evenodd"/>
<path d="m12.9-7.8-0.25-0.7-2.6 0.95 0.6 1.65z" fill="none" stroke="#000" stroke-linecap="round" stroke-linejoin="round" stroke-opacity=".50196" stroke-width=".05"/>
<path d="m9.85-17.05-2.2 0.95-0.1-1.35 2.3-0.2v0.6" fill="#704e26" fill-rule="evenodd"/>
<path d="m9.85-17.05v-0.6l-2.3 0.2 0.1 1.35z" fill="none" stroke="#000" stroke-linecap="round" stroke-linejoin="round" stroke-opacity=".50196" stroke-width=".05"/>
<path d="m11.05-24.05-2.25 1.9-0.6-1.65 2.6-0.95 0.25 0.7" fill="#704e26" fill-rule="evenodd"/>
<path d="m11.05-24.05-0.25-0.7-2.6 0.95 0.6 1.65z" fill="none" stroke="#000" stroke-linecap="round" stroke-linejoin="round" stroke-opacity=".50196" stroke-width=".05"/>
<path d="m-27.75 18.7q-0.15 0.2 0.1 0.9 0.25 0.65 1.9 0.9l3.2 0.45 3.15 0.05 4.85-0.8q3.25-0.7 4.65-2.75l1.35 1.4q1.05 3.65-10.35 4.15-10-0.4-9.65-3.55l0.8-0.75" fill="#deb185" fill-rule="evenodd"/>
<path d="m-9.9 17.45q-1.4 2.05-4.65 2.75l-4.85 0.8-3.15-0.05-3.2-0.45q-1.65-0.25-1.9-0.9-0.25-0.7-0.1-0.9 4.75-3.75 7.3-7.1 2.2-2.4 3.7-1.35l6.85 7.2" fill="#fc9" fill-rule="evenodd"/>
<path d="m-8.95 17.5q0.45 0.55-0.1 0.95l-0.2 0.15q-0.65 0.4-1.05-0.2-0.45-0.65 0.25-1.1l0.85-0.05 0.25 0.25m-3.45-2.65q-0.75 0.4-1-0.25-0.3-0.7 0.2-1.05 0.45-0.4 1 0.25 0.55 0.6-0.2 1.05m1.7 0.45q0.3 0.65-0.4 1.05-0.65 0.4-0.9-0.25-0.2-0.65 0.4-1.05 0.55-0.4 0.9 0.25m-4.1-1.85q-0.25-0.65 0.4-1.05 0.7-0.35 1 0.25 0.35 0.55-0.45 1-0.75 0.45-0.95-0.2m4.5 7.85 0.75 0.1q0.25 0.45-0.2 0.75l-0.7-0.1q-0.3-0.45 0.15-0.75m-2.95 1.3q-0.25-0.7 0.45-1.05 0.7-0.4 1.05 0.2t-0.45 1.1q-0.8 0.45-1.05-0.25m-1.05-0.25q0.45 0.55-0.15 0.9t-0.8-0.25q-0.25-0.55 0.15-0.85 0.35-0.3 0.8 0.2m5.25-1.95q-0.15-0.45 0.25-0.7 0.4-0.3 0.65 0.15 0.2 0.45-0.25 0.7-0.5 0.3-0.65-0.15m-11.55-8.2q0.35 0.6-0.45 1.1-0.8 0.45-1.05-0.25t0.45-1.05q0.7-0.4 1.05 0.2m0.25-2.25q0.55-0.5 1.25 0.15 0-0.45 0.45-0.75 0.55-0.4 0.9 0.25 0.3 0.65-0.4 1.05l-0.45 0.15q0.15 0.6-0.6 1-1.05 0.6-1.4-0.35t0.25-1.5m3.3 1.5q-0.45-0.65 0.25-1.1 0.65-0.45 1.05 0.2t-0.25 1.1q-0.65 0.4-1.05-0.2m-9.3 5.15 0.75-0.05q0-0.45 0.4-0.7 0.55-0.4 0.85 0.2t-0.35 1l-0.25 0.15q0.3 0.55-0.45 0.95-0.85 0.5-1.15-0.3-0.35-0.8 0.2-1.25m-0.9 1.9q0.35 0.55-0.45 1-0.75 0.45-0.95-0.2-0.25-0.65 0.4-1.05 0.7-0.35 1 0.25m0.35 4.35q-0.25-0.8 0.45-1.3 0.7-0.45 1.1 0.3 0.4 0.8-0.45 1.3-0.85 0.45-1.1-0.3m-1.9-1.8q-0.35-0.55 0.25-0.95 0.55-0.45 0.9 0.15 0.35 0.55-0.2 0.95-0.55 0.35-0.95-0.15m5.75-7.05q0.8-0.55 1.25 0.2 0.5 0.8-0.3 1.3-0.75 0.5-1.25-0.2-0.5-0.75 0.3-1.3m1.45 8.95q-0.15-0.4 0.25-0.6 0.35-0.2 0.55 0.15 0.2 0.3-0.25 0.55l-0.55-0.1m-2.75 0.2q-0.3-0.75 0.25-1.2 0.5-0.45 1.1 0.25 0.65 0.75-0.2 1.25-0.85 0.45-1.15-0.3m6.75 0.2q-0.25-0.85 0.5-1.4 0.75-0.5 1.2 0.35 0.45 0.8-0.5 1.35-0.9 0.55-1.2-0.3m-1.15-0.8q0.45 0.75-0.3 1.25-0.75 0.45-1.2-0.25-0.5-0.7 0.25-1.25 0.75-0.5 1.25 0.25" fill="#deb185" fill-opacity=".50196" fill-rule="evenodd"/>
</g>
<g id="b" transform="translate(-391.35,-295.05)">
<path d="m395.4 295.1-0.2 0.35q-1.05 2.55 0.65 4.4l0.25-0.25q0.55-3.25-0.2-4.2 0.5 0.4 0.8 1.35l0.1 0.05q-0.2 2.85-1 4.3-3.05-0.95-1.75-5.6 0.6-0.45 1.2-0.45l0.15 0.05" fill="#3a3d21" fill-rule="evenodd"/>
<path d="m395.4 295.1 0.5 0.3q0.75 0.95 0.2 4.2l-0.25 0.25q-1.7-1.85-0.65-4.4l0.2-0.35" fill="#696543" fill-rule="evenodd"/>
<path d="m395.8 301.1q-0.85 1.5-2.4 1.5-0.45-0.4-0.7-1.2-0.45-1.3-0.1-3 0.25-1.6 1.1-2.5l0.3-0.35 0.05-0.05q-1.3 4.65 1.75 5.6" fill="#262615" fill-rule="evenodd"/>
<path d="m395.9 295.4-0.5-0.3m0.5 0.3q0.5 0.4 0.8 1.35l0.1 0.05q-0.2 2.85-1 4.3-0.85 1.5-2.4 1.5-0.45-0.4-0.7-1.2-0.45-1.3-0.1-3 0.25-1.6 1.1-2.5l0.3-0.35 0.05-0.05q0.6-0.45 1.2-0.45l0.15 0.05" fill="none" stroke="#000" stroke-linecap="round" stroke-linejoin="round" stroke-opacity=".2" stroke-width=".05"/>
<path d="m410.45 295.5q-0.6-0.45-1.2-0.45l-0.15 0.05 0.2 0.35q1.05 2.55-0.65 4.4l-0.25-0.25q-0.55-3.25 0.2-4.2-0.5 0.4-0.8 1.35l-0.1 0.05q0.2 2.85 1 4.3 3.05-0.95 1.75-5.6" fill="#3a3d21" fill-rule="evenodd"/>
<path d="m409.1 295.1-0.5 0.3q-0.75 0.95-0.2 4.2l0.25 0.25q1.7-1.85 0.65-4.4l-0.2-0.35" fill="#696543" fill-rule="evenodd"/>
<path d="m408.7 301.1q0.85 1.5 2.4 1.5l0.7-1.2q0.45-1.3 0.1-3-0.25-1.6-1.1-2.5l-0.3-0.35-0.05-0.05q1.3 4.65-1.75 5.6" fill="#262615" fill-rule="evenodd"/>
<path d="m408.7 301.1q0.85 1.5 2.4 1.5l0.7-1.2q0.45-1.3 0.1-3-0.25-1.6-1.1-2.5l-0.3-0.35-0.05-0.05q-0.6-0.45-1.2-0.45l-0.15 0.05-0.5 0.3q-0.5 0.4-0.8 1.35l-0.1 0.05q0.2 2.85 1 4.3z" fill="none" stroke="#000" stroke-linecap="round" stroke-linejoin="round" stroke-opacity=".2" stroke-width=".05"/>
<path d="m391.85 304.15v-0.15l0.15-0.75 0.35-0.95q0.4-0.95 1.05-1.85 0.95-1.25 2.3-2.15 1.35-1 2.8-1.6l2.75-0.75 1.1-0.1h0.05v1.85h-0.05l-3.85-0.15q-3.95 1.15-5.75 4.4l-0.85 2.1-0.05 0.1m21.05 0v0.1l-0.8 0.3 0.8-0.4m-19.55 13.05-0.1-0.1 5.15 0.95 3.75 0.1 0.25-0.05v0.2h-0.05l-0.2 0.05q-3.5 0.5-8.8-1.15" fill="url(#n)" fill-rule="evenodd"/>
<path d="m391.9 304.05 0.85-2.1q1.8-3.25 5.75-4.4l3.85 0.15v0.05l0.05-0.05 3.85-0.15q5.15 1.5 6.65 6.6l-0.8 0.4-4.35 1.65-5.35 0.7-4.9-0.65q-4.75-0.85-5.6-2.15v-0.05m10.5 0.4v-0.05l-3.8 1.5 3.75-1.45h0.05" fill="url(#m)" fill-rule="evenodd"/>
<path d="m393.25 317.1-0.3-0.3q-1.1-1.1-1.5-2.6l-0.05-0.65v-0.8q6.95-2 8.9-1.95l1.85 0.1h0.25v7.2l-0.25 0.05-3.75-0.1-5.15-0.95" fill="url(#k)" fill-rule="evenodd"/>
<path d="m413.35 312.75v0.8l-0.05 0.65q-0.4 1.5-1.5 2.6v0.05l-0.1 0.05q-4.15 1.35-9.3 1.2v-7.1q3.7-0.75 10.95 1.75m-10.95-2.1h-0.1l-0.15-0.05 0.25 0.05" fill="url(#j)" fill-rule="evenodd"/>
<path d="m411.4 317.2q-0.95 0.8-2.05 1.2l-2.75 0.8-2.8 0.15-1.4-0.15v-0.85q3.55 0.55 9-1.15" fill="url(#i)" fill-rule="evenodd"/>
<path d="m402.4 319.2h-0.05l-0.2 0.05-1.2 0.1-2.8-0.15-2.7-0.8q-1.1-0.4-2.1-1.2 5.3 1.65 8.8 1.15l0.2-0.05h0.05v0.9" fill="url(#h)" fill-rule="evenodd"/>
<path d="m402.4 295.85 1.1 0.1 2.75 0.75q1.5 0.6 2.8 1.6 1.35 0.9 2.3 2.15 0.9 1.3 1.4 2.8l0.15 0.65v0.25q-1.5-5.1-6.65-6.6l-3.85 0.15v-1.85m10.5 8.4 0.05 2.95 0.2 3.2 0.15 1.9 0.05 0.45q-7.25-2.5-10.95-1.75v-0.1h-0.25l-1.85-0.1q-1.95-0.05-8.9 1.95l0.05-0.45 0.2-1.9 0.05-0.15 0.1-3.05 0.05-3.05 0.05-0.05q0.85 1.3 5.6 2.15l4.9 0.65 5.35-0.7 4.35-1.65 0.8-0.3m-1.2 12.65-0.3 0.3q-5.45 1.7-9 1.15v-0.25q5.15 0.15 9.3-1.2m-9.3-6.25-0.25-0.05 0.15 0.05h0.1" fill="url(#g)" fill-rule="evenodd"/>
<path d="m391.85 304.15v-0.15l0.15-0.75 0.35-0.95q0.4-0.95 1.05-1.85 0.95-1.25 2.3-2.15 1.35-1 2.8-1.6l2.75-0.75 1.1-0.1h0.05l1.1 0.1 2.75 0.75q1.5 0.6 2.8 1.6 1.35 0.9 2.3 2.15 0.9 1.3 1.4 2.8l0.15 0.65m0 0.25v0.1l0.05 2.95 0.2 3.2 0.15 1.9 0.05 0.45v0.8l-0.05 0.65q-0.4 1.5-1.5 2.6v0.05l-0.1 0.05-0.3 0.3q-0.95 0.8-2.05 1.2l-2.75 0.8-2.8 0.15-1.4-0.15h-0.05l-0.2 0.05-1.2 0.1-2.8-0.15-2.7-0.8q-1.1-0.4-2.1-1.2l-0.4-0.4q-1.1-1.1-1.5-2.6l-0.05-0.65v-0.8l0.05-0.45 0.2-1.9 0.05-0.15 0.1-3.05 0.05-3.05z" fill="none" stroke="#332720" stroke-linecap="round" stroke-linejoin="round" stroke-opacity=".2" stroke-width=".05"/>
<path d="m393.9 309.25h0.05l0.45-0.45 0.2-0.15-0.75 3.15-0.4 1.45-0.35-1.15q-0.25-1.5 0.5-2.5l0.15-0.2 0.15-0.15-0.15 0.15 0.35-0.35v0.05l-0.05 0.05-0.15 0.05v0.05" fill="#262615" fill-rule="evenodd"/>
<path d="m393.95 309.25h-0.05v-0.05l0.15-0.05 0.35-0.35-0.45 0.45 0.1-0.1-0.1 0.1m-0.5 4 0.4-1.45 0.75-3.15q3.05-1.85 5.3 0.5l0.15 0.3q1.65 4.15 0.05 6.55-1.55 1.2-4.85-0.5l-0.45-0.4-1.05-1.4-0.3-0.45" fill="url(#f)" fill-rule="evenodd"/>
<path d="m393.95 309.25h-0.05l-0.15 0.15-0.15 0.2q-0.75 1-0.5 2.5l0.35 1.15 0.3 0.45 1.05 1.4 0.45 0.4q3.3 1.7 4.85 0.5 1.6-2.4-0.05-6.55l-0.15-0.3q-2.25-2.35-5.3-0.5l-0.2 0.15m-0.45 0.45 0.45-0.45m-0.3 0.25-0.35 0.35" fill="none" stroke="#33251b" stroke-linecap="round" stroke-miterlimit="3" stroke-opacity=".2" stroke-width=".05"/>
<path d="m395.2 311.05q-0.2 0.65-0.1 1.65 0.1 2.25 2.5 2.75l2.55 0.25q-0.65-4.9-4.95-4.65" fill="#f4f0df" fill-rule="evenodd"/>
<path d="m400.15 315.7 0.05-0.05 0.05-1.05q0.2-1.55-0.45-2.9-0.7-1.35-1.75-1.75l-2.1 0.1q-0.55 0.25-0.75 1 4.3-0.25 4.95 4.65" fill="#e9d8b6" fill-rule="evenodd"/>
<path d="m395.2 311.05q-0.2 0.65-0.1 1.65 0.1 2.25 2.5 2.75l2.55 0.25 0.05-0.05 0.05-1.05q0.2-1.55-0.45-2.9-0.7-1.35-1.75-1.75l-2.1 0.1q-0.55 0.25-0.75 1z" fill="none" stroke="#332720" stroke-linecap="round" stroke-linejoin="round" stroke-opacity=".45098" stroke-width="1.5"/>
<path d="m397.55 312.55q0.45-1 1.75-0.55l0.25 0.15 0.35 0.45 0.4 0.65 0.1 0.8-0.75-0.8q-0.85-0.55-2.1-0.7" fill="#814307" fill-rule="evenodd"/>
<path d="m397.55 312.55q1.25 0.15 2.1 0.7l0.75 0.8-0.15 1-0.55 0.75-1.5-0.1q-0.65-0.55-0.85-1.25v-1l0.2-0.9" fill="url(#e)" fill-rule="evenodd"/>
<path d="m399.1 314.15 0.6-0.15 0.3-0.5-0.25-0.6-0.55-0.4-0.6 0.15q-0.3 0.2-0.3 0.5-0.05 0.3 0.2 0.6l0.6 0.4" fill="#f9af06" fill-rule="evenodd"/>
<path d="m398.7 313.9q0.1-0.3 0.35-0.45h0.45l0.35 0.35 0.05 0.65-0.25 0.5-0.5-0.1-0.4-0.35-0.05-0.6" fill-rule="evenodd"/>
<path d="m398.7 313.9 0.05 0.6 0.4 0.35 0.5 0.1 0.25-0.5-0.05-0.65-0.35-0.35h-0.45q-0.25 0.15-0.35 0.45z" fill="none" stroke="#000" stroke-linecap="round" stroke-linejoin="round" stroke-opacity=".30196" stroke-width=".05"/>
<path d="m397.5 313.15-0.2 0.25 0.2 0.3 0.65 0.3 0.65 0.1 0.25-0.2-0.25-0.35q-0.25-0.2-0.65-0.3l-0.65-0.1" fill="#fff" fill-rule="evenodd"/>
<path d="m410.85 309.15h-0.05l-0.45-0.45-0.2-0.15 0.75 3.15 0.4 1.45 0.35-1.15q0.25-1.5-0.5-2.5l-0.15-0.2-0.15-0.15 0.15 0.15-0.35-0.35v0.05l0.05 0.05 0.15 0.05v0.05" fill="#262615" fill-rule="evenodd"/>
<path d="m410.8 309.15h0.05v-0.05l-0.15-0.05-0.35-0.35 0.45 0.45-0.1-0.1 0.1 0.1m0.5 4-0.4-1.45-0.75-3.15q-3.05-1.85-5.3 0.5l-0.15 0.3q-1.65 4.15-0.05 6.55 1.55 1.2 4.85-0.5l0.45-0.4 1.05-1.4 0.3-0.45" fill="url(#d)" fill-rule="evenodd"/>
<path d="m410.8 309.15h0.05l0.15 0.15 0.15 0.2q0.75 1 0.5 2.5l-0.35 1.15-0.3 0.45-1.05 1.4-0.45 0.4q-3.3 1.7-4.85 0.5-1.6-2.4 0.05-6.55l0.15-0.3q2.25-2.35 5.3-0.5l0.2 0.15m0.45 0.45-0.45-0.45m0.3 0.25 0.35 0.35" fill="none" stroke="#33251b" stroke-linecap="round" stroke-miterlimit="3" stroke-opacity=".2" stroke-width=".05"/>
<path d="m409.55 310.9 0.1 1.65q-0.1 2.25-2.5 2.75l-2.55 0.25q0.65-4.9 4.95-4.65" fill="#f4f0df" fill-rule="evenodd"/>
<path d="m404.6 315.55-0.05-0.05-0.05-1.05q-0.2-1.55 0.45-2.9 0.7-1.35 1.75-1.75l2.1 0.1q0.55 0.25 0.75 1-4.3-0.25-4.95 4.65" fill="#e9d8b6" fill-rule="evenodd"/>
<path d="m409.55 310.9 0.1 1.65q-0.1 2.25-2.5 2.75l-2.55 0.25-0.05-0.05-0.05-1.05q-0.2-1.55 0.45-2.9 0.7-1.35 1.75-1.75l2.1 0.1q0.55 0.25 0.75 1z" fill="none" stroke="#332720" stroke-linecap="round" stroke-linejoin="round" stroke-opacity=".45098" stroke-width="1.5"/>
<path d="m404.3 313.95q0.3-0.45 0.7-0.75 0.8-0.65 2.05-0.8-0.5-1-1.75-0.55l-0.25 0.2-0.35 0.45q-0.3 0.35-0.3 0.7l-0.1 0.75" fill="#814307" fill-rule="evenodd"/>
<path d="m404.3 313.95 0.2 1.05q0.25 0.55 0.6 0.7l1.45-0.15 0.8-1.3-0.05-1-0.25-0.85q-1.25 0.15-2.05 0.8-0.4 0.3-0.7 0.75" fill="url(#l)" fill-rule="evenodd"/>
<path d="m405.7 313.95-0.6-0.1-0.35-0.5 0.15-0.6q0.25-0.3 0.6-0.4l0.65 0.1 0.3 0.5-0.2 0.65q-0.2 0.3-0.55 0.35" fill="#f9af06" fill-rule="evenodd"/>
<path d="m406 313.75-0.3-0.4-0.45-0.05-0.4 0.4v0.6l0.35 0.5 0.45-0.05 0.35-0.35v-0.65" fill-rule="evenodd"/>
<path d="m406 313.75v0.65l-0.35 0.35-0.45 0.05-0.35-0.5v-0.6l0.4-0.4 0.45 0.05z" fill="none" stroke="#000" stroke-linecap="round" stroke-linejoin="round" stroke-opacity=".30196" stroke-width=".05"/>
<path d="m407.15 313 0.2 0.25-0.2 0.3-0.65 0.35-0.65 0.1-0.25-0.2 0.25-0.35 0.65-0.3 0.65-0.15" fill="#fff" fill-rule="evenodd"/>
<path d="m402.7 316.05-0.15-0.15 0.2-0.15 0.3 0.05 0.25 0.15 0.15 0.15-0.2 0.1h-0.3l-0.25-0.15" fill="#fff" fill-rule="evenodd"/>
<path d="m403.6 316.3-0.1 0.1 0.2-0.2q-0.95 1.4-1.6 1.15-0.7-0.2-0.95-1.15l0.45 0.5 0.8 0.2 1.2-0.6" fill="#bdbfc4" fill-rule="evenodd"/>
<path d="m401.15 316.2-0.05-0.1 0.4-0.45 0.9-0.05 0.85 0.1q0.4 0.2 0.4 0.45l-0.05 0.15-1.2 0.6-0.8-0.2-0.45-0.5m1.55-0.15 0.25 0.15h0.3l0.2-0.1-0.15-0.15-0.25-0.15-0.3-0.05-0.2 0.15 0.15 0.15" fill="#262615" fill-rule="evenodd"/>
<path d="m403 318.2q-0.45 0.55-1.2 0.55l-0.6-0.4h0.45l1.25-0.15h0.1" fill="#bdbfc4" fill-rule="evenodd"/>
<path d="m401.2 317.85q1.45 0.25 2.6-0.5" fill="none" stroke="#000" stroke-linecap="round" stroke-linejoin="round" stroke-opacity=".30196" stroke-width=".05"/>
</g>
<linearGradient id="n" x1="-819.2" x2="819.2" gradientTransform="matrix(.0046 -.0029 .0068 .0113 410.2 306.7)" gradientUnits="userSpaceOnUse">
<stop stop-color="#bdbfc4" offset=".27059"/>
<stop stop-color="#797e86" offset=".86667"/>
</linearGradient>
<linearGradient id="m" x1="-819.2" x2="819.2" gradientTransform="matrix(-1e-4 .0035 .0053 2e-4 405.45 304.75)" gradientUnits="userSpaceOnUse">
<stop stop-color="#fff" offset=".13333"/>
<stop stop-color="#f4f0df" offset=".48627"/>
<stop stop-color="#bdbfc4" offset=".98039"/>
</linearGradient>
<linearGradient id="k" x1="-819.2" x2="819.2" gradientTransform="matrix(1e-4 .0035 -.0053 2e-4 399 316.85)" gradientUnits="userSpaceOnUse">
<stop stop-color="#f4f0df" offset=".26667"/>
<stop stop-color="#bdbfc4" offset=".98039"/>
</linearGradient>
<linearGradient id="j" x1="-819.2" x2="819.2" gradientTransform="matrix(-1e-4 .0035 .0053 2e-4 405.75 316.85)" gradientUnits="userSpaceOnUse">
<stop stop-color="#f4f0df" offset=".26667"/>
<stop stop-color="#bdbfc4" offset=".98039"/>
</linearGradient>
<linearGradient id="i" x1="-819.2" x2="819.2" gradientTransform="matrix(-.0134 -.0043 -.0224 .0782 399.2 315.05)" gradientUnits="userSpaceOnUse">
<stop stop-color="#bdbfc4" offset=".27059"/>
<stop stop-color="#797e86" offset=".86667"/>
</linearGradient>
<linearGradient id="h" x1="-819.2" x2="819.2" gradientTransform="matrix(.0134 -.0043 .0224 .0782 405.6 315.05)" gradientUnits="userSpaceOnUse">
<stop stop-color="#bdbfc4" offset=".27059"/>
<stop stop-color="#797e86" offset=".86667"/>
</linearGradient>
<linearGradient id="g" x1="-819.2" x2="819.2" gradientTransform="matrix(0 .0054 .0132 -4e-4 410.3 319.8)" gradientUnits="userSpaceOnUse">
<stop stop-color="#bdbfc4" offset=".27059"/>
<stop stop-color="#797e86" offset=".86667"/>
</linearGradient>
<linearGradient id="f" x1="-819.2" x2="819.2" gradientTransform="matrix(-.0016 .0043 .0045 .0027 397.5 312.55)" gradientUnits="userSpaceOnUse">
<stop stop-color="#545035" offset="0"/>
<stop stop-color="#393524" offset=".20784"/>
<stop stop-color="#3c3826" offset=".72549"/>
<stop stop-color="#545035" offset="1"/>
</linearGradient>
<radialGradient id="e" cx="0" cy="0" r="819.2" gradientTransform="matrix(-.002 9e-4 8e-4 .0036 399.05 314.65)" gradientUnits="userSpaceOnUse">
<stop stop-color="#c93" offset=".24314"/>
<stop stop-color="#630" offset="1"/>
</radialGradient>
<linearGradient id="d" x1="-819.2" x2="819.2" gradientTransform="matrix(.0016 .0043 -.0045 .0027 407.25 312.45)" gradientUnits="userSpaceOnUse">
<stop stop-color="#545035" offset="0"/>
<stop stop-color="#393524" offset=".20784"/>
<stop stop-color="#3c3826" offset=".72549"/>
<stop stop-color="#545035" offset="1"/>
</linearGradient>
<radialGradient id="l" cx="0" cy="0" r="819.2" gradientTransform="matrix(.0021 8e-4 -7e-4 .0036 405.65 314.55)" gradientUnits="userSpaceOnUse">
<stop stop-color="#c93" offset=".24314"/>
<stop stop-color="#630" offset="1"/>
</radialGradient>
</defs>
</svg>
