<?xml version="1.0" encoding="UTF-8"?>
<svg version="1.1" viewBox="0 0 54.504 53.251" xmlns="http://www.w3.org/2000/svg" xmlns:cc="http://creativecommons.org/ns#" xmlns:dc="http://purl.org/dc/elements/1.1/" xmlns:rdf="http://www.w3.org/1999/02/22-rdf-syntax-ns#" xmlns:xlink="http://www.w3.org/1999/xlink">
<metadata>
<rdf:RDF>
<cc:Work rdf:about="">
<dc:format>image/svg+xml</dc:format>
<dc:type rdf:resource="http://purl.org/dc/dcmitype/StillImage"/>
</cc:Work>
</rdf:RDF>
</metadata>
<g transform="translate(-373.02 -273.98)">
<use transform="translate(373,273.65)" width="54.5" height="53.599998" xlink:href="#b"/>
<use transform="translate(388.65,298)" width="13.55" height="22.700001" xlink:href="#f"/>
<use transform="matrix(.0214 -.0424 -.0426 -.0215 399.42 314.76)" width="53.599998" height="53.599998" xlink:href="#a"/>
<use transform="translate(389.05,292.05)" width="26.5" height="26.9" xlink:href="#e"/>
<use transform="matrix(.0171 -.0637 -.0641 -.0172 405.66 302.07)" width="53.599998" height="53.599998" xlink:href="#a"/>
<use transform="matrix(.0094 -.035 -.0352 -.0094 395.39 299.59)" width="53.599998" height="53.599998" xlink:href="#a"/>
<use transform="translate(400.6,293.55)" width="8.6000004" height="6.3499999" xlink:href="#d"/>
<use transform="matrix(-.0143 -.0365 -.0368 .0144 399.32 302.54)" width="53.599998" height="53.599998" xlink:href="#a"/>
<use transform="translate(388.6,286.35)" width="28.200001" height="34.5" xlink:href="#c"/>
</g>
<defs>
<g id="b" transform="translate(28.95,29.6)">
<use transform="translate(-28.95,-29.6)" width="54.5" height="53.599998" xlink:href="#g"/>
</g>
<g id="g" transform="translate(28.95,29.6)">
<path d="m12.1-14.05 0.75 1.5-0.15 0.15-0.3 0.1-1.2 0.35-0.3-0.5 0.05-0.1q1-0.7 1.15-1.5m1.35 2.2q2.05 1.1 2.7 3.2l-1.35 0.55-0.9 0.3-0.6-0.1-1.2-2.45v-0.05l0.1-0.2 1.25-1.25m3.1 3.6v0.05l0.5 0.65h0.05q1.35-0.65 3.35-0.9 2.05-0.15 1.35 1.45l-3.3 2.35-0.15 0.25q-0.35 0.55 0.05 1.7l1.2 2.75h-0.05l-0.95-0.55-0.8-0.3-1 0.7-1.9-4.4 0.6-0.8q-0.55-0.3-0.7-0.7-0.2-0.55 0.7-1.35l1.05-0.9m4.85 3.75q2.35 1.15 4.1 3.45v0.05l-0.75-0.35-0.7-0.3-2.55-1.3q-0.25-0.8-0.1-1.55m-10.4-11.85 0.2 0.45 0.1 0.25-0.3 0.2-0.3 0.05-0.35-0.1-0.15-0.05-0.3-0.2v-0.05q-0.15-0.45 0.35-0.6l0.75 0.05m-5.15 3.05v-0.1q0-0.45 0.6-0.7l1.3-0.5h0.15l0.05-0.05h0.45l0.65 0.5q0.25 0.65-0.8 1.15l-0.65 0.25-0.95 0.1q-0.65-0.05-0.8-0.45v-0.2m-5.7 0.3 1.65 0.05q0.95 0.15 1.3 0.45l0.15 0.2 0.1 0.25q0 0.45-0.6 0.65l-0.8 0.15-0.75-0.05q-1.2 0-1.35-0.5l0.05-0.35v-0.2l-0.05-0.3 0.3-0.35m16.95 5.45-1.6 2.25 1.6-2.25m-26-7.05v-0.1l-0.05-0.25v-0.05l0.4-0.4q1.2 0.35 1.35 0.8v0.4l-0.2 0.15h-0.6q-0.65-0.15-0.9-0.55m2.95 1.8-0.2-0.05-0.05-0.05 0.55-0.65 0.65-0.05 0.65 0.05 1.05 0.35 0.3 0.45q0.15 0.45-0.3 0.6l-1.3-0.15-1.25-0.5h-0.1" fill="#e0b359" fill-rule="evenodd"/>
<path d="m9.7-17h0.65l0.85 0.55 0.7 1.2q0.3 0.6 0.2 1.2-0.15 0.8-1.15 1.5l-0.05 0.1-0.3 0.45-1.15 0.75q-1.45 0.8-3.4 1.2l-1.35 0.3q0.5-1.85-0.25-2.9l-0.1-0.1-0.9-0.65 0.9 0.65 0.1 0.1q0.75 1.05 0.25 2.9l-5.95 0.2q-5.25 0.35-5.95-0.7l-0.9-0.95q0.15-1.45 1.05-2.4l0.4-0.45 1-0.65 0.25-0.1-0.25 0.1-1 0.65-0.4 0.45q-0.9 0.95-1.05 2.4l-0.7-0.45q-1.25-1.05-0.85-2.6l0.2-0.55 1-1.65 1.6 0.95 1.45 0.7q1.8-0.45 4.1 1.3l4.75 0.1 1.9-1.15 2.2-0.55 0.55-0.05 0.3-0.05 0.5 0.05 0.65 0.15q1.5 0.4 1.4 2.45 0.1-2.05-1.4-2.45l-0.65-0.15-0.5-0.05-0.3 0.05-0.55 0.05 0.7-0.5 1.35-1.4h0.1m3.15 4.45 0.6 0.7-1.25 1.25-0.1 0.2-0.25-0.45-0.65-1.1 1.2-0.35 0.3-0.1 0.15-0.15m3.3 3.9 0.4 0.4-1.05 0.9q-0.9 0.8-0.7 1.35 0.15 0.4 0.7 0.7l-0.6 0.8-1-2.1-0.45-0.95-0.15-0.35 0.6 0.1 0.9-0.3 1.35-0.55m5.65 1.65-0.4 2.5q-0.15 0.75 0.1 1.55l2.55 1.3 0.7 0.3 0.75 0.35v-0.05l0.05 0.05h-0.05q-2.45 1.45-4.85 1.25l0.3 4q-1.9-0.95-3.15-2.75l-0.3 0.15-0.45-1.1-0.25-0.65 1-0.7 0.8 0.3 0.95 0.55h0.05l-1.2-2.75q-0.4-1.15-0.05-1.7l0.15-0.25 3.3-2.35m-10.8-9.35-0.75-0.05q-0.5 0.15-0.35 0.6v0.05l0.3 0.2 0.15 0.05 0.35 0.1 0.3-0.05 0.3-0.2-0.1-0.25-0.2-0.45m-10.85 3.35-0.3 0.35 0.05 0.3v0.2l-0.05 0.35q0.15 0.5 1.35 0.5l0.75 0.05 0.8-0.15q0.6-0.2 0.6-0.65l-0.1-0.25-0.15-0.2q-0.35-0.3-1.3-0.45l-1.65-0.05m5.7-0.3v0.2q0.15 0.4 0.8 0.45l0.95-0.1 0.65-0.25q1.05-0.5 0.8-1.15l-0.65-0.5h-0.45l-0.05 0.05h-0.15l-1.3 0.5q-0.6 0.25-0.6 0.7v0.1m10.4 4.75-2.35 1.95 2.35-1.95m-4.4-2.3 0.85-1.55-0.85 1.55m-20.75-3.75q0.25 0.4 0.9 0.55h0.6l0.2-0.15v-0.4q-0.15-0.45-1.35-0.8l-0.4 0.4v0.05l0.05 0.25v0.1m2.95 1.8h0.1l1.25 0.5 1.3 0.15q0.45-0.15 0.3-0.6l-0.3-0.45-1.05-0.35-0.65-0.05-0.65 0.05-0.55 0.65 0.05 0.05 0.2 0.05m4.65-0.7-0.3 0.5-0.1 0.25q-0.6 1.6 0.45 3.2-1.05-1.6-0.45-3.2l0.1-0.25 0.3-0.5" fill="#9c7c3e" fill-rule="evenodd"/>
<path d="m12.65-25.1q0.2 0.7-0.25 1.4l-1.2 3.2-0.3 0.65-1.2 2.85h-0.1l-1.35 1.4 0.9-2.35q1.15-3.2 1.4-4.8v-0.05l2.1-2.3m-2.2 2.35 0.1-0.05v0.05h-0.1m-9 0.25 0.45-0.25-0.25 0.4-0.2-0.15m8 11.25 1.15-0.75 0.3-0.45 0.3 0.5 0.65 1.1 0.25 0.45v0.05h-0.05l-0.35 0.05h-0.2l-1.15 0.05-0.25 0.1-0.65-1.1" fill="#634521" fill-rule="evenodd"/>
<path d="m19.1 11.7-0.35 2.35 0.4 0.25-0.75 0.05-1.1 0.2q-0.85 0.2-0.85 0.65 0.1 0.55 1.05 0.75l1.6 0.2 0.95-0.3 0.1 0.35q0.3 3.15-3.8 1.35-11.35 1.8-16.2 1.8-4.7-0.05-10.25-2.95-6.05-3.1-7.3-6.75l-0.95-2.15 0.05 0.05q0.55 0.45-0.2-0.35 2.15 2.2 5.25 4.35 5.75 4.25 11.35 4.35 5.55-0.05 7.1-1.3t3.1-1.9q1.6-0.7 3.65-0.5l2.85-0.05q0.7-0.45 2.3-1.1l0.2 0.1q0.3 0 0.85 0.3l0.95 0.25m-31.25-21.5 3.35-1.85 0.7 0.45 0.9 0.95q0.7 1.05 5.95 0.7l5.95-0.2 1.35-0.3q1.95-0.4 3.4-1.2l0.65 1.1-0.55 0.2-0.2 0.2-0.45 0.85-2.35 1.5q-2 1.2-5.2 1.5-3.25 0.3-9.05-1.95-1.8-0.65-4.45-1.95m5.3-5.7-1.8-1.85-1.25-1.35q-2.05-2.15-2.75-3.4 6.5 3.1 8.75 3.6 3.95 0.9 9.65-1.1 2.4-0.85 4.7-3.15h0.1q-0.25 1.6-1.4 4.8l-0.9 2.35-0.7 0.5-2.2 0.55-1.9 1.15-4.75-0.1q-2.3-1.75-4.1-1.3l-1.45-0.7m12.55-7.05-1.3 0.75q-1.8 0.85-3.6 0.65l-1.05-0.05-5.35-0.95q-3.05-0.65-3.75-2-0.65-1.35 0.75-2.15l0.7-0.3-0.35 0.65 0.05 0.9q0.55 1.65 4.55 2.45l4.15 0.45 0.95-0.35 0.2 0.15-0.85 1.2 0.85-1.2 0.25-0.4 0.55-0.5q0.3 0.85 1.85 0.85l1.4-0.15m11.6 37.1q0.2-1.6 0-3.4 0.2 1.8 0 3.4" fill="#705739" fill-rule="evenodd"/>
<path d="m1.9-22.75 0.4-0.6 0.15 0.1-0.55 0.5m15.2 33.8h0.2v0.1l-0.2-0.1" fill="#8c622f" fill-rule="evenodd"/>
<path d="m-12.65-22.1q-0.6-0.9-0.6-1.3 0-1.15 2.1-3l3.85-2.75 4.7-0.1 5.25 1.5 1.35 0.25 2.9-0.3 3-0.3q1.25 0.3 2.25 1.65l0.5 1.35-2.1 2.3-0.1 0.05q-2.3 2.3-4.7 3.15-5.7 2-9.65 1.1-2.25-0.5-8.75-3.6m30.15 23.75q1.05 2.75 1.55 6.4 0.2 1.55 0.05 3.65l-0.95-0.25q-0.55-0.3-0.85-0.3v-0.1q-0.4-4.05-2.05-8.95l-0.3-0.95-1.15-3.05-1.7-3.95-0.6-1.3-0.8-1.7-0.05-0.1-0.55-1.2 0.25-0.1 1.15-0.05h0.2l0.35-0.05h0.05l1.2 2.45 0.15 0.35 0.45 0.95 1 2.1 1.9 4.4 0.25 0.65 0.45 1.1m1.65 12.65 0.35 0.35q0.45 0.45 0.55 1.2l-0.95 0.3-1.6-0.2q-0.95-0.2-1.05-0.75 0-0.45 0.85-0.65l1.1-0.2 0.75-0.05m-37.5-6.8q-0.5-0.6-0.75-3.2-0.25-2.8 2.35-7.85 2.55-5.1 4.6-6.25 2.65 1.3 4.45 1.95 5.8 2.25 9.05 1.95 3.2-0.3 5.2-1.5l2.35-1.5 0.45-0.85 0.2-0.2 0.55-0.2 0.55 1.2 0.05 0.1 0.8 1.7 0.6 1.3 1.7 3.95 1.15 3.05 0.3 0.95q1.65 4.9 2.05 8.95h-0.2q-1.6 0.65-2.3 1.1l-2.85 0.05q-2.05-0.2-3.65 0.5-1.55 0.65-3.1 1.9t-7.1 1.3q-5.6-0.1-11.35-4.35-3.1-2.15-5.25-4.35l0.15 0.3-0.15-0.3q0.75 0.8 0.2 0.35l-0.05-0.05m24.05-30.05 1.65-1.45 2.2-0.5 0.6 0.3q0.45 0.25 0.4 1.4 0.05-1.15-0.4-1.4l-0.6-0.3-2.2 0.5-1.65 1.45-1.4 0.15q-1.55 0-1.85-0.85l-0.15-0.1-0.4 0.6-0.45 0.25-0.95 0.35-4.15-0.45q-4-0.8-4.55-2.45l-0.05-0.9 0.35-0.65-0.7 0.3q-1.4 0.8-0.75 2.15 0.7 1.35 3.75 2l5.35 0.95 1.05 0.05q1.8 0.2 3.6-0.65l1.3-0.75m-2.6-1.95-0.8 1.15 0.8-1.15m2.45-1.8q5.5-0.7 1.8 2.3 3.7-3-1.8-2.3m13.95 40.95-2.1 0.4h-0.05l-0.05-0.5 0.05 0.5h0.05l2.1-0.4" fill="#8c6d47" fill-rule="evenodd"/>
<path d="m-12.65-22.1q-0.6-0.9-0.6-1.3 0-1.15 2.1-3l3.85-2.75 4.7-0.1 5.25 1.5 1.35 0.25 2.9-0.3 3-0.3q1.25 0.3 2.25 1.65l0.5 1.35q0.2 0.7-0.25 1.4l-1.2 3.2-0.3 0.65-1.2 2.85h0.65l0.85 0.55 0.7 1.2q0.3 0.6 0.2 1.2l0.75 1.5 0.6 0.7q2.05 1.1 2.7 3.2l0.4 0.4m0 0.05 0.5 0.65h0.05q1.35-0.65 3.35-0.9 2.05-0.15 1.35 1.45l-0.4 2.5q2.35 1.15 4.1 3.45l0.05 0.05h-0.05q-2.45 1.45-4.85 1.25l0.3 4q-1.9-0.95-3.15-2.75l-0.3 0.15q1.05 2.75 1.55 6.4 0.2 1.55 0.05 3.65l-0.35 2.35 0.4 0.25 0.35 0.35q0.45 0.45 0.55 1.2l0.1 0.35q0.3 3.15-3.8 1.35-11.35 1.8-16.2 1.8-4.7-0.05-10.25-2.95-6.05-3.1-7.3-6.75l-0.95-2.15q-0.5-0.6-0.75-3.2-0.25-2.8 2.35-7.85 2.55-5.1 4.6-6.25l3.35-1.85q-1.25-1.05-0.85-2.6l0.2-0.55 1-1.65 1.6 0.95-1.8-1.85-1.25-1.35q-2.05-2.15-2.75-3.4m23.2-0.7q0.05-1.15-0.4-1.4l-0.6-0.3-2.2 0.5-1.65 1.45-1.3 0.75q-1.8 0.85-3.6 0.65l-1.05-0.05-5.35-0.95q-3.05-0.65-3.75-2-0.65-1.35 0.75-2.15l0.7-0.3m9.8 3.85 0.4-0.6 0.8-1.15m7.45 1.75v-0.05m0 0.05q-0.25 1.6-1.4 4.8l-0.9 2.35 1.35-1.4h0.1m1.25 4.45q1-0.7 1.15-1.5m-1.2 1.6 0.05-0.1q0.1-2.05-1.4-2.45l-0.65-0.15-0.5-0.05-0.3 0.05-0.55 0.05-2.2 0.55-1.9 1.15 0.9 0.65 0.1 0.1q0.75 1.05 0.25 2.9l1.35-0.3q1.95-0.4 3.4-1.2l1.15-0.75 0.3-0.45 0.3 0.5m1.5-0.45 0.15-0.15m-11.2-9.8 0.25-0.4m-1.1 1.6 0.85-1.2m6.6 6.75-0.7 0.5m2.55 4.95-0.65-1.1m2.65 0.9v-0.05l-0.25-0.45-0.65-1.1m4.3 6.65 1.6-2.25m0.2 18.6q-0.4-4.05-2.05-8.95l-0.3-0.95-1.15-3.05-1.7-3.95-0.6-1.3-0.8-1.7-0.05-0.1-0.55-1.2m3.2 2.25 0.15 0.35 0.45 0.95 2.35-1.95m-2.95 0.65-1.2-2.45m4.7 10.25 0.25 0.65 0.45 1.1m-2.6-6.15 0.6-0.8m1.3 5.2-1.9-4.4-1-2.1m-1.2-5.8-0.85 1.55m-4.5-13.15q3.7-3-1.8-2.3m-13.65 15.1q0.15-1.45 1.05-2.4l0.4-0.45 1-0.65 0.25-0.1-1.45-0.7m5.6 5.95q-1.05-1.6-0.45-3.2l0.1-0.25 0.3-0.5q-2.3-1.75-4.1-1.3m-2.7 3.6 0.9 0.95q0.7 1.05 5.95 0.7l5.95-0.2m-13.5-1.9 0.7 0.45m-10.4 18.4 0.15 0.3 0.05 0.05q0.55 0.45-0.2-0.35m35.8 3.85v0.1q0.2 1.8 0 3.4l0.05 0.5h0.05l2.1-0.4m-16.05-28.05-4.75-0.1" fill="none" stroke="#362a1b" stroke-linecap="round" stroke-linejoin="round" stroke-opacity=".50196" stroke-width=".05"/>
<path d="m15.1 11.75 3.45-1.3 0.1 1.75-3.5 0.3-0.05-0.75" fill="#704e26" fill-rule="evenodd"/>
<path d="m15.1 11.75 0.05 0.75 3.5-0.3-0.1-1.75z" fill="none" stroke="#000" stroke-linecap="round" stroke-linejoin="round" stroke-opacity=".50196" stroke-width=".05"/>
<path d="m18.55 8.15-3.45 1.3-0.1-1.75 3.5-0.3 0.05 0.75" fill="#704e26" fill-rule="evenodd"/>
<path d="m18.55 8.15-0.05-0.75-3.5 0.3 0.1 1.75z" fill="none" stroke="#000" stroke-linecap="round" stroke-linejoin="round" stroke-opacity=".50196" stroke-width=".05"/>
<path d="m12.9-7.8-2.25 1.9-0.6-1.65 2.6-0.95 0.25 0.7" fill="#704e26" fill-rule="evenodd"/>
<path d="m12.9-7.8-0.25-0.7-2.6 0.95 0.6 1.65z" fill="none" stroke="#000" stroke-linecap="round" stroke-linejoin="round" stroke-opacity=".50196" stroke-width=".05"/>
<path d="m9.85-17.05-2.2 0.95-0.1-1.35 2.3-0.2v0.6" fill="#704e26" fill-rule="evenodd"/>
<path d="m9.85-17.05v-0.6l-2.3 0.2 0.1 1.35z" fill="none" stroke="#000" stroke-linecap="round" stroke-linejoin="round" stroke-opacity=".50196" stroke-width=".05"/>
<path d="m11.05-24.05-2.25 1.9-0.6-1.65 2.6-0.95 0.25 0.7" fill="#704e26" fill-rule="evenodd"/>
<path d="m11.05-24.05-0.25-0.7-2.6 0.95 0.6 1.65z" fill="none" stroke="#000" stroke-linecap="round" stroke-linejoin="round" stroke-opacity=".50196" stroke-width=".05"/>
<path d="m-27.75 18.7q-0.15 0.2 0.1 0.9 0.25 0.65 1.9 0.9l3.2 0.45 3.15 0.05 4.85-0.8q3.25-0.7 4.65-2.75l1.35 1.4q1.05 3.65-10.35 4.15-10-0.4-9.65-3.55l0.8-0.75" fill="#deb185" fill-rule="evenodd"/>
<path d="m-9.9 17.45q-1.4 2.05-4.65 2.75l-4.85 0.8-3.15-0.05-3.2-0.45q-1.65-0.25-1.9-0.9-0.25-0.7-0.1-0.9 4.75-3.75 7.3-7.1 2.2-2.4 3.7-1.35l6.85 7.2" fill="#fc9" fill-rule="evenodd"/>
<path d="m-8.95 17.5q0.45 0.55-0.1 0.95l-0.2 0.15q-0.65 0.4-1.05-0.2-0.45-0.65 0.25-1.1l0.85-0.05 0.25 0.25m-3.45-2.65q-0.75 0.4-1-0.25-0.3-0.7 0.2-1.05 0.45-0.4 1 0.25 0.55 0.6-0.2 1.05m1.7 0.45q0.3 0.65-0.4 1.05-0.65 0.4-0.9-0.25-0.2-0.65 0.4-1.05 0.55-0.4 0.9 0.25m-4.1-1.85q-0.25-0.65 0.4-1.05 0.7-0.35 1 0.25 0.35 0.55-0.45 1-0.75 0.45-0.95-0.2m4.5 7.85 0.75 0.1q0.25 0.45-0.2 0.75l-0.7-0.1q-0.3-0.45 0.15-0.75m-2.95 1.3q-0.25-0.7 0.45-1.05 0.7-0.4 1.05 0.2t-0.45 1.1q-0.8 0.45-1.05-0.25m-1.05-0.25q0.45 0.55-0.15 0.9t-0.8-0.25q-0.25-0.55 0.15-0.85 0.35-0.3 0.8 0.2m5.25-1.95q-0.15-0.45 0.25-0.7 0.4-0.3 0.65 0.15 0.2 0.45-0.25 0.7-0.5 0.3-0.65-0.15m-11.55-8.2q0.35 0.6-0.45 1.1-0.8 0.45-1.05-0.25t0.45-1.05q0.7-0.4 1.05 0.2m0.25-2.25q0.55-0.5 1.25 0.15 0-0.45 0.45-0.75 0.55-0.4 0.9 0.25 0.3 0.65-0.4 1.05l-0.45 0.15q0.15 0.6-0.6 1-1.05 0.6-1.4-0.35t0.25-1.5m3.3 1.5q-0.45-0.65 0.25-1.1 0.65-0.45 1.05 0.2t-0.25 1.1q-0.65 0.4-1.05-0.2m-9.3 5.15 0.75-0.05q0-0.45 0.4-0.7 0.55-0.4 0.85 0.2t-0.35 1l-0.25 0.15q0.3 0.55-0.45 0.95-0.85 0.5-1.15-0.3-0.35-0.8 0.2-1.25m-0.9 1.9q0.35 0.55-0.45 1-0.75 0.45-0.95-0.2-0.25-0.65 0.4-1.05 0.7-0.35 1 0.25m0.35 4.35q-0.25-0.8 0.45-1.3 0.7-0.45 1.1 0.3 0.4 0.8-0.45 1.3-0.85 0.45-1.1-0.3m-1.9-1.8q-0.35-0.55 0.25-0.95 0.55-0.45 0.9 0.15 0.35 0.55-0.2 0.95-0.55 0.35-0.95-0.15m5.75-7.05q0.8-0.55 1.25 0.2 0.5 0.8-0.3 1.3-0.75 0.5-1.25-0.2-0.5-0.75 0.3-1.3m1.45 8.95q-0.15-0.4 0.25-0.6 0.35-0.2 0.55 0.15 0.2 0.3-0.25 0.55l-0.55-0.1m-2.75 0.2q-0.3-0.75 0.25-1.2 0.5-0.45 1.1 0.25 0.65 0.75-0.2 1.25-0.85 0.45-1.15-0.3m6.75 0.2q-0.25-0.85 0.5-1.4 0.75-0.5 1.2 0.35 0.45 0.8-0.5 1.35-0.9 0.55-1.2-0.3m-1.15-0.8q0.45 0.75-0.3 1.25-0.75 0.45-1.2-0.25-0.5-0.7 0.25-1.25 0.75-0.5 1.25 0.25" fill="#deb185" fill-opacity=".50196" fill-rule="evenodd"/>
</g>
<g id="f" transform="translate(-388.65,-298)">
<path d="m396.1 317.55q4.1 1.45 4.25 1.05l0.6-3.3q0.45-2.85-0.05-6.5l-0.6-2.8-0.45-1.25q-0.6-0.9-3.65-2.45-3.05-1.45-4.5-1.6l-0.8-0.05q-0.8 0.25-0.95 1.3-0.2 1.5-0.25 2.95l0.05 4.3 0.15 3.65q0.1 1.1 0.65 1.6l0.95 0.7-0.05 0.05-0.45-0.2q-1.75-0.95-1.75-3 0.35-2.55 0.1-6.15-0.25-3.65-0.2-5.6l0.1-0.7 0.2-1.05q-0.15 0.5 1 1l1.05 0.5q4.85 1.25 9 4.1l1.45 0.4q0.3 0.1-0.15 2.15-0.45 2-0.15 5.45 0.25 3.4-0.25 6.75 0 0.85 0.35 1.2l-0.05 0.15-0.3-0.15-0.25-0.1-5.05-2.4" fill="#b2ccf0" fill-rule="evenodd"/>
<path d="m391.5 315.15-0.95-0.7q-0.55-0.5-0.65-1.6l-0.15-3.65-0.05-4.3q0.05-1.45 0.25-2.95 0.15-1.05 0.95-1.3l0.8 0.05q1.45 0.15 4.5 1.6 3.05 1.55 3.65 2.45l0.45 1.25 0.6 2.8q0.5 3.65 0.05 6.5l-0.6 3.3q-0.15 0.4-4.25-1.05l-4.35-2.2-0.25-0.15v-0.05" fill="#7abef5" fill-rule="evenodd"/>
<path d="m396.1 317.55 5.05 2.4 0.25 0.1 0.3 0.15m-12.25-21.7-0.2 1.05-0.1 0.7q-0.05 1.95 0.2 5.6 0.25 3.6-0.1 6.15 0 2.05 1.75 3l0.45 0.2m0.3 0.15 4.35 2.2z" fill="none" stroke="#176867" stroke-linecap="round" stroke-linejoin="round" stroke-opacity=".50196"/>
<path d="m391.6 313.3-0.5-0.6q-0.15-0.45 0-0.85 0.15-0.3 0.5-0.4l0.6 0.05q0.35 0.2 0.5 0.65v0.8l-0.45 0.5-0.65-0.15" fill="#c3ffff" fill-opacity=".58039" fill-rule="evenodd"/>
<path d="m397.2 307.3q-0.4 0-0.7-0.35t-0.3-0.8 0.3-0.8q0.3-0.3 0.7-0.3 0.45 0 0.75 0.3l0.25 0.8-0.25 0.8q-0.3 0.35-0.75 0.35" fill="#c2ffff" fill-opacity=".46274" fill-rule="evenodd"/>
<path d="m397.55 307.3q-0.3 0-0.5-0.2l-0.2-0.55q0-0.35 0.2-0.55 0.2-0.25 0.5-0.25l0.5 0.25 0.2 0.55-0.2 0.55-0.5 0.2" fill="#c3ffff" fill-opacity=".58039" fill-rule="evenodd"/>
</g>
<g id="a" transform="translate(26.8,26.8)">
<path d="m-4.75-26.4 4.75-0.4q11.1 0 18.95 7.85t7.85 18.95q0 10.95-7.6 18.75l-0.25 0.2-2 1.85q-4 2.1-9.5 2.2l-0.15 0.6-4.8-0.65q-7.5-2.85-11.5-8.5l-0.4-0.25q-13.9-19.15 3-38.35 0.9-1.05 1.65-2.25" fill="#ee2611" fill-opacity=".13726" fill-rule="evenodd"/>
<path d="m16.95 20.8-0.3 0.25q-7.1 5.75-16.65 5.75-11.1 0-18.95-7.85t-7.85-18.95 7.85-18.95l3.25-2.8 2-1.35q4.1-2.5 8.95-3.3-0.75 1.2-1.65 2.25-16.9 19.2-3 38.35l0.4 0.25q4 5.65 11.5 8.5l4.8 0.65 0.15-0.6q5.5-0.1 9.5-2.2" fill="#631814" fill-opacity=".13726" fill-rule="evenodd"/>
<path d="m17.85-3.2q-2.15 2.2-5.2 2.2t-5.25-2.2q-2.15-2.15-2.15-5.2t2.15-5.25q2.2-2.15 5.25-2.15t5.2 2.15q2.2 2.2 2.2 5.25t-2.2 5.2" fill="#fbd8a6" fill-opacity=".13726" fill-rule="evenodd"/>
</g>
<g id="e" transform="translate(-389.05,-292.05)">
<path d="m413.3 312.45q0.6 1.05-0.45 1.7l-5.6 3.35q-4.55 2.75-8.35 0.35-3.75-2.35-5.8-2.85-2-0.5-2.2-1.05t10.65-5.45q2.25-1.45 6.7 0.75 4.4 2.15 5.05 3.2" fill="#4d1310" fill-opacity=".17255" fill-rule="evenodd"/>
<path d="m405.85 294.95-2.55-1.55q-0.95-0.6-1.8-0.45-1.05 0.15-2.95 1.15l-3.15 1.65-3.85 1.95-0.2 0.1q-0.65 0.55-0.5 1.05 0 0.15 1.2 0.7l5.05 2.4 4.6 1.95q0.7 0.1 1.95-0.55l2.95-1.6q1.8-0.95 3.95-1.85 2.05-1 2.65-1.85v-0.25l-0.5-0.3q-3.7-1-6.85-2.55m-16.3 3.55q0.05-0.3 0.65-0.65l1.35-0.75 8.4-4.1q1.85-0.9 3.85-0.05 4.4 2.65 10.1 4.5 0.95 0.45 1.15 0.75-0.1 0.6-1.05 1.1-5.6 1.2-10.55 5l-0.1 0.1-0.2 0.1-1.95-0.2q-0.95-0.2-2.4-1.05-2.75-2.05-7.25-3.25l-1-0.45q-1.15-0.55-1-1.05" fill="#fff" fill-rule="evenodd"/>
<path d="m403.25 304.45-0.1 0.05v0.05-0.05l0.1-0.05" fill="#f0e4c3" fill-rule="evenodd"/>
<path d="m403.15 304.55-1.45 0.8-1.15-0.8-1.75-1.3q1.45 0.85 2.4 1.05l1.95 0.2v0.05" fill="#a0abc8" fill-rule="evenodd"/>
<path d="m405.85 294.95q3.15 1.55 6.85 2.55l0.5 0.3v0.25q-0.6 0.85-2.65 1.85-2.15 0.9-3.95 1.85l-2.95 1.6q-1.25 0.65-1.95 0.55l-4.6-1.95-5.05-2.4q-1.2-0.55-1.2-0.7-0.15-0.5 0.5-1.05l0.2-0.1 3.85-1.95 3.15-1.65q1.9-1 2.95-1.15 0.85-0.15 1.8 0.45l2.55 1.55" fill="url(#i)" fill-rule="evenodd"/>
<path d="m389.55 298.5q0.05-0.3 0.65-0.65l1.35-0.75 8.4-4.1q1.85-0.9 3.85-0.05 4.4 2.65 10.1 4.5 0.95 0.45 1.15 0.75" fill="none" stroke="#176867" stroke-linecap="round" stroke-linejoin="round" stroke-opacity=".50196"/>
</g>
<linearGradient id="i" x1="-819.2" x2="819.2" gradientTransform="matrix(-.0115 0 0 -.0067 399.7 298.4)" gradientUnits="userSpaceOnUse">
<stop stop-color="#f0ffff" offset="0"/>
<stop stop-color="#b0ffff" offset="1"/>
</linearGradient>
<g id="d" transform="translate(-400.6,-293.55)">
<path d="m409.2 299-0.3 0.6-0.6 0.3-0.5-0.2-0.15-0.5 0.3-0.6 0.6-0.3 0.5 0.2 0.15 0.5" fill="#c3ffff" fill-rule="evenodd"/>
<path d="m402.75 294.9-0.6 0.65-0.85 0.05-0.6-0.5q-0.2-0.4-0.05-0.8 0.15-0.45 0.55-0.65l0.9-0.05 0.65 0.55v0.75" fill="#c3ffff" fill-rule="evenodd"/>
</g>
<g id="c" transform="translate(-388.6,-286.35)">
<path d="m401.5 299.1-0.3 0.35-0.55 0.05-0.35-0.3v-0.5q0.1-0.25 0.35-0.35l0.5-0.05 0.35 0.3v0.5" fill="#c3ffff" fill-rule="evenodd"/>
<path d="m401.75 319.9q-0.3-0.35-0.3-1.15l0.2-6.75-0.3-5.1q-0.1-0.7 0.15-1.4l0.3-0.75q2.45-1.9 5.95-3.45 3.35-1.5 6.2-2.15 0.95-0.45 1.1-1.05l0.1 0.15-0.05-0.05q-0.1 0.6-1.05 1.05-2.9 0.65-6.25 2.15-3.5 1.55-5.9 3.4l-0.35 0.8-0.15 1.4 0.3 5.1-0.15 6.75 0.2 1.05" fill="#ffe4bb" fill-rule="evenodd"/>
<path d="m401.75 319.9-0.2-1.05 0.15-6.75-0.3-5.1 0.15-1.4 0.35-0.8q2.4-1.85 5.9-3.4 3.35-1.5 6.25-2.15 0.95-0.45 1.05-1.05l0.05 0.05q0.45 0.65 0.55 1.85l-0.05 1.7q-0.15 2.7 0 8.15l0.4 2.1q0.2 1.65-1.4 2.55l0.25-0.3q0.8-1.15 0.6-4l-0.15-4q0-3.75-0.55-5.5-1.85-1.4-5.3 0.5-3.55 1.85-5.05 3.2l-1.85 2.05q-1.1 5.7-0.4 9.05 0.25 1.3 0.75 2.15 0.85 1.2 2.25 1.15l0.6-0.1 0.5-0.1-2.8 1.35h-0.1l-1.35 0.2-0.2-0.2-0.1-0.15" fill="#ceebff" fill-rule="evenodd"/>
<path d="m406.3 318.7-0.5 0.1-0.6 0.1q-1.4 0.05-2.25-1.15-0.5-0.85-0.75-2.15-0.7-3.35 0.4-9.05l1.85-2.05q1.5-1.35 5.05-3.2 3.45-1.9 5.3-0.5 0.55 1.75 0.55 5.5l0.15 4q0.2 2.85-0.6 4l-0.25 0.3-1.1 0.6q-2.8 1.1-7.25 3.5" fill="#b0ffff" fill-rule="evenodd"/>
<path d="m415.1 298.2 0.05 0.05m-0.5 16.35q1.6-0.9 1.4-2.55l-0.4-2.1q-0.15-5.45 0-8.15l0.05-1.7q-0.1-1.2-0.55-1.85m-13.1 22 1.35-0.2h0.1l2.8-1.35q4.45-2.4 7.25-3.5l1.1-0.6" fill="none" stroke="#176867" stroke-linecap="round" stroke-linejoin="round" stroke-opacity=".50196"/>
<path d="m415.15 298.25-0.1-0.15" fill="none" stroke="#6e3017" stroke-linecap="round" stroke-linejoin="round" stroke-opacity=".50196"/>
<path d="m388.6 301.35 3.55-1.95 1.8 1.05 5.5 3.4q1.05 0.65 0.45 1.7t-6.15 3.3q-5.5 2.25-5 0.8 0.5-1.5 0.05-5.9l-0.2-2.4" fill="url(#h)" fill-rule="evenodd"/>
<path d="m404.55 317.25q5.15-6.3 8.45-5.45 1.1 0.25 1.6 1.5-0.45 0.25-1.15 1.65l-1.15 2.3q-2.15 1-7.75 0" fill="#c5ffff" fill-rule="evenodd"/>
<path d="m414.6 313.3q-0.45 0.25-1.15 1.65l-1.15 2.3q-2.15 1-7.75 0" fill="none" stroke="#2b0f09" stroke-linecap="round" stroke-linejoin="round" stroke-opacity=".50196" stroke-width=".5"/>
<path d="m404.7 316.5q-1 0.4-1.15 0.75" fill="none" stroke="#2b0f09" stroke-linecap="round" stroke-linejoin="round" stroke-opacity=".50196" stroke-width=".5"/>
<path d="m403.6 317.35q0 0.55 1 1.2" fill="none" stroke="#2b0f09" stroke-linecap="round" stroke-linejoin="round" stroke-opacity=".50196" stroke-width=".5"/>
<path d="m414.9 310.35q-0.55 2.35-2.8 2.95l-1 0.25q-0.5 0.05-0.95 0.25l-1.35 1.1-1.25 1.15q-1.25 0.9-2.45 0.8-1.1-0.05-1.6-0.75-1.15-1.5-0.95-4.7 2.9-4 6.4-0.3l-0.15-1.2 0.1 0.25q0.5 1.1 0.75 0.35-0.1-2.35 0.3-0.45 0.9-4.1 4.35-5.5 1.1 3.45 0.6 5.8" fill="#7bc3f8" fill-rule="evenodd"/>
<path d="m408.3 314.25-0.15 0.4-0.6 1.05q-0.85 1.1-1.95 1.25-1.15 0.1-1.85-0.9-0.75-0.95-0.65-2.45v-0.15l5.2 0.8" fill="#ede8de" fill-rule="evenodd"/>
<path d="m403.1 313.45v-0.2q0.2-1.25 0.95-2.25 0.9-1.15 2-1.25 1.1-0.15 1.8 0.85 0.75 1 0.65 2.5l-0.2 1.15-5.2-0.8" fill="#c1bca9" fill-rule="evenodd"/>
<path d="m408.3 314.25-0.15 0.4-0.6 1.05q-0.85 1.1-1.95 1.25-1.15 0.1-1.85-0.9-0.75-0.95-0.65-2.45v-0.35q0.2-1.25 0.95-2.25 0.9-1.15 2-1.25 1.1-0.15 1.8 0.85 0.75 1 0.65 2.5z" fill="none" stroke="#2b0f09" stroke-linecap="round" stroke-linejoin="round" stroke-opacity=".50196" stroke-width=".5"/>
<path d="m407.65 313.25 0.1 0.65 0.3 0.3 0.35-0.35 0.1-0.65-0.1-0.65q-0.15-0.3-0.35-0.25l-0.3 0.3-0.1 0.65" fill-rule="evenodd"/>
<path d="m407.65 312.35-0.45 0.05-0.25 0.3 0.15 0.3q0.15 0.2 0.4 0.2h0.4l0.25-0.25-0.1-0.35-0.4-0.25" fill="#fff" fill-rule="evenodd"/>
<path d="m405.1 315.7q0.2 0.4-0.05 0.6l-0.55-0.1-0.6-0.7-0.3-0.95q0-0.5 0.2-0.7 0.25-0.15 0.5 0.5l0.45 0.85 0.35 0.5" fill="#fff" fill-rule="evenodd"/>
<path d="m407.3 310.55q0.55 0 1.05 0.65l0.5 1.35v0.5l-0.5 1.3q-0.5 0.65-1.05 0.65-0.65 0-1.15-0.65l-0.2-0.35-0.15-0.65v-0.55q0-0.95 0.35-1.6 0.5-0.65 1.15-0.65" fill="#210" fill-rule="evenodd"/>
<path d="m407.3 310.55q0.55 0 1.05 0.65l0.5 1.35v0.5l-0.5 1.3q-0.5 0.65-1.05 0.65-0.65 0-1.15-0.65l-0.2-0.35-0.15-0.65v-0.55q0-0.95 0.35-1.6 0.5-0.65 1.15-0.65z" fill="none" stroke="#000" stroke-linecap="round" stroke-linejoin="round" stroke-width=".05"/>
<path d="m406.7 312.9-0.5 0.2-0.55-0.2-0.2-0.55 0.2-0.5 0.55-0.2 0.5 0.2 0.25 0.5-0.25 0.55" fill="#fff" fill-rule="evenodd"/>
<path d="m408.3 314.25q-0.25 0.35-0.65 0.4l-0.65-0.1-0.3-0.4q0-0.35 0.3-0.65l0.65-0.4 0.65 0.1 0.3 0.5-0.3 0.55" fill="#cbf468" fill-rule="evenodd"/>
<path d="m409.2 314.5-1.15 1.45q-1.1 1.1-2.35 1.45-1.95-0.05-2.75-2.4l-0.25-0.65q3.1-1.15 6.5 0.15" fill="#b0ffff" fill-rule="evenodd"/>
<path d="m409.2 314.5q-3.4-1.3-6.5-0.15m6.5 0.15 0.1-0.25" fill="none" stroke="#2b0f09" stroke-linecap="round" stroke-linejoin="round" stroke-opacity=".50196" stroke-width=".5"/>
<path d="m406.6 314.2-0.7 1.45m1.2-1.05-0.3 0.6m-1.95-0.05-0.85 1.75m1.6-2-0.75 1.45" fill="none" stroke="#900" stroke-linecap="round" stroke-linejoin="round" stroke-opacity=".25098" stroke-width="1.5"/>
<path d="m414.75 307.6 0.05 0.35 0.05 1.05q-0.15 1.5-0.8 2.6-0.7 1.15-1.6 1.25-0.75 0.05-1.2-0.6l-0.05-0.05-0.05-0.15h-0.05l1.55-2.05 2.1-2.4" fill="#ede8de" fill-rule="evenodd"/>
<path d="m411.1 312.05-0.05-0.15q-0.6-1-0.5-2.5t0.8-2.6q0.7-1.15 1.55-1.2 0.9-0.1 1.5 0.9l0.35 1.1-2.1 2.4-1.55 2.05" fill="#c1bca9" fill-rule="evenodd"/>
<path d="m411.1 312.05-0.05-0.15q-0.6-1-0.5-2.5t0.8-2.6q0.7-1.15 1.55-1.2 0.9-0.1 1.5 0.9l0.35 1.1 0.05 0.35 0.05 1.05q-0.15 1.5-0.8 2.6-0.7 1.15-1.6 1.25-0.75 0.05-1.2-0.6l-0.05-0.05-0.05-0.15z" fill="none" stroke="#2b0f09" stroke-linecap="round" stroke-linejoin="round" stroke-opacity=".50196" stroke-width=".5"/>
<path d="m411 311.2 0.1 0.65 0.3 0.3 0.25-0.3 0.1-0.65-0.1-0.65-0.25-0.3q-0.2 0-0.3 0.3l-0.1 0.65" fill-rule="evenodd"/>
<path d="m411.05 310.3-0.4 0.05q-0.2 0.05-0.25 0.25l0.15 0.35 0.35 0.2h0.4l0.2-0.25-0.1-0.35-0.35-0.25" fill="#fff" fill-rule="evenodd"/>
<path d="m411.65 307.8q0.45 0 0.8 0.7l0.4 1.5v0.5l-0.4 1.4q-0.35 0.7-0.8 0.7-0.5 0-0.85-0.7l-0.15-0.35-0.1-0.7v-0.6q0-1.05 0.25-1.75 0.35-0.7 0.85-0.7" fill="#210" fill-rule="evenodd"/>
<path d="m411.65 307.8q0.45 0 0.8 0.7l0.4 1.5v0.5l-0.4 1.4q-0.35 0.7-0.8 0.7-0.5 0-0.85-0.7l-0.15-0.35-0.1-0.7v-0.6q0-1.05 0.25-1.75 0.35-0.7 0.85-0.7z" fill="none" stroke="#000" stroke-linecap="round" stroke-linejoin="round" stroke-width=".05"/>
<path d="m411.15 310.3-0.4 0.25-0.4-0.25-0.15-0.55q0-0.35 0.15-0.55 0.15-0.25 0.4-0.25l0.4 0.25 0.15 0.55-0.15 0.55" fill="#fff" fill-rule="evenodd"/>
<path d="m412.4 311.85-0.5 0.35h-0.5l-0.2-0.55 0.2-0.65 0.5-0.45 0.5 0.1 0.2 0.55-0.2 0.65" fill="#cbf468" fill-rule="evenodd"/>
<path d="m415.2 308.85-0.15 0.8q-0.45 2.75-1.7 3.8l-1.5-0.15-0.7-0.85 0.1-0.05q2.1-3.05 3.95-3.55" fill="#b0ffff" fill-rule="evenodd"/>
<path d="m411.15 312.45 0.1-0.05q2.1-3.05 3.95-3.55" fill="none" stroke="#2b0f09" stroke-linecap="round" stroke-linejoin="round" stroke-opacity=".50196" stroke-width=".5"/>
<path d="m414.15 311.1-0.6 1.15m1-0.85-0.25 0.55m-0.95-0.25-0.7 1.25m0.05-1.05-0.7 1.4" fill="none" stroke="#900" stroke-linecap="round" stroke-linejoin="round" stroke-opacity=".25098" stroke-width="1.5"/>
<path d="m414.7 310.1 0.2 0.3q0.45 0.7 1.05 0.75l0.05-0.05 0.25-0.2-0.05-0.5-0.8-0.5q-0.45-0.05-0.7 0.2" fill="#4f2217" fill-rule="evenodd"/>
<path d="m414.7 310.1-0.05 0.1q0 0.6 0.55 1.3 0.6 0.65 0.8 0.4l0.3-0.7-0.05-0.3-0.25 0.2-0.05 0.05q-0.6-0.05-1.05-0.75l-0.2-0.3" fill="#280d0b" fill-rule="evenodd"/>
<path d="m416.25 310.9 0.05 0.3-0.3 0.7q-0.2 0.25-0.8-0.4-0.55-0.7-0.55-1.3l0.05-0.1m1.55 0.8-0.05-0.5-0.8-0.5q-0.45-0.05-0.7 0.2" fill="none" stroke="#2b0f09" stroke-linecap="round" stroke-linejoin="round" stroke-opacity=".50196"/>
<path d="m403.4 315.3-0.1 0.5q-0.2 1.15-0.95 1.6h-0.05l-0.45-0.1v-0.7q0.1-0.7 0.7-1.15 0.55-0.35 0.85-0.15" fill="#4f2217" fill-rule="evenodd"/>
<path d="m401.85 317.3 0.45 0.1h0.05q0.75-0.45 0.95-1.6l0.1-0.5 0.1 0.05q0.3 0.7-0.15 2-0.35 1.2-0.75 1-0.4-0.15-0.6-0.7l-0.15-0.35" fill="#280d0b" fill-rule="evenodd"/>
<path d="m401.85 317.3 0.15 0.35q0.2 0.55 0.6 0.7 0.4 0.2 0.75-1 0.45-1.3 0.15-2l-0.1-0.05q-0.3-0.2-0.85 0.15-0.6 0.45-0.7 1.15z" fill="none" stroke="#2b0f09" stroke-linecap="round" stroke-linejoin="round" stroke-opacity=".50196"/>
<path d="m393.1 288.4 0.05 0.25v0.1q0.25 0.4 0.9 0.55h0.6l0.2-0.15v-0.4q-0.15-0.45-1.35-0.8l-0.4 0.4v0.05m0.85 3.75q-2.05-1.1-1.55-3.05l0.2-0.55q0.25-0.9 1-1.65 1.55 1 3.05 1.65-0.75 0.3-1.25 0.75l-0.4 0.45q-0.9 0.95-1.05 2.4 0.15-1.45 1.05-2.4l0.4-0.45q0.5-0.45 1.25-0.75 1.8-0.45 4.1 1.3l4.75 0.1q0.85-0.65 1.9-1.15 1.05-0.45 2.2-0.55l2.05-1.9h0.75l0.85 0.55 0.7 1.2q0.7 1.55-0.95 2.7l-0.35 0.55q-1.8 1.35-4.55 1.95l-1.35 0.3-5.95 0.2q-5.25 0.35-5.95-0.7l-0.9-0.95m1.95-1.65 0.2 0.05h0.1q0.3 0.25 1.25 0.5l1.3 0.15q0.45-0.15 0.3-0.6l-0.3-0.45q-0.45-0.25-1.05-0.35l-0.65-0.05-0.65 0.05q-0.45 0.15-0.55 0.65l0.05 0.05m9.6-0.55 1 0.75q0.75 1.05 0.25 2.9 0.5-1.85-0.25-2.9l-1-0.75m-4.75-0.1-0.4 0.75q-0.6 1.6 0.45 3.2-1.05-1.6-0.45-3.2l0.4-0.75m4.55 1.2q-0.15-0.45-1.45-0.65l-1.65-0.05q-0.3 0.1-0.3 0.35l0.05 0.3v0.2l-0.05 0.35q0.15 0.5 1.35 0.5l0.75 0.05 0.8-0.15 0.6-0.65-0.1-0.25m7.95-3.6-0.2-0.45-0.75-0.05q-0.5 0.15-0.35 0.6v0.05l0.45 0.25 0.65 0.05 0.3-0.2-0.1-0.25m-3.45 1.3-1.3 0.5q-0.6 0.25-0.6 0.7v0.3q0.15 0.4 0.8 0.45l0.95-0.1q1.75-0.6 1.45-1.4l-0.65-0.5h-0.45l-0.2 0.05m3.2 2.05q0.1-2.45-2.05-2.6l-1.35 0.05 1.35-0.05q2.15 0.15 2.05 2.6" fill="#9c7c3e" fill-rule="evenodd"/>
<path d="m395.9 290.5-0.05-0.05 0.05 0.05" fill="#bd974b" fill-rule="evenodd"/>
<path d="m393.1 288.4v-0.05l0.4-0.4q1.2 0.35 1.35 0.8v0.4l-0.2 0.15h-0.6q-0.65-0.15-0.9-0.55v-0.1l-0.05-0.25m2.75 2.05q0.1-0.5 0.55-0.65l0.65-0.05 0.65 0.05q0.6 0.1 1.05 0.35l0.3 0.45q0.15 0.45-0.3 0.6l-1.3-0.15q-0.95-0.25-1.25-0.5h-0.1l-0.2-0.05-0.05-0.05m13.95-1.7 0.2-0.05h0.45l0.65 0.5q0.3 0.8-1.45 1.4l-0.95 0.1q-0.65-0.05-0.8-0.45v-0.3q0-0.45 0.6-0.7l1.3-0.5m3.45-1.3 0.1 0.25-0.3 0.2-0.65-0.05-0.45-0.25v-0.05q-0.15-0.45 0.35-0.6l0.75 0.05 0.2 0.45m-7.95 3.6 0.1 0.25-0.6 0.65-0.8 0.15-0.75-0.05q-1.2 0-1.35-0.5l0.05-0.35v-0.2l-0.05-0.3q0-0.25 0.3-0.35l1.65 0.05q1.3 0.2 1.45 0.65" fill="#e0b359" fill-rule="evenodd"/>
<path d="m396.65 288.55q-1.5-0.65-3.05-1.65-0.75 0.75-1 1.65l-0.2 0.55q-0.5 1.95 1.55 3.05 0.15-1.45 1.05-2.4l0.4-0.45q0.5-0.45 1.25-0.75 1.8-0.45 4.1 1.3l4.75 0.1q0.85-0.65 1.9-1.15 1.05-0.45 2.2-0.55l2.05-1.9h0.75l0.85 0.55 0.7 1.2q0.7 1.55-0.95 2.7l-0.35 0.55q-1.8 1.35-4.55 1.95l-1.35 0.3-5.95 0.2q-5.25 0.35-5.95-0.7l-0.9-0.95m6.85 1.65q-1.05-1.6-0.45-3.2l0.4-0.75m6 3.75q0.5-1.85-0.25-2.9l-1-0.75m4.1-1.7 1.35-0.05q2.15 0.15 2.05 2.6" fill="none" stroke="#000" stroke-linecap="round" stroke-linejoin="round" stroke-opacity=".50196" stroke-width=".05"/>
</g>
<linearGradient id="h" x1="-819.2" x2="819.2" gradientTransform="matrix(-5e-4 .0038 -.0074 -9e-4 393.9 305.2)" gradientUnits="userSpaceOnUse">
<stop stop-color="#8078c2" stop-opacity=".34118" offset="0"/>
<stop stop-color="#deeaf5" stop-opacity="0" offset="1"/>
</linearGradient>
</defs>
</svg>
