<?xml version="1.0" encoding="UTF-8"?>
<svg version="1.1" viewBox="0 0 62.024 54" xmlns="http://www.w3.org/2000/svg" xmlns:cc="http://creativecommons.org/ns#" xmlns:dc="http://purl.org/dc/elements/1.1/" xmlns:rdf="http://www.w3.org/1999/02/22-rdf-syntax-ns#" xmlns:xlink="http://www.w3.org/1999/xlink">
<metadata>
<rdf:RDF>
<cc:Work rdf:about="">
<dc:format>image/svg+xml</dc:format>
<dc:type rdf:resource="http://purl.org/dc/dcmitype/StillImage"/>
</cc:Work>
</rdf:RDF>
</metadata>
<g transform="translate(-254.13 -218.55)">
<use transform="translate(254.1,218.55)" width="62.049999" height="54" xlink:href="#a"/>
</g>
<defs>
<g id="a" transform="translate(-254.1,-218.55)">
<path d="m308.4 263.8 0.15 0.05-0.05 0.05-0.1-0.1" fill="#fffdea" fill-rule="evenodd"/>
<path d="m283 226.7-0.35-0.3 0.8 0.2-0.45 0.1m21.15 26.15-0.15-0.05 0.35-0.1-0.2 0.15m4.45 1.55v-0.1h0.65l-0.65 0.1m-5.7 2.8v-0.15h0.1l-0.1 0.15" fill="#d9cebf" fill-rule="evenodd"/>
<path d="m294.95 254.35v0.1l-0.4 0.2 0.4-0.3m0.1 12.8v-0.2l0.1-0.25-0.05 0.4-0.05 0.05m1.3-1-0.05-0.05-0.1-0.35q-0.3-1.4-0.2-2.9l0.2-1.65 0.1-0.5 0.25-1.1q0.95 0.3 1.5 1l0.05 0.1 0.15 0.15 0.05 0.4 0.15 0.1-0.15-0.1-0.05-0.4 0.2 0.5q0.35 1.05 0 2.6l0.1 0.1 0.8 0.35q1 0.65 2.25 0.95l5.05 0.35 0.15-0.2 0.1-0.7 0.45-0.2v0.05l0.15 0.2 1-0.95 0.05-0.05-0.15-0.05q-1.25-0.95-1.05-2.5 1.45-1.05 3.1-0.4l0.25-0.6 0.05-0.15q0.9-2.6 0.8-5.6l-0.3-2.5q2.2 2.5 3.35 5.35-0.2 2.5-0.9 4.95l-0.75 2.35-0.45 0.6-0.6 0.2q-0.65 0.4-1.3 0.45l-0.25 1.05 0.1 0.25 0.15 0.15 0.65 0.1 0.1 0.1 0.1 0.5-0.15 0.3-0.3 0.15-0.5 0.15q-1.3-1.6-3.35-1.5l-2.4 0.15-0.4 0.4v0.2l0.2 0.55-0.05 0.75-1.6-0.4 0.4-0.9 0.35-0.2v-0.5l-0.4-0.5-0.55-0.55q-1.75-0.25-2.4 1.25-0.6 1.45-0.05 2.85-2.7-1.5-3.9-4.15m-13.35-39.45q0.75 0.8 0.65 2.1v0.2q-1 0.7-2.45 0.4-0.45-0.65-0.35-1.6l0.15-0.6 2-0.5m8.2 13.3q-1.8 6.5-6.1 1.1-2.15-2.6 1-3.9l-0.2-0.4q3.4-0.3 5.1 2.8l0.2 0.4m-19.95-7-0.6 0.65q-0.55 0.7-0.45 1.55l1.05 1.8h0.8q1.25 0.2 2.25-0.4v-0.4q0-2.35-2.25-3.2h-0.8m6 6.2 2.75 3.2 0.2 1-4.3-3.85-0.2 0.05q-0.05 0.6 0.05 1.2 0.15 0.9-0.45 1.4-0.45 0-0.65-0.4l-0.3-0.8-0.05-0.2q-0.25-0.4-0.3 0.15l-0.35 0.6-0.6 0.25-0.65-0.75-0.15-0.05h-0.6l-0.2-1.4q-3.6-1.9-3.25-6 0-0.95 0.4-1.8 2.15-2.2 3.2-1.8 3.6-1 5.25 0.6t0.9 8l-0.8 0.45 0.1 0.15m2.55 14.4-1.65 0.2q-0.8-0.4-0.5-1.1 0.1-0.3 0.5-0.5h1.45l0.2 1.4m27.95 3.2v0.15l0.9 0.2h0.35l0.4-0.75-0.2-0.65-0.2-0.3h-0.35q-0.95 0.35-0.9 1.35m0.85-2.5v0.1q0.85 0.05 1.5 0.55l0.15 0.75q0.1 1.7-1.35 2.5l-0.05 0.6h-0.3l-0.3 0.3-0.25-0.1-0.15-0.25q-0.05-0.2-0.1-0.05l-0.05 0.1-0.1 0.3-0.25 0.2q-0.3-0.25-0.2-0.6v-0.5h-0.1l-1.75 1.6 0.1-0.45 1.15-1.35-0.3-0.2q0.2-2.05 1.5-3.5h0.85m1.75 4.9 0.15 0.15-0.15 0.7-0.6 0.05-0.1-0.15q-0.25-0.7 0.45-0.65l0.25-0.1m-7.45-2q1.25 0.55 0.4 1.65-1.05 1.3-1.7 0.9-0.5-0.25-0.8-1.4l0.1-0.15q0.55-1.1 1.65-1.15h0.35v0.15" fill="#fc3" fill-rule="evenodd"/>
<path d="m257.5 237.65q0.45 6.05 2.3 11.95l1.85 5.6 1.05 1.4q0.75 0.05 1.45 0.5 1.5 1.05 3.2 1.1l0.65 2.6-0.3 0.55-0.45 0.3-1.5 0.35-0.2 0.2-0.2 1.2 0.3 0.65q0.15 0.3 0.65 0.45l1.25 0.3q3.15-3.8 8.15-3.6 3-0.55 5.9 0.4l0.65 0.6 0.2 0.2 0.15 0.2 0.05 0.4-0.6 1.4 0.2 1.8 3.85-1-1-2.2-0.85-0.4v-1.2l1-1.3q0.4-0.75 1.05-1.1l0.2-0.2q4.25-0.5 5.85 2.95l0.05 0.1q1.45 3.45 0.15 6.85l-3.25 1.55-2.45 0.85q-4.05 1.2-8.15 1.2t-8.1-1.2l-2.45-0.85q-9.2-3.7-12.9-11.65-1.75-6.15 0-13 0.7-4.15 2.25-7.95m57.1 19.75q0.65 1.6 0.95 3.3 0.7 2.85 0 5.4-1.55 3.3-5.3 4.85l-1 0.35-3.3 0.5-3.35-0.5-1-0.35-1.35-0.65q-0.55-1.4 0.05-2.85 0.65-1.5 2.4-1.25l0.55 0.55 0.4 0.5v0.5l-0.35 0.2-0.4 0.9 1.6 0.4 0.05-0.75-0.2-0.55v-0.2l0.4-0.4 2.4-0.15q2.05-0.1 3.35 1.5l0.5-0.15 0.3-0.15 0.15-0.3-0.1-0.5-0.1-0.1-0.65-0.1-0.15-0.15-0.1-0.25 0.25-1.05q0.65-0.05 1.3-0.45l0.6-0.2 0.45-0.6 0.75-2.35q0.7-2.45 0.9-4.95" fill="#330" fill-rule="evenodd"/>
<path d="m272.45 253.25-0.05-0.05 0.3-0.2-0.25 0.25m5.5-14.65-0.7 0.6-0.1-0.15 0.8-0.45" fill="#ff0" fill-rule="evenodd"/>
<path d="m294.95 254.45-0.15 0.1-0.25 0.15v-0.05l0.4-0.2" fill="#ff9" fill-rule="evenodd"/>
<path d="m297.8 233.2q0.7 4.45 0.85 8.05l-0.8-1.8q-0.6-1.5-1.9-2.6l-0.85-0.7q-0.6-0.6-1.25-0.55-0.55 0.1-1.05 0.35l-1.3 0.65-0.75 0.25v0.05l0.85 0.85 0.35 0.25 2.35 2.6 0.35 0.9 0.1 0.55q0.35 1.85 0.3 3.75l-0.05 5.55-0.05 3-0.4 0.3v0.05q-1.65 0.95-3.45 1.6l-1.8 0.5q-6.3 1.55-12.35 0.8l-0.4-0.45q0.05-0.85-0.25-1.75l-1-0.4-0.1 0.05-0.25 0.5-2.5-2.3 0.25-0.25q3-2.2 2.6-6-3.6-2.4-7.6-0.9l-0.6-1.5-0.35-1.1q-2-5.85-1.8-12.7 0.1-3.05 0.7-6l0.2-0.2q5.45-4.6 12.85-5.8 7.4 1.2 12.9 5.8 3.7 4.1 6.2 8.6m-1.25 26.4q0.95-4.15 4.1-7.65l0.75-0.6q0.75-0.55 1.6-0.9 1.35-0.65 2.95-0.9 3 0.5 5.25 2.4l0.05 0.1 0.3 2.5q0.1 3-0.8 5.6l-0.05 0.15-0.25 0.6q-1.65-0.65-3.1 0.4-0.2 1.55 1.05 2.5l0.1 0.1-1 0.95-0.15-0.2v-0.05l-0.45 0.2-0.1 0.7-0.15 0.2-5.05-0.35q-1.25-0.3-2.25-0.95l-0.8-0.35-0.1-0.1q0.35-1.55 0-2.6 0.3 0.1 0.3 0.65v0.25l0.15 0.4 0.05 0.2v1l1-1.75 0.1-0.25q0.3-0.85 0.25-1.85l0.05-1 0.05-0.3 0.3-0.45 0.35-0.6 0.15-0.1 0.1-0.2-0.15-0.25q0-0.7 0.3-1.25l0.25-0.35 0.05-0.25q0-0.35 0.15-0.45l0.1-0.3 0.2-0.75 0.2-0.4 0.35-0.85 0.1-0.15 0.4-0.5-0.5-0.1q-0.4 0.1-0.9 0.5l-0.2 0.25-0.7 0.85-0.1 0.15-0.1 0.25-0.05 0.1-0.3 0.65-0.1 0.25-0.3 0.5-0.3 0.6-0.2 0.5-0.05 0.15-0.35 0.55-0.25 0.35-0.25 0.2-0.45 0.65q-0.25 0.45-0.2 1l0.05 1.25 0.05 0.1q-0.55-0.7-1.5-1m-10-28.2q0 1.1 0.75 1.85t1.9 0.75q1.1 0 1.9-0.75 0.75-0.75 0.75-1.85t-0.75-1.85q-0.8-0.75-1.9-0.75-1.15 0-1.9 0.75t-0.75 1.85m-3.55-4.7-2 0.5-0.15 0.6q-0.1 0.95 0.35 1.6 1.45 0.3 2.45-0.4v-0.2q0.1-1.3-0.65-2.1l0.45-0.1-0.8-0.2 0.35 0.3m8.2 13.3-0.2-0.4q-1.7-3.1-5.1-2.8l0.2 0.4q-3.15 1.3-1 3.9 4.3 5.4 6.1-1.1m-13.25-1.4q0.75-6.4-0.9-8t-5.25-0.6q-1.05-0.4-3.2 1.8-0.4 0.85-0.4 1.8-0.35 4.1 3.25 6l0.2 1.4h0.6l0.15 0.05 0.65 0.75 0.6-0.25 0.35-0.6q0.05-0.55 0.3-0.15l0.05 0.2 0.3 0.8q0.2 0.4 0.65 0.4 0.6-0.5 0.45-1.4-0.1-0.6-0.05-1.2l0.2-0.05 4.3 3.85-0.2-1-2.75-3.2 0.7-0.6m-9.95 3.4-0.4 0.3q-0.2 0.5-0.1 0.95l0.5 0.75 1.4 0.2 0.25-0.45q0.55-1.6-1.05-1.55l-0.6-0.2m11.8 11.6-0.2-1.4h-1.45q-0.4 0.2-0.5 0.5-0.3 0.7 0.5 1.1l1.65-0.2m24.35-0.75 0.2-0.15-0.35 0.1 0.15 0.05q-0.35 0.3-0.25 0.85v0.1l1 0.15 0.15-0.65-0.05-0.25-0.85-0.2m4.45 1.55 0.65-0.1h-1.5q-1.3 1.45-1.5 3.5l0.3 0.2-1.15 1.35-0.1 0.45 1.75-1.6h0.1v0.5q-0.1 0.35 0.2 0.6l0.25-0.2 0.1-0.3 0.05-0.1q0.05-0.15 0.1 0.05l0.15 0.25 0.25 0.1 0.3-0.3h0.3l0.05-0.6q1.45-0.8 1.35-2.5l-0.15-0.75q-0.65-0.5-1.5-0.55m1.75 4.8-0.25 0.1q-0.7-0.05-0.45 0.65l0.1 0.15 0.6-0.05 0.15-0.7-0.15-0.15m-12.1 1.65-0.15-0.15 0.1 0.05 0.05 0.1m7.3 2.6-0.05 0.6 0.65 0.05q0.35-0.15 0.2-0.45l-0.2-0.2h-0.6m-2.65-6.4h-0.35q-1.1 0.05-1.65 1.15l-0.1 0.15q0.3 1.15 0.8 1.4 0.65 0.4 1.7-0.9 0.85-1.1-0.4-1.65l0.1-0.15h-0.1" fill="#ffe866" fill-rule="evenodd"/>
<path d="m286.55 231.4q0-1.1 0.75-1.85t1.9-0.75q1.1 0 1.9 0.75 0.75 0.75 0.75 1.85t-0.75 1.85q-0.8 0.75-1.9 0.75-1.15 0-1.9-0.75t-0.75-1.85m-15.3 1.6h0.8q2.25 0.85 2.25 3.2v0.4q-1 0.6-2.25 0.4h-0.8l-1.05-1.8q-0.1-0.85 0.45-1.55l0.6-0.65m-3.25 9 0.6 0.2q1.6-0.05 1.05 1.55l-0.25 0.45-1.4-0.2-0.5-0.75q-0.1-0.45 0.1-0.95l0.4-0.3m36.15 10.85 0.85 0.2 0.05 0.25-0.15 0.65-1-0.15v-0.1q-0.1-0.55 0.25-0.85m3.6 3.95q-0.05-1 0.9-1.35h0.35l0.2 0.3 0.2 0.65-0.4 0.75h-0.35l-0.9-0.2v-0.15m-9.65 3.9-0.1-0.2-0.05-1.25q-0.05-0.55 0.2-1l0.45-0.65 0.25-0.2 0.25-0.35 0.35-0.55 0.05-0.15 0.2-0.5 0.3-0.6 0.3-0.5 0.1-0.25 0.3-0.65 0.05-0.1 0.1-0.25 0.1-0.15 0.7-0.85 0.2-0.25q0.5-0.4 0.9-0.5l0.5 0.1-0.4 0.5-0.1 0.15-0.35 0.85-0.2 0.4-0.2 0.75-0.1 0.3q-0.15 0.1-0.15 0.45l-0.05 0.25-0.25 0.35q-0.3 0.55-0.3 1.25l0.15 0.25-0.1 0.2-0.15 0.1-0.35 0.6-0.3 0.45-0.05 0.3-0.05 1q0.05 1-0.25 1.85l-0.1 0.25-1 1.75v-1l-0.05-0.2-0.15-0.4v-0.25q0-0.55-0.3-0.65l-0.2-0.5-0.05-0.1-0.1-0.05m7.45 2.75h0.6l0.2 0.2q0.15 0.3-0.2 0.45l-0.65-0.05 0.05-0.6" fill="#fff" fill-rule="evenodd"/>
<path d="m297.8 233.2 0.55 1 3.3 8.75 0.55 2.65 0.25 1.25 0.55 3.6q-0.85 0.35-1.6 0.9l-0.75 0.6q-3.15 3.5-4.1 7.65l-0.25 1.1-0.1 0.5-0.2 1.65q-0.1 1.5 0.2 2.9l0.1 0.35 0.05 0.05-1.25 0.95 0.05-0.4-0.1 0.25v0.2l-2.5 1.55q1.3-3.4-0.15-6.85l-0.05-0.1q-1.6-3.45-5.85-2.95l-0.2 0.2q-0.65 0.35-1.05 1.1l-1 1.3v1.2l0.85 0.4 1 2.2-3.85 1-0.2-1.8 0.6-1.4-0.05-0.4-0.15-0.2-0.2-0.2-0.65-0.6q-2.9-0.95-5.9-0.4-5-0.2-8.15 3.6l-1.25-0.3q-0.5-0.15-0.65-0.45l-0.3-0.65 0.2-1.2 0.2-0.2 1.5-0.35 0.45-0.3 0.3-0.55-0.65-2.6q-1.7-0.05-3.2-1.1-0.7-0.45-1.45-0.5l-1.05-1.4-1.85-5.6q-1.85-5.9-2.3-11.95 2.75-6.85 8.15-12.85-0.6 2.95-0.7 6-0.2 6.85 1.8 12.7l0.35 1.1 0.6 1.5q4-1.5 7.6 0.9 0.4 3.8-2.6 6l-0.3 0.2 0.05 0.05 2.5 2.3 0.25-0.5 0.1-0.05 1 0.4q0.3 0.9 0.25 1.75l0.4 0.45q6.05 0.75 12.35-0.8l1.8-0.5q1.8-0.65 3.45-1.6l0.25-0.15 0.15-0.1v-0.1q4.1-3 3.7-13.1-0.15-3.6-0.85-8.05" fill="#fc0" fill-rule="evenodd"/>
<path d="m303 250.45-0.55-3.6-0.25-1.25-0.55-2.65-3.3-8.75-0.55-1q-2.5-4.5-6.2-8.6-5.5-4.6-12.9-5.8-7.4 1.2-12.85 5.8l-0.2 0.2q-5.4 6-8.15 12.85-1.55 3.8-2.25 7.95-1.75 6.85 0 13 3.7 7.95 12.9 11.65l2.45 0.85q4 1.2 8.1 1.2t8.15-1.2l2.45-0.85 3.25-1.55 2.5-1.55 0.05-0.05 1.25-0.95-0.05-0.05-0.1-0.35q-0.3-1.4-0.2-2.9l0.2-1.65 0.1-0.5 0.25-1.1q0.95-4.15 4.1-7.65l0.75-0.6q0.75-0.55 1.6-0.9 1.35-0.65 2.95-0.9 3 0.5 5.25 2.4l0.05 0.1q2.2 2.5 3.35 5.35 0.65 1.6 0.95 3.3 0.7 2.85 0 5.4-1.55 3.3-5.3 4.85l-1 0.35-3.3 0.5-3.35-0.5-1-0.35-1.35-0.65q-2.7-1.5-3.9-4.15" fill="none" stroke="#5a451b" stroke-linecap="round" stroke-linejoin="round" stroke-width=".5"/>
<path d="m294.95 254.35v0.1m0.1 12.7v-0.2l0.1-0.25-0.05 0.4-0.1 0.15 0.05-0.1m-8.5-35.75q0 1.1 0.75 1.85t1.9 0.75q1.1 0 1.9-0.75 0.75-0.75 0.75-1.85t-0.75-1.85q-0.8-0.75-1.9-0.75-1.15 0-1.9 0.75t-0.75 1.85m12.1 9.85-0.8-1.8q-0.6-1.5-1.9-2.6l-0.85-0.7q-0.6-0.6-1.25-0.55-0.55 0.1-1.05 0.35l-1.3 0.65-0.75 0.25v0.05l0.85 0.85 0.35 0.25 2.35 2.6 0.35 0.9 0.1 0.55q0.35 1.85 0.3 3.75l-0.05 5.55-0.05 3m3.5 7-0.15-0.1-0.05-0.4-0.05-0.1-0.1-0.05-0.05-0.1m0.4 0.75q0.3 0.1 0.3 0.65v0.25l0.15 0.4 0.05 0.2v1l1-1.75 0.1-0.25q0.3-0.85 0.25-1.85l0.05-1 0.05-0.3 0.3-0.45 0.35-0.6 0.15-0.1 0.1-0.2-0.15-0.25q0-0.7 0.3-1.25l0.25-0.35 0.05-0.25q0-0.35 0.15-0.45l0.1-0.3 0.2-0.75 0.2-0.4 0.35-0.85 0.1-0.15 0.4-0.5-0.5-0.1q-0.4 0.1-0.9 0.5l-0.2 0.25-0.7 0.85-0.1 0.15-0.1 0.25-0.05 0.1-0.3 0.65-0.1 0.25-0.3 0.5-0.3 0.6-0.2 0.5-0.05 0.15-0.35 0.55-0.25 0.35-0.25 0.2-0.45 0.65q-0.25 0.45-0.2 1l0.05 1.25 0.05 0.1" fill="none" stroke="#fff" stroke-linecap="round" stroke-linejoin="round" stroke-width=".05"/>
</g>
</defs>
</svg>
