<?xml version="1.0" encoding="UTF-8"?>
<svg version="1.1" viewBox="0 0 86.474 106.84" xmlns="http://www.w3.org/2000/svg" xmlns:cc="http://creativecommons.org/ns#" xmlns:dc="http://purl.org/dc/elements/1.1/" xmlns:rdf="http://www.w3.org/1999/02/22-rdf-syntax-ns#" xmlns:xlink="http://www.w3.org/1999/xlink">
<metadata>
<rdf:RDF>
<cc:Work rdf:about="">
<dc:format>image/svg+xml</dc:format>
<dc:type rdf:resource="http://purl.org/dc/dcmitype/StillImage"/>
</cc:Work>
</rdf:RDF>
</metadata>
<g transform="translate(-303.35 -160.56)">
<use transform="translate(303.35,190.6)" width="86.449997" height="76.800003" xlink:href="#c"/>
<use transform="matrix(-4.673,0,0,-3.3484,600.75,239.8)" width="0" height="0" xlink:href="#sprite0"/>
<use transform="matrix(1.2529 -.4437 .4186 1.1626 305.3 174.72)" width="38.200001" height="41.849998" xlink:href="#a"/>
</g>
<defs>
<g id="c" transform="translate(-303.35,-190.6)">
<path d="m314.3 209.45q3.45-5.55 6.5-5.55t4.55 0.65q0.05-0.75 0.25-1.45 0.4-1.3 1.4-2.3 1.7-1.65 4.1-1.65 1.7 0 3.05 0.85 0.6-2.35 2.45-4.15 1.15-1.15 2.55-1.8 1.85-0.9 4.1-0.9 3.65 0 6.3 2.35l1.55-1.75 0.9-0.7q1.15-0.85 2.4-1.35 1.85-0.75 4-0.8l0.6-0.05q4.45 0 7.65 2.75l0.2 0.15q1.15 1 1.9 2.15l0.1 0.15q1.3 2.1 1.3 4.7v0.25q2.9-0.95 4.3 3l1.15-0.1 1.5 0.15q1.55 0.35 2.9 1.4 2.3 6.85-5.1 6.35l4.35 0.65q-3.9 6.4-10.75 5.5l-1.85-1.8 1.5 2 0.1 0.2q-0.45 8.05-7.65 10.85 2.35 4.15 0.15 8.05-4.85 2.4-6.55 0.15-0.6 1.65-2.35 2.9-8.05 5.5-14.45 0.5l-1.75 1.5q-9.05 5.6-17.25 0.9l-0.8-1.6 0.15-1.2q0.3-1.5 0.85-2.8-4.45 0.95-8-1.4l-0.2-0.2q-2.6-3.15 0.6-5.2l-0.5-0.1 2.2-0.45q-5.4-1.55-7-5.6l-0.4-1.3q0.2-1.05 0.7-1.95 0.65-1.2 1.8-2.2 1.65-1.45 3.8-2l2.6-0.35h0.15l0.7 0.05h0.3l-0.1-0.15-0.15-0.25q-0.6-0.9-0.9-1.9-0.35-1.15-0.35-2.45t0.35-2.5l0.15-0.35 0.05-0.15-0.1 0.3m35.25-13.95q-0.75 1.05-1.15 2.2 0.4-1.15 1.15-2.2m20.3 7.65 0.3-2.15-0.3 2.15m3.55 1.1 1.05-0.25-1.05 0.25m-5.8 9.05 0.05-0.05h-0.05v0.05m-0.8 32.95q1.75-0.7 3.1-0.7t2.3 0.85q1 0.85 1 2.05t-1 2.05l-3.45 2.55q-2.5 1.7-3.6 0.35-1.2-1.35-0.65-3.9 0.25-1.3 0.85-2.1l0.15-0.15q0.5-0.7 1.3-1m-38.55-39.55-0.35-0.4q-1.15-1.15-2.55-1.75 1.4 0.6 2.55 1.75l0.35 0.4m8.35-3.5q-0.4-1.35-1.45-2.4l-1-0.8 1 0.8q1.05 1.05 1.45 2.4m10.2 44.8 0.55 1-1.1 1.25q-2.9 2.85-6.8 2.65-3.65-0.2-6.15-2.9l-0.2 0.3 0.1-2.1q0.6-2.05 2.6-2.8 4.5 3.75 11 2.6m-15.35-14.6-4.25 0.45q-1.3 0.25-1.9 1.3-0.6 1-0.15 2.25 0.35 1.2 1.55 1.9 1.15 0.65 3.05 0.95l1.6-0.2 0.25-0.05 1.75-1.4q1.7-2 1.4-3.7-0.3-1.75-3.3-1.5m-20.75-11.15-1.4 0.1q-0.65 0.35-0.8 1.15-0.15 0.75 0.25 1.5l1.35 1.45q0.4 0.3 0.9 0.4h0.15l1.4-0.2q1.5-0.5 1.9-1.5 0.35-1.05-1.35-1.85l-2.4-1.05m6.8-4.95-0.7-0.15-1.45-0.25 1.45 0.25 0.7 0.15" fill="#f5eed3" fill-rule="evenodd"/>
<path d="m368.85 196.05v-0.15h0.25q3.3 0 5.65 2.55l1.1 1.45 0.1 0.2q1 1.75 1.15 3.95l-1.5-0.15-1.15 0.1q-1.4-3.95-4.3-3v-0.25q0-2.6-1.3-4.7m11.15 9.4 1.25 1.2 0.15 0.15q2.1 2.65 2.2 6.3l0.4 4.1q0.15 2.05-0.75 3.6l-1.4 1.6-0.1 0.1-0.5 0.3-0.2 0.15 0.2 0.1 0.3 0.1 2.25 1.2 1.85 1.5 0.5 0.45 0.9 1 1 1.35 0.2 0.4q2.4 6.35 0.45 7.9l-1.65 1.05-1.9 0.65 1.1 1.35v0.05l0.85 1.75-0.15 0.9q-0.65 2.3-2.7 3.5-1.5 0.85-3.05 0.8 0.6 2.3-0.05 4.8-0.45 1.6-1.35 2.85-1.15 1.7-3.1 2.8-2.5 1.45-5.15 1.3l-0.55 0.3q-5.8 2.85-16.45 1.15l-1.7-0.3q-5.2 3.7-7.8 5.3l-0.05-0.1-2.45 1.3q-2.05 0.75-4.55 0.75h-0.55q-2.75-0.1-4.85-1.1l-1.6-0.95q-2.45-1.75-2.8-4.1-2.6 1.4-5.95 1.4h-0.5q-3.9-0.15-6.7-2.2-2.55-1.85-2.9-4.35-2.7-0.3-4.7-2-2.35-2-2.35-4.85 0-0.7 0.15-1.35l0.2-0.65q0.5-1.6 1.95-2.85l0.05-0.05 2.3-1.35 1.2-0.8 2.2-1.35q-3.25 1.6-8.25-0.5-0.9-1-1.15-2.2l-0.15-1.15q0-2.55 2.35-4.35 0.75-0.55 1.55-0.95l0.6-0.2 0.2-0.1v0.05l0.45-0.15h0.25l1.5-0.35 0.5 0.1q-3.2 2.05-0.6 5.2l0.2 0.2q3.55 2.35 8 1.4-0.55 1.3-0.85 2.8l-0.15 1.2 0.8 1.6q8.2 4.7 17.25-0.9l1.75-1.5q6.4 5 14.45-0.5 1.75-1.25 2.35-2.9 1.7 2.25 6.55-0.15 2.2-3.9-0.15-8.05 7.2-2.8 7.65-10.85l-0.1-0.2-1.5-2 1.85 1.8q6.85 0.9 10.75-5.5l-4.35-0.65q7.4 0.5 5.1-6.35m-0.75 18.2 0.65-0.15 1.15-0.55-1.15 0.55-0.65 0.15m-12.45 22.6q-0.8 0.3-1.3 1l-0.15 0.15q-0.6 0.8-0.85 2.1-0.55 2.55 0.65 3.9 1.1 1.35 3.6-0.35l3.45-2.55q1-0.85 1-2.05t-1-2.05q-0.95-0.85-2.3-0.85t-3.1 0.7m10.65-0.8q1 0.95 2.45 1.35l1.3 0.2-1.3-0.2q-1.45-0.4-2.45-1.35m4-7.2 0.55 0.15 3.15 0.25-3.15-0.25-0.55-0.15m-50-4.85q3-0.25 3.3 1.5 0.3 1.7-1.4 3.7l-1.75 1.4-0.25 0.05-1.6 0.2q-1.9-0.3-3.05-0.95-1.2-0.7-1.55-1.9-0.45-1.25 0.15-2.25 0.6-1.05 1.9-1.3l4.25-0.45m15.35 14.6q-6.5 1.15-11-2.6-2 0.75-2.6 2.8l-0.1 2.1 0.2-0.3q2.5 2.7 6.15 2.9 3.9 0.2 6.8-2.65l1.1-1.25-0.55-1m-16.5 11.45-0.9 0.75-1.2 0.8 1.2-0.8 0.9-0.75m14.7 5.65q2.2-1.55 2.75-3.6-0.55 2.05-2.75 3.6m-34.3-42.85 2.4 1.05q1.7 0.8 1.35 1.85-0.4 1-1.9 1.5l-1.4 0.2h-0.15q-0.5-0.1-0.9-0.4l-1.35-1.45q-0.4-0.75-0.25-1.5 0.15-0.8 0.8-1.15l1.4-0.1m1.45 33.6 1.1 0.05 2.8-0.4-2.8 0.4-1.1-0.05" fill="#dec696" fill-rule="evenodd"/>
<path d="m314.3 209.45q3.45-5.55 6.5-5.55t4.55 0.65q0.05-0.75 0.25-1.45 0.4-1.3 1.4-2.3 1.7-1.65 4.1-1.65 1.7 0 3.05 0.85 0.6-2.35 2.45-4.15 1.15-1.15 2.55-1.8 1.85-0.9 4.1-0.9 3.65 0 6.3 2.35l1.55-1.75 0.9-0.7q1.15-0.85 2.4-1.35 1.85-0.75 4-0.8l0.6-0.05q4.45 0 7.65 2.75l0.2 0.15q1.15 1 1.9 2.15l0.1 0.15q1.3 2.1 1.3 4.7v0.25l-0.3 2.15m-1-7.25h0.25q3.3 0 5.65 2.55l1.1 1.45 0.1 0.2q1 1.75 1.15 3.95 1.55 0.35 2.9 1.4l1.25 1.2 0.15 0.15q2.1 2.65 2.2 6.3l0.4 4.1q0.15 2.05-0.75 3.6l-1.4 1.6-0.1 0.1-0.5 0.3-0.2 0.15 0.2 0.1 0.3 0.1 2.25 1.2 1.85 1.5 0.5 0.45 0.9 1 1 1.35 0.2 0.4q2.4 6.35 0.45 7.9l-1.65 1.05-1.9 0.65 1.1 1.35v0.05l0.85 1.75-0.15 0.9q-0.65 2.3-2.7 3.5-1.5 0.85-3.05 0.8 0.6 2.3-0.05 4.8-0.45 1.6-1.35 2.85-1.15 1.7-3.1 2.8-2.5 1.45-5.15 1.3l-0.55 0.3q-5.8 2.85-16.45 1.15l-1.7-0.3m-7.85 5.2-2.45 1.3q-2.05 0.75-4.55 0.75h-0.55q-2.75-0.1-4.85-1.1l-1.6-0.95q-2.45-1.75-2.8-4.1-2.6 1.4-5.95 1.4h-0.5q-3.9-0.15-6.7-2.2-2.55-1.85-2.9-4.35-2.7-0.3-4.7-2-2.35-2-2.35-4.85 0-0.7 0.15-1.35l0.2-0.65q0.5-1.6 1.95-2.85l0.05-0.05 2.3-1.35 1.2-0.8 2.2-1.35q-3.25 1.6-8.25-0.5-0.9-1-1.15-2.2l-0.15-1.15q0-2.55 2.35-4.35 0.75-0.55 1.55-0.95l0.6-0.2 0.2-0.1v0.05l0.45-0.15h0.25l1.5-0.35 2.2-0.45q-5.4-1.55-7-5.6l-0.4-1.3q0.2-1.05 0.7-1.95 0.65-1.2 1.8-2.2 1.65-1.45 3.8-2l2.6-0.35h0.15l0.7 0.05h0.3l-0.1-0.15-0.15-0.25q-0.6-0.9-0.9-1.9-0.35-1.15-0.35-2.45t0.35-2.5l0.15-0.35m34.05-11.6q0.4-1.15 1.15-2.2m24.9 8.5 1.15-0.1 1.5 0.15m-2.65-0.05-1.05 0.25m7.65 18.7-1.15 0.55-0.65 0.15m5.9 15-3.15-0.25-0.55-0.15m-0.25 8.75-1.3-0.2q-1.45-0.4-2.45-1.35m-43.3-45.45 1 0.8q1.05 1.05 1.45 2.4m-11.25 1.35q1.4 0.6 2.55 1.75l0.35 0.4m19.5 54.8q-0.55 2.05-2.75 3.6m-16.8-4.1 1.2-0.8 0.9-0.75m-14.95-42.55 1.45 0.25 0.7 0.15m-1.45 38.2-2.8 0.4-1.1-0.05" fill="none" stroke="#423213" stroke-linecap="round" stroke-linejoin="round" stroke-opacity=".50196" stroke-width=".5"/>
</g>
<g id="a" transform="translate(19.1,20.95)">
<use transform="translate(-19.1,-20.95)" width="38.200001" height="41.849998" xlink:href="#b"/>
</g>
<g id="b" transform="translate(19.1,20.95)">
<path d="m-12.8 4.2q6.75-7.45 6.35-21.9-1 0-1.6-0.45-0.65-0.5-0.65-1.2-0.05-0.7 0.6-1.15 0.6-0.5 1.6-0.45 0.9-0.05 1.55 0.45 0.65 0.45 0.7 1.15 0 0.7-0.65 1.2-0.65 0.45-1.55 0.45 1.25 13.35 7.45 20.75-6.7 2-13.8 1.15" fill="#e2aa01" fill-rule="evenodd"/>
<path d="m-12.8 4.2q6.75-7.45 6.35-21.9-1 0-1.6-0.45-0.65-0.5-0.65-1.2-0.05-0.7 0.6-1.15 0.6-0.5 1.6-0.45 0.9-0.05 1.55 0.45 0.65 0.45 0.7 1.15 0 0.7-0.65 1.2-0.65 0.45-1.55 0.45 1.25 13.35 7.45 20.75" fill="none" stroke="#a36501" stroke-linecap="round" stroke-linejoin="round" stroke-width=".05"/>
<path d="m14.25-11.7q-0.1 13.95 0.6 19.5-2.55-2.45-5.5-3.2 2.9-3.1 4.9-16.3" fill="#e2aa01" fill-rule="evenodd"/>
<path d="m14.25-11.7 0.75-5.4h0.1q-1.45 16.75 4 28.9l-3.55 1.4-0.7-5.4q-0.7-5.55-0.6-19.5" fill="#ffecce" fill-rule="evenodd"/>
<path d="m14.25-11.7q-0.1 13.95 0.6 19.5l0.7 5.4 3.55-1.4" fill="none" stroke="#a95c01" stroke-linecap="round" stroke-linejoin="round" stroke-width=".05"/>
<path d="m19.1 11.8q-5.45-12.15-4-28.9" fill="none" stroke="#a95c01" stroke-linecap="round" stroke-linejoin="round" stroke-width=".05"/>
<path d="m16.5-19.05q0.4 0.7 0.3 1.6-0.15 1-0.7 1.6-0.45 0.45-1 0.4h-0.2q-0.7-0.15-1.1-0.8-0.4-0.75-0.3-1.7t0.65-1.5q0.5-0.55 1.25-0.45 0.7 0.1 1.1 0.85" fill="#e2aa01" fill-rule="evenodd"/>
<path d="m16.5-19.05q0.4 0.7 0.3 1.6-0.15 1-0.7 1.6-0.45 0.45-1 0.4h-0.2q-0.7-0.15-1.1-0.8-0.4-0.75-0.3-1.7t0.65-1.5q0.5-0.55 1.25-0.45 0.7 0.1 1.1 0.85z" fill="none" stroke="#a36501" stroke-linecap="round" stroke-linejoin="round" stroke-width=".05"/>
<path d="m16.1 6.05 0.1-0.1v0.1h-0.1m-32.95 0h0.05-0.05" fill="#e2aa01" fill-rule="evenodd"/>
<path d="m-16.8 6.05 1.3-1.75q1.6-2 3.55-2.55 4.9-1.25 11.75-1.25 6.8 0 11.7 1.25 2.1 0.6 3.65 2.35 1.25 1.45 1.05 1.85l-0.1 0.1q-16.75-4.15-32.85 0h-0.05" fill="#694f01" fill-rule="evenodd"/>
<path d="m-16.8 6.05h0.05q3.35 1.8 4.8 2.2l0.95 0.25q4.6 1.15 10.8 1.15 6.15 0 10.75-1.15l0.95-0.25q3.7-0.95 4.6-2.2h0.1l0.25 6q-0.05 1.9-4.95 3.15-4.9 1.45-11.7 1.45-6.85 0-11.75-1.45-4.9-1.25-4.9-3.15v-6h0.05" fill="#feb336" fill-rule="evenodd"/>
<path d="m-16.8 6.05h0.05m32.85 0 0.1-0.1v0.1m-33.05 0h0.05" fill="none" stroke="#6b3c01" stroke-linecap="round" stroke-linejoin="round" stroke-width=".05"/>
<path d="m16.2 6.05 0.25 6q-0.05 1.9-4.95 3.15-4.9 1.45-11.7 1.45-6.85 0-11.75-1.45-4.9-1.25-4.9-3.15v-6m32.95 0q-0.9 1.25-4.6 2.2l-0.95 0.25q-4.6 1.15-10.75 1.15-6.2 0-10.8-1.15l-0.95-0.25q-1.45-0.4-4.8-2.2m32.85 0h0.1" fill="none" stroke="#6b3c01" stroke-linecap="round" stroke-linejoin="round" stroke-width=".05"/>
<path d="m4.85-13.6q-0.95-0.05-1.6-0.65-0.65-0.65-0.6-1.6-0.05-0.95 0.6-1.55 0.65-0.65 1.6-0.65t1.6 0.65q0.6 0.6 0.65 1.55-0.05 0.95-0.65 1.6-0.65 0.6-1.6 0.65l0.5 6.7 0.3 8.75q0.5 12.5 1.7 19.05-4.5-3.55-9.45-4.3 6.85-10.15 6.95-30.2" fill="#ffcf60" fill-rule="evenodd"/>
<path d="m5.35-6.9q1.5 13.8 6.4 22.1-2.85 1.15-4.4 5.7-1.2-6.55-1.7-19.05l-0.3-8.75" fill="#ffecce" fill-rule="evenodd"/>
<path d="m4.85-13.6q-0.95-0.05-1.6-0.65-0.65-0.65-0.6-1.6-0.05-0.95 0.6-1.55 0.65-0.65 1.6-0.65t1.6 0.65q0.6 0.6 0.65 1.55-0.05 0.95-0.65 1.6-0.65 0.6-1.6 0.65" fill="none" stroke="#a36501" stroke-linecap="round" stroke-linejoin="round" stroke-width=".05"/>
<path d="m4.85-13.6 0.5 6.7q1.5 13.8 6.4 22.1-2.85 1.15-4.4 5.7-4.5-3.55-9.45-4.3 6.85-10.15 6.95-30.2m0.8 15.45q0.5 12.5 1.7 19.05" fill="none" stroke="#a36501" stroke-linecap="round" stroke-linejoin="round" stroke-width=".05"/>
<path d="m-18.2 14.9q1.65-6.3 1.7-15.25 1.85 9.1 2.4 19.65-0.95-1.95-4.1-4.4" fill="#ffcf60" fill-rule="evenodd"/>
<path d="m-16.5-0.35q-0.05-6.55-0.9-14.55 3.45 23.1 8.8 30.7-4.85 1.65-5.5 3.5-0.55-10.55-2.4-19.65" fill="#ffe8c1" fill-rule="evenodd"/>
<path d="m-18.2 14.9q1.65-6.3 1.7-15.25-0.05-6.55-0.9-14.55" fill="none" stroke="#a36501" stroke-linecap="round" stroke-linejoin="round" stroke-width=".05"/>
<path d="m-8.6 15.8q-4.85 1.65-5.5 3.5-0.95-1.95-4.1-4.4z" fill="none" stroke="#5f3401" stroke-linecap="round" stroke-linejoin="round" stroke-width=".05"/>
<path d="m-16.5-16q0.55 0.55 0.7 1.5t-0.25 1.65q-0.35 0.7-1 0.8h-0.25q-0.6 0.05-1.05-0.4-0.55-0.6-0.7-1.55t0.25-1.6q0.3-0.75 1-0.85t1.3 0.45" fill="#ffcf60" fill-rule="evenodd"/>
<path d="m-16.5-16q-0.6-0.55-1.3-0.45t-1 0.85q-0.4 0.65-0.25 1.6t0.7 1.55q0.45 0.45 1.05 0.4h0.25q0.65-0.1 1-0.8 0.4-0.7 0.25-1.65t-0.7-1.5z" fill="none" stroke="#a36501" stroke-linecap="round" stroke-linejoin="round" stroke-width=".05"/>
</g>
</defs>
</svg>
