<?xml version="1.0" encoding="UTF-8"?>
<svg version="1.1" viewBox="0 0 80.771 50.177" xmlns="http://www.w3.org/2000/svg" xmlns:cc="http://creativecommons.org/ns#" xmlns:dc="http://purl.org/dc/elements/1.1/" xmlns:rdf="http://www.w3.org/1999/02/22-rdf-syntax-ns#" xmlns:xlink="http://www.w3.org/1999/xlink">
<metadata>
<rdf:RDF>
<cc:Work rdf:about="">
<dc:format>image/svg+xml</dc:format>
<dc:type rdf:resource="http://purl.org/dc/dcmitype/StillImage"/>
</cc:Work>
</rdf:RDF>
</metadata>
<g transform="translate(-126.69 -237.35)">
<use transform="translate(126.15,237.35)" width="82.25" height="50.200001" xlink:href="#b"/>
</g>
<defs>
<g id="b" transform="translate(124.7,-92.35)">
<use transform="matrix(1 0 -.0182 .8358 -123.63 92.348)" width="81.199997" height="60.049999" xlink:href="#a"/>
</g>
<g id="a" transform="translate(-50.15,-70.05)">
<use transform="translate(50.15,70.05)" width="81.199997" height="60.049999" xlink:href="#c"/>
</g>
<g id="c" transform="translate(-50.15,-70.05)">
<path d="m62.45 92.6 0.2-0.3-1.4-3.05 1.5-8.75 7.6 0.8 0.9 2.25 3.4-1 2.8 1.55-1.45-4.4-3.7 0.05-1-1.4 0.1-3.4 9.25 0.15 1.35 1.5h2.35l0.9 2.95 1.8 1.45 0.4-0.1 2.8 0.8 0.85-2.65-0.95-2.15-4.15-2.25-2.15-4.55h5.85q1.85 2.95 3.25 6.3 1.5 3.6-0.3 7.6-1 2.3-2.3 4.1-2.25 0.15-4.05-0.85l-0.8-0.5-0.05 1.95-2.4-0.15q-2.9-0.9-5.95-1.3h-0.3q-0.25 2.15-1.2 4.4-2.05 0.85-4.1 2.2l-0.15 0.1-2.55-1.45-1.3 2.25-0.25 0.25q-0.8-0.3-1.45-0.8l-0.25-0.15-3.1-1.45m40.9 2.6h1.05l0.05 3.6h1.7l0.2 0.95 1.6 1.95-1.7 3.25-0.05-3.15-5.95-1.35-0.05-5.05-0.3-0.4 3.45 0.2m17.55 13.35 2.1-0.05 0.05 1.45h5.1l1.2 4.4h1.75l0.2 8.6-0.4 0.1h-0.05l-0.35 0.05v-3.5l-5.6-5.3-0.65 0.5-0.2-2.4h-2.45l-0.7-3.85" fill="#ddc3bf" fill-rule="evenodd"/>
<path d="m107.95 101.7 0.75-1.45 4.15-1.9 1.05 5.6h2.45l1.5 2.1 2.8 1.05 0.25 1.45 0.7 3.85h2.45l0.2 2.4 0.65-0.5 5.6 5.3v4.1l-5.35 3.25v0.1l-0.7 0.4q-4.15 2.25-9.1 2.55-7.8 0.4-14.45-3.75-2-1.55-3.45-3.15l-1.35-2.85-0.1-0.25q-1.05-2.15-1.65-4.35l-0.45-2.05-0.1-0.6-0.2-2.15-0.05-1.2 1.55 2.1q-0.5-2.15-0.3-4.3l0.2-5.95 0.1-2.15-2.45 2.2q-0.45 5.65 0.25 11.25l0.45 1.6q-0.15 0.65 0.35 1.15l2 4.7-2.35 1.95q-7.95 5-17.2 4.5-9.25-0.6-16.05-6.9l-2.2-1.85-2.25-2.05-0.55-1 0.95-0.15 0.25-0.35 3.85 3.85q2.7 2.4 2.85 2.15-0.95-0.95-0.75-2.15l0.05-2.4-0.4-1.45 4-0.25q0.25-1.25-0.5-2.1-0.95-1.15-2.1-1.8l-0.9-0.65 0.35-1.7 0.5-1.35 0.95 0.75-0.95-0.75 1-1.5-0.05 2.25 1.35 1.1 0.2-2.9h2.95l1.15-6.35 3.3-1.3 1.85-2.5h2.9l1.25-6.75 4.95 2.25 2.9 5.7 0.05-3.85 7.1-1.55v-6.15l2.1-2.6 0.05-3.2-1.95-5.8 1.8 2.95q2.2 3.55 3.2 7.6 1 4.2 1 8.45 0 1.4-0.45 2.6l0.3 0.4 0.05 5.05 5.95 1.35 0.05 3.15 1.7-3.25m-19.8-3.2-0.3-0.3h-1.1l-0.1 4.3h3.6l-2.1-4m-16.2 22.7-0.3 0.15-0.1 0.2q-0.2 0.7 0.4 1.15h0.5l0.1-0.1q0.55-1.05-0.6-1.4m4.65-4.75q-0.4 0.4-0.4 0.8l-1.45-0.1-0.05 0.05-0.6 0.25q-0.8 1.5-0.35 3.2 1.1 4.4 6.25 2.9 0.8-0.75 1-1.75l0.55 0.35 0.15-0.05q1.3-0.85 0-2.05l-0.2-0.05h-0.1l-0.1 0.05-0.35 0.4-0.05-0.25-0.6-1.85-0.45-0.35-0.3-0.2-0.65-0.4q0.25-1.3-1.55-1.6l-0.3 0.15-0.45 0.5m-1.8 7.85-0.05-0.15-0.15-0.3-0.3-0.15v0.05l-0.35 0.1-0.1 0.2q-0.15 0.5 0.25 0.8h0.4l0.2-0.2 0.1-0.35m49.6-6.45q-0.65 0.7-0.45 1.75l1 0.05v-2.4l-0.55 0.6m0.05 9.6 0.7-0.5-0.7 0.5m-19.15-20.9-1.75 3.35h2.95l-0.05-3.55h-0.9l-0.25 0.2m0.55 12.1-0.3 1.6v-0.05l-0.55-0.2v-0.05l-0.3 0.1-0.25 0.15-0.2 0.45-0.1 0.3 0.2 0.55 0.3 0.35h0.7l0.2-0.25 0.15 0.85q0.2 1.25 1.5 1.9l1.15 0.2q1.05-1.05 1.1-2.65 0.05-2.15-1.2-3.9l-1.35-0.05q-0.35 0.1-0.6 0.3l-0.45 0.4m-3 3.1-0.25-0.1h-0.2l-0.15 0.05q-0.9 1.55 0.95 1.8 0.75-1.05-0.35-1.75m11.5-0.8q-1.55 0.2-1.3 1.35l-0.55 0.3-0.25 0.15-0.4 0.3q-0.3 0.75-0.45 1.55l-0.1 0.2-0.3-0.35h-0.3q-1.1 1 0 1.75h0.15l0.45-0.3q0.15 0.8 0.8 1.5 4.3 1.2 5.25-2.4 0.35-1.45-0.3-2.7l-0.45-0.15-0.1-0.1-1.15 0.1-0.35-0.65-0.4-0.45h-0.05l-0.2-0.1m-27.4-8.4-0.7-0.35-1.6 0.05q-1.55 2.1-1.45 4.7 0.05 1.95 1.3 3.2l1.35-0.25q1.5-0.75 1.8-2.3l0.15-1 0.25 0.25h0.85l0.35-0.35 0.25-0.7-0.1-0.35-0.25-0.55-0.3-0.15-0.35-0.15-0.05 0.05-0.6 0.25-0.05 0.05-0.35-1.9-0.5-0.5m4.1 4.2q-1.35 0.9-0.4 2.15 2.15-0.3 1.1-2.2l-0.2-0.05h-0.2l-0.3 0.1m8.7 0.7-0.1 0.25 0.2 0.6 0.3 0.3h0.7q0.7-0.55 0.4-1.3l-0.15-0.35-0.55-0.2-0.35 0.1-0.2 0.1q-0.2 0.2-0.25 0.5m0.4 1.5-0.35 0.1-0.2 0.15-0.25 0.45-0.1 0.3 0.25 0.55 0.25 0.35h0.75q0.65-0.55 0.35-1.35l-0.15-0.3-0.55-0.2v-0.05m18.95 6.6-0.25-0.1q-0.95 0.25-0.45 1.15l0.05 0.1h0.4q0.5-0.4 0.35-0.95l-0.1-0.2m-2.35 2.05h-0.1l-0.15 0.3v0.1l0.1 0.3 0.15 0.15h0.3l0.25-0.65-0.1-0.2-0.3-0.05v-0.05l-0.15 0.1m-21.65-28.25 4.8-4.35-4.8 4.35" fill="#f9ece1" fill-rule="evenodd"/>
<path d="m62.45 92.6 3.1 1.45 0.25 0.15q0.65 0.5 1.45 0.8l0.25-0.25 1.3-2.25 2.55 1.45 0.15-0.1q2.05-1.35 4.1-2.2 0.95-2.25 1.2-4.4h0.3q3.05 0.4 5.95 1.3l2.4 0.15 0.05-1.95 0.8 0.5q1.8 1 4.05 0.85 1.3-1.8 2.3-4.1 1.8-4 0.3-7.6-1.4-3.35-3.25-6.3h3.25l0.5 0.7 0.9 2.6 1.95 5.8-0.05 3.2-2.1 2.6v6.15l-7.1 1.55-0.05 3.85-2.9-5.7-4.95-2.25-1.25 6.75h-2.9l-1.85 2.5-3.3 1.3-1.15 6.35h-2.95l-0.2 2.9-1.35-1.1 0.05-2.25v-0.4l-3.8-5.35-4.35-0.8 3.9-0.65 2 1.65 0.1-6.5 0.35-0.4m25.7 5.9 2.1 4h-3.6l0.1-4.3h1.1l0.3 0.3m17.15 8.05 0.25-0.2h0.9l0.05 3.55h-2.95l1.75-3.35" fill="#d2afaa" fill-rule="evenodd"/>
<path d="m93.45 70.8q3.55 4.15 6.35 8.85 2.35 6.05 3.35 12.35l0.2 3.2-3.45-0.2q0.45-1.2 0.45-2.6 0-4.25-1-8.45-1-4.05-3.2-7.6l-1.8-2.95-0.9-2.6m4 52.3-0.7-0.9-1.05-1.95-2-4.7q-0.5-0.5-0.35-1.15l-0.45-1.6q-0.7-5.6-0.25-11.25l2.45-2.2-0.1 2.15-0.2 5.95q-0.2 2.15 0.3 4.3l-1.55-2.1 0.05 1.2 0.2 2.15 0.1 0.6 0.45 2.05q0.6 2.2 1.65 4.35l0.1 0.25 1.35 2.85m-20.85-6.65 0.45-0.5 0.3-0.15q1.8 0.3 1.55 1.6l0.65 0.4 0.3 0.2 0.45 0.35 0.6 1.85 0.05 0.25 0.35-0.4 0.1-0.05h0.1l0.2 0.05q1.3 1.2 0 2.05l-0.15 0.05-0.55-0.35q-0.2 1-1 1.75-5.15 1.5-6.25-2.9-0.45-1.7 0.35-3.2l0.6-0.25 0.05-0.05 1.45 0.1q0-0.4 0.4-0.8m-4.65 4.75q1.15 0.35 0.6 1.4l-0.1 0.1h-0.5q-0.6-0.45-0.4-1.15l0.1-0.2 0.3-0.15m2.85 3.1-0.1 0.35-0.2 0.2h-0.4q-0.4-0.3-0.25-0.8l0.1-0.2 0.35-0.1v-0.05l0.3 0.15 0.15 0.3 0.05 0.15m39.55-3.35 0.2 0.1h0.05l0.4 0.45 0.35 0.65 1.15-0.1 0.1 0.1 0.45 0.15q0.65 1.25 0.3 2.7-0.95 3.6-5.25 2.4-0.65-0.7-0.8-1.5l-0.45 0.3h-0.15q-1.1-0.75 0-1.75h0.3l0.3 0.35 0.1-0.2q0.15-0.8 0.45-1.55l0.4-0.3 0.25-0.15 0.55-0.3q-0.25-1.15 1.3-1.35m-11.5 0.8q1.1 0.7 0.35 1.75-1.85-0.25-0.95-1.8l0.15-0.05h0.2l0.25 0.1m-11.8-5 0.3-0.1h0.2l0.2 0.05q1.05 1.9-1.1 2.2-0.95-1.25 0.4-2.15m25.7 10.85 0.15-0.1v0.05l0.3 0.05 0.1 0.2-0.25 0.65h-0.3l-0.15-0.15-0.1-0.3v-0.1l0.15-0.3h0.1m2.35-2.05 0.1 0.2q0.15 0.55-0.35 0.95h-0.4l-0.05-0.1q-0.5-0.9 0.45-1.15l0.25 0.1" fill="#eec8a8" fill-rule="evenodd"/>
<path d="m55.1 114.9q-3.1-5.5-4.65-11.45-0.55-4.55 0.15-8.6h0.7l2.55 6.15 0.1-2.3 0.15-0.5h0.25l1.75 0.3 4.35 0.8 3.8 5.35v0.4l-1 1.5-0.5 1.35-0.35 1.7 0.9 0.65q1.15 0.65 2.1 1.8 0.75 0.85 0.5 2.1l-4 0.25 0.4 1.45-0.05 2.4q-0.2 1.2 0.75 2.15-0.15 0.25-2.85-2.15l-3.85-3.85-0.25 0.35-0.95 0.15m-0.7-12.5-0.55-1.4 0.55 1.4m70 15.45 0.55-0.6v2.4l-1-0.05q-0.2-1.05 0.45-1.75m-18.55 0.8 0.45-0.4q0.25-0.2 0.6-0.3l1.35 0.05q1.25 1.75 1.2 3.9-0.05 1.6-1.1 2.65l-1.15-0.2q-1.3-0.65-1.5-1.9l-0.15-0.85-0.2 0.25h-0.7l-0.3-0.35-0.2-0.55 0.1-0.3 0.2-0.45 0.25-0.15 0.3-0.1v0.05l0.55 0.2v0.05l0.3-1.6m-18.9-6.1 0.5 0.5 0.35 1.9 0.05-0.05 0.6-0.25 0.05-0.05 0.35 0.15 0.3 0.15 0.25 0.55 0.1 0.35-0.25 0.7-0.35 0.35h-0.85l-0.25-0.25-0.15 1q-0.3 1.55-1.8 2.3l-1.35 0.25q-1.25-1.25-1.3-3.2-0.1-2.6 1.45-4.7l1.6-0.05 0.7 0.35m13.2 6.4v0.05l0.55 0.2 0.15 0.3q0.3 0.8-0.35 1.35h-0.75l-0.25-0.35-0.25-0.55 0.1-0.3 0.25-0.45 0.2-0.15 0.35-0.1m-0.4-1.5q0.05-0.3 0.25-0.5l0.2-0.1 0.35-0.1 0.55 0.2 0.15 0.35q0.3 0.75-0.4 1.3h-0.7l-0.3-0.3-0.2-0.6 0.1-0.25" fill="#fdf8f2" fill-rule="evenodd"/>
<path d="m89.7 70.1h-5.85l2.15 4.55 4.15 2.25 0.95 2.15-0.85 2.65-2.8-0.8-0.4 0.1-1.8-1.45-0.9-2.95h-2.35l-1.35-1.5-9.25-0.15-0.1 3.4 1 1.4 3.7-0.05 1.45 4.4-2.8-1.55-3.4 1-0.9-2.25-7.6-0.8-1.5 8.75 1.4 3.05-0.2 0.3m27.25-22.5h3.25l0.5 0.7q3.55 4.15 6.35 8.85 2.35 6.05 3.35 12.35l0.2 3.2h1.05l0.05 3.6h1.7l0.2 0.95 1.6 1.95 0.75-1.45 4.15-1.9 1.05 5.6h2.45l1.5 2.1 2.8 1.05 0.25 1.45 2.1-0.05 0.05 1.45h5.1l1.2 4.4h1.75l0.2 8.6-0.4 0.1-0.25 0.05h-0.15v0.6l-5.35 3.25-0.7 0.5q-4.15 2.25-9.1 2.55-7.8 0.4-14.45-3.75-2-1.55-3.45-3.15l-0.7-0.9-1.05-1.95-2.35 1.95q-7.95 5-17.2 4.5-9.25-0.6-16.05-6.9l-2.2-1.85-2.25-2.05-0.55-1q-3.1-5.5-4.65-11.45-0.55-4.55 0.15-8.6h0.7l2.55 6.15 0.1-2.3 0.15-0.5h0.25l1.75 0.3 3.9-0.65 2 1.65 0.1-6.5 0.35-0.4m62.7 34.45-0.7 0.4m-31-56.65 0.9 2.6 1.95 5.8-0.05 3.2-2.1 2.6v6.15l-7.1 1.55-0.05 3.85-2.9-5.7-4.95-2.25-1.25 6.75h-2.9l-1.85 2.5-3.3 1.3-1.15 6.35h-2.95l-0.2 2.9-1.35-1.1-0.95-0.75m36.65-11.55 3.45 0.2m-15.2 3.3 2.1 4h-3.6l0.1-4.3h1.1l0.3 0.3m11.75-3.5 0.3 0.4 0.05 5.05 5.95 1.35 0.05 3.15 1.7-3.25m-51.85-3.2 4.35 0.8 3.8 5.35v0.4l-0.05 2.25m-10.35-6.3 0.55 1.4m70.5 11.9-0.65 0.5-0.2-2.4h-2.45l-0.7-3.85m10 14.5h-0.05l-0.35 0.05v-3.5l-5.6-5.3m-19.6-7.75-1.75 3.35h2.95l-0.05-3.55h-0.9l-0.25 0.2m-10.2-7.2-2.45 2.2q-0.45 5.65 0.25 11.25l0.45 1.6q-0.15 0.65 0.35 1.15l2 4.7m4.2-25.25-4.8 4.35" fill="none" stroke="#000" stroke-linecap="round" stroke-linejoin="round" stroke-opacity=".50196" stroke-width=".1"/>
</g>
</defs>
</svg>
