<?xml version="1.0" encoding="UTF-8"?>
<svg version="1.1" viewBox="0 0 61.54 47.39" xmlns="http://www.w3.org/2000/svg" xmlns:cc="http://creativecommons.org/ns#" xmlns:dc="http://purl.org/dc/elements/1.1/" xmlns:rdf="http://www.w3.org/1999/02/22-rdf-syntax-ns#" xmlns:xlink="http://www.w3.org/1999/xlink">
<metadata>
<rdf:RDF>
<cc:Work rdf:about="">
<dc:format>image/svg+xml</dc:format>
<dc:type rdf:resource="http://purl.org/dc/dcmitype/StillImage"/>
</cc:Work>
</rdf:RDF>
</metadata>
<g transform="translate(-43.288 -26.93)">
<use transform="matrix(.4821 0 0 .4821 43.3 26.942)" width="127.6" height="98.25" xlink:href="#a"/>
</g>
<defs>
<g id="a" transform="translate(41.9,45.65)">
<path d="m-19.4 46.85-0.1 0.6-0.35-0.1 0.45-0.5" fill="#8b6801" fill-rule="evenodd"/>
<path d="m-19.85 47.35v-0.15l0.45-0.35-0.45 0.5" fill="#febe01" fill-rule="evenodd"/>
<path d="m-14.95 41.05 0.05 0.1-4.5 5.7-0.45 0.35-0.05-7.25 4.95 1.1" fill="#e6d3aa" fill-rule="evenodd"/>
<path d="m77.2-7.3-2.1 9.7q-38.4 27.8-95.75 50.2l1.15-5.15 0.1-0.6 4.5-5.7-0.05-0.1v-0.05q52.8-20.25 92.15-48.3" fill="#b8a42e" fill-rule="evenodd"/>
<path d="m-39.75 11.15q45.4-16.1 95.75-50.2l4.2 3.65-10.8 8 10.8-8q11.3 11.65 17 28.1-39.35 28.05-92.15 48.3v0.05l-4.95-1.1-1.45-3.6q-5.65-10.65-11.45-18.05-3.3-4.2-6.95-7.15m48.8-14.6-41.85 21.75 41.85-21.75m64.7-7.1-27.05 14.55 27.05-14.55m-17.9-10.05-34.85 18.3 34.85-18.3m-64.9 50.65-12.3 6.3 12.3-6.3" fill="#d2c05b" fill-rule="evenodd"/>
<path d="m-39.75 11.15q3.65 2.95 6.95 7.15l-1.15 0.6 1.15-0.6q5.8 7.4 11.45 18.05l1.45 3.6 0.05 7.25v0.15l0.35 0.1-1.15 5.15q-8.45-20.5-21.25-31.75l2.15-9.7" fill="#7c7821" fill-rule="evenodd"/>
<path d="m60.2-35.4-4.2-3.65q-50.35 34.1-95.75 50.2m116.95-18.45q-5.7-16.45-17-28.1m-80.85 88q57.35-22.4 95.75-50.2l2.1-9.7m-97.85 59.9q-8.45-20.5-21.25-31.75l2.15-9.7" fill="none" stroke="#000" stroke-linecap="round" stroke-linejoin="round" stroke-width=".05"/>
<path d="m-32.8 18.3 41.85-21.75m51.15-31.95-10.8 8m-28.4 25.1 34.85-18.3m-9.15 24.6 27.05-14.55m-106.55 28.85-1.15 0.6m12.6 17.45 12.3-6.3" fill="none" stroke="#8c6701" stroke-linecap="round" stroke-linejoin="round" stroke-opacity=".52157" stroke-width=".05"/>
<path d="m18.3-4.95q-0.5-0.85 0.55-2.45 1.05-1.65 3.1-3.1 2.05-1.55 3.75-2l1.6-0.1-0.7 4-2.3 2.1q-2.05 1.5-3.75 1.95-1.75 0.45-2.25-0.4m7.3 9q1.6-1.85 4.45-3.45 0.8-0.5 1.65-0.85l6.05 1.7-0.8 1.2q-1.6 1.9-4.4 3.55-2.85 1.6-5.15 1.85-2.35 0.3-2.85-0.85-0.55-1.25 1.05-3.15" fill="#5b4a2f" fill-rule="evenodd"/>
<path d="m12.35 7.65q-0.9 1.25-2.55 2.5-1.65 1.2-3.05 1.65l-1.7-0.15q-0.35-0.6 0.55-1.9t2.55-2.5q1.65-1.25 3.05-1.65 1.35-0.4 1.7 0.2 0.35 0.55-0.55 1.85" fill="#625028" fill-rule="evenodd"/>
<path d="m65.45-29.4-0.25-0.3-0.15-0.2 2.15-15.65 7.45 5-3.45 7.25-3.8 7.35-1.95-3.45m9.4-2.15 5.2-5.6 5.55 35.05-10.4-24.3-0.5-1.25-2.65 1.5-3.85 2.2-0.15-0.4 3.8-4 3-3.2" fill="#8fb629" fill-rule="evenodd"/>
<path d="m71.2-33.3 3.45-7.25 0.2 9-3 3.2-0.65-4.95m4 6.9 0.6 13-3.75-12.75 2.65-1.5 0.5 1.25" fill="#1a7212" fill-rule="evenodd"/>
<path d="m18.3-4.95q0.5 0.85 2.25 0.4 1.7-0.45 3.75-1.95l2.3-2.1 0.7-4-1.6 0.1q-1.7 0.45-3.75 2-2.05 1.45-3.1 3.1-1.05 1.6-0.55 2.45m9-7.65 0.3-1.5m10.15 15.55 1.1 0.35m-13.25 2.25q-1.6 1.9-1.05 3.15 0.5 1.15 2.85 0.85 2.3-0.25 5.15-1.85 2.8-1.65 4.4-3.55l0.8-1.2-6.05-1.7q-0.85 0.35-1.65 0.85-2.85 1.6-4.45 3.45m-13.25 3.6q0.9-1.3 0.55-1.85-0.35-0.6-1.7-0.2-1.4 0.4-3.05 1.65-1.65 1.2-2.55 2.5t-0.55 1.9l1.7 0.15q1.4-0.45 3.05-1.65 1.65-1.25 2.55-2.5m-7.2 8.85q-8.35 0.85-3.7-6.35" fill="none" stroke="#323203" stroke-linecap="round" stroke-linejoin="round" stroke-opacity=".72157" stroke-width=".25"/>
<path d="m74.65-40.55-7.45-5-2.15 15.65 0.15 0.2 0.25 0.3m1.95 3.45 3.8-7.35 3.45-7.25 0.2 9 5.2-5.6 5.55 35.05-10.4-24.3 0.6 13-3.75-12.75-3.85 2.2-0.9 0.5m7.55-8.1-3 3.2-3.8 4m7.15-2.05-0.5-1.25-2.65 1.5m-0.2-2.2-0.65-4.95" fill="none" stroke="#515004" stroke-linecap="round" stroke-linejoin="round" stroke-opacity=".72157" stroke-width=".25"/>
</g>
</defs>
</svg>
