<?xml version="1.0" encoding="UTF-8" standalone="no"?>
<!DOCTYPE svg PUBLIC "-//W3C//DTD SVG 1.1//EN" "http://www.w3.org/Graphics/SVG/1.1/DTD/svg11.dtd">
<svg width="100%" height="100%" viewBox="0 0 540 915" version="1.1" xmlns="http://www.w3.org/2000/svg" xmlns:xlink="http://www.w3.org/1999/xlink" xml:space="preserve" xmlns:serif="http://www.serif.com/" style="fill-rule:evenodd;clip-rule:evenodd;stroke-linecap:round;stroke-linejoin:round;">
    <g transform="matrix(1,0,0,1,-569.75,-534.25)">
        <g transform="matrix(10,0,0,10,570,534.5)">
            <g id="sprite0">
                <g id="shape0">
                    <path d="M15.85,42.9L15.9,42.55C16,42.05 16.15,41.567 16.35,41.1L17.4,38.4C17.033,40.2 16.967,42.133 17.2,44.2C16.533,43.867 16.083,43.433 15.85,42.9M23.25,32.05C23.483,29.05 23.417,26.25 23.05,23.65L24.1,27.55L24.55,29.65L24.6,30.15C24.367,30.917 23.917,31.55 23.25,32.05M41.1,57.7C41.333,55.633 41.267,53.717 40.9,51.95L41.95,54.6L42.4,56.1L42.45,56.4C42.183,56.933 41.733,57.367 41.1,57.7" style="fill:#f2e43c;"/>
                    <path d="M17.2,44.2L17.5,45.6C17.8,46.8 17.6,47.15 16.9,46.65L16.65,46.4L16.4,46.3C15.833,45.133 15.65,44 15.85,42.9C16.083,43.433 16.533,43.867 17.2,44.2M24.6,30.15C24.8,31.75 24.617,33.4 24.05,35.1L23.8,35.25L23.55,35.6C22.85,36.333 22.65,35.817 22.95,34.05L23.25,32.05C23.917,31.55 24.367,30.917 24.6,30.15M41.1,57.7C41.733,57.367 42.183,56.933 42.45,56.4C42.65,57.533 42.467,58.667 41.9,59.8L41.65,59.95L41.4,60.2C40.7,60.667 40.483,60.317 40.75,59.15L41.1,57.7" style="fill:#f74037;"/>
                    <path d="M15.85,42.9L15.9,42.55C16,42.05 16.15,41.567 16.35,41.1L17.4,38.4C17.033,40.2 16.967,42.133 17.2,44.2L17.5,45.6C17.8,46.8 17.6,47.15 16.9,46.65L16.65,46.4L16.4,46.3C15.833,45.133 15.65,44 15.85,42.9M23.25,32.05C23.483,29.05 23.417,26.25 23.05,23.65L24.1,27.55L24.55,29.65L24.6,30.15C24.8,31.75 24.617,33.4 24.05,35.1L23.8,35.25L23.55,35.6C22.85,36.333 22.65,35.817 22.95,34.05L23.25,32.05M42.45,56.4L42.4,56.1L41.95,54.6L40.9,51.95C41.267,53.717 41.333,55.633 41.1,57.7L40.75,59.15C40.483,60.317 40.7,60.667 41.4,60.2L41.65,59.95L41.9,59.8C42.467,58.667 42.65,57.533 42.45,56.4" style="fill:none;fill-rule:nonzero;stroke:#f59738;stroke-width:0.05px;"/>
                </g>
                <g id="sprite1" transform="matrix(1,0,0,1,3.45,42.3)">
                    <g id="shape1">
                        <path d="M17.65,44.65L16.05,44.35L15.35,44.25L13.5,44C11.867,43.5 10.5,42.617 9.4,41.35L7.75,39.1L5.6,35.45C4.867,34.017 4.283,32.617 3.85,31.25C3.417,29.883 3.317,28.883 3.55,28.25L4.25,25.85C4.817,27.05 5.4,27.883 6,28.35C6.6,28.817 7.667,29.433 9.2,30.2C10.733,30.933 11.967,31.2 12.9,31C11.067,30.467 9.633,29.467 8.6,28C7.567,26.5 6.35,23.517 4.95,19.05C6.55,20.683 7.95,21.5 9.15,21.5C10.317,21.5 10.967,21.633 11.1,21.9C9.9,18.267 9.383,15.817 9.55,14.55C9.85,12.683 10.017,10.9 10.05,9.2L11.3,12L13.5,16.1L14.7,17.85C15.633,16.65 16.217,15.383 16.45,14.05L16.55,11.9L16.65,9.7C18.55,11.167 19.767,10.75 20.3,8.45C20.633,6.683 20.8,4.9 20.8,3.1L20.7,0L24.95,4.7C26.617,6.3 27.55,8.05 27.75,9.95L28.5,13.6C29,13.767 29.6,13.25 30.3,12.05L32.6,7.15L33.7,4.3C33.833,6 34.083,7.767 34.45,9.6C34.783,11.5 34.9,13.4 34.8,15.3C34.733,17.033 34.467,18.867 34,20.8L33.5,22.6L35.65,22.75L36,22.7C37.167,22.533 37.9,21.867 38.2,20.7C40.167,22.133 40.75,23.783 39.95,25.65C39.117,27.517 39.333,29 40.6,30.1L43.55,32.15C44.283,32.417 44.817,32.7 45.15,33L40.5,37.85C38.967,39.517 37.083,41.033 34.85,42.4C32.617,43.733 29.817,44.533 26.45,44.8L22.8,44.9C25,44.567 27.217,43.767 29.45,42.5C31.683,41.233 33.717,39.417 35.55,37.05L30.9,38.25C29.7,38.583 29.1,38.5 29.1,38C31.467,36.633 32.633,35.1 32.6,33.4C32.567,31.7 32.383,30.4 32.05,29.5C31.683,28.6 31.3,28.117 30.9,28.05C29,27.517 27.417,26.783 26.15,25.85L25.95,25.65L25.55,25.35L25.2,25.05C23.7,23.717 22.517,22.317 21.65,20.85L21.5,20.6L20.15,23.1L20.05,23.25C19.417,24.117 18.633,24.783 17.7,25.25C16.8,25.783 16.55,26.883 16.95,28.55C17.35,30.183 17.383,31.517 17.05,32.55C16.717,33.583 15.7,34.517 14,35.35C12.267,36.15 11.833,37.817 12.7,40.35C13.267,42.317 14.917,43.75 17.65,44.65" style="fill:#f74037;"/>
                        <path d="M22.8,44.9L22.1,44.9L17.85,44.65L17.65,44.65C14.917,43.75 13.267,42.317 12.7,40.35C11.833,37.817 12.267,36.15 14,35.35C15.7,34.517 16.717,33.583 17.05,32.55C17.383,31.517 17.35,30.183 16.95,28.55C16.55,26.883 16.8,25.783 17.7,25.25C18.633,24.783 19.417,24.117 20.05,23.25L20.15,23.1L21.5,20.6L21.65,20.85C22.517,22.317 23.7,23.717 25.2,25.05L25.55,25.35L25.95,25.65L26.15,25.85C27.417,26.783 29,27.517 30.9,28.05C31.3,28.117 31.683,28.6 32.05,29.5C32.383,30.4 32.567,31.7 32.6,33.4C32.633,35.1 31.467,36.633 29.1,38C29.1,38.5 29.7,38.583 30.9,38.25L35.55,37.05C33.717,39.417 31.683,41.233 29.45,42.5C27.217,43.767 25,44.567 22.8,44.9" style="fill:#f2e43c;"/>
                        <path d="M17.65,44.65L16.05,44.35L15.35,44.25L13.5,44C11.867,43.5 10.5,42.617 9.4,41.35L7.75,39.1L5.6,35.45C4.867,34.017 4.283,32.617 3.85,31.25C3.417,29.883 3.317,28.883 3.55,28.25L4.25,25.85C4.817,27.05 5.4,27.883 6,28.35C6.6,28.817 7.667,29.433 9.2,30.2C10.733,30.933 11.967,31.2 12.9,31C11.067,30.467 9.633,29.467 8.6,28C7.567,26.5 6.35,23.517 4.95,19.05C6.55,20.683 7.95,21.5 9.15,21.5C10.317,21.5 10.967,21.633 11.1,21.9C9.9,18.267 9.383,15.817 9.55,14.55C9.85,12.683 10.017,10.9 10.05,9.2L11.3,12L13.5,16.1L14.7,17.85C15.633,16.65 16.217,15.383 16.45,14.05L16.55,11.9L16.65,9.7C18.55,11.167 19.767,10.75 20.3,8.45C20.633,6.683 20.8,4.9 20.8,3.1L20.7,0L24.95,4.7C26.617,6.3 27.55,8.05 27.75,9.95L28.5,13.6C29,13.767 29.6,13.25 30.3,12.05L32.6,7.15L33.7,4.3C33.833,6 34.083,7.767 34.45,9.6C34.783,11.5 34.9,13.4 34.8,15.3C34.733,17.033 34.467,18.867 34,20.8L33.5,22.6L35.65,22.75L36,22.7C37.167,22.533 37.9,21.867 38.2,20.7C40.167,22.133 40.75,23.783 39.95,25.65C39.117,27.517 39.333,29 40.6,30.1L43.55,32.15C44.283,32.417 44.817,32.7 45.15,33L40.5,37.85C38.967,39.517 37.083,41.033 34.85,42.4C32.617,43.733 29.817,44.533 26.45,44.8L22.8,44.9L22.1,44.9L17.85,44.65L17.65,44.65C14.917,43.75 13.267,42.317 12.7,40.35C11.833,37.817 12.267,36.15 14,35.35C15.7,34.517 16.717,33.583 17.05,32.55C17.383,31.517 17.35,30.183 16.95,28.55C16.55,26.883 16.8,25.783 17.7,25.25C18.633,24.783 19.417,24.117 20.05,23.25L20.15,23.1L21.5,20.6L21.65,20.85C22.517,22.317 23.7,23.717 25.2,25.05L25.55,25.35L25.95,25.65L26.15,25.85C27.417,26.783 29,27.517 30.9,28.05C31.3,28.117 31.683,28.6 32.05,29.5C32.383,30.4 32.567,31.7 32.6,33.4C32.633,35.1 31.467,36.633 29.1,38C29.1,38.5 29.7,38.583 30.9,38.25L35.55,37.05C33.717,39.417 31.683,41.233 29.45,42.5C27.217,43.767 25,44.567 22.8,44.9" style="fill:none;fill-rule:nonzero;stroke:#f59738;stroke-width:0.05px;"/>
                    </g>
                </g>
                <g id="shape2">
                    <path d="M43.5,28.8L43.2,29.15L42.1,29.9L40.35,27.4L40.05,27.1L37.6,24.6C37.7,23.767 37.583,23.05 37.25,22.45C38.85,24.75 40.933,26.867 43.5,28.8M36.7,31.65L35.7,31.8L35.45,30.75L35.35,30.25C35.15,29.35 35.083,28.45 35.15,27.55C35.783,28.017 36.2,28.533 36.4,29.1L36.6,30L36.65,30.55L36.7,31.2L36.7,31.65M28.55,32.45L28.5,32.45L27.8,32.55L25.8,32.5L18.6,31.55L17.5,31.25L17.35,31.2L20.8,31.35L24.6,31.15L28.7,30.5L28.55,31.65L28.55,32.45M25.35,91.45C28.617,90.55 31.383,89.617 33.65,88.65C36.017,87.617 38.467,86.767 41,86.1C43.4,85.433 45.467,84.133 47.2,82.2C48.267,81.033 48.717,79.417 48.55,77.35C48.317,74.883 48.217,72.417 48.25,69.95C48.283,67.317 48.1,64.717 47.7,62.15C47.3,59.65 47.133,57.117 47.2,54.55L47.55,47.55C47.75,44.883 47.783,42.267 47.65,39.7C49.85,48.9 51.917,63.217 53.85,82.65L53.9,83.55C53.767,85.683 51.217,87.517 46.25,89.05C41.15,90.65 35,91.45 27.8,91.45L25.35,91.45M12.85,78.9C15.75,78.1 18.533,77.683 21.2,77.65L28.8,77.6C31.367,77.6 33.883,77.883 36.35,78.45C36.917,78.583 37.467,78.817 38,79.15L31.4,78.85L23.6,79.05C20.867,79.25 18.467,80.1 16.4,81.6L15.85,81.25L12.85,78.9M11.65,84.95C11.883,86.117 13.067,87.167 15.2,88.1L11.65,87.5L8.15,86.25L4.85,84.55C3.65,83.917 3.517,83.133 4.45,82.2C4.65,82.033 4.867,81.933 5.1,81.9C5.433,81.833 5.617,81.533 5.65,81L5.75,81.15L5.9,81.4L6.3,82.05L7.9,83.35C8.833,84.017 9.883,84.5 11.05,84.8L11.65,84.95" style="fill:#5a94cc;fill-opacity:0.6;"/>
                    <path d="M42.1,29.9L43.2,29.15L43.5,28.8L43.8,29C45.133,30.967 46.417,34.533 47.65,39.7C47.783,42.267 47.75,44.883 47.55,47.55L47.2,54.55C47.133,57.117 47.3,59.65 47.7,62.15C48.1,64.717 48.283,67.317 48.25,69.95C48.217,72.417 48.317,74.883 48.55,77.35C48.717,79.417 48.267,81.033 47.2,82.2C45.467,84.133 43.4,85.433 41,86.1C38.467,86.767 36.017,87.617 33.65,88.65C31.383,89.617 28.617,90.55 25.35,91.45L21.7,91.25L18.1,91C14.233,90.6 10.75,89.917 7.65,88.95C2.683,87.417 0.133,85.583 0,83.45L0.1,82.55C3.1,52.217 6.433,34.333 10.1,28.9L10.15,28.85L10.45,28.95L13.9,30.3L17.3,31.2L17.35,31.2L17.5,31.25L18.6,31.55L25.8,32.5L27.8,32.55L28.5,32.45L28.55,32.45L28.55,35.45L28.75,39.05L28.9,42.95L29,45.05L31.9,42.75L33.1,41.85L35.4,44.75L35.9,45.75L36.1,45.75C36.333,44.75 36.433,43.617 36.4,42.35L36.3,38.55L36.05,34.65L35.7,31.8L36.7,31.65L37.4,37.8C37.833,40.367 38.567,42.55 39.6,44.35C39.833,42.95 40.3,41.683 41,40.55L41.2,40.7C42.733,41.5 44.067,42.5 45.2,43.7L45.6,44.15L45.2,39.95C44.733,37.45 44.133,35.117 43.4,32.95L42.9,31.6L42.1,29.9M12.85,78.9L11.85,77.25C11.017,75.95 10.533,74.45 10.4,72.75C10.2,70.55 10.233,68.35 10.5,66.15L10.9,60.35C11,57.583 10.9,54.983 10.6,52.55L9.75,55.85L7.55,63.15C6.783,65.583 6.183,68.05 5.75,70.55C5.317,72.917 5.25,75.317 5.55,77.75L5.55,78.35C5.55,79.25 5.667,80.15 5.9,81.05L5.65,81C5.617,81.533 5.433,81.833 5.1,81.9C4.867,81.933 4.65,82.033 4.45,82.2C3.517,83.133 3.65,83.917 4.85,84.55L8.15,86.25L11.65,87.5L15.2,88.1C13.067,87.167 11.883,86.117 11.65,84.95L17.4,86.2L23.4,85.95L22.3,85L16.4,81.6C18.467,80.1 20.867,79.25 23.6,79.05L31.4,78.85L38,79.15C37.467,78.817 36.917,78.583 36.35,78.45C33.883,77.883 31.367,77.6 28.8,77.6L21.2,77.65C18.533,77.683 15.75,78.1 12.85,78.9" style="fill:#5a94cc;fill-opacity:0.08;"/>
                    <path d="M41.1,30.6L40.6,30.45L37.9,30L37.3,28.2L36.5,26.6L35.35,25.45L35.4,23.75C36.533,24.45 37.45,25.283 38.15,26.25L39.15,27.7L40.25,29.25L41.1,30.6M33,21.25L33.75,21.1L33.85,21.7C34.183,22.933 34.267,24.217 34.1,25.55L33.85,27.3C33.683,28.3 33.633,29.3 33.7,30.3L32.35,30.45L30.25,30.2C30.383,29.5 30.6,28.833 30.9,28.2L32.45,25C33.017,23.833 33.2,22.583 33,21.25" style="fill:#d69c16;"/>
                    <path d="M37.9,30L40.6,30.45L41.1,30.6L41.9,32.65L42.4,34.55L42.7,36.3C42.867,37.633 43.2,38.783 43.7,39.75L40.5,38.05L40,37.75C39.667,38.317 39.417,39.133 39.25,40.2L39.15,37.6L38.6,33.85L38.3,31.9L37.9,30.05L37.9,30M30.25,30.2L32.35,30.45L33.7,30.3L33.75,31.05L34.25,34.75L34.9,38.45C35.1,39.683 35.183,40.9 35.15,42.1C34.583,41.167 33.667,40.317 32.4,39.55C31.533,40.317 30.833,41.133 30.3,42L30,39.45C29.733,38.15 29.667,36.883 29.8,35.65L30.05,31.75L30.25,30.2" style="fill:#eabc31;"/>
                    <path d="M42.9,31.6L43.4,32.95C44.133,35.117 44.733,37.45 45.2,39.95L45.6,44.15L45.2,43.7C44.067,42.5 42.733,41.5 41.2,40.7L41,40.55C40.3,41.683 39.833,42.95 39.6,44.35C38.567,42.55 37.833,40.367 37.4,37.8L36.7,31.65L36.7,31.2L36.65,30.55L36.6,30L37.9,30L37.9,30.05L38.3,31.9L38.6,33.85L39.15,37.6L39.25,40.2C39.417,39.133 39.667,38.317 40,37.75L40.5,38.05L43.7,39.75C43.2,38.783 42.867,37.633 42.7,36.3L42.4,34.55L41.9,32.65L41.1,30.6C41.767,30.833 42.367,31.167 42.9,31.6M35.7,31.8L36.05,34.65L36.3,38.55L36.4,42.35C36.433,43.617 36.333,44.75 36.1,45.75L35.9,45.75L35.4,44.75L33.1,41.85L31.9,42.75L29,45.05L28.9,42.95L28.75,39.05L28.55,35.45L28.55,31.65L28.7,30.5L29.1,29.05C29.367,29.583 29.75,29.967 30.25,30.2L30.05,31.75L29.8,35.65C29.667,36.883 29.733,38.15 30,39.45L30.3,42C30.833,41.133 31.533,40.317 32.4,39.55C33.667,40.317 34.583,41.167 35.15,42.1C35.183,40.9 35.1,39.683 34.9,38.45L34.25,34.75L33.75,31.05L33.7,30.3L35.35,30.25L35.45,30.75L35.7,31.8M32.25,21.4L32.25,21.15L33.15,21.1L33.7,20.95L34,20.8L34.45,20.9L33.75,21.1L33,21.25L32.3,21.4L32.25,21.4M31.05,18.45C31.25,18.317 31.467,18.217 31.7,18.15L31.55,18.35L31.05,18.45" style="fill:#e2140a;"/>
                    <path d="M37.6,24.6L40.05,27.1L40.35,27.4L42.1,29.9L42.9,31.6C42.367,31.167 41.767,30.833 41.1,30.6L40.25,29.25L39.15,27.7L38.15,26.25C37.45,25.283 36.533,24.45 35.4,23.75L35.35,25.45L36.5,26.6L37.3,28.2L37.9,30L36.6,30L36.4,29.1C36.2,28.533 35.783,28.017 35.15,27.55C35.083,28.45 35.15,29.35 35.35,30.25L33.7,30.3C33.633,29.3 33.683,28.3 33.85,27.3L34.1,25.55C34.267,24.217 34.183,22.933 33.85,21.7L33.75,21.1L34.45,20.9C34.95,21.333 35.25,21.883 35.35,22.55L37.6,24.6M35.9,17.7L35.9,19.55L35.95,19.7L35.9,19.7L35.7,19.8L35.05,19.95L34.2,20.25L34.1,19.45L33.95,18.75L33.95,18.7L33.6,18.05L33.95,18.7L33.95,18.75L34.1,19.45L34.2,20.25L34,20.8L33.7,20.95L33.15,21.1L33.5,20.4L33.95,18.7L33.5,20.4L33.15,21.1L32.25,21.15L32.1,21.15L32.05,21L32.05,20.65C27.25,21.45 22.983,21.25 19.25,20.05L18.3,19.65L18.3,17.75L18.9,17.75L20.9,18.2C24.1,18.8 27.483,18.883 31.05,18.45L31.55,18.35L31.7,18.15C32,17.983 32.317,17.867 32.65,17.8L33.45,17.9L33.6,18.05L35.2,17.75L35.9,17.7M31.55,18.35L31.75,19.15L32.05,20.65L31.75,19.15L31.55,18.35M32.3,21.4L33,21.25C33.2,22.583 33.017,23.833 32.45,25L30.9,28.2C30.6,28.833 30.383,29.5 30.25,30.2C29.75,29.967 29.367,29.583 29.1,29.05L29.6,27.95L31.45,24.75C32.117,23.617 32.4,22.5 32.3,21.4" style="fill:#c60909;"/>
                    <path d="M38.1,1.2L38.1,1.25L33.9,1.65L33.65,1.65L32.15,1.15L28.65,0.7L23.1,0.8L22.25,0.9L22.25,1.05L22.2,1.1L20.65,1.25C20.35,1.35 19.983,1.567 19.55,1.9L19.5,1.9L19.05,1.85L15.6,1.25L15.7,1.05L19.8,0.45L26.4,0L27.25,0L33.5,0.3C36.233,0.567 37.767,0.867 38.1,1.2M30.6,2.15L30.3,1.8L30.5,1.4L30.6,1.35C30.9,1.25 31.133,1.3 31.3,1.5L31.3,1.55L31.35,1.6L31.3,1.75L31.25,1.75L31.1,2.05C30.933,1.883 30.933,1.9 31.1,2.1L30.65,2.15L30.6,2.15M22.15,2.25L22.2,1.65L22.35,1.5L22.45,1.45L22.7,1.7L22.2,2.25L22.45,1.95L22.15,2.25" style="fill:#be6710;"/>
                    <path d="M33.65,1.65L33.9,1.65C34.133,2.017 34.383,3.75 34.65,6.85C34.75,7.55 34.733,8.183 34.6,8.75L34.35,10.5L34.2,12.45L34.1,12.9C33.9,12.367 33.35,11.967 32.45,11.7C31.883,11.767 31.45,12.033 31.15,12.5C30.883,12.933 30.75,13.783 30.75,15.05L20.85,14.65C20.85,13.65 20.533,13 19.9,12.7L19.55,11.9C19.25,11.333 19.117,10.717 19.15,10.05L19.15,8.25L18.9,6.85L18.85,6.05L18.9,5.8L19.05,1.85L19.5,1.9L19.55,1.9L22.15,2.25L22.45,1.95L22.2,2.25L26.55,2.3L30.6,2.15L30.65,2.15L31.1,2.1C30.933,1.9 30.933,1.883 31.1,2.05L33.65,1.65M33.55,8.3L33.55,8.35L33.15,8.5L32.95,8.75C32.883,8.917 32.9,9.083 33,9.25C33.233,9.617 33.55,9.667 33.95,9.4L34.1,9.15L34.15,8.95L34.1,8.65L33.95,8.5L33.8,8.4L33.55,8.3M28.95,6.3L28.65,6.6C28.55,6.933 28.6,7.133 28.8,7.2L29.2,7.2L29.4,6.9L29.55,6.6C29.483,6.4 29.333,6.3 29.1,6.3L28.95,6.3M22.6,7.9C22.867,8.267 23.167,8.333 23.5,8.1C24.867,7.233 24.8,6.483 23.3,5.85C22.033,6.217 21.8,6.9 22.6,7.9M21.8,11.95L21.4,12.05L21.2,12.35L21.25,12.8C21.483,13.2 21.8,13.267 22.2,13L22.35,12.75L22.4,12.55L22.35,12.25L22.2,12.05L22.05,12L21.8,11.9L21.8,11.95" style="fill:#f9dba4;"/>
                    <path d="M31.1,2.05L31.25,1.75L31.3,1.75L31.35,1.6L31.3,1.55L31.3,1.5C31.133,1.3 30.9,1.25 30.6,1.35L30.5,1.4L30.3,1.8L30.6,2.15L26.55,2.3L22.2,2.25L22.7,1.7L22.45,1.45L22.35,1.5L22.2,1.65L22.15,2.25L19.55,1.9C19.983,1.567 20.35,1.35 20.65,1.25L22.2,1.1L22.25,1.05L22.25,0.9L23.1,0.8L28.65,0.7L32.15,1.15L33.65,1.65L31.1,2.05" style="fill:#f1a850;"/>
                    <path d="M38.1,1.25L35.35,14.65L35.9,14.6L35.6,14.65L35.7,14.65L35.3,14.75L35.3,14.8L35.2,14.8C30.233,15.733 25.433,15.817 20.8,15.05L18.4,14.75L18.4,14.7L18.25,14.75L18.1,14.65L18.45,14.7C17.617,12.333 16.983,9.983 16.55,7.65C16.117,5.283 15.8,3.15 15.6,1.25L19.05,1.85L18.9,5.8L18.85,6.05L18.9,6.85L19.15,8.25L19.15,10.05C19.117,10.717 19.25,11.333 19.55,11.9L19.9,12.7C20.533,13 20.85,13.65 20.85,14.65L30.75,15.05C30.75,13.783 30.883,12.933 31.15,12.5C31.45,12.033 31.883,11.767 32.45,11.7C33.35,11.967 33.9,12.367 34.1,12.9L34.2,12.45L34.35,10.5L34.6,8.75C34.733,8.183 34.75,7.55 34.65,6.85C34.383,3.75 34.133,2.017 33.9,1.65L38.1,1.25M33.55,8.3L33.8,8.4L33.95,8.5L34.1,8.65L34.15,8.95L34.1,9.15L33.95,9.4C33.55,9.667 33.233,9.617 33,9.25C32.9,9.083 32.883,8.917 32.95,8.75L33.15,8.5L33.55,8.35L33.55,8.3M21.8,11.95L21.8,11.9L22.05,12L22.2,12.05L22.35,12.25L22.4,12.55L22.35,12.75L22.2,13C21.8,13.267 21.483,13.2 21.25,12.8L21.2,12.35L21.4,12.05L21.8,11.95M22.6,7.9C21.8,6.9 22.033,6.217 23.3,5.85C24.8,6.483 24.867,7.233 23.5,8.1C23.167,8.333 22.867,8.267 22.6,7.9M28.95,6.3L29.1,6.3C29.333,6.3 29.483,6.4 29.55,6.6L29.4,6.9L29.2,7.2L28.8,7.2C28.6,7.133 28.55,6.933 28.65,6.6L28.95,6.3" style="fill:#f5c77c;"/>
                    <path d="M23.1,21.75L23.15,21.7C23.217,21.567 23.333,21.5 23.5,21.5L24.6,21.6L24.75,21.65L24.9,22L24.9,22.1L24.35,22L23.1,21.75M29.1,22.05L29.05,21.7L29.35,21.4L29.5,21.35L29.95,21.7L30,21.8L30,21.9L29.1,22.05" style="fill:#cc9;"/>
                    <path d="M24.9,22.1L24.9,22L24.75,21.65L24.6,21.6L23.5,21.5C23.333,21.5 23.217,21.567 23.15,21.7L23.1,21.75L23.05,21.75L19.3,20.75L19.25,20.05C22.983,21.25 27.25,21.45 32.05,20.65L32.05,21L32.1,21.15L32.25,21.15L32.25,21.4L30,21.9L30,21.8L29.95,21.7L29.5,21.35L29.35,21.4L29.05,21.7L29.1,22.05C27.5,22.25 26.1,22.267 24.9,22.1M34.2,20.25L35.05,19.95L35.1,20.7L34.45,20.9L34,20.8L34.2,20.25" style="fill:#dcdbba;"/>
                    <path d="M37.25,22.45C37.583,23.05 37.7,23.767 37.6,24.6L35.35,22.55C35.25,21.883 34.95,21.333 34.45,20.9L35.1,20.7L35.05,19.95L35.7,19.8L35.85,20.1L36.9,21.9L37.25,22.45M17.35,31.2L17.3,31.2L13.9,30.3L10.45,28.95L10.15,28.85C13.717,26.25 16.367,23.3 18.1,20L18.3,19.6L18.3,19.65L19.25,20.05L19.3,20.75L23.05,21.75L23.1,21.75L24.35,22L24.9,22.1C26.1,22.267 27.5,22.25 29.1,22.05L30,21.9L32.25,21.4L32.3,21.4C32.4,22.5 32.117,23.617 31.45,24.75L29.6,27.95L29.1,29.05L28.7,30.5L24.6,31.15L20.8,31.35L17.35,31.2M13.95,27.7C13.85,27.967 13.8,28.25 13.8,28.55C13.8,28.883 13.85,29.067 13.95,29.1C16.317,29.833 18.333,29.2 20,27.2C20.9,26.1 21.067,24.883 20.5,23.55C20.3,23.15 19.983,23.15 19.55,23.55C17.483,25.383 15.617,26.767 13.95,27.7" style="fill:#5a94cc;fill-opacity:0.16;"/>
                    <path d="M35.9,14.6L35.9,14.55L35.95,14.6C37.183,15.033 37.3,16.033 36.3,17.6L35.9,17.7L35.2,17.75L35.3,14.8L35.3,14.75L35.7,14.65L35.6,14.65L35.9,14.6L35.7,14.65L35.9,14.6L35.95,14.6L35.9,14.6M18.4,14.75L18.9,17.75L18.3,17.75L17.65,17.65C16.483,16.883 16.4,15.95 17.4,14.85L18.25,14.75L18.4,14.7L18.4,14.75" style="fill:#0265c6;fill-opacity:0.4;"/>
                    <path d="M35.3,14.8L35.2,17.75L33.6,18.05L33.45,17.9L32.65,17.8C32.317,17.867 32,17.983 31.7,18.15C31.467,18.217 31.25,18.317 31.05,18.45C27.483,18.883 24.1,18.8 20.9,18.2L18.9,17.75L18.4,14.75L20.8,15.05C25.433,15.817 30.233,15.733 35.2,14.8L35.3,14.8" style="fill:#99c1e8;"/>
                    <path d="M14.2,22.6C14.433,22.333 14.7,22.267 15,22.4L14.75,22.45L14.2,22.6M3.4,32.9L3.4,30.25L3.45,32.8L3.4,32.9" style="fill:#09f;fill-opacity:0.1;"/>
                    <path d="M5.9,81.05C5.667,80.15 5.55,79.25 5.55,78.35L5.55,77.75C5.25,75.317 5.317,72.917 5.75,70.55C6.183,68.05 6.783,65.583 7.55,63.15L9.75,55.85L10.6,52.55C10.9,54.983 11,57.583 10.9,60.35L10.5,66.15C10.233,68.35 10.2,70.55 10.4,72.75C10.533,74.45 11.017,75.95 11.85,77.25L12.85,78.9L15.85,81.25L16.4,81.6L22.3,85L23.4,85.95L17.4,86.2L11.65,84.95L11.05,84.8C9.883,84.5 8.833,84.017 7.9,83.35L6.3,82.05L5.9,81.4L5.95,81.3L5.95,81.05L5.9,81.05" style="fill:#fafdfe;"/>
                    <path d="M0.1,82.55L0,83.45L0,83.25L0.1,82.55" style="fill:#e5f5ff;"/>
                    <path d="M42.1,29.9L43.2,29.15L43.5,28.8C40.933,26.867 38.85,24.75 37.25,22.45C37.583,23.05 37.7,23.767 37.6,24.6M36.7,31.65L35.7,31.8M28.55,32.45L28.5,32.45L27.8,32.55L25.8,32.5L18.6,31.55L17.5,31.25M10.15,28.85L10.1,28.9C6.433,34.333 3.1,52.217 0.1,82.55L0,83.45C0.133,85.583 2.683,87.417 7.65,88.95C10.75,89.917 14.233,90.6 18.1,91L21.7,91.25L25.35,91.45C28.617,90.55 31.383,89.617 33.65,88.65C36.017,87.617 38.467,86.767 41,86.1C43.4,85.433 45.467,84.133 47.2,82.2C48.267,81.033 48.717,79.417 48.55,77.35C48.317,74.883 48.217,72.417 48.25,69.95C48.283,67.317 48.1,64.717 47.7,62.15C47.3,59.65 47.133,57.117 47.2,54.55L47.55,47.55C47.75,44.883 47.783,42.267 47.65,39.7C46.417,34.533 45.133,30.967 43.8,29L43.5,28.8M35.7,19.8L35.85,20.1L36.9,21.9L37.25,22.45M10.15,28.85C13.717,26.25 16.367,23.3 18.1,20L18.3,19.6M17.35,31.2L20.8,31.35L24.6,31.15L28.7,30.5M0,83.45L0,83.25L0.1,82.55M47.65,39.7C49.85,48.9 51.917,63.217 53.85,82.65L53.9,83.55C53.767,85.683 51.217,87.517 46.25,89.05C41.15,90.65 35,91.45 27.8,91.45L25.35,91.45" style="fill:none;fill-rule:nonzero;stroke:#87b5e3;stroke-width:0.05px;"/>
                    <path d="M38.1,1.2L38.1,1.25L35.35,14.65M35.6,14.65L35.7,14.65L35.3,14.75L35.3,14.8L35.2,14.8C30.233,15.733 25.433,15.817 20.8,15.05L18.4,14.75" style="fill:none;fill-rule:nonzero;stroke:#c08944;stroke-width:0.05px;"/>
                    <path d="M15.7,1.05L19.8,0.45L26.4,0L27.25,0L33.5,0.3C36.233,0.567 37.767,0.867 38.1,1.2M18.45,14.7C17.617,12.333 16.983,9.983 16.55,7.65C16.117,5.283 15.8,3.15 15.6,1.25" style="fill:none;fill-rule:nonzero;stroke:#8b4b0c;stroke-width:0.05px;"/>
                    <path d="M23.1,21.75L24.35,22L24.9,22.1C26.1,22.267 27.5,22.25 29.1,22.05L30,21.9L32.25,21.4L32.3,21.4L33,21.25L33.75,21.1L34.45,20.9L35.1,20.7L35.05,19.95M19.25,20.05L19.3,20.75L23.05,21.75L23.1,21.75" style="fill:none;fill-rule:nonzero;stroke:#5797d7;stroke-width:0.05px;"/>
                    <path d="M35.9,14.6L35.9,14.55M35.7,14.65L35.9,14.6L35.6,14.65M35.3,14.8L35.2,17.75M35.9,14.6L35.95,14.6M18.4,14.75L18.9,17.75M18.4,14.7L18.4,14.75" style="fill:none;fill-rule:nonzero;stroke:#3f89d1;stroke-width:0.05px;"/>
                    <path d="M35.95,14.6C37.183,15.033 37.3,16.033 36.3,17.6L35.9,17.7L35.2,17.75L33.6,18.05M18.9,17.75L20.9,18.2C24.1,18.8 27.483,18.883 31.05,18.45L31.55,18.35M18.25,14.75L18.4,14.7M18.9,17.75L18.3,17.75M17.65,17.65C16.483,16.883 16.4,15.95 17.4,14.85L18.25,14.75" style="fill:none;fill-rule:nonzero;stroke:#76aade;stroke-width:0.05px;"/>
                    <path d="M32.25,21.15L32.1,21.15L32.05,21L32.05,20.65L31.75,19.15L31.55,18.35L31.7,18.15C32,17.983 32.317,17.867 32.65,17.8L33.45,17.9L33.6,18.05L33.95,18.7L33.95,18.75L34.1,19.45L34.2,20.25L34,20.8L33.7,20.95L33.15,21.1L32.25,21.15M31.05,18.45C31.25,18.317 31.467,18.217 31.7,18.15M33.95,18.7L33.5,20.4L33.15,21.1M33.7,30.3L35.35,30.25" style="fill:none;fill-rule:nonzero;stroke:#900;stroke-width:0.05px;"/>
                    <path d="M32.25,21.4L32.25,21.15M34.45,20.9L34,20.8" style="fill:none;fill-rule:nonzero;stroke:#f00;stroke-width:0.05px;"/>
                    <path d="M35.9,17.7L35.9,19.55L35.95,19.7L35.9,19.7L35.7,19.8L35.05,19.95M15.6,1.25L15.7,1.05M18.3,17.75L18.3,19.65L19.25,20.05M18.3,17.75L17.65,17.65" style="fill:none;fill-rule:nonzero;stroke:#2b74bb;stroke-width:0.05px;"/>
                    <path d="M17.5,31.25L17.35,31.2L17.3,31.2" style="fill:none;fill-rule:nonzero;stroke:#3985d0;stroke-opacity:0.75;stroke-width:0.05px;"/>
                </g>
            </g>
        </g>
    </g>
</svg>
