<?xml version="1.0" encoding="UTF-8"?>
<svg version="1.1" viewBox="0 0 34.044 40.253" xmlns="http://www.w3.org/2000/svg" xmlns:cc="http://creativecommons.org/ns#" xmlns:dc="http://purl.org/dc/elements/1.1/" xmlns:rdf="http://www.w3.org/1999/02/22-rdf-syntax-ns#" xmlns:xlink="http://www.w3.org/1999/xlink">
<metadata>
<rdf:RDF>
<cc:Work rdf:about="">
<dc:format>image/svg+xml</dc:format>
<dc:type rdf:resource="http://purl.org/dc/dcmitype/StillImage"/>
</cc:Work>
</rdf:RDF>
</metadata>
<g transform="translate(-278.52 -184.78)">
<use transform="matrix(-1,0,0,1,312.55,184.8)" width="34" height="40.200001" xlink:href="#a"/>
</g>
<defs>
<g id="a" transform="translate(46.35,31.5)">
<use transform="translate(-46.35,-31.5)" width="34" height="40.200001" xlink:href="#b"/>
</g>
<g id="b" transform="translate(46.35,31.5)">
<path d="m-24.95-18.2q-5.25-5.1-10.7-9-3.25-2.4-6.5-4.3-0.7 8.65 0.3 11.8 1.2 3.5 7.15 8.75 3.35 3 10.7 6.4 6.8 3.05 11.65 8-8.5-16.3-12.6-21.65m-9.8 2.3 8.3 3.15q4.8 4 8.3 9.25-3.5-5.25-8.3-9.25l-7.25-7.3-5.45-6.45 5.45 6.45 7.25 7.3-8.3-3.15" fill="#b2d9e3" fill-opacity=".6" fill-rule="evenodd"/>
<path d="m-24.95-18.2q-5.25-5.1-10.7-9-3.25-2.4-6.5-4.3-0.7 8.65 0.3 11.8 1.2 3.5 7.15 8.75 3.35 3 10.7 6.4 6.8 3.05 11.65 8" fill="none" stroke="#edf8fa" stroke-linecap="round" stroke-linejoin="round" stroke-opacity=".65098" stroke-width=".05"/>
<path d="m-18.15-3.5q-3.5-5.25-8.3-9.25l-7.25-7.3-5.45-6.45m12.7 13.75-8.3-3.15" fill="none" stroke="#edf8fa" stroke-linecap="round" stroke-linejoin="round" stroke-opacity=".65098" stroke-width=".05"/>
<path d="m-40.85-1-5.5 1.05q4.75 5.85 6.9 7.25 2.65 1.5 8.45 1.4 3.3-0.1 8.65-2.2 5-2 10-1.75-13.35-5.35-18.3-6.3l-10.2 0.55q2.55 1.65 5 3.4l-6.2-0.95 6.2 0.95q-2.45-1.75-5-3.4m5 3.4 7.65 0.25q4.55-0.15 9.15 1.15-4.6-1.3-9.15-1.15l-7.65-0.25m1.95 3.15 5.7-2.9-5.7 2.9" fill="#b2d9e3" fill-opacity=".6" fill-rule="evenodd"/>
<path d="m-12.35 4.75q-5-0.25-10 1.75-5.35 2.1-8.65 2.2-5.8 0.1-8.45-1.4-2.15-1.4-6.9-7.25l5.5-1.05 10.2-0.55" fill="none" stroke="#edf8fa" stroke-linecap="round" stroke-linejoin="round" stroke-opacity=".65098" stroke-width=".05"/>
<path d="m-40.85-1q2.55 1.65 5 3.4l-6.2-0.95m23 2.35q-4.6-1.3-9.15-1.15l-7.65-0.25m7.65 0.25-5.7 2.9" fill="none" stroke="#edf8fa" stroke-linecap="round" stroke-linejoin="round" stroke-opacity=".65098" stroke-width=".05"/>
</g>
</defs>
</svg>
