<?xml version="1.0" encoding="UTF-8"?>
<svg version="1.1" viewBox="0 0 77.191 77.191" xmlns="http://www.w3.org/2000/svg" xmlns:cc="http://creativecommons.org/ns#" xmlns:dc="http://purl.org/dc/elements/1.1/" xmlns:rdf="http://www.w3.org/1999/02/22-rdf-syntax-ns#" xmlns:xlink="http://www.w3.org/1999/xlink">
<metadata>
<rdf:RDF>
<cc:Work rdf:about="">
<dc:format>image/svg+xml</dc:format>
<dc:type rdf:resource="http://purl.org/dc/dcmitype/StillImage"/>
</cc:Work>
</rdf:RDF>
</metadata>
<g transform="translate(-117.4 -77.654)">
<use transform="translate(141,106.05)" width="48.049999" height="45" xlink:href="#c"/>
<use transform="matrix(.2318 .0914 -.0914 .2318 152.15 103.85)" width="69.400002" height="69.400002" xlink:href="#b"/>
<use transform="matrix(.3532 .1944 -.1944 .3532 173.35 81)" width="5.75" height="99.050003" xlink:href="#a"/>
<use transform="matrix(-.3532 -.1944 .1848 -.3358 136.95 152)" width="5.75" height="99.050003" xlink:href="#a"/>
<use transform="matrix(-.1944 .3532 -.3532 -.1944 190.95 136.3)" width="5.75" height="99.050003" xlink:href="#a"/>
<use transform="matrix(.1944 -.3532 .3358 .1848 119.95 99.85)" width="5.75" height="99.050003" xlink:href="#a"/>
<use transform="matrix(.3873 -.1123 .1123 .3873 142.5 78.3)" width="5.75" height="99.050003" xlink:href="#a"/>
<use transform="matrix(-.3873 .1123 -.1067 -.3681 166.9 154.2)" width="5.75" height="99.050003" xlink:href="#a"/>
<use transform="matrix(.1123 .3873 -.3873 .1123 193.95 104.95)" width="5.75" height="99.050003" xlink:href="#a"/>
<use transform="matrix(-.1123 -.3873 .3681 -.1067 118.05 129.4)" width="5.75" height="99.050003" xlink:href="#a"/>
</g>
<defs>
<g id="c" transform="translate(-42.85,-46.9)">
<path d="m64.35 77.5-5.1-0.6 5.6 2.85 0.5-0.65q4.2-3.7 5.95-8.15 1.35-3.25 1.35-6.95l-8.3 13.5m-21.35-11.3 0.75-0.95q2.75-4 3.75-8.45 0.75-0.85 2.2-1.5 2.85-1.35 8.7-2.2 8.9-1.5 20.3-4.6l1.9 2.6-3.85 17.35-12.15 13.25-21.45-9.05q0.25-1.95-0.15-6.45m33.6 12.4 0.5 4.5q-2.2-0.25-4.45 0l-0.5-0.65q0.85-2.85 3.85-3.85h0.6" fill="#fc0" fill-rule="evenodd"/>
<path d="m64.35 77.5 8.3-13.5q0 3.7-1.35 6.95-1.75 4.45-5.95 8.15l-0.5 0.65-5.6-2.85 5.1 0.6m-21.35-11.3-0.1-1.7q-0.35-4.7 1.5-13.65l32.95-3.95 1.35 1.6q-11.4 3.1-20.3 4.6-5.85 0.85-8.7 2.2-1.45 0.65-2.2 1.5-1 4.45-3.75 8.45l-0.75 0.95" fill="#feeabc" fill-rule="evenodd"/>
<path d="m80.6 51.1q2.1 2.95 10.25 17.25l-8.3 8.8q0 6.55 0.4 10.15l-18.6 3.85-20.45-8.55q5.2-4.95-0.75-9.95l21.45 9.05 12.15-13.25 3.85-17.35m-4 27.5h-0.6q-3 1-3.85 3.85l0.5 0.65q2.25-0.25 4.45 0l-0.5-4.5" fill="#c09501" fill-rule="evenodd"/>
<path d="m90.9 69.05-8.3 8.8q0 6.6 0.35 10.2l-18.6 3.85-20.45-8.55 1.5-1.75 17.45 7.3 18.6-3.85q-0.35-3.6-0.35-10.15l8.15-8.7 1.65 2.85" fill="#774a02" fill-rule="evenodd"/>
</g>
<g id="b">
<path d="m59.2 10.15q10.2 10.2 10.2 24.55t-10.2 24.5q-10.15 10.2-24.5 10.2t-24.55-10.2q-10.15-10.15-10.15-24.5t10.15-24.55q10.2-10.15 24.55-10.15t24.5 10.15" fill="url(#e)" fill-rule="evenodd"/>
</g>
<radialGradient id="e" cx="0" cy="0" r="819.2" gradientTransform="matrix(.0435 0 0 .0435 34.7 34.7)" gradientUnits="userSpaceOnUse">
<stop stop-color="#ffc" stop-opacity=".47059" offset=".11373"/>
<stop stop-color="#ffc" stop-opacity="0" offset="1"/>
</radialGradient>
<g id="a">
<path d="m5.75 0v99.05h-5.75v-99.05h5.75" fill="url(#d)" fill-rule="evenodd"/>
</g>
<linearGradient id="d" x1="-819.2" x2="819.2" gradientTransform="matrix(0 -.0327 .0035 0 2.85 50.75)" gradientUnits="userSpaceOnUse">
<stop stop-color="#ffc" stop-opacity=".47059" offset=".11373"/>
<stop stop-color="#ffc" stop-opacity="0" offset="1"/>
</linearGradient>
</defs>
</svg>
