<?xml version="1.0" encoding="UTF-8"?>
<svg version="1.1" viewBox="0 0 159.23 167.81" xmlns="http://www.w3.org/2000/svg" xmlns:cc="http://creativecommons.org/ns#" xmlns:dc="http://purl.org/dc/elements/1.1/" xmlns:rdf="http://www.w3.org/1999/02/22-rdf-syntax-ns#" xmlns:xlink="http://www.w3.org/1999/xlink">
<metadata>
<rdf:RDF>
<cc:Work rdf:about="">
<dc:format>image/svg+xml</dc:format>
<dc:type rdf:resource="http://purl.org/dc/dcmitype/StillImage"/>
</cc:Work>
</rdf:RDF>
</metadata>
<g transform="translate(-163.93 -38.998)">
<use transform="matrix(.8041 -.5919 .5919 .8041 153.83 121.84)" width="142.2" height="133.85001" xlink:href="#a"/>
</g>
<defs>
<g id="a" transform="translate(71.1,66.9)">
<use transform="translate(-71.1,-66.9)" width="142.2" height="133.85001" xlink:href="#b"/>
</g>
<g id="b" transform="translate(71.1,66.9)">
<path d="m-51.5-13.85 4.4-1.5q1.45-0.45 1-1.95-0.5-1.55-1.85-2.75-5.1-4.45-11.3-6.4l-1.35-1.1q14.65-4.7-2-33 14.05 15.8 27.4 27.9l2.4 2.15q22 19.5 42.15 28.95 11.45 2.05 20.4 4.05l-2.75 7.15-3.3 4q0.85 0.4 1.6 1l4.65-5.5 7.55-4.75q10.95 2.85 16.9 5.75l3.95 2.3 0.9 1q2.75 3.4 3.05 7.2-2.6 5.4-6.75 9.35-1 0.95-2.3 1.3l-2.2 0.25-0.8-0.4-0.15-0.5q-0.25-2.45 1.6-4 1.5-1.2 3.25-1.95-1.9-2.35-5.3-2.3l-19.65 0.75-2.65-0.05 0.15 0.15q0.35 2.45-2.2 2.85-9.3 0.85-14.8-6.4-1.1-1.45-0.75-3.3 0.55-2.6 3.3-3.15 1.35-0.2 1.9-1.35-9.4-2.8-19.2-3.6l-15.35 0.35q-14.35 0.15-28.4-3.65l-14.85-4.15-3.6-2.1 3.45 1.65-7.6-3.95q17.9-3.35 19.1-10.3m107.9 29.2 2.85-1.9-2.85 1.9m-32.7-1.7q-2.3-1.15-5.65-1.4 3.35 0.25 5.65 1.4m4.3 5.55q-0.65-2.85-2.7-4.55 2.05 1.7 2.7 4.55" fill="#eeca98" fill-rule="evenodd"/>
<path d="m-59.25-26.45q6.2 1.95 11.3 6.4 1.35 1.2 1.85 2.75 0.45 1.5-1 1.95l-4.4 1.5q0.9-5.25-7.75-12.6m-3.6 27.3 14.85 4.15q14.05 3.8 28.4 3.65l15.35-0.35q9.8 0.8 19.2 3.6-0.55 1.15-1.9 1.35-2.75 0.55-3.3 3.15-0.35 1.85 0.75 3.3 5.5 7.25 14.8 6.4 2.55-0.4 2.2-2.85l-0.15-0.15 2.65 0.05 19.65-0.75q3.4-0.05 5.3 2.3-1.75 0.75-3.25 1.95-1.85 1.55-1.6 4l0.15 0.5 0.8 0.4-0.2 0.4q-16.25 12-33.7 19.15-17.5 7.15-28.3 7.75t-13.05 0.25q28.6-9.95 30.1-14.7 1.5-4.8-1.1-5.5-10.15-5.1-23.15-3.3-12.25 1.6-24.1 4.3-5 1.15-9.9 2.75l-6.25 0.8q36.9-17.65-4.25-42.6" fill="#e8bc84" fill-rule="evenodd"/>
<path d="m51.05 31.55 2.2-0.25q1.3-0.35 2.3-1.3 4.15-3.95 6.75-9.35 0.15 2.05-0.4 4.2-2.75 10.5-22.55 23.6-28.55 18.3-72 18 5.45-25.7-19.7-23.8 4.9-1.6 9.9-2.75 11.85-2.7 24.1-4.3 13-1.8 23.15 3.3 2.6 0.7 1.1 5.5-1.5 4.75-30.1 14.7 2.25 0.35 13.05-0.25t28.3-7.75q17.45-7.15 33.7-19.15l0.2-0.4" fill="#e0a768" fill-rule="evenodd"/>
<path d="m43.5-31.85q12.6-23.1 25.2-34.55 2.35 12.75-4.6 34.35l-3.5 9.8-10.85 3.55 4.85-9.3q6.05-12.45 10.25-26.1-6.8 16.5-14.85 30.75l0.65-2.75 0.6-2.6 1.85-5.4 0.6-1.5q-3.3 2.5-6.15 6.4l-2.4 2.95q-1.4 1.45-2 3.15l0.2-1.85q-0.1-3.45 0.15-6.9" fill="#fce5a8" fill-rule="evenodd"/>
<path d="m48.4-16.4 10.3-2.4q-7.2 13.3-21.2 23.2l-7.55 4.75 4.65-5.5q7.65-9.55 13.8-20.05m-4.9-15.45q-0.25 3.45-0.15 6.9l-0.2 1.85q0.6-1.7 2-3.15l2.4-2.95q2.85-3.9 6.15-6.4l-0.6 1.5-1.85 5.4-0.6 2.6-0.65 2.75q-8.15 14.35-17.55 26.5l-5.45 6.5 2.75-7.15 4.8-17.85 2.65 5.75v-10q3.15-6.5 6.3-12.25" fill="#fad98a" fill-rule="evenodd"/>
<path d="m49.75-18.7-1.35 2.3q-6.15 10.5-13.8 20.05l-9.3 11q-0.75-0.6-1.6-1l3.3-4 5.45-6.5q9.4-12.15 17.55-26.5 8.05-14.25 14.85-30.75-4.2 13.65-10.25 26.1l-4.85 9.3" fill="#b17b07" fill-rule="evenodd"/>
<path d="m-51.5-13.85q-1.2 6.95-19.1 10.3l7.6 3.95m125.3 20.25q-0.3-3.8-3.05-7.2l-2.85 1.9m-26.65-12.85q-8.95-2-20.4-4.05-20.15-9.45-42.15-28.95l-2.4-2.15q-13.35-12.1-27.4-27.9 16.65 28.3 2 33l1.35 1.1q8.65 7.35 7.75 12.6m-0.85 56.5-6.25 0.8q36.9-17.65-4.25-42.6m10.5 41.8q25.15-1.9 19.7 23.8 43.45 0.3 72-18 19.8-13.1 22.55-23.6 0.55-2.15 0.4-4.2m-18.8-52.5q12.6-23.1 25.2-34.55 2.35 12.75-4.6 34.35l-3.5 9.8-10.85 3.55-1.35 2.3 10.3-2.4q-7.2 13.3-21.2 23.2 10.95 2.85 16.9 5.75l3.55-4.4m-7.95-29.1q8.05-14.25 14.85-30.75-4.2 13.65-10.25 26.1l-4.85 9.3m-20 21.2 4.8-17.85 2.65 5.75v-10q3.15-6.5 6.3-12.25m10.9 42 3.95 2.3 0.9 1 11.35-7.7m-40.65 3.4 4.65-5.5q7.65-9.55 13.8-20.05m-18.65 18.9-2.75 7.15 5.45-6.5q9.4-12.15 17.55-26.5m-23 33-3.3 4q0.85 0.4 1.6 1l4.65-5.5 7.55-4.75m-19.45 7.85q3.35 0.25 5.65 1.4m38.2 11.2 7.95 2m-44.55-12.2q2.05 1.7 2.7 4.55" fill="none" stroke="#292100" stroke-linecap="round" stroke-linejoin="round" stroke-opacity=".4"/>
<path d="m-33.9 12.85q0.4-0.4 0.95-0.4t0.95 0.4 0.4 0.95-0.4 0.95-0.95 0.4-0.95-0.4-0.4-0.95 0.4-0.95m3.2 1.55q0.55 0 0.95 0.4t0.4 0.95-0.4 0.95-0.95 0.4-0.95-0.4-0.4-0.95 0.4-0.95 0.95-0.4m2.5-0.75q0.4-0.4 0.95-0.4t0.95 0.4 0.4 0.95-0.4 0.95-0.95 0.4-0.95-0.4-0.4-0.95 0.4-0.95m-25.1 28.05q0.4-0.4 0.95-0.4t0.95 0.4 0.4 0.95-0.4 0.95-0.95 0.4-0.95-0.4-0.4-0.95 0.4-0.95m44.25-25.4q0.4 0.4 0.4 0.95t-0.4 0.95-0.95 0.4-0.95-0.4-0.4-0.95 0.4-0.95 0.95-0.4 0.95 0.4m-6.5 6.95q0.4-0.4 0.95-0.4t0.95 0.4 0.4 0.95-0.4 0.95-0.95 0.4-0.95-0.4-0.4-0.95 0.4-0.95m-3.1-6.55q0.4 0.4 0.4 0.95t-0.4 0.95-0.95 0.4-0.95-0.4-0.4-0.95 0.4-0.95 0.95-0.4 0.95 0.4m-7.45 2.15q0.4-0.4 0.95-0.4t0.95 0.4 0.4 0.95-0.4 0.95-0.95 0.4-0.95-0.4-0.4-0.95 0.4-0.95m4.8 3.65q0.4-0.4 0.95-0.4t0.95 0.4 0.4 0.95-0.4 0.95-0.95 0.4-0.95-0.4-0.4-0.95 0.4-0.95m0.4 6.1q0.4 0.4 0.4 0.95t-0.4 0.95-0.95 0.4-0.95-0.4-0.4-0.95 0.4-0.95 0.95-0.4 0.95 0.4m-5.3 0.95q0 0.55-0.4 0.95t-0.95 0.4-0.95-0.4-0.4-0.95 0.4-0.95 0.95-0.4 0.95 0.4 0.4 0.95m1 5.95q0.4-0.4 0.95-0.4t0.95 0.4 0.4 0.95-0.4 0.95-0.95 0.4-0.95-0.4-0.4-0.95 0.4-0.95m5.7-0.85q0.4-0.4 0.95-0.4t0.95 0.4 0.4 0.95-0.4 0.95-0.95 0.4-0.95-0.4-0.4-0.95 0.4-0.95m2.4-6.05q0.4-0.4 0.95-0.4t0.95 0.4 0.4 0.95-0.4 0.95-0.95 0.4-0.95-0.4-0.4-0.95 0.4-0.95m3.3 5.6q0.4-0.4 0.95-0.4t0.95 0.4 0.4 0.95-0.4 0.95-0.95 0.4-0.95-0.4-0.4-0.95 0.4-0.95m5.3 1.15q0-0.55 0.4-0.95t0.95-0.4 0.95 0.4 0.4 0.95-0.4 0.95-0.95 0.4-0.95-0.4-0.4-0.95m-33.7 3.3q0.4-0.4 0.95-0.4t0.95 0.4 0.4 0.95-0.4 0.95-0.95 0.4-0.95-0.4-0.4-0.95 0.4-0.95m4-8.9q0.4-0.4 0.95-0.4t0.95 0.4 0.4 0.95-0.4 0.95-0.95 0.4-0.95-0.4-0.4-0.95 0.4-0.95m1.6 7.75q0.4-0.4 0.95-0.4t0.95 0.4 0.4 0.95-0.4 0.95-0.95 0.4-0.95-0.4-0.4-0.95 0.4-0.95m5.65-1.05q0.4-0.4 0.95-0.4t0.95 0.4 0.4 0.95-0.4 0.95-0.95 0.4-0.95-0.4-0.4-0.95 0.4-0.95m-14.65 4.6q0 0.55-0.4 0.95t-0.95 0.4-0.95-0.4-0.4-0.95 0.4-0.95 0.95-0.4 0.95 0.4 0.4 0.95m37.75 10.55q0.55 0 0.95 0.4t0.4 0.95-0.4 0.95-0.95 0.4-0.95-0.4-0.4-0.95 0.4-0.95 0.95-0.4m-11.5 6.5-0.1-0.1q-0.4-0.4-0.4-0.95t0.4-0.95 0.95-0.4 0.95 0.4 0.4 0.95-0.4 0.95l-0.2 0.2 0.1 0.05q0.4 0.4 0.4 0.95t-0.4 0.95-0.95 0.4-0.95-0.4-0.4-0.95 0.4-0.95l0.2-0.15m-3.5-0.05q0.4 0.4 0.4 0.95t-0.4 0.95-0.95 0.4-0.95-0.4-0.4-0.95 0.4-0.95 0.95-0.4 0.95 0.4m10.6-2.05q-0.4 0.4-0.95 0.4t-0.95-0.4-0.4-0.95 0.4-0.95 0.95-0.4 0.95 0.4 0.4 0.95-0.4 0.95m-0.65 1.6q0.55 0 0.95 0.4t0.4 0.95-0.4 0.95-0.95 0.4-0.95-0.4-0.4-0.95 0.4-0.95l0.95-0.4m4.5 0.85q0-0.55 0.4-0.95t0.95-0.4 0.95 0.4 0.4 0.95-0.4 0.95-0.95 0.4-0.95-0.4-0.4-0.95m27.75-25.85q0 0.55-0.4 0.95t-0.95 0.4-0.95-0.4-0.4-0.95 0.4-0.95 0.95-0.4 0.95 0.4 0.4 0.95m-4.9 5q0 0.55-0.4 0.95t-0.95 0.4-0.95-0.4-0.4-0.95 0.4-0.95 0.95-0.4 0.95 0.4 0.4 0.95m7.6-2.7q0-0.55 0.4-0.95t0.95-0.4 0.95 0.4 0.4 0.95-0.4 0.95-0.95 0.4-0.95-0.4-0.4-0.95m-3.25 4.05q-0.55 0-0.95-0.4t-0.4-0.95 0.4-0.95 0.95-0.4 0.95 0.4 0.4 0.95-0.4 0.95-0.95 0.4m-14-13.6q0.4 0.4 0.4 0.95t-0.4 0.95q-0.35 0.35-0.85 0.4l-0.35 0.55q-0.4 0.4-0.95 0.4t-0.95-0.4-0.4-0.95 0.4-0.95q0.35-0.35 0.85-0.4l0.35-0.55q0.4-0.4 0.95-0.4t0.95 0.4m-7.85-1.25q0.55 0 0.95 0.4t0.4 0.95-0.4 0.95-0.95 0.4-0.95-0.4-0.4-0.95 0.4-0.95 0.95-0.4m4.55 7.9q0.4 0.4 0.4 0.95t-0.4 0.95-0.95 0.4-0.95-0.4-0.4-0.95 0.4-0.95 0.95-0.4 0.95 0.4m-1.7 4.45q0 0.55-0.4 0.95t-0.95 0.4-0.95-0.4-0.4-0.95 0.4-0.95 0.95-0.4 0.95 0.4 0.4 0.95m9.95-8.25q0.4 0.4 0.4 0.95t-0.4 0.95-0.95 0.4-0.95-0.4-0.4-0.95 0.4-0.95 0.95-0.4 0.95 0.4m-3.45 6.9q0.4 0.4 0.4 0.95t-0.4 0.95-0.95 0.4-0.95-0.4-0.4-0.95 0.4-0.95 0.95-0.4 0.95 0.4m-2.55 1.95q0.55 0 0.95 0.4t0.4 0.95-0.4 0.95-0.95 0.4-0.95-0.4-0.4-0.95 0.4-0.95 0.95-0.4m1.6 4.9q0.4-0.4 0.95-0.4t0.95 0.4 0.4 0.95-0.4 0.95-0.95 0.4-0.95-0.4-0.4-0.95 0.4-0.95m-1.35 5.7q0 0.55-0.4 0.95t-0.95 0.4-0.95-0.4-0.4-0.95 0.4-0.95 0.95-0.4 0.95 0.4 0.4 0.95m-7.5 1.95q0.4-0.4 0.95-0.4t0.95 0.4 0.4 0.95-0.4 0.95-0.95 0.4-0.95-0.4-0.4-0.95 0.4-0.95m3.55 7.7q0 0.55-0.4 0.95t-0.95 0.4-0.95-0.4-0.4-0.95 0.4-0.95 0.95-0.4 0.95 0.4 0.4 0.95m8.6-4.3q0.4-0.4 0.95-0.4t0.95 0.4 0.4 0.95-0.4 0.95-0.95 0.4-0.95-0.4-0.4-0.95 0.4-0.95m-3.5 1.8q0.4 0.4 0.4 0.95t-0.4 0.95-0.95 0.4-0.95-0.4-0.4-0.95 0.4-0.95 0.95-0.4 0.95 0.4m24.65-11.05q0.4-0.4 0.95-0.4t0.95 0.4 0.4 0.95-0.4 0.95-0.95 0.4-0.95-0.4-0.4-0.95 0.4-0.95m-2.8 3.55q0 0.55-0.4 0.95t-0.95 0.4-0.95-0.4-0.4-0.95 0.4-0.95 0.95-0.4 0.95 0.4 0.4 0.95m-6.1-1.8q0.4 0.4 0.4 0.95t-0.4 0.95-0.95 0.4-0.95-0.4-0.4-0.95 0.4-0.95 0.95-0.4 0.95 0.4m-4.75 3.1q0.4 0.4 0.4 0.95t-0.4 0.95l-0.45 0.3 0.25 0.2q0.4 0.4 0.4 0.95t-0.4 0.95-0.95 0.4-0.95-0.4-0.4-0.95 0.4-0.95l0.45-0.3-0.25-0.2q-0.4-0.4-0.4-0.95t0.4-0.95 0.95-0.4 0.95 0.4m5.25 0.15q0.4 0.4 0.4 0.95t-0.4 0.95-0.95 0.4-0.95-0.4-0.4-0.95 0.4-0.95 0.95-0.4 0.95 0.4m15.8-15.2q0.55 0 0.95 0.4t0.4 0.95-0.4 0.95-0.95 0.4-0.95-0.4-0.4-0.95 0.4-0.95 0.95-0.4m2.5 4.4q0.4-0.4 0.95-0.4t0.95 0.4 0.4 0.95-0.4 0.95-0.95 0.4-0.95-0.4-0.4-0.95 0.4-0.95m11.7-5.05-0.4 0.6q-0.4 0.4-0.95 0.4t-0.95-0.4-0.4-0.95 0.4-0.95q0.3-0.3 0.65-0.35l-0.05 0.3q0 0.55 0.4 0.95t0.95 0.4h0.35m-5.55-5.05q0.4-0.4 0.95-0.4t0.95 0.4 0.4 0.95-0.4 0.95-0.95 0.4-0.95-0.4-0.4-0.95 0.4-0.95m0.55 6.95q0.4 0.4 0.4 0.95t-0.4 0.95-0.95 0.4-0.95-0.4-0.4-0.95 0.4-0.95 0.95-0.4 0.95 0.4m-11.65 6.15q0.4-0.4 0.95-0.4l0.95 0.4q0.4 0.4 0.4 0.95t-0.4 0.95-0.95 0.4-0.95-0.4-0.4-0.95 0.4-0.95" fill="#e0a768" fill-rule="evenodd"/>
<path d="m-46.15-35.75q0.4-0.4 0.95-0.4t0.95 0.4 0.4 0.95-0.4 0.95-0.95 0.4-0.95-0.4-0.4-0.95 0.4-0.95m26 16.7q0.4-0.4 0.95-0.4t0.95 0.4 0.4 0.95-0.4 0.95-0.95 0.4-0.95-0.4-0.4-0.95 0.4-0.95m-4.8 1.35q0.4-0.4 0.95-0.4t0.95 0.4 0.4 0.95-0.4 0.95-0.95 0.4-0.95-0.4-0.4-0.95 0.4-0.95m4.4 3.7q0.4-0.4 0.95-0.4t0.95 0.4 0.4 0.95-0.4 0.95-0.95 0.4-0.95-0.4-0.4-0.95 0.4-0.95m4.6-1.55q0.4-0.4 0.95-0.4t0.95 0.4 0.4 0.95-0.4 0.95-0.95 0.4-0.95-0.4-0.4-0.95 0.4-0.95m-13.45-14.95q0.4 0.4 0.4 0.95t-0.4 0.95-0.95 0.4-0.95-0.4-0.4-0.95 0.4-0.95 0.95-0.4 0.95 0.4m-6.65-2.9q0.4-0.4 0.95-0.4t0.95 0.4 0.4 0.95-0.4 0.95-0.95 0.4-0.95-0.4-0.4-0.95 0.4-0.95m-3.7 0.6q0.4 0.4 0.4 0.95t-0.4 0.95-0.95 0.4-0.95-0.4-0.4-0.95 0.4-0.95 0.95-0.4 0.95 0.4m10.55 16.1q0.55 0 0.95 0.4t0.4 0.95-0.4 0.95-0.95 0.4-0.95-0.4-0.4-0.95 0.4-0.95 0.95-0.4m-5.75-2.5q0.4-0.4 0.95-0.4t0.95 0.4 0.4 0.95-0.4 0.95-0.95 0.4-0.95-0.4-0.4-0.95 0.4-0.95m-10.9 13.25q0.4-0.4 0.95-0.4t0.95 0.4 0.4 0.95-0.4 0.95-0.95 0.4-0.95-0.4-0.4-0.95 0.4-0.95m29.55 5.4q0.4-0.4 0.95-0.4t0.95 0.4 0.4 0.95-0.4 0.95-0.95 0.4-0.95-0.4-0.4-0.95 0.4-0.95m-8.95-0.75q0 0.55-0.4 0.95t-0.95 0.4-0.95-0.4-0.4-0.95 0.4-0.95 0.95-0.4 0.95 0.4 0.4 0.95m5.15 0.65q0.4 0.4 0.4 0.95t-0.4 0.95-0.95 0.4-0.95-0.4-0.4-0.95 0.4-0.95 0.95-0.4 0.95 0.4m8.7 39.65q-0.55 0-0.95-0.4t-0.4-0.95 0.4-0.95 0.95-0.4 0.95 0.4 0.4 0.95-0.4 0.95-0.95 0.4m-2.65 4.95q0.4 0.4 0.4 0.95t-0.4 0.95-0.95 0.4-0.95-0.4-0.4-0.95 0.4-0.95 0.95-0.4 0.95 0.4m-2.25 5q0.4-0.4 0.95-0.4t0.95 0.4 0.4 0.95-0.4 0.95-0.95 0.4-0.95-0.4-0.4-0.95 0.4-0.95m-7.7-6.9q0.4 0.4 0.4 0.95t-0.4 0.95-0.95 0.4-0.95-0.4-0.4-0.95 0.4-0.95 0.95-0.4 0.95 0.4m1.85 8.7q0.4-0.4 0.95-0.4t0.95 0.4 0.4 0.95-0.4 0.95-0.95 0.4-0.95-0.4-0.4-0.95 0.4-0.95m62.3-40.45q0.4-0.4 0.95-0.4t0.95 0.4 0.4 0.95-0.4 0.95-0.95 0.4-0.95-0.4-0.4-0.95 0.4-0.95m5.25 2.15q0.4-0.4 0.95-0.4t0.95 0.4 0.4 0.95-0.4 0.95-0.95 0.4-0.95-0.4-0.4-0.95 0.4-0.95m-40.25-13.2q0 0.55-0.4 0.95t-0.95 0.4-0.95-0.4-0.4-0.95 0.4-0.95 0.95-0.4 0.95 0.4 0.4 0.95m-7.9-2.6q0.4-0.4 0.95-0.4t0.95 0.4 0.4 0.95-0.4 0.95-0.95 0.4-0.95-0.4-0.4-0.95 0.4-0.95m9.85 9.3q0.4 0.4 0.4 0.95t-0.4 0.95-0.95 0.4-0.95-0.4-0.4-0.95 0.4-0.95 0.95-0.4 0.95 0.4m7.3-1.9q0.4-0.4 0.95-0.4t0.95 0.4 0.4 0.95-0.4 0.95-0.95 0.4-0.95-0.4-0.4-0.95 0.4-0.95m2.65 9.75q0-0.55 0.4-0.95t0.95-0.4 0.95 0.4 0.4 0.95-0.4 0.95-0.95 0.4-0.95-0.4-0.4-0.95m3.85 1.75q0.4 0.4 0.4 0.95t-0.4 0.95-0.95 0.4-0.95-0.4-0.4-0.95 0.4-0.95 0.95-0.4 0.95 0.4m-7.35 0.55q0.4-0.4 0.95-0.4t0.95 0.4 0.4 0.95-0.4 0.95-0.95 0.4-0.95-0.4-0.4-0.95 0.4-0.95m-20.25 21.35q0.4-0.4 0.95-0.4t0.95 0.4 0.4 0.95-0.4 0.95-0.95 0.4-0.95-0.4-0.4-0.95 0.4-0.95m6.1 5.9q0 0.55-0.4 0.95t-0.95 0.4-0.95-0.4-0.4-0.95 0.4-0.95 0.95-0.4 0.95 0.4 0.4 0.95m-3.45 17.65q0 0.55-0.4 0.95t-0.95 0.4-0.95-0.4-0.4-0.95 0.4-0.95 0.95-0.4 0.95 0.4 0.4 0.95m28.4-11.1q0.4-0.4 0.95-0.4t0.95 0.4 0.4 0.95-0.4 0.95-0.95 0.4-0.95-0.4-0.4-0.95 0.4-0.95m4.6-3.25q0.4-0.4 0.95-0.4t0.95 0.4 0.4 0.95-0.4 0.95-0.95 0.4-0.95-0.4-0.4-0.95 0.4-0.95m-9.3 6.45q0.4-0.4 0.95-0.4t0.95 0.4 0.4 0.95-0.4 0.95-0.95 0.4-0.95-0.4-0.4-0.95 0.4-0.95m34.7-37.8q0.4-0.4 0.95-0.4l0.95 0.4q0.4 0.4 0.4 0.95t-0.4 0.95-0.95 0.4-0.95-0.4-0.4-0.95 0.4-0.95m0.05 7.15-0.1-0.55q0-0.55 0.4-0.95t0.95-0.4 0.95 0.4 0.4 0.95-0.4 0.95-0.95 0.4l-0.45-0.05-0.3-0.45-0.5-0.3m-3.4-5q-0.55 0-0.95-0.4t-0.4-0.95 0.4-0.95 0.95-0.4 0.95 0.4 0.4 0.95-0.4 0.95-0.95 0.4m-7.85-0.4q-0.4 0.4-0.95 0.4t-0.95-0.4-0.4-0.95 0.4-0.95 0.95-0.4 0.95 0.4 0.4 0.95-0.4 0.95m-6.55 0.2q-0.55 0-0.95-0.4t-0.4-0.95 0.4-0.95 0.95-0.4 0.95 0.4 0.4 0.95-0.4 0.95-0.95 0.4m7.7 24.6q0 0.55-0.4 0.95t-0.95 0.4-0.95-0.4-0.4-0.95 0.4-0.95 0.95-0.4 0.95 0.4 0.4 0.95" fill="#e8bc84" fill-rule="evenodd"/>
<path d="m-38.35 6.05q0.4 0.4 0.4 0.95t-0.4 0.95-0.95 0.4-0.95-0.4-0.4-0.95 0.4-0.95 0.95-0.4 0.95 0.4m-7.6-1.2q0.4-0.4 0.95-0.4t0.95 0.4 0.4 0.95-0.4 0.95-0.95 0.4-0.95-0.4-0.4-0.95 0.4-0.95m13.7 3q0 0.55-0.4 0.95t-0.95 0.4-0.95-0.4-0.4-0.95 0.4-0.95 0.95-0.4 0.95 0.4 0.4 0.95m3.4-0.4q0.4-0.4 0.95-0.4t0.95 0.4 0.4 0.95-0.4 0.95-0.95 0.4-0.95-0.4-0.4-0.95 0.4-0.95m7.6 0.25q0.4 0.4 0.4 0.95t-0.4 0.95-0.95 0.4-0.95-0.4-0.4-0.95 0.4-0.95 0.95-0.4 0.95 0.4m11.35-0.15q0.4 0.4 0.4 0.95t-0.4 0.95-0.95 0.4-0.95-0.4-0.4-0.95 0.4-0.95 0.95-0.4 0.95 0.4m-5.25 1.05q0 0.55-0.4 0.95t-0.95 0.4-0.95-0.4-0.4-0.95 0.4-0.95 0.95-0.4 0.95 0.4 0.4 0.95m-40.75-7.15q0.55 0 0.95 0.4t0.4 0.95-0.4 0.95-0.95 0.4-0.95-0.4-0.4-0.95 0.4-0.95 0.95-0.4m-6.55-1.15q0.4-0.4 0.95-0.4t0.95 0.4 0.4 0.95-0.4 0.95-0.95 0.4-0.95-0.4-0.4-0.95 0.4-0.95m12.85 3.05q0.4 0.4 0.4 0.95t-0.4 0.95-0.95 0.4-0.95-0.4-0.4-0.95 0.4-0.95 0.95-0.4 0.95 0.4m51.1 4.5q0.4 0.4 0.4 0.95t-0.4 0.95-0.95 0.4-0.95-0.4-0.4-0.95 0.4-0.95 0.95-0.4 0.95 0.4m-7.6-0.5q0.4-0.4 0.95-0.4t0.95 0.4 0.4 0.95-0.4 0.95-0.95 0.4-0.95-0.4-0.4-0.95 0.4-0.95m11.45 1.45q0.4-0.4 0.95-0.4t0.95 0.4 0.4 0.95-0.4 0.95-0.95 0.4-0.95-0.4-0.4-0.95 0.4-0.95m5.55 1.3q0.4-0.4 0.95-0.4t0.95 0.4 0.4 0.95l-0.3 0.85h0.05q0.55 0 0.95 0.4t0.4 0.95-0.4 0.95-0.95 0.4-0.95-0.4-0.4-0.95q0-0.5 0.3-0.85h-0.05q-0.55 0-0.95-0.4t-0.4-0.95 0.4-0.95m12.85 16.1q0 0.55-0.4 0.95t-0.95 0.4-0.95-0.4-0.4-0.95 0.4-0.95 0.95-0.4 0.95 0.4 0.4 0.95m2.7-2.5q0.4-0.4 0.95-0.4t0.95 0.4 0.4 0.95-0.4 0.95-0.95 0.4-0.95-0.4-0.4-0.95 0.4-0.95m6.2-0.75q0 0.55-0.4 0.95t-0.95 0.4-0.95-0.4-0.4-0.95 0.4-0.95 0.95-0.4l0.95 0.4q0.4 0.4 0.4 0.95m-19.4-0.25q-0.4 0.4-0.95 0.4t-0.95-0.4-0.4-0.95 0.4-0.95 0.95-0.4 0.95 0.4 0.4 0.95-0.4 0.95m2.65 1.25q0.4-0.4 0.95-0.4t0.95 0.4 0.4 0.95-0.4 0.95-0.95 0.4-0.95-0.4-0.4-0.95 0.4-0.95m-4.9-6.75q0 0.55-0.4 0.95t-0.95 0.4-0.95-0.4-0.4-0.95 0.4-0.95 0.95-0.4 0.95 0.4 0.4 0.95m44.2 6 0.1 0.5q0 0.55-0.4 0.95t-0.95 0.4-0.95-0.4-0.4-0.95 0.4-0.95 0.95-0.4l0.45 0.1 0.5 0.3 0.3 0.45m-11.25-1.05q0 0.55-0.4 0.95t-0.95 0.4-0.95-0.4-0.4-0.95 0.4-0.95 0.95-0.4 0.95 0.4 0.4 0.95m3.4-0.8q0.4-0.4 0.95-0.4t0.95 0.4 0.4 0.95-0.4 0.95-0.95 0.4-0.95-0.4-0.4-0.95 0.4-0.95m3.2 4.55q0.4-0.4 0.95-0.4t0.95 0.4 0.4 0.95-0.4 0.95-0.95 0.4-0.95-0.4-0.4-0.95 0.4-0.95m-14.55-4.5q0.4-0.4 0.95-0.4t0.95 0.4 0.4 0.95-0.4 0.95-0.95 0.4-0.95-0.4-0.4-0.95 0.4-0.95m13.75 9.85 0.35-0.65q0.4-0.4 0.95-0.4t0.95 0.4 0.4 0.95-0.4 0.95l-0.6 0.4h-0.35q-0.55 0-0.95-0.4t-0.4-0.95l0.05-0.3" fill="#eeca98" fill-rule="evenodd"/>
</g>
</defs>
</svg>
