<?xml version="1.0" encoding="UTF-8"?>
<svg version="1.1" viewBox="0 0 67.502 61.884" xmlns="http://www.w3.org/2000/svg" xmlns:cc="http://creativecommons.org/ns#" xmlns:dc="http://purl.org/dc/elements/1.1/" xmlns:rdf="http://www.w3.org/1999/02/22-rdf-syntax-ns#" xmlns:xlink="http://www.w3.org/1999/xlink">
<metadata>
<rdf:RDF>
<cc:Work rdf:about="">
<dc:format>image/svg+xml</dc:format>
<dc:type rdf:resource="http://purl.org/dc/dcmitype/StillImage"/>
</cc:Work>
</rdf:RDF>
</metadata>
<g transform="translate(-271.3 -184.3)">
<use transform="translate(271.3,184.3)" width="67.5" height="61.900002" xlink:href="#a"/>
</g>
<defs>
<g id="a" transform="translate(-271.3,-184.3)">
<path d="m310.35 194.45q-5.25 3.45-10.75 1.7 5.25-1.55 10.75-1.7" fill="#fff" fill-rule="evenodd"/>
<path d="m330.5 187.05q-2.7 1.6-5.85 2.85l-3.3 1.3q4.45-2.4 9.15-4.15" fill="#ff3" fill-rule="evenodd"/>
<path d="m315.05 213.7 1.4-0.75-1.75 1.65 0.35-0.9" fill="#ad2c20" fill-rule="evenodd"/>
<path d="m309.75 224.1-0.2 0.25-1.35 1.95q-7.15 9.95-17.35 16.7-6.2 4-12.9 2.55-3.4-0.7-4.6-3.8l-1.05-3.25 2.85-5.15 1.05 4.4 0.9-1.75 2.85-5.3 3.4-3.1 1.15-8.55 0.7-1 1.55-2.1 4.2-5.8-3.3 12.9-0.1 0.4-0.5 0.9q-1.7 3.05-1.6 6.55v0.25q11.55-9.95 25.8-15.7l3.8-1.75-0.35 0.9q-5.65 5.5-9.2 12.6 1.6-0.65 3-1.9l1.15-1.2h0.1m-15 10.7q1.7-3.95-0.6-4.95-2.35-1-6.65 1.1-4.35 2.05-5.5 4.1-1.2 2-0.6 4.25 0.65 2.3 2.6 3.55 1.95 1.2 3.95 0.7 2-0.55 3.55-2.7 1.5-2.15 3.25-6.05" fill="#093" fill-rule="evenodd"/>
<path d="m330.5 187.05 5.7-1.95 2.35-0.55q-3 1.4-5.85 3.1-2.95 1.7-5.75 3.55l-12.45 7.2q-20.9 6.6-22.6 0.8 2.2-1.15 4.6-2.05l3.1-1q5.5 1.75 10.75-1.7l5.05 0.15 3.45-2 2.5-1.4 3.3-1.3q3.15-1.25 5.85-2.85m-57.2 34.2q1.55-4.3 4.65-8.65 2.7-5.35 7.3-9.05 2 0.9 4.4 1.1l-1 0.95q-5.65 5.4-3.45 12.45l-0.7 1-1.15 8.55-3.4 3.1-2.85 5.3q1.1-6.4-1.8-11.9-0.9-1.65-2-2.85m34.5-17.95-15 13.15-5.15 6.6 3.3-12.9-4.2 5.8q0.6-3.8 3-6.35 1.55-1.75 4.05-1.85l0.5-0.55 3.45-0.8q5.2-1.3 10.05-3.1" fill="#0c9" fill-rule="evenodd"/>
<path d="m314.5 198.4 12.45-7.2q-4.5 3-8.7 6.5l-0.45 5.5q-0.85 5.45-2.75 10.5l-3.8 1.75q-14.25 5.75-25.8 15.7v-0.25q-0.1-3.5 1.6-6.55l0.5-0.9 0.1-0.4 5.15-6.6 15-13.15 2.3-2.05 4.4-2.85" fill="#360" fill-rule="evenodd"/>
<path d="m314.7 214.6q-2 4.9-4.95 9.5h-0.1l-1.15 1.2q-1.4 1.25-3 1.9 3.55-7.1 9.2-12.6" fill="#363" fill-rule="evenodd"/>
<path d="m291.9 199.2q1.7 5.8 22.6-0.8l-4.4 2.85-2.3 2.05q-4.85 1.8-10.05 3.1l-3.45 0.8-0.5 0.55q-2.5 0.1-4.05 1.85-2.4 2.55-3 6.35l-1.55 2.1q-2.2-7.05 3.45-12.45l1-0.95q-2.4-0.2-4.4-1.1l0.7-0.55q2.85-2.15 5.95-3.8m-19.6 39.3q-0.95-3.9-0.7-8.15-0.05-4.5 1.7-9.1 1.1 1.2 2 2.85 2.9 5.5 1.8 11.9l-0.9 1.75-1.05-4.4-2.85 5.15m22.45-3.7q-1.75 3.9-3.25 6.05-1.55 2.15-3.55 2.7-2 0.5-3.95-0.7-1.95-1.25-2.6-3.55-0.6-2.25 0.6-4.25 1.15-2.05 5.5-4.1 4.3-2.1 6.65-1.1 2.3 1 0.6 4.95" fill="#fc0" fill-rule="evenodd"/>
<path d="m326.95 191.2q2.8-1.85 5.75-3.55 2.85-1.7 5.85-3.1l-2.35 0.55-5.7 1.95q-4.7 1.75-9.15 4.15l-2.5 1.4-3.45 2-5.05-0.15q-5.5 0.15-10.75 1.7l-3.1 1q-2.4 0.9-4.6 2.05m22.6-0.8 12.45-7.2q-4.5 3-8.7 6.5l-0.45 5.5q-0.85 5.45-2.75 10.5l-0.35 0.9q-2 4.9-4.95 9.5l-0.2 0.25-1.35 1.95q-7.15 9.95-17.35 16.7-6.2 4-12.9 2.55-3.4-0.7-4.6-3.8l-1.05-3.25q-0.95-3.9-0.7-8.15-0.05-4.5 1.7-9.1 1.55-4.3 4.65-8.65 2.7-5.35 7.3-9.05l0.7-0.55q2.85-2.15 5.95-3.8m22.6-0.8-4.4 2.85-2.3 2.05-15 13.15" fill="none" stroke="#5a451b" stroke-linecap="round" stroke-linejoin="round" stroke-opacity=".6" stroke-width=".5"/>
<path d="m294.75 234.8q-1.75 3.9-3.25 6.05-1.55 2.15-3.55 2.7-2 0.5-3.95-0.7-1.95-1.25-2.6-3.55-0.6-2.25 0.6-4.25 1.15-2.05 5.5-4.1 4.3-2.1 6.65-1.1 2.3 1 0.6 4.95" fill="none" stroke="#5a451b" stroke-linecap="round" stroke-linejoin="round" stroke-width=".5"/>
</g>
</defs>
</svg>
