<?xml version="1.0" encoding="UTF-8"?>
<svg version="1.1" viewBox="0 0 61.05 53.1" xmlns="http://www.w3.org/2000/svg" xmlns:cc="http://creativecommons.org/ns#" xmlns:dc="http://purl.org/dc/elements/1.1/" xmlns:rdf="http://www.w3.org/1999/02/22-rdf-syntax-ns#" xmlns:xlink="http://www.w3.org/1999/xlink">
<metadata>
<rdf:RDF>
<cc:Work rdf:about="">
<dc:format>image/svg+xml</dc:format>
<dc:type rdf:resource="http://purl.org/dc/dcmitype/StillImage"/>
</cc:Work>
</rdf:RDF>
</metadata>
<g transform="translate(-270.15,-215.8)">
<use transform="translate(270.15,215.8)" width="61.049999" height="53.099998" xlink:href="#a"/>
</g>
<defs>
<g id="a" transform="translate(6.35,8.3)">
<use transform="translate(-6.35,-8.3)" width="61.049999" height="53.099998" xlink:href="#b"/>
</g>
<g id="b" transform="translate(6.35,8.3)">
<path d="m43.35 6.1 6.75 7.35-1.25 0.5-5-5.95-3.6 4.35-0.05 0.05 0.05 0.1 4.55 6.2-0.15 2.7-0.8 0.65-1.05 2.75-7.5 2.2-5.9-4.1-0.5-1.55-4 1.8 5.55 4-5.15 5-5.75-3.45-0.85 6.45-5-0.75-2.55 3.75-7.65-2.25 0.2-2-3.35-2.95 1.5-3.95 1.3 2.4 2.35-6.2 4.25 1.9q-3.15-0.1-4.2 2.65-3.35 8.5 5.35 8.5l0.35-0.3q5.2-6.1 0.05-10.55h5.2v5.7l1.75 0.05 0.55-4.95 4.65 3.75 2.05-2.85-5-4 8.4-3.85-1.3-2.2 5.55-5.35 0.9-0.6 0.65-0.4 3.95 1 4.65-5.6h0.05m-36.25 7.3 5.45-5.65 2.95 2.55 0.25 1.55-0.6-0.15-5.65 3.5-2.4-1.8m9.7-1.2 0.3-0.75 0.2 0.1q3.95 2.25 8.65 1.5l2.75 0.15-6.25 0.7-5.65-1.7m5.05-8.7-1.55 0.5 3.3-2.4 0.3 0.05 1.85 0.2 3.15 0.35-0.7 3.6-0.3 0.6-0.3-0.6q0-1.15-0.6-1.95-0.65-0.8-1.5-0.8l-1.6-0.25-2.05 0.7m19.65 19.7q0.35-1.05 0.1-1.85-1.3-4.1-3.2-7.95l-2.45-0.9-1.7 0.9-4.15 4 1.35 4.35 4.45 3.1 5.6-1.65m-2.05-20.3-0.3 0.3-4.75 4.15-1.8 1.3-2.8 1.75-9.35-1.7-0.3-1.05-0.65-2.05 7.65 2.55 2.5-2.3 2.75-3.3-2.5-2.55h3.4q2.9 1.55 6.15 2.9" fill="#d0e99e" fill-rule="evenodd"/>
<path d="m41.5 4.1 1.05 1.15 0.75 0.85-4.65 5.6-3.95-1-0.3 0.15 7.1-6.75m-39.65 22.9 3.2-8.25 2.1 0.9-0.25 0.75q2.3 2.7 6 3.1h2.4l0.45-2.25 2.05-0.5 4.1-0.55-1.25-0.3 6.95-2.85 1.3 2.2-8.4 3.85 5 4-2.05 2.85-4.65-3.75-0.55 4.95-1.75-0.05v-5.7h-5.2l-1.55-0.3-4.25-1.9-2.35 6.2-1.3-2.4" fill="#dfffbf" fill-rule="evenodd"/>
<path d="m50.1 13.45 1.45 1.6 0.05 1.25v0.1l-1 1.2-0.4 0.6-0.3 0.5q0.65 1.65 0.5 3.4l-0.1 2.9-2 2.1q-1.2 1-3 1.8l-2.7 4.8-2.5 0.6-1.25-0.75-0.35-0.4-0.6-0.55q0.45 2.35-0.45 4.65-0.7 1.75-2.2 2.9-4.9 3.55-8.75-0.45-3.05 2.75-7.7 1.9l-6.9 0.3q-3.5-0.55-6.7-2l-0.15 0.2-2.3-1.55-2.75-2.65v-1.1l2.35 0.95 1 2.2 10.25 2.85 1.3-1.9 10.2 0.3 0.2-7.05 5.15-5 6.95 3.85-0.8-1.3 2.8-0.5 2.2 1 5.2-6.5-2.15-2.3 0.15-2.7-4.55-6.2v-0.15l3.6-4.35 5 5.95 1.25-0.5m-8-0.95 3 4.5 2-1.8-2.7-4.6-2.3 1.9m-7.15 17.6q-1.45-1.45-3.5-1.45t-3.5 1.45q-1.45 1.4-1.45 3.45t1.45 3.5q1.45 1.4 3.5 1.4t3.5-1.4q1.45-1.45 1.45-3.5t-1.45-3.45" fill="#8dbc2c" fill-rule="evenodd"/>
<path d="m15.75 11.85 1.05 0.35 5.65 1.7-0.95 0.1 4.9 1.35q0.4 0.05 0.65 0.35l-1.35 1q-7.05-1.8-9.35-3.4l-0.4-0.3-0.65-0.85-0.15-0.45 0.6 0.15m1.35-0.4-1.4-1 1.65 0.4q2 0.65 3.55 1.95 0.25-0.2-2.9-2.45l-0.35-0.25q-0.9-0.8 0.35-0.85l2.3 0.15 0.35 0.05-0.2-0.75 9.35 1.7 2.8-1.75-6.65 4.4q-4.7 0.75-8.65-1.5l-0.2-0.1m1.7-4.2 0.7-1.65 2.35-2.1 2.05-0.7 1.6 0.25-0.6 2.55 2.7 0.2 0.3 0.6 0.3-0.6 1.45 0.05-2.5 2.3-7.65-2.55 0.65 2.05-1.35-0.4m5.1-5.6 1.8-1.65h4.2l-4.15 1.85-1.85-0.2m18.2 10.85 2.3-1.9 2.7 4.6-2 1.8-3-4.5m-0.6 10.7-5.6 1.65-4.45-3.1-1.35-4.35 4.15-4 1.7-0.9 2.45 0.9q1.9 3.85 3.2 7.95 0.25 0.8-0.1 1.85m-2.35-20q0 1.7-1.4 2.95-1.4 1.2-3.35 1.2l4.75-4.15m-29.25 13.45q5.15 1.8 10.75 3.25l1.25 0.3-4.1 0.55-2.05 0.5-0.45 2.25h-2.4q-3.7-0.4-6-3.1l0.25-0.75 1.05-3.85 1.7 0.85m1.4 8.75q5.15 4.45-0.05 10.55l-0.35 0.3q-8.7 0-5.35-8.5 1.05-2.75 4.2-2.65l1.55 0.3" fill="#efd" fill-rule="evenodd"/>
<path d="m0 34.8 0.35-3.85 3.35 2.95-0.2 2 7.65 2.25 2.55-3.75 5 0.75 0.85-6.45 5.75 3.45-0.2 7.05-10.2-0.3-1.3 1.9-10.25-2.85-1-2.2-2.35-0.95m30.45-7.65-5.55-4 4-1.8 0.5 1.55 5.9 4.1 7.5-2.2 1.05-2.75 0.8-0.65 2.15 2.3-5.2 6.5-2.2-1-2.8 0.5 0.8 1.3-6.95-3.85m9.8-14.65-0.05-0.1 0.05-0.05v0.15m-5.3 17.6q1.45 1.4 1.45 3.45t-1.45 3.5q-1.45 1.4-3.5 1.4t-3.5-1.4q-1.45-1.45-1.45-3.5t1.45-3.45q1.45-1.45 3.5-1.45t3.5 1.45" fill="#b0d95b" fill-rule="evenodd"/>
<path d="m39.45 2.9 1.45 0.55 0.6 0.65-7.1 6.75-0.35 0.25-0.9 0.6h-0.75l-6 3.65-4.9-1.35 0.95-0.1 6.25-0.7-2.75-0.15 6.65-4.4 1.8-1.3q1.95 0 3.35-1.2 1.4-1.25 1.4-2.95l0.3-0.3m-34.4 15.85 2.05-5.35 2.4 1.8 5.65-3.5 0.15 0.45-5.4 4.5-1.7-0.85-1.05 3.85-2.1-0.9m7.5-11 1.7-1.45 0.55-0.1 0.7 4.1-2.95-2.55m4.8 3.1 0.3-0.75 0.35 0.25q3.15 2.25 2.9 2.45-1.55-1.3-3.55-1.95m0.65-1.6 0.8-2 1.35 0.4 0.3 1.05 0.2 0.75-0.35-0.05-2.3-0.15m11.9-9.25 2.5 2.55-2.75 3.3-1.45-0.05 0.7-3.6-3.15-0.35 4.15-1.85m-4.4 3.05q0.85 0 1.5 0.8 0.6 0.8 0.6 1.95l-2.7-0.2 0.6-2.55m-6.55 12.8-0.65-0.15 1.05 0.15h-0.4" fill="#ecffd9" fill-rule="evenodd"/>
<path d="m26.4 15.35 6-3.65h0.75l-5.55 5.35-6.95 2.85q-5.6-1.45-10.75-3.25l5.4-4.5 0.65 0.85 0.4 0.3q2.3 1.6 9.35 3.4l1.35-1q-0.25-0.3-0.65-0.35m-7.05 0.5-1.05-0.15 0.65 0.15 2.8 0.35-2.4-0.35" fill="#e0ffc1" fill-rule="evenodd"/>
<path d="m19.35 15.85 2.4 0.35-2.8-0.35h0.4" fill="#fff" fill-rule="evenodd"/>
<path d="m51.55 15.05 2.65 2.85-0.65 1.25q-1.75 3.4-3 7l-0.3 1.2-3.55 1.35-0.1 0.1 2.95 2.5q-5.9 5.85-12.95 9.4-2.6 1.3-5.35 2.15l-2.2-0.6-2.35-0.25q-0.55 0.55-1.45 0.85l-3.85 1.45h-1.85q-5.3-0.3-10.45-2.25-2.15-0.8-4.05-1.95l0.15-0.2q3.2 1.45 6.7 2l6.9-0.3q4.65 0.85 7.7-1.9 3.85 4 8.75 0.45 1.5-1.15 2.2-2.9 0.9-2.3 0.45-4.65l0.6 0.55 0.35 0.4 1.25 0.75 2.5-0.6 2.7-4.8q1.8-0.8 3-1.8l2-2.1 0.1-2.9q0.15-1.75-0.5-3.4l0.3-0.5 0.4-0.6 1-1.2v-0.1l-0.05-1.25m-34.25 28.05 2.25 1.2-2.25-1.2" fill="#6c9122" fill-rule="evenodd"/>
<path d="m39.45 2.9 1.45 0.55 0.6 0.65 1.05 1.15 0.8 0.85 6.75 7.35 1.45 1.6 2.65 2.85-0.65 1.25q-1.75 3.4-3 7l-0.3 1.2-3.55 1.35-0.1 0.1 2.95 2.5q-5.9 5.85-12.95 9.4-2.6 1.3-5.35 2.15l-2.2-0.6-2.35-0.25q-0.55 0.55-1.45 0.85l-3.85 1.45h-1.85q-5.3-0.3-10.45-2.25-2.15-0.8-4.05-1.95l-2.3-1.55-2.75-2.65v-1.1l0.35-3.85 1.5-3.95 3.2-8.25 2.05-5.35 5.45-5.65 1.7-1.45m11.45-6.3h-0.95m18.55 6.1-0.75-0.85m-12.65-5.25h3.4q2.9 1.55 6.15 2.9m-13.75-2.9h4.2m-10.35 44.3-2.25-1.2" fill="none" stroke="#360" stroke-linecap="round" stroke-linejoin="round" stroke-opacity=".30196"/>
<path d="m8.4-3.4 5.7 2.9v-7.8l3.8 9.9 2.5-5.2v4.4l9.45-4.55-5.95 5.4-0.3-0.05-3.3 2.4 1.55-0.5-2.35 2.1-1.5 3.65q-1.25 0.05-0.35 0.85l-0.3 0.75-1.65-0.4 1.4 1-0.3 0.75-1.05-0.35-0.95-5.65-10.15 1.45 10.05-3.85-8.5-1 8.35-1.25-6.15-4.95" fill="#fff" fill-rule="evenodd"/>
<path d="m26.45 12.5 5.7 2.9v-7.8l3.8 9.9 2.5-5.2v4.4l9.45-4.55-5.95 5.4-0.3-0.05-3.3 2.4 1.55-0.5-2.35 2.1-1.5 3.65q-1.25 0.05-0.35 0.85l-0.3 0.75-1.65-0.4 1.4 1-0.3 0.75-1.05-0.35-0.95-5.65-10.15 1.45 10.05-3.85-8.5-1 8.35-1.25-6.15-4.95" fill="#fff" fill-rule="evenodd"/>
<path d="m-3.25 21.5 3.55 3.45-6.65 1.8 9.15 0.5-3.95 3 3.8-1.05-2.05 7.85 3.4-5.55-0.1-0.15 1.5-2.95q-0.15 0.6-0.15 1.25l1.3-2.2 2.9-1.95q-0.2-0.9 0.6-0.4l0.6-0.4-0.65-1.1 1.15 0.75 0.55-0.35-0.5-0.75-5.05 0.65-0.7-7.65-1.35 8.15-2.5-5.9 0.55 6.3-5.4-3.3" fill="#fff" fill-rule="evenodd"/>
</g>
</defs>
</svg>
