<?xml version="1.0" encoding="UTF-8"?>
<svg version="1.1" viewBox="0 0 54.504 53.251" xmlns="http://www.w3.org/2000/svg" xmlns:cc="http://creativecommons.org/ns#" xmlns:dc="http://purl.org/dc/elements/1.1/" xmlns:rdf="http://www.w3.org/1999/02/22-rdf-syntax-ns#" xmlns:xlink="http://www.w3.org/1999/xlink">
<metadata>
<rdf:RDF>
<cc:Work rdf:about="">
<dc:format>image/svg+xml</dc:format>
<dc:type rdf:resource="http://purl.org/dc/dcmitype/StillImage"/>
</cc:Work>
</rdf:RDF>
</metadata>
<g transform="translate(-373.02 -273.98)">
<use transform="translate(373,273.65)" width="54.5" height="53.599998" xlink:href="#a"/>
<use transform="translate(392.05,293.7)" width="21.200001" height="27.75" xlink:href="#b"/>
</g>
<defs>
<g id="a" transform="translate(28.95,29.6)">
<use transform="translate(-28.95,-29.6)" width="54.5" height="53.599998" xlink:href="#c"/>
</g>
<g id="c" transform="translate(28.95,29.6)">
<path d="m12.1-14.05 0.75 1.5-0.15 0.15-0.3 0.1-1.2 0.35-0.3-0.5 0.05-0.1q1-0.7 1.15-1.5m1.35 2.2q2.05 1.1 2.7 3.2l-1.35 0.55-0.9 0.3-0.6-0.1-1.2-2.45v-0.05l0.1-0.2 1.25-1.25m3.1 3.6v0.05l0.5 0.65h0.05q1.35-0.65 3.35-0.9 2.05-0.15 1.35 1.45l-3.3 2.35-0.15 0.25q-0.35 0.55 0.05 1.7l1.2 2.75h-0.05l-0.95-0.55-0.8-0.3-1 0.7-1.9-4.4 0.6-0.8q-0.55-0.3-0.7-0.7-0.2-0.55 0.7-1.35l1.05-0.9m4.85 3.75q2.35 1.15 4.1 3.45v0.05l-0.75-0.35-0.7-0.3-2.55-1.3q-0.25-0.8-0.1-1.55m-10.4-11.85 0.2 0.45 0.1 0.25-0.3 0.2-0.3 0.05-0.35-0.1-0.15-0.05-0.3-0.2v-0.05q-0.15-0.45 0.35-0.6l0.75 0.05m-5.15 3.05v-0.1q0-0.45 0.6-0.7l1.3-0.5h0.15l0.05-0.05h0.45l0.65 0.5q0.25 0.65-0.8 1.15l-0.65 0.25-0.95 0.1q-0.65-0.05-0.8-0.45v-0.2m-5.7 0.3 1.65 0.05q0.95 0.15 1.3 0.45l0.15 0.2 0.1 0.25q0 0.45-0.6 0.65l-0.8 0.15-0.75-0.05q-1.2 0-1.35-0.5l0.05-0.35v-0.2l-0.05-0.3 0.3-0.35m16.95 5.45-1.6 2.25 1.6-2.25m-26-7.05v-0.1l-0.05-0.25v-0.05l0.4-0.4q1.2 0.35 1.35 0.8v0.4l-0.2 0.15h-0.6q-0.65-0.15-0.9-0.55m2.95 1.8-0.2-0.05-0.05-0.05 0.55-0.65 0.65-0.05 0.65 0.05 1.05 0.35 0.3 0.45q0.15 0.45-0.3 0.6l-1.3-0.15-1.25-0.5h-0.1" fill="#e0b359" fill-rule="evenodd"/>
<path d="m9.7-17h0.65l0.85 0.55 0.7 1.2q0.3 0.6 0.2 1.2-0.15 0.8-1.15 1.5l-0.05 0.1-0.3 0.45-1.15 0.75q-1.45 0.8-3.4 1.2l-1.35 0.3q0.5-1.85-0.25-2.9l-0.1-0.1-0.9-0.65 0.9 0.65 0.1 0.1q0.75 1.05 0.25 2.9l-5.95 0.2q-5.25 0.35-5.95-0.7l-0.9-0.95q0.15-1.45 1.05-2.4l0.4-0.45 1-0.65 0.25-0.1-0.25 0.1-1 0.65-0.4 0.45q-0.9 0.95-1.05 2.4l-0.7-0.45q-1.25-1.05-0.85-2.6l0.2-0.55 1-1.65 1.6 0.95 1.45 0.7q1.8-0.45 4.1 1.3l4.75 0.1 1.9-1.15 2.2-0.55 0.55-0.05 0.3-0.05 0.5 0.05 0.65 0.15q1.5 0.4 1.4 2.45 0.1-2.05-1.4-2.45l-0.65-0.15-0.5-0.05-0.3 0.05-0.55 0.05 0.7-0.5 1.35-1.4h0.1m3.15 4.45 0.6 0.7-1.25 1.25-0.1 0.2-0.25-0.45-0.65-1.1 1.2-0.35 0.3-0.1 0.15-0.15m3.3 3.9 0.4 0.4-1.05 0.9q-0.9 0.8-0.7 1.35 0.15 0.4 0.7 0.7l-0.6 0.8-1-2.1-0.45-0.95-0.15-0.35 0.6 0.1 0.9-0.3 1.35-0.55m5.65 1.65-0.4 2.5q-0.15 0.75 0.1 1.55l2.55 1.3 0.7 0.3 0.75 0.35v-0.05l0.05 0.05h-0.05q-2.45 1.45-4.85 1.25l0.3 4q-1.9-0.95-3.15-2.75l-0.3 0.15-0.45-1.1-0.25-0.65 1-0.7 0.8 0.3 0.95 0.55h0.05l-1.2-2.75q-0.4-1.15-0.05-1.7l0.15-0.25 3.3-2.35m-10.8-9.35-0.75-0.05q-0.5 0.15-0.35 0.6v0.05l0.3 0.2 0.15 0.05 0.35 0.1 0.3-0.05 0.3-0.2-0.1-0.25-0.2-0.45m-10.85 3.35-0.3 0.35 0.05 0.3v0.2l-0.05 0.35q0.15 0.5 1.35 0.5l0.75 0.05 0.8-0.15q0.6-0.2 0.6-0.65l-0.1-0.25-0.15-0.2q-0.35-0.3-1.3-0.45l-1.65-0.05m5.7-0.3v0.2q0.15 0.4 0.8 0.45l0.95-0.1 0.65-0.25q1.05-0.5 0.8-1.15l-0.65-0.5h-0.45l-0.05 0.05h-0.15l-1.3 0.5q-0.6 0.25-0.6 0.7v0.1m10.4 4.75-2.35 1.95 2.35-1.95m-4.4-2.3 0.85-1.55-0.85 1.55m-20.75-3.75q0.25 0.4 0.9 0.55h0.6l0.2-0.15v-0.4q-0.15-0.45-1.35-0.8l-0.4 0.4v0.05l0.05 0.25v0.1m2.95 1.8h0.1l1.25 0.5 1.3 0.15q0.45-0.15 0.3-0.6l-0.3-0.45-1.05-0.35-0.65-0.05-0.65 0.05-0.55 0.65 0.05 0.05 0.2 0.05m4.65-0.7-0.3 0.5-0.1 0.25q-0.6 1.6 0.45 3.2-1.05-1.6-0.45-3.2l0.1-0.25 0.3-0.5" fill="#9c7c3e" fill-rule="evenodd"/>
<path d="m12.65-25.1q0.2 0.7-0.25 1.4l-1.2 3.2-0.3 0.65-1.2 2.85h-0.1l-1.35 1.4 0.9-2.35q1.15-3.2 1.4-4.8v-0.05l2.1-2.3m-2.2 2.35 0.1-0.05v0.05h-0.1m-9 0.25 0.45-0.25-0.25 0.4-0.2-0.15m8 11.25 1.15-0.75 0.3-0.45 0.3 0.5 0.65 1.1 0.25 0.45v0.05h-0.05l-0.35 0.05h-0.2l-1.15 0.05-0.25 0.1-0.65-1.1" fill="#634521" fill-rule="evenodd"/>
<path d="m19.1 11.7-0.35 2.35 0.4 0.25-0.75 0.05-1.1 0.2q-0.85 0.2-0.85 0.65 0.1 0.55 1.05 0.75l1.6 0.2 0.95-0.3 0.1 0.35q0.3 3.15-3.8 1.35-11.35 1.8-16.2 1.8-4.7-0.05-10.25-2.95-6.05-3.1-7.3-6.75l-0.95-2.15 0.05 0.05q0.55 0.45-0.2-0.35 2.15 2.2 5.25 4.35 5.75 4.25 11.35 4.35 5.55-0.05 7.1-1.3t3.1-1.9q1.6-0.7 3.65-0.5l2.85-0.05q0.7-0.45 2.3-1.1l0.2 0.1q0.3 0 0.85 0.3l0.95 0.25m-31.25-21.5 3.35-1.85 0.7 0.45 0.9 0.95q0.7 1.05 5.95 0.7l5.95-0.2 1.35-0.3q1.95-0.4 3.4-1.2l0.65 1.1-0.55 0.2-0.2 0.2-0.45 0.85-2.35 1.5q-2 1.2-5.2 1.5-3.25 0.3-9.05-1.95-1.8-0.65-4.45-1.95m5.3-5.7-1.8-1.85-1.25-1.35q-2.05-2.15-2.75-3.4 6.5 3.1 8.75 3.6 3.95 0.9 9.65-1.1 2.4-0.85 4.7-3.15h0.1q-0.25 1.6-1.4 4.8l-0.9 2.35-0.7 0.5-2.2 0.55-1.9 1.15-4.75-0.1q-2.3-1.75-4.1-1.3l-1.45-0.7m12.55-7.05-1.3 0.75q-1.8 0.85-3.6 0.65l-1.05-0.05-5.35-0.95q-3.05-0.65-3.75-2-0.65-1.35 0.75-2.15l0.7-0.3-0.35 0.65 0.05 0.9q0.55 1.65 4.55 2.45l4.15 0.45 0.95-0.35 0.2 0.15-0.85 1.2 0.85-1.2 0.25-0.4 0.55-0.5q0.3 0.85 1.85 0.85l1.4-0.15m11.6 37.1q0.2-1.6 0-3.4 0.2 1.8 0 3.4" fill="#705739" fill-rule="evenodd"/>
<path d="m1.9-22.75 0.4-0.6 0.15 0.1-0.55 0.5m15.2 33.8h0.2v0.1l-0.2-0.1" fill="#8c622f" fill-rule="evenodd"/>
<path d="m-12.65-22.1q-0.6-0.9-0.6-1.3 0-1.15 2.1-3l3.85-2.75 4.7-0.1 5.25 1.5 1.35 0.25 2.9-0.3 3-0.3q1.25 0.3 2.25 1.65l0.5 1.35-2.1 2.3-0.1 0.05q-2.3 2.3-4.7 3.15-5.7 2-9.65 1.1-2.25-0.5-8.75-3.6m30.15 23.75q1.05 2.75 1.55 6.4 0.2 1.55 0.05 3.65l-0.95-0.25q-0.55-0.3-0.85-0.3v-0.1q-0.4-4.05-2.05-8.95l-0.3-0.95-1.15-3.05-1.7-3.95-0.6-1.3-0.8-1.7-0.05-0.1-0.55-1.2 0.25-0.1 1.15-0.05h0.2l0.35-0.05h0.05l1.2 2.45 0.15 0.35 0.45 0.95 1 2.1 1.9 4.4 0.25 0.65 0.45 1.1m1.65 12.65 0.35 0.35q0.45 0.45 0.55 1.2l-0.95 0.3-1.6-0.2q-0.95-0.2-1.05-0.75 0-0.45 0.85-0.65l1.1-0.2 0.75-0.05m-37.5-6.8q-0.5-0.6-0.75-3.2-0.25-2.8 2.35-7.85 2.55-5.1 4.6-6.25 2.65 1.3 4.45 1.95 5.8 2.25 9.05 1.95 3.2-0.3 5.2-1.5l2.35-1.5 0.45-0.85 0.2-0.2 0.55-0.2 0.55 1.2 0.05 0.1 0.8 1.7 0.6 1.3 1.7 3.95 1.15 3.05 0.3 0.95q1.65 4.9 2.05 8.95h-0.2q-1.6 0.65-2.3 1.1l-2.85 0.05q-2.05-0.2-3.65 0.5-1.55 0.65-3.1 1.9t-7.1 1.3q-5.6-0.1-11.35-4.35-3.1-2.15-5.25-4.35l0.15 0.3-0.15-0.3q0.75 0.8 0.2 0.35l-0.05-0.05m24.05-30.05 1.65-1.45 2.2-0.5 0.6 0.3q0.45 0.25 0.4 1.4 0.05-1.15-0.4-1.4l-0.6-0.3-2.2 0.5-1.65 1.45-1.4 0.15q-1.55 0-1.85-0.85l-0.15-0.1-0.4 0.6-0.45 0.25-0.95 0.35-4.15-0.45q-4-0.8-4.55-2.45l-0.05-0.9 0.35-0.65-0.7 0.3q-1.4 0.8-0.75 2.15 0.7 1.35 3.75 2l5.35 0.95 1.05 0.05q1.8 0.2 3.6-0.65l1.3-0.75m-2.6-1.95-0.8 1.15 0.8-1.15m2.45-1.8q5.5-0.7 1.8 2.3 3.7-3-1.8-2.3m13.95 40.95-2.1 0.4h-0.05l-0.05-0.5 0.05 0.5h0.05l2.1-0.4" fill="#8c6d47" fill-rule="evenodd"/>
<path d="m-12.65-22.1q-0.6-0.9-0.6-1.3 0-1.15 2.1-3l3.85-2.75 4.7-0.1 5.25 1.5 1.35 0.25 2.9-0.3 3-0.3q1.25 0.3 2.25 1.65l0.5 1.35q0.2 0.7-0.25 1.4l-1.2 3.2-0.3 0.65-1.2 2.85h0.65l0.85 0.55 0.7 1.2q0.3 0.6 0.2 1.2l0.75 1.5 0.6 0.7q2.05 1.1 2.7 3.2l0.4 0.4m0 0.05 0.5 0.65h0.05q1.35-0.65 3.35-0.9 2.05-0.15 1.35 1.45l-0.4 2.5q2.35 1.15 4.1 3.45l0.05 0.05h-0.05q-2.45 1.45-4.85 1.25l0.3 4q-1.9-0.95-3.15-2.75l-0.3 0.15q1.05 2.75 1.55 6.4 0.2 1.55 0.05 3.65l-0.35 2.35 0.4 0.25 0.35 0.35q0.45 0.45 0.55 1.2l0.1 0.35q0.3 3.15-3.8 1.35-11.35 1.8-16.2 1.8-4.7-0.05-10.25-2.95-6.05-3.1-7.3-6.75l-0.95-2.15q-0.5-0.6-0.75-3.2-0.25-2.8 2.35-7.85 2.55-5.1 4.6-6.25l3.35-1.85q-1.25-1.05-0.85-2.6l0.2-0.55 1-1.65 1.6 0.95-1.8-1.85-1.25-1.35q-2.05-2.15-2.75-3.4m23.2-0.7q0.05-1.15-0.4-1.4l-0.6-0.3-2.2 0.5-1.65 1.45-1.3 0.75q-1.8 0.85-3.6 0.65l-1.05-0.05-5.35-0.95q-3.05-0.65-3.75-2-0.65-1.35 0.75-2.15l0.7-0.3m9.8 3.85 0.4-0.6 0.8-1.15m7.45 1.75v-0.05m0 0.05q-0.25 1.6-1.4 4.8l-0.9 2.35 1.35-1.4h0.1m1.25 4.45q1-0.7 1.15-1.5m-1.2 1.6 0.05-0.1q0.1-2.05-1.4-2.45l-0.65-0.15-0.5-0.05-0.3 0.05-0.55 0.05-2.2 0.55-1.9 1.15 0.9 0.65 0.1 0.1q0.75 1.05 0.25 2.9l1.35-0.3q1.95-0.4 3.4-1.2l1.15-0.75 0.3-0.45 0.3 0.5m1.5-0.45 0.15-0.15m-11.2-9.8 0.25-0.4m-1.1 1.6 0.85-1.2m6.6 6.75-0.7 0.5m2.55 4.95-0.65-1.1m2.65 0.9v-0.05l-0.25-0.45-0.65-1.1m4.3 6.65 1.6-2.25m0.2 18.6q-0.4-4.05-2.05-8.95l-0.3-0.95-1.15-3.05-1.7-3.95-0.6-1.3-0.8-1.7-0.05-0.1-0.55-1.2m3.2 2.25 0.15 0.35 0.45 0.95 2.35-1.95m-2.95 0.65-1.2-2.45m4.7 10.25 0.25 0.65 0.45 1.1m-2.6-6.15 0.6-0.8m1.3 5.2-1.9-4.4-1-2.1m-1.2-5.8-0.85 1.55m-4.5-13.15q3.7-3-1.8-2.3m-13.65 15.1q0.15-1.45 1.05-2.4l0.4-0.45 1-0.65 0.25-0.1-1.45-0.7m5.6 5.95q-1.05-1.6-0.45-3.2l0.1-0.25 0.3-0.5q-2.3-1.75-4.1-1.3m-2.7 3.6 0.9 0.95q0.7 1.05 5.95 0.7l5.95-0.2m-13.5-1.9 0.7 0.45m-10.4 18.4 0.15 0.3 0.05 0.05q0.55 0.45-0.2-0.35m35.8 3.85v0.1q0.2 1.8 0 3.4l0.05 0.5h0.05l2.1-0.4m-16.05-28.05-4.75-0.1" fill="none" stroke="#362a1b" stroke-linecap="round" stroke-linejoin="round" stroke-opacity=".50196" stroke-width=".05"/>
<path d="m15.1 11.75 3.45-1.3 0.1 1.75-3.5 0.3-0.05-0.75" fill="#704e26" fill-rule="evenodd"/>
<path d="m15.1 11.75 0.05 0.75 3.5-0.3-0.1-1.75z" fill="none" stroke="#000" stroke-linecap="round" stroke-linejoin="round" stroke-opacity=".50196" stroke-width=".05"/>
<path d="m18.55 8.15-3.45 1.3-0.1-1.75 3.5-0.3 0.05 0.75" fill="#704e26" fill-rule="evenodd"/>
<path d="m18.55 8.15-0.05-0.75-3.5 0.3 0.1 1.75z" fill="none" stroke="#000" stroke-linecap="round" stroke-linejoin="round" stroke-opacity=".50196" stroke-width=".05"/>
<path d="m12.9-7.8-2.25 1.9-0.6-1.65 2.6-0.95 0.25 0.7" fill="#704e26" fill-rule="evenodd"/>
<path d="m12.9-7.8-0.25-0.7-2.6 0.95 0.6 1.65z" fill="none" stroke="#000" stroke-linecap="round" stroke-linejoin="round" stroke-opacity=".50196" stroke-width=".05"/>
<path d="m9.85-17.05-2.2 0.95-0.1-1.35 2.3-0.2v0.6" fill="#704e26" fill-rule="evenodd"/>
<path d="m9.85-17.05v-0.6l-2.3 0.2 0.1 1.35z" fill="none" stroke="#000" stroke-linecap="round" stroke-linejoin="round" stroke-opacity=".50196" stroke-width=".05"/>
<path d="m11.05-24.05-2.25 1.9-0.6-1.65 2.6-0.95 0.25 0.7" fill="#704e26" fill-rule="evenodd"/>
<path d="m11.05-24.05-0.25-0.7-2.6 0.95 0.6 1.65z" fill="none" stroke="#000" stroke-linecap="round" stroke-linejoin="round" stroke-opacity=".50196" stroke-width=".05"/>
<path d="m-27.75 18.7q-0.15 0.2 0.1 0.9 0.25 0.65 1.9 0.9l3.2 0.45 3.15 0.05 4.85-0.8q3.25-0.7 4.65-2.75l1.35 1.4q1.05 3.65-10.35 4.15-10-0.4-9.65-3.55l0.8-0.75" fill="#deb185" fill-rule="evenodd"/>
<path d="m-9.9 17.45q-1.4 2.05-4.65 2.75l-4.85 0.8-3.15-0.05-3.2-0.45q-1.65-0.25-1.9-0.9-0.25-0.7-0.1-0.9 4.75-3.75 7.3-7.1 2.2-2.4 3.7-1.35l6.85 7.2" fill="#fc9" fill-rule="evenodd"/>
<path d="m-8.95 17.5q0.45 0.55-0.1 0.95l-0.2 0.15q-0.65 0.4-1.05-0.2-0.45-0.65 0.25-1.1l0.85-0.05 0.25 0.25m-3.45-2.65q-0.75 0.4-1-0.25-0.3-0.7 0.2-1.05 0.45-0.4 1 0.25 0.55 0.6-0.2 1.05m1.7 0.45q0.3 0.65-0.4 1.05-0.65 0.4-0.9-0.25-0.2-0.65 0.4-1.05 0.55-0.4 0.9 0.25m-4.1-1.85q-0.25-0.65 0.4-1.05 0.7-0.35 1 0.25 0.35 0.55-0.45 1-0.75 0.45-0.95-0.2m4.5 7.85 0.75 0.1q0.25 0.45-0.2 0.75l-0.7-0.1q-0.3-0.45 0.15-0.75m-2.95 1.3q-0.25-0.7 0.45-1.05 0.7-0.4 1.05 0.2t-0.45 1.1q-0.8 0.45-1.05-0.25m-1.05-0.25q0.45 0.55-0.15 0.9t-0.8-0.25q-0.25-0.55 0.15-0.85 0.35-0.3 0.8 0.2m5.25-1.95q-0.15-0.45 0.25-0.7 0.4-0.3 0.65 0.15 0.2 0.45-0.25 0.7-0.5 0.3-0.65-0.15m-11.55-8.2q0.35 0.6-0.45 1.1-0.8 0.45-1.05-0.25t0.45-1.05q0.7-0.4 1.05 0.2m0.25-2.25q0.55-0.5 1.25 0.15 0-0.45 0.45-0.75 0.55-0.4 0.9 0.25 0.3 0.65-0.4 1.05l-0.45 0.15q0.15 0.6-0.6 1-1.05 0.6-1.4-0.35t0.25-1.5m3.3 1.5q-0.45-0.65 0.25-1.1 0.65-0.45 1.05 0.2t-0.25 1.1q-0.65 0.4-1.05-0.2m-9.3 5.15 0.75-0.05q0-0.45 0.4-0.7 0.55-0.4 0.85 0.2t-0.35 1l-0.25 0.15q0.3 0.55-0.45 0.95-0.85 0.5-1.15-0.3-0.35-0.8 0.2-1.25m-0.9 1.9q0.35 0.55-0.45 1-0.75 0.45-0.95-0.2-0.25-0.65 0.4-1.05 0.7-0.35 1 0.25m0.35 4.35q-0.25-0.8 0.45-1.3 0.7-0.45 1.1 0.3 0.4 0.8-0.45 1.3-0.85 0.45-1.1-0.3m-1.9-1.8q-0.35-0.55 0.25-0.95 0.55-0.45 0.9 0.15 0.35 0.55-0.2 0.95-0.55 0.35-0.95-0.15m5.75-7.05q0.8-0.55 1.25 0.2 0.5 0.8-0.3 1.3-0.75 0.5-1.25-0.2-0.5-0.75 0.3-1.3m1.45 8.95q-0.15-0.4 0.25-0.6 0.35-0.2 0.55 0.15 0.2 0.3-0.25 0.55l-0.55-0.1m-2.75 0.2q-0.3-0.75 0.25-1.2 0.5-0.45 1.1 0.25 0.65 0.75-0.2 1.25-0.85 0.45-1.15-0.3m6.75 0.2q-0.25-0.85 0.5-1.4 0.75-0.5 1.2 0.35 0.45 0.8-0.5 1.35-0.9 0.55-1.2-0.3m-1.15-0.8q0.45 0.75-0.3 1.25-0.75 0.45-1.2-0.25-0.5-0.7 0.25-1.25 0.75-0.5 1.25 0.25" fill="#deb185" fill-opacity=".50196" fill-rule="evenodd"/>
</g>
<g id="b" transform="translate(-392.05,-293.7)">
<path d="m397 313.7-0.1-0.55 0.05-0.25 0.05 0.8m6 1.25 0.05 0.4v0.2l-0.05-0.6m-5.95 0.4-0.05-0.15 0.05-0.5v0.65m1.9-1.9v-0.1l0.05-0.25 0.2 0.1h-0.05l-0.2 0.25" fill="#5f829a" fill-rule="evenodd"/>
<path d="m396.95 312.9q0.1-0.6 0.75-1 0.9-0.45 2.15-0.45 1.25 0.05 2.2 0.55 0.9 0.65 0.9 1.3v0.35l-0.4 0.55-0.4 0.25q-0.85 0.6-2.1 0.55l-1-0.1-0.1-0.55v-0.9q-0.5 0.35-0.7 1.15l-0.45-0.25-0.3-0.25-0.5-0.4-0.05-0.8m2 0.55 0.2-0.25h0.05l-0.2-0.1-0.05 0.25v0.1" fill="#f9af08" fill-rule="evenodd"/>
<path d="m402.95 313.65 0.05 1.3 0.05 0.6-0.4 0.65-0.05 0.05-0.9-1.05-0.5 1.7-1.05 0.05h-0.75l-0.35-2.05 1 0.1q1.25 0.05 2.1-0.55l0.4-0.25 0.4-0.55m-4.85 2.75-0.2-0.05q-0.8-0.45-0.85-1v-0.65l-0.05-1 0.5 0.4 0.3 0.25 0.45 0.25q-0.25 0.75-0.2 1.75l0.05 0.05" fill="#bd6206" fill-rule="evenodd"/>
<path d="m398.25 314.6q0.2-0.8 0.7-1.15v0.9l0.1 0.55-0.8-0.3" fill="#fff0a6" fill-rule="evenodd"/>
<path d="m399.4 316.95q-0.7-0.2-1.3-0.55l-0.05-0.05q-0.05-1 0.2-1.75l0.8 0.3 0.35 2.05" fill="#fbcb5e" fill-rule="evenodd"/>
<path d="m402.6 316.25-0.35 0.2-1.05 0.45 0.5-1.7 0.9 1.05" fill="#8e4904" fill-rule="evenodd"/>
<path d="m397 313.7-0.1-0.55 0.05-0.25q0.1-0.6 0.75-1 0.9-0.45 2.15-0.45 1.25 0.05 2.2 0.55 0.9 0.65 0.9 1.3v0.35l0.05 1.3 0.05 0.4v0.2l-0.4 0.65-0.05 0.05-0.35 0.2-1.05 0.45-1.05 0.05h-0.75q-0.7-0.2-1.3-0.55l-0.2-0.05q-0.8-0.45-0.85-1l-0.05-0.15 0.05-0.5-0.05-1-0.05-0.8m0.1 2.45v-0.65m5.95 0.25 0.05 0.6" fill="none" stroke="#000" stroke-linecap="round" stroke-linejoin="round" stroke-opacity=".30196" stroke-width=".05"/>
<path d="m399.8 313.6q0.4 1.5 0.3 2.8 0 1.2-0.5 1.35-0.45 0.15-1.1-0.85-0.65-1.05-1.05-2.55-0.4-1.45-0.3-2.6 0.05-1.25 0.5-1.4 0.5-0.15 1.1 0.9 0.65 0.9 1.05 2.35" fill="url(#m)" fill-rule="evenodd"/>
<path d="m402.4 311.6q0.1 1.4-0.5 2.2-0.7 0.85-1.8 0.7-1.15-0.15-1.85-1.05-0.75-0.7-0.65-2.1 0.05-1.3 0.7-2.15 0.6-0.75 1.5-0.75 0.85 0.05 1.6 0.85 0.75 0.85 1 2.3" fill="#cabc9b" fill-rule="evenodd"/>
<path d="m402.4 311.6q0.1 1.4-0.5 2.2-0.7 0.85-1.8 0.7-1.15-0.15-1.85-1.05-0.75-0.7-0.65-2.1 0.05-1.3 0.7-2.15 0.6-0.75 1.5-0.75 0.85 0.05 1.6 0.85 0.75 0.85 1 2.3z" fill="none" stroke="#000" stroke-linecap="round" stroke-linejoin="round" stroke-opacity=".30196" stroke-width=".05"/>
<path d="m408.7 313.85 0.15-0.55-0.1-0.25-0.05 0.8m-6 1.15-0.1 0.35 0.1 0.25v-0.6m5.9 0.5 0.1-0.15-0.05-0.5-0.05 0.65m-1.8-1.95v-0.1l-0.1-0.25-0.2 0.1h0.1l0.2 0.25" fill="#5f829a" fill-rule="evenodd"/>
<path d="m408.75 313.05q-0.05-0.55-0.7-1-0.9-0.45-2.15-0.45t-2.2 0.45q-0.9 0.6-0.95 1.25l0.05 0.4 0.3 0.55 0.4 0.25q0.9 0.6 2.15 0.6l1-0.1 0.1-0.55 0.05-0.9q0.45 0.4 0.7 1.2l0.7-0.5 0.5-0.4 0.05-0.8m-1.95 0.5-0.2-0.25h-0.1l0.2-0.1 0.1 0.25v0.1" fill="#f9af08" fill-rule="evenodd"/>
<path d="m402.8 313.7-0.1 1.3v0.6l0.3 0.65 0.05 0.05 0.95-1.05 0.5 1.7 1 0.1h0.7l0.45-2.05-1 0.1q-1.25 0-2.15-0.6l-0.4-0.25-0.3-0.55m4.8 2.85 0.1-0.1q0.85-0.4 0.9-0.95l0.05-0.65 0.05-1-0.5 0.4-0.7 0.5 0.1 1.7v0.1" fill="#bd6206" fill-rule="evenodd"/>
<path d="m407.5 314.75q-0.25-0.8-0.7-1.2l-0.05 0.9-0.1 0.55 0.85-0.25" fill="#fff0a6" fill-rule="evenodd"/>
<path d="m406.2 317.05q0.8-0.15 1.4-0.5v-0.1l-0.1-1.7-0.85 0.25-0.45 2.05" fill="#fbcb5e" fill-rule="evenodd"/>
<path d="m403.05 316.3 0.3 0.15 1.15 0.5-0.5-1.7-0.95 1.05" fill="#8e4904" fill-rule="evenodd"/>
<path d="m408.7 313.85 0.15-0.55-0.1-0.25q-0.05-0.55-0.7-1-0.9-0.45-2.15-0.45t-2.2 0.45q-0.9 0.6-0.95 1.25l0.05 0.4-0.1 1.3-0.1 0.35 0.1 0.25 0.3 0.65 0.05 0.05 0.3 0.15 1.15 0.5 1 0.1h0.7q0.8-0.15 1.4-0.5l0.1-0.1q0.85-0.4 0.9-0.95l0.1-0.15-0.05-0.5 0.05-1 0.05-0.8m-0.15 2.45 0.05-0.65m-5.95 0.15v0.6" fill="none" stroke="#000" stroke-linecap="round" stroke-linejoin="round" stroke-opacity=".30196" stroke-width=".05"/>
<path d="m405.85 313.8q-0.4 1.5-0.4 2.75 0 1.2 0.5 1.35 0.45 0.15 1.1-0.8l1.05-2.5 0.45-2.65q0-1.25-0.45-1.4-0.5-0.15-1.15 0.85-0.65 0.9-1.1 2.4" fill="url(#l)" fill-rule="evenodd"/>
<path d="m403.4 311.65q-0.2 1.4 0.45 2.2 0.65 0.85 1.8 0.75 1.1-0.15 1.8-1 0.8-0.7 0.75-2.1-0.1-1.3-0.65-2.15-0.6-0.8-1.55-0.8-0.85 0-1.55 0.8-0.85 0.85-1.05 2.3" fill="#cabc9b" fill-rule="evenodd"/>
<path d="m403.4 311.65q-0.2 1.4 0.45 2.2 0.65 0.85 1.8 0.75 1.1-0.15 1.8-1 0.8-0.7 0.75-2.1-0.1-1.3-0.65-2.15-0.6-0.8-1.55-0.8-0.85 0-1.55 0.8-0.85 0.85-1.05 2.3z" fill="none" stroke="#000" stroke-linecap="round" stroke-linejoin="round" stroke-opacity=".30196" stroke-width=".05"/>
<path d="m396.8 317.25-0.1-0.55 0.05-0.25 0.05 0.8m6 1.25 0.05 0.4v0.2l-0.05-0.6m-5.95 0.4-0.05-0.15 0.05-0.5v0.65m1.9-1.9v-0.1l0.05-0.25 0.2 0.1h-0.05q-0.15 0.05-0.2 0.25" fill="#5f829a" fill-rule="evenodd"/>
<path d="m396.75 316.45q0.1-0.6 0.75-1 0.9-0.45 2.15-0.45 1.25 0.05 2.2 0.55 0.9 0.65 0.9 1.3v0.35l-0.4 0.55-0.4 0.25q-0.85 0.6-2.1 0.55l-1-0.1-0.1-0.55v-0.9q-0.5 0.35-0.7 1.15l-0.45-0.25-0.3-0.25-0.5-0.4-0.05-0.8m2 0.55q0.05-0.2 0.2-0.25h0.05l-0.2-0.1-0.05 0.25v0.1" fill="#f9af08" fill-rule="evenodd"/>
<path d="m402.75 317.2 0.05 1.3 0.05 0.6-0.4 0.65-0.05 0.05-0.9-1.05-0.5 1.7-1.05 0.05h-0.75l-0.35-2.05 1 0.1q1.25 0.05 2.1-0.55l0.4-0.25 0.4-0.55m-4.85 2.75-0.2-0.05q-0.8-0.45-0.85-1v-0.65l-0.05-1 0.5 0.4 0.3 0.25 0.45 0.25q-0.25 0.75-0.2 1.75l0.05 0.05" fill="#bd6206" fill-rule="evenodd"/>
<path d="m398.05 318.15q0.2-0.8 0.7-1.15v0.9l0.1 0.55-0.8-0.3" fill="#fff0a6" fill-rule="evenodd"/>
<path d="m399.2 320.5-1.3-0.55-0.05-0.05q-0.05-1 0.2-1.75l0.8 0.3 0.35 2.05" fill="#fbcb5e" fill-rule="evenodd"/>
<path d="m402.4 319.8-0.35 0.2-1.05 0.45 0.5-1.7 0.9 1.05" fill="#8e4904" fill-rule="evenodd"/>
<path d="m396.8 317.25-0.1-0.55 0.05-0.25q0.1-0.6 0.75-1 0.9-0.45 2.15-0.45 1.25 0.05 2.2 0.55 0.9 0.65 0.9 1.3v0.35l0.05 1.3 0.05 0.4v0.2l-0.4 0.65-0.05 0.05-0.35 0.2-1.05 0.45-1.05 0.05h-0.75l-1.3-0.55-0.2-0.05q-0.8-0.45-0.85-1l-0.05-0.15 0.05-0.5-0.05-1-0.05-0.8m0.1 2.45v-0.65m5.95 0.25 0.05 0.6" fill="none" stroke="#000" stroke-linecap="round" stroke-linejoin="round" stroke-opacity=".30196" stroke-width=".05"/>
<path d="m399.65 317.2q0.4 1.5 0.3 2.8 0 1.2-0.5 1.35-0.45 0.15-1.1-0.85-0.65-1.05-1.05-2.55-0.4-1.45-0.3-2.6 0.05-1.25 0.5-1.4 0.5-0.15 1.1 0.9 0.65 0.9 1.05 2.35" fill="url(#k)" fill-rule="evenodd"/>
<path d="m402.2 315.15q0.1 1.4-0.5 2.2-0.7 0.85-1.8 0.7-1.15-0.15-1.85-1.05-0.75-0.7-0.65-2.1 0.05-1.3 0.7-2.15 0.6-0.75 1.5-0.75 0.85 0.05 1.6 0.85 0.75 0.85 1 2.3" fill="#cabc9b" fill-rule="evenodd"/>
<path d="m402.2 315.15q0.1 1.4-0.5 2.2-0.7 0.85-1.8 0.7-1.15-0.15-1.85-1.05-0.75-0.7-0.65-2.1 0.05-1.3 0.7-2.15 0.6-0.75 1.5-0.75 0.85 0.05 1.6 0.85 0.75 0.85 1 2.3z" fill="none" stroke="#000" stroke-linecap="round" stroke-linejoin="round" stroke-opacity=".30196" stroke-width=".05"/>
<path d="m403.55 315.95h-0.55l0.15-0.25 0.4 0.25" fill="#fff" fill-rule="evenodd"/>
<path d="m400.4 313.35q0.45 0.45 1.3 0.7l2.05 0.3q1.25 0.05 1.75-0.4l-0.05 1.3-0.4 0.5-1.5 0.2-0.15-0.6-0.25 0.35 0.25-0.35 0.15 0.6-0.4-0.25-0.15 0.25-1.55-0.3q-0.8-0.25-0.95-0.55-0.4-0.85-0.1-1.75" fill="#1c2c31" fill-rule="evenodd"/>
<path d="m400.4 313.35q0.05-2.35 1.2-5.2 1.9-2.55 3.7-0.95 0.3 0.45 0.45 1.6l-0.15 3.5-0.1 1.65q-0.5 0.45-1.75 0.4l-2.05-0.3q-0.85-0.25-1.3-0.7" fill="#59502f" fill-rule="evenodd"/>
<path d="m405.5 313.95 0.1-1.65 0.15-3.5q-0.15-1.15-0.45-1.6-1.8-1.6-3.7 0.95-1.15 2.85-1.2 5.2 0.45 0.45 1.3 0.7l2.05 0.3q1.25 0.05 1.75-0.4l-0.05 1.3-0.4 0.5-1.5 0.2-0.4-0.25-0.15 0.25-1.55-0.3q-0.8-0.25-0.95-0.55-0.4-0.85-0.1-1.75m2.75 2.35 0.25-0.35 0.15 0.6" fill="none" stroke="#332720" stroke-linecap="round" stroke-linejoin="round" stroke-width="1.5"/>
<path d="m401.4 315.7q-0.15-1 0.1-1.75" fill="none" stroke="#4d7788" stroke-linecap="round" stroke-linejoin="round" stroke-width="1.5"/>
<path d="m408.5 317.45 0.15-0.55-0.1-0.25-0.05 0.8m-6 1.15-0.1 0.35 0.1 0.25v-0.6m5.9 0.5 0.1-0.15-0.05-0.5-0.05 0.65m-1.8-1.95v-0.1l-0.1-0.25-0.2 0.1h0.1l0.2 0.25" fill="#5f829a" fill-rule="evenodd"/>
<path d="m408.55 316.65q-0.05-0.55-0.7-1-0.9-0.45-2.15-0.45t-2.2 0.45q-0.9 0.6-0.95 1.25l0.05 0.4 0.3 0.55 0.4 0.25q0.9 0.6 2.15 0.6l1-0.1 0.1-0.55 0.05-0.9q0.45 0.4 0.7 1.2l0.7-0.5 0.5-0.4 0.05-0.8m-1.95 0.5-0.2-0.25h-0.1l0.2-0.1 0.1 0.25v0.1" fill="#f9af08" fill-rule="evenodd"/>
<path d="m402.6 317.3-0.1 1.3v0.6q0 0.3 0.3 0.65l0.05 0.05 0.95-1.05 0.5 1.7 1 0.1h0.7l0.45-2.05-1 0.1q-1.25 0-2.15-0.6l-0.4-0.25-0.3-0.55m4.8 2.85 0.1-0.1q0.85-0.4 0.9-0.95l0.05-0.65 0.05-1-0.5 0.4-0.7 0.5 0.1 1.7v0.1" fill="#bd6206" fill-rule="evenodd"/>
<path d="m407.3 318.35q-0.25-0.8-0.7-1.2l-0.05 0.9-0.1 0.55 0.85-0.25" fill="#fff0a6" fill-rule="evenodd"/>
<path d="m406 320.65 1.4-0.5v-0.1l-0.1-1.7-0.85 0.25-0.45 2.05" fill="#fbcb5e" fill-rule="evenodd"/>
<path d="m402.85 319.9 0.3 0.15 1.15 0.5-0.5-1.7-0.95 1.05" fill="#8e4904" fill-rule="evenodd"/>
<path d="m408.5 317.45 0.15-0.55-0.1-0.25q-0.05-0.55-0.7-1-0.9-0.45-2.15-0.45t-2.2 0.45q-0.9 0.6-0.95 1.25l0.05 0.4-0.1 1.3-0.1 0.35 0.1 0.25q0 0.3 0.3 0.65l0.05 0.05 0.3 0.15 1.15 0.5 1 0.1h0.7l1.4-0.5 0.1-0.1q0.85-0.4 0.9-0.95l0.1-0.15-0.05-0.5 0.05-1 0.05-0.8m-0.15 2.45 0.05-0.65m-5.95 0.15v0.6" fill="none" stroke="#000" stroke-linecap="round" stroke-linejoin="round" stroke-opacity=".30196" stroke-width=".05"/>
<path d="m405.75 317.35q-0.4 1.5-0.4 2.75 0 1.2 0.5 1.35 0.45 0.15 1.1-0.8l1.05-2.5 0.45-2.65q0-1.25-0.45-1.4-0.5-0.15-1.15 0.85-0.65 0.9-1.1 2.4" fill="url(#j)" fill-rule="evenodd"/>
<path d="m403.2 315.25q-0.2 1.4 0.45 2.2 0.65 0.85 1.8 0.75 1.1-0.15 1.8-1 0.8-0.7 0.75-2.1-0.1-1.3-0.65-2.15-0.6-0.8-1.55-0.8-0.85 0-1.55 0.8-0.85 0.85-1.05 2.3" fill="#cabc9b" fill-rule="evenodd"/>
<path d="m403.2 315.25q-0.2 1.4 0.45 2.2 0.65 0.85 1.8 0.75 1.1-0.15 1.8-1 0.8-0.7 0.75-2.1-0.1-1.3-0.65-2.15-0.6-0.8-1.55-0.8-0.85 0-1.55 0.8-0.85 0.85-1.05 2.3z" fill="none" stroke="#000" stroke-linecap="round" stroke-linejoin="round" stroke-opacity=".30196" stroke-width=".05"/>
<path d="m394.75 294.6 0.15 0.25-0.15 0.4-0.5 0.6-0.45 0.3q-0.2 0.05 0.15-0.75l0.45-0.95q0.1-0.15 0.25-0.15l0.1 0.3" fill="#ffed94" fill-rule="evenodd"/>
<path d="m394.75 294.6-0.1-0.3q-0.15 0-0.25 0.15l-0.45 0.95q-0.35 0.8-0.15 0.75l0.45-0.3 0.5-0.6 0.15-0.4-0.15-0.25m-2.05 3.35q0.25-1.15 0.85-2.2 1.45-3.25 1.8-0.2 0.2 1.3 0.7 2.45v0.2l0.3 0.3 0.25 0.3 0.4 0.55q0-0.65-0.75-1.25l0.65 0.05h2.65q1.15 0 1.25 0.45l0.05 0.1q-0.35 0.95-1.95 1.05h-1l-0.85-0.2-0.1 0.25-0.95 1.25h-1.5q-1.45 0-1.7-0.7l-0.1-1.5v-0.9" fill="#f9af08" fill-rule="evenodd"/>
<path d="m398 299.75h0.9q1.6-0.1 1.95-1.05l0.4 0.1v0.05l0.3 0.65q-1.45 0.45-2.55 1.4h-0.2l-1.75 0.05h-0.4l2.1-0.5q1.35-0.4-0.75-0.7" fill="#bd6206" fill-rule="evenodd"/>
<path d="m392.7 297.95v0.9l0.1 1.5q0.25 0.7 1.7 0.7h1.5l0.65-0.1h0.4l1.75-0.05h0.2q1.1-0.95 2.55-1.4v0.15l-0.15 0.15-1.1 0.75v0.25l-0.15 0.1-1 1.75h-0.05l-2.2 0.3-2.55-0.2-1.15-0.3-0.5-0.4-0.3-0.6q-0.1-0.4-0.05-1.05l0.05-0.4q0-1.05 0.3-2.05" fill="#8e4904" fill-rule="evenodd"/>
<path d="m396 301.05 0.95-1.25 0.1-0.25 0.85 0.2h0.1q2.1 0.3 0.75 0.7l-2.1 0.5-0.65 0.1m0.25-2.95q0.75 0.6 0.75 1.25l-0.4-0.55-0.25-0.3-0.3-0.3v-0.2l0.2 0.1" fill="#f9ba2a" fill-rule="evenodd"/>
<path d="m396.05 298q-0.5-1.15-0.7-2.45-0.35-3.05-1.8 0.2-0.6 1.05-0.85 2.2-0.3 1-0.3 2.05m8.45-1.3-0.05-0.1q-0.1-0.45-1.25-0.45h-2.65l-0.65-0.05m0.75 1.25-0.4-0.55-0.25-0.3-0.3-0.3v-0.2l0.1 0.05m5.4 1.45-0.3-0.65v-0.05l-0.4-0.1m-0.55 1.85 1.1-0.75 0.15-0.15v-0.15m-2.4 3.15 1-1.75m-7.8-0.5q-0.05 0.65 0.05 1.05l0.3 0.6 0.5 0.4 1.15 0.3 2.55 0.2 2.2-0.3" fill="none" stroke="#000" stroke-linecap="round" stroke-linejoin="round" stroke-opacity=".30196" stroke-width=".05"/>
<path d="m395.7 297.55q-0.1 1.4-0.65 2.35-0.4 1-0.9 0.95-0.55-0.1-0.8-1.15t-0.15-2.45 0.55-2.3q0.45-1.05 1-0.95 0.5 0.05 0.7 1.15 0.35 1 0.25 2.4" fill="url(#i)" fill-rule="evenodd"/>
<path d="m401.15 299.3q-0.75 0.55-1.9 0.75l-1.85-0.05q-0.9-0.25-0.9-0.7-0.15-0.5 0.65-0.95 0.8-0.5 1.8-0.7l1.9 0.05q0.85 0.25 0.95 0.7 0.05 0.45-0.65 0.9" fill="url(#h)" fill-rule="evenodd"/>
<path d="m402.35 298.05h0.05-0.05m0.2-0.1h-0.05v-0.1l0.05 0.1" fill="#c1b968" fill-rule="evenodd"/>
<path d="m402.15 297.9h-0.15l-0.4-0.35-0.5-1.05-0.15-0.45v-0.15l0.05-0.1 0.15-0.15-0.25 0.05h-0.3l-0.6-0.7-0.1 0.6-0.1 0.55-0.05-0.75v-0.05l0.1-0.45 1.3-0.05 0.15 0.05q0.7-1.05 2-0.8 0.9 0.2 1 1.1l0.05 0.1 0.65 0.4q0.3 0.3 0.3 0.9v0.2l-0.8-0.7-2.35 1.8" fill="#333" fill-rule="evenodd"/>
<path d="m399.8 296.15 0.1-0.55 0.1-0.6 0.6 0.7h0.3l0.25-0.05-0.15 0.15-0.05 0.1v0.15l0.15 0.45 0.5 1.05 0.4 0.35h0.15l0.35-0.05v0.1h0.05l0.4-0.1 0.2-0.15 0.2-0.2-0.05 0.2-0.05 0.05 0.1 0.05 0.25 0.05 0.7 0.2 0.4-0.1 0.35-0.35-0.05 0.2-0.3 0.55-0.5 0.4-1.35 0.15-0.15-0.05-0.2-0.65-0.1-0.15h-0.05q-0.35 0.3-0.7 0.4l-0.75-0.1q-0.8-0.35-1.15-1.45l-0.1-0.25 0.15-0.5" fill="#262626" fill-rule="evenodd"/>
<path d="m402.15 297.9 2.35-1.8 0.8 0.7-0.05 0.2 0.1 0.15 0.25 0.35 0.15 1q-0.15 0.9-0.85 1.45-1 0.75-2.15 0.45-0.7-0.2-1.05-0.85-1.3 0.55-2-0.6-0.35-0.45-0.1-0.95-0.95-0.5-0.8-1.65 0.05-0.55 0.45-1l0.6-0.45-0.1 0.45v0.05l0.05 0.75-0.15 0.5 0.1 0.25q0.35 1.1 1.15 1.45l0.75 0.1q0.35-0.1 0.7-0.4h0.05l0.1 0.15 0.2 0.65 0.15 0.05 1.35-0.15 0.5-0.4 0.3-0.55 0.05-0.2-0.35 0.35-0.4 0.1-0.7-0.2-0.25-0.05-0.1-0.05 0.05-0.05 0.05-0.2-0.2 0.2-0.2 0.15-0.4 0.1-0.05-0.1-0.35 0.05" fill="#1a1a1a" fill-rule="evenodd"/>
<path d="m405.3 296.8v-0.2q0-0.6-0.3-0.9l-0.65-0.4-0.05-0.1q-0.1-0.9-1-1.1-1.3-0.25-2 0.8l-0.15-0.05-1.3 0.05m5.45 1.9-0.05 0.2 0.1 0.15 0.25 0.35 0.15 1q-0.15 0.9-0.85 1.45-1 0.75-2.15 0.45-0.7-0.2-1.05-0.85-1.3 0.55-2-0.6-0.35-0.45-0.1-0.95-0.95-0.5-0.8-1.65 0.05-0.55 0.45-1l0.6-0.45" fill="none" stroke="#332720" stroke-linecap="round" stroke-linejoin="round" stroke-opacity=".2" stroke-width=".05"/>
<path d="m409.5 294.4q-0.2 0.05-0.15 0.25l0.15 0.4 0.5 0.55 0.45 0.3q0.2 0.05-0.15-0.7l-0.45-0.9-0.25-0.2-0.1 0.3" fill="#ffed94" fill-rule="evenodd"/>
<path d="m409.5 294.4 0.1-0.3 0.25 0.2 0.45 0.9q0.35 0.75 0.15 0.7l-0.45-0.3-0.5-0.55-0.15-0.4q-0.05-0.2 0.15-0.25m2.05 3.3q-0.25-1.15-0.85-2.2-1.45-3.2-1.8-0.1l-0.7 2.45v0.15l-0.3 0.35-0.25 0.3-0.4 0.55q0-0.65 0.75-1.3l-0.65 0.1-2.65 0.05q-1.15 0.1-1.25 0.55l-0.05 0.05q0.35 0.95 1.95 1.05l0.9-0.05h0.1l0.85-0.2 0.1 0.25q0.3 0.8 0.95 1.15h1.5q1.45-0.15 1.7-0.8l0.1-1.45v-0.9" fill="#f9af08" fill-rule="evenodd"/>
<path d="m406.25 299.65-0.9 0.05q-1.6-0.1-1.95-1.05l-0.4 0.15v0.05l-0.3 0.65q1.45 0.4 2.55 1.35h2.35l-2.1-0.5q-1.35-0.35 0.75-0.7" fill="#bd6206" fill-rule="evenodd"/>
<path d="m411.55 297.7v0.9l-0.1 1.45q-0.25 0.65-1.7 0.8h-4.5q-1.1-0.95-2.55-1.35v0.15l0.15 0.15 1.1 0.7v0.3l0.15 0.1 1 1.7 0.05-0.05 2.2 0.2 2.55-0.25 1.15-0.35 0.5-0.45 0.3-0.55 0.05-1.05-0.05-0.4-0.3-2" fill="#8e4904" fill-rule="evenodd"/>
<path d="m408.25 300.85q-0.65-0.35-0.95-1.15l-0.1-0.25-0.85 0.2h-0.1q-2.1 0.35-0.75 0.7l2.1 0.5h0.65m-0.25-2.95q-0.75 0.65-0.75 1.3l0.4-0.55 0.25-0.3 0.3-0.35v-0.15l-0.1 0.05h-0.1" fill="#f9ba2a" fill-rule="evenodd"/>
<path d="m408.2 297.85 0.7-2.45q0.35-3.1 1.8 0.1 0.6 1.05 0.85 2.2l0.3 2m-8.45-1.05 0.05-0.05q0.1-0.45 1.25-0.55l2.65-0.05 0.65-0.1m-0.75 1.3 0.4-0.55 0.25-0.3 0.3-0.35v-0.15l-0.1 0.05m-5.4 1.6 0.3-0.65v-0.05l0.4-0.15m0.55 1.85-1.1-0.7-0.15-0.15v-0.15m2.4 3.1-1-1.7m7.8-0.8-0.05 1.05-0.3 0.55-0.5 0.45-1.15 0.35-2.55 0.25-2.2-0.2" fill="none" stroke="#000" stroke-linecap="round" stroke-linejoin="round" stroke-opacity=".30196" stroke-width=".05"/>
<path d="m408.5 297.3q0.1 1.4 0.65 2.35 0.4 1 0.9 0.9 0.55-0.05 0.8-1.15 0.25-1.05 0.15-2.45t-0.55-2.3q-0.45-1-1-0.95-0.5 0.1-0.7 1.2-0.35 1-0.25 2.4" fill="url(#g)" fill-rule="evenodd"/>
<path d="m403.1 299.3q0.75 0.55 1.9 0.7l1.85-0.1q0.9-0.25 0.9-0.75 0.15-0.45-0.65-0.9-0.8-0.5-1.8-0.6-1.1-0.15-1.9 0-0.85 0.35-0.95 0.75-0.05 0.5 0.65 0.9" fill="url(#f)" fill-rule="evenodd"/>
<path d="m403.85 301-0.2-0.1-0.15-0.05h0.15l0.2 0.15m-9.95 4.5-0.05-0.05h0.05v0.05m5.65 1.85h0.05l-0.05 0.1v-0.1m9.9 3.7 0.05-0.05 0.05 0.05h-0.1" fill="#e2d9b6" fill-rule="evenodd"/>
<path d="m403.1 305.55h-0.05 0.05m-7.8-0.2-0.05 0.1v-0.05l0.05-0.05m9.8 2.15h0.05-0.05" fill="#e4dca8" fill-rule="evenodd"/>
<path d="m397.05 308.75h-0.05 0.05" fill="#fff" fill-rule="evenodd"/>
<path d="m396.05 305.4h0.15v0.05l-0.15-0.05" fill="#c1b968" fill-rule="evenodd"/>
<path d="m410.6 310.95v0.15l-0.05 0.5v0.05l-0.05 0.1v0.05q-0.35 1.2-1.35 1.8l-0.15 0.2q-1 0.55-2.2 0.5v-0.05l-0.4-0.1-0.4-0.15-1.1 1.1-2.25 0.25q-1.2-0.35-1.75-1.55l-0.05-0.15-0.1 0.1q-1.05 0.75-2.25 0.4-1.15-0.25-1.85-1.4-0.4-0.7-0.45-1.55h-1q-1.2-0.35-1.85-1.5-0.7-1.05-0.5-2.4l0.1-0.3-0.35-0.55-0.1-0.05q-0.65-1.1-0.4-2.4l0.1-0.35 0.1-0.4q0.35-0.8 1-1.35 0.5-0.25 0.95-0.35-0.1-0.65 0.1-1.3l0.1-0.3 0.2 0.9 0.45 0.6 1.2 0.45 0.6 0.2 0.05-0.1 0.05-0.4 0.15 0.5q-0.7 0.6-0.3 1.3l0.6 0.65q-1.75-0.1-2.15 1.3l-0.05 0.05-0.15 0.05q-0.6 1.55 0.25 2.35l1.15 0.8q0.2 1.45 1.05 1.8l0.15 0.1q1.35 0.8 2.75 0.65l0.25-0.1q0.85-0.15 1.5-0.65l1.45 1.5q1.15 0.75 2.4 0.75l1-0.1 0.4-0.1 0.1-0.1q0.7-0.2 1.25-0.6l0.65-0.7h0.1l0.5-0.3-0.2 0.25 0.75-0.05m-16.7-5.45v-0.05h-0.05l0.05 0.05" fill="#1a1a1a" fill-rule="evenodd"/>
<path d="m395.3 305.35 0.05 0.1h-0.1l0.05-0.1m2.4 5.15 0.7-0.95 1.15 0.1 0.2 0.55 0.7 0.95q-1.4 0.15-2.75-0.65m11.1 1.25-1.65 0.15-0.1-0.05h-0.05l0.05-0.1 0.35-0.6 0.05-0.3 0.35 0.15 1.65 0.05-0.65 0.7m-2.6-1.2h-0.15l-1.15 0.35-0.35-0.05 0.6-1.1 0.45 0.1v-0.05h0.25l0.25 0.05h0.05l0.35 0.45-0.15 0.15-0.15 0.1" fill="#333" fill-rule="evenodd"/>
<path d="m402 299.05 0.15 0.85 0.25 0.35 0.4 0.35 0.7 0.25-0.55-0.15-0.8 0.1-0.35-0.4 0.1-1.05 0.1-0.3m9.1 2.35q0.25 0.6 0.15 1.3v0.1l-0.05 0.5q-0.3 1-1.1 1.65l-0.5-0.15-1-0.15-0.95-0.9q-0.35-0.2-0.7-0.3l-1.85 0.1q-0.3-0.85-0.1-1.7l-1.1-0.85 1.35 0.1-0.05 0.2 0.2 0.8q0.05 0.5 1.05 0.9l0.65 0.2h0.1l2.65-0.15 0.75-0.65 0.5-1m1.3 3q0.3 0.9 0.05 1.9l-0.6 1.2-0.1 1.15v0.1l-0.25 0.6-0.75 0.95-0.2 0.1 0.05 0.35v0.2l-0.75 0.05 0.2-0.25-0.5 0.3-0.05-0.05-0.05 0.05-1.65-0.05-0.35-0.15-0.05 0.3-0.35 0.6-0.05 0.1h0.05l0.1 0.05 1.65-0.15q-0.55 0.4-1.25 0.6l-0.1 0.1-0.4 0.1-1 0.1q-1.25 0-2.4-0.75l-1.45-1.5q-0.65 0.5-1.5 0.65l-0.25 0.1-0.7-0.95-0.2-0.55-1.15-0.1-0.7 0.95-0.15-0.1q-0.85-0.35-1.05-1.8l-1.15-0.8q-0.85-0.8-0.25-2.35l0.15-0.05v0.05h0.1l0.65-0.05h0.05l0.15 0.05 0.1 0.05 0.15 0.65q0.15 0.55 1.65 1l0.35 0.1 0.25 0.1 0.75 0.05 0.1-0.05v0.1l0.25 0.9q0.05 0.45 0.85 0.8l0.75 0.3h0.05l0.35 0.15 2.1-0.3 0.15-0.05 0.95-1.1v-0.1l0.15-0.4-0.05-0.15h0.45l0.05-0.15 0.05-0.3 0.05-0.15 0.05-0.2 0.05 0.2 0.15 0.55v0.15q0.1 0.6 1.7 1.1l0.75 0.15 1.35-0.1 0.15-0.05 0.05-0.05 0.35-0.15h0.05l0.8-0.6 0.55-1.1-0.25-0.55-0.2-0.35q0.95-0.55 1.15-1.5m-9.35 1.15q-1.15-0.3-2.2 0.3-0.2 0.05-0.3 0.2l-0.15 0.15-0.25-0.25-0.15-0.35q-0.5-0.95-0.45-1.9l0.1-0.6 0.15-0.3 0.15 0.9q0.1 0.65 1.6 1.1h0.05l0.5 0.1h1.15q-0.15 0.3-0.15 0.55v0.1h-0.05m-6 3.2h-0.05 0.05m9.15 1.8 0.15-0.1 0.15-0.15-0.35-0.45h-0.05l-0.25-0.05h-0.25v0.05l-0.45-0.1-0.6 1.1 0.35 0.05 1.15-0.35h0.15" fill="#262626" fill-rule="evenodd"/>
<path d="m402 299.05-0.1 0.3-0.1 1.05 0.35 0.4 0.8-0.1 0.55 0.15-0.7-0.25-0.4-0.35-0.25-0.35-0.15-0.85m-1.75-2.6 1.35 0.05q0.9 0.3 1.5 1.1l0.3-0.2q1.15-0.7 2.4-0.35 1.3 0.35 1.9 1.5l0.25 0.6v0.05l1.05 0.05q1.3 0.4 1.9 1.5l0.2 0.65-0.5 1-0.75 0.65-2.65 0.15h-0.1l-0.65-0.2q-1-0.4-1.05-0.9l-0.2-0.8 0.05-0.2-1.35-0.1 1.1 0.85q-0.2 0.85 0.1 1.7l1.85-0.1q0.35 0.1 0.7 0.3l0.95 0.9 1 0.15 0.5 0.15q0.8-0.65 1.1-1.65l0.05-0.5q0.55 0.35 0.9 1.05l0.25 0.55q-0.2 0.95-1.15 1.5l0.2 0.35 0.25 0.55-0.55 1.1-0.8 0.6h-0.05l-0.35 0.15-0.05 0.05-0.15 0.05-1.35 0.1-0.75-0.15q-1.6-0.5-1.7-1.1v-0.15l-0.15-0.55-0.05-0.2-0.05 0.2-0.05 0.15-0.05 0.3-0.05 0.15h-0.45l0.05 0.15-0.15 0.4v0.1l-0.95 1.1-0.15 0.05-2.1 0.3-0.35-0.15h-0.05l-0.75-0.3q-0.8-0.35-0.85-0.8l-0.25-0.9 0.05-0.1h-0.05l-0.1 0.05-0.75-0.05-0.25-0.1-0.35-0.1q-1.5-0.45-1.65-1l-0.15-0.65-0.1-0.05v-0.05h-0.2l-0.65 0.05-0.05-0.1q0.4-1.4 2.15-1.3l-0.6-0.65q-0.4-0.7 0.3-1.3l-0.15-0.5-0.05 0.4-0.05 0.1-0.6-0.2-1.2-0.45-0.45-0.6-0.2-0.9q0.35-1.05 1.25-1.6 1.1-0.65 2.3-0.25h0.05q0.35-0.85 1.15-1.3l0.85-0.35h0.15l-0.25 0.95 0.3-0.95m2.85 9.1v-0.1q0-0.25 0.15-0.55h-1.15l-0.5-0.1h-0.05q-1.5-0.45-1.6-1.1l-0.15-0.9-0.15 0.3-0.1 0.6q-0.05 0.95 0.45 1.9l0.15 0.35 0.25 0.25 0.15-0.15q0.1-0.15 0.3-0.2 1.05-0.6 2.2-0.3h0.05m0.75-4.55-0.2-0.15h-0.15l0.15 0.05 0.2 0.1" fill="#404040" fill-rule="evenodd"/>
<path d="m400.25 296.45 1.35 0.05q0.9 0.3 1.5 1.1l0.3-0.2q1.15-0.7 2.4-0.35 1.3 0.35 1.9 1.5l0.25 0.6m0 0.05 1.05 0.05q1.3 0.4 1.9 1.5l0.2 0.65q0.25 0.6 0.15 1.3v0.1q0.55 0.35 0.9 1.05l0.25 0.55q0.3 0.9 0.05 1.9l-0.6 1.2-0.1 1.15v0.1l-0.25 0.6-0.75 0.95-0.2 0.1 0.05 0.35v0.35l-0.05 0.5v0.05l-0.05 0.1v0.05q-0.35 1.2-1.35 1.8l-0.15 0.2q-1 0.55-2.2 0.5v-0.05l-0.4-0.1-0.4-0.15-1.1 1.1-2.25 0.25q-1.2-0.35-1.75-1.55l-0.05-0.15-0.1 0.1q-1.05 0.75-2.25 0.4-1.15-0.25-1.85-1.4-0.4-0.7-0.45-1.55h-1q-1.2-0.35-1.85-1.5-0.7-1.05-0.5-2.4l0.1-0.3-0.35-0.55-0.1-0.05q-0.65-1.1-0.4-2.4l0.1-0.35 0.1-0.4q0.35-0.8 1-1.35 0.5-0.25 0.95-0.35-0.1-0.65 0.1-1.3l0.1-0.3q0.35-1.05 1.25-1.6 1.1-0.65 2.3-0.25h0.05q0.35-0.85 1.15-1.3l0.85-0.35h0.15" fill="none" stroke="#332720" stroke-linecap="round" stroke-linejoin="round" stroke-opacity=".2" stroke-width=".05"/>
<path d="m393.45 306.2 1.45 0.4 0.95 0.3q1.55 0.35 2.4 0.9l0.5 0.35 2 1.35q1 0.8 1.65 2.25l0.55 1.85 0.15-0.1 0.2 0.8v0.4l-0.3 0.05h-0.15l-0.2 0.15-0.05 0.15q-0.6 0.65-1.4 0.85-0.85 0.15-1.55-0.45l-0.45-0.45-1 0.45q-0.85 0.15-1.55-0.4t-0.7-1.5v-0.05h-0.1l-1.6-0.25q-0.6-0.45-0.75-1.25l-0.05-0.25v-0.05q-0.1-0.6 0.1-1.15l-0.2-0.15-0.3-0.2q-0.55-0.65-0.65-1.5v-0.15q-0.05-0.9 0.4-1.7v-0.05l0.05-0.05 0.25-0.35 0.15-0.15 0.2-0.05" fill="#1a1a1a" fill-rule="evenodd"/>
<path d="m403.3 314.7-0.3 0.05h-0.15l-0.2 0.15-0.05 0.15q-0.6 0.65-1.4 0.85-0.85 0.15-1.55-0.45l-0.45-0.45-1 0.45q-0.85 0.15-1.55-0.4t-0.7-1.5v-0.05h-0.1l-1.6-0.25q-0.6-0.45-0.75-1.25l-0.05-0.25v-0.05q-0.1-0.6 0.1-1.15l-0.2-0.15-0.3-0.2q-0.55-0.65-0.65-1.5v-0.15q-0.05-0.9 0.4-1.7v-0.05l0.05-0.05 0.25-0.35 0.15-0.15 0.2-0.05" fill="none" stroke="#332720" stroke-linecap="round" stroke-linejoin="round" stroke-opacity=".45098" stroke-width=".05"/>
<path d="m403.1 310.4v0.2l-0.3-0.1 0.3-0.1" fill="#e4dca8" fill-rule="evenodd"/>
<path d="m411.25 310.2 0.1-0.05-0.1 0.05m-8.3 1.5 0.05-0.05v0.1l-0.05-0.05" fill="#e2d9b6" fill-rule="evenodd"/>
<path d="m405.75 313.15q-0.15-1 0.2-1.35l0.55-0.25 1.1-0.45 1.5-0.6 1.2-0.65 0.85-0.9 0.9-1.35-0.15 1.6v0.05l-0.05 0.1 0.15 0.25v0.15l-0.45 0.25v-0.2l-0.2 0.35-0.1 0.05-0.15 0.75-0.55 0.85-0.1 0.1-0.25 0.3-0.6 0.45q-0.85 0.45-1.95 0.4l-1.65-0.45-0.25 0.55" fill="#333" fill-rule="evenodd"/>
<path d="m397.75 313.85 0.2-0.35 0.45-0.65q0.6 0.5 1.3 0.55l0.45-0.05 0.2 0.2 0.85 0.6 1.65 0.35h0.15q1.2 0 2.1-0.65l0.15-0.1 0.5-0.6 0.25-0.55 1.65 0.45q1.1 0.05 1.95-0.4l0.6-0.45 0.25-0.3 0.1-0.1 0.55-0.85 0.15-0.75 0.1-0.05 0.2-0.35v0.2l0.45-0.25 0.1 0.05 0.15 0.35v0.15q0.3 0.95-0.1 1.75l-0.1 0.1h-0.05q-0.4 0.8-1.25 1.2h-0.05l-0.3 0.15h-0.35l-0.25 1.2q-0.5 0.8-1.45 1.05-0.95 0.2-1.9-0.35l-0.05-0.05-0.05 0.05q-0.4 0.9-1.3 1.2l-1.95-0.2-0.9-0.8-0.7 0.3-1.9-0.2q-0.9-0.45-1.25-1.35l-0.05-0.3-0.55-0.2" fill="#1a1a1a" fill-rule="evenodd"/>
<path d="m411.85 309.35 0.15 0.25v0.15l0.1 0.05 0.15 0.35v0.15q0.3 0.95-0.1 1.75l-0.1 0.1h-0.05q-0.4 0.8-1.25 1.2h-0.05l-0.3 0.15h-0.35l-0.25 1.2q-0.5 0.8-1.45 1.05-0.95 0.2-1.9-0.35l-0.05-0.05-0.05 0.05q-0.4 0.9-1.3 1.2l-1.95-0.2-0.9-0.8-0.7 0.3-1.9-0.2q-0.9-0.45-1.25-1.35l-0.05-0.3-0.55-0.2" fill="none" stroke="#332720" stroke-linecap="round" stroke-linejoin="round" stroke-opacity=".45098" stroke-width=".05"/>
<path d="m411.85 304.7v-0.05 0.05" fill="#cdc984" fill-rule="evenodd"/>
<path d="m404 306.9h0.05-0.05" fill="#e2d9b6" fill-rule="evenodd"/>
<path d="m407.35 309.25 0.85 0.15-0.05 0.5-0.6 0.55-0.7 0.05-0.3 0.05q-0.4-0.05-0.4-0.2l0.45-0.65 0.25-0.35 0.35-0.05 0.15-0.05" fill="#333" fill-rule="evenodd"/>
<path d="m411.85 304.7q0.55 0.4 0.6 1.3 0.2 0.9-0.95 1.35 0.35 1.15-0.5 1.9-0.9 0.7-2 0.35h-0.1v-0.05 0.1q-0.15 0.9-1.15 1.3l-2 0.15q-0.75-0.1-1.3-0.55l-0.65 0.45-2.1 0.15q-1.15-0.2-1.8-1.05l-0.2-0.15-0.6-0.15q-0.75-0.35-1.15-0.95-1.45-4.2 3.05 0.15l0.45-0.1 0.3 0.15 1.15 0.3 1.8 0.1h0.2q1.2-0.25 1.65-0.8l0.2-0.55q-0.05-0.75-0.45-1.1l1.85-0.05q0.75-0.05 1.5-1.85 0.3 1.4 0.6 1.2 1-0.55 1.55-1.5l0.05-0.1m-4.5 4.55-0.15 0.05-0.35 0.05-0.25 0.35-0.45 0.65q0 0.15 0.4 0.2l0.3-0.05 0.7-0.05 0.6-0.55 0.05-0.5-0.85-0.15" fill="#262626" fill-rule="evenodd"/>
<path d="m411.85 304.7q0.55 0.4 0.6 1.3 0.2 0.9-0.95 1.35 0.35 1.15-0.5 1.9-0.9 0.7-2 0.35h-0.1v-0.05 0.1q-0.15 0.9-1.15 1.3l-2 0.15q-0.75-0.1-1.3-0.55l-0.65 0.45-2.1 0.15q-1.15-0.2-1.8-1.05l-0.2-0.15-0.6-0.15m12.75-5.15v0.05z" fill="none" stroke="#332720" stroke-linecap="round" stroke-linejoin="round" stroke-opacity=".2" stroke-width="1.5"/>
<path d="m405.65 302-0.2-0.05 0.2 0.05" fill="#333" fill-rule="evenodd"/>
<path d="m405.65 302-0.2-0.05q0.15-1.35 1.4-2.2 0.45 0.2 0.8 0.65l0.45 0.95 0.7 0.45 0.55 0.85q0.2 0.6 0.05 1.1 0.8 1.7-0.2 3.15-1.6 1.15-3.35-0.65 1.25-2.4-0.2-4.25" fill="#404040" fill-rule="evenodd"/>
<path d="m406.85 299.75q0.45 0.2 0.8 0.65l0.45 0.95 0.7 0.45 0.55 0.85q0.2 0.6 0.05 1.1 0.8 1.7-0.2 3.15" fill="none" stroke="#332720" stroke-linecap="round" stroke-linejoin="round" stroke-opacity=".2" stroke-width="1.5"/>
<path d="m397.6 310.4-0.9-2.1-0.2-1.05-0.05-0.7 0.15-0.85 0.05-0.25 0.55-0.65 0.2-0.15h0.35l0.7 0.2 0.15 0.1 0.05 0.05q0.15 0 0.3 0.2l0.65 0.65q0.9 1.05 1.3 2.65l0.1 0.2 0.05 0.4 0.05 1.8-0.05 0.3-0.15 0.4-0.25-0.2v-0.1l0.25-0.55q0.4 0.05 0.05-1.7-0.35-1.8-2.05-2.5-1.65-0.7-1.75-0.2l-0.05 0.55 0.1 0.35q0.35 2.55 1.25 3.3h-0.3l-0.55-0.15" fill="#c8cba3" fill-rule="evenodd"/>
<path d="m398.45 310.55q-0.9-0.75-1.25-3.3l-0.1-0.35 0.05-0.55q0.1-0.5 1.75 0.2 1.7 0.7 2.05 2.5 0.35 1.75-0.05 1.7l-1.5 0.15h-0.05l-0.35-0.15-0.55-0.2" fill="#fcfce9" fill-rule="evenodd"/>
<path d="m399.4 310.9h-0.05 0.05" fill="#e4dca8" fill-rule="evenodd"/>
<path d="m400.9 310.75-0.25 0.55v0.1h-0.1l-1.15-0.5 1.5-0.15" fill="#cacdba" fill-rule="evenodd"/>
<path d="m400.9 311.6 0.15-0.4 0.05-0.3-0.05-1.8-0.05-0.4-0.1-0.2q-0.4-1.6-1.3-2.65l-0.65-0.65q-0.15-0.2-0.3-0.2l-0.05-0.05-0.15-0.1-0.7-0.2h-0.35l-0.2 0.15-0.55 0.65-0.05 0.25-0.15 0.85 0.05 0.7 0.2 1.05 0.9 2.1-0.3-0.05-1.4-3.85 0.45-0.45 0.2-1.35q2.1-1.25 3.8 1.7 1.05 2.05 1.3 5.7l-0.75-0.5" fill="#1a1a1a" fill-rule="evenodd"/>
<path d="m397.6 310.4 0.55 0.15h0.3l0.55 0.2 0.35 0.15h0.05l1.15 0.5h0.1l0.25 0.2 0.75 0.5q-2.55 1.65-4.75-1.8l0.4 0.05 0.3 0.05" fill="#333" fill-rule="evenodd"/>
<path d="m397.6 310.4 0.55 0.15h0.3m2.2 0.85 0.25 0.2m-1.55-0.7-0.35-0.15-0.55-0.2m0.95 0.35h-0.05m0.05 0 1.15 0.5h0.1" fill="none" stroke="#332720" stroke-linecap="round" stroke-linejoin="round" stroke-opacity=".2" stroke-width="1.5"/>
<path d="m400.9 311.6 0.15-0.4 0.05-0.3-0.05-1.8-0.05-0.4-0.1-0.2q-0.4-1.6-1.3-2.65l-0.65-0.65q-0.15-0.2-0.3-0.2l-0.05-0.05-0.15-0.1-0.7-0.2h-0.35l-0.2 0.15-0.55 0.65-0.05 0.25-0.15 0.85 0.05 0.7 0.2 1.05 0.9 2.1m3.3 1.2 0.75 0.5m-4.35-1.75 0.3 0.05m-0.3-0.05-0.4-0.05" fill="none" stroke="#332720" stroke-miterlimit="3" stroke-opacity=".2" stroke-width="1.5"/>
<path d="m399.3 308 0.25 0.1 0.1 0.3-0.1 0.3-0.2 0.2-0.2-0.15-0.05-0.1-0.05-0.2 0.1-0.35q0.05-0.1 0.15-0.1" fill="#fff" fill-rule="evenodd"/>
<path d="m399.5 310.9q-0.1-0.4 0.5-0.35 0.65 0 0.6 0.35l-0.6 0.5q-0.3 0-0.5-0.5" fill="#5b583e" fill-rule="evenodd"/>
<path d="m399.4 310.85 0.1 0.05-0.1-0.05" fill="url(#e)" fill-rule="evenodd"/>
<path d="m399.3 308q0.2-0.55 0.6-0.55 0.35 0 0.65 0.5l0.35 1.4-0.2 1.2-0.05 0.2 0.05 0.05-0.1 0.1q0.05-0.35-0.6-0.35-0.6-0.05-0.5 0.35l-0.1-0.05-0.25-0.55-0.1-0.85q-0.05-0.45 0.05-0.8l0.05 0.1 0.2 0.15 0.2-0.2 0.1-0.3-0.1-0.3-0.25-0.1" fill="#050403" fill-rule="evenodd"/>
<path d="m399.9 308.3 0.1-0.15-0.1-0.2-0.05 0.05-0.05 0.1v0.15l0.05 0.05h0.05" fill="#fff" fill-rule="evenodd"/>
<path d="m405.45 311.6-0.1-0.4-0.1-0.35 0.05-1.75 0.1-0.4 0.05-0.25q0.4-1.55 1.2-2.6l0.55-0.65 0.3-0.2v-0.05l0.15-0.1 0.6-0.2h0.35l0.15 0.15h0.05l0.45 0.7 0.05 0.2 0.15 0.85-0.05 0.7-0.15 1.1-0.8 2.05-0.5 0.15h-0.25q0.85-0.75 1.1-3.3l0.05-0.35-0.05-0.55q-0.05-0.5-1.55 0.15-1.5 0.75-1.8 2.5-0.3 1.8 0.05 1.75l0.2 0.55 0.05 0.1-0.2 0.15-0.1 0.05" fill="#c8cba3" fill-rule="evenodd"/>
<path d="m405.5 310.75q-0.35 0.05-0.05-1.75 0.3-1.75 1.8-2.5 1.5-0.65 1.55-0.15l0.05 0.55-0.05 0.35q-0.25 2.55-1.1 3.3l-0.5 0.2-0.35 0.15h-0.05l-1.3-0.15" fill="#fcfce9" fill-rule="evenodd"/>
<path d="m406.85 310.9h-0.05 0.05" fill="#e4dca8" fill-rule="evenodd"/>
<path d="m405.75 311.4-0.05-0.1-0.2-0.55 1.3 0.15-1 0.5h-0.05" fill="#cacdba" fill-rule="evenodd"/>
<path d="m408.45 310.4 0.8-2.05 0.15-1.1 0.05-0.7-0.15-0.85-0.05-0.2-0.45-0.7h-0.05l-0.15-0.15h-0.35l-0.6 0.2-0.15 0.1v0.05l-0.3 0.2-0.55 0.65q-0.8 1.05-1.2 2.6l-0.05 0.25-0.1 0.4-0.05 1.75 0.1 0.35 0.1 0.4-0.6 0.5q0.1-3.7 1.1-5.7 1.55-2.95 3.4-1.65l0.25 1.3 0.35 0.45-1.25 3.9h-0.25" fill="#1a1a1a" fill-rule="evenodd"/>
<path d="m408.45 310.4h0.25l0.35-0.05q-1.9 3.4-4.2 1.75l0.6-0.5 0.1-0.05 0.2-0.15h0.05l1-0.5h0.05l0.35-0.15 0.5-0.2h0.25l0.5-0.15" fill="#333" fill-rule="evenodd"/>
<path d="m405.45 311.6-0.1-0.4-0.1-0.35 0.05-1.75 0.1-0.4 0.05-0.25q0.4-1.55 1.2-2.6l0.55-0.65 0.3-0.2v-0.05l0.15-0.1 0.6-0.2h0.35l0.15 0.15h0.05l0.45 0.7 0.05 0.2 0.15 0.85-0.05 0.7-0.15 1.1-0.8 2.05m-3 1.2 0.1-0.05 0.2-0.15m1.95-0.85h0.25l0.5-0.15m-1.65 0.5-1 0.5h-0.05m1.1-0.5 0.35-0.15 0.5-0.2m-0.9 0.35h0.05" fill="none" stroke="#332720" stroke-linecap="round" stroke-linejoin="round" stroke-opacity=".2" stroke-width="1.5"/>
<path d="m408.45 310.4h0.25m-3.85 1.7 0.6-0.5m3.6-1.25-0.35 0.05" fill="none" stroke="#332720" stroke-miterlimit="3" stroke-opacity=".2" stroke-width="1.5"/>
<path d="m406.9 310.8h0.05l-0.05 0.05v-0.05" fill="#4d2601" fill-rule="evenodd"/>
<path d="m407.2 308.65-0.2 0.2-0.2-0.2-0.05-0.3 0.05-0.3 0.2-0.1 0.15 0.1 0.1 0.35-0.05 0.25" fill="#fff" fill-rule="evenodd"/>
<path d="m405.95 310.85q-0.05-0.35 0.5-0.3 0.45-0.1 0.45 0.25v0.1l-0.5 0.45-0.45-0.5" fill="#5b583e" fill-rule="evenodd"/>
<path d="m406.9 310.9v-0.05l0.05-0.05-0.05 0.1" fill="url(#d)" fill-rule="evenodd"/>
<path d="m407 307.95-0.2 0.1-0.05 0.3 0.05 0.3 0.2 0.2 0.2-0.2 0.05 0.75-0.1 0.85-0.2 0.55h-0.05q0-0.35-0.45-0.25-0.55-0.05-0.5 0.3l-0.1-0.1h0.05l-0.1-0.2-0.1-1.2q0.05-0.8 0.25-1.4 0.3-0.55 0.55-0.55 0.3 0 0.5 0.55" fill="#050403" fill-rule="evenodd"/>
<path d="m406.4 308.2-0.05-0.15v-0.1l0.05-0.1 0.05 0.05 0.05 0.1v0.15l-0.05 0.05h-0.05" fill="#fff" fill-rule="evenodd"/>
</g>
<radialGradient id="m" cx="0" cy="0" r="819.2" gradientTransform="matrix(.0017 -5e-4 .0011 .0043 398.6 314)" gradientUnits="userSpaceOnUse">
<stop stop-color="#fff" offset="0"/>
<stop stop-color="#fff" stop-opacity="0" offset="1"/>
</radialGradient>
<radialGradient id="l" cx="0" cy="0" r="819.2" gradientTransform="matrix(-.0017 -6e-4 -.0012 .0043 407 314.2)" gradientUnits="userSpaceOnUse">
<stop stop-color="#fff" offset="0"/>
<stop stop-color="#fff" stop-opacity="0" offset="1"/>
</radialGradient>
<radialGradient id="k" cx="0" cy="0" r="819.2" gradientTransform="matrix(.0017 -5e-4 .0011 .0043 398.45 317.6)" gradientUnits="userSpaceOnUse">
<stop stop-color="#fff" offset="0"/>
<stop stop-color="#fff" stop-opacity="0" offset="1"/>
</radialGradient>
<radialGradient id="j" cx="0" cy="0" r="819.2" gradientTransform="matrix(-.0017 -6e-4 -.0012 .0043 406.9 317.75)" gradientUnits="userSpaceOnUse">
<stop stop-color="#fff" offset="0"/>
<stop stop-color="#fff" stop-opacity="0" offset="1"/>
</radialGradient>
<radialGradient id="i" cx="0" cy="0" r="819.2" gradientTransform="matrix(.0018 2e-4 -3e-4 .004 394.45 297.4)" gradientUnits="userSpaceOnUse">
<stop stop-color="#fff" offset="0"/>
<stop stop-color="#fff" stop-opacity="0" offset="1"/>
</radialGradient>
<radialGradient id="h" cx="0" cy="0" r="819.2" gradientTransform="matrix(3e-4 .0018 -.0031 5e-4 399.15 298.85)" gradientUnits="userSpaceOnUse">
<stop stop-color="#fff" offset="0"/>
<stop stop-color="#fff" stop-opacity="0" offset="1"/>
</radialGradient>
<radialGradient id="g" cx="0" cy="0" r="819.2" gradientTransform="matrix(-.0018 3e-4 3e-4 .004 409.75 297.1)" gradientUnits="userSpaceOnUse">
<stop stop-color="#fff" offset="0"/>
<stop stop-color="#fff" stop-opacity="0" offset="1"/>
</radialGradient>
<radialGradient id="f" cx="0" cy="0" r="819.2" gradientTransform="matrix(-3e-4 .0018 .0031 4e-4 405.1 298.8)" gradientUnits="userSpaceOnUse">
<stop stop-color="#fff" offset="0"/>
<stop stop-color="#fff" stop-opacity="0" offset="1"/>
</radialGradient>
<radialGradient id="e" cx="0" cy="0" r="819.2" gradientTransform="matrix(-.0018 1e-4 1e-4 .0025 400 309.4)" gradientUnits="userSpaceOnUse">
<stop stop-color="#453929" offset=".21176"/>
<stop stop-color="#252016" offset=".52549"/>
</radialGradient>
<radialGradient id="d" cx="0" cy="0" r="819.2" gradientTransform="matrix(.0015 1e-4 -1e-4 .0025 406.45 309.35)" gradientUnits="userSpaceOnUse">
<stop stop-color="#453929" offset=".21176"/>
<stop stop-color="#252016" offset=".52549"/>
</radialGradient>
</defs>
</svg>
