<?xml version="1.0" encoding="UTF-8"?>
<svg version="1.1" viewBox="0 0 98.9 256.4" xmlns="http://www.w3.org/2000/svg" xmlns:cc="http://creativecommons.org/ns#" xmlns:dc="http://purl.org/dc/elements/1.1/" xmlns:rdf="http://www.w3.org/1999/02/22-rdf-syntax-ns#" xmlns:xlink="http://www.w3.org/1999/xlink">
<metadata>
<rdf:RDF>
<cc:Work rdf:about="">
<dc:format>image/svg+xml</dc:format>
<dc:type rdf:resource="http://purl.org/dc/dcmitype/StillImage"/>
</cc:Work>
</rdf:RDF>
</metadata>
<g transform="translate(-225.5 -34.25)">
<use transform="translate(225.5,34.25)" width="98.900002" height="165.14999" xlink:href="#c"/>
<use transform="matrix(1.9264 .0328 -.0328 1.9264 300.18 164.43)" width="5.8000002" height="64.699997" xlink:href="#b"/>
<use transform="translate(269.8,247.5)" width="29.049999" height="43.150002" xlink:href="#a"/>
</g>
<defs>
<g id="c" transform="translate(-225.5,-34.25)">
<path d="m287.25 88.95 0.5-0.15 30.7 9.85v0.05l-1.2 14.25-40.85 73.95-1.95 0.2h-0.4l-11.15-7.35 24.35-90.8" fill="#b99666" fill-rule="evenodd"/>
<path d="m262.9 179.75 11.15 7.35h0.4l1.95-0.2 17.6-1.75h0.15l1.7 12.9-0.05 0.25-19.35 0.45-0.15 0.05-29.2-15.45-1.15-14.75 16.95 11.15m54.35-66.8 1.2-14.25 5.45 31.6-3.6 40.95-5.7-24.9v-0.05l-0.05-0.35 2.7-33m2.4 59.2-10.45 6.1-14.3-13.3-0.6-3.05v-1.95l5.35-2.4h0.05l19.95 14.6m-43.2 26.6-2-11.65 2 11.65" fill="#715633" fill-rule="evenodd"/>
<path d="m287.25 88.95-24.35 90.8-16.95-11.15-0.4-0.3-4.55-7.7 3.45-59.45 42.8-12.2m27.35 57.4h-0.1 0.1m-58.75 13.35-9.9 8.9 9.9-8.9" fill="#c09f74" fill-rule="evenodd"/>
<path d="m319.45 169.8 0.2 2.35-19.95-14.6 0.05-0.05 14.75-11.15h0.1l5.7 24.9-0.85-1.45m-72.45 13.6-15.1-22.85-4.95-23.2 1.1 1.25 12.95 22 4.55 7.7 0.4 0.3 1.15 14.75-0.1 0.05" fill="#85663d" fill-rule="evenodd"/>
<path d="m276.4 186.9 40.85-73.95-2.7 33-0.05 0.4-14.75 11.15-0.1 0.05-5.35 2.4v4.35l-0.25 19.7-0.05 1.15-17.6 1.75m17.9-25-0.35-1.85 0.35 1.85" fill="#b48d5a" fill-rule="evenodd"/>
<path d="m309.2 178.25-10.15 6.95v0.2l-3.2 12.65-1.7-12.9-0.1-1.15 0.25-19.7v-2.4l0.6 3.05-0.6-0.65 0.6 0.65 14.3 13.3m-10.15 6.95-4.15-20.25 4.15 20.25" fill="#60492b" fill-rule="evenodd"/>
<path d="m226.65 136.05 11.6-5 5.05-29.55 1.15-0.35-3.45 59.45-12.95-22-1.35-2.3-0.05-0.25" fill="#cbb08d" fill-rule="evenodd"/>
<path d="m318.45 98.7v-0.05l-30.7-9.85-0.5 0.15m-24.35 90.8 11.15 7.35h0.4l1.95-0.2m40.85-73.95 1.2-14.25 5.45 31.6-3.6 40.95 0.1 0.6-0.95-2.05 0.2 2.35-10.45 6.1-10.15 6.95v0.2l-3.2 12.65 0.05 0.25h-0.1l-19.35 0.45v0.15l-0.15-0.1-29.2-15.45 0.05 0.2-0.15-0.15-15.1-22.85-4.95-23.2-0.95-1 0.6-0.25 0.05-0.05 11.6-5 5.05-29.55 1.15-0.35 42.8-12.2m27.25 57.4 0.05-0.4 2.7-33m-2.7 33 0.05 0.35v0.05l5.7 24.9-0.85-1.45m-4.95-23.45 0.1-0.05m-20.3 15.6v-1.95l5.35-2.4 0.1-0.05 14.75-11.15m-14.8 11.2 19.95 14.6m-19.95-14.6h-0.05m0.05 0 0.05-0.05m-4.85 7.45-0.6-3.05v2.4m-0.35-4.25 0.35 1.85m-17.85 36.85-0.15 0.05m-1.85-11.7 2 11.65m17.55-13.6 0.05-1.15 0.25-19.7m-0.25 19.7 0.1 1.15 1.7 12.9-0.05 0.25m-1.8-13.15-17.6 1.75m18.5-21.95 4.15 20.25m-72.1-47.85 1.1 1.25-1.35-2.3 0.25 1.05m-0.25-1.05-0.1-0.2m0.05-0.05 0.05 0.25m19.25 32.3-0.4-0.3-4.55-7.7-12.95-22m19.05 44.75-1.15-14.75 9.9-8.9m-9.9 8.9 16.95 11.15" fill="none" stroke="#000" stroke-linecap="round" stroke-linejoin="round" stroke-opacity=".50196"/>
<path d="m294.3 164.3 0.6 0.65" fill="none" stroke="#000" stroke-linecap="round" stroke-linejoin="round" stroke-opacity=".50196"/>
<path d="m276.8 138.15 2.35-8.8 2.9 0.1q8.7 0 14.8-4.3l0.9-0.7q4.4-3.4 5.1-7.9l0.15-1.85q0-6.15-6.15-10.45-3.3-2.3-7.3-3.4l-2.65-0.55 1.45-5.35q3.2 0.4 6.15 1.35 5.3 1.6 9.65 4.65 9.15 6.45 9.15 15.55l-0.2 2.75q-1.1 6.7-7.65 11.8l-1.3 0.95q-9.15 6.45-22.05 6.45l-5.3-0.3" fill="#ffd9d9" fill-rule="evenodd"/>
<path d="m276.8 138.15q-9.55-1.05-16.75-6.15l-2.4-1.85q-6.75-5.85-6.75-13.65 0-9.1 9.15-15.55 9.15-6.4 22.05-6.4l6.25 0.4-1.45 5.35-4.85-0.35q-8.7 0-14.85 4.3t-6.1 10.45q-0.05 4.9 3.95 8.65l2.15 1.8q5.1 3.55 11.95 4.2l-2.35 8.8" fill="#ffecec" fill-rule="evenodd"/>
<path d="m285.95 103.85 0.6-2.25 1.45 0.4-2.05 1.85" fill="#e7f7fe" fill-rule="evenodd"/>
<path d="m280.05 126.1q-7.2-0.2-12.25-3.8l-1.05-0.8q-4.15-3.5-4.1-8.2 0-5.25 5.3-8.85 5.3-3.65 12.75-3.6l5.85 0.75-0.6 2.25-5.9 22.25" fill="#ffecec" fill-rule="evenodd"/>
<path d="m280.05 126.1 5.9-22.25 2.05-1.85q2.9 0.95 5.35 2.65 5.2 3.75 5.15 9l-0.15 1.55q-0.65 3.85-4.45 6.75l-0.75 0.55q-5.3 3.65-12.7 3.6h-0.4" fill="#ffd9d9" fill-rule="evenodd"/>
<path d="m307.35 104.6 9.35-69.6m-49.85 66.8-7.2-43.9" fill="none" stroke="#fff" stroke-linecap="round" stroke-linejoin="round" stroke-width="1.5"/>
<path d="m284.55 55.8 0.4-13.25m1.55 69.95 2.35-11.75m-37.55-30.1-0.35-3.1m3.1 24.6-0.4-6.65m27.75 18.8 1.2-19.55m-26.6 22.25-1.15-10.95m-1.95-14.45-0.8-4.3m30.9 3.15 0.75-14.45m-1.95 66.05 3.9-16.05" fill="none" stroke="#fff" stroke-linecap="round" stroke-linejoin="round" stroke-width="1.5"/>
</g>
<g id="b" transform="translate(-11.7,27.1)">
<path d="m15.05 37.1v-52.05l-3.35-3.75v-8.4h5.8v64.2h-2.45" fill="#3a3a32" fill-rule="evenodd"/>
<path d="m11.7-18.7 3.35 3.75v52.05h-3.35v-55.8m1.55 3.75v52.05-52.05" fill="#6c6c5b" fill-rule="evenodd"/>
<path d="m13.25 37.1v-52.05" fill="none" stroke="#cfd3c2" stroke-linecap="round" stroke-linejoin="round"/>
</g>
<g id="a" transform="translate(-269.8,-247.5)">
<path d="m294.05 247.7h0.45l-0.15 5.3-0.2 8.4-1.95 0.1q-5.45-8.3 1.85-13.8m-0.5 36.85-0.1 5.3-5.05 0.2q-8.75-6.45 1.85-13.75l3.55-0.15-0.25 8.4m-18.1 0.8-5.45 0.25 0.25-8.4 7.3-0.35q6.8 3.25-2.1 8.5m5.8-23.4-10.65 0.5 0.25-9.1 9.35-0.4 0.1-4.6 4.4-0.2q5 7.2-3.45 13.8" fill="#d58f1e" fill-rule="evenodd"/>
<path d="m294.35 253 4.3-0.2-0.8 31.55-4.3 0.2 0.25-8.4-3.55 0.15-0.95 0.05 0.35-14.75 2.55-0.1 1.95-0.1 0.2-8.4" fill="#8f6114" fill-rule="evenodd"/>
<path d="m288.4 290.05-8 0.4 0.1-5.3-5.05 0.2q8.9-5.25 2.1-8.5l11.75-0.5 0.95-0.05q-10.6 7.3-1.85 13.75m1.25-28.45-8.4 0.35q8.45-6.6 3.45-13.8l9.35-0.45q-7.3 5.5-1.85 13.8l-2.55 0.1" fill="#f3c55a" fill-rule="evenodd"/>
<path d="m294.05 247.7h0.45l-0.15 5.3 4.3-0.2m-0.8 31.55-4.3 0.2-0.1 5.3-5.05 0.2-8 0.4 0.1-5.3-5.05 0.2-5.45 0.25 0.25-8.4 7.3-0.35 11.75-0.5 0.35-14.75-8.4 0.35-10.65 0.5 0.25-9.1 9.35-0.4 0.1-4.6 4.4-0.2 9.35-0.45z" fill="none" stroke="#5f3707" stroke-linecap="round" stroke-linejoin="round" stroke-width=".4"/>
</g>
</defs>
</svg>
