<?xml version="1.0" encoding="UTF-8"?>
<svg version="1.1" viewBox="0 0 81.2 128.05" xmlns="http://www.w3.org/2000/svg" xmlns:cc="http://creativecommons.org/ns#" xmlns:dc="http://purl.org/dc/elements/1.1/" xmlns:rdf="http://www.w3.org/1999/02/22-rdf-syntax-ns#" xmlns:xlink="http://www.w3.org/1999/xlink">
<metadata>
<rdf:RDF>
<cc:Work rdf:about="">
<dc:format>image/svg+xml</dc:format>
<dc:type rdf:resource="http://purl.org/dc/dcmitype/StillImage"/>
</cc:Work>
</rdf:RDF>
</metadata>
<g transform="translate(-254.8 -145.5)">
<use transform="translate(254.8,145.5)" width="81.199997" height="128.05" xlink:href="#a"/>
</g>
<defs>
<g id="a" transform="translate(-254.8,-145.5)">
<path d="m333.05 262.6-23.85-40.65 2.5-1 11.15 19.9 3.55-1.4 9.35 16.85-2.65 1.85 1.6 2.35-1.65 2.1m-10.2-21.75 10.25 17.3-10.25-17.3m-6.2 28.7q7.65-12.05 3.1-20.35l7.65 12.95-10.75 7.4" fill="#817654" fill-rule="evenodd"/>
<path d="m333.05 262.6q-1.8 1.5-4.6 1.25l-1.05-1.7-7.65-12.95q4.55 8.3-3.1 20.35l-0.55 0.4-4.8 3.35-2.1-2.95-0.15-3.1 6.7-4.9-3.55-7.6-3.8 0.35-0.05-0.05-7.2 1.5-1.2-2.3 1.2-3.95 16.15-5.3-1-1.7-10.85-18.15 3.75-3.2 23.85 40.65m-13.75-14.2-2-3.4 2 3.4" fill="#9e936b" fill-rule="evenodd"/>
<path d="m316.3 243.3 1 1.7-16.15 5.3-1.2 3.95-2.65-4.85 19-6.1m-7.9 11.8 3.8-0.35 3.55 7.6-6.7 4.9 0.15 3.1-2.4-3.7 5.2-4.8-3.6-6.75" fill="#c2bba3" fill-rule="evenodd"/>
<path d="m327.4 262.15 1.05 1.7q2.8 0.25 4.6-1.25l1.65-2.1-1.6-2.35m-27.65-33 10.85 18.15 1 1.7m5.55-4.15-11.15-19.9m11.15 19.9 3.55-1.4 9.35 16.85-2.65 1.85m-23.9 12.2 2.1 2.95 4.8-3.35m11.3-7.8-10.75 7.4m-16.7-15.3 1.2 2.3 7.2-1.5 0.05 0.05 3.6 6.75-5.2 4.8 2.4 3.7m-9.25-16.1-2.65-4.85 19-6.1" fill="none" stroke="#000" stroke-linecap="round" stroke-linejoin="round" stroke-opacity=".30196" stroke-width=".5"/>
<path d="m317.3 245 2 3.4m13.8 9.75-10.25-17.3m-3.1 8.35 7.65 12.95z" fill="none" stroke="#000" stroke-linecap="round" stroke-linejoin="round" stroke-opacity=".30196" stroke-width=".05"/>
<path d="m286 233.75-1-1.45 34.15-16.95 3.2 5.15-30.6 12.85-5.75 0.4" fill="#978a62" fill-rule="evenodd"/>
<path d="m322.35 220.5 0.5 0.75-15 7.05-4.5 2.1-14.8 6.9-2.55-3.55 5.75-0.4 30.6-12.85" fill="#b3a888" fill-rule="evenodd"/>
<path d="m286 233.75-1-1.45 34.15-16.95 3.2 5.15 0.5 0.75-15 7.05m-4.5 2.1-14.8 6.9-2.55-3.55" fill="none" stroke="#000" stroke-linecap="round" stroke-linejoin="round" stroke-opacity=".30196" stroke-width=".5"/>
<path d="m307.85 228.3-4.5 2.1" fill="none" stroke="#000" stroke-linecap="round" stroke-linejoin="round" stroke-opacity=".30196" stroke-width=".05"/>
<path d="m287.45 148.5-7.65 7.1-1.6-0.75q4.6-3.2 9.25-6.35m-12.4 13.95-0.1-0.25h0.7q-0.3 0.05-0.6 0.25m2-0.35 0.05 0.1h-0.1v-0.1h0.05m12.25 11.75 0.05 0.2h-0.05l-0.1-0.1 0.1-0.1" fill="#f0d84f" fill-rule="evenodd"/>
<path d="m287.7 148.55-0.15-0.15 0.15-0.1v0.25" fill="#e7c714" fill-rule="evenodd"/>
<path d="m272.65 166.05-0.05 0.3-0.4 0.5-0.6 0.1-0.45-0.4v-0.65l0.45-0.5 0.6-0.1 0.4 0.4 0.05 0.35m2.5-1.95 0.7-0.1 0.45 0.4v0.7l-0.45 0.6-0.65 0.1-0.55-0.5q-0.15-0.3 0-0.65l0.5-0.55" fill-rule="evenodd"/>
<path d="m294.35 173.15 0.05 0.05-0.25 0.05 0.2-0.1m-21.6-1.3 1.35 0.05q0.8 0 1.6-0.4l0.55 1.15 1.95-1.2-1-1.45 0.05-0.05q1.5-2.05 2.1-0.7 0.55 1.3-0.7 3.35-1.25 2-2.55 2.75-1.35 0.75-2.65 0.35-1.1-0.35-2.4-1.65l1.7-2.2" fill="#d77a1e" fill-rule="evenodd"/>
<path d="m271.05 174.05-0.65-0.6q-1.7-1.85 0.2-1.75l2.15 0.15-1.7 2.2" fill="#b16518" fill-rule="evenodd"/>
<path d="m300.05 177.35 0.6-0.05q1.15 1.65 0.55 7.55l-0.1 1.05-3.75 6-0.6 3.5-1.45 1.95-7.55 0.1-0.45 0.1q-5.3 0.55-8.65-0.95v-0.05q2.95 0.9 7.45-1.55 5.75-1.95 12.45-7.85l0.55-1.55 0.2-0.65q1.55-5 0.75-7.6" fill="#bbc817" fill-rule="evenodd"/>
<path d="m286.2 154.95 1.5-6.4v-0.25l4.65-2.55 2.25 5.45-0.5 6.7-4.75 9.2-2.4 4.6 1.3 3.2 0.8-0.75 0.1-0.1h0.2l4.8-0.8 0.25 0.2 0.4 1.9 0.65 1.6 0.85-0.35 0.55 1.05 0.4 0.9-7.75 4.9-1.5-0.6-0.05 0.1-0.2-0.2-0.45-0.05-2.25-0.3-13.4 12.75-2.35-9.55-0.75-3.1 4.9-4.3 3.25-0.65 1.05-0.55q2.3-1.35 3.65-3.6l0.85-1.85 0.1-0.4 2.2-1.2 0.05-4.55 0.7-1.5 0.6-1.45 2.5-7.3-2.2-0.2m25.05 56.9 1 3.2 3.95 3.7-1.7 6.65-6.25 2.55-0.5 2.15-7.05-0.4-4.25 1.6-0.7-1.85-3.2 2.1-2.55-0.15 0.05-0.45 0.15-6.1 1.75-4.15-12.8-20.45-0.3-2.15-0.2-1.5q3.35 1.5 8.65 0.95l9.6 14.1-0.05 7.4 5 6.2 0.45 0.5 1.5-3.95 0.1-5.55v-0.2l-4.7-6.3-2.75-4-0.1-0.55 0.4-9.8 0.6-3.5 3.25-5.2 2.5 3.6 1.65 14.85 6.5 6.7m-32.6-15.3-1-1.35 8.4-5.7 6.1-4.15 6.65-1.15 0.5 0.75-0.2 0.65-0.55 1.55q-6.7 5.9-12.45 7.85-4.5 2.45-7.45 1.55m2.7-21-0.75 3.45-0.05 0.25 0.35 1.25-0.35-1.25 0.05-0.25-2.65-0.05 2.65 0.05 0.75-3.45m-8 11.3-1.35 0.55 1.35-0.55 0.1-0.1-0.1-0.15v0.25m-0.75-4.4q-0.4 1.7 0.3 3.25v0.05l0.45 0.85-0.45-0.85v-0.05q-0.7-1.55-0.3-3.25m13.7-13.55-1.75 1.05 1.75-1.05m1.95-4.75 1.1 2.95-1.1-2.95m1.05 25.1q-0.75 1.35-2 1.15-1.1 0.45-1.25-0.9 0.15 1.35 1.25 0.9 1.25 0.2 2-1.15m-1.55-6.5 0.25 0.1-0.25-0.1m4.85-6.7-1.4 0.5 1.4-0.5m2.85 0.9-4.1 1.45 4.1-1.45m-7.2-2.05q-8.8 9.2-14.8 11.85 6-2.65 14.8-11.85m20.55 50.85-0.55 2.2 0.55-2.2m-15.4-2.6-0.2-0.35 0.2 0.35m2.35 6.3-0.9-2.45 0.9 2.45m4.95 0.25 1.6-3.95-1.6 3.95m-1.25-3.1-2.05 1.2 2.05-1.2" fill="#beb99a" fill-rule="evenodd"/>
<path d="m294.1 157.9-0.35 5.45-1.15 5.6 1.75 4.2-0.2 0.1-1.75-1.2-0.05-0.15v0.15l-1.75 0.1-1.3 1.7-0.15 0.2-0.1 0.1-0.8 0.75-1.3-3.2 2.4-4.6 4.75-9.2m2.75 19.75 3.2-0.3q0.8 2.6-0.75 7.6l-0.5-0.75-6.65 1.15-6.1 4.15-8.4 5.7-0.95-1.3 11.25-10.95 0.05-0.1 1.5 0.6 7.75-4.9-0.4-0.9m3.8-0.35 2.55 0.9 4.45 7.95-0.55 12.7 4.15 13-6.5-6.7-1.65-14.85-2.5-3.6 0.5-0.8 0.1-1.05q0.6-5.9-0.55-7.55m-17.55-10.85 2.2-2.55-0.7 1.5-0.05 4.55-2.2 1.2 0.6-2.45 0.15-2.25m6.25 0.65 0.95 2.4-0.95-2.4m-2.05 30.45 0.45-0.1 7.55-0.1 1.05 7.85-0.15 0.1 0.3 1.1v0.15l0.15 1.25 0.1 0.5 0.1 0.9 0.1 0.3-0.05 2.15-9.6-14.1m19.55 5.9 0.25-4.6-0.25 4.6" fill="#8b835a" fill-rule="evenodd"/>
<path d="m289.3 173.85 1.3-1.7 1.75-0.1h0.05l1.75 1.2-4.8 0.8-0.05-0.2" fill="#696345" fill-rule="evenodd"/>
<path d="m287.45 148.5 0.1-0.1 0.15 0.15-1.5 6.4-4.3 7 2.15-3.5 1.85 4-0.6 1.45-2.2 2.55-0.25-1.95-0.95-2.55q-1.25-2.25-3.9-4.55l-0.05-0.1 1.85-1.7 7.65-7.1m-18.9 34-1.6 1.45-2.95-6.95-0.15-0.3v-0.05l0.3-5.6 1.25-3.9 0.6-1.95 1.55-3.2 7.4 0.2 0.1 0.25-0.1 0.05q-1.1 0.6-1.5 1.75-0.25 0.8-0.1 1.55l0.15 0.65v0.05l0.35 0.6q0.4 0.6 1.15 0.85 1.05 0.3 2.15-0.3 1.05-0.6 1.45-1.8t0-2.25q-0.45-1.1-1.5-1.4l-0.05-0.1 2.1-0.3 1.05 5.95 1.4 0.5 1.5-1.8-0.15 2.25-0.6 2.45-0.1 0.4-0.85 1.85q-1.35 2.25-3.65 3.6l-1.05 0.55-3.25 0.65-2.75-0.5q-1.65-0.4-3.15-2.95-1-1.8-1.15-3.5 0.15 1.7 1.15 3.5 1.5 2.55 3.15 2.95l2.75 0.5-4.9 4.3m14.3-26.75-1.45 4 1.45-4m-10.6 9.6-1.15-1.15q-1.25-0.9-2.25-0.3-1.05 0.55-1.3 2.3-0.25 1.7 0.2 2.75t1.45 1.4q1.05 0.3 2.15-0.3 0.95-0.6 1.35-1.75l0.2-0.85v-0.65l-0.2-0.65-0.05-0.1-0.05-0.35-0.35-0.35m-5.7 2.5-0.35-1.9-0.2-0.75 0.2 0.75 0.35 1.9m6.2 4-2.15-0.15q-1.9-0.1-0.2 1.75l0.65 0.6q1.3 1.3 2.4 1.65 1.3 0.4 2.65-0.35 1.3-0.75 2.55-2.75 1.25-2.05 0.7-3.35-0.6-1.35-2.1 0.7l-1.55 1.55q-0.8 0.4-1.6 0.4l-1.35-0.05m-4.5 7.95-1.3 4.15 1.3-4.15" fill="#a49873" fill-rule="evenodd"/>
<path d="m279.8 155.6-1.85 1.7h-0.05l0.1 0.1q2.65 2.3 3.9 4.55l0.95 2.55 0.25 1.95-1.5 1.8-1.4-0.5-1.05-5.95-2.1 0.3h-0.35l-1.05 0.1h-0.7l-7.4-0.2-1.55 3.2-0.6 1.95-1.25 3.9-0.3 5.6-1.3 3.3-2.3-5.45 0.75-3.4 0.6-2.8 0.7-3.1 0.3-1.4 0.15-0.9 0.3-1.4 6.85-9.15 0.85-1.15 7.45 3.65 1.6 0.75m-11.8 5.5-0.45 0.9 0.45-0.9" fill="#b5ab8c" fill-rule="evenodd"/>
<path d="m261.6 168.3-1.65 0.05-5.15-4.4 5.35-0.1 2.45-0.05-0.3 1.4-0.7 3.1" fill="#c0b89e" fill-rule="evenodd"/>
<path d="m276.5 194.15-0.1 0.05-0.15 0.15-1.75 1.2-0.25 0.05-0.25 0.1-1.05 0.15-1.15-0.1-0.15-0.6 13.4-12.75 2.25 0.3 0.45 0.05 0.2 0.2-11.25 10.95-0.2 0.25" fill="#cdc6b1" fill-rule="evenodd"/>
<path d="m287.55 148.4-0.1 0.1-7.65 7.1-1.85 1.7h-0.05l0.1 0.1q2.65 2.3 3.9 4.55l2.15-3.5m2.15-3.5 1.5-6.4v-0.35l-0.25 0.3m0.1-0.1 0.15-0.1m-9.5 6.55 1.6 0.75m14.6 17.6v0.25m-15.75 23.15v-0.05q2.95 0.9 7.45-1.55 5.75-1.95 12.45-7.85l0.55-1.55 0.2-0.65q1.55-5 0.75-7.6m-23.35 16.55-0.2 0.25-0.1 0.05m-5.65-43 7.45 3.65m3.2 4.9 1.45-4m-10.6 9.6-1.15-1.15q-1.25-0.9-2.25-0.3-1.05 0.55-1.3 2.3-0.25 1.7 0.2 2.75t1.45 1.4q1.05 0.3 2.15-0.3 0.95-0.6 1.35-1.75l0.2-0.85v-0.65l-0.2-0.65-0.05-0.1m-7.25 1.1 0.6-1.95 1.55-3.2 0.45-0.9m-2 4.1 0.2 0.75 0.35 1.9m4.5 6.2-0.65-0.6q-1.7-1.85 0.2-1.75l2.15 0.15 1.35 0.05q0.8 0 1.6-0.4l1.55-1.55q1.5-2.05 2.1-0.7 0.55 1.3-0.7 3.35-1.25 2-2.55 2.75-1.35 0.75-2.65 0.35-1.1-0.35-2.4-1.65l1.7-2.2m4.35-9.65q1.05 0.3 1.5 1.4 0.4 1.05 0 2.25t-1.45 1.8q-1.1 0.6-2.15 0.3-0.75-0.25-1.15-0.85l-0.35-0.6v-0.05l-0.15-0.65q-0.15-0.75 0.1-1.55 0.4-1.15 1.5-1.75l0.1-0.05m-0.1-0.25-7.4-0.2m14.35-0.05 0.95 2.55 0.25 1.95 2.2-2.55 0.6-1.45m-8.8-0.25h-0.1l-0.3-0.1-1.05 0.1q-0.3 0.05-0.6 0.25m2-0.35h-0.05m-0.3 0h0.3m-1.35 0.1h-0.7m2.25 7.8 1 1.45-1.95 1.2-0.55-1.15m7.4-5.05-1.5 1.8-1.4-0.5-1.05-5.95-2.1 0.3m5.3 9.05 0.6-2.45 0.15-2.25m-9.65 11.75 3.25-0.65 1.05-0.55q2.3-1.35 3.65-3.6l0.85-1.85 0.1-0.4 2.2-1.2 0.05-4.55 0.7-1.5m-22.7-0.1-0.3 1.4m18.6 15.3-0.35-1.25 0.05-0.25-2.65-0.05m2.65 0.05 0.75-3.45m-14.4 8.4 1.3-4.15m-1.85-8.55q0.15 1.7 1.15 3.5 1.5 2.55 3.15 2.95l2.75 0.5-4.9 4.3m3.45 4.9 1.35-0.55v-0.25l-0.45-0.85v-0.05q-0.7-1.55-0.3-3.25m3.9 11.7 0.2-0.25 11.25-10.95m-0.2-0.2-0.45-0.05m-13.95 4.15 0.1-0.1-0.1-0.15m11.2-16.65 1.75-1.05m3 4.95 1.3-1.7 1.75-0.1h0.05l1.75 1.2 0.25-0.05m-2.05-1.3 0.05 0.15m-2.1-2.55-0.95-2.4-1.1-2.95m0 10.75 0.8-0.75 0.1-0.1 0.15-0.2m0.05 0.2 4.8-0.8 0.25 0.2m2.45 4.2 0.4 0.9-7.75 4.9-1.5-0.6-0.05 0.1m-1.9 6.55q0.15 1.35 1.25 0.9 1.25 0.2 2-1.15m11.3-2.55 0.5-0.8 0.1-1.05q0.6-5.9-0.55-7.55m-11.35-3.25h0.05m-0.2 0 0.05-0.1 0.1-0.1m-0.15 0.2h0.15m1.9 2.5 1.4-0.5m-4.6 6.8-0.25-0.1m-0.45 14.8 0.45-0.1 7.55-0.1m1.45-1.95 0.6-3.5 3.25-5.2m-9.25-8.3 4.1-1.45m-22 9.8q6-2.65 14.8-11.85m-9.6 21.7q3.35 1.5 8.65 0.95m9.65 11.95-0.1-0.3-0.1-0.9-0.1-0.5m-0.15-1.25v-0.15l-0.3-1.1 0.15-0.1m10.75-6.35-0.25 4.6m-2.95 12.8v-0.2m-7.25-9.25-0.1-0.2v0.25l0.1 0.95m-0.15-1.4 0.05 0.15-0.05-0.25v0.1m-0.05-0.65-0.25-0.45 0.3 1-0.05-0.55-0.1-0.55m0.2 1.4v0.25m-0.05-0.3 0.05 0.05v-0.05 0.05m2.65 3.15-2.75-4m0.95 22.05 2.05-1.2m2.85-0.85-1.6 3.95m-5.85-2.7 0.9 2.45m-2.55-6.65 0.2 0.35m14.85 4.8 0.55-2.2" fill="none" stroke="#000" stroke-linecap="round" stroke-linejoin="round" stroke-opacity=".30196" stroke-width=".05"/>
<path d="m284.05 158.45 2.15-3.5 2.2 0.2-2.5 7.3-1.85-4m3.4-9.95q-4.65 3.15-9.25 6.35m9.5-6.55 4.65-2.55 2.25 5.45-0.5 6.7-0.35 5.45-1.15 5.6 1.75 4.2 0.05 0.05m0 0.25 0.4 1.9 0.65 1.6 0.85-0.35 0.55 1.05 3.2-0.3 0.6-0.05 2.55 0.9 4.45 7.95-0.55 12.7 4.15 13 1 3.2 3.95 3.7-1.7 6.65-6.25 2.55-0.5 2.15-7.05-0.4-4.25 1.6-0.7-1.85-3.2 2.1-2.55-0.15 0.05-0.45m-11.2-32.85-0.2-1.5m0-0.05-1-1.35-0.95-1.3m-0.3 0.3-0.15 0.15-1.75 1.2-0.25 0.05-0.25 0.1-1.05 0.15m-3.65-10.25-0.75-3.1-1.6 1.45-2.95-6.95m-0.15-0.35-1.3 3.3-2.3-5.45 0.75-3.4m-0.85-7.25 2.45-0.05 0.15-0.9m7.15-10.55 0.85-1.15m24.55 46.15 1.45-1.95m0.15 16.25 0.05-2.15m-0.3-1.7-0.15-1.25m-0.15-1.35-1.05-7.85m8.6 18.7-4.7-6.3-2.55-2.95m-0.3-1.6 0.4-9.8m0 12.9 0.2 1.2m-0.05 2.15-0.05 7.4 5 6.2" fill="none" stroke="#000" stroke-linecap="round" stroke-linejoin="round" stroke-opacity=".30196" stroke-width=".5"/>
<path d="m262.45 149.6-0.1 0.05 0.05-0.15 0.05 0.1m5.1 7h0.05v0.05l-0.05-0.05" fill="#f4f0e8" fill-rule="evenodd"/>
<path d="m267.2 156.5 0.35 0.1-0.05 0.1-0.3-0.2" fill="#e1c213" fill-rule="evenodd"/>
<path d="m262.35 149.65q-0.2 6.05 3.65 7.1l1.2-0.25 0.3 0.2q-0.5 1.1-1.3 1.15h-1.15q-2.8-0.3-3.85-2.3l-0.05-0.1q-0.45-3 1.2-5.8" fill="#756b4d" fill-rule="evenodd"/>
<path d="m262.45 149.6q1 1.95 1.6 3.65 1.05 0.75 2.25 0.95l0.3 0.1h0.2q1.5 0.75 0.8 2.3h-0.05l-0.35-0.1-1.2 0.25q-3.85-1.05-3.65-7.1l0.1-0.05" fill="#b3a888" fill-rule="evenodd"/>
<path d="m266.3 154.2q-1.2-0.2-2.25-0.95-0.6-1.7-1.6-3.65l-0.05-0.1-0.05 0.15q-1.65 2.8-1.2 5.8l0.05 0.1q1.05 2 3.85 2.3m1.75-3.55h-0.15" fill="none" stroke="#000" stroke-linecap="round" stroke-linejoin="round" stroke-opacity=".30196" stroke-width=".05"/>
<path d="m280.45 150.3-0.1-0.05 0.1-0.1v0.15m-5.75 6.6h0.05-0.05" fill="#f4f0e8" fill-rule="evenodd"/>
<path d="m274.75 156.9 0.3-0.05-0.25 0.15-0.05-0.1" fill="#e1c213" fill-rule="evenodd"/>
<path d="m280.35 150.25 0.1 0.05q-0.3 6.1-4.2 6.85l-1.2-0.3-0.3 0.05h-0.05q-0.6-1.65 0.95-2.25h0.2l0.3-0.05h0.1q1.1-0.15 2.2-0.8 0.7-1.7 1.9-3.55" fill="#c2bba3" fill-rule="evenodd"/>
<path d="m275.05 156.85 1.2 0.3q3.9-0.75 4.2-6.85 1.4 2.9 0.75 5.9v0.1q-1.25 1.9-4.05 2h-0.25l-0.9-0.05q-0.85-0.1-1.2-1.25l0.25-0.15" fill="#978a62" fill-rule="evenodd"/>
<path d="m280.45 150.3v-0.15l-0.1 0.1q-1.2 1.85-1.9 3.55-1.1 0.65-2.2 0.8h-0.1m-0.35 0.05h-0.15m4.8-4.35q1.4 2.9 0.75 5.9v0.1q-1.25 1.9-4.05 2" fill="none" stroke="#000" stroke-linecap="round" stroke-linejoin="round" stroke-opacity=".30196" stroke-width=".05"/>
<path d="m270.85 152.7h0.15l-0.1 0.05-0.05-0.05" fill="#5174ae" fill-rule="evenodd"/>
<path d="m271.1 152.7-0.2 0.05 0.1-0.05h0.1" fill="#f0d84f" fill-rule="evenodd"/>
<path d="m275.55 154.35-0.45 3.3 0.8 2.65q-1.25 0.75-7.75-0.1-0.95-4.45 2.75-7.45l0.2-0.05q2.2-0.15 4.45 1.65" fill="#c0b89e" fill-rule="evenodd"/>
<path d="m278.05 158.6-1.15 1.05-0.55 0.4-0.45 0.25-0.8-2.65 0.45-3.3 0.95 0.85 1.1 1.7 0.45 1.7m-7.15-5.85q-3.7 3-2.75 7.45l-1.85-0.55q-0.9-0.4-2.05-1.4l0.2-0.45 0.15-0.2h0.1-0.1q0.55-2 1.15-2.75 1-1.6 2.7-2.1l2.4-0.05 0.05 0.05m-3.85 4.6v-0.1h-0.05l0.05 0.1" fill="#7d7351" fill-rule="evenodd"/>
<path d="m276.35 160.05 0.55-0.4 1.15-1.05 0.5 0.75v0.1l-0.45 0.95-0.35 0.6-1 0.7-0.4-1.65m-12.1-1.8q1.15 1 2.05 1.4l1.85 0.55q-0.65 0.6-0.1 1.5l-2.55-0.5q-0.95-0.25-1.65-1.35-0.45-0.5-0.4-0.9 0.1-0.35 0.8-0.7" fill="#9e936b" fill-rule="evenodd"/>
<path d="m275.9 160.3 0.45-0.25 0.4 1.65q-1.6 0.9-8.7 0-0.55-0.9 0.1-1.5 6.5 0.85 7.75 0.1" fill="#b7ad91" fill-rule="evenodd"/>
<path d="m276.35 160.05 0.55-0.4 1.15-1.05m-2.15 1.7 0.45-0.25m-10.6-5.2q-0.6 0.75-1.15 2.75" fill="none" stroke="#000" stroke-linecap="round" stroke-linejoin="round" stroke-opacity=".30196" stroke-width=".05"/>
<path d="m278.05 158.6-0.45-1.7-1.1-1.7-0.95-0.85m1.2 7.35 1-0.7 0.35-0.6 0.45-0.95v-0.1l-0.5-0.75m-7.05-5.9h0.1q2.2-0.15 4.45 1.65m-4.55-1.65h-0.15l-2.4 0.05q-1.7 0.5-2.7 2.1m-1.05 2.75h-0.1l-0.15 0.2-0.2 0.45q1.15 1 2.05 1.4l1.85 0.55m-0.1 1.5-2.55-0.5q-0.95-0.25-1.65-1.35-0.45-0.5-0.4-0.9 0.1-0.35 0.8-0.7m3.8 3.45q7.1 0.9 8.7 0" fill="none" stroke="#000" stroke-linecap="round" stroke-linejoin="round" stroke-opacity=".30196" stroke-width=".05"/>
<path d="m268.15 160.2q6.5 0.85 7.75 0.1" fill="none" stroke="#fefefe" stroke-linecap="round" stroke-linejoin="round" stroke-width=".05"/>
<path d="m272.55 153.15h0.35l-0.35 0.3v-0.3" fill="#ea9b26" fill-rule="evenodd"/>
<path d="m269.55 150.95 0.05-0.1q0.65-0.45 1.55-0.4l0.45 0.05 0.6 0.2 0.45 0.3q0.6 0.55 0.6 1.25l-0.35 0.9h-0.35q-3.75-0.3-3-2.2" fill="#b7ad91" fill-rule="evenodd"/>
<path d="m269.55 150.95q-0.75 1.9 3 2.2v0.3l-1.55 0.45q-0.9-0.1-1.5-0.6-0.65-0.55-0.65-1.2 0.05-0.7 0.7-1.15" fill="#756b4d" fill-rule="evenodd"/>
<path d="m272.9 153.15 0.35-0.9q0-0.7-0.6-1.25l-0.45-0.3-0.6-0.2-0.45-0.05q-0.9-0.05-1.55 0.4l-0.05 0.1m3.35 2.2-0.35 0.3-1.55 0.45q-0.9-0.1-1.5-0.6-0.65-0.55-0.65-1.2 0.05-0.7 0.7-1.15" fill="none" stroke="#000" stroke-linecap="round" stroke-linejoin="round" stroke-opacity=".30196" stroke-width=".05"/>
<path d="m308.8 241.95q5 3.8 5 9.65 0 5.8-5 10.3-5.05 4.5-12.15 5.05-7.25 0.5-12.25-3.3-5.05-3.8-5-9.6-0.05-5.85 5-10.35 5-4.45 12.25-4.9 7.1-0.6 12.15 3.15" fill="url(#b)" fill-rule="evenodd"/>
</g>
<radialGradient id="b" cx="0" cy="0" r="819.2" gradientTransform="matrix(.0203 -.0015 0 .0166 297.2 252.9)" gradientUnits="userSpaceOnUse">
<stop stop-color="#fff" offset="0"/>
<stop stop-color="#fff" offset=".2549"/>
<stop stop-color="#fff473" stop-opacity=".44314" offset=".28235"/>
<stop stop-color="#fffbce" stop-opacity="0" offset="1"/>
</radialGradient>
</defs>
</svg>
