<?xml version="1.0" encoding="UTF-8"?>
<svg version="1.1" viewBox="0 0 77.144 94.775" xmlns="http://www.w3.org/2000/svg" xmlns:cc="http://creativecommons.org/ns#" xmlns:dc="http://purl.org/dc/elements/1.1/" xmlns:rdf="http://www.w3.org/1999/02/22-rdf-syntax-ns#" xmlns:xlink="http://www.w3.org/1999/xlink">
<metadata>
<rdf:RDF>
<cc:Work rdf:about="">
<dc:format>image/svg+xml</dc:format>
<dc:type rdf:resource="http://purl.org/dc/dcmitype/StillImage"/>
</cc:Work>
</rdf:RDF>
</metadata>
<g transform="translate(-236.38 -154.39)">
<use transform="matrix(1.2579 -1.2305 1.2305 1.2579 232.92 160.21)" width="6.5" height="46.349998" xlink:href="#a"/>
<use transform="matrix(-1.2579 -1.2305 -1.2305 1.2579 316.98 160.21)" width="6.5" height="46.349998" xlink:href="#a"/>
<use transform="matrix(.8023 0 0 .8023 249.16 187.51)" width="35.5" height="76.849998" xlink:href="#e"/>
<use transform="matrix(.8173 0 0 .8173 245.99 175.75)" width="66.650002" height="30.75" xlink:href="#c"/>
<use transform="translate(237.6,173.65)" width="70.550003" height="30.049999" xlink:href="#d"/>
</g>
<defs>
<g id="a" transform="translate(3.05,18.2)">
<use transform="translate(-3.05,-18.2)" width="6.5" height="46.349998" xlink:href="#f"/>
</g>
<g id="f" transform="translate(3.05,18.2)">
<path d="m1.05-7.7q-1.5 16.8 2.1 35.8-0.35 0.3-1.25-0.75-4.2-16.45-3.2-35.15l2.35 0.1" fill="#fdf4ca" fill-rule="evenodd"/>
<path d="m1.9 27.35q0.9 1.05 1.25 0.75" fill="none" stroke="#c6cacf" stroke-linecap="round" stroke-linejoin="round" stroke-width=".05"/>
<path d="m3.15 28.1q-3.6-19-2.1-35.8" fill="none" stroke="#887e5e" stroke-linecap="round" stroke-linejoin="round" stroke-width=".05"/>
<path d="m-1.3-7.8q-1 18.7 3.2 35.15z" fill="none" stroke="#fff" stroke-linecap="round" stroke-linejoin="round" stroke-width=".05"/>
<path d="m-2.1-7.45q-1-0.15-0.95-0.75l1.15-0.85 2.3-0.55 2.3 0.1q0.9 0.15 0.75 0.65 0 0.55-0.9 0.95l-2.45 0.45q-1.4 0.2-2.2 0" fill="#3c5b28" fill-rule="evenodd"/>
<path d="m-2.1-7.45q0.8 0.2 2.2 0l2.45-0.45q0.9-0.4 0.9-0.95 0.15-0.5-0.75-0.65l-2.3-0.1-2.3 0.55-1.15 0.85q-0.05 0.6 0.95 0.75z" fill="none" stroke="#223316" stroke-linecap="round" stroke-linejoin="round" stroke-opacity=".70196" stroke-width=".05"/>
<path d="m1.25-17.35q-1.3 0.3-1.55-0.85 2.15-0.1 2.4 0.45-0.35 0-0.85 0.4" fill="#571f02" fill-rule="evenodd"/>
<path d="m0.35-8-1.5-0.45q-0.15-4.2 0.85-9.75 0.25 1.15 1.55 0.85-1.25 5.45-0.9 9.35" fill="#14141c" fill-rule="evenodd"/>
<path d="m0.35-8q-0.35-3.9 0.9-9.35 0.5-0.4 0.85-0.4-1.1 5.1-0.85 9l-0.9 0.75" fill="#333546" fill-rule="evenodd"/>
<path d="m0.45-7.9-1.7-2.2 2.25-1.6-1.7-2.45 2.2-2.15" fill="none" stroke="#fb3" stroke-linecap="round" stroke-linejoin="round" stroke-width=".05"/>
</g>
<g id="e" transform="translate(18,39.25)">
<path d="m2.8-1.15h0.45v9.75h-1.75q-5-6 1.3-9.75m0.45 26.25v3.75h-4.5q-7.7-4.85 1.35-9.75h3.15v6m-16 0h-4.75v-6h6.4q6.15 2.5-1.65 6m4.65-16.5h-9.4v-6.5h8.25v-3.25h3.9q4.5 5.35-2.75 9.75" fill="#d58f1e" fill-rule="evenodd"/>
<path d="m12.7-38.75h4.5l0.3 75.85h-4.5l-0.3-75.85" fill="#3a3a32" fill-rule="evenodd"/>
<path d="m7 2.6-0.3-41.35h6l0.3 75.85h-6v-34.5m2.75 34.5-0.3-75.85 0.3 75.85" fill="#6c6c5b" fill-rule="evenodd"/>
<path d="m-1.25 28.85h-7v-3.75h-4.5q7.8-3.5 1.65-6h11.2q-9.05 4.9-1.35 9.75m0.5-20.25h-7.35q7.25-4.4 2.75-9.75h8.15q-6.3 3.75-1.3 9.75h-2.25" fill="#f3c55a" fill-rule="evenodd"/>
<path d="m3.25 2.6h3.75v22.5h-3.75v-6h-4v-10.5h4v-6" fill="#8f6114" fill-rule="evenodd"/>
<path d="m2.8-1.15h0.45v3.75h3.75m0 22.5h-3.75v3.75h-11.5v-3.75h-9.25v-6h16.75v-10.5h-16.75v-6.5h8.25v-3.25h12.05" fill="none" stroke="#5f3707" stroke-linecap="round" stroke-linejoin="round"/>
<path d="m9.45-38.75 0.3 75.85" fill="none" stroke="#cfd3c2" stroke-linecap="round" stroke-linejoin="round"/>
</g>
<g id="c" transform="translate(32.8,27.1)">
<use transform="matrix(1.0027 0 0 .9992 3 -27.098)" width="30.75" height="30.35" xlink:href="#b"/>
<use transform="matrix(-1.0027 0 0 .9992 -1.95 -26.698)" width="30.75" height="30.35" xlink:href="#b"/>
</g>
<g id="b" transform="translate(0,2.35)">
<path d="m6.65-1.35 2.85-0.5 7.3-0.45h0.4l4.95 0.7 0.8 0.2 3.4 1.15 1.45 0.7 2.95 1.65q-5.2 0.15-6.2 2.25-1.05 2 0.1 3.9l1.85 2.9 0.7 1.15-0.15-0.15-2.35-2.55-1.6-1.6 1.6 1.6 2.35 2.55 0.15 0.15q-0.75 0.15-1.35 0.45-1.2 0.6-1.55 1.7-0.3 0.75-0.35 4.8-4.35-2.85-6.25-1.6-1.9 1.2-1.85 3.65 0 2.4-0.7 4.25l-1.35-0.4q-2.35-0.75-4.1-3.25l-0.1-0.4-0.05-0.35-0.1-0.35-0.25-1.15-0.05-0.2 0.05 0.2 0.25 1.15 0.1 0.35 0.05 0.35v0.3q0.05 1.65-1.75 3.7-1.85 2-7.15 1.45 1.15-2.05 1.9-4.25-0.2 1.5 0.95 1.75 3.15 0.1 3.65-2.65 0.25-1.5 0.1-3.4l-0.85-4.45-1.2-4-0.75-2-0.1-0.4-0.4-1.3 0.95 1.85 0.05 0.15 1.7 3.8q1.5 3.7 2.45 7.4l0.4 0.6q1.45 1.85 2.25 2.15l1.6-1.05 0.4-0.6 2.65-4.6q0.3-1.1-0.1-2.85t-4.5-5.65l-4.5-4.15-0.7-0.45 0.3 0.15 0.15 0.1 0.6 0.25 1.1 0.6 0.15 0.15q1.7 0.9 3.6 2.1 2.85 1.8 5.3 3.85l0.9 0.75 0.7 0.25 3.1 0.45 0.15-0.3-0.4-1.7q-0.7-1.65-2.6-3.5-1.85-1.85-3.5-2.85-1.7-1.15-3-1.8-1.35-0.7-2.7-1.25 6.15 1.8 12.6 7.9l-0.15-0.85q-0.3-1.65-0.2-3 0.1-1.25 1.4-2.05 1.25-0.85-0.55-1.85-0.8-0.55-2.35-0.95l-3.45-0.6-3.35-0.2-2.75 0.05-3.85 0.15-1.2-0.05m17.3 20.6-1.45-3.05-0.75-1.4-2.1-2.9-0.55-0.6-1.25-1.25 1.25 1.25 0.55 0.6 2.1 2.9 0.75 1.4 1.45 3.05" fill="#c60000" fill-rule="evenodd"/>
<path d="m6.65-1.35 1.2 0.05 3.85-0.15 2.75-0.05 3.35 0.2 3.45 0.6q1.55 0.4 2.35 0.95 1.8 1 0.55 1.85-1.3 0.8-1.4 2.05-0.1 1.35 0.2 3l0.15 0.85q-6.45-6.1-12.6-7.9 1.35 0.55 2.7 1.25 1.3 0.65 3 1.8 1.65 1 3.5 2.85 1.9 1.85 2.6 3.5l0.4 1.7-0.15 0.3-3.1-0.45-0.7-0.25-0.9-0.75q-2.45-2.05-5.3-3.85-1.9-1.2-3.6-2.1l-0.15-0.15-1.1-0.6-0.6-0.25-0.15-0.1-0.3-0.15 0.7 0.45 4.5 4.15q4.1 3.9 4.5 5.65t0.1 2.85l-2.65 4.6-0.4 0.6-1.6 1.05q-0.8-0.3-2.25-2.15l-0.4-0.6q-0.95-3.7-2.45-7.4l-1.7-3.8-0.05-0.15-0.95-1.85 0.4 1.3 0.1 0.4 0.75 2 1.2 4 0.85 4.45q0.15 1.9-0.1 3.4-0.5 2.75-3.65 2.65-1.15-0.25-0.95-1.75l0.85-3.25q0.95-4.65-0.05-9.35-0.85-4.15-2.55-8l-0.85-2.1 0.4 0.15 0.15-0.05 0.7-0.2 0.25-0.05 5.15-1.2m-5.15 1.2 9 0.25-9-0.25m5.15 3q-2.3-1.2-4.3-1.9l-2.1-0.7h-0.1l0.05-0.05-0.2-0.2 0.2 0.2 0.2-0.05-0.2 0.05-0.05 0.05h0.1l2.1 0.7q2 0.7 4.3 1.9m-6.4-2.6q1.85 2.35 3.75 6-1.9-3.65-3.75-6" fill="#e50000" fill-rule="evenodd"/>
<path d="m13.8 25.15q-2.25-0.35-3.45 1.8l0.15 1-10.4 0.05 0.6-1.05q5.3 0.55 7.15-1.45 1.8-2.05 1.75-3.7v-0.3l0.1 0.4q1.75 2.5 4.1 3.25m-3.45 1.8-0.65-5.05-0.1-0.1 0.1 0.1 0.65 5.05" fill-rule="evenodd"/>
<path d="m27.2 12.3-0.7-1.15-1.85-2.9q-1.15-1.9-0.1-3.9 1-2.1 6.2-2.25l-2.95-1.65-1.45-0.7-3.4-1.15-0.8-0.2-4.95-0.7h-0.4l-7.3 0.45-2.85 0.5m16.45 9.35 1.6 1.6 2.35 2.55 0.15 0.15q-0.75 0.15-1.35 0.45-1.2 0.6-1.55 1.7-0.3 0.75-0.35 4.8-4.35-2.85-6.25-1.6-1.9 1.2-1.85 3.65 0 2.4-0.7 4.25l-1.35-0.4q-2.25-0.35-3.45 1.8l0.15 1m-10.4 0.05 0.6-1.05q1.15-2.05 1.9-4.25l0.85-3.25q0.95-4.65-0.05-9.35-0.85-4.15-2.55-8l-0.85-2.1 0.4 0.15 0.15-0.05 0.7-0.2 0.25-0.05 5.15-1.2m3.85 1.45-9-0.25m16.35 10.2 1.25 1.25 0.55 0.6 2.1 2.9 0.75 1.4 1.45 3.05m-17.3-16.4 0.3 0.15 0.15 0.1 0.6 0.25 1.1 0.6 0.15 0.15q1.7 0.9 3.6 2.1 2.85 1.8 5.3 3.85m-8.7 9.4 0.05 0.2 0.25 1.15 0.1 0.35 0.05 0.35 0.1 0.4 0.65 5.05m-10.35-26.95 0.2 0.2 0.2-0.05m-0.2 0.05-0.05 0.05h0.1l2.1 0.7q2 0.7 4.3 1.9m2.5 16.6q-0.95-3.7-2.45-7.4l-1.7-3.8-0.05-0.15-0.95-1.85q-1.9-3.65-3.75-6m9.35 21.55 0.1 0.1m0.8-21.8q6.15 1.8 12.6 7.9" fill="none" stroke="#850000" stroke-linecap="round" stroke-linejoin="round" stroke-width=".05"/>
</g>
<g id="d" transform="translate(-237.6,-173.65)">
<path d="m273.55 196.45-0.9-0.1-3.55-0.95-1-0.45-1.6-0.8 0.85-5.7h12.25l1.35 6.55-0.2 0.05-2.8 0.9-1.7 0.3-2.35 0.25-0.25-1.65-0.1 1.6" fill="#edd6a3" fill-rule="evenodd"/>
<path d="m266.5 194.15 1.6 0.8 1 0.45 3.55 0.95 0.9 0.1-2.15 6.4q-2.1 1.25-6.1-0.25l1.2-8.45m7.4 2.35 2.35-0.25 1.7-0.3 2.8-0.9 0.2-0.05 1.5 7.6q-3.75 1.75-5.95-0.5l-2.6-5.6" fill="#fff" fill-rule="evenodd"/>
<path d="m273.55 196.45 0.1-1.6 0.25 1.65 2.6 5.6q2.2 2.25 5.95 0.5l-1.5-7.6-1.35-6.55h-12.25l-0.85 5.7-1.2 8.45q4 1.5 6.1 0.25l2.15-6.4 0.35 0.05" fill="none" stroke="#696663" stroke-linecap="round" stroke-linejoin="round" stroke-width=".6"/>
<path d="m263.1 186.1 4.95-2.6q6.7-1.9 12.85 0.8l1.55 0.85q0.8 0.75 1.1 2l0.15 1.3q-1.3 2.35-3.1 4.25-1.6 0.8-4.8 2.95l-4.9-0.35-4.25-3.8-0.15-0.1-3.1-2.6-0.3-2.7" fill="#8d6250" fill-rule="evenodd"/>
<path d="m263.1 186.1 4.95-2.6q6.7-1.9 12.85 0.8l1.55 0.85q0.8 0.75 1.1 2l0.15 1.3q-1.3 2.35-3.1 4.25-1.6 0.8-4.8 2.95l-4.9-0.35-4.25-3.8m-0.15-0.1-3.1-2.6-0.3-2.7" fill="none" stroke="#000" stroke-linecap="round" stroke-linejoin="round" stroke-opacity=".30196" stroke-width=".05"/>
<path d="m266.65 191.5-0.15-0.1" fill="none" stroke="#000" stroke-linecap="round" stroke-linejoin="round" stroke-opacity=".30196" stroke-width=".05"/>
<path d="m280.9 184.3 24.05-10.65m-41.55 15.15-25.35-0.8m28.45 3.4-28.9 9.05m25.5-14.35-24.5-10.55m44.95 11.6 24.6-2.05m-27.55 7.6 24.8 7.25" fill="none" stroke="#000" stroke-linecap="round" stroke-linejoin="round" stroke-opacity=".50196" stroke-width=".05"/>
<path d="m270.7 185.75 1.9-0.6 5.8 0.2q0.5 0.4 0.6 1.25-0.85 1.9-2.5 3.15l-1.25-0.1q-2.75-0.85-4.55-2.45v-1.45" fill="#fff" fill-opacity=".30196" fill-rule="evenodd"/>
<path d="m268.25 185.3 2.8-1.2q4.35-2.05 8.5 0.35 0.75 0.75 0.9 2.4-1.25 3.5-3.65 5.8l-1.9-0.15q-4-1.55-6.6-4.55l-0.05-2.65" fill="#fff" fill-opacity=".30196" fill-rule="evenodd"/>
</g>
</defs>
</svg>
