<?xml version="1.0" encoding="UTF-8"?>
<svg version="1.1" viewBox="0 0 82.5 82.5" xmlns="http://www.w3.org/2000/svg" xmlns:cc="http://creativecommons.org/ns#" xmlns:dc="http://purl.org/dc/elements/1.1/" xmlns:rdf="http://www.w3.org/1999/02/22-rdf-syntax-ns#" xmlns:xlink="http://www.w3.org/1999/xlink">
<metadata>
<rdf:RDF>
<cc:Work rdf:about="">
<dc:format>image/svg+xml</dc:format>
<dc:type rdf:resource="http://purl.org/dc/dcmitype/StillImage"/>
</cc:Work>
</rdf:RDF>
</metadata>
<g transform="translate(-234.2,-158.7)">
<use transform="translate(242.5,167.75)" width="65.800003" height="65.400002" xlink:href="#c"/>
<use transform="matrix(.9037 0 0 .9037 255.85 174.03)" width="43.900002" height="56.450001" xlink:href="#b"/>
<use transform="translate(234.2,158.7)" width="82.5" height="82.5" xlink:href="#a"/>
</g>
<defs>
<g id="c" transform="translate(.35)">
<path d="m52.8 11.9q-5-5-11.2-7.05l-4.5-1.1-1.65-0.2-3.15-0.15-4.15 0.3-3.15 0.6q-3.8 0.9-7.2 2.9-3.2 1.85-6.05 4.7l-0.6 0.6q-6 6.3-7.45 14.55-0.25 1.35-0.35 2.8-0.1 1.25-0.05 2.55-0.05 2.5 0.35 4.85 1.35 8.95 8.1 15.65 8.5 8.5 20.55 8.55 12-0.05 20.5-8.55t8.5-20.5-8.5-20.5m-6.05-8.7q4.65 2.3 8.65 6.3 9.5 9.5 9.55 22.95-0.05 13.45-9.55 22.95t-22.9 9.5q-13.5 0-23-9.5-6.95-6.95-8.8-16.05-0.7-3.3-0.7-6.9 0-1.5 0.15-2.95l0.4-3.1q1.65-9.65 8.95-16.9l0.2-0.25q2.75-2.7 5.85-4.6 4.05-2.55 8.75-3.7l4.55-0.8 3.65-0.15 4.1 0.25 2.35 0.35q4.1 0.75 7.8 2.6" fill="#e4ad99" fill-rule="evenodd"/>
<path d="m52.8 11.9q8.5 8.5 8.5 20.5t-8.5 20.5-20.5 8.55q-12.05-0.05-20.55-8.55-6.75-6.7-8.1-15.65-0.4-2.35-0.35-4.85-0.05-1.3 0.05-2.55 0.1-1.45 0.35-2.8 1.45-8.25 7.45-14.55l0.6-0.6q2.85-2.85 6.05-4.7 3.4-2 7.2-2.9l3.15-0.6 4.15-0.3 3.15 0.15 1.65 0.2 4.5 1.1q6.2 2.05 11.2 7.05" fill="#ecbaac" fill-rule="evenodd"/>
<path d="m46.75 3.2q4.65 2.3 8.65 6.3 9.5 9.5 9.55 22.95-0.05 13.45-9.55 22.95t-22.9 9.5q-13.5 0-23-9.5-6.95-6.95-8.8-16.05m-0.55-9.85 0.4-3.1" fill="none" stroke="#260000" stroke-linecap="round" stroke-linejoin="round" stroke-opacity=".30196"/>
<path d="m42.6 59.5q-4.05 1-9.8 1t-9.8-1-4.05-2.4 4.05-2.4 9.8-1 9.8 1 4.05 2.4-4.05 2.4" fill="#e4ad99" fill-rule="evenodd"/>
</g>
<g id="b" transform="translate(1.05,1.3)">
<path d="m29.4-0.55q3.45 3.4 4.2 5.55 1.2 3.1-5.55 8.95-2.85 4.5 8.45 12.7 2.9-4.05 5.1-3.15-2.75 3.2-1.8 7.05l2.45 7.35q1.85 6.65-7.55 13.25l-0.1 0.2q-8.5 5.05-22.95 2.85l-0.05-0.05q-7.4-1.4-10.5-6.8l-0.2-0.35q-2-3.6-1.55-10.9l0.65 0.4q-0.85-4.05 3.9-8.3-0.45 2.25-0.15 2.6 1.6-4.65 10.7-8.75 5-2.4 4.65-11.75-0.1-3.1-4.55-8.75 3.2 0.55 7.55 6.95 1.05-1.15 4.25-3 3.95-2.25 2.6-6.5z" fill="none" stroke="#e47a2c" stroke-linecap="round" stroke-linejoin="round" stroke-opacity=".30196" stroke-width=".6"/>
<path d="m28.55 0.45q3.15 3.35 3.85 5.4 1.15 3.05-5.05 8.75-2.6 4.45 7.7 12.45 2.65-3.95 4.65-3.1-2.5 3.1-1.6 6.9l2.25 7.2q1.65 6.5-6.95 12.95l-0.1 0.2q-7.75 4.95-20.95 2.75h-0.05q-6.8-1.4-9.6-6.65v-0.05l-0.2-0.3q-1.8-3.5-1.4-10.65l0.6 0.35q-0.75-3.95 3.55-8.1-0.4 2.2-0.1 2.55 1.45-4.55 9.75-8.55 4.55-2.35 4.25-11.5-0.1-3.05-4.15-8.55 2.9 0.55 6.9 6.8 0.95-1.1 3.9-2.95 3.6-2.15 2.35-6.35l0.4 0.45m1.7 26.3q1.15 2.05 0.45 3.15-8.2-1.35-7.55-13.95-1.6 0.85-1.9 3.15l-0.75-2.8q-0.1 2.9-0.8 4.9l-0.05 0.45q-1 3.6-8.2 6.7-3.6 1.1-5.15 4.2-1.55 3-1.25 3-0.75 2.5-0.75 7.55 0.7 4.95 7.8 7.6l0.35 0.6q0.45 0.45 1.2 0.25l0.3-0.1q9.3 1.85 15.85-2.35h0.15q9.6-6.05 6.4-14.65l-0.15-0.35q-1.15-4.5-5.9-7.45l-0.15-0.05 0.1 0.15m-2.6-18.7q-0.25 0.9-2 1.1-2.75 0.7-1.15 5.15 3.5-4.1 3.15-6.25" fill="#8d272b" fill-rule="evenodd"/>
<path d="m27.65 8.05q0.35 2.15-3.15 6.25-1.6-4.45 1.15-5.15 1.75-0.2 2-1.1m-15.55 42.65q-7.1-2.65-7.8-7.6 0-5.05 0.75-7.55-0.3 0 1.25-3 1.55-3.1 5.15-4.2 7.2-3.1 8.2-6.7l0.05-0.45q0.7-2 0.8-4.9l0.75 2.8q0.3-2.3 1.9-3.15-0.65 12.6 7.55 13.95 0.7-1.1-0.45-3.15l0.05-0.1q4.75 2.95 5.9 7.45l0.15 0.35q3.2 8.6-6.4 14.65h-0.15q-6.55 4.2-15.85 2.35 1.1-0.65-0.1-4.3-1.35-3.75-2.15-3-1.2 1.25 0.05 3.6v0.05q0.45 1.3 0.35 2.05v0.85m-0.65-28.15q-2.65-3.15-0.1-5.25l0.3-0.4q2.1-2.75 0.8-5.5l-0.1-0.5q-1.8-1.6-1.25-4.95 1.4 4.6 2.85 5.8 2.35 1.5 1.7 5.85-0.2 0.9-2.05 2.4-1.9 1.45-2.15 2.55" fill="#cb3530" fill-rule="evenodd"/>
<path d="m11.45 22.55q-2.65-3.15-0.1-5.25l0.3-0.4q2.1-2.75 0.8-5.5l-0.1-0.5q-1.8-1.6-1.25-4.95 1.4 4.6 2.85 5.8" fill="none" stroke="#e47a2c" stroke-linecap="round" stroke-linejoin="round" stroke-opacity=".6" stroke-width=".6"/>
<path d="m13.95 11.75q2.35 1.5 1.7 5.85-0.2 0.9-2.05 2.4-1.9 1.45-2.15 2.55" fill="none" stroke="#e47a2c" stroke-linecap="round" stroke-linejoin="round" stroke-opacity=".70196" stroke-width=".6"/>
<path d="m28.55 0.45q3.15 3.35 3.85 5.4 1.15 3.05-5.05 8.75-2.6 4.45 7.7 12.45 2.65-3.95 4.65-3.1-2.5 3.1-1.6 6.9l2.25 7.2q1.65 6.5-6.95 12.95l-0.1 0.2q-7.75 4.95-20.95 2.75h-0.05q-6.8-1.4-9.6-6.65v-0.05l-0.2-0.3q-1.8-3.5-1.4-10.65l0.6 0.35q-0.75-3.95 3.55-8.1-0.4 2.2-0.1 2.55 1.45-4.55 9.75-8.55 4.55-2.35 4.25-11.5-0.1-3.05-4.15-8.55 2.9 0.55 6.9 6.8 0.95-1.1 3.9-2.95 3.6-2.15 2.35-6.35l0.4 0.45" fill="none" stroke="#e47a2c" stroke-linecap="round" stroke-linejoin="round" stroke-opacity=".6" stroke-width=".6"/>
<path d="m29.9 46.3q-3.75 3.8-9.15 3.8-5.35 0-9.15-3.8-3.75-3.85-3.75-9.2 0-5.4 3.75-9.2 3.8-3.75 9.15-3.75 5.4 0 9.15 3.75 3.8 3.8 3.8 9.2 0 5.35-3.8 9.2" fill="url(#f)" fill-rule="evenodd"/>
<path d="m33.25 45.55q-1.85 1.85-4.45 1.85t-4.45-1.85-1.85-4.45 1.85-4.45 4.45-1.85 4.45 1.85q1.9 1.85 1.9 4.45t-1.9 4.45" fill="url(#e)" fill-rule="evenodd"/>
<path d="m11.7 44.15q0.8-0.75 2.15 3 1.2 3.65 0.1 4.3l-0.3 0.1h-0.8l-0.4-0.25-0.35-0.6v-0.85q0.1-0.75-0.35-2.05v-0.05q-1.05-2-0.35-3.2l0.3-0.4" fill="#7b2226" fill-rule="evenodd"/>
<path d="m15.25 41.75q-0.1-4 0.95-6.4 0.9-2.25 2.4-2.5t2.9 1.65q1.55 2 2.45 5.85m-20.8 0.8q0.2-5.4 1.9-5.6l0.3 0.05q2.05 0.3 2.85 6.75" fill="none" stroke="#7b2226" stroke-linecap="round" stroke-linejoin="round" stroke-width="2"/>
<path d="m7.15 46.15q-1.05 1.4-2.55 1.4-1.45 0-2.5-1.4-1.05-1.35-1.05-3.3 0-2 1.05-3.35 1.05-1.4 2.5-1.4 1.5 0 2.55 1.4 1.05 1.35 1.05 3.35 0 1.95-1.05 3.3" fill="url(#d)" fill-rule="evenodd"/>
</g>
<radialGradient id="f" cx="0" cy="0" r="819.2" gradientTransform="matrix(.0159 0 0 .0159 20.75 37.1)" gradientUnits="userSpaceOnUse">
<stop stop-color="#f30" offset="0"/>
<stop stop-color="#f63" stop-opacity="0" offset="1"/>
</radialGradient>
<radialGradient id="e" cx="0" cy="0" r="819.2" gradientTransform="matrix(.0078 0 0 .0078 28.8 41.1)" gradientUnits="userSpaceOnUse">
<stop stop-color="#fda944" offset="0"/>
<stop stop-color="#faac4c" stop-opacity="0" offset="1"/>
</radialGradient>
<radialGradient id="d" cx="0" cy="0" r="819.2" gradientTransform="matrix(.0044 0 0 .0058 4.6 42.85)" gradientUnits="userSpaceOnUse">
<stop stop-color="#fda944" offset="0"/>
<stop stop-color="#faac4c" stop-opacity="0" offset="1"/>
</radialGradient>
<g id="a" transform="translate(-234.2,-158.7)">
<path d="m291.05 195.05q3.75-5.1-0.3-7.05l0.8-0.7q3.25 2.15 5.5 0.45l0.55 0.25q-3.25 2.65 0.75 4.25l-1.4 1.55q-2.2-4.55-5.1 1.65l-0.8-0.4" fill="#c74724" fill-rule="evenodd"/>
<path d="m291.05 195.05q3.75-5.1-0.3-7.05m6.85 0q-3.25 2.65 0.75 4.25m-1.4 1.55q-2.2-4.55-5.1 1.65" fill="none" stroke="#f60" stroke-linecap="round" stroke-linejoin="round" stroke-opacity=".50196" stroke-width=".6"/>
<path d="m255.9 200.35 0.5-0.25q-2.25-3.05 0.2-4.25l-0.5-0.4q-1.95 1.3-3.3 0.25l-0.35 0.15q1.95 1.6-0.45 2.6l0.85 0.9q1.3-2.75 3.05 1" fill="#c74724" fill-rule="evenodd"/>
<path d="m256.4 200.1q-2.25-3.05 0.2-4.25m-4.15 0q1.95 1.6-0.45 2.6m0.85 0.9q1.3-2.75 3.05 1" fill="none" stroke="#f60" stroke-linecap="round" stroke-linejoin="round" stroke-opacity=".50196" stroke-width=".6"/>
<path d="m271.35 193.25q-5.15 4.05-11.1 4.4-5.95 0.3-9.15-3.25-3.2-3.6-1.85-9.05 1.4-5.45 6.6-9.55 5.15-4.05 11.1-4.35 5.95-0.35 9.2 3.25 3.2 3.6 1.75 9.05-1.35 5.4-6.55 9.5" fill="#f8f3ed" fill-opacity=".2" fill-rule="evenodd"/>
<path d="m249.9 183.95q1.25-4.6 5.6-8.05t9.4-3.65q5.05-0.35 7.75 2.7t1.55 7.65q-1.2 4.65-5.55 8.1-4.4 3.35-9.4 3.7-5.05 0.3-7.7-2.75-2.75-3.05-1.65-7.7" fill="#f8f3ed" fill-opacity=".2" fill-rule="evenodd"/>
<path d="m250.95 183.65q1.05-4 4.8-6.95 3.8-3 8.15-3.25t6.7 2.35q2.4 2.65 1.35 6.65t-4.85 6.95q-3.75 3-8.1 3.25-4.35 0.2-6.65-2.4-2.4-2.65-1.4-6.6" fill="#f8f3ed" fill-opacity=".6" fill-rule="evenodd"/>
<path d="m257.7 178.2q2.15-1.7 4.6-1.8 2.5-0.15 3.8 1.35 1.35 1.5 0.75 3.75t-2.75 3.95q-2.1 1.7-4.6 1.85-2.45 0.1-3.8-1.35-1.3-1.5-0.75-3.75 0.55-2.3 2.75-4" fill="#fff" fill-opacity=".8" fill-rule="evenodd"/>
<path d="m302.3 197.25q4.2 2.8 2.95 9-1.2 5.75-6.45 11.75-5.5 6.25-12.7 9.5-8 3.65-15.55 2.1l-4.15-0.85q-1.85-0.5-2.55-1.65-0.6-0.95-0.5-2.05 0.1-0.95 0.75-1.3 1.1-0.75 5.9-2.25 5-1.6 8.15-3.35 4.95-2.8 8.6-7.2l2.95-4.35q2.45-3.9 4-5.95 2.7-3.4 4.7-4.15 1.8-0.65 3.9 0.75" fill="#be9669" fill-opacity=".4" fill-rule="evenodd"/>
<path d="m304.65 229.15q-12.1 12.05-29.2 12.05t-29.2-12.05q-12.05-12.1-12.05-29.2t12.05-29.15q12.1-12.1 29.2-12.1t29.2 12.1q12.05 12.05 12.05 29.15t-12.05 29.2m-3.1-54.95q-10.8-10.8-26.15-10.75-15.3-0.05-26.1 10.75t-10.75 26.15q-0.05 15.3 10.75 26.1t26.1 10.8q15.35 0 26.15-10.8t10.8-26.1q0-15.35-10.8-26.15" fill="#fdfaf8" fill-opacity=".2" fill-rule="evenodd"/>
</g>
</defs>
</svg>
