<?xml version="1.0" encoding="UTF-8"?>
<svg version="1.1" viewBox="0 0 70.55 70.55" xmlns="http://www.w3.org/2000/svg" xmlns:cc="http://creativecommons.org/ns#" xmlns:dc="http://purl.org/dc/elements/1.1/" xmlns:rdf="http://www.w3.org/1999/02/22-rdf-syntax-ns#" xmlns:xlink="http://www.w3.org/1999/xlink">
<metadata>
<rdf:RDF>
<cc:Work rdf:about="">
<dc:format>image/svg+xml</dc:format>
<dc:type rdf:resource="http://purl.org/dc/dcmitype/StillImage"/>
</cc:Work>
</rdf:RDF>
</metadata>
<g transform="translate(-240.2,-164.7)">
<use transform="translate(240.2,164.7)" width="70.550003" height="70.550003" xlink:href="#c"/>
<use transform="translate(242.55,167.75)" width="65.800003" height="65.400002" xlink:href="#b"/>
<use transform="translate(248.35,171.95)" width="57" height="60.849998" xlink:href="#a"/>
</g>
<defs>
<g id="c" transform="translate(-240.2,-164.7)">
<path d="m297.8 222.65q9.2-9.25 9.2-22.35t-9.2-22.35q-9.25-9.25-22.35-9.2-13.1-0.05-22.35 9.2-9.2 9.25-9.2 22.35t9.2 22.35q9.25 9.2 22.35 9.25 13.1-0.05 22.35-9.25m2.65 2.3q-10.35 10.3-24.95 10.3-14.65 0-25-10.3-10.3-10.35-10.3-24.95 0-14.65 10.3-24.95 10.35-10.35 25-10.35 14.6 0 24.95 10.35 10.3 10.3 10.3 24.95 0 14.6-10.3 24.95" fill="#fff" fill-opacity=".4" fill-rule="evenodd"/>
</g>
<g id="b" transform="translate(.35)">
<path d="m52.8 11.9q-5-5-11.2-7.05l-4.5-1.1-1.65-0.2-3.15-0.15-4.15 0.3-3.15 0.6q-3.8 0.9-7.2 2.9-3.2 1.85-6.05 4.7l-0.6 0.6q-6 6.3-7.45 14.55-0.25 1.35-0.35 2.8-0.1 1.25-0.05 2.55-0.05 2.5 0.35 4.85 1.35 8.95 8.1 15.65 8.5 8.5 20.55 8.55 12-0.05 20.5-8.55t8.5-20.5-8.5-20.5m-6.05-8.7q4.65 2.3 8.65 6.3 9.5 9.5 9.55 22.95-0.05 13.45-9.55 22.95t-22.9 9.5q-13.5 0-23-9.5-6.95-6.95-8.8-16.05-0.7-3.3-0.7-6.9 0-1.5 0.15-2.95l0.4-3.1q1.65-9.65 8.95-16.9l0.2-0.25q2.75-2.7 5.85-4.6 4.05-2.55 8.75-3.7l4.55-0.8 3.65-0.15 4.1 0.25 2.35 0.35q4.1 0.75 7.8 2.6" fill="#bebcbf" fill-rule="evenodd"/>
<path d="m52.8 11.9q8.5 8.5 8.5 20.5t-8.5 20.5-20.5 8.55q-12.05-0.05-20.55-8.55-6.75-6.7-8.1-15.65-0.4-2.35-0.35-4.85-0.05-1.3 0.05-2.55 0.1-1.45 0.35-2.8 1.45-8.25 7.45-14.55l0.6-0.6q2.85-2.85 6.05-4.7 3.4-2 7.2-2.9l3.15-0.6 4.15-0.3 3.15 0.15 1.65 0.2 4.5 1.1q6.2 2.05 11.2 7.05" fill="#c6c9d2" fill-rule="evenodd"/>
<path d="m46.75 3.2q4.65 2.3 8.65 6.3 9.5 9.5 9.55 22.95-0.05 13.45-9.55 22.95t-22.9 9.5q-13.5 0-23-9.5-6.95-6.95-8.8-16.05m-0.55-9.85 0.4-3.1" fill="none" stroke="#000f26" stroke-linecap="round" stroke-linejoin="round" stroke-opacity=".30196"/>
<path d="m42.6 59.5q-4.05 1-9.8 1t-9.8-1-4.05-2.4 4.05-2.4 9.8-1 9.8 1 4.05 2.4-4.05 2.4" fill="#bebcbf" fill-rule="evenodd"/>
</g>
<g id="a" transform="translate(-248.35,-171.95)">
<path d="m287 228.6q-0.05 1.4-3.4 2.35t-8 0.95-8-0.95-3.35-2.35q0-1.35 4-1.35l8.35-0.4q4.45-0.4 7.45 0 2.95 0.4 2.95 1.75" fill="#6f68c1" fill-rule="evenodd"/>
<path d="m289 227.3q0 2.05-4.05 3.55-4.1 1.45-9.75 1.45-5.7 0-9.75-1.45-4.1-1.5-4.1-3.55t4.85-2.05l10.2-0.6q5.4-0.6 9 0t3.6 2.65m-2 1.3q0-1.35-2.95-1.75-3-0.4-7.45 0l-8.35 0.4q-4 0-4 1.35 0 1.4 3.35 2.35t8 0.95 8-0.95 3.4-2.35" fill="#847ecb" fill-rule="evenodd"/>
<path d="m289 227.3q0 2.05-4.05 3.55-4.1 1.45-9.75 1.45-5.7 0-9.75-1.45-4.1-1.5-4.1-3.55t4.85-2.05l10.2-0.6q5.4-0.6 9 0t3.6 2.65z" fill="none" stroke="#3ff" stroke-linecap="round" stroke-linejoin="round" stroke-opacity=".30196"/>
<path d="m298.65 202.3 0.05-0.05v0.05h-0.05m-23.05-18.7h0.15l-0.35 0.1 0.2-0.1" fill="#8d272b" fill-rule="evenodd"/>
<path d="m301.7 193.3h0.05v0.05l-0.05-0.05m-49.3 15.65q1.05 0.65 2.4 0.65 1.9 0 3.3-1.4 1.35-1.35 1.35-3.25 0-1.95-1.35-3.3-1.4-1.35-3.3-1.35l-1.8 0.35q0.55-5.9 7.05-8.85l0.25-0.15 3.55-1.55 0.3-0.15 1.85-2.5q0.9-0.65 0.7-2.55-0.4-1.6 2.2-1.4h0.3q2.5 1 4.85 0.4 4.15-0.95 5.4-1.75 1.95-1.7 2.65-3.75 1.95-4.3 3.25-4.5 2.75-0.9 4.4 2.3 1.75 4.4 3.5 3.5 1.8-1.9 2.35-1.15 2.2 3.85 2.05 5.3v0.1l-0.3 4.35h0.05q-1.3 5.15 1.1 5.3 6.25 2.1 3 6.7 0.2 4.6-3.3 1.9-1.05-0.65-1.4 0.7-1.4 8.3-4.3 3.85-1-1.95-1.9 1.45-3.35 15.7-6.95 9.95l-0.15-0.25q-1.85-1.3-2.3-2.85-2.45 9.9-10.35 3.3l-0.2 0.05q-2.6 3.65-1.5 4.4 2 1.35-1.6 2.15-3.7-2.7-5.05-6l-0.15-0.1q-2.45-3.95-3.8-2.05-1.2 1.55-2.85-0.65-2.85-2.95-3.3-7.2m30.85-26.4q1.15 0.3 1.6-1.15 0.45-1.5 1.45-2.55 1-1.1 0.65-1.75l-0.85-1.05-0.65-0.45q-0.95-0.55-1.6 0.75l-1.6 3.1q-0.95 1.8-0.55 2.3l1.2 0.7 0.2 0.2 0.15-0.1m11.95-0.35q-0.5-0.55-1.2-0.55t-1.25 0.55q-0.5 0.6-0.5 1.45t0.5 1.4q0.55 0.6 1.25 0.6t1.2-0.6q0.55-0.55 0.55-1.4t-0.55-1.45m-8.25 18.8h-0.1l0.1 0.05v-0.05m11.7 1.3h0.05v-0.05l-0.05 0.05m-23.05-18.7-0.2 0.1 0.35-0.1h-0.15m-3.35 7.7h-0.15q-4 0.05-6.85 2.9-2.95 2.95-2.95 7.05 0 4.05 2.95 7 2.8 2.85 6.8 2.95l0.5-0.8q1.65-2.4 3.5-4.15 2.4-2.35 5.15-3.65 0.45-0.25 1-0.45l0.05-0.9q-0.05-4.1-2.95-7.05-2.95-2.95-7.05-2.9" fill="#918cd0" fill-rule="evenodd"/>
<path d="m251.5 201.65h-0.1q0.3-6.95 6.4-10.1l0.2-0.05q3.6-2.1 4.8-2.55l0.2-0.1q2.5-1.9 2.45-4.5 0.7-3.2 5.4-2.2t7.9-1q1.55-1.75 2.65-4.05l0.15-0.3q4.3-8 9.15-1.25l0.3 0.35q1.4 2.55 2.15 2.05 2.2-2.2 4.05 0.15 1.45 1.85 2.25 6.5-0.3 1.55-0.35 3.85v0.3l-0.05 0.4 0.15 1.35 0.5 1 0.1 0.1q0.85 1.25 1.9 1.7v0.05q5.4 3.3 1.6 9.2v0.05l-1.35 1.8q0.2 2.3-0.2 5.55-0.5 4.4-1 1.85l-0.55-4-0.45-1.55-1.25-1.5-0.05 1.5q-0.15 3.45-1.1 6.15l0.15-0.25-1.75 10.7q-0.8 3.2-3.4 2.25-2.35-0.85 0.05-6.45l-0.25 0.15 0.2-0.65 0.05-0.1q1.1-4.1 0.2-6.95-1.05 4.2-4.05 9.3-0.65 1.1-0.95 2.25 2.55 3.7-1 6.05l-0.2 0.15q-3.2 0.25-1.55-5.4l-0.45-0.6-0.15-0.25-2.8-4.25-2.35 5.1-0.4 0.9q-0.8 2 0.45 3l0.45 0.35q0.65 0.65 0.65 1.55t-0.65 1.35l-1.55 0.45q-0.9 0-1.55-0.45t-0.65-1.35 0.65-1.5v-0.05q0.8-1.1 0.3-2.7l-0.15-0.15-0.15-0.2-0.3-0.45-0.15-0.15q-2.1-2.75-5.4-3.95-0.25 1.6 0.65 3.4l0.05 0.1q0.65 1.25-1.2 2.1-1 1.05-0.8 1.55l0.65 1.75q0.2 0.7-0.3 1.5-0.55 0.85-1.65 1-2.05 0.25-2.8-1.6-0.25-0.6 0.3-2.15 0.45-1.35 0.25-1.95l-1.6-2.6v-0.05l-0.95-1.05-3.1-3.4q0 1.4 0.25 2.45v0.1q3.25 4.55 1.65 8-1.35 1.2-1.85-0.45-0.4-1.4-0.05-3.85 0.15-1.2-0.35-2.25l-0.25-0.25q-9.25-10.25-8.65-14.95l0.6 0.7 0.4 0.4 0.5 0.35q0.45 4.25 3.3 7.2 1.65 2.2 2.85 0.65 1.35-1.9 3.8 2.05l0.15 0.1q1.35 3.3 5.05 6 3.6-0.8 1.6-2.15-1.1-0.75 1.5-4.4l0.2-0.05q7.9 6.6 10.35-3.3 0.45 1.55 2.3 2.85l0.15 0.25q3.6 5.75 6.95-9.95 0.9-3.4 1.9-1.45 2.9 4.45 4.3-3.85 0.35-1.35 1.4-0.7 3.5 2.7 3.3-1.9 3.25-4.6-3-6.7-2.4-0.15-1.1-5.3h-0.05l0.3-4.35v-0.1q0.15-1.45-2.05-5.3-0.55-0.75-2.35 1.15-1.75 0.9-3.5-3.5-1.65-3.2-4.4-2.3-1.3 0.2-3.25 4.5-0.7 2.05-2.65 3.75-1.25 0.8-5.4 1.75-2.35 0.6-4.85-0.4h-0.3q-2.6-0.2-2.2 1.4 0.2 1.9-0.7 2.55l-1.85 2.5-0.3 0.15-3.55 1.55-0.25 0.15q-6.5 2.95-7.05 8.85l-0.3 0.15-1.2 0.85m46.3-11.05-0.2-0.35 0.15 0.4 0.05-0.05" fill="#6f68c1" fill-rule="evenodd"/>
<path d="m300.2 207.8-2.7 4.35-0.15 0.25q0.95-2.7 1.1-6.15l0.05-1.5 1.25 1.5 0.45 1.55m-7.8 10.25-3.85 2.35q3-5.1 4.05-9.3 0.9 2.85-0.2 6.95m-8.15 4.55-5.15 0.85 2.35-5.1 2.8 4.25m-8.2 1.45-4.7-0.45-0.05-0.1q-0.9-1.8-0.65-3.4 3.3 1.2 5.4 3.95m-12.8-1.95-2.85-0.85v-0.1q-0.25-1.05-0.25-2.45l3.1 3.4" fill="#433d92" fill-rule="evenodd"/>
<path d="m282.9 182.45-1.2-0.7q-0.4-0.5 0.55-2.3l1.6-3.1q0.65-1.3 1.6-0.75l0.65 0.45 0.85 1.05q0.35 0.65-0.65 1.75-1 1.05-1.45 2.55-0.45 1.45-1.6 1.15l-0.35-0.1m12.3-0.25q0.55 0.6 0.55 1.45t-0.55 1.4q-0.5 0.6-1.2 0.6t-1.25-0.6q-0.5-0.55-0.5-1.4t0.5-1.45q0.55-0.55 1.25-0.55t1.2 0.55" fill="#c6c2e7" fill-rule="evenodd"/>
<path d="m251.5 201.65h-0.1q0.3-6.95 6.4-10.1l0.2-0.05q3.6-2.1 4.8-2.55l0.2-0.1q2.5-1.9 2.45-4.5 0.7-3.2 5.4-2.2t7.9-1q1.55-1.75 2.65-4.05l0.15-0.3q4.3-8 9.15-1.25l0.3 0.35q1.4 2.55 2.15 2.05 2.2-2.2 4.05 0.15 1.45 1.85 2.25 6.5-0.3 1.55-0.35 3.85v0.3l-0.05 0.4 0.15 1.35 0.5 1 0.1 0.1q0.85 1.25 1.9 1.7v0.05q5.4 3.3 1.6 9.2v0.05l-1.35 1.8q0.2 2.3-0.2 5.55-0.5 4.4-1 1.85l-0.55-4-2.7 4.35-1.75 10.7q-0.8 3.2-3.4 2.25-2.35-0.85 0.05-6.45l-0.25 0.15 0.2-0.65 0.05-0.1-3.85 2.35q-0.65 1.1-0.95 2.25 2.55 3.7-1 6.05l-0.2 0.15q-3.2 0.25-1.55-5.4l-0.45-0.6-0.15-0.25-5.15 0.85-0.4 0.9q-0.8 2 0.45 3l0.45 0.35q0.65 0.65 0.65 1.55t-0.65 1.35l-1.55 0.45q-0.9 0-1.55-0.45t-0.65-1.35 0.65-1.5v-0.05q0.8-1.1 0.3-2.7l-0.15-0.15-0.15-0.2-0.3-0.45-0.15-0.15-4.7-0.45q0.65 1.25-1.2 2.1-1 1.05-0.8 1.55l0.65 1.75q0.2 0.7-0.3 1.5-0.55 0.85-1.65 1-2.05 0.25-2.8-1.6-0.25-0.6 0.3-2.15 0.45-1.35 0.25-1.95l-1.6-2.6v-0.05l-0.95-1.05-2.85-0.85q3.25 4.55 1.65 8-1.35 1.2-1.85-0.45-0.4-1.4-0.05-3.85 0.15-1.2-0.35-2.25l-0.25-0.25q-9.25-10.25-8.65-14.95" fill="none" stroke="#3ff" stroke-linecap="round" stroke-linejoin="round" stroke-opacity=".30196"/>
<path d="m290.15 186.2q0.75 0 0.85-0.3 0.1-0.35-0.55-0.8-0.6-0.4-1.6-0.65l-1.8-0.3q-0.75 0-0.85 0.35t0.55 0.75q0.6 0.45 1.65 0.75l1.75 0.2m1.9 1.35-2.25 2.75q-1.4 1.4-2.8 0.85-1.45-0.6-2.35-2t-0.9-2.6 1.05-2.05q1.05-0.8 2.7-0.7 1.6 0.05 3.45 1.25 1.85 1.15 1.1 2.5" fill="#afaadd" fill-rule="evenodd"/>
<path d="m290.15 186.2-1.75-0.2q-1.05-0.3-1.65-0.75-0.65-0.4-0.55-0.75t0.85-0.35l1.8 0.3q1 0.25 1.6 0.65 0.65 0.45 0.55 0.8-0.1 0.3-0.85 0.3" fill="#d0cdeb" fill-rule="evenodd"/>
<path d="m286.8 193.6 2.15 0.45q1.35 0.35 1.65 2.35 0.25 1.95-0.95 1.2-1.25-0.75-2.8-1.45-1.5-0.7-2.15-0.65-0.7 0-0.7-0.6t1-1l1.8-0.3" fill="#7a74c7" fill-rule="evenodd"/>
<path d="m292.05 187.55-2.25 2.75q-1.4 1.4-2.8 0.85-1.45-0.6-2.35-2t-0.9-2.6 1.05-2.05q1.05-0.8 2.7-0.7 1.6 0.05 3.45 1.25 1.85 1.15 1.1 2.5z" fill="none" stroke="#3ff" stroke-linecap="round" stroke-linejoin="round" stroke-opacity=".30196"/>
<path d="m298.6 200.2q0 7.3-5.8 12.45-5.85 5.2-14.05 5.25-8.25-0.05-14.1-5.25-5.85-5.15-5.8-12.45-0.05-7.35 5.8-12.55t14.1-5.15q8.2-0.05 14.05 5.15 5.8 5.2 5.8 12.55" fill="url(#f)" fill-rule="evenodd"/>
<path d="m282.2 202.15 0.05-0.9q-0.05-1.7-0.5-3.15l4.25 3.05q-2 0.25-3.8 1" fill="#6f68c1" fill-rule="evenodd"/>
<path d="m252.15 202.15q1.05-1.1 2.6-1.1t2.65 1.1 1.1 2.65-1.1 2.65-2.65 1.1-2.6-1.1q-1.1-1.1-1.1-2.65t1.1-2.65m20.4 8.25h-0.3q-3.75 0-6.35-2.6-2.65-2.65-2.65-6.4 0-3.7 2.65-6.35 2.55-2.6 6.2-2.65h0.15q3.7 0 6.35 2.65l1.75 2.4q0.9 1.8 0.9 3.95l-0.05 1.2q-2.75 1.3-5.15 3.65-1.85 1.75-3.5 4.15" fill="#e8e7f5" fill-rule="evenodd"/>
<path d="m252.7 200.8 0.3-0.15 1.8-0.35q1.9 0 3.3 1.35 1.35 1.35 1.35 3.3 0 1.9-1.35 3.25-1.4 1.4-3.3 1.4-1.65 0-2.9-1l-0.4-0.4-0.6-0.7q-0.8-1.15-0.75-2.55 0-1.45 0.8-2.6l0.45-0.6 0.1-0.1 1.2-0.85m-0.55 1.35q-1.1 1.1-1.1 2.65t1.1 2.65q1.05 1.1 2.6 1.1t2.65-1.1 1.1-2.65-1.1-2.65-2.65-1.1-2.6 1.1m19.9 9.05q-4-0.1-6.8-2.95-2.95-2.95-2.95-7 0-4.1 2.95-7.05 2.85-2.85 6.85-2.9h0.15q4.1-0.05 7.05 2.9 1.75 1.75 2.45 3.9 0.45 1.45 0.5 3.15l-0.05 0.9q-0.55 0.2-1 0.45l0.05-1.2q0-2.15-0.9-3.95l-1.75-2.4q-2.65-2.65-6.35-2.65h-0.15q-3.65 0.05-6.2 2.65-2.65 2.65-2.65 6.35 0 3.75 2.65 6.4 2.6 2.6 6.35 2.6h0.3l-0.5 0.8" fill="#312c6b" fill-rule="evenodd"/>
<path d="m286 201.15 0.85-0.15h0.1l-1 2.35 4.2-1.45-1.1 1.9m-17 7.4 0.5-0.8q1.65-2.4 3.5-4.15 2.4-2.35 5.15-3.65 0.45-0.25 1-0.45m3.8-1q-2 0.25-3.8 1m-10.6 9.75 0.45-0.7" fill="none" stroke="#312c6b" stroke-linecap="round" stroke-linejoin="round"/>
<path d="m278.15 213.8q-2.5-2.5-2.5-6.05t2.5-6.05q2.55-2.5 6.05-2.5 3.55 0 6.05 2.5 2.55 2.5 2.55 6.05t-2.55 6.05q-2.5 2.5-6.05 2.5-3.5 0-6.05-2.5" fill="url(#e)" fill-rule="evenodd"/>
<path d="m255.1 216.9q-1.1-0.75-1.85-2.2-0.8-1.4-0.7-2.75t1-1.8q0.9-0.5 2.1 0.2 1.1 0.7 1.9 2.1 0.75 1.45 0.65 2.85-0.1 1.3-1 1.8l-2.1-0.2" fill="url(#d)" fill-rule="evenodd"/>
<path d="m270.85 193.9q-5.15 4.05-11.1 4.4-5.95 0.3-9.15-3.25-3.2-3.6-1.85-9.05 1.4-5.45 6.6-9.55 5.15-4.05 11.1-4.35 5.95-0.35 9.2 3.25 3.2 3.6 1.75 9.05-1.35 5.4-6.55 9.5" fill="#f8f3ed" fill-opacity=".2" fill-rule="evenodd"/>
<path d="m249.4 184.6q1.25-4.6 5.6-8.05t9.4-3.65q5.05-0.35 7.75 2.7t1.55 7.65q-1.2 4.65-5.55 8.1-4.4 3.35-9.4 3.7-5.05 0.3-7.7-2.75-2.75-3.05-1.65-7.7" fill="#f8f3ed" fill-opacity=".2" fill-rule="evenodd"/>
<path d="m250.45 184.3q1.05-4 4.8-6.95 3.8-3 8.15-3.25t6.7 2.35q2.4 2.65 1.35 6.65t-4.85 6.95q-3.75 3-8.1 3.25-4.35 0.2-6.65-2.4-2.4-2.65-1.4-6.6" fill="#f8f3ed" fill-opacity=".6" fill-rule="evenodd"/>
<path d="m257.2 178.85q2.15-1.7 4.6-1.8 2.5-0.15 3.8 1.35 1.35 1.5 0.75 3.75t-2.75 3.95q-2.1 1.7-4.6 1.85-2.45 0.1-3.8-1.35-1.3-1.5-0.75-3.75 0.55-2.3 2.75-4" fill="#fff" fill-opacity=".8" fill-rule="evenodd"/>
<path d="m293.2 201.3q2.7-3.4 4.7-4.1 1.8-0.7 3.9 0.7 4.2 2.8 2.95 9-1.2 5.75-6.45 11.75-5.55 6.25-12.7 9.5-8.05 3.65-15.5 2.1l-4.2-0.85q-1.85-0.5-2.55-1.65-0.6-0.95-0.5-2 0.1-1 0.75-1.35 1.15-0.7 5.9-2.25 4.95-1.6 8.15-3.35 4.9-2.75 8.6-7.15l2.95-4.4q2.45-3.9 4-5.95" fill="#7c7cb8" fill-opacity=".50196" fill-rule="evenodd"/>
<path d="m292.35 199.1-0.05 0.2-1.45-0.8q2.75-3.8 0.55-7.85l1-0.15q1.5 4.75 5.65 2.8l0.45 2.8-0.2-0.1q-4.95-2.55-5.95 3.1" fill="#b0abdb" fill-rule="evenodd"/>
<path d="m292.35 199.1q1-5.65 5.95-3.1l-0.1 0.5q-3.9-2-5.25 2.7l-0.6-0.1" fill="#6258b8" fill-rule="evenodd"/>
</g>
<radialGradient id="f" cx="0" cy="0" r="819.2" gradientTransform="matrix(.0247 0 0 .022 278.7 200.15)" gradientUnits="userSpaceOnUse">
<stop stop-color="#c6c2e7" offset="0"/>
<stop stop-color="#c6c2e7" stop-opacity="0" offset="1"/>
</radialGradient>
<radialGradient id="e" cx="0" cy="0" r="819.2" gradientTransform="matrix(.0106 0 0 .0106 284.2 207.75)" gradientUnits="userSpaceOnUse">
<stop stop-color="#67f1f8" offset="0"/>
<stop stop-color="#7eeef7" stop-opacity="0" offset="1"/>
</radialGradient>
<radialGradient id="d" cx="0" cy="0" r="819.2" gradientTransform="matrix(.0027 -.0014 .0023 .0043 255.4 213.6)" gradientUnits="userSpaceOnUse">
<stop stop-color="#67f1f8" offset="0"/>
<stop stop-color="#7eeef7" stop-opacity="0" offset="1"/>
</radialGradient>
</defs>
</svg>
