<?xml version="1.0" encoding="UTF-8"?>
<svg version="1.1" viewBox="0 0 78.35 78.35" xmlns="http://www.w3.org/2000/svg" xmlns:cc="http://creativecommons.org/ns#" xmlns:dc="http://purl.org/dc/elements/1.1/" xmlns:rdf="http://www.w3.org/1999/02/22-rdf-syntax-ns#" xmlns:xlink="http://www.w3.org/1999/xlink">
<metadata>
<rdf:RDF>
<cc:Work rdf:about="">
<dc:format>image/svg+xml</dc:format>
<dc:type rdf:resource="http://purl.org/dc/dcmitype/StillImage"/>
</cc:Work>
</rdf:RDF>
</metadata>
<g transform="translate(-241.8,-179.8)">
<use transform="translate(248.2,186.95)" width="65.800003" height="65.400002" xlink:href="#e"/>
<use transform="translate(241.8,179.8)" width="78.349998" height="78.349998" xlink:href="#d"/>
<use transform="translate(250.2,190.8)" width="59.950001" height="53.349998" xlink:href="#a"/>
<use transform="translate(254.05,188.35)" width="29.5" height="26.25" xlink:href="#b"/>
</g>
<defs>
<g id="e" transform="translate(.35)">
<path d="m52.8 11.9q-5-5-11.2-7.05l-4.5-1.1-1.65-0.2-3.15-0.15-4.15 0.3-3.15 0.6q-3.8 0.9-7.2 2.9-3.2 1.85-6.05 4.7l-0.6 0.6q-6 6.3-7.45 14.55-0.25 1.35-0.35 2.8-0.1 1.25-0.05 2.55-0.05 2.5 0.35 4.85 1.35 8.95 8.1 15.65 8.5 8.5 20.55 8.55 12-0.05 20.5-8.55t8.5-20.5-8.5-20.5m-6.05-8.7q4.65 2.3 8.65 6.3 9.5 9.5 9.55 22.95-0.05 13.45-9.55 22.95t-22.9 9.5q-13.5 0-23-9.5-6.95-6.95-8.8-16.05-0.7-3.3-0.7-6.9 0-1.5 0.15-2.95l0.4-3.1q1.65-9.65 8.95-16.9l0.2-0.25q2.75-2.7 5.85-4.6 4.05-2.55 8.75-3.7l4.55-0.8 3.65-0.15 4.1 0.25 2.35 0.35q4.1 0.75 7.8 2.6" fill="#bed399" fill-rule="evenodd"/>
<path d="m52.8 11.9q8.5 8.5 8.5 20.5t-8.5 20.5-20.5 8.55q-12.05-0.05-20.55-8.55-6.75-6.7-8.1-15.65-0.4-2.35-0.35-4.85-0.05-1.3 0.05-2.55 0.1-1.45 0.35-2.8 1.45-8.25 7.45-14.55l0.6-0.6q2.85-2.85 6.05-4.7 3.4-2 7.2-2.9l3.15-0.6 4.15-0.3 3.15 0.15 1.65 0.2 4.5 1.1q6.2 2.05 11.2 7.05" fill="#c6e0ac" fill-rule="evenodd"/>
<path d="m46.75 3.2q4.65 2.3 8.65 6.3 9.5 9.5 9.55 22.95-0.05 13.45-9.55 22.95t-22.9 9.5q-13.5 0-23-9.5-6.95-6.95-8.8-16.05m-0.55-9.85 0.4-3.1" fill="none" stroke="#002600" stroke-linecap="round" stroke-linejoin="round" stroke-opacity=".30196"/>
<path d="m42.6 59.5q-4.05 1-9.8 1t-9.8-1-4.05-2.4 4.05-2.4 9.8-1 9.8 1 4.05 2.4-4.05 2.4" fill="#bed399" fill-rule="evenodd"/>
</g>
<g id="d" transform="translate(-241.8,-179.8)">
<path d="m308.7 246.7q-11.45 11.45-27.7 11.45-16.3 0-27.75-11.45-11.45-11.5-11.45-27.75t11.45-27.7 27.75-11.45q16.25 0 27.7 11.45t11.45 27.7-11.45 27.75m-2.9-2.55q10.25-10.3 10.25-24.8 0-14.6-10.25-24.85-10.3-10.25-24.85-10.25t-24.8 10.25-10.25 24.85q0 14.5 10.25 24.8 10.25 10.25 24.8 10.25t24.85-10.25" fill="#fdfaf8" fill-opacity=".4" fill-rule="evenodd"/>
<path d="m299.6 220q2.7-3.4 4.7-4.1 1.8-0.7 3.9 0.7 4.2 2.8 2.95 9-1.2 5.75-6.45 11.75-5.55 6.25-12.7 9.5-8.05 3.65-15.5 2.1l-4.2-0.85q-1.85-0.5-2.55-1.65-0.6-0.95-0.5-2 0.1-1 0.75-1.35 1.15-0.7 5.9-2.25 4.95-1.6 8.15-3.35 4.9-2.75 8.6-7.15l2.95-4.4q2.45-3.9 4-5.95" fill="#87a848" fill-opacity=".30196" fill-rule="evenodd"/>
</g>
<g id="a" transform="translate(.15 .5)">
<use transform="translate(-.15 -.5)" width="59.950001" height="53.349998" xlink:href="#c"/>
</g>
<g id="c" transform="translate(.15 .5)">
<path d="m44.9 1.25 0.25 0.1q1.95 0.8 2.95 2.25l0.15 0.2-1.7 4.65-6.6 4.45-8.7 2.45-8.6 1.05q1.2-0.15 2.55 0l0.5 0.05 2.75 0.4q3.7 0.4 6.65-1.65 2.35 0.15 4.85-0.8 2 1.55 1.4 3.35-0.7 1.9-4.1 3.1l3.8-0.2q1.9 1.05 1.45 2.65-0.35 1.15-1.75 1.6 3.55 2.3-0.9 4.2-0.45 5.05-13.55 6.9l-2.7 0.5q-2.65 0.55-2.1 5.3l0.05 0.4 0.15 0.3 1.25 2.05 1.95 4.15 5 1.8 3.8-0.95q-0.75 1.75-4.1 1.6l-0.65 0.2q-3-0.2-6-2.05-3.65-1.05-7.05-6.6-2.25-5.7-0.1-7.55 3.5-2.85 4.5-6.35l-0.1-0.6q0.35-7.95-2.25-9.35-3.9-0.6-1.95-2.65-9.1-3-5.6-7.9 5.4-3.75 10.1-4.95 8.15-2.5 14.75-2.55l0.4 0.05q4.45 0 7.5 1.1l1.75-0.7m-9.25 8.7q5.5-1.35 8.15-3.05 2.95-1.95 0.55-3.2-2.45-1.25-8.8-1.05l-1.35 0.05q-5.7 0.25-11.6 1.6-6.6 1.45-9.6 3.4-2.95 1.9-0.5 3.15l0.2 0.1 0.25 0.1q1.6 0.65 4.7 0.85l0.35 0.05h3.3q6.35-0.2 12.95-1.65l1.4-0.35m-6.35 1.95q-11.45 1.8-2.25 1.5 6.6 0.15 10.8-1.9 8.05-3.25 4.6-3.15-4.65 2.55-13.1 3.55h-0.05" fill="#f5efd5" fill-opacity=".78824" fill-rule="evenodd"/>
<path d="m48.25 3.8 0.55 1.2 0.1 0.25q3.55 3.1-0.9 6.15 5.1 3.35 0 6.15l0.05 2.2-1.1 6.55-3.45 5.75-4.4 3.35-7.95 1.9-3.7 3.55q-2.25 6.6 3.95 8.7l0.15 0.05h0.05l2.2-0.35-0.1 0.3-3.8 0.95-5-1.8-1.95-4.15-1.25-2.05-0.15-0.3-0.05-0.4q-0.55-4.75 2.1-5.3l2.7-0.5q13.1-1.85 13.55-6.9 4.45-1.9 0.9-4.2 1.4-0.45 1.75-1.6 0.45-1.6-1.45-2.65l-3.8 0.2q3.4-1.2 4.1-3.1 0.6-1.8-1.4-3.35-2.5 0.95-4.85 0.8-2.95 2.05-6.65 1.65l-2.75-0.4-0.5-0.05q-1.35-0.15-2.55 0l8.6-1.05 8.7-2.45 6.6-4.45 1.7-4.65m-14.05-1.1 1.35-0.05q6.35-0.2 8.8 1.05 2.4 1.25-0.55 3.2-2.65 1.7-8.15 3.05l-2.35-3q-1.5-1.95 0.9-4.25m13.8 14.75-0.05 0.05 0.05 0.05v-0.1" fill="#bdaa66" fill-opacity=".78824" fill-rule="evenodd"/>
<path d="m35.65 9.95-1.4 0.35q-6.6 1.45-12.95 1.65h-3.3q1.95-2.95 11.05-5.65-11.4 0.7-16.1 4.75l-0.25-0.1-0.2-0.1q-2.45-1.25 0.5-3.15 3-1.95 9.6-3.4 5.9-1.35 11.6-1.6-2.4 2.3-0.9 4.25l2.35 3" fill="#b49d50" fill-opacity=".78824" fill-rule="evenodd"/>
<path d="m18 11.95-0.35-0.05q-3.1-0.2-4.7-0.85 4.7-4.05 16.1-4.75-9.1 2.7-11.05 5.65" fill="#94823a" fill-opacity=".78824" fill-rule="evenodd"/>
<path d="m33.8 49.25 2.25-0.35q-0.35 2.95-5.4 3.4l-0.35 0.05q-7.25-0.65-11.5-3.4l-0.45-0.2q-2.6-1.85-4.2-5.75l-0.25-0.3q-2.8-6.3 3.2-11.05 1.8-1.65 1.45-6.15l-0.05-0.65-0.55-2.45q-0.4-1.4-0.75-1.55l-1.4-0.6-0.3-0.15q-2.3-0.4-1.55-3.25l-0.35-0.1q-5.75-0.95-6.05-4.4-0.2-1.7 1.15-3.5t3.8-3.25l0.35-0.15q3.25-1.75 8.35-3.05 6.9-3.5 21.25-1.85l0.15 0.05 0.55 0.1q0.95 0.2 1.75 0.55l-1.75 0.7q-3.05-1.1-7.5-1.1l-0.4-0.05q-6.6 0.05-14.75 2.55-4.7 1.2-10.1 4.95-3.5 4.9 5.6 7.9-1.95 2.05 1.95 2.65 2.6 1.4 2.25 9.35l0.1 0.6q-1 3.5-4.5 6.35-2.15 1.85 0.1 7.55 3.4 5.55 7.05 6.6 3 1.85 6 2.05l0.65-0.2q3.35 0.15 4.1-1.6l0.1-0.3m-4.5-37.35h0.05q8.45-1 13.1-3.55 3.45-0.1-4.6 3.15-4.2 2.05-10.8 1.9-9.2 0.3 2.25-1.5" fill="#fbf9ee" fill-opacity=".78824" fill-rule="evenodd"/>
<path d="m44.9 1.25 0.25 0.1q1.95 0.8 2.95 2.25l0.15 0.2 0.55 1.2 0.1 0.25q3.55 3.1-0.9 6.15 5.1 3.35 0 6.15l0.05 2.2-1.1 6.55-3.45 5.75-4.4 3.35-7.95 1.9-3.7 3.55q-2.25 6.6 3.95 8.7m2.4-0.3 2.25-0.35q-0.35 2.95-5.4 3.4l-0.35 0.05q-7.25-0.65-11.5-3.4l-0.45-0.2q-2.6-1.85-4.2-5.75l-0.25-0.3q-2.8-6.3 3.2-11.05 1.8-1.65 1.45-6.15l-0.05-0.65-0.55-2.45q-0.4-1.4-0.75-1.55l-1.4-0.6-0.3-0.15q-2.3-0.4-1.55-3.25l-0.35-0.1q-5.75-0.95-6.05-4.4-0.2-1.7 1.15-3.5t3.8-3.25l0.35-0.15q3.25-1.75 8.35-3.05 6.9-3.5 21.25-1.85l0.15 0.05 0.55 0.1q0.95 0.2 1.75 0.55z" fill="none" stroke="#f9f49f" stroke-linecap="round" stroke-linejoin="round" stroke-opacity=".47059"/>
<path d="m30.9 50.55 1.8 1.2-5.95 0.15q-10.05-2.75-2-3.85l1.1-0.2 1.35 0.7q-3.8 0.3 2.7 1.8l1 0.2" fill="#f5efd5" fill-opacity=".78824" fill-rule="evenodd"/>
<path d="m40.15 45.8 2.3-0.8q3.8-1.3-1.4-3.05 15.4 1.7-0.9 7.3l-0.1 0.05-8.7-1.2 4.85-1.4 3.95-0.9" fill="#f5efd5" fill-opacity=".78824" fill-rule="evenodd"/>
<path d="m54.35 10.75-4.7-1.25 7.45 0.4-2.6 6-14.55 4.6 11.45-5.05 2.95-4.7" fill="#f5efd5" fill-opacity=".78824" fill-rule="evenodd"/>
<path d="m0.9 37.65-0.25-0.6-0.05-0.05q-1.65-4.85 1.15-6.3l0.15-0.05q2.2-0.65 4.75 4.5l0.25 3.35-2.1-0.05-1.4-1.9 0.35-0.7q1.35 0.3 1.4 1.45l0.4-0.1 0.25-0.95-0.45-1.1-2.3-2.4-1.55 1.1 0.15 2.3 1.6 2.2 0.3 1.05 1.9 1.5 0.9-0.05 0.05 0.1 3.35-0.5 1.35 1.25 1 2.15 0.1 0.2v0.15l0.05 0.05v0.1q-0.15 2.25-2.35 1.45l0.4-1.8-1.05-0.5-0.35 1.25 0.75 0.85 0.05 0.1 0.2 0.25q2.8 2.75 9.05 6.1-2.2-0.35-4.95-1.5l-0.3-0.85-6-4.65-4-4.6-1.6-3.1-1.15-1.2-0.05 1.5m4.2 0 0.05-0.35-0.05 0.35" fill="#f5efd5" fill-opacity=".78824" fill-rule="evenodd"/>
<path d="m6.9 38.5-0.35 0.75 2.05-0.2 1 0.35q2.2 2.05 2.5 4.45l-1-2.15-1.35-1.25-3.35 0.5-0.05-0.1-0.9 0.05-1.9-1.5-0.3-1.05-1.6-2.2-0.15-2.3 1.55-1.1 2.3 2.4 0.45 1.1-0.25 0.95-0.4 0.1q-0.05-1.15-1.4-1.45h-0.05l-0.1-0.1q-1.85-0.25 0.3 2.7l0.05 0.1 0.8 0.6 1.15 0.6 0.6-0.25 0.05-0.25-0.05 0.25-0.6 0.25-1.15-0.6-0.8-0.6-0.05-0.1q-2.15-2.95-0.3-2.7l0.1 0.1h0.05l-0.35 0.7 1.4 1.9 2.1 0.05m3 7.3-0.2-0.1-0.05-0.1-0.75-0.85 0.35-1.25 1.05 0.5-0.4 1.8m4.1 4.75-2.65-1.25q-7.1-4.6-10.45-11.65l0.05-1.5 1.15 1.2 1.6 3.1 4 4.6 6 4.65 0.3 0.85" fill="#e8d99b" fill-opacity=".78824" fill-rule="evenodd"/>
<path d="m0.9 37.65-0.25-0.6-0.05-0.05q-1.65-4.85 1.15-6.3l0.15-0.05q2.2-0.65 4.75 4.5l0.25 3.35-0.35 0.75 2.05-0.2 1 0.35q2.2 2.05 2.5 4.45m0.1 0.2v0.15l0.05 0.05v0.1q-0.15 2.25-2.35 1.45l-0.2-0.1 0.2 0.25q2.8 2.75 9.05 6.1-2.2-0.35-4.95-1.5l-2.65-1.25q-7.1-4.6-10.45-11.65m2.85-1.8h-0.05l-0.1-0.1q-1.85-0.25 0.3 2.7l0.05 0.1 0.8 0.6 1.15 0.6 0.6-0.25 0.05-0.25m-2.8-3.4q1.35 0.3 1.4 1.45l-0.05 0.35m5.2 6.35-1.05-0.5-0.35 1.25 0.75 0.85 0.05 0.1" fill="none" stroke="#b49d50" stroke-linecap="round" stroke-linejoin="round" stroke-opacity=".39608" stroke-width=".3"/>
<path d="m6.15 28.4-0.4 2.75 3.45 2.25 4.75 0.2-4.6 1.25-7.95-3 4.75-3.45" fill="#f5eed4" fill-opacity=".78824" fill-rule="evenodd"/>
<path d="m50.9 33.75q-0.65-1.3-1-3.85 1.8-6.1 5.3-5.4l0.25 0.05q4.6 1.55 3.95 7.15v0.15l-0.15 0.65-0.7-1.65-1.2 1.4-1.15 3.65-4.1 5.5-6.95 5.65-0.1 0.95q-3.5 1.45-6.55 1.9 7.75-4.05 10.75-7.4l0.25-0.3 0.05-0.05 0.75-1.05-0.95-1.4-1.4 0.55 1.2 2.1q-2.8 1.05-3.8-1.6l-0.1-0.15 0.05-0.1v-0.15l-0.05-0.2 0.75-2.5 1.45-1.45 5.05 0.35v-0.1l1.35 0.05 2.15-1.75v-1.3l1.55-2.6-0.6-2.75-2.7-1.15-2.45 2.9-0.15 1.3 0.65 1.1 0.6-0.05q-0.4-1.2 1.45-1.65l0.8 0.8-1.3 2.25-2.95 0.15m2.2-1.05-0.2-0.5 0.2 0.5" fill="#f5efd5" fill-opacity=".78824" fill-rule="evenodd"/>
<path d="m50.9 33.75 2.95-0.15 1.3-2.25-0.8-0.8q-1.85 0.45-1.45 1.65l-0.6 0.05-0.65-1.1 0.15-1.3 2.45-2.9 2.7 1.15 0.6 2.75-1.55 2.6v1.3l-2.15 1.75-1.35-0.05v0.1l-5.05-0.35-1.45 1.45-0.75 2.5q-0.5-2.8 2-5.3l1.3-0.35 3 0.15-0.65-0.9m-1.75 8.6-1.2-2.1 1.4-0.55 0.95 1.4-0.75 1.05-0.05 0.05-0.35 0.15m5.2-11.8 0.15-0.05 0.05-0.05q2.6-0.35 0.65 3.2l-0.1 0.1-0.85 0.7-1.5 0.65-0.95-0.25-0.25-0.2 0.25 0.2 0.95 0.25 1.5-0.65 0.85-0.7 0.1-0.1q1.95-3.55-0.65-3.2l-0.05 0.05-0.15 0.05" fill="#e8d99b" fill-opacity=".78824" fill-rule="evenodd"/>
<path d="m45.05 48 0.1-0.95 6.95-5.65 4.1-5.5 1.15-3.65 1.2-1.4 0.7 1.65q-2.3 8.4-10.85 13.95l-3.35 1.55" fill="#b7a157" fill-opacity=".78824" fill-rule="evenodd"/>
<path d="m59.25 32.5 0.15-0.65v-0.15q0.65-5.6-3.95-7.15l-0.25-0.05q-3.5-0.7-5.3 5.4 0.35 2.55 1 3.85m3.45-3.2q-1.85 0.45-1.45 1.65l0.2 0.5m-7.8 7.65v0.15l-0.05 0.1 0.1 0.15q1 2.65 3.8 1.6m-1.2-2.1 1.4-0.55 0.95 1.4-0.75 1.05-0.05 0.05-0.25 0.3q-3 3.35-10.75 7.4 3.05-0.45 6.55-1.9m14.2-15.5q-2.3 8.4-10.85 13.95l-3.35 1.55m0.2-7.85q-0.5-2.8 2-5.3l1.3-0.35 3 0.15-0.65-0.9m0.65 0.9 0.25 0.2 0.95 0.25 1.5-0.65 0.85-0.7 0.1-0.1q1.95-3.55-0.65-3.2l-0.05 0.05-0.15 0.05m-4.85 11.65-0.35 0.15" fill="none" stroke="#b49d50" stroke-linecap="round" stroke-linejoin="round" stroke-opacity=".78824" stroke-width=".6"/>
<path d="m31.2 34.55q-2.25 4.3-5.7 4.5-3.5 0.15-6.15-3.95-2.7-4.05-2.95-9.95-0.35-5.9 1.95-10.25 2.25-4.3 5.75-4.4 3.45-0.25 6.1 3.85t3 10q0.25 5.9-2 10.2" fill="url(#h)" fill-rule="evenodd"/>
<path d="m24.45 37.2q-1.3-1.3-1.25-3.1-0.05-1.8 1.25-3.15 1.35-1.3 3.15-1.25 1.8-0.05 3.1 1.25 1.35 1.35 1.35 3.15t-1.35 3.1q-1.3 1.35-3.1 1.35t-3.15-1.35" fill="url(#g)" fill-rule="evenodd"/>
<path d="m20.9 29.45q0.05 1.05-0.45 2.25l-1.3 1.95q-0.75 0.65-1.35 0.4t-0.7-1.25q-0.05-1.1 0.45-2.3t1.3-1.9 1.4-0.45 0.65 1.3" fill="url(#f)" fill-rule="evenodd"/>
<path d="m22.7 23.15 0.05 0.15h-0.05v-0.15" fill="#bdaa66" fill-opacity=".78824" fill-rule="evenodd"/>
<path d="m36 22.25 0.45 1.4 0.15 1.5-0.15 1.65-0.4 1.2-0.65 1.15q-1.2 1.65-2.85 1.65t-2.85-1.65l-0.25-0.35-0.45-0.95q-0.5-1.2-0.5-2.7l0.1-1.2q0.1-0.7 0.35-1.35l0.75-1.4q1.2-1.65 2.85-1.65t2.85 1.65l0.6 1.05" fill="#b49d50" fill-opacity=".78824" fill-rule="evenodd"/>
<path d="m22.55 23.45 0.25 0.55v0.1l0.25 1.15v1.1l-0.5 1.85q-0.55 1-1.25 1-0.75 0-1.25-1-0.25-0.45-0.35-1l-0.15-1.35 0.05-0.75q0.05-0.95 0.45-1.65 0.5-1 1.25-1 0.7 0 1.25 1" fill="#94823a" fill-opacity=".78824" fill-rule="evenodd"/>
<path d="m20.35 21.6q0.8-1 1.75-0.1m-1.95 8.1q0.75 0.85 1.85 0.3m10.3 2.35q1.5 0.6 3.2-0.8m-6.4-12.1q2.7-2.45 5.6-0.95" fill="none" stroke="#b49d50" stroke-linecap="round" stroke-linejoin="round" stroke-opacity=".78824" stroke-width=".6"/>
<path d="m19.05 33.35q1.7-0.6 2.25-1.25l0.1-0.15 0.1-0.2q0.15-0.55-0.45-1.05m0.35 1.25 1.55 0.2q1.05-1.45 4.6-0.8m-4.6 0.8q-0.5 1.05 0.4 2.25" fill="none" stroke="#b49d50" stroke-linecap="round" stroke-linejoin="round" stroke-opacity=".39608" stroke-width=".6"/>
</g>
<radialGradient id="h" cx="0" cy="0" r="819.2" gradientTransform="matrix(.0103 -5e-4 8e-4 .0175 24.8 24.75)" gradientUnits="userSpaceOnUse">
<stop stop-color="#fcfaef" stop-opacity=".78824" offset="0"/>
<stop stop-color="#fbf8ed" stop-opacity="0" offset="1"/>
</radialGradient>
<radialGradient id="g" cx="0" cy="0" r="819.2" gradientTransform="matrix(.0058 0 0 .0058 27.6 34.1)" gradientUnits="userSpaceOnUse">
<stop stop-color="#d5ac75" stop-opacity=".78824" offset="0"/>
<stop stop-color="#d5ac75" stop-opacity="0" offset="1"/>
</radialGradient>
<radialGradient id="f" cx="0" cy="0" r="819.2" gradientTransform="matrix(.0019 8e-4 -.0016 .0039 19 31.1)" gradientUnits="userSpaceOnUse">
<stop stop-color="#d5ac75" stop-opacity=".78824" offset="0"/>
<stop stop-color="#d5ac75" stop-opacity="0" offset="1"/>
</radialGradient>
<g id="b" transform="translate(-254.05,-188.35)">
<path d="m276.55 210.2q-5.15 4.05-11.1 4.4-5.95 0.3-9.15-3.25-3.2-3.6-1.85-9.05 1.4-5.45 6.6-9.55 5.15-4.05 11.1-4.35 5.95-0.35 9.2 3.25 3.2 3.6 1.75 9.05-1.35 5.4-6.55 9.5" fill="#f8f3ed" fill-opacity=".2" fill-rule="evenodd"/>
<path d="m255.1 200.9q1.25-4.6 5.6-8.05t9.4-3.65q5.05-0.35 7.75 2.7t1.55 7.65q-1.2 4.65-5.55 8.1-4.4 3.35-9.4 3.7-5.05 0.3-7.7-2.75-2.75-3.05-1.65-7.7" fill="#f8f3ed" fill-opacity=".2" fill-rule="evenodd"/>
<path d="m256.15 200.6q1.05-4 4.8-6.95 3.8-3 8.15-3.25t6.7 2.35q2.4 2.65 1.35 6.65t-4.85 6.95q-3.75 3-8.1 3.25-4.35 0.2-6.65-2.4-2.4-2.65-1.4-6.6" fill="#f8f3ed" fill-opacity=".6" fill-rule="evenodd"/>
<path d="m262.9 195.15q2.15-1.7 4.6-1.8 2.5-0.15 3.8 1.35 1.35 1.5 0.75 3.75t-2.75 3.95q-2.1 1.7-4.6 1.85-2.45 0.1-3.8-1.35-1.3-1.5-0.75-3.75 0.55-2.3 2.75-4" fill="#fff" fill-opacity=".8" fill-rule="evenodd"/>
</g>
</defs>
</svg>
