<?xml version="1.0" encoding="UTF-8"?>
<svg version="1.1" viewBox="0 0 82.5 82.5" xmlns="http://www.w3.org/2000/svg" xmlns:cc="http://creativecommons.org/ns#" xmlns:dc="http://purl.org/dc/elements/1.1/" xmlns:rdf="http://www.w3.org/1999/02/22-rdf-syntax-ns#" xmlns:xlink="http://www.w3.org/1999/xlink">
<metadata>
<rdf:RDF>
<cc:Work rdf:about="">
<dc:format>image/svg+xml</dc:format>
<dc:type rdf:resource="http://purl.org/dc/dcmitype/StillImage"/>
</cc:Work>
</rdf:RDF>
</metadata>
<g transform="translate(-233.7,-158.7)">
<use transform="translate(241.9,168.35)" width="65.800003" height="65.400002" xlink:href="#e"/>
<use transform="translate(233.7,158.7)" width="82.5" height="82.5" xlink:href="#d"/>
<use transform="translate(248,173.75)" width="53.349998" height="51.950001" xlink:href="#a"/>
<use transform="translate(248,174.25)" width="29.5" height="26.25" xlink:href="#b"/>
</g>
<defs>
<g id="e" transform="translate(.35)">
<path d="m52.8 11.9q-5-5-11.2-7.05l-4.5-1.1-1.65-0.2-3.15-0.15-4.15 0.3-3.15 0.6q-3.8 0.9-7.2 2.9-3.2 1.85-6.05 4.7l-0.6 0.6q-6 6.3-7.45 14.55-0.25 1.35-0.35 2.8-0.1 1.25-0.05 2.55-0.05 2.5 0.35 4.85 1.35 8.95 8.1 15.65 8.5 8.5 20.55 8.55 12-0.05 20.5-8.55t8.5-20.5-8.5-20.5m-6.05-8.7q4.65 2.3 8.65 6.3 9.5 9.5 9.55 22.95-0.05 13.45-9.55 22.95t-22.9 9.5q-13.5 0-23-9.5-6.95-6.95-8.8-16.05-0.7-3.3-0.7-6.9 0-1.5 0.15-2.95l0.4-3.1q1.65-9.65 8.95-16.9l0.2-0.25q2.75-2.7 5.85-4.6 4.05-2.55 8.75-3.7l4.55-0.8 3.65-0.15 4.1 0.25 2.35 0.35q4.1 0.75 7.8 2.6" fill="#bed399" fill-rule="evenodd"/>
<path d="m52.8 11.9q8.5 8.5 8.5 20.5t-8.5 20.5-20.5 8.55q-12.05-0.05-20.55-8.55-6.75-6.7-8.1-15.65-0.4-2.35-0.35-4.85-0.05-1.3 0.05-2.55 0.1-1.45 0.35-2.8 1.45-8.25 7.45-14.55l0.6-0.6q2.85-2.85 6.05-4.7 3.4-2 7.2-2.9l3.15-0.6 4.15-0.3 3.15 0.15 1.65 0.2 4.5 1.1q6.2 2.05 11.2 7.05" fill="#c6e0ac" fill-rule="evenodd"/>
<path d="m46.75 3.2q4.65 2.3 8.65 6.3 9.5 9.5 9.55 22.95-0.05 13.45-9.55 22.95t-22.9 9.5q-13.5 0-23-9.5-6.95-6.95-8.8-16.05m-0.55-9.85 0.4-3.1" fill="none" stroke="#002600" stroke-linecap="round" stroke-linejoin="round" stroke-opacity=".30196"/>
<path d="m42.6 59.5q-4.05 1-9.8 1t-9.8-1-4.05-2.4 4.05-2.4 9.8-1 9.8 1 4.05 2.4-4.05 2.4" fill="#bed399" fill-rule="evenodd"/>
</g>
<g id="d" transform="translate(-233.7,-158.7)">
<path d="m293.55 200.5q2.7-3.4 4.7-4.1 1.8-0.7 3.9 0.7 4.2 2.8 2.95 9-1.2 5.75-6.45 11.75-5.55 6.25-12.7 9.5-8.05 3.65-15.5 2.1l-4.2-0.85q-1.85-0.5-2.55-1.65-0.6-0.95-0.5-2 0.1-1 0.75-1.35 1.15-0.7 5.9-2.25 4.95-1.6 8.15-3.35 4.9-2.75 8.6-7.15l2.95-4.4q2.45-3.9 4-5.95" fill="#87a848" fill-opacity=".30196" fill-rule="evenodd"/>
<path d="m301.05 174.2q-10.8-10.8-26.15-10.75-15.3-0.05-26.1 10.75t-10.75 26.15q-0.05 15.3 10.75 26.1t26.1 10.8q15.35 0 26.15-10.8t10.8-26.1q0-15.35-10.8-26.15m-26.1-15.5q17.1 0 29.2 12.1 12.05 12.05 12.05 29.15t-12.05 29.2q-12.1 12.05-29.2 12.05t-29.2-12.05q-12.05-12.1-12.05-29.2t12.05-29.15q12.1-12.1 29.2-12.1" fill="#fdfaf8" fill-opacity=".2" fill-rule="evenodd"/>
</g>
<g id="a" transform="translate(0 .5)">
<use transform="translate(0 -.5)" width="53.349998" height="51.950001" xlink:href="#c"/>
</g>
<g id="c" transform="translate(0 .5)">
<path d="m31.45 43.9q-0.5 1.85-3.7 1.7l-0.6 0.2q-2.65-0.15-5.35-1.8-3.25-1-6.3-5.95-2-5.05-0.05-6.7 3.1-2.55 4-5.7l-0.1-0.5q0.35-7.1-2-8.35-3.5-0.55-1.75-2.35-8.15-2.7-5-7.05 4.85-3.35 9-4.4 7.3-2.25 13.2-2.3l0.35 0.05q3.95 0 6.7 1l1.55-0.65 0.2 0.1q1.75 0.7 2.65 2l0.1 0.2-1.5 4.15-5.85 3.95-7.8 2.15-7.7 0.95h2.3l0.45 0.05 2.45 0.35q3.3 0.35 5.95-1.45 2.1 0.15 4.35-0.7 1.8 1.4 1.2 3-0.6 1.65-3.65 2.75l3.4-0.2q1.7 0.9 1.3 2.35-0.3 1.05-1.6 1.45 3.2 2.05-0.75 3.75-0.4 4.5-12.1 6.15l-2.4 0.45q-2.4 0.5-1.9 4.7l0.05 0.35q1.95 4.45 7.85 7l0.95-0.4 0.1 0.05h0.05l1.95-0.35m1.65-35q4.95-1.25 7.3-2.75 2.65-1.75 0.5-2.85-2.2-1.15-7.85-0.95l-1.2 0.05q-5.1 0.2-10.35 1.4-5.9 1.3-8.55 3.05-2.65 1.7-0.45 2.85l0.15 0.05 0.2 0.1 4.2 0.75 0.35 0.05h2.9q5.7-0.15 11.6-1.45l1.2-0.3m-5.65 1.7q-10.2 1.6-2 1.35 5.9 0.1 9.65-1.7 7.15-2.9 4.1-2.8-4.15 2.25-11.7 3.15h-0.05" fill="#f5efd5" fill-opacity=".51765" fill-rule="evenodd"/>
<path d="m44.35 3.4 0.5 1.05 0.1 0.25q3.15 2.7-0.8 5.45 4.55 3 0 5.5l0.05 1.95-1 5.85-3.05 5.1-3.95 3-7.05 1.7-3.3 3.15q-2.05 5.9 3.5 7.8l-0.95 0.4q-5.9-2.55-7.85-7l-0.05-0.35q-0.5-4.2 1.9-4.7l2.4-0.45q11.7-1.65 12.1-6.15 3.95-1.7 0.75-3.75 1.3-0.4 1.6-1.45 0.4-1.45-1.3-2.35l-3.4 0.2q3.05-1.1 3.65-2.75 0.6-1.6-1.2-3-2.25 0.85-4.35 0.7-2.65 1.8-5.95 1.45l-2.45-0.35-0.45-0.05h-2.3l7.7-0.95 7.8-2.15 5.85-3.95 1.5-4.15m-12.5-1 1.2-0.05q5.65-0.2 7.85 0.95 2.15 1.1-0.5 2.85-2.35 1.5-7.3 2.75l-2.05-2.7q-1.35-1.75 0.8-3.8m12.3 13.15-0.05 0.05 0.05 0.05v-0.1" fill="#bdaa66" fill-opacity=".51765" fill-rule="evenodd"/>
<path d="m33.1 8.9-1.2 0.3q-5.9 1.3-11.6 1.45h-2.9q1.7-2.6 9.85-5.05-10.15 0.65-14.4 4.25l-0.2-0.1-0.15-0.05q-2.2-1.15 0.45-2.85 2.65-1.75 8.55-3.05 5.25-1.2 10.35-1.4-2.15 2.05-0.8 3.8l2.05 2.7" fill="#b49d50" fill-opacity=".51765" fill-rule="evenodd"/>
<path d="m17.4 10.65-0.35-0.05-4.2-0.75q4.25-3.6 14.4-4.25-8.15 2.45-9.85 5.05" fill="#94823a" fill-opacity=".51765" fill-rule="evenodd"/>
<path d="m31.45 43.9 2.05-0.3q-0.35 2.65-4.85 3.05l-0.3 0.05q-6.45-0.6-10.25-3.05l-0.4-0.2q-2.35-1.6-3.75-5.1l-0.2-0.3q-2.5-5.6 2.85-9.8 1.6-1.5 1.25-5.5l-0.05-0.6-0.45-2.2q-0.35-1.2-0.7-1.35l-1.25-0.55-0.25-0.1q-2.05-0.4-1.35-2.95l-0.35-0.05q-5.1-0.9-5.4-3.95-0.15-1.5 1.05-3.1 1.2-1.65 3.4-2.9l0.3-0.15q2.9-1.55 7.45-2.75 6.15-3.1 18.95-1.6h0.1l0.55 0.1 1.55 0.5-1.55 0.65q-2.75-1-6.7-1l-0.35-0.05q-5.9 0.05-13.2 2.3-4.15 1.05-9 4.4-3.15 4.35 5 7.05-1.75 1.8 1.75 2.35 2.35 1.25 2 8.35l0.1 0.5q-0.9 3.15-4 5.7-1.95 1.65 0.05 6.7 3.05 4.95 6.3 5.95 2.7 1.65 5.35 1.8l0.6-0.2q3.2 0.15 3.7-1.7m-4-33.3h0.05q7.55-0.9 11.7-3.15 3.05-0.1-4.1 2.8-3.75 1.8-9.65 1.7-8.2 0.25 2-1.35" fill="#fbf9ee" fill-opacity=".51765" fill-rule="evenodd"/>
<path d="m41.4 1.1-1.55-0.5-0.55-0.1h-0.1q-12.8-1.5-18.95 1.6-4.55 1.2-7.45 2.75l-0.3 0.15q-2.2 1.25-3.4 2.9-1.2 1.6-1.05 3.1 0.3 3.05 5.4 3.95l0.35 0.05q-0.7 2.55 1.35 2.95l0.25 0.1 1.25 0.55q0.35 0.15 0.7 1.35l0.45 2.2 0.05 0.6q0.35 4-1.25 5.5-5.35 4.2-2.85 9.8l0.2 0.3q1.4 3.5 3.75 5.1l0.4 0.2q3.8 2.45 10.25 3.05l0.3-0.05q4.5-0.4 4.85-3.05l-2.05 0.3m9.95-42.8 0.2 0.1q1.75 0.7 2.65 2l0.1 0.2 0.5 1.05 0.1 0.25q3.15 2.7-0.8 5.45 4.55 3 0 5.5l0.05 1.95-1 5.85-3.05 5.1-3.95 3-7.05 1.7-3.3 3.15q-2.05 5.9 3.5 7.8" fill="none" stroke="#f9f49f" stroke-linecap="round" stroke-linejoin="round" stroke-opacity=".3098"/>
<path d="m29.5 32.65q-2.45 3.95-5.95 3.95t-5.95-3.95q-2.5-3.95-2.45-9.5-0.05-5.55 2.45-9.5 2.45-3.95 5.95-3.9 3.5-0.05 5.95 3.9t2.5 9.5q-0.05 5.55-2.5 9.5" fill="url(#h)" fill-rule="evenodd"/>
<path d="m28.25 50.15 1.75 1.15-5.7 0.15q-9.65-2.6-1.95-3.7l1.05-0.15 1.3 0.65q-3.65 0.3 2.6 1.75l0.95 0.15" fill="#f5efd5" fill-opacity=".51765" fill-rule="evenodd"/>
<path d="m31.8 27q0.8 1.7 0.25 3.55-0.6 1.85-2.2 2.8-1.55 1-3.2 0.5-1.6-0.5-2.4-2.25-0.75-1.65-0.15-3.5 0.55-1.85 2.1-2.85 1.6-0.9 3.2-0.4 1.65 0.5 2.4 2.15" fill="url(#g)" fill-rule="evenodd"/>
<path d="m19.55 25.65q0.15 1-0.3 2.1-0.4 1.1-1.15 1.7-0.75 0.65-1.35 0.4-0.65-0.25-0.8-1.2-0.15-1 0.25-2.1 0.45-1.1 1.2-1.7t1.4-0.35q0.6 0.25 0.75 1.15" fill="url(#f)" fill-rule="evenodd"/>
<path d="m22.7 23.7q0.35 0.2 0.4 1.9 0 1.6-0.85 3.45-0.8 1.8-2.25 2.45l-1.85 0.45q-0.35-0.15 0.95-1.25 1.25-1.2 1.9-3.05l1-2.95q0.4-1.2 0.7-1" fill="#94823a" fill-opacity=".51765" fill-rule="evenodd"/>
<path d="m17.4 27.85q-0.4-5.6-0.1-8.3 0.2-1.95 0.75-2.4 0.8-0.65 1.55 2.4l0.65 3.2m4.7 0q-1-9.85 2.9-7.55 4.1 2.4 4.2 11.6" fill="none" stroke="#94823a" stroke-linecap="round" stroke-linejoin="round" stroke-opacity=".51765"/>
<path d="m37.1 45.6 2.2-0.75q3.65-1.25-1.3-2.9 14.75 1.6-0.9 6.95l-0.1 0.05-8.3-1.15 4.65-1.3 3.75-0.9" fill="#f5efd5" fill-opacity=".51765" fill-rule="evenodd"/>
<path d="m50.7 12.05-4.5-1.2 7.15 0.4-2.55 5.75-13.85 4.4 10.9-4.85 2.85-4.5" fill="#f5efd5" fill-opacity=".51765" fill-rule="evenodd"/>
<path d="m4.55 28.95-0.4 2.65 3.3 2.15 4.55 0.2-4.4 1.2-7.6-2.9 4.55-3.3" fill="#f5eed4" fill-opacity=".51765" fill-rule="evenodd"/>
</g>
<radialGradient id="h" cx="0" cy="0" r="819.2" gradientTransform="matrix(.0103 0 0 .0165 23.55 23.15)" gradientUnits="userSpaceOnUse">
<stop stop-color="#fcfaef" stop-opacity=".51765" offset="0"/>
<stop stop-color="#fbf8ed" stop-opacity="0" offset="1"/>
</radialGradient>
<radialGradient id="g" cx="0" cy="0" r="819.2" gradientTransform="matrix(.0052 .0016 -.0018 .0059 28.05 29.35)" gradientUnits="userSpaceOnUse">
<stop stop-color="#d5ac75" stop-opacity=".51765" offset="0"/>
<stop stop-color="#d5ac75" stop-opacity="0" offset="1"/>
</radialGradient>
<radialGradient id="f" cx="0" cy="0" r="819.2" gradientTransform="matrix(.002 8e-4 -.0013 .0035 17.75 27.15)" gradientUnits="userSpaceOnUse">
<stop stop-color="#d5ac75" stop-opacity=".51765" offset="0"/>
<stop stop-color="#d5ac75" stop-opacity="0" offset="1"/>
</radialGradient>
<g id="b" transform="translate(-248,-174.25)">
<path d="m270.5 196.1q-5.15 4.05-11.1 4.4-5.95 0.3-9.15-3.25-3.2-3.6-1.85-9.05 1.4-5.45 6.6-9.55 5.15-4.05 11.1-4.35 5.95-0.35 9.2 3.25 3.2 3.6 1.75 9.05-1.35 5.4-6.55 9.5" fill="#f8f3ed" fill-opacity=".2" fill-rule="evenodd"/>
<path d="m249.05 186.8q1.25-4.6 5.6-8.05t9.4-3.65q5.05-0.35 7.75 2.7t1.55 7.65q-1.2 4.65-5.55 8.1-4.4 3.35-9.4 3.7-5.05 0.3-7.7-2.75-2.75-3.05-1.65-7.7" fill="#f8f3ed" fill-opacity=".2" fill-rule="evenodd"/>
<path d="m250.1 186.5q1.05-4 4.8-6.95 3.8-3 8.15-3.25t6.7 2.35q2.4 2.65 1.35 6.65t-4.85 6.95q-3.75 3-8.1 3.25-4.35 0.2-6.65-2.4-2.4-2.65-1.4-6.6" fill="#f8f3ed" fill-opacity=".6" fill-rule="evenodd"/>
<path d="m256.85 181.05q2.15-1.7 4.6-1.8 2.5-0.15 3.8 1.35 1.35 1.5 0.75 3.75t-2.75 3.95q-2.1 1.7-4.6 1.85-2.45 0.1-3.8-1.35-1.3-1.5-0.75-3.75 0.55-2.3 2.75-4" fill="#fff" fill-opacity=".8" fill-rule="evenodd"/>
</g>
</defs>
</svg>
