<?xml version="1.0" encoding="UTF-8"?>
<svg version="1.1" viewBox="0 0 94.391 102.13" xmlns="http://www.w3.org/2000/svg" xmlns:cc="http://creativecommons.org/ns#" xmlns:dc="http://purl.org/dc/elements/1.1/" xmlns:rdf="http://www.w3.org/1999/02/22-rdf-syntax-ns#" xmlns:xlink="http://www.w3.org/1999/xlink">
<metadata>
<rdf:RDF>
<cc:Work rdf:about="">
<dc:format>image/svg+xml</dc:format>
<dc:type rdf:resource="http://purl.org/dc/dcmitype/StillImage"/>
</cc:Work>
</rdf:RDF>
</metadata>
<g transform="translate(-60.92 -56.97)">
<use transform="translate(59.35,55.75)" width="96.75" height="109.7" xlink:href="#b"/>
</g>
<defs>
<g id="b" transform="translate(10.25,10.3)">
<use transform="matrix(-1.0226 -.4205 -.6426 .9562 76.601 3.7369)" width="14.4" height="31" xlink:href="#a"/>
<use transform="matrix(.9389 -.1348 .5787 1.1447 3.5446 -8.3591)" width="14.4" height="31" xlink:href="#a"/>
<use transform="matrix(-.9246 .1605 .6063 1.1392 24.55 -9.0107)" width="14.4" height="31" xlink:href="#a"/>
<use transform="matrix(-1.0939 -.4333 -.4487 1.1326 77.703 47.921)" width="14.4" height="31" xlink:href="#a"/>
<use transform="matrix(-.7227 -.6782 -.7582 .808 86.458 57.407)" width="14.4" height="31" xlink:href="#a"/>
<use transform="matrix(-.2691 -.9557 -1.0684 .3009 86.517 72.643)" width="14.4" height="31" xlink:href="#a"/>
<use transform="matrix(.1694 -.9796 -1.0951 -.1893 82.442 83.764)" width="14.4" height="31" xlink:href="#a"/>
<use transform="matrix(.8064 -.5836 .6524 .9014 -6.367 60.985)" width="14.4" height="31" xlink:href="#a"/>
<use transform="matrix(.6758 -.7338 .7338 .6758 -6.446 11.789)" width="14.4" height="31" xlink:href="#a"/>
<use transform="matrix(1.0777 0 0 .7495 13.4 .15)" width="48.150002" height="39.900002" xlink:href="#d"/>
<use transform="matrix(-.8098 -.7511 -.9358 .67 63.798 22.292)" width="14.4" height="31" xlink:href="#a"/>
<use transform="matrix(-1.06 -.3812 -.5412 .8408 44.378 20.076)" width="14.4" height="31" xlink:href="#a"/>
<use transform="matrix(-1.0256 .7746 1.019 .6049 19.127 13.436)" width="14.4" height="31" xlink:href="#a"/>
<use transform="translate(.05 10.4)" width="74.849998" height="75.699997" xlink:href="#c"/>
<use transform="matrix(.5724 -.8156 .8156 .5724 -10.25 70.604)" width="14.4" height="31" xlink:href="#a"/>
<use transform="matrix(.8064 -.5836 .5459 .5677 7.7075 73.792)" width="14.4" height="31" xlink:href="#a"/>
<use transform="matrix(.443 -.8882 .9929 .4953 34.547 81.175)" width="14.4" height="31" xlink:href="#a"/>
<use transform="matrix(.2696 -.9566 .7792 .1061 21.849 86.385)" width="14.4" height="31" xlink:href="#a"/>
<use transform="matrix(-.4918 -1.0663 -1.0173 .4691 67.83 84.871)" width="14.4" height="31" xlink:href="#a"/>
<use transform="matrix(.9389 -.1348 .5787 1.1447 -6.3554 43.641)" width="14.4" height="31" xlink:href="#a"/>
<use transform="matrix(.9389 -.1348 .2592 1.0511 10.818 51.708)" width="14.4" height="31" xlink:href="#a"/>
<use transform="matrix(-1.3549 -.1945 -.374 1.5169 79.951 39.395)" width="14.4" height="31" xlink:href="#a"/>
<use transform="matrix(-.9866 -.0025 .0825 .9655 57.648 53.358)" width="14.4" height="31" xlink:href="#a"/>
</g>
<g id="a" transform="translate(8,19.95)">
<use transform="translate(-8,-19.95)" width="14.4" height="31" xlink:href="#e"/>
</g>
<g id="e" transform="translate(8,19.95)">
<path d="m-3-14-0.15 2.55-3.6-4.15 1.35-4.25 2.4 5.85m-0.35 5.7 0.15 0.15 0.45 0.4 1.45 1.35 3.3 3.7 0.4 0.45h-0.05l-7.25-4.9-2.85-4.55 1.85 1.3 0.8 0.6 1.75 1.5m-3.8-6.05 0.05 0.25-0.1-0.15 0.05-0.1" fill="#ffd466" fill-rule="evenodd"/>
<path d="m-1.05-9 2.5-1-0.55-1.25 0.7-0.65 0.15 4.9-0.95 0.15-1.85-2.15m-0.25 2.6-1.45-1.35 0.4-0.4 2.4 1.4-1.35 0.35" fill="#e9c466" fill-rule="evenodd"/>
<path d="m-1.05-9 1.85 2.15-0.75 0.1-2.4-1.4-0.35-0.2 1.65-0.65" fill="#ffe670" fill-rule="evenodd"/>
<path d="m2.4-2.25 1.85 0.4 2.15 4.45-6.85-5.1-0.5-0.35-0.15-0.1 3.45 0.7h0.05" fill="#e8d16f" fill-rule="evenodd"/>
<path d="m-3.15-11.45-0.15 2.75-1.8-1.1-0.8-0.6-1.2-3.7-0.05-0.25-0.85-2.7 1.25 1.45 3.6 4.15m4.55 15.15 0.85-0.15-0.75 0.6-4.85 3.9 0.95-3.75 3.8-0.6m-6.3-10.85 7.25 4.9-3.45-0.7 0.15 0.1-3.85-1.05 0.4-0.5-3.45-4.75 2.95 2" fill="#fccd70" fill-rule="evenodd"/>
<path d="m0.9-11.25 0.55 1.25-2.5 1-1.65 0.65-0.5 0.2-0.15-0.15 0.05-0.4 0.15-2.75 0.5-8.5 3.55 8.7m-0.1 4.4 0.95-0.15 1.95-0.05-1.7 4.35-3.3-3.7 1.35-0.35 0.75-0.1" fill="#ffea7f" fill-rule="evenodd"/>
<path d="m-0.45-2.5 1.85 6.2m0.1 0.45 1.95 6.4" fill="none" stroke="#ffe670" stroke-linecap="round" stroke-linejoin="round"/>
</g>
<g id="d">
<path d="m46.6 24.4-1.25 2.75q-4.2 5.7-15.4 7.1-11.2 1.35-21.05-9.25 0.6-3.1 2.1-5.75 1.05-1.9 2.55-3.55l1.6-1.85 0.7-1.55q0.2-0.65 3.15-6.1 3-5.55 5.4-5.25 1.9 0.25 2.8 1.1l0.35 0.35q1.15 0.35 0.9 1.1l18.15 20.9" fill="url(#g)" fill-rule="evenodd"/>
<path d="m27.2 2.05q-0.9-0.85-2.8-1.1-2.4-0.3-5.4 5.25-2.95 5.45-3.15 6.1l-0.7 1.55-1.6 1.85q-1.5 1.65-2.55 3.55-1.5 2.65-2.1 5.75 9.85 10.6 21.05 9.25 11.2-1.4 15.4-7.1l1.25-2.75 0.5 0.6q0.8 0.9 1.05 2.2 0.05 3.9-3.65 6.2-7.05 4.45-14.35 5.85-10.35 2-21.35-2.05-4.85-1.85-7-4.9l-0.25-0.35q-0.85-1.3-1.2-2.8l-0.15-0.45q-0.25-1.25-0.2-2.65l0.7-1.05 5.6-6.5 0.3-0.3 14.65-16.9q1.1-1.25 2.7-1.3 1.5 0.05 2.6 1.3l0.65 0.75" fill="#edd596" fill-rule="evenodd"/>
<path d="m6.6 18.2-0.3 0.3-0.45 0.15 0.75-0.45" fill="#d1ad59" fill-rule="evenodd"/>
</g>
<linearGradient id="g" x1="-819.2" x2="819.2" gradientTransform="matrix(-.0147 -9e-4 .0012 -.0197 20.95 19.05)" gradientUnits="userSpaceOnUse">
<stop stop-color="#ffebba" offset="0"/>
<stop stop-color="#edd596" offset="1"/>
</linearGradient>
<g id="c" transform="translate(-.05 -10.4)">
<path d="m8.45 22.5v-1.4l-2.95-3.05 1.7-0.5 1.35-0.4 4.85-1.4 2.55-0.75 1.5-0.45v-0.05l0.8-0.3-6.55 7.55q-0.55 0.55-0.85 1.25l0.1 2-2.5-2.5m4.95-6.75 0.3 0.5-0.3-0.5m2.75-0.2-0.2-0.55 0.2 0.55m-7.35 2.1-0.25-0.5 0.25 0.5m58.65 4.4-0.4 0.6-0.6-0.9-1-1.2-3.4-3.9 0.95 0.1 1.45 0.15 2.45 0.6-0.4 0.5 0.4-0.5 1.8 0.45 0.5 0.45-0.5-0.45 0.55 0.15-0.05 0.3-0.2 1.35q-0.65 0.8-1.55 2.3" fill="#403020" fill-rule="evenodd"/>
<path d="m7.25 34.45-1.3-11.05-0.35-3.3-0.15-1.05 3 3.45 2.5 2.5q1 0.9 1.7 1.25l4.85 2.25 4.15 1q15.55 3.5 26.6 2.85l2.8-0.25 1.75-0.25q-7.45 6.8-20.6 6.9h-1.15l-7.9-0.05-3.7-0.1-0.5 2.2q-1.35 6.95 0.6 13.65 2.1 7.3 1.9 14.9l3.65 1q17.05 4.4 35.3 5.2 1.3 0.05 1.85 1.45l-2.05 1.3-3.1 1.05q-17.9 5.35-39.35-1.05l-0.25-0.15-0.4 0.15-5.65 0.25q0.75-0.2 2.45-2.4 1.7-2.25 0-3.55l-0.8-0.7q-1.2-1.15-1.85-2.65l-0.2-0.45q-5.95-13.55-3.15-23.05l-0.15-0.65h0.7l-1.2-10.65q5.5 3.65 11.7 6.35-6.2-2.7-11.7-6.35" fill="#866f48" fill-rule="evenodd"/>
<path d="m52.8 31.85-1.75 0.25q2.15-0.75 4.2-1.7-3.45 1.25-7 1.95-11.05 0.65-26.6-2.85l-4.15-1-4.85-2.25q-0.7-0.35-1.7-1.25l-0.1-2q0.3-0.7 0.85-1.25l6.55-7.55 7.3-3.8q-4.1 2.6-6.05 4.4l-0.55 0.45q-1.5 2.9-2.4 5.9-0.15 0.4-0.15 0.85 3.35 2.65 7.2 4.05 4.1 1 8.4 1.4 10.95 1 21.6-1.8 6.45-1.7 11.85-5.1l1 1.2 0.6 0.9-2.15 3.6-0.05 0.1-0.4 0.7v0.05l-2.9 1.9-1 0.65v0.05l-0.35 0.2q-3.35 1.3-7.4 1.95" fill="#aa8259" fill-rule="evenodd"/>
<path d="m18.95 40.8 0.5-2.2 3.7 0.1 7.9 0.05h1.15q13.15-0.1 20.6-6.9 4.05-0.65 7.4-1.95l0.3 0.1 0.05-0.3 1-0.7-1 0.7v-0.05l1-0.65 2.9-1.9v-0.05l0.4-0.7 0.05-0.1 2.15-3.6 0.4-0.6 0.65-1 0.8-0.75q0.55-0.45 1.2-0.75l-0.4 1.7-0.15 0.6q-2 7.25 0.95 13.75l-6.05-4.45v-0.05l-2.15-0.6q-3.05 3.2-6.95 5.4-4.7 2.6-10.65 3.7-10.2 1.95-19.65 0.25l-0.7-0.35 1.05 0.55 1.7 1 6.15 1.85 0.45 0.15q3.15 0.95 6.45 0.95l1.1-0.05 5.5 0.55q0.85 0.1 1.6-0.4l0.2-0.05-0.55 0.45-0.55 0.5 0.95 0.15-0.5-0.1 1.45-0.4 3.3-1.15 0.3-0.05q6.5-0.95 12.6-3.05l0.65-0.25 4.35-1.75-0.1 4.2q-2.3 1.25-4.9 2.15l-2.95 0.9-4.4 0.95-5.6 0.7 0.3-2.9q7.25-0.7 12.65-4-5.4 3.3-12.65 4l-0.3 2.9-2.35 0.15q-1.15 1.2-2.75 1.7l-4.55 0.25-4.75-0.45-3.8-0.3 0.5 0.5 2.8 0.05q0.5 0 1 0.4l-3.25 0.2q5.6 6.3 7.85 16l0.15 0.3 5.25 0.95 1.5 0.2q3.15-2.7 5.4-6.1l0.9-1.45q2.6-4.5 3.7-10.05 5.9 14.1 2.3 21.5 1.95-0.6 3.85-0.45-0.35 1.45 3.9 3.85l-5.8 0.95v0.1l-2.2 1.4q-0.55-1.4-1.85-1.45-18.25-0.8-35.3-5.2l-3.65-1q0.2-7.6-1.9-14.9-1.95-6.7-0.6-13.65 13.15 5.7 29.15 6.9l-0.6 1.45 0.6-1.45q-16-1.2-29.15-6.9m30.9 2.5-1.4-0.05-1.5 0.1q9.95-3.25 19-8.5-2.85 6.95-11.5 8.2l-1.45 0.15-1.55 0.1h-1.6l0.2-0.4-0.2 0.4m8.25 27.35-2.5-9.5 2.5 9.5m-47.05-1.85 0.2 0.45q-0.65-0.25-0.2-0.45m41.4-19.85 1.5-0.3 6.5-1.55 4.15 0.8q0.25 0.05 0.35 0.45-5.5 1.25-11.15 1.9l-1.45 0.15 0.1-1.45-0.1 1.45-2.25 0.2-1.65 0.15-1.6 0.05-8.9 0.05 10.95-1.25 3.55-0.65m-5.4 1.4-0.2 0.45 0.2-0.45m6.05-8.65-0.1 1.5 0.1-1.5m-3 4 2.8-1.3 0.05-0.95-0.05 0.95-2.8 1.3m-2 2 1.25-3.05-1.25 3.05m8 25 1.6-0.3-3-0.05-4.6 0.5 6-0.15m-8 0.95 0.6-6.6-0.6 6.6" fill="#a78e58" fill-rule="evenodd"/>
<path d="m49.35 44.65-1.45 0.4 0.5 0.1-0.95-0.15 0.55-0.5 0.55-0.45-0.2 0.05q-0.75 0.5-1.6 0.4l-5.5-0.55-1.1 0.05q-3.3 0-6.45-0.95l-0.45-0.15-6.15-1.85-1.7-1-1.05-0.55 0.7 0.35q9.45 1.7 19.65-0.25 5.95-1.1 10.65-3.7 3.9-2.2 6.95-5.4l2.15 0.6v0.05l6.05 4.45 0.05 0.7q-2.3 2.4-5 4.1 2.7-1.7 5-4.1l0.8 13.75q0.8 13.7-5 20.65-1.9-0.15-3.85 0.45 3.6-7.4-2.3-21.5-1.1 5.55-3.7 10.05l-0.9 1.45q-2.25 3.4-5.4 6.1l-1.5-0.2-5.25-0.95-0.15-0.3q-2.25-9.7-7.85-16l3.25-0.2q-0.5-0.4-1-0.4l-2.8-0.05-0.5-0.5 3.8 0.3 4.75 0.45 4.55-0.25q1.6-0.5 2.75-1.7l2.35-0.15 5.6-0.7 4.4-0.95 2.95-0.9q2.6-0.9 4.9-2.15l0.1-4.2-4.35 1.75-0.65 0.25q-6.1 2.1-12.6 3.05l0.05-0.25-0.05 0.25-0.3 0.05-3.3 1.15 0.5-1.35-0.5 1.35m3.65-1.45 1.45-0.15q8.65-1.25 11.5-8.2-9.05 5.25-19 8.5l1.5-0.1 1.4 0.05h1.6l1.55-0.1m-0.65 7.2 1.45-0.15q5.65-0.65 11.15-1.9-0.1-0.4-0.35-0.45l-4.15-0.8-6.5 1.55-1.5 0.3 0.15-1.65-0.15 1.65-3.55 0.65-10.95 1.25 8.9-0.05 1.6-0.05 1.65-0.15 2.25-0.2-0.25 2.3 0.25-2.3m-3.65 16.65 1.4-16.45-1.4 16.45m4.4-15.35 2.5 9.45-2.5-9.45m3 21-6 0.15 4.6-0.5 3 0.05-1.6 0.3m-10-20 0.75-1.9-0.75 1.9" fill="#c2b68b" fill-rule="evenodd"/>
<path d="m13.1 71.9 0.8 0.7q1.7 1.3 0 3.55-1.7 2.2-2.45 2.4l5.65-0.25h0.65q21.45 6.4 39.35 1.05l3.1-1.05q2.35 0 4.15-0.8l0.1 0.6q0 3.3-9.25 5.65-9.2 2.35-22.25 2.35t-22.3-2.35q-9.2-2.35-9.2-5.65t9.2-5.65l2.45-0.55" fill="#666" fill-opacity=".35294" fill-rule="evenodd"/>
<path d="m70.1 19.55q-0.65 0.3-1.2 0.75l-0.8 0.75-0.65 1q0.9-1.5 1.55-2.3 1.3-1.75 1.1-0.2m-9.55 10.15-0.05 0.3-0.3-0.1 0.35-0.2m1.7 47.3 2.2-1.4v-0.1l5.8-0.95q-4.7 1.05-5.5 2.4l-0.3 0.45v0.05l-0.1 0.05q-1.8 0.8-4.15 0.8l2.05-1.3m-45.15 1.3 0.4-0.15 0.25 0.15h-0.65" fill="#e6e1ce" fill-rule="evenodd"/>
<path d="m51.05 32.1-2.8 0.25q3.55-0.7 7-1.95-2.05 0.95-4.2 1.7" fill="url(#f)" fill-rule="evenodd"/>
<path d="m8.45 22.5-3-3.45 0.15 1.05 0.35 3.3 1.3 11.05m45.55-2.6-1.75 0.25-2.8 0.25q-11.05 0.65-26.6-2.85l-4.15-1-4.85-2.25q-0.7-0.35-1.7-1.25l-2.5-2.5m62.1 13.8-0.05-0.7q-2.95-6.5-0.95-13.75l0.15-0.6 0.4-1.7m-2.65 2.5-0.4 0.6-2.15 3.6-0.05 0.1-0.4 0.7m0 0.05-2.9 1.9-1 0.7-0.35 0.2q-3.35 1.3-7.4 1.95m17.45 42.7q-4.25-2.4-3.9-3.85m-55.3-1.9q-5.95-13.55-3.15-23.05l-0.15-0.65h0.7l-1.2-10.65m3.8 34.35 0.2 0.45q0.65 1.5 1.85 2.65l0.8 0.7q1.7 1.3 0 3.55-1.7 2.2-2.45 2.4l5.65-0.25h0.65q21.45 6.4 39.35 1.05l3.1-1.05m8.8-58.55q1.3-1.75 1.1-0.2m-2.65 2.5q0.9-1.5 1.55-2.3m1.55 16.55 0.8 13.75q0.8 13.7-5 20.65m3.9 3.85q-4.7 1.05-5.5 2.4l-0.3 0.45m0 0.05-0.1 0.05q-1.8 0.8-4.15 0.8" fill="none" stroke="#5a4530" stroke-linecap="round" stroke-linejoin="round" stroke-width="2"/>
<path d="m7.2 17.55-4-1.65m2.1 6.3-1.75 1.75m2.05-3.85-5.55 0.7m13.35-5.05-0.75-1.25m3.3 0.5-0.85-2.25m-6.55 4.4-1.85-3.7m2.8 3.15-0.7-3.15m58.1 4.05 1.35-1.95m3.95-3.05-2.95 5.5v0.1m-0.05 0.3 5.35 0.3m-3.85 1.75 4.2 0.7m-11.9-4.4 1.4-3.65m1.4 2.8 0.7-1.75m-5.55 0.7 0.7-2.45" fill="none" stroke="#5a4530" stroke-linecap="round" stroke-linejoin="round" stroke-width=".05"/>
<path d="m5.95 23.4-1.35 0.2m11.35-8.6 0.2 0.55m-2.45 0.7-0.3-0.5m-4.85 1.4 0.25 0.5m9.45-3.45-0.8 0.3m49.45 3-0.4 0.5m0.4-0.5-2.45-0.6-1.45-0.15-0.95-0.1m6.95 3.1 0.2-1.35-0.5-0.45-1.8-0.45m2.35 0.6-0.05 0.3m0.05-0.3-0.55-0.15m0.85 3.9 1.85 1.05" fill="none" stroke="#435555" stroke-linecap="round" stroke-linejoin="round" stroke-width=".05"/>
<path d="m7.25 34.45q5.5 3.65 11.7 6.35m30.4 3.85 0.5-1.35m3.15-0.1-0.05 0.25-0.05 0.95-2.8 1.3m15.45-5.3q2.7-1.7 5-4.1m-23.05 12.85 0.6-1.45q-16-1.2-29.15-6.9m36.65 20.35 2.5 9.5m-50.85-36.2-1.15-0.75m65 2-0.55 0.6m-18.2 14.1-0.25 2.3m13.45-12.3q-5.4 3.3-12.65 4l-0.3 2.9-0.15 1.65-0.1 1.45m-2.25 0.2-1.4 16.45-0.6 6.6m7.5-12.5-2.5-9.45m-6.25-0.9 0.2-0.45m3-7.45-0.2 0.4m3.15-0.1 0.1-1.5m-3.75 2.95-1.25 3.05m-1.25 3.1-0.75 1.9" fill="none" stroke="#4b3927" stroke-linecap="round" stroke-linejoin="round" stroke-width="2"/>
</g>
<linearGradient id="f" x1="-819.2" x2="819.2" gradientTransform="matrix(-.0116 3e-4 -6e-4 -.023 43.05 15.05)" gradientUnits="userSpaceOnUse">
<stop stop-color="#e2e1c7" offset="0"/>
<stop stop-color="#c8ab91" offset="1"/>
</linearGradient>
</defs>
</svg>
