<?xml version="1.0" encoding="UTF-8"?>
<svg version="1.1" viewBox="0 0 102.06 318.99" xmlns="http://www.w3.org/2000/svg" xmlns:cc="http://creativecommons.org/ns#" xmlns:dc="http://purl.org/dc/elements/1.1/" xmlns:rdf="http://www.w3.org/1999/02/22-rdf-syntax-ns#" xmlns:xlink="http://www.w3.org/1999/xlink">
<metadata>
<rdf:RDF>
<cc:Work rdf:about="">
<dc:format>image/svg+xml</dc:format>
<dc:type rdf:resource="http://purl.org/dc/dcmitype/StillImage"/>
</cc:Work>
</rdf:RDF>
</metadata>
<g transform="translate(-249.53 -24.402)">
<use transform="matrix(1.8831 .0222 -8e-4 1.5723 249.66 58.345)" width="35.5" height="180.89999" xlink:href="#h"/>
<use transform="matrix(1.0686 -.4388 .5315 1.2944 228.46 65.667)" width="94.849998" height="103.15" xlink:href="#c"/>
<use transform="matrix(2.0979 .0016 -.0021 2.7233 278.12 24.376)" width="27.75" height="18.4" xlink:href="#b"/>
</g>
<defs>
<g id="h" transform="translate(18,143.3)">
<path d="m3.25 25.1v3.75h-4.5q-7.7-4.85 1.35-9.75h3.15v6m-16 0h-4.75v-6h6.4q6.15 2.5-1.65 6m4.65-16.5h-9.4v-6.5h8.25v-3.25h3.9q4.5 5.35-2.75 9.75m10.9-9.75h0.45v9.75h-1.75q-5-6 1.3-9.75" fill="#d58f1e" fill-rule="evenodd"/>
<path d="m13-142.8 4.5-0.3v180.2h-4.5v-179.9m-6 124.1v-123.75l4.8-0.35-2 88.75h-0.1l-2.7 35.35" fill="#3a3a32" fill-rule="evenodd"/>
<path d="m13-142.8v179.9h-6v-55.8l2.7-35.35h0.1l2-88.75h1.2m-3.25 179.9 2.2-91.3 0.7-88.6-0.7 88.6-2.2 91.3" fill="#6c6c5b" fill-rule="evenodd"/>
<path d="m-1.25 28.85h-7v-3.75h-4.5q7.8-3.5 1.65-6h11.2q-9.05 4.9-1.35 9.75m0.5-20.25h-7.35q7.25-4.4 2.75-9.75h8.15q-6.3 3.75-1.3 9.75h-2.25" fill="#f3c55a" fill-rule="evenodd"/>
<path d="m7 25.1h-3.75v-6h-4v-10.5h4v-6h3.75v22.5" fill="#8f6114" fill-rule="evenodd"/>
<path d="m7 25.1h-3.75v3.75h-11.5v-3.75h-9.25v-6h16.75v-10.5h-16.75v-6.5h8.25v-3.25h12.5v3.75h3.75" fill="none" stroke="#5f3707" stroke-linecap="round" stroke-linejoin="round"/>
<path d="m12.65-142.8-0.7 88.6-2.2 91.3" fill="none" stroke="#cfd3c2" stroke-linecap="round" stroke-linejoin="round"/>
</g>
<g id="c" transform="translate(61.6,21.95)">
<use transform="translate(-61.6,-10.35)" width="82.5" height="91.550003" xlink:href="#g"/>
<use transform="matrix(-.1447 -.1204 -.212 .2436 -32.35 54.5)" width="43.5" height="39" xlink:href="#a"/>
<use transform="matrix(-.1113 -.0926 -.1631 .1874 -24 64.95)" width="43.5" height="39" xlink:href="#a"/>
<use transform="matrix(-.1284 -.2713 -.3312 .279 -11.95 47.9)" width="43.5" height="39" xlink:href="#a"/>
<use transform="matrix(-.0854 .0065 -.0601 .1464 -38.6 48.05)" width="43.5" height="39" xlink:href="#a"/>
<use transform="translate(-27.15,-21.95)" width="60.400002" height="35.650002" xlink:href="#e"/>
</g>
<g id="g" transform="translate(61.6,10.35)">
<path d="m8.9-7.55q-19.45-8.35-44.05 8.9-18.9 12.7-24.5 32.95-8.45 31.6 22.15 43.15 17.35 8.45 35.85-2.65 18.6-11.1 22.4-41.3 0.7-28.45-11.85-41.05" fill="url(#m)" fill-rule="evenodd"/>
<path d="m8.9-7.55q12.55 12.6 11.85 41.05-3.8 30.2-22.4 41.3-18.5 11.1-35.85 2.65-30.6-11.55-22.15-43.15 5.6-20.25 24.5-32.95 24.6-17.25 44.05-8.9z" fill="none" stroke="#000" stroke-linecap="round" stroke-linejoin="round" stroke-opacity=".4" stroke-width=".2"/>
<path d="m12.35 16.6q0.45 6.2-0.65 12.15-1.35 7.4-5.25 14.4-5.2 8.7-10.85 6-6.2-4.95-15.95 5.3-12.2 12.6-4.1 18.8 11.5 5.65 24.1-5.55 16.35-18.6 17.9-36.65 0.5-11.3-1.55-15.6-4.45-9.3-3.65 1.15" fill="#20170b" fill-opacity=".2902" fill-rule="evenodd"/>
<path d="m-19.75-2.65q-22.05 9.55-32.65 30.3 1.95 7.15 9.35 4.55 6.5-14.2 28.9-27.5 5-8.3-5.6-7.35m-24.7 57.4q-2-7.95-1.25-14.55-4.6-6.5-9.75-2.7-3.15 7.7-0.15 15.65 8.2 10.8 11.15 1.6" fill="#fff" fill-opacity=".48235" fill-rule="evenodd"/>
</g>
<linearGradient id="m" x1="-819.2" x2="819.2" gradientTransform="matrix(-.0225 -.013 -.0226 .0557 -20.1 32)" gradientUnits="userSpaceOnUse">
<stop stop-color="#59be3a" stop-opacity=".70196" offset=".066667"/>
<stop stop-color="#baf57c" stop-opacity=".70196" offset=".51373"/>
<stop stop-color="#d2f4d6" stop-opacity=".65098" offset="1"/>
</linearGradient>
<g id="a">
<use width="43.5" height="39" xlink:href="#f"/>
</g>
<g id="f">
<path d="m39.3 15.9q-2.8 0.5-2.8 4.75l0.15 2q0.55 2 2.6 2 2.8 0 2.8-4.7 0-4.55-2.75-4.05m-1.6-5.4q0-3.6-5.55-6.25-5.55-2.7-5.55 1.7 0 0.35 3.95 3.85 3.9 3.5 4.35 3.5 1.45 0 2.2-0.95 0.6-0.8 0.6-1.85m-0.6-4.8q6.4 5.7 6.4 13.8t-6.4 13.8q-6.35 5.7-15.35 5.7t-15.4-5.7q-6.35-5.7-6.35-13.8t6.35-13.8q6.4-5.7 15.4-5.7t15.35 5.7" fill="#d0a971" fill-opacity=".48235" fill-rule="evenodd"/>
<path d="m37.7 10.5q0 1.05-0.6 1.85-0.75 0.95-2.2 0.95-0.45 0-4.35-3.5-3.95-3.5-3.95-3.85 0-4.4 5.55-1.7 5.55 2.65 5.55 6.25m1.6 5.4q2.75-0.5 2.75 4.05 0 4.7-2.8 4.7-2.05 0-2.6-2l-0.15-2q0-4.25 2.8-4.75" fill="#e8d5ba" fill-opacity=".48235" fill-rule="evenodd"/>
</g>
<g id="e" transform="translate(27.15,21.95)">
<path d="m-7.3 3.8 12-0.4 13.6 10.3-3-8.45q-4.6-13.7-22.2-15.15l-13.45 3.05 13.65 3.7-0.6 6.95" fill-opacity=".34902" fill-rule="evenodd"/>
<path d="m-1.25-7.15-2.55-6.7-3.85-0.15-8.75-0.45-10.65 0.7 21.95 7.15 3.85-0.55m6.2 7.3 19.95 13.15-8.8-11.6-3.55-4.75-3.1 0.4-3.15 0.5 1.55 2.25-2.9 0.05" fill="#690" fill-rule="evenodd"/>
<path d="m0.65-7.4-1.9 0.25-3.85 0.55-11.2 7.2 21.25-0.45 2.9-0.05-1.55-2.25-3.75-5.5-1.9 0.25" fill="#8eca02" fill-rule="evenodd"/>
<path d="m0.65-7.4-0.35-3.2 2.65-0.8-2.85-7.4-17.9-3.05 8.55 2.7 1.6 5.15 3.85 0.15 2.55 6.7 1.9-0.25m15.45 9.1 7.95 0.9 9.1 6.55-6.2-9.35q-5.9-3.5-11.85-7.05l-5.65 4.6 3.1-0.4 3.55 4.75" fill="#527401" fill-rule="evenodd"/>
<path d="m-7.65-14-1.6-5.15-8.55-2.7 17.9 3.05 2.85 7.4-2.65 0.8 0.35 3.2-1.9 0.25-2.55-6.7-3.85-0.15-8.75-0.45-10.65 0.7 21.95 7.15-11.2 7.2 21.25-0.45 19.95 13.15-8.8-11.6 7.95 0.9 9.1 6.55-6.2-9.35q-5.9-3.5-11.85-7.05l-5.65 4.6-3.15 0.5-3.75-5.5-1.9 0.25m4.3 7.55 2.9-0.05-1.55-2.25m-11.4-4.45 3.85-0.55m10.7 4.5 3.1-0.4 3.55 4.75" fill="none" stroke="#000" stroke-linecap="round" stroke-linejoin="round" stroke-opacity=".4" stroke-width=".2"/>
</g>
<g id="b" transform="translate(13.85,11.2)">
<use transform="translate(-13.85,-11.2)" width="27.75" height="18.4" xlink:href="#d"/>
</g>
<g id="d" transform="translate(13.85,11.2)">
<path d="m-1.3-5.3-7.1 4.05q-0.15-2.35-2.05-5.9 3 0.05 9.15 1.85" fill="#e5c59a" fill-rule="evenodd"/>
<path d="m-8.4-1.25q-0.15-2.35-2.05-5.9 3 0.05 9.15 1.85" fill="none" stroke="#9e8769" stroke-linecap="round" stroke-linejoin="round" stroke-width=".05"/>
<path d="m8.15 0.05-8.15-5.2q5.25-1.7 10.25-2.1-2 4.25-2.1 7.3" fill="#e5c59a" fill-rule="evenodd"/>
<path d="m8.15 0.05q0.1-3.05 2.1-7.3-5 0.4-10.25 2.1" fill="none" stroke="#9e8769" stroke-linecap="round" stroke-linejoin="round" stroke-width=".05"/>
<path d="m-7.4 1.35-1.4-4.2 3.4 1.35 1.35 1.25 0.5 2.35q-1.75-0.65-3.85-0.75" fill="#e5c59a" fill-rule="evenodd"/>
<path d="m-8.8-2.85 1.4 4.2-6.45 0.4q1.1-2.65 5.05-4.6" fill="#fff5e0" fill-rule="evenodd"/>
<path d="m-8.8-2.85q-3.95 1.95-5.05 4.6l6.45-0.4" fill="none" stroke="#9e8769" stroke-linecap="round" stroke-linejoin="round" stroke-width=".05"/>
<path d="m9.85-2.7-1.05 2q-1.75-0.25-4.05 0.65 2.3-0.9 4.05-0.65l-1.35 2.6q-3.1 0.5-5.9 1.55-0.15-2.65 4.2-5.45l4.1-0.7" fill="#e5c59a" fill-rule="evenodd"/>
<path d="m8.8-0.7 1.05-2q2.7 2.25 4.05 5.45-3.7-1-6.45-0.85l1.35-2.6q0.9 0.1 1.7 0.6-0.8-0.5-1.7-0.6" fill="#fff5e0" fill-rule="evenodd"/>
<path d="m9.85-2.7-4.1 0.7m-4.2 5.45q2.8-1.05 5.9-1.55 2.75-0.15 6.45 0.85-1.35-3.2-4.05-5.45" fill="none" stroke="#9e8769" stroke-linecap="round" stroke-linejoin="round" stroke-width=".05"/>
<path d="m8.8-0.7q0.9 0.1 1.7 0.6m-1.7-0.6q-1.75-0.25-4.05 0.65" fill="none" stroke="#9e8769" stroke-linecap="round" stroke-linejoin="round" stroke-width=".05"/>
<path d="m-7.15 2.2h0.05-0.05" fill="#7cd100" fill-rule="evenodd"/>
<path d="m-2.1 1.05-1.35 2.05 1.35-2.05m-5 1.15q3-1.9 5.85-2.35 4.1 0.8 5.75 3.25-4-0.55-7.95 0-1.3-1.05-3.65-0.9" fill="#e5c59a" fill-rule="evenodd"/>
<path d="m4.5 3.1q-5 1-9.05 4.1-0.9-2.75-2.6-5h0.05q2.35-0.15 3.65 0.9 3.95-0.55 7.95 0" fill="#fff5e0" fill-rule="evenodd"/>
<path d="m4.5 3.1q-5 1-9.05 4.1-0.9-2.75-2.6-5" fill="none" stroke="#9e8769" stroke-linecap="round" stroke-linejoin="round" stroke-width=".05"/>
<path d="m-3.45 3.1 1.35-2.05" fill="none" stroke="#9e8769" stroke-linecap="round" stroke-linejoin="round" stroke-width=".05"/>
<path d="m-3.85 0.5-2.7-0.05q-1.5-0.25-4.3-3.35l4-1.65q0.55 2.75 3 5.05m11.7-0.85-2.65 0.5q2.6-2.9 1.3-5.2l4.7 1q-1.85 3.1-3.35 3.7m-11.2-6.05q-0.35-1.75 2.9-4l3.8 3.25q-3.45-0.2-6.5 1.3l-0.2-0.55" fill="#b3946d" fill-rule="evenodd"/>
<path d="m-6.45-3q0.75-4.65 2.85-7.8 1.5 3.8 4.9 6.3-6.8 3.85-7.75 1.5" fill="#866742" fill-rule="evenodd"/>
<path d="m-6.45-3q0.75-4.65 2.85-7.8 1.5 3.8 4.9 6.3" fill="none" stroke="#694e34" stroke-linecap="round" stroke-linejoin="round" stroke-width=".05"/>
<path d="m-3.35 0.85q-2.35-0.45-3.35-2.4-0.75-4.25 0.7-6.6 0.35 5.4 2.65 9" fill="url(#l)" fill-rule="evenodd"/>
<path d="m-6-8.15q1.6 4.85 5 9.1l-2.35-0.1q-2.3-3.6-2.65-9" fill="#866742" fill-rule="evenodd"/>
<path d="m2.6-11.2h-0.05 0.05" fill="#fff1d1" fill-rule="evenodd"/>
<path d="m4.6-2.4q0.85-3.7-2.05-8.8h0.05q3.15 3.55 3.45 7.95-0.6 1-1.45 0.85" fill="url(#k)" fill-rule="evenodd"/>
<path d="m2.55-11.2q2.9 5.1 2.05 8.8-2.85 0.35-6.95-1.35 4-2.85 4.9-7.45" fill="#866742" fill-rule="evenodd"/>
<path d="m3.3 0.05q2-2.5 2.65-8.85 1.6 2.65 1.1 6.95-1 2.05-3.75 1.9" fill="url(#j)" fill-rule="evenodd"/>
<path d="m3.3 0.05-1.9-0.3q3.2-3.8 4.55-8.55-0.65 6.35-2.65 8.85" fill="#866742" fill-rule="evenodd"/>
<path d="m0-0.35q-1.65 0-2.85-1.2-1.15-1.15-1.15-2.8t1.15-2.85q1.2-1.15 2.85-1.15t2.8 1.15q1.2 1.2 1.2 2.85t-1.2 2.8q-1.15 1.2-2.8 1.2" fill="#ffd919" fill-rule="evenodd"/>
<path d="m2.3-6q-0.05 0.4-0.45 0.4t-0.9-0.4q-0.4-0.35-0.65-0.85t-0.2-0.9q0.1-0.35 0.5-0.35l0.85 0.35 0.75 0.9q0.25 0.5 0.1 0.85" fill="#fff8df" fill-rule="evenodd"/>
<path d="m2-1.05q-4.75 1.3-5.7-2 1.2-2.1 1.9-2.55 1.8 1.85 5.55 3l-1.75 1.55" fill="#876642" fill-opacity=".30196" fill-rule="evenodd"/>
<path d="m-0.35 1.35-3.25-0.45q0.6-3.35 3.6-6.95 3.1 1.65 4.4 6.3-2.2 1.1-4.75 1.1" fill="url(#i)" fill-rule="evenodd"/>
<path d="m-6.45 0 1.1-1.55q1.6 1.65 4.5 3.3-1.25 0.35-5.6-1.75m11.95-1.75 1.25 1.55q-4.15 2.1-5.4 1.75 2.75-1.65 4.15-3.3" fill="#a18562" fill-rule="evenodd"/>
</g>
<linearGradient id="l" x1="-819.2" x2="819.2" gradientTransform="matrix(-5e-4 -.0036 .0018 -2e-4 -5.45 -3.55)" gradientUnits="userSpaceOnUse">
<stop stop-color="#ed9c16" offset=".066667"/>
<stop stop-color="#f2cc4f" offset=".51373"/>
<stop stop-color="#fceadb" offset="1"/>
</linearGradient>
<linearGradient id="k" x1="-819.2" x2="819.2" gradientTransform="matrix(-6e-4 -.0033 .0012 -2e-4 4.6 -5.9)" gradientUnits="userSpaceOnUse">
<stop stop-color="#ed9c16" offset=".066667"/>
<stop stop-color="#f2cc4f" offset=".51373"/>
<stop stop-color="#fceadb" offset="1"/>
</linearGradient>
<linearGradient id="j" x1="-819.2" x2="819.2" gradientTransform="matrix(6e-4 -.0043 .0021 3e-4 5.6 -4)" gradientUnits="userSpaceOnUse">
<stop stop-color="#ed9c16" offset=".066667"/>
<stop stop-color="#f2cc4f" offset=".51373"/>
<stop stop-color="#fceadb" offset="1"/>
</linearGradient>
<linearGradient id="i" x1="-819.2" x2="819.2" gradientTransform="matrix(1e-4 -.0031 .0049 1e-4 .45 -2.15)" gradientUnits="userSpaceOnUse">
<stop stop-color="#ed9c16" offset=".015686"/>
<stop stop-color="#f2cc4f" offset=".31765"/>
<stop stop-color="#fceadb" offset=".93333"/>
</linearGradient>
</defs>
</svg>
