<?xml version="1.0" encoding="UTF-8"?>
<svg version="1.1" viewBox="0 0 70.55 70.55" xmlns="http://www.w3.org/2000/svg" xmlns:cc="http://creativecommons.org/ns#" xmlns:dc="http://purl.org/dc/elements/1.1/" xmlns:rdf="http://www.w3.org/1999/02/22-rdf-syntax-ns#" xmlns:xlink="http://www.w3.org/1999/xlink">
<metadata>
<rdf:RDF>
<cc:Work rdf:about="">
<dc:format>image/svg+xml</dc:format>
<dc:type rdf:resource="http://purl.org/dc/dcmitype/StillImage"/>
</cc:Work>
</rdf:RDF>
</metadata>
<g transform="translate(-243.85,-191.05)">
<use transform="translate(243.85,191.05)" width="70.550003" height="70.550003" xlink:href="#f"/>
<use transform="translate(246.3,193.75)" width="65.800003" height="65.400002" xlink:href="#e"/>
<use transform="translate(275.8,232.2)" width="15.05" height="21.950001" xlink:href="#d"/>
<use transform="translate(248.3,195.05)" width="61.75" height="62.099998" xlink:href="#a"/>
<use transform="translate(251.7,196.1)" width="29.5" height="26.25" xlink:href="#b"/>
</g>
<defs>
<g id="f" transform="translate(-243.85,-191.05)">
<path d="m310.65 226.65q0-13.1-9.2-22.35-9.25-9.25-22.35-9.2-13.1-0.05-22.35 9.2-9.2 9.25-9.2 22.35t9.2 22.35q9.25 9.2 22.35 9.25 13.1-0.05 22.35-9.25 9.2-9.25 9.2-22.35m3.75-0.3q0 14.6-10.3 24.95-10.35 10.3-24.95 10.3-14.65 0-25-10.3-10.3-10.35-10.3-24.95 0-14.65 10.3-24.95 10.35-10.35 25-10.35 14.6 0 24.95 10.35 10.3 10.3 10.3 24.95" fill="#fff" fill-opacity=".4" fill-rule="evenodd"/>
</g>
<g id="e" transform="translate(.35)">
<path d="m52.8 11.9q-5-5-11.2-7.05l-4.5-1.1-1.65-0.2-3.15-0.15-4.15 0.3-3.15 0.6q-3.8 0.9-7.2 2.9-3.2 1.85-6.05 4.7l-0.6 0.6q-6 6.3-7.45 14.55-0.25 1.35-0.35 2.8-0.1 1.25-0.05 2.55-0.05 2.5 0.35 4.85 1.35 8.95 8.1 15.65 8.5 8.5 20.55 8.55 12-0.05 20.5-8.55t8.5-20.5-8.5-20.5m-6.05-8.7q4.65 2.3 8.65 6.3 9.5 9.5 9.55 22.95-0.05 13.45-9.55 22.95t-22.9 9.5q-13.5 0-23-9.5-6.95-6.95-8.8-16.05-0.7-3.3-0.7-6.9 0-1.5 0.15-2.95l0.4-3.1q1.65-9.65 8.95-16.9l0.2-0.25q2.75-2.7 5.85-4.6 4.05-2.55 8.75-3.7l4.55-0.8 3.65-0.15 4.1 0.25 2.35 0.35q4.1 0.75 7.8 2.6" fill="#bed399" fill-rule="evenodd"/>
<path d="m52.8 11.9q8.5 8.5 8.5 20.5t-8.5 20.5-20.5 8.55q-12.05-0.05-20.55-8.55-6.75-6.7-8.1-15.65-0.4-2.35-0.35-4.85-0.05-1.3 0.05-2.55 0.1-1.45 0.35-2.8 1.45-8.25 7.45-14.55l0.6-0.6q2.85-2.85 6.05-4.7 3.4-2 7.2-2.9l3.15-0.6 4.15-0.3 3.15 0.15 1.65 0.2 4.5 1.1q6.2 2.05 11.2 7.05" fill="#c6e0ac" fill-rule="evenodd"/>
<path d="m46.75 3.2q4.65 2.3 8.65 6.3 9.5 9.5 9.55 22.95-0.05 13.45-9.55 22.95t-22.9 9.5q-13.5 0-23-9.5-6.95-6.95-8.8-16.05m-0.55-9.85 0.4-3.1" fill="none" stroke="#002600" stroke-linecap="round" stroke-linejoin="round" stroke-opacity=".30196"/>
<path d="m42.6 59.5q-4.05 1-9.8 1t-9.8-1-4.05-2.4 4.05-2.4 9.8-1 9.8 1 4.05 2.4-4.05 2.4" fill="#bed399" fill-rule="evenodd"/>
</g>
<g id="d" transform="translate(-275.8,-232.2)">
<path d="m290.6 240.9 0.05-0.55 0.05-0.1q-0.65-5.3-4.95-7.55l-0.25-0.15q-3.15-1.2-3.5 4.35 0.8 2.5 1.55 3.85l2.6 0.3 0.75-1.85-0.9-0.95q-1.5 0.1-0.95 1.35l-0.5-0.1-0.9-1.2-0.05-1.2 1.6-2.3 2.55 1.6 1.1 2.65-0.8 2.25 0.2 1.2-1.45 1.3-1.25-0.25v0.1l-4.55-1.25-1 1.15-0.05 2.35v0.1l0.1 0.2-0.05 0.1 0.05 0.05q1.5 2.75 3.75 2.2l-1.45-2.15 1.05-0.35 1.15 1.6-0.5 0.8-0.05 0.05-0.1 0.25q-2 2.7-7.95 5.25l5.35-0.7-0.1-1 5-4.1 2.5-4.6 0.3-3.25 0.7-1.15 0.9 1.7m-5.3-0.85-0.25-0.45 0.25 0.45" fill="#f5efd5" fill-rule="evenodd"/>
<path d="m283.55 240.75 0.85 0.9q-1.8-0.75-2.65-0.65l-1.05 0.15q-1.7 2-0.75 4.75l0.05-2.35 1-1.15 4.55 1.25v-0.1l1.25 0.25 1.45-1.3-0.2-1.2 0.8-2.25-1.1-2.65-2.55-1.6-1.6 2.3 0.05 1.2 0.9 1.2 0.5 0.1q-0.55-1.25 0.95-1.35h0.1l0.05-0.1q2.25 0.1 1.15 3.1v0.1l-0.65 0.55q-0.6 0.4-1.2 0.4-0.4-0.05-0.85-0.4l-0.2-0.25 0.2 0.25q0.45 0.35 0.85 0.4 0.6 0 1.2-0.4l0.65-0.55v-0.1q1.1-3-1.15-3.1l-0.05 0.1h-0.1l0.9 0.95-0.75 1.85-2.6-0.3m0.25 7.8 0.2-0.05 0.05-0.05 0.5-0.8-1.15-1.6-1.05 0.35 1.45 2.15m-2.5 4.75 2.7-0.9q6.35-3.9 6.6-11.5l-0.9-1.7-0.7 1.15-0.3 3.25-2.5 4.6-5 4.1 0.1 1" fill="#e8d99b" fill-rule="evenodd"/>
<path d="m290.6 240.9 0.05-0.55 0.05-0.1q-0.65-5.3-4.95-7.55l-0.25-0.15q-3.15-1.2-3.5 4.35 0.8 2.5 1.55 3.85l0.85 0.9q-1.8-0.75-2.65-0.65l-1.05 0.15q-1.7 2-0.75 4.75m0 0.1 0.1 0.2-0.05 0.1 0.05 0.05q1.5 2.75 3.75 2.2l0.2-0.05-0.1 0.25q-2 2.7-7.95 5.25l5.35-0.7 2.7-0.9q6.35-3.9 6.6-11.5m-4.6-2.65h0.1l0.05-0.1q2.25 0.1 1.15 3.1v0.1l-0.65 0.55q-0.6 0.4-1.2 0.4-0.4-0.05-0.85-0.4l-0.2-0.25m1.6-3.4q-1.5 0.1-0.95 1.35l0.25 0.45m-2.95 6.35 1.05-0.35 1.15 1.6-0.5 0.8-0.05 0.05" fill="none" stroke="#b49d50" stroke-linecap="round" stroke-linejoin="round" stroke-opacity=".50196" stroke-width=".3"/>
</g>
<g id="a" transform="translate(.15 .5)">
<use transform="translate(-.15 -.5)" width="61.75" height="62.099998" xlink:href="#c"/>
</g>
<g id="c" transform="translate(.15 .5)">
<path d="m47.25 1.45 0.3 0.1q2.3 1 3.45 2.7l0.15 0.2-2 5.45-7.65 5.15-10.15 2.85-10.1 1.25q1.4-0.15 3 0l0.6 0.05 3.2 0.45q4.35 0.45 7.75-1.9 2.75 0.2 5.7-0.9 2.35 1.8 1.6 3.9-0.85 2.15-4.8 3.55l4.45-0.2q2.25 1.2 1.7 3.1-0.4 1.35-2.05 1.85 4.15 2.7-1.05 4.9-0.5 5.85-15.8 8.05l-3.15 0.55q-3.05 0.7-2.45 6.2l0.05 0.45 0.2 0.4q0.55 1.25 1.4 2.4l2.3 4.85 5.85 2.1 4.4-1.15q-0.85 2.05-4.75 1.85l-0.75 0.25q-3.5-0.2-7-2.35-4.25-1.25-8.25-7.75-2.6-6.65-0.1-8.75 4.1-3.35 5.25-7.45l-0.15-0.7q0.45-9.25-2.6-10.9-4.55-0.7-2.3-3.1-10.6-3.5-6.5-9.2 6.3-4.35 11.75-5.75 9.55-2.95 17.25-3l0.45 0.05q5.15 0 8.75 1.3l2.05-0.85m-10.8 10.2q6.45-1.6 9.5-3.6 3.45-2.25 0.65-3.75-2.85-1.45-10.3-1.2l-1.55 0.05q-6.65 0.3-13.55 1.85-7.7 1.75-11.15 4-3.45 2.2-0.6 3.7l0.2 0.05 0.3 0.15q1.9 0.8 5.5 1l0.45 0.05h3.8q7.45-0.2 15.15-1.9l1.6-0.4m-7.4 2.25q-13.35 2.1-2.65 1.75 7.7 0.15 12.65-2.2 9.35-3.8 5.35-3.7-5.45 3-15.3 4.15h-0.05" fill="#f5efd5" fill-opacity=".65882" fill-rule="evenodd"/>
<path d="m51.15 4.45 0.65 1.4 0.1 0.3q4.15 3.6-1.05 7.15v0.05q5.95 3.9 0 7.1l0.1 2.6-1.3 7.65-4.05 6.7-5.1 3.9-9.3 2.25-4.3 4.1q-2.65 7.7 4.6 10.15l0.15 0.1h0.05l2.6-0.45-0.15 0.35-4.4 1.15-5.85-2.1-2.3-4.85q-0.85-1.15-1.4-2.4l-0.2-0.4-0.05-0.45q-0.6-5.5 2.45-6.2l3.15-0.55q15.3-2.2 15.8-8.05 5.2-2.2 1.05-4.9 1.65-0.5 2.05-1.85 0.55-1.9-1.7-3.1l-4.45 0.2q3.95-1.4 4.8-3.55 0.75-2.1-1.6-3.9-2.95 1.1-5.7 0.9-3.4 2.35-7.75 1.9l-3.2-0.45-0.6-0.05q-1.6-0.15-3 0l10.1-1.25 10.15-2.85 7.65-5.15 2-5.45m-16.4-1.3 1.55-0.05q7.45-0.25 10.3 1.2 2.8 1.5-0.65 3.75-3.05 2-9.5 3.6l-2.75-3.55q-1.75-2.25 1.05-4.95m16.1 17.2-0.05 0.05 0.05 0.05v-0.1" fill="#bdaa66" fill-opacity=".65882" fill-rule="evenodd"/>
<path d="m36.45 11.65-1.6 0.4q-7.7 1.7-15.15 1.9h-3.8q2.25-3.4 12.85-6.55-13.25 0.8-18.8 5.5l-0.3-0.15-0.2-0.05q-2.85-1.5 0.6-3.7 3.45-2.25 11.15-4 6.9-1.55 13.55-1.85-2.8 2.7-1.05 4.95l2.75 3.55" fill="#b49d50" fill-opacity=".65882" fill-rule="evenodd"/>
<path d="m15.9 13.95-0.45-0.05q-3.6-0.2-5.5-1 5.55-4.7 18.8-5.5-10.6 3.15-12.85 6.55" fill="#94823a" fill-opacity=".65882" fill-rule="evenodd"/>
<path d="m34.3 57.45 2.65-0.4q-0.45 3.45-6.35 4l-0.4 0.05q-8.45-0.75-13.4-4l-0.5-0.25q-3.05-2.1-4.9-6.7l-0.3-0.35q-3.25-7.3 3.75-12.85 2.1-2 1.65-7.2l-0.05-0.75-0.65-2.85q-0.45-1.65-0.9-1.85l-1.6-0.7-0.35-0.15q-2.65-0.45-1.8-3.8l-0.4-0.1q-6.75-1.1-7.1-5.1-0.2-2 1.4-4.1 1.55-2.1 4.4-3.8l0.4-0.2q3.8-2 9.75-3.55 8.05-4.1 24.8-2.15l0.15 0.05 0.65 0.1 2.05 0.65-2.05 0.85q-3.6-1.3-8.75-1.3l-0.45-0.05q-7.7 0.05-17.25 3-5.45 1.4-11.75 5.75-4.1 5.7 6.5 9.2-2.25 2.4 2.3 3.1 3.05 1.65 2.6 10.9l0.15 0.7q-1.15 4.1-5.25 7.45-2.5 2.1 0.1 8.75 4 6.5 8.25 7.75 3.5 2.15 7 2.35l0.75-0.25q3.9 0.2 4.75-1.85l0.15-0.35m-5.25-43.55h0.05q9.85-1.15 15.3-4.15 4-0.1-5.35 3.7-4.95 2.35-12.65 2.2-10.7 0.35 2.65-1.75" fill="#fbf9ee" fill-opacity=".65882" fill-rule="evenodd"/>
<path d="m47.25 1.45 0.3 0.1q2.3 1 3.45 2.7l0.15 0.2 0.65 1.4 0.1 0.3q4.15 3.6-1.05 7.15v0.05q5.95 3.9 0 7.1l0.1 2.6-1.3 7.65-4.05 6.7-5.1 3.9-9.3 2.25-4.3 4.1q-2.65 7.7 4.6 10.15m2.8-0.35 2.65-0.4q-0.45 3.45-6.35 4l-0.4 0.05q-8.45-0.75-13.4-4l-0.5-0.25q-3.05-2.1-4.9-6.7l-0.3-0.35q-3.25-7.3 3.75-12.85 2.1-2 1.65-7.2l-0.05-0.75-0.65-2.85q-0.45-1.65-0.9-1.85l-1.6-0.7-0.35-0.15q-2.65-0.45-1.8-3.8l-0.4-0.1q-6.75-1.1-7.1-5.1-0.2-2 1.4-4.1 1.55-2.1 4.4-3.8l0.4-0.2q3.8-2 9.75-3.55 8.05-4.1 24.8-2.15l0.15 0.05 0.65 0.1 2.05 0.65z" fill="none" stroke="#f9f49f" stroke-linecap="round" stroke-linejoin="round" stroke-opacity=".39608"/>
<path d="m30.9 58.95 2.15 1.4-6.95 0.2q-11.75-3.2-2.4-4.5l1.3-0.2 1.55 0.8q-4.4 0.35 3.2 2.15l1.15 0.15" fill="#f5efd5" fill-opacity=".65882" fill-rule="evenodd"/>
<path d="m41.65 53.4 2.7-0.9q4.45-1.5-1.6-3.55 18 1.95-1.1 8.5l-0.1 0.05-10.1-1.4q3.2-1.15 5.65-1.6l4.55-1.1" fill="#f5efd5" fill-opacity=".65882" fill-rule="evenodd"/>
<path d="m34.75 45.45-5.7-1.05 8.8 0.35-2.05 4.85-16.15 3.75 12.45-4.1 2.65-3.8" fill="#f5efd5" fill-opacity=".65882" fill-rule="evenodd"/>
<path d="m10.9 26.65-0.5 3.25 4.05 2.6 5.5 0.25-5.35 1.45-9.25-3.55 5.55-4" fill="#f5eed4" fill-opacity=".65882" fill-rule="evenodd"/>
<path d="m49.1 34.35q-1.7-1.5-3.6-4.7-0.6-8.55 5.15-8.75l0.45-0.05q7.85 0.45 9.9 8l0.1 0.2 0.1 0.9-1.95-1.95-1.1 2.2 0.25 5.15-3.3 8.55-7.55 9.65 0.35 1.3q-4.55 3.05-9 4.65 9.7-7.85 12.45-13.2l0.25-0.5v-0.05l0.6-1.65-2.2-1.5-1.85 1.15 2.95 2.35q-3.7 2.3-6.7-0.8l-0.25-0.2 0.05-0.1-0.05-0.2-0.25-0.25-0.2-3.5 1.45-2.35 7.9-1.25-0.05-0.1 2.15-0.4 2.35-3.05-0.75-1.7 0.95-3.85-2.4-3.4-4.75-0.6-2.2 4.65 0.45 1.75 1.6 1.15 0.95-0.25q-1.3-1.4 1.3-2.6l1.7 0.75-0.8 3.35-4.45 1.2m2.8-2.1-0.55-0.6 0.55 0.6" fill="#f5efd5" fill-opacity=".65882" fill-rule="evenodd"/>
<path d="m49.1 34.35 4.45-1.2 0.8-3.35-1.7-0.75q-2.6 1.2-1.3 2.6l-0.95 0.25-1.6-1.15-0.45-1.75 2.2-4.65 4.75 0.6 2.4 3.4-0.95 3.85 0.75 1.7-2.35 3.05-2.15 0.4 0.05 0.1-7.9 1.25-1.45 2.35 0.2 3.5q-2.25-3.45 0.25-7.55l1.75-0.9q1.5-0.75 4.7-0.8-0.7-0.3-1.5-0.95m2 11.75-2.95-2.35 1.85-1.15 2.2 1.5-0.6 1.65v0.05l-0.5 0.3m1.55-17.05 0.2-0.1 0.05-0.15q3.8-1.3 2.75 4l-0.1 0.1-0.95 1.2q-0.9 1.05-1.95 1.35l-1.55 0.05-0.5-0.2 0.5 0.2 1.55-0.05q1.05-0.3 1.95-1.35l0.95-1.2 0.1-0.1q1.05-5.3-2.75-4l-0.05 0.15-0.2 0.1" fill="#e8d99b" fill-opacity=".65882" fill-rule="evenodd"/>
<path d="m47.9 54.85-0.35-1.3 7.55-9.65 3.3-8.55-0.25-5.15 1.1-2.2 1.95 1.95q1.1 11.65-9 21.75l-4.3 3.15" fill="#b7a157" fill-opacity=".65882" fill-rule="evenodd"/>
<path d="m61.2 29.95-0.1-0.9-0.1-0.2q-2.05-7.55-9.9-8l-0.45 0.05q-5.75 0.2-5.15 8.75 1.9 3.2 3.6 4.7m3.55-5.3q-2.6 1.2-1.3 2.6l0.55 0.6m-7.75 12.55 0.05 0.2-0.05 0.1 0.25 0.2q3 3.1 6.7 0.8m-2.95-2.35 1.85-1.15 2.2 1.5-0.6 1.65v0.05l-0.25 0.5q-2.75 5.35-12.45 13.2 4.45-1.6 9-4.65m13.3-24.9q1.1 11.65-9 21.75l-4.3 3.15m-4-10.3q-2.25-3.45 0.25-7.55l1.75-0.9q1.5-0.75 4.7-0.8-0.7-0.3-1.5-0.95m1.5 0.95 0.5 0.2 1.55-0.05q1.05-0.3 1.95-1.35l0.95-1.2 0.1-0.1q1.05-5.3-2.75-4l-0.05 0.15-0.2 0.1m-1.05 16.75-0.5 0.3" fill="none" stroke="#b49d50" stroke-linecap="round" stroke-linejoin="round" stroke-opacity=".65882" stroke-width=".6"/>
<path d="m24.15 28.5-0.25 0.15v0.05l-0.05-0.05 0.3-0.15" fill="#faf7e7" fill-opacity=".65882" fill-rule="evenodd"/>
<path d="m33.45 22.9 2.3 1.2 3.85-1.9-2.3 3.55-1.05-0.2-2 0.05q-0.05-1.5-0.8-2.7m-15.5-0.45q0.85-0.85 2.05-0.8 1.2-0.05 2.05 0.8t0.85 2.1q0 1.2-0.85 2.05t-2.05 0.85-2.05-0.85-0.85-2.05q0-1.25 0.85-2.1" fill="#94823a" fill-opacity=".65882" fill-rule="evenodd"/>
<path d="m12.8 36.3q-0.35-1.2-0.35-2.65 0-2.45 0.95-4.2 0.75-1.45 1.95-1.8l0.2-0.1h0.1q2.1-0.2 2.7 1.95l-0.35 1.5-1.4 4.65q-1.75 2.75-3.8 0.65" fill="#fbf9ee" fill-opacity=".65882" fill-rule="evenodd"/>
<path d="m18.65 31.95 0.1 1.7-0.05 0.85q-0.15 1.7-0.75 3.05-1.6 2.8-3.2 1.8-0.75-0.35-1.35-1.5l-0.6-1.55q2.05 2.1 3.8-0.65l1.4-4.65 0.35-1.5 0.25 1.6v0.5l0.05 0.35" fill="#d0c295" fill-opacity=".65882" fill-rule="evenodd"/>
<path d="m40.2 27.6 0.15 0.2 0.4 0.6 0.25 0.45q0.5 1 0.65 2.1l0.1 1.05-0.25 1.75-0.3 0.9-0.65 1.35-0.1 0.15q-0.95 1.8-2.4 2.95-3 2.4-7.15 2.45l-3.55-0.35q-2.2-0.5-3.65-1.65l-1.25-1.1q0.05 0.4-0.95-1.1l-0.4-0.75q4.8 3.1 14 0.5 7.55-2.7 3.9-8.9-1.25-2.45-4.75-2.6l2-0.05 1.05 0.2q1.15 0.25 2.05 1l0.85 0.85" fill="#dbd0a4" fill-opacity=".65882" fill-rule="evenodd"/>
<path d="m21.1 36.6-0.05-0.1-0.3-1.4v-0.5q-0.05-1.3 0.45-2.45l0.1-0.3q1-2.4 2.55-3.2l0.05 0.05v-0.05l0.25-0.15q1.45-1.05 3.7-1.9 2.7-1 4.75-1h1.65q3.5 0.15 4.75 2.6 3.65 6.2-3.9 8.9-9.2 2.6-14-0.5" fill="#f5efd5" fill-opacity=".65882" fill-rule="evenodd"/>
<path d="m23.85 28.65q-0.75-1.25-0.75-2.85 0-2.3 1.6-3.95 1.65-1.6 4-1.6 2.3 0 3.9 1.6l0.85 1.05q0.75 1.2 0.8 2.7h-1.65q-2.05 0-4.75 1-2.25 0.85-3.7 1.9l-0.3 0.15" fill="#b49d50" fill-opacity=".65882" fill-rule="evenodd"/>
<path d="m40.45 36.15q-0.95 1.8-2.4 2.95-3 2.4-7.15 2.45l-3.55-0.35q-2.2-0.5-3.65-1.65l-1.25-1.1q0.05 0.4-0.95-1.1l-0.4-0.75m-0.05-0.1-0.3-1.4q-0.65-1.35-1.85-0.55v-0.65l-0.1-1.6m-6 4q-0.35-1.2-0.35-2.65 0-2.45 0.95-4.2 0.75-1.45 1.95-1.8m18.1-4.75 2.3 1.2 3.85-1.9-2.3 3.55q1.15 0.25 2.05 1l0.85 0.85m-5.95-2 2-0.05 1.05 0.2m-13.15 2.75q1.45-1.05 3.7-1.9 2.7-1 4.75-1h1.65m-10.35 3.05 0.25-0.15m-3.4 6.6v-0.5q-0.05-1.3 0.45-2.45" fill="none" stroke="#b49d50" stroke-linecap="round" stroke-linejoin="round" stroke-opacity=".32941" stroke-width=".6"/>
<path d="m34.25 25.6q-0.05-1.5-0.8-2.7" fill="none" stroke="#b49d50" stroke-linecap="round" stroke-linejoin="round" stroke-opacity=".32941" stroke-width=".6"/>
<path d="m40.55 36-0.1 0.15" fill="none" stroke="#6f0" stroke-linecap="round" stroke-linejoin="round" stroke-opacity=".65882" stroke-width=".05"/>
<path d="m18.8 32.3-0.15-0.35" fill="none" stroke="#6f0" stroke-linecap="round" stroke-linejoin="round" stroke-opacity=".65882" stroke-width=".05"/>
<path d="m24.15 28.5-0.3 0.15" fill="none" stroke="#70622c" stroke-linecap="round" stroke-linejoin="round" stroke-opacity=".65882" stroke-width=".05"/>
<path d="m36.35 31.65q-2.1 1.9-5.5 2.7t-6.1 0q-2.7-0.75-3.1-2.55-0.45-1.85 1.65-3.7t5.5-2.65 6.1-0.05 3.2 2.6q0.35 1.8-1.75 3.65" fill="url(#h)" fill-rule="evenodd"/>
<path d="m19.95 32.35q-0.8 1.6-2.3 1.95t-2.85-0.75q-1.4-1.05-1.75-2.9-0.5-1.8 0.3-3.35 0.75-1.55 2.25-1.9t2.9 0.7q1.35 1.05 1.8 2.9 0.4 1.8-0.35 3.35" fill="url(#g)" fill-rule="evenodd"/>
<path d="m0.2 36.3-0.1-0.8-0.1-0.15q-0.15-7.15 4.9-9.05l0.25-0.05q3.65-0.8 5.05 6.9l-1.35 4.85-3.1-0.2-1.25-2.9 0.95-1.05q1.85 0.65 1.4 2.25l0.6-0.05 0.85-1.4-0.05-1.65-2.35-3.65-2.9 1.5q-0.55 1.7-0.95 3.4l1.4 3.3-0.1 1.55 2.05 2.3 1.45-0.05 0.1 0.15 5.3-0.5 1.5 1.85 0.45 3.25v0.25l-0.1 0.25 0.05 0.1-0.05 0.1q-1.35 3.3-4.2 2l1.4-2.6-1.35-0.8-1.15 1.85 0.75 1.25 0.1 0.15 0.15 0.35q2.85 4.3 10.7 9.45-3.15-0.65-6.75-2.45l-0.05-1.3-6.8-7.15-3.85-6.95-0.9-4.6-1.15-1.8-0.8 2.1m6.45 0.35 0.2-0.55-0.2 0.55" fill="#f5efd5" fill-opacity=".65882" fill-rule="evenodd"/>
<path d="m8.85 38-0.8 1.05 3.15-0.15 1.3 0.55q2.4 3.15 1.7 6.65l-0.45-3.25-1.5-1.85-5.3 0.5-0.1-0.15-1.45 0.05-2.05-2.3 0.1-1.55-1.4-3.3q0.4-1.7 0.95-3.4l2.9-1.5 2.35 3.65 0.05 1.65-0.85 1.4-0.6 0.05q0.45-1.6-1.4-2.25h-0.15l-0.05-0.1q-2.75-0.5-0.9 3.95-0.05 0.15 0.05 0.15l0.9 0.95 1.5 0.9 0.95-0.3 0.3-0.35-0.3 0.35-0.95 0.3-1.5-0.9-0.9-0.95q-0.1 0-0.05-0.15-1.85-4.45 0.9-3.95l0.05 0.1h0.15l-0.95 1.05 1.25 2.9 3.1 0.2m1.05 10.8-0.25-0.15-0.1-0.15-0.75-1.25 1.15-1.85 1.35 0.8-1.4 2.6m3.85 7.2-3.4-2q-8.5-7.15-10.15-17.7l0.8-2.1 1.15 1.8 0.9 4.6 3.85 6.95 6.8 7.15 0.05 1.3" fill="#e8d99b" fill-opacity=".65882" fill-rule="evenodd"/>
<path d="m0.2 36.3-0.1-0.8-0.1-0.15q-0.15-7.15 4.9-9.05l0.25-0.05q3.65-0.8 5.05 6.9l-1.35 4.85-0.8 1.05 3.15-0.15 1.3 0.55q2.4 3.15 1.7 6.65m0 0.25-0.1 0.25 0.05 0.1-0.05 0.1q-1.35 3.3-4.2 2l-0.25-0.15 0.15 0.35q2.85 4.3 10.7 9.45-3.15-0.65-6.75-2.45l-3.4-2q-8.5-7.15-10.15-17.7m5.25-2.45h-0.15l-0.05-0.1q-2.75-0.5-0.9 3.95-0.05 0.15 0.05 0.15l0.9 0.95 1.5 0.9 0.95-0.3 0.3-0.35m-2.6-5.2q1.85 0.65 1.4 2.25l-0.2 0.55m4.65 9.55-1.35-0.8-1.15 1.85 0.75 1.25 0.1 0.15" fill="none" stroke="#b49d50" stroke-linecap="round" stroke-linejoin="round" stroke-opacity=".32941" stroke-width=".3"/>
</g>
<radialGradient id="h" cx="0" cy="0" r="819.2" gradientTransform="matrix(.0101 -.0023 .0013 .0054 29.85 29.9)" gradientUnits="userSpaceOnUse">
<stop stop-color="#fcfaef" stop-opacity=".65882" offset="0"/>
<stop stop-color="#fbf8ed" stop-opacity="0" offset="1"/>
</radialGradient>
<radialGradient id="g" cx="0" cy="0" r="819.2" gradientTransform="matrix(.0045 -.001 .0013 .0054 16.65 29.85)" gradientUnits="userSpaceOnUse">
<stop stop-color="#fcfaef" stop-opacity=".65882" offset="0"/>
<stop stop-color="#fbf8ed" stop-opacity="0" offset="1"/>
</radialGradient>
<g id="b" transform="translate(-251.7,-196.1)">
<path d="m274.2 217.95q-5.15 4.05-11.1 4.4-5.95 0.3-9.15-3.25-3.2-3.6-1.85-9.05 1.4-5.45 6.6-9.55 5.15-4.05 11.1-4.35 5.95-0.35 9.2 3.25 3.2 3.6 1.75 9.05-1.35 5.4-6.55 9.5" fill="#f8f3ed" fill-opacity=".2" fill-rule="evenodd"/>
<path d="m252.75 208.65q1.25-4.6 5.6-8.05t9.4-3.65q5.05-0.35 7.75 2.7t1.55 7.65q-1.2 4.65-5.55 8.1-4.4 3.35-9.4 3.7-5.05 0.3-7.7-2.75-2.75-3.05-1.65-7.7" fill="#f8f3ed" fill-opacity=".2" fill-rule="evenodd"/>
<path d="m253.8 208.35q1.05-4 4.8-6.95 3.8-3 8.15-3.25t6.7 2.35q2.4 2.65 1.35 6.65t-4.85 6.95q-3.75 3-8.1 3.25-4.35 0.2-6.65-2.4-2.4-2.65-1.4-6.6" fill="#f8f3ed" fill-opacity=".6" fill-rule="evenodd"/>
<path d="m260.55 202.9q2.15-1.7 4.6-1.8 2.5-0.15 3.8 1.35 1.35 1.5 0.75 3.75t-2.75 3.95q-2.1 1.7-4.6 1.85-2.45 0.1-3.8-1.35-1.3-1.5-0.75-3.75 0.55-2.3 2.75-4" fill="#fff" fill-opacity=".8" fill-rule="evenodd"/>
</g>
</defs>
</svg>
