<?xml version="1.0" encoding="UTF-8"?>
<svg version="1.1" viewBox="0 0 100.59 112.4" xmlns="http://www.w3.org/2000/svg" xmlns:cc="http://creativecommons.org/ns#" xmlns:dc="http://purl.org/dc/elements/1.1/" xmlns:rdf="http://www.w3.org/1999/02/22-rdf-syntax-ns#" xmlns:xlink="http://www.w3.org/1999/xlink">
<metadata>
<rdf:RDF>
<cc:Work rdf:about="">
<dc:format>image/svg+xml</dc:format>
<dc:type rdf:resource="http://purl.org/dc/dcmitype/StillImage"/>
</cc:Work>
</rdf:RDF>
</metadata>
<g transform="translate(-135.62 -123.82)">
<use transform="translate(135.65,123.85)" width="100.55" height="112.35" xlink:href="#a"/>
</g>
<defs>
<g id="a">
<path d="m54.4 9.3q11.75 0.9 20.65 4.85 9.1 4.1 9.75 9.3-0.25 2.1-1.85 4-4.45-3.1-9.4-5.2-8.95-3.9-19.65-4.65l0.5-8.3m-0.5 8.55q0.6 0.25 0 0.15v-0.15" fill="#532d1a" fill-rule="evenodd"/>
<path d="m93.95 22.9v0.25-0.25m-0.95 6.15-2.75 16.8-0.95 5.25-2.8 8.1-8.5 6.5 3-25.75q9.4-4.8 12-10.9" fill="#845128" fill-rule="evenodd"/>
<path d="m92.55 51.6-5.1 20.6-2.2 1.55-8.8 5.9-4.85 1.5q-19.75 6.2-40.15 2.85l-3.25-11.8q16.15 3.25 32.6 1.95 22.25-2.35 31.75-22.55m-6.6 31.75-4.45 17.75q-3.7 2.6-8 4.65-19.1 9.3-40.15 5.5l-2.8-10.15q10.25 2 20.7 1.2 17.65-1.1 31.9-11.35l2.8-7.6" fill="#bac1c9" fill-rule="evenodd"/>
<path d="m90.25 45.85 2.3 5.75q-9.5 20.2-31.75 22.55-16.45 1.3-32.6-1.95l3.25 11.8q-9.3-2.7-17.9-7.45l-4.9-2.8-7.4-21.7 2.45-6.2 4.35 13.8 4.4 2.7q8.9 5.3 18.55 8.6 20.95 2.9 41.2-3.25l5-1.55 0.8-0.45 8.5-6.5 2.8-8.1 0.95-5.25m-6.05 33.3 1.75 4.2-2.8 7.6q-14.25 10.25-31.9 11.35-10.45 0.8-20.7-1.2l2.8 10.15q-9.4-2.45-17.75-7.6l-1.85-1.2-6.4-18.7 1.85-4.6 0.25-0.75 3.75 11.9 3.55 2.25q7.15 4.6 15.15 7.1 17.75 3.2 34.9-2.05l5.9-1.7 0.7-0.4 1.25-0.95 6.05-4.65 2.45-6.95 0.75-4.55 0.3 0.75" fill="#6b7989" fill-rule="evenodd"/>
<path d="m85.25 73.75-1.05 5.4-0.3-0.75-0.75 4.55-2.45 6.95-6.05 4.65 1.8-14.9 8.8-5.9" fill="#855228" fill-rule="evenodd"/>
<path d="m73.6 33.4-1.5 0.55-0.35-0.15 1.5-0.8 0.35 0.4m-19.8-15.8h0.1l-0.1 0.25-0.05-0.05 0.05-0.2" fill="#69c" fill-rule="evenodd"/>
<path d="m12.95 29.05q-3.2-2.6-3.5-5.6 0.55-5.2 9.7-9.3h0.05q11.55-5.15 27.9-5.15l7.3 0.3-0.5 8.3h-0.1l-0.55-0.05q-2.5-0.85-14.15 0.25-14.35 1.35-20.7 6.4-4.05 3.2-5.45 4.85m40.85-11.2h0.1v0.15l-0.15-0.2 0.05 0.05" fill="#6d3d23" fill-rule="evenodd"/>
<path d="m40.7 46.7-0.05 0.3 0.05-0.3 2.5 0.15 3.9 0.05q18.6 0 31.75-5.95l2.15-1-3 25.75-0.8 0.45-5 1.55q-20.25 6.15-41.2 3.25l-2.85-25.9q5.85 1.25 12.55 1.65m-9.7 40.55 0.45-3.25q20.4 3.35 40.15-2.85l4.85-1.5-1.8 14.9-1.25 0.95-0.7 0.4-5.9 1.7q-17.15 5.25-34.9 2.05l-0.9-12.4" fill="#97602b" fill-rule="evenodd"/>
<path d="m9.2 79.15-0.55-5.4 4.9 2.8q8.6 4.75 17.9 7.45l-0.45 3.25 0.9 12.4q-8-2.5-15.15-7.1l-3.55-2.25-3.75-11.9-0.25 0.75m-5.5-33.3-3.1-18.85q1.8 8.1 14.8 13.95 5.8 2.65 12.75 4.1l2.85 25.9q-9.65-3.3-18.55-8.6l-4.4-2.7-4.35-13.8m-3.35-20.25-0.1-0.65-0.25-1.6 0.3 0.75v0.85l0.05 0.65m-0.05-0.65h-0.05 0.05" fill="#693f21" fill-rule="evenodd"/>
<path d="m78.95 30.7-3.9 2.05-1.25 0.55-0.55-0.3-1.5 0.8v0.3l-1.35 0.45 0.5-0.15q-10.85-0.95-22.05-0.25-8.8 0.55-16.7-2l-1.2-0.4-0.3-0.75q-0.05-0.45 0.05-0.8 1.4-2.25 3.65-3.55 2.3-1.35 4.75-2.5l1.75-1q1.55-1.1 1.45-2.1 13.75-1.7 26.85 3.9l3.9 1.85 3.2 2 2.7 1.9m-61 1.5-1.65-0.85 0.9-0.65-0.15 1 0.9 0.5m31.35-9.05h-8.45 8.45m13 1.8h6.85-6.85m6 4.2h-20 20m-32.95 3h-3.2 3.2" fill="#62c7cc" fill-rule="evenodd"/>
<path d="m84.4 8.85q5.65 3.5 8 7.75 1.55 2.95 1.55 6.25v0.3l-0.05 0.3q0.15 2.9-0.9 5.6-2.6 6.1-12 10.9l-2.15 1q-13.15 5.95-31.75 5.95l-3.9-0.05-2.5-0.15q-6.7-0.4-12.55-1.65-6.95-1.45-12.75-4.1-13-5.85-14.8-13.95l-0.25-1.4-0.05-0.65v-2.55q0.05-3.95 2.55-7.35 3.65-5.1 12.55-9.1 8.85-4 20.25-5.3l11.45-0.65 10.1 0.5 4.8 0.6q4.75 0.75 9.05 2 4.1 1.2 7.8 2.85 3.1 1.4 5.55 2.9l-3.6 1.6 3.6-1.6m5.1 7.75h2.9-2.9m-0.35 7.95 3.6 0.4-3.6-0.4m-6.2 2.9q1.6-1.9 1.85-4-0.65-5.2-9.75-9.3-8.9-3.95-20.65-4.85l-7.3-0.3q-16.35 0-27.9 5.15h-0.05q-9.15 4.1-9.7 9.3 0.3 3 3.5 5.6l0.15 0.15q1.35 1.1 3.2 2.15l1.65 0.85 0.95 0.45 0.3 0.1q11.55 5.15 27.9 5.15h2.2l2.15-0.1h0.6l0.65-0.05h0.5l17.2-3.2 1.35-0.45 0.35-0.15 1.5-0.55 0.2-0.1 1.25-0.55 3.9-2.05q2.55-1.55 4-3.25m-26.4-23.85 0.65-3.1-0.65 3.1m11.2 4.7 3.3-5.2-3.3 5.2m-6.15-5.45 0.4-1.75-0.4 1.75m-18.1 40.9-0.3 3.1 0.3-3.1m-2.5-1.1-0.3 4.05 0.3-4.05m-32.95-26.4-5.2-1.2 5.2 1.2m28.6-11.25-1-4.35 1 4.35m-34.75 17.4h-1.6 1.6m5.8 2.55h-7.4 7.4" fill="#b3652d" fill-rule="evenodd"/>
<path d="m82.95 27.45q-1.45 1.7-4 3.25l-2.7-1.9-3.2-2-3.9-1.85q-13.1-5.6-26.85-3.9 0.1 1-1.45 2.1l-1.75 1q-2.45 1.15-4.75 2.5-2.25 1.3-3.65 3.55-0.1 0.35-0.05 0.8l0.3 0.75 1.2 0.4q7.9 2.55 16.7 2 11.2-0.7 22.05 0.25l-0.5 0.15-17.2 3.2h-0.5l-0.65 0.05h-0.6l-2.15 0.1h-2.2q-16.35 0-27.9-5.15l-0.3-0.1-0.95-0.45-0.9-0.5 0.15-1-0.9 0.65q-1.85-1.05-3.2-2.15l-0.15-0.15q1.4-1.65 5.45-4.85 6.35-5.05 20.7-6.4 11.65-1.1 14.15-0.25l0.55 0.05-0.05 0.2 0.15 0.2q0.6 0.1 0-0.15h-0.1l0.1-0.25q10.7 0.75 19.65 4.65 4.95 2.1 9.4 5.2m-30.65 7.7h-7 7m20-10.2h-3.15 3.15m-42.95 7.2h2.8-2.8m11.5-9h-4.5 4.5" fill="#2c8383" fill-rule="evenodd"/>
<path d="m84.8 8.65-0.4 0.2q5.65 3.5 8 7.75 1.55 2.95 1.55 6.25v0.3l-0.05 0.3q0.15 2.9-0.9 5.6l-2.75 16.8 2.3 5.75-5.1 20.6-2.2 1.55-1.05 5.4 1.75 4.2-4.45 17.75q-3.7 2.6-8 4.65-19.1 9.3-40.15 5.5-9.4-2.45-17.75-7.6l-1.85-1.2-6.4-18.7 1.85-4.6-0.55-5.4-7.4-21.7 2.45-6.2-3.1-18.85-0.25-1.4-0.1-0.65-0.25-1.6 0.3-0.75v-0.2q0.05-3.95 2.55-7.35 3.65-5.1 12.55-9.1 8.85-4 20.25-5.3l11.45-0.65 10.1 0.5 4.8 0.6q4.75 0.75 9.05 2 4.1 1.2 7.8 2.85 3.1 1.4 5.55 2.9l-3.6 1.6m13.15 12.55v0.15m0-0.15v-0.15m-1.55-6.25h-2.9m-8.5 23.35q9.4-4.8 12-10.9m-0.25-4.1-3.6-0.4m-34.75-15.25q11.75 0.9 20.65 4.85 9.1 4.1 9.75 9.3-0.25 2.1-1.85 4-1.45 1.7-4 3.25l-3.9 2.05-1.25 0.55-0.2 0.1-1.5 0.55-0.35 0.15-1.35 0.45-17.2 3.2h-0.5l-0.65 0.05h-0.6l-2.15 0.1h-2.2q-16.35 0-27.9-5.15l-0.3-0.1-0.95-0.45-1.65-0.85m-3.2-2.15-0.15-0.15q-3.2-2.6-3.5-5.6 0.55-5.2 9.7-9.3h0.05q11.55-5.15 27.9-5.15l7.3 0.3m28.75 73.65 0.75-4.55 0.3 0.75m5.1-28.05 0.95-5.25m-28.25-44.75-0.4 1.75m9.45 0.25-3.3 5.2m-10.55-7.8-0.65 3.1m-15.9 43.4 0.05-0.3q-6.7-0.4-12.55-1.65m52.85-5.1-2.15 1q-13.15 5.95-31.75 5.95l-3.9-0.05-2.5-0.15 0.3-4.05m2.2 4.2 0.3-3.1m-7.85-43.1 1 4.35m-33.8 10.05 5.2 1.2m-7.75 6.35v2.35h7.4m-7.4-2.55h1.6m-1.6 2.55 0.05 0.65m-0.1-0.65h0.05m0.3 2.05q1.8 8.1 14.8 13.95 5.8 2.65 12.75 4.1m-14.95 45.25-3.75-11.9-0.25 0.75m21.8 8.1 0.45-3.25q-9.3-2.7-17.9-7.45l-4.9-2.8m22.8 10.25q20.4 3.35 40.15-2.85l4.85-1.5 8.8-5.9m-81.55-27.9 4.35 13.8m-7.75-35.55-0.3-0.75" fill="none" stroke="#532d1a" stroke-linecap="round" stroke-linejoin="round" stroke-width=".05"/>
<path d="m28.15 45.05 2.85 25.9m46.2-4.8 0.8-0.45 3-25.75m-49.1 59.7-0.9-12.4m43.65 7.3 1.8-14.9m-3.05 15.85-0.7 0.4" fill="none" stroke="#532d1a" stroke-linecap="round" stroke-linejoin="round" stroke-width=".25"/>
<path d="m40.85 23.15h8.45m-4 12h7m16.85-10.2h-6.85m-30.15 7.2h-2.8m39.8-7.2h3.15m-24 4.2h20m-36.15 3h3.2m1-9h4.5" fill="none" stroke="#fff" stroke-linecap="round" stroke-linejoin="round"/>
<path d="m93.6 18q2.4 4.85 3.8 10.3 4.95 18.8-4.75 33.75-9.7 15-28.35 17.35-18.6 2.35-35.2-9.3t-21.55-30.45q-1.4-5.45-1.6-10.55" fill="none" stroke="#000" stroke-linecap="round" stroke-linejoin="round" stroke-width="3"/>
</g>
</defs>
</svg>
