<?xml version="1.0" encoding="UTF-8"?>
<svg version="1.1" viewBox="0 0 89.175 57.45" xmlns="http://www.w3.org/2000/svg" xmlns:cc="http://creativecommons.org/ns#" xmlns:dc="http://purl.org/dc/elements/1.1/" xmlns:rdf="http://www.w3.org/1999/02/22-rdf-syntax-ns#" xmlns:xlink="http://www.w3.org/1999/xlink">
<metadata>
<rdf:RDF>
<cc:Work rdf:about="">
<dc:format>image/svg+xml</dc:format>
<dc:type rdf:resource="http://purl.org/dc/dcmitype/StillImage"/>
</cc:Work>
</rdf:RDF>
</metadata>
<g transform="translate(-181.45,-189.35)">
<use transform="translate(181.45,189.35)" width="89.150002" height="57.450001" xlink:href="#a"/>
</g>
<defs>
<g id="a" transform="translate(-181.45,-189.35)">
<path d="m270.55 213.95v28.9q-19.9 3.9-46.35 3.95-24.2-0.05-42.75-3.3v-30.2q18.55-3.25 42.75-3.25 26.45 0 46.35 3.9" fill="url(#b)" fill-rule="evenodd"/>
<path d="m207.05 203.95q2-2.6 4.3-4.75l2.9-2.55 1.4-1.1 2.1-1.4q0.9-0.6 1.9-1.15l0.3-0.2 1.55-0.8 0.7-0.3q1.25-0.6 2.55-1.05l2.8-0.75 0.9-0.2 3.65-0.35h0.6l2.95 0.2 0.2 0.05 0.4 0.05 1.65 0.3 1.85 0.35 1.35 0.3 1.9 0.5 2.7 0.9 2 0.75 0.5 0.2 1.7 0.8 0.3 0.15 2 1.1-1.4 1.5-4.1-1.05-0.15 0.15-1.1-1.55v-0.05h-0.05l-5.4 1.05-1 2.7-8.05-0.75-1.75 4.4 2.05 1.25-2.6 2.45-2.3-1.1 0.65-1.2-1.45-2.15-4.15 1.95-1.85-0.25 0.3-2.65-4.65-1.95-3.25 2.5-0.4 3.9-7.05 3.6q0.75-1.45 1.8-2.85l0.6-0.75 0.15-0.2m-8.8 8.55q0.3-0.45 1.2-0.8l0.4-0.1 2.55-1.1 0.35-0.15q3.25 0.9 1.15 3.3l-0.95 0.85q-1.25 0.75-2.6 0.7-0.8-0.05-1.1-0.7l-0.6-0.45 4.15-1.05v-0.05l-0.2-1.75-4.35 2.1-0.05 0.2-0.1-0.15q-0.15-0.35 0-0.6l0.15-0.25m27.3-18.75 1.45-0.25 1.6-1.5 2 0.55 0.6 3.1 3.6 0.65 2.05-2.65-0.8-2.35-5.25-1.2-3.45 1.15-1.8 2.5m14.15 4.1 3.5-0.95 0.8 1.35-4.3-0.4m24.9 10.05 0.1-0.15 0.25-0.15h0.1l1.6 0.2q0.95 0.3 1.25 1.05l0.05 0.25v0.4l-1.7-0.95-1.65-0.65m3.3 1.95-0.25 0.9q-0.2 0.45-0.75 0.45-2.1-0.1-2.55-1.05l3.55-0.3m-21.9-5.95-0.35-0.3h0.1l0.25-0.1v0.4m0.95-0.7 3.05-0.95 2.75 2.75-1.85 4.15-3.6-1.45 1.35-1.75-0.65-0.5 0.75-0.65-0.95-1.6h-0.85m-6.35 0.75 1.05 3.9-3.8 2.5 0.5-6.65 2.25 0.25m-24.15 5.8-2.8-2.7 3.9-2.35 1.2 2.25 1.1-0.05-0.3 3.3-3.1-0.45" fill="#ffffa6" fill-rule="evenodd"/>
<path d="m225.55 193.75 1.8-2.5 3.45-1.15 5.25 1.2 0.8 2.35-2.05 2.65-3.6-0.65-0.6-3.1-2-0.55-1.6 1.5-1.45 0.25m14.15 4.1-0.7-0.1 1-2.7 5.4-1.05h0.05v0.05l1.1 1.55 1.45 2.05-2.45 3.1-1.55-2.5-0.8-1.35-3.5 0.95m28.25 11.65-0.05 0.35-3.55 0.3-0.85 0.05 0.3-2.6 0.75 0.3v0.05l0.05-0.05 1.65 0.65 1.7 0.95m-21.95-6 0.95-0.3h0.85l0.95 1.6-0.75 0.65-2 1.5v-3.45m-7.65 0.2-2.2-0.25 3.55-2.5 1.6 3.1-0.7-0.1-2.25-0.25m-39.7 10.35-0.45-0.55 0.05-0.2 4.35-2.1 0.2 1.75v0.05l-4.15 1.05" fill="#ffffea" fill-rule="evenodd"/>
<path d="m252.2 195 2.95 2.1 0.1 0.05 1.45 1.3 3.1 3.05 0.25 0.3 1.2 1.3 0.65 0.85 1.7 2.6 0.8 0.3 4.25 1.65 0.25 0.2q1.55 1.4 1.6 2.9l-2.4 2.4-5-0.6-5 0.6-2.25 3.5-16.45 6.35-15.5-2v-0.1l-0.05-0.2q-0.35-0.65-1.15-0.65l-0.45 0.2-0.5 0.45-0.75-0.1-7.75-3.8-2.05-2.8v-0.05l-4.65 2.35-9.15-0.85-0.8-0.3q0.05-0.5 0.25-0.95l0.75-2.1 0.65-0.45-0.15 0.25q-0.15 0.25 0 0.6l0.1 0.15 0.45 0.55 0.6 0.45q0.3 0.65 1.1 0.7 1.35 0.05 2.6-0.7l0.95-0.85q2.1-2.4-1.15-3.3l-0.35 0.15-2.55 1.1-0.4 0.1 2.8-1.8 1.85-1.2 0.35-0.75 0.05-0.2 7.05-3.6 0.4-3.9 3.25-2.5 4.65 1.95-0.3 2.65 1.85 0.25 4.15-1.95 1.45 2.15-0.65 1.2 2.3 1.1 2.6-2.45-2.05-1.25 1.75-4.4 8.05 0.75 0.7 0.1 4.3 0.4 1.55 2.5 2.45-3.1-1.45-2.05 0.15-0.15 4.1 1.05 1.4-1.5m15.75 14.5v-0.4l-0.05-0.25q-0.3-0.75-1.25-1.05l-1.6-0.2h-0.1l-0.25 0.15-0.1 0.15-0.05 0.05v-0.05l-0.75-0.3-0.3 2.6 0.85-0.05q0.45 0.95 2.55 1.05 0.55 0 0.75-0.45l0.25-0.9 0.05-0.35m-21.95-6-0.25 0.1h-0.1l0.35 0.3v3.05l2-1.5 0.65 0.5-1.35 1.75 3.6 1.45 1.85-4.15-2.75-2.75-3.05 0.95-0.95 0.3m-5.4 0.45 0.7 0.1-1.6-3.1-3.55 2.5 2.2 0.25-0.5 6.65 3.8-2.5-1.05-3.9m-24.15 5.8 3.1 0.45 0.3-3.3-1.1 0.05-1.2-2.25-3.9 2.35 2.8 2.7" fill="#ff6" fill-rule="evenodd"/>
<path d="m270.5 211.6q0 1.3-1 2.65l-0.45 0.5-4.6 2.7q-2.65 8.3-7.25 12.5-4.7 4.25-14.75 6.8-9.2 2.35-18.85-0.9l-1.75-0.65-0.1-0.05q-4.35-1.7-8.05-4.25-5.25-3.7-9.2-9.1l-7.15-3.55q-0.9-0.9-0.75-2.25l0.8 0.3 10.4 4.15 1.85 3.5 0.15-0.1 1.05 1.95 4.7 4.25 3.5-1.8 1.75 0.8 0.1 2.4 1.4 1 1.1 2.85 13.3 0.75 12.95-3.3 9.85-7.05-0.1-0.1 4.7-9.8 3.6-1.4 2.8-2.8m-46.6 10.25q0.1 0.6-0.45 0.95l-0.4 0.2q-1.25 0.2-1.45-0.95 0-0.3 0.15-0.5l0.5-0.45 0.45-0.2q0.8 0 1.15 0.65l0.05 0.2v0.1m32.15 0.95q-1.8 5.2-6.55 8.15l-12.6 3.75-4.7-0.95 7.05-0.65 9.3-3.55q5.4-2.45 7.5-6.75m-40.4-0.5 2.1 2.95q0.15 0.45 1.1 0.25 0.95-0.25-0.95 1.55t-1.9 1.2-1.55-0.8q-1.6-0.2-2.5-1.85-0.95-1.65 1.25-3.15 2.15-1.55 2.45-0.15m6.5 3.4 0.15-0.2 0.1-0.2 0.25-0.25 0.3-0.05 0.6-0.15v-0.1l1.15 0.25 0.35 0.15 0.35 0.45 0.25 0.6-0.1 0.45-0.55 0.85-2.45-0.05v-0.05l-0.45-0.6q-0.15-0.55 0.05-1.1" fill="#ccd610" fill-rule="evenodd"/>
<path d="m268.1 214-0.4 0.4-3.6 1.4-4.7 9.8 0.1 0.1-9.85 7.05-12.95 3.3-13.3-0.75-1.1-2.85-1.4-1-0.1-2.4-1.75-0.8-3.5 1.8-4.7-4.25-1.05-1.95-0.15 0.1-1.85-3.5-10.4-4.15 9.15 0.85 4.65-2.35v0.05l2.05 2.8 7.75 3.8 0.75 0.1q-0.15 0.2-0.15 0.5 0.2 1.15 1.45 0.95l0.4-0.2q0.55-0.35 0.45-0.95l15.5 2 16.45-6.35 2.25-3.5 5-0.6 5 0.6m-12.05 8.8q-2.1 4.3-7.5 6.75l-9.3 3.55-7.05 0.65 4.7 0.95 12.6-3.75q4.75-2.95 6.55-8.15m-33.9 2.9q-0.2 0.55-0.05 1.1l0.45 0.6v0.05l2.45 0.05 0.55-0.85 0.1-0.45-0.25-0.6-0.35-0.45-0.35-0.15-1.15-0.25v0.1l-0.6 0.15-0.3 0.05-0.25 0.25-0.1 0.2-0.15 0.2m-6.5-3.4q-0.3-1.4-2.45 0.15-2.2 1.5-1.25 3.15 0.9 1.65 2.5 1.85 1.55 0.2 1.55 0.8t1.9-1.2 0.95-1.55q-0.95 0.2-1.1-0.25l-2.1-2.95" fill="#e6ef29" fill-rule="evenodd"/>
<path d="m259.8 201.5 0.25 0.3m1.85 2.15 1.7 2.6 0.8 0.3m4.5 1.85q1.55 1.4 1.6 2.9 0 1.3-1 2.65l-0.45 0.5-4.6 2.7q-2.65 8.3-7.25 12.5-4.7 4.25-14.75 6.8-9.2 2.35-18.85-0.9l-1.75-0.65-0.1-0.05q-4.35-1.7-8.05-4.25-5.25-3.7-9.2-9.1l-7.15-3.55q-0.9-0.9-0.75-2.25 0.05-0.5 0.25-0.95l0.75-2.1 0.65-0.45m1.2-0.8 2.8-1.8m4.65-5.75 0.15-0.2" fill="none" stroke="#91756f" stroke-linecap="round" stroke-linejoin="round" stroke-width=".25"/>
</g>
<radialGradient id="b" cx="0" cy="0" r="819.2" gradientTransform="matrix(-.0912 0 0 .0603 224.2 228.4)" gradientUnits="userSpaceOnUse">
<stop stop-color="#91756f" offset="0"/>
<stop stop-color="#c2b2af" offset=".18039"/>
<stop stop-color="#fff" stop-opacity="0" offset=".4"/>
</radialGradient>
</defs>
</svg>
