<?xml version="1.0" encoding="UTF-8" standalone="no"?>
<!DOCTYPE svg PUBLIC "-//W3C//DTD SVG 1.1//EN" "http://www.w3.org/Graphics/SVG/1.1/DTD/svg11.dtd">
<svg width="100%" height="100%" viewBox="0 0 546 533" version="1.1" xmlns="http://www.w3.org/2000/svg" xmlns:xlink="http://www.w3.org/1999/xlink" xml:space="preserve" xmlns:serif="http://www.serif.com/" style="fill-rule:evenodd;clip-rule:evenodd;stroke-linecap:round;stroke-linejoin:round;">
    <g transform="matrix(1,0,0,1,-2477.71,-1733.75)">
        <g transform="matrix(10,0,0,10,0,0)">
            <g id="shape0">
                <path d="M264.05,180.55L263.45,179.25C263.45,178.483 264.15,177.483 265.55,176.25L269.4,173.5L274.1,173.4L279.35,174.9L280.7,175.15L286.6,174.55C287.433,174.75 288.183,175.3 288.85,176.2L289.35,177.55L287.25,179.85L287.15,179.9C285.617,181.433 284.05,182.483 282.45,183.05C278.65,184.383 275.433,184.75 272.8,184.15C271.3,183.817 268.383,182.617 264.05,180.55M294.2,204.3C294.9,206.133 295.417,208.267 295.75,210.7C295.883,211.733 295.9,212.95 295.8,214.35L294.85,214.1L294,213.8L294,213.7C293.733,211 293.05,208.017 291.95,204.75L291.65,203.8L286.8,192.5L287.05,192.4L288.4,192.35L288.75,192.3L288.8,192.3L290,194.75L290.6,196.05L291.6,198.15L293.5,202.55L294.2,204.3M295.85,216.95L296.2,217.3C296.5,217.6 296.683,218 296.75,218.5L295.8,218.8L294.2,218.6C293.567,218.467 293.217,218.217 293.15,217.85C293.15,217.55 293.433,217.333 294,217.2L295.1,217L295.85,216.95M258.35,210.15C258.017,209.75 257.767,208.683 257.6,206.95C257.433,205.083 258.217,202.467 259.95,199.1C261.65,195.7 263.183,193.617 264.55,192.85C266.317,193.717 267.8,194.367 269,194.8C272.867,196.3 275.883,196.95 278.05,196.75C280.183,196.55 281.917,196.05 283.25,195.25L285.6,193.75L286.05,192.9L286.25,192.7L286.8,192.5L291.65,203.8L291.95,204.75C293.05,208.017 293.733,211 294,213.7L293.8,213.7C292.733,214.133 291.967,214.5 291.5,214.8L288.65,214.85C287.283,214.717 286.067,214.883 285,215.35C283.967,215.783 282.933,216.417 281.9,217.25C280.867,218.083 278.5,218.517 274.8,218.55C271.067,218.483 267.283,217.033 263.45,214.2C261.383,212.767 259.633,211.317 258.2,209.85L258.35,210.15L258.2,209.85C258.7,210.383 258.767,210.5 258.4,210.2L258.35,210.15M282.4,180.1L284.05,178.65L286.25,178.15L286.85,178.45C287.15,178.617 287.283,179.083 287.25,179.85C287.283,179.083 287.15,178.617 286.85,178.45L286.25,178.15L284.05,178.65L282.4,180.1L281,180.25C279.967,180.25 279.35,179.967 279.15,179.4L279,179.3L278.6,179.9L278.15,180.15L277.2,180.5L273.05,180.05C270.383,179.517 268.867,178.7 268.5,177.6L268.45,176.7L268.8,176.05L268.1,176.35C267.167,176.883 266.917,177.6 267.35,178.5C267.817,179.4 269.067,180.067 271.1,180.5L276.45,181.45L277.5,181.5C278.7,181.633 279.9,181.417 281.1,180.85L282.4,180.1M279.8,178.15L279,179.3L279.8,178.15M282.25,176.35C285.917,175.883 286.517,176.65 284.05,178.65C286.517,176.65 285.917,175.883 282.25,176.35M296.2,217.3L294.1,217.7L294.05,217.7L294,217.2L294.05,217.7L294.1,217.7L296.2,217.3" style="fill:#8c6d47;"/>
                <path d="M295.8,214.35L295.45,216.7L295.85,216.95L295.1,217L294,217.2C293.433,217.333 293.15,217.55 293.15,217.85C293.217,218.217 293.567,218.467 294.2,218.6L295.8,218.8L296.75,218.5L296.85,218.85C297.05,220.95 295.783,221.4 293.05,220.2C285.483,221.4 280.083,222 276.85,222C273.717,221.967 270.3,220.983 266.6,219.05C262.567,216.983 260.133,214.733 259.3,212.3L258.35,210.15L258.4,210.2C258.767,210.5 258.7,210.383 258.2,209.85C259.633,211.317 261.383,212.767 263.45,214.2C267.283,217.033 271.067,218.483 274.8,218.55C278.5,218.517 280.867,218.083 281.9,217.25C282.933,216.417 283.967,215.783 285,215.35C286.067,214.883 287.283,214.717 288.65,214.85L291.5,214.8C291.967,214.5 292.733,214.133 293.8,213.7L294,213.8L294.85,214.1L295.8,214.35M264.55,192.85L267.9,191L268.6,191.45L269.5,192.4C269.967,193.1 271.95,193.333 275.45,193.1L281.4,192.9L282.75,192.6C284.05,192.333 285.183,191.933 286.15,191.4L286.8,192.5L286.25,192.7L286.05,192.9L285.6,193.75L283.25,195.25C281.917,196.05 280.183,196.55 278.05,196.75C275.883,196.95 272.867,196.3 269,194.8C267.8,194.367 266.317,193.717 264.55,192.85M269.85,187.15L266.8,183.95C265.433,182.517 264.517,181.383 264.05,180.55C268.383,182.617 271.3,183.817 272.8,184.15C275.433,184.75 278.65,184.383 282.45,183.05C284.05,182.483 285.617,181.433 287.15,179.9L287.25,179.9C287.083,180.967 286.617,182.567 285.85,184.7L284.95,187.05L284.25,187.55L282.05,188.1L280.15,189.25L275.4,189.15C273.867,187.983 272.5,187.55 271.3,187.85L269.85,187.15M282.4,180.1L281.1,180.85C279.9,181.417 278.7,181.633 277.5,181.5L276.45,181.45L271.1,180.5C269.067,180.067 267.817,179.4 267.35,178.5C266.917,177.6 267.167,176.883 268.1,176.35L268.8,176.05L268.45,176.7L268.5,177.6C268.867,178.7 270.383,179.517 273.05,180.05L277.2,180.5L278.15,180.15L278.35,180.3L277.5,181.5L278.35,180.3L278.6,179.9L279.15,179.4C279.35,179.967 279.967,180.25 281,180.25L282.4,180.1M294,217.2C294.133,216.133 294.133,215 294,213.8C294.133,215 294.133,216.133 294,217.2" style="fill:#705739;"/>
                <path d="M289.35,177.55C289.483,178.017 289.4,178.483 289.1,178.95L286.4,185.65L286.3,185.65L284.95,187.05L285.85,184.7C286.617,182.567 287.083,180.967 287.25,179.9L287.25,179.85L289.35,177.55M287.15,179.9L287.25,179.85L287.25,179.9L287.15,179.9M278.15,180.15L278.6,179.9L278.35,180.3L278.15,180.15M286.8,192.5L286.15,191.4L287.3,190.65L287.6,190.2L287.9,190.7L288.55,191.8L288.8,192.25L288.8,192.3L288.75,192.3L288.4,192.35L287.05,192.4L286.8,192.5" style="fill:#634521;"/>
                <path d="M278.6,179.9L279,179.3L279.15,179.4L278.6,179.9M293.8,213.7L294,213.7L294,213.8L293.8,213.7" style="fill:#8c622f;"/>
                <path d="M288.8,188.6L289.55,190.1L289.4,190.25L287.9,190.7L287.6,190.2L287.65,190.1C288.317,189.633 288.7,189.133 288.8,188.6M290.15,190.8C291.517,191.533 292.417,192.6 292.85,194L290.6,194.85L290,194.75L288.8,192.3L288.8,192.25L288.9,192.05L290.15,190.8M293.25,194.4L293.25,194.45L293.75,195.1L293.8,195.1C294.7,194.667 295.817,194.367 297.15,194.2C298.517,194.1 298.967,194.583 298.5,195.65L295.2,198L295.05,198.25C294.817,198.617 294.833,199.183 295.1,199.95L296.3,202.7L296.25,202.7L295.3,202.15L294.5,201.85L293.5,202.55L291.6,198.15L292.2,197.35L291.5,196.65C291.367,196.283 291.6,195.833 292.2,195.3L293.25,194.4M298.1,198.15C299.667,198.917 301.033,200.067 302.2,201.6L302.2,201.65L298.2,199.7C298.033,199.167 298,198.65 298.1,198.15M270.55,189.8L270.5,189.75L271.05,189.1L271.7,189.05L272.35,189.1L273.4,189.45L273.7,189.9C273.8,190.2 273.7,190.4 273.4,190.5L272.1,190.35L270.85,189.85L270.75,189.85L270.55,189.8M269.3,188.6L268.7,188.6L267.8,188.05L267.8,187.95L267.75,187.7L267.75,187.65L268.15,187.25C268.95,187.483 269.4,187.75 269.5,188.05L269.5,188.45L269.3,188.6M278.5,189.7C279.133,189.8 279.567,189.95 279.8,190.15L279.95,190.35L280.05,190.6C280.05,190.9 279.85,191.117 279.45,191.25L278.65,191.4L277.9,191.35C277.1,191.35 276.65,191.183 276.55,190.85L276.6,190.5L276.6,190.3L276.55,190L276.85,189.65L278.5,189.7M282.55,189.55L282.55,189.25C282.55,188.95 282.75,188.717 283.15,188.55L284.45,188.05L284.6,188.05L284.65,188L285.1,188L285.75,188.5C285.917,188.933 285.65,189.317 284.95,189.65L284.3,189.9L283.35,190C282.917,189.967 282.65,189.817 282.55,189.55M286.6,186.85C286.5,186.55 286.617,186.35 286.95,186.25L287.7,186.3L288,187L287.7,187.2L287.4,187.25L286.9,187.1L286.6,186.9L286.6,186.85M293.8,195.1L292.2,197.35L293.8,195.1" style="fill:#e0b359;"/>
                <path d="M286.4,185.65L287.05,185.65L287.9,186.2L288.6,187.4C288.8,187.8 288.867,188.2 288.8,188.6C288.7,189.133 288.317,189.633 287.65,190.1L287.6,190.2L287.3,190.65L286.15,191.4C285.183,191.933 284.05,192.333 282.75,192.6L281.4,192.9L275.45,193.1C271.95,193.333 269.967,193.1 269.5,192.4L268.6,191.45C268.7,190.483 269.05,189.683 269.65,189.05L270.05,188.6L271.05,187.95L271.3,187.85L271.05,187.95L270.05,188.6L269.65,189.05C269.05,189.683 268.7,190.483 268.6,191.45L267.9,191C267.067,190.3 266.783,189.433 267.05,188.4L267.25,187.85L268.25,186.2L269.85,187.15L271.3,187.85C272.5,187.55 273.867,187.983 275.4,189.15L275.1,189.65L275,189.9C274.6,190.967 274.75,192.033 275.45,193.1C274.75,192.033 274.6,190.967 275,189.9L275.1,189.65L275.4,189.15L280.15,189.25L282.05,188.1L284.25,187.55L285.1,187.45L285.6,187.5L286.25,187.65C287.25,187.917 287.717,188.733 287.65,190.1C287.717,188.733 287.25,187.917 286.25,187.65L285.6,187.5L285.1,187.45L284.25,187.55L284.95,187.05L286.3,185.65L286.4,185.65M289.55,190.1L290.15,190.8L288.9,192.05L288.8,192.25L288.55,191.8L287.9,190.7L289.4,190.25L289.55,190.1M292.85,194L293.25,194.4L292.2,195.3C291.6,195.833 291.367,196.283 291.5,196.65L292.2,197.35L291.6,198.15L290.6,196.05L290,194.75L290.6,194.85L292.85,194M298.5,195.65L298.1,198.15C298,198.65 298.033,199.167 298.2,199.7L302.2,201.65L302.2,201.6L302.25,201.65L302.2,201.65C300.567,202.617 298.95,203.033 297.35,202.9L297.65,206.9C296.383,206.267 295.333,205.35 294.5,204.15L294.2,204.3L293.5,202.55L294.5,201.85L295.3,202.15L296.25,202.7L296.3,202.7L295.1,199.95C294.833,199.183 294.817,198.617 295.05,198.25L295.2,198L298.5,195.65M270.55,189.8L270.75,189.85L270.85,189.85L272.1,190.35L273.4,190.5C273.7,190.4 273.8,190.2 273.7,189.9L273.4,189.45L272.35,189.1L271.7,189.05L271.05,189.1L270.5,189.75L270.55,189.8M269.3,188.6L269.5,188.45L269.5,188.05C269.4,187.75 268.95,187.483 268.15,187.25L267.75,187.65L267.75,187.7L267.8,187.95L267.8,188.05L268.7,188.6L269.3,188.6M278.5,189.7L276.85,189.65L276.55,190L276.6,190.3L276.6,190.5L276.55,190.85C276.65,191.183 277.1,191.35 277.9,191.35L278.65,191.4L279.45,191.25C279.85,191.117 280.05,190.9 280.05,190.6L279.95,190.35L279.8,190.15C279.567,189.95 279.133,189.8 278.5,189.7M281.4,192.9C281.733,191.667 281.65,190.7 281.15,190L281.05,189.9L280.15,189.25L281.05,189.9L281.15,190C281.65,190.7 281.733,191.667 281.4,192.9M282.55,189.55C282.65,189.817 282.917,189.967 283.35,190L284.3,189.9L284.95,189.65C285.65,189.317 285.917,188.933 285.75,188.5L285.1,188L284.65,188L284.6,188.05L284.45,188.05L283.15,188.55C282.75,188.717 282.55,188.95 282.55,189.25L282.55,189.55M286.6,186.85L286.6,186.9L286.9,187.1L287.4,187.25L287.7,187.2L288,187L287.7,186.3L286.95,186.25C286.617,186.35 286.5,186.55 286.6,186.85M292.95,194.1L290.6,196.05L292.95,194.1M288.55,191.8L289.4,190.25L288.55,191.8" style="fill:#9c7c3e;"/>
                <path d="M264.05,180.55L263.45,179.25C263.45,178.483 264.15,177.483 265.55,176.25L269.4,173.5L274.1,173.4L279.35,174.9L280.7,175.15L286.6,174.55C287.433,174.75 288.183,175.3 288.85,176.2L289.35,177.55C289.483,178.017 289.4,178.483 289.1,178.95L286.4,185.65L287.05,185.65L287.9,186.2L288.6,187.4C288.8,187.8 288.867,188.2 288.8,188.6L289.55,190.1L290.15,190.8C291.517,191.533 292.417,192.6 292.85,194L293.25,194.4M293.25,194.45L293.75,195.1L293.8,195.1C294.7,194.667 295.817,194.367 297.15,194.2C298.517,194.1 298.967,194.583 298.5,195.65L298.1,198.15C299.667,198.917 301.033,200.067 302.2,201.6L302.25,201.65L302.2,201.65C300.567,202.617 298.95,203.033 297.35,202.9L297.65,206.9C296.383,206.267 295.333,205.35 294.5,204.15L294.2,204.3C294.9,206.133 295.417,208.267 295.75,210.7C295.883,211.733 295.9,212.95 295.8,214.35L295.45,216.7L295.85,216.95L296.2,217.3C296.5,217.6 296.683,218 296.75,218.5L296.85,218.85C297.05,220.95 295.783,221.4 293.05,220.2C285.483,221.4 280.083,222 276.85,222C273.717,221.967 270.3,220.983 266.6,219.05C262.567,216.983 260.133,214.733 259.3,212.3L258.35,210.15C258.017,209.75 257.767,208.683 257.6,206.95C257.433,205.083 258.217,202.467 259.95,199.1C261.65,195.7 263.183,193.617 264.55,192.85L267.9,191C267.067,190.3 266.783,189.433 267.05,188.4L267.25,187.85L268.25,186.2L269.85,187.15L266.8,183.95C265.433,182.517 264.517,181.383 264.05,180.55M287.25,179.85C287.283,179.083 287.15,178.617 286.85,178.45L286.25,178.15L284.05,178.65L282.4,180.1L281.1,180.85C279.9,181.417 278.7,181.633 277.5,181.5L276.45,181.45L271.1,180.5C269.067,180.067 267.817,179.4 267.35,178.5C266.917,177.6 267.167,176.883 268.1,176.35L268.8,176.05M278.6,179.9L279,179.3L279.8,178.15M277.5,181.5L278.35,180.3L278.6,179.9M268.6,191.45C268.7,190.483 269.05,189.683 269.65,189.05L270.05,188.6L271.05,187.95L271.3,187.85L269.85,187.15M268.6,191.45L269.5,192.4C269.967,193.1 271.95,193.333 275.45,193.1C274.75,192.033 274.6,190.967 275,189.9L275.1,189.65L275.4,189.15C273.867,187.983 272.5,187.55 271.3,187.85M267.9,191L268.6,191.45M286.8,192.5L286.15,191.4C285.183,191.933 284.05,192.333 282.75,192.6L281.4,192.9L275.45,193.1M280.15,189.25L281.05,189.9L281.15,190C281.65,190.7 281.733,191.667 281.4,192.9M284.25,187.55L282.05,188.1L280.15,189.25L275.4,189.15M287.25,179.9L287.25,179.85M287.25,179.9C287.083,180.967 286.617,182.567 285.85,184.7L284.95,187.05L286.3,185.65L286.4,185.65M287.65,190.1C287.717,188.733 287.25,187.917 286.25,187.65L285.6,187.5L285.1,187.45L284.25,187.55L284.95,187.05M287.6,190.2L287.65,190.1C288.317,189.633 288.7,189.133 288.8,188.6M288.8,192.3L288.8,192.25L288.55,191.8L287.9,190.7L287.6,190.2L287.3,190.65L286.15,191.4M290,194.75L290.6,196.05L292.95,194.1M290,194.75L288.8,192.3M292.2,197.35L293.8,195.1M289.4,190.25L289.55,190.1M289.4,190.25L288.55,191.8M284.05,178.65C286.517,176.65 285.917,175.883 282.25,176.35M293.5,202.55L294.2,204.3M294,213.7C293.733,211 293.05,208.017 291.95,204.75L291.65,203.8L286.8,192.5M293.5,202.55L291.6,198.15L290.6,196.05M291.6,198.15L292.2,197.35M294,213.7L294,213.8C294.133,215 294.133,216.133 294,217.2L294.05,217.7L294.1,217.7L296.2,217.3M258.2,209.85L258.35,210.15L258.4,210.2C258.767,210.5 258.7,210.383 258.2,209.85" style="fill:none;fill-rule:nonzero;stroke:#362a1a;stroke-opacity:0.5;stroke-width:0.05px;"/>
                <path d="M291.85,215.15L291.8,214.4L295.25,213.1L295.35,214.85L291.85,215.15" style="fill:#704e26;"/>
                <path d="M291.85,215.15L295.35,214.85L295.25,213.1L291.8,214.4L291.85,215.15Z" style="fill:none;fill-rule:nonzero;stroke:#000;stroke-opacity:0.5;stroke-width:0.05px;"/>
                <path d="M295.2,210.05L295.25,210.8L291.8,212.1L291.7,210.35L295.2,210.05" style="fill:#704e26;"/>
                <path d="M295.2,210.05L291.7,210.35L291.8,212.1L295.25,210.8L295.2,210.05Z" style="fill:none;fill-rule:nonzero;stroke:#000;stroke-opacity:0.5;stroke-width:0.05px;"/>
                <path d="M289.35,194.15L289.6,194.85L287.35,196.75L286.75,195.1L289.35,194.15" style="fill:#704e26;"/>
                <path d="M289.35,194.15L286.75,195.1L287.35,196.75L289.6,194.85L289.35,194.15Z" style="fill:none;fill-rule:nonzero;stroke:#000;stroke-opacity:0.5;stroke-width:0.05px;"/>
                <path d="M286.55,185L286.55,185.6L284.35,186.55L284.25,185.2L286.55,185" style="fill:#704e26;"/>
                <path d="M286.55,185L284.25,185.2L284.35,186.55L286.55,185.6L286.55,185Z" style="fill:none;fill-rule:nonzero;stroke:#000;stroke-opacity:0.5;stroke-width:0.05px;"/>
                <path d="M287.5,177.9L287.75,178.6L285.5,180.5L284.9,178.85L287.5,177.9" style="fill:#704e26;"/>
                <path d="M287.5,177.9L284.9,178.85L285.5,180.5L287.75,178.6L287.5,177.9Z" style="fill:none;fill-rule:nonzero;stroke:#000;stroke-opacity:0.5;stroke-width:0.05px;"/>
                <path d="M248.95,221.35C252.117,218.85 254.55,216.483 256.25,214.25C257.717,212.65 258.95,212.2 259.95,212.9L266.8,220.1C265.867,221.467 264.317,222.383 262.15,222.85L257.3,223.65L250.95,223.15C249.85,222.983 249.217,222.683 249.05,222.25C248.883,221.783 248.85,221.483 248.95,221.35" style="fill:#fc9;"/>
                <path d="M248.95,221.35C248.85,221.483 248.883,221.783 249.05,222.25C249.217,222.683 249.85,222.983 250.95,223.15L257.3,223.65L262.15,222.85C264.317,222.383 265.867,221.467 266.8,220.1L268.15,221.5C268.85,223.933 265.4,225.317 257.8,225.65C251.133,225.383 247.917,224.2 248.15,222.1L248.95,221.35" style="fill:#deb185;"/>
                <path d="M264.5,216.45C264.867,216.85 264.8,217.2 264.3,217.5C263.8,217.767 263.467,217.683 263.3,217.25C263.1,216.783 263.167,216.433 263.5,216.2C263.8,215.933 264.133,216.017 264.5,216.45M264.7,218.75C264.567,218.317 264.7,217.967 265.1,217.7C265.467,217.433 265.767,217.517 266,217.95C266.2,218.383 266.067,218.733 265.6,219C265.167,219.267 264.867,219.183 264.7,218.75M267.5,219.9L267.75,220.15C268.05,220.517 268.017,220.833 267.65,221.1L267.45,221.25C267.017,221.517 266.667,221.45 266.4,221.05C266.1,220.617 266.183,220.25 266.65,219.95L267.5,219.9M252,219.7L251.75,219.85C251.95,220.217 251.8,220.533 251.3,220.8C250.733,221.133 250.35,221.033 250.15,220.5C249.917,219.967 249.983,219.55 250.35,219.25L251.1,219.2C251.1,218.9 251.233,218.667 251.5,218.5C251.867,218.233 252.15,218.3 252.35,218.7C252.55,219.1 252.433,219.433 252,219.7M259.9,213C260.333,212.7 260.683,212.767 260.95,213.2C261.217,213.633 261.133,214 260.7,214.3C260.267,214.567 259.917,214.5 259.65,214.1C259.35,213.667 259.433,213.3 259.9,213M258.55,213.3L258.1,213.45C258.2,213.85 258,214.183 257.5,214.45C256.8,214.85 256.333,214.733 256.1,214.1C255.867,213.467 255.95,212.967 256.35,212.6C256.717,212.267 257.133,212.317 257.6,212.75C257.6,212.45 257.75,212.2 258.05,212C258.417,211.733 258.717,211.817 258.95,212.25C259.15,212.683 259.017,213.033 258.55,213.3M256.1,214.85C256.333,215.25 256.183,215.617 255.65,215.95C255.117,216.25 254.767,216.167 254.6,215.7C254.433,215.233 254.583,214.883 255.05,214.65C255.517,214.383 255.867,214.45 256.1,214.85M253.65,216.65C254.183,216.283 254.6,216.35 254.9,216.85C255.233,217.383 255.133,217.817 254.6,218.15C254.1,218.483 253.683,218.417 253.35,217.95C253.017,217.45 253.117,217.017 253.65,216.65M262.3,215.05C262.767,214.817 263.1,214.9 263.3,215.3C263.533,215.667 263.383,216 262.85,216.3C262.35,216.6 262.033,216.533 261.9,216.1C261.733,215.667 261.867,215.317 262.3,215.05M262.25,225.9C261.85,226.133 261.583,226.05 261.45,225.65C261.283,225.283 261.333,225 261.6,224.8C261.833,224.6 262.1,224.667 262.4,225C262.7,225.367 262.65,225.667 262.25,225.9M259.6,224.6C260.1,224.267 260.5,224.383 260.8,224.95C261.1,225.483 260.933,225.933 260.3,226.3C259.7,226.667 259.3,226.567 259.1,226C258.933,225.433 259.1,224.967 259.6,224.6M255.1,225.6C255,225.333 255.083,225.133 255.35,225C255.583,224.867 255.767,224.917 255.9,225.15C256.033,225.35 255.95,225.533 255.65,225.7L255.1,225.6M253.5,226.1C252.933,226.4 252.55,226.3 252.35,225.8C252.15,225.3 252.233,224.9 252.6,224.6C252.933,224.3 253.3,224.383 253.7,224.85C254.133,225.35 254.067,225.767 253.5,226.1M256.7,224.95C257.2,224.617 257.617,224.7 257.95,225.2C258.25,225.7 258.15,226.117 257.65,226.45C257.15,226.75 256.75,226.667 256.45,226.2C256.117,225.733 256.2,225.317 256.7,224.95M249.8,225.5C249.633,224.967 249.783,224.533 250.25,224.2C250.717,223.9 251.083,224 251.35,224.5C251.617,225.033 251.467,225.467 250.9,225.8C250.333,226.1 249.967,226 249.8,225.5M249,222.15C248.5,222.45 248.183,222.383 248.05,221.95C247.883,221.517 248.017,221.167 248.45,220.9C248.917,220.667 249.25,220.75 249.45,221.15C249.683,221.517 249.533,221.85 249,222.15M249.05,222.9C249.283,223.267 249.217,223.583 248.85,223.85C248.483,224.083 248.167,224.033 247.9,223.7C247.667,223.333 247.75,223.017 248.15,222.75C248.517,222.45 248.817,222.5 249.05,222.9M267.15,224.05C267.317,224.35 267.25,224.6 266.95,224.8L266.25,224.7C266.05,224.4 266.1,224.15 266.4,223.95L267.15,224.05M267.9,222.35C268.167,222.15 268.383,222.2 268.55,222.5C268.683,222.8 268.6,223.033 268.3,223.2C267.967,223.4 267.75,223.35 267.65,223.05C267.55,222.75 267.633,222.517 267.9,222.35M264.5,225.5C263.967,225.8 263.617,225.717 263.45,225.25C263.283,224.783 263.433,224.433 263.9,224.2C264.367,223.933 264.717,224 264.95,224.4C265.183,224.8 265.033,225.167 264.5,225.5" style="fill:#ddb185;fill-opacity:0.5;"/>
            </g>
            <g transform="matrix(0.114312,0,0,0.114312,265.219,197.036)">
                <g id="sprite0">
                    <g id="sprite1">
                        <g id="sprite2" transform="matrix(1.073,0,0,0.9177,0,-10.1502)">
                            <g id="shape1">
                                <path d="M28.55,0.65C28.883,-5.017 26.433,-10.483 21.2,-15.75L26.25,-20.5C30.65,-15.067 33.817,-9.417 35.75,-3.55L38.7,5.3L47.9,25.8C41.167,22.6 35.05,21.717 29.55,23.15C24.017,24.583 19.55,26.567 16.15,29.1L16.05,29.2C14.283,30.533 12.817,31.933 11.65,33.4C10.75,34.467 10.033,35.6 9.5,36.8L9.35,36.7L18.8,7.5L18.95,7.2L19.1,6.95L18.4,4.55C17.2,0.417 14.483,-3.983 10.25,-8.65L14.4,-16.65C19.933,-10.55 23.65,-4.117 25.55,2.65C27.35,0.65 28.35,-0.017 28.55,0.65L28.5,1.65L28.55,0.65M51.45,34L53.8,39.6L54.2,40.55C56.5,46.217 58.567,52.183 60.4,58.45L60.55,59L62.05,64.25L63.65,70.75L63.35,70.9C58.483,61.467 51.183,56.317 41.45,55.45C46.017,50.317 49.767,49.183 52.7,52.05C50.733,44.55 44.8,39.7 34.9,37.5C39.8,35.033 45.317,33.867 51.45,34M64.5,74.45L64.85,76.25L70.35,100.4L70.2,100.5C66.667,93.3 61.15,88.217 53.65,85.25L53.35,84.6C56.917,82.7 59.767,82.967 61.9,85.4C60.533,80.033 55.867,75.417 47.9,71.55C52.733,71.05 58.267,72.017 64.5,74.45" style="fill:#e8f5f5;"/>
                                <path d="M16.05,29.2L16.15,29.1C19.55,26.567 24.017,24.583 29.55,23.15C35.05,21.717 41.167,22.6 47.9,25.8L51.45,34C45.317,33.867 39.8,35.033 34.9,37.5C44.8,39.7 50.733,44.55 52.7,52.05C49.767,49.183 46.017,50.317 41.45,55.45C51.183,56.317 58.483,61.467 63.35,70.9L63.65,70.75L64.4,74L64.5,74.45C58.267,72.017 52.733,71.05 47.9,71.55C55.867,75.417 60.533,80.033 61.9,85.4C59.767,82.967 56.917,82.7 53.35,84.6L49.2,74.55L35.05,46.5L33.8,47.7L29.85,51.4L23.45,80.3C21.783,96.233 21.033,107.95 21.2,115.45C21.6,117.35 22.15,119.333 22.85,121.4C24.283,125.667 26.383,130.35 29.15,135.45L40.15,121.4L40.1,101.75L45.95,118.8L56.4,118.3L60.8,118.1L59.9,100.4L53.65,85.25C61.15,88.217 66.667,93.3 70.2,100.5L70.3,100.7L70.35,100.4L71.2,104C68.3,118.067 64.917,127.667 61.05,132.8C57.15,137.9 51.117,142.233 42.95,145.8L39.15,146.95L36.35,143L32.65,137.1L23.9,135.85C12.633,120.55 6.167,110.55 4.5,105.85C2.833,101.117 4.117,88.283 8.35,67.35C8.117,77.483 8.167,83.967 8.5,86.8C8.7,84.6 9,82.133 9.4,79.4C11.667,62.567 13.217,50.233 14.05,42.4C14.85,34.533 15.4,30.5 15.7,30.3C15.967,30.1 16.083,29.733 16.05,29.2" style="fill:#6a7371;"/>
                                <path d="M9.5,36.8C10.033,35.6 10.75,34.467 11.65,33.4C12.817,31.933 14.283,30.533 16.05,29.2C16.083,29.733 15.967,30.1 15.7,30.3C15.4,30.5 14.85,34.533 14.05,42.4C13.217,50.233 11.667,62.567 9.4,79.4C9,82.133 8.7,84.6 8.5,86.8C8.167,83.967 8.117,77.483 8.35,67.35C4.117,88.283 2.833,101.117 4.5,105.85C6.167,110.55 12.633,120.55 23.9,135.85L32.65,137.1L36.35,143L39.15,146.95C34.783,147.65 30.383,146.333 25.95,143C23.35,141.033 20.75,138.383 18.15,135.05C9.75,124.35 3.7,114.45 0,105.35C0.467,94.917 1.217,85.767 2.25,77.9C3.317,70.033 5.433,57.617 8.6,40.65L9.35,36.7L9.2,37.4L9.5,36.8" style="fill:#303332;"/>
                                <path d="M9.35,36.7L9.5,36.8L9.2,37.4L9.35,36.7"/>
                                <path d="M33.8,47.7L35.05,46.5L49.2,74.55L53.35,84.6L53.65,85.25L59.9,100.4L60.8,118.1L56.4,118.3L55.55,114.1C54.117,105 53.217,99.9 52.85,98.8C49.617,87.433 47.083,79.05 45.25,73.65C43.417,68.25 39.6,59.6 33.8,47.7" style="fill:#ff854a;"/>
                                <path d="M56.4,118.3L45.95,118.8L40.1,101.75L40.15,121.4L29.15,135.45C26.383,130.35 24.283,125.667 22.85,121.4C22.15,119.333 21.6,117.35 21.2,115.45C21.033,107.95 21.783,96.233 23.45,80.3L29.85,51.4L33.8,47.7C39.6,59.6 43.417,68.25 45.25,73.65C47.083,79.05 49.617,87.433 52.85,98.8C53.217,99.9 54.117,105 55.55,114.1L56.4,118.3" style="fill:#ffd2bd;"/>
                                <path d="M70.2,100.5L70.35,100.4L70.3,100.7L70.2,100.5" style="fill:#b5e0dd;"/>
                                <path d="M47.9,25.8L38.7,5.3L35.75,-3.55C33.817,-9.417 30.65,-15.067 26.25,-20.5L21.2,-15.75C26.433,-10.483 28.883,-5.017 28.55,0.65L28.5,1.65M28.55,0.65C28.35,-0.017 27.35,0.65 25.55,2.65C23.65,-4.117 19.933,-10.55 14.4,-16.65L10.25,-8.65C14.483,-3.983 17.2,0.417 18.4,4.55L19.1,6.95L18.95,7.2L18.8,7.5L9.35,36.7L8.6,40.65C5.433,57.617 3.317,70.033 2.25,77.9C1.217,85.767 0.467,94.917 0,105.35C3.7,114.45 9.75,124.35 18.15,135.05C20.75,138.383 23.35,141.033 25.95,143C30.383,146.333 34.783,147.65 39.15,146.95L42.95,145.8C51.117,142.233 57.15,137.9 61.05,132.8C64.917,127.667 68.3,118.067 71.2,104L70.35,100.4L64.85,76.25L64.5,74.45L64.4,74L63.65,70.75L62.05,64.25L60.55,59M47.9,25.8L51.45,34L53.8,39.6L54.2,40.55C56.5,46.217 58.567,52.183 60.4,58.45" style="fill:none;fill-rule:nonzero;stroke:#1a1900;stroke-opacity:0.3;stroke-width:0.05px;"/>
                                <path d="M60.4,58.45L60.55,59M70.35,100.4L70.3,100.7L70.2,100.5" style="fill:none;fill-rule:nonzero;stroke:#000;stroke-opacity:0.3;stroke-width:0.05px;"/>
                            </g>
                        </g>
                        <g id="sprite21" serif:id="sprite2" transform="matrix(-1.073,0,0,0.9177,171.85,-10.1502)">
                            <g id="shape11" serif:id="shape1">
                                <path d="M28.55,0.65C28.883,-5.017 26.433,-10.483 21.2,-15.75L26.25,-20.5C30.65,-15.067 33.817,-9.417 35.75,-3.55L38.7,5.3L47.9,25.8C41.167,22.6 35.05,21.717 29.55,23.15C24.017,24.583 19.55,26.567 16.15,29.1L16.05,29.2C14.283,30.533 12.817,31.933 11.65,33.4C10.75,34.467 10.033,35.6 9.5,36.8L9.35,36.7L18.8,7.5L18.95,7.2L19.1,6.95L18.4,4.55C17.2,0.417 14.483,-3.983 10.25,-8.65L14.4,-16.65C19.933,-10.55 23.65,-4.117 25.55,2.65C27.35,0.65 28.35,-0.017 28.55,0.65L28.5,1.65L28.55,0.65M51.45,34L53.8,39.6L54.2,40.55C56.5,46.217 58.567,52.183 60.4,58.45L60.55,59L62.05,64.25L63.65,70.75L63.35,70.9C58.483,61.467 51.183,56.317 41.45,55.45C46.017,50.317 49.767,49.183 52.7,52.05C50.733,44.55 44.8,39.7 34.9,37.5C39.8,35.033 45.317,33.867 51.45,34M64.5,74.45L64.85,76.25L70.35,100.4L70.2,100.5C66.667,93.3 61.15,88.217 53.65,85.25L53.35,84.6C56.917,82.7 59.767,82.967 61.9,85.4C60.533,80.033 55.867,75.417 47.9,71.55C52.733,71.05 58.267,72.017 64.5,74.45" style="fill:#e8f5f5;"/>
                                <path d="M16.05,29.2L16.15,29.1C19.55,26.567 24.017,24.583 29.55,23.15C35.05,21.717 41.167,22.6 47.9,25.8L51.45,34C45.317,33.867 39.8,35.033 34.9,37.5C44.8,39.7 50.733,44.55 52.7,52.05C49.767,49.183 46.017,50.317 41.45,55.45C51.183,56.317 58.483,61.467 63.35,70.9L63.65,70.75L64.4,74L64.5,74.45C58.267,72.017 52.733,71.05 47.9,71.55C55.867,75.417 60.533,80.033 61.9,85.4C59.767,82.967 56.917,82.7 53.35,84.6L49.2,74.55L35.05,46.5L33.8,47.7L29.85,51.4L23.45,80.3C21.783,96.233 21.033,107.95 21.2,115.45C21.6,117.35 22.15,119.333 22.85,121.4C24.283,125.667 26.383,130.35 29.15,135.45L40.15,121.4L40.1,101.75L45.95,118.8L56.4,118.3L60.8,118.1L59.9,100.4L53.65,85.25C61.15,88.217 66.667,93.3 70.2,100.5L70.3,100.7L70.35,100.4L71.2,104C68.3,118.067 64.917,127.667 61.05,132.8C57.15,137.9 51.117,142.233 42.95,145.8L39.15,146.95L36.35,143L32.65,137.1L23.9,135.85C12.633,120.55 6.167,110.55 4.5,105.85C2.833,101.117 4.117,88.283 8.35,67.35C8.117,77.483 8.167,83.967 8.5,86.8C8.7,84.6 9,82.133 9.4,79.4C11.667,62.567 13.217,50.233 14.05,42.4C14.85,34.533 15.4,30.5 15.7,30.3C15.967,30.1 16.083,29.733 16.05,29.2" style="fill:#6a7371;"/>
                                <path d="M9.5,36.8C10.033,35.6 10.75,34.467 11.65,33.4C12.817,31.933 14.283,30.533 16.05,29.2C16.083,29.733 15.967,30.1 15.7,30.3C15.4,30.5 14.85,34.533 14.05,42.4C13.217,50.233 11.667,62.567 9.4,79.4C9,82.133 8.7,84.6 8.5,86.8C8.167,83.967 8.117,77.483 8.35,67.35C4.117,88.283 2.833,101.117 4.5,105.85C6.167,110.55 12.633,120.55 23.9,135.85L32.65,137.1L36.35,143L39.15,146.95C34.783,147.65 30.383,146.333 25.95,143C23.35,141.033 20.75,138.383 18.15,135.05C9.75,124.35 3.7,114.45 0,105.35C0.467,94.917 1.217,85.767 2.25,77.9C3.317,70.033 5.433,57.617 8.6,40.65L9.35,36.7L9.2,37.4L9.5,36.8" style="fill:#303332;"/>
                                <path d="M9.35,36.7L9.5,36.8L9.2,37.4L9.35,36.7"/>
                                <path d="M33.8,47.7L35.05,46.5L49.2,74.55L53.35,84.6L53.65,85.25L59.9,100.4L60.8,118.1L56.4,118.3L55.55,114.1C54.117,105 53.217,99.9 52.85,98.8C49.617,87.433 47.083,79.05 45.25,73.65C43.417,68.25 39.6,59.6 33.8,47.7" style="fill:#ff854a;"/>
                                <path d="M56.4,118.3L45.95,118.8L40.1,101.75L40.15,121.4L29.15,135.45C26.383,130.35 24.283,125.667 22.85,121.4C22.15,119.333 21.6,117.35 21.2,115.45C21.033,107.95 21.783,96.233 23.45,80.3L29.85,51.4L33.8,47.7C39.6,59.6 43.417,68.25 45.25,73.65C47.083,79.05 49.617,87.433 52.85,98.8C53.217,99.9 54.117,105 55.55,114.1L56.4,118.3" style="fill:#ffd2bd;"/>
                                <path d="M70.2,100.5L70.35,100.4L70.3,100.7L70.2,100.5" style="fill:#b5e0dd;"/>
                                <path d="M47.9,25.8L38.7,5.3L35.75,-3.55C33.817,-9.417 30.65,-15.067 26.25,-20.5L21.2,-15.75C26.433,-10.483 28.883,-5.017 28.55,0.65L28.5,1.65M28.55,0.65C28.35,-0.017 27.35,0.65 25.55,2.65C23.65,-4.117 19.933,-10.55 14.4,-16.65L10.25,-8.65C14.483,-3.983 17.2,0.417 18.4,4.55L19.1,6.95L18.95,7.2L18.8,7.5L9.35,36.7L8.6,40.65C5.433,57.617 3.317,70.033 2.25,77.9C1.217,85.767 0.467,94.917 0,105.35C3.7,114.45 9.75,124.35 18.15,135.05C20.75,138.383 23.35,141.033 25.95,143C30.383,146.333 34.783,147.65 39.15,146.95L42.95,145.8C51.117,142.233 57.15,137.9 61.05,132.8C64.917,127.667 68.3,118.067 71.2,104L70.35,100.4L64.85,76.25L64.5,74.45L64.4,74L63.65,70.75L62.05,64.25L60.55,59M47.9,25.8L51.45,34L53.8,39.6L54.2,40.55C56.5,46.217 58.567,52.183 60.4,58.45" style="fill:none;fill-rule:nonzero;stroke:#1a1900;stroke-opacity:0.3;stroke-width:0.05px;"/>
                                <path d="M60.4,58.45L60.55,59M70.35,100.4L70.3,100.7L70.2,100.5" style="fill:none;fill-rule:nonzero;stroke:#000;stroke-opacity:0.3;stroke-width:0.05px;"/>
                            </g>
                        </g>
                        <g id="sprite3" transform="matrix(1.073,0,0,1.073,3.85,80.75)">
                            <g id="shape2">
                                <path d="M56.05,2.5L56.1,2.45L61.1,1.35L66.65,0.5L67.45,0.45L77.3,0C87.6,-0.167 97.533,1.567 107.1,5.2C112.4,9.133 117.583,13.65 122.65,18.75L128.75,25.3C140.117,40.3 148.75,55.25 154.65,70.15L144.1,70.95L154.05,73.8L151.5,75.5L151.45,75.55L151.4,75.55L134.75,82.45C133.883,80.517 132.317,78.417 130.05,76.15C122.35,69.983 114.967,65.9 107.9,63.9C116.567,71.467 120.667,78.217 120.2,84.15C118.333,80.517 114.45,78.883 108.55,79.25C112.65,82.283 115.983,85.567 118.55,89.1C105.083,94.5 93.767,98.467 84.6,101L83.85,101.2C74.15,101.567 67.667,101.117 64.4,99.85C59.467,97.95 52.817,94.4 44.45,89.2C46.583,86.767 49.1,84.467 52,82.3C46.333,81.933 42.533,83.417 40.6,86.75L40.35,86.6C40.183,80.8 44.283,74.25 52.65,66.95C45.583,68.95 38.2,73.033 30.5,79.2L30,79.75L21.3,73.7L27.7,72.65C25.167,70.85 21.433,67.3 16.5,62C18.967,55.233 21.383,48.217 23.75,40.95C26.117,33.65 30.217,26.15 36.05,18.45C41.883,10.717 48.417,5.45 55.65,2.65L56.05,2.5" style="fill:#6a7371;"/>
                                <path d="M135.1,86.25L132.95,87.65L120.55,92.25L118.55,89.1L120.15,88.45L134.75,82.45C135.217,83.517 135.483,84.533 135.55,85.5L135.1,86.25M40.4,94.55L25.3,89L25,88.55C25.2,85.917 26.867,82.983 30,79.75L40.35,86.6L40.35,87.2L40.6,86.75L44.45,89.2C42.883,90.9 41.533,92.683 40.4,94.55" style="fill:#a3c9c5;"/>
                                <path d="M30,79.75L30.5,79.2C38.2,73.033 45.583,68.95 52.65,66.95C44.283,74.25 40.183,80.8 40.35,86.6L30,79.75M40.6,86.75C42.533,83.417 46.333,81.933 52,82.3C49.1,84.467 46.583,86.767 44.45,89.2L40.6,86.75M118.55,89.1C115.983,85.567 112.65,82.283 108.55,79.25C114.45,78.883 118.333,80.517 120.2,84.15C120.667,78.217 116.567,71.467 107.9,63.9C114.967,65.9 122.35,69.983 130.05,76.15C132.317,78.417 133.883,80.517 134.75,82.45L120.15,88.45L118.55,89.1" style="fill:#e8f5f5;"/>
                                <path d="M55.65,2.65C48.417,5.45 41.883,10.717 36.05,18.45C30.217,26.15 26.117,33.65 23.75,40.95C21.383,48.217 18.967,55.233 16.5,62C21.433,67.3 25.167,70.85 27.7,72.65L21.3,73.7L30,79.75C26.867,82.983 25.2,85.917 25,88.55L24.9,88.85L21.7,87.65L0.6,73.8L10.55,70.95L0,70.15C5.867,55.25 14.5,40.3 25.9,25.3L27.65,23.35C34.017,16.317 40.65,10.267 47.55,5.2C50.217,4.167 52.917,3.3 55.65,2.6L55.65,2.65M44.45,89.2C52.817,94.4 59.467,97.95 64.4,99.85C67.667,101.117 74.15,101.567 83.85,101.2L84.6,101C93.767,98.467 105.083,94.5 118.55,89.1L120.55,92.25L100.15,99.75L92.6,103.65L92.1,103.9L92.15,103.9L92.05,103.9C91.883,104 91.733,104.083 91.6,104.15L89.85,105.05L88,106L87.75,106.15L71.05,105.9L70.45,105.9L67.95,105.85L64.7,104.4L64.15,104.15L53.15,99.25L40.4,94.55C41.533,92.683 42.883,90.9 44.45,89.2M134.75,82.45L151.4,75.55L135.1,86.25L135.55,85.5C135.483,84.533 135.217,83.517 134.75,82.45" style="fill:#303332;"/>
                                <path d="M56.05,2.5L55.65,2.65L55.65,2.6L56.05,2.5M40.35,86.6L40.6,86.75L40.35,87.2L40.35,86.6M25.3,89L24.9,88.85L25,88.55L25.3,89" style="fill:#c75500;"/>
                                <path d="M88.85,105.6L88,106.05L88,106L88.85,105.6M64.7,104.4L64.75,104.4L64.15,104.15L64.7,104.4" style="fill:#fff0d6;"/>
                                <path d="M92.6,103.65L92.15,103.9L92.1,103.9L92.6,103.65M89.85,105.05L88.85,105.6L88,106L89.85,105.05M71.05,105.9L70.45,105.9L71.05,105.9" style="fill:#f27a02;"/>
                                <path d="M151.4,75.55L151.45,75.55L151.5,75.5L154.05,73.8L144.1,70.95L154.65,70.15C148.75,55.25 140.117,40.3 128.75,25.3L122.65,18.75C117.583,13.65 112.4,9.133 107.1,5.2C97.533,1.567 87.6,-0.167 77.3,0L67.45,0.45L66.65,0.5L61.1,1.35L56.1,2.45L56.05,2.5L55.65,2.6C52.917,3.3 50.217,4.167 47.55,5.2C40.65,10.267 34.017,16.317 27.65,23.35L25.9,25.3C14.5,40.3 5.867,55.25 0,70.15L10.55,70.95L0.6,73.8L21.7,87.65L25.3,89L25,88.55C25.2,85.917 26.867,82.983 30,79.75L30.5,79.2C38.2,73.033 45.583,68.95 52.65,66.95C44.283,74.25 40.183,80.8 40.35,86.6L40.35,87.2L40.6,86.75C42.533,83.417 46.333,81.933 52,82.3C49.1,84.467 46.583,86.767 44.45,89.2C42.883,90.9 41.533,92.683 40.4,94.55L25.3,89M118.55,89.1C115.983,85.567 112.65,82.283 108.55,79.25C114.45,78.883 118.333,80.517 120.2,84.15C120.667,78.217 116.567,71.467 107.9,63.9C114.967,65.9 122.35,69.983 130.05,76.15C132.317,78.417 133.883,80.517 134.75,82.45C135.217,83.517 135.483,84.533 135.55,85.5L135.1,86.25L132.95,87.65L120.55,92.25L100.15,99.75L92.6,103.65L92.15,103.9L92.05,103.9M151.4,75.55L135.1,86.25M91.6,104.15L89.85,105.05L88.85,105.6L88,106L87.75,106.15L71.05,105.9L70.45,105.9L67.95,105.85L64.7,104.4L64.15,104.15L53.15,99.25L40.4,94.55M118.55,89.1L120.55,92.25" style="fill:none;fill-rule:nonzero;stroke:#000;stroke-opacity:0.3;stroke-width:0.05px;"/>
                            </g>
                            <g id="sprite4" transform="matrix(1.5919,0,0,1.8281,49.6,20.35)">
                                <g id="shape3">
                                    <path d="M6.1,1.55C7.2,1.55 8.083,2.017 8.75,2.95C9.417,3.917 9.667,5.067 9.5,6.4C9.3,7.7 8.75,8.833 7.85,9.8C6.95,10.733 5.95,11.2 4.85,11.2C3.717,11.2 2.817,10.733 2.15,9.8C1.483,8.833 1.25,7.7 1.45,6.4C1.617,5.067 2.15,3.917 3.05,2.95C3.95,2.017 4.967,1.55 6.1,1.55" style="fill:#e8f5f5;"/>
                                </g>
                            </g>
                            <g id="sprite41" serif:id="sprite4" transform="matrix(-1.5919,0,0,1.8281,105,20.35)">
                                <g id="shape31" serif:id="shape3">
                                    <path d="M6.1,1.55C7.2,1.55 8.083,2.017 8.75,2.95C9.417,3.917 9.667,5.067 9.5,6.4C9.3,7.7 8.75,8.833 7.85,9.8C6.95,10.733 5.95,11.2 4.85,11.2C3.717,11.2 2.817,10.733 2.15,9.8C1.483,8.833 1.25,7.7 1.45,6.4C1.617,5.067 2.15,3.917 3.05,2.95C3.95,2.017 4.967,1.55 6.1,1.55" style="fill:#e8f5f5;"/>
                                </g>
                            </g>
                        </g>
                        <g id="sprite5" transform="matrix(1.073,0,0,1.073,65.5001,144.2)">
                            <g id="shape4">
                                <path d="M28.05,10.1L28.65,11.1L31.15,12.35L32.6,13.25L33.6,14.3C39.033,20.1 41.883,26.733 42.15,34.2C42.217,38.067 40.2,41.467 36.1,44.4L35.9,44.55L34,45.8C31.2,47.6 28.117,48.883 24.75,49.65C21.283,50.417 17.9,50.183 14.6,48.95C11.333,47.65 8.417,45.967 5.85,43.9C1.883,41.067 -0.05,37.833 0.05,34.2C0.383,28.433 2.167,23.067 5.4,18.1L6.65,16.3C8.117,14.233 10.067,12.633 12.5,11.5L13.5,11.1C15.533,8.533 17.05,6.1 18.05,3.8C18.45,2.733 19.25,1.617 20.45,0.45C21.617,-0.717 23.033,0.367 24.7,3.7C25.467,5.7 26.583,7.833 28.05,10.1" style="fill:#fff0d6;"/>
                                <path d="M28.05,10.1L28.65,11.1L31.15,12.35L32.6,13.25L33.6,14.3C39.033,20.1 41.883,26.733 42.15,34.2C42.217,38.067 40.2,41.467 36.1,44.4L35.9,44.55L34,45.8C31.2,47.6 28.117,48.883 24.75,49.65C21.283,50.417 17.9,50.183 14.6,48.95C11.333,47.65 8.417,45.967 5.85,43.9C1.883,41.067 -0.05,37.833 0.05,34.2C0.383,28.433 2.167,23.067 5.4,18.1L6.65,16.3C8.117,14.233 10.067,12.633 12.5,11.5L13.5,11.1C15.533,8.533 17.05,6.1 18.05,3.8C18.45,2.733 19.25,1.617 20.45,0.45C21.617,-0.717 23.033,0.367 24.7,3.7C25.467,5.7 26.583,7.833 28.05,10.1Z" style="fill:none;fill-rule:nonzero;stroke:#1a1900;stroke-opacity:0.3;stroke-width:0.05px;"/>
                                <path d="M20.9,0.1L18.8,4.9L16.45,10.3C16.083,11.2 14.917,12.667 12.95,14.7C10.983,16.733 9.3,18.85 7.9,21.05C6.5,23.25 5.5,26.183 4.9,29.85C4.3,33.483 4.583,36.35 5.75,38.45C6.917,40.55 8.45,42.25 10.35,43.55C12.25,44.85 15.317,45.95 19.55,46.85C23.75,47.717 27.05,47.9 29.45,47.4L33.35,46.2C30.717,47.8 27.85,48.95 24.75,49.65C21.283,50.417 17.9,50.183 14.6,48.95L12.4,48C10.033,46.867 7.85,45.5 5.85,43.9C1.883,41.067 -0.05,37.833 0.05,34.2C0.383,28.433 2.167,23.067 5.4,18.1L6.65,16.3C8.117,14.233 10.067,12.633 12.5,11.5L13.5,11.1C15.533,8.533 17.05,6.1 18.05,3.8C18.417,2.867 19.067,1.9 20,0.9L20.45,0.45L20.9,0.1" style="fill:#d1b579;"/>
                                <path d="M22.75,0.7L23.85,2.15L24.65,3.55L22.75,0.7" style="fill:#ffe5a3;"/>
                                <path d="M23.1,18.3L27.5,18.8L32.1,19.9L24.7,22.25L21.6,25.1L18.3,22.15L10.45,19.95L14.95,18.8L19.35,18.3L21.25,18.25L23.1,18.3M21.7,19.05C21.667,18.85 21.283,18.717 20.55,18.65L19.65,18.6L19.1,18.6L17.8,18.65L15.1,19.05C14.333,19.217 13.967,19.4 14,19.6C14,19.8 14.383,19.933 15.15,20L17.9,20L20.6,19.55L21.35,19.35L21.7,19.05"/>
                                <path d="M21.7,19.05L21.35,19.35L20.6,19.55L17.9,20L15.15,20C14.383,19.933 14,19.8 14,19.6C13.967,19.4 14.333,19.217 15.1,19.05L17.8,18.65L19.1,18.6L19.65,18.6L20.55,18.65C21.283,18.717 21.667,18.85 21.7,19.05" style="fill:#6869b0;"/>
                                <path d="M23.1,18.3L27.5,18.8L32.1,19.9L24.7,22.25L21.6,25.1L18.3,22.15L10.45,19.95L14.95,18.8L19.35,18.3L21.25,18.25L23.1,18.3Z" style="fill:none;fill-rule:nonzero;stroke:#1a1900;stroke-opacity:0.3;stroke-width:0.05px;"/>
                            </g>
                            <g id="sprite6" transform="matrix(1,0,0,1,7.9,30.8)">
                                <g id="shape5">
                                    <path d="M0.75,0.65L3.4,2.85C2.9,4.517 2.2,5.817 1.3,6.75C0.4,5.183 0.217,3.15 0.75,0.65" style="fill:#fff;"/>
                                    <path d="M3.4,2.85L3.5,2.9C8.9,6.767 14.433,7.833 20.1,6.1L18.7,3.75M0.75,0.65L3.4,2.85C2.9,4.517 2.2,5.817 1.3,6.75C0.4,5.183 0.217,3.15 0.75,0.65L0,0" style="fill:none;fill-rule:nonzero;stroke:#1a1900;stroke-opacity:0.3;stroke-width:0.05px;"/>
                                </g>
                            </g>
                        </g>
                        <g id="sprite7" transform="matrix(1.073,0,0,1.073,54.45,131.05)">
                            <g id="shape6">
                                <path d="M62.45,0C52.783,5.2 46.017,10.917 42.15,17.15M0,0C9.633,5.2 16.383,10.917 20.25,17.15" style="fill:none;fill-rule:nonzero;stroke:#330f00;stroke-opacity:0.5;stroke-width:0.05px;"/>
                            </g>
                        </g>
                        <g id="shape7">
                            <path d="M78.45,83.15L76.95,82.95C74.483,79.217 74.817,73.1 77.95,64.6C77.65,65.833 77.333,68.2 77,71.7C76.5,76.933 76.983,80.75 78.45,83.15" style="fill:#303332;"/>
                            <path d="M77.95,64.6L78.35,63.55L78.35,63.5L78.55,63.8L79.45,65.35C83.683,72.117 89.817,78.017 97.85,83.05C92.283,84.017 85.817,84.05 78.45,83.15C76.983,80.75 76.5,76.933 77,71.7C77.333,68.2 77.65,65.833 77.95,64.6" style="fill:#6a7371;"/>
                            <path d="M77.95,64.6L78.35,63.55L78.35,63.5L78.55,63.8L79.45,65.35C83.683,72.117 89.817,78.017 97.85,83.05M76.95,82.95C74.483,79.217 74.817,73.1 77.95,64.6L76.95,82.95Z" style="fill:none;fill-rule:nonzero;stroke:#000;stroke-opacity:0.3;stroke-width:0.05px;"/>
                        </g>
                    </g>
                </g>
            </g>
        </g>
    </g>
</svg>
