<?xml version="1.0" encoding="UTF-8"?>
<svg version="1.1" viewBox="0 0 39.65 34.5" xmlns="http://www.w3.org/2000/svg" xmlns:cc="http://creativecommons.org/ns#" xmlns:dc="http://purl.org/dc/elements/1.1/" xmlns:rdf="http://www.w3.org/1999/02/22-rdf-syntax-ns#" xmlns:xlink="http://www.w3.org/1999/xlink">
<metadata>
<rdf:RDF>
<cc:Work rdf:about="">
<dc:format>image/svg+xml</dc:format>
<dc:type rdf:resource="http://purl.org/dc/dcmitype/StillImage"/>
</cc:Work>
</rdf:RDF>
</metadata>
<g transform="translate(-251.65,-222.4)">
<use transform="translate(251.65,222.4)" width="39.650002" height="34.5" xlink:href="#a"/>
</g>
<defs>
<g id="a" transform="translate(-251.65,-222.4)">
<path d="m285.9 234.1-0.7 0.4-0.1 0.05 3.05 2.85-0.2 0.1-1.45 0.8-0.15 0.05v-0.1l-1.7-0.45-14.2 0.6 4.1 1.9h3.75v3.3l-0.45 1.6-0.15 0.1-0.05 0.05 0.35 0.15-2.25 1.35h-0.35l-0.15-0.75-0.35-0.5 1.4-0.75-1.35-0.1q0.05-1.7-0.8-3.35l0.35-0.15-6.1 0.2-4.45-0.6-0.5-0.15 1.2-1.55 0.5-0.8-1.55 0.55q-1.95 0.15-3.5 1l-0.1 0.2v-0.45l-0.8-0.3 1.6-2.85 3.65-1.8 3.8-0.75 2.6 1-1.75 1-0.5-0.85-3.3 0.95 2.4 1.9 5.15-2.55-0.25-0.95-3.75-2.25-11.65 4.25-2.45-1.7-0.45-0.75q-1.05-1.45-1.2-3.5-0.15-1.6 0.7-2.85l0.1-0.1q0.6-0.65 1.45-1.2 4.4-2.75 9.6-3.4l1.35-0.2 3.45 4.15-0.6 0.55-7.75 3.5h-0.25l-2.5-2.4 6.15-3.3 0.4 1.2-3.6 1.55 1.4 1.25 1.3-0.5h0.5l3.4-1.6-3.3-3.45-3 1.25-4.8 2.65-0.05 0.05-1.2 0.65 4.35 4.55 3.1-1.2 9.3-4.6 0.4-0.35-1.45-2.35 7.65-1-0.2 1.8-3.85 1.55 2.45 0.85-3 1.25-1.85 0.85 1.85 0.25 4.75-0.3 0.75-0.75h-0.05l2.35-0.65 0.6-0.15q2.95 0 4.1 2.35l-1.15 1.4-0.85 0.3-1.25 0.55-1.05 0.5-3.3 0.3-0.1-0.1-0.25-1.3 3.15-0.4 1.8-0.7-0.6-1.2-1.7 0.65-3.1 0.3-1.3 0.65-0.9 0.85q0.2 1.05 0.8 1.8 0.8 0.95 1.8 0.6l-0.05-0.05 6.85-0.45m-28.45-6.8-0.2 0.15-0.05 0.05 0.25-0.2m-5.75 18.95 0.15-0.35v1.8l-0.15-1.45m5.4-9.15q0 3.7 0.35 7.35l0.05 2.15q-2.2-1-2.4-4.25l-0.1-4.9-0.65-0.5 2.75 0.15v-0.5l0.15 0.5h-0.15m2.85 3.65h0.25q0.45 0 0.85 1.05 0.45 1.25 0.3 1.8l-0.8 2.35-0.1 0.35q-0.55-2.5-0.5-5.55m12.75-11.15 0.15-0.1-0.35 0.1h0.2m0.7 18.45q4.35 0.05 5.05-0.85l0.8-1.05 1.4 9.05q-2.2 1.8-6.55 1.5l-0.7-1.05v-7.6" fill="#f7f0d0" fill-rule="evenodd"/>
<path d="m285.9 238.5 0.35-0.15v0.05l-0.35 0.1m0.4-0.1v-0.05h0.05l-0.05 0.05m-28.85-11.1-0.25 0.2 0.05-0.05 0.2-0.15" fill="#efe1a0" fill-rule="evenodd"/>
<path d="m251.85 245.9-0.15 0.35 0.15-1.05v0.7" fill="#a58f1d" fill-rule="evenodd"/>
<path d="m275.75 246.85 2.25-1.35-0.35-0.15 0.05-0.05 1.1 0.5 0.4 0.15 0.05 0.15v0.05l-0.8 1.05q-0.7 0.9-5.05 0.85l-1.1-1.35 3.3 0.25 0.15-0.1m-23.9-0.95v-0.7l-0.05-6.25 1.65 3.25-1.6 3.7" fill="#e2c55f" fill-rule="evenodd"/>
<path d="m272.7 229.6h-0.2l0.35-0.1-0.15 0.1m12.35 23.95v0.05l-1.9 0.75 1.9-0.8" fill="#8f4b1b" fill-rule="evenodd"/>
<path d="m285.9 234.1-6.85 0.45 0.05 0.05q-1 0.35-1.8-0.6-0.6-0.75-0.8-1.8l0.9-0.85 1.3-0.65 3.1-0.3 1.7-0.65 0.6 1.2-1.8 0.7-3.15 0.4 0.25 1.3 0.1 0.1 3.3-0.3 1.05-0.5 1.25-0.55 0.85-0.3 1.15-1.4q-1.15-2.35-4.1-2.35l0.15-0.8-0.85-0.35 4.6-1.4 3.85 3.1-1.65 1.65 0.95 1.6-4.15 2.25m-6.7-10.75-7.65 1 1.45 2.35-0.4 0.35-9.3 4.6-3.1 1.2-4.35-4.55 1.2-0.65 0.05-0.05 4.8-2.65 3-1.25 3.3 3.45-3.4 1.6h-0.5l-1.3 0.5-1.4-1.25 3.6-1.55-0.4-1.2-6.15 3.3 2.5 2.4h0.25l7.75-3.5 0.6-0.55-3.45-4.15 4.1-0.3 4.45 0.15 3.45 0.45 0.95 0.15-0.05 0.15m-25.3 4.2-0.1 0.1q-0.85 1.25-0.7 2.85 0.15 2.05 1.2 3.5l0.45 0.75 2.45 1.7 11.65-4.25 3.75 2.25 0.25 0.95-5.15 2.55-2.4-1.9 3.3-0.95 0.5 0.85 1.75-1-2.6-1-3.8 0.75-3.65 1.8-1.6 2.85 0.8 0.3v0.45l0.1-0.2q1.55-0.85 3.5-1l1.55-0.55-0.5 0.8-1.2 1.55 0.5 0.15 4.45 0.6 6.1-0.2-0.35 0.15q0.85 1.65 0.8 3.35l1.35 0.1-1.4 0.75 0.35 0.5 0.15 0.75h0.35l-0.15 0.1-3.3-0.25 1.1 1.35v7.6l-4.6-0.15-7.35-0.8-2.8-1-3.1-1.6-3.7-4.4v-1.8l1.6-3.7-1.65-3.25-0.05-6.3q0.2-3.1 2.15-5.1m32.45 10.8 0.15-0.05 1.45-0.8 0.2-0.1 3.1 0.55v8.75l-0.4 1.5-1 2.5-2.15 1.6-1.35 0.75-1.3 0.5v-14.2h-1.8l2.65-0.85 0.35-0.1h0.05l0.05-0.05m-26.4 2.4q-0.05 3.05 0.5 5.55l0.1-0.35 0.8-2.35q0.15-0.55-0.3-1.8-0.4-1.05-0.85-1.05h-0.25m-2.85-3.65h0.15l-0.15-0.5v0.5l-2.75-0.15 0.65 0.5 0.1 4.9q0.2 3.25 2.4 4.25l-0.05-2.15q-0.35-3.65-0.35-7.35" fill="#ebd68d" fill-rule="evenodd"/>
<path d="m288.15 237.4-3.05-2.85 0.1-0.05 0.7-0.4 4.15-2.25-0.95-1.6 1.65-1.65v4.65q-0.2 2.8 0.5 4.7l-3.1-0.55m-5.15-9.35-0.6 0.15-0.1-1.3 0.85 0.35-0.15 0.8m-2.95 0.8h0.05l-0.75 0.75-4.75 0.3-1.85-0.25 1.85-0.85 3-1.25-2.45-0.85 3.85-1.55 0.2-1.8 0.05-0.15v5.85l0.8-0.2m-2.35 16.45 0.15-0.1 0.45-1.6v-3.3h-3.75l-4.1-1.9 14.2-0.6 1.7 0.45v0.1h-0.05v0.05h-0.05v-0.05l-0.35 0.15-2.65 0.85h1.8v14.2l-1.9 0.8-2.5 0.85-1.4-9.05v-0.05l-0.05-0.15-0.4-0.15-1.1-0.5" fill="#a46324" fill-rule="evenodd"/>
<path d="m283 228.05-0.6 0.15-2.35 0.65m11.2 9.1q-0.7-1.9-0.5-4.7m-3.85-7.75-4.6 1.4 0.85 0.35-0.15 0.8m7.85 20.15 0.4-1.5v-8.75m-12-14.75v5.85l0.8-0.2m-28.2 18.85v-2.5m-0.05-6.25 0.05 6.25m-0.1-12.55 0.05 6.3m30.5-12.05 0.1 1.3" fill="none" stroke="#8f4b1b" stroke-linecap="round" stroke-linejoin="round" stroke-width=".1"/>
<path d="m266.3 222.75-1.35 0.2q-5.2 0.65-9.6 3.4-0.85 0.55-1.45 1.2m36.85 5.7v-4.65l-3.85-3.1m-20.6-2.75 4.1-0.3 4.45 0.15 3.45 0.45 0.95 0.15m-27.55 23.05 0.15 1.45m0-2.5-0.15 1.05m0.05-13.6q0.2-3.1 2.15-5.1m20.2 29.15q4.35 0.3 6.55-1.5m-7.25 0.45 0.15 1.2 0.55-0.15m9.05-2.35-2.5 0.85m-7.25 0.45-4.6-0.15-7.35-0.8-2.8-1-3.1-1.6-3.7-4.4m33.2 5.85 1.3-0.5 1.35-0.75 2.15-1.6 1-2.5m-7.7 6.15 1.9-0.8" fill="none" stroke="#8f4b1b" stroke-linecap="round" stroke-linejoin="round" stroke-width=".1"/>
</g>
</defs>
</svg>
