<?xml version="1.0" encoding="UTF-8"?>
<svg version="1.1" viewBox="0 0 68.907 50.228" xmlns="http://www.w3.org/2000/svg" xmlns:cc="http://creativecommons.org/ns#" xmlns:dc="http://purl.org/dc/elements/1.1/" xmlns:rdf="http://www.w3.org/1999/02/22-rdf-syntax-ns#" xmlns:xlink="http://www.w3.org/1999/xlink">
<metadata>
<rdf:RDF>
<cc:Work rdf:about="">
<dc:format>image/svg+xml</dc:format>
<dc:type rdf:resource="http://purl.org/dc/dcmitype/StillImage"/>
</cc:Work>
</rdf:RDF>
</metadata>
<g transform="translate(-240.98 -175.33)">
<use transform="matrix(.6098 0 0 .6356 240.98 175.35)" width="113" height="79" xlink:href="#a"/>
</g>
<defs>
<g id="a" transform="translate(13.4)">
<path d="m99.6 18.95v55.9q-26 4.15-58.35 4.15-30 0-54.65-3.55v-57.1q24.65-3.5 54.65-3.5 32.35 0 58.35 4.1" fill="url(#b)" fill-rule="evenodd"/>
<path d="m82.4 4.35 0.05 1.85-0.9 0.85 0.95 0.4 0.15 4.45-2.3 3.15 2.6 5.75 0.25 6.85-1.65 1.6 1.7 0.85 0.05 1.65-1.95 0.7 2.05 1.45 0.15 4.7-1.15 3.6 1.3 1.55 0.1 3.3-5.6 2.2-2.25-1.25-0.7 2.4-4.05 1.6-2.1-1.2-0.95 2.4-14.6 5.75-1.9-1.1-2.75 2.95-15.2 5.95-1.75-1.85-3.6 3.95-10.3 4.05 0.2-2.7-0.15-6-0.05-2.65-0.1-4.95-0.05-2.25-0.05-1.4-0.1-5.6-0.1-5-0.05-1.75-0.15-7.95v-4.6l-0.05-2.5v-0.05 0.05l-0.05-0.05h0.05v-0.7l1-0.3v-0.1l-0.1-1.45 4.35 0.2 3.7-1.15 0.3-1.65 3.85 0.35 5.5-1.75-0.6-0.8 2 0.35 0.55-0.15 3.7-1.15v-0.4l3.9-2.9 8.45-0.6 0.55-0.15 2-0.65 0.3-1.8v-0.05l4.05 0.6 0.5-0.2 4.05-1.35 0.4-1.2 1.75 0.5 0.25-0.05 1.95-0.65 0.25-0.05 0.3-0.3 1.6-1.65 2.3 0.5 0.25 0.05 0.8-0.25 7.1-2.25m-80.4 16.15 0.1-0.1 4.4 1.5-1-0.3-3.5-1.1m56.95 14.95-0.6-6.2 0.6 6.2m-25.6 21.6 9.2-8.4 1.8-9.8-1.8 9.8-9.2 8.4m36.4-33.6 0.3-3.6-0.9-2.8 0.9 2.8-0.3 3.6m-61.85-1.1 0.1 0.05h-0.05l-0.05-0.05m5.7 1.95-0.2-0.05 0.2 0.05m20.95 11.2 0.05-1.15q-0.05-4.65-2.35-7.9-2.35-3.25-5.6-3.25-3.3 0-5.6 3.25-2.35 3.25-2.35 7.9 0 3.35 1.25 6l0.7 1.3 0.4 0.55 1.15 1.35 2.25 2.85q4 2.7 8.3-2.6l1.4-5.55v-0.15l0.1-0.35 0.3-2.25" fill="#f1d978" fill-rule="evenodd"/>
<path d="m2.1 20.4 1.15-1.9 52.9-15.65 2.6 0.8 1.25-1.95 5.6-1.7 8.75 2.3 0.6 1.15 1.15-0.7 6.3 1.6-7.1 2.25-0.8 0.25-0.25-0.05-2.3-0.5-1.6 1.65-0.3 0.3-0.25 0.05-1.95 0.65-0.25 0.05-1.75-0.5-0.4 1.2-4.05 1.35-0.5 0.2-4.05-0.6v0.05l-0.3 1.8-2 0.65-0.55 0.15-8.45 0.6-3.9 2.9v0.4l-3.7 1.15-0.55 0.15-2-0.35 0.6 0.8-5.5 1.75-3.85-0.35-0.3 1.65-3.7 1.15-4.35-0.2 0.1 1.45v0.1l-1 0.3v0.7h-0.05l-2.95-0.95-0.75-0.25h-0.05l-1.75 4-0.95-4.9-0.45-0.15-2.45-0.85-0.1-0.05 0.05 0.05-2.15 2.6-0.3-3.4 1 0.3-4.4-1.5m11.3 3.85 0.2 0.05-0.2-0.05" fill="#fdf3e3" fill-rule="evenodd"/>
<path d="m34.15 38.25-1.4 5.55q-4.3 5.3-8.3 2.6l-2.25-2.85q1.9 1.9 4.45 1.9 3.25 0 5.6-3.25 1.25-1.8 1.9-3.95" fill="#d5951e" fill-rule="evenodd"/>
<path d="m30.7 33.2q0.4-0.4 0.4-0.95t-0.4-0.95-0.95-0.4-0.95 0.4-0.4 0.95 0.4 0.95 0.95 0.4 0.95-0.4m0.65-0.95q0 0.75-0.5 1.25-0.5 0.55-1.2 0.55t-1.2-0.55q-0.5-0.5-0.5-1.25t0.5-1.3q0.5-0.5 1.2-0.5t1.2 0.5q0.5 0.55 0.5 1.3" fill="#4b3e07" fill-rule="evenodd"/>
<path d="m19.95 40.35q-1.25-2.65-1.25-6 0-4.65 2.35-7.9 2.3-3.25 5.6-3.25 3.25 0 5.6 3.25 2.3 3.25 2.35 7.9l-0.05 1.15-0.3 2.25-0.1 0.35v0.15q-0.65 2.15-1.9 3.95-2.35 3.25-5.6 3.25-2.55 0-4.45-1.9l-1.15-1.35-0.4-0.55-0.7-1.3m10.75-7.15q-0.4 0.4-0.95 0.4t-0.95-0.4-0.4-0.95 0.4-0.95 0.95-0.4 0.95 0.4 0.4 0.95-0.4 0.95m0.65-0.95q0-0.75-0.5-1.3-0.5-0.5-1.2-0.5t-1.2 0.5q-0.5 0.55-0.5 1.3t0.5 1.25q0.5 0.55 1.2 0.55t1.2-0.55q0.5-0.5 0.5-1.25" fill="#fff" fill-rule="evenodd"/>
<path d="m18.05 72.9-16.35-6.35-1.7-4.35v-8.55l2.75-4-2.75-3.2v-11.05l1.05-1.25-1.05-1.25v-9.2l2-3.2 3.5 1.1 0.3 3.4 2.15-2.6h0.05l2.45 0.85 0.45 0.15 0.95 4.9 1.75-4h0.05l0.75 0.25 2.95 0.95 0.05 0.05 0.05 2.5v4.6l0.15 7.95 0.05 1.75 0.1 5 0.1 5.6 0.05 1.4 0.05 2.25 0.1 4.95 0.05 2.65 0.15 6-0.2 2.7m-8.7-8.45q-1.8-2.8-3.6-1.8 1.8-1 3.6 1.8" fill="#cfc11b" fill-rule="evenodd"/>
<path d="m82.4 4.35 0.05 1.85-0.9 0.85 0.95 0.4 0.15 4.45-2.3 3.15 2.6 5.75 0.25 6.85-1.65 1.6 1.7 0.85 0.05 1.65-1.95 0.7 2.05 1.45 0.15 4.7-1.15 3.6 1.3 1.55 0.1 3.3-5.6 2.2-2.25-1.25-0.7 2.4-4.05 1.6-2.1-1.2-0.95 2.4-14.6 5.75-1.9-1.1-2.75 2.95-15.2 5.95-1.75-1.85-3.6 3.95-10.3 4.05-16.35-6.35-1.7-4.35v-8.55l2.75-4-2.75-3.2v-11.05l1.05-1.25-1.05-1.25v-9.2l2-3.2 0.1-0.1 1.15-1.9 52.9-15.65 2.6 0.8 1.25-1.95 5.6-1.7 8.75 2.3 0.6 1.15 1.15-0.7 6.3 1.6-7.1 2.25-0.8 0.25-0.25-0.05m-3.9 1.15-0.3 0.3-0.25 0.05-1.95 0.65-0.25 0.05-0.35-0.1m-1.8 0.8-4.05 1.35m-4.85 1.45-2 0.65m-12.9 3.9v0.15l-3.7 1.15m-1.95 0.6-5.5 1.75m-4.15 1.3-3.7 1.15m-4.25 1.25v0.1l-1 0.3v0.75l0.05 2.5m0 3v1.6m0.15 7.95 0.05 1.75m0.1 5 0.1 5.6m0.05 1.4 0.05 2.25m0.1 4.95 0.05 2.65m0.15 6-0.2 2.7m51.1-55.85 0.9 2.8-0.3 3.6m-25.4 15.4-1.8 9.8-9.2 8.4m25-27.8 0.6 6.2m-51.05-13.1 0.1 0.05 2.45 0.85m2.95 1 0.2 0.05m0.05 0 0.75 0.25m-8.9-2.95-3.5-1.1m15.4 5.05-0.05-0.05m2.6 14.85q-1.25-2.65-1.25-6 0-4.65 2.35-7.9 2.3-3.25 5.6-3.25 3.25 0 5.6 3.25 2.3 3.25 2.35 7.9l-0.05 1.15m-12.35 8.05-1.15-1.35-0.4-0.55m10.7-9.4q0 0.75-0.5 1.25-0.5 0.55-1.2 0.55t-1.2-0.55q-0.5-0.5-0.5-1.25t0.5-1.3q0.5-0.5 1.2-0.5t1.2 0.5q0.5 0.55 0.5 1.3m2.8 6q-0.65 2.15-1.9 3.95-2.35 3.25-5.6 3.25-2.55 0-4.45-1.9m-16.45 19.1q1.8-1 3.6 1.8" fill="none" stroke="#4b3e07" stroke-linecap="round" stroke-linejoin="round" stroke-width=".05"/>
</g>
<radialGradient id="b" cx="0" cy="0" r="819.2" gradientTransform="matrix(.144 0 0 .1053 41.2 46.9)" gradientUnits="userSpaceOnUse">
<stop stop-color="#699675" offset="0"/>
<stop stop-color="#a9c2b5" offset=".18039"/>
<stop stop-color="#fff" stop-opacity="0" offset=".4"/>
</radialGradient>
</defs>
</svg>
