<?xml version="1.0" encoding="UTF-8"?>
<svg version="1.1" viewBox="0 0 58.647 65.231" xmlns="http://www.w3.org/2000/svg" xmlns:cc="http://creativecommons.org/ns#" xmlns:dc="http://purl.org/dc/elements/1.1/" xmlns:rdf="http://www.w3.org/1999/02/22-rdf-syntax-ns#" xmlns:xlink="http://www.w3.org/1999/xlink">
<metadata>
<rdf:RDF>
<cc:Work rdf:about="">
<dc:format>image/svg+xml</dc:format>
<dc:type rdf:resource="http://purl.org/dc/dcmitype/StillImage"/>
</cc:Work>
</rdf:RDF>
</metadata>
<g transform="translate(-34.497 -11.788)">
<use transform="translate(34.5,11.8)" width="58.650002" height="65.199997" xlink:href="#a"/>
</g>
<defs>
<g id="a" transform="translate(28.95,32.6)">
<use transform="translate(-28.95,-32.6)" width="58.650002" height="65.199997" xlink:href="#b"/>
</g>
<g id="b" transform="translate(28.95,32.6)">
<path d="m-22.2 21.2q-2.1-1.6-3.45-3.8-1.4-2.25-2.1-4.7-0.75-2.7-0.7-5.6l0.25-4.35 0.85-4.25 1.45-4.05 2.05-3.8 2.45-3.25 2.9-2.75 3.4-2.25 3.95-1.9 4.25-1.05 4.3-0.85 4.45 0.1 2.25 0.25q8.6 2.3 10.8 6.15-0.45-5-9.4-10.05-9.55-7.1-21.15-4.2-3.6 0.85-6.8 2.75 7.1-4.35 15.3-5.4 8.45-1.3 16 2.8 7.8 4.2 12.65 11.75 4.2 12.05 3 18.65l-0.15 0.8q-1.2 5.9-2.45 7.2 0.15-2-0.25-4.4-0.55-2.8-1.85-6.15 0.7 3.95 0.25 7.8l-0.35 2.2q-0.5 1.45-1.75 1.1-1.2-0.35-2.75-1.9t-1.7-2.5q-0.2-0.95-6.05-6.8-5.85-5.8-11.9-2.25-6.1 3.55-8 2.9t-1.3-4.95q0.55-4.3-4.35 2.6 2.8-12.4 12.45-12.95-15.7 0.35-18.25 18.8l-0.25-0.65-0.35 2.75q-0.35 2.5 0.1 7.5 0.4 5 2.2 8.7m43.25-30.7q-3.4-12.85-15.95-18.8 12.55 5.95 15.95 18.8m-8.75 25.45v-1.25q-0.35-2.85-2.95-5.65-5-4.35-9.8 3.7-2.3-6.65 3.8-7.1-3.2-1.9-6-0.45-2.85 1.45-3.55 3.7-0.7 2.2 0.4 4.95 1.1 2.7 3.6 2.35-3.25 1.35-4.75-0.45-2.55-2.9-2.65-4.7-0.55-3.9 0.8-6.85 2.45-5.5 10.85-4.1 2.7 0.45 7.2 5.25 2.35 2.4 2.5 5.1 0.55 2.25 0.6 4.15l-0.05 1.35m4.85-24.15q-2.05-4.55-5.6-5.85 3.55 1.3 5.6 5.85m-5.4 18.65q-0.7-2.75-2.5-5.1 1.8 2.35 2.5 5.1m5.25-13.45q-8.1-13-18.4-9.45 10.3-3.55 18.4 9.45" fill="#f5eed3" fill-rule="evenodd"/>
<path d="m4.1-21.05q-1.1-4.35-14.35-3.9 7.3-2.55 15.75 0 8.95 5.05 9.4 10.05-2.2-3.85-10.8-6.15m17.4 3.8q3.5 5.75 5.55 12.15 2.7 8.4 2 17.25-0.75 9.05-7.3 14.9-6.95 6.35-16.1 4.75 4.8-1.25 9.8-3.6t6.25-8.6q-7.95 8.55-18.85 5.45-7.35 0.9-12.75-1.65 6.85 1.75 12.45-0.15t5.5-4.6q-8.55 3.75-15.25 0.15-5.45-5.05-6.75-11.2-1.85 2.2-0.35 8.2-6.1-9.2-5.85-19.1-3.7 4.55 0.85 17.15l-1.1-2.3q-2.55-4.4-3.5-8.65 2.55-18.45 18.25-18.8-9.65 0.55-12.45 12.95 4.9-6.9 4.35-2.6-0.6 4.3 1.3 4.95t8-2.9q6.05-3.55 11.9 2.25 5.85 5.85 6.05 6.8 0.15 0.95 1.7 2.5t2.75 1.9q1.25 0.35 1.75-1.1l0.35-2.2q0.45-3.85-0.25-7.8 1.3 3.35 1.85 6.15 0.4 2.4 0.25 4.4 1.25-1.3 2.45-7.2l0.15-0.8q1.2-6.6-3-18.65m-9.2 33.2-0.2 1.3-0.75 2.1q-2.65 4.9-8.5 5.7 5.85-0.8 8.5-5.7l0.75-2.1 0.2-1.3 0.05-1.35q-0.05-1.9-0.6-4.15-0.15-2.7-2.5-5.1-4.5-4.8-7.2-5.25-8.4-1.4-10.85 4.1-1.35 2.95-0.8 6.85 0.1 1.8 2.65 4.7 1.5 1.8 4.75 0.45-2.5 0.35-3.6-2.35-1.1-2.75-0.4-4.95 0.7-2.25 3.55-3.7 2.8-1.45 6 0.45-6.1 0.45-3.8 7.1 4.8-8.05 9.8-3.7 2.6 2.8 2.95 5.65v1.25" fill="#ddcc95" fill-rule="evenodd"/>
<path d="m-19.3 13.85q-4.55-12.6-0.85-17.15-0.25 9.9 5.85 19.1-1.5-6 0.35-8.2 1.3 6.15 6.75 11.2 6.7 3.6 15.25-0.15 0.1 2.7-5.5 4.6t-12.45 0.15l-1.1-0.65q-5.3-3.35-8.3-8.9" fill="#eddaaf" fill-rule="evenodd"/>
<path d="m-22.2 21.2q-2.1-1.6-3.45-3.8-1.4-2.25-2.1-4.7-0.75-2.7-0.7-5.6l0.25-4.35 0.85-4.25 1.45-4.05 2.05-3.8 2.45-3.25 2.9-2.75 3.4-2.25 3.95-1.9 4.25-1.05 4.3-0.85 4.45 0.1 2.25 0.25m-14.35-3.9q7.3-2.55 15.75 0m-27.95-1.45-0.9 0.55m-0.25 0.2-0.8 0.6m29.5-3.25q12.55 5.95 15.95 18.8m0.45-7.75q-4.85-7.55-12.65-11.75-7.55-4.1-16-2.8-8.2 1.05-15.3 5.4m28.1 58.2q9.15 1.6 16.1-4.75 6.55-5.85 7.3-14.9 0.7-8.85-2-17.25-2.05-6.4-5.55-12.15m-9.95 3.2q3.55 1.3 5.6 5.85m-18.55-4.25q10.3-3.55 18.4 9.45" fill="none" stroke="#ffffec" stroke-linecap="round" stroke-linejoin="round"/>
<path d="m4.1-21.05q-1.1-4.35-14.35-3.9m15.75 0q-9.55-7.1-21.15-4.2-3.6 0.85-6.8 2.75m-0.9 0.55-0.25 0.2m-0.3 28.55q0.95 4.25 3.5 8.65l1.1 2.3q3 5.55 8.3 8.9l1.1 0.65q5.4 2.55 12.75 1.65 5.85-0.8 8.5-5.7l0.75-2.1 0.2-1.3m-21.9-4.9q-0.55-3.9 0.8-6.85 2.45-5.5 10.85-4.1 2.7 0.45 7.2 5.25 1.8 2.35 2.5 5.1 0.55 2.25 0.6 4.15l-0.05 1.35m-34.5 5.25q-1.8-3.7-2.2-8.7-0.45-5-0.1-7.5l0.35-2.75 0.25 0.65" fill="none" stroke="#a78958" stroke-linecap="round" stroke-linejoin="round"/>
<path d="m21.7 19.6q-1.25 6.25-6.25 8.6t-9.8 3.6" fill="none" stroke="#b7a175" stroke-linecap="round" stroke-linejoin="round"/>
</g>
</defs>
</svg>
