<?xml version="1.0" encoding="UTF-8" standalone="no"?>
<!DOCTYPE svg PUBLIC "-//W3C//DTD SVG 1.1//EN" "http://www.w3.org/Graphics/SVG/1.1/DTD/svg11.dtd">
<svg width="100%" height="100%" viewBox="0 0 55 54" version="1.1" xmlns="http://www.w3.org/2000/svg" xmlns:xlink="http://www.w3.org/1999/xlink" xml:space="preserve" xmlns:serif="http://www.serif.com/" style="fill-rule:evenodd;clip-rule:evenodd;stroke-linecap:round;stroke-linejoin:round;">
    <g transform="matrix(1,0,0,1,-247.771,-173.375)">
        <g>
            <g id="shape0" transform="matrix(1,0,0,1,275,200)">
                <path d="M-10.95,-19.45C-11.35,-20.05 -11.55,-20.483 -11.55,-20.75C-11.55,-21.517 -10.85,-22.517 -9.45,-23.75L-5.6,-26.5L-0.9,-26.6L4.35,-25.1L5.7,-24.85L11.6,-25.45C12.433,-25.25 13.183,-24.7 13.85,-23.8L14.35,-22.45L12.25,-20.15L12.15,-20.1C10.617,-18.567 9.05,-17.517 7.45,-16.95C3.65,-15.617 0.433,-15.25 -2.2,-15.85C-3.7,-16.183 -6.617,-17.383 -10.95,-19.45M19.2,4.3C19.9,6.133 20.417,8.267 20.75,10.7C20.883,11.733 20.9,12.95 20.8,14.35L19.85,14.1C19.483,13.9 19.2,13.8 19,13.8L19,13.7C18.733,11 18.05,8.017 16.95,4.75L16.65,3.8L11.8,-7.5L12.05,-7.6L13.4,-7.65L13.75,-7.7L13.8,-7.7L15,-5.25L15.6,-3.95L16.6,-1.85L18.5,2.55L19.2,4.3M20.85,16.95L21.2,17.3C21.5,17.6 21.683,18 21.75,18.5L20.8,18.8L19.2,18.6C18.567,18.467 18.217,18.217 18.15,17.85C18.15,17.55 18.433,17.333 19,17.2L20.1,17L20.85,16.95M-16.65,10.15C-16.983,9.75 -17.233,8.683 -17.4,6.95C-17.567,5.083 -16.783,2.467 -15.05,-0.9C-13.35,-4.3 -11.817,-6.383 -10.45,-7.15L-6,-5.2C-2.133,-3.7 0.883,-3.05 3.05,-3.25C5.183,-3.45 6.917,-3.95 8.25,-4.75L10.6,-6.25L11.05,-7.1L11.25,-7.3L11.8,-7.5L16.65,3.8L16.95,4.75C18.05,8.017 18.733,11 19,13.7L18.8,13.7C17.733,14.133 16.967,14.5 16.5,14.8L13.65,14.85C12.283,14.717 11.067,14.883 10,15.35C8.967,15.783 7.933,16.417 6.9,17.25C5.867,18.083 3.5,18.517 -0.2,18.55C-3.933,18.483 -7.717,17.033 -11.55,14.2C-13.617,12.767 -15.367,11.317 -16.8,9.85C-16.3,10.383 -16.233,10.5 -16.6,10.2L-16.65,10.15L-16.8,9.85L-16.65,10.15M7.4,-19.9L9.05,-21.35L11.25,-21.85L11.85,-21.55C12.15,-21.383 12.283,-20.917 12.25,-20.15C12.283,-20.917 12.15,-21.383 11.85,-21.55L11.25,-21.85L9.05,-21.35L7.4,-19.9L6,-19.75C4.967,-19.75 4.35,-20.033 4.15,-20.6L4,-20.7L3.6,-20.1L3.15,-19.85L2.2,-19.5L-1.95,-19.95C-4.617,-20.483 -6.133,-21.3 -6.5,-22.4L-6.55,-23.3L-6.2,-23.95L-6.9,-23.65C-7.833,-23.117 -8.083,-22.4 -7.65,-21.5C-7.183,-20.6 -5.933,-19.933 -3.9,-19.5L1.45,-18.55L2.5,-18.5C3.7,-18.367 4.9,-18.583 6.1,-19.15L7.4,-19.9M4.8,-21.85L4,-20.7L4.8,-21.85M7.25,-23.65C10.917,-24.117 11.517,-23.35 9.05,-21.35C11.517,-23.35 10.917,-24.117 7.25,-23.65M21.2,17.3L19.1,17.7L19.05,17.7L19,17.2L19.05,17.7L19.1,17.7L21.2,17.3" style="fill:#8c6d47;"/>
                <path d="M14.35,-22.45C14.483,-21.983 14.4,-21.517 14.1,-21.05L11.4,-14.35L11.3,-14.35L9.95,-12.95L10.85,-15.3L12.25,-20.1L12.25,-20.15L14.35,-22.45M12.15,-20.1L12.25,-20.15L12.25,-20.1L12.15,-20.1M3.15,-19.85L3.6,-20.1L3.35,-19.7L3.15,-19.85M11.15,-8.6L12.3,-9.35L12.6,-9.8L12.9,-9.3L13.55,-8.2L13.8,-7.75L13.8,-7.7L13.75,-7.7L13.4,-7.65L12.05,-7.6L11.8,-7.5L11.15,-8.6" style="fill:#634521;"/>
                <path d="M20.8,14.35L20.45,16.7L20.85,16.95L20.1,17L19,17.2C18.433,17.333 18.15,17.55 18.15,17.85C18.217,18.217 18.567,18.467 19.2,18.6L20.8,18.8L21.75,18.5L21.85,18.85C22.05,20.95 20.783,21.4 18.05,20.2C10.483,21.4 5.083,22 1.85,22C-1.283,21.967 -4.7,20.983 -8.4,19.05C-12.433,16.983 -14.867,14.733 -15.7,12.3L-16.65,10.15L-16.6,10.2C-16.233,10.5 -16.3,10.383 -16.8,9.85C-15.367,11.317 -13.617,12.767 -11.55,14.2C-7.717,17.033 -3.933,18.483 -0.2,18.55C3.5,18.517 5.867,18.083 6.9,17.25C7.933,16.417 8.967,15.783 10,15.35C11.067,14.883 12.283,14.717 13.65,14.85L16.5,14.8C16.967,14.5 17.733,14.133 18.8,13.7L19,13.8C19.2,13.8 19.483,13.9 19.85,14.1L20.8,14.35M-10.45,-7.15L-7.1,-9L-6.4,-8.55L-5.5,-7.6C-5.033,-6.9 -3.05,-6.667 0.45,-6.9L6.4,-7.1L7.75,-7.4C9.05,-7.667 10.183,-8.067 11.15,-8.6L11.8,-7.5L11.25,-7.3L11.05,-7.1L10.6,-6.25L8.25,-4.75C6.917,-3.95 5.183,-3.45 3.05,-3.25C0.883,-3.05 -2.133,-3.7 -6,-5.2L-10.45,-7.15M-5.15,-12.85L-8.2,-16.05C-9.567,-17.483 -10.483,-18.617 -10.95,-19.45C-6.617,-17.383 -3.7,-16.183 -2.2,-15.85C0.433,-15.25 3.65,-15.617 7.45,-16.95C9.05,-17.517 10.617,-18.567 12.15,-20.1L12.25,-20.1L10.85,-15.3L9.95,-12.95L9.25,-12.45L7.05,-11.9L5.15,-10.75L0.4,-10.85C-1.133,-12.017 -2.5,-12.45 -3.7,-12.15L-5.15,-12.85M7.4,-19.9L6.1,-19.15C4.9,-18.583 3.7,-18.367 2.5,-18.5L1.45,-18.55L-3.9,-19.5C-5.933,-19.933 -7.183,-20.6 -7.65,-21.5C-8.083,-22.4 -7.833,-23.117 -6.9,-23.65L-6.2,-23.95L-6.55,-23.3L-6.5,-22.4C-6.133,-21.3 -4.617,-20.483 -1.95,-19.95L2.2,-19.5L3.15,-19.85L3.35,-19.7L2.5,-18.5L3.35,-19.7L3.6,-20.1L4.15,-20.6C4.35,-20.033 4.967,-19.75 6,-19.75L7.4,-19.9M19,17.2C19.133,16.133 19.133,15 19,13.8C19.133,15 19.133,16.133 19,17.2" style="fill:#705739;"/>
                <path d="M11.4,-14.35L12.05,-14.35L12.9,-13.8L13.6,-12.6C13.8,-12.2 13.867,-11.8 13.8,-11.4C13.7,-10.867 13.317,-10.367 12.65,-9.9C12.717,-11.267 12.25,-12.083 11.25,-12.35L10.6,-12.5L10.1,-12.55L9.25,-12.45L10.1,-12.55L10.6,-12.5L11.25,-12.35C12.25,-12.083 12.717,-11.267 12.65,-9.9L12.6,-9.8L12.3,-9.35L11.15,-8.6C10.183,-8.067 9.05,-7.667 7.75,-7.4L6.4,-7.1C6.733,-8.333 6.65,-9.3 6.15,-10L6.05,-10.1L5.15,-10.75L6.05,-10.1L6.15,-10C6.65,-9.3 6.733,-8.333 6.4,-7.1L0.45,-6.9C-3.05,-6.667 -5.033,-6.9 -5.5,-7.6L-6.4,-8.55C-6.3,-9.517 -5.95,-10.317 -5.35,-10.95L-4.95,-11.4L-3.95,-12.05L-3.7,-12.15L-3.95,-12.05L-4.95,-11.4L-5.35,-10.95C-5.95,-10.317 -6.3,-9.517 -6.4,-8.55L-7.1,-9C-7.933,-9.7 -8.217,-10.567 -7.95,-11.6L-7.75,-12.15L-6.75,-13.8L-5.15,-12.85L-3.7,-12.15C-2.5,-12.45 -1.133,-12.017 0.4,-10.85L5.15,-10.75L7.05,-11.9L9.25,-12.45L9.95,-12.95L11.3,-14.35L11.4,-14.35M14.55,-9.9L15.15,-9.2L13.9,-7.95L13.8,-7.75L13.55,-8.2L12.9,-9.3L14.4,-9.75L14.55,-9.9M17.85,-6L18.25,-5.6L17.2,-4.7C16.6,-4.167 16.367,-3.717 16.5,-3.35C16.6,-3.083 16.833,-2.85 17.2,-2.65L16.6,-1.85L15.6,-3.95L15,-5.25L15.6,-5.15L17.85,-6M23.5,-4.35L23.1,-1.85C23,-1.35 23.033,-0.833 23.2,-0.3L27.2,1.65L27.2,1.6L27.25,1.65L27.2,1.65C25.567,2.617 23.95,3.033 22.35,2.9L22.65,6.9C21.383,6.267 20.333,5.35 19.5,4.15L19.2,4.3L18.5,2.55L19.5,1.85L20.3,2.15L21.25,2.7L21.3,2.7L20.1,-0.05C19.833,-0.817 19.817,-1.383 20.05,-1.75L20.2,-2L23.5,-4.35M11.6,-13.1L11.9,-12.9L12.4,-12.75L12.7,-12.8L13,-13L12.7,-13.7L11.95,-13.75C11.617,-13.65 11.5,-13.45 11.6,-13.15L11.6,-13.1M9.3,-10.1L9.95,-10.35C10.65,-10.683 10.917,-11.067 10.75,-11.5L10.1,-12L9.65,-12L9.6,-11.95L9.45,-11.95L8.15,-11.45C7.75,-11.283 7.55,-11.05 7.55,-10.75L7.55,-10.45C7.65,-10.183 7.917,-10.033 8.35,-10L9.3,-10.1M4.95,-9.65L4.8,-9.85C4.567,-10.05 4.133,-10.2 3.5,-10.3L1.85,-10.35L1.55,-10L1.6,-9.7L1.6,-9.5L1.55,-9.15C1.65,-8.817 2.1,-8.65 2.9,-8.65L3.65,-8.6L4.45,-8.75C4.85,-8.883 5.05,-9.1 5.05,-9.4L4.95,-9.65M0.4,-10.85L0.1,-10.35L0,-10.1C-0.4,-9.033 -0.25,-7.967 0.45,-6.9C-0.25,-7.967 -0.4,-9.033 0,-10.1L0.1,-10.35L0.4,-10.85M13.55,-8.2L14.4,-9.75L13.55,-8.2M17.95,-5.9L15.6,-3.95L17.95,-5.9M-1.3,-10.1L-1.6,-10.55L-2.65,-10.9L-3.3,-10.95L-3.95,-10.9L-4.5,-10.25L-4.45,-10.2L-4.25,-10.15L-4.15,-10.15L-2.9,-9.65L-1.6,-9.5C-1.3,-9.6 -1.2,-9.8 -1.3,-10.1M-5.5,-11.95C-5.6,-12.25 -6.05,-12.517 -6.85,-12.75L-7.25,-12.35L-7.25,-12.3L-7.2,-12.05L-7.2,-11.95L-6.3,-11.4L-5.7,-11.4L-5.5,-11.55L-5.5,-11.95" style="fill:#9c7c3e;"/>
                <path d="M13.8,-11.4L14.55,-9.9L14.4,-9.75L12.9,-9.3L12.6,-9.8L12.65,-9.9C13.317,-10.367 13.7,-10.867 13.8,-11.4M15.15,-9.2C16.517,-8.467 17.417,-7.4 17.85,-6L15.6,-5.15L15,-5.25L13.8,-7.7L13.8,-7.75L13.9,-7.95L15.15,-9.2M18.25,-5.6L18.25,-5.55L18.75,-4.9L18.8,-4.9C19.7,-5.333 20.817,-5.633 22.15,-5.8C23.517,-5.9 23.967,-5.417 23.5,-4.35L20.2,-2L20.05,-1.75C19.817,-1.383 19.833,-0.817 20.1,-0.05L21.3,2.7L21.25,2.7L20.3,2.15L19.5,1.85L18.5,2.55L16.6,-1.85L17.2,-2.65C16.833,-2.85 16.6,-3.083 16.5,-3.35C16.367,-3.717 16.6,-4.167 17.2,-4.7L18.25,-5.6M23.1,-1.85C24.667,-1.083 26.033,0.067 27.2,1.6L27.2,1.65L23.2,-0.3C23.033,-0.833 23,-1.35 23.1,-1.85M11.6,-13.1L11.6,-13.15C11.5,-13.45 11.617,-13.65 11.95,-13.75L12.7,-13.7L13,-13L12.7,-12.8L12.4,-12.75L11.9,-12.9L11.6,-13.1M4.95,-9.65L5.05,-9.4C5.05,-9.1 4.85,-8.883 4.45,-8.75L3.65,-8.6L2.9,-8.65C2.1,-8.65 1.65,-8.817 1.55,-9.15L1.6,-9.5L1.6,-9.7L1.55,-10L1.85,-10.35L3.5,-10.3C4.133,-10.2 4.567,-10.05 4.8,-9.85L4.95,-9.65M9.3,-10.1L8.35,-10C7.917,-10.033 7.65,-10.183 7.55,-10.45L7.55,-10.75C7.55,-11.05 7.75,-11.283 8.15,-11.45L9.45,-11.95L9.6,-11.95L9.65,-12L10.1,-12L10.75,-11.5C10.917,-11.067 10.65,-10.683 9.95,-10.35L9.3,-10.1M18.8,-4.9L17.2,-2.65L18.8,-4.9M-1.3,-10.1C-1.2,-9.8 -1.3,-9.6 -1.6,-9.5L-2.9,-9.65L-4.15,-10.15L-4.25,-10.15L-4.45,-10.2L-4.5,-10.25L-3.95,-10.9L-3.3,-10.95L-2.65,-10.9L-1.6,-10.55L-1.3,-10.1M-5.5,-11.95L-5.5,-11.55L-5.7,-11.4L-6.3,-11.4L-7.2,-11.95L-7.2,-12.05L-7.25,-12.3L-7.25,-12.35L-6.85,-12.75C-6.05,-12.517 -5.6,-12.25 -5.5,-11.95" style="fill:#e0b359;"/>
                <path d="M3.6,-20.1L4,-20.7L4.15,-20.6L3.6,-20.1M18.8,13.7L19,13.7L19,13.8L18.8,13.7" style="fill:#8c622f;"/>
                <path d="M-10.95,-19.45C-11.35,-20.05 -11.55,-20.483 -11.55,-20.75C-11.55,-21.517 -10.85,-22.517 -9.45,-23.75L-5.6,-26.5L-0.9,-26.6L4.35,-25.1L5.7,-24.85L11.6,-25.45C12.433,-25.25 13.183,-24.7 13.85,-23.8L14.35,-22.45C14.483,-21.983 14.4,-21.517 14.1,-21.05L11.4,-14.35L12.05,-14.35L12.9,-13.8L13.6,-12.6C13.8,-12.2 13.867,-11.8 13.8,-11.4L14.55,-9.9L15.15,-9.2C16.517,-8.467 17.417,-7.4 17.85,-6L18.25,-5.6M18.25,-5.55L18.75,-4.9L18.8,-4.9C19.7,-5.333 20.817,-5.633 22.15,-5.8C23.517,-5.9 23.967,-5.417 23.5,-4.35L23.1,-1.85C24.667,-1.083 26.033,0.067 27.2,1.6L27.25,1.65L27.2,1.65C25.567,2.617 23.95,3.033 22.35,2.9L22.65,6.9C21.383,6.267 20.333,5.35 19.5,4.15L19.2,4.3C19.9,6.133 20.417,8.267 20.75,10.7C20.883,11.733 20.9,12.95 20.8,14.35L20.45,16.7L20.85,16.95L21.2,17.3C21.5,17.6 21.683,18 21.75,18.5L21.85,18.85C22.05,20.95 20.783,21.4 18.05,20.2C10.483,21.4 5.083,22 1.85,22C-1.283,21.967 -4.7,20.983 -8.4,19.05C-12.433,16.983 -14.867,14.733 -15.7,12.3L-16.65,10.15C-16.983,9.75 -17.233,8.683 -17.4,6.95C-17.567,5.083 -16.783,2.467 -15.05,-0.9C-13.35,-4.3 -11.817,-6.383 -10.45,-7.15L-7.1,-9C-7.933,-9.7 -8.217,-10.567 -7.95,-11.6L-7.75,-12.15L-6.75,-13.8L-5.15,-12.85L-8.2,-16.05C-9.567,-17.483 -10.483,-18.617 -10.95,-19.45M12.25,-20.15C12.283,-20.917 12.15,-21.383 11.85,-21.55L11.25,-21.85L9.05,-21.35L7.4,-19.9L6.1,-19.15C4.9,-18.583 3.7,-18.367 2.5,-18.5L1.45,-18.55L-3.9,-19.5C-5.933,-19.933 -7.183,-20.6 -7.65,-21.5C-8.083,-22.4 -7.833,-23.117 -6.9,-23.65L-6.2,-23.95M3.6,-20.1L4,-20.7L4.8,-21.85M12.25,-20.1L12.25,-20.15M12.25,-20.1L10.85,-15.3L9.95,-12.95L11.3,-14.35L11.4,-14.35M3.35,-19.7L3.6,-20.1M9.25,-12.45L10.1,-12.55L10.6,-12.5L11.25,-12.35C12.25,-12.083 12.717,-11.267 12.65,-9.9C13.317,-10.367 13.7,-10.867 13.8,-11.4M9.95,-12.95L9.25,-12.45L7.05,-11.9L5.15,-10.75L6.05,-10.1L6.15,-10C6.65,-9.3 6.733,-8.333 6.4,-7.1L7.75,-7.4C9.05,-7.667 10.183,-8.067 11.15,-8.6L12.3,-9.35L12.6,-9.8L12.65,-9.9M2.5,-18.5L3.35,-19.7M0.45,-6.9C-0.25,-7.967 -0.4,-9.033 0,-10.1L0.1,-10.35L0.4,-10.85C-1.133,-12.017 -2.5,-12.45 -3.7,-12.15L-3.95,-12.05L-4.95,-11.4L-5.35,-10.95C-5.95,-10.317 -6.3,-9.517 -6.4,-8.55L-5.5,-7.6C-5.033,-6.9 -3.05,-6.667 0.45,-6.9L6.4,-7.1M11.8,-7.5L11.15,-8.6M5.15,-10.75L0.4,-10.85M14.4,-9.75L14.55,-9.9M13.8,-7.7L13.8,-7.75L13.55,-8.2L12.9,-9.3L12.6,-9.8M14.4,-9.75L13.55,-8.2M17.2,-2.65L18.8,-4.9M16.6,-1.85L17.2,-2.65M18.5,2.55L19.2,4.3M15.6,-3.95L17.95,-5.9M15,-5.25L15.6,-3.95L16.6,-1.85L18.5,2.55M15,-5.25L13.8,-7.7M9.05,-21.35C11.517,-23.35 10.917,-24.117 7.25,-23.65M19,13.7C18.733,11 18.05,8.017 16.95,4.75L16.65,3.8L11.8,-7.5M19,13.7L19,13.8C19.133,15 19.133,16.133 19,17.2L19.05,17.7L19.1,17.7L21.2,17.3M-7.1,-9L-6.4,-8.55M-3.7,-12.15L-5.15,-12.85M-16.65,10.15L-16.6,10.2C-16.233,10.5 -16.3,10.383 -16.8,9.85L-16.65,10.15" style="fill:none;fill-rule:nonzero;stroke:#362a1a;stroke-opacity:0.5;stroke-width:0.05px;"/>
                <path d="M20.35,14.85L16.85,15.15L16.8,14.4L20.25,13.1L20.35,14.85" style="fill:#704e26;"/>
                <path d="M20.35,14.85L20.25,13.1L16.8,14.4L16.85,15.15L20.35,14.85Z" style="fill:none;fill-rule:nonzero;stroke:#000;stroke-opacity:0.5;stroke-width:0.05px;"/>
                <path d="M16.7,10.35L20.2,10.05L20.25,10.8L16.8,12.1L16.7,10.35" style="fill:#704e26;"/>
                <path d="M16.7,10.35L16.8,12.1L20.25,10.8L20.2,10.05L16.7,10.35Z" style="fill:none;fill-rule:nonzero;stroke:#000;stroke-opacity:0.5;stroke-width:0.05px;"/>
                <path d="M12.35,-3.25L11.75,-4.9L14.35,-5.85L14.6,-5.15L12.35,-3.25" style="fill:#704e26;"/>
                <path d="M12.35,-3.25L14.6,-5.15L14.35,-5.85L11.75,-4.9L12.35,-3.25Z" style="fill:none;fill-rule:nonzero;stroke:#000;stroke-opacity:0.5;stroke-width:0.05px;"/>
                <path d="M9.25,-14.8L11.55,-15L11.55,-14.4L9.35,-13.45L9.25,-14.8" style="fill:#704e26;"/>
                <path d="M9.25,-14.8L9.35,-13.45L11.55,-14.4L11.55,-15L9.25,-14.8Z" style="fill:none;fill-rule:nonzero;stroke:#000;stroke-opacity:0.5;stroke-width:0.05px;"/>
                <path d="M9.9,-21.15L12.5,-22.1L12.75,-21.4L10.5,-19.5L9.9,-21.15" style="fill:#704e26;"/>
                <path d="M9.9,-21.15L10.5,-19.5L12.75,-21.4L12.5,-22.1L9.9,-21.15Z" style="fill:none;fill-rule:nonzero;stroke:#000;stroke-opacity:0.5;stroke-width:0.05px;"/>
                <path d="M-8.2,20.1L-6.85,21.5C-6.15,23.933 -9.6,25.317 -17.2,25.65C-23.867,25.383 -27.083,24.2 -26.85,22.1L-26.05,21.35C-26.15,21.483 -26.117,21.783 -25.95,22.25C-25.783,22.683 -25.15,22.983 -24.05,23.15L-17.7,23.65L-12.85,22.85C-10.683,22.383 -9.133,21.467 -8.2,20.1" style="fill:#deb185;"/>
                <path d="M-8.2,20.1C-9.133,21.467 -10.683,22.383 -12.85,22.85L-17.7,23.65L-24.05,23.15C-25.15,22.983 -25.783,22.683 -25.95,22.25C-26.117,21.783 -26.15,21.483 -26.05,21.35C-22.883,18.85 -20.45,16.483 -18.75,14.25C-17.283,12.65 -16.05,12.2 -15.05,12.9L-8.2,20.1" style="fill:#fc9;"/>
                <path d="M-16.05,12.25C-15.85,12.683 -15.983,13.033 -16.45,13.3L-16.9,13.45C-16.8,13.85 -17,14.183 -17.5,14.45C-18.2,14.85 -18.667,14.733 -18.9,14.1C-19.133,13.467 -19.05,12.967 -18.65,12.6C-18.283,12.267 -17.867,12.317 -17.4,12.75C-17.4,12.45 -17.25,12.2 -16.95,12C-16.583,11.733 -16.283,11.817 -16.05,12.25M-14.05,13.2C-13.783,13.633 -13.867,14 -14.3,14.3C-14.733,14.567 -15.083,14.5 -15.35,14.1C-15.65,13.667 -15.567,13.3 -15.1,13C-14.667,12.7 -14.317,12.767 -14.05,13.2M-11.7,17.25C-11.9,16.783 -11.833,16.433 -11.5,16.2C-11.2,15.933 -10.867,16.017 -10.5,16.45C-10.133,16.85 -10.2,17.2 -10.7,17.5C-11.2,17.767 -11.533,17.683 -11.7,17.25M-13.1,16.1C-13.267,15.667 -13.133,15.317 -12.7,15.05C-12.233,14.817 -11.9,14.9 -11.7,15.3C-11.467,15.667 -11.617,16 -12.15,16.3C-12.65,16.6 -12.967,16.533 -13.1,16.1M-18.9,14.85C-18.667,15.25 -18.817,15.617 -19.35,15.95C-19.883,16.25 -20.233,16.167 -20.4,15.7C-20.567,15.233 -20.417,14.883 -19.95,14.65C-19.483,14.383 -19.133,14.45 -18.9,14.85M-9,17.95C-8.8,18.383 -8.933,18.733 -9.4,19C-9.833,19.267 -10.133,19.183 -10.3,18.75C-10.433,18.317 -10.3,17.967 -9.9,17.7C-9.533,17.433 -9.233,17.517 -9,17.95M-7.55,21.25C-7.983,21.517 -8.333,21.45 -8.6,21.05C-8.9,20.617 -8.817,20.25 -8.35,19.95L-7.5,19.9L-7.25,20.15C-6.95,20.517 -6.983,20.833 -7.35,21.1L-7.55,21.25M-8.6,23.95L-7.85,24.05C-7.683,24.35 -7.75,24.6 -8.05,24.8L-8.75,24.7C-8.95,24.4 -8.9,24.15 -8.6,23.95M-7.35,23.05C-7.45,22.75 -7.367,22.517 -7.1,22.35C-6.833,22.15 -6.617,22.2 -6.45,22.5C-6.317,22.8 -6.4,23.033 -6.7,23.2C-7.033,23.4 -7.25,23.35 -7.35,23.05M-10.05,24.4C-9.817,24.8 -9.967,25.167 -10.5,25.5C-11.033,25.8 -11.383,25.717 -11.55,25.25C-11.717,24.783 -11.567,24.433 -11.1,24.2C-10.633,23.933 -10.283,24 -10.05,24.4M-21.65,17.95C-21.983,17.45 -21.883,17.017 -21.35,16.65C-20.817,16.283 -20.4,16.35 -20.1,16.85C-19.767,17.383 -19.867,17.817 -20.4,18.15C-20.9,18.483 -21.317,18.417 -21.65,17.95M-25.95,22.9C-25.717,23.267 -25.783,23.583 -26.15,23.85L-27.1,23.7C-27.333,23.333 -27.25,23.017 -26.85,22.75C-26.483,22.45 -26.183,22.5 -25.95,22.9M-26.95,21.95C-27.117,21.517 -26.983,21.167 -26.55,20.9C-26.083,20.667 -25.75,20.75 -25.55,21.15C-25.317,21.517 -25.467,21.85 -26,22.15C-26.5,22.45 -26.817,22.383 -26.95,21.95M-23.65,24.5C-23.383,25.033 -23.533,25.467 -24.1,25.8C-24.667,26.1 -25.033,26 -25.2,25.5C-25.367,24.967 -25.217,24.533 -24.75,24.2C-24.283,23.9 -23.917,24 -23.65,24.5M-23.9,19.2C-23.9,18.9 -23.767,18.667 -23.5,18.5C-23.133,18.233 -22.85,18.3 -22.65,18.7C-22.45,19.1 -22.567,19.433 -23,19.7L-23.25,19.85C-23.05,20.217 -23.2,20.533 -23.7,20.8C-24.267,21.133 -24.65,21.033 -24.85,20.5C-25.083,19.967 -25.017,19.55 -24.65,19.25L-23.9,19.2M-22.65,25.8C-22.85,25.3 -22.767,24.9 -22.4,24.6C-22.067,24.3 -21.7,24.383 -21.3,24.85C-20.867,25.35 -20.933,25.767 -21.5,26.1C-22.067,26.4 -22.45,26.3 -22.65,25.8M-13.55,25.65C-13.717,25.283 -13.667,25 -13.4,24.8C-13.167,24.6 -12.9,24.667 -12.6,25C-12.3,25.367 -12.35,25.667 -12.75,25.9C-13.15,26.133 -13.417,26.05 -13.55,25.65M-14.7,26.3C-15.3,26.667 -15.7,26.567 -15.9,26C-16.067,25.433 -15.9,24.967 -15.4,24.6C-14.9,24.267 -14.5,24.383 -14.2,24.95C-13.9,25.483 -14.067,25.933 -14.7,26.3M-19.35,25.7L-19.9,25.6C-20,25.333 -19.917,25.133 -19.65,25C-19.417,24.867 -19.233,24.917 -19.1,25.15C-18.967,25.35 -19.05,25.533 -19.35,25.7M-18.3,24.95C-17.8,24.617 -17.383,24.7 -17.05,25.2C-16.75,25.7 -16.85,26.117 -17.35,26.45C-17.85,26.75 -18.25,26.667 -18.55,26.2C-18.883,25.733 -18.8,25.317 -18.3,24.95" style="fill:#ddb185;fill-opacity:0.5;"/>
            </g>
            <g id="sprite0" transform="matrix(0.5528,0.0826,-0.0701,0.6097,269.6,197.85)">
                <g id="shape1">
                    <path d="M22.05,24.45L19.8,25.15L22,29.65C22.333,28.217 22.35,26.483 22.05,24.45" style="fill:#faf3e4;"/>
                    <path d="M22,29.65L19.8,25.15L17.7,26C18.733,27.7 20.183,29 22.05,29.9L22,29.65" style="fill:#f0dfb9;"/>
                    <path d="M22.05,24.45C22.35,26.483 22.333,28.217 22,29.65L22.05,29.9C20.183,29 18.733,27.7 17.7,26" style="fill:none;fill-rule:nonzero;stroke:#8c621e;stroke-opacity:0.6;stroke-width:0.05px;stroke-linecap:butt;stroke-linejoin:miter;stroke-miterlimit:3;"/>
                    <path d="M25.3,20.1C26.333,21.767 26.85,23.283 26.85,24.65L26.65,24.5L23.75,20.5L25.3,20.1" style="fill:#f0dfb9;"/>
                    <path d="M23.75,20.5L26.65,24.5L22.05,20.95L23.75,20.5" style="fill:#faf3e4;"/>
                    <path d="M26.65,24.5L26.85,24.65C26.85,23.283 26.333,21.767 25.3,20.1M26.65,24.5L22.05,20.95" style="fill:none;fill-rule:nonzero;stroke:#8c621e;stroke-opacity:0.1;stroke-width:0.05px;stroke-linecap:butt;stroke-linejoin:miter;stroke-miterlimit:3;"/>
                    <path d="M6.85,22.65C5.817,24.317 5.3,25.833 5.3,27.2L5.5,27.05C7.367,25.317 8.333,23.983 8.4,23.05L6.85,22.65" style="fill:#f0dfb9;"/>
                    <path d="M8.4,23.05C8.333,23.983 7.367,25.317 5.5,27.05L10.1,23.5L8.4,23.05" style="fill:#faf3e4;"/>
                    <path d="M5.5,27.05L5.3,27.2C5.3,25.833 5.817,24.317 6.85,22.65M5.5,27.05L10.1,23.5" style="fill:none;fill-rule:nonzero;stroke:#8c621e;stroke-opacity:0.1;stroke-width:0.05px;stroke-linecap:butt;stroke-linejoin:miter;stroke-miterlimit:3;"/>
                </g>
                <g id="sprite1" transform="matrix(-0.9295,0,0,0.9295,12.2502,1.74992)">
                    <g id="Fleur66" transform="matrix(1,0,0,1,-7.65,-2.9)">
                        <g id="shape2">
                            <path d="M13.2,5.25C12.3,5.617 11.383,5.783 10.45,5.75C9.55,5.75 8.9,5.55 8.5,5.15C8.067,4.717 8.033,4.217 8.4,3.65C8.733,3.083 9.35,2.617 10.25,2.25C11.183,1.85 12.117,1.667 13.05,1.7C13.95,1.7 14.617,1.917 15.05,2.35C15.45,2.75 15.467,3.233 15.1,3.8C14.767,4.367 14.133,4.85 13.2,5.25M6.4,4.75L4.2,4.7C3.233,4.433 2.35,4 1.55,3.4C0.783,2.767 0.3,2.133 0.1,1.5C-0.1,0.867 0.033,0.433 0.5,0.2C1.033,-0.067 1.783,-0.067 2.75,0.2C3.683,0.467 4.55,0.917 5.35,1.55C6.183,2.183 6.7,2.817 6.9,3.45C7.1,4.083 6.933,4.517 6.4,4.75" style="fill:#ce5200;"/>
                        </g>
                    </g>
                    <g id="shape3">
                        <path d="M5.4,-1.2C6.3,-1.2 6.967,-0.983 7.4,-0.55C7.8,-0.15 7.817,0.333 7.45,0.9C7.117,1.467 6.483,1.95 5.55,2.35C4.65,2.717 3.733,2.883 2.8,2.85C1.9,2.85 1.25,2.65 0.85,2.25C0.417,1.817 0.383,1.317 0.75,0.75C1.083,0.183 1.7,-0.283 2.6,-0.65L5.4,-1.2M-4.9,-2.7C-3.967,-2.433 -3.1,-1.983 -2.3,-1.35C-1.467,-0.717 -0.95,-0.083 -0.75,0.55C-0.55,1.183 -0.717,1.617 -1.25,1.85L-3.45,1.8C-4.417,1.533 -5.3,1.1 -6.1,0.5C-6.867,-0.133 -7.35,-0.767 -7.55,-1.4C-7.75,-2.033 -7.617,-2.467 -7.15,-2.7C-6.617,-2.967 -5.867,-2.967 -4.9,-2.7" style="fill:none;fill-rule:nonzero;stroke:#000;stroke-opacity:0.3;stroke-width:0.1px;"/>
                    </g>
                </g>
                <g id="shape4">
                    <path d="M14.05,27.4L11.8,26.55L10.9,31.3C12,30.433 13.05,29.133 14.05,27.4" style="fill:#faf3e4;"/>
                    <path d="M10.9,31.3L11.8,26.55L9.65,25.85C9.45,27.783 9.817,29.683 10.75,31.55L10.9,31.3" style="fill:#f0dfb9;"/>
                    <path d="M14.05,27.4C13.05,29.133 12,30.433 10.9,31.3L10.75,31.55C9.817,29.683 9.45,27.783 9.65,25.85" style="fill:none;fill-rule:nonzero;stroke:#8c621e;stroke-opacity:0.6;stroke-width:0.05px;stroke-linecap:butt;stroke-linejoin:miter;stroke-miterlimit:3;"/>
                </g>
                <g id="Tete2" transform="matrix(1,0,0,1,14.25,15.25)">
                    <g id="shape5">
                        <path d="M0.25,-12.05C1.983,-11.917 4.333,-11.217 7.3,-9.95C8.533,-9.283 9.717,-8.467 10.85,-7.5C14.05,-4.767 15.6,-2.3 15.5,-0.1C15.433,2.1 15.35,2.833 15.25,2.1L15,2.85C13.367,6.617 8.85,9.717 1.45,12.15C-3.75,11.583 -8.833,10.067 -13.8,7.6L-14.2,7C-14.067,7.7 -14.4,7.017 -15.2,4.95C-16,2.883 -15.317,0.067 -13.15,-3.5C-12.417,-4.8 -11.567,-5.967 -10.6,-7C-8.2,-9.167 -6.183,-10.583 -4.55,-11.25L-2.5,-11.9L-2.5,-11.95L-2.25,-12L-1.95,-12.05L-1.95,-12L0.25,-12.05" style="fill:#b0af04;fill-opacity:0.89;"/>
                    </g>
                </g>
                <g id="shape6">
                    <path d="M18.8,11.8L18.6,11.45L18.8,11.05C18.9,10.95 19.033,10.9 19.2,10.9L19.6,11.05L19.8,11.45L19.6,11.8L19.2,11.95L18.8,11.8M15.2,8.5C15.5,8.267 15.85,8.15 16.25,8.15C16.65,8.15 16.983,8.267 17.25,8.5C17.517,8.767 17.65,9.067 17.65,9.4C17.65,9.733 17.517,10.017 17.25,10.25C16.983,10.517 16.65,10.65 16.25,10.65C15.85,10.65 15.5,10.517 15.2,10.25C14.933,10.017 14.8,9.733 14.8,9.4C14.8,9.067 14.933,8.767 15.2,8.5M14.55,11.75L14.7,12.25L14.55,12.75C14.417,12.883 14.283,12.95 14.15,12.95C13.983,12.95 13.85,12.883 13.75,12.75C13.65,12.617 13.6,12.45 13.6,12.25C13.6,12.083 13.65,11.917 13.75,11.75L14.15,11.55L14.55,11.75M13.3,7.75L13.1,8.1L12.7,8.25L12.3,8.1L12.1,7.75L12.3,7.45C12.4,7.35 12.533,7.3 12.7,7.3C12.867,7.3 13,7.35 13.1,7.45L13.3,7.75" style="fill:#e4e4e4;fill-opacity:0.3;"/>
                    <path d="M29.7,16.6C29.633,17.633 29.567,17.883 29.5,17.35C29.3,18.083 28.717,19.133 27.75,20.5C27.55,19.333 27.683,18.083 28.15,16.75L28.3,15.9C28.267,14.267 26.65,12.35 23.45,10.15L21,8.55C19.567,7.683 18.233,7.017 17,6.55C15.967,6.15 15,5.917 14.1,5.85C11.6,5.65 8.867,7.317 5.9,10.85C2.9,14.35 1.467,16.983 1.6,18.75L1.75,20.1L2.4,23.95C1.433,23.55 0.617,22.95 -0.05,22.15C-0.683,21.417 -1.15,20.5 -1.45,19.4L-1.25,17.8C-0.783,14.7 1,11.433 4.1,8C7.167,4.533 10.633,2.933 14.5,3.2C18.367,3.5 21.9,5.017 25.1,7.75C28.3,10.483 29.85,12.95 29.75,15.15L29.7,16.6" style="fill-opacity:0.13;"/>
                    <path d="M-0.05,22.15C-0.683,21.417 -1.15,20.5 -1.45,19.4L-1.25,17.8C-0.783,14.7 1,11.433 4.1,8C7.167,4.533 10.633,2.933 14.5,3.2C18.367,3.5 21.9,5.017 25.1,7.75C28.3,10.483 29.85,12.95 29.75,15.15L29.7,16.6" style="fill:none;fill-rule:nonzero;stroke:#000;stroke-opacity:0.3;stroke-width:0.1px;"/>
                    <path d="M17.55,26.8L17.1,26.95L11.6,26.55C8.733,25.883 6.867,25.3 6,24.8C4.5,23.5 4.367,22.617 5.6,22.15" style="fill:none;fill-rule:nonzero;stroke:#000;stroke-opacity:0.3;stroke-width:0.1px;"/>
                    <path d="M15.65,27.2C16.617,27.2 18.25,26.633 20.55,25.5C23.083,24.2 24.717,23.183 25.45,22.45C26.483,20.917 26.35,20.05 25.05,19.85" style="fill:none;fill-rule:nonzero;stroke:#000;stroke-opacity:0.3;stroke-width:0.1px;"/>
                </g>
            </g>
            <g id="shape7" transform="matrix(0.5528,0.0826,-0.0637,0.6005,281.2,202.45)">
                <path d="M-2,2C-1.4,2.267 -0.917,2.617 -0.55,3.05C-0.117,3.483 0.083,3.867 0.05,4.2C0.017,4.533 -0.25,4.75 -0.75,4.85L-2.3,4.6C-2.9,4.367 -3.4,4.017 -3.8,3.55C-4.167,3.117 -4.333,2.733 -4.3,2.4C-4.267,2.067 -4.033,1.85 -3.6,1.75L-2,2" style="fill:#ffeeb4;fill-opacity:0.53;"/>
            </g>
            <g id="shape8" transform="matrix(-0.5215,-0.1413,-0.1444,0.4739,281.35,209.15)">
                <path d="M-1,3.95C-1.367,4.25 -1.583,4.633 -1.65,5.1L-1.1,6.6C-0.733,7.067 -0.317,7.35 0.15,7.45L1.5,7.3C1.867,7 2.05,6.567 2.05,6C2.083,5.5 1.917,5.033 1.55,4.6C1.217,4.133 0.8,3.833 0.3,3.7C-0.167,3.6 -0.6,3.683 -1,3.95" style="fill:#ffb300;"/>
                <path d="M-1.6,1.25C2.367,0.483 4.5,1.9 4.8,5.5" style="fill:none;fill-rule:nonzero;stroke:#000;stroke-opacity:0.3;stroke-width:0.1px;"/>
            </g>
            <g id="shape81" serif:id="shape8" transform="matrix(0.5287,-0.1759,0.1731,0.58,271.3,209)">
                <path d="M-1,3.95C-1.367,4.25 -1.583,4.633 -1.65,5.1L-1.1,6.6C-0.733,7.067 -0.317,7.35 0.15,7.45L1.5,7.3C1.867,7 2.05,6.567 2.05,6C2.083,5.5 1.917,5.033 1.55,4.6C1.217,4.133 0.8,3.833 0.3,3.7C-0.167,3.6 -0.6,3.683 -1,3.95" style="fill:#ffb300;"/>
                <path d="M-1.6,1.25C2.367,0.483 4.5,1.9 4.8,5.5" style="fill:none;fill-rule:nonzero;stroke:#000;stroke-opacity:0.3;stroke-width:0.1px;"/>
            </g>
            <g id="sprite4" transform="matrix(-0.198,-0.5251,0.4778,-0.2042,271.8,205.85)">
                <g id="Peau2" transform="matrix(1,0,0,1,6.25,-4.65)">
                    <g id="shape9">
                        <path d="M4.35,-2.2L4.9,-2.3C1.133,-0.667 -1.25,0.85 -2.25,2.25C-5.217,2.55 -5.633,1.717 -3.5,-0.25C-2.067,-0.35 0.617,-1.05 4.55,-2.35L4.35,-2.2" style="fill:#b0af04;fill-opacity:0.89;"/>
                    </g>
                </g>
                <g id="shape10">
                    <path d="M4,-2.4C1.033,-2.1 0.617,-2.933 2.75,-4.9C4.183,-5 6.867,-5.7 10.8,-7L10.6,-6.85L11.15,-6.95C7.383,-5.317 5,-3.8 4,-2.4" style="fill-opacity:0.13;"/>
                    <path d="M2.75,-4.9C2.083,-4.867 1.667,-4.933 1.5,-5.1M4,-2.4C3.533,-1.733 3.35,-1.117 3.45,-0.55M4,-2.4C5,-3.8 7.383,-5.317 11.15,-6.95L10.6,-6.85L10.8,-7C6.867,-5.7 4.183,-5 2.75,-4.9M11.95,-8L10.8,-7L11.15,-6.95L12.55,-7.3" style="fill:none;fill-rule:nonzero;stroke:#000;stroke-opacity:0.3;stroke-width:0.1px;"/>
                </g>
                <g id="sprite6" transform="matrix(0.7712,0.4792,-0.1053,0.8192,7.20003,-21)">
                    <g id="Fleur2" transform="matrix(1,0,0,1,7.9,8.55)">
                        <g id="shape11">
                            <path d="M-0.2,4.35C-0.233,4.883 -0.4,5.45 -0.7,6.05C-1.2,6.95 -1.917,7.65 -2.85,8.15C-3.883,8.65 -4.867,8.767 -5.8,8.5C-6.767,8.2 -7.4,7.617 -7.7,6.75C-8.033,5.85 -7.95,4.917 -7.45,3.95C-6.983,2.983 -6.25,2.267 -5.25,1.8C-4.283,1.3 -3.317,1.2 -2.35,1.5C-1.417,1.767 -0.783,2.35 -0.45,3.25L-0.4,3.05L-0.4,2.8C-0.267,1.9 0.317,1.217 1.35,0.75C2.217,0.283 3.217,0.167 4.35,0.4C5.45,0.6 6.367,1.067 7.1,1.8C7.8,2.567 8.067,3.417 7.9,4.35C7.733,5.25 7.183,5.933 6.25,6.4C5.35,6.867 4.35,7 3.25,6.8L3.2,6.8C2.033,6.567 1.133,6.1 0.5,5.4L-0.2,4.35M1.55,-6.7L1.6,-6.65C1.967,-5.683 2.117,-4.5 2.05,-3.1C1.983,-1.8 1.683,-0.683 1.15,0.25C0.617,1.217 0.017,1.717 -0.65,1.75L-0.95,1.7C-1.783,1.6 -2.417,0.983 -2.85,-0.15C-3.25,-1.183 -3.417,-2.367 -3.35,-3.7C-3.283,-5.067 -2.967,-6.217 -2.4,-7.15L-2.25,-7.35C-1.717,-8.283 -1.067,-8.683 -0.3,-8.55C0.433,-8.517 1.05,-7.9 1.55,-6.7" style="fill:#ff8b17;"/>
                        </g>
                    </g>
                    <g id="shape12">
                        <path d="M12.25,8.95C11.117,8.717 10.117,8.833 9.25,9.3C8.217,9.767 7.633,10.45 7.5,11.35L7.5,11.6L7.45,11.8C7.117,10.9 6.483,10.317 5.55,10.05C4.583,9.75 3.617,9.85 2.65,10.35C1.65,10.817 0.917,11.533 0.45,12.5C-0.05,13.467 -0.133,14.4 0.2,15.3C0.5,16.167 1.133,16.75 2.1,17.05C3.033,17.317 4.017,17.2 5.05,16.7C5.983,16.2 6.7,15.5 7.2,14.6C7.5,14 7.667,13.433 7.7,12.9L8.4,13.95C9.033,14.65 9.933,15.117 11.1,15.35L11.15,15.35C12.25,15.55 13.25,15.417 14.15,14.95C15.083,14.483 15.633,13.8 15.8,12.9C15.967,11.967 15.7,11.117 15,10.35C14.267,9.617 13.35,9.15 12.25,8.95M9.5,1.9L9.45,1.85C8.95,0.65 8.333,0.033 7.6,0C6.833,-0.133 6.183,0.267 5.65,1.2L5.5,1.4C4.933,2.333 4.617,3.483 4.55,4.85C4.483,6.183 4.65,7.367 5.05,8.4C5.483,9.533 6.117,10.15 6.95,10.25L7.25,10.3C7.917,10.267 8.517,9.767 9.05,8.8C9.583,7.867 9.883,6.75 9.95,5.45C10.017,4.05 9.867,2.867 9.5,1.9" style="fill:none;fill-rule:nonzero;stroke:#000;stroke-opacity:0.3;stroke-width:0.1px;"/>
                    </g>
                </g>
            </g>
            <g id="sprite8" transform="matrix(0.4132,0.4157,-0.3726,0.4411,283.8,198.5)">
                <g id="Peau33" transform="matrix(1,0,0,1,4.45,5.3)">
                    <g id="shape13">
                        <path d="M-1.65,3.4L1.4,-3.9C0.967,-0.8 1.05,1.817 1.65,3.95L-1.65,3.4" style="fill:#b0af04;fill-opacity:0.89;"/>
                    </g>
                </g>
                <g id="sprite10" transform="matrix(-0.9241,0.3821,0.3821,0.9241,10.5,-7.44999)">
                    <g id="Fleur2R">
                        <g id="shape14">
                            <path d="M10.4,5.2C9.767,5.767 9.183,6.033 8.65,6C8.083,5.967 7.75,5.633 7.65,5C7.55,4.4 7.7,3.683 8.1,2.85C8.5,2.017 9.017,1.333 9.65,0.8C10.317,0.233 10.933,-0.033 11.5,0C12.033,0.033 12.333,0.367 12.4,1C12.5,1.6 12.35,2.317 11.95,3.15C11.55,3.983 11.033,4.667 10.4,5.2M4.3,5.45C5.233,5.35 5.967,5.467 6.5,5.8C7,6.1 7.15,6.5 6.95,7C6.75,7.5 6.233,7.95 5.4,8.35C4.567,8.717 3.683,8.933 2.75,9L0.6,8.65C0.067,8.317 -0.1,7.917 0.1,7.45C0.3,6.917 0.817,6.467 1.65,6.1C2.483,5.7 3.367,5.483 4.3,5.45" style="fill:#f60;"/>
                        </g>
                    </g>
                    <g id="shape15">
                        <path d="M10.4,5.2C9.767,5.767 9.183,6.033 8.65,6C8.083,5.967 7.75,5.633 7.65,5C7.55,4.4 7.7,3.683 8.1,2.85C8.5,2.017 9.017,1.333 9.65,0.8C10.317,0.233 10.933,-0.033 11.5,0C12.033,0.033 12.333,0.367 12.4,1C12.5,1.6 12.35,2.317 11.95,3.15C11.55,3.983 11.033,4.667 10.4,5.2M4.3,5.45C5.233,5.35 5.967,5.467 6.5,5.8C7,6.1 7.15,6.5 6.95,7C6.75,7.5 6.233,7.95 5.4,8.35C4.567,8.717 3.683,8.933 2.75,9L0.6,8.65C0.067,8.317 -0.1,7.917 0.1,7.45C0.3,6.917 0.817,6.467 1.65,6.1C2.483,5.7 3.367,5.483 4.3,5.45" style="fill-opacity:0.2;"/>
                        <path d="M10.4,5.2C9.767,5.767 9.183,6.033 8.65,6C8.083,5.967 7.75,5.633 7.65,5C7.55,4.4 7.7,3.683 8.1,2.85C8.5,2.017 9.017,1.333 9.65,0.8C10.317,0.233 10.933,-0.033 11.5,0C12.033,0.033 12.333,0.367 12.4,1C12.5,1.6 12.35,2.317 11.95,3.15C11.55,3.983 11.033,4.667 10.4,5.2M4.3,5.45C5.233,5.35 5.967,5.467 6.5,5.8C7,6.1 7.15,6.5 6.95,7C6.75,7.5 6.233,7.95 5.4,8.35C4.567,8.717 3.683,8.933 2.75,9L0.6,8.65C0.067,8.317 -0.1,7.917 0.1,7.45C0.3,6.917 0.817,6.467 1.65,6.1C2.483,5.7 3.367,5.483 4.3,5.45" style="fill:none;fill-rule:nonzero;stroke:#000;stroke-opacity:0.3;stroke-width:0.1px;"/>
                    </g>
                </g>
                <g id="shape16">
                    <path d="M2.8,8.7L5.85,1.4C5.417,4.5 5.5,7.117 6.1,9.25L2.8,8.7" style="fill-opacity:0.13;"/>
                    <path d="M6.1,9.25C5.5,7.117 5.417,4.5 5.85,1.4L2.8,8.7L2.45,9.55M6.1,9.25L6.75,10.8" style="fill:none;fill-rule:nonzero;stroke:#000;stroke-opacity:0.3;stroke-width:0.1px;"/>
                </g>
            </g>
        </g>
    </g>
</svg>
