<?xml version="1.0" encoding="UTF-8"?>
<svg version="1.1" viewBox="0 0 130.28 83.502" xmlns="http://www.w3.org/2000/svg" xmlns:cc="http://creativecommons.org/ns#" xmlns:dc="http://purl.org/dc/elements/1.1/" xmlns:rdf="http://www.w3.org/1999/02/22-rdf-syntax-ns#" xmlns:xlink="http://www.w3.org/1999/xlink">
<metadata>
<rdf:RDF>
<cc:Work rdf:about="">
<dc:format>image/svg+xml</dc:format>
<dc:type rdf:resource="http://purl.org/dc/dcmitype/StillImage"/>
</cc:Work>
</rdf:RDF>
</metadata>
<g transform="translate(-209.85 -158.22)">
<use transform="translate(209.85,158.25)" width="130.25" height="83.449997" xlink:href="#a"/>
</g>
<defs>
<g id="a" transform="translate(-209.85,-158.25)">
<path d="m239.4 204.65q-26.05-2.6-28.75-14.6-2.55-12.05 3.25-16.7 5.65-4.7 8.2-3.9-5.6 2.95-4.8 11.55t24.95 10.15q4.1 6.75-2.85 13.5m77.8-11.55q7.25 7.25 3.05 21.75l-5.45 0.85q4.2-8.9 2.8-20.1l-0.4-2.5m-39.7 8.6 3.5-3.4q5.15-4.6 7.9-3.2 10.45 7.3 9.45 25.45h-0.15q-15.15-2.05-20-8.2 1.75-0.2 3.9-1.95 2.15-1.6 3.55-4.05 1.45-2.55 1.25-4.45-0.4-1.65-2.3-1.65t-4.1 1.65q-2.35 1.9-3.75 4.45l-0.7 1.3q-0.35-1.9 0-4l0.4-0.65 0.15-0.25 0.9-1.05" fill="#c88748" fill-rule="evenodd"/>
<path d="m249.95 171.95 1.6-2.5q9.25-11.05 24.45-11.2 14.3-0.15 26.15 9.25l1.7 1.4q2.75 2.6 5 5.45 5.2 6.6 7.4 14.55l0.95 4.2 0.4 2.5q1.4 11.2-2.8 20.1-1.7 3.55-4.35 6.8l-2.95 3.1q-2-0.8-4-1.25 2 0.45 4 1.25-2.35 2.1-4.9 3.65l0.9-4.9 0.75-5.85q1.45 4.25 5.05 3.5 3.85-2.9 4.5-9.05-4.25-1-9.35 2.55 0.65-14.65-5.45-22.85l-2.35-2.7q-4.25-4.1-10.8-6-1.85-5.75-6.8-8.8l-6.95 0.6q-4.4-16.45-22.15-3.8" fill="#cceaac" fill-rule="evenodd"/>
<path d="m271.6 231.75q-7.2-2.7-13.45-8.55-12.4-10.9-14.25-26.7-1.7-13.5 5.35-23.85l0.7-0.7q17.75-12.65 22.15 3.8-12.7 2.55-11.25 15.6 1.6 13.1 15.6 11.65l-0.4 0.65q-6.15 10.95 1.4 14.95 10.55 5.9 20.75 1.95h0.15q1-18.15-9.45-25.45-2.75-1.4-7.9 3.2 1.3-1.55 3.05-2.85l2.85-1.8q0.3-5.55-1.05-9.7 6.55 1.9 10.8 6l2.35 2.7q6.1 8.2 5.45 22.85l-0.8 0.6 0.6 2.4-0.75 5.85-0.9 4.9q-7.5 4.75-17.3 4.8-7.25 0.15-13.7-2.3 17.5-10.9 31.9-7.4-14.4-3.5-31.9 7.4" fill="#89a027" fill-rule="evenodd"/>
<path d="m320.85 175.1 0.55 1.25q-0.95 7-5.15 12.55-2.2-7.95-7.4-14.55 4.9-3.25 12 0.75m-43.35 26.6q-11.35-5.65-12-8.05 3.2-6.75 9.3-9.6 6.05-2.15 7.5 1.05 2.1 3.9 1.75 10.35-1.75 1.3-3.05 2.85l-3.5 3.4" fill="#facb9c" fill-rule="evenodd"/>
<path d="m302.15 167.5q12.15-10.6 18.7 7.6-7.1-4-12-0.75-2.25-2.85-5-5.45l-1.7-1.4m-30.05 8.25 6.95-0.6q4.95 3.05 6.8 8.8 1.35 4.15 1.05 9.7l-2.85 1.8q0.35-6.45-1.75-10.35-1.45-3.2-7.5-1.05-6.1 2.85-9.3 9.6 0.65 2.4 12 8.05l-0.9 1.05-0.15 0.25q-14 1.45-15.6-11.65-1.45-13.05 11.25-15.6" fill="#7c9c25" fill-rule="evenodd"/>
<path d="m304.45 215.5q5.1-3.55 9.35-2.55-0.65 6.15-4.5 9.05-3.6 0.75-5.05-3.5l-0.6-2.4 0.8-0.6" fill="#6b4b2c" fill-rule="evenodd"/>
<path d="m276.05 207.65 0.7-1.3q1.4-2.55 3.75-4.45 2.2-1.65 4.1-1.65t2.3 1.65q0.2 1.9-1.25 4.45-1.4 2.45-3.55 4.05-2.15 1.75-3.9 1.95l-0.4 0.05q-1.9-0.05-2.15-2-0.25-1.15 0.4-2.75" fill="#fff" fill-rule="evenodd"/>
<path d="m298.2 220.55q-10.2 3.95-20.75-1.95-7.55-4-1.4-14.95-0.35 2.1 0 4-0.65 1.6-0.4 2.75 0.25 1.95 2.15 2l0.4-0.05q4.85 6.15 20 8.2" fill="#835527" fill-rule="evenodd"/>
<path d="m340.1 208.25q-6.85-0.25-14.15 5.15-5.05 3.7-10.3 10.15m20.55 0.15q-5.15-1.2-10.25-0.15-4.6 0.95-9.2 3.75m-9.25-1.7 0.65 0.25m-4.65-1.5q2 0.45 4 1.25m-35.9 6.15-1.65 1.05m8.4 8.9 0.85-0.6q13.55-9.4 27.2-11.15m-34.8 1.8q17.5-10.9 31.9-7.4" fill="none" stroke="#65421f" stroke-linecap="round" stroke-linejoin="round" stroke-width=".05"/>
<path d="m222.1 169.45q-2.55-0.8-8.2 3.9-5.8 4.65-3.25 16.7 2.7 12 28.75 14.6" fill="none" stroke="#3d2612" stroke-linecap="round" stroke-linejoin="round" stroke-width=".05"/>
<path d="m249.95 171.95 1.6-2.5q9.25-11.05 24.45-11.2 14.3-0.15 26.15 9.25l1.7 1.4q2.75 2.6 5 5.45 5.2 6.6 7.4 14.55l0.95 4.2 0.4 2.5q1.4 11.2-2.8 20.1-1.7 3.55-4.35 6.8l-2.95 3.1q-2.35 2.1-4.9 3.65-7.5 4.75-17.3 4.8-7.25 0.15-13.7-2.3-7.2-2.7-13.45-8.55-12.4-10.9-14.25-26.7-1.7-13.5 5.35-23.85l0.7-0.7" fill="none" stroke="#6b8020" stroke-linecap="round" stroke-linejoin="round" stroke-width=".05"/>
<path d="m272.1 175.75 6.95-0.6q4.95 3.05 6.8 8.8m1.05 9.7q0.3-5.55-1.05-9.7m-9.4 19.05q-14 1.45-15.6-11.65-1.45-13.05 11.25-15.6" fill="none" stroke="#4a4d13" stroke-linecap="round" stroke-linejoin="round" stroke-width=".05"/>
<path d="m302.15 167.5q12.15-10.6 18.7 7.6l0.55 1.25q-0.95 7-5.15 12.55" fill="none" stroke="#434212" stroke-linecap="round" stroke-linejoin="round" stroke-width=".05"/>
<path d="m304.45 215.5q5.1-3.55 9.35-2.55-0.65 6.15-4.5 9.05-3.6 0.75-5.05-3.5m0.2-3-0.8 0.6 0.6 2.4" fill="none" stroke="#281a0d" stroke-linecap="round" stroke-linejoin="round" stroke-width=".05"/>
</g>
</defs>
</svg>
