<?xml version="1.0" encoding="UTF-8"?>
<svg version="1.1" viewBox="0 0 15.7 8.625" xmlns="http://www.w3.org/2000/svg" xmlns:cc="http://creativecommons.org/ns#" xmlns:dc="http://purl.org/dc/elements/1.1/" xmlns:rdf="http://www.w3.org/1999/02/22-rdf-syntax-ns#" xmlns:xlink="http://www.w3.org/1999/xlink">
<metadata>
<rdf:RDF>
<cc:Work rdf:about="">
<dc:format>image/svg+xml</dc:format>
<dc:type rdf:resource="http://purl.org/dc/dcmitype/StillImage"/>
</cc:Work>
</rdf:RDF>
</metadata>
<g transform="translate(-275.68 -200.2)">
<use transform="translate(275.7,200.2)" width="15.65" height="8.6000004" xlink:href="#a"/>
</g>
<defs>
<g id="a" transform="translate(-275.7,-200.2)">
<path d="m279.25 205.1 0.4-0.2 1.05 3.25-5 0.35q0.8-1.95 3.55-3.4m8.3 2.6 1.4-2.8q1.6 1.25 2.4 3.15l-3.8-0.35" fill="#fff5e0" fill-rule="evenodd"/>
<path d="m287.95 205.15 1-0.25-1.4 2.8-3.5 1.1q-0.1-1.2 1.35-2.45l-2.6-1.2-1.25 0.5 0.75 0.3 1.05 0.95 0.4 1.85q-1.4-0.5-3.05-0.6l-1.05-3.25-0.4 0.2 0.35-3.8q1.55 0.4 4.05 2.25 2.8-1.4 5.5-2.2-0.85 2.1-1.2 3.8" fill="#e5c59a" fill-rule="evenodd"/>
<path d="m287.95 205.15q0.35-1.7 1.2-3.8-2.7 0.8-5.5 2.2-2.5-1.85-4.05-2.25l-0.35 3.8 0.4-0.2m1.05 3.25-5 0.35q0.8-1.95 3.55-3.4" fill="none" stroke="#9e8769" stroke-linecap="round" stroke-linejoin="round" stroke-width=".05"/>
<path d="m284.05 208.8 3.5-1.1m1.4-2.8q1.6 1.25 2.4 3.15l-3.8-0.35" fill="none" stroke="#9e8769" stroke-linecap="round" stroke-linejoin="round" stroke-width=".05"/>
<path d="m286.6 204.35 2.55 0.5q-1 1.65-1.8 2l-1.45 0.3q1.4-1.6 0.7-2.8m-7.15 0.25q0.25 1.45 1.6 2.7h-1.45q-0.85-0.15-2.35-1.8l2.2-0.9m3.4-3.15 2.05 1.75q-1.85-0.1-3.5 0.7l-0.1-0.3q-0.2-0.95 1.55-2.15" fill="#a18562" fill-rule="evenodd"/>
<path d="m281.6 206.95q-1.6 0.1-2.55-1-1.1-2.5-0.15-4.15 0.7 3.25 2.7 5.15" fill="url(#e)" fill-rule="evenodd"/>
<path d="m278.9 201.8q1.75 1.9 3.85 3-0.45 2.15-1.15 2.15-2-1.9-2.7-5.15" fill="#624e2f" fill-rule="evenodd"/>
<path d="m283.8 200.2q2.4 2 2.75 4.5-0.35 0.55-0.95 0.45 0.45-2.1-1.8-4.95" fill="url(#d)" fill-rule="evenodd"/>
<path d="m283.8 200.2q2.25 2.85 1.8 4.95-2 0.2-4.95-0.75 2.7-1.6 3.15-4.2" fill="#624e2f" fill-rule="evenodd"/>
<path d="m284.6 206.8q1.7-1.3 3.15-5.15 0.55 1.85-0.5 4.4-0.95 1.15-2.65 0.75" fill="url(#c)" fill-rule="evenodd"/>
<path d="m284.6 206.8-1.1-0.4q2.6-1.95 4.25-4.75-1.45 3.85-3.15 5.15" fill="#624e2f" fill-rule="evenodd"/>
<path d="m284.95 206.5q-0.75 0.8-1.85 0.8-1.05 0-1.85-0.8-0.75-0.75-0.75-1.8 0-1.1 0.75-1.9 0.8-0.75 1.85-0.75 1.1 0 1.85 0.75 0.75 0.8 0.75 1.9 0 1.05-0.75 1.8" fill="#ffd919" fill-rule="evenodd"/>
<path d="m284.6 203.6-0.3 0.25-0.6-0.25-0.4-0.55-0.15-0.6 0.35-0.25q0.25 0 0.55 0.25l0.5 0.6 0.05 0.55" fill="#fff8df" fill-rule="evenodd"/>
<path d="m282.7 207.8-2.05-0.3q0.35-1.7 2.3-3.45 2 0.9 2.8 3.3l-3.05 0.45" fill="url(#b)" fill-rule="evenodd"/>
<path d="m286.75 206.95q-2.2 1.15-2.9 0.95l2.25-1.75 0.65 0.8m-7.1 0.1 0.6-0.8q0.85 0.9 2.4 1.8-0.65 0.15-3-1" fill="#886c51" fill-rule="evenodd"/>
</g>
<linearGradient id="e" x1="-819.2" x2="819.2" gradientTransform="matrix(-7e-4 -.0016 .0011 -5e-4 279.45 204.5)" gradientUnits="userSpaceOnUse">
<stop stop-color="#ed9c16" offset=".066667"/>
<stop stop-color="#f2cc4f" offset=".51373"/>
<stop stop-color="#fceadb" offset="1"/>
</linearGradient>
<linearGradient id="d" x1="-819.2" x2="819.2" gradientTransform="matrix(-5e-4 -.0018 9e-4 -2e-4 285.4 203.2)" gradientUnits="userSpaceOnUse">
<stop stop-color="#ed9c16" offset=".066667"/>
<stop stop-color="#f2cc4f" offset=".51373"/>
<stop stop-color="#fceadb" offset="1"/>
</linearGradient>
<linearGradient id="c" x1="-819.2" x2="819.2" gradientTransform="matrix(8e-4 -.0018 .0012 5e-4 286.75 204.55)" gradientUnits="userSpaceOnUse">
<stop stop-color="#ed9c16" offset=".066667"/>
<stop stop-color="#f2cc4f" offset=".51373"/>
<stop stop-color="#fceadb" offset="1"/>
</linearGradient>
<linearGradient id="b" x1="-819.2" x2="819.2" gradientTransform="matrix(0 -.0016 .0031 0 283.2 206.4)" gradientUnits="userSpaceOnUse">
<stop stop-color="#ed9c16" offset=".066667"/>
<stop stop-color="#f2cc4f" offset=".51373"/>
<stop stop-color="#fceadb" offset="1"/>
</linearGradient>
</defs>
</svg>
