<?xml version="1.0" encoding="UTF-8"?>
<svg version="1.1" viewBox="0 0 36 19.775" xmlns="http://www.w3.org/2000/svg" xmlns:cc="http://creativecommons.org/ns#" xmlns:dc="http://purl.org/dc/elements/1.1/" xmlns:rdf="http://www.w3.org/1999/02/22-rdf-syntax-ns#" xmlns:xlink="http://www.w3.org/1999/xlink">
<metadata>
<rdf:RDF>
<cc:Work rdf:about="">
<dc:format>image/svg+xml</dc:format>
<dc:type rdf:resource="http://purl.org/dc/dcmitype/StillImage"/>
</cc:Work>
</rdf:RDF>
</metadata>
<g transform="translate(-257.18 -187.25)">
<use transform="translate(257.2,187.25)" width="35.950001" height="19.75" xlink:href="#a"/>
</g>
<defs>
<g id="a" transform="translate(-257.2,-187.25)">
<path d="m271 197.35q8.75-4.95 17.1-7.5-3.35 8.35-3.5 13.9l-13.6-6.4" fill="#77ba00" fill-rule="evenodd"/>
<path d="m284.6 203.75q0.15-5.55 3.5-13.9-8.35 2.55-17.1 7.5" fill="none" stroke="#498c2b" stroke-linecap="round" stroke-linejoin="round" stroke-opacity=".70196" stroke-width=".05"/>
<path d="m277.85 196.75-13.6 5.85q1.7-4.85 1.9-12.8 4.3 1.15 11.7 6.95" fill="#77ba00" fill-rule="evenodd"/>
<path d="m264.25 202.6q1.7-4.85 1.9-12.8 4.3 1.15 11.7 6.95" fill="none" stroke="#4d8c2b" stroke-linecap="round" stroke-linejoin="round" stroke-opacity=".70196" stroke-width=".05"/>
<path d="m268.75 205.55-2.5-7.5 6.1 2.4 2.4 2.25 0.9 4.2q-3.15-1.15-6.9-1.35" fill="#77ba00" fill-rule="evenodd"/>
<path d="m266.25 198.05 2.5 7.5q-5.2-0.45-11.55 0.75 1.95-4.75 9.05-8.25" fill="#7cd100" fill-rule="evenodd"/>
<path d="m266.25 198.05q-7.1 3.5-9.05 8.25 6.35-1.2 11.55-0.75" fill="none" stroke="#528c2b" stroke-linecap="round" stroke-linejoin="round" stroke-opacity=".70196" stroke-width=".05"/>
<path d="m280.7 202q3.1-1.35 5.5-1.1-2.4-0.25-5.5 1.1m6.9-3.9-1.4 2.8-1.85 3.6q-4.2 0.85-8 2.5-0.25-3.65 5.7-7.7l5.55-1.2" fill="#77ba00" fill-rule="evenodd"/>
<path d="m288.5 201.6q-1.1-0.65-2.3-0.7 1.2 0.05 2.3 0.7m-0.9-3.5q3.7 2.85 5.55 7.15-5.05-1.15-8.8-0.75l1.85-3.6 1.4-2.8" fill="#7cd100" fill-rule="evenodd"/>
<path d="m286.2 200.9q1.2 0.05 2.3 0.7m-2.3-0.7q-2.4-0.25-5.5 1.1" fill="none" stroke="#5b8c2b" stroke-linecap="round" stroke-linejoin="round" stroke-width=".05"/>
<path d="m284.35 204.5q3.75-0.4 8.8 0.75-1.85-4.3-5.55-7.15m-3.25 6.4q-4.2 0.85-8 2.5m5.7-7.7 5.55-1.2" fill="none" stroke="#558c2b" stroke-linecap="round" stroke-linejoin="round" stroke-opacity=".70196" stroke-width=".05"/>
<path d="m266.15 203.5q-1.85-0.3-5.3-4.15l4.9-2q0.7 3.4 3.7 6.2-1.45 0.25-3.3-0.05m3.95-8.45q-0.45-2.15 3.55-4.95l4.7 4.05q-4.25-0.25-8 1.6-0.2-0.35-0.25-0.7m13.8 7.45-3.25 0.65q3.2-3.6 1.6-6.45l5.8 1.25q-2.3 3.85-4.15 4.55" fill="#578234" fill-rule="evenodd"/>
<path d="m264.55 190.95q3.95 4.35 8.85 6.9-1.05 4.9-2.65 4.9-4.65-4.35-6.2-11.8" fill="#b8a17e" fill-rule="evenodd"/>
<path d="m270.75 202.75q-3.65 0.25-5.8-2.25-2.5-5.75-0.4-9.55 1.55 7.45 6.2 11.8" fill="url(#d)" fill-rule="evenodd"/>
<path d="m279.9 198.65q1.05-4.8-4.05-11.4 5.45 4.6 6.35 10.3-0.9 1.3-2.3 1.1" fill="#fff1d1" fill-rule="evenodd"/>
<path d="m279.9 198.65q-4.6 0.45-11.3-1.75 6.25-3.7 7.25-9.65 5.1 6.6 4.05 11.4" fill="#ad9877" fill-rule="evenodd"/>
<path d="m284.9 190.7q-3.4 8.75-7.2 11.75l-2.65-0.9q6.1-4.55 9.85-10.85" fill="#b8a17e" fill-rule="evenodd"/>
<path d="m284.9 190.7q1.25 4.15-1.1 10.05-2.25 2.6-6.1 1.7 3.8-3 7.2-11.75" fill="url(#c)" fill-rule="evenodd"/>
<path d="m280.2 197.6q0 2.4-1.75 4.15-1.7 1.85-4.2 1.85-2.45 0-4.25-1.85-1.75-1.75-1.75-4.15 0-2.5 1.75-4.35 1.8-1.7 4.25-1.7 2.5 0 4.2 1.7 1.75 1.85 1.75 4.35" fill="#ffd919" fill-rule="evenodd"/>
<path d="m277.7 195.1q-0.1 0.6-0.7 0.6t-1.35-0.6q-0.6-0.55-0.95-1.3-0.4-0.75-0.3-1.3 0.15-0.55 0.75-0.55t1.25 0.55l1.15 1.3q0.35 0.75 0.15 1.3" fill="#fff8df" fill-rule="evenodd"/>
<path d="m268.55 204.05q0.85-3.9 5.3-7.95 4.6 2.1 6.5 7.55-3.25 1.2-7 1.1l-4.8-0.7" fill="url(#b)" fill-rule="evenodd"/>
<path d="m280.35 203.65q-1.9-5.45-6.5-7.55-4.45 4.05-5.3 7.95" fill="none" stroke="#baa789" stroke-linecap="round" stroke-linejoin="round" stroke-width=".05"/>
<path d="m267.65 201.1q2 2.05 5.55 4.1-1.55 0.4-6.9-2.15l1.35-1.95m13.4-0.25 1.55 1.95q-5.15 2.6-6.65 2.15 3.35-2.05 5.1-4.1" fill="#5b941b" fill-rule="evenodd"/>
</g>
<linearGradient id="d" x1="-819.2" x2="819.2" gradientTransform="matrix(.002 .0038 -.0023 .0011 265.95 198.2)" gradientUnits="userSpaceOnUse">
<stop stop-color="#fff1d1" offset=".05098"/>
<stop stop-color="#feda9e" offset="1"/>
</linearGradient>
<linearGradient id="c" x1="-819.2" x2="819.2" gradientTransform="matrix(-.0016 .004 -.0029 -9e-4 281.95 198.4)" gradientUnits="userSpaceOnUse">
<stop stop-color="#fff1d1" offset=".05098"/>
<stop stop-color="#feda9e" offset="1"/>
</linearGradient>
<linearGradient id="b" x1="-819.2" x2="819.2" gradientTransform="matrix(0 .0058 -.0072 -2e-4 274.45 202.6)" gradientUnits="userSpaceOnUse">
<stop stop-color="#fff8ec" offset="0"/>
<stop stop-color="#fff1d1" offset=".27059"/>
<stop stop-color="#d1a16d" offset="1"/>
</linearGradient>
</defs>
</svg>
