<?xml version="1.0" encoding="UTF-8"?>
<svg version="1.1" viewBox="0 0 103 39.75" xmlns="http://www.w3.org/2000/svg" xmlns:cc="http://creativecommons.org/ns#" xmlns:dc="http://purl.org/dc/elements/1.1/" xmlns:rdf="http://www.w3.org/1999/02/22-rdf-syntax-ns#" xmlns:xlink="http://www.w3.org/1999/xlink">
<metadata>
<rdf:RDF>
<cc:Work rdf:about="">
<dc:format>image/svg+xml</dc:format>
<dc:type rdf:resource="http://purl.org/dc/dcmitype/StillImage"/>
</cc:Work>
</rdf:RDF>
</metadata>
<g transform="translate(-223.5 -180.1)">
<use transform="translate(223.5,180.1)" width="103" height="39.75" xlink:href="#a"/>
</g>
<defs>
<g id="a" transform="translate(-223.5,-180.1)">
<path d="m304.8 196.6q11.1 2.6 19.6 10.25l0.95 0.9-0.6 0.25-21.1-4.75-21.9-2.6 10.95-3.05 0.3-0.25 6.65-1.65 5.15 0.9" fill="#800000" fill-rule="evenodd"/>
<path d="m325.35 207.75 0.15 0.15-0.45 1.2-0.3-1.1 0.6-0.25m-45.8-2.4v0.15h-0.05l0.05-0.15" fill="#283f44" fill-rule="evenodd"/>
<path d="m324.05 200.15 1.45 7.55v0.2l-0.15-0.15-0.95-0.9q-8.5-7.65-19.6-10.25l13.15-0.5-1.55-5.8 0.9 0.65 6.75 9.2m-45.95 3.15-6.5 2.15q-9.35 3.55-15.8 13.4-2.3-5.8-8.05-9.45 3.55-4.35 10.65-6.95l15.5-1.15 4.2 2m-7.35-8.9 8.8 2.55-0.35 3.05-8.45-5.6m8.95 0.65-0.1-0.2-2.05-4 18-9.75 2.6 0.3h0.05l-0.05 5.55-18.5 7.85 0.05 0.25" fill="#900" fill-rule="evenodd"/>
<path d="m316.4 190.3 1.55 5.8-13.15 0.5-5.15-0.9-6.65 1.65-0.3 0.25-10.95 3.05h-0.05l-2.6 0.7 0.3 2.55-1.3-0.6-4.2-2-15.5 1.15q-12.25 1-33.9 9.9 16-13.15 19-17.3 13.75-2.7 26.85-0.85l0.4 0.2 8.45 5.6 0.35-3.05 0.15-1.9-0.05-0.25 18.5-7.85 0.05-5.55 1.5 0.2 2.9 0.5q2.75 0.55 5.3 1.25l-5.25-1.2 2.95 3.55 8.1 2.45 2.7 2.15" fill="#e40101" fill-rule="evenodd"/>
<path d="m324.05 200.15-6.75-9.2-0.9-0.65-2.7-2.15-8.1-2.45-2.95-3.55 5.25 1.2 2.7 0.5 4.7 2.2 2.45 1.2 2.05 1.15q2.7 5.85 4.25 11.75" fill="#ffb791" fill-rule="evenodd"/>
<path d="m310 214.25h-0.1l-0.2-0.35 0.3 0.35" fill="#f5eec5" fill-rule="evenodd"/>
<path d="m281.7 200.65-0.35 0.75-0.2 0.35-1.1 2.45-0.5 1.15-0.15-1.45-0.3-2.55 2.6-0.7" fill="#4f0000" fill-rule="evenodd"/>
<path d="m325.5 207.9v-0.2l-1.45-7.55m-19.25-3.55q11.1 2.6 19.6 10.25l0.95 0.9m-0.6 0.25-21.1-4.75-21.9-2.6h-0.05m-2.3 3.25-1.3-0.6-6.5 2.15q-9.35 3.55-15.8 13.4-2.3-5.8-8.05-9.45 3.55-4.35 10.65-6.95-12.25 1-33.9 9.9 16-13.15 19-17.3 13.75-2.7 26.85-0.85m0.4 0.2 8.8 2.55m0.05-2.1-2.05-4 18-9.75 2.6 0.3h0.05l1.5 0.2 2.9 0.5q2.75 0.55 5.3 1.25l2.7 0.5 4.7 2.2 2.45 1.2 2.05 1.15q2.7 5.85 4.25 11.75m-42.3 0.5 10.95-3.05 0.3-0.25 6.65-1.65 5.15 0.9m-2.15-14.45 5.25 1.2m-49.5 19.1 15.5-1.15 4.2 2" fill="none" stroke="#262015" stroke-linecap="round" stroke-linejoin="round" stroke-width="2"/>
</g>
</defs>
</svg>
