<?xml version="1.0" encoding="UTF-8"?>
<svg version="1.1" viewBox="0 0 58.831 38.323" xmlns="http://www.w3.org/2000/svg" xmlns:cc="http://creativecommons.org/ns#" xmlns:dc="http://purl.org/dc/elements/1.1/" xmlns:rdf="http://www.w3.org/1999/02/22-rdf-syntax-ns#" xmlns:xlink="http://www.w3.org/1999/xlink">
<metadata>
<rdf:RDF>
<cc:Work rdf:about="">
<dc:format>image/svg+xml</dc:format>
<dc:type rdf:resource="http://purl.org/dc/dcmitype/StillImage"/>
</cc:Work>
</rdf:RDF>
</metadata>
<g transform="translate(-267.28 -195.09)">
<use transform="matrix(.2097 0 0 .2097 267.29 195.09)" width="280.5" height="182.7" xlink:href="#a"/>
</g>
<defs>
<g id="a" transform="translate(140.25,91.35)">
<path d="m-33.7-81.9 41.3-1.85 34.3 10.15 14.55 8.1-1.95 2.2 5.35-0.2 19.55 2.35 16.7 2.85 12.15 6.85 0.3 1.5-7.6 0.85 12.4 3.35h6.25l8.05 3 1.1 3.05-15.75 11 16.65-8.55 6.5 0.5 4.1 5.95-2.3 2.15-13.15 3.2 3.85 2.7-21 17.1-2.9 1.9-38.5 16.8 0.9 4.15-25.65 13.05-8.4 3.1-0.6 6.45-1.5 16.1-0.75-0.75-0.7-13.3-1.7 11-1.2-1.2-0.75-15.9-1.6 13.65-1.4-1.4 0.35-17.05-4.25 13.3 0.15 0.15-0.2 0.05 0.05-0.2-2.05-1.9 6.05-20-10.65 16.55-29.85 5.4-0.15-0.1-4.6-3.8-40.2 1.95 0.35 1.05-1.95 9.55-1.2-1.15-22.15 6.15-33.15-1.95-9.6-9.8-4.65-33.9 0.65-14.3 0.9-4.2 25.55-27.3 41.05-30.15 3.1-2.25 29.9-15.85-0.05-0.15m57.7 100.95-1 3.3 1-3.3m21.1-81.85-21.4 6.8-11.2 21.75 6.45 24.75 33.55 18.7-22.65-17.8-8.85-23.65 8.15-22.55 15.95-8m28.45 17.05q0 3.3 2.55 5.65 2.6 2.35 6.25 2.35t6.2-2.35q2.6-2.35 2.6-5.65t-2.6-5.65q-2.55-2.35-6.2-2.35t-6.25 2.35q-2.55 2.35-2.55 5.65m3.05 36.7-11.55-13.2-6.35-14.65 0.85-9.35-5.7 9.45 5.9 18.55 16.85 9.2 2.45 2.85-2.45-2.85m24.35-40.05-2.35-0.65 2.35 0.65m-46.2 59.55-2.25-1.25 2.25 1.25 1.55 0.85-1.55-0.85m-21.25 18.4-0.4 4.5 0.4-4.5" fill="url(#b)" fill-rule="evenodd"/>
<path d="m79.4-61.15-19.55-2.35-5.35 0.2 1.95-2.2-14.55-8.1-34.3-10.15-41.3 1.85v-0.05l42.15-4.85 38.05 10.5 14.05 11 18.85 4.15m-96.9 105.45 29.85-5.4 10.65-16.55-6.05 20 2.05 1.9-0.05 0.2-26 8.95-20.5 2.6 7.95-3.6 4.55-6.05-2.45-2.05m125.75-95.75 7.75 4.35 3.6 1.35h-6.25l-12.4-3.35 7.6-0.85-0.3-1.5m20.5 11.75 0.9 2.45-16.65 8.55 15.75-11m9.2 11.05-6.3 5.9-24 17.1 21-17.1-3.85-2.7 13.15-3.2m-33.2 24.9-37.1 24-17.9 11.6-6.25 4-9.85 3.55-1.15 0.4 0.6-6.45 8.4-3.1 25.65-13.05-0.9-4.15 38.5-16.8m-52.25 12.95-33.55-18.7-6.45-24.75 11.2-21.75 21.4-6.8-15.95 8-8.15 22.55 8.85 23.65 22.65 17.8m7.05-55.45-0.85 9.35 6.35 14.65 11.55 13.2-16.85-9.2-5.9-18.55 5.7-9.45" fill="#85996b" fill-rule="evenodd"/>
<path d="m73.55-45.75q0-3.3 2.55-5.65 2.6-2.35 6.25-2.35t6.2 2.35q2.6 2.35 2.6 5.65t-2.6 5.65q-2.55 2.35-6.2 2.35t-6.25-2.35q-2.55-2.35-2.55-5.65m8.55-1.7q-0.45 0.05-0.85 0.3-1.15 0.55-0.95 1.8 0.3 1.75 2.1 1.55 1.15-0.15 1.35-1.25 0.45-2-1.65-2.4" fill="#fff" fill-rule="evenodd"/>
<path d="m-134.8 12.3 4.65 33.9 9.6 9.8 33.15 1.95 22.15-6.15 1.2 1.15 1.95-9.55 1.5 4.3 1.7 4.9 0.15 0.45v0.05l0.1 0.3 5.6 5.15 0.5 0.45 0.4 0.35-2.15 2.2-11.1 0.6 3.05 2.75-13.25-0.8-4.4 1.35 14.55 6.65-23.45-3.2 16.9 11.35-20.7-5.9 11.95 11.5-24.3-10.25 4.2-11.3-24.7-3.85-1.6-2.35-9.1-13.25 1.45-32.55m216.9-59.75q2.1 0.4 1.65 2.4-0.2 1.1-1.35 1.25-1.8 0.2-2.1-1.55-0.2-1.25 0.95-1.8 0.4-0.25 0.85-0.3m-157.7 111.55 15.4-4.85 7.15-0.7-7.15 0.7-15.4 4.85m-25.25 0.2 16.4 2.55 4.45-1.4-4.45 1.4-16.4-2.55" fill="#383243" fill-rule="evenodd"/>
<path d="m-33.65-81.75-29.9 15.85-13-7.75 17.2-0.15-21.85-7.15 1.85-4.7 23.85 6.9-21.05-12.45 19.55 4.7 10.95 7.1-7.6-8.85v-2.6l19.65 8.95h0.05l0.3 0.15m-33 18.1-41.05 30.15-25.55 27.3-0.9 4.2-6.1-8.7 0.15-0.55 13.2-7.95-12.2 4 1.45-5.95 16.15-5.9-15.3 2.55 0.05-0.25 5.9-5.45 20.4-6.1-15.4 1.5 3.9-3.55 19.7-4.05-13.7-1.3 22.5-16.1 17.1-0.75-11.6-3 5.3-3.75 16 3.65m4.55 107.05-0.35-1.05 40.2-1.95 4.6 3.8 0.15 0.1 2.45 2.05-4.55 6.05-7.95 3.6-18.95 8.65-0.95-0.9 1.15-1.65 13-7.7-18.65 5.15-0.2-0.2-0.4-0.35 19.15-8.75-25.35 2.85v-0.05l-0.15-0.45 20.3-6.75-22 1.85-1.5-4.3m129.75-23.15 3.9 3.1v4.6l-6.5-2.65 4.8 6.4-1.1 1.75-9.25-4.05 6.35 8.45-2.15 3.25-9.85-8.8 5.95 16.7-2.25 5.4-4.6-3.7-3.2-18.85 17.9-11.6m-172.7 55.35-4.15 11.35-5.8 4.4-6.95-3 9.95-12.3-13.25 10.45-0.65-9.25 12.7-7.8-12.85 5.45-0.45-7.25 12.6-3.75-12.85 0.45-0.4-6.25 1.6 2.35 24.7 3.85-4.2 11.3" fill="#6a7965" fill-rule="evenodd"/>
<path d="m71.55 27.95v1.15l-1.7 2.6-4.8-6.4 6.5 2.65m-2.8 5.5-2.9 4.4-6.35-8.45 9.25 4.05m-5.05 7.65-1.75 2.65-2.15 5.25-5.95-16.7 9.85 8.8m-111.15 22.65-4.5-4.2 18.65-5.15-13 7.7-1.15 1.65m-74.5 24.6-3.3-1.4v-0.45l13.25-10.45-9.95 12.3m-3.95-11.1-0.15-2.35 12.85-5.45-12.7 7.8m-0.6-9.6-0.25-3.3 12.85-0.45-12.6 3.75m49.95-141.3-6.1-3.65 1.45-3.65 21.85 7.15-17.2 0.15m-2.8-12 2.2-5.7 0.6 0.15 21.05 12.45-23.85-6.9m22.35-0.85 3.35 0.8v-2.55l7.6 8.85-10.95-7.1m-36.45 26.7 5.5-3.75 11.6 3-17.1 0.75m-22.5 16.1 13.7 1.3-19.7 4.05 5-4.65 1-0.7m-9.9 8.9 15.4-1.5-20.4 6.1 5-4.6m-10.95 10.3 15.3-2.55-16.15 5.9 0.85-3.35m-2.3 9.3 12.2-4-13.2 7.95 1-3.95m80.2 67.8-1.7-4.9 22-1.85-20.3 6.75m5.85 5.95-5.6-5.15-0.1-0.3 25.35-2.85-19.15 8.75-0.5-0.45" fill="#a0b871" fill-rule="evenodd"/>
<path d="m30.25 55.15-2.4-2.3 1.7-11 0.7 13.3m-3.6-3.5-2.35-2.25 1.6-13.65 0.75 15.9m-3.75-3.65-3.75-3.6-0.15-0.15 4.25-13.3-0.35 17.05" fill="#d5e3a6" fill-rule="evenodd"/>
<path d="m-54.3 61.55 2.15 1.35-3.5 10-11 12.05-11.5 2-2.6-1.1-11.95-11.5 20.7 5.9-16.9-11.35 23.45 3.2-14.55-6.65 4.4-1.35 13.25 0.8-3.05-2.75 11.1-0.6" fill="#49535d" fill-rule="evenodd"/>
<path d="m73.55-45.75q0-3.3 2.55-5.65 2.6-2.35 6.25-2.35t6.2 2.35q2.6 2.35 2.6 5.65t-2.6 5.65q-2.55 2.35-6.2 2.35t-6.25-2.35q-2.55-2.35-2.55-5.65" fill="none" stroke="#000" stroke-linecap="round" stroke-linejoin="round" stroke-opacity=".55294"/>
<path d="m54.75 10.45 1.55 0.85" fill="none" stroke="#0f0" stroke-linecap="round" stroke-linejoin="round" stroke-width=".05"/>
<path d="m-33.65-81.75-29.9 15.85-3.1 2.25-41.05 30.15-25.55 27.3-0.9 4.2-0.65 14.3m157.8 10.05 1-3.3m-57.7-101 42.15-4.85 38.05 10.5 14.05 11 18.85 4.15 16.7 2.85 12.15 6.85 7.75 4.35 3.6 1.35 8.05 3 1.1 3.05 0.9 2.45 6.5 0.5 4.1 5.95-2.3 2.15-6.3 5.9-24 17.1-2.9 1.9-37.1 24 3.9 3.1v5.75l-1.7 2.6-1.1 1.75-2.9 4.4-2.15 3.25-1.75 2.65-2.15 5.25-2.25 5.4-4.6-3.7-3.2-18.85-6.25 4-9.85 3.55-1.15 0.4-1.5 16.1-0.75-0.75-2.4-2.3-1.2-1.2-2.35-2.25-1.4-1.4-3.75-3.6-0.2 0.05-26 8.95-20.5 2.6-18.95 8.65-0.95-0.9-4.5-4.2-0.2-0.2-2.15 2.2 2.15 1.35-3.5 10-11 12.05-11.5 2-2.6-1.1-24.3-10.25-4.15 11.35-5.8 4.4-6.95-3-3.3-1.4v-0.45l-0.65-9.25-0.15-2.35-0.45-7.25-0.25-3.3-0.4-6.25-9.1-13.25 1.45-32.55m235.75-61.4 12.4 3.35h6.25m-21-4 2.35 0.65m-177.5-24.55-6.1-3.65 1.45-3.65 1.85-4.7 2.2-5.7 0.6 0.15 19.55 4.7 3.35 0.8v-5.15l19.65 8.95 0.3-0.05m-54.25 18.4 5.3-3.75 16 3.65m-26.8 3.85 5.5-3.75m-5.5 3.75-22.5 16.1m-6 5.35-3.9 3.55m-5 4.6-5.9 5.45-0.05 0.25m-0.85 3.35-1.45 5.95m-1 3.95-0.15 0.55 6.1 8.7m3.3-28.2 5-4.6m-11.8 13.65 0.85-3.35m-3.3 13.25 1-3.95m17.15-23.15 5-4.65 1-0.7m82.3-38.05-0.3-0.15m-29.6 16-13-7.75m59.05 117.95 2.45 2.05-4.55 6.05-7.95 3.6m-25.5 2.55-5.6-5.15-0.1-0.3m6.2 5.9 0.4 0.35m-0.4-0.35-0.5-0.45-7.15 0.7-15.4 4.85-4.4 1.35-4.45 1.4-16.4-2.55-24.7-3.85-1.6-2.35m22.1 17.5 4.2-11.3m133.95-30.95-0.6 6.45 1.15-0.4m34-19.15-17.9 11.6m-30.75 12.4 0.15 0.15m-0.15-0.15-2.05-1.9 6.05-20m10.1 11 0.4-4.5" fill="none" stroke="#000" stroke-linecap="round" stroke-linejoin="round" stroke-opacity=".30196" stroke-width=".05"/>
<path d="m52.5 9.2-22.65-17.8-8.85-23.65 8.15-22.55 15.95-8m31.5 53.75-11.55-13.2-6.35-14.65 0.85-9.35m17.05 37.2 2.45 2.85m33.95-22.5 16.65-8.55m-77.15 46.45 2.25 1.25" fill="none" stroke="#000" stroke-linecap="round" stroke-linejoin="round" stroke-opacity=".30196"/>
<path d="m-62.1 43.4-0.35-1.05 40.2-1.95 4.6 3.8m-42.95 3.5-1.5-4.3m3.35 9.65-0.15-0.45-1.7-4.9" fill="none" stroke="#000" stroke-linecap="round" stroke-linejoin="round" stroke-opacity=".30196" stroke-width=".05"/>
</g>
<linearGradient id="b" x1="-819.2" x2="819.2" gradientTransform="matrix(.083 -.022 .0234 .0884 -51.95 .35)" gradientUnits="userSpaceOnUse">
<stop stop-color="#3e465b" offset="0"/>
<stop stop-color="#bad678" offset="1"/>
</linearGradient>
</defs>
</svg>
