<?xml version="1.0" encoding="UTF-8"?>
<svg version="1.1" viewBox="0 0 283.05 204.75" xmlns="http://www.w3.org/2000/svg" xmlns:cc="http://creativecommons.org/ns#" xmlns:dc="http://purl.org/dc/elements/1.1/" xmlns:rdf="http://www.w3.org/1999/02/22-rdf-syntax-ns#" xmlns:xlink="http://www.w3.org/1999/xlink">
<metadata>
<rdf:RDF>
<cc:Work rdf:about="">
<dc:format>image/svg+xml</dc:format>
<dc:type rdf:resource="http://purl.org/dc/dcmitype/StillImage"/>
</cc:Work>
</rdf:RDF>
</metadata>
<g transform="translate(-106.32 -89.246)">
<use transform="translate(106.35,89.25)" width="283" height="158.5" xlink:href="#b"/>
<use transform="matrix(4.569 0 -.2628 4.569 181.87 109.63)" width="37.049999" height="40.349998" xlink:href="#a"/>
</g>
<defs>
<g id="b" transform="translate(141.5,79.25)">
<use transform="translate(-141.5,-79.25)" width="283" height="158.5" xlink:href="#d"/>
</g>
<g id="d" transform="translate(141.5,79.25)">
<path d="m31.95 43.65 0.45-0.25-0.65 2.85 1.95-3.2 0.15-0.35 2.2-6.3q-0.8-0.1-1.55-0.5 0.75 0.4 1.55 0.5 1.45-0.2 2.25-1.5l0.2-1.95-1.05-1.3 0.95-8.05-1.95-0.65-0.2 1.65-0.15 0.8-0.25 1.1 0.15 1.6 0.1 1.6 0.05 2.5-0.05 0.2q-0.6 0.35-1.05 1l-0.15 0.05-0.25-0.05-0.45-0.3h-0.1l-0.35 0.1 0.5 0.8 0.1 0.25 0.05 0.35 0.1 0.2-0.05 0.05 0.1 0.1-1.1-0.2-0.9-0.85v0.15l0.8 0.95 1.15 0.9-0.35 1.25-0.7 2.45-1.05 2.75-0.45 1.3m3.1-10.25 1.9 0.3 0.5-2.05-0.5 2.05-1.9-0.3" fill="#a4a47b" fill-rule="evenodd"/>
<path d="m31.95 43.65 0.45-1.3 1.05-2.75 0.7-2.45 0.35-1.25-1.15-0.9q-1.25 5-3.6 9.65l2.2-1m4.5-20.7h-0.2l-1.65-0.6-0.1 7.25-1.8 1.5q-0.45 0.6-0.45 1.45-0.05 0.6 0.3 1.35l0.9 0.85 1.1 0.2-0.1-0.1 0.05-0.05-0.1-0.2-0.05-0.35-0.1-0.25-0.5-0.8 0.35-0.1h0.1l0.45 0.3 0.25 0.05 0.15-0.05q0.45-0.65 1.05-1l0.05-0.2-0.05-2.5-0.1-1.6-0.15-1.6 0.25-1.1 0.15-0.8 0.2-1.65m-1.75 8.8-0.2-2.15 0.2 2.15" fill="#b9b9a4" fill-rule="evenodd"/>
<path d="m36.05 36.4-2.2 6.3-0.15 0.35-1.95 3.2 0.65-2.85-0.45 0.25m2.55-7.75q0.75 0.4 1.55 0.5 1.45-0.2 2.25-1.5l0.2-1.95-1.05-1.3 0.95-8.05-1.95-0.65m-0.2 0-1.65-0.6-0.1 7.25-1.8 1.5q-0.45 0.6-0.45 1.45-0.05 0.6 0.3 1.35v0.15l0.8 0.95q-1.25 5-3.6 9.65l2.2-1m1.4-8.65 1.15 0.9m0-6.3 0.2 2.15m2.75-0.1-0.5 2.05-1.9-0.3" fill="none" stroke="#000" stroke-linecap="round" stroke-linejoin="round" stroke-opacity=".4" stroke-width=".05"/>
<path d="m70.95-35.95 3-2.45 1.05-0.4q-1.7 2.9-1.9 4.25 0.75-0.6 2.1-0.8l1.05-0.4q10.15-9.65 12.2-19.75 1.6-10.55-0.5-18.05-2.2-7.85-3.35-4.85l-7.75 18.7q-5.8 14.1-7.3 19.45l2.6-1.95q-0.05 1.65-1.3 5.95l0.1 0.3" fill="#97723e" fill-rule="evenodd"/>
<path d="m70.95-35.95 3-2.45 1.05-0.4q-1.7 2.9-1.9 4.25 0.75-0.6 2.1-0.8l1.05-0.4q10.15-9.65 12.2-19.75 1.6-10.55-0.5-18.05-2.2-7.85-3.35-4.85l-7.75 18.7q-5.8 14.1-7.3 19.45l2.6-1.95q-0.05 1.65-1.3 5.95l-0.45 0.5z" fill="none" stroke="#000" stroke-linecap="round" stroke-linejoin="round" stroke-opacity=".24314" stroke-width=".05"/>
<path d="m36.7 32.25 3.35-4.2 13.35-8.65-4.7-6.5q1.85 0.25 6.15 1.8 5.9 2.9 12.4 0.4 8.9-3.35 15.5-7.5l-11.85-11.5 26.2 0.55-6.75-2.85 21.25-15.15-9.75 0.75 2.1-1.75q0.85-0.95 2.05-1.75 2.55-2.2 5.95-4.45l-32 9-1.05 0.4 9.15-8q-13.3 6.05-20.35 9.7-7.05 3.6-10.9 7.05l-1.55 1.55-1.05 0.4q-1.45 0.9-3.5 1l-4.3 3.9-0.2-0.55q9.3-12.25 8.05-15.3l-5.3 5.55-0.4 0.5-4.45 8.1-1.05 2.35-0.7 1.55q-1.5 3.45-2.25 5.65-1.7 3.85-1.7 4.85-0.1 1.6-5.45 11.35-4.2 7.1 3.75 11.75" fill="#906c36" fill-rule="evenodd"/>
<path d="m48.95-13.85 5.3-5.55q1.25 3.05-8.05 15.3l0.2 0.55 4.3-3.9q2.05-0.1 3.5-1 8.8-21.95 12.55-30.45-4.05 4.8-6.85 8.75-6.55 8.85-10.95 16.3m6.3 5 1.55-1.55q3.85-3.45 10.9-7.05 7.05-3.65 20.35-9.7l-9.15 8 1.05-0.4 32-9q4.9-3.8 11.65-8.35 13.55-9 17.9-19.3l-2.4-0.1q-0.95 0.7-12.1 3.4 2.1-0.8 5.3-3.65 4.05-3.8 5.05-7.1l-3.4 0.35-29.85 4.7q-0.1-0.25 0.15-0.35 0-2.9 22.2-16.85l-8.85 0.8q-15.55-0.1-30.65 13.95l-5.2 4.9 1.4-1.2q11.35-9.4 25.85-14.35-13.4 14.05-17.75 21.5-6.4 10.15-9.35 17.4-17.3 10.15-26.65 23.95m16.6-39.7 2.8-13.25q-4.45 9.75-7.25 16.6l4.45-3.35" fill="#ad9e65" fill-rule="evenodd"/>
<path d="m54.2-8.45 1.05-0.4q9.35-13.8 26.65-23.95 2.95-7.25 9.35-17.4 4.35-7.45 17.75-21.5-14.5 4.95-25.85 14.35l-1.4 1.2q-5.1 5.15-11.05 12.25l1.15-4.65-4.45 3.35q-2.6 4.8-4.1 8.3l-1.8 3.55-1.6 3.2q2.8-3.95 6.85-8.75-3.75 8.5-12.55 30.45" fill="#cecece" fill-rule="evenodd"/>
<path d="m111.6-21.35-21.25 15.15 6.75 2.85-26.2-0.55 11.85 11.5q-6.6 4.15-15.5 7.5-6.5 2.5-12.4-0.4-4.3-1.55-6.15-1.8l4.7 6.5-13.35 8.65-3.35 4.2q2.5 1.3 6.4 2.65 28.65-6.75 54.15-24.85l3.6-2.65q-1-0.25-1.7-0.65-10.8-3.55-9.85-5.2l11.85 1.25q9.15-8.95 15.15-17.6l1.8-2.65 2.55-4.8-9.05 0.9" fill="#72552b" fill-rule="evenodd"/>
<path d="m111.6-21.35 9.05-0.9-2.55 4.8-1.8 2.65q-6 8.65-15.15 17.6l-11.85-1.25q-0.95 1.65 9.85 5.2 0.7 0.4 1.7 0.65l-3.6 2.65q-25.5 18.1-54.15 24.85-3.9-1.35-6.4-2.65-7.95-4.65-3.75-11.75 5.35-9.75 5.45-11.35 0-1 1.7-4.85 0.75-2.2 2.25-5.65l0.7-1.55 1.05-2.35m67.85-23.3q-3.4 2.25-5.95 4.45-1.2 0.8-2.05 1.75l-2.1 1.75 9.75-0.75m0.35-7.2q4.9-3.8 11.65-8.35 13.55-9 17.9-19.3l-2.4-0.1q-0.95 0.7-12.1 3.4 2.1-0.8 5.3-3.65 4.05-3.8 5.05-7.1l-3.4 0.35-29.85 4.7q-0.1-0.25 0.15-0.35 0-2.9 22.2-16.85l-8.85 0.8q-15.55-0.1-30.65 13.95l-5.2 4.9q-5.1 5.15-11.05 12.25l1.15-4.65 2.8-13.25q-4.45 9.75-7.25 16.6-2.6 4.8-4.1 8.3l-1.8 3.55-1.6 3.2q-6.55 8.85-10.95 16.3" fill="none" stroke="#000" stroke-linecap="round" stroke-linejoin="round" stroke-opacity=".24314" stroke-width=".05"/>
<path d="m88-33.8q3.15-1.2 5.9-2.6l1.9-1.4q5.9-3.55 9.25-8.65 2.5-4.15 4.1-8.3 1.8-4.5 2.25-8.5 0.75-8-1.25-5.95l-14 14q-9.85 9.55-13.15 14l0.1 0.25 4.55-1.4 0.25-0.1-3.45 5.8 0.1 1.25 0.1 0.3 0.05 1.9 0.1 0.3-0.1 1.6q0.85-0.95 1.85-1.65l0.4-0.45 1.05-0.4" fill="#b9b190" fill-rule="evenodd"/>
<path d="m95.8-37.8 6.2-1.7q12-4.6 21.75-18.2l-0.1-0.3-14.5 3.25q-1.6 4.15-4.1 8.3-3.35 5.1-9.25 8.65" fill="#906c36" fill-rule="evenodd"/>
<path d="m86.55-32.95 1.45-0.85q3.15-1.2 5.9-2.6l1.9-1.4m13.35-16.95q1.8-4.5 2.25-8.5 0.75-8-1.25-5.95l-14 14q-9.85 9.55-13.15 14l0.1 0.25m3.85 7.55 1.05-0.4m21.15-20.95q-1.6 4.15-4.1 8.3-3.35 5.1-9.25 8.65" fill="none" stroke="#000" stroke-linecap="round" stroke-linejoin="round" stroke-opacity=".24314" stroke-width=".05"/>
<path d="m96.3-22.3 0.05 0.3q1.65 2.3 5.7 3l1.45 0.05 3 0.15 3.65-0.45 1.15-0.1-1.6-1.35 1.6 1.35 4.45-0.7-3.1-3.3 3.1 3.3q4.9-1.25 6.6-2.2l2.4-1.6 0.3-0.1-2 0.15q-0.1-0.3-0.35-0.2 3.15-1.2 4.25-3.25-0.1-0.25 1.9-2.3-1.25-1.15-2.2-1.4-2.15-1.1-8.15-1.7l-1.05 0.4q0.2-1.05 1.7-2.9l-2.55 0.35-10.75 4.7 0.4-0.5q1.95-3 2.95-3.6l-0.5 0.15q-5.1 2.55-8.55 7.4l-2.3 2.8q-0.95 0.7-1.55 1.55m18.85-9.7 2.3-0.25-2.3 0.25" fill="#9c8738" fill-rule="evenodd"/>
<path d="m88.5-19.3q3.55-0.7 5.9-1.6l1.65-1.3 0.25-0.1 0.05 0.3q1.65 2.3 5.7 3l1.45 0.05 3 0.15 3.65-0.45 1.15-0.1 4.05 3.6m-19.05-6.55q0.6-0.85 1.55-1.55l2.3-2.8q3.45-4.85 8.55-7.4l0.5-0.15q-1 0.6-2.95 3.6l-0.4 0.5 10.75-4.7 2.55-0.35q-1.5 1.85-1.7 2.9l-2.3 0.25m-5.45 11.3 1.6 1.35 4.45-0.7q0.7 0.35 1.6 1.3m-4.7-4.6 3.1 3.3q4.9-1.25 6.6-2.2l2.4-1.6 0.3-0.1-2 0.15q-0.1-0.3-0.35-0.2 3.15-1.2 4.25-3.25-0.1-0.25 1.9-2.3-1.25-1.15-2.2-1.4-2.15-1.1-8.15-1.7l-1.05 0.4" fill="none" stroke="#000" stroke-linecap="round" stroke-linejoin="round" stroke-opacity=".24314" stroke-width=".05"/>
<path d="m65.3-55.3-2.05 10.1-0.2-0.55q-0.75-3.25-0.8-4.5l-0.3 0.1q-0.75 6.05 0.85 11.85 0.85 3.55 1 6 2.95-0.1 5.7-3.4 2.85-4 4.45-7.2-1.15-0.8 0.75-1.25l1.8-4.45 0.2-1.1q1.65-4.1 1.85-6.15l0.25-2.95-0.95 1.65-0.25 0.1q0.65-3.45-0.25-5.35l-0.5-3.35q-1.3 0.5-2.25 1.15-1.85 1.4-5.85 6.4l-0.5 1.15-2.95 1.75 2.95-1.75q-0.5-0.75-1-3.15l-1.3 2.4-0.65 2.5m6.8 7.65 4.4-0.95-4.4 0.95" fill="#cecece" fill-rule="evenodd"/>
<path d="m62.25-50.25q0.05 1.25 0.8 4.5l0.2 0.55 2.05-10.1 2.95-1.75 0.5-1.15q4-5 5.85-6.4 0.95-0.65 2.25-1.15l0.5 3.35q0.9 1.9 0.25 5.35l0.25-0.1 0.95-1.65-0.25 2.95q-0.2 2.05-1.85 6.15l-0.2 1.1-4.4 0.95m-10.15-2.5q0.3-0.1 0.2-0.4l0.1 0.3m14.25 1.65-1.8 4.45q-1.9 0.45-0.75 1.25-1.6 3.2-4.45 7.2-2.75 3.3-5.7 3.4-0.15-2.45-1-6-1.6-5.8-0.85-11.85m-0.35 26.45q1.7-3.9 2.35-6.4l-0.15-2.2m10.15-10.6 0.25-0.1q0.05-0.65 0.5-1.15l4.7-1.75m-14.1-9.4 0.65-2.5 1.3-2.4q0.5 2.4 1 3.15" fill="none" stroke="#000" stroke-linecap="round" stroke-linejoin="round" stroke-opacity=".24314" stroke-width=".05"/>
<path d="m69.7-13.1q6.15 0.9 10.05-0.55l0.85 0.65q-7.65 4.45-8.45 4.75l8.1-3.05q-6.2 6.2-7.15 8.8l2.65-1 1.6-0.3 3.15-1.15 1.8-0.7q7.75-4.25 13.65-9.7l2-2.05 4.35-5.55 1.8-2.6 2.7-4.55-5.15 3.25-3.7 2.05q-10.95 6.1-22.85 9.35-2.85 1.1-5.4 2.35" fill="#b9b190" fill-rule="evenodd"/>
<path d="m80.5-4.95 16.2-4.3q12.55-4.8 15.65-8.9l-14.4 0.75-2 2.05q-5.9 5.45-13.65 9.7l-1.8 0.7" fill="#72552b" fill-rule="evenodd"/>
<path d="m73.1-2.5 2.65-1 1.6-0.3 3.15-1.15 1.8-0.7q7.75-4.25 13.65-9.7m2-2.05 4.35-5.55 1.8-2.6 2.7-4.55-5.15 3.25-3.7 2.05q-10.95 6.1-22.85 9.35-2.85 1.1-5.4 2.35" fill="none" stroke="#000" stroke-linecap="round" stroke-linejoin="round" stroke-opacity=".24314" stroke-width=".05"/>
<path d="m-24.4 68.9 0.45 1.25 0.75 2.45 1.1 2.75 0.55 1.3-0.55-0.25 0.75 2.85-2.15-3.2-0.2-0.35-2.4-6.3 1.7-0.5-1.7 0.5q-1.5-0.2-2.5-1.5l-0.2-1.95 1.15-1.3-1-8.05 2.15-0.65 0.2 1.65 0.15 0.8 0.25 1.1-0.2 1.6-0.05 1.6-0.1 2.5 0.05 0.2q0.75 0.35 1.25 1l0.1 0.05 0.3-0.05 0.45-0.3h0.1l0.4 0.1-0.45 0.8-0.2 0.25v0.35l-0.15 0.2v0.15l1.15-0.2 1-0.85v0.15l-0.9 0.95-1.25 0.9m-0.55-2.5-2.15 0.3-0.55-2.05 0.55 2.05 2.15-0.3" fill="#a4a47b" fill-rule="evenodd"/>
<path d="m-21.55 76.65-0.55-1.3-1.1-2.75-0.75-2.45-0.45-1.25 1.25-0.9q1.4 5 3.95 9.65l-2.35-1m-0.7-9.75-1 0.85-1.15 0.2v-0.15l0.15-0.2v-0.35l0.2-0.25 0.45-0.8-0.4-0.1h-0.1l-0.45 0.3-0.3 0.05-0.1-0.05q-0.5-0.65-1.25-1l-0.05-0.2 0.1-2.5 0.05-1.6 0.2-1.6-0.25-1.1-0.15-0.8-0.2-1.65h0.2l1.8-0.6 0.1 7.25 1.95 1.5q0.5 0.6 0.45 1.45 0.1 0.6-0.25 1.35m-2.4-2.15 0.25-2.15-0.25 2.15" fill="#b9b9a4" fill-rule="evenodd"/>
<path d="m-24.4 68.9-1.7 0.5 2.4 6.3 0.2 0.35 2.15 3.2-0.75-2.85 0.55 0.25 2.35 1q-2.55-4.65-3.95-9.65l-1.25 0.9m2.15-2q0.35-0.75 0.25-1.35 0.05-0.85-0.45-1.45l-1.95-1.5-0.25 2.15m-3-0.1-1.15 1.3 0.2 1.95q1 1.3 2.5 1.5m2.95-1.4 0.9-0.95v-0.15m-4.25-10.95-2.15 0.65 1 8.05 0.55 2.05 2.15-0.3m0.55-3.8-0.1-7.25-1.8 0.6" fill="none" stroke="#000" stroke-linecap="round" stroke-linejoin="round" stroke-opacity=".4" stroke-width=".05"/>
<path d="m-64.3-2.95-3.3-2.45-1.15-0.4q1.85 2.9 2.1 4.25-0.75-0.6-2.3-0.8l-1.15-0.4q-11.1-9.65-13.35-19.75-1.75-10.55 0.55-18.05 2.4-7.85 3.6-4.85l8.55 18.7q6.3 14.1 7.95 19.45l-2.85-1.95q0.1 1.65 1.45 5.95l-0.1 0.3" fill="#97723e" fill-rule="evenodd"/>
<path d="m-64.3-2.95-3.3-2.45-1.15-0.4q1.85 2.9 2.1 4.25-0.75-0.6-2.3-0.8l-1.15-0.4q-11.1-9.65-13.35-19.75-1.75-10.55 0.55-18.05 2.4-7.85 3.6-4.85l8.55 18.7q6.3 14.1 7.95 19.45l-2.85-1.95q0.1 1.65 1.45 5.95l0.45 0.5z" fill="none" stroke="#000" stroke-linecap="round" stroke-linejoin="round" stroke-opacity=".24314" stroke-width=".05"/>
<path d="m-26.8 65.25q-1.75-2.25-3.65-4.2-7.5-4.2-14.6-8.65 2.4-3.3 5.15-6.5-2 0.25-6.75 1.8-6.45 2.9-13.6 0.4-9.7-3.35-16.9-7.5l12.95-11.5-28.7 0.55 7.35-2.85-23.25-15.15 10.65 0.75q-0.95-0.95-2.3-1.75-0.95-0.95-2.25-1.75-2.75-2.2-6.45-4.45l35 9 1.15 0.4-10.05-8q14.6 6.05 22.3 9.7 7.7 3.6 11.95 7.05l1.7 1.55 1.15 0.4q1.6 0.9 3.8 1l4.75 3.9 0.2-0.55q-10.15-12.25-8.8-15.3l5.8 5.55 0.45 0.5q2.9 4.55 4.85 8.1l1.1 2.35 0.75 1.55q1.7 3.45 2.5 5.65 1.9 3.85 1.85 4.85 0.1 1.6 6 11.35 4.6 7.1-4.1 11.75" fill="#906c36" fill-rule="evenodd"/>
<path d="m-40.2 19.15-5.8-5.55q-1.35 3.05 8.8 15.3l-0.2 0.55-4.75-3.9q-2.2-0.1-3.8-1-9.65-21.95-13.75-30.45 4.45 4.8 7.55 8.75 7.15 8.85 11.95 16.3m-6.9 5-1.7-1.55q-4.25-3.45-11.95-7.05-7.7-3.65-22.3-9.7l10.05 8-1.15-0.4-35-9q-5.4-3.8-12.8-8.35-14.8-9-19.55-19.3l2.6-0.1q1.05 0.7 13.25 3.4-2.3-0.8-5.8-3.65-4.45-3.8-5.55-7.1l3.75 0.35 32.7 4.7q0.1-0.25-0.2-0.35 0.05-2.9-24.35-16.85l9.7 0.8q17.05-0.1 33.6 13.95l5.65 4.9-1.5-1.2q-12.4-9.4-28.35-14.35 14.7 14.05 19.5 21.5 7 10.15 10.25 17.4 18.9 10.15 29.15 23.95m-18.2-39.7-3.1-13.25q4.95 9.75 8.05 16.6l-4.95-3.35" fill="#ad9e65" fill-rule="evenodd"/>
<path d="m-45.95 24.55-1.15-0.4q-10.25-13.8-29.15-23.95-3.25-7.25-10.25-17.4-4.8-7.45-19.5-21.5 15.95 4.95 28.35 14.35l1.5 1.2q5.65 5.15 12.15 12.25l-1.3-4.65 4.95 3.35q2.8 4.8 4.45 8.3l2 3.55 1.75 3.2q-3.1-3.95-7.55-8.75 4.1 8.5 13.75 30.45" fill="#cecece" fill-rule="evenodd"/>
<path d="m-108.8 11.65 23.25 15.15-7.35 2.85 28.7-0.55-12.95 11.5q7.2 4.15 16.9 7.5 7.15 2.5 13.6-0.4 4.75-1.55 6.75-1.8-2.75 3.2-5.15 6.5 7.1 4.45 14.6 8.65 1.9 1.95 3.65 4.2-2.7 1.3-7 2.65-31.3-6.75-59.3-24.85l-3.9-2.65q1.05-0.25 1.85-0.65 11.8-3.55 10.8-5.2l-12.95 1.25q-10.05-8.95-16.6-17.6l-2.05-2.65-2.8-4.8 9.95 0.9" fill="#72552b" fill-rule="evenodd"/>
<path d="m-108.8 11.65-9.95-0.9 2.8 4.8 2.05 2.65q6.55 8.65 16.6 17.6l12.95-1.25q1 1.65-10.8 5.2-0.8 0.4-1.85 0.65l3.9 2.65q28 18.1 59.3 24.85 4.3-1.35 7-2.65 8.7-4.65 4.1-11.75-5.9-9.75-6-11.35 0.05-1-1.85-4.85-0.8-2.2-2.5-5.65l-0.75-1.55-1.1-2.35m-74.25-23.3q3.7 2.25 6.45 4.45 1.3 0.8 2.25 1.75 1.35 0.8 2.3 1.75l-10.65-0.75m-0.35-7.2q-5.4-3.8-12.8-8.35-14.8-9-19.55-19.3l2.6-0.1q1.05 0.7 13.25 3.4-2.3-0.8-5.8-3.65-4.45-3.8-5.55-7.1l3.75 0.35 32.7 4.7q0.1-0.25-0.2-0.35 0.05-2.9-24.35-16.85l9.7 0.8q17.05-0.1 33.6 13.95l5.65 4.9q5.65 5.15 12.15 12.25l-1.3-4.65-3.1-13.25q4.95 9.75 8.05 16.6 2.8 4.8 4.45 8.3l2 3.55 1.75 3.2q7.15 8.85 11.95 16.3" fill="none" stroke="#000" stroke-linecap="round" stroke-linejoin="round" stroke-opacity=".24314" stroke-width=".05"/>
<path d="m-77.65-7.95-4.95-1.4-0.3-0.1 3.8 5.8q0.1 0.7-0.1 1.25l-0.1 0.3-0.05 1.9-0.1 0.3 0.1 1.6-2-1.65-0.45-0.45-1.15-0.4-6.5-2.6-2.05-1.4q-6.5-3.55-10.15-8.65-2.75-4.15-4.5-8.3-1.95-4.5-2.45-8.5-0.75-8 1.4-5.95l15.3 14q10.8 9.55 14.35 14l-0.1 0.25" fill="#b9b190" fill-rule="evenodd"/>
<path d="m-106.15-21.75q1.75 4.15 4.5 8.3 3.65 5.1 10.15 8.65l-6.8-1.7q-13.15-4.6-23.8-18.2l0.1-0.3 15.85 3.25" fill="#906c36" fill-rule="evenodd"/>
<path d="m-77.65-7.95 0.1-0.25q-3.55-4.45-14.35-14l-15.3-14q-2.15-2.05-1.4 5.95 0.5 4 2.45 8.5 1.75 4.15 4.5 8.3 3.65 5.1 10.15 8.65l2.05 1.4 6.5 2.6 1.15 0.4m0.45 0.45-1.6-0.85" fill="none" stroke="#000" stroke-linecap="round" stroke-linejoin="round" stroke-opacity=".24314" stroke-width=".05"/>
<path d="m-92.05 10.7-0.1 0.3q-1.75 2.3-6.2 3l-1.6 0.05-3.25 0.15-4.05-0.45-1.25-0.1q1.65-1.05 1.75-1.35-0.1 0.3-1.75 1.35l-4.85-0.7q-5.35-1.25-7.25-2.2l-2.65-1.6-0.3-0.1 2.2 0.15q0.1-0.3 0.4-0.2-3.45-1.2-4.65-3.25 0.1-0.25-2.1-2.3 1.4-1.15 2.45-1.4 2.3-1.1 8.9-1.7l1.15 0.4q-0.25-1.05-1.85-2.9l2.75 0.35 11.8 4.7q-0.15-0.4-0.45-0.5-2.15-3-3.2-3.6l0.55 0.15q5.55 2.55 9.3 7.4 1.7 1.55 2.55 2.8 1.05 0.7 1.7 1.55m-20.65-9.7-2.5-0.25 2.5 0.25m-0.65 11.95 3.4-3.3-3.4 3.3" fill="#9c8738" fill-rule="evenodd"/>
<path d="m-83.5 13.7q-3.9-0.7-6.45-1.6l-1.8-1.3-0.3-0.1-0.1 0.3q-1.75 2.3-6.2 3l-1.6 0.05-3.25 0.15-4.05-0.45-1.25-0.1-4.45 3.6m20.9-6.55q-0.65-0.85-1.7-1.55-0.85-1.25-2.55-2.8-3.75-4.85-9.3-7.4l-0.55-0.15q1.05 0.6 3.2 3.6 0.3 0.1 0.45 0.5l-11.8-4.7-2.75-0.35q1.6 1.85 1.85 2.9l2.5 0.25m5.95 11.3q-0.1 0.3-1.75 1.35l-4.85-0.7-1.75 1.3m1.75-1.3q-5.35-1.25-7.25-2.2l-2.65-1.6-0.3-0.1 2.2 0.15q0.1-0.3 0.4-0.2-3.45-1.2-4.65-3.25 0.1-0.25-2.1-2.3 1.4-1.15 2.45-1.4 2.3-1.1 8.9-1.7l1.15 0.4m5.25 8.9-3.4 3.3" fill="none" stroke="#000" stroke-linecap="round" stroke-linejoin="round" stroke-opacity=".24314" stroke-width=".05"/>
<path d="m-54.7-17.25 0.3 0.1q0.75 6.05-0.95 11.85l-1.15 6q-3.15-0.1-6.15-3.4-3.1-4-4.9-7.2 1.25-0.8-0.85-1.25l-1.95-4.45q-0.05-0.7-0.25-1.1-1.75-4.1-2-6.15-0.4-1.7-0.3-2.95 0.7 0.85 1.05 1.65l0.3 0.1q-0.75-3.45 0.2-5.35l0.55-3.35q1.45 0.5 2.45 1.15 2.1 1.4 6.45 6.4l0.55 1.15 3.25 1.75-3.25-1.75q0.6-0.75 1.1-3.15l1.4 2.4 0.75 2.5 2.25 10.1 0.2-0.55q0.85-3.25 0.95-4.5m-10.85 2.6-4.8-0.95 4.8 0.95" fill="#cecece" fill-rule="evenodd"/>
<path d="m-54.4-17.15q-0.3-0.1-0.2-0.4l-0.1 0.3q-0.1 1.25-0.95 4.5l-0.2 0.55-2.25-10.1-3.25-1.75-0.55-1.15q-4.35-5-6.45-6.4-1-0.65-2.45-1.15l-0.55 3.35q-0.95 1.9-0.2 5.35l-0.3-0.1q-0.35-0.8-1.05-1.65-0.1 1.25 0.3 2.95 0.25 2.05 2 6.15 0.2 0.4 0.25 1.1l4.8 0.95m11.15-2.5q0.75 6.05-0.95 11.85l-1.15 6-0.1 2.2q0.7 2.5 2.55 6.4m-16.3-24.9 1.95 4.45q2.1 0.45 0.85 1.25 1.8 3.2 4.9 7.2 3 3.3 6.15 3.4m-11.05-10.6-0.3-0.1q-0.05-0.65-0.55-1.15l-5.15-1.75m15.45-9.4-0.75-2.5-1.4-2.4q-0.5 2.4-1.1 3.15" fill="none" stroke="#000" stroke-linecap="round" stroke-linejoin="round" stroke-opacity=".24314" stroke-width=".05"/>
<path d="m-62.95 19.9q-6.75 0.9-11-0.55l-0.9 0.65 9.25 4.75-8.9-3.05q6.8 6.2 7.85 8.8l-2.85-1-1.85-0.3-3.4-1.15-2-0.7q-8.5-4.25-14.9-9.7l-2.2-2.05-4.8-5.55-1.95-2.6-2.9-4.55 5.6 3.25q2.2 1.05 4.1 2.05 11.95 6.1 24.95 9.35 3.15 1.1 5.9 2.35" fill="#b9b190" fill-rule="evenodd"/>
<path d="m-74.75 28.05-17.75-4.3q-13.75-4.8-17.15-8.9l15.8 0.75 2.2 2.05q6.4 5.45 14.9 9.7l2 0.7" fill="#72552b" fill-rule="evenodd"/>
<path d="m-66.65 30.5-2.85-1-1.85-0.3-3.4-1.15-2-0.7q-8.5-4.25-14.9-9.7m-2.2-2.05-4.8-5.55-1.95-2.6-2.9-4.55 5.6 3.25q2.2 1.05 4.1 2.05 11.95 6.1 24.95 9.35 3.15 1.1 5.9 2.35" fill="none" stroke="#000" stroke-linecap="round" stroke-linejoin="round" stroke-opacity=".24314" stroke-width=".05"/>
</g>
<g id="a" transform="translate(18.5,20.15)">
<use transform="translate(-18.5,-20.15)" width="37.049999" height="40.349998" xlink:href="#c"/>
</g>
<g id="c" transform="translate(18.5,20.15)">
<path d="m14.85 2.45 0.1 0.4 0.3 2.5-0.2 2.65-1.45 0.75-0.5 0.3 0.5 1.45 0.1 1.45v0.05l-0.5 0.9-0.8 0.45-0.1 0.05 0.05-0.15 0.15-0.55-0.25 0.55h-0.05l-0.05-0.2-0.9-1.6-0.15-0.2-2.3 1.05-1.15 0.55 0.25 2.7q0.35 1.05 0.6 1.3l-2.8 0.6-0.6-1.6v-0.1h-0.6q-2 0.3-2.3 0.5l-1.4-3.05-0.2 0.25q-1.25-1.35-2.05-1.55l-0.3-0.75-0.3-1.4-0.45-0.8-0.1 1 0.05 1.35 0.1 0.6q-0.45 0.05-0.8 0.25-1.45 0.6-1.05 2.7 0.1 0.85-1 1.5l-0.55 0.35-0.25 0.2-0.3-0.75v0.15l0.2 0.65 0.5 1.15h-0.05l-0.15-0.05-0.15 0.05 0.55 0.8-0.1 0.65-1.55 0.15-0.35-0.3-1.45-1.4h-0.05l0.85 1.5-0.55-0.55v0.05l0.2 0.35 0.25 0.45 0.05 0.15-0.3 0.25-0.25-0.3-0.9-1.45v-0.1l-0.5-0.35-0.75-0.6-0.25-0.25q-2.1-1.95-3.15-4.8l-0.2-0.55-0.45-1.7q-0.6-3.25 0.45-6.5l0.9-2.2q2.75-5.55 8.7-7.85 5.95-2.35 11.6-0.15 4.45 1.75 6.7 5.55l1 2.1 0.45 1.4" fill="#6c331c" fill-opacity=".90196" fill-rule="evenodd"/>
<path d="m5.2-12.4q-0.4 0.6-0.45 1l-0.85 1.4q-0.95 1.25-2.2 1.3l-2.4-1.3q0.3 0 1.25-1.3l0.15-0.25q1.1-1.55 1.3-2.6l0.3 0.1 0.5 0.1v0.3l-0.9 2.05v0.2l0.45 0.05 0.45-0.6 0.6-1.45 0.3-1.1 0.8-0.1-0.05 0.4-1.15 2.9 0.15 0.15 0.45-0.6 0.5-0.75 0.3-0.2h0.6l-0.1 0.3" fill="#eb7e36" fill-rule="evenodd"/>
<path d="m-0.7-10q0.3 0 1.25-1.3l0.15-0.25q1.1-1.55 1.3-2.6l0.3 0.1 0.5 0.1v0.3l-0.9 2.05v0.2l0.45 0.05 0.45-0.6 0.6-1.45 0.3-1.1 0.8-0.1-0.05 0.4m0.85 1.5-0.1 0.3" fill="none" stroke="#000" stroke-linecap="round" stroke-linejoin="round" stroke-opacity=".24314" stroke-width=".05"/>
<path d="m7.15-10.35q2.2-0.7 3.5-4.45 0.85-2.5 0.85-3.35l0.25 0.2 0.3 0.85q0.2 1.75-0.9 5-0.95 2.85-2.5 3.9-0.9 0.3-4.8-1l2-1.6q1.15-1.4 1.65-2.85l0.85-3.1 0.55-2.65q0.8 2.2-0.5 6l-0.85 2.15-0.4 0.9" fill="#eb7e36" fill-rule="evenodd"/>
<path d="m8.9-19.4q0.8 2.2-0.5 6l-0.85 2.15-0.4 0.9" fill="none" stroke="#000" stroke-linecap="round" stroke-linejoin="round" stroke-opacity=".24314" stroke-width=".05"/>
<path d="m11.95-6.65 0.6 0.55 0.5 0.6 1.2 1.45 0.2 0.3 0.75 1.2 0.2 0.3 0.5 0.9-0.85-1-1.85-2-3.05-2.5-1.55-1.2-1.1-0.9-0.35-0.25-0.05 0.05-2-0.95h-0.1l-0.5-0.2-1.05-0.4-0.95-0.2v-0.05l2.25 0.35 0.45 0.15 0.75 0.2 0.35 0.15q1.55 0.55 2.85 1.3l1.25 0.8 0.05 0.45 0.1 0.3q0.2 0.3 0.75 0.4l0.55 0.05 0.1 0.15" fill="#b15212" fill-rule="evenodd"/>
<path d="m2.5-10.95v0.05l0.95 0.2 1.05 0.4 0.5 0.25-1.8 0.6q-1.55 0.55-2.5 1.2l-1.85 1.5q0-1.2 0.8-1.9-4.25 2.6-5.05 3.8l0.55-1.85v-0.3l0.05-0.45 0.45-2.6 3.7-0.8 2.45-0.15 0.4 0.05h0.3m2.6 0.85 2 0.95 0.05-0.05 0.35 0.25 1.1 0.9 1.55 1.2 3.05 2.5 1.85 2 0.85 1 0.65 1.15 0.1 1.3 0.45 0.3 0.3 0.1 1.15 2.75v0.1l-0.45 2.85h-0.15l-0.25-1.35-0.25-1.1-0.45 0.2-0.15 0.1-0.1 0.05-0.35 0.2-0.55-0.8-0.4-0.65-0.2-0.6-0.1 0.1 0.15 0.4 0.25 0.6 0.35 0.95 0.1 0.25-0.15 0.05 0.3 1.4 0.05 0.05-0.2 0.45-0.1 0.15-0.15 0.25-0.05-0.05-0.2-0.45-0.75-1-0.35-0.45-0.4-0.5-0.15-0.15v0.05l0.05 0.15-0.05-0.1-2.6-3.4 1.05 2.3 0.55 1.6 0.2 0.9-2.5-3.25h-0.05l2.2 4.6-0.2-0.35-0.5-0.55-0.25-0.1-0.2-0.05-0.65 0.55-0.35 0.25-0.05-0.05-2.3-5.15-0.15-0.25q-1.5-3-4.4-5.95l3.5 5.35 0.4 0.75q1.45 2.7 2.2 5.1l0.2 0.7-1.25 0.75q0 0.55 0.7 2.2l0.5 1.1 0.5 1.25v0.2h-0.05l-4.3-9 0.2 0.85 1.4 3.95 0.85 3.05-1.9-4.7 0.25 2.05v0.4h-0.05l-1.85-3.8q0.3 1.75 1.35 4.15l-1.65-2.85q0.15 1.9 2.1 5.95h-0.25q-2.05-2.2-3.3-5.85l-0.15-0.5 0.1 0.55 0.45 1.6 1.95 4.35h-0.15l-0.5 0.05-1.65-2.85-0.15-0.25-0.05-0.1-0.5-0.9-0.1-0.15q0.35-0.3 0.3-0.9l-0.15-0.45-0.3-0.4-0.4-0.5 0.05-0.1v-0.5q-0.05-0.85-0.55-1.05l-1.1-0.15-2.1-4.75-0.3-0.8v-0.15l-0.55-2.15 0.6 2.15 0.05 0.1 1.75-0.2 1.55 0.2h1q0-0.85-1.3-3.9v-0.2l0.05-0.05-0.05-0.1v-0.35h0.8q1.15 2.35 2.9 5.2h0.8q-1.65-3-2.45-5.55v-0.05h0.05l3.65 3.9 2.55-1.3 0.1-0.1 3.45-0.5-2.85-3.2q-2.8-2.9-4.95-4.1l0.05-0.05m-10.6 5.85v0.45q0 2.65 0.8 2.95h0.5q-0.25-0.55 0.35-1.95l0.75-1.45 0.1 0.2 0.1 1.1-0.2 1.75-0.1 0.5q0 3.25 1.5 10.05l-2.05-5.25-0.8-2.95 1.35 7.1q-2.5-4.6-2.5-9.65l0.15-2.45 0.05-0.4m18.55 3.2-0.3-0.25 0.25 0.3 0.05-0.05" fill="#a34a10" fill-rule="evenodd"/>
<path d="m15.45 3.85-0.3-0.5 0.1-0.1 0.2 0.6m-21.05 13.1-0.1 0.05-0.25-0.25-0.9 0.55h-0.65l-0.3-0.45v-0.15q-0.05-1.4-0.65-4.2v-0.25q0.5 1.05 0.85 3.4l0.05 0.2-0.25-2.4 0.7 2.75-0.7-4.15v-0.25l0.1-1.55 2.05 6.15 0.05 0.55m-4.6-20.8-0.05-0.1h0.05v0.1m24.1 9.35-0.05-0.15 0.1 0.15 0.2 0.35-0.25-0.35" fill="#8b400e" fill-rule="evenodd"/>
<path d="m17.85 7.3-0.4 0.05-0.6-2.3 0.15-0.1 0.45-0.2 0.25 1.1 0.25 1.35v0.05h-0.1v0.05m-9.8 7.9-1 0.2-1-1.4 0.45-0.05h0.35l0.85 0.8 0.45 0.45h-0.1" fill="#e9c796" fill-rule="evenodd"/>
<path d="m4.5-10.3 0.5 0.2h0.1l-0.05 0.05h-0.05l-0.5-0.25m4.2 25.35-0.3 0.1-0.25 0.05-0.45-0.45-0.85-0.8h-0.1q-1.95-4.05-2.1-5.95l1.65 2.85 2.4 4.2m-2.65-1.05-0.5 0.1-1.95-4.35-0.45-1.6-0.1-0.55 0.15 0.5q1.25 3.65 3.3 5.85l-0.45 0.05m-1.15 0.15-0.65 0.05-0.15 0.05v-0.05l-0.55-1.7-0.35-1.15-0.15-0.25-0.1-0.1-1.05 0.1h-0.05l-0.05-0.6 0.4-0.35 0.25-0.25 0.1 0.15 0.5 0.9 0.05 0.1 0.15 0.25 1.65 2.85m-6-6.05 0.2 0.75q0.05 0.45-0.45 0.85-0.5 0.35-1 0.4l-0.2-0.1-0.55-0.65q-0.5-0.75-0.95-0.75-1.15 0-1.3 1.1l-0.05 0.9v0.05h-0.05l-1.05 0.6 0.5-17.3-0.55 1.15v0.45l-0.2 0.3-0.4 0.95 0.45 14.6-0.05 0.15 0.3 1.2 0.2 0.75 0.05 0.25 0.35 1.6 0.05 0.15 0.15 0.9-2.05-6.15-0.1 1.55v0.25l-1.3-7.9 0.1-4.75q-0.05-1.05-0.1-0.4l-0.85 4.8 0.1 1v0.05l2.05 8.6 0.25 2.4-0.05-0.2q-0.35-2.35-0.85-3.4v0.25q0.6 2.8 0.65 4.2v0.15l-0.1-0.25v-0.05q-0.8-1.9-2.2-8.05 1.25 8.35 1.95 8.85l-0.15 0.05-1.25 0.05-0.65-1.2-0.6-1.2h-0.2l-0.1 0.1-0.1 0.25 0.3 1.9 0.1 0.5q-1.05-3.8-1.4-7.3l-0.3-2.65 0.05-2.7 0.15-2.75 0.3-2.6-1.8 3.3-0.05-0.2-0.05-0.05 0.05 0.05 0.05 0.2v0.2q0.05 1-0.3 1.9l-0.25 0.6-0.2 0.45-0.15 0.35-0.1 0.25q-0.25 0.7-0.95 1l0.25-1q0.25-0.75 0.2-2.4l0.1-3 1.05 1 0.25 0.3v0.1h0.05q0.45-2.8 2.8-7.6l1.45-2.7q2.15-1.7 5-2.55l0.15-0.05h0.1l-0.45 2.6-0.05 0.45v0.3l-0.55 1.85-0.1 0.6-0.05 0.4-0.15 2.45q0 5.05 2.5 9.65l-1.35-7.1 0.8 2.95 2.05 5.25q-1.5-6.8-1.5-10.05l0.1-0.5 0.2-1.75 0.1-0.8 0.15 1.75 0.55 2.15v0.15l0.3 0.8 2.1 4.75-0.75 0.55q-0.75 0.7-0.7 1.4l0.05 0.3m-9.25 11.1-0.05 0.1-0.1-0.35 0.15 0.25m-4.3-4.7q-0.85-3.3-1.1-6.65 0.7-0.3 0.95-1l0.1-0.25 0.15-0.35-0.35 1.95-0.3 0.5 0.7 5.75-0.15 0.05m4.45-18.35v-0.1h-0.05l0.05 0.1m-0.4 7.9-0.05 0.95q-0.65 1.35-0.6 2.95l0.15 2.75 0.1 1.1q0.25 2.05 1.1 3.75l-0.7-11.5m20-6.3-0.05 0.05-0.25-0.35 0.3 0.3m-8.4-1.75 0.05 0.1-0.05 0.05-0.1-0.3 0.1 0.15m12.05 2.95-0.05 0.05-0.25-0.3 0.3 0.25" fill="#4e2307" fill-rule="evenodd"/>
<path d="m-7.8 13.45-2.05-8.6v-0.05l-0.1-1 0.85-4.8q0.05-0.65 0.1 0.4l-0.1 4.75 1.3 7.9 0.7 4.15-0.7-2.75m1.1-2.05-0.45-14.6 0.4-0.95 0.2-0.3v-0.45l0.55-1.15-0.5 17.3-0.2 0.15m-7.65-5.6 0.05 7.85-0.2 0.8-0.7-5.75 0.3-0.5 0.35-1.95 0.2-0.45m3.75-1.75 0.7 11.5q-0.85-1.7-1.1-3.75l-0.1-1.1-0.15-2.75q-0.05-1.6 0.6-2.95l0.05-0.95m-2.8 4.95 0.6-6.9-0.1 12.25-0.5-5.35" fill="#3e1c06" fill-rule="evenodd"/>
<path d="m-10.4 19.3q-0.9 0.25-3.3-1.75l-0.95-3.05 0.15-0.05 0.2-0.8-0.05-7.85 0.25-0.6q0.35-0.9 0.3-1.9v-0.2l1.8-3.3-0.3 2.6-0.15 2.75-0.05 2.7 0.3 2.65q0.35 3.5 1.4 7.3v0.1l0.4 1.4m-4.8-17.85q0.65-2.55 2.05-4.85 1.45-2.45 3.55-4.05l-1.45 2.7q-2.35 4.8-2.8 7.6h-0.05v-0.1l-0.25-0.3-1.05-1m1.8 7.55 0.5 5.35 0.1-12.25-0.6 6.9" fill="#361805" fill-rule="evenodd"/>
<path d="m14.9 7.8 0.35 0.9-1.15 0.8-0.15 0.05-0.55 0.1-0.1-0.2-0.2-0.55-0.25-0.55-0.15-0.2-2.2-4.6h0.05l2.5 3.25-0.2-0.9-0.55-1.6-1.05-2.3 2.6 3.4 0.05 0.1 0.25 0.35v0.05l0.05 0.05 0.7 1.85m-4.55 6.1-0.3 0.3-1.05 0.7-0.3 0.15-2.4-4.2q-1.05-2.4-1.35-4.15l1.85 3.8h0.05v-0.4l-0.25-2.05 1.9 4.7-0.85-3.05-1.4-3.95-0.2-0.85 4.3 9m-5.35-23.95h0.05q2.15 1.2 4.95 4.1l2.85 3.2-3.45 0.5-0.3-0.3 0.25 0.35-0.05 0.05-2.55 1.3-3.65-3.9h-0.05v0.05q0.8 2.55 2.45 5.55h-0.8q-1.75-2.85-2.9-5.2h-0.8v0.35l-0.1-0.15 0.1 0.3v0.2q1.3 3.05 1.3 3.9h-1l-1.55-0.2-1.75 0.2-0.05-0.1-0.6-2.15-0.15-1.75-0.1 0.8-0.1-1.1-0.1-0.2-0.75 1.45q-0.6 1.4-0.35 1.95h-0.5q-0.8-0.3-0.8-2.95v-0.45l0.1-0.6q0.8-1.2 5.05-3.8-0.8 0.7-0.8 1.9l1.85-1.5q0.95-0.65 2.5-1.2l1.8-0.6" fill="#c95c14" fill-rule="evenodd"/>
<path d="m10.5 7.85-0.75-0.15q-0.75-2.4-2.2-5.1l-0.4-0.75-3.5-5.35q2.9 2.95 4.4 5.95l0.15 0.25 2.3 5.15m-18.4 8.7-0.05 0.05-0.2 0.75q-0.7-0.5-1.95-8.85 1.4 6.15 2.2 8.05" fill="#371a0d" fill-rule="evenodd"/>
<path d="m13.85 5.3 0.15 0.15-0.05 0.05-0.1-0.15v-0.05" fill="#d99e48" fill-rule="evenodd"/>
<path d="m15.7 7.85-0.65-0.05h-0.15l-0.7-1.85-0.05-0.05v-0.05l-0.2-0.35 0.05-0.05 0.4 0.5 0.35 0.45 0.75 1 0.2 0.45" fill="#b77c26" fill-rule="evenodd"/>
<path d="m13.3 9.45-0.3 0.35-1.05-0.05-0.1-1.05-0.95-1.05 0.65-0.55 0.2 0.05 0.25 0.1 0.5 0.55 0.2 0.35 0.15 0.2 0.25 0.55 0.2 0.55m-12.2 2.35h-0.1l-0.2-0.55-0.25-0.8 0.05-0.05 0.5-0.55 0.1-0.05 0.1-0.35v-0.2l-0.05-0.45-0.4-0.2 0.55-0.6 0.45-0.45 0.05 0.1 0.4 0.5 0.3 0.4 0.15 0.45q0.05 0.6-0.3 0.9l-0.25 0.25-0.4 0.35 0.05 0.6v0.05q-0.1 0.05-0.25 0.2l-0.5 0.45m-6.2 0.35 0.85 3.35-0.65-0.05-0.7 1.5-0.05-0.55-0.15-0.9-0.05-0.15-0.35-1.6 1.1-1.6" fill="#fff" fill-rule="evenodd"/>
<path d="m1.95 12.45-0.3-0.45-0.55-0.2 0.5-0.45q0.15-0.15 0.25-0.2l0.05-0.05 1.05-0.1 0.1 0.1-1.1 1.35m-1.1-3.9q-0.4-1.15-1.35-1.15l-0.3 0.05-0.3 0.65-0.05-0.3q-0.05-0.7 0.7-1.4l0.75-0.55 1.1 0.15q0.5 0.2 0.55 1.05v0.5h-0.1l-0.45 0.45-0.55 0.6v-0.05m-3.4 1.45-0.85-0.2q-0.4 0-0.7 0.65l0.1 0.45-0.4 0.2-0.85 0.35-0.15-0.5v-0.35l0.05-0.9q0.15-1.1 1.3-1.1 0.45 0 0.95 0.75l0.55 0.65m-8.4 5.05 1.05 3.45-0.45 0.7-0.15-0.25-0.3-1.05v-0.1l-0.1-0.5-0.3-1.9 0.1-0.25 0.1-0.1h0.05" fill="#cb8a2c" fill-rule="evenodd"/>
<path d="m4.1 14.25-0.6-0.15-0.55 0.15h-0.3l-0.55-1.4-0.15-0.4 1.1-1.35 0.15 0.25 0.35 1.15 0.55 1.7v0.05" fill="#efd6b1" fill-rule="evenodd"/>
<path d="m15.7 7.9v-0.05l0.05 0.05h-0.05m-21.15 2.75h0.05v0.05l-0.05-0.05" fill="#421913" fill-rule="evenodd"/>
<path d="m-5.25 11.45 0.15 0.7-1.1 1.6-0.05-0.25-0.2-0.75-0.3-1.2 0.05-0.15 0.2-0.15 1.05-0.6 0.05 0.3 0.15 0.5" fill="#daa250" fill-rule="evenodd"/>
<path d="m17.95 7.3h-0.1v-0.05l0.1 0.05m0-0.05v-0.05 0.05" fill="#e7ce6d" fill-rule="evenodd"/>
<path d="m11.95-6.65-0.1-0.15-0.55-0.05q-0.55-0.1-0.75-0.4l-0.1-0.3-0.05-0.45-1.25-0.8q-1.3-0.75-2.85-1.3l-0.35-0.15-0.75-0.2-0.45-0.15-2.25-0.35m13.4 9.6 0.65 1.15q0.4 1.25 0.85 1.7l1.15 2.75v0.1l-0.45 2.85-0.1 0.05-0.05 0.05h-0.1l-0.4 0.05-0.6-2.3-0.1 0.05-0.35 0.2-0.55-0.8-0.4-0.65-0.3-0.5 0.15 0.4 0.25 0.6 0.35 0.95m0.1 0.25-0.15 0.05 0.3 1.4 0.05 0.05-0.2 0.45-0.1 0.15-0.15 0.25v0.05l-0.05-0.05v-0.05l-0.65-0.05h-0.15l0.35 0.9-1.15 0.8-0.15 0.05-0.55 0.1-0.1-0.2-0.3 0.35-1.05-0.05-0.1-1.05-0.95-1.05-0.35 0.25v0.05l-0.05-0.1-0.75-0.15 0.2 0.7-1.25 0.75q0 0.55 0.7 2.2l0.5 1.1 0.5 1.25v0.2h-0.05m-0.05 0.05-0.25 0.25-1.05 0.7-0.3 0.15-0.3 0.1-0.25 0.05-0.05 0.05-0.05-0.05-1 0.2-1-1.4-0.5 0.1h-0.15l-0.5 0.05-0.65 0.05-0.15 0.05-0.6-0.15-0.55 0.15h-0.3l-0.55-1.4-0.15-0.4-0.3-0.45-0.55-0.2h-0.1l-0.2-0.55-0.25-0.8 0.05-0.05 0.5-0.55 0.1-0.05 0.1-0.35v-0.2l-0.05-0.45-0.4-0.2v-0.05q-0.4-1.15-1.35-1.15l-0.3 0.05-0.3 0.65 0.2 0.75q0.05 0.45-0.45 0.85-0.5 0.35-1 0.4l-0.2-0.1-0.85-0.2q-0.4 0-0.7 0.65l0.1 0.45-0.4 0.2-0.85 0.35 0.15 0.7 0.85 3.35-0.65-0.05-0.7 1.5-0.1 0.05-0.25-0.25-0.9 0.55h-0.65l-0.3-0.45-0.1-0.25v-0.05l-0.05 0.05-0.2 0.75-0.15 0.05-1.25 0.05-0.65-1.2-0.6-1.2h-0.15l1.05 3.45-0.45 0.7-0.05 0.1q-0.9 0.25-3.3-1.75l-0.95-3.05q-0.85-3.3-1.1-6.65l0.25-1q0.25-0.75 0.2-2.4l0.1-3q0.65-2.55 2.05-4.85 1.45-2.45 3.55-4.05 2.15-1.7 5-2.55l0.15-0.05h0.1l3.7-0.8 2.45-0.15 0.4 0.05h0.3m14.9 12.45-0.3-0.1-0.45-0.3-0.1-1.3m0.3 5.25 0.15-0.1 0.45-0.2 0.25 1.1 0.25 1.35h0.05v0.05m-23.65 9.15-0.15-0.9-0.05-0.15-0.35-1.6-0.05-0.25-0.2-0.75-0.3-1.2 0.05-0.15 0.2-0.15 1.05-0.6m0.05 0v-0.05l0.05-0.9q0.15-1.1 1.3-1.1 0.45 0 0.95 0.75l0.55 0.65m-8.25 7.8-0.1-0.5-0.3-1.9 0.1-0.25 0.1-0.1h0.05m-4.25-13.6 1.05 1 0.25 0.3v0.1l0.05 0.05 0.05 0.2v0.2q0.05 1-0.3 1.9l-0.25 0.6m14.65 0.05 1.1 0.15q0.5 0.2 0.55 1.05v0.5l-0.05 0.1 0.4 0.5 0.3 0.4 0.15 0.45q0.05 0.6-0.3 0.9m7.3-2.2q-0.75-2.4-2.2-5.1l-0.4-0.75-3.5-5.35q2.9 2.95 4.4 5.95l0.15 0.25 2.3 5.15m3.35-2.5v-0.05l0.15 0.15 0.4 0.5 0.35 0.45 0.75 1 0.2 0.45m-1.75-2.35-0.1-0.15m-2.95 2.3 0.65-0.55 0.2 0.05 0.25 0.1 0.5 0.55 0.2 0.35 0.15 0.2 0.25 0.55 0.2 0.55m-6.55 4.5h0.1l0.85 0.8 0.45 0.45 0.25-0.05m-2.35-1.15 0.45-0.05h0.25m1.3 1.25h0.1m-6.3-7.65h0.1m-0.1 0-0.45 0.45-0.55 0.6m-1.95-0.5-0.05-0.3q-0.05-0.7 0.7-1.4l0.75-0.55m1.55 5.3q-0.1 0.05-0.25 0.2l-0.5 0.45m0.75-0.7-0.05-0.6 0.4-0.35 0.25-0.25m-0.55 1.2 1.05-0.1 0.1 0.1 0.15 0.25 0.35 1.15 0.55 1.7v0.05m-2.2-3.15h-0.05 0.05l-0.05 0.05m-7.1 0.3-0.15-0.5-0.05-0.3m0.05 0.05v-0.05m0 0.3v-0.25m-0.2 6.25-0.05-0.55m-8.9-10.15-0.15 0.35-0.1 0.25q-0.25 0.7-0.95 1m1.2-1.6 0.2-0.45m6.2 11.55q-0.7-0.5-1.95-8.85 1.4 6.15 2.2 8.05m-2.45 2.65-0.15-0.25m28.35-11.7h0.15m-0.15 0 0.1 0.05m-3.05 0.5-0.7-1.85" fill="none" stroke="#000" stroke-linecap="round" stroke-linejoin="round" stroke-opacity=".24314" stroke-width=".05"/>
<path d="m16 1.2-1.55-2.05 0.9 2.05q0.75 1.9 0.85 3.35v1.1q-0.05-1.15-2.7-4.95l-0.05-0.1-0.8-1.65-1.25-1.9-2-3.35 3.6 2.5q1.95 1.65 3 5" fill="#de5f29" fill-rule="evenodd"/>
<path d="m9.4-6.3-0.05-0.05 0.05 0.05" fill="#c48322" fill-rule="evenodd"/>
<path d="m9.4-6.3 2 3.35 1.25 1.9 0.8 1.65 0.05 0.1q2.65 3.8 2.7 4.95v-1.1q-0.1-1.45-0.85-3.35l-0.9-2.05 1.55 2.05m-6.6-7.5-0.05-0.05z" fill="none" stroke="#000" stroke-linecap="round" stroke-linejoin="round" stroke-opacity=".24314" stroke-width=".05"/>
<path d="m8.55-4.65q0.35 0.45 0.05 0.85-0.3 0.45-1.1 0.65t-1.6 0q-0.85-0.15-1.2-0.6t-0.05-0.9 1.15-0.6q0.75-0.2 1.55 0 0.8 0.15 1.2 0.6" fill="#150904" fill-rule="evenodd"/>
<path d="m9.6-3.25q-0.5 0.7-1.75 1-1.25 0.25-2.5 0-1.3-0.3-1.85-0.95-0.6-0.7-0.1-1.4 0.45-0.7 1.75-1 1.2-0.3 2.5 0t1.85 1q0.55 0.65 0.1 1.35m-1.05-1.4h0.05l-0.05-0.05v0.05q-0.4-0.45-1.2-0.6-0.8-0.2-1.55 0-0.85 0.15-1.15 0.6t0.05 0.9 1.2 0.6q0.8 0.2 1.6 0t1.1-0.65q0.3-0.4-0.05-0.85" fill="#38140c" fill-rule="evenodd"/>
<path d="m9.6-3.25q-0.5 0.7-1.75 1-1.25 0.25-2.5 0-1.3-0.3-1.85-0.95-0.6-0.7-0.1-1.4 0.45-0.7 1.75-1 1.2-0.3 2.5 0t1.85 1q0.55 0.65 0.1 1.35z" fill="none" stroke="#000" stroke-linecap="round" stroke-linejoin="round" stroke-opacity=".24314" stroke-width=".05"/>
<path d="m1.15-8.75h1.35q0.75 0.15 1.1 0.55 0.25 0.35 0 0.8-0.3 0.35-0.9 0.5-0.75 0.2-1.4 0-0.7-0.15-1.1-0.5-0.3-0.4 0-0.8 0.25-0.4 0.95-0.55" fill="#150904" fill-rule="evenodd"/>
<path d="m1.15-8.75q-0.7 0.15-0.95 0.55-0.3 0.4 0 0.8 0.4 0.35 1.1 0.5 0.65 0.2 1.4 0 0.6-0.15 0.9-0.5 0.25-0.45 0-0.8-0.35-0.4-1.1-0.55h-1.35m-1.35 0.55q0.35-0.55 1.2-0.7 0.9-0.25 1.8 0 0.95 0.15 1.4 0.7 0.35 0.5 0 0.95-0.35 0.55-1.2 0.7-0.95 0.25-1.85 0-0.95-0.15-1.3-0.65-0.4-0.5-0.05-1" fill="#38140c" fill-rule="evenodd"/>
<path d="m1.15-8.75h1.35q0.75 0.15 1.1 0.55 0.25 0.35 0 0.8-0.3 0.35-0.9 0.5-0.75 0.2-1.4 0-0.7-0.15-1.1-0.5-0.3-0.4 0-0.8 0.25-0.4 0.95-0.55m-1.35 0.55q0.35-0.55 1.2-0.7 0.9-0.25 1.8 0 0.95 0.15 1.4 0.7 0.35 0.5 0 0.95-0.35 0.55-1.2 0.7-0.95 0.25-1.85 0-0.95-0.15-1.3-0.65-0.4-0.5-0.05-1" fill="none" stroke="#000" stroke-linecap="round" stroke-linejoin="round" stroke-opacity=".24314" stroke-width=".05"/>
<path d="m6.25-8.35q0.25-0.3 0.85-0.3l1.2 0.25 0.85 0.65q0.15 0.4-0.1 0.7-0.35 0.3-0.9 0.35l-1.15-0.25q-0.65-0.3-0.85-0.7-0.25-0.35 0.1-0.7" fill="#150904" fill-rule="evenodd"/>
<path d="m6.25-8.35q-0.35 0.35-0.1 0.7 0.2 0.4 0.85 0.7l1.15 0.25q0.55-0.05 0.9-0.35 0.25-0.3 0.1-0.7l-0.85-0.65-1.2-0.25q-0.6 0-0.85 0.3m-0.35-0.05q0.35-0.45 1.15-0.45l1.55 0.35 1.05 0.85q0.2 0.5-0.15 0.9-0.4 0.4-1.15 0.4l-1.55-0.3q-0.8-0.35-1.05-0.85-0.25-0.55 0.15-0.9" fill="#38140c" fill-rule="evenodd"/>
<path d="m6.25-8.35q0.25-0.3 0.85-0.3l1.2 0.25 0.85 0.65q0.15 0.4-0.1 0.7-0.35 0.3-0.9 0.35l-1.15-0.25q-0.65-0.3-0.85-0.7-0.25-0.35 0.1-0.7m-0.35-0.05q0.35-0.45 1.15-0.45l1.55 0.35 1.05 0.85q0.2 0.5-0.15 0.9-0.4 0.4-1.15 0.4l-1.55-0.3q-0.8-0.35-1.05-0.85-0.25-0.55 0.15-0.9" fill="none" stroke="#000" stroke-linecap="round" stroke-linejoin="round" stroke-opacity=".24314" stroke-width=".05"/>
<path d="m-12.25-7.1 1.25-0.85h0.9l1.55-0.15 0.15-0.05h0.2q-1.2 0.25-2.2 1.4l-0.9 1.35 0.05 0.05 2.6-1.55h0.1l0.3-0.1-0.3 0.1h-0.1l-0.4 0.1q-1.05 0.25-1.7 0.65l1-1h0.05q1.1 0 3.5-0.8-0.55 0.4-0.7 1.35l-0.15 0.9 0.05 0.2-1.7 1.6q-1.45 1.6-1.45 2.7v-0.25l0.2-2.2h-0.05l0.1-0.7 0.4-0.65-1.15 0.95q-1.25 0.85-1.95 2.2l0.15-0.75 0.05-0.35 0.15-1 0.1-0.45 0.05 0.05 0.2-0.7-0.05 0.05q-0.5-0.4-0.8-0.25 0.3-0.15 0.8 0.25-0.5 0.2-1.2 0.8l-1.65 1.4 1-1.4 1.05-1.05-0.4 0.25 1.15-1.4q-1.85 1.7-2.9 2.1l2.4-2.6 0.25-0.2m5.2 0.55v0.85-0.85l0.05-0.7-1.25 0.25q-0.9 1.25-0.9 2.1l0.05 0.05q0.85-1.2 2.05-1.7m-3.3-1.75h-0.3l-1.3 0.05q0.8-0.8 2.65-0.8l1.1 0.15h0.05l-0.6-0.05-1.95 0.2 2.65 0.15-1.85 0.3h-0.45m2.3-0.55 3.45-0.85 0.9-0.2-1.15 0.8 0.95-0.35 1.65-0.35h0.2l0.5-0.1-0.8 0.4-1.65 1.15 1.25-0.2h0.3l0.85-0.05-1.2 0.35-1.2 0.4-0.85 0.55-0.3 0.35-0.4 0.65-0.1 0.1-0.45 0.95-0.55 1.8-0.25-0.45-0.1-0.85 0.1-0.8 0.05-0.05 0.4-1 1.05-1.4-0.65 1.55 0.3-0.4q0.8-0.85 1.45-1l0.05-0.1-1.75-0.2-0.1-0.05q0.55 0 1.65-0.6v-0.1l-1.75 0.05-1 0.2q-0.45 0.05-0.45-0.15l-0.4-0.05m-1.65 1.65 0.1-0.1 1.4-0.45-1.5 0.55" fill="#8f3e1b" fill-rule="evenodd"/>
<path d="m-12.5-6.9-2.4 2.6q1.05-0.4 2.9-2.1l-1.15 1.4q-2.75 1.55-4.8 3.6l1.3-1.85 2.7-2.5 1.45-1.15m0.55 1.9 0.05-0.05-0.2 0.7-0.05-0.05 0.1-0.25-2.7 3.15-0.45 0.4-3.3 3.45q0.2-0.95 1.4-2.6l2.8-3.4 0.15-0.15 0.35-0.4-1 1.4 1.65-1.4q0.7-0.6 1.2-0.8m-0.65 3.15q0.7-1.35 1.95-2.2l1.15-0.95-0.4 0.65-0.9 1.55-0.6 1.1-1.5 3v-0.9l0.15-1.15 0.15-1.1m2.6-1.8h0.05l-0.2 2.2v0.25q0-1.1 1.45-2.7l1.7-1.6v0.25h-0.05l-0.35 0.4-1.1 1.5q-1.7 2.55-1.8 5.15-0.2-0.2-0.2-1.45l0.35-2.75v-0.15l0.15-1.1m2.95-2.9q-1.2 0.5-2.05 1.7l-0.05-0.05q0-0.85 0.9-2.1l1.25-0.25-0.05 0.7m-1.6-0.35-2.6 1.55-0.05-0.05 0.9-1.35q1-1.15 2.2-1.4h-0.2l-0.15 0.05-1.55 0.15h-0.9l0.65-0.35h0.45l1.85-0.3 1.75 0.1 0.15 0.05-1.8 0.65-0.25 0.05-1.4 0.45-1.15 1.15q0.65-0.4 1.7-0.65l0.4-0.1" fill="#642b13" fill-rule="evenodd"/>
<path d="m-7-5.5-0.05-0.2 0.15-0.9q0.15-0.95 0.7-1.35-2.4 0.8-3.5 0.8h-0.05l0.05-0.05 1.5-0.55 0.25-0.05 1.8-0.65-0.15-0.05-1.75-0.1-2.65-0.15 1.95-0.2 0.6 0.05 0.1 0.05 0.4 0.05q0 0.2 0.45 0.15l1-0.2 1.75-0.05v0.1q-1.1 0.6-1.65 0.6l0.1 0.05 1.75 0.2-0.05 0.1q-0.65 0.15-1.45 1l-0.3 0.4 0.65-1.55-1.05 1.4-0.4 1-0.05 0.05-0.1 0.8v-0.75" fill="#c95625" fill-rule="evenodd"/>
<path d="m-12.15-4.4-0.1 0.45-0.55 1.35 0.4-0.35-0.05 0.35-0.15 0.75-0.15 1.1-2.15 3.5v-0.1l2.1-5.25-2.55 2.65 0.15-1.15 0.45-0.4 2.7-3.15-0.1 0.25m2.25 0.05-0.1 0.7-0.15 1.1v0.15q-1.4 2.8-2.05 6.15v-0.85l0.8-4.6 0.6-1.1 0.9-1.55m1.4 1 1.1-1.5 0.35-0.4h0.05v0.5l-2 4v-0.8l0.5-1.8" fill="#1f0e03" fill-rule="evenodd"/>
<path d="m-11-7.95-1.25 0.85m-0.9 2.1 0.4-0.25q0.3-0.15 0.8 0.25m-0.2 0.6-0.1 0.45-0.15 1-0.05 0.35-0.15 0.75m3.1-3.15-0.4 0.65-0.1 0.7-0.15 1.1v0.15m3.15-3.1-0.05-0.2v-0.85m-1.2-0.45-0.3 0.1h-0.1m-2.35-1.05 0.65-0.35h-0.1m-0.2 0-1.3 0.05q0.8-0.8 2.65-0.8l1.1 0.15h0.05l0.1 0.05 3.45-0.85 0.9-0.2 0.05-0.05v0.05h-0.05l-1.15 0.8 0.95-0.35 1.65-0.35h0.2l0.5-0.1 0.85-0.15m-9.65 1.75h0.45l1.85-0.3m-1.65 1.4-1.05 1.05q0.65-0.4 1.7-0.65l0.4-0.1m0.45-0.85-1.4 0.45-0.1 0.1m1.5-0.55 0.25-0.05m-0.3 0.8 1.25-0.25-0.05 0.7m-10.9 5.15q2.05-2.05 4.8-3.6m-0.65 0.8-0.35 0.4-0.15 0.15-2.8 3.4q-1.2 1.65-1.4 2.6l3.3-3.45 0.45-0.4 2.7-3.15-0.1 0.25m3.65 1.05 1.1-1.5 0.35-0.4h0.05v-0.25m0 0.75 0.1 0.85 0.25 0.45 0.55-1.8 0.45-0.95m0.1-0.1 0.4-0.65 0.3-0.35 0.85-0.55 1.2-0.4 1.2-0.35-0.85 0.05h-0.3l-1.25 0.2 1.65-1.15 0.8-0.4m-5.45 4.65v0.5m-1.5 1.4q-1.7 2.55-1.8 5.15-0.2-0.2-0.2-1.45l0.35-2.75m-1.25 0.7-1.5 3v-0.9l0.15-1.15 0.15-1.1m1.8-0.95 0.9-1.55m-2.85-0.9-1.05 1.05" fill="none" stroke="#000" stroke-linecap="round" stroke-linejoin="round" stroke-opacity=".24314" stroke-width=".05"/>
<path d="m-8-9.85-1.65-0.55q-3.4-1.45-4.15-3.6l0.6 0.5 1.75 1.55q2.05 1.3 4.5 1.5h1.25l0.55-0.1-0.55-0.35-2.4-1.5q-2.4-1.7-3.65-4.45l3.25 3.25q1.75 1.6 2.75 2.15l0.65 0.2q0.85-4.1-1.05-8.9 2.2 2.15 2.25 6.05l-0.15 2.95q1.7-0.65 2.2-3.65 0.45-2.75 0.1-3.05 0.45 0.25 0.55 2 0.05 1.75-0.35 2.8-0.4 1-0.55 1.1l-0.35 0.5 0.15-0.05h0.65l2.05 0.45v0.1l-2.4 0.2q0.6-0.05 1.6 0.7 0.95 0.7 1.1 1.4l-1.5-0.75-1.35-0.6q0.55 0.5 0.6 2.4l-0.2 1.35q0-0.65-0.4-1.3-0.55-0.9-0.7-1.65v0.65l-0.1 1.4q-0.2 1-0.25 0.65l-0.25-1.15-0.15-0.7v-0.05l-0.05 0.7-0.05 0.4-0.5-1.2q-0.4-1.1-0.5-0.85l-0.2 0.1-0.25 0.2-0.85 1.55-0.1 0.3v0.05l-0.05-0.05v-1.15l0.05-0.8-1.55 0.5q-1.5 0.6-2.15 1.5h-0.05v-0.05q1.1-1.45 2.35-2.15 0-0.35-0.35-0.45h-0.05l-0.1-0.05 0.1 0.05h0.05q0.35 0.1 0.35 0.45l-1.55 0.2 0.35-0.3 0.55-0.35 0.15-0.05m3.95-0.3v-1 1" fill="#ecda3e" fill-rule="evenodd"/>
<path d="m-13.2-13.5-0.6-0.5q0.75 2.15 4.15 3.6l1.65 0.55 0.1 0.05h0.05q0.35 0.1 0.35 0.45-1.25 0.7-2.35 2.15v0.05h0.05q0.65-0.9 2.15-1.5l1.55-0.5-0.05 0.8v1.15m0.05 0.05v-0.05l0.1-0.3 0.85-1.55 0.25-0.2 0.2-0.1q0.1-0.25 0.5 0.85l0.5 1.2 0.05-0.4 0.05-0.7v0.05l0.15 0.7 0.25 1.15q0.05 0.35 0.25-0.65l0.1-1.4v-0.65q0.15 0.75 0.7 1.65 0.4 0.65 0.4 1.3l0.2-1.35q-0.05-1.9-0.6-2.4l1.35 0.6 1.5 0.75q-0.15-0.7-1.1-1.4-1-0.75-1.6-0.7l2.4-0.2m-2.15-6.9q0.35 0.3-0.1 3.05-0.5 3-2.2 3.65v1m-3.95 0.3-0.15 0.05-0.55 0.35-0.35 0.3 1.55-0.2m1.4 2.2-0.05 0.3v-0.35m-5.6-9.65q1.25 2.75 3.65 4.45l2.4 1.5 0.55 0.35m5.55-0.5v0.1m-6.55-9.2q1.9 4.8 1.05 8.9" fill="none" stroke="#000" stroke-linecap="round" stroke-linejoin="round" stroke-opacity=".24314" stroke-width=".05"/>
<path d="m-11.75 2 0.2-0.05 1.35-0.3q1.25 0 2.1 1.5l-0.05 0.1q-0.9-0.95-2.55-0.2l-1.05-1.05" fill="#cb8a2c" fill-rule="evenodd"/>
<path d="m-11.75 2 1.05 1.05-0.3 0.1-0.95 0.2q-0.6 0.25-1.05 0.85l0.9 0.6 0.2 0.15 0.65 0.35-0.4 0.6q-0.45 0.45-0.45 1.05l-0.2-0.65q-0.25-0.7-0.6-0.8l-0.45-0.15 0.35-0.15 0.85-0.4q-1.5-0.55-2.05-1.25l0.05-0.15 0.6-0.75 0.3-0.1 0.6-0.15 0.3-0.1v-0.05l-0.15-0.5-0.25-0.45 0.05-0.1v0.05l0.35 0.4 0.35 0.5 0.25-0.15" fill="#efd6b1" fill-rule="evenodd"/>
<path d="m-10.7 3.05q1.65-0.75 2.55 0.2l0.25 0.3 0.3 0.7 0.2 0.7q0.25 0.75-0.2 1.3l-1.3 0.75q-0.2-0.5-0.55-0.55 0.45 0.85 0.3 0.95-1.15 0.6-1.7 0.4l-0.8-0.2-0.45-0.6v-0.05q0-0.6 0.45-1.05l0.4-0.6-0.65-0.35-0.2-0.15-0.9-0.6q0.45-0.6 1.05-0.85l0.95-0.2 0.3-0.1" fill="#76502c" fill-rule="evenodd"/>
<path d="m-13.35 5.35-0.6-0.1q-0.45-0.15-0.35-0.9l0.1-0.8q0.55 0.7 2.05 1.25l-0.85 0.4-0.35 0.15" fill="#daa250" fill-rule="evenodd"/>
<path d="m-8.1 3.15q-0.85-1.5-2.1-1.5l-1.35 0.3-0.2 0.05 1.05 1.05q1.65-0.75 2.55 0.2l0.25 0.3 0.3 0.7 0.2 0.7q0.25 0.75-0.2 1.3l-1.3 0.75q-0.2-0.5-0.55-0.55 0.45 0.85 0.3 0.95-1.15 0.6-1.7 0.4l-0.8-0.2-0.45-0.6v-0.05l-0.2-0.65q-0.25-0.7-0.6-0.8l-0.45-0.15-0.6-0.1q-0.45-0.15-0.35-0.9l0.1-0.8 0.05-0.15 0.6-0.75 0.3-0.1 0.6-0.15 0.3-0.1v-0.05l-0.15-0.5-0.25-0.45-0.05-0.15 0.1 0.05v0.05l0.35 0.4 0.35 0.5 0.25-0.15m3.65 1.15 0.2 0.4m-4.2 3.4q0-0.6 0.45-1.05l0.4-0.6-0.65-0.35-0.2-0.15-0.9-0.6q0.45-0.6 1.05-0.85l0.95-0.2 0.3-0.1" fill="none" stroke="#000" stroke-linecap="round" stroke-linejoin="round" stroke-opacity=".24314" stroke-width=".05"/>
<path d="m6 5.9-1 0.35 0.25-3.25v-0.05l2.55 2.35-1.3 0.45-0.6-0.9v0.4l0.1 0.5v0.15m4.85-2-0.55-0.55v0.15l0.1 0.6v0.05l-0.85 0.35-0.3-1.3q2.5-1.4 3.8-2.6 0.55 0.75 0.75 1.7l-1.4 0.8-0.1 0.05-0.75-0.6v0.25l0.2 0.65-0.9 0.45" fill="#feb367" fill-rule="evenodd"/>
<path d="m6.5 5.75-0.5 0.15v-0.15l-0.1-0.5v-0.4l0.6 0.9m3.9-1.6v-0.05l-0.1-0.6v-0.15l0.55 0.55-0.45 0.25m1.35-0.7-0.2-0.65v-0.25l0.75 0.6-0.55 0.3" fill="#fc9" fill-rule="evenodd"/>
<path d="m3.8 5.05 0.1 1.25-1.4 0.4-0.3-1.1q0.85 0 1.55-0.55h0.05" fill="#eb7e36" fill-rule="evenodd"/>
<path d="m-1.05-4.55 0.15 1.25 0.3-1.4h0.05l0.1 1.5 0.25 0.85-0.15 0.15q-0.55 0.6-0.45 1.4l0.25 0.75 0.05 0.85 0.2 1.25-1.3-0.75q-1.35-1.05-1.5-2.55v-0.45l0.55 0.7 1.3-3.45 0.2-0.1" fill="#feb367" fill-rule="evenodd"/>
<path d="m-1.25-4.45-1.3 3.45-0.55-0.7 0.05-0.55q0.15-0.9 0.85-1.55l0.95-0.65m1.05 2.1-0.25-0.85-0.1-1.5 1.25-0.15h0.3l0.65 1.6q-1.25 0.35-1.85 0.9m2.45 1.1q0.1 0.7-0.85 0.7-1.2 0-1.3-0.7l0.45-0.55 0.45-0.2q1.15 0 1.25 0.75m-1.4 1.9h0.05l2-0.2 0.75 1.45q-0.75 0.4-1.7 0.45l-1.1-1.7" fill="#fc9" fill-rule="evenodd"/>
<path d="m-0.6-4.7-0.3 1.4-0.15-1.25 0.45-0.15m0.3 6.75-0.2-1.25-0.05-0.85q0.4 0.6 1.4 0.7l1.1 1.7h-0.35l-1.9-0.3" fill="#eb7e36" fill-rule="evenodd"/>
</g>
</defs>
</svg>
