<?xml version="1.0" encoding="UTF-8"?>
<svg version="1.1" viewBox="0 0 52.7 57.35" xmlns="http://www.w3.org/2000/svg" xmlns:cc="http://creativecommons.org/ns#" xmlns:dc="http://purl.org/dc/elements/1.1/" xmlns:rdf="http://www.w3.org/1999/02/22-rdf-syntax-ns#" xmlns:xlink="http://www.w3.org/1999/xlink">
<metadata>
<rdf:RDF>
<cc:Work rdf:about="">
<dc:format>image/svg+xml</dc:format>
<dc:type rdf:resource="http://purl.org/dc/dcmitype/StillImage"/>
</cc:Work>
</rdf:RDF>
</metadata>
<g transform="translate(-165,-168.05)">
<use transform="translate(165,168.05)" width="52.700001" height="57.349998" xlink:href="#a"/>
</g>
<defs>
<g id="a" transform="translate(26.35,28.65)">
<use transform="translate(-26.35,-28.65)" width="52.700001" height="57.349998" xlink:href="#b"/>
</g>
<g id="b" transform="translate(26.35,28.65)">
<path d="m-10-26.4 0.15-0.05 0.95-0.15 0.6-0.1 0.85-0.15 1.95-0.3 1.9-0.2 1.8-0.05 1.05 0.05 1 0.05 0.35 0.05 1.8 0.35 0.45 0.05 1.05 0.35q0.7 0.3 1.45 0.55l0.25 0.05 0.55 0.25h0.1l0.55 0.1 1.1 0.55 0.15 0.4q-4 4.85-10.1 5.65-5.7 0.6-11.45-0.9-1.65-0.55-4.6-2 3.4-3.4 8.1-4.55m5.45 1.3 0.1 0.05 1.4 0.2 0.1 0.05h0.1l0.1-0.05 1.35 0.3 0.2 0.15-0.2 0.2q-3.5 1.7-7.45 1.45l-0.85-0.4q0.2-0.65 0.8-0.9 2.05-1 4.15-1.05h0.2m-3.9 4.2h3.9l3.2-0.45 3.25-0.9q1.75-0.65 3-1.65l0.5-0.7-0.3-0.35-1.45-0.75-2.7-0.85q-2.75-0.4-5.7-0.1-5.2 0.65-9.4 3.55l-0.2 0.1h-0.1l0.15 0.25 1.75 0.8 0.65 0.25 0.9 0.25 0.5 0.15 0.45 0.1 0.3 0.1 0.65 0.05 0.3 0.05 0.25 0.05 0.05 0.05h0.05m18.7-3.5q5.55 17.75 14.4 33.9l1.45 5.25-2.15 2.3-2.35-7.15-9.6-21.8-3.15-10.7 1.4-1.8m-10.8 51.65-4.35 1.2-3.3-14.7-0.15-1.05-3.85-29.65 4.85 0.1 6.8 44.1m-24.85-13.45 0.05-0.15 4.5-12.9v-8.95l1.7 1.05-0.1 10.95 1.55-4.05 2.95 3q1.25 2.15 2.25 5.2v11.4q-0.9 7.4-4 7.2l-8.9-12.75m5.95-23.4-1.2-1.65 0.8-8.2 3.6 1.15-2.15 10.2-1.05-1.5m5.15-16.55v-0.05 0.05m-6.35 37.3v6.8q2.2 3.95 5.45 4.55l1.5-9.3q-1.45-6.2-2.95-5.95l-0.75 5.1 1.45-1.2v5.45l-1.65 1.4q-2.65-1.25-3.05-6.85v-3.65l1.4-3.7-1.4 3.7v3.65m3.15 1.8 0.1-0.6-0.1 0.6" fill="#dec067" fill-rule="evenodd"/>
<path d="m6.8-25.55-0.55-0.1h-0.1l-0.55-0.25-0.25-0.05q-0.75-0.25-1.45-0.55l-1.05-0.35-0.45-0.05-1.8-0.35-0.35-0.05-1-0.05-1.05-0.05-1.8 0.05-1.9 0.2-1.95 0.3-0.85 0.15-0.6 0.1-0.95 0.15-0.15 0.05q-4.7 1.15-8.1 4.55 2.95 1.45 4.6 2 5.75 1.5 11.45 0.9 6.1-0.8 10.1-5.65l-0.15-0.4-1.1-0.55m-9.55 0.7-0.1 0.05h-0.1l-0.1-0.05-1.4-0.2-0.1-0.05h-0.2q-2.1 0.05-4.15 1.05-0.6 0.25-0.8 0.9l0.85 0.4q3.95 0.25 7.45-1.45l0.2-0.2-0.2-0.15-1.35-0.3m-11.4 1.75q4.2-2.9 9.4-3.55 2.95-0.3 5.7 0.1l2.7 0.85 1.45 0.75 0.3 0.35-0.5 0.7q-1.25 1-3 1.65l-3.25 0.9-3.2 0.45h-3.95l-0.05-0.05-0.25-0.05-0.3-0.05-0.65-0.05-0.3-0.1-0.45-0.1-0.5-0.15-0.9-0.25-0.65-0.25-1.75-0.8-0.15-0.25h0.1l0.2-0.1m23.6-3.9 0.8 2.6-1.4 1.8-3 3.95-3.65 0.4h-7.05 7.05l10.1 23.95 5.6 18.85-5.6 3.35-11.25-30.85-5.9-15.3v1.45l-2.5-0.05-4.85-0.1-4.05-1.35-3.6-1.15 0.5-2.8q1.65-2 5.05-3.9v-0.05l8.15-2 7.5-0.2 8.1 1.4" fill="#e2c97a" fill-rule="evenodd"/>
<path d="m20.45 19.5 0.85 3-3.4 2.05-5.6-18.85-10.1-23.95 3.65-0.4 9.15 19.9 0.2 0.55 0.1 0.35 5.15 17.35m-17.4 4.3 0.45 2.35-4.05 1.1-6.8-44.1 2.5 0.05 7.9 40.6m-10.45 4.65h-3.4l-0.9-1.9 1.55-1.85v-6.5q-0.9-5.95-2.35-10.25-1-3.05-2.25-5.2l-2.95-3-1.55 4.05 0.1-10.95 2.7 1.7-1.95-2.65 2.15-10.2 4.05 1.35 3.85 29.65-0.1 0.05 0.1 1 0.95 14.7m-8.65-1.2-2.5-1.1-7.55-4.45v-2.95l5.05 3.45-2.5-3.45-2.1-4.3 0.25-0.65 8.9 12.75 0.45 0.7m-1.35-14.9 0.75-5.1q1.5-0.25 2.95 5.95l-1.5 9.3q-3.25-0.6-5.45-4.55v-6.8q0.4 5.6 3.05 6.85l1.65-1.4v-5.45l-1.45 1.2" fill="#cdb465" fill-rule="evenodd"/>
<path d="m21.95 19.2-1.5 0.3-5.15-17.35 0.05-0.05 6.6 17.1m-9.9 8.85-4.15-3.35-6.85-27.65 11.25 30.85q-0.15 0.05-0.25 0.15m-16.95 0.4h-2.5l-0.95-14.7h0.15l3.3 14.7m-6.8-1.9-1.6 1.9-2.2-0.95-0.55-0.25-0.45-0.7q3.1 0.2 4-7.2v-11.4q1.45 4.3 2.35 10.25v6.5l-1.55 1.85m-14.4-7.8h2.55l2.5 3.45-5.05-3.45m5.25-26.95 1.4-1.4 1.05 1.5 1.95 2.65-2.7-1.7-1.7-1.05" fill="#816b29" fill-rule="evenodd"/>
<path d="m23.95 17.05-2 2.15-6.6-17.1-0.3-0.75-0.05-0.1-9.15-19.9 3-3.95 3.15 10.7 9.6 21.8 2.35 7.15m-16.05 7.65-4.85-0.9-7.9-40.6v-1.45l5.9 15.3 6.85 27.65" fill="#c0a03f" fill-rule="evenodd"/>
<path d="m6.8-25.55 1.1 0.55 0.15 0.4q-4 4.85-10.1 5.65-5.7 0.6-11.45-0.9-1.65-0.55-4.6-2 3.4-3.4 8.1-4.55m5.45 1.3h-0.2q-2.1 0.05-4.15 1.05-0.6 0.25-0.8 0.9l0.85 0.4q3.95 0.25 7.45-1.45l0.2-0.2-0.2-0.15-1.35-0.3m-5.7 3.95h3.9l3.2-0.45 3.25-0.9q1.75-0.65 3-1.65l0.5-0.7-0.3-0.35-1.45-0.75-2.7-0.85q-2.75-0.4-5.7-0.1-5.2 0.65-9.4 3.55m-5.1 26.9 1.55-4.05 2.95 3q1.25 2.15 2.25 5.2m13.55-10.9 11.25 30.85m2.7-26.65-9.15-19.9m9.5 20.75 6.6 17.1m-42.6-8.05v6.8q2.2 3.95 5.45 4.55l1.5-9.3q-1.45-6.2-2.95-5.95l-0.75 5.1m-3.25-1.2v-3.65l1.4-3.7m22.3 20-7.9-40.6" fill="none" stroke="#eedfb2" stroke-linecap="round" stroke-linejoin="round" stroke-width=".05"/>
<path d="m9.45-27 0.8 2.6q5.55 17.75 14.4 33.9l1.45 5.25-2.15 2.3-2 2.15-1.5 0.3 0.85 3-3.4 2.05-5.6 3.35 0.2 0.55-0.45-0.4-4.15-3.35-4.85-0.9 0.45 2.35-4.05 1.1-4.35 1.2h-5.9l-0.9-1.9-1.6 1.9-2.2-0.95m-0.55-0.25-2.5-1.1-7.55-4.45v-2.95h2.55l-2.1-4.3 0.25-0.65m0.05-0.15 4.5-12.9v-8.95l1.4-1.4-1.2-1.65 0.8-8.2 0.5-2.8m5.05-3.9v-0.05m-4.1 18.1 1.95 2.65-2.7-1.7-1.7-1.05m8.35 16.15q1.45 4.3 2.35 10.25v6.5l-1.55 1.85m-6.7-34.65-1.05-1.5m14.6-8.65 5.9 15.3 6.85 27.65m4.4 3.2q-0.15 0.05-0.25 0.15m3.15-26.25-0.15-0.45-0.05-0.1 0.2 0.55 0.1 0.35m0.05-0.05-0.3-0.75m5.4 18.15-5.15-17.35m-23.65 10.55 0.15 1.05 3.3 14.7m-3.45-15.75-3.85-29.65m3.75 29.7 0.1 1m0.15 0-0.25-1m-8.95-0.4-0.1 0.6m-8.6 5.8 5.05 3.45-2.5-3.45m16.15 9.7-0.95-14.7" fill="none" stroke="#000" stroke-linecap="round" stroke-linejoin="round" stroke-opacity=".4" stroke-width=".05"/>
<path d="m-19.35-22.25q1.65-2 5.05-3.9m0-0.05 8.15-2 7.5-0.2 8.1 1.4m-23.75 0.8v0.05m-1.95 7.85 4.05 1.35 4.85 0.1 2.5 0.05v-1.45h7.05l3.65-0.4 3-3.95 1.4-1.8m-30.1 4.95 3.6 1.15" fill="none" stroke="#000" stroke-linecap="round" stroke-linejoin="round" stroke-opacity=".4" stroke-width=".05"/>
<path d="m10.25-24.4q5.55 17.75 14.4 33.9l1.45 5.25-4.15 4.45-1.5 0.3 0.85 3q-4.65 2.75-9.25 5.55l-4.15-3.35-4.85-0.9 0.45 2.35-8.4 2.3h-5.9l-0.9-1.9-1.6 1.9-5.25-2.3-7.55-4.45v-2.95h2.55l-2.1-4.3 4.8-13.7v-8.95l1.4-1.4-1.2-1.65 1.3-11q1.65-2 5.05-3.9v-0.05l8.15-2 7.5-0.2 8.1 1.4z" fill="none" stroke="#000" stroke-linecap="round" stroke-linejoin="round" stroke-opacity=".4" stroke-width=".5"/>
</g>
</defs>
</svg>
