<?xml version="1.0" encoding="UTF-8"?>
<svg width="131px" height="128px" version="1.1" viewBox="299.39 124 130.58 128.14" xmlns="http://www.w3.org/2000/svg" xmlns:xlink="http://www.w3.org/1999/xlink">
<defs>
<g id="j">
<path d="m0.85 2.55-0.05 4.55q0.45 0.65 1.2 3l0.1 0.2-0.5 1.35-0.15-0.2q-0.2-0.05-1.25 0.7l-0.15 0.1 0.05-0.3 0.05-0.55 0.25-1.3 0.4-3-0.4 3-0.25 1.3-0.05 0.55-0.05 0.3-0.2 0.15 0.25-0.45-0.25 0.45-1.2 1.5-0.7-3.5q2.05-6.35 2.9-7.85" fill="#444b01"/>
<path d="m0.85 2.55-0.05-0.3-0.45-2.25 0.45 2.25 0.05 0.3q-0.85 1.5-2.9 7.85-1.05-5.4-0.8-6.85 0.3-1.9 1-3l0.1-0.15 2.1-0.4 1.55-0.3q1.5 3.3 0.85 7.55l-0.65 3.05-0.1-0.2q-0.75-2.35-1.2-3l0.05-4.55" fill="#353a01"/>
<path d="m0.05 12.25 0.15-0.1q1.05-0.75 1.25-0.7l0.15 0.2-0.15 0.35-0.85 1.55-1.2 1.55 0.65-2.85-0.65 2.85-0.25 0.25h-0.15l-0.2-0.8-0.15-0.65 1.2-1.5-1.05 2.15 1.05-2.15 0.2-0.15" fill="#6f7d01"/>
<path d="m2.1 10.3 0.65-3.05q0.65-4.25-0.85-7.55l-1.55 0.3-2.1 0.4-0.1 0.15q-0.7 1.1-1 3-0.25 1.45 0.8 6.85m3.65 1.25 0.5-1.35m-2.7 4.8 1.2-1.55 0.85-1.55 0.15-0.35m-2.2 3.45-0.25 0.25h-0.15l-0.2-0.8-0.15-0.65-0.7-3.5" fill="none" stroke="#000" stroke-opacity=".4" stroke-width=".5"/>
<path d="m0.35 0 0.45 2.25 0.05 0.3-0.05 4.55q0.45 0.65 1.2 3l0.1 0.2m-4.15 0.1q2.05-6.35 2.9-7.85m-0.05 4.55-0.4 3-0.25 1.3-0.05 0.55-0.05 0.3-0.65 2.85m0.7-3.15-0.25 0.45m-1.05 2.15 1.05-2.15" fill="none" stroke="#000" stroke-opacity=".2" stroke-width=".5"/>
</g>
<g id="h">
<use xlink:href="#j"/>
</g>
<g id="g">
<path d="m-6 13.35v-0.05h0.05l-0.05 0.05" fill="#3d4301"/>
<path d="m-6 13.3q-0.9-1.1-1.05-3l-0.05-2.3 0.3-1.7q0.35-1.45 1.25-2.9 1.15-2 3.65-3.7l1.2 0.1 1.05 0.1q-0.05 4-0.35 5-0.3 1.1-1.1 2.45l-1.35 1.85-1.2 0.95-1.8 1.9q-0.5 0.7-0.5 1.25h-0.05m0.25-4.4-0.25 0.8-0.2 1.15 0.25 2.45-0.25-2.45 0.2-1.15 0.25-0.8q0.65-1.9 2.3-4.7-1.65 2.8-2.3 4.7l0.05 0.75 0.25 2.4-0.25-2.4-0.05-0.75m-1.05-2.6q1.7-1.35 3.35-2.1-1.65 0.75-3.35 2.1m3.35-2.1 1.45-2.3 0.9 5.45-0.9-5.45-1.45 2.3m1.45-2.3 1.3-2.1-1.3 2.1" fill="#2e3201"/>
<path d="m-6 13.3q-0.9-1.1-1.05-3l-0.05-2.3 0.3-1.7q0.35-1.45 1.25-2.9 1.15-2 3.65-3.7l1.2 0.1 1.05 0.1q-0.05 4-0.35 5-0.3 1.1-1.1 2.45l-1.35 1.85-1.2 0.95-1.8 1.9q-0.5 0.7-0.5 1.25m0.05 0.1-0.1-0.05v-0.05" fill="none" stroke="#000" stroke-opacity=".4" stroke-width=".5"/>
<path d="m-5.95 13.3 0.05 0.1m-0.05-0.1-0.25-2.45 0.2-1.15 0.25-0.8q0.65-1.9 2.3-4.7-1.65 0.75-3.35 2.1m5.7 1.05-0.9-5.45-1.45 2.3m-2.3 4.7 0.05 0.75 0.25 2.4m4.75-12.25-1.3 2.1" fill="none" stroke="#000" stroke-opacity=".2" stroke-width=".5"/>
</g>
<g id="f">
<use xlink:href="#g"/>
</g>
<g id="e">
<path d="m29.55-4.15q10.5 13.85 16.85 34.7-22.9-4.35-32.7-14.9-2.45-13.35-8.55-26.75 10.55-1.6 24.4 6.95" fill="#925518"/>
<path d="m11.75-20.9q10.05 6.45 17.8 16.75-13.85-8.55-24.4-6.95l-3-3.7q3.85-6.55 9.6-6.1" fill="#663c11"/>
<path d="m-0.95-5.2q-1.65 8.15-1.3 17.9l-14.7-6.1-11.75-1.35-4.8-1.35q-1.35-7.2 1.05-12.55-3.05 4-4.25 11.65l-9.75-2.75q0.35-10.35 4.25-17.5 17.95 10.1 41.25 12.05" fill="#ce942a"/>
<path d="m-0.95-5.2q-23.3-1.95-41.25-12.05 5.15-9.5 16.6-13.25 17.8 2.45 37.35 9.6-5.75-0.45-9.6 6.1-1.85 3.25-3.1 9.6" fill="#f2e05d"/>
<path d="m-42.2-17.25q-3.9 7.15-4.25 17.5l9.75 2.75q1.2-7.65 4.25-11.65-2.4 5.35-1.05 12.55l4.8 1.35 11.75 1.35 14.7 6.1q-0.35-9.75 1.3-17.9m-41.25-12.05q5.15-9.5 16.6-13.25 17.8 2.45 37.35 9.6 10.05 6.45 17.8 16.75 10.5 13.85 16.85 34.7-22.9-4.35-32.7-14.9-2.45-13.35-8.55-26.75l-3-3.7q-1.85 3.25-3.1 9.6m12.7-15.7q-5.75-0.45-9.6 6.1" fill="none" stroke="#000" stroke-opacity=".4" stroke-width=".5"/>
</g>
<g id="d">
<use xlink:href="#e"/>
</g>
<g id="c">
<path d="m-0.4 0.15 1.05 0.1-0.5 5.05q-0.35 1.1-1.25 2.35l-0.7-5.5 1.4-2m-6.1 9.9 0.45-0.15 0.25-0.8v0.7l-0.25 0.1-0.25 1.1 0.05 0.6-0.2 0.4-0.1-1.15 0.05-0.8" fill="#3d4301"/>
<path d="m-6.55 5.85 1.15-2.25q1.2-2 3.8-3.6l1.2 0.15-1.4 2-1.5 2.3q-1.2 0.5-2.5 1.3l0.2-0.7-0.05-0.15-0.9 0.95" fill="#353a01"/>
<path d="m-1.1 7.65-0.45 0.7-0.05-1.45q-1 0.45-1.5 2.15-0.35-0.1-0.5-1.9l-1 2.7-0.4 1.7-0.25 0.3-0.1-1.6-0.35 0.5-0.1-0.95 0.1 0.95-0.55 0.85-0.05-0.6 0.25-1.1 0.25-0.1v-0.7l-0.25 0.8-0.45 0.15 0.1-1.5 0.6-2.8q1.3-0.8 2.5-1.3l1.5-2.3 0.7 5.5m-2.2-3.2q-1.75 2.75-2.5 4.65 0.75-1.9 2.5-4.65" fill="#444b01"/>
<path d="m-1.55 8.35-0.95 1.1-1.2 0.95-1.3 1.15 0.4-1.7 1-2.7q0.15 1.8 0.5 1.9 0.5-1.7 1.5-2.15l0.05 1.45m-3.7 3.5-0.3 0.35q-0.55 0.7-0.55 1.25l-0.15-1.85 0.55-0.85 0.35-0.5 0.1 1.6m-0.3 0.35-0.15-1.45 0.15 1.45" fill="#725816"/>
<path d="m-6.15 13.5q-0.9-1.15-1-3.05l0.05-2.3 0.35-1.7 0.2-0.6 0.9-0.95 0.05 0.15-0.2 0.7-0.6 2.8-0.1 1.5-0.05 0.8 0.1 1.15 0.2-0.4 0.15 1.85-0.05 0.05m-0.6-7.05 0.95-0.7-0.95 0.7" fill="#5c4512"/>
<path d="m-6.55 5.85 1.15-2.25q1.2-2 3.8-3.6l1.2 0.15 1.05 0.1-0.5 5.05q-0.35 1.1-1.25 2.35l-0.45 0.7-0.95 1.1-1.2 0.95-1.3 1.15-0.25 0.3-0.3 0.35q-0.55 0.7-0.55 1.25m0 0.1-0.05-0.05q-0.9-1.15-1-3.05l0.05-2.3 0.35-1.7 0.2-0.6" fill="none" stroke="#000" stroke-opacity=".4" stroke-width=".5"/>
<path d="m0.25-0.8-0.05 0.15 0.05-0.05v-0.1m-6.35 14.25v0.1m0.3-7.8q1.3-0.8 2.5-1.3l1.5-2.3 1.4-2m-5.65 9.75 0.25-0.8q0.75-1.9 2.5-4.65m-2.5 1.3-0.95 0.7m0.95 3.35 0.1 0.95 0.15 1.45m-0.7-0.6-0.05-0.6 0.25-1.1m0.25-0.1v-0.7m-0.45 2.5 0.15 1.85m4.3-11.3 0.7 5.5" fill="none" stroke="#000" stroke-opacity=".2" stroke-width=".5"/>
</g>
<g id="b">
<use xlink:href="#c"/>
</g>
<g id="a">
<path d="m17.75-5.7q-5.15-3.55-3.1-11.9-14.35-3.05-31.15 0-6.2 1-12.45 6.5 0.55-3.6 3.75-9.05 20.55-16.35 51.8-7.15 4.05 4.75 2.65 14.9-2.75 6.95-9.4 7.45l-2.1-0.75m-33.3 36.25q4.8-4.5 2.95-10.2-5.95-12.55-7.4-28.35l2.25-1.45q1.35 18.5 13.3 34.7 1.05 3.05-5.85 5.15l-5.25 0.15m42.85-51.05q0.05-6.7-4.2-4.25-3.85 2.9-5.45 10.05-1.3 5.75 2.85 6.85 2.95 0.15 5.85-4.55 1.65-2.15 0.95-8.1" fill="#f2e05d"/>
<path d="m-28.95-11.1q6.25-5.5 12.45-6.5 16.8-3.05 31.15 0-2.05 8.35 3.1 11.9-19.6-6.9-35.5-3.75l-2.25 1.45q1.45 15.8 7.4 28.35 1.85 5.7-2.95 10.2-5.8-0.35-8.4-3.05-7.6-20.7-5-38.6m6.65 4.55 2.3-1.45-2.3 1.45" fill="#ce942a"/>
<path d="m27.3-20.5q0.7 5.95-0.95 8.1-2.9 4.7-5.85 4.55-4.15-1.1-2.85-6.85 1.6-7.15 5.45-10.05 4.25-2.45 4.2 4.25" fill="#663c11"/>
<path d="m-28.95-11.1q-2.6 17.9 5 38.6m3.95-35.5-2.3 1.45m-6.65-4.55q0.55-3.6 3.75-9.05 20.55-16.35 51.8-7.15 4.05 4.75 2.65 14.9-2.75 6.95-9.4 7.45l-2.1-0.75q-19.6-6.9-35.5-3.75 1.35 18.5 13.3 34.7m-13.3-34.7-2.25 1.45" fill="none" stroke="#000" stroke-opacity=".4" stroke-width=".5"/>
</g>
<g id="i">
<use xlink:href="#a"/>
</g>
</defs>
<use transform="matrix(-2.9843 -2.9843 2.0414 -2.0414 395.65 237.7)" xlink:href="#h"/>
<use transform="matrix(1.0923 4.0767 -4.2397 .48392 401.95 240.75)" xlink:href="#f"/>
<use transform="translate(359.45 207.6)" xlink:href="#d"/>
<use transform="matrix(2.9843 2.9843 -3.3808 2.5879 399.2 235.15)" xlink:href="#b"/>
<use transform="matrix(-1.0051 0 0 1 330.2 160.5)" xlink:href="#i"/>
</svg>
