<?xml version="1.0" encoding="UTF-8"?>
<svg version="1.1" viewBox="0 0 52.45 46.175" xmlns="http://www.w3.org/2000/svg" xmlns:cc="http://creativecommons.org/ns#" xmlns:dc="http://purl.org/dc/elements/1.1/" xmlns:rdf="http://www.w3.org/1999/02/22-rdf-syntax-ns#" xmlns:xlink="http://www.w3.org/1999/xlink">
<metadata>
<rdf:RDF>
<cc:Work rdf:about="">
<dc:format>image/svg+xml</dc:format>
<dc:type rdf:resource="http://purl.org/dc/dcmitype/StillImage"/>
</cc:Work>
</rdf:RDF>
</metadata>
<g transform="translate(-249.25 -177.38)">
<use transform="translate(249.25,177.4)" width="52.450001" height="46.150002" xlink:href="#a"/>
</g>
<defs>
<g id="a" transform="translate(26.2,23.05)">
<path d="m-0.05-6.2-0.05-0.45q4-0.65 8.25 1.6l2.05 1 0.5 0.6 1.05 1.2-7.35-2.85-3.65-0.35 0.9-0.75h-1.7l-1.75 1.1-5.05 1.4 3.65-2.05 3.1-0.9 0.05 0.45m14.85-5.55h0.1l1.45 9.85v0.2l0.05 0.05v6.45l2.3 1.7 3.1 2.25-0.1-0.05 0.15 0.1-3.25-0.4-2.8-1.7-0.65 1.35-2.7-0.3 0.3-1.45 0.4-1.9 0.3-3.7 1.6 3.1 0.55 0.4 0.55-6-1.35-9.95m0.8 15.95 0.8 0.6-0.8-0.6m-34.5 1 1.3-0.45 1.65-0.9 2.6-1.4 3.25-3.65-0.55 1.85-1.4 4.9-1.75-0.4 1.05-1.15-1.2-0.4-2.7 1.35-2.25 0.25" fill="#591341" fill-rule="evenodd"/>
<path d="m-0.1-6.65 0.05 0.45-0.05-0.45m21.95 15.45-0.15-0.1 0.1 0.05 0.05 0.05-0.05-0.05h0.05v0.05" fill="#72cfcf" fill-rule="evenodd"/>
<path d="m-0.05-6.2h1.7l-0.9 0.75-3.2 2.35-0.25 0.4-1.95-0.6 2.85-1.8 1.75-1.1m11.8 3.95-1.05-1.2 1.5-2.8-0.1-6.4-0.2-0.4 0.1-0.15-1.55-3.65 2.6 4.5 0.6 7.5v0.05l-1.05 3.9-0.45-0.9-0.4-0.45m6.85 10.65 3.6 2.15-0.15 0.55-7.15-2.5 0.25-0.55 0.65-1.35 2.8 1.7m-16.75-3.55 1.65 1.1-6.45-0.6 1.35-0.9-1.6-1.65 7.6 0.85 0.05 0.4-2.6 0.8m-15.65 0.3-0.1 0.7-0.15-0.2-8.4 3.3 0.75-1.45 5.05-2.55 2.7-1.35 1.2 0.4-1.05 1.15" fill="#fbeaf5" fill-rule="evenodd"/>
<path d="m0.75-5.45 3.65 0.35 7.35 2.85 0.4 0.45 0.45 0.9 0.8 1.55 0.05 0.05-0.3 3.7-0.4 1.9-0.3 1.45 2.7 0.3-0.25 0.55 7.15 2.5 0.15-0.55-3.6-2.15 3.25 0.4v-0.05l3.8 2.15 0.05 3.95-0.05 0.1-3.45 0.7-11-2.4-9.45 0.35-0.1 0.3-0.75-0.65-0.1-0.3-0.8-2.45-1 2.05-0.2 0.45-0.7 0.4-0.4 0.25-6.3-2.2-13.5 0.2-3.15-1.05-0.05-0.05 0.8-1.85 1.1-1.35 3.3-1.75 1.2-0.4 2.25-0.25-5.05 2.55-0.75 1.45 8.4-3.3 0.15 0.2 0.1-0.7 1.75 0.4 1.4-4.9 0.55-1.85 1.2-1.35 2.05-1.15 5.05-1.4-2.85 1.8 1.95 0.6 0.25-0.4 3.2-2.35m8.8 7.7 1.45 1.95-1.25 1.85 1.25-1.85-1.45-1.95m2.95-0.4-1.5 2.35 1.75 2.1-1.75-2.1 1.5-2.35m-10.65 3 2.6-0.8-0.05-0.4-7.6-0.85 1.6 1.65-1.35 0.9 6.45 0.6-1.65-1.1m-9.45 0.1-1.5-2.3-1.55-2 1.55 2 1.45-2.05-1.45 2.05 1.5 2.3m-1.5-2.3-1.45 1.95 1.45-1.95" fill="#f1c2e1" fill-rule="evenodd"/>
<path d="m14.8-11.75 0.05-0.05 0.05 0.05h-0.1m1.6 10.1-0.05-0.05v-0.2l0.05 0.25m-18.7 15.35v-0.05l0.4-0.15-0.4 0.2" fill="#2d8282" fill-rule="evenodd"/>
<path d="m10.7-3.45-0.5-0.6 1.6-2.3 0.05-6.2-2.25-5.15-4.5-5.35q2.4 1.2 4.75 2.45l5 8.8-0.05 0.05 1.35 9.95-0.55 6-0.55-0.4-1.6-3.1-0.05-0.05-0.8-1.55 1.05-3.9v-0.05l-0.6-7.5-2.6-4.5 1.55 3.65-0.1 0.15 0.2 0.4 0.1 6.4-1.5 2.8m-9.05 17.35 0.1-0.3 9.45-0.35 11 2.4 3.45-0.7-3.6 1.5-10.95-2.4-8.55 0.7-0.2-0.15-0.9-0.7h0.2m-4.4 0-0.35 0.2-5.4-2.3-3.65 0.75-10.6-0.2-2.5-1.75 3.15 1.05 13.5-0.2 6.3 2.2v0.05l-0.45 0.2" fill="#992270" fill-rule="evenodd"/>
<path d="m-1 12.55 1-2.05 0.8 2.45-1.05-0.9-0.75 0.5" fill="#480000" fill-rule="evenodd"/>
<path d="m0.8 12.95 0.1 0.3 0.75 0.65h-0.2l-0.1 0.3-1-0.7-0.9 2.4-0.25-2.6-1.05 0.45-0.05-0.25v-0.1l0.7-0.4 0.2-0.45 0.75-0.5 1.05 0.9m4.3 8.15-0.6-3 3.85 3.25 0.05 0.05-2.95 1.7-0.35-2m6.3-2.05-1.8-1.55 3-0.15-1.2 1.7" fill="#900" fill-rule="evenodd"/>
<path d="m-1.9 13.4v0.1l-0.4 0.15 0.4-0.25" fill="#399" fill-rule="evenodd"/>
<path d="m-1.9 13.5 0.05 0.25 0.1 1.4-1-1.25 0.45-0.2 0.4-0.2m3.25 0.7 0.1-0.3 0.9 0.7-1.2 0.8 0.2-1.2" fill="#bc2989" fill-rule="evenodd"/>
<path d="m-1.85 13.75 1.05-0.45 0.25 2.6 0.9-2.4 1 0.7-0.2 1.2-0.75 2.3q-0.85 0.65-1.65-0.25l-0.5-2.2v-0.1l-0.1-1.4" fill="#f00" fill-rule="evenodd"/>
<path d="m21.8 8.75-3.1-2.25 7.55 0.55-0.15 15.65-17.75-1.35-3.85-3.25 0.6 3-31.3-2.35 0.2-15.65 10.05 0.75-1.65 0.9-1.3 0.45-1.2 0.4-3.3 1.75-1.1 1.35-0.8 1.85 0.05 0.05 2.5 1.75 10.6 0.2 3.65-0.75 5.4 2.3 0.35-0.2 1 1.25v0.1l0.5 2.2q0.8 0.9 1.65 0.25l0.75-2.3 1.2-0.8 0.2 0.15 8.55-0.7 10.95 2.4 3.6-1.5 0.05-0.1-0.05-3.95-3.8-2.15h-0.05m-10.4 10.3 1.2-1.7-3 0.15 1.8 1.55" fill="url(#b)" fill-rule="evenodd"/>
<path d="m11.75-2.25-1.05-1.2-0.5-0.6-2.05-1q-4.25-2.25-8.25-1.6m15-5.1-0.05-0.05-5-8.8q-2.35-1.25-4.75-2.45l4.5 5.35 2.25 5.15-0.05 6.2-1.6 2.3m2.4 3.15 0.8 1.55m0.05 0.05 1.6 3.1 0.55 0.4m0.8-5.85-0.05-0.25-1.45-9.85m6.8 20.45 0.1 0.05-3.1-2.25-2.3-1.7-0.8-0.6m-3-5.1-0.45-0.9-0.4-0.45m4.65 0.6v6.45m-15.6 8.15 0.1 0.3 0.75 0.65m24.05 0.95-0.05-3.95-3.8-2.15m0 0.05-0.05-0.05h0.05m-21.05 4.2-0.8-2.45-1 2.05m-0.9 0.85 0.7-0.4 0.2-0.45m2.35 1.65 0.1-0.3h0.2m-3.4 1.25-1-1.25-0.35 0.2-5.4-2.3-3.65 0.75-10.6-0.2-2.5-1.75m-0.05-0.05 0.8-1.85 1.1-1.35 3.3-1.75 1.2-0.4 1.3-0.45 1.65-0.9 2.6-1.4 3.25-3.65 1.2-1.35 2.05-1.15 3.65-2.05 3.1-0.9m-2.2 20.35 0.4-0.2-0.4 0.15 0.4-0.25m3.25 0.8-0.2 1.2 1.2-0.8-0.9-0.7m-0.3 1.5-0.75 2.3q-0.85 0.65-1.65-0.25l-0.5-2.2m27.4-0.3-3.6 1.5-10.95-2.4-8.55 0.7-0.2-0.15m-5.1-0.7 0.45-0.2" fill="none" stroke="#000" stroke-linecap="round" stroke-linejoin="round" stroke-opacity=".30196" stroke-width=".05"/>
<path d="m9.75 6.05 1.25-1.85-1.45-1.95m3.2 4.05-1.75-2.1 1.5-2.35m-23.15-1.2 1.55 2 1.45-2.05m-1.45 2.05 1.5 2.3m-2.95-0.35 1.45-1.95" fill="none" stroke="#000" stroke-linecap="round" stroke-linejoin="round"/>
<path d="m-1.9 13.5 0.05 0.25m0.1 1.4-0.1-1.4" fill="none" stroke="#000" stroke-linecap="round" stroke-linejoin="round" stroke-opacity=".56078" stroke-width=".05"/>
</g>
<radialGradient id="b" cx="0" cy="0" r="819.2" gradientTransform="matrix(.0464 .0035 -2e-4 .0132 0 12.85)" gradientUnits="userSpaceOnUse">
<stop stop-opacity=".39216" offset="0"/>
<stop stop-color="#555" stop-opacity=".59216" offset=".16863"/>
<stop stop-color="#7b7b7b" stop-opacity=".62353" offset=".47451"/>
<stop stop-color="#7b7b7b" stop-opacity="0" offset=".66667"/>
</radialGradient>
</defs>
</svg>
