<?xml version="1.0" encoding="UTF-8"?>
<svg version="1.1" viewBox="0 0 58.85 38.35" xmlns="http://www.w3.org/2000/svg" xmlns:cc="http://creativecommons.org/ns#" xmlns:dc="http://purl.org/dc/elements/1.1/" xmlns:rdf="http://www.w3.org/1999/02/22-rdf-syntax-ns#" xmlns:xlink="http://www.w3.org/1999/xlink">
<metadata>
<rdf:RDF>
<cc:Work rdf:about="">
<dc:format>image/svg+xml</dc:format>
<dc:type rdf:resource="http://purl.org/dc/dcmitype/StillImage"/>
</cc:Work>
</rdf:RDF>
</metadata>
<g transform="translate(-267.78 -195.08)">
<use transform="translate(267.8,195.1)" width="58.799999" height="38.299999" xlink:href="#a"/>
</g>
<defs>
<g id="a" transform="translate(29.4,19.15)">
<path d="m16.65-12.8 3.5 0.6 2.55 1.4 0.05 0.35-1.55 0.15 2.6 0.7h1.3l1.7 0.65 0.2 0.65-3.3 2.3 3.5-1.8 1.35 0.1 0.85 1.25-0.45 0.45-2.75 0.65 0.8 0.6-4.4 3.6-0.65 0.4-8.05 3.5 0.2 0.85-5.4 2.75-1.75 0.65-0.1 1.35-0.35 3.25h-0.15l-0.15-2.8-0.35 2.3-0.25-0.25-0.15-3.35-0.35 2.85-0.3-0.25 0.1-3.6-0.9 2.8-0.45-0.4 1.3-4.2-2.25 3.45-6.25 1.15h-0.05l-0.95-0.8-8.45 0.4 0.1 0.2-0.4 2-0.25-0.25-4.65 1.3-6.95-0.4-2.05-2.05-0.95-7.1 0.15-3 0.15-0.9 5.4-5.7 8.6-6.35 0.65-0.45 6.2-3.3 0.05-0.05 8.65-0.4 7.2 2.1 3.05 1.7-0.4 0.5 1.1-0.05 4.1 0.5m2.5 3.2-0.55-1.15q-0.55-0.5-1.3-0.5-0.8 0-1.35 0.5-0.55 0.45-0.5 1.15-0.05 0.7 0.5 1.2t1.35 0.5q0.75 0 1.3-0.5l0.55-1.2m2.05-0.7-0.5-0.1 0.5 0.1m-4.6 9-0.55-0.6 0.55 0.6m-7.15-11.85-4.45 1.4-2.35 4.6 1.35 5.15 7 3.95-4.75-3.75-1.85-4.95 1.75-4.75 3.3-1.65m6.6 11.25-2.4-2.75-1.35-3.1 0.2-1.95-1.2 2 1.25 3.9 3.5 1.9m-11 5.9-0.2 0.7 0.2-0.7m6.45-1.8-0.5-0.25 0.5 0.25m-4.45 3.85-0.1 0.95 0.1-0.95" fill="url(#c)" fill-rule="evenodd"/>
<path d="m19.15-9.6-0.55 1.2q-0.55 0.5-1.3 0.5-0.8 0-1.35-0.5t-0.5-1.2q-0.05-0.7 0.5-1.15 0.55-0.5 1.35-0.5 0.75 0 1.3 0.5l0.55 1.15m-1.9-0.35-0.2 0.1q-0.25 0.1-0.2 0.35 0.05 0.35 0.45 0.35l0.3-0.3-0.35-0.5" fill="#fff" fill-rule="evenodd"/>
<path d="m-10.9 12.45-0.45 0.45-2.35 0.15 0.65 0.55-2.8-0.15-0.9 0.3 3.05 1.4-4.95-0.7 3.55 2.4-4.35-1.25 2.5 2.4-5.05-2.15 0.85-2.35-5.15-0.8-0.35-0.5-1.9-2.8 0.3-6.8 0.95 7.1 2.05 2.05 6.95 0.4 4.65-1.3 0.25 0.25 0.4-2 0.65 1.95 0.05 0.1v0.05l1.2 1.1 0.1 0.1 0.1 0.05m28.15-22.4 0.35 0.5-0.3 0.3q-0.4 0-0.45-0.35-0.05-0.25 0.2-0.35l0.2-0.1m-38.4 23.45 3.45 0.55 0.95-0.3-0.95 0.3-3.45-0.55m5.3-0.05 3.25-1 1.5-0.15-1.5 0.15-3.25 1" fill="#383243" fill-rule="evenodd"/>
<path d="m22.7-10.8 1.65 0.95 0.75 0.25h-1.3l-2.6-0.7 1.55-0.15-0.05-0.35m4.3 2.5 0.2 0.5-3.5 1.8 3.3-2.3m1.95 2.3-1.35 1.25-5 3.6 4.4-3.6-0.8-0.6 2.75-0.65m-7 5.25-7.75 5 0.8 0.65v0.95l-1.35-0.55 1 1.35-0.25 0.35-1.9-0.85 1.3 1.8-0.45 0.7-2.05-1.85 1.25 3.5-0.45 1.1-1-0.75-0.65-3.95-1.3 0.85-2.1 0.7-0.2 0.1 0.1-1.35 1.75-0.65 5.4-2.75-0.2-0.85 8.05-3.5m-17.95 10.1-5.45 1.85-4.3 0.55-4 1.8-0.2-0.15 0.25-0.35 2.7-1.65-3.9 1.1v-0.05l-0.1-0.05 4-1.85-5.3 0.6-0.05-0.1 4.25-1.4-4.6 0.35-0.3-0.9-0.1-0.2 8.45-0.4 0.95 0.8h0.05l6.25-1.15 2.25-3.45-1.3 4.2 0.45 0.4v0.05m-26 6.5-0.9 2.4-1.2 0.9-1.45-0.6 2.1-2.6-2.8 2.2-0.15-1.95 2.65-1.65-2.65 1.15-0.1-1.5 2.65-0.8-2.7 0.1-0.1-1.3 0.35 0.5 5.15 0.8-0.85 2.35m-6.1-16.25-1.3-1.85 0.05-0.1 2.75-1.65-2.55 0.85 0.3-1.25 3.4-1.25-3.2 0.5v-0.05l1.2-1.1 4.3-1.3-3.25 0.3 0.85-0.75 4.1-0.85-2.85-0.25 4.7-3.4 3.6-0.15-2.45-0.6 1.15-0.8 3.35 0.75-8.6 6.35-5.4 5.7-0.15 0.9m14.8-13.4-2.75-1.65h3.6l-4.55-1.5 0.35-1 5 1.45-4.4-2.6 4.1 0.95 2.3 1.5-1.6-1.85v-0.55l4.15 1.9v0.05l-6.2 3.3m6.25-3.35 8.85-1.05 7.95 2.2 2.95 2.3 3.95 0.9-4.1-0.5-1.1 0.05 0.4-0.5-3.05-1.7-7.2-2.1-8.65 0.4m18.05 19.1-7-3.95-1.35-5.15 2.35-4.6 4.45-1.4-3.3 1.65-1.75 4.75 1.85 4.95 4.75 3.75m1.5-11.65-0.2 1.95 1.35 3.1 2.4 2.75-3.5-1.9-1.25-3.9 1.2-2m-18.25 21.45 1.65-0.75 0.95-1.25-0.5-0.45 0.5 0.45-0.95 1.25-1.65 0.75m16.2-5.05 3.75-2.45-3.75 2.45" fill="#7a6392" fill-rule="evenodd"/>
<path d="m-9.95 13.4-0.95-0.9 3.9-1.1-2.7 1.65-0.25 0.35m-15.6 5.15-0.7-0.3v-0.1l2.8-2.2-2.1 2.6m-0.85-2.35v-0.5l2.65-1.15-2.65 1.65m-0.1-2-0.05-0.7 2.7-0.1-2.65 0.8m-2.85-16.55 0.2-0.8 2.55-0.85-2.75 1.65m0.5-2.05 0.2-0.75 3.2-0.5-3.4 1.25m1.4-1.9 1.05-1 3.25-0.3-4.3 1.3m1.9-1.75 1.05-0.95 0.2-0.15 2.85 0.25-4.1 0.85m5.95-4.5 1.15-0.75 2.45 0.6-3.6 0.15m3.55-2.9-1.25-0.75 0.3-0.75 4.55 1.5h-3.6m-0.6-2.5 0.5-1.2 0.1 0.05 4.4 2.6-5-1.45m4.7-0.2 0.7 0.2v-0.55l1.6 1.85-2.3-1.5m0.85 30.45-1.2-1.1v-0.05l5.3-0.6-4 1.85-0.1-0.1m-1.25-1.25-0.35-1.05 4.6-0.35-4.25 1.4" fill="#bfbbe3" fill-rule="evenodd"/>
<path d="m6.5 11.6v0.15l-0.15-0.15h0.15m-2.45-2.3-0.05 0.05v-0.05h0.05" fill="url(#b)" fill-rule="evenodd"/>
<path d="m-7.05-17.15-0.05 0.05v-0.05h0.05" fill="#6a7965" fill-rule="evenodd"/>
<path d="m-11.35 12.9 0.45 0.3-0.75 2.1-2.3 2.55-2.45 0.4-0.55-0.25-2.5-2.4 4.35 1.25-3.55-2.4 4.95 0.7-3.05-1.4 0.9-0.3 2.8 0.15-0.65-0.55 2.35-0.15" fill="#755875" fill-rule="evenodd"/>
<path d="m-12.3 11.2v-0.05 0.05" fill="#a0b871" fill-rule="evenodd"/>
<path d="m15 5.85v0.25l-0.35 0.55-1-1.35 1.35 0.55m-0.6 1.15-0.6 0.95-1.3-1.8 1.9 0.85m-1.05 1.65-0.35 0.55-0.45 1.1-1.25-3.5 2.05 1.85" fill="#d7d5ec" fill-rule="evenodd"/>
<path d="m6.35 11.6-0.5-0.5 0.35-2.3 0.15 2.8m-0.75-0.75-0.5-0.5 0.35-2.85 0.15 3.35m-0.8-0.75-0.75-0.8h-0.05l0.9-2.8-0.1 3.6" fill="#eaeaf4" fill-rule="evenodd"/>
<path d="m16.65-12.8 3.5 0.6 2.55 1.4 1.65 0.95 0.75 0.25 1.7 0.65 0.2 0.65 0.2 0.5 1.35 0.1 0.85 1.25-0.45 0.45-1.35 1.25-5 3.6-0.65 0.4-7.75 5 0.8 0.65v1.2l-0.35 0.55-0.25 0.35-0.6 0.95-0.45 0.7-0.35 0.55-0.9 2.2-1-0.75-0.65-3.95-1.3 0.85-2.1 0.7-0.2 0.1-0.35 3.25v0.15l-1.4-1.4-0.3-0.25-0.75-0.8-0.05 0.05-5.45 1.85-4.3 0.55-4 1.8-0.2-0.15-0.95-0.9v-0.05l-0.45 0.45 0.45 0.3-0.75 2.1-2.3 2.55-2.45 0.4-0.55-0.25-5.05-2.15-0.9 2.4-1.2 0.9-1.45-0.6-0.7-0.3v-0.1l-0.15-1.95v-0.5l-0.1-1.5-0.05-0.7-0.1-1.3-1.9-2.8 0.3-6.8 0.15-3-1.3-1.85 0.05-0.1 0.2-0.8 0.3-1.25 0.2-0.75v-0.05l1.2-1.1 1.05-1 0.85-0.75 1.05-0.95 0.2-0.15 4.7-3.4 1.15-0.75 1.15-0.8 3.35 0.75 0.65-0.45-4-2.4 0.3-0.75 0.35-1 0.5-1.2 0.1 0.05 4.1 0.95 0.7 0.2v-1.1l4.15 1.9h0.05l8.85-1.05 7.95 2.2 2.95 2.3 3.95 0.9m-23.7-4.35-0.05 0.05-6.2 3.3m34.5 3.5 2.6 0.7h1.3m-4.4-0.8 0.5 0.1m2.5 4.3 3.5-1.8m-11.15 5.9 0.55 0.6m-5.6 3.25-4.75-3.75-1.85-4.95 1.75-4.75 3.3-1.65m6.6 11.25-2.4-2.75-1.35-3.1 0.2-1.95m-19.55-7.45h-0.05m-6.85 3.8-8.6 6.35-5.4 5.7-0.15 0.9m6.1 16.25 0.85-2.35-5.15-0.8-0.35-0.5m10.8 1.25-0.9 0.3-0.95 0.3-3.45-0.55m8.15-4.4-0.1-0.2 8.45-0.4 0.95 0.8m8.55-4.6 0.2-0.7m-16.15 8.3-1.2-1.1v-0.05l-0.05-0.1-0.65-1.95m2.1 3.35-0.1-0.05-0.1-0.1-1.5 0.15-3.25 1m26.85-11.5 0.5 0.25m-4.55 4.8-0.1 1.35m-2.85 0.95h0.05m-0.05 0-0.45-0.4 1.3-4.2m-8.5 4.6 0.5 0.45-0.95 1.25-1.65 0.75m19.95-7.5-3.75 2.45m-3.5 0.3 0.1-0.95" fill="none" stroke="#000" stroke-linecap="round" stroke-linejoin="round" stroke-opacity=".30196" stroke-width=".05"/>
<path d="m19.15-9.6-0.55 1.2q-0.55 0.5-1.3 0.5-0.8 0-1.35-0.5t-0.5-1.2q-0.05-0.7 0.5-1.15 0.55-0.5 1.35-0.5 0.75 0 1.3 0.5l0.55 1.15" fill="none" stroke="#000" stroke-linecap="round" stroke-linejoin="round" stroke-opacity=".55294" stroke-width=".05"/>
</g>
<linearGradient id="c" x1="-819.2" x2="819.2" gradientTransform="matrix(.022 -.0063 .0053 .0184 -9 -.25)" gradientUnits="userSpaceOnUse">
<stop stop-color="#6d4641" offset="0"/>
<stop stop-color="#8479ce" offset=".36863"/>
<stop stop-color="#d7d5ec" offset=".91373"/>
</linearGradient>
<linearGradient id="b" x1="-819.2" x2="819.2" gradientTransform="matrix(.0174 -.0046 .0049 .0185 -10.9 .05)" gradientUnits="userSpaceOnUse">
<stop stop-color="#3e465b" offset="0"/>
<stop stop-color="#bad678" offset="1"/>
</linearGradient>
</defs>
</svg>
