<?xml version="1.0" encoding="UTF-8"?>
<svg version="1.1" viewBox="0 0 47.813 40.481" xmlns="http://www.w3.org/2000/svg" xmlns:cc="http://creativecommons.org/ns#" xmlns:dc="http://purl.org/dc/elements/1.1/" xmlns:rdf="http://www.w3.org/1999/02/22-rdf-syntax-ns#" xmlns:xlink="http://www.w3.org/1999/xlink">
<metadata>
<rdf:RDF>
<cc:Work rdf:about="">
<dc:format>image/svg+xml</dc:format>
<dc:type rdf:resource="http://purl.org/dc/dcmitype/StillImage"/>
</cc:Work>
</rdf:RDF>
</metadata>
<g transform="translate(-251.14 -179.79)">
<use transform="matrix(.7088 0 0 .7088 251.15 179.8)" width="67.400002" height="57.049999" xlink:href="#a"/>
</g>
<defs>
<g id="a">
<path d="m43.1 2.25q-0.4 1.6 0.9 2.25 7.5-6.95 16.95-3.15 1.3 0.5 2.35 1.15-3.35-1-5.15-0.7l-1.45-0.3q-5.45-0.8-11.2 4.25 1.1 1.35 5.5-0.35 1.45 1.8-11.25 5.8l-2 0.65 1.5-2.3 1.05-3.35 2.8-3.95m21.7 14.9-1.5 2.15-0.15 0.15q-1.8 1.6-3.2 3.4l-1.9 1-7.35 10.3-5.95 7.5-4.45 4-1.25-1.4q0.15 2.5-2.35 4.3l-0.55-1.2q-1-1.45-3.25-2l-5.75 0.2q-1.55 0.35-2.85 0.95l-0.7 0.3q-1.85 0.85-3.2 2.25-1.65 1.7-1.9 3.2-4.5 3.5-9.1-1.9-4.65-5.45-9.35-3v-0.2q-0.25-1.7 1.3-2.8l0.7 1.15 0.1-0.05 1.9-0.3 1.4 0.15 0.1-1.2 0.1 0.05 0.35-1.35 1.2-3.35q2.1-5.2 5.6-9.2l0.9-1 0.2-0.2 2.15 0.05 0.5-2.55 0.5-0.4 1.3-1 0.8-0.6 1.5-0.95q10.5-6.3 25.6-4l7.15 1.45 4.05-0.75q2.4-0.45 4.45-2.5l2.9-0.65m-13.65 11.75 0.55-0.5-1.1-0.65-0.2 1 0.75 0.15m-7.65 7.35-0.4-1.65-1.55 0.3-0.05 2 2-0.65m0-2.1 1.05 1.35 2.75 0.25 1.3-2.45 0.1-0.25-1.45-3.5-4.95 1-3.9 3.3 1.5 0.95 3.6-0.65m-4.35-13.15-9.25 0.8-1.85 2.25-1.1-0.7-10.4 9.3 3.4-1.9-0.7 0.55q13.4-9.3 26.45-9.3-2.65-1.25-5.95-1.05l-0.6 0.05m-29.8 25.9q-1.2-1.95-3.7-2.75 2.5 0.8 3.7 2.75 0.7 1.2 0.9 2.75l0.65-0.15-1.55-2.6m15.7-14.8-2.15-0.05-4.35 3.65 3.4 0.8 4.85-1.55-1.75-2.85m1.7 6.7 0.35-1.5-1.5-0.25-0.5 0.7 1.65 1.05m10.75 3.65q1.9-7.5-9.15-1.8 8-1.95 9.15 1.8m6.85-36.5q-2.9 1.15-4 4.05 3.55-1.8 4-4.05" fill="#91b869" fill-rule="evenodd"/>
<path d="m63.3 2.5q6.5 3.9 2.75 11.8l-0.25 0.85-1 2-2.9 0.65 0.6-0.65 0.65-0.7 1.45-2.15q3.7-6.4-2.75-10.7-1.85-1.25-3.7-1.8 1.8-0.3 5.15 0.7m-3.35 20.35q-1.75 2.1-2.95 4.5-2.35 4.45-4.15 6.45l-3.3 3.3q-3.6 4-1.05 6.9 3.85-2.85 3.9-0.45 0.4 2-2.45 2.9l4.1 0.85q1.15 2.6 0.35 3.95-0.9 1.25-2.6 1.3-1.65 0.05-3.85-2.05-0.95-0.95-1.45-2.85v-0.05q-0.3-0.85-1.1-1.2-6.15 2.1-8.7 3.3v-1.15q2.5-1.8 2.35-4.3l1.25 1.4 4.45-4 5.95-7.5 7.35-10.3 1.9-1m-40.35 32.5-6.9-0.35q-5.65-1.35-12-6-0.5-0.9-0.65-1.65 4.7-2.45 9.35 3 4.6 5.4 9.1 1.9-0.25 1.4 0.65 2.65l0.45 0.45m-1.25-30.2q-0.95-1.9-0.05-3.3 0.8-1.4 2.2-1.45 1.55-0.05 1.05 0.85-1.05 1.75-0.9 2.35l-1.5 0.95-0.8 0.6m20.8-4.15 0.6-0.05q3.3-0.2 5.95 1.05-13.05 0-26.45 9.3l0.7-0.55q11.35-8.9 19.2-9.75m-29.8 25.9 1.55 2.6-0.65 0.15q-0.2-1.55-0.9-2.75m28.15-4.45q-1.15-3.75-9.15-1.8 11.05-5.7 9.15 1.8m6.85-36.5q-0.45 2.25-4 4.05 1.1-2.9 4-4.05" fill="#517d46" fill-rule="evenodd"/>
<path d="m1.35 44.35 0.15-0.15 4.05-0.1-0.1 1.2-1.4-0.15-1.9 0.3-0.1 0.05-0.7-1.15m12.55-15.3 2.65-2.5-0.5 2.55-2.15-0.05m26.4-22.85q1.05-3.2 1.45-4.15 0.85-1.8 1.65-0.75l-0.3 0.95-2.8 3.95m3.2 30.05-2 0.65 0.05-2 1.55-0.3 0.4 1.65m-23.55-5.5-3.4 1.9 10.4-9.3 1.1 0.7 1.85-2.25 9.25-0.8q-7.85 0.85-19.2 9.75" fill="#b5cf9a" fill-rule="evenodd"/>
<path d="m51.15 28.9-0.75-0.15 0.2-1 1.1 0.65-0.55 0.5" fill="#b5e1c7" fill-rule="evenodd"/>
<path d="m43.5 34.15-3.6 0.65-1.5-0.95 3.9-3.3 4.95-1 1.45 3.5-0.1 0.25-1.3 2.45-2.75-0.25-1.05-1.35m-18.45-2.05 1.75 2.85-4.85 1.55-3.4-0.8 4.35-3.65 2.15 0.05" fill="#a3c482" fill-rule="evenodd"/>
<path d="m36.7 49.7-0.2 0.8q-0.7 2.05-3.1 3.8-3.2 2.25-7.25 2.7-3.35 0.3-5.3-0.7-3.7-4.1 2.75-9.5l0.7-0.3q1.3-0.6 2.85-0.95l5.75-0.2q2.25 0.55 3.25 2l0.55 1.2v1.15m-32.65-11.75q0.25-1.7 1.15-3.5l0.55-1-0.15 0.75q0 0.55 0.35 1t0.9 0.45l0.85-0.45 0.35-1v-0.2h0.15q0.6 0 0.8-0.3l0.15-0.85-0.2-1.1q-0.2-0.5-0.8-0.45-0.65-0.05-0.85 0.5l-0.15-0.15q0.5-0.6 1.15-1.05 2-1.55 3.6-0.9l0.9 0.55q-3.5 4-5.6 9.2-1.4 2.15-3.15-1.5m27.7 15.2 0.4 0.05 0.95-0.35 0.2-1.15-0.25-1.35q-0.3-0.6-1.05-0.55-0.55-0.05-0.85 0.35-0.45-0.35-0.95-0.35-0.75 0-1.3 0.65t-0.55 1.55 0.55 1.55 1.3 0.65q0.7 0 1.25-0.65l0.3-0.4" fill="#486f8a" fill-rule="evenodd"/>
<path d="m8.05 34-0.35-0.85q-0.3-0.35-0.65-0.4l0.25-0.95q0.2-0.55 0.85-0.5 0.6-0.05 0.8 0.45l0.2 1.1-0.15 0.85q-0.2 0.3-0.8 0.3h-0.15m23.1 16.15q0.3-0.4 0.85-0.35 0.75-0.05 1.05 0.55l0.25 1.35-0.2 1.15-0.95 0.35-0.4-0.05 0.25-1.15q0-0.9-0.55-1.55l-0.3-0.3" fill="#fff" fill-rule="evenodd"/>
<path d="m7.05 32.75q0.35 0.05 0.65 0.4l0.35 0.85-0.75-0.2q-0.3-0.2-0.3-0.8l0.05-0.25m24.1 17.4 0.3 0.3q0.55 0.65 0.55 1.55l-0.25 1.15-0.75-0.2q-0.4-0.25-0.4-1.05t0.35-1.45l0.2-0.3" fill="#73dfcf" fill-rule="evenodd"/>
<path d="m7.1 31.7 0.05-0.05 0.15 0.15-0.2-0.1" fill="#e7edc5" fill-rule="evenodd"/>
<path d="m5.95 33.15 1.15-1.45 0.2 0.1-0.25 0.95-0.2-0.05q-0.55 0-0.9 0.45" fill="#d3f5f0" fill-rule="evenodd"/>
<path d="m5.75 33.45 0.2-0.3q0.35-0.45 0.9-0.45l0.2 0.05-0.05 0.25q0 0.6 0.3 0.8l0.75 0.2v0.2l-0.35 1-0.85 0.45q-0.55 0-0.9-0.45t-0.35-1l0.15-0.75m26 19.7-0.3 0.4q-0.55 0.65-1.25 0.65-0.75 0-1.3-0.65t-0.55-1.55 0.55-1.55 1.3-0.65q0.5 0 0.95 0.35l-0.2 0.3q-0.35 0.65-0.35 1.45t0.4 1.05l0.75 0.2" fill="#2cbea8" fill-rule="evenodd"/>
<path d="m20.85 56.3q-0.75-0.4-1.25-0.95l-0.45-0.45q-0.9-1.25-0.65-2.65 0.25-1.5 1.9-3.2 1.35-1.4 3.2-2.25-6.45 5.4-2.75 9.5m-14.85-13.5-0.5-0.2-0.45-0.35q-1.15-1.1-1.05-3.3l0.05-1q1.75 3.65 3.15 1.5l-1.2 3.35" fill="#41366d" fill-rule="evenodd"/>
<path d="m26.75 38.8-1.65-1.05 0.5-0.7 1.5 0.25-0.35 1.5" fill="#bad2a2" fill-rule="evenodd"/>
<path d="m43.1 2.25q-0.4 1.6 0.9 2.25 7.5-6.95 16.95-3.15 1.3 0.5 2.35 1.15 6.5 3.9 2.75 11.8l-0.25 0.85-1 2-1.5 2.15-0.15 0.15q-1.8 1.6-3.2 3.4-1.75 2.1-2.95 4.5-2.35 4.45-4.15 6.45l-3.3 3.3q-3.6 4-1.05 6.9 3.85-2.85 3.9-0.45 0.4 2-2.45 2.9l4.1 0.85q1.15 2.6 0.35 3.95-0.9 1.25-2.6 1.3-1.65 0.05-3.85-2.05-0.95-0.95-1.45-2.85v-0.05q-0.3-0.85-1.1-1.2-6.15 2.1-8.7 3.3l-0.2 0.8q-0.7 2.05-3.1 3.8-3.2 2.25-7.25 2.7-3.35 0.3-5.3-0.7-0.75-0.4-1.25-0.95l-6.9-0.35q-5.65-1.35-12-6-0.5-0.9-0.65-1.65m0-0.2q-0.25-1.7 1.3-2.8l0.15-0.15 4.05-0.1 0.1 0.05 0.35-1.35-0.5-0.2-0.45-0.35q-1.15-1.1-1.05-3.3l0.05-1q0.25-1.7 1.15-3.5l0.55-1 0.2-0.3 1.15-1.45 0.05-0.05q0.5-0.6 1.15-1.05 2-1.55 3.6-0.9l0.9 0.55 0.9-1m0.2-0.2 2.65-2.5m0.5-0.4 1.3-1q-0.95-1.9-0.05-3.3 0.8-1.4 2.2-1.45 1.55-0.05 1.05 0.85-1.05 1.75-0.9 2.35 10.5-6.3 25.6-4l7.15 1.45 4.05-0.75q2.4-0.45 4.45-2.5l0.6-0.65 0.65-0.7 1.45-2.15q3.7-6.4-2.75-10.7-1.85-1.25-3.7-1.8m-1.45-0.3q-5.45-0.8-11.2 4.25 1.1 1.35 5.5-0.35 1.45 1.8-11.25 5.8l-2 0.65 1.5-2.3 1.05-3.35q1.05-3.2 1.45-4.15 0.85-1.8 1.65-0.75l-0.3 0.95m-37.1 40.55 1.2-3.35q2.1-5.2 5.6-9.2m-7.15 13.9q2.5 0.8 3.7 2.75m1.55 2.6-0.65 0.15q-0.2-1.55-0.9-2.75m9.15 5.35q0.25-1.5 1.9-3.2 1.35-1.4 3.2-2.25l0.7-0.3q1.3-0.6 2.85-0.95l5.75-0.2q2.25 0.55 3.25 2l0.55 1.2v1.15m-18.35-24.55 0.8-0.6 1.5-0.95m-1.05 31.75-0.45-0.45q-0.9-1.25-0.65-2.65" fill="none" stroke="#517d46" stroke-linecap="round" stroke-linejoin="round" stroke-opacity=".50196" stroke-width=".05"/>
</g>
</defs>
</svg>
