<?xml version="1.0" encoding="UTF-8"?>
<svg version="1.1" viewBox="0 0 50.986 40.903" xmlns="http://www.w3.org/2000/svg" xmlns:cc="http://creativecommons.org/ns#" xmlns:dc="http://purl.org/dc/elements/1.1/" xmlns:rdf="http://www.w3.org/1999/02/22-rdf-syntax-ns#" xmlns:xlink="http://www.w3.org/1999/xlink">
<metadata>
<rdf:RDF>
<cc:Work rdf:about="">
<dc:format>image/svg+xml</dc:format>
<dc:type rdf:resource="http://purl.org/dc/dcmitype/StillImage"/>
</cc:Work>
</rdf:RDF>
</metadata>
<g transform="translate(-249.54 -179.47)">
<use transform="translate(249.55,179.5)" width="50.950001" height="41.049999" xlink:href="#a"/>
</g>
<defs>
<g id="a">
<path d="m21.4 27.55v-0.3h0.05l-0.05 0.3" fill="#96382c" fill-rule="evenodd"/>
<path d="m23.95 27 0.05 0.2h-0.05v-0.2m5.6 0.8 0.05-0.05v0.1l-0.05-0.05m7.2 5.7h-0.05v-0.05l0.05 0.05m-1.85 3.8v-0.05 0.05" fill="#e3a89f" fill-rule="evenodd"/>
<path d="m36.2 1.55v0.05-0.05" fill="#edc2c0" fill-rule="evenodd"/>
<path d="m22.7 27.25-0.05-0.25 0.05 0.2v0.05m6.95 1.15-0.05-0.55 0.15 0.45-0.1 0.1m7.1 5.1-0.05-0.05h0.05v0.05m-1.8 3.75-0.05 0.05v-0.05h0.05" fill="#702421" fill-rule="evenodd"/>
<path d="m44.6 38.6-0.3-0.15h0.05l0.25 0.15" fill="#b44734" fill-rule="evenodd"/>
<path d="m44.15 36.8 0.05-0.05-0.05 0.05m-31.35-13.15 0.1-0.1v0.1h-0.1m3.25-5.7 0.1 0.05h-0.1v-0.05m8.45 13.2h-0.1l0.05-0.15 0.05 0.15" fill="#cf6c5a" fill-rule="evenodd"/>
<path d="m23.8 26.55 0.15 0.3-0.05 0.05-0.1-0.3v-0.05m5.8 1.25v0.05-0.05" fill="#b7ffff" fill-rule="evenodd"/>
<path d="m29.6 27.8 0.15-0.25q0.1-0.15 0.3-0.15l0.3 0.15 0.15 0.25-0.15 0.3-0.3 0.1-0.3-0.1-0.15-0.25v-0.05m-5.8-1.2 0.1 0.3-0.1 0.25-0.3 0.15-0.3-0.15-0.15-0.25 0.15-0.3q0.1-0.15 0.3-0.1l0.3 0.1" fill="#fff" fill-rule="evenodd"/>
<path d="m39.3 33.8 1.65 1.25 0.95 1.8 0.3 0.15-0.55 0.6q-0.9-2.3-2.7-2.55l0.35-1.25m5 4.65q-1.25 0.25-6 1.95-1.65 0.35-2.1-0.4l-0.4-0.5 0.1-0.7 1.4 1.1 2.35-0.3 3.75-1.7 0.95 0.55h-0.05m-9.65-0.65-0.25-0.45q-3.85-2.55-9.3-2.35-3.05 0.75-5.7 2.4l-2.65-2.05-1.1-0.6 0.6-0.2 3.3 1.85 5.35-2.05 4.3 0.1 5.35 1.85 0.35 0.95v0.05l-0.25 0.5m-20.05-3.55-3.1-0.85-0.4 0.15 1.05-0.7 2.95 0.8v0.1l-0.5 0.5m5.85-3.45 0.35-0.8h0.1l1.65-0.9-0.6 1.4-0.95 0.3h-0.55m16.5-26.9 0.35 1.15q-1 0.35-1.55 1.35l-0.55-2.35 0.6-0.5 1.15 0.35m0.5 12-4 10.55 0.7 2.25-0.4 0.2-0.2-1.15-1.15-0.95-0.05-2.55 0.65-1.6 2.35-1.65-0.8-1.9 0.55-1.3 0.45 0.35 1.9-2.25m-1.4 19.4-1.85-1.5-0.7-0.45 3.2 0.15h0.05q0.25 0.85 0.9 1.55l-1.6 0.25m-6.25-2.25-0.25 0.4-1.2 0.1q-1.2-0.85-1.05-1.95-0.2 1-1.3 1.7-0.7 0.4-1.05-0.25-0.45-0.85-0.45-1.9l0.35 1.05q0.35 0.7 1.05 0.3 1.1-0.7 1.3-1.75l0.1 0.85q0.25 0.6 0.95 1.1l1.2-0.1 0.45-0.8q0.35 0.5-0.1 1.25m-5.4-1.9q-0.7 1.5-2 2.2-0.65 0.15-0.7-0.45l0.05-0.45 0.55 0.05q1.4-0.75 2.1-2.4l0.05 0.85v0.05l-0.05 0.15m5.55 0.55q0.1-0.6-0.35-1 0.6 0.45 2.05 0.5l0.55-0.2 0.15 0.5q0.1 0.45-0.6 0.55l-1.8-0.35" fill="#2c7c8d" fill-rule="evenodd"/>
<path d="m19.5 25.35-0.1-0.55 1.85-1.2 1.35-11.2q1.8-4.85 4.8-7.9 4.25-4 6.95-4.4l0.75-0.1q0.35-0.05 0.75 0.7l-1.05-0.25q-1.75 0-3.5 1.4-3.35 1.95-6 5.85-2.05 3.45-1.75 7.95h1.4q0.55-4.2 2.3-8.1 2.4-3.05 5.25-4.95 2.05-1.05 3.7-1l0.05 0.2 0.7 2.1-1.15-0.35-0.6 0.5 0.55 2.35q-0.45 0.65-0.6 1.7-2.65-3.75-4.9-1.45l0.5 8.2 2.7 1.45 0.05 0.05 1.6 1.45-0.55 1.3-0.2-0.45-1.75-0.4-1.7 1.6 1.35 3.35 0.75-0.55-0.65 1.6 0.05 2.55-0.2-0.15q-1.1-0.7-2.4-1.25l-0.2-0.05q-2.1-0.75-4.75-0.85h-0.1q-2.6-0.1-5.25 0.85m9.85-18.1q-1.25 0.8-2.2 2.4-0.65 1.05 0.15 1.95l2.35 2.25-0.3-6.6m-0.2 10.5 0.7-0.05 0.6-0.6-1.45-1.45-0.65 0.9 0.8 1.2m-4.15-1.5-1.55 0.05 0.1 1.5 1.3-0.05 0.15-1.5" fill="#50a6b8" fill-rule="evenodd"/>
<path d="m46.5 27 0.25 1-0.25 1.05-0.55 0.45q-0.3 0-0.5-0.45l-0.25-1.05q0-0.6 0.25-1 0.2-0.45 0.5-0.45l0.55 0.45m-0.4 5.1-0.3 0.5q-0.3 0.35-0.6 0.3-0.35-0.1-0.45-0.55-0.15-0.5 0-1.05l0.45-0.95q0.3-0.4 0.6-0.3l0.45 0.5v1.1l-0.15 0.45m-1.1 1.7v0.9l-0.4 0.8q-0.25 0.3-0.5 0.25l-0.35-0.45q-0.15-0.4 0-0.9 0.1-0.5 0.35-0.8t0.5-0.25l0.4 0.45m-20-17.55-0.15 1.5-1.3 0.05-0.1-1.5 1.55-0.05m-11.65 11.55-0.3 1.05-0.65 0.45-0.65-0.45q-0.3-0.45-0.3-1.05t0.3-1q0.25-0.45 0.65-0.45l0.65 0.45 0.3 1m-0.8 3.65q-0.2-0.5-0.1-0.95 0-0.5 0.35-0.6l0.65 0.15 0.65 0.85 0.15 1.05v0.25l-0.15-0.1-1.55-0.65m-11.8 4q-0.1-0.4 0.15-0.6l0.55-0.1q0.4 0.05 0.7 0.4l0.4 0.7-0.15 0.6-0.6 0.1-0.65-0.4q-0.35-0.35-0.4-0.7" fill="#c6e1e8" fill-rule="evenodd"/>
<path d="m35.85 0.7 0.35 0.85v0.05q-1.65-0.05-3.7 1-2.85 1.9-5.25 4.95-1.75 3.9-2.3 8.1h-1.4q-0.3-4.5 1.75-7.95 2.65-3.9 6-5.85 1.75-1.4 3.5-1.4l1.05 0.25" fill="#d9ecf0" fill-rule="evenodd"/>
<path d="m29.35 7.25 0.3 6.6-2.35-2.25q-0.8-0.9-0.15-1.95 0.95-1.6 2.2-2.4m-0.2 10.5-0.8-1.2 0.65-0.9 1.45 1.45-0.6 0.6-0.7 0.05m3.85 4.9-0.75 0.55-1.35-3.35 1.7-1.6 1.75 0.4 0.2 0.45-1.55 3.55" fill="#236270" fill-rule="evenodd"/>
<path d="m41.15 24.45q0-0.35 0.3-0.7l0.25 0.1 1.3 0.25q-0.7 0.2-0.7 0.85l-1.15-0.5m-2 8.15 0.15 1.15-2.55-0.3h-0.05l-0.15-1.4 2.05 0.2 0.55 0.35m-27.3-7.4 0.95-1.55h0.1q1.25 0 1.7 0.7l-0.55 1.05q-0.8-0.75-2.2-0.2m4.3-7.2 0.05 0.05 0.8 0.65-1.2 0.1-0.6-0.45q0.25-0.35 0.85-0.35h0.1m4.55 8.85-1-0.6-0.2-0.9q2.65-0.95 5.25-0.85h0.1q2.65 0.1 4.75 0.85l0.2 0.05q1.3 0.55 2.4 1.25l-0.85 0.7-0.4-0.15-0.05-0.05q-2.2-0.85-4.25-1.05l-0.75-0.05-2.6 0.1-0.85 0.15-0.8 0.2-0.95 0.35m15.05-20.45 0.8 3.5-0.55 5.9-0.9 2-1.6-1.45-0.05-0.05-2.7-1.45-0.5-8.2q2.25-2.3 4.9 1.45 0.15-1.05 0.6-1.7m-20.65 26.3 1.4 0.8q0.15 0.75-0.25 1.05l-1.15-0.8v-1.05m19.8 4.55q0.45-0.7 1.2-0.55l0.6 0.2 1.4 1.3q-1.85-0.65-2.2 0.6l-0.95-1.55h-0.05" fill="#1a4953" fill-rule="evenodd"/>
<path d="m41.15 24.45 1.15 0.5v0.4l-1-0.3-0.15-0.6m-1.85 9.3v0.05l-0.35 1.25h-1.3q-0.65-0.7-0.9-1.55v-0.05l2.55 0.3m-3.5 5.75-0.7-1-0.45-0.7 0.25-0.5 0.05-0.05 0.95 1.55-0.1 0.7m-20.15-4.75-1.05-0.5 0.5-0.5 1.15 0.8-0.6 0.2m0-15.2-0.6-0.65q0-0.35 0.15-0.55l0.6 0.45q-0.15 0.25-0.15 0.75m-0.75 5.7q-0.25 0.4-0.35 0.9l-0.5-0.75 0.55-1.05 0.3 0.9m6.5 2-0.7-0.4 0.95-0.35 0.8-0.2 0.85-0.15 2.6-0.1 0.75 0.05q2.05 0.2 4.25 1.05l0.05 0.05 0.4 0.15 0.85-0.7 0.2 0.15 1.15 0.95 0.2 1.15-1.1 0.5-0.45-0.55-1.55-0.65 0.1-0.35-0.2-0.45-0.4-0.15q-0.25-0.05-0.4 0.15l-0.15 0.35-0.05 0.05q-2.45-1.15-5.55-0.6l-0.05-0.2v-0.15l-0.15-0.3-0.05-0.05-0.45-0.2-0.45 0.2-0.2 0.45v0.05l0.05 0.25-1.3 0.3 0.05-0.3 0.2-0.75-0.2 0.75h-0.05m15.9-22.2q0.65 2.7 0.8 5.25v0.95q0 1.95-0.35 3.8l-0.3 0.85-1.9 2.25-0.45-0.35 0.9-2 0.55-5.9-0.8-3.5q0.55-1 1.55-1.35m-2.75 14.05 0.8 1.9-2.35 1.65 1.55-3.55m-1.7 8.9-0.5-0.2-1-0.45 1 0.45 0.5 0.2m-0.5-0.2-0.15 1.05 0.15-1.05m-1.85 0.55 0.35 0.6q-1-0.05-1.2-0.55l0.1-0.1q0.15 0.2 0.4 0.2l0.35-0.15m-7.75-1.05 0.1 0.15 0.45 0.2q0.25 0 0.45-0.2l0.15-0.25h0.05q0.05 0.95-1.4 1l0.2-0.9" fill="#14373f" fill-rule="evenodd"/>
<path d="m41.45 23.75q-0.3 0.35-0.3 0.7l0.15 0.6-1.9-0.3q-1.65-0.4 1.55-3.4-1.2 1.6 0.5 2.4m0.85 1.2q0-0.65 0.7-0.85 1.45 0.45 3 1.75 1.65 1.25 0.25 5.75v-1.05l-0.45-0.5q-0.3-0.1-0.6 0.3l-0.45 0.95q-0.15 0.55 0 1.05 0.1 0.45 0.45 0.55 0.3 0.05 0.6-0.3l0.3-0.5-1.9 4.65-0.05 0.05q-1.15-0.35-1.95 0.2 0.8-0.55 1.95-0.2l0.05-0.05q3.2 3.15 6.75 3.9l-2.55 0.2q-1.25-1.25-3.8-2.25l-0.25-0.15-0.95-0.55-3.75 1.7-2.35 0.3-1.4-1.1q0.35-1.25 2.2-0.6l0.55 0.35q1.35 0.2 3-0.95l0.55-0.6-0.3-0.15-0.95-1.8-1.65-1.25v-0.05l-0.15-1.15q1.55 1.1 2.5 2.4 2.2 2.7 3-7.4-0.45-1.5-2.35-2.25v-0.4m4.2 2.05-0.55-0.45q-0.3 0-0.5 0.45-0.25 0.4-0.25 1l0.25 1.05q0.2 0.45 0.5 0.45l0.55-0.45 0.25-1.05-0.25-1m-1.5 6.8-0.4-0.45q-0.25-0.05-0.5 0.25t-0.35 0.8q-0.15 0.5 0 0.9l0.35 0.45q0.25 0.05 0.5-0.25l0.4-0.8v-0.9m-33.9-0.25-2.3 1.05-2.9 1.8q-1.45 0.9-2.4 0.95-1.85 0-2.75-1.25-0.9-1.2-0.7-3.35l4.2 2.7q1.9 0.2 3.45-1.2t2.7-3.3q1.05-0.05 1.85 0.35-0.5-0.65-0.75-1.5v-0.1q-0.55-2.5 0.35-4.5 1.4-0.55 2.2 0.2l0.5 0.75q-0.45 1.7 0.2 3.65 1.15 2.35 3.5 2.4 1.6-0.5 2.2-1.4h0.55l0.95-0.3q-0.3 0.75-0.35 1.55l0.15 0.4-0.15-0.4q0.05-0.8 0.35-1.55l0.6-1.4-1.65 0.9h-0.1q-0.3-0.05-0.1-0.35l0.6-1.15 0.1-0.95 1.3-0.3 0.05 0.05-0.2 0.9q1.45-0.05 1.4-1h0.05q3.1-0.55 5.55 0.6l0.05 0.05 0.05 0.55q0.2 0.5 1.2 0.55l-0.35-0.6 0.15-0.15 1.55 0.65 0.45 0.55q0.75 2.05 2.6 2.95l1.3-0.3 0.15 1.4v0.05l-3.2-0.15 0.7 0.45 1.85 1.5q0.15 0.9 0.65 1.6l-0.6-0.2q-0.75-0.15-1.2 0.55l-0.35-0.95-5.35-1.85-4.3-0.1-5.35 2.05-3.3-1.85q0.4-0.3 0.25-1.05l-1.4-0.8-0.85-0.5 0.85 0.5v0.95l-2.95-0.8-1.05 0.7m1.8-10 2.3-0.8 0.05-0.05q1.65-0.7 0.9-2.4l-0.5-0.75q0-0.5 0.15-0.75l1.2-0.1 0.45 0.4q1.65 2.35 0.2 4.45l-2.3 0.8-0.45 0.9-0.3-0.9q-0.45-0.7-1.7-0.7v-0.1m2.15-4.65q-0.95-0.75-2.15-0.65l-1.5 1.15 0.3-2.55q2.45-0.05 4.35 1.1v0.05q-0.6 0-0.85 0.35-0.15 0.2-0.15 0.55m-0.8 13.3v-0.25l-0.15-1.05-0.65-0.85-0.65-0.15q-0.35 0.1-0.35 0.6-0.1 0.45 0.1 0.95l1.55 0.65 0.15 0.1m-0.9-4.4-0.3-1-0.65-0.45q-0.4 0-0.65 0.45-0.3 0.4-0.3 1t0.3 1.05l0.65 0.45 0.65-0.45 0.3-1.05m5.65 7.15-2.5-1.45 2.5 1.45 0.7 0.3 1.5-1.4-2.2 1.1m-6.75-3.65 0.3 0.15-0.3-0.15m17.55 1.75q1.85-0.6 3.55 0.25l0.15 0.05-0.15-0.05q-1.7-0.85-3.55-0.25 0.45-0.75 0.1-1.25l-0.45 0.8-1.2 0.1q-0.7-0.5-0.95-1.1l-0.1-0.85q-0.2 1.05-1.3 1.75-0.7 0.4-1.05-0.3l-0.35-1.05q0 1.05 0.45 1.9 0.35 0.65 1.05 0.25 1.1-0.7 1.3-1.7-0.15 1.1 1.05 1.95l1.2-0.1 0.25-0.4m-5.4-1.9h0.1l-0.05-0.15v-0.05l-0.05-0.85q-0.7 1.65-2.1 2.4l-0.55-0.05-0.05 0.45q0.05 0.6 0.7 0.45 1.3-0.7 2-2.2m-23.65 4.3q0.05 0.35 0.4 0.7l0.65 0.4 0.6-0.1 0.15-0.6-0.4-0.7q-0.3-0.35-0.7-0.4l-0.55 0.1q-0.25 0.2-0.15 0.6m30.7-5.95q0.7 0.35 0.8 1.15l-0.05 0.35 0.05-0.35q-0.1-0.8-0.8-1.15m0.75 1.5-0.55 0.2q-1.45-0.05-2.05-0.5 0.45 0.4 0.35 1l1.8 0.35q0.7-0.1 0.6-0.55l-0.15-0.5m-2.25 0.7-0.05 0.1 0.05-0.1" fill="#96cbc4" fill-rule="evenodd"/>
<path d="m22.65 27v-0.05l0.2-0.45 0.45-0.2 0.45 0.2 0.05 0.05v0.05l-0.3-0.1q-0.2-0.05-0.3 0.1l-0.15 0.3 0.15 0.25 0.3 0.15 0.3-0.15 0.1-0.25 0.05-0.05v0.25l-0.05 0.1-0.15 0.25q-0.2 0.2-0.45 0.2l-0.45-0.2-0.1-0.15-0.05-0.05v-0.05l-0.05-0.2m6.95 0.75 0.15-0.35q0.15-0.2 0.4-0.15l0.4 0.15 0.2 0.45-0.1 0.35-0.15 0.15-0.35 0.15q-0.25 0-0.4-0.2l-0.15-0.45 0.15 0.25 0.3 0.1 0.3-0.1 0.15-0.3-0.15-0.25-0.3-0.15q-0.2 0-0.3 0.15l-0.15 0.25v-0.05" fill="#f2beb7" fill-rule="evenodd"/>
<path d="m41.45 23.75q-0.3 0.35-0.3 0.7m1.15 0.5q0-0.65 0.7-0.85l-1.3-0.25-0.25-0.1q-1.7-0.8-0.5-2.4-3.2 3-1.55 3.4l1.9 0.3-0.15-0.6m5.35 2.55 0.25 1-0.25 1.05-0.55 0.45q-0.3 0-0.5-0.45l-0.25-1.05q0-0.6 0.25-1 0.2-0.45 0.5-0.45l0.55 0.45m-0.4 5.1-0.3 0.5q-0.3 0.35-0.6 0.3-0.35-0.1-0.45-0.55-0.15-0.5 0-1.05l0.45-0.95q0.3-0.4 0.6-0.3l0.45 0.5v1.05q1.4-4.5-0.25-5.75-1.55-1.3-3-1.75m-0.7 1.25-1-0.3m1 0.3q1.9 0.75 2.35 2.25-0.8 10.1-3 7.4-0.95-1.3-2.5-2.4l0.15 1.15v0.05m2.9 3.2q0.8-0.55 1.95-0.2l0.05-0.05 1.9-4.65 0.15-0.45v-0.05m-3.95-6.65v0.4m2.7 8.45v0.9l-0.4 0.8q-0.25 0.3-0.5 0.25l-0.35-0.45q-0.15-0.4 0-0.9 0.1-0.5 0.35-0.8t0.5-0.25l0.4 0.45m-0.8 2.95q3.2 3.15 6.75 3.9l-2.55 0.2q-1.25-1.25-3.8-2.25l-0.3-0.15q-1.25 0.25-6 1.95-1.65 0.35-2.1-0.4l-0.4-0.5-0.7-1m-18.35-3.15-1.1-0.6-1.05-0.5-3.1-0.85-0.4 0.15-2.3 1.05-2.9 1.8q-1.45 0.9-2.4 0.95-1.85 0-2.75-1.25-0.9-1.2-0.7-3.35l4.2 2.7q1.9 0.2 3.45-1.2t2.7-3.3q1.05-0.05 1.85 0.35-0.5-0.65-0.75-1.5v-0.1q-0.55-2.5 0.35-4.5l0.95-1.55 0.1-0.1 2.3-0.8 0.05-0.05q1.65-0.7 0.9-2.4l-0.5-0.75-0.6-0.65q-0.95-0.75-2.15-0.65l-1.5 1.15 0.3-2.55q2.45-0.05 4.35 1.1l0.1 0.05 0.05 0.05 0.8 0.65 0.45 0.4q1.65 2.35 0.2 4.45l-2.3 0.8-0.45 0.9q-0.25 0.4-0.35 0.9-0.45 1.7 0.2 3.65 1.15 2.35 3.5 2.4 1.6-0.5 2.2-1.4l0.35-0.8q-0.3-0.05-0.1-0.35l0.6-1.15 0.1-0.95v-0.3l-0.7-0.4-1-0.6-0.2-0.9-0.1-0.55 1.85-1.2 1.35-11.2q1.8-4.85 4.8-7.9 4.25-4 6.95-4.4l0.75-0.1q0.35-0.05 0.75 0.7l0.35 0.85v0.05l0.05 0.2 0.7 2.1 0.35 1.15q0.65 2.7 0.8 5.25v0.95q0 1.95-0.35 3.8l-0.3 0.85-4 10.55 0.7 2.25-0.4 0.2-1.1 0.5q0.75 2.05 2.6 2.95l1.3-0.3 2.05 0.2 0.55 0.35m2.5 5 0.55-0.6m-8.75-20.7 0.05 0.05m-18.3 2q0.25-0.35 0.85-0.35h0.1m-3.25 5.65q1.25 0 1.7 0.7l0.3 0.9m-2-1.6h-0.1m2.85-4.1q0-0.5 0.15-0.75l1.2-0.1m-1.8-0.35q-0.15 0.2-0.15 0.55m-1 6.5 0.5 0.75m-1.2 1.65-0.3 1.05-0.65 0.45-0.65-0.45q-0.3-0.45-0.3-1.05t0.3-1q0.25-0.45 0.65-0.45l0.65 0.45 0.3 1m-0.8 3.65q-0.2-0.5-0.1-0.95 0-0.5 0.35-0.6l0.65 0.15 0.65 0.85 0.15 1.05v0.25l0.85 0.5 1.4 0.8 2.5 1.45 2.2-1.1-1.5 1.4-0.7-0.3m-7.15-9.75q1.4-0.55 2.2 0.2m1.05 8.25v-0.95m-0.85-0.5-0.15-0.1-1.55-0.65-0.3-0.15m2.85 2.35v0.1l-0.5 0.5m1.65 0.3q0.4-0.3 0.25-1.05m-0.25 1.05-0.6 0.2m19.25 2.5q0.45-0.7 1.2-0.55l0.6 0.2q-0.5-0.7-0.65-1.6l-1.85-1.5-0.7-0.45-0.15-0.05q-1.7-0.85-3.55-0.25m-8.05-0.6-0.15-0.4q0.05-0.8 0.35-1.55m-21.2 4.95q-0.1-0.4 0.15-0.6l0.55-0.1q0.4 0.05 0.7 0.4l0.4 0.7-0.15 0.6-0.6 0.1-0.65-0.4q-0.35-0.35-0.4-0.7m30.6-8.1 1 0.45 0.5 0.2m-1.5-0.65-0.4-0.15-0.05-0.05q-2.2-0.85-4.25-1.05l-0.75-0.05-2.6 0.1-0.85 0.15-0.8 0.2-0.2 0.75-0.05 0.3m1.3-0.3-0.05-0.25v-0.05l0.2-0.45 0.45-0.2 0.45 0.2 0.05 0.05 0.15 0.3v0.15l0.05 0.2m5.55 0.6 0.05-0.05 0.15-0.35q0.15-0.2 0.4-0.15l0.4 0.15 0.2 0.45-0.1 0.35-0.15 0.15m1.7 0.5 0.15-1.05m-0.15 1.05 0.45 0.55m-0.45 1.6 0.05-0.35q-0.1-0.8-0.8-1.15m-0.6-0.55q-1-0.05-1.2-0.55l-0.05-0.55 0.15 0.45q0.15 0.2 0.4 0.2l0.35-0.15m1.7 2.65-0.55 0.2q-1.45-0.05-2.05-0.5 0.45 0.4 0.35 1m6.8 1.8-0.05-0.05-0.15-1.4m1.1 3h1.3l0.35-1.25m-1.65 1.25-1.6 0.25m0.7-1.8q0.25 0.85 0.9 1.55m-8.05-7.25v-0.05m0 0.1v-0.05m-5.7-0.6-0.15 0.25q-0.2 0.2-0.45 0.2l-0.45-0.2-0.1-0.15m-0.2 0.9q1.45-0.05 1.4-1v-0.2m-0.05 0.2 0.05-0.1m-3.25-0.25 0.95-0.35m-0.85 3.5h0.1l1.65-0.9-0.6 1.4m-0.2 1.95 0.55 0.05q1.4-0.75 2.1-2.4l0.05 0.85v0.05l0.4 1.2q0.35 0.7 1.05 0.3 1.1-0.7 1.3-1.75l0.1 0.85q0.25 0.6 0.95 1.1l1.2-0.1 0.45-0.8 0.05-0.1m5.95 7.1q0.35-1.25 2.2-0.6l-1.4-1.3m1.4 1.3 0.55 0.35q1.35 0.2 3-0.95-0.9-2.3-2.7-2.55m-4.05 2.25-0.25 0.5m1.15 1.7 0.1-0.7m-1-1.5v-0.05" fill="none" stroke="#481715" stroke-linecap="round" stroke-linejoin="round" stroke-opacity=".48235" stroke-width=".05"/>
</g>
</defs>
</svg>
