<?xml version="1.0" encoding="UTF-8"?>
<svg version="1.1" viewBox="0 0 95.475 118.45" xmlns="http://www.w3.org/2000/svg" xmlns:cc="http://creativecommons.org/ns#" xmlns:dc="http://purl.org/dc/elements/1.1/" xmlns:rdf="http://www.w3.org/1999/02/22-rdf-syntax-ns#" xmlns:xlink="http://www.w3.org/1999/xlink">
<metadata>
<rdf:RDF>
<cc:Work rdf:about="">
<dc:format>image/svg+xml</dc:format>
<dc:type rdf:resource="http://purl.org/dc/dcmitype/StillImage"/>
</cc:Work>
</rdf:RDF>
</metadata>
<g transform="translate(-227.22 -140.72)">
<use transform="translate(227.25,140.75)" width="95.449997" height="118.4" xlink:href="#a"/>
</g>
<defs>
<g id="a" transform="translate(-227.25,-140.75)">
<path d="m245 142.7 2.4-0.35 4.85-0.55q24.2-1.5-5.75 8.45 0-5-15.45-4.1 7-2.25 13.95-3.45m28.75 9.05-2.65-0.2q-1.9-1.6 1-2.15-0.8 1.35 1.65 2.35m-13.55 35.55q-2.3 2.3-3.15 4.5 0.85-2.2 3.15-4.5-0.95 1-3.15 4.5l-2.45 0.7q-2.4 4.05 2.55 8.45l-2.8-1.15q-6.25-8.8 3.85-17.2 7.5-10.5 22.45-5.8l-5.15 1.1v2.65q-4.85 1.5-8.2 4.55-4.1 0.15-5.7 0.75-1.1 0.35-1.15 1.2l-0.25 0.25m15.3-6.75q-2.6 0.1-3.3-1.55-7 0.2-10.6 6.85 3.6-6.65 10.6-6.85 0.7 1.65 3.3 1.55m16.25-8.4 4.9-0.3q6.1 0.45 4.95 6.35 2.25 8.95 0.2 15.65l-2.05-3.15q3.3-3.8 0-12.4-0.65-1.5-4.85 0 3.35-1.8 0-4.3-2.7-0.1-6.75 1.15 2.5-1.15 3.6-3m8.75-15q4.15-1.95 7.35-6-0.65-3.25-3.85-5.65 4.95 2.15 8.4 5.25-5.15 4.25-11.9 6.4m-42.9 86.6h1.65q-2.9 4.2-4.2 7.4h-0.05l2.6-7.4m-4.8 7.4-0.6-0.1-0.2 0.1h-2.1l0.6-1.05 4.35-7.4-1.8 8.45h-0.25" fill-rule="evenodd"/>
<path d="m227.45 148.9q0.65-1.5 3.6-2.75 3.5-1.55 10.1-2.8l3.85-0.65q-6.95 1.2-13.95 3.45 15.45-0.9 15.45 4.1 29.95-9.95 5.75-8.45l22.5-1.05 3 0.05 13.8 0.6 6.4 0.45 10.4 1.5q13.9 2.65 13.9 6.4v0.05q-0.1 3.7-13 8t-32.5 4.45-33.7-4.1l-5.6-1.85q-6.1-2.2-8.5-4.05l-1.45-1.5-0.05-0.1v-1.75m48.65-3.3q-11.35 0-19.35 1.75t-8 4.25 8 4.25 19.35 1.75 19.35-1.75 8-4.25-8-4.25-19.35-1.75m24.4 11.55q6.75-2.15 11.9-6.4-3.45-3.1-8.4-5.25 3.2 2.4 3.85 5.65-3.2 4.05-7.35 6" fill="#333" fill-rule="evenodd"/>
<path d="m322.25 149.8-0.5 3.65q-3.6 3.2-9.25 6.45-4 3.05-9 5.1-8.6 2.3-19.25 2.95-5.7-0.95-7.5-5.7 19.6-0.15 32.5-4.45t13-8m-94.8 7.45q1-4.45 0.05-6.5l1.45 1.5q0.7 4.2 4.05 5.75-1.45-2.25 4.45-1.7 10.2 5.8 21.65 8.6 12.8 2.3 25.15 3.05l-3.6 0.15q-27.45 0.95-53.2-10.85m48.15-7.95 3.2 0.3q1.85 0.4 1.85 0.9t-1.85 0.85l-3.2 0.4h-1.85q-2.45-1-1.65-2.35-2.9 0.55-1 2.15l-1.05-0.2q-1.8-0.35-1.8-0.85t1.8-0.9l2.05-0.25 2.35-0.1 1.15 0.05m-3.5 0.05v0.05-0.05 0.05-0.05" fill="#ccc" fill-rule="evenodd"/>
<path d="m321.75 153.45q0.5 0.85 0.5 2.8-7.55 5.8-18.75 8.75 5-2.05 9-5.1 5.65-3.25 9.25-6.45m-38.25 105.2q-6.85 1-14 0-8.85-0.55-17.7-2.6-19.8-2.95-24.35-8.8 12.2 5.9 24.35 8.8l11.45 1.35h0.15l6.1 1.25 8.3 0.1 5.7-0.1m-54.55-106.4q2.4 1.85 8.5 4.05l5.6 1.85q14.1 4.25 33.7 4.1 1.8 4.75 7.5 5.7-12.35-0.75-25.15-3.05-11.45-2.8-21.65-8.6-5.9-0.55-4.45 1.7-3.35-1.55-4.05-5.75m34.85-0.3q4.75 1.55 10.9 2.1 7.95 0.9 16.05-0.25-8.55 1.5-17.5 1.5-5.1-1.15-9.45-3.35" fill="#999" fill-rule="evenodd"/>
<path d="m276.1 145.6q11.35 0 19.35 1.75t8 4.25-8 4.25-19.35 1.75-19.35-1.75-8-4.25 8-4.25 19.35-1.75m-0.5 6.15h1.1l4.35-0.4q1.85-0.35 1.85-0.85t-1.85-0.9l-4.35-0.35-1.1 0.05-1.15-0.05-2.35 0.1-2.05 0.25q-1.8 0.4-1.8 0.9t1.8 0.85l1.05 0.2 2.65 0.2h1.85m-11.8 0.2q4.35 2.2 9.45 3.35 8.95 0 17.5-1.5-8.1 1.15-16.05 0.25-6.15-0.55-10.9-2.1l-2.55-1 2.55 1" fill="#666" fill-rule="evenodd"/>
<path d="m263.35 257.4-0.05-0.05 0.1 0.05h-0.05" fill="#900" fill-rule="evenodd"/>
<path d="m232.1 169.55q-2-1.5-0.25-6.75 16.45 5.6 35.3 9.5-30.9-5.5-35.05-2.75m28.1 17.75 0.25-0.25q0.05-0.85 1.15-1.2 1.6-0.6 5.7-0.75 3.35-3.05 8.2-4.55-0.95 2.15-0.85 4.05l-3.15 0.4q-1.95 1.35-7 2.5-2.75 0.85-2.65 2.7-2.3 4.4-4.8 1.6 2.2-3.5 3.15-4.5m29.55-15.45-15.45 0.95 43.45-7q3 13.65 2.05 26.2l-1.3-5.2-1.4-5.2q-1.15-5.35-1.25-11.4-13.05-0.6-26.1 1.65m1.7 19.05-0.9 2.7q-2.5 7.4-13.75 18.25 1.3 5.3-5.75 7.2 3.2-4.35 3.2-5.6 2.9-3.25 4.75-8.15 5-3.45 8.35-9.05 1.35-2.3 4.1-5.35m22.3 55.65q-1.8 0.75-3.8 2.5l-3.2 0.85q-5.55 1.5-11.3 3.7 17.3-8.7 22.9-28.5l1.05-2.3 0.2 9.1q-0.1 8.5-3.25 8.65-0.5 3.7-2.6 6m-61.55 4.5 0.5 0.3 10.55 6q-16.75-3.35-33.05-11.3-0.95-18.5 0-38.5 0.5 10.75 4.55 20.5l0.05 0.3-0.05-0.3 0.15 0.3h-0.1q-0.7 6.85 1.3 13.7 6.3 5.1 13.15 7.35l1.25 0.7-0.6 1.05h2.1l0.2-0.1" fill="#933" fill-rule="evenodd"/>
<path d="m296.65 171.75-4.9 0.05-2 0.05q13.05-2.25 26.1-1.65 0.1 6.05 1.25 11.4l-2.55-8.35q-7.65-1.4-17.9-1.5m17.45 6.95q0.9 5.95 2.45 10.9-2.1-5.6-4.95-10.9 1.75 0.95 2.5 0m5.5 53.2 0.3 15.2q-2.7-2.05-6.15-0.55 2.1-2.3 2.6-6 3.15-0.15 3.25-8.65m-70.35 17.5q-6.85-2.25-13.15-7.35-2-6.85-1.3-13.7h0.1q1.25 5 4.75 10.25 3.5 5.2 9.6 10.8" fill="#ffc" fill-rule="evenodd"/>
<path d="m275.5 180.55q6.6 0.5 16.8-1.45-13.35 2.95 0.45 7.3-17.35-0.6-17.6 9.2-4 4.5-3.65 10.8-8.2-15.1-14.95-11.2-0.25-1.65 0.5-3.4 2.5 2.8 4.8-1.6-0.1-1.85 2.65-2.7 5.05-1.15 7-2.5l3.15-0.4q-0.1-1.9 0.85-4.05m15.95 10.35q5.15-15.55 7.1-11.1v2.4q-2.85 4.05 0 12.8-13.3 2.95-15.1 14.7-1.35-0.05-6.9 7.35-7.75 5.75-12.15 16.7 5.05-13.7 3.9-13.85 0.65-0.3 2.75-0.85 7.05-1.9 5.75-7.2 11.25-10.85 13.75-18.25l0.9-2.7m-28.4 36.75q-2.5 5.1-2.15 10.2-5.15-2.3-8.95 3-3.95-3.2 0-6.4l11.1-6.8" fill="#600" fill-rule="evenodd"/>
<path d="m275.5 180.55v-2.65l5.15-1.1 3.25-0.4 0.3-0.05 1.35-0.3 2.6-0.9q4.05-1.25 6.75-1.15 3.35 2.5 0 4.3 4.2-1.5 4.85 0 3.3 8.6 0 12.4l2.05 3.15q-1.15 3.6-3.55 6.55-4.65 1.8-14.8 9.3 1.8-11.75 15.1-14.7-2.85-8.75 0-12.8v-2.4q-1.95-4.45-7.1 11.1-2.75 3.05-4.1 5.35-3.35 5.6-8.35 9.05-1.85 4.9-4.75 8.15 0 1.25-3.2 5.6-2.1 0.55-2.75 0.85 1.15 0.15-3.9 13.85l-0.35 0.95-0.1 0.2-0.35 1-1.75 4.95q-0.75 2.5-2.6 2.9h-1.65l-1.15-0.3-1.6-0.75q-1.35-0.7-2.9-1.85 3.8-5.3 8.95-3-0.35-5.1 2.15-10.2l2.55-7.7 0.35-1.1q5.4-11.45-8.8-17.9-4.95-4.4-2.55-8.45l2.45-0.7q-0.75 1.75-0.5 3.4 6.75-3.9 14.95 11.2-0.35-6.3 3.65-10.8 0.25-9.8 17.6-9.2-13.8-4.35-0.45-7.3-10.2 1.95-16.8 1.45" fill="#300" fill-rule="evenodd"/>
<path d="m254.85 242.7 1.6 0.75-2.9 7.7h-0.5l1.8-8.45" fill="#963" fill-rule="evenodd"/>
<path d="m296.65 171.85-4.9 0.3v-0.35l4.9-0.05v0.1m-33.3 85.55h-0.1v-0.05h0.05l0.05 0.05m-10.65-6.05-0.5-0.3 0.6 0.1-0.1 0.2" fill="#960" fill-rule="evenodd"/>
<path d="m322.25 156.25q-2.4 48.15 0 92.5-8.75 4.6-18.05 6.95-9 1.95-20.45 2.9l-0.25 0.05-5.7 0.1-8.3-0.1-6.1-1.25-0.1-0.05h-0.05v0.05l-11.45-1.35q-12.15-2.9-24.35-8.8 2.85-45 0-90 25.75 11.8 53.2 10.85l3.6-0.15q10.65-0.65 19.25-2.95 11.2-2.95 18.75-8.75m-90.15 13.3q4.15-2.75 35.05 2.75-18.85-3.9-35.3-9.5-1.75 5.25 0.25 6.75m48.55 7.25q-14.95-4.7-22.45 5.8-10.1 8.4-3.85 17.2l2.8 1.15q14.2 6.45 8.8 17.9l-0.35 1.1-2.55 7.7-11.1 6.8q-3.95 3.2 0 6.4 1.55 1.15 2.9 1.85l-4.35 7.4-1.25-0.7q-6.1-5.6-9.6-10.8-3.5-5.25-4.75-10.25l-0.15-0.3q-4.05-9.75-4.55-20.5-0.95 20 0 38.5 16.3 7.95 33.05 11.3l-10.55-6 0.1-0.2h0.75l2.9-7.7 1.15 0.3-2.6 7.4h0.05q1.3-3.2 4.2-7.4 1.85-0.4 2.6-2.9l1.75-4.95 0.35-1 0.1-0.2 0.35-0.95q4.4-10.95 12.15-16.7 5.55-7.4 6.9-7.35 10.15-7.5 14.8-9.3 2.4-2.95 3.55-6.55 2.05-6.7-0.2-15.65 1.15-5.9-4.95-6.35v-0.1q10.25 0.1 17.9 1.5l2.55 8.35 1.4 5.2 1.3 5.2q0.95-12.55-2.05-26.2l-43.45 7 15.45-0.95 2-0.05v0.35q-1.1 1.85-3.6 3l-2.6 0.9-1.35 0.3-0.3 0.05-3.25 0.4m33.45 1.9q-0.75 0.95-2.5 0 2.85 5.3 4.95 10.9-1.55-4.95-2.45-10.9m-0.35 67.85q3.45-1.5 6.15 0.55l-0.3-15.2-0.2-9.1-1.05 2.3q-5.6 19.8-22.9 28.5 5.75-2.2 11.3-3.7l3.2-0.85q2-1.75 3.8-2.5" fill="#ff9" fill-rule="evenodd"/>
<path d="m245 142.7 2.4-0.35 4.85-0.55m21.5 9.95-2.65-0.2q-1.9-1.6 1-2.15-0.8 1.35 1.65 2.35m-1.65-2.4v0.05-0.05m-8.3 2.6q4.75 1.55 10.9 2.1 7.95 0.9 16.05-0.25-8.55 1.5-17.5 1.5-5.1-1.15-9.45-3.35l-2.55-1m39.25 6.2q6.75-2.15 11.9-6.4-3.45-3.1-8.4-5.25 3.2 2.4 3.85 5.65-3.2 4.05-7.35 6m-55.5-14.45q-6.95 1.2-13.95 3.45 15.45-0.9 15.45 4.1 29.95-9.95 5.75-8.45m11.1 115.6-0.05-0.05h-0.05m0.05 0 0.1 0.05m-28.6-29.05-0.05-0.3" fill="none" stroke="#000" stroke-linecap="round" stroke-linejoin="round" stroke-width=".05"/>
<path d="m227.45 148.9q0.65-1.5 3.6-2.75 3.5-1.55 10.1-2.8l3.85-0.65m7.25-0.9 22.5-1.05 3 0.05 13.8 0.6 6.4 0.45 10.4 1.5q13.9 2.65 13.9 6.4v0.05l-0.5 3.65q0.5 0.85 0.5 2.8-2.4 48.15 0 92.5-7.2 4.5-18.05 6.95-10.05 2.45-20.7 2.95-6.85 1-14 0-8.85-0.55-17.7-2.6-19.8-2.95-24.35-8.8 2.85-45 0-90 1-4.45 0.05-6.5l-0.05-0.1-0.2-0.9 0.2-0.85v1.75m1.5 1.6-1.45-1.5m1.45 1.5q2.4 1.85 8.5 4.05l5.6 1.85q14.1 4.25 33.7 4.1t32.5-4.45 13-8m-18.75 15.2q11.2-2.95 18.75-8.75m-38 11.7q10.65-0.65 19.25-2.95m-19.25 2.95-3.6 0.15q-27.45 0.95-53.2-10.85m35.95 100.15 6.1 1.25 8.3 0.1 5.7-0.1 0.25-0.05q11.45-0.95 20.45-2.9 9.3-2.35 18.05-6.95m-59 8.65h0.1m-0.1 0-11.45-1.35q-12.15-2.9-24.35-8.8m35.95 10.15h-0.05" fill="none" stroke="#000" stroke-linecap="round" stroke-linejoin="round" stroke-width=".05"/>
<path d="m317.1 181.6-2.55-8.35" fill="none" stroke="#d4d0c8" stroke-linecap="round" stroke-linejoin="round" stroke-width=".05"/>
<path d="m257.05 191.8q0.85-2.2 3.15-4.5l0.25-0.25q0.05-0.85 1.15-1.2 3.6-6.65 10.6-6.85 0.7 1.65 3.3 1.55v-2.65l5.15-1.1q-14.95-4.7-22.45 5.8-10.1 8.4-3.85 17.2l2.8 1.15q-4.95-4.4-2.55-8.45l2.45-0.7q2.2-3.5 3.15-4.5m-3.15 4.5q-0.75 1.75-0.5 3.4 6.75-3.9 14.95 11.2-0.35-6.3 3.65-10.8 0.25-9.8 17.6-9.2-13.8-4.35-0.45-7.3-10.2 1.95-16.8 1.45-0.95 2.15-0.85 4.05l-3.15 0.4q-1.95 1.35-7 2.5-2.75 0.85-2.65 2.7-2.3 4.4-4.8 1.6m18.45-11.25q-4.85 1.5-8.2 4.55-4.1 0.15-5.7 0.75m35.05-14-4.9 0.3q-1.1 1.85-3.6 3 4.05-1.25 6.75-1.15 3.35 2.5 0 4.3 4.2-1.5 4.85 0 3.3 8.6 0 12.4l2.05 3.15q2.05-6.7-0.2-15.65 1.15-5.9-4.95-6.35m-5.2 19.05q5.15-15.55 7.1-11.1v2.4q-2.85 4.05 0 12.8-13.3 2.95-15.1 14.7 10.15-7.5 14.8-9.3 2.4-2.95 3.55-6.55m-13.65-18.7-2.6 0.9-1.35 0.3-0.3 0.05-3.25 0.4m-9.6 42.25q7.05-1.9 5.75-7.2 11.25-10.85 13.75-18.25l0.9-2.7q-2.75 3.05-4.1 5.35-3.35 5.6-8.35 9.05-1.85 4.9-4.75 8.15 0 1.25-3.2 5.6-2.1 0.55-2.75 0.85 1.15 0.15-3.9 13.85 4.4-10.95 12.15-16.7 5.55-7.4 6.9-7.35m-26.3-8.75q14.2 6.45 8.8 17.9l-0.35 1.1-2.55 7.7q-2.5 5.1-2.15 10.2-5.15-2.3-8.95 3 1.55 1.15 2.9 1.85l1.6 0.75 1.15 0.3h1.65q1.85-0.4 2.6-2.9l1.75-4.95 0.35-1 0.1-0.2 0.35-0.95m-1.35-6.1-11.1 6.8q-3.95 3.2 0 6.4m3.05 10.3 2.6-7.4m-4.8 7.4-0.6-0.1-0.2 0.1m-2.1 0 0.6-1.05m2.55 1.05 1.8-8.45-4.35 7.4m5.95-6.65-2.9 7.7m5.7-7.4q-2.9 4.2-4.2 7.4" fill="none" stroke="#000" stroke-linecap="round" stroke-linejoin="round" stroke-opacity=".4" stroke-width=".05"/>
<path d="m268 162.6v95.95q-15.4-0.9-31.9-6.05v-96.95q15.3 5.8 31.9 7.05" fill="#fff" fill-opacity=".42353" fill-rule="evenodd"/>
<path d="m322.7 156.55q-3.85 46.35 0 91.95-6.5 3.7-15.2 6.25v-91.1q8-2.25 15.2-7.1" fill-opacity=".43137" fill-rule="evenodd"/>
</g>
</defs>
</svg>
