<?xml version="1.0" encoding="UTF-8"?>
<svg version="1.1" viewBox="0 0 24.072 18.143" xmlns="http://www.w3.org/2000/svg" xmlns:cc="http://creativecommons.org/ns#" xmlns:dc="http://purl.org/dc/elements/1.1/" xmlns:rdf="http://www.w3.org/1999/02/22-rdf-syntax-ns#" xmlns:xlink="http://www.w3.org/1999/xlink">
<metadata>
<rdf:RDF>
<cc:Work rdf:about="">
<dc:format>image/svg+xml</dc:format>
<dc:type rdf:resource="http://purl.org/dc/dcmitype/StillImage"/>
</cc:Work>
</rdf:RDF>
</metadata>
<g transform="translate(-264.39 -190.1)">
<use transform="matrix(.4762 0 0 .4762 264.4 190.11)" width="50.5" height="38.049999" xlink:href="#a"/>
</g>
<defs>
<g id="a" transform="translate(4.3,1.55)">
<path d="m31.6 7.2-0.1 0.1v-0.25l0.1 0.15" fill="#333" fill-rule="evenodd"/>
<path d="m8.5 21 1.15-2.55 3.55 0.55-2.1 0.15-0.2 1.85h-2.4m4.85-2-2.6-2.4q1.4-2.25 3.5-4.3l3.4 2.1-1.5-3.8 0.9-0.75q0.6-0.5 1.25-0.9 0.9 2.25 2.45 4.3l0.15 0.7-3.1 0.55h-0.1l-2.85-0.15 0.65 1.35 1.45 1.8q-1.35-0.7-2.9-0.85-0.5-0.15-0.65 0.2l0.85 2.1-0.9 0.05m5.45-10.4q0.8-0.55 1.75-1.05l0.4 0.2 1.6 2.45q-1.85-0.2-3.75-1.6m2.8-1-0.5-0.4 3.2-1.85 1.8 1-0.75-1.5 2.4-1 2.3 1.65-1.75-1.85q1.45-0.65 3.05-1.2l0.15 4.6v0.25h-8.3l2.7 2.5q-2.2-0.8-4.3-2.2" fill="#292b36" fill-rule="evenodd"/>
<path d="m38.1 0.9 6.65-1.55 1.45-0.9-5.4 4.95q-2.45 2-2.8 3.1l-3.75-1.55 3.3 2.95-1.75 4.15-1.4-0.05 0.9 1.05-2.35 4.05-3.8-2.35 2.6 3.85-0.7 0.75-1.7-1.1 1.05 1.75-0.85 0.85-1.65 1.25-4.5-2.4 1.55 4.25q-1 0.55-1.9 1.05l-1.55-2.25 0.8 2.6-2.3 1.05-1.75-2 0.05 2.7-1.05 0.35-3.2 1.05-0.9-2.35-0.35 2.7q-4.75 1.1-8.55 0.7l-7.2 6.95-1.35-1.75 8.15-5.1v-0.05q-0.15-1.3 1.95-4.35l2.7-4.25h2.4l0.2-1.85 2.1-0.15h0.15l0.05 0.05-0.05-0.05 0.9-0.05-0.85-2.1q0.15-0.35 0.65-0.2 1.55 0.15 2.9 0.85l-1.45-1.8-0.65-1.35 2.85 0.15h0.1l3.1-0.55-0.15-0.7q-1.55-2.05-2.45-4.3l0.5-0.35q1.9 1.4 3.75 1.6l-1.6-2.45 2.25 1.2-1.6-1.35q2.1 1.4 4.3 2.2l-2.7-2.5h8.3l0.1-0.1-0.1-0.15-0.15-4.6 5.4-1.25h0.15l-0.55 1.9 1.75-2.2m-33.45 27.95 26.85-21.55-26.85 21.55-0.8 0.75 0.4-0.05 0.4-0.7m40.1-29.5-10.5 5.6-2.65 2.25 2.65-2.25 10.5-5.6" fill="#17181e" fill-rule="evenodd"/>
<path d="m38.1 0.9 6.65-1.55 1.45-0.9-5.4 4.95q-2.45 2-2.8 3.1l-3.75-1.55 3.3 2.95-1.75 4.15m-0.5 1-2.35 4.05-3.8-2.35 2.6 3.85-0.7 0.75m-0.65 0.65-0.85 0.85-1.65 1.25m-2.95 1.85q-1 0.55-1.9 1.05m-0.75 0.35-2.3 1.05m-1.7 0.7-1.05 0.35-3.2 1.05m-1.25 0.35q-4.75 1.1-8.55 0.7l-7.2 6.95-1.35-1.75 8.15-5.1v-0.05q-0.15-1.3 1.95-4.35l2.7-4.25 1.15-2.55 3.55 0.55h0.15l0.05 0.05-0.05-0.05-2.6-2.4q1.4-2.25 3.5-4.3m1.9-1.7 0.9-0.75q0.6-0.5 1.25-0.9l0.5-0.35q0.8-0.55 1.75-1.05l0.4 0.2 2.25 1.2-1.6-1.35-0.5-0.4 3.2-1.85m1.05-0.5 2.4-1 2.3 1.65-1.75-1.85q1.45-0.65 3.05-1.2l5.4-1.25h0.15m-5.4 6.1 0.1-0.1 2.65-2.25 10.5-5.6m-13.25 7.95-26.85 21.55-0.4 0.7-0.4 0.05 0.8-0.75" fill="none" stroke="#000" stroke-linecap="round" stroke-linejoin="round" stroke-opacity=".30196" stroke-width=".05"/>
</g>
</defs>
</svg>
