<?xml version="1.0" encoding="UTF-8"?>
<svg version="1.1" viewBox="0 0 61.293 35.541" xmlns="http://www.w3.org/2000/svg" xmlns:cc="http://creativecommons.org/ns#" xmlns:dc="http://purl.org/dc/elements/1.1/" xmlns:rdf="http://www.w3.org/1999/02/22-rdf-syntax-ns#" xmlns:xlink="http://www.w3.org/1999/xlink">
<metadata>
<rdf:RDF>
<cc:Work rdf:about="">
<dc:format>image/svg+xml</dc:format>
<dc:type rdf:resource="http://purl.org/dc/dcmitype/StillImage"/>
</cc:Work>
</rdf:RDF>
</metadata>
<g transform="translate(-244.84 -182.26)">
<use transform="translate(244.85,182.25)" width="61.25" height="35.549999" xlink:href="#a"/>
</g>
<defs>
<g id="a" transform="translate(-244.85,-182.25)">
<path d="m252.05 185.8q-6.45 4.7 3.35-0.35 9.7-5.05 14.35-2.1 4.6 2.9 1.95 2.3t-0.35 0.8l6.2 4.2 6.65 4.7 1 0.7 0.15 0.1 0.05-0.05 2.8 3.45 1.1 1.85 0.9 2.2 0.15 0.65 0.05 0.4 0.1 0.75 0.05 0.3v0.15l-1.9 8.3q0.1-3.8-1.9-6.25-0.2-3.8-6.05-2.9-5.5 1.65-7.75 0.85 0.7-6.7-6.75-10.65-6.85-3.1-9.35-0.85-1.35-3.35-7.95-0.55l-3.75 2.6q-0.3-1 0.15-2.7l1-2.9 0.55-1.15q1.3-2.85 5.2-3.85" fill="#e7dca0" fill-rule="evenodd"/>
<path d="m245.15 196.4 3.75-2.6q6.6-2.8 7.95 0.55 2.5-2.25 9.35 0.85 7.45 3.95 6.75 10.65 2.25 0.8 7.75-0.85 5.85-0.9 6.05 2.9 2 2.45 1.9 6.25l-1.5 0.2-0.2-1.8q-1.05-2.1-5.1 0.4 2.15-5.65-2.65-3.2l-6.2-2.05-8.25 0.45q-4.3 0.8-2.45-4.6-1.2-4.1-3.9-3.1-9.8 3.95-4.1-1.4-9.45 2.7-3.1-2.45-4.85 2.05-4.45 12.05-1.05-2.2-1.45-5-0.45-2.6-0.3-5.7l0.15-1.55" fill="#d5ba60" fill-rule="evenodd"/>
<path d="m246.75 208.65q-0.4-10 4.45-12.05-6.35 5.15 3.1 2.45-5.7 5.35 4.1 1.4 2.7-1 3.9 3.1-1.85 5.4 2.45 4.6l8.25-0.45 6.2 2.05q4.8-2.45 2.65 3.2 4.05-2.5 5.1-0.4l0.2 1.8-2.25 0.5q-3 1.35-7.35 2.15l-2.8 0.4q-11.45 1.15-21.05-2.45-4.8-1.85-6.95-6.3" fill="#cba938" fill-rule="evenodd"/>
<path d="m289.3 201.4-1.1-1.85q2.05-0.55 4.25-0.6l4.45-0.45q1.55-0.3 2.75-1.85 1.95-2.6 3.05 0 0.35 0.85-0.4 2-1.75 2.65 0.85 4.5l1.3 0.95q2.35 1.75 1.15 4.95-0.8 2-2.25 2.35 2.05-2.1 1-4.8l-2.35-0.85-0.35-2.45q-1.8 0.85-2.15-4.35l-2 2.35q-4.3 2.55-8.2 0.1" fill="#f7f1e1" fill-rule="evenodd"/>
<path d="m290.55 205.7-0.05-0.3-0.1-0.75-0.05-0.4-0.25-1.4 2.25 0.8 4.35-0.95 1.85-1.7 0.2 3.4q-1.6 0.95-3.6 1.1l-4.6 0.2" fill="#e4d39a" fill-rule="evenodd"/>
<path d="m290.35 204.25-0.15-0.65-0.9-2.2q3.9 2.45 8.2-0.1l2-2.35q0.35 5.2 2.15 4.35l0.35 2.45 2.35 0.85q1.05 2.7-1 4.8l-1.25 0.05q-1.85-0.35-2.85-3-0.65-1.7-0.5-4.05l-0.2-3.4-1.85 1.7-4.35 0.95-2.25-0.8 0.25 1.4" fill="#eee2bf" fill-rule="evenodd"/>
<path d="m252.05 185.8q-3.9 1-5.2 3.85l-0.55 1.15-1 2.9q-0.45 1.7-0.15 2.7m43.5 17.75 1.9-8.3v-0.15m-1.25-4.3-1.1-1.85-2.8-3.45m-0.05 0.05-0.15-0.1-1-0.7m2.95 19 1.5-0.2m-41.9-5.5q-1.05-2.2-1.45-5-0.45-2.6-0.3-5.7l0.15-1.55m42 17.95-2.25 0.5q-3 1.35-7.35 2.15l-2.8 0.4q-11.45 1.15-21.05-2.45-4.8-1.85-6.95-6.3m41.45-9.1q2.05-0.55 4.25-0.6l4.45-0.45q1.55-0.3 2.75-1.85 1.95-2.6 3.05 0 0.35 0.85-0.4 2-1.75 2.65 0.85 4.5l1.3 0.95q2.35 1.75 1.15 4.95-0.8 2-2.25 2.35l-1.25 0.05q-1.85-0.35-2.85-3-0.65-1.7-0.5-4.05-1.6 0.95-3.6 1.1l-4.6 0.2m-5.35-9.65 0.2 0.05" fill="none" stroke="#bb8224" stroke-linecap="round" stroke-linejoin="round" stroke-width=".25"/>
<path d="m290.5 205.4-0.1-0.75-0.05-0.4-0.25-1.4" fill="none" stroke="#de7307" stroke-linecap="round" stroke-linejoin="round" stroke-width=".25"/>
</g>
</defs>
</svg>
