<?xml version="1.0" encoding="UTF-8"?>
<svg version="1.1" viewBox="0 0 61.293 56.6" xmlns="http://www.w3.org/2000/svg" xmlns:cc="http://creativecommons.org/ns#" xmlns:dc="http://purl.org/dc/elements/1.1/" xmlns:rdf="http://www.w3.org/1999/02/22-rdf-syntax-ns#" xmlns:xlink="http://www.w3.org/1999/xlink">
<metadata>
<rdf:RDF>
<cc:Work rdf:about="">
<dc:format>image/svg+xml</dc:format>
<dc:type rdf:resource="http://purl.org/dc/dcmitype/StillImage"/>
</cc:Work>
</rdf:RDF>
</metadata>
<g transform="translate(-244.84 -171.65)">
<use transform="translate(244.85,171.65)" width="61.25" height="56.599998" xlink:href="#a"/>
</g>
<defs>
<g id="a" transform="translate(-244.85,-171.65)">
<path d="m248.05 198.55-0.55 0.95q-1.15 2.25 2.2 3.2l-0.8 0.3-3.75 2.6q-0.3-1 0.15-2.7l1-2.9 0.55-1.15q0.6-1.4 1.8-2.3 1.15-0.9 2.85-1.4-2 1.45-3.1 2.95l-0.35 0.35v0.1m4.15 3.3q-2.7-0.7-2.75-2.6-0.1-1.95 2.1-4.1l0.3-0.1 6.65-2.25 1.3-0.3q-1.45 0.4-1.6 0.9-1.05 2.8 2.15 2.5l0.8-0.1 4-0.15 0.85 0.1q0.75 0.1 1 0.65v1.35q-0.7 3.4 2.15 4 1.8 0.35 3.25-0.6l0.3-0.25q0.75-0.55 1.75-0.4 2.45 0.4 4.65 1.85l1.55 0.75q-0.3-1.1-1.25-1.95l4.8 3.4 1 0.7 0.15 0.1h0.05l2.8 3.4 1.1 1.85 0.9 2.2 0.15 0.65 0.05 0.4 0.1 0.75 0.05 0.3v0.15l-1 3.7-2.1-0.8 0.3 0.35 0.85 1.15 0.55 0.75-0.05 0.15-0.7 0.25q-0.35-1.9-1.65-3.5l-3.8-1.85 0.75-0.75 6.45 1.85-4.05-3.9 1.7-3.1-3.55 0.9-3.4-4.65v0.3l-0.05 5.5-4.6 1.85 0.8 0.15 2.15 0.4 1.7 0.35v0.1l-0.15-0.05-7.75 0.85-9.25-6-5.3-6.85q-2.15-1.45-6.2-0.35m17.75-6.85-0.85-0.65-0.2-0.2 0.75 0.5 0.85 0.6-0.55-0.25m0.6 0.3q-0.5-0.45 0.35 0.1l-0.25-0.1h-0.1m18.2 26.35-0.25 0.85 0.05-0.85h0.2" fill="#da8c30" fill-rule="evenodd"/>
<path d="m248.4 198.1 0.4-0.25 0.35 0.2 0.05 0.1q-0.15 0.95-0.9 1.6l-0.1 0.05q-0.5-0.1-0.45-0.6l0.3-0.6v-0.15l0.35-0.35m12.8-5.65q-0.9 0.1-1.4 0.7v0.1l5.6 0.35 0.2-0.1 0.15-0.2 0.05-0.1q0.1-0.35-0.2-0.45-2.05-1-4.4-0.3m-0.85 3.45-1.45-1-0.2-1.15 1.25-1.3 0.3-0.1h0.1l0.8-0.2 2.9-0.15 0.35 0.1 1.8 0.7 0.35 1.25-0.35-1.25 0.25 0.15q0.3 0.1 0.1 1.1 0.9-0.7 1.3-0.5l3.75 2.65 0.8 0.5q6.9 4.25 0 2.6l-0.2-0.05q-4.5-3.2-5.2-2.85-0.25-0.55-1-0.65l-0.85-0.1-4 0.15-0.8 0.1m9.05-0.6-0.2 0.15q-0.35 0.35-0.1 0.85l0.55 0.6 2.75 1.1 0.6 0.3 0.15-0.05 0.4-0.45-0.05-0.1-1.1-0.5-3-1.9" fill="#ebd350" fill-rule="evenodd"/>
<path d="m248.05 198.55v0.05l-0.3 0.6q-0.05 0.5 0.45 0.6l0.1-0.05q0.75-0.65 0.9-1.6l-0.05-0.1-0.35-0.2-0.4 0.25q1.1-1.5 3.1-2.95h0.05q-2.2 2.15-2.1 4.1 0.05 1.9 2.75 2.6-0.5 1.1-1.85 0.95l-0.65-0.1q-3.35-0.95-2.2-3.2l0.55-0.95m11.75-6.05 0.15-0.05-1.25 1.3 0.2 1.15 1.45 1q-3.2 0.3-2.15-2.5 0.15-0.5 1.6-0.9m4.6-0.4h0.05l1.25 0.45 0.5 0.25-1.8-0.7m7.2 4.1-1.65-1.2 0.55 0.25 0.25 0.2-0.2-0.15h0.1l0.25 0.1 0.45 0.25 1.05 0.7 5.15 3.5 1.85 1.3q0.95 0.85 1.25 1.95l-1.55-0.75q-2.2-1.45-4.65-1.85-1-0.15-1.75 0.4l-0.3 0.25q-1.45 0.95-3.25 0.6-2.85-0.6-2.15-4v-1.35q0.7-0.35 5.2 2.85l0.2 0.05q6.9 1.65 0-2.6l-0.8-0.5" fill="#e1a459" fill-rule="evenodd"/>
<path d="m261.2 192.45q2.35-0.7 4.4 0.3 0.3 0.1 0.2 0.45l-0.05 0.1-0.15 0.2-0.2 0.1-5.6-0.35v-0.1q0.5-0.6 1.4-0.7m8.2 2.85 3 1.9 1.1 0.5 0.05 0.1-0.4 0.45-0.15 0.05-0.6-0.3-2.75-1.1-0.55-0.6q-0.25-0.5 0.1-0.85l0.2-0.15" fill="#faf2cd" fill-rule="evenodd"/>
<path d="m285.4 205.3v0.05h-0.05l0.05-0.05m4.15 13.45 1.05 0.4 2.65-2.3 0.2-0.15-0.7 3.4 2.15 1.15-2.3 0.6v3.35l-2.2-3.55h-4.15l0.4-0.3 0.85-0.4 0.9-0.35 0.7-0.25 0.15-0.05-0.1-0.1-0.55-0.75-0.85-1.15-0.3-0.35 2.1 0.8m-6.2 5.95 0.05 3.55-1.7-3-1.05-1.95h-5.2q0.3-0.4 1.55-1l2.2-0.85-0.85-1.25-1-1.55-0.3-0.4-0.05-0.15 0.95 0.4 2.9 1.3 1.4-1.3 2.15-2.1-0.8 4.75 0.1 0.05 2.55 1.55-2.9 0.8v1.15m-2.5-10.45v-0.1l-1.7-0.35-2.15-0.4-0.8-0.15 4.6-1.85 0.05-5.5v-0.3l3.4 4.65 3.55-0.9-1.7 3.1 4.05 3.9-6.45-1.85-0.75 0.75-3.45 3.55-0.05 0.05q-0.15-0.65 0.4-2.15l1-2.45" fill="#e7dca0" fill-rule="evenodd"/>
<path d="m249.7 202.7 0.65 0.1q1.35 0.15 1.85-0.95 4.05-1.1 6.2 0.35l5.3 6.85 9.25 6 7.75-0.85 0.15 0.05-1 2.45q-0.55 1.5-0.4 2.15-0.15 0-0.25 0.1l-1.25-0.45-0.95-0.4 0.05 0.15-4.05-1.35-8.25 0.45q-4.3 0.8-2.45-4.6-1.2-4.1-3.9-3.1-9.8 3.95-4.1-1.4-3.4 0.95-4.75 1.6-4.65 2.4-2.8 8-1.05-2.2-1.45-5-0.45-2.6-0.3-5.7l0.15-1.55 3.75-2.6 0.8-0.3m38.8 19.8q-0.6 0.9-1.35 1.05l-0.2-1.8-0.05-0.1h1.65l-0.05 0.85m-5.55-7.25 3.8 1.85q1.3 1.6 1.65 3.5l-0.9 0.35-0.85 0.4q-0.9-1-2.95-0.15l-0.1-0.05 0.8-4.75-2.15 2.1q-0.7-0.7-2.75 0.3l3.45-3.55" fill="#c97d23" fill-rule="evenodd"/>
<path d="m287.15 223.55-2.25 0.5-1.55 0.65v-1.15l2.9-0.8-2.55-1.55q2.05-0.85 2.95 0.15l-0.4 0.3h0.65l0.05 0.1 0.2 1.8m-5.45 1.7-4.15 0.95-2.8 0.4-2.35 0.2q-10.1 0.6-18.7-2.65-4.8-1.85-6.95-6.3-1.85-5.6 2.8-8 1.35-0.65 4.75-1.6-5.7 5.35 4.1 1.4 2.7-1 3.9 3.1-1.85 5.4 2.45 4.6l8.25-0.45 4.05 1.35 0.3 0.4 1 1.55 0.85 1.25-2.2 0.85q-1.25 0.6-1.55 1h5.2l1.05 1.95m-3.75-6.75 1.25 0.45q0.1-0.1 0.25-0.1l0.05-0.05q2.05-1 2.75-0.3l-1.4 1.3-2.9-1.3" fill="#915a1a" fill-rule="evenodd"/>
<path d="m288.2 208.75q2.05-0.55 4.25-0.6l4.45-0.45q1.55-0.3 2.75-1.85 1.95-2.6 3.05 0 0.35 0.85-0.4 2-1.75 2.65 0.85 4.5l1.3 0.95q2.35 1.75 1.15 4.95-0.8 2-2.25 2.35 2.05-2.1 1-4.8l-2.35-0.85-0.35-2.45q-1.8 0.85-2.15-4.35l-2 2.35q-4.3 2.55-8.2 0.1l-1.1-1.85" fill="#f7f1e1" fill-rule="evenodd"/>
<path d="m303.35 220.6-1.25 0.05q-1.85-0.35-2.85-3-0.65-1.7-0.5-4.05l-0.2-3.4-1.85 1.7-4.35 0.95-2.25-0.8 0.25 1.4-0.15-0.65-0.9-2.2q3.9 2.45 8.2-0.1l2-2.35q0.35 5.2 2.15 4.35l0.35 2.45 2.35 0.85q1.05 2.7-1 4.8" fill="#eee2bf" fill-rule="evenodd"/>
<path d="m298.75 213.6q-1.6 0.95-3.6 1.1l-4.6 0.2-0.05-0.3-0.1-0.75-0.05-0.4-0.25-1.4 2.25 0.8 4.35-0.95 1.85-1.7 0.2 3.4" fill="#e4d39a" fill-rule="evenodd"/>
<path d="m251.55 195.15h-0.05q-1.7 0.5-2.85 1.4-1.2 0.9-1.8 2.3l-0.55 1.15-1 2.9q-0.45 1.7-0.15 2.7m6.7-10.55-0.3 0.1m32.65 9.4 1 0.7 0.2 0.05v0.05l2.8 3.4q2.05-0.55 4.25-0.6l4.45-0.45q1.55-0.3 2.75-1.85 1.95-2.6 3.05 0 0.35 0.85-0.4 2-1.75 2.65 0.85 4.5l1.3 0.95q2.35 1.75 1.15 4.95-0.8 2-2.25 2.35l-1.25 0.05q-1.85-0.35-2.85-3-0.65-1.7-0.5-4.05-1.6 0.95-3.6 1.1l-4.6 0.2v0.15l-1 3.7m-0.8 2.9-0.25 0.85q-0.6 0.9-1.35 1.05l-2.25 0.5-1.55 0.65m-1.65 0.55-4.15 0.95-2.8 0.4-2.35 0.2q-10.1 0.6-18.7-2.65-4.8-1.85-6.95-6.3-1.05-2.2-1.45-5-0.45-2.6-0.3-5.7l0.15-1.55m43.95 14.75 0.05-0.15m-3.8-14.85-0.15-0.1m4.1 5.35-1.1-1.85" fill="none" stroke="#bb8224" stroke-linecap="round" stroke-linejoin="round" stroke-width=".25"/>
<path d="m260.35 192.35q1.85-0.7 3.7-0.35l0.35 0.1h0.05m2.1 1.95q0.9-0.7 1.3-0.5m-1.65-0.75-1.8-0.7m2.15 1.95-0.35-1.25" fill="none" stroke="#e4ba74" stroke-linecap="round" stroke-linejoin="round" stroke-width=".25"/>
<path d="m290.5 214.6-0.1-0.75-0.05-0.4-0.25-1.4" fill="none" stroke="#de7307" stroke-linecap="round" stroke-linejoin="round" stroke-width=".25"/>
<path d="m257.8 205.35 1.2 1.75 1.05 0.85 3.35 3.1 0.65 0.65 0.4 0.45-0.35-0.45-0.15-0.2-0.35-0.45-0.85-1.2q-1.95-2.75-4.35-5.25-2.55-2.75-2.65-5.75 0-2.95 2.3-5.7 2.25-2.65 2.05-5.9l-0.5-4.4q-2.45-3.25-2.15-4.95l0.05-2.5-0.2-1.35-0.75-1.95-0.25-0.45 0.1 0.45 0.35 1.95 0.1 1.35-0.15 2.7q0.6 2 0.15 4.35-0.2 1.4 1.4 4.2l0.15 3.55q0 2.6-1.75 4.75-1.75 2.1-1.9 4.4 0 2.25 1.65 4.25l1.4 1.75m-1.3-26.2q-0.45 2.1-1.45 4.15-1.15 2.45-3.1 4.65-1.7 2-2.25 4.2-0.65 3.05 0.65 5.95l1.25 2.15-0.7-1.35q-0.45-1.15-0.5-2.4l-0.05-0.6 0.05-0.2 0.2-1.45q0.5-1.75 1.8-3.4 1.5-1.8 2.45-3.8 1.85-3.9 1.65-7.9m14.4-2.6 0.1 0.3q0.45 1.7 0.3 3.4l0.15 0.2 0.25 0.55 0.1 0.2v-0.05q0.35-2.3-0.7-4.3l-0.2-0.3m-1.3 5.85-0.15-1.8v-0.25q-0.1 2.9-0.95 5.7-0.6 2.15-1.6 4.1-0.95 1.8-1.2 3.7-0.15 0.95-0.15 1.85l0.7-0.1q1.15-0.3 2.1-1.2 1.25-1.2 1.15-4.45v-4.75l0.05-1.25 0.05-0.8v-0.75m1.25 12.4-0.05 0.45 0.05 0.1 0.7 0.85-0.55 0.7q0.25 0.75 2.1 2t1.2 1.8l-0.4 0.35 0.65 0.5q0.6 0.65 0.05 1.3l-0.45 0.7 0.5 0.6 1.7 1.5 0.15 0.2-1.55 4-0.45 1.35-0.2 0.5-0.35 0.85 0.4-0.85 0.25-0.55 2.4-4.85 0.15 0.2-0.15-0.2 2.15-4q1.7-3.1 2.65-5.95l0.55-1.8q0.8-3.2 0.35-5.75-0.2-1.4-0.9-2.45l-0.4-0.6q-1.15-1.35-1.85-3.15-1.25-3.15-1.05-7.2l0.1-1.35 0.15-1.3 0.05-0.45-0.15 0.5-0.3 1.25-0.2 1.35q-0.15 1.55 0 3.05t-0.5 10.8q-0.95-4.2-1.1-1.2-0.15 3.1 1.25 4.7 1.35 1.7 1.3 4.4 0 2.65-1.4 5.85 0.15-0.95-0.65-2.15-1.25-1.95-3.9-3.55-0.7-0.4-2.3-2.5m6.4 9.2 0.05-0.05-0.75 1.8-0.05-0.1q-0.3-0.4 0.75-1.65" fill="#999" fill-opacity=".31372" fill-rule="evenodd"/>
<path d="m257.8 205.35-1.4-1.75q-1.65-2-1.65-4.25 0.15-2.3 1.9-4.4 1.75-2.15 1.75-4.75l-0.15-3.55q-1.6-2.8-1.4-4.2 0.45-2.35-0.15-4.35l-0.25-0.7-0.15-0.4h-0.05l0.1 0.4 0.15 1.75q0.2 4-1.65 7.9-0.95 2-2.45 3.8-1.3 1.65-1.8 3.4l-0.2 1.45-0.05 0.2 0.05 0.6q0.05 1.25 0.5 2.4l0.7 1.35q1.05 1.75 4.45 3.9l1.75 1.2m11.65-25v0.25l0.15 1.8v0.75l-0.05 0.8-0.05 1.25v4.75q0.1 3.25-1.15 4.45-0.95 0.9-2.1 1.2l-0.7 2.25-0.05 0.25-0.15 1.5v0.85l0.35 2.5q0.2 0.6 2.95 2.7-0.3-1.1-0.3-2.25 0.1-1.75 0.75-3.4l0.55-1.2 1.35-1.9 0.55-0.7-0.7-0.85-0.05-0.1 0.05-0.45v-0.9l-0.1-3.7q-1.1-2.9-0.95-4.4l0.15-2.3-0.2-1.4v-0.6l-0.05-0.2-0.15-0.75-0.1-0.3-0.05-0.05 0.05 0.15m1.95 23.2-0.1-0.25-0.15-0.25 0.15 0.5 0.8 1.15-0.35-0.55-0.35-0.6" fill="#646464" fill-opacity=".31372" fill-rule="evenodd"/>
</g>
</defs>
</svg>
