<?xml version="1.0" encoding="UTF-8" standalone="no"?>
<!DOCTYPE svg PUBLIC "-//W3C//DTD SVG 1.1//EN" "http://www.w3.org/Graphics/SVG/1.1/DTD/svg11.dtd">
<svg width="100%" height="100%" viewBox="0 0 610 540" version="1.1" xmlns="http://www.w3.org/2000/svg" xmlns:xlink="http://www.w3.org/1999/xlink" xml:space="preserve" xmlns:serif="http://www.serif.com/" style="fill-rule:evenodd;clip-rule:evenodd;stroke-linecap:round;stroke-linejoin:round;">
    <g transform="matrix(1,0,0,1,-1936.75,-2185.5)">
        <g transform="matrix(10,0,0,10,0,0)">
            <g id="shape0">
                <path d="M198.5,252.05L198.55,251.95C200.017,250.683 201.75,249.883 203.75,249.55C204.783,249.717 205.75,250.017 206.65,250.45C207.45,250.85 208.217,251.35 208.95,251.95C210.983,254.283 212.317,256.833 212.95,259.6C211.15,260.2 210.517,261.65 211.05,263.95L211,264.05L210.2,264.4C209.533,264.833 208.8,265.15 208,265.35L203,265.7L202.85,265.5L202.8,264.8L202.35,264.6L202.35,264.65L202.2,264.85L201.2,263.85L201.3,263.8C202.1,263.167 202.45,262.333 202.35,261.3C201.383,260.6 200.367,260.467 199.3,260.9L199.05,260.3C198.417,258.533 198.133,256.617 198.2,254.55L198.5,252.05M207.95,242.95C209.55,236.283 212.833,230.167 217.8,224.6C221.367,221.533 225.583,219.6 230.45,218.8C235.317,219.6 239.533,221.533 243.1,224.6L243.3,224.8C243.667,226.767 243.883,228.767 243.95,230.8C244.083,235.8 243.383,240.4 241.85,244.6L241.3,246.1C238.667,245.1 236.167,245.4 233.8,247C233.533,249.533 234.383,251.533 236.35,253L236.65,253.2C235.883,254.033 235.05,254.817 234.15,255.55L233.9,255.05L233.8,255L232.8,255.4C232.6,256 232.533,256.583 232.6,257.15L232.2,257.6C228.233,258.1 224.183,257.833 220.05,256.8C218.117,256.333 216.317,255.583 214.65,254.55C214.083,254.183 213.467,253.867 212.8,253.6L212.65,253.35C213.883,247.85 212.317,244.383 207.95,242.95M218.2,240C219.367,244.333 221.367,244.7 224.2,241.1C225.6,239.367 225.267,238.067 223.2,237.2L223.4,236.8C221.167,236.6 219.5,237.533 218.4,239.6L218.2,240M240.4,231.8C239.4,231 238.2,230.533 236.8,230.4L238.4,230.2L234.8,230.2C232.8,232.533 231.6,235.333 231.2,238.6L232,239.05L229.2,242.4L229,243.4L233.25,239.55L233.4,239.6L233.35,240.8C233.25,241.4 233.4,241.867 233.8,242.2C234.1,242.2 234.317,242.067 234.45,241.8L234.75,241L234.8,240.8C234.933,240.533 235.033,240.583 235.1,240.95L235.45,241.55L236,241.8L236.65,241.05L236.8,241L237.4,241L237.6,239.6C239.933,238.333 241,236.333 240.8,233.6L240.4,231.8M228.2,227.2L226.25,226.7C225.75,227.233 225.533,227.933 225.6,228.8L225.6,229C226.267,229.467 227.067,229.6 228,229.4C228.3,228.967 228.417,228.433 228.35,227.8L228.2,227.2M226.25,226.7L226.6,226.4L225.8,226.6L226.25,226.7M239.6,244.2L241,244C241.5,243.533 241.617,242.967 241.35,242.3L241,242L240.4,242.2C239.333,242.167 238.983,242.683 239.35,243.75L239.6,244.2M199.65,259.3L199.4,259.2L199.25,259.35C199.15,259.617 199.2,259.85 199.4,260.05L200,260.1L200.1,259.95C200.233,259.483 200.083,259.267 199.65,259.3M201.95,254.3L200.5,254.3L201.15,254.4C200.55,254.433 200.05,254.617 199.65,254.95C199.55,255.183 199.5,255.433 199.5,255.7C199.4,256.833 199.833,257.667 200.8,258.2L200.9,258.8L201.2,258.8L201.45,259.1L201.7,259L201.85,258.75C201.85,258.617 201.883,258.6 201.95,258.7L202,258.8L202.1,259.1L202.35,259.3L202.55,258.7L202.55,258.2L202.6,258.2L204.35,259.8L204.25,259.35L203.1,258L203.45,257.8C203.283,256.433 202.783,255.267 201.95,254.3M231,252.2L229.6,252.2L229.4,253.6L231,253.8C231.533,253.533 231.7,253.167 231.5,252.7L231,252.2M203.3,263.65C203.2,263.85 203.267,264 203.5,264.1L204.15,264.05L204.1,263.45L203.5,263.45L203.3,263.65M207.05,257.05L206.65,257.05L206.7,257.2C205.867,257.567 205.733,258.117 206.3,258.85C206.967,259.717 207.533,260.017 208,259.75C208.3,259.583 208.55,259.117 208.75,258.35L208.7,258.2C208.3,257.467 207.75,257.083 207.05,257.05M204.65,253.05L204.6,253.3L204.75,253.95L205.75,253.8L205.75,253.7C205.783,253.333 205.7,253.05 205.5,252.85L205.65,252.8L205.3,252.7L205.5,252.85L204.65,253.05" style="fill:#fffdea;"/>
                <path d="M216.9,268.7L213.15,266.15C212.35,267.917 211.067,269.3 209.3,270.3C209.667,269.367 209.65,268.417 209.25,267.45C208.817,266.45 208.033,266.033 206.9,266.2L206.8,266.3C206.6,266.367 206.45,266.517 206.35,266.75L206,267.25L206,267.75L206.3,267.95L206.7,268.85L205.15,269.25L205.1,268.5L205.3,267.95L205.3,267.75L204.9,267.35L202.55,267.2C201.183,267.133 200.083,267.633 199.25,268.7L198.75,268.55L198.45,268.4L198.35,268.1L198.45,267.6L198.5,267.5L199.15,267.4L199.3,267.25L199.4,267L199.15,265.95C198.717,265.917 198.3,265.767 197.9,265.5L197.3,265.3L196.85,264.7L196.1,262.35C195.6,260.717 195.3,259.067 195.2,257.4C195.933,255.5 197.033,253.717 198.5,252.05L198.2,254.55C198.133,256.617 198.417,258.533 199.05,260.3L199.3,260.9C200.367,260.467 201.383,260.6 202.35,261.3C202.45,262.333 202.1,263.167 201.3,263.8L201.2,263.85L202.2,264.85L202.35,264.65L202.35,264.6L202.8,264.8L202.85,265.5L203,265.7L208,265.35C208.8,265.15 209.533,264.833 210.2,264.4L211,264.05L211.05,263.95C210.517,261.65 211.15,260.2 212.95,259.6C212.317,256.833 210.983,254.283 208.95,251.95C208.217,251.35 207.45,250.85 206.65,250.45C206.717,249.25 206.883,248.05 207.15,246.85L207.4,245.6L207.95,242.95C212.317,244.383 213.883,247.85 212.65,253.35L212.8,253.6C213.467,253.867 214.083,254.183 214.65,254.55C216.317,255.583 218.117,256.333 220.05,256.8C224.183,257.833 228.233,258.1 232.2,257.6L232.6,257.15C232.533,256.583 232.6,256 232.8,255.4L233.8,255L233.9,255.05L234.15,255.55C235.05,254.817 235.883,254.033 236.65,253.2L236.35,253C234.383,251.533 233.533,249.533 233.8,247C236.167,245.4 238.667,245.1 241.3,246.1L241.85,244.6C243.383,240.4 244.083,235.8 243.95,230.8C243.883,228.767 243.667,226.767 243.3,224.8C246.8,228.8 249.467,233.083 251.3,237.65C251,241.683 250.25,245.667 249.05,249.6L247.2,255.2L246.2,256.6C245.7,256.633 245.217,256.8 244.75,257.1C243.75,257.8 242.7,258.167 241.6,258.2L241,260.8L241.25,261.35L241.7,261.65L243.2,262L243.4,262.2L243.6,263.4L243.3,264.05L242.65,264.5L241.4,264.8C239.333,262.267 236.667,261.067 233.4,261.2C231.433,260.833 229.5,260.967 227.6,261.6L226.8,262.4L226.65,262.6L226.6,263L227.2,264.4L227,266.2L223.2,265.2L224.2,263L225,262.6L225,261.4L224.05,260.1L223,259L222.8,258.8C219.967,258.467 218.033,259.483 217,261.85C216.033,264.15 216,266.433 216.9,268.7M218.2,240L218.4,239.6C219.5,237.533 221.167,236.6 223.4,236.8L223.2,237.2C225.267,238.067 225.6,239.367 224.2,241.1C221.367,244.7 219.367,244.333 218.2,240M237.8,233L237,233C235.5,233.567 234.767,234.633 234.8,236.2L234.8,236.6C235.433,237 236.167,237.133 237,237L237.8,237L238.8,235.2C238.867,234.633 238.717,234.117 238.35,233.65L237.8,233M228.2,227.2L228.35,227.8C228.417,228.433 228.3,228.967 228,229.4C227.067,229.6 226.267,229.467 225.6,229L225.6,228.8C225.533,227.933 225.75,227.233 226.25,226.7L228.2,227.2M240.4,231.8L240.8,233.6C241,236.333 239.933,238.333 237.6,239.6L237.4,241L236.8,241L236.65,241.05L236,241.8L235.45,241.55L235.1,240.95C235.033,240.583 234.933,240.533 234.8,240.8L234.75,241L234.45,241.8C234.317,242.067 234.1,242.2 233.8,242.2C233.4,241.867 233.25,241.4 233.35,240.8L233.4,239.6L233.25,239.55L229,243.4L229.2,242.4L232,239.05L231.2,238.6C231.6,235.333 232.8,232.533 234.8,230.2L238.4,230.2L236.8,230.4C238.2,230.533 239.4,231 240.4,231.8M226.25,226.7L225.8,226.6L226.6,226.4L226.25,226.7M239.6,244.2L239.35,243.75C238.983,242.683 239.333,242.167 240.4,242.2L241,242L241.35,242.3C241.617,242.967 241.5,243.533 241,244L239.6,244.2M201.95,256.8C201.95,256.133 201.65,255.683 201.05,255.45L200.75,255.45L200.5,255.75C200.333,255.917 200.267,256.133 200.3,256.4L200.75,257.15L201.05,257.15L201.95,256.95L201.95,256.8M201.95,254.3C202.783,255.267 203.283,256.433 203.45,257.8L203.1,258L204.25,259.35L204.35,259.8L202.6,258.2L202.55,258.2L202.55,258.7L202.35,259.3L202.1,259.1L202,258.8L201.95,258.7C201.883,258.6 201.85,258.617 201.85,258.75L201.7,259L201.45,259.1L201.2,258.8L200.9,258.8L200.8,258.2C199.833,257.667 199.4,256.833 199.5,255.7C199.5,255.433 199.55,255.183 199.65,254.95C200.05,254.617 200.55,254.433 201.15,254.4L200.5,254.3L201.95,254.3M199.65,259.3C200.083,259.267 200.233,259.483 200.1,259.95L200,260.1L199.4,260.05C199.2,259.85 199.15,259.617 199.25,259.35L199.4,259.2L199.65,259.3M231,252.2L231.5,252.7C231.7,253.167 231.533,253.533 231,253.8L229.4,253.6L229.6,252.2L231,252.2M204.65,253.05L205.5,252.85L205.3,252.7L205.65,252.8L205.5,252.85C205.7,253.05 205.783,253.333 205.75,253.7L205.75,253.8L204.75,253.95L204.6,253.3L204.65,253.05M207.05,257.05C207.75,257.083 208.3,257.467 208.7,258.2L208.75,258.35C208.55,259.117 208.3,259.583 208,259.75C207.533,260.017 206.967,259.717 206.3,258.85C205.733,258.117 205.867,257.567 206.7,257.2L206.65,257.05L207.05,257.05M203.3,263.65L203.5,263.45L204.1,263.45L204.15,264.05L203.5,264.1C203.267,264 203.2,263.85 203.3,263.65M212.95,259.6L213.2,260.7L213.3,261.2L213.5,262.85C213.567,263.983 213.467,265.067 213.2,266.1L213.15,266.15L213.2,266.1C213.467,265.067 213.567,263.983 213.5,262.85L213.3,261.2L213.2,260.7L212.95,259.6" style="fill:#d9cebf;"/>
                <path d="M251.3,237.65C252.3,240.183 253.033,242.833 253.5,245.6C254.633,250.167 254.633,254.5 253.5,258.6C251.067,263.9 246.85,267.783 240.85,270.25L238.45,271.1C235.783,271.9 233.117,272.3 230.45,272.3C227.783,272.3 225.133,271.9 222.5,271.1L220.05,270.25C218.917,269.783 217.867,269.267 216.9,268.7C216,266.433 216.033,264.15 217,261.85C218.033,259.483 219.967,258.467 222.8,258.8L223,259L224.05,260.1L225,261.4L225,262.6L224.2,263L223.2,265.2L227,266.2L227.2,264.4L226.6,263L226.65,262.6L226.8,262.4L227.6,261.6C229.5,260.967 231.433,260.833 233.4,261.2C236.667,261.067 239.333,262.267 241.4,264.8L242.65,264.5L243.3,264.05L243.6,263.4L243.4,262.2L243.2,262L241.7,261.65L241.25,261.35L241,260.8L241.6,258.2C242.7,258.167 243.75,257.8 244.75,257.1C245.217,256.8 245.7,256.633 246.2,256.6L247.2,255.2L249.05,249.6C250.25,245.667 251,241.683 251.3,237.65M209.3,270.3L208,270.95L207,271.3L203.75,271.8L200.45,271.3L199.5,270.95C197.033,269.917 195.3,268.3 194.3,266.1C193.8,264.4 193.8,262.6 194.3,260.7C194.467,259.567 194.767,258.467 195.2,257.4C195.3,259.067 195.6,260.717 196.1,262.35L196.85,264.7L197.3,265.3L197.9,265.5C198.3,265.767 198.717,265.917 199.15,265.95L199.4,267L199.3,267.25L199.15,267.4L198.5,267.5L198.45,267.6L198.35,268.1L198.45,268.4L198.75,268.55L199.25,268.7C200.083,267.633 201.183,267.133 202.55,267.2L204.9,267.35L205.3,267.75L205.3,267.95L205.1,268.5L205.15,269.25L206.7,268.85L206.3,267.95L206,267.75L206,267.25L206.35,266.75C206.45,266.517 206.6,266.367 206.8,266.3L206.9,266.2C208.033,266.033 208.817,266.45 209.25,267.45C209.65,268.417 209.667,269.367 209.3,270.3M237.8,233L238.35,233.65C238.717,234.117 238.867,234.633 238.8,235.2L237.8,237L237,237C236.167,237.133 235.433,237 234.8,236.6L234.8,236.2C234.767,234.633 235.5,233.567 237,233L237.8,233M201.95,256.8L201.95,256.95L201.05,257.15L200.75,257.15L200.3,256.4C200.267,256.133 200.333,255.917 200.5,255.75L200.75,255.45L201.05,255.45C201.65,255.683 201.95,256.133 201.95,256.8" style="fill:#bca887;"/>
                <path d="M251.3,237.65C252.3,240.183 253.033,242.833 253.5,245.6C254.633,250.167 254.633,254.5 253.5,258.6C251.067,263.9 246.85,267.783 240.85,270.25L238.45,271.1C235.783,271.9 233.117,272.3 230.45,272.3C227.783,272.3 225.133,271.9 222.5,271.1L220.05,270.25C218.917,269.783 217.867,269.267 216.9,268.7L213.15,266.15C212.35,267.917 211.067,269.3 209.3,270.3L208,270.95L207,271.3L203.75,271.8L200.45,271.3L199.5,270.95C197.033,269.917 195.3,268.3 194.3,266.1C193.8,264.4 193.8,262.6 194.3,260.7C194.467,259.567 194.767,258.467 195.2,257.4C195.933,255.5 197.033,253.717 198.5,252.05L198.55,251.95C200.017,250.683 201.75,249.883 203.75,249.55C204.783,249.717 205.75,250.017 206.65,250.45C206.717,249.25 206.883,248.05 207.15,246.85L207.4,245.6L207.95,242.95C209.55,236.283 212.833,230.167 217.8,224.6C221.367,221.533 225.583,219.6 230.45,218.8C235.317,219.6 239.533,221.533 243.1,224.6L243.3,224.8C246.8,228.8 249.467,233.083 251.3,237.65M212.95,259.6C212.317,256.833 210.983,254.283 208.95,251.95C208.217,251.35 207.45,250.85 206.65,250.45M213.15,266.15L213.2,266.1C213.467,265.067 213.567,263.983 213.5,262.85L213.3,261.2L213.2,260.7L212.95,259.6" style="fill:none;fill-rule:nonzero;stroke:#5a451b;stroke-width:0.5px;"/>
            </g>
        </g>
    </g>
</svg>
