<?xml version="1.0" encoding="UTF-8"?>
<svg version="1.1" viewBox="0 0 64.866 32.308" xmlns="http://www.w3.org/2000/svg" xmlns:cc="http://creativecommons.org/ns#" xmlns:dc="http://purl.org/dc/elements/1.1/" xmlns:rdf="http://www.w3.org/1999/02/22-rdf-syntax-ns#" xmlns:xlink="http://www.w3.org/1999/xlink">
<metadata>
<rdf:RDF>
<cc:Work rdf:about="">
<dc:format>image/svg+xml</dc:format>
<dc:type rdf:resource="http://purl.org/dc/dcmitype/StillImage"/>
</cc:Work>
</rdf:RDF>
</metadata>
<g transform="translate(-281.31 -220.44)">
<use transform="matrix(.0073 .3179 .8592 -.0197 301.79 225.59)" width="54.799999" height="39.5" xlink:href="#a"/>
<use transform="matrix(.0089 .3908 1.0561 -.0242 279.31 229.37)" width="54.799999" height="39.5" xlink:href="#a"/>
<use transform="matrix(-.7987 -.1656 -.1746 .8421 351.57 227.51)" width="54.799999" height="39.5" xlink:href="#a"/>
<use transform="matrix(.9979 -.0621 .0621 .9979 283.76 220.57)" width="54.799999" height="39.5" xlink:href="#a"/>
</g>
<defs>
<g id="a" transform="translate(-.45 -.1)">
<use transform="matrix(-.7803 -.2124 -.2282 .7263 55.25 12.45)" width="34.75" height="31" xlink:href="#b"/>
<use transform="matrix(.959 -.2804 .2804 .959 .45 9.85)" width="34.75" height="31" xlink:href="#b"/>
</g>
<g id="b">
<use width="34.75" height="31" xlink:href="#c"/>
</g>
<g id="c">
<path d="m12.75 6.35 0.2-0.05-0.1 0.3-0.1-0.25m17.2 7.65-0.15 0.15-0.15-0.1 0.3-0.05" fill="#ffe570" fill-rule="evenodd"/>
<path d="m17.95 12.75 0.1-0.05v0.05h-0.1m0.3 2.4h0.1v0.05h-0.05l-0.05-0.05" fill="#cd8249" fill-rule="evenodd"/>
<path d="m22.05 17.4q0 0.6-0.95 1.05l-4.05-1.75h-1.3l-0.6 0.2-2.15-1.15v1.15q-0.85 0.05-1.65 0.5l-0.05 0.05q0.6-1.4 1.75-2.6 1.65 0.85 3.8 0.9l2.1-0.15q1.8 0.1 3.1 1.8" fill="#fefef8" fill-rule="evenodd"/>
<path d="m12.85 6.9v0.05-0.05m-6.15 0.7-0.25-0.5 0.25 0.5" fill="#ffdcf5" fill-rule="evenodd"/>
<path d="m25.95 13.5h-0.05v-0.05l0.05 0.05" fill="#fbefc4" fill-rule="evenodd"/>
<path d="m18.85 7.45-0.2-0.65 0.4 0.6-0.2 0.05" fill="#eabd4f" fill-rule="evenodd"/>
<path d="m25.9 13.5h-0.05l0.05-0.05v0.05" fill="#a8a352" fill-rule="evenodd"/>
<path d="m32.5 9.25q-0.75 0.55-1.85 0.65l-0.25 0.15-0.8 0.25-0.25 0.35q-0.9 1.7 0.3 3.4l0.15 0.1 0.15-0.15 0.3-0.35q0.7-0.75 1.55-0.9l0.05 0.75q-1.45 0.7-2 1.9v1.45q0.65 1.25 2.05 2.5l2.15 0.15-0.95 2q-0.5 1.35-2 2.65-0.8 0.25-1.95 0l1.45-3.7q-0.3-1.55-1.35-2.9-0.35-0.45-1.5-0.75-1.15 2.45-0.9 4.8 0.2 1.45 1.35 2.8l0.55 0.4-1.1 0.8-2.9 0.05q-0.2 1.4 0.55 2.6 0.2 0.9 2.8 1.3 2.95 0.05 4.55-1.05-0.45 1.15-1.3 1.5-2 0.9-4.75 1-1.4-0.15-2.95-1-1.05-0.8-1.3-1.75-0.05-1.05 0.8-2.1-1.9 0.5-4.2 0-2.25-1.15-2.8-2.5l-2.05-1.4-1.65-1.7-0.6 0.35q-1.3 1.45-1.25 3.7 0.2 1.8 3.8 4-1.25 0.3-3.05-0.8-1.75-1.25-2.6-2.7-0.5-1.4 0-2.85 0.8-1.4 2-1.9v-1.2l-5.1 0.2q-1.8-0.15-2.75-1-0.3-0.8-0.1-1.55 0.45 0.7 3.1 1 3-0.1 4.85-1.35 1.65-1.1 1.95-2.25l-0.4-0.55-0.5-0.2-0.1-0.05h-1.55l-1.05-0.1-1.75 0.3-1.6 0.5-0.75 0.3-0.85-0.25-1.6-0.7-1.5-0.9 1.4 0.5 2.4 0.15q2.45-0.05 2.85-2.45l-0.75-0.6v-0.2l-0.1-0.05-0.85-1.7 0.45 0.2v-1.3l0.25 0.5q0.55 2.15 3.15 2.75 2.65 0 3.4-2.45l-0.4-0.95v-0.35l0.1-0.3h0.1q1.55 0.65 1.95 2.55 0.45 2.15 1.25 4.15 0.85 0.55 1.7-0.25h0.1l0.2 2.4 0.05 0.05h0.05v-0.05l0.75-0.35q0.65-0.5 0.75-1.4v-1.55l-1.6-1.95-0.35-1.95q-0.45-1.35 0-2.7l0.75 1.55 0.2 0.65 0.3 0.8q1.05 2.75 3.35 4.65l1.7-0.2 0.25-0.35 0.65-1.85-0.65-0.55-0.4-1.3h1.8l1.15-0.3 0.25-0.85q0.4-2.3-1.6-3.65-0.3-1.45 0.55-2.75 0.55-0.8 1.5-1-0.35 0.85-0.4 1.7-0.05 1.1 0.4 2.2 0.7 2.2 3 4.25 0.45 0.6 1.8 1m-6.55 4.25 0.55-0.25 0.3-0.2q0.8-1.1 0.85-2.55l-0.2-0.25-0.9-0.7h-0.1q-1.15 0.2-1.25 1.45-0.05 1.1 0.3 2.15l0.35 0.35h0.1m-4.85 4.95 0.4 0.75q-1-0.95-3.5-1.7l-1.7-0.05q-2.65 0.1-4.4 1.7l0.3 0.7q2.5 1.25 4.05 1.15 3.1 0.05 5.65-1.15l0.15 0.3q-2.55 0.7-3.2 1.9-0.4 0.95 1 1.7 2.65 1.05 5.25 0.9 1.25-0.65 0.7-1.35l-2.3-1.35-0.95-0.85h1.15q-0.65-1.95 0-3.75l-1.65 0.05q-1.3-1.7-3.1-1.8l-2.1 0.15q-2.15-0.05-3.8-0.9-1.15 1.2-1.75 2.6l0.05-0.05q0.8-0.45 1.65-0.5h2.15l0.6-0.2h1.3l4.05 1.75" fill="#4d4019" fill-rule="evenodd"/>
<path d="m27.7 0.1 0.4-0.1q1.9 0.1 2.85 0.95 1.7 1.4 2.4 3.05 0.7 1.85 0.2 3.7-3.4-0.95-6.25-5.9 0.05-0.85 0.4-1.7m2.95 9.8q1 1.35 1.15 2.85-0.85 0.15-1.55 0.9l-0.5-1.85 0.65-1.1v-0.65l0.25-0.15m1.2 3.6h1.05q1.1 0.45 1.25 0.9l0.35 1.15 0.25 1.7-0.25 1-0.45 1.25-2.15-0.15q-1.4-1.25-2.05-2.5v-1.45q0.55-1.2 2-1.9m-2.7 10.65-0.4 0.65-0.55-0.4q-1.15-1.35-1.35-2.8-0.25-2.35 0.9-4.8 1.15 0.3 1.5 0.75 1.05 1.35 1.35 2.9l-1.45 3.7m-1.5 1.45q4.45 1.1 5 2.9-1.6 1.1-4.55 1.05-2.6-0.4-2.8-1.3-0.75-1.2-0.55-2.6l2.9-0.05m-13.55-3.35q1.15 2.75 1.1 5.35 0 0.6-0.8 1-4.95-3.95-1.95-8.05l1.65 1.7m-11.3-5.45 0.1-0.3 0.75-0.95 1.35-1.15 0.75-0.3 1.6-0.5 1.75-0.3 1.05 0.1h1.55l0.1 0.05-0.6 1.1q-3 2.95-8.4 2.25m-1.75-4.25-0.9-1.25q-0.4-1.4 0.15-2.35 0.55-1 2.2-1.55 1.5-0.05 3.5 0.8l0.85 1.7 0.1 0.05v0.2l-0.5 1.2q-0.5 0.65-1.5 0.9l-3.9 0.3m5.4-5.45q0-1.7 0.7-2.7 0.85-0.9 2.2-0.65 2.05 0.7 3.4 2.6l0.1 0.25v0.35q-0.2 0.65-1.15 1.35-2.4 1.55-5.25-1.2m6.6-0.8 1.9 0.05q1.5 0.4 2.95 1.6l0.35 1.95q0.2 1.4-0.2 2.8l-0.1 0.05q-0.85 0.8-1.7 0.25-0.8-2-1.25-4.15-0.4-1.9-1.95-2.55m4.85-1.05q0.8-0.75 2.7 0 2.5 1.3 3.45 3.4l0.4 1.3-1 2.15q-1.1-0.45-2.25-1.85l-2.15-2.85-0.4-0.6-0.75-1.55m2.7-0.75 0.5-0.65q2.1-1.05 4.55 0 2 1.35 1.6 3.65-1.8 0-3.6-0.85l-3.05-2.15m5.25 9-0.35-0.35q-0.35-1.05-0.3-2.15 0.1-1.25 1.25-1.45h0.1l-0.1 0.7-0.55 3.2-0.05 0.05m-4.35 5.7 0.4 0.65q-2.55 1.2-5.65 1.15-1.55 0.1-4.05-1.15l-0.3-0.7q1.75-1.6 4.4-1.7l1.7 0.05q2.5 0.75 3.5 1.7m0.55 0.95 0.5 0.95 0.95 0.85 2.3 1.35q0.55 0.7-0.7 1.35-2.6 0.15-5.25-0.9-1.4-0.75-1-1.7 0.65-1.2 3.2-1.9" fill="#7a763f" fill-rule="evenodd"/>
<path d="m33.55 7.7-0.05 0.15q-0.35 0.9-1 1.4-1.35-0.4-1.8-1-2.3-2.05-3-4.25-0.45-1.1-0.4-2.2 2.85 4.95 6.25 5.9m-12.95-2.45v-0.75l3.05 2.15q1.8 0.85 3.6 0.85l-0.25 0.85-1.15 0.3h-1.8q-0.95-2.1-3.45-3.4m9.8 4.8v0.65l-0.65 1.1 0.5 1.85-0.3 0.35-0.3 0.05q-1.2-1.7-0.3-3.4l0.25-0.35 0.8-0.25m-5.95-0.1 0.65 0.55-0.65 1.85-0.25 0.35-1.7 0.2q-2.3-1.9-3.35-4.65l-0.3-0.8 0.2-0.05 2.15 2.85q1.15 1.4 2.25 1.85l1-2.15m2.1-0.4 0.9 0.7 0.2 0.25q-0.05 1.45-0.85 2.55l-0.3 0.2-0.55 0.25-0.05-0.05 0.55-3.2 0.1-0.7m-13.7-2.6 0.4 0.95q-0.75 2.45-3.4 2.45-2.6-0.6-3.15-2.75l-0.25-0.5q2.85 2.75 5.25 1.2 0.95-0.7 1.15-1.35m-11.8 5.6 3.9-0.3q1-0.25 1.5-0.9l0.5-1.2 0.75 0.6q-0.4 2.4-2.85 2.45l-2.4-0.15-1.4-0.5m10.75 0.9 0.5 0.2 0.4 0.55q-0.3 1.15-1.95 2.25-1.85 1.25-4.85 1.35-2.65-0.3-3.1-1 5.4 0.7 8.4-2.25l0.6-1.1m2.6 15.15q-3.6-2.2-3.8-4-0.05-2.25 1.25-3.7l0.6-0.35q-3 4.1 1.95 8.05" fill="#5b5831" fill-rule="evenodd"/>
<path d="m27.7 0.1 0.4-0.1q1.9 0.1 2.85 0.95 1.7 1.4 2.4 3.05 0.7 1.85 0.2 3.7l-0.05 0.15q-0.35 0.9-1 1.4-0.75 0.55-1.85 0.65 1 1.35 1.15 2.85l0.05 0.75h1.05q1.1 0.45 1.25 0.9l0.35 1.15 0.25 1.7-0.25 1-0.45 1.25-0.95 2q-0.5 1.35-2 2.65-0.8 0.25-1.95 0l-0.4 0.65-1.1 0.8q4.45 1.1 5 2.9-0.45 1.15-1.3 1.5-2 0.9-4.75 1-1.4-0.15-2.95-1-1.05-0.8-1.3-1.75-0.05-1.05 0.8-2.1-1.9 0.5-4.2 0-2.25-1.15-2.8-2.5l-2.05-1.4q1.15 2.75 1.1 5.35 0 0.6-0.8 1-1.25 0.3-3.05-0.8-1.75-1.25-2.6-2.7-0.5-1.4 0-2.85 0.8-1.4 2-1.9v-1.2l-5.1 0.2q-1.8-0.15-2.75-1-0.3-0.8-0.1-1.55l0.1-0.3 0.75-0.95 1.35-1.15-0.85-0.25-1.6-0.7-1.5-0.9-0.9-1.25q-0.4-1.4 0.15-2.35 0.55-1 2.2-1.55 1.5-0.05 3.5 0.8l0.45 0.2v-1.3q0-1.7 0.7-2.7 0.85-0.9 2.2-0.65 2.05 0.7 3.4 2.6l0.2-0.05h0.1l1.9 0.05q1.5 0.4 2.95 1.6-0.45-1.35 0-2.7 0.8-0.75 2.7 0v-0.75l0.5-0.65q2.1-1.05 4.55 0-0.3-1.45 0.55-2.75 0.55-0.8 1.5-1m-0.7 8.25 0.25-0.85q0.4-2.3-1.6-3.65m-3.6 13.55q0 0.6-0.95 1.05l0.4 0.75 0.4 0.65 0.15 0.3 0.5 0.95h1.15q-0.65-1.95 0-3.75l-1.65 0.05m-9.05-0.5v-1.15l2.15 1.15m-2.3-10.3-0.1-0.25m5.3 6.35q0.4-1.4 0.2-2.8m0.1 5.25 0.75-0.35q0.65-0.5 0.75-1.4v-1.55l-1.6-1.95m-6.55 3.5 0.1 0.05m6.25-0.75v0.05l0.2 2.4h0.1m-5.35 1.75h2.15" fill="none" stroke="#906b41" stroke-linecap="round" stroke-linejoin="round" stroke-width=".05"/>
</g>
</defs>
</svg>
