<?xml version="1.0" encoding="UTF-8" standalone="no"?>
<!DOCTYPE svg PUBLIC "-//W3C//DTD SVG 1.1//EN" "http://www.w3.org/Graphics/SVG/1.1/DTD/svg11.dtd">
<svg width="100%" height="100%" viewBox="0 0 276 237" version="1.1" xmlns="http://www.w3.org/2000/svg" xmlns:xlink="http://www.w3.org/1999/xlink" xml:space="preserve" xmlns:serif="http://www.serif.com/" style="fill-rule:evenodd;clip-rule:evenodd;stroke-linecap:round;stroke-linejoin:round;">
    <g transform="matrix(1,0,0,1,-2616.05,-1877.25)">
        <g transform="matrix(10,0,0,10,0,0)">
            <g id="shape0">
                <path d="M272.45,197.25L270.7,196.7L268.9,196.2C268.2,195.9 267.783,195.65 267.65,195.45C267.517,195.283 267.5,194.967 267.6,194.5L270.55,195.6L271.8,196.55L272.5,197.2L272.7,197.35L272.45,197.25M268.85,195.3L270.3,196L271.8,196.55L270.3,196L268.85,195.75L270.3,196L268.85,195.3M265.8,197.3C266.6,196.867 267.5,196.667 268.5,196.7L271.5,198.5L271.55,198.55L271.45,198.55C270.917,198.55 270.367,198.75 269.8,199.15C269.167,199.583 268.667,199.817 268.3,199.85C267.633,199.883 267.167,199.767 266.9,199.5C266.633,199.2 266.267,198.467 265.8,197.3M278.8,197.2L281.15,196.5L287.25,195.65C287.417,196.017 287.383,196.267 287.15,196.4L284.6,197L280.8,197.4L279.1,197.55L278.8,197.6L278.25,197.65L276.65,197.9L278.05,197.4L278.8,197.2M279.75,198.9L283.95,198.8C285.75,199.267 287.35,199.9 288.75,200.7C287.517,201.6 286.633,202.117 286.1,202.25L283.4,201.9C282.7,201.7 281.85,201.233 280.85,200.5L280.25,200.1L279.85,199.85L278.95,199.4L278.4,199.2L277.8,199.05L278.15,199.05L278.85,199L279.75,198.9M284.65,196.3L281.65,196.85L278.8,197.6L281.65,196.85L284.65,196.3M284.65,196.65L281.65,196.85L284.65,196.65M285.7,200.5L282.9,199.85L280.2,199.25L282.9,199.85L285.7,200.5M267.85,198.9L268.85,198L270.3,198.15L268.85,198L267.85,198.9M284.5,201.25L282.9,199.85L284.5,201.25M267.35,197.85L268.85,198L267.35,197.85" style="fill:#d5ecf4;"/>
                <path d="M272.45,197.25L272.7,197.35L272.5,197.2L272.65,197.05L273.05,197.4C272.583,197.567 272.167,197.833 271.8,198.2L272.45,197.25M277.1,198.3L276.65,197.9C276.117,197.5 275.533,197.267 274.9,197.2L274.6,197.15L276.55,196.65L276.8,196.4C277.133,196.567 277.467,196.817 277.8,197.15L277.9,197.2L278.05,197.4L277.9,197.2L277.8,197.15L278.55,197.25L278.7,197.1L278.8,197.2L278.05,197.4L276.65,197.9L278.25,197.65L278.8,197.6L279.1,197.55L279.75,198.9L278.85,199C278.717,198.5 278.517,198.05 278.25,197.65C278.517,198.05 278.717,198.5 278.85,199L278.15,199.05L277.1,198.3M280.25,200.1L280.35,200.8L280.25,201.45L279.75,200.8C279.483,201.067 279.233,200.733 279,199.8L278.4,199.2L278.95,199.4L279.85,199.85L280.25,200.1M279.75,200.8L279.85,199.95L279.85,199.85L279.85,199.95L279.75,200.8M279,199.8L278.95,199.4L279,199.8" style="fill:#f38601;"/>
                <path d="M273.05,197.4L272.65,197.05C273.35,196.35 274.2,196 275.2,196L275.7,196.05L275.85,196.1L275.85,196.05L276.2,196C277.167,196 278,196.367 278.7,197.1L278.55,197.25L277.8,197.15C277.467,196.817 277.133,196.567 276.8,196.4L276.55,196.65L274.6,197.15L274.4,197.15L274.05,197.2L273.05,197.4M275.85,196.1L276.8,196.4L275.85,196.1" style="fill:#ffc163;"/>
                <path d="M274.05,197.2L274.4,197.15L274.6,197.15L274.9,197.2C275.533,197.267 276.117,197.5 276.65,197.9L277.1,198.3L277.25,198.45C276.45,198.65 276.1,199.267 276.2,200.3L276.15,201.55L275.6,200.85C275.4,200.717 275.217,200.633 275.05,200.6L274.55,200.6C274.183,200.7 273.917,200.933 273.75,201.3C273.583,201.667 273.55,202.05 273.65,202.45L273.7,202.55L273.7,202.6C273.8,203.033 274.017,203.367 274.35,203.6L275.45,203.85L275.5,203.85L275.55,203.8L275.35,204.2L275.05,204.2C274.817,204.2 274.65,204.25 274.55,204.35L274.5,204.35L274.45,204.4L274.1,204.25L273.75,204.2L273.05,204.35L272.85,204.2L272.55,204.1L272.25,204.05L272.05,203.25L272.45,202.7L272.6,202.05L272.6,201.95L272.55,201.45L271.95,200.45C272.05,199.917 272.233,199.417 272.5,198.95C272.8,198.383 273.217,197.883 273.75,197.45L274.05,197.2" style="fill:#50558f;"/>
                <path d="M271.45,198.55L271.55,198.55L271.5,198.5L271.8,198.2C272.167,197.833 272.583,197.567 273.05,197.4L274.05,197.2L273.75,197.45C273.217,197.883 272.8,198.383 272.5,198.95C272.233,199.417 272.05,199.917 271.95,200.45L271.85,200.4C271.65,200.267 271.467,200.183 271.3,200.15L270.8,200.15L270.7,200.2C270.8,199.6 271.05,199.05 271.45,198.55M272.05,203.25L272.25,204.05L272.1,204.05L272.05,203.9L271.65,203.55L271.6,203.55L271.5,203.5L271.45,203.45L271.7,203.4L271.75,203.4L272.05,203.25" style="fill:#9b9fc5;"/>
                <path d="M275.85,196.1L275.7,196.05L275.85,196.05L275.85,196.1" style="fill:#af7030;"/>
                <path d="M277.25,198.45L277.1,198.3L278.15,199.05L277.8,199.05L278.4,199.2L279,199.8C279.233,200.733 279.483,201.067 279.75,200.8L280.25,201.45L279.95,202.2L279.85,202.35L279.45,202.75L278.65,203.3L278.45,203L278.65,203.3L277.5,203.6L277.15,203.7L277.3,203.55L277.9,203L278.25,202.55L277.9,203L277.3,203.55L278.05,202.2L278.2,201C278.2,200.033 277.883,199.183 277.25,198.45M278.95,200.9L279,200.1L279,199.8L279,200.1L278.95,200.9L278.9,201.1L279.25,202.05L278.9,201.1L278.95,200.9M279.75,200.8L279.25,202.05L279.75,200.8M279.25,202.05L279.5,202.7L279.25,202.05L278.75,202.7L278.45,203L278.75,202.7L279.25,202.05M278.25,202.55L278.45,203L278.25,202.55L278.05,202.2L278.25,202.55L278.9,201.1L278.25,202.55M278.45,203L277.5,203.6L278.45,203" style="fill:#a86b31;"/>
                <path d="M275.35,204.2L275.55,203.8L275.6,203.8L275.4,204.2L275.4,204.25L275.4,204.2L275.6,203.8L276.2,203.15L276.35,202.5L276.35,202.3L276.3,201.9L276.15,201.55L276.2,200.3C276.1,199.267 276.45,198.65 277.25,198.45C277.883,199.183 278.2,200.033 278.2,201L278.05,202.2L277.7,201.5L278.05,202.2L277.3,203.55L276.8,204.05L276.05,204.5L275.75,204.65L275.75,204.6L275.35,204.2M276.75,202.05L276.4,203.55L276.8,204.05L276.4,203.55L276.75,202.05M276.75,201.5L276.35,202.3L276.75,201.5" style="fill:#3c3f6a;"/>
                <path d="M271.95,200.45L272.55,201.45L272.6,201.95L272,202.2L271.85,201.35L271.3,200.15C271.467,200.183 271.65,200.267 271.85,200.4L271.95,200.45M272.6,202.05L272.45,202.7L272.05,203.25L271.75,203.4L271.95,202.8L272,202.3L272.6,202.05M275.55,203.8L275.5,203.85L275.75,202.75L275.95,202.65L276.25,202.55L276.35,202.5L276.2,203.15L275.6,203.8L275.55,203.8M275.05,200.6C275.217,200.633 275.4,200.717 275.6,200.85L276.15,201.55L276.3,201.9L276.35,202.3L276.35,202.4L276.3,202.4L276,202.55L275.75,202.65C275.683,201.917 275.45,201.233 275.05,200.6" style="fill:#f3b701;"/>
                <path d="M275.5,203.85L275.45,203.85L274.35,203.6C274.017,203.367 273.8,203.033 273.7,202.6L275.7,202.75L275.75,202.75L275.5,203.85M273.65,202.45C273.55,202.05 273.583,201.667 273.75,201.3C273.917,200.933 274.183,200.7 274.55,200.6L275.05,200.6C275.45,201.233 275.683,201.917 275.75,202.65L273.65,202.45M274.6,201L274.55,200.75C274.017,200.817 273.767,201.117 273.8,201.65L273.95,201.75C274.25,201.283 274.467,201.033 274.6,201M271.45,203.45L270.6,203.15C270.267,202.917 270.05,202.583 269.95,202.15L270.85,202.35L271.85,202.3L272,202.3L271.95,202.8L271.75,203.4L271.7,203.4L271.45,203.45M269.9,202C269.8,201.6 269.833,201.217 270,200.85C270.133,200.517 270.367,200.3 270.7,200.2L270.8,200.15L271.3,200.15L271.85,201.35L272,202.2L271.85,202.2L270.8,202.25L269.9,202M270.8,200.3L270.65,200.3C270.217,200.4 270.017,200.7 270.05,201.2L270.2,201.3L270.6,200.7C270.7,200.6 270.783,200.55 270.85,200.55L270.8,200.3" style="fill:#fed225;"/>
                <path d="M274.6,201C274.467,201.033 274.25,201.283 273.95,201.75L273.8,201.65C273.767,201.117 274.017,200.817 274.55,200.75L274.6,201M270.8,200.3L270.85,200.55C270.783,200.55 270.7,200.6 270.6,200.7L270.2,201.3L270.05,201.2C270.017,200.7 270.217,200.4 270.65,200.3L270.8,200.3" style="fill:#feeba0;"/>
                <path d="M273.7,202.6L273.7,202.55L273.65,202.45L275.75,202.65L275.75,202.75L275.7,202.75L273.7,202.6M269.95,202.15L269.95,202.1L269.9,202L270.8,202.25L271.85,202.2L272,202.2L272,202.3L271.85,202.3L270.85,202.35L269.95,202.15" style="fill:#dfb700;"/>
                <path d="M272.6,201.95L272.6,202.05L272,202.3L272,202.2L272.6,201.95M275.75,202.75L275.75,202.65L276,202.55L276.3,202.4L276.35,202.4L276.35,202.5L276.25,202.55L275.95,202.65L275.75,202.75" style="fill:#8a7100;"/>
                <path d="M275.75,204.65L276.05,204.5L276.75,204.7L277.45,205.2C277.45,205.367 277.2,205.517 276.7,205.65L276.15,205.7L275.75,204.9L276.15,205.7L275.7,205.75L275.7,205.05L275.75,204.9L275.75,204.65" style="fill:#382c16;"/>
                <path d="M272.55,204.1L272.85,204.2L273.05,204.35L272.8,204.6L272.65,205.2L272.55,205.55L272.7,206.4L272.7,206.6L272.3,207.65L272.25,207.7C271.65,206.433 271.633,205.383 272.2,204.55L272.35,204.3L272.55,204.1M273.75,204.2L274.1,204.25L274.45,204.4L274.3,204.85L274.25,205.3L274.3,205.7L274.5,206.05L274.55,206.6C274.617,207.1 274.567,207.467 274.4,207.7L274.4,207.75C273.733,206.95 273.4,206.2 273.4,205.5L273.5,204.75L273.55,204.7L273.65,204.4L273.75,204.2M275.05,204.2L275.35,204.2L275.75,204.6L275.75,204.9L275.7,205.05L275.7,205.75L275.75,205.95L275.7,206.8L275.7,206.85L274.95,205.75L274.85,204.85L274.9,204.6L275,204.35L275.05,204.2M271,205.25L270.85,205.4L270.1,205.8L270.05,205.8C270.317,204.8 270.833,204.183 271.6,203.95L271.85,203.9L272.05,203.9L272.1,204.05L271.8,204.05L271.8,204.1C271.667,204.133 271.583,204.183 271.55,204.25L271.05,205.15L271,205.25" style="fill:#fff;"/>
                <path d="M272.25,204.05L272.55,204.1L272.35,204.3L272.2,204.55C271.633,205.383 271.65,206.433 272.25,207.7L271.75,207.6L271.15,206.5C270.917,206 270.867,205.583 271,205.25L271.05,205.15L271.55,204.25C271.583,204.183 271.667,204.133 271.8,204.1L271.8,204.05L272.25,204.05M273.05,204.35L273.75,204.2L273.65,204.4L273.55,204.7L273.5,204.75L273.4,205.5C273.4,206.2 273.733,206.95 274.4,207.75L273.85,207.8L273,206.85L272.7,206.4L272.55,205.55L272.65,205.2L272.8,204.6L273.05,204.35M274.45,204.4L274.5,204.35L274.55,204.35C274.65,204.25 274.817,204.2 275.05,204.2L275,204.35L274.9,204.6L274.85,204.85L274.95,205.75L275.7,206.85L275.3,206.9L274.6,206.2L274.5,206.05L274.3,205.7L274.25,205.3L274.3,204.85L274.45,204.4M270.05,205.8C269.85,205.767 269.767,205.667 269.8,205.5L270,204.6C270.167,204.167 270.383,203.883 270.65,203.75L271.4,203.5L271.5,203.5L271.6,203.55L271.65,203.55L272.05,203.9L271.85,203.9L271.6,203.95C270.833,204.183 270.317,204.8 270.05,205.8" style="fill:#e8d9c1;"/>
                <path d="M267.6,194.5C267.5,194.967 267.517,195.283 267.65,195.45C267.783,195.65 268.2,195.9 268.9,196.2L270.7,196.7L272.45,197.25L272.7,197.35M271.8,196.55L270.3,196L268.85,195.75M270.3,196L268.85,195.3M265.8,197.3C266.267,198.467 266.633,199.2 266.9,199.5C267.167,199.767 267.633,199.883 268.3,199.85C268.667,199.817 269.167,199.583 269.8,199.15C270.367,198.75 270.917,198.55 271.45,198.55L271.55,198.55M287.25,195.65C287.417,196.017 287.383,196.267 287.15,196.4L284.6,197L280.8,197.4L279.1,197.55L278.8,197.6L278.25,197.65L276.65,197.9M288.75,200.7C287.517,201.6 286.633,202.117 286.1,202.25L283.4,201.9C282.7,201.7 281.85,201.233 280.85,200.5L280.25,200.1L279.85,199.85L278.95,199.4L278.4,199.2L277.8,199.05M278.8,197.6L281.65,196.85L284.65,196.3M281.65,196.85L284.65,196.65M280.2,199.25L282.9,199.85L285.7,200.5M270.3,198.15L268.85,198L267.85,198.9M282.9,199.85L284.5,201.25M268.85,198L267.35,197.85" style="fill:none;fill-rule:nonzero;stroke:#fff;stroke-width:0.05px;"/>
                <path d="M272.65,197.05L272.5,197.2M271.8,198.2L272.45,197.25M280.25,201.45L279.95,202.2M278.65,203.3L279.45,202.75L279.85,202.35M277.15,203.7L277.5,203.6L278.65,203.3" style="fill:none;fill-rule:nonzero;stroke:#000;stroke-width:0.05px;"/>
                <path d="M271.5,198.5L271.8,198.2C272.167,197.833 272.583,197.567 273.05,197.4L274.05,197.2L274.4,197.15L274.6,197.15L274.9,197.2C275.533,197.267 276.117,197.5 276.65,197.9L277.1,198.3L277.25,198.45C277.883,199.183 278.2,200.033 278.2,201L278.05,202.2L277.3,203.55L276.8,204.05L276.05,204.5L275.75,204.65M271.5,203.5L271.45,203.45M270.7,200.2C270.8,199.6 271.05,199.05 271.45,198.55" style="fill:none;fill-rule:nonzero;stroke:#744a21;stroke-width:0.05px;"/>
                <path d="M276.8,196.4L275.85,196.1L275.7,196.05L275.2,196C274.2,196 273.35,196.35 272.65,197.05M275.85,196.05L276.2,196C277.167,196 278,196.367 278.7,197.1L278.8,197.2M279.1,197.55L279.75,198.9M280.25,200.1L280.35,200.8L280.25,201.45M277.8,197.15C277.467,196.817 277.133,196.567 276.8,196.4" style="fill:none;fill-rule:nonzero;stroke:#af7030;stroke-width:0.05px;"/>
                <path d="M278.05,197.4L277.9,197.2L277.8,197.15M278.25,197.65C278.517,198.05 278.717,198.5 278.85,199M279.85,199.85L279.85,199.95L279.75,200.8M278.95,199.4L279,199.8" style="fill:none;fill-rule:nonzero;stroke:#e7c6a7;stroke-width:0.05px;"/>
                <path d="M279,199.8L279,200.1L278.95,200.9M279.25,202.05L279.75,200.8M279.25,202.05L278.75,202.7L278.45,203L277.5,203.6M278.25,202.55L277.9,203L277.3,203.55M278.25,202.55L278.9,201.1" style="fill:none;fill-rule:nonzero;stroke:#4e3216;stroke-width:0.05px;"/>
                <path d="M271.95,200.45L272.55,201.45L272.6,201.95L272.6,202.05L272.45,202.7L272.05,203.25L271.75,203.4M275.55,203.8L275.5,203.85M273.7,202.6L273.7,202.55L273.65,202.45L275.75,202.65L276,202.55L276.3,202.4L276.35,202.4L276.35,202.3L276.3,201.9L276.15,201.55L275.6,200.85C275.4,200.717 275.217,200.633 275.05,200.6M279.95,202.2L279.85,202.35L280.15,203.55L279.4,204.45M278.95,200.9L278.9,201.1L279.25,202.05L279.5,202.7L279.6,202.95L279,204L279.1,204.2L278.1,206.2M278.45,203L278.65,203.3L279,204L278.95,204.5M278.45,203L278.25,202.55L278.05,202.2L277.7,201.5M275.6,203.8L275.4,204.2L275.4,204.25M276.8,204.05L276.4,203.55L276.75,202.05M275.6,203.8L275.55,203.8M276.35,202.5L276.35,202.4M276.35,202.3L276.75,201.5M276.8,204.05L277.15,204.45M276.35,202.5L276.2,203.15L275.6,203.8M276.15,205.7L276.4,206.2M275.75,204.9L276.15,205.7M269.95,202.15L269.95,202.1L269.9,202L270.8,202.25L271.85,202.2L272,202.2L272.6,201.95M271.3,200.15C271.467,200.183 271.65,200.267 271.85,200.4L271.95,200.45" style="fill:none;fill-rule:nonzero;stroke:#000;stroke-width:0.05px;"/>
                <path d="M275.5,203.85L275.45,203.85L274.35,203.6C274.017,203.367 273.8,203.033 273.7,202.6M273.65,202.45C273.55,202.05 273.583,201.667 273.75,201.3C273.917,200.933 274.183,200.7 274.55,200.6L275.05,200.6M271.45,203.45L270.6,203.15C270.267,202.917 270.05,202.583 269.95,202.15M269.9,202C269.8,201.6 269.833,201.217 270,200.85C270.133,200.517 270.367,200.3 270.7,200.2L270.8,200.15L271.3,200.15M271.75,203.4L271.7,203.4L271.45,203.45" style="fill:none;fill-rule:nonzero;stroke:#feeba0;stroke-width:0.05px;"/>
                <path d="M273.7,202.6L275.7,202.75L275.75,202.75L275.95,202.65L276.25,202.55L276.35,202.5M269.95,202.15L270.85,202.35L271.85,202.3L272,202.3L272.6,202.05" style="fill:none;fill-rule:nonzero;stroke:#e9cbaf;stroke-width:0.05px;"/>
                <path d="M275.75,204.6L275.75,204.9L275.7,205.05L275.7,205.75L275.75,205.95L275.7,206.8L275.7,206.85M274.5,206.05L274.55,206.6C274.617,207.1 274.567,207.467 274.4,207.7L274.4,207.75M272.7,206.4L272.7,206.6L272.3,207.65L272.25,207.7M271,205.25L270.85,205.4L270.1,205.8L270.05,205.8" style="fill:none;fill-rule:nonzero;stroke:#2d2d2d;stroke-width:0.05px;"/>
                <path d="M274.45,204.4L274.5,204.35L274.55,204.35M275.7,206.85L275.3,206.9L274.6,206.2L274.5,206.05L274.3,205.7L274.25,205.3L274.3,204.85L274.45,204.4M274.4,207.75L273.85,207.8L273,206.85L272.7,206.4L272.55,205.55L272.65,205.2L272.8,204.6L273.05,204.35M272.25,207.7L271.75,207.6L271.15,206.5C270.917,206 270.867,205.583 271,205.25L271.05,205.15L271.55,204.25C271.583,204.183 271.667,204.133 271.8,204.1L271.8,204.05M270.05,205.8C269.85,205.767 269.767,205.667 269.8,205.5L270,204.6C270.167,204.167 270.383,203.883 270.65,203.75L271.4,203.5L271.5,203.5L271.6,203.55L271.65,203.55" style="fill:none;fill-rule:nonzero;stroke:#b08744;stroke-width:0.05px;"/>
                <path d="M273.7,196.25C271.6,194.65 267.7,193.317 262,192.25C268.167,189.983 274.183,188.483 280.05,187.75C282.55,188.25 285.45,189.6 288.75,191.8C281.883,193.067 276.883,194.567 273.75,196.3L273.7,196.25" style="fill:#a8e3dd;fill-opacity:0.53;"/>
                <path d="M262,192.25C267.7,193.317 271.6,194.65 273.7,196.25L273.7,196.3C274.033,197.467 274.183,199.917 274.15,203.65C274.117,207.417 273.917,209.983 273.55,211.35L273.5,211.35C269.9,210.45 266.167,208.683 262.3,206.05C261.933,204.717 261.717,202.383 261.65,199.05C261.583,195.817 261.683,193.567 261.95,192.3L262,192.25" style="fill:#a8e3dd;fill-opacity:0.9;"/>
                <path d="M273.75,196.3C276.883,194.567 281.883,193.067 288.75,191.8L288.8,191.8C289.033,192.867 289.15,194.95 289.15,198.05C289.183,201.15 289.1,203.25 288.9,204.35C282.167,207.95 277.05,210.283 273.55,211.35C273.917,209.983 274.117,207.417 274.15,203.65C274.183,199.917 274.033,197.467 273.7,196.3L273.75,196.3" style="fill:#a8e3dd;fill-opacity:0.71;"/>
                <path d="M262,192.25C267.7,193.317 271.6,194.65 273.7,196.25L273.75,196.3C276.883,194.567 281.883,193.067 288.75,191.8C285.45,189.6 282.55,188.25 280.05,187.75C274.183,188.483 268.167,189.983 262,192.25L261.95,192.3C261.683,193.567 261.583,195.817 261.65,199.05C261.717,202.383 261.933,204.717 262.3,206.05C266.167,208.683 269.9,210.45 273.5,211.35L273.55,211.35C273.917,209.983 274.117,207.417 274.15,203.65C274.183,199.917 274.033,197.467 273.7,196.3L273.7,196.25M273.7,196.3L273.75,196.3M261.95,192.3L261.95,192.25L262,192.25M288.75,191.8L288.8,191.8C289.033,192.867 289.15,194.95 289.15,198.05C289.183,201.15 289.1,203.25 288.9,204.35C282.167,207.95 277.05,210.283 273.55,211.35L273.55,211.4L273.5,211.35" style="fill:none;fill-rule:nonzero;stroke:#000;stroke-opacity:0.3;stroke-width:0.05px;"/>
                <path d="M278.7,208.65C278.4,208.983 278.017,209.15 277.55,209.15C277.083,209.15 276.683,208.983 276.35,208.65C276.05,208.35 275.9,208 275.9,207.6C275.9,207.167 276.05,206.8 276.35,206.5C276.683,206.2 277.083,206.05 277.55,206.05C278.017,206.05 278.4,206.2 278.7,206.5L279.25,207.6C279.217,208 279.033,208.35 278.7,208.65" style="fill:#fff;"/>
                <path d="M281.15,206.6C280.983,206.8 280.767,206.9 280.5,206.9C280.233,206.9 280.017,206.8 279.85,206.6L279.6,206.05C279.6,205.817 279.683,205.617 279.85,205.45C280.017,205.283 280.233,205.2 280.5,205.2C280.767,205.2 280.983,205.283 281.15,205.45L281.45,206.05L281.15,206.6" style="fill:#fff;"/>
                <path d="M269.2,198.1L268.8,198.25L268.35,198.1L268.2,197.7L268.35,197.3C268.483,197.2 268.633,197.15 268.8,197.15L269.2,197.3L269.4,197.7L269.2,198.1" style="fill:#fff;"/>
            </g>
        </g>
    </g>
</svg>
