<?xml version="1.0" encoding="UTF-8"?>
<svg version="1.1" viewBox="0 0 228.93 196.45" xmlns="http://www.w3.org/2000/svg" xmlns:cc="http://creativecommons.org/ns#" xmlns:dc="http://purl.org/dc/elements/1.1/" xmlns:rdf="http://www.w3.org/1999/02/22-rdf-syntax-ns#" xmlns:xlink="http://www.w3.org/1999/xlink">
<metadata>
<rdf:RDF>
<cc:Work rdf:about="">
<dc:format>image/svg+xml</dc:format>
<dc:type rdf:resource="http://purl.org/dc/dcmitype/StillImage"/>
</cc:Work>
</rdf:RDF>
</metadata>
<g transform="translate(-142 -111.68)">
<use transform="translate(142.05,111.7)" width="228.85001" height="196.39999" xlink:href="#a"/>
</g>
<defs>
<g id="a" transform="translate(-142.05,-111.7)">
<path d="m241.9 254.45-21.75-0.95q-34.75-3.8-45.85-21.7l0.6-13.35 0.15-0.45q13.6 16.75 45 16.3 21.35 1.25 44.75 0.45l-22.9 19.7" fill="#fcf3ba" fill-rule="evenodd"/>
<path d="m277.3 251.45-18.05 1.8-17.35 1.2 22.9-19.7 27.85-1.65-15.35 18.35" fill="#f7e086" fill-rule="evenodd"/>
<path d="m175.05 218-0.05-2.35q0.2-3.4 1.5-6.75 0.65-1.95 1.25-2.95 2.55-4.45 17.85-8 5.75-1.4 13.5-2.65 21.8-3.5 51.65-5.05l25.6 1.5q12.35 1.25 24.15 3.4 15 2.7 28.85 6.95 4.65 2 8.85 9.75l2.3 4.9q1.5 4.1 1.05 6.4-4.6 2.75-6.7 3.45l-7.55 1.35q-23.3 3.4-44.65 5.15l-27.85 1.65q-23.4 0.8-44.75-0.45-31.4 0.45-45-16.3m152.1-14.3q-30.65-9.5-66.2-10.3-39.8 2.05-59.5 6.8-11.5 2.65-15.9 6.25-4.55 3.65-2.8 10.75 11.15 13.15 41.95 14.1 16.45 0.75 33.95 0.2l6.1-0.2 18.1-1.25 6-0.5q23.65-2.2 49.35-6.6l1.8-0.35 4.9-0.9q-0.35-2.75-1.8-5.3-4-6.9-15.95-12.7m-73.2 8.9q-3.2-1-7.85-1.05l-7.7 0.65q-3.2 0.65-3.4 1.8-0.25 1.15 2.55 2.05t7.2 1.15l8.1-0.5q3.6-0.7 4-1.9 0.3-1.3-2.9-2.2m-10.1 7.9q-8.5-0.55-13.85-2.45-5.1-1.9-4.65-4.1 0.4-2.25 6.3-3.7 6.15-1.6 15.05-1.5 9.4 0.1 16.05 2.15 6.9 2.05 6.15 4.7-0.85 2.6-8.65 4.1l-16.4 0.8" fill="#ffffe1" fill-rule="evenodd"/>
<path d="m253.95 212.6q3.2 0.9 2.9 2.2-0.4 1.2-4 1.9l-8.1 0.5q-4.4-0.25-7.2-1.15t-2.55-2.05q0.2-1.15 3.4-1.8l7.7-0.65q4.65 0.05 7.85 1.05m-39.45 5.85 12.8 4.65q9.25 2.65 20.9 2.55-10.65 2.5-21.45 0.9h-0.25q-9.1-1.95-12-8.1m18.65-16.2q21.75-5.85 44.7-4.75 29.4 5.7 41.35 15.8-29.85-15.55-86.05-11.05" fill="#a98b78" fill-rule="evenodd"/>
<path d="m327.15 203.7q11.95 5.8 15.95 12.7 1.45 2.55 1.8 5.3l-4.9 0.9-1.8 0.35q-25.7 4.4-49.35 6.6l-6 0.5-18.1 1.25-6.1 0.2q-17.5 0.55-33.95-0.2-30.8-0.95-41.95-14.1-1.75-7.1 2.8-10.75 4.4-3.6 15.9-6.25 19.7-4.75 59.5-6.8 35.55 0.8 66.2 10.3m-83.3 16.8 16.4-0.8q7.8-1.5 8.65-4.1 0.75-2.65-6.15-4.7-6.65-2.05-16.05-2.15-8.9-0.1-15.05 1.5-5.9 1.45-6.3 3.7-0.45 2.2 4.65 4.1 5.35 1.9 13.85 2.45m-29.35-2.05q2.9 6.15 12 8.1h0.25q10.8 1.6 21.45-0.9-11.65 0.1-20.9-2.55l-12.8-4.65m18.65-16.2q56.2-4.5 86.05 11.05-11.95-10.1-41.35-15.8-22.95-1.1-44.7 4.75" fill="url(#c)" fill-rule="evenodd"/>
<path d="m351.8 223.25-8.8 8.7q-2.7 3.2-3.8 8.15l-26.95 5.65q-25.15 5.35-34.95 5.7l15.35-18.35q21.35-1.75 44.65-5.15l7.55-1.35q2.1-0.7 6.7-3.45l0.25 0.1" fill="url(#b)" fill-rule="evenodd"/>
<path d="m175.05 218-0.05-2.35q0.2-3.4 1.5-6.75 0.65-1.95 1.25-2.95 2.55-4.45 17.85-8 5.75-1.4 13.5-2.65 21.8-3.5 51.65-5.05l25.6 1.5q12.35 1.25 24.15 3.4 15 2.7 28.85 6.95 4.65 2 8.85 9.75l2.3 4.9q1.5 4.1 1.05 6.4l0.4-0.05-0.15 0.15-8.8 8.7q-2.7 3.2-3.8 8.15l-26.95 5.65q-25.15 5.35-34.95 5.7l-18.05 1.8-17.35 1.2-21.75-0.95q-34.75-3.8-45.85-21.7l0.6-13.35-0.05-0.5 0.2 0.05q13.6 16.75 45 16.3 21.35 1.25 44.75 0.45l27.85-1.65q21.35-1.75 44.65-5.15l7.55-1.35q2.1-0.7 6.7-3.45l0.25 0.1m-24.65-19.55q-30.65-9.5-66.2-10.3-39.8 2.05-59.5 6.8-11.5 2.65-15.9 6.25-4.55 3.65-2.8 10.75 11.15 13.15 41.95 14.1 16.45 0.75 33.95 0.2l6.1-0.2 18.1-1.25 6-0.5q23.65-2.2 49.35-6.6l1.8-0.35 4.9-0.9q-0.35-2.75-1.8-5.3-4-6.9-15.95-12.7m-73.2 8.9q3.2 0.9 2.9 2.2-0.4 1.2-4 1.9l-8.1 0.5q-4.4-0.25-7.2-1.15t-2.55-2.05q0.2-1.15 3.4-1.8l7.7-0.65q4.65 0.05 7.85 1.05m-10.1 7.9q-8.5-0.55-13.85-2.45-5.1-1.9-4.65-4.1 0.4-2.25 6.3-3.7 6.15-1.6 15.05-1.5 9.4 0.1 16.05 2.15 6.9 2.05 6.15 4.7-0.85 2.6-8.65 4.1l-16.4 0.8m-68.95-2.05 0.15-0.45z" fill="none" stroke="#0d2608" stroke-linecap="round" stroke-linejoin="round" stroke-opacity=".4" stroke-width=".05"/>
<path d="m367.55 145.35q-85.65 15.8-124.75 37.4l-0.4-0.4q-26.2-19.95-97.3-33.25 76.9-28.3 150.1-37.4 31.15 6.2 72.35 33.65" fill="#a8e3dd" fill-opacity=".53333" fill-rule="evenodd"/>
<path d="m367.55 145.35h0.4q2.9 13.3 2.9 51.95 0.4 38.65-2.05 52.4-84 44.9-127.85 58 4.75-16.85 5.2-63.8 0.4-46.6-3.75-61.15h0.4q39.1-21.6 124.75-37.4" fill="#a8e3dd" fill-opacity=".71372" fill-rule="evenodd"/>
<path d="m242.4 182.75q4.15 14.55 3.75 61.15-0.45 46.95-5.2 63.8l-0.4 0.2q-44.9-11.15-92.95-44.25-4.55-16.45-5.4-58-0.85-40.35 2.5-56.15l0.4-0.4q71.1 13.3 97.3 33.25v0.4" fill="#a8e3dd" fill-opacity=".90196" fill-rule="evenodd"/>
<path d="m240.95 307.7q43.85-13.1 127.85-58 2.45-13.75 2.05-52.4 0-38.65-2.9-51.95h-0.4q-85.65 15.8-124.75 37.4h-0.4q4.15 14.55 3.75 61.15-0.45 46.95-5.2 63.8v0.4l-0.4-0.2q-44.9-11.15-92.95-44.25-4.55-16.45-5.4-58-0.85-40.35 2.5-56.15v-0.4h0.4q76.9-28.3 150.1-37.4 31.15 6.2 72.35 33.65m-125.15 37 0.4 0.4m-0.4-0.4v0.4m-97.7-33.25 0.4-0.4q71.1 13.3 97.3 33.25m-1.45 125.35-0.4 0.2" fill="none" stroke="#000" stroke-linecap="round" stroke-linejoin="round" stroke-opacity=".30196" stroke-width=".05"/>
<path d="m284 285.4q-3.7 4.15-9.55 4.15-5.8 0-9.95-4.15-3.75-3.75-3.75-8.7 0-5.4 3.75-9.15 4.15-3.75 9.95-3.75 5.85 0 9.55 3.75 4.2 3.75 4.6 9.15-0.4 4.95-4.6 8.7" fill="#fff" fill-rule="evenodd"/>
<path d="m304.2 268.5q-2.05 2.3-5.3 2.3-3.2 0-5.5-2.3-2.05-2.1-2.05-4.85 0-2.95 2.05-5.05 2.3-2.05 5.5-2.05 3.25 0 5.3 2.05 2.3 2.1 2.55 5.05-0.25 2.75-2.55 4.85" fill="#fff" fill-rule="evenodd"/>
<path d="m204.95 197.65q-1.3 1.45-3.4 1.45-2.05 0-3.55-1.45-1.35-1.35-1.35-3.15 0-1.9 1.35-3.25 1.5-1.3 3.55-1.3 2.1 0 3.4 1.3 1.5 1.35 1.65 3.25-0.15 1.8-1.65 3.15" fill="#fff" fill-rule="evenodd"/>
</g>
<linearGradient id="c" x1="-819.2" x2="819.2" gradientTransform="matrix(-.0989 -.0069 -.0075 .0272 263.7 211.85)" gradientUnits="userSpaceOnUse">
<stop stop-color="#744314" offset="0"/>
<stop stop-color="#836753" offset="1"/>
<stop stop-color="#7d8a75" offset="1"/>
</linearGradient>
<linearGradient id="b" x1="-819.2" x2="819.2" gradientTransform="matrix(-.0475 -.0033 -.0067 .0243 332.75 241.95)" gradientUnits="userSpaceOnUse">
<stop stop-color="#f2ca77" offset="0"/>
<stop stop-color="#f7e086" offset="1"/>
<stop stop-color="#836753" offset="1"/>
</linearGradient>
</defs>
</svg>
