<?xml version="1.0" encoding="UTF-8"?>
<svg version="1.1" viewBox="0 0 491.51 223.1" xmlns="http://www.w3.org/2000/svg" xmlns:cc="http://creativecommons.org/ns#" xmlns:dc="http://purl.org/dc/elements/1.1/" xmlns:rdf="http://www.w3.org/1999/02/22-rdf-syntax-ns#" xmlns:xlink="http://www.w3.org/1999/xlink">
<metadata>
<rdf:RDF>
<cc:Work rdf:about="">
<dc:format>image/svg+xml</dc:format>
<dc:type rdf:resource="http://purl.org/dc/dcmitype/StillImage"/>
</cc:Work>
</rdf:RDF>
</metadata>
<g transform="translate(-61.825 -16.975)">
<use transform="translate(61.85,17)" width="491.45001" height="223.05" xlink:href="#a"/>
</g>
<defs>
<g id="a" transform="translate(-61.85,-17)">
<path d="m533.65 120.15 2.5 3.9-37.5-20.75q-52.25-29.05-145.75-23.55l-39.7 3.45q-55.4 7.2-94.55 19.8 9.65-4.4 19.6-8.2l10.75-3.9q8.45-2.95 17.15-5.45h0.05q10.25-3 20.85-5.35l1-0.25 10.15-1.6-10.15 1.6 10-2.1 0.15 0.5q57.8-8.55 105.9-4.2 40.2-2.05 77 13 34.45 8.1 52.55 33.1m-145.8 42.6q-12.85-3.3-29.75-0.2l13-18.5q0.45 14.1 16.75 18.7m-139-11.7-17.8 2q-23.75 7.35-45.95 17-7.25 3.1-14.35 6.5v-0.05q32.35-15.6 55.3-37.45 18.7 10.5 31.4 3l-8.6 9m-116.55-4.9q3.1-3.7 6.5-7.25 36.5-29.45 76.8-44l-4.9 10.8q-20.05 6.95-35.4 15.5-36 19.95-59.25 50.7l-0.05-0.85 0.05 0.85q-4.35 5.7-8.25 11.8l0.85-1.35 13.35-22.3 0.5-0.75 9.8-13.15" fill="#ff3" fill-rule="evenodd"/>
<path d="m551.15 192.05-7.35 5.3q-29.8 20.15-57.95 21.35l-12.85-0.45q-54.15-6.6-80.5-49.4 8.7 8.65 42.6 21.2-19.15 21.8 27 0 40.95 10.45 14.9-18.55-4.95-18.35-14.2-29.1-9.1-10.6-22.35-13.9 18.05 0.65 31.35-4.3 13.55 3.25 39.7 12.25l-0.15 0.6q-5 0-9.15 2-3.2 1.5-5.9 4.2-1.9 1.9-3.2 4.05-3 4.9-3 11 0 8.8 5.6 12.75l-0.25 0.45q5.65 48.55 25.65 25.55l30.05-5m-35.6-37.55q2.45-2.45 5.95-2.45t5.95 2.45 2.45 5.95-2.45 5.95q-1.2 1.2-2.7 1.85l-3.25 0.6q-3.5 0-5.95-2.45t-2.45-5.95 2.45-5.95m-284.4-41.3q-5.45 1.3-11.15 2.95l44.05-14.1q63.05-15.1 126.05-11 62.55 8.1 81.7 33.15-26-22.5-82.7-22.15-42.5-17.5-81.05 15-10.15-5.15-22.4-7.25-23.45-4-54.5 3.4" fill-rule="evenodd"/>
<path d="m109.15 212.45q-18.25 12.8-35.15 27.6l17-28.35 6.75-11.2 5-8.4 5.05-8.4-5.05 8.4-5 8.4-0.65-1.4q-3.4-5.55-14.9 2.5l26.45-19.25-0.85 1.35q3.9-6.1 8.25-11.8l0.95 23.15q31.15-20.95 53.5-18.4-5.55 2.65-11.05 5.45-7.95 4.1-15.7 8.5-4.45 2.45-8.75 5.1 4.85 17.9 19.45 22.9 2.05 3.3 5.4 6.4l-0.2 0.3-34.3-23.7q-8.25 5.2-16.2 10.85m177.9-132.35q-10.6 2.35-20.85 5.35 5.4-18.55-10.7-33.45l31.4 27.9-2.85 0.15 2.85-0.15 0.15 0.2m-20.9 5.35q-8.7 2.5-17.15 5.45-4.45-11.85-17.6-19.35l34.75 13.9m229.55 85.6q-5.6-3.95-5.6-12.75 0-6.1 3-11 1.3-2.15 3.2-4.05 2.7-2.7 5.9-4.2 4.15-2 9.15-2l2.25 0.1 7.75 2.35q2.7 1.45 5 3.75 6.25 6.25 6.25 15.05t-7.55 10.35l-0.3-0.4 0.1 0.45q-7.5 1.5-15.5 3.85-5.3 1.55-9.5 0.45l-1.85-0.65q-1.2-0.55-2.3-1.3m-32.9-28.65q9.25 10.75 14.2 29.1 26.05 29-14.9 18.55-21-53.8-85-58h-24.35q29-2.45 0.35-22l20.2 9.55q59.5 28.4 89.5 22.8m52.75 12.1q-2.45 2.45-2.45 5.95t2.45 5.95 5.95 2.45l3.25-0.6q1.5-0.65 2.7-1.85 2.45-2.45 2.45-5.95t-2.45-5.95-5.95-2.45-5.95 2.45m-164.3-83.4-22.3 1.95q7.95-12.55 4.45-25.05l17.85 23.1m-22.3 1.95q-15.75 1.75-30.9 4.7 16.2-11.85 2-23.75l28.9 19.05m65.2-2.55q-14.7-0.45-29-0.05 7.45-13.35-4.05-30.45l33.05 30.5m-65.7 91.7 4.6-13.65q8.45 0.3 16.4-0.35-15.9 6.2-21 14m-13.4-15.4q-14 2.9-19.55 10.85l5.65-13.55 13.9 2.7m-83.9-33.6q31.05-7.4 54.5-3.4-92.7 15.15-143.65 49.25 36.6-27.7 89.15-45.85m47.7 24.5 9.7 3.05q-17.45 8-29.3 17.85l19.6-20.9m-153.5 63.9 9.65-5.9-9.65 5.9" fill="#666" fill-rule="evenodd"/>
<path d="m536.15 124.05q23.25 34 15 68l-30.05 5q-20 23-25.65-25.55l0.25-0.45q1.1 0.75 2.3 1.3l1.85 0.65q4.2 1.1 9.5-0.45 8-2.35 15.5-3.85l0.2-0.05q7.55-1.55 7.55-10.35t-6.25-15.05q-2.3-2.3-5-3.75l-7.75-2.35-2.25-0.1 0.15-0.6q-26.15-9-39.7-12.25-13.3 4.95-31.35 4.3 13.25 3.3 22.35 13.9-30 5.6-89.5-22.8l-20.2-9.55q28.65 19.55-0.35 22h24.35q64 4.2 85 58-46.15 21.8-27 0-33.9-12.55-42.6-21.2-2.85-2.8-3.05-5.15l3.05 5.15-3.05-5.15-0.35-0.65-1.25-0.3q-16.3-4.6-16.75-18.7-10.3 3.1-21.65 4.15-7.95 0.65-16.4 0.35l-18-1.75-13.9-2.7-12.6-3.35-9.7-3.05-12.8-4.65-8.6 9q-12.7 7.5-31.4-3-22.95 21.85-55.3 37.45l-0.25 0.15 0.25-0.15v0.05l-0.25 0.1q-22.35-2.55-53.5 18.4l-0.95-23.15q23.25-30.75 59.25-50.7 15.35-8.55 35.4-15.5l-0.65 1.35q4.25-2.1 8.6-4.05 39.15-12.6 94.55-19.8l39.7-3.45q93.5-5.5 145.75 23.55l37.5 20.75m-250.5-14.25q12.25 2.1 22.4 7.25 38.55-32.5 81.05-15 56.7-0.35 82.7 22.15-19.15-25.05-81.7-33.15-63-4.1-126.05 11l-44.05 14.1q5.7-1.65 11.15-2.95-52.55 18.15-89.15 45.85 50.95-34.1 143.65-49.25m-65.65 6.35-2.95 0.9 2.95-0.9" fill="#ccc" fill-rule="evenodd"/>
<path d="m138.8 138.9q29.35-30.9 79.4-49.75l-2.6 5.75q-40.3 14.55-76.8 44m269.75-75.6 65.15 17.2 1.55 0.35q38.35 9.4 58.4 39.3-18.1-25-52.55-33.1-36.8-15.05-77-13-48.1-4.35-105.9 4.2l-0.15-0.5q15.15-2.95 30.9-4.7l22.3-1.95 13.9-0.65q14.3-0.4 29 0.05 19.8 0.65 40.35 2.85-12.8-2.65-25.95-10.05m28.65 10.35-2.1-0.2-0.6-0.1 0.6 0.1 2.1 0.2" fill="#fc0" fill-rule="evenodd"/>
<path d="m358.1 162.55-13 18.5q-7.4-7.8-19-11.7v-0.1l2.35-7.05q-2.2 3.35-2.35 7.05l-0.05 0.1q-13.9-4.65-33.8-3.65v-0.25l3.25-7.8q5.55-7.95 19.55-10.85l18 1.75-4.6 13.65q5.1-7.8 21-14 11.35-1.05 21.65-4.15l-13 18.5m-65.95 3.15q-20.35 1-46.9 7.95v-0.1l-0.15 0.15q-11.9 3.05-25.05 7.35l28.8-30 17.2-18 12.8 4.65-19.6 20.9q-8.45 7-14 14.95l14-14.95q11.85-9.85 29.3-17.85l12.6 3.35-5.65 13.55q-2.45 3.4-3.25 7.8l-0.1 0.25m-122.8 12.1q-25.55 23.6-14.9 40.8-14.6-5-19.45-22.9 4.3-2.65 8.75-5.1 7.75-4.4 15.7-8.5 5.5-2.8 11.05-5.45l0.2-0.05-0.2 0.05 0.25-0.1-0.05 0.05-1.35 1.2-9.9 4.3 9.9-4.3m-8.55 48.3q-20.65-13.3-51.65-13.65 7.95-5.65 16.2-10.85l34.3 23.7 1.15 0.8m-69.8-14.4-2.8-0.1q-14.55-0.15-26.35 6.2 9.5-7.2 18.25-14.7l2.1-1.5q11.5-8.05 14.9-2.5l0.65 1.4-6.75 11.2m-8.9-10.3q22.5-19.65 39.85-41.4l0.05 0.05-13.35 22.3-26.45 19.25-0.1-0.2m136.1-112.25q-10.15-12.85-4.85-24.8l0.2 0.05-0.2-0.1q5.4-12.1 26.7-23.3 6.75 5.8 13.8 9.5l1.65 1.5 0.25-0.55q20.7 10 44.3 2.55 20.25-0.7 33.35-6 22-9 23.7-31 8.1 9.9 16.15 18.15l0.15 0.15 7.25 7.1 0.2 0.2q14 13 27.7 20.7 13.15 7.4 25.95 10.05-20.55-2.2-40.35-2.85l-33.05-30.5q11.5 17.1 4.05 30.45l-13.9 0.65-17.85-23.1q3.5 12.5-4.45 25.05l-28.9-19.05q14.2 11.9-2 23.75l-10 2.1-1 0.25-0.15-0.2-31.4-27.9q16.1 14.9 10.7 33.45h-0.05l-34.75-13.9q13.15 7.5 17.6 19.35l-10.75 3.9q-9.95 3.8-19.6 8.2-4.1 1.3-7.95 2.7 3.85-1.4 7.95-2.7-4.35 1.95-8.6 4.05l0.65-1.35 4.9-10.8 1.45-0.85-1.45 0.85 2.6-5.75m69.85-9.3-1.15 0.05 1.15-0.05m-56.65-8.3q-7.5-4.3-17.85-7.15l17.85 7.15" fill="#333" fill-rule="evenodd"/>
<path d="m533.65 120.15 1.45 0.9m-1.45-0.9 2.5 3.9q23.25 34 15 68l-7.35 5.3q-29.8 20.15-57.95 21.35l-12.85-0.45q-54.15-6.6-80.5-49.4-2.85-2.8-3.05-5.15l-1.6-0.95q-12.85-3.3-29.75-0.2l-13 18.5q-7.4-7.8-19-11.7h-0.05q-13.9-4.65-33.8-3.65h-0.1q-20.35 1-46.9 7.95h-0.1v0.05h-0.05q-11.9 3.05-25.05 7.35l28.8-30-17.8 2q-23.75 7.35-45.95 17-7.7 4.1-15.75 7.75-25.55 23.6-14.9 40.8l5.4 6.4 2.9 2.4-0.8-0.55-1.15-0.75q-20.65-13.3-51.65-13.65-18.25 12.8-35.15 27.6l17-28.35-2.8-0.1q-14.55-0.15-26.35 6.2 9.5-7.2 18.25-14.7l2-1.7q22.5-19.65 39.85-41.4l0.55-0.7q4.5-6.8 9.8-13.15 3.1-3.7 6.5-7.25 29.35-30.9 79.4-49.75-10.15-12.85-4.85-24.8v-0.05q5.4-12.1 26.7-23.3 6.75 5.8 13.8 9.5l1.9 0.95q20.7 10 44.3 2.55 20.25-0.7 33.35-6 22-9 23.7-31 8.1 9.9 16.15 18.15l0.15 0.15 35.15 28 65.15 17.2 1.55 0.35q38.35 9.4 58.4 39.3m-235.45-41.9-10.15 1.6-1 0.25q-10.6 2.35-20.85 5.35h-0.05q-8.7 2.5-17.15 5.45l-10.75 3.9q-9.95 3.8-19.6 8.2-4.35 1.95-8.6 4.05l0.65-1.35q3.85-1.4 7.95-2.7m258.35 68.5q26.05 29-14.9 18.55-46.15 21.8-27 0-33.9-12.55-42.6-21.2l-3.05-5.15-0.35-0.65-1.25-0.3m-16.75-18.7-13 18.5m157.45-8.05q2.45-2.45 5.95-2.45t5.95 2.45 2.45 5.95-2.45 5.95q-1.2 1.2-2.7 1.85l-3.25 0.6q-3.5 0-5.95-2.45t-2.45-5.95 2.45-5.95m-20.1 17q5.65 48.55 25.65 25.55l30.05-5m-116.65-118.7 0.6 0.1 2.1 0.2m-43.05-3.15q19.8 0.65 40.35 2.85-12.8-2.65-25.95-10.05-13.7-7.7-27.7-20.7l-0.2-0.2-7.25-7.1m35.15 28-27.7-20.7m-51.9 30.45 22.3-1.95-17.85-23.1q3.5 12.5-4.45 25.05-15.75 1.75-30.9 4.7 16.2-11.85 2-23.75l28.9 19.05m36.2-2.6q14.3-0.4 29 0.05l-33.05-30.5q11.5 17.1 4.05 30.45l-13.9 0.65m-22.8 91.1-2.35 7.05v0.1m0-0.1-0.05 0.1m0.05-0.1q0.15-3.7 2.35-7.05l4.6-13.65-18-1.75q-14 2.9-19.55 10.85l-3.25 7.8-0.1 0.25m81.15-46.1-20.2-9.55m-24.65 52.15q5.1-7.8 21-14-7.95 0.65-16.4 0.35m38.05-4.5q-10.3 3.1-21.65 4.15m-63.8-38.4q12.25 2.1 22.4 7.25 38.55-32.5 81.05-15 56.7-0.35 82.7 22.15-19.15-25.05-81.7-33.15-63-4.1-126.05 11l-44.05 14.1q5.7-1.65 11.15-2.95 31.05-7.4 54.5-3.4m1.25-29.9-31.4-27.9q16.1 14.9 10.7 33.45m-10.7-33.45-1.65-1.5m33.05 29.4 1.15-0.05 10-2.1m-14 2.3 2.85-0.15 0.15 0.2m-73.5-15.7-0.2-0.05 0.2 0.05q10.35 2.85 17.85 7.15l34.75 13.9m-50.55 9.45 1.45-0.85m1.15-4.9-2.6 5.75-4.9 10.8m-94.65 66.2 0.95 23.15q31.15-20.95 53.5-18.4l0.25-0.15m86.7-34.45 8.6-9 12.8 4.65 9.7 3.05 12.6 3.35 13.9 2.7m-83.65-75.25-17.85-7.15m3.5 52.65 2.95-0.9m-49.5 60.5 0.2-0.05 0.05-0.05-0.25 0.1q-5.55 2.65-11.05 5.45l9.9-4.3 1.35-1.2m14.4-6.55q-7.25 3.1-14.35 6.5m74.4-2.9 0.1-0.1-0.15 0.15m14.15-15.1-14 14.95q5.55-7.95 14-14.95l19.6-20.9m13.35 28 0.05-0.25q0.8-4.4 3.25-7.8l5.65-13.55m-43.7-2.05-8.6 9m10.4 7.55q11.85-9.85 29.3-17.85m-57.15-69.2q13.15 7.5 17.6 19.35m-133 80.15 0.05 0.85m-8.25 11.8-5.05 8.4-5 8.4-6.75 11.2m16.8-28 0.85-1.35-26.45 19.25q11.5-8.05 14.9-2.5l0.65 1.4m61.7-18.4q-7.95 4.1-15.7 8.5-4.45 2.45-8.75 5.1 4.85 17.9 19.45 22.9 2.05 3.3 5.4 6.4l0.95 1.1-1.15-0.8-34.3-23.7q-8.25 5.2-16.2 10.85m12.85-52.4 0.5-0.75 9.8-13.15m-23.65 36.2 13.35-22.3m-39.8 41.55-2.1 1.5m54.9-7.4-9.65 5.9" fill="none" stroke="#000" stroke-linecap="round" stroke-linejoin="round" stroke-opacity=".4" stroke-width=".05"/>
</g>
</defs>
</svg>
