<?xml version="1.0" encoding="UTF-8"?>
<svg version="1.1" viewBox="0 0 141.39 169.88" xmlns="http://www.w3.org/2000/svg" xmlns:cc="http://creativecommons.org/ns#" xmlns:dc="http://purl.org/dc/elements/1.1/" xmlns:rdf="http://www.w3.org/1999/02/22-rdf-syntax-ns#" xmlns:xlink="http://www.w3.org/1999/xlink">
<metadata>
<rdf:RDF>
<cc:Work rdf:about="">
<dc:format>image/svg+xml</dc:format>
<dc:type rdf:resource="http://purl.org/dc/dcmitype/StillImage"/>
</cc:Work>
</rdf:RDF>
</metadata>
<g transform="translate(-156.52 -108.93)">
<use transform="translate(156.55,108.95)" width="141.35001" height="169.8" xlink:href="#a"/>
</g>
<defs>
<g id="a" transform="translate(-156.55,-108.95)">
<path d="m265.45 180.7q15.65 15 27.4 21.5 10.4 30.65-0.65 46.9l-4.6 9.8q-22.8-17.6-45.65-34.55l-20.85-7.8-5.2-6.55q1.3-9.1 3.25-17.6v-0.65q-0.65-5.85-0.65-11.7l-22.2-35.2q-1.3-7.2-1.95-13.7 5.9-3.25 3.9-15 19.6 48.9 58.7 104.95l24.15 19.55-15.65-59.95m-99.15-3.25q-1.95-5.9-3.25-11.1-0.65-3.25-0.65-6.5l3.9 17.6m67.2 29.95-14.35-15 14.35 15" fill="#fff4cf" fill-rule="evenodd"/>
<path d="m156.55 127.9q0-9.8 13.65-18.9 16.35-0.65 28.05 7.15 2 11.75-3.9 15 0.65 6.5 1.95 13.7 0.65 1.3 0.65 3.25l-3.9 5.85-10.45-16.95q-7.15 0-13.05-1.3-1.3-0.65-1.95-0.65-7.15-2.6-11.05-7.15" fill="#a79577" fill-rule="evenodd"/>
<path d="m198.25 116.15q18.3 15 52.85 50.2 7.15 7.8 14.35 14.35l15.65 59.95-24.15-19.55q-39.1-56.05-58.7-104.95" fill="#ffffe1" fill-rule="evenodd"/>
<path d="m287.6 258.9v0.65l-4.55 5.85q-0.65 0-0.65 0.65-1.95 9.8-16.3 12.4-9.15 0.65-17.6 0h-1.95l-19.6-41.05q-12.4-9.8-24.1-19.55l-35.25-82.8q0.65 0 1.95 0.65 5.9 1.3 13.05 1.3l10.45 16.95 3.9-5.85q0-1.95-0.65-3.25l22.2 35.2q0 5.85 0.65 11.7v0.65q-1.95 8.5-3.25 17.6l5.2 6.55 20.85 7.8q22.85 16.95 45.65 34.55m-103.05-93.2q0.7 1.95 2 3.9-1.3-1.95-2-3.9m82.2 86.05 15.65 14.3-15.65-14.3" fill="#cbc09b" fill-rule="evenodd"/>
<path d="m246.55 278.45q-22.85-3.25-44.35-18.25-18.3-35.2-28.7-63.85l-7.2-18.9-3.9-17.6q-3.25-16.3-5.85-31.95 3.9 4.55 11.05 7.15l35.25 82.8q11.7 9.75 24.1 19.55l19.6 41.05" fill="#837853" fill-rule="evenodd"/>
<path d="m198.25 116.15q18.3 15 52.85 50.2 7.15 7.8 14.35 14.35 15.65 15 27.4 21.5 10.4 30.65-0.65 46.9l-4.6 9.8m0 0.65-4.55 5.85q-0.65 0-0.65 0.65-1.95 9.8-16.3 12.4-9.15 0.65-17.6 0m-1.95 0q-22.85-3.25-44.35-18.25-18.3-35.2-28.7-63.85l-7.2-18.9q-1.95-5.9-3.25-11.1-0.65-3.25-0.65-6.5-3.25-16.3-5.85-31.95 0-9.8 13.65-18.9 16.35-0.65 28.05 7.15m-1.95 28.7 22.2 35.2q0 5.85 0.65 11.7v0.65l14.35 15m48.9 58.65-15.65-14.3m-100.45-74.3-3.9-17.6" fill="none" stroke="#000" stroke-linecap="round" stroke-linejoin="round" stroke-opacity=".35294" stroke-width=".05"/>
<path d="m196.3 144.85q0.65 1.3 0.65 3.25l-3.9 5.85-10.45-16.95q-7.15 0-13.05-1.3-1.3-0.65-1.95-0.65-7.15-2.6-11.05-7.15m41.7-11.75q2 11.75-3.9 15 0.65 6.5 1.95 13.7" fill="none" stroke="#000" stroke-linecap="round" stroke-linejoin="round" stroke-opacity=".35294" stroke-width=".05"/>
<path d="m186.55 169.6q-1.3-1.95-2-3.9" fill="none" stroke="#000" stroke-linecap="round" stroke-linejoin="round" stroke-opacity=".2" stroke-width=".05"/>
</g>
</defs>
</svg>
