<?xml version="1.0" encoding="UTF-8"?>
<svg version="1.1" viewBox="0 0 169.74 146.45" xmlns="http://www.w3.org/2000/svg" xmlns:cc="http://creativecommons.org/ns#" xmlns:dc="http://purl.org/dc/elements/1.1/" xmlns:rdf="http://www.w3.org/1999/02/22-rdf-syntax-ns#" xmlns:xlink="http://www.w3.org/1999/xlink">
<metadata>
<rdf:RDF>
<cc:Work rdf:about="">
<dc:format>image/svg+xml</dc:format>
<dc:type rdf:resource="http://purl.org/dc/dcmitype/StillImage"/>
</cc:Work>
</rdf:RDF>
</metadata>
<g transform="translate(-169.96 -131.7)">
<use transform="translate(170,125.95)" width="169.7" height="152.2" xlink:href="#b"/>
</g>
<defs>
<g id="b" transform="translate(0 -.05)">
<use transform="translate(0,5.8)" width="169.7" height="146.45" xlink:href="#e"/>
<use transform="matrix(5.3366 -3.0811 3.0811 5.3366 41.853 27.771)" width="9" height="6.0500002" xlink:href="#a"/>
<use transform="translate(52.35,9.05)" width="49.200001" height="40.650002" xlink:href="#c"/>
</g>
<g id="e" transform="translate(0,-5.8)">
<path d="m2 96.7q8.5-25.85 31.8-45.35l1.9 18.1-17.9 24.5-15.8 2.75" fill="#b39249" fill-rule="evenodd"/>
<path d="m2 96.7q8.5-25.85 31.8-45.35" fill="none" stroke="#000" stroke-linecap="round" stroke-linejoin="round" stroke-opacity=".35294" stroke-width=".05"/>
<path d="m33.75 44.6-0.15-0.3 0.3-0.2-0.15 0.5m0.4-0.65 0.2-1.5 0.25-0.15-0.45 1.65" fill="#cdac63" fill-rule="evenodd"/>
<path d="m155.05 114.7-21.05 12.9-6.55-1.6-1.35 6.45-3.95 2.3-6.45-10.5q7.75-3.8 16.05-8.55l16.9-10.85 6.4 9.85" fill="#ead8b4" fill-rule="evenodd"/>
<path d="m62.45 76.35 0.5-0.3-0.1 0.4-0.4-0.1" fill="#ab9135" fill-rule="evenodd"/>
<path d="m111.75 36.55 13.25 4.9-6.25 6.7q-0.8 0.45-1.45 1.2l-9.4-8.85 0.95-0.9 0.25-0.15 2.65-2.9m48.6 74.35-5.3 3.8-6.4-9.85 5.7-4.35 6 10.4m-88.35-36.5-7.4-11 4.35-1.1q5.55-1.45 11.35-3.7l4.9 1.1-1.3-2.85q1.35-0.8 2.9-1.25l3.45-2 7.5-4.75 7.3 10.05-6.25 3.95q-0.95 0.2-1.6 0.95l-1.35 0.75-2.65 1.55q-6.45 3.05-12.8 5.55l-8.4 2.75" fill="#fffcd8" fill-rule="evenodd"/>
<path d="m33.9 44.1 0.25-0.15 0.45-1.65q0-0.7 0.3-1.3l7.05-3.25 4.5-0.15-3.8-3.55 2.85-9.8q3.65-4.2 8.1-7.55l2.95-2.4q3.9-2.95 8.75-5.7l3.15-1.95 15.65-0.75 16.9 10.2-38.1 22 19.9-0.65 28.95-0.9-2.65 2.9-0.25 0.15-0.95 0.9-10.15 8.35-7.5 4.75-3.45 2q-1.55 0.45-2.9 1.25-2 0.8-3.6 1.75-5.8 2.25-11.35 3.7l-1.5-8.7-4.65-3.05-0.65 5-9.1 8.85q-4.75-0.2-8.5-1.15-6.3-1.7-9-6.9-3.45-4.8-1.8-11.75l0.15-0.5m31.75 0.15-0.8 3 0.8-3" fill="#d9b25d" fill-rule="evenodd"/>
<path d="m29.35 56.65 4.4-12.05q-1.65 6.95 1.8 11.75 2.7 5.2 9 6.9 3.75 0.95 8.5 1.15 2.05-0.2 4.3 0l6.25-0.85 1-0.15 7.4 11-7.4 1.45-1.65 0.2-0.5 0.3-5.3 0.6-3.8 0.15-0.85-7.95-3.15 5.1-1.65 2.65q-12.65-1.7-17.5-9.65-1.4-2.4-0.85-10.6m104.65 70.95-7.9 4.85 1.35-6.45 6.55 1.6m-11.85 7.15q-22 10.6-42.3 14.85l-0.6 0.3-4.75-10.75q20.05-4.1 41.2-14.9l6.45 10.5" fill="#9d8d5d" fill-rule="evenodd"/>
<path d="m167.75 89.15 1.85 13.35-9.25 8.4-6-10.4 9.45-7.6 3.95-3.75m-87.45-30.55q1.6-0.95 3.6-1.75l1.3 2.85-4.9-1.1m17.45-9.75 10.15-8.35 9.4 8.85-12.25 9.55-7.3-10.05" fill="#e5d5a5" fill-rule="evenodd"/>
<path d="m150.4 79.5 17.35 9.65-3.95 3.75-9.45 7.6-18.5-13.5 8.85-6.9 2.5-2.35 3.2 1.75m-98.6 7.05-7.9 19.65-6.05-4.9 9.85-24.4 1.65-2.65 2.45 12.3m-19.75 13-11.35 16.15-15.15 11.15-0.25-0.35-1.55-2.7q-1.15-1.75-1.9-3.85l15.05-10.3 8.55-8.4 9-12.9-2.4 11.2m88.4-2.2 7.75 0.45 8.65 5.75-2.9-10.5 14.7 11.8-16.9 10.85q-8.3 4.75-16.05 8.55l-6.2-20.6 0.85-0.45 8.4-4.55 1.7-1.3" fill="#d9b25d" fill-rule="evenodd"/>
<path d="m130.8 90.6 5.05-3.6 18.5 13.5-5.7 4.35-14.7-11.8-3.15-2.45" fill="#fdd681" fill-rule="evenodd"/>
<path d="m135.85 87-20.5-18.8-19.5-3.65 1.35-0.75q0.65-0.75 1.6-0.95l6.25-3.95 12.25-9.55 27.55 18.3 2.35 10.1-2.5 2.35-8.85 6.9m-46.1 25.55 6.6-7.7-1.7-11.5 6.35 9.15 9.35 0.7-0.85 0.45q-10.05 5.4-19.75 8.9" fill="#b39559" fill-rule="evenodd"/>
<path d="m125 41.45 10.5 4.95 9.35 21.25-27.55-18.3q0.65-0.75 1.45-1.2l6.25-6.7m10.85 45.55-5.05 3.6-10.35 6.75-1.7 1.3-8.4 4.55-9.35-0.7-6.35-9.15 1.7 11.5-6.6 7.7q-7.5 2.95-15.05 4.8 1.25-13.9-0.35-31.5l-2.35-11.45 8.4-2.75q6.35-2.5 12.8-5.55l2.65-1.55 19.5 3.65 20.5 18.8m-54.05-12.2-1.4-3.15 1.4 3.15m19.05 5.75-3.5-7.2 3.5 7.2m-7.05 7.6 0.85 5.2-0.85-5.2" fill="#e9cb8f" fill-rule="evenodd"/>
<path d="m130.8 90.6 3.15 2.45 2.9 10.5-8.65-5.75-7.75-0.45 10.35-6.75m-56.1 26.75q7.55-1.85 15.05-4.8 9.7-3.5 19.75-8.9l6.2 20.6q-21.15 10.8-41.2 14.9l0.2-21.8" fill="#ab842f" fill-rule="evenodd"/>
<path d="m2 94.85 10.45-7.8q-2.7 10.85 2.85 20.45l1.6 2.15-15.05 10.3q-3.8-9.55 0.15-25.1m51.95 47.25 5.65-22.15 1.6-0.2 0.65-0.05 7.55-1.1 5.3-1.25-0.2 21.8-5.95 1.3-6.85 1.1-7.75 0.55" fill="#8c6510" fill-rule="evenodd"/>
<path d="m79.25 149.9-6.1 1.1-5.35 0.55-0.95 0.2-6.2 0.4-6.75-10.05h0.05l7.75-0.55 6.85-1.1 5.95-1.3 4.75 10.75m-25.35-7.8h0.05-0.05" fill="#7e6e3e" fill-rule="evenodd"/>
<path d="m12.45 87.05q7.05-6.9 16.9-30.4-0.55 8.2 0.85 10.6 4.85 7.95 17.5 9.65l-9.85 24.4 0.75-11.1 0.55-8.65-4.7 6.8-9 12.9-8.55 8.4-1.6-2.15q-5.55-9.6-2.85-20.45m88.55-70.95 3.4 8.4-21.6 12.95-19.9 0.65 38.1-22m34.5 30.3 6.9 9.9 4.8 12.9 1.9 6.8 1.3 3.5-3.2-1.75-2.35-10.1-9.35-21.25m-75.9 73.55-5.65-38.6-0.6-4.25 3.8-0.15 5.3-0.6 0.4 0.1 0.1-0.4 1.65-0.2 7.4-1.45 2.35 11.45q1.6 17.6 0.35 31.5l-5.3 1.25-7.55 1.1-0.65 0.05-1.6 0.2" fill="#94763a" fill-rule="evenodd"/>
<path d="m34.9 41q0.9-4.05 3.7-7.8 2.85-4.85 6.9-8.95l-2.85 9.8 3.8 3.55-4.5 0.15-7.05 3.25m29.7 22.4-1 0.15-6.25 0.85q-2.25-0.2-4.3 0l9.1-8.85 0.65-5 4.65 3.05 1.5 8.7-4.35 1.1" fill="#ba933e" fill-rule="evenodd"/>
<path d="m53.95 81.35-2.15 5.2-2.45-12.3 3.15-5.1 0.85 7.95 0.6 4.25m-15.35 8.85-6.55 9.35 2.4-11.2 4.7-6.8-0.55 8.65" fill="#72490e" fill-rule="evenodd"/>
<path d="m29.35 56.65 4.4-12.05m28.7 31.75 0.5-0.3 1.65-0.2 7.4-1.45m45.3-25.05q0.65-0.75 1.45-1.2l6.25-6.7m5.8 49.15 5.05-3.6 8.85-6.9 2.5-2.35m-51.35-13.2-2.65 1.55q-6.45 3.05-12.8 5.55l-8.4 2.75m58.8 16.2-10.35 6.75m28.2 7.5 5.7-4.35 9.45-7.6 3.95-3.75m-50.45-39.8-12.25 9.55-6.25 3.95q-0.95 0.2-1.6 0.95l-1.35 0.75m-21.15 52.8q7.55-1.85 15.05-4.8m19.75-8.9 0.85-0.45 8.4-4.55 1.7-1.3m-4.75 26.9q7.75-3.8 16.05-8.55l16.9-10.85m-32.95 19.4q-21.15 10.8-41.2 14.9l-5.95 1.3-6.85 1.1m47.8-37.9q-10.05 5.4-19.75 8.9m-27.9 7.15 7.55-1.1 5.3-1.25" fill="none" stroke="#000" stroke-linecap="round" stroke-linejoin="round" stroke-opacity=".35294" stroke-width=".05"/>
<path d="m33.75 44.6-0.15-0.3m0.3-0.2 0.25-0.15 0.2-1.5 0.25-0.15q0-0.7 0.3-1.3 0.9-4.05 3.7-7.8 2.85-4.85 6.9-8.95 3.65-4.2 8.1-7.55m2.95-2.4q3.9-2.95 8.75-5.7l3.15-1.95m-34.7 37.95 0.15-0.5m0.25-0.15 0.45-1.65m18.45 22.1q-4.75-0.2-8.5-1.15-6.3-1.7-9-6.9-3.45-4.8-1.8-11.75m30.85 18.8-1 0.15-6.25 0.85q-2.25-0.2-4.3 0m15.9-2.1q5.55-1.45 11.35-3.7 1.6-0.95 3.6-1.75 1.35-0.8 2.9-1.25l3.45-2 7.5-4.75 10.15-8.35 0.95-0.9m0.25-0.15 2.65-2.9m-42.8 25.75-4.35 1.1" fill="none" stroke="#000" stroke-linecap="round" stroke-linejoin="round" stroke-opacity=".35294" stroke-width=".05"/>
<path d="m12.45 87.05q7.05-6.9 16.9-30.4-0.55 8.2 0.85 10.6 4.85 7.95 17.5 9.65m-14.1-32.6 0.3-0.2m20 98h0.05m-48.65-15.6-1.55-2.7q-1.15-1.75-1.9-3.85-3.8-9.55 0.15-25.1m51.35-17.75 3.8-0.15 5.3-0.6 0.4 0.1m-1 43.25-0.65 0.05-1.6 0.2m2.1 21.6-7.75 0.55m-37.05-32.45-1.6-2.15q-5.55-9.6-2.85-20.45" fill="none" stroke="#000" stroke-linecap="round" stroke-linejoin="round" stroke-opacity=".35294" stroke-width=".05"/>
<path d="m169.6 102.5-9.25 8.4-5.3 3.8-21.05 12.9-7.9 4.85-3.95 2.3q-22 10.6-42.3 14.85m-0.6 0.3-6.1 1.1-5.35 0.55-0.95 0.2-6.2 0.4m-55.1-25.3-0.25-0.35" fill="none" stroke="#000" stroke-linecap="round" stroke-linejoin="round" stroke-opacity=".50196" stroke-width=".05"/>
<path d="m136.55 20.45q0.15-0.1 0.25-0.15" fill="none" stroke="#000" stroke-linecap="round" stroke-linejoin="round" stroke-opacity=".2" stroke-width=".05"/>
<path d="m53.6 16.7 2.95-2.4m-21.65 26.7 7.05-3.25 4.5-0.15-3.8-3.55 2.85-9.8m7.55 40.15 9.1-8.85 0.65-5 4.65 3.05 1.5 8.7m-4.1-15.05 0.8-3m18.25 12.6 1.3 2.85-4.9-1.1m35.05 9.6-19.5-3.65m-15.45 7.1 1.4 3.15m38.65 22.55 7.75 0.45 8.65 5.75-2.9-10.5m-36.6-19.7 3.5 7.2m-11.1 32 6.6-7.7-1.7-11.5-0.85-5.2m16.55 15.05-9.35-0.7-6.35-9.15m31.45 39.1 1.35-6.45 6.55 1.6" fill="none" stroke="#000" stroke-linecap="round" stroke-linejoin="round" stroke-opacity=".35294" stroke-width=".05"/>
<path d="m68.45 6.65 15.65-0.75 16.9 10.2 3.4 8.4-21.6 12.95 28.95-0.9 13.25 4.9 10.5 4.95 6.9 9.9 4.8 12.9 1.9 6.8 1.3 3.5 17.35 9.65 1.85 13.35m-108.95 49.65-6.75-10.05m0.05 0 5.65-22.15-5.65-38.6-2.15 5.2-7.9 19.65-6.05-4.9 0.75-11.1-6.55 9.35-11.35 16.15-15.15 11.15m42.15-49.95 1.65-2.65 3.15-5.1 0.85 7.95m-14.75 13.1 0.55-8.65-4.7 6.8-9 12.9-8.55 8.4-15.05 10.3m52.1-38.6-0.6-4.25m29.45-39.65-19.9 0.65 38.1-22m46.2 61.65-2.35-10.1-9.35-21.25m11.7 31.35 3.2 1.75m-96.45 62.6h-0.05m-6.2-65.2-9.85 24.4" fill="none" stroke="#000" stroke-linecap="round" stroke-linejoin="round" stroke-opacity=".32157" stroke-width=".2"/>
</g>
<g id="a" transform="translate(4.9,3.05)">
<use transform="translate(-4.9,-3.05)" width="9" height="6.0500002" xlink:href="#d"/>
</g>
<g id="d" transform="translate(4.9,3.05)">
<path d="m3.4-1.7 0.7 1.25v0.1l-0.05 0.2v0.25l-3.95 0.05 1.25 1.2 0.65 0.55 0.05 0.75-0.35 0.35-6.6-1.95v-0.7l3.6-3.4 4.7 1.35" fill="#338eb9" fill-rule="evenodd"/>
</g>
<g id="c" transform="translate(-52.35,-9.05)">
<path d="m88.1 23.8 12.35-6.85 1.1 1.95-20.85 12.05-3.1-1.35 10.5-5.8" fill="#5b7783" fill-rule="evenodd"/>
<path d="m72.5 13.65h0.7m-18.7 36.05-2.15-3.75m35.75-22.15-22.35-8.4" fill="none" stroke="#000" stroke-linecap="round" stroke-linejoin="round" stroke-opacity=".2" stroke-width=".05"/>
<path d="m73.2 13.65 17.95-4.6m-38.8 36.9 1.7-6.35 7.05-22.85 4.65-1.35 6.75-1.75m24.05 22.15-0.8 3.95-41.25 9.95" fill="none" stroke="#000" stroke-linecap="round" stroke-linejoin="round" stroke-opacity=".35294" stroke-width=".05"/>
<path d="m54.05 39.6 11.1 3.25" fill="none" stroke="#ccc" stroke-linecap="round" stroke-linejoin="round" stroke-opacity=".2" stroke-width=".05"/>
<path d="m73.2 13.65 24.3 0.15" fill="none" stroke="#e1e1e1" stroke-linecap="round" stroke-linejoin="round" stroke-opacity=".2" stroke-width=".05"/>
<path d="m65.15 42.8 28.45-6.85 2.15 3.8-41.25 9.9-2.15-3.7 12.8-3.15" fill-opacity=".4" fill-rule="evenodd"/>
<path d="m98.15 13.8 0.1-0.35 2.65 1.2-0.45 2.3-3.25 1.8 0.95-4.95m-4.55 22.15 0.6-2.55q0.95 1.35 2.35 2.55l-0.8 3.8-2.15-3.8" fill="#fff" fill-opacity=".6" fill-rule="evenodd"/>
<path d="m97.2 18.75-9 5.1-22.5-8.4 7.45-1.8 25 0.15-0.95 4.95m-44.85 27.2 1.7-6.35 11.1 3.2-12.8 3.15" fill="#fff" fill-opacity=".4" fill-rule="evenodd"/>
</g>
</defs>
</svg>
