<?xml version="1.0" encoding="UTF-8"?>
<svg version="1.1" viewBox="0 0 143.52 131.78" xmlns="http://www.w3.org/2000/svg" xmlns:cc="http://creativecommons.org/ns#" xmlns:dc="http://purl.org/dc/elements/1.1/" xmlns:rdf="http://www.w3.org/1999/02/22-rdf-syntax-ns#" xmlns:xlink="http://www.w3.org/1999/xlink">
<metadata>
<rdf:RDF>
<cc:Work rdf:about="">
<dc:format>image/svg+xml</dc:format>
<dc:type rdf:resource="http://purl.org/dc/dcmitype/StillImage"/>
</cc:Work>
</rdf:RDF>
</metadata>
<g transform="translate(-194.15 -116.79)">
<use transform="translate(194.2,116.8)" width="143.45" height="131.75" xlink:href="#a"/>
</g>
<defs>
<g id="a" transform="translate(-194.2,-116.8)">
<path d="m222.15 123.25 5.95-2.95 6.1-0.55 8.7 3.05 6.8 4.5 2.5 10.1q-2.55 2.4-6.6 2.85l-1.25-1.45q-5.75-5.5-14.8-4.85l-4.8 0.75-1 0.25q-2.2-3.9-2.6-6.8t0.9-4.75l0.1-0.15m-8.25 38.55q-5.5-13.05 4.05-22.7l6-2.5 5.45 1.75 5.25 5.25 1.65 4.65-0.4 8.7q-12.35 0.75-22 4.85" fill="#782825" fill-rule="evenodd"/>
<path d="m254.35 131.2 0.15-4.5-1.95-2.95-4.05-2.95 3.15 4.15 2.7 6.25m-2.15 6.2-2.5-10.1-6.8-4.5-8.7-3.05-6.1 0.55-5.95 2.95 0.9-1.2 0.1-0.3q1.6-2.2 2.15-2.35l1.05-0.5q8.9-3.1 16.55-1.6 6.2 1.25 11.7 5.7 2.15 3.15 0.8 9l-0.1 0.1h0.05q-1.1 3.3-3.15 5.3m-28.45-2.45 1-0.25 4.8-0.75q9.05-0.65 14.8 4.85l1.25 1.45 1.6 1.85q2.15 14.25-3.1 14.75-3.9-0.15-7.6 0.1h-0.6l0.4-8.7-1.65-4.65-5.25-5.25-5.45-1.75-6 2.5q1.8-1.9 4.15-3.6l1.65-0.55m16.1 2.3 1.25 3.55 1.55 11.65 3.25-0.55-0.1-5.15-1.65-4.7-4.3-4.8" fill="#bf4c38" fill-rule="evenodd"/>
<path d="m254.35 131.2-2.7-6.25-3.15-4.15 4.05 2.95 1.95 2.95-0.15 4.5m-14.5 6.05 4.3 4.8 1.65 4.7 0.1 5.15-3.25 0.55-1.55-11.65-1.25-3.55" fill="#d17669" fill-rule="evenodd"/>
<path d="m244.1 156.85 8.8-0.3 24.5 0.85q22.65 5.05 24.25 10.35l-12.75-0.05-22.75 4-9.9 4.4 6.8 3.35v-0.1l3.2 0.8-19.05 9.55-11.25-2.9-3.1 3.55 16.9 4.3 23.55-12.8 12.4 2.2-22.15 11.6-11.7 2.5v5.2l17.6-3.75 22.6-14.85 9.85 0.7-14.85 15.6-15.35 2.55 4 4.55 15-1.9 17.85-20.65q14 0.1 28.9-1.8 1.8 17.6-13.3 32-4.85 4.55-11.3 8.8l-32.25 7.3-20.1 2.65-9.5-1.8-10.1-4.4-11.25-7.5-8.75-7.3-6.5-8.3-3.7-10.15-0.45-16.95 7.4-10.65 18.85-10.55q3.7-0.25 7.6-0.1m88.8 32.15-5.65-0.55-1.05 6.9-2.2 9.65-2.3 4.65-8.05 11.45 7.9-6.5 7.1-11.75 2.7-5.8 1.55-8.05m-38.55-24.05-4.05-2.4-17-3.75-24.45 0.1 42.2 7.9 3.3-1.85" fill="#ffe5c7" fill-rule="evenodd"/>
<path d="m312.85 224.6q-9.65 6.3-22.9 11.85l-29.1 5.3-20.05 0.85q-5.2 2.85-16.6-3.3-3.35 1.2-13.95-8.3-8.45-7.25-10.5-19.2-4.15-9.35-4.65-19.75 2.75-14.05 13.9-27.35l4.9-2.9q9.65-4.1 22-4.85h0.6l-18.85 10.55-7.4 10.65 0.45 16.95 3.7 10.15 6.5 8.3 8.75 7.3 11.25 7.5 10.1 4.4 9.5 1.8 20.1-2.65 32.25-7.3" fill="#ccad88" fill-rule="evenodd"/>
<path d="m266.25 180.15 7.05 1.7-23.55 12.8-16.9-4.3 3.1-3.55 11.25 2.9 19.05-9.55m19.45 3.9 6.35 0.7-22.6 14.85-17.6 3.75v-5.2l11.7-2.5 22.15-11.6m16.2 1.4 6.65 0.15-17.85 20.65-15 1.9-4-4.55 15.35-2.55 14.85-15.6" fill="#efc694" fill-rule="evenodd"/>
<path d="m289.95 236.45q-14.75 6.15-34 11.45-40.15 5-58.55-28.75-4.95-13.85-2.3-27.1 0.5 10.4 4.65 19.75 2.05 11.95 10.5 19.2 10.6 9.5 13.95 8.3 11.4 6.15 16.6 3.3l20.05-0.85 29.1-5.3" fill="#c19a73" fill-rule="evenodd"/>
<path d="m332.9 189-1.55 8.05-2.7 5.8-7.1 11.75-7.9 6.5 8.05-11.45 2.3-4.65 2.2-9.65 1.05-6.9 5.65 0.55m-38.55-24.05-3.3 1.85-42.2-7.9 24.45-0.1 17 3.75 4.05 2.4" fill="#fff" fill-rule="evenodd"/>
<path d="m222.15 123.25-0.1 0.15q-1.3 1.85-0.9 4.75t2.6 6.8l1-0.25 4.8-0.75q9.05-0.65 14.8 4.85l1.25 1.45q4.05-0.45 6.6-2.85 2.05-2 3.15-5.3h-0.05l0.1-0.1q1.35-5.85-0.8-9-5.5-4.45-11.7-5.7-7.65-1.5-16.55 1.6l-1.05 0.5q-0.55 0.15-2.15 2.35l-0.1 0.3-0.9 1.2m21.95 33.6 8.8-0.3 24.5 0.85q22.65 5.05 24.25 10.35m-38.6 11.6 3.2 0.8 7.05 1.7 12.4 2.2 6.35 0.7 9.85 0.7 6.65 0.15q14 0.1 28.9-1.8 1.8 17.6-13.3 32-4.85 4.55-11.3 8.8-9.65 6.3-22.9 11.85-14.75 6.15-34 11.45-40.15 5-58.55-28.75-4.95-13.85-2.3-27.1 2.75-14.05 13.9-27.35l4.9-2.9q-5.5-13.05 4.05-22.7 1.8-1.9 4.15-3.6l1.65-0.55m21.85 5.3 1.6 1.85q2.15 14.25-3.1 14.75-3.9-0.15-7.6 0.1m-0.6 0h0.6m-22.6 4.85q9.65-4.1 22-4.85" fill="none" stroke="#55281e" stroke-linecap="round" stroke-linejoin="round" stroke-opacity=".4" stroke-width=".05"/>
<path d="m301.65 167.75-12.75-0.05-22.75 4-9.9 4.4 6.8 3.35v-0.1" fill="none" stroke="#963" stroke-linecap="round" stroke-linejoin="round" stroke-width=".05"/>
</g>
</defs>
</svg>
