<?xml version="1.0" encoding="UTF-8"?>
<svg version="1.1" viewBox="0 0 252.49 302.86" xmlns="http://www.w3.org/2000/svg" xmlns:cc="http://creativecommons.org/ns#" xmlns:dc="http://purl.org/dc/elements/1.1/" xmlns:rdf="http://www.w3.org/1999/02/22-rdf-syntax-ns#" xmlns:xlink="http://www.w3.org/1999/xlink">
<metadata>
<rdf:RDF>
<cc:Work rdf:about="">
<dc:format>image/svg+xml</dc:format>
<dc:type rdf:resource="http://purl.org/dc/dcmitype/StillImage"/>
</cc:Work>
</rdf:RDF>
</metadata>
<g transform="translate(-183.92 -50.947)">
<use transform="matrix(-5.0668 -16.553 -16.553 5.0668 499.26 283.66)" width="17.75" height="15.75" xlink:href="#a"/>
</g>
<defs>
<g id="a" transform="translate(0,16.3)">
<path d="m2.9-0.55q-4.55-0.75-1.9-4.3 0.7 0.75 6.75-1.1l0.35 0.25q-5.65 2.75-5.2 5.15" fill="#999804" fill-rule="evenodd"/>
<path d="m12.1-7.2 0.1-0.6q0.3-0.8 1.3-0.7 0.95 0.1 2.1 1.05t1.75 2.2 0.35 2.1q-0.3 0.8-1.25 0.7-1.05-0.1-2.15-1.05-1.15-0.95-1.75-2.2-0.45-0.85-0.45-1.5" fill="#ff8b17" fill-rule="evenodd"/>
<path d="m14.15-14.05q0.25 1.4 0 2.95-0.3 1.5-1 2.2t-1.35 0.15q-0.7-0.55-1-1.95-0.3-1.45 0-2.95 0.3-1.55 1-2.25t1.4-0.15q0.65 0.55 0.95 2" fill="#f60" fill-rule="evenodd"/>
<path d="m11.95-7.15v0.25l-0.45 1.05q-0.65 0.7-1.7 0.6l-1.15-0.3-0.35-0.25-0.5-0.4q-0.9-0.9-1.1-2t0.45-1.85q0.55-0.65 1.55-0.6h0.15q1.1 0.1 2 1l0.4 0.45 0.6 1.3 0.05 0.2 0.05 0.35v0.2" fill="#f15501" fill-rule="evenodd"/>
<path d="m14.15-14.05q0.25 1.4 0 2.95-0.3 1.5-1 2.2t-1.35 0.15q-0.7-0.55-1-1.95-0.3-1.45 0-2.95 0.3-1.55 1-2.25t1.4-0.15q0.65 0.55 0.95 2" fill="none" stroke="#c30" stroke-linecap="round" stroke-linejoin="round" stroke-width=".05"/>
<path d="m11.95-7.15v0.25l-0.45 1.05q-0.65 0.7-1.7 0.6l-1.15-0.3-0.35-0.25-0.5-0.4q-0.9-0.9-1.1-2t0.45-1.85q0.55-0.65 1.55-0.6h0.15q1.1 0.1 2 1l0.4 0.45 0.6 1.3 0.05 0.2 0.05 0.35v0.2" fill="none" stroke="#ad2301" stroke-linecap="round" stroke-linejoin="round" stroke-width=".05"/>
<path d="m11.95-7.15 0.15-0.05m-11.1 2.35q0.7 0.75 6.75-1.1m0.35 0.25q-5.65 2.75-5.2 5.15" fill="none" stroke="#767603" stroke-linecap="round" stroke-linejoin="round" stroke-width=".05"/>
<path d="m12.1-7.2 0.1-0.6q0.3-0.8 1.3-0.7 0.95 0.1 2.1 1.05t1.75 2.2 0.35 2.1q-0.3 0.8-1.25 0.7-1.05-0.1-2.15-1.05-1.15-0.95-1.75-2.2-0.45-0.85-0.45-1.5" fill="none" stroke="#b03304" stroke-linecap="round" stroke-linejoin="round" stroke-width=".05"/>
</g>
</defs>
</svg>
