<?xml version="1.0" encoding="UTF-8"?>
<svg version="1.1" viewBox="0 0 226.23 154.62" xmlns="http://www.w3.org/2000/svg" xmlns:cc="http://creativecommons.org/ns#" xmlns:dc="http://purl.org/dc/elements/1.1/" xmlns:rdf="http://www.w3.org/1999/02/22-rdf-syntax-ns#" xmlns:xlink="http://www.w3.org/1999/xlink">
<metadata>
<rdf:RDF>
<cc:Work rdf:about="">
<dc:format>image/svg+xml</dc:format>
<dc:type rdf:resource="http://purl.org/dc/dcmitype/StillImage"/>
</cc:Work>
</rdf:RDF>
</metadata>
<g transform="translate(-162.51 -68.5)">
<use transform="matrix(-.8154 .468 .7605 .6714 264.67 62.699)" width="98.650002" height="108.05" xlink:href="#a"/>
<use transform="matrix(-1.099 .0391 .2108 .8204 350.85 123.47)" width="98.650002" height="108.05" xlink:href="#a"/>
<use transform="matrix(-.3701 .5872 .861 .3583 205.12 115.42)" width="98.650002" height="108.05" xlink:href="#a"/>
<use transform="matrix(-.6237 -.4521 -.5331 .3979 394.87 204.88)" width="98.650002" height="108.05" xlink:href="#a"/>
<use transform="matrix(.4593 .5625 .7086 -.2602 156.67 183.79)" width="98.650002" height="108.05" xlink:href="#a"/>
</g>
<defs>
<g id="a" transform="translate(49.35,54)">
<path d="m-42.95-49.7q9.9-8.6 29.45-0.05 19.65 8.45 37.45 29.05 17.75 20.6 23.35 41.2t-4.35 29.2-29.55 0.1q-19.55-8.5-37.35-29.1t-23.4-41.2q-5.55-20.6 4.4-29.2" fill="#647a0a" fill-rule="evenodd"/>
<path d="m25.9-8.8q11 12.75 14.45 25.55 3.5 12.75-2.65 18.1-6.2 5.3-18.35 0.05-12.1-5.25-23.15-18-11.05-12.8-14.5-25.55-3.45-12.8 2.7-18.1 6.15-5.35 18.3-0.05 12.15 5.25 23.2 18" fill="#bbd213" fill-rule="evenodd"/>
</g>
</defs>
</svg>
