<?xml version="1.0" encoding="UTF-8"?>
<svg version="1.1" viewBox="0 0 39.935 62.667" xmlns="http://www.w3.org/2000/svg" xmlns:cc="http://creativecommons.org/ns#" xmlns:dc="http://purl.org/dc/elements/1.1/" xmlns:rdf="http://www.w3.org/1999/02/22-rdf-syntax-ns#" xmlns:xlink="http://www.w3.org/1999/xlink">
<metadata>
<rdf:RDF>
<cc:Work rdf:about="">
<dc:format>image/svg+xml</dc:format>
<dc:type rdf:resource="http://purl.org/dc/dcmitype/StillImage"/>
</cc:Work>
</rdf:RDF>
</metadata>
<g transform="translate(-200.41 -134.81)">
<use transform="translate(200.45,134.85)" width="39.849998" height="62.599998" xlink:href="#a"/>
</g>
<defs>
<g id="a" transform="translate(-200.45,-134.85)">
<path d="m222.5 170.25 1.25 8.8q3.1 4.95 9.3 6.75 6.95 1.6 7.2 4.15 0.2 1.1-0.2 1.7l-2.4-0.2q-3.3-1.6-8-2.85-1.7-0.6-3.55 0.75v0.1l-0.15 1.55q-0.15 0.6 0.2 1.55 0.9 2.2 0.55 3.3l-3.1 0.05q-2.15-0.95-3.3-3-1.05-2.85-0.7-5.7l-0.65 0.05v-0.05l-0.2 0.05q-2.7 0.35-4.75 1.65l-0.1 0.05 3.5-7.15q1.55-6.55-2.05-13.1l3.4 1.65q1.3 1.15 1.05 2.25l-0.7 3.85q0.1 2.15 1.65 2 1.7-0.6 1.85-2.4-0.15-1.55-1.2-3.45l0.55-2 0.55-0.35" fill="#ffefd6" fill-rule="evenodd"/>
<path d="m240.05 191.65q-1.1 1.35-5.85-0.25-7.8-2.85-8.25-0.4l0.15-1.55v-0.1q1.85-1.35 3.55-0.75 4.7 1.25 8 2.85l2.4 0.2m-13.35 4.2q-0.5 1.4-3.1 0.85-3.7-0.75-4.45-6.8l-0.2-2.65 0.65-0.05q-0.35 2.85 0.7 5.7 1.15 2.05 3.3 3l3.1-0.05m-12.9-0.85-0.8-0.2h-0.15l-1.05-2.05 1.2-3.2q-1.85 1.35-3.2 3.45-6.05 6.95-8.8 3.05 0.45-2.55 4.85-6.75 3.4-3.4 3.9-8.25l-1.55-9.85q1.55-2 5.7-2.85l0.55-0.1 0.6-0.1 0.3 0.55q3.6 6.55 2.05 13.1l-3.5 7.15-0.25 0.15 0.25 0.1-0.25-0.1-0.1 0.05-0.55 0.4 0.55-0.4 0.1-0.05 0.25-0.15 0.1-0.05-0.1 0.3-1 3.7v0.05l0.9 2.05" fill="#d5c6ae" fill-rule="evenodd"/>
<path d="m218.75 190.85-1.2 3.35-2.15 1.15-1.6-0.35-0.9-2.05v-0.05l1-3.7q2.75 0.5 4.85 1.65" fill="#cbb99a" fill-rule="evenodd"/>
<path d="m219.15 189.9-0.4 0.95q-2.1-1.15-4.85-1.65l0.1-0.3q2.05-1.3 4.75-1.65l0.2-0.05v0.05l0.2 2.65" fill="#987c4e" fill-rule="evenodd"/>
<path d="m215.05 168.15h0.35q5.1-0.5 6.95 1.15l0.15 0.95-0.55 0.35-0.55 2q1.05 1.9 1.2 3.45-0.15 1.8-1.85 2.4-1.55 0.15-1.65-2l0.7-3.85q0.25-1.1-1.05-2.25l-3.4-1.65-0.3-0.55" fill="#fff9f0" fill-rule="evenodd"/>
<path d="m214.55 165.4-0.7 0.05q-3.85 0-7.8-4.65-3-3.95-4.85-10.25-1.4-5.8-0.25-10.4 1.35-5.6 2.55-5.3 0.2-0.05 7.2 8.8 0.65 0.9 3.7 3.2 1.85 1.4 3.05 5.15 1.6 5.55 0.55 9.3-0.8 3.65-3.4 4.05l-0.05 0.05m0.7-7.25q-5.55-4.05-8.05-11.55-0.8 6 2.95 13.55 1.25 2.65 3.95 2.95 1.85-1.7 1.15-4.95" fill="#ffdb60" fill-rule="evenodd"/>
<path d="m215.25 158.15q0.7 3.25-1.15 4.95-2.7-0.3-3.95-2.95-3.75-7.55-2.95-13.55 2.5 7.5 8.05 11.55" fill="#fff193" fill-rule="evenodd"/>
<path d="m215.05 168.15h0.35q5.1-0.5 6.95 1.15l0.15 0.95 1.25 8.8m-10.75 10.5q-1.85 1.35-3.2 3.45-6.05 6.95-8.8 3.05 0.45-2.55 4.85-6.75 3.4-3.4 3.9-8.25l-1.55-9.85q1.55-2 5.7-2.85m0.55-0.1 0.6-0.1m3.9 19.05-0.2 0.05q-2.7 0.35-4.75 1.65l-0.1 0.05-0.25 0.15m-0.1 0.05-0.55 0.4" fill="none" stroke="#937c4d" stroke-linecap="round" stroke-linejoin="round" stroke-width=".05"/>
<path d="m223.75 179.05q3.1 4.95 9.3 6.75 6.95 1.6 7.2 4.15 0.2 1.1-0.2 1.7-1.1 1.35-5.85-0.25-7.8-2.85-8.25-0.4-0.15 0.6 0.2 1.55 0.9 2.2 0.55 3.3-0.5 1.4-3.1 0.85-3.7-0.75-4.45-6.8l-0.2-2.65v-0.05" fill="none" stroke="#937c4d" stroke-linecap="round" stroke-linejoin="round" stroke-width=".05"/>
<path d="m214.55 165.4 0.5 2.75" fill="none" stroke="#33291c" stroke-linecap="round" stroke-linejoin="round" stroke-width=".05"/>
<path d="m219.15 189.9-0.4 0.95-1.2 3.35-2.15 1.15-1.6-0.35-0.8-0.2h-0.15l-1.05-2.05 1.2-3.2m0.9-0.35-0.25-0.1-0.1 0.05" fill="none" stroke="#aa8c59" stroke-linecap="round" stroke-linejoin="round" stroke-width=".05"/>
<path d="m214.55 165.4-0.7 0.05q-3.85 0-7.8-4.65-3-3.95-4.85-10.25-1.4-5.8-0.25-10.4 1.35-5.6 2.55-5.3 0.2-0.05 7.2 8.8 0.65 0.9 3.7 3.2 1.85 1.4 3.05 5.15 1.6 5.55 0.55 9.3-0.8 3.65-3.4 4.05l-0.05 0.05" fill="none" stroke="#cd8f01" stroke-linecap="round" stroke-linejoin="round" stroke-width=".05"/>
</g>
</defs>
</svg>
