<?xml version="1.0" encoding="UTF-8"?>
<svg version="1.1" viewBox="0 0 136.56 67.056" xmlns="http://www.w3.org/2000/svg" xmlns:cc="http://creativecommons.org/ns#" xmlns:dc="http://purl.org/dc/elements/1.1/" xmlns:rdf="http://www.w3.org/1999/02/22-rdf-syntax-ns#" xmlns:xlink="http://www.w3.org/1999/xlink">
<metadata>
<rdf:RDF>
<cc:Work rdf:about="">
<dc:format>image/svg+xml</dc:format>
<dc:type rdf:resource="http://purl.org/dc/dcmitype/StillImage"/>
</cc:Work>
</rdf:RDF>
</metadata>
<g transform="translate(-197.29 -139.54)">
<use transform="translate(197.3,139.55)" width="136.55" height="67.050003" xlink:href="#a"/>
</g>
<defs>
<g id="a" transform="translate(-20.7,-9.8)">
<path d="m80.55 59.2h-0.05v-0.05l0.05 0.05m49.75-5.4-9.45 4.65-9.5 3.65q7.05-3.65 13.2-6.15l5.75-2.15m-25.25-21.35-0.05 0.1 0.05-0.1" fill="#d3d6cd" fill-rule="evenodd"/>
<path d="m81.45 59.65-0.9-0.45-0.05-0.05 0.05-0.1h0.05l0.9 0.5-0.05 0.1" fill="#534a44" fill-rule="evenodd"/>
<path d="m83.75 34.9-0.05-0.25h0.1l-0.05 0.25m-7 6.65-0.7 0.2h-0.3l1-0.2m-19.95-3.15v0.1l-0.6-0.1h0.6m11.35 1.2 0.05 0.3-2.05 0.35-0.35-0.1 0.35-0.05 2-0.5m-4.05-1.7-4.7-0.25h5.2l-0.5 0.25" fill="#4f4642" fill-rule="evenodd"/>
<path d="m73.15 69.6 0.05-0.05 0.7 0.4-0.75-0.35" fill="#b9baab" fill-rule="evenodd"/>
<path d="m36.35 52.4-1.3 0.05v-0.45l1.3 0.4" fill="#7d5397" fill-rule="evenodd"/>
<path d="m143.25 27.35-0.3 4.8-19.3 14.9-19.55 4.95-8.35-0.65q0.35-1.1-0.3-2.5l-1.1 1.05q-0.55 0.55-0.35 1.3l-9.75-0.8q-21.4-6.25-34.55-8.75-0.15-1.2-1.2-2.3v1.85q-2.2-2.15-5.4-1.5l-0.4 0.05 0.75 0.85q-14.1-2-15 2.1l-4.3-5.65q2.8-5.7 11.3-9.05l23.85 0.4 14.2 5.25 3.1-3.55q3 4.05 6.3 6.8l-9.15 1.3-0.95 0.2-8.7-0.5q-1.25 0.55-3.05 0.55l-4.25-0.05h-0.6l0.6 0.1 5.6 0.25 9.8-0.25-4.05 1.1-2 0.5-0.35 0.05 0.35 0.1 2 0.45 14.4-1-5.8 1.85 8-1.7-0.15-0.45 1.4-0.25q14.2 8.8 33.4-5.25l5.85-4.75 18-1.8m-19.1 11.45q-0.55-0.3-0.75-0.75-0.35-0.85-0.35-1.85 0-1.05-0.85-1.8t-2.05-0.7q-0.6-0.05-0.65 0.3-0.1 0.3 0.4 1 0.85 1.25-3.8 4.45l-0.45 0.25q-5.15 3.4 0.05 1.85l0.4-0.1 8.05-2.65m-47.4 2.75-1 0.2h0.3l0.7-0.2m14.95 5.5-0.35-3.65 0.35 3.65m-26.85-6.6 1.3-0.2-1.3 0.2m-0.75-2.55 0.5-0.25h-5.2l4.7 0.25" fill="#ebebda" fill-rule="evenodd"/>
<path d="m148.55 28.1-5.3-0.75-18 1.8-5.85 4.75q-19.2 14.05-33.4 5.25l1.75-0.3 15-2.55-0.3 0.4 4.3-0.55 6.15-2.7q-1.9-1.5-5.55-1h-2.3l0.05-0.45 0.2-0.6 0.25-0.5 0.2-0.45 0.1-0.35 0.1-1.05q-4.85 2.3-10.5 3.8-1.15 0.3-2.2 0.95l-1.3 1.05-3.3 0.85-0.05-0.25-4.8-0.8h-0.1l0.05 0.25q0.9 0.6 1.5 1.55l-2.35 0.45q-3.3-2.75-6.3-6.8l-3.1 3.55-14.2-5.25 5.8 0.1 7.95-3.3 9.95-11.25q4.8-6.45 14-2.25l7.3 7.25q25.95 8.6 38.6 5.6 7.8-0.6 14.1 4.7-5.2-3.5-8.45-1.15m-4 15.35 5.35 0.6-9.15 4.55 3.8-5.15m-33.2 18.65q-11.1 5.6-24.4 13.95l-14.55 0.55-22.95-13.45q-4.9-2.55-9.8-4.25-7.4-2.65-14.8-3.55-1.35-2.2-2.2-4.35 1.35 1.35 8.25 1.45 1 1.2 2.35 2.2l-0.75-1.8 2.55-0.4 1.3-0.05q13.8 4.55 18.2 7.45 4.8 3.2 18.6 9.75l-0.65 0.7-2.5 0.35q5.2 2.55 10.15 1.1v-1l9.5-0.45 21.7-8.2m-8.25-22h-5.9 5.9" fill="#d0d0a8" fill-rule="evenodd"/>
<path d="m81.45 59.65q-3.8 11.85 19.5 2.9 14.4-5.55 23.6-10.05l1.45-0.75q5.1-2.55 8.45-4.8l7.25-7.05 2.85-1.9-0.55 5.35 0.55 0.1-3.8 5.15 9.15-4.55-4.8 6.25q-3.75 0.3-8.15 1.45l-6.65 2.05-5.75 2.15q-6.15 2.5-13.2 6.15l-21.7 8.2-9.5 0.45v-2.3l-0.4-0.25q-2.2-1.2-3.6-3l-0.3 0.35-2.45 3.75-2.6-1.4q-2.8-2.05-4.2-4.15-2.05-3.25 6.25-3.6 8.3-0.4 1.8-4.4l-3.15-1.95q0.55 1.05-0.95 2.6-1.9 2-28.3-3.25l-4.1-0.8-3.05-0.65h-0.05v-1.05l-1.05-0.35-4.75-0.4 0.1 0.35 1.55 2.2q-6.9-0.1-8.25-1.45l-0.35-0.85q-1.5-4.15-1.35-8.25l1.4-0.2 0.5-0.1q0.25-2.45 1.3-4.55l4.3 5.65q0.9-4.1 15-2.1 1.95 1.95 5.45 3.5 0.9-1.25 0.8-2.45 13.15 2.5 34.55 8.75l9.75 0.8q-0.2-0.75 0.35-1.3l1.1-1.05q0.65 1.4 0.3 2.5l8.35 0.65 19.55-4.95 19.3-14.9 0.3-4.8 5.3 0.75-2.3 3.75-6.65 6.2-1.75 1.6q-8.7 9.75-28.85 13.95l-3.55 0.65-21.35-0.05-4.45 4.5 0.85 0.45v0.05h0.05l0.9 0.45m-51.05-13.35-8.05-4.6 8.05 4.6m93.75-7.5-8.05 2.65-0.4 0.1q-5.2 1.55-0.05-1.85l0.45-0.25q4.65-3.2 3.8-4.45-0.5-0.7-0.4-1 0.05-0.35 0.65-0.3 1.2-0.05 2.05 0.7t0.85 1.8q0 1 0.35 1.85 0.2 0.45 0.75 0.75m-19.1-6.35h2.3q3.65-0.5 5.55 1l-6.15 2.7-4.3 0.55 0.3-0.4 0.3-0.1q1.5-1.45 1.95-3.65l0.05-0.1" fill="#b8b87a" fill-rule="evenodd"/>
<path d="m141.7 39.9-7.25 7.05q-3.35 2.25-8.45 4.8l-1.45 0.75q-9.2 4.5-23.6 10.05-23.3 8.95-19.5-2.9l0.05-0.1-0.9-0.5h-0.05l-0.05 0.1-0.85-0.45 4.45-4.5 21.35 0.05 3.55-0.65q20.15-4.2 28.85-13.95l1.75-1.6 2.1 1.85m-92 1.75q0.1 1.2-0.8 2.45-3.5-1.55-5.45-3.5l-0.75-0.85 0.4-0.05q3.2-0.65 5.4 1.5v-1.85q1.05 1.1 1.2 2.3m33.2-4.75 2.35-0.45q-0.6-0.95-1.5-1.55l0.05-0.25 4.8 0.8 0.05 0.25 3.3-0.85 1.3-1.05q1.05-0.65 2.2-0.95 5.65-1.5 10.5-3.8l-0.1 1.05-0.1 0.35-0.2 0.45-0.25 0.5-0.2 0.6-0.05 0.45-0.05 0.1q-0.45 2.2-1.95 3.65l-0.3 0.1-15 2.55-1.75 0.3-1.4 0.25 0.15 0.45-8 1.7 5.8-1.85-14.4 1-2-0.45 2.05-0.35-0.05-0.3 4.05-1.1-9.8 0.25-5.6-0.25v-0.1l4.25 0.05q1.8 0 3.05-0.55l8.7 0.5 0.95-0.2 9.15-1.3m-7 1.7-7.7 1.3 7.7-1.3m-45 13.85-1.55-2.2-0.1-0.35 4.75 0.4 1.05 0.35v1.05h0.05l3.05 0.65 4.1 0.8q26.4 5.25 28.3 3.25 1.5-1.55 0.95-2.6l3.15 1.95q6.5 4-1.8 4.4-8.3 0.35-6.25 3.6 1.4 2.1 4.2 4.15l2.6 1.4 2.45-3.75 0.3-0.35q1.4 1.8 3.6 3l0.4 0.25v3.3q-4.95 1.45-10.15-1.1l2.5-0.35 0.65-0.7q-13.8-6.55-18.6-9.75-4.4-2.9-18.2-7.45l-1.3-0.4v0.45l-2.55 0.4 0.75 1.8q-1.35-1-2.35-2.2m42.25 17.15 0.75 0.35-0.7-0.4-0.05 0.05" fill="#73733e" fill-rule="evenodd"/>
<path d="m141.7 39.9-7.25 7.05q-3.35 2.25-8.45 4.8l-1.45 0.75q-9.2 4.5-23.6 10.05-23.3 8.95-19.5-2.9m-0.95-0.45v-0.05l-0.85-0.45 4.45-4.5 21.35 0.05 3.55-0.65q20.15-4.2 28.85-13.95l1.75-1.6 6.65-6.2 2.3-3.75q3.25-2.35 8.45 1.15-6.3-5.3-14.1-4.7-12.65 3-38.6-5.6l-7.3-7.25q-9.2-4.2-14 2.25l-9.95 11.25-7.95 3.3-5.8-0.1m-35.15 8.65q-1.05 2.1-1.3 4.55l-0.5 0.1 8.05 4.6m111.3-6.4-2.1-1.85m4.95 5.4-0.55-0.1 0.55-5.35-2.85 1.9m8.2 4.15-5.35-0.6m5.35 0.6-4.8 6.25q-3.75 0.3-8.15 1.45l-6.65 2.05m-18.95 8.3q-11.1 5.6-24.4 13.95l-14.55 0.55-22.95-13.45q-4.9-2.55-9.8-4.25-7.4-2.65-14.8-3.55-1.35-2.2-2.2-4.35l-0.35-0.85q-1.5-4.15-1.35-8.25l1.4-0.2m89 20.4q7.05-3.65 13.2-6.15l5.75-2.15m-106.15-16.75q2.8-5.7 11.3-9.05l23.85 0.4m21.2 30.75 0.05-0.1m0.05 0 0.9 0.5" fill="none" stroke="#342001" stroke-linecap="round" stroke-linejoin="round" stroke-width=".5"/>
<path d="m144.55 43.45-3.8 5.15m-74.6-8.35-1.3 0.2m26.5 2.95 0.35 3.65m5.5-6.95h5.9m-34.9-0.2 7.7-1.3m-9.75 1.65 2.05-0.35" fill="none" stroke="#4e4f42" stroke-linecap="round" stroke-linejoin="round" stroke-width=".05"/>
</g>
</defs>
</svg>
