<?xml version="1.0" encoding="UTF-8"?>
<svg version="1.1" viewBox="0 0 33.682 23.541" xmlns="http://www.w3.org/2000/svg" xmlns:cc="http://creativecommons.org/ns#" xmlns:dc="http://purl.org/dc/elements/1.1/" xmlns:rdf="http://www.w3.org/1999/02/22-rdf-syntax-ns#" xmlns:xlink="http://www.w3.org/1999/xlink">
<metadata>
<rdf:RDF>
<cc:Work rdf:about="">
<dc:format>image/svg+xml</dc:format>
<dc:type rdf:resource="http://purl.org/dc/dcmitype/StillImage"/>
</cc:Work>
</rdf:RDF>
</metadata>
<g transform="translate(-462.21 -254.57)">
<use transform="matrix(.9921 .1219 -.1219 .9921 464.93 252.43)" width="32.5" height="24.85" xlink:href="#a"/>
</g>
<defs>
<g id="a" transform="translate(16.5,17.6)">
<use transform="translate(-16.5,-17.6)" width="32.5" height="24.85" xlink:href="#b"/>
</g>
<g id="b" transform="translate(16.5,17.6)">
<path d="m15.95-7.3 0.05 2.75-1.55-1.25-0.05-0.75h-0.05l-0.45-0.05-0.55-2.35 2.6 1.65m0 3.4q-0.2 3.2-1.2 5.85l-2.95 0.7 1.05-4.1-0.7-8.3 0.05 0.05 0.75 0.5h0.05-0.05l0.55 3.2 2.45 2.1" fill="#5c0301" fill-rule="evenodd"/>
<path d="m12.15-9.75h0.05l-2.3-3.6 2.6 1.75 1.45 1.8-0.95 0.6h-0.05l-0.75-0.5-0.05-0.05m2 0.2 1.8 2.25-2.6-1.65v-0.05l0.8-0.55" fill="#780502" fill-rule="evenodd"/>
<path d="m13.95-9.8 0.2 0.25-0.8 0.55v0.05l0.55 2.35 0.45 0.05h0.05l0.05 0.75 1.55 1.25-0.05 0.65-2.45-2.1-0.55-3.2h0.05l0.95-0.6" fill="#ff910b" fill-rule="evenodd"/>
<path d="m11.15-10.4 1 0.65 0.7 8.3-1.05 4.1-0.7 0.15q1.3-3.85 0.05-13.2" fill="#eb9327" fill-rule="evenodd"/>
<path d="m11.15-10.4q-2.15-3.45-4.85-5.4l3.6 2.45 2.3 3.6h-0.05l-1-0.65" fill="#fff024" fill-rule="evenodd"/>
<path d="m15.95-7.3 0.05 2.75-0.05 0.65q-0.2 3.2-1.2 5.85l-2.95 0.7" fill="none" stroke="#9e2510" stroke-linecap="round" stroke-linejoin="round" stroke-width=".05"/>
<path d="m9.9-13.35 2.6 1.75 1.45 1.8 2 2.5z" fill="none" stroke="#9e2510" stroke-linecap="round" stroke-linejoin="round" stroke-width=".05"/>
<path d="m-14.65-1.5 1.65-0.5 3-4.6 0.3 0.1-3.1 4.8-2.05 0.7 0.2-0.5" fill="#ff910b" fill-rule="evenodd"/>
<path d="m-14.65-1.5 1.25-3.5 2.2-1.95 1.2 0.35-3 4.6-1.65 0.5m-1.1 6.55v-3.5l0.9-2.55 2.05-0.7 3.1-4.8 1.85 0.5 1.05 0.75-3.8 3.95-0.1 0.15-0.8 2.55-2.75 2.4-0.2 2.05-1.3-0.8m9.5-9.85 1.95 1.4q-2.1 3-2.65 4.75l-0.8 3-1.1 1.05v-2.45l-1.35-0.7-0.35-0.95 0.85-2.05 0.25-0.95 3.2-3.1m-3.5 12.05q-2.45-0.35-4.4-1.25l0.25-1.75 2.65-2.4 1.9 1.55v2.7l-0.05 0.2-0.35 0.95" fill="#780502" fill-rule="evenodd"/>
<path d="m-4.3-3.4 3.25 1.8 1.7 4.85-2.35 1.55q-0.7-1.05-2.35-0.9-1.7 0.1-2.85 1.95l-0.15 1.25-2.7 0.15 0.35-0.95 0.05-0.2 0.4-0.6 0.1-0.1 1.1-1.05 0.8-3q0.55-1.75 2.65-4.75" fill="#5c0301" fill-rule="evenodd"/>
<path d="m-11.2-6.95-2.2 1.95-1.25 3.5-0.2 0.5-0.9 2.55v3.5l-0.75-0.55q0.1-2.85 0.4-3.85l2.55-6.65 1.85-1.1 0.5 0.15m4.4 1.7 0.55 0.45-3.2 3.1-0.25 0.95-0.85 2.05 0.35 0.95 1.35 0.7v2.45l-0.1 0.1-0.4 0.6v-2.7l-1.9-1.55-2.65 2.4-0.25 1.75-0.3-0.15 0.2-2.05 2.75-2.4 0.8-2.55 0.1-0.15 3.8-3.95" fill="#fff024" fill-rule="evenodd"/>
<path d="m-10-6.6-1.2-0.35-0.5-0.15-1.85 1.1-2.55 6.65q-0.3 1-0.4 3.85m6.5-11.1 0.3 0.1 1.85 0.5 1.05 0.75 0.55 0.45 1.95 1.4" fill="none" stroke="#ff910b" stroke-linecap="round" stroke-linejoin="round" stroke-width=".05"/>
<path d="m-4.3-3.4 3.25 1.8 1.7 4.85" fill="none" stroke="#ff910b" stroke-linecap="round" stroke-linejoin="round" stroke-width=".05"/>
<path d="m0.65 3.25-2.35 1.55q-0.7-1.05-2.35-0.9-1.7 0.1-2.85 1.95l-0.15 1.25-2.7 0.15" fill="none" stroke="#552b00" stroke-linecap="round" stroke-linejoin="round" stroke-width=".05"/>
<path d="m-16.5 4.5 0.75 0.55m6 2.2q-2.45-0.35-4.4-1.25l-0.3-0.15-1.3-0.8" fill="none" stroke="#552b00" stroke-linecap="round" stroke-linejoin="round" stroke-width=".05"/>
<path d="m-5.25-2.7 0.05-0.05-0.05 0.05" fill="#cf4a33" fill-rule="evenodd"/>
<path d="m-2 2.35h0.05v0.05l-0.05-0.05" fill="#8a1f0d" fill-rule="evenodd"/>
<path d="m-6.95-15.4 0.15-0.05-0.05 0.1-0.1-0.05" fill="#f2573c" fill-rule="evenodd"/>
<path d="m1.5-2.65 0.2-0.15-0.05 0.15h-0.15m-4.05 4.1 0.6 0.9h-0.05l-0.55-0.9m9.5-7.05v-0.05 0.05" fill="#8c3223" fill-rule="evenodd"/>
<path d="m1.7-2.8 1-0.9 2.5-0.65 1.75-1.25 0.35 1.5-1.9 1-3.1 0.35-1 3.5-3.25 1.6-0.6-0.9 0.8-0.65h1.9l1.5-3.45 0.05-0.15m-10.4-10.3 1.15 2-1.2 2.05 1.85-0.6-3.4 1.6h-1.85l2.8-0.85 0.9-2.15-0.55-1.75 0.3-0.3" fill="#ff910b" fill-rule="evenodd"/>
<path d="m-6-15.6 4.1 0.65-0.65 1.45-3 2.1-1.35 1.75 2.4-1.3 2.6-2.5 1.15 0.35 2.1 1.1 1.2 2h-0.05l-0.7 0.5-0.4 1.35h-1.3l-0.5 0.45-1.7 1.6-0.85 0.15-0.6-2.6v-1l-3.35-0.1-1.85 0.6 1.2-2.05-1.15-2 2.6-2.5h0.1m-7.45 9.85 1.55-2.7q1.2-2.4 2.9-4.35l0.55 1.75-0.9 2.15-2.8 0.85h1.85l3.4-1.6 2.75 1.1 0.35 2.8-1.7 0.4-3.15 1-2-0.95-2.8-0.45m11 0-1.1 1.1 0.05 0.6-1.7 1.3-0.05 0.05-2.7-1.3 2.45-1.35 3.05-0.4" fill="#780502" fill-rule="evenodd"/>
<path d="m1.8-9.5 0.7-0.5h0.05l1.05 4.45 1.6 1.2-2.5 0.65-1 0.9-2.05-0.7-1.75-2.6 1.7-1.6 0.5-0.45h1.3l0.4-1.35m-4.25 3.75 1.35 3.05 2.6 0.05h0.15l-1.5 3.45h-1.9l-0.8 0.65-2.7-4.15 0.05-0.05 1.7-1.3-0.05-0.6 1.1-1.1m0.5 8.1 3.25-1.6 1-3.5 3.1-0.35-0.45 3.85 0.7 3.4-5.2 1.9-2.4-3.7" fill="#5c0301" fill-rule="evenodd"/>
<path d="m-7.95-4-0.25 1.25-0.55-0.25 0.1-1.35 0.7 0.35m5.4 5.45 0.55 0.9 0.05 0.05-0.65 0.65-0.4-0.65 0.45-0.95" fill="#ad5701" fill-rule="evenodd"/>
<path d="m2.55-10 1.2-0.8 0.9-0.55q1.45 2.8 2.3 5.75l-1.75 1.25-1.6-1.2-1.05-4.45m-4.65 3.9 1.75 2.6 2.05 0.7-0.2 0.15-2.6-0.05-1.35-3.05 0.35-0.35m7.5 3 1.9-1-0.35-1.5q0.75 2.75 0.95 5.55v0.15l0.05 3.15-2.3 0.9-0.7-3.4 0.45-3.85" fill="#c06407" fill-rule="evenodd"/>
<path d="m4.65-11.35-0.9 0.55-1.2 0.8-1.2-2-2.1-1.1-1.15-0.35-2.6 2.5-2.4 1.3 1.35-1.75 3-2.1 0.65-1.45-4.1-0.65q4.15-0.45 10.65 4.25" fill="#d06b09" fill-rule="evenodd"/>
<path d="m-5.5-1.55 0.25-1.15 2.7 4.15-0.45 0.95-2.5-3.95m3.55 3.9 2.4 3.7-1.1 0.1-1.95-3.1 0.65-0.65v-0.05" fill="#eb9327" fill-rule="evenodd"/>
<path d="m-6.8-15.45 0.7-0.15-2.6 2.5-0.3 0.3q-1.7 1.95-2.9 4.35l-1.55 2.7 2.8 0.45 2 0.95 3.15-1 1.7-0.4-0.35-2.8-2.75-1.1 3.35 0.1v1l0.6 2.6 0.85-0.15-0.35 0.35-3.05 0.4-2.45 1.35 2.7 1.3-0.25 1.15-2.7-1.2 0.25-1.25-0.7-0.35-0.1 1.35-2.15-0.95-3-0.55-0.4-1.4q0.7-0.85 2.45-4.4 1.35-2.7 4.9-5.1l0.1 0.05 0.05-0.1m-6.65 9.7-0.85-0.15 0.85 0.15" fill="#fff024" fill-rule="evenodd"/>
<path d="m4.65-11.35q-6.5-4.7-10.65-4.25m7.8 6.1-0.4 1.35m-8.35-7.25 0.15-0.05 0.7-0.15m-0.85 0.2q-3.55 2.4-4.9 5.1-1.75 3.55-2.45 4.4l0.85 0.15m8.2 3.05 0.05-0.05m1.7-1.3-0.05-0.6m-4.4 0.65-0.7-0.35m6.7 6.7v0.05" fill="none" stroke="#ff910b" stroke-linecap="round" stroke-linejoin="round" stroke-width=".05"/>
<path d="m0.45 6.05 5.2-1.9 2.3-0.9-0.05-3.15v-0.15q-0.2-2.8-0.95-5.55-0.85-2.95-2.3-5.75m-18.55 6.85-0.4-1.4" fill="none" stroke="#ff910b" stroke-linecap="round" stroke-linejoin="round" stroke-width=".05"/>
<path d="m3.7-17.15 0.5 0.2 0.6 0.25h-3.35l-1.85 1.75-0.5-0.35 1.9-1.6 2.7-0.25m1.65 3.15 0.4 0.3 2.35 1.6-3.2-1.35h-2.35l-0.9-0.35 3.7-0.2" fill="#ff910b" fill-rule="evenodd"/>
<path d="m7.3 3.55-1.15-0.1q-0.1-6.55-2.55-13.7l0.9-1.15 0.9 2.55 0.55 1.75q1.1 4 1.3 7.7l0.05 2.95" fill="#eb9327" fill-rule="evenodd"/>
<path d="m7.15-15.3 3.25 2.75-2.25 0.45h-0.05l-2.35-1.6 1.4-1.6m-13.6-0.65 6.5-1.5 3.65 0.3-2.7 0.25-1.9 1.6-0.9-0.65h-4.65m11.25-0.75 0.5 0.25 1.4 0.85-1.35 1.6-3.7 0.2-1.3-0.7-0.75-0.45 1.85-1.75h3.35m-0.3 5.3-0.5-0.35q-0.85-0.65-1.45-1.7h2.35l3.2 1.35-3.6 0.7" fill="#780502" fill-rule="evenodd"/>
<path d="m10.4-12.55q1.3 3.4 1.85 7.25l-3 3.65-0.7 5.1h-0.05l-1.2 0.1-0.05-2.95q-0.2-3.7-1.3-7.7l0.9-0.3 0.35-0.8 1.85-1.2-3.65 0.55-0.9-2.55 3.6-0.7h0.05l2.25-0.45m1.95 8.05 0.1 0.95-2.15 6.85-1.3 0.1 0.5-3.55 0.65-0.85-0.05-0.8 2.25-2.7" fill="#5c0301" fill-rule="evenodd"/>
<path d="m6.7-15.6 0.45 0.3-1.4 1.6-0.4-0.3 1.35-1.6" fill="#c06407" fill-rule="evenodd"/>
<path d="m12.25-5.3 0.1 0.8-2.25 2.7 0.05 0.8-0.65 0.85-0.5 3.55-0.45 0.05 0.7-5.1 3-3.65m-8.65-4.95q-3.55-4.4-10.35-4.8l-0.1-0.85 0.4-0.05h4.65l0.9 0.65 0.5 0.35 0.75 0.45 1.3 0.7 0.9 0.35q0.6 1.05 1.45 1.7l0.5 0.35-0.9 1.15m1.8 1.4 3.65-0.55-1.85 1.2-0.35 0.8-0.9 0.3-0.55-1.75" fill="#fff024" fill-rule="evenodd"/>
<path d="m6.7-15.6 0.45 0.3 3.25 2.75m-17.25-3.35 0.4-0.05 6.5-1.5 3.65 0.3m0.5 0.2 0.6 0.25m0.5 0.25 1.4 0.85" fill="none" stroke="#ff910b" stroke-linecap="round" stroke-linejoin="round" stroke-width=".05"/>
<path d="m10.4-12.55q1.3 3.4 1.85 7.25l0.1 0.8 0.1 0.95-2.15 6.85-1.3 0.1-0.45 0.05m-0.05 0-1.2 0.1" fill="none" stroke="#ff910b" stroke-linecap="round" stroke-linejoin="round" stroke-width=".05"/>
</g>
</defs>
</svg>
