<?xml version="1.0" encoding="UTF-8"?>
<svg version="1.1" viewBox="0 0 33.682 23.662" xmlns="http://www.w3.org/2000/svg" xmlns:cc="http://creativecommons.org/ns#" xmlns:dc="http://purl.org/dc/elements/1.1/" xmlns:rdf="http://www.w3.org/1999/02/22-rdf-syntax-ns#" xmlns:xlink="http://www.w3.org/1999/xlink">
<metadata>
<rdf:RDF>
<cc:Work rdf:about="">
<dc:format>image/svg+xml</dc:format>
<dc:type rdf:resource="http://purl.org/dc/dcmitype/StillImage"/>
</cc:Work>
</rdf:RDF>
</metadata>
<g transform="translate(-471.11 -252.76)">
<use transform="matrix(.9921 .1219 -.1219 .9921 473.83 250.57)" width="32.5" height="24.9" xlink:href="#a"/>
</g>
<defs>
<g id="a" transform="translate(16.55,17.65)">
<use transform="translate(-16.55,-17.65)" width="32.5" height="24.9" xlink:href="#b"/>
</g>
<g id="b" transform="translate(16.55,17.65)">
<path d="m12.15-8.2 1.7 1.55 0.9 1.9-1.35 0.5-1.7 0.1-0.4-4.85 0.85 0.8" fill="#518513" fill-rule="evenodd"/>
<path d="m12.5-9.5 0.15 0.1-0.5 1.2-0.85-0.8-0.05-0.3-0.15-1.1 1.4 0.9m-0.75 6.3 1.7 0.8-1.8 1.95 0.1-2.75" fill="#45731f" fill-rule="evenodd"/>
<path d="m9.55-12.6 2.45 1.75 0.5 1.35-1.4-0.9-1.55-2.2" fill="#659d17" fill-rule="evenodd"/>
<path d="m9.55-12.6-0.15-0.2q-1.45-1.8-3.15-3l6.2 4.2 3.45 4.3-3.2-2.05-0.05-0.05-0.15-0.1-0.5-1.35-2.45-1.75" fill="#7e9c39" fill-rule="evenodd"/>
<path d="m12.65-9.4 0.05 0.05 3.2 2.05q0.25 5.25-1.2 9.25l-3.65 0.85 0.55-2.6 0.05-0.65 1.8-1.95-1.7-0.8v-0.15l-0.05-0.8 1.7-0.1 1.35-0.5-0.9-1.9-1.7-1.55 0.5-1.2" fill="#6d8a32" fill-rule="evenodd"/>
<path d="m15.9-7.3-3.45-4.3-6.2-4.2" fill="none" stroke="#635d1a" stroke-linecap="round" stroke-linejoin="round" stroke-width=".05"/>
<path d="m11.05 2.8 3.65-0.85q1.45-4 1.2-9.25z" fill="none" stroke="#635d1a" stroke-linecap="round" stroke-linejoin="round" stroke-width=".05"/>
<path d="m-15.8 5.05-0.75-0.55q0.1-2.85 0.4-3.85l2.55-6.65 1.85-1.1 0.5 0.15-2 1.75-0.2 0.2-1.25 3.45-1.1 3.1v3.5m3.45-7.4 0.35-0.1q0.15 0.85-0.3 1.75-0.25 1.2-1 1.9l-1.15 0.8q-0.55-1 0.55-3.5l0.75-0.7 0.8-0.15m-2.05 5.75 0.2 1-0.45 1.15-0.45-1.3q-0.1-1.5 0.7-0.85" fill="#ede0be" fill-rule="evenodd"/>
<path d="m-0.7 4.1-1.8-1.55-0.6-1.2 0.65-2.1-0.75-2 2.1 1.15 1.7 4.85-1.2 0.8-0.1 0.05m-6.25 1.75h-0.05l-0.1-0.85 1.85-1.5 0.95 0.4q-1.55 0.25-2.65 1.95m-3.25-9.4-1.05 0.25-1.1 0.95-0.8 0.15-0.75 0.7-0.8-0.05 1.25-3.45 0.2-0.2 0.2 1.4 2.85 0.25" fill="#659d17" fill-rule="evenodd"/>
<path d="m-11.25-6.95h0.05l3.3 0.95 1.85 1.35-4.15 1.1-2.85-0.25-0.2-1.4 2-1.75m1.1 8.5 0.6-1.85 0.95-0.55-0.45 0.75 0.15 1.15 1.3-1.15-0.8 2.55-1.65 1.2-0.1-2.1" fill="#aba719" fill-rule="evenodd"/>
<path d="m-3.2-2.75 0.75 2-0.65 2.1 0.6 1.2 1.8 1.55-1.05 0.7q-0.7-1.05-2.35-0.9h-0.2l-0.95-0.4-1.85 1.5 0.1 0.85h0.05l-0.15 1.25-2.7 0.15 0.1-0.45q0.4-1.35 1.9-2.45l0.8-3q0.55-1.75 2.65-4.75l1.15 0.65" fill="#8a8525" fill-rule="evenodd"/>
<path d="m-4.35-3.4q-2.1 3-2.65 4.75l-0.8 3q-1.5 1.1-1.9 2.45l-0.1 0.45q-3.55-0.5-6-2.2v-3.5l1.1-3.1 0.8 0.05q-1.1 2.5-0.55 3.5l1.15-0.8q0.75-0.7 1-1.9 0.45-0.9 0.3-1.75l-0.35 0.1 1.1-0.95 1.05-0.25 4.15-1.1 0.3 0.2 1.4 1.05m-5.8 4.95 0.1 2.1 1.65-1.2 0.8-2.55-1.3 1.15-0.15-1.15 0.45-0.75-0.95 0.55-0.6 1.85m-4.25 1.85q-0.8-0.65-0.7 0.85l0.45 1.3 0.45-1.15-0.2-1" fill="#7e9c39" fill-rule="evenodd"/>
<path d="m-0.6 4.05 1.2-0.8-1.7-4.85-2.1-1.15-1.15-0.65m-5.45 10.65 2.7-0.15 0.15-1.25m2.65-1.95h0.2q1.65-0.15 2.35 0.9l1.05-0.7m-3.6-0.2q-1.55 0.25-2.65 1.95" fill="none" stroke="#635d1a" stroke-linecap="round" stroke-linejoin="round" stroke-width=".05"/>
<path d="m-5.75-4.45 1.4 1.05m-11.45 8.45-0.75-0.55q0.1-2.85 0.4-3.85l2.55-6.65 1.85-1.1 0.5 0.15h0.05l3.3 0.95 1.85 1.35m-9.75 9.7q2.45 1.7 6 2.2" fill="none" stroke="#635d1a" stroke-linecap="round" stroke-linejoin="round" stroke-width=".05"/>
<path d="m-5.25-2.75-0.05 0.05 0.05-0.05" fill="#cf4a33" fill-rule="evenodd"/>
<path d="m-7-15.4 0.15-0.05-0.05 0.1-0.1-0.05" fill="#f2573c" fill-rule="evenodd"/>
<path d="m6.9-5.6v-0.05 0.05m-8.9 7.95h-0.05l-0.55-0.9 0.6 0.9" fill="#8c3223" fill-rule="evenodd"/>
<path d="m4.2-6.55 0.05 0.05h-0.05v-0.05" fill="#897c5a" fill-rule="evenodd"/>
<path d="m3.05-10.1-0.05 0.1-0.05-0.1h0.1m-9.6-4.45-1.8 1.8q-2 2.1-3.35 4.8l-1.8 2.2-0.85-0.15q0.7-0.85 2.45-4.4 1.35-2.7 4.9-5.1l0.1 0.05 0.05-0.1h0.05l0.3 0.85h-0.05v0.05" fill="#ede0be" fill-rule="evenodd"/>
<path d="m5.25-10.05 0.05 0.1 1.6 4.35-1 0.75-1.7-1.7-1.2-3.45 0.05-0.1 2.2 0.05" fill="#d4c8a9" fill-rule="evenodd"/>
<path d="m7.45-3 0.05-0.05v0.05h-0.05m0.05-0.05v0.05-0.05" fill="#7a6e50" fill-rule="evenodd"/>
<path d="m-6.5-14.45-0.05-0.1v-0.05h0.05v0.15" fill="#63ba3b" fill-rule="evenodd"/>
<path d="m-8.6-4.25-2.1-1.05-1.6-0.25 1-0.3 0.9-0.25 0.95-1.05-0.1 1.4 0.95 1.5m1.05 0.15 0.9-0.3 0.25 1.2-1.55-0.75 0.4-0.15" fill="#659d17" fill-rule="evenodd"/>
<path d="m3-10 1.2 3.45v0.05l-0.7 0.2-0.35-1.1-0.25-0.95-1.2-0.9 1.25-0.85 0.05 0.1m-6.6 5.35 0.15-0.15 3-2.9 0.5-0.45h0.45l-0.75 1.35-0.45 0.05-1.25 1.4v1.9l-0.45 0.8-0.05-0.05-1.9-0.75 0.8-0.6-0.05-0.6m11.35 5.35-0.1 2.75-1.55 0.6 0.65-0.85 0.3-0.45 0.7-2.05m-2.2 3.55-5.55 2.1-0.95-2.05 1 0.25h0.2l0.5-0.55 1.3 0.75h1.8l0.35-1.45 0.65-1.1 0.25 0.75 0.45 1.3m-6.75-5.25-0.05 0.95-0.6-0.85-0.15-1.15 0.8 1.05" fill="#518513" fill-rule="evenodd"/>
<path d="m-6.5-14.45 0.9 0.95-0.5 1.65 1.5 0.2 0.1 1.9 0.9 0.9 3.45-1.2 1.15-1.4 1.35 1.5-0.65 0.7-0.25 0.75-1.55-0.55-2.35 1.1-3.45 0.1-0.75-1.75-0.8-0.65v-1.5l-0.9-1 1.8-1.8 0.05 0.1m-4.8 8.6 0.4-1.4 1.9-1.3v2.4l1.45 2.05-0.4 0.15-0.65-0.3-0.95-1.5 0.1-1.4-0.95 1.05-0.9 0.25" fill="#aba719" fill-rule="evenodd"/>
<path d="m4.25-6.5 1.65 1.65-3.1 2.2-0.75 0.8 1.25-2.6-0.15-2.95 0.35 1.1 0.7-0.2h0.05m-1.8 6.7 0.25-1.95 3.95-2-0.4 1.5-0.25 0.15-3.55 2.3" fill="#99942a" fill-rule="evenodd"/>
<path d="m2.4 0.2h0.05l3.55-2.3 1.75 2.2v0.6l-0.7 2.05-0.3 0.45-1.65-0.25-0.25-0.75-0.35-1.25-2.1-0.75" fill="#8a8525" fill-rule="evenodd"/>
<path d="m5.25-10.05-2.2-0.05h-0.1l-1.25 0.85 0.65-0.7-1.35-1.5-1.15 1.4-3.45 1.2-0.9-0.9-0.1-1.9-1.5-0.2 0.5-1.65-0.9-0.95v-0.15l-0.3-0.85q4.3-1 11.4 4.1l0.65 1.3m-13.6-2.7 0.9 1v1.5l0.8 0.65 0.75 1.75 3.45-0.1 2.35-1.1 1.55 0.55-0.1 0.35h-1.3l-0.5 0.45-3 2.9-0.15 0.15 0.05 0.6-0.8 0.6-0.9 0.7-0.05 0.05-1.1-0.5-0.25-1.2-0.9 0.3-1.45-2.05v-2.4l-1.9 1.3-0.4 1.4-1 0.3-1.2-0.2 1.8-2.2q1.35-2.7 3.35-4.8" fill="#7e9c39" fill-rule="evenodd"/>
<path d="m1.45-8.5 0.25-0.75 1.2 0.9 0.25 0.95 0.15 2.95-1.25 2.6-0.8 0.85 1.45-0.75-0.25 1.95h-0.05l-4.1 2.65-0.3-0.5 3.25-1.6-3.05 0.05-0.8 0.65-2.7-4.15 0.05-0.05 0.9-0.7 1.9 0.75 0.05 0.05 0.45-0.8v-1.9l1.25-1.4 0.45-0.05 0.75-1.35h0.85l0.1-0.35m5.2 4.75 0.6-0.35-0.35-1.5 0.6 2.55-0.05 0.05-1.2 0.75 0.4-1.5m-7.85 2.75-0.8-1.05 0.15 1.15 0.6 0.85 0.05-0.95" fill="#6d8a32" fill-rule="evenodd"/>
<path d="m5.9-4.85 1-0.75 0.35 1.5-0.6 0.35-3.95 2-1.45 0.75 0.8-0.85 0.75-0.8 3.1-2.2m-8.5 6.3 0.8-0.65 3.05-0.05-3.25 1.6-0.6-0.9m0.9 1.4 4.1-2.65 2.1 0.75 0.35 1.25-0.65 1.1-0.35 1.45h-1.8l-1.3-0.75-0.5 0.55h-0.2l-1-0.25-0.1-0.15-0.65-1.3m7.95-5.1 1.2-0.75h0.05l0.25 3.1-1.75-2.2 0.25-0.15m-0.15 6.3-0.55 0.2-0.45-1.3 1.65 0.25-0.65 0.85" fill="#4e6925" fill-rule="evenodd"/>
<path d="m-5.3-2.7 2.7 4.15 0.55 0.9h0.05l0.3 0.5 0.65 1.3 0.1 0.15 0.95 2.05-1.1 0.1-1.35-3.1-3.1-4.9-5.4-2.4-3-0.55-0.4-1.4 0.85 0.15 1.2 0.2 1.6 0.25 2.1 1.05 0.65 0.3 1.55 0.75 1.1 0.5" fill="#636128" fill-rule="evenodd"/>
<path d="m6.9-5.6-1.6-4.35m-10.6 7.25 2.7 4.15m0.6 0.9 0.3 0.5 0.65 1.3m8.55-7.2-0.6-2.55m0.6 2.6 0.25 3.1v0.6l-0.1 2.75-1.55 0.6-0.55 0.2-5.55 2.1m-13.95-10.85-0.4-1.4m18.95-5.45 0.65 1.3m2.25 7.05v-0.05m-8.45 7.35 0.95 2.05m-2-4-0.6-0.9" fill="none" stroke="#635d1a" stroke-linecap="round" stroke-linejoin="round" stroke-width=".05"/>
<path d="m-14.35-5.9q0.7-0.85 2.45-4.4 1.35-2.7 4.9-5.1l0.15-0.05h0.05q4.3-1 11.4 4.1m-11.1-3.1v-0.15m-2.1 10.35-2.1-1.05-1.6-0.25-1.2-0.2-0.85-0.15m7.95 2.7 1.1 0.5 0.05-0.05m-3.35-1.5 0.65 0.3m1.55 0.75-1.55-0.75m4.4-0.1-0.05-0.6" fill="none" stroke="#635d1a" stroke-linecap="round" stroke-linejoin="round" stroke-width=".05"/>
<path d="m5.4-16.05 0.55 0.25-1.45 0.65-2.6-0.4 1.45-0.55 1-0.4 1.05 0.45" fill="#ede0be" fill-rule="evenodd"/>
<path d="m4.3-11.65-0.05-0.15 0.1 0.1-0.05 0.05" fill="#897c5a" fill-rule="evenodd"/>
<path d="m10.35-12.55q1.6 4.2 2.05 9l-4 0.45 2.45-2.2-0.1-1.55-1.35-1.95-1-0.2 0.6-0.4-0.45 0.1 0.4-0.6-0.75-1.2-2.5-0.8 0.25-0.05 4.4-0.6" fill="#518513" fill-rule="evenodd"/>
<path d="m7.65-14.1-0.1-0.85 2.8 2.4-4.4 0.6 1.9-1.15-0.2-1m-8.6-3.15 0.95-0.2 2.9 0.05-2.45 0.55-1.4-0.4" fill="#659d17" fill-rule="evenodd"/>
<path d="m12.4-3.55-2.2 7.1h-1.2l-0.75-2.1 0.95 0.35 1.2-2.4v-1.3l-2.35-0.85 0.35-0.35 4-0.45" fill="#45731f" fill-rule="evenodd"/>
<path d="m5.7-16.2-0.3 0.15-1.05-0.45-1 0.4-1.55-0.05-1.6 1.6-2.05-1.4h-4.65l4.8-1.1 0.75-0.2 1.4 0.4 2.45-0.55 0.4 0.1q1.1 0.35 2.4 1.1m-1.7 3.95 2.25-0.75 1.4-1.1 0.2 1-1.9 1.15-0.25 0.05-1.35 0.2-0.1-0.1-0.25-0.45" fill="#aba719" fill-rule="evenodd"/>
<path d="m7.25-15.15 0.3 0.2 0.1 0.85-1.4 1.1-2.25 0.75-0.05-0.05-0.1-0.15q-0.95-0.3-1.35-1-1.05-0.35-2.2-1.05l-0.05-0.05h-0.05l1.6-1.6 1.55 0.05-1.45 0.55 2.6 0.4 1.45-0.65-0.55-0.25 0.3-0.15 1.55 1.05" fill="#7e9c39" fill-rule="evenodd"/>
<path d="m9 3.55h-1.75l-0.05-2.95q-0.1-1.7 0.15-3.6l1.05-0.1-0.35 0.35 2.35 0.85v1.3l-1.2 2.4-0.95-0.35 0.75 2.1m-0.45-12.85 0.45-0.1-0.6 0.4-1.25 0.8-0.35 0.8-0.9 0.3-0.55-1.75 3.2-0.45" fill="#4e6925" fill-rule="evenodd"/>
<path d="m4.3-11.65 0.05-0.05 1.35-0.2 2.5 0.8 0.75 1.2-0.4 0.6-3.2 0.45-1.05-2.8m4.1 2.65 1 0.2 1.35 1.95 0.1 1.55-2.45 2.2-1.05 0.1-1.45-4.1 0.9-0.3 0.35-0.8 1.25-0.8" fill="#6d8a32" fill-rule="evenodd"/>
<path d="m7.25 3.55-0.6 0.1q-0.45-4.65-0.35-6.7l-3.05-7.25 1-1.5 0.05 0.15 1.05 2.8 0.55 1.75 1.45 4.1q-0.25 1.9-0.15 3.6l0.05 2.95" fill="#47461d" fill-rule="evenodd"/>
<path d="m0.2-14.55h0.05l0.05 0.05q1.15 0.7 2.2 1.05 0.4 0.7 1.35 1l0.1 0.15 0.05 0.05 0.25 0.45-1 1.5q-3.25-4.35-10.05-4.75l-0.1-0.85 0.4-0.05h4.65l2.05 1.4" fill="#636128" fill-rule="evenodd"/>
<path d="m7.25-15.15-1.55-1.05m1.85 1.25 2.8 2.4m-17.25-3.35 0.4-0.05 4.8-1.1m0.75-0.2 0.95-0.2 2.9 0.05m0.4 0.1q1.1 0.35 2.4 1.1" fill="none" stroke="#635d1a" stroke-linecap="round" stroke-linejoin="round" stroke-width=".05"/>
<path d="m10.35-12.55q1.6 4.2 2.05 9l-2.2 7.1h-2.95" fill="none" stroke="#635d1a" stroke-linecap="round" stroke-linejoin="round" stroke-width=".05"/>
<path d="m2.15-10.35q0.7-0.05 0.95 0.45 0.25 0.45-0.15 1.2-0.4 0.7-1.15 1.25-0.8 0.55-1.45 0.6h-0.35q-0.4-1.65 2.15-3.5m-4.05 4.2h0.2l0.35 0.25-0.1 0.6-0.45 0.55q-0.35 0.25-0.6 0.25h-0.1q0.05-0.75 0.7-1.65" fill="#ede0be" fill-rule="evenodd"/>
<path d="m0-6.85-0.55-0.45q-0.25-0.5 0.1-1.2l1.15-1.25q0.75-0.55 1.45-0.6-2.55 1.85-2.15 3.5m-2.6 2.35-0.3-0.25 0.05-0.6 0.5-0.55 0.45-0.25q-0.65 0.9-0.7 1.65" fill="#f4ecd9" fill-rule="evenodd"/>
</g>
</defs>
</svg>
