<?xml version="1.0" encoding="UTF-8"?>
<svg version="1.1" viewBox="0 0 207.12 243.27" xmlns="http://www.w3.org/2000/svg" xmlns:cc="http://creativecommons.org/ns#" xmlns:dc="http://purl.org/dc/elements/1.1/" xmlns:rdf="http://www.w3.org/1999/02/22-rdf-syntax-ns#" xmlns:xlink="http://www.w3.org/1999/xlink">
<metadata>
<rdf:RDF>
<cc:Work rdf:about="">
<dc:format>image/svg+xml</dc:format>
<dc:type rdf:resource="http://purl.org/dc/dcmitype/StillImage"/>
</cc:Work>
</rdf:RDF>
</metadata>
<g transform="translate(-158.35 -69.076)">
<use transform="matrix(15.016 0 0 15.016 157.98 69.468)" width="13.8" height="16.15" xlink:href="#a"/>
</g>
<defs>
<g id="a" transform="translate(7.9,8.5)">
<use transform="translate(-7.9,-8.5)" width="13.8" height="16.15" xlink:href="#b"/>
</g>
<g id="b" transform="translate(7.9,8.5)">
<path d="m1-7.4 0.75 0.15 1.4 0.8q2.2 3.9 0.1 7.9l-1.8 2.3-0.5 0.4q-2 1.55-5.05 1.95l-1.35-1.3q-1.3-1.75-1.35-4.05l0.05-1.05 0.25-1.4q0.35-1.35 1.1-2.45l0.95-1.15 0.05-0.1q2-2.1 4.5-2.1l0.9 0.1" fill="#99702c" fill-rule="evenodd"/>
<path d="m-4.45-5.3-0.05-0.05 0.1-0.05-0.05 0.1" fill="#f28500" fill-rule="evenodd"/>
<path d="m4.4-6.15q1.75 2.35 1.45 5.7-0.35 3.35-2.6 5.7l-1.8 1.45-0.5 0.3q-1.3 0.6-2.75 0.65l-1.85-0.3 0.75-0.65 1.55 0.2q1.2 0 2.3-0.5l0.5-0.25 1.7-1.35q2-2.15 2.3-5.1 0.3-3-1.25-5.1l-0.15-0.15 0.35-0.6" fill="#d67500" fill-rule="evenodd"/>
<path d="m3.15-6.45 1.05 1.05q1.55 2.1 1.25 5.1-0.3 2.95-2.3 5.1l-1.7 1.35-0.5 0.25q-1.1 0.5-2.3 0.5l-1.55-0.2-1.2-0.6q3.05-0.4 5.05-1.95l0.5-0.4 1.8-2.3q2.1-4-0.1-7.9" fill="#805d25" fill-rule="evenodd"/>
<path d="m0.8-8.45 0.2 1.05-0.9-0.1q-2.5 0-4.5 2.1l-0.1 0.05-0.65-0.9q2.2-2.3 5-2.25l0.95 0.05m0.95 1.2 0.3-0.85 1.2 0.75 1.15 1.2-0.35 0.6-0.9-0.9-1.4-0.8m-5.4 14.6-1.2-0.6-1.55-1.5q-1.15-1.5-1.4-3.4l-0.05-0.15 1.05-0.95q0.05 2.3 1.35 4.05l1.35 1.3 1.2 0.6-0.75 0.65m-3.95-9.2q0.35-1.45 1.1-2.7l1.1 0.4q-0.75 1.1-1.1 2.45l-1.1-0.15" fill="#ff8c00" fill-rule="evenodd"/>
<path d="m0.8-8.45 1.25 0.35-0.3 0.85-0.75-0.15-0.2-1.05m-8.65 10.15v-2.15l0.25-1.4 1.1 0.15-0.25 1.4-0.05 1.05-1.05 0.95m1.35-6.25 1.25-1.6 0.1-0.1 0.65 0.9 0.05 0.05-0.95 1.15-1.1-0.4" fill="#ffdab5" fill-rule="evenodd"/>
<path d="m2.05-8.1-1.25-0.35m1.25 0.35 1.2 0.75 1.15 1.2q1.75 2.35 1.45 5.7-0.35 3.35-2.6 5.7l-1.8 1.45-0.5 0.3q-1.3 0.6-2.75 0.65l-1.85-0.3-1.2-0.6-1.55-1.5q-1.15-1.5-1.4-3.4l-0.05-0.15v-2.15l0.25-1.4q0.35-1.45 1.1-2.7l1.25-1.6 0.1-0.1q2.2-2.3 5-2.25l0.95 0.05" fill="none" stroke="#bf6400" stroke-linecap="round" stroke-linejoin="round" stroke-width=".05"/>
<path d="m-4.4-2.15q-0.05 0.85-0.4 1.85l-0.6 1.75-0.5 0.7q-0.25 0-0.2-0.4v-1.65q0.05-1.2 0.55-2.15 0.5-1.05 0.85-0.95 0.35 0.05 0.3 0.85" fill="#e4dcc9" fill-opacity=".50196" fill-rule="evenodd"/>
<path d="m-0.6-6.3q-0.15 0.45-0.75 1l-1.15 0.9q-0.45 0.35-0.85 0.35-0.35-0.05-0.3-0.25l0.3-0.95q0.1-0.7 1.05-1.15 0.85-0.5 1.4-0.4 0.45 0 0.3 0.5" fill="#e4dcc9" fill-opacity=".50196" fill-rule="evenodd"/>
<path d="m3.35-6.4 0.25 0.95v0.15l0.25 4.75 1 2.85-2.6 0.5-0.25-1.75q-1.9 3.1-4.3 4.85l-0.15 0.1-0.1 0.1-0.75 0.5 1.65-5.4 1.55-0.75-5.4-3.5-0.2-0.2 5.8 0.45 1.8 0.2 1.45-3.8" fill="#f2ba5d" fill-rule="evenodd"/>
<path d="m0.1-2.8 3.25-3.6-1.45 3.8-1.8-0.2m2.15 5.6-4.55 3.1q2.4-1.75 4.3-4.85l0.25 1.75m-3.9-1.6-3.85-4.25 5.4 3.5-1.55 0.75" fill="#cc994d" fill-rule="evenodd"/>
<path d="m0.1-2.8 3.25-3.6m0.25 1.1 0.25 4.75 1 2.85-2.6 0.5-4.55 3.1-0.15 0.1m-0.1 0.1-0.75 0.5 1.65-5.4-3.85-4.25-0.2-0.2 5.8 0.45z" fill="none" stroke="#a87e3f" stroke-linecap="round" stroke-linejoin="round" stroke-width=".05"/>
<path d="m1.5-0.45q0.4-0.4 0.9-0.35l0.15 0.05 0.15 0.1 0.25 0.15 0.15 0.2q0.25 0.45 0.15 1l-0.5 1-0.95 0.3-0.3-0.15-0.2-0.05-0.2-0.3-0.2-0.65 0.05-0.35v-0.25l0.25-0.45 0.25-0.25h0.05" fill="#b38645" fill-rule="evenodd"/>
<path d="m1.5-0.45q0.4-0.4 0.9-0.35l0.15 0.05 0.15 0.1 0.25 0.15 0.15 0.2q0.25 0.45 0.15 1l-0.5 1-0.95 0.3-0.3-0.15-0.2-0.05-0.2-0.3-0.2-0.65 0.05-0.35v-0.25l0.25-0.45 0.25-0.25z" fill="none" stroke="#694a28" stroke-linecap="round" stroke-linejoin="round" stroke-opacity=".70196" stroke-width=".05"/>
</g>
</defs>
</svg>
