<?xml version="1.0" encoding="UTF-8"?>
<svg version="1.1" viewBox="0 0 235.95 95.05" xmlns="http://www.w3.org/2000/svg" xmlns:cc="http://creativecommons.org/ns#" xmlns:dc="http://purl.org/dc/elements/1.1/" xmlns:rdf="http://www.w3.org/1999/02/22-rdf-syntax-ns#" xmlns:xlink="http://www.w3.org/1999/xlink">
<metadata>
<rdf:RDF>
<cc:Work rdf:about="">
<dc:format>image/svg+xml</dc:format>
<dc:type rdf:resource="http://purl.org/dc/dcmitype/StillImage"/>
</cc:Work>
</rdf:RDF>
</metadata>
<g transform="translate(-161.95,-108)">
<use transform="translate(161.95,108.95)" width="235.95" height="94.099998" xlink:href="#g"/>
<use transform="translate(161.95,108)" width="234.85001" height="91.099998" xlink:href="#c"/>
<use transform="translate(166.45,112.8)" width="230.85001" height="85.75" xlink:href="#b"/>
<use transform="translate(164.75,112.5)" width="228.85001" height="78" xlink:href="#a"/>
</g>
<defs>
<g id="g" transform="translate(-161.95,-108.95)">
<path d="m383.35 146 4.8-0.25 4.7 0.3q5 1.2 5 7.95 0 8.55-2 12-3.5 6-14.5 6l-14.3-1-17.2-0.95-1.2-0.05q-14.5 0.15-24.3 3.3-7.15 2.3-13.8 7.2l-10.15 7.2q-6.1 3.3-14.55 3.3-15 0-15-7 0-2.3 2.45-3.4 1.05-0.5 5.35-1.45 7.95-1.7 8.2-7.15-1.7 0.4-4.2-1.1-3.1-1.9-8.3-1.9-15.75 0-24.75 5.3-6.05 3.6-11.25 11.7-5.95 9.3-8.75 11.7-6.2 5.3-17.25 5.3-7.15 0-14.45-2.95-9.9-4-9.9-11.05 0-7.4 11.95-13.2l8.15-4.2q3.75-2.4 3.75-5.1 0-4.6-3.95-7.5-4.15-3-11.05-3-2.5 0-7.25 2.5-4.7 2.5-10.1 2.5-7.9 0-12.45-4-5.05-4.4-5.05-13 0-4.8 5.05-8 6.15-4 18.3-4l5.5 1q-1.3-0.7-2.45-0.85l-2.9-0.15h-0.15l-6-1.35q-8.35-2.15-8.35-5.65 0-1.55 0.5-1.95l0.5-0.05 3.3-0.5 3.7-0.5q9.45 0 15.2 4l4.05 2.75q2.45 1.25 5.6 1.25 2.35 0 5.85-1.7l6.85-3.8q10-5.5 18.3-5.5l12.3 0.5 15.7 0.5q1.6 0 4.2-1.7l5.25-3.8q8.05-5.5 16.55-5.5l5 0.4q6 0.55 11 1.6 16 3.35 16 10-0.5 3.45-3 6.65-4.95 6.35-15 6.35l-11.1-1.5q-11.2-1.5-17.9-1.5l-20 1.05q-6.1 1.05-9 3.95 2.95 2.95 15.05 7.35 15.5 5.65 29.45 5.65 5 0 13.95-4.5t15.05-4.5q5.95 0 9.55 2.2 2.2 1.35 5 4.8 2.8 3.55 4.8 4.8 3.5 2.2 9.15 2.2 1.4 0 4.8-1.25l7.55-2.75q12-4 24.15-4" fill="url(#i)" fill-rule="evenodd"/>
<path d="m383.35 146q-12.15 0-24.15 4l-7.55 2.75q-3.4 1.25-4.8 1.25-5.65 0-9.15-2.2-2-1.25-4.8-4.8-2.8-3.45-5-4.8-3.6-2.2-9.55-2.2-6.1 0-15.05 4.5t-13.95 4.5q-13.95 0-29.45-5.65-12.1-4.4-15.05-7.35 2.9-2.9 9-3.95l20-1.05q6.7 0 17.9 1.5l11.1 1.5q10.05 0 15-6.35 2.5-3.2 3-6.65 0-6.65-16-10-5-1.05-11-1.6l-5-0.4q-8.5 0-16.55 5.5l-5.25 3.8q-2.6 1.7-4.2 1.7l-15.7-0.5-12.3-0.5q-8.3 0-18.3 5.5l-6.85 3.8q-3.5 1.7-5.85 1.7-3.15 0-5.6-1.25l-4.05-2.75q-5.75-4-15.2-4l-3.7 0.5-3.3 0.5-0.5 0.05q-0.5 0.4-0.5 1.95 0 3.5 8.35 5.65l6 1.35h0.15l2.9 0.15q1.15 0.15 2.45 0.85l-5.5-1q-12.15 0-18.3 4-5.05 3.2-5.05 8 0 8.6 5.05 13 4.55 4 12.45 4 5.4 0 10.1-2.5 4.75-2.5 7.25-2.5 6.9 0 11.05 3 3.95 2.9 3.95 7.5 0 2.7-3.75 5.1l-8.15 4.2q-11.95 5.8-11.95 13.2 0 7.05 9.9 11.05 7.3 2.95 14.45 2.95 11.05 0 17.25-5.3 2.8-2.4 8.75-11.7 5.2-8.1 11.25-11.7 9-5.3 24.75-5.3 5.2 0 8.3 1.9 2.5 1.5 4.2 1.1-0.25 5.45-8.2 7.15-4.3 0.95-5.35 1.45-2.45 1.1-2.45 3.4 0 7 15 7 8.45 0 14.55-3.3l10.15-7.2q6.65-4.9 13.8-7.2 9.8-3.15 24.3-3.3l1.2 0.05 17.2 0.95 14.3 1q11 0 14.5-6 2-3.45 2-12 0-6.75-5-7.95l-4.7-0.3z" fill="none" stroke="#000" stroke-linecap="round" stroke-linejoin="round" stroke-opacity=".4" stroke-width=".1"/>
</g>
<linearGradient id="i" x1="-819.2" x2="819.2" gradientTransform="matrix(-.0109 .0191 -.1143 -.0656 267.55 172.6)" gradientUnits="userSpaceOnUse">
<stop stop-color="#9cc" offset="0"/>
<stop stop-color="#999" offset="1"/>
</linearGradient>
<g id="c" transform="translate(150.05,157)">
<use transform="translate(-150.05,-157)" width="234.85001" height="91.099998" xlink:href="#f"/>
</g>
<g id="f" transform="translate(150.05,157)">
<path d="m-114.95-65.9-0.15-0.05q-9.9-4-9.9-11.05 0-2.55 1.45-4.9l8.6-3.95q17.95-6.9 53.2-6.9h0.3q-1 0.5-1.95 1.05-6.05 3.6-11.25 11.7-5.5 8.6-8.3 11.3-1.3-1.6-3.5-2.75-4.85-2.5-12.05-2.05-7.05 0.45-12.05 3.4-3.1 1.85-4.4 4.2m115.95-59.6 4.35-0.5q5.95 0 9.55 2.2 2.2 1.35 5 4.8 2.8 3.55 4.8 4.8 3.5 2.2 9.15 2.2 1.25 0 4.05-0.95 5.85 2.65 11.6 5.7 9.7 4.55 20.25 9.15l6.9 2.95q-3.4 1.15-8.3 1.15l-14.3-1-17.2-0.95-1.2-0.05q-14.5 0.15-24.3 3.3-7.15 2.3-13.8 7.2-8.7 6.45-10.15 7.2-6.1 3.3-14.55 3.3-15 0-15-7 0-2.3 2.45-3.4 1.05-0.5 5.35-1.45 6.3-1.35 7.8-5.05l5.3 0.55 5.9 0.9 9.85 0.45q9.85 0 13.45-4 2.05-2.25 2.05-6 0-4.55-1.55-6.15-2.2-2.25-12.15 0.8-7.95 2.45-70 2.6 4.8-7.05 15.2-10.05 10.35-3 27.9-4.55l6.95 0.35q4.55 0 12.35-3.7 8-2 12.3-4.8m3.85-12.85-0.3 0.4q-5.5-7.6-31.5-3.35-10.95 1.8-25.9 5.8l-4.9 1.35-1.4 0.2q-3.65 0.6-6.1 1.9-3 0.85-17.7 0.3-14.75-0.6-31.55 8.5-16.85 9.05-24.7 17.65-4-1-6.75-3.4-2.85-2.5-4.1-6.35 13.2-7.15 13.2-10.65 0-4.3-2.8-6.65 5-1.35 12-1.35l5.5 1q-1.3-0.7-2.45-0.85l-2.9-0.15h-0.15l-6-1.35q-8.35-2.15-8.35-5.65l0.05-0.55 14.8-1.8q4.85 0.9 8.35 3.35l4.05 2.75q2.45 1.25 5.6 1.25 2.35 0 5.85-1.7 2.05-1.05 6.85-3.8l0.1-0.05 17.35 0.55q23.7 0 31.2-3 3.5-1.4 4.8-3.75 0.6-1.05 0.85-2.65l1.45-1.1q8.05-5.5 16.55-5.5l5 0.4 11 1.6q16 3.35 16 10-0.5 3.45-3 6.65m79.95 25.15-1.75-0.7q-6.9-2.7-13.85-6.1h1.15l4.8-0.25 4.7 0.3q4.55 1.1 4.95 6.75" fill="#757575" fill-opacity=".48628" fill-rule="evenodd"/>
</g>
<g id="b" transform="translate(-5,-8.25)">
<use transform="translate(5,8.25)" width="230.85001" height="85.75" xlink:href="#e"/>
</g>
<g id="e" transform="translate(-5,-8.25)">
<path d="m111.3 71.6q1.05-0.5 5.35-1.45 6.75-1.45 7.95-5.6 2.25 1.5 2.25 3.3 0 3.1-2.5 4.6-1.55 0.95-5.5 1.85-4.05 0.85-5.5 1.65-2.05 1.2-2.4 3.3-2.1-1.65-2.1-4.25 0-2.3 2.45-3.4m61.8-21.35q9.15 5.75 20.75 5.75 1.9 0 24.15-5.75 11.9-3.05 17.85-5.1 0 8.45-2 11.85-3.5 6-14.5 6l-14.3-1-17.2-0.95-1.2-0.05q-14.5 0.15-24.3 3.3-7.15 2.3-13.8 7.2-8.7 6.45-10.15 7.2-3.75 2-8.35 2.8l2.5-2.2q5.3-5.3 5.3-9.8 0-11.75-10.3-16.15-8.9-3.75-22.7-1.35-12.85 2.25-22.7 8.35-10.3 6.35-10.3 12.9l0.5 3q0.85 2 2.85 2.55-5.1 7.75-7.6 9.9-6.2 5.3-17.25 5.3-7.15 0-14.45-2.95-5.15-2.1-7.6-4.95l-0.3-4.6q0-3.2 7.15-7 5.8-3.05 12.95-5 11.6-3.15 18.4-11.9 5.35-6.9 5.35-12.85 0-5.2-4.35-10.05-4.1-4.5-9.65-6.5-5.8-2.1-9.6-0.05-4.4 2.35-4.4 9.35l-0.15 1.2q-0.05 1.75 0.4 3.3 1.55 5 7.75 5 2.65 0 4-2 1-1.45 1-3.4l-0.15-1.95-0.35-0.65 3.45 1.65q2.05 1.3 2.05 3.35 0 7.1-6.85 11.55-1.8 1.2-5.2 2.7l0.05-0.75q0-4.6-3.95-7.5-4.15-3-11.05-3-2.5 0-7.25 2.5-4.7 2.5-10.1 2.5-7.45 0-11.9-3.55 1.4-1.3 1.4-3.35 0-1.25-1-2.6-1-1.4-1-2.65 0.25-1.7 2.05-3.35 3.55-3.25 11.2-3.25 2.95 0 6.5 2.4 3.6 2.35 8.6 2.35 2.4 0 3.95-1.45 1.55-1.4 1.55-3.45 0-3.3-6.85-6.1-6.8-2.8-15.05-2.95l-5.9 0.4q5.1-1.45 12.3-1.45l5.5 1q-1.3-0.7-2.45-0.85l-2.9-0.15h-0.15l-6-1.35-3.95-1.25q5.25-1.1 8.85-1.15l5.35 0.45q2.15 0.5 3.2 1.45 2.05 1.85 6.05 1.85h0.8q1.4 2 5.2 2 3.15 0 11.55-4.3 9.5-4.85 12.95-5.7 4.75-1.15 11.4-0.9l11.85 1q15.05 1.35 22.75-2.35 0.8-0.35 1.8-1.4 0.9-0.95 2.1-1.45 3.95-1.65 17.6-1.65 7.95 0 17.75 7.4l3.5 2.7-0.25 0.3q-4.95 6.35-15 6.35l-11.1-1.5q-11.2-1.5-17.9-1.5l-20 1.05q-6.1 1.05-9 3.95l0.85 0.75q-0.85 1.4-0.85 3.35 0 1.4 3 2.85 3.35 1.65 10 3.05 0.85 0.2 6.3 5.15 6.65 4.85 13.7 4.85 6.85 0 10.6-1.05l0.9 0.05 8.85-2.5 0.15 0.75q1.3 2.75 5 2.75l15.9-2.5q4.95 0 9 1.8 1.75 0.75 6.85 3.95" fill="url(#h)" fill-rule="evenodd"/>
</g>
<linearGradient id="h" x1="-819.2" x2="819.2" gradientTransform="matrix(-.0109 .0191 -.1143 -.0656 105.55 63.6)" gradientUnits="userSpaceOnUse">
<stop stop-color="#830328" stop-opacity=".25882" offset="0"/>
<stop stop-color="#83021e" stop-opacity=".25882" offset="1"/>
</linearGradient>
<g id="a" transform="translate(19.5,69.3)">
<use transform="translate(-19.5,-69.3)" width="228.85001" height="78" xlink:href="#d"/>
</g>
<g id="d" transform="translate(19.5,69.3)">
<path d="m17.55 8 2.75-0.6q17.25-3.7 22.45-7.4-2.65 5.35-8.5 7.9-3.6 1.55-16.7 0.1" fill="#fff" fill-opacity=".80784" fill-rule="evenodd"/>
<path d="m-17.5-38-0.45 0.2-1.55 0.05q0.65-2.7 1.45-3.35l0.1-0.05 0.05 1.05q0.55 1.55 0.4 2.1" fill="#fff" fill-opacity=".80784" fill-rule="evenodd"/>
<path d="m123.85-66.5-0.5-0.75q1.1 0 2.3 0.65l1.2 0.85 1.5-0.25-8.65-3.3 5.95 0.6q5.7 1.35 5.7 5.2l-0.1 1.7-0.9 0.05q-1-1.3-3.25-2.75l-3.25-2" fill="#fff" fill-opacity=".80784" fill-rule="evenodd"/>
<path d="m195.35-33q-12.4 0-16.45 3.6-1.4 1.2-2 3.05l-0.8 2.6h-1.75l3.25-4.4q2.1-2.9 4.5-4.3 7.1-4.25 23.25 0.7l-4.25-0.45-5.75-0.8" fill="#fff" fill-opacity=".80784" fill-rule="evenodd"/>
<path d="m175.35-29q6.75-2.5 15.9-4.4 9.15-1.95 11.8 2.3t3.9 5.5q1.15 1.2 2.4 1.6l-0.4 1.05q-0.45 0.45-5.1-4.5t-35.75 4.2l-0.35-0.05q-0.4-0.05-0.4-1.55l0.5-1.65q0.75 0 7.5-2.5" fill="#fff" fill-opacity=".80784" fill-rule="evenodd"/>
<path d="m113.1-30.25 11.6-2.7 8.6-1.9q-2.85 0.8-5.75 2.35-6.15 3.25-8.7 3.25-5.4 0-5.75-1m26.25-5.5h-0.55q11.4-1.35 13.3 3.75-0.25 0.75-1.25 1.25-0.95-0.1-5.9-2.6-4.75-2.4-5.6-2.4" fill="#fff" fill-opacity=".80784" fill-rule="evenodd"/>
</g>
</defs>
</svg>
