<?xml version="1.0" encoding="UTF-8"?>
<svg version="1.1" viewBox="0 0 231.62 151.94" xmlns="http://www.w3.org/2000/svg" xmlns:cc="http://creativecommons.org/ns#" xmlns:dc="http://purl.org/dc/elements/1.1/" xmlns:rdf="http://www.w3.org/1999/02/22-rdf-syntax-ns#" xmlns:xlink="http://www.w3.org/1999/xlink">
<metadata>
<rdf:RDF>
<cc:Work rdf:about="">
<dc:format>image/svg+xml</dc:format>
<dc:type rdf:resource="http://purl.org/dc/dcmitype/StillImage"/>
</cc:Work>
</rdf:RDF>
</metadata>
<g transform="translate(-149.6 -161.03)">
<use transform="translate(149.65,161.05)" width="231.55" height="151.89999" xlink:href="#a"/>
</g>
<defs>
<g id="a" transform="translate(-149.65,-161.05)">
<path d="m336.3 182.75-59.6 33.35-7.95-0.75 67.55-32.6m-68.8 27.4-69.1 43.05-2.9-3.45-8.95-1.3 108.15-69.2-27.2 30.9m-83.2 34.3q-2.55 13.3-9.65 12.4-13.9-2.05-19.5-17.45 5.75-7.5 14.5-7.9 8.7-0.45 14.65 12.95m-10.15 40.3q0.15-1.1 1.4-4.2 0.85-4.6 4.6-5.7 5.35-2.15 9 1.55 2.75 7.8-1.55 12.75-4.9 4.45-9.75 1.75-3.75-2.2-3.7-6.15" fill="#fff4e1" fill-rule="evenodd"/>
<path d="m149.9 254.2q6.65 16.4 22.4 19.4-10.4 1.9-18.8-4.85-4.9-6.25-3.6-14.55m13.75 45.1 11.3 6.3q10.55-4.6 21.15-9.15l1.25-17.95q10.7 17.35 4.6 22.85-12.1 12.25-28.1 11.55-7.65-2.8-10.2-13.6m33.75-24.45 1.45-7.2 159.35-95.5 23-11.1-183.8 113.8" fill="#d1ab5a" fill-rule="evenodd"/>
<path d="m336.3 182.75 4.65-2.25q8.6-4.2 17.25-8.35l-159.35 95.5-1.45 7.2-0.7 0.45 0.65 3.2-1.25 17.95q-10.6 4.55-21.15 9.15l-11.3-6.3q-2.35-5.5 1.55-14.1l7.3-11.55-0.2-0.05q-15.75-3-22.4-19.4 0.3-7.95 5.25-14.8 5.6 15.4 19.5 17.45 7.1 0.9 9.65-12.4 1.25 2.8-0.15 5.55l2.4-1.55 8.95 1.3 2.9 3.45 69.1-43.05 0.55 5.55 0.7-0.35 7.95 0.75 59.6-33.35m-162.15 102q-0.05 3.95 3.7 6.15 4.85 2.7 9.75-1.75 4.3-4.95 1.55-12.75-3.65-3.7-9-1.55-3.75 1.1-4.6 5.7-1.25 3.1-1.4 4.2" fill="#ddc084" fill-rule="evenodd"/>
<path d="m268.75 215.35-0.7 0.35-0.55-5.55m-80.95 38.3-2.4 1.55q1.4-2.75 0.15-5.55-5.95-13.4-14.65-12.95-8.75 0.4-14.5 7.9-4.95 6.85-5.25 14.8-1.3 8.3 3.6 14.55 8.4 6.75 18.8 4.85l0.2 0.05-7.3 11.55q-3.9 8.6-1.55 14.1m33.7-20.8-0.65-3.2 0.7-0.45m160.8-102.7q-8.65 4.15-17.25 8.35m17.25-8.35 23-11.1-183.8 113.8m-0.05 3.65q10.7 17.35 4.6 22.85-12.1 12.25-28.1 11.55-7.65-2.8-10.2-13.6m22.9-50.85 108.15-69.2-27.2 30.9m1.25 5.2 67.55-32.6" fill="none" stroke="#000" stroke-linecap="round" stroke-linejoin="round" stroke-opacity=".25098" stroke-width=".05"/>
</g>
</defs>
</svg>
