<?xml version="1.0" encoding="UTF-8"?>
<svg version="1.1" viewBox="0 0 90.158 67.375" xmlns="http://www.w3.org/2000/svg" xmlns:cc="http://creativecommons.org/ns#" xmlns:dc="http://purl.org/dc/elements/1.1/" xmlns:rdf="http://www.w3.org/1999/02/22-rdf-syntax-ns#" xmlns:xlink="http://www.w3.org/1999/xlink">
<metadata>
<rdf:RDF>
<cc:Work rdf:about="">
<dc:format>image/svg+xml</dc:format>
<dc:type rdf:resource="http://purl.org/dc/dcmitype/StillImage"/>
</cc:Work>
</rdf:RDF>
</metadata>
<g transform="translate(-229.87 -170.75)">
<use transform="translate(229.9,170.8)" width="90.099998" height="67.300003" xlink:href="#a"/>
</g>
<defs>
<g id="a" transform="translate(-229.9,-170.8)">
<path d="m320 208.85-9.45 13.45q-12.3 10.6-31.15 13.7l-1.1-17.15h0.05q16.1 1.15 31.2-4.25 7-2.25 10.45-5.75m-54.6 29.25-20-0.15q-4.85-1.7-8.05-7.4l-6.05-12.7 13.9-2.6q8.8-3.25 13.7 0.75l6.5 22.1" fill="#998d4d" fill-rule="evenodd"/>
<path d="m256.5 174.1 0.2 0.05-5.65 12-20.95 20.05 5.8-11.25q7.45-13.4 20.6-20.85m63.45 25.55 0.05 9.2q-3.45 3.5-10.45 5.75l10.4-14.95m-74.75 15.6q5.5-7.75 22-9.65 11.85 6.15 11.15 13.25h-0.05q-8.7-3.4-19.4-2.85-4.9-4-13.7-0.75" fill="#fff0a3" fill-rule="evenodd"/>
<path d="m256.7 174.15v-0.1q24.55-6.15 44.25-0.75l8.55 5.4q10.3 10.45 10.45 20.95l-10.4 14.95q-15.1 5.4-31.2 4.25 0.7-7.1-11.15-13.25-16.5 1.9-22 9.65l-13.9 2.6q-1.95-2.05-1.2-11.65l20.95-20.05 5.65-12" fill="#ecdc86" fill-rule="evenodd"/>
<path d="m279.4 236-14 2.1-6.5-22.1q10.7-0.55 19.4 2.85l1.1 17.15" fill="#807541" fill-rule="evenodd"/>
<path d="m256.7 174.15-0.2-0.05 0.2-0.05v0.1" fill="#fff" fill-rule="evenodd"/>
<path d="m256.7 174.15v-0.1m52.8 4.65-8.55-5.4m19.05 35.55-9.45 13.45q-12.3 10.6-31.15 13.7l-14 2.1-20-0.15q-4.85-1.7-8.05-7.4" fill="none" stroke="#6b6136" stroke-linecap="round" stroke-linejoin="round" stroke-opacity=".70196" stroke-width=".05"/>
<path d="m256.7 174.05-0.2 0.05q-13.15 7.45-20.6 20.85l-5.8 11.25m70.85-32.9q-19.7-5.4-44.25 0.75m-19.35 56.5-6.05-12.7q-1.95-2.05-1.2-11.65m89.9 2.65-0.05-9.2q-0.15-10.5-10.45-20.95" fill="none" stroke="#6b6136" stroke-linecap="round" stroke-linejoin="round" stroke-opacity=".70196" stroke-width=".05"/>
<path d="m270.85 183.45-4.25 1.85-7.15-1.15 8.3-4.65 3.1 3.95m5.35-7.6 5.7-2.75 4.4 4 5.25 0.9 2 1.85 5.4 1.35 1.45 2.85-18.55-0.35-9.85-5.25 4.2-2.6" fill="#b7b728" fill-rule="evenodd"/>
</g>
</defs>
</svg>
