<?xml version="1.0" encoding="UTF-8"?>
<svg version="1.1" viewBox="0 0 309.3 175.16" xmlns="http://www.w3.org/2000/svg" xmlns:cc="http://creativecommons.org/ns#" xmlns:dc="http://purl.org/dc/elements/1.1/" xmlns:rdf="http://www.w3.org/1999/02/22-rdf-syntax-ns#" xmlns:xlink="http://www.w3.org/1999/xlink">
<metadata>
<rdf:RDF>
<cc:Work rdf:about="">
<dc:format>image/svg+xml</dc:format>
<dc:type rdf:resource="http://purl.org/dc/dcmitype/StillImage"/>
</cc:Work>
</rdf:RDF>
</metadata>
<g transform="translate(-108.32 -135.72)">
<use transform="translate(108.35,135.75)" width="309.25" height="175.10001" xlink:href="#a"/>
</g>
<defs>
<g id="a" transform="translate(-108.35,-135.75)">
<path d="m124.25 208.05-3.35-12.8 11.8-6.9 11.9 58.55-13.55-20.25q-4.05-9.35-6.8-18.6" fill="#fff" fill-rule="evenodd"/>
<path d="m195.8 166.95q-6.75 61.85 1.45 125.85-59.75-13.05-88.9-122.95 7.65-5.6 16.3-9.6l2.65 9.85 6.25-13.5 6.6-2.1 5.25 23.1q2.75-8.9 5.65-17.7l3.9 4.9 4.3-5.7 11.5 24.1 14-25.95 11.05 9.7m-71.55 41.1q2.75 9.25 6.8 18.6l13.55 20.25-11.9-58.55-11.8 6.9 3.35 12.8" fill="#eeede3" fill-rule="evenodd"/>
<path d="m140.15 154.5q25-7.15 56.25-3.15l-0.75 3.5 0.15 12.1-11.05-9.7-14 25.95-11.5-24.1-4.3 5.7-3.9-4.9q-2.9 8.8-5.65 17.7l-5.25-23.1m-15.5 5.75q4.3-2 8.9-3.65l-6.25 13.5-2.65-9.85" fill="#c8af95" fill-rule="evenodd"/>
<path d="m140.15 154.5q25-7.15 56.25-3.15l-0.75 3.5 0.15 12.1q-6.75 61.85 1.45 125.85-59.75-13.05-88.9-122.95 7.65-5.6 16.3-9.6 4.3-2 8.9-3.65z" fill="none" stroke="#404040" stroke-linecap="round" stroke-linejoin="round" stroke-width=".05"/>
<path d="m398.05 206.95 4.1-15.7-14.45-8.4-14.5 71.7 16.5-24.85q5.05-11.35 8.35-22.75" fill="#fff" fill-rule="evenodd"/>
<path d="m386.65 144q-3.95-1.5-8.1-2.65l-6.35 28.25-6.9-21.65-4.85 6.1-5.25-7.05-14.05 29.5-17.25-31.8-13.55 11.9q8.35 75.8-1.7 154.25 73.2-16 108.95-150.7-9.5-6.8-20.05-11.7l-3.2 12-7.7-16.45m11.4 62.95q-3.3 11.4-8.35 22.75l-16.5 24.85 14.5-71.7 14.45 8.4-4.1 15.7m-71.45 8.3-2.2 48.25-7.25-43.3 5.3-40.6 4.15 35.65" fill="#eeede3" fill-rule="evenodd"/>
<path d="m397.55 148.45q-5.3-2.5-10.9-4.45l7.7 16.45 3.2-12m-19-7.1q-30.65-8.75-68.9-3.85l0.9 4.3-0.2 14.8 13.55-11.9 17.25 31.8 14.05-29.5 5.25 7.05 4.85-6.1 6.9 21.65 6.35-28.25m-51.95 73.9-4.15-35.65-5.3 40.6 7.25 43.3 2.2-48.25" fill="#c8af95" fill-rule="evenodd"/>
<path d="m397.55 148.45q-5.3-2.5-10.9-4.45-3.95-1.5-8.1-2.65-30.65-8.75-68.9-3.85l0.9 4.3-0.2 14.8q8.35 75.8-1.7 154.25 73.2-16 108.95-150.7-9.5-6.8-20.05-11.7z" fill="none" stroke="#404040" stroke-linecap="round" stroke-linejoin="round" stroke-width=".05"/>
</g>
</defs>
</svg>
