<?xml version="1.0" encoding="UTF-8"?>
<svg version="1.1" viewBox="0 0 194.66 98.452" xmlns="http://www.w3.org/2000/svg" xmlns:cc="http://creativecommons.org/ns#" xmlns:dc="http://purl.org/dc/elements/1.1/" xmlns:rdf="http://www.w3.org/1999/02/22-rdf-syntax-ns#" xmlns:xlink="http://www.w3.org/1999/xlink">
<metadata>
<rdf:RDF>
<cc:Work rdf:about="">
<dc:format>image/svg+xml</dc:format>
<dc:type rdf:resource="http://purl.org/dc/dcmitype/StillImage"/>
</cc:Work>
</rdf:RDF>
</metadata>
<g transform="translate(-72.661 -124.38)">
<use transform="translate(72.7,124.4)" width="194.60001" height="98.400002" xlink:href="#a"/>
</g>
<defs>
<g id="a" transform="translate(-72.7,-124.4)">
<path d="m184.05 147.75q0.5-0.75 1.35-1.2l0.7-0.55 0.95-1 1.65-1.6q2.25-2.2 5.85-4.5l1.15-0.9q1.8-1.75 4.1-1.85l2.8 0.1 2.8 0.5q4.1 0.9 8 2.55l2.45 1.1 5.5 2.55 2.4 0.5q3.9 0 6.55 2.95l0.25 0.4q-0.2 0.75-0.8 1.4l-1.55 1.1q-0.4 0.25-0.65 0.55l-1.8 1.45q-0.75 0.4-1.45 0.95-2.15 1.75-4.15 4.2l-0.45 0.9q-0.1 0.95-0.65 1.7-2.2 8.95-1.9 16.65l0.1 1.2q0.3 3.1-0.05 5.95l-0.2 1.15q-2.2-2.1-7.25-2l-0.4-0.7 0.85-2-0.85 0.1 0.1-4.5q0.05-3.55-0.65-6.75l-0.55-1.65q-1.45-2.25-4.4-4.25l-0.2-0.1q-7.3-3.75-14.3-8.05-1.65-1.05-2.7-3.25l-0.55-1.05q-0.9-1.65-2.05-2.05m-85.85-10.45-0.2-0.2v-1.1l0.25-0.25q2.5-1.9 5.5-3.7l7.5-4.9q2.2-1.5 4.45-2.15l1.7-0.35 0.9-0.25 3.5 0.4 0.7 0.2 0.9 0.2 1.15 0.25 3.2 0.55q6.35 0.4 12.4 2.25l2.85 0.9 8 2.15-1.7 1.95-0.85 1.15-3.55 3.6-0.95 1-1.15 1.3q-1.45 1.4-3.1 2.55l-3.25 2.7-1.1 0.8q-1.15 0.6-2.4 0.5l-15.2-1.55-10.4-1.9-0.6-0.3-1.05-0.85-1.5-1-1.7-1q-2.5-1.3-4.3-2.95m52.9 53.75h1.5l1.45-0.2-0.35 0.6v0.05l0.2 0.05 0.35-0.35 2.1-0.35 1-0.1 0.3-0.45 1-0.15-0.2 0.1-6.55 3.6h-5.1l4.3-2.8" fill="#fffdea" fill-rule="evenodd"/>
<path d="m184.05 147.75q1.15 0.4 2.05 2.05l0.55 1.05q1.05 2.2 2.7 3.25 7 4.3 14.3 8.05l0.2 0.1q2.95 2 4.4 4.25l0.55 1.65q0.7 3.2 0.65 6.75l-0.1 4.5q-7.45 0.5-12.4 3.9-2.45-2.25-3.85-4.65l-0.5-0.15-0.1-0.25-1.2-4.25-0.55-2.3-0.55-1.6-1.45-0.7-0.25-0.3-0.3-1-2.75-1.85q-1-0.7-2.1-1.2l-0.75-0.4 0.15-1.3 0.05-0.45 0.2-8.4 0.2-2.75 0.15-0.85 0.4-2.7 0.3-0.45m-83.75 8.9-0.9-1.35q-0.6-0.9-0.6-2l-0.1-1.2-0.7-14.8h0.2q1.8 1.65 4.3 2.95l1.7 1 1.5 1 1.05 0.85 0.6 0.3 10.4 1.9 15.2 1.55q1.25 0.1 2.4-0.5l2.35 8.05-0.35-0.3-2.8-0.4-0.2 1.45-1.8 0.15q-2.55 4.3-2.5 7.35-4.8 1.5-9.9 1.45l-4.8-4-0.75 0.05q-1.3 0.3-0.8 1.55-1.55-1.8-4.4-4l-2 3.2h-2.8l-4.3-4.25m53-2.6 0.4 1.4-2.35 2.85 0.6-0.9q1-1.6 1.35-3.35m5.15 36.2 0.75 2.45-6.85 3.9-0.4-0.15-0.35-2.15 0.1-0.35v-0.1h0.2l6.55-3.6" fill="#d9cebf" fill-rule="evenodd"/>
<path d="m209.75 182q5.05-0.1 7.25 2l0.75 0.95q-6.65 2.9-14.8 2.95l0.4 0.2 1.2 2.8-6.4 1.6q-0.05 2.4 2.8 2h1.6q-1.55 1.15-3.7 1.75-0.8 0.2-0.7 1.05 7.4-0.85 12.4 4.8l0.4 4.8-2 4q-12.55 10.1-28 4.8l0.4-2.4q4.85 0.25 9.45-0.95 1.95-0.55 3.35-1.85l-21.6-1.6-1.2-1.6v-3.2q6.95-7.95 18.4-6.8l0.4-0.4v-2q-2.2-1.55-4.75-1.65l-0.85-0.75v-1.6l0.3-0.15q-3.6-0.35-7.1-2.6h-0.4q-4.25 0.6-7.6-1.25l-1.2-2.2-0.45-0.9q-5.15 1.9-20.35 1.5l-3.2 0.45-2.75-0.05v-0.25l0.35-0.15q0.85-0.55 1.1-1.35l0.05-0.25q0.2-2.05 1-3.85l0.15-0.25 0.45-1.5 0.65-2.6 0.05-0.4q0-1.8 1.95-6.7l2-5.6q2.1-2.95 4.75-5.55l0.85 2 0.5 0.9 0.4 0.7h0.05l1.25-0.4v4.45l0.85 0.85q-1.45 3.45-3.65 6.35l-0.4 0.4h13.2q1.15-1.35 5-1.45-4.65-5.3 7.35-4.95l0.85 0.05 2.05-0.05v-1.4l0.75 0.35q1.1 0.5 2.1 1.2l-0.4-0.25-1.15 0.1 1.5 4.8 2 1.6 0.8 2.4-0.8 3.2 2.8 3.6 5.2 3.2 4.4 0.4q4.4-3.1 10.4-2.4l-0.45-0.9m-82.35 34.45-8.95 0.65q-23.8 6.1-33.85-0.55-6.25-4.15-8.25-6.75 0.7-1.4 1.8-2.85l16.8-0.45-0.75-2.8q-3.25-3.05-7.65-3.15l-0.8-1.65q0.6-0.9 1.95-1.3l2.85-0.65 0.4-2 0.1-0.2q10.9-3.4 22.75-3.45l-1.65-0.75h0.4q11.2-2.55 21.65 1.15l-2.8 0.3q-14 0.05-25.25 5.75l-1.15 0.45q-1.65 0.7-0.8 1.55 9.55 0.6 19.15 2.4-5.7 3.45-13.2 4.35v2.85l0.4 0.4q11.15-0.6 16.85 6.7m-20.3-29.35 1.75-0.75q-3.15 0.4-6.05-0.85l-1.3-0.7-1.75-0.5v-1q0.3-0.9 1.2-1.3 1.35-0.8 2.2-2.1v-2.2q-4.2-3.25-10.2-2.4l-1.15-0.65-1.25-0.75-0.05-0.15 1.2-0.5q3.9-1.4 8.05-1.95l2.8-0.3 3.35-0.4v-0.05l0.05 0.05 2.25-0.45q0.2-0.35 0.7-0.4 1.3-0.3 1.65-1.25l2 0.4 1.25-0.4 8.4 0.8 6.8 4.8 1.15-1.6 3.25 2.8 1.55 5.2 2.8 3.2q0.5-1.15 1.3-2.25 0.35-0.5 1.15-0.55l-0.05-2.45v-0.3l-0.05-0.4-0.15-0.45-0.2-0.65 0.1 0.2 1.15 3.15q0.65 2.5 0.75 5.45v0.45l-1 1.2-2.6 0.5-15.2 1.3-2.1 0.05-13.75-1.85m81.65-17.7-0.15-0.1-0.1-0.2 0.25 0.3m2.65 20.6 0.75 0.1v-0.75l-1.15 0.5 0.4 0.15m-39.05 6.6 0.85 0.3-0.4 1.2-1.65 0.8q-1.95-0.1-2.75 1l0.05 0.2 0.15 0.2q0.65 0.1 0.55 0.8l-0.75 0.6-0.4 0.6-0.8 0.25q-3.5 2.05-7.6 1.35l1.4-0.8q-0.65-0.7-1.6-0.4l-4.8-0.2 0.05-0.35 1.95-1.25q-0.8-0.6-2-0.6-1.85 0.1-2.8-0.8l0.05-0.15 0.7-1.05 2.25-0.6q2.65 0.1 4.2-1.6l0.15-0.35q5.2-3.9 11.95-4.7l-4.3 2.8h-0.15l-2.1 3.4 7.45-0.45-0.05-0.35 0.4 0.15" fill="#e02c00" fill-rule="evenodd"/>
<path d="m209.35 179.4 0.85-0.1-0.85 2 0.4 0.7 0.45 0.9q-6-0.7-10.4 2.4l-4.4-0.4-5.2-3.2-2.8-3.6 0.8-3.2-0.8-2.4-2-1.6-1.5-4.8 1.15-0.1 0.4 0.25 2.75 1.85 0.3 1 0.1 0.2 0.15 0.1 1.45 0.7 0.55 1.6 0.55 2.3 1.2 4.25 0.1 0.25 0.5 0.15q1.4 2.4 3.85 4.65 4.95-3.4 12.4-3.9m-103.45-8.85v-0.45q0.3-3.5-1.4-6.35l-0.1-0.25-0.5-1.1-1.3-2.75-0.95-1.2-1.15-1.55-0.2-0.25 4.3 4.25h2.8l2-3.2q2.85 2.2 4.4 4-0.5-1.25 0.8-1.55l0.75-0.05 4.8 4q5.1 0.05 9.9-1.45-0.05-3.05 2.5-7.35l1.8-0.15 0.2-1.45 2.8 0.4 0.35 0.3 0.55 1.95 0.25 0.6 0.1 0.35 1.55 0.8 0.4 1.2q1.7 1.2 3.25 1.6h0.4q4.35-0.15 7.15-2.6l2.35-2.85 0.25 0.8-0.15 0.65-1.25 0.4-0.75 1.6-1.8 1.95-0.15 0.2-0.85 1.05-1.8 1.85-0.2 0.15-0.4 0.1-1 0.4-0.25 0.7-1.15 0.8q-0.85 2-2.8 4l-0.3 9.55-0.1 0.35-1.15-3.15-0.45-2.35v-4.8l-1.35-0.25 0.1 0.25q0.7 1.4 0.75 3l0.05 0.85 0.8 3.1 0.2 0.65 0.15 0.45 0.05 0.4v0.3l0.05 2.45q-0.8 0.05-1.15 0.55-0.8 1.1-1.3 2.25l-2.8-3.2-1.55-5.2-3.25-2.8-1.15 1.6-6.8-4.8-8.4-0.8-1.25 0.4-2-0.4q-0.35 0.95-1.65 1.25-0.5 0.05-0.7 0.4l-2.25 0.45-0.05-0.05m76.7-5.85v-0.05l0.75 0.4-0.75-0.35m-49.7 2.95-0.15 0.05 0.55 0.15-0.4-0.2m19.05 28.8 0.05 0.35-7.45 0.45 2.1-3.4h5.05v0.1l-0.1 0.35 0.35 2.15" fill="#544630" fill-rule="evenodd"/>
<path d="m217 184 0.2-1.15 0.55 1.25q1.25 0.1 2.1-0.7 0.3-0.3 0.7-0.45 2.5-1.1 4.8-2.4l0.65-0.55 1-1.45 1.3-2.55q0.5-1.15 1.45-1.55v-5.95l0.2-1.55 0.35-2.8q2.3-0.05 3.8 0.8l0.45 0.25q4.35 1.4 6.85 4.65l0.25 0.6-1.25 0.9q-2.85 0.05-4.4 2.2 10.55-2.75 16.75 3.75 1.7 1.8 0.05 4 9.85 1 8.15 5.85 12.55 12-9.65 11.2-3.2-0.05-5.95 1.35 13.45 4 21.95 13.5 0 15.25-24.75 6.15-24.75-9.15-32.75-2.8-8.1 6.35-30.2 6.25-8.55-2.4-7.1-4.45-12.1 3.15-24.45 3.35l-0.35-0.3q-6.45 0.25-9.45-2.1-3.05-2.45 8.75-3.55l-19.6 0.7q-5.7-7.3-16.85-6.7l-0.4-0.4v-2.85q7.5-0.9 13.2-4.35-9.6-1.8-19.15-2.4-0.85-0.85 0.8-1.55l1.15-0.45q11.25-5.7 25.25-5.75l2.8-0.3q-10.45-3.7-21.65-1.15h-0.4l1.65 0.75q-11.85 0.05-22.75 3.45l-0.1 0.2-0.4 2-2.85 0.65q-1.35 0.4-1.95 1.3l0.8 1.65q4.4 0.1 7.65 3.15l0.75 2.8-16.8 0.45q-1.1 1.45-1.8 2.85-1.25-1.6-0.9-2.6 0.85-2.7 10-3-16.45-3.6-11.7-8l0.15-1.55q7.85-3 16.25-4.8 8.35-1.85 16.95-2.75l13.75 1.85 2.1-0.05 15.2-1.3 2.6-0.5 1-1.2v-0.45h0.05v0.25l2.75 0.05 3.2-0.45q15.2 0.4 20.35-1.5l0.45 0.9 1.2 2.2q3.35 1.85 7.6 1.25h0.4q3.5 2.25 7.1 2.6l-0.3 0.15v1.6l0.85 0.75q2.55 0.1 4.75 1.65v2l-0.4 0.4q-11.45-1.15-18.4 6.8v3.2l1.2 1.6 21.6 1.6q-1.4 1.3-3.35 1.85-4.6 1.2-9.45 0.95l-0.4 2.4q15.45 5.3 28-4.8l2-4-0.4-4.8q-5-5.65-12.4-4.8-0.1-0.85 0.7-1.05 2.15-0.6 3.7-1.75h-1.6q-2.85 0.4-2.8-2l6.4-1.6-1.2-2.8-0.4-0.2q8.15-0.05 14.8-2.95l-0.75-0.95m-117.25 0.3-0.05-0.05q-2.5-0.7-4.35-2.15 0-0.4 0.15-0.5 1.5-0.8 3.05-1.05 1.3-0.3 1.25-1.65l-0.15-0.45q-3.4-1.05-7.1-1.45-2.55-0.3-3.6-2.1 0.25-0.55 1.3-1.05l0.25-0.1 0.05 0.15 1.25 0.75 1.15 0.65q6-0.85 10.2 2.4v2.2q-0.85 1.3-2.2 2.1-0.9 0.4-1.2 1.3v1m54.2-28.05 0.35 1q-2.65 2.6-4.75 5.55l0.4-1.35 0.05-0.6 1.8-1.95 0.75-1.6 1.25-0.4 0.15-0.65m4.25 9.5 0.8 0.75 3.55 0.4q-0.35 1.9 1.6 1.6l3.65-0.4q1.9-2.45 5-3.95l3.75-0.05q0.4 0 0.7 0.5 0.75 1.3 2.45 1.5-12-0.35-7.35 4.95-3.85 0.1-5 1.45h-13.2l0.4-0.4q2.2-2.9 3.65-6.35m33.2 24.25-0.4-0.15 1.15-0.5v0.75l-0.75-0.1m-40.3 1.05q-6.75 0.8-11.95 4.7l-0.15 0.35q-1.55 1.7-4.2 1.6l-2.25 0.6-0.7 1.05-0.05 0.15q0.95 0.9 2.8 0.8 1.2 0 2 0.6l-1.95 1.25-0.05 0.35 4.8 0.2q0.95-0.3 1.6 0.4l-1.4 0.8q4.1 0.7 7.6-1.35l0.8-0.25 0.4-0.6 0.75-0.6q0.1-0.7-0.55-0.8l-0.15-0.2-0.05-0.2q0.8-1.1 2.75-1l1.65-0.8 0.4-1.2-0.85-0.3 6.85-3.9-0.75-2.45 0.2-0.1-1 0.15-0.3 0.45-1 0.1-2.1 0.35-0.35 0.35-0.2-0.05v-0.05l0.35-0.6-1.45 0.2h-1.5" fill="#f30" fill-rule="evenodd"/>
<path d="m217.2 182.85q0.35-2.85 0.05-5.95l-0.1-1.2q-0.3-7.7 1.9-16.65 0.55-0.75 0.65-1.7l0.45-0.9q2-2.45 4.15-4.2 0.7-0.55 1.45-0.95l1.8-1.45q0.25-0.3 0.65-0.55l1.55-1.1q-0.05 7.2 0.5 14.3l0.05 1.65-0.35 2.8-0.2 1.55v5.95q-0.95 0.4-1.45 1.55l-1.3 2.55-1 1.45-0.65 0.55q-2.3 1.3-4.8 2.4-0.4 0.15-0.7 0.45-0.85 0.8-2.1 0.7l-0.55-1.25m-66.2-51.55q0.15 4.3 1.05 8.45 0.5 2.45 0.55 5.15 0.05 2.3 0.65 4.45l0.2 1.15q0.2 1.85-0.15 3.55-0.35 1.75-1.35 3.35l-0.6 0.9q-2.8 2.45-7.15 2.6h-0.4q-1.55-0.4-3.25-1.6l-0.4-1.2-1.55-0.8-0.1-0.35-0.25-0.6-0.55-1.95-2.35-8.05 1.1-0.8 3.25-2.7q1.65-1.15 3.1-2.55l1.15-1.3 0.95-1 3.55-3.6 0.85-1.15 1.7-1.95m-11.25 45.35-0.8-3.1-0.05-0.85q-0.05-1.6-0.75-3l-0.1-0.25 1.35 0.25v4.8l0.45 2.35-0.1-0.2m1.25 3.35 0.1-0.35 0.3-9.55q1.95-2 2.8-4l1.15-0.8 0.25-0.7 1-0.4 0.4-0.1 0.2-0.15 1.8-1.85 0.85-1.05 0.15-0.2-0.05 0.6-0.4 1.35-2 5.6q-1.95 4.9-1.95 6.7l-0.05 0.4-0.65 2.6-0.45 1.5-0.15 0.25q-0.8 1.8-1 3.85l-0.05 0.25q-0.25 0.8-1.1 1.35l-0.35 0.15h-0.05q-0.1-2.95-0.75-5.45m-8.1-12.35 0.4 0.2-0.55-0.15 0.15-0.05" fill="#bca887" fill-rule="evenodd"/>
<path d="m202.6 136.25-2.8-0.1q-2.3 0.1-4.1 1.85l-1.15 0.9q-3.6 2.3-5.85 4.5l-1.65 1.6-0.95 1-0.7 0.55q-0.85 0.45-1.35 1.2l-0.3 0.45-0.4 2.7-0.15 0.85-0.2 2.75-0.2 8.4-0.05 0.45-0.15 1.3v1.45l-2.05 0.05-0.85-0.05q-1.7-0.2-2.45-1.5-0.3-0.5-0.7-0.5l-3.75 0.05q-3.1 1.5-5 3.95l-3.65 0.4q-1.95 0.3-1.6-1.6l-3.55-0.4-1.65-1.6v-4.45l-1.25 0.4h-0.05l-0.4-0.7-0.5-0.9-0.85-2-0.35-1-0.25-0.8-0.4-1.4q0.35-1.7 0.15-3.55l-0.2-1.15q-0.6-2.15-0.65-4.45-0.05-2.7-0.55-5.15-0.9-4.15-1.05-8.45l-8-2.15-2.85-0.9q-6.05-1.85-12.4-2.25l-3.2-0.55-1.15-0.25-0.9-0.2-0.7-0.2-3.5-0.4-0.9 0.25-1.7 0.35q-2.25 0.65-4.45 2.15l-7.5 4.9q-3 1.8-5.5 3.7l-0.25 0.25v1.1l0.2 0.2h-0.2l0.7 14.8 0.1 1.2q0 1.1 0.6 2l0.9 1.35 0.2 0.25 1.15 1.55 0.95 1.2 1.3 2.75 0.5 1.1 0.1 0.25q1.7 2.85 1.4 6.35v0.5l-3.35 0.4-2.8 0.3q-4.15 0.55-8.05 1.95l-1.2 0.5-0.25 0.1q-1.05 0.5-1.3 1.05 1.05 1.8 3.6 2.1 3.7 0.4 7.1 1.45l0.15 0.45q0.05 1.35-1.25 1.65-1.55 0.25-3.05 1.05-0.15 0.1-0.15 0.5 1.85 1.45 4.35 2.15l0.05 0.05 1.75 0.5 1.3 0.7q2.9 1.25 6.05 0.85l-1.75 0.75q-8.6 0.9-16.95 2.75-8.4 1.8-16.25 4.8l-0.15 1.55q-4.75 4.4 11.7 8-9.15 0.3-10 3-0.35 1 0.9 2.6 2 2.6 8.25 6.75 10.05 6.65 33.85 0.55l8.95-0.65 19.6-0.7q-11.8 1.1-8.75 3.55 3 2.35 9.45 2.1l0.35 0.3q12.35-0.2 24.45-3.35-1.45 2.05 7.1 4.45 22.1 0.1 30.2-6.25 8-6.35 32.75 2.8 24.75 9.1 24.75-6.15-8.5-9.5-21.95-13.5 2.75-1.4 5.95-1.35 22.2 0.8 9.65-11.2 1.7-4.85-8.15-5.85 1.65-2.2-0.05-4-6.2-6.5-16.75-3.75 1.55-2.15 4.4-2.2l1.25-0.9-0.25-0.6q-2.5-3.25-6.85-4.65l-0.45-0.25q-1.5-0.85-3.8-0.8l-0.05-1.65q-0.55-7.1-0.5-14.3 0.6-0.65 0.8-1.4l-0.25-0.4q-2.65-2.95-6.55-2.95l-2.4-0.5-5.5-2.55-2.45-1.1q-3.9-1.65-8-2.55z" fill="none" stroke="#000" stroke-linecap="round" stroke-linejoin="round" stroke-width=".05"/>
<path d="m140.25 180.05q-0.65-0.55-0.85-1.2l0.25-0.4q2.65-2.55 6.55-2.55l2.45-0.45 5.5-2.25 1.15-0.45 1.3-0.5q3.9-1.45 8-2.25l2.85-0.45 2.8-0.05q2.3 0.05 4.1 1.6l1.15 0.8q3.6 2 5.85 3.95l1.7 1.4 0.95 0.85 0.7 0.5 1.35 1.1q-1.2 0.35-2.05 1.75l-0.55 0.95q-1.1 1.9-2.75 2.85-7.05 3.75-14.3 7.05l-0.1 0.05-0.15 0.05q-2.95 1.75-4.35 3.7-0.35 0.5-0.6 1.45-0.7 2.8-0.6 5.95l0.05 3.95-0.8-0.05 0.8 1.75-0.35 0.6q-5.15-0.1-7.3 1.75l-0.2-1q-0.4-2.5-0.05-5.25l0.1-1.05q0.25-6.8-1.9-14.6-0.55-0.7-0.65-1.5l-0.45-0.8-4.15-3.65-0.8-0.5-0.7-0.35q-1.05-0.5-1.75-1.3l-0.65-0.45-1.55-1" fill="#fffdea" fill-rule="evenodd"/>
<path d="m186.05 179.7 0.25 0.35 0.4 2.35 0.15 0.75 0.25 2.45 0.2 7.35v0.4l0.15 1.15-0.7 0.35q-1.15 0.45-2.15 1.05l-2.7 1.6-0.35 0.9-0.25 0.25-1.45 0.65q-0.35 0.65-0.55 1.4l-0.55 2-1.2 3.75-0.1 0.2q-0.4 0-0.5 0.15-1.4 2.1-3.85 4.1-4.95-3-12.45-3.45l-0.05-3.95q-0.1-3.15 0.6-5.95 0.25-0.95 0.6-1.45 1.4-1.95 4.35-3.7l0.15-0.05 0.1-0.05q7.25-3.3 14.3-7.05 1.65-0.95 2.75-2.85l0.55-0.95q0.85-1.4 2.05-1.75" fill="#d9cebf" fill-rule="evenodd"/>
<path d="m184.6 195.9 0.45-0.2 1.1 0.1-1.45 4.2-2 1.4-0.8 2.1 0.8 2.8-2.85 3.2-5.2 2.75-4.4 0.35q-4.45-2.65-10.4-2.05l0.45-0.8 0.35-0.6-0.8-1.75 0.8 0.05q7.5 0.45 12.45 3.45 2.45-2 3.85-4.1 0.1-0.15 0.5-0.15l0.1-0.2 1.2-3.75 0.55-2q0.2-0.75 0.55-1.4l1.45-0.65 0.2-0.05 0.05-0.2 0.35-0.9 2.7-1.6" fill="#544630" fill-rule="evenodd"/>
<path d="m152.8 210.5-0.55 1.1q-1.3 0.05-2.1-0.65l-0.7-0.4q-2.55-0.95-4.85-2.1-0.4-0.2-0.65-0.5l-1-1.25-1.3-2.25q-0.5-1-1.4-1.35v-5.2l-0.2-1.35q-0.35-1.2-0.4-2.5v-0.3l0.05-1.15q0.55-6.25 0.55-12.55l1.55 1 0.65 0.45q0.7 0.8 1.75 1.3l0.7 0.35 0.8 0.5 4.15 3.65 0.45 0.8q0.1 0.8 0.65 1.5 2.15 7.8 1.9 14.6l-0.1 1.05q-0.35 2.75 0.05 5.25" fill="#bca887" fill-rule="evenodd"/>
</g>
</defs>
</svg>
