<?xml version="1.0" encoding="UTF-8"?>
<svg version="1.1" viewBox="0 0 343.85 261.1" xmlns="http://www.w3.org/2000/svg" xmlns:cc="http://creativecommons.org/ns#" xmlns:dc="http://purl.org/dc/elements/1.1/" xmlns:rdf="http://www.w3.org/1999/02/22-rdf-syntax-ns#" xmlns:xlink="http://www.w3.org/1999/xlink">
<metadata>
<rdf:RDF>
<cc:Work rdf:about="">
<dc:format>image/svg+xml</dc:format>
<dc:type rdf:resource="http://purl.org/dc/dcmitype/StillImage"/>
</cc:Work>
</rdf:RDF>
</metadata>
<g transform="translate(-78.525,-79.775)">
<use transform="translate(78.55,79.8)" width="343.79999" height="261.04999" xlink:href="#a"/>
</g>
<defs>
<g id="a" transform="translate(-78.55,-79.8)">
<path d="m332.4 93.05 2.7 2.75 7.7-1.25 0.55 0.1 13.3 14.25-0.9 2.8 2.95-0.6 18.45 19.75 1.85 8.9 10.55 4.4 11.8 12.65-0.9 5.05 4.8-0.9 2.9 3.1 1.4 11.55-6.6 7.8 8.05 4.15 3.3 27.55-3.55 4.3 5.15 8.65 0.2 1.75-16.3 1.2-1.15-14.55-9.5-0.9 0.45-12.4-15.7-12.15-3.95-20-10-7.5-0.8-5.9-33.75-32.95-1.95-7.25-14.25-7.1-5.75-11.8-0.05-0.15-18.1 2.1 4 0.6 0.75 4.65 6.8-3.55 3.5 0.5 9.6 10.3-3.25 6.8 10.4 0.8 10.55 11.35-1.55 6.95 9.7-1.15 5 5.9-1.9 5 7.15 1.1 8.3 9.7-0.75 6.3 10.8 5.5 0.75 0.85 1.2 9.9-4.35 6.35 5.75 5.1 1.15 9.75-23.5 21.6 2.95 10.25-9.15 3.65-5.15 27.05-29.6 9.85-5.2 6.45-13.2-2.4-30.25 12.8-27.85-13-23.55 5.4-80.4-51.6-29.75-53.85 1.45-13.85-0.35-0.05-3.6-9.55 7.7-14.8 8.4 0.7-3.95-9.25 4.45-8.5 14.15-5.7 10.9 3.15 2.95-8.7 22.7-9.15 5.2 3.15 0.7-5.5 17.75-7.1 2.6 1.95 1.65-3.7 11.6-4.65 16.95 2.5 14.5-5.85 3.75 2.95 1-3.5 2.6 5.35 4.55 2.6-0.25 2.25-6.5-0.95 6.5 0.95 11.6 1.7 3.2 6.8 7.7-5.25 12.75 1.85 4.15-2.9 3.5 2.5 8.45-5.25 0.25-6.2 17.55 2.55 2.45 4.6 4.75-3.55 14.4 2.1m-133.3-3.15-9.8 4.5 4.45 6.75 8.9-1.15 12.65 2.35 0.05-0.1 5.65-8.8-21.9-3.55m25.1 4.15-0.8-2.6 0.8 2.6 1.35 4.35 4.9-2.7-6.25-1.65m10.95-0.9q-2.35 1.3-4.7 2.55 2.35-1.25 4.7-2.55m-19.65-2.85 7.9 1.15-7.9-1.15m13.25 30.5 1.25-5.3-18.05-7.75-10.35 6.1-14.25-1.45-4.3 8.55-8.3-1.2-7.25 17.5h-7.35l5.8 14.7 10.3-4.05 6.1 11.1 21.75-5.3 3.85 4.8 19.25-6.8v-9.85l23.9-5.05 2.05-13.15-24.4-2.85m-49.5-19.2 6.15 0.9-1.45-5.05-6.5 2.4 1.8 1.75m55.35 71 0.55-9.55-12.45 4.45 3.4 7.05 8.5-1.95m48.5 16.25q-0.05 10.4-5.95 17.85l7.7 0.3q-1.65-9.45 5.25-17.15l0.85-0.9q12.45-7.05 21-8.45l-2.95-6.65q-8.75 8.75-20.05 9.85-8.2-0.75-14.1-10.7l-6.15 7.55q10.95-2.4 14.4 8.3m-6.2-89.65 7.55 1.15-7.55-1.15m-126.4 20.8 14.5-5.15-5.7-7.05-18.6 6.55 9.8 5.65m-6.95 68.6-3.1 3.7q11.9 8 21.1 17.8 2.05 13 0.95 25.3l3-0.7q-0.8-11.4 0.75-22.85 8.2-9.15 15.75-12.2l-1.6-2.65q-6.35 7.35-16.4 10.4-11.7-7.45-20.45-18.8" fill="#fcf2dc" fill-rule="evenodd"/>
<path d="m416.1 229.8 2.15 17.65-4.75 6.7 6.55 8.05 2.3 19.35-5.35 4.15 1.7 4-13.05 11.35-7.9-2.7-21.25 8.9-8.95-5.9 5.95-1.6 6.4-5.75-0.25-2.35-0.7-5.4 0.7 5.4-17.8 3.5-4.15 8.4-11.65 1.85-14.95 24-2.7-5.15-31.45 3.9-7.85-7.05-19.1-2.7-10.1 8.25-2.6-3.6-35.2-7.35-3.95-9.55-17.65 1-1.05-5.1-39.05-14.75 0.1-0.25-11.65-15.6-24.45-0.4q-9.45-7.05-18.1-14.7l0.15-6.6h-7.35l-4.95-4.85-5.4-9.6 4-4.6-7.25-1.2-2.95-5.2-1.6-15 5.65-2.75-6.4-4.45-1.65-15.6 6.55-4.7-4.45-4.65 6.35-12.15 8.35 0.45 0.35 0.05-1.45 13.85 29.75 53.85 80.4 51.6 23.55-5.4 27.85 13 30.25-12.8 13.2 2.4 5.2-6.45 29.6-9.85 5.15-27.05 9.15-3.65-2.95-10.25 23.5-21.6-1.15-9.75-5.75-5.1 4.35-6.35-1.2-9.9-0.75-0.85-10.8-5.5 0.75-6.3-8.3-9.7-7.15-1.1 1.9-5-5-5.9-9.7 1.15 1.55-6.95-10.55-11.35-10.4-0.8 3.25-6.8-9.6-10.3-3.5-0.5-6.8 3.55-0.75-4.65-4-0.6 18.1-2.1 0.05 0.15 5.75 11.8 14.25 7.1 1.95 7.25 33.75 32.95 0.8 5.9 10 7.5 3.95 20 15.7 12.15-0.45 12.4 9.5 0.9 1.15 14.55 16.3-1.2m-46.3-19.55-0.9-7.1 0.9 7.1-5.65 14.55 7.7 8.8 2.05 9.55-4.25 6.35 5.55 5.65-5.55-5.65 4.25-6.35-2.05-9.55-7.7-8.8 5.65-14.55m6.75 56.1-1.35-11.2 1.35 11.2-9.4 5.1 5.9 6.5 4.2-5.85-0.7-5.75m2.4 19.9-6-8.1 0.1-0.2-0.1 0.2 6 8.1m-154.75-192.2 6.25 1.65-4.9 2.7-1.35-4.35m68.6 193.55-4.15 2.1 4.45 23.6 8.6 0.5 0.05-0.75-8.95-25.45" fill="#f1d0a5" fill-rule="evenodd"/>
<path d="m234.75 83.9 0.5-1.55 6.3-2.55 16.15 2.35 3.3 3.75 4.25-2.65 14.2 2.1 2.65 4.3 6.5-3 4.65 0.7-0.25 6.2-8.45 5.25-3.5-2.5-4.15 2.9-12.75-1.85-7.7 5.25-3.2-6.8-11.6-1.7 0.25-2.25-4.55-2.6-2.6-5.35m-35.65 6 21.9 3.55-5.65 8.8-0.05 0.1-12.65-2.35-8.9 1.15-4.45-6.75 9.8-4.5m29.65 30.9 24.4 2.85-2.05 13.15-23.9 5.05v9.85l-19.25 6.8-3.85-4.8-21.75 5.3-6.1-11.1-10.3 4.05-5.8-14.7h7.35l7.25-17.5 8.3 1.2 4.3-8.55 14.25 1.45 10.35-6.1 18.05 7.75-1.25 5.3m-49.5-19.2-1.8-1.75 6.5-2.4 1.45 5.05-6.15-0.9m55.35 71-8.5 1.95-3.4-7.05 12.45-4.45-0.55 9.55m-84.1-52.6-9.8-5.65 18.6-6.55 5.7 7.05-14.5 5.15" fill="#fefbf3" fill-rule="evenodd"/>
<path d="m405.65 301.05-1.35 1.15-3.65-0.8-1.65 5.45-16.55 14.4-2.5-0.5-0.35 2.95-10.45 9.15-6.9-0.85-1.45-5.35-6.95 4.35-13.65-1.65-7.9 6.45-2.3-0.85-0.3 3-3.55 2.9-28.6-3.75-1.05-4.15-7.75 2.75-14.65-2.7-4-10.1-9.45 7.25q-12.6-2.85-24.6-6.25l-3.5-4.7-8.95 1-11.3-3.75-1.25-8.15-10 4.05q-13.2-5.05-25.45-10.85l-0.95-2.4-2.55 0.7q-12.75-6.2-24.5-13.25v-6.8l-10.4 0.2q-6.6-4.3-12.8-8.9l24.45 0.4 11.65 15.6-0.1 0.25 39.05 14.75 1.05 5.1 17.65-1 3.95 9.55 35.2 7.35 2.6 3.6 10.1-8.25 19.1 2.7 7.85 7.05 31.45-3.9 2.7 5.15 14.95-24 11.65-1.85 4.15-8.4 17.8-3.5 0.25 2.35-6.4 5.75-5.95 1.6 8.95 5.9 21.25-8.9 7.9 2.7m-29.1-34.7 0.7 5.75-4.2 5.85-5.9-6.5 9.4-5.1m-10.75 40.2 0.4-4.8 1.35-0.4-1.35 0.4-0.4 4.8-6.7 6 6.7-6m-13.8 12.3 1-8.35 6.1 2.05-6.1-2.05-1 8.35-11.8 10.5 11.8-10.5m-59.2-31.25 8.95 25.45-0.05 0.75-8.6-0.5-4.45-23.6 4.15-2.1" fill="#da8061" fill-rule="evenodd"/>
<path d="m332.4 93.05 2.7 2.75 7.7-1.25m13.85 14.35-0.9 2.8 2.95-0.6m18.45 19.75 1.85 8.9 10.55 4.4m11.8 12.65-0.9 5.05 4.8-0.9m4.3 14.65-6.6 7.8 8.05 4.15m3.3 27.55-3.55 4.3 5.15 8.65m2.35 19.4-4.75 6.7 6.55 8.05m2.3 19.35-5.35 4.15 1.7 4m-14.4 12.5-3.65-0.8-1.65 5.45m-16.55 14.4-2.5-0.5-0.35 2.95m-17.35 8.3-1.45-5.35-6.95 4.35m-21.55 4.8-2.3-0.85-0.3 3m-32.15-0.85-1.05-4.15-7.75 2.75m-14.65-2.7-4-10.1-9.45 7.25m-24.6-6.25-3.5-4.7-8.95 1m-11.3-3.75-1.25-8.15-10 4.05m-25.45-10.85-0.95-2.4-2.55 0.7m-24.5-13.25v-6.8l-10.4 0.2m-30.9-23.6 0.15-6.6h-7.35m-10.35-14.45 4-4.6-7.25-1.2m-4.55-20.2 5.65-2.75-6.4-4.45m-1.65-15.6 6.55-4.7-4.45-4.65m6.35-12.15 8.35 0.45-3.6-9.55m7.7-14.8 8.4 0.7-3.95-9.25m18.6-14.2 10.9 3.15 2.95-8.7m22.7-9.15 5.2 3.15 0.7-5.5m17.75-7.1 2.6 1.95 1.65-3.7m43.05-8 3.75 2.95 1-3.5 0.5-1.55m22.45-0.2 3.3 3.75 4.25-2.65m14.2 2.1 2.65 4.3 6.5-3m22.2 3.25 2.45 4.6 4.75-3.55m17.8 46.75-9.7 1.15 1.55-6.95m-10.55-11.35-10.4-0.8 3.25-6.8m-13.1-10.8-6.8 3.55-0.75-4.65m56.75 48.65-7.15-1.1 1.9-5m13.55 15.8-0.75 6.3 10.8 5.5m1.95 10.75-4.35 6.35 5.75 5.1m2.05 16.85-5.65 14.55 7.7 8.8 2.05 9.55-4.25 6.35 5.55 5.65m2.05 16.95-4.2 5.85-0.1 0.2 6 8.1m-5.45 13.5-5.95 1.6-1.35 0.4-0.4 4.8m-6.7 6-6.1-2.05-1 8.35m-128.6-227.4 0.8 2.6 1.35 4.35 4.9-2.7q2.35-1.25 4.7-2.55m29 4.2-7.7 5.25-3.2-6.8" fill="none" stroke="#000" stroke-linecap="round" stroke-linejoin="round" stroke-opacity=".30196" stroke-width=".05"/>
<path d="m342.8 94.55 0.55 0.1 13.3 14.25m2.05 2.2 18.45 19.75m12.4 13.3 11.8 12.65m3.9 4.15 2.9 3.1 1.4 11.55m1.45 11.95 3.3 27.55m1.6 12.95 0.2 1.75 2.15 17.65m1.8 14.75 2.3 19.35m-3.65 8.15-13.05 11.35-1.35 1.15m-5.3 4.65-16.55 14.4m-2.85 2.45-10.45 9.15-6.9-0.85m-8.4-1-13.65-1.65-7.9 6.45m-2.6 2.15-3.55 2.9-28.6-3.75m-8.8-1.4-14.65-2.7m-13.45-2.85q-12.6-2.85-24.6-6.25m-12.45-3.7-11.3-3.75m-11.25-4.1q-13.2-5.05-25.45-10.85m-3.5-1.7q-12.75-6.2-24.5-13.25m-10.4-6.6q-6.6-4.3-12.8-8.9-9.45-7.05-18.1-14.7m-7.2-6.6-4.95-4.85-5.4-9.6m-3.25-5.8-2.95-5.2-1.6-15m-0.75-7.2-1.65-15.6m2.1-9.35 6.35-12.15m4.75-9.1 7.7-14.8m4.45-8.55 4.45-8.5 14.15-5.7m13.85-5.55 22.7-9.15m5.9-2.35 17.75-7.1m4.25-1.75 11.6-4.65 16.95 2.5 14.5-5.85m5.25-2.1 6.3-2.55 16.15 2.35m7.55 1.1 14.2 2.1m9.15 1.3 4.65 0.7 17.55 2.55m7.2 1.05 14.4 2.1m8.4 50.55-5-5.9m-8.15-5.8-10.55-11.35m-7.15-7.6-9.6-10.3-3.5-0.5m-7.55-1.1-4-0.6m69.05 58.95-8.3-9.7m18.35 21.5 0.75 0.85 1.2 9.9m1.4 11.45 1.15 9.75 0.9 7.1m5.4 44.9 1.35 11.2 0.7 5.75m1.7 14.15 0.7 5.4 0.25 2.35-6.4 5.75m-7.7 6.8-6.7 6m-7.1 6.3-11.8 10.5m-105.05-236.2 6.5 0.95m-18.25-2.65-7.9-1.15m68.95 10.05-7.55-1.15-12.75-1.85m-10.9-1.55-11.6-1.7" fill="none" stroke="#000" stroke-linecap="round" stroke-linejoin="round" stroke-opacity=".30196" stroke-width=".05"/>
<path d="m283.1 188.85q-3.45-10.7-14.4-8.3l6.15-7.55q5.9 9.95 14.1 10.7 11.3-1.1 20.05-9.85l2.95 6.65q-8.55 1.4-21 8.45l-0.85 0.9q-6.9 7.7-5.25 17.15l-7.7-0.3q5.9-7.45 5.95-17.85" fill="#da8061" fill-rule="evenodd"/>
<path d="m123.3 251.7q-14.45-2.55-14.45 6.5l-7.85-8q14.2 0.4 17.35-5.2 1.7-8.75-6.95-19.25l9.2 1q-0.6 6.85 4.9 19.3l0.95 1q7.85 8.65 20.2 11.95l-2.45 5.45q-7.8-7.8-20.9-12.75" fill="#da8061" fill-rule="evenodd"/>
<path d="m391.3 290q-2.4-7.9-6.95-5.55l2-5.95q3.4 7.15 7 7.35 4.8-1.4 7.85-8.4l1.9 4.9q-3.6 1.45-8.4 7.35l-0.3 0.7q-2.3 6.15-0.8 13.15l-3.35 0.2q1.9-5.95 1.05-13.75" fill="#da8061" fill-rule="evenodd"/>
<path d="m143.55 188.6q8.75 11.35 20.45 18.8 10.05-3.05 16.4-10.4l1.6 2.65q-7.55 3.05-15.75 12.2-1.55 11.45-0.75 22.85l-3 0.7q1.1-12.3-0.95-25.3-9.2-9.8-21.1-17.8l3.1-3.7" fill="#da8061" fill-rule="evenodd"/>
<path d="m311.95 226.8q13.7-4.05 24.9-12.2 0.8-10.5-3.75-19.05l3.1-0.55q0.05 8.1 5.65 19.1 10.05 5.6 20.95 9l-0.45 3.05q-11.05-5.5-23.85-8.3-12.45 5-24.25 13.15l-2.3-4.2" fill="#da8061" fill-rule="evenodd"/>
</g>
</defs>
</svg>
