<?xml version="1.0" encoding="UTF-8"?>
<svg version="1.1" viewBox="0 0 307.55 185.3" xmlns="http://www.w3.org/2000/svg" xmlns:cc="http://creativecommons.org/ns#" xmlns:dc="http://purl.org/dc/elements/1.1/" xmlns:rdf="http://www.w3.org/1999/02/22-rdf-syntax-ns#" xmlns:xlink="http://www.w3.org/1999/xlink">
<metadata>
<rdf:RDF>
<cc:Work rdf:about="">
<dc:format>image/svg+xml</dc:format>
<dc:type rdf:resource="http://purl.org/dc/dcmitype/StillImage"/>
</cc:Work>
</rdf:RDF>
</metadata>
<g transform="translate(-123.12 -159.28)">
<use transform="translate(123.15,159.2)" width="307.5" height="185.35001" xlink:href="#a"/>
</g>
<defs>
<g id="a" transform="translate(-123.15,-159.2)">
<path d="m372.7 200.55q-22.8 4.25-40.7 11.8-19.55 8.65-35.95 23.65-15.25 14.35-22.25 33.55l14.25-7.45q43.6-19.1 87.05-16.7 40.2 5 55.55 19.5-15.2-5.5-28.3-8.1-30.6-12.6-71.5-2.2-40.95 10.4-70.75 27.25-18.9 8.55-50.8 44.45 6.75-10.8 13.9-18.8l-1.65 0.7 15.35-21.15q-19.7 18.85-46.8 23.2-31.95 8.05-60.55 2.85l-2.7-1 22.4-8.6q20.65 1.05 35.65-8.85-13.3 5.55-28.35 2.8-21.25-6.05-30-14.85-2.1-3.2-3.4-6.6 10.8 10.1 25 10.15 32.45-0.2 48.8-29.3 19.35-34.4-2.45-64.2-22.75-27.15-66.7-33.35l18.55 0.6h0.3l23.1 8q19.35 9.45 30.75 23.65 16.7 27.75 12.3 46.8-9.85 31.65-31.7 49.65l28.55-14.35q24.15-13.85 30.2-43.95 9.4-31.75 0-66.7 3.8 6.4 6.7 13.05 5.7 25.3 4.1 45.3-3 35.2-24.6 58.6l12.9-9.5q27-30.2 57.55-48.9 29.8-18.25 76.2-21" fill="#f90" fill-rule="evenodd"/>
<path d="m372.7 200.55 15.35-0.5q-86.5 17.65-100 62.05l-14.25 7.45q7-19.2 22.25-33.55 16.4-15 35.95-23.65 17.9-7.55 40.7-11.8m29.65 56.25q-16.15-3.25-29.1-2.1-51.4 4.95-102.8 33.35-37.3 21.5-71.3 56.5 4.95-9.9 10.1-18.2l0.05-0.05q31.9-35.9 50.8-44.45 29.8-16.85 70.75-27.25 40.9-10.4 71.5 2.2m-180.8 51.4q-48.95 20.1-92 4.9 28.6 5.2 60.55-2.85 27.1-4.35 46.8-23.2l-15.35 21.15m-72.3-4.7 1.7-0.65q-17.1-9.15-24.4-20.25 8.75 8.8 30 14.85 15.05 2.75 28.35-2.8-15 9.9-35.65 8.85m-2.6-143.6q33.8 3.5 59.95 31.7 26.15 28.1 12.9 52.3-13.3 24.1-9.85 29.75l-28.55 14.35q21.85-18 31.7-49.65 4.4-19.05-12.3-46.8-11.4-14.2-30.75-23.65l-23.1-8m99.9 16.15q10.95 25.3 8.15 54.55-3.6 24.85-15.75 39.85l-12.9 9.5q21.6-23.4 24.6-58.6 1.6-20-4.1-45.3" fill="#e06001" fill-rule="evenodd"/>
<path d="m288.05 262.1q13.5-44.4 100-62.05l-15.35 0.5m-84.65 61.55q43.6-19.1 87.05-16.7 40.2 5 55.55 19.5-15.2-5.5-28.3-8.1-16.15-3.25-29.1-2.1-51.4 4.95-102.8 33.35-37.3 21.5-71.3 56.5 4.95-9.9 10.1-18.2m0.05-0.05q6.75-10.8 13.9-18.8l-1.65 0.7q-48.95 20.1-92 4.9l-2.7-1 22.4-8.6 1.7-0.65q-17.1-9.15-24.4-20.25-2.1-3.2-3.4-6.6 10.8 10.1 25 10.15m48.8-29.3q19.35-34.4-2.45-64.2-22.75-27.15-66.7-33.35l18.55 0.6m0.3 0q33.8 3.5 59.95 31.7 26.15 28.1 12.9 52.3-13.3 24.1-9.85 29.75 24.15-13.85 30.2-43.95 9.4-31.75 0-66.7 3.8 6.4 6.7 13.05 10.95 25.3 8.15 54.55-3.6 24.85-15.75 39.85 27-30.2 57.55-48.9 29.8-18.25 76.2-21" fill="none" stroke="#900" stroke-linecap="round" stroke-linejoin="round" stroke-opacity=".4" stroke-width=".05"/>
<path d="m148.15 286.15q32.45-0.2 48.8-29.3" fill="none" stroke="#900" stroke-linecap="round" stroke-linejoin="round" stroke-opacity=".4" stroke-width=".05"/>
</g>
</defs>
</svg>
