<?xml version="1.0" encoding="UTF-8"?>
<svg version="1.1" viewBox="0 0 144.52 116.2" xmlns="http://www.w3.org/2000/svg" xmlns:cc="http://creativecommons.org/ns#" xmlns:dc="http://purl.org/dc/elements/1.1/" xmlns:rdf="http://www.w3.org/1999/02/22-rdf-syntax-ns#" xmlns:xlink="http://www.w3.org/1999/xlink">
<metadata>
<rdf:RDF>
<cc:Work rdf:about="">
<dc:format>image/svg+xml</dc:format>
<dc:type rdf:resource="http://purl.org/dc/dcmitype/StillImage"/>
</cc:Work>
</rdf:RDF>
</metadata>
<g transform="translate(-162.42 -130.52)">
<use transform="translate(162.45,130.55)" width="144.45" height="116.15" xlink:href="#a"/>
</g>
<defs>
<g id="a" transform="translate(-162.45,-130.55)">
<path d="m211.55 144.65q-0.55-1.55-0.05-3.35 0.5-1.85 1.7-2.85 1.15-1.1 2.4-0.75 1.2 0.3 1.7 1.85 0.5 1.45 0 3.3-0.5 1.8-1.65 2.9-1.2 1-2.4 0.7-1.2-0.35-1.7-1.8m-35.55 49.35q-1.75-0.05-3.2-1.2-4.75-3.85-0.8-8.35 0.6-0.75 1.4-0.85 5.95 0.1 6.5 6.3 0.4 4.25-3.9 4.1m22.35-5.95q4 1.7 1.7 5.6l-0.45 0.3q-1.35 0.25-2.45-0.4-1.9-2.2-0.7-4.55-0.85-0.15-1.9-0.85l-0.95-0.65-0.3-0.25-0.1-0.3q-0.05-0.25 0.05-0.45l0.3-0.45 0.2-0.1 0.45-0.1v-0.05q2.1 0.1 3.75 1.4l0.2 0.15 0.1 0.15 0.15 0.45-0.05 0.1m53.2-25.3q0.8-3.15 3.85-3.95 5.45-0.1 5.85 4.9 0.2 2.8-2.4 3.65l-0.95 0.3q-0.65 1.8-2.65 3.35-0.6 0.45-0.5 1.25l0.05 2.1q0.55 0.6 0.3 1.35l-0.25 0.45q-2.3 0.1-3.1-2.45-1.45-4.5-0.15-8.7-0.35-1-0.05-2.25m48.55 52.7v1.55l-0.7 1.45q-0.5 0.45-1 0.3t-0.7-0.85q-0.2-0.75 0-1.65t0.7-1.35q0.45-0.55 0.95-0.4t0.75 0.95m-85.65-7.8 0.2 0.3 0.15 0.45-0.05 0.3-0.3 0.45q-0.95 0.6-1.55-0.3l-0.05-0.75 0.3-0.45 0.65-0.2v-0.05l0.4 0.1 0.25 0.15" fill="#fff" fill-rule="evenodd"/>
<path d="m211.55 144.65q0.5 1.45 1.7 1.8 1.2 0.3 2.4-0.7 1.15-1.1 1.65-2.9 0.5-1.85 0-3.3-0.5-1.55-1.7-1.85-1.25-0.35-2.4 0.75-1.2 1-1.7 2.85-0.5 1.8 0.05 3.35m-25 21.75q-1.75 1.5-3.45 1.05-1.75-0.5-2.5-2.65-0.75-2.25-0.05-4.85t2.45-4.1q1.75-1.6 3.5-1.1 1.7 0.45 2.45 2.7 0.7 2.1 0.05 4.75-0.75 2.65-2.45 4.2m19.15-32.5q3.95-3.6 7.95-2.5 4 1.05 5.75 6.2 1.65 4.95 0 11l-1 3.1q-1.7 3.95-4.55 6.55l-1.05 0.85q-1.15 0.8-2.35 1.25l-2.35 0.55q4.4 39.35 73.1 55.25l12.25 2.95q0.75-5.25 2.8-7.55 2.05-2.25 3.75-2.15t4.4 4.3q2.7 4.15 1.6 8.55-1.2 4.4-5.2 6.55-4.1 2.1-5.05 0.3t-1.35-2.05l-13.2-3.7q-79.9-21.35-81.9-73.5-0.15-3.1 0.75-6.4 1.6-6.05 5.65-9.55m-38.4 44.85q2.95-1.7 6.3-0.75 6.35 1.65 10.65 6.45 2.6 2.85 3.4 6.75l1 3.6 0.2 0.5q0.4 0.7 1.15 1.1 2.25 0.95 3.4-0.9 1.2-2.05 0-4.2-2.5-0.55-4.55-2.2-0.7-0.55-0.9-1.65-0.45-2.05 1.15-3.25 0.3-0.25 0.75-0.35 7.75-0.75 13.25 4.6 3.2 3.1 5.4 6.95 1.6 2.7 5.45 7.3l1.65 1.4 1.2 1.7q0.6 1.05 0.4 2.65-0.2 1.7-1.45 2.7-1.55 1.3-3.85 0.85-8.2-0.45-13.5-6.7l-0.85-0.1q-1.6 1.6-3.95 1.9l-11.5 0.2q-2.9 0-5.4-1.55-3.9-2.3-7.55-5.25-5.95-4.8-6.1-12.5-0.1-4.4 2.5-7.7 0.7-0.9 1.75-1.55m8.7 15.25q4.3 0.15 3.9-4.1-0.55-6.2-6.5-6.3-0.8 0.1-1.4 0.85-3.95 4.5 0.8 8.35 1.45 1.15 3.2 1.2m13 5.6q0.3-0.4 0.15-1.2l-0.1-1-0.2-2.1 0.2 2.1 0.1 1q0.15 0.8-0.15 1.2m9.35-11.55 0.05-0.1-0.15-0.45-0.1-0.15-0.2-0.15q-1.65-1.3-3.75-1.4v0.05l-0.45 0.1-0.2 0.1-0.3 0.45q-0.1 0.2-0.05 0.45l0.1 0.3 0.3 0.25 0.95 0.65q1.05 0.7 1.9 0.85-1.2 2.35 0.7 4.55 1.1 0.65 2.45 0.4l0.45-0.3q2.3-3.9-1.7-5.6m67.45-23.25q0.3 2.85-1.8 4.8-2 1.9-4.8 1.65-4.2 10.5 6.2 16 8.45 4.45 7.95 13.65l-1.4 1.25q0.35-4.45-3.9-6.4l-3.85-1.65q-8.8-3.4-15.45-10.2t-7.25-16.3q-0.4-5.9 2.55-11 3.9-6.7 11.8-4.8 9.95 2.3 9.95 13m-33.15 6.3q1.85 0.3 3.15 1.85 1.25 1.4 1.25 3.2-0.05 1.75-1.35 2.8-1.4 1-3.2 0.7-1.9-0.3-3.15-1.75-1.35-1.5-1.3-3.25 0.05-1.8 1.4-2.8 1.3-1.05 3.2-0.75m18.9-8.35q-0.3 1.25 0.05 2.25-1.3 4.2 0.15 8.7 0.8 2.55 3.1 2.45l0.25-0.45q0.25-0.75-0.3-1.35l-0.05-2.1q-0.1-0.8 0.5-1.25 2-1.55 2.65-3.35l0.95-0.3q2.6-0.85 2.4-3.65-0.4-5-5.85-4.9-3.05 0.8-3.85 3.95m48.55 52.7q-0.25-0.8-0.75-0.95t-0.95 0.4q-0.5 0.45-0.7 1.35t0 1.65q0.2 0.7 0.7 0.85t1-0.3l0.7-1.45v-1.55m-29.5 27.9q-0.75-2.25-0.05-4.85t2.45-4.1q1.75-1.6 3.5-1.1 1.7 0.45 2.45 2.7 0.7 2.1 0.05 4.75-0.75 2.65-2.45 4.2-1.75 1.5-3.45 1.05-1.75-0.5-2.5-2.65m-56.15-35.7-0.25-0.15-0.4-0.1v0.05l-0.65 0.2-0.3 0.45 0.05 0.75q0.6 0.9 1.55 0.3l0.3-0.45 0.05-0.3-0.15-0.45-0.2-0.3m-0.5-4.95q-2.15-1.15-4.9 0.2l0.15 3.1-0.15-3.1q2.75-1.35 4.9-0.2" fill="#e9edf1" fill-rule="evenodd"/>
<path d="m205.7 133.9q-4.05 3.5-5.65 9.55-0.9 3.3-0.75 6.4 2 52.15 81.9 73.5l13.2 3.7q0.4 0.25 1.35 2.05t5.05-0.3q4-2.15 5.2-6.55 1.1-4.4-1.6-8.55-2.7-4.2-4.4-4.3t-3.75 2.15q-2.05 2.3-2.8 7.55l-12.25-2.95q-68.7-15.9-73.1-55.25l2.35-0.55q1.2-0.45 2.35-1.25l1.05-0.85q2.85-2.6 4.55-6.55l1-3.1q1.65-6.05 0-11-1.75-5.15-5.75-6.2-4-1.1-7.95 2.5m-19.15 32.5q1.7-1.55 2.45-4.2 0.65-2.65-0.05-4.75-0.75-2.25-2.45-2.7-1.75-0.5-3.5 1.1-1.75 1.5-2.45 4.1t0.05 4.85q0.75 2.15 2.5 2.65 1.7 0.45 3.45-1.05m-19.25 12.35q2.95-1.7 6.3-0.75 6.35 1.65 10.65 6.45 2.6 2.85 3.4 6.75l1 3.6 0.2 0.5q0.4 0.7 1.15 1.1 2.25 0.95 3.4-0.9 1.2-2.05 0-4.2-2.5-0.55-4.55-2.2-0.7-0.55-0.9-1.65-0.45-2.05 1.15-3.25 0.3-0.25 0.75-0.35 7.75-0.75 13.25 4.6 3.2 3.1 5.4 6.95 1.6 2.7 5.45 7.3l1.65 1.4 1.2 1.7q0.6 1.05 0.4 2.65-0.2 1.7-1.45 2.7-1.55 1.3-3.85 0.85-8.2-0.45-13.5-6.7l-0.85-0.1q-1.6 1.6-3.95 1.9l-11.5 0.2q-2.9 0-5.4-1.55-3.9-2.3-7.55-5.25-5.95-4.8-6.1-12.5-0.1-4.4 2.5-7.7 0.7-0.9 1.75-1.55m21.55 16.55 0.2 2.1 0.1 1q0.15 0.8-0.15 1.2m43.65-28.5q-1.9-0.3-3.2 0.75-1.35 1-1.4 2.8-0.05 1.75 1.3 3.25 1.25 1.45 3.15 1.75 1.8 0.3 3.2-0.7 1.3-1.05 1.35-2.8 0-1.8-1.25-3.2-1.3-1.55-3.15-1.85m33.15-6.3q0-10.7-9.95-13-7.9-1.9-11.8 4.8-2.95 5.1-2.55 11 0.6 9.5 7.25 16.3t15.45 10.2l3.85 1.65q4.25 1.95 3.9 6.4l1.4-1.25q0.5-9.2-7.95-13.65-10.4-5.5-6.2-16 2.8 0.25 4.8-1.65 2.1-1.95 1.8-4.8m4.8 78.55q0.75 2.15 2.5 2.65 1.7 0.45 3.45-1.05 1.7-1.55 2.45-4.2 0.65-2.65-0.05-4.75-0.75-2.25-2.45-2.7-1.75-0.5-3.5 1.1-1.75 1.5-2.45 4.1t0.05 4.85m-61.4-37.35-0.15-3.1q2.75-1.35 4.9-0.2" fill="none" stroke="#3c6286" stroke-linecap="round" stroke-linejoin="round" stroke-opacity=".6" stroke-width="1.25"/>
</g>
</defs>
</svg>
