<?xml version="1.0" encoding="UTF-8"?>
<svg version="1.1" viewBox="0 0 36.123 35.047" xmlns="http://www.w3.org/2000/svg" xmlns:cc="http://creativecommons.org/ns#" xmlns:dc="http://purl.org/dc/elements/1.1/" xmlns:rdf="http://www.w3.org/1999/02/22-rdf-syntax-ns#" xmlns:xlink="http://www.w3.org/1999/xlink">
<metadata>
<rdf:RDF>
<cc:Work rdf:about="">
<dc:format>image/svg+xml</dc:format>
<dc:type rdf:resource="http://purl.org/dc/dcmitype/StillImage"/>
</cc:Work>
</rdf:RDF>
</metadata>
<g transform="translate(-307.6 -220.8)">
<use transform="translate(307.6,220.8)" width="36.099998" height="35.049999" xlink:href="#a"/>
</g>
<defs>
<g id="a" transform="translate(-307.6,-220.8)">
<path d="m333 231.95 0.4-0.3q1.35-1.1 3.1-1.55-1.75 0.45-3.1 1.55l-0.4 0.3-1.1-0.35q-4.35-1.35-6.35-4.7l-2.75 0.15-1.3 1.15-0.85 0.85-0.5 0.55-0.05 0.05-0.65 0.8-1 1.35-0.9 1.45q-0.85 1.6-1.3 3.25-0.4 1.75-0.4 3.4v0.15q-0.05 1.35 0.25 2.65 1.95 0.5 3.45 1.85 1.05 0.95 1.65 2.05l2.05 1.25q1.65 0.9 2.8 1.15l1.6-0.15-0.15-0.85 0.05-0.55q0.2-0.8 0.95-1.5l0.8-0.6 0.2-0.1 0.5-0.3 0.3-0.1 1.45-0.45-0.4-1q-0.45-1.6 0.45-3.2l0.45-0.65-0.5-0.75q-2-3.75 1.25-6.85m3.75 5.15q-2 0.25-3.5 1.45l-1 1 1-1q1.5-1.2 3.5-1.45m-2.25 9.85-1.25-0.85-0.5-0.35-1-1.35 1 1.35 0.5 0.35 1.25 0.85m-5.2 3.7q-1.3-0.8-1.65-1.8 0.35 1 1.65 1.8m13.5-12.85q-0.15 6-4.5 8.6l-0.55 2.6q1.8 5.1-4.6 5.25-3.2 1.45-4.35-1-1.55 4.05-6.45 1.1-10.4 0.2-12.2-10.1-4.4-2.65-0.4-6.15 0.95-6.5 5.45-5.45-4.1-5.35 2.15-7.9 3.25-6.1 10.6-2.15 8.95-1.2 11.3 6.35 5.9 3.45 3.55 8.85m-20.8 12.05-0.3-2-0.5-1.25 0.5 1.25 0.3 2m-7.8-7.4 1.9 0.25-1.9-0.25" fill="#f5eed3" fill-rule="evenodd"/>
<path d="m315.85 240.05q4.6 4.8 11.7 7.4l-0.05 0.55 0.15 0.85-1.6 0.15q-1.15-0.25-2.8-1.15l-2.05-1.25q-0.6-1.1-1.65-2.05-1.5-1.35-3.45-1.85-0.3-1.3-0.25-2.65" fill="#d1ad72" fill-rule="evenodd"/>
<path d="m321.5 228.2 0.35 0.4q3.85 4.25 7.4 4.8-0.9 1.95-0.75 4.85 0.1 2.85 1.8 6.6l-0.3 0.1-0.5 0.3-3.6-3.55q-2.65-3.05-3.85-6.25-1.1-2.9-1.1-5.9l-0.3-0.5 0.85-0.85" fill="#eedfb5" fill-rule="evenodd"/>
<path d="m333 231.95q-3.25 3.1-1.25 6.85l0.5 0.75-0.45 0.65q-0.9 1.6-0.45 3.2l0.4 1-1.45 0.45q-1.7-3.75-1.8-6.6-0.15-2.9 0.75-4.85-3.55-0.55-7.4-4.8l-0.35-0.4 1.3-1.15 2.75-0.15q2 3.35 6.35 4.7l1.1 0.35" fill="#c4964a" fill-rule="evenodd"/>
<path d="m325.9 241.7-1.1 1.15q0.45-0.9-0.65-1.3l-0.65-0.25q-1.75 0.6-0.8 2-1.05-0.45-2-2.15-0.8-1.45 0.2-3.65 0.4-1 1.15-2.05 1.2 3.2 3.85 6.25" fill-rule="evenodd"/>
<path d="m329.5 245.25-0.2 0.1-0.8 0.6q-0.75 0.7-0.95 1.5-7.1-2.6-11.7-7.4v-0.15q0-1.65 0.4-3.4 0.45-1.65 1.3-3.25l0.9-1.45 1-1.35 0.65-0.8 0.05-0.05 0.5-0.55 0.3 0.5q0 3 1.1 5.9-0.75 1.05-1.15 2.05-1 2.2-0.2 3.65 0.95 1.7 2 2.15-0.95-1.4 0.8-2l0.65 0.25q1.1 0.4 0.65 1.3l1.1-1.15 3.6 3.55" fill="#fff" fill-rule="evenodd"/>
<path d="m336.5 230.1q-1.75 0.45-3.1 1.55l-0.4 0.3q-3.25 3.1-1.25 6.85l0.5 0.75 1-1q1.5-1.2 3.5-1.45m-3.75-5.15-1.1-0.35q-4.35-1.35-6.35-4.7m-2.75 0.15-1.3 1.15-0.85 0.85-0.5 0.55-0.05 0.05-0.65 0.8-1 1.35-0.9 1.45q-0.85 1.6-1.3 3.25-0.4 1.75-0.4 3.4v0.15q4.6 4.8 11.7 7.4l-0.05 0.55 0.15 0.85q0.35 1 1.65 1.8m1-5.8 1.45-0.45-0.4-1q-0.45-1.6 0.45-3.2l0.45-0.65m-4.7 7.9q0.2-0.8 0.95-1.5l0.8-0.6 0.2-0.1-3.6-3.55-1.1 1.15m-2.1 0.45q-1.05-0.45-2-2.15-0.8-1.45 0.2-3.65 0.4-1 1.15-2.05-1.1-2.9-1.1-5.9l-0.3-0.5m11.1 15.35 1 1.35 0.5 0.35 1.25 0.85m-5-1.7 0.5-0.3 0.3-0.1m12.5-7.05q2.35-5.4-3.55-8.85-2.35-7.55-11.3-6.35-7.35-3.95-10.6 2.15-6.25 2.55-2.15 7.9-4.5-1.05-5.45 5.45-4 3.5 0.4 6.15 1.8 10.3 12.2 10.1 4.9 2.95 6.45-1.1 1.15 2.45 4.35 1 6.4-0.15 4.6-5.25l0.55-2.6q4.35-2.6 4.5-8.6m-26.95 2.25q-0.05 1.35 0.25 2.65 1.95 0.5 3.45 1.85 1.05 0.95 1.65 2.05l2.05 1.25q1.65 0.9 2.8 1.15l1.6-0.15m-11.55-6.15-1.9-0.25m7 4.15 0.5 1.25 0.3 2m0.05-14.4q1.2 3.2 3.85 6.25" fill="none" stroke="#423213" stroke-linecap="round" stroke-linejoin="round" stroke-opacity=".50196" stroke-width=".5"/>
</g>
</defs>
</svg>
