<?xml version="1.0" encoding="UTF-8"?>
<svg version="1.1" viewBox="0 0 88.785 73.915" xmlns="http://www.w3.org/2000/svg" xmlns:cc="http://creativecommons.org/ns#" xmlns:dc="http://purl.org/dc/elements/1.1/" xmlns:rdf="http://www.w3.org/1999/02/22-rdf-syntax-ns#" xmlns:xlink="http://www.w3.org/1999/xlink">
<metadata>
<rdf:RDF>
<cc:Work rdf:about="">
<dc:format>image/svg+xml</dc:format>
<dc:type rdf:resource="http://purl.org/dc/dcmitype/StillImage"/>
</cc:Work>
</rdf:RDF>
</metadata>
<g transform="translate(-253.18 -193.12)">
<use transform="translate(253.2,193.15)" width="88.75" height="73.849998" xlink:href="#a"/>
</g>
<defs>
<g id="a" transform="translate(-58.35,-24.2)">
<path d="m67.6 37.1-0.2-0.2v-1.1l0.25-0.25q2.5-1.9 5.5-3.7l7.5-4.9q2.2-1.5 4.45-2.15l1.7-0.35 0.9-0.25 3.5 0.4 0.7 0.2 0.9 0.2 1.15 0.25 3.2 0.55q6.35 0.4 12.4 2.25l2.85 0.9 8 2.15-1.7 1.95-0.85 1.15-3.55 3.6-0.95 1-1.15 1.3-3.1 2.55-3.25 2.7-1.1 0.8q-1.15 0.6-2.4 0.5l-15.2-1.55-10.4-1.9-0.6-0.3-1.05-0.85-1.5-1-1.7-1q-2.5-1.3-4.3-2.95" fill="#fffdea" fill-rule="evenodd"/>
<path d="m120.4 31.1q0.15 4.3 1.05 8.45 0.5 2.45 0.55 5.15 0.05 2.3 0.65 4.45l0.2 1.15v2.9l-0.15 0.65q-0.35 1.75-1.35 3.35l-0.4 0.65-0.2 0.25q-2.8 2.45-7.15 2.6h-0.4q-1.55-0.4-3.25-1.6l-0.4-1.2-1.55-0.8-0.1-0.35-0.25-0.6-0.55-1.95-2.35-8.05 1.1-0.8 3.25-2.7 3.1-2.55 1.15-1.3 0.95-1 3.55-3.6 0.85-1.15 1.7-1.95m-1 29.55-0.05 0.6-0.4 1.35-2 5.6q-1.95 4.9-1.95 6.7v0.2l-0.15 0.6h0.05l-0.25 3.75-3.75 1.6-1.25-0.4v-0.8l-0.05-0.05 0.05-1.25-0.3-0.4-0.5-1.85 0.5 0.8-0.1-0.35 0.05-0.05 0.1-0.25-0.05 0.4q0.2 0.2 0.35-0.15 0.45 0.6 0.9 0.35l0.2-7.15q1.95-2 2.8-4l1.15-0.8 0.25-0.7 1-0.4 0.4-0.1 0.2-0.15 1.8-1.85 0.85-1.05 0.15-0.2m-10.25 15.8-0.8-3.1-0.05-0.85q-0.05-1.6-0.75-3l-0.1-0.25 1.35 0.25v4.8l0.45 2.35-0.1-0.2m-6.45-8.8-0.55-0.15 0.15-0.05 0.4 0.2" fill="#bca887" fill-rule="evenodd"/>
<path d="m123.35 56.05 0.35 1-2.05 2.2-2.7 3.35 0.4-1.35 0.05-0.6 1.8-1.95 0.75-1.6 1.25-0.4 0.15-0.65m4.25 9.5 0.65 0.65q-0.15 1.05 0.4 1.9l0.8 1.2-0.15 1.65-3.3 1.1-0.6 0.25h-1.85l0.4-0.4q2.2-2.9 3.65-6.35m-58.45 18.55-0.05-0.05q-2.5-0.7-4.35-2.15 0-0.4 0.15-0.5 1.5-0.8 3.05-1.05 1.3-0.3 1.25-1.65l-0.15-0.45q-3.4-1.05-7.1-1.45-2.55-0.3-3.6-2.1 0.25-0.55 1.3-1.05l0.25-0.1 0.05 0.15 1.25 0.75 1.15 0.65q6-0.85 10.2 2.4v2.2q-0.85 1.3-2.2 2.1-0.9 0.4-1.2 1.3v1m47.1 6.4q1.45 0.5 1.9 1.05-0.3 1.05-1.55 1.5l-0.6 0.15-0.1-0.1q-2.25-1.65-6.15-2.2 2.75-0.95 5.25-0.7l0.5 0.05 0.75 0.25m20.3-12.75q-2.3-1.45-5.75-2.15 4.25-0.7 8.15 0.2 2.65 0.5 4.35 1.6l0.05 0.05q0.35 1-0.6 2.05l-0.3 0.25q-1.9 1.45-4 1.2 0.1-1.45-1.5-2.85l-0.4-0.35" fill="#f30" fill-rule="evenodd"/>
<path d="m122.7 53.85 0.4 1.4-2.15 2.65-0.2 0.2 0.2-0.25 0.4-0.65q1-1.6 1.35-3.35m-53 2.6-0.9-1.35q-0.6-0.9-0.6-2l-0.1-1.2-0.7-14.8h0.2q1.8 1.65 4.3 2.95l1.7 1 1.5 1 1.05 0.85 0.6 0.3 10.4 1.9 15.2 1.55q1.25 0.1 2.4-0.5l2.35 8.05-0.35-0.3-2.8-0.4-0.2 1.45-1.8 0.15q-2.55 4.3-2.5 7.35-4.8 1.5-9.9 1.45l-4.8-4-0.75 0.05q-1.3 0.3-0.8 1.55l-4.4-4-2 3.2h-2.8l-4.3-4.25" fill="#d9cebf" fill-rule="evenodd"/>
<path d="m123.1 55.25 0.25 0.8-0.15 0.65-1.25 0.4-0.75 1.6-1.8 1.95-0.15 0.2-0.85 1.05-1.8 1.85-0.2 0.15-0.4 0.1-1 0.4-0.25 0.7-1.15 0.8q-0.85 2-2.8 4l-0.2 7.15q-0.45 0.25-0.9-0.35-0.15 0.35-0.35 0.15l0.05-0.4-0.1 0.25-0.05-0.05-0.45-2.35v-4.8l-1.35-0.25 0.1 0.25q0.7 1.4 0.75 3l0.05 0.85 0.8 3.1 0.1 0.3 0.1 0.35-0.5-0.8 0.5 1.85 0.3 0.4-0.05 1.25v0.9l-0.35 0.05-0.8 0.5q-0.8 1.1-1.3 2.25l-2.8-3.2-1.55-5.2-3.25-2.8-1.15 1.6-6.8-4.8-8.4-0.8-1.25 0.4-2-0.4q-0.35 0.95-1.65 1.25-0.5 0.05-0.7 0.4l-2.25 0.45-0.05-0.05v-0.45q0.3-3.5-1.4-6.35l-0.1-0.25-0.5-1.1-1.3-2.75-0.95-1.2-1.15-1.55-0.2-0.25 4.3 4.25h2.8l2-3.2 4.4 4q-0.5-1.25 0.8-1.55l0.75-0.05 4.8 4q5.1 0.05 9.9-1.45-0.05-3.05 2.5-7.35l1.8-0.15 0.2-1.45 2.8 0.4 0.35 0.3 0.55 1.95 0.25 0.6 0.1 0.35 1.55 0.8 0.4 1.2q1.7 1.2 3.25 1.6h0.4q4.35-0.15 7.15-2.6l0.2-0.2 2.15-2.65m-20.4 12.4-0.4-0.2-0.15 0.05 0.55 0.15" fill="#544630" fill-rule="evenodd"/>
<path d="m123.7 57.05 0.85 2 0.5 0.9 0.4 0.7h0.05l0.35-0.15 0.9-0.25v4.45l0.85 0.85q-1.45 3.45-3.65 6.35l-0.4 0.4h1.85l0.6-0.25 3.3-1.1 0.1-1.1q6.95-1.15 11.1 0.9 1.55 1.55-4.15 3.85 9.05 0.1 10.5 1.95 1.1 1.5-2.95 4.45-4.2 3.05-9.15 4-2.7 0.55-4.3-0.65-0.8-0.55-2.4-2.9-2.25-1.15-4.45 3.4-7.45 4.25-14.1 2.05v0.25l-1.05 0.2-0.9 0.05-15.2 1.3-2.1 0.05-4.55-0.6q-2.6-0.7-5.15-1.6l-2.4-0.25h-0.25l-3.8-0.35-3.2-1.35-1.75-0.5v-1q0.3-0.9 1.2-1.3 1.35-0.8 2.2-2.1v-2.2q-4.2-3.25-10.2-2.4l-1.15-0.65-1.25-0.75-0.05-0.15 1.2-0.5q3.9-1.4 8.05-1.95l2.8-0.3 3.35-0.4v-0.05l0.05 0.05 2.25-0.45q0.2-0.35 0.7-0.4 1.3-0.3 1.65-1.25l2 0.4 1.25-0.4 8.4 0.8 6.8 4.8 1.15-1.6 3.25 2.8 1.55 5.2 2.8 3.2q0.5-1.15 1.3-2.25l0.8-0.5 0.35-0.05v-0.9l0.05 0.05v0.8l1.25 0.4 3.75-1.6 0.25-3.75h-0.05l0.15-0.6v-0.2q0-1.8 1.95-6.7l2-5.6 2.7-3.35 2.05-2.2m-14.45 19.6 0.05 0.05-0.05 0.05-0.1-0.3 0.1 0.2m-6.1 18.2q-0.45-2.35 3.3-4.45 4.15-1.75 11.8-0.65 3.75 0.75 2.85 3.15-0.55 1.5-3.25 3.05-2.8 1.65-5.65 1.85-2.55 0.7-5.7-0.45-3.05-1.1-3.35-2.5m33.4-17.1 0.4 0.35q1.6 1.4 1.5 2.85 2.1 0.25 4-1.2l0.3-0.25q0.95-1.05 0.6-2.05l-0.05-0.05q-1.7-1.1-4.35-1.6-3.9-0.9-8.15-0.2 3.45 0.7 5.75 2.15m-20.3 12.75-0.75-0.25-0.5-0.05q-2.5-0.25-5.25 0.7 3.9 0.55 6.15 2.2l0.1 0.1 0.6-0.15q1.25-0.45 1.55-1.5-0.45-0.55-1.9-1.05m-38.1-4.2-0.1-0.05 0.1 0.05" fill="#e02c00" fill-rule="evenodd"/>
<path d="m120.4 31.1q0.15 4.3 1.05 8.45 0.5 2.45 0.55 5.15 0.05 2.3 0.65 4.45l0.2 1.15v2.9l-0.15 0.65 0.4 1.4 0.25 0.8 0.35 1 0.85 2 0.5 0.9 0.4 0.7h0.05l0.35-0.15 0.9-0.25v4.45l1.5 1.5m-50.1 20.1h-0.25l-3.8-0.35-3.2-1.35-1.75-0.5-0.05-0.05q-2.5-0.7-4.35-2.15 0-0.4 0.15-0.5 1.5-0.8 3.05-1.05 1.3-0.3 1.25-1.65l-0.15-0.45q-3.4-1.05-7.1-1.45-2.55-0.3-3.6-2.1 0.25-0.55 1.3-1.05l0.25-0.1 1.2-0.5q3.9-1.4 8.05-1.95l2.8-0.3 3.35-0.4v-0.5q0.3-3.5-1.4-6.35l-0.1-0.25-0.5-1.1-1.3-2.75-0.95-1.2-1.15-1.55-0.2-0.25-0.9-1.35q-0.6-0.9-0.6-2l-0.1-1.2-0.7-14.8h0.2l-0.2-0.2v-1.1l0.25-0.25q2.5-1.9 5.5-3.7l7.5-4.9q2.2-1.5 4.45-2.15l1.7-0.35 0.9-0.25 3.5 0.4 0.7 0.2 0.9 0.2 1.15 0.25 3.2 0.55q6.35 0.4 12.4 2.25l2.85 0.9 8 2.15" fill="none" stroke="#000" stroke-linecap="round" stroke-linejoin="round" stroke-opacity=".41176" stroke-width=".05"/>
<path d="m129.4 69.85q6.95-1.15 11.1 0.9 1.55 1.55-4.15 3.85 9.05 0.1 10.5 1.95 1.1 1.5-2.95 4.45-4.2 3.05-9.15 4-2.7 0.55-4.3-0.65-0.8-0.55-2.4-2.9-2.25-1.15-4.45 3.4-7.45 4.25-14.1 2.05v0.25l-1.05 0.2-0.9 0.05-15.2 1.3-2.1 0.05-4.55-0.6q-2.6-0.7-5.15-1.6l-2.4-0.25m25 8.55q-0.45-2.35 3.3-4.45 4.15-1.75 11.8-0.65 3.75 0.75 2.85 3.15-0.55 1.5-3.25 3.05-2.8 1.65-5.65 1.85-2.55 0.7-5.7-0.45-3.05-1.1-3.35-2.5m-25.1-8.6 0.1 0.05" fill="none" stroke="#000" stroke-linecap="round" stroke-linejoin="round" stroke-opacity=".41176" stroke-width=".05"/>
</g>
</defs>
</svg>
