<?xml version="1.0" encoding="UTF-8"?>
<svg version="1.1" viewBox="0 0 426.25 359.47" xmlns="http://www.w3.org/2000/svg" xmlns:cc="http://creativecommons.org/ns#" xmlns:dc="http://purl.org/dc/elements/1.1/" xmlns:rdf="http://www.w3.org/1999/02/22-rdf-syntax-ns#" xmlns:xlink="http://www.w3.org/1999/xlink">
<metadata>
<rdf:RDF>
<cc:Work rdf:about="">
<dc:format>image/svg+xml</dc:format>
<dc:type rdf:resource="http://purl.org/dc/dcmitype/StillImage"/>
</cc:Work>
</rdf:RDF>
</metadata>
<g transform="translate(-43.4,-17.75)">
<use transform="translate(43.4,17.75)" width="426.25" height="359.45001" xlink:href="#a"/>
</g>
<defs>
<g id="a" transform="translate(-43.4,-17.75)">
<path d="m318.2 133.65 13.75 0.4 25.7-0.9q24.6-2.35 46.9-10.4 27.95-10.05 52.2-29.2l12.65 12.85q-6.25 40.65-17.85 80.8-4.7 16.25-10.3 32.5l-8.2 22.35-6.05 15.3q-6.7 16.2-14.25 32.4l-7.15 14.6-5.7 4.05v-39.45h-40.95l-93.5 48.6-27.6 4.15-9.8-99.45 74.15-87.8 8.05 1.8 7.95-2.6 0.5 2.6-0.5-2.6m6.15 53-59.85 25.3q-16.1 14.7 3.8 18.65l65.05-31.45q3.9-13-9-12.5" fill="#5f829a" fill-rule="evenodd"/>
<path d="m237.85 321.7 27.6-4.15 93.5-48.6h40.95v39.45l-75.2 53.45-0.15 0.05-85.3-25.6-1.4-14.6 1.4 14.6 85.3 25.6q-65.75 20.8-129.05 12.9-17.5-2.2-34.8-6.55l-1.4-0.7q-7.1-3.45-14-7.2l-1.85-1.05-31.95-56.7 31.95 56.7q-18.45-10.15-35.65-22.3-9.05-6.35-23.85-27.2-16.65-23.45-22.6-29.15-2.45-2.35-6-12.6l-5.3-16.75-3.6-41.85q3.25 7.95 7.15 15.75 20.2 40.65 57.9 77.4l46.4 30.9 79.95-11.8" fill="#485869" fill-rule="evenodd"/>
<path d="m324.35 186.65q12.9-0.5 9 12.5l-65.05 31.45q-19.9-3.95-3.8-18.65l59.85-25.3m-223.5-100.95h22.45v23.4l7.5 33.2q-4.85 14.75-11.8 23.05-5.9 6.9-13.2 9.35-14.1-17.15-19.9-37.05-2.9-10.2-3.7-21.05l18.65-30.9m36.9 87.05 5.2 23.25 67.35 25.25q19.6 6.75 0 20.6h-12.15l-75.55-25.6-7.15-17.6q12.85-25.1 22.3-25.9" fill="#cad5df" fill-rule="evenodd"/>
<path d="m46.45 209.45-2.8-60.55q10.25-46.85 49.05-93.65 35.05-27.95 107.8-37.25 49 11.6 70.95 26.6l20.8 51.15q1 11.25 10.15 22.25 2.2 2.65 15.8 15.65l-7.95 2.6-8.05-1.8-58.45-6.85-104.5 15.15-56.1 109.4 28.35 50.45q-37.7-36.75-57.9-77.4-3.9-7.8-7.15-15.75m54.4-123.75-18.65 30.9q0.8 10.85 3.7 21.05 5.8 19.9 19.9 37.05 7.3-2.45 13.2-9.35 6.95-8.3 11.8-23.05l-7.5-33.2v-23.4h-22.45" fill="#567889" fill-rule="evenodd"/>
<path d="m302.2 134.45-74.15 87.8 9.8 99.45-79.95 11.8-46.4-30.9-28.35-50.45 56.1-109.4 104.5-15.15 58.45 6.85m-164.45 38.3q-9.45 0.8-22.3 25.9l7.15 17.6 75.55 25.6h12.15q19.6-13.85 0-20.6l-67.35-25.25-5.2-23.25" fill="#6d91a3" fill-rule="evenodd"/>
<path d="m399.9 308.4 5.7-4.05 7.15-14.6q7.55-16.2 14.25-32.4l6.05-15.3 8.2-22.35q5.6-16.25 10.3-32.5 11.6-40.15 17.85-80.8l-12.65-12.85q-24.25 19.15-52.2 29.2-22.3 8.05-46.9 10.4l-25.7 0.9-13.75-0.4 0.5 2.6m5.85 225.65 0.15-0.05 75.2-53.45m-353.45-98.95-2.8-60.55q10.25-46.85 49.05-93.65 35.05-27.95 107.8-37.25 49 11.6 70.95 26.6l20.8 51.15q1 11.25 10.15 22.25 2.2 2.65 15.8 15.65l-7.95 2.6-8.05-1.8-58.45-6.85m-98.45 232.75q6.9 3.75 14 7.2l1.4 0.7q17.3 4.35 34.8 6.55 63.3 7.9 129.05-12.9m-278.1-152.45 3.6 41.85 5.3 16.75q3.55 10.25 6 12.6 5.95 5.7 22.6 29.15 14.8 20.85 23.85 27.2 17.2 12.15 35.65 22.3" fill="none" stroke="#423213" stroke-linecap="round" stroke-linejoin="round" stroke-opacity=".50196" stroke-width=".5"/>
<path d="m237.85 321.7 1.4 14.6 85.3 25.6m-22.35-227.45-74.15 87.8 9.8 99.45m-126.35-19.1 31.95 56.7 1.85 1.05m98.45-232.75-104.5 15.15-56.1 109.4 28.35 50.45" fill="none" stroke="#423113" stroke-linecap="round" stroke-linejoin="round" stroke-opacity=".25098" stroke-width=".5"/>
</g>
</defs>
</svg>
