<?xml version="1.0" encoding="UTF-8"?>
<svg version="1.1" viewBox="0 0 41.1 38.3" xmlns="http://www.w3.org/2000/svg" xmlns:cc="http://creativecommons.org/ns#" xmlns:dc="http://purl.org/dc/elements/1.1/" xmlns:rdf="http://www.w3.org/1999/02/22-rdf-syntax-ns#" xmlns:xlink="http://www.w3.org/1999/xlink">
<metadata>
<rdf:RDF>
<cc:Work rdf:about="">
<dc:format>image/svg+xml</dc:format>
<dc:type rdf:resource="http://purl.org/dc/dcmitype/StillImage"/>
</cc:Work>
</rdf:RDF>
</metadata>
<g transform="translate(-249.73 -180.82)">
<use transform="translate(249.75,180.85)" width="41.049999" height="38.25" xlink:href="#a"/>
</g>
<defs>
<g id="a" transform="translate(-249.75,-180.85)">
<path d="m290.8 217.65-5.7-22.95-2.4 3.15-1.5-1.75-2.5 1.5-2.25-7.65-2.35-3.5-1.65 4-3.5 5.65-1.5-1.5-1.85 1.35-5.8-2.65 0.05 0.1-0.2 6.9-1.6 0.15-1.25 5.4-7.05-6.9q9.15 1.8 9.6-6.55l0.1-0.35 2 0.75q2.5 0.8 4.45 0.65 6.1-0.65 6.85-11.35l0.05-1.25 9.75 11.5q5.6-0.25 8.25-8.75v34.05" fill="#f3eeb6" fill-rule="evenodd"/>
<path d="m256.8 205.85 1.25-5.4 1.6-0.15 0.2-6.9-0.05-0.1 5.8 2.65 1.85-1.35 1.5 1.5 3.5-5.65 1.65-4 2.35 3.5 2.25 7.65 2.5-1.5 1.5 1.75 2.4-3.15 5.7 22.95v1.45l-0.1-0.2-0.25-0.55-4.6-11.75-5.45-4.6-5.25-1.2-3.75 4.3-3.65 1.95-0.55 0.35-4.3 4.4-6.1-5.95" fill="#c0b963" fill-rule="evenodd"/>
<path d="m271.4 205.1 3.75-4.3 5.25 1.2 5.45 4.6 4.6 11.75q-5.9-11.9-13.4-15.25-3.2 0.85-5.65 2" fill="#9f9140" fill-rule="evenodd"/>
<path d="m267.75 207.05 3.65-1.95" fill="none" stroke="#000" stroke-linecap="round" stroke-linejoin="round" stroke-opacity=".4" stroke-width=".05"/>
<path d="m256.8 205.85 6.1 5.95 4.3-4.4m-7.75-15.35-0.1 0.35q-0.45 8.35-9.6 6.55l7.05 6.9m14.6-0.75q2.45-1.15 5.65-2 7.5 3.35 13.4 15.25" fill="none" stroke="#000" stroke-linecap="round" stroke-linejoin="round" stroke-opacity=".30196" stroke-width=".05"/>
<path d="m267.2 207.4 0.55-0.35m22.95 11.85 0.1 0.2v-35.5q-2.65 8.5-8.25 8.75l-9.75-11.5-0.05 1.25q-0.75 10.7-6.85 11.35-1.95 0.15-4.45-0.65l-2-0.75" fill="none" stroke="#000" stroke-linecap="round" stroke-linejoin="round" stroke-opacity=".30196" stroke-width=".05"/>
</g>
</defs>
</svg>
