<?xml version="1.0" encoding="UTF-8"?>
<svg version="1.1" viewBox="0 0 157.75 141.1" xmlns="http://www.w3.org/2000/svg" xmlns:cc="http://creativecommons.org/ns#" xmlns:dc="http://purl.org/dc/elements/1.1/" xmlns:rdf="http://www.w3.org/1999/02/22-rdf-syntax-ns#" xmlns:xlink="http://www.w3.org/1999/xlink">
<metadata>
<rdf:RDF>
<cc:Work rdf:about="">
<dc:format>image/svg+xml</dc:format>
<dc:type rdf:resource="http://purl.org/dc/dcmitype/StillImage"/>
</cc:Work>
</rdf:RDF>
</metadata>
<g transform="translate(-144.13 -185.18)">
<use transform="translate(144.15,185.2)" width="157.7" height="141.05" xlink:href="#a"/>
</g>
<defs>
<g id="a" transform="translate(-144.15,-185.2)">
<path d="m229.2 280.4-6.05-11.4-6.45-10.95-20.3-25.05v-0.05h0.1l0.05-0.05 7.6-2.2 9.6-2.8q23.4 7.05 29 18.25 15.2-11.6 23.5 4.9-8.5-2-22.05 5.95l-0.5 2.15 9.35 5.35-12.15 1.25q-3.85 6.8-11.7 14.65m9.05-35.2 4.5 0.95-4.5-0.95m-18.05 17.6-3.5-4.75 3.5 4.75" fill="#362c07" fill-rule="evenodd"/>
<path d="m235.25 291.15-0.95 0.5-0.15-0.15q-1.6-4.25-4.25-9.7l-0.7-1.4q7.85-7.85 11.7-14.65l12.15-1.25-9.35-5.35 0.5-2.15q13.55-7.95 22.05-5.95-8.3-16.5-23.5-4.9-5.6-11.2-29-18.25 31.8-9 56.25-13.5 17.9-3.3 31.85-4.15-10.8 36.65-34.55 58-6.5 5.85-13.35 10.95l-9.3 6.45-9.4 5.5-0.7-1.3 0.7 1.3m-38.85-58.15v-0.05 0.05" fill="#4f3f0b" fill-rule="evenodd"/>
<path d="m163.1 197.95 0.7-0.1q4.45-0.75 5.3 0.1 17.4-3.2 33.05-4.35 16.55-1.1 31.25 0 41.75 3.1 68.45 16.65-13.95 0.85-31.85 4.15-26.2-19.6-103.85-13.45l-3.05-3" fill="#617072" fill-rule="evenodd"/>
<path d="m163.35 197.55-0.25 0.4 3.05 3q77.65-6.15 103.85 13.45-24.45 4.5-56.25 13.5l-0.15-0.55 0.15 0.55-9.6 2.8-7.6 2.2-0.05 0.05 0.05-0.05-0.05 0.05h-0.1v0.05l20.3 25.05 6.45 10.95 6.05 11.4 0.7 1.4q2.65 5.45 4.25 9.7l0.15 0.15 0.95-0.5q10.5 19.55 9 35.1-4.75-18-11.65-25.4-5.4 4.2-10.75 18.85 0.65-32-22.4-54.6-19.35-18.45-38.65-13.2 10.75-5.35 6.3-25.9-6.2-28.7-22.95-40.8l19.2 12.35m33 35.35 0.05 0.05-0.05-0.05h0.1l-0.05-0.05-0.05 0.05m-7.55-7.75q-13.4-14.9-22.65-24.2 9.25 9.3 22.65 24.2" fill="#4b5658" fill-rule="evenodd"/>
<path d="m163.1 197.95 0.7-0.1-0.45-0.3-19.2-12.35q16.75 12.1 22.95 40.8 4.45 20.55-6.3 25.9 19.3-5.25 38.65 13.2 23.05 22.6 22.4 54.6 5.35-14.65 10.75-18.85 6.9 7.4 11.65 25.4 1.5-15.55-9-35.1l-0.95 0.5-0.15-0.15m-4.25-9.7-0.7-1.4m-12.5-22.35-20.3-25.05v-0.05l-0.05-0.05m-32.55-35.05q4.45-0.75 5.3 0.1 17.4-3.2 33.05-4.35 16.55-1.1 31.25 0 41.75 3.1 68.45 16.65-10.8 36.65-34.55 58-6.5 5.85-13.35 10.95l-9.3 6.45-9.4 5.5-0.7-1.3m8.2-43.7-4.5-0.95m31.75-30.8q17.9-3.3 31.85-4.15m-88.1 17.65-0.15-0.55m-17.05 5.55 7.6-2.2 9.6-2.8q31.8-9 56.25-13.5m-103.85-13.45q9.25 9.3 22.65 24.2m7.75 7.75-0.05 0.05h-0.1m20.3 25.1 3.5 4.75" fill="none" stroke="#000" stroke-linecap="round" stroke-linejoin="round" stroke-opacity=".4" stroke-width=".05"/>
<path d="m234.15 291.5q-1.6-4.25-4.25-9.7m-0.7-1.4-6.05-11.4-6.45-10.95" fill="none" stroke="#3c4344" stroke-linecap="round" stroke-linejoin="round" stroke-width=".05"/>
</g>
</defs>
</svg>
