<?xml version="1.0" encoding="UTF-8"?>
<svg version="1.1" viewBox="0 0 26.55 24.55" xmlns="http://www.w3.org/2000/svg" xmlns:cc="http://creativecommons.org/ns#" xmlns:dc="http://purl.org/dc/elements/1.1/" xmlns:rdf="http://www.w3.org/1999/02/22-rdf-syntax-ns#" xmlns:xlink="http://www.w3.org/1999/xlink">
<metadata>
<rdf:RDF>
<cc:Work rdf:about="">
<dc:format>image/svg+xml</dc:format>
<dc:type rdf:resource="http://purl.org/dc/dcmitype/StillImage"/>
</cc:Work>
</rdf:RDF>
</metadata>
<g transform="translate(-376.1,-79.75)">
<use transform="translate(376.1,79.75)" width="26.549999" height="24.549999" xlink:href="#a"/>
</g>
<defs>
<g id="a" transform="translate(-376.1,-79.75)">
<path d="m389.35 88.4-3.2 0.4q-2.55 0.7-3.4 1.35-0.9 0.6-1.65 2.05-0.8 1.45-0.7 1.95l-4.25-1.55 0.2-0.55 5.8-3.4 1.55-2.55 4.85-0.75 10.8 1.75 2-1.2-1.25-0.95 2.55-0.1-1.85 5.8q-0.9 3.35-0.05 5l1.45 2.25q0.75 2.2-1.4 4.35 0.05-0.55-1.1-1.1l-5.7-0.4q2.75 1.25 4.5 2.9-3.45-2.2-5.3-1.25l1.45 1.85-5.2-3.7 5.7-1.5 3.9-4.5-0.55-3.85-2.8-2.05-6.35-0.25" fill="#695a3a" fill-rule="evenodd"/>
<path d="m380.25 85.2 7.5-1.2 10.25 0.85-3.5-1.8 6.75-1.95 0.85 1.3 0.55 2.45-2.55 0.1 1.25 0.95-2 1.2-10.8-1.75-4.85 0.75-1.55 2.55-5.8 3.4 1.35-2.25 2.55-4.6" fill="#8c7e53" fill-rule="evenodd"/>
<path d="m380.25 85.2 0.75-1.35 5.4-2.65 3.7 1.1 8.4-2.5 2.75 1.3-6.75 1.95 3.5 1.8-10.25-0.85-7.5 1.2m13.35-1.9-3.5-1 3.5 1" fill="#b7ab6c" fill-rule="evenodd"/>
<path d="m380.4 94.15q-0.1-0.5 0.7-1.95 0.75-1.45 1.65-2.05 0.85-0.65 3.4-1.35l3.2-0.4 0.7 0.1 1.9 0.65q0.6 0.25 1.2 1.4 0.55 1.15 0.6 2.65l0.05 0.5q-0.05 2.45-1.7 4.25l-1.05 0.9q1.85-1.35 1.6-3.7l-0.6-2.05-0.7 0.05q-0.5 0.1-1.05 0.35l-0.05-0.15v-0.05l-1-1.3q-0.8-0.75-1.7-1.05l-1.45-0.25q-1.75 0-2.95 1.3-1.15 1.15-1.1 2.85l-0.25 0.15-1-0.7-0.4-0.15" fill="#e6d8aa" fill-rule="evenodd"/>
<path d="m382.05 94.85q-0.05-1.7 1.1-2.85 1.2-1.3 2.95-1.3l1.45 0.25q0.9 0.3 1.7 1.05l1 1.3v0.05q-4.5-0.1-7.65 2.25l-0.5-0.35-0.05-0.25v-0.15" fill-rule="evenodd"/>
<path d="m389.35 88.4 6.35 0.25 2.8 2.05 0.55 3.85-3.9 4.5-5.7 1.5-0.95-0.7q1.1-0.15 2-0.65l0.55-0.35 1.05-0.9q1.65-1.8 1.7-4.25l-0.05-0.5q-0.05-1.5-0.6-2.65-0.6-1.15-1.2-1.4l-1.9-0.65-0.7-0.1" fill="#393226" fill-rule="evenodd"/>
<path d="m390.3 93.5q0.55-0.25 1.05-0.35l0.7-0.05 0.6 2.05q0.25 2.35-1.6 3.7l-0.55 0.35q-0.9 0.5-2 0.65l-0.9-0.65q1.1-0.3 1.95-1.15 1.2-1.3 1.1-3.05l-0.35-1.5" fill="#fff" fill-rule="evenodd"/>
<path d="m390.25 93.35 0.05 0.15 0.35 1.5q0.1 1.75-1.1 3.05-0.85 0.85-1.95 1.15l-5-3.6q3.15-2.35 7.65-2.25" fill="#122829" fill-rule="evenodd"/>
<path d="m390.1 82.3-3.7-1.1-5.4 2.65-0.75 1.35-2.55 4.6m23.55-8.7-2.75-1.3-8.4 2.5 3.5 1m-13.2 10.85q-0.1-0.5 0.7-1.95 0.75-1.45 1.65-2.05 0.85-0.65 3.4-1.35l3.2-0.4m0.1 12.15 5.2 3.7m5.05-3.1q1.15 0.55 1.1 1.1m-24.65-9.65 4.25 1.55 0.4 0.15 1 0.7m0.25-0.15q-0.05-1.7 1.1-2.85 1.2-1.3 2.95-1.3l1.45 0.25q0.9 0.3 1.7 1.05l1 1.3v0.05l0.05 0.15m0.75 5.35 1.05-0.9q1.65-1.8 1.7-4.25l-0.05-0.5q-0.05-1.5-0.6-2.65-0.6-1.15-1.2-1.4l-1.9-0.65-0.7-0.1m12.75-6-0.85-1.3m-13.65 18.1q1.1-0.3 1.95-1.15 1.2-1.3 1.1-3.05l-0.35-1.5m0.75 5.35-0.55 0.35q-0.9 0.5-2 0.65l0.95 0.7m-1.85-1.35 0.9 0.65" fill="none" stroke="#2d1f0f" stroke-linecap="round" stroke-linejoin="round" stroke-opacity=".43137" stroke-width=".1"/>
<path d="m386.75 96q1.15-0.3 1.9-0.8 0.75-0.55 0.95 0.25 0.15 0.7-0.5 1.5-0.7 0.7-1.85 1.05l-2.15-0.05q-0.95-0.35-1.15-1.05-0.2-0.8 0.7-0.7l2.1-0.2" fill="#e3ffae" fill-opacity=".4" fill-rule="evenodd"/>
<path d="m383.55 92.4q-0.2 0.2-0.45 0.2-0.3 0-0.5-0.2l-0.2-0.45 0.2-0.5q0.2-0.2 0.5-0.2l0.45 0.2 0.2 0.5-0.2 0.45" fill="#fff" fill-rule="evenodd"/>
</g>
</defs>
</svg>
