<?xml version="1.0" encoding="UTF-8"?>
<svg version="1.1" viewBox="0 0 50.622 23.654" xmlns="http://www.w3.org/2000/svg" xmlns:cc="http://creativecommons.org/ns#" xmlns:dc="http://purl.org/dc/elements/1.1/" xmlns:rdf="http://www.w3.org/1999/02/22-rdf-syntax-ns#" xmlns:xlink="http://www.w3.org/1999/xlink">
<metadata>
<rdf:RDF>
<cc:Work rdf:about="">
<dc:format>image/svg+xml</dc:format>
<dc:type rdf:resource="http://purl.org/dc/dcmitype/StillImage"/>
</cc:Work>
</rdf:RDF>
</metadata>
<g transform="translate(-294.58 -224.77)">
<use transform="matrix(-1.0502 -1.682 -2.376 .7394 343.43 233.25)" width="3.6500001" height="4.5500002" xlink:href="#a"/>
<use transform="translate(294.6,232.5)" width="17.15" height="4.9499998" xlink:href="#g"/>
<use transform="matrix(-2.5329 .4303 .6077 1.7833 333.6 222.62)" width="10.45" height="10.65" xlink:href="#c"/>
<use transform="matrix(-2.5329 .4303 .6077 1.7833 343.46 234.77)" width="9.4499998" height="5.4499998" xlink:href="#b"/>
<use transform="matrix(2.5965 .0978 .1381 -1.8281 313.71 240.92)" width="3.6500001" height="4.5500002" xlink:href="#a"/>
<use transform="translate(327.15,232.25)" width="11.8" height="6.5999999" xlink:href="#d"/>
</g>
<defs>
<g id="a" transform="translate(2.5,4)">
<use transform="translate(-2.5,-4)" width="3.6500001" height="4.5500002" xlink:href="#h"/>
</g>
<g id="h" transform="translate(2.5,4)">
<path d="m-0.7 0.55q-1.6-1.1-1.8-2.75l0.05-0.2q2.2-1.25 2.9 2.45l-0.8 0.25-0.35 0.25" fill="#ab7034" fill-rule="evenodd"/>
<path d="m-2.45-2.4q0.95-2.6 2.7-1 1.55 1.5 0.5 3.5h-0.05l-0.15-0.05h-0.1q-0.7-3.7-2.9-2.45" fill="#a57741" fill-rule="evenodd"/>
<path d="m-0.7 0.55q-1.6-1.1-1.8-2.75l0.05-0.2q0.95-2.6 2.7-1 1.55 1.5 0.5 3.5" fill="none" stroke="#624028" stroke-linecap="round" stroke-linejoin="round" stroke-width=".05"/>
<path d="m0.55 0.05h-0.1" fill="none" stroke="#6b4b2c" stroke-linecap="round" stroke-linejoin="round" stroke-width=".05"/>
</g>
<g id="g" transform="translate(-294.6,-232.5)">
<path d="m302.25 234.25 6.1-1.15v4.2-4.2l3.2-0.6 0.2 4.95-3.4-0.15-5.85-0.2-0.25-2.85 0.25 2.85-4.15-0.15-3.65-0.15-0.1-1.1 3.65-0.65 0.1 1.9-0.1-1.9 4-0.8" fill="#facb9c" fill-rule="evenodd"/>
<path d="m308.35 233.1-6.1 1.15 0.25 2.85 5.85 0.2v-4.2l3.2-0.6 0.2 4.95-3.4-0.15m-10.1-2.25-3.65 0.65 0.1 1.1 3.65 0.15-0.1-1.9 4-0.8m-3.9 2.7 4.15 0.15" fill="none" stroke="#000" stroke-linecap="round" stroke-linejoin="round" stroke-opacity=".30196" stroke-width=".05"/>
</g>
<g id="c" transform="translate(6,8.3)">
<use transform="translate(-6,-8.3)" width="10.45" height="10.65" xlink:href="#f"/>
</g>
<g id="f" transform="translate(6,8.3)">
<path d="m-3.85 1.65-1.1-0.95q-1.3-1.55-1-3.75 0.25-2.2 1.95-3.75 1.75-1.55 3.9-1.5 2.1 0 3.4 1.55l0.25 0.35q-2.7-1.9-3.2 0.85l-0.1 0.6q-5.45 0.05-4.1 6.6" fill="#c88748" fill-rule="evenodd"/>
<path d="m-3.85 1.65q-1.35-6.55 4.1-6.6l0.1-0.6q0.5-2.75 3.2-0.85l0.1 0.1q0.95 1.45 0.75 3.35-0.3 2.2-2 3.75t-3.8 1.55q-1.4-0.05-2.45-0.7" fill="#a57741" fill-rule="evenodd"/>
<path d="m3.55-6.4-0.25-0.35q-1.3-1.55-3.4-1.55-2.15-0.05-3.9 1.5-1.7 1.55-1.95 3.75-0.3 2.2 1 3.75l1.1 0.95m7.4-8.05 0.1 0.1q0.95 1.45 0.75 3.35-0.3 2.2-2 3.75t-3.8 1.55q-1.4-0.05-2.45-0.7" fill="none" stroke="#836345" stroke-linecap="round" stroke-linejoin="round" stroke-width=".05"/>
<path d="m-4.75 0.65q-0.6-0.45-0.65-1.25 0.65-0.15 1.4 0.4-0.15 1-0.75 0.85" fill="#6b4b2c" fill-rule="evenodd"/>
<path d="m-4.75 0.65q-0.6-0.45-0.65-1.25 0.65-0.15 1.4 0.4-0.15 1-0.75 0.85z" fill="none" stroke="#281a0d" stroke-linecap="round" stroke-linejoin="round" stroke-width=".05"/>
</g>
<g id="b" transform="translate(3.45 .95)">
<use transform="translate(-3.45 -.95)" width="9.4499998" height="5.4499998" xlink:href="#e"/>
</g>
<g id="e" transform="translate(3.45 .95)">
<path d="m4.6 4.5q-1.85-3.55-3.8-3.8m5.2 3.7q-3.1-5.25-5.45-4.25m-3.25 2.35q0.85-3.05 2.25-2.2m-3 1.5q1.1-4.2 2.95-2" fill="none" stroke="#65421f" stroke-linecap="round" stroke-linejoin="round" stroke-width=".05"/>
</g>
<g id="d" transform="translate(-327.15,-232.25)">
<path d="m338.05 232.5-3.4 2.9 4.05-0.2" fill="none" stroke="#451e16" stroke-linecap="round" stroke-linejoin="round" stroke-width=".5"/>
<path d="m327.4 235.65 5.5 0.05-4.4 2.9" fill="none" stroke="#451e16" stroke-linecap="round" stroke-linejoin="round" stroke-width=".5"/>
</g>
</defs>
</svg>
