<?xml version="1.0" encoding="UTF-8"?>
<svg version="1.1" viewBox="0 0 103.5 120.45" xmlns="http://www.w3.org/2000/svg" xmlns:cc="http://creativecommons.org/ns#" xmlns:dc="http://purl.org/dc/elements/1.1/" xmlns:rdf="http://www.w3.org/1999/02/22-rdf-syntax-ns#" xmlns:xlink="http://www.w3.org/1999/xlink">
<metadata>
<rdf:RDF>
<cc:Work rdf:about="">
<dc:format>image/svg+xml</dc:format>
<dc:type rdf:resource="http://purl.org/dc/dcmitype/StillImage"/>
</cc:Work>
</rdf:RDF>
</metadata>
<g transform="translate(-245.72 -132.98)">
<use transform="translate(245.75,133)" width="100.75" height="109.9" xlink:href="#c"/>
<use transform="matrix(.9869 -.1518 .1518 .9869 335.82 217.56)" width="11.2" height="16.5" xlink:href="#b"/>
<use transform="translate(300.75,231.5)" width="14.85" height="21.9" xlink:href="#a"/>
</g>
<defs>
<g id="c" transform="translate(-245.75,-133)">
<path d="m328.45 206.95q0.3 0.55 0.1 0.95h-0.05l-0.05-0.95m-74.25 28.7-8.35-4.6v-36.1l4-5.9 5.45-11.4-5.2-8.1 12.7-22.05 3.05-14.5h25.55l-1.95 21.15v0.4l-2.65 7.85-5.35 14.05-0.35 0.95-0.5 1.2q0.05 0.65-1.05 0.65h-0.25l-1.2 4.6v-3.9l-0.4 3.9v1.45l0.5 0.85 0.7 0.6q0.6 0.5 0.65 0.85 1.4-0.4 3-1.45l3.9-2.3q1.05 1.05 1.45 2.15 1.75-1.1 3.85-1.3 1.25-0.2 2.9 0.6 2.4 1.05 5.35 1.45 0.7 0.15 1.45 0.85l1.55-1.6 0.25 1.1v0.1l0.5 2.55 0.7-2.9 1 4.25q1.15 4.95 2.65 9.1 0.2 0.3 0 1.2-0.9 2.9-1.45 5.8l-0.75 2.3-0.7-8.35q-0.75 5.8-2.2 11.25-0.5 1.65-1.55 3.15-3.3 4.7-8.95 6.55l-2.45 0.7-2.15 0.5q-5.1 0.55-7.3-2.65-1.1-1.7-1.7-3.5-0.55-1.65-0.7-3.05-0.2-0.75 0-1.45l0.7-3.9q0.2-0.7-0.1-1.55l0.25-0.75-0.25-0.2q-0.95 0.05-0.7-1.45l-1.1-0.85-2.2-1.1-2.8 0.1q-1.65 0.4-2.9 1-1.75 0.7-3.15 1.8-5.3 3.6-6.05 9.8l-0.85 5.55q-1.3 5.85-3.6 11.4-0.75 1.55-1.25 3.15m75.35-47.35h-0.15l0.15-0.7v0.7" fill="#fdf9f4" fill-rule="evenodd"/>
<path d="m335 133-8 43.7 6.55 10.15 12.95 16.1v19l-0.15 0.15-17.4 6.75q0.2-9.45-0.25-17.15v-0.75l-0.2-3.05h0.05q0.2-0.4-0.1-0.95v-0.5l-0.15-0.45-0.45 0.35-25.3-32.7q3.25-20.2 5.8-40.65h26.65m-5.45 55.3v-0.7l-0.15 0.7h0.15m-1.85 12.25-0.35-2.05 0.35 2.05" fill="#885e5e" fill-rule="evenodd"/>
<path d="m327.85 206.35 0.45-0.35 0.15 0.45-0.35 0.15-0.25-0.25" fill="#aa8080" fill-rule="evenodd"/>
<path d="m308.35 133q-2.55 20.45-5.8 40.65l25.3 32.7 0.6 0.6q-5.15 26.7-29.65 35.95h-13.35q-5.35-4.25-8.35-12.7l-21.2 6.3h-0.1l-1.6-0.85q0.5-1.6 1.25-3.15 2.3-5.55 3.6-11.4l0.85-5.55q0.75-6.2 6.05-9.8 1.4-1.1 3.15-1.8 1.25-0.6 2.9-1l2.8-0.1 2.2 1.1 1.1 0.85q-0.25 1.5 0.7 1.45l0.25 0.2-0.25 0.75q0.3 0.85 0.1 1.55l-0.7 3.9q-0.2 0.7 0 1.45 0.15 1.4 0.7 3.05 0.6 1.8 1.7 3.5 2.2 3.2 7.3 2.65l2.15-0.5 2.45-0.7q5.65-1.85 8.95-6.55 1.05-1.5 1.55-3.15 1.45-5.45 2.2-11.25l0.7 8.35 0.75-2.3q0.55-2.9 1.45-5.8 0.2-0.9 0-1.2-1.5-4.15-2.65-9.1l-1-4.25-1.2 0.25-0.25-1.1-1.55 1.6q-0.75-0.7-1.45-0.85-2.95-0.4-5.35-1.45-1.65-0.8-2.9-0.6-2.1 0.2-3.85 1.3-0.4-1.1-1.45-2.15l-3.9 2.3q-1.6 1.05-3 1.45-0.05-0.35-0.65-0.85l-0.7-0.6-0.5-0.85v-1.45h0.4l1.2-4.6h0.25q1.1 0 1.05-0.65l0.5-1.2 0.35-0.95 5.35-14.05 2.65-7.85v-0.4l1.95-21.15h16.95m-35.25 73.25q0.25 6 1 11.1 0.55 4.6 1.55 8.5 0.65 2.3 1.45 4.35-0.8-2.05-1.45-4.35-1-3.9-1.55-8.5-0.75-5.1-1-11.1" fill="#d5bdb5" fill-rule="evenodd"/>
<path d="m328.45 206.45v0.5l-0.35-0.35 0.35-0.15m0.05 1.45 0.2 3.05v0.75q0.45 7.7 0.25 17.15l-0.25 7.15-16.7 6.9h-13.2q24.5-9.25 29.65-35.95l0.05 0.95" fill="#bb958c" fill-rule="evenodd"/>
<path d="m277.7 183.85 0.4-3.9v3.9h-0.4" fill="#e1bfae" fill-rule="evenodd"/>
<path d="m303.25 187.1 1.2-0.25-1.2 0.35v-0.1" fill="#d6a38f" fill-rule="evenodd"/>
<path d="m304.45 186.85-0.7 2.9-0.5-2.55 1.2-0.35" fill="#daae98" fill-rule="evenodd"/>
<path d="m328.95 228.85 17.4-6.75 0.15-0.15v-19l-12.95-16.1-6.55-10.15 8-43.7m-6.5 74.9 0.2 3.05v0.75q0.45 7.7 0.25 17.15l-0.25 7.15-16.7 6.9h-26.55q-5.35-4.25-8.35-12.7l-21.2 6.3h-0.1l-1.6-0.85-8.35-4.6v-36.1l4-5.9 5.45-11.4-5.2-8.1 12.7-22.05 3.05-14.5m61.5 65.5 0.35 2.05m0.75 6.4 0.05 0.95m-51.4 22.3q-0.8-2.05-1.45-4.35-1-3.9-1.55-8.5-0.75-5.1-1-11.1" fill="none" stroke="#000" stroke-linecap="round" stroke-linejoin="round" stroke-opacity=".30196" stroke-width=".05"/>
<path d="m335 133h-26.65m-42.5 0h42.5" fill="none" stroke="#000" stroke-linecap="round" stroke-linejoin="round" stroke-opacity=".30196" stroke-width=".05"/>
<path d="m247.9 240.85-2.15-0.85 1-11.95 3.75-3.35 4 1.6-6.6 14.55" fill="#ffdf62" fill-rule="evenodd"/>
<path d="m254.5 226.3 1.7 0.7 0.75 6.25-8.3 7.95-0.75-0.35 6.6-14.55" fill="#fc0" fill-rule="evenodd"/>
<path d="m254.5 226.3 1.7 0.7 0.75 6.25-8.3 7.95-0.75-0.35-2.15-0.85 1-11.95 3.75-3.35z" fill="none" stroke="#000" stroke-linecap="round" stroke-linejoin="round" stroke-opacity=".30196" stroke-width=".05"/>
</g>
<g id="b" transform="translate(5.6,8.25)">
<path d="m3.45 7.9 2.15-0.85-1-11.95-3.75-3.35-4 1.6 6.6 14.55" fill="#b29b44" fill-rule="evenodd"/>
<path d="m-3.15-6.65-1.7 0.7-0.75 6.25 8.3 7.95 0.75-0.35-6.6-14.55" fill="#b28e00" fill-rule="evenodd"/>
<path d="m-3.15-6.65-1.7 0.7-0.75 6.25 8.3 7.95 0.75-0.35 2.15-0.85-1-11.95-3.75-3.35z" fill="none" stroke="#000" stroke-linecap="round" stroke-linejoin="round" stroke-opacity=".30196" stroke-width=".05"/>
</g>
<g id="a" transform="translate(-300.75,-231.5)">
<path d="m312.05 252.65-3 0.75-8.3-13.4 1.4-6.5 5.5-1.4 4.4 20.55" fill="#ffdf62" fill-rule="evenodd"/>
<path d="m307.65 232.1 2.25-0.6 5.7 6-2.55 14.85-1 0.3-4.4-20.55" fill="#fc0" fill-rule="evenodd"/>
<path d="m312.05 252.65-3 0.75-8.3-13.4 1.4-6.5 5.5-1.4 2.25-0.6 5.7 6-2.55 14.85z" fill="none" stroke="#000" stroke-linecap="round" stroke-linejoin="round" stroke-opacity=".30196" stroke-width=".05"/>
</g>
</defs>
</svg>
