<?xml version="1.0" encoding="UTF-8"?>
<svg version="1.1" viewBox="0 0 103.8 72.15" xmlns="http://www.w3.org/2000/svg" xmlns:cc="http://creativecommons.org/ns#" xmlns:dc="http://purl.org/dc/elements/1.1/" xmlns:rdf="http://www.w3.org/1999/02/22-rdf-syntax-ns#" xmlns:xlink="http://www.w3.org/1999/xlink">
<metadata>
<rdf:RDF>
<cc:Work rdf:about="">
<dc:format>image/svg+xml</dc:format>
<dc:type rdf:resource="http://purl.org/dc/dcmitype/StillImage"/>
</cc:Work>
</rdf:RDF>
</metadata>
<g transform="translate(-287.72 -154.82)">
<use transform="translate(287.75,154.85)" width="103.75" height="72.099998" xlink:href="#a"/>
</g>
<defs>
<g id="a" transform="translate(-287.75,-154.85)">
<path d="m343.7 186.9q-2.1 0.75-4.35 2.05-3.8 2.2-5.95 4.8t-1.3 4q0.8 1.4 4.1 0.8l1.15-0.25q2.8-0.75 5.95-2.55 3.8-2.25 5.95-4.85t1.35-3.95q-0.85-1.4-4.15-0.8l-2.6 0.65-0.15 0.1 0.15-0.1 2.6-0.65q3.3-0.6 4.15 0.8 0.8 1.35-1.35 3.95t-5.95 4.85q-3.15 1.8-5.95 2.55-10.05-1.35 6.35-11.4m39.1-15.25 8.7 2.45-1.5 9.35-12.25-3.75-2.15 1.3-1.3-2.05-59.8 35.05-3.25 10.1-0.1 0.05-8.85 1.95-1.25-0.05-3.35-0.2-1.3-0.1 3.35-10.95-0.15-0.3-0.85-1.8-0.1-0.3-1.75-3.8 0.15 3.75-0.3-0.05-9-1.6 1.35-6.1 0.05-0.35 18.8 1.25 60.9-34.2 1.2-16.3 10.25 0.75-3.1 10.4 2.2 4.3-0.05 0.25 0.3 0.1 2.1 4.15 0.15 0.35 0.9-3.65m-0.9 3.65 0.35 0.75-0.35-0.75m-81.25 41.55-0.9-2.05 0.9 2.05m-2.95 9-1.3-0.1 1.3 0.1" fill="#8b6234" fill-rule="evenodd"/>
<path d="m390 183.45-0.6 3.6-13.75-5.95-0.05-0.05v-0.05l2.15-1.3 12.25 3.75m-93.6 42.3-1.15-0.05-1.9-0.15 5.2-12.9 0.2 0.05 0.85 1.8 0.15 0.3-3.35 10.95-1.15-0.05 1.15 0.05m-7.25-21.5 0.2-0.85 0.55-2.55 16.85 2.1 59.65-32.95 1.1-15.15 2.55 0.15-1.2 16.3-60.9 34.2-18.8-1.25" fill="#bb864a" fill-rule="evenodd"/>
<path d="m337.35 198.3-1.15 0.25q-3.3 0.6-4.1-0.8-0.85-1.4 1.3-4t5.95-4.8q2.25-1.3 4.35-2.05-16.4 10.05-6.35 11.4m42.95-42.55 2.55 0.2-3.45 14.5-2.2-4.3 3.1-10.4m-0.65 15.05 3.15 0.85-0.9 3.65-0.15-0.35-2.1-4.15m-4.05 10.25-0.55 0.35-0.1 0.05-59.7 34.8 0.3 10.7-13.25-0.85 8.85-1.95 0.1-0.05 3.25-10.1 59.8-35.05 1.3 2.05v0.05m-77.05 31.6-0.7-0.15-0.8-0.15-0.15-3.75 1.75 3.8-0.1 0.25" fill="#604324" fill-rule="evenodd"/>
<path d="m380.3 155.75 2.55 0.2-3.45 14.5 0.25 0.35 3.15 0.85 8.7 2.45-1.5 9.35-0.6 3.6-13.75-5.95m-0.7 0.35-59.7 34.8 0.3 10.7-13.25-0.85m-1.25-0.05-3.35-0.2m-2.45-0.15-1.9-0.15 5.2-12.9-0.7-0.15m-1.1-0.2-9-1.6 1.35-6.1m0.25-1.2 0.55-2.55 16.85 2.1 59.65-32.95 1.1-15.15 2.55 0.15 10.25 0.75m-3.1 10.4 2.2 4.3-0.05 0.25 0.3 0.1 2.1 4.15m0.5 1.1-0.35-0.75m-82.15 39.5 0.9 2.05m-1.9-4.15 0.85 1.8m-0.95-2.1-0.1 0.25 0.2 0.05-0.1-0.3-1.75-3.8m-1.65 17.1 1.15 0.05 1.3 0.1" fill="none" stroke="#000" stroke-linecap="round" stroke-linejoin="round" stroke-opacity=".30196" stroke-width=".05"/>
<path d="m337.35 198.3-1.15 0.25q-3.3 0.6-4.1-0.8-0.85-1.4 1.3-4t5.95-4.8q2.25-1.3 4.35-2.05l0.15-0.1 2.6-0.65q3.3-0.6 4.15 0.8 0.8 1.35-1.35 3.95t-5.95 4.85q-3.15 1.8-5.95 2.55" fill="none" stroke="#bb864a" stroke-linecap="round" stroke-linejoin="round" stroke-width=".05"/>
<path d="m347.25 189.2h-0.05 0.1l0.35 0.75-0.35-0.75 1.6 0.45-0.25 1.85-2.05-0.8-8.35 4.85 0.05 1.55-3.1-0.2 0.65-1.65 0.1-0.2h-0.05l-1.5-0.25 0.35-1.4 2.3 0.3 8.35-4.6 0.2-2.1 2.15 0.15-0.5 2.05-0.3-0.6 0.3 0.6m-11.55 5.3 0.25 0.55-0.25-0.55" fill="#604324" fill-rule="evenodd"/>
<path d="m347.25 189.2h-0.05 0.1-0.05l-0.3-0.6m-11.05 6.45-1.5-0.25 0.35-1.4 2.3 0.3 8.35-4.6 0.2-2.1 2.15 0.15-0.5 2.05m0.4 0.75-0.35-0.75 1.6 0.45-0.25 1.85-2.05-0.8-8.35 4.85 0.05 1.55-3.1-0.2 0.65-1.65 0.05-0.2h0.05l-0.25-0.55m0.25 0.55-0.1 0.2m0.05-0.2h0.05" fill="none" stroke="#000" stroke-linecap="round" stroke-linejoin="round" stroke-opacity=".30196" stroke-width=".05"/>
<path d="m363.75 177.3q-0.3-0.35-0.3-0.85 0-0.45 0.3-0.8t0.8-0.35q0.45 0 0.75 0.35l0.3 0.8-0.3 0.85q-0.3 0.3-0.75 0.3-0.5 0-0.8-0.3" fill="#c49460" fill-rule="evenodd"/>
<path d="m360.9 182.45q-0.3-0.35-0.3-0.85 0-0.45 0.3-0.8t0.8-0.35q0.45 0 0.75 0.35l0.3 0.8-0.3 0.85-0.75 0.3q-0.5 0-0.8-0.3" fill="#c49460" fill-rule="evenodd"/>
<path d="m318.1 205.9q-0.45-0.5-0.45-1.25 0-0.7 0.45-1.2 0.45-0.55 1.2-0.55 0.7 0 1.15 0.55l0.45 1.2q0 0.75-0.45 1.25-0.45 0.45-1.15 0.45-0.75 0-1.2-0.45" fill="#c49460" fill-rule="evenodd"/>
</g>
</defs>
</svg>
