<?xml version="1.0" encoding="UTF-8"?>
<svg version="1.1" viewBox="0 0 29.175 40.675" xmlns="http://www.w3.org/2000/svg" xmlns:cc="http://creativecommons.org/ns#" xmlns:dc="http://purl.org/dc/elements/1.1/" xmlns:rdf="http://www.w3.org/1999/02/22-rdf-syntax-ns#" xmlns:xlink="http://www.w3.org/1999/xlink">
<metadata>
<rdf:RDF>
<cc:Work rdf:about="">
<dc:format>image/svg+xml</dc:format>
<dc:type rdf:resource="http://purl.org/dc/dcmitype/StillImage"/>
</cc:Work>
</rdf:RDF>
</metadata>
<g transform="translate(-276.98 -252.4)">
<use transform="translate(277,252.4)" width="29.15" height="40.650002" xlink:href="#a"/>
</g>
<defs>
<g id="a" transform="translate(14.6,20.25)">
<path d="m6.1 14.65 2.5 2.2h-0.2l-0.25-0.2q-0.9-1.1-2.1-1.9l0.05-0.1m3.4 3 0.05 0.05h-0.05v-0.05m-0.95 0.5-0.8 0.4-2.4-1.1q0.5 0.05 0.85 0.25 0.15 0.2 0.5 0.2l1 0.1 0.25 0.15h0.6m-3.9-30.35v-0.1l0.15-0.05-0.15 0.15m-2.3 0.9h-0.85v-0.2l0.85 0.2m-8.15 9.05-0.1 0.05-0.05-0.15 0.1-0.05 0.05 0.15m6.3 16.05 0.05-0.05-0.05 0.05" fill="#d7c59b" fill-rule="evenodd"/>
<path d="m6.65-5.8 1.3 4.3-0.7-0.5q-0.15-0.25-0.15-0.6l-0.45-1.75-0.05-0.65q-0.2-0.5 0.05-0.75v-0.05m-2.75 15.3-0.1 0.45-0.05-0.4 0.15-0.05m-4.65 4.95-0.1 0.05 0.1-0.1v0.05m-3-32 2.05 4-0.1 0.05-0.45-0.75-0.4-0.45-0.45-0.95-0.35-0.3q-0.75-0.3-0.3-1.6m8.55 5.2v-0.1l0.25-0.3 0.1 0.35-0.35 0.05m1.75 20.6v-0.2l0.15 0.1-0.15 0.1" fill="#fbf3d9" fill-rule="evenodd"/>
<path d="m14.05-17.3q-0.35 0.6-1.2 0.8l-0.75 0.5 1.65-1.9 0.3 0.6m-4.7 8.35q-0.45 1.5-1.8 2.4l-0.9 0.75v0.05q-0.25 0.25-0.05 0.75l0.05 0.65 0.45 1.75q0 0.35 0.15 0.6l0.7 0.5 1.1 3.8-1-1-0.1 2.1 0.95 1.05-0.2 1.4-2.1 2 0.1-0.45-1 0.25-1.3 1.65-0.5 0.2-0.15 0.05-0.05-0.75h-0.15l-0.3 0.25h-0.05l-1.2 0.75 0.85-4.2-1 0.25-2.8 3.35 1.15-0.15-0.05 3 0.4 1.7-0.05 0.05 0.15 0.1 0.4 0.65 0.1 0.15-1.1 0.5-0.4-1.65-1.05-4.3-0.55 1.1-2.45-1.9-1.55-0.65 1.7-2.65-1.65 2.45 0.85-3.9-2.45 0.35-1.2 0.2 0.35-1.7h0.25l1.7-0.2 0.2 0.15 2.2 0.2 1.15-4.1-2.1 0.2-0.85-1.05-0.05-0.15 0.1-0.8 0.05-1.05 0.6 0.15 0.4 0.2 0.75 0.2 0.2-1.65v-0.1l-1.35-3.15 1.15-1.5 0.95-0.05-1.4-2.65-1.85-3.2 2.25-1.95 0.25 0.4q-0.45 1.3 0.3 1.6l0.35 0.3 0.45 0.95 0.4 0.45 0.45 0.75 0.1-0.05 2.5-0.25 1.35-2.55 0.1-0.2 1.9-0.35 0.65 3.15 0.25 1 0.7-1.4 0.3-0.4 1.85-2.95 1.1-2.75 0.3 0.1 1.7 1.45-0.1 1.4-0.25-0.45-0.5-0.4-0.65-0.75q-0.9 0.55-1.3 1.1l-0.3 0.3-1.95 4.95-0.15 0.15h-0.65l-0.1-0.35-0.25 0.3v0.1l-0.15 0.05v0.1l-0.15 0.3-0.35 0.3-0.55 0.2-1.25 0.1 1.25-0.1 0.55-0.2 0.35-0.3 0.15-0.3v0.05l0.25 0.3-0.05 0.05 0.7 1.2-3.2-0.7-0.85-0.2v0.2l0.15 0.75 3.25 2.9-0.15-1.15 3.05 0.15 1.55-0.3m-5.95 25.5-2-0.95-0.2-0.55q0.1-0.4 0.9-0.15l0.5 0.35 0.4 0.7 0.4 0.6m-4.25-2.05-2.15 5.8-2.25-1.75 1.4-5.25 0.1-0.15-0.05-0.35 0.05-0.1 0.1-1.35 2.9 3.05-0.1 0.1m5.65-28.25-0.65-0.55-0.15-0.25q-0.3-0.2-0.45-0.55l-1.4-1.25 1.4 1.25q0.15 0.35 0.45 0.55l0.15 0.25 0.65 0.55m-8.1 7 0.95-0.25 1.45-0.4q0.2 0 0.3-0.35 0.55-1.7 0.5-3.7 0.25 0.25 0.6 0.25l1-0.1-1 0.1q-0.35 0-0.6-0.25 0.05 2-0.5 3.7-0.1 0.35-0.3 0.35l-1.45 0.4-0.95 0.25m5.2-6.5-2.4 0.4-0.65-0.05-0.5-0.45-0.15-0.15 0.15 0.15 0.5 0.45 0.65 0.05 2.4-0.4" fill="#442d11" fill-rule="evenodd"/>
<path d="m12.1-16 0.75-0.5q0.85-0.2 1.2-0.8l0.5 1.25-3.1 6.25-1.05 0.35-0.75 0.3-0.1 0.2-0.05-0.05-0.15 0.05-1.55 0.3-3.05-0.15 0.15 1.15-3.25-2.9-0.15-0.75h0.85l3.2 0.7-0.7-1.2 0.05-0.05-0.25-0.3v-0.05l0.15-0.15 0.35-0.05h0.65l0.15-0.15 1.95-4.95 0.3-0.3q0.4-0.55 1.3-1.1l0.65 0.75 0.5 0.4 0.25 0.45-0.25 2.4-0.05 0.2 0.05 0.2 0.8-0.9 0.65-0.6m-4 3.1 1.4-0.75 0.85-1 0.3-0.25-0.3 0.25-0.85 1-1.4 0.75m-4.3 22.85 0.15 0.15 7.75 2.8-0.05 0.25-1.4 1.75-4.15-0.25-0.05 0.1-0.15-0.1-1.2-0.85-0.55-0.45-1.15-1.1 1.15 1.1 0.55 0.45 1.2 0.85 0.15 0.1q1.2 0.8 2.1 1.9l0.25 0.2h0.2l0.9 0.8v0.05l-0.95 0.45h-0.6l-0.25-0.15-1-0.1q-0.35 0-0.5-0.2-0.35-0.2-0.85-0.25l-1.95-0.9-0.4-0.6-0.4-0.7-0.5-0.35q-0.8-0.25-0.9 0.15l-0.05-0.35-0.1-0.15-0.4-0.65-0.15-0.1 0.05-0.05-0.4-1.7 0.05-3-1.15 0.15 2.8-3.35 1-0.25-0.85 4.2 1.2-0.75h0.05l0.3-0.25h0.15l0.05 0.75 0.05 0.4m-4.15 3.6-0.4 0.9v-0.05l-2.9-3.05-0.1 1.35-0.05 0.1 0.05 0.35-0.1 0.15-1-0.55h-0.2l-6.9 4.65-0.15-0.2-0.6-2.25 2.7-3.2-4.5 1 0.4-1.9 6.1-3.45-1.65-0.5 2.15-2.85 2.45-0.35-0.85 3.9-0.1 0.15 0.05 0.05 1.55 0.65 2.45 1.9 0.55-1.1 1.05 4.3m-7.75-11q0.45-3.2 2.35-5.75l-0.1 0.8-0.1 0.05-0.05 0.05 0.1 0.1 0.1-0.05 0.85 1.05 2.1-0.2-1.15 4.1-2.2-0.2-0.2-0.15-1.7 0.2m3.1-6.6-0.2-1.9-5.75-4.9 2.7-2.45 2.35 1.3 1.5-0.8 1.4 2.65-0.95 0.05-1.15 1.5 1.35 3.15v0.1l-0.2 1.65-0.75-0.2-0.3-0.15m-1 11.8-0.2 0.05-0.75-0.1-1.05-0.3 1.05 0.3 0.75 0.1 0.2-0.05" fill="#2b1d0b" fill-rule="evenodd"/>
<path d="m14.05-17.3q-0.35 0.6-1.2 0.8l-0.75 0.5-0.65 0.6m-0.8 0.5-0.3 0.25-0.85 1-1.4 0.75m1.25 3.95q-0.45 1.5-1.8 2.4l-0.9 0.75v0.05q-0.25 0.25-0.05 0.75l0.05 0.65 0.45 1.75q0 0.35 0.15 0.6l0.7 0.5m0.1 2.8-0.1 2.1 0.95 1.05m-0.2 1.4-2.1 2m2 9 0.9 0.8m0 0.05 0.05 0.35-1 0.1m-3.2-0.7h-0.2l-0.35-0.1q-0.9-0.2-1.4-0.8m-6.4 3.75-2.25-1.75 1.4-5.25m-8.25 3.9-0.6-2.25 2.7-3.2m-4.5 1 0.4-1.9 6.1-3.45-1.65-0.5m2.15-2.85-1.2 0.2 0.35-1.7h0.25m2.8-6.7 0.2 0.05m-0.1-1.85-5.75-4.9 2.7-2.45m3.85 0.5-1.85-3.2 2.25-1.95m4.8 4.15 1.35-2.55 0.1-0.2m2.8 3.8 0.7-1.4 0.3-0.4 1.85-2.95 0.3-0.3q0.4-0.55 1.3-1.1l0.65 0.75 0.5 0.4 0.25 0.45q0.3 0.7 0.1 1.6l-0.2 0.65 0.35-0.15 0.3-0.2m-0.8 0.5 0.15-0.15-0.2 0.35m-8.45-1.65 1.4 1.25q0.15 0.35 0.45 0.55l0.15 0.25 0.65 0.55m0.25 1-0.25 0.3v0.1l-0.15 0.15-0.15 0.3-0.35 0.3-0.55 0.2-1.25 0.1h-0.85l-1 0.1q-0.35 0-0.6-0.25 0.05 2-0.5 3.7-0.1 0.35-0.3 0.35l-1.45 0.4-0.95 0.25m-0.45-10.8q-0.45 1.3 0.3 1.6l0.35 0.3 0.45 0.95 0.4 0.45 0.45 0.75 0.15 0.15 0.5 0.45 0.65 0.05 2.4-0.4m-5.85 9.55-0.75-0.2m-1.25 1.55 0.1-0.05m-0.1 0.05 0.05 0.15m0.1-0.05-0.05-0.15m0.9 1.2-0.85-1.05m1.4-10.55 1.4 2.65m-5 17.55 1.05 0.3 0.75 0.1 0.2-0.05m2.35 3.6-0.1 1.35-0.05 0.1 0.05 0.35-0.1 0.15m9.9 1.45-0.15-0.1-1.2-0.85-0.55-0.45-1.15-1.1m2.35 5.2q0.5 0.05 0.85 0.25 0.15 0.2 0.5 0.2l1 0.1 0.25 0.15h0.6m0.95-0.45v-0.05m-0.9-0.8h-0.2l-0.25-0.2q-0.9-1.1-2.1-1.9m-4.85 0.3q0.1-0.4 0.9-0.15l0.5 0.35 0.4 0.7 0.4 0.6" fill="none" stroke="#000" stroke-linecap="round" stroke-linejoin="round" stroke-opacity=".30196" stroke-width=".25"/>
<path d="m-8.1 2.55q0.45-3.2 2.35-5.75" fill="none" stroke="#000" stroke-linecap="round" stroke-linejoin="round" stroke-opacity=".30196" stroke-width=".25"/>
</g>
</defs>
</svg>
