<?xml version="1.0" encoding="UTF-8"?>
<svg version="1.1" viewBox="0 0 28.273 43.272" xmlns="http://www.w3.org/2000/svg" xmlns:cc="http://creativecommons.org/ns#" xmlns:dc="http://purl.org/dc/elements/1.1/" xmlns:rdf="http://www.w3.org/1999/02/22-rdf-syntax-ns#" xmlns:xlink="http://www.w3.org/1999/xlink">
<metadata>
<rdf:RDF>
<cc:Work rdf:about="">
<dc:format>image/svg+xml</dc:format>
<dc:type rdf:resource="http://purl.org/dc/dcmitype/StillImage"/>
</cc:Work>
</rdf:RDF>
</metadata>
<g transform="translate(-217.88 -205.2)">
<use transform="translate(217.9,205.2)" width="28.25" height="43.25" xlink:href="#a"/>
</g>
<defs>
<g id="a" transform="translate(-217.9,-205.2)">
<path d="m242.1 205.5 1.9 1.25 1.7 1.7 0.2 0.85-0.85 5.15-0.1 0.85-2 1.05v0.2l-0.1 1.6-0.15 1.35q-4.45 3.65-6.75 9.1-0.7 1.45-2.3 1.9-0.9 8.7-9.95 11.6-1.35 0.4-2.6-0.4l-0.15-0.2-0.05 0.1-0.75 1.55-0.85 5-0.15-0.1q-1.5-0.4-0.8-8.7 0.65-7.35 1.8-11.15 0.55-1.9 4.4-5.5 4-3.75 11.75-9.4h-2.25l0.95-2 0.95-0.95-0.95-2 1.2-1.5 0.3-0.3q1.35-0.65 2.85-1.1h0.1q1.55 0.2 1.5 1.9l0.95-1.9 0.2 0.05m-2.1 11.8q0.3 0.35 2.95-0.95-2.65 1.3-2.95 0.95m-3.7-4h3.7-3.7m-2.25 4q-6.2 7.1-8.85 10.45l-1.15 1.4q-2.15 3-2 10l-1.1 2.35 1.1-2.35q-0.15-7 2-10l1.15-1.4q2.65-3.35 8.85-10.45" fill="#f4ecb9" fill-rule="evenodd"/>
<path d="m242.7 219.5q-0.3 1.25-0.8 1.8-2.05 2.4-2.55 5-0.55 2.6-0.35 6.85 0.1 4.3-0.7 7.3-0.8 2.95-9.3 5.7-7.45 2.45-9.7 2l0.85-5 0.75-1.55 0.2 0.1q1.25 0.8 2.6 0.4 9.05-2.9 9.95-11.6 1.6-0.45 2.3-1.9 2.3-5.45 6.75-9.1" fill="#e2ca81" fill-rule="evenodd"/>
<path d="m242.1 205.5 1.9 1.25 1.7 1.7 0.2 0.85-0.85 5.15-0.1 0.85-2 1.05v0.2l-0.1 1.6-0.15 1.35q-0.3 1.25-0.8 1.8-2.05 2.4-2.55 5-0.55 2.6-0.35 6.85 0.1 4.3-0.7 7.3-0.8 2.95-9.3 5.7-7.45 2.45-9.7 2l-0.15-0.1q-1.5-0.4-0.8-8.7 0.65-7.35 1.8-11.15 0.55-1.9 4.4-5.5 4-3.75 11.75-9.4h-2.25l0.95-2 0.95-0.95-0.95-2 1.2-1.5 0.3-0.3m2.85-1.1h0.1q1.55 0.2 1.5 1.9l0.95-1.9m-1.9 7.85h-3.7m6.65 3.05q-2.65 1.3-2.95 0.95m-19.1 24.3-0.75 1.55-0.85 5m1.65-6.65 1.1-2.35q-0.15-7 2-10l1.15-1.4q2.65-3.35 8.85-10.45m-13.1 24.2-0.05 0.1" fill="none" stroke="#2c241f" stroke-linecap="round" stroke-linejoin="round" stroke-opacity=".50196" stroke-width=".5"/>
</g>
</defs>
</svg>
