<?xml version="1.0" encoding="UTF-8"?>
<svg version="1.1" viewBox="0 0 53.383 28.029" xmlns="http://www.w3.org/2000/svg" xmlns:cc="http://creativecommons.org/ns#" xmlns:dc="http://purl.org/dc/elements/1.1/" xmlns:rdf="http://www.w3.org/1999/02/22-rdf-syntax-ns#" xmlns:xlink="http://www.w3.org/1999/xlink">
<metadata>
<rdf:RDF>
<cc:Work rdf:about="">
<dc:format>image/svg+xml</dc:format>
<dc:type rdf:resource="http://purl.org/dc/dcmitype/StillImage"/>
</cc:Work>
</rdf:RDF>
</metadata>
<g transform="translate(-335.2 -185.87)">
<use transform="translate(335.2,185.85)" width="53.400002" height="28.049999" xlink:href="#a"/>
</g>
<defs>
<g id="a" transform="translate(-335.2,-185.85)">
<path d="m351.1 201.2v-3.5l-1.7-1.25-3.3-2.55 13.35 3 4.45 0.25 8.85 1.05h2.85q2.7-3.6 3.5-7.2 2.75-10.35 6.5 1.25 1.65 4.05 2.3 7.9-0.5-0.4-0.45 2.4 0 2.75-1.05 5.1-1.05 2.3-6.25 1.6l-9.05-1.5-6.35-1.3-0.95-0.1h-0.7q-1.35-0.55-9.9-1.35l-2.1-3.8m37.15 5.45q0.5 0.15 0.25 0.7l-0.4 0.85 0.15-1.55m-6.75-16.7 1.6 2.1q1.25 1.6 1.75 1.5t-0.5-2.8l-1.35-3.2q-0.3-0.5-0.75-0.5t-0.75 0.5-0.3 1.2 0.3 1.2m-5.9 8.25-0.45 0.55-0.8 1-2.35 2.45 2.35-2.45 0.8-1 0.45-0.55" fill="#5f829a" fill-rule="evenodd"/>
<path d="m381.5 189.95q-0.3-0.5-0.3-1.2t0.3-1.2 0.75-0.5 0.75 0.5l1.35 3.2q1 2.7 0.5 2.8t-1.75-1.5l-1.6-2.1" fill="#82c4cc" fill-rule="evenodd"/>
<path d="m340.15 208.3h3.95l5-2.2-5.5-2.7h4.7l2.8-2.2 2.1 3.8q8.55 0.8 9.9 1.35h0.7l0.95 0.1 6.35 1.3 9.05 1.5q5.2 0.7 6.25-1.6 1.05-2.35 1.05-5.1-0.05-2.8 0.45-2.4 0.55 3.35 0.3 6.5h0.05l-0.15 1.55q-0.05 3.95-3.95 5.05l-3.15 0.4h-0.05l-24.1-1.4-14.85-2.05-4-1.9h2.15" fill="#425a68" fill-rule="evenodd"/>
<path d="m340.15 208.3-4.7-5h5l2.5-3.55 0.6-2.3 4.1 1.5-1.05-1.5 2.8-1 1.7 1.25v3.5l-2.8 2.2h-4.7l5.5 2.7-5 2.2h-3.95" fill="#202c33" fill-rule="evenodd"/>
<path d="m349.4 196.45-2.8 1 1.05 1.5-4.1-1.5-0.6 2.3-2.5 3.55h-5l4.7 5h3.95l5-2.2-5.5-2.7h4.7l2.8-2.2v-3.5l-1.7-1.25-3.3-2.55 13.35 3 4.45 0.25 8.85 1.05h2.85q2.7-3.6 3.5-7.2 2.75-10.35 6.5 1.25 1.65 4.05 2.3 7.9 0.55 3.35 0.3 6.5m-0.1 1.55q-0.05 3.95-3.95 5.05l-3.15 0.4h-0.05l-24.1-1.4-14.85-2.05-4-1.9h2.15m31.85-6.1 2.35-2.45 0.8-1 0.45-0.55" fill="none" stroke="#423213" stroke-linecap="round" stroke-linejoin="round" stroke-opacity=".50196" stroke-width=".5"/>
</g>
</defs>
</svg>
