<?xml version="1.0" encoding="UTF-8" standalone="no"?>
<!DOCTYPE svg PUBLIC "-//W3C//DTD SVG 1.1//EN" "http://www.w3.org/Graphics/SVG/1.1/DTD/svg11.dtd">
<svg width="100%" height="100%" viewBox="0 0 27 33" version="1.1" xmlns="http://www.w3.org/2000/svg" xmlns:xlink="http://www.w3.org/1999/xlink" xml:space="preserve" xmlns:serif="http://www.serif.com/" style="fill-rule:evenodd;clip-rule:evenodd;">
    <g transform="matrix(1,0,0,1,0.444968,0)">
        <g id="a">
            <path d="M21.087,10.071L20.243,11.312L21.533,12.254L20.74,13.395L19.45,12.453L9.626,26.642L9.478,26.89C8.254,28.676 6.881,29.982 5.36,30.809C3.838,31.603 2.614,31.686 1.688,31.057L1.341,30.809C0.68,30.115 0.448,29.023 0.647,27.535C0.878,25.815 1.606,24.062 2.829,22.276L2.978,22.078L12.802,7.888L11.512,6.995L12.305,5.854L13.595,6.747L14.439,5.457" style="fill:none;fill-rule:nonzero;stroke:#09f;stroke-width:0.5px;"/>
            <path d="M22.178,4.366L25.701,6.797L21.037,9.972L17.713,7.69C19.4,6.764 20.888,5.656 22.178,4.366M18.457,3.473L18.16,4.167L17.416,4.217C17.118,4.118 17.002,3.903 17.068,3.572C17.134,3.208 17.349,3.026 17.713,3.026L18.309,3.126L18.457,3.473M16.771,5.358C16.506,5.358 16.39,5.242 16.423,5.011L16.622,4.763L16.721,4.713C17.019,4.779 17.118,4.945 17.019,5.209L16.771,5.358M18.904,4.416C19.168,4.449 19.251,4.614 19.152,4.912L18.953,5.06C18.689,5.06 18.557,4.928 18.557,4.664L18.755,4.416L18.904,4.416" style="fill:#c24901;fill-rule:nonzero;"/>
            <path d="M14.389,5.358L15.828,0L22.178,4.366C20.888,5.656 19.4,6.764 17.713,7.69L14.389,5.358M16.771,5.358L17.019,5.209C17.118,4.945 17.019,4.779 16.721,4.713L16.622,4.763L16.423,5.011C16.39,5.242 16.506,5.358 16.771,5.358M18.457,3.473L18.309,3.126L17.713,3.026C17.349,3.026 17.134,3.208 17.068,3.572C17.002,3.903 17.118,4.118 17.416,4.217L18.16,4.167L18.457,3.473M18.904,4.416L18.755,4.416L18.557,4.664C18.557,4.928 18.689,5.06 18.953,5.06L19.152,4.912C19.251,4.614 19.168,4.449 18.904,4.416" style="fill:#f60;fill-rule:nonzero;"/>
            <path d="M13.05,13.395C12.587,13.858 12.024,14.123 11.363,14.189C11.032,14.189 10.867,14.073 10.867,13.842C10.371,12.519 10.999,11.328 12.752,10.27L13.992,10.319C14.323,11.51 14.009,12.535 13.05,13.395" style="fill:#fff;fill-rule:nonzero;"/>
            <path d="M19.4,12.353L9.577,26.543L9.428,26.791C8.204,28.577 6.832,29.883 5.31,30.71C3.789,31.504 2.565,31.587 1.639,30.958L1.291,30.71L16.076,10.071L19.4,12.353" style="fill:#09f;fill-opacity:0.51;fill-rule:nonzero;"/>
            <path d="M1.291,30.71C0.63,30.016 0.398,28.924 0.597,27.436C0.828,25.716 1.556,23.963 2.78,22.177L2.929,21.978L12.752,7.789L11.462,6.896L12.256,5.755L13.546,6.648L20.194,11.212L21.484,12.155L20.69,13.296L19.4,12.353L16.076,10.071L1.291,30.71M13.05,13.395C14.009,12.535 14.323,11.51 13.992,10.319L12.752,10.27C10.999,11.328 10.371,12.519 10.867,13.842C10.867,14.073 11.032,14.189 11.363,14.189C12.024,14.123 12.587,13.858 13.05,13.395" style="fill:#09f;fill-opacity:0.19;fill-rule:nonzero;"/>
            <path d="M13.546,6.648L14.389,5.358L17.713,7.69L21.037,9.972L20.194,11.212L13.546,6.648" style="fill:#09f;fill-opacity:0.52;fill-rule:nonzero;"/>
        </g>
    </g>
</svg>
