<?xml version="1.0" encoding="UTF-8"?>
<svg version="1.1" viewBox="0 0 87.5 104.45" xmlns="http://www.w3.org/2000/svg" xmlns:cc="http://creativecommons.org/ns#" xmlns:dc="http://purl.org/dc/elements/1.1/" xmlns:rdf="http://www.w3.org/1999/02/22-rdf-syntax-ns#" xmlns:xlink="http://www.w3.org/1999/xlink">
<metadata>
<rdf:RDF>
<cc:Work rdf:about="">
<dc:format>image/svg+xml</dc:format>
<dc:type rdf:resource="http://purl.org/dc/dcmitype/StillImage"/>
</cc:Work>
</rdf:RDF>
</metadata>
<g transform="translate(-241.2,-138.95)">
<use transform="translate(241.2,138.95)" width="87.5" height="104.45" xlink:href="#a"/>
</g>
<defs>
<g id="a" transform="translate(43,74.25)">
<use transform="translate(-43,-74.25)" width="87.5" height="104.45" xlink:href="#b"/>
</g>
<g id="b" transform="translate(43,74.25)">
<path d="m23.15-13.1-0.1-0.1 0.2-0.05-0.1 0.15m14.1 23.35v-0.3l0.25 0.3h-0.25m-14.1-6.35-0.1-0.1 0.2-0.05-0.1 0.15" fill="#463526" fill-rule="evenodd"/>
<path d="m23.05-13.2 0.1 0.1q-3.25 3.95-5.15 8.35-2.6 5.85-2.9 12.45l0.15-0.2 1.15-1.1 0.6-0.15h0.5l0.9 0.2q2.15-1.5 4.65-2.65l0.1 0.1-3.25 2.9 0.35 0.1 0.5-0.4 0.25-0.25 6-0.25 5.05-0.4 1.95-0.6 10.25 0.95 0.25 0.3q-5.2 0-10.1 1.1l3.3 0.45q0.3 0.05 0.55 0.45-3.55-0.3-7.05-0.1l-1.7 0.55 7.75 1.25v0.3l-7.85-0.6-0.65 0.2 14.45 3.4h-17.15v2.25l-7.6 0.85q-2.85 8.75-13.25 11.3l-0.7-0.15-3.5 2.7h-2.75q1.9-1.95 4.4-3.65l1.2-1.1q-4.2 2.2-8.55 4.75h-0.55q4.9-4.1 10-7.95l0.55-0.4 4-2.9q-0.35-0.5-0.2-1.25l-0.3 0.1q0.4 0.75-1.75 1.75l-0.15 0.1q-0.6 0.7-1.3 0.75l-11.15 9.8h-2.2q4.85-4.95 9.9-9.6-6.25 2.95-12.15 7.2-1.6 1.15-3.5 1.45 3.75-3.35 7.85-6.6-5.4 3.25-10.25 7.55h-0.7q5.4-6.2 12.25-10.55-9.8 1.8-19.15 4.1 9.95-4.1 19.85-7.15l-0.5-0.15q-10.45-3.3-11-4.75l0.9 0.05q7.75-0.35 15.3 1.35l0.95 0.15 1.6 1.05 0.85 0.55q-5.3-4.8-11.85-9.1-2-1.35-0.6-2.25 5.45 2 10.75 4.75l1.25 0.75q0.45 1.95 1.4 3.8 0.6 1.1 0.8 2.25l0.95 0.3-0.9-1.85 1.15-3.85q0.35-8.4 1.1-16.65 0.05-0.5 0.75-0.25 0.05 5.05 0.65 9.9 1.9-4.6 4.35-8.9l-1.6 7.9 0.4-0.35 0.95-0.55q0.9-2.95 2.25-5.5 2.55-4.9 6.8-8.45m-7.95 25.4v0.1q0.4-0.35 0.8-0.5l-0.25-0.6-0.55 0.9v0.1m-4.25-3.65 0.9 4.1 0.15-0.2q-0.9-2.15-0.9-4.45l-0.15 0.55" fill="#604178" fill-rule="evenodd"/>
<path d="m42.2-4.75 0.05 1-0.35-1h0.3" fill="#463526" fill-rule="evenodd"/>
<path d="m42.2-4.75h-0.3 0.3" fill="#960" fill-rule="evenodd"/>
<path d="m-37.65-46.75v3q0.5 11.25 7.8 20.4 1.55 2 3.75 3.05 15.1 7.5 23.95 21.9-3.1-17.2 1.15-34.15 5.4-21.6 26.5-28.45 5.2 1.9 8.7 5.9 6.4 7.35 5.8 15.35h-2.7q0.35-11.8-11.05-18.25-10.25 3.75-17.4 11.75-2.15 2.35-3.55 5.2-10.35 21.35-2.15 44.2 3.65 10.15 8.1 20.1l-6.15-5.75q-5.75-1.05-10.75-4.4-5.25-3.45-8.55-8.7-4.2-6.75-9.55-12.65l-3.6 0.6q-5.85 1.6-10.3 5.9h-3.25q5.8-10.8 17.9-10 11.1 15.15 26 26.3l-0.8-1.5q-1.25-2.4-2.85-4.45l-2.1-3.1q-7.65-13.8-21.55-20.95-9.55-5.05-13.4-15.7-2.9-8-3-15.6h3.05" fill="#604178" fill-rule="evenodd"/>
<path d="m-37.65-46.75h-3.05q-0.1-6.45 1.8-12.6 2.4-7.7 7.9-14.9l6.9 0.7q1 3.1 2.55 6.3 0.7 1.45 1.9 2.5l1.95 2q2.55 3.1 2.4 6.7-2.2 2.85-5.8 3.4-5.5 1.15-9.15-2.85 1.55-1.2 3.75-1.65l9.25-0.35-5.25-6.25-3.35-7.15-5.9 0.4-2.95 7.75-0.2 0.65q-1.7 5.6-2.45 11.5l-0.3 3.85m-3.25 45h3.25l-2.1 2.25-0.95 3.6 4.45 5.7 4.45-1.05 1-2.6 1.6 0.5 0.25 0.65q0.2 1.25-0.55 2.6-1 1.8-2.75 3.1-3.45 0.35-6.2-1.5-2.9-2.1-4.55-5.25 0.05-3.85 1.65-7.1l0.45-0.9m78.2-38h2.7q-0.35 4.8-3.25 9.8-5 8.75-15 4.95l-2.3 4.65 3.8 2.6q9.9-3.2 18.25 2.75l0.7 10.25h-0.3l-3.4-9.25-16.25-0.75-5.25-4.5-0.25-3.75 5.5-6q2 1.35 4.55 1.4 8.95 0.1 10.25-9.35l0.25-2.8" fill="#e4e0f3" fill-rule="evenodd"/>
</g>
</defs>
</svg>
