<?xml version="1.0" encoding="UTF-8"?>
<svg version="1.1" viewBox="0 0 247.45 266.42" xmlns="http://www.w3.org/2000/svg" xmlns:cc="http://creativecommons.org/ns#" xmlns:dc="http://purl.org/dc/elements/1.1/" xmlns:rdf="http://www.w3.org/1999/02/22-rdf-syntax-ns#" xmlns:xlink="http://www.w3.org/1999/xlink">
<metadata>
<rdf:RDF>
<cc:Work rdf:about="">
<dc:format>image/svg+xml</dc:format>
<dc:type rdf:resource="http://purl.org/dc/dcmitype/StillImage"/>
</cc:Work>
</rdf:RDF>
</metadata>
<g transform="translate(-159.72 -33.1)">
<use transform="translate(159.75,33.1)" width="247.39999" height="266.39999" xlink:href="#a"/>
</g>
<defs>
<g id="a" transform="translate(-159.75,-33.1)">
<path d="m368.95 272.1q-14.55 2.85-34.4 0.5-13.5-0.4-27.05-10.1v-19.8l-0.35 0.05-13.65-22.55 3-20.25q42.2 18.05 85.35 25.1l1.4 46.9-14.3 0.15m-35.9-50.8-0.65 7.85 8.85-2.65-0.8-4.8-7.4-0.4m23.6 17.05-4.45-7.2-7.4 3.85 1.3 4.75 7.35 2.8 3.2-4.2m-25.15 11.35 1.55-9.25-9.9-6.5-6.1 10.3 5.25 6.6 9.2-1.15" fill="#eaf2c8" fill-rule="evenodd"/>
<path d="m170.7 272.45q-10.65-8.7-10.95-18.95v-56.1q0.1 3.1 1.1 6.1 1.65 4.75 5.85 9.2l1.7 1.75 2.3 2v56" fill="#e3ea95" fill-rule="evenodd"/>
<path d="m159.75 197.4v-0.85q0.35-19.1 36.2-32.6 36.25-13.65 87.5-13.65t87.45 13.65q36.25 13.65 36.25 32.95v0.5l-0.2 2.35q-0.7 5.05-4.05 9.7-1.6 2.25-3.8 4.4l-3.1 2.75q-3.85 3.05-9 5.95l-0.45 0.25q-56.2-8.15-113.7-36.85l2.7 4.5 17.95 29.75 13.65 22.55-23.7 0.75h-2.6l-7.2-0.1-10.05-0.45-18.4-1.6q-19.2-2.3-35.65-7l-3.35-1-1.55-0.5-7.1-2.4-1.6-0.6-3.15-1.2-8.4-3.75-3.5-1.8-5.9-3.5-4.3-3.15-2.3-2-1.7-1.75q-4.2-4.45-5.85-9.2-1-3-1.1-6.1m57.55 0.15 9.75 5.15 14.75-9.1-0.4-5.8-20.2-2.9-3.9 12.65m34.3 7.7 8.75-7.1-4.7-3.05-6.7 7.75 2.65 2.4m-11.05 8.65-3-2.2-7.6 2.55 6.35 8.2 4.25-8.55" fill="#f0dd73" fill-rule="evenodd"/>
<path d="m399.1 269.85q-4.45 4.35-11.4 8.35l-0.7-0.25v-55.4q5.15-2.9 9-5.95l3.1-2.75v56m-91.6-7.35v36.2l-24.05 0.8q-45.25 0-78.8-10.65v-56l1.55 0.5 3.35 1q16.45 4.7 35.65 7l18.4 1.6 10.05 0.45 7.2 0.1h2.6l23.7-0.75 0.35 0.6v19.15m-90.2-64.95 3.9-12.65 20.2 2.9 0.4 5.8-14.75 9.1-9.75-5.15m34.3 7.7-2.65-2.4 6.7-7.75 4.7 3.05-8.75 7.1m-11.05 8.65-4.25 8.55-6.35-8.2 7.6-2.55 3 2.2" fill="#e2c518" fill-rule="evenodd"/>
<path d="m406.95 199.75v50.35l0.2 3.4q-0.25 8.75-8.05 16.35v-56q2.2-2.15 3.8-4.4 3.35-4.65 4.05-9.7m-202.3 89.1-8.7-3q-16.3-6.15-25.25-13.4v-56l4.3 3.15 5.9 3.5 3.5 1.8 8.4 3.75 3.15 1.2 1.6 0.6 7.1 2.4v56" fill="#ecd54f" fill-rule="evenodd"/>
<path d="m387 277.95-18.05-5.85 14.3-0.15-1.4-46.9q-43.15-7.05-85.35-25.1l-20.95-9.5-2.7-4.5q57.5 28.7 113.7 36.85l0.45 0.15v55" fill="#968210" fill-rule="evenodd"/>
<path d="m293.5 220.2-17.95-29.75 20.95 9.5-3 20.25m39.55 1.1 7.4 0.4 0.8 4.8-8.85 2.65 0.65-7.85m23.6 17.05-3.2 4.2-7.35-2.8-1.3-4.75 7.4-3.85 4.45 7.2m-25.15 11.35-9.2 1.15-5.25-6.6 6.1-10.3 9.9 6.5-1.55 9.25m-61.05-204.95-31.9 48.5-1.15 47.6-26.65-49.9 42.75-47.35-10.45-10.5 27.4 11.65m17.55 51.85 12.25-5.3-4.7 4.8 19.1 21.5-11.9 22.7-0.5-21.65-14.25-22.05" fill="#c8dd71" fill-rule="evenodd"/>
<path d="m159.75 197.4v-0.85q0.35-19.1 36.2-32.6 36.25-13.65 87.5-13.65t87.45 13.65q36.25 13.65 36.25 32.95v0.5l-0.2 2.35v50.35l0.2 2.8v0.6q-0.25 8.75-8.05 16.35-4.45 4.35-11.4 8.35l-0.7 0.35m0-0.6-18.05-5.85m-61.45 26.6-24.05 0.8q-45.25 0-78.8-10.65l-8.7-3q-16.3-6.15-25.25-13.4-10.65-8.7-10.95-18.95v-32.7m0-15.2v-8.2q0.1 3.1 1.1 6.1m14.15 16.1 5.9 3.5m11.9 5.55 3.15 1.2 1.6 0.6m47.65 10.9 18.4 1.6m10.05 0.45 7.2 0.1h2.6l23.7-0.75m-34.3-56.8q57.5 28.7 113.7 36.85l0.45-0.25q5.15-2.9 9-5.95m6.9-7.15q3.35-4.65 4.05-9.7m0 50.35 0.2 3.4m-20.15 24.45 0.7 0.25m-80.2-35.5-0.35 0.05" fill="none" stroke="#000" stroke-linecap="round" stroke-linejoin="round" stroke-opacity=".30196" stroke-width=".05"/>
<path d="m387 278.55v-0.6m-18.05-5.85q-14.55 2.85-34.4 0.5-13.5-0.4-27.05-10.1v36.2m-0.35-55.95-13.65-22.55-17.95-29.75-2.7-4.5m113.7 36.85 0.45 0.15v-0.4m0 0.4v55m-79.85-35.2 0.35 0.6v-0.65m0 0.65v19.15" fill="none" stroke="#000" stroke-linecap="round" stroke-linejoin="round" stroke-opacity=".30196" stroke-width=".05"/>
</g>
</defs>
</svg>
