<?xml version="1.0" encoding="UTF-8" standalone="no"?>
<!DOCTYPE svg PUBLIC "-//W3C//DTD SVG 1.1//EN" "http://www.w3.org/Graphics/SVG/1.1/DTD/svg11.dtd">
<svg width="100%" height="100%" viewBox="0 0 57 79" version="1.1" xmlns="http://www.w3.org/2000/svg" xmlns:xlink="http://www.w3.org/1999/xlink" xml:space="preserve" xmlns:serif="http://www.serif.com/" style="fill-rule:evenodd;clip-rule:evenodd;">
    <g transform="matrix(1,0,0,1,1.3696,1.73044)">
        <g id="Layer1">
            <g>
                <g id="c">
                    <path d="M27.664,7.65L23.033,7.053C21.772,6.655 21.141,6.173 21.141,5.609C21.141,5.045 21.772,4.58 23.033,4.215L27.664,3.617L32.245,4.215C33.506,4.58 34.137,5.045 34.137,5.609C34.137,6.173 33.506,6.655 32.245,7.053L27.664,7.65" style="fill:none;fill-rule:nonzero;stroke:#a2d9fe;stroke-width:0.5px;"/>
                    <path d="M26.817,1.775L26.718,1.725L26.718,1.576C24.162,0.68 21.888,1.144 19.896,2.97L18.452,4.514L17.955,5.31L18.353,5.46L18.502,5.41C18.901,4.514 19.581,3.866 20.544,3.468C22.071,2.738 23.681,2.24 25.373,1.974L26.469,1.825L26.469,2.024L26.568,1.974L26.668,1.825L26.917,1.825L26.817,1.775M20.693,7.65C20.494,7.451 19.83,7.169 18.701,6.804C17.639,6.472 17.125,6.173 17.158,5.908L17.158,5.758C17.191,4.298 18.187,3.036 20.145,1.974C22.104,0.879 24.494,0.331 27.315,0.331C30.137,0.331 32.543,0.879 34.535,1.974C35.73,2.638 36.56,3.368 37.024,4.165C37.356,4.696 37.522,5.277 37.522,5.908C37.522,6.173 36.975,6.538 35.879,7.003C34.684,7.501 34.004,7.833 33.838,7.999L33.041,10.588C31.713,15.368 31.05,21.127 31.05,27.865C31.05,33.044 31.431,37.641 32.195,41.658C32.427,42.819 32.709,43.981 33.041,45.143L33.639,47.135C34.568,48.728 35.979,50.205 37.871,51.566C39.166,52.495 40.543,53.259 42.004,53.856L43.796,54.553C50.169,57.176 53.356,60.346 53.356,64.063C53.356,67.781 50.169,70.968 43.796,73.623C42.004,74.32 39.481,74.652 36.228,74.619C31.282,74.553 28.278,74.569 27.216,74.669L23.631,74.669L23.631,73.872L22.685,72.379L23.73,72.428L23.929,72.279L23.929,72.229L23.88,72.179L22.685,72.08L22.436,72.03L22.436,72.379C18.95,72.213 15.565,71.698 12.278,70.835C10.386,70.304 8.677,69.474 7.15,68.345L6.801,68.246L5.855,67.499C5.357,67.2 4.992,66.785 4.76,66.254L4.163,65.458L3.914,64.761C3.748,64.429 3.681,64.097 3.714,63.765C3.748,63.267 3.88,62.819 4.113,62.42L4.212,62.321C4.212,62.088 4.312,61.906 4.511,61.773L4.561,61.673L4.959,61.275C5.789,60.478 6.718,59.765 7.747,59.134C8.212,58.869 8.693,58.653 9.191,58.487C11.615,57.69 14.104,57.242 16.66,57.143L16.66,57.541L17.606,57.491L17.706,57.342L17.706,57.242L17.656,57.242L17.506,57.143C19.233,56.279 20.975,55.433 22.735,54.603L28.56,45.84L27.465,7.551L27.415,7.551L23.382,7.152L22.137,6.704L21.739,6.555L21.44,6.356L19.996,6.157L20.693,7.65M19.399,5.161L19.996,6.157L19.399,5.161M35.282,5.111C34.784,5.841 34.303,6.804 33.838,7.999C34.303,6.804 34.784,5.841 35.282,5.111" style="fill:#09f;fill-opacity:0.15;fill-rule:nonzero;"/>
                    <path d="M23.631,74.669L18.452,74.719C15.199,74.752 12.644,74.387 10.785,73.623C4.312,71.001 1.075,67.831 1.075,64.113C1.075,60.396 4.312,57.225 10.785,54.603L12.627,53.906C14.121,53.275 15.515,52.512 16.809,51.616C18.701,50.255 20.129,48.778 21.091,47.184L21.689,45.193L22.535,41.707C23.299,37.691 23.681,33.094 23.681,27.915C23.681,21.177 23.017,15.418 21.689,10.638L20.693,7.65L19.996,6.157L21.44,6.356L21.739,6.555L22.137,6.704L23.382,7.152L27.415,7.551L27.465,7.551L28.56,45.84L22.735,54.603C20.975,55.433 19.233,56.279 17.506,57.143L17.108,57.093L16.66,57.143C14.104,57.242 11.615,57.69 9.191,58.487C8.693,58.653 8.212,58.869 7.747,59.134C6.718,59.765 5.789,60.478 4.959,61.275L4.561,61.673L4.511,61.773C4.312,61.906 4.212,62.088 4.212,62.321L4.113,62.42C3.88,62.819 3.748,63.267 3.714,63.765C3.681,64.097 3.748,64.429 3.914,64.761L4.163,65.458L4.76,66.254C4.992,66.785 5.357,67.2 5.855,67.499L6.801,68.246L6.951,68.296L7.15,68.345C8.677,69.474 10.386,70.304 12.278,70.835C15.565,71.698 18.95,72.213 22.436,72.379L22.685,72.379L23.631,73.872L23.631,74.669" style="fill:#09f;fill-opacity:0.25;fill-rule:nonzero;"/>
                    <path d="M26.817,1.775L26.917,1.825L26.668,1.825L26.568,1.974L26.469,2.024L26.469,1.825L25.373,1.974C23.681,2.24 22.071,2.738 20.544,3.468C19.581,3.866 18.901,4.514 18.502,5.41L18.353,5.46L17.955,5.31L18.452,4.514L19.896,2.97C21.888,1.144 24.162,0.68 26.718,1.576L26.718,1.725L26.817,1.775" style="fill:#46b5ff;fill-opacity:0.34;fill-rule:nonzero;"/>
                    <path d="M20.693,7.65L19.996,6.157L19.399,5.161M33.838,7.999C34.303,6.804 34.784,5.841 35.282,5.111" style="fill:none;fill-rule:nonzero;stroke:#7dcbff;stroke-width:0.5px;"/>
                    <path d="M20.693,7.65C20.494,7.451 19.83,7.169 18.701,6.804C17.639,6.472 17.125,6.173 17.158,5.908L17.158,5.758C17.191,4.298 18.187,3.036 20.145,1.974C22.104,0.879 24.494,0.331 27.315,0.331C30.137,0.331 32.543,0.879 34.535,1.974C35.73,2.638 36.56,3.368 37.024,4.165C37.356,4.696 37.522,5.277 37.522,5.908C37.522,6.173 36.975,6.538 35.879,7.003C34.684,7.501 34.004,7.833 33.838,7.999L33.041,10.588C31.713,15.368 31.05,21.127 31.05,27.865C31.05,33.044 31.431,37.641 32.195,41.658C32.427,42.819 32.709,43.981 33.041,45.143L33.639,47.135C34.568,48.728 35.979,50.205 37.871,51.566C39.166,52.495 40.543,53.259 42.004,53.856L43.796,54.553C50.169,57.176 53.356,60.346 53.356,64.063C53.356,67.781 50.169,70.968 43.796,73.623C42.004,74.32 39.481,74.652 36.228,74.619C31.282,74.553 28.278,74.569 27.216,74.669L23.631,74.669L18.452,74.719C15.199,74.752 12.644,74.387 10.785,73.623C4.312,71.001 1.075,67.831 1.075,64.113C1.075,60.396 4.312,57.225 10.785,54.603L12.627,53.906C14.121,53.275 15.515,52.512 16.809,51.616C18.701,50.255 20.129,48.778 21.091,47.184L21.689,45.193L22.535,41.707C23.299,37.691 23.681,33.094 23.681,27.915C23.681,21.177 23.017,15.418 21.689,10.638L20.693,7.65" style="fill:none;fill-rule:nonzero;stroke:#a2d9fe;stroke-width:1px;"/>
                    <path d="M29.805,2.422L30.153,2.87L29.805,3.269L29.058,3.468L28.261,3.269L27.963,2.87C27.929,2.704 28.029,2.555 28.261,2.422L29.058,2.273L29.805,2.422M34.286,3.119C34.95,3.451 35.431,3.916 35.73,4.514C36.029,5.078 36.062,5.576 35.83,6.007C35.564,6.439 35.298,6.306 35.033,5.609C34.734,4.879 34.17,4.53 33.34,4.563L31.348,4.314C30.884,4.148 30.767,3.85 31,3.418C31.232,2.953 31.664,2.704 32.294,2.671C32.925,2.605 33.589,2.754 34.286,3.119M30.104,39.417C30.236,40.446 30.618,42.189 31.249,44.645C31.846,47.068 32.012,48.695 31.747,49.524L30.353,49.574C29.689,48.778 29.29,47.865 29.158,46.836L28.958,43.151L29.158,39.417C29.29,38.388 29.44,37.873 29.606,37.873C29.805,37.873 29.971,38.388 30.104,39.417M32.942,51.516C33.904,51.516 34.734,51.732 35.431,52.163C36.095,52.595 36.444,53.109 36.477,53.707C36.444,54.304 36.095,54.819 35.431,55.25C34.734,55.682 33.904,55.898 32.942,55.898C31.979,55.898 31.149,55.682 30.452,55.25C29.788,54.819 29.456,54.304 29.456,53.707C29.456,53.109 29.788,52.595 30.452,52.163C31.149,51.732 31.979,51.516 32.942,51.516M38.668,55.3C39.73,54.67 40.925,54.885 42.253,55.948C43.58,56.977 44.991,57.69 46.485,58.089C47.978,58.454 48.958,58.918 49.422,59.483C49.887,60.08 50.086,60.827 50.02,61.723C49.954,62.653 49.771,63.283 49.472,63.615L47.929,64.462L45.29,64.661C44.56,64.561 44.609,64.329 45.439,63.964C46.269,63.599 47.215,62.835 48.277,61.673C49.339,60.478 47.016,58.918 41.307,56.993L37.921,56.595C37.323,56.362 37.572,55.931 38.668,55.3" style="fill:#fff;fill-rule:nonzero;"/>
                    <path d="M21.34,8.547C21.871,8.414 22.486,9.244 23.183,11.036C23.913,12.795 24.544,14.986 25.075,17.609C25.539,20.231 25.772,22.488 25.772,24.38C25.739,26.305 25.473,27.318 24.975,27.417C24.444,27.517 24.129,26.654 24.029,24.828L23.73,18.156C23.564,15.534 23,13.293 22.037,11.434C21.075,9.576 20.842,8.613 21.34,8.547M23.78,49.425C23.315,50.421 22.801,51.234 22.237,51.865C21.639,52.495 21.158,52.728 20.793,52.562C20.428,52.396 20.262,51.898 20.295,51.068C20.361,50.238 20.61,49.309 21.042,48.28C21.473,47.251 21.971,46.421 22.535,45.79C23.133,45.193 23.614,44.977 23.979,45.143C24.344,45.276 24.51,45.774 24.477,46.637C24.444,47.466 24.212,48.396 23.78,49.425M24.726,51.865L25.473,51.068C25.739,51.699 25.888,52.363 25.921,53.06L25.473,55.001C24.809,55.466 24.046,55.831 23.183,56.097L18.95,56.744L14.419,56.943C12.826,57.043 11.532,57.408 10.536,58.039L9.938,57.69L11.233,56.545C12.262,55.549 13.39,54.703 14.619,54.006C15.482,53.508 16.328,53.076 17.158,52.711L17.556,52.512C18.452,53.043 19.482,53.309 20.643,53.309C22.237,53.309 23.598,52.827 24.726,51.865M9.54,63.914C10.702,65.308 12.195,66.321 14.021,66.951C15.847,67.582 17.722,67.997 19.647,68.196C22.104,68.428 22.668,69.623 21.34,71.781C20.311,73.474 18.701,74.254 16.511,74.121L10.586,73.076C8.693,72.511 6.901,71.698 5.208,70.636C3.548,69.54 2.436,68.063 1.872,66.204C1.208,63.914 1.673,62.171 3.266,60.976C4.826,59.748 6.552,59.217 8.445,59.383C7.548,60.545 7.913,62.055 9.54,63.914" style="fill:#09f;fill-opacity:0.43;fill-rule:nonzero;"/>
                    <path d="M19.05,51.068L18.253,51.616" style="fill:none;fill-rule:nonzero;stroke:#fff;stroke-width:0.5px;"/>
                </g>
                <g id="a" transform="matrix(1,0,0,1,345.897,192.84)">
                    <g id="b">
                        <path d="M-301.653,-145.656C-298.234,-148.046 -296.491,-151.232 -296.425,-155.216C-296.425,-156.245 -296.591,-157.24 -296.923,-158.203C-298.417,-162.585 -301.421,-165.257 -305.935,-166.219L-305.935,-167.016C-300.325,-167.481 -296.591,-164.858 -294.732,-159.149C-294.168,-157.489 -293.985,-155.83 -294.184,-154.17C-294.682,-149.788 -296.956,-146.917 -301.006,-145.556L-301.653,-145.656" style="fill:#09f;fill-opacity:0.29;fill-rule:nonzero;"/>
                        <path d="M-305.935,-166.219L-307.927,-166.468L-310.964,-166.319C-310.134,-166.087 -309.52,-165.605 -309.122,-164.875L-308.773,-164.078C-308.939,-163.083 -309.454,-162.336 -310.317,-161.838C-315.03,-162.103 -315.943,-164.261 -313.055,-168.311C-312.557,-168.974 -311.877,-169.423 -311.014,-169.655C-305.205,-170.75 -300.441,-169.157 -296.724,-164.875L-295.23,-162.933L-294.184,-161.19L-294.135,-161.091C-291.977,-156.975 -291.994,-152.743 -294.184,-148.394C-295.612,-145.606 -297.753,-143.482 -300.607,-142.021L-299.861,-141.224C-297.769,-141.722 -296.276,-141.175 -295.379,-139.581C-298.433,-136.66 -301.139,-137.059 -303.495,-140.776C-304.192,-141.838 -304.126,-142.851 -303.296,-143.813L-301.653,-145.656L-301.006,-145.556C-296.956,-146.917 -294.682,-149.788 -294.184,-154.17C-293.985,-155.83 -294.168,-157.489 -294.732,-159.149C-296.591,-164.858 -300.325,-167.481 -305.935,-167.016L-305.935,-166.219" style="fill:#09f;fill-opacity:0.12;fill-rule:nonzero;"/>
                        <path d="M-305.935,-166.219L-307.927,-166.468L-310.964,-166.319C-310.134,-166.087 -309.52,-165.605 -309.122,-164.875L-308.773,-164.078C-308.939,-163.083 -309.454,-162.336 -310.317,-161.838C-315.03,-162.103 -315.943,-164.261 -313.055,-168.311C-312.557,-168.974 -311.877,-169.423 -311.014,-169.655C-305.205,-170.75 -300.441,-169.157 -296.724,-164.875L-295.23,-162.933L-294.184,-161.19L-294.135,-161.091C-291.977,-156.975 -291.994,-152.743 -294.184,-148.394C-295.612,-145.606 -297.753,-143.482 -300.607,-142.021L-299.861,-141.224C-297.769,-141.722 -296.276,-141.175 -295.379,-139.581C-298.433,-136.66 -301.139,-137.059 -303.495,-140.776C-304.192,-141.838 -304.126,-142.851 -303.296,-143.813L-301.653,-145.656" style="fill:none;fill-rule:nonzero;stroke:#a2d9fe;stroke-width:1px;"/>
                        <path d="M-301.653,-145.656C-298.234,-148.046 -296.491,-151.232 -296.425,-155.216C-296.425,-156.245 -296.591,-157.24 -296.923,-158.203C-298.417,-162.585 -301.421,-165.257 -305.935,-166.219" style="fill:none;fill-rule:nonzero;stroke:#a2d9fe;stroke-width:0.5px;"/>
                    </g>
                </g>
                <g id="a1" serif:id="a" transform="matrix(-1.018,0,0,1,-297.084,192.94)">
                    <g id="b1" serif:id="b">
                        <path d="M-301.653,-145.656C-298.234,-148.046 -296.491,-151.232 -296.425,-155.216C-296.425,-156.245 -296.591,-157.24 -296.923,-158.203C-298.417,-162.585 -301.421,-165.257 -305.935,-166.219L-305.935,-167.016C-300.325,-167.481 -296.591,-164.858 -294.732,-159.149C-294.168,-157.489 -293.985,-155.83 -294.184,-154.17C-294.682,-149.788 -296.956,-146.917 -301.006,-145.556L-301.653,-145.656" style="fill:#09f;fill-opacity:0.29;fill-rule:nonzero;"/>
                        <path d="M-305.935,-166.219L-307.927,-166.468L-310.964,-166.319C-310.134,-166.087 -309.52,-165.605 -309.122,-164.875L-308.773,-164.078C-308.939,-163.083 -309.454,-162.336 -310.317,-161.838C-315.03,-162.103 -315.943,-164.261 -313.055,-168.311C-312.557,-168.974 -311.877,-169.423 -311.014,-169.655C-305.205,-170.75 -300.441,-169.157 -296.724,-164.875L-295.23,-162.933L-294.184,-161.19L-294.135,-161.091C-291.977,-156.975 -291.994,-152.743 -294.184,-148.394C-295.612,-145.606 -297.753,-143.482 -300.607,-142.021L-299.861,-141.224C-297.769,-141.722 -296.276,-141.175 -295.379,-139.581C-298.433,-136.66 -301.139,-137.059 -303.495,-140.776C-304.192,-141.838 -304.126,-142.851 -303.296,-143.813L-301.653,-145.656L-301.006,-145.556C-296.956,-146.917 -294.682,-149.788 -294.184,-154.17C-293.985,-155.83 -294.168,-157.489 -294.732,-159.149C-296.591,-164.858 -300.325,-167.481 -305.935,-167.016L-305.935,-166.219" style="fill:#09f;fill-opacity:0.12;fill-rule:nonzero;"/>
                        <path d="M-305.935,-166.219L-307.927,-166.468L-310.964,-166.319C-310.134,-166.087 -309.52,-165.605 -309.122,-164.875L-308.773,-164.078C-308.939,-163.083 -309.454,-162.336 -310.317,-161.838C-315.03,-162.103 -315.943,-164.261 -313.055,-168.311C-312.557,-168.974 -311.877,-169.423 -311.014,-169.655C-305.205,-170.75 -300.441,-169.157 -296.724,-164.875L-295.23,-162.933L-294.184,-161.19L-294.135,-161.091C-291.977,-156.975 -291.994,-152.743 -294.184,-148.394C-295.612,-145.606 -297.753,-143.482 -300.607,-142.021L-299.861,-141.224C-297.769,-141.722 -296.276,-141.175 -295.379,-139.581C-298.433,-136.66 -301.139,-137.059 -303.495,-140.776C-304.192,-141.838 -304.126,-142.851 -303.296,-143.813L-301.653,-145.656" style="fill:none;fill-rule:nonzero;stroke:#a2d9fe;stroke-width:1px;"/>
                        <path d="M-301.653,-145.656C-298.234,-148.046 -296.491,-151.232 -296.425,-155.216C-296.425,-156.245 -296.591,-157.24 -296.923,-158.203C-298.417,-162.585 -301.421,-165.257 -305.935,-166.219" style="fill:none;fill-rule:nonzero;stroke:#a2d9fe;stroke-width:0.5px;"/>
                    </g>
                </g>
            </g>
        </g>
    </g>
</svg>
