<?xml version="1.0" encoding="UTF-8"?>
<svg version="1.1" viewBox="0 0 131.31 77.9" xmlns="http://www.w3.org/2000/svg" xmlns:cc="http://creativecommons.org/ns#" xmlns:dc="http://purl.org/dc/elements/1.1/" xmlns:rdf="http://www.w3.org/1999/02/22-rdf-syntax-ns#" xmlns:xlink="http://www.w3.org/1999/xlink">
<metadata>
<rdf:RDF>
<cc:Work rdf:about="">
<dc:format>image/svg+xml</dc:format>
<dc:type rdf:resource="http://purl.org/dc/dcmitype/StillImage"/>
</cc:Work>
</rdf:RDF>
</metadata>
<g transform="translate(-253.37 -111.32)">
<use transform="translate(253.4,111.35)" width="131.25" height="77.849998" xlink:href="#a"/>
</g>
<defs>
<g id="a" transform="translate(-253.4,-111.35)">
<path d="m327.25 129.4 3.15-1 0.1-0.1 8.65-1.25-17.45 8.8q13-2.95 21.9-3.35-9.65 1.3-18.6 4.3l4.6-0.35 9.45-1.05 10.95 0.5 8.85-1.3q1.9 0.7 3.2 1.6 0.35 1.95-12.4 4.15 9.95 3.9 19.15 11 6.85 4.6 10.5 10.1 0.9 2.5-11.75-5.7 9.65 10.05 16.4 21.5 1.4 3.85 0 6.75-0.55 2.1-7.75-5.75l4.5 10.35-2.9 0.6-4.25-7.75-5.05-5.9 1.3-6.6h-2.5l-4.7 2.55q-0.7-0.4-1.4-0.65-2.5-1.05-5.2-0.85l1.95-6.65-5.65 6.3-17.25 2.2-0.35-1.15-1.15 1.9q-2.7 1.2-4.95 2.7l-0.7-1.3 0.25-2.35-9.35-1.3 0.25 3.4-6.25-2.3 1 3.25-3.5-2.1 1.65 1.85-1.9-0.35-3.3-2.35 2.5-3.5-15.15 3.1-1.1-1.1-4.05 3.45-8.75-1.5 4 2.65h-19l2 1.75-8.75 0.35 0.05-0.3-0.35-1-0.05-0.05q-1.7-4.45-2.75-8.8-1.3-5.35-1.7-10.55l-0.1-1.25q-0.25-3.25-0.1-6.45v-0.2l8.1 21.7 1.1-2.8 1.35 6.05 3.25-3.15 0.65 1.4 0.45-0.3 1.9-1.85q0.1 0.5 0.45 0.8l2.05 1.85q1.25-0.6 2.05-1.55 0.85-0.9 1.1-1.85l-0.05 0.9-0.1 2.95 3.5-7.75 3.25 5 3.25-15 2.75-5-0.25 14.5q1.25-10.95 7-20.25 9.6-12.55 18.35-21.75 5.95-6.25 11.45-10.9-4.35 5.3-8.55 10.9-7.3 9.7-14.15 20.4l-1.15 1.8-2.35 6.1q25.7-20.4 28.4-21.15m0.9 42.25 2.15 0.95v-0.05l-2.15-0.9m35.55-18.45 3.85 2.55-3.85-2.55m-17.75-12.25 3.7-0.6-3.7 0.6m-68.4 13.65-1.75 3.15-2.8 4.9v-2.75l7.45-20.8-2.9 15.5m44.95 7.4h-6l4.5-7.75-8.75 4.5q-0.25-6.5 7.75-13l15.25-3.5q-8-2.25-18.75 0.35-9.05 3.05-17.4 18.75l-2.6-3.6q-1.95 3.9-1.45 9.3v2.05l27.45-7.1" fill="#d8ccb1" fill-rule="evenodd"/>
<path d="m330.5 128.3-0.1 0.1-3.15 1q-2.7 0.75-28.4 21.15l2.35-6.1 1.15-1.8q15.6-14.55 31-20.4 5.7-2.2 11.45-3.15 2.05-0.1-3.35 3.15l-9.8 5.45-1.15 0.6m-5.45-16.95q-5.5 4.65-11.45 10.9-8.75 9.2-18.35 21.75-5.75 9.3-7 20.25l0.25-14.5-2.75 5-3.25 15-3.25-5-3.5 7.75 0.1-2.95 0.05-0.9q-0.25 0.95-1.1 1.85-0.8 0.95-2.05 1.55l-2.05-1.85q-0.35-0.3-0.45-0.8l-1.9 1.85-0.45 0.3-0.65-1.4-3.25 3.15-1.35-6.05q2.5-5.95 5.8-11.4 5.4-9.4 12-16.75l-7.45 20.8v2.75l2.8-4.9 1.75-3.15q7.75-10.85 18.5-20.75 6.55-6.4 13.1-11.6 7.95-6.35 15.9-10.9m18.55 21.15 4-0.05q7.05 0.55 11.25 2.15l-8.85 1.3-10.95-0.5-9.45 1.05-4.6 0.35q8.95-3 18.6-4.3m-21.1 29.5-27.45 7.1v-2.05q-0.5-5.4 1.45-9.3l2.6 3.6q8.35-15.7 17.4-18.75 10.75-2.6 18.75-0.35l-15.25 3.5q-8 6.5-7.75 13l8.75-4.5-4.5 7.75h6" fill="#eee6d9" fill-rule="evenodd"/>
<path d="m330.5 128.3-0.1 0.1-3.15 1m-26.05 15.05 1.15-1.8m-43.9 34.3 8.75-0.35-2-1.75h19l-4-2.65 8.75 1.5 4.05-3.45 1.1 1.1m15.95 2.75 1.9 0.35-1.65-1.85 3.5 2.1-1-3.25 6.25 2.3-0.25-3.4 9.35 1.3-0.25 2.35m0.7 1.3q2.25-1.5 4.95-2.7l1.15-1.9 0.35 1.15 17.25-2.2 5.65-6.3-1.95 6.65q2.7-0.2 5.2 0.85 0.7 0.25 1.4 0.65l4.7-2.55h2.5l-1.3 6.6 5.05 5.9 4.25 7.75 2.9-0.6m-13.15-32.85-3.85-2.55m-14.05-12.85-3.7 0.6m-70.15 16.8 1.75-3.15" fill="none" stroke="#000" stroke-linecap="round" stroke-linejoin="round" stroke-opacity=".30196" stroke-width=".05"/>
<path d="m302.35 142.65q6.85-10.7 14.15-20.4 4.2-5.6 8.55-10.9m-62.4 55.9-1.1 2.8-8.1-21.7v0.2q-0.15 3.2 0.1 6.45l0.1 1.25q0.4 5.2 1.7 10.55 1.05 4.35 2.75 8.8m122.6 13-4.5-10.35q7.2 7.85 7.75 5.75 1.4-2.9 0-6.75-6.75-11.45-16.4-21.5m-65.2-13.1q15.6-14.55 31-20.4 5.7-2.2 11.45-3.15 2.05-0.1-3.35 3.15l-9.8 5.45-1.15 0.6 8.65-1.25-17.45 8.8q13-2.95 21.9-3.35l4-0.05q7.05 0.55 11.25 2.15 1.9 0.7 3.2 1.6 0.35 1.95-12.4 4.15 9.95 3.9 19.15 11 6.85 4.6 10.5 10.1 0.9 2.5-11.75-5.7m-90-1.15q7.75-10.85 18.5-20.75 6.55-6.4 13.1-11.6 7.95-6.35 15.9-10.9m-47.5 43.25 2.9-15.5m-21.95 37.55-0.4-1.05m4.55-8.35q2.5-5.95 5.8-11.4 5.4-9.4 12-16.75" fill="none" stroke="#000" stroke-linecap="round" stroke-linejoin="round" stroke-opacity=".30196" stroke-width=".05"/>
</g>
</defs>
</svg>
