<?xml version="1.0" encoding="UTF-8"?>
<svg version="1.1" viewBox="0 0 85.2 62.577" xmlns="http://www.w3.org/2000/svg" xmlns:cc="http://creativecommons.org/ns#" xmlns:dc="http://purl.org/dc/elements/1.1/" xmlns:rdf="http://www.w3.org/1999/02/22-rdf-syntax-ns#" xmlns:xlink="http://www.w3.org/1999/xlink">
<metadata>
<rdf:RDF>
<cc:Work rdf:about="">
<dc:format>image/svg+xml</dc:format>
<dc:type rdf:resource="http://purl.org/dc/dcmitype/StillImage"/>
</cc:Work>
</rdf:RDF>
</metadata>
<g transform="translate(-214.53 -172.8)">
<use transform="translate(214.55,172.8)" width="85.150002" height="62.549999" xlink:href="#a"/>
</g>
<defs>
<g id="a" transform="translate(-214.55,-172.8)">
<path d="m217.25 181.05v-0.05q3.4-1.7 6.85-3.35l14.9-3.25q20.45-2.9 40.95-0.55l15.7 2.05 3.95 1.5-1.7 0.25-2.4-1-15.25-1.75h-0.25q-20.4-2.4-40.8 0.4l-14.95 3.2-5.2 3.35 10 4.4 7.65 3.35h24.5l2.3-0.75 0.65-0.25 8-2.8 6.5 2.1-17.6 26.8q-8.8-14.85-6.2-5.2l-4.2 4.6v-5.6l-3.7 6.1-5.25-6.75v3l-4-9.75-12.5-14.25-6.25-1.6-4.3-2.95h-0.1l2.7-1.25m33.2 15.65-1.4-0.4-0.5 0.35-3.3 1.05q2.5 2.4 6.4 2.05 5.4-0.3 8.25-2.15v7.9l8.95-13.8-18.6 5.6 0.2-0.6" fill="#c7a781" fill-rule="evenodd"/>
<path d="m299.6 177.4 0.1-0.05-5.5 6.5-12.75 6.75-13.25 18.5-7 17.5-3-7v15.75l-4.5-16.5v5.75l-3.25-6.5-3.5 3.5v-7l3.7-6.1v5.6l4.2-4.6q-2.6-9.65 6.2 5.2l17.6-26.8-6.5-2.1 7.4-2.6 0.95-0.3 12.95-4.55 4.45-0.7 1.7-0.25m-49.15 19.3-0.2 0.6 18.6-5.6-8.95 13.8v-7.9q-2.85 1.85-8.25 2.15-3.9 0.35-6.4-2.05l3.3-1.05 0.5-0.35 1.4 0.4" fill="#7d5c3b" fill-rule="evenodd"/>
<path d="m242.6 189.6-4-3.2-9.55-0.15-10-4.4 5.2-3.35 14.95-3.2q20.4-2.8 40.8-0.4h0.25l15.25 1.75 2.4 1-4.45 0.7-12.95 4.55-0.95 0.3h-6.35l-6 1.8-3.05 3.6-0.65 0.25-2.3 0.75h-18.6" fill="#5e452d" fill-rule="evenodd"/>
<path d="m299.6 177.4 0.1-0.05-5.5 6.5-12.75 6.75-13.25 18.5-3.5 8.75m-17.75-3.25-5.25-6.75v3l-4-9.75-12.5-14.25-6.25-1.6m10.1 1 7.65 3.35h24.5l2.3-0.75m-34.45-2.6-10-4.4m61.45 1.05 12.95-4.55 4.45-0.7m-18.35 5.55-7.4 2.6m-8 2.8 8-2.8" fill="none" stroke="#000" stroke-linecap="round" stroke-linejoin="round" stroke-opacity=".30196" stroke-width=".05"/>
<path d="m264.7 217.85-3.5 8.75-3-7v15.75l-4.5-16.5v5.75l-3.25-6.5-3.5 3.5v-7m-28-29.35-4.3-2.95h-0.1l2.7-1.25" fill="none" stroke="#000" stroke-linecap="round" stroke-linejoin="round" stroke-opacity=".30196" stroke-width=".05"/>
</g>
</defs>
</svg>
