<?xml version="1.0" encoding="UTF-8"?>
<svg version="1.1" viewBox="0 0 42.961 31.182" xmlns="http://www.w3.org/2000/svg" xmlns:cc="http://creativecommons.org/ns#" xmlns:dc="http://purl.org/dc/elements/1.1/" xmlns:rdf="http://www.w3.org/1999/02/22-rdf-syntax-ns#" xmlns:xlink="http://www.w3.org/1999/xlink">
<metadata>
<rdf:RDF>
<cc:Work rdf:about="">
<dc:format>image/svg+xml</dc:format>
<dc:type rdf:resource="http://purl.org/dc/dcmitype/StillImage"/>
</cc:Work>
</rdf:RDF>
</metadata>
<g transform="translate(-299.21 -204.3)">
<use transform="matrix(6.6515 .6607 -.2904 6.6802 300.12 203.08)" width="6.4000001" height="4.4000001" xlink:href="#a"/>
</g>
<defs>
<g id="a" transform="translate(1.85 .95)">
<use transform="translate(-1.85 -.95)" width="6.4000001" height="4.4000001" xlink:href="#b"/>
</g>
<g id="b" transform="translate(1.85 .95)">
<path d="m0-0.8 0.25-0.15 3.1 0.75-0.3 0.4q-1.8 0-3.05-1m-0.9 0.45 0.65-0.3q0.85 1 2.65 1.5l-0.3 0.35-2.1-0.65-0.25-0.1-0.65-0.8" fill="#9c6c27" fill-rule="evenodd"/>
<path d="m3.05 0.2 0.3-0.4 0.2 0.25-0.5 0.15m0.95 0.45 0.05 0.05-0.7 0.9-1.15 0.3-0.1-0.7 0.3-0.35 0.8 0.15 0.05 0.25 0.2-0.3 0.1-0.1v0.05l0.45-0.25" fill="#d1954b" fill-rule="evenodd"/>
<path d="m-1.75 0.9 0.15-0.9 1.35 0.45 0.25 0.1q1 0.85 2.15 1l0.05 0.35-0.55 0.6-1.05-0.5v-0.4l-0.8-0.45-0.5 0.25-1.05-0.5m3.55 0.7-0.45-0.1-0.1 0.35 0.25 0.1 0.3-0.35" fill="#80572a" fill-rule="evenodd"/>
<path d="m2.45 3.45-4.3-1.85 0.1-0.7 1.05 0.5 0.5-0.25 0.8 0.45v0.4l1.05 0.5 0.55-0.6 0.25 1.55m-0.65-1.85-0.3 0.35-0.25-0.1 0.1-0.35 0.45 0.1" fill="#4f5c3a" fill-rule="evenodd"/>
<path d="m4.05 0.7 0.5 0.7-2.1 2.05-0.25-1.55 1.15-0.3 0.7-0.9m-0.5 0.15-0.1 0.1-0.2 0.3-0.05-0.25-0.05-0.15h0.4" fill="#81955e" fill-rule="evenodd"/>
<path d="m0-0.8q1.25 1 3.05 1l-0.65 0.65q-1.8-0.5-2.65-1.5l0.25-0.15" fill="#805920" fill-rule="evenodd"/>
<path d="M 3.55,0.05 4,0.65 3.55,0.9 V 0.85 H 3.15 L 3.2,1 2.4,0.85 3.05,0.2 3.55,0.05 M -1.6,0 -0.95,-0.3 -0.9,-0.35 -0.25,0.45 -1.6,0" fill="#bf8031" fill-rule="evenodd"/>
<path d="M 2.1,1.2 2.15,1.55 Q 1,1.4 0,0.55 L 2.1,1.2" fill="#714f1c" fill-rule="evenodd"/>
<path d="m3.35-0.2-3.1-0.75-0.25 0.15m3.35 0.6 0.2 0.25 0.45 0.6 0.05 0.05 0.5 0.7-2.1 2.05-4.3-1.85 0.1-0.7 0.15-0.9 0.65-0.3m0.05-0.05 0.65-0.3 0.25-0.15" fill="none" stroke="#000" stroke-linecap="round" stroke-linejoin="round" stroke-opacity=".30196" stroke-width=".05"/>
</g>
</defs>
</svg>
