<?xml version="1.0" encoding="UTF-8"?>
<svg version="1.1" viewBox="0 0 24.512 25.45" xmlns="http://www.w3.org/2000/svg" xmlns:cc="http://creativecommons.org/ns#" xmlns:dc="http://purl.org/dc/elements/1.1/" xmlns:rdf="http://www.w3.org/1999/02/22-rdf-syntax-ns#" xmlns:xlink="http://www.w3.org/1999/xlink">
<metadata>
<rdf:RDF>
<cc:Work rdf:about="">
<dc:format>image/svg+xml</dc:format>
<dc:type rdf:resource="http://purl.org/dc/dcmitype/StillImage"/>
</cc:Work>
</rdf:RDF>
</metadata>
<g transform="translate(-238.96 -172.98)">
<use transform="translate(239,172.9)" width="24.450001" height="25.5" xlink:href="#a"/>
</g>
<defs>
<g id="a" transform="translate(-239,-172.9)">
<path d="m244.2 186.95q0.9-0.55 0.25-1.2-5.5-1.85-5.25-3.35 0.55-0.65 2.45-1.05l2.5-0.1 0.7 0.2 1.2 0.6q1.5 1.4 1.3 1.8 0.65-0.25 0.25-1.3-1.15-3.3-2.8-6.3l-0.1-0.4q-0.6-2.3 0.3-2.75l1.35-0.1 0.15 0.05q1.35 0.35 3.45 2.1l0.8 0.7 0.35 0.3 0.9 0.95 0.75 0.85 0.95 1.25 0.45 0.75v0.05l2.5 0.9 0.45 0.1 0.2 0.1 0.15 0.05 0.45 0.1 0.25 0.1 0.45 0.15 0.35 0.15 3.5 1.9 0.4 0.3 0.05 0.25 0.1 0.65 0.45 4.2-0.05 1.75-0.05 0.2-0.1 0.5-0.65 2.9-6.05-5.95 0.2 0.5 0.35 1.25 0.05 0.25 0.1 0.35 0.05 0.2q0.45 1.75 0.3 2.55v0.1l-0.3 0.5-6.75-3.95q-0.35-0.35-0.8-0.25-3.85 2.4-6.3 1.2l-0.3-0.5-0.3-0.6v-0.15q-0.1-1.5 1.05-2.35l0.25-0.25 0.05-0.25m9.95-6.95 0.25 0.4 0.05 0.15 0.05 0.1 0.95 1.85-0.95-1.85-0.05-0.1-0.05-0.15-0.25-0.4m7.75 4.35q-2.05-1.2-5.8-2.25 3.75 1.05 5.8 2.25m-9-4.3q-1.35-2-3.35-3.5 2 1.5 3.35 3.5m-5.5-5.1 0.9 0.65-0.9-0.65m-2 7.65q-2.3-0.85-5-0.1 2.7-0.75 5 0.1" fill="#8c7b47" fill-rule="evenodd"/>
<path d="m262.6 194.3-0.5 3.65-0.05 0.45-0.2-0.3-0.3-0.6-0.05-0.05-3.55-3.65-0.3-0.2-0.05-0.05v-0.1q0.15-0.8-0.3-2.55l-0.05-0.2-0.1-0.35-0.05-0.25-0.35-1.25-0.2-0.5 6.05 5.95" fill="#5b512f" fill-rule="evenodd"/>
<path d="m244.2 186.95-0.05-0.3q-0.3-0.65-2.2-1.55-3.15-1.45-2.95-2.3l0.2-0.4q-0.25 1.5 5.25 3.35 0.65 0.65-0.25 1.2m1.85-4.9 0.3 0.15q1.05 0.6-0.8-3.9l-0.75-2.05q1.65 3 2.8 6.3 0.4 1.05-0.25 1.3 0.2-0.4-1.3-1.8m11.25 12-0.15 0.05-0.75 0.05q-1-0.2-2.6-1.35l-0.25-0.2-2.55-1.6-0.6-0.3h-0.3q-0.8 0.1-2.7 1-2 0.95-3.1 0.35h-0.05l-0.3-0.2-0.5-0.8q2.45 1.2 6.3-1.2 0.45-0.1 0.8 0.25l6.75 3.95" fill="#6d6238" fill-rule="evenodd"/>
<path d="m239.2 182.4-0.2 0.4q-0.2 0.85 2.95 2.3 1.9 0.9 2.2 1.55l0.05 0.3m-5-4.55q0.55-0.65 2.45-1.05l2.5-0.1 0.7 0.2 1.5 0.75q1.05 0.6-0.8-3.9l-0.75-2.05m-0.1-0.4q-0.6-2.3 0.3-2.75l1.35-0.1 0.15 0.05q1.35 0.35 3.45 2.1l0.8 0.7 0.35 0.3 0.9 0.95 0.75 0.85 0.95 1.25 0.45 0.75v0.05l2.5 0.9 0.45 0.1 0.2 0.1 0.15 0.05 0.45 0.1 0.25 0.1 0.45 0.15 0.35 0.15 3.5 1.9 0.4 0.3 0.05 0.25 0.1 0.65 0.45 4.2-0.05 1.75-0.05 0.2-0.1 0.5-0.65 2.9-0.5 3.65-0.05 0.45-0.2-0.3-0.3-0.6-0.05-0.05-3.55-3.65-0.3-0.2-0.05-0.05-0.3 0.5-0.15 0.05-0.75 0.05q-1-0.2-2.6-1.35l-0.25-0.2-2.55-1.6-0.6-0.3h-0.3q-0.8 0.1-2.7 1-2 0.95-3.1 0.35h-0.05l-0.3-0.2-0.5-0.8-0.3-0.5-0.3-0.6v-0.15q-0.1-1.5 1.05-2.35l0.25-0.25m11.3-4.7-0.95-1.85-0.05-0.1-0.05-0.15-0.25-0.4m3.45 13.55v-0.1q0.15-0.8-0.3-2.55l-0.05-0.2-0.1-0.35-0.05-0.25-0.35-1.25-0.2-0.5" fill="none" stroke="#5a3c1f" stroke-linecap="round" stroke-linejoin="round" stroke-width=".05"/>
<path d="m256.1 182.1q3.75 1.05 5.8 2.25m-13.6-8.75-0.9-0.65m2.15 1.6q2 1.5 3.35 3.5m-12.5 2.45q2.7-0.75 5 0.1" fill="none" stroke="#fff" stroke-linecap="round" stroke-linejoin="round"/>
</g>
</defs>
</svg>
