<?xml version="1.0" encoding="UTF-8"?>
<svg version="1.1" viewBox="0 0 60.328 57.52" xmlns="http://www.w3.org/2000/svg" xmlns:cc="http://creativecommons.org/ns#" xmlns:dc="http://purl.org/dc/elements/1.1/" xmlns:rdf="http://www.w3.org/1999/02/22-rdf-syntax-ns#" xmlns:xlink="http://www.w3.org/1999/xlink">
<metadata>
<rdf:RDF>
<cc:Work rdf:about="">
<dc:format>image/svg+xml</dc:format>
<dc:type rdf:resource="http://purl.org/dc/dcmitype/StillImage"/>
</cc:Work>
</rdf:RDF>
</metadata>
<g transform="translate(-261.04 -182.39)">
<use transform="matrix(-.4814 .4058 .4058 .4814 285.79 173.77)" width="78.050003" height="108.1" xlink:href="#a"/>
</g>
<defs>
<g id="a" transform="translate(52.85,60)">
<use transform="translate(-52.85,-60)" width="78.050003" height="108.1" xlink:href="#b"/>
</g>
<g id="b" transform="translate(52.85,60)">
<path d="m-25.8-59.15q5.95 0 10 4.05 4.25 4.25 4.25 10.2t-4.25 10q-4.05 4.25-10 4.25t-10.2-4.25q-4.05-4.05-4.05-10t4.05-10.2q4.25-4.05 10.2-4.05m-6.3 6.9q-1.3 0-2.25 0.85-0.6 0.65-0.7 1.5v0.6l0.45 1.9 0.25 0.25q0.95 0.85 2.25 0.85 1.25 0 2.05-0.85 0.9-0.8 0.95-2.15-0.05-1.25-0.95-2.1-0.8-0.85-2.05-0.85" fill="#fe98db" fill-opacity=".47059" fill-rule="evenodd"/>
<path d="m-32.1-52.25q1.25 0 2.05 0.85 0.9 0.85 0.95 2.1-0.05 1.35-0.95 2.15-0.8 0.85-2.05 0.85-1.3 0-2.25-0.85l-0.25-0.25-0.45-1.9v-0.6q0.1-0.85 0.7-1.5 0.95-0.85 2.25-0.85" fill="#fff" fill-rule="evenodd"/>
<path d="m-25.8-59.15q5.95 0 10 4.05 4.25 4.25 4.25 10.2t-4.25 10q-4.05 4.25-10 4.25t-10.2-4.25q-4.05-4.05-4.05-10t4.05-10.2q4.25-4.05 10.2-4.05z" fill="none" stroke="#f39" stroke-linecap="round" stroke-linejoin="round" stroke-width="1.75"/>
<path d="m-14.15-44.55q0 4.45-3.2 7.6-3.2 3.2-7.95 3.25l-3.8-0.6q5.3-0.35 9-4.05 3.9-3.95 3.8-9.5 0.05-2.15-0.45-4.05 2.6 3.2 2.6 7.35" fill="#ff037b" fill-opacity=".24314" fill-rule="evenodd"/>
<path d="m-32.55-5.7 0.45 1.9 0.25 0.25q0.95 0.85 2.25 0.85 1.25 0 2.05-0.85 0.9-0.8 0.95-2.15-0.05-1.25-0.95-2.1-0.8-0.85-2.05-0.85-1.3 0-2.25 0.85-0.6 0.65-0.7 1.5v0.6m-0.95-5.8q4.25-4.05 10.2-4.05t10 4.05q4.25 4.25 4.25 10.2 0 3.25-1.25 5.9-1.1 2.25-3 4.1-2.6 2.7-5.95 3.7l-4.05 0.55q-5.95 0-10.2-4.25-4.05-4.05-4.05-10t4.05-10.2" fill="#fe98db" fill-opacity=".47059" fill-rule="evenodd"/>
<path d="m-32.55-5.7v-0.6q0.1-0.85 0.7-1.5 0.95-0.85 2.25-0.85 1.25 0 2.05 0.85 0.9 0.85 0.95 2.1-0.05 1.35-0.95 2.15-0.8 0.85-2.05 0.85-1.3 0-2.25-0.85l-0.25-0.25-0.45-1.9" fill="#fff" fill-rule="evenodd"/>
<path d="m-33.5-11.5q4.25-4.05 10.2-4.05t10 4.05q4.25 4.25 4.25 10.2 0 3.25-1.25 5.9-1.1 2.25-3 4.1-2.6 2.7-5.95 3.7l-4.05 0.55q-5.95 0-10.2-4.25-4.05-4.05-4.05-10t4.05-10.2z" fill="none" stroke="#f39" stroke-linecap="round" stroke-linejoin="round" stroke-width="1.75"/>
<path d="m-13.8-4.25q0.05-2.15-0.45-4.05 2.6 3.2 2.6 7.35 0 4.45-3.2 7.6-3.2 3.2-7.95 3.25-2.1 0-3.8-0.6 5.3-0.35 9-4.05 3.9-3.95 3.8-9.5" fill="#ff037b" fill-opacity=".24314" fill-rule="evenodd"/>
<path d="m20.1-5.55q4.25 4.25 4.25 10.2t-4.25 10q-4.05 4.25-10 4.25t-10.2-4.25q-4.05-4.05-4.05-10t4.05-10.2q4.25-4.05 10.2-4.05t10 4.05" fill="#fa2993" fill-opacity=".47059" fill-rule="evenodd"/>
<path d="m20.1-5.55q4.25 4.25 4.25 10.2t-4.25 10q-4.05 4.25-10 4.25t-10.2-4.25q-4.05-4.05-4.05-10t4.05-10.2q4.25-4.05 10.2-4.05t10 4.05z" fill="none" stroke="#f39" stroke-linecap="round" stroke-linejoin="round" stroke-width="1.75"/>
<path d="m22.6 6.25q0 4.45-3.2 7.6-3.2 3.2-7.95 3.25l-3.8-0.6q5.3-0.35 9-4.05 3.9-3.95 3.8-9.5 0.05-2.15-0.45-4.05 2.6 3.2 2.6 7.35" fill="#ff037b" fill-opacity=".24314" fill-rule="evenodd"/>
<path d="m-28.5 18.75q5.95 0 10 4.05 4.25 4.25 4.25 10.2t-4.25 10q-4.05 4.25-10 4.25t-10.2-4.25q-4.05-4.05-4.05-10t4.05-10.2q4.25-4.05 10.2-4.05m-4.25 7.75q-0.8-0.85-2.05-0.85-1.3 0-2.25 0.85-0.6 0.65-0.7 1.5v0.6l0.45 1.9 0.25 0.25q0.95 0.85 2.25 0.85 1.25 0 2.05-0.85 0.9-0.8 0.95-2.15-0.05-1.25-0.95-2.1" fill="#fe98db" fill-opacity=".47059" fill-rule="evenodd"/>
<path d="m-32.75 26.5q0.9 0.85 0.95 2.1-0.05 1.35-0.95 2.15-0.8 0.85-2.05 0.85-1.3 0-2.25-0.85l-0.25-0.25-0.45-1.9v-0.6q0.1-0.85 0.7-1.5 0.95-0.85 2.25-0.85 1.25 0 2.05 0.85" fill="#fff" fill-rule="evenodd"/>
<path d="m-28.5 18.75q5.95 0 10 4.05 4.25 4.25 4.25 10.2t-4.25 10q-4.05 4.25-10 4.25t-10.2-4.25q-4.05-4.05-4.05-10t4.05-10.2q4.25-4.05 10.2-4.05z" fill="none" stroke="#f39" stroke-linecap="round" stroke-linejoin="round" stroke-width="1.75"/>
<path d="m-19 30.15q0-2.15-0.45-4.05 2.6 3.1 2.6 7.4 0 4.25-3.1 7.6-3.3 3.05-8.05 3.05l-3.85-0.45q5.25-0.5 9.05-4.05 3.8-4.05 3.8-9.5" fill="#ff037b" fill-opacity=".24314" fill-rule="evenodd"/>
<path d="m14.3-39.9q4.25 4.25 4.25 10.2t-4.25 10q-4.05 4.25-10 4.25t-10.2-4.25q-4.05-4.05-4.05-10t4.05-10.2q4.25-4.05 10.2-4.05t10 4.05m-13.3 5.8q-0.05-1.25-0.95-2.1-0.8-0.85-2.05-0.85-1.3 0-2.25 0.85-0.6 0.65-0.7 1.5v0.6l0.45 1.9 0.25 0.25q0.95 0.85 2.25 0.85 1.25 0 2.05-0.85 0.9-0.8 0.95-2.15" fill="#fe98db" fill-opacity=".47059" fill-rule="evenodd"/>
<path d="m1-34.1q-0.05 1.35-0.95 2.15-0.8 0.85-2.05 0.85-1.3 0-2.25-0.85l-0.25-0.25-0.45-1.9v-0.6q0.1-0.85 0.7-1.5 0.95-0.85 2.25-0.85 1.25 0 2.05 0.85 0.9 0.85 0.95 2.1" fill="#fff" fill-rule="evenodd"/>
<path d="m14.3-39.9q4.25 4.25 4.25 10.2t-4.25 10q-4.05 4.25-10 4.25t-10.2-4.25q-4.05-4.05-4.05-10t4.05-10.2q4.25-4.05 10.2-4.05t10 4.05z" fill="none" stroke="#f39" stroke-linecap="round" stroke-linejoin="round" stroke-width="1.75"/>
<path d="m13.8-32.55q0-2.15-0.45-4.05 2.6 3.1 2.6 7.4 0 4.25-3.1 7.6-3.3 3.05-8.05 3.05l-3.85-0.45q5.25-0.5 9.05-4.05 3.8-4.05 3.8-9.5" fill="#ff037b" fill-opacity=".24314" fill-rule="evenodd"/>
<path d="m-46.3-14.7q-0.6 0.65-0.7 1.5v0.6l0.45 1.9 0.25 0.25q0.95 0.85 2.25 0.85 1.25 0 2.05-0.85 0.9-0.8 0.95-2.15-0.05-1.25-0.95-2.1-0.8-0.85-2.05-0.85-1.3 0-2.25 0.85m-1.65-3.7q4.25-4.05 10.2-4.05t10 4.05q4.25 4.25 4.25 10.2t-4.25 10q-4.05 4.25-10 4.25t-10.2-4.25q-4.05-4.05-4.05-10t4.05-10.2" fill="#fe98db" fill-opacity=".47059" fill-rule="evenodd"/>
<path d="m-46.3-14.7q0.95-0.85 2.25-0.85 1.25 0 2.05 0.85 0.9 0.85 0.95 2.1-0.05 1.35-0.95 2.15-0.8 0.85-2.05 0.85-1.3 0-2.25-0.85l-0.25-0.25-0.45-1.9v-0.6q0.1-0.85 0.7-1.5" fill="#fff" fill-rule="evenodd"/>
<path d="m-47.95-18.4q4.25-4.05 10.2-4.05t10 4.05q4.25 4.25 4.25 10.2t-4.25 10q-4.05 4.25-10 4.25t-10.2-4.25q-4.05-4.05-4.05-10t4.05-10.2z" fill="none" stroke="#f39" stroke-linecap="round" stroke-linejoin="round" stroke-width="1.75"/>
<path d="m-28.25-11.05q0-2.15-0.45-4.05 2.6 3.1 2.6 7.4 0 4.25-3.1 7.6-3.3 3.05-8.05 3.05l-3.85-0.45q5.25-0.5 9.05-4.05 3.8-4.05 3.8-9.5" fill="#ff037b" fill-opacity=".24314" fill-rule="evenodd"/>
</g>
</defs>
</svg>
