<?xml version="1.0" encoding="UTF-8"?>
<svg version="1.1" viewBox="0 0 108.5 50.15" xmlns="http://www.w3.org/2000/svg" xmlns:cc="http://creativecommons.org/ns#" xmlns:dc="http://purl.org/dc/elements/1.1/" xmlns:rdf="http://www.w3.org/1999/02/22-rdf-syntax-ns#" xmlns:xlink="http://www.w3.org/1999/xlink">
<metadata>
<rdf:RDF>
<cc:Work rdf:about="">
<dc:format>image/svg+xml</dc:format>
<dc:type rdf:resource="http://purl.org/dc/dcmitype/StillImage"/>
</cc:Work>
</rdf:RDF>
</metadata>
<g transform="translate(-276.62 -240.32)">
<use transform="translate(276.65,240.35)" width="108.45" height="50.099998" xlink:href="#a"/>
</g>
<defs>
<g id="a" transform="translate(-276.65,-240.35)">
<path d="m363.95 248h-0.2l-1.75 4.9 12.1 9.15 6.55-2.7v-0.05l0.8-0.45-1.2-3.5 1.95-0.75 1.65 1.4-14.4 32.9-2.05-0.15-3-5.15v2.85l-0.15-0.4-0.4 2.95-15.1-2.1-3.9-7.25-0.45 2.9-0.35-0.75-0.9 4.6-15.45-0.95-3.85-13.55-2.85 0.7 0.8-5.5-3.6-3.75-6.95 2.5-0.7 4.2-0.25 0.15 1 4.8-11.8 2.9-3.1 3.35-19.75-5.35 10.4-17.15 18.15-0.8 10.9-8.35 13.1-0.3 7.85-3.6 0.05 0.1 1.65-0.95-1.65-2.55 15.25-1.05-0.2 2.25v0.15l4.6 1.9 3.85-2.3-0.75-2.55 5.35-0.35 6.2 5.2v0.45l-6.95 0.45-0.5 1.55m-8.75 5.2 2.95 1 0.15-1.2-2.5-0.75-0.05 0.1-0.55 0.85m-16.25-0.9-2.7-1.05-2.3 2.85 3.5 2.55 2.2-3.7-0.7-0.65m6 4.8 4.95-4.3-1.8-3.6-5-0.4-0.85 1 1.6 2.25-2.9 3.1 4 1.95m-40.1 8.75 0.05-0.05-1.85-3.25-3.7 0.25-5.1 4.8 1.25 1.1-0.3 0.25 3.15 1.4 6.5-4.5" fill="#c7c701" fill-rule="evenodd"/>
<path d="m371.4 246v1.45l-7.45 0.55 0.5-1.55 6.95-0.45m9.25 13.3-1.05-3.7 0.65-0.25 1.2 3.5-0.8 0.45m3.2-3.3 1.25 1.05-14.65 33.4-4.5-0.4-1.4-3.25-0.15-0.35v-2.85l3 5.15 2.05 0.15 14.4-32.9m-20 33-0.15 0.85-16.55-1.45-2.75-5.85 0.45-2.9 3.9 7.25 15.1 2.1m-20.7-2.6-0.3 1.6-14.8-1.3-0.35-1.25 15.45 0.95m-22.15-13.8-4.05 1 3.55-4.45 0.05-0.05-3.2-3.4-6.8 4.35 0.7-4.2 6.95-2.5 3.6 3.75-0.8 5.5m16.05-26.9-3.65-3.15 3.7-0.25 1.65 2.55-1.65 0.95-0.05-0.1m-41.55 23-1.25-1.1 5.1-4.8 3.7-0.25 1.85 3.25-0.05 0.05-5.75-0.65-3.6 3.5m21.85-3 0.45-0.3-0.45 0.3" fill="#9d9c06" fill-rule="evenodd"/>
<path d="m352.35 241.25 7.5-0.55 0.75 2.55-3.85 2.3-4.6-1.9v-0.15l0.2-2.25m2.85 11.95 0.55-0.85 0.05-0.1 2.5 0.75-0.15 1.2-2.95-1m-10.25 3.9-4-1.95 2.9-3.1-1.6-2.25 0.85-1 5 0.4 1.8 3.6-4.95 4.3m-6-4.8 0.7 0.65-2.2 3.7-3.5-2.55 2.3-2.85 2.7 1.05" fill="#f5f503" fill-rule="evenodd"/>
<path d="m371.4 246v1.45l-7.45 0.55h-0.2l-1.75 4.9 12.1 9.15 6.55-2.7v-0.05l-1.05-3.7 2.6-1 1.65 1.4 1.25 1.05-14.65 33.4-4.5-0.4-1.4-3.25m-0.15-0.35-0.15-0.4-0.4 2.95-0.15 0.85-16.55-1.45-2.75-5.85-0.35-0.75-0.9 4.6-0.3 1.6-14.8-1.3-0.35-1.25-3.85-13.55-2.85 0.7-4.05 1 3.55-4.45 0.05-0.05-3.2-3.4-6.8 4.35-0.25 0.15 1 4.8-11.8 2.9-3.1 3.35-19.75-5.35 10.4-17.15 18.15-0.8 10.9-8.35 13.1-0.3 7.85-3.6-3.65-3.15 3.7-0.25 15.25-1.05 7.5-0.55 5.35-0.35 6.2 5.2v0.45m-66.55 19.85-6.5 4.5-3.15-1.4 0.3-0.25 3.6-3.5 5.75 0.65m12.95-0.45-0.45 0.3" fill="none" stroke="#000" stroke-linecap="round" stroke-linejoin="round" stroke-opacity=".30196" stroke-width=".05"/>
</g>
</defs>
</svg>
