<?xml version="1.0" encoding="UTF-8"?>
<svg version="1.1" viewBox="0 0 137.32 95.581" xmlns="http://www.w3.org/2000/svg" xmlns:cc="http://creativecommons.org/ns#" xmlns:dc="http://purl.org/dc/elements/1.1/" xmlns:rdf="http://www.w3.org/1999/02/22-rdf-syntax-ns#" xmlns:xlink="http://www.w3.org/1999/xlink">
<metadata>
<rdf:RDF>
<cc:Work rdf:about="">
<dc:format>image/svg+xml</dc:format>
<dc:type rdf:resource="http://purl.org/dc/dcmitype/StillImage"/>
</cc:Work>
</rdf:RDF>
</metadata>
<g transform="translate(-54.777 -157.85)">
<use transform="matrix(.866 -.5 .5 .866 47.836 222.19)" width="152.39999" height="47.200001" xlink:href="#a"/>
</g>
<defs>
<g id="a" transform="translate(4,4)">
<use transform="translate(-4,-4)" width="152.39999" height="47.200001" xlink:href="#b"/>
</g>
<g id="b" transform="translate(4,4)">
<path d="m11.75 6.5q1.6 0.45 3.35 1.2 2.65 1.2 8.1 2.7l16.55 2.35q13.4 1.8 24.25 1.25 16.95-0.85 41 0.4 5 0 5-4.8 0-1.25-1.4-2.8-1.4-1.6-1.4-2.2 0-1.9 3.6-3.4 2.9-1.2 4.6-1.2 11.6 0 21.4 8.4 2.9 2.5 5.25 5.4l0.4 0.5q1.95 2.5 1.95 2.9 0 4.75-8.4 12.8-9.1 8.8-17 8.8-3.5 0-3.8-2.8l0.4-5q0-1.5-4.8-4.6-3.4-2.2-5.2-2.75l-0.3-0.1-0.55-0.1q-16.35-3.15-31.15-4.05l-4.4-0.25h-0.05q-6.55-0.25-12.75-0.05l-2.05 0.05h-1.15q-14.25-0.35-18.1 0-5.85 0.6-6.7 5.25-1.45 8.15-2.55 10.45-2.1 4.35-7.05 4.35-5.75 0-5.65-4.4l0.35-4.75q0.1-3.2-0.7-5.65-0.35-1.1-2.45-2.1l-4.35-1.75q-6-2.5-6-6.35 0-3 1.25-5.4 1.65-3.2 4.95-3.2l4.65 0.65m123.55 13.35-1.15 1.65-2.7 2.3q-2.85 2.15-4.25 2.3m-6.3-17.7-2.8-0.15-0.55 0.4-1.9 1.05" fill="none" stroke="#f4ffdb" stroke-linecap="round" stroke-linejoin="round" stroke-width="8"/>
<path d="m142.05 13.8 0.4 0.5-0.35 0.05-0.05-0.55m-72.85 5.35h-0.05v-0.2l0.05 0.2m4.4 0.05v0.2l-0.05-0.2h0.05m41.15-9.75h-0.05q-0.1-4.1 3.4-4.1 3.55 0 4.85 2.7l-2.95 0.1-2.8-0.15-0.55 0.4q-1.4 0.3-1.9 1.05m-91.2 16.85-0.1 0.2 0.05-0.2h0.05m-1.8-11.4 0.15 0.15-0.05 0.25-0.1-0.4" fill="#e4f9d4" fill-rule="evenodd"/>
<path d="m142.45 14.3q1.95 2.5 1.95 2.9 0 4.75-8.4 12.8-9.1 8.8-17 8.8-3.5 0-3.8-2.8l0.4-5q0-1.5-4.8-4.6-3.4-2.2-5.2-2.75l-0.3-0.1-0.55-0.1q-16.35-3.15-31.15-4.05v-0.2l10.2 0.5 20.85 0.55q16.65 0.75 16.65 3l-0.85 2.05q-0.9 1.5-0.9 2.3 0 1.35 0.25 1.6l6.5-3.35q1.4-0.15 4.25-2.3l2.7-2.3q1.8-0.9 5.8-1.55 3.35-1.35 3.05-5.35l0.35-0.05" fill="url(#e)" fill-rule="evenodd"/>
<path d="m11.75 6.5q1.6 0.45 3.35 1.2 2.65 1.2 8.1 2.7l16.55 2.35q13.4 1.8 24.25 1.25 16.95-0.85 41 0.4 5 0 5-4.8 0-1.25-1.4-2.8-1.4-1.6-1.4-2.2 0-1.9 3.6-3.4 2.9-1.2 4.6-1.2 11.6 0 21.4 8.4 2.9 2.5 5.25 5.4l0.05 0.55q0.3 4-3.05 5.35-4 0.65-5.8 1.55l-2.7 2.3q-2.85 2.15-4.25 2.3l-6.5 3.35q-0.25-0.25-0.25-1.6 0-0.8 0.9-2.3l0.85-2.05q0-2.25-16.65-3l-20.85-0.55-10.2-0.5h-0.05l0.05 0.2-4.4-0.25-0.05-0.2-30.35-1.2q-4.6-0.2-6.9-0.05-4.1 0.3-5.05 2l-0.85 4.25q-0.4 2.35-2.45 2.35h-0.05l-0.05 0.2-1-0.45-1.45-0.25h-0.1l-0.9 0.25q3.2 1.25 3.2 3.4 0 2.1-1.7 3.45-1.5 1.15-3.55 1.15-3.45 0-3.45-4.1 0-5.7-1.55-7.75-0.3-0.45-4.85-3.45-3.65-2.4-3.65-4.75 0-3.15 2.5-5.7 1.95-1.95 3.9-2.05l0.9 0.25m108.25 1.65 2.95-0.1q-1.3-2.7-4.85-2.7-3.5 0-3.4 4.1h0.05l1.9-1.05-1.9 1.05q0.5-0.75 1.9-1.05l0.55-0.4 2.8 0.15m13.25 13.1 1.15-1.65-1.15 1.65m-111.4-5.95 0.05-0.25-0.15-0.15q-0.65-0.55-1.35-0.55-0.35 0-2.75 2.2-2.5 2.2-2.5 2.8v0.6q0.75 0 2.1 0.5 0.9 0 2.75-2.15 1.55-1.75 1.85-3" fill="#fffff7" fill-rule="evenodd"/>
<path d="m69.15 19.15q-6.55-0.25-12.75-0.05l-2.05 0.05h-1.15q-14.25-0.35-18.1 0-5.85 0.6-6.7 5.25-1.45 8.15-2.55 10.45-2.1 4.35-7.05 4.35-5.75 0-5.65-4.4l0.35-4.75q0.1-3.2-0.7-5.65-0.35-1.1-2.45-2.1l-4.35-1.75q-6-2.5-6-6.35 0-3 1.25-5.4 1.65-3.2 4.95-3.2l4.65 0.65q-1.95 0.1-3.9 2.05-2.5 2.55-2.5 5.7 0 2.35 3.65 4.75 4.55 3 4.85 3.45 1.55 2.05 1.55 7.75 0 4.1 3.45 4.1 2.05 0 3.55-1.15 1.7-1.35 1.7-3.45 0-2.15-3.2-3.4l0.9-0.25h0.1l1.45 0.25 1 0.45 0.1-0.2q2.05 0 2.45-2.35l0.85-4.25q0.95-1.7 5.05-2 2.3-0.15 6.9 0.05l30.35 1.2v0.2" fill="url(#d)" fill-rule="evenodd"/>
<path d="m21.85 15.3q-0.3 1.25-1.85 3-1.85 2.15-2.75 2.15-1.35-0.5-2.1-0.5v-0.6q0-0.6 2.5-2.8 2.4-2.2 2.75-2.2 0.7 0 1.35 0.55l0.1 0.4" fill="url(#c)" fill-rule="evenodd"/>
<path d="m11.75 6.5q1.6 0.45 3.35 1.2 2.65 1.2 8.1 2.7l16.55 2.35q13.4 1.8 24.25 1.25 16.95-0.85 41 0.4 5 0 5-4.8 0-1.25-1.4-2.8-1.4-1.6-1.4-2.2 0-1.9 3.6-3.4 2.9-1.2 4.6-1.2 11.6 0 21.4 8.4 2.9 2.5 5.25 5.4l0.4 0.5q1.95 2.5 1.95 2.9 0 4.75-8.4 12.8-9.1 8.8-17 8.8-3.5 0-3.8-2.8l0.4-5q0-1.5-4.8-4.6-3.4-2.2-5.2-2.75l-0.3-0.1-0.55-0.1q-16.35-3.15-31.15-4.05l-4.4-0.25h-0.05q-6.55-0.25-12.75-0.05l-2.05 0.05h-1.15q-14.25-0.35-18.1 0-5.85 0.6-6.7 5.25-1.45 8.15-2.55 10.45-2.1 4.35-7.05 4.35-5.75 0-5.65-4.4l0.35-4.75q0.1-3.2-0.7-5.65-0.35-1.1-2.45-2.1l-4.35-1.75q-6-2.5-6-6.35 0-3 1.25-5.4 1.65-3.2 4.95-3.2l4.65 0.65m122.4 15-2.7 2.3q-2.85 2.15-4.25 2.3m-6.3-17.7-2.8-0.15-0.55 0.4-1.9 1.05m19.65 10.15-1.15 1.65" fill="none" stroke="#5a924b" stroke-linecap="round" stroke-linejoin="round" stroke-opacity=".36078" stroke-width=".05"/>
</g>
<linearGradient id="e" x1="-819.2" x2="819.2" gradientTransform="matrix(.0432 0 0 .015 109 26.55)" gradientUnits="userSpaceOnUse">
<stop stop-color="#e4f9d4" offset="0"/>
<stop stop-color="#c7ebad" offset="1"/>
</linearGradient>
<linearGradient id="d" x1="-819.2" x2="819.2" gradientTransform="matrix(.0422 0 0 .0205 34.55 22.4)" gradientUnits="userSpaceOnUse">
<stop stop-color="#e4f9d4" offset="0"/>
<stop stop-color="#c7ebad" offset="1"/>
</linearGradient>
<linearGradient id="c" x1="-819.2" x2="819.2" gradientTransform="matrix(.0041 0 0 .0037 18.5 17.4)" gradientUnits="userSpaceOnUse">
<stop stop-color="#e4f9d4" offset="0"/>
<stop stop-color="#c7ebad" offset="1"/>
</linearGradient>
</defs>
</svg>
