<?xml version="1.0" encoding="UTF-8"?>
<svg version="1.1" viewBox="0 0 73.818 195.05" xmlns="http://www.w3.org/2000/svg" xmlns:cc="http://creativecommons.org/ns#" xmlns:dc="http://purl.org/dc/elements/1.1/" xmlns:rdf="http://www.w3.org/1999/02/22-rdf-syntax-ns#" xmlns:xlink="http://www.w3.org/1999/xlink">
<metadata>
<rdf:RDF>
<cc:Work rdf:about="">
<dc:format>image/svg+xml</dc:format>
<dc:type rdf:resource="http://purl.org/dc/dcmitype/StillImage"/>
</cc:Work>
</rdf:RDF>
</metadata>
<g transform="translate(-237.95,-103.05)">
<use transform="translate(237.95,233.4)" width="35.5" height="64.699997" xlink:href="#b"/>
<use transform="translate(242.65,103.05)" width="69.099998" height="133.14999" xlink:href="#a"/>
</g>
<defs>
<g id="b" transform="translate(18,27.1)">
<path d="m2.8-1.15h0.45v9.75h-1.75q-5-6 1.3-9.75m-2.7 20.25h3.15v9.75h-4.5q-7.7-4.85 1.35-9.75m-12.85 6h-4.75v-6h6.4q6.15 2.5-1.65 6m4.65-16.5h-9.4v-6.5h8.25v-3.25h3.9q4.5 5.35-2.75 9.75" fill="#d58f1e" fill-rule="evenodd"/>
<path d="m13 37.1v-52.05l-6-3.75v-8.4h10.5v64.2h-4.5" fill="#3a3a32" fill-rule="evenodd"/>
<path d="m7-18.7 6 3.75v52.05h-6v-55.8m2.75 3.75v52.05-52.05" fill="#6c6c5b" fill-rule="evenodd"/>
<path d="m1.5 8.6h-9.6q7.25-4.4 2.75-9.75h8.15q-6.3 3.75-1.3 9.75m-2.25 10.5h0.85q-9.05 4.9-1.35 9.75h-7v-3.75h-4.5q7.8-3.5 1.65-6h10.35" fill="#f3c55a" fill-rule="evenodd"/>
<path d="m7 2.6v22.5h-3.75v-6h-4v-10.5h4v-6h3.75" fill="#8f6114" fill-rule="evenodd"/>
<path d="m2.8-1.15h0.45v3.75h3.75m-7.75 6v10.5m4 6h3.75m-3.75 0v3.75h-11.5v-3.75h-9.25v-6h16.75m-7.35-10.5h-9.4v-6.5h8.25v-3.25h12.05m-3.55 9.75h-7.35" fill="none" stroke="#5f3707" stroke-linecap="round" stroke-linejoin="round"/>
<path d="m9.75 37.1v-52.05" fill="none" stroke="#cfd3c2" stroke-linecap="round" stroke-linejoin="round"/>
</g>
<g id="a" transform="translate(-242.65,-103.05)">
<path d="m289.7 232.75q3.25-3.45 3.4-6.2 0.2-2.8-3-3.55-3.35-0.8-8.7 1.1-5.9 2.1-12.25 6.9 14.85-15.85 24-8.7l0.65 0.55q6 5.55-4.1 9.9" fill="#fcd22e" fill-rule="evenodd"/>
<path d="m269.15 231q6.35-4.8 12.25-6.9 5.35-1.9 8.7-1.1 3.2 0.75 3 3.55-0.15 2.75-3.4 6.2" fill="none" stroke="#000" stroke-linecap="round" stroke-linejoin="round" stroke-opacity=".30196" stroke-width=".6"/>
<path d="m276.05 116.05-0.95-1.4 0.5 0.95q12.15 22.75 11 34.55-0.65 6.7-7.4 19.05-1.6-7.05-4.15-13.25-0.9-6.2-4.35-15.55 3.35-4.65 4.3-7.85 1.75-5.8-1.85-12.25-3.85-6.95-15.05-16.95 22.85 0.6 34.4 24.1 4-5.05-6.75-20.95 22.2 22.3 25.2 47.25l0.15 1.8q0.45 5.4 0.35 10.35v0.35q-15.75 5.45-34.5 20.5 9-15.15 13.4-31.05l0.1-0.4q3.45-9.95-6.85-31.55l-7.55-7.7m-0.95 60.25-3.05 4.95-1.5 2.35-3.1 4.65-3.65 5.35-0.2 0.2-0.2 0.35-0.8 1.55q-10.85-12-19.15-10.9 2-13.15 11.75-25.3l0.65-0.85 2.7-3.3q11.2 7.95 16.55 20.95m-17.4 45.25q1.35 7.55 6.45 14.35h-2.5q-3.5-4.35-6.3-8.65-4.25-6.35-7.05-12.5l9.1 4.9v0.2l0.3 1.7m25.8-29.1q13.15-3.7 23.35-4.2-3.2 7.4-8.65 13.25l-0.2 0.25-7.1 6.35q-5.4-1-23.85 9.55-1.45-10.65 2.8-19.6l0.7-1.4q6.8-2.45 12.95-4.2" fill="#fcd844" fill-rule="evenodd"/>
<path d="m276.05 116.05-0.45-0.45 0.45 0.45 5.05 7.5q10.3 21.55 6.85 31.55l-0.1 0.4q-5.05 18.35-16.35 35.75l-0.25 0.4-2.9 4.25-1 1.95q-4.55 9.6-2.55 21.1 1.4 8 6 16.95h-6.65q-5.1-6.8-6.45-14.35l2.5 3.4 1.5-2.35q-2.15-7.25 1-18.05l0.85-4.7-2.6-0.65 1.65-3.5 0.8-1.55 2.9 1.15 3.45-6.55-2.3-0.5 3.1-4.65 2.25 0.2h0.1l1-2.45-1.85-0.1 3.05-4.95 3.95-6.85 0.15-0.25q6.75-12.35 7.4-19.05 1.15-11.8-11-34.55l-0.5-0.95 0.95 1.4" fill="#fde78c" fill-rule="evenodd"/>
<path d="m279.2 169.2-0.15 0.25-3.95 6.85q-5.35-13-16.55-20.95 4.25-2.55 7.2-6.85 2.9-4.3 2.6-5.05 3.9 5.75 6.7 12.5 2.55 6.2 4.15 13.25m-2.25 17.55q18.75-15.05 34.5-20.5-0.35 9.35-2.8 17.2-11.25 1.8-25.15 9-6.15 1.75-12.95 4.2l0.3-0.55 2.8-4.05 0.1-0.2 3.2-5.1" fill="#fcdc5c" fill-rule="evenodd"/>
<path d="m262.6 195.7-1.65 3.5q-4.7 10.85-3.55 20.45l-9.1-4.9q-7.05-15.6-4.85-29.95 8.3-1.1 19.15 10.9m28.3 12.4q-9 8.2-12.85 13.65l-1.6 2.45q-1 1.65-1.55 3.15-1.9 4.85-0.15 8.55h-1.55q-4.5-8.8-5.9-16.7l-0.25-1.55q18.45-10.55 23.85-9.55" fill="#fcd22e" fill-rule="evenodd"/>
<path d="m270.8 235.9q-4.6-8.95-6-16.95-2-11.5 2.55-21.1l1-1.95 2.9-4.25 0.25-0.4q11.3-17.4 16.35-35.75l0.1-0.4q3.45-10-6.85-31.55l-5.05-7.5 7.55 7.7q10.3 21.6 6.85 31.55l-0.1 0.4q-4.4 15.9-13.4 31.05l-3.2 5.1-0.1 0.2-2.8 4.05-0.3 0.55-0.7 1.4q-4.25 8.95-2.8 19.6l0.25 1.55q1.4 7.9 5.9 16.7h-2.4" fill="#deb303" fill-rule="evenodd"/>
<path d="m272.05 181.25 1.85 0.1-1 2.45h-0.1l-2.25-0.2 1.5-2.35m-4.6 7 2.3 0.5-3.45 6.55-2.9-1.15 0.2-0.35 0.2-0.2 3.65-5.35m-6.5 10.95 2.6 0.65-0.85 4.7q-3.15 10.8-1 18.05l-1.5 2.35-2.5-3.4-0.3-1.7v-0.2q-1.15-9.6 3.55-20.45" fill="#fef7de" fill-rule="evenodd"/>
<path d="m275.6 115.6 0.45 0.45m-11.9 119.85h6.65q-4.6-8.95-6-16.95-2-11.5 2.55-21.1l1-1.95 2.9-4.25m0.25-0.4q11.3-17.4 16.35-35.75l0.1-0.4q3.45-10-6.85-31.55l-5.05-7.5m35.4 49.85q0.1-4.95-0.35-10.35l-0.15-1.8q-3-24.95-25.2-47.25 10.75 15.9 6.75 20.95-11.55-23.5-34.4-24.1 11.2 10 15.05 16.95 3.6 6.45 1.85 12.25-0.95 3.2-4.3 7.85m-12.15 14.95q4.25-2.55 7.2-6.85 2.9-4.3 2.6-5.05m43.1 22.8q-0.35 9.35-2.8 17.2m-1.8 4.8q-3.2 7.4-8.65 13.25l-0.2 0.25-7.1 6.35q-9 8.2-12.85 13.65l-1.6 2.45m-1.55 3.15q-1.9 4.85-0.15 8.55h-3.95m-14.95-77.25 2.7-3.3m3.1 80.55h2.5m-2.95 0h0.45" fill="none" stroke="#000" stroke-linecap="round" stroke-linejoin="round" stroke-opacity=".30196" stroke-width=".6"/>
<path d="m243.45 184.8q2-13.15 11.75-25.3l0.65-0.85m5.8 77.25q-3.5-4.35-6.3-8.65-4.25-6.35-7.05-12.5-7.05-15.6-4.85-29.95" fill="none" stroke="#000" stroke-linecap="round" stroke-linejoin="round" stroke-opacity=".30196" stroke-width=".6"/>
<path d="m270.7 140.4q3.45 9.35 4.35 15.55m33.6 27.5q-11.25 1.8-25.15 9" fill="none" stroke="#000" stroke-linecap="round" stroke-linejoin="round" stroke-opacity=".30196" stroke-width=".6"/>
<path d="m280.8 218.3h-0.35q1.45-3.35 4.5-5.75 11.55-7.7 12.4 1.25 0.4 1.9-2.15 2.85-2.75 0.55-3.65-1.4 1.4 1 2.9 0.25 2.1-1.8 1.95-3.3-0.25-1.45-2.5-1.5-5.75-0.15-13.1 7.6" fill="#fcd22e" fill-rule="evenodd"/>
<path d="m294.45 215.5q2.1-1.8 1.95-3.3-0.25-1.45-2.5-1.5-5.75-0.15-13.1 7.6" fill="none" stroke="#000" stroke-linecap="round" stroke-linejoin="round" stroke-opacity=".30196" stroke-width=".6"/>
<path d="m284.35 130.45 18.55-2.1q12.75 21.1 6.3 52.55l-28.3-6.95q-1.7-2.95-3.9-1l-26.7-6.6q1.35-3.4 4.25-6.5l6-5.65q9-8.7 14.95-22.75l6.95-0.75q0.75-1.1 1.9-0.25" fill-opacity=".10196" fill-rule="evenodd"/>
</g>
</defs>
</svg>
