<?xml version="1.0" encoding="UTF-8"?>
<svg width="115px" height="146px" version="1.1" viewBox="205.87 136.85 115.15 146.24" xmlns="http://www.w3.org/2000/svg" xmlns:xlink="http://www.w3.org/1999/xlink">
<defs>
<g id="l">
<path d="m8.4-11.75-0.35 0.1 0.4-2.35-0.05 2.25" fill="#fff0d9"/>
<path d="m8.45-14-0.4 2.35q-2.4 13.95-6.2 19.1-4.15 3.5-10.05 5.3-0.9-14.05 1.45-24.9 3.5-16.1 8.75-14.6 6.3 0.8 6.45 12.75" fill="#fff"/>
<path d="m8.05-11.65 0.35-0.1q-0.9 9.45-2.45 18.5-1.7 9.75-3.7 17.95-3.85-0.1-8.85 2.15-1.2-7.4-1.6-14.1 5.9-1.8 10.05-5.3 3.8-5.15 6.2-19.1" fill="#fbe9a8"/>
<path d="m8.4-11.75 0.05-2.25m-16.65 26.75q0.4 6.7 1.6 14.1 5-2.25 8.85-2.15 2-8.2 3.7-17.95 1.55-9.05 2.45-18.5m-16.6 24.5q-0.9-14.05 1.45-24.9 3.5-16.1 8.75-14.6 6.3 0.8 6.45 12.75" fill="none" stroke="#000" stroke-opacity=".4" stroke-width=".5"/>
</g>
<g id="a">
<use xlink:href="#l"/>
</g>
<g id="j">
<path d="m26.6 3.7q-8.2 48.55-14 58.15-6.85 2.7-13.65-0.1l0.5-1.85q0.85-1.85 2.35-1.8l-3.6-1.5q-3.35-1.45-6.5-3.1-4.9-2.65-9.25-5.85 8.95-0.75 17.05-30.5 3.35-12.5 6.6-30.05l3.4 3.15q8.45 7.75 17.1 13.45" fill="#99591a"/>
<path d="m5.45 71.95-0.55 0.5q-7.3 0-20.9-7.85-11.2-6.6-17-13.55-1.7-1.85-2.85-3.7-1.6-0.45-1.55-2.05-0.05-9.95 7.3-9.95l2.35 2.85q4.65 5.15 10.2 9.45 4.35 3.2 9.25 5.85 3.15 1.65 6.5 3.1l3.6 1.5q-1.5-0.05-2.35 1.8l-0.5 1.85-0.3 4.45q0 5.45 6.8 5.75" fill="#ce942a"/>
<path d="m14.8-72.4 22.65 2.5q-5.9 44.05-10.85 73.6-8.65-5.7-17.1-13.45l-3.4-3.15q4.5-24.75 8.7-59.5m-2.2 134.25-1.65 3.35q-1.3 2.8-5.5 6.75-6.8-0.3-6.8-5.75l0.3-4.45q6.8 2.8 13.65 0.1" fill="#6f4112"/>
<path d="m37.45-69.9q-5.9 44.05-10.85 73.6-8.2 48.55-14 58.15l-1.65 3.35q-1.3 2.8-5.5 6.75l-0.55 0.5q-7.3 0-20.9-7.85-11.2-6.6-17-13.55-1.7-1.85-2.85-3.7m18.3 0.3q8.95-0.75 17.05-30.5 3.35-12.5 6.6-30.05 4.5-24.75 8.7-59.5" fill="none" stroke="#000" stroke-opacity=".4" stroke-width=".5"/>
<path d="m14.8-72.4 22.65 2.5m-73.3 117.25q-1.6-0.45-1.55-2.05-0.05-9.95 7.3-9.95l2.35 2.85q4.65 5.15 10.2 9.45m16.5 14.1 0.5-1.85q0.85-1.85 2.35-1.8l-3.6-1.5q-3.35-1.45-6.5-3.1-4.9-2.65-9.25-5.85m23 24.3q-6.8-0.3-6.8-5.75l0.3-4.45" fill="none" stroke="#000" stroke-opacity=".4" stroke-width=".5"/>
</g>
<g id="i">
<use xlink:href="#j"/>
</g>
<g id="h">
<path d="m-0.4 0.15 1.05 0.1-0.5 5.05q-0.35 1.1-1.25 2.35l-0.7-5.5 1.4-2m-5.4 9.65-0.25 0.1 0.25-0.8v0.7m-0.25 0.1-0.25 1.1 0.05 0.6-0.2 0.4-0.1-1.15 0.05-0.8 0.45-0.15" fill="#3d4301"/>
<path d="m-6.55 5.85 1.15-2.25q1.2-2 3.8-3.6l1.2 0.15-1.4 2-1.5 2.3q-1.2 0.5-2.5 1.3l0.2-0.7-0.05-0.15-0.9 0.95" fill="#353a01"/>
<path d="m-1.1 7.65-0.45 0.7-0.05-1.45q-1 0.45-1.5 2.15-0.35-0.1-0.5-1.9l-1 2.7-0.4 1.7-0.25 0.3-0.1-1.6-0.35 0.5-0.1-0.95 0.1 0.95-0.55 0.85-0.05-0.6 0.25-1.1-0.45 0.15 0.1-1.5 0.6-2.8q1.3-0.8 2.5-1.3l1.5-2.3 0.7 5.5m-4.95 2.25 0.25-0.1v-0.7l-0.25 0.8m2.75-5.45q-1.75 2.75-2.5 4.65 0.75-1.9 2.5-4.65" fill="#444b01"/>
<path d="m-1.55 8.35-0.95 1.1-1.2 0.95-1.3 1.15 0.4-1.7 1-2.7q0.15 1.8 0.5 1.9 0.5-1.7 1.5-2.15l0.05 1.45m-3.7 3.5-0.3 0.35q-0.55 0.7-0.55 1.25l-0.15-1.85 0.55-0.85 0.35-0.5 0.1 1.6m-0.3 0.35-0.15-1.45 0.15 1.45" fill="#725816"/>
<path d="m-6.15 13.5q-0.9-1.15-1-3.05l0.05-2.3 0.35-1.7 0.2-0.6 0.9-0.95 0.05 0.15-0.2 0.7-0.6 2.8-0.1 1.5-0.05 0.8 0.1 1.15 0.2-0.4 0.15 1.85-0.05 0.05m-0.6-7.05 0.95-0.7-0.95 0.7" fill="#5c4512"/>
<path d="m-6.55 5.85 1.15-2.25q1.2-2 3.8-3.6l1.2 0.15 1.05 0.1-0.5 5.05q-0.35 1.1-1.25 2.35l-0.45 0.7-0.95 1.1-1.2 0.95-1.3 1.15-0.25 0.3-0.3 0.35q-0.55 0.7-0.55 1.25m0 0.1-0.05-0.05q-0.9-1.15-1-3.05l0.05-2.3 0.35-1.7 0.2-0.6" fill="none" stroke="#000" stroke-opacity=".4" stroke-width=".5"/>
<path d="m-6.1 13.45v0.1m0.3-7.8q1.3-0.8 2.5-1.3l1.5-2.3 1.4-2m-5.4 9.65 0.1 0.95 0.15 1.45m-0.25-2.4v-0.7l-0.25 0.8-0.25 1.1 0.05 0.6 0.15 1.85m0.3-4.35q0.75-1.9 2.5-4.65m-2.5 1.3-0.95 0.7m4.95-4.3 0.7 5.5" fill="none" stroke="#000" stroke-opacity=".2" stroke-width=".5"/>
</g>
<g id="b">
<use xlink:href="#h"/>
</g>
<g id="g">
<path d="m4.75 1.75h-0.2q-0.5 0-0.5 0.25l3.3 3.3-2.05-0.9-1.5-0.45-1.8-2.05-1.7-1.8 1.7 1.8 1.8 2.05 2.45 3.1 0.2 1 0.15 0.85 0.1 0.9-0.05-0.05-2.8-3.8-0.25 0.05q0.25 1.8 0.8 2.7l0.15 0.3-2.5-3.2-0.7-1.2q-1.2-2.15-1.95-4.25l0.9-0.25 1.15-0.3q1.95 0.85 3.3 1.95m-2.75 0.15 0.05 3.9-0.05-3.9m5.2 9.4 0.2 0.2-0.2-0.2" fill="#353a01"/>
<path d="m5.3 4.4q0.1 0.55 1.25 1.8l1.15 1.25-0.45-0.35v0.6l0.6 1.95 0.65 0.9-0.3 1.5-0.35-0.2-0.1-1.9-0.2-0.65-1.1-1.25-0.2-1-2.45-3.1 1.5 0.45m1.4 5.4-0.1-0.9 0.55 2.05h-0.05q0-0.5-0.4-1.15m1.15-0.15-0.4-0.5-0.1-0.25-0.4-0.75-0.7-1.1 0.7 1.1 0.4 0.75 0.1 0.25 0.4 0.5m-0.4-0.5 0.1 0.15-0.1-0.15" fill="#444b01"/>
<path d="m7.35 5.3 0.15 0.1 0.6 1.6 0.3 1.3v0.15l0.1 0.8v1.3l-0.65-0.9-0.6-1.95v-0.6l0.45 0.35-1.15-1.25q-1.15-1.25-1.25-1.8l2.05 0.9m-0.75 3.6-0.15-0.85 1.1 1.25 0.2 0.65 0.1 1.9-0.45-0.35-0.2-0.2-0.4-0.25-0.1-1.25q0.4 0.65 0.4 1.15h0.05l-0.55-2.05" fill="#725816"/>
<path d="m7.5 5.4-0.15-0.1-3.3-3.3q0-0.25 0.5-0.25h0.2l1.05 1.05q1.05 1.2 1.7 2.6m-2.95 3.6-0.15-0.3q-0.55-0.9-0.8-2.7l0.25-0.05 2.8 3.8 0.05 0.05 0.1 1.25-1-0.85-1.25-1.2" fill="#5c4512"/>
<path d="m7.5 5.4q-0.65-1.4-1.7-2.6l-1.05-1.05q-1.35-1.1-3.3-1.95l-1.15 0.3-0.9 0.25m9.1 10.2v-1.3l-0.1-0.8m0-0.15-0.3-1.3-0.6-1.6m0.7 6.65 0.3-1.5" fill="none" stroke="#000" stroke-opacity=".4" stroke-width=".5"/>
<path d="m7.35 5.3 0.15 0.1m-0.15-0.1-2.05-0.9m2.55 5.25 0.65 0.9m-8.2-10.45 1.7 1.8 1.8 2.05 1.5 0.45m-5.9-4.05q0.75 2.1 1.95 4.25l0.7 1.2-0.05-3.9m4.7 7.9-0.1-0.9-0.15-0.85-0.2-1-2.45-3.1m2.45 3.1 0.7 1.1 0.4 0.75 0.1 0.25 0.4 0.5m-0.45 1.85 0.45 0.35-0.1-1.9-0.2-0.65-0.1-0.15m-0.65 1.9 0.4 0.25 0.2 0.2m-0.6-0.45-0.1-1.25m-2.15-0.8 1.25 1.2 1 0.85m1.05 0.8 0.35 0.2m-6.15-6.25 2.5 3.2" fill="none" stroke="#000" stroke-opacity=".2" stroke-width=".5"/>
</g>
<g id="f">
<use xlink:href="#g"/>
</g>
<g id="e">
<path d="m-4.6-0.65 0.9-0.35 0.1-0.05q0.35 0 0.75 0.4l1.15 1.65-0.8 0.5-0.55 0.45h-0.05l-0.1 0.1-0.05-0.5 0.15-2.25 0.25 0.05-0.25-0.05-0.15 2.25-0.05-0.15-0.4-0.45q-0.55 0-1.05 1.8l-0.1 0.35-0.2-1.15-0.3 0.45v0.05 0.4l-0.1 0.05-0.6-1.6 0.1-0.45 0.45-1.35 0.9-0.15 0.65 0.1 0.6-0.15h0.1 0.15-0.15-0.1l-0.6 0.15-0.65-0.1m-0.5 4.75-0.05-0.05h0.05v0.05m1.15-4.65q-1.4 0.45-1.4 2.95 0-2.5 1.4-2.95" fill="#6f7d01"/>
<path d="m-3.2 2.05q-1.4 1.2-1.75 2.2l-0.15-0.15v-0.05h-0.05q-1.15-1.2-0.9-2.75l0.6 1.6 0.1-0.05v-0.4-0.05l0.3-0.45 0.2 1.15 0.1-0.35q0.5-1.8 1.05-1.8l0.4 0.45 0.05 0.15 0.05 0.5m-1.9 2-0.25-1.6 0.25 1.6" fill="#725816"/>
<path d="m-5.4-0.75 0.3-0.55 0.3-0.1 1.55-0.4h0.45q2.8 1.15 3.4 1.75l-3.45-0.6 3.45 0.6q0.4 0.35-0.3 0.45-1.05 0.1-2 0.6l-1.15-1.65q-0.4-0.4-0.75-0.4l-0.1 0.05-0.9 0.35-0.8-0.1 0.8 0.1-0.9 0.15 0.1-0.25" fill="#536001"/>
<path d="m0.6-0.05q-0.6-0.6-3.4-1.75h-0.45l-1.55 0.4-0.3 0.1-0.3 0.55m6 0.7q0.4 0.35-0.3 0.45-1.05 0.1-2 0.6l-0.8 0.5-0.55 0.45h-0.05l-0.1 0.1q-1.4 1.2-1.75 2.2l-0.2-0.2q-1.15-1.2-0.9-2.75l0.1-0.45 0.45-1.35 0.1-0.25" fill="none" stroke="#000" stroke-opacity=".30196" stroke-width=".5"/>
<path d="m-5.4-0.75 0.8 0.1 0.65 0.1 0.6-0.15h0.1 0.15l-0.15 2.25 0.05 0.5m0.35-2.7 3.45 0.6m-3.45-0.6-0.25-0.05m-2.25 3.15v-0.05q0-2.5 1.4-2.95m-1.4 3 0.25 1.6" fill="none" stroke="#000" stroke-opacity=".2" stroke-width=".5"/>
</g>
<g id="k">
<use xlink:href="#e"/>
</g>
<filter id="c">
<feColorMatrix in="SourceGraphic" result="cxform" values="0.69921875 0.0 0.0 0.0 0.0 0.0 0.69921875 0.0 0.0 0.0 0.0 0.0 0.69921875 0.0 0.0 0.0 0.0 0.0 1.0 0.0"/>
<feComposite in2="SourceGraphic" operator="in" result="color-xform"/>
</filter>
<filter id="d">
<feColorMatrix in="SourceGraphic" result="cxform" values="0.828125 0.0 0.0 0.0 0.0 0.0 0.828125 0.0 0.0 0.0 0.0 0.0 0.828125 0.0 0.0 0.0 0.0 0.0 1.0 0.0"/>
<feComposite in2="SourceGraphic" operator="in" result="color-xform"/>
</filter>
</defs>
<use transform="matrix(-.34447 -.9657 .40602 -.5087 248.45 191.3)" filter="url(#c)" xlink:href="#a"/>
<use transform="matrix(-.70255 -.64322 .35406 -.7018 253.7 201.15)" xlink:href="#a"/>
<use transform="matrix(-.58537 -.99062 .50824 -.41261 241.2 181.25)" xlink:href="#a"/>
<use transform="matrix(.99696 .074539 -.074539 .99696 246.7 210.5)" xlink:href="#i"/>
<use transform="matrix(4.0507 .30286 -.30286 4.0507 272.45 139.85)" xlink:href="#b"/>
<use transform="matrix(5.4009 .40381 -.40381 5.4009 278.85 139)" xlink:href="#f"/>
<use transform="matrix(-5.4009 -.40379 -.39258 5.2509 271.8 148.55)" xlink:href="#k"/>
<use transform="matrix(5.4891 -2.6446 2.6446 5.4891 277.45 137.2)" filter="url(#d)" xlink:href="#b"/>
</svg>
