<?xml version="1.0" encoding="UTF-8"?>
<svg version="1.1" viewBox="0 0 172.2 122.85" xmlns="http://www.w3.org/2000/svg" xmlns:cc="http://creativecommons.org/ns#" xmlns:dc="http://purl.org/dc/elements/1.1/" xmlns:rdf="http://www.w3.org/1999/02/22-rdf-syntax-ns#" xmlns:xlink="http://www.w3.org/1999/xlink">
<metadata>
<rdf:RDF>
<cc:Work rdf:about="">
<dc:format>image/svg+xml</dc:format>
<dc:type rdf:resource="http://purl.org/dc/dcmitype/StillImage"/>
</cc:Work>
</rdf:RDF>
</metadata>
<g transform="translate(-189.38 -138.53)">
<use transform="translate(189.4,138.55)" width="172.14999" height="122.8" xlink:href="#a"/>
</g>
<defs>
<g id="a" transform="translate(-189.4,-138.55)">
<path d="m251.3 148.1 4.95 1.5q7.8 1.85 17.5-1.65l10.3-4q7.35-2.85 14.1-4.8-5.95 12.3 16.15 11.8-11.35 4.9-11.6 13.4-1.7 0.25-3.05 0.9-2.05 1.1-2.05 2.65t2.05 2.6q1.9 1 4.6 1.1 1.2 3 3.45 6.3 3.8 5.85 19.1 3.3 0.55 14.5 18.25 9l-9.4 12.5q-0.15 1.3 4-1.05l3.25-1.9 18.05 15.65q-3 0.55-16.1 0l-22.3-1.5q-5.1-0.45-7.9 1.15-7.35 4.2-20.55-8.85l16.7 20.7-1.3 0.55q-2.35 0.8-4.35 1.55l-0.45-0.25-0.2-0.15-25.55 10.7q-2.4 0.25-2.4-1.05-4.5-0.35-7.25-3.05-3.2 10.65-25.6 25.55 1.55-5.95-1.55-10.55 1.05 0.4 1.5 1.6l0.75 2.3q0.65 0.95 0.7 3 0 1.75 0.2 1.75 0.3 0 1.3-1l0.3 0.05q1.15 0 5.1-3.25l3.7-3.55h0.3q0.9 0 0.9-1.2 0-2.5-2.65-5.7-3.05-3.7-6.75-3.7-4.2 0-8.95 2-3.95 1.65-4.4 2.85l-3.05-8.3-1.55-3.7q-2.85-5.9-8.45-11.75 0.5-1.5 1.15-2.75 2.55-4.7 8-5.75l1.6-1.5q4.9-5.95-12.85-11.7 1.25 0.25 1.75-1.15 2 0.7 4.65-1.75 2.6-2.5 2.25-5.95-0.4-3.5-3.5-5.6-1.35-0.9-5.05-0.8l-3.95 0.4q1.7-1.85-2.3-1.05-5.1 0.95-3.9-1.55 1.25-2.5 1.25-5.75-4.4-3.05-9.95-6l0.1-0.05q4.85-2.5 7.85-2.5 8.8 0 11.25-2.15 1.25-1.15 1.25-4.9 0-3.05-1.4-5.2l5.75-3.35q2.1-1.25 11.35-1l9.55-0.45 20.8 22.9q-9.3-12.45-15.45-25.9m53.9 80.2-0.7 0.3 0.7-0.3m-70-61q-3.6 0-5.8 3.15-1.7 2.4-1.7 4.35 0 1.85 0.7 4.15l1.3 4.25q0.6 2.4 2.45 5.05 2.2 3.25 4.35 3.25 8.15 0 8.6-10.85 0-3.45-2-7.55-2.85-5.8-7.9-5.8m44.15-7.85q0.65 0.65 1.65 0.65 3.95 0 6.9-3.3 2.4-2.65 2.4-4.5-0.2-5.2-4.3-5.2-3.05 0-5.35 3.45-1.75 2.6-1.75 3.75 0 1.2 0.9 4.35 0 0.5-0.5 0.5l0.05 0.3m-29.85 23.55q-0.65 0-0.8 1.35v1.35l0.2 2.55q0.35 2.4 1.25 2.4 2.85 0 2.95-2.55 0-1.3-0.6-2.75-0.95-2.35-3-2.35m29.35 11.2h0.35l2.6-0.35 1.95-1.05q1.05-0.8 2.05-10.45 1-9.7-7.7-7.2-8.75 2.5-6.55 10.3 2.15 7.8 4.2 8.3l2.25 0.45h0.85m24.2-4.45q-1.75 2.95-1.75 5.4 0 1 6.6 4.8t11.4-0.85q4.75-4.65-4.35-9.3-9.15-4.7-11.9-0.05m-55.75 27.8q0 4.2 0.6 5.8 1.25 3.35 5.4 3.35 6.65 0 10.25-8.7 2.35-5.65 2.35-9.45 0.2-1.9-0.4-3.75-1.2-3.7-5.3-3.7-6.95 0-10.6 7.7-1.95 4.2-2.25 7.45l-0.1 0.05-1.2 0.15q-0.95 0.2-0.95 0.45t0.95 0.45l1.25 0.2m-3.65 4v-0.2l-0.15-0.3-0.35-0.35-1.2-0.6-0.4-0.1-1.95-0.35-1.75-0.1-2.4 0.15-0.75 0.15-0.95 0.25-0.1 0.05q-1.05 0.4-1.4 0.85l-0.1 0.2-0.1 0.35q0 0.85 1.7 1.4 1.7 0.6 4.1 0.6l4.1-0.6q1.7-0.55 1.7-1.4m34.8 17.45-2.85-2.15 2.85 2.15m-43.9 7.3h0.05l0.5-0.5 1.55 2.3q0.85 1.5 1.65 1.95h-2l-1.75-3.75m6.3 3.75 0.15-0.05 0.45 0.05h-0.6" fill="#000037" fill-rule="evenodd"/>
<path d="m234.15 245.35q0.45-1.2 4.4-2.85 4.75-2 8.95-2 3.7 0 6.75 3.7 2.65 3.2 2.65 5.7 0 1.2-0.9 1.2h-0.3l-3.7 3.55q-3.95 3.25-5.1 3.25l-0.3-0.05q-1 1-1.3 1-0.2 0-0.2-1.75-0.05-2.05-0.7-3l-0.75-2.3q-0.45-1.2-1.5-1.6l-0.7-0.15-0.45-0.05-0.15 0.05-1.9 0.2-0.65-0.2q-0.8-0.45-1.65-1.95l-1.55-2.3-0.5 0.5h-0.05q-0.45-0.2-0.45-0.65l0.05-0.3m-44.15-78.65 0.15-0.85 3.85-0.8 0.1-0.05q11.1-1.65 24.25-8.6 1.35 2 1.35 4.6 0.3 1.85-0.6 3.4-1.7 3.05-7.55 3.05l-4.7-0.05q-3.35 0.15-4.95 1.5l-2.2 1.5q-2.7-1.4-5.6-2.75-0.8-0.4-4.1-0.95m18.45-13.55v0.25l-0.2 0.05-0.25-0.05-0.05-0.25 0.25-0.2 0.25 0.2m22.15 29.5-1.9-7.95q0-4.45 5.5-6.35 9.9 2.55 9.9 12.3 0 2.85-0.8 4.75-1.8 4-2.3 4.4-0.65 0.5-4.3 0.5-3.5 0-6.1-7.65m48.75-23.2-0.05-0.3q0.5 0 0.5-0.5-0.9-3.15-0.9-4.35 0-1.15 1.75-3.75 2.3-3.45 5.35-3.45 4.1 0 4.3 5.2 0 1.85-2.4 4.5-2.95 3.3-6.9 3.3-1 0-1.65-0.65m-0.5 34.75h-0.85l-2.25-0.45q-2.05-0.5-4.2-8.3-2.2-7.8 6.55-10.3 8.7-2.5 7.7 7.2-1 9.65-2.05 10.45l-1.95 1.05-2.6 0.35h-0.35m-29.35-11.2q2.05 0 3 2.35 0.6 1.45 0.6 2.75-0.1 2.55-2.95 2.55-0.9 0-1.25-2.4l-0.2-2.55v-1.35q0.15-1.35 0.8-1.35m53.55 6.75q2.75-4.65 11.9 0.05 9.1 4.65 4.35 9.3-4.8 4.65-11.4 0.85t-6.6-4.8q0-2.45 1.75-5.4m-55.7 26.5q0.3-3.25 2.25-7.45 3.65-7.7 10.6-7.7 4.1 0 5.3 3.7 0.6 1.85 0.4 3.75 0 3.8-2.35 9.45-3.6 8.7-10.25 8.7-4.15 0-5.4-3.35-0.6-1.6-0.6-5.8v-0.1h0.4l0.6-0.05v0.15h0.05l2.3-0.2 0.15-0.05h0.05l0.75-0.4q0-0.25-0.95-0.45l-2.15-0.2-0.5-0.05-0.65 0.05" fill="#ffdd6a" fill-rule="evenodd"/>
<path d="m251.3 148.1q6.15 13.45 15.45 25.9l-20.8-22.9 1.1-0.5 3.5-2.8 0.75 0.3m-32 7.8q1.4 2.15 1.4 5.2 0 3.75-1.25 4.9-2.45 2.15-11.25 2.15-3 0-7.85 2.5l-0.1 0.05-0.35 0.2v-0.4h-0.4l0.2-0.1 2.2-1.5q1.6-1.35 4.95-1.5l4.7 0.05q5.85 0 7.55-3.05 0.9-1.55 0.6-3.4 0-2.6-1.35-4.6l-0.25-0.3 1.2-0.2m15.9 11.4q5.05 0 7.9 5.8 2 4.1 2 7.55-0.45 10.85-8.6 10.85-2.15 0-4.35-3.25-1.85-2.65-2.45-5.05l-1.3-4.25q-0.7-2.3-0.7-4.15 0-1.95 1.7-4.35 2.2-3.15 5.8-3.15m-4.6 15.35q2.6 7.65 6.1 7.65 3.65 0 4.3-0.5 0.5-0.4 2.3-4.4 0.8-1.9 0.8-4.75 0-9.75-9.9-12.3-5.5 1.9-5.5 6.35l1.9 7.95m84.05 32.4q-0.7 0.55-0.9 1.35-0.55 1.95 0.2 6.9-0.2 2.2-3.15 3.6l-16.7-20.7q13.2 13.05 20.55 8.85" fill="#000048" fill-rule="evenodd"/>
<path d="m314.65 215.05q2.8-1.6 7.9-1.15l22.3 1.5q13.1 0.55 16.1 0l-18.05-15.65-3.25 1.9q-4.15 2.35-4 1.05l9.4-12.5q-17.7 5.5-18.25-9-15.3 2.55-19.1-3.3-2.25-3.3-3.45-6.3-2.7-0.1-4.6-1.1-2.05-1.05-2.05-2.6t2.05-2.65q1.35-0.65 3.05-0.9 0.25-8.5 11.6-13.4-22.1 0.5-16.15-11.8-6.75 1.95-14.1 4.8l-10.3 4q-9.7 3.5-17.5 1.65l-4.95-1.5-0.75-0.3-3.5 2.8-1.1 0.5-9.55 0.45q-9.25-0.25-11.35 1l-5.75 3.35m-19.05 14.8q5.55 2.95 9.95 6 0 3.25-1.25 5.75-1.2 2.5 3.9 1.55 4-0.8 2.3 1.05m9 0.4q3.1 2.1 3.5 5.6 0.35 3.45-2.25 5.95-2.65 2.45-4.65 1.75-0.5 1.4-1.75 1.15 17.75 5.75 12.85 11.7l-1.6 1.5q-5.45 1.05-8 5.75-0.65 1.25-1.15 2.75 5.6 5.85 8.45 11.75l1.55 3.7 3.05 8.3m8 4.85q3.1 4.6 1.55 10.55 22.4-14.9 25.6-25.55 2.75 2.7 7.25 3.05 0 1.3 2.4 1.05 4.15-0.45 15.75-5.95l1.05-0.5q2.8-1.4 8.25-3.4m-114-62.75q3.3 0.55 4.1 0.95 2.9 1.35 5.6 2.75m18.65-14q-13.15 6.95-24.25 8.6l-0.1 0.05-3.85 0.8m120.65 61.05q2.95-1.4 3.15-3.6-0.75-4.95-0.2-6.9 0.2-0.8 0.9-1.35m-3.85 11.85-1.3 0.55q-2.35 0.8-4.35 1.55m-70.6 17.3 1.75 3.75h2m2.55 0h0.6" fill="none" stroke="#000009" stroke-linecap="round" stroke-linejoin="round" stroke-width="1.25"/>
<path d="m215.15 185.05 3.95-0.4q3.7-0.1 5.05 0.8" fill="none" stroke="#000009" stroke-linecap="round" stroke-linejoin="round"/>
<path d="m278.95 239.3 25.55-10.7 0.7-0.3m-29.6 8.55 2.85 2.15" fill="none" stroke="#000037" stroke-linecap="round" stroke-linejoin="round" stroke-width="1.25"/>
</g>
</defs>
</svg>
