<?xml version="1.0" encoding="UTF-8"?>
<svg version="1.1" viewBox="0 0 117.11 94.027" xmlns="http://www.w3.org/2000/svg" xmlns:cc="http://creativecommons.org/ns#" xmlns:dc="http://purl.org/dc/elements/1.1/" xmlns:rdf="http://www.w3.org/1999/02/22-rdf-syntax-ns#" xmlns:xlink="http://www.w3.org/1999/xlink">
<metadata>
<rdf:RDF>
<cc:Work rdf:about="">
<dc:format>image/svg+xml</dc:format>
<dc:type rdf:resource="http://purl.org/dc/dcmitype/StillImage"/>
</cc:Work>
</rdf:RDF>
</metadata>
<g transform="translate(-216.9 -152.97)">
<use transform="translate(216.9,152.95)" width="117.1" height="94.050003" xlink:href="#a"/>
</g>
<defs>
<g id="a" transform="translate(-216.9,-152.95)">
<path d="m333.35 191.45h0.15l0.25 2.15q0.2 8-2.75 13.8-3.35 6.6-22.85 17.1l-1.95-1.1q20.75-11.1 24.4-18.2l1.55-3.8 0.4-1.5q0.65-2.75 0.8-5.8v-2.65m-28.75-35.2 0.05 2.1-12.4 7.8-1 7-2.8 6.8-5.65 2.55-0.15-0.35 4.4-2.6 2.6-6.6v-7.8h0.05l14.9-8.9m-66.35 66.75 2.05 1.2q3.5 2.2 6.95 5.5l5.7-7.55 2.45-2.1-7.25 10.3-0.1 0.15q2.65 2.75 5.25 6.25l1.15-5.5 21.45-8.1 1.55-2.8-1.3 4.15-21.1 8-0.65 5.05-1.2 0.75q-2.6-3.5-5.3-6.25l0.15-1.55-1 0.7-0.35-0.3q-3.3-3.1-6.7-5.1-2.05-1.25-4.1-2.1-2.5-1.05-5.05-1.55l-0.1-1.95-1 1.75q-5.9-0.85-12.2 1.05 0.1-1.15-0.4-2.2h0.1l0.4-0.1q5.4-1.45 12.1-0.75l6.1-18.2-5.1 18.45 0.45 0.1q3.5 0.8 7.05 2.7m16.1 15.2 4.05 6.35 10.25-4.15q12.4-5.15 23.15-10.15 3.95-1.85 13-5.5l0.05 1.65-12.65 6.05q-10.75 5-23.15 10.15l-10.25 4.15q-2.4-4.1-4.85-7.5l0.4-1.05m35.8-63.95v-0.15h-0.05l0.05 0.15m-43.1 56.95 0.2-1.5-0.2 1.5m11.75 15.55-0.4-2.2 0.4 2.2m-5.6-8.45 0.1-1.55-0.1 1.55m-23.45-16.35v-2 2" fill="#1a5b77" fill-rule="evenodd"/>
<path d="m333.35 191.4v2.7q-0.15 3.05-0.8 5.8l-0.4 1.5-1.55 3.8q-3.65 7.1-24.4 18.2l0.6-4.7-0.45-1.45-1.55 7.5q-9.05 3.65-13 5.5-10.75 5-23.15 10.15l-10.25 4.15-4.05-6.35 0.05-0.65 0.65-5.05 21.1-8 1.3-4.15-1.55 2.8-21.45 8.1-1.15 5.5q-2.6-3.5-5.25-6.25l0.1-0.15 7.25-10.3-2.45 2.1-5.7 7.55q-3.45-3.3-6.95-5.5l-2.05-1.2q3.1-0.85 9.4-3.45 11.25-4.65 20.8-10.8 22-14.2 32.7-24.85 5.65-5.7 10.05-11.8 3.4-4.9 6.05-10 4.55 3.05 7.95 7.25 2 2.5 3.65 5.45 3 5.4 4 11.4l0.4 3 0.1 2.2" fill="url(#d)" fill-rule="evenodd"/>
<path d="m333.5 191.45-0.15-0.05-0.1-2.2 0.25 2.25" fill="#ccc" fill-rule="evenodd"/>
<path d="m333.5 191.45h-0.15v-0.05l0.15 0.05m-43.85-26.3h0.05-0.05" fill="#be9a30" fill-rule="evenodd"/>
<path d="m217.2 220.6q0.45-4.35 2.1-10.75 3.35-13.15 9.4-23.9l3.6-6.2q1.4-2.05 3.85-3.3 4.05-8.45 11.9-13.6 7.4-4.8 12.55-6.8 7.7-2.95 14.95-2 4.05-1.15 11.5-0.7 3.95 0.2 10.4 1.45l7.15 1.45-14.9 8.9h-0.05v7.8l-2.6 6.6-4.4 2.6 0.15 0.35 5.65-2.55 2.8-6.8 1-7 12.4-7.8 2.2-1.4q2.6 0.9 5 2.05 2.85 1.35 5.4 3.1-2.65 5.1-6.05 10-4.4 6.1-10.05 11.8-10.7 10.65-32.7 24.85-9.55 6.15-20.8 10.8-6.3 2.6-9.4 3.45-3.55-1.9-7.05-2.7l-0.45-0.1 5.1-18.45-6.1 18.2q-6.7-0.7-12.1 0.75l-0.4 0.1h-0.1l0.05-0.15v-0.05m34.9-56.35q-2.15 2.15-2.7 4.7t0.85 3.9q1.35 1.35 3.45 0.25t4.15-3.4l3.1-4.15q1.1-1.85-0.25-3.2-1.4-1.4-3.9-0.8-2.55 0.55-4.7 2.7" fill="url(#c)" fill-rule="evenodd"/>
<path d="m252.1 164.25q2.15-2.15 4.7-2.7 2.5-0.6 3.9 0.8 1.35 1.35 0.25 3.2l-3.1 4.15q-2.05 2.3-4.15 3.4t-3.45-0.25q-1.4-1.35-0.85-3.9t2.7-4.7" fill="#fff" fill-rule="evenodd"/>
<path d="m304.8 224.75 1.55-7.5 0.45 1.45-1.95 7.7-0.05-1.65" fill="#6d4f1b" fill-rule="evenodd"/>
<path d="m248.15 230.35-0.1 0.15 0.1-0.15" fill="url(#b)" fill-rule="evenodd"/>
<path d="m306.2 223.4 1.95 1.1q19.5-10.5 22.85-17.1 2.95-5.8 2.75-13.8l-0.25-2.15m-16.25-29.35q4.55 3.05 7.95 7.25 2 2.5 3.65 5.45 3 5.4 4 11.4l0.4 3m-116.05 31.4q0.45-4.35 2.1-10.75 3.35-13.15 9.4-23.9l3.6-6.2q1.4-2.05 3.85-3.3 4.05-8.45 11.9-13.6 7.4-4.8 12.55-6.8 7.7-2.95 14.95-2 4.05-1.15 11.5-0.7 3.95 0.2 10.4 1.45l7.15 1.45 0.05 2.1 2.2-1.4q2.6 0.9 5 2.05 2.85 1.35 5.4 3.1m-62.85 75.45-0.05 0.65m52.45-19.5-0.6 4.7m-23.55-41.25 4.4-2.6 2.6-6.6v-7.8h0.05l14.9-8.9m-21.8 26.25 5.65-2.55 2.8-6.8 1-7 12.4-7.8m0.2 68.05 1.95-7.7m-1.95 7.7-12.65 6.05q-10.75 5-23.15 10.15l-10.25 4.15q-2.4-4.1-4.85-7.5l0.4-1.05m0.05-0.65-1.2 0.75q-2.6-3.5-5.3-6.25l0.15-1.55-1 0.7-0.35-0.3q-3.3-3.1-6.7-5.1-2.05-1.25-4.1-2.1-2.5-1.05-5.05-1.55l-0.1-1.95-1 1.75q-5.9-0.85-12.2 1.05 0.1-1.15-0.4-2.2" fill="none" stroke="#1d6c8d" stroke-linecap="round" stroke-linejoin="round" stroke-width=".5"/>
<path d="m333.35 191.4v2.7q-0.15 3.05-0.8 5.8l-0.4 1.5-1.55 3.8q-3.65 7.1-24.4 18.2m27.3-31.95-0.25-2.25 0.1 2.2m-95.1 31.6 2.05 1.2q3.5 2.2 6.95 5.5l5.7-7.55 2.45-2.1-7.25 10.3m-0.1 0.15q2.65 2.75 5.25 6.25l1.15-5.5 21.45-8.1 1.55-2.8-1.3 4.15-21.1 8-0.65 5.05m-0.05 0.65 4.05 6.35 10.25-4.15q12.4-5.15 23.15-10.15 3.95-1.85 13-5.5l1.55-7.5 0.45 1.45m-2 6.05 0.05 1.65m-87.7-5.6 0.05-0.15v-0.05m30.05 9.1-0.2 1.5m1-0.7 0.1-0.15m5.15 6.4-0.1 1.55m5.2 6.25 0.4 2.2m-20.55-23.75q-3.55-1.9-7.05-2.7l-0.45-0.1 5.1-18.45-6.1 18.2v2m-12.6-1.15h0.1l0.4-0.1q5.4-1.45 12.1-0.75" fill="none" stroke="#1d6c8d" stroke-linecap="round" stroke-linejoin="round" stroke-width=".1"/>
</g>
<linearGradient id="d" x1="-819.2" x2="819.2" gradientTransform="matrix(.0623 0 0 .0459 282.25 206.95)" gradientUnits="userSpaceOnUse">
<stop stop-color="#d5edf7" offset=".11373"/>
<stop stop-color="#63b5e1" offset="1"/>
</linearGradient>
<linearGradient id="c" x1="-819.2" x2="819.2" gradientTransform="matrix(.0611 0 0 .0426 267.2 188.1)" gradientUnits="userSpaceOnUse">
<stop stop-color="#c7e7f3" offset=".39608"/>
<stop stop-color="#63b5e1" offset="1"/>
</linearGradient>
<linearGradient id="b" x1="-819.2" x2="819.2" gradientTransform="matrix(.0528 0 0 .1376 280.8 258.2)" gradientUnits="userSpaceOnUse">
<stop stop-color="#775100" offset="0"/>
<stop stop-color="#4b2e01" offset="1"/>
</linearGradient>
</defs>
</svg>
