<?xml version="1.0" encoding="UTF-8"?>
<svg version="1.1" viewBox="0 0 152.6 87.85" xmlns="http://www.w3.org/2000/svg" xmlns:cc="http://creativecommons.org/ns#" xmlns:dc="http://purl.org/dc/elements/1.1/" xmlns:rdf="http://www.w3.org/1999/02/22-rdf-syntax-ns#" xmlns:xlink="http://www.w3.org/1999/xlink">
<metadata>
<rdf:RDF>
<cc:Work rdf:about="">
<dc:format>image/svg+xml</dc:format>
<dc:type rdf:resource="http://purl.org/dc/dcmitype/StillImage"/>
</cc:Work>
</rdf:RDF>
</metadata>
<g transform="translate(-205.45 -165.5)">
<use transform="translate(205.45,165.5)" width="152.60001" height="87.849998" xlink:href="#a"/>
</g>
<defs>
<g id="a" transform="translate(-205.45,-165.5)">
<path d="m356.65 165.7 1.3 3.15-1.45 5.25-4.1 12.6-3 9.55q-1.75 5.4-3.4 8.35-4.6 8.05-14.75 7.4-2.65-0.15-3.45 2.55-0.4 1.3-0.45 3.7l0.1 3.1 0.7 8.95v0.05q0.25 5.3-0.5 8.6-1.75 7.85-2.45 14.3l-0.15-0.1-1.15-3.1v-0.25q0.75-6.4 2.5-14.05 0.55-2.45 0.55-6l-0.1-2.7-0.65-8.9-0.05-0.5q-0.25-4.4 0.35-6.35 0.8-2.7 3.45-2.55 10.2 0.7 14.8-7.35 1.6-2.95 3.35-8.4l3.05-9.55 4.05-12.55 1.45-5.2" fill="#d0bd73" fill-rule="evenodd"/>
<path d="m206.15 226.8h0.05l0.05 0.1-0.1-0.1m70.25-50.25 12.7 1.75 13 0.95q8.05-0.05 19.7-2.65l8 0.5q9.75 0 16.65-2.75 6.85-2.75 6.85-6.65l-0.05-0.75 3.4-1.3 0.05-0.05-0.05 0.1v-0.05 0.05l-1.45 5.2-4.05 12.55-3.05 9.55q-1.75 5.45-3.35 8.4-4.6 8.05-14.8 7.35-2.65-0.15-3.45 2.55-0.6 1.95-0.35 6.35l0.05 0.5 0.65 8.9 0.1 2.7q0 3.55-0.55 6-1.75 7.65-2.5 14.05v0.25l-3.9-3.65q-0.3-3.6-1.5-7.5-2.5-7.9-7.35-9.55-27.95-9.65-42-20.25-6.7-5.1-3.25-15.25l1.05-0.5q1-0.6 1.15-1.45l0.05-0.25-0.05-0.3q-0.1-0.7-0.75-1.2l0.5-1.05q2.2-4.3 5.6-8.85l0.95-1.25 0.2-0.2 1.8-2.25m57.2 10.1q-0.25-1.3-1.8-2.25-1.8-1.1-4.4-1.1l-1.1 0.05q-1.95 0.15-3.35 1.05-1.85 1.1-1.85 2.7 0 1.55 1.85 2.7l1.25 0.3 1.55 0.05q0.3 0.05 1.65 0.75 2.6 0 4.4-1.1 1.55-1 1.8-2.25l0.05-0.45-0.05-0.45m-25.2-3.6-1.35-0.2q-1.2 0.75-1.2 1.8 0 1 1.2 1.75t2.9 0.75 2.95-0.75q1.2-0.75 1.2-1.75 0-1.05-1.2-1.8l-1.35 0.2-1.55 0.55q-0.5 0-1.6-0.55" fill="#ad9c38" fill-rule="evenodd"/>
<path d="m333.6 187.55q-0.25 1.25-1.8 2.25-1.8 1.1-4.4 1.1-1.35-0.7-1.65-0.75l-1.55-0.05-1.25-0.3q-1.85-1.15-1.85-2.7 0-1.6 1.85-2.7 1.4-0.9 3.35-1.05l1.1-0.05q2.6 0 4.4 1.1 1.55 0.95 1.8 2.25l0.05 0.45-0.05 0.45m-67.7 6.3h-0.05l-1.75 0.25-1.1-0.5h-0.95l-0.85-0.25q-1.2-0.7-1.15-1.7l0.1-0.6q0.2-0.65 1.05-1.15 0.95-0.6 2.2-0.7l0.7-0.05q1.65 0 2.85 0.75l0.4 0.25q0.65 0.5 0.75 1.2l0.05 0.3-0.05 0.25q-0.15 0.85-1.15 1.45l-1.05 0.5m42.5-10.8q1.1 0.55 1.6 0.55l1.55-0.55 1.35-0.2q1.2 0.75 1.2 1.8 0 1-1.2 1.75-1.25 0.75-2.95 0.75t-2.9-0.75-1.2-1.75q0-1.05 1.2-1.8l1.35 0.2m-60.3 44.55-1.1 0.45-1.75 0.25-1.1-0.5h-1l-0.8-0.2q-1.2-0.75-1.15-1.75l0.1-0.6q0.2-0.65 1.05-1.15 0.95-0.6 2.2-0.7h0.7q1.65-0.05 2.85 0.7 1 0.6 1.15 1.45l0.05 0.3-0.05 0.25q-0.15 0.85-1.15 1.5" fill="#8f7301" fill-rule="evenodd"/>
<path d="m206.2 226.8q4.4-0.95 11.7-7.6 7.25-6.6 14.95-16.55l1.8-2.4q3.65-0.3 6.4-2.1 2.6-1.7 3.15-4l0.15-1.15v-0.2l-0.2-1.3-0.75-1.45-0.9-1.1 2.85-5.2q3.3-6.1 4.5-10.35l0.35-1.5 0.3-2.9q-0.1-2.9 2.45-2.1 1.75 0.6 8.55 3.95l2.4 1.05 3.85 1.5q1.5 0.55 4.2 1.9 1.45 0.7 4.45 1.25l-1.8 2.25-0.2 0.2-0.95 1.25q-3.4 4.55-5.6 8.85l-0.5 1.05-0.4-0.25q-1.2-0.75-2.85-0.75l-0.7 0.05q-1.25 0.1-2.2 0.7-0.85 0.5-1.05 1.15l-0.1 0.6q-0.05 1 1.15 1.7l0.85 0.25h0.95l1.1 0.5 1.75-0.25h0.05q-3.45 10.15 3.25 15.25 14.05 10.6 42 20.25 4.85 1.65 7.35 9.55 1.2 3.9 1.5 7.5-2.85-2.8-5.45-4.55-1.95-1.35-4.05-2.35l0.05-0.3q0-2.4-6.35-4.1-6.3-1.7-15.2-1.7t-15.25 1.7q-2.25 0.6-3.7 1.3-22.55-1.45-58-8.35l-1.7-0.35-4.1-0.8-0.05-0.1m41.9 0.8q1-0.65 1.15-1.5l0.05-0.25-0.05-0.3q-0.15-0.85-1.15-1.45-1.2-0.75-2.85-0.7h-0.7q-1.25 0.1-2.2 0.7-0.85 0.5-1.05 1.15l-0.1 0.6q-0.05 1 1.15 1.75l0.8 0.2h1l1.1 0.5 1.75-0.25 1.1-0.45" fill="url(#b)" fill-rule="evenodd"/>
<path d="m325.05 253.15-3.75-3.5q-2.85-2.85-5.45-4.55-1.95-1.35-4.05-2.35l0.05-0.3q0-2.4-6.35-4.1-6.3-1.7-15.2-1.7t-15.25 1.7q-2.25 0.6-3.7 1.3-24.35-1.6-64.5-9.55l-1.25-3.2h0.65l4.1 0.8 1.7 0.35q35.45 6.9 58 8.35 1.45-0.7 3.7-1.3 6.35-1.7 15.25-1.7t15.2 1.7q6.35 1.7 6.35 4.1l-0.05 0.3q2.1 1 4.05 2.35 2.6 1.75 5.45 4.55l3.9 3.65 1.15 3.1" fill="#806f2b" fill-rule="evenodd"/>
<path d="m356.65 165.7 1.3 3.15-1.45 5.25-4.1 12.6-3 9.55q-1.75 5.4-3.4 8.35-4.6 8.05-14.75 7.4-2.65-0.15-3.45 2.55-0.4 1.3-0.45 3.7l0.1 3.1 0.7 8.95v0.05q0.25 5.3-0.5 8.6-1.75 7.85-2.45 14.3l-0.15-0.1-3.75-3.5q-2.85-2.85-5.45-4.55-1.95-1.35-4.05-2.35l0.05-0.3q0-2.4-6.35-4.1-6.3-1.7-15.2-1.7t-15.25 1.7q-2.25 0.6-3.7 1.3-24.35-1.6-64.5-9.55l-1.25-3.2h-0.05l0.6-0.1h0.05q4.4-0.95 11.7-7.6 7.25-6.6 14.95-16.55l1.8-2.4q3.65-0.3 6.4-2.1 2.6-1.7 3.15-4l0.15-1.15v-0.2l-0.2-1.3-0.75-1.45-0.9-1.1 2.85-5.2q3.3-6.1 4.5-10.35l0.35-1.5 0.3-2.9q-0.1-2.9 2.45-2.1 1.75 0.6 8.55 3.95l2.4 1.05 3.85 1.5q1.5 0.55 4.2 1.9 1.45 0.7 4.45 1.25l12.7 1.75 13 0.95q8.05-0.05 19.7-2.65l8 0.5q9.75 0 16.65-2.75 6.85-2.75 6.85-6.65l-0.05-0.75 3.4-1.3 0.05-0.05-0.05 0.1v-0.05m-32.75 84.35v0.05m-117.65-23.15h-0.65" fill="none" stroke="#351d06" stroke-linecap="round" stroke-linejoin="round" stroke-width=".2"/>
</g>
<linearGradient id="b" x1="-819.2" x2="819.2" gradientTransform="matrix(-.0166 .026 -.0406 -.026 218.65 199.45)" gradientUnits="userSpaceOnUse">
<stop stop-color="#ad9c38" offset="0"/>
<stop stop-color="#736200" offset="1"/>
</linearGradient>
</defs>
</svg>
