<?xml version="1.0" encoding="UTF-8"?>
<svg version="1.1" viewBox="0 0 110.5 69.4" xmlns="http://www.w3.org/2000/svg" xmlns:cc="http://creativecommons.org/ns#" xmlns:dc="http://purl.org/dc/elements/1.1/" xmlns:rdf="http://www.w3.org/1999/02/22-rdf-syntax-ns#" xmlns:xlink="http://www.w3.org/1999/xlink">
<metadata>
<rdf:RDF>
<cc:Work rdf:about="">
<dc:format>image/svg+xml</dc:format>
<dc:type rdf:resource="http://purl.org/dc/dcmitype/StillImage"/>
</cc:Work>
</rdf:RDF>
</metadata>
<g transform="translate(-221.05,-166.85)">
<use transform="translate(221.05,166.85)" width="110.5" height="69.400002" xlink:href="#a"/>
</g>
<defs>
<g id="a" transform="translate(-221.05,-166.85)">
<path d="m330.5 166.95v0.05l0.95 2.5-1.05 4.15-2.95 9.95-2.2 7.5q-1.25 4.3-2.45 6.65-3.35 6.35-10.7 5.8-1.9-0.15-2.5 2-0.3 1.05-0.3 2.95l0.05 2.45 0.5 7.05v0.05q0.2 4.2-0.35 6.8-1.25 6.1-1.8 11.2h-0.05l-0.85-2.45-2.85-2.9q-0.2-2.85-1.05-5.9-1.85-6.25-5.3-7.55-20.25-7.6-30.45-16-4.8-4-2.35-12l0.75-0.4q0.75-0.5 0.85-1.15l0.05-0.2-0.05-0.25q-0.05-0.55-0.5-0.95l0.35-0.8q1.55-3.4 4.05-7l0.65-1 0.15-0.15 1.3-1.75 2.1 0.35v0.15q0 1.3 3.7 2.2l9 0.9q5.25 0 9-0.9 2.6-0.65 3.4-1.45l5.7-1.25 5.75 0.4q7.05 0 12.05-2.15 5-2.2 5-5.25l-0.05-0.6 2.45-1.05m-24.4 14.85q-1.35 0.85-1.35 2.1 0 1.2 1.35 2.1 0.4 0.25 0.9 0.3h1.1l1.2 0.6q1.9 0 3.25-0.9 1.1-0.75 1.3-1.75v-0.7q-0.2-1.05-1.3-1.75-1.35-0.9-3.25-0.9l-0.75 0.05q-1.4 0.15-2.45 0.85m-8.25-1.1-1.1 0.45-1.15-0.45-1-0.15q-0.85 0.6-0.85 1.4t0.85 1.4 2.1 0.6 2.1-0.6q0.9-0.6 0.9-1.4t-0.9-1.4q-0.3-0.2-0.95 0.15" fill="#fc9" fill-rule="evenodd"/>
<path d="m330.5 167v-0.05h0.05l-0.05 0.05m-108.95 48.25h0.05v0.05l-0.05-0.05" fill="#ad9c38" fill-rule="evenodd"/>
<path d="m272.4 175.6-1.3 1.75-0.15 0.15-0.65 1q-2.5 3.6-4.05 7l-0.35 0.8q0.45 0.4 0.5 0.95l0.05 0.25-0.05 0.2q-0.1 0.65-0.85 1.15l-0.75 0.4q-2.45 8 2.35 12 10.2 8.4 30.45 16 3.45 1.3 5.3 7.55 0.85 3.05 1.05 5.9l2.85 2.9 0.85 2.45-2.75-2.75q-2.05-2.25-3.9-3.6-1.4-1.1-2.95-1.9v-0.2q0-1.9-4.55-3.25-4.6-1.35-11-1.3-6.5-0.05-11.05 1.3l-2.7 1.05q-17.65-1.25-46.7-7.55l-0.9-2.55 0.4-0.05 0.05 0.05v-0.05q3.15-0.75 8.45-6 5.25-5.2 10.85-13.1l1.3-1.85q2.65-0.25 4.6-1.65 1.9-1.4 2.3-3.15l0.1-0.95v-0.15l-0.15-1-0.5-1.2-0.7-0.85 2.1-4.1q2.35-4.8 3.2-8.15l0.3-1.2 0.2-2.3q-0.05-2.3 1.8-1.65 1.25 0.45 6.2 3.15l1.7 0.8 2.8 1.2q1.05 0.4 3.05 1.5 1 0.5 3.2 1m25.45 5.1q0.65-0.35 0.95-0.15 0.9 0.6 0.9 1.4t-0.9 1.4q-0.85 0.6-2.1 0.6t-2.1-0.6-0.85-1.4 0.85-1.4l1 0.15 1.15 0.45 1.1-0.45m8.25 1.1q1.05-0.7 2.45-0.85l0.75-0.05q1.9 0 3.25 0.9 1.1 0.7 1.3 1.75v0.7q-0.2 1-1.3 1.75-1.35 0.9-3.25 0.9l-1.2-0.6h-1.1q-0.5-0.05-0.9-0.3-1.35-0.9-1.35-2.1 0-1.25 1.35-2.1" fill="url(#b)" fill-rule="evenodd"/>
<path d="m330.5 166.95v0.05l0.05-0.05h-0.05l-2.45 1.05 0.05 0.6q0 3.05-5 5.25-5 2.15-12.05 2.15l-5.75-0.4-5.7 1.25q-0.8 0.8-3.4 1.45-3.75 0.9-9 0.9l-9-0.9q-3.7-0.9-3.7-2.2v-0.15l-2.1-0.35m35.3 60.45q0.55-5.1 1.8-11.2 0.55-2.6 0.35-6.8v-0.05l-0.5-7.05-0.05-2.45q0-1.9 0.3-2.95 0.6-2.15 2.5-2 7.35 0.55 10.7-5.8 1.2-2.35 2.45-6.65l2.2-7.5 2.95-9.95 1.05-4.15-0.95-2.5m-108.9 48.25q3.15-0.75 8.45-6 5.25-5.2 10.85-13.1l1.3-1.85q2.65-0.25 4.6-1.65 1.9-1.4 2.3-3.15l0.1-0.95v-0.15l-0.15-1-0.5-1.2-0.7-0.85 2.1-4.1q2.35-4.8 3.2-8.15l0.3-1.2 0.2-2.3q-0.05-2.3 1.8-1.65 1.25 0.45 6.2 3.15l1.7 0.8 2.8 1.2q1.05 0.4 3.05 1.5 1 0.5 3.2 1m35.25 60.45-2.75-2.75q-2.05-2.25-3.9-3.6-1.4-1.1-2.95-1.9v-0.2q0-1.9-4.55-3.25-4.6-1.35-11-1.3-6.5-0.05-11.05 1.3l-2.7 1.05q-17.65-1.25-46.7-7.55l-0.9-2.55 0.4-0.05h0.05m86.05 20.8 0.05 0.1v-0.1" fill="none" stroke="#651f01" stroke-linecap="round" stroke-linejoin="round" stroke-width=".2"/>
</g>
<linearGradient id="b" x1="-819.2" x2="819.2" gradientTransform="matrix(-.012 .0205 -.0294 -.0205 230.6 193.65)" gradientUnits="userSpaceOnUse">
<stop stop-color="#fc9" offset="0"/>
<stop stop-color="#f96" offset="1"/>
</linearGradient>
</defs>
</svg>
