<?xml version="1.0" encoding="UTF-8"?>
<svg version="1.1" viewBox="0 0 137.36 87.344" xmlns="http://www.w3.org/2000/svg" xmlns:cc="http://creativecommons.org/ns#" xmlns:dc="http://purl.org/dc/elements/1.1/" xmlns:rdf="http://www.w3.org/1999/02/22-rdf-syntax-ns#" xmlns:xlink="http://www.w3.org/1999/xlink">
<metadata>
<rdf:RDF>
<cc:Work rdf:about="">
<dc:format>image/svg+xml</dc:format>
<dc:type rdf:resource="http://purl.org/dc/dcmitype/StillImage"/>
</cc:Work>
</rdf:RDF>
</metadata>
<g transform="translate(-172.8 -175.01)">
<use transform="translate(172.8,174.95)" width="137.35001" height="87.400002" xlink:href="#b"/>
</g>
<defs>
<g id="b" transform="translate(-172.8,-174.95)">
<path d="m178 227.35-4.7-0.95q0.65-0.75 1.9-0.8 1.7-0.5 2.8-1.45v3.2" fill="url(#a)" fill-rule="evenodd"/>
<path d="m178 224.15q-1.1 0.95-2.8 1.45-1.25 0.05-1.9 0.8l4.7 0.95" fill="none" stroke="#000" stroke-linecap="round" stroke-linejoin="round" stroke-opacity=".28235"/>
<path d="m178 224.15 1.2-1.45q0.15-0.95 0.6-1.65l0.15-0.45 0.05-0.05q-0.25-0.7 0.1-1.05-0.2-0.85 0.05-1.3-0.15-1.15 0.35-1.95 0.4-3.45 2.25-6.3 1.7-3.2 3.55-5.95 1.75-3.25 3.7-6 2.1-3.9 5.1-7 1.25-1.75 2.95-3.1 3.5-2.55 7.4-4.6 0.15-0.4 0.65-0.45l0.05-0.05 1.3-1.1 2-2.75q-0.05-0.55 0.3-0.75 1.1-1.5-0.9-1.65l1.55-0.15 3.85-0.7 3-0.15q1.65-0.2 3.6 0.5 0.3-0.1 0.7 0.3l1.5 1.45 3.05 2.55q4.3 3.15 11.15 6.05 1.75 0.6 3.75 1.55l-0.95 4.75-0.1 0.25-0.55 1.85-0.7-0.85 0.7 0.85-1.25 3.4q-1.1 2.5-1.65 5.4-1.25 5.55-2.15 11.7-0.35 1.8 0.25 3.6 0.1 0.45 0.65 0.95 2.2-1.3 3.7-2.95l1.05-1.45q0.4-0.9 1-1.65 0.7-1.5 1.55-2.75 3.35-6.25 5.65-12.2 2.6-7.3 5.95-13.4l4 0.45 13.75 2.4q7.55 1.25 15.35 3.5l-2.3 1.95 2.3-1.95 2 0.4 1.75 0.45-2.8 2.4 2.8-2.4 1.15 0.15 2.05 0.3 4.5-0.35q6.15-1.35 8.3-4.25l1-1.1q0 3.45 0.95 7.4 1.05 4.4 0.55 8.75l-0.4 1.8-1.95 5.15-0.45 0.2-2.65 1.3-4.6 1.85q-3.9 1.25-7.85 2.65-3.15 1.05-6.1 2.4-3.5 1.45-6.6 3.6-3.2 2-6.15 4.55-4.35 3.7-8.15 8.35l-2.7 3.4-6.9-1.7-5.85-1q-14.4-2.2-25.7 0.9l-2.85 0.45q3.45-9.25 2.05-17.7-0.05-0.2-0.5 0-4.85 1.05-8.6 3.9l-5.35 3.6-12.15 6.55-0.25-0.1q-1.3-0.55-2.4-0.8-1.45-0.65-2.8-1l-9.15-3.35-3.45-1.2v-3.2m33.85-42.95-4.4 0.5 4.4-0.5m-2.05 0.95-3.65 0.65 3.65-0.65m81.6 14.15 2.8-3.2-2.8 3.2m-26.95 16.25h0.45l-0.05-0.05-0.4 0.05m-67.65 18.75-3.4 1.6 3.4-1.6m49.65-20.25-5.45 2.75 5.45-2.75m-6.9 7.45 10.25-3.7-10.25 3.7m11.4-5.8-12 4.2 12-4.2" fill="url(#a)" fill-rule="evenodd"/>
<path d="m241 187.95 0.6 0.2q3.75 1.2 4.75 0.05 0.65-1.65-1.15-1.35l-0.15-0.3q3.65-1.55 9.1-1.1-3.35 6.1-5.95 13.4-2.3 5.95-5.65 12.2-0.85 1.25-1.55 2.75-0.6 0.75-1 1.65l-1.05 1.45q-1.5 1.65-3.7 2.95-0.55-0.5-0.65-0.95-0.6-1.8-0.25-3.6 0.9-6.15 2.15-11.7 0.55-2.9 1.65-5.4l1.25-3.4 0.55-1.85 0.1-0.25 0.95-4.75m4.1 11.65-5.15-6.65 5.15 6.65m-2.45-1.35-3.25-3.45 3.25 3.45m-22.05 39.2-5 0.4q-5.85-0.2-11.05-1.4-1.4-0.55-2.4-0.75l-1.05-0.35-2.85-0.85-0.25-0.05q-1-0.5-1.95-0.65l12.15-6.55 5.35-3.6q3.75-2.85 8.6-3.9 0.45-0.2 0.5 0 1.4 8.45-2.05 17.7m16.8-19.95 1.55-0.6-1.55 0.6m0.6-2.3 3-1.4-3 1.4m-33.55 18.25-3.35 1.9 3.35-1.9" fill="url(#g)" fill-rule="evenodd"/>
<path d="m244.95 186.6 0.1-0.05 0.15 0.3-0.25-0.25" fill="url(#f)" fill-rule="evenodd"/>
<path d="m245.2 186.85-1 0.1 0.8-0.3-0.05-0.05 0.25 0.25" fill="#d6cbc2" fill-rule="evenodd"/>
<path d="m261.9 238.8 2.7-3.4q3.8-4.65 8.15-8.35 2.95-2.55 6.15-4.55 3.1-2.15 6.6-3.6 2.95-1.35 6.1-2.4 3.95-1.4 7.85-2.65l4.6-1.85 2.65-1.3 0.15 0.3q-2.05 3.6-3.5 7.9-1.95 5.4-2.6 11.75l-0.45 3.55q-1.05 7.95 1.05 17.15l1.65 8 0.45 2.5-10.35-7.55-3.7-2.55-4.65-3.1q-1.3-0.8-2.3-1.25-1.5-1-2.9-1.55l-0.4-2.45 0.4 2.45q-8.7-4.55-17.65-7.05m20.35 3.8 2.5 6.05-2.5-6.05m3.65-0.45 3.5 9.6-3.5-9.6" fill="url(#e)" fill-rule="evenodd"/>
<path d="m306.7 210.7 0.45-0.2-0.3 0.5-0.15-0.3" fill="url(#d)" fill-rule="evenodd"/>
<path d="m264.45 212.55 0.4-0.05 0.05 0.05h-0.45" fill="url(#c)" fill-rule="evenodd"/>
<path d="m178 224.15 1.2-1.45q0.15-0.95 0.6-1.65l0.15-0.45 0.05-0.05q-0.25-0.7 0.1-1.05-0.2-0.85 0.05-1.3-0.15-1.15 0.35-1.95 0.4-3.45 2.25-6.3 1.7-3.2 3.55-5.95 1.75-3.25 3.7-6 2.1-3.9 5.1-7 1.25-1.75 2.95-3.1 3.5-2.55 7.4-4.6 0.15-0.4 0.65-0.45l-4.35 0.65m39.25 4.45q-2-0.95-3.75-1.55-6.85-2.9-11.15-6.05l-3.05-2.55-1.5-1.45q-0.4-0.4-0.7-0.3-1.95-0.7-3.6-0.5l-3 0.15-3.85 0.7-1.55 0.15q2 0.15 0.9 1.65-0.35 0.2-0.3 0.75l-2 2.75 4.4-0.5m-5.7 1.6-0.05 0.05m1.35-1.15-1.3 1.1 3.65-0.65m31.3 5.25-0.1 0.55 0.6 0.2q3.75 1.2 4.75 0.05 0.65-1.65-1.15-1.35l-1 0.1 0.8-0.3-0.05-0.05 0.1-0.05q3.65-1.55 9.1-1.1l4 0.45 13.75 2.4q7.55 1.25 15.35 3.5l1.4-1.45m-48.7 2.6 5.15 6.65m-5.7-4.8-0.7-0.85m1.25-1-0.55 1.85 3.25 3.45m-35.2-16.55-6 0.8m89.55 10.15 1.15 0.15 2.05 0.3 2.1-2.6m-9.05 1.3-2.3 1.95m6.05-1.1-1.75-0.45-2-0.4m0.95 3.25 2.8-2.4 0.7-0.8m15.45 18.65 1.95-5.15 0.4-1.8q0.5-4.35-0.55-8.75-0.95-3.95-0.95-7.4l-1 1.1q-2.15 2.9-8.3 4.25l-4.5 0.35-2.8 3.2m15.75 14.2-0.3 0.5q-2.05 3.6-3.5 7.9-1.95 5.4-2.6 11.75l-0.45 3.55q-1.05 7.95 1.05 17.15l1.65 8 0.45 2.5-10.35-7.55-3.7-2.55 2.55 7m-30.05-19.95-6.9-1.7-5.85-1q-14.4-2.2-25.7 0.9l-2.85 0.45-5 0.4q-5.85-0.2-11.05-1.4-1.4-0.55-2.4-0.75l-1.05-0.35-5.45 3.1m83.9 7.4-0.4-2.45m0.4 2.45q1.4 0.55 2.9 1.55 1 0.45 2.3 1.25l-2.5-6.05m-2.7 3.25q-8.7-4.55-17.65-7.05m22.85 9.85 4.65 3.1-3.5-9.6m-1.15 6.5 0.9 2.7m-6.05-3.55-0.05-1.95m-40.6-28.95-1.55 0.6m3.6-3.7-3 1.4m-41.95 18.6q0.95 0.15 1.95 0.65l0.25 0.05 2.85 0.85 3.35-1.9m-11.05-0.55q-1.45-0.65-2.8-1l-9.15-3.35-3.45-1.2m15.4 5.55 3.4-1.6m-0.75 2.5-0.25-0.1q-1.3-0.55-2.4-0.8l-2.45 1.2m7.05 0.35-5.75 2.4m46.7-19.95 12-4.2m-1.15 2.1-10.25 3.7m1.45-4.7 5.45-2.75" fill="none" stroke="#000" stroke-linecap="round" stroke-linejoin="round" stroke-opacity=".28235"/>
</g>
<linearGradient id="a" x1="-819.2" x2="819.2" gradientTransform="matrix(.0544 .0427 -.0147 .0187 200.3 242)" gradientUnits="userSpaceOnUse">
<stop stop-color="#9f8672" offset="0"/>
<stop stop-color="#80644f" offset="1"/>
<stop stop-color="#836753" offset="1"/>
</linearGradient>
<linearGradient id="g" x1="-819.2" x2="819.2" gradientTransform="matrix(-.0071 .0502 -.025 -.0035 187.05 159.05)" gradientUnits="userSpaceOnUse">
<stop stop-color="#9f8672" offset="0"/>
<stop stop-color="#775a45" offset="1"/>
<stop stop-color="#5c3c34" offset="1"/>
</linearGradient>
<linearGradient id="f" x1="-819.2" x2="819.2" gradientTransform="matrix(-.0157 -.0101 .01 -.0155 219.2 210.3)" gradientUnits="userSpaceOnUse">
<stop stop-color="#ebe2cf" offset="0"/>
<stop stop-color="#d3be92" offset="1"/>
<stop stop-color="#5c3c34" offset="1"/>
</linearGradient>
<linearGradient id="e" x1="-819.2" x2="819.2" gradientTransform="matrix(-.0277 -.0267 .0175 -.0182 351.9 149.05)" gradientUnits="userSpaceOnUse">
<stop stop-color="#836752" offset="0"/>
<stop stop-color="#664d3c" offset="1"/>
<stop stop-color="#5c3c34" offset="1"/>
</linearGradient>
<linearGradient id="d" x1="-819.2" x2="819.2" gradientTransform="matrix(-.0069 -.0207 .0145 -.0049 235.5 233.9)" gradientUnits="userSpaceOnUse">
<stop stop-color="#fff" offset="0"/>
<stop stop-color="#f8f3ed" offset="1"/>
</linearGradient>
<linearGradient id="c" x1="-819.2" x2="819.2" gradientTransform="matrix(0 -.0336 -.04 .0011 404.95 190.65)" gradientUnits="userSpaceOnUse">
<stop stop-color="#666" offset="0"/>
<stop stop-color="#4d342b" offset="1"/>
</linearGradient>
</defs>
</svg>
