<?xml version="1.0" encoding="UTF-8"?>
<svg version="1.1" viewBox="0 0 145.07 171.7" xmlns="http://www.w3.org/2000/svg" xmlns:cc="http://creativecommons.org/ns#" xmlns:dc="http://purl.org/dc/elements/1.1/" xmlns:rdf="http://www.w3.org/1999/02/22-rdf-syntax-ns#" xmlns:xlink="http://www.w3.org/1999/xlink">
<metadata>
<rdf:RDF>
<cc:Work rdf:about="">
<dc:format>image/svg+xml</dc:format>
<dc:type rdf:resource="http://purl.org/dc/dcmitype/StillImage"/>
</cc:Work>
</rdf:RDF>
</metadata>
<g transform="translate(-202.05 -156.96)">
<use transform="rotate(180 173.55 164.32)" width="145" height="171.64999" xlink:href="#o"/>
<use transform="rotate(180 133.22 98.1)" width="21.15" height="24.200001" xlink:href="#n"/>
<use transform="matrix(-.4449 -.5638 .5638 -.4449 255.28 205.03)" width="42.400002" height="42.400002" xlink:href="#a"/>
<use transform="rotate(180 127.48 105.75)" width="23.35" height="23.450001" xlink:href="#h"/>
<use transform="matrix(.6815 -.2242 .2242 .6815 224.85 191.5)" width="42.400002" height="42.400002" xlink:href="#a"/>
<use transform="rotate(180 139.58 113.35)" width="28.75" height="32.900002" xlink:href="#g"/>
<use transform="matrix(-.6039 -.7653 .7653 -.6039 263.93 238.63)" width="42.400002" height="42.400002" xlink:href="#a"/>
<use transform="rotate(180 129.98 122.02)" width="36.650002" height="32.599998" xlink:href="#f"/>
<use transform="matrix(-.4836 .9329 -.9329 -.4836 271.93 216.97)" width="42.400002" height="42.400002" xlink:href="#a"/>
<use transform="rotate(180,148.75,125.2)" width="34.099998" height="37.200001" xlink:href="#e"/>
<use transform="matrix(1.032 .3033 -.3033 1.032 264.3 203.39)" width="42.400002" height="42.400002" xlink:href="#a"/>
<use transform="rotate(180 165.18 134.82)" width="24.9" height="21.799999" xlink:href="#d"/>
<use transform="matrix(.4184 -.5829 .5829 .4184 296.52 263.49)" width="42.400002" height="42.400002" xlink:href="#a"/>
<use transform="rotate(180,142.65,136.25)" width="31.25" height="28.65" xlink:href="#c"/>
<use transform="matrix(-.2548 .8668 -.8668 -.2548 293.53 244.63)" width="42.400002" height="42.400002" xlink:href="#a"/>
<use transform="rotate(180 113.2 137.58)" width="16.549999" height="18.950001" xlink:href="#b"/>
<use transform="matrix(-.3489 -.4421 .4421 -.3489 217.67 282.12)" width="42.400002" height="42.400002" xlink:href="#a"/>
<use transform="rotate(180 129.22 135)" width="24.950001" height="28.549999" xlink:href="#m"/>
<use transform="matrix(-.5249 -.6652 .6652 -.5249 245.28 280.43)" width="42.400002" height="42.400002" xlink:href="#a"/>
<use transform="rotate(180 170.3 143.28)" width="10.55" height="12.05" xlink:href="#l"/>
<use transform="matrix(-.2214 -.2806 .2806 -.2214 335.1 290.94)" width="42.400002" height="42.400002" xlink:href="#a"/>
<use transform="rotate(180 132.22 151.65)" width="24.75" height="22.85" xlink:href="#k"/>
<use transform="matrix(-.1721 .6961 -.6961 -.1721 270.51 280.34)" width="42.400002" height="42.400002" xlink:href="#a"/>
<use transform="rotate(180,148.5,149.7)" width="30.15" height="34.549999" xlink:href="#j"/>
<use transform="matrix(-.6351 -.8048 .8048 -.6351 281.05 311.98)" width="42.400002" height="42.400002" xlink:href="#a"/>
<use transform="rotate(180 136.62 158.3)" width="12.7" height="11.75" xlink:href="#i"/>
<use transform="matrix(.3398 -.1789 .1789 .3398 256.25 308.34)" width="42.400002" height="42.400002" xlink:href="#a"/>
</g>
<defs>
<g id="o" transform="translate(66.45,99.1)">
<path d="m-65.8-46.25q-2.55-25.9 34.8-16.85 5.25-10.65 9.9-13.55 4.6-2.95 7.3-4.1 2.7-1.2 11.85-3.75 4.05-22.35 31.3-10.45 8.95 6.3 6.6 12.05 15.75 2.35 19.7 28.75 35.2 4.2 16.35 34.65 9.3 16.05 0.25 38.9t-26.35 28.6l-18.9 23q-10.6 5.8-20.65-9.85-31-22.95-37-63.05l-6.6-7.55q-24.5-10.6-28.55-36.8" fill="#298db6" fill-opacity=".50196" fill-rule="evenodd"/>
<path d="m-65.8-46.25q-2.55-25.9 34.8-16.85 5.25-10.65 9.9-13.55 4.6-2.95 7.3-4.1 2.7-1.2 11.85-3.75 4.05-22.35 31.3-10.45 8.95 6.3 6.6 12.05 15.75 2.35 19.7 28.75 35.2 4.2 16.35 34.65 9.3 16.05 0.25 38.9t-26.35 28.6l-18.9 23q-10.6 5.8-20.65-9.85-31-22.95-37-63.05l-6.6-7.55q-24.5-10.6-28.55-36.8l-0.65 0.2" fill="none" stroke="#000029" stroke-linecap="round" stroke-linejoin="round" stroke-opacity=".25098" stroke-width=".05"/>
</g>
<g id="n" transform="translate(-8.15,-19.35)">
<path d="m15.7 36.05q-4.05-0.1-5.6-3.3-2.5-2.45-1.8-5.65 0.4-4.15 3.7-6.35 3.1-2.4 8.4-0.7 5.3 1.75 8.8 7.65 0.8 9.95-5.85 13.25-5.95 3.05-11.85 2.5l-1.95-1.45q4.2-0.2 7.45-3.4l-1.25-2.55h-0.05m8.55-6.55q0.05 3.8-2.15 5.2-4.15 1.5-6.35 1.35 2.2 0.15 6.35-1.35 2.2-1.4 2.15-5.2m-6.75 4.6-5.25-2.4 5.25 2.4m-8.05-7.85 1.25 3.4-1.25-3.4" fill="#8d4e31" fill-rule="evenodd"/>
<path d="m15.7 36.05q-4.05-0.1-5.6-3.3-2.5-2.45-1.8-5.65 0.4-4.15 3.7-6.35 3.1-2.4 8.4-0.7 5.3 1.75 8.8 7.65 0.8 9.95-5.85 13.25-5.95 3.05-11.85 2.5l-1.95-1.45q4.2-0.2 7.45-3.4l-1.25-2.55h-0.05 0.05q2.2 0.15 6.35-1.35 2.2-1.4 2.15-5.2" fill="none" stroke="#000029" stroke-linecap="round" stroke-linejoin="round" stroke-opacity=".25098" stroke-width=".05"/>
<path d="m10.7 29.65-1.25-3.4m2.8 5.45 5.25 2.4" fill="none" stroke="#000029" stroke-linecap="round" stroke-linejoin="round" stroke-opacity=".25098"/>
</g>
<g id="a" transform="translate(21.2,21.2)">
<path d="m-5.4-20.55 5.4-0.65 5.45 0.65q5.35 1.35 9.55 5.55 6.2 6.2 6.2 15t-6.2 15-15 6.2-15-6.2-6.2-15 6.2-15q4.2-4.2 9.6-5.55m-1.9 11.75 18.35 5.35 5.1 5.1-7.2-16.2-12.2-1.9-4.05 7.65m-5.65 22.6 0.25 0.2q4.65 3.55 8 1.85-6.05-1.85-9.6-7.8-2.3 2.6 1.35 5.75" fill="#cc7a29" fill-opacity=".49804" fill-rule="evenodd"/>
<path d="m-7.3-8.8 4.05-7.65 12.2 1.9 7.2 16.2-5.1-5.1-18.35-5.35" fill="#cc9a79" fill-opacity=".49804" fill-rule="evenodd"/>
<path d="m-12.95 13.8q-3.65-3.15-1.35-5.75 3.55 5.95 9.6 7.8-3.35 1.7-8-1.85l-0.25-0.2" fill="#ccb2b5" fill-opacity=".49804" fill-rule="evenodd"/>
<path d="m-5.4-20.55 5.4-0.65 5.45 0.65q5.35 1.35 9.55 5.55 6.2 6.2 6.2 15t-6.2 15-15 6.2-15-6.2-6.2-15 6.2-15q4.2-4.2 9.6-5.55z" fill="none" stroke="#000029" stroke-linecap="round" stroke-linejoin="round" stroke-opacity=".12549" stroke-width=".05"/>
</g>
<g id="h" transform="translate(-19.65,-4.05)">
<path d="m30.25 22.15q-3.55-1.25-4.15-3.75 0.05-4.45 0.95-6.45-0.9 2-0.95 6.45 0.6 2.5 4.15 3.75m-3.2-10.2q1.5-3.75 5.05-4.2 3.1-1.5 5.9 0.25 3.75 1.85 4.65 5.7 1.25 3.75-2.2 8.1-3.4 4.4-10.15 5.7-9.65-2.7-10.45-10.1-0.85-6.6 1.7-11.95l2-1.4q-1.25 4.05 0.7 8.2l2.8-0.3m1.2 2.35 4.05-4.15-4.05 4.15m10.15-4.85h-3.6 3.6" fill="#8d4e31" fill-rule="evenodd"/>
<path d="m27.05 11.95q-0.9 2-0.95 6.45 0.6 2.5 4.15 3.75m-3.2-10.2q1.5-3.75 5.05-4.2 3.1-1.5 5.9 0.25 3.75 1.85 4.65 5.7 1.25 3.75-2.2 8.1-3.4 4.4-10.15 5.7-9.65-2.7-10.45-10.1-0.85-6.6 1.7-11.95l2-1.4q-1.25 4.05 0.7 8.2l2.8-0.3" fill="none" stroke="#000029" stroke-linecap="round" stroke-linejoin="round" stroke-opacity=".25098" stroke-width=".05"/>
<path d="m34.8 9.45h3.6m-6.1 0.7-4.05 4.15" fill="none" stroke="#000029" stroke-linecap="round" stroke-linejoin="round" stroke-opacity=".25098"/>
</g>
<g id="g" transform="translate(4.55,11.15)">
<path d="m17.35 2.75q0.05 5.05-2.9 7-5.7 2.05-8.65 1.85 2.95 0.2 8.65-1.85 2.95-1.95 2.9-7m-11.6 8.8q-5.5-0.1-7.65-4.4-3.35-3.35-2.45-7.75 0.55-5.6 5.1-8.6 4.15-3.3 11.35-0.95 7.25 2.35 12 10.35 1.05 13.5-8 18.05-8.05 4.15-16.05 3.4l-2.7-2q5.75-0.25 10.15-4.6l-1.7-3.45-0.05-0.05m2.45-2.65-7.2-3.2 7.2 3.2m-10.9-10.6 1.65 4.6-1.65-4.6" fill="#8d4e31" fill-rule="evenodd"/>
<path d="m5.8 11.6q2.95 0.2 8.65-1.85 2.95-1.95 2.9-7m-11.6 8.8q-5.5-0.1-7.65-4.4-3.35-3.35-2.45-7.75 0.55-5.6 5.1-8.6 4.15-3.3 11.35-0.95 7.25 2.35 12 10.35 1.05 13.5-8 18.05-8.05 4.15-16.05 3.4l-2.7-2q5.75-0.25 10.15-4.6l-1.7-3.45-0.05-0.05 0.05 0.05" fill="none" stroke="#000029" stroke-linecap="round" stroke-linejoin="round" stroke-opacity=".25098" stroke-width=".05"/>
<path d="m-1.05 2.9-1.65-4.6m3.7 7.4 7.2 3.2" fill="none" stroke="#000029" stroke-linecap="round" stroke-linejoin="round" stroke-opacity=".25098"/>
</g>
<g id="f" transform="translate(-14.65,28.5)">
<path d="m25.1-19.45q4.9-2.3 8.15-0.25 4.5 4.7 5.65 7.65-1.15-2.95-5.65-7.65-3.25-2.05-8.15 0.25m13.75 7.45q2.35 5.5-0.9 9.5-1.8 4.8-6.5 5.85-5.8 1.95-10.7-1.15-5.1-2.65-6-10.8-0.9-8.1 4.8-16.35 12.85-7.05 21.3-0.15 7.7 6.1 10.45 14.25l-0.7 3.5q-2.8-5.45-9.05-7.85l-2.65 3.15-0.05 0.05m-3.65-1.2-0.05 8.45 0.05-8.45m-5.55 15.45 3.7-3.7-3.7 3.7" fill="#8d4e31" fill-rule="evenodd"/>
<path d="m38.9-12.05q-1.15-2.95-5.65-7.65-3.25-2.05-8.15 0.25m13.75 7.45q2.35 5.5-0.9 9.5-1.8 4.8-6.5 5.85-5.8 1.95-10.7-1.15-5.1-2.65-6-10.8-0.9-8.1 4.8-16.35 12.85-7.05 21.3-0.15 7.7 6.1 10.45 14.25l-0.7 3.5q-2.8-5.45-9.05-7.85l-2.65 3.15-0.05 0.05 0.05-0.05" fill="none" stroke="#000029" stroke-linecap="round" stroke-linejoin="round" stroke-opacity=".25098" stroke-width=".05"/>
<path d="m33.35-1.45-3.7 3.7m5.5-7 0.05-8.45" fill="none" stroke="#000029" stroke-linecap="round" stroke-linejoin="round" stroke-opacity=".25098"/>
</g>
<g id="e" transform="translate(22.9,34.85)">
<path d="m-12.25-6.8q-3.3-4.55-1.9-8.15 3.9-5.45 6.65-7.2-2.75 1.75-6.65 7.2-1.4 3.6 1.9 8.15m4.8-15.35q5.05-3.4 9.75-0.85 5.1 0.85 7.1 5.35 3.1 5.4 0.9 10.95-1.65 5.65-9.6 8.1-8 2.55-17.4-1.65-9.6-11.5-4.3-21.25 4.55-8.9 12.25-13.35l3.7 0.05q-5 3.9-6.15 10.65l3.7 2h0.05m-0.55 3.95 8.55-1.65-8.55 1.65m16.65 2.6-4.45-3.05 4.45 3.05" fill="#8d4e31" fill-rule="evenodd"/>
<path d="m-7.5-22.15q-2.75 1.75-6.65 7.2-1.4 3.6 1.9 8.15m4.8-15.35q5.05-3.4 9.75-0.85 5.1 0.85 7.1 5.35 3.1 5.4 0.9 10.95-1.65 5.65-9.6 8.1-8 2.55-17.4-1.65-9.6-11.5-4.3-21.25 4.55-8.9 12.25-13.35l3.7 0.05q-5 3.9-6.15 10.65l3.7 2h0.05-0.05" fill="none" stroke="#000029" stroke-linecap="round" stroke-linejoin="round" stroke-opacity=".25098" stroke-width=".05"/>
<path d="m4.2-18.65 4.45 3.05m-8.1-4.25-8.55 1.65" fill="none" stroke="#000029" stroke-linecap="round" stroke-linejoin="round" stroke-opacity=".25098"/>
</g>
<g id="d" transform="translate(55.75,54.1)">
<path d="m-38.85-37.95q-3.6 1.1-5.5-0.6-2.6-3.6-3.15-5.7 0.55 2.1 3.15 5.7 1.9 1.7 5.5 0.6m-8.6-6.35q-1-4 1.6-6.35 1.65-3.05 4.95-3.3 4.05-0.75 7.1 1.85 3.15 2.3 2.95 7.8-0.15 5.6-4.8 10.6-9.4 3.55-14.4-1.95-4.6-4.9-5.7-10.65l0.85-2.3q1.35 3.95 5.35 6.2l2.05-1.85 0.05-0.05m2.4 1.15 0.85-5.75-0.85 5.75m5.25-9.9-2.85 2.15 2.85-2.15" fill="#8d4e31" fill-rule="evenodd"/>
<path d="m-47.5-44.25q0.55 2.1 3.15 5.7 1.9 1.7 5.5 0.6m-8.6-6.35q-1-4 1.6-6.35 1.65-3.05 4.95-3.3 4.05-0.75 7.1 1.85 3.15 2.3 2.95 7.8-0.15 5.6-4.8 10.6-9.4 3.55-14.4-1.95-4.6-4.9-5.7-10.65l0.85-2.3q1.35 3.95 5.35 6.2l2.05-1.85 0.05-0.05-0.05 0.05" fill="none" stroke="#000029" stroke-linecap="round" stroke-linejoin="round" stroke-opacity=".25098" stroke-width=".05"/>
<path d="m-42.65-50.9 2.85-2.15m-4.4 4.15-0.85 5.75" fill="none" stroke="#000029" stroke-linecap="round" stroke-linejoin="round" stroke-opacity=".25098"/>
</g>
<g id="c" transform="translate(10.7,56.95)">
<path d="m-3-48q3.8-2.75 6.85-1.6 4.6 3.25 6.05 5.55-1.45-2.3-6.05-5.55-3.05-1.15-6.85 1.6m12.9 4q2.85 4.25 0.75 8.2-0.75 4.35-4.55 5.95-4.5 2.65-9.2 0.8-4.7-1.35-6.8-8.05t1.35-14.6q9.7-8.1 17.9-3.65 7.5 3.85 11.2 10.3v3.1q-3.25-4.2-9-5.2l-1.65 3.1v0.05m-3.3-0.4 1.35 7.15-1.35-7.15m-2.15 13.95 2.5-3.75-2.5 3.75" fill="#8d4e31" fill-rule="evenodd"/>
<path d="m9.9-44.05q-1.45-2.3-6.05-5.55-3.05-1.15-6.85 1.6m12.9 4q2.85 4.25 0.75 8.2-0.75 4.35-4.55 5.95-4.5 2.65-9.2 0.8-4.7-1.35-6.8-8.05t1.35-14.6q9.7-8.1 17.9-3.65 7.5 3.85 11.2 10.3v3.1q-3.25-4.2-9-5.2l-1.65 3.1v0.05-0.05" fill="none" stroke="#000029" stroke-linecap="round" stroke-linejoin="round" stroke-opacity=".25098" stroke-width=".05"/>
<path d="m6.95-34.2-2.5 3.75m3.5-6.8-1.35-7.15" fill="none" stroke="#000029" stroke-linecap="round" stroke-linejoin="round" stroke-opacity=".25098"/>
</g>
<g id="b" transform="translate(-48.2,59.6)">
<path d="m60.8-51.65q0 3-1.65 4.1-3.3 1.15-5.05 1.1 1.75 0.05 5.05-1.1 1.65-1.1 1.65-4.1m-6.7 5.15q-3.15-0.1-4.4-2.6-1.95-1.9-1.4-4.45 0.3-3.2 2.9-4.95 2.4-1.9 6.55-0.55 4.2 1.35 6.95 5.95 0.6 7.8-4.6 10.45-4.65 2.4-9.3 1.95l-1.55-1.1q3.3-0.15 5.85-2.75l-1-1.9v-0.05m1.45-1.55-4.15-1.85 4.15 1.85m-6.35-6.1 1 2.6-1-2.6" fill="#8d4e31" fill-rule="evenodd"/>
<path d="m54.1-46.45q1.75 0.05 5.05-1.1 1.65-1.1 1.65-4.1m-6.7 5.15q-3.15-0.1-4.4-2.6-1.95-1.9-1.4-4.45 0.3-3.2 2.9-4.95 2.4-1.9 6.55-0.55 4.2 1.35 6.95 5.95 0.6 7.8-4.6 10.45-4.65 2.4-9.3 1.95l-1.55-1.1q3.3-0.15 5.85-2.75l-1-1.9v-0.05 0.05" fill="none" stroke="#000029" stroke-linecap="round" stroke-linejoin="round" stroke-opacity=".25098" stroke-width=".05"/>
<path d="m50.2-51.55-1-2.6m2.2 4.25 4.15 1.85" fill="none" stroke="#000029" stroke-linecap="round" stroke-linejoin="round" stroke-opacity=".25098"/>
</g>
<g id="m" transform="translate(-16.15,54.45)">
<path d="m35.1-42.45q0.1 4.45-2.45 6.1-4.95 1.75-7.55 1.65 2.6 0.1 7.55-1.65 2.55-1.65 2.45-6.1m-10.05 7.7q-4.8-0.1-6.65-3.9-2.9-2.85-2.1-6.7 0.45-4.8 4.35-7.4 3.65-2.9 9.9-0.85 6.3 2 10.45 8.95 0.85 11.8-6.95 15.7-7 3.6-13.95 2.95l-2.35-1.7q4.95-0.25 8.8-4l-1.45-3-0.05-0.05m2.15-2.3-6.25-2.8 6.25 2.8m-9.55-9.2 1.5 3.95-1.5-3.95" fill="#8d4e31" fill-rule="evenodd"/>
<path d="m25.1-34.7q2.6 0.1 7.55-1.65 2.55-1.65 2.45-6.1m-10.05 7.7q-4.8-0.1-6.65-3.9-2.9-2.85-2.1-6.7 0.45-4.8 4.35-7.4 3.65-2.9 9.9-0.85 6.3 2 10.45 8.95 0.85 11.8-6.95 15.7-7 3.6-13.95 2.95l-2.35-1.7q4.95-0.25 8.8-4l-1.45-3-0.05-0.05 0.05 0.05" fill="none" stroke="#000029" stroke-linecap="round" stroke-linejoin="round" stroke-opacity=".25098" stroke-width=".05"/>
<path d="m19.15-42.3-1.5-3.95m3.3 6.4 6.25 2.8" fill="none" stroke="#000029" stroke-linecap="round" stroke-linejoin="round" stroke-opacity=".25098"/>
</g>
<g id="l" transform="translate(66,71)">
<path d="m-57.95-65.95q0 1.85-1.05 2.6-2.1 0.7-3.2 0.65 1.1 0.05 3.2-0.65 1.05-0.75 1.05-2.6m-4.25 3.25q-2-0.05-2.85-1.65-1.2-1.2-0.85-2.8 0.15-2.05 1.8-3.15 1.55-1.2 4.2-0.35t4.4 3.8q0.4 4.95-2.9 6.6-2.95 1.55-5.95 1.25l-0.95-0.7q2.1-0.1 3.7-1.7l-0.6-1.3m0.85-0.95-2.6-1.2 2.6 1.2m-4-3.9 0.6 1.65-0.6-1.65" fill="#8d4e31" fill-rule="evenodd"/>
<path d="m-62.2-62.7q1.1 0.05 3.2-0.65 1.05-0.75 1.05-2.6m-4.25 3.25q-2-0.05-2.85-1.65-1.2-1.2-0.85-2.8 0.15-2.05 1.8-3.15 1.55-1.2 4.2-0.35t4.4 3.8q0.4 4.95-2.9 6.6-2.95 1.55-5.95 1.25l-0.95-0.7q2.1-0.1 3.7-1.7l-0.6-1.3" fill="none" stroke="#000029" stroke-linecap="round" stroke-linejoin="round" stroke-opacity=".25098" stroke-width=".05"/>
<path d="m-64.75-65.9-0.6-1.65m1.4 2.7 2.6 1.2" fill="none" stroke="#000029" stroke-linecap="round" stroke-linejoin="round" stroke-opacity=".25098"/>
</g>
<g id="k" transform="translate(-10.15,87.75)">
<path d="m16.05-80.4q2.95-2.3 5.35-1.5 3.75 2.4 5 4.2-1.25-1.8-5-4.2-2.4-0.8-5.35 1.5m10.35 2.7q2.45 3.3 0.9 6.5-0.45 3.45-3.4 4.9-3.5 2.2-7.25 0.95-3.8-0.95-5.65-6.2-1.95-5.2 0.55-11.6 7.35-6.75 14.05-3.55 6.05 2.85 9.2 7.8l0.1 2.45q-2.7-3.15-7.25-3.8l-1.25 2.55m-2.65-0.15 1.35 5.6-1.35-5.6m-1.2 11.15 1.85-3.1-1.85 3.1" fill="#8d4e31" fill-rule="evenodd"/>
<path d="m26.4-77.7q-1.25-1.8-5-4.2-2.4-0.8-5.35 1.5m10.35 2.7q2.45 3.3 0.9 6.5-0.45 3.45-3.4 4.9-3.5 2.2-7.25 0.95-3.8-0.95-5.65-6.2-1.95-5.2 0.55-11.6 7.35-6.75 14.05-3.55 6.05 2.85 9.2 7.8l0.1 2.45q-2.7-3.15-7.25-3.8l-1.25 2.55" fill="none" stroke="#000029" stroke-linecap="round" stroke-linejoin="round" stroke-opacity=".25098" stroke-width=".05"/>
<path d="m24.4-69.8-1.85 3.1m2.55-5.55-1.35-5.6" fill="none" stroke="#000029" stroke-linecap="round" stroke-linejoin="round" stroke-opacity=".25098"/>
</g>
<g id="j" transform="translate(22.4,83.85)">
<path d="m0.6-69.3q0 5.35-3 7.35-6.05 2.15-9.15 2 3.1 0.15 9.15-2 3-2 3-7.35m-12.2 9.3q-5.8-0.2-8.05-4.7-3.55-3.5-2.55-8.1 0.55-5.9 5.3-9.05 4.4-3.45 11.95-1 7.6 2.45 12.6 10.9 1.1 14.2-8.3 18.95-8.55 4.4-16.95 3.55l-2.85-2.05q6-0.25 10.65-4.9l-1.75-3.55-0.05-0.05m2.6-2.8-7.55-3.4 7.55 3.4m-11.5-11.15 1.75 4.75-1.75-4.75" fill="#8d4e31" fill-rule="evenodd"/>
<path d="m-11.55-59.95q3.1 0.15 9.15-2 3-2 3-7.35m-12.2 9.3q-5.8-0.2-8.05-4.7-3.55-3.5-2.55-8.1 0.55-5.9 5.3-9.05 4.4-3.45 11.95-1 7.6 2.45 12.6 10.9 1.1 14.2-8.3 18.95-8.55 4.4-16.95 3.55l-2.85-2.05q6-0.25 10.65-4.9l-1.75-3.55-0.05-0.05 0.05 0.05" fill="none" stroke="#000029" stroke-linecap="round" stroke-linejoin="round" stroke-opacity=".25098" stroke-width=".05"/>
<path d="m-18.75-69.2-1.75-4.75m3.95 7.75 7.55 3.4" fill="none" stroke="#000029" stroke-linecap="round" stroke-linejoin="round" stroke-opacity=".25098"/>
</g>
<g id="i" transform="translate(-1.35,101.05)">
<path d="m7.8-92.1q-1.95-0.35-2.5-1.6-0.35-2.35-0.1-3.5-0.25 1.15 0.1 3.5 0.55 1.25 2.5 1.6m-2.55-5.1q0.4-2.1 2.25-2.65 1.55-1.05 3.2-0.35 2.1 0.6 2.95 2.5 0.95 1.9-0.45 4.5-1.45 2.65-4.85 3.9-5.35-0.55-6.4-4.4-1.05-3.4-0.2-6.4l0.95-0.95q-0.3 2.25 1.05 4.25l1.45-0.4h0.05m0.85 1.15 1.75-2.55-1.75 2.55m4.9-3.5-1.9 0.35 1.9-0.35" fill="#8d4e31" fill-rule="evenodd"/>
<path d="m5.2-97.2q-0.25 1.15 0.1 3.5 0.55 1.25 2.5 1.6m-2.55-5.1q0.4-2.1 2.25-2.65 1.55-1.05 3.2-0.35 2.1 0.6 2.95 2.5 0.95 1.9-0.45 4.5-1.45 2.65-4.85 3.9-5.35-0.55-6.4-4.4-1.05-3.4-0.2-6.4l0.95-0.95q-0.3 2.25 1.05 4.25l1.45-0.4h0.05-0.05" fill="none" stroke="#000029" stroke-linecap="round" stroke-linejoin="round" stroke-opacity=".25098" stroke-width=".05"/>
<path d="m9.1-99.2 1.9-0.35m-3.15 0.95-1.75 2.55" fill="none" stroke="#000029" stroke-linecap="round" stroke-linejoin="round" stroke-opacity=".25098"/>
</g>
</defs>
</svg>
