<?xml version="1.0" encoding="UTF-8"?>
<svg version="1.1" viewBox="0 0 215.33 220.08" xmlns="http://www.w3.org/2000/svg" xmlns:cc="http://creativecommons.org/ns#" xmlns:dc="http://purl.org/dc/elements/1.1/" xmlns:rdf="http://www.w3.org/1999/02/22-rdf-syntax-ns#" xmlns:xlink="http://www.w3.org/1999/xlink">
<metadata>
<rdf:RDF>
<cc:Work rdf:about="">
<dc:format>image/svg+xml</dc:format>
<dc:type rdf:resource="http://purl.org/dc/dcmitype/StillImage"/>
</cc:Work>
</rdf:RDF>
</metadata>
<g transform="translate(-119.29 -89.998)">
<use transform="translate(119.3,90)" width="215.3" height="220.05" xlink:href="#a"/>
</g>
<defs>
<g id="a" transform="translate(-119.3,-90)">
<path d="m236.35 128.45-6.95-6q-15.3-1.2-30.5 1.75-20.45 3.65-37.25 12.75-2.8 7.85 0 16.5 1.85 6.05 1.6 12.7-0.6 14.65 0.6 26.3l10.4-8.5q0.35-1 1.1-1.9 32.75-52 97.15-54.25l-36.15 0.65m20.3 18.05-1 0.65 1-0.65m-129.15 86.25-6.25-12.95q-3.95-4.75 0.15-31.3l0.65-4.55 35.05-66.05q34.1-17.6 68.1-24.2 45.55-8.5 92.1 2.65 18.85 16.2 17.15 39l-10.55 25.3q-0.65 24.2-3.15 43.75l-0.6 1.55q-56.95 51.55-126.6 65.4l-4.85-9.75 1.4-5.65-3.45-5.2-2.05-0.8q-22.95-4.1-39.3-13.5 27.2-38.6 110.35-89.3-65.45 30.45-128.15 85.6m7.8 16.2-0.05-0.1 0.15-0.1 0.1 0.6-0.2-0.4 0.1-0.2-0.1 0.2" fill="#fcd258" fill-rule="evenodd"/>
<path d="m236.35 128.45 36.15-0.65q-64.4 2.25-97.15 54.25-0.75 0.9-1.1 1.9l-10.4 8.5q-1.2-11.65-0.6-26.3 0.25-6.65-1.6-12.7-2.8-8.65 0-16.5 16.8-9.1 37.25-12.75 15.2-2.95 30.5-1.75l6.95 6" fill="#feeaaf" fill-rule="evenodd"/>
<path d="m320.15 205.95 0.3 0.15q-6.3 43.85-24.2 77.5l-0.8 2.85-94.15 23.6-0.2-0.8q-11.8-6.8-21.2-13.7-3.15-2.5-4.55-7.85l-1.45-5.65q-2.2-13.55-3.9-16.2-2.4-5.2-16.5-8.8l-9.3-2.2-9.1-5.05 0.2-0.85 0.2 0.4-0.1-0.6-0.15 0.1-7.75-16.1q62.7-55.15 128.15-85.6-83.15 50.7-110.35 89.3 16.35 9.4 39.3 13.5l2.05 0.8 3.45 5.2-1.4 5.65 4.85 9.75q69.65-13.85 126.6-65.4" fill="#ebb81f" fill-rule="evenodd"/>
<path d="m255.65 147.15 1-0.65m-129.15 86.25-6.25-12.95q-3.95-4.75 0.15-31.3l0.65-4.55 35.05-66.05q34.1-17.6 68.1-24.2 45.55-8.5 92.1 2.65 18.85 16.2 17.15 39l-10.55 25.3q-0.65 24.2-3.15 43.75m-0.3 1.7q-6.3 43.85-24.2 77.5l-0.8 2.85-94.15 23.6m-0.2-0.8q-11.8-6.8-21.2-13.7-3.15-2.5-4.55-7.85l-1.45-5.65q-2.2-13.55-3.9-16.2-2.4-5.2-16.5-8.8l-9.3-2.2m-9.1-5.05 0.2-0.85-0.05-0.1-7.75-16.1m128.15-85.6q-83.15 50.7-110.35 89.3m-9.8 12.9-0.2-0.4 0.1-0.2" fill="none" stroke="#52371d" stroke-linecap="round" stroke-linejoin="round" stroke-opacity=".50196" stroke-width=".05"/>
</g>
</defs>
</svg>
