<?xml version="1.0" encoding="UTF-8"?>
<svg version="1.1" viewBox="0 0 38.5 30.35" xmlns="http://www.w3.org/2000/svg" xmlns:cc="http://creativecommons.org/ns#" xmlns:dc="http://purl.org/dc/elements/1.1/" xmlns:rdf="http://www.w3.org/1999/02/22-rdf-syntax-ns#" xmlns:xlink="http://www.w3.org/1999/xlink">
<metadata>
<rdf:RDF>
<cc:Work rdf:about="">
<dc:format>image/svg+xml</dc:format>
<dc:type rdf:resource="http://purl.org/dc/dcmitype/StillImage"/>
</cc:Work>
</rdf:RDF>
</metadata>
<g transform="translate(-16.375 -318.88)">
<use transform="translate(16.4,318.9)" width="38.450001" height="30.299999" xlink:href="#a"/>
</g>
<defs>
<g id="a" transform="translate(-16.4,-318.9)">
<path d="m49.05 318.9q1.45 1.7 4.7 0.85l-1.4 3.2q2.45 0.85 2.5 2.45l-0.45 1.55-0.65 0.95-1.35 1.35h-0.2l0.05 0.1-1.75 0.8-2.95 0.5q-0.8 0.1-1.6 0.85l-0.35 1.2-0.05-0.05v-0.4l0.4-1.2-0.05-0.3v-0.2l-4.85 0.9-0.05-0.3 3.15-3.1-10.25-0.2 3.5-2.2 0.55 0.15 3-0.35 4.35-2.05q1.8-0.85 2.75-1.15l0.8-2.75 0.15-0.1v-0.2l0.05-0.3m-7.3 20.15-2.5 3.5-0.15-1.55 1.55-1.95h1.1m-11.3 5.9-6.3 4.25 2.7-5.2 0.5-0.1q0.75-0.15 2 0.45l1.1 0.6m-10.05-8.3-3.4-0.2 3.25-1.8 0.15 1.7v0.3m4.6-3.65 0.5-0.85 1.95-0.15 0.05 0.05-0.25 0.15-2.25 0.8m27.35-10.05-0.35 0.85q-0.3 0-0.5 0.5l-0.2 0.45-0.8 1.5-1 0.95q-1.05 0.7-2.8 0.3l-1.3-0.3-0.6-0.35-0.15-0.15-0.05-0.25q-0.05-0.7 1.7-2l1.4-0.95-0.65 2.2 0.65-2.2-1.4 0.95q-1.75 1.3-1.7 2l0.05 0.25 0.15 0.15 0.6 0.35 1.3 0.3q1.75 0.4 2.8-0.3l1-0.95 0.8-1.5 0.2-0.45q0.2-0.5 0.5-0.5l0.35-0.85m-4.65 0.55 0.35-1.25-0.35 1.25" fill="#949301" fill-rule="evenodd"/>
<path d="m45.5 333-0.95 3.1-0.95 0.35-0.25 0.05-0.1-0.2h-0.05v-0.1l-0.15-0.2q-0.7-1-1.7-0.75l-0.35 0.1q-0.6 0.25-1.05 0.6l-0.5 0.55-0.45 0.85h-0.25l-0.3-0.05h-0.1l-0.05-0.05-0.45-0.05-0.2-0.1 0.05 0.05h-0.1q-0.35-0.05-0.45-0.45-0.15-0.3-0.05-0.95l0.2-0.65-0.85 0.4 0.2 0.05q-0.1 1.3-4.1 4.15-4.05 2.85-9.95 1.65-1.25 0.2-1.8 0.7v-0.05l-0.2-0.5q-0.3-0.35-1.5-0.35t-1.45-0.6q-0.35-0.75 0.45-1.5l1.3-0.9h0.05l0.4-0.3 0.55-0.3 0.1-0.05 1.8-0.3 0.25-0.05 2.4-0.4q1.75-0.65 5.35-3.8l-2.05 0.85h-0.3q-3.4 1.7-6.85 2.8h-0.35l-0.35-0.25-0.15-1.7-0.05-0.25q-0.2-0.75 0.85-0.95l2.1-0.05 1.45-0.3 0.4-0.1 2.25-0.8 1.25-0.45 0.05-0.05 0.6-0.2q1.25-0.6 1.95-1.7-2.95 1-5.5 2.15l1.5-2.55q0.55-0.95 4.35-0.75 0.8 0.05 2.45-0.8l10.25 0.2-3.15 3.1 0.05 0.3 4.85-0.9v0.2l0.05 0.3-0.4 1.2v0.4l-0.05 0.35m-7.1 0.55-1 1-0.1 0.55 0.1-0.55 1-1" fill="#c8c702" fill-rule="evenodd"/>
<path d="m43.5 336.6-1.75 2.45h-1.1l-1.55 1.95-0.2-2.55v-0.05l-0.1-1.05h0.2l0.45-0.85 0.5-0.55q0.45-0.35 1.05-0.6l0.35-0.1q1-0.25 1.7 0.75l0.15 0.2v0.1h0.05l0.1 0.2 0.15 0.1m-22.2 7.3-0.05 0.05-4.85 2.2 4.4-4.15v0.05l0.05 0.1 0.3 1.35 0.15 0.4" fill="#999801" fill-rule="evenodd"/>
<path d="m25.5 332.15 0.1-0.2q2.55-1.15 5.5-2.15-0.7 1.1-1.95 1.7l-0.6 0.2-0.05 0.05-1.25 0.45 0.25-0.15 0.4-0.3-0.45 0.25-1.95 0.15m-4.4 4.45q3.45-1.1 6.85-2.8h0.3l2.05-0.85q-3.6 3.15-5.35 3.8l-2.4 0.4 1.3-0.15 0.4-0.15 1.25-1.2-1.3 0.5-0.35-0.1-2.75 0.55m16.6 0.55 0.05 0.05-5.35 3.35-1.05 3.65q-1.45-1.2-3.05-1.65l-0.25 0.05-0.35-0.05-4.9 0.95-0.15-0.1-1.25-0.85q0.4 0.75 0.05 0.35l-0.45-0.6-0.15-0.15-0.05-0.1q0.55-0.5 1.8-0.7 5.9 1.2 9.95-1.65 4-2.85 4.1-4.15l-0.2-0.05 0.85-0.4-0.2 0.65q-0.1 0.65 0.05 0.95 0.1 0.4 0.45 0.45h0.1" fill="#bdbc02" fill-rule="evenodd"/>
<path d="m38.9 338.4-0.2 0.05-4 1.8q-0.25 0.2-1.55 2.4l-1.45 2.4-0.5 0.15-0.75-0.25-1.1-0.6q-1.25-0.6-2-0.45l-0.5 0.1-3.15 0.75-1.3 0.15-0.65-0.25-0.35-0.5-0.1-0.25-0.15-0.4-0.3-1.35 0.15 0.15 0.45 0.6q0.35 0.4-0.05-0.35l1.25 0.85 0.15 0.1 4.9-0.95 0.35 0.05 0.25-0.05q1.6 0.45 3.05 1.65l1.05-3.65 5.35-3.35-0.05-0.05 0.15 0.05 0.5 0.1h0.1l0.3 0.05h0.05l0.1 1.05m-18.5-0.85v-1.2l0.35 0.25h0.35l2.75-0.55 0.35 0.1 1.3-0.5-1.25 1.2-0.4 0.15-1.3 0.15-0.25 0.05-1.8 0.3-0.1 0.05" fill="#585701" fill-rule="evenodd"/>
<path d="m48.85 319.5 0.15-0.6h0.05q1.45 1.7 4.7 0.85l-1.4 3.2q2.45 0.85 2.5 2.45l-0.45 1.55-0.65 0.95-1.35 1.35-0.15 0.1-1.75 0.8-2.95 0.5q-0.8 0.1-1.6 0.85l-0.35 1.2-0.1 0.3-0.95 3.1-0.95 0.35-0.1 0.15-4.25 5.95-0.15-1.55-0.2-2.55v-0.05l-0.2 0.05-4 1.8q-0.25 0.2-1.55 2.4l-1.45 2.4-0.5 0.15-0.75-0.25-6.3 4.25 2.7-5.2-3.15 0.75-1.3 0.15-0.65-0.25-0.35-0.45v-0.05l-0.1-0.25-0.05 0.05-4.85 2.2 4.4-4.15-0.2-0.5q-0.3-0.35-1.5-0.35t-1.45-0.6q-0.35-0.75 0.45-1.5l1.3-0.9h0.05l0.4-0.3 0.55-0.3v-0.9l-3.4-0.2 3.25-1.8-0.05-0.25q-0.2-0.75 0.85-0.95l2.1-0.05 1.45-0.3 0.4-0.1 0.5-0.85 0.1-0.2 1.5-2.55q0.55-0.95 4.35-0.75 0.8 0.05 2.45-0.8l3.5-2.2 0.55 0.15 3-0.35 4.35-2.05q1.8-0.85 2.75-1.15l0.8-2.75m-1.8 6.2 0.65-2.2-1.4 0.95q-1.75 1.3-1.7 2l0.05 0.25 0.15 0.15 0.6 0.35 1.3 0.3q1.75 0.4 2.8-0.3l1-0.95 0.8-1.5 0.2-0.45q0.2-0.5 0.5-0.5l0.35-0.85m-4.3-0.7-0.35 1.25m-4.35 13 0.25-0.05m-4.8 0.9h0.2l0.45-0.85 0.5-0.55q0.45-0.35 1.05-0.6l0.35-0.1q1-0.25 1.7 0.75l0.15 0.2v0.1h0.05l0.1 0.2m-16.1-4.3 1.25-0.45 0.05-0.05 0.6-0.2m-6.6 5.65 2.4-0.4q1.75-0.65 5.35-3.8m-3.05-0.75-2.25 0.8m-4.6 3.35v0.3m-0.15-2 0.15 1.7m2.15 0.8-0.25 0.05-1.8 0.3-0.1 0.05m0.45 4.6 0.3 1.35 0.15 0.4m-0.5-1.9v0.05l0.05 0.1m16.45-7.05 0.1-0.55 1-1m-11.55 10.45 0.5-0.1q0.75-0.15 2 0.45l1.1 0.6m7.4-7.75-0.15-0.05h-0.1q-0.35-0.05-0.45-0.45-0.15-0.3-0.05-0.95l0.2-0.65m0.55 2.1 0.45 0.05 0.05 0.05h0.1l0.3 0.05h0.05l0.1 1.05" fill="none" stroke="#52371d" stroke-linecap="round" stroke-linejoin="round" stroke-opacity=".50196" stroke-width=".05"/>
</g>
</defs>
</svg>
