<?xml version="1.0" encoding="UTF-8"?>
<svg version="1.1" viewBox="0 0 98.75 62.45" xmlns="http://www.w3.org/2000/svg" xmlns:cc="http://creativecommons.org/ns#" xmlns:dc="http://purl.org/dc/elements/1.1/" xmlns:rdf="http://www.w3.org/1999/02/22-rdf-syntax-ns#" xmlns:xlink="http://www.w3.org/1999/xlink">
<metadata>
<rdf:RDF>
<cc:Work rdf:about="">
<dc:format>image/svg+xml</dc:format>
<dc:type rdf:resource="http://purl.org/dc/dcmitype/StillImage"/>
</cc:Work>
</rdf:RDF>
</metadata>
<g transform="translate(-12.85,-269.75)">
<use transform="translate(12.85,269.75)" width="98.75" height="62.450001" xlink:href="#a"/>
</g>
<defs>
<g id="a" transform="translate(-12.85,-269.75)">
<path d="m90.95 279.45-3.4 0.8-1.85 5.6 8.85 1.85 3-12h-0.05l-11.25-4.15-10.05 12.15 4.9 25.25 2.7 0.5v-0.1l11.4 7.15-0.2-14.55 7.6-8.3-1.1 1.8-5.55 7.25 2 18.4 1.45-0.55v0.1l6.95-3.05-4.15-1.8 6.9 0.55-0.95 0.95-8.2 5.65 1.75 1 0.05-0.1 1.9 4 6.4-1.25-7.2 3 2.65 1.7-8.3 0.35-7-4-1.6-7.6-2.65 5.35-11.1-3.3-2.85-10.25-0.85 10.4-11.6-8 4 8.95-15.05 8.8-28.7 0.2 6.7-2.95-10.5-17.85 6.45-11.95-9.6-3 10.45 1.45 4.85-9-4.45 10.65-5.75 11.45 12.05 17.4 1.55-1.1 5.7-2.2-0.05-0.1 1.85-0.05-7.7-14.9 10.85 12.35 0.05 0.05 0.2-0.3 4.45-4.1-2.5-14.65-0.1-0.95 3.3 11.95 2.65-4-0.1-0.5 1.6-1.55-0.05-0.15-1.85-7.8-1.6-14.75-1-0.7-0.9-0.95-15.3-8.8-5.8 2.1-0.4 2.75-1.8-1.95 8.05-5.35 19 9.9 3.5 13.7 0.55 0.8 1.9 4.6 8.45-0.75-0.45-0.05h0.1l2.85-8.7-1.2 12.8 1.75-2.35 10.75 2.95-4.2-22.05 11.75-13.85 14.1 4-4.45 15.85-11.05-3.1 2.75-7.8 3.75 0.75m-59.8 30.4-0.05-0.1 0.05 0.1m75.15 20 5.3 1.15-2.9 0.15-2.4-1.3" fill="#690" fill-rule="evenodd"/>
<path d="m83.8 309.35v0.1l-2.7-0.5-4.9-25.25 10.05-12.15 11.25 4.15h0.05l-3 12-8.85-1.85 1.85-5.6 3.4-0.8 2.05 0.35-4.8 1.1-1.9 4.55 7.85 1.3 2.55-10.55-10.55-3.3-9.05 11 6.7 25.45m-16.25-6.65-1.75 2.35 1.2-12.8 0.1-0.3 0.1 10.65 0.35 0.1m-42.7-22.65 0.4-2.75 5.8-2.1 15.3 8.8 0.9 0.95 1 0.7 1.6 14.75 1.85 7.8 0.05 0.15-1.6 1.55-3.7-23.9h-0.05l-0.2-0.15-15.45-9.75-4.8 2.3 0.9 3.8-2-2.15m19.55 23.35 2.5 14.65-4.45 4.1 3.3-5-1.35-13.75m-13.05 6.65 7.7 14.9-1.85 0.05-6.05-15.15 0.2 0.2m0.2 17.25-1.55 1.1-12.05-17.4 5.75-11.45-4.65 11.1 12.5 16.65m16.95 4.7 15.05-8.8-4-8.95 11.6 8 0.85-10.4 2.85 10.25 11.1 3.3 2.65-5.35 1.6 7.6 7 4-48.7 0.35m57-0.7-2.65-1.7 7.2-3 0.75-0.15-5.1 3.25 0.6 0.15 2.4 1.3-3.2 0.15m-3.75-7.45-0.05 0.1-1.75-1 8.2-5.65-6.4 6.55m-2.35-3.3-1.45 0.55-2-18.4 5.55-7.25-5.05 8.1 2.95 17" fill="#486a00" fill-rule="evenodd"/>
</g>
</defs>
</svg>
