<?xml version="1.0" encoding="UTF-8"?>
<svg version="1.1" viewBox="0 0 188.19 207.52" xmlns="http://www.w3.org/2000/svg" xmlns:cc="http://creativecommons.org/ns#" xmlns:dc="http://purl.org/dc/elements/1.1/" xmlns:rdf="http://www.w3.org/1999/02/22-rdf-syntax-ns#" xmlns:xlink="http://www.w3.org/1999/xlink">
<metadata>
<rdf:RDF>
<cc:Work rdf:about="">
<dc:format>image/svg+xml</dc:format>
<dc:type rdf:resource="http://purl.org/dc/dcmitype/StillImage"/>
</cc:Work>
</rdf:RDF>
</metadata>
<g transform="translate(-160.64 -103.76)">
<use transform="translate(160.65,103.8)" width="188.14999" height="207.45" xlink:href="#h"/>
<use transform="matrix(1.6974 -1.6974 1.5576 1.5576 237.24 219.09)" width="5.4000001" height="4.0500002" xlink:href="#g"/>
<use transform="matrix(-.3962 1.0152 .9848 .3103 228.17 179.51)" width="48.450001" height="45.700001" xlink:href="#a"/>
<use transform="matrix(.8067 -1.0733 1.0078 .7173 196.31 224.62)" width="48.450001" height="45.700001" xlink:href="#a"/>
<use transform="matrix(-.325 1.2704 1.2472 .2169 220.32 175)" width="48.450001" height="45.700001" xlink:href="#a"/>
<use transform="matrix(-1.1779 .6172 .5181 1.1291 259.2 171.17)" width="48.450001" height="45.700001" xlink:href="#a"/>
<use transform="matrix(1.0379 -.3031 -.2149 -1.0156 218.22 244.15)" width="48.450001" height="45.700001" xlink:href="#a"/>
<use transform="matrix(.396 .9454 .983 -.4788 209.27 198.86)" width="48.450001" height="45.700001" xlink:href="#a"/>
<use transform="matrix(1.6974 -1.6974 1.5576 1.5576 213.25 238.56)" width="16.450001" height="31.9" xlink:href="#f"/>
<use transform="matrix(-.1165 -1.2688 1.2836 -.2261 215.75 250.77)" width="48.450001" height="45.700001" xlink:href="#a"/>
<use transform="matrix(.6288 1.0646 1.1227 -.7227 200.02 201.33)" width="48.450001" height="45.700001" xlink:href="#a"/>
<use transform="matrix(-.4895 1.2253 1.1877 .3858 227.66 171.81)" width="48.450001" height="45.700001" xlink:href="#a"/>
<use transform="matrix(.5985 -.9207 -.8727 -.5215 246.4 248.45)" width="48.450001" height="45.700001" xlink:href="#a"/>
<use transform="matrix(-.1132 1.0581 1.0523 .0225 221.85 184.17)" width="48.450001" height="45.700001" xlink:href="#a"/>
<use transform="matrix(.5008 -1.2242 1.1857 .3973 202.81 235.06)" width="48.450001" height="45.700001" xlink:href="#a"/>
<use transform="matrix(.0262 1.2777 1.2847 -.1363 212.91 182.08)" width="48.450001" height="45.700001" xlink:href="#a"/>
<use transform="matrix(-.9897 .8983 .8164 .916 250.08 167.92)" width="48.450001" height="45.700001" xlink:href="#a"/>
<use transform="matrix(.9375 -.5661 -.4875 -.8923 229.67 247.39)" width="48.450001" height="45.700001" xlink:href="#a"/>
<use transform="matrix(1.6974 -1.6974 1.5576 1.5576 234.54 198.74)" width="25.700001" height="36.650002" xlink:href="#e"/>
<use transform="matrix(-.7057 .8491 .7915 .6353 240.6 175.67)" width="48.450001" height="45.700001" xlink:href="#a"/>
<use transform="matrix(1.0993 -.766 .6742 1.0374 196.26 208.55)" width="48.450001" height="45.700001" xlink:href="#a"/>
<use transform="matrix(-1.2824 .1979 .0883 1.2701 271.69 178.12)" width="48.450001" height="45.700001" xlink:href="#a"/>
<use transform="matrix(1.0482 .0589 .1493 -1.0571 209.58 234.92)" width="48.450001" height="45.700001" xlink:href="#a"/>
<use transform="matrix(.0395 1.0506 1.0579 -.1301 216.8 187.9)" width="48.450001" height="45.700001" xlink:href="#a"/>
<use transform="matrix(.325 -1.269 1.2458 .217 205.07 240.4)" width="48.450001" height="45.700001" xlink:href="#a"/>
<use transform="matrix(.211 1.2452 1.268 -.319 207.53 187.15)" width="48.450001" height="45.700001" xlink:href="#a"/>
<use transform="matrix(.8578 -.6889 -.6176 -.8017 233.77 248.56)" width="48.450001" height="45.700001" xlink:href="#a"/>
<use transform="matrix(-.4625 .9868 .9507 .3793 233.27 178.08)" width="48.450001" height="45.700001" xlink:href="#a"/>
<use transform="matrix(-.4102 1.247 1.2163 .3044 225.84 173.01)" width="48.450001" height="45.700001" xlink:href="#a"/>
<use transform="matrix(-1.2064 .5342 .4323 1.1649 264.5 171.92)" width="48.450001" height="45.700001" xlink:href="#a"/>
<use transform="matrix(-.352 1.0255 .999 .265 226.84 179.93)" width="48.450001" height="45.700001" xlink:href="#a"/>
<use transform="matrix(.7601 -1.1013 1.0399 .6682 196.94 226.12)" width="48.450001" height="45.700001" xlink:href="#a"/>
<use transform="matrix(-.2695 1.2759 1.2574 .1607 218.79 175.79)" width="48.450001" height="45.700001" xlink:href="#a"/>
<use transform="matrix(1.0092 .412 -.5004 1.0484 228.97 177.49)" width="46.5" height="47.200001" xlink:href="#b"/>
<use transform="matrix(1.0252 -.3465 -.2595 -.9991 219.72 244.56)" width="48.450001" height="45.700001" xlink:href="#a"/>
<use transform="matrix(.4377 .9215 .9625 -.5186 208.65 199.9)" width="48.450001" height="45.700001" xlink:href="#a"/>
<use transform="matrix(-.1721 -1.2549 1.2744 -.2808 217.41 251.16)" width="48.450001" height="45.700001" xlink:href="#a"/>
<use transform="matrix(.6758 1.0296 1.0916 -.7669 199.5 202.75)" width="48.450001" height="45.700001" xlink:href="#a"/>
<use transform="matrix(-.4361 1.2383 1.2053 .3311 222.95 174.89)" width="46.5" height="47.200001" xlink:href="#b"/>
<use transform="matrix(.5585 -.9406 -.896 -.4796 247.98 247.51)" width="48.450001" height="45.700001" xlink:href="#a"/>
<use transform="matrix(-.0668 1.0557 1.0539 -.0238 220.81 184.79)" width="48.450001" height="45.700001" xlink:href="#a"/>
<use transform="matrix(.4474 -1.2377 1.2038 .3425 203.99 236.17)" width="48.450001" height="45.700001" xlink:href="#a"/>
<use transform="matrix(1.2677 .0823 -.1917 1.2795 218.03 178.66)" width="46.5" height="47.200001" xlink:href="#b"/>
<use transform="matrix(-.9508 .9354 .857 .8738 248.34 167.42)" width="48.450001" height="45.700001" xlink:href="#a"/>
<use transform="matrix(.9133 -.6033 -.527 -.8647 231.4 247.23)" width="48.450001" height="45.700001" xlink:href="#a"/>
<use transform="matrix(1.6974 -1.6974 1.5576 1.5576 223.37 220.5)" width="15.55" height="8.6000004" xlink:href="#d"/>
<use transform="translate(257.2,116.1)" width="70.849998" height="62.799999" xlink:href="#c"/>
</g>
<defs>
<g id="h" transform="translate(94.05,103.7)">
<path d="m46.05-73.4q-13.2-12.55-30-18.05-7.2-2.25-14.5 0.15 21.95 4.35 35.25 23.3 12.9 18.25 24.3 37.25l6.5 1 4.5-2q2-14.35-8.4-24.55l-17.65-17.1m18.05 61.9-1.75-3.85q-7.6-15.95-16.85-31.1-16.2-26.4-47.5-33.3-29.35-6.25-54.85 6.3-25.55 12.5-28.2 46.4-2.35 30.15 9.05 53.85l3.05 5.85q8.55 14.9 18.15 27.85 6.95 9.4 14.5 17.75-22.85-15.7-36.85-39.4t-16.45-50.9q-2.7-29.6 11.5-55.45 15.15-27.5 45.9-34.2 29.8-6.45 57.6 7.75 25.05 12.7 45.25 31.9 16.05 15.2 22.65 35.3h-0.15q-1.1 0.05-2-0.5-1.9 1.05-4.1 1.6-5.35 1.4-9.9 4.4l-0.5 0.5q-4 4.9-8.55 9.25m7.7 89.05q1.3-17.15 2.25-34.45 1.25-22.6-5.8-43.85 1.95-1.3 2.85-4h0.55l4.45-0.25q3.2-0.7 5.55-2.25l-0.5-3.5h-2q-1.05-0.25-1.7 0.25-1.2 1-2.8 1.25 3.1-2.2 5.3-5.15 1.8-2.4 4.2-4.35l5-0.5 1-1.5 0.7-0.7q1.1 4.3 1.85 8.85l-0.55-0.15h-0.5q-3 4.15-2.65 8.95 0.2 2.7-0.85 5.05l-4 3-5-0.5-1.5 5-1 0.5-0.45 0.1q-0.3 0.15-0.3 0.4l0.25 1q2.7 0.15 5.05 1.4l3.95 2.6q-1.5 14.15-2.9 30-0.3 3.35 1.9 6l2.25-0.05q-5.35 14.45-14.6 26.85" fill="url(#l)" fill-rule="evenodd"/>
<path d="m14.55-67.25q-1.95 4.65-1.85 9.75l0.1 1.8q4.15 15.6 20.55 17.85l7.75 1.6q-2.95-16.85-16.9-26.55-4.35-3.05-9.65-4.45m49.55 55.75-7.5 6.5 1-0.75-2.4 2.6q-1.3 1.6-1.1 3.4l2 2 1.45-0.2q3.6-1.1 7.9-1.75 1.6-0.25 2.8-1.05 7.05 21.25 5.8 43.85-0.95 17.3-2.25 34.45-5.6 7.35-12.7 13.65-19.7 17.45-46.6 10.65l-5.8-1.55 1.1-3.15q0.95 1.45 2.8 1.85l8.45 1.25q2.4 2.35 5.5 1.35 4.05-1.4 6.55-4.85l0.4-5.95q16.55-2.05 22.7-20.35 4.35-13 0.9-25.7l-2.5-1-1.5-1q1.7 17.25-9.2 29.4l2.85-10.35 4.8-17.25 3.7-14.6q1.45-5.95 2-12 0.6-6.95-1.15-13.7l-4-0.5-2.6 2.45-2.25 2.45-1.85 2.7q-2.4 4.15-2.65 9.1-0.25 5.55 0.7 11.1 1.05 6.15 1.15 12.2-0.5 0.5-0.75 1.1l-5.35 12.95-2.55 6.2q-2.75 6.35-6.8 11.9-1.95 2.7-4.55 4.85l-2-2.5 0.1-1.3q0.15-1.25 0.45-2.45l1.3-4.6 2.65-9.5q1.7-7.3 3-14.65l-1.65 2.75-3.1 5.8q-1.5 2.85-2.75 5.85-4.65 11.4-8.3 23.1l-4.5 13.9-0.25-1.4-1.25 4.45q-17.8-5.2-34.1-14.2l-2.15-1.25-2.1-1.2q-4.25-2.5-8.25-5.3-7.55-8.35-14.5-17.75-9.6-12.95-18.15-27.85l-3.05-5.85q-11.4-23.7-9.05-53.85 2.65-33.9 28.2-46.4 25.5-12.55 54.85-6.3 31.3 6.9 47.5 33.3 9.25 15.15 16.85 31.1l1.75 3.85" fill="url(#k)" fill-rule="evenodd"/>
<path d="m68.25-0.75q-1.2 0.8-2.8 1.05-4.3 0.65-7.9 1.75l-1.45 0.2-2-2q-0.2-1.8 1.1-3.4l2.4-2.6-1 0.75 7.5-6.5q4.55-4.35 8.55-9.25l0.5-0.5q4.55-3 9.9-4.4 2.2-0.55 4.1-1.6 0.9 0.55 2 0.5h0.15l1.55 5.3-0.7 0.7-1 1.5-5 0.5q-2.4 1.95-4.2 4.35-2.2 2.95-5.3 5.15 1.6-0.25 2.8-1.25 0.65-0.5 1.7-0.25h2l0.5 3.5q-2.35 1.55-5.55 2.25l-4.45 0.25h-0.55q-0.9 2.7-2.85 4" fill="url(#j)" fill-rule="evenodd"/>
<path d="m86.4 50.7-2.25 0.05q-2.2-2.65-1.9-6 1.4-15.85 2.9-30l-3.95-2.6q-2.35-1.25-5.05-1.4l-0.25-1q0-0.25 0.3-0.4l0.45-0.1 1-0.5 1.5-5 5 0.5 4-3q1.05-2.35 0.85-5.05-0.35-4.8 2.65-8.95h0.5l0.55 0.15 0.4 3.05q3.6 29.2-5.6 57l-1.1 3.25" fill="url(#i)" fill-rule="evenodd"/>
<path d="m6.3 100.2 1.25-4.45 0.25 1.4 4.5-13.9q3.65-11.7 8.3-23.1 1.25-3 2.75-5.85l3.1-5.8 1.65-2.75q-1.3 7.35-3 14.65l-2.65 9.5-1.3 4.6q-0.3 1.2-0.45 2.45l-0.1 1.3 2 2.5q2.6-2.15 4.55-4.85 4.05-5.55 6.8-11.9l2.55-6.2 5.35-12.95q0.25-0.6 0.75-1.1-0.1-6.05-1.15-12.2-0.95-5.55-0.7-11.1 0.25-4.95 2.65-9.1l1.85-2.7 2.25-2.45 2.6-2.45 4 0.5q1.75 6.75 1.15 13.7-0.55 6.05-2 12l-3.7 14.6-4.8 17.25-2.85 10.35q-0.9 2.3-2.4 4.05-2.4 2.8-5.3 4.95-1.35 0.95-2.85 1.5-4.2 1.65-7.25 4.6l0.5 2h7l-0.1 1.55-0.4 5.95q-2.5 3.45-6.55 4.85-3.1 1-5.5-1.35l-8.45-1.25q-1.85-0.4-2.8-1.85l-1.1 3.15-0.4-0.1" fill="#955800" fill-rule="evenodd"/>
<path d="m41.9 72.15q10.9-12.15 9.2-29.4l1.5 1 2.5 1q3.45 12.7-0.9 25.7-6.15 18.3-22.7 20.35l0.1-1.55h-7l-0.5-2q3.05-2.95 7.25-4.6 1.5-0.55 2.85-1.5 2.9-2.15 5.3-4.95 1.5-1.75 2.4-4.05" fill="#aca229" fill-rule="evenodd"/>
<path d="m46.05-73.4 17.65 17.1q10.4 10.2 8.4 24.55l-4.5 2-6.5-1q-11.4-19-24.3-37.25-13.3-18.95-35.25-23.3 7.3-2.4 14.5-0.15 16.8 5.5 30 18.05" fill="#8d6300" fill-rule="evenodd"/>
<path d="m14.55-67.25q5.3 1.4 9.65 4.45 13.95 9.7 16.9 26.55l-7.75-1.6q-16.4-2.25-20.55-17.85l-0.1-1.8q-0.1-5.1 1.85-9.75" fill="#b28900" fill-rule="evenodd"/>
<path d="m-40.3 78.25q4 2.8 8.25 5.3l2.1 1.2 2.15 1.25q16.3 9 34.1 14.2m0.4 0.1 5.8 1.55q26.9 6.8 46.6-10.65 7.1-6.3 12.7-13.65m19.05-99-1.55-5.3q-6.6-20.1-22.65-35.3-20.2-19.2-45.25-31.9-27.8-14.2-57.6-7.75-30.75 6.7-45.9 34.2-14.2 25.85-11.5 55.45 2.45 27.2 16.45 50.9t36.85 39.4m126.7-27.55 1.1-3.25q9.2-27.8 5.6-57l-0.4-3.05q-0.75-4.55-1.85-8.85m-84.15 121.75-0.4-0.1m80.1-49.5q-5.35 14.45-14.6 26.85" fill="none" stroke="#000" stroke-linecap="round" stroke-linejoin="round" stroke-opacity=".30196" stroke-width=".05"/>
</g>
<radialGradient id="l" cx="0" cy="0" r="819.2" gradientTransform="translate(-172.45,-134.8)" gradientUnits="userSpaceOnUse">
<stop stop-color="#b28900" offset="0"/>
<stop stop-color="#683b00" offset=".66667"/>
</radialGradient>
<radialGradient id="k" cx="0" cy="0" r="819.2" gradientTransform="translate(-172.45,-134.8)" gradientUnits="userSpaceOnUse">
<stop stop-color="#b28900" offset=".62745"/>
<stop stop-color="#683b00" offset=".91373"/>
</radialGradient>
<linearGradient id="j" x1="-819.2" x2="819.2" gradientTransform="matrix(.0225 0 0 .018 72.45 -12.5)" gradientUnits="userSpaceOnUse">
<stop stop-color="#b28900" offset=".027451"/>
<stop stop-color="#683b00" offset=".40392"/>
</linearGradient>
<linearGradient id="i" x1="-819.2" x2="819.2" gradientTransform="matrix(.0111 0 0 .0388 85 19)" gradientUnits="userSpaceOnUse">
<stop stop-color="#b28900" offset=".027451"/>
<stop stop-color="#683b00" offset=".40392"/>
</linearGradient>
<g id="g" transform="translate(3.55,1.5)">
<path d="m0.05 2.45-0.05-0.15-0.05 0.05-1.05-1.9 0.75 1.05-0.45-1.05 1.05 1.8-0.2 0.2m1.8-0.8-0.05 0.25-1.7-1.35 1.75 1.1m-0.4 0.45-1.65-1.45 1.7 1.2-0.05 0.25m-3.25 0.1-0.05-2.2 0.25 2.05-0.2 0.15m1.5 0.35-0.8-2.05 0.95 1.85-0.15 0.2m-3-2-0.25 0.05 0.55-2.1-0.3 2.05m1.4 0.95-0.25 0.15-0.3-2.15 0.55 2m-0.35 0-0.25 0.15-0.2-2.15 0.45 2" fill="#371f00" fill-opacity=".4902" fill-rule="evenodd"/>
</g>
<g id="a" transform="translate(26.05,22.85)">
<path d="m2.3-0.6 1.95-0.45q0.45 1 18.15 2.95l-19.15-1.15q6.2 2.45 18.75 14.4-11.5-9.85-19-12.05 1.35 6.05 3.15 12.75l-5.25-13.75-1.8 20.75q0.65-10.1 0.75-19.25-5.3 5.15-13.2 11.5 17.9-16.05 10.1-12.3-9.7 3.65-22.8 1.75 33.5-2.1 22.6-4.25-4.45-1.85-17.05-5.75 14.35 4.15 17.1 4.25-4.95-3.7-12-15.25 8.85 10.85 14.85 15.8-0.15-9.6-3.35-22.2 4.25 9.05 3.95 21.65 1.95-8.4 2.75-13.35l-1.75 13.3q3.15-3 5.45-5.8l-4.2 6.45m6.4-1.25-2.2 0.15q8.7-2.7 14.4-8-4.35 5.15-12.2 7.85" fill="#371f00" fill-opacity=".4902" fill-rule="evenodd"/>
</g>
<g id="f" transform="translate(16.35,2.95)">
<path d="m-9.35 12.15q1.2 0.05-0.2 2.5-1.35 2.5-2.3 3.4-0.9 0.9-1.7 0.65t-0.9-1.4q-0.15-1.2 1.45-2.4 1.55-1.25 1.25-2.25-0.4-1.05 0.4-0.8l2 0.3" fill="#371f00" fill-opacity=".4902" fill-rule="evenodd"/>
<path d="m-0.1 20.55q0.65 0.55-0.7 3.75-1.45 3.1-2.25 4.1t-1.2 0.25q-0.4-0.7-0.15-2.5 0.2-1.85 1.45-3 1.2-1.15 1.3-2.9 0-1.7 0.4-1 0.4 0.75 1.15 1.3" fill="#371f00" fill-opacity=".4902" fill-rule="evenodd"/>
<path d="m-8.85 7.25q-0.2 0-0.4 0.15l0.2 4.15q0.55 5.55 3.4 7.75 1.25 0.85 2.6 1.3 0.75 0.4 1.65-0.35l0.05-0.85q-2 0.15-3.8-1.05-2.1-1.4-2.85-5.1l-0.65-4.85q2.4 1.05 4.65-1.55l0.8-0.9q0.9-0.9 0.8-2.05-0.5-0.2-0.8 0.75l-1.15 1.6q-1.4 1.5-2.95 1.3l-0.75-0.15-0.8-0.15" fill="#371f00" fill-opacity=".4902" fill-rule="evenodd"/>
<path d="m-13.4-2.55-0.45-0.4-1.65 2.3q-1.8 3.35 0.25 7.75l2.05 3.55 1.85 1.7 0.45-0.35q-2.05-2.15-3.45-4.8-1.55-3.1-0.75-5.8 0.5-1.75 1.45-3.15 1.95 3.2 5.4 4.55l1.2 0.45 1.75-0.05q-0.4-0.7-1.15-0.65l-1.8-0.4q-2.15-0.95-3.7-2.8l-0.65-0.9-0.8-1" fill="#371f00" fill-opacity=".4902" fill-rule="evenodd"/>
</g>
<g id="e" transform="translate(-1.65,8.9)">
<path d="m19.6 4.2q-0.8 0.9 1.95 1.55l4.05 0.65q1.3 0 1.65-0.75t-0.45-1.65q-0.7-0.9-2.7-0.55-2 0.3-2.45-0.7-0.55-0.95-0.9-0.2l-1.15 1.65" fill="#371f00" fill-opacity=".4902" fill-rule="evenodd"/>
<path d="m3.2 20.3q-0.6 0.75 1.45 3.5 2.1 2.75 3.1 3.5l1.2 0.05q0.25-0.8-0.4-2.55-0.6-1.7-2.05-2.6-1.5-0.85-1.9-2.5t-0.65-0.85l-0.75 1.45" fill="#371f00" fill-opacity=".4902" fill-rule="evenodd"/>
<path d="m8.7 5.45 0.45 0.05 0.75 4.15q0.65 5.55-1.65 8.3l-2.25 1.85q-0.7 0.5-1.7 0l-0.2-0.8q1.95-0.3 3.45-1.85 1.7-1.85 1.65-5.6l-0.45-4.9q-2.05 1.5-4.9-0.5l-0.95-0.65q-1.1-0.75-1.25-1.85 0.45-0.3 1 0.5l1.35 1.35q1.75 1.1 3.25 0.6l0.7-0.3q0.35-0.25 0.75-0.35" fill="#371f00" fill-opacity=".4902" fill-rule="evenodd"/>
<path d="m12.2-8.65 0.3-0.25 3.95 1.9q5.2 2.85 6 6.15 0.3 1.4 0.15 2.7 0 0.8-1.1 1.25l-0.85-0.3q1-1.6 0.7-3.65-0.45-2.3-3.7-4.55-2.1-1.4-4.45-2.55-0.05 2.4-3.55 3.25l-1.25 0.3q-1.3 0.35-2.4-0.25 0.05-0.5 1.1-0.35l2.1-0.2q2.05-0.6 2.55-2l0.15-0.7 0.3-0.75" fill="#371f00" fill-opacity=".4902" fill-rule="evenodd"/>
</g>
<g id="b" transform="translate(23.5,24.35)">
<path d="m6.5-7.05-0.55 0.85-0.1-0.05 0.65-0.8m-3.7-7.5-0.7 5.3-0.2-0.2 0.9-5.1m7.2 11.6q6.4-2.55 10.9-6.75 3.9 5.2-10.4 7.2l-0.5-0.45m3.9 7.6q1.05 9.9 8.35 3.05-6.8 10.6-13.4 0.85l5.05-3.9m-9.75 3.3q6.05 7.95 2.5 13.5 0-11.35-3.15-12.7l0.65-0.8m9.1-7.75q4.45 0.65 9.75-3.25-0.1 8.15-10.3 3.9l0.55-0.65m-25.2-6.9q-7.05-5.75-3.45-9.75 1.55 3.85 5.1 7.7l-1.65 2.05m-2.55 3.15-6-1.9 6.15 1.75-0.15 0.15m10.05-12.8q4.05-2.45 2.65-8 2.4 5.15 3.35 11.4l-6-3.4m-4.2 21.1q-13.75 4.4-14.85-2l12.1-0.2 2.75 2.2m3.9 3.15q-8.15 16.55-8.6 7.2 3.5 3.6 8.15-7.55l0.45 0.35m3.85 14.95q3.05-6.4 0.55-11.4l0.4 0.35q5.25 7.6-0.95 11.05" fill="#371f00" fill-opacity=".4902" fill-rule="evenodd"/>
</g>
<g id="d" transform="translate(8.05,5.5)">
<path d="m-0.2-4.8-0.05 0.05-0.05-0.05 0.05-0.05 0.05 0.05m-3.65 0.4q-0.4 0.6-0.4 1.35 0 0.95 0.7 1.65 0.65 0.7 1.65 0.7 0.65 0 1.15-0.3l0.4-0.25 0.15-0.15 0.45-0.55-0.1 1.05q0.5 0.3 1.15 0.3 1 0 1.7-0.7 0.65-0.7 0.7-1.65-0.05-1-0.7-1.7l-0.05-0.05q1.65-1.3 2.95-0.45 1.55 1 1.6 3.15-0.05 2.1-1.55 3.55-1.45 1.5-3.55 1.55-2.15 0-2.6-1.55l-0.1-0.3-0.05 0.2q-0.5 1.55-2.6 1.55-2.15-0.05-3.6-1.55-1.5-1.45-1.5-3.55 0-2.15 1.75-2.75 1.05-0.35 2.45 0.45" fill="#897152" fill-opacity=".4902" fill-rule="evenodd"/>
<path d="m-0.2-4.8v1.5l0.2 0.65q0.4 0.4 2.05-1.25l0.9-0.8 0.05 0.05q0.65 0.7 0.7 1.7-0.05 0.95-0.7 1.65-0.7 0.7-1.7 0.7-0.65 0-1.15-0.3l0.1-1.05-0.45 0.55-0.15 0.15-0.4 0.25q-0.5 0.3-1.15 0.3-1 0-1.65-0.7-0.7-0.7-0.7-1.65 0-0.75 0.4-1.35l0.3-0.35q0.65-0.7 1.65-0.7 0.95 0 1.6 0.65l0.05 0.05 0.05-0.05" fill="#371f00" fill-opacity=".4902" fill-rule="evenodd"/>
</g>
<g id="c" transform="translate(-257.2,-116.1)">
<path d="m270.2 141.4q5.3 1.4 9.65 4.45 13.95 9.7 16.9 26.55l-7.75-1.6q-16.4-2.25-20.55-17.85l-0.1-1.8q-0.1-5.1 1.85-9.75m31.5-6.15 17.65 17.1q10.4 10.2 8.4 24.55l-4.5 2-6.5-1q-11.4-19-24.3-37.25-13.3-18.95-35.25-23.3 7.3-2.4 14.5-0.15 16.8 5.5 30 18.05" fill="#f0f0be" fill-rule="evenodd"/>
</g>
</defs>
</svg>
