<?xml version="1.0" encoding="UTF-8"?>
<svg version="1.1" viewBox="0 0 34.723 35.623" xmlns="http://www.w3.org/2000/svg" xmlns:cc="http://creativecommons.org/ns#" xmlns:dc="http://purl.org/dc/elements/1.1/" xmlns:rdf="http://www.w3.org/1999/02/22-rdf-syntax-ns#" xmlns:xlink="http://www.w3.org/1999/xlink">
<metadata>
<rdf:RDF>
<cc:Work rdf:about="">
<dc:format>image/svg+xml</dc:format>
<dc:type rdf:resource="http://purl.org/dc/dcmitype/StillImage"/>
</cc:Work>
</rdf:RDF>
</metadata>
<g transform="translate(-265.48 -174.15)">
<use transform="translate(265.5,174.2)" width="34.650002" height="35.549999" xlink:href="#a"/>
</g>
<defs>
<g id="a" transform="translate(-265.5,-174.2)">
<path d="m287.35 175.05q-3.15 0.7-5.75 2.35l-1.85 1.3-2.35 5.75q0.65-1.5 2-3.1l0.15-0.4q0.65-0.15 1.3 0.25l0.25 0.05-0.4-1.2 0.9-1.2 1-0.75 0.8 0.3 0.75 0.8 0.8-2.3 4-0.5 1.1 0.45q1.7 1.4 2 3.15l2 3.15 1.95-0.8 1.95 1.85 0.95 1.35-0.05 6.2-1.65 0.6-0.5-2.25-0.65 1.65-4.25-0.4-0.8-1.85-2.85 2.75v2.35l0.55-1.3 1.45-0.7 2.7 1.1 3.7 0.55-0.1 2.25-2.9 2.55-2.95 0.4 1.15-0.65 0.55-1.2-1.2-0.45-4.15 3.45 2.4-0.85 0.45 1.85-5.5 2.85 0.75-1.7-4.85 2.95 0.95-2.3 1.85-1.45 1.05-2.5 2.5-3.35-1.75 1.1-7.35 5.9 5.3-5.35 6.25-7.8 2.3-1.55 1.7-2.1 0.05-2.75-0.7-1.2-0.05-0.05q0.35 3.15-2.25 5.45l-0.25 0.1-0.7-0.75q-0.9 3.05-2.95 5.75l-2.65 3.1 4.5-10.8-2.2 0.8-1.7-0.7 1.65 2.6-0.75 1.95-1.45-0.55-0.3 0.8 1.3 0.5-2.15 5.1-5.7 6.7-3.45 1.5 2.15-5.15 2.15-2.95-3.15 2.5-2 4.7-0.2-4.7-1.15 5.15-0.95-1.45 0.85-13.75-1 2.5-0.9 5.05 0.25 5.5-1.4-2v-5.15l2-10.25-2.3 3.6 0.45-3.2 0.45-1 3.15-4.15q4.35-5.05 9.9-4.4 3.2-1.2 5.8 0.35m-10.85 4.6-2.55 1.55-1 2.4v2.2l1.6-3.9 1.95-2.25" fill="#cf8d53" fill-rule="evenodd"/>
<path d="m290.05 176.85-1.1-0.45-4 0.5-0.8 2.3-0.75-0.8-0.8-0.3-1 0.75-0.9 1.2 0.4 1.2-0.25-0.05q-0.65-0.4-1.3-0.25l-0.15 0.4q-1.35 1.6-2 3.1l2.35-5.75 1.85-1.3q2.6-1.65 5.75-2.35 0.45 0.25 0.9 0.6 1 0.55 1.8 1.2m-22 7.4-0.45 3.2 2.3-3.6-2 10.25v5.15l1.4 2-0.25-5.5 0.9-5.05 1-2.5-0.85 13.75 0.95 1.45 1.15-5.15 0.2 4.7 2-4.7 3.15-2.5-2.15 2.95-2.15 5.15 3.45-1.5 5.7-6.7 2.15-5.1-1.3-0.5 0.3-0.8 1.45 0.55 0.75-1.95-1.65-2.6 1.7 0.7 2.2-0.8-5.25 12.6-5.3 5.35-1.05 1.1-1.85 1.55v-0.85l-0.05 0.05-1.4 0.3-0.3-0.1-0.3-0.9-0.05 0.45-0.35 0.7-0.45-0.05-0.95-0.6-3.8-2.85-0.35-0.6-1.05-10.9 2.55-6.15m8.45-4.6-1.95 2.25-1.6 3.9v-2.2l1-2.4 2.55-1.55" fill="#ab6f4d" fill-rule="evenodd"/>
<path d="m277.45 203.1 7.35-5.9 1.75-1.1-2.5 3.35-1.05 2.5-1.85 1.45-0.95 2.3 4.85-2.95-0.75 1.7 5.5-2.85-0.45-1.85-2.4 0.85 4.15-3.45 1.2 0.45-0.55 1.2-1.15 0.65 2.95-0.4 2.9-2.55 0.1-2.25-3.7-0.55-2.7-1.1-1.45 0.7-0.55 1.3v-2.35l2.85-2.75 0.8 1.85 4.25 0.4 0.65-1.65 0.5 2.25 1.65-0.6 0.05-6.2q2.05 3.5 0.8 7.25l-3.65 6.05-4.1 4.55-5.65 3.5q-4.05 2.75-9 2.85-2-0.15-3.5-1.45l-0.1-0.05h-2.25l-3.1-3.65-1.45-2.7 3.8 2.85 0.95 0.6 0.45 0.05 0.35-0.7 0.05-0.45 0.3 0.9 0.3 0.1 1.4-0.3 0.05-0.05v0.85l1.85-1.55 1.05-1.1m18.55-20.75-1.95 0.8-2-3.15q2.2 1 3.95 2.35m-21.45 23.4-3.1 2.5 3.1-2.5" fill="#804e29" fill-rule="evenodd"/>
<path d="m287.35 175.05q-2.6-1.55-5.8-0.35-5.55-0.65-9.9 4.4l-3.15 4.15-0.45 1m25-0.7-0.05 2.75-1.7 2.1-2.3 1.55-6.25 7.8-5.3 5.35m21.45-17.55-0.95-1.35-1.95-1.85-1.95 0.8-2-3.15q-0.3-1.75-2-3.15-0.8-0.65-1.8-1.2-0.45-0.35-0.9-0.6m-3.85 20.9-0.75 1.8m-15.85 4.15-0.35-0.6-1.05-10.9 2.55-6.15m30.85 1.3q2.05 3.5 0.8 7.25l-3.65 6.05-4.1 4.55-5.65 3.5q-4.05 2.75-9 2.85-2-0.15-3.5-1.45l-0.1-0.05h-2.25l-3.1-3.65-1.45-2.7m7.65 3.85 1.85-1.55 1.05-1.1m14.6-23.1q2.2 1 3.95 2.35m-24.55 25.9 3.1-2.5" fill="none" stroke="#000" stroke-linecap="round" stroke-linejoin="round" stroke-opacity=".30196" stroke-width=".05"/>
</g>
</defs>
</svg>
