<?xml version="1.0" encoding="UTF-8"?>
<svg version="1.1" viewBox="0 0 60.924 81.36" xmlns="http://www.w3.org/2000/svg" xmlns:cc="http://creativecommons.org/ns#" xmlns:dc="http://purl.org/dc/elements/1.1/" xmlns:rdf="http://www.w3.org/1999/02/22-rdf-syntax-ns#" xmlns:xlink="http://www.w3.org/1999/xlink">
<metadata>
<rdf:RDF>
<cc:Work rdf:about="">
<dc:format>image/svg+xml</dc:format>
<dc:type rdf:resource="http://purl.org/dc/dcmitype/StillImage"/>
</cc:Work>
</rdf:RDF>
</metadata>
<g transform="translate(-367.53 -214.54)">
<use transform="translate(367.5,241.9)" width="60.950001" height="54" xlink:href="#b"/>
<use transform="translate(393.35,214.55)" width="25.75" height="34.799999" xlink:href="#a"/>
</g>
<defs>
<g id="b" transform="translate(30.45,27)">
<path d="m-7.2 23.15-3.75-2.55q-1.2 2.65-3.85 4.15 0.55-1.4-0.05-2.85-0.65-1.5-2.35-1.25l-0.55 0.55-0.35 0.5v0.5l0.3 0.2 0.4 0.9-1.55 0.4-0.05-0.75 0.2-0.55v-0.2l-0.4-0.4-2.35-0.15q-2.05-0.1-3.3 1.5l-0.5-0.15-0.3-0.15-0.1-0.3 0.1-0.5 0.05-0.1 0.65-0.1 0.15-0.15 0.1-0.25-0.25-1.05-1.25-0.45-0.6-0.2-0.45-0.6-0.75-2.35q-0.75-2.45-0.9-4.95 1.1-2.85 3.3-5.35l-0.3 2.5q-0.1 3.1 0.85 5.75l0.25 0.6q1.6-0.65 3.05 0.4 0.15 1.55-1.05 2.5l-0.1 0.05 1 1 0.15-0.2v-0.05l0.45 0.2 0.05 0.7 0.15 0.2 5-0.35q1.2-0.3 2.2-0.95l0.8-0.35 0.05-0.1q-0.8-3.45 1.9-4.35-0.95-4.15-4-7.65-1.1-0.9-2.3-1.5l0.5-3.6 0.25-1.25 0.55-2.65q6.55 2.15 4.7 10.4l0.15 0.25q1 0.4 1.85 0.95 2.5 1.55 5.4 2.25 6.2 1.55 12.15 0.8l0.4-0.45q-0.1-0.85 0.2-1.75l1-0.4 0.1 0.05 0.25 0.5 2.5-2.35-0.3-0.2q-2.95-2.2-2.55-6 3.55-2.4 7.5-0.9l0.55-1.5q2.3-6.3 2.1-13.8l-0.65-6q5.25 6 8 12.85-0.45 6.05-2.25 11.95l-1.85 5.6-1 1.4-1.45 0.5q-1.5 1.05-3.15 1.1l-0.6 2.6 0.25 0.55 0.45 0.3 1.5 0.35 0.2 0.2 0.2 1.2-0.3 0.65-0.65 0.45-1.25 0.3q-3.1-3.8-8-3.6-2.95-0.55-5.8 0.4l-0.8 0.8-0.15 0.2-0.05 0.4 0.6 1.4-0.2 1.8-3.8-1 1-2.2 0.8-0.4v-1.2l-0.95-1.3q-0.4-0.75-1.05-1.1l-0.2-0.2q-4.25-0.5-5.8 3.05-1.45 3.45-0.1 6.85m1.3-28.7 0.2-0.4q1.65-3.1 5-2.8l-0.2 0.4q3.1 1.3 1 3.9-4.25 5.4-6-1.1m19.6-7h-0.8q-2.25 0.85-2.2 3.2v0.4q0.95 0.6 2.2 0.4h0.8l1-1.8q0.1-0.85-0.45-1.55l-0.55-0.65m-9.6-5.8 0.15 0.6q0.1 0.95-0.35 1.6-1.4 0.3-2.4-0.4v-0.2q-0.1-1.3 0.65-2.1l1.95 0.5m8.6 3.2q2.1 0.2 3.6 1.4l0.4 1.8q0.3 4.1-3.2 6l-0.2 1.4h-0.6l-0.15 0.05-0.65 0.75-0.55-0.25-0.35-0.6q-0.1-0.55-0.3-0.15l-0.05 0.2-0.3 0.8q-0.2 0.4-0.65 0.4-0.6-0.5-0.45-1.4l0.05-1.2-0.15-0.05-4.25 3.85 0.2-1 2.8-3.35-0.8-0.45q0.6-4.9 3.6-8.4h3.6l-1.6 0.2m-10.55-3.7-0.45-0.1 0.8-0.2-0.35 0.3m14.75 17.3-1.4 0.2-0.25-0.45q-0.55-1.6 1.05-1.55l0.6-0.2 0.35 0.3q0.4 1-0.35 1.7m-39.95 11.45h-0.3l-0.25 0.3-0.2 0.65 0.45 0.75h0.3l0.9-0.2v-0.15q0-1-0.9-1.35m-0.55-1.15h1.45q1.25 1.45 1.5 3.5l-0.35 0.2 1.15 1.35 0.1 0.45-1.75-1.6h-0.05v0.5q0.05 0.35-0.2 0.6l-0.25-0.2-0.1-0.3-0.05-0.1q-0.1-0.15-0.1 0.05l-0.15 0.25-0.25 0.1-0.25-0.3h-0.3l-0.1-0.6q-1.45-0.8-1.3-2.5l0.15-0.75q0.6-0.5 1.5-0.55l-0.65-0.1m-0.85 5q0.65-0.05 0.45 0.65l-0.1 0.15-0.6-0.05q-0.3-0.3-0.15-0.7l0.15-0.15 0.25 0.1m29.95-7.1h1.4l0.5 0.5q0.3 0.7-0.5 1.1l-1.6-0.2 0.2-1.4m-24.1 0.65-0.2-0.15 0.35 0.1-0.15 0.05q0.3 0.3 0.25 0.85v0.1l-1 0.15-0.15-0.65 0.05-0.25 0.85-0.2m1.2 4.35-0.05-0.15h0.4q1.05 0.05 1.65 1.15l0.05 0.15q-0.3 1.15-0.75 1.4-0.7 0.4-1.7-0.9-0.85-1.1 0.4-1.65m-3.4 6.45 0.2-0.2h0.6l0.05 0.6-0.65 0.05q-0.35-0.15-0.2-0.45m9.85 2.5 0.05-0.05q0.4-1.55 0.3-3.25l-0.2-1.65-0.1-0.5-0.25-1.1 0.25 1.1 0.1 0.5 0.2 1.65q0.1 1.7-0.3 3.25l-0.05 0.05" fill="#979085" fill-rule="evenodd"/>
<path d="m-25.6 6.5 0.05-0.1q2.2-1.9 5.2-2.4 1.55 0.25 2.9 0.9 1.2 0.6 2.3 1.5 3.05 3.5 4 7.65-2.7 0.9-1.9 4.35l-0.05 0.1-0.8 0.35q-1 0.65-2.2 0.95l-5 0.35-0.15-0.2-0.05-0.7-0.45-0.2v0.05l-0.15 0.2-1-1 0.1-0.05q1.2-0.95 1.05-2.5-1.45-1.05-3.05-0.4l-0.25-0.6q-0.95-2.65-0.85-5.75l0.3-2.5m9.45-9.1q2.4-10 9.85-18.35 5.35-4.6 12.65-5.8 7.3 1.2 12.65 5.8l0.2 0.2 0.65 6q0.2 7.5-2.1 13.8l-0.55 1.5q-3.95-1.5-7.5 0.9-0.4 3.8 2.55 6l0.3 0.2-2.5 2.35-0.25-0.5-0.1-0.05-1 0.4q-0.3 0.9-0.2 1.75l-0.4 0.45q-5.95 0.75-12.15-0.8-2.9-0.7-5.4-2.25-0.85-0.55-1.85-0.95l-0.15-0.25q1.85-8.25-4.7-10.4m10.25-2.95q1.75 6.5 6 1.1 2.1-2.6-1-3.9l0.2-0.4q-3.35-0.3-5 2.8l-0.2 0.4m18.6-9.6 1.6-0.2h-3.6q-3 3.5-3.6 8.4l0.8 0.45-2.8 3.35-0.2 1 4.25-3.85 0.15 0.05-0.05 1.2q-0.15 0.9 0.45 1.4 0.45 0 0.65-0.4l0.3-0.8 0.05-0.2q0.2-0.4 0.3 0.15l0.35 0.6 0.55 0.25 0.65-0.75 0.15-0.05h0.6l0.2-1.4q3.5-1.9 3.2-6l-0.4-1.8q-1.5-1.2-3.6-1.4m-8.6-3.2-1.95-0.5q-0.75 0.8-0.65 2.1v0.2q1 0.7 2.4 0.4 0.45-0.65 0.35-1.6l-0.15-0.6m-1.95-0.5 0.35-0.3-0.8 0.2 0.45 0.1m14.75 17.3q0.75-0.7 0.35-1.7l-0.35-0.3-0.6 0.2q-1.6-0.05-1.05 1.55l0.25 0.45 1.4-0.2m-41.35 15.3-0.25-0.1-0.15 0.15q-0.15 0.4 0.15 0.7l0.6 0.05 0.1-0.15q0.2-0.7-0.45-0.65m0.85-5 0.65 0.1q-0.9 0.05-1.5 0.55l-0.15 0.75q-0.15 1.7 1.3 2.5l0.1 0.6h0.3l0.25 0.3 0.25-0.1 0.15-0.25q0-0.2 0.1-0.05l0.05 0.1 0.1 0.3 0.25 0.2q0.25-0.25 0.2-0.6v-0.5h0.05l1.75 1.6-0.1-0.45-1.15-1.35 0.35-0.2q-0.25-2.05-1.5-3.5h-1.45m29.1-2.1-0.2 1.4 1.6 0.2q0.8-0.4 0.5-1.1l-0.5-0.5h-1.4m-26.3 11.45q-0.15 0.3 0.2 0.45l0.65-0.05-0.05-0.6h-0.6l-0.2 0.2m3.4-6.45q-1.25 0.55-0.4 1.65 1 1.3 1.7 0.9 0.45-0.25 0.75-1.4l-0.05-0.15q-0.6-1.1-1.65-1.15h-0.4l0.05 0.15m-1.2-4.35-0.85 0.2-0.05 0.25 0.15 0.65 1-0.15v-0.1q0.05-0.55-0.25-0.85l0.15-0.05-0.35-0.1 0.2 0.15" fill="#b2b0a3" fill-rule="evenodd"/>
<path d="m27.2-7.9q1.5 3.8 2.2 7.95 1.7 6.85 0 13-3.65 7.95-12.65 11.65l-2.4 0.85q-4 1.2-8 1.2t-7.95-1.2l-2.45-0.85-3.15-1.55q-1.35-3.4 0.1-6.85 1.55-3.55 5.8-3.05l0.2 0.2q0.65 0.35 1.05 1.1l0.95 1.3v1.2l-0.8 0.4-1 2.2 3.8 1 0.2-1.8-0.6-1.4 0.05-0.4 0.15-0.2 0.8-0.8q2.85-0.95 5.8-0.4 4.9-0.2 8 3.6l1.25-0.3 0.65-0.45 0.3-0.65-0.2-1.2-0.2-0.2-1.5-0.35-0.45-0.3-0.25-0.55 0.6-2.6q1.65-0.05 3.15-1.1l1.45-0.5 1-1.4 1.85-5.6q1.8-5.9 2.25-11.95m-42 32.65-1.3 0.65-1 0.35-3.25 0.5-3.3-0.5-0.95-0.35q-3.7-1.55-5.2-4.85-0.75-2.55 0-5.4 0.25-1.7 0.9-3.3 0.15 2.5 0.9 4.95l0.75 2.35 0.45 0.6 0.6 0.2 1.25 0.45 0.25 1.05-0.1 0.25-0.15 0.15-0.65 0.1-0.05 0.1-0.1 0.5 0.1 0.3 0.3 0.15 0.5 0.15q1.25-1.6 3.3-1.5l2.35 0.15 0.4 0.4v0.2l-0.2 0.55 0.05 0.75 1.55-0.4-0.4-0.9-0.3-0.2v-0.5l0.35-0.5 0.55-0.55q1.7-0.25 2.35 1.25 0.6 1.45 0.05 2.85m28.5-37.3 0.55 0.65q0.55 0.7 0.45 1.55l-1 1.8h-0.8q-1.25 0.2-2.2-0.4v-0.4q-0.05-2.35 2.2-3.2h0.8m-36.75 22.45q0.9 0.35 0.9 1.35v0.15l-0.9 0.2h-0.3l-0.45-0.75 0.2-0.65 0.25-0.3h0.3" fill="#83755e" fill-rule="evenodd"/>
<path d="m27.2-7.9q1.5 3.8 2.2 7.95 1.7 6.85 0 13-3.65 7.95-12.65 11.65l-2.4 0.85q-4 1.2-8 1.2t-7.95-1.2l-2.45-0.85-3.15-1.55-3.75-2.55q-1.2 2.65-3.85 4.15l-1.3 0.65-1 0.35-3.25 0.5-3.3-0.5-0.95-0.35q-3.7-1.55-5.2-4.85-0.75-2.55 0-5.4 0.25-1.7 0.9-3.3 1.1-2.85 3.3-5.35l0.05-0.1q2.2-1.9 5.2-2.4 1.55 0.25 2.9 0.9l0.5-3.6 0.25-1.25 0.55-2.65q2.4-10 9.85-18.35 5.35-4.6 12.65-5.8 7.3 1.2 12.65 5.8l0.2 0.2q5.25 6 8 12.85m-38.35 21.95q-0.95-4.15-4-7.65-1.1-0.9-2.3-1.5m6.3 9.15 0.25 1.1 0.1 0.5 0.2 1.65q0.1 1.7-0.3 3.25l-0.05 0.05" fill="none" stroke="#3e3012" stroke-linecap="round" stroke-linejoin="round" stroke-width=".5"/>
</g>
<g id="a" transform="translate(-393.35,-214.55)">
<path d="m404.85 216.65q-2.65 0.6-2.55 3.5-1.95-2.95 1.95-5.45 15.65-1.35 14.8 8.7-12.9 3.4-19.85 13.1-4.3 7.6 9.35 12.85-18.65-2.55-14.45-12.15 6.05-11.55 18.9-15.05 3.3-6.55-8.15-5.5" fill-opacity=".30196" fill-rule="evenodd"/>
</g>
</defs>
</svg>
