<?xml version="1.0" encoding="UTF-8"?>
<svg version="1.1" viewBox="0 0 62.514 71.3" xmlns="http://www.w3.org/2000/svg" xmlns:cc="http://creativecommons.org/ns#" xmlns:dc="http://purl.org/dc/elements/1.1/" xmlns:rdf="http://www.w3.org/1999/02/22-rdf-syntax-ns#" xmlns:xlink="http://www.w3.org/1999/xlink">
<metadata>
<rdf:RDF>
<cc:Work rdf:about="">
<dc:format>image/svg+xml</dc:format>
<dc:type rdf:resource="http://purl.org/dc/dcmitype/StillImage"/>
</cc:Work>
</rdf:RDF>
</metadata>
<g transform="translate(-181.26 -153.15)">
<use transform="translate(181.25,153.15)" width="62.5" height="71.300003" xlink:href="#a"/>
</g>
<defs>
<g id="a" transform="translate(-181.25,-153.15)">
<path d="m183.6 159.45 0.3-0.7 19.95 33.4-10.15-9.95 1.9 5.3 1.9 5.05 2.55 6.85q-1.15 0.1-6.25-8.4-5.15-8.55-8.3-19.1-2.2-7.4-2.25-10.55-0.05-1.35 0.35-1.9" fill="#fff" fill-rule="evenodd"/>
<path d="m183.6 159.45q-0.4 0.55-0.35 1.9 0.05 3.15 2.25 10.55 3.15 10.55 8.3 19.1 5.1 8.5 6.25 8.4l-2.55-6.85-1.9-5.05-1.9-5.3 10.15 9.95-19.95-33.4-0.3 0.7m33.95 62.3q-2.5-2.15-10.85-11.1-10.05-10.85-12.6-15.25-6.9-11.85-10.35-23.65-2.6-8.75-1.8-14.5 0.25-2 0.9-3.6 5.75 11.3 13.95 17.3 4.95 9.35 12.4 10.9 0.35 0.65 0.15 0.2t0.3-0.15l4.95 4.75 1.45 1.5 5.15 8.6q2.35 3.85 4.2 8.05l0.55 1.15q2.1 5 0 10.5-2.05 5.75-8.4 5.3m-7.25-27.95q4.95 5.95 11.3 7.4l3.8 3.6-3.8-3.6q-6.35-1.45-11.3-7.4m-3.5-7 14.45 13.3 0.35 1.1-0.35-1.1-14.45-13.3" fill="#f4e9bd" fill-rule="evenodd"/>
<path d="m214.6 186.65q1.9 0.95 7.2 1.55 4.4 0.5 4.55 1.2 0.45 3.3 8.6 5.9 4.1 1.3 8.05 1.9 0.55 2.5 0 4.5-0.55 3.1-1.95 6.1-3.15 7.2-10.3 11.85-4.15 3.3-10.55 4.3l-2.65-2.2q6.35 0.45 8.4-5.3 2.1-5.5 0-10.5l-0.55-1.15q-1.85-4.2-4.2-8.05l-5.15-8.6-1.45-1.5m17.8 24.65-7-6.5 7 6.5" fill="#ebd683" fill-rule="evenodd"/>
<path d="m216.55 221.65 0.4 0.6-0.45-0.6h0.05" fill-opacity=".2" fill-rule="evenodd"/>
<path d="m217.55 221.75q-2.5-2.15-10.85-11.1-10.05-10.85-12.6-15.25-6.9-11.85-10.35-23.65-2.6-8.75-1.8-14.5 0.25-2 0.9-3.6 5.75 11.3 13.95 17.3 4.95 9.35 12.4 10.9m0.45 0.05 4.95 4.75q1.9 0.95 7.2 1.55 4.4 0.5 4.55 1.2 0.45 3.3 8.6 5.9 4.1 1.3 8.05 1.9 0.55 2.5 0 4.5-0.55 3.1-1.95 6.1-3.15 7.2-10.3 11.85-4.15 3.3-10.55 4.3l-2.65-2.2" fill="none" stroke="#484848" stroke-linecap="round" stroke-linejoin="round"/>
<path d="m225.4 204.8-3.8-3.6q-6.35-1.45-11.3-7.4m15.1 11 7 6.5m-10.8-10.1-0.35-1.1-14.45-13.3" fill="none" stroke="#000" stroke-linecap="round" stroke-linejoin="round" stroke-opacity=".30196" stroke-width=".05"/>
</g>
</defs>
</svg>
