<?xml version="1.0" encoding="UTF-8"?>
<svg version="1.1" viewBox="0 0 268.95 344.5" xmlns="http://www.w3.org/2000/svg" xmlns:cc="http://creativecommons.org/ns#" xmlns:dc="http://purl.org/dc/elements/1.1/" xmlns:rdf="http://www.w3.org/1999/02/22-rdf-syntax-ns#" xmlns:xlink="http://www.w3.org/1999/xlink">
<metadata>
<rdf:RDF>
<cc:Work rdf:about="">
<dc:format>image/svg+xml</dc:format>
<dc:type rdf:resource="http://purl.org/dc/dcmitype/StillImage"/>
</cc:Work>
</rdf:RDF>
</metadata>
<g transform="translate(-182.15 -17)">
<use transform="translate(182.15,17)" width="268.95001" height="344.5" xlink:href="#a"/>
</g>
<defs>
<g id="a" transform="translate(-182.15,-17)">
<path d="m329.95 83.5 0.1 0.2-0.2 0.55-0.45 0.35q-3.15-1.4-5.95-4-0.15-0.55 0.15-1.05 0.3-0.45 0.75-0.5 3.15 1.85 5.6 4.45m7.25 11.45 0.3-0.4q0.35-0.45 0.85-0.5 1.15-0.15 2.1 0.55l0.15 0.15q0.3 0.95 0.1 2.05-0.2 0.8-0.95 1.25l-0.1 0.05-1.25-0.05-0.4-0.25-0.8-0.6-0.1-0.75 0.1-1.5m20.7 27.35q-0.8-0.85-1.85-1.25l-0.55-0.3-0.05-1.1q0.2-0.8 0.9-0.85 2.05 0.05 3.25 1.7l0.1 0.2 0.15 0.55-0.25 0.75-0.15 0.2-0.6 0.2-0.95-0.1m-26.9-13.9-1.8-0.35-0.05-0.05q0.2-1.7-0.7-3.2-0.3-0.4-0.3-0.95l-0.6-0.8-0.15-0.3q0-0.45 0.4-0.7 0.3-0.2 0.55-0.25l0.25 0.05 0.45 0.1q2.65 2.2 2.45 5.6l-0.1 0.4-0.4 0.45m-44.5-4.8 0.05 0.45q-0.85 1.65-2.65 1.5l-0.4-0.4-0.1-0.15 0.1-1.45v-0.1l0.2-0.9q0.35-0.45 0.9-0.45v-0.05l1 0.3 0.35 0.2 0.45 0.75 0.1 0.3m-56.05 12.65q0.6 0.75 0.55 2.1l-0.05 0.2-0.4 0.6-0.75 0.65-1.2 0.1-0.45-0.1-1.1-1.2-0.75-1.4-0.15-0.95q0.55-0.8 1.5-1.05l0.45-0.15q1.6 0.2 2.35 1.2m36.75-53.25q-1.15 1.9-3.8 2.85 0.2 0.6 0.9 0.75l0.45 1.35-0.05 0.55q-1.75 1.15-4 1.95l-1 1.65-0.15 0.2q-0.8 0.3-1.35-0.35 0-1.25 0.45-2.45 0.3-0.8 0.95-1.3 0.35-1.25 1.55-1.9v-0.75q1.95-2.5 5.2-3.2v-0.05q0.55 0.05 0.8 0.5l0.05 0.2m14.2 2.5 0.4-0.85q0.9-1.1 2.3-1.1 6.95-0.7 9.8 4.65 0.4 0.75 0.45 1.65l0.2 3q4.8 2.3 3.4 6.65-0.2 0.55-0.85 0.75-5 1.75-9.25-0.7-0.25-5.65-6-7.3-1.5-0.45-2.55-1.5-0.25-1-0.15-2.05 0.2-2.4 2.25-3.2m-18.4 14.65q0.5-0.7 1.25-1.2l0.35-0.35-0.15-0.15-0.75-1.15q-0.3-0.3-0.3-0.75v-0.2l0.15-0.55q0.05-0.45 0.4-0.75l3.1-0.75 1.55-0.5q5.85-0.45 5.15 4.75-0.15 1-1.05 1.55-1.55 0.95-3.4 1.1v0.15l0.25 1.35-0.2 1.1-0.25 0.2-1.5 0.95q3.4 3-0.35 3.95-4.9 1.2-10.1 0.95-1.2-0.1-2.1-0.85l-0.2-0.55q-0.2-1.5 0.6-2.65l0.15-0.2 0.05-0.15 0.05-0.4 0.15-0.35q3.25-1.7 6.8-1.95l0.05-0.2 0.2-1.1v-1.15l0.1-0.15m-18.1-1.85-0.25-0.2-0.2-0.15q-4.5 1.95-8.15 5.8l-6.05 6.25q-1.4 1.45-3.1 1.8l-0.25-0.2-0.15-0.2-0.1-0.15v-1.5l0.35-0.65 0.45-1.05q5.95-8.35 15.35-12.95 1.5-0.7 3.05-1.05 2.65-0.05 4.1 2.15l0.1 0.15-0.05 0.2-0.05 0.4-0.1 0.35q-2.2 1.7-4.95 1m21.15-1.05v-0.1h-0.05l0.05 0.1m-0.1 21.45 0.45-0.5 0.5-0.2q0.2-0.55 0.6-0.95 0.8-0.9 1.85-1.25 5.65 0.1 2.95 4.65l-0.9 0.9q-1.9 0.5-3.75-0.05l-0.8-0.75q-0.7-0.75-0.95-1.7l0.05-0.15m15.5-7.7v2.25l-0.1 0.55q-3 1.35-5.55-1.05l-1.35-1.3v-0.2l-0.05-0.55 0.05-0.4 0.2-0.15q0.6-0.5 1.2-0.6l4 0.05 0.45 0.1 1.1 1.1 0.05 0.2m20.9-3.45q6.35 2.5 9.85 8.05v0.15l-0.45 0.55-0.4 0.15q-4.6-4.45-9.9-7.9l-0.05-0.1q-0.05-0.4 0.25-0.55l0.7-0.3v-0.05m-7.2 6.6 1.4-1.15 0.25-0.1 0.3-0.05v-0.05l1.75 0.05 0.45 0.1q2.45 1.3 1.6 3.85l-0.55 1.75q-3.3 1.85-5.9-0.7l-0.1-1.1q0.05-1.3 0.6-2.45l0.2-0.15m19.4-11.45q1.25 1.35 0.45 3l-0.15 0.35-0.25 0.2-0.2 0.1q-1.35 0.25-2.5-0.5-0.9-1.05-0.6-2.4l0.15-0.4 1.35 0.05 0.1 0.1 0.5-0.5 0.45-0.15 0.25 0.05 0.45 0.1m-91.95 13.85 0.45 0.15q1.3 1.45 0.25 3.15-0.75 1.2-1.9 2l-5.35-0.55-0.15 0.05-0.7-0.15-0.5-0.25q0.1-3.05 3.05-4.15l1.85-0.5 3 0.25m10.75-12.9v-0.05h-0.05l0.05 0.05m7.6 20.15-0.05-0.2 0.1-0.15q0.55-0.9 1.6-1.1v-0.05q4.7-0.85 4.15 3.3l-0.05 0.2-0.1 0.2-1.25 1.5-0.2 0.1q-2.1 0.65-3.6-0.65l-0.35-0.35v-0.35q0.1-1.3-0.25-2.45m-9.6-3.45 0.45 0.1 0.55 0.55 0.1 0.2q-0.3 5.7-6.55 5.1l-0.25-0.2-0.35-0.35q-0.25-1-0.1-2.05 0.05-0.65 0.5-1.15 2.35-1.45 4.9-2.25l0.75 0.05m-4.25 3.9 0.2 0.05 0.05-0.25-0.25 0.2m1.55 12.95v0.05l0.1 0.15v-0.05l-0.1-0.15m-10.9-18.1 0.1-0.25-0.2 0.15 0.1 0.1m-8.65 13.65 0.1 0.2v2.8l-0.1 0.55q-0.5 0.55-1.2 0.25l-0.4-0.4-0.1-0.15q0.15-1.45-0.2-2.85v-0.55l0.6-0.45 0.3-0.1q0.65 0.1 1 0.7m6.5 1.35v-0.05l0.65 0.35 0.15 0.15q0.15 2.25-0.15 4.5l-0.2 0.55q-0.7 0.6-1.4 0-0.45-2.25 0-4.65l0.05-0.4q0.35-0.45 0.9-0.45m6.2 11.85 0.7 0.8q0.5 0.85 0.1 1.8-0.55 0.45-1.25 0.5h-1.7l-0.25-0.2-0.35-0.35-0.3-1.15q-0.3-1.3 0.85-1.55l1.75 0.05 0.45 0.1m-13.7-1.15 0.65 0.35 0.15 0.15q0.35 2-0.05 3.95l-0.05 0.55 0.9 0.95 0.1 0.2-0.2 0.7-0.3 0.4q-1.45 0.15-2.35-1.1 0-2.55 0.15-5.1l0.1-0.55q0.35-0.45 0.9-0.45v-0.05m9.45 13.05q0.7 1.6-0.6 2.8l-0.4 0.4-2.15-0.2q-0.35-0.45-0.3-1.1l0.05-0.75q0.8-1.15 2.2-1.45l0.9 0.2 0.3 0.1m-17.75-11 0.3-0.05q2.5 1.8 0.9 4.8l-0.2 0.2q-0.7 0.3-1.4 0l-0.8-0.75-0.15-0.2-0.1-2.6 0.2-0.75q0.5-0.5 1.25-0.65m-2.95 10.95 0.65 0.35 0.15 0.15q0.45 1.75-0.3 3.35l-0.3 0.4q-1 0.25-1.75-0.55-0.35-1.35 0.1-2.65l0.15-0.35 1.3-0.7m-6.25 22.25 1.4 0.4 0.3 0.15q0.45 0.7 0.5 1.5l-0.2 0.95-0.25 0.2-0.2 0.1q-2.15 0.1-3.95-1.15l-0.1-0.6q-0.05-0.45 0.3-0.75 1.1-0.05 1.9-0.7l0.3-0.1m126.15-59.45q0.55 0.95 0.05 1.85l-0.3 0.35-0.65 0.1-0.45-0.1q-0.5-0.35-0.65-0.95l-0.1-0.35q0.1-0.8 0.9-1.1l0.3-0.1 0.65 0.2 0.25 0.1m-19.15 4.2 0.4 0.15 0.3 0.15q0.6 1.25 0.4 2.65l-0.1 0.55-1.5 0.9q-0.85 0.1-1.4-0.5l-0.1-2.1 0.1-0.55q0.4-0.45 0.95-0.55l0.1-0.1 0.3-0.4 0.25-0.1 0.3-0.1m2 9.25q0.9-0.05 1.6 0.55l0.15 0.15 0.25 0.95-0.25 1.1q-0.35 0.35-0.75 0.3l-0.7-0.05-0.4-0.4-0.1-0.55-0.55-0.6q-0.25-0.2-0.2-0.5-0.05-0.35 0.2-0.55 0.35-0.4 0.75-0.4m-24.75-5.5q4.4 1.6 0.35 3.35-1.35 0.55-2.4-0.4l-0.15-0.55 0.05-0.75q0.6-1 1.7-1.5l0.45-0.15m-11.8-2.45 0.25 0.75-0.1 0.95-1 1.15-0.6 0.25-0.65-0.2-0.5-0.3v-0.2l-0.2-0.6-0.1-0.35q0.1-0.75 0.6-1.3 0.4-0.4 0.85-0.45l1.15 0.2 0.3 0.1m-14.5 10-0.15 2.1q-2 1.55-4.2 0v-0.2l-0.05-1.3v-0.4l0.25-0.35q0.6-0.75 1.45-0.9l2.15 0.2 0.3 0.1 0.25 0.75" fill="#600" fill-rule="evenodd"/>
<path d="m330.55 352.85-6.95 2.15-9.5 1.5q-18-1.25-39.95-8.5-21.7-11.4-31.5-24.5l-22.5-34q-12.25-20.4-15.55-40.8l-0.15-1.25q-4.85-32.4-3.05-63.2l52.7-35.25v61.95l43 102 44.85 23.8-20 10.45 8.6 5.65m-8.6-5.65-5.35 2.8 5.35-2.8" fill="#cecf89" fill-rule="evenodd"/>
<path d="m348.55 342.95-2.8 1.95-3.8-8.15-44.85-23.8-43-102v-61.95l-52.7 35.25-0.3-6.05-0.45-9.15q21.1-23.5 58.5-38.05 26.65-10.2 60.95-9l26.5 3 8.2 13.8q-4.55-1.8-9.35-2.65-8.2-1.45-17.35-0.15l-4 3-1 11 7 10q1.75 39 16 73 1.25 17.95-2 35-6.65 7.15-7 17l5 6.95h12v10l4 7q1.1 9.9-3.05 16.55l-1.95 2.45-5 3-1.7 3.5-2.3 4.5 4.45 4m-2.15-8.5-4.45 2.3 4.45-2.3" fill="#f1e5a9" fill-rule="evenodd"/>
<path d="m362.6 156.65q18.05 45 23.5 95.35-4.65 42.4-22 80l-15.55 10.95-4.45-4 2.3-4.5 1.7-3.5 5-3 1.95-2.45q4.15-6.65 3.05-16.55l-4-7v-10h-12l-5-6.95q0.35-9.85 7-17 3.25-17.05 2-35-14.25-34-16-73l-7-10 1-11 4-3q9.15-1.3 17.35 0.15 4.8 0.85 9.35 2.65l5.8 9.7 0.8 3.15 1.2 5m-14.5 176.85-1.7 0.95 1.7-0.95" fill="#d9d37f" fill-rule="evenodd"/>
<path d="m345.75 344.9 3.85 8.1 9 7.5-19.5-2-8.55-5.65-8.6-5.65 20-10.45 3.8 8.15" fill="#ece1d2" fill-rule="evenodd"/>
<path d="m320.65 71.5 12.95 7 29.5 35 4.1 15.75q-5.35-7.5-12.1-14.2l-1-1q-11.4-3.4-23.1-5.65l0.4-0.45 0.1-0.4q0.2-3.4-2.45-5.6l-0.45-0.1-0.25-0.05q-0.25 0.05-0.55 0.25-0.4 0.25-0.4 0.7l0.15 0.3 0.6 0.8q0 0.55 0.3 0.95 0.9 1.5 0.7 3.2l0.05 0.05q-20.75-3.9-42.7-4.45l-0.1-0.3-0.45-0.75-0.35-0.2-1-0.3v0.05q-0.55 0-0.9 0.45l-0.2 0.9v0.1h-9.45q-24.9 0.4-43.6 12.7-0.75-1-2.35-1.2l-0.45 0.15q-0.95 0.25-1.5 1.05l0.15 0.95 0.75 1.4q-7.95 5.85-14.75 14-6.5 7.8-15.25 13.45-8.5 8.35-12.15 19l-1.75-2.05v-13l7-18.5 6.5-26 12-16.5 24-17 32.8-11.5 12.7-4.5 21 8.5h8.5l13 7m43.55 82.3-1.6 2.85-1.2-5 2.8 2.15m-162.8 30.45-3.6-4.2h2.25l1.05-1.85 0.3 6.05m135.8-89.3-0.1 1.5 0.1 0.75 0.8 0.6 0.4 0.25 1.25 0.05 0.1-0.05q0.75-0.45 0.95-1.25 0.2-1.1-0.1-2.05l-0.15-0.15q-0.95-0.7-2.1-0.55-0.5 0.05-0.85 0.5l-0.3 0.4m-7.25-11.45q-2.45-2.6-5.6-4.45-0.45 0.05-0.75 0.5-0.3 0.5-0.15 1.05 2.8 2.6 5.95 4l0.45-0.35 0.2-0.55-0.1-0.2m-48.55-18q-2.05 0.8-2.25 3.2-0.1 1.05 0.15 2.05 1.05 1.05 2.55 1.5 5.75 1.65 6 7.3 4.25 2.45 9.25 0.7 0.65-0.2 0.85-0.75 1.4-4.35-3.4-6.65l-0.2-3q-0.05-0.9-0.45-1.65-2.85-5.35-9.8-4.65-1.4 0-2.3 1.1l-0.4 0.85m-14.2-2.5-0.05-0.2q-0.25-0.45-0.8-0.5v0.05q-3.25 0.7-5.2 3.2v0.75q-1.2 0.65-1.55 1.9-0.65 0.5-0.95 1.3-0.45 1.2-0.45 2.45 0.55 0.65 1.35 0.35l0.15-0.2 1-1.65q2.25-0.8 4-1.95l0.05-0.55-0.45-1.35q-0.7-0.15-0.9-0.75 2.65-0.95 3.8-2.85m-22.3 15.3q2.75 0.7 4.95-1l0.1-0.35 0.05-0.4 0.05-0.2-0.1-0.15q-1.45-2.2-4.1-2.15-1.55 0.35-3.05 1.05-9.4 4.6-15.35 12.95l-0.45 1.05-0.35 0.65v1.5l0.1 0.15 0.15 0.2 0.25 0.2q1.7-0.35 3.1-1.8l6.05-6.25q3.65-3.85 8.15-5.8l0.2 0.15 0.25 0.2m18.1 1.85-0.1 0.15v1.15l-0.2 1.1-0.05 0.2q-3.55 0.25-6.8 1.95l-0.15 0.35-0.05 0.4-0.05 0.15-0.15 0.2q-0.8 1.15-0.6 2.65l0.2 0.55q0.9 0.75 2.1 0.85 5.2 0.25 10.1-0.95 3.75-0.95 0.35-3.95l1.5-0.95 0.25-0.2 0.2-1.1-0.25-1.35v-0.15q1.85-0.15 3.4-1.1 0.9-0.55 1.05-1.55 0.7-5.2-5.15-4.75l-1.55 0.5-3.1 0.75q-0.35 0.3-0.4 0.75l-0.15 0.55v0.2q0 0.45 0.3 0.75l0.75 1.15 0.15 0.15-0.35 0.35q-0.75 0.5-1.25 1.2m18.45 10.85-0.05-0.2-1.1-1.1-0.45-0.1-4-0.05q-0.6 0.1-1.2 0.6l-0.2 0.15-0.05 0.4 0.05 0.55v0.2l1.35 1.3q2.55 2.4 5.55 1.05l0.1-0.55v-2.25m-15.5 7.7-0.05 0.15q0.25 0.95 0.95 1.7l0.8 0.75q1.85 0.55 3.75 0.05l0.9-0.9q2.7-4.55-2.95-4.65-1.05 0.35-1.85 1.25-0.4 0.4-0.6 0.95l-0.5 0.2-0.45 0.5m36.4-11.15-0.7 0.35q-0.3 0.15-0.25 0.55l0.05 0.1q5.3 3.45 9.9 7.9l0.4-0.15 0.45-0.55v-0.15q-3.5-5.55-9.85-8.05m-79.75 9-3-0.25-1.85 0.5q-2.95 1.1-3.05 4.15l0.5 0.25 0.7 0.15 0.15-0.05 5.35 0.55q1.15-0.8 1.9-2 1.05-1.7-0.25-3.15l-0.45-0.15m91.95-13.85-0.45-0.1-0.25-0.05-0.45 0.15-0.5 0.5-0.1-0.1-1.35-0.05-0.15 0.4q-0.3 1.35 0.6 2.4 1.15 0.75 2.5 0.5l0.2-0.1 0.25-0.2 0.15-0.35q0.8-1.65-0.45-3m-19.4 11.45-0.2 0.15q-0.55 1.15-0.6 2.45l0.1 1.1q2.6 2.55 5.9 0.7l0.55-1.75q0.85-2.55-1.6-3.85l-0.45-0.1-1.75-0.05v0.05l-0.3 0.05-0.25 0.1-1.4 1.15m-63.8 6.2-0.75-0.05q-2.55 0.8-4.9 2.25-0.45 0.5-0.5 1.15-0.15 1.05 0.1 2.05l0.35 0.35 0.25 0.2q6.25 0.6 6.55-5.1l-0.1-0.2-0.55-0.55-0.45-0.1m9.6 3.45q0.35 1.15 0.25 2.45v0.35l0.35 0.35q1.5 1.3 3.6 0.65l0.2-0.1 1.25-1.5 0.1-0.2 0.05-0.2q0.55-4.15-4.15-3.3v0.05q-1.05 0.2-1.6 1.1l-0.1 0.15 0.05 0.2m-25.35 10.3q-0.55 0-0.9 0.45l-0.05 0.4q-0.45 2.4 0 4.65 0.7 0.6 1.4 0l0.2-0.55q0.3-2.25 0.15-4.5l-0.15-0.15-0.65-0.35v0.05m-6.5-1.35q-0.35-0.6-1-0.7l-0.3 0.1-0.6 0.45v0.55q0.35 1.4 0.2 2.85l0.1 0.15 0.4 0.4q0.7 0.3 1.2-0.25l0.1-0.55v-2.8l-0.1-0.2m-1 12.05v0.05q-0.55 0-0.9 0.45l-0.1 0.55q-0.15 2.55-0.15 5.1 0.9 1.25 2.35 1.1l0.3-0.4 0.2-0.7-0.1-0.2-0.9-0.95 0.05-0.55q0.4-1.95 0.05-3.95l-0.15-0.15-0.65-0.35m-11.25 13-1.3 0.7-0.15 0.35q-0.45 1.3-0.1 2.65 0.75 0.8 1.75 0.55l0.3-0.4q0.75-1.6 0.3-3.35l-0.15-0.15-0.65-0.35m2.95-10.95q-0.75 0.15-1.25 0.65l-0.2 0.75 0.1 2.6 0.15 0.2 0.8 0.75q0.7 0.3 1.4 0l0.2-0.2q1.6-3-0.9-4.8l-0.3 0.05m116.95-26.25-0.25-0.1-0.65-0.2-0.3 0.1q-0.8 0.3-0.9 1.1l0.1 0.35q0.15 0.6 0.65 0.95l0.45 0.1 0.65-0.1 0.3-0.35q0.5-0.9-0.05-1.85" fill="#ccd1a9" fill-rule="evenodd"/>
<path d="m296.65 56 109.95-15.5 32.5-10.5 11 6-30.5 13-72.5 15.5-6.7 1.8-43.75-10.3m-74.15-4.7-12.35-19.8 7-13.5 36 21.5 8.7 14.8-18.7 5.2-20.65-8.2" fill="#f2f0b7" fill-rule="evenodd"/>
<path d="m340.4 66.3-19.75 5.2-13-7h-8.5l-10.5-4.25 8-4.25 43.75 10.3m-107.75 5.7-7.5-16.5-2.65-4.2 20.65 8.2 18.7-5.2 3.6 6.2-32.8 11.5" fill="#bac78f" fill-rule="evenodd"/>
<path d="m367.2 129.25 3.4 13.25-6.4 11.3-2.8-2.15-0.8-3.15-5.8-9.7-8.2-13.8-26.5-3q-34.3-1.2-60.95 9-37.4 14.55-58.5 38.05l-1.5 0.95 1.5-0.95 0.45 9.15-1.05 1.85h-2.25l-12.9-15q3.65-10.65 12.15-19 8.75-5.65 15.25-13.45 6.8-8.15 14.75-14l1.1 1.2 0.45 0.1 1.2-0.1 0.75-0.65 0.4-0.6 0.05-0.2q0.05-1.35-0.55-2.1 18.7-12.3 43.6-12.7h9.45l-0.1 1.45 0.1 0.15 0.4 0.4q1.8 0.15 2.65-1.5l-0.05-0.45q21.95 0.55 42.7 4.45l1.8 0.35q11.7 2.25 23.1 5.65l1 1q6.75 6.7 12.1 14.2m-9.3-6.95 0.95 0.1 0.6-0.2 0.15-0.2 0.25-0.75-0.15-0.55-0.1-0.2q-1.2-1.65-3.25-1.7-0.7 0.05-0.9 0.85l0.05 1.1 0.55 0.3q1.05 0.4 1.85 1.25m-136.1 3.65-0.45-0.1-1.75-0.05q-1.15 0.25-0.85 1.55l0.3 1.15 0.35 0.35 0.25 0.2h1.7q0.7-0.05 1.25-0.5 0.4-0.95-0.1-1.8l-0.7-0.8m-4.25 11.9-0.3-0.1-0.9-0.2q-1.4 0.3-2.2 1.45l-0.05 0.75q-0.05 0.65 0.3 1.1l2.15 0.2 0.4-0.4q1.3-1.2 0.6-2.8m-26.95 22.2-0.3 0.1q-0.8 0.65-1.9 0.7-0.35 0.3-0.3 0.75l0.1 0.6q1.8 1.25 3.95 1.15l0.2-0.1 0.25-0.2 0.2-0.95q-0.05-0.8-0.5-1.5l-0.3-0.15-1.4-0.4m107-55.25-0.3 0.1-0.25 0.1-0.3 0.4-0.1 0.1q-0.55 0.1-0.95 0.55l-0.1 0.55 0.1 2.1q0.55 0.6 1.4 0.5l1.5-0.9 0.1-0.55q0.2-1.4-0.4-2.65l-0.3-0.15-0.4-0.15m-49.05 11.3-0.25-0.75-0.3-0.1-2.15-0.2q-0.85 0.15-1.45 0.9l-0.25 0.35v0.4l0.05 1.3v0.2q2.2 1.55 4.2 0l0.15-2.1m14.5-10-0.3-0.1-1.15-0.2q-0.45 0.05-0.85 0.45-0.5 0.55-0.6 1.3l0.1 0.35 0.2 0.6v0.2l0.5 0.3 0.65 0.2 0.6-0.25 1-1.15 0.1-0.95-0.25-0.75m11.8 2.45-0.45 0.15q-1.1 0.5-1.7 1.5l-0.05 0.75 0.15 0.55q1.05 0.95 2.4 0.4 4.05-1.75-0.35-3.35m24.75 5.5q-0.4 0-0.75 0.4-0.25 0.2-0.2 0.55-0.05 0.3 0.2 0.5l0.55 0.6 0.1 0.55 0.4 0.4 0.7 0.05q0.4 0.05 0.75-0.3l0.25-1.1-0.25-0.95-0.15-0.15q-0.7-0.6-1.6-0.55" fill="#f8f3cb" fill-rule="evenodd"/>
<path d="m296.65 56 109.95-15.5 32.5-10.5 11 6-30.5 13-72.5 15.5-6.7 1.8-19.75 5.2 12.95 7 29.5 35 4.1 15.75 3.4 13.25-6.4 11.3-1.6 2.85q18.05 45 23.5 95.35-4.65 42.4-22 80l-15.55 10.95-2.8 1.95 3.85 8.1 9 7.5-19.5-2-8.55-5.65-6.95 2.15-9.5 1.5q-18-1.25-39.95-8.5-21.7-11.4-31.5-24.5l-22.5-34q-12.25-20.4-15.55-40.8l-0.15-1.25q-4.85-32.4-3.05-63.2l-3.6-4.2-12.9-15-1.75-2.05v-13l7-18.5 6.5-26 12-16.5 24-17-7.5-16.5-2.65-4.2-12.35-19.8 7-13.5 36 21.5 8.7 14.8 3.6 6.2 12.7-4.5 10.5 4.25 8-4.25 43.75 10.3m6 268.15 1.7-0.95m-147.45-164.45q21.1-23.5 58.5-38.05 26.65-10.2 60.95-9l26.5 3 8.2 13.8 5.8 9.7 0.8 3.15 1.2 5m-161.2 27.6-0.3-6.05m140.85 158.55 4.45-2.3m-4.45 2.3 3.8 8.15m-123.25-293.6 20.65 8.2 18.7-5.2m58.8 17.2-13-7h-8.5l-10.5-4.25m-89.5 109.75 1.5-0.95 0.45 9.15m31.55-106.2 32.8-11.5m51.15 289.5 5.35-2.8 20-10.45m-20 10.45 8.6 5.65" fill="none" stroke="#000" stroke-linecap="round" stroke-linejoin="round" stroke-opacity=".50196" stroke-width="2"/>
</g>
</defs>
</svg>
