<?xml version="1.0" encoding="UTF-8"?>
<svg version="1.1" viewBox="0 0 56.55 34.65" xmlns="http://www.w3.org/2000/svg" xmlns:cc="http://creativecommons.org/ns#" xmlns:dc="http://purl.org/dc/elements/1.1/" xmlns:rdf="http://www.w3.org/1999/02/22-rdf-syntax-ns#" xmlns:xlink="http://www.w3.org/1999/xlink">
<metadata>
<rdf:RDF>
<cc:Work rdf:about="">
<dc:format>image/svg+xml</dc:format>
<dc:type rdf:resource="http://purl.org/dc/dcmitype/StillImage"/>
</cc:Work>
</rdf:RDF>
</metadata>
<g transform="translate(-259.55,-178.35)">
<use transform="translate(259.55,178.3)" width="56.549999" height="34.700001" xlink:href="#a"/>
</g>
<defs>
<g id="a" transform="translate(-259.55,-178.3)">
<path d="m279.8 197.8v-0.05 0.05l12.15-5.75 0.05-0.05h-0.05 0.05l4.05-1.8 2.75-2.4q5.25-4.8 8.75-7.05l0.15-0.15q1.2-0.8 2.5-0.9l4.35-0.1q0.35 0.15 0.65 0.45l-1.05 1.7-5.75 2.65-7.25 5.8-7.35 3.9-1.05 1.4-16.45 8.55-0.9 1.05-0.4-1.3 1.95-1.75-2.25-1.45-0.65-0.55-4.6-0.9-0.15-0.8q2.8 1.15 4.2 1.3l2.35-0.15 2.9-1.3v0.05l0.05-0.05 1-0.4" fill="#f0e3a5" fill-rule="evenodd"/>
<path d="m315.2 180.05 0.65 0.7-0.05 1.45-3.9 2.2-2.9 2.95-0.9 0.3 0.1-0.1-15.45 7.95 1.05-1.4 7.35-3.9 7.25-5.8 5.75-2.65 1.05-1.7" fill="url(#g)" fill-rule="evenodd"/>
<path d="m315.8 182.2-0.1 0.5-0.9 1.5v2.5l-1.1 2.55 0.05 0.1q-0.15 0.3-4.5 1.85-2.15-0.65-2.6-1.95l-2.1 2.1-27.75 13.35-1.8 2.95q1.05 1.6-2 4-1 0.7-2.45 1.1l-3.45-1.25 1.6 0.25 0.9 0.05 1.9-0.45 1.55-0.8 0.65-0.55 0.6-0.6-2.6-0.05 3.7-4.25 0.9-1.05 16.45-8.55 15.45-7.95-0.1 0.1 0.9-0.3 2.9-2.95 3.9-2.2m-6.5 6.8-0.65-0.15-2 0.4 2-0.4 0.65 0.15" fill="url(#f)" fill-rule="evenodd"/>
<path d="m307.55 180.75q-0.45-1.4 2.5-2l1.55-0.15 1.25 0.15q0.65 0.15 1.7 0.85l-4.35 0.1q-1.3 0.1-2.5 0.9l-0.15 0.15" fill="url(#e)" fill-rule="evenodd"/>
<path d="m278.75 198.2h0.05l-0.05 0.05v-0.05" fill="#a6996a" fill-rule="evenodd"/>
<path d="m270.55 212.75-4.6-0.85-1.6-2.75q0.75 0.6 1.8 1l1.25 0.45h1.4l0.7-0.2 0.25-3.6-0.65 0.3-1.35 0.5-1.3 0.25-1.85-0.2-0.45-0.45-1.1-1.45-0.9-1.55 0.5-0.25 1.6 0.35 1.8-0.05 1.35-0.55 2.05-1.25 0.95-1.2-0.1-0.45q-0.1-0.95-0.85-1.65l4.6 0.9 0.65 0.55 2.25 1.45-1.95 1.75 0.4 1.3-3.7 4.25 2.6 0.05-0.6 0.6-0.65 0.55-1.55 0.8-1.9 0.45-0.9-0.05-1.6-0.25 3.45 1.25" fill="url(#d)" fill-rule="evenodd"/>
<path d="m264.25 207.65q-4.45-2.85-4.45-5.5l0.2-0.95q0.6-3.1 5.65-3.4l3.65 0.55 0.15 0.8q0.75 0.7 0.85 1.65l0.1 0.45-0.95 1.2-2.05 1.25-1.35 0.55-1.8 0.05-1.6-0.35-0.5 0.25 0.9 1.55 1.1 1.45 0.45 0.45h-0.35" fill="url(#c)" fill-rule="evenodd"/>
<path d="m264.35 209.15v-0.6l0.15-0.75-0.25-0.15h0.35l1.85 0.2 1.3-0.25 1.35-0.5 0.65-0.3-0.25 3.6-0.7 0.2h-1.4l-1.25-0.45q-1.05-0.4-1.8-1" fill="url(#b)" fill-rule="evenodd"/>
<path d="m279.8 197.8 12.15-5.75 0.05-0.05 4.05-1.8 2.75-2.4q5.25-4.8 8.75-7.05-0.45-1.4 2.5-2l1.55-0.15 1.25 0.15q0.65 0.15 1.7 0.85 0.35 0.15 0.65 0.45l0.65 0.7-0.05 1.45-0.1 0.5-0.9 1.5v2.5l-1.1 2.55 0.05 0.1q-0.15 0.3-4.5 1.85-2.15-0.65-2.6-1.95l-2.1 2.1-27.75 13.35-1.8 2.95q1.05 1.6-2 4-1 0.7-2.45 1.1l-4.6-0.85-1.6-2.75v-0.25m0-0.35 0.15-0.75-0.25-0.15q-4.45-2.85-4.45-5.5l0.2-0.95q0.6-3.1 5.65-3.4l3.65 0.55q2.8 1.15 4.2 1.3l2.35-0.15 2.9-1.3m0.05 0 1-0.4m27.75-17.05 0.15-0.15m-1.05 8.65 2-0.4 0.65 0.15m-30.55 9.25 0.05-0.05m-14.2 9.45 1.85 0.2 1.3-0.25 1.35-0.5 0.65-0.3m-5.15 0.85h-0.35" fill="none" stroke="#665b33" stroke-linecap="round" stroke-linejoin="round" stroke-width=".5"/>
</g>
<linearGradient id="g" x1="-819.2" x2="819.2" gradientTransform="matrix(.0023 .0039 -.0082 .0047 305 186.8)" gradientUnits="userSpaceOnUse">
<stop stop-color="#f0e3a5" offset="0"/>
<stop stop-color="#c5b87c" offset="1"/>
</linearGradient>
<linearGradient id="f" x1="-819.2" x2="819.2" gradientTransform="matrix(.0027 .006 -.017 .0077 291.2 198.9)" gradientUnits="userSpaceOnUse">
<stop stop-color="#c9bc7e" offset="0"/>
<stop stop-color="#a6996a" offset="1"/>
</linearGradient>
<linearGradient id="e" x1="-819.2" x2="819.2" gradientTransform="matrix(0 .0043 -.0013 0 311 179.65)" gradientUnits="userSpaceOnUse">
<stop stop-color="#ffffdf" offset="0"/>
<stop stop-color="#f0e3a5" offset="1"/>
</linearGradient>
<linearGradient id="d" x1="-819.2" x2="819.2" gradientTransform="matrix(.0052 0 0 .0083 272.25 193.45)" gradientUnits="userSpaceOnUse">
<stop stop-color="#d2c78e" offset="0"/>
<stop stop-color="#f0e3a5" offset="1"/>
</linearGradient>
<linearGradient id="c" x1="-819.2" x2="819.2" gradientTransform="matrix(.0032 .0032 -.0042 .0043 264.5 201)" gradientUnits="userSpaceOnUse">
<stop stop-color="#ffffdf" offset="0"/>
<stop stop-color="#d2c78e" offset="1"/>
</linearGradient>
<linearGradient id="b" x1="-819.2" x2="819.2" gradientTransform="matrix(-.0029 .0017 -.0012 -.002 269.55 208.35)" gradientUnits="userSpaceOnUse">
<stop stop-color="#f0e3a5" offset="0"/>
<stop stop-color="#b2a570" offset="1"/>
</linearGradient>
</defs>
</svg>
