<?xml version="1.0" encoding="UTF-8"?>
<svg version="1.1" viewBox="0 0 67.203 64.813" xmlns="http://www.w3.org/2000/svg" xmlns:cc="http://creativecommons.org/ns#" xmlns:dc="http://purl.org/dc/elements/1.1/" xmlns:rdf="http://www.w3.org/1999/02/22-rdf-syntax-ns#" xmlns:xlink="http://www.w3.org/1999/xlink">
<metadata>
<rdf:RDF>
<cc:Work rdf:about="">
<dc:format>image/svg+xml</dc:format>
<dc:type rdf:resource="http://purl.org/dc/dcmitype/StillImage"/>
</cc:Work>
</rdf:RDF>
</metadata>
<g transform="translate(-245.55 -137.14)">
<use transform="translate(245.55,137.15)" width="67.199997" height="64.800003" xlink:href="#a"/>
</g>
<defs>
<g id="a" transform="translate(-245.55,-137.15)">
<path d="m293.25 154.55-0.9-0.45q1.55-13.8 7.7-16.35l0.35-0.2q1.85-0.25 1.75 3.4l-5 1.1-3.05 6-0.85 6.5m-8.65 9.25 0.75-3.1-0.2-0.5q-2.5-8.05-7.85-12.45l-0.3-0.35q-2.9-2.9-6.35-3.7l0.1-0.8-4.45-0.8-0.1-0.6 1.4-0.25-0.3-0.6 2.25-0.35-0.1-0.6v-0.05l-4.65-0.4-0.15-0.65q2.35-0.4 4.8 0.05 5.3 1.05 10.85 6.25l0.2 0.2q10.8 11.75 8.15 20.2 2.4-4.3 5.45-6.25l0.3 0.6 2.75-0.85 0.25 0.6v0.1l-1.2 1-0.1 0.05 0.15 0.3 2.5-0.4v0.05l0.1 0.35-2.45 0.4-0.15 0.05-0.35 0.1-0.5 0.25q-4.25 1.85-6.3 6.5l-0.25 0.3q-4 7.4-1.65 12.6l1.65-0.85q2.75 5.9 7 9.5l1.55 1.15q-0.2-2.75 4.35-3.85l7.9 1.2q-9.2 1.7-12.25 4.35l-0.25 0.1q-3.65 2.45 2.4 8.5l-1.65 0.4q-3.6-3.85-7.65-5.85-6.95-6.55-19.8-2.35-3.95 1.25-8.5 3.6l-15.6 1.8-0.4-2.25 6.3-0.5h0.05l0.25 1.05v0.05l9.95-1.8-0.15-0.55q2.55-1 5.15-2.05l-0.35-0.55 1.1-0.7-0.45-0.3 2.45-1.5 0.75 0.7 6.35-4.9 0.9 0.65h0.05v-0.05l4.25-5.35-1.1-0.6 2.2-4.2-1.4-0.3q1.4-3.3 2.2-7.05 0.5-2.3 0.15-4.75m19.9-6q1.65 0.45 3.05 1.3 3 4 3.3 6.9 0.3 7.15-2.45 9.6l-6.1 4.05-1.45 0.1q-8.6-0.4-5.85-7.7 2.3-4.35 7.7-4.05l-0.05 1.5-4.4 0.7-1.7 3.65 2.75 2.75 1.8-0.75q1.5 0.3 3.35-0.7 2.85-1.65 3.1-4.4v-0.85q1.6-4.8-1.25-7.3l-0.3-0.3-0.2-0.15q-0.5-0.4-1.05-0.65l-0.15-0.1-0.1-0.5-1.6-0.5 0.3-0.9 2.1-0.15 0.05-0.1 0.15-0.7-1.2-0.2 0.2-0.55m-53.65-8.25-0.05 1.6-0.8 2.6 4.1-4.85 0.6 0.3q-1.95 2.25-3.55 5.6l-0.3 0.6q-2.6 6.05 0.8 14.2l2.6 0.65q2.15 2.8 6.45 2.5 6.5-0.85 7.75-5 1.1-3.95-1.55-3.2l-1.45-0.95-1.6 2.35-1.5-0.1q-0.2-3.35 1.65-4.2 1.55-0.85 3.05-0.8l3.65 2.7q1.65 4.5-1.75 8.75l-0.3 0.45-0.2 0.05-7.25 3.7-2.65-0.25q-7.6-1.4-10.5-9.5-1.85-7 1.3-14.25l1.5-2.95m19.15 43.15 2.2-1.05-0.95-0.7-1.8 0.95 0.55 0.8m12-8.15 1.1 0.3 0.6-2.7-0.6-0.15-1.1 2.55" fill="#c96" fill-rule="evenodd"/>
<path d="m293.25 154.55 0.85-6.5 3.05-6 5-1.1q-0.05 2-0.75 5.3-5.8-1.7-7.5 8.65l-0.65-0.35m-22.6-10.85q3.45 0.8 6.35 3.7l0.3 0.35q5.35 4.4 7.85 12.45l0.2 0.5-0.75 3.1q-0.55-4.25-3.5-8.75-4.6-7-10.9-8.35l-0.4-0.05h-0.1l0.1-0.4-3.55-0.75-0.05-0.05v-0.1l-0.05-0.6 4.45-0.7 0.05-0.35m-24.3 55.05 15.6-1.8q4.55-2.35 8.5-3.6 12.85-4.2 19.8 2.35-11.5-5.65-27.15 3.05l-16.65 0.55-0.1-0.55m53.2 2.4q-6.05-6.05-2.4-8.5l0.25-0.1q3.05-2.65 12.25-4.35h1l0.6 0.05h0.1l-0.05 1.25h-0.05q-16.95 1.8-11.35 11.45l-0.2 0.15-0.15 0.05m2.2-14.15q-4.55 1.1-4.35 3.85l-1.55-1.15q-4.25-3.6-7-9.5l-1.65 0.85q-2.35-5.2 1.65-12.6l0.25-0.3q2.05-4.65 6.3-6.5l0.5-0.25 0.35-0.1 0.15-0.05 2.45-0.4 0.15 0.6v0.1l-0.05 0.05-1 0.55-0.1 0.05 0.25 0.95q-6.7 1.5-7.75 11-1.15 8.25 10.4 12.6l1 0.25m-47.05-37.8-0.4 1.95-1.95 3.35 0.7 0.45v0.05q-1.6 3.95-0.9 9.45 0.5 3.7 2.1 5.8l-2.6-0.65q-3.4-8.15-0.8-14.2l0.3-0.6q1.6-3.35 3.55-5.6m52.85 9.9 1.55 1.2q3.35 3.2 3.25 8.9-0.1 9.3-10.05 10.45l6.1-4.05q2.75-2.45 2.45-9.6-0.3-2.9-3.3-6.9m-4.9 10.4-0.05 1-0.15 0.35q-2.8 0.15-3.65 1.85-0.6 1.25 0.15 2 1 0.95 2.15 1.15l-1.8 0.75-2.75-2.75 1.7-3.65 4.4-0.7m4.9 0.4q-0.15-6.1-5.15-6.95l0.1-0.55 1.95 0.15 0.2-0.8-0.05-0.35 0.15 0.1q0.55 0.25 1.05 0.65l0.2 0.15 0.3 0.3q2.85 2.5 1.25 7.3m-46.35 6.6 7.25-3.7 0.2-0.05 0.3-0.45q3.4-4.25 1.75-8.75l-3.65-2.7q1.7 0 3.35 1.15 4.3 4.25 2.4 8.25-3.6 6.45-11.6 6.25m1.15-10.65 1.5 0.1 1.6-2.35 1.45 0.95-0.85 0.3q-1.6 1.5-0.1 2.8-2.55 1.3-3.5-0.85l-0.1-0.95" fill="#a87148" fill-rule="evenodd"/>
<path d="m282.25 175.6 1.4 0.3-2.2 4.2 1.1 0.6-4.25 5.35v0.05h-0.05l-0.9-0.65-6.35 4.9-0.75-0.7q0.65-0.45 1.35-0.95 7.2-5.25 10.65-13.1m-14.45 15.55 0.45 0.3-1.1 0.7 0.35 0.55q-2.6 1.05-5.15 2.05l0.15 0.55-9.95 1.8v-0.05l-0.25-1.05q8.1-1.05 14.55-4.35l0.95-0.5m31.05-30.3-0.1-0.35v-0.05l-2.5 0.4-0.15-0.3 0.1-0.05 1.2-1v-0.1l-0.25-0.6-2.75 0.85-0.3-0.6q2.7-1.75 5.85-1.7h0.3l4.25 0.45-0.2 0.55 1.2 0.2-0.15 0.7-0.05 0.1-2.1 0.15-0.3 0.9 1.6 0.5 0.1 0.5q-2.25-1-5.75-0.55m-34.2-22.25 0.15 0.65 4.65 0.4v0.05l0.1 0.6-2.25 0.35 0.3 0.6-1.4 0.25 0.1 0.6 4.45 0.8-0.1 0.8q-4.9-1.15-11 1.7-2.65 1.15-4.95 3.8l-0.6-0.3-4.1 4.85 0.8-2.6 0.05-1.6q1.35-2.4 3.3-4.85 5.1-5.25 10.5-6.1m5.35 54.1-0.55-0.8 1.8-0.95 0.95 0.7-2.2 1.05" fill="#d6ba9e" fill-rule="evenodd"/>
<path d="m254.7 149.2q2.3-2.65 4.95-3.8 6.1-2.85 11-1.7l-0.05 0.35-4.45 0.7 0.05 0.6v0.1l0.05 0.05 3.55 0.75-0.1 0.4q-8.95-0.8-13.8 4.05-1.85 1.85-2.85 4.25l-0.7-0.45 1.95-3.35 0.4-1.95m47.7 13.75-2.45-0.1-1.85 0.3-0.25-0.95 0.1-0.05 1-0.55 0.05-0.05v-0.1l-0.15-0.6q3.5-0.45 5.75 0.55l0.05 0.35-0.2 0.8-1.95-0.15-0.1 0.55m-20.4 21.6 1.1-2.55 0.6 0.15-0.6 2.7-1.1-0.3" fill="#c29970" fill-rule="evenodd"/>
<path d="m309.65 188.2h1l0.6 0.05h0.1l-0.05 1.25h-0.05q-16.95 1.8-11.35 11.45l-0.2 0.15-0.15 0.05" fill="none" stroke="#000" stroke-linecap="round" stroke-linejoin="round" stroke-opacity=".30196" stroke-width=".8"/>
<path d="m302.15 140.95q0.1-3.65-1.75-3.4l-0.35 0.2q-6.15 2.55-7.7 16.35l0.9 0.45m8.9-13.6q-0.05 2-0.75 5.3-5.8-1.7-7.5 8.65l-0.65-0.35m-8.65 9.25q0.35 2.45-0.15 4.75-0.8 3.75-2.2 7.05m-12 14.05-2.45 1.5m-15.5 4.85h-0.05l-6.3 0.5 0.4 2.25m43.9-3.05q4.05 2 7.65 5.85l1.65-0.4m10.1-12.95-7.9-1.2m-7.65-27.95q-3.05 1.95-5.45 6.25 2.65-8.45-8.15-20.2l-0.2-0.2q-5.55-5.2-10.85-6.25-2.45-0.45-4.8-0.05m-11.6 16.35q1-2.4 2.85-4.25 4.85-4.85 13.8-4.05h0.1l0.4 0.05q6.3 1.35 10.9 8.35 2.95 4.5 3.5 8.75m9.5-4.75q2.7-1.75 5.85-1.7h0.3l4.25 0.45q1.65 0.45 3.05 1.3l1.55 1.2q3.35 3.2 3.25 8.9-0.1 9.3-10.05 10.45l-1.45 0.1q-8.6-0.4-5.85-7.7 2.3-4.35 7.7-4.05l-0.05 1.5-0.05 1-0.15 0.35q-2.8 0.15-3.65 1.85-0.6 1.25 0.15 2 1 0.95 2.15 1.15 1.5 0.3 3.35-0.7 2.85-1.65 3.1-4.4v-0.85q-0.15-6.1-5.15-6.95l-2.45-0.1-1.85 0.3q-6.7 1.5-7.75 11-1.15 8.25 10.4 12.6l1 0.25m-47.5-16.75q-1.6-2.1-2.1-5.8-0.7-5.5 0.9-9.45v-0.05m-2.2-5.4q1.35-2.4 3.3-4.85 5.1-5.25 10.5-6.1m2.4 22.25q-1.5-0.05-3.05 0.8-1.85 0.85-1.65 4.2m4.55-1.3q2.65-0.75 1.55 3.2-1.25 4.15-7.75 5-4.3 0.3-6.45-2.5m12.8-9.4q1.7 0 3.35 1.15 4.3 4.25 2.4 8.25-3.6 6.45-11.6 6.25l-2.65-0.25q-7.6-1.4-10.5-9.5-1.85-7 1.3-14.25l1.5-2.95m16.05 15-0.85 0.3q-1.6 1.5-0.1 2.8-2.55 1.3-3.5-0.85l-0.1-0.95m27.9 29.85q-11.5-5.65-27.15 3.05l-16.65 0.55-0.1-0.55m5.95-2.75q8.1-1.05 14.55-4.35l0.95-0.5m2.45-1.5q0.65-0.45 1.35-0.95 7.2-5.25 10.65-13.1" fill="none" stroke="#000" stroke-linecap="round" stroke-linejoin="round" stroke-opacity=".30196" stroke-width=".8"/>
</g>
</defs>
</svg>
