<?xml version="1.0" encoding="UTF-8"?>
<svg version="1.1" viewBox="0 0 43.636 106.28" xmlns="http://www.w3.org/2000/svg" xmlns:cc="http://creativecommons.org/ns#" xmlns:dc="http://purl.org/dc/elements/1.1/" xmlns:rdf="http://www.w3.org/1999/02/22-rdf-syntax-ns#" xmlns:xlink="http://www.w3.org/1999/xlink">
<metadata>
<rdf:RDF>
<cc:Work rdf:about="">
<dc:format>image/svg+xml</dc:format>
<dc:type rdf:resource="http://purl.org/dc/dcmitype/StillImage"/>
</cc:Work>
</rdf:RDF>
</metadata>
<g transform="translate(-161.01 -86.4)">
<use transform="translate(161,86.35)" width="43.650002" height="106.35" xlink:href="#a"/>
</g>
<defs>
<g id="a" transform="translate(-161,-86.35)">
<path d="m183.7 87q1.6 7.1 0.1 10.95-1.55 4-5.8 3.05l-0.85 0.2q-1.65-2.95-0.65-7.4 0.4-1.9 1.3-4.1 1.4-2.45 3.9-2.8l2 0.1m-20.9 20.45q18.45-7.4 19.1 14.95-1.4 2.85-4.3 4.25-2.85 1.35-6.15 0.3-3.5-1.1-6.4-4.6-3.25-3.9-3.5-7.9-0.25-3.7 1.25-7m20.15 5.65-0.25-1.75 0.25-0.2q4.85 6.05 7.6 15.35 2.3 7.75 3.85 20.65l2.05 18q1.15 12.7 0.85 24.85v0.1q-7.15 5.45-10.9-3.35l-0.1-0.25q8.7-33.15-3.35-73.4m-9.55 5.35q0.4-1.2-0.05-2.45l-0.4-0.9-0.75-0.85-0.75-0.45-0.8 0.1q-0.9 0.75-0.75 2l0.05 1.15q-0.05 1.75 1.05 3.2l0.95 1.05 0.95 0.5 0.55-0.1q1.05-0.95 1.45-2.3l0.7-3.5q0.2-1.8-0.15-3.6-0.35-1.6-1.3-2.9-0.55-0.8-1.4-1.25l-1.05-0.35q-2.05-0.55-3.7 0.75-0.95 0.7-1.4 1.7l-0.55 1.55-0.2 1.75 0.1 2.05q0.25 1.7 0.95 3.25-0.7-1.55-0.95-3.25l-0.1-2.05 0.2-1.75 0.55-1.55q0.45-1 1.4-1.7 1.65-1.3 3.7-0.75l1.05 0.35q0.85 0.45 1.4 1.25 0.95 1.3 1.3 2.9 0.35 1.8 0.15 3.6l-0.7 3.5q-0.4 1.35-1.45 2.3l-0.55 0.1-0.95-0.5-0.95-1.05q-1.1-1.45-1.05-3.2l-0.05-1.15q-0.15-1.25 0.75-2l0.8-0.1 0.75 0.45 0.75 0.85 0.4 0.9q0.45 1.25 0.05 2.45" fill="#fef3de" fill-rule="evenodd"/>
<path d="m177.15 101.2 0.85-0.2q4.25 0.95 5.8-3.05 1.5-3.85-0.1-10.95l0.1 0.05q1.2 0.25 2.35 1.1 2.25 1.55 3.1 4.2 0.9 2.95-0.35 6.15l-0.2 0.65q-1.3 4.55 0.35 10.05l0.3 0.85q10.95 34.9 14.75 72.6l0.05 0.35q-0.55 4.3-1.5 5.6-0.85 1.2-2.9 0.85l-0.8-8.85-1.55 9.4-0.1 0.1v-0.1q0.3-12.15-0.85-24.85l-2.05-18q-1.55-12.9-3.85-20.65-2.75-9.3-7.6-15.35l-0.35-0.4 0.1 0.6 0.25 1.75q0.6 5.75-1.05 9.3-0.65-22.35-19.1-14.95l0.55-1.1q2.05-3.75 5.2-4.6 3.45-0.95 6.6 2.35l2.25-2.45-0.25-0.45m20.95 68.8q1.65 5.3 0.85 10.6 0.8-5.3-0.85-10.6" fill="url(#b)" fill-rule="evenodd"/>
<path d="m183.7 87-2-0.1q-2.5 0.35-3.9 2.8-0.9 2.2-1.3 4.1-1 4.45 0.65 7.4l0.25 0.45-2.25 2.45q-3.15-3.3-6.6-2.35-3.15 0.85-5.2 4.6l-0.55 1.1m19.1 14.95q1.65-3.55 1.05-9.3l-0.25-1.75-0.1-0.6 0.35 0.4m14.35 78.95 0.1-0.1 1.55-9.4q0.8-5.3-0.85-10.6m-14.3-82.95q1.2 0.25 2.35 1.1 2.25 1.55 3.1 4.2 0.9 2.95-0.35 6.15l-0.2 0.65q-1.3 4.55 0.35 10.05l0.3 0.85q10.95 34.9 14.75 72.6l0.05 0.35q-0.55 4.3-1.5 5.6-0.85 1.2-2.9 0.85l-0.8-8.85m-17.05-58.2q-1.4 2.85-4.3 4.25-2.85 1.35-6.15 0.3-3.5-1.1-6.4-4.6-3.25-3.9-3.5-7.9-0.25-3.7 1.25-7m34.5 82.65q-7.15 5.45-10.9-3.35l-0.1-0.25q8.7-33.15-3.35-73.4" fill="none" stroke="#000" stroke-linecap="round" stroke-linejoin="round" stroke-opacity=".50196"/>
<path d="m166.9 118.85q-0.7-1.55-0.95-3.25l-0.1-2.05 0.2-1.75 0.55-1.55q0.45-1 1.4-1.7 1.65-1.3 3.7-0.75l1.05 0.35q0.85 0.45 1.4 1.25 0.95 1.3 1.3 2.9 0.35 1.8 0.15 3.6l-0.7 3.5q-0.4 1.35-1.45 2.3l-0.55 0.1-0.95-0.5-0.95-1.05q-1.1-1.45-1.05-3.2l-0.05-1.15q-0.15-1.25 0.75-2l0.8-0.1 0.75 0.45 0.75 0.85 0.4 0.9q0.45 1.25 0.05 2.45" fill="none" stroke="#d9bb9d" stroke-linecap="round" stroke-linejoin="round" stroke-opacity=".50196"/>
</g>
<linearGradient id="b" x1="-819.2" x2="819.2" gradientTransform="matrix(.0172 -.0061 .0198 .0559 188.35 123.5)" gradientUnits="userSpaceOnUse">
<stop stop-color="#fef3de" offset="0"/>
<stop stop-color="#cbb3a3" offset="1"/>
</linearGradient>
</defs>
</svg>
