<?xml version="1.0" encoding="UTF-8"?>
<svg version="1.1" viewBox="0 0 178.55 180" xmlns="http://www.w3.org/2000/svg" xmlns:cc="http://creativecommons.org/ns#" xmlns:dc="http://purl.org/dc/elements/1.1/" xmlns:rdf="http://www.w3.org/1999/02/22-rdf-syntax-ns#" xmlns:xlink="http://www.w3.org/1999/xlink">
<metadata>
<rdf:RDF>
<cc:Work rdf:about="">
<dc:format>image/svg+xml</dc:format>
<dc:type rdf:resource="http://purl.org/dc/dcmitype/StillImage"/>
</cc:Work>
</rdf:RDF>
</metadata>
<g transform="translate(-251.85 -17.75)">
<use transform="translate(251.85,17.75)" width="178.55" height="180" xlink:href="#a"/>
</g>
<defs>
<g id="a" transform="translate(-251.85,-17.75)">
<path d="m294.55 120.6 0.05 0.05 0.15 0.4-0.2-0.45" fill="#f9a800" fill-rule="evenodd"/>
<path d="m294.55 120.6v-0.05 0.05" fill="#8a5e00" fill-rule="evenodd"/>
<path d="m294.55 120.55 0.45-0.2 0.15 0.4-0.6-0.2" fill="#81aeb4" fill-rule="evenodd"/>
<path d="m294.55 120.55 0.05 0.1-0.05-0.1 0.6 0.2-0.15 0.2-0.4-0.3-0.05-0.05v-0.05" fill="#596b6f" fill-rule="evenodd"/>
<path d="m294.6 120.65 0.4 0.3-0.25 0.1-0.15-0.4" fill="#daede6" fill-rule="evenodd"/>
<path d="m360.4 34 22 29.1 27.9 40.45 5.65 9.95-12.3 17.1-27.2 28.4 27.2-28.4 25 16.7 1.5 34.4-58.7 15.8 5-38.5-41.1-16.45-40.2-21.8-0.15-0.4 10.65-4.85 58.25 6.35-29.95-31.35 0.5-14.5-0.5 14.5-42.9-4.6 43.4-9.9 9.95-9 16-33m22 29.1-38 3.9 38-3.9m27.9 40.45-46.4 18.3 46.4-18.3" fill="#b3f7f5" fill-rule="evenodd"/>
<path d="m415.95 113.5 12.7 33.8-25-16.7 12.3-17.1m-145.2-11.55 2.2-11.95 18.1-4.1 42.9 4.6 29.95 31.35-58.25-6.35-10.65 4.85-0.45 0.2v0.05l-23.8-18.65m24.25 19 0.15-0.2 40.2 21.8-28.7 10.65-11.9-32.15 0.25-0.1" fill="#9ee1f1" fill-rule="evenodd"/>
<path d="m272.95 90 7-35.5 59.5-36.5 20.95 16-16 33-9.95 9-43.4 9.9-18.1 4.1m98.5 107.5-70.55-9.6-48.8-18.4 17.8-42.05 0.85-25.5 23.8 18.65 0.2 0.45 11.9 32.15 28.7-10.65 41.1 16.45-5 38.5m-119.35-28 40.95-9.45 13.6-6.85-13.6 6.85-40.95 9.45" fill="#cef1f9" fill-rule="evenodd"/>
<path d="m272.95 90 7-35.5 59.5-36.5 20.95 16 22 29.1 27.9 40.45 5.65 9.95 12.7 33.8 1.5 34.4-58.7 15.8-70.55-9.6-48.8-18.4 17.8-42.05 0.85-25.5 2.2-11.95 18.1-4.1 43.4-9.9 9.95-9 16-33m-25.95 42-0.5 14.5 29.95 31.35 46.4-18.3m-65.9-36.55 38-3.9m-5.95 95.9-5 38.5m5-38.5 27.2-28.4 12.3-17.1m-80.6 29.05 41.1 16.45m52.2-11.7-25-16.7m-109.1-10-23.8-18.65m23.8 18.6 0.45-0.2 10.65-4.85 58.25 6.35m-69.3-1.2-0.05-0.1m0 0.05 0.05 0.05 0.4 0.3 0.15-0.2-0.6-0.2m0.2 0.5 11.9 32.15 28.7-10.65-40.2-21.8m-0.4 0.3-0.15-0.4m12.05 32.55-13.6 6.85-40.95 9.45m81.85-79-42.9-4.6" fill="none" stroke="#3c4648" stroke-linecap="round" stroke-linejoin="round" stroke-width=".5"/>
<path d="m353.9 34.85-40 9.9 23.75-20.75 16.25 10.85m-15.25 31.1-37.35 10.7-17.9-7.3-0.9-12.85 8.55-4.15 5.95-4.35 43.55 5.65-1.9 12.3m21.55 22.6q27.2 2.05 6.5 16.7l-26.15-15.25 19.65-1.45m16.7-2.65-13-11.5 16.4-4.15 5.25 13.25-8.65 2.4m22.6 10.9-8.35 13.55-15.7-3 14.05-12.45 10 1.9m17.55 84.9-27.75 7.6q26.65-13.05 36.85-36.1l-9.1 28.5m-136.3-107.45 12.7 5.65-14.15 3.65 1.45-9.3m-10 56.75 0.65-1.9 5.45-8.05 20.9 14.15-18.5 6.5-7.9-3.5-0.6-7.2m16.1 49.1-9.7-12.85 26.9-7.05 5.1 23.35-22.3-3.45m-18.65-19.1 1.4-21.7q9.15 14.25 34.3 13.45l-35.7 8.25" fill="#44c6e6" fill-rule="evenodd"/>
</g>
</defs>
</svg>
