<?xml version="1.0" encoding="UTF-8"?>
<svg version="1.1" viewBox="0 0 38.4 89.45" xmlns="http://www.w3.org/2000/svg" xmlns:cc="http://creativecommons.org/ns#" xmlns:dc="http://purl.org/dc/elements/1.1/" xmlns:rdf="http://www.w3.org/1999/02/22-rdf-syntax-ns#" xmlns:xlink="http://www.w3.org/1999/xlink">
<metadata>
<rdf:RDF>
<cc:Work rdf:about="">
<dc:format>image/svg+xml</dc:format>
<dc:type rdf:resource="http://purl.org/dc/dcmitype/StillImage"/>
</cc:Work>
</rdf:RDF>
</metadata>
<g transform="translate(-234.3 -127.95)">
<use transform="translate(234.3,127.95)" width="38.400002" height="89.5" xlink:href="#a"/>
</g>
<defs>
<g id="a" transform="translate(-234.3,-127.95)">
<path d="m240.9 192.55-0.9 3.65q-0.95 3.9-2.3 7.7l-0.45 1.4-2.45-3.4q1.9-1.45 2.4-2.3l3.7-7.05m-0.5 16.3 2.65-7.3 2.15-6.4 1.9-5.75q0.6-1.65 1.45-3.25l0.55-0.6q0.6 1 0.25 2.35l-0.9 4.1-1.4 7-1.95 8.8-1 4.25-3.15-2.65-0.55-0.55m7.1 5.3q2.3-5.5 4-11.15l2-7.7 1.8-8.15 0.75-4.35 0.7-3.9 0.8-3.7 0.85-3.3 1.5-4.9 1-2.7 0.55-1.25 0.25 0.6 0.15 2.05q0.1 4.55-0.4 9.1l-0.65 6.15-1.2 11.1-0.45 3.95-0.6 3.7-0.65 3.7-1.2 6.8-1.1 5.55-0.2 0.95-0.75-0.15q-3.8-0.65-7.15-2.4m10.2 2.75 1.75-7 1.05-5.15 0.75-5.2 1.4-10.15q0.8-5.8 0.75-11.65l0.05-1.85 0.95-2.85h0.05l0.2 3.9v8.6l-0.1 5.4-0.4 5.75-0.5 6.2-0.65 6-1 5.65-0.5 2.25-3.8 0.1m7.55-0.75 0.05-1.25 0.5-5.35 0.75-5.95 0.75-5.35 0.45-3.3q0.15-0.9 0.9-1.45 0.65 2 0.4 4.15-0.35 3.05-0.3 6.15l-0.05 5.55-0.1 5.6-0.15 0.05-3.2 1.15m-7.55-30.9v-0.3h-0.2l0.2 0.3" fill="#d6cbc2" fill-rule="evenodd"/>
<path d="m237.25 205.3 0.45-1.4q1.35-3.8 2.3-7.7l0.9-3.65q8.1-17.2 8.45-36.05l-0.05-5.95q-0.3-5.75-1.05-10.7l-0.2-1.35q-1-5.55-2.65-10.05 5.2 4.5 7.8 8.15l4.25 6.05 1.1 1.55 3.65 5.85 1.15 2.15 3.5 7.3q1.15 2.8 1.9 5.75l1.4 6.35 1.05 6.8 0.7 6.7 0.3 6.4-0.35 11.55-0.75 10.65-2.5 1.25 0.1-5.6 0.05-5.55q-0.05-3.1 0.3-6.15 0.25-2.15-0.4-4.15-0.75 0.55-0.9 1.45l-0.45 3.3-0.75 5.35-0.75 5.95-0.5 5.35-0.05 1.25-2.8 0.55-0.95 0.1 0.5-2.25 1-5.65 0.65-6 0.5-6.2 0.4-5.75 0.1-5.4v-8.6l-0.2-3.9h-0.05l-0.95 2.85-0.05 1.85q0.05 5.85-0.75 11.65l-1.4 10.15-0.75 5.2-1.05 5.15-1.75 7-2.3-0.2 0.2-0.95 1.1-5.55 1.2-6.8 0.65-3.7 0.6-3.7 0.45-3.95 1.2-11.1 0.65-6.15q0.5-4.55 0.4-9.1l-0.15-2.05-0.25-0.6-0.55 1.25-1 2.7-1.5 4.9-0.85 3.3-0.8 3.7-0.7 3.9-0.75 4.35-1.8 8.15-2 7.7q-1.7 5.65-4 11.15l-0.55-0.3-2.85-1.8 1-4.25 1.95-8.8 1.4-7 0.9-4.1q0.35-1.35-0.25-2.35l-0.55 0.6q-0.85 1.6-1.45 3.25l-1.9 5.75-2.15 6.4-2.65 7.3-3.15-3.55" fill="url(#c)" fill-rule="evenodd"/>
<path d="m257.7 185.25-0.2-0.3h0.2v0.3" fill="url(#b)" fill-rule="evenodd"/>
<path d="m240.9 192.55-3.7 7.05q-0.5 0.85-2.4 2.3l2.45 3.4 3.15 3.55m3.7 3.2 2.85 1.8 0.55 0.3m7.9 2.55 2.3 0.2m3.8-0.1 0.95-0.1 2.8-0.55m3.35-1.2 2.5-1.25 0.75-10.65 0.35-11.55-0.3-6.4-0.7-6.7-1.05-6.8-1.4-6.35q-0.75-2.95-1.9-5.75l-3.5-7.3-1.15-2.15-3.65-5.85-1.1-1.55-4.25-6.05q-2.6-3.65-7.8-8.15 1.65 4.5 2.65 10.05l0.2 1.35q0.75 4.95 1.05 10.7l0.05 5.95q-0.35 18.85-8.45 36.05m27.7 22.4-0.15 0.05-3.2 1.15m-9.85 0.55-0.75-0.15q-3.8-0.65-7.15-2.4m14 2.65-3.8 0.1m-13.6-4.85-3.15-2.65-0.55-0.55" fill="none" stroke="#000" stroke-linecap="round" stroke-linejoin="round" stroke-opacity=".28235"/>
</g>
<linearGradient id="c" x1="-819.2" x2="819.2" gradientTransform="matrix(-.0214 .0687 -.0515 -.0161 257.5 170.4)" gradientUnits="userSpaceOnUse">
<stop stop-color="#9c0" offset="0"/>
<stop stop-color="#fdf2de" offset=".35294"/>
<stop stop-color="#fcf1dd" offset=".4902"/>
<stop stop-color="#c7c0c0" offset="1"/>
</linearGradient>
<linearGradient id="b" x1="-819.2" x2="819.2" gradientTransform="matrix(-.0157 .0504 -.0515 -.0161 239.5 215.85)" gradientUnits="userSpaceOnUse">
<stop stop-color="#ece2ce" offset="0"/>
<stop stop-color="#afa5a5" offset="1"/>
</linearGradient>
</defs>
</svg>
