<?xml version="1.0" encoding="UTF-8"?>
<svg version="1.1" viewBox="0 0 74.25 65.65" xmlns="http://www.w3.org/2000/svg" xmlns:cc="http://creativecommons.org/ns#" xmlns:dc="http://purl.org/dc/elements/1.1/" xmlns:rdf="http://www.w3.org/1999/02/22-rdf-syntax-ns#" xmlns:xlink="http://www.w3.org/1999/xlink">
<metadata>
<rdf:RDF>
<cc:Work rdf:about="">
<dc:format>image/svg+xml</dc:format>
<dc:type rdf:resource="http://purl.org/dc/dcmitype/StillImage"/>
</cc:Work>
</rdf:RDF>
</metadata>
<g transform="translate(-221.75,-151.45)">
<use transform="translate(221.75,151.45)" width="74.25" height="65.650002" xlink:href="#a"/>
</g>
<defs>
<g id="a" transform="translate(-221.75,-151.45)">
<path d="m292.4 174.3 0.2-1.25q0-1.4-0.95-2.4-0.6-0.6-1.4-0.8l-0.3-0.05-0.7-0.1-0.95 0.15q-0.8 0.2-1.4 0.8-1 1-1 2.4t1 2.35q0.95 1 2.35 1 0.95 0 1.7-0.45l0.7-0.55 0.75-1.1" fill="#dace65" fill-rule="evenodd"/>
<path d="m292.4 174.3 0.2-1.25q0-1.4-0.95-2.4-0.6-0.6-1.4-0.8l-0.3-0.05-0.7-0.1-0.95 0.15q-0.8 0.2-1.4 0.8-1 1-1 2.4t1 2.35q0.95 1 2.35 1 0.95 0 1.7-0.45l0.7-0.55z" fill="none" stroke="#000" stroke-linecap="round" stroke-linejoin="round" stroke-opacity=".30196" stroke-width=".8"/>
<path d="m263.25 201.2v0.05h0.05l-0.05-0.05" fill="#d7b7df" fill-rule="evenodd"/>
<path d="m237.05 172.95-1.15 0.4 0.15 0.35 1.2-0.2-0.2-0.55" fill="#ab7dc4" fill-rule="evenodd"/>
<path d="m242.55 176.6v0.1l0.05 0.05-0.05-0.15m-5.75 0.05h0.15v-0.1l-0.15 0.1m38.55-16.15-0.05 0.15 0.05-0.05v-0.1" fill="#804f93" fill-rule="evenodd"/>
<path d="m239.15 178.1 2.45-0.1 1.85 0.3 0.25-0.95-0.1-0.05-1-0.55-0.05-0.05v-0.1l0.15-0.6q-3.5-0.45-5.75 0.55v0.1l-0.05 0.25 0.2 0.8 1.95-0.15 0.1 0.55m32.7-16.3q8.95-0.8 13.8 4.05 1.85 1.85 2.85 4.25l0.7-0.45-1.95-3.35-0.4-1.95q-2.3-2.65-4.95-3.8-6.1-2.85-11-1.7l0.05 0.35 4.45 0.7-0.05 0.6v0.1l-0.05 0.05-3.55 0.75 0.1 0.4" fill="#42aed7" fill-rule="evenodd"/>
<path d="m247.45 174.2q-2.7-1.75-5.85-1.7h-0.3l-4.25 0.45 0.2 0.55-1.2 0.2 0.15 0.7 0.05 0.1 2.1 0.15 0.3 0.9-1.6 0.5-0.1 0.5q2.25-1 5.75-0.55l0.1-0.35v-0.05l2.5 0.4 0.15-0.3-0.1-0.05-1.2-1v-0.1l0.25-0.6 2.75 0.85 0.3-0.6m41.8 36.95q-8.1-1.05-14.55-4.35l-0.95-0.5-0.45 0.3 1.1 0.7-0.35 0.55 5.15 2.05-0.15 0.55 9.95 1.8v-0.05l0.25-1.05m-17.95-6.35-1.35-0.95q-7.2-5.25-10.65-13.1l-1.4 0.3 2.2 4.2-1.1 0.6 4.25 5.35 0.05 0.05 0.9-0.65 6.35 4.9 0.75-0.7m19.4-40.1q-1.35-2.4-3.3-4.85-5.1-5.25-10.5-6.1l-0.15 0.65-4.65 0.4v0.05l-0.1 0.6 2.25 0.35-0.3 0.6 1.4 0.25-0.1 0.6-4.45 0.8 0.1 0.8q4.9-1.15 11 1.7 2.65 1.15 4.95 3.8l0.6-0.3 4.1 4.85-0.8-2.6-0.05-1.6m-20.4 41.4-0.95 0.7 2.2 1.05 0.55-0.8-1.8-0.95" fill="#a4ddee" fill-rule="evenodd"/>
<path d="m248.3 169.7 0.9-0.45q-1.55-13.8-7.7-16.35l-0.35-0.2q-1.85-0.25-1.75 3.4l5 1.1 3.05 6 0.85 6.5m28.6-15.95q-2.35-0.4-4.8 0.05-5.3 1.05-10.85 6.25l-0.2 0.2q-10.8 11.75-8.15 20.2-2.4-4.3-5.45-6.25l-0.3 0.6-2.75-0.85-0.25 0.6v0.1l1.2 1 0.1 0.05-0.15 0.3-2.5-0.4v0.05l-0.1 0.35 2.45 0.4 0.15 0.05 0.35 0.1 0.5 0.25q4.25 1.85 6.3 6.5l0.25 0.3q4 7.4 1.65 12.6l-1.65-0.85q-2.75 5.9-7 9.5l-1.55 1.15q0.2-2.75-4.35-3.85l-7.9 1.2q9.2 1.7 12.25 4.35l0.25 0.1q3.65 2.45-2.4 8.5l1.65 0.4q3.6-3.85 7.65-5.85 6.95-6.55 19.8-2.35 3.95 1.25 8.5 3.6l15.6 1.8 0.4-2.25-6.3-0.5h-0.05l-0.25 1.05v0.05l-9.95-1.8 0.15-0.55-5.15-2.05 0.35-0.55-1.1-0.7 0.45-0.3-2.45-1.5-0.75 0.7-6.35-4.9-0.9 0.65h-0.05v-0.05l-4.25-5.35 1.1-0.6-2.2-4.2 1.4-0.3q-1.4-3.3-2.2-7.05-0.5-2.3-0.15-4.75l-0.75-3.1 0.2-0.5q2.5-8.05 7.85-12.45l0.3-0.35q2.9-2.9 6.35-3.7l-0.1-0.8 4.45-0.8 0.1-0.6-1.4-0.25 0.3-0.6-2.25-0.35 0.1-0.6v-0.05l4.65-0.4 0.15-0.65m-41 19.6q-1 0.35-1.9 0.9-3 4-3.3 6.9-0.3 7.15 2.45 9.6l6.1 4.05 1.45 0.1q8.6-0.4 5.85-7.7-2.3-4.35-7.7-4.05l0.05 1.5 4.4 0.7 1.7 3.65-2.75 2.75-1.8-0.75q-1.5 0.3-3.35-0.7-2.85-1.65-3.1-4.4v-0.85q-1.6-4.8 1.25-7.3l0.3-0.3 0.2-0.15 1.05-0.65 0.15-0.1 0.1-0.5 1.6-0.5-0.3-0.9-2.1-0.15-0.05-0.1-0.15-0.7-0.15-0.35m51.4 12.05q-2.15 2.8-6.45 2.5-6.5-0.85-7.75-5-1.1-3.95 1.55-3.2l1.45-0.95 1.6 2.35 1.5-0.1q0.2-3.35-1.65-4.2-1.55-0.85-3.05-0.8l-3.65 2.7q-1.65 4.5 1.75 8.75l0.3 0.45 0.2 0.05 7.25 3.7 2.65-0.25q7.6-1.4 10.5-9.5 1.85-7-1.3-14.25l-1.5-2.95 0.05 1.6 0.8 2.6-4.1-4.85-0.6 0.3q1.95 2.25 3.55 5.6l0.3 0.6q2.6 6.05-0.8 14.2l-2.6 0.65m-29.45 11.9 0.6-0.15 1.1 2.55-1.1 0.3-0.6-2.7m12.45 8.8 1.8 0.95-0.55 0.8-2.2-1.05 0.95-0.7" fill="#7bc1dc" fill-rule="evenodd"/>
<path d="m248.3 169.7-0.85-6.5-3.05-6-5-1.1q0.05 2 0.75 5.3 5.8-1.7 7.5 8.65l0.65-0.35m-14.3 4.55-1.55 1.2q-3.35 3.2-3.25 8.9 0.1 9.3 10.05 10.45l-6.1-4.05q-2.75-2.45-2.45-9.6 0.3-2.9 3.3-6.9m4.9 10.4 0.05 1 0.15 0.35q2.8 0.15 3.65 1.85 0.6 1.25-0.15 2-1 0.95-2.15 1.15l1.8 0.75 2.75-2.75-1.7-3.65-4.4-0.7m-4.9 0.4q0.15-6.1 5.15-6.95l-0.1-0.55-1.95 0.15-0.2-0.8 0.05-0.25h-0.15l-1.05 0.65-0.2 0.15-0.3 0.3q-2.85 2.5-1.25 7.3m9.45-6.75q6.7 1.5 7.75 11 1.15 8.25-10.4 12.6l-1 0.25q4.55 1.1 4.35 3.85l1.55-1.15q4.25-3.6 7-9.5l1.65 0.85q2.35-5.2-1.65-12.6l-0.25-0.3q-2.05-4.65-6.3-6.5l-0.5-0.25-0.35-0.1-0.15-0.05-2.45-0.4-0.15 0.6 0.05 0.15 1 0.55 0.1 0.05-0.25 0.95m-11.55 25.05h-1l-0.6 0.05h-0.1l0.05 1.25h0.05q16.95 1.8 11.35 11.45l0.2 0.15 0.15 0.05q6.05-6.05 2.4-8.5l-0.25-0.1q-3.05-2.65-12.25-4.35m19.4 7.5q11.5-5.65 27.15 3.05l16.65 0.55 0.1-0.55-15.6-1.8q-4.55-2.35-8.5-3.6-12.85-4.2-19.8 2.35m5.65-31.9q0.55-4.25 3.5-8.75 4.6-7 10.9-8.35l0.4-0.05h0.1l-0.1-0.4 3.55-0.75 0.05-0.15 0.05-0.6-4.45-0.7-0.05-0.35q-3.45 0.8-6.35 3.7l-0.3 0.35q-5.35 4.4-7.85 12.45l-0.2 0.5 0.75 3.1m31.55-8.85v0.05q1.6 3.95 0.9 9.45-0.5 3.7-2.1 5.8l2.6-0.65q3.4-8.15 0.8-14.2l-0.3-0.6q-1.6-3.35-3.55-5.6l0.4 1.95 1.95 3.35-0.7 0.45m-13.85 9.6 0.85 0.3q1.6 1.5 0.1 2.8 2.55 1.3 3.5-0.85l0.1-0.95-1.5 0.1-1.6-2.35-1.45 0.95m-0.15-3.7q-1.7 0-3.35 1.15-4.3 4.25-2.4 8.25 3.6 6.45 11.6 6.25l-7.25-3.7-0.2-0.05-0.3-0.45q-3.4-4.25-1.75-8.75l3.65-2.7m-16.65 21.3 0.6 2.7 1.1-0.3-1.1-2.55-0.6 0.15" fill="#5ba4b0" fill-rule="evenodd"/>
<path d="m231.9 203.35h-1l-0.6 0.05h-0.1l0.05 1.25h0.05q16.95 1.8 11.35 11.45l0.2 0.15 0.15 0.05" fill="none" stroke="#000" stroke-linecap="round" stroke-linejoin="round" stroke-opacity=".30196" stroke-width=".8"/>
<path d="m239.4 156.1q-0.1-3.65 1.75-3.4l0.35 0.2q6.15 2.55 7.7 16.35l-0.9 0.45m-8.9-13.6q0.05 2 0.75 5.3 5.8-1.7 7.5 8.65l0.65-0.35m28.6-15.95q-2.35-0.4-4.8 0.05-5.3 1.05-10.85 6.25l-0.2 0.2q-10.8 11.75-8.15 20.2-2.4-4.3-5.45-6.25-2.7-1.75-5.85-1.7h-0.3l-4.25 0.45-1.15 0.4q-1 0.35-1.9 0.9l-1.55 1.2q-3.35 3.2-3.25 8.9 0.1 9.3 10.05 10.45l1.45 0.1q8.6-0.4 5.85-7.7-2.3-4.35-7.7-4.05l0.05 1.5 0.05 1 0.15 0.35q2.8 0.15 3.65 1.85 0.6 1.25-0.15 2-1 0.95-2.15 1.15-1.5 0.3-3.35-0.7-2.85-1.65-3.1-4.4v-0.85q0.15-6.1 5.15-6.95l2.45-0.1 1.85 0.3q6.7 1.5 7.75 11 1.15 8.25-10.4 12.6l-1 0.25-7.9 1.2m10.1 12.95 1.65 0.4q3.6-3.85 7.65-5.85 11.5-5.65 27.15 3.05l16.65 0.55 0.1-0.55 0.4-2.25-6.3-0.5h-0.05q-8.1-1.05-14.55-4.35l-0.95-0.5-2.45-1.5-1.35-0.95q-7.2-5.25-10.65-13.1-1.4-3.3-2.2-7.05-0.5-2.3-0.15-4.75 0.55-4.25 3.5-8.75 4.6-7 10.9-8.35l0.4-0.05h0.1q8.95-0.8 13.8 4.05 1.85 1.85 2.85 4.25v0.05q1.6 3.95 0.9 9.45-0.5 3.7-2.1 5.8-2.15 2.8-6.45 2.5-6.5-0.85-7.75-5-1.1-3.95 1.55-3.2l0.85 0.3q1.6 1.5 0.1 2.8 2.55 1.3 3.5-0.85l0.1-0.95q0.2-3.35-1.65-4.2-1.55-0.85-3.05-0.8-1.7 0-3.35 1.15-4.3 4.25-2.4 8.25 3.6 6.45 11.6 6.25l2.65-0.25q7.6-1.4 10.5-9.5 1.85-7-1.3-14.25l-1.5-2.95q-1.35-2.4-3.3-4.85-5.1-5.25-10.5-6.1" fill="none" stroke="#000" stroke-linecap="round" stroke-linejoin="round" stroke-opacity=".30196" stroke-width=".8"/>
<path d="m226.75 193.7-1.55 0.1-0.2 0.1-1 0.85-0.5 2.2 1.55 2.1 2.25-0.5 1.25-1.15 0.1-0.75q0-1.35-0.95-2.3l-0.55-0.45-0.4-0.2m54.25-36.3 0.15-0.95q0-1.75-1.7-3.15-1.65-1.4-3.9-1.45h-0.2l0.05 0.05-2.6 1-1.2 1.05 0.05 2.15 2.1 1.75 5.35 0.4 1.8-0.65 0.1-0.2m-24.25 45.5q0.5-1 0.45-2.05-0.05-1.75-1.3-3.75l-1.25-1.45-0.1-0.1q-0.7-0.45-1.5-0.4-0.8 0-1.5 0.45l-0.1 0.65-1.45 2.35 0.5 3.5 1.9 2.35 2.25-0.1 2.1-1.45" fill="#eee8b7" fill-rule="evenodd"/>
<path d="m228.55 197.4-1.25 1.15-2.25 0.5-1.55-2.1 0.5-2.2 1-0.85 0.2-0.1 1.55-0.1-1.35-0.3q-1.35 0-2.3 0.95t-0.95 2.3 0.95 2.3 2.3 0.95 2.3-0.95l0.85-1.55m46.8-45.55q-2.3 0-3.95 1.45-1.65 1.4-1.65 3.15 0 1.7 1.65 2.2l3.95 0.55 4.1-0.5q1.05-0.35 1.45-1.1l-1.8 0.65-5.35-0.4-2.1-1.75-0.05-2.15 1.2-1.05 2.6-1-0.05-0.05m-23.8 43.75-1.25 1.2q-1.2 1.6-1.55 3.7-0.3 2.05 1 3.6t3.1 1.55 3.1-1.5l0.8-1.25-2.1 1.45-2.25 0.1-1.9-2.35-0.5-3.5 1.45-2.35 0.1-0.65" fill="#dace65" fill-rule="evenodd"/>
<path d="m227.15 193.9 0.55 0.45q0.95 0.95 0.95 2.3l-0.1 0.75m52.45-40 0.15-0.95q0-1.75-1.7-3.15-1.65-1.4-3.9-1.45h-0.2m-18.6 51.05q0.5-1 0.45-2.05-0.05-1.75-1.3-3.75l-1.25-1.45m-0.1-0.1q-0.7-0.45-1.5-0.4-0.8 0-1.5 0.45" fill="none" stroke="#8d7c21" stroke-linecap="round" stroke-linejoin="round" stroke-width=".05"/>
<path d="m228.55 197.4-0.85 1.55q-0.95 0.95-2.3 0.95t-2.3-0.95-0.95-2.3 0.95-2.3 2.3-0.95l1.35 0.3m48.6-41.85q-2.3 0-3.95 1.45-1.65 1.4-1.65 3.15 0 1.7 1.65 2.2l3.95 0.55 4.1-0.5q1.05-0.35 1.45-1.1m-29.35 38-1.25 1.2q-1.2 1.6-1.55 3.7-0.3 2.05 1 3.6t3.1 1.55 3.1-1.5l0.8-1.25" fill="none" stroke="#000" stroke-linecap="round" stroke-linejoin="round" stroke-opacity=".30196" stroke-width=".8"/>
</g>
</defs>
</svg>
