<?xml version="1.0" encoding="UTF-8"?>
<svg version="1.1" viewBox="0 0 103.36 73.4" xmlns="http://www.w3.org/2000/svg" xmlns:cc="http://creativecommons.org/ns#" xmlns:dc="http://purl.org/dc/elements/1.1/" xmlns:rdf="http://www.w3.org/1999/02/22-rdf-syntax-ns#" xmlns:xlink="http://www.w3.org/1999/xlink">
<metadata>
<rdf:RDF>
<cc:Work rdf:about="">
<dc:format>image/svg+xml</dc:format>
<dc:type rdf:resource="http://purl.org/dc/dcmitype/StillImage"/>
</cc:Work>
</rdf:RDF>
</metadata>
<g transform="translate(-223.77 -163.25)">
<use transform="matrix(1 0 0 .9362 223.8 163.27)" width="53.599998" height="78.349998" xlink:href="#a"/>
<use transform="matrix(-1 0 0 .9362 327.1 163.27)" width="53.599998" height="78.349998" xlink:href="#a"/>
<use transform="translate(244.95,164.1)" width="60.099998" height="69.699997" xlink:href="#b"/>
</g>
<defs>
<g id="a" transform="translate(19.3 .35)">
<path d="m32.5 10.75h-11q-7-0.5-11.25-2.75 4.25 2.25 11.25 2.75h11v17.1q-6.25-0.4-13.25-0.1l-4.85 0.25-3.45 0.7q-1.5 0.45-2.85 1.2l-1.25 0.75-0.2 0.1-0.05 0.1q-1.4 2.7-2.35 5.3l-1.1 3.5q-1.1 4.6-0.85 9.1l-17.7 2.55q-3.8-3.3-3.9-15-0.05-3.15 0.65-5.45 3.2-11.05 22.65-3.1l3.75-11.25q0.95-4.4-3.5-10.75 1.65-2.3 5.7-3.75 3.95-1.4 9.8-2 5.4-0.65 13.6-0.1l-0.85 10.85m1.05 64.85 0.05 2.4-10.85-0.7q-5.8-0.65-10.6-3.95-2.6-1.7-4.65-4l0.85-4.15 0.15 0.25q2.95 4.3 8.4 7.3 6.1 3.25 16.65 2.85m-36.35-30.3 0.2-0.8-0.2 0.8m0.2-0.8q-0.3-6.15 2.75-11.75l-2.2-1.9q-4.5-3.25-8.25-0.75l-0.5 0.75q-3.95 6.45-1.9 15.2 5.4-2.05 10.1-1.55" fill="#fdfdff" fill-opacity=".6" fill-rule="evenodd"/>
<path d="m6.65 30.75 0.2-0.1 1.25-0.75q1.35-0.75 2.85-1.2-0.7 0.5 5.35 2.45 6 1.95 16.3 1.6l0.05 2.8-15.75-0.75-2.15-0.3q-6.8-1.15-8.05-3.65l-0.05-0.1m1.8 17.15-0.05-0.05v-0.25q-0.25-2.05 1.6-2.65h0.15q2.85 0.25 2.25 3.4l-0.65 0.45-0.1 0.05-0.8 0.05q-1.5-0.05-2.4-1m24.6 4.4q1.25 0.15 0 0.8l0.3 12.15q-2.95 0-4.65-2.45-2.35-3.4-1-7.55 1-3 4.05-3l1.3 0.05m0.4 18.1 0.1 5.2q-10.55 0.4-16.65-2.85-5.45-3-8.4-7.3l-0.15-0.25q-2-2.85-3.3-5.75 1.45 2.3 3.65 4.05l1.7 1.15q3.2 2 6.85 3l4.15 1.05 6.7 1.3 5.35 0.4" fill="#cc210d" fill-rule="evenodd"/>
<path d="m2.3 48.75q-0.25-4.5 0.85-9.1l1.1-3.5q0.95-2.6 2.35-5.3l0.05-0.1 0.05 0.1q1.25 2.5 8.05 3.65l2.15 0.3 15.75 0.75 0.4 16.75-1.3-0.05q-3.05 0-4.05 3-1.35 4.15 1 7.55 1.7 2.45 4.65 2.45l0.05 2.6 0.75 1.6q0.45 0.75-0.7 0.95l-5.35-0.4-6.7-1.3-4.15-1.05q-3.65-1-6.85-3l-1.7-1.15q-2.2-1.75-3.65-4.05l-0.05-0.05q-2-4.35-2.55-8.7l-0.05-0.55-0.1-1.4m8.65-20.05 3.45-0.7 4.85-0.25q7-0.3 13.25 0.1l0.1 4.9q-10.3 0.35-16.3-1.6-6.05-1.95-5.35-2.45m-2.5 19.2q0.9 0.95 2.4 1l0.8-0.05 0.1-0.05 0.65-0.45q0.6-3.15-2.25-3.4h-0.15q-1.85 0.6-1.6 2.65v0.25l0.05 0.05" fill="#ff1d11" fill-rule="evenodd"/>
<path d="m-15.4 51.3 17.7-2.55 0.1 1.4 0.05 0.55q0.55 4.35 2.55 8.7l0.05 0.05q1.3 2.9 3.3 5.75l-0.85 4.15q-1.8-2-3.15-4.4-2.4-4.35-3.95-9.45-1.6-5.1-10.55-3.1-1.85 0.4-3.25 0l-2-1.1" fill="#d5dcfd" fill-rule="evenodd"/>
<path d="m10.25 8q4.25 2.25 11.25 2.75h11" fill="none" stroke="#d5dcfd" stroke-linecap="round" stroke-linejoin="round"/>
<path d="m33.35-0.1q-8.2-0.55-13.6 0.1-5.85 0.6-9.8 2-4.05 1.45-5.7 3.75 4.45 6.35 3.5 10.75l-3.75 11.25q-19.45-7.95-22.65 3.1-0.7 2.3-0.65 5.45 0.1 11.7 3.9 15m49 26.7-10.85-0.7q-5.8-0.65-10.6-3.95-2.6-1.7-4.65-4-1.8-2-3.15-4.4-2.4-4.35-3.95-9.45-1.6-5.1-10.55-3.1-1.85 0.4-3.25 0l-2-1.1m12.8-6.8-0.2 0.8m0.2-0.8q-4.7-0.5-10.1 1.55-2.05-8.75 1.9-15.2l0.5-0.75q3.75-2.5 8.25 0.75l2.2 1.9q-3.05 5.6-2.75 11.75" fill="none" stroke="#d5dcfd" stroke-linecap="round" stroke-linejoin="round" stroke-width=".05"/>
</g>
<g id="b" transform="translate(-244.95,-164.1)">
<path d="m278.45 164.2q7.55-0.45 14.8 1.3 6.7 2.5 5.15 4.4-1.6 1.85-2.55 1.55-7.65 2.35-15.9 1.8-6.85-0.05-13.8 0.25l-9.35-0.35q-1.3-0.35-1.5-1.55l6.25-0.25 11.6 0.9q8.5 0.2 15.75-2.1t-0.85-3.35l-11.45-0.65q0.3-1.65 1.85-1.95m17.4 12.7h0.7l1.7 6.1q-1.45-0.8-3.6-1-3.65 1.05-4.3 4.65-0.4 1.95 0 3.5l-10.25-0.5-0.4-0.3q-1.9-3.85-1.55-8.35l0.55-0.35 6.4-0.35q5.6-1.2 10.75-3.4m5.7 13.7 0.95 1.75-1.55 0.3-0.25-0.05q0.65-0.9 0.85-2" fill="#d5dcfd" fill-rule="evenodd"/>
<path d="m256.75 194.25q-2.9 4.8-4.4 11.1t-4.25 5.05q-2.8-1.25-3.1-6.1-0.35-4.85 1.95-10.25t5.6-9.35q3.3-3.9 6.05-2.65 2.8 1.2 1.95 4.35-0.9 3.1-3.8 7.85m21.95-13.6-5.45-0.35-13.95-1.8q-3.35-0.8-1.75-3.5 0.9-1.45 14.95-0.4t21.9-0.85l1.95-0.5q0.5 1.05 0.3 2.65l-0.8 1q-5.15 2.2-10.75 3.4l-6.4 0.35m19.55 2.35q3.25 1.6 3.45 5.8l-0.15 1.8q-0.2 1.1-0.85 2l-1.35 1.35q-1.5 1.15-3.4 0.7h-0.2q-4.55-1.2-5.4-4.5-0.4-1.55 0-3.5 0.65-3.6 4.3-4.65 2.15 0.2 3.6 1" fill="#fff" fill-opacity=".70196" fill-rule="evenodd"/>
<path d="m300.95 192.65q1.85 2.45 3.2 7.25 1.35 4.95 0.65 10.15-0.75 5.2-3.65 10.95t-8.65 9.1q-3.15 1.85-5.35 2.1-1.85 1.4-4.45 1.45l-1.45 0.15-5.5-0.4q-3-1.05-1.45-2.4l0.45-0.35-1.85 0.35-6.4-0.3q-1.2-0.25-0.8-1.35 0.3-0.7 1.1-0.6 4.75 0.25 9.25-1l1.05-0.3-1.2-0.95q-1.95-2-0.7-4.5 0.9-1.8 2.75-2.5l0.8-0.1 1.15-2q3-6.55 1.15-13.55-1-3.7-3.65-6.65-0.45 0-0.55-0.4-0.4-1.4 1.1-1.65l3.8 0.6q0.3-0.35 0.8-0.4l2.9 1 10.35-1.65 0.15-0.05q1.9 0.45 3.4-0.7l1.35-1.35 0.25 0.05m-3.4 3.1-0.65 0.15q-0.5 0.2-0.7 0.7-0.85 2.25 2 2.3l0.65-0.3q1.75-2.3-1.3-2.85m3.2 8.3 0.95 0.1q2-1.2-0.25-2.1-1.9 0.5-0.7 2m-9.75-1.5q1.75 4.95 1.05 10.2-0.9 6.7-4.9 12.2l2.3-2.45q4.4-5.8 4.9-12.75 0.25-3-1.35-5.6l-1.1-2.05-2.2-2.15q0.8 1.15 1.3 2.6m-5.2-1.7q-2.05-2.2-4.8-3.05 1.5 1.6 2.15 3.9 2.1 6.85 0.2 13.7-0.5 1.8-1.4 3.4l1.85 0.05q2.05-1.65 3.1-4.05l1.7-5.25q0.1-2.7-0.75-5.35-0.6-1.85-2.05-3.35m-20.9 10.55q-1.1 0.65-1.9-0.35-2.35-3.1 1.45-4.2 4.5 1.95 0.45 4.55m-1.7 0.7q5 1.55 2.5 6.3-0.85 1.7-2.75 1.85-5.45 0.4-4.7-3.7-0.35-1 0.7-2.05 1.05-1.95 3.55-2.25l0.7-0.15" fill="#cc210d" fill-rule="evenodd"/>
<path d="m297.55 195.75q3.05 0.55 1.3 2.85l-0.65 0.3q-2.85-0.05-2-2.3 0.2-0.5 0.7-0.7l0.65-0.15m3.2 8.3q-1.2-1.5 0.7-2 2.25 0.9 0.25 2.1l-0.95-0.1" fill="#ff1d11" fill-rule="evenodd"/>
</g>
</defs>
</svg>
