<?xml version="1.0" encoding="UTF-8"?>
<svg version="1.1" viewBox="0 0 55.622 58.47" xmlns="http://www.w3.org/2000/svg" xmlns:cc="http://creativecommons.org/ns#" xmlns:dc="http://purl.org/dc/elements/1.1/" xmlns:rdf="http://www.w3.org/1999/02/22-rdf-syntax-ns#" xmlns:xlink="http://www.w3.org/1999/xlink">
<metadata>
<rdf:RDF>
<cc:Work rdf:about="">
<dc:format>image/svg+xml</dc:format>
<dc:type rdf:resource="http://purl.org/dc/dcmitype/StillImage"/>
</cc:Work>
</rdf:RDF>
</metadata>
<g transform="translate(-28.793 -17.329)">
<use transform="translate(28.8,17.35)" width="55.599998" height="58.450001" xlink:href="#a"/>
</g>
<defs>
<g id="a" transform="translate(-28.8,-17.35)">
<path d="m81.95 61.55-7.8 4.95h-6.8l-1.9-6.8 7.1-13.7h11.1q1.4 14.1-2.25 4.8l-6.7 2.55 1.1 3.65-2.15 3.3 8.3 1.25m-21.45 0.55-1.6 0.8-2.3-4.75-6.9 1-0.75 4.6-3.65 1.15 2.9 3.45-2.85 1.45q-7.15 8.75-12.85 3.9l12.95-19.95 8.45-4.8 4.7-2.55v6.85l4.05-5.15-2.15 14m2.8-41.05q7.45 1.3 3.55 10.95l1.1 3.2v5l-7.35-2.35 2.7-16.8m3.55 10.95-2.95-2.6 1.1 5.8 1.85-3.2m6.55 23.75-4.7 3.1 2.4 2.65 2.3-5.75m-22.2 0.6h4.7l-1.6-4.65-3.1 4.65" fill="#b8a976" fill-rule="evenodd"/>
<path d="m32.5 73.7q-6.15-8.4-0.95-15.05l1.5-3.05 5.85-3.95 6.55 2.1-12.95 19.95m1.85-39.5 2.55-8.85q0.35-9.15 9.85-7.35l11.6 3.05h4.95l-1.35 8.4-1.45-1.95-3.2 2.4 1.15 1.65 3.5-2.1-1.35 8.4 2 4.35h-5.95l1.95 4.2-4.7 2.55-6.75-5.05 4.7-3.95h-9.95l-7.55-5.75m33.6 1q10.6-1.45 9.05 6.25h-4.9l8.2 2.3 3.35 2.25h-11.1l-4.6-5.8v-5m-18.65-12.2h-5.3l0.95 3 4.35-3m7 12.85v-3.65h-4.05l-2.95 2.4 7 1.25m-4.05-7.4-2.6-0.8-1.55 1.85 2.55 0.8 1.6-1.85m-4.95 5.9h-5.3l0.95 3 4.35-3m-6-1.05 5.8-3.45h-7.1l1.3 3.45m12.65 10.2-3.1-1 0.9 3.1 2.2-2.1m4.4-22.45v4.95l3.1-2.2-3.1-2.75m-22.45 34.65v4l5.15-4h-5.15" fill="#fbf1dd" fill-rule="evenodd"/>
<path d="m77 41.45 3.3 2.3-8.2-2.3h4.9m-18.65-20.4 3.1 2.75-3.1 2.2v-4.95" fill="#bfa95e" fill-rule="evenodd"/>
<path d="m81.4 50.8q3.2 10.4 0.55 10.75l-6.15-4.55-1.1-3.65 6.7-2.55m-22.5 12.1q0.45 6.85-10.7 5.45l1.5-9.2 6.9-1 2.3 4.75m-0.3-16.5 4.7-2.55-0.65 4.25-4.05 5.15v-6.85" fill="#7a6930" fill-rule="evenodd"/>
<path d="m67.35 66.5q-5.1 2.05-6.85-4.4l2.15-14 3.7-2-3.75-3.9-2-4.35 7.35 2.35 4.6 5.8-7.1 13.7 1.9 6.8m-32.15-20.7q-6.75-3.05-0.85-11.6l7.55 5.75-1.25 5.45 6.5-1.5 6.75 5.05-8.45 4.8-6.55-2.1-0.3-2.35-3.4-3.5m9.7 2.3 1.7 2.75 2.15-3.4-3.85 0.65m24.3-1.05h-2.25l0.6 2.15 1.65-2.15m-5.6 5.15 1.2 4.15 1.15-6-2.35 1.85m-23.4-4.25 1.65 3.25 0.75-4.2-2.4 0.95" fill="#cec48a" fill-rule="evenodd"/>
<path d="m33.05 55.6 2.5-5.05 3.35 1.1-5.85 3.95m23.25-19.75-7-1.25 2.95-2.4h4.05v3.65m-9.15 8.05-5.25-3.95h9.95l-4.7 3.95m11.45 2.5-1.95-4.2h5.95l0.7 1.65-4.7 2.55" fill="#cdbc61" fill-rule="evenodd"/>
<path d="m35.55 50.55-0.35-4.75 3.4 3.5 0.3 2.35-3.35-1.1m11.6-6.65-6.5 1.5 1.25-5.45 5.25 3.95m16.15-0.05-0.7-1.65 3.75 3.9-3.7 2 0.65-4.25" fill="#9c863d" fill-rule="evenodd"/>
<path d="m75.8 57 6.15 4.55-8.3-1.25 2.15-3.3m-8.95-25-1.85 3.2-1.1-5.8 2.95 2.6m2.35 15.05-1.65 2.15-0.6-2.15h2.25m4.2 8.7-2.3 5.75-2.4-2.65 4.7-3.1m-9.8-3.55 2.35-1.85-1.15 6-1.2-4.15m-15.4 16.15-2.9-3.45 3.65-1.15-0.75 4.6m3-12 3.1-4.65 1.6 4.65h-4.7" fill="#40341a" fill-rule="evenodd"/>
<path d="m49.3 23-4.35 3-0.95-3h5.3m12.65 6.45-3.5 2.1-1.15-1.65 3.2-2.4 1.45 1.95m-9.7-1-1.6 1.85-2.55-0.8 1.55-1.85 2.6 0.8m-10.95 4.85-1.3-3.45h7.1l-5.8 3.45m6 1.05-4.35 3-0.95-3h5.3m6.65 9.15-2.2 2.1-0.9-3.1 3.1 1m-18.05 12.2h5.15l-5.15 4v-4" fill="#856c36" fill-rule="evenodd"/>
<path d="m44.9 48.1 3.85-0.65-2.15 3.4-1.7-2.75m-4.7-0.15 2.4-0.95-0.75 4.2-1.65-3.25" fill="#5b4a24" fill-rule="evenodd"/>
<path d="m81.4 50.8q3.2 10.4 0.55 10.75l-7.8 4.95h-6.8q-5.1 2.05-6.85-4.4l-1.6 0.8q0.45 6.85-10.7 5.45l-2.85 1.45q-7.15 8.75-12.85 3.9-6.15-8.4-0.95-15.05l1.5-3.05 2.5-5.05-0.35-4.75q-6.75-3.05-0.85-11.6l2.55-8.85q0.35-9.15 9.85-7.35l11.6 3.05h4.95q7.45 1.3 3.55 10.95l1.1 3.2q10.6-1.45 9.05 6.25l3.3 2.3 3.35 2.25q1.4 14.1-2.25 4.8z" fill="none" stroke="#7c6b32" stroke-linecap="round" stroke-linejoin="round" stroke-width=".75"/>
</g>
</defs>
</svg>
