<?xml version="1.0" encoding="UTF-8"?>
<svg version="1.1" viewBox="0 0 84.231 68.171" xmlns="http://www.w3.org/2000/svg" xmlns:cc="http://creativecommons.org/ns#" xmlns:dc="http://purl.org/dc/elements/1.1/" xmlns:rdf="http://www.w3.org/1999/02/22-rdf-syntax-ns#" xmlns:xlink="http://www.w3.org/1999/xlink">
<metadata>
<rdf:RDF>
<cc:Work rdf:about="">
<dc:format>image/svg+xml</dc:format>
<dc:type rdf:resource="http://purl.org/dc/dcmitype/StillImage"/>
</cc:Work>
</rdf:RDF>
</metadata>
<g transform="translate(-233.34 -165.85)">
<use transform="translate(233.35,165.9)" width="84.199997" height="68.099998" xlink:href="#a"/>
</g>
<defs>
<g id="a" transform="translate(-233.35,-165.9)">
<path d="m234.45 211.9q-1.4-1.5-0.8-1.65 3.6-0.85 9.25-4.7l2.75-1.95q7.9-5.95 14.8-13.55 6.9-7.7 9.7-13.8 2.95-6.6 0.5-10.15l0.15-0.1 5.25 0.8q6.1 1.15 9.85 2.75 5.7 2.45 10.45 6.3 8.45 6.8 13.9 17.85l3.05 6.7q0.8 2.25 1.65 3.75h-0.05q-9.35-14.6-18.75-23.25l-1.05-0.9-1.85-1.55q2.7 2.75 4.7 5.8 6.75 10.25 8.4 24.9l0.45 6.95q0.05 2.9 0.95 6.25l-5.5-17.2q-1.75-5.15-4-9.8 2 6.2 2.85 13.6l0.5 7.05-0.2 1.75q-3.75-12.85-8.4-22.35-2.05-4.1-4.45-7.8 1.8 3.6 2.8 7.2 3.05 12.2-1.4 25.7l-1.95 5.05q-0.9 2.1-1.35 4.3 1.45-13.9 0.1-25.75-0.7-6.35-2.6-12.4h-0.1q2.6 11.8-2.3 24.8l-1.9 4.55q-1.15 2.4-1.75 5 1.7-12.65 1.25-23.4-0.25-5.1-1.25-10 0.2 3.85-0.4 7.3-2.15 11.45-12.45 19.9l-3.7 2.75q-2.95 1.95-4.3 4.15 3.35-6.2 6.9-11.7 2.85-4.45 4.7-9.3-3.05 4.8-7.95 9.1l-3.3 2.55q-2.05 1.45-3.35 3 5.8-8.85 9.45-17.8 1.8-4.45 2.75-9.15-1.25 3.35-3.2 5.95-6.45 8.55-19.25 10.7l-1.1 0.15-4.45 0.45-4.35-0.05q-0.8-0.1 0.35 1.25" fill="url(#b)" fill-rule="evenodd"/>
<path d="m296.35 175.85q9.75 7.05 15.8 19.3l3.65 8.1 1.65 5-1.7-2.8-0.2-0.3-0.6-1q-0.85-1.5-1.65-3.75l-3.05-6.7q-5.45-11.05-13.9-17.85m-0.2 5.05q2.05 2.3 3.7 4.8 6.75 10.25 8.4 24.9 0.8 7.95 0.15 13.8h-0.05l-0.6-2.05q-0.9-3.35-0.95-6.25l-0.45-6.95q-1.65-14.65-8.4-24.9-2-3.05-4.7-5.8l1.85 1.55 1.05 0.9m6.1 24.25 0.75 5.25q0.9 8.15 0.3 14.15v0.05l-0.05-0.15-1.85-6.7 0.2-1.75-0.5-7.05q-0.85-7.4-2.85-13.6 2.25 4.65 4 9.8m-9.25-9.75 0.25 0.85q3.05 12.2-1.4 25.7-2.5 7.3-5.7 11.95l0.5-4.05q0.45-2.2 1.35-4.3l1.95-5.05q4.45-13.5 1.4-25.7-1-3.6-2.8-7.2 2.4 3.7 4.45 7.8m-6.25 8.7q-0.45 6.75-3.1 13.85-2.75 7.15-6.05 11.6l0.5-3.5q0.6-2.6 1.75-5l1.9-4.55q4.9-13 2.3-24.8h0.1q1.9 6.05 2.6 12.4m-7.4-1.45q-2.45 10.65-12.2 18.65-5.45 4.4-10.3 6.25h-0.05l0.45-0.8q1.35-2.2 4.3-4.15l3.7-2.75q10.3-8.45 12.45-19.9 0.6-3.45 0.4-7.3 1 4.9 1.25 10m-15.2 12.4-1.35 1.25q-5.3 4.4-10.05 6.45h-0.05l0.1-0.1h-0.05l1.5-2.25q1.3-1.55 3.35-3l3.3-2.55q4.9-4.3 7.95-9.1-1.85 4.85-4.7 9.3m-0.45-12.45q-6.4 7-17.8 8.95l-3 0.4q-4.7 0.45-8.45-0.05-1.15-1.35-0.35-1.25l4.35 0.05 4.45-0.45 1.1-0.15q12.8-2.15 19.25-10.7 1.95-2.6 3.2-5.95-0.95 4.7-2.75 9.15m39.6 21.95-0.05-0.1 0.05 0.1" fill="#353116" fill-rule="evenodd"/>
<path d="m234.45 211.9q-1.4-1.5-0.8-1.65 3.6-0.85 9.25-4.7l2.75-1.95q7.9-5.95 14.8-13.55 6.9-7.7 9.7-13.8 2.95-6.6 0.5-10.15v-0.05q-0.1-0.1 0.15-0.05l5.25 0.8q6.1 1.15 9.85 2.75 5.7 2.45 10.45 6.3 9.75 7.05 15.8 19.3l3.65 8.1 1.65 5-1.7-2.8-0.2-0.3-0.45-0.7-0.2-0.3q-9.35-14.6-18.75-23.25 2.05 2.3 3.7 4.8 6.75 10.25 8.4 24.9 0.8 7.95 0.15 13.8v0.15-0.05 0.05l-0.05-0.1-0.6-2.1-5.5-17.2 0.75 5.25q0.9 8.15 0.3 14.15v0.05l-0.05-0.15-1.85-6.7q-3.75-12.85-8.4-22.35l0.25 0.85q3.05 12.2-1.4 25.7-2.5 7.3-5.7 11.95l0.5-4.05q1.45-13.9 0.1-25.75-0.45 6.75-3.1 13.85-2.75 7.15-6.05 11.6l0.5-3.5q1.7-12.65 1.25-23.4-2.45 10.65-12.2 18.65-5.45 4.4-10.3 6.25l-0.05 0.05h-0.05l0.05-0.05 0.45-0.8q3.35-6.2 6.9-11.7l-1.35 1.25q-5.3 4.4-10.05 6.45l-0.05 0.05h-0.05l1.6-2.4q5.8-8.85 9.45-17.8-6.4 7-17.8 8.95l-3 0.4q-4.7 0.45-8.45-0.05m32-18.45q-0.95 4.7-2.75 9.15m32.45-21.7-1.05-0.9-1.85-1.55m14.5 43.9 0.6 2.05v0.05l0.05 0.05-0.05-0.1m-24.2-32.7q1.9 6.05 2.6 12.4m6.25-8.7q-2.05-4.1-4.45-7.8m14.75 36.95v0.05m-0.05-0.15 0.05 0.1m-39.15-9.5q2.85-4.45 4.7-9.3m-11.6 21-0.45 0.8v0.05h-0.05m-4.1-4.8 0.05-0.05 0.05-0.1m-0.05 0.15h-0.05m0.05-0.05v0.05m49.55-17.65q-1.75-5.15-4-9.8m-18.9 7.3q-0.25-5.1-1.25-10" fill="none" stroke="#171509" stroke-linecap="round" stroke-linejoin="round" stroke-width=".25"/>
</g>
<linearGradient id="b" x1="-819.2" x2="819.2" gradientTransform="matrix(.0061 .0372 -.9865 .1608 460.75 168.7)" gradientUnits="userSpaceOnUse">
<stop stop-color="#b6ad8d" offset="0"/>
<stop stop-color="#545035" offset=".54902"/>
</linearGradient>
</defs>
</svg>
