<?xml version="1.0" encoding="UTF-8"?>
<svg version="1.1" viewBox="0 0 181.63 265.85" xmlns="http://www.w3.org/2000/svg" xmlns:cc="http://creativecommons.org/ns#" xmlns:dc="http://purl.org/dc/elements/1.1/" xmlns:rdf="http://www.w3.org/1999/02/22-rdf-syntax-ns#" xmlns:xlink="http://www.w3.org/1999/xlink">
<metadata>
<rdf:RDF>
<cc:Work rdf:about="">
<dc:format>image/svg+xml</dc:format>
<dc:type rdf:resource="http://purl.org/dc/dcmitype/StillImage"/>
</cc:Work>
</rdf:RDF>
</metadata>
<g transform="translate(-136.92 6.772)">
<use transform="translate(136.95,-6.75)" width="181.60001" height="265.79999" xlink:href="#a"/>
</g>
<defs>
<g id="a" transform="translate(-136.95,6.75)">
<path d="m210.85 153.1-0.9-19 13.2 7.45q-1.7 57.2 14.9 81.6 5.15 7.6 11.55 11 3.2 1.7 5.35 1.9l29-10-29 33-32-5-33-22 49 12q-3.75-4-8.35-12-9.25-16-13.65-35.95-4.35-19.95-6.1-43" fill="#5b7210" fill-rule="evenodd"/>
<path d="m210.85 153.1q1.75 23.05 6.1 43 4.4 19.95 13.65 35.95 4.6 8 8.35 12l-49-12 33 22 32 5 29-33-29 10q-2.15-0.2-5.35-1.9-6.4-3.4-11.55-11-16.6-24.4-14.9-81.6l-13.2-7.45z" fill="none" stroke="#5a401d" stroke-linecap="round" stroke-linejoin="round" stroke-opacity=".34118" stroke-width=".05"/>
<path d="m229.7 37.95q-10.85-5.25-23.05-4.25l-12.85 1.15q19.5-4 35.25-1.65 4.7 2.9 6.3-0.95l2.55-6.45q2.3-6.05 0.85-12.45-1.5-1.5-3.2-2.4-1.8-1.1-3.8-1.6l-2.7-0.7q3.95-0.2 7.6-1.4 3.65-1.25 6.8-3.55l3.55-8.55 2.65 0.7-1.75 12.3 6.45 4.7q3.75 2.9 6.65 6.65-1.9-1-3.85-1.85-5.75-2.6-11.95-3.05-2.35 4.95-4 10.2-1.55 4.95-1.45 12.3l20.35 14.55-2.65 1.4-10.15-5.6-3.75-2.25-0.95-0.35q-1.9-0.65-4.55-2.6l-4.95-2.45-3.4-1.85m87.15 55.75-1.25 4q-2.35-1.7-4.85-3.25l-4.2-2.5q-3.85 3.75-7.4 7.7l0.8-5.7-0.1-0.75q-2.25-4.95-6.75-8.5-5.95-4.7-13.75-5.6l-0.75-0.5-4.2-0.25 1.8-3.65q9.2 0.3 17.6 4.25l2.85 1.15 0.75 1q1.85 0.55 3.25 1.9l0.45 0.3q0.8 0.3 1.35-0.7l0.4-0.55q0.8-1.95 0.75-4.4v-0.25q2.05 9.75 11.25 14.9 1.1 0.6 2 1.4m-143.35 58.7-0.75-0.2v-0.1l-0.3-2.05q-0.3-9.1-7.3-15.2l0.15 0.1q2 1.2 3.85 1.5l0.65-0.05q1.05 0.1 1.15-0.65l-0.05-0.45q-0.5-1.7-0.2-3.3l-0.45-1 0.25-2.6q0.25-8 3.95-14.85l3.7 0.35-1.55 3.25 0.05 0.75q-2.5 6.15-1.15 12.7 0.95 4.9 4.05 8.9l0.55 0.45 4.95 2.1-9.35 1.75 0.25 4.25 0.6 5.05-3.05-0.7m60.55-68.1-0.3 2.75-0.1 1.7-1.95-0.9q-1.2-2.6-1.8-5.25l4.15 1.7m-57.3-21.75v-0.35l-2-0.4-1.5 1q-3.55 9.75-5.2 19.05-3.5-10.25 1.25-20.75-0.3-0.5-1.05-0.65-15.45-2.35-29.85 0.15 12.25-5.65 25.7-4.7l0.8 0.35q2.8 0.9 5.65 0.4 7.7-11.75 19-13.85l-1.85 1.6q-7.35 5.9-13.2 13.2l-0.75 1.25 4.2 0.75 0.45-0.1-0.1 0.15-1.4 2.55-0.15 0.35m67.4 63.85 0.65 3.45q0.8 5.9-0.3 11.85l-0.3 2.55-0.65 0.85q-0.05 1.65-0.85 3.05l-0.1 0.45q-0.1 0.7 0.85 0.95l0.5 0.15 3.8-0.3 0.2-0.05q-7.5 3.8-9.7 12.4l-0.7 1.95-3.55-0.15 1.6-4.7 1.15-3.9-7.95-4.4 4.85-0.6 0.55-0.25q3.6-2.9 5.5-7.35 2.5-5.85 1.55-12.45l0.25-0.7-0.2-1-0.55-2.45 3.4 0.65" fill="#849e16" fill-rule="evenodd"/>
<path d="m188.75 38.6q-2-8-1.35-16.9 0.95-13.15 12.3-19.7 21.65-12.6 46.4-7.05l0.9 0.2-3.55 8.55q-3.15 2.3-6.8 3.55-3.65 1.2-7.6 1.4l2.7 0.7q2 0.5 3.8 1.6 1.7 0.9 3.2 2.4 1.45 6.4-0.85 12.45l-2.55 6.45q-1.6 3.85-6.3 0.95-15.75-2.35-35.25 1.65l12.85-1.15q12.2-1 23.05 4.25l-1.25 0.6-0.75 0.5-5.2 0.75 3.2 0.75-8.65 0.15q-3.15-0.35-5.95 0.95-2.5 1.15-4.85 2.9-2.4 1.8-4.3 3.9l1 0.85-0.8 0.45q-5.75-6.65-13.4-11.15 7.65 4.5 13.4 11.15-8.25 4.95-18.15 7.95-2.55 0.65-5 1.65l-0.6 0.15-0.45 0.1-4.2-0.75 0.75-1.25q5.85-7.3 13.2-13.2l1.85-1.6q-11.3 2.1-19 13.85-2.85 0.5-5.65-0.4l-0.8-0.35q-13.45-0.95-25.7 4.7 14.4-2.5 29.85-0.15 0.75 0.15 1.05 0.65-4.75 10.5-1.25 20.75 1.65-9.3 5.2-19.05l1.5-1 2 0.4v0.35q-0.25 8.65 3.2 16.5 0.85 1.95 2.05 3.85l2.15 3.15 0.75 0.2q1.25 1.2 2.35 3.15l0.45 1.1 0.05 0.1-1.95-1.7q0.85 1.4 1.35 3.05l0.5 0.5 1.3 4.65q-0.1 1.25-1.15 1.95l-0.9 0.7-2.95 0.45q-1 0.4-1.9 0.95-4.4 2.2-7.1 5.85-3.05-6.1-8.6-10.7 4.15 5.25 6.1 11.7l2.3 3 0.2 1.55-0.5 1q-3.7 6.85-3.95 14.85l-0.25 2.6 0.45 1q-0.3 1.6 0.2 3.3l0.05 0.45q-0.1 0.75-1.15 0.65l-0.65 0.05q-1.85-0.3-3.85-1.5l-0.15-0.1q7 6.1 7.3 15.2l0.3 2.05q-4.75-1.9-8.95-5.1-13.35-10.1-15.4-27.55-0.35-2.55-0.35-5.25-0.3-10.6 8-18.25-1.7-0.85-3.25-1.85-16.05-15.1-15.85-32.5 0-2 0.25-3.9l0.25-1.8q2.25-13.2 14.9-21.65 7.95-5.4 19.55-2.45 9.35 2.4 16.85 6.8m60.9-42.75q22.65 6.25 36.15 26.6 2.05 5.3 1.8 10.95-0.3 6.65-4.45 11.85l-0.25 0.3 5.8-0.15q13.1 0.15 20.05 9.1 13.25 17.05 8.55 37.4l-0.45 1.8q-0.9-0.8-2-1.4-9.2-5.15-11.25-14.9v0.25q0.05 2.45-0.75 4.4l-0.4 0.55q-0.55 1-1.35 0.7l-0.45-0.3q-1.4-1.35-3.25-1.9l-0.75-1-2.85-1.15q-8.4-3.95-17.6-4.25h-0.4q0.25-0.2 0.55-0.3l1.5-3.45-1.95 1.75q-0.7-0.05-1.25 0.25l-1.55 0.05-1.4-3.05q-5.5-5.2-8.4-11.85 1.4 7.55 5.9 13.6-5.35 0.55-10.25 3.4l-2.1-0.45q-5.05-1.5-7.15-6.15l0.5-0.7q1-1.45 2.45-2.55l0.5-1.95-0.25-0.25q-1.95-2.3-4.5-3.55l-0.3-0.4-0.45-2.3q-0.25-1.15-0.8-2.15-2-3.3-0.4-6.95l-2.9-2.5 3.75 2.25 10.15 5.6q-4.75 2.75-9.05 6.45 4.3-3.7 9.05-6.45l2.65-1.4-20.35-14.55q-0.1-7.35 1.45-12.3 1.65-5.25 4-10.2 6.2 0.45 11.95 3.05 1.95 0.85 3.85 1.85-2.9-3.75-6.65-6.65l-6.45-4.7 1.75-12.3m65.95 101.85q-6.1 16.75-24.4 27.75-5.2 1.9-10.85 1.95l-1.7-0.05 0.05 0.5q-1.65 20.25-15.6 31.05-13.2 10.3-30.6 7.8l-5.15-1q-11.5-2.8-16.75-14.85l-1.75-4.5-3.2 3.15q-3.65 2.9-7.75 4.55-13.6 2.45-24.4-1.65l3.05 0.7-0.6-5.05-0.25-4.25 9.35-1.75-4.95-2.1-0.55-0.45q-3.1-4-4.05-8.9-1.35-6.55 1.15-12.7l-0.05-0.75 1.55-3.25 6.7-0.05q-1.15 2.6-1.15 5.3 7.4-0.2 14.45 1.25l7.3 0.7 0.85 0.05 14.55 1.25q10.7 1.55 20.45 5.8l0.2 1-0.25 0.7q0.95 6.6-1.55 12.45-1.9 4.45-5.5 7.35l-0.55 0.25-4.85 0.6 7.95 4.4-1.15 3.9-1.6 4.7 3.55 0.15 0.7-1.95q2.2-8.6 9.7-12.4l-0.2 0.05-3.8 0.3-0.5-0.15q-0.95-0.25-0.85-0.95l0.1-0.45q0.8-1.4 0.85-3.05l0.65-0.85 0.3-2.55q1.1-5.95 0.3-11.85 1.3 0.6 2.15 0.4l0.6-1.4q2.9-5.4 7.65-9.3 1.2-0.95 1.65-2.15l-0.1-0.7q-0.6-8.2-2.05-16.05l-0.45-2.3 1.5-0.85q1.05-0.65 1.35-1.6 2.15-7.1 6.65-12.6l3.5-1.7-4.45 14.3 11.6-17.55 4.2 0.25 0.75 0.5q7.8 0.9 13.75 5.6 4.5 3.55 6.75 8.5l0.1 0.75-0.8 5.7q3.55-3.95 7.4-7.7l4.2 2.5q2.5 1.55 4.85 3.25m-32.7-52.15q-12.4 0.85-22.8 6.1 10.4-5.25 22.8-6.1m-126.85 50.4 2-1.7q11.45-9.2 23.95-11.35-12.5 2.15-23.95 11.35l-2 1.7m30.2 14.95-2.4-0.65-3.95-1.15-0.25-0.05-0.05-0.85 0.3-1.4 0.1-0.2q4.65-2.35 9.55-4.55-1.35 4.5-3.3 8.85m28.95-25.25-1.05-0.8 0.15-2.05 0.15-1.4v-0.35l0.3-1.05 4.15 1.3h0.05l-3.75 4.35 3.75-4.35h-0.05 0.05l0.9-2.5 5.3 0.75-0.3 0.95-0.85 3.05 0.85-3.05 5.05 2.1q0.6 2.65 1.8 5.25l-7.9-3.6 2.55 6.2q-2.15 0.75-4.75 0.8l-1.8-3.7-2.7 2.55-2-1.9-0.9-1.35 1-1.2m2.95-1.3 0.5 0.85 1.15 2.35-1.15-2.35-0.5-0.85m5.65-0.1 0.2-0.7-0.15-0.05-0.05 0.75m-14.95 62.1q-4.45-12.5-2.7-24.2l0.15-1-0.15 1q-1.75 11.7 2.7 24.2m69.8-19q-0.55-4.2-2.3-8.2-2.25-5-6.25-8.25-7.35-5.95-15.4-10.25 8.05 4.3 15.4 10.25 4 3.25 6.25 8.25 1.75 4 2.3 8.2" fill="#5b7210" fill-rule="evenodd"/>
<path d="m202.15 49.75 0.8-0.45-1-0.85q1.9-2.1 4.3-3.9 2.35-1.75 4.85-2.9 2.8-1.3 5.95-0.95l8.65-0.15-3.2-0.75 5.2-0.75 0.75-0.5 1.25-0.6 3.4 1.85q-0.35 5.6-1.75 11.15-1.15 4.65-5.2 7.4l-1.95-1q-8.75-4.4-18.55-3.95l1.25 1.25q3.55 0.65 6.95 1.75 7.5 2.3 11.05 9.35l-2.95 8.65-1.75 0.45q-3.2-1.2-6.15-3.05l-2.2-1.35q-0.2-4.35-1.85-8.3l-0.7-1.6 0.7 1.6q1.65 3.95 1.85 8.3l-0.05 4.3-0.7 4.1-0.35 0.35 0.35-0.35 3.65 1.15-0.3 1.05v0.35l-0.15 1.4-0.15 2.05-5.3-3.95-4.45 3.65q-2.7-1-5.75-1.55l-3.1-0.5 3.1 0.5q3.05 0.55 5.75 1.55 4.4 1.6 7.95 4.4l1.85-2.1 0.9 1.35 2 1.9-1.7 1.6q2.3 2.35 4.15 5.35 1.75-1.35 3.75-2.4l-1.7-3.4q2.6-0.05 4.75-0.8l0.95 2.4q1.55-0.6 3.25-1.05l1.35 0.3 2.65 0.7 1.7 0.45-0.95-1.55-0.9-1.6-0.75-1.35 0.1-1.7 0.85 2.2q0.8-0.25 1.55 0 4.7 0.9 8.35-1.75l0.75-1 0.15 0.3q1.35 4 0.85 8.85 2.2-2.15 4.2-4.7l1.45-5.65 2.85-2.35 11-6.8h0.25l1.65 0.5 0.85 0.5-0.05 0.25-1.2 4.2-3.5 1.7q-4.5 5.5-6.65 12.6-0.3 0.95-1.35 1.6l-1.5 0.85 0.45 2.3q1.45 7.85 2.05 16.05l0.1 0.7q-0.45 1.2-1.65 2.15-4.75 3.9-7.65 9.3l-0.6 1.4q-0.85 0.2-2.15-0.4l-0.65-3.45-0.1-0.3-0.2-0.75 0.55-1.45 2.6-2.2q3.05-5.6 7.85-9.4-5.85 2.8-9.75 7.75-1.65-4.25-5.05-7.6l-1.5-1.4-2.5-1.3-0.65-0.85q-0.8-1-0.6-2.2l2.1-4.15 0.55-0.3q0.8-1.45 1.8-2.45-3.8 2.4-8.6 1.85l-1.75-0.8-1.65-5.4 0.75-1.35-0.9 0.05-2.3 0.35-1.6 1.2q0.4 0.6 0.35 1.25 0.3 4.05 3.25 6.4l0.95 0.45-0.2 0.15q-3 2-7.05 2.65 2.25 1.3 4.8 2.35l4.9-0.05q1.35 0.85 2.5 1.85l7.95 7.5 0.1 0.2-0.05 1.45-0.25 0.8h-0.2l-3.7-0.1-12.6-0.45 16.8 5.6 0.55 2.45q-9.75-4.25-20.45-5.8l-14.55-1.25-0.85-0.05-7.3-0.7q-7.05-1.45-14.45-1.25 0-2.7 1.15-5.3l12.5-0.15-11.1-2.8q1.95-4.35 3.3-8.85l0.65-0.3q1.5-0.65 3.1-0.95l5.2 1.55 5.65-0.85q-4.2-1.95-6.85-4.75l-0.2-0.3 1.1-0.1q3.7-1.4 5-5.25 0.1-0.7 0.65-1.1l-1.45-1.7-2.35-1.05-0.95-0.4 0.5 1.65-3.05 4.75-2.05 0.25q-3.85-0.8-6.75-2.9l-0.05-0.1-0.45-1.1q-1.1-1.95-2.35-3.15l-0.75-0.2-2.15-3.15q-1.2-1.9-2.05-3.85-3.45-7.85-3.2-16.5l0.15-0.35q9.25 1.95 17.6 6.3 1 1.05 2.5 1.5l0.5 0.25q-2.1 5.85-2.75 12.15v0.35l0.8-0.25q2.05-5.25 6.65-9.8l1.45-0.25q3.65 3.25 6.35 7.45l-1.15 1 1.15-1 0.3 0.5 0.3 0.45 0.15-1.65 0.1-1.55q-4.4-5.4-10.6-8.5l-0.05-0.15q3.65-3.4 7.25-6.6l1.85-1.85-0.85-1.65q-6.3-0.25-10.55 5.65l-0.9 1q-9-4-18.7-5.9l0.1-0.15 0.6-0.15q2.45-1 5-1.65 9.9-3 18.15-7.95l3.25 4.3q1.7 2.35 3.05 4.85-1.35-2.5-3.05-4.85l-3.25-4.3m41.4-4.55 2.9 2.5q-1.6 3.65 0.4 6.95 0.55 1 0.8 2.15l0.45 2.3 0.3 0.4q-3.35 2.75-5.9 6.1l-0.15 0.2 0.15-0.2q2.55-3.35 5.9-6.1 2.55 1.25 4.5 3.55l0.25 0.25-0.5 1.95q-1.45 1.1-2.45 2.55l-0.5 0.7q2.1 4.65 7.15 6.15l2.1 0.45-2.1 1.3-2.2 2.45-1.25 0.5q-1.3 0.6-2.7 0l-4-3.7-0.2-0.75q-1.4-1.3-2.3-2.8 1.6 5.1-0.45 10.45l-1.5 1.75-6.65 0.25-1.4-1.3q0.2-1.4 0.55-2.8l0.6-2.05q1.7-3.8 3.7-7.45 0.65-1.2 1.45-2.35l1.85-2.8-10.5-4.25q2.35-9.65 6.2-19.3 2.65 1.95 4.55 2.6l0.95 0.35m32.25 29.5-0.9-0.05-1.5-1-0.3-0.65 1.55-0.05q0.55-0.3 1.25-0.25l1.95-1.75-1.5 3.45q-0.3 0.1-0.55 0.3m-54.7 0.5 4.8 1.55-0.75 2.8-5.3-0.75 1.25-3.6m7 2.05 0.55-2.55q0.5-2.2 0.5-4.5l-0.05-1.5 1.1 0.15 10.3-0.25q-0.8 1.15-1.45 2.35-2 3.65-3.7 7.45l-6.05-0.9-1.2-0.25m-33.35 5.15q-5.15-0.55-10.15 0.1l-2.6 0.4 2.6-0.4q5-0.65 10.15-0.1m20.65 9.3-3.05-2.75 3.05 2.75m11.9 1.15q-2.1 0.75-4 1.8 1.9-1.05 4-1.8m8.95 0.4h0.1q4.2 1.2 8.25 2.75 3.75 1.45 7.4 3.25 1.35 0.65 2.7 1.4-1.35-0.75-2.7-1.4-3.65-1.8-7.4-3.25-4.05-1.55-8.25-2.75h-0.1m-16.7 3.8q-5.85 4.35-9.25 11.65-2.95 6.05-4 12.45 1.05-6.4 4-12.45 3.4-7.3 9.25-11.65" fill="#4d5f0e" fill-rule="evenodd"/>
<path d="m238.05 42.25q-3.85 9.65-6.2 19.3l10.5 4.25-1.85 2.8-10.3 0.25-1.1-0.15 0.05 1.5q0 2.3-0.5 4.5l-0.55 2.55-2.2-0.5-4.8-1.55-0.9-0.35 1.75-0.45 2.95-8.65q-3.55-7.05-11.05-9.35-3.4-1.1-6.95-1.75l-1.25-1.25q9.8-0.45 18.55 3.95l1.95 1q4.05-2.75 5.2-7.4 1.4-5.55 1.75-11.15l4.95 2.45m35.05 30.75 0.3 0.65 1.5 1 0.9 0.05h0.4l-1.8 3.65-11.6 17.55 4.45-14.3 1.2-4.2 0.05-0.25-0.85-0.5-1.65-0.5h-0.25l-11 6.8-2.85 2.35-1.45 5.65q-2 2.55-4.2 4.7 0.5-4.85-0.85-8.85l-0.15-0.3-0.75 1q-3.65 2.65-8.35 1.75-0.75-0.25-1.55 0l-0.85-2.2 0.3-2.75 0.15-1.05 1.4 1.3 6.65-0.25 1.5-1.75q2.05-5.35 0.45-10.45 0.9 1.5 2.3 2.8l0.2 0.75 4 3.7q1.4 0.6 2.7 0l1.25-0.5 2.2-2.45 2.1-1.3q4.9-2.85 10.25-3.4-4.5-6.05-5.9-13.6 2.9 6.65 8.4 11.85l1.4 3.05m-96.2-10.8 1.4-2.55q9.7 1.9 18.7 5.9l0.9-1q4.25-5.9 10.55-5.65l0.85 1.65-1.85 1.85q-3.6 3.2-7.25 6.6l0.05 0.15q6.2 3.1 10.6 8.5l-0.1 1.55-0.75 0.7 0.75-0.7-0.15 1.65-0.3-0.45-0.3-0.5q-2.7-4.2-6.35-7.45l-1.45 0.25q-4.6 4.55-6.65 9.8l-0.8 0.25v-0.35q0.65-6.3 2.75-12.15l-0.5-0.25q-1.5-0.45-2.5-1.5-8.35-4.35-17.6-6.3m18.65 20.3-0.8-0.1 0.8 0.1m-21.1 31.05 0.5-1-0.2-1.55-2.3-3q-1.95-6.45-6.1-11.7 5.55 4.6 8.6 10.7 2.7-3.65 7.1-5.85 0.9-0.55 1.9-0.95l2.95-0.45 0.9-0.7q1.05-0.7 1.15-1.95l-1.3-4.65-0.5-0.5q-0.5-1.65-1.35-3.05l1.95 1.7q2.9 2.1 6.75 2.9l2.05-0.25 3.05-4.75-0.5-1.65 0.95 0.4 2.35 1.05 1.45 1.7q-0.55 0.4-0.65 1.1-1.3 3.85-5 5.25l-1.1 0.1 0.2 0.3q2.65 2.8 6.85 4.75l-5.65 0.85-5.2-1.55q-1.6 0.3-3.1 0.95l-0.65 0.3q-4.9 2.2-9.55 4.55l-0.1 0.2-0.3 1.4 0.05 0.85 0.25 0.05 3.95 1.15 2.4 0.65 11.1 2.8-12.5 0.15-6.7 0.05-3.7-0.35m66.3 12.2-16.8-5.6 12.6 0.45 3.7 0.1h0.2l0.25-0.8 0.05-1.45-0.1-0.2-7.95-7.5q-1.15-1-2.5-1.85l-4.9 0.05q-2.55-1.05-4.8-2.35 4.05-0.65 7.05-2.65l0.2-0.15-0.95-0.45q-2.95-2.35-3.25-6.4 0.05-0.65-0.35-1.25l1.6-1.2 2.3-0.35 0.9-0.05-0.75 1.35 1.65 5.4 1.75 0.8q4.8 0.55 8.6-1.85-1 1-1.8 2.45l-0.55 0.3-2.1 4.15q-0.2 1.2 0.6 2.2l0.65 0.85 2.5 1.3 1.5 1.4q3.4 3.35 5.05 7.6 3.9-4.95 9.75-7.75-4.8 3.8-7.85 9.4l-2.6 2.2-0.55 1.45 0.2 0.75 0.1 0.3-3.4-0.65" fill="#728914" fill-rule="evenodd"/>
<path d="m247-4.85-0.9-0.2q-24.75-5.55-46.4 7.05-11.35 6.55-12.3 19.7-0.65 8.9 1.35 16.9 7.65 4.5 13.4 11.15l3.25 4.3q1.7 2.35 3.05 4.85l0.85 1.65 0.7 1.6q1.65 3.95 1.85 8.3l2.2 1.35q2.95 1.85 6.15 3.05l0.9 0.35 4.8 1.55 2.2 0.5 1.2 0.25 6.05 0.9q1.7-3.8 3.7-7.45 0.65-1.2 1.45-2.35l1.85-2.8 0.15-0.2q2.55-3.35 5.9-6.1 4.3-3.7 9.05-6.45l2.65-1.4q10.4-5.25 22.8-6.1l5.8-0.15q13.1 0.15 20.05 9.1 13.25 17.05 8.55 37.4l-0.45 1.8-1.25 4q-6.1 16.75-24.4 27.75-5.2 1.9-10.85 1.95l-1.7-0.05 0.05 0.5q-1.65 20.25-15.6 31.05-13.2 10.3-30.6 7.8l-5.15-1q-11.5-2.8-16.75-14.85l-1.75-4.5-3.2 3.15q-3.65 2.9-7.75 4.55-13.6 2.45-24.4-1.65m73.5-157.25 2.65 0.7q22.65 6.25 36.15 26.6 2.05 5.3 1.8 10.95-0.3 6.65-4.45 11.85l-0.25 0.3m-110.15 106.55q-4.75-1.9-8.95-5.1-13.35-10.1-15.4-27.55-0.35-2.55-0.35-5.25-0.3-10.6 8-18.25-1.7-0.85-3.25-1.85-16.05-15.1-15.85-32.5 0-2 0.25-3.9l0.25-1.8q2.25-13.2 14.9-21.65 7.95-5.4 19.55-2.45 9.35 2.4 16.85 6.8m45.45 44.65-0.15 1.05-0.3 2.75-0.1 1.7-1.95-0.9-7.9-3.6 2.55 6.2 0.95 2.4q1.55-0.6 3.25-1.05l1.35 0.3 2.65 0.7 1.7 0.45-0.95-1.55-0.9-1.6-0.75-1.35m-38.9-6.35 0.8 0.1 3.1 0.5q3.05 0.55 5.75 1.55l4.45-3.65 1.15-1 0.75-0.7 0.35-0.35 0.7-4.1 0.05-4.3m-29.85 12.45q-12.5 2.15-23.95 11.35l-2 1.7m25.95-13.05 2.6-0.4q5-0.65 10.15-0.1m25.1-3.6 1.25-3.6m-6.95 9.65 1.05 0.8 3.75-4.35h-0.05l-4.15-1.3m-0.6 4.85-5.3-3.95m10.95 6.65-1.15-2.35-0.5-0.85m0.8-3.05 0.9-2.5m5.3 0.75 0.75-2.8m-8.8 13.35-1.7 1.6q2.3 2.35 4.15 5.35 1.75-1.35 3.75-2.4l-1.7-3.4-1.8-3.7-2.7 2.55m-2.9-3.25-1.85 2.1 3.05 2.75m-11-7.15q4.4 1.6 7.95 4.4m2.85-3.3-1 1.2m-3.1-8 3.65 1.15m20.6-1.6-0.6 2.05q-0.35 1.4-0.55 2.8m-9.35-2.75-0.85 3.05-0.2 0.7m1.05-3.75 0.3-0.95m4.75 3.05-5.05-2.1m-1.55 14.15q1.9-1.05 4-1.8m27.4 7.8q-1.35-0.75-2.7-1.4-3.65-1.8-7.4-3.25-4.05-1.55-8.25-2.75h-0.1m-6.35-10.65 4.15 1.7m-27.75 36.85-0.15 1q-1.75 11.7 2.7 24.2m-2.55-25.2q1.05-6.4 4-12.45 3.4-7.3 9.25-11.65m35.15 3.6q8.05 4.3 15.4 10.25 4 3.25 6.25 8.25 1.75 4 2.3 8.2" fill="none" stroke="#000" stroke-linecap="round" stroke-linejoin="round" stroke-opacity=".30196" stroke-width=".05"/>
</g>
</defs>
</svg>
