<?xml version="1.0" encoding="UTF-8"?>
<svg version="1.1" viewBox="0 0 139.11 213.8" xmlns="http://www.w3.org/2000/svg" xmlns:cc="http://creativecommons.org/ns#" xmlns:dc="http://purl.org/dc/elements/1.1/" xmlns:rdf="http://www.w3.org/1999/02/22-rdf-syntax-ns#" xmlns:xlink="http://www.w3.org/1999/xlink">
<metadata>
<rdf:RDF>
<cc:Work rdf:about="">
<dc:format>image/svg+xml</dc:format>
<dc:type rdf:resource="http://purl.org/dc/dcmitype/StillImage"/>
</cc:Work>
</rdf:RDF>
</metadata>
<g transform="translate(-156.22 -67.051)">
<use transform="translate(156.2,67.05)" width="139.14999" height="213.8" xlink:href="#a"/>
</g>
<defs>
<g id="a" transform="translate(-156.2,-67.05)">
<path d="m220.9 234.6 0.1 0.15 0.05 0.2-0.15-0.35" fill="#eed9bb" fill-rule="evenodd"/>
<path d="m184.7 103.25-2.05-4.4q-3.55-7.5-7.65-14.85 29.45 31.8 46.55 65.5l4.85 10.2q4.1 9.25 7.35 18.65 2.45 7.2 4.35 14.45l-0.1 0.05q-7.3-24.35-25.4-48.95 9.8 18.45 13.65 35.4l0.1 0.45q3.95 17.85 1.25 34.05-4.1 10.2-6.45 20.65l-0.25 0.15-5.35-7.45q-4.6-91.5-30.85-123.9m91.2-4.25q0.45-15.35-1.2-31.2 18.25 51.5 19 109.95-2.1-14.15-8.5-17.25 1.45 11.5 1.15 21.95l-0.9 11.45q-8.15 36.5-28.85 53.95l-0.7-3.55 21.7-98.7q8.55-32.75-1.7-46.6m-118.2 50.95q-1.95-22.85 1.3-43.95-0.95 54.1 19.1 90.7-0.4 12.4 3.6 29.35-17.5-34.45-24-76.1" fill="#dfb87d" fill-rule="evenodd"/>
<path d="m226.4 159.7-4.85-10.2q8.45-33.75 29.8-67.8-7.6 16.8-12.15 32.75l-0.15 0.55-1.55 5.6-11.1 39.1" fill="#e8ca9f" fill-rule="evenodd"/>
<path d="m215.55 227.15 5.35 7.45 0.15 0.35 0.1-0.5q2.35-10.45 6.45-20.65 2.7-16.2-1.25-34.05l10.6 38.25q2.85 30.95-9.2 58.2-13.95-3.1-14.6-7.3-1.55 0.7-3.55 0.75-37.85-88-17.55-129-2.5 33 10.3 62.65 5.3 12.2 13.2 23.85m2.5 33.6q0.15-13.05 3-25.8-2.85 12.75-3 25.8l-0.35 1.7-0.2 0.7 0.55-0.3v-2.1m0 4.15v-2.05 2.05" fill="#cc6" fill-rule="evenodd"/>
<path d="m238.1 192.8q4.7-7.9 10.55-15.65l3.15-4.1q6.35-8 13.9-15.8 5.6-5.9 11.9-11.65-10.15 15.4-15.95 31.35l-1.4 4.1q-6.15 18.6-6.4 38l2.05 25.25 0.7 3.55q-2.9 3.9-0.2 22.2 14.65-29.3 23.15-43.95 8.4-17.6 8.25-38-0.2-20.4-1.45-5.65 0.3-10.45-1.15-21.95 6.4 3.1 8.5 17.25 1.8 12.25-0.1 25.3-5.25 35.5-38.1 77.05l-6.2-0.65-4.35-30.45q0.3-21-3.5-41.4l0.05-0.3-0.2-0.4q-1.35-7.05-3.15-13.95l-0.05-0.15m47.3 1.35v0.3l-0.15 1.7-0.1-0.3 0.25-1.7" fill="#e1e0a6" fill-rule="evenodd"/>
<path d="m256.6 247.85q20.7-17.45 28.85-53.95l0.9-11.45q-0.2 5.8-0.9 11.3l-0.05 0.7 0.05-0.7v0.15l-0.05 0.25 0.05-0.25v-0.15q0.7-5.5 0.9-11.3 1.25-14.75 1.45 5.65 0.15 20.4-8.25 38-8.5 14.65-23.15 43.95-2.7-18.3 0.2-22.2m28.8-53.4v-0.3l-0.25 1.7 0.1 0.3 0.15-1.7" fill="#c8bc59" fill-rule="evenodd"/>
<path d="m226.35 179.75-0.1-0.45q-3.85-16.95-13.65-35.4 18.1 24.6 25.4 48.95v0.1h0.15q1.8 6.9 3.15 13.95l0.15 0.7q3.8 20.4 3.5 41.4l4.35 30.45q-13.15-1.45-21.55-3.25 12.05-27.25 9.2-58.2l-10.6-38.25m-48.25 16.95q0.95-30 14.65-62.8l-0.55 5.1-0.15 1.65q-20.3 41 17.55 129-6 0.05-16.05-6.35-7.85-20.35-11.7-36.6l-0.15-0.65q-4-16.95-3.6-29.35" fill="#aca039" fill-rule="evenodd"/>
<path d="m184.7 103.25q26.25 32.4 30.85 123.9-7.9-11.65-13.2-23.85 3.7-52-17.65-100.05m49.05 75.1q-3.25-9.4-7.35-18.65l11.1-39.1q-7.6 30.6-3.75 57.75m31.95-21.1q9.2-28.05 10.2-58.25 10.25 13.85 1.7 46.6-6.3 5.75-11.9 11.65m-72.15 106.05q-31.45-61.2-35.85-113.35 6.5 41.65 24 76.1l0.15 0.65q3.85 16.25 11.7 36.6m62.35-19-2.05-25.25q0.25-19.4 6.4-38l1.4-4.1q5.8-15.95 15.95-31.35l-21.7 98.7" fill="#b8802e" fill-rule="evenodd"/>
<path d="m215.55 227.15 5.35 7.45 0.1 0.15 0.15-0.3q2.35-10.45 6.45-20.65 2.7-16.2-1.25-34.05m-0.1-0.45q-3.85-16.95-13.65-35.4 18.1 24.6 25.4 48.95v0.1l0.1-0.15q4.7-7.9 10.55-15.65l3.15-4.1q6.35-8 13.9-15.8 9.2-28.05 10.2-58.25 0.45-15.35-1.2-31.2 18.25 51.5 19 109.95 1.8 12.25-0.1 25.3-5.25 35.5-38.1 77.05l-6.2-0.65q-13.15-1.45-21.55-3.25-13.95-3.1-14.6-7.3-1.55 0.7-3.55 0.75-6 0.05-16.05-6.35-31.45-61.2-35.85-113.35-1.95-22.85 1.3-43.95-0.95 54.1 19.1 90.7-0.4 12.4 3.6 29.35m56.4-33.25q-1.9-7.25-4.35-14.45-3.25-9.4-7.35-18.65l-4.85-10.2q-17.1-33.7-46.55-65.5m62.5 36.6 1.55-5.6 0.15-0.55q4.55-15.95 12.15-32.75-21.35 34.05-29.8 67.8m-43.45 47.2q0.95-30 14.65-62.8l-0.55 5.1m-0.15 1.65q-2.5 33 10.3 62.65 3.7-52-17.65-100.05m-2.85 123.45q3.85 16.25 11.7 36.6m44.55-70.5 0.05 0.15q1.8 6.9 3.15 13.95l0.2 0.4-0.05 0.3q3.8 20.4 3.5 41.4m-11.2-70.65q-3.85-27.15 3.75-57.75m40.1 25q-6.3 5.75-11.9 11.65m-9.8 87.05-2.05-25.25q0.25-19.4 6.4-38l1.4-4.1q5.8-15.95 15.95-31.35m-21.7 98.7 0.7 3.55q20.7-17.45 28.85-53.95l-0.05 0.25m0.95-11.7q0.3-10.45-1.15-21.95 6.4 3.1 8.5 17.25m-8.3 16.7 0.05-0.7v0.15m-0.05 0.55-0.15 1.7-0.1-0.3 0.25-1.7m0.95-11.7q-0.2 5.8-0.9 11.3m-44.15 13.15 0.15 0.7m-20.3 26.85-0.1 0.5q-2.85 12.75-3 25.8v4.15m2.95-30.15 0.05 0.2m-3.35 27.5 0.35 0.4-0.55 0.3 0.2-0.7 0.35-1.7m-15.7-57.45q5.3 12.2 13.2 23.85z" fill="none" stroke="#ab8f73" stroke-linecap="round" stroke-linejoin="round" stroke-opacity=".78039" stroke-width="1.5"/>
</g>
</defs>
</svg>
