<?xml version="1.0" encoding="UTF-8"?>
<svg version="1.1" viewBox="0 0 37.15 39.046" xmlns="http://www.w3.org/2000/svg" xmlns:cc="http://creativecommons.org/ns#" xmlns:dc="http://purl.org/dc/elements/1.1/" xmlns:rdf="http://www.w3.org/1999/02/22-rdf-syntax-ns#" xmlns:xlink="http://www.w3.org/1999/xlink">
<metadata>
<rdf:RDF>
<cc:Work rdf:about="">
<dc:format>image/svg+xml</dc:format>
<dc:type rdf:resource="http://purl.org/dc/dcmitype/StillImage"/>
</cc:Work>
</rdf:RDF>
</metadata>
<g transform="translate(-277.88 -172.83)">
<use transform="translate(277.9,172.85)" width="37.099998" height="39" xlink:href="#a"/>
</g>
<defs>
<g id="a" transform="translate(-277.9,-172.85)">
<path d="m278.05 181.1v-0.1l8.6 1.15-1.4 0.55 1.4-0.55 0.45 0.05 0.75 0.95 0.25 1.15 0.05 0.25h-0.05l-4.5-1.15 1.65-0.7-2.95 0.1h-0.3v0.05l-3.95-1.75m10.05 3.45v-0.25 0.25" fill="#9cb926" fill-rule="evenodd"/>
<path d="m278.05 181v0.1-0.1" fill="#339b20" fill-rule="evenodd"/>
<path d="m278.05 181.1 3.95 1.75q0.25 4.5 4.15 8.5-1.75-3.9-2.55-7.95l4.5 1.15q-0.2 4.65 1.25 9.5 2.05 1.5 4.7 2.9l-4.5-2.3-0.2-0.6 0.2 0.6q1.05 3.35 2.9 6.8-3.35-4.15-5.55-8.5-6.9-4.95-8.85-11.85m8.1 10.25 0.75 1.6-0.75-1.6" fill="#859e1d" fill-rule="evenodd"/>
<path d="m294.15 180.65 11.8 15.15q-1.8 3.2-2.85 3.35l-3.15-4.35-1.85-2.65-4.8-6.65-0.05-0.05-3-3.9 2.5-0.45 1.35-0.45h0.05m3 5.65-4.4-5.2 4.4 5.2" fill="#c5b665" fill-rule="evenodd"/>
<path d="m294.75 174.4 0.65 1.55q-0.15 1.95-0.65 3.1l0.1 0.1q0.5 0.85-0.7 1.5h-0.05l-1.35 0.45-2.5 0.45q-1.45 0.65-2.6 0.4l-0.2-0.1h-0.05l-1.15-0.7-0.5-2.5 1.35-1.7 0.35 1.75-0.2 0.55 0.2 0.15q2.8 2.7 6.15-3.7l0.35-0.35 0.8-0.95m-7.9 4.3 0.4 0.55-0.4-0.55m0.7 3.2-0.1-0.05 0.2 0.1-0.1-0.05" fill="#bfaf57" fill-rule="evenodd"/>
<path d="m294.75 174.4-0.8 0.95-0.35 0.35q-3.35 6.4-6.15 3.7l-0.2-0.15 0.2-0.55-0.35-1.75q5.35-6.4 7.65-2.55m0.1 4.75-0.1-0.1q0.5-1.15 0.65-3.1 4.55 10.25 11.85 17.4l-1.3 2.45-11.8-15.15q1.2-0.65 0.7-1.5l4.95 7.15-4.95-7.15" fill="#cfbe85" fill-rule="evenodd"/>
<path d="m287.1 182.2-0.15-0.2-0.6-0.7 1 0.55 0.2 0.05 0.1 0.05 0.2 1.2-0.75-0.95m-0.15-0.2 0.4-0.15-0.4 0.15" fill="#9d8e3c" fill-rule="evenodd"/>
<path d="m287.85 183.15-0.2-1.2q1.15 0.25 2.6-0.4l3 3.9 0.05 0.05 4.8 6.65 1.85 2.65 2.4 3.55 0.55 0.8-3.75 0.1-1.35-2.25-1.15-1.8-0.2-0.3-0.4-0.65-0.05-0.05-1.3-2-0.65-0.95-2-2.75-1.2-1.6-3-3.75" fill="#968738" fill-rule="evenodd"/>
<path d="m305.95 195.8 1.3-2.45q2.45-0.4 1.3 2.15-0.2 1.4-0.85 2.5-1.15 1.9-3.8 2.8l-1-1.65h0.2q1.05-0.15 2.85-3.35m8.85 9.8 0.1 0.15-0.25 0.15 0.15-0.3m-3.25 4.5h-0.05l0.05-0.05v0.05" fill="#948534" fill-rule="evenodd"/>
<path d="m308.55 195.5 5.65 9.1 0.6 1-0.15 0.3 0.15 1.2-7.1-9.1q0.65-1.1 0.85-2.5" fill="#9c863d" fill-rule="evenodd"/>
<path d="m314.8 207.1q-0.15 1-1.25 1.1-0.6 2.45-2 1.9v-0.05l-0.75-0.4-0.55-0.5-0.05 0.05-0.8 0.55q0.2-1.4 0-1.65l-5.5-7.3q2.65-0.9 3.8-2.8l7.1 9.1m-4.2-2.95 2.95 4.05-2.95-4.05" fill="#7b702f" fill-rule="evenodd"/>
<path d="m311.5 210.1-2.5 1.65-1.25-0.8-0.2-0.1-0.65-0.95-7.75-10.65 3.75-0.1 1 1.65 5.5 7.3q0.2 0.25 0 1.65l0.8-0.55 0.6 0.45 0.7 0.45" fill="#585021" fill-rule="evenodd"/>
<path d="m307.75 210.95-0.05 0.05-0.15-0.15 0.2 0.1m3.05-1.3 0.75 0.4-0.05 0.05-0.7-0.45" fill="#a58c3a" fill-rule="evenodd"/>
<path d="m299.95 194.8 3.15 4.35h-0.2l-0.55-0.8-2.4-3.55" fill="#a89f3e" fill-rule="evenodd"/>
<path d="m278.05 181.1 3.95 1.75v-0.05h0.3l2.95-0.1 1.4-0.55-8.6-1.15m0 0.1-0.05-0.1h0.05m4.25 1.8-0.3 0.05q0.25 4.5 4.15 8.5-1.75-3.9-2.55-7.95l1.65-0.7m10.15-6.75-0.65-1.55m-0.8 0.95-0.35 0.35q-3.35 6.4-6.15 3.7m-0.2-0.15-0.4-0.55m8.55-2.75q-0.15 1.95-0.65 3.1l0.1 0.1 4.95 7.15m-4.95-7.15q0.5 0.85-0.7 1.5m11.8 15.15 1.3-2.45q-7.3-7.15-11.85-17.4m-1.3 4.7-1.35 0.45 4.4 5.2m-10.9-5.15-0.5-2.5 1.35-1.7q5.35-6.4 7.65-2.55m-8.1 7.75 0.45 0.05-0.15-0.2-0.3 0.15m-0.4-1 0.1 0.15 1 0.55h0.05m-0.45 0.15-0.6-0.7m1.3 0.65-0.2-0.1m0.1 0.05-0.2-0.05-0.4 0.15m0.7-0.05-0.1-0.05m0.55 2.4v0.25h0.05l-0.05-0.25-0.25-1.15-0.2-1.2q1.15 0.25 2.6-0.4l2.5-0.45m-4.65 3.45-4.5-1.15m14.5 8.75 1.85 2.65 3.15 4.35q1.05-0.15 2.85-3.35m-6.8 3.45-1.35-2.25-1.15-1.8-0.2-0.3-0.4-0.65-0.05-0.05-1.3-2-0.65-0.95-2-2.75-1.2-1.6-3-3.75m1.5 10.9 0.2 0.6 4.5 2.3q-2.65-1.4-4.7-2.9-1.45-4.85-1.25-9.5m-1.2 8.4-0.75-1.6m22.4 4.15q1.15-2.55-1.3-2.15m-17.7 1.3q1.05 3.35 2.9 6.8-3.35-4.15-5.55-8.5-6.9-4.95-8.85-11.85m30.5 14.4 5.65 9.1 0.6 1 0.1 0.15m-0.25 0.15 0.15 1.2q-0.15 1-1.25 1.1-0.6 2.45-2 1.9h-0.05l-2.5 1.65-1.25-0.8-0.2-0.1m-8.4-11.6 3.75-0.1h0.2m11.7 6.45-0.15 0.3m-6.95-7.9q-1.15 1.9-3.8 2.8m6.3 8.4 0.05-0.05 0.55 0.5 0.75 0.4m-1.35-0.85 0.6 0.45 0.7 0.45 0.05-0.05m2-1.85-2.95-4.05m-2.9-6.15q0.65-1.1 0.85-2.5" fill="none" stroke="#554d1e" stroke-linecap="round" stroke-linejoin="round" stroke-opacity=".72157" stroke-width=".25"/>
<path d="m307.7 211-0.15-0.15-0.65-0.95-7.75-10.65" fill="none" stroke="#554d1e" stroke-linecap="round" stroke-linejoin="round" stroke-opacity=".72157" stroke-width=".25"/>
</g>
</defs>
</svg>
