<?xml version="1.0" encoding="UTF-8" standalone="no"?>
<!DOCTYPE svg PUBLIC "-//W3C//DTD SVG 1.1//EN" "http://www.w3.org/Graphics/SVG/1.1/DTD/svg11.dtd">
<svg width="100%" height="100%" viewBox="0 0 1851 1398" version="1.1" xmlns="http://www.w3.org/2000/svg" xmlns:xlink="http://www.w3.org/1999/xlink" xml:space="preserve" xmlns:serif="http://www.serif.com/" style="fill-rule:evenodd;clip-rule:evenodd;stroke-linecap:round;stroke-linejoin:round;">
    <g transform="matrix(1,0,0,1,-377.238,-187.876)">
        <g transform="matrix(10,0,0,10,0,0)">
            <g id="shape0">
                <path d="M176.5,72.8L189,70.8L189.15,70.8L191.4,70.4C195.633,71.4 199.25,73.367 202.25,76.3C204.083,77.967 205.717,80 207.15,82.4L162.5,87.3L159.65,86.4C159.217,85.567 159.25,84.617 159.75,83.55C160.183,82.717 160.65,82.133 161.15,81.8L164.25,82.05L164.9,81.9C165.9,81.667 166.683,81.25 167.25,80.65L167.5,81.05L168.5,81.4L169.15,81.55L170,81.55L170.75,80.3L170.75,79.8L170.25,77.8L168.75,76.65L168.25,76.4C168.083,75.833 168.083,75.5 168.25,75.4L175.25,76.55C175.917,76.283 176.333,75.7 176.5,74.8L176.5,72.8M63,72.55L90.75,75.4L90.5,77.15C88.6,77.65 86.933,78.783 85.5,80.55L81.75,79.3C80.917,80.033 80.633,81.067 80.9,82.4L81.25,83.4L87.15,84.05L87.65,84.65C86.983,86.15 85.9,87.233 84.4,87.9C84.3,87.833 84.25,87.967 84.25,88.3C85.583,89.533 87.583,89.867 90.25,89.3C89.75,91.133 88.417,92.083 86.25,92.15L86.25,92.8C86.683,94.467 88.183,95.083 90.75,94.65L91.15,94.8C93.217,93.867 94.75,92.283 95.75,90.05C95.75,89.883 95.8,89.75 95.9,89.65C95.567,88.65 94.817,87.7 93.65,86.8L92.25,86.65C91.75,85.983 91.883,85.233 92.65,84.4C92.817,84.067 93.183,83.9 93.75,83.9L95.9,84.4C96.133,87.9 97.583,89.7 100.25,89.8L100.75,91.65C100.517,91.917 100.267,92.3 100,92.8L99.65,93.05L99.4,95.3L102.4,98.05C104.133,97.95 105.583,98.233 106.75,98.9C107.183,99.4 107.317,99.95 107.15,100.55C106.983,100.883 106.9,101.3 106.9,101.8L105.75,103.3C108.25,104.967 111.55,105.417 115.65,104.65C120.383,103.75 124.083,104.717 126.75,107.55L125.75,107.9L77.25,105.8C76.85,98.367 75.567,91.7 73.4,85.8C70.733,78.467 67.267,74.083 63,72.65L63,72.55M176.65,96.15C177.717,96.15 178.667,96.4 179.5,96.9C180.267,97.567 180.65,98.283 180.65,99.05C180.65,99.783 180.267,100.4 179.5,100.9C178.667,101.567 177.717,101.9 176.65,101.9C175.483,101.9 174.517,101.567 173.75,100.9C172.917,100.4 172.5,99.783 172.5,99.05C172.5,98.283 172.917,97.567 173.75,96.9C174.517,96.4 175.483,96.15 176.65,96.15M123.65,111.8C123.383,112.633 122.75,113.25 121.75,113.65C120.183,114.417 118.567,114.717 116.9,114.55C111.467,114.217 107.3,115.55 104.4,118.55L104.65,118.9L105.5,119.9C105.767,120.167 105.85,120.667 105.75,121.4L105.75,121.55L103.9,121.3C102.9,121.367 102.233,121.533 101.9,121.8L101.65,122.05L101.15,122.9C100.817,123.333 100.733,123.883 100.9,124.55L101.25,124.8L102.4,124.9C103.3,124.667 103.667,124.917 103.5,125.65L103.5,125.9L102.75,126.3L101.4,126.15L100.9,125.15L99.25,124.15L94.25,124.4L93.5,126.15L95.4,126.05C97.567,125.717 98.683,126.5 98.75,128.4L97.65,129.05C96.883,129.117 96.167,129.367 95.5,129.8L75.25,129.15C76.017,125.417 76.567,121.5 76.9,117.4L123.65,111.8M62.4,116.05C62.067,120.283 61.067,123.867 59.4,126.8C57.733,129.8 55.85,131.217 53.75,131.05C51.683,130.883 50.017,129.217 48.75,126.05C47.517,122.95 47.067,119.233 47.4,114.9C47.733,110.567 48.733,106.95 50.4,104.05C52.067,101.117 53.933,99.733 56,99.9C58.1,100 59.733,101.633 60.9,104.8C62.233,107.967 62.733,111.717 62.4,116.05" style="fill:#778228;"/>
                <path d="M176.5,72.8L176.5,74.8C176.333,75.7 175.917,76.283 175.25,76.55L168.25,75.4C168.083,75.5 168.083,75.833 168.25,76.4L168.75,76.65L170.25,77.8L170.75,79.8L170.75,80.3L170,81.55L169.15,81.55L168.5,81.4L167.5,81.05L167.25,80.65C166.683,81.25 165.9,81.667 164.9,81.9L164.25,82.05L161.15,81.8C160.65,82.133 160.183,82.717 159.75,83.55C159.25,84.617 159.217,85.567 159.65,86.4L162.5,87.3L107.15,93.4L211.4,92.8C212.4,96.367 213.15,100.367 213.65,104.8C176.983,121.467 137.6,129.8 95.5,129.8C96.167,129.367 96.883,129.117 97.65,129.05L98.75,128.4C98.683,126.5 97.567,125.717 95.4,126.05L93.5,126.15L94.25,124.4L99.25,124.15L100.9,125.15L101.4,126.15L102.75,126.3L103.5,125.9L103.5,125.65C103.667,124.917 103.3,124.667 102.4,124.9L101.25,124.8L100.9,124.55C100.733,123.883 100.817,123.333 101.15,122.9L101.65,122.05L101.9,121.8C102.233,121.533 102.9,121.367 103.9,121.3L105.75,121.55L105.75,121.4C105.85,120.667 105.767,120.167 105.5,119.9L104.65,118.9L104.4,118.55C107.3,115.55 111.467,114.217 116.9,114.55C118.567,114.717 120.183,114.417 121.75,113.65C122.75,113.25 123.383,112.633 123.65,111.8L147.4,108.9L125.75,107.9L126.75,107.55C124.083,104.717 120.383,103.75 115.65,104.65C111.55,105.417 108.25,104.967 105.75,103.3L106.9,101.8C106.9,101.3 106.983,100.883 107.15,100.55C107.317,99.95 107.183,99.4 106.75,98.9C105.583,98.233 104.133,97.95 102.4,98.05L99.4,95.3L99.65,93.05L100,92.8C100.267,92.3 100.517,91.917 100.75,91.65L100.25,89.8C97.583,89.7 96.133,87.9 95.9,84.4L93.75,83.9C93.183,83.9 92.817,84.067 92.65,84.4C91.883,85.233 91.75,85.983 92.25,86.65L93.65,86.8C94.817,87.7 95.567,88.65 95.9,89.65C95.8,89.75 95.75,89.883 95.75,90.05C94.75,92.283 93.217,93.867 91.15,94.8L90.75,94.65C88.183,95.083 86.683,94.467 86.25,92.8L86.25,92.15C88.417,92.083 89.75,91.133 90.25,89.3C87.583,89.867 85.583,89.533 84.25,88.3C84.25,87.967 84.3,87.833 84.4,87.9C85.9,87.233 86.983,86.15 87.65,84.65L87.15,84.05L81.25,83.4L80.9,82.4C80.633,81.067 80.917,80.033 81.75,79.3L85.5,80.55C86.933,78.783 88.6,77.65 90.5,77.15L90.75,75.4C115.083,77.067 139.417,76.7 163.75,74.3L176.5,72.8M176.65,96.15C175.483,96.15 174.517,96.4 173.75,96.9C172.917,97.567 172.5,98.283 172.5,99.05C172.5,99.783 172.917,100.4 173.75,100.9C174.517,101.567 175.483,101.9 176.65,101.9C177.717,101.9 178.667,101.567 179.5,100.9C180.267,100.4 180.65,99.783 180.65,99.05C180.65,98.283 180.267,97.567 179.5,96.9C178.667,96.4 177.717,96.15 176.65,96.15M118.4,117.65L120.9,119.05L118.4,117.65M133.4,119.3L134.75,122.3L133.4,119.3M138.15,119.15L140.9,122.55L138.15,119.15M126.9,118.9L129.15,120.65L126.9,118.9" style="fill:#afb629;"/>
                <path d="M162.5,87.3L207.15,82.4C208.05,84 208.883,85.75 209.65,87.65L211.4,92.8L107.15,93.4L162.5,87.3M213.65,104.8L213.75,106.15C215.35,121.417 210.817,132.25 200.15,138.65C153.55,139.75 106.667,146 59.5,157.4L53.65,158.15C48.717,157.25 44.75,152.75 41.75,144.65C38.617,135.983 37.5,125.733 38.4,113.9C39.233,102 41.817,92 46.15,83.9C50.383,76.067 55.05,72.2 60.15,72.3L60.75,72.3L63,72.65C67.267,74.083 70.733,78.467 73.4,85.8C75.567,91.7 76.85,98.367 77.25,105.8L125.75,107.9L147.4,108.9L123.65,111.8L76.9,117.4C76.567,121.5 76.017,125.417 75.25,129.15L95.5,129.8C137.6,129.8 176.983,121.467 213.65,104.8M57.9,85.4C54.3,85.167 51.05,87.883 48.15,93.55C45.217,99.217 43.467,106.133 42.9,114.3C42.3,122.533 43.05,129.65 45.15,135.65C47.217,141.65 50.05,144.783 53.65,145.05C57.217,145.283 60.467,142.617 63.4,137.05C66.4,131.383 68.183,124.417 68.75,116.15C69.35,107.983 68.567,100.9 66.4,94.9C64.3,88.833 61.467,85.667 57.9,85.4C61.467,85.667 64.3,88.833 66.4,94.9C68.567,100.9 69.35,107.983 68.75,116.15C68.183,124.417 66.4,131.383 63.4,137.05C60.467,142.617 57.217,145.283 53.65,145.05C50.05,144.783 47.217,141.65 45.15,135.65C43.05,129.65 42.3,122.533 42.9,114.3C43.467,106.133 45.217,99.217 48.15,93.55C51.05,87.883 54.3,85.167 57.9,85.4M62.4,116.05C62.733,111.717 62.233,107.967 60.9,104.8C59.733,101.633 58.1,100 56,99.9C53.933,99.733 52.067,101.117 50.4,104.05C48.733,106.95 47.733,110.567 47.4,114.9C47.067,119.233 47.517,122.95 48.75,126.05C50.017,129.217 51.683,130.883 53.75,131.05C55.85,131.217 57.733,129.8 59.4,126.8C61.067,123.867 62.067,120.283 62.4,116.05" style="fill:#5c442e;"/>
                <path d="M60.75,72.3L60.75,72.15L62.9,72.55L63,72.55L63,72.65L60.75,72.3" style="fill:#dc8a03;"/>
                <path d="M59.5,157.4C57.933,158.067 56.317,158.367 54.65,158.3L53.65,158.15L59.5,157.4" style="fill:#164936;"/>
                <path d="M207.15,82.4C205.717,80 204.083,77.967 202.25,76.3C199.25,73.367 195.633,71.4 191.4,70.4L189.15,70.8L189,70.8L176.5,72.8L163.75,74.3C139.417,76.7 115.083,77.067 90.75,75.4L63,72.55L62.9,72.55L60.75,72.15L60.75,72.3L60.15,72.3C55.05,72.2 50.383,76.067 46.15,83.9C41.817,92 39.233,102 38.4,113.9C37.5,125.733 38.617,135.983 41.75,144.65C44.75,152.75 48.717,157.25 53.65,158.15L59.5,157.4C106.667,146 153.55,139.75 200.15,138.65C210.817,132.25 215.35,121.417 213.75,106.15L213.65,104.8C213.15,100.367 212.4,96.367 211.4,92.8L209.65,87.65C208.883,85.75 208.05,84 207.15,82.4" style="fill:none;fill-rule:nonzero;stroke:#220d0d;stroke-width:0.75px;"/>
                <path d="M57.9,85.4C61.467,85.667 64.3,88.833 66.4,94.9C68.567,100.9 69.35,107.983 68.75,116.15C68.183,124.417 66.4,131.383 63.4,137.05C60.467,142.617 57.217,145.283 53.65,145.05C50.05,144.783 47.217,141.65 45.15,135.65C43.05,129.65 42.3,122.533 42.9,114.3C43.467,106.133 45.217,99.217 48.15,93.55C51.05,87.883 54.3,85.167 57.9,85.4" style="fill:none;fill-rule:nonzero;stroke:#778228;stroke-width:0.75px;"/>
                <path d="M129.15,120.65L126.9,118.9M140.9,122.55L138.15,119.15M134.75,122.3L133.4,119.3M120.9,119.05L118.4,117.65" style="fill:none;fill-rule:nonzero;stroke:#dad943;stroke-width:0.25px;"/>
                <path d="M183.65,39.15C190.15,59.417 187.35,74.417 175.25,84.15C174.75,79.75 173.5,77.217 171.5,76.55C173.333,76.95 174.3,77.9 174.4,79.4C179.3,75.567 182.8,68.567 184.9,58.4C186.067,52.667 185.65,46.25 183.65,39.15" style="fill:#605a0a;"/>
                <path d="M171.5,76.55C179.1,69.883 183.317,61.25 184.15,50.65C184.383,45.15 183.883,40.367 182.65,36.3L183.65,39.15C185.65,46.25 186.067,52.667 184.9,58.4C182.8,68.567 179.3,75.567 174.4,79.4C174.3,77.9 173.333,76.95 171.5,76.55" style="fill:#96a419;"/>
                <path d="M89.65,80.55C105.483,94.717 110.6,109 105,123.4C102.433,120 100.1,118.467 98,118.8C99.833,118.3 101.167,118.633 102,119.8C104.267,114.033 103.733,106.2 100.4,96.3C98.467,90.8 94.883,85.55 89.65,80.55" style="fill:#605a0a;"/>
                <path d="M98,118.8C101.267,109.2 100.6,99.65 96,90.15C93.433,85.483 90.683,81.7 87.75,78.8L89.65,80.55C94.883,85.55 98.467,90.8 100.4,96.3C103.733,106.2 104.267,114.033 102,119.8C101.167,118.633 99.833,118.3 98,118.8" style="fill:#96a419;"/>
                <path d="M183.25,104.9C183.683,104.067 184.4,103.45 185.4,103.05L189,103.15C190.267,103.75 191.183,104.467 191.75,105.3C192.35,106.367 192.517,107.317 192.25,108.15C191.917,109.083 191.167,109.667 190,109.9L186.5,109.8C185.267,109.367 184.317,108.65 183.65,107.65C183.15,106.75 183.017,105.833 183.25,104.9" style="fill:#ffc;"/>
                <path d="M177.5,94.05C178.167,94.55 178.55,95.133 178.65,95.8C178.65,96.533 178.35,97.15 177.75,97.65C177.083,98.15 176.383,98.483 175.65,98.65C174.65,98.65 173.817,98.4 173.15,97.9C172.65,97.5 172.317,96.917 172.15,96.15C172.15,95.483 172.4,94.817 172.9,94.15C173.567,93.65 174.4,93.4 175.4,93.4C176.233,93.333 176.933,93.55 177.5,94.05" style="fill:#ffc;"/>
                <path d="M159.4,112.4C159.967,112.9 160.333,113.483 160.5,114.15C160.5,114.917 160.167,115.55 159.5,116.05C158.933,116.55 158.233,116.883 157.4,117.05C156.4,117.05 155.567,116.8 154.9,116.3C154.4,115.867 154.1,115.283 154,114.55C154,113.883 154.25,113.25 154.75,112.65C155.417,112.083 156.25,111.8 157.25,111.8C158.017,111.7 158.733,111.9 159.4,112.4" style="fill:#ffc;"/>
                <path d="M107.75,95.55C108.017,94.95 108.517,94.567 109.25,94.4L111.5,94.55C112.267,94.883 112.85,95.383 113.25,96.05C113.683,96.617 113.817,97.2 113.65,97.8C113.383,98.367 112.883,98.733 112.15,98.9L109.9,98.8C109.067,98.467 108.483,98 108.15,97.4C107.65,96.733 107.517,96.117 107.75,95.55M133.9,99.8C133.9,99.3 134.1,98.917 134.5,98.65C134.833,98.25 135.3,98.05 135.9,98.05C136.467,97.95 136.967,98.067 137.4,98.4C137.8,98.667 138.05,99.05 138.15,99.55C138.15,100.05 137.933,100.467 137.5,100.8C137.1,101.133 136.65,101.3 136.15,101.3C135.55,101.3 135.05,101.167 134.65,100.9C134.15,100.567 133.9,100.2 133.9,99.8" style="fill:#ffc;"/>
                <path d="M88.9,122.55C89.3,122.783 89.55,123.15 89.65,123.65C89.65,124.15 89.433,124.567 89,124.9C88.6,125.233 88.15,125.4 87.65,125.4L86.15,125.05C85.65,124.717 85.4,124.333 85.4,123.9C85.4,123.4 85.6,123.033 86,122.8C86.333,122.367 86.8,122.15 87.4,122.15C87.967,122.083 88.467,122.217 88.9,122.55" style="fill:#eae28e;"/>
            </g>
            <g id="shape1" transform="matrix(0.3281,-2.6083,-3.0601,-0.3849,141.897,-16.6978)">
                <path d="M-24.35,-26.35L-22.85,-27.05L-21.85,-25.35C-21.15,-24.35 -21.3,-23.483 -22.3,-22.75C-23.233,-21.983 -23.917,-21.633 -24.35,-21.7L-24.5,-21.75L-23.8,-21.05C-23.633,-20.717 -23.933,-20.317 -24.7,-19.85L-24.7,-19.8C-24.6,-19.533 -24.583,-19.267 -24.65,-19C-24.617,-18.267 -24.8,-17.9 -25.2,-17.9C-25.567,-17.867 -26.55,-18.25 -28.15,-19.05L-30.05,-20.3L-30.6,-21L-31.75,-21.8L-31,-22.25L-31.2,-23.05L-32.35,-24.05L-30.7,-24.55L-29.45,-24.65C-28.617,-24.517 -27.667,-24.083 -26.6,-23.35L-25.65,-22.65L-26,-23.1C-26.767,-23.9 -26.967,-24.883 -26.6,-26.05C-26.2,-27.183 -25.767,-27.75 -25.3,-27.75C-24.8,-27.25 -24.483,-26.783 -24.35,-26.35M-24.5,-21.75C-24.8,-21.817 -25.183,-22.117 -25.65,-22.65C-25.183,-22.117 -24.8,-21.817 -24.5,-21.75M-22.75,-20.3L-22.75,-20.65C-22.85,-22.017 -22.167,-23.067 -20.7,-23.8C-19.233,-24.567 -18.283,-24.75 -17.85,-24.35C-17.783,-23.45 -17.833,-22.75 -18,-22.25L-17.5,-22.05L-17.7,-21.85L-18.5,-22.15C-20.333,-22.817 -21.7,-22.317 -22.6,-20.65L-22.75,-20.3L-22.6,-20.65C-21.7,-22.317 -20.333,-22.817 -18.5,-22.15L-17.7,-21.85L-17.5,-22.05L-15.25,-23.7L-13.4,-24.55L-14.3,-23.2C-13.867,-23.467 -13.367,-23.667 -12.8,-23.8L-14.8,-21.65L-15.55,-20.9L-16.15,-18.65C-15.45,-18.483 -14.6,-18.1 -13.6,-17.5C-13.467,-16.833 -14.267,-16.033 -16,-15.1C-17.367,-14.4 -18.65,-14.233 -19.85,-14.6L-20.65,-14.9L-20.55,-15.15C-20.483,-15.417 -20.917,-15.75 -21.85,-16.15L-22.85,-16.3L-21.85,-16.15C-20.917,-15.75 -20.483,-15.417 -20.55,-15.15L-20.65,-14.9L-19.85,-14.6L-19.8,-14.3L-19.65,-13.8L-20.7,-13.05L-20.8,-12.5C-20.933,-13.2 -21.083,-13.65 -21.25,-13.85L-21.5,-14L-20.65,-14.9L-21.5,-14L-21.25,-13.85C-21.083,-13.65 -20.933,-13.2 -20.8,-12.5L-20.7,-13.05L-19.65,-13.8L-18.3,-14.3C-16.8,-14.8 -15.667,-14.433 -14.9,-13.2L-13.6,-11.2L-15.3,-10.25C-14.933,-9.783 -14.6,-9.183 -14.3,-8.45L-17.1,-8.25C-18.633,-8.583 -19.633,-9.383 -20.1,-10.65L-20.6,-11.85L-20.6,-11.8L-20.3,-9.85C-19.967,-7.55 -20.35,-6.033 -21.45,-5.3L-23.05,-4L-23.7,-6.8C-24.033,-6.4 -24.517,-6.133 -25.15,-6C-25.55,-6.467 -25.567,-7.817 -25.2,-10.05L-24.8,-11.85C-24.167,-12.117 -23.533,-12.483 -22.9,-12.95L-21.5,-14L-22.9,-12.95C-23.533,-12.483 -24.167,-12.117 -24.8,-11.85L-26.95,-11.65L-28.95,-12L-27.3,-13.5C-27.867,-13.533 -28.4,-13.7 -28.9,-14C-28.733,-14.367 -27.733,-14.9 -25.9,-15.6C-24.667,-16.1 -23.65,-16.333 -22.85,-16.3L-23.65,-17.25C-23.783,-17.817 -23.483,-18.833 -22.75,-20.3M-24.7,-19.8C-25,-20.4 -25.617,-21.083 -26.55,-21.85C-27.917,-23.017 -28.817,-23.6 -29.25,-23.6L-29.15,-22.35L-29.25,-23.6C-28.817,-23.6 -27.917,-23.017 -26.55,-21.85C-25.617,-21.083 -25,-20.4 -24.7,-19.8M-17.7,-21.85L-18.3,-21.1L-19.6,-19.1L-18.15,-19.3C-17.383,-19.567 -16.517,-20.1 -15.55,-20.9C-16.517,-20.1 -17.383,-19.567 -18.15,-19.3L-19.6,-19.1L-18.3,-21.1L-17.7,-21.85M-31,-22.25L-30.85,-21.55L-30.6,-21L-30.85,-21.55L-31,-22.25M-20.8,-12.5L-20.65,-12L-20.6,-11.85L-20.65,-12L-20.8,-12.5M-37.15,4.65L-36.85,4.05C-36.35,3.117 -35.583,2.517 -34.55,2.25L-33.35,2.05C-33.05,2.017 -32.867,2.083 -32.8,2.25L-33.3,3.25L-33.65,3.6L-32.7,4.3L-33.75,5.8C-34.417,6.767 -35.183,7.1 -36.05,6.8C-36.917,6.467 -37.4,6.15 -37.5,5.85L-37.5,5.65L-37.15,4.65L-37.5,5.65L-37.95,6.5L-39.2,6.55L-39.25,6.55L-39.85,6.95C-40.483,7.317 -40.85,7.383 -40.95,7.15C-41.083,6.917 -41.05,6.067 -40.85,4.6C-40.683,3.4 -40.35,2.5 -39.85,1.9L-39.5,0.7C-39.267,0.767 -39.067,0.883 -38.9,1.05L-39.45,1.5L-39.85,1.9L-39.45,1.5L-38.9,1.05L-38.3,0.5L-37.85,-0.75L-36.95,0.15C-36.383,0.717 -36.333,1.833 -36.8,3.5L-37.15,4.65M-38.35,2.3L-37.35,1.6C-37.217,1.9 -37.433,2.8 -38,4.3C-38.4,5.333 -38.817,6.083 -39.25,6.55C-38.817,6.083 -38.4,5.333 -38,4.3C-37.433,2.8 -37.217,1.9 -37.35,1.6L-38.35,2.3M-38.25,7.65L-37.9,7.6C-36.233,7.333 -35.45,8.017 -35.55,9.65L-35.55,10.3L-36.3,10.25L-38.35,10.4L-37.75,11.25C-37.35,11.617 -36.667,11.933 -35.7,12.2C-36.667,11.933 -37.35,11.617 -37.75,11.25L-38.35,10.4L-36.3,10.25L-35.55,10.3L-35.55,9.65C-35.45,8.017 -36.233,7.333 -37.9,7.6L-38.25,7.65L-37.95,7.45C-36.85,6.717 -35.8,6.667 -34.8,7.3C-33.767,7.933 -33.35,8.5 -33.55,9C-34.283,9.467 -34.867,9.767 -35.3,9.9L-35.3,10.35C-34.5,10.483 -33.833,10.733 -33.3,11.1L-32.05,11.9L-33.5,11.95L-32.55,12.7L-34.9,12.4L-35.7,12.2L-37.8,12.9C-37.733,13.433 -37.817,14.2 -38.05,15.2C-38.55,15.633 -39.417,15.483 -40.65,14.75C-41.583,14.183 -42.067,13.4 -42.1,12.4L-42.1,11.7L-41.95,11.65C-41.683,11.55 -41.517,11.083 -41.45,10.25L-41.55,9.5L-41.45,10.25C-41.517,11.083 -41.683,11.55 -41.95,11.65L-42.1,11.7L-42.1,12.4L-42.35,12.55L-42.7,12.9L-41.95,13.55C-41.15,14.35 -41.15,15.317 -41.95,16.45L-43.25,18.3L-44.5,17.6L-45.7,19.15C-46.133,19.183 -46.45,18.583 -46.65,17.35C-46.783,16.083 -46.4,15 -45.5,14.1L-44.75,13.35L-46.15,14.4C-47.95,15.733 -49.317,16.217 -50.25,15.85L-51.75,15.35L-49.6,13.5C-50.033,13.467 -50.417,13.267 -50.75,12.9C-50.417,12.467 -49.283,11.817 -47.35,10.95L-45.7,10.4C-46.2,10 -46.483,9.517 -46.55,8.95L-46.85,7.45L-45.15,7.8C-45.283,7.433 -45.3,7 -45.2,6.5C-44.833,6.433 -44.1,6.833 -43,7.7C-42.267,8.333 -41.783,8.933 -41.55,9.5L-40.95,8.45C-40.55,8.083 -39.65,7.817 -38.25,7.65M-35.55,10.3L-35.3,10.35L-35.55,10.3M-43.05,11.5L-42.1,11.7L-43.05,11.5L-43.15,11.85L-44.05,12.75L-44.75,13.35L-44.05,12.75L-43.15,11.85L-43.05,11.5L-44.05,11.2C-44.183,11.133 -44.3,11.083 -44.4,11.05L-45.7,10.4L-44.4,11.05C-44.3,11.083 -44.183,11.133 -44.05,11.2L-43.05,11.5M-42.7,12.9C-43.1,12.633 -43.417,12.517 -43.65,12.55L-44.05,12.75L-43.65,12.55C-43.417,12.517 -43.1,12.633 -42.7,12.9" style="fill:#18880f;"/>
                <path d="M-24.35,-26.35C-24.483,-26.783 -24.8,-27.25 -25.3,-27.75C-25.767,-27.75 -26.2,-27.183 -26.6,-26.05C-26.967,-24.883 -26.767,-23.9 -26,-23.1L-25.65,-22.65C-25.183,-22.117 -24.8,-21.817 -24.5,-21.75L-24.35,-21.7C-23.917,-21.633 -23.233,-21.983 -22.3,-22.75C-21.3,-23.483 -21.15,-24.35 -21.85,-25.35L-22.85,-27.05M-24.5,-21.75L-23.8,-21.05C-23.633,-20.717 -23.933,-20.317 -24.7,-19.85L-24.7,-19.8C-24.6,-19.533 -24.583,-19.267 -24.65,-19C-24.617,-18.267 -24.8,-17.9 -25.2,-17.9C-25.567,-17.867 -26.55,-18.25 -28.15,-19.05L-30.05,-20.3L-30.6,-21L-31.75,-21.8L-31,-22.25L-31.2,-23.05M-32.35,-24.05L-30.7,-24.55L-29.45,-24.65C-28.617,-24.517 -27.667,-24.083 -26.6,-23.35L-25.65,-22.65M-18,-22.25C-17.833,-22.75 -17.783,-23.45 -17.85,-24.35C-18.283,-24.75 -19.233,-24.567 -20.7,-23.8C-22.167,-23.067 -22.85,-22.017 -22.75,-20.65L-22.75,-20.3L-22.6,-20.65C-21.7,-22.317 -20.333,-22.817 -18.5,-22.15L-17.7,-21.85L-17.5,-22.05L-15.25,-23.7L-13.4,-24.55M-29.15,-22.35L-29.25,-23.6C-28.817,-23.6 -27.917,-23.017 -26.55,-21.85C-25.617,-21.083 -25,-20.4 -24.7,-19.8M-27.3,-13.5C-27.867,-13.533 -28.4,-13.7 -28.9,-14C-28.733,-14.367 -27.733,-14.9 -25.9,-15.6C-24.667,-16.1 -23.65,-16.333 -22.85,-16.3L-23.65,-17.25C-23.783,-17.817 -23.483,-18.833 -22.75,-20.3M-22.85,-16.3L-21.85,-16.15C-20.917,-15.75 -20.483,-15.417 -20.55,-15.15L-20.65,-14.9L-19.85,-14.6C-18.65,-14.233 -17.367,-14.4 -16,-15.1C-14.267,-16.033 -13.467,-16.833 -13.6,-17.5C-14.6,-18.1 -15.45,-18.483 -16.15,-18.65M-15.55,-20.9C-16.517,-20.1 -17.383,-19.567 -18.15,-19.3L-19.6,-19.1L-18.3,-21.1L-17.7,-21.85M-20.65,-14.9L-21.5,-14L-21.25,-13.85C-21.083,-13.65 -20.933,-13.2 -20.8,-12.5L-20.7,-13.05L-19.65,-13.8L-19.8,-14.3L-19.85,-14.6M-21.5,-14L-22.9,-12.95C-23.533,-12.483 -24.167,-12.117 -24.8,-11.85L-25.2,-10.05C-25.567,-7.817 -25.55,-6.467 -25.15,-6C-24.517,-6.133 -24.033,-6.4 -23.7,-6.8M-23.05,-4L-21.45,-5.3C-20.35,-6.033 -19.967,-7.55 -20.3,-9.85L-20.6,-11.8L-20.6,-11.85L-20.65,-12L-20.8,-12.5M-30.6,-21L-30.85,-21.55L-31,-22.25M-24.8,-11.85L-26.95,-11.65L-28.95,-12M-14.3,-23.2C-13.867,-23.467 -13.367,-23.667 -12.8,-23.8L-14.8,-21.65L-15.55,-20.9M-19.65,-13.8L-18.3,-14.3C-16.8,-14.8 -15.667,-14.433 -14.9,-13.2L-13.6,-11.2M-15.3,-10.25C-14.933,-9.783 -14.6,-9.183 -14.3,-8.45L-17.1,-8.25C-18.633,-8.583 -19.633,-9.383 -20.1,-10.65L-20.6,-11.85M-33.65,3.6L-33.3,3.25L-32.8,2.25C-32.867,2.083 -33.05,2.017 -33.35,2.05L-34.55,2.25C-35.583,2.517 -36.35,3.117 -36.85,4.05L-37.15,4.65L-37.5,5.65L-37.5,5.85C-37.4,6.15 -36.917,6.467 -36.05,6.8C-35.183,7.1 -34.417,6.767 -33.75,5.8L-32.7,4.3M-39.85,1.9L-39.45,1.5L-38.9,1.05C-39.067,0.883 -39.267,0.767 -39.5,0.7L-39.85,1.9C-40.35,2.5 -40.683,3.4 -40.85,4.6C-41.05,6.067 -41.083,6.917 -40.95,7.15C-40.85,7.383 -40.483,7.317 -39.85,6.95L-39.25,6.55C-38.817,6.083 -38.4,5.333 -38,4.3C-37.433,2.8 -37.217,1.9 -37.35,1.6L-38.35,2.3M-38.9,1.05L-38.3,0.5M-37.85,-0.75L-36.95,0.15C-36.383,0.717 -36.333,1.833 -36.8,3.5L-37.15,4.65M-39.25,6.55L-39.2,6.55L-37.95,6.5L-37.5,5.65M-35.7,12.2C-36.667,11.933 -37.35,11.617 -37.75,11.25L-38.35,10.4L-36.3,10.25L-35.55,10.3L-35.55,9.65C-35.45,8.017 -36.233,7.333 -37.9,7.6L-38.25,7.65C-39.65,7.817 -40.55,8.083 -40.95,8.45L-41.55,9.5L-41.45,10.25C-41.517,11.083 -41.683,11.55 -41.95,11.65L-42.1,11.7L-42.1,12.4C-42.067,13.4 -41.583,14.183 -40.65,14.75C-39.417,15.483 -38.55,15.633 -38.05,15.2C-37.817,14.2 -37.733,13.433 -37.8,12.9M-35.7,12.2L-34.9,12.4L-32.55,12.7L-33.5,11.95M-32.05,11.9L-33.3,11.1C-33.833,10.733 -34.5,10.483 -35.3,10.35L-35.55,10.3M-35.3,9.9C-34.867,9.767 -34.283,9.467 -33.55,9C-33.35,8.5 -33.767,7.933 -34.8,7.3C-35.8,6.667 -36.85,6.717 -37.95,7.45L-38.25,7.65M-49.6,13.5C-50.033,13.467 -50.417,13.267 -50.75,12.9C-50.417,12.467 -49.283,11.817 -47.35,10.95L-45.7,10.4C-46.2,10 -46.483,9.517 -46.55,8.95L-46.85,7.45M-45.15,7.8C-45.283,7.433 -45.3,7 -45.2,6.5C-44.833,6.433 -44.1,6.833 -43,7.7C-42.267,8.333 -41.783,8.933 -41.55,9.5M-44.75,13.35L-44.05,12.75L-43.15,11.85L-43.05,11.5L-44.05,11.2C-44.183,11.133 -44.3,11.083 -44.4,11.05L-45.7,10.4M-42.1,11.7L-43.05,11.5M-42.1,12.4L-42.35,12.55L-42.7,12.9L-41.95,13.55C-41.15,14.35 -41.15,15.317 -41.95,16.45L-43.25,18.3M-44.5,17.6L-45.7,19.15C-46.133,19.183 -46.45,18.583 -46.65,17.35C-46.783,16.083 -46.4,15 -45.5,14.1L-44.75,13.35L-46.15,14.4C-47.95,15.733 -49.317,16.217 -50.25,15.85L-51.75,15.35M-44.05,12.75L-43.65,12.55C-43.417,12.517 -43.1,12.633 -42.7,12.9" style="fill:none;fill-rule:nonzero;stroke:#095801;stroke-width:3px;"/>
            </g>
            <g id="shape2" transform="matrix(2.7959,3.1953,-3.1617,2.2015,194.7,49.2999)">
                <path d="M-0.75,-3.65L0.2,-4.85C0.6,-4.817 0.967,-4.233 1.3,-3.1C1.6,-1.967 1.4,-1.05 0.7,-0.35C0,0.383 -0.517,0.75 -0.85,0.75C-1.217,0.75 -1.817,0.35 -2.65,-0.45C-3.517,-1.25 -3.633,-2.1 -3,-3L-2.05,-4.45L-0.75,-3.65" style="fill:#14760d;"/>
                <path d="M-0.75,-3.65L0.2,-4.85C0.6,-4.817 0.967,-4.233 1.3,-3.1C1.6,-1.967 1.4,-1.05 0.7,-0.35C0,0.383 -0.517,0.75 -0.85,0.75C-1.217,0.75 -1.817,0.35 -2.65,-0.45C-3.517,-1.25 -3.633,-2.1 -3,-3L-2.05,-4.45" style="fill:none;fill-rule:nonzero;stroke:#185e0b;stroke-width:0.25px;"/>
            </g>
            <g id="shape21" serif:id="shape2" transform="matrix(0.0344,2.9538,-3.2323,-0.3266,202.75,57.8501)">
                <path d="M-0.75,-3.65L0.2,-4.85C0.6,-4.817 0.967,-4.233 1.3,-3.1C1.6,-1.967 1.4,-1.05 0.7,-0.35C0,0.383 -0.517,0.75 -0.85,0.75C-1.217,0.75 -1.817,0.35 -2.65,-0.45C-3.517,-1.25 -3.633,-2.1 -3,-3L-2.05,-4.45L-0.75,-3.65" style="fill:#14760d;"/>
                <path d="M-0.75,-3.65L0.2,-4.85C0.6,-4.817 0.967,-4.233 1.3,-3.1C1.6,-1.967 1.4,-1.05 0.7,-0.35C0,0.383 -0.517,0.75 -0.85,0.75C-1.217,0.75 -1.817,0.35 -2.65,-0.45C-3.517,-1.25 -3.633,-2.1 -3,-3L-2.05,-4.45" style="fill:none;fill-rule:nonzero;stroke:#185e0b;stroke-width:0.25px;"/>
            </g>
            <g id="shape22" serif:id="shape2" transform="matrix(2.102,-0.9653,2.9676,1.4891,185.75,46.3001)">
                <path d="M-0.75,-3.65L0.2,-4.85C0.6,-4.817 0.967,-4.233 1.3,-3.1C1.6,-1.967 1.4,-1.05 0.7,-0.35C0,0.383 -0.517,0.75 -0.85,0.75C-1.217,0.75 -1.817,0.35 -2.65,-0.45C-3.517,-1.25 -3.633,-2.1 -3,-3L-2.05,-4.45L-0.75,-3.65" style="fill:#14760d;"/>
                <path d="M-0.75,-3.65L0.2,-4.85C0.6,-4.817 0.967,-4.233 1.3,-3.1C1.6,-1.967 1.4,-1.05 0.7,-0.35C0,0.383 -0.517,0.75 -0.85,0.75C-1.217,0.75 -1.817,0.35 -2.65,-0.45C-3.517,-1.25 -3.633,-2.1 -3,-3L-2.05,-4.45" style="fill:none;fill-rule:nonzero;stroke:#185e0b;stroke-width:0.25px;"/>
            </g>
            <g id="shape23" serif:id="shape2" transform="matrix(-2.9987,-1.7882,-0.5246,-4.0682,196.3,55.0501)">
                <path d="M-0.75,-3.65L0.2,-4.85C0.6,-4.817 0.967,-4.233 1.3,-3.1C1.6,-1.967 1.4,-1.05 0.7,-0.35C0,0.383 -0.517,0.75 -0.85,0.75C-1.217,0.75 -1.817,0.35 -2.65,-0.45C-3.517,-1.25 -3.633,-2.1 -3,-3L-2.05,-4.45L-0.75,-3.65" style="fill:#14760d;"/>
                <path d="M-0.75,-3.65L0.2,-4.85C0.6,-4.817 0.967,-4.233 1.3,-3.1C1.6,-1.967 1.4,-1.05 0.7,-0.35C0,0.383 -0.517,0.75 -0.85,0.75C-1.217,0.75 -1.817,0.35 -2.65,-0.45C-3.517,-1.25 -3.633,-2.1 -3,-3L-2.05,-4.45" style="fill:none;fill-rule:nonzero;stroke:#185e0b;stroke-width:0.25px;"/>
            </g>
            <g id="shape24" serif:id="shape2" transform="matrix(-4.8497,-2.0194,-1.6238,4.2464,183.95,46.7501)">
                <path d="M-0.75,-3.65L0.2,-4.85C0.6,-4.817 0.967,-4.233 1.3,-3.1C1.6,-1.967 1.4,-1.05 0.7,-0.35C0,0.383 -0.517,0.75 -0.85,0.75C-1.217,0.75 -1.817,0.35 -2.65,-0.45C-3.517,-1.25 -3.633,-2.1 -3,-3L-2.05,-4.45L-0.75,-3.65" style="fill:#14760d;"/>
                <path d="M-0.75,-3.65L0.2,-4.85C0.6,-4.817 0.967,-4.233 1.3,-3.1C1.6,-1.967 1.4,-1.05 0.7,-0.35C0,0.383 -0.517,0.75 -0.85,0.75C-1.217,0.75 -1.817,0.35 -2.65,-0.45C-3.517,-1.25 -3.633,-2.1 -3,-3L-2.05,-4.45" style="fill:none;fill-rule:nonzero;stroke:#185e0b;stroke-width:0.25px;"/>
            </g>
            <g id="shape25" serif:id="shape2" transform="matrix(-3.6223,0.9589,1.4904,3.4712,170.9,40.6002)">
                <path d="M-0.75,-3.65L0.2,-4.85C0.6,-4.817 0.967,-4.233 1.3,-3.1C1.6,-1.967 1.4,-1.05 0.7,-0.35C0,0.383 -0.517,0.75 -0.85,0.75C-1.217,0.75 -1.817,0.35 -2.65,-0.45C-3.517,-1.25 -3.633,-2.1 -3,-3L-2.05,-4.45L-0.75,-3.65" style="fill:#14760d;"/>
                <path d="M-0.75,-3.65L0.2,-4.85C0.6,-4.817 0.967,-4.233 1.3,-3.1C1.6,-1.967 1.4,-1.05 0.7,-0.35C0,0.383 -0.517,0.75 -0.85,0.75C-1.217,0.75 -1.817,0.35 -2.65,-0.45C-3.517,-1.25 -3.633,-2.1 -3,-3L-2.05,-4.45" style="fill:none;fill-rule:nonzero;stroke:#185e0b;stroke-width:0.25px;"/>
            </g>
            <g id="shape26" serif:id="shape2" transform="matrix(0.4704,-2.655,-2.8221,-2.7856,190.6,55.65)">
                <path d="M-0.75,-3.65L0.2,-4.85C0.6,-4.817 0.967,-4.233 1.3,-3.1C1.6,-1.967 1.4,-1.05 0.7,-0.35C0,0.383 -0.517,0.75 -0.85,0.75C-1.217,0.75 -1.817,0.35 -2.65,-0.45C-3.517,-1.25 -3.633,-2.1 -3,-3L-2.05,-4.45L-0.75,-3.65" style="fill:#14760d;"/>
                <path d="M-0.75,-3.65L0.2,-4.85C0.6,-4.817 0.967,-4.233 1.3,-3.1C1.6,-1.967 1.4,-1.05 0.7,-0.35C0,0.383 -0.517,0.75 -0.85,0.75C-1.217,0.75 -1.817,0.35 -2.65,-0.45C-3.517,-1.25 -3.633,-2.1 -3,-3L-2.05,-4.45" style="fill:none;fill-rule:nonzero;stroke:#185e0b;stroke-width:0.25px;"/>
            </g>
            <g id="shape27" serif:id="shape2" transform="matrix(3.1982,2.719,5.15,-0.792,176,46.9498)">
                <path d="M-0.75,-3.65L0.2,-4.85C0.6,-4.817 0.967,-4.233 1.3,-3.1C1.6,-1.967 1.4,-1.05 0.7,-0.35C0,0.383 -0.517,0.75 -0.85,0.75C-1.217,0.75 -1.817,0.35 -2.65,-0.45C-3.517,-1.25 -3.633,-2.1 -3,-3L-2.05,-4.45L-0.75,-3.65" style="fill:#14760d;"/>
                <path d="M-0.75,-3.65L0.2,-4.85C0.6,-4.817 0.967,-4.233 1.3,-3.1C1.6,-1.967 1.4,-1.05 0.7,-0.35C0,0.383 -0.517,0.75 -0.85,0.75C-1.217,0.75 -1.817,0.35 -2.65,-0.45C-3.517,-1.25 -3.633,-2.1 -3,-3L-2.05,-4.45" style="fill:none;fill-rule:nonzero;stroke:#185e0b;stroke-width:0.25px;"/>
            </g>
            <g id="shape28" serif:id="shape2" transform="matrix(-1.5479,-0.3956,-3.2844,2.7582,195,39.25)">
                <path d="M-0.75,-3.65L0.2,-4.85C0.6,-4.817 0.967,-4.233 1.3,-3.1C1.6,-1.967 1.4,-1.05 0.7,-0.35C0,0.383 -0.517,0.75 -0.85,0.75C-1.217,0.75 -1.817,0.35 -2.65,-0.45C-3.517,-1.25 -3.633,-2.1 -3,-3L-2.05,-4.45L-0.75,-3.65" style="fill:#14760d;"/>
                <path d="M-0.75,-3.65L0.2,-4.85C0.6,-4.817 0.967,-4.233 1.3,-3.1C1.6,-1.967 1.4,-1.05 0.7,-0.35C0,0.383 -0.517,0.75 -0.85,0.75C-1.217,0.75 -1.817,0.35 -2.65,-0.45C-3.517,-1.25 -3.633,-2.1 -3,-3L-2.05,-4.45" style="fill:none;fill-rule:nonzero;stroke:#185e0b;stroke-width:0.25px;"/>
            </g>
            <g id="shape29" serif:id="shape2" transform="matrix(2.9662,-0.3604,1.6622,-3.8639,182.6,45.4002)">
                <path d="M-0.75,-3.65L0.2,-4.85C0.6,-4.817 0.967,-4.233 1.3,-3.1C1.6,-1.967 1.4,-1.05 0.7,-0.35C0,0.383 -0.517,0.75 -0.85,0.75C-1.217,0.75 -1.817,0.35 -2.65,-0.45C-3.517,-1.25 -3.633,-2.1 -3,-3L-2.05,-4.45L-0.75,-3.65" style="fill:#14760d;"/>
                <path d="M-0.75,-3.65L0.2,-4.85C0.6,-4.817 0.967,-4.233 1.3,-3.1C1.6,-1.967 1.4,-1.05 0.7,-0.35C0,0.383 -0.517,0.75 -0.85,0.75C-1.217,0.75 -1.817,0.35 -2.65,-0.45C-3.517,-1.25 -3.633,-2.1 -3,-3L-2.05,-4.45" style="fill:none;fill-rule:nonzero;stroke:#185e0b;stroke-width:0.25px;"/>
            </g>
            <g id="shape210" serif:id="shape2" transform="matrix(3.9503,-0.969,0.3335,2.7904,104.1,81.1002)">
                <path d="M-0.75,-3.65L0.2,-4.85C0.6,-4.817 0.967,-4.233 1.3,-3.1C1.6,-1.967 1.4,-1.05 0.7,-0.35C0,0.383 -0.517,0.75 -0.85,0.75C-1.217,0.75 -1.817,0.35 -2.65,-0.45C-3.517,-1.25 -3.633,-2.1 -3,-3L-2.05,-4.45L-0.75,-3.65" style="fill:#14760d;"/>
                <path d="M-0.75,-3.65L0.2,-4.85C0.6,-4.817 0.967,-4.233 1.3,-3.1C1.6,-1.967 1.4,-1.05 0.7,-0.35C0,0.383 -0.517,0.75 -0.85,0.75C-1.217,0.75 -1.817,0.35 -2.65,-0.45C-3.517,-1.25 -3.633,-2.1 -3,-3L-2.05,-4.45" style="fill:none;fill-rule:nonzero;stroke:#185e0b;stroke-width:0.25px;"/>
            </g>
            <g id="shape211" serif:id="shape2" transform="matrix(2.4547,0.8374,-1.7868,2.1016,115.05,77.9501)">
                <path d="M-0.75,-3.65L0.2,-4.85C0.6,-4.817 0.967,-4.233 1.3,-3.1C1.6,-1.967 1.4,-1.05 0.7,-0.35C0,0.383 -0.517,0.75 -0.85,0.75C-1.217,0.75 -1.817,0.35 -2.65,-0.45C-3.517,-1.25 -3.633,-2.1 -3,-3L-2.05,-4.45L-0.75,-3.65" style="fill:#14760d;"/>
                <path d="M-0.75,-3.65L0.2,-4.85C0.6,-4.817 0.967,-4.233 1.3,-3.1C1.6,-1.967 1.4,-1.05 0.7,-0.35C0,0.383 -0.517,0.75 -0.85,0.75C-1.217,0.75 -1.817,0.35 -2.65,-0.45C-3.517,-1.25 -3.633,-2.1 -3,-3L-2.05,-4.45" style="fill:none;fill-rule:nonzero;stroke:#185e0b;stroke-width:0.25px;"/>
            </g>
            <g id="shape212" serif:id="shape2" transform="matrix(0.1897,-1.7099,2.6223,-1.583,97.4001,86.1999)">
                <path d="M-0.75,-3.65L0.2,-4.85C0.6,-4.817 0.967,-4.233 1.3,-3.1C1.6,-1.967 1.4,-1.05 0.7,-0.35C0,0.383 -0.517,0.75 -0.85,0.75C-1.217,0.75 -1.817,0.35 -2.65,-0.45C-3.517,-1.25 -3.633,-2.1 -3,-3L-2.05,-4.45L-0.75,-3.65" style="fill:#14760d;"/>
                <path d="M-0.75,-3.65L0.2,-4.85C0.6,-4.817 0.967,-4.233 1.3,-3.1C1.6,-1.967 1.4,-1.05 0.7,-0.35C0,0.383 -0.517,0.75 -0.85,0.75C-1.217,0.75 -1.817,0.35 -2.65,-0.45C-3.517,-1.25 -3.633,-2.1 -3,-3L-2.05,-4.45" style="fill:none;fill-rule:nonzero;stroke:#185e0b;stroke-width:0.25px;"/>
            </g>
            <g id="shape213" serif:id="shape2" transform="matrix(-2.8838,1.5169,-3.6049,-0.829,109.75,81.6498)">
                <path d="M-0.75,-3.65L0.2,-4.85C0.6,-4.817 0.967,-4.233 1.3,-3.1C1.6,-1.967 1.4,-1.05 0.7,-0.35C0,0.383 -0.517,0.75 -0.85,0.75C-1.217,0.75 -1.817,0.35 -2.65,-0.45C-3.517,-1.25 -3.633,-2.1 -3,-3L-2.05,-4.45L-0.75,-3.65" style="fill:#14760d;"/>
                <path d="M-0.75,-3.65L0.2,-4.85C0.6,-4.817 0.967,-4.233 1.3,-3.1C1.6,-1.967 1.4,-1.05 0.7,-0.35C0,0.383 -0.517,0.75 -0.85,0.75C-1.217,0.75 -1.817,0.35 -2.65,-0.45C-3.517,-1.25 -3.633,-2.1 -3,-3L-2.05,-4.45" style="fill:none;fill-rule:nonzero;stroke:#185e0b;stroke-width:0.25px;"/>
            </g>
            <g id="shape214" serif:id="shape2" transform="matrix(-3.9435,2.7076,2.7435,2.3411,97.0999,87.4501)">
                <path d="M-0.75,-3.65L0.2,-4.85C0.6,-4.817 0.967,-4.233 1.3,-3.1C1.6,-1.967 1.4,-1.05 0.7,-0.35C0,0.383 -0.517,0.75 -0.85,0.75C-1.217,0.75 -1.817,0.35 -2.65,-0.45C-3.517,-1.25 -3.633,-2.1 -3,-3L-2.05,-4.45L-0.75,-3.65" style="fill:#14760d;"/>
                <path d="M-0.75,-3.65L0.2,-4.85C0.6,-4.817 0.967,-4.233 1.3,-3.1C1.6,-1.967 1.4,-1.05 0.7,-0.35C0,0.383 -0.517,0.75 -0.85,0.75C-1.217,0.75 -1.817,0.35 -2.65,-0.45C-3.517,-1.25 -3.633,-2.1 -3,-3L-2.05,-4.45" style="fill:none;fill-rule:nonzero;stroke:#185e0b;stroke-width:0.25px;"/>
            </g>
            <g id="shape215" serif:id="shape2" transform="matrix(-0.9086,2.7413,3.5652,-0.0013,85.7998,94.7001)">
                <path d="M-0.75,-3.65L0.2,-4.85C0.6,-4.817 0.967,-4.233 1.3,-3.1C1.6,-1.967 1.4,-1.05 0.7,-0.35C0,0.383 -0.517,0.75 -0.85,0.75C-1.217,0.75 -1.817,0.35 -2.65,-0.45C-3.517,-1.25 -3.633,-2.1 -3,-3L-2.05,-4.45L-0.75,-3.65" style="fill:#14760d;"/>
                <path d="M-0.75,-3.65L0.2,-4.85C0.6,-4.817 0.967,-4.233 1.3,-3.1C1.6,-1.967 1.4,-1.05 0.7,-0.35C0,0.383 -0.517,0.75 -0.85,0.75C-1.217,0.75 -1.817,0.35 -2.65,-0.45C-3.517,-1.25 -3.633,-2.1 -3,-3L-2.05,-4.45" style="fill:none;fill-rule:nonzero;stroke:#185e0b;stroke-width:0.25px;"/>
            </g>
            <g id="shape216" serif:id="shape2" transform="matrix(-1.971,-1.0934,-3.6243,1.1062,107.6,85.6497)">
                <path d="M-0.75,-3.65L0.2,-4.85C0.6,-4.817 0.967,-4.233 1.3,-3.1C1.6,-1.967 1.4,-1.05 0.7,-0.35C0,0.383 -0.517,0.75 -0.85,0.75C-1.217,0.75 -1.817,0.35 -2.65,-0.45C-3.517,-1.25 -3.633,-2.1 -3,-3L-2.05,-4.45L-0.75,-3.65" style="fill:#14760d;"/>
                <path d="M-0.75,-3.65L0.2,-4.85C0.6,-4.817 0.967,-4.233 1.3,-3.1C1.6,-1.967 1.4,-1.05 0.7,-0.35C0,0.383 -0.517,0.75 -0.85,0.75C-1.217,0.75 -1.817,0.35 -2.65,-0.45C-3.517,-1.25 -3.633,-2.1 -3,-3L-2.05,-4.45" style="fill:none;fill-rule:nonzero;stroke:#185e0b;stroke-width:0.25px;"/>
            </g>
            <g id="shape217" serif:id="shape2" transform="matrix(3.7458,-1.3813,1.7635,-3.7309,93.5,92.8498)">
                <path d="M-0.75,-3.65L0.2,-4.85C0.6,-4.817 0.967,-4.233 1.3,-3.1C1.6,-1.967 1.4,-1.05 0.7,-0.35C0,0.383 -0.517,0.75 -0.85,0.75C-1.217,0.75 -1.817,0.35 -2.65,-0.45C-3.517,-1.25 -3.633,-2.1 -3,-3L-2.05,-4.45L-0.75,-3.65" style="fill:#14760d;"/>
                <path d="M-0.75,-3.65L0.2,-4.85C0.6,-4.817 0.967,-4.233 1.3,-3.1C1.6,-1.967 1.4,-1.05 0.7,-0.35C0,0.383 -0.517,0.75 -0.85,0.75C-1.217,0.75 -1.817,0.35 -2.65,-0.45C-3.517,-1.25 -3.633,-2.1 -3,-3L-2.05,-4.45" style="fill:none;fill-rule:nonzero;stroke:#185e0b;stroke-width:0.25px;"/>
            </g>
            <g id="shape218" serif:id="shape2" transform="matrix(-1.0531,0.9368,0.7355,3.0361,96.1501,77.8003)">
                <path d="M-0.75,-3.65L0.2,-4.85C0.6,-4.817 0.967,-4.233 1.3,-3.1C1.6,-1.967 1.4,-1.05 0.7,-0.35C0,0.383 -0.517,0.75 -0.85,0.75C-1.217,0.75 -1.817,0.35 -2.65,-0.45C-3.517,-1.25 -3.633,-2.1 -3,-3L-2.05,-4.45L-0.75,-3.65" style="fill:#14760d;"/>
                <path d="M-0.75,-3.65L0.2,-4.85C0.6,-4.817 0.967,-4.233 1.3,-3.1C1.6,-1.967 1.4,-1.05 0.7,-0.35C0,0.383 -0.517,0.75 -0.85,0.75C-1.217,0.75 -1.817,0.35 -2.65,-0.45C-3.517,-1.25 -3.633,-2.1 -3,-3L-2.05,-4.45" style="fill:none;fill-rule:nonzero;stroke:#185e0b;stroke-width:0.25px;"/>
            </g>
            <g id="shape219" serif:id="shape2" transform="matrix(1.0947,-2.121,-2.4098,-2.2557,95.2998,88.2001)">
                <path d="M-0.75,-3.65L0.2,-4.85C0.6,-4.817 0.967,-4.233 1.3,-3.1C1.6,-1.967 1.4,-1.05 0.7,-0.35C0,0.383 -0.517,0.75 -0.85,0.75C-1.217,0.75 -1.817,0.35 -2.65,-0.45C-3.517,-1.25 -3.633,-2.1 -3,-3L-2.05,-4.45L-0.75,-3.65" style="fill:#14760d;"/>
                <path d="M-0.75,-3.65L0.2,-4.85C0.6,-4.817 0.967,-4.233 1.3,-3.1C1.6,-1.967 1.4,-1.05 0.7,-0.35C0,0.383 -0.517,0.75 -0.85,0.75C-1.217,0.75 -1.817,0.35 -2.65,-0.45C-3.517,-1.25 -3.633,-2.1 -3,-3L-2.05,-4.45" style="fill:none;fill-rule:nonzero;stroke:#185e0b;stroke-width:0.25px;"/>
            </g>
        </g>
    </g>
</svg>
