<?xml version="1.0" encoding="UTF-8"?>
<svg version="1.1" viewBox="0 0 145.45 57.048" xmlns="http://www.w3.org/2000/svg" xmlns:cc="http://creativecommons.org/ns#" xmlns:dc="http://purl.org/dc/elements/1.1/" xmlns:rdf="http://www.w3.org/1999/02/22-rdf-syntax-ns#" xmlns:xlink="http://www.w3.org/1999/xlink">
<metadata>
<rdf:RDF>
<cc:Work rdf:about="">
<dc:format>image/svg+xml</dc:format>
<dc:type rdf:resource="http://purl.org/dc/dcmitype/StillImage"/>
</cc:Work>
</rdf:RDF>
</metadata>
<g transform="translate(-181.38 -133.98)">
<use transform="translate(181.4,134)" width="145.39999" height="57" xlink:href="#b"/>
</g>
<defs>
<g id="b" transform="translate(72.7,28.5)">
<use transform="translate(-72.7,-28.5)" width="145.39999" height="57" xlink:href="#d"/>
<use transform="matrix(.4889 0 0 1 -7.95 -8.6)" width="4.5500002" height="2.9000001" xlink:href="#a"/>
<use transform="matrix(.587 0 0 1 8.8793 -16.95)" width="4.5500002" height="2.9000001" xlink:href="#a"/>
<use transform="matrix(.587 0 0 1 4.5793 -25.3)" width="4.5500002" height="2.9000001" xlink:href="#a"/>
<use transform="matrix(.587 0 0 1 -19.871 -10.4)" width="4.5500002" height="2.9000001" xlink:href="#a"/>
<use transform="matrix(.587 0 0 1 48.829 -13.05)" width="4.5500002" height="2.9000001" xlink:href="#a"/>
<use transform="translate(55.1,-17.75)" width="4.5500002" height="2.9000001" xlink:href="#a"/>
<use transform="matrix(.4209 0 0 .7171 26.103 -12.49)" width="4.5500002" height="2.9000001" xlink:href="#a"/>
<use transform="matrix(.7171 0 0 .7171 26.087 -18.59)" width="4.5500002" height="2.9000001" xlink:href="#a"/>
<use transform="matrix(.7171 0 0 .7171 28.637 -7.7898)" width="4.5500002" height="2.9000001" xlink:href="#a"/>
<use transform="matrix(.3506 0 0 .7171 -3.2888 -12.79)" width="4.5500002" height="2.9000001" xlink:href="#a"/>
<use transform="matrix(.7171 0 0 .7171 -7.9634 -14.84)" width="4.5500002" height="2.9000001" xlink:href="#a"/>
<use transform="matrix(.4209 0 0 .7171 24.053 3.3102)" width="4.5500002" height="2.9000001" xlink:href="#a"/>
<use transform="matrix(.3506 0 0 .7171 25.161 4.3602)" width="4.5500002" height="2.9000001" xlink:href="#a"/>
<use transform="matrix(.7171 0 0 .7171 18.237 7.0102)" width="4.5500002" height="2.9000001" xlink:href="#a"/>
<use transform="matrix(.4209 0 0 .7171 49.603 -3.9898)" width="4.5500002" height="2.9000001" xlink:href="#a"/>
<use transform="matrix(.3506 0 0 .7171 19.911 13.41)" width="4.5500002" height="2.9000001" xlink:href="#a"/>
<use transform="matrix(.7171 0 0 .7171 26.587 16.61)" width="4.5500002" height="2.9000001" xlink:href="#a"/>
<use transform="matrix(.4209 0 0 .7171 32.353 2.3102)" width="4.5500002" height="2.9000001" xlink:href="#a"/>
<use transform="matrix(.7171 0 0 .7171 23.537 1.7602)" width="4.5500002" height="2.9000001" xlink:href="#a"/>
<use transform="matrix(.7171 0 0 .7171 34.887 7.0102)" width="4.5500002" height="2.9000001" xlink:href="#a"/>
<use transform="matrix(.4209 0 0 .7171 -26.547 -3.0398)" width="4.5500002" height="2.9000001" xlink:href="#a"/>
<use transform="matrix(.3506 0 0 .7171 -30.689 -1.5398)" width="4.5500002" height="2.9000001" xlink:href="#a"/>
<use transform="matrix(.7171 0 0 .7171 -24.013 1.6602)" width="4.5500002" height="2.9000001" xlink:href="#a"/>
<use transform="matrix(.4209 0 0 .7171 -45.797 -11.49)" width="4.5500002" height="2.9000001" xlink:href="#a"/>
<use transform="matrix(.3506 0 0 .7171 -49.939 -9.9898)" width="4.5500002" height="2.9000001" xlink:href="#a"/>
<use transform="matrix(.7171 0 0 .7171 -54.613 -12.04)" width="4.5500002" height="2.9000001" xlink:href="#a"/>
<use transform="matrix(.7171 0 0 .7171 -43.263 -6.7898)" width="4.5500002" height="2.9000001" xlink:href="#a"/>
<use transform="matrix(.7171 0 0 .7171 18.237 -12.79)" width="4.5500002" height="2.9000001" xlink:href="#a"/>
<use transform="matrix(.7171 0 0 .7171 11.537 -17.74)" width="4.5500002" height="2.9000001" xlink:href="#a"/>
</g>
<g id="d" transform="translate(72.7,28.5)">
<path d="m-72.7-16.5q0.9-1.25 4 0.5l5 5.85q10.95 3.1 9.8 6.15-5.25-4.3-11.5-4.15l-7.3-8.35m142.25-6.85 3.15-0.05q-9.25 25.25-35.35 44.95-12.45 9.15-46.95 6.25-11.4-6.95-20.85 0-5.15-7.3-20.35-13l-8.3-13.05 2.4-0.15 7.15 11.65q13.75 3.25 19.75 10.65 12.65-3.7 19.7 0.5 24 3.2 38-0.7 23.65-9.8 41.65-47.05m-106.9 17.85q-2.6 0.9-1.75-1.65 7.1-3.4 15.1-3.5 2.7 2.35 0 2.05-2.05-0.75-11.6 1.5-1.9 1.05-1.75 1.6m35.8 18.3q-1.45 0.2-1.2-2.3 7.1-3.1 13.3-1.4 1.6 2.7 0 2.9-1.4-1.7-7.1-0.85-4 0.85-5 1.65m10.25 3.75h4.5q2.4 2.45 0 1.5l-3.3-0.2q-2.4 0.45-2.65 0.95l-0.6-1.75 2.05-0.5" fill="#45c0c0" fill-rule="evenodd"/>
<path d="m-68.7-16q34.65 3.95 55.35-1.9 12.5-3.5 19.9-10.6l12 3.15-1.75 1.35q-2.9 2.7 0 5.3l0.85 0.65q6.85 3.15 11.55-8.25-0.25 3.35 2.9 5.65 15.8 6.25 37.45-2.7-18 37.25-41.65 47.05-14 3.9-38 0.7-7.05-4.2-19.7-0.5-6-7.4-19.75-10.65l-7.15-11.65q7.3-0.85 2.8-5.6 1.15-3.05-9.8-6.15l-5-5.85m31.65 10.85q1.3 0.7 8.7 0.1 5.55 2 4.9-3.05l-0.55-0.5q2.7 0.3 0-2.05-8 0.1-15.1 3.5-0.85 2.55 1.75 1.65l0.3 0.35m35.5 17.95q-0.6 0.5-0.2 0.95 3.95 3.95 8.4 3.3l0.6 1.75 0.05 0.35q2.75 2.75 5.95 1.05 0.8-1.6-0.05-2.15 2.4 0.95 0-1.5h-4.5l1.5-0.7q1.4-2.65 0.35-3.85 1.6-0.2 0-2.9-6.2-1.7-13.3 1.4-0.25 2.5 1.2 2.3" fill="#399" fill-rule="evenodd"/>
<path d="m-72.7-16.5q0.9-1.25 4 0.5 34.65 3.95 55.35-1.9 12.5-3.5 19.9-10.6m-30.55 19.9 0.55 0.5q0.65 5.05-4.9 3.05-7.4 0.6-8.7-0.1m13.05-3.45q-2.05-0.75-11.6 1.5-1.9 1.05-1.75 1.6m50.55 23.55q0.85 0.55 0.05 2.15-3.2 1.7-5.95-1.05l-0.05-0.35q0.25-0.5 2.65-0.95l3.3 0.2" fill="none" stroke="#574133" stroke-linecap="round" stroke-linejoin="round" stroke-opacity=".6" stroke-width=".05"/>
<path d="m6.55-28.5 12 3.15-1.75 1.35q-2.9 2.7 0 5.3l0.85 0.65q6.85 3.15 11.55-8.25-0.25 3.35 2.9 5.65 15.8 6.25 37.45-2.7l3.15-0.05q-9.25 25.25-35.35 44.95-12.45 9.15-46.95 6.25-11.4-6.95-20.85 0-5.15-7.3-20.35-13l-8.3-13.05 2.4-0.15q7.3-0.85 2.8-5.6-5.25-4.3-11.5-4.15l-7.3-8.35m79.35 33.55q-4.45 0.65-8.4-3.3-0.4-0.45 0.2-0.95 1-0.8 5-1.65 5.7-0.85 7.1 0.85 1.05 1.2-0.35 3.85l-1.5 0.7m-2.05 0.5 2.05-0.5" fill="none" stroke="#574133" stroke-linecap="round" stroke-linejoin="round" stroke-opacity=".6" stroke-width=".05"/>
</g>
<g id="a" transform="translate(2.25,1.45)">
<use transform="translate(-2.25,-1.45)" width="4.5500002" height="2.9000001" xlink:href="#c"/>
</g>
<g id="c" transform="translate(2.25,1.45)">
<path d="m0.4-1.45h0.25q1.75 0 1.65 1.35l-0.7 0.9q-0.75 0.65-1.45 0.65-2.4 0-2.4-0.9l0.1-0.25-0.1-0.1q1.25-0.55 1.6-1.2 0.2-0.45 0.95-0.45h0.1" fill="#277676" fill-rule="evenodd"/>
</g>
</defs>
</svg>
