<?xml version="1.0" encoding="UTF-8"?>
<svg version="1.1" viewBox="0 0 147.19 148.7" xmlns="http://www.w3.org/2000/svg" xmlns:cc="http://creativecommons.org/ns#" xmlns:dc="http://purl.org/dc/elements/1.1/" xmlns:rdf="http://www.w3.org/1999/02/22-rdf-syntax-ns#" xmlns:xlink="http://www.w3.org/1999/xlink">
<metadata>
<rdf:RDF>
<cc:Work rdf:about="">
<dc:format>image/svg+xml</dc:format>
<dc:type rdf:resource="http://purl.org/dc/dcmitype/StillImage"/>
</cc:Work>
</rdf:RDF>
</metadata>
<g transform="translate(-201.86 -125.6)">
<use transform="translate(201.85,125.6)" width="147.2" height="148.7" xlink:href="#a"/>
</g>
<defs>
<g id="a" transform="translate(73.6,74.35)">
<use transform="translate(-73.6,-74.35)" width="147.2" height="148.7" xlink:href="#b"/>
</g>
<g id="b" transform="translate(73.6,74.35)">
<path d="m3.65-69.9-2.25-0.4-0.85-0.25-2.3-0.5-0.5-0.05-4.15 0.35h-0.05l-1.25 0.25-2.3 0.8-0.7 0.4-0.75 0.5-0.6 0.45q0.25 5.35-1.35 10.25l-0.55 2.2q-0.55 4-2.6 7.6l-4.4 0.6q7-10.95 8-19.85l0.1-1.4 0.65-0.85 0.05-0.05q2.7-3.35 5.75-3.9 1.2-0.2 2.45 0 5.25 0.85 7.6 3.85" fill="#eae1bf" fill-rule="evenodd"/>
<path d="m-6.45-70.75h0.05l4.15-0.35 0.5 0.05 2.3 0.5 0.85 0.25 2.25 0.4-0.6 1.2q-2 3.7-3.1 7.35l-0.2 0.95-0.15 0.9-0.3-0.5-0.25-1.8-0.4-1.8q-0.55-1.85-1.75-2.7l0.05 4.95q0.05 4.25-1.9 7.75l-0.3-0.5-0.55-2.25-0.5-4.5q-1.15 4.7-4 9.05l-2.1 3.25-2.65 0.1 0.9-1.65q3.35-6 5.8-12.55 1.15-3.15 1.75-6.35l0.1-0.95 0.05-0.8" fill="#c1a846" fill-rule="evenodd"/>
<path d="m-16.55-48.3q2.05-3.6 2.6-7.6l0.55-2.2q1.6-4.9 1.35-10.25l0.6-0.45 0.75-0.5 0.7-0.4 2.3-0.8 1.25-0.25-0.05 0.8-0.1 0.95q-0.6 3.2-1.75 6.35-2.45 6.55-5.8 12.55l-0.9 1.65-1.5 0.15" fill="#d2c079" fill-rule="evenodd"/>
<path d="m-12.4-48.55 2.1-3.25q2.85-4.35 4-9.05l0.5 4.5 0.55 2.25 0.3 0.5q1.95-3.5 1.9-7.75l-0.05-4.95q1.2 0.85 1.75 2.7l0.4 1.8 0.25 1.8 0.3 0.5 0.15-0.9 0.2-0.95q1.1-3.65 3.1-7.35l0.6-1.2q1 1.3 1.5 3-3.75 10-1.5 22.5l-1.5-0.8v-0.05q-1.35-6.35-0.75-12.9-0.8 2.5-1.3 5-0.5 2.2-1.25 3.85l-0.45-0.7-0.35-1.75q-0.35-1.4-0.3-2.9h-0.2l-1.75 4.45-0.95 2.4-7.25-0.75" fill="#998433" fill-rule="evenodd"/>
<path d="m-5.15-47.8 0.95-2.4 1.75-4.45h0.2q-0.05 1.5 0.3 2.9l0.35 1.75 0.45 0.7q0.75-1.65 1.25-3.85 0.5-2.5 1.3-5-0.6 6.55 0.75 12.9v0.05q-3.45-1.75-7.3-2.6" fill="#6f6025" fill-rule="evenodd"/>
<path d="m3.65-69.9q-2.35-3-7.6-3.85-1.25-0.2-2.45 0-3.05 0.55-5.75 3.9l-0.05 0.05-0.65 0.85-0.1 1.4q-1 8.9-8 19.85l4.4-0.6m1.5-0.15 2.65-0.1m14.55 3.35 1.5 0.8q-2.25-12.5 1.5-22.5-0.5-1.7-1.5-3m-1.5 24.7q-3.45-1.75-7.3-2.6l-7.25-0.75m-2.65 0.1-1.5 0.15" fill="none" stroke="#000" stroke-linecap="round" stroke-linejoin="round" stroke-opacity=".4"/>
<path d="m-20.45-50.25-7.55 5.35q6.8 0.25 13.6-0.2 15.7-1.1 21.85 8.8l-11.05 2q-2.75-7.45-11.55-7.5-4.95 0-9.55 1.95-13.8 5.7-27.05 6.45 13.35-13.15 31.3-16.85m-11.1 40.3-2 0.15v-0.05q21.95-13.2 47.4-9.4 2.5 3.25 1.55 7.3-1.5 6.3-6.45 10.2l-0.45-7.15q-9.9 19-33.65 22.65-4.15 0.6-7.15-2.25-9.4-8.8 0.75-21.45" fill="#eae1bf" fill-rule="evenodd"/>
<path d="m-51.75-33.4q13.25-0.75 27.05-6.45 4.6-1.95 9.55-1.95 8.8 0.05 11.55 7.5l11.05-2q-6.15-9.9-21.85-8.8-6.8 0.45-13.6 0.2l7.55-5.35 1.05-0.2q26.1-3.4 36 17.25-6.6 1.35-14.25 4.25-9.35 4.3-17.7 10.4 14-6.65 29.35-6.5l5.2 4.15q15.2 13.75-0.5 23.95l-0.75-0.9q-2.7-3.5-2.4-8.05l-0.35 2.8q-0.75 4.7-4.45 7.35-16.75 11.95-38.3 15.3-3.2 0.65-6.1-0.95-13.4-7.1-5.5-21.95l-10.2 9.4 3.35-10.15-0.4-0.8 12.3-30.35q-3.05 1.15-5.8 2.75-7.55 4.15-15.45 6.85l3.5-7.7h0.05l0.05-0.05m95.15 32.2-0.05-0.05 0.15-0.15-0.1 0.2m-74.95-8.75q-10.15 12.65-0.75 21.45 3 2.85 7.15 2.25 23.75-3.65 33.65-22.65l0.45 7.15q4.95-3.9 6.45-10.2 0.95-4.05-1.55-7.3-25.45-3.8-47.4 9.4v0.05l2-0.15m-31.85-8.95 0.3 0.2-0.4-0.1 0.1-0.1" fill="#d2c079" fill-rule="evenodd"/>
<path d="m-51.85-33.35-3.5 7.7q7.9-2.7 15.45-6.85 2.75-1.6 5.8-2.75l-12.3 30.35 0.4 0.8-3.35 10.15 10.2-9.4q-7.9 14.85 5.5 21.95 2.9 1.6 6.1 0.95 21.55-3.35 38.3-15.3 3.7-2.65 4.45-7.35l0.35-2.8q-0.3 4.55 2.4 8.05l0.75 0.9q15.7-10.2 0.5-23.95l-5.2-4.15q-15.35-0.15-29.35 6.5 8.35-6.1 17.7-10.4 7.65-2.9 14.25-4.25 12.6-2.65 21.4 0.2 2.65 10.25 2.55 20.5-0.1 12.4-9.7 21.6 2.75-1.2 5.35-3.05 4.1-3.05 7.15-7.3l0.05 0.05-5.3 9.05q-10.25 17.8-30.15 23.45l-0.5-0.2 5.85-16.15-0.3-0.1q-10.3 6.45-21.3 11.9-7.2 3.65-13.95 8-10.8 6.85-20.7-0.95-2.05-1.55-3.2-3.5-5.35-9.2 0.3-20.75-4.2 7.75-8.05 15.7-1.3 2.75-2 5.85-4.35-7.25-2.7-15.15 2.7-13.05 11.35-23.35l-2.45 1.8q-3.6 2.8-6.55 6.2l-4.7 5.7 1.9-4.65q6.55-15 17-27.7l-0.2-0.15q-5.45 4.15-10.05 9l-7.65 8.3 0.1-15.15q3.75-5.15 8-9.3" fill="#c1a846" fill-rule="evenodd"/>
<path d="m-59.85-24.05-0.1 15.15 7.65-8.3q4.6-4.85 10.05-9l0.2 0.15q-10.45 12.7-17 27.7l-1.9 4.65 4.7-5.7q2.95-3.4 6.55-6.2l2.45-1.8q-8.65 10.3-11.35 23.35-1.65 7.9 2.7 15.15 0.7-3.1 2-5.85 3.85-7.95 8.05-15.7-5.65 11.55-0.3 20.75 1.15 1.95 3.2 3.5 9.9 7.8 20.7 0.95 6.75-4.35 13.95-8 11-5.45 21.3-11.9l0.3 0.1-5.85 16.15 0.5 0.2q19.9-5.65 30.15-23.45l5.3-9.05 0.1-0.2-0.15 0.15q-3.05 4.25-7.15 7.3-2.6 1.85-5.35 3.05 9.6-9.2 9.7-21.6 0.1-10.25-2.55-20.5 9.4 2.95 14.5 12.15 2 4.95 2.5 10.1-11.15 26.35-33.5 43.7-13.5 10.5-28.25 19.45l4.55-15.7-0.25-0.15q-21.2 32.6-46.2 9-2.85-2.7-3.7-6.85l-0.5 18.75q-19.9-36.1-10.25-76.15l-0.3-0.2 0.55-0.9 3-4.25" fill="#998433" fill-rule="evenodd"/>
<path d="m-63.1-18.7q-9.65 40.05 10.25 76.15l0.5-18.75q0.85 4.15 3.7 6.85 25 23.6 46.2-9l0.25 0.15-4.55 15.7q14.75-8.95 28.25-19.45 22.35-17.35 33.5-43.7 1.25 14.55-9.85 30.75-23.95 31.9-67.1 48.35-29.9 11-37 0-9.55-15-12.9-36.2-4.7-27.3 8.35-50.95l0.4 0.1" fill="#6f6025" fill-rule="evenodd"/>
<path d="m-20.45-50.25q-17.95 3.7-31.3 16.85l-0.05 0.05h-0.05q-4.25 4.15-8 9.3l-3 4.25-0.55 0.9-0.1 0.1q-13.05 23.65-8.35 50.95 3.35 21.2 12.9 36.2 7.1 11 37 0 43.15-16.45 67.1-48.35 11.1-16.2 9.85-30.75-0.5-5.15-2.5-10.1-5.1-9.2-14.5-12.15-8.8-2.85-21.4-0.2-9.9-20.65-36-17.25l-1.05 0.2m22.8 21.3q7.65-2.9 14.25-4.25" fill="none" stroke="#000" stroke-linecap="round" stroke-linejoin="round" stroke-opacity=".4"/>
<path d="m34.8-23.85q7.3-1.95 14.3-5.7l0.3-0.15 2.6-1.45 5.85-3.85q0.9-0.5 1.8-0.25l0.5 0.2-0.9 0.7q-0.7 1.35-2.1 2.45l-3.2 2.2-1.1 0.75q-1.25 1.1-2.95 1.95l-8 3.95-0.75 0.25-0.5 0.15-6.45 0.8q-0.25-0.7 0-1.25l0.6-0.75m35.7 16.3 0.2 0.4-2.65 1.45q-1.1 0.6-2.3 0.7l-8.1 0.5-7.25-0.7-6.3-1.6q0-2 1.6-2.3 11.5 3.05 24.8 1.55" fill="#eae1bf" fill-rule="evenodd"/>
<path d="m34.2-21.85 6.45-0.8-5.9 1.85-0.55-1.05m7.7-1.2 8-3.95q1.7-0.85 2.95-1.95l1.1-0.75 3.2-2.2q1.4-1.1 2.1-2.45l0.9-0.7q1.1 0.55 2.25 2.35 2.45 4.3 1.25 6.55l-4.1 1.1q-1.1-0.7-2-1.7-1.05-1.15-1.3-2.4v-0.15l-0.75 0.25q-1 0.15-1.95 0.85-4.1 3.25-9 4.35l-1.45 0.4-1.2 0.4m16.95-10.15q-0.7 3.9 2.55 4.8 0.4-3.25-2.55-4.8m-14.75 26.4 6.3 1.6 7.25 0.7 8.1-0.5q1.2-0.1 2.3-0.7l2.65-1.45-0.2-0.4 0.65 0.1q1.85 0.5 1.95 4.25-0.2 5.1-2.35 6.55-1.85-0.7-3.75-1.1-0.55-1.3-0.8-2.8-0.25-1.95 0.2-3.05l-17.35 0.6-4.15-0.25q-0.8-2.2-0.8-3.55m26.3 1.4q-2.6 3.1-0.35 5.6 3.3-2.8 0.35-5.6" fill="#d2c079" fill-rule="evenodd"/>
<path d="m40.65-22.65 0.5-0.15 1.95-0.65 1.45-0.4q4.9-1.1 9-4.35 0.95-0.7 1.95-0.85l0.75-0.25v0.15q0.25 1.25 1.3 2.4 0.9 1 2 1.7l-2.6 1-0.35-0.4q-0.3-0.35-0.75-0.35h-0.45l-3.15 0.75-1.9 0.6-1.1 0.5q-2.6 1.85-5.6 3-2.7 1-5 2.5-2.85-1.9-3.9-3.35l5.9-1.85m20.75-5.75q-3.25-0.9-2.55-4.8 2.95 1.55 2.55 4.8m-16.5 25.15 4.15 0.25 17.35-0.6q-0.45 1.1-0.2 3.05 0.25 1.5 0.8 2.8l-1.5-0.25q-0.35-1.2-1.3-2.35-1.95-2.4-5.15-1.8-4.4 0.9-9.1 0.75l-2.65-0.4-2.05-0.5-0.35-0.95m25.15 3.45q-2.25-2.5 0.35-5.6 2.95 2.8-0.35 5.6" fill="#c1a846" fill-rule="evenodd"/>
<path d="m56.95-24.05q-6.85 3-13.3 9.6-3-1.6-5-3 2.3-1.5 5-2.5 3-1.15 5.6-3l1.1-0.5 1.9-0.6 3.15-0.75h0.45q0.45 0 0.75 0.35l0.35 0.4m-11.7 21.75 2.05 0.5 2.65 0.4q4.7 0.15 9.1-0.75 3.2-0.6 5.15 1.8 0.95 1.15 1.3 2.35-7.75-1.15-17.25 1.8-1.95-3.55-3-6.1" fill="#998433" fill-rule="evenodd"/>
<path d="m60.15-35.05-0.5-0.2q-0.9-0.25-1.8 0.25l-5.85 3.85-2.6 1.45-0.3 0.15q-7 3.75-14.3 5.7m25.35-11.2q1.1 0.55 2.25 2.35 2.45 4.3 1.25 6.55l-4.1 1.1-2.6 1q-6.85 3-13.3 9.6m17.75-13.95q-3.25-0.9-2.55-4.8" fill="none" stroke="#000" stroke-linecap="round" stroke-linejoin="round" stroke-opacity=".4"/>
<path d="m70.5-7.55q-13.3 1.5-24.8-1.55m21.3 11.35q1.9 0.4 3.75 1.1 2.15-1.45 2.35-6.55-0.1-3.75-1.95-4.25l-0.65-0.1m-5 9.55 1.5 0.25m-18.75 1.55q9.5-2.95 17.25-1.8m4.55-1.8q-2.25-2.5 0.35-5.6" fill="none" stroke="#000" stroke-linecap="round" stroke-linejoin="round" stroke-opacity=".4"/>
<path d="m-66 44.7q-1.3-3.5-2.45-7.9-1.7-6.05-2.15-9.45l1.05-1.85q7.6-13.1 19.5-21.55 6.05-4.6 12-7.3 0.5 5.35 6.2 16.2-7.2 2.3-14.4 7.95-12.9 8.8-19.75 23.9m32.3-15.95 0.7 1.15q2.55 4.25 7.25 9.45-8 1.05-16.25 7.45-7.85 5.4-12.85 14.05-3.85-3.8-5.05-5.8l-0.2-0.3 0.1-0.1q5.95-12.5 16.8-20.1 4.75-3.8 9.5-5.8m44.9 20.35 0.85 1.95-7.1 4.45-2.35-3.5 1.5-1.1 7.1-1.8m-50.4 23.9 0.2-0.75q2.65-10.3 9.65-14.75 7.8-6.15 15.55-2.4 5 1.55 7.8 6.3-7.6 3.75-15.95 6.95-9.65 3.55-16.85 4.8l-0.4-0.15" fill="#b45c07" fill-rule="evenodd"/>
<path d="m24.55 25q2.55 5.9 4.4 12.85l-9.2 7.7q-1.25-4.2-2.9-7.85l-0.15-0.35q2.85-3.9 7.85-12.35m-14.95 20.9 1.6 3.2-7.1 1.8 5.5-5" fill="#f79433" fill-rule="evenodd"/>
<path d="m-3.3 46.05 0.65-0.7 6.25-7.6 0.05 0.1q3.4 3.4 5.95 8.05l-5.5 5-1.5 1.1-0.6-0.75q-2.4-3-5.3-5.2m22-31.25q3.25 4.6 5.85 10.2-5 8.45-7.85 12.35-2.6-5.35-5.95-9.6 4-4.6 7.95-12.95" fill="#fbc895" fill-rule="evenodd"/>
<path d="m-31.85 12.85q-5.7-10.85-6.2-16.2 17.6-7.9 34.85 0.6l3.4 1.75q4.65 2.3 8.7 5.45 5.5 4.35 9.8 10.35-3.95 8.35-7.95 12.95-6.15-7.85-15.1-11.9-13.75-7.45-27.5-3m6.1 26.5q-4.7-5.2-7.25-9.45l-0.7-1.15q4.85-2.25 9.75-2.6 7.85-0.65 15.75 3.55 6.8 2.75 11.8 8.05l-6.25 7.6-0.65 0.7q-3.3-2.5-7.2-4-3.3-1.7-6.55-2.4l-8.7-0.3" fill="#f9ae64" fill-rule="evenodd"/>
<path d="m-70.6 27.35q0.45 3.4 2.15 9.45 1.15 4.4 2.45 7.9l-1.8 4.5q-2.6-8-4.05-17.05l-0.25-1.75 1.5-3.05m10.7 27.7q1.2 2 5.05 5.8-1.9 3.3-3.4 7l-2.05-1.75-2.55-4.7q1.15-3.45 2.65-6.55l0.3 0.2m21.1 18.1-0.45 0.1 0.05-0.25 0.4 0.15" fill="#723c05" fill-rule="evenodd"/>
<path d="m-60.1 54.75 0.2 0.3-0.3-0.2 0.1-0.1" fill="#613305" fill-rule="evenodd"/>
<path d="m-23.75-14.85-9.2 0.7 1.9-10.9v-0.3l0.25 0.35q2.7 2.65 7.15 3.8l-0.1 6.35" fill="#f9ae64" fill-rule="evenodd"/>
<path d="m-20.6-19.7 2.05 4.3-5.2 0.55 0.1-6.35q1.4 1.15 3.05 1.5" fill="#f48313" fill-rule="evenodd"/>
<path d="m-31.05-25.35 1.9-11.5 8.05 16.4 0.3 0.35q0.25 0.1 0.2 0.4-1.65-0.35-3.05-1.5-4.45-1.15-7.15-3.8l-0.25-0.35" fill="#fbc895" fill-rule="evenodd"/>
<path d="m26.3-14.25-5.45 18.55-10-9.2 15.45-9.35" fill="#f48313" fill-rule="evenodd"/>
<path d="m-51.5-12.2 6.55-8.6 8.25 9.35q-7.15 2.9-14.05 6.2l-0.75-6.95" fill="#f9ae64" fill-rule="evenodd"/>
<path d="m-51.5-12.2-2.25-18.1 8.8 9.5-6.55 8.6" fill="#f48313" fill-rule="evenodd"/>
<path d="m27.4 20.65-5.2-9.9 14.7-1.3-9.5 11.2" fill="#f79433" fill-rule="evenodd"/>
</g>
</defs>
</svg>
