<?xml version="1.0" encoding="UTF-8"?>
<svg version="1.1" viewBox="0 0 238.6 268.72" xmlns="http://www.w3.org/2000/svg" xmlns:cc="http://creativecommons.org/ns#" xmlns:dc="http://purl.org/dc/elements/1.1/" xmlns:rdf="http://www.w3.org/1999/02/22-rdf-syntax-ns#" xmlns:xlink="http://www.w3.org/1999/xlink">
<metadata>
<rdf:RDF>
<cc:Work rdf:about="">
<dc:format>image/svg+xml</dc:format>
<dc:type rdf:resource="http://purl.org/dc/dcmitype/StillImage"/>
</cc:Work>
</rdf:RDF>
</metadata>
<g transform="translate(-123.98 -21.26)">
<use transform="translate(124,21.3)" width="238.55" height="268.64999" xlink:href="#a"/>
</g>
<defs>
<g id="a" transform="translate(119.25,134.3)">
<use transform="translate(-119.25,-134.3)" width="238.55" height="268.64999" xlink:href="#b"/>
</g>
<g id="b" transform="translate(119.25,134.3)">
<path d="m104.45-125.15q-11.45-1.55-22.75 0.85-20.75 4.6-29.35 24.15l-0.85-3.9q-0.55-2.95-0.35-5.85 0.35-4.5 2.4-8.65-16.2 17.15-17.9 40.75-2.25 30.8-14.1 59.25-13.9 33.25-33.35 63.2l2.95-11.2q12.05-20.6 20.55-43.05 22.15-50.95 20.6-76.85 3.2-61.2 62.4-44.15 5.5 2.45 9.75 5.45m-121.35 148.85q1.5 24.3-10.35 46.3-13.7 25.4-35.35 44.5l-16.65 0.85 9.1-7.85q16.6-14.8 30.5-31 5-5.75 8.75-11.1 3.75-5.4 6.2-11.4 2.4-6.05 4.2-13.05 1.8-7.05 3.15-14.35l0.45-2.9m-63.75 86q-7.1 4.7-15.75 5l-1.55 0.4q2.2-0.2 4.1 0.6l4.75 2.25-1.5 1q17.65 0.15 31.4 8.8 0.45 0.25 0.7 0.9l-0.75 1.1q-15.95-8.3-60-6.4 26.35-7.9 14-15.85 10.2 4.25 24.6 2.2m31.7 7.8-11.1 0.5 19.95-22.7-8.25 21.95-0.6 0.25" fill="#418200" fill-rule="evenodd"/>
<path d="m-8.85 33.45-2.95 11.2q19.45-29.95 33.35-63.2 11.85-28.45 14.1-59.25 1.7-23.6 17.9-40.75-2.05 4.15-2.4 8.65-0.2 2.9 0.35 5.85l0.85 3.9q8.6-19.55 29.35-24.15 11.3-2.4 22.75-0.85 7.6 5.35 11.35 12.5 2.65 17.75-8.05 31.45 6.2-13.55-1.35-26.35 0.35 2.85-0.2 5.65-2.1 10.55-12.3 13.1 7.25-8.75 3.1-19.25-5.55-14-20-8.9-21.7 7.8-16.65 30.9 4.85 22.25 19.7 10.95l0.45 1.5q2 12.6-11.2 16.15-9-3.45-17.25-11.25-12.1 40.55-44.35 93.05-29 52.7-38.55 83.15 4.7 8.8 24.55 13.85-39.85-0.1-46.95 13-2.2-2.6-6-4.6l0.75-1.1q-0.25-0.65-0.7-0.9-13.75-8.65-31.4-8.8l1.5-1-4.75-2.25q-1.9-0.8-4.1-0.6l1.55-0.4q8.65-0.3 15.75-5 5-0.7 10.5-2.2l-9.1 7.85 16.65-0.85q21.65-19.1 35.35-44.5 11.85-22 10.35-46.3 0.75-5.8 0.4-11.75-0.4-6.75-2.8-13-2.6-6.9-8.9-10.65-4.25-2.45-9.2-0.95-6 1.95-10.1 6.9-4.6 5.55-6.15 12.5-1.65 7.5 2.05 13.75 1.7 2.8 4.9 3.5 7.95 2.1 10.7-4.95 1.9-5-0.2-9.5-2.1-4.45-5.5-1.55-2.1 1.85-1.05 4.1l1.6-2.5h0.65l0.6-0.05 0.5 0.15 1.15 0.7q0.15 2.75-2.25 3.05l-2.05-0.1q-1.7-0.9-2.15-2.65-0.7-2.55 0.9-4.4 2.15-2.6 5.6-2.55 2.55 0 4.2 1.6 2.2 2.15 2.65 5.45 0.55 3.85 0 7.9-0.85 6.35-6.6 9.1-3 1.45-6.4 1.75-3.15 0-5.85-1.55-4.05-2.15-6-6.3-4.55-9.7-0.45-19.8 5.65-13.9 20.1-18.05 4.95-1.35 9.75 0.7 3.95 1.75 6.95 4.65 2.35 2.3 5.95 11.8 3.55 9.45 3.9 19.1l0.5 11.2q0.15 1.55-0.6 4.3l1.25-2.15m-21.45 81.9q-0.9-3.3-0.55-7.85-0.35 4.55 0.55 7.85m82.35-184.05v-0.05q-16.2-21.05-6.35-29.85-9.85 8.8 6.35 29.85v0.05m-101 186.2 0.6-0.25 8.25-21.95-19.95 22.7 11.1-0.5" fill="#360" fill-rule="evenodd"/>
<path d="m115.8-112.65q8.3 16-3.1 41.05-15 21.45-38.9 15.6-2.3-0.6-4.5-1.45 13.2-3.55 11.2-16.15l-0.45-1.5q-14.85 11.3-19.7-10.95-5.05-23.1 16.65-30.9 14.45-5.1 20 8.9 4.15 10.5-3.1 19.25 10.2-2.55 12.3-13.1 0.55-2.8 0.2-5.65 7.55 12.8 1.35 26.35 10.7-13.7 8.05-31.45m-31.35 7.4q-3.2-1.4-6.6-0.5-1.7 0.45-2.85 1.9-6.65 8.25-3.05 17.8 0.95 2.6 3.6 3.1 10.55-0.9 12.65-11.4 2.15-5.5-1.5-9.35-0.95-1-2.25-1.55" fill="#8fb300" fill-rule="evenodd"/>
<path d="m84.45-105.25q1.3 0.55 2.25 1.55 3.65 3.85 1.5 9.35-2.1 10.5-12.65 11.4-2.65-0.5-3.6-3.1-3.6-9.55 3.05-17.8 1.15-1.45 2.85-1.9 3.4-0.9 6.6 0.5" fill="#98f906" fill-rule="evenodd"/>
<path d="m104.45-125.15q-4.25-3-9.75-5.45-59.2-17.05-62.4 44.15 1.55 25.9-20.6 76.85m-21.8 45.2q0.75-2.75 0.6-4.3l-0.5-11.2q-0.35-9.65-3.9-19.1-3.6-9.5-5.95-11.8-3-2.9-6.95-4.65-4.8-2.05-9.75-0.7-14.45 4.15-20.1 18.05-4.1 10.1 0.45 19.8 1.95 4.15 6 6.3 2.7 1.55 5.85 1.55 3.4-0.3 6.4-1.75 5.75-2.75 6.6-9.1 0.55-4.05 0-7.9-0.45-3.3-2.65-5.45-1.65-1.6-4.2-1.6-3.45-0.05-5.6 2.55-1.6 1.85-0.9 4.4 0.45 1.75 2.15 2.65l2.05 0.1q2.4-0.3 2.25-3.05l-1.15-0.7-0.5-0.15-0.6 0.05h-0.65l-1.6 2.5q-1.05-2.25 1.05-4.1 3.4-2.9 5.5 1.55 2.1 4.5 0.2 9.5-2.75 7.05-10.7 4.95-3.2-0.7-4.9-3.5-3.7-6.25-2.05-13.75 1.55-6.95 6.15-12.5 4.1-4.95 10.1-6.9 4.95-1.5 9.2 0.95 6.3 3.75 8.9 10.65 2.4 6.25 2.8 13 0.35 5.95-0.4 11.75m-53.25 83.8q-5.5 1.5-10.5 2.2m21.4 20.05q3.8 2 6 4.6 7.1-13.1 46.95-13-19.85-5.05-24.55-13.85-0.35 4.55 0.55 7.85m134.75-240.5q7.6 5.35 11.35 12.5 8.3 16-3.1 41.05-15 21.45-38.9 15.6-2.3-0.6-4.5-1.45-9-3.45-17.25-11.25-12.1 40.55-44.35 93.05-29 52.7-38.55 83.15m76.55-206.1q-9.85 8.8 6.35 29.85v0.05m-91.7 145.2q5-5.75 8.75-11.1 3.75-5.4 6.2-11.4 2.4-6.05 4.2-13.05 1.8-7.05 3.15-14.35l0.45-2.9m-42.35 106.05q-15.95-8.3-60-6.4 26.35-7.9 14-15.85 10.2 4.25 24.6 2.2" fill="none" stroke="#000" stroke-linecap="round" stroke-linejoin="round" stroke-opacity=".4" stroke-width=".05"/>
<path d="m-8.85 33.45-2.95 11.2q19.45-29.95 33.35-63.2 11.85-28.45 14.1-59.25 1.7-23.6 17.9-40.75-2.05 4.15-2.4 8.65-0.2 2.9 0.35 5.85l0.85 3.9q8.6-19.55 29.35-24.15 11.3-2.4 22.75-0.85m-121.35 148.85q1.5 24.3-10.35 46.3-13.7 25.4-35.35 44.5l-16.65 0.85m163.7-220.6q-3.2-1.4-6.6-0.5-1.7 0.45-2.85 1.9-6.65 8.25-3.05 17.8 0.95 2.6 3.6 3.1 10.55-0.9 12.65-11.4 2.15-5.5-1.5-9.35-0.95-1-2.25-1.55m-15.15 47.8q13.2-3.55 11.2-16.15l-0.45-1.5q-14.85 11.3-19.7-10.95-5.05-23.1 16.65-30.9 14.45-5.1 20 8.9 4.15 10.5-3.1 19.25 10.2-2.55 12.3-13.1 0.55-2.8 0.2-5.65 7.55 12.8 1.35 26.35 10.7-13.7 8.05-31.45m-164.75 230.15 0.6-0.25 8.25-21.95-19.95 22.7 11.1-0.5" fill="none" stroke="#fc0" stroke-linecap="round" stroke-linejoin="round" stroke-opacity=".41176" stroke-width="2"/>
<path d="m11.7-9.6q-8.5 22.45-20.55 43.05l-1.25 2.15m-69.15 79.75 9.1-7.85q16.6-14.8 30.5-31" fill="none" stroke="#000" stroke-linecap="round" stroke-linejoin="round" stroke-opacity=".4" stroke-width=".05"/>
<path d="m41.05-94.2q1.3-3.1 4.7-3.5 1.4 1.85 0.15 3.85-1.65 2.65-4.2 5.7-2-2.75-0.65-6.05m3.75 12.45q1.75-0.4 2.6 0.85l2.35 3.15 3.55 4.2q2.9 3.1 6.5 5.5 6.65 4.55 13.45 9l0.85 0.55 3.9-0.1 0.9-0.75q0.65-1 0.5-2.45-0.15-1.75 0-3.55 0.15-1.55 1.2-2.8l1.7-1.7 0.4-0.15q2.35 0.7 3.35 2.9 0.5 1.2 0.6 2.4l0.6 4.6 0.3 0.9q9.25 1.2 16.7-4.6l2.15-1.95q2.2-2.55 3.45-5.6 2.8-6.8 5.15-13.95 0.7-2.1 2.45-3.2 0.05 10.3-3.75 19.75l-3.4 7.6-1.8 4.05-2.8 7.15-2.2 6.1q-1.45 4.15-0.95 8.5l0.35 2q1.25 4.85-1.85 8.75l-0.55-0.7q-3.05-6.1-5.15-12.05l-0.75 0.2q-3.5 1.95-4.85 6.1-2.3 2.2-2.55 5.65-0.55 7.4 0.5 14.85 0.95 6.65 0.9 13.45l-0.4 9.55q-0.3 4.55-2.7 8.35l-1.15 1.25q-1.3 0.95-2.9 0.4-0.85-0.35-1.4-1.05 6.4-10.6 5.3-23.1-0.6-6.6-0.95-13.45-0.7-12.55-3.45-24.75-3.3-14.8-16.65-22.85-12.3-7.35-19.5-19m45.75 36.7q5.3-4.7-0.85-8.85l-2.85-0.1q-4.8 2.65-2.15 6.95l-0.4 2.15q-0.05 1.1 0.45 2.2 0.45 1.05 1.45 1.5l0.75 0.05q0.9-0.3 1.7-0.85 1.4-0.8 1.75-2.3l0.15-0.75m-5.6 80.35 0.45 1.5q0.5 3.65-2.8 4.85-1.9 0.6-3.55-0.5-1.5-0.95-1.8-2.8-0.45-3.1 2.2-4.45l1.95-0.5q1.6 0.25 2.8 0.95l0.75 0.95" fill="#d1e9ef" fill-rule="evenodd"/>
<path d="m80.05 21.4q-0.5-0.65-0.7-1.6-1.1-4.65-0.55-9.55l1.15-12.55q0.45-6.4 0.25-12.95-0.6-17.75-8.95-33.55l-2.4-4.05-2.05-2.6-3.15-3-2.75-2-1.35-1.15q-7.2-6.3-13.3-13.8-0.5-0.6-0.8-1.35l-1.2-2.9-0.25-0.65 0.8-1.45q7.2 11.65 19.5 19 13.35 8.05 16.65 22.85 2.75 12.2 3.45 24.75 0.35 6.85 0.95 13.45 1.1 12.5-5.3 23.1m21-46-0.15 0.15q-0.75 0.85-2.15 1.3-3-0.45-4.3-3.2-1.05-2.15-1.55-4.4l-0.45-1.2-1.35-0.2-1.35 1.1q1.35-4.15 4.85-6.1l0.75-0.2q2.1 5.95 5.15 12.05l0.55 0.7m-16.35-22.45q-2.65-4.3 2.15-6.95l2.85 0.1q6.15 4.15 0.85 8.85 0.15-1.7-0.55-3.35l-0.4-0.3q-1.5-0.8-3.25-0.7-0.85 0.4-1.25 1.3l-0.4 1.05" fill="#b0d9e3" fill-rule="evenodd"/>
<path d="m41.05-94.2q1.3-3.1 4.7-3.5 1.4 1.85 0.15 3.85-1.65 2.65-4.2 5.7-2-2.75-0.65-6.05m43.65 47.15 0.4-1.05q0.4-0.9 1.25-1.3 1.75-0.1 3.25 0.7l0.4 0.3q0.7 1.65 0.55 3.35l-0.15 0.75q-0.35 1.5-1.75 2.3-0.8 0.55-1.7 0.85l-0.75-0.05q-1-0.45-1.45-1.5-0.5-1.1-0.45-2.2l0.4-2.15m0.25 82.35 0.45 1.5q0.5 3.65-2.8 4.85-1.9 0.6-3.55-0.5-1.5-0.95-1.8-2.8-0.45-3.1 2.2-4.45l1.95-0.5q1.6 0.25 2.8 0.95l0.75 0.95" fill="none" stroke="#369" stroke-linecap="round" stroke-linejoin="round" stroke-opacity=".4" stroke-width="2"/>
<path d="m80.05 21.4q-0.5-0.65-0.7-1.6-1.1-4.65-0.55-9.55l1.15-12.55q0.45-6.4 0.25-12.95-0.6-17.75-8.95-33.55l-2.4-4.05-2.05-2.6-3.15-3-2.75-2-1.35-1.15q-7.2-6.3-13.3-13.8-0.5-0.6-0.8-1.35l-1.2-2.9-0.25-0.65 0.8-1.45q1.75-0.4 2.6 0.85l2.35 3.15 3.55 4.2q2.9 3.1 6.5 5.5 6.65 4.55 13.45 9l0.85 0.55 3.9-0.1 0.9-0.75q0.65-1 0.5-2.45-0.15-1.75 0-3.55 0.15-1.55 1.2-2.8l1.7-1.7 0.4-0.15q2.35 0.7 3.35 2.9 0.5 1.2 0.6 2.4l0.6 4.6 0.3 0.9q9.25 1.2 16.7-4.6l2.15-1.95q2.2-2.55 3.45-5.6 2.8-6.8 5.15-13.95 0.7-2.1 2.45-3.2 0.05 10.3-3.75 19.75l-3.4 7.6-1.8 4.05-2.8 7.15-2.2 6.1q-1.45 4.15-0.95 8.5l0.35 2q1.25 4.85-1.85 8.75l-0.15 0.15q-0.75 0.85-2.15 1.3-3-0.45-4.3-3.2-1.05-2.15-1.55-4.4l-0.45-1.2-1.35-0.2-1.35 1.1q-2.3 2.2-2.55 5.65-0.55 7.4 0.5 14.85 0.95 6.65 0.9 13.45l-0.4 9.55q-0.3 4.55-2.7 8.35l-1.15 1.25q-1.3 0.95-2.9 0.4-0.85-0.35-1.4-1.05" fill="none" stroke="#369" stroke-linecap="round" stroke-linejoin="round" stroke-opacity=".4" stroke-width="2"/>
</g>
</defs>
</svg>
