<?xml version="1.0" encoding="UTF-8"?>
<svg version="1.1" viewBox="0 0 75 128.45" xmlns="http://www.w3.org/2000/svg" xmlns:cc="http://creativecommons.org/ns#" xmlns:dc="http://purl.org/dc/elements/1.1/" xmlns:rdf="http://www.w3.org/1999/02/22-rdf-syntax-ns#" xmlns:xlink="http://www.w3.org/1999/xlink">
<metadata>
<rdf:RDF>
<cc:Work rdf:about="">
<dc:format>image/svg+xml</dc:format>
<dc:type rdf:resource="http://purl.org/dc/dcmitype/StillImage"/>
</cc:Work>
</rdf:RDF>
</metadata>
<g transform="translate(-237.52 -135.72)">
<use transform="translate(237.55,135.75)" width="74.949997" height="128.39999" xlink:href="#c"/>
<use transform="matrix(.5855 0 0 .7463 238.56 140.47)" width="98.5" height="64" xlink:href="#a"/>
</g>
<defs>
<g id="c" transform="translate(-237.55,-135.75)">
<path d="m291 146.6q-1.1 0.65-2.45 0.5-1.3-0.9-0.65-2.55l1.9-5.2-0.2 0.05q-3.25 2.55-4.3 5.9l-0.35-1.2q1.85-6.55 10.35-8.35-3.55 5.55-4.3 10.85m-4.85 11.5 0.65 0.25 1 1 3-9.25q0.15 3.35 1.45 6.65-2.6 5.05-7.25 4.95 0.75-1.7 1.15-3.6m8.85-12.6q0.4-2.3 2.45-2.85-0.95 1.25-1.55 2.45l-0.9 0.4m-0.05 2.6q-0.25 1.4-0.05 2.85-1.35-0.75-1-2.4l1.05-0.45m-25.2 19.2q-2.15-9.25-0.95-17.7-1.3 1.4-1.85 3.75l-0.85 2.4q-2.05 3.85-2.7 7.9-1.15-1.85-2.6-3.05-1.7 6.2 0.95 11.65l-3.2-0.65-2.2-1.6q-2.1-1.75-4.05-2.15-0.45 3.6 2.15 7.25 4.2 5.9 8.1 6l0.5-0.75 0.3-0.1q1.7 2.25 4.45 2.9 8.8 2.25 12-5.8l-0.5 0.25q-3.15 2.2-6.75 2.75l0.45-0.5q0.95-1.65 0.3-3.25l-0.9 0.85q-0.55 0.5-1.1 0.4l0.15-0.3 1.95-4.95 2.2-2.8q1.7-1 2.4-3.5l0.05-0.45-2.45 3.95-1.5 0.5q0.9-3.5 1.3-7.05 1.1-3.45 1.15-7.05l-0.1 0.65-0.8 2.4q0.15-5.7-1.1-11.65l-0.3 0.75q-3.2 9.45-4.05 18.55l-0.45 0.4m-9.7-22.7q-8.65 13.65-2.15 24.05-0.1-16.45 17.8-31.3 1.1 2.9 2.1 9.8 6.65 17.05 0.25 27.4 2.15 0.85 8.55-9.2 1.4 9.75-4.55 16.1l-1.55 1.5q-3.05 2.65-7.55 4.6l-3.3 1h-2.65l-1.05-0.6q-29.3-17.45-5.9-43.35m37.7 19-0.3-0.2-1.75-1.3q1.35-1 1.3-3 1.7 1.95 1.25 4.3l-0.5 0.2m-3.95 1.9q1.3 0.75 2.8 1.05-1.4 1.45-3.95 2.5 1.35-1.9 1.15-3.55m-49.55-13.55q-2 8.2-0.5 15.4-2.05-1-3.5-2.55 2.2-6.1 4-12.85m0.85 20.1q1.25 3.35 3.35 6.45-3.75-0.7-6.85-2.85 0.6-1.7 0.8-4.05l0.15-0.5q1.5 1.2 2.25 3 0.65-0.25-0.15-1.1l-0.35-0.65 0.8-0.3m-6.25 1.35-1.3-1.45 0.6-1.55 0.5 1.05 0.2 1.95" fill="#ffa768" fill-rule="evenodd"/>
<path d="m285.65 146.8 0.2-0.6-0.05-0.1 0.1-0.15-0.05 0.25 0.75 2.25 0.45 3.4 2.75-1.75q-1 3.4-3.3 5.3 0.2-3.85-0.85-8.6m10.25-1.7q-0.75 1.5-0.95 3l-1.05 0.45q0.15-1.1 1-2.5l0.1-0.55 0.9-0.4m-26.15 22.2 0.45-0.4q3.7-3.2 5.45-7.65l0.8-2.4 0.1-0.65q-0.05 3.6-1.15 7.05-0.85 2.65-2.3 5.25-0.55 0.95-0.05 1.85l1.05-0.05 1.5-0.5 2.45-3.95-0.05 0.45q-0.7 2.5-2.4 3.5l-2.2 2.8q-2.2 2.5-4.8 4.7-0.8 0.65-1.65 0.65 0.75 0.65-0.55-0.05l-0.85-0.3-1.25 0.5q-3.75 0.35-5.7-3.15-0.35-0.65-1.3-0.6l-1.25-0.5 7 0.6-1.3-2.2q-2.65-5.45-0.95-11.65 1.45 1.2 2.6 3.05 0.95 1.6 1.7 3.65 0.6 1.7 1.95 2.8 0.7-1.25-0.25-3l-0.15-0.5h0.15q1.1-0.05 1.75 0.75l0.5 0.5 0.7-0.55m22.95-4.2q1.7-0.15 2.75-0.8l0.25-0.2 1.75 1.3 0.3 0.2 0.3 0.25 0.05 0.2-0.45 1.05-0.1 0.25q-1.8-1-4.15-1.25l-0.7-0.95v-0.05m-48.35 6.65v0.1l-0.1-0.05q-2.5 1.3-4.7 3.05l-0.55-0.6-0.35-0.8-0.5-1.05 0.3-0.7 0.75-2q2.35 1.55 5.05 2.1l0.1-0.05" fill="#fff59c" fill-rule="evenodd"/>
<path d="m285.3 145.3q1.05-3.35 4.3-5.9l0.2-0.05-1.9 5.2q-0.65 1.65 0.65 2.55 1.35 0.15 2.45-0.5-0.25 1.75-0.2 3.5l-3 9.25-1-1-0.65-0.25 0.35-2.7q2.3-1.9 3.3-5.3l-2.75 1.75-0.45-3.4-0.75-2.25 0.05-0.25-0.1 0.15 0.05 0.1-0.2 0.6-0.35-1.5m-21.9 18.35q0.65-4.05 2.7-7.9l0.85-2.4q0.55-2.35 1.85-3.75-1.2 8.45 0.95 17.7l-0.7 0.55-0.5-0.5q-0.65-0.8-1.75-0.75h-0.15l0.15 0.5q0.95 1.75 0.25 3-1.35-1.1-1.95-2.8-0.75-2.05-1.7-3.65m6.8 3.25q0.85-9.1 4.05-18.55l0.3-0.75q1.25 5.95 1.1 11.65-1.75 4.45-5.45 7.65m5.2-3.65q-0.4 3.55-1.3 7.05l-1.05 0.05q-0.5-0.9 0.05-1.85 1.45-2.6 2.3-5.25m-2 9.35-1.95 4.95-0.15 0.3q0.55 0.1 1.1-0.4l0.9-0.85q0.65 1.6-0.3 3.25l-0.45 0.5q3.6-0.55 6.75-2.75l0.5-0.25q-3.2 8.05-12 5.8-2.75-0.65-4.45-2.9l-0.3 0.1-0.5 0.75q-3.9-0.1-8.1-6-2.6-3.65-2.15-7.25 1.95 0.4 4.05 2.15l2.2 1.6 3.2 0.65 1.3 2.2-7-0.6 1.25 0.5q0.95-0.05 1.3 0.6 1.95 3.5 5.7 3.15l1.25-0.5 0.85 0.3q1.3 0.7 0.55 0.05 0.85 0 1.65-0.65 2.6-2.2 4.8-4.7m19.3-9.5v0.05l-0.05-0.05h0.05m0.7 1q2.35 0.25 4.15 1.25l-0.95 1.2q-1.5-0.3-2.8-1.05l-0.4-1.4m4.7-0.05-0.05-0.2-0.3-0.25 0.5-0.2-0.15 0.65m-54.35 3.3 0.6 2.4-0.1 0.05q-2.7-0.55-5.05-2.1l1.05-2.9q1.45 1.55 3.5 2.55m0.6 2.5 0.75 2.2-0.8 0.3 0.35 0.65q0.8 0.85 0.15 1.1-0.75-1.8-2.25-3l-0.15 0.5q-0.2 2.35-0.8 4.05l-2.75-2.25-0.2-1.95 0.35 0.8 0.55 0.6q2.2-1.75 4.7-3.05l0.1 0.05" fill="#ffc97b" fill-rule="evenodd"/>
<path d="m255.9 207.25 0.35 0.35 0.1 0.25q-0.55 2.25-0.1 4.45 0.6 3-1.1 4.85l-1.45-0.35-0.25-0.35q-1.2-1.8-1.25-3.9l0.25-0.3q2.05-2.15 3.45-5m8.35 54.55-1.1-2.95 3-11.35-0.6-3.7-0.65-3.7 0.15-0.2h0.4l-0.9-2.3-0.4-0.9-0.15-0.45q-0.3-1.55-0.15-3.3 0.15-1.9 1.05-3.5l8.05-7.5 1.15 0.15-0.05 1.05q-0.3 1.1-0.35 2.3l0.15 0.2-0.05 0.45v0.05l-1.75 18.45-7.8 17.2m-19.6-16.2v-6.8l2.45-3.7 5.05-2.85 5-4.05 0.9-3.05q1.7 0.4 3.2 2.85l0.35 0.55q0.2 2.65-1.3 4.9l-0.35 0.8-2.8 2-2.75 0.2-3.85 2.55q-1.6 5.4-5.85 6.6h-0.05m31.45-44.6h0.35q2.15 0.8 2 3.3l-0.1 0.05q-0.4 1.1-1.7 1.25-0.7-0.7-0.55-2.05l-1.85-1.85 1.1-0.9 0.75 0.2m-12.15 6.4q0.8-0.1 0.75 0.5-0.9 7.15 3.1 12.2-0.2 0.65-0.75 0.95-0.75 0.45-1.8 0.3l-0.5-0.85-3.15-10.35 0.1-0.35q0.7-2 1.9-2.2l0.35-0.2m20.4-3.1 0.55-0.75 0.15 0.05 2.6 10.05-0.3 0.85q-0.15 0.35-0.8 0.45-0.75-0.45-1.05-1.1-0.6-1.45-1.9-2.2l0.05-0.35q0.85-3.5 0.7-7m9.9 1.1 0.75-0.35-0.2 0.6 0.2 0.1q2.15 1.35 1.85 3.85l-0.25 0.4-0.4 0.4-0.65 0.3-0.3-0.2q-1.35-2.3-0.45-4.85l-0.55-0.25" fill="#cbb99a" fill-rule="evenodd"/>
<path d="m255.9 207.25q-1.4 2.85-3.45 5l-0.25 0.3q0.05 2.1 1.25 3.9l0.25 0.35 1.45 0.35q1.7-1.85 1.1-4.85-0.45-2.2 0.1-4.45l-0.1-0.25-0.35-0.35m42.6 7.45-1 1-2.65-0.6-1.6-2.95-0.7-5.8v-5.15l-4.05-3.95-2.95 2 2.95 5.65 2.25 7.2-1.9 4.55-2.15 1.5-1.7-1.5-2.75-4.35v-4.95 4.95l2.75 4.35 1.7 1.5 2.15-1.5 10.95 15.45 5.5 5.75-0.6 4.85-0.3-0.6-1-0.9-2.9-2.6-3.9 2.9q-3.8-4.45-3.9-10.3-2.55-0.2-5.1-3.55l5.3 13.85v11.75l-4.9 10.3-0.05-9 0.65 0.25q0.6-0.15 0.6-0.9 0.15-7.3-0.85-14.45-1.85-12.7-9.5-22.3-3.8 2.25-4.8 6l0.05-1.05-1.15-0.15-8.05 7.5q-0.9 1.6-1.05 3.5-0.15 1.75 0.15 3.3l-0.75-1.45-4.8 2.35-3.35 3.95q-2.05 2.25-4.65 3.55l-3.35 1.8-2.45-0.85h0.05q4.25-1.2 5.85-6.6l3.85-2.55 2.75-0.2 2.8-2 0.35-0.8q1.5-2.25 1.3-4.9l-0.35-0.55q-1.5-2.45-3.2-2.85l0.8-2.75v-2.9l-0.55 1.4h-2.55l-4.35-5.75-0.95-5.35 0.3 0.4h1.5q2-4.7 5.45-8.5 1.25-1.35 3.4-1.4l0.4 0.2 0.7 0.85 0.15 0.45q-0.05 1.25 0.25 2.5l0.6 0.85q1 0.1 1.65-0.45 0.45-0.45 1.1-0.8l0.2-0.85 1.2-3 0.05-0.15 2.35-0.65 1.95-0.45 2.2-1.05 0.25-0.2 0.45 0.45 0.85 0.2 0.6 0.65 1.7 0.2q1.1-0.7 1.4-2 0.1-0.4 0.5-0.55 1.1 0.35 1.8 1.25l0.45 0.9 0.55 0.9q0.5 0.8 0.55 1.6l-0.2 1.9q2.3-1.75 1.75-5.3l-0.25-3.55v-0.2q3.3-0.25 5.95-2l0.7-0.45q0.9 3.4 2.4 6.6 0.3 0.6 0.9 1 0.05 0.75 0.9 1.1l0.6 0.55 0.15 0.6q3.1 4.3 2.4 9.65-0.25 1.8 0.2 3.65m-38.85-6.3v-4.7 4.7l-1.9 2.95 1.7 6.6-0.6 1.55h2.05l1.1-1.35-2.35-9v-0.75m10.2 10.25v1.6l-2.65 2.15h-2.65l-2.55-4.25 2.55 4.25h2.65l2.65-2.15v-1.6h1.8l-1.4-8.45 2.15-4.85 2.85-0.25-3.7-2.55-4.05 3.8v8.4l2.35 2.35v1.55m7.2-9.35-1.8-1v-3.2 3.2l1.8 1 1.95 1.8 2.25-3.75h1v-2.15l-2.45-1.8-1.25 4.9-1.5 1m-13.1-1.9-0.35 0.2q-1.2 0.2-1.9 2.2l-0.1 0.35 3.15 10.35 0.5 0.85q1.05 0.15 1.8-0.3 0.55-0.3 0.75-0.95-4-5.05-3.1-12.2 0.05-0.6-0.75-0.5m12.15-6.4-0.75-0.2-1.1 0.9 1.85 1.85q-0.15 1.35 0.55 2.05 1.3-0.15 1.7-1.25l0.1-0.05q0.15-2.5-2-3.3h-0.35m8.25 3.3q0.15 3.5-0.7 7l-0.05 0.35q1.3 0.75 1.9 2.2 0.3 0.65 1.05 1.1 0.65-0.1 0.8-0.45l0.3-0.85-2.6-10.05-0.15-0.05-0.55 0.75m9.9 1.1 0.55 0.25q-0.9 2.55 0.45 4.85l0.3 0.2 0.65-0.3 0.4-0.4 0.25-0.4q0.3-2.5-1.85-3.85l-0.2-0.1 0.2-0.6-0.75 0.35m-20.45 20.7 0.05-0.45 0.25 0.3-0.3 0.15m-9.25 13.8h0.5l-0.15 0.2-0.35-0.2" fill="#968265" fill-rule="evenodd"/>
<path d="m251.25 204.1 0.15-1 2.75-5.95 3.95-1.7h11.1l4.7-1.8 4.55-3.7 4.65-1.7h4.45l1.15 0.95-0.2 0.15q-1.8 0-3.6 0.65-1.85 0.55-2.95 1.65l0.45 1.3-0.85 1.85-1.5-0.2-0.85-0.6q-1.35-0.1-2.15 0.45l-0.9 0.5-2.2 1.35-2.5 0.65h-1.3l-3.8 1.05-1.05 0.2h-1.9l-0.05-0.15-0.3-0.5q-0.3-0.45-0.9-0.4l-0.65-0.45q-4.05 1.95-7.5 5.35l-2.75 2.05" fill="#facd6a" fill-rule="evenodd"/>
<path d="m251.25 204.1 2.75-2.05q3.45-3.4 7.5-5.35l0.65 0.45q0.6-0.05 0.9 0.4l0.3 0.5 0.05 0.15h1.9l1.05-0.2 3.8-1.05h1.3l2.5-0.65 2.2-1.35 0.9-0.5q0.8-0.55 2.15-0.45l0.85 0.6 1.5 0.2 0.85-1.85-0.45-1.3q1.1-1.1 2.95-1.65 1.8-0.65 3.6-0.65l0.2-0.15 2.1 1.75 0.15 0.6-0.7 0.45q-2.65 1.75-5.95 2v0.2l0.25 3.55q0.55 3.55-1.75 5.3l0.2-1.9q-0.05-0.8-0.55-1.6l-0.55-0.9-0.45-0.9q-0.7-0.9-1.8-1.25-0.4 0.15-0.5 0.55-0.3 1.3-1.4 2l-1.7-0.2-0.6-0.65-0.85-0.2-0.45-0.45-0.25 0.2-2.2 1.05-1.95 0.45-2.35 0.65-0.05 0.15-1.2 3-0.2 0.85q-0.65 0.35-1.1 0.8-0.65 0.55-1.65 0.45l-0.6-0.85q-0.3-1.25-0.25-2.5l-0.15-0.45-0.7-0.85-0.4-0.2q-2.15 0.05-3.4 1.4-3.45 3.8-5.45 8.5h-1.5l-0.3-0.4-0.05-0.35 0.85-5.35" fill="#d59458" fill-rule="evenodd"/>
<path d="m292.45 193.5 4.05 1.2q0 2.55 0.55 5.05l-3.45-4-1.15-2.25m20.05 49.5v5.9l-3.3 6.25h-2.15v-7.5l-2.35-4.95 0.6-4.85-5.5-5.75-10.95-15.45 1.9-4.55-2.25-7.2-2.95-5.65 2.95-2 4.05 3.95v5.15l0.7 5.8 1.6 2.95q1.45 2.7 0 4.55 9.25 4.5 14 12.75l3.1 12.3 0.55-1.7m-24.5 20.55-1.9-1.5v-6.35l-5.1-7.35v4.8l-2.15 6.15-4.55 4.85h-5.5l6.75-9.55 3-24.25-4.75-4.25 0.3-0.15-0.25-0.3-0.15-0.2q0.05-1.2 0.35-2.3 1-3.75 4.8-6 7.65 9.6 9.5 22.3 1 7.15 0.85 14.45 0 0.75-0.6 0.9l-0.65-0.25 0.05 9m-31.25-23.25-4.6 4.75-4.2 1.7-0.85-0.3 3.35-1.8q2.6-1.3 4.65-3.55l3.35-3.95 4.8-2.35 0.75 1.45 0.15 0.45 0.4 0.9 0.9 2.3h-0.9l-3.6-1.85-4.2 2.25m2.9-31.9v0.75l2.35 9-1.1 1.35h-2.05l0.6-1.55-1.7-6.6 1.9-2.95m10.2 10.25v-1.55l-2.35-2.35v-8.4l4.05-3.8 3.7 2.55-2.85 0.25-2.15 4.85 1.4 8.45h-1.8m7.2-9.35 1.5-1 1.25-4.9 2.45 1.8v2.15h-1l-2.25 3.75-1.95-1.8" fill="#736653" fill-rule="evenodd"/>
<path d="m290.8 190.95 0.45 0.35 1.2 2.2 1.15 2.25 3.45 4 2.05 2.4-2.05-2.4q-0.55-2.5-0.55-5.05l1.85 0.55 1.8 4.35-1.05 2.55 2.15 5.4-1.1 5.4-1.65 1.75q-0.45-1.85-0.2-3.65 0.7-5.35-2.4-9.65l-0.15-0.6-0.6-0.55q-0.85-0.35-0.9-1.1-0.6-0.4-0.9-1-1.5-3.2-2.4-6.6l-0.15-0.6m6.7 24.75 0.25 1.2 8.8 8.65 4.65 5.45 1.3 8.05v3.95l-0.55 1.7-3.1-12.3q-4.75-8.25-14-12.75 1.45-1.85 0-4.55l2.65 0.6m-2.3 30.85 0.95 5.4-1.5 6.6-3.35 5h-3.3l4.9-10.3v-11.75l-5.3-13.85q2.55 3.35 5.1 3.55 0.1 5.85 3.9 10.3l-1.4 5.05" fill="#b2cdbb" fill-rule="evenodd"/>
<path d="m303.4 241.2 0.7 5.8v5.4l-2.2 1.4-6.7-7.25 1.4-5.05 3.9-2.9 2.9 2.6m-37.85 2.6-4.5 3.3h-4.3v-6.8l4.2-2.25 3.6 1.85 0.35 0.2 0.65 3.7" fill="#51483e" fill-rule="evenodd"/>
<path d="m268.8 264.15-4.55-2.35 7.8-17.2 1.75-18.45v-0.05l4.75 4.25-3 24.25-6.75 9.55" fill="#827763" fill-rule="evenodd"/>
<path d="m291 146.6q0.75-5.3 4.3-10.85-8.5 1.8-10.35 8.35l0.35 1.2 0.35 1.5m0.85 8.6-0.35 2.7q-0.4 1.9-1.15 3.6 4.65 0.1 7.25-4.95-1.3-3.3-1.45-6.65-0.05-1.75 0.2-3.5m4-1.1q0.4-2.3 2.45-2.85-0.95 1.25-1.55 2.45-0.75 1.5-0.95 3-0.25 1.4-0.05 2.85-1.35-0.75-1-2.4 0.15-1.1 1-2.5l0.1-0.55m-34.95-0.9 0.8-0.9m-0.8 0.9q-8.65 13.65-2.15 24.05-0.1-16.45 17.8-31.3 1.1 2.9 2.1 9.8 6.65 17.05 0.25 27.4 2.15 0.85 8.55-9.2 1.4 9.75-4.55 16.1l-1.55 1.5q-3.05 2.65-7.55 4.6l-3.3 1h-2.65l-1.05-0.6q-29.3-17.45-5.9-43.35m26.45 10.8q0.2-3.85-0.85-8.6m3.05 42.4-1.15-0.95h-4.45l-4.65 1.7-4.55 3.7-4.7 1.8h-11.1l-3.95 1.7-2.75 5.95-0.15 1m37.45-14.9 2.1 1.75 0.45 0.35 1.2 2.2 4.05 1.2 1.85 0.55 1.8 4.35-1.05 2.55 2.15 5.4-1.1 5.4-1.65 1.75-1 1 0.25 1.2 8.8 8.65 4.65 5.45 1.3 8.05v9.85l-3.3 6.25h-2.15v-7.5l-2.35-4.95-0.3-0.6-1-0.9 0.7 5.8v5.4l-2.2 1.4-6.7-7.25 0.95 5.4-1.5 6.6-3.35 5h-3.3l-1.9-1.5v-6.35l-5.1-7.35v4.8l-2.15 6.15-4.55 4.85h-5.5l-4.55-2.35-1.1-2.95 3-11.35-0.6-3.7-4.5 3.3h-4.3v-6.8l-4.6 4.75-4.2 1.7-0.85-0.3-2.45-0.85v-6.8l2.45-3.7 5.05-2.85 5-4.05 0.9-3.05 0.8-2.75v-2.9l-0.55 1.4h-2.55l-4.35-5.75-0.95-5.35-0.05-0.35 0.85-5.35m8.4-0.4v5.45l2.35 9 2.55 4.25h2.65l2.65-2.15v-3.15l-2.35-2.35v-8.4l4.05-3.8 3.7 2.55v3.2l1.8 1 1.5-1 1.25-4.9 2.45 1.8v7.1l2.75 4.35 1.7 1.5 2.15-1.5 1.9-4.55-2.25-7.2-2.95-5.65 2.95-2 4.05 3.95v5.15l0.7 5.8 1.6 2.95 2.65 0.6m-1.8-53.6-0.25 0.2q-1.05 0.65-2.75 0.8h-0.05l0.05 0.05 0.7 0.95 0.4 1.4q0.2 1.65-1.15 3.55 2.55-1.05 3.95-2.5l0.95-1.2 0.1-0.25 0.45-1.05m-2.4-1.95q1.35-1 1.3-3 1.7 1.95 1.25 4.3l-0.15 0.65m-1.05 35.7-3.45-4-1.15-2.25m6.65 8.65-2.05-2.4m-52.3-49.65-0.5 1.85q-2 8.2-0.5 15.4l0.6 2.4v0.1l0.75 2.2q1.25 3.35 3.35 6.45-3.75-0.7-6.85-2.85l-2.75-2.25-1.3-1.45 0.6-1.55 0.3-0.7 0.75-2 1.05-2.9q2.2-6.1 4-12.85m52.35 89.55 3.9-2.9 2.9 2.6m-6.8 0.3-1.4 5.05m-36.35-27.05 0.6-1.55-1.7-6.6 1.9-2.95m5.25 31.7 0.65 3.7m-1-3.9 0.35 0.2m-8.15 0.2 4.2-2.25 3.6 1.85" fill="none" stroke="#000" stroke-linecap="round" stroke-linejoin="round" stroke-opacity=".24314" stroke-width=".05"/>
</g>
<g id="a" transform="translate(49.25,32)">
<use transform="translate(-49.25,-32)" width="98.5" height="64" xlink:href="#b"/>
</g>
<g id="b" transform="translate(49.25,32)">
<path d="m-34.85-22.65q14.45-9.35 34.85-9.35t34.8 9.35q14.45 9.4 14.45 22.65t-14.45 22.6q-14.4 9.4-34.8 9.4t-34.85-9.4q-14.4-9.35-14.4-22.6t14.4-22.65" fill="url(#d)" fill-rule="evenodd"/>
</g>
<radialGradient id="d" cx="0" cy="0" r="819.2" gradientTransform="scale(.0607)" gradientUnits="userSpaceOnUse">
<stop stop-color="#ffa768" stop-opacity=".39608" offset="0"/>
<stop stop-color="#fcffae" stop-opacity=".39608" offset=".50196"/>
<stop stop-color="#fff" stop-opacity="0" offset="1"/>
</radialGradient>
</defs>
</svg>
