<?xml version="1.0" encoding="UTF-8"?>
<svg version="1.1" viewBox="0 0 94.55 115.8" xmlns="http://www.w3.org/2000/svg" xmlns:cc="http://creativecommons.org/ns#" xmlns:dc="http://purl.org/dc/elements/1.1/" xmlns:rdf="http://www.w3.org/1999/02/22-rdf-syntax-ns#" xmlns:xlink="http://www.w3.org/1999/xlink">
<metadata>
<rdf:RDF>
<cc:Work rdf:about="">
<dc:format>image/svg+xml</dc:format>
<dc:type rdf:resource="http://purl.org/dc/dcmitype/StillImage"/>
</cc:Work>
</rdf:RDF>
</metadata>
<g transform="translate(-227.75 -142.05)">
<use transform="translate(227.75,142.05)" width="94.550003" height="115.8" xlink:href="#a"/>
</g>
<defs>
<g id="a" transform="translate(-227.75,-142.05)">
<path d="m304.5 177.3h5.05l11.1 6.75v4.05l-0.55 1.65-3.05 2.95-7.5 1.3-4.5-4.5-3.5-8.25 2.95-3.95" fill="#351d00" fill-rule="evenodd"/>
<path d="m308.45 209.2v2.3l-3.15 3.2h-2l1.65 2.4-0.9 1h-10.1l-8.9 4.35v-3.6l3.5-4.6 0.9-1.2 0.4 1.2 1.25 3.7 1.8-1.3 2.8-2.1v2.45l3.75-1.65 1.55 1.6 2.3-2.25h-1.95l1.2-3.65v-2.65l-3.3 1-1.65-3.3-3.4 2-2.6-2.65-2.75 3.95h-1.55l-1-3.05v-3.75l-2.2 2.75-1.85 1-3.85-2.55-2.55 3.95-2.3-1.85-1.3 2.05-2.65 1.45-2.85-1.55 0.15-0.1 3.25-3.1 10.35-4.5h8.35l9.2 4.5 10.4 4.55m-22.85-27.75q-0.2 0-0.35 0.15t-0.15 0.35l0.15 0.35 0.35 0.1 0.35-0.1 0.1-0.35-0.1-0.35-0.35-0.15m-10.5 5.7 2.3-5.75 3.95-2.1h3.55l2.15 2.7-11.95 5.15m-18.3-0.75q-0.35 0.4-0.35 0.85 0 0.5 0.35 0.8 0.35 0.4 0.85 0.4 0.45 0 0.8-0.4l0.35-0.8q0-0.45-0.35-0.85-0.35-0.3-0.8-0.3-0.5 0-0.85 0.3m-0.7 9.5-3.95-4.05v-4.75l3.95-4.2 6.7-1.4 4.5 2.85 3.95 4.65-6.6 3.15-1 1.1-3.25 2.65h-4.3" fill="#fff" fill-rule="evenodd"/>
<path d="m285.6 181.45 0.35 0.15 0.1 0.35-0.1 0.35-0.35 0.1-0.35-0.1-0.15-0.35q0-0.2 0.15-0.35t0.35-0.15m-28.8 4.95q0.35-0.3 0.85-0.3 0.45 0 0.8 0.3 0.35 0.4 0.35 0.85l-0.35 0.8q-0.35 0.4-0.8 0.4-0.5 0-0.85-0.4-0.35-0.3-0.35-0.8 0-0.45 0.35-0.85" fill-rule="evenodd"/>
<path d="m280.3 173.75 1.3-0.9 4.7 1.2 2.4 4.25 0.35 2.85-2 0.85-2.15-2.7h-3.55l-3.95 2.1-2.3 5.75-1.95 0.9 0.2-3.8-1.65-3 1.65 3-0.2 3.8-1.9 0.95-3.95-4.65-4.5-2.85-6.7 1.4-3.95 4.2v4.75l3.95 4.05-6 1.8-7.1-4.35-1.95-4.8 4.95-9 7.8-4h11.4l5.75 4.5 0.75 1.2 0.9-1.65 0.95-1.6 5.8-3.65q0.45-0.35 0.95-0.6" fill="#877956" fill-rule="evenodd"/>
<path d="m320.1 189.75 1.2 8.8-6.1 1.3h-8.6l-11.75-8.15-17.7 4.3-10.25 11.75-0.15 0.1-1.45 1.35v5.45l1.45 3.75-2 1.35-2.4 10.3v5.25l-5.35 3.75 0.5-6.9-9.55-11.25-3.35-11.95 5.5-11.25 6-1.8h4.3l3.25-2.65 1-1.1 6.6-3.15 1.9-0.95 1.95-0.9 11.95-5.15 2-0.85 1.95-0.85 13.5-3-2.95 3.95 3.5 8.25 4.5 4.5 7.5-1.3 3.05-2.95m-16.05 28.35h1.45l2.75 8.1-18.4 1.4-14.3 9.45 3.7-11.75 5.8-2.85 8.9-4.35h10.1m-68.4-37.85 15.3-37.2 5.55 28.6h6.1l19.4-14.45-1.7 16.55q-0.5 0.25-0.95 0.6l0.35-12.95-11.8 13.5 2.25 1.65 2.45 3.05-0.9 1.65-0.75-1.2-5.75-4.5h-10l-4.5-23.3-10.6 31.95-4.45-3.95m26.95-8.6h0.95l4.35 3.25-4.35-3.25h-0.95m-6.1 0 0.35 1.7-0.35-1.7" fill="#a19166" fill-rule="evenodd"/>
<path d="m266.75 207.85 2.85 1.55 2.65-1.45 1.3-2.05 2.3 1.85 2.55-3.95 3.85 2.55 1.85-1 2.2-2.75v3.75l1 3.05h1.55l2.75-3.95 2.6 2.65 3.4-2 1.65 3.3 3.3-1v2.65l-2.75 1.75-1.45-2.55-2.25 1.8-2-2.75-2.2 3.5-2.1-1.3h-1.2l-0.65 2.75h-3.2l-2.75 2.2v-2.35h-8.85l-6.4 4.3-1.45-3.75v-5.45l1.45-1.35" fill="#554b35" fill-rule="evenodd"/>
<path d="m321.3 198.55-2.2 5.7-4.8 3.85-5.85 1.1-10.4-4.55-9.2-4.5h-8.35l-10.35 4.5-3.25 3.1 10.25-11.75 17.7-4.3 11.75 8.15h8.6l6.1-1.3m-13.05 27.65-2.55 6.4-12.85 2.95-5.15 7.55-8.3 6.25v-5.15l-14.65 12.65-2.6-9.55-5.15-8.25-2.9 6.6-20-14.85-5.35-21.5 2.75-19.1 4.15-9.95 4.45 3.95 0.95 4.35 1.95 4.8 7.1 4.35-5.5 11.25 3.35 11.95 9.55 11.25-0.5 6.9 5.35-3.75v5.2l6.95 2.95 6.25-6.4 14.3-9.45 18.4-1.4" fill="#7d714f" fill-rule="evenodd"/>
<path d="m240.1 184.2 10.6-31.95 4.5 23.3h-1.4l-7.8 4-4.95 9-0.95-4.35m32.5-4.6-2.45-3.05-2.25-1.65 11.8-13.5-0.35 12.95-5.8 3.65-0.95 1.6" fill="#736749" fill-rule="evenodd"/>
<path d="m288.55 214.25-3.5 4.6v3.6l-5.8 2.85-3.7 11.75-6.25 6.4-6.95-2.95v-10.45l2.4-10.3 2-1.35 6.4-4.3h8.85v2.35l2.75-2.2h3.8m-15.65 2.1q-3.1 3.25-5.6 7.05l-0.7 1.05q0.45 1.7-0.25 2.8-0.2 1.35 1.25 1.5l0.75 0.25q5.85-3.45 4.7-10.95-0.1-0.4 0.4-0.7l-0.55-1m9.1 0.1-7.55 6.05 7.55-6.05" fill="#df9e86" fill-rule="evenodd"/>
<path d="m272.9 216.35 0.55 1q-0.5 0.3-0.4 0.7 1.15 7.5-4.7 10.95l-0.75-0.25q-1.45-0.15-1.25-1.5 0.7-1.1 0.25-2.8l0.7-1.05q2.5-3.8 5.6-7.05" fill="#f1d0c9" fill-rule="evenodd"/>
<path d="m304.5 177.3h5.05l11.1 6.75v4.05l-0.55 1.65 1.2 8.8-2.2 5.7-4.8 3.85-5.85 1.1v2.3l-3.15 3.2h-2l-2.3 2.25-1.55-1.6-3.75 1.65v-2.45l-2.8 2.1m11.15 1.45h1.45l2.75 8.1-2.55 6.4-12.85 2.95-5.15 7.55-8.3 6.25v-5.15l-14.65 12.65-2.6-9.55-5.15-8.25-2.9 6.6-20-14.85-5.35-21.5 2.75-19.1 4.15-9.95 15.3-37.2 5.55 28.6h6.1l19.4-14.45-1.7 16.55 1.3-0.9 4.7 1.2 2.4 4.25 0.35 2.85 1.95-0.85 13.5-3m-14.65 36.95-0.4-1.2-0.9 1.2m-0.6 0 0.65-2.75h1.2l2.1 1.3 2.2-3.5 2 2.75 2.25-1.8 1.45 2.55 2.75-1.75m-12.7 3.2h1.35l1.7 2.4" fill="none" stroke="#736653" stroke-linecap="round" stroke-linejoin="round" stroke-width="2"/>
<path d="m303.3 214.7 1.65 2.4-0.9 1m0.45-40.8-2.95 3.95 3.5 8.25 4.5 4.5 7.5-1.3 3.05-2.95m-34.5-8.3 0.35 0.15 0.1 0.35-0.1 0.35-0.35 0.1-0.35-0.1-0.15-0.35q0-0.2 0.15-0.35t0.35-0.15m-10.5 5.7 2.3-5.75 3.95-2.1h3.55l2.15 2.7 2-0.85m-22.3 26.7 2.85 1.55 2.65-1.45 1.3-2.05 2.3 1.85 2.55-3.95 3.85 2.55 1.85-1 2.2-2.75v3.75l1 3.05h1.55l2.75-3.95 2.6 2.65 3.4-2 1.65 3.3 3.3-1v2.65l-1.2 3.65h1.95m-10.4 1.95-1.8 1.3-1.25-3.7m-1.3 0-3.5 4.6v3.6l8.9-4.35h10.1m-37.15-10.35 3.25-3.1 10.35-4.5h8.35l9.2 4.5 10.4 4.55m-68.35-25 10.6-31.95 4.5 23.3h10l5.75 4.5 0.75 1.2 0.9-1.65-2.45-3.05-2.25-1.65-4.35-3.25h-0.95m-12.5 26.05-7.1-4.35-1.95-4.8-0.95-4.35m0.95 4.35 4.95-9 7.8-4h1.4m24.15-1.2q0.45-0.35 0.95-0.6m-8.6 7.5 1.65 3-0.2 3.8 1.95-0.9 11.95-5.15m-14.45-2.4 0.95-1.6 5.8-3.65 0.35-12.95-11.8 13.5m-11.05-1.55-0.35-1.7m0.3 14.75q0.35-0.3 0.85-0.3 0.45 0 0.8 0.3 0.35 0.4 0.35 0.85l-0.35 0.8q-0.35 0.4-0.8 0.4-0.5 0-0.85-0.4-0.35-0.3-0.35-0.8 0-0.45 0.35-0.85m14.45 2.6-3.95-4.65-4.5-2.85-6.7 1.4-3.95 4.2v4.75l3.95 4.05h4.3l3.25-2.65 1-1.1 6.6-3.15 1.9-0.95m-23.05 9.65 6-1.8m10.8 11.85-0.15 0.1-1.45 1.35v5.45l1.45 3.75 6.4-4.3h8.85v2.35l2.75-2.2h3.8m-26.2 21.05v-5.25l2.4-10.3 2-1.35m7.7 4.1 7.55-6.05m-6.45 20.6-6.25 6.4-6.95-2.95v-5.2m22.7-12.85-5.8 2.85-3.7 11.75" fill="none" stroke="#736653" stroke-linecap="round" stroke-linejoin="round" stroke-width=".05"/>
</g>
</defs>
</svg>
