<?xml version="1.0" encoding="UTF-8"?>
<svg version="1.1" viewBox="0 0 201.75 270.75" xmlns="http://www.w3.org/2000/svg" xmlns:cc="http://creativecommons.org/ns#" xmlns:dc="http://purl.org/dc/elements/1.1/" xmlns:rdf="http://www.w3.org/1999/02/22-rdf-syntax-ns#" xmlns:xlink="http://www.w3.org/1999/xlink">
<metadata>
<rdf:RDF>
<cc:Work rdf:about="">
<dc:format>image/svg+xml</dc:format>
<dc:type rdf:resource="http://purl.org/dc/dcmitype/StillImage"/>
</cc:Work>
</rdf:RDF>
</metadata>
<g transform="translate(-230.75,-92.8)">
<use transform="translate(230.75,92.8)" width="201.75" height="270.75" xlink:href="#c"/>
<use transform="matrix(1.1564 0 0 1.3485 304.53 167.67)" width="18.4" height="71.800003" xlink:href="#a"/>
<use transform="matrix(1.5509 -.4156 .132 .4679 288.73 139.28)" width="18.4" height="71.800003" xlink:href="#a"/>
<use transform="matrix(.9659 .2588 -.5835 2.1776 257.5 121.05)" width="23.9" height="23.9" xlink:href="#b"/>
</g>
<defs>
<g id="c" transform="translate(-230.75,-92.8)">
<path d="m331.65 93.8v0.45l75.3 16.8-25.2 36.75-0.85-0.1-49.25-10.95h-0.05v-0.45l-49.3 10.95-0.85 0.1-25.2-36.75 75.4-16.8" fill="#fff" fill-rule="evenodd"/>
<path d="m380.9 147.7 0.8 0.2 0.35 0.05 15.4 47.15-22.95 8.3v-0.1l-10.3-31.75 16.7-23.85m-98.6-0.45 16.75 23.85-10.3 31.75-0.05 0.1-22.95-8.3 15.45-47.15 0.35-0.05 0.75-0.2m6.4 83.2 0.05 0.05 10.3 31.75-16.75 23.9-0.75-0.2-0.35-0.1-15.45-47.15 22.95-8.25" fill="#e30f0f" fill-rule="evenodd"/>
<path d="m374.5 203.3v0.1-0.1m7.55-55.35-0.35-0.05 0.05-0.1 0.3 0.15m-7.55 82.5v0.05-0.05m7.2 55.5 0.35-0.1-0.3 0.2-0.05-0.1m-100.15-138.5-0.35 0.05 0.25-0.15 0.1 0.1m7.15 55.5 0.05-0.1v0.1h-0.05m0.05 27.55-0.05-0.05h0.05v0.05m-7.55 55.35 0.35 0.1-0.1 0.1-0.25-0.2" fill="#f1f0b1" fill-rule="evenodd"/>
<path d="m406.95 111.05 24.55 71.85-34.05 12.2-15.4-47.15-0.3-0.15 25.2-36.75m-150.7 211.75-24.5-71.9 34-12.2 15.45 47.15 0.25 0.2-25.2 36.75m-24.5-140.35 24.5-71.85 25.2 36.75-0.25 0.15-15.45 47.15-34-12.2" fill="#ff6817" fill-rule="evenodd"/>
<path d="m381.7 147.9-0.8-0.2 0.85 0.1-0.05 0.1m0 138.05 0.05 0.1-0.85 0.1 0.8-0.2m-100.15-138.5-0.1-0.1 0.85-0.1-0.75 0.2m0 138.5 0.75 0.2-0.85-0.1 0.1-0.1" fill="#ff6024" fill-rule="evenodd"/>
<path d="m380.9 147.7-16.7 23.85-0.35-1.3-32.2-6.2h-0.05v-0.45l-32.2 6.2-0.35 1.3-16.75-23.85 49.3-10.95v0.45h0.05l49.25 10.95m-81.85 114.55 0.35 1.3 32.2 6.2 0.05 27.3h-0.05l-49.3-10.9 16.75-23.9" fill="#f99797" fill-rule="evenodd"/>
<path d="m364.2 171.55 10.3 31.75v27.2l-10.3 31.75-0.35 1.3-32.2 6.2h-0.05l-32.2-6.2-0.35-1.3-10.3-31.75v-27.65l10.3-31.75 0.35-1.3 32.2-6.2v0.45h0.05l32.2 6.2 0.35 1.3" fill="#f12c2c" fill-rule="evenodd"/>
<path d="m374.5 203.4 22.95-8.3 0.2 19.95-0.2 23.65-22.95-8.25v-27.05m-108.75-8.75 22.95 8.3h0.05v27.5h-0.05l-22.95 8.25-0.2-23.65h0.05l0.15-20.4" fill="#a40b0b" fill-rule="evenodd"/>
<path d="m431.5 182.9v68l-34.05-12.2 0.2-23.65-0.2-19.95 34.05-12.2m-199.75 68v-68.45l34 12.2-0.15 20.4h-0.05l0.2 23.65-34 12.2" fill="#8d0a0a" fill-rule="evenodd"/>
<path d="m374.5 230.45 22.95 8.25-15.4 47.15-0.35 0.1-0.8 0.2-16.7-23.9 10.3-31.75v-0.05" fill="#d90000" fill-rule="evenodd"/>
<path d="m331.6 269.75h0.05l32.2-6.2 0.35-1.3 16.7 23.9-49.25 10.9-0.05-27.3" fill="#f24848" fill-rule="evenodd"/>
<path d="m331.65 362.55-75.4-39.75 25.2-36.75 0.85 0.1 49.3 10.9h0.05v65.5" fill="#fcd5b8" fill-rule="evenodd"/>
<path d="m431.5 250.9-24.55 71.9-25.2-36.75 0.3-0.2 15.4-47.15 34.05 12.2" fill="#ff4600" fill-rule="evenodd"/>
<path d="m406.95 322.8-75.3 39.75v-65.5l49.25-10.9 0.85-0.1 25.2 36.75" fill="#feceab" fill-rule="evenodd"/>
<path d="m381.7 147.9-0.8-0.2m1.15 0.25-0.35-0.05m0.35 137.95-0.35 0.1-0.8 0.2m-99.7-138.65 0.35-0.05 0.75-0.2m-1.1 138.6 0.35 0.1 0.75 0.2" fill="none" stroke="#000" stroke-linecap="round" stroke-linejoin="round" stroke-width=".05"/>
<path d="m331.65 94.25 75.3 16.8 24.55 71.85v68l-24.55 71.9-75.3 39.75-75.4-39.75-24.5-71.9v-68.45l24.5-71.85 75.4-16.8" fill="none" stroke="#000" stroke-linecap="round" stroke-linejoin="round" stroke-width="2"/>
</g>
<g id="a" transform="translate(3,-1.35)">
<path d="m15.4 1.35v71.8h-18.4v-71.8h18.4" fill="#fff" fill-opacity=".42745" fill-rule="evenodd"/>
</g>
<g id="b">
<path d="m23.9 11.95q0 4.95-3.5 8.45t-8.45 3.5-8.45-3.5-3.5-8.45 3.5-8.45 8.45-3.5 8.45 3.5 3.5 8.45" fill="#fff" fill-opacity=".5098" fill-rule="evenodd"/>
</g>
</defs>
</svg>
