<?xml version="1.0" encoding="UTF-8"?>
<svg version="1.1" viewBox="0 0 104.35 89.35" xmlns="http://www.w3.org/2000/svg" xmlns:cc="http://creativecommons.org/ns#" xmlns:dc="http://purl.org/dc/elements/1.1/" xmlns:rdf="http://www.w3.org/1999/02/22-rdf-syntax-ns#" xmlns:xlink="http://www.w3.org/1999/xlink">
<metadata>
<rdf:RDF>
<cc:Work rdf:about="">
<dc:format>image/svg+xml</dc:format>
<dc:type rdf:resource="http://purl.org/dc/dcmitype/StillImage"/>
</cc:Work>
</rdf:RDF>
</metadata>
<g transform="translate(-214.78 -146.88)">
<use transform="translate(214.8,146.9)" width="104.3" height="89.300003" xlink:href="#d"/>
<use transform="matrix(.0073 .3179 .8592 -.0197 252.44 196.84)" width="54.799999" height="39.5" xlink:href="#b"/>
</g>
<defs>
<g id="d" transform="translate(-214.8,-146.9)">
<path d="m252.45 158.7v-0.15q0-2.2 4.45-3.7 1.2-0.45 2.55-0.75v4.2q0.1 1.1 2.4 1.9l4.15 0.75 1.6 0.1q3.05-0.05 5.35-0.7 1.8 0.35 3.05 1.8l0.45 0.55q-3.85 1-8.85 1.05-6.3-0.05-10.7-1.55-4.3-1.5-4.45-3.5m7-8.85v-0.1q0-1.2 2.4-2 2.4-0.85 5.75-0.85l0.9 0.05 2.35 1.65 0.65 0.55 0.25 1.1v1.9l-4.15 0.4q-3.35-0.05-5.75-0.85-2.3-0.8-2.4-1.85" fill="#c5b69e" fill-rule="evenodd"/>
<path d="m252.45 170.35v-11.65q0.15 2 4.45 3.5 4.4 1.5 10.7 1.55 5-0.05 8.85-1.05l0.25 0.25-0.1 2.15q-0.45 2.8-1.6 5.55l-2.5 4.9q-1.3 2.15-3.8 2.65l-4 0.7-1.9 0.3q-3.3-0.4-5.9-1.25-4.3-1.5-4.45-3.5v-4.1m7-16.25v-4.25q0.1 1.05 2.4 1.85 2.4 0.8 5.75 0.85l4.15-0.4v0.1h0.15q1.4 1.6 0.5 4l-1.4 1.95q-1.95 1.6-4.45 2.05-0.75 0.15-0.65 0.65l0.1 0.05-4.15-0.75q-2.3-0.8-2.4-1.9v-4.2m3.5 25.15 1.3 0.05 0.25 0.05-1.55-0.1" fill="#957959" fill-rule="evenodd"/>
<path d="m268.5 146.95q2.75 0.05 4.8 0.75l0.1 0.05q2.35 0.8 2.35 2v0.1q-0.1 1.05-2.35 1.85l-1.6 0.45h-0.05 0.05l0.1 0.1h-0.15v-2l-0.25-1.1-0.65-0.55-2.35-1.65m7.25 7.2 2.55 0.7q1.7 0.55 2.75 1.3l0.6 0.45q1.05 0.85 1.05 1.95v0.15q-0.15 2-4.4 3.5l-1.65 0.5h-0.2 0.2l0.05 0.25-0.25-0.25-0.45-0.55q-1.25-1.45-3.05-1.8l0.45-0.15q2.25-0.8 2.35-1.9v-4.15" fill="#baa98d" fill-rule="evenodd"/>
<path d="m275.75 149.85v8.45q-0.1 1.1-2.35 1.9l-0.45 0.15q-2.3 0.65-5.35 0.7l-1.6-0.1-0.1-0.05q-0.1-0.5 0.65-0.65 2.5-0.45 4.45-2.05l1.4-1.95q0.9-2.4-0.5-4l-0.1-0.1 1.6-0.45q2.25-0.8 2.35-1.85m6.95 8.85v15.75q-0.1 1-1.2 1.9-1.1 0.85-3.2 1.6-3.7 1.25-8.65 1.45l-2.05 0.1-3.1-0.15-0.25-0.05-1.3-0.05-0.15-0.05 0.15 0.05h-0.25l0.1-0.05 1.9-0.3 4-0.7q2.5-0.5 3.8-2.65l2.5-4.9q1.15-2.75 1.6-5.55l0.1-2.15-0.05-0.25 1.65-0.5q4.25-1.5 4.4-3.5" fill="#7a6349" fill-rule="evenodd"/>
<path d="m241.8 188.5q-3-1.75-3.15-3.85v-0.25q-0.05-0.65 0.25-1.25 0.35-1 1.45-1.85 1.3-1.1 3.55-2.05-0.75-0.95-0.8-1.95v-0.3q-0.05-3.55 7.15-6l2.2-0.65v4.1q0.15 2 4.45 3.5 2.6 0.85 5.9 1.25l-0.1 0.05h0.25l1.55 0.1 3.1 0.15 2.05-0.1 0.35 0.3 0.8 0.8q0.4 0.65 0.45 1.6 0 0.9-0.7 2l-1.15 1.2-0.15 0.15h-1.55q-10.2 0-17.45-2.45-4.75-1.65-6.35-3.75 1.6 2.1 6.35 3.75 7.25 2.45 17.45 2.45h2l0.2 0.9 0.25 1.25-1.15 1.45q-0.85 0.8-2.05 1.2l-0.7 0.25-1.85 0.4-3.65 0.95-3.05-0.15-4.7-0.7-3.2-0.5q-1.65-0.25-3.4-1.1l-1.15-0.65q-1.4-0.75-2.85-0.75l-0.6 0.5m52.15 11.05q1.85 0.25 5.85 1.45l6.3 2.05q13.05 5 13 11.9v0.55q-0.2 2.75-2.5 5.2-3.75 3.8-12.75 6.85l-4.55 1.45q-13.85 3.85-32.35 3.9h-1.45q-17.35-0.2-30.5-3.85l-4.25-1.25-0.7-0.25q-10.1-3.4-13.45-7.8-1.6-2.05-1.8-4.25v-0.55q0-7.3 14.55-12.45 8.4-2.15 11.9-2.85-0.15-3.65 0.85-7 5.25 2.2 17.5 3.6 12.3 1.35 15.4 2.6l0.35 0.15 1.5-1.3 1.2 2.25-0.6 0.3h-0.05q5.25 4 3.3 11.75-0.85 3.65-2.4 6.55l0.4 0.05-0.3 0.05-11.05 1.05q-9-0.05-15.4-2.2-2.1-0.75-3.75-1.95-0.3 1.15-7.1 0.5-1.25-0.9-1.95-1.8-0.9-1.15-1-2.4v-0.3q-0.05-0.85 0.3-1.65-0.35 0.8-0.3 1.65v0.3q0.1 1.25 1 2.4 0.7 0.9 1.95 1.8l-0.65 0.4-0.35 1.2-0.65 1.05q-0.4 0.55 0.6 0.45-1.05 0.15 1.1 1l1.15 0.45 1.15 0.4q9.9 3.1 23.6 3.15 8.9 0 16.25-1.35 4.5-0.85 8.4-2.15l0.15-0.05q3.4-1.2 5.7-2.5 1.75-1.05 2.85-2.15 1.55-1.65 1.7-3.5v-0.35q0-3.25-4.3-5.9-1.85-1.15-4.45-2.1l0.1-0.6 0.3-2 0.2-1.95m-29.7-3.5-0.65-0.1 0.05-0.05 0.6 0.15m-16.05 19.5q-1.35-1-2.4-2.35-1.5-1.8-2.4-4.25l-0.95-2.75-0.65-2.45-0.5-3.1-0.05-1 0.05 1 0.5 3.1 0.65 2.45 0.95 2.75q0.9 2.45 2.4 4.25 1.05 1.35 2.4 2.35m-5.75-9.35-1.3 0.75 1.3-0.75m-0.65-2.45q-9.8 3.45-9.8 8.35v0.35q0.15 1.5 1.2 2.85 1.15 1.45 3.4 2.8 1.85 1.1 4.55 2.05-2.7-0.95-4.55-2.05-2.25-1.35-3.4-2.8-1.05-1.35-1.2-2.85v-0.35q0-4.9 9.8-8.35" fill="#fff" fill-rule="evenodd"/>
<path d="m242.1 192.65 0.3-0.95 1-2.4-1.6-0.8 0.6-0.5q1.45 0 2.85 0.75l1.15 0.65q1.75 0.85 3.4 1.1l3.2 0.5 4.7 0.7 3.05 0.15 3.65-0.95 1.85-0.4 0.7-0.25q1.2-0.4 2.05-1.2l1.15-1.45-0.25-1.25 8.9 1q4.55 0.15 9.5-1.5l0.45-0.15q0.8 1.1 0.8 2.65l-0.25 1.4-0.15 0.05-4.25 1.4-0.55 0.15-4 0.85-2.45 0.4-2.4 0.25-0.15 0.05-2.7 0.15-2.75 0.15h-5.75l-2.75-0.15-2.65-0.15-2.55-0.3-4.75-1.15-4.45-1.05-3.6-1.1 3.6 1.1 4.45 1.05 4.75 1.15 2.55 0.3 2.65 0.15 2.75 0.15h5.75l2.75-0.15 2.7-0.15 0.15-0.05 1.45 0.2q4.85-0.2 9.8 1.3l5.45 0.3 1.5-0.65q0.4 2.7 0.25 5.55l-0.2 1.95-0.3 2-0.1 0.6-0.45 2.05-0.55 1.9q-1.65 3.45-3.85 5.75l-0.55 0.55-1.5 1.25q-1.75 1.2-3.7 1.9l-4.05 1.1-0.4-0.05q1.55-2.9 2.4-6.55 1.95-7.75-3.3-11.75h0.05l0.6-0.3-1.2-2.25-1.5 1.3-0.35-0.15q-3.1-1.25-15.4-2.6-12.25-1.4-17.5-3.6m57.2 36.35q-2.6 1.95-7.45 3.65-10.3 3.5-24.8 3.55h-0.35q-1.85-1.8-1.2-3.3h1.45q18.5-0.05 32.35-3.9m-29.65-49.6q4.95-0.2 8.65-1.45 2.1-0.75 3.2-1.6l2.95 0.3q2.7 0.55 3.4 3.2 0.25 1 0.05 2.05l-0.65 0.3-3.35 1.2-4 0.95-3.8 0.6-4.2 0.35-2.2 0.15h-0.45l0.15-0.15 1.15-1.2q0.7-1.1 0.7-2-0.05-0.95-0.45-1.6l-0.8-0.8-0.35-0.3m-5.4 16.65-0.6-0.15-0.05 0.05 0.65 0.1m18.1 24.3q1.55 1.1 2.45 1.35l-1.5 1.1q-7.35 1.35-16.25 1.35-13.7-0.05-23.6-3.15l-1.15-0.4-1.15-0.45q-2.15-0.85-1.1-1-1 0.1-0.6-0.45l0.65-1.05 0.35-1.2 0.65-0.4q6.8 0.65 7.1-0.5 1.65 1.2 3.75 1.95 6.4 2.15 15.4 2.2l11.05-1.05q1.1 0.7 2.7 0.8l1.25 0.9q-5.65 1.15-12.4 1.3 6.75-0.15 12.4-1.3m-15.6 1.35q-11.65-0.15-19.95-3-2.9-1-4.75-2.1l-0.95-0.55 0.95 0.55q1.85 1.1 4.75 2.1 8.3 2.85 19.95 3" fill="#dfecd2" fill-rule="evenodd"/>
<path d="m282.7 170.3 2.15 0.65 0.25 0.05q3 1.05 4.75 2.25 2.3 1.65 2.4 3.6v0.45l-0.4 1.4-0.75 1 1 0.5 0.35 0.25 0.45 0.3 1.65 1.6q0.8 1.1 0.75 2.5-0.25 1.2-1.25 2.15l-1.3 1.05-0.45 0.35 0.55 1.55 0.35 1.3 0.25 1.3 0.25 1.45-1.5 0.65-5.45-0.3q-4.95-1.5-9.8-1.3l-1.45-0.2 2.4-0.25 2.45-0.4 4-0.85 0.55-0.15 4.25-1.4 0.15-0.05 0.25-1.4q0-1.55-0.8-2.65l-0.45 0.15q-4.95 1.65-9.5 1.5l-8.9-1-0.2-0.9 2.2-0.15 4.2-0.35 3.8-0.6 4-0.95 3.35-1.2 0.65-0.3q0.2-1.05-0.05-2.05-0.7-2.65-3.4-3.2l-2.95-0.3q1.1-0.9 1.2-1.9v-4.15m-16 65.9q-14.25-0.05-24.4-3.55-4.8-1.65-7.3-3.6 13.15 3.65 30.5 3.85-0.65 1.5 1.2 3.3m12-17.6 4.05-1.1q1.95-0.7 3.7-1.9l1.5-1.25 0.55-0.55q2.2-2.3 3.85-5.75l0.55-1.9 0.45-2.05q2.6 0.95 4.45 2.1 4.3 2.65 4.3 5.9v0.35q-0.15 1.85-1.7 3.5-1.1 1.1-2.85 2.15-2.3 1.3-5.7 2.5l-0.15 0.05q-3.9 1.3-8.4 2.15l1.5-1.1q-0.9-0.25-2.45-1.35l3.05-0.65-3.05 0.65-1.25-0.9q-1.6-0.1-2.7-0.8l0.3-0.05m13.6-30.2-3 1.35 3-1.35m-1.2-8.7q-1.4 1.4-3.2 2.2 1.8-0.8 3.2-2.2m-5.7 40 0.5-0.15-0.45 0.1-0.05 0.05m10.85-5.4q0.9-1.2 1-2.45v-0.45l-0.15-1q-0.25-0.85-0.9-1.65-1.1-1.4-3.3-2.6 2.2 1.2 3.3 2.6 0.65 0.8 0.9 1.65l0.15 1v0.45q-0.1 1.25-1 2.45m-1.3 1.3-1.55 1-2.45 1.2-2.35 0.9-2.35 0.75-0.35 0.1 0.35-0.1 2.35-0.75 2.35-0.9 2.45-1.2 1.55-1" fill="#d2e4c0" fill-rule="evenodd"/>
<path d="m285.9 219.55-0.5 0.15 0.05-0.05 0.45-0.1" fill="#999" fill-rule="evenodd"/>
<path d="m242.1 192.65 0.3-0.95 1-2.4-1.6-0.8q-3-1.75-3.15-3.85v-0.25q-0.05-0.65 0.25-1.25 0.35-1 1.45-1.85 1.3-1.1 3.55-2.05-0.75-0.95-0.8-1.95v-0.3q-0.05-3.55 7.15-6l2.2-0.65v-11.8q0-2.2 4.45-3.7 1.2-0.45 2.55-0.75v-4.35q0-1.2 2.4-2 2.4-0.85 5.75-0.85l0.9 0.05q2.75 0.05 4.8 0.75l0.1 0.05q2.35 0.8 2.35 2v4.4l2.55 0.7q1.7 0.55 2.75 1.3l0.6 0.45q1.05 0.85 1.05 1.95v11.75l2.15 0.65 0.25 0.05q3 1.05 4.75 2.25 2.3 1.65 2.4 3.6v0.45l-0.4 1.4-0.75 1 1 0.5 0.35 0.25 0.45 0.3 1.65 1.6q0.8 1.1 0.75 2.5-0.25 1.2-1.25 2.15l-1.3 1.05-0.45 0.35 0.55 1.55 0.35 1.3 0.25 1.3 0.25 1.45q0.4 2.7 0.25 5.55 1.85 0.25 5.85 1.45l6.3 2.05q13.05 5 13 11.9v0.55q-0.2 2.75-2.5 5.2-3.75 3.8-12.75 6.85l-4.55 1.45q-2.6 1.95-7.45 3.65-10.3 3.5-24.8 3.55h-0.35q-14.25-0.05-24.4-3.55-4.8-1.65-7.3-3.6l-4.25-1.25-0.7-0.25q-10.1-3.4-13.45-7.8-1.6-2.05-1.8-4.25v-0.55q0-7.3 14.55-12.45 8.4-2.15 11.9-2.85-0.15-3.65 0.85-7m36.6 25.95 4.05-1.1q1.95-0.7 3.7-1.9l1.5-1.25 0.55-0.55q2.2-2.3 3.85-5.75l0.55-1.9 0.45-2.05 0.1-0.6 0.3-2 0.2-1.95m-22.15-47.4 1.6-0.45q2.25-0.8 2.35-1.85m-2.8 10.5 0.45-0.15q2.25-0.8 2.35-1.9v-4.15m-4-2h0.05m-5.8 8.8 1.6 0.1q3.05-0.05 5.35-0.7m3.5 2.35h0.2l1.65-0.5q4.25-1.5 4.4-3.5m-19.9 20.5 0.15 0.05 1.55 0.1 3.1 0.15 2.05-0.1q4.95-0.2 8.65-1.45 2.1-0.75 3.2-1.6 1.1-0.9 1.2-1.9v-4.15m-23.25-16.2v4.2q0.1 1.1 2.4 1.9l4.15 0.75m-13.55 9.4v4.1q0.15 2 4.45 3.5 2.6 0.85 5.9 1.25m6.45 6.25h-1.55q-10.2 0-17.45-2.45-4.75-1.65-6.35-3.75m-0.5 10.05 3.6 1.1 4.45 1.05 4.75 1.15 2.55 0.3 2.65 0.15 2.75 0.15h5.75l2.75-0.15 2.7-0.15 0.15-0.05 2.4-0.25 2.45-0.4 4-0.85 0.55-0.15 4.25-1.4 0.15-0.05 3-1.35m-22.6-2.95h-0.45m0.45 0 2.2-0.15 4.2-0.35 3.8-0.6 4-0.95 3.35-1.2 0.65-0.3q1.8-0.8 3.2-2.2m-5.2 39.85-0.5 0.15-3.05 0.65q-5.65 1.15-12.4 1.3m13.35 1.15q4.5-0.85 8.4-2.15l0.15-0.05q3.4-1.2 5.7-2.5 1.75-1.05 2.85-2.15 1.55-1.65 1.7-3.5v-0.35q0-3.25-4.3-5.9-1.85-1.15-4.45-2.1m-7.95 15.6 0.05-0.05 0.45-0.1 0.35-0.1 2.35-0.75 2.35-0.9 2.45-1.2 1.55-1m-2.05-9.45q2.2 1.2 3.3 2.6 0.65 0.8 0.9 1.65l0.15 1v0.45q-0.1 1.25-1 2.45m-17.55 4.3-0.3 0.05-11.05 1.05q-9-0.05-15.4-2.2-2.1-0.75-3.75-1.95m-7.1 0.5 0.95 0.55q1.85 1.1 4.75 2.1 8.3 2.85 19.95 3m-25.5-22.05 0.05 1 0.5 3.1 0.65 2.45 0.95 2.75q0.9 2.45 2.4 4.25 1.05 1.35 2.4 2.35m51.1 13.45q-13.85 3.85-32.35 3.9h-1.45q-17.35-0.2-30.5-3.85m48.3-6.25q-7.35 1.35-16.25 1.35-13.7-0.05-23.6-3.15l-1.15-0.4-1.15-0.45q-2.7-0.95-4.55-2.05-2.25-1.35-3.4-2.8-1.05-1.35-1.2-2.85v-0.35q0-4.9 9.8-8.35m-0.65 3.2 1.3-0.75m-1.35 9.85q-1.25-0.9-1.95-1.8-0.9-1.15-1-2.4v-0.3q-0.05-0.85 0.3-1.65" fill="none" stroke="#000" stroke-linecap="round" stroke-linejoin="round" stroke-opacity=".30196" stroke-width=".05"/>
</g>
<g id="b" transform="translate(-.45 -.1)">
<use transform="matrix(-.7803 -.2124 -.2282 .7263 55.25 12.45)" width="34.75" height="31" xlink:href="#a"/>
<use transform="matrix(.959 -.2804 .2804 .959 .45 9.85)" width="34.75" height="31" xlink:href="#a"/>
</g>
<g id="a">
<use width="34.75" height="31" xlink:href="#c"/>
</g>
<g id="c">
<path d="m32.5 9.25q-0.75 0.55-1.85 0.65l-0.25 0.15-0.8 0.25-0.25 0.35q-0.9 1.7 0.3 3.4l0.15 0.1 0.15-0.15 0.3-0.35q0.7-0.75 1.55-0.9l0.05 0.75q-1.45 0.7-2 1.9v1.45q0.65 1.25 2.05 2.5l2.15 0.15-0.95 2q-0.5 1.35-2 2.65-0.8 0.25-1.95 0l1.45-3.7q-0.3-1.55-1.35-2.9-0.35-0.45-1.5-0.75-1.15 2.45-0.9 4.8 0.2 1.45 1.35 2.8l0.55 0.4-1.1 0.8-2.9 0.05q-0.2 1.4 0.55 2.6 0.2 0.9 2.8 1.3 2.95 0.05 4.55-1.05-0.45 1.15-1.3 1.5-2 0.9-4.75 1-1.4-0.15-2.95-1-1.05-0.8-1.3-1.75-0.05-1.05 0.8-2.1-1.9 0.5-4.2 0-2.25-1.15-2.8-2.5l-2.05-1.4-1.65-1.7-0.6 0.35q-1.3 1.45-1.25 3.7 0.2 1.8 3.8 4-1.25 0.3-3.05-0.8-1.75-1.25-2.6-2.7-0.5-1.4 0-2.85 0.8-1.4 2-1.9v-1.2l-5.1 0.2q-1.8-0.15-2.75-1-0.3-0.8-0.1-1.55 0.45 0.7 3.1 1 3-0.1 4.85-1.35 1.65-1.1 1.95-2.25l-0.4-0.55-0.5-0.2-0.1-0.05h-1.55l-1.05-0.1-1.75 0.3-1.6 0.5-0.75 0.3-0.85-0.25-1.6-0.7-1.5-0.9 1.4 0.5 2.4 0.15q2.45-0.05 2.85-2.45l-0.75-0.6v-0.2l-0.1-0.05-0.85-1.7 0.45 0.2v-1.3l0.25 0.5q0.55 2.15 3.15 2.75 2.65 0 3.4-2.45l-0.4-0.95v-0.35l0.1-0.3h0.1q1.55 0.65 1.95 2.55 0.45 2.15 1.25 4.15 0.85 0.55 1.7-0.25h0.1l0.2 2.4 0.05 0.05h0.05v-0.05l0.75-0.35q0.65-0.5 0.75-1.4v-1.55l-1.6-1.95-0.35-1.95q-0.45-1.35 0-2.7l0.75 1.55 0.5 1.45q1.05 2.75 3.35 4.65l1.7-0.2 0.25-0.35 0.65-1.85-0.65-0.55-0.4-1.3h1.8l1.15-0.3 0.25-0.85q0.4-2.3-1.6-3.65-0.3-1.45 0.55-2.75 0.55-0.8 1.5-1-0.35 0.85-0.4 1.7-0.05 1.1 0.4 2.2 0.7 2.2 3 4.25 0.45 0.6 1.8 1m-6.55 4.25 0.55-0.25 0.3-0.2q0.8-1.1 0.85-2.55l-0.2-0.25-0.9-0.7h-0.1q-1.15 0.2-1.25 1.45-0.05 1.1 0.3 2.15l0.4 0.35h0.05m-4.85 4.95 0.4 0.75q-1-0.95-3.5-1.7l-1.7-0.05q-2.65 0.1-4.4 1.7l0.3 0.7q2.5 1.25 4.05 1.15 3.1 0.05 5.65-1.15l0.15 0.3q-2.55 0.7-3.2 1.9-0.4 0.95 1 1.7 2.65 1.05 5.25 0.9 1.25-0.65 0.7-1.35l-2.3-1.35-0.95-0.85h1.15q-0.65-1.95 0-3.75l-1.65 0.05q-1.3-1.7-3.1-1.8l-2.1 0.15q-2.15-0.05-3.8-0.9-1.15 1.2-1.75 2.6l0.05-0.05q0.8-0.45 1.65-0.5h2.15l0.6-0.2h1.3l4.05 1.75" fill="#e89553" fill-rule="evenodd"/>
<path d="m27.7 0.1 0.4-0.1q1.9 0.1 2.85 0.95 1.7 1.4 2.4 3.05 0.7 1.85 0.2 3.7-3.4-0.95-6.25-5.9 0.05-0.85 0.4-1.7m2.95 9.8q1 1.35 1.15 2.85-0.85 0.15-1.55 0.9l-0.5-1.85 0.65-1.1v-0.65l0.25-0.15m1.2 3.6h1.05q1.1 0.45 1.25 0.9l0.35 1.15 0.25 1.7-0.25 1-0.45 1.25-2.15-0.15q-1.4-1.25-2.05-2.5v-1.45q0.55-1.2 2-1.9m-2.7 10.65-0.4 0.65-0.55-0.4q-1.15-1.35-1.35-2.8-0.25-2.35 0.9-4.8 1.15 0.3 1.5 0.75 1.05 1.35 1.35 2.9l-1.45 3.7m-1.5 1.45q4.45 1.1 5 2.9-1.6 1.1-4.55 1.05-2.6-0.4-2.8-1.3-0.75-1.2-0.55-2.6l2.9-0.05m-13.55-3.35q1.15 2.75 1.1 5.35 0 0.6-0.8 1-4.95-3.95-1.95-8.05l1.65 1.7m-11.3-5.45 0.1-0.3 0.75-0.95 1.35-1.15 0.75-0.3 1.6-0.5 1.75-0.3 1.05 0.1h1.55l0.1 0.05-0.6 1.1q-3 2.95-8.4 2.25m-1.75-4.25-0.9-1.25q-0.4-1.4 0.15-2.35 0.55-1 2.2-1.55 1.5-0.05 3.5 0.8l0.85 1.7 0.1 0.05v0.2l-0.5 1.2q-0.5 0.65-1.5 0.9l-3.9 0.3m5.4-5.45q0-1.7 0.7-2.7 0.85-0.9 2.2-0.65 2.05 0.7 3.4 2.6l0.2-0.05-0.1 0.3v0.35q-0.2 0.65-1.15 1.35-2.4 1.55-5.25-1.2l0.25 0.5-0.25-0.5m6.6-0.8 1.9 0.05q1.5 0.4 2.95 1.6l0.35 1.95q0.2 1.4-0.2 2.8l-0.1 0.05q-0.85 0.8-1.7 0.25-0.8-2-1.25-4.15-0.4-1.9-1.95-2.55m4.85-1.05q0.8-0.75 2.7 0 2.5 1.3 3.45 3.4l0.4 1.3-1 2.15q-1.1-0.45-2.25-1.85l-2.15-2.85-0.4-0.6-0.75-1.55m2.7-0.75 0.5-0.65q2.1-1.05 4.55 0 2 1.35 1.6 3.65-1.8 0-3.6-0.85l-3.05-2.15m5.35 9h-0.05l-0.4-0.35q-0.35-1.05-0.3-2.15 0.1-1.25 1.25-1.45h0.1l-0.1 0.7-0.55 3.2 0.05 0.05m3.7 0.55 0.3-0.05-0.15 0.15-0.15-0.1m-7.6 3.35q0 0.6-0.95 1.05l-4.05-1.75h-1.3l-0.6 0.2-2.15-1.15v1.15q-0.85 0.05-1.65 0.5l-0.05 0.05q0.6-1.4 1.75-2.6 1.65 0.85 3.8 0.9l2.1-0.15q1.8 0.1 3.1 1.8m-0.55 1.8 0.4 0.65q-2.55 1.2-5.65 1.15-1.55 0.1-4.05-1.15l-0.3-0.7q1.75-1.6 4.4-1.7l1.7 0.05q2.5 0.75 3.5 1.7m0.55 0.95 0.5 0.95 0.95 0.85 2.3 1.35q0.55 0.7-0.7 1.35-2.6 0.15-5.25-0.9-1.4-0.75-1-1.7 0.65-1.2 3.2-1.9m-9.3-13.8 0.1 0.25-0.1-0.25" fill="#ffeb88" fill-rule="evenodd"/>
<path d="m33.55 7.7-0.05 0.15q-0.35 0.9-1 1.4-1.35-0.4-1.8-1-2.3-2.05-3-4.25-0.45-1.1-0.4-2.2 2.85 4.95 6.25 5.9m-12.95-2.45v-0.75l3.05 2.15q1.8 0.85 3.6 0.85l-0.25 0.85-1.15 0.3h-1.8q-0.95-2.1-3.45-3.4m9.8 4.8v0.65l-0.65 1.1 0.5 1.85-0.3 0.35-0.3 0.05q-1.2-1.7-0.3-3.4l0.25-0.35 0.8-0.25m-11.75-3.25 0.4 0.6 2.15 2.85q1.15 1.4 2.25 1.85l1-2.15 0.65 0.55-0.65 1.85-0.25 0.35-1.7 0.2q-2.3-1.9-3.35-4.65l-0.5-1.45m7.9 2.75 0.9 0.7 0.2 0.25q-0.05 1.45-0.85 2.55l-0.3 0.2-0.55 0.25-0.05-0.05 0.55-3.2 0.1-0.7m-13.7-2.6 0.4 0.95q-0.75 2.45-3.4 2.45-2.6-0.6-3.15-2.75l-0.25-0.5q2.85 2.75 5.25 1.2 0.95-0.7 1.15-1.35m-11.8 5.6 3.9-0.3q1-0.25 1.5-0.9l0.5-1.2 0.75 0.6q-0.4 2.4-2.85 2.45l-2.4-0.15-1.4-0.5m10.75 0.9 0.5 0.2 0.4 0.55q-0.3 1.15-1.95 2.25-1.85 1.25-4.85 1.35-2.65-0.3-3.1-1 5.4 0.7 8.4-2.25l0.6-1.1m2.6 15.15q-3.6-2.2-3.8-4-0.05-2.25 1.25-3.7l0.6-0.35q-3 4.1 1.95 8.05" fill="#ffbc65" fill-rule="evenodd"/>
<path d="m18.35 15.15v0.05h-0.05l-0.05-0.05h0.1m-0.3-2.4h-0.1l0.1-0.05v0.05" fill="#daa16a" fill-rule="evenodd"/>
<path d="m27.7 0.1 0.4-0.1q1.9 0.1 2.85 0.95 1.7 1.4 2.4 3.05 0.7 1.85 0.2 3.7l-0.05 0.15q-0.35 0.9-1 1.4-0.75 0.55-1.85 0.65 1 1.35 1.15 2.85l0.05 0.75h1.05q1.1 0.45 1.25 0.9l0.35 1.15 0.25 1.7-0.25 1-0.45 1.25-0.95 2q-0.5 1.35-2 2.65-0.8 0.25-1.95 0l-0.4 0.65-1.1 0.8q4.45 1.1 5 2.9-0.45 1.15-1.3 1.5-2 0.9-4.75 1-1.4-0.15-2.95-1-1.05-0.8-1.3-1.75-0.05-1.05 0.8-2.1-1.9 0.5-4.2 0-2.25-1.15-2.8-2.5l-2.05-1.4q1.15 2.75 1.1 5.35 0 0.6-0.8 1-1.25 0.3-3.05-0.8-1.75-1.25-2.6-2.7-0.5-1.4 0-2.85 0.8-1.4 2-1.9v-1.2l-5.1 0.2q-1.8-0.15-2.75-1-0.3-0.8-0.1-1.55l0.1-0.3 0.75-0.95 1.35-1.15-0.85-0.25-1.6-0.7-1.5-0.9-0.9-1.25q-0.4-1.4 0.15-2.35 0.55-1 2.2-1.55 1.5-0.05 3.5 0.8l0.45 0.2v-1.3q0-1.7 0.7-2.7 0.85-0.9 2.2-0.65 2.05 0.7 3.4 2.6l0.2-0.05h0.1l1.9 0.05q1.5 0.4 2.95 1.6-0.45-1.35 0-2.7 0.8-0.75 2.7 0v-0.75l0.5-0.65q2.1-1.05 4.55 0-0.3-1.45 0.55-2.75 0.55-0.8 1.5-1m-0.45 7.4-0.25 0.85m-1.35-4.5q2 1.35 1.6 3.65m-5.2 9.9q0 0.6-0.95 1.05l0.4 0.75 0.4 0.65 0.15 0.3 0.5 0.95h1.15q-0.65-1.95 0-3.75l-1.65 0.05m-9.05-0.5v-1.15l2.15 1.15m-2.3-10.3-0.1-0.25m5.5 3.55 1.6 1.95v1.55q-0.1 0.9-0.75 1.4l-0.75 0.35m-0.1 0-0.2-2.4m0-0.05q0.4-1.4 0.2-2.8m-6.55 3.5 0.1 0.05m6.25-0.75v0.05m0.2 2.4h0.1m-5.35 1.75h2.15" fill="none" stroke="#ac9165" stroke-linecap="round" stroke-linejoin="round" stroke-width=".05"/>
</g>
</defs>
</svg>
