<?xml version="1.0" encoding="UTF-8"?>
<svg version="1.1" viewBox="0 0 115.11 119.28" xmlns="http://www.w3.org/2000/svg" xmlns:cc="http://creativecommons.org/ns#" xmlns:dc="http://purl.org/dc/elements/1.1/" xmlns:rdf="http://www.w3.org/1999/02/22-rdf-syntax-ns#" xmlns:xlink="http://www.w3.org/1999/xlink">
<metadata>
<rdf:RDF>
<cc:Work rdf:about="">
<dc:format>image/svg+xml</dc:format>
<dc:type rdf:resource="http://purl.org/dc/dcmitype/StillImage"/>
</cc:Work>
</rdf:RDF>
</metadata>
<g transform="translate(-242.46 -143.27)">
<use transform="matrix(.6971 0 0 .6971 243.6 144.07)" width="163.5" height="169.95" xlink:href="#d"/>
<use transform="matrix(.4949 0 0 .4436 242.46 180.92)" width="142.45" height="142.5" xlink:href="#b"/>
<use transform="matrix(.3996 0 0 .3581 277.95 200.15)" width="142.45" height="142.5" xlink:href="#b"/>
<use transform="matrix(.3996 0 0 .5391 286.55 171.12)" width="142.45" height="142.5" xlink:href="#b"/>
<use transform="matrix(.2249 0 0 .2249 314.43 233)" width="40.599998" height="45.349998" xlink:href="#a"/>
<use transform="matrix(.039 .1455 -.1455 .039 310.7 222.26)" width="40.599998" height="45.349998" xlink:href="#a"/>
<use transform="matrix(.1232 .2802 -.3018 .0809 327.48 204.98)" width="40.599998" height="45.349998" xlink:href="#a"/>
<use transform="matrix(.0769 .1748 -.1883 .0505 303.06 237.76)" width="40.599998" height="45.349998" xlink:href="#a"/>
<use transform="matrix(.2249 0 0 .2249 289.13 208.96)" width="40.599998" height="45.349998" xlink:href="#a"/>
<use transform="matrix(.042 .1568 -.1568 .042 269.4 208.36)" width="40.599998" height="45.349998" xlink:href="#a"/>
<use transform="matrix(-.0941 .0544 -.0544 -.0941 276.24 203.73)" width="40.599998" height="45.349998" xlink:href="#a"/>
<use transform="matrix(-.2038 .1635 -.1333 -.231 292.51 212.56)" width="40.599998" height="45.349998" xlink:href="#a"/>
<use transform="matrix(-.1075 .0862 -.0704 -.1219 263.98 201.31)" width="40.599998" height="45.349998" xlink:href="#a"/>
<use transform="matrix(.042 .1568 -.1568 .042 281.45 186.26)" width="40.599998" height="45.349998" xlink:href="#a"/>
<use transform="matrix(-.1036 .0506 -.0506 -.1036 277.25 228.32)" width="40.599998" height="45.349998" xlink:href="#a"/>
<use transform="matrix(-.0507 -.0583 .0583 -.0507 281.36 232.43)" width="40.599998" height="45.349998" xlink:href="#a"/>
<use transform="matrix(-.1416 -.1199 .1429 -.1243 277.44 244.95)" width="40.599998" height="45.349998" xlink:href="#a"/>
<use transform="matrix(-.0747 -.0633 .0754 -.0656 281.41 223.57)" width="40.599998" height="45.349998" xlink:href="#a"/>
<use transform="matrix(-.1036 .0506 -.0506 -.1036 294.3 233.67)" width="40.599998" height="45.349998" xlink:href="#a"/>
<use transform="matrix(.1678 -.1495 .1495 .1678 336.21 190.13)" width="40.599998" height="45.349998" xlink:href="#a"/>
<use transform="matrix(.1258 .0826 -.0826 .1258 326.32 184.57)" width="40.599998" height="45.349998" xlink:href="#a"/>
<use transform="matrix(.2781 .1271 -.1713 .2608 327.34 160.51)" width="40.599998" height="45.349998" xlink:href="#a"/>
<use transform="matrix(.1735 .0793 -.1069 .1628 330.9 201.25)" width="40.599998" height="45.349998" xlink:href="#a"/>
<use transform="matrix(.1678 -.1495 .1495 .1678 301.41 188.98)" width="40.599998" height="45.349998" xlink:href="#a"/>
<use transform="matrix(.1356 .0891 -.0891 .1356 286.27 201.72)" width="40.599998" height="45.349998" xlink:href="#a"/>
<use transform="matrix(-.0341 .1031 -.1031 -.0341 288.28 193.68)" width="40.599998" height="45.349998" xlink:href="#a"/>
<use transform="matrix(-.0434 .2574 -.253 -.0836 306.26 189.47)" width="40.599998" height="45.349998" xlink:href="#a"/>
<use transform="matrix(-.0229 .1358 -.1335 -.0441 277.54 200.04)" width="40.599998" height="45.349998" xlink:href="#a"/>
<use transform="matrix(.1356 .0891 -.0891 .1356 280.52 177.17)" width="40.599998" height="45.349998" xlink:href="#a"/>
<use transform="matrix(-.0437 .1066 -.1066 -.0437 305.4 211.33)" width="40.599998" height="45.349998" xlink:href="#a"/>
<use transform="matrix(-.0765 -.0098 .0098 -.0765 311.18 211.68)" width="40.599998" height="45.349998" xlink:href="#a"/>
<use transform="matrix(-.1853 .0047 .024 -.1877 316.62 223.61)" width="40.599998" height="45.349998" xlink:href="#a"/>
<use transform="matrix(-.0978 .0025 .0126 -.099 305.3 205.04)" width="40.599998" height="45.349998" xlink:href="#a"/>
<use transform="matrix(-.0437 .1066 -.1066 -.0437 321.65 203.98)" width="40.599998" height="45.349998" xlink:href="#a"/>
<use transform="matrix(-.1723 .0093 -.0093 -.1723 284.76 172.61)" width="40.599998" height="45.349998" xlink:href="#a"/>
<use transform="matrix(-.0359 -.1098 .1098 -.0359 288.09 180.69)" width="40.599998" height="45.349998" xlink:href="#a"/>
<use transform="matrix(-.106 -.2095 .2278 -.0744 275.89 194.69)" width="40.599998" height="45.349998" xlink:href="#a"/>
<use transform="matrix(-.0661 -.1308 .1422 -.0464 293.32 168.51)" width="40.599998" height="45.349998" xlink:href="#a"/>
<use transform="matrix(-.1723 .0093 -.0093 -.1723 305.16 190.01)" width="40.599998" height="45.349998" xlink:href="#a"/>
<use transform="matrix(-.0387 -.1184 .1184 -.0387 320.25 189.63)" width="40.599998" height="45.349998" xlink:href="#a"/>
<use transform="matrix(.0699 -.0455 .0455 .0699 315.25 193.44)" width="40.599998" height="45.349998" xlink:href="#a"/>
<use transform="matrix(.1494 -.1337 .1117 .1714 302.39 187.38)" width="40.599998" height="45.349998" xlink:href="#a"/>
<use transform="matrix(.0788 -.0705 .059 .0904 324.76 194.83)" width="40.599998" height="45.349998" xlink:href="#a"/>
<use transform="matrix(-.0387 -.1184 .1184 -.0387 312 207.08)" width="40.599998" height="45.349998" xlink:href="#a"/>
<use transform="matrix(.0773 -.043 .043 .0773 313.46 174.67)" width="40.599998" height="45.349998" xlink:href="#a"/>
<use transform="matrix(.0412 .0425 -.0425 .0412 310.13 171.7)" width="40.599998" height="45.349998" xlink:href="#a"/>
<use transform="matrix(.1135 .086 -.1044 .1012 312.61 161.91)" width="40.599998" height="45.349998" xlink:href="#a"/>
<use transform="matrix(.0599 .0454 -.0551 .0534 310.48 178.52)" width="40.599998" height="45.349998" xlink:href="#a"/>
<use transform="matrix(.0773 -.043 .043 .0773 300.16 171.27)" width="40.599998" height="45.349998" xlink:href="#a"/>
<use transform="matrix(-.1723 .0093 -.0093 -.1723 282.31 214.76)" width="40.599998" height="45.349998" xlink:href="#a"/>
<use transform="matrix(-.0359 -.1098 .1098 -.0359 285.64 222.84)" width="40.599998" height="45.349998" xlink:href="#a"/>
<use transform="matrix(-.106 -.2095 .2278 -.0744 273.44 236.84)" width="40.599998" height="45.349998" xlink:href="#a"/>
<use transform="matrix(-.0661 -.1308 .1422 -.0464 290.87 210.66)" width="40.599998" height="45.349998" xlink:href="#a"/>
<use transform="matrix(-.1723 .0093 -.0093 -.1723 302.71 232.16)" width="40.599998" height="45.349998" xlink:href="#a"/>
<use transform="matrix(-.0387 -.1184 .1184 -.0387 317.8 231.78)" width="40.599998" height="45.349998" xlink:href="#a"/>
<use transform="matrix(.0699 -.0455 .0455 .0699 312.8 235.59)" width="40.599998" height="45.349998" xlink:href="#a"/>
<use transform="matrix(.1494 -.1337 .1117 .1714 299.94 229.53)" width="40.599998" height="45.349998" xlink:href="#a"/>
<use transform="matrix(.0788 -.0705 .059 .0904 322.31 236.98)" width="40.599998" height="45.349998" xlink:href="#a"/>
<use transform="matrix(-.0387 -.1184 .1184 -.0387 309.55 249.23)" width="40.599998" height="45.349998" xlink:href="#a"/>
<use transform="matrix(.0773 -.043 .043 .0773 311.01 216.82)" width="40.599998" height="45.349998" xlink:href="#a"/>
<use transform="matrix(.0412 .0425 -.0425 .0412 307.68 213.85)" width="40.599998" height="45.349998" xlink:href="#a"/>
<use transform="matrix(.1135 .086 -.1044 .1012 310.16 204.06)" width="40.599998" height="45.349998" xlink:href="#a"/>
<use transform="matrix(.0599 .0454 -.0551 .0534 308.03 220.67)" width="40.599998" height="45.349998" xlink:href="#a"/>
<use transform="matrix(.0773 -.043 .043 .0773 297.71 213.42)" width="40.599998" height="45.349998" xlink:href="#a"/>
<use transform="matrix(.6971 0 0 .6971 248.51 143.27)" width="145.55" height="160.7" xlink:href="#c"/>
</g>
<defs>
<g id="d" transform="translate(79.9,79.65)">
<path d="m52.65-50.7q-20.85-23.4-50.35-23.4-29.45 0-50.3 23.4t-20.8 56.55q-0.05 33.1 20.8 56.5t50.3 23.4q29.5 0 50.35-23.4 20.8-23.4 20.8-56.5 0-33.15-20.8-56.55m6.45-3.5q23.7 24.65 23.75 59.55-0.05 34.85-23.75 59.55-23.7 24.65-57.25 24.65-33.6 0-57.3-24.65-23.7-24.7-23.7-59.55 0-34.9 23.7-59.55 23.7-24.7 57.3-24.7 33.55 0 57.25 24.7" fill="#0a001e" fill-rule="evenodd"/>
<path d="m52.65-50.7q20.8 23.4 20.8 56.55 0 33.1-20.8 56.5-20.85 23.4-50.35 23.4-29.45 0-50.3-23.4t-20.8-56.5q-0.05-33.15 20.8-56.55t50.3-23.4q29.5 0 50.35 23.4" fill="url(#g)" fill-rule="evenodd"/>
<path d="m59.1-54.2q23.7 24.65 23.75 59.55-0.05 34.85-23.75 59.55-23.7 24.65-57.25 24.65-33.6 0-57.3-24.65-23.7-24.7-23.7-59.55 0-34.9 23.7-59.55 23.7-24.7 57.3-24.7 33.55 0 57.25 24.7" fill="none" stroke="#c1eaff" stroke-linecap="round" stroke-linejoin="round" stroke-opacity=".71372" stroke-width="1.5"/>
<path d="m52.65-50.7q20.8 23.4 20.8 56.55 0 33.1-20.8 56.5-20.85 23.4-50.35 23.4-29.45 0-50.3-23.4t-20.8-56.5q-0.05-33.15 20.8-56.55t50.3-23.4q29.5 0 50.35 23.4" fill="none" stroke="#c2e8ff" stroke-linecap="round" stroke-linejoin="round" stroke-opacity=".4" stroke-width="1.5"/>
</g>
<radialGradient id="g" cx="0" cy="0" r="819.2" gradientTransform="matrix(.0925 0 0 .1016 1.85 5.6)" gradientUnits="userSpaceOnUse">
<stop stop-color="#03001e" offset=".47059"/>
<stop stop-color="#330264" offset="1"/>
</radialGradient>
<g id="b" transform="translate(71.2,71.2)">
<path d="m50.35-50.3q20.85 20.85 20.9 50.35-0.05 29.45-20.9 50.35-20.85 20.85-50.35 20.9-29.5-0.05-50.35-20.9-20.9-20.9-20.85-50.35-0.05-29.5 20.85-50.35 20.85-20.9 50.35-20.9t50.35 20.9" fill="url(#f)" fill-rule="evenodd"/>
</g>
<radialGradient id="f" cx="0" cy="0" r="819.2" gradientTransform="matrix(.081 0 0 .081 0 .05)" gradientUnits="userSpaceOnUse">
<stop stop-color="#0d01fe" offset="0"/>
<stop stop-color="#8000ff" stop-opacity="0" offset="1"/>
</radialGradient>
<g id="a" transform="translate(20.3,22.65)">
<path d="m20.3-10.25-0.05 21.1-18.7 11.85-13.7-2.3-6.5-9.3-1.65-12.95 6.45-12.5 20-8.3 14.15 12.4m-8.2 19.6-3.3-17.8-13.65-4.9-9.05 11.3 0.35 8.7 13.6 8.6 12.05-5.9" fill="#2e83ff" fill-opacity=".46274" fill-rule="evenodd"/>
<path d="m-1.45-8.45 9.6 16.8-19-4.25 9.4-12.55" fill="#fff" fill-rule="evenodd"/>
<path d="m12.1 9.35-12.05 5.9-13.6-8.6-0.35-8.7 9.05-11.3 13.65 4.9 3.3 17.8m-13.55-17.8-9.4 12.55 19 4.25-9.6-16.8" fill="#2b90ff" fill-opacity=".8902" fill-rule="evenodd"/>
</g>
<g id="c" transform="translate(72.85,80.8)">
<path d="m23.75-32q0.25 20.05-13.7 34-14.05 14.05-34.1 13.8-20-0.2-34.2-14.5-14.4-14.3-14.6-34.3t13.85-34.05q13.95-13.95 33.95-13.75t34.4 14.5q14.2 14.3 14.4 34.3" fill="url(#e)" fill-rule="evenodd"/>
<path d="m44.7-14.1q-0.05-14.65-4.85-27.2 15.7 17.95 15.75 42.9-0.05 26.2-17.45 44.75-17.4 18.5-42.1 18.5-15.85 0-28.7-7.6l9.55 0.65q28.1 0 47.95-21.05 19.8-21.1 19.85-50.95" fill="#00001f" fill-opacity=".74118" fill-rule="evenodd"/>
<path d="m60.15-10.75q0-16.85-5.5-31.2 18 20.6 18.05 49.2 0 30.1-20 51.4-20.05 21.25-48.35 21.25-18.2 0-32.95-8.75l10.95 0.75q32.25 0 55.05-24.2 22.75-24.2 22.75-58.45" fill="#d5faff" fill-opacity=".50196" fill-rule="evenodd"/>
<path d="m16.15 10.7q-0.05-4.3-1.4-7.95 4.55 5.2 4.55 12.5 0 7.65-5.05 13.05-5.1 5.4-12.3 5.4-4.65 0-8.35-2.2l2.75 0.2q8.2 0 14-6.15 5.75-6.15 5.8-14.85" fill="#00001f" fill-opacity=".48235" fill-rule="evenodd"/>
</g>
<radialGradient id="e" cx="0" cy="0" r="819.2" gradientTransform="matrix(.0419 -.0419 .0428 .0428 -24.5 -32.45)" gradientUnits="userSpaceOnUse">
<stop stop-color="#fff" offset="0"/>
<stop stop-color="#fff" offset=".15294"/>
<stop stop-color="#3c59ff" stop-opacity=".52157" offset=".18431"/>
<stop stop-color="#00f" stop-opacity="0" offset="1"/>
</radialGradient>
</defs>
</svg>
