<?xml version="1.0" encoding="UTF-8"?>
<svg version="1.1" viewBox="0 0 73.472 35.395" xmlns="http://www.w3.org/2000/svg" xmlns:cc="http://creativecommons.org/ns#" xmlns:dc="http://purl.org/dc/elements/1.1/" xmlns:rdf="http://www.w3.org/1999/02/22-rdf-syntax-ns#" xmlns:xlink="http://www.w3.org/1999/xlink">
<metadata>
<rdf:RDF>
<cc:Work rdf:about="">
<dc:format>image/svg+xml</dc:format>
<dc:type rdf:resource="http://purl.org/dc/dcmitype/StillImage"/>
</cc:Work>
</rdf:RDF>
</metadata>
<g transform="translate(-17.911 -17.908)">
<use transform="matrix(.6303 0 0 .6303 17.937 17.921)" width="116.5" height="56.099998" xlink:href="#a"/>
</g>
<defs>
<g id="a" transform="translate(58.25,28.05)">
<path d="m38.55 3.25q-0.35 3.55-8.6 5.35-8.25 1.85-19.9 1.35l-19.9-1.8q-8.25-1.35-8.25-2.15 0-0.75 7.8 0.05l21.15 2.15q13.3 1.35 20.65-3.6 7.4-4.95 7.05-1.35" fill="#aec25a" fill-opacity=".6" fill-rule="evenodd"/>
<path d="m36.8 11.55q5.45 2.35 5.45 5.7 0 3.3-5.45 5.6-5.45 2.4-13.95 2.55-8.5 0.1-33.2-10.15-24.75-10.3-16.75-8.5l22.6 4.7q14.65 2.85 25.25 0.35 10.6-2.65 16.05-0.25m-62.35-30.85q4.2-0.4 1.7 2.85-2.5 3.2-4.25 4.8-1.7 1.55-3.85-1.2-2.2-2.8-9 0.5-6.85 3.35-3.45-0.2 3.35-3.6 7.3-5 3.95-1.45 5.65-1.45l5.9-0.3" fill="#dee0a3" fill-opacity=".6" fill-rule="evenodd"/>
<path d="m55.75 10.6q0 0.65-1 1.1-1.05 0.5-2.45 0.5l-2.45-0.5q-1-0.45-1-1.1t1-1.15q1-0.45 2.45-0.45 1.4 0 2.45 0.45 1 0.5 1 1.15" fill="#dee0a3" fill-opacity=".6" fill-rule="evenodd"/>
<path d="m48.85 10.6q0 0.65 1 1.1l2.45 0.5q1.4 0 2.45-0.5 1-0.45 1-1.1 0 1.3-1 2.2-1.05 1-2.45 1-1.45 0-2.45-1-1-0.9-1-2.2" fill="#cccc68" fill-opacity=".6" fill-rule="evenodd"/>
<path d="m35.3 15.6-8.75 0.25q-5.3 1.55-13.95 1.45-8.65-0.05-5.45 1.35 3.2 1.35 8.95 2.95 5.75 1.65 10.7 1.65 5 0 8.5-1.3 3.6-1.35 3.6-3.2t-3.6-3.15m-49.95-32.3q0.2 1.6 0.05 3.55l0.55 1.5q2 5 5.35 7.4 4.05 2.9 12.3 3.55 5.7-1.4 20.1-7.4 11.55-4.7 19.35 4.8l2.7 3.8 1.8 3.5 1.95-0.85 1.25-0.6 0.05-0.05 1.7-0.3q2.35 0 4 1.9t1.65 4.55q0 2.7-1.65 4.55-1.65 1.9-4 1.9-1.7 0-3-0.95l-0.45-0.4-1.15-1.3 0.6 0.75 0.1 0.1q-0.95 3-3.65 5.45 4.35 3.4-16.15 9-5.95 1.05-20.4-3.2l-0.6-0.1q-6.35-1.7-12.8-4.7-5.35-2.55-11.1-5l-13.95-7.5q-2.05-1.65 6.4-8.9l0.65-0.6q8.2-8.3 8.35-14.45m57.55 21.45q2.05 0.15 4.65-0.75-2.6 0.9-4.65 0.75m5 7.7q-1.9-1.75-5-2.25 3.1 0.5 5 2.25m-29.75 10.4q8.75 4.8 23-1.4l3.8-2.7-3.8 2.7q-14.25 6.2-23 1.4m-42.35-44.05v-0.05q1 0.2 1.65 0.6 1.15 0.65 1.35 1.8-0.25 3.1-4.35 6.95-6.45 6.05-11.55 7.85-6.8 2.4-11.6 1.5h0.05q-1.2-0.25-2.35-1.65-0.85-1.1-1.05-2.05l-0.05-0.2q0.15-2.3 4.8-6.6v-0.05q2.2-2 5.5-3.5l6.55-2.4q7.75-2.8 11.05-2.2m27.8 20.5q-7.35 1.65-13.25 0.25 5.9 1.4 13.25-0.25m-25.7-0.75q6.8-6.8 7.5-11.7-0.7 4.9-7.5 11.7" fill="#dee0a3" fill-opacity=".6" fill-rule="evenodd"/>
<path d="m35.3 15.6q3.6 1.3 3.6 3.15t-3.6 3.2q-3.5 1.3-8.5 1.3-4.95 0-10.7-1.65-5.75-1.6-8.95-2.95-3.2-1.4 5.45-1.35 8.65 0.1 13.95-1.45l8.75-0.25m-51.4-0.85q-14.85-6.25-32.35-11.95 7.85 1.35 13.2-0.55 6.2-2.2 13.6-9.1v-0.05q5.25-4.9 6.5-11.95l0.5 2.15q-0.15 6.15-8.35 14.45l-0.65 0.6q-8.45 7.25-6.4 8.9l13.95 7.5" fill="#cace6c" fill-opacity=".77255" fill-rule="evenodd"/>
<path d="m49.05 13.75-0.55-0.55-0.6-0.75 1.15 1.3m-73.25-35v0.05-0.05 0.05-0.05" fill="#ccc" fill-rule="evenodd"/>
<path d="m-57.75-3.1q-0.5-1.5-0.4-3.35-0.25-5.2 6.45-11.5 2.6-2.4 6.7-4.3l7.9-3.05q9.55-3.45 14.05-2.4h0.05q4.2 0.9 6.15 3.25 0.5 1.5 0.4 3.3-1.2 7.05-6.45 12v0.05q-7.45 6.9-13.6 9.1-5.4 1.9-13.2 0.5l-1.9-0.35v-0.05q-4.15-0.9-6.15-3.2m5.7-3.15q0.2 0.95 1.05 2.05 1.15 1.4 2.35 1.65h-0.05q4.8 0.9 11.6-1.5 5.1-1.8 11.55-7.85 4.1-3.85 4.35-6.95-0.2-1.15-1.35-1.8l0.1-0.5q-0.35-1.75-3-2.35v0.05q-3.3-0.65-11.05 2.2l-6.55 2.4q-3.35 1.45-5.5 3.5-4.65 4.35-4.85 6.65 0.2 1 1.15 2.25l0.2 0.2m34.2-15.9-0.2-0.5-0.5-0.2-0.45 0.2q-0.2 0.2 0 0.4t0.15 1.55q-0.05 1.25 0.2 1.05t0.55-1.15l0.25-1.35m-2.75-3.05-0.2-0.5-0.45-0.2-0.4 0.2-0.2 0.5q0 0.3 0.2 0.5 0.15 0.2 0.4 0.2l0.45-0.2 0.2-0.5m1.3 8.35-0.65 0.25q-0.25 0.35-0.3 1.75t-4.7 5.65-0.8 1.6q3.8-2.7 5.6-5.25 1.8-2.6 1.8-3l-0.3-0.75-0.65-0.25m-10.35 11.6q0.1 0.15 0.3 0.15t0.3-0.15q0.15-0.15 0.15-0.35l-0.15-0.35-0.3-0.15-0.3 0.15-0.15 0.35 0.15 0.35m-25.35 2.1 0.25 0.6q0.2 0.2 1.15 0.45l2 0.2q1.15 0.1-0.35-0.75l-1.75-1.1-0.5-0.25-0.55 0.25-0.25 0.6m13.15 1.95-0.6 0.1-0.2 0.25 0.2 0.3 0.6 0.1 0.6-0.1 0.25-0.3-0.25-0.25-0.6-0.1m-3 0.55-0.5-0.45-0.55-0.2-0.4 0.15-0.2 0.45 0.2 0.4 0.4 0.25 0.8-0.15q0.55-0.15 0.25-0.45" fill="#8ec545" fill-opacity=".70196" fill-rule="evenodd"/>
<path d="m-48.45 2.8-1.85-0.4v-0.05q-6-1.3-7.45-5.45 2 2.3 6.15 3.2v0.05l1.9 0.35q7.8 1.4 13.2-0.5 6.15-2.2 13.6-9.1v-0.05q5.25-4.95 6.45-12 0.1-1.8-0.4-3.3 1.85 2.15 1.7 5.6-1.25 7.05-6.5 11.95v0.05q-7.4 6.9-13.6 9.1-5.35 1.9-13.2 0.55m24.25-24q-3.3-0.6-11.05 2.2l-6.55 2.4q-3.3 1.5-5.5 3.5v0.05q-4.65 4.3-4.8 6.6l0.05 0.2-0.2-0.2q-0.95-1.25-1.15-2.25 0.2-2.3 4.85-6.65 2.15-2.05 5.5-3.5l6.55-2.4q7.75-2.85 11.05-2.2v-0.05q2.65 0.6 3 2.35l-0.1 0.5q-0.65-0.4-1.65-0.6v0.05" fill="#7db83c" fill-opacity=".81176" fill-rule="evenodd"/>
<path d="m-20.6-25.2-0.2 0.5-0.45 0.2q-0.25 0-0.4-0.2-0.2-0.2-0.2-0.5l0.2-0.5 0.4-0.2 0.45 0.2 0.2 0.5m2.75 3.05-0.25 1.35q-0.3 0.95-0.55 1.15t-0.2-1.05q0.05-1.35-0.15-1.55t0-0.4l0.45-0.2 0.5 0.2 0.2 0.5" fill="#ebffb5" fill-rule="evenodd"/>
<path d="m-19.3-16.85 0.65 0.25 0.3 0.75q0 0.4-1.8 3-1.8 2.55-5.6 5.25-3.85 2.65 0.8-1.6t4.7-5.65 0.3-1.75l0.65-0.25m-10.35 11.6-0.15-0.35 0.15-0.35 0.3-0.15 0.3 0.15 0.15 0.35q0 0.2-0.15 0.35-0.1 0.15-0.3 0.15t-0.3-0.15m-15.2 4.6q0.3 0.3-0.25 0.45l-0.8 0.15-0.4-0.25-0.2-0.4 0.2-0.45 0.4-0.15 0.55 0.2 0.5 0.45m3-0.55 0.6 0.1 0.25 0.25-0.25 0.3-0.6 0.1-0.6-0.1-0.2-0.3 0.2-0.25 0.6-0.1m-13.15-1.95 0.25-0.6 0.55-0.25 0.5 0.25 1.75 1.1q1.5 0.85 0.35 0.75l-2-0.2q-0.95-0.25-1.15-0.45l-0.25-0.6" fill="#f0ffc8" fill-rule="evenodd"/>
<path d="m-14.65-16.7q0.2 1.6 0.05 3.55l0.55 1.5q2 5 5.35 7.4 4.05 2.9 12.3 3.55 5.7-1.4 20.1-7.4 11.55-4.7 19.35 4.8l2.7 3.8 1.8 3.5m1.05 9.3q-0.95 3-3.65 5.45 4.35 3.4-16.15 9-5.95 1.05-20.4-3.2l-0.6-0.1q-6.35-1.7-12.8-4.7-5.35-2.55-11.1-5-14.85-6.25-32.35-11.95l-1.85-0.4v-0.05q-6-1.3-7.45-5.45-0.5-1.5-0.4-3.35-0.25-5.2 6.45-11.5 2.6-2.4 6.7-4.3l7.9-3.05q9.55-3.45 14.05-2.4h0.05q4.2 0.9 6.15 3.25 1.85 2.15 1.7 5.6l0.5 2.15m59.6 35.45-3.8 2.7q-14.25 6.2-23 1.4m-42.35-44.05q-3.3-0.6-11.05 2.2l-6.55 2.4q-3.3 1.5-5.5 3.5v0.05q-4.65 4.3-4.8 6.6l0.05 0.2q0.2 0.95 1.05 2.05 1.15 1.4 2.35 1.65h-0.05q4.8 0.9 11.6-1.5 5.1-1.8 11.55-7.85 4.1-3.85 4.35-6.95-0.2-1.15-1.35-1.8-0.65-0.4-1.65-0.6v0.05m-24.25 24q7.85 1.35 13.2-0.55 6.2-2.2 13.6-9.1v-0.05q5.25-4.9 6.5-11.95m0.55 5.7q-0.7 4.9-7.5 11.7m12.45 1q5.9 1.4 13.25-0.25" fill="none" stroke="#7d6e01" stroke-linecap="round" stroke-linejoin="round" stroke-opacity=".99216" stroke-width=".25"/>
<path d="m47.55 4 1.95-0.85 1.25-0.6 0.05-0.05 1.7-0.3q2.35 0 4 1.9t1.65 4.55q0 2.7-1.65 4.55-1.65 1.9-4 1.9-1.7 0-3-0.95l-0.45-0.4-0.45-0.45m-1.05-9.3q-2.6 0.9-4.65 0.75m6.15 9-1.15-1.3 0.6 0.75 0.1 0.1m-5.7-3.1q3.1 0.5 5 2.25" fill="none" stroke="#7d6e01" stroke-linecap="round" stroke-linejoin="round" stroke-opacity=".99216" stroke-width=".25"/>
<path d="m32.05-6.3q-0.55 0.3-1.35 0.3l-1.4-0.3q-0.55-0.25-0.55-0.65t0.55-0.65l1.4-0.25 1.35 0.25q0.55 0.25 0.55 0.65t-0.55 0.65" fill="#fff" fill-rule="evenodd"/>
<path d="m54 5.05-1.15 0.25-1.1-0.25-0.45-0.5q0-0.3 0.45-0.55l1.1-0.2 1.15 0.2 0.45 0.55-0.45 0.5" fill="#fff" fill-rule="evenodd"/>
<path d="m-22.75-20.65q-0.8-1-0.75-2.3 0-1.4 0.8-2.45l0.85-0.45m6.25 3.3q-0.05-1.35-1-1.95l-2.15-0.2q-1.15 0.25-2 1.3-0.9 0.95-1 2.35-0.15 1.5 0.45 2.3l0.3 0.3m-1.45 3 1.35-1.8q0.95-0.95 2.1-1.05 1.25-0.1 2.1 0.7 0.95 0.8 0.7 2.15l-0.2 0.55m-33.8 11.4q-0.55-1.25-1.7-1.45-1.4-0.25-2.4 0.4-1.05 0.6-1.5 1.85-0.45 1.15-0.3 2.5l0.25 0.25m14.3-2.7q-1.1-0.15-1.9 1.2-0.65 1.05-0.55 2.35 0.1 1.55 0.9 2.35" fill="none" stroke="#7d6e01" stroke-linecap="round" stroke-linejoin="round" stroke-opacity=".99216" stroke-width=".25"/>
</g>
</defs>
</svg>
