<?xml version="1.0" encoding="UTF-8"?>
<svg version="1.1" viewBox="0 0 171.9 58.153" xmlns="http://www.w3.org/2000/svg" xmlns:cc="http://creativecommons.org/ns#" xmlns:dc="http://purl.org/dc/elements/1.1/" xmlns:rdf="http://www.w3.org/1999/02/22-rdf-syntax-ns#" xmlns:xlink="http://www.w3.org/1999/xlink">
<metadata>
<rdf:RDF>
<cc:Work rdf:about="">
<dc:format>image/svg+xml</dc:format>
<dc:type rdf:resource="http://purl.org/dc/dcmitype/StillImage"/>
</cc:Work>
</rdf:RDF>
</metadata>
<g transform="translate(-137.28 -165.85)">
<use transform="translate(137.3,160.2)" width="171.85001" height="71.300003" xlink:href="#c"/>
</g>
<defs>
<g id="c" transform="translate(85.9,35.65)">
<use transform="translate(-59.75,-3)" width="76" height="31.15" xlink:href="#b"/>
<use transform="translate(-85.9,-30)" width="171.85001" height="50.599998" xlink:href="#e"/>
<use transform="matrix(.9502 .1435 0 .7512 -74.286 -35.662)" width="109.15" height="74.099998" xlink:href="#a"/>
</g>
<g id="b" transform="translate(38,15.55)">
<use transform="translate(-38,-15.55)" width="76" height="31.15" xlink:href="#f"/>
</g>
<g id="f" transform="translate(38,15.55)">
<path d="m27.6-8.95q-4.3 0-7.35-1-3.05-0.95-3.05-2.3t3.05-2.35q3.05-0.95 7.35-0.95t7.35 0.95q3.05 1 3.05 2.35t-3.05 2.3q-3.05 1-7.35 1m-7.05 7.9q0 1.25-2.65 2.15-2.6 0.9-6.35 0.9l-2.9-0.15 0.1 0.5q0 1.55-3.25 2.65-2.8 1-6.6 1.15 2.3 1.35 2.3 3.05 0 2.65-5.75 4.5-5.75 1.9-13.85 1.9t-13.85-1.9q-5.75-1.85-5.75-4.5t5.75-4.55q5.75-1.85 13.85-1.85l5.1 0.2-0.15-0.65q0-1.55 3.25-2.7 3.25-1.1 7.85-1.1l4.9 0.4 0.05-0.35q-2.4-0.1-4.15-0.7-2-0.7-2-1.65t2-1.65 4.85-0.7l4.85 0.7q1.65 0.6 1.95 1.35l1.45-0.05q3.75 0 6.35 0.9 2.65 0.9 2.65 2.15m10.8 4.8q0 0.6-1.05 1l-2.5 0.45-2.5-0.45q-1.05-0.4-1.05-1t1.05-1.05l2.5-0.4 2.5 0.4q1.05 0.45 1.05 1.05" fill="#900" fill-opacity=".6" fill-rule="evenodd"/>
</g>
<g id="e" transform="translate(85.9,30)">
<path d="m65.55-19.6q-19.85-1.9-37 3.15-12.3 3.6-23.2 10.8-6.95 4.55-13.3 10.55-3.85-3.25-8.2 3.2-0.5 0.4-9.25 4.8-1.4-3.45-7.65-1.15-6.4 0.75-2.55 7.15-6.7-0.75-15-0.4-9.1 0.35-20.05 2.1l-3.65-3.4q6.95-1.75 0.75-4.25-2.65-1.1-7.65-2.3l-4.7-4.4q39.55 7.5 57.25-8.65 8.85-1.6 6.85-6.1 16.1-12.25 37.35-18.2 21.2-5.95 44.2-1.1 8.5 6.9 21.95 11.85-8.4-2.3-16.15-3.65" fill="url(#h)" fill-rule="evenodd"/>
<path d="m81.7-15.95 0.25 0.15q8 3.65 0 7.55-6.4 3.1-23.2 6.35 2.95-1.8-6.6-3.3-5.5 1.15-6.2 5.6l-11.3 1.75q-2.95-6.65-16.55-8.9 48.6-6.9 47.45-12.85 7.75 1.35 16.15 3.65" fill="url(#g)" fill-rule="evenodd"/>
<path d="m65.55-19.6q-19.85-1.9-37 3.15-12.3 3.6-23.2 10.8-6.95 4.55-13.3 10.55-3.85-3.25-8.2 3.2-0.5 0.4-9.25 4.8-1.4-3.45-7.65-1.15-6.4 0.75-2.55 7.15-6.7-0.75-15-0.4-9.1 0.35-20.05 2.1l-3.65-3.4q6.95-1.75 0.75-4.25-2.65-1.1-7.65-2.3l-4.7-4.4q39.55 7.5 57.25-8.65 8.85-1.6 6.85-6.1 16.1-12.25 37.35-18.2 21.2-5.95 44.2-1.1 8.5 6.9 21.95 11.85l0.25 0.15q8 3.65 0 7.55-6.4 3.1-23.2 6.35 2.95-1.8-6.6-3.3-5.5 1.15-6.2 5.6l-11.3 1.75q-2.95-6.65-16.55-8.9 48.6-6.9 47.45-12.85 7.75 1.35 16.15 3.65" fill="none" stroke="#504021" stroke-linecap="round" stroke-linejoin="round" stroke-opacity=".72941" stroke-width=".05"/>
</g>
<linearGradient id="h" x1="-819.2" x2="819.2" gradientTransform="matrix(-.0648 .0196 -.0103 -.0157 -16.25 -1.7)" gradientUnits="userSpaceOnUse">
<stop stop-color="#d1c7a3" offset="0"/>
<stop stop-color="#e1d9c8" offset="1"/>
</linearGradient>
<linearGradient id="g" x1="-819.2" x2="819.2" gradientTransform="matrix(.0246 -.0106 .0096 .0118 61.1 -12.3)" gradientUnits="userSpaceOnUse">
<stop stop-color="#b6a66d" offset="0"/>
<stop stop-color="#97814f" offset="1"/>
</linearGradient>
<g id="a" transform="translate(54.55,37.05)">
<use transform="translate(-54.55,-37.05)" width="109.15" height="74.099998" xlink:href="#d"/>
</g>
<g id="d" transform="translate(54.55,37.05)">
<path d="m40.25-35.15 5.2 5.7q-0.15-4.35 4.25-7.1 7-2 4 4.4-12.95 7.25-24.45 19l2.05-11.6q2.7-12.2 8.95-10.4m-80.65 63.2q12.15-2.3 10.8 2.2-9.6 2.3-21.15 6.8l-3.8-3.8q7.3-3.7 0.75-5.8 8.85-6 17.65-5.05 1.55 4.25-4.25 5.65m40.6-29.2q6.3-0.3 3.75 4.7-2.85 5.9-8.95 3.3-1.75-4 5.2-8" fill="#900" fill-opacity=".49804" fill-rule="evenodd"/>
</g>
</defs>
</svg>
