<?xml version="1.0" encoding="UTF-8"?>
<svg version="1.1" viewBox="0 0 110.49 113.09" xmlns="http://www.w3.org/2000/svg" xmlns:cc="http://creativecommons.org/ns#" xmlns:dc="http://purl.org/dc/elements/1.1/" xmlns:rdf="http://www.w3.org/1999/02/22-rdf-syntax-ns#" xmlns:xlink="http://www.w3.org/1999/xlink">
<metadata>
<rdf:RDF>
<cc:Work rdf:about="">
<dc:format>image/svg+xml</dc:format>
<dc:type rdf:resource="http://purl.org/dc/dcmitype/StillImage"/>
</cc:Work>
</rdf:RDF>
</metadata>
<g transform="translate(-149.57 -51.519)">
<use transform="translate(149.6,51.55)" width="110.45" height="113.05" xlink:href="#a"/>
</g>
<defs>
<g id="a" transform="translate(55.2,56.5)">
<use transform="translate(-55.2,-56.5)" width="110.45" height="113.05" xlink:href="#b"/>
</g>
<g id="b" transform="translate(55.2,56.5)">
<path d="m44.15-47.9q0.75 1.15 1.6 1.65-0.65 8.4-3.95 13.45 2.35-2.5 5.05-7.5l-1.7 7.1 0.45 2.95-5.45-0.3 4-17.35m8.7 45.55q-2.55 5.95-1.9 8-8.2 10.7-19.85 14.95l2.3 0.55 5.35 0.85-7.8 3q-14.6-3.4-27.4-11.45 12.55-2.65 25.25-18.05 15.85 5.7 24.05 2.15m-15.75 43.8 1.05-1.9q-2.8 10.55-3.9 12.75-5 8.1-23.35 0.7 2.45 0.3 2.4-2.85l6.05 2.45q6.1 2.05 12.4-1.3l5.35-9.85m-36.7 6.7-2.35-10.05 3.35 7.2-1 2.85m-8.2-6.45-1.55 2.8-12.55-9.5 1.5-2.8 12.6 9.5m-11.1-12.3-8.1 0.05-6.55-6.3 2.45-0.7 6.25 5.4 5.95 1.55m49.65-84.85q1.35 0.85 2.4 2.55-3.5 13.5-2 15.85-3.4-4.25-2.2-6.45l2.3-5.65-0.5-6.3m-25.3 39.35 0.95 1q-1.55 4.85-4.85 11.65l3.9-12.65" fill="#d7dbc8" fill-rule="evenodd"/>
<path d="m46.85-40.3 1.75-3.4q-1.65 7.85-1.4 13.3l-1.6 0.15-0.45-2.95 1.7-7.1m4.1 45.95 1.85 0.05q-5.8 13.5-19.4 15.45l-2.3-0.55q11.65-4.25 19.85-14.95m-12.2 16.35q2.45 0.65 2.9 1.65-3.6-0.1-7.25 2.1l-3.45-0.75 7.8-3m-27.85 31q-4.8-1.9-10.5-4.85l1-2.85 11.9 4.85q0.05 3.15-2.4 2.85m-44.45-29.85q-11.3-11.55-17.45-23.85-5.8-11.95-3.6-17.9 5.35 23.15 23.5 41.05l-2.45 0.7m12.15-42.1q6.45-3.4 13.3-8.25-6.7 8.65-2.5 8 4.9-2.15 9.2-6.5 2.75 5.45 6.85 9.6l-3.9 12.65q4.05-6.3 6.1-10.9 11.85 6.5 21.15 9.85-12.7 15.4-25.25 18.05-8.15-5.15-15.05-11.2-12.8-9.7-9.9-21.3m40.8-23.4q3.2-3.5 7-6.55 1.3-6.9-6.35-5.35 6.75-3.8 10.7-1.2l0.5 6.3-2.3 5.65q-1.2 2.2 2.2 6.45 1 1.6 4.45-2.05l5.8-15.75q1.25 4.75 2.75 6.95l-4 17.35q-9.9-1.8-20.75-11.8" fill="#fff" fill-rule="evenodd"/>
<path d="m47.2-30.4q0.25 5.05 2.15 8.1-4.65-4.35-3.75-7.95l1.6-0.15m-12.8 56.15q-4.5 2.7-9.05 8.8 3.45 2.65 5.9 3.9l-7.85-2.25-0.55 0.45 8.1-11.6v-0.05l3.45 0.75m-89-44.35 1.15-2.1q5.5-3.65 16.25 8.05 7.6-2 15.8-6.3-2.9 11.6 9.9 21.3 6.9 6.05 15.05 11.2-14.55 3.05-29.8-1.65 3.05 10.45-4.85 10.55-18.15-17.9-23.5-41.05m53.2-7.1q5.05-5.15 9.3-13.35-3.6 8.9 0.2 7.05l1.2-0.65 1.8-1.15-1.25 6.05q-1.15 5.05-3.45 12.65l-0.95-1q-4.1-4.15-6.85-9.6m15.15-4 2.85-9.35 2.8-3.3q10.85 10 20.75 11.8-4.3 15.95-11.35 26.05-9.3-3.35-21.15-9.85 3.9-8.85 6.1-15.35m-50.95 17.05-3.9 0.85q-3.15 2.7 14.85 23.7-18-21-14.85-23.7l3.9-0.85m62.55 47.2-1.95 1.65 1.95-1.65" fill="#c00" fill-rule="evenodd"/>
<path d="m49.35-22.3q0.8 1.2 1.9 2.1 6.45 16.4 2.45 16.05l-0.85 1.8q-8.2 3.55-24.05-2.15 7.05-10.1 11.35-26.05l5.45 0.3q-0.9 3.6 3.75 7.95m-18.1 60.75 3.65 1q0.05 5.35 2.2 2l-5.35 9.85q-6.3 3.35-12.4 1.3l-6.05-2.45-11.9-4.85-3.35-7.2-5.65-4.25-0.2 7.85-12.6-9.5 1.5-2.8-5.95-1.55-6.25-5.4q7.9-0.1 4.85-10.55 15.25 4.7 29.8 1.65 12.8 8.05 27.4 11.45v0.05l-8.1 11.6 0.55-0.45 7.85 2.25q2.25 1.1 3.65 1-1.4 0.1-3.65-1m-21.4-66.2q0.95 2.85 3.9-1.95-2.2 6.5-6.1 15.35-2.05 4.6-6.1 10.9 3.3-6.8 4.85-11.65 2.3-7.6 3.45-12.65m-6.35 61.3q12.65 7.8 19.35 3.1-6.7 4.7-19.35-3.1" fill="#710000" fill-rule="evenodd"/>
<path d="m44.15-47.9q0.75 1.15 1.6 1.65-0.65 8.4-3.95 13.45 2.35-2.5 5.05-7.5l1.75-3.4q-1.65 7.85-1.4 13.3 0.25 5.05 2.15 8.1 0.8 1.2 1.9 2.1 6.45 16.4 2.45 16.05l-0.85 1.8q-2.55 5.95-1.9 8l1.85 0.05q-5.8 13.5-19.4 15.45l5.35 0.85q2.45 0.65 2.9 1.65-3.6-0.1-7.25 2.1-4.5 2.7-9.05 8.8 3.45 2.65 5.9 3.9 2.25 1.1 3.65 1 0.05 5.35 2.2 2l1.05-1.9q-2.8 10.55-3.9 12.75-5 8.1-23.35 0.7-4.8-1.9-10.5-4.85l-2.35-10.05-5.65-4.25-0.2 7.85-1.55 2.8-12.55-9.5 3-5.6-8.1 0.05-6.55-6.3q-11.3-11.55-17.45-23.85-5.8-11.95-3.6-17.9l1.15-2.1q5.5-3.65 16.25 8.05 7.6-2 15.8-6.3 6.45-3.4 13.3-8.25-6.7 8.65-2.5 8 4.9-2.15 9.2-6.5 5.05-5.15 9.3-13.35-3.6 8.9 0.2 7.05l1.2-0.65 1.8-1.15-1.25 6.05q0.95 2.85 3.9-1.95l2.85-9.35 2.8-3.3q3.2-3.5 7-6.55 1.3-6.9-6.35-5.35 6.75-3.8 10.7-1.2 1.35 0.85 2.4 2.55-3.5 13.5-2 15.85 1 1.6 4.45-2.05l5.8-15.75q1.25 4.75 2.75 6.95m-70.4 59.8q-18-21-14.85-23.7l3.9-0.85m50.95-17.05q-2.2 6.5-6.1 15.35m-1.25-0.75q2.3-7.6 3.45-12.65m-3.45 12.65q-1.55 4.85-4.85 11.65 4.05-6.3 6.1-10.9m15.2 51 0.55-0.45 1.95-1.65m-2.5 2.1q-6.7 4.7-19.35-3.1m-34.6-11.1 6.25 5.4 5.95 1.55m-12.2-6.95q-18.15-17.9-23.5-41.05m91.7 60.05-5.35 9.85q-6.3 3.35-12.4 1.3l-6.05-2.45-11.9-4.85-3.35-7.2m-5.85 3.6-12.6-9.5" fill="none" stroke="#000" stroke-linecap="round" stroke-linejoin="round" stroke-opacity=".56078" stroke-width=".05"/>
</g>
</defs>
</svg>
