<?xml version="1.0" encoding="UTF-8"?>
<svg version="1.1" viewBox="0 0 26.15 20.65" xmlns="http://www.w3.org/2000/svg" xmlns:cc="http://creativecommons.org/ns#" xmlns:dc="http://purl.org/dc/elements/1.1/" xmlns:rdf="http://www.w3.org/1999/02/22-rdf-syntax-ns#" xmlns:xlink="http://www.w3.org/1999/xlink">
<metadata>
<rdf:RDF>
<cc:Work rdf:about="">
<dc:format>image/svg+xml</dc:format>
<dc:type rdf:resource="http://purl.org/dc/dcmitype/StillImage"/>
</cc:Work>
</rdf:RDF>
</metadata>
<g transform="translate(-470.15,-261.85)">
<use transform="translate(470.15,261.85)" width="26.15" height="20.65" xlink:href="#a"/>
</g>
<defs>
<g id="a" transform="translate(-470.15,-261.85)">
<path d="m481.7 267.8-0.4-1.1 0.85 0.4 0.75-0.1 0.05-0.6 1.25 0.8 3.3 1.2 0.05 1.2 3.1 1.65-1.15 1.7-7.9-0.05-6.15 2.15-0.25-1.05 0.9-1.35 2.55 0.4 0.45-1.85 0.45 0.05 1-1.15-0.8-1.85 1.3 0.2 0.1-0.1 0.6-0.5-0.05-0.05m-3.6 4.3h-2.4l-0.8 1.95 0.5 1-1.65 0.6-3.6-2.1 2.95-2-1.55-0.3 0.15-2.1h0.1l3.7-1.25 0.35 2.3 0.8 0.65 1.05 0.15 0.4 1.1m16.5 1-0.1 0.05-1.4-0.8 2.05 0.1-0.55 0.65" fill="#510000" fill-rule="evenodd"/>
<path d="m489.65 263.15 0.05-0.05v0.05h-0.05" fill="#c60000" fill-rule="evenodd"/>
<path d="m473.55 269.65 1.8 2.6 0.05 0.05-0.8 0.9-1.6-1-0.2-2.15 0.7-0.4h0.05m14.65-4.45 0.05-0.65v-0.1l1.15-0.15-0.1 1-1.1-0.1m-12.2 2 0.4-0.55 2.1 0.95-0.55 0.75-1.35 0.15-0.6-1.3m9.9-2.6-1.15-0.1 0.4-1.95 1.1 0.4-0.35 1.65m-3.6 0.2-1.05 0.4-1.55-1.35 1.3-0.45 1.3 1.4m8.6 1.7-0.5-0.15 0.45-1.05 0.6 0.1-0.55 1.1" fill="#fff" fill-rule="evenodd"/>
<path d="m473.55 269.65h-0.05l-0.7 0.4 0.2 2.15 1.6 1 0.8-0.9-0.05-0.05-1.8-2.6m-1.55 9.45 0.65-1.5 3.9 0.05-0.65-1.85-1.7-0.2-1.35-1.1-0.65-4.3 1.15-1.45 2.25 0.2-0.3-1.9 0.95-1.25 3.25-0.05-0.45-2v-0.1l2.55-1.05 2.15 1.05 0.05-0.05 1.15-1.75 2.7 0.6h0.05l-0.1 1.35 2.05-0.65h0.05l0.75 1.7h0.1l1.1-0.2 0.65 2.3-0.05 0.05 1.2 1.65 2-0.6 0.85-2.8-0.05 0.9-0.65 2.35-2.4 0.7-2.5-1.8-0.75 0.8-0.75-1.1-0.95 0.9-0.4-0.95-0.95-0.3-1.05 1.45-0.5 0.05-0.8-1.15-0.55 1.4-0.4 0.05-2.5-0.5-0.3 1.65-0.75 0.5-2 0.1 0.5 4.05-1.7 1.1 0.25 2.45-3.6 0.1-1.5 1.1m10.3-14.3-1.3-1.4-1.3 0.45 1.55 1.35 1.05-0.4m3.6-0.2 0.35-1.65-1.1-0.4-0.4 1.95 1.15 0.1m-9.9 2.6 0.6 1.3 1.35-0.15 0.55-0.75-2.1-0.95-0.4 0.55m12.2-2 1.1 0.1 0.1-1-1.15 0.15v0.1l-0.05 0.65m2.7 1.3 0.55-1.1-0.6-0.1-0.45 1.05 0.5 0.15" fill="url(#c)" fill-rule="evenodd"/>
<path d="m496.25 266.15-0.2 2.75-3.1 0.85-1.8-1.55-1.2 0.45-0.55-0.8-1.05 0.7-1-0.95-0.75 1.2-1.45-0.15-0.6-0.7-0.15 1.3-1.25 0.15-1.35-0.65 0.65 1.85 0.05 0.1-0.95 0.8-0.15 0.15-2.15-0.3 1.3 3-1.6 1.85-0.75-0.1-0.8 3.05-4.1-0.6-1.5 2.2 0.4 1.75-0.9-1.7 0.7-1.7 1.5-1.1 3.6-0.1-0.25-2.45 1.7-1.1-0.5-4.05 2-0.1 0.75-0.5 0.3-1.65 2.5 0.5 0.4-0.05 0.55-1.4 0.8 1.15 0.5-0.05 1.05-1.45 0.95 0.3 0.4 0.95 0.95-0.9 0.75 1.1 0.75-0.8 2.5 1.8 2.4-0.7 0.65-2.35" fill="url(#b)" fill-rule="evenodd"/>
</g>
<linearGradient id="c" x1="-819.2" x2="819.2" gradientTransform="matrix(1e-4 .0053 -.015 3e-4 484.05 268.8)" gradientUnits="userSpaceOnUse">
<stop stop-color="#fc0" offset="0"/>
<stop stop-color="#fff" offset="1"/>
</linearGradient>
<linearGradient id="b" x1="-819.2" x2="819.2" gradientTransform="matrix(-.0065 .0114 -.0084 -.0048 482.3 277.05)" gradientUnits="userSpaceOnUse">
<stop stop-color="#f99706" offset="0"/>
<stop stop-color="#fff6d2" offset="1"/>
</linearGradient>
</defs>
</svg>
