<?xml version="1.0" encoding="UTF-8"?>
<svg version="1.1" viewBox="0 0 116.04 78.562" xmlns="http://www.w3.org/2000/svg" xmlns:cc="http://creativecommons.org/ns#" xmlns:dc="http://purl.org/dc/elements/1.1/" xmlns:rdf="http://www.w3.org/1999/02/22-rdf-syntax-ns#" xmlns:xlink="http://www.w3.org/1999/xlink">
<metadata>
<rdf:RDF>
<cc:Work rdf:about="">
<dc:format>image/svg+xml</dc:format>
<dc:type rdf:resource="http://purl.org/dc/dcmitype/StillImage"/>
</cc:Work>
</rdf:RDF>
</metadata>
<g transform="translate(-228.21 -185.79)">
<use transform="translate(228.2,185.8)" width="116.05" height="78.550003" xlink:href="#a"/>
</g>
<defs>
<g id="a" transform="translate(-228.2,-185.8)">
<path d="m322.35 216.7 11.05 4.5 4.25 0.1q2.2 1.85 3.7 4.45-28.5 4.85-52.75 3.05-0.15 7.7 7.25 11.8-12.4-1.3-22.85-6.05-7.15-3.25-18.35-10.85-7.5-5.1-14.05-0.05-5.2 4-8.8 13.5l-0.2-0.5q-6.1-13.7-1.05-18.45 4.65-4.4 14.6-9l1-0.5 15.95-4.6q16.45-4.85 19.15-6.05 4.3-1.9 6.95-6.75 0.6 1.9 0.55 4.5-0.15 6.25-5.15 9.4l1.65 0.1h0.4l1.25-0.05 2.35-0.35 11.35-1.55q7.9-1.8 9.45-14 3 1.95 4.7 4.75 5.45 9.05-3 14.45l-0.45 0.25 0.45-0.2q14.15-5.05 20.25-4.45 2.4 1.4 4.15 3.75-3.95 0.15-7.65 1.5-6.1 2.25-7.2 6.9l-0.1 0.45 1.15-0.05" fill="url(#i)" fill-rule="evenodd"/>
<path d="m231.8 237.15q3.6-9.5 8.8-13.5 6.55-5.05 14.05 0.05 11.2 7.6 18.35 10.85 10.45 4.75 22.85 6.05-7.4-4.1-7.25-11.8 24.25 1.8 52.75-3.05 1.95 3.3 2.85 7.85-6.2-4.1-11.75-3.75-5.55 0.3-8.75 4.8 1.95 27.75-26.15 29.65l7.05-3q-14.85 3-30.2-4.4-2.35-1.1-11.15-6.1-5.3-2.95-8.6-4l-0.75-0.25-0.05 0.05q-2.8-1.9-6.15-6.45 0.35 7.85 6.7 15.7l0.1 0.1q-4.25-1.5-8.7-4.15-9.8-5.85-14-14.65" fill="url(#h)" fill-rule="evenodd"/>
<path d="m337.65 221.3-4.25-0.1-11.05-4.5q9.75-0.15 15.3 4.6" fill="url(#g)" fill-rule="evenodd"/>
<path d="m332 204.15q-6.1-0.6-20.25 4.45l5.9-2.9q4.8-2.4 6.7-2.8 3.8-0.9 7.35 1.05l0.3 0.2" fill="url(#f)" fill-rule="evenodd"/>
<path d="m288.2 191.3q-2.65 4.85-6.95 6.75-2.7 1.2-19.15 6.05l-15.95 4.6q2.5-1.15 5.3-2.25 7.95-3.3 22.85-8.5 6.1-2.35 8-3.8 2.45-1.95 3.85-6.1 1.4 1.2 2.05 3.25" fill="url(#e)" fill-rule="evenodd"/>
<path d="m310.05 189.35q-1.55 12.2-9.45 14l-11.35 1.55h0.15q6.5-1.4 10.2-6.85 1.7-2.5 1.25-6.4-0.55-4.05-2.9-5.7 3.7-0.55 8.7 1.6l3.4 1.8" fill="url(#d)" fill-rule="evenodd"/>
<path d="m253.85 246.6 0.05-0.05v0.05h-0.05" fill="url(#c)" fill-rule="evenodd"/>
<path d="m253.9 246.6q1.85 3.4 4.55 10.45l-3.95-1.1-0.1-0.1q-6.35-7.85-6.7-15.7 3.35 4.55 6.15 6.45h0.05" fill="url(#b)" fill-rule="evenodd"/>
<path d="m337.65 221.3q-5.55-4.75-15.3-4.6l-1.15 0.05 0.1-0.45q1.1-4.65 7.2-6.9 3.7-1.35 7.65-1.5-1.75-2.35-4.15-3.75m-20.25 4.45-0.45 0.2 0.45-0.25q8.45-5.4 3-14.45-1.7-2.8-4.7-4.75m-24.4 15.95h-0.4l-1.65-0.1q5-3.15 5.15-9.4 0.05-2.6-0.55-4.5m-42.05 17.4-1 0.5q-9.95 4.6-14.6 9-5.05 4.75 1.05 18.45l0.2 0.5m109.55-11.4q-1.5-2.6-3.7-4.45m3.7 4.45q1.95 3.3 2.85 7.85-6.2-4.1-11.75-3.75-5.55 0.3-8.75 4.8 1.95 27.75-26.15 29.65l7.05-3q-14.85 3-30.2-4.4-2.35-1.1-11.15-6.1-5.3-2.95-8.6-4l-0.75-0.2q1.85 3.4 4.55 10.45l-3.95-1.1q-4.25-1.5-8.7-4.15-9.8-5.85-14-14.65m79.95-28.55 5.9-2.9q4.8-2.4 6.7-2.8 3.8-0.9 7.35 1.05l0.3 0.2m-85.85 4.55q2.5-1.15 5.3-2.25 7.95-3.3 22.85-8.5 6.1-2.35 8-3.8 2.45-1.95 3.85-6.1 1.4 1.2 2.05 3.25m1.05 13.6h0.15q6.5-1.4 10.2-6.85 1.7-2.5 1.25-6.4-0.55-4.05-2.9-5.7 3.7-0.55 8.7 1.6l3.4 1.8m-56.15 57.2 0.75 0.25m-0.8-0.2h0.05v-0.05" fill="none" stroke="#cb9545" stroke-linecap="round" stroke-linejoin="round" stroke-width=".1"/>
<path d="m289.25 204.9-2.35 0.35-1.25 0.05" fill="none" stroke="#a7762e" stroke-linecap="round" stroke-linejoin="round" stroke-width=".25"/>
</g>
<linearGradient id="i" x1="-819.2" x2="819.2" gradientTransform="matrix(.0798 0 0 .0334 269.8 212)" gradientUnits="userSpaceOnUse">
<stop stop-color="#daaf72" offset="0"/>
<stop stop-color="#fffbb7" offset="1"/>
</linearGradient>
<linearGradient id="h" x1="-819.2" x2="819.2" gradientTransform="matrix(.0686 0 0 .0264 288 242.8)" gradientUnits="userSpaceOnUse">
<stop stop-color="#eed88f" offset="0"/>
<stop stop-color="#fffbb7" offset="1"/>
</linearGradient>
<linearGradient id="g" x1="-819.2" x2="819.2" gradientTransform="matrix(.022 .0119 -.014 .0261 352.2 175.2)" gradientUnits="userSpaceOnUse">
<stop stop-color="#e4c277" offset="0"/>
<stop stop-color="#ecd48a" offset="1"/>
</linearGradient>
<linearGradient id="f" x1="-819.2" x2="819.2" gradientTransform="matrix(.0232 -.0095 .0113 .0275 301.95 157.35)" gradientUnits="userSpaceOnUse">
<stop stop-color="#d8a65a" offset="0"/>
<stop stop-color="#ecd48a" offset="1"/>
</linearGradient>
<linearGradient id="e" x1="-819.2" x2="819.2" gradientTransform="matrix(.0137 -.0068 .0149 .0298 275.9 211.85)" gradientUnits="userSpaceOnUse">
<stop stop-color="#ecd48a" offset="0"/>
<stop stop-color="#c98a2e" stop-opacity=".8" offset="1"/>
</linearGradient>
<linearGradient id="d" x1="-819.2" x2="819.2" gradientTransform="matrix(-.0042 .0086 -.0267 -.0129 321.55 211.9)" gradientUnits="userSpaceOnUse">
<stop stop-color="#ecd48a" offset="0"/>
<stop stop-color="#c98a2e" stop-opacity=".8" offset="1"/>
</linearGradient>
<linearGradient id="c" x1="-819.2" x2="819.2" gradientTransform="matrix(.0587 0 0 .0334 293.25 213.2)" gradientUnits="userSpaceOnUse">
<stop stop-color="#c98a2e" offset="0"/>
<stop stop-color="#ecd48a" offset="1"/>
</linearGradient>
<linearGradient id="b" x1="-819.2" x2="819.2" gradientTransform="matrix(.0587 0 0 .0334 293.25 213.2)" gradientUnits="userSpaceOnUse">
<stop stop-color="#ecd48a" offset="0"/>
<stop stop-color="#c98a2e" offset=".33333"/>
</linearGradient>
</defs>
</svg>
