<?xml version="1.0" encoding="UTF-8"?>
<svg version="1.1" viewBox="0 0 152.28 233.15" xmlns="http://www.w3.org/2000/svg" xmlns:cc="http://creativecommons.org/ns#" xmlns:dc="http://purl.org/dc/elements/1.1/" xmlns:rdf="http://www.w3.org/1999/02/22-rdf-syntax-ns#" xmlns:xlink="http://www.w3.org/1999/xlink">
<metadata>
<rdf:RDF>
<cc:Work rdf:about="">
<dc:format>image/svg+xml</dc:format>
<dc:type rdf:resource="http://purl.org/dc/dcmitype/StillImage"/>
</cc:Work>
</rdf:RDF>
</metadata>
<g transform="translate(-199.37 -85.85)">
<use transform="translate(239.85,114.65)" width="64.25" height="204.35001" xlink:href="#b"/>
<use transform="translate(199.35,85.85)" width="152.3" height="62.599998" xlink:href="#a"/>
</g>
<defs>
<g id="b" transform="translate(.5 .1)">
<use transform="translate(-.5 -.1)" width="64.25" height="204.35001" xlink:href="#d"/>
</g>
<g id="d" transform="translate(.5 .1)">
<path d="m48 66.45q-1.45 9.9-2.45 20.3l-1.9 7.75 0.1-6.6q-1.45 12-1.2 21.85l1.75-7.45 4-17.05 1.6 3.75q-3.95 12.9-6.5 34.6l-0.1 6.05q-0.8 0.45-1.4 2.9-0.8 3.1-0.8 7.45t0.8 7.4q0.65 2.75 1.55 3.05 1.3 22.05 6.3 34.3-0.6 4.85-2.5 3.9-1.55 3.3-2.35 1.5-1.5 3.1-2.7 1.45-1.95 3.65-4.05 1.25-1.5 2.75-3.65 0.5-1.85 2.6-3.85 0.05-0.5 0-2.15 1 0.9-27.35-0.45-55.65 0.65 0 1.1-2.65 0.45-2.6 0.45-6.35t-0.45-6.4q-0.45-2.6-1.1-2.6l-0.2 0.05-1.9-33.05v-23.05h2.5q2.05 28.2 3.2 56.55-0.05-29.25-0.7-58.5h0.9l0.75-12.25 1.15 24.75 2.85-13.8h2.25q-3.4 52.75-0.6 89.8-0.55-49.8 3.15-91l0.8 0.25-0.7 7.75 6.5-1.8m-5.55 17.05 0.7-5h2l-1.4 9.4 1.4-9.4h-2l-0.7 5-1.55-0.05q-1.95 14.4-1.25 23.1 0.9-9.2 2.8-23.05m-2.9 24.5 0.1-1.45-0.1 1.45m-6.2 51.25q-0.95 0-1.6 3.85-0.7 3.9-0.7 9.4t0.7 9.35q0.65 3.9 1.6 3.9t1.65-3.9q0.65-3.85 0.65-9.35t-0.65-9.4q-0.7-3.85-1.65-3.85" fill="#c29b4d" fill-rule="evenodd"/>
<path d="m49.75 1.4q6.8 0.9 13.5 2.85-7.1 19.55-11.65 41.85l-5.15 1.05-3.75 0.4q2.7-24.75 7.05-46.15m-4.2 85.35q-0.75 7.65-1.25 15.55l-1.75 7.45q-0.25-9.85 1.2-21.85l-0.1 6.6 1.9-7.75m4.2 98-0.05 1.65q-0.45 8.45-3.1 10.85l-1.1 1.05q2.1-4.65 1.75-9.65 1.9 0.95 2.5-3.9m-5.6 14.75-2.5 1.6q1.25-4.5 0.55-9.5 1.2 1.65 2.7-1.45 0.3 4.8-0.75 9.35m-19.15-2.7q-1.5-3.75-1.9-9.35l0.1-2.2q1.25 1.1 1.6 5.45l0.2 6.1m-1.4-19.85q1.65-5.95 1.6-13.35 0-7.45-0.45-9.85 0.45-1.9 0.45-6.4 0.05-4.5-1.25-11.05 0.8 0.45 1.4 2.95 0.65 3.05 0.65 7.35l-0.2 4.25 0.8 3.15q0.7 4.3 0.7 10.35t-0.7 10.35-1.75 4.3q-0.65 0-1.25-2.05m-3.7-84.3-1.35-9.75h2.1l2.2 21.6-2.95-11.85m-9.4-50.25q-4.55-18.25-10.5-34.65l6.8-2.4q5.35 18.85 9.45 38.8l4 1.1 1.65 15.35q1.6 16.65 2.55 33.15-2.3-18.2-5.45-35.55l-2.75-14.05-5.75-1.75m3.85-39.15 8.5-1.65q2.4 22.55 4.25 45.25l3.5 0.6 0.35 15.3q0.65 29.25 0.7 58.5-1.15-28.35-3.2-56.55l-1.35-17.85-6.85-1.6q-2.4-20.85-5.9-42m29.9-2.45q-2.75 24.7-4.4 46.85l2.85-0.1-1.3 12.7q-3.7 41.2-3.15 91-2.8-37.05 0.6-89.8l1-13.8-5.5 0.1-3.75-0.3q-0.6-23.3-1.55-46.6 7.65-0.65 15.2-0.05m-1.8 82.7q-1.9 13.85-2.8 23.05-0.7-8.7 1.25-23.1l1.55 0.05m-14.6 37.3 0.2-0.05q0.65 0 1.1 2.6 0.45 2.65 0.45 6.4t-0.45 6.35q-0.45 2.65-1.1 2.65-0.7 0-1.15-2.65-0.45-2.6-0.45-6.35t0.45-6.4q0.4-2.25 0.95-2.55" fill="#995c01" fill-rule="evenodd"/>
<path d="m42.7 47.55 3.75-0.4 5.15-1.05q-2.05 9.9-3.6 20.35l-6.5 1.8 0.7-7.75-0.8-0.25 1.3-12.7m0.6 82.1q-0.1 9.85 0.1 20.1l0.05 0.7q-0.9-0.3-1.55-3.05-0.8-3.05-0.8-7.4t0.8-7.45q0.6-2.45 1.4-2.9m-20.1 55.6 0.4-8.3q0.6 2.05 1.25 2.05 1.05 0 1.75-4.3t0.7-10.35-0.7-10.35l-0.8-3.15 0.2-4.25q0-4.3-0.65-7.35-0.6-2.5-1.4-2.95l-1.25-17.55q-2.35-17.85-6.45-35.75h1.3l2.35 9.65 2.95 11.85-2.2-21.6h-2.1q-1.95-12.9-4.5-25.05l-3.55-15.45 5.75 1.75 2.75 14.05q3.15 17.35 5.45 35.55-0.95-16.5-2.55-33.15l-1.65-15.35 6.85 1.6 1.35 17.85h-2.5v23.05l1.9 33.05q-0.55 0.3-0.95 2.55-0.45 2.65-0.45 6.4t0.45 6.35q0.45 2.65 1.15 2.65 1.35 28.3 0.45 55.65-0.15-0.95-1.4-0.9-0.8-3-2.3-2.8-0.35-4.35-1.6-5.45m7.75-122.5-0.35-15.3 3.75 0.3 5.5-0.1-1 13.8h-2.25l-2.85 13.8-1.15-24.75-0.75 12.25h-0.9m2.4 96.5q0.95 0 1.65 3.85 0.65 3.9 0.65 9.4t-0.65 9.35q-0.7 3.9-1.65 3.9t-1.6-3.9q-0.7-3.85-0.7-9.35t0.7-9.4q0.65-3.85 1.6-3.85" fill="#c08022" fill-rule="evenodd"/>
<path d="m49.75 1.4q-4.35 21.4-7.05 46.15l-2.85 0.1q1.65-22.15 4.4-46.85l5.5 0.6m-42.95 3.95q3.8-1.2 7.55-2.1 3.5 21.15 5.9 42l-4-1.1q-4.1-19.95-9.45-38.8m16.05-3.75 6.2-0.75q0.95 23.3 1.55 46.6l-3.5-0.6q-1.85-22.7-4.25-45.25" fill="#5f3901" fill-rule="evenodd"/>
<path d="m45.5 198.3-1.35 1.2q1.05-4.55 0.75-9.35 0.8 1.8 2.35-1.5 0.35 5-1.75 9.65m-3.85 2.8-3 1.35-0.5-9.6q2.1 2.4 4.05-1.25 0.7 5-0.55 9.5m-6.25 2.2-2.95 0.4q-1.9-4.9-1.8-10.3 2 2.55 3.85-0.05-0.4 5.45 0.9 9.95m-6.7-1.1q-2.3-1.9-3.7-5.4l-0.2-6.1q1.5-0.2 2.3 2.8-0.2 4.55 1.6 8.7" fill="#784902" fill-rule="evenodd"/>
<path d="m38.65 202.45-3.25 0.85q-1.3-4.5-0.9-9.95 2.15 2.25 3.65-0.5l0.5 9.6m-6.2 1.25-1.1 0.05q-1.45-0.55-2.65-1.55-1.8-4.15-1.6-8.7 1.25-0.05 1.4 0.9 1.65-1 2.15-1-0.1 5.4 1.8 10.3" fill="#663d01" fill-rule="evenodd"/>
<path d="m51.6 46.1q4.55-22.3 11.65-41.85-6.7-1.95-13.5-2.85m1.85 44.7q-2.05 9.9-3.6 20.35-1.45 9.9-2.45 20.3-0.75 7.65-1.25 15.55l4-17.05 1.6 3.75q-3.95 12.9-6.5 34.6l-0.1 6.05q-0.1 9.85 0.1 20.1l0.05 0.7q1.3 22.05 6.3 34.3l-0.05 1.65q-0.45 8.45-3.1 10.85l-1.1 1.05-1.35 1.2-2.5 1.6-3 1.35-3.25 0.85-2.95 0.4q-1.9-4.9-1.8-10.3m-7.55-5.95 0.1-2.2 0.4-8.3q1.65-5.95 1.6-13.35 0-7.45-0.45-9.85 0.45-1.9 0.45-6.4 0.05-4.5-1.25-11.05l-1.25-17.55q-2.35-17.85-6.45-35.75h1.3l2.35 9.65-1.35-9.75q-1.95-12.9-4.5-25.05l-3.55-15.45q-4.55-18.25-10.5-34.65l6.8-2.4m7.55-2.1 8.5-1.65m6.2-0.75v-0.85m0 0.85q7.65-0.65 15.2-0.05m-21.4 103.7-2.95-11.85m23.85-4.75 1.4-9.4h-2l-0.7 5q-1.9 13.85-2.8 23.05l-0.1 1.45m4.2-20.1q-1.45 12-1.2 21.85l1.75-7.45m0.6 87.85q0.3 4.8-0.75 9.35m1.35-1.2q2.1-4.65 1.75-9.65m-20.15 4.85q-0.2 4.55 1.6 8.7m-3.9-11.5 0.2 6.1m16.65 4.3q1.25-4.5 0.55-9.5m-3.55 10.85-0.5-9.6m-3.65 0.5q-0.4 5.45 0.9 9.95" fill="none" stroke="#000" stroke-linecap="round" stroke-linejoin="round" stroke-opacity=".4" stroke-width=".2"/>
<path d="m32.45 203.7-1.1 0.05q-1.45-0.55-2.65-1.55-2.3-1.9-3.7-5.4-1.5-3.75-1.9-9.35" fill="none" stroke="#260000" stroke-linecap="round" stroke-linejoin="round" stroke-opacity=".41176"/>
<path d="m31.35 203.75 1.1-0.05 2.95-0.4 3.25-0.85 3-1.35 2.5-1.6 1.35-1.2 1.1-1.05q2.65-2.4 3.1-10.85l0.05-1.65q-5-12.25-6.3-34.3l-0.05-0.7q-0.2-10.25-0.1-20.1l0.1-6.05q2.55-21.7 6.5-34.6l-1.6-3.75-4 17.05q0.5-7.9 1.25-15.55 1-10.4 2.45-20.3 1.55-10.45 3.6-20.35 4.55-22.3 11.65-41.85-6.7-1.95-13.5-2.85l-5.5-0.6q-7.55-0.6-15.2 0.05l-6.2 0.75-8.5 1.65q-3.75 0.9-7.55 2.1l-6.8 2.4q5.95 16.4 10.5 34.65l3.55 15.45q2.55 12.15 4.5 25.05l1.35 9.75-2.35-9.65h-1.3q4.1 17.9 6.45 35.75l1.25 17.55q1.3 6.55 1.25 11.05 0 4.5-0.45 6.4 0.45 2.4 0.45 9.85 0.05 7.4-1.6 13.35l-0.5 10.5" fill="none" stroke="#260000" stroke-linecap="round" stroke-linejoin="round" stroke-opacity=".41176"/>
</g>
<g id="a" transform="translate(.5 .5)">
<use transform="translate(-.5 -.5)" width="152.3" height="62.599998" xlink:href="#c"/>
</g>
<g id="c" transform="translate(.5 .5)">
<path d="m150.45 27.65q-6.25 7.2-15.65 8.05l-10.05-8q-1.2-0.55-2.45-0.95l4.45-6.3-1.25-8.7q12.7 0.5 24.95 15.9m-19.75 13.65-1.55 1.2q-1.8-2.1-3.8-3.55-2.55-1.95-5.35-3.15-2.95-1.35-6.05-0.45 2.55 1.2 4.75 3.5 2.25 2.4 3.85 5.95l0.7 1.5q-3 1.65-6.3 2.9l-10.75-12.4 10.15-4.6 5.1-4.3 1.75 0.8q6.1 7.55 7.5 12.6m-25.55-1.1 3.95 11.4q-7.85 1.75-17 1.6-22.65 11.7-42.65 7.1-6.1-1.4-11.95-4.35l2.4-3.65q1.3-2.35 1.95-4.5l0.9 0.2q1.45 0 2.85-1.45 1.35-1.45 1.95-3.5 0.6-2.1 0.05-3.55-0.65-1.45-2.05-1.45-1.35 0-2.8 1.45-0.6 0.6-1.05 1.35-0.45-0.65-1.2-0.95-2.05-0.8-5.25 1.65t-5.6 6.7l-1.1 2.25-2.3-1.8q3.55-6.05 9.4-10.5-6.75 1.3-11.8 8l-3.25-1.95q5-9 12.4-13.6l21.15 9.95q15.15 2.5 30.25 0l19-2.55 1.75 2.15m-74.7-10.55q-9.7 3.7-16.65 10.05-11.2-5.7-13.3-10.25 10.2-10.55 24.7-11.2l-9.25-0.75q13.55-0.45 14.05-2.6l1.2 0.45q2.4 0.95 4.75 2.35l0.85-0.75 2.7-0.85q5.4 2.75 7.15 5.5-5.15 1.75-7.7 4.2l-1.65-1.1-3.5-1.5q-2.1-1.3 0.7-4.2l-6.75-0.55 0.65 7 2.05 4.2m23.1-26.75q24.8-0.45 32.4-2.9l-3.2 3.4-14.25 0.6-9.55 0.35-5.4-1.45m36-2.1q-0.2 2.35 5.65 2.35l-2.85 2.2q5.1 1.4 10.15 3.65-2.6 2.3-4.7 5.9-10.6-2.15-19.45 0 9.35-0.75 18.2 2.4l-0.95 2.1-0.1 0.4 0.1-0.4 0.95-2.1 11.7 3.9q-2.8-3.15-8.95-5.7 1.35-3.25 5.2-6.5l6.15 0.3h0.05q7.4 1.85 10.85 6.9l-2.35 5.25-7.45 5.45-0.85 0.35q-3.65-5.35-15.4-7.45l-0.7-0.35q-20.55-2.4-41.5 0.75l-5.05-8q-2.05-1.65-5.05-1.2 7.05-4.8 15.75-6.65 3.4 1.6 5.85 5.55l1.1 1.8 5.5-3.55q2.8-1.8 5.65-0.75 1.3 0.55 1.85 2.5 1.1-2.95 2.75-5.15l1.1-1.35 4.05 0.65 2.75-3.25m-2.75 3.25-0.65 1q-1.1 2.1-1.8 4.5l0.9-0.05q3.9-0.8 7.1-4.15l-5.55-1.3m-48.9 15.35-1.95-1.7-1.45 1.3 3.4 0.4m16.25 21.2q-0.9 2.25-1.7 5.1l-3 14.6 3-14.6q0.8-2.85 1.7-5.1" fill="#f5c462" fill-rule="evenodd"/>
<path d="m51.25 25.5 4.9-2.05-4.3 3.2-0.6-1.15 0.6 1.15-4.6 3.4-3.3-1.5 7.3-3.05m1.35 2.95q19.7-4 40.25-0.25-0.6 2.55-1.05 5.4 0.45-2.85 1.05-5.4l6.85 3.7-3.45 0.85-4.45 0.85-20.5 0.95-12.05-1.1-5.25-1.15-3.15-0.95 1.75-2.9 1.4 3.85-1.4-3.85m53.35 1.3-2.95 1.15-8-4.95 10.95 3.8" fill="#825700" fill-rule="evenodd"/>
<path d="m95.2 3.15 9.7 4.05q15.25-1.6 32.9 6 11.5 7.65 13.45 13.5l-0.8 0.95q-12.25-15.4-24.95-15.9l1.25 8.7-4.45 6.3q-2.55-0.8-5.05-0.85-2.85-0.05-5.5 1 2.65-1.05 5.5-1l4.2 2-5.1 4.3-10.15 4.6 10.75 12.4-3.55 1.25-8.25-10.25-1.75-2.15q-3.8-4.35-7.15-5.3 3.35 0.95 7.15 5.3l-19 2.55q-15.1 2.5-30.25 0l-21.15-9.95q-7.4 4.6-12.4 13.6l-1.75-1.05q4.35-9.3 12.25-13.5 1.3-0.7 2.7-1.25l-3.35 1.2-2.05-4.2-0.65-7 6.75 0.55q-2.8 2.9-0.7 4.2l3.5 1.5 1.65 1.1 5 2.75 3.3 1.5 3.6 1.3 3.15 0.95 5.25 1.15q-2.85 1.55-5.1 7.15 2.25-5.6 5.1-7.15l12.05 1.1 20.5-0.95 4.45-0.85 3.45-0.85 3.3-1 2.95-1.15 2.3-1.05q1.3-0.85 2.65-1.45l0.85-0.35 7.45-5.45 2.35-5.25q-3.45-5.05-10.85-6.9h-0.05l-6.15-0.3q-3.85 3.25-5.2 6.5l-1.5-0.6q2.1-3.6 4.7-5.9-5.05-2.25-10.15-3.65l2.85-2.2m-94.7 26.3q-1.9-4.1 3.55-7.25 4.4-2.75 11.9-4.7l9.25 0.75q-14.5 0.65-24.7 11.2m29.5-14.55 6-0.7q6.85-7.65 17.55-11.3l5.4 1.45q-8.7 1.85-15.75 6.65l-1 0.2-4.85 2.95q2.55 0.05 4.85 1.1 3.55 1.65 6.4 5.7l-1.95 0.65q-1.75-2.75-7.15-5.5l-2.7 0.85-0.85 0.75q-2.35-1.4-4.75-2.35l-1.2-0.45m55.95-14.9 2.15 0.2 1.45 0.6-2.75 3.25-4.05-0.65 3.2-3.4m18.95 7.2q-1.2 0.7-2.25 1.65l-0.15 0.15 0.15-0.15q1.05-0.95 2.25-1.65m-68.9 7 1.35-0.05-1.35 0.05" fill="#f5d793" fill-rule="evenodd"/>
<path d="m124.75 27.7q6.7 6.7 8.35 11.5l-2.4 2.1q-1.4-5.05-7.5-12.6l-1.75-0.8-4.2-2q2.5 0.05 5.05 0.85 1.25 0.4 2.45 0.95m4.4 14.8q-6.3-2.5-5.9 3.8l-0.7-1.5q-1.6-3.55-3.85-5.95-2.2-2.3-4.75-3.5 3.1-0.9 6.05 0.45 2.8 1.2 5.35 3.15 2 1.45 3.8 3.55m-91.65 13.45q-1.5-6.85-8.95-5.45l1.1-2.25q2.4-4.25 5.6-6.7t5.25-1.65q0.75 0.3 1.2 0.95 0.45-0.75 1.05-1.35 1.45-1.45 2.8-1.45 1.4 0 2.05 1.45 0.55 1.45-0.05 3.55-0.6 2.05-1.95 3.5-1.4 1.45-2.85 1.45l-0.9-0.2q-0.65 2.15-1.95 4.5l-2.4 3.65m21.45-51.6 9.55-0.35 14.25-0.6-1.1 1.35q-1.65 2.2-2.75 5.15-0.55-1.95-1.85-2.5-2.85-1.05-5.65 0.75l-5.5 3.55-1.1-1.8q-2.45-3.95-5.85-5.55m27.85-0.3 5.55 1.3q-3.2 3.35-7.1 4.15l-0.9 0.05q0.7-2.4 1.8-4.5l0.65-1m-48.9 15.35-3.4-0.4 1.45-1.3 1.95 1.7" fill="#f3a22b" fill-rule="evenodd"/>
<path d="m43.2 11q3-0.45 5.05 1.2l5.05 8q20.95-3.15 41.5-0.75l0.7 0.35q-1.55 3.7-2.65 8.4 1.1-4.7 2.65-8.4 11.75 2.1 15.4 7.45-1.35 0.6-2.65 1.45l-2.3 1.05-10.95-3.8 8 4.95-3.3 1-6.85-3.7q-20.55-3.75-40.25 0.25l-0.75-1.8 0.75 1.8-1.75 2.9-3.6-1.3 4.6-3.4 4.3-3.2-4.9 2.05q-1.2-2.55-2.65-4.55 1.45 2 2.65 4.55l-7.3 3.05-5-2.75q2.55-2.45 7.7-4.2l1.95-0.65q-2.85-4.05-6.4-5.7-2.3-1.05-4.85-1.1l4.85-2.95 1-0.2" fill="#b26b00" fill-rule="evenodd"/>
<path d="m96.55 17.3q-8.85-3.15-18.2-2.4 8.85-2.15 19.45 0l-1.25 2.4 1.25-2.4 1.5 0.6q6.15 2.55 8.95 5.7l-11.7-3.9" fill="#c27401" fill-rule="evenodd"/>
<path d="m95.2 3.15 9.7 4.05q15.25-1.6 32.9 6 11.5 7.65 13.45 13.5l-0.8 0.95q-6.25 7.2-15.65 8.05l-10.05-8q6.7 6.7 8.35 11.5l-2.4 2.1-1.55 1.2q-6.3-2.5-5.9 3.8-3 1.65-6.3 2.9l-3.55 1.25-8.25-10.25 3.95 11.4q-7.85 1.75-17 1.6-22.65 11.7-42.65 7.1-6.1-1.4-11.95-4.35-1.5-6.85-8.95-5.45l-2.3-1.8q3.55-6.05 9.4-10.5-6.75 1.3-11.8 8l-5-3q4.35-9.3 12.25-13.5 1.3-0.7 2.7-1.25l-3.35 1.2q-9.7 3.7-16.65 10.05-11.2-5.7-13.3-10.25-1.9-4.1 3.55-7.25 4.4-2.75 11.9-4.7 13.55-0.45 14.05-2.6l6-0.7q6.85-7.65 17.55-11.3 24.8-0.45 32.4-2.9l2.15 0.2 1.45 0.6q-0.2 2.35 5.65 2.35m7.3 5.85 0.15-0.15q1.05-0.95 2.25-1.65m-9.4 12.6 0.1-0.4 0.95-2.1 1.25-2.4q2.1-3.6 4.7-5.9m-53.9 11.95q-2.85-4.05-6.4-5.7-2.3-1.05-4.85-1.1l-1.35 0.05m12.6 6.75q1.45 2 2.65 4.55m0.6 1.15 0.75 1.8 1.4 3.85-3.15-0.95-3.6-1.3-3.3-1.5-5-2.75-1.65-1.1m55.55 3.5q1.1-4.7 2.65-8.4m15.4 7.45 0.85-0.35q2.65-1.05 5.5-1 2.5 0.05 5.05 0.85 1.25 0.4 2.45 0.95m-70.6 12.9q2.25-5.6 5.1-7.15l-5.25-1.15m56.9-5.05q-1.35 0.6-2.65 1.45l-2.3 1.05-2.95 1.15-3.3 1-3.45 0.85q3.35 0.95 7.15 5.3l1.75 2.15m-13.35-6.6q0.45-2.85 1.05-5.4m-1.05 5.4 4.45-0.85m-44.4-6.1-0.6-1.15m-1.8 34.8 3-14.6q0.8-2.85 1.7-5.1m5.1-7.15 12.05 1.1 20.5-0.95" fill="none" stroke="#000" stroke-linecap="round" stroke-linejoin="round" stroke-opacity=".4" stroke-width=".2"/>
<path d="m58.3 42.85q4.55-2.85 6.8 2-2.6 2.7-6.8-2" fill="#f5c462" fill-rule="evenodd"/>
<path d="m65.1 44.85 0.6 1.55q-0.1 2.45-3.9 1.25l-2.1-0.7q-3.35-1.75-2.2-3.5l0.8-0.6q4.2 4.7 6.8 2" fill="#f3a22b" fill-rule="evenodd"/>
<path d="m65.1 44.85 0.6 1.55q-0.1 2.45-3.9 1.25m-2.1-0.7q-3.35-1.75-2.2-3.5l0.8-0.6q4.55-2.85 6.8 2z" fill="none" stroke="#000" stroke-linecap="round" stroke-linejoin="round" stroke-opacity=".4" stroke-width=".2"/>
<path d="m122.9 11.8q-3.8 4.7-6.1 2 2-4.85 6.1-2" fill="#f5c462" fill-rule="evenodd"/>
<path d="m121.65 15.9-1.95 0.7q-3.4 1.2-3.45-1.25l0.55-1.55q2.3 2.7 6.1-2l0.7 0.6q1 1.75-1.95 3.5" fill="#f3a22b" fill-rule="evenodd"/>
<path d="m121.65 15.9q2.95-1.75 1.95-3.5l-0.7-0.6q-4.1-2.85-6.1 2l-0.55 1.55q0.05 2.45 3.45 1.25" fill="none" stroke="#000" stroke-linecap="round" stroke-linejoin="round" stroke-opacity=".4" stroke-width=".2"/>
<path d="m127.55 15.1q2.3-2.15 3.5 1.5-1.35 2.05-3.5-1.5" fill="#f5c462" fill-rule="evenodd"/>
<path d="m131.05 16.6 0.3 1.2q-0.05 1.85-2 0.95l-1.05-0.55q-1.75-1.35-1.15-2.65l0.4-0.45q2.15 3.55 3.5 1.5" fill="#f3a22b" fill-rule="evenodd"/>
<path d="m131.05 16.6 0.3 1.2q-0.05 1.85-2 0.95m-1.05-0.55q-1.75-1.35-1.15-2.65l0.4-0.45q2.3-2.15 3.5 1.5z" fill="none" stroke="#000" stroke-linecap="round" stroke-linejoin="round" stroke-opacity=".4" stroke-width=".2"/>
<path d="m150.5 27.65q-6.3 7.2-15.7 8.05l-10.05-8q6.75 6.7 8.4 11.5l-2.4 2.1-1.6 1.2q-6.3-2.5-5.85 3.8-3.05 1.65-6.35 2.9l-3.5 1.25-8.3-10.25 3.95 11.4q-7.85 1.75-16.95 1.6-22.65 11.7-42.65 7.1-6.15-1.4-12-4.35-1.45-6.85-8.95-5.45l-2.3-1.8q3.6-6.05 9.4-10.5-6.7 1.3-11.75 8l-5.05-3q4.35-9.3 12.25-13.5 1.3-0.7 2.7-1.25l-3.35 1.2q-9.7 3.7-16.65 10.05-11.15-5.7-13.3-10.25-1.9-4.1 3.55-7.25 4.45-2.75 11.9-4.7 13.55-0.45 14.05-2.6l6-0.7q6.85-7.65 17.55-11.3 24.8-0.45 32.4-2.9l2.15 0.2 1.45 0.6q-0.15 2.35 5.65 2.35l9.7 4.05q15.25-1.6 32.95 6 11.5 7.65 13.45 13.5z" fill="none" stroke="#310000" stroke-linecap="round" stroke-linejoin="round" stroke-opacity=".41176"/>
</g>
</defs>
</svg>
