<?xml version="1.0" encoding="UTF-8"?>
<svg version="1.1" viewBox="0 0 226 241.65" xmlns="http://www.w3.org/2000/svg" xmlns:cc="http://creativecommons.org/ns#" xmlns:dc="http://purl.org/dc/elements/1.1/" xmlns:rdf="http://www.w3.org/1999/02/22-rdf-syntax-ns#" xmlns:xlink="http://www.w3.org/1999/xlink">
<metadata>
<rdf:RDF>
<cc:Work rdf:about="">
<dc:format>image/svg+xml</dc:format>
<dc:type rdf:resource="http://purl.org/dc/dcmitype/StillImage"/>
</cc:Work>
</rdf:RDF>
</metadata>
<g transform="translate(-157.5,-87.55)">
<use transform="translate(157.5,87.55)" width="226" height="241.64999" xlink:href="#a"/>
</g>
<defs>
<g id="a" transform="translate(-157.5,-87.55)">
<path d="m214.2 157.95h0.05l9.35 1.2 4.95 29.55-18.05-11.2 3.7-19.55m12.6 5.75-2.25-6 2.2 5.6 0.75-15.45 10 1.15 0.95 24.7-11.65-10m30.95-22.5-9.25-17.2 5.6 0.8 3.65 16.4m21.7-20.8 13.05-2.9 6.25 5.45-0.1 0.8-6.15 4.25-13.35-7.15 0.3-0.45m-31.6 36.35 0.15 0.7-7-7.45-5.5-18 6.55 1.2 5.8 23.55m17.45 32.65-30.75-1.9 0.1-0.1 0.3-0.55 21.05-9.35 16 6.5-6.7 5.4m-21.25-16.9 0.2-0.35 0.35-0.55 22.4-15.1 10.65 3.1 0.3 0.1 4.55 1.3-5.9 7.45-0.9 1.15-27.85 3.05-3.8-0.15m45-42.1-6.55 5.1-5.45-7.95 10.45 0.45 1.55 2.4m0.95-9.4h-6.05l6.55 3.5-0.5-3.5m-1 20 4.6 4.95-1.3 0.65-7.3 5.4-17.15-11.65-1.05-1.15 22.2 1.8m-14.15-22.7-7.85-11.3v-4l7.9 15.25-0.05 0.05m-18.15 0.35 1.8-6.15 8 3.5 3 10.9-12.8-8.25m-80 164.95-1.9 3.6-0.5 0.95-7.3 14.05v-3.7l20-91.5-10 69.1 0.25 5.7-0.55 1.8m14.85-21.6 56.45-32-69.75 57.35q6.55-12.85 13.3-25.35" fill="#f96" fill-rule="evenodd"/>
<path d="m343.5 88-0.5 8 6.1 10.4-7.8-7.85-2.3-3.05 4.5-7.95v0.45m7.6 23.65 1.2-0.8 12.65-8.85-12.15 11.3-0.5 0.45-5.4 5.15-0.2 0.15q-4.95 4.75-9.85 10.05h-0.4l-0.25 0.25-0.2 0.15-0.75 0.75-11.9 12.1-0.05 0.05-10.6 11.1-0.1 0.1-0.05 0.45-0.85 0.5-13.3 14.65h-0.05l-0.55 0.65q-9.65 10.75-18.9 21.9l-0.6 0.7-0.15 0.2q-9 10.75-17.65 21.85l-1.9 2.5-0.8 1.05-3.75 5.05q12.6-3.85 25.9-6.1l-32.55 29.4-12 12.75-0.6 0.65-13.6 13.4-11.75 10.7-0.05 0.05-4.85 4.2q-13.1 11.2-26.55 20.85l-2-12.55v-3.45l-0.5-0.3-0.05 0.05-2 3.95v0.05l-10.45 21-3.75 6.8-0.1 0.5-1.05 2.95-0.05 0.05-0.55 1.15 0.35-1.2v-0.1l0.05-0.15 4.05-15.65 2.4-4.65-0.7-1.3-2.65-8.15q3.45-53.5 30-107 5.35 32.05-2.25 64.05l-2.15 10.05q20.2-37.3 42.15-73.2l0.05-0.1-0.65-0.25-0.1-0.05-1.25-0.55-16.7-12.9-0.1-0.05-1-20.75 0.05-0.25 5.15 0.95-3.7 19.55 18.05 11.2 0.45 2.8 9.4-15.15-11.4-12.1-0.2-0.55 11.65 10v0.75l0.35 1.25 0.45-0.75 9.5-14.85 0.15-0.25 0.2-0.3 1.05-1.65 8.05-12.35 2.25-2.9-0.05-0.45-0.75 1.15-0.35 0.3-1.55-2.45-3.65-16.4 4.9 0.7 1.4 16.7 9.15-13.65 0.75-1.1 4.95-7.3 0.3-0.45v-0.05l6.1-8.75 4.45 0.4-6.65 9.1-0.55 0.3 0.25 0.15-4.75 6.6 2.65 0.1 5.45 7.95 6.55-5.1 2.55 4 0.4 0.6h-2.5v0.35l-9.5 1.15-6.25-8.15q-14.8 20.95-29.15 43.25l-0.35 0.55-0.2 0.35-9.1 14.35-0.3 0.55-0.1 0.1 30.75 1.9-6.15 5.25-0.8-0.35-7.55-1.35-16.65-4.75-0.05 0.05q-18.35 29.5-35.75 61.25 23.7-15.9 50.25-24.7l10.75-13.55q11.6-15.3 23.8-30.1l0.35-0.45 14.3-16.95 1.3-1.45 14.4-16.3 0.25-0.3 5.95-6.5 0.05-0.1 0.3-0.35 0.2-0.2 11.1-11.95 1.55-1.65 0.8-1.15 8.9-6.2-11.45-6.3-4.15-2.3 1.35-5.15 1.65-6.35 0.6 0.3 0.4 9.7 12.05 9 0.1 0.7 7.95-5.55m30.1 4.35-3.55 3.8-19.2-4.4 22.75 0.6m-176.15 179-1.3 1.25-9.75 15.75-1.8 2.95-0.2-0.1v-4.85l1.2-2.15 10.15-15.65 1.3-2.7 0.4 5.5m19.5-137.3-0.7-1.85-2.85-7.5-0.5-1.35 6.95 0.85h0.05l-0.75 15.45-2.2-5.6m17.5-24.5 7.45 1.3v15.4l-0.55 6.75-0.5 1.9-0.6-1.8-5.8-23.55m47.95-12.2 0.5 3.5-6.55-3.5h6.05m3.6 24.95 2.4 2.55-3.8 2.35h-0.05l-5.55 3.4-3.55 2.1-0.05-0.35v0.4l-1 0.6-1.1-1.3-13.05-15.35 17.15 11.65 7.3-5.4 1.3-0.65m-18.7-27.7-7.9-15.25v4l7.85 11.3h0.05l0.2 1.05-2.85-2.1-9.75-9.75 1.4-10.5 9.6 4 1.4 17.25m-18.2 0.4 12.8 8.25h-2.95l-10.55-5.9 0.7-2.35m19.85 50.35 0.45 0.6-4 4.15-25.15-1.1 27.85-3.05 0.8-0.1 0.05-0.5m-85 93q-6.75 12.5-13.3 25.35l69.75-57.35-56.45 32m-14.85 21.6 0.55-1.8-0.25-5.7 10-69.1-20 91.5v3.7l7.3-14.05 0.5-0.95 1.9-3.6" fill="#963" fill-rule="evenodd"/>
<path d="m374.75 130.35-5.75 4.65-9.4-6.55 15.15 1.9m-12.7 10.6-9.55 6.05-17.25-16.75 0.75-0.75 13 10 13.05 1.45m-49.5 13.1 8.6 3.05 1.85 7.9 16.1 7.2-8.7 3.3-1.9 1-15.95-22.45m-13.8-31.1 0.25-1.9v-0.05h1.5l3.15 1.7 2.35 10.8 2.05 2.55 5.15 8.4 0.55 1.25-0.25 0.3-13.6-8.05-2.9-1.5 0.3-2.2 1.35-10.5 0.55-0.45-0.45-0.35m32.25 1.55v0.5l-1.35-1.15-6.15-8.35-0.5-10 1 0.5 7 18.5m18 34.5v0.5h-13.25l-12.1-16.75 3.35 0.15 7.5 10.1 14.5 6m-46.5 10.9 12 0.1 10.5 10.5-0.2 0.5-17.3 1-5-12.1m-13.5-28.9 0.5-5.65 2.5-0.35h2.6l4.05 18.95 0.6 4.75-0.15 3.6-1.3 1.45-5.65-12.9h0.05l3.8-2.35-2.4-2.55-4.6-4.95m24.5-16.05 0.35-3.45 4.15 13.05-4.5-9.6m-30.5 31.45h0.05l3.3 17.25-1.85 4.4-0.2-3-1.85-8.05 0.55-10.6m-2.9 36.2 1.95 0.25 1.05 0.25 10.4 0.9 16.3 6.1-8.8 4.4-20.9-11.9m-58.9 80.6 99.35-26.65-105.55 55.45-5-17.5-0.55-0.6 11.75-10.7" fill="#960" fill-rule="evenodd"/>
<path d="m343.5 88 7 2.5 1 19 0.8 1.35-1.2 0.8-9.8-13.1 7.8 7.85-6.1-10.4 0.5-8m9.3 25.3 19.7-7.3 11 7.5-2.3 2.5-22.75-0.6-6.15-1.65 0.5-0.45m-5.9 5.6 23.1 2.6 7 7q-1.1 0.9-2.25 1.85l-15.15-1.9-11.85-8.25-1.05-1.15 0.2-0.15m-10.05 10.2 18.65 0.9 7.65 10.25-1.1 0.7-13.05-1.45-13-10 0.2-0.15 0.25-0.25h0.4m-15.7 28 8.35 2.9 10 12-0.4 0.2-16.1-7.2-1.85-7.9m10-45.8-0.15 13.2-7-18.5-1-0.5 0.5 10 6.15 8.35-12.65-10.85 2.5-10 7.45 0.95 1.4-0.1-1.35 5.15 4.15 2.3m-0.55-13.5 10.4 4.7 2.05 14-12.05-9-0.4-9.7m-3.6 45.1 12.4 0.6 9.1 8.5 0.5 7-14.5-6-7.5-10.1m-10.4-27.65 3.75 8.9 0.1 1.8-0.75 13.05h-0.05l-10.15-14 6.5-10.5 0.6 0.75m-35.7 40.45 1.1 1.3 1-0.6-0.55 10.6 1.85 8.05 0.2 3-1.05 2.45-1.95-4.4-4.5-6.5-0.45-0.6 0.05-0.55 5.9-7.45-4.55-1.3 2.95-4m32.6-30.75 4.5 9.6-4.15-13.05-0.35 3.45m-3.7 75.15-16.3-6.1-10.4-0.9-1.05-0.25-1.95-0.25-0.65-0.4 13.25-3.1 18.9 10.1-1.8 0.9" fill="#f90" fill-rule="evenodd"/>
<path d="m235.4 259.15 5.8-2.25 2.4-0.65q48.65-13.65 100.2-17.25l0.1 1.05q-63 42.45-131.9 72.95-5.9-5.35-6.7-14.45l-0.05-0.65-0.2-2.9-0.4-5.5-0.1-1.35 4.85-4.2 0.05-0.05 0.55 0.6 5 17.5 105.55-55.45-99.35 26.65 13.6-13.4 0.6-0.65m68.25-136.45 3.35 1.8 6.2 19.95-5.15-8.4-2.05-2.55-2.35-10.8m21.15 58.3-3.3 9-16-5-5.3-13.55-1.1-1.6 3.4 0.05 5 12.1 17.3-1m-32.8-46-0.4-0.6 5.7-0.15-0.3 2.2 2.9 1.5-0.4 4.05v18.7l-0.25-2-0.6-4.75-4.05-18.95h-2.6m-8.95 21.35 3.55-2.1 3.9 9.75-4.15 9.65-3.3-17.25v-0.05" fill="#f93" fill-rule="evenodd"/>
</g>
</defs>
</svg>
