<?xml version="1.0" encoding="UTF-8"?>
<svg version="1.1" viewBox="0 0 46.717 82.187" xmlns="http://www.w3.org/2000/svg" xmlns:cc="http://creativecommons.org/ns#" xmlns:dc="http://purl.org/dc/elements/1.1/" xmlns:rdf="http://www.w3.org/1999/02/22-rdf-syntax-ns#" xmlns:xlink="http://www.w3.org/1999/xlink">
<metadata>
<rdf:RDF>
<cc:Work rdf:about="">
<dc:format>image/svg+xml</dc:format>
<dc:type rdf:resource="http://purl.org/dc/dcmitype/StillImage"/>
</cc:Work>
</rdf:RDF>
</metadata>
<g transform="translate(-256.11 -223.72)">
<use transform="matrix(-1.1465 .1051 0 1.1965 315.8 217.02)" width="62.950001" height="84.400002" xlink:href="#e"/>
</g>
<defs>
<g id="e" transform="translate(29,52.8)">
<use transform="matrix(1.5128 -1.2541 .8755 1.9507 -29.019 -10.722)" width="15.4" height="21.700001" xlink:href="#b"/>
<use transform="matrix(-1.9315 -.5506 -.5935 2.4377 33.939 -34.322)" width="15.4" height="21.700001" xlink:href="#b"/>
<use transform="matrix(1.9308 .0478 -.0795 2.4467 -14.213 -52.806)" width="15.4" height="21.700001" xlink:href="#b"/>
</g>
<g id="b" transform="translate(10.05,18.75)">
<use transform="matrix(.5856 -.1754 .0954 .5223 -10.03 -15.152)" width="20.65" height="34.700001" xlink:href="#d"/>
</g>
<g id="d" transform="translate(14.85,32.85)">
<use transform="matrix(.7 0 0 .7 -14.85 -32.85)" width="29.5" height="49.549999" xlink:href="#c"/>
<use transform="matrix(.6034 -.1914 .1914 .6034 -6.0213 -25.81)" width="3.95" height="5.4499998" xlink:href="#a"/>
<use transform="matrix(.5204 -.3594 .3594 .5204 -3.7961 -20.722)" width="3.95" height="5.4499998" xlink:href="#a"/>
<use transform="matrix(.4447 -.4517 .4517 .4447 -13.232 -12.133)" width="3.95" height="5.4499998" xlink:href="#a"/>
<use transform="matrix(.4447 -.4517 .4517 .4447 -10.082 -13.833)" width="3.95" height="5.4499998" xlink:href="#a"/>
<use transform="matrix(.3659 -.3716 .3716 .3659 -10.244 -8.6451)" width="3.95" height="5.4499998" xlink:href="#a"/>
<use transform="translate(-14.15,-25.55)" width="18.35" height="17.5" xlink:href="#f"/>
<use transform="matrix(-.6696 -.3136 -.3136 .6696 2.853 -26)" width="3.95" height="5.4499998" xlink:href="#a"/>
</g>
<g id="c" transform="translate(.5 .5)">
<use transform="translate(-.5 -.5)" width="29.5" height="49.549999" xlink:href="#h"/>
</g>
<g id="h" transform="translate(.5 .5)">
<path d="m19.85 12.1 0.05 0.05h-0.05v-0.05" fill="url(#i)" fill-rule="evenodd"/>
<path d="m11.55 48.2-0.15-0.05 0.15-0.05v0.1" fill="#471111" fill-rule="evenodd"/>
<path d="m11.4 48.15-0.1-0.05-0.35-0.15-0.9-0.6-0.1-0.05-0.7-1.4-6.3-12.75q-2.95-6.35-2.95-7.95 0-1.4 2.55-3.1l0.8-0.55q3-1.85 4.2-1.85 2.65 0 4.7 6.3l0.2 0.35v-0.35l-0.7-11.5-0.3-4.6-0.2-3.4q0-2.3 3.65-4.5l1.1-0.6q1.55 1.85 2.7 5.25 1.15 3.35 1.15 5.45v0.05l-0.65 6.05 0.3 4-0.3 5.7 1.85 10.6 0.3 4.6q0 0.8 0.45 2.05 0 0.5-2.1 0.5l-1.8-0.5h-0.45q0 1.7-1.3 1.7l-1.65-0.2q-0.7 0-0.75 0.25-0.05 0.45-2.2 1.2l-0.15 0.05m1.2-36.75-1.15-1.5 1.15 1.5m-2.55 17.15 3.4 5.95v1.7l-1.6-2.9 1.6 2.9v-1.7l-3.4-5.95m9.8-16.4q-2.7 1.85-4.95 0.95 2.25 0.9 4.95-0.95m-10.4 25.05-0.75-1.75 0.75 1.75m4-1 4.5 8.2-4.5-8.2m-1.15 7.65-2-4.7 2 4.7" fill="#91680c" fill-rule="evenodd"/>
<path d="m22.4 16.85 0.6 4.15-0.6-4.15m-6.4-15.45q0.95-0.55 1.8-0.85 1.5-0.55 2.75-0.55l0.6 0.1q2.85 1 4.3 11.4l0.7 6.4 0.95 13.15q0.4 6 0.95 7.6 0.85 2.6 0.15 8.95l-0.5 0.15-1.25 0.35-1.25 0.3-1.85 0.35-1.5 0.15-1.35 0.1-1.95 0.05h-0.3l-5.65-0.55-1.05-0.3v-0.1q2.15-0.75 2.2-1.2 0.05-0.25 0.75-0.25l1.65 0.2q1.3 0 1.3-1.7h0.45l1.8 0.5q2.1 0 2.1-0.5-0.45-1.25-0.45-2.05l-0.3-4.6-1.85-10.6 0.3-5.7-0.3-4 0.65-6.05h0.05l-0.05-0.05q0-2.1-1.15-5.45-1.15-3.4-2.7-5.25m6.15 8.7-2.25 2.05 2.25-2.05m0.35 28.7 0.6 4.8-0.6-4.8m-1.75-13.65 0.2 1.4-0.2-1.4m2.7 0.15 0.3 4.1-2.3 1.35 0.5 3.75-0.5-3.75-0.2-1.85 0.2 1.85 2.3-1.35-0.3-4.1" fill="#7b5200" fill-rule="evenodd"/>
<path d="m23 21-0.6-4.15m-2.5-4.7 2.25-2.05m-10.7-0.2 1.15 1.5m7.25 0.75h0.05m-5 0.95q2.25 0.9 4.95-0.95m-8 21.15 1.6 2.9v-1.7l-3.4-5.95m0.25 10.6 2 4.7m5.65 0.55-4.5-8.2m-4.75-0.75 0.75 1.75m12.5-2.7-0.5-3.75-0.2-1.85m0.2 1.85 2.3-1.35-0.3-4.1m-2.5 1.25-0.2-1.4m2.35 18.45-0.6-4.8" fill="none" stroke="#000" stroke-linecap="round" stroke-linejoin="round" stroke-opacity=".2" stroke-width=".3"/>
<path d="m16 1.4q0.95-0.55 1.8-0.85 1.5-0.55 2.75-0.55l0.6 0.1q2.85 1 4.3 11.4l0.7 6.4 0.95 13.15q0.4 6 0.95 7.6 0.85 2.6 0.15 8.95m-16.65 0.6-0.15-0.05-0.1-0.05-0.35-0.15-0.9-0.6-0.1-0.05-0.7-1.4-6.3-12.75q-2.95-6.35-2.95-7.95 0-1.4 2.55-3.1l0.8-0.55q3-1.85 4.2-1.85 2.65 0 4.7 6.3l0.2 0.35v-0.35l-0.7-11.5-0.3-4.6-0.2-3.4q0-2.3 3.65-4.5l1.1-0.6" fill="none" stroke="#000" stroke-linecap="round" stroke-linejoin="round" stroke-opacity=".30196"/>
<path d="m19.8 1.5q1.35 0 1.6 0.85 0.2 0.85-0.85 2-1.05 1.1-2.8 1.9-1.75 0.75-3.15 0.7-1.4-0.1-1.6-0.95t0.85-1.95l1-0.9q0.8-0.6 1.8-1 1.75-0.8 3.1-0.7l0.05 0.05" fill="#7b5200" fill-rule="evenodd"/>
<path d="m19.8 1.5q1.35 0 1.6 0.85 0.2 0.85-0.85 2-1.05 1.1-2.8 1.9-1.75 0.75-3.15 0.7-1.4-0.1-1.6-0.95t0.85-1.95l1-0.9" fill="none" stroke="#000" stroke-linecap="round" stroke-linejoin="round" stroke-opacity=".30196" stroke-width=".5"/>
<path d="m3.2 22.6q0.6-0.45 1.45-0.75 1.4-0.55 2.55-0.4 1.15 0.1 1.4 0.8 0.2 0.7-0.65 1.6-0.8 0.85-2.2 1.4l-2.6 0.45q-1.1-0.1-1.35-0.8-0.25-0.75 0.6-1.6l0.8-0.7" fill="#7b5200" fill-rule="evenodd"/>
<path d="m7.2 21.45q1.15 0.1 1.4 0.8 0.2 0.7-0.65 1.6-0.8 0.85-2.2 1.4l-2.6 0.45q-1.1-0.1-1.35-0.8-0.25-0.75 0.6-1.6l0.8-0.7" fill="none" stroke="#000" stroke-linecap="round" stroke-linejoin="round" stroke-opacity=".30196" stroke-width=".5"/>
</g>
<linearGradient id="i" x1="-819.2" x2="819.2" gradientTransform="matrix(-.0033 -.0239 .0304 -.0042 25.15 24.1)" gradientUnits="userSpaceOnUse">
<stop stop-color="#55364a" offset="0"/>
<stop stop-color="#7b6172" offset="1"/>
</linearGradient>
<g id="a" transform="translate(0 -.15)">
<use transform="translate(0 .15)" width="3.95" height="5.4499998" xlink:href="#g"/>
</g>
<g id="g" transform="translate(0 -.15)">
<path d="m3.6 0.15h-0.05 0.05m-1.4 4.7 0.15-0.1-0.1 0.1h-0.05" fill="#2b1c27" fill-rule="evenodd"/>
<path d="m1.7 5.1 0.5-0.25h0.05l-0.5 0.35-0.05-0.1" fill="#2e577e" fill-rule="evenodd"/>
<path d="m3.55 0.15h0.05q0.45 0.3 0.35 1.25-0.05 1-0.7 2.15l-0.9 1.2-0.15 0.1-0.5 0.25-0.55-0.2q-0.35-0.5-0.3-1.35t0.6-1.75q0.5-0.9 1.2-1.4 0.5-0.3 0.9-0.25" fill="#865d01" fill-rule="evenodd"/>
<path d="m2.65 0.4q-0.7 0.5-1.2 1.4-0.55 0.9-0.6 1.75t0.3 1.35l0.55 0.2 0.05 0.1q-0.8 0.6-1.3 0.3-0.55-0.3-0.45-1.3t0.75-2.1q0.65-1.15 1.45-1.7l0.4-0.25 0.05 0.25" fill="#865d01" fill-rule="evenodd"/>
</g>
<g id="f" transform="translate(14.15,25.55)">
<path d="m3.75-17.75 0.45 3.25q-1.75 1.6-3.8 1.85l-0.4 0.05h-0.3q-0.75 0-2.35-1.1l-0.75-0.45q-1.6-1.05-2.75-1.55v-1.6q0.4 0.75 1.9 1.45 1.45 0.7 2.45 0.7l0.95-0.05 1-0.1q2.6-0.5 3.6-2.45" fill="#985b4b" fill-opacity=".49804" fill-rule="evenodd"/>
<path d="m3-25.55 0.2 5q0 2.45-3.25 3l-1.55 0.2h-0.65q-0.9-0.05-2.7-1.4l-1.25-1.05-0.25-0.2-0.15-3.55q0.3 1 1.4 2.05 1.25 1.2 2.6 1.25h0.25l1.95-0.3q1.5-0.55 2.3-1.95 0.75-1.25 1-3.05h0.1" fill="#9a9149" fill-opacity=".50196" fill-rule="evenodd"/>
<path d="m-8.95-13.45q1.8-0.75 2.25-2.8l2.15 3.3q0.2-0.35 0.45 2.1 0.1 1.55-2.8 2.25l-0.2 0.05-4.1 0.5h-0.2l-2.75-5.35 3.3 0.3 1.9-0.35" fill="#985b4b" fill-opacity=".49804" fill-rule="evenodd"/>
</g>
</defs>
</svg>
