<?xml version="1.0" encoding="UTF-8"?>
<svg version="1.1" viewBox="0 0 97.05 55.752" xmlns="http://www.w3.org/2000/svg" xmlns:cc="http://creativecommons.org/ns#" xmlns:dc="http://purl.org/dc/elements/1.1/" xmlns:rdf="http://www.w3.org/1999/02/22-rdf-syntax-ns#" xmlns:xlink="http://www.w3.org/1999/xlink">
<metadata>
<rdf:RDF>
<cc:Work rdf:about="">
<dc:format>image/svg+xml</dc:format>
<dc:type rdf:resource="http://purl.org/dc/dcmitype/StillImage"/>
</cc:Work>
</rdf:RDF>
</metadata>
<g transform="translate(.375 -57.725)">
<use transform="translate(-.35 57.75)" width="97" height="55.700001" xlink:href="#a"/>
</g>
<defs>
<g id="a" transform="translate(.35 -57.75)">
<path d="m73.85 78.15-0.5 0.1-0.4-0.2-1.65-0.25-2.3-0.3-2.75 2.7-0.55 0.65q-2.8 3.45-3.95 7.05l-0.85 3.5-3.25-1.9-0.1-0.35q0.45-2.85 2.45-5.4l0.3-0.4 0.55-0.7 0.2 0.15h0.1l0.05-0.45-0.05-0.05q2.05-2.4 4.35-4.4l0.2-0.15 2.75-2.1h0.2l0.3-0.05 2.4-0.05 1.8 0.85 0.7 1.75m-18.05 8.35 1.2 0.9 0.1 0.1 0.45 1.6-0.4 0.05-0.25-0.25-1.25-0.35-1.7-0.55-2.25 2.25q-1.95 2.2-3.05 4.6l-0.8 1.95q-1.6 4.85-1.15 8.8l0.05 0.05 0.75 0.65 0.1 0.25-0.15 0.2h-2.3q-0.65-1.2-0.7-2.7l-0.1-2.65q-0.2-1.35-0.1-2.6h0.2l0.05-0.05 0.1-0.15v-0.1l-0.05-0.1v-0.05l-0.2-0.1q0.15-1.5 0.7-2.8 0.55-1.35 1.5-2.6l0.75-0.85 0.15 0.1h0.05l0.1-0.4-0.05-0.05q1.7-2.05 3.65-3.6l0.15-0.15 1.25-0.95 1-0.65 0.15-0.05h0.05l0.6 0.05 1.4 0.2m13.4-10.65v0.15l0.15 0.1 0.05-0.05 0.35-0.05 0.1-0.1v-0.15l-0.05-0.1-0.05-0.05h-0.05q-0.3 0-0.5 0.25m-6.8 5.3h-0.05l-0.05 0.05v0.05l-0.05 0.05 0.05 0.05-0.05 0.15 0.05 0.1 0.25 0.15 0.2-0.1 0.05-0.25-0.1-0.05-0.3-0.2m1.5 0.6-0.15-0.05-0.25 0.1v0.15l0.05 0.05h0.2l0.05 0.05h0.1l0.1-0.2-0.1-0.1m-16.85 11.5v0.35l0.05 0.1 0.1 0.05 0.2-0.2q0.1-0.6-0.35-0.3m2.4-1.75v0.1l0.05 0.05h0.1l0.1 0.05 0.1-0.1v-0.1l-0.05-0.1-0.1-0.1-0.2 0.1v0.1m-0.95-0.7h-0.05l0.05 0.1-0.05 0.1 0.05 0.1 0.2 0.2 0.15-0.1v-0.3q-0.15-0.15-0.3-0.2h-0.05v0.1m-2.55 3.4h-0.05l-0.1 0.1-0.05 0.1 0.1 0.2 0.1 0.05h0.1l0.1-0.1-0.05-0.25-0.1-0.1h-0.05m-0.35 2.25h-0.05l-0.15 0.2-0.05 0.2 0.05 0.1h0.05l0.1 0.15 0.35-0.45-0.2-0.2h-0.1m-0.4 5.4 0.05 0.1 0.2-0.2v-0.05l-0.2-0.3h-0.05l-0.1 0.1v0.3l0.1 0.05m-0.45-1.6 0.05-0.15-0.15-0.15h-0.15l-0.15 0.2q-0.1 0.1 0.05 0.2l0.15 0.1h0.05l0.05-0.05 0.1-0.15m0.4 5.6-0.05 0.25v0.05l0.1 0.05 0.35-0.25v-0.05l-0.05-0.15-0.15-0.05-0.05 0.05q-0.1 0-0.15 0.1m15.5-21.35 0.05 0.05 0.1 0.05 0.25-0.25q0.2-0.6-0.4-0.25v0.4m-1.7 3.9v0.05l0.4-0.5-0.25-0.2-0.1-0.05-0.25 0.25q-0.1 0.1-0.05 0.25l0.1 0.1 0.15 0.1m0.45-3.15-0.1-0.05-0.15 0.15-0.05 0.15 0.1 0.15 0.05 0.05h0.1v0.05l0.1-0.05 0.05-0.05 0.05-0.1-0.05-0.2-0.1-0.1m-5 1.15q-0.15 0-0.25 0.15v0.15l0.1 0.1 0.05-0.05h0.25l0.1-0.1v-0.2l-0.05-0.05h-0.2" fill="#f8f3cb" fill-rule="evenodd"/>
<path d="m74.05 78.55-0.7-0.3 0.5-0.1 0.2 0.4m-5.4-3.95h0.55l2.15 0.95-2.4 0.05-0.3 0.05h-0.2l-2.75 2.1v-0.15q-0.4-0.35-0.9-0.2v0.05h-0.05l-0.05 0.1 0.1 0.1h0.15l0.15 0.05 0.4 0.2q-2.3 2-4.35 4.4h-0.2l-0.15 0.1-0.05 0.15 0.1 0.1-0.55 0.7-0.3 0.4q-2 2.55-2.45 5.4l0.1 0.35-0.5-0.35 0.4-0.05-0.45-1.6 0.25 0.15v0.05h0.1l0.4-0.35-0.05-0.3h-0.05v-0.05q-0.4-0.45-0.75 0.15h0.05q-0.1 0.1-0.05 0.25l-1.2-0.9-1.5-1.05 1.5 1.05-1.4-0.2-0.6-0.05h-0.05l-0.15 0.05-1 0.65-1.25 0.95v-0.15q-0.3-0.35-0.7-0.25h-0.05l-0.05 0.1 0.05 0.1h0.15l0.15 0.1 0.3 0.25q-1.95 1.55-3.65 3.6h-0.2l-0.1 0.05-0.05 0.15 0.05 0.1 0.05 0.05-0.75 0.85q-0.95 1.25-1.5 2.6-0.55 1.3-0.7 2.8l-0.35 0.1v0.3l0.1 0.05 0.15 0.1q-0.1 1.25 0.1 2.6l0.1 2.65q0.05 1.5 0.7 2.7h-0.3l-1.15-1.05-1.15-2.25-1.9-2.9-0.6-2.65 0.15-1.55 0.15-2.45 1.55-4.35 0.05-0.2 0.55-1.45 1.25-0.65 1.25-0.6 0.65-0.85 1.7-0.55 1.6-0.5 0.05-0.05 0.45 0.05 3.4 0.45 1.5-4.4 0.65-1.85 2.9-1.6 0.75-0.95 2-0.85 1.95-0.8 6.05-0.15m-5.8 1h-0.05l-1 0.25v0.1l0.1 0.15 1-0.35v-0.05l-0.05-0.1m-9 9.7-1-0.1 1 0.1 0.35 0.05 0.1 0.1 0.15-0.7h0.05l0.35-0.7h-0.05l-0.05-0.05v-0.05q-0.4-0.05-0.6 0.3l-0.2 0.45-0.1 0.6m3.7 3.85v-0.05 0.05m-1.15-10.2-0.1 0.35 0.1 0.15q-0.1 0.3 0.15 0.55l0.25 0.15 0.4-0.15q0.7-0.5 1.35 0 0.65-0.3 0.95-1l-0.05-0.15q-0.35-0.55-1.05-0.2l-0.35-0.25-0.2-0.1q-0.9-0.2-1.45 0.65m-1.6 1.9v-0.05l-0.15 0.05q-0.2 0.45-0.1 0.9l0.05 0.05h0.05l0.05 0.35 0.05 0.25 0.25 0.25 0.2-0.15h-0.05l-0.1-0.25 0.15-0.65-0.05-0.05-0.2-0.05h-0.15v-0.65m6.95-3.25v-0.05l-0.05-0.05-0.35-0.25-0.1 0.1v0.15h-0.05l-0.1 0.15 0.05 0.05q0.1 0.15 0.3 0.15l0.3-0.25m-5.85 4.8 0.1 0.05v0.05h0.1l0.2 0.05h0.05v0.3l0.3 0.3-0.45 0.9 0.05 0.1h0.05v0.05l0.25 0.35h0.1l0.3-0.15 0.8-1.25q0.2-0.5-0.4-0.4v-0.3l-0.1-0.1-0.2-0.1 0.2-0.5-0.1-0.25q-0.5-0.6-1 0.15l-0.05 0.2-0.2 0.45v0.1m4.85-3.3v0.1l0.05 0.1 1.8-0.4v-0.2q-1-0.1-1.85 0.4m1.1 1.2-0.15-0.2q-0.25-0.35-0.6-0.15h-0.05l-0.15 0.2-0.05 0.05v0.35l0.25 0.3 0.1 0.05 0.65-0.6m-2.85 1.5h-0.05l-0.35 0.45-0.05 0.2v0.05h0.05l0.1 0.1 0.25-0.05 0.65-0.55-0.1-0.05-0.25-0.2h-0.2l-0.05 0.05m4.45-2.85 0.05 0.05h0.2l0.1-0.1-0.05-0.1-0.2-0.15-0.1 0.05v0.25m1.6-3.55v0.05l-0.25 0.15-0.05 0.15 0.05 0.05 0.15 0.2h0.3l0.1-0.15v-0.05l-0.05-0.2-0.25-0.2m-15.9 10.2-0.05-0.05-0.8 0.1v0.1l0.1 0.15 0.75-0.2 0.05-0.05-0.05-0.05m-1.85 3.1v0.05l0.05 0.05 1.5-0.2v-0.1l-0.05-0.05-1.5 0.15v0.1m0.5-1.7-0.05 0.05v0.15l-0.1 0.1v0.1l0.3 0.1 0.2-0.15v-0.15l-0.3-0.25-0.05 0.05m3.15-1.35h-0.05l-0.2 0.2v0.15l0.1 0.2 0.1 0.05 0.1-0.05h0.05l0.1-0.1-0.05-0.25-0.15-0.2m-1.45 2.9v0.25h0.05l0.15 0.05 0.1-0.1v-0.05l-0.2-0.2-0.1 0.05m-2.05 18.2 0.15-0.2-0.1-0.25 0.55 0.45h-0.6m-4.05-16.2-0.05 0.2-0.2 0.35 0.05 0.15 0.15 0.15h0.15l0.05 0.05v0.3l0.1 0.1 0.1 0.15q-0.25 0.35-0.35 0.85l0.05 0.05v0.1h0.05l0.2 0.3 0.05 0.05 0.25-0.1 0.7-1.1q0.15-0.5-0.35-0.45l0.05-0.2v-0.05l-0.1-0.1-0.15-0.1v-0.05l0.2-0.45-0.1-0.2q-0.45-0.6-0.85 0m2.45 0.4-0.05 0.05h-0.05l-0.3 0.4-0.05 0.15 0.1 0.1v0.05h0.2l0.55-0.45-0.05-0.05-0.2-0.25h-0.15m1.55-1.35v0.4l0.1 0.25 0.1 0.1q0.45 0 0.55-0.5l-0.1-0.2q-0.15-0.35-0.45-0.2l-0.1 0.05-0.1 0.1m-2.3-1.95-0.2-0.1q-0.75-0.35-1.2 0.45l-0.1 0.35 0.05 0.15 0.05 0.45 0.05 0.05 0.2 0.25 0.35-0.15q0.6-0.4 1.15 0.15 0.6-0.2 0.8-0.85v-0.15q-0.3-0.6-0.85-0.3l-0.3-0.3m0.4 4.95-0.05 0.3 0.05 0.15v0.1l-0.05 0.05 0.05 0.05 0.25 0.05 0.1-0.05 0.3-0.3v-0.2q-0.25-0.7-0.65-0.15m-3.25-2.95h-0.1q-0.2 0.35-0.1 0.85v0.05h0.05l0.05 0.35q-0.05 0.1 0.05 0.2l0.2 0.3 0.15-0.1-0.1-0.3 0.15-0.6-0.05-0.05-0.15-0.1-0.15 0.05v-0.65m-0.1 3v-0.05q-0.35-0.05-0.55 0.25l-0.15 0.4q-0.3 1.3 0.05 2.7l0.05 0.15 0.05 0.1v0.05l0.1 0.05h0.05v0.05h0.05l0.1-0.35v-0.1l-0.1-1.25q-0.1-0.7 0.1-1.3v-0.05h0.05l0.3-0.55-0.1-0.1m0 7.35v0.15l0.05 0.05 0.3 0.25h0.1l0.1-0.15-0.1-0.05-0.25-0.25h-0.2m0.1-2.55q-0.1-0.3-0.3-0.25h-0.05l-0.3 0.3-0.1 0.2q-0.1 0.35 0.15 0.7l0.1-0.05 0.55-0.55-0.05-0.35m2.25-1.9-0.35 0.05-0.15 0.2v0.3l0.25 0.15 0.1 0.1 0.3-0.3h0.05l-0.05-0.3v-0.05l-0.15-0.15m-1.6 1.15-0.05 0.1q-0.15 0.3-0.15 0.7l0.05 0.15 0.2 0.15h0.05l0.05-0.05q0.5-0.55 0.05-1.05l-0.05-0.05-0.05 0.05h-0.1m0.15 2.75-0.1 0.05-0.05 0.1 0.05 0.05 0.45 0.4 0.1-0.1-0.05-0.1-0.4-0.4m0.6 3.9-0.05 0.2h0.05l0.25 0.3 0.2-0.15-0.35-0.35h-0.1m-0.75-1.25-0.05 0.2 0.05 0.1 0.25 0.2h0.15l0.1-0.15v-0.05q-0.15-0.4-0.5-0.3m1.15-0.6h-0.15l-0.1-0.05-0.35-0.35-0.1 0.05-0.05 0.15 0.1 0.05 0.45 0.45 0.25-0.15v-0.05l-0.05-0.1m15.45-17.8v-0.05q-0.25-0.7-0.8-0.1v0.45l0.05 0.05-0.05 0.05v0.1l0.05 0.05h0.45l0.3-0.4v-0.15" fill="#ccd1a9" fill-rule="evenodd"/>
<path d="m73.35 78.25 0.7 0.3q6.7 2.05 12.9 6.05 4.35 4.35 7 9.7l-0.2 2.75-0.8 0.15-0.35-0.65-0.1-0.2-0.1-0.35 0.1-0.8-0.1-0.45q-0.4-1.05-1.6-1.85l-1.15-0.2-1.1-0.9-1.1 1.35-1.25-0.05q-1.1-0.95-1.3-2.35-1.6-1.9-3.75-3.4-5.1-1.5-9.65-4.8l-1.8-0.15-1.15-1.1 0.05-0.7 1.15-1.55 0.4-0.4 1.15-0.85 1.65 0.25 0.4 0.2m-10.25 14.75q1.6 1.2 3.1 2.7 2.45 3.75 3.75 8.05l-0.1 0.85-0.2 1.3-0.55 0.05-0.1-0.5-0.1-0.4 0.1-0.65-0.05-0.3v-0.05q-0.15-0.85-0.8-1.5l-0.75-0.15-0.65-0.8-0.8 1.05-0.8-0.1q-0.55-0.7-0.65-1.6l-0.05-0.35-1.85-2.5-0.45-0.5-1.55-0.8-2.75-1.85-2.3-2.15-1.35-0.25-0.8-1.1 0.05-0.65 0.65-0.95 0.65-0.65 0.2-0.15 0.7-0.5 1.25 0.35 0.25 0.25 0.5 0.35 3.25 1.9 2.2 1.6" fill="#d9d37f" fill-rule="evenodd"/>
<path d="m71.3 77.8-1.15 0.85-0.4 0.4-1.15 1.55-0.05 0.7 1.15 1.1 1.8 0.15q4.55 3.3 9.65 4.8 2.15 1.5 3.75 3.4 0.2 1.4 1.3 2.35l1.25 0.05 1.1-1.35 1.1 0.9 1.15 0.2q1.2 0.8 1.6 1.85l0.1 0.45-0.1 0.8 0.1 0.35 0.1 0.2 0.35 0.65 0.8-0.15v0.5l-1.25-0.3 0.1-0.7-0.1 0.7-6.8 2.9-15.4-4.4-6.95-5.65-0.25 2.9-2.2-1.6 0.85-3.5q1.15-3.6 3.95-7.05l0.55-0.65 2.75-2.7 2.3 0.3m-23.8 28.5-0.75-0.65-0.05-0.05q-0.45-3.95 1.15-8.8l0.8-1.95q1.1-2.4 3.05-4.6l2.25-2.25 1.7 0.55-0.7 0.5-0.2 0.15-0.65 0.65-0.65 0.95-0.05 0.65 0.8 1.1 1.35 0.25 2.3 2.15 2.75 1.85 1.55 0.8 0.45 0.5 1.85 2.5 0.05 0.35q0.1 0.9 0.65 1.6l0.8 0.1 0.8-1.05 0.65 0.8 0.75 0.15q0.65 0.65 0.8 1.5v0.05l0.05 0.3-0.1 0.65 0.1 0.4-0.15 0.5 0.15-0.5 0.1 0.5 0.55-0.05-0.05 0.35-0.75-0.3-4.45 2.1-10.35-3.95-5.05-5.2-0.95 7.85-0.55-0.45" fill="#f1e5a9" fill-rule="evenodd"/>
<path d="m92.5 97.25-0.65 3.2 1.4-0.45-1.05 2.2q-1.8 1.9-4.6 3.7-3.3 1.4-5.65 1.35l-5.85-0.55q-3.45-0.5-6.05-1.95l-0.1-0.1-0.1-0.05 0.1-0.85q-1.3-4.3-3.75-8.05-1.5-1.5-3.1-2.7l0.25-2.9 6.95 5.65 15.4 4.4 6.8-2.9m-0.8 4.05 0.15-0.85-0.15 0.85m-43.65 5.45 0.95-7.85 5.05 5.2 10.35 3.95 4.45-2.1-0.65 2.45 0.95-0.3-0.3 0.7-0.55 0.9-3.05 2.75q-2.25 1.05-3.75 1l-3.9-0.45q-2.35-0.4-4.1-1.6l-0.1-0.05q-2.95-2.05-5.35-4.6m20 2.3 0.15-0.65-0.15 0.65" fill="#cecf89" fill-rule="evenodd"/>
<path d="m91.85 100.45 0.65-3.2 2.5 0.6 1.65-0.3-1.95 2-1.45 0.45-1.4 0.45m-22.7 7.65-0.95 0.3 0.65-2.45 0.75 0.3 0.75 0.25 1-0.2-1.3 1.45-0.9 0.35" fill="#ece1d2" fill-rule="evenodd"/>
<path d="m62.8 66.7 2.15-3.65 1.75-4.6 1.7-0.7-1.35 4.6-2.65 5.4-1.5 2.95-1.05 2.15-5.15 4 1.2-1.95 2.2-3.7 2.7-4.5m-16.9 17.25-0.7-1.55 5.7-2.15 2.45 0.4-1.1 2.6-2.8 1.5-0.45-0.05-0.05 0.05-1.3-0.15 0.25-0.65h-1.05l-2.85 2.1 1.25-2.1h0.65m-8.4 9-3.05-0.75-0.55-1.3-0.3-0.75 5.25-1.5 2.15 0.65-1 2.4-2.5 1.25" fill="#f2f0b7" fill-rule="evenodd"/>
<path d="m64.4 67.75 2.05 2.3-3.55 0.65 1.5-2.95m4.05 6.3 0.2 0.55-6.05 0.15-1.95 0.8 0.4-0.9 7.4-0.6m-60.7-3.9q26.35 1.8 52.1-4.4 1.55 0.25 2.95 0.95l-2.7 4.5-33.25 6.05 31.05-2.35-1.2 1.95-0.25 1.3-1.45 0.8-0.65 1.85-1-0.15-2.45-0.4-5.7 2.15 0.7 1.55h-0.65l-1.25 2.1-0.25 1.2-1.25 0.65-0.55 1.45-0.4 0.1-0.55-0.15-2.15-0.65-5.25 1.5 0.3 0.75q-9.1 1.45-18.7 1.55l0.3-4.7 27.85-5.45-28.05 0.75q-0.55-4.4-2.1-7.85-2.25-5.05-5.45-5.05m53 8.95h0.05l-0.05 0.1v-0.1m-13.4 6.15 0.3-0.65 1.3 0.15-1.6 0.5m-43.7 2.3q0-2.6 0.85-4.45 0.9-1.8 2.15-1.8t2.1 1.8q0.9 1.85 0.9 4.45t-0.9 4.4q-0.85 1.85-2.1 1.85t-2.15-1.85q-0.85-1.8-0.85-4.4" fill="#c08202" fill-rule="evenodd"/>
<path d="m65.7 77.75-0.2 0.15-0.4-0.2-0.15-0.05h-0.15l-0.1-0.1 0.05-0.1h0.05v-0.05q0.5-0.15 0.9 0.2v0.15m-4.55 4.55 0.05 0.05-0.05 0.45h-0.1l-0.2-0.15-0.1-0.1 0.05-0.15 0.15-0.1h0.2m1.7-6.7 0.05 0.1v0.05l-1 0.35-0.1-0.15v-0.1l1-0.25h0.05m-9 9.7 0.1-0.6 0.2-0.45q0.2-0.35 0.6-0.3v0.05l0.05 0.05h0.05l-0.35 0.7h-0.05l-0.15 0.7-0.1-0.1-0.35-0.05m3.15 2.1q-0.05-0.15 0.05-0.25h-0.05q0.35-0.6 0.75-0.15v0.05h0.05l0.05 0.3-0.4 0.35h-0.1v-0.05l-0.25-0.15-0.1-0.1m-0.6-8.45q0.55-0.85 1.45-0.65l0.2 0.1 0.35 0.25q0.7-0.35 1.05 0.2l0.05 0.15q-0.3 0.7-0.95 1-0.65-0.5-1.35 0l-0.4 0.15-0.25-0.15q-0.25-0.25-0.15-0.55l-0.1-0.15 0.1-0.35m-1.6 1.9v0.65h0.15l0.2 0.05 0.05 0.05-0.15 0.65 0.1 0.25h0.05l-0.2 0.15-0.25-0.25-0.05-0.25-0.05-0.35h-0.05l-0.05-0.05q-0.1-0.45 0.1-0.9l0.15-0.05v0.05m1.1 1.55v-0.1l0.2-0.45 0.05-0.2q0.5-0.75 1-0.15l0.1 0.25-0.2 0.5 0.2 0.1 0.1 0.1v0.3q0.6-0.1 0.4 0.4l-0.8 1.25-0.3 0.15h-0.1l-0.25-0.35v-0.05h-0.05l-0.05-0.1 0.45-0.9-0.3-0.3v-0.3h-0.05l-0.2-0.05h-0.1v-0.05l-0.1-0.05m5.85-4.8-0.3 0.25q-0.2 0-0.3-0.15l-0.05-0.05 0.1-0.15h0.05v-0.15l0.1-0.1 0.35 0.25 0.05 0.05v0.05m-1 1.6 0.05-0.1h-0.05q0.85-0.5 1.85-0.4v0.2l-1.8 0.4-0.05-0.1m-1.75 2.6 0.05-0.05h0.2l0.25 0.2 0.1 0.05-0.65 0.55-0.25 0.05-0.1-0.1h-0.05v-0.05l0.05-0.2 0.35-0.45h0.05m2.85-1.5-0.65 0.6-0.1-0.05-0.25-0.3v-0.35l0.05-0.05 0.15-0.2h0.05q0.35-0.2 0.6 0.15l0.15 0.2m0.55 0.85 0.3 0.2 0.1 0.05-0.05 0.25-0.2 0.1-0.25-0.15-0.05-0.1 0.05-0.15-0.05-0.05 0.05-0.05v-0.05l0.05-0.05h0.05m6.8-5.3q0.2-0.25 0.5-0.25h0.05l0.05 0.05 0.05 0.1v0.15l-0.1 0.1-0.35 0.05-0.05 0.05-0.15-0.1v-0.15m-4.15-0.45 0.25 0.2 0.05 0.2v0.05l-0.1 0.15h-0.3l-0.15-0.2-0.05-0.05 0.05-0.15 0.25-0.15v-0.05m-1.6 3.55v-0.25l0.1-0.05 0.2 0.15 0.05 0.1-0.1 0.1h-0.2l-0.05-0.05m0.45 2.8 0.1 0.1-0.1 0.2h-0.1l-0.05-0.05h-0.2l-0.05-0.05v-0.15l0.25-0.1 0.15 0.05m-14.75 3.85 0.05 0.05-0.05 0.05-0.75 0.2-0.1-0.15v-0.1l0.8-0.1 0.05 0.05m-1.35 1.4 0.05-0.05 0.3 0.25v0.15l-0.2 0.15-0.3-0.1v-0.1l0.1-0.1v-0.15l0.05-0.05m-0.5 1.6 1.5-0.15 0.05 0.05v0.1l-1.5 0.2-0.05-0.05v-0.05l0.05-0.1h-0.05m2.2-0.05 0.1-0.05 0.2 0.2v0.05l-0.1 0.1-0.15-0.05h-0.05v-0.25m1.45-2.9 0.15 0.2 0.05 0.25-0.1 0.1h-0.05l-0.1 0.05-0.1-0.05-0.1-0.2v-0.15l0.2-0.2h0.05m0.25 2.4-0.3-0.25-0.15-0.1h-0.15l-0.05-0.1 0.05-0.1h0.05q0.4-0.1 0.7 0.25v0.15l-0.15 0.15m-3.65 3.6 0.05 0.05-0.1 0.4h-0.05l-0.15-0.1-0.05-0.05-0.05-0.1 0.05-0.15 0.1-0.05h0.2m-3.2 6.6 0.2 0.1v0.05l0.05 0.1v0.1l-0.1 0.15-0.05 0.05h-0.2l-0.15-0.1-0.1-0.05v-0.3l0.35-0.1m0.75-10.6 0.3 0.3q0.55-0.3 0.85 0.3v0.15q-0.2 0.65-0.8 0.85-0.55-0.55-1.15-0.15l-0.35 0.15-0.2-0.25-0.05-0.05-0.05-0.45-0.05-0.15 0.1-0.35q0.45-0.8 1.2-0.45l0.2 0.1m2.3 1.95 0.1-0.1 0.1-0.05q0.3-0.15 0.45 0.2l0.1 0.2q-0.1 0.5-0.55 0.5l-0.1-0.1-0.1-0.25v-0.4m-1.55 1.35h0.15l0.2 0.25 0.05 0.05-0.55 0.45h-0.2v-0.05l-0.1-0.1 0.05-0.15 0.3-0.4h0.05l0.05-0.05m-2.45-0.4q0.4-0.6 0.85 0l0.1 0.2-0.2 0.45v0.05l0.15 0.1 0.1 0.1v0.05l-0.05 0.2q0.5-0.05 0.35 0.45l-0.7 1.1-0.25 0.1-0.05-0.05-0.2-0.3h-0.05v-0.1l-0.05-0.05q0.1-0.5 0.35-0.85l-0.1-0.15-0.1-0.1v-0.3l-0.05-0.05h-0.15l-0.15-0.15-0.05-0.15 0.2-0.35 0.05-0.2m3.65 2.7q0.45-0.3 0.35 0.3l-0.2 0.2-0.1-0.05-0.05-0.1v-0.35m-1.55-0.65q0.4-0.55 0.65 0.15v0.2l-0.3 0.3-0.1 0.05-0.25-0.05-0.05-0.05 0.05-0.05v-0.1l-0.05-0.15 0.05-0.3m0.45 1.6h0.05l0.1 0.1 0.05 0.25-0.1 0.1h-0.1l-0.1-0.05-0.1-0.2 0.05-0.1 0.1-0.1h0.05m2.55-3.4v-0.1h0.05q0.15 0.05 0.3 0.2v0.3l-0.15 0.1-0.2-0.2-0.05-0.1 0.05-0.1-0.05-0.1h0.05m0.95 0.7v-0.1l0.2-0.1 0.1 0.1 0.05 0.1v0.1l-0.1 0.1-0.1-0.05h-0.1l-0.05-0.05v-0.1m-7.2-1.85v0.65l0.15-0.05 0.15 0.1 0.05 0.05-0.15 0.6 0.1 0.3-0.15 0.1-0.2-0.3q-0.1-0.1-0.05-0.2l-0.05-0.35h-0.05v-0.05q-0.1-0.5 0.1-0.85h0.1m-0.1 3 0.1 0.1-0.3 0.55h-0.05v0.05q-0.2 0.6-0.1 1.3l0.1 1.25v0.1l-0.1 0.35h-0.05v-0.05h-0.05l-0.1-0.05v-0.05l-0.05-0.1-0.05-0.15q-0.35-1.4-0.05-2.7l0.15-0.4q0.2-0.3 0.55-0.25v0.05m-0.6 2.3-0.05 0.05h0.05v-0.05m0.15 2.95h0.05-0.05m0.55-0.45 0.05 0.35-0.55 0.55-0.1 0.05q-0.25-0.35-0.15-0.7l0.1-0.2 0.3-0.3h0.05q0.2-0.05 0.3 0.25m-0.1 2.55h0.2l0.25 0.25 0.1 0.05-0.1 0.15h-0.1l-0.3-0.25-0.05-0.05v-0.15m3.45-3.55h0.1l0.2 0.2-0.35 0.45-0.1-0.15h-0.05l-0.05-0.1 0.05-0.2 0.15-0.2h0.05m-1.45-0.85 0.35-0.05 0.15 0.15v0.05l0.05 0.3h-0.05l-0.3 0.3-0.1-0.1-0.25-0.15v-0.3l0.15-0.2m-1.25 1.1h0.1l0.05-0.05 0.05 0.05q0.45 0.5-0.05 1.05l-0.05 0.05h-0.05l-0.2-0.15-0.05-0.15q0-0.4 0.15-0.7l0.05-0.1m0.05 0.75h0.05l-0.05-0.05v0.05m1.35 1.05h-0.05 0.05m-1.25 0.95 0.4 0.4 0.05 0.1-0.1 0.1-0.45-0.4-0.05-0.05 0.05-0.1 0.1-0.05m1.7 0.8-0.1 0.15-0.05 0.05h-0.05l-0.15-0.1q-0.15-0.1-0.05-0.2l0.15-0.2h0.15l0.15 0.15-0.05 0.15m0.45 1.6-0.1-0.05v-0.3l0.1-0.1h0.05l0.2 0.3v0.05l-0.2 0.2-0.05-0.1m-1.15-0.35 0.05 0.1v0.05l-0.25 0.15-0.45-0.45-0.1-0.05 0.05-0.15 0.1-0.05 0.35 0.35 0.1 0.05h0.15m-1.15 0.6q0.35-0.1 0.5 0.3v0.05l-0.1 0.15h-0.15l-0.25-0.2-0.05-0.1 0.05-0.2m0.75 1.25h0.1l0.35 0.35-0.2 0.15-0.25-0.3h-0.05l0.05-0.2m1.5 2.5q0.05-0.1 0.15-0.1l0.05-0.05 0.15 0.05 0.05 0.15v0.05l-0.35 0.25-0.1-0.05v-0.05l0.05-0.25m15.5-21.35v-0.4q0.6-0.35 0.4 0.25l-0.25 0.25-0.1-0.05-0.05-0.05m-1.15-0.8v0.15l-0.3 0.4h-0.45l-0.05-0.05v-0.1l0.05-0.05-0.05-0.05v-0.45q0.55-0.6 0.8 0.1v0.05m-0.1 1.55 0.1 0.1 0.05 0.2-0.05 0.1-0.05 0.05-0.1 0.05v-0.05h-0.1l-0.05-0.05-0.1-0.15 0.05-0.15 0.15-0.15 0.1 0.05m-0.45 3.15-0.15-0.1-0.1-0.1q-0.05-0.15 0.05-0.25l0.25-0.25 0.1 0.05 0.25 0.2-0.4 0.5v-0.05m-4.55-2h0.2l0.05 0.05v0.2l-0.1 0.1h-0.25l-0.05 0.05-0.1-0.1v-0.15q0.1-0.15 0.25-0.15" fill="#600" fill-rule="evenodd"/>
<path d="m56.7 76.85 5.15-4-1.2 2.7-2 0.85-0.75 0.95-1.45 0.8 0.25-1.3m-2.35 3.95-1.5 4.4-3.4-0.45 2.8-1.5 1.1-2.6 1 0.15m-6.7 3.8-0.3 0.65-1.7 0.55-0.65 0.85-1.25 0.6 0.25-1.2 2.85-2.1h1.05l-0.25 0.65m-7.3 9.3-2.25-0.85-0.6-0.1 2.5-1.25 1-2.4 0.55 0.15 0.35 0.1-1.55 4.35" fill="#bac78f" fill-rule="evenodd"/>
<path d="m66.45 70.05q1.15 1.7 2 4l-7.4 0.6 0.8-1.8 1.05-2.15 3.55-0.65m-6.35 1.15-2.2 3.7-31.05 2.35 33.25-6.05m-12.8 17.5v-0.1h0.05l-0.05 0.1m-13.4 2.2 0.55 1.3 3.05 0.75 0.6 0.1 2.25 0.85-0.15 2.45q-15.3 2.95-30.5 7.8l-2.35 0.5q-2.95-0.3-5.1-5.05-2.25-5.05-2.25-12.2t2.25-12.2q2.2-4.85 5.25-5.05h0.25q3.2 0 5.45 5.05 1.55 3.45 2.1 7.85l28.05-0.75-27.85 5.45-0.3 4.7q9.6-0.1 18.7-1.55m8-1.35-0.35-0.1 0.4-0.1-0.05 0.2m-0.35 5.4v0.05h-0.05l0.05-0.05m-30.9-15.95q-1.5-3.5-3.65-3.5t-3.7 3.5q-1.5 3.5-1.5 8.45t1.5 8.45q1.55 3.5 3.7 3.5t3.65-3.5q1.55-3.5 1.55-8.45t-1.55-8.45q1.55 3.5 1.55 8.45t-1.55 8.45q-1.5 3.5-3.65 3.5t-3.7-3.5q-1.5-3.5-1.5-8.45t1.5-8.45q1.55-3.5 3.7-3.5t3.65 3.5m-7 8.55q0 2.6 0.85 4.4 0.9 1.85 2.15 1.85t2.1-1.85q0.9-1.8 0.9-4.4t-0.9-4.45q-0.85-1.8-2.1-1.8t-2.15 1.8q-0.85 1.85-0.85 4.45" fill="#523701" fill-rule="evenodd"/>
<path d="m7.35 104.65 2.35-0.5-1.95 0.5h-0.4" fill="#164936" fill-rule="evenodd"/>
<path d="m73.35 78.25 0.7 0.3-0.2-0.4m-0.5 0.1-0.4-0.2-1.65-0.25m21.2 18.55 0.1 0.2m1.15 0.5 0.2-2.75q-2.65-5.35-7-9.7-6.2-4-12.9-6.05m-2.7-3 1.8 0.85 0.7 1.75m18.65 19.1 0.1-0.7m-0.75 3.9 0.65-3.2m-29.4-4.25q1.6 1.2 3.1 2.7 2.45 3.75 3.75 8.05l-0.1 0.85 0.1 0.05 0.1 0.1q2.6 1.45 6.05 1.95l5.85 0.55q2.35 0.05 5.65-1.35 2.8-1.8 4.6-3.7l1.05-2.2-1.4 0.45-0.15 0.85m2.05-3.75 1.25 0.3 1.65-0.3-1.95 2-1.45 0.45m0.5-2.95v0.5l-1.25-0.3m-29.7-30.55 2.15-3.65 1.75-4.6 1.7-0.7-1.35 4.6-2.65 5.4m4.25 6.85h0.55l2.15 0.95m-13.8 13.6 0.1 0.35 3.25 1.9 0.85-3.5q1.15-3.6 3.95-7.05l0.55-0.65 2.75-2.7 2.3 0.3m-8.5-11.1-2.7 4.5-2.2 3.7-1.2 1.95 5.15-4 1.05-2.15 1.5-2.95m-3.75 7.8 1.95-0.8 6.05-0.15m-7.6 0.05-0.4 0.9-2 0.85-0.75 0.95-2.9 1.6-0.65 1.85-1.5 4.4 1 0.1m0.45 0.15 1.5 1.05 1.2 0.9m0.1 0.1 0.45 1.6v0.05m4.3-16.3-0.8 1.8m-4.6 3.5 0.25-1.3m-3.35 3.8 1 0.15m-8.45 3.15-0.7-1.55 5.7-2.15 2.45 0.4-1.1 2.6-2.8 1.5 3.4 0.45m-3.9-0.45 0.05-0.05 0.45 0.05m-4.3 22h2.3m0.05-0.45-0.75-0.65-0.05-0.05q-0.45-3.95 1.15-8.8l0.8-1.95q1.1-2.4 3.05-4.6l2.25-2.25 1.7 0.55 1.25 0.35 0.25 0.25 0.5 0.35m-10-4.9-0.3 0.65 1.6-0.5-1.3-0.15 0.25-0.65m-1.05 0-2.85 2.1-0.25 1.2 1.25-0.6 0.65-0.85 1.7-0.55m-2.1-1.3-1.25 2.1m-6.5 6.9-3.05-0.75-0.55-1.3m6.3 5.45 0.15-2.45-2.25-0.85-0.6-0.1 2.5-1.25 1-2.4-2.15-0.65-5.25 1.5 0.3 0.75m7.65-1.45 0.35 0.1 0.05-0.2m-0.4 0.1-0.55-0.15m0.9 0.25-1.55 4.35m3.4-6.65-1.25 0.65-0.55 1.45m3.2 17.4h-0.3l-1.15-1.05-1.15-2.25-1.9-2.9-0.6-2.65 0.15-1.55m28.65 9.6 0.15-0.5-0.05-0.2m-21.45 1.05 0.55 0.45q2.4 2.55 5.35 4.6l0.1 0.05q1.75 1.2 4.1 1.6l3.9 0.45q1.5 0.05 3.75-1l3.05-2.75 0.55-0.9 0.3-0.7-0.95 0.3-0.15 0.65m-20-2.3h-0.6m6.85-21.3-0.1-0.1-0.35-0.05m3.25 2.2-0.1-0.1m12.65 18.5-0.05 0.35 0.75 0.25 1-0.2-1.3 1.45-0.9 0.35m0.5-2.2 0.2-1.3m-1 1.35 0.75 0.3m-8.7-14.85 2.2 1.6m5.1 15.4 0.65-2.45" fill="none" stroke="#000" stroke-linecap="round" stroke-linejoin="round" stroke-opacity=".50196" stroke-width=".05"/>
<path d="m64.4 67.75 2.05 2.3q1.15 1.7 2 4l0.2 0.55m-60.9-4.45q26.35 1.8 52.1-4.4 1.55 0.25 2.95 0.95m-55.05 3.45h-0.25q-3.05 0.2-5.25 5.05-2.25 5.05-2.25 12.2t2.25 12.2q2.15 4.75 5.1 5.05l2.35-0.5q15.2-4.85 30.5-7.8m4.3-0.8-0.35 0.05" fill="none" stroke="#220d0d" stroke-linecap="round" stroke-linejoin="round" stroke-width=".75"/>
<path d="m10.65 79q1.55 3.5 1.55 8.45t-1.55 8.45q-1.5 3.5-3.65 3.5t-3.7-3.5q-1.5-3.5-1.5-8.45t1.5-8.45q1.55-3.5 3.7-3.5t3.65 3.5" fill="none" stroke="#c08202" stroke-linecap="round" stroke-linejoin="round" stroke-width=".75"/>
</g>
</defs>
</svg>
