<?xml version="1.0" encoding="UTF-8"?>
<svg version="1.1" viewBox="0 0 29.625 30.913" xmlns="http://www.w3.org/2000/svg" xmlns:cc="http://creativecommons.org/ns#" xmlns:dc="http://purl.org/dc/elements/1.1/" xmlns:rdf="http://www.w3.org/1999/02/22-rdf-syntax-ns#" xmlns:xlink="http://www.w3.org/1999/xlink">
<metadata>
<rdf:RDF>
<cc:Work rdf:about="">
<dc:format>image/svg+xml</dc:format>
<dc:type rdf:resource="http://purl.org/dc/dcmitype/StillImage"/>
</cc:Work>
</rdf:RDF>
</metadata>
<g transform="translate(-230.08 -192.41)">
<use transform="translate(230.1,192.45)" width="27.549999" height="30.85" xlink:href="#c"/>
<use transform="matrix(.5968 0 0 .5968 241.05 195.7)" width="31.25" height="30.25" xlink:href="#a"/>
</g>
<defs>
<g id="c" transform="translate(-230.1,-192.45)">
<path d="m241.2 205.6 0.6-1 4.9-7.9 0.75-1.2 0.25 1.2 0.6 1.3-6.85 8.8-0.2 0.25h-0.05 0.05l-0.05 0.05v-0.05l0.15-1.15-0.15-0.3" fill="#9c863d" fill-rule="evenodd"/>
<path d="m241.2 205.6 0.15 0.3-0.25-0.15 0.1-0.15m7.1-7.6-0.6-1.3-0.25-1.2q-1.15-2.45 1.15-2.2l0.1 0.05h0.05l0.4 2.4q0.05 0.9 1.45 2.1 1.35 1.2 2.25 1.3h0.25q-0.85 1.1-1 1.65-2.65-0.9-3.8-2.8m-3.8 12.1h-0.05v-0.05h0.05l-0.05 0.05 0.05-0.05v0.05" fill="#948534" fill-rule="evenodd"/>
<path d="m256.85 199.25-0.05 0.05 0.05-0.05m-8.15-5.9v-0.05l0.05 0.05h-0.05" fill="#a0833f" fill-rule="evenodd"/>
<path d="m241.35 205.9-0.15 1.15-1.25 0.55q-2.4-0.6-5.65 2.35l-4.1 5.05 3.4-6.2q4.2-3 7.45-3.15l0.05 0.1 0.25 0.15m7.35-12.6 1.75-0.65q3.45-0.65 6.1 2.4 1.85 2.65 0.3 4.2l-3.75-0.1v-0.05h-0.2l-0.05 0.05q-0.9-0.1-2.25-1.3-1.4-1.2-1.45-2.1l-0.4-2.4-0.05-0.05m-4.4 16.85q-2 3.85-4.7 6.55l-0.3 6.15-0.75-6.6 2.65-3.9 1.6-3.1q0.55 1.15 1.5 0.9m12.2-13.3q-2.05-3.75-5.9-3.15 3.85-0.6 5.9 3.15m-1 1.8q-3.25-0.15-4.8-2 1.55 1.85 4.8 2" fill="#b9974a" fill-rule="evenodd"/>
<path d="m256.8 199.3-7.7 10.6-0.65 0.95-0.2 0.1-0.5 0.3-0.65 0.45-0.1 0.05-1.35-0.9-1.15-0.75 0.7-0.45 0.6-0.45 0.45 0.3 0.35 0.25-0.1-0.65 0.1-1 5.5-7.3q0.15-0.55 1-1.65l3.75 0.1-0.05 0.05m-11.15 11.55 0.6-1.35-0.6 1.35m2-0.15-0.55 1 0.55-1" fill="#585021" fill-rule="evenodd"/>
<path d="m241.25 207.05 0.2-0.25 6.85-8.8q1.15 1.9 3.8 2.8l-5.5 7.3-0.1 1 0.1 0.65-0.35-0.25-0.45-0.3-0.05-0.05-0.55 0.5-0.2 0.15-0.55 0.25v0.05l-0.15 0.05 0.15-0.05-0.15 0.05q-0.95 0.25-1.5-0.9-0.25-0.45-0.35-1.05-0.95-0.1-1.2-0.8l-0.05-0.3 0.05-0.05m5.25 2.05-0.25 0.4 0.25-0.4m-1.1-4.95-2.95 4.05 2.95-4.05m-3.95 2.65-0.2 0.6 0.2-0.6" fill="#7b702f" fill-rule="evenodd"/>
<path d="m252.85 199.15 0.05-0.05h0.2v0.05h-0.25" fill="#a89f3e" fill-rule="evenodd"/>
<path d="m248.45 210.85-0.15 0.15-0.05-0.05 0.2-0.1m-4-0.8 0.55-0.25 0.2-0.15-0.7 0.45v-0.05h-0.05m0.55-0.25-0.5 0.25 0.5-0.25" fill="#a58c3a" fill-rule="evenodd"/>
<path d="m246.95 211.9-1.95 3.3-0.35 4.7-2.5 3.3 1.75-3.05-0.15-5.05 1.9-4.25 1.35 0.9h0.05l-0.1 0.15m-4.5-3.7-2.35 3.9-6.45 5.1-2.1 6 1.25-6.7 4.9-4.1 0.9-0.75 0.25-0.35 0.65-1.1 1.75-2.8q0.25 0.7 1.2 0.8" fill="#8f7538" fill-rule="evenodd"/>
<path d="m247.75 211.25 1.4 3.75-3.3 1.75 2.2-2.35-1.1-2.5 0.1-0.15 0.05-0.05 0.65-0.45m-10.05 1.15-1.9-0.75-2.95 2.1 2.3-3.15 3.7 0.7-0.25 0.35-0.9 0.75m1.8-2.2 0.45-2.6 1.25-0.55v0.05l0.05 0.3-1.75 2.8" fill="#685528" fill-rule="evenodd"/>
<path d="m247.45 195.5-0.75 1.2-4.9 7.9-0.6 1 0.15 0.3-0.15 1.15h0.05l0.2-0.25m6.85-8.8-0.6-1.3-0.25-1.2q-1.15-2.45 1.15-2.2h0.1l1.75-0.65q3.45-0.65 6.1 2.4 1.85 2.65 0.3 4.2l-0.05 0.05m-8.55 11.65-0.5 0.3 1.4 3.75-3.3 1.75 2.2-2.35-1.1-2.5-1.95 3.3-0.35 4.7-2.5 3.3 1.75-3.05-0.15-5.05 1.9-4.25-1.15-0.75h-0.05l-0.15 0.05q-2 3.85-4.7 6.55l-0.3 6.15-0.75-6.6 2.65-3.9 1.6-3.1q-0.25-0.45-0.35-1.05l-2.35 3.9-6.45 5.1-2.1 6 1.25-6.7 4.9-4.1-1.9-0.75-2.95 2.1 2.3-3.15 3.7 0.7 0.65-1.1 0.45-2.6q-2.4-0.6-5.65 2.35l-4.1 5.05 3.4-6.2q4.2-3 7.45-3.15l0.15-0.05-0.1 0.15m7.5-12.45 0.1 0.05h0.05l0.4 2.4q0.05 0.9 1.45 2.1 1.35 1.2 2.25 1.3l0.05-0.05m0.2 0.05 3.75 0.1m-6.25-5.55q3.85-0.6 5.9 3.15m-8.2 1.15q1.15 1.9 3.8 2.8m1-1.65h-0.25m-8.55 11 0.15-0.05 0.05-0.05h-0.05l0.55-0.25 0.2-0.15 0.55-0.5 0.05 0.05-0.6 0.45-0.7 0.45v-0.05l0.5-0.25m1.25-0.3 0.25-0.4m-0.25 0.4-0.6 1.35 1.35 0.9 0.1-0.05 0.55-1m0.6 0.25 0.2-0.1m-1.4 0.9 0.05-0.05 0.65-0.45m-0.8 0.65 0.1-0.15m-5.85-4.7v0.05l0.05 0.3 0.2-0.6m-0.2 0.6q0.25 0.7 1.2 0.8l2.95-4.05m-4.15 3.25-1.75 2.8m0.45-2.6 1.25-0.55m-2.35 4.25-0.25 0.35-0.9 0.75m5.1-3.15q0.55 1.15 1.5 0.9m6.4-13.5q1.55 1.85 4.8 2" fill="none" stroke="#554d1e" stroke-linecap="round" stroke-linejoin="round" stroke-opacity=".72157" stroke-width=".25"/>
<path d="m256.8 199.3-7.7 10.6-0.65 0.95-0.15 0.15m8.5-11.7 0.05-0.05" fill="none" stroke="#554d1e" stroke-linecap="round" stroke-linejoin="round" stroke-opacity=".72157" stroke-width=".25"/>
</g>
<g id="a">
<use width="31.25" height="30.25" xlink:href="#b"/>
</g>
<g id="b">
<path d="m16.7 9.8-4.1 4.6 2.2 5.3-6-3.8-6.5 4.6 2.85-5.15-5.15-4.2 4.95-0.25 1.7-7.6 3.55 7.3 6.5-0.8m-7.1 11.6 4.95-1.75-2.9 4.65 2.8 3.45-4.1-0.7-2.25 3.2v-4.8l-4.95-2.05 3.95-0.25 0.55-4.45 1.95 2.7m16.85-12-2.25 3.9-0.55-5.55-5.95-1.85 4.55-0.7 0.15-5.2 2.5 2.95 5.6-2.6-2.85 5.75 3.6 3.65-4.8-0.35" fill="#faf8f1" fill-opacity=".42745" fill-rule="evenodd"/>
</g>
</defs>
</svg>
