<?xml version="1.0" encoding="UTF-8"?>
<svg version="1.1" viewBox="0 0 86.969 96.067" xmlns="http://www.w3.org/2000/svg" xmlns:cc="http://creativecommons.org/ns#" xmlns:dc="http://purl.org/dc/elements/1.1/" xmlns:rdf="http://www.w3.org/1999/02/22-rdf-syntax-ns#" xmlns:xlink="http://www.w3.org/1999/xlink">
<metadata>
<rdf:RDF>
<cc:Work rdf:about="">
<dc:format>image/svg+xml</dc:format>
<dc:type rdf:resource="http://purl.org/dc/dcmitype/StillImage"/>
</cc:Work>
</rdf:RDF>
</metadata>
<g transform="translate(-231.49 -152.44)">
<use transform="translate(231.5,152.45)" width="86.949997" height="96.050003" xlink:href="#a"/>
</g>
<defs>
<g id="a" transform="translate(-231.5,-152.45)">
<path d="m296.35 225.05q-9.75 10.2-20.9 10.05t-25.05-13.7q-13.95-13.55-11.95-26.25 2.05-12.7 14.35-21.5 12.25-8.8 25.2-11.8 12.95-2.95 23.55 9.65 10.55 12.6 7.6 27.95-3.05 15.35-12.8 25.6" fill="#ffa611" fill-rule="evenodd"/>
<path d="m294.75 181.5q-6.15-9.75-4.3-10.55 1.9-0.8 7.4 3.8 5.45 4.6 7.25 12.5t-1.25 14.5q-3.15 6.55-6.65 6.35-3.5-0.15-3-4.6 0.45-4.45 3.55-8.3 3.2-3.95-3-13.7" fill="#f9ec4f" fill-rule="evenodd"/>
<path d="m291.75 163.25 3.65 2.1 1.15-0.6 0.85 0.1q1.35 0.35 2.9 1.3 1.65 1.05 2.6 2.15 0.6 0.75 0.6 1.3l-0.55 0.9 1.15 0.9 0.5 0.4 3.35 2.85 1.8 0.1 1 0.6 0.3 0.15 0.4 0.35q0.5 0.45 0.7 1.3l-0.05 2.35-0.25 1.1-0.05 0.35q-0.95 3.45-3.55 7.3l-0.7 0.9q-3.1 4.35-6.5 6.65l-0.25 0.05-1.1 0.7q-1.45 0.75-2.7 0.8l-1.55-0.25-0.15-0.05-0.9-0.8-0.6-0.65-0.3-0.7-3.65-1.45-0.45-0.2-1.35-0.65-7.85 11.6 0.35 1.05-17 25.4-0.5 0.7q-2 2.45-5 3.3-3.35 1-5.95-0.55l-1.3-1-0.3-0.3-0.2-0.25-0.7-1.25-0.25-0.55-0.2-0.8-0.1-0.7q-0.25-3.2 1.9-6.2l0.5-0.7 17.85-24 1.45-0.1 8.25-11.1-0.6-0.4-0.3-0.25-2.35-1.8-0.95-0.85-2.6-2.45-0.3-0.05-1.25-0.3-0.15-0.05-0.15-0.1-0.45-0.45-0.15-0.05-0.1-0.15q-1.45-1.35-0.55-4.9 1.05-3.85 4.3-8.3l0.65-0.95q2.95-3.85 6.1-6 2.85-1.95 4.55-1.5 0.35 0.1 0.7 0.35l0.4 0.35q0.3 0.05 0.5 0.25 0.85 0.5 1.1 1.55l0.8 0.4q1.4 0.6 2.8 1.35l0.75 0.4" fill="#fedbc0" fill-opacity=".45098" fill-rule="evenodd"/>
<path d="m285.55 161.5 0.55 0.3 0.4 0.35q0.4 0.5 0.5 1.35l-0.15 2-0.25 0.95-0.1 0.35-1.35 3.15-5.7-0.6-2.7-0.25 0.1-0.05 0.6-0.85q2.7-3.5 5.5-5.45 1.45-0.95 2.6-1.25m8.95 6.35 0.2-0.25 0.1-0.1 0.35-0.15 0.05 0.05 1.7 1q1.35 0.95 2.15 2l0.45 1.25-0.25 0.35h-0.05l-0.45-0.15-0.35-0.15-0.2 0.3-0.05 0.1h-0.2l-0.95-0.6q-1.35-0.9-2.1-1.95t-0.5-1.6l0.1-0.1m-22.75 29.85 6.45-8.5 0.95 2.55 0.3 0.9 0.45 3.55 0.05 3.35-2.45 3.55-0.85-0.15-0.55-0.15q-1.5-0.55-3.15-1.7l-1.2-0.9h-0.05l-0.4-0.55-0.5-0.75 0.95-1.2m22.95-30.1q-0.15 0.5 0.5 1.4 0.7 1 2.05 1.95l0.1 0.05 1.05 0.7-1.05-0.7-0.1-0.05q-1.35-0.95-2.05-1.95-0.65-0.9-0.5-1.4m-21.15 13.95q-0.15-0.2-0.3-0.25l-0.15-0.05-0.1-0.15 0.55 0.45" fill="#b9b09f" fill-rule="evenodd"/>
<path d="m286.5 162.15 0.4 0.25q0.7 0.45 0.9 1.45 0.1 0.85-0.2 2.2l-0.25 1-0.05 0.3-1.05 2.6-0.05 0.1-2.3 3.95-0.6 0.8q-2.75 3.65-5.6 5.7l-0.4 0.25-0.15 0.1-1 0.7h-0.1q-0.15 0.05-0.2 0.15l-0.3 0.1q-0.25 0.05-0.4 0.15l-0.8 0.2h-0.6 0.4l1.15-0.35 0.3-0.1 0.25-0.15h0.1l1-0.7 0.15-0.1 0.65-0.4q2.7-2.05 5.35-5.55l0.55-0.8 2.35-3.95 1.05-2.7 0.1-0.3 0.25-1 0.2-1.95-0.15 0.55-0.2 1-0.1 0.3q-0.6 1.95-1.75 4l-1.65 2.65-1.5 2 0.25-0.3 0.6-0.9 2.05-3.45 1.35-3.15 0.1-0.35 0.25-0.95 0.15-2q-0.1-0.85-0.5-1.35m21.4 15.7 0.55 1.2-0.15 2.15-0.25 1.05-0.05 0.3q-1 3.15-3.4 6.65l-0.65 0.8q-2.9 3.95-5.95 6l-0.15 0.05-1 0.6q-1.3 0.7-2.4 0.7 1.05-0.05 2.25-0.7l1-0.6 0.2-0.05q3-2.05 5.9-6l0.65-0.8q2.45-3.5 3.4-6.65l0.1-0.3 0.25-1.05q0.25-1.25 0.1-2.15l-0.1 0.8-0.25 1-0.1 0.3q-0.95 3.15-3.4 6.65l-0.65 0.8q2.4-3.5 3.35-6.6l0.15-0.35 0.2-1 0.15-2-0.45-1.2v-0.1l0.15 0.05 0.55 0.45m-34.85 3.7h-0.85l-0.05-0.1 0.9 0.1m29.75 8.4 0.4-0.55 0.6-0.8-1 1.35m-9.15 6.8-0.75-0.1h-0.05l-0.05-0.05 0.1 0.05-0.1-0.05 0.4 0.1 0.45 0.05" fill="#9a9a9a" fill-rule="evenodd"/>
<path d="m301.55 173.5 0.2 0.1 0.4 0.4q0.85 1.2 0.15 3.8l-0.1 0.5-0.25 0.85-0.1 0.2-1.9 3.2-1.8 2.25q2.15-3.2 3.1-6.2l0.25-0.8q0.95-3.2-0.1-4.45l0.15 0.15m-10.7-7.9 0.55 0.3q1.25 1.2 0.25 4.5l-0.95 2.5q-0.9 2.15-2.5 4.45l-0.6 0.8q-2.3 3.05-4.7 4.95l-1.5 1.1-1.05 0.65-0.75-0.45v-0.05l1.1-0.65q3.2-2 6.2-6.05l0.55-0.8q2.55-3.65 3.45-7 0.95-3-0.05-4.25m5.8 28.75-0.6 0.45 0.5-0.4 0.1-0.05" fill="#ccc" fill-rule="evenodd"/>
<path d="m288.4 164.2 2.4 1.3 0.05 0.1q1 1.25 0.05 4.25-0.9 3.35-3.45 7l-0.55 0.8q-3 4.05-6.2 6.05l-1.1 0.65-3.05-2.25v-0.05l-0.2-0.1 0.5-0.25 0.75-0.5 0.15-0.15 0.2-0.05q3.05-2.1 5.95-6l0.65-0.75q2.4-3.55 3.35-6.7l0.1-0.3 0.25-1 0.15-2.05m3 1.7 3.1 1.95-0.1 0.1q-0.25 0.55 0.5 1.6t2.1 1.95l0.95 0.6 0.15 0.1 1.45 0.55 1.2 0.15 0.05-0.1 0.65 0.55h-0.05q1.05 1.25 0.1 4.45l-0.25 0.8q-0.95 3-3.1 6.2l-0.2 0.25-0.2 0.3q-1.95 2.2-3.95 3.45-2.6 1.8-4.3 0.95l-0.05-0.05-0.7-0.3-3.1-1.4-0.35-0.15-0.25-0.15 0.1-0.15-0.35-0.05-0.25-0.1-0.4-0.2-1.7-1-2.1-1.3v-0.05l1.05-0.65 1.5-1.1q2.4-1.9 4.7-4.95l0.6-0.8q1.6-2.3 2.5-4.45l0.95-2.5q1-3.3-0.25-4.5m-39.35 61.75-0.15-0.45-0.2-0.8v-0.6q-0.15-2.95 1.9-5.7l0.45-0.65 15.95-21.05q-0.1 0.45 0.3 1.15l0.15 0.3-14.9 19.6-0.4 0.65q-2.05 2.75-1.9 5.7v0.2l0.1 0.85 0.25 0.8 0.2 0.5q0.95 0.55 2 0.75-1.95 0.25-3.5-0.75l-0.25-0.5" fill="#83775f" fill-rule="evenodd"/>
<path d="m287.8 163.85 0.6 0.35-0.15 2.05-0.25 1-0.1 0.3q-0.95 3.15-3.35 6.7l-0.65 0.75q-2.9 3.9-5.95 6l-0.2 0.05-0.15 0.15-0.75 0.5-0.5 0.25 0.2 0.1v0.05l3.05 2.25q-1.85 0.95-3.25 0.45v0.05l-0.2-0.15-0.1-0.1-0.1-0.15-2.1-2.2 0.55-0.1 1.45-0.45 0.2-0.1v-0.05h0.1l1-0.7 0.15-0.1 0.4-0.25q2.85-2.05 5.6-5.7l0.6-0.8 2.3-3.95 0.05-0.1 1.05-2.6 0.05-0.3 0.25-1q0.3-1.35 0.2-2.2m-7.45 21.05 2.1 1.3 1.7 1 0.4 0.2 0.25 0.1 0.35 0.05-0.1 0.15 0.25 0.15 0.35 0.15 3.1 1.4 0.7 0.3 0.05 0.05q1.7 0.85 4.3-0.95 2-1.25 3.95-3.45l0.05 0.05-0.3 0.35-0.4 0.55-0.4 0.45-2.3 2.7-1.5 1.35-0.5 0.35-0.9 0.6q-1.7 1.25-3.1 1.35h-0.3l-0.4-0.1-0.3-0.05-0.4-0.15q-4-2.2-7.55-5.2l-0.5-0.45-0.25-0.2-1.85-1.6q1.45 0.6 3.5-0.45m22.95-9.65 1.55 1.5 0.7 0.75-0.05 0.05q1.4 1 0.4 4.25-0.85 3-3.15 6.35l-0.55 0.75-0.7 0.85-1.7 1.95-0.5 0.6-1.55 1.25-1.1 0.8-0.1 0.05-0.5 0.4-0.7 0.3-2.95 0.15h-0.05l-0.7-0.3-2.9-1.25q1.4 0.05 3.25-1.2l0.1-0.05 0.05-0.15h0.1l0.3-0.25 0.2-0.2 0.25-0.15 0.15-0.15 2.05-1.7 2.25-2.6 0.1-0.15 0.7-0.95 0.6-0.8q2.15-3.25 3.1-6.2l1.15-2.95 0.2-0.95" fill="#5b5342" fill-rule="evenodd"/>
<path d="m294.45 197.35h-0.1l-1.2-0.3-0.15-0.05-0.05-0.1-0.2-0.2-0.05-0.1 0.15 0.05h0.05l0.75 0.1h0.3q0.95-0.05 2.15-0.65l0.95-0.6 0.2-0.15q2.85-1.9 5.55-5.4l1-1.35 0.65-0.8q2.45-3.5 3.4-6.65l0.1-0.3 0.25-1 0.1-0.8q0.15 0.9-0.1 2.15l-0.25 1.05-0.1 0.3q-0.95 3.15-3.4 6.65l-0.65 0.8q-2.9 3.95-5.9 6l-0.2 0.05-1 0.6q-1.2 0.65-2.25 0.7m-6-3.7-0.35-0.2-0.25-0.15 0.1-0.05 0.25 0.15 0.35 0.15 0.2 0.15-0.2-0.15-0.35-0.15-0.25-0.15v-0.05h0.35q1.4-0.1 3.15-1.35l0.85-0.6 0.6-0.45 1.5-1.35 2.3-2.7 0.4-0.45 0.4-0.55 0.3-0.35 0.15-0.35 2-2.5 1.9-3.2q-0.95 2.9-3.1 6.05l-0.55 0.8-0.65 0.9-0.1 0.15-2.25 2.6-2.05 1.7-0.15 0.15-0.25 0.15-0.2 0.2-0.3 0.25h-0.1l-0.05 0.15-0.1 0.05q-1.85 1.25-3.25 1.2l-0.3-0.05m-11.8-8.35-0.1-0.05-0.1-0.15-0.05-0.05-0.05-0.15h0.1l0.05 0.1v0.05l0.15 0.15 0.2 0.05q1.45 0.65 3.5-0.4v0.05q-2.05 1.05-3.5 0.45v-0.05h-0.2m-2.9-3.15h-0.25l-1.1-0.25-0.1-0.05-0.3-0.3-0.05-0.1 0.25 0.1h1.1q0.95 0 2.15-0.65l0.9-0.6 0.2-0.1 1.35-1q2.05-1.65 4.05-4.2-2 2.55-4.05 4.2l-1.35 1-0.2 0.1-0.9 0.6q-1.2 0.65-2.15 0.65h-0.2 0.45l1.6-0.65 1-0.6 0.2-0.1 1.55-1.2 1.7-1.5 2.35-2.5 0.2-0.25 0.1-0.15 1.5-2 1.65-2.65q1.15-2.05 1.75-4l0.1-0.3 0.2-1 0.15-0.55-0.2 1.95-0.25 1-0.1 0.3-1.05 2.7-2.35 3.95-0.55 0.8q-2.65 3.5-5.35 5.55l-0.65 0.4-0.15 0.1-1 0.7h-0.1l-0.25 0.15-0.3 0.1-1.15 0.35h-0.4l-1.15-0.25-0.1-0.05-0.3-0.3 0.3 0.3 0.1 0.05 1.15 0.25m-1.75-0.6-0.05-0.1 0.05 0.1m8.35 3.3q-2.05 1.05-3.5 0.4l-0.2-0.05-0.15-0.15v-0.05l-0.05-0.1q1.35 0.45 3.15-0.5l0.75 0.45m-3.95 0.05 0.1 0.1-0.1-0.1m0.25 0.3 0.2 0.1-0.2-0.1m26.15 4.75q-2.7 3.5-5.55 5.4l-0.2 0.15-0.95 0.6q-1.2 0.6-2.15 0.65l2-0.65 1-0.6 0.1-0.15 3.6-3.05 2.15-2.35m-5.7-3.65 0.45-0.6 0.25-0.3-0.25 0.3-0.45 0.6m-2.95 11-0.9-0.25-0.1-0.05v-0.05h-0.05l-0.05-0.05-0.15-0.25 0.15 0.25 0.05 0.05h0.05v0.05l0.1 0.05 0.9 0.25m-2-5 0.4-0.25-0.4 0.25m-4.2 0.95v-0.05 0.05m4.8-1.4 0.4-0.3-0.4 0.3m-4.2 1.7q1.55 0.2 3.55-1.1-2 1.3-3.55 1.1m4.55 3.4-0.35-0.25 0.35 0.25" fill="#656565" fill-rule="evenodd"/>
<path d="m295.15 167.35h0.4l-0.35 0.05-0.05-0.05m-15.8 20.35 0.05-0.05v0.05h-0.05m18.6-15.6h0.2l-0.05 0.1-0.15-0.1" fill="#824f3e" fill-rule="evenodd"/>
<path d="m301.2 172.25-0.15 0.1-0.25 0.4-0.05 0.15-1.2-0.15-1.45-0.55 0.1-0.2 0.2-0.3 0.35 0.15 1.05 0.35-0.6-0.2h0.05l0.25-0.35-0.45-1.25q-0.8-1.05-2.15-2l-1.7-1 0.35-0.05 0.7 0.15q1.15 0.3 2.5 1.25t2.1 2l0.5 1.2-0.15 0.3m-14.25 20.55-7.25 10.5-0.75 1.2-0.85-0.15-0.55-0.15h-0.05l-0.25-0.15-0.35-0.1-2.55-1.45q-1.65-1.1-2.6-2.3l1.2 0.9q1.65 1.15 3.15 1.7l0.55 0.15 0.85 0.15 2.45-3.55-0.05-3.35-0.45-3.55-0.3-0.9-0.95-2.55 1.15-1.5h0.05l0.6 0.45v0.1h0.05l5.2 3.6 1.7 0.95m14.1-20.45-1.25-0.15 1.25 0.15" fill="#9f937b" fill-rule="evenodd"/>
<path d="m299.2 172 0.6 0.2-0.6-0.2" fill="#975b48" fill-rule="evenodd"/>
<path d="m300.8 172.75v0.05l-0.05 0.1 0.05-0.15m1.35 1.25 2.75 2.7 0.75 0.75-0.05 0.05q1.35 1 0.35 4.25-0.85 3-3.15 6.35l-0.55 0.7-0.75 0.95 0.7-0.85 0.55-0.75q2.3-3.35 3.15-6.35 1-3.25-0.4-4.25l0.05-0.05-0.7-0.75-1.55-1.5-0.2 0.95-1.15 2.95 0.25-0.85 0.1-0.5q0.7-2.6-0.15-3.8m-28.3 8.25-0.1-0.1h0.6l0.8-0.2q0.15-0.1 0.4-0.15l0.3-0.1q0.05-0.1 0.2-0.15v0.05l-0.2 0.1-1.45 0.45 0.75-0.2-0.75 0.2-0.55 0.1m27.55-8.9h0.05-0.05" fill="#613a2e" fill-rule="evenodd"/>
<path d="m304.9 176.7 1.6 0.1 0.55 0.4 0.1 0.15 0.05 0.1 0.45 1.2-0.15 2-0.2 1-0.15 0.35q-0.95 3.1-3.35 6.6l-0.6 0.8-0.4 0.55-2.15 2.35-3.6 3.05-0.1 0.15-1 0.6-2 0.65h-0.3l-0.45-0.05-0.4-0.1-0.25-0.1-0.15-0.05-0.15-0.15-0.45-0.6-0.15-0.6 0.6 0.2 0.05 0.05q1.3 0.65 3.05-0.25l0.7-0.3 0.6-0.45 1.1-0.8 1.55-1.25 0.3-0.3 0.2-0.3 1.7-1.95 0.75-0.95 0.55-0.7q2.3-3.35 3.15-6.35 1-3.25-0.35-4.25l0.05-0.05-0.75-0.75m-33.1 4.6-0.1-0.05-0.1-0.15q-1.2-1.2-0.3-4.5 1.1-3.55 4.15-7.55v-0.05l0.6-0.8q2.7-3.5 5.5-5.45 2.5-1.7 4-1.25-1.15 0.3-2.6 1.25-2.8 1.95-5.5 5.45l-0.6 0.85-0.1 0.05q-2.95 4-4.05 7.5-0.9 3.3 0.3 4.5l0.1 0.15 0.15 0.05q0.15 0.05 0.3 0.25h-0.5l-0.9-0.1-0.35-0.15" fill="#e1ded7" fill-rule="evenodd"/>
<path d="m291.65 195.1-0.05-0.05-3.15-1.4 0.3 0.05 2.9 1.25v0.15-0.15l0.7 0.3h0.05l2.95-0.15q-1.75 0.9-3.05 0.25l-0.05-0.05-0.6-0.2m-4-2h-0.05l-0.25-0.1-0.35-0.15-0.05-0.05-1.7-0.95-5.2-3.6-0.05-0.1-0.6-0.45v-0.05l-0.75-0.6-2-1.75h0.2v0.05l1.85 1.6 0.25 0.2 0.5 0.45-0.05 0.05 0.05-0.05q3.55 3 7.55 5.2l0.4 0.15 0.3 0.05 0.4 0.1h0.3q1.4-0.1 3.1-1.35l0.9-0.6 0.5-0.35-0.6 0.45-0.85 0.6q-1.75 1.25-3.15 1.35h-0.35l-0.3-0.1-0.25-0.15 0.25 0.15 0.05-0.1 0.3 0.1-0.3-0.1-0.05 0.1m-11.3-8.2h-0.05l-0.2-0.15h-0.05l-0.05-0.1-0.1-0.1-2.15-2.3h0.1l2.1 2.2 0.1 0.15 0.1 0.1 0.2 0.15v-0.05l0.1 0.1-0.1-0.1q1.4 0.5 3.25-0.45v0.05q-1.8 0.95-3.15 0.5h-0.1m21.4 0.45 0.2-0.3-0.15 0.35-0.05-0.05m-21.35-0.45-0.05-0.05 0.05 0.05m23.4 6.8-0.2 0.3-0.3 0.3 0.5-0.6m2.05-12.35 0.1-0.2q-0.95 2.95-3.1 6.2l-0.6 0.8-0.7 0.95 0.65-0.9 0.55-0.8q2.15-3.15 3.1-6.05m-13.9 13.85 0.05-0.1h0.1-0.1l-0.05 0.1m-1-0.4h0.05-0.05" fill="#4a2d24" fill-rule="evenodd"/>
<path d="m252.6 228.85-0.55-1.2 0.25 0.5 0.3 0.7m27.45-40.6h-0.05v-0.1l0.05 0.1" fill="#a1664c" fill-rule="evenodd"/>
<path d="m270 198.4 0.5-0.7q0.45-0.15 1.25 0l-0.95 1.2 0.5 0.75 0.4 0.55h0.05q0.95 1.2 2.6 2.3l2.55 1.45-0.25 0.3h-0.9l-0.6-0.2-1-0.7-0.15-0.05-0.25-0.2q-2-1.35-3-2.85l-0.05-0.05-0.25-0.35v-0.05l-0.1-0.2-0.05-0.05q-0.4-0.7-0.3-1.15" fill="#222" fill-rule="evenodd"/>
<path d="m251.7 226.4v-0.6 0.6m18.6-26.85 0.05 0.05 0.1 0.2v0.05l-0.15-0.3" fill="#757575" fill-rule="evenodd"/>
<path d="m270.45 199.85 0.25 0.35 0.05 0.05q1 1.5 3 2.85l0.25 0.2 0.15 0.05 1 0.7 0.45 0.15 0.3 0.15 0.2 0.15-14.1 20.5-1.8 1.95q-1.4 1.15-3.1 1.65l-1.25 0.3h-0.05q-1.05-0.2-2-0.75l-0.2-0.5-0.25-0.8-0.1-0.85v-0.2q-0.15-2.95 1.9-5.7l0.4-0.65 14.9-19.6" fill="#484235" fill-rule="evenodd"/>
<path d="m279.7 203.3 0.25 1-0.55 0.85h-0.05l0.6-0.85-0.6 0.85h-0.95l-0.9-0.2-1.4-0.45-0.2-0.15-0.3-0.15 0.15 0.05h0.9l0.25-0.3 0.35 0.1 0.25 0.15h0.05l0.55 0.15 0.85 0.15 0.75-1.2m-2.45 0.75 0.3 0.15-0.3-0.15" fill-rule="evenodd"/>
<path d="m279.4 205.15-0.85 1.2-14.4 21-0.45 0.6q-1.9 2.2-4.5 2.95-2.95 0.9-5.1-0.6l-1.1-0.95-0.25-0.3-0.15-0.2-0.3-0.7q1.55 1 3.5 0.75h0.05l1.25-0.3q1.7-0.5 3.1-1.65l1.8-1.95 14.1-20.5 1.4 0.45 0.9 0.2h1m-0.85 1.2 0.8-1.2-0.8 1.2" fill="#202020" fill-rule="evenodd"/>
<path d="m279.45 169.35 5.7 0.6-2.05 3.45-0.6 0.9-0.25 0.3-0.1 0.15-0.2 0.25-2.35 2.5-1.7 1.5 1.55-9.65" fill="#a89c86" fill-rule="evenodd"/>
<path d="m276.75 169.1 2.7 0.25-1.55 9.65-1.55 1.2-0.2 0.1-1 0.6-1.6 0.65-0.55-0.45q-1.2-1.2-0.3-4.5 1.1-3.5 4.05-7.5" fill="#cac2b5" fill-rule="evenodd"/>
<path d="m285.55 161.5 0.55 0.3 0.4 0.35 0.4 0.25q0.7 0.45 0.9 1.45m0.6 0.35 2.4 1.3m0.6 0.4 3.1 1.95m0.3-0.35 0.35-0.15m5.9 5-0.25 0.4m0.75 0.75 0.2 0.1 0.4 0.4 2.75 2.7 1.6 0.1m0.85 0.6 0.2 0.15 0.35 0.3 0.55 1.2-0.15 2.15-0.25 1.05-0.05 0.3q-1 3.15-3.4 6.65l-0.65 0.8q-2.9 3.95-5.95 6l-0.15 0.05-1 0.6q-1.3 0.7-2.4 0.7h-0.05m-0.25-0.05-1-0.25-0.15-0.05-0.05-0.1-0.2-0.2m-0.5-0.4-0.45-0.6m-0.2-0.65-3.15-1.4-0.35-0.2-0.25-0.15m-0.9-0.5-7.25 10.5 0.25 1-0.6 0.85-0.8 1.2-14.4 21-0.45 0.6q-1.9 2.2-4.5 2.95-2.95 0.9-5.1-0.6l-1.1-0.95-0.25-0.3-0.15-0.2-0.55-1.2-0.15-0.45-0.2-0.8m0-0.6q-0.15-2.95 1.9-5.7l0.45-0.65 15.95-21.05m0.5-0.7q0.45-0.15 1.25 0l6.45-8.5m1.2-1.55-0.75-0.6-2-1.75m-0.75-0.75-2.15-2.3h0.1m-0.35-0.1-1.1-0.25-0.1-0.05-0.3-0.3m-0.05-0.1-0.15-0.15-0.1-0.05-0.1-0.15q-1.2-1.2-0.3-4.5 1.1-3.55 4.15-7.55v-0.05l0.6-0.8q2.7-3.5 5.5-5.45 2.5-1.7 4-1.25m10 5.85 0.7 0.15q1.15 0.3 2.5 1.25t2.1 2l0.5 1.2m-29.4 9.5 0.05 0.1m35.05-4.35-0.55-0.4" fill="none" stroke="#000" stroke-linecap="round" stroke-linejoin="round" stroke-opacity=".6" stroke-width=".8"/>
<path d="m287.8 163.85 0.6 0.35m2.45 1.4v-0.1l0.3 0.2 0.25 0.2q1.25 1.2 0.25 4.5l-0.95 2.5q-0.9 2.15-2.5 4.45l-0.6 0.8q-2.3 3.05-4.7 4.95l-1.5 1.1-1.05 0.65m14.15-17 0.2-0.25 0.1-0.1 0.05-0.15-0.05 0.15m0.75-0.15 0.85 0.15q1.15 0.3 2.5 1.25t2.1 2l0.45 1.05v0.1l-0.05 0.15-0.2 0.2-0.15 0.1m-0.25 0.4v0.05m0.65 0.55 0.1 0.15m4.95 3.3 0.25 0.2 0.6 0.4 0.55 0.45m-13.5 19.5h-0.05m-1.6-0.65-0.35-0.25-0.15-0.15m-0.45-0.6-0.15-0.6v-0.15l-2.9-1.25-0.3-0.05m-0.5-0.4-0.3-0.15h-0.05l-0.25-0.1-0.35-0.15-0.05-0.05-1.7-0.95-5.2-3.6-0.05-0.1-0.6-0.45v-0.05l0.05-0.05q3.55 3 7.55 5.2l0.4 0.15 0.3 0.05 0.4 0.1h0.3q1.4-0.1 3.1-1.35l0.9-0.6 0.5-0.35 1.5-1.35 2.3-2.7 0.4-0.45 0.4-0.55 0.3-0.35-0.25 0.3-0.45 0.6m-45.4 40.1v-0.6 0.6m27.65-38.7 0.05-0.05m-5.55-5.4-0.1-0.1h0.6l0.8-0.2q0.15-0.1 0.4-0.15l0.3-0.1q0.05-0.1 0.2-0.15h0.1l1-0.7 0.15-0.1 0.4-0.25q2.85-2.05 5.6-5.7l0.6-0.8 2.3-3.95m-1.05-0.1 1.35-3.15 0.1-0.35 0.25-0.95 0.15-2q-0.1-0.85-0.5-1.35m4.35 3.45 0.55 0.3m6.55 19.15 0.2-0.25q2.15-3.2 3.1-6.2l0.25-0.8q0.95-3.2-0.1-4.45l0.15 0.15m-25.95 8.2-0.3 0.1m-1.15 0.35h-0.4m12.5-12.2 1.05-2.6 0.05-0.3 0.25-1q0.3-1.35 0.2-2.2m-8.2 20.5 1.1-0.65q3.2-2 6.2-6.05l0.55-0.8q2.55-3.65 3.45-7 0.95-3-0.05-4.25m4.35 1.8 0.35-0.05m5.8 4.6-0.15 0.3 0.25-0.45m-6.75-4.2 0.1-0.1m3.15 4.6-0.95-0.6q-1.35-0.9-2.1-1.95t-0.5-1.6l0.1-0.1m5.3 4.35 1.25 0.15m-2.65-0.65-1.05-0.7-0.1-0.05q-1.35-0.95-2.05-1.95-0.65-0.9-0.5-1.4m3.4 4.6 1.45 0.55 1.2 0.15 0.05-0.15m-1.6-0.75-0.45-0.15-0.35-0.15m-0.3 0.5-0.15-0.1m1.85 0.1-0.6-0.2m-14.05-2.05-2.05 3.45-0.6 0.9-0.25 0.3m-0.3 0.4q-2 2.55-4.05 4.2l-1.35 1-0.2 0.1-0.9 0.6q-1.2 0.65-2.15 0.65h-0.25m-0.85 0 0.3 0.3 0.1 0.05 1.15 0.25m-1.55-0.6-0.05-0.1 0.9 0.1m1.35 0.6 0.75-0.2m1.2 2.9-0.2-0.15-0.1-0.1-0.1-0.15-2.1-2.2m2.6 2.65 0.05 0.1v0.05l0.15 0.15 0.2 0.05q1.45 0.65 3.5-0.4m-0.75-0.45q-1.8 0.95-3.15 0.5l-0.1-0.1m0 0.05 0.05 0.05h0.05m0.4 0.45v-0.05h-0.1m0.1 0-0.2-0.1m-0.15-0.2-0.1-0.1h-0.05m3.25-0.55q-1.85 0.95-3.25 0.45m3.1 2.8-0.5-0.45-0.25-0.2-1.85-1.6q1.45 0.6 3.5-0.45m-8.6 15.3q0.95 1.2 2.6 2.3l2.55 1.45 0.35 0.1 0.25 0.15h0.05l0.55 0.15 0.85 0.15 0.75-1.2m-9.25-3.45 0.25 0.35 0.05 0.05q1 1.5 3 2.85l0.25 0.2 0.15 0.05 1 0.7 0.45 0.15m-5.3-4.65q-0.4-0.7-0.3-1.15m1.75 1.8h-0.05l-0.4-0.55-0.5-0.75 0.95-1.2m4.35 6.8-0.2-0.15m1.65-0.15-0.3-0.15m2.1 1.1h-0.95l-0.9-0.2-1.4-0.45m-23.8 23.65 0.3 0.7m26.8-23.7h-0.05m-8.9-5.3-0.15-0.3m31.2-9.8 0.75-0.95 0.55-0.7q2.3-3.35 3.15-6.35 1-3.25-0.35-4.25l0.05-0.05-0.75-0.75m-1.6-1.45 1.55 1.5 0.7 0.75-0.05 0.05q1.4 1 0.4 4.25-0.85 3-3.15 6.35l-0.55 0.75-0.7 0.85-1.7 1.95-0.2 0.3-0.3 0.3-1.55 1.25-1.1 0.8-0.6 0.45-0.7 0.3q-1.75 0.9-3.05 0.25l-0.05-0.05-0.6-0.2m15.5-17.75h0.05l0.15 0.05m-0.15 0.05-0.05-0.1-0.1-0.15m0.15 0.25 0.45 1.2-0.15 2-0.2 1-0.15 0.35q-0.95 3.1-3.35 6.6l-0.6 0.8-0.4 0.55m-0.65-15.95q0.85 1.2 0.15 3.8l-0.1 0.5-0.25 0.85-0.1 0.2q-0.95 2.9-3.1 6.05l-0.55 0.8-0.65 0.9 0.7-0.95 0.6-0.8q2.15-3.25 3.1-6.2m-4.4 7.95-0.1 0.15-2.25 2.6-2.05 1.7-0.15 0.15-0.25 0.15-0.2 0.2-0.3 0.25h-0.1l-0.05 0.15-0.1 0.05q-1.85 1.25-3.25 1.2l-0.2-0.15-0.35-0.15-0.25-0.15m0-0.05-0.3-0.1-0.25-0.15m0.55 0.25h0.35q1.4-0.1 3.15-1.35l0.85-0.6 0.6-0.45m5.05-5.75-0.15 0.35m-3.85 11.35q0.95-0.05 2.15-0.65l0.95-0.6 0.2-0.15q2.85-1.9 5.55-5.4m-8.85 6.8h-0.3m-0.75-0.1 0.15 0.25 0.05 0.05h0.05v0.05l0.1 0.05 0.9 0.25m1.9-2.5 0.5-0.4 0.1-0.05m-4.1-2.3-0.4 0.25m-0.5 2.65 0.7 0.3h0.05l2.95-0.15m-2.95 1.35 0.15 0.05 0.25 0.1 0.4 0.1 0.45 0.05m-5.55-3.65h-0.1l-0.05 0.1v0.05m0.05-0.15-0.3-0.1-0.05 0.1m-0.65-0.3h-0.05m5.85 3.8 0.05 0.05-0.15-0.05 0.05 0.1 0.35 0.25m-0.2-0.3-0.1-0.05m-0.7-4.15q-2 1.3-3.55 1.1m4.6-2-0.4 0.3m6.55 0.45 0.5-0.6m-47.75 35.95 0.25 0.5" fill="none" stroke="#000" stroke-linecap="round" stroke-linejoin="round" stroke-opacity=".4" stroke-width=".05"/>
<path d="m300.8 172.8 0.65 0.55m-31.45 25.05 0.5-0.7m7.7-8.5 1.15-1.5m-3.05-2.8-0.2-0.15h-0.05m-2.3-2.6h-0.25m-1.3-0.6-0.25-0.1" fill="none" stroke="#000" stroke-linecap="round" stroke-linejoin="round" stroke-opacity=".6" stroke-width=".8"/>
<path d="m272.25 198.95q0.8 1.55 0.85 2.55l-4.7 1.8-1.9-0.85 1.05-1.9h0.05l-0.05-0.1q-0.3-0.9-0.1-1.5 0.1 0.9 0.85 1.25l0.6-0.3 0.4-0.8q0.25-1.45-0.5-2.65l1.55 2.2v0.6l0.15 0.3 0.15-0.45h0.05l-0.05-0.05 0.45-2.3q-0.15 1.8 0.65 3.25l0.65 0.5-0.15-1.55m-4.5 4.9-1.25 1.25-1.1-0.45 0.55-1.9q-0.25 1.05 1.8 1.1" fill="#008040" fill-rule="evenodd"/>
<path d="m301.95 235.15q-11.7 13.2-25.2 13-13.45-0.2-30.25-17.7-16.8-17.55-14.35-33.95t17.25-27.75q14.75-11.4 30.4-15.2 15.6-3.95 28.35 12.4 12.8 16.25 9.15 36.15-3.6 19.85-15.35 33.05m-1.85-7.2q10.6-11.15 13.95-27.8 3.2-16.7-8.3-30.4-11.5-13.65-25.55-10.45-14.1 3.25-27.4 12.8-13.35 9.55-15.6 23.35-2.15 13.8 13 28.55 15.1 14.7 27.2 14.9 12.15 0.15 22.7-10.95" fill="#b97917" fill-opacity=".6" fill-rule="evenodd"/>
<path d="m301.95 235.15q-11.7 13.2-25.2 13-13.45-0.2-30.25-17.7-16.8-17.55-14.35-33.95t17.25-27.75q14.75-11.4 30.4-15.2 15.6-3.95 28.35 12.4 12.8 16.25 9.15 36.15-3.6 19.85-15.35 33.05z" fill="none" stroke="#8b5c1d" stroke-linecap="round" stroke-linejoin="round" stroke-width=".7"/>
<path d="m300.1 227.95q-10.55 11.1-22.7 10.95-12.1-0.2-27.2-14.9-15.15-14.75-13-28.55 2.25-13.8 15.6-23.35 13.3-9.55 27.4-12.8 14.05-3.2 25.55 10.45 11.5 13.7 8.3 30.4-3.35 16.65-13.95 27.8" fill="#ffa611" fill-opacity=".6" fill-rule="evenodd"/>
<path d="m264.45 181.1q-1.25 0.7-2.7 2.4-1 1.25-1.2 0.95-0.45-0.75-0.2-2.2 0.25-1.8 1.45-2.7 2.95-2.2 7.1-3.8 4.25-1.65 8.2-2.15 1.65-0.15 3.85 0.85 1.95 0.9 2.35 1.65 0.65 1.15-2.25 1.5l-4.1 0.1-5.1 0.45q-2.3 0.5-4.2 1.35l-3.2 1.6" fill="#fff" fill-opacity=".4" fill-rule="evenodd"/>
<path d="m297.5 232.2q-7.25 8.3-14.8 12.5-3 1.75-8.2-0.05-4.45-1.7-5.85-3.65-2.1-3.2 3.45-6.4 0.8-0.5 7.95-3 6.1-2.15 9.75-4.9 4.3-3.25 7.35-7.2l5.15-7.55q2.05-2.9 3.55-9.35 1.2-4.8 1.8-3.85 1.45 2.15 2.1 6.95 0.75 5.85-1 9.5-4.25 9.2-11.25 17" fill="#8b5c1d" fill-opacity=".6" fill-rule="evenodd"/>
<path d="m248.95 184.85q-3.1 2.55-6.2 8.75-2.35 4.55-2.9 3.5-1.35-2.35-1.25-7.2 0.15-5.9 3.1-9.25 7-8.4 17.1-15.05 10.55-7.05 20.65-10.05 4.05-1.3 10.1 1.35 5.2 2.35 6.45 4.55 2 3.5-5.45 5.75l-10.4 1.7q-7.95 1.25-12.95 3.35-5.9 2.5-10.45 6-0.55 0.35-7.8 6.6" fill="#fff" fill-opacity=".4" fill-rule="evenodd"/>
</g>
</defs>
</svg>
