<?xml version="1.0" encoding="UTF-8" standalone="no"?>
<!DOCTYPE svg PUBLIC "-//W3C//DTD SVG 1.1//EN" "http://www.w3.org/Graphics/SVG/1.1/DTD/svg11.dtd">
<svg width="100%" height="100%" viewBox="0 0 1184 1716" version="1.1" xmlns="http://www.w3.org/2000/svg" xmlns:xlink="http://www.w3.org/1999/xlink" xml:space="preserve" xmlns:serif="http://www.serif.com/" style="fill-rule:evenodd;clip-rule:evenodd;stroke-linecap:round;stroke-linejoin:round;">
    <g transform="matrix(1,0,0,1,-2726.5,-2928)">
        <g transform="matrix(10,0,0,10,2731.5,2878.5)">
            <g id="sprite0">
                <g id="shape0">
                    <path d="M55.5,97.4L62.4,96.35C61.033,96.817 60.2,97.417 59.9,98.15L59.95,98.7L64.65,98.9C67.25,99.567 69.5,101.45 71.4,104.55C72.233,105.917 72.683,106.967 72.75,107.7C72.817,107.967 72.8,107.983 72.7,107.75C73.567,111.183 73.15,114.467 71.45,117.6C70.983,117.567 70.7,117.233 70.6,116.6C70.5,116.1 70.533,115.6 70.7,115.1L70.75,114.6L71.1,113.6L71.35,112.9C71.517,111.433 71.483,110.1 71.25,108.9C70.95,107.433 70.4,106.117 69.6,104.95C68.033,102.717 65.833,101.183 63,100.35L60.7,100.3L59.6,100.55C57.4,100.717 54.883,101.183 52.05,101.95C52.283,100.217 53.433,98.7 55.5,97.4" style="fill:#edb848;"/>
                    <path d="M62.4,96.35C63.433,96.15 65.083,96.383 67.35,97.05C69.583,97.65 71.433,98.9 72.9,100.8C74.3,102.7 75.217,104.233 75.65,105.4C76.35,107.433 76.55,109.7 76.25,112.2L74.7,116.05L74.25,115.75L73.95,116.2C73.45,116.733 72.833,117.133 72.1,117.4L71.45,117.6C73.15,114.467 73.567,111.183 72.7,107.75C72.8,107.983 72.817,107.967 72.75,107.7C72.683,106.967 72.233,105.917 71.4,104.55C69.5,101.45 67.25,99.567 64.65,98.9L59.95,98.7L59.9,98.15C60.2,97.417 61.033,96.817 62.4,96.35M78.5,110.45L79.65,112.6L79.55,115.25C78.983,116.917 78.3,118.533 77.5,120.1L76.95,121.25L76.75,121.5L76.25,122.35L76.1,122.65L76.05,122.7L75.65,123.35L74.6,121.7L74.85,121.4L76,119.4L76.55,118.4C77.283,116.967 77.883,115.483 78.35,113.95L78.5,110.45" style="fill:#fcd67c;"/>
                    <path d="M30.5,119.65L31,117.7C32.567,114.033 34.683,110.617 37.35,107.45L38.95,105.75C43.183,102.317 47.433,99.833 51.7,98.3L55.5,97.4C53.433,98.7 52.283,100.217 52.05,101.95C48.717,103.117 45.367,105.067 42,107.8L40.15,109.9C38.317,112.133 36.85,114.567 35.75,117.2C35.45,118.3 35.25,119.367 35.15,120.4L34.95,120.35L34.7,121.2L34.05,122.05C32.617,123.117 31.717,122.9 31.35,121.4L31.15,120.4L31.2,119.75L30.5,119.65M71.45,117.6L72.1,117.4C72.833,117.133 73.45,116.733 73.95,116.2L74.25,115.75L74.7,116.05L74.7,116.1L74.45,116.5C72.983,119.4 70.967,122.117 68.4,124.65C64.567,128.383 59.583,131.517 53.45,134.05L53.45,130.05C58.317,128.417 62.25,125.95 65.25,122.65C66.783,121.117 68.067,119.517 69.1,117.85L70.75,114.6L70.7,115.1C70.533,115.6 70.5,116.1 70.6,116.6C70.7,117.233 70.983,117.567 71.45,117.6" style="fill:#e7ff84;"/>
                    <path d="M75.65,105.4L78.5,110.45L78.35,113.95C77.883,115.483 77.283,116.967 76.55,118.4L76,119.4L74.7,116.1L74.7,116.05L76.25,112.2C76.55,109.7 76.35,107.433 75.65,105.4M79.65,112.6L83.7,119.7L83.7,120.05L83.6,123.35L81.75,127.8L80.9,129.35L81.75,127.8L83.6,123.35L83.7,120.05L83.9,120.05C85.1,122.25 85.25,124.617 84.35,127.15L82.4,131.8C82.5,130.967 82,130.15 80.9,129.35L79.85,131.05L79.25,130.05L75.75,123.25L76.05,122.7L76.1,122.65L76.25,122.35L76.75,121.5L76.95,121.25L77.5,120.1C78.3,118.533 78.983,116.917 79.55,115.25L79.65,112.6M32.1,129.95L31.3,128.4L31,127.8C30.167,125.067 30,122.35 30.5,119.65L31.2,119.75L31.15,120.4L31.35,121.4C31.717,122.9 32.617,123.117 34.05,122.05L34.7,121.2L34.95,120.35L35.15,120.4C35.083,121.967 35.283,123.55 35.75,125.15C36.483,126.85 38.183,128.433 40.85,129.9L40.95,129.95L41.2,130.05L42.95,130.4L53.45,130.05L53.45,134.05L40.5,134.55L40.6,134.55C36.4,133.483 33.567,131.95 32.1,129.95" style="fill:#f4ffc8;"/>
                    <path d="M59.6,100.55L60.7,100.3L63,100.35C65.833,101.183 68.033,102.717 69.6,104.95C70.4,106.117 70.95,107.433 71.25,108.9C71.483,110.1 71.517,111.433 71.35,112.9L71.1,113.6L70.75,114.6L69.45,114.3L66.1,114.35C64.433,114.483 62.75,114.8 61.05,115.3C59.35,115.767 58.367,116.067 58.1,116.2C56.367,116.867 54.667,117.717 53,118.75L52.05,117.4C53.85,116.267 55.65,115.35 57.45,114.65L57.6,114.65C60.533,113.45 63.183,112.767 65.55,112.6L59.6,100.55" style="fill:#cb9d49;"/>
                    <path d="M82.4,131.8C80.933,134.567 78.983,137.15 76.55,139.55C72.15,143.283 67.167,146.417 61.6,148.95L59.9,146.15C65.7,143.483 70.883,140.2 75.45,136.3C77.117,134.667 78.583,132.917 79.85,131.05L80.9,129.35C82,130.15 82.5,130.967 82.4,131.8M53.45,134.05C59.583,131.517 64.567,128.383 68.4,124.65C70.967,122.117 72.983,119.4 74.45,116.5L74.7,116.1L76,119.4L74.85,121.4L74.6,121.7C73.333,123.5 71.883,125.25 70.25,126.95C65.683,130.85 60.5,134.1 54.7,136.7L53.45,134.05M76.05,122.7L75.75,123.25L79.25,130.05L71.25,138.6C67.083,141.333 62.867,143.567 58.6,145.3L56.05,145.75L53.1,139.25L55.4,138.85C61.2,136.183 66.4,132.9 71,129L75.55,123.55L75.65,123.35L76.05,122.7" style="fill:#ebb029;"/>
                    <path d="M79.25,130.05L79.85,131.05C78.583,132.917 77.117,134.667 75.45,136.3C70.883,140.2 65.7,143.483 59.9,146.15L56.45,146.75L56.05,145.8L56.05,145.75L58.6,145.3C62.867,143.567 67.083,141.333 71.25,138.6L79.25,130.05M74.6,121.7L75.65,123.35L75.55,123.55L71,129C66.4,132.9 61.2,136.183 55.4,138.85L53.1,139.25L52.15,137.2L54.7,136.7C60.5,134.1 65.683,130.85 70.25,126.95C71.883,125.25 73.333,123.5 74.6,121.7" style="fill:#a3782d;"/>
                    <path d="M52.05,101.95C54.883,101.183 57.4,100.717 59.6,100.55L65.55,112.6C63.183,112.767 60.533,113.45 57.6,114.65L52.05,101.95" style="fill:#a4792e;"/>
                    <path d="M52.05,117.4L53,118.75C51.633,119.617 50.25,120.6 48.85,121.7C46.35,124.333 44.383,127.233 42.95,130.4L41.2,130.05L40.95,129.95L40.85,129.9C38.183,128.433 36.483,126.85 35.75,125.15C35.283,123.55 35.083,121.967 35.15,120.4C35.25,119.367 35.45,118.3 35.75,117.2C36.85,114.567 38.317,112.133 40.15,109.9L42,107.8L48.15,119.25L48.25,119.25L48.4,119.95C49.633,119.017 50.85,118.167 52.05,117.4" style="fill:#614718;"/>
                    <path d="M57.6,114.65L57.45,114.65C55.65,115.35 53.85,116.267 52.05,117.4C50.85,118.167 49.633,119.017 48.4,119.95L48.25,119.25L48.15,119.25L42,107.8C45.367,105.067 48.717,103.117 52.05,101.95L57.6,114.65" style="fill:#70521c;"/>
                    <path d="M61.6,148.95C56.567,150.083 51.383,150.083 46.05,148.95C42.883,147.283 40.7,145.483 39.5,143.55L39.55,143.45C40.717,144.383 42.1,145.283 43.7,146.15L46.4,146.6C49.8,147.067 53.15,147.117 56.45,146.75L59.9,146.15L61.6,148.95M38.05,140.75L38,140.7L37.85,140.5L36.35,137.65L38.5,138.9L41.2,139.35C44.933,139.917 48.583,139.917 52.15,139.35L53.1,139.25L56.05,145.75L56.05,145.8L55.5,145.85C53.4,146.117 49.683,145.683 44.35,144.55C40.95,143.383 38.85,142.117 38.05,140.75M34.35,134L32.1,129.95C33.567,131.95 36.4,133.483 40.6,134.55L40.5,134.55L53.45,134.05L54.7,136.7L52.15,137.2C48.583,137.733 44.933,137.733 41.2,137.2L38.5,136.7C36.867,135.867 35.483,134.967 34.35,134" style="fill:#ab7c10;"/>
                    <path d="M39.4,143.25L38.05,140.75C38.85,142.117 40.95,143.383 44.35,144.55C49.683,145.683 53.4,146.117 55.5,145.85L56.05,145.8L56.45,146.75C53.15,147.117 49.8,147.067 46.4,146.6L43.7,146.15C42.1,145.283 40.717,144.383 39.55,143.45L39.4,143.25M36.35,137.65L34.35,134C35.483,134.967 36.867,135.867 38.5,136.7L41.2,137.2C44.933,137.733 48.583,137.733 52.15,137.2L53.1,139.25L52.15,139.35C48.583,139.917 44.933,139.917 41.2,139.35L38.5,138.9L36.35,137.65" style="fill:#7d5b22;"/>
                    <path d="M62.4,96.35C63.433,96.15 65.083,96.383 67.35,97.05C69.583,97.65 71.433,98.9 72.9,100.8C74.3,102.7 75.217,104.233 75.65,105.4L78.5,110.45L79.65,112.6L83.7,119.7L83.9,120.05C85.1,122.25 85.25,124.617 84.35,127.15L82.4,131.8C80.933,134.567 78.983,137.15 76.55,139.55C72.15,143.283 67.167,146.417 61.6,148.95C56.567,150.083 51.383,150.083 46.05,148.95C42.883,147.283 40.7,145.483 39.5,143.55L39.4,143.25L38.05,140.75L38,140.7M37.85,140.5L36.35,137.65L34.35,134L32.1,129.95L31.3,128.4L31,127.8C30.167,125.067 30,122.35 30.5,119.65L31,117.7C32.567,114.033 34.683,110.617 37.35,107.45L38.95,105.75C43.183,102.317 47.433,99.833 51.7,98.3L55.5,97.4L62.4,96.35M70.75,114.6L69.1,117.85C68.067,119.517 66.783,121.117 65.25,122.65C62.25,125.95 58.317,128.417 53.45,130.05L42.95,130.4C44.383,127.233 46.35,124.333 48.85,121.7C50.25,120.6 51.633,119.617 53,118.75C54.667,117.717 56.367,116.867 58.1,116.2C58.367,116.067 59.35,115.767 61.05,115.3C62.75,114.8 64.433,114.483 66.1,114.35L69.45,114.3L70.75,114.6M74.7,116.1L74.7,116.05M83.7,120.05L83.7,119.7M48.25,119.25L48.15,119.25M42,107.8L40.15,109.9C38.317,112.133 36.85,114.567 35.75,117.2C35.45,118.3 35.25,119.367 35.15,120.4C35.083,121.967 35.283,123.55 35.75,125.15C36.483,126.85 38.183,128.433 40.85,129.9L40.95,129.95L41.2,130.05L42.95,130.4M52.05,101.95C48.717,103.117 45.367,105.067 42,107.8M52.15,137.2C48.583,137.733 44.933,137.733 41.2,137.2L38.5,136.7C36.867,135.867 35.483,134.967 34.35,134M39.55,143.45L39.4,143.25" style="fill:none;fill-rule:nonzero;stroke:#634819;stroke-width:0.1px;"/>
                    <path d="M79.85,131.05L80.9,129.35L81.75,127.8L83.6,123.35L83.7,120.05M56.45,146.75C53.15,147.117 49.8,147.067 46.4,146.6L43.7,146.15C42.1,145.283 40.717,144.383 39.55,143.45M56.45,146.75L59.9,146.15C65.7,143.483 70.883,140.2 75.45,136.3C77.117,134.667 78.583,132.917 79.85,131.05" style="fill:none;fill-rule:nonzero;stroke:#463311;stroke-opacity:0.2;stroke-width:0.1px;"/>
                    <path d="M55.7,5.65L63.5,5.45C73.433,5.483 82.183,6.283 89.75,7.85C99.383,9.817 104.25,12.467 104.35,15.8L104.45,16.45L104.2,17.3L91.75,60.85L90.8,63.4L90.9,63.9L89.95,67.9C88.45,70.1 85.517,72.033 81.15,73.7L74.7,75.65C74.367,73.717 73.85,71.817 73.15,69.95C71.05,64.717 73.133,60.333 79.4,56.8C80.2,53.167 77.567,50.25 71.5,48.05C77.067,49.55 80.817,47.533 82.75,42C84.25,37.767 83.117,35.8 79.35,36.1C81.15,35.7 82.433,34.517 83.2,32.55C84.367,29.95 84.85,27.867 84.65,26.3C84.117,23 80.533,21.833 73.9,22.8L77.35,17.05C72.517,12.817 66.983,12.4 60.75,15.8C62.517,13.733 63.417,11.6 63.45,9.4C60.717,8.267 58.133,7.017 55.7,5.65M104.2,17.3C102.933,20.067 98.333,22.583 90.4,24.85L84.65,26.3L90.4,24.85C98.333,22.583 102.933,20.067 104.2,17.3" style="fill:#825a33;"/>
                    <path d="M41.85,6.55L54.65,5.65L55.7,5.65C58.133,7.017 60.717,8.267 63.45,9.4C63.417,11.6 62.517,13.733 60.75,15.8C66.983,12.4 72.517,12.817 77.35,17.05L73.9,22.8C80.533,21.833 84.117,23 84.65,26.3C84.85,27.867 84.367,29.95 83.2,32.55C82.433,34.517 81.15,35.7 79.35,36.1C83.117,35.8 84.25,37.767 82.75,42C80.817,47.533 77.067,49.55 71.5,48.05C77.567,50.25 80.2,53.167 79.4,56.8C73.133,60.333 71.05,64.717 73.15,69.95C73.85,71.817 74.367,73.717 74.7,75.65C69.6,76.917 63.85,77.5 57.45,77.4L55.25,76.95L65.25,29.05L65.4,29.15L41.85,6.55M84.65,26.3C78.85,27.6 72.433,28.55 65.4,29.15C72.433,28.55 78.85,27.6 84.65,26.3" style="fill:#b9874a;"/>
                    <path d="M91.75,60.85C94.583,63.617 96,66.017 96,68.05C96,70.717 94.8,73.15 92.4,75.35C90.533,77.083 87.9,78.683 84.5,80.15L83.85,80.35C76.45,83.417 67.683,85 57.55,85.1L56.9,77.35L57.45,77.4C63.85,77.5 69.6,76.917 74.7,75.65L81.15,73.7C85.517,72.033 88.45,70.1 89.95,67.9C90.517,66.867 90.817,65.75 90.85,64.55L90.95,64.45L90.9,63.9L91.05,63.6L91.75,60.85" style="fill:#9898cc;fill-opacity:0.7;"/>
                    <path d="M27.7,8.65C32.033,7.75 36.75,7.05 41.85,6.55L65.4,29.15L65.25,29.05L53.6,29.65L65.25,29.05L55.25,76.95L57.45,77.4L56.9,77.35L50,77.05C46.067,76.75 42.433,76.167 39.1,75.3L33.85,73.6L32.1,72.85L13.85,25.3C15.917,26.067 18.5,26.767 21.6,27.4L24.9,28.05L33.45,28.8L35.75,43.2L35.75,29L36.8,24.1L35.15,26.4L33.8,24.65C31.567,21.517 29.533,16.183 27.7,8.65M90.8,63.4L91.75,60.85L90.9,63.5L90.8,63.4M53.6,27.15L53.6,29.65C53.5,34.617 53.167,39.4 52.6,44C53.167,39.4 53.5,34.617 53.6,29.65L53.6,27.15M36.7,72.75C34.167,65.75 31.517,56.933 28.75,46.3C26.15,36.233 24.867,30.15 24.9,28.05C24.867,30.15 26.15,36.233 28.75,46.3C31.517,56.933 34.167,65.75 36.7,72.75M35.9,47.4L35.75,43.2L35.9,47.4M50,77.05C50.4,75.183 51.233,71.883 52.5,67.15C54.467,59.75 55.833,55.333 56.6,53.9C55.833,55.333 54.467,59.75 52.5,67.15C51.233,71.883 50.4,75.183 50,77.05M42.6,16.05L36.8,24.1L42.6,16.05M53.6,29.65L35.75,29L53.6,29.65M41.6,38.35L39.1,75.3L41.6,38.35" style="fill:#d2b88c;"/>
                    <path d="M91.75,60.85L91.05,63.6L90.9,63.5L91.75,60.85" style="fill:#990;"/>
                    <path d="M22.35,60.6L7.9,21.9C7.233,21.167 6.867,20.35 6.8,19.45C6.667,16.083 11.383,13.05 20.95,10.35L27.7,8.65C29.533,16.183 31.567,21.517 33.8,24.65L35.15,26.4L33.45,28.8L24.9,28.05L21.6,27.4C18.5,26.767 15.917,26.067 13.85,25.3C11.017,24.3 9.033,23.167 7.9,21.9C9.033,23.167 11.017,24.3 13.85,25.3L32.1,72.85C27.633,70.817 25.05,68.483 24.35,65.85L22.35,60.6" style="fill:#dbc5a4;"/>
                    <path d="M35.15,26.4L36.8,24.1L35.75,29L35.75,43.2L33.45,28.8L35.15,26.4" style="fill:#a57341;"/>
                    <path d="M22.85,76.75C19.117,74.217 17.283,71.25 17.35,67.85C17.217,65.583 18.883,63.167 22.35,60.6L24.35,65.85C25.05,68.483 27.633,70.817 32.1,72.85L33.85,73.6L39.1,75.3C42.433,76.167 46.067,76.75 50,77.05L56.9,77.35L57.55,85.1L56.6,85.15C45.733,85.15 36.483,83.45 28.85,80.05C26.45,79.017 24.45,77.917 22.85,76.75M49.7,78.75L50,77.05L49.7,78.75" style="fill:#9999cb;fill-opacity:0.5;"/>
                    <path d="M84.65,26.3L90.4,24.85C98.333,22.583 102.933,20.067 104.2,17.3M65.25,29.05L65.4,29.15C72.433,28.55 78.85,27.6 84.65,26.3M53.6,29.65L65.25,29.05M33.45,28.8L35.75,43.2L35.75,29L36.8,24.1L35.15,26.4L33.45,28.8L24.9,28.05L21.6,27.4C18.5,26.767 15.917,26.067 13.85,25.3C11.017,24.3 9.033,23.167 7.9,21.9M35.75,43.2L35.9,47.4M39.1,75.3L41.6,38.35M35.75,29L53.6,29.65M36.8,24.1L42.6,16.05" style="fill:none;fill-rule:nonzero;stroke:#003200;stroke-opacity:0.5;stroke-width:0.05px;"/>
                    <path d="M55.7,5.65L63.5,5.45C73.433,5.483 82.183,6.283 89.75,7.85C99.383,9.817 104.25,12.467 104.35,15.8L104.45,16.45L104.2,17.3L91.75,60.85M22.35,60.6L7.9,21.9C7.233,21.167 6.867,20.35 6.8,19.45C6.667,16.083 11.383,13.05 20.95,10.35L27.7,8.65C32.033,7.75 36.75,7.05 41.85,6.55L54.65,5.65L55.7,5.65" style="fill:none;fill-rule:nonzero;stroke:#960;stroke-width:1px;"/>
                    <path d="M74.7,75.65L81.15,73.7C85.517,72.033 88.45,70.1 89.95,67.9C90.517,66.867 90.817,65.75 90.85,64.55L90.95,64.45L90.9,63.9M92.4,75.35C90.533,77.083 87.9,78.683 84.5,80.15L83.85,80.35C76.45,83.417 67.683,85 57.55,85.1L56.6,85.15C45.733,85.15 36.483,83.45 28.85,80.05C26.45,79.017 24.45,77.917 22.85,76.75M57.45,77.4C63.85,77.5 69.6,76.917 74.7,75.65M32.1,72.85C27.633,70.817 25.05,68.483 24.35,65.85M50,77.05C46.067,76.75 42.433,76.167 39.1,75.3L33.85,73.6L32.1,72.85M50,77.05L56.9,77.35L57.45,77.4" style="fill:none;fill-rule:nonzero;stroke:#67afaf;stroke-width:0.05px;"/>
                    <path d="M89.95,67.9L90.9,63.9L91.05,63.6L91.75,60.85M24.35,65.85L22.35,60.6" style="fill:none;fill-rule:nonzero;stroke:#960;stroke-width:0.05px;"/>
                    <path d="M91.75,60.85C94.583,63.617 96,66.017 96,68.05C96,70.717 94.8,73.15 92.4,75.35C95.067,77.15 97.683,79.217 100.25,81.55C111.65,92.25 117.35,105.183 117.35,120.35C117.25,135.45 111.533,148.333 100.2,159C87.9,170.367 74,176.05 58.5,176.05C51.1,176.05 44.133,174.717 37.6,172.05C30.3,169.217 23.5,164.783 17.2,158.75C5.7,148.083 -0.033,135.2 0,120.1C0.033,104.967 5.817,92.067 17.35,81.4C19.05,79.733 20.883,78.183 22.85,76.75C19.117,74.217 17.283,71.25 17.35,67.85C17.217,65.583 18.883,63.167 22.35,60.6" style="fill:none;fill-rule:nonzero;stroke:#67afaf;stroke-width:1px;"/>
                    <path d="M53.6,29.65C53.5,34.617 53.167,39.4 52.6,44M53.6,29.65L53.6,27.15M24.9,28.05C24.867,30.15 26.15,36.233 28.75,46.3C31.517,56.933 34.167,65.75 36.7,72.75M56.6,53.9C55.833,55.333 54.467,59.75 52.5,67.15C51.233,71.883 50.4,75.183 50,77.05L49.7,78.75" style="fill:none;fill-rule:nonzero;stroke:#b9874a;stroke-opacity:0.5;stroke-width:0.05px;"/>
                    <path d="M22.9,76.6C24.5,77.733 26.5,78.8 28.9,79.8C36.533,83.2 45.783,84.917 56.65,84.95L57.6,84.9L57.8,86.1L77.8,118.8L76.75,154.6L62.55,168.5L37.65,171.85C30.317,169.017 23.517,164.583 17.25,158.55C5.75,147.917 0.017,135.017 0.05,119.85C0.083,104.717 5.883,91.817 17.45,81.15C19.117,79.483 20.933,77.967 22.9,76.6" style="fill:#9999cb;fill-opacity:0.5;"/>
                </g>
                <g id="shape1" transform="matrix(-0.6712,-0.5337,-0.5337,0.6712,100.1,14.25)">
                    <path d="M26.4,22.9C26.233,23.133 25.967,23.283 25.6,23.35C24.567,23.55 22.917,23.067 20.65,21.9C17.55,20.333 14.2,18 10.6,14.9C7,11.833 4.2,8.883 2.2,6.05C0.467,3.65 -0.25,1.95 0.05,0.95L0.15,0.65L0.3,0.5C1.067,-0.4 2.983,-0.067 6.05,1.5C9.15,3.067 12.5,5.4 16.1,8.5C19.7,11.6 22.517,14.55 24.55,17.35C26.55,20.15 27.167,22 26.4,22.9" style="fill:#6d532c;"/>
                    <path d="M26.4,22.9C26.233,23.133 25.967,23.283 25.6,23.35C24.567,23.55 22.917,23.067 20.65,21.9C17.55,20.333 14.2,18 10.6,14.9C7,11.833 4.2,8.883 2.2,6.05C0.467,3.65 -0.25,1.95 0.05,0.95L0.15,0.65L0.3,0.5C1.067,-0.4 2.983,-0.067 6.05,1.5C9.15,3.067 12.5,5.4 16.1,8.5C19.7,11.6 22.517,14.55 24.55,17.35C26.55,20.15 27.167,22 26.4,22.9Z" style="fill:none;fill-rule:nonzero;stroke:#960;stroke-width:0.05px;"/>
                </g>
                <g id="shape11" serif:id="shape1" transform="matrix(-0.3193,-0.2539,-0.2539,0.3193,73.4,23.2)">
                    <path d="M26.4,22.9C26.233,23.133 25.967,23.283 25.6,23.35C24.567,23.55 22.917,23.067 20.65,21.9C17.55,20.333 14.2,18 10.6,14.9C7,11.833 4.2,8.883 2.2,6.05C0.467,3.65 -0.25,1.95 0.05,0.95L0.15,0.65L0.3,0.5C1.067,-0.4 2.983,-0.067 6.05,1.5C9.15,3.067 12.5,5.4 16.1,8.5C19.7,11.6 22.517,14.55 24.55,17.35C26.55,20.15 27.167,22 26.4,22.9" style="fill:#6d532c;"/>
                    <path d="M26.4,22.9C26.233,23.133 25.967,23.283 25.6,23.35C24.567,23.55 22.917,23.067 20.65,21.9C17.55,20.333 14.2,18 10.6,14.9C7,11.833 4.2,8.883 2.2,6.05C0.467,3.65 -0.25,1.95 0.05,0.95L0.15,0.65L0.3,0.5C1.067,-0.4 2.983,-0.067 6.05,1.5C9.15,3.067 12.5,5.4 16.1,8.5C19.7,11.6 22.517,14.55 24.55,17.35C26.55,20.15 27.167,22 26.4,22.9Z" style="fill:none;fill-rule:nonzero;stroke:#960;stroke-width:0.05px;"/>
                </g>
                <g id="shape12" serif:id="shape1" transform="matrix(-0.2665,-0.2119,-0.2119,0.2665,30.2,19.7)">
                    <path d="M26.4,22.9C26.233,23.133 25.967,23.283 25.6,23.35C24.567,23.55 22.917,23.067 20.65,21.9C17.55,20.333 14.2,18 10.6,14.9C7,11.833 4.2,8.883 2.2,6.05C0.467,3.65 -0.25,1.95 0.05,0.95L0.15,0.65L0.3,0.5C1.067,-0.4 2.983,-0.067 6.05,1.5C9.15,3.067 12.5,5.4 16.1,8.5C19.7,11.6 22.517,14.55 24.55,17.35C26.55,20.15 27.167,22 26.4,22.9" style="fill:#6d532c;"/>
                    <path d="M26.4,22.9C26.233,23.133 25.967,23.283 25.6,23.35C24.567,23.55 22.917,23.067 20.65,21.9C17.55,20.333 14.2,18 10.6,14.9C7,11.833 4.2,8.883 2.2,6.05C0.467,3.65 -0.25,1.95 0.05,0.95L0.15,0.65L0.3,0.5C1.067,-0.4 2.983,-0.067 6.05,1.5C9.15,3.067 12.5,5.4 16.1,8.5C19.7,11.6 22.517,14.55 24.55,17.35C26.55,20.15 27.167,22 26.4,22.9Z" style="fill:none;fill-rule:nonzero;stroke:#960;stroke-width:0.05px;"/>
                </g>
                <g id="shape13" serif:id="shape1" transform="matrix(-0.3193,-0.2539,-0.2539,0.3193,74.15,9.85)">
                    <path d="M26.4,22.9C26.233,23.133 25.967,23.283 25.6,23.35C24.567,23.55 22.917,23.067 20.65,21.9C17.55,20.333 14.2,18 10.6,14.9C7,11.833 4.2,8.883 2.2,6.05C0.467,3.65 -0.25,1.95 0.05,0.95L0.15,0.65L0.3,0.5C1.067,-0.4 2.983,-0.067 6.05,1.5C9.15,3.067 12.5,5.4 16.1,8.5C19.7,11.6 22.517,14.55 24.55,17.35C26.55,20.15 27.167,22 26.4,22.9" style="fill:#6d532c;"/>
                    <path d="M26.4,22.9C26.233,23.133 25.967,23.283 25.6,23.35C24.567,23.55 22.917,23.067 20.65,21.9C17.55,20.333 14.2,18 10.6,14.9C7,11.833 4.2,8.883 2.2,6.05C0.467,3.65 -0.25,1.95 0.05,0.95L0.15,0.65L0.3,0.5C1.067,-0.4 2.983,-0.067 6.05,1.5C9.15,3.067 12.5,5.4 16.1,8.5C19.7,11.6 22.517,14.55 24.55,17.35C26.55,20.15 27.167,22 26.4,22.9Z" style="fill:none;fill-rule:nonzero;stroke:#960;stroke-width:0.05px;"/>
                </g>
                <g id="shape14" serif:id="shape1" transform="matrix(-0.5619,-0.4467,-0.4467,0.5619,57.2,13.4)">
                    <path d="M26.4,22.9C26.233,23.133 25.967,23.283 25.6,23.35C24.567,23.55 22.917,23.067 20.65,21.9C17.55,20.333 14.2,18 10.6,14.9C7,11.833 4.2,8.883 2.2,6.05C0.467,3.65 -0.25,1.95 0.05,0.95L0.15,0.65L0.3,0.5C1.067,-0.4 2.983,-0.067 6.05,1.5C9.15,3.067 12.5,5.4 16.1,8.5C19.7,11.6 22.517,14.55 24.55,17.35C26.55,20.15 27.167,22 26.4,22.9" style="fill:#6d532c;"/>
                    <path d="M26.4,22.9C26.233,23.133 25.967,23.283 25.6,23.35C24.567,23.55 22.917,23.067 20.65,21.9C17.55,20.333 14.2,18 10.6,14.9C7,11.833 4.2,8.883 2.2,6.05C0.467,3.65 -0.25,1.95 0.05,0.95L0.15,0.65L0.3,0.5C1.067,-0.4 2.983,-0.067 6.05,1.5C9.15,3.067 12.5,5.4 16.1,8.5C19.7,11.6 22.517,14.55 24.55,17.35C26.55,20.15 27.167,22 26.4,22.9Z" style="fill:none;fill-rule:nonzero;stroke:#960;stroke-width:0.05px;"/>
                </g>
                <g id="shape2">
                    <path d="M92.4,75.35C95.067,77.15 97.683,79.217 100.25,81.55C111.65,92.25 117.35,105.183 117.35,120.35C117.25,135.45 111.533,148.333 100.2,159C87.9,170.367 74,176.05 58.5,176.05C51.1,176.05 44.133,174.717 37.6,172.05L62.5,168.75L76.7,154.8L77.75,119.05L57.75,86.25L57.55,85.1C67.683,85 76.45,83.417 83.85,80.35L84.5,80.15C87.9,78.683 90.533,77.083 92.4,75.35" style="fill:#9898cc;fill-opacity:0.7;"/>
                    <path d="M95.3,78.9C98.033,81.7 100.55,84.783 102.85,88.15C114.917,105.917 116.05,124.4 106.25,143.6C101.483,118.633 87.35,101.017 63.85,90.75L63.25,89.4L63.6,87.85L67.25,88.6L68.35,87.05L95.3,78.9M93.9,66.25C91.5,73.25 86.717,77.783 79.55,79.85C74.383,81.35 69.217,81.283 64.05,79.65C62.117,78.983 60.517,77.867 59.25,76.3L59.5,76.2C70.333,76.1 80.483,73.533 89.95,68.5L93.9,66.25M36,164L35.4,161.75C52.433,162.883 69.267,161.217 85.9,156.75C88.833,150.15 93.083,144.417 98.65,139.55L98.85,141.55C96.883,150.817 91.967,157.883 84.1,162.75C68.1,172.55 52.067,172.967 36,164" style="fill:#404280;fill-opacity:0.7;"/>
                    <path d="M11.85,99.2L16.7,102.55C16.233,120.35 19.283,137.45 25.85,153.85L23,152.3C2.567,137.133 -1.15,119.433 11.85,99.2M29.15,75.75C29.083,75.317 29.117,74.85 29.25,74.35L29.5,74.2C36.3,76.033 43.35,76.983 50.65,77.05L51.1,77.75C51.5,78.55 51.5,79.217 51.1,79.75C43.9,82.55 36.717,81.667 29.55,77.1C29.283,76.667 29.15,76.217 29.15,75.75M12,90.1L15.2,85.45C22.533,81.683 29.467,81.967 36,86.3C36.467,87.7 36.3,89.033 35.5,90.3C26.267,103.133 18.433,103.067 12,90.1M26.85,71.35C26.817,72.05 26.517,72.617 25.95,73.05C23.217,73.65 21.05,72.45 19.45,69.45C19.25,68.717 19.283,68.017 19.55,67.35C19.55,66.983 19.683,66.6 19.95,66.2L20.6,66.1C22.5,66.167 24.233,67.05 25.8,68.75C26.3,69.383 26.65,70.25 26.85,71.35" style="fill:#f2f2f9;fill-opacity:0.7;"/>
                </g>
            </g>
        </g>
    </g>
</svg>
