<?xml version="1.0" encoding="UTF-8" standalone="no"?>
<!DOCTYPE svg PUBLIC "-//W3C//DTD SVG 1.1//EN" "http://www.w3.org/Graphics/SVG/1.1/DTD/svg11.dtd">
<svg width="100%" height="100%" viewBox="0 0 1184 1716" version="1.1" xmlns="http://www.w3.org/2000/svg" xmlns:xlink="http://www.w3.org/1999/xlink" xml:space="preserve" xmlns:serif="http://www.serif.com/" style="fill-rule:evenodd;clip-rule:evenodd;stroke-linecap:round;stroke-linejoin:round;">
    <g transform="matrix(1,0,0,1,-2726.5,-2928)">
        <g transform="matrix(10,0,0,10,2731.5,2878.5)">
            <g id="sprite0">
                <g id="sprite1" transform="matrix(0.6124,0.1641,-0.1505,0.5618,24.7501,90.0499)">
                    <g id="shape0">
                        <path d="M58.05,40.25L75,67.45L84.4,76.8L86.1,79.4L90.85,88.95L90.85,95.6L83.55,91.7L83.75,91.8L71.3,73.15C73,75.25 74.367,76.633 75.4,77.3C79.067,79.733 82.25,82.45 84.95,85.45C83.983,83.417 82.783,81.467 81.35,79.6C78.083,75.4 74.45,71.383 70.45,67.55L70.45,67.9L57.05,49.9L61,45.6L58.05,40.25" style="fill:#9c8c73;"/>
                        <path d="M90.85,95.6L88.2,98.5L84.45,98.3L80.9,94.1L68.4,70L54.6,52.75L54.5,52.6L53.1,50.9L59.1,44.85L59.05,44.85C59.417,44.583 59.083,43.75 58.05,42.35L61,45.6L57.05,49.9L70.45,67.9L70.45,67.55C74.45,71.383 78.083,75.4 81.35,79.6C82.783,81.467 83.983,83.417 84.95,85.45C82.25,82.45 79.067,79.733 75.4,77.3C74.367,76.633 73,75.25 71.3,73.15L83.75,91.8L83.55,91.7L90.85,95.6M50.3,47.4L50.1,47.1L50.5,46.5L50.3,47.4" style="fill:#5a4e39;"/>
                        <path d="M50.1,47.1L50.1,57.7L55.3,74.05L58.65,78.25L50.5,79.45L49.8,79.55L49.85,79.45L45.25,80.15L46.5,77.75L46.3,77C46.267,76.733 46.367,76.5 46.6,76.3L47.3,75.65L47.7,75.4L45.2,72.95L45.5,72.55L45.45,71.05C45.617,68.417 45.633,65.783 45.5,63.15L45,62.55C43.733,61.25 42.217,60.383 40.45,59.95L42.05,59.05C44.25,57.683 45.65,55.633 46.25,52.9C46.583,51.333 46.617,49.867 46.35,48.5L45.75,47.95L41.45,45.95C40.017,45.283 38.85,44.417 37.95,43.35L36.45,42.5L35.7,41.8L35.15,41.8L33.9,40.25C33.967,39.517 34.15,38.85 34.45,38.25L35.85,35.1C36.417,32.867 36.65,30.583 36.55,28.25L36.5,22.25L36.65,22.55L38.25,25.15L49.7,25.15L53.75,19.3L66.15,19.3L66.15,19.55C64.55,20.25 63.2,21.267 62.1,22.6C61.967,22.767 61.833,22.867 61.7,22.9L61.3,22.95L59.6,23.3C59.333,23.367 59.117,23.483 58.95,23.65L58.65,24.05L58.95,24.25L59.85,25.05C60.117,25.383 60.033,25.65 59.6,25.85L58.95,26.15L58.2,26.65L56,28.3L55.9,28.5C55.9,28.833 56,29.133 56.2,29.4L56.45,29.65L56.9,29.7C57.567,29.567 58.2,29.333 58.8,29L58.95,28.95L59.3,28.75L60.65,28.8L60.85,29.05L61.5,31.2L61.6,31.55L61.7,33.75L61.7,37.45L61.8,37.45C62.567,37.05 63.083,36.483 63.35,35.75L63.85,33.75L63.85,33.55L63.9,32.55L63.9,30.45L63.85,29.2L63.8,28.25L63.85,27.55C63.883,27.25 64.05,27.05 64.35,26.95L65.15,26.35L65.6,26L66.9,25.15L67.55,24.7L69,23.9L70.1,23.4L70.8,23.15L73.65,22.4L75.15,22.1L63.25,40.25L58.05,40.25L58.05,41.45L57.35,40.65L57.25,40.7L57.35,40.25C57.45,39.683 57.283,39.233 56.85,38.9L56.1,39L55.3,39.5L53.3,40.95L54.15,39.75L55.35,38.55L55.9,37.3L55.85,34.8C55.75,33.933 55.35,33.217 54.65,32.65L53.75,32.25C52.217,31.85 50.717,31.867 49.25,32.3C49.35,31.933 49.333,31.583 49.2,31.25L48.55,30.2C48.017,29.567 47.333,29.183 46.5,29.05L45.75,29.35C45.183,29.617 44.583,29.75 43.95,29.75L44.1,29.15L44.1,28.15L43.9,27.75L42.3,27.1L41.95,27.4C40.783,28.267 39.883,29.367 39.25,30.7C38.783,31.7 38.55,32.783 38.55,33.95L38.55,37.9C38.617,39.4 39.033,40.767 39.8,42L40.85,43.4C42.117,44.7 43.667,45.333 45.5,45.3C44.133,43.167 43.017,40.917 42.15,38.55C41.917,37.983 41.833,37.383 41.9,36.75L42.05,33.95C42.05,33.65 42.15,33.6 42.35,33.8C42.35,36.033 42.95,38.133 44.15,40.1L45.45,41.95C45.75,42.35 46.133,42.567 46.6,42.6L46.05,40.8L45.4,39.4L44.95,37.85L44.75,36.2C44.65,35.633 44.783,35.15 45.15,34.75C46.283,34.483 46.967,34.967 47.2,36.2L47.15,36.85C46.95,37.317 46.933,37.75 47.1,38.15L48.05,38.1L49.55,36.75C49.917,36.05 50.483,35.5 51.25,35.1L51.6,34.95L52.25,34.95L53,35.4C53.333,35.633 53.467,35.95 53.4,36.35C53.267,37.183 52.867,37.883 52.2,38.45L50.45,39.85L49.75,40.5C49.383,41.1 49.333,41.683 49.6,42.25C49.733,42.55 49.75,42.867 49.65,43.2L49.1,43.55L48.6,43.9L47.9,44.8C47.767,45.1 47.85,45.367 48.15,45.6C48.583,46 49.1,46.1 49.7,45.9L50.8,45.65L50.5,46.5L50.1,47.1M25.9,14.2C25.733,14.033 25.55,13.967 25.35,14C24.817,14.2 24.367,14.567 24,15.1L24,15.4L24.05,15.6C24.15,15.767 24.317,15.867 24.55,15.9L24.85,15.8C25.583,15.5 25.95,14.983 25.95,14.25L25.9,14.2M23.85,14.8L24,14.4C24.467,13.733 25.167,13.483 26.1,13.65L26.2,13.7C26.533,13.633 26.8,13.733 27,14L27.1,14.25L27.1,14.5L27,14.8C26.867,15.6 26.55,16.35 26.05,17.05L25.75,17.25L24.8,17.35C24.567,17.35 24.383,17.25 24.25,17.05C23.883,16.483 23.733,15.817 23.8,15.05L23.85,14.8M20.7,21.85C20.9,22.25 20.95,22.683 20.85,23.15L20.5,24.35L20.25,24.95L19.9,25.55C19.6,25.95 19.183,26.117 18.65,26.05L18,25.9C17.4,25.7 17.05,25.317 16.95,24.75C16.883,24.217 16.983,23.75 17.25,23.35L17.7,22.8C18.167,22.133 18.717,21.567 19.35,21.1C19.983,21 20.433,21.25 20.7,21.85M14.9,34.8L14.95,35L15.2,35.25C16,35.217 16.317,34.783 16.15,33.95L16.1,33.9L15.7,33.7C15.5,33.733 15.35,33.817 15.25,33.95L15.15,34.15C15.017,34.35 14.933,34.567 14.9,34.8M18.6,24.1C18.767,24.333 18.983,24.433 19.25,24.4L19.4,24.25C19.733,23.817 19.817,23.333 19.65,22.8L19.6,22.7L19.2,22.5L19,22.65C18.633,23.05 18.5,23.533 18.6,24.1M14.3,36.8C13.767,36.367 13.55,35.8 13.65,35.1C13.783,33.967 14.467,33.067 15.7,32.4L16.1,32.5L16.65,32.85L17.15,33.65C17.35,34.417 17.267,35.117 16.9,35.75L16.6,36.35C16.367,36.783 16.033,37.033 15.6,37.1C15.067,37.167 14.633,37.067 14.3,36.8M28.45,67.65L29.55,67.95L30,68.4C30.3,68.933 30.433,69.517 30.4,70.15L30.2,71.25L29.95,71.65L29.4,71.9L28.7,72.05C28.033,72.117 27.483,71.9 27.05,71.4L26.75,70.95C26.45,70.25 26.4,69.517 26.6,68.75C26.9,67.85 27.517,67.483 28.45,67.65M28.55,68.9C28.117,69.367 28.05,69.9 28.35,70.5L29.05,70.55L29.15,70.3L29.15,69.05L29.1,69L28.7,68.8C28.667,68.8 28.617,68.833 28.55,68.9M36.85,73.4C37.517,73.1 38.333,73.233 39.3,73.8C39.833,74.567 39.933,75.45 39.6,76.45C39.433,76.95 39.067,77.183 38.5,77.15L37.8,77.05C36.967,76.783 36.517,76.217 36.45,75.35L36.3,74.5C36.233,73.967 36.417,73.6 36.85,73.4M38.4,74.5L38.3,74.45L37.95,74.25C37.75,74.25 37.583,74.333 37.45,74.5L37.4,74.75C37.3,75.317 37.45,75.8 37.85,76.2C38.217,76.333 38.45,76.217 38.55,75.85L38.55,75.7L38.4,74.5M48.65,76.45L48.6,76.35C48.5,76.15 48.35,76.05 48.15,76.05C47.75,76.083 47.483,76.283 47.35,76.65C47.317,76.983 47.483,77.183 47.85,77.25C48.383,77.183 48.65,76.917 48.65,76.45" style="fill:#575d60;"/>
                        <path d="M58.65,78.25L62,82.45L58.4,85.6L58.15,85.85L58.15,85.8C58.117,84.867 57.633,84.367 56.7,84.3L52.6,84.3L50.1,82.6L50.5,79.45L58.65,78.25M7,11.25L11.15,6.3L11.35,6.05L26,0L26.5,7.5L23.95,8.1L19.25,9.1L19.2,9.1L11.35,6.1L16.4,12.15L13.5,15.3L7,11.25M66.15,19.55L67.05,19.3L76.95,19.3L75.15,22.1L73.65,22.4L70.8,23.15L70.1,23.4L69,23.9L67.55,24.7L66.9,25.15L65.6,26L65.15,26.35L64.35,26.95C64.05,27.05 63.883,27.25 63.85,27.55L63.8,28.25L63.85,29.2L63.9,30.45L63.9,32.55L63.85,33.55L63.85,33.75L63.35,35.75C63.083,36.483 62.567,37.05 61.8,37.45L61.7,37.45L61.7,33.75L61.6,31.55L61.5,31.2L60.85,29.05L60.65,28.8L59.3,28.75L58.95,28.95L58.8,29C58.2,29.333 57.567,29.567 56.9,29.7L56.45,29.65L56.2,29.4C56,29.133 55.9,28.833 55.9,28.5L56,28.3L58.2,26.65L58.95,26.15L59.6,25.85C60.033,25.65 60.117,25.383 59.85,25.05L58.95,24.25L58.65,24.05L58.95,23.65C59.117,23.483 59.333,23.367 59.6,23.3L61.3,22.95L61.7,22.9C61.833,22.867 61.967,22.767 62.1,22.6C63.2,21.267 64.55,20.25 66.15,19.55M50.8,45.65L49.7,45.9C49.1,46.1 48.583,46 48.15,45.6C47.85,45.367 47.767,45.1 47.9,44.8L48.6,43.9L49.1,43.55L49.65,43.2C49.75,42.867 49.733,42.55 49.6,42.25C49.333,41.683 49.383,41.1 49.75,40.5L50.45,39.85L52.2,38.45C52.867,37.883 53.267,37.183 53.4,36.35C53.467,35.95 53.333,35.633 53,35.4L52.25,34.95L51.6,34.95L51.25,35.1C50.483,35.5 49.917,36.05 49.55,36.75L48.05,38.1L47.1,38.15C46.933,37.75 46.95,37.317 47.15,36.85L47.2,36.2C46.967,34.967 46.283,34.483 45.15,34.75C44.783,35.15 44.65,35.633 44.75,36.2L44.95,37.85L45.4,39.4L46.05,40.8L46.6,42.6C46.133,42.567 45.75,42.35 45.45,41.95L44.15,40.1C42.95,38.133 42.35,36.033 42.35,33.8C42.15,33.6 42.05,33.65 42.05,33.95L41.9,36.75C41.833,37.383 41.917,37.983 42.15,38.55C43.017,40.917 44.133,43.167 45.5,45.3C43.667,45.333 42.117,44.7 40.85,43.4L39.8,42C39.033,40.767 38.617,39.4 38.55,37.9L38.55,33.95C38.55,32.783 38.783,31.7 39.25,30.7C39.883,29.367 40.783,28.267 41.95,27.4L42.3,27.1L43.9,27.75L44.1,28.15L44.1,29.15L43.95,29.75C44.583,29.75 45.183,29.617 45.75,29.35L46.5,29.05C47.333,29.183 48.017,29.567 48.55,30.2L49.2,31.25C49.333,31.583 49.35,31.933 49.25,32.3C50.717,31.867 52.217,31.85 53.75,32.25L54.65,32.65C55.35,33.217 55.75,33.933 55.85,34.8L55.9,37.3L55.35,38.55L54.15,39.75L53.3,40.95L55.3,39.5L56.1,39L56.85,38.9C57.283,39.233 57.45,39.683 57.35,40.25L57.25,40.7L57.2,41.05L56.8,42L56.45,42.3C55.983,42.6 55.567,42.95 55.2,43.35C54.267,44.417 53.117,45.1 51.75,45.4L51.05,45.6L50.8,45.65M25.9,14.2L25.95,14.25C25.95,14.983 25.583,15.5 24.85,15.8L24.55,15.9C24.317,15.867 24.15,15.767 24.05,15.6L24,15.4L24,15.1C24.367,14.567 24.817,14.2 25.35,14C25.55,13.967 25.733,14.033 25.9,14.2M14,56.75L18.5,66.25L20.55,68.7L14.6,67.5L9.85,57.95L14,56.75M18.6,24.1C18.5,23.533 18.633,23.05 19,22.65L19.2,22.5L19.6,22.7L19.65,22.8C19.817,23.333 19.733,23.817 19.4,24.25L19.25,24.4C18.983,24.433 18.767,24.333 18.6,24.1M14.9,34.8C14.933,34.567 15.017,34.35 15.15,34.15L15.25,33.95C15.35,33.817 15.5,33.733 15.7,33.7L16.1,33.9L16.15,33.95C16.317,34.783 16,35.217 15.2,35.25L14.95,35L14.9,34.8M28.55,68.9C28.617,68.833 28.667,68.8 28.7,68.8L29.1,69L29.15,69.05L29.15,70.3L29.05,70.55L28.35,70.5C28.05,69.9 28.117,69.367 28.55,68.9M38.4,74.5L38.55,75.7L38.55,75.85C38.45,76.217 38.217,76.333 37.85,76.2C37.45,75.8 37.3,75.317 37.4,74.75L37.45,74.5C37.583,74.333 37.75,74.25 37.95,74.25L38.3,74.45L38.4,74.5M58.4,85.6L58.15,85.8L58.4,85.6M48.65,76.45C48.65,76.917 48.383,77.183 47.85,77.25C47.483,77.183 47.317,76.983 47.35,76.65C47.483,76.283 47.75,76.083 48.15,76.05C48.35,76.05 48.5,76.15 48.6,76.35L48.65,76.45" style="fill:#e7e7de;"/>
                        <path d="M53.1,50.9L50.3,47.4L50.5,46.5L50.8,45.65L51.05,45.6L51.75,45.4C53.117,45.1 54.267,44.417 55.2,43.35C55.567,42.95 55.983,42.6 56.45,42.3L56.8,42L57.2,41.05L57.25,40.7L57.35,40.65L58.05,41.45L58.05,40.25L61,45.6L58.05,42.35C59.083,43.75 59.417,44.583 59.05,44.85L59.1,44.85L53.1,50.9M59.05,44.85L58.05,42.35L58.05,41.45L58.05,42.35L59.05,44.85" style="fill:#3a3025;"/>
                        <path d="M33.8,17.9L36.3,22L36.5,22.25L36.55,28.25C36.65,30.583 36.417,32.867 35.85,35.1L34.45,38.25C34.15,38.85 33.967,39.517 33.9,40.25L35.15,41.8L35.7,41.8L36.45,42.5L37.95,43.35C38.85,44.417 40.017,45.283 41.45,45.95L45.75,47.95L46.35,48.5C46.617,49.867 46.583,51.333 46.25,52.9C45.65,55.633 44.25,57.683 42.05,59.05L40.45,59.95C42.217,60.383 43.733,61.25 45,62.55L45.5,63.15C45.633,65.783 45.617,68.417 45.45,71.05L45.5,72.55L45.2,72.95L42.55,70.3L42.55,65.85L34.15,58.3L42,58.3L45.9,49.9L39.5,46.25L28.3,40.95L33.75,30.6L33.8,17.9" style="fill:#72899c;"/>
                        <path d="M58.15,85.85L57.8,86.1L58.15,85.8L58.15,85.85M56.35,84.3C57.317,84.367 57.833,84.867 57.9,85.8L56.25,87.35C46.883,89.583 39.45,89.717 33.95,87.75L23.65,84.25C18.717,80.183 14.383,75.583 10.65,70.45C6.817,65.183 4.05,59.467 2.35,53.3C-0.317,43.8 -0.733,34.383 1.1,25.05C2.1,19.95 4.067,15.35 7,11.25L13.5,15.3L16.4,12.15L11.35,6.1L19.2,9.1L19.25,9.1L23.95,8.1L24.65,9.1L18.5,15.3C13.533,23.333 11,32.167 10.9,41.8C10.833,46.633 11.717,51.267 13.55,55.7L14,56.75L9.85,57.95L14.6,67.5L20.55,68.7L26.75,76.15C31.45,78.117 35.967,79.383 40.3,79.95L44.6,80.2L45.25,80.15L49.85,79.45L49.8,79.55L49.65,82.6L52.3,84.3L56.35,84.3" style="fill:#fff;"/>
                        <path d="M24.65,9.1L32.05,7.5L32.05,14.5L30.55,14.95L29.15,15.8L28.55,16.9L27.75,17.15C26.083,22.117 24.233,26.417 22.2,30.05L21.3,32.25L22.15,34.25C22.15,34.717 21.933,35.15 21.5,35.55L20.75,36.2L20.2,37.6L19.9,41.2L17.7,41.75L16.25,42.9L16,47.35C18.3,46.35 21,46.083 24.1,46.55L23.25,52.95C24.95,53.583 26.817,53.767 28.85,53.5L30.8,52.4C29.167,55.7 26.283,58.3 22.15,60.2L21.85,60.25C18.783,59.183 16.017,57.667 13.55,55.7C11.717,51.267 10.833,46.633 10.9,41.8C11,32.167 13.533,23.333 18.5,15.3L24.65,9.1M23.8,15.05C23.733,15.817 23.883,16.483 24.25,17.05C24.383,17.25 24.567,17.35 24.8,17.35L25.75,17.25L26.05,17.05C26.55,16.35 26.867,15.6 27,14.8L27.1,14.5L27.1,14.25L27,14C26.8,13.733 26.533,13.633 26.2,13.7L26.1,13.65C25.167,13.483 24.467,13.733 24,14.4L23.85,14.8L23.7,14.95L23.8,15.05M20.7,21.85C20.433,21.25 19.983,21 19.35,21.1C18.717,21.567 18.167,22.133 17.7,22.8L17.25,23.35C16.983,23.75 16.883,24.217 16.95,24.75C17.05,25.317 17.4,25.7 18,25.9L18.65,26.05C19.183,26.117 19.6,25.95 19.9,25.55L20.25,24.95L20.5,24.35L20.85,23.15C20.95,22.683 20.9,22.25 20.7,21.85M14.3,36.8C14.633,37.067 15.067,37.167 15.6,37.1C16.033,37.033 16.367,36.783 16.6,36.35L16.9,35.75C17.267,35.117 17.35,34.417 17.15,33.65L16.65,32.85L16.1,32.5L15.7,32.4C14.467,33.067 13.783,33.967 13.65,35.1C13.55,35.8 13.767,36.367 14.3,36.8" style="fill:#7b8c94;"/>
                        <path d="M32.05,14.5L32.05,15.1L33.8,17.9L33.75,30.6L28.3,40.95L39.5,46.25L45.9,49.9L42,58.3L34.15,58.3L42.55,65.85L42.55,70.3L45.2,72.95L47.7,75.4L47.3,75.65L46.6,76.3C46.367,76.5 46.267,76.733 46.3,77L46.5,77.75L45.25,80.15L44.6,80.2L40.3,79.95C35.967,79.383 31.45,78.117 26.75,76.15L20.55,68.7L18.5,66.25L14,56.75L13.55,55.7C16.017,57.667 18.783,59.183 21.85,60.25L22.15,60.2C26.283,58.3 29.167,55.7 30.8,52.4L28.85,53.5C26.817,53.767 24.95,53.583 23.25,52.95L24.1,46.55C21,46.083 18.3,46.35 16,47.35L16.25,42.9L17.7,41.75L19.9,41.2L20.2,37.6L20.75,36.2L21.5,35.55C21.933,35.15 22.15,34.717 22.15,34.25L21.3,32.25L22.2,30.05C24.233,26.417 26.083,22.117 27.75,17.15L28.55,16.9L29.15,15.8L30.55,14.95L32.05,14.5M28.45,67.65C27.517,67.483 26.9,67.85 26.6,68.75C26.4,69.517 26.45,70.25 26.75,70.95L27.05,71.4C27.483,71.9 28.033,72.117 28.7,72.05L29.4,71.9L29.95,71.65L30.2,71.25L30.4,70.15C30.433,69.517 30.3,68.933 30,68.4L29.55,67.95L28.45,67.65M36.85,73.4C36.417,73.6 36.233,73.967 36.3,74.5L36.45,75.35C36.517,76.217 36.967,76.783 37.8,77.05L38.5,77.15C39.067,77.183 39.433,76.95 39.6,76.45C39.933,75.45 39.833,74.567 39.3,73.8C38.333,73.233 37.517,73.1 36.85,73.4" style="fill:#adbac6;"/>
                        <path d="M90.85,95.6L88.2,98.5L84.45,98.3L80.9,94.1L68.4,70L54.6,52.75L54.5,52.6L53.1,50.9L50.3,47.4L50.1,47.1L50.1,57.7L55.3,74.05L62,82.45L58.4,85.6L58.15,85.8M57.9,85.8L56.25,87.35C46.883,89.583 39.45,89.717 33.95,87.75L23.65,84.25C18.717,80.183 14.383,75.583 10.65,70.45C6.817,65.183 4.05,59.467 2.35,53.3C-0.317,43.8 -0.733,34.383 1.1,25.05C2.1,19.95 4.067,15.35 7,11.25L11.15,6.3M11.35,6.05L26,0L26.5,7.5M32.05,7.5L32.05,15.1L33.8,17.9L36.3,22L36.5,22.25L36.65,22.55L38.25,25.15L49.7,25.15L53.75,19.3L66.15,19.3L66.15,19.55L67.05,19.3L76.95,19.3L75.15,22.1L63.25,40.25L58.05,40.25L75,67.45L84.4,76.8L86.1,79.4L90.85,88.95L90.85,95.6M59.05,44.85L59.1,44.85M61.8,37.45L61.7,37.45M58.05,41.45L58.05,40.25M58.05,41.45L58.05,42.35L59.05,44.85M23.85,14.8L23.8,15.05L23.7,14.95L23.85,14.8" style="fill:none;fill-rule:nonzero;stroke:#000;stroke-opacity:0.5;stroke-width:1px;"/>
                    </g>
                </g>
                <g id="sprite11" serif:id="sprite1" transform="matrix(-0.6124,0.1641,0.1506,0.5618,96.8,89.9)">
                    <g id="shape01" serif:id="shape0">
                        <path d="M58.05,40.25L75,67.45L84.4,76.8L86.1,79.4L90.85,88.95L90.85,95.6L83.55,91.7L83.75,91.8L71.3,73.15C73,75.25 74.367,76.633 75.4,77.3C79.067,79.733 82.25,82.45 84.95,85.45C83.983,83.417 82.783,81.467 81.35,79.6C78.083,75.4 74.45,71.383 70.45,67.55L70.45,67.9L57.05,49.9L61,45.6L58.05,40.25" style="fill:#9c8c73;"/>
                        <path d="M90.85,95.6L88.2,98.5L84.45,98.3L80.9,94.1L68.4,70L54.6,52.75L54.5,52.6L53.1,50.9L59.1,44.85L59.05,44.85C59.417,44.583 59.083,43.75 58.05,42.35L61,45.6L57.05,49.9L70.45,67.9L70.45,67.55C74.45,71.383 78.083,75.4 81.35,79.6C82.783,81.467 83.983,83.417 84.95,85.45C82.25,82.45 79.067,79.733 75.4,77.3C74.367,76.633 73,75.25 71.3,73.15L83.75,91.8L83.55,91.7L90.85,95.6M50.3,47.4L50.1,47.1L50.5,46.5L50.3,47.4" style="fill:#5a4e39;"/>
                        <path d="M50.1,47.1L50.1,57.7L55.3,74.05L58.65,78.25L50.5,79.45L49.8,79.55L49.85,79.45L45.25,80.15L46.5,77.75L46.3,77C46.267,76.733 46.367,76.5 46.6,76.3L47.3,75.65L47.7,75.4L45.2,72.95L45.5,72.55L45.45,71.05C45.617,68.417 45.633,65.783 45.5,63.15L45,62.55C43.733,61.25 42.217,60.383 40.45,59.95L42.05,59.05C44.25,57.683 45.65,55.633 46.25,52.9C46.583,51.333 46.617,49.867 46.35,48.5L45.75,47.95L41.45,45.95C40.017,45.283 38.85,44.417 37.95,43.35L36.45,42.5L35.7,41.8L35.15,41.8L33.9,40.25C33.967,39.517 34.15,38.85 34.45,38.25L35.85,35.1C36.417,32.867 36.65,30.583 36.55,28.25L36.5,22.25L36.65,22.55L38.25,25.15L49.7,25.15L53.75,19.3L66.15,19.3L66.15,19.55C64.55,20.25 63.2,21.267 62.1,22.6C61.967,22.767 61.833,22.867 61.7,22.9L61.3,22.95L59.6,23.3C59.333,23.367 59.117,23.483 58.95,23.65L58.65,24.05L58.95,24.25L59.85,25.05C60.117,25.383 60.033,25.65 59.6,25.85L58.95,26.15L58.2,26.65L56,28.3L55.9,28.5C55.9,28.833 56,29.133 56.2,29.4L56.45,29.65L56.9,29.7C57.567,29.567 58.2,29.333 58.8,29L58.95,28.95L59.3,28.75L60.65,28.8L60.85,29.05L61.5,31.2L61.6,31.55L61.7,33.75L61.7,37.45L61.8,37.45C62.567,37.05 63.083,36.483 63.35,35.75L63.85,33.75L63.85,33.55L63.9,32.55L63.9,30.45L63.85,29.2L63.8,28.25L63.85,27.55C63.883,27.25 64.05,27.05 64.35,26.95L65.15,26.35L65.6,26L66.9,25.15L67.55,24.7L69,23.9L70.1,23.4L70.8,23.15L73.65,22.4L75.15,22.1L63.25,40.25L58.05,40.25L58.05,41.45L57.35,40.65L57.25,40.7L57.35,40.25C57.45,39.683 57.283,39.233 56.85,38.9L56.1,39L55.3,39.5L53.3,40.95L54.15,39.75L55.35,38.55L55.9,37.3L55.85,34.8C55.75,33.933 55.35,33.217 54.65,32.65L53.75,32.25C52.217,31.85 50.717,31.867 49.25,32.3C49.35,31.933 49.333,31.583 49.2,31.25L48.55,30.2C48.017,29.567 47.333,29.183 46.5,29.05L45.75,29.35C45.183,29.617 44.583,29.75 43.95,29.75L44.1,29.15L44.1,28.15L43.9,27.75L42.3,27.1L41.95,27.4C40.783,28.267 39.883,29.367 39.25,30.7C38.783,31.7 38.55,32.783 38.55,33.95L38.55,37.9C38.617,39.4 39.033,40.767 39.8,42L40.85,43.4C42.117,44.7 43.667,45.333 45.5,45.3C44.133,43.167 43.017,40.917 42.15,38.55C41.917,37.983 41.833,37.383 41.9,36.75L42.05,33.95C42.05,33.65 42.15,33.6 42.35,33.8C42.35,36.033 42.95,38.133 44.15,40.1L45.45,41.95C45.75,42.35 46.133,42.567 46.6,42.6L46.05,40.8L45.4,39.4L44.95,37.85L44.75,36.2C44.65,35.633 44.783,35.15 45.15,34.75C46.283,34.483 46.967,34.967 47.2,36.2L47.15,36.85C46.95,37.317 46.933,37.75 47.1,38.15L48.05,38.1L49.55,36.75C49.917,36.05 50.483,35.5 51.25,35.1L51.6,34.95L52.25,34.95L53,35.4C53.333,35.633 53.467,35.95 53.4,36.35C53.267,37.183 52.867,37.883 52.2,38.45L50.45,39.85L49.75,40.5C49.383,41.1 49.333,41.683 49.6,42.25C49.733,42.55 49.75,42.867 49.65,43.2L49.1,43.55L48.6,43.9L47.9,44.8C47.767,45.1 47.85,45.367 48.15,45.6C48.583,46 49.1,46.1 49.7,45.9L50.8,45.65L50.5,46.5L50.1,47.1M25.9,14.2C25.733,14.033 25.55,13.967 25.35,14C24.817,14.2 24.367,14.567 24,15.1L24,15.4L24.05,15.6C24.15,15.767 24.317,15.867 24.55,15.9L24.85,15.8C25.583,15.5 25.95,14.983 25.95,14.25L25.9,14.2M23.85,14.8L24,14.4C24.467,13.733 25.167,13.483 26.1,13.65L26.2,13.7C26.533,13.633 26.8,13.733 27,14L27.1,14.25L27.1,14.5L27,14.8C26.867,15.6 26.55,16.35 26.05,17.05L25.75,17.25L24.8,17.35C24.567,17.35 24.383,17.25 24.25,17.05C23.883,16.483 23.733,15.817 23.8,15.05L23.85,14.8M20.7,21.85C20.9,22.25 20.95,22.683 20.85,23.15L20.5,24.35L20.25,24.95L19.9,25.55C19.6,25.95 19.183,26.117 18.65,26.05L18,25.9C17.4,25.7 17.05,25.317 16.95,24.75C16.883,24.217 16.983,23.75 17.25,23.35L17.7,22.8C18.167,22.133 18.717,21.567 19.35,21.1C19.983,21 20.433,21.25 20.7,21.85M14.9,34.8L14.95,35L15.2,35.25C16,35.217 16.317,34.783 16.15,33.95L16.1,33.9L15.7,33.7C15.5,33.733 15.35,33.817 15.25,33.95L15.15,34.15C15.017,34.35 14.933,34.567 14.9,34.8M18.6,24.1C18.767,24.333 18.983,24.433 19.25,24.4L19.4,24.25C19.733,23.817 19.817,23.333 19.65,22.8L19.6,22.7L19.2,22.5L19,22.65C18.633,23.05 18.5,23.533 18.6,24.1M14.3,36.8C13.767,36.367 13.55,35.8 13.65,35.1C13.783,33.967 14.467,33.067 15.7,32.4L16.1,32.5L16.65,32.85L17.15,33.65C17.35,34.417 17.267,35.117 16.9,35.75L16.6,36.35C16.367,36.783 16.033,37.033 15.6,37.1C15.067,37.167 14.633,37.067 14.3,36.8M28.45,67.65L29.55,67.95L30,68.4C30.3,68.933 30.433,69.517 30.4,70.15L30.2,71.25L29.95,71.65L29.4,71.9L28.7,72.05C28.033,72.117 27.483,71.9 27.05,71.4L26.75,70.95C26.45,70.25 26.4,69.517 26.6,68.75C26.9,67.85 27.517,67.483 28.45,67.65M28.55,68.9C28.117,69.367 28.05,69.9 28.35,70.5L29.05,70.55L29.15,70.3L29.15,69.05L29.1,69L28.7,68.8C28.667,68.8 28.617,68.833 28.55,68.9M36.85,73.4C37.517,73.1 38.333,73.233 39.3,73.8C39.833,74.567 39.933,75.45 39.6,76.45C39.433,76.95 39.067,77.183 38.5,77.15L37.8,77.05C36.967,76.783 36.517,76.217 36.45,75.35L36.3,74.5C36.233,73.967 36.417,73.6 36.85,73.4M38.4,74.5L38.3,74.45L37.95,74.25C37.75,74.25 37.583,74.333 37.45,74.5L37.4,74.75C37.3,75.317 37.45,75.8 37.85,76.2C38.217,76.333 38.45,76.217 38.55,75.85L38.55,75.7L38.4,74.5M48.65,76.45L48.6,76.35C48.5,76.15 48.35,76.05 48.15,76.05C47.75,76.083 47.483,76.283 47.35,76.65C47.317,76.983 47.483,77.183 47.85,77.25C48.383,77.183 48.65,76.917 48.65,76.45" style="fill:#575d60;"/>
                        <path d="M58.65,78.25L62,82.45L58.4,85.6L58.15,85.85L58.15,85.8C58.117,84.867 57.633,84.367 56.7,84.3L52.6,84.3L50.1,82.6L50.5,79.45L58.65,78.25M7,11.25L11.15,6.3L11.35,6.05L26,0L26.5,7.5L23.95,8.1L19.25,9.1L19.2,9.1L11.35,6.1L16.4,12.15L13.5,15.3L7,11.25M66.15,19.55L67.05,19.3L76.95,19.3L75.15,22.1L73.65,22.4L70.8,23.15L70.1,23.4L69,23.9L67.55,24.7L66.9,25.15L65.6,26L65.15,26.35L64.35,26.95C64.05,27.05 63.883,27.25 63.85,27.55L63.8,28.25L63.85,29.2L63.9,30.45L63.9,32.55L63.85,33.55L63.85,33.75L63.35,35.75C63.083,36.483 62.567,37.05 61.8,37.45L61.7,37.45L61.7,33.75L61.6,31.55L61.5,31.2L60.85,29.05L60.65,28.8L59.3,28.75L58.95,28.95L58.8,29C58.2,29.333 57.567,29.567 56.9,29.7L56.45,29.65L56.2,29.4C56,29.133 55.9,28.833 55.9,28.5L56,28.3L58.2,26.65L58.95,26.15L59.6,25.85C60.033,25.65 60.117,25.383 59.85,25.05L58.95,24.25L58.65,24.05L58.95,23.65C59.117,23.483 59.333,23.367 59.6,23.3L61.3,22.95L61.7,22.9C61.833,22.867 61.967,22.767 62.1,22.6C63.2,21.267 64.55,20.25 66.15,19.55M50.8,45.65L49.7,45.9C49.1,46.1 48.583,46 48.15,45.6C47.85,45.367 47.767,45.1 47.9,44.8L48.6,43.9L49.1,43.55L49.65,43.2C49.75,42.867 49.733,42.55 49.6,42.25C49.333,41.683 49.383,41.1 49.75,40.5L50.45,39.85L52.2,38.45C52.867,37.883 53.267,37.183 53.4,36.35C53.467,35.95 53.333,35.633 53,35.4L52.25,34.95L51.6,34.95L51.25,35.1C50.483,35.5 49.917,36.05 49.55,36.75L48.05,38.1L47.1,38.15C46.933,37.75 46.95,37.317 47.15,36.85L47.2,36.2C46.967,34.967 46.283,34.483 45.15,34.75C44.783,35.15 44.65,35.633 44.75,36.2L44.95,37.85L45.4,39.4L46.05,40.8L46.6,42.6C46.133,42.567 45.75,42.35 45.45,41.95L44.15,40.1C42.95,38.133 42.35,36.033 42.35,33.8C42.15,33.6 42.05,33.65 42.05,33.95L41.9,36.75C41.833,37.383 41.917,37.983 42.15,38.55C43.017,40.917 44.133,43.167 45.5,45.3C43.667,45.333 42.117,44.7 40.85,43.4L39.8,42C39.033,40.767 38.617,39.4 38.55,37.9L38.55,33.95C38.55,32.783 38.783,31.7 39.25,30.7C39.883,29.367 40.783,28.267 41.95,27.4L42.3,27.1L43.9,27.75L44.1,28.15L44.1,29.15L43.95,29.75C44.583,29.75 45.183,29.617 45.75,29.35L46.5,29.05C47.333,29.183 48.017,29.567 48.55,30.2L49.2,31.25C49.333,31.583 49.35,31.933 49.25,32.3C50.717,31.867 52.217,31.85 53.75,32.25L54.65,32.65C55.35,33.217 55.75,33.933 55.85,34.8L55.9,37.3L55.35,38.55L54.15,39.75L53.3,40.95L55.3,39.5L56.1,39L56.85,38.9C57.283,39.233 57.45,39.683 57.35,40.25L57.25,40.7L57.2,41.05L56.8,42L56.45,42.3C55.983,42.6 55.567,42.95 55.2,43.35C54.267,44.417 53.117,45.1 51.75,45.4L51.05,45.6L50.8,45.65M25.9,14.2L25.95,14.25C25.95,14.983 25.583,15.5 24.85,15.8L24.55,15.9C24.317,15.867 24.15,15.767 24.05,15.6L24,15.4L24,15.1C24.367,14.567 24.817,14.2 25.35,14C25.55,13.967 25.733,14.033 25.9,14.2M14,56.75L18.5,66.25L20.55,68.7L14.6,67.5L9.85,57.95L14,56.75M18.6,24.1C18.5,23.533 18.633,23.05 19,22.65L19.2,22.5L19.6,22.7L19.65,22.8C19.817,23.333 19.733,23.817 19.4,24.25L19.25,24.4C18.983,24.433 18.767,24.333 18.6,24.1M14.9,34.8C14.933,34.567 15.017,34.35 15.15,34.15L15.25,33.95C15.35,33.817 15.5,33.733 15.7,33.7L16.1,33.9L16.15,33.95C16.317,34.783 16,35.217 15.2,35.25L14.95,35L14.9,34.8M28.55,68.9C28.617,68.833 28.667,68.8 28.7,68.8L29.1,69L29.15,69.05L29.15,70.3L29.05,70.55L28.35,70.5C28.05,69.9 28.117,69.367 28.55,68.9M38.4,74.5L38.55,75.7L38.55,75.85C38.45,76.217 38.217,76.333 37.85,76.2C37.45,75.8 37.3,75.317 37.4,74.75L37.45,74.5C37.583,74.333 37.75,74.25 37.95,74.25L38.3,74.45L38.4,74.5M58.4,85.6L58.15,85.8L58.4,85.6M48.65,76.45C48.65,76.917 48.383,77.183 47.85,77.25C47.483,77.183 47.317,76.983 47.35,76.65C47.483,76.283 47.75,76.083 48.15,76.05C48.35,76.05 48.5,76.15 48.6,76.35L48.65,76.45" style="fill:#e7e7de;"/>
                        <path d="M53.1,50.9L50.3,47.4L50.5,46.5L50.8,45.65L51.05,45.6L51.75,45.4C53.117,45.1 54.267,44.417 55.2,43.35C55.567,42.95 55.983,42.6 56.45,42.3L56.8,42L57.2,41.05L57.25,40.7L57.35,40.65L58.05,41.45L58.05,40.25L61,45.6L58.05,42.35C59.083,43.75 59.417,44.583 59.05,44.85L59.1,44.85L53.1,50.9M59.05,44.85L58.05,42.35L58.05,41.45L58.05,42.35L59.05,44.85" style="fill:#3a3025;"/>
                        <path d="M33.8,17.9L36.3,22L36.5,22.25L36.55,28.25C36.65,30.583 36.417,32.867 35.85,35.1L34.45,38.25C34.15,38.85 33.967,39.517 33.9,40.25L35.15,41.8L35.7,41.8L36.45,42.5L37.95,43.35C38.85,44.417 40.017,45.283 41.45,45.95L45.75,47.95L46.35,48.5C46.617,49.867 46.583,51.333 46.25,52.9C45.65,55.633 44.25,57.683 42.05,59.05L40.45,59.95C42.217,60.383 43.733,61.25 45,62.55L45.5,63.15C45.633,65.783 45.617,68.417 45.45,71.05L45.5,72.55L45.2,72.95L42.55,70.3L42.55,65.85L34.15,58.3L42,58.3L45.9,49.9L39.5,46.25L28.3,40.95L33.75,30.6L33.8,17.9" style="fill:#72899c;"/>
                        <path d="M58.15,85.85L57.8,86.1L58.15,85.8L58.15,85.85M56.35,84.3C57.317,84.367 57.833,84.867 57.9,85.8L56.25,87.35C46.883,89.583 39.45,89.717 33.95,87.75L23.65,84.25C18.717,80.183 14.383,75.583 10.65,70.45C6.817,65.183 4.05,59.467 2.35,53.3C-0.317,43.8 -0.733,34.383 1.1,25.05C2.1,19.95 4.067,15.35 7,11.25L13.5,15.3L16.4,12.15L11.35,6.1L19.2,9.1L19.25,9.1L23.95,8.1L24.65,9.1L18.5,15.3C13.533,23.333 11,32.167 10.9,41.8C10.833,46.633 11.717,51.267 13.55,55.7L14,56.75L9.85,57.95L14.6,67.5L20.55,68.7L26.75,76.15C31.45,78.117 35.967,79.383 40.3,79.95L44.6,80.2L45.25,80.15L49.85,79.45L49.8,79.55L49.65,82.6L52.3,84.3L56.35,84.3" style="fill:#fff;"/>
                        <path d="M24.65,9.1L32.05,7.5L32.05,14.5L30.55,14.95L29.15,15.8L28.55,16.9L27.75,17.15C26.083,22.117 24.233,26.417 22.2,30.05L21.3,32.25L22.15,34.25C22.15,34.717 21.933,35.15 21.5,35.55L20.75,36.2L20.2,37.6L19.9,41.2L17.7,41.75L16.25,42.9L16,47.35C18.3,46.35 21,46.083 24.1,46.55L23.25,52.95C24.95,53.583 26.817,53.767 28.85,53.5L30.8,52.4C29.167,55.7 26.283,58.3 22.15,60.2L21.85,60.25C18.783,59.183 16.017,57.667 13.55,55.7C11.717,51.267 10.833,46.633 10.9,41.8C11,32.167 13.533,23.333 18.5,15.3L24.65,9.1M23.8,15.05C23.733,15.817 23.883,16.483 24.25,17.05C24.383,17.25 24.567,17.35 24.8,17.35L25.75,17.25L26.05,17.05C26.55,16.35 26.867,15.6 27,14.8L27.1,14.5L27.1,14.25L27,14C26.8,13.733 26.533,13.633 26.2,13.7L26.1,13.65C25.167,13.483 24.467,13.733 24,14.4L23.85,14.8L23.7,14.95L23.8,15.05M20.7,21.85C20.433,21.25 19.983,21 19.35,21.1C18.717,21.567 18.167,22.133 17.7,22.8L17.25,23.35C16.983,23.75 16.883,24.217 16.95,24.75C17.05,25.317 17.4,25.7 18,25.9L18.65,26.05C19.183,26.117 19.6,25.95 19.9,25.55L20.25,24.95L20.5,24.35L20.85,23.15C20.95,22.683 20.9,22.25 20.7,21.85M14.3,36.8C14.633,37.067 15.067,37.167 15.6,37.1C16.033,37.033 16.367,36.783 16.6,36.35L16.9,35.75C17.267,35.117 17.35,34.417 17.15,33.65L16.65,32.85L16.1,32.5L15.7,32.4C14.467,33.067 13.783,33.967 13.65,35.1C13.55,35.8 13.767,36.367 14.3,36.8" style="fill:#7b8c94;"/>
                        <path d="M32.05,14.5L32.05,15.1L33.8,17.9L33.75,30.6L28.3,40.95L39.5,46.25L45.9,49.9L42,58.3L34.15,58.3L42.55,65.85L42.55,70.3L45.2,72.95L47.7,75.4L47.3,75.65L46.6,76.3C46.367,76.5 46.267,76.733 46.3,77L46.5,77.75L45.25,80.15L44.6,80.2L40.3,79.95C35.967,79.383 31.45,78.117 26.75,76.15L20.55,68.7L18.5,66.25L14,56.75L13.55,55.7C16.017,57.667 18.783,59.183 21.85,60.25L22.15,60.2C26.283,58.3 29.167,55.7 30.8,52.4L28.85,53.5C26.817,53.767 24.95,53.583 23.25,52.95L24.1,46.55C21,46.083 18.3,46.35 16,47.35L16.25,42.9L17.7,41.75L19.9,41.2L20.2,37.6L20.75,36.2L21.5,35.55C21.933,35.15 22.15,34.717 22.15,34.25L21.3,32.25L22.2,30.05C24.233,26.417 26.083,22.117 27.75,17.15L28.55,16.9L29.15,15.8L30.55,14.95L32.05,14.5M28.45,67.65C27.517,67.483 26.9,67.85 26.6,68.75C26.4,69.517 26.45,70.25 26.75,70.95L27.05,71.4C27.483,71.9 28.033,72.117 28.7,72.05L29.4,71.9L29.95,71.65L30.2,71.25L30.4,70.15C30.433,69.517 30.3,68.933 30,68.4L29.55,67.95L28.45,67.65M36.85,73.4C36.417,73.6 36.233,73.967 36.3,74.5L36.45,75.35C36.517,76.217 36.967,76.783 37.8,77.05L38.5,77.15C39.067,77.183 39.433,76.95 39.6,76.45C39.933,75.45 39.833,74.567 39.3,73.8C38.333,73.233 37.517,73.1 36.85,73.4" style="fill:#adbac6;"/>
                        <path d="M90.85,95.6L88.2,98.5L84.45,98.3L80.9,94.1L68.4,70L54.6,52.75L54.5,52.6L53.1,50.9L50.3,47.4L50.1,47.1L50.1,57.7L55.3,74.05L62,82.45L58.4,85.6L58.15,85.8M57.9,85.8L56.25,87.35C46.883,89.583 39.45,89.717 33.95,87.75L23.65,84.25C18.717,80.183 14.383,75.583 10.65,70.45C6.817,65.183 4.05,59.467 2.35,53.3C-0.317,43.8 -0.733,34.383 1.1,25.05C2.1,19.95 4.067,15.35 7,11.25L11.15,6.3M11.35,6.05L26,0L26.5,7.5M32.05,7.5L32.05,15.1L33.8,17.9L36.3,22L36.5,22.25L36.65,22.55L38.25,25.15L49.7,25.15L53.75,19.3L66.15,19.3L66.15,19.55L67.05,19.3L76.95,19.3L75.15,22.1L63.25,40.25L58.05,40.25L75,67.45L84.4,76.8L86.1,79.4L90.85,88.95L90.85,95.6M59.05,44.85L59.1,44.85M61.8,37.45L61.7,37.45M58.05,41.45L58.05,40.25M58.05,41.45L58.05,42.35L59.05,44.85M23.85,14.8L23.8,15.05L23.7,14.95L23.85,14.8" style="fill:none;fill-rule:nonzero;stroke:#000;stroke-opacity:0.5;stroke-width:1px;"/>
                    </g>
                </g>
                <g id="shape1">
                    <path d="M55.7,5.65L63.5,5.45C73.433,5.483 82.183,6.283 89.75,7.85C99.383,9.817 104.25,12.467 104.35,15.8L104.45,16.45L104.2,17.3L91.75,60.85L90.8,63.4L90.9,63.9L89.95,67.9C88.45,70.1 85.517,72.033 81.15,73.7L74.7,75.65C74.367,73.717 73.85,71.817 73.15,69.95C71.05,64.717 73.133,60.333 79.4,56.8C80.2,53.167 77.567,50.25 71.5,48.05C77.067,49.55 80.817,47.533 82.75,42C84.25,37.767 83.117,35.8 79.35,36.1C81.15,35.7 82.433,34.517 83.2,32.55C84.367,29.95 84.85,27.867 84.65,26.3C84.117,23 80.533,21.833 73.9,22.8L77.35,17.05C72.517,12.817 66.983,12.4 60.75,15.8C62.517,13.733 63.417,11.6 63.45,9.4C60.717,8.267 58.133,7.017 55.7,5.65M104.2,17.3C102.933,20.067 98.333,22.583 90.4,24.85L84.65,26.3L90.4,24.85C98.333,22.583 102.933,20.067 104.2,17.3" style="fill:#825a33;"/>
                    <path d="M41.85,6.55L54.65,5.65L55.7,5.65C58.133,7.017 60.717,8.267 63.45,9.4C63.417,11.6 62.517,13.733 60.75,15.8C66.983,12.4 72.517,12.817 77.35,17.05L73.9,22.8C80.533,21.833 84.117,23 84.65,26.3C84.85,27.867 84.367,29.95 83.2,32.55C82.433,34.517 81.15,35.7 79.35,36.1C83.117,35.8 84.25,37.767 82.75,42C80.817,47.533 77.067,49.55 71.5,48.05C77.567,50.25 80.2,53.167 79.4,56.8C73.133,60.333 71.05,64.717 73.15,69.95C73.85,71.817 74.367,73.717 74.7,75.65C69.6,76.917 63.85,77.5 57.45,77.4L55.25,76.95L65.25,29.05L65.4,29.15L41.85,6.55M84.65,26.3C78.85,27.6 72.433,28.55 65.4,29.15C72.433,28.55 78.85,27.6 84.65,26.3" style="fill:#b9874a;"/>
                    <path d="M91.75,60.85C94.583,63.617 96,66.017 96,68.05C96,70.717 94.8,73.15 92.4,75.35C90.533,77.083 87.9,78.683 84.5,80.15L83.85,80.35C76.45,83.417 67.683,85 57.55,85.1L56.9,77.35L57.45,77.4C63.85,77.5 69.6,76.917 74.7,75.65L81.15,73.7C85.517,72.033 88.45,70.1 89.95,67.9C90.517,66.867 90.817,65.75 90.85,64.55L90.95,64.45L90.9,63.9L91.05,63.6L91.75,60.85" style="fill:#9898cc;fill-opacity:0.7;"/>
                    <path d="M27.7,8.65C32.033,7.75 36.75,7.05 41.85,6.55L65.4,29.15L65.25,29.05L53.6,29.65L65.25,29.05L55.25,76.95L57.45,77.4L56.9,77.35L50,77.05C46.067,76.75 42.433,76.167 39.1,75.3L33.85,73.6L32.1,72.85L13.85,25.3C15.917,26.067 18.5,26.767 21.6,27.4L24.9,28.05L33.45,28.8L35.75,43.2L35.75,29L36.8,24.1L35.15,26.4L33.8,24.65C31.567,21.517 29.533,16.183 27.7,8.65M90.8,63.4L91.75,60.85L90.9,63.5L90.8,63.4M53.6,27.15L53.6,29.65C53.5,34.617 53.167,39.4 52.6,44C53.167,39.4 53.5,34.617 53.6,29.65L53.6,27.15M36.7,72.75C34.167,65.75 31.517,56.933 28.75,46.3C26.15,36.233 24.867,30.15 24.9,28.05C24.867,30.15 26.15,36.233 28.75,46.3C31.517,56.933 34.167,65.75 36.7,72.75M35.9,47.4L35.75,43.2L35.9,47.4M50,77.05C50.4,75.183 51.233,71.883 52.5,67.15C54.467,59.75 55.833,55.333 56.6,53.9C55.833,55.333 54.467,59.75 52.5,67.15C51.233,71.883 50.4,75.183 50,77.05M42.6,16.05L36.8,24.1L42.6,16.05M53.6,29.65L35.75,29L53.6,29.65M41.6,38.35L39.1,75.3L41.6,38.35" style="fill:#d2b88c;"/>
                    <path d="M91.75,60.85L91.05,63.6L90.9,63.5L91.75,60.85" style="fill:#990;"/>
                    <path d="M22.35,60.6L7.9,21.9C7.233,21.167 6.867,20.35 6.8,19.45C6.667,16.083 11.383,13.05 20.95,10.35L27.7,8.65C29.533,16.183 31.567,21.517 33.8,24.65L35.15,26.4L33.45,28.8L24.9,28.05L21.6,27.4C18.5,26.767 15.917,26.067 13.85,25.3C11.017,24.3 9.033,23.167 7.9,21.9C9.033,23.167 11.017,24.3 13.85,25.3L32.1,72.85C27.633,70.817 25.05,68.483 24.35,65.85L22.35,60.6" style="fill:#dbc5a4;"/>
                    <path d="M35.15,26.4L36.8,24.1L35.75,29L35.75,43.2L33.45,28.8L35.15,26.4" style="fill:#a57341;"/>
                    <path d="M22.85,76.75C19.117,74.217 17.283,71.25 17.35,67.85C17.217,65.583 18.883,63.167 22.35,60.6L24.35,65.85C25.05,68.483 27.633,70.817 32.1,72.85L33.85,73.6L39.1,75.3C42.433,76.167 46.067,76.75 50,77.05L56.9,77.35L57.55,85.1L56.6,85.15C45.733,85.15 36.483,83.45 28.85,80.05C26.45,79.017 24.45,77.917 22.85,76.75M49.7,78.75L50,77.05L49.7,78.75" style="fill:#9999cb;fill-opacity:0.5;"/>
                    <path d="M84.65,26.3L90.4,24.85C98.333,22.583 102.933,20.067 104.2,17.3M65.25,29.05L65.4,29.15C72.433,28.55 78.85,27.6 84.65,26.3M53.6,29.65L65.25,29.05M33.45,28.8L35.75,43.2L35.75,29L36.8,24.1L35.15,26.4L33.45,28.8L24.9,28.05L21.6,27.4C18.5,26.767 15.917,26.067 13.85,25.3C11.017,24.3 9.033,23.167 7.9,21.9M35.75,43.2L35.9,47.4M39.1,75.3L41.6,38.35M35.75,29L53.6,29.65M36.8,24.1L42.6,16.05" style="fill:none;fill-rule:nonzero;stroke:#003200;stroke-opacity:0.5;stroke-width:0.05px;"/>
                    <path d="M55.7,5.65L63.5,5.45C73.433,5.483 82.183,6.283 89.75,7.85C99.383,9.817 104.25,12.467 104.35,15.8L104.45,16.45L104.2,17.3L91.75,60.85M22.35,60.6L7.9,21.9C7.233,21.167 6.867,20.35 6.8,19.45C6.667,16.083 11.383,13.05 20.95,10.35L27.7,8.65C32.033,7.75 36.75,7.05 41.85,6.55L54.65,5.65L55.7,5.65" style="fill:none;fill-rule:nonzero;stroke:#960;stroke-width:1px;"/>
                    <path d="M89.95,67.9L90.9,63.9L91.05,63.6L91.75,60.85M24.35,65.85L22.35,60.6" style="fill:none;fill-rule:nonzero;stroke:#960;stroke-width:0.05px;"/>
                    <path d="M74.7,75.65L81.15,73.7C85.517,72.033 88.45,70.1 89.95,67.9C90.517,66.867 90.817,65.75 90.85,64.55L90.95,64.45L90.9,63.9M92.4,75.35C90.533,77.083 87.9,78.683 84.5,80.15L83.85,80.35C76.45,83.417 67.683,85 57.55,85.1L56.6,85.15C45.733,85.15 36.483,83.45 28.85,80.05C26.45,79.017 24.45,77.917 22.85,76.75M57.45,77.4C63.85,77.5 69.6,76.917 74.7,75.65M32.1,72.85C27.633,70.817 25.05,68.483 24.35,65.85M50,77.05C46.067,76.75 42.433,76.167 39.1,75.3L33.85,73.6L32.1,72.85M50,77.05L56.9,77.35L57.45,77.4" style="fill:none;fill-rule:nonzero;stroke:#67afaf;stroke-width:0.05px;"/>
                    <path d="M91.75,60.85C94.583,63.617 96,66.017 96,68.05C96,70.717 94.8,73.15 92.4,75.35C95.067,77.15 97.683,79.217 100.25,81.55C111.65,92.25 117.35,105.183 117.35,120.35C117.25,135.45 111.533,148.333 100.2,159C87.9,170.367 74,176.05 58.5,176.05C51.1,176.05 44.133,174.717 37.6,172.05C30.3,169.217 23.5,164.783 17.2,158.75C5.7,148.083 -0.033,135.2 0,120.1C0.033,104.967 5.817,92.067 17.35,81.4C19.05,79.733 20.883,78.183 22.85,76.75C19.117,74.217 17.283,71.25 17.35,67.85C17.217,65.583 18.883,63.167 22.35,60.6" style="fill:none;fill-rule:nonzero;stroke:#67afaf;stroke-width:1px;"/>
                    <path d="M53.6,29.65C53.5,34.617 53.167,39.4 52.6,44M53.6,29.65L53.6,27.15M24.9,28.05C24.867,30.15 26.15,36.233 28.75,46.3C31.517,56.933 34.167,65.75 36.7,72.75M56.6,53.9C55.833,55.333 54.467,59.75 52.5,67.15C51.233,71.883 50.4,75.183 50,77.05L49.7,78.75" style="fill:none;fill-rule:nonzero;stroke:#b9874a;stroke-opacity:0.5;stroke-width:0.05px;"/>
                    <path d="M17.45,81.15C19.117,79.483 20.933,77.967 22.9,76.6C24.5,77.733 26.5,78.8 28.9,79.8C36.533,83.2 45.783,84.917 56.65,84.95L57.6,84.9L57.8,86.1L77.8,118.8L76.75,154.6L62.55,168.5L37.65,171.85C30.317,169.017 23.517,164.583 17.25,158.55C5.75,147.917 0.017,135.017 0.05,119.85C0.083,104.717 5.883,91.817 17.45,81.15" style="fill:#9999cb;fill-opacity:0.5;"/>
                </g>
                <g id="shape2" transform="matrix(-0.6712,-0.5337,-0.5337,0.6712,100.1,14.25)">
                    <path d="M26.4,22.9C26.233,23.133 25.967,23.283 25.6,23.35C24.567,23.55 22.917,23.067 20.65,21.9C17.55,20.333 14.2,18 10.6,14.9C7,11.833 4.2,8.883 2.2,6.05C0.467,3.65 -0.25,1.95 0.05,0.95L0.15,0.65L0.3,0.5C1.067,-0.4 2.983,-0.067 6.05,1.5C9.15,3.067 12.5,5.4 16.1,8.5C19.7,11.6 22.517,14.55 24.55,17.35C26.55,20.15 27.167,22 26.4,22.9" style="fill:#6d532c;"/>
                    <path d="M26.4,22.9C26.233,23.133 25.967,23.283 25.6,23.35C24.567,23.55 22.917,23.067 20.65,21.9C17.55,20.333 14.2,18 10.6,14.9C7,11.833 4.2,8.883 2.2,6.05C0.467,3.65 -0.25,1.95 0.05,0.95L0.15,0.65L0.3,0.5C1.067,-0.4 2.983,-0.067 6.05,1.5C9.15,3.067 12.5,5.4 16.1,8.5C19.7,11.6 22.517,14.55 24.55,17.35C26.55,20.15 27.167,22 26.4,22.9Z" style="fill:none;fill-rule:nonzero;stroke:#960;stroke-width:0.05px;"/>
                </g>
                <g id="shape21" serif:id="shape2" transform="matrix(-0.3193,-0.2539,-0.2539,0.3193,73.4,23.2)">
                    <path d="M26.4,22.9C26.233,23.133 25.967,23.283 25.6,23.35C24.567,23.55 22.917,23.067 20.65,21.9C17.55,20.333 14.2,18 10.6,14.9C7,11.833 4.2,8.883 2.2,6.05C0.467,3.65 -0.25,1.95 0.05,0.95L0.15,0.65L0.3,0.5C1.067,-0.4 2.983,-0.067 6.05,1.5C9.15,3.067 12.5,5.4 16.1,8.5C19.7,11.6 22.517,14.55 24.55,17.35C26.55,20.15 27.167,22 26.4,22.9" style="fill:#6d532c;"/>
                    <path d="M26.4,22.9C26.233,23.133 25.967,23.283 25.6,23.35C24.567,23.55 22.917,23.067 20.65,21.9C17.55,20.333 14.2,18 10.6,14.9C7,11.833 4.2,8.883 2.2,6.05C0.467,3.65 -0.25,1.95 0.05,0.95L0.15,0.65L0.3,0.5C1.067,-0.4 2.983,-0.067 6.05,1.5C9.15,3.067 12.5,5.4 16.1,8.5C19.7,11.6 22.517,14.55 24.55,17.35C26.55,20.15 27.167,22 26.4,22.9Z" style="fill:none;fill-rule:nonzero;stroke:#960;stroke-width:0.05px;"/>
                </g>
                <g id="shape22" serif:id="shape2" transform="matrix(-0.2665,-0.2119,-0.2119,0.2665,30.2,19.7)">
                    <path d="M26.4,22.9C26.233,23.133 25.967,23.283 25.6,23.35C24.567,23.55 22.917,23.067 20.65,21.9C17.55,20.333 14.2,18 10.6,14.9C7,11.833 4.2,8.883 2.2,6.05C0.467,3.65 -0.25,1.95 0.05,0.95L0.15,0.65L0.3,0.5C1.067,-0.4 2.983,-0.067 6.05,1.5C9.15,3.067 12.5,5.4 16.1,8.5C19.7,11.6 22.517,14.55 24.55,17.35C26.55,20.15 27.167,22 26.4,22.9" style="fill:#6d532c;"/>
                    <path d="M26.4,22.9C26.233,23.133 25.967,23.283 25.6,23.35C24.567,23.55 22.917,23.067 20.65,21.9C17.55,20.333 14.2,18 10.6,14.9C7,11.833 4.2,8.883 2.2,6.05C0.467,3.65 -0.25,1.95 0.05,0.95L0.15,0.65L0.3,0.5C1.067,-0.4 2.983,-0.067 6.05,1.5C9.15,3.067 12.5,5.4 16.1,8.5C19.7,11.6 22.517,14.55 24.55,17.35C26.55,20.15 27.167,22 26.4,22.9Z" style="fill:none;fill-rule:nonzero;stroke:#960;stroke-width:0.05px;"/>
                </g>
                <g id="shape23" serif:id="shape2" transform="matrix(-0.3193,-0.2539,-0.2539,0.3193,74.15,9.85)">
                    <path d="M26.4,22.9C26.233,23.133 25.967,23.283 25.6,23.35C24.567,23.55 22.917,23.067 20.65,21.9C17.55,20.333 14.2,18 10.6,14.9C7,11.833 4.2,8.883 2.2,6.05C0.467,3.65 -0.25,1.95 0.05,0.95L0.15,0.65L0.3,0.5C1.067,-0.4 2.983,-0.067 6.05,1.5C9.15,3.067 12.5,5.4 16.1,8.5C19.7,11.6 22.517,14.55 24.55,17.35C26.55,20.15 27.167,22 26.4,22.9" style="fill:#6d532c;"/>
                    <path d="M26.4,22.9C26.233,23.133 25.967,23.283 25.6,23.35C24.567,23.55 22.917,23.067 20.65,21.9C17.55,20.333 14.2,18 10.6,14.9C7,11.833 4.2,8.883 2.2,6.05C0.467,3.65 -0.25,1.95 0.05,0.95L0.15,0.65L0.3,0.5C1.067,-0.4 2.983,-0.067 6.05,1.5C9.15,3.067 12.5,5.4 16.1,8.5C19.7,11.6 22.517,14.55 24.55,17.35C26.55,20.15 27.167,22 26.4,22.9Z" style="fill:none;fill-rule:nonzero;stroke:#960;stroke-width:0.05px;"/>
                </g>
                <g id="shape24" serif:id="shape2" transform="matrix(-0.5619,-0.4467,-0.4467,0.5619,57.2,13.4)">
                    <path d="M26.4,22.9C26.233,23.133 25.967,23.283 25.6,23.35C24.567,23.55 22.917,23.067 20.65,21.9C17.55,20.333 14.2,18 10.6,14.9C7,11.833 4.2,8.883 2.2,6.05C0.467,3.65 -0.25,1.95 0.05,0.95L0.15,0.65L0.3,0.5C1.067,-0.4 2.983,-0.067 6.05,1.5C9.15,3.067 12.5,5.4 16.1,8.5C19.7,11.6 22.517,14.55 24.55,17.35C26.55,20.15 27.167,22 26.4,22.9" style="fill:#6d532c;"/>
                    <path d="M26.4,22.9C26.233,23.133 25.967,23.283 25.6,23.35C24.567,23.55 22.917,23.067 20.65,21.9C17.55,20.333 14.2,18 10.6,14.9C7,11.833 4.2,8.883 2.2,6.05C0.467,3.65 -0.25,1.95 0.05,0.95L0.15,0.65L0.3,0.5C1.067,-0.4 2.983,-0.067 6.05,1.5C9.15,3.067 12.5,5.4 16.1,8.5C19.7,11.6 22.517,14.55 24.55,17.35C26.55,20.15 27.167,22 26.4,22.9Z" style="fill:none;fill-rule:nonzero;stroke:#960;stroke-width:0.05px;"/>
                </g>
                <g id="shape3">
                    <path d="M100.25,81.55C111.65,92.25 117.35,105.183 117.35,120.35C117.25,135.45 111.533,148.333 100.2,159C87.9,170.367 74,176.05 58.5,176.05C51.1,176.05 44.133,174.717 37.6,172.05L62.5,168.75L76.7,154.8L77.75,119.05L57.75,86.25L57.55,85.1C67.683,85 76.45,83.417 83.85,80.35L84.5,80.15C87.9,78.683 90.533,77.083 92.4,75.35C95.067,77.15 97.683,79.217 100.25,81.55" style="fill:#9898cc;fill-opacity:0.7;"/>
                    <path d="M95.3,78.9C98.033,81.7 100.55,84.783 102.85,88.15C114.917,105.917 116.05,124.4 106.25,143.6C101.483,118.633 87.35,101.017 63.85,90.75L63.25,89.4L63.6,87.85L67.25,88.6L68.35,87.05L95.3,78.9M93.9,66.25C91.5,73.25 86.717,77.783 79.55,79.85C74.383,81.35 69.217,81.283 64.05,79.65C62.117,78.983 60.517,77.867 59.25,76.3L59.5,76.2C70.333,76.1 80.483,73.533 89.95,68.5L93.9,66.25M36,164L35.4,161.75C52.433,162.883 69.267,161.217 85.9,156.75C88.833,150.15 93.083,144.417 98.65,139.55L98.85,141.55C96.883,150.817 91.967,157.883 84.1,162.75C68.1,172.55 52.067,172.967 36,164" style="fill:#404280;fill-opacity:0.7;"/>
                    <path d="M11.85,99.2L16.7,102.55C16.233,120.35 19.283,137.45 25.85,153.85L23,152.3C2.567,137.133 -1.15,119.433 11.85,99.2M29.15,75.75C29.083,75.317 29.117,74.85 29.25,74.35L29.5,74.2C36.3,76.033 43.35,76.983 50.65,77.05L51.1,77.75C51.5,78.55 51.5,79.217 51.1,79.75C43.9,82.55 36.717,81.667 29.55,77.1C29.283,76.667 29.15,76.217 29.15,75.75M12,90.1L15.2,85.45C22.533,81.683 29.467,81.967 36,86.3C36.467,87.7 36.3,89.033 35.5,90.3C26.267,103.133 18.433,103.067 12,90.1M25.8,68.75C26.3,69.383 26.65,70.25 26.85,71.35C26.817,72.05 26.517,72.617 25.95,73.05C23.217,73.65 21.05,72.45 19.45,69.45C19.25,68.717 19.283,68.017 19.55,67.35C19.55,66.983 19.683,66.6 19.95,66.2L20.6,66.1C22.5,66.167 24.233,67.05 25.8,68.75" style="fill:#f2f2f9;fill-opacity:0.7;"/>
                </g>
            </g>
        </g>
    </g>
</svg>
