<?xml version="1.0" encoding="UTF-8" standalone="no"?>
<!DOCTYPE svg PUBLIC "-//W3C//DTD SVG 1.1//EN" "http://www.w3.org/Graphics/SVG/1.1/DTD/svg11.dtd">
<svg width="100%" height="100%" viewBox="0 0 1184 1716" version="1.1" xmlns="http://www.w3.org/2000/svg" xmlns:xlink="http://www.w3.org/1999/xlink" xml:space="preserve" xmlns:serif="http://www.serif.com/" style="fill-rule:evenodd;clip-rule:evenodd;stroke-linecap:round;stroke-linejoin:round;">
    <g transform="matrix(1,0,0,1,-2726.5,-2928)">
        <g transform="matrix(10,0,0,10,2731.5,2878.5)">
            <g id="sprite0">
                <g id="shape0" transform="matrix(1.2473,0,0,1.2473,21.4,91.4)">
                    <path d="M28.35,36.4L28.35,36.05L28.75,36.4L28.35,36.4" style="fill:#b6b689;"/>
                    <path d="M55.3,28.95L55.9,27.9L56.85,27.95C60.283,31.617 61.15,36.083 59.45,41.35L59.35,41.55L58.9,41.3C59.2,39.233 59.25,37.467 59.05,36C58.45,33.367 57.2,31.017 55.3,28.95" style="fill:#d7a925;"/>
                    <path d="M53.7,30.65L54.6,29.75L55.3,28.95C57.2,31.017 58.45,33.367 59.05,36L53.7,30.65" style="fill:#bf8e3b;"/>
                    <path d="M55.05,46.35C55.25,41.983 54.15,38.15 51.75,34.85L51.65,33.25L52.1,32.85C55.267,36.517 56.283,41.017 55.15,46.35L55.05,46.35" style="fill:#573c1c;"/>
                    <path d="M58.3,43.7L58.1,44L58.1,44.05L57.75,44.2L58,44.2L55.3,46.35L55.3,46.3L55.2,46.4L55.15,46.35C56.283,41.017 55.267,36.517 52.1,32.85L52.7,32.05L53.7,30.65L59.05,36C59.25,37.467 59.2,39.233 58.9,41.3L58.3,43.7" style="fill:#895f2c;"/>
                    <path d="M59.35,41.55L58.3,43.7L58.9,41.3L59.35,41.55" style="fill:#c6a73d;"/>
                    <path d="M55.05,46.45L55.05,46.35L55.15,46.35L55.15,46.4L55.05,46.45M55.05,46.4L55.15,46.35L55.05,46.4" style="fill:#302925;"/>
                    <path d="M55.3,46.35L55.2,46.45L55.05,46.45L55.15,46.4L55.15,46.35L55.2,46.4L55.3,46.35L55.2,46.4L55.3,46.3L55.3,46.35M55.2,46.4L55.15,46.4L55.2,46.4M55.1,46.45L55.15,46.4L55.1,46.45" style="fill:#443c35;"/>
                    <path d="M56.85,27.95C60.283,31.617 61.15,36.083 59.45,41.35L59.35,41.55L58.3,43.7L58.1,44L58.1,44.05L58,44.2L55.3,46.35L55.2,46.4L55.3,46.3M55.05,46.45L55.05,46.35C55.25,41.983 54.15,38.15 51.75,34.85M55.15,46.4L55.2,46.4M55.15,46.35L55.05,46.4M55.15,46.4L55.1,46.45M55.15,46.4L55.05,46.45" style="fill:none;fill-rule:nonzero;stroke:#000;stroke-width:0.05px;"/>
                    <path d="M57.15,18.5L57.2,18.1L60.55,22.7L60.55,22.75L60.65,23L60.65,23.3L57.15,18.5" style="fill:#6d5f54;"/>
                    <path d="M57.2,18.1L57.15,18.5L56.9,23.25L56.65,23.5L55.35,25.05L55.15,25.25L51.95,29.05L50.15,29.8L45.25,31.9L45.15,31.95L40.65,30.4L40.6,30.35L40.6,30.3L40.95,25.15L45.95,19.35L52.65,16.4L57.2,18.05L57.2,18.1M40.65,30.4L40.6,30.3L40.65,30.4" style="fill:#302925;"/>
                    <path d="M57.15,18.5L60.65,23.3L60.4,28.25L56.85,23.3L56.9,23.25L57.15,18.5M55.15,25.25L55.35,25.05L56.65,23.5L56.9,23.75L60.25,28.4L55.55,33.85L53.4,29.65L55.15,25.25" style="fill:#d7a925;"/>
                    <path d="M56.65,23.5L56.85,23.3L60.4,28.25L60.25,28.4L56.9,23.75L56.65,23.5" style="fill:#4d433a;"/>
                    <path d="M45.25,31.9L50.15,29.8L45.75,32.7L45.25,31.9M51.95,29.05L55.15,25.25L53.4,29.65L55.55,33.85L55.55,33.9L54.5,32.5L54.45,32.5L53.1,30.65L53.05,30.55L51.95,29.05M55.55,33.9L55.55,33.85L55.7,34.1L55.55,33.9" style="fill:#e3b61c;"/>
                    <path d="M50.15,29.8L51.95,29.05L53.05,30.55L53.1,30.65L54.45,32.5L54.5,32.5L55.55,33.9L55.4,34L51.2,35.8L48.6,36.85L46.8,34.35L46.9,34.35L45.75,32.7L50.15,29.8" style="fill:#895f2c;"/>
                    <path d="M40.65,30.4L45.15,31.95L45.25,31.9L45.75,32.7L46.9,34.35L46.8,34.35L48.6,36.85L44.15,35.3L40.65,30.4" style="fill:#573c1c;"/>
                    <path d="M51.2,35.8L48.7,36.9L48.6,36.85L51.2,35.8" style="fill:#8e8e8e;"/>
                    <path d="M57.2,18.1L57.15,18.5L56.9,23.25L56.65,23.5L55.35,25.05L55.15,25.25L51.95,29.05L50.15,29.8L45.25,31.9L45.15,31.95L40.65,30.4L40.6,30.35L40.6,30.3L40.65,30.4L44.15,35.3L48.6,36.85L51.2,35.8L55.4,34L55.55,33.9L54.5,32.5M60.65,23.3L60.65,23L60.55,22.75M60.55,22.7L57.2,18.1L57.2,18.05L52.65,16.4L45.95,19.35L40.95,25.15L40.6,30.3M60.25,28.4L60.4,28.25L56.85,23.3M54.45,32.5L53.1,30.65L53.05,30.55L51.95,29.05M55.55,33.85L60.25,28.4M48.7,36.9L48.6,36.85L46.8,34.35M55.55,33.85L55.55,33.9M45.75,32.7L46.9,34.35M45.75,32.7L45.25,31.9M60.65,23.3L60.4,28.25" style="fill:none;fill-rule:nonzero;stroke:#000;stroke-width:0.05px;"/>
                    <path d="M57.15,18.5L60.65,23.3M56.9,23.75L60.25,28.4" style="fill:none;fill-rule:nonzero;stroke:#bea588;stroke-width:0.05px;"/>
                    <path d="M45.35,32.05L44.25,20.1L45.45,19.15L51.95,29.1L45.35,32.05" style="fill:#443c35;"/>
                    <path d="M50.35,17.9L47.3,17.75L47,17.2L52.65,16.35L57.15,18.15L50.35,17.9" style="fill:#897469;"/>
                    <path d="M43.1,21L40.85,30.05L40.65,30.4L40.7,25.05L42.6,21L43.1,21" style="fill:#211d1b;"/>
                    <path d="M46.35,18.5L56.9,23.4L56.95,23.4L51.95,29.15L51.95,29.1L45.45,19.15L46.35,18.5" style="fill:#4d433a;"/>
                    <path d="M43.1,21L44.25,20.1L45.35,32.05L40.65,30.5L40.85,30.05L43.1,21" style="fill:#302925;"/>
                    <path d="M47.3,17.75L50.35,17.9L56.35,18.7L56.4,18.7L56.55,22.15L56.95,22.4L56.9,23.4L46.35,18.5L47.3,17.75" style="fill:#6d5f54;"/>
                    <path d="M56.95,22.4L56.55,22.15L56.4,18.7L56.35,18.7L50.35,17.9L57.15,18.15L57.25,18.2L56.95,22.4" style="fill:#bea588;"/>
                    <path d="M45.35,32.05L51.95,29.1" style="fill:none;fill-rule:nonzero;stroke:#000;stroke-width:0.05px;"/>
                    <path d="M47.4,17.75L47.15,17.25L52.75,16.35L57.25,18.15L50.5,17.85L47.4,17.75M57.05,22.4L57,23.4L56.2,23L56.6,22.15L57.05,22.4" style="fill:#cba652;"/>
                    <path d="M47.4,17.75L50.5,17.85L56.5,18.65L56.6,22.15L56.2,23L46.45,18.5L47.4,17.75" style="fill:#d7a925;"/>
                    <path d="M52.1,29.15L45.4,32.05L44.45,20.9L44.4,20.05L45.5,19.2L52.1,29.15" style="fill:#895f2c;"/>
                    <path d="M43.2,21L44.4,20.05L44.45,20.9L43.2,21" style="fill:#302925;"/>
                    <path d="M40.8,30.4L40.8,25L42.7,20.95L43.2,21L40.95,30L40.8,30.4" style="fill:#211d1b;"/>
                    <path d="M45.4,32.05L40.75,30.5L40.8,30.4L40.95,30L43.2,21L44.45,20.9L45.4,32.05" style="fill:#573c1c;"/>
                    <path d="M57,23.4L57.05,23.4L52.1,29.15L45.5,19.2L46.45,18.5L56.2,23L57,23.4" style="fill:#bf8e3b;"/>
                    <path d="M50.5,17.85L57.25,18.15L57.35,18.25L57.05,22.4L56.6,22.15L56.5,18.65L50.5,17.85" style="fill:#e3b61c;"/>
                    <path d="M52.1,29.15L45.4,32.05" style="fill:none;fill-rule:nonzero;stroke:#000;stroke-width:0.05px;"/>
                    <path d="M51.7,31.25C52.033,31.35 52.3,31.55 52.5,31.85L52.75,32.2C52.95,32.533 53.017,32.85 52.95,33.15L52.5,33.8L50,34.9L49.1,34.85L48.3,34.15L48.1,33.85C47.867,33.55 47.767,33.25 47.8,32.95C47.867,32.65 48.05,32.433 48.35,32.3L50.85,31.2L51.7,31.25" style="fill:#a46b35;"/>
                    <path d="M52.55,11.95L52.5,12.35L52.25,17.1L52,17.35L50.7,18.9L50.5,19.1L47.3,22.9L45.5,23.65L40.6,25.75L40.5,25.8L36,24.25L35.95,24.2L35.95,24.15L36.3,19L41.3,13.2L48,10.25L52.55,11.9L52.55,11.95M36,24.25L35.95,24.15L36,24.25" style="fill:#302925;"/>
                    <path d="M52.5,12.35L52.55,11.95L55.9,16.55L55.9,16.6L56,16.85L56,17.15L52.5,12.35" style="fill:#6d5f54;"/>
                    <path d="M40.6,25.75L45.5,23.65L41.1,26.55L40.6,25.75M47.3,22.9L50.5,19.1L48.75,23.5L50.9,27.7L50.9,27.75L50.9,27.7L51.05,27.95L49.85,26.35L49.8,26.35L48.45,24.5L48.4,24.4L47.3,22.9" style="fill:#e3b61c;"/>
                    <path d="M52.5,12.35L56,17.15L55.75,22.1L52.2,17.15L52.25,17.1L52.5,12.35M50.5,19.1L50.7,18.9L52,17.35L52.25,17.6L55.6,22.25L50.9,27.7L48.75,23.5L50.5,19.1" style="fill:#d7a925;"/>
                    <path d="M45.5,23.65L47.3,22.9L48.4,24.4L48.45,24.5L49.8,26.35L49.85,26.35L50.9,27.75L50.75,27.85L46.55,29.65L43.95,30.7L42.15,28.2L42.25,28.2L41.1,26.55L45.5,23.65" style="fill:#895f2c;"/>
                    <path d="M52,17.35L52.2,17.15L55.75,22.1L55.6,22.25L52.25,17.6L52,17.35" style="fill:#4d433a;"/>
                    <path d="M36,24.25L40.5,25.8L40.6,25.75L41.1,26.55L42.25,28.2L42.15,28.2L43.95,30.7L39.5,29.15L36,24.25" style="fill:#573c1c;"/>
                    <path d="M44.05,30.75L43.95,30.7L46.55,29.65L44.05,30.75" style="fill:#8e8e8e;"/>
                    <path d="M52.55,11.95L52.5,12.35L52.25,17.1L52.2,17.15L55.75,22.1L56,17.15L56,16.85L55.9,16.6M55.9,16.55L52.55,11.95L52.55,11.9L48,10.25L41.3,13.2L36.3,19L35.95,24.15L36,24.25L40.5,25.8L40.6,25.75L45.5,23.65L47.3,22.9L50.5,19.1L50.7,18.9L52,17.35L52.2,17.15M49.8,26.35L48.45,24.5L48.4,24.4L47.3,22.9M50.9,27.7L55.6,22.25L55.75,22.1M50.9,27.7L50.9,27.75L49.85,26.35M46.55,29.65L50.75,27.85L50.9,27.75M44.05,30.75L43.95,30.7L39.5,29.15L36,24.25L35.95,24.2L35.95,24.15M41.1,26.55L42.25,28.2M42.15,28.2L43.95,30.7L46.55,29.65M40.6,25.75L41.1,26.55" style="fill:none;fill-rule:nonzero;stroke:#000;stroke-width:0.05px;"/>
                    <path d="M52.5,12.35L56,17.15M55.6,22.25L52.25,17.6" style="fill:none;fill-rule:nonzero;stroke:#bea588;stroke-width:0.05px;"/>
                    <path d="M52.5,12L52.6,12.05L52.3,16.25L51.9,16L51.75,12.55L51.7,12.55L45.7,11.75L52.5,12" style="fill:#bea588;"/>
                    <path d="M45.7,11.75L51.7,12.55L51.75,12.55L51.9,16L52.3,16.25L52.25,17.25L41.7,12.35L42.65,11.6L45.7,11.75" style="fill:#6d5f54;"/>
                    <path d="M52.5,12L45.7,11.75L42.65,11.6L42.35,11.05L48,10.2L52.5,12" style="fill:#897469;"/>
                    <path d="M52.25,17.25L52.3,17.25L47.3,23L47.3,22.95L40.8,13L41.7,12.35L52.25,17.25" style="fill:#4d433a;"/>
                    <path d="M47.3,22.95L40.7,25.9L39.6,13.95L40.8,13L47.3,22.95" style="fill:#443c35;"/>
                    <path d="M40.7,25.9L36,24.35L36.2,23.9L38.45,14.85L39.6,13.95L40.7,25.9" style="fill:#302925;"/>
                    <path d="M36.2,23.9L36,24.25L36.05,18.9L37.95,14.85L38.45,14.85L36.2,23.9" style="fill:#211d1b;"/>
                    <path d="M47.3,22.95L40.7,25.9" style="fill:none;fill-rule:nonzero;stroke:#000;stroke-width:0.05px;"/>
                    <path d="M52.6,12L52.7,12.1L52.4,16.25L51.95,16L51.85,12.5L45.85,11.7L52.6,12" style="fill:#e3b61c;"/>
                    <path d="M45.85,11.7L51.85,12.5L51.95,16L51.55,16.85L41.8,12.35L42.75,11.6L45.85,11.7" style="fill:#d7a925;"/>
                    <path d="M52.6,12L45.85,11.7L42.75,11.6L42.5,11.1L48.1,10.2L52.6,12M51.95,16L52.4,16.25L52.35,17.25L51.55,16.85L51.95,16" style="fill:#cba652;"/>
                    <path d="M52.35,17.25L52.4,17.25L47.45,23L40.85,13.05L41.8,12.35L51.55,16.85L52.35,17.25" style="fill:#bf8e3b;"/>
                    <path d="M47.45,23L40.75,25.9L39.8,14.75L39.75,13.9L40.85,13.05L47.45,23" style="fill:#895f2c;"/>
                    <path d="M36.15,24.25L36.15,18.85L38.05,14.8L38.55,14.85L36.3,23.85L36.15,24.25" style="fill:#211d1b;"/>
                    <path d="M38.55,14.85L39.75,13.9L39.8,14.75L38.55,14.85" style="fill:#302925;"/>
                    <path d="M40.75,25.9L36.1,24.35L36.15,24.25L36.3,23.85L38.55,14.85L39.8,14.75L40.75,25.9" style="fill:#573c1c;"/>
                    <path d="M47.45,23L40.75,25.9" style="fill:none;fill-rule:nonzero;stroke:#000;stroke-width:0.05px;"/>
                    <path d="M46.2,25.05L47.05,25.1C47.383,25.2 47.65,25.4 47.85,25.7L48.1,26.05C48.3,26.383 48.367,26.7 48.3,27L47.85,27.65L45.35,28.75L44.45,28.7L43.65,28L43.45,27.7C43.217,27.4 43.117,27.1 43.15,26.8C43.217,26.5 43.4,26.283 43.7,26.15L46.2,25.05" style="fill:#a46b35;"/>
                    <path d="M51.55,10.25L51.55,10.3L51.65,10.55L51.65,10.85L48.15,6.05L48.2,5.65L51.55,10.25" style="fill:#6d5f54;"/>
                    <path d="M31.65,17.95L31.6,17.9L31.6,17.85L31.95,12.7L36.95,6.9L43.65,3.95L48.2,5.6L48.2,5.65L48.15,6.05L47.9,10.8L47.65,11.05L46.35,12.6L46.15,12.8L42.95,16.6L41.15,17.35L36.25,19.45L36.15,19.5L31.65,17.95L31.6,17.85L31.65,17.95" style="fill:#302925;"/>
                    <path d="M51.4,15.8L51.25,15.95L47.9,11.3L47.65,11.05L47.85,10.85L51.4,15.8" style="fill:#4d433a;"/>
                    <path d="M51.65,10.85L51.4,15.8L47.85,10.85L47.9,10.8L48.15,6.05L51.65,10.85M51.25,15.95L46.55,21.4L44.4,17.2L46.15,12.8L46.35,12.6L47.65,11.05L47.9,11.3L51.25,15.95" style="fill:#d7a925;"/>
                    <path d="M46.55,21.45L46.4,21.55L42.2,23.35L39.6,24.4L37.8,21.9L37.9,21.9L36.75,20.25L41.15,17.35L42.95,16.6L44.05,18.1L44.1,18.2L45.45,20.05L45.5,20.05L46.55,21.45" style="fill:#895f2c;"/>
                    <path d="M46.55,21.4L46.7,21.65L46.55,21.45L46.55,21.4L46.55,21.45L45.5,20.05L45.45,20.05L44.1,18.2L44.05,18.1L42.95,16.6L46.15,12.8L44.4,17.2L46.55,21.4M41.15,17.35L36.75,20.25L36.25,19.45L41.15,17.35" style="fill:#e3b61c;"/>
                    <path d="M39.6,24.4L35.15,22.85L31.65,17.95L36.15,19.5L36.25,19.45L36.75,20.25L37.9,21.9L37.8,21.9L39.6,24.4" style="fill:#573c1c;"/>
                    <path d="M42.2,23.35L39.7,24.45L39.6,24.4L42.2,23.35" style="fill:#8e8e8e;"/>
                    <path d="M51.55,10.3L51.65,10.55L51.65,10.85L51.4,15.8L51.25,15.95L46.55,21.4L46.55,21.45L45.5,20.05M46.55,21.45L46.4,21.55L42.2,23.35L39.6,24.4L35.15,22.85L31.65,17.95L31.6,17.9L31.6,17.85L31.95,12.7L36.95,6.9L43.65,3.95L48.2,5.6L48.2,5.65L51.55,10.25M39.7,24.45L39.6,24.4L37.8,21.9M48.15,6.05L47.9,10.8L47.85,10.85L51.4,15.8M47.85,10.85L47.65,11.05L46.35,12.6L46.15,12.8L42.95,16.6L41.15,17.35L36.25,19.45L36.75,20.25L37.9,21.9M45.45,20.05L44.1,18.2L44.05,18.1L42.95,16.6M48.2,5.65L48.15,6.05M31.65,17.95L31.6,17.85M36.25,19.45L36.15,19.5L31.65,17.95" style="fill:none;fill-rule:nonzero;stroke:#000;stroke-width:0.05px;"/>
                    <path d="M47.9,11.3L51.25,15.95M48.15,6.05L51.65,10.85" style="fill:none;fill-rule:nonzero;stroke:#bea588;stroke-width:0.05px;"/>
                    <path d="M48.15,5.65L48.25,5.7L47.95,9.9L47.55,9.65L47.4,6.2L47.35,6.2L41.35,5.4L48.15,5.65" style="fill:#bea588;"/>
                    <path d="M41.35,5.4L47.35,6.2L47.4,6.2L47.55,9.65L47.95,9.9L47.9,10.9L37.35,6L38.3,5.25L41.35,5.4" style="fill:#6d5f54;"/>
                    <path d="M47.9,10.9L47.95,10.9L42.95,16.65L42.95,16.6L36.45,6.65L37.35,6L47.9,10.9" style="fill:#4d433a;"/>
                    <path d="M48.15,5.65L41.35,5.4L38.3,5.25L38,4.7L43.65,3.85L48.15,5.65" style="fill:#897469;"/>
                    <path d="M31.85,17.55L31.65,17.9L31.7,12.55L33.6,8.5L34.1,8.5L31.85,17.55" style="fill:#211d1b;"/>
                    <path d="M36.35,19.55L31.65,18L31.85,17.55L34.1,8.5L35.25,7.6L36.35,19.55" style="fill:#302925;"/>
                    <path d="M42.95,16.6L36.35,19.55L35.25,7.6L36.45,6.65L42.95,16.6" style="fill:#443c35;"/>
                    <path d="M42.95,16.6L36.35,19.55" style="fill:none;fill-rule:nonzero;stroke:#000;stroke-width:0.05px;"/>
                    <path d="M48.25,5.7L48.35,5.8L48.05,9.95L47.6,9.7L47.5,6.2L41.5,5.4L48.25,5.7" style="fill:#e3b61c;"/>
                    <path d="M48.25,5.7L41.5,5.4L38.4,5.3L38.15,4.8L43.75,3.9L48.25,5.7M47.6,9.7L48.05,9.95L48,10.95L47.2,10.55L47.6,9.7" style="fill:#cba652;"/>
                    <path d="M41.5,5.4L47.5,6.2L47.6,9.7L47.2,10.55L37.45,6.05L38.4,5.3L41.5,5.4" style="fill:#d7a925;"/>
                    <path d="M48,10.95L48.05,10.95L43.1,16.7L36.5,6.75L37.45,6.05L47.2,10.55L48,10.95" style="fill:#bf8e3b;"/>
                    <path d="M34.2,8.55L35.4,7.6L35.45,8.45L34.2,8.55" style="fill:#302925;"/>
                    <path d="M36.4,19.6L31.75,18.05L31.8,17.95L31.95,17.55L34.2,8.55L35.45,8.45L36.4,19.6" style="fill:#573c1c;"/>
                    <path d="M31.8,17.95L31.8,12.55L33.7,8.5L34.2,8.55L31.95,17.55L31.8,17.95" style="fill:#211d1b;"/>
                    <path d="M43.1,16.7L36.4,19.6L35.45,8.45L35.4,7.6L36.5,6.75L43.1,16.7" style="fill:#895f2c;"/>
                    <path d="M43.1,16.7L36.4,19.6" style="fill:none;fill-rule:nonzero;stroke:#000;stroke-width:0.05px;"/>
                    <path d="M42.7,18.8C43.033,18.9 43.3,19.1 43.5,19.4L43.75,19.75C43.95,20.083 44.017,20.4 43.95,20.7L43.5,21.35L41,22.45L40.1,22.4L39.3,21.7L39.1,21.4C38.867,21.1 38.767,20.8 38.8,20.5C38.867,20.2 39.05,19.983 39.35,19.85L41.85,18.75L42.7,18.8" style="fill:#a46b35;"/>
                    <path d="M30.9,2.55C36.367,3.583 41.283,5.917 45.65,9.55C45.05,9.983 44.5,10.5 44,11.1L42.25,12.9C39.017,9.633 35.233,6.183 30.9,2.55" style="fill:#bf8e3b;"/>
                    <path d="M47.55,6.35L47.75,8.3C46.983,8.633 46.283,9.05 45.65,9.55C41.283,5.917 36.367,3.583 30.9,2.55L20.1,3.25L19.6,2.4C19.767,2.333 19.917,2.25 20.05,2.15C30.617,-1.75 39.783,-0.35 47.55,6.35" style="fill:#d7a925;"/>
                    <path d="M37.9,16.4L37.15,17.3L33.85,17.3C26.95,12.7 19.05,10.783 10.15,11.55L10.15,11.4C20.917,8.633 30.167,10.3 37.9,16.4" style="fill:#573c1c;"/>
                    <path d="M20.1,3.25L30.9,2.55C35.233,6.183 39.017,9.633 42.25,12.9L39.45,15.1C38.817,15.5 38.3,15.933 37.9,16.4C30.167,10.3 20.917,8.633 10.15,11.4L10.1,11.3L10.3,11.05L10.25,11.1L14.3,5.4L14.45,5.85L14.65,5.15L14.7,5.15L15,4.95C16.533,4.183 18.233,3.617 20.1,3.25" style="fill:#895f2c;"/>
                    <path d="M19.6,2.4L20.1,3.25C18.233,3.617 16.533,4.183 15,4.95L19.6,2.4" style="fill:#c6a73d;"/>
                    <path d="M10,11.55L10,11.5L9.95,11.35L10.25,11.1L10.3,11.05L10.1,11.3L10.15,11.4L10.1,11.4L10,11.55M10.25,11.1L10.1,11.3L10.1,11.4L10.1,11.3L10.25,11.1" style="fill:#443c35;"/>
                    <path d="M10.15,11.55L10,11.55L10.1,11.4L10.15,11.4L10.15,11.55M10.15,11.4L10.1,11.55L10.15,11.4" style="fill:#302925;"/>
                    <path d="M47.55,6.35C39.783,-0.35 30.617,-1.75 20.05,2.15C19.917,2.25 19.767,2.333 19.6,2.4L15,4.95L14.7,5.15L14.65,5.15L14.3,5.4L10.25,11.1L10.1,11.3L10.3,11.05M33.85,17.3C26.95,12.7 19.05,10.783 10.15,11.55L10,11.55L10.1,11.4L10.1,11.3M10.1,11.55L10.15,11.4" style="fill:none;fill-rule:nonzero;stroke:#000;stroke-width:0.05px;"/>
                    <path d="M50.15,44.6L50.05,43L50.5,42.6C53.667,46.267 54.683,50.767 53.55,56.1L53.45,56.1C53.65,51.733 52.55,47.9 50.15,44.6" style="fill:#573c1c;"/>
                    <path d="M52.1,40.4L53,39.5L53.7,38.7C55.6,40.767 56.85,43.117 57.45,45.75L52.1,40.4" style="fill:#bf8e3b;"/>
                    <path d="M50.5,42.6L51.1,41.8L52.1,40.4L57.45,45.75C57.65,47.217 57.6,48.983 57.3,51.05L56.7,53.45L56.5,53.75L56.5,53.8L56.15,53.95L56.4,53.95L53.7,56.1L53.7,56.05L53.6,56.15L53.55,56.1C54.683,50.767 53.667,46.267 50.5,42.6" style="fill:#895f2c;"/>
                    <path d="M53.7,38.7L54.3,37.65L55.25,37.7C58.683,41.367 59.55,45.833 57.85,51.1L57.75,51.3L57.3,51.05C57.6,48.983 57.65,47.217 57.45,45.75C56.85,43.117 55.6,40.767 53.7,38.7" style="fill:#d7a925;"/>
                    <path d="M57.75,51.3L56.7,53.45L57.3,51.05L57.75,51.3" style="fill:#c6a73d;"/>
                    <path d="M53.45,56.2L53.45,56.1L53.55,56.1L53.55,56.15L53.45,56.2M53.45,56.15L53.55,56.1L53.45,56.15" style="fill:#302925;"/>
                    <path d="M53.7,56.1L53.6,56.2L53.45,56.2L53.55,56.15L53.6,56.15L53.7,56.1L53.6,56.15L53.55,56.15L53.55,56.1L53.6,56.15L53.7,56.05L53.7,56.1M53.55,56.15L53.5,56.2L53.55,56.15" style="fill:#443c35;"/>
                    <path d="M55.25,37.7C58.683,41.367 59.55,45.833 57.85,51.1L57.75,51.3L56.7,53.45L56.5,53.75L56.5,53.8L56.4,53.95L53.7,56.1L53.6,56.15L53.55,56.15L53.45,56.2L53.45,56.1C53.65,51.733 52.55,47.9 50.15,44.6M53.5,56.2L53.55,56.15M53.55,56.1L53.45,56.15M53.6,56.15L53.7,56.05" style="fill:none;fill-rule:nonzero;stroke:#000;stroke-width:0.05px;"/>
                    <path d="M0.15,48.5L0.1,48.25L0,47.85L0.1,47.05C0.233,46.283 0.517,45.65 0.95,45.15L1.8,44.4C2.633,43.9 3.517,43.767 4.45,44L4.55,44.1L4.5,44.3L4.55,44.55L4.55,44.8L4.6,45.6L4.65,45.9L4.7,46L4.7,46.1L4.75,46.2L4.9,46.65L5.25,47.4L5.4,47.55L4.2,48.7C3.267,49.3 2.2,49.367 1,48.9L0.15,48.5" style="fill:#5c3a2e;"/>
                    <path d="M4.6,45.6L4.55,44.8L4.6,45.4L4.6,45.6" style="fill:#824f3e;"/>
                    <path d="M0.15,48.5L1,48.9C2.2,49.367 3.267,49.3 4.2,48.7L5.4,47.55L5.5,47.7L5.6,47.8L5.65,47.8L7.2,49.1L7.9,49.35L7.8,49.65C7.6,50.917 7.017,51.833 6.05,52.4C5.017,53 3.9,53.083 2.7,52.65L2.55,52.6C1.883,52.167 1.333,51.567 0.9,50.8L0.25,49.35L0.05,48.5L0.15,48.5" style="fill:#3c271e;"/>
                    <path d="M7.9,49.35L8.25,49.5L8.65,49.7L8.75,49.7L8.75,50.15C8.483,51.383 7.867,52.3 6.9,52.9C5.933,53.5 4.85,53.567 3.65,53.1L3.15,52.95L3.1,52.85L2.95,52.8L2.85,52.8L2.55,52.6L2.7,52.65C3.9,53.083 5.017,53 6.05,52.4C7.017,51.833 7.6,50.917 7.8,49.65L7.9,49.35" style="fill:#301f18;"/>
                    <path d="M4.55,44.8L4.55,44.55L4.5,44.3L4.55,44.1L4.45,44C3.517,43.767 2.633,43.9 1.8,44.4L0.95,45.15C0.517,45.65 0.233,46.283 0.1,47.05L0,47.85L0.1,48.25L0.15,48.5L0.05,48.5L0.25,49.35L0.9,50.8C1.333,51.567 1.883,52.167 2.55,52.6L2.85,52.8L2.95,52.8L3.1,52.85L3.15,52.95L3.65,53.1C4.85,53.567 5.933,53.5 6.9,52.9C7.867,52.3 8.483,51.383 8.75,50.15L8.75,49.7L8.65,49.7L8.25,49.5L7.9,49.35L7.2,49.1L5.65,47.8L5.5,47.7L5.4,47.55L5.25,47.4L4.9,46.65L4.75,46.2L4.7,46.1L4.7,46L4.65,45.9L4.6,45.6L4.55,44.8Z" style="fill:none;fill-rule:nonzero;stroke:#000;stroke-width:0.05px;"/>
                    <path d="M2.9,44.95L2.95,44.85L3,44.45L2.9,43.75L2.95,42.6L3.05,42.6C3.217,41.267 3.667,40.2 4.4,39.4L5.9,38.05C7.233,37.283 8.717,37.067 10.35,37.4L10.4,37.55L10.35,37.8L10.4,38.3L10.35,38.45L10.35,38.75C10.35,39.35 10.4,39.883 10.5,40.35L10.65,40.8L10.75,40.95L10.75,41.1L11.05,41.9L11.6,43L11.85,43.45L9.85,45.2C8.183,46.167 6.383,46.3 4.45,45.6L2.9,44.95" style="fill:#694634;"/>
                    <path d="M2.9,44.95L4.45,45.6C6.383,46.3 8.183,46.167 9.85,45.2L11.85,43.45L12.15,43.75L12.2,43.85L14.85,45.95L15.8,46.3L15.8,46.95C15.467,48.983 14.467,50.5 12.8,51.5C11.167,52.433 9.367,52.567 7.4,51.9L7.05,51.8C5.983,51.033 5.033,50 4.2,48.7L3.2,46.35L2.9,44.95" style="fill:#563c2b;"/>
                    <path d="M11.85,43.45L11.6,43L12.15,43.75L11.85,43.45M10.5,40.35C10.4,39.883 10.35,39.35 10.35,38.75L10.5,39.8L10.5,40.35" style="fill:#824f3e;"/>
                    <path d="M15.8,46.3L16.65,46.75L17.25,46.85L17.35,46.9L17.3,46.95L17.4,46.9L17.4,47.7C17,49.767 15.983,51.283 14.35,52.25C12.683,53.183 10.883,53.3 8.95,52.6L8.2,52.35L8,52.2L7.75,52.15L7.65,52L7.4,51.9C9.367,52.567 11.167,52.433 12.8,51.5C14.467,50.5 15.467,48.983 15.8,46.95L15.8,46.3" style="fill:#3c271e;"/>
                    <path d="M10.35,38.75L10.35,38.45L10.4,38.3L10.35,37.8L10.4,37.55L10.35,37.4C8.717,37.067 7.233,37.283 5.9,38.05L4.4,39.4C3.667,40.2 3.217,41.267 3.05,42.6L2.95,42.6L2.9,43.75L3,44.45L2.95,44.85L2.9,44.95L3.2,46.35L4.2,48.7C5.033,50 5.983,51.033 7.05,51.8L7.4,51.9L7.65,52L7.75,52.15L8,52.2L8.2,52.35L8.95,52.6C10.883,53.3 12.683,53.183 14.35,52.25C15.983,51.283 17,49.767 17.4,47.7L17.4,46.9L17.3,46.95L17.35,46.9L17.25,46.85L16.65,46.75L15.8,46.3L14.85,45.95L12.2,43.85L12.15,43.75L11.85,43.45L11.6,43L11.05,41.9L10.75,41.1L10.75,40.95L10.65,40.8L10.5,40.35C10.4,39.883 10.35,39.35 10.35,38.75Z" style="fill:none;fill-rule:nonzero;stroke:#000;stroke-width:0.05px;"/>
                    <path d="M12.5,45.85L11.85,45.15C10.817,43.783 10.183,42.433 9.95,41.1C9.783,39.8 9.917,38.767 10.35,38L13.65,35.7C13.617,39.167 14.017,42.617 14.85,46.05L12.5,45.85M20.05,31.45L20.3,31.35L20.3,32.45L21.1,34.5L21.95,32.85C23.05,30.983 23.85,29.883 24.35,29.55L25.4,32.55C25.667,33.383 25.267,34.5 24.2,35.9C25.033,34.933 25.667,34 26.1,33.1L26.95,33.4L26.85,33.2L26.15,33.05C27.083,31.317 27.433,29.767 27.2,28.4L27.15,28.3L27.85,26.85L28.05,26.65L27.55,28.75L29.6,34.15L26.95,33.4L30.1,37.15L26,36.75L27.65,37.4C28.05,37.667 28.333,38.35 28.5,39.45C28.567,40.517 25.833,40.1 20.3,38.2L24.35,42.4L24.2,43.85C19.733,43.517 17.083,42.767 16.25,41.6L18.4,44.9L19.1,46.5L14.9,46.05C15.133,41.783 15.817,38.517 16.95,36.25C18.183,33.817 19.183,32.617 19.95,32.65L20.05,31.45M33.85,23.7L36.25,22.4C35.65,22.967 35.433,23.883 35.6,25.15C35.867,26.517 36.5,27.883 37.5,29.25C38.6,30.583 39.75,31.483 40.95,31.95L41.9,32.3L39.65,32.8L35.1,32.1L37.55,34.05L34.05,36.3C31.683,33.067 30.6,31.167 30.8,30.6C31,29.767 31.933,30.45 33.6,32.65C32.167,28.85 31.883,26.483 32.75,25.55L33.85,23.7" style="fill:#4d433a;"/>
                    <path d="M41.9,32.3L43,32.3L38.1,36.5L36.9,37.5C36.4,37.867 35.883,38.283 35.35,38.75C31.45,41.483 25.483,44.667 17.45,48.3L15.35,47.85C14.317,47.45 13.367,46.783 12.5,45.85L14.85,46.05L14.9,46.05L19.1,46.5L18.4,44.9L16.25,41.6C17.083,42.767 19.733,43.517 24.2,43.85L24.35,42.4L20.3,38.2C25.833,40.1 28.567,40.517 28.5,39.45C28.333,38.35 28.05,37.667 27.65,37.4L26,36.75L30.1,37.15L26.95,33.4L29.6,34.15C29.9,34.217 31.383,34.933 34.05,36.3L37.55,34.05L35.1,32.1L39.65,32.8L41.9,32.3M26.95,33.4L26.1,33.1L26.1,33.05L26.15,33.05L26.85,33.2L26.95,33.4" style="fill:#362f29;"/>
                    <path d="M13.65,35.7L20.05,31.45L19.95,32.65C19.183,32.617 18.183,33.817 16.95,36.25C15.817,38.517 15.133,41.783 14.9,46.05L14.85,46.05C14.017,42.617 13.617,39.167 13.65,35.7M20.3,31.35C22.733,29.75 25.25,28.25 27.85,26.85L27.15,28.3L27.2,28.4C27.433,29.767 27.083,31.317 26.15,33.05L26.1,33.05L26.1,33.1C25.667,34 25.033,34.933 24.2,35.9C25.267,34.5 25.667,33.383 25.4,32.55L24.35,29.55C23.85,29.883 23.05,30.983 21.95,32.85L21.1,34.5L20.3,32.45L20.3,31.35M28.05,26.65L33.85,23.7L32.75,25.55C31.883,26.483 32.167,28.85 33.6,32.65C31.933,30.45 31,29.767 30.8,30.6C30.6,31.167 31.683,33.067 34.05,36.3C31.383,34.933 29.9,34.217 29.6,34.15L27.55,28.75L28.05,26.65" style="fill:#5c5047;"/>
                    <path d="M41.9,32.3L43,32.3L38.1,36.5L36.9,37.5C36.4,37.867 35.883,38.283 35.35,38.75C31.45,41.483 25.483,44.667 17.45,48.3L15.35,47.85C14.317,47.45 13.367,46.783 12.5,45.85L11.85,45.15C10.817,43.783 10.183,42.433 9.95,41.1C9.783,39.8 9.917,38.767 10.35,38L13.65,35.7L20.05,31.45L20.3,31.35C22.733,29.75 25.25,28.25 27.85,26.85L28.05,26.65L33.85,23.7L36.25,22.4C35.65,22.967 35.433,23.883 35.6,25.15C35.867,26.517 36.5,27.883 37.5,29.25C38.6,30.583 39.75,31.483 40.95,31.95L41.9,32.3Z" style="fill:none;fill-rule:nonzero;stroke:#000;stroke-width:0.05px;"/>
                    <path d="M43.75,30.45C43.65,30.917 43.417,31.283 43.05,31.55L40.55,31.4C39.517,30.867 38.567,30 37.7,28.8C36.833,27.6 36.317,26.417 36.15,25.25C35.983,24.083 36.217,23.283 36.85,22.85C37.217,22.583 37.617,22.467 38.05,22.5" style="fill:none;fill-rule:nonzero;stroke:#000;stroke-width:1px;"/>
                    <path d="M19.3,47.55C19.167,48.15 18.867,48.6 18.4,48.9L15.1,48.75C13.733,48.05 12.483,46.933 11.35,45.4C10.25,43.833 9.583,42.267 9.35,40.7C9.15,39.2 9.45,38.15 10.25,37.55C10.717,37.25 11.25,37.133 11.85,37.2" style="fill:none;fill-rule:nonzero;stroke:#000;stroke-width:1px;"/>
                    <path d="M39.05,40.15L39,40.1L39,40.05L39.35,34.9L44.35,29.1L51.05,26.15L55.6,27.8L55.6,27.85L55.55,28.25L55.3,33L55.05,33.25L53.75,34.8L53.55,35L50.35,38.8L48.55,39.55L43.65,41.65L43.55,41.7L39.05,40.15L39,40.05L39.05,40.15" style="fill:#302925;"/>
                    <path d="M55.6,27.85L58.95,32.45L58.95,32.5L59.05,32.75L59.05,33.05L55.55,28.25L55.6,27.85" style="fill:#6d5f54;"/>
                    <path d="M59.05,33.05L58.8,38L55.25,33.05L55.3,33L55.55,28.25L59.05,33.05M58.65,38.15L53.95,43.6L51.8,39.4L53.55,35L53.75,34.8L55.05,33.25L55.3,33.5L58.65,38.15" style="fill:#d7a925;"/>
                    <path d="M58.8,38L58.65,38.15L55.3,33.5L55.05,33.25L55.25,33.05L58.8,38" style="fill:#4d433a;"/>
                    <path d="M53.95,43.65L53.8,43.75L49.6,45.55L47,46.6L45.2,44.1L45.3,44.1L44.15,42.45L48.55,39.55L50.35,38.8L51.45,40.3L51.5,40.4L52.85,42.25L52.9,42.25L53.95,43.65" style="fill:#895f2c;"/>
                    <path d="M47,46.6L42.55,45.05L39.05,40.15L43.55,41.7L43.65,41.65L44.15,42.45L45.3,44.1L45.2,44.1L47,46.6" style="fill:#573c1c;"/>
                    <path d="M53.95,43.6L54.1,43.85L53.95,43.65L53.95,43.6L53.95,43.65L52.9,42.25L52.85,42.25L51.5,40.4L51.45,40.3L50.35,38.8L53.55,35L51.8,39.4L53.95,43.6M48.55,39.55L44.15,42.45L43.65,41.65L48.55,39.55" style="fill:#e3b61c;"/>
                    <path d="M49.6,45.55L47.1,46.65L47,46.6L49.6,45.55" style="fill:#8e8e8e;"/>
                    <path d="M39.05,40.15L39,40.1L39,40.05L39.35,34.9L44.35,29.1L51.05,26.15L55.6,27.8L55.6,27.85L58.95,32.45M58.95,32.5L59.05,32.75L59.05,33.05L58.8,38L58.65,38.15L53.95,43.6L53.95,43.65L52.9,42.25M53.95,43.65L53.8,43.75L49.6,45.55L47,46.6L42.55,45.05L39.05,40.15L39,40.05M47.1,46.65L47,46.6L45.2,44.1M55.6,27.85L55.55,28.25L55.3,33L55.25,33.05L58.8,38M55.05,33.25L53.75,34.8L53.55,35L50.35,38.8L48.55,39.55L43.65,41.65L43.55,41.7L39.05,40.15M52.85,42.25L51.5,40.4L51.45,40.3L50.35,38.8M44.15,42.45L45.3,44.1M55.25,33.05L55.05,33.25M43.65,41.65L44.15,42.45" style="fill:none;fill-rule:nonzero;stroke:#000;stroke-width:0.05px;"/>
                    <path d="M55.55,28.25L59.05,33.05M55.3,33.5L58.65,38.15" style="fill:none;fill-rule:nonzero;stroke:#bea588;stroke-width:0.05px;"/>
                    <path d="M45.7,27.5L48.75,27.65L54.75,28.45L54.8,28.45L54.95,31.9L55.35,32.15L55.3,33.15L44.75,28.25L45.7,27.5" style="fill:#6d5f54;"/>
                    <path d="M48.75,27.65L55.55,27.9L55.65,27.95L55.35,32.15L54.95,31.9L54.8,28.45L54.75,28.45L48.75,27.65" style="fill:#bea588;"/>
                    <path d="M55.3,33.15L55.35,33.15L50.35,38.9L50.35,38.85L43.85,28.9L44.75,28.25L55.3,33.15" style="fill:#4d433a;"/>
                    <path d="M45.7,27.5L45.4,26.95L51.05,26.1L55.55,27.9L48.75,27.65L45.7,27.5" style="fill:#897469;"/>
                    <path d="M39.25,39.8L39.05,40.15L39.1,34.8L41,30.75L41.5,30.75L39.25,39.8" style="fill:#211d1b;"/>
                    <path d="M43.75,41.8L39.05,40.25L39.25,39.8L41.5,30.75L42.65,29.85L43.75,41.8" style="fill:#302925;"/>
                    <path d="M50.35,38.85L43.75,41.8L42.65,29.85L43.85,28.9L50.35,38.85" style="fill:#443c35;"/>
                    <path d="M50.35,38.85L43.75,41.8" style="fill:none;fill-rule:nonzero;stroke:#000;stroke-width:0.05px;"/>
                    <path d="M45.8,27.5L45.55,27L51.15,26.1L55.65,27.9L48.9,27.6L45.8,27.5M55.45,32.15L55.4,33.15L54.6,32.75L55,31.9L55.45,32.15" style="fill:#cba652;"/>
                    <path d="M48.9,27.6L55.65,27.9L55.75,28L55.45,32.15L55,31.9L54.9,28.4L48.9,27.6" style="fill:#e3b61c;"/>
                    <path d="M45.8,27.5L48.9,27.6L54.9,28.4L55,31.9L54.6,32.75L44.85,28.25L45.8,27.5" style="fill:#d7a925;"/>
                    <path d="M55.4,33.15L55.45,33.15L50.5,38.9L43.9,28.95L44.85,28.25L54.6,32.75L55.4,33.15" style="fill:#bf8e3b;"/>
                    <path d="M41.6,30.75L42.8,29.8L42.85,30.65L41.6,30.75" style="fill:#302925;"/>
                    <path d="M43.8,41.8L39.15,40.25L39.2,40.15L39.35,39.75L41.6,30.75L42.85,30.65L43.8,41.8" style="fill:#573c1c;"/>
                    <path d="M50.5,38.9L43.8,41.8L42.85,30.65L42.8,29.8L43.9,28.95L50.5,38.9" style="fill:#895f2c;"/>
                    <path d="M39.2,40.15L39.2,34.75L41.1,30.7L41.6,30.75L39.35,39.75L39.2,40.15" style="fill:#211d1b;"/>
                    <path d="M50.5,38.9L43.8,41.8" style="fill:none;fill-rule:nonzero;stroke:#000;stroke-width:0.05px;"/>
                    <path d="M46.75,42.05L49.25,40.95L50.1,41L50.9,41.6L51.15,41.95C51.35,42.283 51.417,42.6 51.35,42.9L50.9,43.55L48.4,44.65L47.5,44.6C47.167,44.467 46.9,44.233 46.7,43.9L46.5,43.6C46.267,43.3 46.167,43 46.2,42.7C46.267,42.4 46.45,42.183 46.75,42.05" style="fill:#a46b35;"/>
                    <path d="M50.9,22.1L50.95,21.7L54.3,26.3L54.3,26.35L54.4,26.6L54.4,26.9L50.9,22.1" style="fill:#6d5f54;"/>
                    <path d="M50.95,21.7L50.9,22.1L50.65,26.85L50.4,27.1L49.1,28.65L48.9,28.85L45.7,32.65L43.9,33.4L39,35.5L38.9,35.55L34.4,34L34.35,33.95L34.35,33.9L34.7,28.75L39.7,22.95L46.4,20L50.95,21.65L50.95,21.7M34.4,34L34.35,33.9L34.4,34" style="fill:#302925;"/>
                    <path d="M50.4,27.1L50.6,26.9L54.15,31.85L54,32L50.65,27.35L50.4,27.1" style="fill:#4d433a;"/>
                    <path d="M50.9,22.1L54.4,26.9L54.15,31.85L50.6,26.9L50.65,26.85L50.9,22.1M48.9,28.85L49.1,28.65L50.4,27.1L50.65,27.35L54,32L49.3,37.45L47.15,33.25L48.9,28.85" style="fill:#d7a925;"/>
                    <path d="M43.9,33.4L45.7,32.65L46.8,34.15L46.85,34.25L48.2,36.1L48.25,36.1L49.3,37.5L49.15,37.6L44.95,39.4L42.35,40.45L40.55,37.95L40.65,37.95L39.5,36.3L43.9,33.4" style="fill:#895f2c;"/>
                    <path d="M39,35.5L43.9,33.4L39.5,36.3L39,35.5M45.7,32.65L48.9,28.85L47.15,33.25L49.3,37.45L49.45,37.7L49.3,37.5L49.3,37.45L49.3,37.5L48.25,36.1L48.2,36.1L46.85,34.25L46.8,34.15L45.7,32.65" style="fill:#e3b61c;"/>
                    <path d="M44.95,39.4L42.45,40.5L42.35,40.45L44.95,39.4" style="fill:#8e8e8e;"/>
                    <path d="M34.4,34L38.9,35.55L39,35.5L39.5,36.3L40.65,37.95L40.55,37.95L42.35,40.45L37.9,38.9L34.4,34" style="fill:#573c1c;"/>
                    <path d="M50.95,21.7L50.9,22.1L50.65,26.85L50.4,27.1L49.1,28.65L48.9,28.85L45.7,32.65L43.9,33.4L39,35.5L39.5,36.3L40.65,37.95M54.4,26.9L54.4,26.6L54.3,26.35M54.3,26.3L50.95,21.7L50.95,21.65L46.4,20L39.7,22.95L34.7,28.75L34.35,33.9L34.4,34L38.9,35.55L39,35.5M54.15,31.85L54,32L49.3,37.45L49.3,37.5L48.25,36.1M49.3,37.5L49.15,37.6L44.95,39.4L42.35,40.45L37.9,38.9L34.4,34L34.35,33.95L34.35,33.9M42.45,40.5L42.35,40.45L40.55,37.95M54.4,26.9L54.15,31.85L50.6,26.9M48.2,36.1L46.85,34.25L46.8,34.15L45.7,32.65" style="fill:none;fill-rule:nonzero;stroke:#000;stroke-width:0.05px;"/>
                    <path d="M50.9,22.1L54.4,26.9M50.65,27.35L54,32" style="fill:none;fill-rule:nonzero;stroke:#bea588;stroke-width:0.05px;"/>
                    <path d="M41.05,21.35L40.75,20.8L46.4,19.95L50.9,21.75L44.1,21.5L41.05,21.35" style="fill:#897469;"/>
                    <path d="M44.1,21.5L50.9,21.75L51,21.8L50.7,26L50.3,25.75L50.15,22.3L50.1,22.3L44.1,21.5" style="fill:#bea588;"/>
                    <path d="M41.05,21.35L44.1,21.5L50.1,22.3L50.15,22.3L50.3,25.75L50.7,26L50.65,27L40.1,22.1L41.05,21.35" style="fill:#6d5f54;"/>
                    <path d="M50.65,27L50.7,27L45.7,32.75L45.7,32.7L39.2,22.75L40.1,22.1L50.65,27" style="fill:#4d433a;"/>
                    <path d="M45.7,32.7L39.1,35.65L38,23.7L39.2,22.75L45.7,32.7" style="fill:#443c35;"/>
                    <path d="M34.6,33.65L34.4,34L34.45,28.65L36.35,24.6L36.85,24.6L34.6,33.65" style="fill:#211d1b;"/>
                    <path d="M39.1,35.65L34.4,34.1L34.6,33.65L36.85,24.6L38,23.7L39.1,35.65" style="fill:#302925;"/>
                    <path d="M45.7,32.7L39.1,35.65" style="fill:none;fill-rule:nonzero;stroke:#000;stroke-width:0.05px;"/>
                    <path d="M44.25,21.45L41.15,21.35L40.9,20.85L46.5,19.95L51,21.75L44.25,21.45M49.95,26.6L50.35,25.75L50.8,26L50.75,27L49.95,26.6" style="fill:#cba652;"/>
                    <path d="M41.15,21.35L44.25,21.45L50.25,22.25L50.35,25.75L49.95,26.6L40.2,22.1L41.15,21.35" style="fill:#d7a925;"/>
                    <path d="M44.25,21.45L51,21.75L51.1,21.85L50.8,26L50.35,25.75L50.25,22.25L44.25,21.45" style="fill:#e3b61c;"/>
                    <path d="M40.2,22.1L49.95,26.6L50.75,27L50.8,27L45.85,32.75L39.25,22.8L40.2,22.1" style="fill:#bf8e3b;"/>
                    <path d="M45.85,32.75L39.15,35.65L38.2,24.5L38.15,23.65L39.25,22.8L45.85,32.75" style="fill:#895f2c;"/>
                    <path d="M36.95,24.6L38.15,23.65L38.2,24.5L36.95,24.6" style="fill:#302925;"/>
                    <path d="M39.15,35.65L34.5,34.1L34.55,34L34.7,33.6L36.95,24.6L38.2,24.5L39.15,35.65" style="fill:#573c1c;"/>
                    <path d="M34.55,34L34.55,28.6L36.45,24.55L36.95,24.6L34.7,33.6L34.55,34" style="fill:#211d1b;"/>
                    <path d="M45.85,32.75L39.15,35.65" style="fill:none;fill-rule:nonzero;stroke:#000;stroke-width:0.05px;"/>
                    <path d="M45.45,34.85L46.25,35.45L46.5,35.8C46.7,36.133 46.767,36.45 46.7,36.75L46.25,37.4L43.75,38.5L42.85,38.45L42.05,37.75L41.85,37.45C41.617,37.15 41.517,36.85 41.55,36.55C41.617,36.25 41.8,36.033 42.1,35.9L44.6,34.8L45.45,34.85" style="fill:#a46b35;"/>
                    <path d="M46.55,15.8L46.6,15.4L49.95,20L49.95,20.05L50.05,20.3L50.05,20.6L46.55,15.8" style="fill:#6d5f54;"/>
                    <path d="M46.6,15.4L46.55,15.8L46.3,20.55L46.05,20.8L44.75,22.35L44.55,22.55L41.35,26.35L39.55,27.1L34.65,29.2L34.55,29.25L30.05,27.7L30,27.65L30,27.6L30.35,22.45L35.35,16.65L42.05,13.7L46.6,15.35L46.6,15.4M30.05,27.7L30,27.6L30.05,27.7" style="fill:#302925;"/>
                    <path d="M46.55,15.8L50.05,20.6L49.8,25.55L46.25,20.6L46.3,20.55L46.55,15.8M44.55,22.55L44.75,22.35L46.05,20.8L46.3,21.05L49.65,25.7L44.95,31.15L42.8,26.95L44.55,22.55" style="fill:#d7a925;"/>
                    <path d="M46.05,20.8L46.25,20.6L49.8,25.55L49.65,25.7L46.3,21.05L46.05,20.8" style="fill:#4d433a;"/>
                    <path d="M39.55,27.1L41.35,26.35L42.45,27.85L42.5,27.95L43.85,29.8L43.9,29.8L44.95,31.2L44.8,31.3L40.6,33.1L38,34.15L36.2,31.65L36.3,31.65L35.15,30L39.55,27.1" style="fill:#895f2c;"/>
                    <path d="M34.65,29.2L39.55,27.1L35.15,30L34.65,29.2M41.35,26.35L44.55,22.55L42.8,26.95L44.95,31.15L45.1,31.4L44.95,31.2L44.95,31.15L44.95,31.2L43.9,29.8L43.85,29.8L42.5,27.95L42.45,27.85L41.35,26.35" style="fill:#e3b61c;"/>
                    <path d="M30.05,27.7L34.55,29.25L34.65,29.2L35.15,30L36.3,31.65L36.2,31.65L38,34.15L33.55,32.6L30.05,27.7" style="fill:#573c1c;"/>
                    <path d="M40.6,33.1L38.1,34.2L38,34.15L40.6,33.1" style="fill:#8e8e8e;"/>
                    <path d="M46.6,15.4L46.55,15.8L46.3,20.55L46.25,20.6L49.8,25.55L50.05,20.6L50.05,20.3L49.95,20.05M49.95,20L46.6,15.4L46.6,15.35L42.05,13.7L35.35,16.65L30.35,22.45L30,27.6L30.05,27.7L34.55,29.25L34.65,29.2L39.55,27.1L41.35,26.35L44.55,22.55L44.75,22.35L46.05,20.8L46.25,20.6M49.8,25.55L49.65,25.7L44.95,31.15L44.95,31.2L43.9,29.8M44.95,31.2L44.8,31.3L40.6,33.1L38,34.15L33.55,32.6L30.05,27.7L30,27.65L30,27.6M38.1,34.2L38,34.15L36.2,31.65M43.85,29.8L42.5,27.95L42.45,27.85L41.35,26.35M34.65,29.2L35.15,30L36.3,31.65" style="fill:none;fill-rule:nonzero;stroke:#000;stroke-width:0.05px;"/>
                    <path d="M46.55,15.8L50.05,20.6M49.65,25.7L46.3,21.05" style="fill:none;fill-rule:nonzero;stroke:#bea588;stroke-width:0.05px;"/>
                    <path d="M46.55,15.4L46.65,15.45L46.35,19.65L45.95,19.4L45.8,15.95L45.75,15.95L39.75,15.15L46.55,15.4" style="fill:#bea588;"/>
                    <path d="M46.3,20.65L46.35,20.65L41.35,26.4L41.35,26.35L34.85,16.4L35.75,15.75L46.3,20.65" style="fill:#4d433a;"/>
                    <path d="M39.75,15.15L45.75,15.95L45.8,15.95L45.95,19.4L46.35,19.65L46.3,20.65L35.75,15.75L36.7,15L39.75,15.15" style="fill:#6d5f54;"/>
                    <path d="M46.55,15.4L39.75,15.15L36.7,15L36.4,14.45L42.05,13.6L46.55,15.4" style="fill:#897469;"/>
                    <path d="M34.75,29.3L30.05,27.75L30.25,27.3L32.5,18.25L33.65,17.35L34.75,29.3" style="fill:#302925;"/>
                    <path d="M41.35,26.35L34.75,29.3L33.65,17.35L34.85,16.4L41.35,26.35" style="fill:#443c35;"/>
                    <path d="M30.25,27.3L30.05,27.65L30.1,22.3L32,18.25L32.5,18.25L30.25,27.3" style="fill:#211d1b;"/>
                    <path d="M41.35,26.35L34.75,29.3" style="fill:none;fill-rule:nonzero;stroke:#000;stroke-width:0.05px;"/>
                    <path d="M46.65,15.45L46.75,15.55L46.45,19.7L46,19.45L45.9,15.95L39.9,15.15L46.65,15.45" style="fill:#e3b61c;"/>
                    <path d="M46.65,15.45L39.9,15.15L36.8,15.05L36.55,14.55L42.15,13.65L46.65,15.45M46,19.45L46.45,19.7L46.4,20.7L45.6,20.3L46,19.45" style="fill:#cba652;"/>
                    <path d="M39.9,15.15L45.9,15.95L46,19.45L45.6,20.3L35.85,15.8L36.8,15.05L39.9,15.15" style="fill:#d7a925;"/>
                    <path d="M46.4,20.7L46.45,20.7L41.5,26.45L34.9,16.5L35.85,15.8L45.6,20.3L46.4,20.7" style="fill:#bf8e3b;"/>
                    <path d="M32.6,18.3L33.8,17.35L33.85,18.2L32.6,18.3" style="fill:#302925;"/>
                    <path d="M34.8,29.35L30.15,27.8L30.2,27.7L30.35,27.3L32.6,18.3L33.85,18.2L34.8,29.35" style="fill:#573c1c;"/>
                    <path d="M41.5,26.45L34.8,29.35L33.85,18.2L33.8,17.35L34.9,16.5L41.5,26.45" style="fill:#895f2c;"/>
                    <path d="M30.2,27.7L30.2,22.3L32.1,18.25L32.6,18.3L30.35,27.3L30.2,27.7" style="fill:#211d1b;"/>
                    <path d="M41.5,26.45L34.8,29.35" style="fill:none;fill-rule:nonzero;stroke:#000;stroke-width:0.05px;"/>
                    <path d="M41.1,28.55L41.9,29.15L42.15,29.5C42.35,29.833 42.417,30.15 42.35,30.45C42.317,30.717 42.167,30.933 41.9,31.1L39.4,32.2L38.5,32.15L37.7,31.45L37.5,31.15C37.267,30.85 37.167,30.55 37.2,30.25C37.267,29.95 37.45,29.733 37.75,29.6L40.25,28.5L41.1,28.55" style="fill:#a46b35;"/>
                    <path d="M29.3,12.3C34.767,13.333 39.683,15.667 44.05,19.3C43.45,19.733 42.9,20.25 42.4,20.85L40.65,22.65C37.417,19.383 33.633,15.933 29.3,12.3" style="fill:#bf8e3b;"/>
                    <path d="M45.95,16.1L46.15,18.05L44.05,19.3C39.683,15.667 34.767,13.333 29.3,12.3L18.5,13L18,12.15L18.45,11.9C29.017,8 38.183,9.4 45.95,16.1" style="fill:#d7a925;"/>
                    <path d="M8.4,21.3L8.4,21.25L8.35,21.1L8.65,20.85L8.7,20.8L8.5,21.05L8.5,21.15L8.5,21.05L8.55,21.15L8.5,21.15L8.4,21.3M8.5,21.05L8.65,20.85L8.5,21.05" style="fill:#443c35;"/>
                    <path d="M18.5,13L29.3,12.3C33.633,15.933 37.417,19.383 40.65,22.65L37.85,24.85C37.217,25.25 36.7,25.683 36.3,26.15C28.567,20.05 19.317,18.383 8.55,21.15L8.5,21.05L8.7,20.8L8.65,20.85L12.7,15.15L12.85,15.6L13.05,14.9L13.1,14.9L13.4,14.7C14.933,13.933 16.633,13.367 18.5,13" style="fill:#895f2c;"/>
                    <path d="M8.55,21.3L8.4,21.3L8.5,21.15L8.55,21.15L8.55,21.3M8.5,21.3L8.55,21.15L8.5,21.3" style="fill:#302925;"/>
                    <path d="M36.3,26.15L35.55,27.05L32.25,27.05C25.35,22.45 17.45,20.533 8.55,21.3L8.55,21.15C19.317,18.383 28.567,20.05 36.3,26.15" style="fill:#573c1c;"/>
                    <path d="M18,12.15L18.5,13C16.633,13.367 14.933,13.933 13.4,14.7L18,12.15" style="fill:#c6a73d;"/>
                    <path d="M45.95,16.1C38.183,9.4 29.017,8 18.45,11.9L18,12.15L13.4,14.7L13.1,14.9L13.05,14.9L12.7,15.15L8.65,20.85L8.5,21.05L8.7,20.8M32.25,27.05C25.35,22.45 17.45,20.533 8.55,21.3L8.4,21.3L8.5,21.15L8.5,21.05M8.55,21.15L8.5,21.3" style="fill:none;fill-rule:nonzero;stroke:#000;stroke-width:0.05px;"/>
                </g>
                <g id="shape1">
                    <path d="M55.7,5.65L63.5,5.45C73.433,5.483 82.183,6.283 89.75,7.85C99.383,9.817 104.25,12.467 104.35,15.8L104.45,16.45L104.2,17.3L91.75,60.85L90.8,63.4L90.9,63.9L89.95,67.9C88.45,70.1 85.517,72.033 81.15,73.7L74.7,75.65C74.367,73.717 73.85,71.817 73.15,69.95C71.05,64.717 73.133,60.333 79.4,56.8C80.2,53.167 77.567,50.25 71.5,48.05C77.067,49.55 80.817,47.533 82.75,42C84.25,37.767 83.117,35.8 79.35,36.1C81.15,35.7 82.433,34.517 83.2,32.55C84.367,29.95 84.85,27.867 84.65,26.3C84.117,23 80.533,21.833 73.9,22.8L77.35,17.05C72.517,12.817 66.983,12.4 60.75,15.8C62.517,13.733 63.417,11.6 63.45,9.4C60.717,8.267 58.133,7.017 55.7,5.65M104.2,17.3C102.933,20.067 98.333,22.583 90.4,24.85L84.65,26.3L90.4,24.85C98.333,22.583 102.933,20.067 104.2,17.3" style="fill:#825a33;"/>
                    <path d="M41.85,6.55L54.65,5.65L55.7,5.65C58.133,7.017 60.717,8.267 63.45,9.4C63.417,11.6 62.517,13.733 60.75,15.8C66.983,12.4 72.517,12.817 77.35,17.05L73.9,22.8C80.533,21.833 84.117,23 84.65,26.3C84.85,27.867 84.367,29.95 83.2,32.55C82.433,34.517 81.15,35.7 79.35,36.1C83.117,35.8 84.25,37.767 82.75,42C80.817,47.533 77.067,49.55 71.5,48.05C77.567,50.25 80.2,53.167 79.4,56.8C73.133,60.333 71.05,64.717 73.15,69.95C73.85,71.817 74.367,73.717 74.7,75.65C69.6,76.917 63.85,77.5 57.45,77.4L55.25,76.95L65.25,29.05L65.4,29.15L41.85,6.55M84.65,26.3C78.85,27.6 72.433,28.55 65.4,29.15C72.433,28.55 78.85,27.6 84.65,26.3" style="fill:#b9874a;"/>
                    <path d="M91.75,60.85C94.583,63.617 96,66.017 96,68.05C96,70.717 94.8,73.15 92.4,75.35C90.533,77.083 87.9,78.683 84.5,80.15L83.85,80.35C76.45,83.417 67.683,85 57.55,85.1L56.9,77.35L57.45,77.4C63.85,77.5 69.6,76.917 74.7,75.65L81.15,73.7C85.517,72.033 88.45,70.1 89.95,67.9C90.517,66.867 90.817,65.75 90.85,64.55L90.95,64.45L90.9,63.9L91.05,63.6L91.75,60.85" style="fill:#9898cc;fill-opacity:0.7;"/>
                    <path d="M27.7,8.65C32.033,7.75 36.75,7.05 41.85,6.55L65.4,29.15L65.25,29.05L53.6,29.65L65.25,29.05L55.25,76.95L57.45,77.4L56.9,77.35L50,77.05C46.067,76.75 42.433,76.167 39.1,75.3L33.85,73.6L32.1,72.85L13.85,25.3C15.917,26.067 18.5,26.767 21.6,27.4L24.9,28.05L33.45,28.8L35.75,43.2L35.75,29L36.8,24.1L35.15,26.4L33.8,24.65C31.567,21.517 29.533,16.183 27.7,8.65M90.8,63.4L91.75,60.85L90.9,63.5L90.8,63.4M53.6,27.15L53.6,29.65C53.5,34.617 53.167,39.4 52.6,44C53.167,39.4 53.5,34.617 53.6,29.65L53.6,27.15M36.7,72.75C34.167,65.75 31.517,56.933 28.75,46.3C26.15,36.233 24.867,30.15 24.9,28.05C24.867,30.15 26.15,36.233 28.75,46.3C31.517,56.933 34.167,65.75 36.7,72.75M35.9,47.4L35.75,43.2L35.9,47.4M50,77.05C50.4,75.183 51.233,71.883 52.5,67.15C54.467,59.75 55.833,55.333 56.6,53.9C55.833,55.333 54.467,59.75 52.5,67.15C51.233,71.883 50.4,75.183 50,77.05M42.6,16.05L36.8,24.1L42.6,16.05M53.6,29.65L35.75,29L53.6,29.65M41.6,38.35L39.1,75.3L41.6,38.35" style="fill:#d2b88c;"/>
                    <path d="M91.75,60.85L91.05,63.6L90.9,63.5L91.75,60.85" style="fill:#990;"/>
                    <path d="M22.35,60.6L7.9,21.9C7.233,21.167 6.867,20.35 6.8,19.45C6.667,16.083 11.383,13.05 20.95,10.35L27.7,8.65C29.533,16.183 31.567,21.517 33.8,24.65L35.15,26.4L33.45,28.8L24.9,28.05L21.6,27.4C18.5,26.767 15.917,26.067 13.85,25.3C11.017,24.3 9.033,23.167 7.9,21.9C9.033,23.167 11.017,24.3 13.85,25.3L32.1,72.85C27.633,70.817 25.05,68.483 24.35,65.85L22.35,60.6" style="fill:#dbc5a4;"/>
                    <path d="M35.15,26.4L36.8,24.1L35.75,29L35.75,43.2L33.45,28.8L35.15,26.4" style="fill:#a57341;"/>
                    <path d="M22.85,76.75C19.117,74.217 17.283,71.25 17.35,67.85C17.217,65.583 18.883,63.167 22.35,60.6L24.35,65.85C25.05,68.483 27.633,70.817 32.1,72.85L33.85,73.6L39.1,75.3C42.433,76.167 46.067,76.75 50,77.05L56.9,77.35L57.55,85.1L56.6,85.15C45.733,85.15 36.483,83.45 28.85,80.05C26.45,79.017 24.45,77.917 22.85,76.75M49.7,78.75L50,77.05L49.7,78.75" style="fill:#9999cb;fill-opacity:0.5;"/>
                    <path d="M84.65,26.3L90.4,24.85C98.333,22.583 102.933,20.067 104.2,17.3M65.25,29.05L65.4,29.15C72.433,28.55 78.85,27.6 84.65,26.3M53.6,29.65L65.25,29.05M33.45,28.8L35.75,43.2L35.75,29L36.8,24.1L35.15,26.4L33.45,28.8L24.9,28.05L21.6,27.4C18.5,26.767 15.917,26.067 13.85,25.3C11.017,24.3 9.033,23.167 7.9,21.9M35.75,43.2L35.9,47.4M39.1,75.3L41.6,38.35M35.75,29L53.6,29.65M36.8,24.1L42.6,16.05" style="fill:none;fill-rule:nonzero;stroke:#003200;stroke-opacity:0.5;stroke-width:0.05px;"/>
                    <path d="M55.7,5.65L63.5,5.45C73.433,5.483 82.183,6.283 89.75,7.85C99.383,9.817 104.25,12.467 104.35,15.8L104.45,16.45L104.2,17.3L91.75,60.85M22.35,60.6L7.9,21.9C7.233,21.167 6.867,20.35 6.8,19.45C6.667,16.083 11.383,13.05 20.95,10.35L27.7,8.65C32.033,7.75 36.75,7.05 41.85,6.55L54.65,5.65L55.7,5.65" style="fill:none;fill-rule:nonzero;stroke:#960;stroke-width:1px;"/>
                    <path d="M89.95,67.9L90.9,63.9L91.05,63.6L91.75,60.85M24.35,65.85L22.35,60.6" style="fill:none;fill-rule:nonzero;stroke:#960;stroke-width:0.05px;"/>
                    <path d="M74.7,75.65L81.15,73.7C85.517,72.033 88.45,70.1 89.95,67.9C90.517,66.867 90.817,65.75 90.85,64.55L90.95,64.45L90.9,63.9M92.4,75.35C90.533,77.083 87.9,78.683 84.5,80.15L83.85,80.35C76.45,83.417 67.683,85 57.55,85.1L56.6,85.15C45.733,85.15 36.483,83.45 28.85,80.05C26.45,79.017 24.45,77.917 22.85,76.75M57.45,77.4C63.85,77.5 69.6,76.917 74.7,75.65M32.1,72.85C27.633,70.817 25.05,68.483 24.35,65.85M50,77.05C46.067,76.75 42.433,76.167 39.1,75.3L33.85,73.6L32.1,72.85M50,77.05L56.9,77.35L57.45,77.4" style="fill:none;fill-rule:nonzero;stroke:#67afaf;stroke-width:0.05px;"/>
                    <path d="M91.75,60.85C94.583,63.617 96,66.017 96,68.05C96,70.717 94.8,73.15 92.4,75.35C95.067,77.15 97.683,79.217 100.25,81.55C111.65,92.25 117.35,105.183 117.35,120.35C117.25,135.45 111.533,148.333 100.2,159C87.9,170.367 74,176.05 58.5,176.05C51.1,176.05 44.133,174.717 37.6,172.05C30.3,169.217 23.5,164.783 17.2,158.75C5.7,148.083 -0.033,135.2 0,120.1C0.033,104.967 5.817,92.067 17.35,81.4C19.05,79.733 20.883,78.183 22.85,76.75C19.117,74.217 17.283,71.25 17.35,67.85C17.217,65.583 18.883,63.167 22.35,60.6" style="fill:none;fill-rule:nonzero;stroke:#67afaf;stroke-width:1px;"/>
                    <path d="M53.6,29.65C53.5,34.617 53.167,39.4 52.6,44M53.6,29.65L53.6,27.15M24.9,28.05C24.867,30.15 26.15,36.233 28.75,46.3C31.517,56.933 34.167,65.75 36.7,72.75M56.6,53.9C55.833,55.333 54.467,59.75 52.5,67.15C51.233,71.883 50.4,75.183 50,77.05L49.7,78.75" style="fill:none;fill-rule:nonzero;stroke:#b9874a;stroke-opacity:0.5;stroke-width:0.05px;"/>
                    <path d="M17.45,81.15C19.117,79.483 20.933,77.967 22.9,76.6C24.5,77.733 26.5,78.8 28.9,79.8C36.533,83.2 45.783,84.917 56.65,84.95L57.6,84.9L57.8,86.1L77.8,118.8L76.75,154.6L62.55,168.5L37.65,171.85C30.317,169.017 23.517,164.583 17.25,158.55C5.75,147.917 0.017,135.017 0.05,119.85C0.083,104.717 5.883,91.817 17.45,81.15" style="fill:#9999cb;fill-opacity:0.5;"/>
                </g>
                <g id="shape2" transform="matrix(-0.6712,-0.5337,-0.5337,0.6712,100.1,14.25)">
                    <path d="M26.4,22.9C26.233,23.133 25.967,23.283 25.6,23.35C24.567,23.55 22.917,23.067 20.65,21.9C17.55,20.333 14.2,18 10.6,14.9C7,11.833 4.2,8.883 2.2,6.05C0.467,3.65 -0.25,1.95 0.05,0.95L0.15,0.65L0.3,0.5C1.067,-0.4 2.983,-0.067 6.05,1.5C9.15,3.067 12.5,5.4 16.1,8.5C19.7,11.6 22.517,14.55 24.55,17.35C26.55,20.15 27.167,22 26.4,22.9" style="fill:#6d532c;"/>
                    <path d="M26.4,22.9C26.233,23.133 25.967,23.283 25.6,23.35C24.567,23.55 22.917,23.067 20.65,21.9C17.55,20.333 14.2,18 10.6,14.9C7,11.833 4.2,8.883 2.2,6.05C0.467,3.65 -0.25,1.95 0.05,0.95L0.15,0.65L0.3,0.5C1.067,-0.4 2.983,-0.067 6.05,1.5C9.15,3.067 12.5,5.4 16.1,8.5C19.7,11.6 22.517,14.55 24.55,17.35C26.55,20.15 27.167,22 26.4,22.9Z" style="fill:none;fill-rule:nonzero;stroke:#960;stroke-width:0.05px;"/>
                </g>
                <g id="shape21" serif:id="shape2" transform="matrix(-0.3193,-0.2539,-0.2539,0.3193,73.4,23.2)">
                    <path d="M26.4,22.9C26.233,23.133 25.967,23.283 25.6,23.35C24.567,23.55 22.917,23.067 20.65,21.9C17.55,20.333 14.2,18 10.6,14.9C7,11.833 4.2,8.883 2.2,6.05C0.467,3.65 -0.25,1.95 0.05,0.95L0.15,0.65L0.3,0.5C1.067,-0.4 2.983,-0.067 6.05,1.5C9.15,3.067 12.5,5.4 16.1,8.5C19.7,11.6 22.517,14.55 24.55,17.35C26.55,20.15 27.167,22 26.4,22.9" style="fill:#6d532c;"/>
                    <path d="M26.4,22.9C26.233,23.133 25.967,23.283 25.6,23.35C24.567,23.55 22.917,23.067 20.65,21.9C17.55,20.333 14.2,18 10.6,14.9C7,11.833 4.2,8.883 2.2,6.05C0.467,3.65 -0.25,1.95 0.05,0.95L0.15,0.65L0.3,0.5C1.067,-0.4 2.983,-0.067 6.05,1.5C9.15,3.067 12.5,5.4 16.1,8.5C19.7,11.6 22.517,14.55 24.55,17.35C26.55,20.15 27.167,22 26.4,22.9Z" style="fill:none;fill-rule:nonzero;stroke:#960;stroke-width:0.05px;"/>
                </g>
                <g id="shape22" serif:id="shape2" transform="matrix(-0.2665,-0.2119,-0.2119,0.2665,30.2,19.7)">
                    <path d="M26.4,22.9C26.233,23.133 25.967,23.283 25.6,23.35C24.567,23.55 22.917,23.067 20.65,21.9C17.55,20.333 14.2,18 10.6,14.9C7,11.833 4.2,8.883 2.2,6.05C0.467,3.65 -0.25,1.95 0.05,0.95L0.15,0.65L0.3,0.5C1.067,-0.4 2.983,-0.067 6.05,1.5C9.15,3.067 12.5,5.4 16.1,8.5C19.7,11.6 22.517,14.55 24.55,17.35C26.55,20.15 27.167,22 26.4,22.9" style="fill:#6d532c;"/>
                    <path d="M26.4,22.9C26.233,23.133 25.967,23.283 25.6,23.35C24.567,23.55 22.917,23.067 20.65,21.9C17.55,20.333 14.2,18 10.6,14.9C7,11.833 4.2,8.883 2.2,6.05C0.467,3.65 -0.25,1.95 0.05,0.95L0.15,0.65L0.3,0.5C1.067,-0.4 2.983,-0.067 6.05,1.5C9.15,3.067 12.5,5.4 16.1,8.5C19.7,11.6 22.517,14.55 24.55,17.35C26.55,20.15 27.167,22 26.4,22.9Z" style="fill:none;fill-rule:nonzero;stroke:#960;stroke-width:0.05px;"/>
                </g>
                <g id="shape23" serif:id="shape2" transform="matrix(-0.3193,-0.2539,-0.2539,0.3193,74.15,9.85)">
                    <path d="M26.4,22.9C26.233,23.133 25.967,23.283 25.6,23.35C24.567,23.55 22.917,23.067 20.65,21.9C17.55,20.333 14.2,18 10.6,14.9C7,11.833 4.2,8.883 2.2,6.05C0.467,3.65 -0.25,1.95 0.05,0.95L0.15,0.65L0.3,0.5C1.067,-0.4 2.983,-0.067 6.05,1.5C9.15,3.067 12.5,5.4 16.1,8.5C19.7,11.6 22.517,14.55 24.55,17.35C26.55,20.15 27.167,22 26.4,22.9" style="fill:#6d532c;"/>
                    <path d="M26.4,22.9C26.233,23.133 25.967,23.283 25.6,23.35C24.567,23.55 22.917,23.067 20.65,21.9C17.55,20.333 14.2,18 10.6,14.9C7,11.833 4.2,8.883 2.2,6.05C0.467,3.65 -0.25,1.95 0.05,0.95L0.15,0.65L0.3,0.5C1.067,-0.4 2.983,-0.067 6.05,1.5C9.15,3.067 12.5,5.4 16.1,8.5C19.7,11.6 22.517,14.55 24.55,17.35C26.55,20.15 27.167,22 26.4,22.9Z" style="fill:none;fill-rule:nonzero;stroke:#960;stroke-width:0.05px;"/>
                </g>
                <g id="shape24" serif:id="shape2" transform="matrix(-0.5619,-0.4467,-0.4467,0.5619,57.2,13.4)">
                    <path d="M26.4,22.9C26.233,23.133 25.967,23.283 25.6,23.35C24.567,23.55 22.917,23.067 20.65,21.9C17.55,20.333 14.2,18 10.6,14.9C7,11.833 4.2,8.883 2.2,6.05C0.467,3.65 -0.25,1.95 0.05,0.95L0.15,0.65L0.3,0.5C1.067,-0.4 2.983,-0.067 6.05,1.5C9.15,3.067 12.5,5.4 16.1,8.5C19.7,11.6 22.517,14.55 24.55,17.35C26.55,20.15 27.167,22 26.4,22.9" style="fill:#6d532c;"/>
                    <path d="M26.4,22.9C26.233,23.133 25.967,23.283 25.6,23.35C24.567,23.55 22.917,23.067 20.65,21.9C17.55,20.333 14.2,18 10.6,14.9C7,11.833 4.2,8.883 2.2,6.05C0.467,3.65 -0.25,1.95 0.05,0.95L0.15,0.65L0.3,0.5C1.067,-0.4 2.983,-0.067 6.05,1.5C9.15,3.067 12.5,5.4 16.1,8.5C19.7,11.6 22.517,14.55 24.55,17.35C26.55,20.15 27.167,22 26.4,22.9Z" style="fill:none;fill-rule:nonzero;stroke:#960;stroke-width:0.05px;"/>
                </g>
                <g id="shape3">
                    <path d="M100.25,81.55C111.65,92.25 117.35,105.183 117.35,120.35C117.25,135.45 111.533,148.333 100.2,159C87.9,170.367 74,176.05 58.5,176.05C51.1,176.05 44.133,174.717 37.6,172.05L62.5,168.75L76.7,154.8L77.75,119.05L57.75,86.25L57.55,85.1C67.683,85 76.45,83.417 83.85,80.35L84.5,80.15C87.9,78.683 90.533,77.083 92.4,75.35C95.067,77.15 97.683,79.217 100.25,81.55" style="fill:#9898cc;fill-opacity:0.7;"/>
                    <path d="M95.3,78.9C98.033,81.7 100.55,84.783 102.85,88.15C114.917,105.917 116.05,124.4 106.25,143.6C101.483,118.633 87.35,101.017 63.85,90.75L63.25,89.4L63.6,87.85L67.25,88.6L68.35,87.05L95.3,78.9M93.9,66.25C91.5,73.25 86.717,77.783 79.55,79.85C74.383,81.35 69.217,81.283 64.05,79.65C62.117,78.983 60.517,77.867 59.25,76.3L59.5,76.2C70.333,76.1 80.483,73.533 89.95,68.5L93.9,66.25M36,164L35.4,161.75C52.433,162.883 69.267,161.217 85.9,156.75C88.833,150.15 93.083,144.417 98.65,139.55L98.85,141.55C96.883,150.817 91.967,157.883 84.1,162.75C68.1,172.55 52.067,172.967 36,164" style="fill:#404280;fill-opacity:0.7;"/>
                    <path d="M11.85,99.2L16.7,102.55C16.233,120.35 19.283,137.45 25.85,153.85L23,152.3C2.567,137.133 -1.15,119.433 11.85,99.2M29.15,75.75C29.083,75.317 29.117,74.85 29.25,74.35L29.5,74.2C36.3,76.033 43.35,76.983 50.65,77.05L51.1,77.75C51.5,78.55 51.5,79.217 51.1,79.75C43.9,82.55 36.717,81.667 29.55,77.1C29.283,76.667 29.15,76.217 29.15,75.75M12,90.1L15.2,85.45C22.533,81.683 29.467,81.967 36,86.3C36.467,87.7 36.3,89.033 35.5,90.3C26.267,103.133 18.433,103.067 12,90.1M25.8,68.75C26.3,69.383 26.65,70.25 26.85,71.35C26.817,72.05 26.517,72.617 25.95,73.05C23.217,73.65 21.05,72.45 19.45,69.45C19.25,68.717 19.283,68.017 19.55,67.35C19.55,66.983 19.683,66.6 19.95,66.2L20.6,66.1C22.5,66.167 24.233,67.05 25.8,68.75" style="fill:#f2f2f9;fill-opacity:0.7;"/>
                </g>
            </g>
        </g>
    </g>
</svg>
