<?xml version="1.0" encoding="UTF-8" standalone="no"?>
<!DOCTYPE svg PUBLIC "-//W3C//DTD SVG 1.1//EN" "http://www.w3.org/Graphics/SVG/1.1/DTD/svg11.dtd">
<svg width="100%" height="100%" viewBox="0 0 1184 1716" version="1.1" xmlns="http://www.w3.org/2000/svg" xmlns:xlink="http://www.w3.org/1999/xlink" xml:space="preserve" xmlns:serif="http://www.serif.com/" style="fill-rule:evenodd;clip-rule:evenodd;stroke-linecap:round;stroke-linejoin:round;">
    <g transform="matrix(1,0,0,1,-2726.5,-2928)">
        <g transform="matrix(10,0,0,10,2731.5,2878.5)">
            <g id="sprite0">
                <g id="sprite1" transform="matrix(0.5205,0,0,0.5205,19.9,94.2)">
                    <g id="shape0">
                        <path d="M25.55,13.4C23.183,15.2 21.033,17.433 19.1,20.1C18.167,21.433 17.35,22.767 16.65,24.1C14.483,23.367 12.467,22.433 10.6,21.3C5.1,17.933 1.9,15.3 1,13.4C0.1,11.467 -0.183,9.733 0.15,8.2L0.8,6.2C4.233,12.433 8.433,15.3 13.4,14.8C13.8,11.2 16.1,8.8 20.3,7.6L25.55,13.4M14.55,29.45L90.2,87C89.933,88.367 89.8,89.733 89.8,91.1C89.8,94.8 90.75,97.717 92.65,99.85L21.4,46.9L15.85,42.85C14.483,40.817 13.8,38.233 13.8,35.1C13.8,33.2 14.05,31.317 14.55,29.45" style="fill:#ba6601;"/>
                        <path d="M100.3,70.4C102.633,68.367 105.2,66.8 108,65.7C113.033,63.7 117.317,63.783 120.85,65.95L121.95,66.65C124.783,68.85 126.2,72.2 126.2,76.7C126.2,81.233 124.767,85.717 121.9,90.15L119.2,88.2C119.933,86.6 120.317,85 120.35,83.4C120.417,81.233 119.817,79.617 118.55,78.55L118.05,78.2L112.2,78.05C109.867,79.017 107.85,80.7 106.15,83.1C104.483,85.5 103.617,87.933 103.55,90.4C103.517,92.2 103.917,93.617 104.75,94.65L105.85,95.65C107.45,96.683 109.417,96.717 111.75,95.75L114.25,94.35C112.95,93.55 111.533,93 110,92.7C109.933,90.633 110.233,88.933 110.9,87.6L130.4,106.6L139.6,109.8L145.9,106.35L145.8,108.2C145.567,109.267 145.1,110.383 144.4,111.55L143.85,112.45L143.2,113.25L140.55,115.6C139.25,116.367 137.6,116.583 135.6,116.25C133.6,115.85 130.283,113.383 125.65,108.85L123.6,106.65C122.433,105.25 121.367,103.717 120.4,102.05C119.067,99.083 118.25,97.567 117.95,97.5L116.9,96.35C114.233,98.883 111.267,100.8 108,102.1C102.967,104.1 98.667,104.017 95.1,101.85C94.167,101.283 93.35,100.617 92.65,99.85C90.75,97.717 89.8,94.8 89.8,91.1C89.8,89.733 89.933,88.367 90.2,87C90.8,83.867 92.083,80.767 94.05,77.7L100.3,70.4M116.9,96.35L114.25,94.35L116.9,96.35" style="fill:#834801;"/>
                        <path d="M110.9,87.6C110.233,88.933 109.933,90.633 110,92.7C111.533,93 112.95,93.55 114.25,94.35L111.75,95.75C109.417,96.717 107.45,96.683 105.85,95.65L104.75,94.65C103.917,93.617 103.517,92.2 103.55,90.4C103.617,87.933 104.483,85.5 106.15,83.1C107.85,80.7 109.867,79.017 112.2,78.05L118.05,78.2L118.55,78.55C119.817,79.617 120.417,81.233 120.35,83.4C120.317,85 119.933,86.6 119.2,88.2C117.933,87.033 116.9,85.65 116.1,84.05C113.567,84.45 111.833,85.633 110.9,87.6" style="fill:#723901;"/>
                        <path d="M120.85,65.95C117.317,63.783 113.033,63.7 108,65.7C105.2,66.8 102.633,68.367 100.3,70.4L99.4,68.85L98.95,68.15L98.3,67.6L97.55,67.2L95.75,66.55L94.15,66.35L93.75,70.6L89.45,71.05L88.3,72.5L85.75,70.05L85.25,71.5C84.817,71.533 84.367,71.383 83.9,71.05L80.25,68.1C79.417,67.467 78.517,66.967 77.55,66.6C75.75,65.867 74.067,64.95 72.5,63.85C71.867,63.383 71.233,63.217 70.6,63.35C75.333,67.25 80.483,70.533 86.05,73.2L87.3,75.3L94.05,77.7C92.083,80.767 90.8,83.867 90.2,87L14.55,29.45C15.017,27.65 15.717,25.867 16.65,24.1C17.35,22.767 18.167,21.433 19.1,20.1C21.033,17.433 23.183,15.2 25.55,13.4C27.55,11.833 29.7,10.6 32,9.7C37.033,7.7 41.317,7.783 44.85,9.95C46.05,10.65 47.05,11.517 47.85,12.55L120.85,65.95M110.9,87.6C111.833,85.633 113.567,84.45 116.1,84.05C116.9,85.65 117.933,87.033 119.2,88.2L121.9,90.15L122.8,90.65C122.9,90.883 124.1,91.2 126.4,91.6L127.65,91.8C130.417,92.567 132.967,93.667 135.3,95.1C140.8,98.467 144,101.117 144.9,103.05C145.467,104.217 145.8,105.317 145.9,106.35L139.6,109.8L130.4,106.6L110.9,87.6M0.8,6.2L1.5,4.85L2.1,4L2.7,3.2C3.567,2.133 4.45,1.333 5.35,0.8C6.65,0.033 8.3,-0.167 10.3,0.2C12.3,0.567 15.633,3.033 20.3,7.6C16.1,8.8 13.8,11.2 13.4,14.8C8.433,15.3 4.233,12.433 0.8,6.2" style="fill:#f90;"/>
                        <path d="M21.4,46.9L19.1,45.85C17.767,45.05 16.683,44.05 15.85,42.85L21.4,46.9" style="fill:#fef4ed;"/>
                        <path d="M94.05,77.7L87.3,75.3L86.05,73.2C80.483,70.533 75.333,67.25 70.6,63.35C71.233,63.217 71.867,63.383 72.5,63.85C74.067,64.95 75.75,65.867 77.55,66.6C78.517,66.967 79.417,67.467 80.25,68.1L83.9,71.05C84.367,71.383 84.817,71.533 85.25,71.5L85.75,70.05L88.3,72.5L89.45,71.05L93.75,70.6L94.15,66.35L95.75,66.55L97.55,67.2L98.3,67.6L98.95,68.15L99.4,68.85L100.3,70.4L94.05,77.7" style="fill:#fff;"/>
                        <path d="M100.3,70.4C102.633,68.367 105.2,66.8 108,65.7C113.033,63.7 117.317,63.783 120.85,65.95L47.85,12.55C47.05,11.517 46.05,10.65 44.85,9.95C41.317,7.783 37.033,7.7 32,9.7C29.7,10.6 27.55,11.833 25.55,13.4C23.183,15.2 21.033,17.433 19.1,20.1C18.167,21.433 17.35,22.767 16.65,24.1C15.717,25.867 15.017,27.65 14.55,29.45C14.05,31.317 13.8,33.2 13.8,35.1C13.8,38.233 14.483,40.817 15.85,42.85C16.683,44.05 17.767,45.05 19.1,45.85L21.4,46.9L92.65,99.85C93.35,100.617 94.167,101.283 95.1,101.85C98.667,104.017 102.967,104.1 108,102.1C111.267,100.8 114.233,98.883 116.9,96.35L117.95,97.5C118.25,97.567 119.067,99.083 120.4,102.05C121.367,103.717 122.433,105.25 123.6,106.65L125.65,108.85C130.283,113.383 133.6,115.85 135.6,116.25C137.6,116.583 139.25,116.367 140.55,115.6L143.2,113.25L143.85,112.45L144.4,111.55C145.1,110.383 145.567,109.267 145.8,108.2L145.9,106.35C145.8,105.317 145.467,104.217 144.9,103.05C144,101.117 140.8,98.467 135.3,95.1C132.967,93.667 130.417,92.567 127.65,91.8L126.4,91.6C124.1,91.2 122.9,90.883 122.8,90.65L121.9,90.15C124.767,85.717 126.2,81.233 126.2,76.7C126.2,72.2 124.783,68.85 121.95,66.65L120.85,65.95M90.2,87C90.8,83.867 92.083,80.767 94.05,77.7L100.3,70.4M92.65,99.85C90.75,97.717 89.8,94.8 89.8,91.1C89.8,89.733 89.933,88.367 90.2,87M119.2,88.2C119.933,86.6 120.317,85 120.35,83.4C120.417,81.233 119.817,79.617 118.55,78.55L118.05,78.2L112.2,78.05C109.867,79.017 107.85,80.7 106.15,83.1C104.483,85.5 103.617,87.933 103.55,90.4C103.517,92.2 103.917,93.617 104.75,94.65L105.85,95.65C107.45,96.683 109.417,96.717 111.75,95.75L114.25,94.35C112.95,93.55 111.533,93 110,92.7C109.933,90.633 110.233,88.933 110.9,87.6C111.833,85.633 113.567,84.45 116.1,84.05C116.9,85.65 117.933,87.033 119.2,88.2L121.9,90.15M114.25,94.35L116.9,96.35M20.3,7.6C15.633,3.033 12.3,0.567 10.3,0.2C8.3,-0.167 6.65,0.033 5.35,0.8C4.45,1.333 3.567,2.133 2.7,3.2L2.1,4L1.5,4.85L0.8,6.2L0.15,8.2C-0.183,9.733 0.1,11.467 1,13.4C1.9,15.3 5.1,17.933 10.6,21.3C12.467,22.433 14.483,23.367 16.65,24.1M20.3,7.6L25.55,13.4" style="fill:none;fill-rule:nonzero;stroke:#030;stroke-opacity:0.6;stroke-width:1px;"/>
                    </g>
                </g>
                <g id="shape1">
                    <path d="M55.7,5.65L63.5,5.45C73.433,5.483 82.183,6.283 89.75,7.85C99.383,9.817 104.25,12.467 104.35,15.8L104.45,16.45L104.2,17.3L91.75,60.85L90.8,63.4L90.9,63.9L89.95,67.9C88.45,70.1 85.517,72.033 81.15,73.7L74.7,75.65C74.367,73.717 73.85,71.817 73.15,69.95C71.05,64.717 73.133,60.333 79.4,56.8C80.2,53.167 77.567,50.25 71.5,48.05C77.067,49.55 80.817,47.533 82.75,42C84.25,37.767 83.117,35.8 79.35,36.1C81.15,35.7 82.433,34.517 83.2,32.55C84.367,29.95 84.85,27.867 84.65,26.3C84.117,23 80.533,21.833 73.9,22.8L77.35,17.05C72.517,12.817 66.983,12.4 60.75,15.8C62.517,13.733 63.417,11.6 63.45,9.4C60.717,8.267 58.133,7.017 55.7,5.65M104.2,17.3C102.933,20.067 98.333,22.583 90.4,24.85L84.65,26.3L90.4,24.85C98.333,22.583 102.933,20.067 104.2,17.3" style="fill:#825a33;"/>
                    <path d="M41.85,6.55L54.65,5.65L55.7,5.65C58.133,7.017 60.717,8.267 63.45,9.4C63.417,11.6 62.517,13.733 60.75,15.8C66.983,12.4 72.517,12.817 77.35,17.05L73.9,22.8C80.533,21.833 84.117,23 84.65,26.3C84.85,27.867 84.367,29.95 83.2,32.55C82.433,34.517 81.15,35.7 79.35,36.1C83.117,35.8 84.25,37.767 82.75,42C80.817,47.533 77.067,49.55 71.5,48.05C77.567,50.25 80.2,53.167 79.4,56.8C73.133,60.333 71.05,64.717 73.15,69.95C73.85,71.817 74.367,73.717 74.7,75.65C69.6,76.917 63.85,77.5 57.45,77.4L55.25,76.95L65.25,29.05L65.4,29.15L41.85,6.55M84.65,26.3C78.85,27.6 72.433,28.55 65.4,29.15C72.433,28.55 78.85,27.6 84.65,26.3" style="fill:#b9874a;"/>
                    <path d="M91.75,60.85C94.583,63.617 96,66.017 96,68.05C96,70.717 94.8,73.15 92.4,75.35C90.533,77.083 87.9,78.683 84.5,80.15L83.85,80.35C76.45,83.417 67.683,85 57.55,85.1L56.9,77.35L57.45,77.4C63.85,77.5 69.6,76.917 74.7,75.65L81.15,73.7C85.517,72.033 88.45,70.1 89.95,67.9C90.517,66.867 90.817,65.75 90.85,64.55L90.95,64.45L90.9,63.9L91.05,63.6L91.75,60.85" style="fill:#9898cc;fill-opacity:0.7;"/>
                    <path d="M27.7,8.65C32.033,7.75 36.75,7.05 41.85,6.55L65.4,29.15L65.25,29.05L53.6,29.65L65.25,29.05L55.25,76.95L57.45,77.4L56.9,77.35L50,77.05C46.067,76.75 42.433,76.167 39.1,75.3L33.85,73.6L32.1,72.85L13.85,25.3C15.917,26.067 18.5,26.767 21.6,27.4L24.9,28.05L33.45,28.8L35.75,43.2L35.75,29L36.8,24.1L35.15,26.4L33.8,24.65C31.567,21.517 29.533,16.183 27.7,8.65M90.8,63.4L91.75,60.85L90.9,63.5L90.8,63.4M53.6,27.15L53.6,29.65C53.5,34.617 53.167,39.4 52.6,44C53.167,39.4 53.5,34.617 53.6,29.65L53.6,27.15M36.7,72.75C34.167,65.75 31.517,56.933 28.75,46.3C26.15,36.233 24.867,30.15 24.9,28.05C24.867,30.15 26.15,36.233 28.75,46.3C31.517,56.933 34.167,65.75 36.7,72.75M35.9,47.4L35.75,43.2L35.9,47.4M50,77.05C50.4,75.183 51.233,71.883 52.5,67.15C54.467,59.75 55.833,55.333 56.6,53.9C55.833,55.333 54.467,59.75 52.5,67.15C51.233,71.883 50.4,75.183 50,77.05M42.6,16.05L36.8,24.1L42.6,16.05M53.6,29.65L35.75,29L53.6,29.65M41.6,38.35L39.1,75.3L41.6,38.35" style="fill:#d2b88c;"/>
                    <path d="M91.75,60.85L91.05,63.6L90.9,63.5L91.75,60.85" style="fill:#990;"/>
                    <path d="M22.35,60.6L7.9,21.9C7.233,21.167 6.867,20.35 6.8,19.45C6.667,16.083 11.383,13.05 20.95,10.35L27.7,8.65C29.533,16.183 31.567,21.517 33.8,24.65L35.15,26.4L33.45,28.8L24.9,28.05L21.6,27.4C18.5,26.767 15.917,26.067 13.85,25.3C11.017,24.3 9.033,23.167 7.9,21.9C9.033,23.167 11.017,24.3 13.85,25.3L32.1,72.85C27.633,70.817 25.05,68.483 24.35,65.85L22.35,60.6" style="fill:#dbc5a4;"/>
                    <path d="M35.15,26.4L36.8,24.1L35.75,29L35.75,43.2L33.45,28.8L35.15,26.4" style="fill:#a57341;"/>
                    <path d="M22.85,76.75C19.117,74.217 17.283,71.25 17.35,67.85C17.217,65.583 18.883,63.167 22.35,60.6L24.35,65.85C25.05,68.483 27.633,70.817 32.1,72.85L33.85,73.6L39.1,75.3C42.433,76.167 46.067,76.75 50,77.05L56.9,77.35L57.55,85.1L56.6,85.15C45.733,85.15 36.483,83.45 28.85,80.05C26.45,79.017 24.45,77.917 22.85,76.75M49.7,78.75L50,77.05L49.7,78.75" style="fill:#9999cb;fill-opacity:0.5;"/>
                    <path d="M84.65,26.3L90.4,24.85C98.333,22.583 102.933,20.067 104.2,17.3M65.25,29.05L65.4,29.15C72.433,28.55 78.85,27.6 84.65,26.3M53.6,29.65L65.25,29.05M33.45,28.8L35.75,43.2L35.75,29L36.8,24.1L35.15,26.4L33.45,28.8L24.9,28.05L21.6,27.4C18.5,26.767 15.917,26.067 13.85,25.3C11.017,24.3 9.033,23.167 7.9,21.9M35.75,43.2L35.9,47.4M39.1,75.3L41.6,38.35M35.75,29L53.6,29.65M36.8,24.1L42.6,16.05" style="fill:none;fill-rule:nonzero;stroke:#003200;stroke-opacity:0.5;stroke-width:0.05px;"/>
                    <path d="M55.7,5.65L63.5,5.45C73.433,5.483 82.183,6.283 89.75,7.85C99.383,9.817 104.25,12.467 104.35,15.8L104.45,16.45L104.2,17.3L91.75,60.85M22.35,60.6L7.9,21.9C7.233,21.167 6.867,20.35 6.8,19.45C6.667,16.083 11.383,13.05 20.95,10.35L27.7,8.65C32.033,7.75 36.75,7.05 41.85,6.55L54.65,5.65L55.7,5.65" style="fill:none;fill-rule:nonzero;stroke:#960;stroke-width:1px;"/>
                    <path d="M89.95,67.9L90.9,63.9L91.05,63.6L91.75,60.85M24.35,65.85L22.35,60.6" style="fill:none;fill-rule:nonzero;stroke:#960;stroke-width:0.05px;"/>
                    <path d="M74.7,75.65L81.15,73.7C85.517,72.033 88.45,70.1 89.95,67.9C90.517,66.867 90.817,65.75 90.85,64.55L90.95,64.45L90.9,63.9M92.4,75.35C90.533,77.083 87.9,78.683 84.5,80.15L83.85,80.35C76.45,83.417 67.683,85 57.55,85.1L56.6,85.15C45.733,85.15 36.483,83.45 28.85,80.05C26.45,79.017 24.45,77.917 22.85,76.75M57.45,77.4C63.85,77.5 69.6,76.917 74.7,75.65M32.1,72.85C27.633,70.817 25.05,68.483 24.35,65.85M50,77.05C46.067,76.75 42.433,76.167 39.1,75.3L33.85,73.6L32.1,72.85M50,77.05L56.9,77.35L57.45,77.4" style="fill:none;fill-rule:nonzero;stroke:#67afaf;stroke-width:0.05px;"/>
                    <path d="M91.75,60.85C94.583,63.617 96,66.017 96,68.05C96,70.717 94.8,73.15 92.4,75.35C95.067,77.15 97.683,79.217 100.25,81.55C111.65,92.25 117.35,105.183 117.35,120.35C117.25,135.45 111.533,148.333 100.2,159C87.9,170.367 74,176.05 58.5,176.05C51.1,176.05 44.133,174.717 37.6,172.05C30.3,169.217 23.5,164.783 17.2,158.75C5.7,148.083 -0.033,135.2 0,120.1C0.033,104.967 5.817,92.067 17.35,81.4C19.05,79.733 20.883,78.183 22.85,76.75C19.117,74.217 17.283,71.25 17.35,67.85C17.217,65.583 18.883,63.167 22.35,60.6" style="fill:none;fill-rule:nonzero;stroke:#67afaf;stroke-width:1px;"/>
                    <path d="M53.6,29.65C53.5,34.617 53.167,39.4 52.6,44M53.6,29.65L53.6,27.15M24.9,28.05C24.867,30.15 26.15,36.233 28.75,46.3C31.517,56.933 34.167,65.75 36.7,72.75M56.6,53.9C55.833,55.333 54.467,59.75 52.5,67.15C51.233,71.883 50.4,75.183 50,77.05L49.7,78.75" style="fill:none;fill-rule:nonzero;stroke:#b9874a;stroke-opacity:0.5;stroke-width:0.05px;"/>
                </g>
                <g id="shape2" transform="matrix(-0.6712,-0.5337,-0.5337,0.6712,100.1,14.25)">
                    <path d="M26.4,22.9C26.233,23.133 25.967,23.283 25.6,23.35C24.567,23.55 22.917,23.067 20.65,21.9C17.55,20.333 14.2,18 10.6,14.9C7,11.833 4.2,8.883 2.2,6.05C0.467,3.65 -0.25,1.95 0.05,0.95L0.15,0.65L0.3,0.5C1.067,-0.4 2.983,-0.067 6.05,1.5C9.15,3.067 12.5,5.4 16.1,8.5C19.7,11.6 22.517,14.55 24.55,17.35C26.55,20.15 27.167,22 26.4,22.9" style="fill:#6d532c;"/>
                    <path d="M26.4,22.9C26.233,23.133 25.967,23.283 25.6,23.35C24.567,23.55 22.917,23.067 20.65,21.9C17.55,20.333 14.2,18 10.6,14.9C7,11.833 4.2,8.883 2.2,6.05C0.467,3.65 -0.25,1.95 0.05,0.95L0.15,0.65L0.3,0.5C1.067,-0.4 2.983,-0.067 6.05,1.5C9.15,3.067 12.5,5.4 16.1,8.5C19.7,11.6 22.517,14.55 24.55,17.35C26.55,20.15 27.167,22 26.4,22.9Z" style="fill:none;fill-rule:nonzero;stroke:#960;stroke-width:0.05px;"/>
                </g>
                <g id="shape21" serif:id="shape2" transform="matrix(-0.3193,-0.2539,-0.2539,0.3193,73.4,23.2)">
                    <path d="M26.4,22.9C26.233,23.133 25.967,23.283 25.6,23.35C24.567,23.55 22.917,23.067 20.65,21.9C17.55,20.333 14.2,18 10.6,14.9C7,11.833 4.2,8.883 2.2,6.05C0.467,3.65 -0.25,1.95 0.05,0.95L0.15,0.65L0.3,0.5C1.067,-0.4 2.983,-0.067 6.05,1.5C9.15,3.067 12.5,5.4 16.1,8.5C19.7,11.6 22.517,14.55 24.55,17.35C26.55,20.15 27.167,22 26.4,22.9" style="fill:#6d532c;"/>
                    <path d="M26.4,22.9C26.233,23.133 25.967,23.283 25.6,23.35C24.567,23.55 22.917,23.067 20.65,21.9C17.55,20.333 14.2,18 10.6,14.9C7,11.833 4.2,8.883 2.2,6.05C0.467,3.65 -0.25,1.95 0.05,0.95L0.15,0.65L0.3,0.5C1.067,-0.4 2.983,-0.067 6.05,1.5C9.15,3.067 12.5,5.4 16.1,8.5C19.7,11.6 22.517,14.55 24.55,17.35C26.55,20.15 27.167,22 26.4,22.9Z" style="fill:none;fill-rule:nonzero;stroke:#960;stroke-width:0.05px;"/>
                </g>
                <g id="shape22" serif:id="shape2" transform="matrix(-0.2665,-0.2119,-0.2119,0.2665,30.2,19.7)">
                    <path d="M26.4,22.9C26.233,23.133 25.967,23.283 25.6,23.35C24.567,23.55 22.917,23.067 20.65,21.9C17.55,20.333 14.2,18 10.6,14.9C7,11.833 4.2,8.883 2.2,6.05C0.467,3.65 -0.25,1.95 0.05,0.95L0.15,0.65L0.3,0.5C1.067,-0.4 2.983,-0.067 6.05,1.5C9.15,3.067 12.5,5.4 16.1,8.5C19.7,11.6 22.517,14.55 24.55,17.35C26.55,20.15 27.167,22 26.4,22.9" style="fill:#6d532c;"/>
                    <path d="M26.4,22.9C26.233,23.133 25.967,23.283 25.6,23.35C24.567,23.55 22.917,23.067 20.65,21.9C17.55,20.333 14.2,18 10.6,14.9C7,11.833 4.2,8.883 2.2,6.05C0.467,3.65 -0.25,1.95 0.05,0.95L0.15,0.65L0.3,0.5C1.067,-0.4 2.983,-0.067 6.05,1.5C9.15,3.067 12.5,5.4 16.1,8.5C19.7,11.6 22.517,14.55 24.55,17.35C26.55,20.15 27.167,22 26.4,22.9Z" style="fill:none;fill-rule:nonzero;stroke:#960;stroke-width:0.05px;"/>
                </g>
                <g id="shape23" serif:id="shape2" transform="matrix(-0.3193,-0.2539,-0.2539,0.3193,74.15,9.85)">
                    <path d="M26.4,22.9C26.233,23.133 25.967,23.283 25.6,23.35C24.567,23.55 22.917,23.067 20.65,21.9C17.55,20.333 14.2,18 10.6,14.9C7,11.833 4.2,8.883 2.2,6.05C0.467,3.65 -0.25,1.95 0.05,0.95L0.15,0.65L0.3,0.5C1.067,-0.4 2.983,-0.067 6.05,1.5C9.15,3.067 12.5,5.4 16.1,8.5C19.7,11.6 22.517,14.55 24.55,17.35C26.55,20.15 27.167,22 26.4,22.9" style="fill:#6d532c;"/>
                    <path d="M26.4,22.9C26.233,23.133 25.967,23.283 25.6,23.35C24.567,23.55 22.917,23.067 20.65,21.9C17.55,20.333 14.2,18 10.6,14.9C7,11.833 4.2,8.883 2.2,6.05C0.467,3.65 -0.25,1.95 0.05,0.95L0.15,0.65L0.3,0.5C1.067,-0.4 2.983,-0.067 6.05,1.5C9.15,3.067 12.5,5.4 16.1,8.5C19.7,11.6 22.517,14.55 24.55,17.35C26.55,20.15 27.167,22 26.4,22.9Z" style="fill:none;fill-rule:nonzero;stroke:#960;stroke-width:0.05px;"/>
                </g>
                <g id="shape24" serif:id="shape2" transform="matrix(-0.5619,-0.4467,-0.4467,0.5619,57.2,13.4)">
                    <path d="M26.4,22.9C26.233,23.133 25.967,23.283 25.6,23.35C24.567,23.55 22.917,23.067 20.65,21.9C17.55,20.333 14.2,18 10.6,14.9C7,11.833 4.2,8.883 2.2,6.05C0.467,3.65 -0.25,1.95 0.05,0.95L0.15,0.65L0.3,0.5C1.067,-0.4 2.983,-0.067 6.05,1.5C9.15,3.067 12.5,5.4 16.1,8.5C19.7,11.6 22.517,14.55 24.55,17.35C26.55,20.15 27.167,22 26.4,22.9" style="fill:#6d532c;"/>
                    <path d="M26.4,22.9C26.233,23.133 25.967,23.283 25.6,23.35C24.567,23.55 22.917,23.067 20.65,21.9C17.55,20.333 14.2,18 10.6,14.9C7,11.833 4.2,8.883 2.2,6.05C0.467,3.65 -0.25,1.95 0.05,0.95L0.15,0.65L0.3,0.5C1.067,-0.4 2.983,-0.067 6.05,1.5C9.15,3.067 12.5,5.4 16.1,8.5C19.7,11.6 22.517,14.55 24.55,17.35C26.55,20.15 27.167,22 26.4,22.9Z" style="fill:none;fill-rule:nonzero;stroke:#960;stroke-width:0.05px;"/>
                </g>
                <g id="shape3">
                    <path d="M17.45,81.15C19.117,79.483 20.933,77.967 22.9,76.6C24.5,77.733 26.5,78.8 28.9,79.8C36.533,83.2 45.783,84.917 56.65,84.95L57.6,84.9L57.8,86.1L77.8,118.8L76.75,154.6L62.55,168.5L37.65,171.85C30.317,169.017 23.517,164.583 17.25,158.55C5.75,147.917 0.017,135.017 0.05,119.85C0.083,104.717 5.883,91.817 17.45,81.15" style="fill:#9999cb;fill-opacity:0.5;"/>
                    <path d="M100.25,81.55C111.65,92.25 117.35,105.183 117.35,120.35C117.25,135.45 111.533,148.333 100.2,159C87.9,170.367 74,176.05 58.5,176.05C51.1,176.05 44.133,174.717 37.6,172.05L62.5,168.75L76.7,154.8L77.75,119.05L57.75,86.25L57.55,85.1C67.683,85 76.45,83.417 83.85,80.35L84.5,80.15C87.9,78.683 90.533,77.083 92.4,75.35C95.067,77.15 97.683,79.217 100.25,81.55" style="fill:#9898cc;fill-opacity:0.7;"/>
                    <path d="M95.3,78.9C98.033,81.7 100.55,84.783 102.85,88.15C114.917,105.917 116.05,124.4 106.25,143.6C101.483,118.633 87.35,101.017 63.85,90.75L63.25,89.4L63.6,87.85L67.25,88.6L68.35,87.05L95.3,78.9M93.9,66.25C91.5,73.25 86.717,77.783 79.55,79.85C74.383,81.35 69.217,81.283 64.05,79.65C62.117,78.983 60.517,77.867 59.25,76.3L59.5,76.2C70.333,76.1 80.483,73.533 89.95,68.5L93.9,66.25M36,164L35.4,161.75C52.433,162.883 69.267,161.217 85.9,156.75C88.833,150.15 93.083,144.417 98.65,139.55L98.85,141.55C96.883,150.817 91.967,157.883 84.1,162.75C68.1,172.55 52.067,172.967 36,164" style="fill:#404280;fill-opacity:0.7;"/>
                    <path d="M11.85,99.2L16.7,102.55C16.233,120.35 19.283,137.45 25.85,153.85L23,152.3C2.567,137.133 -1.15,119.433 11.85,99.2M29.15,75.75C29.083,75.317 29.117,74.85 29.25,74.35L29.5,74.2C36.3,76.033 43.35,76.983 50.65,77.05L51.1,77.75C51.5,78.55 51.5,79.217 51.1,79.75C43.9,82.55 36.717,81.667 29.55,77.1C29.283,76.667 29.15,76.217 29.15,75.75M12,90.1L15.2,85.45C22.533,81.683 29.467,81.967 36,86.3C36.467,87.7 36.3,89.033 35.5,90.3C26.267,103.133 18.433,103.067 12,90.1M25.8,68.75C26.3,69.383 26.65,70.25 26.85,71.35C26.817,72.05 26.517,72.617 25.95,73.05C23.217,73.65 21.05,72.45 19.45,69.45C19.25,68.717 19.283,68.017 19.55,67.35C19.55,66.983 19.683,66.6 19.95,66.2L20.6,66.1C22.5,66.167 24.233,67.05 25.8,68.75" style="fill:#f2f2f9;fill-opacity:0.7;"/>
                </g>
            </g>
        </g>
    </g>
</svg>
