<?xml version="1.0" encoding="UTF-8" standalone="no"?>
<!DOCTYPE svg PUBLIC "-//W3C//DTD SVG 1.1//EN" "http://www.w3.org/Graphics/SVG/1.1/DTD/svg11.dtd">
<svg width="100%" height="100%" viewBox="0 0 1184 1716" version="1.1" xmlns="http://www.w3.org/2000/svg" xmlns:xlink="http://www.w3.org/1999/xlink" xml:space="preserve" xmlns:serif="http://www.serif.com/" style="fill-rule:evenodd;clip-rule:evenodd;stroke-linecap:round;stroke-linejoin:round;">
    <g transform="matrix(1,0,0,1,-2726.5,-2928)">
        <g transform="matrix(10,0,0,10,2731.5,2878.5)">
            <g id="sprite0">
                <g id="shape0">
                    <path d="M93.2,98.45L91.1,96.65L91.05,96.65C91.55,97.617 92.267,98.25 93.2,98.55L93.2,98.45M29.7,126.85C30.667,122.35 32.683,118.317 35.75,114.75C38.517,111.517 40.9,107.85 42.9,103.75C45.033,99.383 47.233,95.167 49.5,91.1C50.567,89.133 51.567,86.833 52.5,84.2C54.3,82.4 55.633,82.55 56.5,84.65C57.233,90.183 56.117,94.833 53.15,98.6C51.683,100.533 50.583,102.633 49.85,104.9C48.783,105.833 47.767,106.933 46.8,108.2C49.3,108.5 51.067,107.55 52.1,105.35L53.05,104C55.45,100.333 57.45,96.75 59.05,93.25C60.85,89.283 62.05,86.333 62.65,84.4C63.45,82.867 64.833,82.8 66.8,84.2C67.5,90.467 66.383,95.383 63.45,98.95C60.917,101.983 59.033,104.517 57.8,106.55C56.3,107.183 55.133,107.933 54.3,108.8C55,109.2 56,109.633 57.3,110.1L57.35,110.05C57.95,108.683 58.65,107.5 59.45,106.5C62.85,104.567 65.033,102.483 66,100.25C67.133,97.583 68.3,95.683 69.5,94.55C70.667,93.383 71.333,94.017 71.5,96.45C71.4,98.317 70.967,100.233 70.2,102.2L67.1,104.5L64.95,105.95L66.8,101.85L66.65,101.95C65.55,103.217 64.867,104.633 64.6,106.2L61.55,108L58.4,109.65L55.95,110.65C57.05,112.35 56.883,113.717 55.45,114.75C57.483,113.683 59.117,112.1 60.35,110L64.6,110.1L65.4,109.15L66.05,108.15C66.35,107.65 66.933,107.2 67.8,106.8L72.35,102.45C73.717,101.05 75.017,99.3 76.25,97.2C79.95,92.267 82.117,91.183 82.75,93.95C83.383,96.717 82.767,99.167 80.9,101.3C79.033,103.4 77.45,105.8 76.15,108.5C75.383,110.133 74.95,111.467 74.85,112.5C73.45,116.033 73.917,117.05 76.25,115.55C78.25,114.317 79.75,112.717 80.75,110.75C81.383,109.617 81.833,108.467 82.1,107.3L83.15,105.5L89.35,93.6C94.483,92.367 95.733,95.133 93.1,101.9C91.533,105.8 89.867,109.317 88.1,112.45L88.1,112.15L87.55,109.75C87.983,110.517 88.433,110.817 88.9,110.65L88.75,110.4C88.55,110.167 88.45,109.917 88.45,109.65L88.45,109.5C88.35,109.3 88.183,109.267 87.95,109.4L87.95,109.3C87.883,108.8 87.633,108.433 87.2,108.2C86.867,108.2 86.717,108.4 86.75,108.8C87.05,110.333 87.467,111.633 88,112.7C86.667,115 85.283,117.117 83.85,119.05C83.417,119.983 83.183,120.717 83.15,121.25L82.5,120.85L81.6,120.55L81.4,120.45L81.25,120.25L80.7,120.1L78.65,119.85L78.55,119.85C79.05,120.25 79.9,120.55 81.1,120.75L81.1,120.8L81.25,120.9L81.4,121.05C81.9,121.017 82.333,121.183 82.7,121.55L82.8,121.75L83.1,124.5L83.4,125.9L83.5,126L83.95,126.15L84.85,126.95L85.45,127.3L85.55,127.4L86.5,128.4L87.05,129.05L87.35,131.2C87.517,131.9 87.833,132.167 88.3,132C87.9,131.3 87.667,130.517 87.6,129.65L87.4,128.55L86.25,127.5L85.85,126.95L84.6,126.1L83.75,125.4L83.45,122.65L83.4,122.25C83.767,122.717 84.683,122.617 86.15,121.95C87.983,121.183 88.95,119.617 89.05,117.25L90.5,115.7C92.267,113.8 93.667,112.083 94.7,110.55C96.667,107.65 98.2,105 99.3,102.6C100.833,100.867 102.05,101.783 102.95,105.35C101.55,112.35 99.617,117.25 97.15,120.05C95.283,122.15 93.717,124.167 92.45,126.1C90.117,127.3 89.45,128.467 90.45,129.6C93.05,128.767 94.917,127.317 96.05,125.25C98.617,123.617 100.95,121.65 103.05,119.35C105.083,121.95 104.5,124.95 101.3,128.35L99.85,129.9C97.55,132.167 95.017,134.383 92.25,136.55L90.05,138.25C85.717,141.45 83.317,143.383 82.85,144.05C82.417,144.683 81.45,145.233 79.95,145.7L79.95,144.15C79.95,141.083 79.617,137.833 78.95,134.4C78.05,129.667 75.983,125.617 72.75,122.25C71.45,120.883 70.167,119.85 68.9,119.15C64.733,116.85 60.667,117.283 56.7,120.45C57.8,118.417 59.15,116.467 60.75,114.6L60.85,114.5L64.6,110.1L60.85,114.5L60.75,114.6C59.85,114.633 58.95,115.183 58.05,116.25C57.35,117.15 56.483,117.883 55.45,118.45C55.75,119.583 55.9,120.783 55.9,122.05C55.133,123.717 54.517,125.417 54.05,127.15C52.25,126.65 50.883,125.783 49.95,124.55L50.25,121.9C50.483,119.867 50.85,117.917 51.35,116.05C52.85,115.783 54.217,115.35 55.45,114.75C52.283,113.35 50.417,114.05 49.85,116.85C49.383,119.183 48.583,121.567 47.45,124C47.283,124.8 47.217,125.6 47.25,126.4C47.417,128.9 47.7,131.367 48.1,133.8C48.4,135.6 48.183,136.95 47.45,137.85C45.217,139.217 42.817,140.05 40.25,140.35C37.917,140.617 36.017,140.133 34.55,138.9C31.05,135.9 29.433,131.883 29.7,126.85M44.65,126.4L47.45,124L44.65,126.4M61.6,98L61.6,97.8L60.85,94.95L60.8,94.95C60.6,95.817 60.7,96.8 61.1,97.9L60.25,98.2L59.15,99.05C58.783,100.217 58.883,101.067 59.45,101.6L59.45,101.5C59.383,100.733 59.467,100 59.7,99.3L60.4,98.75L61.15,98.55L61.6,98M54.15,93.35L54.1,93.35C53.9,93.35 53.8,93.45 53.8,93.65C52.867,93.917 51.967,94.25 51.1,94.65L51,94.95L50.95,95.55L53.25,96.95C52.95,97.05 52.667,97.2 52.4,97.4C50.867,98.3 49.483,99.283 48.25,100.35L48.6,100.35L53.9,96.95L53.9,96.85C53.133,96.25 52.3,95.717 51.4,95.25L51.5,95.1C52.9,94.8 53.783,94.217 54.15,93.35M73.7,107.45L73.45,106.9L72.75,105.95L71.7,105.6L71.65,105.8C71.617,106.1 71.817,106.25 72.25,106.25L72.55,106.65L73.15,107.55L71.4,108.7L71.15,109.55C70.717,110.45 70.6,111.217 70.8,111.85L71.25,111L71.9,109L72.2,108.9C72.933,108.633 73.433,108.15 73.7,107.45M77.1,98.35L77.05,98.4L78,100.2L76.5,100.6L78.7,100.65L78.65,100.55C78.45,99.55 77.933,98.817 77.1,98.35M68.7,115C68.4,115.1 68.367,115.183 68.6,115.25C70.4,115.883 72.033,116.783 73.5,117.95L75.15,117.9C74.817,117.667 74.25,117.45 73.45,117.25L73.3,117.1C71.933,116.233 70.4,115.533 68.7,115M44.4,114.15L44.55,114.1L44.7,113.95L44.7,113.85L40.85,113.5L40.65,113.55L42.6,114.1L42.55,114.1L41.5,114.4L41.35,114.45L40.8,115.55L40.1,116.35L39.85,116.35L39.8,116.4L39.9,116.55L39.6,116.7L39.5,116.9L37.35,117.05L37.35,117.1C37.817,117.733 38.533,117.85 39.5,117.45L39.6,117.4L40.35,116.75L41.65,117L42.35,116.95L42.35,116.85L41.95,116.7L44.2,114.3L44.4,114.15L44.2,114.3L41.95,116.7L40.8,116.4L40.9,116.3C41.3,115.967 41.55,115.533 41.65,115L41.7,114.85L44.4,114.15M35.65,125.25C37.45,122.283 39.45,119.533 41.65,117C39.45,119.533 37.45,122.283 35.65,125.25M55.95,110.65C51.75,109.717 48,110.783 44.7,113.85C48,110.783 51.75,109.717 55.95,110.65M101.15,106.5L101.15,106.4L100.45,104.35L100.3,104.4C100.067,105.567 100.35,106.267 101.15,106.5M101.95,105.5L101.9,105.5C101.733,105.9 101.75,105.9 101.95,105.5M101.6,122.05L101.55,122.05C101.083,123.483 101.067,124.767 101.5,125.9L101.6,125.8C101.8,124.533 101.8,123.283 101.6,122.05M97.5,113.75C97.433,113.717 97.4,113.733 97.4,113.8C97.233,114.733 97.167,115.667 97.2,116.6L96.5,116.15L96.5,115.95L96.45,115.65L95.05,113.95C94.75,113.817 94.517,113.85 94.35,114.05C94.383,114.35 94.583,114.517 94.95,114.55L96.25,116.65L96.8,116.95L97.1,117.4C97.5,117.567 97.75,117.517 97.85,117.25L97.85,117.05L97.5,113.75" style="fill:#5ba653;"/>
                    <path d="M93.2,98.45L93.2,98.55C92.267,98.25 91.55,97.617 91.05,96.65L91.1,96.65L93.2,98.45M54.15,93.35C53.783,94.217 52.9,94.8 51.5,95.1L51.4,95.25C52.3,95.717 53.133,96.25 53.9,96.85L53.9,96.95L48.6,100.35L48.25,100.35C49.483,99.283 50.867,98.3 52.4,97.4C52.667,97.2 52.95,97.05 53.25,96.95L50.95,95.55L51,94.95L51.1,94.65C51.967,94.25 52.867,93.917 53.8,93.65C53.8,93.45 53.9,93.35 54.1,93.35L54.15,93.35M61.6,98L61.15,98.55L60.4,98.75L59.7,99.3C59.467,100 59.383,100.733 59.45,101.5L59.45,101.6C58.883,101.067 58.783,100.217 59.15,99.05L60.25,98.2L61.1,97.9C60.7,96.8 60.6,95.817 60.8,94.95L60.85,94.95L61.6,97.8L61.6,98M77.1,98.35C77.933,98.817 78.45,99.55 78.65,100.55L78.7,100.65L76.5,100.6L78,100.2L77.05,98.4L77.1,98.35M73.7,107.45C73.433,108.15 72.933,108.633 72.2,108.9L71.9,109L71.25,111L70.8,111.85C70.6,111.217 70.717,110.45 71.15,109.55L71.4,108.7L73.15,107.55L72.55,106.65L72.25,106.25C71.817,106.25 71.617,106.1 71.65,105.8L71.7,105.6L72.75,105.95L73.45,106.9L73.7,107.45M88.1,112.45L88.05,112.75L88,112.7C87.467,111.633 87.05,110.333 86.75,108.8C86.717,108.4 86.867,108.2 87.2,108.2C87.633,108.433 87.883,108.8 87.95,109.3L87.95,109.4C88.183,109.267 88.35,109.3 88.45,109.5L88.45,109.65C88.45,109.917 88.55,110.167 88.75,110.4L88.9,110.65C88.433,110.817 87.983,110.517 87.55,109.75L88.1,112.15L88.1,112.45M64.6,106.2C64.867,104.633 65.55,103.217 66.65,101.95L66.8,101.85L64.95,105.95L64.65,106.55L64.5,106.65L64.6,106.2M68.7,115C70.4,115.533 71.933,116.233 73.3,117.1L73.45,117.25C74.25,117.45 74.817,117.667 75.15,117.9L73.5,117.95C72.033,116.783 70.4,115.883 68.6,115.25C68.367,115.183 68.4,115.1 68.7,115M83.4,122.25L83.45,122.65L83.75,125.4L84.6,126.1L85.85,126.95L86.25,127.5L87.4,128.55L87.6,129.65C87.667,130.517 87.9,131.3 88.3,132C87.833,132.167 87.517,131.9 87.35,131.2L87.05,129.05L86.5,128.4L85.55,127.4L85.45,127.3L84.85,126.95L83.95,126.15L83.5,126L83.4,125.9L83.1,124.5L82.8,121.75L82.7,121.55C82.333,121.183 81.9,121.017 81.4,121.05L81.25,120.9L81.1,120.8L81.1,120.75C79.9,120.55 79.05,120.25 78.55,119.85L78.65,119.85L80.7,120.1L81.25,120.25L81.4,120.45L81.6,120.55L82.5,120.85L83.15,121.25L83.4,122.25M44.7,113.85L44.7,113.95L44.55,114.1L44.4,114.15L41.7,114.85L41.65,115C41.55,115.533 41.3,115.967 40.9,116.3L40.8,116.4L41.95,116.7L42.35,116.85L42.35,116.95L41.65,117L40.35,116.75L39.6,117.4L39.5,117.45C38.533,117.85 37.817,117.733 37.35,117.1L37.35,117.05L39.5,116.9L39.6,116.7L39.9,116.55L39.8,116.4L39.85,116.35L40.1,116.35L40.8,115.55L41.35,114.45L41.5,114.4L42.55,114.1L42.6,114.1L40.65,113.55L40.85,113.5L44.7,113.85M101.6,122.05C101.8,123.283 101.8,124.533 101.6,125.8L101.5,125.9C101.067,124.767 101.083,123.483 101.55,122.05L101.6,122.05M101.95,105.5C101.75,105.9 101.733,105.9 101.9,105.5L101.95,105.5M101.15,106.5C100.35,106.267 100.067,105.567 100.3,104.4L100.45,104.35L101.15,106.4L101.15,106.5M97.5,113.75L97.85,117.05L97.85,117.25C97.75,117.517 97.5,117.567 97.1,117.4L96.8,116.95L96.25,116.65L94.95,114.55C94.583,114.517 94.383,114.35 94.35,114.05C94.517,113.85 94.75,113.817 95.05,113.95L96.45,115.65L96.5,115.95L96.5,116.15L97.2,116.6C97.167,115.667 97.233,114.733 97.4,113.8C97.4,113.733 97.433,113.717 97.5,113.75" style="fill:#559d4d;"/>
                    <path d="M47.45,137.85C48.183,136.95 48.4,135.6 48.1,133.8C47.7,131.367 47.417,128.9 47.25,126.4C47.217,125.6 47.283,124.8 47.45,124C48.583,121.567 49.383,119.183 49.85,116.85C50.417,114.05 52.283,113.35 55.45,114.75C56.883,113.717 57.05,112.35 55.95,110.65L58.4,109.65L61.55,108L64.6,106.2L64.5,106.65L64.65,106.55L64.95,105.95L67.1,104.5L70.2,102.2C69.6,103.7 68.8,105.233 67.8,106.8C66.933,107.2 66.35,107.65 66.05,108.15L65.4,109.15L64.6,110.1L60.35,110C59.117,112.1 57.483,113.683 55.45,114.75C54.217,115.35 52.85,115.783 51.35,116.05C50.85,117.917 50.483,119.867 50.25,121.9L49.95,124.55L49.75,129.5L49.85,133.35C49.683,134.55 49.233,135.817 48.5,137.15L47.45,137.85M52.1,105.35C51.067,107.55 49.3,108.5 46.8,108.2C47.767,106.933 48.783,105.833 49.85,104.9C50.617,105.333 51.367,105.483 52.1,105.35M59.45,106.5C58.65,107.5 57.95,108.683 57.35,110.05L57.3,110.1C56,109.633 55,109.2 54.3,108.8C55.133,107.933 56.3,107.183 57.8,106.55L57.3,107.6L59.45,106.5M74.85,112.5C74.817,113.167 74.917,113.717 75.15,114.15C77.983,112.317 80.3,110.033 82.1,107.3C81.833,108.467 81.383,109.617 80.75,110.75C79.75,112.717 78.25,114.317 76.25,115.55C73.917,117.05 73.45,116.033 74.85,112.5M83.85,119.05L85.5,120.65L89.05,117.25C88.95,119.617 87.983,121.183 86.15,121.95C84.683,122.617 83.767,122.717 83.4,122.25L83.15,121.25C83.183,120.717 83.417,119.983 83.85,119.05M92.45,126.1L91.35,127.85L96.05,125.25C94.917,127.317 93.05,128.767 90.45,129.6C89.45,128.467 90.117,127.3 92.45,126.1M60.75,114.6C59.15,116.467 57.8,118.417 56.7,120.45L55.9,122.05C55.9,120.783 55.75,119.583 55.45,118.45C56.483,117.883 57.35,117.15 58.05,116.25C58.95,115.183 59.85,114.633 60.75,114.6M50.25,121.9L47.45,124L50.25,121.9" style="fill:#50884d;"/>
                    <path d="M29.7,126.85C29.433,131.883 31.05,135.9 34.55,138.9C36.017,140.133 37.917,140.617 40.25,140.35C42.817,140.05 45.217,139.217 47.45,137.85C46.75,139.117 45.783,140.3 44.55,141.4C42.817,142.967 40.633,143.917 38,144.25L37.9,147.3C36.667,149.7 35.133,152.033 33.3,154.3C32.333,154.767 31.283,154.95 30.15,154.85L30.2,154.65L30.35,154.55C33.25,152.45 35.167,149.8 36.1,146.6L36.05,146.6C35.017,149.067 33.4,151.133 31.2,152.8C31,153.333 30.633,153.717 30.1,153.95L29.65,154.65L29.65,154.75L26.85,155.05C24.15,153.417 21.483,151.6 18.85,149.6C21.417,147.367 23.8,143.85 26,139.05C25.1,134.65 26.333,130.583 29.7,126.85M46.85,161.35L45.95,160.55C43.783,158.483 42.083,156 40.85,153.1L39.55,149.45L39.2,148.35C43,145.817 46.5,142.65 49.7,138.85L48.5,137.15C49.233,135.817 49.683,134.55 49.85,133.35L49.75,129.5L49.95,124.55C50.883,125.783 52.25,126.65 54.05,127.15C54.517,125.417 55.133,123.717 55.9,122.05L56.7,120.45C60.667,117.283 64.733,116.85 68.9,119.15C70.167,119.85 71.45,120.883 72.75,122.25C75.983,125.617 78.05,129.667 78.95,134.4C79.617,137.833 79.95,141.083 79.95,144.15C78.817,144.85 77.667,145.417 76.5,145.85L69.95,147.9C67.417,148.6 65.083,148.433 62.95,147.4C62.617,147.267 62.367,147.667 62.2,148.6C64.367,150.467 64.383,152.45 62.25,154.55L63.55,151.6L63.5,151.6C63.233,151.833 63.017,152.183 62.85,152.65C62.017,153.45 61.317,154.35 60.75,155.35L60.4,156.45C59.267,157.317 57.9,157.967 56.3,158.4L61.5,152.1C62.367,151.133 62.7,150.367 62.5,149.8L62.5,149.85L55,159.1L55,159.2L54.95,159.4L54.9,159.25L50.3,161.1C51.233,160.533 52.033,159.817 52.7,158.95L59.8,150L59.85,149.85L61.1,148.1C60.967,148.1 60.867,148.15 60.8,148.25C57.133,152.717 53.4,157.05 49.6,161.25L46.85,161.35M55.1,143.05C52.833,141.75 51.033,140.35 49.7,138.85C51.033,140.35 52.833,141.75 55.1,143.05M50.1,140.45L50.05,140.45L48.45,141.95L45.6,145.1L45.2,145.2L45.1,145.25L45,145.5C44.467,145.6 44.067,145.85 43.8,146.25L41.25,147.6L40.55,148.35C40.783,148.617 41.017,148.617 41.25,148.35L41.5,148.05C42.3,147.817 42.967,147.45 43.5,146.95L43.85,146.75C46.583,145.117 48.667,143.017 50.1,140.45M47.65,146.3C49.383,144.867 50.6,143.317 51.3,141.65C48.567,144.817 45.367,147.483 41.7,149.65L41.65,149.75L41.55,150.35C41.617,150.717 41.767,150.75 42,150.45C43.9,149.283 45.783,147.9 47.65,146.3M54.75,144.65L54.65,144.75C51.75,148.35 48.333,151.5 44.4,154.2C44.133,154 43.883,154 43.65,154.2L44.45,154.85L50.75,149.85C52.65,148.383 53.983,146.65 54.75,144.65M51.5,145.25L51.6,145.2C52.433,144.567 52.917,143.883 53.05,143.15C49.65,146.117 46.45,149.2 43.45,152.4C43.15,152.4 42.9,152.483 42.7,152.65C42.833,153.083 43.167,153.167 43.7,152.9L51.1,145.35L51.5,145.25M56.85,146L56.65,146.05C54.05,147.717 51.967,149.767 50.4,152.2C49.167,154.033 47.617,155.567 45.75,156.8C45.983,157.033 46.25,157.033 46.55,156.8L46.8,156.7C48.533,155.533 49.917,154.1 50.95,152.4L51.05,152.2C52.85,149.8 54.783,147.733 56.85,146M26.85,155.05C29.917,152.683 32.133,150.1 33.5,147.3L33.6,147.15C34.3,146.617 34.5,145.983 34.2,145.25L34.1,145.25C33.933,145.85 33.583,146.417 33.05,146.95C32.417,148.883 31.283,150.467 29.65,151.7C29.083,152.633 28.15,153.75 26.85,155.05M31.95,143.55C31.717,143.717 31.7,144.017 31.9,144.45C30.933,146.183 29.8,147.817 28.5,149.35L28.45,149.45L28.4,149.75L25,152.2L25.65,152.4C26.917,151.833 28.017,151.033 28.95,150L28.95,149.85L29.05,149.6L30.4,148.2C31.767,146.7 32.333,145.133 32.1,143.5L31.95,143.55M27.35,144.8C28.017,143.833 28.217,143.067 27.95,142.5L27.8,142.65C26.067,145.75 24.117,148.617 21.95,151.25L22.2,151.2C24.067,149.3 25.783,147.167 27.35,144.8M29.8,143.35L29.75,143.35C28.85,145.683 27.417,147.717 25.45,149.45L23.8,151.8L24.15,151.7L26.05,150C28.117,148.1 29.367,145.883 29.8,143.35M26.3,141.05L26.25,141.05L24.65,144.1C24.417,144.167 24.283,144.317 24.25,144.55L24.25,144.65L24.2,145.25L23.45,145.95L23.4,146.15L23.25,146.4C22.15,147.433 21.2,148.533 20.4,149.7C21.5,149.067 22.6,148.083 23.7,146.75L23.75,146.65L23.8,146.35L24.4,146.05L24.4,145.95C24.7,145.55 24.817,145.1 24.75,144.6L24.95,144.45C25.917,143.383 26.367,142.25 26.3,141.05M37.3,149.95C36.967,151.917 35.95,153.167 34.25,153.7L34.6,152.95L34.7,152.85C35.833,151.95 36.7,150.983 37.3,149.95M31.45,142.45C29.417,141.483 27.6,140.35 26,139.05C27.6,140.35 29.417,141.483 31.45,142.45M53.45,152.8L53.4,153.1C52.5,154.533 51.317,155.633 49.85,156.4C49.183,157.3 48.333,157.967 47.3,158.4C47.4,158.833 47.683,158.9 48.15,158.6L50.1,156.95L50.45,156.7C53.55,153.833 56.267,150.8 58.6,147.6L53.45,152.65L53.45,152.8" style="fill:#f0efb7;"/>
                    <path d="M79.95,145.7C75.583,149.733 70.75,152 65.45,152.5C63.95,154.067 63.083,155.35 62.85,156.35C61.683,161.05 59,164.383 54.8,166.35C51.867,165.183 49.217,163.517 46.85,161.35L49.6,161.25L49.9,161.25L50.3,161.1L54.9,159.25L54.95,159.4L54.85,159.55L52.75,162C52.317,161.933 51.967,162.017 51.7,162.25C51.733,162.75 52.1,162.85 52.8,162.55L53.5,162.05L56.3,158.4C57.9,157.967 59.267,157.317 60.4,156.45C59.367,159.317 57.55,161.633 54.95,163.4C54.95,163.767 55.2,163.867 55.7,163.7L55.9,163.55C58.5,160.817 60.617,157.817 62.25,154.55C64.383,152.45 64.367,150.467 62.2,148.6C62.367,147.667 62.617,147.267 62.95,147.4C65.083,148.433 67.417,148.6 69.95,147.9L76.5,145.85C77.667,145.417 78.817,144.85 79.95,144.15L79.95,145.7M40.85,153.1C40.117,156.233 38.25,157.95 35.25,158.25C33.617,158.383 32.15,158.1 30.85,157.4L26.85,155.05L29.65,154.75L29.65,154.85C29.517,155.35 29.633,155.667 30,155.8L30.05,155.65L30.15,154.85C31.283,154.95 32.333,154.767 33.3,154.3L32.7,155.05C32.567,155.717 32.717,156.083 33.15,156.15L33.15,156L33.2,155.3L34.25,153.7C35.95,153.167 36.967,151.917 37.3,149.95C37.833,148.95 38.133,147.883 38.2,146.75L38.15,146.85L37.9,147.3L38,144.25C40.633,143.917 42.817,142.967 44.55,141.4C45.783,140.3 46.75,139.117 47.45,137.85L48.5,137.15L49.7,138.85C46.5,142.65 43,145.817 39.2,148.35L39.55,149.45L40.85,153.1M39.95,151.95L39.9,151.95C39.033,152.983 38.3,154.117 37.7,155.35L37.7,155.95C37.767,156.283 37.917,156.3 38.15,156L38.2,155.9L39.95,151.95M39.4,149.45L39.25,149.5C38.683,151.2 37.65,152.583 36.15,153.65L36.05,153.95C35.817,154.617 35.717,155.333 35.75,156.1C35.517,156.233 35.4,156.433 35.4,156.7C35.5,157.1 35.717,157.133 36.05,156.8L36.1,156.5C36.133,155.667 36.267,154.85 36.5,154.05L36.65,153.95C38.317,152.717 39.233,151.217 39.4,149.45" style="fill:#e6e1a6;"/>
                    <path d="M50.1,140.45C48.667,143.017 46.583,145.117 43.85,146.75L43.5,146.95C42.967,147.45 42.3,147.817 41.5,148.05L41.25,148.35C41.017,148.617 40.783,148.617 40.55,148.35L41.25,147.6L43.8,146.25C44.067,145.85 44.467,145.6 45,145.5L45.1,145.25L45.2,145.2L45.6,145.1L48.45,141.95L50.05,140.45L50.1,140.45M56.85,146C54.783,147.733 52.85,149.8 51.05,152.2L50.95,152.4C49.917,154.1 48.533,155.533 46.8,156.7L46.55,156.8C46.25,157.033 45.983,157.033 45.75,156.8C47.617,155.567 49.167,154.033 50.4,152.2C51.967,149.767 54.05,147.717 56.65,146.05L56.85,146M51.5,145.25L51.1,145.35L43.7,152.9C43.167,153.167 42.833,153.083 42.7,152.65C42.9,152.483 43.15,152.4 43.45,152.4C46.45,149.2 49.65,146.117 53.05,143.15C52.917,143.883 52.433,144.567 51.6,145.2L51.5,145.25M54.75,144.65C53.983,146.65 52.65,148.383 50.75,149.85L44.45,154.85L43.65,154.2C43.883,154 44.133,154 44.4,154.2C48.333,151.5 51.75,148.35 54.65,144.75L54.75,144.65M47.65,146.3C45.783,147.9 43.9,149.283 42,150.45C41.767,150.75 41.617,150.717 41.55,150.35L41.65,149.75L41.7,149.65C45.367,147.483 48.567,144.817 51.3,141.65C50.6,143.317 49.383,144.867 47.65,146.3M49.6,161.25C53.4,157.05 57.133,152.717 60.8,148.25C60.867,148.15 60.967,148.1 61.1,148.1L59.85,149.85L59.8,150L52.7,158.95C52.033,159.817 51.233,160.533 50.3,161.1L49.9,161.25L49.6,161.25M54.95,159.4L55,159.2L55,159.1L62.5,149.85L62.5,149.8C62.7,150.367 62.367,151.133 61.5,152.1L56.3,158.4L53.5,162.05L52.8,162.55C52.1,162.85 51.733,162.75 51.7,162.25C51.967,162.017 52.317,161.933 52.75,162L54.85,159.55L54.95,159.4M60.4,156.45L60.75,155.35C61.317,154.35 62.017,153.45 62.85,152.65C63.017,152.183 63.233,151.833 63.5,151.6L63.55,151.6L62.25,154.55C60.617,157.817 58.5,160.817 55.9,163.55L55.7,163.7C55.2,163.867 54.95,163.767 54.95,163.4C57.55,161.633 59.367,159.317 60.4,156.45M26.3,141.05C26.367,142.25 25.917,143.383 24.95,144.45L24.75,144.6C24.817,145.1 24.7,145.55 24.4,145.95L24.4,146.05L23.8,146.35L23.75,146.65L23.7,146.75C22.6,148.083 21.5,149.067 20.4,149.7C21.2,148.533 22.15,147.433 23.25,146.4L23.4,146.15L23.45,145.95L24.2,145.25L24.25,144.65L24.25,144.55C24.283,144.317 24.417,144.167 24.65,144.1L26.25,141.05L26.3,141.05M29.8,143.35C29.367,145.883 28.117,148.1 26.05,150L24.15,151.7L23.8,151.8L25.45,149.45C27.417,147.717 28.85,145.683 29.75,143.35L29.8,143.35M27.35,144.8C25.783,147.167 24.067,149.3 22.2,151.2L21.95,151.25C24.117,148.617 26.067,145.75 27.8,142.65L27.95,142.5C28.217,143.067 28.017,143.833 27.35,144.8M31.95,143.55L32.1,143.5C32.333,145.133 31.767,146.7 30.4,148.2L29.05,149.6L28.95,149.85L28.95,150C28.017,151.033 26.917,151.833 25.65,152.4L25,152.2L28.4,149.75L28.45,149.45L28.5,149.35C29.8,147.817 30.933,146.183 31.9,144.45C31.7,144.017 31.717,143.717 31.95,143.55M26.85,155.05C28.15,153.75 29.083,152.633 29.65,151.7C31.283,150.467 32.417,148.883 33.05,146.95C33.583,146.417 33.933,145.85 34.1,145.25L34.2,145.25C34.5,145.983 34.3,146.617 33.6,147.15L33.5,147.3C32.133,150.1 29.917,152.683 26.85,155.05M29.65,154.75L29.65,154.65L30.1,153.95C30.633,153.717 31,153.333 31.2,152.8C33.4,151.133 35.017,149.067 36.05,146.6L36.1,146.6C35.167,149.8 33.25,152.45 30.35,154.55L30.2,154.65L30.15,154.85L30.05,155.65L30,155.8C29.633,155.667 29.517,155.35 29.65,154.85L29.65,154.75M33.3,154.3C35.133,152.033 36.667,149.7 37.9,147.3L38.15,146.85L38.2,146.75C38.133,147.883 37.833,148.95 37.3,149.95C36.7,150.983 35.833,151.95 34.7,152.85L34.6,152.95L34.25,153.7L33.2,155.3L33.15,156L33.15,156.15C32.717,156.083 32.567,155.717 32.7,155.05L33.3,154.3M39.4,149.45C39.233,151.217 38.317,152.717 36.65,153.95L36.5,154.05C36.267,154.85 36.133,155.667 36.1,156.5L36.05,156.8C35.717,157.133 35.5,157.1 35.4,156.7C35.4,156.433 35.517,156.233 35.75,156.1C35.717,155.333 35.817,154.617 36.05,153.95L36.15,153.65C37.65,152.583 38.683,151.2 39.25,149.5L39.4,149.45M39.95,151.95L38.2,155.9L38.15,156C37.917,156.3 37.767,156.283 37.7,155.95L37.7,155.35C38.3,154.117 39.033,152.983 39.9,151.95L39.95,151.95M53.45,152.8L53.45,152.65L58.6,147.6C56.267,150.8 53.55,153.833 50.45,156.7L50.1,156.95L48.15,158.6C47.683,158.9 47.4,158.833 47.3,158.4C48.333,157.967 49.183,157.3 49.85,156.4C51.317,155.633 52.5,154.533 53.4,153.1L53.45,152.8" style="fill:#dcd956;"/>
                    <path d="M49.85,104.9C50.583,102.633 51.683,100.533 53.15,98.6C56.117,94.833 57.233,90.183 56.5,84.65C55.633,82.55 54.3,82.4 52.5,84.2C51.567,86.833 50.567,89.133 49.5,91.1C47.233,95.167 45.033,99.383 42.9,103.75C40.9,107.85 38.517,111.517 35.75,114.75C32.683,118.317 30.667,122.35 29.7,126.85C29.433,131.883 31.05,135.9 34.55,138.9C36.017,140.133 37.917,140.617 40.25,140.35C42.817,140.05 45.217,139.217 47.45,137.85L48.5,137.15C49.233,135.817 49.683,134.55 49.85,133.35L49.75,129.5L49.95,124.55C50.883,125.783 52.25,126.65 54.05,127.15C54.517,125.417 55.133,123.717 55.9,122.05L56.7,120.45C60.667,117.283 64.733,116.85 68.9,119.15C70.167,119.85 71.45,120.883 72.75,122.25C75.983,125.617 78.05,129.667 78.95,134.4C79.617,137.833 79.95,141.083 79.95,144.15L79.95,145.7C81.45,145.233 82.417,144.683 82.85,144.05C83.317,143.383 85.717,141.45 90.05,138.25L92.25,136.55C95.017,134.383 97.55,132.167 99.85,129.9L101.3,128.35C104.5,124.95 105.083,121.95 103.05,119.35C100.95,121.65 98.617,123.617 96.05,125.25L91.35,127.85L92.45,126.1C93.717,124.167 95.283,122.15 97.15,120.05C99.617,117.25 101.55,112.35 102.95,105.35C102.05,101.783 100.833,100.867 99.3,102.6C98.2,105 96.667,107.65 94.7,110.55C93.667,112.083 92.267,113.8 90.5,115.7L89.05,117.25L85.5,120.65L83.85,119.05C85.283,117.117 86.667,115 88,112.7M47.45,124L44.65,126.4M57.8,106.55C59.033,104.517 60.917,101.983 63.45,98.95C66.383,95.383 67.5,90.467 66.8,84.2C64.833,82.8 63.45,82.867 62.65,84.4C62.05,86.333 60.85,89.283 59.05,93.25C57.45,96.75 55.45,100.333 53.05,104L52.1,105.35C51.367,105.483 50.617,105.333 49.85,104.9M70.2,102.2C70.967,100.233 71.4,98.317 71.5,96.45C71.333,94.017 70.667,93.383 69.5,94.55C68.3,95.683 67.133,97.583 66,100.25C65.033,102.483 62.85,104.567 59.45,106.5L57.3,107.6L57.8,106.55M67.8,106.8L72.35,102.45C73.717,101.05 75.017,99.3 76.25,97.2C79.95,92.267 82.117,91.183 82.75,93.95C83.383,96.717 82.767,99.167 80.9,101.3C79.033,103.4 77.45,105.8 76.15,108.5C75.383,110.133 74.95,111.467 74.85,112.5C74.817,113.167 74.917,113.717 75.15,114.15C77.983,112.317 80.3,110.033 82.1,107.3L83.15,105.5L89.35,93.6C94.483,92.367 95.733,95.133 93.1,101.9C91.533,105.8 89.867,109.317 88.1,112.45M70.2,102.2C69.6,103.7 68.8,105.233 67.8,106.8C66.933,107.2 66.35,107.65 66.05,108.15L65.4,109.15L64.6,110.1L60.85,114.5L60.75,114.6C59.15,116.467 57.8,118.417 56.7,120.45M55.95,110.65C57.05,112.35 56.883,113.717 55.45,114.75C57.483,113.683 59.117,112.1 60.35,110L64.6,110.1M44.4,114.15L44.2,114.3L41.95,116.7M41.65,117C39.45,119.533 37.45,122.283 35.65,125.25M44.7,113.85C48,110.783 51.75,109.717 55.95,110.65M55.45,114.75C54.217,115.35 52.85,115.783 51.35,116.05C50.85,117.917 50.483,119.867 50.25,121.9L49.95,124.55M47.45,124L50.25,121.9" style="fill:none;fill-rule:nonzero;stroke:#3d6f37;stroke-width:1px;"/>
                    <path d="M79.95,145.7C75.583,149.733 70.75,152 65.45,152.5C63.95,154.067 63.083,155.35 62.85,156.35C61.683,161.05 59,164.383 54.8,166.35C51.867,165.183 49.217,163.517 46.85,161.35L45.95,160.55C43.783,158.483 42.083,156 40.85,153.1C40.117,156.233 38.25,157.95 35.25,158.25C33.617,158.383 32.15,158.1 30.85,157.4L26.85,155.05C24.15,153.417 21.483,151.6 18.85,149.6C21.417,147.367 23.8,143.85 26,139.05C25.1,134.65 26.333,130.583 29.7,126.85M48.5,137.15L49.7,138.85C51.033,140.35 52.833,141.75 55.1,143.05M26,139.05C27.6,140.35 29.417,141.483 31.45,142.45M49.7,138.85C46.5,142.65 43,145.817 39.2,148.35L39.55,149.45L40.85,153.1" style="fill:none;fill-rule:nonzero;stroke:#aeab24;stroke-width:1px;"/>
                    <path d="M17.45,81.15C19.117,79.483 20.933,77.967 22.9,76.6C24.5,77.733 26.5,78.8 28.9,79.8C36.533,83.2 45.783,84.917 56.65,84.95L57.6,84.9L57.8,86.1L77.8,118.8L76.75,154.6L62.55,168.5L37.65,171.85C30.317,169.017 23.517,164.583 17.25,158.55C5.75,147.917 0.017,135.017 0.05,119.85C0.083,104.717 5.883,91.817 17.45,81.15" style="fill:#9999cb;fill-opacity:0.5;"/>
                    <path d="M55.7,5.65L63.5,5.45C73.433,5.483 82.183,6.283 89.75,7.85C99.383,9.817 104.25,12.467 104.35,15.8L104.45,16.45L104.2,17.3L91.75,60.85L90.8,63.4L90.9,63.9L89.95,67.9C88.45,70.1 85.517,72.033 81.15,73.7L74.7,75.65C74.367,73.717 73.85,71.817 73.15,69.95C71.05,64.717 73.133,60.333 79.4,56.8C80.2,53.167 77.567,50.25 71.5,48.05C77.067,49.55 80.817,47.533 82.75,42C84.25,37.767 83.117,35.8 79.35,36.1C81.15,35.7 82.433,34.517 83.2,32.55C84.367,29.95 84.85,27.867 84.65,26.3C84.117,23 80.533,21.833 73.9,22.8L77.35,17.05C72.517,12.817 66.983,12.4 60.75,15.8C62.517,13.733 63.417,11.6 63.45,9.4C60.717,8.267 58.133,7.017 55.7,5.65M104.2,17.3C102.933,20.067 98.333,22.583 90.4,24.85L84.65,26.3L90.4,24.85C98.333,22.583 102.933,20.067 104.2,17.3" style="fill:#825a33;"/>
                    <path d="M41.85,6.55L54.65,5.65L55.7,5.65C58.133,7.017 60.717,8.267 63.45,9.4C63.417,11.6 62.517,13.733 60.75,15.8C66.983,12.4 72.517,12.817 77.35,17.05L73.9,22.8C80.533,21.833 84.117,23 84.65,26.3C84.85,27.867 84.367,29.95 83.2,32.55C82.433,34.517 81.15,35.7 79.35,36.1C83.117,35.8 84.25,37.767 82.75,42C80.817,47.533 77.067,49.55 71.5,48.05C77.567,50.25 80.2,53.167 79.4,56.8C73.133,60.333 71.05,64.717 73.15,69.95C73.85,71.817 74.367,73.717 74.7,75.65C69.6,76.917 63.85,77.5 57.45,77.4L55.25,76.95L65.25,29.05L65.4,29.15L41.85,6.55M84.65,26.3C78.85,27.6 72.433,28.55 65.4,29.15C72.433,28.55 78.85,27.6 84.65,26.3" style="fill:#b9874a;"/>
                    <path d="M91.75,60.85C94.583,63.617 96,66.017 96,68.05C96,70.717 94.8,73.15 92.4,75.35C90.533,77.083 87.9,78.683 84.5,80.15L83.85,80.35C76.45,83.417 67.683,85 57.55,85.1L56.9,77.35L57.45,77.4C63.85,77.5 69.6,76.917 74.7,75.65L81.15,73.7C85.517,72.033 88.45,70.1 89.95,67.9C90.517,66.867 90.817,65.75 90.85,64.55L90.95,64.45L90.9,63.9L91.05,63.6L91.75,60.85" style="fill:#9898cc;fill-opacity:0.7;"/>
                    <path d="M27.7,8.65C32.033,7.75 36.75,7.05 41.85,6.55L65.4,29.15L65.25,29.05L53.6,29.65L65.25,29.05L55.25,76.95L57.45,77.4L56.9,77.35L50,77.05C46.067,76.75 42.433,76.167 39.1,75.3L33.85,73.6L32.1,72.85L13.85,25.3C15.917,26.067 18.5,26.767 21.6,27.4L24.9,28.05L33.45,28.8L35.75,43.2L35.75,29L36.8,24.1L35.15,26.4L33.8,24.65C31.567,21.517 29.533,16.183 27.7,8.65M90.8,63.4L91.75,60.85L90.9,63.5L90.8,63.4M53.6,27.15L53.6,29.65C53.5,34.617 53.167,39.4 52.6,44C53.167,39.4 53.5,34.617 53.6,29.65L53.6,27.15M36.7,72.75C34.167,65.75 31.517,56.933 28.75,46.3C26.15,36.233 24.867,30.15 24.9,28.05C24.867,30.15 26.15,36.233 28.75,46.3C31.517,56.933 34.167,65.75 36.7,72.75M35.9,47.4L35.75,43.2L35.9,47.4M50,77.05C50.4,75.183 51.233,71.883 52.5,67.15C54.467,59.75 55.833,55.333 56.6,53.9C55.833,55.333 54.467,59.75 52.5,67.15C51.233,71.883 50.4,75.183 50,77.05M42.6,16.05L36.8,24.1L42.6,16.05M53.6,29.65L35.75,29L53.6,29.65M41.6,38.35L39.1,75.3L41.6,38.35" style="fill:#d2b88c;"/>
                    <path d="M91.75,60.85L91.05,63.6L90.9,63.5L91.75,60.85" style="fill:#990;"/>
                    <path d="M22.35,60.6L7.9,21.9C7.233,21.167 6.867,20.35 6.8,19.45C6.667,16.083 11.383,13.05 20.95,10.35L27.7,8.65C29.533,16.183 31.567,21.517 33.8,24.65L35.15,26.4L33.45,28.8L24.9,28.05L21.6,27.4C18.5,26.767 15.917,26.067 13.85,25.3C11.017,24.3 9.033,23.167 7.9,21.9C9.033,23.167 11.017,24.3 13.85,25.3L32.1,72.85C27.633,70.817 25.05,68.483 24.35,65.85L22.35,60.6" style="fill:#dbc5a4;"/>
                    <path d="M35.15,26.4L36.8,24.1L35.75,29L35.75,43.2L33.45,28.8L35.15,26.4" style="fill:#a57341;"/>
                    <path d="M22.85,76.75C19.117,74.217 17.283,71.25 17.35,67.85C17.217,65.583 18.883,63.167 22.35,60.6L24.35,65.85C25.05,68.483 27.633,70.817 32.1,72.85L33.85,73.6L39.1,75.3C42.433,76.167 46.067,76.75 50,77.05L56.9,77.35L57.55,85.1L56.6,85.15C45.733,85.15 36.483,83.45 28.85,80.05C26.45,79.017 24.45,77.917 22.85,76.75M49.7,78.75L50,77.05L49.7,78.75" style="fill:#9999cb;fill-opacity:0.5;"/>
                    <path d="M84.65,26.3L90.4,24.85C98.333,22.583 102.933,20.067 104.2,17.3M65.25,29.05L65.4,29.15C72.433,28.55 78.85,27.6 84.65,26.3M53.6,29.65L65.25,29.05M33.45,28.8L35.75,43.2L35.75,29L36.8,24.1L35.15,26.4L33.45,28.8L24.9,28.05L21.6,27.4C18.5,26.767 15.917,26.067 13.85,25.3C11.017,24.3 9.033,23.167 7.9,21.9M35.75,43.2L35.9,47.4M39.1,75.3L41.6,38.35M35.75,29L53.6,29.65M36.8,24.1L42.6,16.05" style="fill:none;fill-rule:nonzero;stroke:#003200;stroke-opacity:0.5;stroke-width:0.05px;"/>
                    <path d="M55.7,5.65L63.5,5.45C73.433,5.483 82.183,6.283 89.75,7.85C99.383,9.817 104.25,12.467 104.35,15.8L104.45,16.45L104.2,17.3L91.75,60.85M22.35,60.6L7.9,21.9C7.233,21.167 6.867,20.35 6.8,19.45C6.667,16.083 11.383,13.05 20.95,10.35L27.7,8.65C32.033,7.75 36.75,7.05 41.85,6.55L54.65,5.65L55.7,5.65" style="fill:none;fill-rule:nonzero;stroke:#960;stroke-width:1px;"/>
                    <path d="M89.95,67.9L90.9,63.9L91.05,63.6L91.75,60.85M24.35,65.85L22.35,60.6" style="fill:none;fill-rule:nonzero;stroke:#960;stroke-width:0.05px;"/>
                    <path d="M74.7,75.65L81.15,73.7C85.517,72.033 88.45,70.1 89.95,67.9C90.517,66.867 90.817,65.75 90.85,64.55L90.95,64.45L90.9,63.9M92.4,75.35C90.533,77.083 87.9,78.683 84.5,80.15L83.85,80.35C76.45,83.417 67.683,85 57.55,85.1L56.6,85.15C45.733,85.15 36.483,83.45 28.85,80.05C26.45,79.017 24.45,77.917 22.85,76.75M57.45,77.4C63.85,77.5 69.6,76.917 74.7,75.65M32.1,72.85C27.633,70.817 25.05,68.483 24.35,65.85M50,77.05C46.067,76.75 42.433,76.167 39.1,75.3L33.85,73.6L32.1,72.85M50,77.05L56.9,77.35L57.45,77.4" style="fill:none;fill-rule:nonzero;stroke:#67afaf;stroke-width:0.05px;"/>
                    <path d="M91.75,60.85C94.583,63.617 96,66.017 96,68.05C96,70.717 94.8,73.15 92.4,75.35C95.067,77.15 97.683,79.217 100.25,81.55C111.65,92.25 117.35,105.183 117.35,120.35C117.25,135.45 111.533,148.333 100.2,159C87.9,170.367 74,176.05 58.5,176.05C51.1,176.05 44.133,174.717 37.6,172.05C30.3,169.217 23.5,164.783 17.2,158.75C5.7,148.083 -0.033,135.2 0,120.1C0.033,104.967 5.817,92.067 17.35,81.4C19.05,79.733 20.883,78.183 22.85,76.75C19.117,74.217 17.283,71.25 17.35,67.85C17.217,65.583 18.883,63.167 22.35,60.6" style="fill:none;fill-rule:nonzero;stroke:#67afaf;stroke-width:1px;"/>
                    <path d="M53.6,29.65C53.5,34.617 53.167,39.4 52.6,44M53.6,29.65L53.6,27.15M24.9,28.05C24.867,30.15 26.15,36.233 28.75,46.3C31.517,56.933 34.167,65.75 36.7,72.75M56.6,53.9C55.833,55.333 54.467,59.75 52.5,67.15C51.233,71.883 50.4,75.183 50,77.05L49.7,78.75" style="fill:none;fill-rule:nonzero;stroke:#b9874a;stroke-opacity:0.5;stroke-width:0.05px;"/>
                </g>
                <g id="shape1" transform="matrix(-0.6712,-0.5337,-0.5337,0.6712,100.1,14.25)">
                    <path d="M26.4,22.9C26.233,23.133 25.967,23.283 25.6,23.35C24.567,23.55 22.917,23.067 20.65,21.9C17.55,20.333 14.2,18 10.6,14.9C7,11.833 4.2,8.883 2.2,6.05C0.467,3.65 -0.25,1.95 0.05,0.95L0.15,0.65L0.3,0.5C1.067,-0.4 2.983,-0.067 6.05,1.5C9.15,3.067 12.5,5.4 16.1,8.5C19.7,11.6 22.517,14.55 24.55,17.35C26.55,20.15 27.167,22 26.4,22.9" style="fill:#6d532c;"/>
                    <path d="M26.4,22.9C26.233,23.133 25.967,23.283 25.6,23.35C24.567,23.55 22.917,23.067 20.65,21.9C17.55,20.333 14.2,18 10.6,14.9C7,11.833 4.2,8.883 2.2,6.05C0.467,3.65 -0.25,1.95 0.05,0.95L0.15,0.65L0.3,0.5C1.067,-0.4 2.983,-0.067 6.05,1.5C9.15,3.067 12.5,5.4 16.1,8.5C19.7,11.6 22.517,14.55 24.55,17.35C26.55,20.15 27.167,22 26.4,22.9Z" style="fill:none;fill-rule:nonzero;stroke:#960;stroke-width:0.05px;"/>
                </g>
                <g id="shape11" serif:id="shape1" transform="matrix(-0.3193,-0.2539,-0.2539,0.3193,73.4,23.2)">
                    <path d="M26.4,22.9C26.233,23.133 25.967,23.283 25.6,23.35C24.567,23.55 22.917,23.067 20.65,21.9C17.55,20.333 14.2,18 10.6,14.9C7,11.833 4.2,8.883 2.2,6.05C0.467,3.65 -0.25,1.95 0.05,0.95L0.15,0.65L0.3,0.5C1.067,-0.4 2.983,-0.067 6.05,1.5C9.15,3.067 12.5,5.4 16.1,8.5C19.7,11.6 22.517,14.55 24.55,17.35C26.55,20.15 27.167,22 26.4,22.9" style="fill:#6d532c;"/>
                    <path d="M26.4,22.9C26.233,23.133 25.967,23.283 25.6,23.35C24.567,23.55 22.917,23.067 20.65,21.9C17.55,20.333 14.2,18 10.6,14.9C7,11.833 4.2,8.883 2.2,6.05C0.467,3.65 -0.25,1.95 0.05,0.95L0.15,0.65L0.3,0.5C1.067,-0.4 2.983,-0.067 6.05,1.5C9.15,3.067 12.5,5.4 16.1,8.5C19.7,11.6 22.517,14.55 24.55,17.35C26.55,20.15 27.167,22 26.4,22.9Z" style="fill:none;fill-rule:nonzero;stroke:#960;stroke-width:0.05px;"/>
                </g>
                <g id="shape12" serif:id="shape1" transform="matrix(-0.2665,-0.2119,-0.2119,0.2665,30.2,19.7)">
                    <path d="M26.4,22.9C26.233,23.133 25.967,23.283 25.6,23.35C24.567,23.55 22.917,23.067 20.65,21.9C17.55,20.333 14.2,18 10.6,14.9C7,11.833 4.2,8.883 2.2,6.05C0.467,3.65 -0.25,1.95 0.05,0.95L0.15,0.65L0.3,0.5C1.067,-0.4 2.983,-0.067 6.05,1.5C9.15,3.067 12.5,5.4 16.1,8.5C19.7,11.6 22.517,14.55 24.55,17.35C26.55,20.15 27.167,22 26.4,22.9" style="fill:#6d532c;"/>
                    <path d="M26.4,22.9C26.233,23.133 25.967,23.283 25.6,23.35C24.567,23.55 22.917,23.067 20.65,21.9C17.55,20.333 14.2,18 10.6,14.9C7,11.833 4.2,8.883 2.2,6.05C0.467,3.65 -0.25,1.95 0.05,0.95L0.15,0.65L0.3,0.5C1.067,-0.4 2.983,-0.067 6.05,1.5C9.15,3.067 12.5,5.4 16.1,8.5C19.7,11.6 22.517,14.55 24.55,17.35C26.55,20.15 27.167,22 26.4,22.9Z" style="fill:none;fill-rule:nonzero;stroke:#960;stroke-width:0.05px;"/>
                </g>
                <g id="shape13" serif:id="shape1" transform="matrix(-0.3193,-0.2539,-0.2539,0.3193,74.15,9.85)">
                    <path d="M26.4,22.9C26.233,23.133 25.967,23.283 25.6,23.35C24.567,23.55 22.917,23.067 20.65,21.9C17.55,20.333 14.2,18 10.6,14.9C7,11.833 4.2,8.883 2.2,6.05C0.467,3.65 -0.25,1.95 0.05,0.95L0.15,0.65L0.3,0.5C1.067,-0.4 2.983,-0.067 6.05,1.5C9.15,3.067 12.5,5.4 16.1,8.5C19.7,11.6 22.517,14.55 24.55,17.35C26.55,20.15 27.167,22 26.4,22.9" style="fill:#6d532c;"/>
                    <path d="M26.4,22.9C26.233,23.133 25.967,23.283 25.6,23.35C24.567,23.55 22.917,23.067 20.65,21.9C17.55,20.333 14.2,18 10.6,14.9C7,11.833 4.2,8.883 2.2,6.05C0.467,3.65 -0.25,1.95 0.05,0.95L0.15,0.65L0.3,0.5C1.067,-0.4 2.983,-0.067 6.05,1.5C9.15,3.067 12.5,5.4 16.1,8.5C19.7,11.6 22.517,14.55 24.55,17.35C26.55,20.15 27.167,22 26.4,22.9Z" style="fill:none;fill-rule:nonzero;stroke:#960;stroke-width:0.05px;"/>
                </g>
                <g id="shape14" serif:id="shape1" transform="matrix(-0.5619,-0.4467,-0.4467,0.5619,57.2,13.4)">
                    <path d="M26.4,22.9C26.233,23.133 25.967,23.283 25.6,23.35C24.567,23.55 22.917,23.067 20.65,21.9C17.55,20.333 14.2,18 10.6,14.9C7,11.833 4.2,8.883 2.2,6.05C0.467,3.65 -0.25,1.95 0.05,0.95L0.15,0.65L0.3,0.5C1.067,-0.4 2.983,-0.067 6.05,1.5C9.15,3.067 12.5,5.4 16.1,8.5C19.7,11.6 22.517,14.55 24.55,17.35C26.55,20.15 27.167,22 26.4,22.9" style="fill:#6d532c;"/>
                    <path d="M26.4,22.9C26.233,23.133 25.967,23.283 25.6,23.35C24.567,23.55 22.917,23.067 20.65,21.9C17.55,20.333 14.2,18 10.6,14.9C7,11.833 4.2,8.883 2.2,6.05C0.467,3.65 -0.25,1.95 0.05,0.95L0.15,0.65L0.3,0.5C1.067,-0.4 2.983,-0.067 6.05,1.5C9.15,3.067 12.5,5.4 16.1,8.5C19.7,11.6 22.517,14.55 24.55,17.35C26.55,20.15 27.167,22 26.4,22.9Z" style="fill:none;fill-rule:nonzero;stroke:#960;stroke-width:0.05px;"/>
                </g>
                <g id="shape2">
                    <path d="M100.25,81.55C111.65,92.25 117.35,105.183 117.35,120.35C117.25,135.45 111.533,148.333 100.2,159C87.9,170.367 74,176.05 58.5,176.05C51.1,176.05 44.133,174.717 37.6,172.05L62.5,168.75L76.7,154.8L77.75,119.05L57.75,86.25L57.55,85.1C67.683,85 76.45,83.417 83.85,80.35L84.5,80.15C87.9,78.683 90.533,77.083 92.4,75.35C95.067,77.15 97.683,79.217 100.25,81.55" style="fill:#9898cc;fill-opacity:0.7;"/>
                    <path d="M95.3,78.9C98.033,81.7 100.55,84.783 102.85,88.15C114.917,105.917 116.05,124.4 106.25,143.6C101.483,118.633 87.35,101.017 63.85,90.75L63.25,89.4L63.6,87.85L67.25,88.6L68.35,87.05L95.3,78.9M93.9,66.25C91.5,73.25 86.717,77.783 79.55,79.85C74.383,81.35 69.217,81.283 64.05,79.65C62.117,78.983 60.517,77.867 59.25,76.3L59.5,76.2C70.333,76.1 80.483,73.533 89.95,68.5L93.9,66.25M36,164L35.4,161.75C52.433,162.883 69.267,161.217 85.9,156.75C88.833,150.15 93.083,144.417 98.65,139.55L98.85,141.55C96.883,150.817 91.967,157.883 84.1,162.75C68.1,172.55 52.067,172.967 36,164" style="fill:#404280;fill-opacity:0.7;"/>
                    <path d="M11.85,99.2L16.7,102.55C16.233,120.35 19.283,137.45 25.85,153.85L23,152.3C2.567,137.133 -1.15,119.433 11.85,99.2M29.15,75.75C29.083,75.317 29.117,74.85 29.25,74.35L29.5,74.2C36.3,76.033 43.35,76.983 50.65,77.05L51.1,77.75C51.5,78.55 51.5,79.217 51.1,79.75C43.9,82.55 36.717,81.667 29.55,77.1C29.283,76.667 29.15,76.217 29.15,75.75M12,90.1L15.2,85.45C22.533,81.683 29.467,81.967 36,86.3C36.467,87.7 36.3,89.033 35.5,90.3C26.267,103.133 18.433,103.067 12,90.1M25.8,68.75C26.3,69.383 26.65,70.25 26.85,71.35C26.817,72.05 26.517,72.617 25.95,73.05C23.217,73.65 21.05,72.45 19.45,69.45C19.25,68.717 19.283,68.017 19.55,67.35C19.55,66.983 19.683,66.6 19.95,66.2L20.6,66.1C22.5,66.167 24.233,67.05 25.8,68.75" style="fill:#f2f2f9;fill-opacity:0.7;"/>
                </g>
            </g>
        </g>
    </g>
</svg>
