<?xml version="1.0" encoding="UTF-8" standalone="no"?>
<svg xmlns:xlink="http://www.w3.org/1999/xlink" viewBox="0 0 88.0 56.8"  height="56.8px" width="88.0px" xmlns="http://www.w3.org/2000/svg">
  <g transform="matrix(8.0, 0.0, 0.0, 8.0, -15.2, -27.6)">
    <use data-characterId="2173" height="7.1" transform="matrix(1.0, 0.0, 0.0, 1.0, 1.9, 3.45)" width="11.0" xlink:href="#shape0"/>
  </g>
  <defs>
    <g id="shape0" transform="matrix(1.0, 0.0, 0.0, 1.0, -1.9, -3.45)">
      <path d="M11.15 8.4 Q9.55 9.75 7.5 9.75 5.35 9.75 3.65 8.25 L2.7 7.35 3.6 6.5 4.95 5.15 Q6.05 4.25 7.5 4.25 8.95 4.25 9.95 5.15 L10.75 5.9 10.9 6.05 12.1 7.35 11.1 8.4 11.15 8.4" fill="#ffffff" fill-rule="evenodd" stroke="none"/>
      <path d="M11.15 8.4 Q9.55 9.75 7.5 9.75 5.35 9.75 3.65 8.25 L2.7 7.35 3.6 6.5 4.95 5.15 Q6.05 4.25 7.5 4.25 8.95 4.25 9.95 5.15 L10.75 5.9 10.9 6.05 12.1 7.35 11.1 8.4 11.15 8.4 Z" fill="none" stroke="#1b7c62" stroke-linecap="round" stroke-linejoin="round" stroke-width="0.5"/>
      <path d="M8.8 4.3 Q9.35 4.85 9.35 5.65 9.35 6.4 8.8 6.95 L8.45 7.3 7.5 7.5 Q6.7 7.5 6.15 6.95 5.6 6.4 5.6 5.65 5.6 4.85 6.15 4.3 6.7 3.75 7.5 3.75 8.25 3.75 8.8 4.3" fill="#26b58d" fill-rule="evenodd" stroke="none"/>
      <path d="M12.9 7.35 Q13.0 7.75 11.65 9.0 9.85 10.55 7.5 10.55 5.05 10.55 3.1 8.85 L3.05 8.85 Q1.8 7.7 1.9 7.35 1.8 7.1 3.0 5.9 L4.45 4.5 Q5.8 3.45 7.5 3.45 9.25 3.45 10.45 4.55 L11.3 5.3 12.9 7.35 M10.75 5.9 L9.95 5.15 Q8.95 4.25 7.5 4.25 6.05 4.25 4.95 5.15 L3.6 6.5 2.7 7.35 3.65 8.25 Q5.35 9.75 7.5 9.75 8.85 9.75 11.1 8.4 L12.1 7.35 10.75 5.9" fill="#26b58d" fill-rule="evenodd" stroke="none"/>
      <path d="M10.75 5.9 L9.95 5.15 Q8.95 4.25 7.5 4.25 6.05 4.25 4.95 5.15 L3.6 6.5 2.7 7.35 3.65 8.25 Q5.35 9.75 7.5 9.75 8.85 9.75 11.1 8.4 L12.1 7.35 10.75 5.9 Z" fill="none" stroke="#1b7c62" stroke-linecap="round" stroke-linejoin="round" stroke-width="0.5"/>
    </g>
  </defs>
</svg>
