<?xml version="1.0" encoding="UTF-8" standalone="no"?>
<!DOCTYPE svg PUBLIC "-//W3C//DTD SVG 1.1//EN" "http://www.w3.org/Graphics/SVG/1.1/DTD/svg11.dtd">
<svg width="100%" height="100%" viewBox="0 0 79 65" version="1.1" xmlns="http://www.w3.org/2000/svg" xmlns:xlink="http://www.w3.org/1999/xlink" xml:space="preserve" xmlns:serif="http://www.serif.com/" style="fill-rule:evenodd;clip-rule:evenodd;stroke-linecap:round;stroke-linejoin:round;">
    <g transform="matrix(2.876467,0,0,2.876467,8.393249,7.694064)">
        <g id="shape0">
            <path d="M23.55,1.55L23.55,19.1L0.4,19.1L0.4,1.55L23.55,1.55" style="fill:rgb(68,60,66);fill-opacity:0.7;"/>
            <path d="M21.55,0L21.9,0L22,6.8L21.55,6.8L21.55,0L21.55,16.75L0.35,16.75L0.35,0L21.55,0" style="fill:rgb(242,237,226);"/>
            <rect x="0" y="0" width="21.55" height="16.75" style="fill:none;fill-rule:nonzero;stroke:rgb(204,204,153);stroke-width:1px;"/>
        </g>
        <g transform="matrix(1.415587,0,0,1.415587,10.81422,8.260627)">
            <g transform="matrix(1,0,0,1,-6.9,-7.225)">
                <clipPath id="_clip1">
                    <rect x="0" y="0" width="13.8" height="14.45"/>
                </clipPath>
                <g clip-path="url(#_clip1)">
                    <g transform="matrix(1,0,0,1,0.7,0.7)">
                        <g id="shape01" serif:id="shape0">
                            <path d="M3.95,2.85C3.317,2.85 2.717,2.633 2.15,2.2C2.117,1.1 1.917,0.367 1.55,0L3.65,0.95C4.183,1.35 4.333,1.983 4.1,2.85L3.95,2.85L4.35,3.95L8.4,2L9.3,2.05L9.7,2.2L10.15,2.45L11.35,3.65L11.45,3.8L11.75,4.35L12.15,5.3L12.35,6.5L12.4,7.2C12.4,7.9 12.233,8.467 11.9,8.9L11.7,9.15L5.1,12.8L4.8,13L3.9,13.05L3.35,13L2.5,12.55L1.55,11.65L1.15,11.2L0.6,10.2L0.4,9.75L0.05,8.25L0,7.9L0,7.6L0.05,7.3C0.083,6.733 0.267,6.267 0.6,5.9L1.15,5.45L4.35,3.95" style="fill:none;fill-rule:nonzero;stroke:rgb(43,21,9);stroke-opacity:0.75;stroke-width:1.4px;"/>
                            <path d="M12.4,7.2C12.4,7.9 12.233,8.467 11.9,8.9L11.7,9.15L5.3,12.7L5.25,12.6L5.8,11.7L5.8,11.65L5.85,11.45L5.85,11.2L5.9,10.95L12.4,7.2" style="fill:rgb(101,67,27);"/>
                            <path d="M11.45,3.8L11.75,4.35L8.9,4.75L9.2,4.55L11.45,3.8M12.15,5.3L12.35,6.5L12.4,7.2L5.9,10.95L5.85,10.3L5.8,9.9L5.25,10.05L3.75,9.85C3.383,9.783 3.417,9.75 3.85,9.75L4.5,9.6L5.8,9.8L5.25,8.2L8.3,7.55L7.3,7.55L9.85,6.4L9.1,6.4L9.3,6.3L12.15,5.3M5.3,12.7L5.1,12.8L5.25,12.6L5.3,12.7M4.8,13L3.9,13.05L3.5,10.7L4.1,11.75L4.8,13M2.5,12.55L1.55,11.65L1.85,11.55L2.1,10.45C2,11.317 2.133,12.017 2.5,12.55M0.6,10.2L0.4,9.75L0.85,9.6L2.2,9.2C1.433,9.633 0.917,9.967 0.65,10.2L0.6,10.2M0,7.9L0,7.6L0.05,7.3C1.45,8.4 1.867,8.8 1.3,8.5L0.25,8L0,7.9M9.7,2.2L10.15,2.45L8.95,2.65L9,2.6L9.7,2.2M2.1,5.4L2.85,5.25L4.15,5.1L4.35,5.1L5,5.05L5.3,5.05L5.6,5L5.55,5.05L5.45,5.05L5.25,5.15C4.65,5.483 4,5.617 3.3,5.55L2.6,5.55L2.55,5.5L2.25,5.4L2.1,5.4L2.25,5.4L2.55,5.5L2.6,5.55L2.5,7.5C2.467,8 2.383,7.783 2.25,6.85C2.083,5.917 2.033,5.433 2.1,5.4M3.55,6.05L8.05,5.35L4.95,7.6L4.75,7.3L3.55,6.05M5.8,11.7L5.25,11.35L5,11.15L3.85,10.45L5.6,11.1L5.85,11.2L5.85,11.45L5.75,11.5L5.75,11.65L5.8,11.65L5.8,11.7M5.8,9.8L5.8,9.9L5.8,9.8" style="fill:rgb(154,111,39);"/>
                            <path d="M10.15,2.45L11.35,3.65L11.45,3.8L9.2,4.55L8.9,4.75L11.75,4.35L12.15,5.3L9.3,6.3L9.1,6.4L9.85,6.4L7.3,7.55L8.3,7.55L5.25,8.2L4.95,7.6L8.05,5.35L3.55,6.05L2.6,5.55L3.3,5.55C4,5.617 4.65,5.483 5.25,5.15L5.45,5.05L5.55,5.05L5.6,5L5.3,5.05L5,5.05L4.35,5.1L4.15,5.1L2.85,5.25L2.1,5.4L1.15,5.45L8.4,2L9.3,2.05L9.7,2.2L9,2.6L8.95,2.65L10.15,2.45" style="fill:rgb(204,153,51);"/>
                            <path d="M5.1,12.8L4.8,13L4.1,11.75L3.5,10.7L3.9,13.05L3.35,13L2.5,12.55C2.133,12.017 2,11.317 2.1,10.45L1.85,11.55L1.55,11.65L1.15,11.2L0.6,10.2L0.65,10.2C0.917,9.967 1.433,9.633 2.2,9.2L0.85,9.6L0.4,9.75L0.05,8.25L0,7.9L0.25,8L1.3,8.5C1.867,8.8 1.45,8.4 0.05,7.3C0.083,6.733 0.267,6.267 0.6,5.9L1.15,5.45L2.1,5.4C2.033,5.433 2.083,5.917 2.25,6.85C2.383,7.783 2.467,8 2.5,7.5L2.6,5.55L3.55,6.05L4.75,7.3L4.95,7.6L5.25,8.2L5.8,9.8L4.5,9.6L3.85,9.75C3.417,9.75 3.383,9.783 3.75,9.85L5.25,10.05L5.8,9.9L5.85,10.3L5.9,10.95L5.85,11.2L5.6,11.1L3.85,10.45L5,11.15L5.25,11.35L5.8,11.7L5.25,12.6L5.1,12.8M5.8,11.65L5.75,11.65L5.75,11.5L5.85,11.45L5.8,11.65" style="fill:rgb(230,202,157);"/>
                            <path d="M5.3,12.7L5.1,12.8L5.25,12.6L5.8,11.7L5.8,11.65L5.85,11.45L5.85,11.2L5.9,10.95L5.85,10.3L5.8,9.9L5.8,9.8L5.25,8.2L4.95,7.6L4.75,7.3L3.55,6.05L2.6,5.55L2.55,5.5L2.25,5.4L2.1,5.4L1.15,5.45" style="fill:none;fill-rule:nonzero;stroke:rgb(102,51,0);stroke-width:1px;"/>
                            <path d="M3.8,2.45L4.7,5" style="fill:none;fill-rule:nonzero;stroke:rgb(154,111,39);stroke-width:1px;"/>
                            <path d="M4.1,2.85C3.433,2.883 2.783,2.667 2.15,2.2C2.117,1.1 1.917,0.367 1.55,0L3.65,0.95C4.183,1.35 4.333,1.983 4.1,2.85" style="fill:rgb(102,153,51);"/>
                            <path d="M2.8,8.55L3.2,9.1L3.3,9.8L3.05,10.25L2.55,10.1L2.15,9.55L2.05,8.85C2.083,8.617 2.183,8.483 2.35,8.45L2.8,8.55" style="fill:rgb(154,111,39);"/>
                        </g>
                    </g>
                </g>
            </g>
        </g>
    </g>
</svg>
