<?xml version="1.0" encoding="UTF-8"?>
<svg version="1.1" viewBox="0 0 73.358 77.728" xmlns="http://www.w3.org/2000/svg" xmlns:cc="http://creativecommons.org/ns#" xmlns:dc="http://purl.org/dc/elements/1.1/" xmlns:rdf="http://www.w3.org/1999/02/22-rdf-syntax-ns#" xmlns:xlink="http://www.w3.org/1999/xlink">
<metadata>
<rdf:RDF>
<cc:Work rdf:about="">
<dc:format>image/svg+xml</dc:format>
<dc:type rdf:resource="http://purl.org/dc/dcmitype/StillImage"/>
</cc:Work>
</rdf:RDF>
</metadata>
<g transform="translate(-243.46 -149.55)">
<use transform="translate(243.5,149.55)" width="73.300003" height="77.699997" xlink:href="#a"/>
</g>
<defs>
<g id="a" transform="translate(-243.5,-149.55)">
<path d="m299.15 162.65q0.25-0.15 0.55-0.2l0.3-0.05q1-0.05 1.7 0.6 0.55 0.5 0.7 1.2l0.05 0.45q0.1 1.05-0.5 1.8l-0.05 0.05v0.05l0.3 0.1 0.9-0.25q0.85-0.05 1.5 0.55l0.3 0.3q0.4 0.5 0.4 1.2l0.05 0.3-0.35 1.15 0.3 0.2 0.55 1 0.05 0.25 0.4 0.1-0.2-0.35-0.1-0.6q-0.05-0.75 0.4-1.3 0.45-0.6 1.2-0.7l0.5 0.05q0.45 0.1 0.75 0.4l0.15 0.2 0.5 1.05q0.05 0.85-0.4 1.4-0.5 0.6-1.25 0.6h-0.3q0.9 0.9 1 2.25v0.3l-1.25 0.3-0.45 0.05q-1.05-0.05-1.9-0.8l-0.55-0.65-0.35-0.65-0.2-1.05-0.05-0.3-0.55 0.45-0.75-1-0.05-0.05q-0.65-0.6-1.4-0.7l-0.8-0.05h-0.1l-0.25 0.05-0.85 0.3-0.7 0.6-0.2-0.2-1.15-0.7-1.5-0.25-0.25 0.05-0.45 0.1q-0.8 0.25-1.45 0.85l-0.2-1.05q-0.1-1.4 0.75-2.5l0.1-0.2 0.85-0.75 0.5-0.3-0.5 0.3-0.85 0.75q-1.15 0.7-2.5 0.7l-0.45 0.05-0.05-0.6q-0.2-1.2-0.85-2.25-1.2-1.65-3.1-2.15 0.2-1 0.75-1.85 0.45-0.95 1.3-1.75l0.95-0.8 0.55-0.3q1.4-0.75 3.05-0.65 1.45 0.15 2.6 0.9l1.05 0.9v0.1l0.15 1.9q-0.1 1.35-0.55 2.5l-1 1.65-0.55 0.6 1.05-0.3q1.45-0.1 2.55 0.95l0.25 0.25 0.1-0.1-0.15-0.05-0.05-0.05-0.4-0.25q-0.7-0.7-0.8-1.75-0.05-1 0.55-1.75l0.25-0.3 0.45-0.3m-20.65 0.7q0.55-0.4 1.2-0.55l0.95-0.05q1.35 0.15 2.15 1.15l0.15 0.1q0.7 0.9 0.6 1.95l-0.05 0.5-0.6 0.1-0.4 0.1-1.85-0.05q-1.2-0.4-1.95-1.35-0.7-1-0.2-1.9m6.65-0.35 1.5 0.05 0.4 0.05q1.9 0.5 3.1 2.15 0.65 1.05 0.85 2.25l0.05 0.6v0.55l-0.55 0.65 0.45 0.25q0.4 0.25 0.8 0.65l1.15 1.4 0.1 0.2 0.55 1.4 0.05 0.5h0.05-0.05l0.05 0.35-0.1 1.65 0.25-0.05q1.1-0.05 2 0.75l0.35 0.35 0.5 0.95h0.05l-0.25 0.7 0.25-0.7 0.35-0.15 0.6-0.25 0.8-0.7 0.1-0.1 0.2-0.35 0.35 0.25 0.35-0.1 0.7 0.1 1.05 0.25 0.45 0.2 0.6 0.5q1.2 1.1 1.35 2.75v0.8-0.05h-0.05l-0.25 0.15-1.5 0.45q-1.6 0.2-2.8-0.9l-0.15-0.2q-0.95-0.95-1.15-2.35v-0.3l-0.35 0.2-0.9 0.5-0.5 0.05q-1.1 0.15-2-0.65l-0.6-0.8-0.05-0.05-0.25-0.75-0.5 0.35-0.2 0.1q-0.3-0.1-0.4 0.1l-0.15 0.15-0.9 0.2-0.5 0.1h-0.7q-1.8-0.05-3.2-1.35l-0.55-0.6-0.9-1.35-0.35-1.1-0.1-0.9 0.1-1.6v-0.05q0.4-0.45 0.9-0.75 1-0.6 2.25-0.75l1.75 0.2q0.45 0.1 0.9 0.35-0.45-0.25-0.9-0.35l-1.75-0.2q-1.25 0.15-2.25 0.75-0.5 0.3-0.9 0.75v0.05l-0.85-0.5-1.2-1.2-0.05-0.25 0.05-0.55 0.45-0.35 0.35-0.5 0.05-0.2 0.6-0.3q-0.3-1.05 0-2.1 0.3-0.95 1.05-1.35m17.35 8.1 0.05-0.05-0.05 0.05m1.9-1.45 0.6 0.25-0.6-0.25m-1.05-1.6-0.4-0.75-0.35-0.35-0.4-0.3 0.4 0.3 0.35 0.35 0.4 0.75m-1.9-1.1 0.45-0.45-0.45 0.45" fill="#fff" fill-rule="evenodd"/>
<path d="m308.55 174.75q0 1.3-0.75 2.25l-0.85 0.75-1.35 0.4h-0.45q-1.05 0-1.9-0.75l-0.3-0.3-0.6-1.05q-0.5 0.4-1.15 0.6l-1.05-0.25-0.7-0.1-0.35 0.1-0.35-0.25-0.2 0.35-0.1 0.1-0.8 0.7-0.6 0.25-0.35 0.15h-0.05l-0.5-0.95-0.35-0.35q-0.9-0.8-2-0.75l-0.25 0.05 0.1-1.65-0.05-0.35h0.05-0.05l-0.05-0.5-0.55-1.4-0.1-0.2-1.15-1.4q-0.4-0.4-0.8-0.65v-0.1l0.1-0.8-0.1 0.8v0.1l-0.45-0.25 0.55-0.65v-0.55l0.45-0.05q1.35 0 2.5-0.7l-0.1 0.2q-0.85 1.1-0.75 2.5l0.2 1.05q0.65-0.6 1.45-0.85l0.45-0.1 0.25-0.05 1.5 0.25 1.15 0.7 0.2 0.2 0.7-0.6 0.85-0.3 0.25-0.05h0.1l0.8 0.05q0.75 0.1 1.4 0.7l0.05 0.05 0.75 1 0.55-0.45 0.05 0.3 0.2 1.05 0.35 0.65 0.55 0.65q0.85 0.75 1.9 0.8l0.45-0.05 1.25-0.3m-4.95 6.15q-0.15 1.2-0.9 2.2l-1.1 0.95q-0.7 0.4-1.55 0.45h-0.4q-1.35 0-2.35-0.95-1.25-1.1-1.4-2.8-0.7 0.7-1.65 0.75-1.1 0.15-2-0.65l-0.6-0.75-0.3-0.85-1.05 0.6-1.6 0.4q-2.15 0.2-3.8-1.25l-0.1-0.05-1.1-1.35-0.3-0.6-0.3-0.8-0.25-1.25q-0.05-0.95 0.15-1.8l-0.65-0.45-0.9-1.1-0.45-0.75q-0.45-0.95-0.5-1.95l0.2-0.1 0.05-0.05h-0.6q-1.35-0.05-2.2-0.95-0.85-0.95-0.75-2.3 0.1-1 0.85-1.7l0.25-0.3 0.2-0.15q-0.5 0.9 0.2 1.9 0.75 0.95 1.95 1.35l1.85 0.05 0.4-0.1 0.6-0.1 0.05-0.5q0.1-1.05-0.6-1.95v-0.2l0.05-0.05v-0.05 0.05l0.45-0.25 1.5-0.45 0.2-0.05q-0.75 0.4-1.05 1.35-0.3 1.05 0 2.1l-0.6 0.3-0.05 0.2-0.35 0.5-0.45 0.35-0.05 0.55 0.05 0.25 1.2 1.2 0.85 0.5v-0.05 0.05l-0.1 1.6 0.1 0.9 0.35 1.1 0.9 1.35 0.55 0.6q1.4 1.3 3.2 1.35h0.7l0.5-0.1 0.9-0.2-0.1 0.15q-0.5 0.8-0.4 1.75l0.05 0.45-0.05-0.45q-0.1-0.95 0.4-1.75l0.1-0.15 0.55-0.25 0.2-0.1 0.5-0.35 0.25 0.75 0.05 0.05 0.6 0.8q0.9 0.8 2 0.65l0.5-0.05 0.9-0.5 0.35-0.2v0.3q0.2 1.4 1.15 2.35l0.15 0.2q1.2 1.1 2.8 0.9l1.5-0.45 0.25-0.15 0.05 0.05m-6.3-21.35v0.05l0.6 0.65q0.85 1.15 1.25 2.4l-0.45 0.3-0.25 0.3q-0.6 0.75-0.55 1.75 0.1 1.05 0.8 1.75l0.4 0.25 0.05 0.05-0.05 0.05-0.15-0.15q-1.1-1.05-2.55-0.95l-1.05 0.3 0.55-0.6 1-1.65q0.45-1.15 0.55-2.5l-0.15-1.9v-0.1m4.85 15.45 0.2 1.05-0.2-1.05m-6.25 5.75v-0.3q0-0.75 0.25-1.35l0.3-0.7-0.3 0.7q-0.25 0.6-0.25 1.35v0.3m-2.55-9.65-0.35 0.4-0.1 0.1 0.1-0.1 0.35-0.4m-10.35 2.05q0.3-1.25 1.2-2.3l0.5-0.55-0.5 0.55q-0.9 1.05-1.2 2.3m0.5-6.4v-0.3 0.3" fill="#dcceba" fill-rule="evenodd"/>
<path d="m305.15 178.15q-0.2 1.15-0.95 2.15h-0.05l-0.3 0.35-0.25 0.2v-0.75q-0.15-1.65-1.35-2.75l-0.6-0.5-0.45-0.2q0.65-0.2 1.15-0.6l0.6 1.05 0.3 0.3q0.85 0.75 1.9 0.75" fill="#d6c6ad" fill-rule="evenodd"/>
<path d="m299.15 162.65q0.25-0.15 0.55-0.2l0.3-0.05q1-0.05 1.7 0.6 0.55 0.5 0.7 1.2l0.05 0.45q0.1 1.05-0.5 1.8l-0.05 0.05v0.05l0.3 0.1 0.9-0.25q0.85-0.05 1.5 0.55l0.3 0.3q0.4 0.5 0.4 1.2l0.05 0.3-0.35 1.15 0.3 0.2 0.55 1m0.25 0-0.1-0.6q-0.05-0.75 0.4-1.3 0.45-0.6 1.2-0.7l0.5 0.05q0.45 0.1 0.75 0.4l0.15 0.2 0.5 1.05q0.05 0.85-0.4 1.4-0.5 0.6-1.25 0.6h-0.3q0.9 0.9 1 2.25v0.3q0 1.3-0.75 2.25l-0.85 0.75-1.35 0.4h-0.45q-0.2 1.15-0.95 2.15h-0.05l-0.3 0.35-0.25 0.25q-0.15 1.2-0.9 2.2l-1.1 0.95q-0.7 0.4-1.55 0.45h-0.4q-1.35 0-2.35-0.95-1.25-1.1-1.4-2.8-0.7 0.7-1.65 0.75-1.1 0.15-2-0.65l-0.6-0.75-0.3-0.85-1.05 0.6-1.6 0.4q-2.15 0.2-3.8-1.25l-0.1-0.05-1.1-1.35-0.3-0.6-0.3-0.8-0.25-1.25q-0.05-0.95 0.15-1.8l-0.65-0.45-0.9-1.1-0.45-0.75q-0.45-0.95-0.5-1.95m0.25-0.15h-0.6q-1.35-0.05-2.2-0.95-0.85-0.95-0.75-2.3 0.1-1 0.85-1.7l0.25-0.3 0.2-0.15q0.55-0.4 1.2-0.55l0.95-0.05q1.35 0.15 2.15 1.15l0.15 0.1m0.5-0.5 1.5-0.45 0.2-0.05 1.5 0.05 0.4 0.05q0.2-1 0.75-1.85 0.45-0.95 1.3-1.75l0.95-0.8 0.55-0.3q1.4-0.75 3.05-0.65 1.45 0.15 2.6 0.9l1.05 0.9v0.05l0.6 0.65q0.85 1.15 1.25 2.4l-0.45 0.3-0.25 0.3q-0.6 0.75-0.55 1.75 0.1 1.05 0.8 1.75l0.4 0.25m-0.05 0.05-0.1-0.1q-1.1-1.05-2.55-0.95l-1.05 0.3-0.5 0.3-0.85 0.75-0.1 0.2q-0.85 1.1-0.75 2.5l0.2 1.05q0.65-0.6 1.45-0.85m7.4-3.6 0.4 0.3 0.35 0.35 0.4 0.75m1.65 1.85-0.6-0.25m-2.05 6.4-0.2-1.05m3 3.15q-1.05 0-1.9-0.75l-0.3-0.3-0.6-1.05q-0.5 0.4-1.15 0.6l0.45 0.2 0.6 0.5q1.2 1.1 1.35 2.75v0.8m-7.15-2.5-0.3 0.7q-0.25 0.6-0.25 1.35v0.3m-4.85-12.65-0.05-0.6q-0.2-1.2-0.85-2.25-1.2-1.65-3.1-2.15m4 5v0.55l-0.1 0.8v0.1q0.4 0.25 0.8 0.65l1.15 1.4 0.1-0.1 0.35-0.4m-2.4-1.55-0.45-0.25q-0.45-0.25-0.9-0.35l-1.75-0.2q-1.25 0.15-2.25 0.75-0.5 0.3-0.9 0.75m7.1 6.65 0.15-0.15q0.1-0.2 0.4-0.1m4.1 1.75 0.25-0.7m-3.15-4.5-0.55-1.4-0.1-0.2m6.2-4.5 0.05-0.05m-15.65-0.6 0.05-0.5q0.1-1.05-0.6-1.95m1.75 6.3v-0.05m-1.2-3.5-0.05 0.2m0.05-0.5v0.3m1.2 3.55-0.5 0.55q-0.9 1.05-1.2 2.3m17.15 3.25 1.05 0.25m-9.4 0.25-0.1 0.15q-0.5 0.8-0.4 1.75l0.05 0.45m10.55-12.75-0.45 0.45" fill="none" stroke="#000" stroke-linecap="round" stroke-linejoin="round" stroke-opacity=".36078" stroke-width=".25"/>
<path d="m273.05 184-9.8 2.35-1.65-0.75-3.5-4.1 3.5 4.1 1.65 0.75 9.8-2.35h0.05l9.6 1.75 11.45-1.9v0.05l4.35-1q0.3 6 2.3 11.45l-0.8-0.5 0.75 0.65q-2.6 5.45-1.7 10.2l-1.4 0.6-0.9 0.35-2.75-0.9-0.25 2.45-0.9 8.4 0.05 0.4q0.6 6.3-6.9 7.6h-19.6q-3.15 1.75-6.35 3.55l-8.55-4.1-0.4-0.6-1.8-4.8 2.2 1.6v-2.65l0.85 2 2.5-2.2 2.85 1.65v2.25l5.95 1.9-1.9-4.15 3.3-0.25v1.95l1.4 0.4 2.6-7.2-3.05 0.4-4.9-8.85 0.3 0.3-1.6-6.3h-2.75l-1.65 8.25 2.2-1.35 2.45 3.55 0.45 1.75-0.95-0.7-0.85 1.95-2.35-3.8-0.5 1.85-2.95-2.6v-2l-0.95 0.65 2.05-5.65-3.3 1.65q-2.8-0.4-4.05-1.6 3.75 0.55 8.05-1.7l-0.9-2.15q2.9-0.3 4.05-1.7l1.8-3.95q-0.65-2.6-3.35-5.25l-0.75-0.4q1.9-1.25-2.3-2l2.5-3.55 0.15 0.05 17.15 4.2m-2.25 34.05v3.3l-4.35-1.2 4.35 1.2v-3.3h7.45q8.1 0.55 11.05-5.2l-2.05-1.5q-3.85 3.3-8.15 3.15-5.85-1.65-6.2-5.45l-0.45 5.15-1.65 2.2v1.65m-3.6-17.5 1.5 3.5 7.4 2.1-1.85 3.1 6.3 4.55 6.7-2.45 3.7-3.75-2.2-4.55-1.9-3.9-1.5 6.65-2.2-1.5-6.05-0.6q3.25-0.5 3.35-4.4-0.05-7-5.95-9.65-6.5-0.6-10.45 2.05v4.7l3.15 4.15m20.45-4.05-1.1 2 0.3 0.65-0.3-0.65 1.1-2m18.6 2.55v0.05-0.05m-8.6 6.25-1.8-2.95 2.55-9.85 1.6 1.35-1.6-1.35-2.55 9.85 1.8 2.95m0.75-12.8-4.25-8.6 4.25 8.6m-9.65 10.55 2.65 0.85 2.6 0.85-2.6-0.85-2.65-0.85m2.65 0.85 4.45-1.55-4.45 1.55" fill="#d2b69b" fill-rule="evenodd"/>
<path d="m298.8 180.75q4.35-1.2 8.15-2.95 1.75 1 0.75 1.7-3.45 1.7-7.55 2.95-2.6-0.85-1.35-1.7" fill="#b59b44" fill-rule="evenodd"/>
<path d="m273.05 184-17.15-4.2-0.15-0.05-4.05-0.95q-1.25-2 1.2-2.1l22.9 6.1 17.4-0.9 5.6-1.15q-1.25 0.85 1.35 1.7l-1.65 0.45-4.35 1v-0.05l-11.45 1.9-9.6-1.75h-0.05" fill="#74642c" fill-rule="evenodd"/>
<path d="m255.75 179.75-2.5 3.55q4.2 0.75 2.3 2-7.05-3.35-4.6 9.35l2.85 1.95 0.9 2.15q-4.3 2.25-8.05 1.7-1.5-1.4-0.9-3.9l3.25-2.75q-2-6.75 0-10.25l2.7-4.75 4.05 0.95m-3.8 26.3 0.95-0.65v2l2.95 2.6 0.5-1.85 2.35 3.8 0.85-1.95 0.95 0.7-0.45-1.75-3-10.45h2.75l1.6 6.3-0.3-0.3 4.9 8.85 3.05-0.4-2.6 7.2-1.4-0.4v-3.9h-4.45v3.9l-2.9-1.7-2.85-1.65 1.65-3.3-4.4-3.85v2.75h-4.7v-2.5l4.55-3.45m35.3 5.3-6.7 2.45-6.3-4.55 1.85-3.1-7.4-2.1-1.5-3.5q4.3 2.5 9.15 3.2l0.75-0.05 6.05 0.6 2.2 1.5 1.5-6.65 1.9 3.9 2.2 4.55-3.7 3.75m20.45-31.85 1.55 3.35 1 2.15-0.05 2.55q-0.25 5.1-2.25 8.95h-0.05l-2.25 0.15q-1.9-0.45-4.85-2.3-2-5.45-2.3-11.45l1.65-0.45q4.1-1.25 7.55-2.95m-1.45 19.6q-2.7 3.45-7.2 5.6-0.9-4.75 1.7-10.2l5.5 4.6m-55.15 23.35-3.45-5.2 3.3-1.95 0.55 1.3v2.65l-2.2-1.6 1.8 4.8" fill="#e1cfbd" fill-rule="evenodd"/>
<path d="m255.55 185.3 0.75 0.4q2.7 2.65 3.35 5.25l-1.8 3.95q-1.15 1.4-4.05 1.7l-2.85-1.95q-2.45-12.7 4.6-9.35m4.5 23.65-2.45-3.55-2.2 1.35 1.65-8.25 3 10.45m10.75 9.1v-1.65l1.65-2.2 0.45-5.15q0.35 3.8 6.2 5.45 4.3 0.15 8.15-3.15l2.05 1.5q-2.95 5.75-11.05 5.2h-7.45m-3.6-17.5-3.15-4.15v-4.7q3.95-2.65 10.45-2.05 5.9 2.65 5.95 9.65-0.1 3.9-3.35 4.4l-0.75 0.05q-4.85-0.7-9.15-3.2m38.45-3.9 0.6 2.4v0.05l-5.5-4.6-0.75-0.65 0.8 0.5q2.95 1.85 4.85 2.3m-47.95 21.4 2.9 1.7v-3.9h4.45v1.95l-3.3 0.25 1.9 4.15-5.95-1.9v-2.25" fill="#573f26" fill-rule="evenodd"/>
<path d="m258.1 181.5 3.5 4.1 1.65 0.75 9.8-2.35-17.15-4.2m-0.35 5.5 0.75 0.4q2.7 2.65 3.35 5.25l-1.8 3.95q-1.15 1.4-4.05 1.7l-2.85-1.95q-2.45-12.7 4.6-9.35m-8.9 15.15q1.25 1.2 4.05 1.6l3.3-1.65-2.05 5.65 0.95-0.65m7.15 3.55-2.45-3.55-2.2 1.35 1.65-8.25h2.75m6.65 21.65 4.35 1.2v-4.95l1.65-2.2 0.45-5.15q0.35 3.8 6.2 5.45 4.3 0.15 8.15-3.15l2.05 1.5q-2.95 5.75-11.05 5.2h-7.45m-3.6-17.5-3.15-4.15v-4.7q3.95-2.65 10.45-2.05 5.9 2.65 5.95 9.65-0.1 3.9-3.35 4.4l-0.75 0.05q-4.85-0.7-9.15-3.2m19.65-1.4-0.3-0.65 1.1-2m-41 3.95q-1.5-1.4-0.9-3.9l3.25-2.75q-2-6.75 0-10.25l2.7-4.75q-1.25-2 1.2-2.1l22.9 6.1 17.4-0.9 5.6-1.15q4.35-1.2 8.15-2.95 1.75 1 0.75 1.7l1.55 3.35m0.95 4.7q-0.25 5.1-2.25 8.95h-0.05l-2.25 0.15 0.6 2.4v0.05q-2.7 3.45-7.2 5.6l-1.4 0.6-0.9 0.35-2.75-0.9-0.25 2.45m-0.85 8.8q0.6 6.3-6.9 7.6h-19.6q-3.15 1.75-6.35 3.55l-8.55-4.1-0.4-0.6-3.45-5.2 3.3-1.95 0.55 1.3 0.85 2 2.5-2.2 1.65-3.3-4.4-3.85v2.75h-4.7v-2.5l4.55-3.45m-0.25-27.25 4.05 0.95m17.3 4.25h0.05l9.6 1.75 11.45-1.9v0.05l4.35-1 1.65-0.45q4.1-1.25 7.55-2.95m-7.7 14.35-1.6-1.35-2.55 9.85 1.8 2.95m3.15-10.95-0.8-0.5 0.75 0.65 5.5 4.6m-5.45-4.75q2.95 1.85 4.85 2.3m-11.5-12.75 4.25 8.6m-4.4 12.25-2.6-0.85-2.65-0.85 2.2 4.55-3.7 3.75m1.5-8.3-1.9-3.9m9 3.2-4.45 1.55m-26.35 13.9v1.95l1.4 0.4m-8.75-2.1 2.9 1.7v-3.9h4.45v1.95l-3.3 0.25 1.9 4.15-5.95-1.9v-2.25l-2.85-1.65m2.2-17.9 3 10.45" fill="none" stroke="#000" stroke-linecap="round" stroke-linejoin="round" stroke-opacity=".4" stroke-width=".25"/>
<path d="m305.2 205.35q-0.4 2.3-3.15 3.65-1.6 1.15-4.8 0.75-3.25-2.1-4.2-4.25l0.4-1.5 1.25 0.55 5.55 2.65q3.15 0.15 4.95-1.85m10.2-7.7q-0.15-3.4-3.35-6.45-2.5-1.5-7.9-0.75l-8.8 2.35-0.4-2.7 4.05-1.2 13.1-2.7q5.65 2.25 4.35 9.25l-1.05 2.2" fill="#b59b44" fill-rule="evenodd"/>
<path d="m300.6 195.5-4.15 1.6-0.75-0.9-6.85 0.35 6.65-2.85-0.15-0.9 8.8-2.35q5.4-0.75 7.9 0.75 3.2 3.05 3.35 6.45l-6.05 12.85q-5.1 4-12.35 4.75l-5.65-3.3-2.5-1.4-0.2-0.9 2.25-0.85-1.9-4.35 3.9 1.65 0.15-0.6q0.95 2.15 4.2 4.25 3.2 0.4 4.8-0.75 2.75-1.35 3.15-3.65l0.2-0.25 1.15-2.1 2.7-6.75q-1.65-3.7-8.05-0.45l-0.6-0.3" fill="#74642c" fill-rule="evenodd"/>
<path d="m296.45 197.1 4.15-1.6-2.65 3.3-1.5-1.7m-7.6 13.45 2.5 1.4-1.85 0.9-0.65-2.3m10.15-21.65-4.05 1.2-0.55-3.55 1.7 1.35 3.5-4.3-0.6 5.3m-5.55 15.1 0.55-2.1 0.7 2.65-1.25-0.55" fill="#573f26" fill-rule="evenodd"/>
<path d="m300.6 195.5-4.15 1.6 1.5 1.7 2.65-3.3 0.6 0.3q6.4-3.25 8.05 0.45l-2.7 6.75-1.15 2.1m-12.35 0.4-0.15 0.6-3.9-1.65 1.9 4.35-2.25 0.85 0.2 0.9 2.5 1.4 5.65 3.3q7.25-0.75 12.35-4.75l6.05-12.85m-20.05-4.85 0.15 0.9-6.65 2.85 6.85-0.35 0.75 0.9m-1.5-7 4.05-1.2 0.6-5.3-3.5 4.3-1.7-1.35 0.55 3.55 0.4 2.7m3.65-3.9 13.1-2.7q5.65 2.25 4.35 9.25l-1.05 2.2m-20.7 6.9 5.55 2.65q3.15 0.15 4.95-1.85m-11.75-1.35 0.55-2.1 0.7 2.65-1.25-0.55-0.4 1.5m-1.7 6.45-1.85 0.9-0.65-2.3" fill="none" stroke="#000" stroke-linecap="round" stroke-linejoin="round" stroke-opacity=".4" stroke-width=".25"/>
<path d="m256.7 158.35 2.5 0.1 0.65 0.1q0.35-1.65 1.2-3.1 0.8-1.55 2.2-2.85 0.75-0.75 1.55-1.3l0.85-0.55q2.35-1.25 5.1-1.05 2.35 0.25 4.25 1.5l1.7 1.5v0.1q0.35 1.5 0.25 3.2-0.15 2.2-0.9 4.05l-1.65 2.75-0.85 1q0.8-0.4 1.7-0.5 2.35-0.15 4.2 1.55l0.15 0.2 0.1 0.05 0.2 0.15 0.1-0.15-0.25-0.1-0.05-0.05-0.65-0.45q-1.2-1.1-1.3-2.85-0.15-1.65 0.85-2.85l0.45-0.5q0.35-0.3 0.75-0.5l0.9-0.35 0.5-0.1q1.6-0.1 2.8 1 0.85 0.8 1.15 1.95l0.1 0.75q0.15 1.75-0.85 3l-0.1 0.1 0.05 0.05 0.45 0.2q0.65-0.4 1.45-0.45 1.4-0.1 2.5 0.9l0.5 0.5q0.65 0.8 0.7 1.95l0.05 0.55q-0.05 1-0.6 1.85l0.5 0.35q0.7 0.65 0.95 1.65l0.05 0.4 0.65 0.2-0.3-0.6-0.2-1q-0.1-1.2 0.7-2.15 0.75-0.95 1.95-1.15l0.85 0.1q0.7 0.15 1.25 0.7l0.25 0.3q0.65 0.7 0.75 1.75 0.1 1.35-0.65 2.3-0.8 0.95-2 1h-0.55q1.5 1.45 1.65 3.65v0.55l-2.05 0.5-0.7 0.05q-1.8-0.05-3.15-1.3l-0.95-1.1-0.55-1.05-0.35-1.75-0.05-0.45-0.95 0.7-1.2-1.65-0.1-0.1q-1.05-0.95-2.3-1.15l-1.3-0.1h-0.15l-0.4 0.1q-0.8 0.15-1.45 0.55l-1.15 0.95-0.35-0.35q-0.9-0.8-1.85-1.15l-2.5-0.4-0.4 0.1-0.75 0.15q-1.35 0.4-2.35 1.4-0.3-0.8-0.35-1.7-0.2-2.3 1.2-4.15l0.2-0.3q-1.9 1.1-4.1 1.15l-0.75 0.05v0.9l-0.95 1.05-1.5-0.55-2.85-0.3q-2.05 0.2-3.7 1.25-0.8 0.5-1.45 1.2 0.65-0.7 1.45-1.2 1.65-1.05 3.7-1.25l2.85 0.3 1.5 0.55 0.75 0.45 1.35 1.05q1.15 1.05 1.9 2.35l0.15 0.3 0.9 2.3 0.1 0.8h0.05l-0.05 0.05 0.05 0.55-0.15 2.7 0.45-0.05q1.8-0.1 3.25 1.2l0.6 0.6 0.8 1.55h0.05l0.6-0.2 1-0.4 1.35-1.2 0.1-0.15 0.4-0.55 0.55 0.4 0.6-0.15 1.1 0.1q0.9 0.05 1.75 0.45l0.75 0.35 1 0.8q2 1.8 2.2 4.55l0.05 0.3v0.9l-0.05 0.1v-0.1l-0.05 0.05-0.4 0.25q-1.15 0.6-2.5 0.7-2.65 0.3-4.65-1.5l-0.25-0.3q-1.55-1.55-1.9-3.85v-0.55l-0.5 0.4-1.55 0.8-0.8 0.1q-1.85 0.2-3.3-1.1l-1-1.35-0.05-0.05-0.4-1.25-0.85 0.6-0.3 0.15q-0.5-0.2-0.7 0.15l-0.25 0.25-1.45 0.35-0.85 0.15h-1.15q-2.95-0.1-5.3-2.2l-0.9-1q-0.9-1.05-1.45-2.25l-0.55-1.8-0.2-1.5q-0.1-1.4 0.2-2.65v-0.05l-0.05 0.05-1.4-0.8-0.05-0.05q-1.1-0.8-1.9-1.95l-0.1-0.35 0.05-0.95 0.8-0.6 0.55-0.75 0.1-0.35q0.5-0.35 0.95-0.55-0.45-1.7 0.05-3.45 0.45-1.5 1.7-2.2m-10.95 0.55q0.9-0.6 2-0.85l1.55-0.15q2.2 0.3 3.55 1.9l0.2 0.2q1.2 1.45 1.05 3.25l-0.15 0.8-0.95 0.15-0.7 0.15-3.05-0.1q-1.95-0.65-3.15-2.2-1.2-1.65-0.35-3.15m14.1-0.35q3.15 0.8 5.1 3.55 1.1 1.7 1.4 3.65l0.1 1-0.1-1q-0.3-1.95-1.4-3.65-1.95-2.75-5.1-3.55m13.7 5.25q-0.45 0.15-0.85 0.45l-1.4 1.3 1.4-1.3q0.4-0.3 0.85-0.45m2.15 18.75-0.4 1.2 0.4-1.2m11-15.85-0.7-1.25-0.5-0.55-0.7-0.5 0.7 0.5 0.5 0.55 0.7 1.25m-3.15-1.85 0.75-0.7-0.75 0.7m1.75 6.85 0.05-0.1-0.05 0.1m3.15-2.35q0.5 0.05 0.95 0.35-0.45-0.3-0.95-0.35" fill="#fff" fill-rule="evenodd"/>
<path d="m276.7 152.7 0.05 0.05 1 1.1q1.4 1.85 2.05 3.95-0.4 0.2-0.75 0.5l-0.45 0.5q-1 1.2-0.85 2.85 0.1 1.75 1.3 2.85l0.65 0.45 0.05 0.05-0.05 0.1-0.1-0.05-0.15-0.2q-1.85-1.7-4.2-1.55-0.9 0.1-1.7 0.5l0.85-1 1.65-2.75q0.75-1.85 0.9-4.05 0.1-1.7-0.25-3.2v-0.1m18.55 25.05q0.05 2.1-1.2 3.65l-1.45 1.3q-1 0.5-2.2 0.6l-0.5 0.05h-0.25q-1.75-0.05-3.1-1.3l-0.5-0.45q-0.65-0.8-1-1.7-0.85 0.65-1.9 0.95-0.85-0.4-1.75-0.45l-1.1-0.1-0.6 0.15-0.55-0.4-0.4 0.55-0.1 0.15-1.35 1.2-1 0.4-0.6 0.2h-0.05l-0.8-1.55-0.6-0.6q-1.45-1.3-3.25-1.2l-0.45 0.05 0.15-2.7-0.05-0.55 0.05-0.05h-0.05l-0.1-0.8-0.9-2.3-0.15-0.3q-0.75-1.3-1.9-2.35l-1.35-1.05-0.75-0.45 0.95-1.05v-0.9l0.75-0.05q2.2-0.05 4.1-1.15l-0.2 0.3q-1.4 1.85-1.2 4.15 0.05 0.9 0.35 1.7 1-1 2.35-1.4l0.75-0.15 0.4-0.1 2.5 0.4q0.95 0.35 1.85 1.15l0.35 0.35 1.15-0.95q0.65-0.4 1.45-0.55l0.4-0.1h0.15l1.3 0.1q1.25 0.2 2.3 1.15l0.1 0.1 1.2 1.65 0.95-0.7 0.05 0.45 0.35 1.75 0.55 1.05 0.95 1.1q1.35 1.25 3.15 1.3l0.7-0.05 2.05-0.5m-8.15 10.1q-0.2 2-1.5 3.65l-1.75 1.55q-1.15 0.65-2.55 0.75h-0.7q-2.2 0-3.9-1.55-2.05-1.8-2.25-4.65-1.15 1.15-2.75 1.25-1.85 0.2-3.3-1.1-0.65-0.55-1-1.25l-0.5-1.35-1.7 1-2.65 0.6q-3.55 0.35-6.3-2.05l-0.15-0.1q-1.1-1-1.75-2.15l-0.55-1-0.5-1.35-0.35-2.05q-0.1-1.55 0.2-2.95l-1.05-0.8-1.5-1.8-0.75-1.25q-0.75-1.5-0.85-3.15l0.35-0.2 0.1-0.05-1-0.05q-2.25-0.05-3.6-1.55-1.4-1.55-1.25-3.75 0.15-1.65 1.4-2.85l0.45-0.5 0.3-0.25q-0.85 1.5 0.35 3.15 1.2 1.55 3.15 2.2l3.05 0.1 0.7-0.15 0.95-0.15 0.15-0.8q0.15-1.8-1.05-3.25v-0.35l0.1-0.05v-0.1l0.05 0.05 0.7-0.4q1.15-0.55 2.45-0.75l0.35-0.05q-1.25 0.7-1.7 2.2-0.5 1.75-0.05 3.45-0.45 0.2-0.95 0.55l-0.1 0.35-0.55 0.75-0.8 0.6-0.05 0.95 0.1 0.35q0.8 1.15 1.9 1.95l0.05 0.05 1.4 0.8 0.05-0.05v0.05q-0.3 1.25-0.2 2.65l0.2 1.5 0.55 1.8q0.55 1.2 1.45 2.25l0.9 1q2.35 2.1 5.3 2.2h1.15l0.85-0.15 1.45-0.35-0.15 0.25q-0.8 1.35-0.7 2.9l0.1 0.75-0.1-0.75q-0.1-1.55 0.7-2.9l0.15-0.25 0.95-0.4 0.3-0.15 0.85-0.6 0.4 1.25 0.05 0.05 1 1.35q1.45 1.3 3.3 1.1l0.8-0.1-0.5 1.1q-0.35 1.05-0.35 2.25v0.5-0.5q0-1.2 0.35-2.25l0.5-1.1 1.55-0.8 0.5-0.4v0.55q0.35 2.3 1.9 3.85l0.25 0.3q2 1.8 4.65 1.5 1.35-0.1 2.5-0.7l0.4-0.25 0.05 0.05m-20.85-18.7 0.05-0.2 0.15-1.3-0.15 1.3-0.05 0.2m3.25 3.4 0.15-0.2 0.6-0.65-0.6 0.65-0.15 0.2m-16.35 2.55q0.5-2.05 1.95-3.85l0.85-0.9-0.85 0.9q-1.45 1.8-1.95 3.85m0.85-10.55-0.05-0.45v-0.05 0.05l0.05 0.45m30.7 13.55 0.35 1.8-0.35-1.8" fill="#dcceba" fill-rule="evenodd"/>
<path d="m289.65 183.35q-0.35 1.9-1.55 3.5h-0.05l-0.55 0.6-0.35 0.3v-0.9l-0.05-0.3q-0.2-2.75-2.2-4.55l-1-0.8-0.75-0.35q1.05-0.3 1.9-0.95 0.35 0.9 1 1.7l0.5 0.45q1.35 1.25 3.1 1.3" fill="#d6c6ad" fill-rule="evenodd"/>
<path d="m256.7 158.35 2.5 0.1 0.65 0.1q0.35-1.65 1.2-3.1 0.8-1.55 2.2-2.85 0.75-0.75 1.55-1.3l0.85-0.55q2.35-1.25 5.1-1.05 2.35 0.25 4.25 1.5l1.7 1.5 0.05 0.05 1 1.1q1.4 1.85 2.05 3.95l0.9-0.35 0.5-0.1q1.6-0.1 2.8 1 0.85 0.8 1.15 1.95l0.1 0.75q0.15 1.75-0.85 3l-0.1 0.1 0.05 0.05 0.45 0.2q0.65-0.4 1.45-0.45 1.4-0.1 2.5 0.9l0.5 0.5q0.65 0.8 0.7 1.95l0.05 0.55q-0.05 1-0.6 1.85l0.5 0.35q0.7 0.65 0.95 1.65m0.4 0-0.2-1q-0.1-1.2 0.7-2.15 0.75-0.95 1.95-1.15l0.85 0.1q0.7 0.15 1.25 0.7l0.25 0.3q0.65 0.7 0.75 1.75 0.1 1.35-0.65 2.3-0.8 0.95-2 1h-0.55q1.5 1.45 1.65 3.65v0.55q0.05 2.1-1.2 3.65l-1.45 1.3q-1 0.5-2.2 0.6l-0.5 0.05h-0.25q-0.35 1.9-1.55 3.5h-0.05l-0.55 0.6-0.4 0.4q-0.2 2-1.5 3.65l-1.75 1.55q-1.15 0.65-2.55 0.75h-0.7q-2.2 0-3.9-1.55-2.05-1.8-2.25-4.65-1.15 1.15-2.75 1.25-1.85 0.2-3.3-1.1-0.65-0.55-1-1.25l-0.5-1.35-1.7 1-2.65 0.6q-3.55 0.35-6.3-2.05l-0.15-0.1q-1.1-1-1.75-2.15l-0.55-1-0.5-1.35-0.35-2.05q-0.1-1.55 0.2-2.95l-1.05-0.8-1.5-1.8-0.75-1.25q-0.75-1.5-0.85-3.15m0.45-0.25-1-0.05q-2.25-0.05-3.6-1.55-1.4-1.55-1.25-3.75 0.15-1.65 1.4-2.85l0.45-0.5 0.3-0.25q0.9-0.6 2-0.85l1.55-0.15q2.2 0.3 3.55 1.9l0.2 0.2m0.85-0.85q1.15-0.55 2.45-0.75l0.35-0.05m-2.7 6.2-0.1 0.35m2.05 5.45 0.05-0.05q0.65-0.7 1.45-1.2 1.65-1.05 3.7-1.25l2.85 0.3 1.5 0.55m0.95-1.05v-0.9l-0.1-1q-0.3-1.95-1.4-3.65-1.95-2.75-5.1-3.55m13.7 5.25q0.8-0.4 1.7-0.5 2.35-0.15 4.2 1.55l0.15 0.2m0.1 0.05 0.05-0.1m-0.05-0.05-0.65-0.45q-1.2-1.1-1.3-2.85-0.15-1.65 0.85-2.85l0.45-0.5q0.35-0.3 0.75-0.5m-8.5 7.75 1.4-1.3q0.4-0.3 0.85-0.45m-3.3 7.9q-0.3-0.8-0.35-1.7-0.2-2.3 1.2-4.15l0.2-0.3m-0.75 9.6-0.9-2.3-0.15-0.3q-0.75-1.3-1.9-2.35l-1.35-1.05-0.75-0.45m0.95-1.05-0.15 1.3-0.05 0.2m6.35 1.15q-1.35 0.4-2.35 1.4l-0.6 0.65-0.15 0.2m-15.55-8.5 0.15-0.8q0.15-1.8-1.05-3.25m0.9 4.05v0.05l0.05 0.45m1.95 5.8-0.85 0.9q-1.45 1.8-1.95 3.85m14.5 6.15 0.25-0.25q0.2-0.35 0.7-0.15m6.7 2.9 0.4-1.2m5.7-2.15q0.9 0.05 1.75 0.45 1.05-0.3 1.9-0.95l-0.35-1.8m-9.4 5.65-0.5 1.1q-0.35 1.05-0.35 2.25v0.5m-6.8-6.35-0.15 0.25q-0.8 1.35-0.7 2.9l0.1 0.75m17.4-21-0.75 0.7m1.25-0.45 0.7 0.5 0.5 0.55 0.7 1.25m2.7 3q-0.45-0.3-0.95-0.35m1.2 14q-1.75-0.05-3.1-1.3l-0.5-0.45q-0.65-0.8-1-1.7m-1.9 0.95 0.75 0.35 1 0.8q2 1.8 2.2 4.55l0.05 0.3v0.9l-0.05 0.1" fill="none" stroke="#000" stroke-linecap="round" stroke-linejoin="round" stroke-opacity=".36078" stroke-width=".25"/>
</g>
</defs>
</svg>
