<?xml version="1.0" encoding="UTF-8"?>
<svg version="1.1" viewBox="0 0 86.969 96.067" xmlns="http://www.w3.org/2000/svg" xmlns:cc="http://creativecommons.org/ns#" xmlns:dc="http://purl.org/dc/elements/1.1/" xmlns:rdf="http://www.w3.org/1999/02/22-rdf-syntax-ns#" xmlns:xlink="http://www.w3.org/1999/xlink">
<metadata>
<rdf:RDF>
<cc:Work rdf:about="">
<dc:format>image/svg+xml</dc:format>
<dc:type rdf:resource="http://purl.org/dc/dcmitype/StillImage"/>
</cc:Work>
</rdf:RDF>
</metadata>
<g transform="translate(-231.49 -152.44)">
<use transform="translate(231.5,152.45)" width="86.949997" height="96.050003" xlink:href="#a"/>
</g>
<defs>
<g id="a" transform="translate(-231.5,-152.45)">
<path d="m296.35 225.05q-9.75 10.2-20.9 10.05t-25.05-13.7q-13.95-13.55-11.95-26.25 2.05-12.7 14.35-21.5 12.25-8.8 25.2-11.8 12.95-2.95 23.55 9.65 10.55 12.6 7.6 27.95-3.05 15.35-12.8 25.6" fill="#ffa611" fill-rule="evenodd"/>
<path d="m294.75 181.5q-6.15-9.75-4.3-10.55 1.9-0.8 7.4 3.8 5.45 4.6 7.25 12.5t-1.25 14.5q-3.15 6.55-6.65 6.35-3.5-0.15-3-4.6 0.45-4.45 3.55-8.3 3.2-3.95-3-13.7" fill="#f9ec4f" fill-rule="evenodd"/>
<path d="m254.45 205.25q-0.65 1.35-0.65 3.3l0.05 0.85q0.2 2.6 1.25 4.45l-0.4 0.9q-0.2 0.55-1.2 0.7l-1.05 0.3q-0.5 0.15-2.7 1.55l-2.1 1.45q-1.7 1.15-2.2 2.25-0.35 0.85-0.4 1.6l0.05 0.9q0.15 0.75 0.65 1.65l0.2 0.45 0.3 0.4 1.2 1.2q0.85 0.65 2.15 0.45 0.85-0.15 2.3-1.35l2.15-2.05 0.9-1.05 1.4-2.15q0.9-2.2 1.1-2.2l0.55-0.5q1.75 1.95 3.9 3 1.75 0.8 3.25 0.8 1.35 0 2.45-0.7l1.1-0.9 31.65-24.35 1-0.45 1.45-1.4q0.95-1.45 0.9-3.75l-0.35-2.8-0.9-2.65q1.45-0.45 2.7-1.2l0.8-0.55q2.9-1.95 3.45-3.1 0.65-1.4 0.4-2.55l-0.3-1-0.35-0.65-0.2-0.45-0.25-0.4-1.25-1.2q-0.85-0.65-2.15-0.45-0.85 0.15-2.4 1.5l-2.05 1.9-2.35 2.75-1.05-0.85-1.8-1.1-5.7-0.15-1.35 1.2-32.4 24.55-0.5 0.3-1.25 1.55" fill="#fedbc0" fill-opacity=".45098" fill-rule="evenodd"/>
<path d="m288.55 189 0.1 0.05v0.25l0.25-0.1-0.25-0.15v-0.2l-0.1 0.15" fill="#f90" fill-rule="evenodd"/>
<path d="m299.6 195.35 0.95-0.4 1.35-1.3-2.3 1.7" fill="#fef4ed" fill-rule="evenodd"/>
<path d="m285.5 187.75q1.6 0.45 3.05 1.25l0.1-0.15 3.9-4.05 4.25-4.4-1.75-0.9q-3.2-1.25-5.5 0.1l-1.25 1.15-2.85 2.1-0.2 0.15 0.25 4.75m-16.95 20.75 2.9-1 0.55-0.9q3.55-1.7 6.6-4.2-0.45-0.1-0.85 0.2-0.95 0.7-2.15 1.2-0.6 0.25-1.15 0.65l-1.55 1.25-0.55 0.2-0.2-0.65-1.15 1.05-0.5-0.6-1.8-0.2-0.15-1.8-0.7 0.05-0.75 0.3-0.35 0.15-0.25 0.25-0.2 0.3-0.4 0.65 2.65 3.1m-11.85 5.35-0.35 0.15-1.6 0.45-0.5 0.05q-1.75 0.5-3.3 1.45l-2 1.3q3.1 0.25 4.05 3.85l0.05-0.25 8.35-8.1q-0.6-1.3-2.25-1.55l-1.3 1.8-1.15 0.85m51.65-35.85-0.3-0.5-0.5-0.8-1.15-0.95q-0.8-0.5-2.1-0.3-0.8 0.15-2.3 1.4 2.8 1.15 3.05 4.55 1.9-0.75 3.3-3.4" fill="#d5d0c6" fill-rule="evenodd"/>
<path d="m279.95 186.85q2.95 0.05 5.55 0.9l-0.25-4.75-5.3 3.85m5.85 3.9-8.5 1.4q5.85 1.45 5.85 10.35l6.4-4.95q0.1-2.65-0.9-5.95l-2.85-0.85m-36.85 26.5q-1.6 1.1-2.05 2.1-0.4 0.7-0.45 1.4l2.7 1.5 3.85-1.15q-0.95-3.6-4.05-3.85m53.55-29.3-0.9-2.3-0.95-1.5-8.1 0.65-3.9 4.05v0.2l0.25 0.15q3.15 1.7 4.7 5.5l8.9-6.75" fill="#cac4b7" fill-rule="evenodd"/>
<path d="m264.7 204.5 2.5-5.85-4.15 0.5-0.35 0.3 0.35-0.3-0.35 0.3-5.55 4.05q2.25-1.35 5.5-0.1l2.05 1.1m37.3-27.65-1.95 1.8q2.7 0.75 2.95 3.05l2.05-0.3q-0.25-3.4-3.05-4.55m-4.2 4.25-1-0.7-4.25 4.4 8.1-0.65-0.1-0.2q-1.25-1.7-2.75-2.85" fill="#bab1a0" fill-rule="evenodd"/>
<path d="m266.1 196.95 1.1 1.7-2.5 5.85 1.2 0.9 0.4-0.65 0.2-0.3 0.25-0.25 0.35-0.15 0.75-0.3 0.7-0.05 0.15 1.8 1.8 0.2 0.5 0.6 1.15-1.05 0.2 0.65 0.55-0.2 1.55-1.25q0.55-0.4 1.15-0.65 1.2-0.5 2.15-1.2 0.4-0.3 0.85-0.2-3.05 2.5-6.6 4.2l-0.55 0.9-2.9 1 1 1.8 0.65 2.2 12.95-10q0-8.9-5.85-10.35l8.5-1.4 2.85-1.45v-0.25l-0.1-0.05q-1.45-0.8-3.05-1.25-2.6-0.85-5.55-0.9l-13.85 10.1m22.8-7.75-0.25 0.1v2.3q1 3.3 0.9 5.95l4.05-2.85q-1.55-3.8-4.7-5.5" fill="#aea491" fill-rule="evenodd"/>
<path d="m304.95 183.95q2.8-1.8 3.3-2.85 0.6-1.25 0.4-2.2l-0.3-0.9q-1.4 2.65-3.3 3.4l-0.1 2.55" fill="#9c917a" fill-rule="evenodd"/>
<path d="m293.6 199.8 6-4.45 2.3-1.7q0.9-1.3 0.9-3.3l-0.3-2.4-8.9 6.75q0.95 3.85 0 5.1m8-14.15 2.55-1.2 0.8-0.5 0.1-2.55-2.05 0.3q-0.25-2.3-2.95-3.05l-2.25 2.45q1.5 1.15 2.75 2.85l0.1 0.2 0.95 1.5" fill="#786f5a" fill-rule="evenodd"/>
<path d="m283.15 202.5-12.95 10-0.65-2.2-1-1.8-2.65-3.1-1.2-0.9-2.05-1.1q-3.25-1.25-5.5 0.1l-0.45 0.3q-0.75 0.55-1.2 1.4l1.15 3.2 7.3-1.8 3.85 7.95-2.05 5q1.3-0.1 2.4-0.75l1-0.8 12.4-9.25 0.45-0.35 1.15-5.9m-36.7 18.25 0.05 0.8 0.6 1.4 0.25 0.4 0.25 0.35 1.15 0.95q0.85 0.5 2.1 0.3l2.2-1.25-0.05-2.6-3.85 1.15-2.7-1.5m41.95-17.05 0.25-0.2 4.95-3.65v-0.05q0.95-1.25 0-5.1l-4.05 2.85q0.05 4.85-1.15 6.15l0.25-0.2-0.25 0.2m-18.2 8.8 0.2 1.7q0 2.4-1.25 3.8 1.25-1.4 1.25-3.8l-0.2-1.7m11.35-3.75 0.45-0.35-0.45 0.35" fill="#706754" fill-rule="evenodd"/>
<path d="m267.2 198.65-1.1-1.7-2.65 1.95-0.4 0.25 4.15-0.5m-3.75 0.25-0.4 0.25 0.4-0.25m18.55 9.5 6.4-4.7q1.2-1.3 1.15-6.15l-6.4 4.95-1.15 5.9 6.4-4.7-6.4 4.7" fill="#665e4d" fill-rule="evenodd"/>
<path d="m255.5 205.2q-0.6 1.2-0.65 2.9l0.05 0.75q0.2 2.5 1.8 5l1.15-0.85q-0.45-1-0.5-2.05 0-1.4 0.75-2.05l0.2-0.2 2.55-0.05q1.5 0.65 2.55 2.2 1.1 1.55 1.1 3.05 0.05 1.2-0.5 1.85l-0.45 0.4-2.55 0.1-1.05-0.6-1.1 0.8q1.7 1.65 3.8 2.5 1.65 0.65 3.1 0.6l2.05-5-3.85-7.95-7.3 1.8-1.15-3.2" fill="#565041" fill-rule="evenodd"/>
<path d="m253.05 223.7 2.05-1.9 0.85-0.95 1.4-1.95q0.85-1.9 1.05-1.95l0.45-0.5 1.1-0.8 1.05 0.6 2.55-0.1 0.45-0.4q0.55-0.65 0.5-1.85 0-1.5-1.1-3.05-1.05-1.55-2.55-2.2l-2.55 0.05-0.2 0.2q-0.75 0.65-0.75 2.05 0.05 1.05 0.5 2.05l1.3-1.8q1.65 0.25 2.25 1.55l-8.35 8.1-0.05 0.25 0.05 2.6m8.35-10.95q0.4 0.85 0.35 2.15-0.95 0.2-1.8 0.75 0.85-0.55 1.8-0.75 0.05-1.3-0.35-2.15" fill="#484437" fill-rule="evenodd"/>
<path d="m288.65 189.3-2.85 1.45 2.85 0.85v-2.3" fill="#e2dfd8" fill-rule="evenodd"/>
<path d="m266.1 196.95 13.85-10.1m-9.75 25.65-0.65-2.2-1-1.8m-2.65-3.1-1.2-0.9-2.05-1.1q-3.25-1.25-5.5 0.1l5.55-4.05 0.35-0.3 0.4-0.25 2.65-1.95m-8.95 6.55-0.45 0.3q-0.75 0.55-1.2 1.4-0.6 1.2-0.65 2.9l0.05 0.75q0.2 2.5 1.8 5l-0.35 0.15-1.6 0.45-0.5 0.05q-1.75 0.5-3.3 1.45l-2 1.3q-1.6 1.1-2.05 2.1-0.4 0.7-0.45 1.4l0.05 0.8 0.6 1.4 0.25 0.4 0.25 0.35 1.15 0.95q0.85 0.5 2.1 0.3l2.2-1.25 2.05-1.9 0.85-0.95 1.4-1.95q0.85-1.9 1.05-1.95l0.45-0.5q1.7 1.65 3.8 2.5 1.65 0.65 3.1 0.6 1.3-0.1 2.4-0.75l1-0.8 12.4-9.25m7.1-5.25 4.95-3.65v-0.05l6-4.45 0.95-0.4 1.35-1.3q0.9-1.3 0.9-3.3l-0.3-2.4-0.9-2.3 2.55-1.2 0.8-0.5q2.8-1.8 3.3-2.85 0.6-1.25 0.4-2.2l-0.3-0.9-0.3-0.5-0.5-0.8-1.15-0.95q-0.8-0.5-2.1-0.3-0.8 0.15-2.3 1.4l-1.95 1.8-2.25 2.45-1-0.7-1.75-0.9q-3.2-1.25-5.5 0.1l-1.25 1.15-2.85 2.1m-27.6 30.15q-0.45-1-0.5-2.05 0-1.4 0.75-2.05l0.2-0.2 2.55-0.05q1.5 0.65 2.55 2.2 1.1 1.55 1.1 3.05 0.05 1.2-0.5 1.85l-0.45 0.4-2.55 0.1-1.05-0.6q0.85-0.55 1.8-0.75 0.05-1.3-0.35-2.15-0.6-1.3-2.25-1.55l-1.3 1.8-1.15 0.85m3.25 1.8-1.1 0.8m7.05-11.05 2.65 3.1m32.1-24.35 0.95 1.5m-0.95-1.5-0.1-0.2q-1.25-1.7-2.75-2.85m-9.15 22.4-0.25 0.2-6.4 4.7-0.45 0.35m-12.4 9.25q1.25-1.4 1.25-3.8l-0.2-1.7" fill="none" stroke="#030" stroke-linecap="round" stroke-linejoin="round" stroke-opacity=".6"/>
<path d="m268.05 193.3q-0.75 2.55-0.55 4l7.5 1.35 2.5-1.8-2.05-2.5-0.1-0.05v-0.1q0.3-1.4-0.2-2.3 0.15 1.45-0.9 2.15l-1-0.25-0.8-1.1q-0.8-2.05-0.05-4.05-1.1 1.55-1.65 3.7l0.15 0.8-0.15 0.55-0.25-0.65h-0.15l0.1-0.1-1.3-3.15q0.65 2.6-0.1 4.9l-0.8 0.95-0.2-2.35m8.05 5.95 2.15 1.45 1.6-1-1.4-2.65q0.6 1.55-2.35 2.2" fill="#008040" fill-rule="evenodd"/>
<path d="m301.95 235.15q-11.7 13.2-25.2 13-13.45-0.2-30.25-17.7-16.8-17.55-14.35-33.95t17.25-27.75q14.75-11.4 30.4-15.2 15.6-3.95 28.35 12.4 12.8 16.25 9.15 36.15-3.6 19.85-15.35 33.05m-1.85-7.2q10.6-11.15 13.95-27.8 3.2-16.7-8.3-30.4-11.5-13.65-25.55-10.45-14.1 3.25-27.4 12.8-13.35 9.55-15.6 23.35-2.15 13.8 13 28.55 15.1 14.7 27.2 14.9 12.15 0.15 22.7-10.95" fill="#b97917" fill-opacity=".6" fill-rule="evenodd"/>
<path d="m301.95 235.15q-11.7 13.2-25.2 13-13.45-0.2-30.25-17.7-16.8-17.55-14.35-33.95t17.25-27.75q14.75-11.4 30.4-15.2 15.6-3.95 28.35 12.4 12.8 16.25 9.15 36.15-3.6 19.85-15.35 33.05z" fill="none" stroke="#8b5c1d" stroke-linecap="round" stroke-linejoin="round" stroke-width=".7"/>
<path d="m300.1 227.95q-10.55 11.1-22.7 10.95-12.1-0.2-27.2-14.9-15.15-14.75-13-28.55 2.25-13.8 15.6-23.35 13.3-9.55 27.4-12.8 14.05-3.2 25.55 10.45 11.5 13.7 8.3 30.4-3.35 16.65-13.95 27.8" fill="#ffa611" fill-opacity=".6" fill-rule="evenodd"/>
<path d="m264.45 181.1q-1.25 0.7-2.7 2.4-1 1.25-1.2 0.95-0.45-0.75-0.2-2.2 0.25-1.8 1.45-2.7 2.95-2.2 7.1-3.8 4.25-1.65 8.2-2.15 1.65-0.15 3.85 0.85 1.95 0.9 2.35 1.65 0.65 1.15-2.25 1.5l-4.1 0.1-5.1 0.45q-2.3 0.5-4.2 1.35l-3.2 1.6" fill="#fff" fill-opacity=".4" fill-rule="evenodd"/>
<path d="m297.5 232.2q-7.25 8.3-14.8 12.5-3 1.75-8.2-0.05-4.45-1.7-5.85-3.65-2.1-3.2 3.45-6.4 0.8-0.5 7.95-3 6.1-2.15 9.75-4.9 4.3-3.25 7.35-7.2l5.15-7.55q2.05-2.9 3.55-9.35 1.2-4.8 1.8-3.85 1.45 2.15 2.1 6.95 0.75 5.85-1 9.5-4.25 9.2-11.25 17" fill="#8b5c1d" fill-opacity=".6" fill-rule="evenodd"/>
<path d="m248.95 184.85q-3.1 2.55-6.2 8.75-2.35 4.55-2.9 3.5-1.35-2.35-1.25-7.2 0.15-5.9 3.1-9.25 7-8.4 17.1-15.05 10.55-7.05 20.65-10.05 4.05-1.3 10.1 1.35 5.2 2.35 6.45 4.55 2 3.5-5.45 5.75l-10.4 1.7q-7.95 1.25-12.95 3.35-5.9 2.5-10.45 6-0.55 0.35-7.8 6.6" fill="#fff" fill-opacity=".4" fill-rule="evenodd"/>
</g>
</defs>
</svg>
