<?xml version="1.0" encoding="UTF-8"?>
<svg version="1.1" viewBox="0 0 62.35 70.45" xmlns="http://www.w3.org/2000/svg" xmlns:cc="http://creativecommons.org/ns#" xmlns:dc="http://purl.org/dc/elements/1.1/" xmlns:rdf="http://www.w3.org/1999/02/22-rdf-syntax-ns#" xmlns:xlink="http://www.w3.org/1999/xlink">
<metadata>
<rdf:RDF>
<cc:Work rdf:about="">
<dc:format>image/svg+xml</dc:format>
<dc:type rdf:resource="http://purl.org/dc/dcmitype/StillImage"/>
</cc:Work>
</rdf:RDF>
</metadata>
<g transform="translate(-17.975 -17.975)">
<use transform="translate(18,18)" width="62.299999" height="70.400002" xlink:href="#a"/>
</g>
<defs>
<g id="a" transform="translate(-18,-18)">
<path d="m65.15 18.2-0.3 0.1 0.25-0.3 0.05 0.2m-19.1 19.75-0.1 0.2-0.5-0.3 0.6 0.1" fill="#e1e6ea" fill-rule="evenodd"/>
<path d="m65.15 18.2-0.3 0.1 0.3-0.1" fill="#eceef0" fill-rule="evenodd"/>
<path d="m64.85 18.3 0.3-0.1 12.6 37.45q-1.9-1.65-4.55 3.15-3.05 5.35-1.3 6.85 1.7 1.5 1.55 3.85-1.2 0.9-1.95 0.7-0.75-0.25-0.85-0.95l-0.4-1.45q-0.15-2.05-1.9-1.95-1.75 0.05-1.3 4.05-1.8 4.2-5.1 5.9-1.7 0.55-3.45-0.55l-0.2-0.15-12.2-36.85-0.05-0.3 18.8-19.65m-46.45 15.8 10-1.7-0.1 2.5-9.85-0.4-0.05-0.4" fill="#f5f7f8" fill-rule="evenodd"/>
<path d="m45.95 38.15 0.15 0.1 12.2 36.85 0.1 0.3q-1.55-1.95-4.1 4.05-2.05 3.25-8.75-1.35-4 0-4.25 3.75-1.1 4.05-5.7-1.15l-11-36.5-0.2-0.65-6.1-8.9 0.15-0.15 11.65 5.65 0.5-0.1-2-11.45 16.85 9.25 0.5 0.3m-15 3-0.35-1.1 0.35 1.1m12.05 4.05-14.45 4.7 14.45-4.7m1.3 2.05-4.5 1.45 4.5-1.45m-3.35 5-9.4 2.15 9.4-2.15m3.85-3.2-11.9 3 11.9-3m-9.35 1.15-5.9 1.2 5.9-1.2m10-12.35-20.85 6.35 20.85-6.35m1.4 13.55h-4.05 4.05m1.15 1.65-14.25 3.2 14.25-3.2m-1.5 2.05-7.2 1.3 7.2-1.3m-2.35 2.5-9.75 2.2 9.75-2.2m-1.1 1.9-4.75 1.35 4.75-1.35" fill="#bbbfc4" fill-rule="evenodd"/>
<path d="m46.05 37.95-0.6-0.1-16.85-9.25v-0.1l36.25-10.2-18.8 19.65" fill="#fff" fill-rule="evenodd"/>
<path d="m58.3 75.1 0.2 0.15q1.75 1.1 3.45 0.55 3.3-1.7 5.1-5.9-0.45-4 1.3-4.05 1.75-0.1 1.9 1.95l0.4 1.45q0.1 0.7 0.85 0.95 0.75 0.2 1.95-0.7 0.15-2.35-1.55-3.85-1.75-1.5 1.3-6.85 2.65-4.8 4.55-3.15l2.55 7.7-19.35 19.8-2.55-7.75-0.1-0.3m0.2 0.15-0.1 0.15 0.1-0.15" fill="#91b3d5" fill-rule="evenodd"/>
<path d="m35.6 80.7q4.6 5.2 5.7 1.15 0.25-3.75 4.25-3.75 6.7 4.6 8.75 1.35 2.55-6 4.1-4.05l2.55 7.75-0.55 0.6 0.1 0.55-22.55 4.1-2.35-7.7" fill="#2f557b" fill-rule="evenodd"/>
<path d="m28.6 28.6 2 11.45-0.5 0.1-11.65-5.65 9.85 0.4 0.1-2.5 0.2-3.8" fill="#363f49" fill-rule="evenodd"/>
<path d="m18.3 34.65-0.3-0.45 0.4-0.1 0.05 0.4-0.15 0.15" fill="#c5cbd3" fill-rule="evenodd"/>
<path d="m64.85 18.3 0.25-0.3 0.05 0.2m-19.05 20.05-0.05-0.3m-0.1 0.2 0.15 0.1 12.2 36.85 0.2 0.15q1.75 1.1 3.45 0.55 3.3-1.7 5.1-5.9-0.45-4 1.3-4.05 1.75-0.1 1.9 1.95l0.4 1.45q0.1 0.7 0.85 0.95 0.75 0.2 1.95-0.7 0.15-2.35-1.55-3.85-1.75-1.5 1.3-6.85 2.65-4.8 4.55-3.15l-12.6-37.45m-19.7 19.65 0.5 0.3m-0.5-0.3-16.85-9.25 2 11.45 0.35 1.1m4.65 39.55q4.6 5.2 5.7 1.15 0.25-3.75 4.25-3.75 6.7 4.6 8.75 1.35 2.55-6 4.1-4.05l-0.1-0.3m0.1 0.3 0.1-0.15m19.25-19.6 2.55 7.7-19.35 19.8 0.35 1-0.8 0.15-22.55 4.1-2.35-7.7-11-36.5-0.2-0.65-6.1-8.9-0.3-0.45 0.4-0.1 10-1.7 0.2-3.8-0.1-0.1h0.1l36.25-10.2-18.8 19.65m14.35 45.8 0.55-0.6-2.55-7.75m-29.8-46.9v0.1m0.95 22.8 5.9-1.2m-2.55 1.85 11.9-3m-13.25 5.35 9.4-2.15m-1.15-3.55 4.5-1.45m-15.75 2.65 14.45-4.7m-24.55-10.7 9.85 0.4 0.1-2.5m1.7 7.75-11.65-5.65m19.85 26.35 4.75-1.35m-8.65 0.3 9.75-2.2m-4.85-1.2 7.2-1.3m-12.75 1.15 14.25-3.2m-5.2-1.65h4.05m-22.25-7.2 20.85-6.35" fill="none" stroke="#000" stroke-linecap="round" stroke-linejoin="round" stroke-opacity=".12157" stroke-width=".05"/>
<path d="m59.35 46-0.8-8.1q0-2.1 0.4-4.2l0.15-0.15 0.35 0.5q0.25 0.55-0.1-0.35 2.2 3.25 3.65 6.2l2.9 1.35-0.05-0.25-1.05-1.6q0.95-1.85 0.35-5.25v-1l0.1-0.15 0.05 0.35q2.35 2.55 3.1 6.5 0.85 4.05-0.1 6.7-1.2-1.1-2.5-1.4l-1 3-1.65 0.3-0.15 0.05q-0.6 2.65-0.15 6.1l0.3 1.1-1.7 0.4q-2.5-2.15-3.75-5.85-1.15-3.5-0.75-4.25l3.95 4.4 0.05-0.15-0.3-4.15-1.3-0.1m1.75 4.65-0.2-0.25 0.2 0.25" fill="#f90" fill-rule="evenodd"/>
<path d="m59.35 33.7q1.5 0.2 3 2.6l2.45 3.1 1.05 1.6 0.05 0.25-2.9-1.35q-1.45-2.95-3.65-6.2m5.9-0.7 3.4 2.55q1.3 3.1 1.45 5.85l-0.55 6.7-0.45-0.7-0.8-0.85q0.95-2.65 0.1-6.7-0.75-3.95-3.1-6.5l-0.05-0.35m-8.3 13q0.15-0.3 0.55-0.15l1.85 0.15 1.3 0.1 0.3 4.15-0.05 0.15-3.95-4.4" fill="#b16a01" fill-rule="evenodd"/>
<path d="m68.7 58.35-0.3 0.45-0.4 0.4-1.25 1.1-1.65 0.05q-1-3.05-1.95-4.65l-0.3-1.1q-0.45-3.45 0.15-6.1l0.15-0.05 2.3 0.55 0.9-2.65q0.7 0 1.55 1 1.8 2.5 1.65 6.25 0.1 2.95-0.85 4.75m-1.8-8.95-0.05 0.05q-0.35 0.3-0.35 1.2 0 0.8 0.3 1.65l0.05 0.15q0.25 0.9 0.75 1.3 0.4 0.35 0.75 0l0.05-0.05 0.25-1.15-0.3-1.8q-0.3-0.95-0.8-1.3l-0.65-0.05m-1.05 6.95 0.35-1.25-0.25-1.7q-0.3-0.9-0.8-1.25l-0.75 0.05q-0.35 0.35-0.4 1.25l0.35 1.75 0.05 0.1q0.25 0.8 0.65 1.1l0.7 0.05 0.1-0.1" fill="#f2e995" fill-rule="evenodd"/>
<path d="m66.8 52.3q-0.3-0.85-0.3-1.65 0-0.9 0.35-1.2l0.05-0.05 0.45 0.5 0.2 0.3q-0.8 0.55-0.75 2.1m-2.45 2.9-0.35-1.75q0.05-0.9 0.4-1.25l0.85 0.8q-0.9 0.15-0.9 2.25v-0.05" fill="#f1f1e2" fill-rule="evenodd"/>
<path d="m66.9 49.4 0.65 0.05q0.5 0.35 0.8 1.3l0.3 1.8-0.25 1.15-0.05-1q-0.15-1.45-0.8-2.5l-0.2-0.3-0.45-0.5m-2.5 2.8 0.75-0.05q0.5 0.35 0.8 1.25l0.25 1.7-0.35 1.25h-0.05q0.1-2.25-0.55-3.35l-0.85-0.8" fill="#bdac17" fill-rule="evenodd"/>
<path d="m68.4 53.7-0.05 0.05q-0.35 0.35-0.75 0-0.5-0.4-0.75-1.3l-0.05-0.15q-0.05-1.55 0.75-2.1 0.65 1.05 0.8 2.5l0.05 1m-2.55 2.65-0.1 0.1-0.7-0.05q-0.4-0.3-0.65-1.1l-0.05-0.1v0.05l0.05 0.05-0.05-0.05q0-2.1 0.9-2.25 0.65 1.1 0.55 3.35h0.05m-0.05 0-0.05 0.1 0.05-0.1" fill="#fff" fill-rule="evenodd"/>
<path d="m69.55 48.1 1.4 6.6q-0.3 1.65-2.25 3.65 0.95-1.8 0.85-4.75 0.15-3.75-1.65-6.25-0.85-1-1.55-1l-0.9 2.65-2.3-0.55 1.65-0.3 1-3q1.3 0.3 2.5 1.4l0.8 0.85 0.45 0.7" fill="#d9ba73" fill-rule="evenodd"/>
<path d="m59.35 46-0.8-8.1q0-2.1 0.4-4.2l0.15-0.15 0.35 0.5q0.25 0.55-0.1-0.35 1.5 0.2 3 2.6l2.45 3.1q0.95-1.85 0.35-5.25v-1l0.1-0.15 3.4 2.55q1.3 3.1 1.45 5.85l-0.55 6.7 1.4 6.6q-0.3 1.65-2.25 3.65l-0.3 0.45-0.4 0.4-1.25 1.1-1.65 0.05q-1-3.05-1.95-4.65l-1.7 0.4q-2.5-2.15-3.75-5.85-1.15-3.5-0.75-4.25 0.15-0.3 0.55-0.15l1.85 0.15 1.3 0.1m0.25 4.3 0.2 0.25m3.7-11.25 1.05 1.6m-2.7 14.7-0.3-1.1q-0.45-3.45 0.15-6.1l0.15-0.05 1.65-0.3 1-3q1.3 0.3 2.5 1.4l0.8 0.85 0.45 0.7m-2.75 4.2q-0.3-0.85-0.3-1.65 0-0.9 0.35-1.2l0.05-0.05 0.65 0.05q0.5 0.35 0.8 1.3l0.3 1.8-0.25 1.15-0.05 0.05q-0.35 0.35-0.75 0-0.5-0.4-0.75-1.3l-0.05-0.15m0.75-2.1-0.2-0.3-0.45-0.5m-2.5 2.8 0.75-0.05q0.5 0.35 0.8 1.25l0.25 1.7-0.35 1.25-0.1 0.1-0.7-0.05q-0.4-0.3-0.65-1.1l-0.05-0.1-0.35-1.75q0.05-0.9 0.4-1.25l0.85 0.8q0.65 1.1 0.55 3.35m2.6-2.65-0.05-1q-0.15-1.45-0.8-2.5m-3.15 5.1-0.05-0.05m1.4 1.2 0.05-0.1" fill="none" stroke="#000" stroke-linecap="round" stroke-linejoin="round" stroke-opacity=".12157" stroke-width=".05"/>
</g>
</defs>
</svg>
