<?xml version="1.0" encoding="UTF-8" standalone="no"?>
<!DOCTYPE svg PUBLIC "-//W3C//DTD SVG 1.1//EN" "http://www.w3.org/Graphics/SVG/1.1/DTD/svg11.dtd">
<svg width="100%" height="100%" viewBox="0 0 1184 1716" version="1.1" xmlns="http://www.w3.org/2000/svg" xmlns:xlink="http://www.w3.org/1999/xlink" xml:space="preserve" xmlns:serif="http://www.serif.com/" style="fill-rule:evenodd;clip-rule:evenodd;stroke-linecap:round;stroke-linejoin:round;">
    <g transform="matrix(1,0,0,1,-2726.5,-2928)">
        <g transform="matrix(10,0,0,10,2731.5,2878.5)">
            <g id="sprite0">
                <g id="sprite1" transform="matrix(1.5719,0,0,1.5719,60.1,126)">
                    <g id="shape0">
                        <path d="M15.9,-11.35L16.15,-11.65C17.217,-12.817 17.75,-14.233 17.75,-15.9C17.75,-17.567 17.217,-18.983 16.15,-20.15C15.117,-21.317 13.85,-21.9 12.35,-21.9L11.3,-21.8C10.233,-21.6 9.3,-21.05 8.5,-20.15L8.1,-19.65C7.733,-19.15 7.467,-18.6 7.3,-18C7.067,-17.367 6.95,-16.667 6.95,-15.9C6.95,-14.633 7.25,-13.5 7.85,-12.5L8.5,-11.65C9.1,-10.983 9.8,-10.5 10.6,-10.2L9.6,-8.85L-12.65,21.85L-13.15,21.4C-13.583,21.067 -13.683,21.133 -13.45,21.6C-13.683,21.133 -13.583,21.067 -13.15,21.4L-12.65,21.85L-12.65,21.9L-12.8,22.1L-12.9,21.9C-14.8,21.833 -16.017,21.567 -16.55,21.1L-17.55,20.2C-17.917,19.8 -18.067,19.317 -18,18.75L-18.05,18.6L-18,18.65L-15.55,18.55C-14.15,17.583 -12.967,16.45 -12,15.15L-9.35,11.55L-7.55,9.75C-7.283,9.583 -7.217,10 -7.35,11C-7.517,12 -6.167,10.517 -3.3,6.55C-0.467,2.617 1.9,-0.883 3.8,-3.95C5.467,-6.65 6.583,-8.667 7.15,-10C6.517,-10.367 6.1,-11 5.9,-11.9C5.567,-13.233 5.4,-14.5 5.4,-15.7L5.4,-16.4C5.667,-17.267 6.083,-18.1 6.65,-18.9L6.8,-19.05L8.5,-20.85L10.1,-21.8C11.4,-22.233 12.933,-22.117 14.7,-21.45C17.233,-20.517 18.333,-18.467 18,-15.3C17.733,-13.133 17.033,-11.817 15.9,-11.35M-13.45,21.6L-13.15,21.4L-12.9,21.9L-13.15,21.4L-13.45,21.6M-3.45,-0.15C-2.417,-1.283 -1.433,-2.733 -0.5,-4.5L1.95,-9C1.383,-6.3 0.383,-3.733 -1.05,-1.3C-2.35,0.833 -3.75,2.733 -5.25,4.4L-4.75,3.65C-4.117,2.417 -3.683,1.15 -3.45,-0.15M-12.65,21.9L-12.9,21.9L-12.65,21.9" style="fill:#58382b;"/>
                        <path d="M11.3,-19.6L11.1,-19.35L10.7,-18.55C10.567,-18.25 10.55,-17.8 10.65,-17.2C10.717,-16.6 11.35,-16.167 12.55,-15.9C13.05,-16.433 13.483,-17.05 13.85,-17.75L13.95,-17.9L14.05,-15.65L15.05,-15.55C15.517,-16.117 15.75,-16.783 15.75,-17.55C15.75,-18.35 15.5,-19.033 15,-19.6C14.467,-20.167 13.85,-20.45 13.15,-20.45C12.417,-20.45 11.8,-20.167 11.3,-19.6M15.7,-11.15L16.55,-13.05L15.35,-12.15L16.2,-14.15L15.55,-13.05C15.083,-12.817 14.617,-12.633 14.15,-12.5C12.883,-12.167 11.617,-12.3 10.35,-12.9C9.083,-13.567 8.317,-14.6 8.05,-16C7.817,-17.333 8.067,-18.533 8.8,-19.6C9.5,-20.733 10.517,-21.417 11.85,-21.65L13.35,-21.8L11.3,-21.8L12.35,-21.9C13.85,-21.9 15.117,-21.317 16.15,-20.15C17.217,-18.983 17.75,-17.567 17.75,-15.9C17.75,-14.233 17.217,-12.817 16.15,-11.65L15.9,-11.35L15.7,-11.15" style="fill:#fc3;"/>
                        <path d="M11.3,-21.8L13.35,-21.8L11.85,-21.65C10.517,-21.417 9.5,-20.733 8.8,-19.6C8.067,-18.533 7.817,-17.333 8.05,-16C8.317,-14.6 9.083,-13.567 10.35,-12.9C11.617,-12.3 12.883,-12.167 14.15,-12.5C14.617,-12.633 15.083,-12.817 15.55,-13.05L16.2,-14.15L15.35,-12.15L16.55,-13.05L15.7,-11.15C14.733,-10.317 13.617,-9.9 12.35,-9.9L10.6,-10.2C9.8,-10.5 9.1,-10.983 8.5,-11.65L7.85,-12.5C7.25,-13.5 6.95,-14.633 6.95,-15.9C6.95,-16.667 7.067,-17.367 7.3,-18C7.467,-18.6 7.733,-19.15 8.1,-19.65L8.5,-20.15C9.3,-21.05 10.233,-21.6 11.3,-21.8" style="fill:#a87e00;"/>
                        <path d="M5.4,-16.4L5.4,-15.7C5.4,-14.5 5.567,-13.233 5.9,-11.9C6.1,-11 6.517,-10.367 7.15,-10C6.583,-8.667 5.467,-6.65 3.8,-3.95C1.9,-0.883 -0.467,2.617 -3.3,6.55C-6.167,10.517 -7.517,12 -7.35,11C-7.217,10 -7.283,9.583 -7.55,9.75L-9.35,11.55L-12,15.15C-12.967,16.45 -14.15,17.583 -15.55,18.55L-18,18.65L-16.65,16L-15.6,14.45L-15.8,14.8L-7.15,3.65L-6.95,3.35C-6.717,2.983 -5.883,2.167 -4.45,0.9L-3.45,-0.15C-3.683,1.15 -4.117,2.417 -4.75,3.65L-5.25,4.4C-3.75,2.733 -2.35,0.833 -1.05,-1.3C0.383,-3.733 1.383,-6.3 1.95,-9L3,-10.85C4.067,-12.717 4.85,-14.5 5.35,-16.2L5.4,-16.4" style="fill:#a1664c;"/>
                        <path d="M11.3,-19.6C11.8,-20.167 12.417,-20.45 13.15,-20.45C13.85,-20.45 14.467,-20.167 15,-19.6C15.5,-19.033 15.75,-18.35 15.75,-17.55C15.75,-16.783 15.517,-16.117 15.05,-15.55L14.05,-15.65L13.95,-17.9L13.85,-17.75C13.483,-17.05 13.05,-16.433 12.55,-15.9C11.35,-16.167 10.717,-16.6 10.65,-17.2C10.55,-17.8 10.567,-18.25 10.7,-18.55L11.1,-19.35L11.3,-19.6" style="fill:#ffe9b5;"/>
                        <path d="M15.7,-11.15L15.9,-11.35L16.15,-11.65C17.217,-12.817 17.75,-14.233 17.75,-15.9C17.75,-17.567 17.217,-18.983 16.15,-20.15C15.117,-21.317 13.85,-21.9 12.35,-21.9L11.3,-21.8C10.233,-21.6 9.3,-21.05 8.5,-20.15L8.1,-19.65C7.733,-19.15 7.467,-18.6 7.3,-18C7.067,-17.367 6.95,-16.667 6.95,-15.9C6.95,-14.633 7.25,-13.5 7.85,-12.5L8.5,-11.65C9.1,-10.983 9.8,-10.5 10.6,-10.2L12.35,-9.9C13.617,-9.9 14.733,-10.317 15.7,-11.15M15.9,-11.35C17.033,-11.817 17.733,-13.133 18,-15.3C18.333,-18.467 17.233,-20.517 14.7,-21.45C12.933,-22.117 11.4,-22.233 10.1,-21.8L8.5,-20.85L6.8,-19.05L6.65,-18.9C6.083,-18.1 5.667,-17.267 5.4,-16.4L5.35,-16.2C4.85,-14.5 4.067,-12.717 3,-10.85L1.95,-9L-0.5,-4.5C-1.433,-2.733 -2.417,-1.283 -3.45,-0.15L-4.45,0.9C-5.883,2.167 -6.717,2.983 -6.95,3.35L-7.15,3.65L-15.8,14.8L-15.6,14.45L-16.65,16L-18,18.65M-17.55,20.2L-16.55,21.1C-16.017,21.567 -14.8,21.833 -12.9,21.9L-12.65,21.9M-13.45,21.6C-13.683,21.133 -13.583,21.067 -13.15,21.4L-12.65,21.85" style="fill:none;fill-rule:nonzero;stroke:#58382b;stroke-width:0.1px;"/>
                        <path d="M-12.9,21.9L-13.15,21.4L-13.45,21.6M-12.65,21.85L9.6,-8.85L10.6,-10.2M-12.65,21.9L-12.65,21.85" style="fill:none;fill-rule:nonzero;stroke:#58382b;stroke-width:0.1px;"/>
                        <path d="M13.2,-19.05C13.233,-19.383 13.383,-19.65 13.65,-19.85C13.917,-20.05 14.217,-20.133 14.55,-20.1L15.35,-19.65C15.55,-19.383 15.633,-19.083 15.6,-18.75L15.15,-17.95C14.883,-17.75 14.583,-17.667 14.25,-17.7L13.45,-18.15C13.25,-18.417 13.167,-18.717 13.2,-19.05" style="fill:#fff2df;"/>
                    </g>
                </g>
                <g id="shape1">
                    <path d="M55.7,5.65L63.5,5.45C73.433,5.483 82.183,6.283 89.75,7.85C99.383,9.817 104.25,12.467 104.35,15.8L104.45,16.45L104.2,17.3L91.75,60.85L90.8,63.4L90.9,63.9L89.95,67.9C88.45,70.1 85.517,72.033 81.15,73.7L74.7,75.65C74.367,73.717 73.85,71.817 73.15,69.95C71.05,64.717 73.133,60.333 79.4,56.8C80.2,53.167 77.567,50.25 71.5,48.05C77.067,49.55 80.817,47.533 82.75,42C84.25,37.767 83.117,35.8 79.35,36.1C81.15,35.7 82.433,34.517 83.2,32.55C84.367,29.95 84.85,27.867 84.65,26.3C84.117,23 80.533,21.833 73.9,22.8L77.35,17.05C72.517,12.817 66.983,12.4 60.75,15.8C62.517,13.733 63.417,11.6 63.45,9.4C60.717,8.267 58.133,7.017 55.7,5.65M104.2,17.3C102.933,20.067 98.333,22.583 90.4,24.85L84.65,26.3L90.4,24.85C98.333,22.583 102.933,20.067 104.2,17.3" style="fill:#825a33;"/>
                    <path d="M41.85,6.55L54.65,5.65L55.7,5.65C58.133,7.017 60.717,8.267 63.45,9.4C63.417,11.6 62.517,13.733 60.75,15.8C66.983,12.4 72.517,12.817 77.35,17.05L73.9,22.8C80.533,21.833 84.117,23 84.65,26.3C84.85,27.867 84.367,29.95 83.2,32.55C82.433,34.517 81.15,35.7 79.35,36.1C83.117,35.8 84.25,37.767 82.75,42C80.817,47.533 77.067,49.55 71.5,48.05C77.567,50.25 80.2,53.167 79.4,56.8C73.133,60.333 71.05,64.717 73.15,69.95C73.85,71.817 74.367,73.717 74.7,75.65C69.6,76.917 63.85,77.5 57.45,77.4L55.25,76.95L65.25,29.05L65.4,29.15L41.85,6.55M84.65,26.3C78.85,27.6 72.433,28.55 65.4,29.15C72.433,28.55 78.85,27.6 84.65,26.3" style="fill:#b9874a;"/>
                    <path d="M91.75,60.85C94.583,63.617 96,66.017 96,68.05C96,70.717 94.8,73.15 92.4,75.35C90.533,77.083 87.9,78.683 84.5,80.15L83.85,80.35C76.45,83.417 67.683,85 57.55,85.1L56.9,77.35L57.45,77.4C63.85,77.5 69.6,76.917 74.7,75.65L81.15,73.7C85.517,72.033 88.45,70.1 89.95,67.9C90.517,66.867 90.817,65.75 90.85,64.55L90.95,64.45L90.9,63.9L91.05,63.6L91.75,60.85" style="fill:#9898cc;fill-opacity:0.7;"/>
                    <path d="M27.7,8.65C32.033,7.75 36.75,7.05 41.85,6.55L65.4,29.15L65.25,29.05L53.6,29.65L65.25,29.05L55.25,76.95L57.45,77.4L56.9,77.35L50,77.05C46.067,76.75 42.433,76.167 39.1,75.3L33.85,73.6L32.1,72.85L13.85,25.3C15.917,26.067 18.5,26.767 21.6,27.4L24.9,28.05L33.45,28.8L35.75,43.2L35.75,29L36.8,24.1L35.15,26.4L33.8,24.65C31.567,21.517 29.533,16.183 27.7,8.65M90.8,63.4L91.75,60.85L90.9,63.5L90.8,63.4M53.6,27.15L53.6,29.65C53.5,34.617 53.167,39.4 52.6,44C53.167,39.4 53.5,34.617 53.6,29.65L53.6,27.15M36.7,72.75C34.167,65.75 31.517,56.933 28.75,46.3C26.15,36.233 24.867,30.15 24.9,28.05C24.867,30.15 26.15,36.233 28.75,46.3C31.517,56.933 34.167,65.75 36.7,72.75M35.9,47.4L35.75,43.2L35.9,47.4M50,77.05C50.4,75.183 51.233,71.883 52.5,67.15C54.467,59.75 55.833,55.333 56.6,53.9C55.833,55.333 54.467,59.75 52.5,67.15C51.233,71.883 50.4,75.183 50,77.05M42.6,16.05L36.8,24.1L42.6,16.05M53.6,29.65L35.75,29L53.6,29.65M41.6,38.35L39.1,75.3L41.6,38.35" style="fill:#d2b88c;"/>
                    <path d="M91.75,60.85L91.05,63.6L90.9,63.5L91.75,60.85" style="fill:#990;"/>
                    <path d="M22.35,60.6L7.9,21.9C7.233,21.167 6.867,20.35 6.8,19.45C6.667,16.083 11.383,13.05 20.95,10.35L27.7,8.65C29.533,16.183 31.567,21.517 33.8,24.65L35.15,26.4L33.45,28.8L24.9,28.05L21.6,27.4C18.5,26.767 15.917,26.067 13.85,25.3C11.017,24.3 9.033,23.167 7.9,21.9C9.033,23.167 11.017,24.3 13.85,25.3L32.1,72.85C27.633,70.817 25.05,68.483 24.35,65.85L22.35,60.6" style="fill:#dbc5a4;"/>
                    <path d="M35.15,26.4L36.8,24.1L35.75,29L35.75,43.2L33.45,28.8L35.15,26.4" style="fill:#a57341;"/>
                    <path d="M22.85,76.75C19.117,74.217 17.283,71.25 17.35,67.85C17.217,65.583 18.883,63.167 22.35,60.6L24.35,65.85C25.05,68.483 27.633,70.817 32.1,72.85L33.85,73.6L39.1,75.3C42.433,76.167 46.067,76.75 50,77.05L56.9,77.35L57.55,85.1L56.6,85.15C45.733,85.15 36.483,83.45 28.85,80.05C26.45,79.017 24.45,77.917 22.85,76.75M49.7,78.75L50,77.05L49.7,78.75" style="fill:#9999cb;fill-opacity:0.5;"/>
                    <path d="M84.65,26.3L90.4,24.85C98.333,22.583 102.933,20.067 104.2,17.3M65.25,29.05L65.4,29.15C72.433,28.55 78.85,27.6 84.65,26.3M53.6,29.65L65.25,29.05M33.45,28.8L35.75,43.2L35.75,29L36.8,24.1L35.15,26.4L33.45,28.8L24.9,28.05L21.6,27.4C18.5,26.767 15.917,26.067 13.85,25.3C11.017,24.3 9.033,23.167 7.9,21.9M35.75,43.2L35.9,47.4M39.1,75.3L41.6,38.35M35.75,29L53.6,29.65M36.8,24.1L42.6,16.05" style="fill:none;fill-rule:nonzero;stroke:#003200;stroke-opacity:0.5;stroke-width:0.05px;"/>
                    <path d="M55.7,5.65L63.5,5.45C73.433,5.483 82.183,6.283 89.75,7.85C99.383,9.817 104.25,12.467 104.35,15.8L104.45,16.45L104.2,17.3L91.75,60.85M22.35,60.6L7.9,21.9C7.233,21.167 6.867,20.35 6.8,19.45C6.667,16.083 11.383,13.05 20.95,10.35L27.7,8.65C32.033,7.75 36.75,7.05 41.85,6.55L54.65,5.65L55.7,5.65" style="fill:none;fill-rule:nonzero;stroke:#960;stroke-width:1px;"/>
                    <path d="M74.7,75.65L81.15,73.7C85.517,72.033 88.45,70.1 89.95,67.9C90.517,66.867 90.817,65.75 90.85,64.55L90.95,64.45L90.9,63.9M92.4,75.35C90.533,77.083 87.9,78.683 84.5,80.15L83.85,80.35C76.45,83.417 67.683,85 57.55,85.1L56.6,85.15C45.733,85.15 36.483,83.45 28.85,80.05C26.45,79.017 24.45,77.917 22.85,76.75M57.45,77.4C63.85,77.5 69.6,76.917 74.7,75.65M32.1,72.85C27.633,70.817 25.05,68.483 24.35,65.85M50,77.05C46.067,76.75 42.433,76.167 39.1,75.3L33.85,73.6L32.1,72.85M50,77.05L56.9,77.35L57.45,77.4" style="fill:none;fill-rule:nonzero;stroke:#67afaf;stroke-width:0.05px;"/>
                    <path d="M89.95,67.9L90.9,63.9L91.05,63.6L91.75,60.85M24.35,65.85L22.35,60.6" style="fill:none;fill-rule:nonzero;stroke:#960;stroke-width:0.05px;"/>
                    <path d="M91.75,60.85C94.583,63.617 96,66.017 96,68.05C96,70.717 94.8,73.15 92.4,75.35C95.067,77.15 97.683,79.217 100.25,81.55C111.65,92.25 117.35,105.183 117.35,120.35C117.25,135.45 111.533,148.333 100.2,159C87.9,170.367 74,176.05 58.5,176.05C51.1,176.05 44.133,174.717 37.6,172.05C30.3,169.217 23.5,164.783 17.2,158.75C5.7,148.083 -0.033,135.2 0,120.1C0.033,104.967 5.817,92.067 17.35,81.4C19.05,79.733 20.883,78.183 22.85,76.75C19.117,74.217 17.283,71.25 17.35,67.85C17.217,65.583 18.883,63.167 22.35,60.6" style="fill:none;fill-rule:nonzero;stroke:#67afaf;stroke-width:1px;"/>
                    <path d="M53.6,29.65C53.5,34.617 53.167,39.4 52.6,44M53.6,29.65L53.6,27.15M24.9,28.05C24.867,30.15 26.15,36.233 28.75,46.3C31.517,56.933 34.167,65.75 36.7,72.75M56.6,53.9C55.833,55.333 54.467,59.75 52.5,67.15C51.233,71.883 50.4,75.183 50,77.05L49.7,78.75" style="fill:none;fill-rule:nonzero;stroke:#b9874a;stroke-opacity:0.5;stroke-width:0.05px;"/>
                </g>
                <g id="shape2" transform="matrix(-0.6712,-0.5337,-0.5337,0.6712,100.1,14.25)">
                    <path d="M26.4,22.9C26.233,23.133 25.967,23.283 25.6,23.35C24.567,23.55 22.917,23.067 20.65,21.9C17.55,20.333 14.2,18 10.6,14.9C7,11.833 4.2,8.883 2.2,6.05C0.467,3.65 -0.25,1.95 0.05,0.95L0.15,0.65L0.3,0.5C1.067,-0.4 2.983,-0.067 6.05,1.5C9.15,3.067 12.5,5.4 16.1,8.5C19.7,11.6 22.517,14.55 24.55,17.35C26.55,20.15 27.167,22 26.4,22.9" style="fill:#6d532c;"/>
                    <path d="M26.4,22.9C26.233,23.133 25.967,23.283 25.6,23.35C24.567,23.55 22.917,23.067 20.65,21.9C17.55,20.333 14.2,18 10.6,14.9C7,11.833 4.2,8.883 2.2,6.05C0.467,3.65 -0.25,1.95 0.05,0.95L0.15,0.65L0.3,0.5C1.067,-0.4 2.983,-0.067 6.05,1.5C9.15,3.067 12.5,5.4 16.1,8.5C19.7,11.6 22.517,14.55 24.55,17.35C26.55,20.15 27.167,22 26.4,22.9Z" style="fill:none;fill-rule:nonzero;stroke:#960;stroke-width:0.05px;"/>
                </g>
                <g id="shape21" serif:id="shape2" transform="matrix(-0.3193,-0.2539,-0.2539,0.3193,73.4,23.2)">
                    <path d="M26.4,22.9C26.233,23.133 25.967,23.283 25.6,23.35C24.567,23.55 22.917,23.067 20.65,21.9C17.55,20.333 14.2,18 10.6,14.9C7,11.833 4.2,8.883 2.2,6.05C0.467,3.65 -0.25,1.95 0.05,0.95L0.15,0.65L0.3,0.5C1.067,-0.4 2.983,-0.067 6.05,1.5C9.15,3.067 12.5,5.4 16.1,8.5C19.7,11.6 22.517,14.55 24.55,17.35C26.55,20.15 27.167,22 26.4,22.9" style="fill:#6d532c;"/>
                    <path d="M26.4,22.9C26.233,23.133 25.967,23.283 25.6,23.35C24.567,23.55 22.917,23.067 20.65,21.9C17.55,20.333 14.2,18 10.6,14.9C7,11.833 4.2,8.883 2.2,6.05C0.467,3.65 -0.25,1.95 0.05,0.95L0.15,0.65L0.3,0.5C1.067,-0.4 2.983,-0.067 6.05,1.5C9.15,3.067 12.5,5.4 16.1,8.5C19.7,11.6 22.517,14.55 24.55,17.35C26.55,20.15 27.167,22 26.4,22.9Z" style="fill:none;fill-rule:nonzero;stroke:#960;stroke-width:0.05px;"/>
                </g>
                <g id="shape22" serif:id="shape2" transform="matrix(-0.2665,-0.2119,-0.2119,0.2665,30.2,19.7)">
                    <path d="M26.4,22.9C26.233,23.133 25.967,23.283 25.6,23.35C24.567,23.55 22.917,23.067 20.65,21.9C17.55,20.333 14.2,18 10.6,14.9C7,11.833 4.2,8.883 2.2,6.05C0.467,3.65 -0.25,1.95 0.05,0.95L0.15,0.65L0.3,0.5C1.067,-0.4 2.983,-0.067 6.05,1.5C9.15,3.067 12.5,5.4 16.1,8.5C19.7,11.6 22.517,14.55 24.55,17.35C26.55,20.15 27.167,22 26.4,22.9" style="fill:#6d532c;"/>
                    <path d="M26.4,22.9C26.233,23.133 25.967,23.283 25.6,23.35C24.567,23.55 22.917,23.067 20.65,21.9C17.55,20.333 14.2,18 10.6,14.9C7,11.833 4.2,8.883 2.2,6.05C0.467,3.65 -0.25,1.95 0.05,0.95L0.15,0.65L0.3,0.5C1.067,-0.4 2.983,-0.067 6.05,1.5C9.15,3.067 12.5,5.4 16.1,8.5C19.7,11.6 22.517,14.55 24.55,17.35C26.55,20.15 27.167,22 26.4,22.9Z" style="fill:none;fill-rule:nonzero;stroke:#960;stroke-width:0.05px;"/>
                </g>
                <g id="shape23" serif:id="shape2" transform="matrix(-0.3193,-0.2539,-0.2539,0.3193,74.15,9.85)">
                    <path d="M26.4,22.9C26.233,23.133 25.967,23.283 25.6,23.35C24.567,23.55 22.917,23.067 20.65,21.9C17.55,20.333 14.2,18 10.6,14.9C7,11.833 4.2,8.883 2.2,6.05C0.467,3.65 -0.25,1.95 0.05,0.95L0.15,0.65L0.3,0.5C1.067,-0.4 2.983,-0.067 6.05,1.5C9.15,3.067 12.5,5.4 16.1,8.5C19.7,11.6 22.517,14.55 24.55,17.35C26.55,20.15 27.167,22 26.4,22.9" style="fill:#6d532c;"/>
                    <path d="M26.4,22.9C26.233,23.133 25.967,23.283 25.6,23.35C24.567,23.55 22.917,23.067 20.65,21.9C17.55,20.333 14.2,18 10.6,14.9C7,11.833 4.2,8.883 2.2,6.05C0.467,3.65 -0.25,1.95 0.05,0.95L0.15,0.65L0.3,0.5C1.067,-0.4 2.983,-0.067 6.05,1.5C9.15,3.067 12.5,5.4 16.1,8.5C19.7,11.6 22.517,14.55 24.55,17.35C26.55,20.15 27.167,22 26.4,22.9Z" style="fill:none;fill-rule:nonzero;stroke:#960;stroke-width:0.05px;"/>
                </g>
                <g id="shape24" serif:id="shape2" transform="matrix(-0.5619,-0.4467,-0.4467,0.5619,57.2,13.4)">
                    <path d="M26.4,22.9C26.233,23.133 25.967,23.283 25.6,23.35C24.567,23.55 22.917,23.067 20.65,21.9C17.55,20.333 14.2,18 10.6,14.9C7,11.833 4.2,8.883 2.2,6.05C0.467,3.65 -0.25,1.95 0.05,0.95L0.15,0.65L0.3,0.5C1.067,-0.4 2.983,-0.067 6.05,1.5C9.15,3.067 12.5,5.4 16.1,8.5C19.7,11.6 22.517,14.55 24.55,17.35C26.55,20.15 27.167,22 26.4,22.9" style="fill:#6d532c;"/>
                    <path d="M26.4,22.9C26.233,23.133 25.967,23.283 25.6,23.35C24.567,23.55 22.917,23.067 20.65,21.9C17.55,20.333 14.2,18 10.6,14.9C7,11.833 4.2,8.883 2.2,6.05C0.467,3.65 -0.25,1.95 0.05,0.95L0.15,0.65L0.3,0.5C1.067,-0.4 2.983,-0.067 6.05,1.5C9.15,3.067 12.5,5.4 16.1,8.5C19.7,11.6 22.517,14.55 24.55,17.35C26.55,20.15 27.167,22 26.4,22.9Z" style="fill:none;fill-rule:nonzero;stroke:#960;stroke-width:0.05px;"/>
                </g>
                <g id="shape3">
                    <path d="M22.9,76.6C24.5,77.733 26.5,78.8 28.9,79.8C36.533,83.2 45.783,84.917 56.65,84.95L57.6,84.9L57.8,86.1L77.8,118.8L76.75,154.6L62.55,168.5L37.65,171.85C30.317,169.017 23.517,164.583 17.25,158.55C5.75,147.917 0.017,135.017 0.05,119.85C0.083,104.717 5.883,91.817 17.45,81.15C19.117,79.483 20.933,77.967 22.9,76.6" style="fill:#9999cb;fill-opacity:0.5;"/>
                    <path d="M92.4,75.35C95.067,77.15 97.683,79.217 100.25,81.55C111.65,92.25 117.35,105.183 117.35,120.35C117.25,135.45 111.533,148.333 100.2,159C87.9,170.367 74,176.05 58.5,176.05C51.1,176.05 44.133,174.717 37.6,172.05L62.5,168.75L76.7,154.8L77.75,119.05L57.75,86.25L57.55,85.1C67.683,85 76.45,83.417 83.85,80.35L84.5,80.15C87.9,78.683 90.533,77.083 92.4,75.35" style="fill:#9898cc;fill-opacity:0.7;"/>
                    <path d="M95.3,78.9C98.033,81.7 100.55,84.783 102.85,88.15C114.917,105.917 116.05,124.4 106.25,143.6C101.483,118.633 87.35,101.017 63.85,90.75L63.25,89.4L63.6,87.85L67.25,88.6L68.35,87.05L95.3,78.9M93.9,66.25C91.5,73.25 86.717,77.783 79.55,79.85C74.383,81.35 69.217,81.283 64.05,79.65C62.117,78.983 60.517,77.867 59.25,76.3L59.5,76.2C70.333,76.1 80.483,73.533 89.95,68.5L93.9,66.25M36,164L35.4,161.75C52.433,162.883 69.267,161.217 85.9,156.75C88.833,150.15 93.083,144.417 98.65,139.55L98.85,141.55C96.883,150.817 91.967,157.883 84.1,162.75C68.1,172.55 52.067,172.967 36,164" style="fill:#404280;fill-opacity:0.7;"/>
                    <path d="M11.85,99.2L16.7,102.55C16.233,120.35 19.283,137.45 25.85,153.85L23,152.3C2.567,137.133 -1.15,119.433 11.85,99.2M29.15,75.75C29.083,75.317 29.117,74.85 29.25,74.35L29.5,74.2C36.3,76.033 43.35,76.983 50.65,77.05L51.1,77.75C51.5,78.55 51.5,79.217 51.1,79.75C43.9,82.55 36.717,81.667 29.55,77.1C29.283,76.667 29.15,76.217 29.15,75.75M12,90.1L15.2,85.45C22.533,81.683 29.467,81.967 36,86.3C36.467,87.7 36.3,89.033 35.5,90.3C26.267,103.133 18.433,103.067 12,90.1M26.85,71.35C26.817,72.05 26.517,72.617 25.95,73.05C23.217,73.65 21.05,72.45 19.45,69.45C19.25,68.717 19.283,68.017 19.55,67.35C19.55,66.983 19.683,66.6 19.95,66.2L20.6,66.1C22.5,66.167 24.233,67.05 25.8,68.75C26.3,69.383 26.65,70.25 26.85,71.35" style="fill:#f2f2f9;fill-opacity:0.7;"/>
                </g>
            </g>
        </g>
    </g>
</svg>
