<?xml version="1.0" encoding="UTF-8"?>
<svg version="1.1" viewBox="0 0 133.96 90.9" xmlns="http://www.w3.org/2000/svg" xmlns:cc="http://creativecommons.org/ns#" xmlns:dc="http://purl.org/dc/elements/1.1/" xmlns:rdf="http://www.w3.org/1999/02/22-rdf-syntax-ns#" xmlns:xlink="http://www.w3.org/1999/xlink">
<metadata>
<rdf:RDF>
<cc:Work rdf:about="">
<dc:format>image/svg+xml</dc:format>
<dc:type rdf:resource="http://purl.org/dc/dcmitype/StillImage"/>
</cc:Work>
</rdf:RDF>
</metadata>
<g transform="translate(-150.89 -183.35)">
<use transform="translate(219.2,186.3)" width="65.650002" height="52" xlink:href="#a"/>
<use transform="matrix(-1.0062 0 0 1 216.95 183.35)" width="65.650002" height="52" xlink:href="#a"/>
<use transform="translate(187.35,222.25)" width="65.650002" height="52" xlink:href="#a"/>
</g>
<defs>
<g id="a" transform="translate(.5 .5)">
<use transform="translate(-.5 -.5)" width="65.650002" height="52" xlink:href="#b"/>
</g>
<g id="b" transform="translate(.5 .5)">
<path d="m17.65 1.85 37.7 24.05-1.15 6-0.05 0.1-3.8-3.85-33.45-22.35 0.75-3.95" fill="#3c363c" fill-rule="evenodd"/>
<path d="m54.15 32 0.05-0.1v0.1h-0.05" fill="#635a63" fill-rule="evenodd"/>
<path d="m54.25 46.45-0.05 0.05-0.1 0.05q-9 4.45-21.8 4.45l-4-0.1-1.2-0.1-3.6-20.4q-4.4-0.6-8.25-1.9l-4.9-2-1.75-1-1.3-0.8q-2.6-1.75-4.1-3.7l-0.95-1.5q-0.9-1.85-0.95-3.8v-0.2q0-6.4 9.05-10.95l2.8-1.25 3.75 2.5 33.45 22.35 3.8 3.85h0.05l0.05 14.45m-18.9-15.5 2.05-0.15q7.15-0.55 12.95-2.65-5.8 2.1-12.95 2.65l-2.05 0.15" fill="#d8a606" fill-rule="evenodd"/>
<path d="m27.1 50.8-9-1.45-4.45-1.4-3.3-1.45-1-0.55-2.05-21.25 1.3 0.8 1.75 1 4.9 2q3.85 1.3 8.25 1.9l3.6 20.4" fill="#b37e02" fill-rule="evenodd"/>
<path d="m9.35 45.95q-7.65-4.15-8-9.85l-0.05-0.6v-0.15q-2.6-10.3 0-19.65 0.05 1.95 0.95 3.8l0.95 1.5q1.5 1.95 4.1 3.7l2.05 21.25" fill="#6b4b01" fill-rule="evenodd"/>
<path d="m59.75 22.8q3.45-3.2 3.55-7.05 2.55 10.4 0.3 20l-0.4 1.15q-0.5 3.2-3.45 5.9v-20" fill="#bdb7a6" fill-rule="evenodd"/>
<path d="m55.35 25.9 0.65-0.4 3.75-2.7v20q-2.1 1.95-5.5 3.65l-0.05-14.45v-0.1l1.15-6" fill="#928f84" fill-rule="evenodd"/>
<path d="m17.65 1.85v-0.05q6.6-1.8 14.65-1.8 12.85 0 21.9 4.55 9.1 4.55 9.1 10.95v0.25q-0.1 3.85-3.55 7.05l-3.75 2.7-0.65 0.4-37.7-24.05" fill="#bcb7a7" fill-rule="evenodd"/>
<path d="m59.75 42.8q-2.1 1.95-5.5 3.65m-0.05-14.55-0.05 0.1m0.05 0v-0.1" fill="none" stroke="#494249" stroke-linecap="round" stroke-linejoin="round"/>
<path d="m27.1 50.8-9-1.45-4.45-1.4-3.3-1.45-1-0.55q-7.65-4.15-8-9.85l-0.05-0.6v-0.15q-2.6-10.3 0-19.65" fill="none" stroke="#353036" stroke-linecap="round" stroke-linejoin="round"/>
<path d="m63.3 15.75q2.55 10.4 0.3 20l-0.4 1.15q-0.5 3.2-3.45 5.9" fill="none" stroke="#a29ea3" stroke-linecap="round" stroke-linejoin="round"/>
<path d="m63.3 15.75v-0.25q0-6.4-9.1-10.95-9.05-4.55-21.9-4.55-8.05 0-14.65 1.8v0.05l37.7 24.05 0.65-0.4 3.75-2.7q3.45-3.2 3.55-7.05m-46.4-9.95 0.75-3.95m36.55 30.05 1.15-6" fill="none" stroke="#c5c3c6" stroke-linecap="round" stroke-linejoin="round"/>
<path d="m54.25 46.45-0.05 0.05-0.1 0.05q-9 4.45-21.8 4.45l-4-0.1-1.2-0.1-3.6-20.4q-4.4-0.6-8.25-1.9l-4.9-2-1.75-1-1.3-0.8q-2.6-1.75-4.1-3.7l-0.95-1.5q-0.9-1.85-0.95-3.8v-0.2q0-6.4 9.05-10.95l2.8-1.25 3.75 2.5 33.45 22.35q-5.8 2.1-12.95 2.65l-2.05 0.15m18.8 1.05h0.05m-0.05 0-3.8-3.85m3.9 18.3-0.05-14.45" fill="none" stroke="#a87707" stroke-linecap="round" stroke-linejoin="round"/>
</g>
</defs>
</svg>
