<?xml version="1.0" encoding="UTF-8"?>
<svg version="1.1" viewBox="0 0 280.24 319.37" xmlns="http://www.w3.org/2000/svg" xmlns:cc="http://creativecommons.org/ns#" xmlns:dc="http://purl.org/dc/elements/1.1/" xmlns:rdf="http://www.w3.org/1999/02/22-rdf-syntax-ns#" xmlns:xlink="http://www.w3.org/1999/xlink">
<metadata>
<rdf:RDF>
<cc:Work rdf:about="">
<dc:format>image/svg+xml</dc:format>
<dc:type rdf:resource="http://purl.org/dc/dcmitype/StillImage"/>
</cc:Work>
</rdf:RDF>
</metadata>
<g transform="translate(-134.86 -40.276)">
<use transform="translate(134.85,40.25)" width="280.25" height="319.39999" xlink:href="#a"/>
</g>
<defs>
<g id="a" transform="translate(-134.85,-40.25)">
<path d="m347.75 262.45v0.05l-0.05-0.4 0.05 0.35m-102.5-138.25-0.2-0.3h0.85l-0.65 0.3m88.95 69.15h0.05v0.05l-0.05-0.05" fill="#963" fill-rule="evenodd"/>
<path d="m326.75 167.6q6 12.45 9 26.35l0.1 0.25q8.7 21.95 22.2 46.95-11.2-18.25-23.8-47.75v-0.05l1.5 0.6q-5.45-13.8-9-26.35m-32.2 108.5v-0.05 0.05" fill="#c90" fill-rule="evenodd"/>
<path d="m406.5 283.05 0.1-0.2q0.05-0.1 0.2-0.1 4-2.2 7.8-5.1-0.75 5.7-1.15 10.5-9.2 3.7-11.85 15.25l-11.5 2.75 8.7-5.8 0.1-0.05q8.95-12.4 7.6-17.25" fill="#f00" fill-rule="evenodd"/>
<path d="m380.6 318.65q2.4-8.5 0-25 7.5 0 10.25-4.8l-0.25 12.3 2.6-13.4q6.85-1.5 13.1-4.75l0.2 0.05q1.35 4.85-7.6 17.25l-0.1 0.05-8.7 5.8 11.5-2.75q2.65-11.55 11.85-15.25-1.45 16.75 1.15 22.5-17-5.85-34 8" fill-rule="evenodd"/>
<path d="m259.25 174.15 0.25-0.8-0.2 0.8h-0.05m114.45 167.95-2.3-1.85 0.55-0.7q0.75 1.2 1.9 2.4l-0.15 0.15" fill="#663" fill-rule="evenodd"/>
<path d="m172.25 162.15 6.7 2.9 6.8 1.3q12.45 6.5 26.85 5.3-0.25 13.05 18.5 17.5 10.6 13.35 26.5 12.5-8.15 8.35 24 7.5-11.55 13.5-2.15 30.8 8.85 11.6 23.6 10.2l-4.1 10.65-4.4 15.25q1.75-16.9-10.1-23.6-4.75-1-9.05 0.7-1.75-12.65-5.75-20.05-2.4-4.4-5.6-6.95-79.2-60.35-77.7-43.45l-8.5-4.7q-2.95-7.65-5.6-15.85m161.8 146.15 7-6.15 1.1-11.35 6.95 20.85 22.85 27.9-0.6 0.65q-10.15-8.45-19.45-21.15l-17.85-10.75m-94.8-203q-28.45-6.7-38.15 0l-36.15 2.55q32.2-20.15 74.3-2.55m54.8 101.85-3.45-15.05 5.4 2.45-1.95 12.6m47 95q5.25 9.2 10.85 16.9-5.6-7.7-10.85-16.9m-186-236q26.1-0.95 34.55-12.5 19 0.15-28.05-11.3l14.7-1.15q74.35 10.75-4.2 24.95l-1.45 8.7q20.15 14.85-5.65 33l8.05-17.75q3.2-7.1-10.75-13.75l-7.2-10.2" fill="#ff9" fill-rule="evenodd"/>
<path d="m371.4 340.25-0.05-0.05 0.6-0.65-0.55 0.7" fill="#990" fill-rule="evenodd"/>
<path d="m374.8 344.05 0.4-0.8 5.1 3.45q-3.05-1.8-5.5-2.65" fill="#cc3" fill-rule="evenodd"/>
<path d="m298.95 260.8q19.8 17.9 34.1 48.35-21.9-21.2-38.5-33.05v-0.05l4.4-15.25m-112.6-78.1q2.45 16.25 13.7 12.45 10.85 35 50 70-47.25-22.85-72.2-87.15l8.5 4.7m-31.3-116.55h-16.95q-11.2-19.35 23.45-23.8 47.05 11.45 28.05 11.3-8.45 11.55-34.55 12.5" fill="#ff0" fill-rule="evenodd"/>
<path d="m344.4 276.1q-0.6 21.75 8.7 35.55 9.8 10.4 19.55 15.7l4.7 2.25q-4.5-1.05-6.25 1.55-1.65 4.4 0.85 8.4l-22.85-27.9-6.95-20.85q0.9-7.85 2.25-14.7m-11.35 33.05 1-0.85 17.85 10.75q9.3 12.7 19.45 21.15l0.05 0.05 2.3 1.85h0.05l1.45 1.15-0.4 0.8q-9.95-3.6-9.65 7.75-4.95-26.25-32.1-42.65m-83-44q-39.15-35-50-70-11.25 3.8-13.7-12.45-1.5-16.9 77.7 43.45-42-6.75-14 39m-111.95-199h16.95l7.2 10.2q13.95 6.65 10.75 13.75l-8.05 17.75q0.75-17.25-8.5-28.55-6.65-8.1-18.35-13.15" fill="#ff6" fill-rule="evenodd"/>
<path d="m320.05 117.15-0.1 1.65q-0.9 21.7 6.8 48.8-12.65-26.2-38.7-46.45 22.4-4.65-5.25-17.9t-49.05-17.25q-16.9-16.9-42.05-9.95l3.35-8.7q57.6 6.7 125 49.8m38 124q-6.2 7.95-10.3 21.3l-0.05-0.35 0.05 0.4q-1.9 6.2-3.35 13.6-1.35 6.85-2.25 14.7l-1.1 11.35-7 6.15-1 0.85q-14.3-30.45-34.1-48.35l4.1-10.65q-14.75 1.4-23.6-10.2-9.4-17.3 2.15-30.8-32.15 0.85-24-7.5-15.9 0.85-26.5-12.5-18.75-4.45-18.5-17.5-14.4 1.2-26.85-5.3l-6.8-1.3-6.7-2.9q7.6-9.65 15.45-16.4 26.75-23.1 57.35-21.85l0.2 0.3q11.4 21.15-0.2 46.95 7.1 0.7 14.2 3h0.05l0.2-0.8q-7.3-2.55-0.45-10.2-9.8-1.6 0-34.55-3.5-0.9-5.25-2.9-3.75-4.35 0.85-13.95 1.75 13.2 13.45 14.4l-6 22.5q-0.8 23.05 6 19.5 1.1-8.25 15.45 0 9.1-16.05 18.2 0h6.35q0.2 24.9 11.6 30.6 7.6 1.85 14.5-5.4l0.05 0.05q12.6 29.5 23.8 47.75m-64-34 1.95-12.6-5.4-2.45 3.45 15.05m-30 19q3.2 2.55 5.6 6.95 4 7.4 5.75 20.05 4.3-1.7 9.05-0.7 11.85 6.7 10.1 23.6v0.05q-32.4-23.2-44.5-10.95-28-45.75 14-39" fill="#fc0" fill-rule="evenodd"/>
<path d="m176.25 41.2q12.5-0.45 28.8 0.35l24 1.6q30.35-15.85 91 74-67.4-43.1-125-49.8l-3.35 8.7q25.15-6.95 42.05 9.95 21.4 4 49.05 17.25t5.25 17.9q26.05 20.25 38.7 46.45 3.55 12.55 9 26.35l-1.5-0.6h-0.05q-6.9 7.25-14.5 5.4-11.4-5.7-11.6-30.6h-6.35q-9.1-16.05-18.2 0-14.35-8.25-15.45 0-6.8 3.55-6-19.5l6-22.5q-11.7-1.2-13.45-14.4-4.6 9.6-0.85 13.95 1.75 2 5.25 2.9-9.8 32.95 0 34.55-6.85 7.65 0.45 10.2l-0.25 0.8q-7.1-2.3-14.2-3 11.6-25.8 0.2-46.95l0.65-0.3h-0.85q-30.6-1.25-57.35 21.85-7.85 6.75-15.45 16.4-34.6-12.65-14.15-25 6.25-16.35 6.85-29.3l36.15-2.55q9.7-6.7 38.15 0-42.1-17.6-74.3 2.55 25.8-18.15 5.65-33l1.45-8.7q78.55-14.2 4.2-24.95" fill="#ff3" fill-rule="evenodd"/>
<path d="m229.05 43.15q30.35-15.85 91 74l-0.1 1.65q-0.9 21.7 6.8 48.8 3.55 12.55 9 26.35l0.1 0.25q8.7 21.95 22.2 46.95-6.2 7.95-10.3 21.3v0.05q-1.9 6.2-3.35 13.6-0.6 21.75 8.7 35.55 9.8 10.4 19.55 15.7l7.95-8.7q2.4-8.5 0-25 7.5 0 10.25-4.8l-0.25 12.3 2.6-13.4q6.85-1.5 13.1-4.75m0.5-0.25q4-2.2 7.8-5.1-0.75 5.7-1.15 10.5-1.45 16.75 1.15 22.5-17-5.85-34 8m-47.55-9.5 1-0.85 7-6.15 1.1-11.35q0.9-7.85 2.25-14.7m-10.2-82.75h0.05l1.5 0.6m-157.9-15.95q24.95 64.3 72.2 87.15 12.1-12.25 44.5 10.95v-0.05 0.05q16.6 11.85 38.5 33.05 27.15 16.4 32.1 42.65-0.3-11.35 9.65-7.75m0.4-0.8-1.45-1.15h-0.05l-2.3-1.85-0.05-0.05q-10.15-8.45-19.45-21.15l-17.85-10.75m13.7-45.8-0.05-0.4 0.05 0.35m4.15 56.6q-5.6-7.7-10.85-16.9m1.1-11.35 6.95 20.85 22.85 27.9q-2.5-4-0.85-8.4 1.75-2.6 6.25-1.55l-4.7-2.25m1.2 14.6q-1.15-1.2-1.9-2.4m3.25 3.7-1.35-1.3m-7.8 17.2q-0.25-3.8-0.9-7.35m15.15-5.1 0.75 0.45m-5.85-3.9 5.1 3.45q-3.05-1.8-5.5-2.65m2.55-14.45q1.9 0.45 4.25 1.55m-243.5-265q11.7 5.05 18.35 13.15 9.25 11.3 8.5 28.55m7.3 54.3q-34.6-12.65-14.15-25 6.25-16.35 6.85-29.3m12.9 70.15q-2.95-7.65-5.6-15.85" fill="none" stroke="#000" stroke-linecap="round" stroke-linejoin="round" stroke-opacity=".6"/>
<path d="m406.5 283.05 0.1-0.2m-0.1 0.2q1.35 4.85-7.6 17.25l-0.1 0.05-8.7 5.8 11.5-2.75q2.65-11.55 11.85-15.25" fill="none" stroke="#000" stroke-linecap="round" stroke-linejoin="round"/>
<path d="m406.6 282.85q0.05-0.1 0.2-0.1" fill="none" stroke="#fff" stroke-linecap="round" stroke-linejoin="round"/>
<path d="m176.25 41.2q12.5-0.45 28.8 0.35l24 1.6m-67.5-0.8q-34.65 4.45-23.45 23.8m38.15-24.95-14.7 1.15" fill="none" stroke="#000" stroke-linecap="round" stroke-linejoin="round" stroke-opacity=".6"/>
</g>
</defs>
</svg>
