<?xml version="1.0" encoding="UTF-8" standalone="no"?>
<!DOCTYPE svg PUBLIC "-//W3C//DTD SVG 1.1//EN" "http://www.w3.org/Graphics/SVG/1.1/DTD/svg11.dtd">
<svg width="100%" height="100%" viewBox="0 0 1184 1716" version="1.1" xmlns="http://www.w3.org/2000/svg" xmlns:xlink="http://www.w3.org/1999/xlink" xml:space="preserve" xmlns:serif="http://www.serif.com/" style="fill-rule:evenodd;clip-rule:evenodd;stroke-linecap:round;stroke-linejoin:round;">
    <g transform="matrix(1,0,0,1,-2726.5,-2928)">
        <g transform="matrix(10,0,0,10,2731.5,2878.5)">
            <g id="sprite0">
                <g id="shape0">
                    <path d="M60.45,92.5L60.1,91.55C58.967,89.783 57.367,88.15 55.3,86.65L55.3,86.45L56.05,86.65C68.617,92.417 73.733,101.4 71.4,113.6L70.9,116.3L67.8,124.15L65.2,129.55C62.967,133.683 60.45,137.717 57.65,141.65C57.05,141.217 56.417,141 55.75,141C54.75,141 53.917,141.367 53.25,142.1L52.6,142.95L51,142.2C51.233,142 51.883,141.583 52.95,140.95C53.017,140.883 53.067,140.85 53.1,140.85C54.967,139.483 56.633,137.883 58.1,136.05C59.433,134.317 60.567,132.467 61.5,130.5L63.75,126.15C65.283,123.05 66.767,118.067 68.2,111.2C69.567,104.333 66.983,98.1 60.45,92.5" style="fill:#62a3ac;"/>
                    <path d="M55.3,86.65L54.8,86.35L55.3,86.45L55.3,86.65" style="fill:#c4dcdf;"/>
                    <path d="M56.05,86.65C58.217,87.183 60.267,87.817 62.2,88.55C65.6,89.75 68.6,91.167 71.2,92.8C73.9,95.9 76.1,99.8 77.8,104.5C79.4,109.267 79.867,114.15 79.2,119.15C78.533,124.05 76.783,128.933 73.95,133.8L71.75,137.2L69.15,140.3L67.95,141.75L64.55,145.35L60.45,149.75L59.6,149.25C59.3,148.95 59,148.7 58.7,148.5L58.5,148.35L58.65,146.45C59.017,145.883 59.2,145.25 59.2,144.55L59.15,143.7C59.583,141.7 60.317,139.833 61.35,138.1C63.15,135 64.433,132.15 65.2,129.55L67.8,124.15L70.9,116.3L71.4,113.6C73.733,101.4 68.617,92.417 56.05,86.65M50,141.75L51.55,138.95L54,134C58.3,124 59.383,113.05 57.25,101.15L60.7,102.9C62.233,99.1 62.15,95.633 60.45,92.5C66.983,98.1 69.567,104.333 68.2,111.2C66.767,118.067 65.283,123.05 63.75,126.15L61.5,130.5C60.567,132.467 59.433,134.317 58.1,136.05C56.633,137.883 54.967,139.483 53.1,140.85C53.067,140.85 53.017,140.883 52.95,140.95C51.883,141.583 51.233,142 51,142.2L50,141.75" style="fill:#83b7be;"/>
                    <path d="M71.2,92.8C83.033,100.367 85.383,112.067 78.25,127.9C76.25,131.067 74.083,134.167 71.75,137.2L73.95,133.8C76.783,128.933 78.533,124.05 79.2,119.15C79.867,114.15 79.4,109.267 77.8,104.5C76.1,99.8 73.9,95.9 71.2,92.8" style="fill:#e9f2f3;"/>
                    <path d="M60.45,149.75C62.983,151.383 66,152.667 69.5,153.6L68.4,155C65.4,156.067 60.867,153.883 54.8,148.45C53.667,147.117 52.45,146.017 51.15,145.15C49.85,144.317 47.367,143.583 43.7,142.95C39.967,142.283 39.917,141.167 43.55,139.6C45.783,140.067 47.75,140.7 49.45,141.5L50,141.75L51,142.2L52.6,142.95L52.95,143.2L52.8,143.4L52.9,143.45L53.3,143.75C53.7,144.017 54.1,144.333 54.5,144.7L55,145.15L55.2,145.25L55.65,145.65L55.75,145.75L56.15,146.1L56.4,146.4L57.55,147.55L57.9,147.85L58.5,148.35L58.7,148.5C59,148.7 59.3,148.95 59.6,149.25L60.45,149.75M43.45,155.8L47.55,147.8C49.117,148.867 50.6,150.05 52,151.35L48.8,156.4L47,156.6L47,154.1L43.45,155.8" style="fill:#a1664c;"/>
                    <path d="M68.4,155L66.35,157.3C63.217,156.7 60.283,155.55 57.55,153.85L57.55,153.75C57.45,153.65 57.35,153.583 57.25,153.55L55.9,152.45L47.65,162.5L47.65,162.45L47.2,161.5C47.3,161.633 47.467,161.55 47.7,161.25C47.7,161.15 47.75,161.033 47.85,160.9L48.25,159.75L48.75,158.25C48.983,157.283 48.617,157.233 47.65,158.1L47.5,158.25L45.5,159.5L45.4,159.45C45.3,159.183 45.433,158.35 45.8,156.95C46.233,155.45 45.867,155.283 44.7,156.45C43.7,157.417 42.883,157.967 42.25,158.1L43.45,155.8L47,154.1L47,156.6L48.8,156.4L52,151.35C50.6,150.05 49.117,148.867 47.55,147.8L48.45,146.1L47,145.65L41.9,144.15L39.55,143.75L40.05,138.9L43.55,139.6C39.917,141.167 39.967,142.283 43.7,142.95C47.367,143.583 49.85,144.317 51.15,145.15C52.45,146.017 53.667,147.117 54.8,148.45C60.867,153.883 65.4,156.067 68.4,155M48.45,146.1L49.9,147.25C52.133,148.683 54.133,150.417 55.9,152.45C54.133,150.417 52.133,148.683 49.9,147.25L48.45,146.1" style="fill:#58382b;"/>
                    <path d="M36.3,164.75C36.1,163.95 36.117,163.133 36.35,162.3C36.717,160.767 37.583,159.633 38.95,158.9C39.317,158.667 39.717,158.5 40.15,158.4L40.7,158.35L41.95,158.2L42.05,158.2L42.25,158.1C42.883,157.967 43.7,157.417 44.7,156.45C45.867,155.283 46.233,155.45 45.8,156.95C45.433,158.35 45.3,159.183 45.4,159.45L45.5,159.5L47.5,158.25L47.65,158.1C48.617,157.233 48.983,157.283 48.75,158.25L48.25,159.75L47.85,160.9C47.75,161.033 47.7,161.15 47.7,161.25L47,161.1L47,163.95L45.95,164.9C45.85,164.367 45.617,163.95 45.25,163.65L43.85,163.4C43.283,163.5 42.867,163.783 42.6,164.25L42.6,164.15L42.5,164.4L42.5,164.45C42.333,164.85 42.3,165.283 42.4,165.75L42.5,166.05C40.3,166.017 38.233,165.583 36.3,164.75M59.15,143.7L59.2,144.55C59.2,145.25 59.017,145.883 58.65,146.45L58.2,147L57.55,147.55L56.4,146.4L56.25,146.2L56.15,146.1L55.75,145.75L55.65,145.65L55.2,145.25L55,145.15L54.5,144.7C54.1,144.333 53.7,144.017 53.3,143.75L52.9,143.45L53.1,143.2L52.95,143.2L52.6,142.95L53.25,142.1C53.917,141.367 54.75,141 55.75,141C56.417,141 57.05,141.217 57.65,141.65L57.7,141.75L58.2,142.1C58.633,142.567 58.95,143.1 59.15,143.7M41.8,162C41.7,161.4 41.433,160.933 41,160.6C40.567,160.267 40.083,160.167 39.55,160.3C39.05,160.367 38.667,160.633 38.4,161.1C38.1,161.6 38.017,162.117 38.15,162.65L38.45,163.45L38.95,164C39.35,164.3 39.817,164.4 40.35,164.3C40.883,164.2 41.3,163.917 41.6,163.45C41.8,163.117 41.867,162.733 41.8,162.3L41.9,162L41.8,162" style="fill:#fc3;"/>
                    <path d="M65.2,129.55C64.433,132.15 63.15,135 61.35,138.1C60.317,139.833 59.583,141.7 59.15,143.7C58.95,143.1 58.633,142.567 58.2,142.1L57.7,141.75L57.65,141.65C60.45,137.717 62.967,133.683 65.2,129.55" style="fill:#718688;"/>
                    <path d="M58.65,146.45L58.5,148.35L57.9,147.85L57.55,147.55L58.2,147L58.65,146.45M52.95,143.2L53.1,143.2L52.9,143.45L52.8,143.4L52.95,143.2M56.15,146.1L56.25,146.2L56.4,146.4L56.15,146.1" style="fill:#bd571a;"/>
                    <path d="M41.8,162.3C41.867,162.733 41.8,163.117 41.6,163.45C41.3,163.917 40.883,164.2 40.35,164.3C39.817,164.4 39.35,164.3 38.95,164L38.45,163.45L38.15,162.65C38.017,162.117 38.1,161.6 38.4,161.1C38.667,160.633 39.05,160.367 39.55,160.3C40.083,160.167 40.567,160.267 41,160.6C41.433,160.933 41.7,161.4 41.8,162L41.8,162.3M45.95,164.9L46.05,164.95C46.15,165.55 46.067,166.067 45.8,166.5C45.533,167 45.15,167.3 44.65,167.4L44.15,167.4C43.817,167.4 43.5,167.3 43.2,167.1C42.867,166.833 42.633,166.483 42.5,166.05L42.4,165.75C42.3,165.283 42.333,164.85 42.5,164.45L42.5,164.4L42.6,164.25C42.867,163.783 43.283,163.5 43.85,163.4L45.25,163.65C45.617,163.95 45.85,164.367 45.95,164.9"/>
                    <path d="M47.65,162.5C47.95,163.5 47.967,164.5 47.7,165.5C47.267,167.033 46.4,168.167 45.1,168.9C43.7,169.633 42.217,169.783 40.65,169.35C39.05,168.917 37.833,168.017 37,166.65C36.633,166.017 36.4,165.383 36.3,164.75C38.233,165.583 40.3,166.017 42.5,166.05C42.633,166.483 42.867,166.833 43.2,167.1C43.5,167.3 43.817,167.4 44.15,167.4L44.65,167.4C45.15,167.3 45.533,167 45.8,166.5C46.067,166.067 46.15,165.55 46.05,164.95L45.95,164.9L47,163.95L47,161.1L47.7,161.25C47.467,161.55 47.3,161.633 47.2,161.5L47.65,162.45L47.65,162.5" style="fill:#c87e06;"/>
                    <path d="M56.05,86.65C58.217,87.183 60.267,87.817 62.2,88.55C65.6,89.75 68.6,91.167 71.2,92.8C83.033,100.367 85.383,112.067 78.25,127.9C76.25,131.067 74.083,134.167 71.75,137.2L69.15,140.3L67.95,141.75L64.55,145.35L60.45,149.75C62.983,151.383 66,152.667 69.5,153.6L68.4,155L66.35,157.3C63.217,156.7 60.283,155.55 57.55,153.85L57.55,153.75C57.45,153.65 57.35,153.583 57.25,153.55L55.9,152.45L47.65,162.5C47.95,163.5 47.967,164.5 47.7,165.5C47.267,167.033 46.4,168.167 45.1,168.9C43.7,169.633 42.217,169.783 40.65,169.35C39.05,168.917 37.833,168.017 37,166.65C36.633,166.017 36.4,165.383 36.3,164.75C36.1,163.95 36.117,163.133 36.35,162.3C36.717,160.767 37.583,159.633 38.95,158.9C39.317,158.667 39.717,158.5 40.15,158.4L40.7,158.35L41.95,158.2L42.05,158.2L42.25,158.1L43.45,155.8L47.55,147.8L48.45,146.1L47,145.65L41.9,144.15L39.55,143.75L40.05,138.9L43.55,139.6C45.783,140.067 47.75,140.7 49.45,141.5L50,141.75L51.55,138.95L54,134C58.3,124 59.383,113.05 57.25,101.15L60.7,102.9C62.233,99.1 62.15,95.633 60.45,92.5L60.1,91.55C58.967,89.783 57.367,88.15 55.3,86.65L54.8,86.35L55.3,86.45L56.05,86.65C68.617,92.417 73.733,101.4 71.4,113.6L70.9,116.3L67.8,124.15L65.2,129.55C62.967,133.683 60.45,137.717 57.65,141.65C57.05,141.217 56.417,141 55.75,141C54.75,141 53.917,141.367 53.25,142.1L52.6,142.95L52.95,143.2L53.1,143.2L52.9,143.45L53.3,143.75C53.7,144.017 54.1,144.333 54.5,144.7L55,145.15L55.2,145.25L55.65,145.65L55.75,145.75L56.15,146.1L56.25,146.2L56.4,146.4L57.55,147.55L58.2,147L58.65,146.45C59.017,145.883 59.2,145.25 59.2,144.55L59.15,143.7C58.95,143.1 58.633,142.567 58.2,142.1L57.7,141.75L57.65,141.65M58.5,148.35L58.7,148.5C59,148.7 59.3,148.95 59.6,149.25L60.45,149.75M55.9,152.45C54.133,150.417 52.133,148.683 49.9,147.25L48.45,146.1M51,142.2L52.6,142.95M52.95,143.2L52.8,143.4L52.9,143.45M57.55,147.55L57.9,147.85L58.5,148.35M56.15,146.1L56.4,146.4M50,141.75L51,142.2M47.7,161.25C47.7,161.15 47.75,161.033 47.85,160.9L48.25,159.75L48.75,158.25C48.983,157.283 48.617,157.233 47.65,158.1L47.5,158.25L45.5,159.5L45.4,159.45C45.3,159.183 45.433,158.35 45.8,156.95C46.233,155.45 45.867,155.283 44.7,156.45C43.7,157.417 42.883,157.967 42.25,158.1M47.7,161.25C47.467,161.55 47.3,161.633 47.2,161.5L47.65,162.45L47.65,162.5" style="fill:none;fill-rule:nonzero;stroke:#5f462e;stroke-width:0.1px;"/>
                    <path d="M55.7,5.65L63.5,5.45C73.433,5.483 82.183,6.283 89.75,7.85C99.383,9.817 104.25,12.467 104.35,15.8L104.45,16.45L104.2,17.3L91.75,60.85L90.8,63.4L90.9,63.9L89.95,67.9C88.45,70.1 85.517,72.033 81.15,73.7L74.7,75.65C74.367,73.717 73.85,71.817 73.15,69.95C71.05,64.717 73.133,60.333 79.4,56.8C80.2,53.167 77.567,50.25 71.5,48.05C77.067,49.55 80.817,47.533 82.75,42C84.25,37.767 83.117,35.8 79.35,36.1C81.15,35.7 82.433,34.517 83.2,32.55C84.367,29.95 84.85,27.867 84.65,26.3C84.117,23 80.533,21.833 73.9,22.8L77.35,17.05C72.517,12.817 66.983,12.4 60.75,15.8C62.517,13.733 63.417,11.6 63.45,9.4C60.717,8.267 58.133,7.017 55.7,5.65M104.2,17.3C102.933,20.067 98.333,22.583 90.4,24.85L84.65,26.3L90.4,24.85C98.333,22.583 102.933,20.067 104.2,17.3" style="fill:#825a33;"/>
                    <path d="M41.85,6.55L54.65,5.65L55.7,5.65C58.133,7.017 60.717,8.267 63.45,9.4C63.417,11.6 62.517,13.733 60.75,15.8C66.983,12.4 72.517,12.817 77.35,17.05L73.9,22.8C80.533,21.833 84.117,23 84.65,26.3C84.85,27.867 84.367,29.95 83.2,32.55C82.433,34.517 81.15,35.7 79.35,36.1C83.117,35.8 84.25,37.767 82.75,42C80.817,47.533 77.067,49.55 71.5,48.05C77.567,50.25 80.2,53.167 79.4,56.8C73.133,60.333 71.05,64.717 73.15,69.95C73.85,71.817 74.367,73.717 74.7,75.65C69.6,76.917 63.85,77.5 57.45,77.4L55.25,76.95L65.25,29.05L65.4,29.15L41.85,6.55M84.65,26.3C78.85,27.6 72.433,28.55 65.4,29.15C72.433,28.55 78.85,27.6 84.65,26.3" style="fill:#b9874a;"/>
                    <path d="M91.75,60.85C94.583,63.617 96,66.017 96,68.05C96,70.717 94.8,73.15 92.4,75.35C90.533,77.083 87.9,78.683 84.5,80.15L83.85,80.35C76.45,83.417 67.683,85 57.55,85.1L56.9,77.35L57.45,77.4C63.85,77.5 69.6,76.917 74.7,75.65L81.15,73.7C85.517,72.033 88.45,70.1 89.95,67.9C90.517,66.867 90.817,65.75 90.85,64.55L90.95,64.45L90.9,63.9L91.05,63.6L91.75,60.85" style="fill:#9898cc;fill-opacity:0.7;"/>
                    <path d="M27.7,8.65C32.033,7.75 36.75,7.05 41.85,6.55L65.4,29.15L65.25,29.05L53.6,29.65L65.25,29.05L55.25,76.95L57.45,77.4L56.9,77.35L50,77.05C46.067,76.75 42.433,76.167 39.1,75.3L33.85,73.6L32.1,72.85L13.85,25.3C15.917,26.067 18.5,26.767 21.6,27.4L24.9,28.05L33.45,28.8L35.75,43.2L35.75,29L36.8,24.1L35.15,26.4L33.8,24.65C31.567,21.517 29.533,16.183 27.7,8.65M90.8,63.4L91.75,60.85L90.9,63.5L90.8,63.4M53.6,27.15L53.6,29.65C53.5,34.617 53.167,39.4 52.6,44C53.167,39.4 53.5,34.617 53.6,29.65L53.6,27.15M36.7,72.75C34.167,65.75 31.517,56.933 28.75,46.3C26.15,36.233 24.867,30.15 24.9,28.05C24.867,30.15 26.15,36.233 28.75,46.3C31.517,56.933 34.167,65.75 36.7,72.75M35.9,47.4L35.75,43.2L35.9,47.4M50,77.05C50.4,75.183 51.233,71.883 52.5,67.15C54.467,59.75 55.833,55.333 56.6,53.9C55.833,55.333 54.467,59.75 52.5,67.15C51.233,71.883 50.4,75.183 50,77.05M42.6,16.05L36.8,24.1L42.6,16.05M53.6,29.65L35.75,29L53.6,29.65M41.6,38.35L39.1,75.3L41.6,38.35" style="fill:#d2b88c;"/>
                    <path d="M91.75,60.85L91.05,63.6L90.9,63.5L91.75,60.85" style="fill:#990;"/>
                    <path d="M22.35,60.6L7.9,21.9C7.233,21.167 6.867,20.35 6.8,19.45C6.667,16.083 11.383,13.05 20.95,10.35L27.7,8.65C29.533,16.183 31.567,21.517 33.8,24.65L35.15,26.4L33.45,28.8L24.9,28.05L21.6,27.4C18.5,26.767 15.917,26.067 13.85,25.3C11.017,24.3 9.033,23.167 7.9,21.9C9.033,23.167 11.017,24.3 13.85,25.3L32.1,72.85C27.633,70.817 25.05,68.483 24.35,65.85L22.35,60.6" style="fill:#dbc5a4;"/>
                    <path d="M35.15,26.4L36.8,24.1L35.75,29L35.75,43.2L33.45,28.8L35.15,26.4" style="fill:#a57341;"/>
                    <path d="M22.85,76.75C19.117,74.217 17.283,71.25 17.35,67.85C17.217,65.583 18.883,63.167 22.35,60.6L24.35,65.85C25.05,68.483 27.633,70.817 32.1,72.85L33.85,73.6L39.1,75.3C42.433,76.167 46.067,76.75 50,77.05L56.9,77.35L57.55,85.1L56.6,85.15C45.733,85.15 36.483,83.45 28.85,80.05C26.45,79.017 24.45,77.917 22.85,76.75M49.7,78.75L50,77.05L49.7,78.75" style="fill:#9999cb;fill-opacity:0.5;"/>
                    <path d="M84.65,26.3L90.4,24.85C98.333,22.583 102.933,20.067 104.2,17.3M65.25,29.05L65.4,29.15C72.433,28.55 78.85,27.6 84.65,26.3M53.6,29.65L65.25,29.05M33.45,28.8L35.75,43.2L35.75,29L36.8,24.1L35.15,26.4L33.45,28.8L24.9,28.05L21.6,27.4C18.5,26.767 15.917,26.067 13.85,25.3C11.017,24.3 9.033,23.167 7.9,21.9M35.75,43.2L35.9,47.4M39.1,75.3L41.6,38.35M35.75,29L53.6,29.65M36.8,24.1L42.6,16.05" style="fill:none;fill-rule:nonzero;stroke:#003200;stroke-opacity:0.5;stroke-width:0.05px;"/>
                    <path d="M55.7,5.65L63.5,5.45C73.433,5.483 82.183,6.283 89.75,7.85C99.383,9.817 104.25,12.467 104.35,15.8L104.45,16.45L104.2,17.3L91.75,60.85M22.35,60.6L7.9,21.9C7.233,21.167 6.867,20.35 6.8,19.45C6.667,16.083 11.383,13.05 20.95,10.35L27.7,8.65C32.033,7.75 36.75,7.05 41.85,6.55L54.65,5.65L55.7,5.65" style="fill:none;fill-rule:nonzero;stroke:#960;stroke-width:1px;"/>
                    <path d="M74.7,75.65L81.15,73.7C85.517,72.033 88.45,70.1 89.95,67.9C90.517,66.867 90.817,65.75 90.85,64.55L90.95,64.45L90.9,63.9M92.4,75.35C90.533,77.083 87.9,78.683 84.5,80.15L83.85,80.35C76.45,83.417 67.683,85 57.55,85.1L56.6,85.15C45.733,85.15 36.483,83.45 28.85,80.05C26.45,79.017 24.45,77.917 22.85,76.75M57.45,77.4C63.85,77.5 69.6,76.917 74.7,75.65M32.1,72.85C27.633,70.817 25.05,68.483 24.35,65.85M50,77.05C46.067,76.75 42.433,76.167 39.1,75.3L33.85,73.6L32.1,72.85M50,77.05L56.9,77.35L57.45,77.4" style="fill:none;fill-rule:nonzero;stroke:#67afaf;stroke-width:0.05px;"/>
                    <path d="M89.95,67.9L90.9,63.9L91.05,63.6L91.75,60.85M24.35,65.85L22.35,60.6" style="fill:none;fill-rule:nonzero;stroke:#960;stroke-width:0.05px;"/>
                    <path d="M91.75,60.85C94.583,63.617 96,66.017 96,68.05C96,70.717 94.8,73.15 92.4,75.35C95.067,77.15 97.683,79.217 100.25,81.55C111.65,92.25 117.35,105.183 117.35,120.35C117.25,135.45 111.533,148.333 100.2,159C87.9,170.367 74,176.05 58.5,176.05C51.1,176.05 44.133,174.717 37.6,172.05C30.3,169.217 23.5,164.783 17.2,158.75C5.7,148.083 -0.033,135.2 0,120.1C0.033,104.967 5.817,92.067 17.35,81.4C19.05,79.733 20.883,78.183 22.85,76.75C19.117,74.217 17.283,71.25 17.35,67.85C17.217,65.583 18.883,63.167 22.35,60.6" style="fill:none;fill-rule:nonzero;stroke:#67afaf;stroke-width:1px;"/>
                    <path d="M53.6,29.65C53.5,34.617 53.167,39.4 52.6,44M53.6,29.65L53.6,27.15M24.9,28.05C24.867,30.15 26.15,36.233 28.75,46.3C31.517,56.933 34.167,65.75 36.7,72.75M56.6,53.9C55.833,55.333 54.467,59.75 52.5,67.15C51.233,71.883 50.4,75.183 50,77.05L49.7,78.75" style="fill:none;fill-rule:nonzero;stroke:#b9874a;stroke-opacity:0.5;stroke-width:0.05px;"/>
                    <path d="M22.9,76.6C24.5,77.733 26.5,78.8 28.9,79.8C36.533,83.2 45.783,84.917 56.65,84.95L57.6,84.9L57.8,86.1L77.8,118.8L76.75,154.6L62.55,168.5L37.65,171.85C30.317,169.017 23.517,164.583 17.25,158.55C5.75,147.917 0.017,135.017 0.05,119.85C0.083,104.717 5.883,91.817 17.45,81.15C19.117,79.483 20.933,77.967 22.9,76.6" style="fill:#9999cb;fill-opacity:0.5;"/>
                </g>
                <g id="shape1" transform="matrix(-0.6712,-0.5337,-0.5337,0.6712,100.1,14.25)">
                    <path d="M26.4,22.9C26.233,23.133 25.967,23.283 25.6,23.35C24.567,23.55 22.917,23.067 20.65,21.9C17.55,20.333 14.2,18 10.6,14.9C7,11.833 4.2,8.883 2.2,6.05C0.467,3.65 -0.25,1.95 0.05,0.95L0.15,0.65L0.3,0.5C1.067,-0.4 2.983,-0.067 6.05,1.5C9.15,3.067 12.5,5.4 16.1,8.5C19.7,11.6 22.517,14.55 24.55,17.35C26.55,20.15 27.167,22 26.4,22.9" style="fill:#6d532c;"/>
                    <path d="M26.4,22.9C26.233,23.133 25.967,23.283 25.6,23.35C24.567,23.55 22.917,23.067 20.65,21.9C17.55,20.333 14.2,18 10.6,14.9C7,11.833 4.2,8.883 2.2,6.05C0.467,3.65 -0.25,1.95 0.05,0.95L0.15,0.65L0.3,0.5C1.067,-0.4 2.983,-0.067 6.05,1.5C9.15,3.067 12.5,5.4 16.1,8.5C19.7,11.6 22.517,14.55 24.55,17.35C26.55,20.15 27.167,22 26.4,22.9Z" style="fill:none;fill-rule:nonzero;stroke:#960;stroke-width:0.05px;"/>
                </g>
                <g id="shape11" serif:id="shape1" transform="matrix(-0.3193,-0.2539,-0.2539,0.3193,73.4,23.2)">
                    <path d="M26.4,22.9C26.233,23.133 25.967,23.283 25.6,23.35C24.567,23.55 22.917,23.067 20.65,21.9C17.55,20.333 14.2,18 10.6,14.9C7,11.833 4.2,8.883 2.2,6.05C0.467,3.65 -0.25,1.95 0.05,0.95L0.15,0.65L0.3,0.5C1.067,-0.4 2.983,-0.067 6.05,1.5C9.15,3.067 12.5,5.4 16.1,8.5C19.7,11.6 22.517,14.55 24.55,17.35C26.55,20.15 27.167,22 26.4,22.9" style="fill:#6d532c;"/>
                    <path d="M26.4,22.9C26.233,23.133 25.967,23.283 25.6,23.35C24.567,23.55 22.917,23.067 20.65,21.9C17.55,20.333 14.2,18 10.6,14.9C7,11.833 4.2,8.883 2.2,6.05C0.467,3.65 -0.25,1.95 0.05,0.95L0.15,0.65L0.3,0.5C1.067,-0.4 2.983,-0.067 6.05,1.5C9.15,3.067 12.5,5.4 16.1,8.5C19.7,11.6 22.517,14.55 24.55,17.35C26.55,20.15 27.167,22 26.4,22.9Z" style="fill:none;fill-rule:nonzero;stroke:#960;stroke-width:0.05px;"/>
                </g>
                <g id="shape12" serif:id="shape1" transform="matrix(-0.2665,-0.2119,-0.2119,0.2665,30.2,19.7)">
                    <path d="M26.4,22.9C26.233,23.133 25.967,23.283 25.6,23.35C24.567,23.55 22.917,23.067 20.65,21.9C17.55,20.333 14.2,18 10.6,14.9C7,11.833 4.2,8.883 2.2,6.05C0.467,3.65 -0.25,1.95 0.05,0.95L0.15,0.65L0.3,0.5C1.067,-0.4 2.983,-0.067 6.05,1.5C9.15,3.067 12.5,5.4 16.1,8.5C19.7,11.6 22.517,14.55 24.55,17.35C26.55,20.15 27.167,22 26.4,22.9" style="fill:#6d532c;"/>
                    <path d="M26.4,22.9C26.233,23.133 25.967,23.283 25.6,23.35C24.567,23.55 22.917,23.067 20.65,21.9C17.55,20.333 14.2,18 10.6,14.9C7,11.833 4.2,8.883 2.2,6.05C0.467,3.65 -0.25,1.95 0.05,0.95L0.15,0.65L0.3,0.5C1.067,-0.4 2.983,-0.067 6.05,1.5C9.15,3.067 12.5,5.4 16.1,8.5C19.7,11.6 22.517,14.55 24.55,17.35C26.55,20.15 27.167,22 26.4,22.9Z" style="fill:none;fill-rule:nonzero;stroke:#960;stroke-width:0.05px;"/>
                </g>
                <g id="shape13" serif:id="shape1" transform="matrix(-0.3193,-0.2539,-0.2539,0.3193,74.15,9.85)">
                    <path d="M26.4,22.9C26.233,23.133 25.967,23.283 25.6,23.35C24.567,23.55 22.917,23.067 20.65,21.9C17.55,20.333 14.2,18 10.6,14.9C7,11.833 4.2,8.883 2.2,6.05C0.467,3.65 -0.25,1.95 0.05,0.95L0.15,0.65L0.3,0.5C1.067,-0.4 2.983,-0.067 6.05,1.5C9.15,3.067 12.5,5.4 16.1,8.5C19.7,11.6 22.517,14.55 24.55,17.35C26.55,20.15 27.167,22 26.4,22.9" style="fill:#6d532c;"/>
                    <path d="M26.4,22.9C26.233,23.133 25.967,23.283 25.6,23.35C24.567,23.55 22.917,23.067 20.65,21.9C17.55,20.333 14.2,18 10.6,14.9C7,11.833 4.2,8.883 2.2,6.05C0.467,3.65 -0.25,1.95 0.05,0.95L0.15,0.65L0.3,0.5C1.067,-0.4 2.983,-0.067 6.05,1.5C9.15,3.067 12.5,5.4 16.1,8.5C19.7,11.6 22.517,14.55 24.55,17.35C26.55,20.15 27.167,22 26.4,22.9Z" style="fill:none;fill-rule:nonzero;stroke:#960;stroke-width:0.05px;"/>
                </g>
                <g id="shape14" serif:id="shape1" transform="matrix(-0.5619,-0.4467,-0.4467,0.5619,57.2,13.4)">
                    <path d="M26.4,22.9C26.233,23.133 25.967,23.283 25.6,23.35C24.567,23.55 22.917,23.067 20.65,21.9C17.55,20.333 14.2,18 10.6,14.9C7,11.833 4.2,8.883 2.2,6.05C0.467,3.65 -0.25,1.95 0.05,0.95L0.15,0.65L0.3,0.5C1.067,-0.4 2.983,-0.067 6.05,1.5C9.15,3.067 12.5,5.4 16.1,8.5C19.7,11.6 22.517,14.55 24.55,17.35C26.55,20.15 27.167,22 26.4,22.9" style="fill:#6d532c;"/>
                    <path d="M26.4,22.9C26.233,23.133 25.967,23.283 25.6,23.35C24.567,23.55 22.917,23.067 20.65,21.9C17.55,20.333 14.2,18 10.6,14.9C7,11.833 4.2,8.883 2.2,6.05C0.467,3.65 -0.25,1.95 0.05,0.95L0.15,0.65L0.3,0.5C1.067,-0.4 2.983,-0.067 6.05,1.5C9.15,3.067 12.5,5.4 16.1,8.5C19.7,11.6 22.517,14.55 24.55,17.35C26.55,20.15 27.167,22 26.4,22.9Z" style="fill:none;fill-rule:nonzero;stroke:#960;stroke-width:0.05px;"/>
                </g>
                <g id="shape2">
                    <path d="M92.4,75.35C95.067,77.15 97.683,79.217 100.25,81.55C111.65,92.25 117.35,105.183 117.35,120.35C117.25,135.45 111.533,148.333 100.2,159C87.9,170.367 74,176.05 58.5,176.05C51.1,176.05 44.133,174.717 37.6,172.05L62.5,168.75L76.7,154.8L77.75,119.05L57.75,86.25L57.55,85.1C67.683,85 76.45,83.417 83.85,80.35L84.5,80.15C87.9,78.683 90.533,77.083 92.4,75.35" style="fill:#9898cc;fill-opacity:0.7;"/>
                    <path d="M95.3,78.9C98.033,81.7 100.55,84.783 102.85,88.15C114.917,105.917 116.05,124.4 106.25,143.6C101.483,118.633 87.35,101.017 63.85,90.75L63.25,89.4L63.6,87.85L67.25,88.6L68.35,87.05L95.3,78.9M93.9,66.25C91.5,73.25 86.717,77.783 79.55,79.85C74.383,81.35 69.217,81.283 64.05,79.65C62.117,78.983 60.517,77.867 59.25,76.3L59.5,76.2C70.333,76.1 80.483,73.533 89.95,68.5L93.9,66.25M36,164L35.4,161.75C52.433,162.883 69.267,161.217 85.9,156.75C88.833,150.15 93.083,144.417 98.65,139.55L98.85,141.55C96.883,150.817 91.967,157.883 84.1,162.75C68.1,172.55 52.067,172.967 36,164" style="fill:#404280;fill-opacity:0.7;"/>
                    <path d="M11.85,99.2L16.7,102.55C16.233,120.35 19.283,137.45 25.85,153.85L23,152.3C2.567,137.133 -1.15,119.433 11.85,99.2M29.15,75.75C29.083,75.317 29.117,74.85 29.25,74.35L29.5,74.2C36.3,76.033 43.35,76.983 50.65,77.05L51.1,77.75C51.5,78.55 51.5,79.217 51.1,79.75C43.9,82.55 36.717,81.667 29.55,77.1C29.283,76.667 29.15,76.217 29.15,75.75M12,90.1L15.2,85.45C22.533,81.683 29.467,81.967 36,86.3C36.467,87.7 36.3,89.033 35.5,90.3C26.267,103.133 18.433,103.067 12,90.1M26.85,71.35C26.817,72.05 26.517,72.617 25.95,73.05C23.217,73.65 21.05,72.45 19.45,69.45C19.25,68.717 19.283,68.017 19.55,67.35C19.55,66.983 19.683,66.6 19.95,66.2L20.6,66.1C22.5,66.167 24.233,67.05 25.8,68.75C26.3,69.383 26.65,70.25 26.85,71.35" style="fill:#f2f2f9;fill-opacity:0.7;"/>
                </g>
            </g>
        </g>
    </g>
</svg>
