<?xml version="1.0" encoding="UTF-8"?>
<svg version="1.1" viewBox="0 0 133.96 90.9" xmlns="http://www.w3.org/2000/svg" xmlns:cc="http://creativecommons.org/ns#" xmlns:dc="http://purl.org/dc/elements/1.1/" xmlns:rdf="http://www.w3.org/1999/02/22-rdf-syntax-ns#" xmlns:xlink="http://www.w3.org/1999/xlink">
<metadata>
<rdf:RDF>
<cc:Work rdf:about="">
<dc:format>image/svg+xml</dc:format>
<dc:type rdf:resource="http://purl.org/dc/dcmitype/StillImage"/>
</cc:Work>
</rdf:RDF>
</metadata>
<g transform="translate(-208.49 -65)">
<use transform="translate(276.8,67.95)" width="65.650002" height="52" xlink:href="#a"/>
<use transform="matrix(-1.0062 0 0 1 274.55 65)" width="65.650002" height="52" xlink:href="#a"/>
<use transform="translate(244.95,103.9)" width="65.650002" height="52" xlink:href="#a"/>
</g>
<defs>
<g id="a" transform="translate(.5 .5)">
<use transform="translate(-.5 -.5)" width="65.650002" height="52" xlink:href="#b"/>
</g>
<g id="b" transform="translate(.5 .5)">
<path d="m55.35 25.9 0.65-0.4 3.75-2.7v20q-2.1 1.95-5.5 3.65v-14.45h-0.1l0.1-0.5 1.1-5.6m-1.1 5.6v0.5-0.5" fill="#ad0cb1" fill-rule="evenodd"/>
<path d="m17.65 1.85 37.7 24.05-1.1 5.6-0.1 0.5-3.8-3.85-33.45-22.35 0.75-3.95" fill="#560660" fill-rule="evenodd"/>
<path d="m17.65 1.85v-0.05q6.6-1.8 14.65-1.8 12.85 0 21.9 4.55 9.1 4.55 9.1 10.95v0.25q-0.1 3.85-3.55 7.05l-3.75 2.7-0.65 0.4-37.7-24.05" fill="#a00cb1" fill-rule="evenodd"/>
<path d="m59.75 22.8q3.45-3.2 3.55-7.05 2.55 10.4 0.3 20l-0.4 1.15q-0.5 3.2-3.45 5.9v-20" fill="#c353d0" fill-rule="evenodd"/>
<path d="m54.25 46.45-0.05 0.05q-9.05 4.5-21.9 4.5l-4-0.1-1.2-0.1-3.6-20.4q-4.4-0.6-8.25-1.9l-4.9-2-1.75-1-1.3-0.8q-2.6-1.75-4.1-3.7l-0.95-1.5q-0.9-1.85-0.95-3.8v-0.2q0-6.4 9.05-10.95l2.8-1.25 3.75 2.5 33.45 22.35 3.8 3.85h0.1v14.45m-18.9-15.5 2.05-0.15q7.15-0.55 12.95-2.65-5.8 2.1-12.95 2.65l-2.05 0.15" fill="#d08500" fill-rule="evenodd"/>
<path d="m27.1 50.8-9-1.45-4.45-1.4-3.3-1.45-1-0.55-2.05-21.25 1.3 0.8 1.75 1 4.9 2q3.85 1.3 8.25 1.9l3.6 20.4" fill="#a56301" fill-rule="evenodd"/>
<path d="m9.35 45.95q-7.65-4.15-8-9.85l-0.05-0.6v-0.15q-2.6-10.3 0-19.65 0.05 1.95 0.95 3.8l0.95 1.5q1.5 1.95 4.1 3.7l2.05 21.25" fill="#7a4900" fill-rule="evenodd"/>
<path d="m27.1 50.8-9-1.45-4.45-1.4-3.3-1.45-1-0.55" fill="none" stroke="#630766" stroke-linecap="round" stroke-linejoin="round"/>
<path d="m63.3 15.75v-0.25q0-6.4-9.1-10.95-9.05-4.55-21.9-4.55-8.05 0-14.65 1.8v0.05l37.7 24.05m4.4-3.1q3.45-3.2 3.55-7.05 2.55 10.4 0.3 20l-0.4 1.15q-0.5 3.2-3.45 5.9" fill="none" stroke="#cf68d2" stroke-linecap="round" stroke-linejoin="round"/>
<path d="m55.35 25.9 0.65-0.4 3.75-2.7m0 20q-2.1 1.95-5.5 3.65m0-14.45v-0.5l-0.1 0.5m1.2-6.1-1.1 5.6m5.5 11.3v-20" fill="none" stroke="#920a96" stroke-linecap="round" stroke-linejoin="round"/>
<path d="m54.25 46.45-0.05 0.05q-9.05 4.5-21.9 4.5l-4-0.1-1.2-0.1-3.6-20.4q-4.4-0.6-8.25-1.9l-4.9-2-1.75-1-1.3-0.8q-2.6-1.75-4.1-3.7l-0.95-1.5q-0.9-1.85-0.95-3.8v-0.2q0-6.4 9.05-10.95l2.8-1.25 3.75 2.5 33.45 22.35q-5.8 2.1-12.95 2.65l-2.05 0.15m18.8 1.05h0.1v14.45m-0.1-14.45-3.8-3.85" fill="none" stroke="#915600" stroke-linecap="round" stroke-linejoin="round"/>
<path d="m9.35 45.95q-7.65-4.15-8-9.85l-0.05-0.6v-0.15q-2.6-10.3 0-19.65" fill="none" stroke="#6c4000" stroke-linecap="round" stroke-linejoin="round"/>
</g>
</defs>
</svg>
