<?xml version="1.0" encoding="UTF-8" standalone="no"?>
<!DOCTYPE svg PUBLIC "-//W3C//DTD SVG 1.1//EN" "http://www.w3.org/Graphics/SVG/1.1/DTD/svg11.dtd">
<svg width="100%" height="100%" viewBox="0 0 1184 1716" version="1.1" xmlns="http://www.w3.org/2000/svg" xmlns:xlink="http://www.w3.org/1999/xlink" xml:space="preserve" xmlns:serif="http://www.serif.com/" style="fill-rule:evenodd;clip-rule:evenodd;stroke-linecap:round;stroke-linejoin:round;">
    <g transform="matrix(1,0,0,1,-2726.5,-2928)">
        <g transform="matrix(10,0,0,10,2731.5,2878.5)">
            <g id="sprite0">
                <g id="shape0">
                    <path d="M81.15,90.4L81.2,90.6L81.3,90.7L81.55,92.15L81.3,93.8L81.2,93.9L80.75,94.5L80.5,94.5L80.2,94.05L80.05,93.6L80,92.75L80.05,92.8L80.1,92.9L80.35,92.9L80.9,92.05L81.15,90.45L81.15,90.4" style="fill:#957440;"/>
                    <path d="M81.15,90.45L80.9,92.05L80.35,92.9L80.1,92.9L80.05,92.8L80,92.75L80.05,93.6L80.2,94.05L80.5,94.5L80.45,94.5L80.2,94.05L80.1,94L80.05,93.8L80.05,93.6C79.917,93.333 79.9,93.033 80,92.7L80.2,91.05C80.3,90.65 80.433,90.4 80.6,90.3L81.1,90.3L81.1,90.4L81.15,90.45" style="fill:#ab8649;"/>
                    <path d="M62.8,91.45C62.667,91.183 62.583,90.85 62.55,90.45C62.45,89.817 62.567,89.3 62.9,88.9C63.233,88.433 63.483,88.15 63.65,88.05L63.7,88L63.8,88L63.95,88.05L64.3,88.05L80.6,90.3C80.433,90.4 80.3,90.65 80.2,91.05L80,92.7L79.65,92.8L79.1,92.95L78.5,93.05L77.7,93.05L76.4,92.9L75.65,92.55L75.3,92.45L72.8,91.35L72.75,91.3L72.65,91.25L72.55,91.25L72.5,91.2L72.45,91.05L72.3,91.05L72.1,90.95L71.9,90.95L71.7,93.3L60.05,128.9L59.2,128.65L59,128.6L56.6,128.25L56.55,128.25L69.25,93.15L69.55,92.35L62.8,91.45" style="fill:#c4a773;"/>
                    <path d="M62.8,91.45L69.55,92.35L69.25,93.15L63.45,92.3L63,91.7L62.8,91.45M60.05,128.9L71.7,93.3L70.95,97.3L70.4,98.6L60.7,129.1L60.25,128.9L60.05,128.9M72.8,91.35L75.3,92.45L75.65,92.55L76.4,92.9L77.7,93.05L78.5,93.05L79.1,92.95L79.65,92.8L80,92.7C79.9,93.033 79.917,93.333 80.05,93.6L80.05,93.8L78.25,93.65L75.95,93.6L74.7,93.3L73.75,92.7L73.6,92.5L73.55,92.35C73.583,91.883 73.4,91.583 73,91.45L72.9,91.45L72.9,91.4L72.8,91.35" style="fill:#b9955b;"/>
                    <path d="M71.7,93.3L71.9,90.95L72.1,90.95L72.3,91.05L72.45,91.05L72.5,91.2L72.55,91.25L72.65,91.25L72.75,91.3L72.8,91.35L72.9,91.4L72.75,91.7L72.75,91.95L72.5,93.35L71.8,95.75L71.3,97.3L71.05,98.15L70.3,100.5L69.5,102.8L69.2,103.85L68.6,106.25L68.35,106.95L68.05,107.6L68,107.85L67.75,108.45L67.1,110.9L66.3,113.25L65.6,115.6L65.15,116.8L64.6,117.95L63.95,120.3L63.65,121.55L63.4,122.4L63.3,122.8L62.6,125L62.15,126.35L61.6,127.6L61.05,129.25L60.7,129.1L70.4,98.6L70.95,97.3L71.7,93.3" style="fill:#b48d50;"/>
                    <path d="M61.05,129.25L61.6,127.6L62.15,126.35L62.6,125L63.3,122.8L63.4,122.4L63.65,121.55L63.95,120.3L64.6,117.95L65.15,116.8L65.6,115.6L66.3,113.25L67.1,110.9L67.75,108.45L68,107.85L68.05,107.6L68.35,106.95L68.6,106.25L69.2,103.85L69.5,102.8L70.3,100.5L71.05,98.15L71.3,97.3L71.8,95.75L72.5,93.35L72.75,91.95L72.75,91.7L72.9,91.4L72.9,91.45L73,91.45C73.4,91.583 73.583,91.883 73.55,92.35L73.6,92.5L73.75,92.7L74.7,93.3L75.95,93.6L78.25,93.65L80.05,93.8L80.1,94L80.2,94.05L80.45,94.5L73.15,93.6L69.1,106.05L69.05,106.25L68.95,106.45L68.8,106.9L68.8,106.95L68.6,107.65L61.55,129.35L61.05,129.25M68.8,106.9L68.6,107.65L68.8,106.9" style="fill:#9e7c45;"/>
                    <path d="M59.15,129.95L58.55,129.8L57.95,129.7L57.65,129.7C57.183,129.7 56.75,129.833 56.35,130.1L55.9,130.45C55.6,130.817 55.417,131.2 55.35,131.6L51.2,149.6L51.15,149.8L50.95,150.05L50.55,150.45L50.15,150.6L50.25,150.15L54.35,132.6L54.45,131.95L54.7,130.75C54.8,130.317 55,129.967 55.3,129.7L56.3,128.95L57.05,128.9L57.3,128.9L57.95,128.95L58.5,129.15L59.15,129.95M64.15,134.05L64.55,134.25L64.7,134.45L64.55,134.3L64.15,134.05M67.15,136.55L67.15,136.85C67.283,138.017 67.283,139.283 67.15,140.65L66.5,143.95C67.167,139.617 66.567,136.45 64.7,134.45L65.35,134.85L65.4,134.95L67.15,136.55" style="fill:#dadada;"/>
                    <path d="M51.2,149.6L55.35,131.6C55.417,131.2 55.6,130.817 55.9,130.45L56.35,130.1C56.75,129.833 57.183,129.7 57.65,129.7L57.95,129.7L58.55,129.8L59.15,129.95L59.4,130.65L59.65,131.3L59.65,131.5L59.6,131.85L59.3,132.7L59,133.35L51.2,149.6M54.35,132.6L50.25,150.15L50.15,150.6C50.15,151 50.417,151.267 50.95,151.4L51.8,151.25L51.4,151.5L52.35,151.4L53.1,151.2L53.95,149.8L61.4,134.55L61.95,133.05L62,132.95L62.35,133L64.1,133.95L64.15,134.05L64.55,134.3L64.7,134.45C66.567,136.45 67.167,139.617 66.5,143.95L63.4,161.15L63.4,161.45L34.45,157.05L44.7,139.6C46.833,135.667 50.05,133.333 54.35,132.6M30.05,156.85L30.7,161.1L30.7,161.15L29.25,156.85L30.05,156.85" style="fill:#999;"/>
                    <path d="M57.05,128.9L56.3,128.95L55.3,129.7C55,129.967 54.8,130.317 54.7,130.75L54.45,131.95L54.25,132.05C51.95,130.95 49.65,130.517 47.35,130.75C49.883,129.217 52.883,128.583 56.35,128.85L57.05,128.9" style="fill:#707070;"/>
                    <path d="M56.55,128.25L56.6,128.25L59,128.6L59.2,128.65L60.05,128.9L60.25,128.9L60.7,129.1L61.05,129.25L61.55,129.35C65.083,130.783 67.133,133.067 67.7,136.2L67.75,136.55L67.85,138.6L67.7,140.3L64.15,161.4L64.15,161.45L63.4,161.15L66.5,143.95L67.15,140.65C67.283,139.283 67.283,138.017 67.15,136.85L67.15,136.55C66.883,135.45 66.45,134.45 65.85,133.55L65.6,133.05L65.15,132.45L64.55,131.9C63.717,131.133 62.667,130.483 61.4,129.95C61.233,129.817 61.067,129.733 60.9,129.7L60.5,129.6L59.9,129.35L59.6,129.3L57.95,128.95L57.3,128.9L57.05,128.9L56.35,128.85C52.883,128.583 49.883,129.217 47.35,130.75C45.15,132.05 43.333,134 41.9,136.6L30.05,156.85L29.25,156.85L41.5,136.05C44.7,130.183 49.717,127.583 56.55,128.25" style="fill:#ccc;"/>
                    <path d="M58.5,129.15L57.95,128.95L59.6,129.3L59.9,129.35L60.5,129.6L60.9,129.7C61.067,129.733 61.233,129.817 61.4,129.95C62.667,130.483 63.717,131.133 64.55,131.9L64.55,134.25L64.15,134.05L64.1,133.95L62.35,133L62,132.95C61.967,132.35 61.65,131.717 61.05,131.05L60.65,130.65L60.3,130.35L59.75,129.95L59.55,129.75L59.35,129.65L59.3,129.6L59.25,129.6L59.15,129.5L58.5,129.15" style="fill:#808080;"/>
                    <path d="M59.15,129.95L58.5,129.15L59.15,129.5L59.25,129.6L59.3,129.6L59.35,129.65L59.55,129.75L59.6,129.8L59.65,129.95L60.25,130.55L60.5,131.05L60.85,131.85L60.9,132.15L60.9,132.55L60.85,132.7L60.3,134.2L52.35,150.65L52.25,150.85L51.8,151.25L50.95,151.4C50.417,151.267 50.15,151 50.15,150.6L50.55,150.45L50.95,150.05L51.15,149.8L51.2,149.6L59,133.35L59.3,132.7L59.6,131.85L59.65,131.5L59.65,131.3L59.4,130.65L59.15,129.95" style="fill:#858585;"/>
                    <path d="M54.45,131.95L54.35,132.6C50.05,133.333 46.833,135.667 44.7,139.6L34.45,157.05L33.15,156.9L43.55,139.15C45.883,134.917 49.45,132.55 54.25,132.05L54.45,131.95M60.9,132.55L62,132.95L61.95,133.05L61.4,134.55L53.95,149.8L53.1,151.2L52.35,151.4L51.4,151.5L51.8,151.25L52.25,150.85L52.35,150.65L60.3,134.2L60.85,132.7L60.9,132.55" style="fill:#757575;"/>
                    <path d="M59.6,129.8L59.75,129.95L60.3,130.35L60.65,130.65L61.05,131.05C61.65,131.717 61.967,132.35 62,132.95L60.9,132.55L60.9,132.15L60.85,131.85L60.5,131.05L60.25,130.55L59.65,129.95L59.6,129.8" style="fill:#5a5a5a;"/>
                    <path d="M47.35,130.75C49.65,130.517 51.95,130.95 54.25,132.05C49.45,132.55 45.883,134.917 43.55,139.15L33.15,156.9L32.7,157.7L31.05,161.4L30.75,161.3L30.7,161.15L30.7,161.1L30.05,156.85L41.9,136.6C43.333,134 45.15,132.05 47.35,130.75" style="fill:#666;"/>
                    <path d="M64.55,134.25L64.55,131.9L65.15,132.45L65.6,133.05L65.85,133.55C66.45,134.45 66.883,135.45 67.15,136.55L65.4,134.95L65.35,134.85L64.7,134.45L64.55,134.25" style="fill:#9f9f9f;"/>
                    <path d="M64.15,161.45L64.15,161.4L67.7,140.3L67.85,138.6C68.183,139.567 68.317,140.633 68.25,141.8L64.1,166.15L64.15,161.45" style="fill:#575757;"/>
                    <path d="M31.05,161.4L32.7,157.7L33.15,156.9L34.45,157.05L31.6,161.45L31.05,161.4" style="fill:#828282;"/>
                    <path d="M63.75,166.35L31.6,161.45L34.45,157.05L63.4,161.45L63.75,166.35" style="fill:#aaa;"/>
                    <path d="M63.4,161.15L64.15,161.45L64.1,166.15L63.95,166.4L63.75,166.35L63.4,161.45L63.4,161.15" style="fill:#878787;"/>
                    <path d="M81.3,90.7L81.2,90.6L81.15,90.4M80.5,94.5L80.6,94.5M80.65,94.5L80.75,94.5L81.2,93.9L81.3,93.8M80.65,90.3L81.1,90.3L81.1,90.4L81.15,90.45M80.6,90.3L64.3,88.05L63.95,88.05L63.8,88L63.7,88L63.65,88.05C63.483,88.15 63.233,88.433 62.9,88.9C62.567,89.3 62.45,89.817 62.55,90.45C62.583,90.85 62.667,91.183 62.8,91.45L63,91.7L63.45,92.3L69.25,93.15L56.55,128.25L56.6,128.25L59,128.6L59.2,128.65L60.05,128.9L60.25,128.9L60.7,129.1L61.05,129.25L61.55,129.35C65.083,130.783 67.133,133.067 67.7,136.2L67.75,136.55L67.85,138.6C68.183,139.567 68.317,140.633 68.25,141.8L64.1,166.15L63.95,166.4L63.75,166.35L31.6,161.45L31.05,161.4L30.75,161.3L30.7,161.15L29.25,156.85L41.5,136.05C44.7,130.183 49.717,127.583 56.55,128.25M73.15,93.6L80.45,94.5L80.5,94.5M68.8,106.9L68.8,106.95L68.6,107.65M64.15,161.45L64.15,161.4M63.4,161.2L63.4,161.15" style="fill:none;fill-rule:nonzero;stroke:#69513b;stroke-width:0.05px;"/>
                    <path d="M81.3,93.8L81.55,92.15L81.3,90.7M81.1,90.4L81.15,90.4M80.6,90.3L80.65,90.3M61.55,129.35L68.6,107.65L68.8,106.9L68.95,106.45L69.05,106.25L69.1,106.05L73.15,93.6M64.1,166.15L64.1,166.4L63.95,166.4" style="fill:none;fill-rule:nonzero;stroke:#69513b;stroke-width:1px;"/>
                    <path d="M17.45,81.15C19.117,79.483 20.933,77.967 22.9,76.6C24.5,77.733 26.5,78.8 28.9,79.8C36.533,83.2 45.783,84.917 56.65,84.95L57.6,84.9L57.8,86.1L77.8,118.8L76.75,154.6L62.55,168.5L37.65,171.85C30.317,169.017 23.517,164.583 17.25,158.55C5.75,147.917 0.017,135.017 0.05,119.85C0.083,104.717 5.883,91.817 17.45,81.15" style="fill:#9999cb;fill-opacity:0.5;"/>
                    <path d="M55.7,5.65L63.5,5.45C73.433,5.483 82.183,6.283 89.75,7.85C99.383,9.817 104.25,12.467 104.35,15.8L104.45,16.45L104.2,17.3L91.75,60.85L90.8,63.4L90.9,63.9L89.95,67.9C88.45,70.1 85.517,72.033 81.15,73.7L74.7,75.65C74.367,73.717 73.85,71.817 73.15,69.95C71.05,64.717 73.133,60.333 79.4,56.8C80.2,53.167 77.567,50.25 71.5,48.05C77.067,49.55 80.817,47.533 82.75,42C84.25,37.767 83.117,35.8 79.35,36.1C81.15,35.7 82.433,34.517 83.2,32.55C84.367,29.95 84.85,27.867 84.65,26.3C84.117,23 80.533,21.833 73.9,22.8L77.35,17.05C72.517,12.817 66.983,12.4 60.75,15.8C62.517,13.733 63.417,11.6 63.45,9.4C60.717,8.267 58.133,7.017 55.7,5.65M104.2,17.3C102.933,20.067 98.333,22.583 90.4,24.85L84.65,26.3L90.4,24.85C98.333,22.583 102.933,20.067 104.2,17.3" style="fill:#825a33;"/>
                    <path d="M41.85,6.55L54.65,5.65L55.7,5.65C58.133,7.017 60.717,8.267 63.45,9.4C63.417,11.6 62.517,13.733 60.75,15.8C66.983,12.4 72.517,12.817 77.35,17.05L73.9,22.8C80.533,21.833 84.117,23 84.65,26.3C84.85,27.867 84.367,29.95 83.2,32.55C82.433,34.517 81.15,35.7 79.35,36.1C83.117,35.8 84.25,37.767 82.75,42C80.817,47.533 77.067,49.55 71.5,48.05C77.567,50.25 80.2,53.167 79.4,56.8C73.133,60.333 71.05,64.717 73.15,69.95C73.85,71.817 74.367,73.717 74.7,75.65C69.6,76.917 63.85,77.5 57.45,77.4L55.25,76.95L65.25,29.05L65.4,29.15L41.85,6.55M84.65,26.3C78.85,27.6 72.433,28.55 65.4,29.15C72.433,28.55 78.85,27.6 84.65,26.3" style="fill:#b9874a;"/>
                    <path d="M91.75,60.85C94.583,63.617 96,66.017 96,68.05C96,70.717 94.8,73.15 92.4,75.35C90.533,77.083 87.9,78.683 84.5,80.15L83.85,80.35C76.45,83.417 67.683,85 57.55,85.1L56.9,77.35L57.45,77.4C63.85,77.5 69.6,76.917 74.7,75.65L81.15,73.7C85.517,72.033 88.45,70.1 89.95,67.9C90.517,66.867 90.817,65.75 90.85,64.55L90.95,64.45L90.9,63.9L91.05,63.6L91.75,60.85" style="fill:#9898cc;fill-opacity:0.7;"/>
                    <path d="M27.7,8.65C32.033,7.75 36.75,7.05 41.85,6.55L65.4,29.15L65.25,29.05L53.6,29.65L65.25,29.05L55.25,76.95L57.45,77.4L56.9,77.35L50,77.05C46.067,76.75 42.433,76.167 39.1,75.3L33.85,73.6L32.1,72.85L13.85,25.3C15.917,26.067 18.5,26.767 21.6,27.4L24.9,28.05L33.45,28.8L35.75,43.2L35.75,29L36.8,24.1L35.15,26.4L33.8,24.65C31.567,21.517 29.533,16.183 27.7,8.65M90.8,63.4L91.75,60.85L90.9,63.5L90.8,63.4M53.6,27.15L53.6,29.65C53.5,34.617 53.167,39.4 52.6,44C53.167,39.4 53.5,34.617 53.6,29.65L53.6,27.15M36.7,72.75C34.167,65.75 31.517,56.933 28.75,46.3C26.15,36.233 24.867,30.15 24.9,28.05C24.867,30.15 26.15,36.233 28.75,46.3C31.517,56.933 34.167,65.75 36.7,72.75M35.9,47.4L35.75,43.2L35.9,47.4M50,77.05C50.4,75.183 51.233,71.883 52.5,67.15C54.467,59.75 55.833,55.333 56.6,53.9C55.833,55.333 54.467,59.75 52.5,67.15C51.233,71.883 50.4,75.183 50,77.05M42.6,16.05L36.8,24.1L42.6,16.05M53.6,29.65L35.75,29L53.6,29.65M41.6,38.35L39.1,75.3L41.6,38.35" style="fill:#d2b88c;"/>
                    <path d="M91.75,60.85L91.05,63.6L90.9,63.5L91.75,60.85" style="fill:#990;"/>
                    <path d="M22.35,60.6L7.9,21.9C7.233,21.167 6.867,20.35 6.8,19.45C6.667,16.083 11.383,13.05 20.95,10.35L27.7,8.65C29.533,16.183 31.567,21.517 33.8,24.65L35.15,26.4L33.45,28.8L24.9,28.05L21.6,27.4C18.5,26.767 15.917,26.067 13.85,25.3C11.017,24.3 9.033,23.167 7.9,21.9C9.033,23.167 11.017,24.3 13.85,25.3L32.1,72.85C27.633,70.817 25.05,68.483 24.35,65.85L22.35,60.6" style="fill:#dbc5a4;"/>
                    <path d="M35.15,26.4L36.8,24.1L35.75,29L35.75,43.2L33.45,28.8L35.15,26.4" style="fill:#a57341;"/>
                    <path d="M22.85,76.75C19.117,74.217 17.283,71.25 17.35,67.85C17.217,65.583 18.883,63.167 22.35,60.6L24.35,65.85C25.05,68.483 27.633,70.817 32.1,72.85L33.85,73.6L39.1,75.3C42.433,76.167 46.067,76.75 50,77.05L56.9,77.35L57.55,85.1L56.6,85.15C45.733,85.15 36.483,83.45 28.85,80.05C26.45,79.017 24.45,77.917 22.85,76.75M49.7,78.75L50,77.05L49.7,78.75" style="fill:#9999cb;fill-opacity:0.5;"/>
                    <path d="M84.65,26.3L90.4,24.85C98.333,22.583 102.933,20.067 104.2,17.3M65.25,29.05L65.4,29.15C72.433,28.55 78.85,27.6 84.65,26.3M53.6,29.65L65.25,29.05M33.45,28.8L35.75,43.2L35.75,29L36.8,24.1L35.15,26.4L33.45,28.8L24.9,28.05L21.6,27.4C18.5,26.767 15.917,26.067 13.85,25.3C11.017,24.3 9.033,23.167 7.9,21.9M35.75,43.2L35.9,47.4M39.1,75.3L41.6,38.35M35.75,29L53.6,29.65M36.8,24.1L42.6,16.05" style="fill:none;fill-rule:nonzero;stroke:#003200;stroke-opacity:0.5;stroke-width:0.05px;"/>
                    <path d="M55.7,5.65L63.5,5.45C73.433,5.483 82.183,6.283 89.75,7.85C99.383,9.817 104.25,12.467 104.35,15.8L104.45,16.45L104.2,17.3L91.75,60.85M22.35,60.6L7.9,21.9C7.233,21.167 6.867,20.35 6.8,19.45C6.667,16.083 11.383,13.05 20.95,10.35L27.7,8.65C32.033,7.75 36.75,7.05 41.85,6.55L54.65,5.65L55.7,5.65" style="fill:none;fill-rule:nonzero;stroke:#960;stroke-width:1px;"/>
                    <path d="M89.95,67.9L90.9,63.9L91.05,63.6L91.75,60.85M24.35,65.85L22.35,60.6" style="fill:none;fill-rule:nonzero;stroke:#960;stroke-width:0.05px;"/>
                    <path d="M74.7,75.65L81.15,73.7C85.517,72.033 88.45,70.1 89.95,67.9C90.517,66.867 90.817,65.75 90.85,64.55L90.95,64.45L90.9,63.9M92.4,75.35C90.533,77.083 87.9,78.683 84.5,80.15L83.85,80.35C76.45,83.417 67.683,85 57.55,85.1L56.6,85.15C45.733,85.15 36.483,83.45 28.85,80.05C26.45,79.017 24.45,77.917 22.85,76.75M57.45,77.4C63.85,77.5 69.6,76.917 74.7,75.65M32.1,72.85C27.633,70.817 25.05,68.483 24.35,65.85M50,77.05C46.067,76.75 42.433,76.167 39.1,75.3L33.85,73.6L32.1,72.85M50,77.05L56.9,77.35L57.45,77.4" style="fill:none;fill-rule:nonzero;stroke:#67afaf;stroke-width:0.05px;"/>
                    <path d="M91.75,60.85C94.583,63.617 96,66.017 96,68.05C96,70.717 94.8,73.15 92.4,75.35C95.067,77.15 97.683,79.217 100.25,81.55C111.65,92.25 117.35,105.183 117.35,120.35C117.25,135.45 111.533,148.333 100.2,159C87.9,170.367 74,176.05 58.5,176.05C51.1,176.05 44.133,174.717 37.6,172.05C30.3,169.217 23.5,164.783 17.2,158.75C5.7,148.083 -0.033,135.2 0,120.1C0.033,104.967 5.817,92.067 17.35,81.4C19.05,79.733 20.883,78.183 22.85,76.75C19.117,74.217 17.283,71.25 17.35,67.85C17.217,65.583 18.883,63.167 22.35,60.6" style="fill:none;fill-rule:nonzero;stroke:#67afaf;stroke-width:1px;"/>
                    <path d="M53.6,29.65C53.5,34.617 53.167,39.4 52.6,44M53.6,29.65L53.6,27.15M24.9,28.05C24.867,30.15 26.15,36.233 28.75,46.3C31.517,56.933 34.167,65.75 36.7,72.75M56.6,53.9C55.833,55.333 54.467,59.75 52.5,67.15C51.233,71.883 50.4,75.183 50,77.05L49.7,78.75" style="fill:none;fill-rule:nonzero;stroke:#b9874a;stroke-opacity:0.5;stroke-width:0.05px;"/>
                </g>
                <g id="shape1" transform="matrix(-0.6712,-0.5337,-0.5337,0.6712,100.1,14.25)">
                    <path d="M26.4,22.9C26.233,23.133 25.967,23.283 25.6,23.35C24.567,23.55 22.917,23.067 20.65,21.9C17.55,20.333 14.2,18 10.6,14.9C7,11.833 4.2,8.883 2.2,6.05C0.467,3.65 -0.25,1.95 0.05,0.95L0.15,0.65L0.3,0.5C1.067,-0.4 2.983,-0.067 6.05,1.5C9.15,3.067 12.5,5.4 16.1,8.5C19.7,11.6 22.517,14.55 24.55,17.35C26.55,20.15 27.167,22 26.4,22.9" style="fill:#6d532c;"/>
                    <path d="M26.4,22.9C26.233,23.133 25.967,23.283 25.6,23.35C24.567,23.55 22.917,23.067 20.65,21.9C17.55,20.333 14.2,18 10.6,14.9C7,11.833 4.2,8.883 2.2,6.05C0.467,3.65 -0.25,1.95 0.05,0.95L0.15,0.65L0.3,0.5C1.067,-0.4 2.983,-0.067 6.05,1.5C9.15,3.067 12.5,5.4 16.1,8.5C19.7,11.6 22.517,14.55 24.55,17.35C26.55,20.15 27.167,22 26.4,22.9Z" style="fill:none;fill-rule:nonzero;stroke:#960;stroke-width:0.05px;"/>
                </g>
                <g id="shape11" serif:id="shape1" transform="matrix(-0.3193,-0.2539,-0.2539,0.3193,73.4,23.2)">
                    <path d="M26.4,22.9C26.233,23.133 25.967,23.283 25.6,23.35C24.567,23.55 22.917,23.067 20.65,21.9C17.55,20.333 14.2,18 10.6,14.9C7,11.833 4.2,8.883 2.2,6.05C0.467,3.65 -0.25,1.95 0.05,0.95L0.15,0.65L0.3,0.5C1.067,-0.4 2.983,-0.067 6.05,1.5C9.15,3.067 12.5,5.4 16.1,8.5C19.7,11.6 22.517,14.55 24.55,17.35C26.55,20.15 27.167,22 26.4,22.9" style="fill:#6d532c;"/>
                    <path d="M26.4,22.9C26.233,23.133 25.967,23.283 25.6,23.35C24.567,23.55 22.917,23.067 20.65,21.9C17.55,20.333 14.2,18 10.6,14.9C7,11.833 4.2,8.883 2.2,6.05C0.467,3.65 -0.25,1.95 0.05,0.95L0.15,0.65L0.3,0.5C1.067,-0.4 2.983,-0.067 6.05,1.5C9.15,3.067 12.5,5.4 16.1,8.5C19.7,11.6 22.517,14.55 24.55,17.35C26.55,20.15 27.167,22 26.4,22.9Z" style="fill:none;fill-rule:nonzero;stroke:#960;stroke-width:0.05px;"/>
                </g>
                <g id="shape12" serif:id="shape1" transform="matrix(-0.2665,-0.2119,-0.2119,0.2665,30.2,19.7)">
                    <path d="M26.4,22.9C26.233,23.133 25.967,23.283 25.6,23.35C24.567,23.55 22.917,23.067 20.65,21.9C17.55,20.333 14.2,18 10.6,14.9C7,11.833 4.2,8.883 2.2,6.05C0.467,3.65 -0.25,1.95 0.05,0.95L0.15,0.65L0.3,0.5C1.067,-0.4 2.983,-0.067 6.05,1.5C9.15,3.067 12.5,5.4 16.1,8.5C19.7,11.6 22.517,14.55 24.55,17.35C26.55,20.15 27.167,22 26.4,22.9" style="fill:#6d532c;"/>
                    <path d="M26.4,22.9C26.233,23.133 25.967,23.283 25.6,23.35C24.567,23.55 22.917,23.067 20.65,21.9C17.55,20.333 14.2,18 10.6,14.9C7,11.833 4.2,8.883 2.2,6.05C0.467,3.65 -0.25,1.95 0.05,0.95L0.15,0.65L0.3,0.5C1.067,-0.4 2.983,-0.067 6.05,1.5C9.15,3.067 12.5,5.4 16.1,8.5C19.7,11.6 22.517,14.55 24.55,17.35C26.55,20.15 27.167,22 26.4,22.9Z" style="fill:none;fill-rule:nonzero;stroke:#960;stroke-width:0.05px;"/>
                </g>
                <g id="shape13" serif:id="shape1" transform="matrix(-0.3193,-0.2539,-0.2539,0.3193,74.15,9.85)">
                    <path d="M26.4,22.9C26.233,23.133 25.967,23.283 25.6,23.35C24.567,23.55 22.917,23.067 20.65,21.9C17.55,20.333 14.2,18 10.6,14.9C7,11.833 4.2,8.883 2.2,6.05C0.467,3.65 -0.25,1.95 0.05,0.95L0.15,0.65L0.3,0.5C1.067,-0.4 2.983,-0.067 6.05,1.5C9.15,3.067 12.5,5.4 16.1,8.5C19.7,11.6 22.517,14.55 24.55,17.35C26.55,20.15 27.167,22 26.4,22.9" style="fill:#6d532c;"/>
                    <path d="M26.4,22.9C26.233,23.133 25.967,23.283 25.6,23.35C24.567,23.55 22.917,23.067 20.65,21.9C17.55,20.333 14.2,18 10.6,14.9C7,11.833 4.2,8.883 2.2,6.05C0.467,3.65 -0.25,1.95 0.05,0.95L0.15,0.65L0.3,0.5C1.067,-0.4 2.983,-0.067 6.05,1.5C9.15,3.067 12.5,5.4 16.1,8.5C19.7,11.6 22.517,14.55 24.55,17.35C26.55,20.15 27.167,22 26.4,22.9Z" style="fill:none;fill-rule:nonzero;stroke:#960;stroke-width:0.05px;"/>
                </g>
                <g id="shape14" serif:id="shape1" transform="matrix(-0.5619,-0.4467,-0.4467,0.5619,57.2,13.4)">
                    <path d="M26.4,22.9C26.233,23.133 25.967,23.283 25.6,23.35C24.567,23.55 22.917,23.067 20.65,21.9C17.55,20.333 14.2,18 10.6,14.9C7,11.833 4.2,8.883 2.2,6.05C0.467,3.65 -0.25,1.95 0.05,0.95L0.15,0.65L0.3,0.5C1.067,-0.4 2.983,-0.067 6.05,1.5C9.15,3.067 12.5,5.4 16.1,8.5C19.7,11.6 22.517,14.55 24.55,17.35C26.55,20.15 27.167,22 26.4,22.9" style="fill:#6d532c;"/>
                    <path d="M26.4,22.9C26.233,23.133 25.967,23.283 25.6,23.35C24.567,23.55 22.917,23.067 20.65,21.9C17.55,20.333 14.2,18 10.6,14.9C7,11.833 4.2,8.883 2.2,6.05C0.467,3.65 -0.25,1.95 0.05,0.95L0.15,0.65L0.3,0.5C1.067,-0.4 2.983,-0.067 6.05,1.5C9.15,3.067 12.5,5.4 16.1,8.5C19.7,11.6 22.517,14.55 24.55,17.35C26.55,20.15 27.167,22 26.4,22.9Z" style="fill:none;fill-rule:nonzero;stroke:#960;stroke-width:0.05px;"/>
                </g>
                <g id="shape2">
                    <path d="M100.25,81.55C111.65,92.25 117.35,105.183 117.35,120.35C117.25,135.45 111.533,148.333 100.2,159C87.9,170.367 74,176.05 58.5,176.05C51.1,176.05 44.133,174.717 37.6,172.05L62.5,168.75L76.7,154.8L77.75,119.05L57.75,86.25L57.55,85.1C67.683,85 76.45,83.417 83.85,80.35L84.5,80.15C87.9,78.683 90.533,77.083 92.4,75.35C95.067,77.15 97.683,79.217 100.25,81.55" style="fill:#9898cc;fill-opacity:0.7;"/>
                    <path d="M95.3,78.9C98.033,81.7 100.55,84.783 102.85,88.15C114.917,105.917 116.05,124.4 106.25,143.6C101.483,118.633 87.35,101.017 63.85,90.75L63.25,89.4L63.6,87.85L67.25,88.6L68.35,87.05L95.3,78.9M93.9,66.25C91.5,73.25 86.717,77.783 79.55,79.85C74.383,81.35 69.217,81.283 64.05,79.65C62.117,78.983 60.517,77.867 59.25,76.3L59.5,76.2C70.333,76.1 80.483,73.533 89.95,68.5L93.9,66.25M36,164L35.4,161.75C52.433,162.883 69.267,161.217 85.9,156.75C88.833,150.15 93.083,144.417 98.65,139.55L98.85,141.55C96.883,150.817 91.967,157.883 84.1,162.75C68.1,172.55 52.067,172.967 36,164" style="fill:#404280;fill-opacity:0.7;"/>
                    <path d="M11.85,99.2L16.7,102.55C16.233,120.35 19.283,137.45 25.85,153.85L23,152.3C2.567,137.133 -1.15,119.433 11.85,99.2M29.15,75.75C29.083,75.317 29.117,74.85 29.25,74.35L29.5,74.2C36.3,76.033 43.35,76.983 50.65,77.05L51.1,77.75C51.5,78.55 51.5,79.217 51.1,79.75C43.9,82.55 36.717,81.667 29.55,77.1C29.283,76.667 29.15,76.217 29.15,75.75M12,90.1L15.2,85.45C22.533,81.683 29.467,81.967 36,86.3C36.467,87.7 36.3,89.033 35.5,90.3C26.267,103.133 18.433,103.067 12,90.1M25.8,68.75C26.3,69.383 26.65,70.25 26.85,71.35C26.817,72.05 26.517,72.617 25.95,73.05C23.217,73.65 21.05,72.45 19.45,69.45C19.25,68.717 19.283,68.017 19.55,67.35C19.55,66.983 19.683,66.6 19.95,66.2L20.6,66.1C22.5,66.167 24.233,67.05 25.8,68.75" style="fill:#f2f2f9;fill-opacity:0.7;"/>
                </g>
            </g>
        </g>
    </g>
</svg>
