<?xml version="1.0" encoding="UTF-8"?>
<svg version="1.1" viewBox="0 0 68.519 81.1" xmlns="http://www.w3.org/2000/svg" xmlns:cc="http://creativecommons.org/ns#" xmlns:dc="http://purl.org/dc/elements/1.1/" xmlns:rdf="http://www.w3.org/1999/02/22-rdf-syntax-ns#" xmlns:xlink="http://www.w3.org/1999/xlink">
<metadata>
<rdf:RDF>
<cc:Work rdf:about="">
<dc:format>image/svg+xml</dc:format>
<dc:type rdf:resource="http://purl.org/dc/dcmitype/StillImage"/>
</cc:Work>
</rdf:RDF>
</metadata>
<g transform="translate(-236.6,-162.9)">
<use transform="translate(236.6,162.9)" width="68.5" height="81.099998" xlink:href="#a"/>
</g>
<defs>
<g id="a" transform="translate(-236.6,-162.9)">
<path d="m285.45 181.05-3.55-3 14.8-15.15-11.25 18.15m-37.7 46.25 4.1 3.9-15.25 12.8 11.15-16.7" fill="#f8fc58" fill-rule="evenodd"/>
<path d="m241.6 176.3 5.7 5.5-3.1 2-2.6-7.5" fill="#f8fc58" fill-rule="evenodd"/>
<path d="m301.5 237.9-5.85-5.35 3.05-2.05 2.8 7.4" fill="#f8fc58" fill-rule="evenodd"/>
<path d="m272.8 196.05v-0.05 0.05" fill="#edb848" fill-rule="evenodd"/>
<path d="m300.65 220.6 0.1 0.05h-0.1v-0.05" fill="#ab7c10" fill-rule="evenodd"/>
<path d="m284.3 185.7q0.9-1.6 1.95-1.6 3.9 1.55 7.45 4.4 5.55 5.25 9.7 12.25v0.05l-2.35 1.75q-4.35-7.3-10.1-12.75-2.45-1.95-5-3.3l-1.65-0.8m-4.9 5.1 5.7-3.75 8.25 6.2q4.25 5.1 7.15 10.5l0.6 2.2-5.4 3.25-0.65-2q-4.3-7.3-10.1-12.75-2.55-2.1-5.25-3.5l-0.15-0.05-0.15-0.1m-6.15 1.6 2.75-1.5 1.9 0.9 0.3 0.15q2.55 1.35 5 3.35 5.75 5.4 10.1 12.7l-2.2 1.35q-4.25-7.7-9.7-12.25-3.7-3-7.8-4.55l-0.35-0.15" fill="#87a7a2" fill-rule="evenodd"/>
<path d="m285.1 187.05 0.85-0.55q2.55 1.35 5 3.3 5.75 5.45 10.1 12.75l0.85 2.95q1 4.25 0.85 8.85l-0.15 2.4-1.95 3.85v0.05l-0.15 0.2-2.1 1.45q1.7-1.3 2.75-5.95 0.75-7.25 0.1-9.95l-0.15-0.45-0.6-2.2q-2.9-5.4-7.15-10.5l-8.25-6.2m-24.1 20.15-0.25-1q-0.25-0.8-0.2-2 0.65-3.85 3.4-6.25 1.45-1.3 3.3-1.85l3.5-0.45 0.65 0.1 0.9 0.25-0.1 1.2q-0.05 0.75 0.35 2.95 0.4 2.15 1.3 4.3l1.05 2.5q1.15 2.15 2.8 4.3l0.9 1.05-1.4 0.6-0.1-0.1-0.5-0.65q-1.75-2.2-2.95-4.45l-0.05-0.15q-2-3.7-2.6-6.75l-10 6.4m18.55-16.3 0.15 0.05q2.7 1.4 5.25 3.5 5.8 5.45 10.1 12.75l0.65 2h-0.05l0.25 0.75q1.2 4.65 1.05 9.65l-0.15 2.45-0.9 2-3.05 2.1q1.1-1.65 2-3.9l0.15-2.45q0.15-5-1.05-9.65l-0.65-2.15q-4.35-7.3-10.1-12.7-2.45-2-5-3.35l1.35-1.05" fill="#283734" fill-rule="evenodd"/>
<path d="m295.7 209.2 5.4-3.25 0.15 0.45q0.65 2.7-0.1 9.95-1.05 4.65-2.75 5.95l-0.2 0.15-2.3 1.6 0.9-2 0.15-2.45q0.15-5-1.05-9.65l-0.25-0.75h0.05m-2.4-1.2 0.65 2.15q1.2 4.65 1.05 9.65l-0.15 2.45q-0.9 2.25-2 3.9l-3.35 2.35q2.45-2.2 3.25-7.85 0.15-5.95-1.65-11.3l2.2-1.35m7.75-5.45 2.35-1.75q2.2 6.4 1.5 13.6-1.75 4.45-4.15 6.25l-0.1-0.05 1.95-3.85 0.15-2.4q0.15-4.6-0.85-8.85l-0.85-2.95" fill="#405753" fill-rule="evenodd"/>
<path d="m275.9 184.1-0.05-0.15q2.75-1.95 6.15-1.1 2.2 0.4 4.25 1.25-1.05 0-1.95 1.6l-1.45-0.65q-2-0.75-4.05-1.15l-2.9 0.2 2.9-0.2q2.05 0.4 4.05 1.15l1.45 0.65 1.65 0.8-0.85 0.55-5.7 3.75-0.8-0.4-0.8-0.35-1.25-0.5-4.55-1.3-2.3 0.1 5.9-4.2 0.3-0.05m-2.65 8.3-3.6-1q-3.3-0.05-5.9 1.2l4.15-3 3.15-0.2q2.05 0.4 4.05 1.15l0.9 0.35-2.75 1.5m14.35 17.3 3.5-0.35q1.8 5.35 1.65 11.3-0.8 5.65-3.25 7.85l-1.25 0.85-0.5 0.35q-3.5 1.5-7.15 1.2l0.05-0.65h0.6l0.85-0.25q1.9-0.75 0.3-2.45l-0.85-0.5-0.7-0.1v-0.2q2.05-0.15 4.05-1 2.15-1.25 3.7-4.95l0.05-0.05 0.1-0.3 0.1-1.5q0.2-4.85-1.25-9.25" fill="#edf1f0" fill-rule="evenodd"/>
<path d="m258.65 211.05q2.05 2.55 4.3 2.6 2.1 4.25 6.15 8.25l2 1.45q3.25 2.05 6.85 3.15l2.9 0.25v0.2l0.7 0.1 0.85 0.5q1.6 1.7-0.3 2.45l-0.85 0.25h-0.6l-0.05 0.65-1.75-0.2q-5.1-1.55-9.6-4.65l-1.65-1.2q-5.2-5.15-7.8-10.55l-1.15-3.25m13.65-15.05 0.5 0.05v-0.05h1.25q0.8-0.3 0.8-0.9l-0.2-0.6q-0.45-0.85-1.25-1.4l-0.4-0.25 0.25-0.45 0.35 0.15q4.1 1.55 7.8 4.55 5.45 4.55 9.7 12.25l-3.5 0.35q-2.9-6.15-7.65-9.6-2.25-1.8-4.65-2.95l-3-1.15" fill="#d0dddb" fill-rule="evenodd"/>
<path d="m257.1 205.1q0.8 1.7 1.8 2.05l0.5-0.1q-0.8-0.65-0.3-4.15 0.5-3.55 4.3-6.5 1.65-1.3 2.65-1.5 0.35-0.1 0.05 0.05 4.35-1.65 8.75 0.15 0 0.6-0.8 0.9h-1.25v0.05l-0.5-0.05-0.9-0.25-0.65-0.1-3.5 0.45q-1.85 0.55-3.3 1.85-2.75 2.4-3.4 6.25-0.05 1.2 0.2 2l0.25 1q0.6 2.85 1.95 6.45-2.25-0.05-4.3-2.6-1.1-3.25-1.55-5.95" fill="#8eaca7" fill-rule="evenodd"/>
<path d="m269.7 188.35 2.3-0.1 4.55 1.3 1.25 0.5 0.8 0.35 0.8 0.4 0.15 0.1-1.35 1.05-0.3-0.15-1.9-0.9-0.9-0.35q-2-0.75-4.05-1.15l-3.15 0.2 1.8-1.25m5.15 6.75q-4.4-1.8-8.75-0.15 0.3-0.15-0.05-0.05-1 0.2-2.65 1.5-3.8 2.95-4.3 6.5-0.5 3.5 0.3 4.15l-0.5 0.1q-1-0.35-1.8-2.05-0.4-1.35 0.1-4.4t2.8-5.2q2.25-2.2 3.75-2.9 2.6-1.25 5.9-1.2l3.6 1-0.25 0.45 0.4 0.25q0.8 0.55 1.25 1.4l0.2 0.6" fill="#bfd0cd" fill-rule="evenodd"/>
<path d="m288.85 218.95-0.1 1.5-0.1 0.3-0.05 0.05q-1.55 3.7-3.7 4.95-2 0.85-4.05 1l-2.9-0.25q-3.6-1.1-6.85-3.15l-2-1.45 9.45-6.5 0.6-0.25-1.95-2.25 1.4-0.6 2.1 2.25q3.8 2.9 8.15 4.4" fill="#1f2927" fill-rule="evenodd"/>
<path d="m262.95 213.65q-1.35-3.6-1.95-6.45l10-6.4q0.6 3.05 2.6 6.75l0.05 0.15q1.2 2.25 2.95 4.45l0.5 0.65 0.1 0.1 1.95 2.25-0.6 0.25-9.45 6.5q-4.05-4-6.15-8.25" fill="#3e5350" fill-rule="evenodd"/>
<path d="m286.25 184.1q-2.05-0.85-4.25-1.25-3.4-0.85-6.15 1.1l-0.25 0.2 0.3-0.05m-18.8 21q0.45 2.7 1.55 5.95m5.1-18.45q-1.5 0.7-3.75 2.9-2.3 2.15-2.8 5.2t-0.1 4.4m10.8-15.5-4.15 3m14.85 19.7-0.9-1.05q-1.65-2.15-2.8-4.3l-1.05-2.5q-0.9-2.15-1.3-4.3-0.4-2.2-0.35-2.95l0.1-1.2 3 1.15q2.4 1.15 4.65 2.95 4.75 3.45 7.65 9.6 1.45 4.4 1.25 9.25m-20.95-29.35 1.8-1.25 5.9-4.2m18.35 26q1.2 4.65 1.05 9.65l-0.15 2.45q-0.9 2.25-2 3.9l3.05-2.1m7.5-23.25v-0.05q-4.15-7-9.7-12.25-3.55-2.85-7.45-4.4m3.25 44.4 3.35-2.35m-12.15-11.6-2.1-2.25m2 18.6q3.65 0.3 7.15-1.2l0.5-0.35 1.25-0.85m8.7-6.05-2.3 1.6m4.85-3.4q2.4-1.8 4.15-6.25 0.7-7.2-1.5-13.6m-2.65 19.85-0.25 0.2-2.1 1.45m2.25-1.65-0.15 0.2m-19.9 10.05-1.75-0.2q-5.1-1.55-9.6-4.65l-1.65-1.2q-5.2-5.15-7.8-10.55l-1.15-3.25" fill="none" stroke="#634819" stroke-linecap="round" stroke-linejoin="round" stroke-width=".1"/>
<path d="m275.9 184.1 2.9-0.2q2.05 0.4 4.05 1.15l1.45 0.65m1.65 0.8-1.65-0.8m1.65 0.8q2.55 1.35 5 3.3 5.75 5.45 10.1 12.75m-0.4 18.05 1.95-3.85 0.15-2.4q0.15-4.6-0.85-8.85l-0.85-2.95m-0.4 18.05v0.05" fill="none" stroke="#463311" stroke-linecap="round" stroke-linejoin="round" stroke-opacity=".2" stroke-width=".1"/>
<path d="m280.85 226.75q2.05-0.15 4.05-1 2.15-1.25 3.7-4.95l0.05-0.05 0.1-0.3 0.1-1.5q-4.35-1.5-8.15-4.4m-11.6 7.35 2 1.45q3.25 2.05 6.85 3.15l2.9 0.25m-11.75-4.85q-4.05-4-6.15-8.25" fill="none" stroke="#634819" stroke-linecap="round" stroke-linejoin="round" stroke-width=".1"/>
<path d="m248.5 212.6v-0.05 0.05" fill="#f4ffc8" fill-rule="evenodd"/>
<path d="m280.15 201.75-0.45 0.8h-0.05l0.5-0.8m-8.05 16.6h0.05l-0.1 0.05 0.05-0.05" fill="#ebb029" fill-rule="evenodd"/>
<path d="m280.75 200.9v-0.1l0.05 0.05-0.05 0.05" fill="#614718" fill-rule="evenodd"/>
<path d="m261.75 179.65 6.1-0.9q1.4-0.3 4.4 0.55 2.95 0.85 4.9 3.35l0.2 0.3-2.45 1.65-1.3 0.9q-2-2.3-5.2-3.2l-2.05-0.05-1 0.15q-2.9 0.3-6.65 1.25 0.3-2.25 3.05-4" fill="#fa9c6b" fill-rule="evenodd"/>
<path d="m239.6 199.35 0.4-1.7q2.1-4.9 5.65-9.05l1.4-1.55q5.65-4.6 11.35-6.6l3.35-0.8q-2.75 1.75-3.05 4-4.45 1.6-8.9 5.25l-1.6 1.85q-2.45 2.95-3.95 6.45-0.45 1.45-0.5 2.85l-0.25-0.05-0.15 0.7-0.6 0.8q-1.85 1.4-2.4-0.55-0.15-0.45-0.15-0.9l0.05-0.55-0.65-0.15m20.35 9.25q4.4-1.5 7.6-3.95l0.1-0.05 2.4 1.9-0.05 0.05q-4.25 3.15-10.05 5.6v-3.55" fill="#fcbc9a" fill-rule="evenodd"/>
<path d="m274.1 221.65q-3.25 2.05-6.95 3.7l-1.5-2.55q3.95-1.8 7.55-4.05l0.1-0.1 0.8 3m-4-9.95 1.95 6.6 0.05 0.05-0.05 0.05q-3.75 2.15-7.55 3.7l-2.25 0.4-2.65-5.75 2.05-0.4q4.5-2.05 8.45-4.65m-0.1-5.15 0.6 2.55-1.05 0.7q-3.95 2.6-8.5 4.7l-1.1-2.35q5.8-2.45 10.05-5.6" fill="#f98648" fill-rule="evenodd"/>
<path d="m269.55 209.8 0.55 1.9q-3.95 2.6-8.45 4.65l-2.05 0.4v-0.05l-0.8-1.8 2.25-0.4q4.55-2.1 8.5-4.7m-7.3 12.7 2.25-0.4q3.8-1.55 7.55-3.7l0.1-0.05 1.05 0.4q-3.6 2.25-7.55 4.05l-3.05 0.55-0.35-0.85" fill="#e45407" fill-rule="evenodd"/>
<path d="m267.15 225.35q-6.65 1.5-13.75 0-4.25-2.25-5.8-4.8l0.05-0.1q1.5 1.2 3.65 2.35l2.4 0.45q4.55 0.6 8.9 0.1l3.05-0.55 1.5 2.55m-20.9-7.3-0.1-0.25-1.4-2.45 1.95 1.1 2.4 0.4q4.95 0.7 9.7 0l0.8-0.15v0.05l2.65 5.75-0.5 0.1q-2.75 0.35-9.85-1.2-4.55-1.55-5.65-3.35m-3.25-5.95-2-3.65q1.9 2.7 7.5 4.15v-0.05l11.45-0.4 1.1 2.35-2.25 0.4q-4.75 0.7-9.7 0l-2.4-0.4q-2.2-1.15-3.7-2.4" fill="#bb4506" fill-rule="evenodd"/>
<path d="m250.65 208.9 9.3-0.3v3.55l-11.45 0.4v0.05q-5.6-1.45-7.5-4.15l-0.7-1.3-0.3-0.55q-1.1-3.65-0.4-7.25l0.65 0.15-0.05 0.55q0 0.45 0.15 0.9 0.55 1.95 2.4 0.55l0.6-0.8 0.15-0.7 0.25 0.05q-0.15 2.1 0.5 4.15 1 2.3 4.55 4.25h0.05l0.25 0.15 1.55 0.3" fill="#fee3d6" fill-rule="evenodd"/>
<path d="m277.7 198.35 1.95 1.45-0.8 1.15-0.2 0.25q-1.65 2.4-3.85 4.6-2 1.75-4.2 3.3l-0.6-2.55 0.05-0.05 3.15-2.7q2.5-2.5 4.5-5.45m3.1 2.4 0.05 0.05-0.05 0.05q2.4 1.75 4 4.2l-2 3.5v0.05l-0.1 0.15h-0.05l-6.95 7.4-3.55 2.2h-0.05l-0.05-0.05-1.95-6.6 5.35-4.05q2.35-2.3 4.05-4.85l0.1-0.15 0.05-0.1h0.05l0.45-0.8 0.6-0.95 0.05-0.05m4.85 5.35 1.2 1.9-1.25 2.1q-1.95 3.7-5.2 6.9-2.95 2.5-6.3 4.65l-0.8-3q3.25-2.05 6.15-4.5 2.2-2.2 3.85-4.65l0.95-1.55 0.8-1.35 0.6-0.5m-38.2 14.2-1.2-2.25q1.1 1.8 5.65 3.35 7.1 1.55 9.85 1.2l0.5-0.1 0.35 0.85q-4.35 0.5-8.9-0.1l-2.4-0.45q-2.15-1.15-3.65-2.35l-0.2-0.15m-2.7-4.95-1.75-3.25q1.5 1.25 3.7 2.4l2.4 0.4q4.95 0.7 9.7 0l0.8 1.8-0.8 0.15q-4.75 0.7-9.7 0l-2.4-0.4-1.95-1.1m36-14.45 0.05-0.05-0.05-0.05v0.1h-0.05 0.05" fill="#a53d05" fill-rule="evenodd"/>
<path d="m258.2 197.8q-0.7 1-0.9 2.35l-1.4 1.05q-3.35 3.5-5.25 7.7l-1.55-0.3-0.25-0.15h-0.05q-3.55-1.95-4.55-4.25-0.65-2.05-0.5-4.15 0.05-1.4 0.5-2.85 1.5-3.5 3.95-6.45l1.6-1.85 5.45 10.1h0.05l0.15 0.65q1.3-1 2.75-1.85" fill="#5c2203" fill-rule="evenodd"/>
<path d="m267.65 204.6 2.7-2.55q2.05-2.05 3.45-4.3l0.6-1 1.45 0.65 1.85 0.95q-2 2.95-4.5 5.45l-3.15 2.7-2.4-1.9m12-4.8q0.4 0.55 1.15 0.95l-0.05 0.05-0.6 0.95-0.5 0.8-0.05 0.1-0.1 0.15q-1.7 2.55-4.05 4.85l-5.35 4.05-0.55-1.9 1.05-0.7q2.2-1.55 4.2-3.3 2.2-2.2 3.85-4.6l0.2-0.25 0.8-1.15m5.15 5.25 0.85 1.05-0.6 0.5-0.8 1.35-0.95 1.55q-1.65 2.45-3.85 4.65-2.9 2.45-6.15 4.5l-0.1 0.1-1.05-0.4 3.55-2.2 6.95-7.4h0.05l0.1-0.15v-0.05l2-3.5" fill="#702903" fill-rule="evenodd"/>
<path d="m262.95 193.15q-1.5 0.9-2.4 1.9-1 0.7-1.6 1.55-0.6 0.55-0.75 1.2-1.45 0.85-2.75 1.85l-0.15-0.65h-0.05l-5.45-10.1q4.45-3.65 8.9-5.25l4.25 9.5" fill="#933504" fill-rule="evenodd"/>
<path d="m268.65 189.05-0.75 0.75q-2 1.2-3.1 2l-1.85 1.35-4.25-9.5q3.75-0.95 6.65-1.25l3.3 6.65" fill="#c84906" fill-rule="evenodd"/>
<path d="m273.6 185.5-4.7 3.35-0.25 0.2-3.3-6.65 1-0.15 2.05 0.05q3.2 0.9 5.2 3.2" fill="#f15907" fill-rule="evenodd"/>
<path d="m239.6 199.35 0.4-1.7q2.1-4.9 5.65-9.05l1.4-1.55q5.65-4.6 11.35-6.6l3.35-0.8 6.1-0.9q1.4-0.3 4.4 0.55 2.95 0.85 4.9 3.35l0.2 0.3m-20.05 17.2-1.4 1.05m-5.25 7.7 9.3-0.3q4.4-1.5 7.6-3.95m0.1-0.05 2.7-2.55q2.05-2.05 3.45-4.3l0.6-1m12.45 11.25-1.25 2.1q-1.95 3.7-5.2 6.9-2.95 2.5-6.3 4.65-3.25 2.05-6.95 3.7-6.65 1.5-13.75 0-4.25-2.25-5.8-4.8l-0.15-0.25-1.2-2.25m-0.1-0.25-1.4-2.45-1.75-3.25-2-3.65-0.7-1.3-0.3-0.55q-1.1-3.65-0.4-7.25m19.2 15.55q-4.75 0.7-9.7 0l-2.4-0.4q-2.2-1.15-3.7-2.4m4.65 8.35-0.2-0.15" fill="none" stroke="#634819" stroke-linecap="round" stroke-linejoin="round" stroke-width=".1"/>
<path d="m273.3 218.65q3.25-2.05 6.15-4.5 2.2-2.2 3.85-4.65l0.95-1.55 0.8-1.35 0.6-0.5m-12.35 12.55-0.1 0.1q-3.6 2.25-7.55 4.05m-3.05 0.55q-4.35 0.5-8.9-0.1l-2.4-0.45q-2.15-1.15-3.65-2.35m14.95 2.9 3.05-0.55" fill="none" stroke="#463311" stroke-linecap="round" stroke-linejoin="round" stroke-opacity=".2" stroke-width=".1"/>
<path d="m255.9 201.2q-3.35 3.5-5.25 7.7m-6.9-8.85q0.05-1.4 0.5-2.85 1.5-3.5 3.95-6.45l1.6-1.85q4.45-3.65 8.9-5.25m-3.4 15.35h-0.05m-11.5 1.05q-0.15 2.1 0.5 4.15 1 2.3 4.55 4.25h0.05l0.25 0.15 1.55 0.3" fill="none" stroke="#634819" stroke-linecap="round" stroke-linejoin="round" stroke-width=".1"/>
<path d="m282.65 208.75h0.05" fill="none" stroke="#6f0" stroke-linecap="round" stroke-linejoin="round" stroke-width=".05"/>
</g>
</defs>
</svg>
