<?xml version="1.0" encoding="UTF-8"?>
<svg version="1.1" viewBox="0 0 61.293 35.245" xmlns="http://www.w3.org/2000/svg" xmlns:cc="http://creativecommons.org/ns#" xmlns:dc="http://purl.org/dc/elements/1.1/" xmlns:rdf="http://www.w3.org/1999/02/22-rdf-syntax-ns#" xmlns:xlink="http://www.w3.org/1999/xlink">
<metadata>
<rdf:RDF>
<cc:Work rdf:about="">
<dc:format>image/svg+xml</dc:format>
<dc:type rdf:resource="http://purl.org/dc/dcmitype/StillImage"/>
</cc:Work>
</rdf:RDF>
</metadata>
<g transform="translate(-257.59 -178.61)">
<use transform="translate(257.6,178.65)" width="61.25" height="35.200001" xlink:href="#a"/>
</g>
<defs>
<g id="a" transform="translate(-257.6,-178.65)">
<path d="m260.8 185.4v0.05l-0.3 0.6q-0.05 0.5 0.45 0.6l0.1-0.05q0.75-0.65 0.9-1.6l-0.05-0.1-0.35-0.2-0.4 0.25q1.1-1.5 3.1-2.95h0.05q-2.2 2.15-2.1 4.1 0.05 1.9 2.75 2.6-0.5 1.1-1.85 0.95l-0.65-0.1q-3.35-0.95-2.2-3.2l0.55-0.95m16.35-6.45h0.05l1.25 0.45 0.5 0.25-1.8-0.7m7.2 4.1-1.65-1.2 0.55 0.25 0.25 0.2-0.2-0.15h0.1l0.25 0.1 0.45 0.25 6.2 4.2 1.85 1.3q0.95 0.85 1.25 1.95l-1.55-0.75q-2.2-1.45-4.65-1.85-1-0.15-1.75 0.4-1.55 1.25-3.55 0.85-2.85-0.6-2.15-4v-1.35q0.7-0.35 5.2 2.85 7.6 1.85-0.6-3.05m-11.65-3.75-1.25 1.3 0.2 1.15q0.75 0.6 1.45 1-3.2 0.3-2.15-2.5 0.15-0.5 1.6-0.9l0.15-0.05" fill="#e1a459" fill-rule="evenodd"/>
<path d="m261.15 184.95 0.4-0.25 0.35 0.2 0.05 0.1q-0.15 0.95-0.9 1.6l-0.1 0.05q-0.5-0.1-0.45-0.6l0.3-0.6v-0.15l0.35-0.35m17.8-5.3 0.25 0.15q0.3 0.1 0.1 1.1 0.9-0.7 1.3-0.5l3.75 2.65q8.2 4.9 0.6 3.05-4.5-3.2-5.2-2.85-0.25-0.55-1-0.65l-0.85-0.1-4 0.15-0.8 0.1q-0.7-0.4-1.45-1l-0.2-1.15 1.25-1.3 0.3-0.1h0.1l0.8-0.2 2.9-0.15 0.35 0.1 1.8 0.7 0.35 1.25-0.35-1.25m-0.4 0.4q0.1-0.35-0.2-0.45-2.05-1-4.4-0.3-0.9 0.1-1.4 0.7v0.1l5.6 0.35 0.2-0.1 0.15-0.2 0.05-0.1m3.6 2.1-0.2 0.15q-0.35 0.35-0.1 0.85l0.55 0.6q1.75 0.55 3.35 1.4l0.15-0.05 0.4-0.45-0.05-0.1-4.1-2.4" fill="#ebd350" fill-rule="evenodd"/>
<path d="m260.8 185.4-0.55 0.95q-1.15 2.25 2.2 3.2l-0.8 0.3-3.75 2.6q-0.3-1 0.15-2.7l1-2.9 0.55-1.15q0.6-1.4 1.8-2.3 1.15-0.9 2.85-1.4-2 1.45-3.1 2.95l-0.35 0.35v0.1m4.15 3.3q-2.7-0.7-2.75-2.6-0.1-1.95 2.1-4.1l0.3-0.1q0.8-0.4 6.65-2.25l1.3-0.3q-1.45 0.4-1.6 0.9-1.05 2.8 2.15 2.5l0.8-0.1 4-0.15 0.85 0.1q0.75 0.1 1 0.65v1.35q-0.7 3.4 2.15 4 2 0.4 3.55-0.85 0.75-0.55 1.75-0.4 2.45 0.4 4.65 1.85l1.55 0.75q-0.3-1.1-1.25-1.95l4.8 3.4 1 0.7 0.15 0.1h0.05l2.8 3.4 1.1 1.85 0.9 2.2 0.15 0.65 0.05 0.4 0.1 0.75 0.05 0.3v0.15l-2.05 7.45q0.25-2.95-1.75-5.4l-3.8-1.85-0.15 0.15-2.2-0.65 0.25-0.5-0.15-0.05-7.75 0.85-9.25-6-5.3-6.85q-2.15-1.45-6.2-0.35m17.75-6.85-0.85-0.65-0.2-0.2 0.75 0.5 0.85 0.6-0.55-0.25m0.6 0.3q-0.5-0.45 0.35 0.1l-0.25-0.1h-0.1m10.3 10.3v0.3l0.15-0.15-0.15-0.15" fill="#da8c30" fill-rule="evenodd"/>
<path d="m278.55 180.05-0.05 0.1-0.15 0.2-0.2 0.1-5.6-0.35v-0.1q0.5-0.6 1.4-0.7 2.35-0.7 4.4 0.3 0.3 0.1 0.2 0.45m3.6 2.1 4.1 2.4 0.05 0.1-0.4 0.45-0.15 0.05q-1.6-0.85-3.35-1.4l-0.55-0.6q-0.25-0.5 0.1-0.85l0.2-0.15" fill="#faf2cd" fill-rule="evenodd"/>
<path d="m262.45 189.55 0.65 0.1q1.35 0.15 1.85-0.95 4.05-1.1 6.2 0.35l5.3 6.85 9.25 6 7.75-0.85 0.15 0.05-0.25 0.5 2.2 0.65 0.15-0.15 3.8 1.85q2 2.45 1.75 5.4-0.6 0.9-1.35 1.05l-0.2-1.8q-0.8-1.55-3.25-0.55l-0.1-0.05 0.25-1.5-1.6-1.15q-0.7-0.7-2.75 0.3h-0.05v0.05l-0.25 0.1-2.2-0.85 0.05 0.15-4.05-1.35-8.25 0.45q-4.3 0.8-2.45-4.6-1.2-4.1-3.9-3.1-9.8 3.95-4.1-1.4-3.4 0.95-4.75 1.6-4.65 2.4-2.8 8-1.05-2.2-1.45-5-0.45-2.6-0.3-5.7l0.15-1.55 3.75-2.6 0.8-0.3" fill="#c97d23" fill-rule="evenodd"/>
<path d="m299.9 210.4-2.25 0.5-0.8 0.35-0.75 0.3v-0.1l-1.75 0.45 0.1 0.2-0.65 0.2-3.5 0.75-2.8 0.4q-11.45 1.15-21.05-2.45-4.8-1.85-6.95-6.3-1.85-5.6 2.8-8 1.35-0.65 4.75-1.6-5.7 5.35 4.1 1.4 2.7-1 3.9 3.1-1.85 5.4 2.45 4.6l8.25-0.45 4.05 1.35-0.05-0.15 2.2 0.85 0.25-0.1 0.05-0.05q2.05-1 2.75-0.3l1.6 1.15-0.25 1.5 0.1 0.05q2.45-1 3.25 0.55l0.2 1.8m-3.05 0.85-0.75 0.2 0.75-0.2m-2.5 0.65-0.55 0.4 0.55-0.4" fill="#915a1a" fill-rule="evenodd"/>
<path d="m300.95 195.6 4.25-0.6 4.45-0.45q1.55-0.3 2.75-1.85 1.95-2.6 3.05 0 0.35 0.85-0.4 2-1.75 2.65 0.85 4.5l1.3 0.95q2.35 1.75 1.15 4.95-0.8 2-2.25 2.35 2.05-2.1 1-4.8l-2.35-0.85-0.35-2.45q-1.8 0.85-2.15-4.35l-2 2.35q-4.3 2.55-8.2 0.1l-1.1-1.85" fill="#f7f1e1" fill-rule="evenodd"/>
<path d="m316.1 207.45-1.25 0.05q-1.85-0.35-2.85-3-0.65-1.7-0.5-4.05l-0.2-3.4-1.85 1.7-4.35 0.95-2.25-0.8 0.25 1.4-0.15-0.65-0.9-2.2q3.9 2.45 8.2-0.1l2-2.35q0.35 5.2 2.15 4.35l0.35 2.45 2.35 0.85q1.05 2.7-1 4.8" fill="#eee2bf" fill-rule="evenodd"/>
<path d="m311.5 200.45q-1.6 0.95-3.6 1.1l-4.6 0.2-0.05-0.3-0.1-0.75-0.05-0.4-0.25-1.4 2.25 0.8 4.35-0.95 1.85-1.7 0.2 3.4" fill="#e4d39a" fill-rule="evenodd"/>
<path d="m298.15 192.15v0.05h-0.05l0.05-0.05" fill="#e7dca0" fill-rule="evenodd"/>
<path d="m264.3 182h-0.05q-1.7 0.5-2.85 1.4-1.2 0.9-1.8 2.3l-0.55 1.15-1 2.9q-0.45 1.7-0.15 2.7m6.7-10.55-0.3 0.1m32.65 9.4 1 0.7 0.2 0.05v0.05l2.8 3.4 4.25-0.6 4.45-0.45q1.55-0.3 2.75-1.85 1.95-2.6 3.05 0 0.35 0.85-0.4 2-1.75 2.65 0.85 4.5l1.3 0.95q2.35 1.75 1.15 4.95-0.8 2-2.25 2.35l-1.25 0.05q-1.85-0.35-2.85-3-0.65-1.7-0.5-4.05-1.6 0.95-3.6 1.1l-4.6 0.2v0.15l-2.05 7.45q-0.6 0.9-1.35 1.05l-2.25 0.5-0.8 0.35-0.75 0.3m-1.65 0.55-0.65 0.2-3.5 0.75-2.8 0.4q-11.45 1.15-21.05-2.45-4.8-1.85-6.95-6.3-1.05-2.2-1.45-5-0.45-2.6-0.3-5.7l0.15-1.55m44.15 5-1.1-1.85m-2.85-3.4-0.15-0.1" fill="none" stroke="#bb8224" stroke-linecap="round" stroke-linejoin="round" stroke-width=".25"/>
<path d="m277.15 178.95h0.05m2.1 1.95q0.9-0.7 1.3-0.5m-3.45-1.45-0.35-0.1m0.35 0.1 1.8 0.7 0.35 1.25m-6.2-1.7q1.85-0.7 3.7-0.35" fill="none" stroke="#e4ba74" stroke-linecap="round" stroke-linejoin="round" stroke-width=".25"/>
<path d="m296.1 211.45-1.75 0.45m1.75-0.45 0.75-0.2m-3.05 1.05 0.55-0.4" fill="none" stroke="#d85107" stroke-linecap="round" stroke-linejoin="round" stroke-opacity=".87059" stroke-width=".05"/>
<path d="m303.25 201.45-0.1-0.75-0.05-0.4-0.25-1.4" fill="none" stroke="#de7307" stroke-linecap="round" stroke-linejoin="round" stroke-width=".25"/>
</g>
</defs>
</svg>
