<?xml version="1.0" encoding="UTF-8"?>
<svg width="45px" height="59px" version="1.1" viewBox="-20.78 -47.03 45.23 59.03" xmlns="http://www.w3.org/2000/svg" xmlns:xlink="http://www.w3.org/1999/xlink">
<defs>
<g id="o">
<path d="m2.15-10.85 0.75-0.05 21.55 10.95-1.1 1.6-7.05 3.55-1.7-0.2q-2.9 0-4.45 1.8-0.9 1-1.1 2.1l-5.85 3-1.9 0.1-21.25-10.8v-1.25l21.35-10.85 0.75 0.05" fill-opacity=".30196"/>
</g>
<linearGradient id="l" x1="-819.2" x2="819.2" gradientTransform="matrix(.0026093 .039627 -.032043 .0021057 1 -1.8)" gradientUnits="userSpaceOnUse">
<stop stop-color="#cfbe85" offset="0"/>
<stop stop-color="#c6aa6c" offset="1"/>
<stop stop-color="#d4d0c8" offset="1"/>
</linearGradient>
<linearGradient id="h" x1="-819.2" x2="819.2" gradientTransform="matrix(-.00082397 -.037292 .031799 -.0007019 .5 2.6)" gradientUnits="userSpaceOnUse">
<stop stop-color="#7b702f" offset="0"/>
<stop stop-color="#968738" offset="1"/>
<stop stop-color="#d4d0c8" offset="1"/>
</linearGradient>
<linearGradient id="g" x1="-819.2" x2="819.2" gradientTransform="matrix(.0026093 .039627 -.032043 .0021057 1 -1.8)" gradientUnits="userSpaceOnUse">
<stop stop-color="#9c863d" offset="0"/>
<stop stop-color="#c6aa6c" offset="1"/>
<stop stop-color="#d4d0c8" offset="1"/>
</linearGradient>
<linearGradient id="f" x1="-819.2" x2="819.2" gradientTransform="matrix(0 .0025024 -.0041809 0 -8.7 -13.9)" gradientUnits="userSpaceOnUse">
<stop stop-color="#7e5601" offset="0"/>
<stop stop-color="#8f6101" offset="1"/>
<stop stop-color="#d4d0c8" offset="1"/>
</linearGradient>
<linearGradient id="e" x1="-819.2" x2="819.2" gradientTransform="matrix(0 .0081787 -.023071 0 1.3 6.3)" gradientUnits="userSpaceOnUse">
<stop stop-color="#2c8383" offset="0"/>
<stop stop-color="#50b0b4" offset="1"/>
<stop stop-color="#d4d0c8" offset="1"/>
</linearGradient>
<linearGradient id="d" x1="-819.2" x2="819.2" gradientTransform="matrix(-.0010071 -.0037689 .021439 -.0057526 .25 9.45)" gradientUnits="userSpaceOnUse">
<stop stop-color="#62c7cc" offset="0"/>
<stop stop-color="#80d5d5" offset="1"/>
<stop stop-color="#d4d0c8" offset="1"/>
</linearGradient>
<linearGradient id="c" x1="-819.2" x2="819.2" gradientTransform="matrix(0 .0029297 -.0024109 0 1.15 10.9)" gradientUnits="userSpaceOnUse">
<stop stop-color="#2c8383" offset="0"/>
<stop stop-color="#50b0b4" offset="1"/>
<stop stop-color="#d4d0c8" offset="1"/>
</linearGradient>
<linearGradient id="b" x1="-819.2" x2="819.2" gradientTransform="matrix(-.00076294 -.0090637 .030426 -.002533 .35 6.95)" gradientUnits="userSpaceOnUse">
<stop stop-color="#c08202" offset="0"/>
<stop stop-color="#cc9602" offset="1"/>
<stop stop-color="#d4d0c8" offset="1"/>
</linearGradient>
<linearGradient id="a" x1="-819.2" x2="819.2" gradientTransform="matrix(-.00082397 -.037292 .031799 -.0007019 .5 2.6)" gradientUnits="userSpaceOnUse">
<stop stop-color="#9c863d" offset="0"/>
<stop stop-color="#c6aa6c" offset="1"/>
<stop stop-color="#d4d0c8" offset="1"/>
</linearGradient>
<linearGradient id="k" x1="-819.2" x2="819.2" gradientTransform="matrix(-.00030518 -.00030518 .00097656 -.00097656 -18.2 23.45)" gradientUnits="userSpaceOnUse">
<stop stop-color="#7e5601" offset="0"/>
<stop stop-color="#8f6101" offset="1"/>
<stop stop-color="#d4d0c8" offset="1"/>
</linearGradient>
<linearGradient id="j" x1="-819.2" x2="819.2" gradientTransform="matrix(0 -.022034 .031342 0 .5 14.95)" gradientUnits="userSpaceOnUse">
<stop stop-color="#7e5601" offset="0"/>
<stop stop-color="#8f6101" offset="1"/>
<stop stop-color="#d4d0c8" offset="1"/>
</linearGradient>
<linearGradient id="i" x1="-819.2" x2="819.2" gradientTransform="matrix(0 -.022034 .031342 0 .4 14.95)" gradientUnits="userSpaceOnUse">
<stop stop-color="#7e5601" offset="0"/>
<stop stop-color="#8f6101" offset="1"/>
<stop stop-color="#d4d0c8" offset="1"/>
</linearGradient>
<g id="n">
<path d="m-26.1-22.9q13.2-5.95 26.05-12.7 3.65 0.9 5.5 2.05-12.85 6.95-25.75 12.75-3.1-1.6-5.8-2.1m38.9-5.85 0.15-0.05q3.3 2.35 6.3 3.2l-24.6 12.25q-3.2-0.75-6.8-2.6l8.3-4.25q8.5-5.1 16.65-8.55m9.8 9.3 1.1 0.5-4.75 2.05-0.85-0.35 4.5-2.2m-15.75 7.7 1.3 0.55-5.15 2.25-0.9-0.5 4.75-2.3m-7.4 4.8 1.05-0.6 0.95 0.4 1.35 0.6 3.5 1.6 0.3 0.1q7.1 3.3 14.1 7.15l5.05 2.9-1.25 0.6-0.75-0.35-5.05-2.85q-6.85-3.7-14.15-6.9l-1.75-0.75-1.8-0.8v-0.05l-0.05 0.05-1.2 0.6-0.2-1.2 0.15-0.05 0.1-0.05-0.3-0.15-0.05-0.25m25.35 19.6 1.05 0.5-1.1 0.45-1.75-0.7 0.7-0.25 0.75 0.15h0.1l0.25-0.15m-3.5 8.1 1.65 0.8-0.9 0.1-1 1.05q-1.05-0.1-1.55-0.9 0.7-0.85 1.8-1.05m-17.35 8.35 2.3 1-0.8 0.1-1.2 1.15q-1.4-0.05-2.4-1 0.85-1.35 2.1-1.25m-28.85-23.55 1.4-0.65 0.9 0.45 1 0.45 0.1 0.05 2.3 1.35 0.4 0.2 0.35 0.2 2.4 1.3q6.2 3.35 12.55 6.05l3.3 1.35 1.1 0.55-1.1-0.55q6.45-3.55 13.3-6.8l1.1 0.55 0.25-0.05q0.35-0.15 0.35-1.3l3.55-1.6 3.15-1.4 1.45-0.6 0.8 0.4v0.1l-6.8 3.05-1.45 0.7q0 1.45-0.5 1.45-0.35-0.05-0.8-0.3l-0.45-0.3q-6.65 3.15-12.85 6.65l0.6 0.3-0.2 1.55-1.35 0.45 0.05-0.6 0.1-0.75q-8.9-3.75-17.45-8.15l-2.35-1.25-1.8-0.95-3.4-1.9m4.8-1.7 7.45-4.15 8.55-4.35 1.2-0.6 0.2 1.15-1.2 0.6-7.6 3.85q-5.15 2.65-10.1 5.4l-0.95-0.45 2.45-1.45m19.85 3.85-2-11.95v-0.05l0.2-0.6 0.2-0.3 1.3 0.05 0.3 0.1 0.25 1.35 0.05 0.15 0.35 2.2 0.3 1.45v0.1l0.25 1.55 0.95 5.3v0.1l-0.05 0.1-0.3 0.4h-0.2l-1.05 0.2-0.2-0.1h-0.15l-0.2-0.05m0.35 17.1-0.2-2.3-0.05-1.2 0.05-0.95q0-0.35-2.1-1.15l1.75 0.1 1.75 1.4 0.05 1 0.2 1.65v0.75l-0.6 0.3-0.85 0.4m0.85-30.65-1.15-0.7 1.15 0.7m0.35 26.55-1.4-0.35 1.4 0.35m-1.75 7.05 0.15-2.2 1.15-0.25q-0.1 1.05-0.05 2.05l0.15 2.55v0.7l-1.25 0.65-0.15-3.5" fill="url(#l)"/>
<path d="m5.45-33.55 0.05 0.65-25.75 12.85v0.05q3.7 2.75 7.45 3.6l8.5-4.25q8.3-4.9 17.15-8.65l-0.05 0.55q-8.15 3.45-16.65 8.55l-8.3 4.25 0.15 1.15-0.15-1.15q3.6 1.85 6.8 2.6l-0.45 0.25-0.15 0.05q2.95 2 5.9 2.9l26.05-12.75v1.75l-3.4 1.7-4.5 2.2 0.85 0.35 4.75-2.05v1.2q-1.8 2-4.7 2.2l-2.2-1.1q-4.8 1.9-9.95 4.9l-4.75 2.3 0.9 0.5 5.15-2.25v1.2q-2.1 2.1-5 2.25l-2.25-1.1-0.95 0.45-0.8-0.4 0.3 1.85 0.1 0.5 0.2 1.2v0.2-0.2l1.2-0.6h0.05l1.8 0.8 1.75 0.75q7.3 3.2 14.15 6.9l5.05 2.85 0.75 0.35 0.2 1.35 0.05 2.95-0.2 2.7 0.2-2.7-0.05-2.95-0.2-1.35 1.25-0.6 0.2 1.65 0.05 2.65-0.05 0.3-0.2 2.4-0.95 0.45-0.25 0.15-0.35-0.1v0.05l-0.5-0.1v-0.05l-0.05-0.65q-0.35-3.15 0.1-6.35l0.1-0.05-0.9-0.45-1.45 0.6-3.15 1.4 1.05-0.5q-2.75-1.65-6.05-2.8-2.5-0.7-4.8-2.2-1.45-1-3.45-1.6-2-0.55-4-1.85l-0.2 0.15q-0.1-0.95-0.05-1.85l-0.05-0.35-0.75 0.35 0.75-0.35 0.05 0.35q-0.05 0.9 0.05 1.85l-0.5 0.35-0.35-2.2-0.05-0.15-0.25-1.35-0.3-0.1-1.3-0.05-0.2 0.3-0.2 0.6v0.05l2 11.95-0.3-0.1-0.25-0.25-0.05-0.1-0.65-4.1-0.5-3.1-3.35 1.55q-3.5 1.3-8.15 4.25l-1.9 1.3-2.2 0.85 1.6 0.9h-0.05l-2.4-1.3-0.35-0.2-0.4-0.2-2.3-1.35-0.1-0.05v-0.05q4.95-2.75 10.1-5.4l7.6-3.85 1.2-0.6-0.2-1.15-0.8-4.9-2.3-1.15 0.05-0.55q-2.95-0.3-5.95-2.2l-0.1-0.75-0.65 0.3q-3.8-0.85-7.6-3.7v-0.75q-2.9-1.9-5.85-2.2v-1.75q2.7 0.5 5.8 2.1 12.9-5.8 25.75-12.75m20.4 46.7q0.5 3.1 0 6.15l-1.1 0.55-1.75-1.05v0.7l-0.8 0.45q-0.65-0.15-1.6 0.45l0.7 0.35q-1.1 0.2-1.8 1.05 0.5 0.8 1.55 0.9l1-1.05 0.9-0.1 0.3 0.25q0.5 0.5 0.5 1.55t-0.5 2.1q-0.5 1-1.2 1.4l-1.1-0.1-0.1-0.1v0.05l-0.6-0.3-5.35-2.85-11.35 5.4 0.4 0.15q-1.25-0.1-2.1 1.25 1 0.95 2.4 1l1.2-1.15 0.8-0.1 0.4 0.3q0.55 0.5 0.55 1.6t-0.4 2l-1.1 1.35-1.45 0.1-0.05-0.05-0.5-0.2-20.55-9.55-0.85-0.4q-0.9-1.6 0.2-2.65l17.1 8.7 0.1-0.05 1.25-0.65v-0.7l-0.15-2.55q-0.05-1 0.05-2.05v-0.1l0.1-0.8 0.6-0.3v-0.75q10.7-6.15 21.45-10.45l1.75 0.7 1.1-0.45m-49.9-0.2-0.85-0.4-0.25-1.6-0.05-1.25-0.05-0.7 0.05-1.1 0.05-0.2 0.1-1 0.15-1.15 3.4 1.9 1.8 0.95 2.35 1.25q8.55 4.4 17.45 8.15l-0.1 0.75-0.05 0.6-0.4 0.15-1.75-0.1q2.1 0.8 2.1 1.15l-0.05 0.95 0.05 1.2 0.2 2.3-0.3-0.15q-7.1-2.95-14.25-6.55l-9.6-5.15m3.8-32.95v1.05-1.05m14.3 6.95v1.2-1.2m2.25 2.9 2.85 1.35-2.85-1.35m-0.2 6.65q-8.45 5.45-14.9 10.9 6.45-5.45 14.9-10.9m1.2-0.6 0.7 4.15-0.7-4.15m21.7-11.45-0.05-1.35 0.05 1.35m-2.2-1.1 1.3-0.6-1.3 0.6m-15.85 11.3 0.05-0.5-0.05 0.5m-0.05-3.5 1.2-0.6-1.2 0.6m2.25 1.1-0.15-1.2 0.15 1.2m0.4 36.7-0.2-0.1q-0.45-0.35-1.35 0.25l-1.05 0.8 1.05-0.8q0.9-0.6 1.35-0.25l0.2 0.1m11.35-5.4 3.95-1.9 1.75-1.25-1.75 1.25-3.95 1.9m8.1-4.75q-0.35-2.2-0.15-4.5l0.15-1.4-0.15 1.4q-0.2 2.3 0.15 4.5m1.75-5.2q0.35 3 0 6.25 0.35-3.25 0-6.25" fill="url(#h)"/>
<path d="m5.5-32.9q3.7 2.35 7.35 3.6-8.85 3.75-17.15 8.65l-8.5 4.25q-3.75-0.85-7.45-3.6v-0.05l25.75-12.85m13.75 7.3 0.55-0.3q2.9 2.05 6.2 3l-26.05 12.75q-2.95-0.9-5.9-2.9l0.15-0.05 0.5-0.25h-0.05l24.6-12.25" fill="url(#g)"/>
<path d="m-5.35-13.35h0.05l-0.5 0.25 0.45-0.25" fill="url(#f)"/>
<path d="m0.95 1.75-0.25-1.55v-0.1l-0.3-1.45 0.5-0.35 0.2-0.15q2 1.3 4 1.85 2 0.6 3.45 1.6 2.3 1.5 4.8 2.2 3.3 1.15 6.05 2.8l-1.05 0.5-3.55 1.6q-2-0.9-3.15-1.75-1.25-0.95-5.55-2.8-2.4-0.5-5.15-2.4m-16.95 7.15-1.6-0.9 2.2-0.85 1.9-1.3q4.65-2.95 8.15-4.25l3.35-1.55 0.5 3.1-3.7 1.7q-1.9 0.35-4.4 2.65l-3.85 2.75-2.55-1.35" fill="url(#e)"/>
<path d="m1.85 7.25 0.05-0.1v-0.1l-0.95-5.3q2.75 1.9 5.15 2.4 4.3 1.85 5.55 2.8 1.15 0.85 3.15 1.75 0 1-0.35 1.3-0.6 0.05-1.35-0.5-6.85 3.25-13.3 6.8l2.05-9.05m-15.3 3 3.85-2.75q2.5-2.3 4.4-2.65l3.7-1.7 0.65 4.1 0.05 0.1h-0.05l-2.65 7.6-9.95-4.7" fill="url(#d)"/>
<path d="m-0.25 7.7 0.2 0.05h0.15l0.2 0.1 1.05-0.2h0.2l0.3-0.4-2.05 9.05-3.3-1.35 2.65-7.6h0.05l0.25 0.25 0.3 0.1" fill="url(#c)"/>
<path d="m-22.55 5.3-0.05-0.05 2.5-1.4-2.45 1.45" fill="url(#b)"/>
<path d="m-18.2 22.25-5.35-2.7-0.4-5.5-0.05-0.25-0.05-0.85 9.6 5.15q7.15 3.6 14.25 6.55l0.3 0.15 0.85-0.4-0.1 0.8v0.1l-1.15 0.25-0.15 2.2 0.15 3.5-0.1 0.05-17.1-8.7-0.7-0.35m17.75-2.95 0.4-0.15 1.35-0.45 0.2-1.55-0.6-0.3q6.2-3.5 12.85-6.65l0.45 0.3q0.45 0.25 0.8 0.3 0.5 0 0.5-1.45l1.45-0.7 6.8-3.05q-0.45 3.2-0.1 6.35l0.05 0.65v0.05l-0.7 0.25q-10.75 4.3-21.45 10.45l-0.2-1.65-0.05-1-1.75-1.4" fill="url(#a)"/>
<path d="m-16.85 25.65-0.6-0.25-0.25-0.15 0.85 0.4m16.4-32.1-0.05-0.25 0.3 0.15-0.1 0.05-0.15 0.05" fill="#966601"/>
<path d="m-17.45 25.4-0.5-0.25q-1.3-0.85-0.25-2.9l0.7 0.35q-1.1 1.05-0.2 2.65l0.25 0.15" fill="url(#k)"/>
<path d="m23.75 5.5 0.1 0.05-0.1 0.05v-0.1" fill="url(#j)"/>
<path d="m4.2 35.45-0.5-0.25 0.5 0.2v0.05" fill="url(#i)"/>
<path d="m-26.1-22.9q13.2-5.95 26.05-12.7 3.65 0.9 5.5 2.05l0.05 0.65q3.7 2.35 7.35 3.6l-0.05 0.55 0.15-0.05q3.3 2.35 6.3 3.2l0.55-0.3q2.9 2.05 6.2 3v1.75l-3.4 1.7 1.1 0.5v1.2q-1.8 2-4.7 2.2l-2.2-1.1q-4.8 1.9-9.95 4.9l1.3 0.55v1.2q-2.1 2.1-5 2.25l-2.25-1.1-0.95 0.45-0.8-0.4 0.3 1.85 1.05-0.6 0.95 0.4 1.35 0.6 3.5 1.6m0.3 0.1q7.1 3.3 14.1 7.15l5.05 2.9 0.2 1.65 0.05 2.65m-0.05 0.3-0.2 2.4-0.95 0.45 1.05 0.5q0.5 3.1 0 6.15l-1.1 0.55-1.75-1.05v0.7l-0.8 0.45q-0.65-0.15-1.6 0.45l0.7 0.35 1.65 0.8 0.3 0.25q0.5 0.5 0.5 1.55t-0.5 2.1q-0.5 1-1.2 1.4l-1.1-0.1-0.7-0.35-5.35-2.85-11.35 5.4m0.4 0.15 2.3 1 0.4 0.3q0.55 0.5 0.55 1.6t-0.4 2l-1.1 1.35-1.45 0.1-0.05-0.05-0.5-0.2-20.55-9.55-0.6-0.25m-0.5-0.25q-1.3-0.85-0.25-2.9l-5.35-2.7-0.4-5.5m-0.05-0.25-0.05-0.85-0.85-0.4-0.25-1.6-0.05-1.25-0.05-0.7 0.05-1.1 0.05-0.2 0.1-1 0.15-1.15 1.4-0.65 0.9 0.45 0.05-0.05 2.45-1.45 7.45-4.15 8.55-4.35 1.2-0.6-0.8-4.9-2.3-1.15 0.05-0.55q-2.95-0.3-5.95-2.2l-0.1-0.75-0.65 0.3q-3.8-0.85-7.6-3.7v-0.75q-2.9-1.9-5.85-2.2v-1.75" fill="none" stroke="#604e22" stroke-width=".8"/>
<path d="m6.3-4.95 0.3 0.1m19.4 14.35-0.05 0.3m-22.4 19.15 0.4 0.15m0.3 6.35h-0.05m-21.65-10.05-0.5-0.25m-4.6-19.85-0.05-0.05m2.35-24.2v-1.05m0-0.05 25.75-12.85m-17.5 18.1-0.15-1.15 8.3-4.25q8.5-5.1 16.65-8.55m-18.15 15.4-0.45 0.25-0.15 0.05m5.1 4.25-2.85-1.35m-2.25-1.7v-1.2m5.95 9.35-0.25-1.35v-0.2l-0.2-1.2-0.1-0.5m-21.05 12.7q4.95-2.75 10.1-5.4l7.6-3.85 1.2-0.6-0.2-1.15m-18.7 11.05 0.1 0.05 2.3 1.35 0.4 0.2q6.45-5.45 14.9-10.9m-14.9 10.9 0.35 0.2 2.4 1.3m14.05-8.85-0.7-4.15m1.2 7.25-0.5-3.1m0.5 3.1 0.65 4.1 0.05 0.1 0.25 0.25 0.3 0.1m-21.35-1.95-0.95-0.45m5.05 17.3-0.7-0.35m-5.85-9.3 9.6 5.15q7.15 3.6 14.25 6.55l0.3 0.15m-0.2-4.45q0-0.35-2.1-1.15l1.75 0.1 0.4-0.15 1.35-0.45 0.2-1.55-1.7-0.85-3.3-1.35q-6.35-2.7-12.55-6.05m35-25.8 0.05 1.35m3.6-3.9-4.5 2.2 0.85 0.35 4.75-2.05m-5.6 1.7-1.3 0.6m1.55 23.75 3.15-1.4 1.45-0.6 0.9 0.45-0.1 0.05q-0.45 3.2-0.1 6.35l0.05 0.65v0.05l0.75 0.15h0.1l0.2-2.7-0.05-2.95-0.2-1.35-0.75-0.35-5.05-2.85q-6.85-3.7-14.15-6.9l-1.75-0.75-1.8-0.8-0.05 0.5m23.25 18.05 0.35 0.1m-0.8-7.3v0.1m0.75 0.2 1.25-0.6m-23.65-14.65-1.2 0.6m5.95-2.9-4.75 2.3 0.9 0.5 5.15-2.25m-8.45 4.7 0.1-0.05 1.15 0.7 0.05-0.05v0.05h-0.05l-1.2 0.6m-0.05-1.35-0.2-0.1m0.55 3.15 0.75-0.35 0.05 0.35q-0.05 0.9 0.05 1.85m17.45 8.8-3.55 1.6q0 1.15-0.35 1.3l-0.25 0.05-1.1-0.55q-6.85 3.25-13.3 6.8m3.2-25.25 0.15 1.2m-3.25 28.1 1.4 0.35-1.75-1.4m1.75 1.4 0.05 1 0.2 1.65q10.7-6.15 21.45-10.45l0.7-0.25m-22.75 11.75 0.6-0.3v-0.75m-0.6 1.05-0.85 0.4m0.75 0.5v-0.1l0.1-0.8m-0.1 0.9q-0.1 1.05-0.05 2.05l0.15 2.55 1.05-0.8q0.9-0.6 1.35-0.25l0.2 0.1m-3.85 2.3 1.25-0.65v-0.7m-1.25 1.35-0.1 0.05-17.1-8.7m38.1-2.2-1.75 1.25-3.95 1.9m8.1-10.65 1.75 0.7 1.1-0.45m-2.85-0.25-0.15 1.4q-0.2 2.3 0.15 4.5m1.8-6.15-0.25 0.15m0.2 7.05q0.35-3.25 0-6.25m-3.9 13.1 0.1 0.05-0.1-0.1m-26.2-40 24.6-12.25m-15.05 61v0.05" fill="none" stroke="#604e22" stroke-width=".5"/>
<path d="m5.85 32.5-0.1 0.4-0.2 0.25-0.2-0.05-0.1-0.3 0.1-0.4 0.2-0.25 0.2 0.05 0.1 0.3m16.45-8.7 0.1 0.3-0.1 0.4-0.2 0.25-0.2-0.05-0.1-0.3 0.1-0.4 0.2-0.25 0.2 0.05" fill="#5b3811"/>
<path d="m7.25-31.75q-11.7 6.95-22.5 14.6l-0.65 1.6m26.55-14.6q-12.3 6-24.6 13.4l-0.45 1.75m14.95-15.45q-9.35 5.7-17.2 12.65l-0.25 1.8m-1.3-0.75 0.25-1.6q2.6-2.15 5.55-5.7m16.4-10.25q-12.65 7.25-25.05 13.2l-0.35 1.5m24.05-15.15q-13.2 6.75-27.3 12.25l0.4 1.7m46.45-3.6-23.1 14.05v1.55m-1.85-0.85q0.6-0.3 0.25-1.4 11.55-6.2 24.1-13.75m-5.85-2.2q-11.65 6.55-24.9 12.5l-0.35 1.7m25.15-11q-10.95 5.75-20.4 11.65l0.35 1.7m21.4-15.95q-7.75 3.4-23.45 12.7l-0.45 1.7m15-6.45 0.1-0.05q2.4-0.95 2.55-1.15-0.75-0.25-1.9 0.6l-0.75 0.6m5.4-3.1q-4.6 1.6-8 4.65 4.5-1.5 6-2.65l1.7-1.55 0.3-0.45m9.9-2.25q-5.6 3.25-9.25 6.65-4.45 2.8-0.15 1.7m0.4-12.35q-7.1 3.7-14.4 5.3m19.5 4.55 0.7 0.45q0.4 0.9 0 1.8m1.3-3.3 0.95 0.55q-0.7 1.15-0.9 2.25m-18.05 6.05 0.8 0.65 0.15 1.55m0.55-2.95 0.75 0.75-0.05 1.8m0.15 40.85-0.1 0.4-0.2 0.25-0.2-0.05-0.1-0.3 0.1-0.4 0.2-0.25 0.2 0.05 0.1 0.3" fill="none" stroke="#876c30" stroke-width=".5"/>
<path d="m-18.15 7.7q3.7 2.35-1.5 0.8l-5.45-0.7m19.3 19.25q-5.05-1.1-7.7-4.8 4.2 1.55 7.7 4.8m6.75-1.75-1.2 0.35q-4-1.05-6.9-2.35-2.9-1.35-5.15-2.4l-11.5-5.95m5.3-1.5q3.4 2.15 7.4 3.25-1.85-2.2-7.4-3.25m16.4 5.75q-13.95-7.2-23-9.3m1.65 7.1q6.7 3.2 10.55 7.95m14.45-7.05q2.9-1.95 4.3-3.7 3.25-2.45-0.4-0.85m-0.05 11.6q2.75-0.9 3.45-2-2.05 0.05-3.45 2m-29.1-9.1q11.7 6.4 23.3 12l1.3-0.4m-0.5 3.45q1.85 0.95 3.7 1.4l0.7 0.05 0.15-0.35 0.7-0.85q0.3-0.15 0.55 0l0.15 0.1q0.3 0.35 0.3 1.05l-0.2 1.15 0.45 0.4m-0.45-0.4-0.1 0.15-0.7 0.85-0.7-0.1q-0.3-0.3-0.3-0.95l-0.9 0.45q-11.7-4.4-22.3-10.5m23.2 10.05v-0.05l0.15-1m-1.45-5.75q5.9-1.5 8.95-5.9-6.35 1.15-8.95 5.9m-1.9-4.1q7.5-3.35 12.6-6.05 7.15-3.85 9.6-6.6m-9.6 6.6q-8.4 5.3-13.2 9.7m0.6-4.35-1.5 0.8q-13.35-4.9-25-11.45m44.45 10.1q1.35 0.5 1.95 1.15l0.4 0.5 0.35-0.3 0.2-0.05 0.5 0.15q0.3 0.35 0.3 1.05l-0.3 1.3-0.15 0.3-0.55 0.55-0.7-0.1-0.2-0.4-0.7 0.3q-2.15-1.6-4.85-2.5m6.65 0.6 0.1 0.3-0.1 0.4-0.2 0.25-0.2-0.05-0.1-0.3 0.1-0.4 0.2-0.25 0.2 0.05m-1.1 1.6-0.1-0.6 0.05-0.4-0.65 0.2q-1.6-1.3-3.75-1.85m4.4 1.65q0.05-0.5 0.25-0.95l0.35-0.55m1.2-8.2q-7.3 6.4-15.65 12.5m-5.9-6.1q11.9-5.9 22.25-13.55m-23 12.55q10.6-5.3 21.05-13.55m1.15 9.55q-3.7 2.6-6.6 6.85" fill="none" stroke="#876c30" stroke-width=".5"/>
</g>
<g id="m">
<use xlink:href="#n"/>
</g>
</defs>
<use xlink:href="#o"/>
<use transform="matrix(.79999 0 0 .79999 .1 -18.55)" xlink:href="#m"/>
</svg>
