<?xml version="1.0" encoding="UTF-8"?>
<svg version="1.1" viewBox="0 0 448.81 309.39" xmlns="http://www.w3.org/2000/svg" xmlns:cc="http://creativecommons.org/ns#" xmlns:dc="http://purl.org/dc/elements/1.1/" xmlns:rdf="http://www.w3.org/1999/02/22-rdf-syntax-ns#" xmlns:xlink="http://www.w3.org/1999/xlink">
<metadata>
<rdf:RDF>
<cc:Work rdf:about="">
<dc:format>image/svg+xml</dc:format>
<dc:type rdf:resource="http://purl.org/dc/dcmitype/StillImage"/>
</cc:Work>
</rdf:RDF>
</metadata>
<g transform="translate(-22.466 -53.429)">
<use transform="matrix(-.5808 .7822 -.7858 -.5835 495.69 270.68)" width="142.5" height="149.8" xlink:href="#a"/>
<use transform="matrix(.9242 .3789 -.3789 .9242 101.8 98.27)" width="142.5" height="149.8" xlink:href="#a"/>
<use transform="matrix(.1021 .7228 1.1651 -.1646 145.07 124.94)" width="152.85001" height="54.650002" xlink:href="#b"/>
<use transform="translate(128.35,53.45)" width="280.45001" height="282.20001" xlink:href="#e"/>
<use transform="matrix(-.5808 .7822 -.7858 -.5835 212.54 295.13)" width="142.5" height="149.8" xlink:href="#a"/>
<use transform="translate(248.35,170.7)" width="47.099998" height="48.200001" xlink:href="#d"/>
<use transform="matrix(.9871 -.1571 .1571 .9871 260.29 218.92)" width="39.349998" height="39.450001" xlink:href="#c"/>
<use transform="matrix(.9936 .1096 -.1419 1.2866 122.61 290.41)" width="152.85001" height="54.650002" xlink:href="#b"/>
</g>
<defs>
<g id="a" transform="translate(.1 .1)">
<use transform="translate(-.1 -.1)" width="142.5" height="149.8" xlink:href="#j"/>
</g>
<g id="j" transform="translate(.1 .1)">
<path d="m0.2 31.45v-0.4l33.15 4.45-5.4 2.1 5.4-2.1 1.75 0.15 2.9 3.7 0.95 4.4 0.2 1h-0.2q-0.2-0.6 0-1-0.2 0.4 0 1l-17.35-4.45 6.35-2.7-11.35 0.4h-1.15v0.2l-15.25-6.75" fill="#9cb926" fill-rule="evenodd"/>
<path d="m0.2 31.05v0.4-0.4" fill="#339b20" fill-rule="evenodd"/>
<path d="m0.2 31.45 15.25 6.75q0.95 17.35 16 32.75-6.75-15.05-9.85-30.65l17.35 4.45q-0.75 17.9 4.8 36.6 7.95 5.8 18.15 11.2-9.45-4.25-17.35-8.85 4.05 12.9 11.2 26.2-12.95-16-21.4-32.8-26.65-19.05-34.15-45.65m44.35 52.25-0.8-2.35 0.8 2.35m-13.1-12.75 2.9 6.15-2.9-6.15" fill="#859e1d" fill-rule="evenodd"/>
<path d="m62.1 29.7h0.2l45.5 58.4q-6.95 12.35-11 12.95l-12.15-16.8-7.15-10.2q-9.45-13.5-18.5-25.65l-0.2-0.2-11.55-15.05q5.8-1.5 9.65-1.7 3.05-0.8 5.2-1.75m11.75 21.8-16.95-20.05 16.95 20.05" fill="#c5b665" fill-rule="evenodd"/>
<path d="m62.3 29.7h-0.2q-2.15 0.95-5.2 1.75-3.85 0.2-9.65 1.7-5.6 2.5-10.05 1.55l-0.35-0.2q-0.2-0.15-0.4-0.15h-0.2l-4.45-2.7-1.9-9.65q2.7-3.7 5.2-6.55l1.35 6.75-0.75 2.1 0.75 0.6q10.8 10.4 23.7-14.3 0.6-0.75 1.35-1.35l3.1-3.65q1.35 2.5 2.5 6-0.6 7.5-2.5 11.95l0.4 0.35q1.9 3.3-2.7 5.8m-28.15-7.5 1.55 2.1-1.55-2.1m2.3 12.15 0.75 0.35-0.75-0.35" fill="#bfaf57" fill-rule="evenodd"/>
<path d="m65 23.9-0.4-0.35q1.9-4.45 2.5-11.95 17.55 39.5 45.7 67.05l-5 9.45-45.5-58.4q4.6-2.5 2.7-5.8l19.05 27.6-19.05-27.6m-0.4-18.3-3.1 3.65q-0.75 0.6-1.35 1.35-12.9 24.7-23.7 14.3l-0.75-0.6 0.75-2.1-1.35-6.75q20.65-24.7 29.5-9.85" fill="#cfbe85" fill-rule="evenodd"/>
<path d="m32.2 32.2q1.75 1.35 3.85 2.15l0.8 0.15 0.35 0.2 0.8 4.65-2.9-3.7-0.6-0.75-2.3-2.7m2.3 2.7 1.55-0.55-1.55 0.55" fill="#9d8e3c" fill-rule="evenodd"/>
<path d="m38 39.35-0.8-4.65q4.45 0.95 10.05-1.55l11.55 15.05 0.2 0.2q9.05 12.15 18.5 25.65l7.15 10.2 9.25 13.7 2.1 3.1q-7.7 3.25-14.45 0.35l-5.2-8.65-4.45-6.95-0.75-1.15-1.55-2.5-0.2-0.2-5-7.7-2.5-3.7-7.7-10.6-1.15-1.55-3.5-4.6-11.55-14.45" fill="#968738" fill-rule="evenodd"/>
<path d="m107.8 88.1 5-9.45q9.45-1.55 5 8.3-0.75 5.4-3.25 9.65-4.45 7.3-14.7 10.8-0.75-2.15-3.85-6.35h0.8q4.05-0.6 11-12.95m33.5 38.95 0.6-1.15 0.4 0.6-1 0.55m-11.95 16v0.2h-0.15l0.15-0.2" fill="#948534" fill-rule="evenodd"/>
<path d="m141.9 125.9-0.6 1.15q0.6 2.7 0.6 4.65l-27.35-35.1q2.5-4.25 3.25-9.65 11.2 18.5 21.8 35.1l2.3 3.85" fill="#9c863d" fill-rule="evenodd"/>
<path d="m114.55 96.6 27.35 35.1q-0.6 3.85-4.8 4.25-2.35 9.4-7.75 7.3v-0.2l-2.85-1.55q-1.2-0.75-2.15-1.9l-0.2 0.2q-1.55 0.95-3.05 2.1 0.75-5.4 0-6.35l-21.25-28.15q10.25-3.5 14.7-10.8m11.15 23.7 11.4 15.65-11.4-15.65" fill="#7b702f" fill-rule="evenodd"/>
<path d="m81.55 101.4q6.75 2.9 14.45-0.35 3.1 4.2 3.85 6.35l21.25 28.15q0.75 0.95 0 6.35 1.5-1.15 3.05-2.1-0.35 0.15 2.35 1.7 1.35 1.15 2.7 1.75l-9.65 6.35-4.85-3.05-0.75-0.4-2.5-3.65-29.9-41.1" fill="#585021" fill-rule="evenodd"/>
<path d="m126.5 141.5 2.85 1.55-0.15 0.2q-1.35-0.6-2.7-1.75m-11.8 5.05-0.15 0.15-0.6-0.55 0.75 0.4" fill="#a58c3a" fill-rule="evenodd"/>
<path d="m96 101.05-2.1-3.1-9.25-13.7 12.15 16.8h-0.8" fill="#a89f3e" fill-rule="evenodd"/>
<path d="m0.2 31.45 15.25 6.75v-0.2h1.15l11.35-0.4 5.4-2.1-33.15-4.45m0 0.4-0.2-0.4h0.2m16.4 6.95-1.15 0.2q0.95 17.35 16 32.75-6.75-15.05-9.85-30.65l6.35-2.7m34.15-7.9q-2.15 0.95-5.2 1.75l16.95 20.05m-6.75-39.9q-0.6 7.5-2.5 11.95l0.4 0.35 19.05 27.6m-19.05-27.6q1.9 3.3-2.7 5.8m45.5 58.4 5-9.45q-28.15-27.55-45.7-67.05-1.15-3.5-2.5-6m-3.1 3.65q-0.75 0.6-1.35 1.35-12.9 24.7-23.7 14.3m-0.75-0.6-1.55-2.1m-2.35 9.45-1.9-9.65q2.7-3.7 5.2-6.55 20.65-24.7 29.5-9.85m-32.8 26.05 0.4 0.55q1.75 1.35 3.85 2.15h0.2m-2.9 1.15 1.75 0.15-0.6-0.75-1.15 0.6m1.15-0.6-2.3-2.7m5 2.5-0.35-0.2-0.8-0.15-1.55 0.55m2.7-0.2-0.75-0.35m1.55 5 0.95 4.4 0.2 1h-0.2q-0.75 17.9 4.8 36.6 7.95 5.8 18.15 11.2-9.45-4.25-17.35-8.85 4.05 12.9 11.2 26.2-12.95-16-21.4-32.8-26.65-19.05-34.15-45.65m38.75 12.3q-0.2 0.4 0 1l-17.35-4.45m16.4-0.95-0.8-4.65q4.45 0.95 10.05-1.55 5.8-1.5 9.65-1.7m-18.9 7.9 11.55 14.45 3.5 4.6 1.15 1.55 7.7 10.6 2.5 3.7 5 7.7 0.2 0.2 1.55 2.5 0.75 1.15 4.45 6.95 5.2 8.65q6.75 2.9 14.45-0.35h0.8l-12.15-16.8-7.15-10.2m-43.15 3.05-2.9-6.15m12.3 10.4 0.8 2.35m73.25 3.25q4.45-9.85-5-8.3m29.1 47.25-0.6 1.15m1-0.55-0.4-0.6-2.3-3.85q-10.6-16.6-21.8-35.1-0.75 5.4-3.25 9.65-4.45 7.3-14.7 10.8m42.05 24.3q0-1.95-0.6-4.65m-17.15 12.75 0.2-0.2q0.95 1.15 2.15 1.9l2.85 1.55m0 0.2q5.4 2.1 7.75-7.3l-11.4-15.65m-1.55 19.5q-0.35 0.15 2.35 1.7 1.35 1.15 2.7 1.75l0.15-0.2m0 0.2h-0.15l-9.65 6.35-4.85-3.05-0.75-0.4m27.95-14.45q-0.6 3.85-4.8 4.25m-40.3-34.9q4.05-0.6 11-12.95" fill="none" stroke="#554d1e" stroke-linecap="round" stroke-linejoin="round" stroke-opacity=".72157" stroke-width=".25"/>
<path d="m114.55 146.7-0.6-0.55-2.5-3.65-29.9-41.1" fill="none" stroke="#554d1e" stroke-linecap="round" stroke-linejoin="round" stroke-opacity=".72157" stroke-width=".25"/>
</g>
<g id="b" transform="translate(.1 .1)">
<use transform="translate(-.1 -.1)" width="152.85001" height="54.650002" xlink:href="#i"/>
</g>
<g id="i" transform="translate(.1 .1)">
<path d="m27.7 52.35 2.25 0.55-6.6 0.65 0.1-0.15 4.25-1.05" fill="#9cb926" fill-rule="evenodd"/>
<path d="m95.65 13.65q8.05 10.55 6.95 14.1l-19 3.5-11.4 1.9-28.85 5.45-0.35 0.05-17.1 3.8q0.8-5.55 2.1-8.75 0.5-2.85 0.45-4.85v-0.2l67.2-15m-44.1 13.85-23.55 6.2 23.55-6.2" fill="#c5b665" fill-rule="evenodd"/>
<path d="m14.8 17.6q6.15 3.3 9.25 6.65l0.5-0.05q3.65-0.45 3.9 4.45v0.2q0.05 2-0.45 4.85-1.3 3.2-2.1 8.75-0.05 5.5-2.5 8.8l-0.5 0.5 0.5-0.5-0.25 0.3-0.25 0.2-0.05 0.05-0.1 0.05-4 2.6-8.95-2.05-3.7-6.95 6.3 1.5 1.5 1.45 0.85-0.25q12.9-4.95-3.4-25.1l-0.75-1.7-1.85-4 6.05 0.25m-3.25 31.4 2.35-0.6-2.35 0.6" fill="#bfaf57" fill-rule="evenodd"/>
<path d="m89.3 5.8-0.05 0.1 6.4 7.75-67.2 15q-0.25-4.9-3.9-4.45l-0.5 0.05q-3.1-3.35-9.25-6.65 40.5 0.8 74.5-11.8m-33.95 13.25-30.8 5.15 30.8-5.15m-46.6-1.7 1.85 4 0.75 1.7q16.3 20.15 3.4 25.1l-0.85 0.25-1.5-1.45-6.3-1.5q-13.45-26.65 2.65-28.1" fill="#cfbe85" fill-rule="evenodd"/>
<path d="m23.45 53.4-0.8 0.1 0.1-1.5-0.1 1.5-3.25 0.85q1.95-0.95 3.35-2.35l0.4-0.45 0.25-0.3 4.3 1.1-4.25 1.05" fill="#9d8e3c" fill-rule="evenodd"/>
<path d="m97.25 40.55-9.5 0.9-7.55 0.9-1.3 0.15-2.6 0.35-8.75 1.25-4.1 0.7-12.05 2.25-1.75 0.35-5.3 1.05-16.65 3.9-4.3-1.1q2.45-3.3 2.5-8.8l17.1-3.8 0.35-0.05 28.85-5.45 11.4-1.9 15.3-2.3 3.4-0.5q-0.1 7.65-5.05 12.1" fill="#968738" fill-rule="evenodd"/>
<path d="m150.95 17.25-0.15 0.15v-0.2l0.15 0.05m-9.4-16.2-0.9-0.9 0.7-0.15 0.2 1.05m-43.3 3.95q4.5 2.65 7.2 6.4 4.6 6.5 3.65 16.3-1.95-0.25-6.8 0.75l0.3-0.7q1.1-3.55-6.95-14.1l-6.4-7.75 0.05-0.1q2.35-8.4 8.95-0.8" fill="#948534" fill-rule="evenodd"/>
<path d="m140.65 0.15 0.9 0.9q2.5 0.5 4.05 1.35l-40.15 9q-2.7-3.75-7.2-6.4l38.3-4.4 4.1-0.45" fill="#9c863d" fill-rule="evenodd"/>
<path d="m145.6 2.4q3.25 1.95 1.9 5.55 7.3 5.5 3.45 9.3l-0.15-0.05-2.4 1.8-2.45 1v0.2l0.75 3.4q-4.25-2.8-5.55-2.5l-32.05 6.6q0.95-9.8-3.65-16.3l40.15-9m-15.7 9 17.6-3.45-17.6 3.45" fill="#7b702f" fill-rule="evenodd"/>
<path d="m150.8 17.4 1.85 10.4-4.3 2.75-0.7 0.45-4.05 0.8-46.35 8.75q4.95-4.45 5.05-12.1 4.85-1 6.8-0.75l32.05-6.6q1.3-0.3 5.55 2.5l-0.75-3.4q0.2 0.3 2.45-1.2l2.4-1.6" fill="#585021" fill-rule="evenodd"/>
<path d="m148.35 30.55 0.05 0.3-0.75 0.15 0.7-0.45m2.45-13.35v0.2l-2.4 1.6 2.4-1.8" fill="#a58c3a" fill-rule="evenodd"/>
<path d="m102.6 27.75-0.3 0.7-3.4 0.5-15.3 2.3 19-3.5" fill="#a89f3e" fill-rule="evenodd"/>
<path d="m145.6 2.4q3.25 1.95 1.9 5.55 7.3 5.5 3.45 9.3l-0.15 0.15 1.85 10.4-4.3 2.75-0.7 0.45m-50.4 9.55-9.5 0.9-7.55 0.9-1.3 0.15-2.6 0.35-8.75 1.25-4.1 0.7-12.05 2.25-1.75 0.35-5.3 1.05-16.65 3.9 2.25 0.55m-6.6 0.65 0.1-0.15-0.8 0.1v0.4m128.15-36.5v-0.2l-2.4 1.8 2.4-1.6m-4.85 2.8v-0.2l2.45-1q-2.25 1.5-2.45 1.2m-5.3-20.05 0.9 0.9m-0.2-1.05-0.7 0.15-4.1 0.45-38.3 4.4q4.5 2.65 7.2 6.4m40.15-9q-1.55-0.85-4.05-1.35m5.95 6.9-17.6 3.45m-31.65-6.4q-6.6-7.6-8.95 0.8l-0.05 0.1 6.4 7.75q8.05 10.55 6.95 14.1l-0.3 0.7q-0.1 7.65-5.05 12.1m11.85-12.85q0.95-9.8-3.65-16.3m-21.85 19.85 19-3.5m-30.4 5.4 11.4-1.9m-68.8-13.65q6.15 3.3 9.25 6.65l0.5-0.05 30.8-5.15m-44.75 2.3 0.75 1.7q16.3 20.15 3.4 25.1m-0.85 0.25-2.35 0.6m3.25-31.4-6.05-0.25q-16.1 1.45-2.65 28.1m22.35-16.6q0.05 2-0.45 4.85l23.55-6.2m-23.55 6.2q-1.3 3.2-2.1 8.75-0.05 5.5-2.5 8.8l4.3 1.1m-3.15-28.15q3.65-0.45 3.9 4.45m-5.6 23.15 0.55-0.55-0.25 0.3-0.4 0.45-0.1 1.5-3.25 0.85-0.65 0.1-8.95-2.05-3.7-6.95m16.65 6.55v-0.15m-3.35 2.5q1.95-0.95 3.35-2.35m66.55-46.2q-34 12.6-74.5 11.8" fill="none" stroke="#554d1e" stroke-linecap="round" stroke-linejoin="round" stroke-opacity=".72157" stroke-width=".25"/>
<path d="m148.4 30.85-0.75 0.15-4.05 0.8-46.35 8.75" fill="none" stroke="#554d1e" stroke-linecap="round" stroke-linejoin="round" stroke-opacity=".72157" stroke-width=".25"/>
</g>
<g id="e" transform="translate(.5 .45)">
<use transform="translate(-.5 -.45)" width="280.45001" height="282.20001" xlink:href="#h"/>
</g>
<g id="h" transform="translate(.5 .45)">
<path d="m268.5 26.25q2.85 2.5 4.6 5.25-7.75 13.2-31.65 10.9l-3.7 4.85-3-1.85q-5.6-3.15-13.1-4.8 8.05 0.45 10.75-7-2.7-8.95 7.8-11l-10.1-1.7q-0.05-5.3-3.8-11.7l8.25 9.85q0.65-8.05 1.25-7.85 6.55 7.55 17.5 15.05 21.75 10.35 15.2 0m-23.1 10.95-3.95 5.2 3.95-5.2m-27.85-28.7q2.5 4.2 3.5 8.4l0.1 0.6q0.95 4.75-0.05 9.55l-0.2 0.75 0.05 0.05q-1.3 6.4-5.5 11.7l-0.15-0.05-7.8-0.35 7.05-10.35-10-0.55-0.05 0.95q-23.05-0.1-24.1-12.6-1.25-11 10.45-0.8l10 3.1v-2.85l10.1 8.05 6.1-15.4 0.5-0.2m-20.45 40.6 15.8-0.45 4.45 1.6q-1.6 1.1-4.1 7.1-2.25 2.5-4.15 5.15-4.75 6.75-7.2 14.55l-1.9 3.25q-1.1 8.45 0 16.85v10.2q6.65 1.6 11.15-5.05l1.75-0.85-0.9-6.8-1.05-7.75-0.4-3.05 1.8-4.85 3.9-9.05 0.65-1.55q3.1-8.15 5.35-16.4l0.3 0.1 2.5 1.45q4.1 2.65 4.05 4.65l-2 1.3 2-1.3v0.15l0.1 0.1-1.2 1.55-0.9-0.5 2.1-1.05-2.1 1.05 0.45 1.1-1.4 1.8q2 4.4 3.05 9-2.25 23.45-13.3 33.7-2.45-1.55-4.75-2.8 2.3 1.25 4.75 2.8 3.25 2 6.7 4.45l-0.05 0.95 0.85 0.55 5.15 3.45q24.65 22.85 36.35 62 7.7 16 5.85 36.8-2.35 5.45-6.1 10.6 19.8 20.4 13.15 31.6l-25.3 6.45q-22.4 4.85-41.8-2.45l-5.85 9.1-0.35-0.05q-10 9-37.95 12l31.45-9.6q-119.05-20.65-113.6-65.45 12.35-2.55 16.5-7.65l11.9 23.75 3.6 25.15 22.85-5.45 2.35-0.1 13.55-1.5q49.65-13.2 51.1-8.5l32.35-8.4-2.05-3.25-0.65-1.05q-1.7-9.55-6.8-17.35-3.95-6.05-9.9-11.05l-4.1-0.65-2.15-3.85-35.55-21.85-1.2-2.75-1.05-2.4-0.25-1.9q17.3-21.1 13-37.9l-21.25-2.55q-1.3-13.05-17.9-34.7 16.9-3.15 27.5-3.35l-0.05-0.35q11.55-20.25 1.1-28.15l19.8-0.6m-10.7 46.5q5.7-1.15 13.6 1.55-7.9-2.7-13.6-1.55m7.5-8.8q1.5-9.05-17.65-8.6 19.15-0.45 17.65 8.6m30.35-32.95 0.8-0.3-0.8 0.3m-136.8 86.4-0.1 5.35 1.7 1.2-1.75 1.7-0.05 4.85q-15.8-5.25 0.2-13.1m115.45 28.55q-6.45-3.85-14.7-5.85-5.6-1.4-12-1.95 6.4 0.55 12 1.95 8.25 2 14.7 5.85m33.25 51-0.25-1.3 0.65 1.05-0.4 0.25" fill="#bca34e" fill-rule="evenodd"/>
<path d="m268.5 26.25q6.55 10.35-15.2 0-10.95-7.5-17.5-15.05 22.95 15.1 32.7 15.05m-42.2-17.05q3.75 6.4 3.8 11.7 0.05 6.9-6.2 11.9h-0.15l-2.8-4.95 0.15-0.8-0.15 0.8-0.05-0.05 0.2-0.75q1-4.8 0.05-9.55l-0.1-0.6q-1-4.2-3.5-8.4l-0.5 0.2-6.1 15.4-10.1-8.05v-0.2l-0.15-9.85q8.1-10.75 13.55-2.15l12.05 5.35m-8.75-0.7-3.3-4.65 3.3 4.65m-13.05 20.7 0.05-0.95 10 0.55-7.05 10.35-7.25 0.5-5.25 1.1 9.5-11.55m-34.8 21.2h0.05l3.45-0.6 4.1-0.1q10.45 7.9-1.1 28.15l0.05 0.35q-10.6 0.2-27.5 3.35 16.6 21.65 17.9 34.7-19.9-3.75-45 1.15l2.9 3.7-7.4-2.8q-5.55 1.2-11.35 2.85-23.05 0.8-18.25 14.4l-0.1 4.7q-16 7.85-0.2 13.1l-0.45 24.3v0.4q4.45 3.95 8.35 8.25t7.2 9.05q6.1 8.7 10.2 18.75l4.6 0.2-2.9 4.2q3.9 11.1 5.55 23.7l7.15-1.35 7.85 0.5 4.45-0.05-22.85 5.45-3.6-25.15-11.9-23.75q-4.15 5.1-16.5 7.65-5.45 44.8 113.6 65.45l-31.45 9.6q-13.75 0.85-31.25 0.7l-50.8-18.6-3.75-1.3q-24.2-8.3-50.6-7.5l-1.65 0.05-0.4 0.05q-0.55-0.55-0.5-0.1v0.25-0.25q-0.05-0.45 0.5 0.1l0.4 0.5-0.9-0.35-11.5-5.15q-13.4-15.45 2.35-50.3 7.55-22.75 25.85-31.8-9.5-0.9-7.45-19.7 3.65-25.7 54.15-54.65l6.4-2.6 41.35-12.45q6.65-22.35 30.95-27.05m59.5 21q4.15 17.8-6.6 38.15-3.45-2.45-6.7-4.45 11.05-10.25 13.3-33.7m48.6 184.1q-9.5 15.95-72.95 13.1l5.85-9.1q19.4 7.3 41.8 2.45l25.3-6.45m-122.65-15.8q22.75-12.05 40.1-12l0.1-5.65 4.3 4.8 36.5-7.05 0.4-0.25 2.05 3.25-32.35 8.4q-1.45-4.7-51.1 8.5" fill="#a2833e" fill-rule="evenodd"/>
<path d="m230.1 20.9 10.1 1.7q-10.5 2.05-7.8 11-2.7 7.45-10.75 7l-0.2-0.05-2.55-0.5-3.45-0.5q4.2-5.3 5.5-11.7l2.8 4.95h0.15q6.25-5 6.2-11.9m-11.2 19.15 0.7-0.55-0.7 0.55m9.65 74.45q28.4 20.15 39.7 53.3 11.15 25.1 2.5 45.5 1.85-20.8-5.85-36.8-11.7-39.15-36.35-62m-93.25 166.75q-25.45-0.3-59.55-3.55-47.9-1.25-48.15-23.6l0.9 0.35-0.4-0.5 0.4-0.05 1.65-0.05q26.4-0.8 50.6 7.5l3.75 1.3 50.8 18.6m-119.2-32.3q-33.7-16.65 3.1-90.35 21.75-44.8 71.8-66.1-50.5 28.95-54.15 54.65-2.05 18.8 7.45 19.7-18.3 9.05-25.85 31.8-15.75 34.85-2.35 50.3m64.65 12.4-50.6-7.5 50.6 7.5" fill="#886f33" fill-rule="evenodd"/>
<path d="m221.65 40.6q7.5 1.65 13.1 4.8l3 1.85 2.6 1.75q2.55 3.55 0 6.45l-7-7.9-2.5-0.8-14.4-4.55-1.95-0.65-16.9 1.05-6.1 0.35-3.95-0.6q1.7-0.75 5.1-1.45l2.35-0.15 5.25-1.1-2.65 2.95 2.65-2.95 7.25-0.5 7.8 0.35 0.15 0.05 3.45 0.5 2.55 0.5 0.2 0.05m-2.75-0.55-2.45 2.15 2.45-2.15m-4.7 4.05h1.1q2.8 0.6 5.35 1.5 3.2 1.1 6.1 2.6 6.65 3.4 11.7 8.9l3.35 1.85-5.45 3.45-1.8 1.15-3.7-2-0.6-0.35-2.25-1.2 1.2-1.55 0.35-0.55-0.45 0.45v-0.15q0.05-2-4.05-4.65l-2.5-1.45-0.3-0.1-4.9-1.75-4.45-1.6-15.8 0.45q-1.75-2.3 3.6-4.6-5.35 2.3-3.6 4.6l-11.55 0.35q-0.6-2.3 4.3-4.6-4.9 2.3-4.3 4.6l-8.25 0.25-4.1 0.1-3.45 0.6h-0.05l-0.05-0.6q-1-4.7 8.2-4.7l3.75 0.15 5.15-0.35 3.1-0.05 5.95-0.2 4.9-0.15h0.25l13.25-0.4m2.15 4.7 4.3-3.2-4.3 3.2m1.25 0.95-0.25 0.5 0.25-0.5m17.15-4.35-3.9 1.35 3.9-1.35m-60.3 3.05 3.4-3.35-3.4 3.35m25.55 51.55v-2.85q-1.1-8.4 0-16.85l1.9-3.25q2.45-7.8 7.2-14.55 8.45 0.35 7.8 5.9l-0.65 1.55-3.9 9.05-1.8 4.85 0.4 3.05 1.05 7.75q-4.9 6.95-12 5.35 7.1 1.6 12-5.35l0.9 6.8-1.75 0.85q-4.5 6.65-11.15 5.05v-7.35m0.65-9.8q1.95 1.05 5.9-1.3 2.35 0.85 4.4-2-2.05 2.85-4.4 2-3.95 2.35-5.9 1.3m37.55-32.35 0.25-0.75-0.25 0.75m-10.65 2.75-0.45-1.1 0.9 0.5-0.45 0.6m15 13.55 6.45 12.3q3.15 12.05-2.4 22.9l-8.45-6.55-4.8-3.75q7.95-2.5 6.75-11.6l-0.85-4.5 2.45-6.55 0.85-2.25m-13-16.25-0.45 0.3 0.45-0.3m0.45-6.2-4.95 1.85 4.95-1.85m1.8 6.1 4.3-0.35-4.3 0.35m-8.3-9.2-1.25 3.4 1.25-3.4m-15.1 18.65q3.4 3.7 7.85 2.7-4.45 1-7.85-2.7m3.95 11.75q-7.95 2.75-10.45-1.95 2.5 4.7 10.45 1.95m32.7 11.75q-0.2-7.5-3.35-14.35 3.15 6.85 3.35 14.35m-1.8 5.4q0.9 4-5.1 6.65 6-2.65 5.1-6.65" fill="#968138" fill-rule="evenodd"/>
<path d="m197.6 42.6 16.9-1.05 1.95 0.65 14.4 4.55-4.1 1.45 4.1-1.45 2.5 0.8 7 7.9-1.9 1.65q-5.05-5.5-11.7-8.9-2.9-1.5-6.1-2.6-2.55-0.9-5.35-1.5h-1.1l2.25-1.9-2.25 1.9-13.25 0.4h-0.25l-4.9 0.15 1.8-2.05-1.8 2.05-5.95 0.2-3.1 0.05q-2.1-1.35 0.8-2.55l3.95 0.6 6.1-0.35m24.65 9.4q-2.25 8.25-5.35 16.4 0.65-5.55-7.8-5.9 1.9-2.65 4.15-5.15 2.5-6 4.1-7.1l4.9 1.75m5.75 8 2.25 1.2 0.6 0.35 3.7 2 1.8-1.15 6.2 11.75-0.85 2.25-2.45 6.55q-2.3-9.9-7.7-17.5l-0.1-0.2-3.9-4.65 0.45-0.6m-9.25-1.8q-4.15 1.85-5.5-0.85 1.35 2.7 5.5 0.85m12.1 3.35q7.3 7 10.85 14.85-3.55-7.85-10.85-14.85" fill="#7b642f" fill-rule="evenodd"/>
<path d="m166.65 116.25 21.25 2.55q4.3 16.8-13 37.9l0.25 1.9 1.05 2.4q-7.55-0.65-16.25-0.15 8.7-0.5 16.25 0.15l1.2 2.75 35.55 21.85 2.15 3.85 4.1 0.65q5.95 5 9.9 11.05 3.2 12.85-52.35 22.15l-9 1.45-1.65 0.25 0.05 0.05-2.2 0.4-0.05-0.15-1.85 0.25-8.15 1.1-12.3-1.05q6.45-10.4-38.75-35.2-0.95-6.4-9.25-15.05 12-4.05 22.95-6.9l3.15-0.85 10.65-1.8-0.05-0.05-0.65-0.25v-0.25l0.05 0.1 4.1-0.8v0.15l0.7-0.15 0.3 0.5 14.95-2.5v-0.2l0.05-0.6v-0.3l1.75 0.7-1.75-0.7 0.05-0.4 1.7 1.1 1.6-1 0.05 0.25 0.1 0.55 1.65-0.25 1.4-0.25 0.7-0.15 2.9-0.45 14.45-2.45q-7.6 0.1-14.7-0.2l-6.15-0.3-0.4 0.75h-0.4v-0.15l-2.75 0.05v0.1l-16.3 0.15v-0.05l-7.25 0.05-8.35-0.1q-21.3-2.2-30.85-5.35l0.05-4.85 1.75-1.7-1.7-1.2 0.1-5.35q6.75-3.35 19.15-7.15l15.25 2 5.4 0.45 1.4 0.05 1.4 0.1v-0.05l3.25 0.15h0.25l6.75-0.1q17.75-0.8 23.6-8.35 3.35-4.45 2.75-11.1m-36.95 49.1h-0.05 0.05" fill="#f2dec8" fill-rule="evenodd"/>
<path d="m166.65 116.25q0.6 6.65-2.75 11.1-5.85 7.55-23.6 8.35l-6.75 0.1h-0.25l-3.25-0.15v0.05l-1.4-0.1-1.4-0.05-5.4-0.45-15.25-2q-12.4 3.8-19.15 7.15l0.1-4.7q-4.8-13.6 18.25-14.4 5.8-1.65 11.35-2.85l7.4 2.8-2.9-3.7q25.1-4.9 45-1.15m-79.4 37.1q9.55 3.15 30.85 5.35l8.35 0.1 7.25-0.05v0.05l16.3-0.15v-0.1l2.75-0.05v0.15h0.4l0.4-0.75 6.15 0.3q7.1 0.3 14.7 0.2l-14.45 2.45-2.9 0.45-3.9-0.15 3.9 0.15-0.7 0.15-1.4 0.25-1.65 0.25-0.1-0.55-0.05-0.25-1.6 1-1.7-1.1-0.05 0.4-5.65 1.1-10.3 2h-0.05 0.05l10.3-2 5.65-1.1v0.3l-0.05 0.6v0.2l-14.95 2.5-0.3-0.5-0.7 0.15v-0.15l-4.1 0.8-0.05-0.1-2.2 0.5-7.75 1.85 7.75-1.85 2.2-0.5v0.1l-2.2 0.4 2.2-0.4v0.15l0.65 0.25 0.05 0.05-10.65 1.8-3.15 0.85q-10.95 2.85-22.95 6.9l-6.8 2.3 6.8-2.3q8.3 8.65 9.25 15.05 45.2 24.8 38.75 35.2l12.3 1.05 8.15-1.1 1.85-0.25 0.05 0.15 2.2-0.4-0.05-0.05 1.65-0.25 9-1.45q55.55-9.3 52.35-22.15 5.1 7.8 6.8 17.35l0.25 1.3-36.5 7.05-4.3-4.8-0.1 5.65q-17.35-0.05-40.1 12l-13.55 1.5-2.35 0.1-4.45 0.05-7.85-0.5-7.15 1.35q-1.65-12.6-5.55-23.7l2.9-4.2-4.6-0.2q-4.1-10.05-10.2-18.75-3.3-4.75-7.2-9.05t-8.35-8.25v-0.4l0.45-24.3m145.35 59.85 3.3 5.3-3.3-5.3m-88.45-50.65 5.65-0.8-5.65 0.8m10.8-0.85-1.75-0.3 1.75 0.3" fill="#e2cc83" fill-rule="evenodd"/>
<path d="m241.45 42.4q23.9 2.3 31.65-10.9-1.75-2.75-4.6-5.25-9.75 0.05-32.7-15.05-0.6-0.2-1.25 7.85l-8.25-9.85-12.05-5.35q-5.45-8.6-13.55 2.15l0.15 9.85m20.8 24.75q7.5 1.65 13.1 4.8l3 1.85 3.7-4.85 3.95-5.2m-24.35-20.3 0.1 0.6q0.95 4.75-0.05 9.55l-0.15 0.8m-20.1-11.8v2.85l-10-3.1q-11.7-10.2-10.45 0.8 1.05 12.5 24.1 12.6m3 9.95 7.8 0.35 0.15 0.05m3.45 0.5 2.55 0.5 0.2 0.05m-2.75-0.55-3.45-0.5m-1.25 4.55h1.1q2.8 0.6 5.35 1.5 3.2 1.1 6.1 2.6m-12.55-4.1-13.25 0.4m-3.85 4.6 15.8-0.45 4.45 1.6 4.9 1.75m18.1 3.45q2.55-2.9 0-6.45l-2.6-1.75m-68.1 2.55q-1-4.7 8.2-4.7l3.75 0.15 5.15-0.35m5.9-4 2.35-0.15 9.5-11.55m-14.65 15.65-3.1 0.05m13.5-5.25-5.25 1.1m0.8 3.9 4.9-0.15m-4.9 0.15-5.95 0.2m-4.3 4.6 11.55-0.35m-27.4 1.3h0.05l3.45-0.6 4.1-0.1 8.25-0.25m-9.3 28.75q19.15-0.45 17.65 8.6m6.1 10.35q-7.9-2.7-13.6-1.55m49.95-33.2 5.45-3.45-3.35-1.85-0.25 0.75m0.25-0.75 1.9-1.65m-12.8 5.15-0.45-1.1 2-1.3q0.05-2-4.05-4.65l-2.5-1.45-0.3-0.1m6.95 6.45-1.2 1.55 2.25 1.2m0.6 0.35 3.7 2 1.8-1.15 6.2 11.75 6.45 12.3q3.15 12.05-2.4 22.9l-8.45-6.55-4.8-3.75q7.95-2.5 6.75-11.6l-0.85-4.5q-2.3-9.9-7.7-17.5m-0.1-0.2-3.9-4.65-1.4 1.8q2 4.4 3.05 9 4.15 17.8-6.6 38.15l1.15 0.95m5.35-52.15 0.1 0.1 0.35-0.55m-0.45 0.45v-0.15l0.45-0.3m-2.45 1.6 0.9 0.5-0.45 0.6m1.65-2.15-2.1 1.05m11.35-2.4q-5.05-5.5-11.7-8.9m-19.25-9.05-7.25 0.5m15.65 65.45q-2.45-1.55-4.75-2.8m11.45 7.25q-3.45-2.45-6.7-4.45m6.7 4.45-0.05 0.95 0.85 0.55 5.15 3.45q28.4 20.15 39.7 53.3 11.15 25.1 2.5 45.5-2.35 5.45-6.1 10.6 19.8 20.4 13.15 31.6-9.5 15.95-72.95 13.1l-0.35-0.05q-10 9-37.95 12-13.75 0.85-31.25 0.7-25.45-0.3-59.55-3.55-47.9-1.25-48.15-23.6l-11.5-5.15q-33.7-16.65 3.1-90.35 21.75-44.8 71.8-66.1l6.4-2.6 41.35-12.45q6.65-22.35 30.95-27.05m-82.35 95.2 1.7 1.2-1.75 1.7m131.9 41.6-4.1-0.65-2.15-3.85m-91.3-68.2 2.9 3.7-7.4-2.8m-4.6 95.8 4.6 0.2-2.9 4.2m25 22.8 2.35-0.1m53.65-13.5 0.1-5.65 4.3 4.8 36.5-7.05-0.25-1.3-3.3-5.3m-205 40.9v-0.25q-0.05-0.45 0.5 0.1l0.4 0.5-0.9-0.35m208.95-34.55-0.65-1.05q-1.7-9.55-6.8-17.35m9.5 21.65-2.05-3.25m-87.8-138q16.9-3.15 27.5-3.35" fill="none" stroke="#000" stroke-linecap="round" stroke-linejoin="round" stroke-opacity=".30196"/>
<path d="m226.3 9.2q3.75 6.4 3.8 11.7m-15.85-17.05 3.3 4.65q2.5 4.2 3.5 8.4m-0.1 10.95 2.8 4.95m0.15 0q6.25-5 6.2-11.9m-9.15 6.95-0.05-0.05 0.2-0.75m-1.5 12.45-0.7 0.55m-2.45 2.15 2.45-2.15m7.85 8.15 4.1-1.45 3.9-1.35m-18.3-3.2-2.25 1.9m-13.25 0.4h-0.25q-5.35 2.3-3.6 4.6m20.25 1.15 0.25-0.5m3.05-4.15-4.3 3.2m-38.5-3.7-3.4 3.35m12.3-3.55q-2.1-1.35 0.8-2.55 1.7-0.75 5.1-1.45m-7.1 8.55q-0.6-2.3 4.3-4.6m7.75-2.25 2.65-2.95m-2.65 2.95-1.8 2.05m6.1 32.4-1.9 3.25q-1.1 8.45 0 16.85v2.85q7.1 1.6 12-5.35l-1.05-7.75q-2.05 2.85-4.4 2-3.95 2.35-5.9 1.3m24.4-36.65-0.8 0.3m-2-1.85q-2.25 8.25-5.35 16.4l-0.65 1.55-3.9 9.05-1.8 4.85 0.4 3.05m19.3-25.7 0.6 0.35m-5.8-8 4.95-1.85m6.1 5.75-4.3 0.35m-9.55-5.8 1.25-3.4m-6.15 1.65q-1.6 1.1-4.1 7.1 1.35 2.7 5.5 0.85m-9.65 4.3q-4.75 6.75-7.2 14.55 2.5 4.7 10.45 1.95m3.9-9.05q-4.45 1-7.85-2.7m4.85-9.9q-2.25 2.5-4.15 5.15m32.6 13.9q-3.55-7.85-10.85-14.85m10.85 14.85q3.15 6.85 3.35 14.35m-45.05 9.25v7.35q6.65 1.6 11.15-5.05l1.75-0.85-0.9-6.8m-35.8 66.35-1.05-2.4-0.25-1.9q17.3-21.1 13-37.9l-21.25-2.55q-19.9-3.75-45 1.15m-34.2 22.85-0.1 5.35m-0.05 2.9-0.05 4.85-0.45 24.3 6.8-2.3q12-4.05 22.95-6.9l3.15-0.85 7.75-1.85 2.2-0.5m30.3-4.4q8.7-0.5 16.25 0.15 6.4 0.55 12 1.95 8.25 2 14.7 5.85m10.05 16.8-35.55-21.85-1.2-2.75m61.95-58.2q6-2.65 5.1-6.65m-126.1 22.15q-5.55 1.2-11.35 2.85-23.05 0.8-18.25 14.4l-0.1 4.7m42.25 25.1 4.1-0.8h0.05l10.3-2 5.65-1.1m0.05-0.4 1.7 1.1 1.6-1 3.9 0.15 2.9-0.45m-73.15 16.8v0.4q4.45 3.95 8.35 8.25t7.2 9.05q6.1 8.7 10.2 18.75m1.7 4.4q3.9 11.1 5.55 23.7l7.15-1.35 7.85 0.5 4.45-0.05m2.35-0.1 13.55-1.5q22.75-12.05 40.1-12m33.85-26.55q-3.95-6.05-9.9-11.05m-69.4-28.35-5.65 0.8m7.4-0.4-1.75-0.7m3.4-0.05 1.75 0.3m1.4-0.25 0.7-0.15m-29.6 4.45 2.2-0.4h0.05m-101.2 88.55 1.65-0.05 50.6 7.5" fill="none" stroke="#000" stroke-linecap="round" stroke-linejoin="round" stroke-opacity=".30196"/>
</g>
<g id="d" transform="translate(.05 .1)">
<use transform="translate(-.05 -.1)" width="47.099998" height="48.200001" xlink:href="#g"/>
</g>
<g id="g" transform="translate(.05 .1)">
<path d="m20.75 0.1-0.15 0.05v-0.05h0.15" fill="#339b20" fill-rule="evenodd"/>
<path d="m20.6 0.15 0.15-0.05 0.9 8.95h-0.05l-0.15 0.65-1.65 6.25-1.6 2.75 1.6-2.75 2-3.3-0.4 9.9v0.1l-0.35-0.15-1.85-0.9-1.15-2 0.15-0.9 2.4-18.55m0.8 22.4-0.35-0.05 0.35 0.05" fill="#9cb926" fill-rule="evenodd"/>
<path d="m21.65 9.05-0.9-8.95q10.35 6.65 15 22.95l-2.2-2.1 2.2 2.1q6.1 6.15 11.2 14.7-4.7-5.15-9.7-8.55l-0.85-0.55 0.85 0.55q0.95 4.85 1.55 10.4-1-6.1-2.4-10.95-7.25-4.8-15-6.1l0.4-9.9q6.2 3.2 11.75 8.3-4.6-9.7-11.9-11.9" fill="#859e1d" fill-rule="evenodd"/>
<path d="m9.45 17.8 2.7 1.35 1-0.2 0.2 0.4q2.95 6.9-9.15 11.7l-0.75 0.6-1.95 1.4q-5.2-6.2 7.95-15.25m13.7 30.25-2.85-0.05-3.8-0.3q-5.75-6.75-12.75-12.65 3.2 0.35 5.55-0.1l0.8-0.2 0.55 0.55q0.9 0.65 2-0.35l0.9-1.05 9.6 14.15m-12.85-13.1 10 13.05-10-13.05" fill="#cfbe85" fill-rule="evenodd"/>
<path d="m13.35 19.35-0.2-0.4-1 0.2-2.7-1.35 3.5-2.3 3.8 2 0.55 2.65 0.05 0.1v0.45-0.4 0.4q-0.15 2.5-1.9 5.35-1.45 3.1-1.95 5.15l-1.4 2.65-1.45 1.45-0.55-0.55-0.8 0.2-0.05-0.05-0.15-0.2-5.35 0.25-2.25-1.9 1.95-1.4 0.75-0.6q12.1-4.8 9.15-11.7m-0.9-1.5 0.7 1.1-0.7-1.1" fill="#bfaf57" fill-rule="evenodd"/>
<path d="m16.95 17.75 0.85 1.55 0.25 0.3 1.15 2-1.85-0.9v-0.25l0.05-0.35q-0.05-1.2-0.45-2.35m0.45 2.35 0.4-0.8-0.4 0.8" fill="#9d8e3c" fill-rule="evenodd"/>
<path d="m30 48-6.45 0.05h-0.4l-9.6-14.15-0.9 1.05-0.65-1 0.1-0.1 1.4-2.65q0.5-2.05 1.95-5.15l4.9 7.7 0.1 0.15 8.45 12.55 1.1 1.55" fill="#c5b665" fill-rule="evenodd"/>
<path d="m17.35 20.7 1.85 0.9 4.7 7.6 1.5 2.35 0.55 0.75 3.55 5.2 1.2 1.8 2.6 3.45 0.1 0.1 0.85 1.1 0.4 0.5 2.35 3.05 0.2 0.2-7.2 0.3-1.1-1.55-8.45-12.55-0.1-0.15-4.9-7.7q1.75-2.85 1.9-5.35" fill="#968738" fill-rule="evenodd"/>
<path d="m20.6 0.1v0.05l-2.4 18.55 1.6-2.75 1.65-6.25 0.15-0.65h0.05l-0.9-8.95-0.15-0.1v0.1m0.85 9.6 0.2-0.65q7.3 2.2 11.9 11.9l2.2 2.1q-4.65-16.3-15-22.95m-11.3 17.7q-13.15 9.05-7.95 15.25m1.95-1.4 0.75-0.6q12.1-4.8 9.15-11.7m3.4-1.85-3.8-2-3.5 2.3m7.3-0.3 0.2 0.25 0.85 1.55 0.4-0.6-0.15 0.9-0.25-0.3-0.4 0.8-0.1 0.05m1.9 1.45 1.85 0.9 0.35 0.05 0.4-9.9-2 3.3m-2.45 4.75v-0.25l0.05-0.35q-0.05-1.2-0.45-2.35m0.4 2.55v0.4l1.85 0.9 4.7 7.6 1.5 2.35 0.55 0.75 3.55 5.2 1.2 1.8 2.6 3.45 0.1 0.1 0.85 1.1 0.4 0.5 2.35 3.05m-20.5 0.2q-5.75-6.75-12.75-12.65 3.2 0.35 5.55-0.1l0.8-0.2 0.55 0.55q0.9 0.65 2-0.35l0.9-1.05m-9.8 1.05-2.25-1.9m15.85-12.8v0.05m-4.2-1.35-0.7-1.1m-0.35 16 1.4-2.65q0.5-2.05 1.95-5.15 1.75-2.85 1.9-5.35m3.7 1.8 0.35 0.15v-0.1q7.75 1.3 15 6.1l0.85 0.55q5 3.4 9.7 8.55-5.1-8.55-11.2-14.7m-2.2-2.1q-5.55-5.1-11.75-8.3m8.2 35.35-1.1-1.55m7.5-17.8q1.4 4.85 2.4 10.95-0.6-5.55-1.55-10.4m-16.95 18.8-10-13.05" fill="none" stroke="#554d1e" stroke-linecap="round" stroke-linejoin="round" stroke-opacity=".72157" stroke-width=".25"/>
</g>
<g id="c" transform="translate(.1 .1)">
<use transform="translate(-.1 -.1)" width="39.349998" height="39.450001" xlink:href="#f"/>
</g>
<g id="f" transform="translate(.1 .1)">
<path d="m21.55 11.3q2.4-3.9 2.05-7.85l13.6 20.15 1.2 1.75 0.1 0.45 0.65 2.9-3.95 4.65-0.35-1.6-0.45-1.45 1.35-1.5q-2.4 0-2.75-0.55l-9.25-14.25q-0.8-0.55-2.2-2.7" fill="#585021" fill-rule="evenodd"/>
<path d="m21.55 11.3q1.4 2.15 2.2 2.7-2.75 5.3-6.45 7.1-2.15 1-4.55 0.85-4.7 1.6-2.9-3.45v-0.05l2.2-0.8 1.95 3.8v-0.05l5.6-2-2.65-3.9q3.95-2 4.5-3.7l0.1-0.5m4.65 27.45 0.6-0.15-0.4 0.45-0.2-0.3m8.95-5.3 0.05-0.1 0.05 0.15-0.1-0.05" fill="#948534" fill-rule="evenodd"/>
<path d="m23.6 3.45q0.35 3.95-2.05 7.85l-1.05-1.35-4.65-6.35-0.55-0.75-1.8-2.55 7.05-0.3h0.15l2.9 3.45" fill="#968738" fill-rule="evenodd"/>
<path d="m34.85 31.75 0.35 1.6-0.05 0.1-0.3-1.7m3.65-5.95-0.1-0.45 0.2 0.35-0.1 0.1" fill="#a58c3a" fill-rule="evenodd"/>
<path d="m12.75 21.95q2.4 0.15 4.55-0.85l11.35 18.15-1.85-0.65-0.6 0.15-1.3-1.65-12.15-15.15" fill="#9c863d" fill-rule="evenodd"/>
<path d="m23.75 14 9.25 14.25q0.35 0.55 2.75 0.55l-1.35 1.5-0.1 0.1 0.55 1.35 0.3 1.7 0.1 0.05q0.15 3.25-4.15 3.6-0.7 2.3-2.45 2.15l-11.35-18.15q3.7-1.8 6.45-7.1m2.2 15.35 5.15 7.75-5.15-7.75" fill="#7b702f" fill-rule="evenodd"/>
<path d="m13.5 0.3 1.8 2.55 1.05 1.5 5.1 7.45q-0.55 1.7-4.5 3.7l-10.3-15.15h0.4l6.45-0.05" fill="#c5b665" fill-rule="evenodd"/>
<path d="m16.95 15.5 2.65 3.9-5.6 2v0.05l-1.95-3.8q-5.1-9.45-12.05-17.65l3.8 0.3 2.85 0.05 10.3 15.15m-12.2-14-0.95-1.2 0.95 1.2" fill="#cfbe85" fill-rule="evenodd"/>
<path d="m15.85 3.6 4.65 6.35 1.05 1.35-0.1 0.5-5.1-7.45-0.5-0.75" fill="#a89f3e" fill-rule="evenodd"/>
<path d="m23.6 3.45q0.35 3.95-2.05 7.85l-0.1 0.5q-0.55 1.7-4.5 3.7m17.45 14.8 0.45 1.45 0.35 1.6 3.95-4.65-0.65-2.9-0.1-0.45m-14.8-21.9-2.9-3.45h-0.15m-7.05 0.3 1.8 2.55 0.55 0.75 0.5 0.75 5.1 7.45m-1.85 7.6-5.6 2v0.05l-1.95-3.8q-5.1-9.45-12.05-17.65m9.85 18.5q-1.8 5.05 2.9 3.45 2.4 0.15 4.55-0.85 3.7-1.8 6.45-7.1m4.9 25.25q1.75 0.15 2.45-2.15l-5.15-7.75m0.25 9.4 0.6-0.15 1.85 0.65m-2.25-0.2-0.2-0.3-1.3-1.65-12.15-15.15m21.65 8.35-0.1 0.1 0.55 1.35 0.3 1.7 0.05-0.1 0.05 0.15q0.15 3.25-4.15 3.6m-27.3-36.8 0.95 1.2" fill="none" stroke="#554d1e" stroke-linecap="round" stroke-linejoin="round" stroke-opacity=".72157" stroke-width=".25"/>
<path d="m38.4 25.35-1.2-1.75-13.6-20.15m15 22.25-0.2-0.35" fill="none" stroke="#554d1e" stroke-linecap="round" stroke-linejoin="round" stroke-opacity=".72157" stroke-width=".25"/>
</g>
</defs>
</svg>
