<?xml version="1.0" encoding="UTF-8"?>
<svg version="1.1" viewBox="0 0 177.82 135.47" xmlns="http://www.w3.org/2000/svg" xmlns:cc="http://creativecommons.org/ns#" xmlns:dc="http://purl.org/dc/elements/1.1/" xmlns:rdf="http://www.w3.org/1999/02/22-rdf-syntax-ns#" xmlns:xlink="http://www.w3.org/1999/xlink">
<metadata>
<rdf:RDF>
<cc:Work rdf:about="">
<dc:format>image/svg+xml</dc:format>
<dc:type rdf:resource="http://purl.org/dc/dcmitype/StillImage"/>
</cc:Work>
</rdf:RDF>
</metadata>
<g transform="translate(-128.65,-79.9)">
<use transform="translate(128.65,79.9)" width="177.8" height="135.45" xlink:href="#a"/>
</g>
<defs>
<g id="a" transform="translate(-128.65,-79.9)">
<path d="m282.7 153q0.7 0 1.15 0.45 0.5 0.5 0.5 1.2t-0.5 1.15q-0.45 0.5-1.15 0.5t-1.2-0.5q-0.45-0.45-0.45-1.15t0.45-1.2q0.5-0.45 1.2-0.45" fill="#a50400" fill-rule="evenodd"/>
<path d="m255.6 131.05q-0.1-1.9 1.35-3.8 8.8-12.45 17.3-23.05-9.95 13-13.7 23.8-3.75 5.05-4.95 3.05" fill="#e22" fill-opacity=".88235" fill-rule="evenodd"/>
<path d="m253.5 122.3q0.8 0.8 0.8 1.9t-0.8 1.9-1.9 0.8-1.9-0.8-0.8-1.9 0.8-1.9 1.9-0.8 1.9 0.8m10.4 21.55q-0.3-2.7 1.6-3.85 16.8-11.05 32.9-17.65-34.2 16.3-27.7 22.7-4.95 3-6.8-1.2" fill="#d61010" fill-rule="evenodd"/>
<path d="m271.7 161.05q0.5 0 0.85 0.35t0.35 0.85l-0.35 0.85q-0.35 0.35-0.85 0.35t-0.85-0.35-0.35-0.85 0.35-0.85 0.85-0.35" fill="#ef3a3a" fill-rule="evenodd"/>
<path d="m156.25 181.75 1.6-0.25-0.5 0.85-0.35 0.85-0.75-1.45m13.45-39.1 8.9-11.8 23.15 8.85-7.2 3.25-24.85-0.3m18.15-23.6 0.55-1.2 5.65-0.75 7.85 3.1 6.7-7.05 11.45 1.7 26.6 10.75v-0.3l13.55 17.5 7.2 14.55 0.15 11.7-3.5 11.3-1.4 3.75-2.5 6.45-1.55 6.5-17.9-15.35-3.8-5.5-23.5-45.45-25.55-11.7m83.3 72.4 12.55-14.3 22.75-3.6q-10.8 9.3-21.5 18.7l-2.3 0.25-10.55 1.2 0.2-1.15-1.15-1.1m-57.65 20.9-10.9-0.35-40.85-24.25-4.4-5.4 0.5-0.85 25 9.55 30.65 21.3m-3.9-88.95-7.7-3.2 7.7 3.2m38.8 44.7 3.7 8.55 8.05 13.9-8.05-13.9-3.7-8.55m4.85-10.4 8.05 7.7 2.75 14.95-2.75-14.95-8.05-7.7" fill="#695c16" fill-rule="evenodd"/>
<path d="m151.1 171.1 8.45-28.65 10.15 0.2 24.85 0.3 7.2-3.25-23.15-8.85 9.1-11.95 0.15 0.15 25.55 11.7 23.5 45.45-20.3-10.65-0.15 0.15-13.15-0.35-13.3 2.6-28.55-1.75q-5.25 2.4-10.35 4.9" fill="#b19f41" fill-rule="evenodd"/>
<path d="m157.85 181.5-1.6 0.25-5.15-10.65q5.1-2.5 10.35-4.9l28.55 1.75 13.3-2.6 13.15 0.35 0.15-0.15 20.3 10.65 3.8 5.5 17.9 15.35 1.55-6.5 2.5-6.45 8.5 7.35 1.15 1.1-0.2 1.15 10.55-1.2 10.3 12-3.2 10.85-0.6-8.5-17.75-10.1-1.15 4.6-12.1-3.7-4.6 6.5-15.3 8.95-24.75-0.75-30.65-21.3-25-9.55q0.9-2.15 1.95-4.15-1.05 2-1.95 4.15m100.75 15.55-0.45 0.6 0.45-0.6m-102.5-25.85 20.1-0.6 13.8-2.65-13.8 2.65-20.1 0.6m115.3 25.55 0.7-3.05-0.7 3.05" fill="#463e0f" fill-rule="evenodd"/>
<path d="m157.85 181.5q0.9-2.15 1.95-4.15m-3.55 4.4-5.15-10.65 8.45-28.65 10.15 0.2 8.9-11.8 9.1-11.95m0.7-1.05 5.65-0.75 7.85 3.1 6.7-7.05 11.45 1.7 26.6 10.75v-0.3l13.55 17.5 7.2 14.55 0.15 11.7-3.5 11.3-1.4 3.75 8.5 7.35 12.55-14.3 22.75-3.6q-10.8 9.3-21.5 18.7l-2.3 0.25 10.3 12-3.2 10.85-0.6-8.5-17.75-10.1-1.15 4.6-12.1-3.7-4.6 6.5-15.3 8.95-24.75-0.75-10.9-0.35-40.85-24.25-4.4-5.4-0.35 0.85-0.75-1.45m1.6-0.25-0.5 0.85m12.35-39.7 24.85 0.3m7.35-22.75 7.7 3.2m27.3 52.8-20.3-10.65-0.15 0.15-13.15-0.35-13.3 2.6-13.8 2.65-20.1 0.6m102.05 26.45 0.45-0.6-17.9-15.35-3.8-5.5m21.7 20.85 1.55-6.5-8.05-13.9-3.7-8.55m23.7 25.6-0.7 3.05m-7.35-16.4-2.75-14.95-8.05-7.7m17.9 33.75 1.15 1.1-0.2 1.15 10.55-1.2m-20-8.4-2.5 6.45" fill="none" stroke="#47392b" stroke-linecap="round" stroke-linejoin="round" stroke-opacity=".62353" stroke-width=".05"/>
<path d="m184.8 107.8-1.7-1.1-19.5 22.95h0.05l2.95 4-4.2-2.2-0.15 0.2-1.65-1.05-15.05 14.4 1.8 2.4-0.2 0.2 2.7 4.4-3.5-3.45-0.3 0.2-1.45-0.8-10.7 11.25 7.55-11.45 1.75-1.85-6.1-16.45 8.3 12.5 14.8-13.55-9.4-11.4 11.45 9.2 18.3-20.45-9.1-17.1 13.15 12.5 22.45-21.25-6.1 8.15-16.2 17.35 6.45 5.9-6.35-3.55-0.05 0.05" fill="#c00" fill-rule="evenodd"/>
<path d="m166.6 133.65-2.95-4h-0.05l19.5-22.95 1.7 1.1-18.6 20.9 6.2 8.05-5.8-3.1m24.6-22.35-6.45-5.9 16.2-17.35-9.25 12.35-3.35 5.25 8.95 9.05-6.1-3.4m-57.3 47.9 10.7-11.25 1.45 0.8-17.4 18.45 5.25-8m13.45-11.8-1.8-2.4 15.05-14.4 1.65 1.05-14.9 15.75" fill="#840000" fill-rule="evenodd"/>
</g>
</defs>
</svg>
