<?xml version="1.0" encoding="UTF-8"?>
<svg version="1.1" viewBox="0 0 47.415 44.499" xmlns="http://www.w3.org/2000/svg" xmlns:cc="http://creativecommons.org/ns#" xmlns:dc="http://purl.org/dc/elements/1.1/" xmlns:rdf="http://www.w3.org/1999/02/22-rdf-syntax-ns#" xmlns:xlink="http://www.w3.org/1999/xlink">
<metadata>
<rdf:RDF>
<cc:Work rdf:about="">
<dc:format>image/svg+xml</dc:format>
<dc:type rdf:resource="http://purl.org/dc/dcmitype/StillImage"/>
</cc:Work>
</rdf:RDF>
</metadata>
<g transform="translate(-376.74 -277.75)">
<use transform="translate(376.75,277.75)" width="47.400002" height="44.5" xlink:href="#b"/>
<use transform="translate(387.15,294.7)" width="13.55" height="22.700001" xlink:href="#f"/>
<use transform="matrix(.0214 -.0424 -.0426 -.0215 397.92 311.46)" width="53.599998" height="53.599998" xlink:href="#a"/>
<use transform="translate(387.55,288.75)" width="26.5" height="26.9" xlink:href="#e"/>
<use transform="matrix(.0171 -.0637 -.0641 -.0172 404.16 298.77)" width="53.599998" height="53.599998" xlink:href="#a"/>
<use transform="matrix(.0094 -.035 -.0352 -.0094 393.89 296.29)" width="53.599998" height="53.599998" xlink:href="#a"/>
<use transform="translate(399.1,290.25)" width="8.6000004" height="6.3499999" xlink:href="#d"/>
<use transform="matrix(-.0143 -.0365 -.0368 .0144 397.82 299.24)" width="53.599998" height="53.599998" xlink:href="#a"/>
<use transform="translate(387.1,294.3)" width="28.200001" height="23.25" xlink:href="#c"/>
</g>
<defs>
<g id="b" transform="translate(23.7,22.2)">
<use transform="translate(-23.7,-22.2)" width="47.400002" height="44.5" xlink:href="#g"/>
</g>
<g id="g" transform="translate(23.7,22.2)">
<path d="m1.05-21q-0.05 0.25 0.05 0.55 0.2 0.5 0.7 0.75l0.2 0.1 0.8 0.15 0.75-0.5 0.1-0.35-0.1-0.5-0.65-0.75-0.35-0.15-0.65-0.05q-0.5 0.05-0.75 0.45l-0.1 0.3m3.1 3.6q-4-0.75-7.75-0.1l-0.85-3.2q4.75-2.95 9.1 0l-0.5 3.3m-7.25-1.85 0.35 0.25 0.3 0.05 0.3-0.05 0.35-0.25 0.25-0.6q0-0.4-0.25-0.65t-0.65-0.25l-0.65 0.25-0.25 0.65 0.25 0.6" fill="#a17225" fill-rule="evenodd"/>
<path d="m1.05-21 0.1-0.3q0.25-0.4 0.75-0.45l0.65 0.05 0.35 0.15 0.65 0.75 0.1 0.5-0.1 0.35-0.75 0.5-0.8-0.15-0.2-0.1q-0.5-0.25-0.7-0.75-0.1-0.3-0.05-0.55m-4.15 1.75-0.25-0.6 0.25-0.65 0.65-0.25q0.4 0 0.65 0.25t0.25 0.65l-0.25 0.6-0.35 0.25-0.3 0.05-0.3-0.05-0.35-0.25" fill="#d19430" fill-rule="evenodd"/>
<path d="m20.05-6.15-0.6-0.75h-0.05l0.4-1.45 0.9 0.15-0.65 2.05" fill="#9de8e8" fill-rule="evenodd"/>
<path d="m16.55-5.45-0.75-0.9 0.6-0.55h2.35l-2.2 1.45m-4.5-0.8q-0.75 1.45-3.45 1.6l-2.5-0.35q-5-0.55-8.6 0.9-5.15 3.15-10.85 2.75l-1.75-1.2 1.65-2.3 0.05-0.1 0.05-0.05q0.95-1.05 3.1-1.8h20.9l1.4 0.55m-32 0.05 0.75-0.5h3.1l0.2 0.05-3.9 0.95-0.15-0.5" fill="#e8e48d" fill-rule="evenodd"/>
<path d="m13.6-5.4 1.1 1.35 1.05 1.65 0.75 1.5 0.1 0.15 0.7 2.45 0.1 0.8 0.15 2.05-0.05 1.35q-3.7 4.1-9.1 3.1l-4-1.05-4.95-0.7q-5.45-0.3-7.75 2.3-1.5 1.7-1.65 3.45-0.3 2.75 2.7 5.6-2.5-1.1-4.65-3.05l-0.7-0.7q-3.65-3.65-4.2-8.5l-0.15-1.8 0.15-1.95 0.3-1.7 0.4-1.25 1-2.2 1.75 1.2q5.7 0.4 10.85-2.75 3.6-1.45 8.6-0.9l2.5 0.35q2.7-0.15 3.45-1.6l1.55 0.85m3.45 0.65-0.5-0.7 2.2-1.45h0.7l0.6 0.75-0.3 0.9-2.7 0.5m-32.95-1.9 0.7 0.25-0.85 1.1-0.5-0.2-2.6 1.85-0.65-2.05 3.9-0.95" fill="#b5b26e" fill-rule="evenodd"/>
<path d="m17.9-3.35-0.35-0.6-0.5-0.8 2.7-0.5-1.05 3.55-0.8-1.65m-25.15 21.95q-3-2.85-2.7-5.6 0.15-1.75 1.65-3.45 2.3-2.6 7.75-2.3l4.95 0.7 4 1.05q5.4 1 9.1-3.1-0.25 2.95-1.6 5.45-1.25 2.25-3.4 4.2-4.15 3.75-9.7 4.4l-2.5 0.15q-4.1 0-7.55-1.5m-8.8-23.9q-1.55 2.15-2.3 4.2l-0.6-1.85-0.2-0.7 2.6-1.85 0.5 0.2" fill="#94915a" fill-rule="evenodd"/>
<path d="m4.15-17.4 2.35 0.6q0.75 0.75 0.95 1.6 0.15 0.75-0.25 1.6l-0.1 0.25-1.55-0.75-5.5-1-4.75 0.5-1.9 1.6-0.25-0.35q-1.2-1.7 0.45-3.5l2.8-0.65q3.75-0.65 7.75 0.1m6.45 6.8-1.4-0.7-1.4-0.6 1.4 0.6 1.4 0.7q1.9 1.1 3.55 2.6l1.65 1.65 0.75 0.9 0.5 0.7 0.5 0.8 0.35 0.6-2.15 0.95-1.05-1.65-1.1-1.35-1.1-1.05q-1.45-1.35-3.1-2.3l-1.25-0.6-1.25-0.5-0.15-0.05-0.4-0.15-2.35-0.45v-0.6h2.65l0.65-0.95 0.5 0.15 13.05-2.9q2.9-0.6 2.75 2.7l-1.25 4.2-1.65-0.3 0.7-2.45q0.1-2.4-1.95-1.9l-8.85 1.95m-23.95 5.6-0.05 0.05-0.05 0.1-1.65 2.3-1 2.2-0.4 1.25-0.3 1.7-0.15 1.95 0.15 1.8q0.55 4.85 4.2 8.5l-1.65 1.45q-4.25-4.15-4.9-9.75l-0.15-2.05 0.1-1.9 0.05-0.3 0.35-1.95 0.45-1.45q0.75-2.05 2.3-4.2l0.85-1.1 1.65-1.6 2.25-1.8 0.05-0.05 0.1-0.05 2.15-1.2 0.35-0.15 2.45-0.95 1.5 1.1h1.1v0.45l-2.3 0.65-1.65 0.65-2.35 1.3-2 1.6-1.45 1.45m-7.55 2.1-2.7-8.45q-0.15-3.3 2.7-2.7l9.9 2.25-1.2 0.7-5-0.75-0.45 0.65-1.6-0.4q-1.95-0.4-1.85 1.85l1.15 3.55 0.15 0.5 0.65 2.05 0.2 0.7-1.95 0.05" fill="#65cccc" fill-opacity=".50196" fill-rule="evenodd"/>
<path d="m-6.6-13 1.9-1.6 4.75-0.5 5.5 1 1.55 0.75-0.75 1 0.7 0.2 0.25 0.1-0.65 0.95h-2.65v-2.45q-3.8-1.25-7.6 0v2.45h-1.1l-1.5-1.1 0.3-0.1-0.7-0.7m27.3 4.8 1.65 0.3-2.75 9.15-0.8-2.8-0.1-0.15 0.1 0.15 0.8 2.8 0.15 0.9 0.15 2.35q0 4.2-1.9 7.7-1.4 2.6-3.85 4.8-5.7 5.2-13.85 5.2-8.1 0-13.85-5.2l-0.7-0.7 1.65-1.45 0.7 0.7q2.15 1.95 4.65 3.05 3.45 1.5 7.55 1.5l2.5-0.15q5.55-0.65 9.7-4.4 2.15-1.95 3.4-4.2 1.35-2.5 1.6-5.45l0.05-1.35-0.15-2.05-0.1-0.8-0.7-2.45-0.1-0.15-0.75-1.5 2.15-0.95 0.8 1.65 1.05-3.55 0.3-0.9 0.65-2.05m-31.7-3.6 2.35 0.55-0.35 0.15-2.15 1.2-0.1 0.05-0.05 0.05-6.35-1.4 0.45-0.65 5 0.75 1.2-0.7m-7.35 10.7-0.45 1.45-0.35 1.95-0.1 0.1-1.65-5.3 1.95-0.05 0.6 1.85" fill="#478f8f" fill-opacity=".50196" fill-rule="evenodd"/>
<path d="m10.6-10.6 8.85-1.95q2.05-0.5 1.95 1.9l-0.7 2.45-0.9-0.15-0.4 1.45h-3l-0.6 0.55-1.65-1.65q-1.65-1.5-3.55-2.6m-6.6-0.5v0.6l2.35 0.45 0.4 0.15 0.15 0.05 1.25 0.5 1.25 0.6q1.65 0.95 3.1 2.3l1.1 1.05-1.55-0.85-1.4-0.55h-20.9q-2.15 0.75-3.1 1.8l1.45-1.45 2-1.6 2.35-1.3 1.65-0.65 2.3-0.65v-0.45h7.6m-15.3 1.3-2.25 1.8-1.65 1.6-0.7-0.25-0.2-0.05h-3.1l-0.75 0.5-1.15-3.55q-0.1-2.25 1.85-1.85l1.6 0.4 6.35 1.4" fill="#c2ffff" fill-opacity=".50196" fill-rule="evenodd"/>
<path d="m-3.6-11.1v-2.45q3.8-1.25 7.6 0v2.45h-7.6" fill="#a8dede" fill-opacity=".50196" fill-rule="evenodd"/>
<path d="m7.45-15.2q-0.2-0.85-0.95-1.6l-2.35-0.6q-4-0.75-7.75-0.1l-2.8 0.65q-1.65 1.8-0.45 3.5l0.25 0.35m13.7-0.35 0.1-0.25m0.6 1.7 1.4 0.6 1.4 0.7 8.85-1.95q2.05-0.5 1.95 1.9l-0.7 2.45m1.65 0.3 1.25-4.2q0.15-3.3-2.75-2.7l-13.05 2.9-0.5-0.15m-3.3 0.95v0.6l2.35 0.45 0.4 0.15 0.15 0.05 1.25 0.5 1.25 0.6q1.65 0.95 3.1 2.3l1.1 1.05 1.1 1.35 1.05 1.65m2.15-0.95-0.35-0.6-0.5-0.8-0.5-0.7-0.75-0.9-1.65-1.65q-1.65-1.5-3.55-2.6m-3.5-2.75-0.75 1 0.7 0.2 0.25 0.1m-20.7 7.1-0.05 0.1-1.65 2.3-1 2.2-0.4 1.25-0.3 1.7-0.15 1.95 0.15 1.8q0.55 4.85 4.2 8.5l0.7 0.7q2.15 1.95 4.65 3.05m24.75-12.7 0.05-1.35-0.15-2.05-0.1-0.8-0.7-2.45-0.1-0.15-0.75-1.5m4.3-3.75 0.65-2.05m-0.65 2.05-0.3 0.9-1.05 3.55 0.1 0.15 0.8 2.8 2.75-9.15m-4.45 4.55 0.8 1.65m-22.3-9.4v-2.45q3.8-1.25 7.6 0v2.45m-7.6 0v0.45l-2.3 0.65-1.65 0.65-2.35 1.3-2 1.6-1.45 1.45m-0.9 21.3 0.7 0.7q5.75 5.2 13.85 5.2 8.15 0 13.85-5.2 2.45-2.2 3.85-4.8 1.9-3.5 1.9-7.7l-0.15-2.35-0.15-0.9m-2.1 4.65q-0.25 2.95-1.6 5.45-1.25 2.25-3.4 4.2-4.15 3.75-9.7 4.4l-2.5 0.15q-4.1 0-7.55-1.5m-13.65-21.5-2.7-8.45q-0.15-3.3 2.7-2.7l9.9 2.25 2.35 0.55 2.45-0.95 0.3-0.1-0.7-0.7m-4.7 3.2 0.05-0.05 0.1-0.05 2.15-1.2 0.35-0.15m-6.55 4.85 1.65-1.6 2.25-1.8-6.35-1.4-1.6-0.4q-1.95-0.4-1.85 1.85l1.15 3.55m4.75-0.2-0.85 1.1q-1.55 2.15-2.3 4.2l-0.45 1.45-0.35 1.95-0.05 0.3-0.1 1.9 0.15 2.05q0.65 5.6 4.9 9.75m-4.1-17.4-0.6-1.85m-1.95 0.05 1.65 5.3 0.1-0.1m0-5.95 0.2 0.7m-0.2-0.7-0.65-2.05-0.15-0.5m0.75 8.8-0.05-0.2" fill="none" stroke="#6da6a6" stroke-linecap="round" stroke-linejoin="round" stroke-opacity=".50196" stroke-width=".2"/>
<path d="m12.05-6.25-1.4-0.55h-20.9q-2.15 0.75-3.1 1.8l-0.05 0.05m32.8-1.95h0.05l0.6 0.75m-0.65-0.75h-0.65m-2.95 0.55 0.6-0.55h2.35m-6.7 0.65 1.55 0.85m-33.55-0.8 0.75-0.5h3.1l0.2 0.05 0.7 0.25" fill="none" stroke="#94915a" stroke-linecap="round" stroke-linejoin="round" stroke-width=".05"/>
<path d="m1.05-21 0.1-0.3q0.25-0.4 0.75-0.45l0.65 0.05 0.35 0.15 0.65 0.75 0.1 0.5-0.1 0.35-0.75 0.5-0.8-0.15-0.2-0.1q-0.5-0.25-0.7-0.75-0.1-0.3-0.05-0.55m-4.65 3.5-0.85-3.2q4.75-2.95 9.1 0l-0.5 3.3m-7.25-1.85-0.25-0.6 0.25-0.65 0.65-0.25q0.4 0 0.65 0.25t0.25 0.65l-0.25 0.6-0.35 0.25-0.3 0.05-0.3-0.05-0.35-0.25" fill="none" stroke="#704f19" stroke-linecap="round" stroke-linejoin="round" stroke-width=".05"/>
<path d="m15.15-13.1 1.8-0.05q0.85 0.2 1 0.8t-0.45 1.2l-1.6 0.85-1.8 0.05q-0.75-0.25-0.9-0.85t0.35-1.15q0.6-0.6 1.6-0.85" fill="#fff" fill-rule="evenodd"/>
<path d="m19.55-13.9 0.8 0.1 0.5 0.6-0.1 0.85q-0.2 0.35-0.65 0.5l-0.8-0.1q-0.4-0.25-0.5-0.7-0.1-0.4 0.1-0.75l0.65-0.5" fill="#fff" fill-rule="evenodd"/>
<path d="m-16.05-2.55q1.25-2.2 3.05-3.2 1.85-1.05 3.15-0.3 1.3 0.8 1.3 2.85 0.05 2.1-1.2 4.3t-3.15 3.25q-1.75 1.05-3.05 0.25-1.3-0.75-1.4-2.8 0.05-2.15 1.3-4.35" fill="#fff" fill-rule="evenodd"/>
<path d="m-21.85-13.6 0.8 0.1q0.4 0.2 0.5 0.6 0.1 0.45-0.1 0.85-0.2 0.35-0.65 0.5l-0.8-0.1-0.5-0.7 0.1-0.75 0.65-0.5" fill="#fff" fill-rule="evenodd"/>
<path d="m-17.05-12.65 1.65 0.75q0.6 0.5 0.5 0.9-0.15 0.45-0.9 0.55l-1.8-0.15q-1-0.25-1.6-0.75-0.6-0.45-0.45-0.9l0.85-0.55 1.75 0.15" fill="#fff" fill-rule="evenodd"/>
<path d="m-8.55-9.8q0.6-0.6 1.45-0.65 0.8 0 1.4 0.6t0.6 1.4q-0.05 0.85-0.65 1.45-0.55 0.55-1.4 0.6-0.8 0-1.4-0.6t-0.6-1.4q0.05-0.85 0.6-1.4" fill="#fff" fill-rule="evenodd"/>
<path d="m-5.9-16.45 0.55 0.05 0.3 0.45q0.1 0.3-0.05 0.55l-0.45 0.35-0.55-0.1-0.35-0.45 0.1-0.55 0.45-0.3" fill="#fff" fill-rule="evenodd"/>
<path d="m-2.2-17.5 1.75 0.3q0.75 0.3 0.75 0.75t-0.75 0.8l-1.75 0.3-1.7-0.3q-0.75-0.35-0.75-0.8t0.75-0.75l1.7-0.3" fill="#fff" fill-rule="evenodd"/>
<path d="m11.7-8.7 2.3 2.6 0.1 0.3q2.65 10 0.3 20.9l-3.3 0.95v-2.9l-0.95 3.15q-9 2-17.8 0.35-1.6-0.35-2.05-0.75l-3.75-3.3-0.05-0.4q-1.55-11.2 1.2-20.6l2.5-0.55q7.75-1.65 14-0.85l3.1 6.8 1.1-6.3 3.3 0.6v2.9h2.4-2.4v-2.9m-19.35 17.1v8.25-8.25m-2.05 7.5-0.4-4.5-3.4 0.8 3.4-0.8 0.4 4.5m-1.2-18.25 1.1-6.6-1.1 6.6m21.5 10.5 0.5 5-0.5-5" fill="#edcb8e" fill-rule="evenodd"/>
<path d="m11.7-8.7 2.3 2.6 0.1 0.3q2.65 10 0.3 20.9l-3.3 0.95v-2.9l-0.95 3.15q-9 2-17.8 0.35-1.6-0.35-2.05-0.75l-3.75-3.3-0.05-0.4q-1.55-11.2 1.2-20.6l2.5-0.55q7.75-1.65 14-0.85l3.1 6.8 1.1-6.3 3.3 0.6v2.9h2.4m-3 18.95-0.5-5m-20.4-17.1-1.1 6.6m-2.6 14.55 3.4-0.8 0.4 4.5m2.05 0.75v-8.25" fill="none" stroke="#7a5e32" stroke-linecap="round" stroke-linejoin="round" stroke-opacity=".50196" stroke-width=".05"/>
<path d="m2-8.15q1.4 0.05 1.4 1.4 0 0.55-0.4 1-0.45 0.5-1.15 0.5-1.35 0-1.55-1.15h-0.05q-1.15 0-1.55-0.9l-0.2-0.9q0-1.75 1.75-1.8t1.75 1.85m7.4 6.15q0-1.05 1.05-1.05t1.05 1.05q-0.05 1.1-1 1.1-0.75 0-1-0.5l-0.1-0.6m5.95 0.6q-0.45 0.5-1.1 0.5-1 0-1.4-0.75l-0.2-0.85q0-1.5 1.55-1.5t1.55 1.6q0 0.55-0.4 1m-1.7 10.5-0.65 0.25q-0.85 0-1.1-0.7l-0.05-0.45q0-1.1 1.15-1.1 1.1 0.05 1.1 1.15l-0.45 0.85m-6.6-7.75q0.45-0.6 1.45-0.6 1.75 0 1.75 1.65l-0.35 1.1q-0.45 0.65-1.15 0.75v0.3q0 0.65-0.4 1.1-0.45 0.6-1.35 0.6-1.2 0-1.65-0.9l-0.2-0.85q0-0.7 0.3-1.1l-0.55-0.1-0.1 0.15q-0.65 0.8-1.55 0.8-1.25 0-1.8-1l-0.35-1q0-1.9 2.1-2 1 0 1.5 0.45l0.9-0.15q1.15 0 1.45 0.8m-4.2 4.1-0.35 1.15q-0.5 0.75-1.5 0.75-1.1 0-1.55-0.9l-0.25-0.95q0-2.05 1.85-1.8 1.8 0.25 1.8 1.75m4.1 5.5q1.45 0 1.45 1.25-0.1 0.8-0.5 1.15l0.25 0.8-0.3 0.85q-0.3 0.4-0.85 0.4-1.4 0-1.25-1.15 0-0.55 0.35-0.85-0.5-0.35-0.6-1.2 0-1.25 1.45-1.25m-1.75 3.9q-0.5 0.55-1.35 0.55-1.85 0-1.85-1.65 0-1.7 1.85-1.7 1.8 0 1.8 1.65l-0.45 1.15m-15.9-19.7q-0.15 0.35-0.8 0.55l-0.6-0.5q-0.2-0.15-0.2-0.45l0.35-0.75q0.55-0.35 1.4 0.75l-0.15 0.4m7.3-1.55q-0.45 0.6-1.1 0.6-0.85 0-1.15-0.7l-0.15-0.7q0-1.45 1.4-1.3 1.35 0.2 1.35 1.25 0 0.35-0.35 0.85m-2 1.3q1.6 0 1.6 1.8 0 0.75-0.45 1.25-0.5 0.5-1.25 0.5-1.15 0-1.45-0.9l-0.8 0.15q-1.1 0-1.55-0.95l-0.25-0.95q0-1.95 1.9-1.95 1.4 0 1.75 1.1l0.5-0.05m-3.15 4.35q0-1.1 1.15-1.1 1.1 0 1.1 1.2l-0.05 0.35q1.3 0.05 1.3 1.6l-0.4 0.95-0.55 0.45q0.25 0.4 0.25 1.1t-0.4 1.2q-0.5 0.65-1.35 0.65-1.15 0-1.5-0.85l-0.1-0.5-0.4 0.05q-0.85 0-1.15-0.65l-0.15-0.7q0-1.35 1.4-1.4 0.9 0 1.2 0.6l0.15-0.05-0.25-0.9q0-0.6 0.35-0.95l-0.55-0.6-0.05-0.45m7.3-3.25q-0.75 0-1.1-0.7l-0.15-0.55q0-1.2 1.25-1.2t1.25 1.2l-0.25 0.75q-0.35 0.5-1 0.5m-8.3 12.5q-0.4 0.4-0.95 0.4l-0.8-0.2-0.45 0.9q-0.55 0.75-1.5 0.75-1.1 0-1.55-0.9l-0.25-0.95q0-2.2 1.9-2.05 1.15 0.1 1.6 0.85 0.2-0.65 1.1-0.7 1.2-0.1 1.2 1.05 0 0.5-0.3 0.85m0.3 2.7q0-1.65 1.75-1.65 1.3 0 1.65 0.9 0.25-0.6 1.15-0.45 1.3 0.25 1.3 1.25 0 0.5-0.35 0.85l-0.05 0.05q0.3 0.4 0.3 1.1v0.05q1.7 0.1 1.7 1.75 0 0.6-0.5 1.1-0.6 0.6-1.45 0.6-1.15 0-1.55-0.9l-0.2-0.85 0.05-0.3-0.9-0.85-0.15-0.65 0.15-0.7q-0.45 0.4-1.15 0.4-0.95 0-1.45-0.75l-0.3-0.95m3.4 0.8-0.05-0.05-0.1 0.15 0.15-0.1m3.1-1.55q0-1.45 1.3-1.2t1.3 1.25q0 0.5-0.35 0.85-0.4 0.4-1 0.4-0.85 0-1.15-0.65l-0.1-0.65" fill="#b89c6e" fill-opacity=".50196" fill-rule="evenodd"/>
</g>
<g id="f" transform="translate(-387.15,-294.7)">
<path d="m387.95 295.2q-0.15 0.5 1 1l1.05 0.5q4.85 1.25 9 4.1l1.45 0.4q0.3 0.1-0.15 2.15-0.45 2-0.15 5.45 0.25 3.4-0.25 6.75 0 0.85 0.35 1.2l-0.05 0.15-0.3-0.15-0.25-0.1-5.05-2.4q4.1 1.45 4.25 1.05l0.6-3.3q0.45-2.85-0.05-6.5l-0.6-2.8-0.45-1.25q-0.6-0.9-3.65-2.45-3.05-1.45-4.5-1.6l-0.8-0.05q-0.8 0.25-0.95 1.3-0.2 1.5-0.25 2.95l0.05 4.3 0.15 3.65q0.1 1.1 0.65 1.6l0.95 0.7-0.05 0.05-0.45-0.2q-1.75-0.95-1.75-3 0.35-2.55 0.1-6.15-0.25-3.65-0.2-5.6l0.1-0.7 0.2-1.05" fill="#b2ccf0" fill-rule="evenodd"/>
<path d="m390 311.85-0.95-0.7q-0.55-0.5-0.65-1.6l-0.15-3.65-0.05-4.3q0.05-1.45 0.25-2.95 0.15-1.05 0.95-1.3l0.8 0.05q1.45 0.15 4.5 1.6 3.05 1.55 3.65 2.45l0.45 1.25 0.6 2.8q0.5 3.65 0.05 6.5l-0.6 3.3q-0.15 0.4-4.25-1.05l-4.35-2.2-0.25-0.15v-0.05" fill="#7abef5" fill-rule="evenodd"/>
<path d="m387.95 295.2-0.2 1.05-0.1 0.7q-0.05 1.95 0.2 5.6 0.25 3.6-0.1 6.15 0 2.05 1.75 3l0.45 0.2m4.65 2.35 5.05 2.4 0.25 0.1 0.3 0.15m-5.6-2.65-4.35-2.2" fill="none" stroke="#176867" stroke-linecap="round" stroke-linejoin="round" stroke-opacity=".50196"/>
<path d="m390.1 310-0.5-0.6q-0.15-0.45 0-0.85l0.5-0.4 0.6 0.05q0.35 0.2 0.5 0.65v0.8l-0.45 0.5-0.65-0.15" fill="#c3ffff" fill-opacity=".58039" fill-rule="evenodd"/>
<path d="m395.7 304q-0.4 0-0.7-0.35t-0.3-0.8 0.3-0.8q0.3-0.3 0.7-0.3 0.45 0 0.75 0.3l0.25 0.8-0.25 0.8q-0.3 0.35-0.75 0.35" fill="#c2ffff" fill-opacity=".46274" fill-rule="evenodd"/>
<path d="m396.05 304q-0.3 0-0.5-0.2l-0.2-0.55 0.2-0.55q0.2-0.25 0.5-0.25l0.5 0.25 0.2 0.55-0.2 0.55-0.5 0.2" fill="#c3ffff" fill-opacity=".58039" fill-rule="evenodd"/>
</g>
<g id="a" transform="translate(26.8,26.8)">
<path d="m-4.75-26.4 4.75-0.4q11.1 0 18.95 7.85t7.85 18.95q0 10.95-7.6 18.75l-0.25 0.2-2 1.85q-4 2.1-9.5 2.2l-0.15 0.6-4.8-0.65q-7.5-2.85-11.5-8.5l-0.4-0.25q-13.9-19.15 3-38.35 0.9-1.05 1.65-2.25" fill="#ee2611" fill-opacity=".13726" fill-rule="evenodd"/>
<path d="m16.95 20.8-0.3 0.25q-7.1 5.75-16.65 5.75-11.1 0-18.95-7.85t-7.85-18.95 7.85-18.95l3.25-2.8 2-1.35q4.1-2.5 8.95-3.3-0.75 1.2-1.65 2.25-16.9 19.2-3 38.35l0.4 0.25q4 5.65 11.5 8.5l4.8 0.65 0.15-0.6q5.5-0.1 9.5-2.2" fill="#631814" fill-opacity=".13726" fill-rule="evenodd"/>
<path d="m17.85-3.2q-2.15 2.2-5.2 2.2t-5.25-2.2q-2.15-2.15-2.15-5.2t2.15-5.25q2.2-2.15 5.25-2.15t5.2 2.15q2.2 2.2 2.2 5.25t-2.2 5.2" fill="#fbd8a6" fill-opacity=".13726" fill-rule="evenodd"/>
</g>
<g id="e" transform="translate(-387.55,-288.75)">
<path d="m411.8 309.15q0.6 1.05-0.45 1.7l-5.6 3.35q-4.55 2.75-8.35 0.35-3.75-2.35-5.8-2.85-2-0.5-2.2-1.05t10.65-5.45q2.25-1.45 6.7 0.75 4.4 2.15 5.05 3.2" fill="#4d1310" fill-opacity=".17255" fill-rule="evenodd"/>
<path d="m388.05 295.2q0.05-0.3 0.65-0.65l1.35-0.75 8.4-4.1q1.85-0.9 3.85-0.05 4.4 2.65 10.1 4.5 0.95 0.45 1.15 0.75-0.1 0.6-1.05 1.1-5.6 1.2-10.55 5l-0.1 0.1-0.2 0.1-1.95-0.2q-0.95-0.2-2.4-1.05-2.75-2.05-7.25-3.25l-1-0.45q-1.15-0.55-1-1.05m16.3-3.55-2.55-1.55q-0.95-0.6-1.8-0.45-1.05 0.15-2.95 1.15l-3.15 1.65-3.85 1.95-0.2 0.1q-0.65 0.55-0.5 1.05l1.2 0.7 5.05 2.4 4.6 1.95 1.95-0.55 2.95-1.6q1.8-0.95 3.95-1.85 2.05-1 2.65-1.85v-0.25l-0.5-0.3q-3.7-1-6.85-2.55" fill="#fff" fill-rule="evenodd"/>
<path d="m401.75 301.15-0.1 0.05v0.05-0.05l0.1-0.05" fill="#f0e4c3" fill-rule="evenodd"/>
<path d="m401.65 301.25-1.45 0.8q-0.35-0.1-1.15-0.8l-1.75-1.3q1.45 0.85 2.4 1.05l1.95 0.2v0.05" fill="#a0abc8" fill-rule="evenodd"/>
<path d="m404.35 291.65q3.15 1.55 6.85 2.55l0.5 0.3v0.25q-0.6 0.85-2.65 1.85-2.15 0.9-3.95 1.85l-2.95 1.6-1.95 0.55-4.6-1.95-5.05-2.4-1.2-0.7q-0.15-0.5 0.5-1.05l0.2-0.1 3.85-1.95 3.15-1.65q1.9-1 2.95-1.15 0.85-0.15 1.8 0.45l2.55 1.55" fill="url(#i)" fill-rule="evenodd"/>
<path d="m388.05 295.2q0.05-0.3 0.65-0.65l1.35-0.75 8.4-4.1q1.85-0.9 3.85-0.05 4.4 2.65 10.1 4.5 0.95 0.45 1.15 0.75" fill="none" stroke="#176867" stroke-linecap="round" stroke-linejoin="round" stroke-opacity=".50196"/>
</g>
<linearGradient id="i" x1="-819.2" x2="819.2" gradientTransform="matrix(-.0115 0 0 -.0067 398.2 295.1)" gradientUnits="userSpaceOnUse">
<stop stop-color="#f0ffff" offset="0"/>
<stop stop-color="#b0ffff" offset="1"/>
</linearGradient>
<g id="d" transform="translate(-399.1,-290.25)">
<path d="m407.7 295.7-0.3 0.6-0.6 0.3-0.5-0.2-0.15-0.5 0.3-0.6 0.6-0.3 0.5 0.2 0.15 0.5" fill="#c3ffff" fill-rule="evenodd"/>
<path d="m401.25 291.6-0.6 0.65-0.85 0.05-0.6-0.5q-0.2-0.4-0.05-0.8l0.55-0.65 0.9-0.05 0.65 0.55v0.75" fill="#c3ffff" fill-rule="evenodd"/>
</g>
<g id="c" transform="translate(-387.1,-294.3)">
<path d="m400 295.8-0.3 0.35-0.55 0.05-0.35-0.3v-0.5q0.1-0.25 0.35-0.35l0.5-0.05 0.35 0.3v0.5" fill="#c3ffff" fill-rule="evenodd"/>
<path d="m413.65 294.95-0.05-0.05q-0.1 0.6-1.05 1.05-2.9 0.65-6.25 2.15-3.5 1.55-5.9 3.4l-0.35 0.8-0.15 1.4 0.3 5.1-0.15 6.75 0.2 1.05q-0.3-0.35-0.3-1.15l0.2-6.75-0.3-5.1q-0.1-0.7 0.15-1.4l0.3-0.75q2.45-1.9 5.95-3.45 3.35-1.5 6.2-2.15 0.95-0.45 1.1-1.05l0.1 0.15" fill="#ffe4bb" fill-rule="evenodd"/>
<path d="m413.15 311.3 0.25-0.3q0.8-1.15 0.6-4l-0.15-4q0-3.75-0.55-5.5-1.85-1.4-5.3 0.5-3.55 1.85-5.05 3.2-1.5 1.4-1.85 2.05-1.1 5.7-0.4 9.05 0.25 1.3 0.75 2.15 0.85 1.2 2.25 1.15l0.6-0.1 0.5-0.1-2.8 1.35h-0.1l-1.35 0.2-0.2-0.2-0.1-0.15-0.2-1.05 0.15-6.75-0.3-5.1 0.15-1.4 0.35-0.8q2.4-1.85 5.9-3.4 3.35-1.5 6.25-2.15 0.95-0.45 1.05-1.05l0.05 0.05q0.45 0.65 0.55 1.85l-0.05 1.7q-0.15 2.7 0 8.15l0.4 2.1q0.2 1.65-1.4 2.55" fill="#ceebff" fill-rule="evenodd"/>
<path d="m404.8 315.4-0.5 0.1-0.6 0.1q-1.4 0.05-2.25-1.15-0.5-0.85-0.75-2.15-0.7-3.35 0.4-9.05 0.35-0.65 1.85-2.05 1.5-1.35 5.05-3.2 3.45-1.9 5.3-0.5 0.55 1.75 0.55 5.5l0.15 4q0.2 2.85-0.6 4l-0.25 0.3-1.1 0.6q-2.8 1.1-7.25 3.5" fill="#b0ffff" fill-rule="evenodd"/>
<path d="m413.15 311.3q1.6-0.9 1.4-2.55l-0.4-2.1q-0.15-5.45 0-8.15l0.05-1.7q-0.1-1.2-0.55-1.85l-0.05-0.05m-13.05 22.05 1.35-0.2h0.1l2.8-1.35q4.45-2.4 7.25-3.5l1.1-0.6" fill="none" stroke="#176867" stroke-linecap="round" stroke-linejoin="round" stroke-opacity=".50196"/>
<path d="m413.65 294.95-0.1-0.15" fill="none" stroke="#6e3017" stroke-linecap="round" stroke-linejoin="round" stroke-opacity=".50196"/>
<path d="m387.1 298.05 3.55-1.95 1.8 1.05 5.5 3.4q1.05 0.65 0.45 1.7t-6.15 3.3q-5.5 2.25-5 0.8 0.5-1.5 0.05-5.9l-0.2-2.4" fill="url(#h)" fill-rule="evenodd"/>
<path d="m403.05 313.95q5.15-6.3 8.45-5.45 1.1 0.25 1.6 1.5-0.45 0.25-1.15 1.65l-1.15 2.3q-2.15 1-7.75 0" fill="#c5ffff" fill-rule="evenodd"/>
<path d="m413.1 310q-0.45 0.25-1.15 1.65l-1.15 2.3q-2.15 1-7.75 0" fill="none" stroke="#2b0f09" stroke-linecap="round" stroke-linejoin="round" stroke-opacity=".50196" stroke-width=".5"/>
<path d="m403.2 313.2q-1 0.4-1.15 0.75" fill="none" stroke="#2b0f09" stroke-linecap="round" stroke-linejoin="round" stroke-opacity=".50196" stroke-width=".5"/>
<path d="m402.1 314.05q0 0.55 1 1.2" fill="none" stroke="#2b0f09" stroke-linecap="round" stroke-linejoin="round" stroke-opacity=".50196" stroke-width=".5"/>
<path d="m413.4 307.05q-0.55 2.35-2.8 2.95l-1 0.25q-0.5 0.05-0.95 0.25l-1.35 1.1-1.25 1.15q-1.25 0.9-2.45 0.8-1.1-0.05-1.6-0.75-1.15-1.5-0.95-4.7 2.9-4 6.4-0.3l-0.15-1.2 0.1 0.25q0.5 1.1 0.75 0.35-0.1-2.35 0.3-0.45 0.9-4.1 4.35-5.5 1.1 3.45 0.6 5.8" fill="#7bc3f8" fill-rule="evenodd"/>
<path d="m406.8 310.95-0.15 0.4-0.6 1.05q-0.85 1.1-1.95 1.25-1.15 0.1-1.85-0.9-0.75-0.95-0.65-2.45v-0.15l5.2 0.8" fill="#ede8de" fill-rule="evenodd"/>
<path d="m401.6 310.15v-0.2q0.2-1.25 0.95-2.25 0.9-1.15 2-1.25 1.1-0.15 1.8 0.85 0.75 1 0.65 2.5l-0.2 1.15-5.2-0.8" fill="#c1bca9" fill-rule="evenodd"/>
<path d="m401.6 310.15v-0.2q0.2-1.25 0.95-2.25 0.9-1.15 2-1.25 1.1-0.15 1.8 0.85 0.75 1 0.65 2.5l-0.2 1.15-0.15 0.4-0.6 1.05q-0.85 1.1-1.95 1.25-1.15 0.1-1.85-0.9-0.75-0.95-0.65-2.45z" fill="none" stroke="#2b0f09" stroke-linecap="round" stroke-linejoin="round" stroke-opacity=".50196" stroke-width=".5"/>
<path d="m406.15 309.95 0.1 0.65 0.3 0.3 0.35-0.35 0.1-0.65-0.1-0.65q-0.15-0.3-0.35-0.25l-0.3 0.3-0.1 0.65" fill-rule="evenodd"/>
<path d="m406.15 309.05-0.45 0.05-0.25 0.3 0.15 0.3q0.15 0.2 0.4 0.2h0.4l0.25-0.25-0.1-0.35-0.4-0.25" fill="#fff" fill-rule="evenodd"/>
<path d="m403.6 312.4q0.2 0.4-0.05 0.6l-0.55-0.1-0.6-0.7q-0.3-0.5-0.3-0.95l0.2-0.7q0.25-0.15 0.5 0.5l0.45 0.85 0.35 0.5" fill="#fff" fill-rule="evenodd"/>
<path d="m405.8 307.25q0.55 0 1.05 0.65l0.5 1.35v0.5l-0.5 1.3q-0.5 0.65-1.05 0.65-0.65 0-1.15-0.65l-0.2-0.35-0.15-0.65v-0.55q0-0.95 0.35-1.6 0.5-0.65 1.15-0.65" fill="#210" fill-rule="evenodd"/>
<path d="m405.8 307.25q0.55 0 1.05 0.65l0.5 1.35v0.5l-0.5 1.3q-0.5 0.65-1.05 0.65-0.65 0-1.15-0.65l-0.2-0.35-0.15-0.65v-0.55q0-0.95 0.35-1.6 0.5-0.65 1.15-0.65z" fill="none" stroke="#000" stroke-linecap="round" stroke-linejoin="round" stroke-width=".05"/>
<path d="m405.2 309.6-0.5 0.2-0.55-0.2-0.2-0.55 0.2-0.5 0.55-0.2 0.5 0.2 0.25 0.5-0.25 0.55" fill="#fff" fill-rule="evenodd"/>
<path d="m406.8 310.95-0.65 0.4-0.65-0.1q-0.3-0.1-0.3-0.4 0-0.35 0.3-0.65 0.25-0.3 0.65-0.4l0.65 0.1 0.3 0.5-0.3 0.55" fill="#cbf468" fill-rule="evenodd"/>
<path d="m407.7 311.2-1.15 1.45q-1.1 1.1-2.35 1.45-1.95-0.05-2.75-2.4l-0.25-0.65q3.1-1.15 6.5 0.15" fill="#b0ffff" fill-rule="evenodd"/>
<path d="m407.7 311.2q-3.4-1.3-6.5-0.15m6.5 0.15 0.1-0.25" fill="none" stroke="#2b0f09" stroke-linecap="round" stroke-linejoin="round" stroke-opacity=".50196" stroke-width=".5"/>
<path d="m404.1 311.6-0.75 1.45m0-1.2-0.85 1.75m3.1-2.3-0.3 0.6m-0.2-1-0.7 1.45" fill="none" stroke="#900" stroke-linecap="round" stroke-linejoin="round" stroke-opacity=".25098" stroke-width="1.5"/>
<path d="m413.25 304.3 0.05 0.35 0.05 1.05q-0.15 1.5-0.8 2.6-0.7 1.15-1.6 1.25-0.75 0.05-1.2-0.6l-0.05-0.05-0.05-0.15h-0.05l1.55-2.05 2.1-2.4" fill="#ede8de" fill-rule="evenodd"/>
<path d="m409.6 308.75-0.05-0.15q-0.6-1-0.5-2.5t0.8-2.6q0.7-1.15 1.55-1.2 0.9-0.1 1.5 0.9l0.35 1.1-2.1 2.4-1.55 2.05" fill="#c1bca9" fill-rule="evenodd"/>
<path d="m409.6 308.75-0.05-0.15q-0.6-1-0.5-2.5t0.8-2.6q0.7-1.15 1.55-1.2 0.9-0.1 1.5 0.9l0.35 1.1 0.05 0.35 0.05 1.05q-0.15 1.5-0.8 2.6-0.7 1.15-1.6 1.25-0.75 0.05-1.2-0.6l-0.05-0.05-0.05-0.15z" fill="none" stroke="#2b0f09" stroke-linecap="round" stroke-linejoin="round" stroke-opacity=".50196" stroke-width=".5"/>
<path d="m409.5 307.9 0.1 0.65 0.3 0.3 0.25-0.3 0.1-0.65-0.1-0.65-0.25-0.3q-0.2 0-0.3 0.3l-0.1 0.65" fill-rule="evenodd"/>
<path d="m409.55 307-0.4 0.05q-0.2 0.05-0.25 0.25l0.15 0.35q0.1 0.2 0.35 0.2h0.4l0.2-0.25-0.1-0.35-0.35-0.25" fill="#fff" fill-rule="evenodd"/>
<path d="m410.15 304.5q0.45 0 0.8 0.7l0.4 1.5v0.5l-0.4 1.4-0.8 0.7q-0.5 0-0.85-0.7l-0.15-0.35-0.1-0.7v-0.6q0-1.05 0.25-1.75 0.35-0.7 0.85-0.7" fill="#210" fill-rule="evenodd"/>
<path d="m410.15 304.5q0.45 0 0.8 0.7l0.4 1.5v0.5l-0.4 1.4-0.8 0.7q-0.5 0-0.85-0.7l-0.15-0.35-0.1-0.7v-0.6q0-1.05 0.25-1.75 0.35-0.7 0.85-0.7z" fill="none" stroke="#000" stroke-linecap="round" stroke-linejoin="round" stroke-width=".05"/>
<path d="m409.65 307-0.4 0.25q-0.25 0-0.4-0.25l-0.15-0.55q0-0.35 0.15-0.55 0.15-0.25 0.4-0.25l0.4 0.25 0.15 0.55-0.15 0.55" fill="#fff" fill-rule="evenodd"/>
<path d="m410.9 308.55-0.5 0.35h-0.5l-0.2-0.55 0.2-0.65 0.5-0.45 0.5 0.1 0.2 0.55-0.2 0.65" fill="#cbf468" fill-rule="evenodd"/>
<path d="m409.65 309.15 0.1-0.05q2.1-3.05 3.95-3.55l-0.15 0.8q-0.45 2.75-1.7 3.8l-1.5-0.15-0.7-0.85" fill="#b0ffff" fill-rule="evenodd"/>
<path d="m409.65 309.15 0.1-0.05q2.1-3.05 3.95-3.55" fill="none" stroke="#2b0f09" stroke-linecap="round" stroke-linejoin="round" stroke-opacity=".50196" stroke-width=".5"/>
<path d="m411.85 308.4-0.7 1.25m1.9-1.55-0.25 0.55m-0.15-0.85-0.6 1.15m-0.85-0.35-0.7 1.4" fill="none" stroke="#900" stroke-linecap="round" stroke-linejoin="round" stroke-opacity=".25098" stroke-width="1.5"/>
<path d="m414.75 307.6-0.05-0.5-0.8-0.5q-0.45-0.05-0.7 0.2l0.2 0.3q0.45 0.7 1.05 0.75l0.05-0.05 0.25-0.2" fill="#4f2217" fill-rule="evenodd"/>
<path d="m414.75 307.6-0.25 0.2-0.05 0.05q-0.6-0.05-1.05-0.75l-0.2-0.3-0.05 0.1q0 0.6 0.55 1.3 0.6 0.65 0.8 0.4l0.3-0.7-0.05-0.3" fill="#280d0b" fill-rule="evenodd"/>
<path d="m413.2 306.8q0.25-0.25 0.7-0.2l0.8 0.5 0.05 0.5m-1.55-0.8-0.05 0.1q0 0.6 0.55 1.3 0.6 0.65 0.8 0.4l0.3-0.7-0.05-0.3" fill="none" stroke="#2b0f09" stroke-linecap="round" stroke-linejoin="round" stroke-opacity=".50196"/>
<path d="m400.35 314v-0.7q0.1-0.7 0.7-1.15l0.85-0.15-0.1 0.5q-0.2 1.15-0.95 1.6h-0.05l-0.45-0.1" fill="#4f2217" fill-rule="evenodd"/>
<path d="m401.9 312 0.1 0.05q0.3 0.7-0.15 2-0.35 1.2-0.75 1-0.4-0.15-0.6-0.7l-0.15-0.35 0.45 0.1h0.05q0.75-0.45 0.95-1.6l0.1-0.5" fill="#280d0b" fill-rule="evenodd"/>
<path d="m400.35 314v-0.7q0.1-0.7 0.7-1.15l0.85-0.15 0.1 0.05q0.3 0.7-0.15 2-0.35 1.2-0.75 1-0.4-0.15-0.6-0.7z" fill="none" stroke="#2b0f09" stroke-linecap="round" stroke-linejoin="round" stroke-opacity=".50196"/>
</g>
<linearGradient id="h" x1="-819.2" x2="819.2" gradientTransform="matrix(-5e-4 .0038 -.0074 -9e-4 392.4 301.9)" gradientUnits="userSpaceOnUse">
<stop stop-color="#8078c2" stop-opacity=".34118" offset="0"/>
<stop stop-color="#deeaf5" stop-opacity="0" offset="1"/>
</linearGradient>
</defs>
</svg>
