<?xml version="1.0" encoding="UTF-8"?>
<svg width="91px" height="59px" version="1.1" viewBox="299.39 145.12 90.712 58.719" xmlns="http://www.w3.org/2000/svg" xmlns:xlink="http://www.w3.org/1999/xlink">
<defs>
<g id="i">
<path d="m28.65 3.85-1 1.35q-10.25 13.85-22.25 30.7l-0.5-0.45q-0.65-0.5-0.3 0.2-0.35-0.7 0.3-0.2l0.5 0.45v0.05l-0.15 0.2-0.1-0.2q-2.85-0.1-3.65-0.8l-1-0.9q-0.55-0.6-0.45-1.45l-0.05-0.15 0.05 0.05 2.45-0.1q2.1-1.45 3.55-3.4l2.65-3.6 1.8-1.8q0.4-0.25 0.2 1.25-0.25 1.5 4.05-4.45 4.25-5.9 7.1-10.5l2.8-4.9 0.55-1.15q-0.95-0.55-1.25-1.9l-0.05-0.2-0.35-1.95h1.7l0.65 1.55 0.65 0.85q0.9 1 2.1 1.45m-24.05 31.8 0.3-0.2 0.25 0.5-0.25-0.5-0.3 0.2m0.8 0.3h-0.25 0.25m14.6-30.9q-0.85 4.05-3 7.7-1.95 3.2-4.2 5.7l0.5-0.75q0.95-1.85 1.3-3.8 1.55-1.7 2.95-4.35l2.45-4.5" fill="#58382b"/>
<path d="m23.55 0 0.35 1.95 0.05 0.2q0.3 1.35 1.25 1.9l-0.55 1.15-2.8 4.9q-2.85 4.6-7.1 10.5-4.3 5.95-4.05 4.45 0.2-1.5-0.2-1.25l-1.8 1.8-2.65 3.6q-1.45 1.95-3.55 3.4l-2.45 0.1q0.55-1.45 1.35-2.65l1.05-1.55-0.2 0.35 8.65-11.15 0.2-0.3 2.5-2.45 1-1.05q-0.35 1.95-1.3 3.8l-0.5 0.75q2.25-2.5 4.2-5.7 2.15-3.65 3-7.7l1.05-1.85 1.6-3.2h0.9" fill="#a1664c"/>
<path d="m5.4 35.9q12-16.85 22.25-30.7l1-1.35m-23.5 32.1-0.25-0.5-0.3 0.2m0.8 0.25v0.05" fill="none" stroke="#58382b" stroke-width=".5"/>
<path d="m28.65 3.85q-1.2-0.45-2.1-1.45l-0.65-0.85-0.65-1.55m-24.75 34.25 1 0.9q0.8 0.7 3.65 0.8h0.25m-0.8-0.3q-0.35-0.7 0.3-0.2l0.5 0.45m17.25-35.9-1.6 3.2-1.05 1.85m-5.4 8.85-1 1.05-2.5 2.45-0.2 0.3-8.65 11.15 0.2-0.35-1.05 1.55q-0.8 1.2-1.35 2.65m14.55-18.8q1.55-1.7 2.95-4.35l2.45-4.5" fill="none" stroke="#58382b" stroke-width=".5"/>
</g>
<g id="h">
<use xlink:href="#i"/>
</g>
<g id="g">
<path d="m42.05 6.15q5.65 7.8 7.5 20.15 0 10.7-2.6 23.8l-1.85 1.65-0.55-12.85-7.2-11.4-0.7-18.3 5.4-3.05m-12.85 14.85h0.15l-0.2 0.2 0.05-0.2v0.15-0.15m-1.85-15.45 0.5 2.05 1.75 1.15q-1.05 6.5-0.5 12.5l-11.2 9.95-11.15 6.8 6.1-17.2 14.5-15.25" fill="#b99673"/>
<path d="m45.1 51.75q-2.7 1.05-7.3 1.3l-4.45-6.55-3.95-19.75q-0.4-2.65-0.25-5.15l0.2-0.6h-0.15v-0.05l-0.05-0.25 0.15 0.2 2.2-10.6 0.25-0.9 3.25 0.7 1.65-0.9 0.7 18.3 7.2 11.4 0.55 12.85m-42.85-10.55q-0.3-0.05-1.5-2.2-1.25-2.15-0.4-7.65 4.1-10.2 13.2-20.45 8.25-7.25 13.35-9.05l0.45 3.7-14.5 15.25-6.1 17.2 11.15-6.8-6.55 6.1-9.1 3.9m26.95-20.25 0.1-0.05-0.1 0.05" fill="#ac8359"/>
<path d="m37.8 53.05-1.45 0.05q-4.2-3.95-4.8-10.6l-2.15-15.75 3.95 19.75 4.45 6.55m-8.65-31.45v-0.35l-0.05 0.05v-0.05l-17.15 16.65q-6.45 3.55-9.7 3.3l9.1-3.9 6.55-6.1 11.2-9.95q-0.55-6 0.5-12.5l-1.75-1.15-0.5-2.05-0.45-3.7 3.1-1.85 4.55 2.15 7.3 3.7 0.2 0.3-5.4 3.05-1.65 0.9-3.25-0.7-0.25 0.9-2.2 10.6-0.15-0.2 0.05 0.25-0.05 0.25 0.05-0.05-0.05 0.45 0.05-0.45 0.15-0.15-0.2 0.6m2.6-12.2q1.05-4 2.8-7.25-1.75 3.25-2.8 7.25m-2.65 11.85h0.05-0.05" fill="#846342"/>
<path d="m42.05 6.15q5.65 7.8 7.5 20.15 0 10.7-2.6 23.8l-1.85 1.65q-2.7 1.05-7.3 1.3l-1.45 0.05q-4.2-3.95-4.8-10.6l-2.15-15.75q-0.4-2.65-0.25-5.15v-0.35h-0.05l-17.15 16.65q-6.45 3.55-9.7 3.3-0.3-0.05-1.5-2.2-1.25-2.15-0.4-7.65 4.1-10.2 13.2-20.45 8.25-7.25 13.35-9.05l3.1-1.85 4.55 2.15 7.3 3.7 0.2 0.3m-10.3 3.25-0.25 0.9-2.2 10.6-0.1 0.05v0.05 0.15m-0.05 0.45 0.05-0.45m5.35-19q-1.75 3.25-2.8 7.25" fill="none" stroke="#000" stroke-width=".5"/>
</g>
<g id="f">
<path d="m0 1.75q0-0.45 0.3-0.75 0.35-0.3 0.85-0.3 0.45 0 0.75 0.3l0.35 0.75-0.35 0.75q-0.3 0.25-0.75 0.3l-0.85-0.3-0.3-0.75" fill="#333"/>
</g>
<g id="a">
<use xlink:href="#f"/>
</g>
<g id="e">
<use xlink:href="#g"/>
<use transform="matrix(1.0693 0 0 1.0693 39.75 36.75)" xlink:href="#a"/>
<use transform="translate(41.15 43.75)" xlink:href="#a"/>
<use transform="matrix(.57895 0 0 .57895 35.15 41.85)" xlink:href="#a"/>
<use transform="translate(4.8 25.55)" xlink:href="#a"/>
<use transform="matrix(.95695 0 0 .95695 10.85 28)" xlink:href="#a"/>
<use transform="matrix(.8 0 0 .8 4.05 31.6)" xlink:href="#a"/>
</g>
<g id="d">
<path d="m10.95 11q-3.2 0.45-5.75-0.45-5.05-4-5.2-6.6 0.45-2.85 3.25-3.7l0.85-0.05-2.2 2.75 2.9 6.3 3.9 0.9 2.25 0.85"/>
<path d="m4.1 0.2q5.1-0.4 10.1 0.05 2.95 1 3.15 3.15-0.85 3.75-4.65 7.2l-1.75 0.4-2.25-0.85-3.9-0.9-2.9-6.3 2.2-2.75m8.4 1.55q-0.4 0.35-0.4 0.85t0.4 0.8q0.4 0.35 0.95 0.35t0.95-0.35q0.4-0.3 0.4-0.8t-0.4-0.85l-0.95-0.3q-0.55 0-0.95 0.3" fill="#333"/>
<path d="m12.5 1.75q0.4-0.3 0.95-0.3l0.95 0.3q0.4 0.35 0.4 0.85t-0.4 0.8q-0.4 0.35-0.95 0.35t-0.95-0.35q-0.4-0.3-0.4-0.8t0.4-0.85" fill="#fff"/>
<path d="m10.95 11q-3.2 0.45-5.75-0.45-5.05-4-5.2-6.6 0.45-2.85 3.25-3.7l0.85-0.05q5.1-0.4 10.1 0.05 2.95 1 3.15 3.15-0.85 3.75-4.65 7.2l-1.75 0.4" fill="none" stroke="#000" stroke-width=".5"/>
<path d="m12.5 1.75q0.4-0.3 0.95-0.3l0.95 0.3q0.4 0.35 0.4 0.85t-0.4 0.8q-0.4 0.35-0.95 0.35t-0.95-0.35q-0.4-0.3-0.4-0.8t0.4-0.85" fill="none" stroke="#c0c0c0" stroke-width=".5"/>
</g>
<g id="c">
<use xlink:href="#d"/>
</g>
<g id="b">
<use transform="matrix(-1.5072 .42574 .39076 1.3833 105.35 -37.7)" xlink:href="#h"/>
<use transform="translate(25.3 -32.35)" xlink:href="#e"/>
<use transform="matrix(.89333 .44649 -.44649 .89333 55.6 -38.9)" xlink:href="#c"/>
</g>
</defs>
<use transform="matrix(.93645 -.34103 .37582 1.032 275.75 203.45)" xlink:href="#b"/>
</svg>
