<?xml version="1.0" encoding="UTF-8"?>
<svg version="1.1" viewBox="0 0 34.5 35.05" xmlns="http://www.w3.org/2000/svg" xmlns:cc="http://creativecommons.org/ns#" xmlns:dc="http://purl.org/dc/elements/1.1/" xmlns:rdf="http://www.w3.org/1999/02/22-rdf-syntax-ns#" xmlns:xlink="http://www.w3.org/1999/xlink">
<metadata>
<rdf:RDF>
<cc:Work rdf:about="">
<dc:format>image/svg+xml</dc:format>
<dc:type rdf:resource="http://purl.org/dc/dcmitype/StillImage"/>
</cc:Work>
</rdf:RDF>
</metadata>
<g transform="translate(-258.22 -182.42)">
<use transform="translate(258.25,182.45)" width="34.450001" height="35" xlink:href="#a"/>
</g>
<defs>
<g id="a" transform="translate(-258.25,-182.45)">
<path d="m267.2 191.45-4.9-7.3 5.1-0.45 6.05 8.8-5.15 0.6-1.1-1.65m11.5-8.75 2.85-0.25 7.25 8.35-3.8 0.45-6.3-8.55m2 17.6 3.05 5.85 3.3-0.85 5.65 1.4-3.8 1h-0.05l-6-1.35-2.65 0.7-2.9-6.3 3.4-0.45m-16.2 8.5-2.35-6.1 4.95-0.65 1.8 5.65 0.9 2.95-5.3-1.85m19.25-2.65-0.9 0.2 0.9-0.2m-7.65 1.95q1.85 1 3.7 2.05l-3.9 1.05-3.85-2.05 4.05-1.05" fill="#a8d37c" fill-rule="evenodd"/>
<path d="m273.45 192.5-6.05-8.8 11.3-1 6.3 8.55-11.55 1.25m-1.9-7.65-0.1-0.1 0.05 0.1h0.05m-4.4 17.2 10.15-1.3 2.9 6.3 2.65-0.7 6 1.35-9.05 2.45q-1.85-1.05-3.7-2.05l-4.05 1.05-0.05 1.5-3.1-2.95-1.8-5.65h0.05m8.95 6.05 4.1-1.05-4.1 1.05m-2.45 3.7 0.8-0.25v0.05l-0.8 0.2" fill="#fff" fill-rule="evenodd"/>
<path d="m267.2 191.45-5.7-3.25-3.25 0.4 4.05-4.45 4.9 7.3m6.4 26-6.5-2.05 3.95-0.8 3.25 1-0.7 1.85m-1.55-8.3 3.85 2.05-1.45 0.4v-0.05l-0.8 0.25-0.65 0.15-1 0.25v-1.55l0.05-1.5" fill="#666" fill-rule="evenodd"/>
<path d="m258.25 188.6 3.25-0.4 5.7 3.25-4.7 0.75-4.25-3.6m10.05 4.5 5.15-0.6-6.3 9.55h-0.05l-4.95 0.65 6.15-9.6m16.7-1.85 3.8-0.45-8.1 9.5-3.4 0.45 7.7-9.5m7.7 15.45-3 6.25-2.95 0.85 2.15-6.1 3.8-1m-14.8 9.55-4.3 1.2 1.4-3.7 0.9-2.55 3.9-1.05-1.9 6.1m-10.8-0.85-2.6-6.6 5.3 1.85 1.25 3.95-3.95 0.8" fill="#693" fill-rule="evenodd"/>
<path d="m286.75 213.8-8.85 2.45 1.9-6.1 9.05-2.45h0.05l-2.15 6.1m-13.3-21.3 11.55-1.25-7.7 9.5-10.15 1.3 6.3-9.55m-1.45 18.15v1.55l1-0.25 0.65-0.15 0.8-0.2 1.45-0.4-0.9 2.55-3.95 0.85-1.25-3.95-0.9-2.95 3.1 2.95" fill="#d7d7d7" fill-rule="evenodd"/>
<path d="m271.05 214.6 3.95-0.85-0.7 1.85-3.25-1" fill="#999" fill-rule="evenodd"/>
<path d="m262.3 184.15-4.05 4.45 4.25 3.6 4.7-0.75 1.1 1.65m-0.9-9.4-5.1 0.45m26.5 6.65-7.25-8.35-2.85 0.25-11.3 1m21.4 7.1-8.1 9.5 3.05 5.85 3.3-0.85 5.65 1.4-3 6.25-2.95 0.85-8.85 2.45-4.3 1.2-6.5-2.05-2.6-6.6-2.35-6.1 6.15-9.6" fill="none" stroke="#000" stroke-linecap="round" stroke-linejoin="round" stroke-opacity=".30196" stroke-width=".05"/>
<path d="m267.2 191.45-4.9-7.3m6 8.95 5.15-0.6m11.55-1.25 3.8-0.45m0.05 16.9h0.05m-8.2-7.4-3.4 0.45m2.9 6.3 2.65-0.7 0.9-0.2m-7.65 1.95-4.05 1.05 3.85 2.05m4.3-4.15-4.1 1.05m-9-6.05h0.05m-0.05 0-4.95 0.65m9.85 7.95v1.5m1-0.2 0.65-0.15 0.8-0.2 1.45-0.4m-8.8 4.2 3.95-0.8 3.95-0.85 0.9-2.55m-1.6 4.4 0.7-1.85m-1.4 3.7 0.7-1.85-3.25-1m1-5.45-0.05 1.5" fill="none" stroke="#000" stroke-linecap="round" stroke-linejoin="round" stroke-opacity=".30196" stroke-width=".05"/>
<path d="m271.05 206.65h0.05l0.3 0.2 0.1 0.15 0.15 0.25 0.15 0.15 0.05 0.1v0.1l-0.05 0.05v0.05l-0.5-0.25-0.25-0.55v-0.25m0.15 0.25 0.15 0.4 0.35 0.35-0.1-0.1-0.25-0.55h0.05l-0.05-0.05-0.2-0.1 0.05 0.05" fill="#9ead76" fill-rule="evenodd"/>
<path d="m271.8 207.7-0.1 0.25-0.15 0.4-0.95-1.75 0.05 0.05h0.4v0.25l0.25 0.55 0.5 0.25" fill="#92a365" fill-rule="evenodd"/>
<path d="m271.2 206.9-0.05-0.05 0.2 0.1 0.05 0.05h-0.05l0.25 0.55 0.1 0.1-0.35-0.35-0.15-0.4" fill="#839357" fill-rule="evenodd"/>
<path d="m272.1 209.8-0.6-0.95 0.3-0.25 0.3 1.2m-1.95-1.45 0.65 1.55-0.6-0.75-0.15-0.1-0.6-0.6 0.7-0.1" fill="#e0e0e0" fill-rule="evenodd"/>
<path d="m269.5 206.2v0.05h0.15l0.1-0.05 0.05-0.2-0.15-0.15-0.2-0.1-0.1 0.05h-0.05l0.05 0.05q-0.25 0.2 0.15 0.35m-0.2-0.95 0.15 0.15 0.35 0.45 0.1 0.25 0.1 0.5-0.1 0.25-0.2 0.2-0.4 0.1-0.35-0.05-0.1-0.1-0.5-0.25-0.2-0.2-0.25-0.3-0.05-0.05-0.15-0.3q-0.15-0.45 0.05-0.75l0.15-0.15 0.55-0.1 0.35 0.1q0.25 0.05 0.5 0.25m2.8 4.55-0.3-1.2 0.2-0.05 0.1 1.25m-1.95-1.45 0.2-0.05 0.45 1.6-0.65-1.55" fill="#fff" fill-rule="evenodd"/>
<path d="m269.5 206.2q-0.4-0.15-0.15-0.35l-0.1 0.1 0.05 0.05 0.15 0.2h0.05" fill="#d1d1d1" fill-rule="evenodd"/>
<path d="m269.35 205.85-0.05-0.05h0.05l0.1-0.05 0.2 0.1 0.15 0.15-0.05 0.2-0.1 0.05h-0.15v-0.05h-0.05l-0.15-0.2-0.05-0.05 0.1-0.1" fill-rule="evenodd"/>
<path d="m269.3 205.25 0.15 0.15 0.35 0.45 0.1 0.25 0.1 0.5-0.1 0.25-0.2 0.2-0.4 0.1-0.35-0.05-0.1-0.1-0.5-0.25-0.2-0.2-0.25-0.3-0.05-0.05-0.15-0.3q-0.15-0.45 0.05-0.75l0.15-0.15 0.55-0.1 0.35 0.1q0.25 0.05 0.5 0.25" fill="none" stroke="#000" stroke-linecap="round" stroke-linejoin="round" stroke-opacity=".30196" stroke-width=".05"/>
<path d="m271.8 208.6-0.3 0.25 0.6 0.95m-0.3-1.2 0.2-0.05 0.1 1.25m-1.3 0.1-0.45-1.6-0.2 0.05m0.65 1.55-0.6-0.75-0.15-0.1-0.6-0.6 0.7-0.1" fill="none" stroke="#000" stroke-linecap="round" stroke-linejoin="round" stroke-opacity=".30196" stroke-width=".05"/>
<path d="m270 206.5-0.2 0.05v-0.25l0.2 0.2m-0.35-0.1-0.2 0.1 0.05-0.15 0.15 0.05m-0.25-0.05q-0.5 0.05-0.8 0.7l-0.4-1.1-0.1-0.2 0.3-0.05 0.25-0.1 0.3 0.45 0.45 0.3m-0.8-0.85-0.2 0.05-0.35 0.05-0.05-0.05 0.05-0.05 0.3-0.15 0.15 0.1 0.1 0.05m-0.35-0.2-0.25 0.15-0.2 0.05-0.85-0.75-1.15-0.9-2.85-0.95 0.05-0.1 3.4 1.1 1.5 1.2 0.35 0.2m3.35 3.95 0.05-0.5-0.15-0.6-0.45-0.75-0.35-0.45-0.55-0.35-0.05-0.05 0.25-0.2h0.2l0.5 0.6 1 1.4-0.15 0.5-0.05 0.4h-0.25m-1.65-2.35h-0.05l-0.2 0.05-0.1-0.05h-0.45l0.5-0.05h0.25l0.15 0.05h-0.1" fill="#9ead76" fill-rule="evenodd"/>
<path d="m270 206.5 0.15-0.15h0.2l-0.25 0.2 0.05 0.05 0.55 0.35 0.35 0.45 0.45 0.75 0.15 0.6-0.05 0.5-1.4-0.4h-0.15l-0.1-0.05-0.05-0.05v-0.05l-0.15-0.05q-0.6-0.45-0.8-1.05v-0.25l-0.05-0.15-0.15 0.1-0.1-0.1-0.2-0.1-0.15-0.2-0.1-0.05-0.05-0.05-0.1-0.25-0.85-0.05-1.15-0.55-0.4-0.2q0.15-0.5-0.3-1l0.3-0.7q-0.45-0.3-1.6-0.7l-1.15-0.35 0.05-0.1 2.85 0.95 1.15 0.9 0.85 0.75 0.2-0.05 0.25-0.15 0.1 0.05-0.3 0.15-0.05 0.05 0.05 0.05 0.35-0.05 0.2-0.05 0.05 0.05v0.05l-0.25 0.1-0.3 0.05 0.1 0.2 0.4 1.1q0.3-0.65 0.8-0.7v0.05l0.1-0.05-0.05 0.15 0.2-0.1 0.15-0.1v0.25l0.2-0.05m-0.05 0.4h0.1l-0.15-0.05h-0.25l-0.5 0.05h0.45l0.1 0.05 0.2-0.05h0.05m0.15 0.2h0.05l-0.05-0.05-0.3-0.1-0.1 0.1 0.05 0.45 0.7 0.5-0.1-0.1-0.05-0.25-0.1-0.25v-0.05l-0.15-0.25h0.05m0.15 0.95-0.55-0.55-0.6 0.05 0.5 0.25 0.65 0.5-0.05-0.2 0.05-0.05" fill="#92a365" fill-rule="evenodd"/>
<path d="m262.9 203 1.15 0.35 0.95 0.45 0.45 0.45-0.1 0.5q0.45 0.5 0.3 1l0.4 0.2-0.35 0.25-0.2-0.15-0.6-0.25-2-2.8m4.3 3.5 0.85 0.05 0.1 0.25 0.05 0.05 0.1 0.05 0.15 0.2 0.2 0.1 0.1 0.1 0.15-0.1 0.05 0.15v0.25q0.2 0.6 0.8 1.05l0.15 0.05v0.05l0.05 0.05 0.1 0.05h0.05-0.1l-0.55-0.2-0.1-0.05-0.2-0.35-0.2-0.25-0.15-0.25-0.1-0.25v-0.05h-0.05l-0.35-0.5 0.05 0.15 0.05 0.3-0.15 0.3h-0.05l-0.05 0.05h-2.25l0.05-0.8 0.8 0.5q0.7 0.15 1.2-0.65l-0.75-0.3m2.9 0.6h-0.05l0.15 0.25v0.05l0.1 0.25 0.05 0.25 0.1 0.1-0.7-0.5-0.05-0.45 0.1-0.1 0.3 0.1 0.05 0.05h-0.05" fill="#72804d" fill-rule="evenodd"/>
<path d="m270.25 208.05-0.05 0.05 0.05 0.2-0.65-0.5-0.5-0.25 0.6-0.05 0.55 0.55" fill="#839357" fill-rule="evenodd"/>
<path d="m264.05 203.35q1.15 0.4 1.6 0.7l-0.3 0.7 0.1-0.5-0.45-0.45-0.95-0.45m2 2.6 1.15 0.55 0.75 0.3q-0.5 0.8-1.2 0.65l-0.8-0.5 0.05-0.55-0.3-0.2 0.35-0.25m2.1 1.8 0.05-0.05h0.05l0.15-0.3-0.05-0.3-0.05-0.15 0.35 0.5h0.05v0.05l0.1 0.25 0.15 0.25-0.45-0.1h-0.05l-0.05-0.1h-0.1l-0.15-0.05" fill="#545f38" fill-rule="evenodd"/>
<path d="m270.35 206.35h0.2l0.5 0.6 1 1.4-0.15 0.5-0.05 0.4h-0.25m-3.35-3.95-0.35-0.2-1.5-1.2-3.4-1.1-0.05 0.1m5.2 4.85 0.15 0.05h0.1l0.05 0.1h0.05l0.45 0.1 0.2 0.25 0.2 0.35 0.1 0.05 0.55 0.2h0.1m-7.2-5.85 2 2.8 0.6 0.25 0.2 0.15" fill="none" stroke="#000" stroke-linecap="round" stroke-linejoin="round" stroke-opacity=".30196" stroke-width=".05"/>
<path d="m265.95 206.95-0.05 0.8h2.25" fill="none" stroke="#000" stroke-linecap="round" stroke-linejoin="round" stroke-opacity=".30196" stroke-width=".05"/>
<path d="m267.75 207-0.35 0.15h-0.35l-0.35-0.05-0.7-0.35-0.75-0.95-0.05-0.65q0.6 1.35 1.5 1.7l1.05 0.15m-1.55-1q-0.5-0.15-0.35-0.55v0.2l0.35 0.35" fill="#d1d1d1" fill-rule="evenodd"/>
<path d="m265.85 205.45h0.05l0.05-0.05h0.1l0.3 0.1 0.1 0.2 0.05 0.05v0.15l-0.2 0.1h-0.1l-0.35-0.35v-0.2" fill-rule="evenodd"/>
<path d="m265.2 205.15 0.1-0.15q0.3-0.35 0.85-0.3t1.1 0.45q0.5 0.35 0.7 0.85v0.1l0.15 0.25-0.1 0.35-0.05 0.2-0.2 0.1-1.05-0.15q-0.9-0.35-1.5-1.7m1 0.85h0.1l0.2-0.1v-0.15l-0.05-0.05-0.1-0.2-0.3-0.1h-0.1l-0.05 0.05h-0.05q-0.15 0.4 0.35 0.55" fill="#fff" fill-rule="evenodd"/>
<path d="m265.2 205.15 0.1-0.15q0.3-0.35 0.85-0.3t1.1 0.45q0.5 0.35 0.7 0.85v0.1l0.15 0.25-0.1 0.35-0.05 0.2-0.2 0.1" fill="none" stroke="#000" stroke-linecap="round" stroke-linejoin="round" stroke-opacity=".30196" stroke-width=".05"/>
<path d="m267.75 207-0.35 0.15h-0.35l-0.35-0.05-0.7-0.35-0.75-0.95-0.05-0.65z" fill="none" stroke="#000" stroke-linecap="round" stroke-linejoin="round" stroke-opacity=".30196" stroke-width=".05"/>
<path d="m275.45 186.95h-0.05l-0.2 0.2v0.15l0.15 0.2 0.05 0.1v0.1l0.05 0.05h0.1l0.2 0.1 0.35-0.25-0.3-0.45-0.15-0.05-0.2-0.15m0.1 0.2 0.35 0.35-0.1 0.3-0.05-0.15-0.35-0.4h-0.05l0.05-0.05h-0.05l0.2-0.1v0.05" fill="#9ead76" fill-rule="evenodd"/>
<path d="m275.75 187.85 0.5 0.2 0.65 0.3-0.95-1.5h-0.05l-0.35 0.1h-0.1l0.2 0.15 0.15 0.05 0.3 0.45-0.35 0.25" fill="#92a365" fill-rule="evenodd"/>
<path d="m275.55 187.15v-0.05l-0.2 0.1h0.05l-0.05 0.05h0.05l0.35 0.4 0.05 0.15 0.1-0.3-0.35-0.35" fill="#839357" fill-rule="evenodd"/>
<path d="m278.05 189.5-0.4-0.9-0.75-0.05 1.15 0.95m0.65-1.45 1.2 1.25-0.1-0.65 0.05-0.1v-0.55l-1.15 0.05" fill="#e0e0e0" fill-rule="evenodd"/>
<path d="m275.95 185.65-0.05 0.15 0.15 0.3 0.15 0.25 0.55 0.4 0.45 0.15h0.1l0.45 0.15h0.3l0.35-0.1 0.35-0.05 0.4-0.4v-0.1l-0.05-0.3v-0.05l-0.2-0.25-1-0.55-0.4-0.1-0.85 0.05-0.4 0.1-0.3 0.35m1 0.7h-0.05l-0.1 0.1-0.25-0.05-0.2-0.1v-0.05h-0.05v-0.2h0.1l0.2-0.05 0.05 0.05h0.05q0.5 0.15 0.25 0.3m1.1 3.15-1.15-0.95-0.35-0.1 1.5 1.05m0.65-1.45h-0.25l1.45 1.25-1.2-1.25" fill="#fff" fill-rule="evenodd"/>
<path d="m276.95 186.35q0.25-0.15-0.25-0.3l0.15 0.1h0.05v0.05l0.05 0.1v0.05" fill="#d1d1d1" fill-rule="evenodd"/>
<path d="m276.7 186.05h-0.05l-0.05-0.05-0.2 0.05h-0.1v0.2h0.05v0.05l0.2 0.1 0.25 0.05 0.1-0.1h0.05v-0.05l-0.05-0.1v-0.05h-0.05l-0.15-0.1" fill-rule="evenodd"/>
<path d="m275.95 185.65-0.05 0.15 0.15 0.3 0.15 0.25 0.55 0.4 0.45 0.15h0.1l0.45 0.15h0.3l0.35-0.1 0.35-0.05 0.4-0.4v-0.1l-0.05-0.3v-0.05l-0.2-0.25-1-0.55-0.4-0.1-0.85 0.05-0.4 0.1-0.3 0.35" fill="none" stroke="#000" stroke-linecap="round" stroke-linejoin="round" stroke-opacity=".30196" stroke-width=".05"/>
<path d="m276.9 188.55 0.75 0.05 0.4 0.9m-1.15-0.95-0.35-0.1 1.5 1.05m1.85-0.2-1.45-1.25h0.25m1.2 1.25-0.1-0.65 0.05-0.1v-0.55l-1.15 0.05" fill="none" stroke="#000" stroke-linecap="round" stroke-linejoin="round" stroke-opacity=".30196" stroke-width=".05"/>
<path d="m277.95 188.9-0.7-0.3-0.5-0.45-0.45-0.65 0.05-0.35 0.2-0.4 0.05-0.05-0.6-0.1-0.3 0.05 0.1 0.55q0.2 1.1 0.55 1.2l0.8 0.35 0.5 0.2 0.3-0.05m-1.4-2.3 0.45 0.1-0.3-0.25-0.15 0.15m0.45-0.05 0.35-0.05-0.25-0.05-0.1 0.05v0.05m0.3-0.15 1.85 0.4-0.85-0.9-0.1-0.15-0.45 0.05-0.45-0.05 0.15 0.4-0.1 0.2-0.05 0.05m-0.1-0.75 0.4 0.05 0.45-0.1h0.05l-0.1-0.05-0.7-0.05-0.05 0.1-0.05 0.05m0.25-0.15h0.8q-0.1-0.3 0.15-0.7 0-0.3 0.45-0.85l2.65-1.25h-0.2q-2.5 0.9-3.25 1.4l-0.45 1.15-0.15 0.25m-0.15 1.4-0.15 0.05h0.15l0.3-0.05 0.05-0.05 0.6-0.1-0.65 0.1-0.3 0.05" fill="#9ead76" fill-rule="evenodd"/>
<path d="m276 186.6 0.6 0.1-0.05 0.05-0.2 0.4-0.05 0.35 0.45 0.65 0.5 0.45 0.7 0.3 1.5-0.45 0.1-0.05h0.05v-0.05l0.05-0.1 0.05-0.05q0.25-0.45-0.3-0.95l-0.15-0.1-0.05-0.05-0.2-0.15 0.3 0.05h0.05l0.05-0.1v-0.15l0.05-0.1 0.05-0.05v-0.1l-0.2-0.2 1.05-0.2 0.85-0.6 0.25-0.15-0.9-0.85q-0.65-0.1-1.25-0.4l1.15-0.85 1.15-0.45-0.1-0.1-2.65 1.25q-0.45 0.55-0.45 0.85-0.25 0.4-0.15 0.7h-0.95l0.7 0.05 0.1 0.05h-0.05l-0.45 0.1-0.4-0.05 0.1 0.1 0.45 0.05 0.45-0.05 0.1 0.15 0.85 0.9-1.85-0.4-0.05 0.05h-0.15l0.25 0.05-0.35 0.05-0.3-0.1 0.3 0.25-0.45-0.1h-0.55m1.3 0.3 0.3-0.05 0.65-0.1-0.6 0.1-0.05 0.05-0.3 0.05h-0.15l0.15-0.05m0 0.2-0.05 0.05-0.05-0.05 0.05-0.05h0.1l0.15-0.1h0.05l0.15 0.05q0.35 0.1 0.5 0.3l-0.25 0.55 0.05-0.1-0.3-0.15-0.25-0.25-0.1-0.25h-0.05m0.95 0.75q0.25-0.3 0.1-0.5l0.85-0.05-0.35 0.25-0.25 0.45-0.25-0.15h-0.1" fill="#92a365" fill-rule="evenodd"/>
<path d="m281.6 182.8-1.15 0.45-0.65 0.5q-0.15 0.2 0.1 0.4l0.65 0.35 0.9 0.85-0.25 0.15 0.8 0.15 0.1-0.15 0.45-0.3q0.05-0.7-0.95-2.4m-1.25 3.3-1.05 0.2 0.2 0.2v0.1l-0.05 0.05-0.05 0.1v0.15l-0.05 0.1h-0.05l-0.3-0.05 0.2 0.15 0.05 0.05 0.15 0.1q0.55 0.5 0.3 0.95l-0.05 0.05-0.05 0.1v0.05h-0.05 0.1q0.25-0.2 0.5-0.3h0.05l-0.15-0.35-0.05-0.2-0.1-0.25-0.25-0.15-0.05-0.05-0.1-0.4 0.1 0.1 0.4 0.25 0.15 0.05 0.4 0.1h0.1l0.05-0.05h0.1l1.55-0.2 1.4-0.15-1.1-0.55-0.55 0.45-2.3-0.2 0.55-0.4m-3.05 1h0.05l0.1 0.25 0.25 0.25 0.3 0.15-0.05 0.1 0.25-0.55q-0.15-0.2-0.5-0.3l-0.15-0.05h-0.05l-0.15 0.1h-0.1l-0.05 0.05 0.05 0.05 0.05-0.05" fill="#72804d" fill-rule="evenodd"/>
<path d="m278.25 187.85h0.1l0.25 0.15 0.25-0.45 0.35-0.25-0.85 0.05q0.15 0.2-0.1 0.5" fill="#839357" fill-rule="evenodd"/>
<path d="m280.45 183.25-1.15 0.85q0.6 0.3 1.25 0.4l-0.65-0.35q-0.25-0.2-0.1-0.4l0.65-0.5m0.75 2.25-0.85 0.6-0.55 0.4 2.3 0.2 0.55-0.45-0.8-0.45 0.15-0.15-0.8-0.15m-0.55 1.7h-0.1l-0.4-0.1-0.15-0.05-0.4-0.25-0.1-0.1 0.1 0.4 0.05 0.05 0.25 0.15 0.1 0.25q0.35-0.15 0.45-0.15l0.05-0.1v-0.05l0.15-0.05" fill="#545f38" fill-rule="evenodd"/>
<path d="m277.95 188.9-0.3 0.05-0.5-0.2-0.8-0.35q-0.35-0.1-0.55-1.2l-0.1-0.55 0.3-0.05m1.45-1.1 0.15-0.25 0.45-1.15q0.75-0.5 3.25-1.4h0.2m-0.85 4.5-0.15 0.05v0.05l-0.05 0.1q-0.1 0-0.45 0.15l0.05 0.2 0.15 0.35h-0.05q-0.25 0.1-0.5 0.3h-0.1m2.05-5.6q1 1.7 0.95 2.4l-0.45 0.3-0.1 0.15" fill="none" stroke="#000" stroke-linecap="round" stroke-linejoin="round" stroke-opacity=".30196" stroke-width=".05"/>
<path d="m282.65 186.25 1.1 0.55-1.4 0.15-1.55 0.2h-0.1l-0.05 0.05" fill="none" stroke="#000" stroke-linecap="round" stroke-linejoin="round" stroke-opacity=".30196" stroke-width=".05"/>
<path d="m281.05 185.55q0.45-0.2-0.2-0.4l0.25 0.15 0.05 0.15-0.1 0.1m-0.7 1.1h0.6l0.45-0.05 0.45-0.15 0.45-0.4q0.2-0.4-0.15-0.8-0.3-0.3-0.8-0.45 0.9 1.05 0.15 1.5l-1.15 0.35" fill="#d1d1d1" fill-rule="evenodd"/>
<path d="m280.85 185.15-0.05-0.05h-0.3l-0.25 0.1 0.05 0.25 0.05 0.05 0.25 0.05 0.35 0.05 0.1-0.05 0.1-0.1-0.05-0.15-0.25-0.15" fill-rule="evenodd"/>
<path d="m281.05 185.55-0.1 0.05-0.35-0.05-0.25-0.05-0.05-0.05-0.05-0.25 0.25-0.1h0.3l0.05 0.05q0.65 0.2 0.2 0.4m0.3-0.75-0.4-0.15q-0.8-0.2-1.5 0-0.7 0.1-0.9 0.5t0.2 0.8l0.3 0.3 0.55 0.2 0.3 0.1 0.45 0.1 1.15-0.35q0.75-0.45-0.15-1.5" fill="#fff" fill-rule="evenodd"/>
<path d="m281.35 184.8-0.4-0.15q-0.8-0.2-1.5 0-0.7 0.1-0.9 0.5t0.2 0.8l0.3 0.3 0.55 0.2 0.3 0.1 0.45 0.1" fill="none" stroke="#000" stroke-linecap="round" stroke-linejoin="round" stroke-opacity=".30196" stroke-width=".05"/>
<path d="m280.35 186.65h0.6l0.45-0.05 0.45-0.15 0.45-0.4q0.2-0.4-0.15-0.8-0.3-0.3-0.8-0.45z" fill="none" stroke="#000" stroke-linecap="round" stroke-linejoin="round" stroke-opacity=".30196" stroke-width=".05"/>
</g>
</defs>
</svg>
