<?xml version="1.0" encoding="UTF-8"?>
<svg width="44px" height="54px" version="1.1" viewBox="-21.7 -42.544 44.4 54.394" xmlns="http://www.w3.org/2000/svg" xmlns:xlink="http://www.w3.org/1999/xlink">
<defs>
<g id="s">
<path d="m0.15-10.95 0.75-0.05 21.55 10.95-1.1 1.6-7.05 3.55-1.7-0.2q-2.9 0-4.45 1.8-0.9 1-1.1 2.1l-5.85 3-1.9 0.1-21.25-10.8v-1.25l21.35-10.85 0.75 0.05" fill-opacity=".30196"/>
</g>
<linearGradient id="l" x1="-819.2" x2="819.2" gradientTransform="matrix(-.0015106 .00041199 -.0074158 -.028076 -11.5 -19.65)" gradientUnits="userSpaceOnUse">
<stop stop-color="#fda92d" offset="0"/>
<stop stop-color="#ffb4a2" offset="1"/>
<stop stop-color="#d4d0c8" offset="1"/>
</linearGradient>
<linearGradient id="h" x1="-819.2" x2="819.2" gradientTransform="matrix(-.0060272 -.034164 .068954 -.012177 2.6 62.9)" gradientUnits="userSpaceOnUse">
<stop stop-color="#7a5008" offset="0"/>
<stop stop-color="#704507" offset="1"/>
<stop stop-color="#d4d0c8" offset="1"/>
</linearGradient>
<linearGradient id="g" x1="-819.2" x2="819.2" gradientTransform="matrix(.0016632 .0028839 -.040115 .022995 30.45 46.4)" gradientUnits="userSpaceOnUse">
<stop stop-color="#666" offset="0"/>
<stop stop-color="#848484" offset="1"/>
<stop stop-color="#d4d0c8" offset="1"/>
</linearGradient>
<linearGradient id="f" x1="-819.2" x2="819.2" gradientTransform="matrix(0 -.029297 .081818 0 -1.4 44.25)" gradientUnits="userSpaceOnUse">
<stop stop-color="#c08202" offset="0"/>
<stop stop-color="#cc9602" offset="1"/>
<stop stop-color="#d4d0c8" offset="1"/>
</linearGradient>
<linearGradient id="e" x1="-819.2" x2="819.2" gradientTransform="matrix(-.0036621 -.046524 .10455 -.0082397 -1.75 61.9)" gradientUnits="userSpaceOnUse">
<stop stop-color="#7a5008" offset="0"/>
<stop stop-color="#b07113" offset="1"/>
<stop stop-color="#d4d0c8" offset="1"/>
</linearGradient>
<linearGradient id="d" x1="-819.2" x2="819.2" gradientTransform="matrix(0 .0082397 -.039886 0 -2.2 31.95)" gradientUnits="userSpaceOnUse">
<stop stop-color="#666" offset="0"/>
<stop stop-color="#848484" offset="1"/>
<stop stop-color="#d4d0c8" offset="1"/>
</linearGradient>
<linearGradient id="c" x1="-819.2" x2="819.2" gradientTransform="matrix(-.031448 -.0084381 .0090485 -.033752 14.25 23.3)" gradientUnits="userSpaceOnUse">
<stop stop-color="#999" offset="0"/>
<stop stop-color="#b3b3b3" offset="1"/>
<stop stop-color="#d4d0c8" offset="1"/>
</linearGradient>
<linearGradient id="b" x1="-819.2" x2="819.2" gradientTransform="matrix(-.0041809 -.015823 .0354 -.0093689 1 63.6)" gradientUnits="userSpaceOnUse">
<stop stop-color="#8f3901" offset="0"/>
<stop stop-color="#b14701" offset="1"/>
<stop stop-color="#d4d0c8" offset="1"/>
</linearGradient>
<linearGradient id="a" x1="-819.2" x2="819.2" gradientTransform="matrix(0 -.012695 .034241 0 -.35 47.4)" gradientUnits="userSpaceOnUse">
<stop stop-color="#7e3301" offset="0"/>
<stop stop-color="#a74403" offset="1"/>
<stop stop-color="#d4d0c8" offset="1"/>
</linearGradient>
<linearGradient id="k" x1="-819.2" x2="819.2" gradientTransform="matrix(0 -.014435 .034241 0 -.3 62)" gradientUnits="userSpaceOnUse">
<stop stop-color="#7e3301" offset="0"/>
<stop stop-color="#a74403" offset="1"/>
<stop stop-color="#d4d0c8" offset="1"/>
</linearGradient>
<linearGradient id="j" x1="-819.2" x2="819.2" gradientTransform="matrix(-.0014954 .002594 -.040268 -.023102 -29.45 43.85)" gradientUnits="userSpaceOnUse">
<stop stop-color="#666" offset="0"/>
<stop stop-color="#848484" offset="1"/>
<stop stop-color="#d4d0c8" offset="1"/>
</linearGradient>
<g id="r">
<path d="m83-24.8q7.1 18.55 3.3 42.95-0.25-22.55-3.3-28.85v-14.1m-77.6-34.35 0.65 3.9 1.65 10.65v2.45q-1.95 1.8-6.85 1.3l-1.3-20.4 5.1-3.15 0.2 1.5 0.55 3.75m20.3 38.3 9.15 8.7q-3.05 4.15-7.95 6.4 3.25-7.55-1.2-15.1m-48.6-72.85q2.35 2.4 2.15 6.15-9.1-2.5-12.75-2.85-0.2-3.6-4.8-5.6l2.3 0.25 11.05 1.65 2.05 0.4m38.35 69.55q4.3 3.35 7 8.95v15.05l-2.8-5q0.45-4.85-4.2-19m0.75 39.55q5.3-3.95 7.6-9.5l0.85-2.4 1.55 3.35 1.8 5.6q-5.8 1.85-11.8 2.95m-76.35-115.9q9.5-6.25 18.45-7.3l-5.9 11.15-1.95 0.15-3.95 0.45q-9.15-1.2-6.65-4.45m37.15 38.35-5.65 4.9q-14.85 4-38.75 19.45 12.15-13.5 44.4-24.35" fill="#734731"/>
<path d="m6.05-55.25q20.3-7.95 1.65 10.65l-1.65-10.65m46.35 6.7q-7.4-19.55 7.05-3.85-2.8 3.15-7.05 3.85m-45-20.9-3 3.55-3-10.1q17.5-7.75 6 6.55m-13.45-19.25q-4.15-1.7-8.7-3 8.7-16.95 8.7 3m-29.95-7.05q5.3-18.15 11.05 1.65l-11.05-1.65" fill="#fff"/>
<path d="m86.3 18.15q-1.05 6.4-2.8 13.2 0.7-36.45-8.15-35.35 5.55-1.95 7.65-6.7 3.05 6.3 3.3 28.85m-86.75-79.4 1.3 20.4q-11.55-2.55-16.5-9.7 0.7-4.25 0.95-9.1v-0.1l0.1-5.1-0.05-3.6q4 5.35 14.2 7.2m-20.3-26.3q-1.5 4.9-4.35 5.85-4.6-2.6-9.5-4.35l1.1-4.35q3.65 0.35 12.75 2.85m36.95 102.95q6-1.1 11.8-2.95v0.05q0.95 3.55-0.4 8l-0.6 1.6q-1.2 3-4.4 6.1-6.55-0.45-14.25-6.85 6.15-1 0.85-3.45l3.3-0.8q2.45-0.8 3.7-1.7m-83.6-53.2q23.9-15.45 38.75-19.45l-4.6 7.75q-6.5-0.45-34.15 11.7m13.9-58.25q-12 1.8 5.9 6.65l3.1 10.85q-14.25-4.45-22.3-17 3.35-2.8 6.65-4.95-2.5 3.25 6.65 4.45" fill="#2f1d13"/>
<path d="m-43.3-11.55-0.25-3.95q-0.15-5.2 0.85-9.2h1-1q0.75-3.25 2.25-5.7l1.05 0.9-1.05-0.9 1.75-2.35q5.95-6.55 13.55-7.5h0.6l5.8 0.7q4.45 1.3 6.85 4.55l0.55 1.45q4.3-2.1 10.55-1.45l2.05 0.2q7.75 0.9 8.85 2.25l2.45 1.65q5.55 16.2 4.8 34.2-0.25 5.95-1.15 12.1-1.25 0.9-3.7 1.7l-3.3 0.8-4.25 0.8-3.05-0.65q-11.55-2.9-18.4-13.25-4.5-6.85-7-16.95v0.1q0 3.2 0.4 5.95l0.65 3.85q-15.35 5.45-20.8-9l-0.05-0.3m1.3-3.95h-1.55 1.55m22.85-12.8 0.85 1.25-0.85-1.25m6.15-0.85 1.1 1.9-1.1-1.9m1.65-4.4q-2.65 1.2-4.55 3.45l-2.4 3.05 2.4-3.05q1.9-2.25 4.55-3.45m-0.55 6.3-0.15 0.15q-1.15 1.05-2.05 2.7l-0.55 1q-0.8 1.65-0.95 3.2v0.6q-0.1 2.3 1.3 3.1 1.35 0.8 3.35-0.45 1.95-1.15 3.4-3.65 1.45-2.55 1.55-4.9 0-2.3-1.35-3.05-1.35-0.8-3.35 0.4l-1.2 0.9m-27.5-2.25q-0.75 1.6-0.9 3.15l-0.05 0.6q-0.05 2.3 1.35 3.1 1.35 0.8 3.35-0.45 1.95-1.15 3.4-3.65 1.45-2.55 1.5-4.85 0.05-2.35-1.3-3.1-1.35-0.8-3.35 0.4t-3.4 3.75l-0.6 1.05m13.3 6.25q2.05-0.75 4.95 0.85-2.9-1.6-4.95-0.85m7.8-3.8q-1.75 2.35-2.85 4.65-0.9 1.7-1.4 3.35-0.95 3-0.95 6.9 0-3.9 0.95-6.9 0.5-1.65 1.4-3.35 1.1-2.3 2.85-4.65l2.5 3.75-2.5-3.75m0.85 6.8-3.7-2.15 3.7 2.15m-6.05 8.1 4.95-0.55-4.95 0.55q-3 0-2.6 0.85-0.4-0.85 2.6-0.85" fill="#ffb4a2"/>
<path d="m-43.25-11.25-0.05-0.1v-0.2l0.05 0.3" fill="url(#l)"/>
<path d="m-11.9-27.25 1.2-0.9q2-1.2 3.35-0.4 1.35 0.75 1.35 3.05-0.1 2.35-1.55 4.9-1.45 2.5-3.4 3.65-2 1.25-3.35 0.45-1.4-0.8-1.3-3.1v-0.6q0.15-1.55 0.95-3.2l0.55-1q0.9-1.65 2.05-2.7l0.15-0.15 0.85 1.45-0.85-1.45m-27.5-2.25 0.6-1.05q1.4-2.55 3.4-3.75t3.35-0.4q1.35 0.75 1.3 3.1-0.05 2.3-1.5 4.85-1.45 2.5-3.4 3.65-2 1.25-3.35 0.45-1.4-0.8-1.35-3.1l0.05-0.6q0.15-1.55 0.9-3.15" fill="#ffd0cc"/>
<path d="m-28.95 7.5q-5.35-2.55-9.15-7.25-4.05-5-5.15-11.5 5.45 14.45 20.8 9l-0.65-3.85q-0.4-2.75-0.4-5.95v-0.1q2.5 10.1 7 16.95 6.85 10.35 18.4 13.25l3.05 0.65-3.7 0.5h-0.05l-1.7 0.1-3.8-0.6-2.8-0.85q-4.15-1.3-7-4.15-2.8-2.9-4.4-5.8l-0.65-1.5-0.2-0.35q-2.05-3.4-3.1-8.3 1.05 4.9 3.1 8.3l0.2 0.35q-1.1 1.25-4.5 1.55l-1.05 0.05h-0.5q-2.5 0.05-3.75-0.5" fill="#ff9277"/>
<path d="m7.4-69.45q10.8-0.25-1.35 7.2l-1.2-0.65-0.2-1.5-0.25-1.5 3-3.55" fill="#ccc"/>
<path d="m6.05-62.25q2.65 1.8-0.65 3.1l-0.55-3.75 1.2 0.65" fill="#d27e00"/>
<path d="m5.4 107.85-4.6-2.3-0.1-10.5-4.1 0.2v10.3l-4.6 2.3 0.35-9.15 0.55-13.95 0.2-5.25 0.35-10 4.8-0.4-0.6 6.2-0.5 6.45-0.35 6-0.05 1.55 3.75-0.35-0.05-1.45-0.3-5.7-0.2-2.55-0.3-3.95-0.55-6.2h5.05l0.5 6.05 0.35 5.15-5.05-1.05 5.05 1.05 0.05 1.3 0.45 13.4-4.85-1.55 4.85 1.55-0.1 12.85m-59.2-71.85-1.55 2.35 11.65 5.7 0.55 0.3-4.05 2.2-12.6-7.45 6-3.1m97.5 6.85q5.05-2.5 10.25-4.9l2.8 1.35-8.8 5.1-4.25-1.55m-43 52.2-0.05-1.6 0.05 1.6m-0.05-1.6-0.15-4.5 0.15 4.5m-4.05 1.8 0.15-5.95-0.15 5.95" fill="url(#h)"/>
<path d="m58.65 19.45q-10.55 12-1 16.8l-3.7 1.7q-5.2 2.4-10.25 4.9-8.2 4-16 8.2l-4.9 2.65q-2.6 1.4-5.1 2.85-8.2 4.65-16 9.5l-1.9 1.15v-18.05l3.1-1.2q9.9-3.95 19.65-8.6l3.6-1.75q16.45-8.1 32.5-18.15" fill="url(#g)"/>
<path d="m57.65 36.25-2.85-2.05 6.05 2.95h4.8q-11.8 7.2-24.35 13.9h-0.05l-14.7 7.6-10.35 4.95-12.05 5.5h-5.05l7.55-3.4q10.45-4.85 20.6-10.05l8.1-4.25 12.6-7 8.8-5.1-2.8-1.35 3.7-1.7m-126.05 0.9h4.8l10.8-5.6q-0.1 2.25-1 4.45l-6 3.1-3.8-1.95 3.8 1.95 12.6 7.45q10.05 5.75 20.3 10.95l7.45 3.65 1.3 0.6 1.6 0.75 5.85 2.7 8.95 3.9-4.8 0.4-13.75-6.25h-0.05q-3.7-1.75-7.35-3.55-21-10.35-40.7-22.55m129.25 0-4.1 2.15 4.1-2.15m-25.5 14.25q-9 5.15 5.9-0.35-14.9 5.5-5.9 0.35m-54.8 9.75q-6.05-2.7-4.5-0.95l3.65 3.05-3.65-3.05q-1.55-1.75 4.5 0.95" fill="url(#f)"/>
<path d="m65.65 37.15 2.1 4.15 1.35 2.45 3.2 5.45q2.8 4.5 6 8.75l6.5 8.05q-20.1 11.75-41.2 22.8-18.7 9.8-38.2 19.05l0.1-12.85-0.45-13.4-0.05-1.3-0.35-5.15-0.5-6.05 12.05-5.5 10.35-4.95 14.7-7.6h0.05q13.5-3.25 26.45-9.75-12.95 6.5-26.45 9.75 12.55-6.7 24.35-13.9m-73.65 70.7q-27.55-13.25-53.6-27.35-13.2-7.15-26-14.5l5.7-6.7 1.35-1.75q4.3-0.4 3.4-4.8l2.1-3.2 3.45-6 3.2-6.4q19.7 12.2 40.7 22.55 3.65 1.8 7.35 3.55 3.55 5.9 8.05 10.85l5.4 5.4-0.2 5.25-0.55 13.95-0.35 9.15m80.3-58.65q-34.85 21.45-66.8 45.8 31.95-24.35 66.8-45.8m-67.3 31.1q11.7-5.2 22.75-11 22-11.55 41.35-25.55-19.35 14-41.35 25.55-11.05 5.8-22.75 11m27.4 6.95 5.75-3.15q9.1-5.55 15.8-13.45l2.85-3.65q-20.3 7.8-24.4 20.25 4.1-12.45 24.4-20.25l-2.85 3.65q-6.7 7.9-15.8 13.45l-5.75 3.15m5.7-4.75 1-2.85q0.7-1.95 3.7-3.35 2.95-1.4 5.45-2.35-2.9 4.95-10.15 8.55 7.25-3.6 10.15-8.55-2.5 0.95-5.45 2.35-3 1.4-3.7 3.35l-1 2.85m5.5 6.3q19.2-14.45 34.7-30.85-15.5 16.4-34.7 30.85m-89.7-6.3q-15.65-5.55-22.75-20.25 14.2 5.8 22.75 20.25-8.55-14.45-22.75-20.25 7.1 14.7 22.75 20.25m39.55-13-0.35 10-5.4-5.4q-4.5-4.95-8.05-10.85h0.05-0.05 0.05l13.75 6.25m-65.05-25.95q23.35 11.4 43.25 25.15 8.4 5.75 16.2 11.95l5.05 4.1-5.05-4.1q-7.8-6.2-16.2-11.95-19.9-13.75-43.25-25.15m10 36.95q-13.7-9.7-20.3-21.2 6.6 11.5 20.3 21.2m-13.45-30.95q37.3 22.55 67.4 49.15-30.1-26.6-67.4-49.15" fill="url(#e)"/>
<path d="m22.6 28.2q3.25 0.2 6.25-1.1l0.65-0.3q2.45-1.2 4.3-2.65 2.15-1.7 3.45-3.8 3.8 0.8-6.5 8.6-6.05 4.6-12.4 8.25-9.65 5.55-20 9.05-10.2-3.95-18.9-8.4l-12.25-6.9q-3.7-4.65-3.3-6.05 0.3 2.25 4.4 2.5l3.4-0.05q3.05-0.55 4.4-2.9l1.85 2.75q3.3 1.4 6 0l8.1-4.1-1.7 10.5q-0.95 7 3.8 7.9l0.7 0.15q6.2 0.55 6.4-4.15v-18.3l3.7-0.5 4.25-0.8q5.3 2.45-0.85 3.45 7.7 6.4 14.25 6.85" fill="url(#d)"/>
<path d="m39.35 12 19.3 7.45q-16.05 10.05-32.5 18.15l-3.6 1.75q-9.75 4.65-19.65 8.6l-3.1 1.2q-11.65-4.15-23.3-9.65l-7.8-3.85q-14.05-7.15-24.25-11.6 12.65-7 25-12.9l-4.8 10.85q-0.9 1.7-0.75 2.9-0.4 1.4 3.3 6.05l12.25 6.9q8.7 4.45 18.9 8.4 10.35-3.5 20-9.05 6.35-3.65 12.4-8.25 10.3-7.8 6.5-8.6 1.2-2.05 1.55-4.45l0.55-3.9m-57.85-4.1q1.6 2.9 4.4 5.8 2.85 2.85 7 4.15l-0.85 5.25-8.1 4.1q-2.7 1.4-6 0l-1.85-2.75 0.3-0.6 5.1-15.95" fill="url(#c)"/>
<path d="m-4.3 18.7 3.8 0.6 1.7-0.1h0.05v18.3q-0.2 4.7-6.4 4.15l-0.7-0.15 1.55-22.8m-14.85-12.3 0.65 1.5-5.1 15.95-0.3 0.6q-1.35 2.35-4.4 2.9l-3.4 0.05 7-19.4 1.05-0.05q3.4-0.3 4.5-1.55" fill="#512f0e"/>
<path d="m1.7 66.05q7.8-4.85 16-9.5l1.75-0.75 2.25-1.25 1.1-0.85 4.9-2.65v2.2l-0.45 2.4q-10.15 5.2-20.6 10.05l-4.95 0.35m-2.05 9.25 0.3 3.95 0.2 2.55h-0.45l-2.55-0.05 0.5-6.45h2m-16.2-12.8-1.6-0.75-1.3-0.6-7.45-3.65q-1.5-2-1.5-4.25v-1.4q12.9 6.75 26.15 14.2l-8.45-0.85-5.85-2.7" fill="url(#b)"/>
<path d="m17.7 56.55q2.5-1.45 5.1-2.85l-1.1 0.85-2.25 1.25-1.75 0.75" fill="url(#a)"/>
<path d="m-0.2 67.2 1.9-1.15 4.95-0.35-7.55 3.4 0.55 6.2h-2l0.6-6.2-8.95-3.9 8.45 0.85 2.05 1.15" fill="url(#k)"/>
<path d="m0.45 87.5 0.05 1.45-3.75 0.35 0.05-1.55 3.65-0.25" fill="#c68c02"/>
<path d="m-30.55 11.15 1.6-3.65q1.25 0.55 3.75 0.5h0.5l-7 19.4q-4.1-0.25-4.4-2.5-0.15-1.2 0.75-2.9l4.8-10.85m26.25 7.55-1.55 22.8q-4.75-0.9-3.8-7.9l2.55-15.75 2.8 0.85" fill="#723901"/>
<path d="m-55.35 38.35q5.3-6.35-0.2-14.3 10.2 4.45 24.25 11.6l7.8 3.85q11.65 5.5 23.3 9.65v18.05l-2.05-1.15q-13.25-7.45-26.15-14.2-7.7-4.05-15.3-7.8l-11.65-5.7" fill="url(#j)"/>
<path d="m59.45-52.4 1.2-1.6q15.75 12.15 22.35 29.2 7.1 18.55 3.3 42.95-1.05 6.4-2.8 13.2 0.7-36.45-8.15-35.35l-1.65 0.5q-4.8 2.2-11.95 13.65-3.7-26.35-15.55-20.55-1.4 0.65-2.9 1.8 8.9 12.45-4.25 3.8l0.5 2.3q0.35 2.1 0.35 6.6 0 3.2-0.55 7.9m-68.3-4.5q-5.35-2.55-9.15-7.25-4.05-5-5.15-11.5l-0.05-0.3-0.25-3.95q-0.15-5.2 0.85-9.2m-0.6 13.35v-0.35 0.15 0.2m48.7-47.8 0.65 3.9q20.3-7.95 1.65 10.65v2.45l2.4 9.6 2.45 1.65 10.1 7.6 3.05 2.45 9.15 8.7 2.1 2.75q14.45-17.35 13.1-39l2.35-0.15q-7.4-19.55 7.05-3.85-2.8 3.15-7.05 3.85m-45-20.9q10.8-0.25-1.35 7.2 2.65 1.8-0.65 3.1m-4-16.85q-1.75-5.6-3.8-11.15l-3.65-1.55m-8.7-3-8.15-2m-2.2 12q5.25 2.9 10.05 6.8m16.45-1.1q17.5-7.75 6 6.55m-67.55-31.05q9.5-6.25 18.45-7.3l-5.9 11.15 9.3 0.65 2.3 0.25q5.3-18.15 11.05 1.65l2.05 0.4m-11.7 7.65q4.9 1.75 9.5 4.35m2.1 19.55q-32.25 10.85-44.4 24.35m34.15-11.7q6.3 0.45-7.9 13.1 17.75-10.25 18.1-7.6 0.15 0.95-1.85 3.45l-0.25 0.3h0.6m9.95-24.6-8.4 2.7m8.35-6.3 0.05 3.6m-0.05-3.6-0.4-6.45m-32.55-14.5q6.75 1.05 13 3.35m-25.55-14.45q-3.3 2.15-6.65 4.95m26.35 65.15q-1.5 2.45-2.25 5.7m17.55-15.55q-7.6 0.95-13.55 7.5l-1.75 2.35m7.2-19.1q-6.5-0.45-34.15 11.7m52.65-53.9q8.7-16.95 8.7 3" fill="none" stroke="#8d2803" stroke-width="1.5"/>
<path d="m5.4-59.15-0.55-3.75-0.2-1.5m2.75-5.05-3 3.55 0.25 1.5m0.2 1.5 1.2 0.65m-1.65-3.65-3-10.1m-7.45-12.7q-4.15-1.7-8.7-3m-0.3 16.8q7.05 4.3 11-5.6m-7.3 46.95q4.3-2.1 10.55-1.45l2.05 0.2q7.75 0.9 8.85 2.25m28.95 27.75q-3 2.6-3 3.85m-6.85-3.45q5.5-2.35 7.75-5m-29.25-35.2-1.65-10.65m16.55 83.45q3.25 0.2 6.25-1.1l0.65-0.3q2.45-1.2 4.3-2.65 2.15-1.7 3.45-3.8 1.2-2.05 1.55-4.45l0.55-3.9m-38.1 7.2h-0.05l-1.7 0.1-3.8-0.6m5.55 0.5 3.7-0.5m-28.45-30.85v0.1q0 3.2 0.4 5.95l0.65 3.85q1.05 4.9 3.1 8.3l0.2 0.35 0.65 1.5q1.6 2.9 4.4 5.8 2.85 2.85 7 4.15l2.8 0.85m13.5-0.8 3.3-0.8q2.45-0.8 3.7-1.7m-7 2.5-4.25 0.8m17.65 9.5q-6.55-0.45-14.25-6.85 6.15-1 0.85-3.45m-34.15-112-11.05-1.65m11.45 55.5 5.8 0.7q2.05-4.85 3.1-11 0.7-4.25 0.95-9.1v-0.1l0.1-5.1m-38.9-31.2q-12 1.8 5.9 6.65m0-7.25-1.95 0.15-3.95 0.45m35.2 69 2.4-3.05q1.9-2.25 4.55-3.45m-0.55-1.45q-2.4-3.25-6.85-4.55m-4.75 27.4q0-3.9 0.95-6.9 0.5-1.65 1.4-3.35 1.1-2.3 2.85-4.65m-6.4 35.05h-0.5q-2.5 0.05-3.75-0.5m9.8-1.1q-1.1 1.25-4.5 1.55l-1.05 0.05" fill="none" stroke="#8d2803" stroke-width=".5"/>
<path d="m-30.55 11.15 1.6-3.65m-37.85-103.05q8.05 12.55 22.3 17l-3.1-10.85" fill="none" stroke="#592400" stroke-width="1.5"/>
<path d="m-43.55-15.5h-4.05m4.9-9.2h-4.05m3.2 9.2h1.55m-0.7-9.2h1m29.8-2.55-1.1-1.9m-5.3 2.1-0.85-1.25m7.25 1.05 0.85 1.45m-28.35-3.7-1.05-0.9q-1.15-2.25-5.45-1.25m24.75 9.25q-2.9-1.6-4.95-0.85m7.8-3.8 2.5 3.75m-7.7 11.15q-3 0-2.6 0.85m7.55-1.4-4.95 0.55m2.35-10.25 3.7 2.15" fill="none" stroke="#94300a" stroke-width=".5"/>
<path d="m-43.25-11.25-0.05-0.1" fill="none" stroke="#0f0" stroke-width=".5"/>
<path d="m54.8 34.2 6.05 2.95h4.8l2.1 4.15 1.35 2.45 3.2 5.45q2.8 4.5 6 8.75l6.5 8.05q-20.1 11.75-41.2 22.8-18.7 9.8-38.2 19.05l-4.6-2.3-0.1-10.5-4.1 0.2v10.3l-4.6 2.3q-27.55-13.25-53.6-27.35-13.2-7.15-26-14.5l5.7-6.7 1.35-1.75q4.3-0.4 3.4-4.8l2.1-3.2 3.45-6 3.2-6.4h4.8l10.8-5.6m96.5 11.3 4.25 1.55m-20.7 11.25 8.1-4.25 12.6-7m-47.5 43.1-3.65 0.25m3.65-0.25-0.3-5.7m-3-0.05-0.35 6m-44-41.2 4.05-2.2m-4.05 2.2q10.05 5.75 20.3 10.95" fill="none" stroke="#64400d" stroke-width="1.5"/>
<path d="m-53.8 36-1.55 2.35m109.3-0.4 3.7-1.7m-3.7 1.7q-5.2 2.4-10.25 4.9m4.25 1.55 8.8-5.1 4.1-2.15m-61.75 31.95 0.55 6.2 0.3 3.95m0.7 14.2 0.05 1.6m-3.9-7.3-0.05 1.55-0.15 5.95m3.9-6.3 0.15 4.5m26.6-37.8q-10.15 5.2-20.6 10.05l-7.55 3.4m-58.9-30 12.6 7.45m4.05-2.2-0.55-0.3m-19.9-6.9 3.8 1.95m43.25 23.4 5.85 2.7 8.95 3.9-0.6 6.2-0.5 6.45m-24.05-24.25 7.45 3.65 1.3 0.6m16.4 7.35-4.8 0.4m6.7 12.3-0.2-2.55" fill="none" stroke="#64400d" stroke-width=".5"/>
<path d="m39.35 12 19.3 7.45q-10.55 12-1 16.8m-113 2.1q5.3-6.35-0.2-14.3 12.65-7 25-12.9m58.25 39.9q7.8-4.2 16-8.2m-72.1 9q-7.7-4.05-15.3-7.8" fill="none" stroke="#000" stroke-width="1.5"/>
<path d="m58.65 19.45q-16.05 10.05-32.5 18.15l-3.6 1.75q-9.75 4.65-19.65 8.6l-3.1 1.2v18.05l1.9-1.15q7.8-4.85 16-9.5 2.5-1.45 5.1-2.85l4.9-2.65m-27.9-1.9q-11.65-4.15-23.3-9.65l-7.8-3.85q-14.05-7.15-24.25-11.6m11.85 20-11.65-5.7m53.1 27.7 2.05 1.15m-2.05-1.15q-13.25-7.45-26.15-14.2" fill="none" stroke="#000" stroke-width=".5"/>
<path d="m-5.85 41.5 0.7 0.15q6.2 0.55 6.4-4.15v-18.3m-8.35-1.35-2.55 15.75q-0.95 7 3.8 7.9m-30.25-16.6q-0.15-1.2 0.75-2.9l4.8-10.85m12.05-3.25-5.1 15.95-0.3 0.6m-7.8 2.95 3.4-0.05q3.05-0.55 4.4-2.9m-7.8 2.95q-4.1-0.25-4.4-2.5" fill="none" stroke="#592400" stroke-width=".5"/>
<path d="m27.7 51.05v2.2l-0.45 2.4m-27.1 26.15h-0.45l-2.55-0.05m-25.55-29.9v1.4q0 2.25 1.5 4.25" fill="none" stroke="#600" stroke-width="1.5"/>
<path d="m22.8 53.7-1.1 0.85-2.25 1.25-1.75 0.75m-11.05 9.15-4.95 0.35m-12.4-0.85 8.45 0.85m-0.1 9.25h2" fill="none" stroke="#600" stroke-width=".5"/>
<path d="m41.25 51.05q-14.9 5.5-5.9 0.35m-29.85 43.6q31.95-24.35 66.8-45.8m-72.35 30.05 5.05 1.05m-4.35 13.15 4.85 1.55m32.6-12.5q7.25-3.6 10.15-8.55-2.5 0.95-5.45 2.35-3 1.4-3.7 3.35l-1 2.85m-5.7 4.75q4.1-12.45 24.4-20.25l-2.85 3.65q-6.7 7.9-15.8 13.45l-5.75 3.15m36.7-43.5q-19.35 14-41.35 25.55-11.05 5.8-22.75 11m73.3-22.35q-15.5 16.4-34.7 30.85m-2.3-37.75q13.5-3.25 26.45-9.75m-113.85 41.2q-8.55-14.45-22.75-20.25 7.1 14.7 22.75 20.25m27.95-20.75 1.6 0.75m-3.8 0.75h0.05l-3.65-3.05q-1.55-1.75 4.5 0.95m12.35 23.6-5.05-4.1q-7.8-6.2-16.2-11.95-19.9-13.75-43.25-25.15m64.7 35.95-5.4-5.4q-4.5-4.95-8.05-10.85m12.7 35.45q-30.1-26.6-67.4-49.15m-6.85 9.75q6.6 11.5 20.3 21.2" fill="none" stroke="#764913" stroke-width=".5"/>
</g>
<g id="q">
<path d="m61.35 30.65q-4.8 2.2-11.95 13.65-3.7-26.35-15.55-20.55 7.25-5.5 19.75-21.55 8.8 4.25 17.05 21.25-2.1 4.75-7.65 6.7-0.8 0.1-1.65 0.5m-40.15 24q0.3 1.75 0.25 3.65l-4.3 2.65-0.65 0.3q-3 1.3-6.25 1.1 3.2-3.1 4.4-6.1l0.6-1.6q1.35-4.45 0.4-8l0.85-0.4q3.85 3.3 4.7 8.4m-37.6-101 3.6 19.25q-10.2-1.85-14.2-7.2l-0.4-6.45q-4.8-3.9-10.05-6.8 2.85-0.95 4.35-5.85 7.75 1.95 16.7 7.05m-43.55-8.9q-17.9-4.85-5.9-6.65l3.95-0.45 6.45 4.85 9.6 1.25-1.1 4.35q-6.25-2.3-13-3.35m14.35 39.9 4.6-7.75q8.55-2.3 13.95-2.5v0.1q-0.25 4.85-0.95 9.1 4.95 7.15 16.5 9.7l0.4 6.05-2.05-0.2q-6.25-0.65-10.55 1.45l-0.55-1.45q-2.4-3.25-6.85-4.55l-5.8-0.7-0.35-0.3q2-2.5 1.85-3.45-0.35-2.65-18.1 7.6 14.2-12.65 7.9-13.1" fill="#c76401"/>
</g>
<g id="p">
<use xlink:href="#q"/>
</g>
<linearGradient id="i" x1="-819.2" x2="819.2" gradientTransform="matrix(0 .041885 -.080902 0 .05 -14.95)" gradientUnits="userSpaceOnUse">
<stop stop-color="#feb445" offset="0"/>
<stop stop-color="#fda92d" offset="1"/>
<stop stop-color="#d4d0c8" offset="1"/>
</linearGradient>
<g id="o">
<path d="m43.95-17.75q15.75 12.15 22.35 29.2v14.1q-8.25-17-17.05-21.25-12.5 16.05-19.75 21.55l-2.9 1.8q8.9 12.45-4.25 3.8l0.5 2.3q0.35 2.1 0.35 6.6 0 3.2-0.55 7.9l-0.55 3.9q-0.35 2.4-1.55 4.45-1.3 2.1-3.45 3.8 0.05-1.9-0.25-3.65-0.85-5.1-4.7-8.4l-0.85 0.4v-0.05q-0.8-3-1.8-5.6l-1.55-3.35-0.85 2.4q-2.3 5.55-7.6 9.5 0.9-6.15 1.15-12.1 0.75-18-4.8-34.2l10.1 7.6 3.05 2.45q4.45 7.55 1.2 15.1 4.9-2.25 7.95-6.4l2.1 2.75q14.45-17.35 13.1-39l2.35-0.15q4.25-0.7 7.05-3.85l1.2-1.6m-81.4-33.55q0.2-3.75-2.15-6.15l8.15 2q4.55 1.3 8.7 3l3.65 1.55q2.05 5.55 3.8 11.15l3 10.1 0.25 1.5-5.1 3.15-3.6-19.25q-8.95-5.1-16.7-7.05m43.2 72.35q-2.7-5.6-7-8.95 4.65 14.15 4.2 19l2.8 5v-15.05m-60.75-80.8q4.6 2 4.8 5.6l-9.6-1.25-6.45-4.85 1.95-0.15 9.3 0.65m23.7 31.15-0.1 5.1q-5.4 0.2-13.95 2.5l5.65-4.9 8.4-2.7m24.7 32.3q-1.1-1.35-8.85-2.25l-0.4-6.05q4.9 0.5 6.85-1.3l2.4 9.6" fill="url(#i)"/>
</g>
<g id="n">
<use xlink:href="#o"/>
</g>
<g id="m">
<use xlink:href="#r"/>
<use transform="translate(12.35 -34.15)" xlink:href="#p"/>
<use transform="translate(16.7 -36.25)" xlink:href="#n"/>
</g>
</defs>
<use transform="translate(.25 -.05)" xlink:href="#s"/>
<use transform="matrix(.237 0 0 .237 .3 -15.55)" xlink:href="#m"/>
</svg>
