<?xml version="1.0" encoding="UTF-8"?>
<svg width="164px" height="188px" version="1.1" viewBox="10.664 14 164.44 188" xmlns="http://www.w3.org/2000/svg" xmlns:xlink="http://www.w3.org/1999/xlink">
<defs>
<radialGradient id="d" cx="0" cy="0" r="819.2" gradientUnits="userSpaceOnUse">
<stop stop-color="#5f2101" offset=".43529"/>
<stop stop-color="#c05607" offset="1"/>
</radialGradient>
<g id="k">
<path d="m144.9 45.5q-20.85-26.15-50.35-26.15-29.45 0-50.3 26.15-20.85 26.1-20.8 63.05-0.05 36.95 20.8 63.1 20.85 26.1 50.3 26.1 29.5 0 50.35-26.1 20.8-26.15 20.8-63.1t-20.8-63.05m6.45-3.95q23.7 27.5 23.75 66.45-0.05 38.9-23.75 66.45-23.7 27.5-57.25 27.55-33.6-0.05-57.3-27.55-23.7-27.55-23.7-66.45 0-38.95 23.7-66.45 23.7-27.55 57.3-27.55 33.55 0 57.25 27.55" fill="#551700"/>
<path d="m144.9 45.5q20.8 26.1 20.8 63.05t-20.8 63.1q-20.85 26.1-50.35 26.1-29.45 0-50.3-26.1-20.85-26.15-20.8-63.1-0.05-36.95 20.8-63.05 20.85-26.15 50.3-26.15 29.5 0 50.35 26.15" fill="url(#d)"/>
<path d="m144.9 45.5q20.8 26.1 20.8 63.05t-20.8 63.1q-20.85 26.1-50.35 26.1-29.45 0-50.3-26.1-20.85-26.15-20.8-63.1-0.05-36.95 20.8-63.05 20.85-26.15 50.3-26.15 29.5 0 50.35 26.15" fill="none" stroke="#ff9" stroke-opacity=".4" stroke-width="1.5"/>
</g>
<radialGradient id="c" cx="0" cy="0" r="819.2" gradientTransform="matrix(.081009 0 0 .081009 0 .05)" gradientUnits="userSpaceOnUse">
<stop stop-color="#ffffd5" offset="0"/>
<stop stop-color="#f2ff00" stop-opacity="0" offset="1"/>
</radialGradient>
<g id="a">
<path d="m50.35-50.3q20.85 20.85 20.9 50.35-0.05 29.45-20.9 50.35-20.85 20.85-50.35 20.9-29.5-0.05-50.35-20.9-20.9-20.9-20.85-50.35-0.05-29.5 20.85-50.35 20.85-20.9 50.35-20.9t50.35 20.9" fill="url(#c)"/>
</g>
<g id="j">
<path d="m0.5-67.3 1.45 2.45-1.85 1.55-1.45-2.85 1.85-1.15m-2.85 6.45-7.6 4.45-1.7-1.15 6.3-4.9 3 1.6m14.35-2.6-6.05-2.3h6.05v2.3m-7.05-21.6q-11.95 17.3-26.5 33.35l-1.2 9.9 9.2 10.05-10.7 3.85-5.6-2.7-6.3-7.2 6.3-3.45 7 5.2-8.3-15.05v-3.75l2.6 3.45v-7.75q23.55-14.75 29.5-24.35l4-1.55m-51.7 35.05 1.9 3-1.35 1.6h-1.65l1.1-4.6m1.6 8.55 6.9 10.9-2.95 1.9-4.1-3.1-0.4-0.9-1.4-8.15 1.95-0.65m30.15 109.3-0.1-0.05-3-15.15 5 11.7 4.9-4.25 2.4 1.55 2-1.1 1.75 1.75-1.45-3.5 0.7-0.1h1.5l1.95 4.75 1-1.25-0.6-2.35h3.25v6.15l-6.2 4.95-3.45-1.25-2.25 0.75 2.55-1.8v-2.15h-3.15l-3.85 2.45q-1.2-0.6-2.95-1.1m56.7-55.45-1.6 1.85-1.25-0.6 0.85-2.15 2 0.9m4.15 8.65h-2l-1.3-1.25 0.85-2.1h2.45v3.35m0.35 3.05 3.3 14.05q-3.7 13.05-4 25.95-6.45 6.45-14.75 8.85l8-11.15q-3.9 5-14 9.6l-3.75-1 2.75-4.9 11.45-6.25q4.45-9.8 4.7-19.95h3.05l3-8.15-1.75-7.05h2m7.9 22.65-1.7 8-4.45 6.05v-5.45q4-3.85 6.15-8.6" fill="#fedb18"/>
<path d="m24.85-44.1h2.25v4.35l-3.65-2.35 1.4-2m-24.2 22.3 2 0.9 10.95-1.1 2.8 1.45-12.35 3.95-0.95-1.15-1.3 1.15-14.55 1.3-17.95-4.3-7.2-7 1.75-2.75 19.45 6.05-4.4 2.4 11.45 2.15 10.3-3.05m19.9 18.45q2.65 3.4 3.3 6.1-1.4 0.7-2.85 1.45l4.6 2.7-2.3 4.45-0.35 0.7-5.55 0.9-0.7 1.1q-1.1 2.05-0.7 5.7l-3.3-2.45q-2.55-0.4-7.35 3.35l-1.8-0.7 2.85-6.3h3.3l3.85-10.05 5.45-2.4 1.55-4.55m10.65-2.2q-0.95-0.9-1.6-1.85l-3.85-16.5q-4.7-3.2-10.75-6.35l8.75 0.75v-7.3q5.75 8.55 7.3 17.65l2-13.35 2.15 2.15v7.6l-4 17.2m-1-33.1-1.05-9.2h1.45l1.95 3.85 4.65 3.7-0.95 4.85-6.05-3.2m-47.15 26.35v2.2l-1.4 1.05-1.85-1.7 3.25-1.55m-16.3 12.35 4.4-4.45 6.45-4.45 2 1.45-5.6 3.85-1.6 6q-2.25-1.65-5.65-2.4m21.95 80.6 2.7-1.45 3.1-5.1-1.7-1-3.55 3.3-2.9-2.3-1.35-6.25q1.75 0.5 2.95 1.1l3.85-2.45h3.15v2.15l-2.55 1.8 2.25-0.75 3.45 1.25 3.5 1.25-0.95 2.8h-2.45l-4.5 2.55h3.4v2.3l-4.9 1.45-3.5-0.65m9-43.8 1.55-1 6.3-1.75 0.55-0.1 1.65 8.1 2.7 3-1.2 4.65v0.85l-2.45 2.9-2.15 4.3h-3.85l-2.15-2.6-2.85-2.7q-2.5-6-2.9-12.45l4.8-3.2" fill="#fff148"/>
<path d="m0.65-21.8-12.25-5.65 1.5-1 8.75 2.85h7.45l3-2.6-12.3-3.15 12.3-1.85 5.9 2.95q6.05 3.15 10.75 6.35l3.85 16.5q0.65 0.95 1.6 1.85 2 1.85 5.4 3.45l-1.55 14.2-4.45 5-3.35 7.25q4.85 5.85 5.9 12.5-1.35 6 0 10.9l-1.5 1.75-1.95-3.9q-0.6-7.15-3.75-13.8-3.2-6.65-9.95-12.05-0.4-3.65 0.7-5.7l1.95 1.85 9.6-2 5.3-6.7-0.95-2.05-3.95 3.55 1.2-10.45-5.1-3 1.35-7.15-1.25-0.65-2.25 9.3 4.55 10.1-2.9 4.4-0.95 0.1 2.3-4.45-4.6-2.7q1.45-0.75 2.85-1.45-0.65-2.7-3.3-6.1l0.5-0.65 2.5-4.65 0.9-5.85q-2.6-3.05-8.05-6.05l-2.8-1.45-10.95 1.1-2-0.9m-20.65 32.7 1.15-0.55 5.9 1.7 2.65-1.85-2.3-1.35v-3.3l8.25-10.25-2.85-9.3h2.7l2.7 10.6-6 13.45 1.45 2.1 0.9-1.45 2.8 1.7-0.85 1.5-8.7 1.45v1.45l-9.45 2.95 3.8 4 2.95 1.4h-3.45l-7.35-2-0.5-0.15-2.25 1.55 2-4.4 3.75-2.25-1.15-1.4h-1.95l3.85-2.9 1.95-2.7m-6.3-7.4q3.35 3.2 3.5 8.85l-5.15 2.5q3.6-5.25 1.65-11.35m-8.15 27.55 5.55-4.85-0.2 4.25-3.45-0.2-1.5 0.45-0.05 0.05-0.35 0.3m16.7 10.45 0.8-3.15 1.55-1.35 4.05 2.3 9.05-2.45-7.95 5.3-7.5-0.65m23.85-7.5 4.45-1.1 4.15-3.95-3.6 10.55 1 7.5-1.65-1.9-2.7-3-1.65-8.1m11.2 26.5 3.55 3.75q-0.3 4.5-4.55 9h3.15l-6.45 2.45-10.35-0.65 1.45-2.9 9.45-3.35 5.6-4.85-1.85-3.45m-12.5 22.35 0.65 2.2q-5.55 0.15-12.25-2.5 5.9-1.3 10.65-2.95l2.7-0.35 1.25 2.8-3 0.8" fill="#fefd98"/>
<path d="m23.55-8.65-2.5 4.65-0.1-0.1 2.6-4.55m-0.25 20 0.95-0.1 2.9-4.4-4.55-10.1 2.25-9.3 1.25 0.65-1.35 7.15 5.1 3-1.2 10.45 3.95-3.55 0.95 2.05-5.3 6.7-9.6 2-1.95-1.85 0.7-1.1 5.55-0.9 0.35-0.7m-7.3 8.4q6.75 5.4 9.95 12.05 3.15 6.65 3.75 13.8l1.95 3.9-4.7 5.7-4.3-0.8q-2.35-2.25-8.4-4.95l-2.15-2.45-1-7.5 3.6-10.55-4.15 3.95-4.45 1.1v-0.05l-0.55 0.15-6.3 1.75-1.55 1-9.05 2.45-4.05-2.3-1.55 1.35-0.8 3.15h-0.2l-0.15 0.9q-0.7 4.8 0 10.25l3 15.15 0.1 0.05 1.35 6.25 2.9 2.3 3.55-3.3 1.7 1-3.1 5.1-2.7 1.45-4.25-0.8-6.35-6.65-0.3-0.25q-3.85-4.25-2.65-14.4 0.6-10.2-1.15-20.85-1.75-3.85-1.5-6.05l0.25-0.9-1.85-0.3 0.2-4.25-5.55 4.85q-3.05 2.45-7.35 4.65l-0.25 0.1q-4.1-1.7-9-4.6h-0.05q-2.5-1.85-1.95-3.4l0.75-2.25q0.5 0.05 1.75-0.65l0.4-0.45-0.1-0.55q-0.15-0.25-0.45-0.2-0.35 0-0.8 0.45l-0.25 0.2h-0.05v-0.05l0.1-0.15q-0.2-0.15-0.35-0.15 0.4-3.65-1.45-7.2-0.9-2.4-0.25-5v0.3l0.2 0.8 0.5 0.35q0.3 0 0.5-0.35l0.2-0.8-0.2-0.85q-0.2-0.3-0.5-0.3t-0.5 0.3l-0.1 0.2 0.85-2.2q1.45-2.9 4.6-6 7.3-4.85 14.95-3.2 3.4 0.75 5.65 2.4l1.3 1.05q1.95 6.1-1.65 11.35l5.15-2.5v0.1l0.4-0.25 2.4-1.3-1.95 2.7-3.85 2.9h1.95l1.15 1.4-3.75 2.25-2 4.4 2.25-1.55 0.5 0.15v0.9l1.9 1.65 3 0.6 2.3-0.05 1.8 0.3 5.55 2.35q3.55-1.5 5.6-2.75l-0.25-0.35q-0.25-1.75 4.3-5.95 2.9-0.5 5.05 0.1l1.8 0.7q4.8-3.75 7.35-3.35l3.3 2.45m-63.7-13.55q-0.35 0.55-0.35 1.3l0.35 1.35 0.75 0.55 0.8-0.55q0.3-0.55 0.3-1.35 0-0.75-0.3-1.3-0.35-0.55-0.8-0.55t-0.75 0.55m7.5 12.2q-0.2-0.3-0.5-0.35-0.35-0.05-2.75 1.85l-2.55 1.7q-0.15-0.2-0.5-0.3-0.35-0.2-0.6 0l-0.3 0.45 0.65 0.9q0.7 0.6 3.65-1.4l3-2.3-0.1-0.55m-6.55 13.1-0.1 0.4 0.2 0.3 0.4 0.1 3-0.4 0.3-0.2 0.1-0.35-0.2-0.35-0.35-0.1-3 0.4q-0.25 0.05-0.35 0.2" fill="#fff"/>
<path d="m-47.7 6.2q0.3-0.55 0.75-0.55t0.8 0.55q0.3 0.55 0.3 1.3 0 0.8-0.3 1.35l-0.8 0.55-0.75-0.55-0.35-1.35q0-0.75 0.35-1.3m-5.95 5.25 0.1-0.2q0.2-0.3 0.5-0.3t0.5 0.3l0.2 0.85-0.2 0.8q-0.2 0.35-0.5 0.35l-0.5-0.35-0.2-0.8v-0.3l0.1-0.35" fill="#f7e90e"/>
<path d="m-51.75 24.35 0.25-0.2q0.45-0.45 0.8-0.45 0.3-0.05 0.45 0.2l0.1 0.55-0.4 0.45q-1.25 0.7-1.75 0.65h-0.55l-0.5-0.2-0.25-0.55 0.1-0.3 1.7-0.15h0.05m11.55-5.95 0.1 0.55-3 2.3q-2.95 2-3.65 1.4l-0.65-0.9 0.3-0.45q0.25-0.2 0.6 0 0.35 0.1 0.5 0.3l2.55-1.7q2.4-1.9 2.75-1.85 0.3 0.05 0.5 0.35m-6.55 13.1q0.1-0.15 0.35-0.2l3-0.4 0.35 0.1 0.2 0.35-0.1 0.35-0.3 0.2-3 0.4-0.4-0.1-0.2-0.3 0.1-0.4" fill="#cb9106"/>
<path d="m-52.05 24q0.15 0 0.35 0.15l-0.1 0.15-0.25-0.3" fill="#ff6060"/>
<path d="m-29.1 30.45 1.85 0.3-0.25 0.9q-0.25 2.2 1.5 6.05 1.75 10.65 1.15 20.85-4.45-7.9-6.85-17.8-0.4-3-1.1-5.4-0.6-2.05 0-4.3l0.25-0.8 3.45 0.2" fill="#fff473"/>
<path d="m5.55 34.1 0.55-0.15v0.05l-0.55 0.1" fill="#ffc8c8"/>
</g>
<g id="i">
<path d="m-9.65-44.35 10.35 16.55-15.3-5.2 5.05 8.9 20.75-3.75-20.85-16.5" fill="#ff9"/>
<path d="m-9.65-44.35 10.35 16.55-15.3-5.2 5.05 8.9 20.75-3.75-20.85-16.5" fill="none" stroke="#dfa72b"/>
<path d="m40.6-2q4.5-3.95 6.3-8.4 1.9-4.35-0.1-6.55-1.95-2.4-6.65-1.3-4.6 1.2-9.1 5.15-4.55 3.85-6.45 8.2-1.8 4.45 0.2 6.8 1.95 2.25 6.55 1.05 4.7-1.1 9.25-4.95" fill="#fbee53"/>
<path d="m40.6-2q4.5-3.95 6.3-8.4 1.9-4.35-0.1-6.55-1.95-2.4-6.65-1.3-4.6 1.2-9.1 5.15-4.55 3.85-6.45 8.2-1.8 4.45 0.2 6.8 1.95 2.25 6.55 1.05 4.7-1.1 9.25-4.95" fill="none" stroke="#dfa72b"/>
<path d="m36.9 34.45q3.3-1.95 5.5-6.05t2.05-7.95q-0.25-3.85-2.85-5.25-2.55-1.4-5.9 0.55t-5.55 6.05-2 7.95 2.75 5.25q2.6 1.4 6-0.55" fill="#bf7720"/>
<path d="m36.9 34.45q3.3-1.95 5.5-6.05t2.05-7.95q-0.25-3.85-2.85-5.25-2.55-1.4-5.9 0.55t-5.55 6.05-2 7.95 2.75 5.25q2.6 1.4 6-0.55" fill="none" stroke="#7d4502"/>
<path d="m-12-24.95q-2.35 5.85-2.4 12.7 0 13.95 9.95 23.85 9.9 9.95 23.9 9.95 9.05 0 16.45-4.15-1.3 3.05-3.15 5.85l5.45-1.8-2.05-4.15-0.25 0.1 0.1-0.35 0.15-0.45q2.05-5.5 2.05-11.8 0-14.05-9.9-24-9.95-9.9-23.9-9.9-9.1 0-16.4 4.15m6.5 25.85-0.15-0.15q-3.7-3.1-3.7-7.5 0-4.35 3.7-7.5 3.65-3.15 8.85-3.15t8.9 3.15q3.6 3.15 3.6 7.5 0 2.15-0.85 4-0.9 1.9-2.75 3.5-3.7 3.15-8.9 3.15-5.15 0-8.7-3m33-2.75q-1.7-1.9-3-4.6-1.95-4.05-2-7.6-0.1-3.6 1.85-4.55 1.95-0.9 4.7 1.3 2.8 2.25 4.75 6.3 2 4 2.1 7.6l-0.3 2.3q-0.4 1.6-1.65 2.2-1.9 0.9-4.7-1.25-0.75-0.2-1.35-0.95l-0.3-0.4-0.1-0.35" fill="#ff9"/>
<path d="m14.85-2.75q0.85-1.85 0.85-4 0-4.35-3.6-7.5-3.7-3.15-8.9-3.15t-8.85 3.15q-3.7 3.15-3.7 7.5 0 4.4 3.7 7.5l0.15 0.15q3.55 3 8.7 3 5.2 0 8.9-3.15 1.85-1.6 2.75-3.5m20.75 1.65 0.3-2.3q-0.1-3.6-2.1-7.6-1.95-4.05-4.75-6.3-2.75-2.2-4.7-1.3-1.95 0.95-1.85 4.55 0.05 3.55 2 7.6 1.3 2.7 3 4.6l0.1 0.35 0.3 0.4q0.6 0.75 1.35 0.95 2.8 2.15 4.7 1.25 1.25-0.6 1.65-2.2" fill="#fff"/>
<path d="m32.75 23.25q1.85-2.8 3.15-5.85-7.4 4.15-16.45 4.15-14 0-23.9-9.95-9.95-9.9-9.95-23.85 0.05-6.85 2.4-12.7-4 2.25-7.55 5.75-9.95 9.95-9.95 24 0 13.95 8.95 22.5 9.05 8.55 23.05 8.8 14.05 0.25 21.25-4.9 7.1-5.15 9-7.95l-23.65 5.7 23.65-5.7" fill="#fbee53"/>
<path d="m14.85-2.75q0.85-1.85 0.85-4 0-4.35-3.6-7.5-3.7-3.15-8.9-3.15t-8.85 3.15q-3.7 3.15-3.7 7.5 0 4.4 3.7 7.5l0.15 0.15m33-2.75 0.1 0.35" fill="none" stroke="#dfa72b"/>
<path d="m32.75 23.25-23.65 5.7m26.8-11.55 0.1-0.35 0.15-0.45q2.05-5.5 2.05-11.8 0-14.05-9.9-24-9.95-9.9-23.9-9.9-9.1 0-16.4 4.15-4 2.25-7.55 5.75-9.95 9.95-9.95 24 0 13.95 8.95 22.5 9.05 8.55 23.05 8.8 14.05 0.25 21.25-4.9 7.1-5.15 9-7.95l5.45-1.8-2.05-4.15m-0.55-18.4 0.3-2.3q-0.1-3.6-2.1-7.6-1.95-4.05-4.75-6.3-2.75-2.2-4.7-1.3-1.95 0.95-1.85 4.55 0.05 3.55 2 7.6 1.3 2.7 3 4.6" fill="none" stroke="#dfa72b"/>
<path d="m8.9-12.7q-2.5 0-4.35 1.7-1.75 1.65-1.75 3.95l0.2 1.5q0.45 1.35 1.55 2.5 1.85 1.65 4.35 1.65 2.45 0 4.25-1.65 1.8-1.7 1.75-4l-0.05-1.05q-0.3-1.65-1.7-2.9-1.8-1.7-4.25-1.7m20.45 2.65q-0.65-1.95-1.95-3-1.1-1.1-2.15-0.65-1 0.3-1.35 1.9-0.15 1.6 0.5 3.55 0.45 1.15 1 1.95l0.4 0.5 0.5 0.5q1.05 0.85 1.85 0.8l0.4-0.05q1.05-0.45 1.25-2.05 0.25-1.4-0.3-3.1l-0.15-0.35"/>
<path d="m-38.75 10.35q5.15 3.05 9.95 3.45 4.75 0.4 6.3-2.15 1.65-2.6-0.85-6.7-2.55-4.05-7.75-7.15-5-3.15-9.7-3.6-4.85-0.35-6.45 2.25-1.6 2.55 1 6.6 2.45 4.1 7.5 7.3" fill="#fbee53"/>
<path d="m-38.75 10.35q5.15 3.05 9.95 3.45 4.75 0.4 6.3-2.15 1.65-2.6-0.85-6.7-2.55-4.05-7.75-7.15-5-3.15-9.7-3.6-4.85-0.35-6.45 2.25-1.6 2.55 1 6.6 2.45 4.1 7.5 7.3" fill="none" stroke="#dfa72b"/>
<path d="m3.55 38.9q0.5-3.85-1.45-8.1t-5.15-6.4-5.85-0.95-3.15 5.05 1.45 8.1 5.15 6.4q3.25 2.15 5.9 0.95t3.1-5.05" fill="#bf7720"/>
<path d="m3.55 38.9q0.5-3.85-1.45-8.1t-5.15-6.4-5.85-0.95-3.15 5.05 1.45 8.1 5.15 6.4q3.25 2.15 5.9 0.95t3.1-5.05" fill="none" stroke="#7d4502"/>
</g>
<radialGradient id="b" cx="0" cy="0" r="819.2" gradientTransform="matrix(.04953 0 0 .04953 62.95 57.15)" gradientUnits="userSpaceOnUse">
<stop stop-color="#fff" offset="0"/>
<stop stop-color="#fff" offset=".15294"/>
<stop stop-color="#f2ff00" stop-opacity=".52157" offset=".18431"/>
<stop stop-color="#dfff00" stop-opacity="0" offset="1"/>
</radialGradient>
<g id="h">
<path d="m91.25 85.4q-11.7 11.75-28.25 11.75-16.6 0-28.35-11.75-11.7-11.7-11.65-28.25-0.05-16.6 11.65-28.3 11.75-11.7 28.35-11.7 16.55 0 28.25 11.7t11.75 28.3q-0.05 16.55-11.75 28.25" fill="url(#b)"/>
<path d="m151.55 94.55q0-18.5-5.4-34.3 17.75 22.65 17.75 54.1 0 33.1-19.7 56.45t-47.6 23.4q-17.9-0.05-32.45-9.6l10.8 0.8q31.75 0 54.2-26.6 22.4-26.6 22.4-64.25" fill="#fffac1" fill-opacity=".46275"/>
</g>
<filter id="g">
<feColorMatrix in="SourceGraphic" result="cxform" values="1.0 0.0 0.0 0.0 0.0 0.0 1.0 0.0 0.0 0.0 0.0 0.0 1.0 0.0 0.0 0.0 0.0 0.0 0.66015625 0.0"/>
<feComposite in2="SourceGraphic" operator="in" result="color-xform"/>
</filter>
<filter id="f">
<feColorMatrix in="SourceGraphic" result="cxform" values="1.0 0.0 0.0 0.0 0.0 0.0 1.0 0.0 0.0 0.0 0.0 0.0 1.0 0.0 0.0 0.0 0.0 0.0 0.80078125 0.0"/>
<feComposite in2="SourceGraphic" operator="in" result="color-xform"/>
</filter>
<filter id="e">
<feColorMatrix in="SourceGraphic" result="cxform" values="0.80078125 0.0 0.0 0.0 0.19921875 0.0 0.80078125 0.0 0.0 0.19921875 0.0 0.0 0.80078125 0.0 0.12109375 0.0 0.0 0.0 1.0 0.0"/>
<feComposite in2="SourceGraphic" operator="in" result="color-xform"/>
</filter>
</defs>
<use xlink:href="#k"/>
<use transform="matrix(.70998 0 0 .70998 61.25 122.7)" xlink:href="#a"/>
<use transform="matrix(.57314 0 0 .57314 102.45 143.75)" filter="url(#g)" xlink:href="#a"/>
<use transform="matrix(.57314 0 0 .86292 114.8 117.9)" xlink:href="#a"/>
<use transform="translate(94.4 108.5)" filter="url(#f)" xlink:href="#j"/>
<use transform="matrix(1.1577 0 0 1.1577 95.8 85.8)" filter="url(#e)" xlink:href="#i"/>
<use xlink:href="#h"/>
</svg>
