<?xml version="1.0" encoding="UTF-8"?>
<svg width="91px" height="99px" version="1.1" viewBox="229.7 149.6 91.25 98.75" xmlns="http://www.w3.org/2000/svg" xmlns:xlink="http://www.w3.org/1999/xlink">
<defs>
<g id="a">
<path d="m296.35 225.05q-9.75 10.2-20.9 10.05t-25.05-13.7q-13.95-13.55-11.95-26.25 2.05-12.7 14.35-21.5 12.25-8.8 25.2-11.8 12.95-2.95 23.55 9.65 10.55 12.6 7.6 27.95-3.05 15.35-12.8 25.6" fill="#ffa611"/>
<path d="m294.75 181.5q-6.15-9.75-4.3-10.55 1.9-0.8 7.4 3.8 5.45 4.6 7.25 12.5t-1.25 14.5q-3.15 6.55-6.65 6.35-3.5-0.15-3-4.6 0.45-4.45 3.55-8.3 3.2-3.95-3-13.7" fill="#f9ec4f"/>
<path d="m263.4 221.7q7.1 4.6 15.65 4.95l2.55-1.6 3.6-2.65q5.6-3.85 11.75-5.65 4.65-1.35 7.95-0.75 2.85 0.55 4 2.5l0.5 1.4v1.15l-0.45 1.45q-1.05 2.25-3.9 3.85-4.65 2.55-12.4 2l-6.8-0.8-6.8-0.9q-17.7 7.1-31-7.35" fill="none" stroke="#e5e2db" stroke-width=".5"/>
<path d="m248.05 219.3-0.2-0.3" fill="none" stroke="#e5e2db" stroke-width=".5"/>
<path d="m249.1 212.9 0.85-1.85-6.75 4.05v1.15h0.1l2.05 2.45 4.25-6.05-0.5 0.25m-4.85 8-3.75-4 53.05-47.15-49.3 51.15" fill="#cac4b7"/>
<path d="m243.3 216.25h-0.1v-1.15l6.75-4.05-0.85 1.85-5.8 3.35m50.25-46.5 6.8-6.05-55.3 58.05-0.8-0.85 49.3-51.15" fill="#968a72"/>
<path d="m249.1 212.9 0.5-0.25-4.25 6.05-2.05-2.45 5.8-3.35m-4.85 8-3.75-4 53.05-47.15 6.8-6.05-55.3 58.05-0.8-0.85" fill="none" stroke="#000" stroke-opacity=".6" stroke-width=".5"/>
<path d="m280.2 183.15-0.35 0.2-0.95 8.5-1.8-7.4-11.35 6.2 10.9-8.4-11.1-1.95 12.1-0.95h0.1l2.25-12.95 0.3 13.25 19.05-0.7-19.15 4.2m6.05 7.1-3.6-2.65-1.3-2.8 2 1.15 2.9 4.3" fill="#fff" fill-opacity=".50196"/>
<path d="m246.8 217.25q-5.45-7.65-6.75-16.45-1.1-7.4 0.3-21.3" fill="none" stroke="#e5e2db" stroke-width=".5"/>
<path d="m300.1 227.95q10.6-11.15 13.95-27.8 3.2-16.7-8.3-30.4-11.5-13.65-25.55-10.45-14.1 3.25-27.4 12.8-13.35 9.55-15.6 23.35-2.15 13.8 13 28.55 15.1 14.7 27.2 14.9 12.15 0.15 22.7-10.95m1.85 7.2q-11.7 13.2-25.2 13-13.45-0.2-30.25-17.7-16.8-17.55-14.35-33.95t17.25-27.75q14.75-11.4 30.4-15.2 15.6-3.95 28.35 12.4 12.8 16.25 9.15 36.15-3.6 19.85-15.35 33.05" fill="#b97917" fill-opacity=".6"/>
<path d="m301.95 235.15q-11.7 13.2-25.2 13-13.45-0.2-30.25-17.7-16.8-17.55-14.35-33.95t17.25-27.75q14.75-11.4 30.4-15.2 15.6-3.95 28.35 12.4 12.8 16.25 9.15 36.15-3.6 19.85-15.35 33.05" fill="none" stroke="#8b5c1d" stroke-width=".7"/>
<path d="m300.1 227.95q-10.55 11.1-22.7 10.95-12.1-0.2-27.2-14.9-15.15-14.75-13-28.55 2.25-13.8 15.6-23.35 13.3-9.55 27.4-12.8 14.05-3.2 25.55 10.45 11.5 13.7 8.3 30.4-3.35 16.65-13.95 27.8" fill="#ffa611" fill-opacity=".6"/>
<path d="m264.45 181.1q-1.25 0.7-2.7 2.4-1 1.25-1.2 0.95-0.45-0.75-0.2-2.2 0.25-1.8 1.45-2.7 2.95-2.2 7.1-3.8 4.25-1.65 8.2-2.15 1.65-0.15 3.85 0.85 1.95 0.9 2.35 1.65 0.65 1.15-2.25 1.5l-4.1 0.1-5.1 0.45q-2.3 0.5-4.2 1.35l-3.2 1.6" fill="#fff" fill-opacity=".4"/>
<path d="m297.5 232.2q-7.25 8.3-14.8 12.5-3 1.75-8.2-0.05-4.45-1.7-5.85-3.65-2.1-3.2 3.45-6.4 0.8-0.5 7.95-3 6.1-2.15 9.75-4.9 4.3-3.25 7.35-7.2l5.15-7.55q2.05-2.9 3.55-9.35 1.2-4.8 1.8-3.85 1.45 2.15 2.1 6.95 0.75 5.85-1 9.5-4.25 9.2-11.25 17" fill="#8b5c1d" fill-opacity=".6"/>
<path d="m248.95 184.85q-3.1 2.55-6.2 8.75-2.35 4.55-2.9 3.5-1.35-2.35-1.25-7.2 0.15-5.9 3.1-9.25 7-8.4 17.1-15.05 10.55-7.05 20.65-10.05 4.05-1.3 10.1 1.35 5.2 2.35 6.45 4.55 2 3.5-5.45 5.75l-10.4 1.7q-7.95 1.25-12.95 3.35-5.9 2.5-10.45 6-0.55 0.35-7.8 6.6" fill="#fff" fill-opacity=".4"/>
</g>
</defs>
<use xlink:href="#a"/>
</svg>
