<?xml version="1.0" encoding="UTF-8"?>
<svg width="116px" height="115px" version="1.1" viewBox="216.3 142.85 116.15 115.25" xmlns="http://www.w3.org/2000/svg" xmlns:xlink="http://www.w3.org/1999/xlink">
<defs>
<g id="a">
<path d="m264.5 173.35q-0.8 1.1-0.8 2.3 0 3.45 7.05 5.9 5.55 1.95 12.9 2.35l4.15 0.15 10.4-0.8 6.65-1.7q5.45-1.85 6.7-4.35 1.3 5.6-0.25 12.9-0.95 4.2-2.65 8.2l0.05 0.65q0.05 1.1-0.55 1.75l-0.4 0.3q-3.5 6.9-9.4 13.35l-22.8-6-9.75-2.55-3.1-12.9-6.3-12.5q4.25-4.05 8.1-7.05m9.65-6.25 0.4 1.5-3.8 1.05-2.75 1.15q3.2-2.25 6.15-3.7m23.25 36q-0.7-0.7-1.65-0.7-1 0-1.65 0.7-0.7 0.7-0.7 1.65t0.7 1.65q0.65 0.7 1.65 0.7 0.95 0 1.65-0.7t0.7-1.65-0.7-1.65m-22.1-4q1.9 0 3.3-1.35 1.4-1.4 1.4-3.35 0-1.9-1.4-3.25-1.4-1.4-3.3-1.45-1.95 0.05-3.3 1.45-1.4 1.35-1.4 3.25 0 1.95 1.4 3.35 1.35 1.35 3.3 1.35m13.3-10.85q-0.05-0.65-0.45-1.05-0.45-0.45-1.05-0.45-0.65 0-1.05 0.45-0.45 0.4-0.45 1.05 0 0.6 0.45 1.05 0.4 0.45 1.05 0.45l1.05-0.45q0.4-0.45 0.45-1.05" fill="#919a11"/>
<path d="m264.5 173.35q-3.85 3-8.1 7.05l6.3 12.5q-12.1-6.15-7.4-17.95 13.85-13.25 29.85-16.75 8.5-1.85 15.1-0.4l-0.65 0.65 0.85 0.9 1.2-1.2q5.6 1.6 9.75 5.75 4.45 4.4 5.95 10.6l-1.2 1.15 0.7 0.75 0.75-0.75q1.2 6.35-0.55 14.45-3.5 15.75-16.4 29.5l-25.1-11.25 22.8 6q5.9-6.45 9.4-13.35l0.4-0.3q0.6-0.65 0.55-1.75 1.95-4.35 2.95-8.9 1.7-7.7 0.15-13.5l0.15-0.9q-0.05-1.8-1.8-3.25-1.3-2.4-3.25-4.35-5.9-5.9-15.4-5.55l-6.55 0.8-0.4 0.1q-4.6 0.95-8.95 2.9-0.8 0.1-1.25 0.55l-0.2 0.25q-2.95 1.45-6.15 3.7-2.45 1.15-3.5 2.55" fill="#e8eba2"/>
<path d="m311.55 177.2q-1.25 2.5-6.7 4.35l-6.65 1.7-10.4 0.8-4.15-0.15q-7.35-0.4-12.9-2.35-7.05-2.45-7.05-5.9 0-1.2 0.8-2.3 1.05-1.4 3.5-2.55l2.75-1.15 3.8-1.05-0.4-1.5 0.2-0.25q0.45-0.45 1.25-0.55l-0.15 0.1 3.85 1.35 8.5-0.5q10-0.05 17.05 2.4 2.85 1 4.55 2.2l0.75 0.55q1.75 1.45 1.8 3.25l-0.15 0.9-0.25 0.65m-11.5-3.5q-0.7 0.7-0.75 1.6-0.1 0.85 0.2 0.9l1.5 0.15h2.15q0.9-0.05 0.9-1t-0.7-1.65-1.65-0.7q-1 0-1.65 0.7m-2.65 29.4q0.7 0.7 0.7 1.65t-0.7 1.65-1.65 0.7q-1 0-1.65-0.7-0.7-0.7-0.7-1.65t0.7-1.65q0.65-0.7 1.65-0.7 0.95 0 1.65 0.7m-8.8-14.85q-0.05 0.6-0.45 1.05l-1.05 0.45q-0.65 0-1.05-0.45-0.45-0.45-0.45-1.05 0-0.65 0.45-1.05 0.4-0.45 1.05-0.45 0.6 0 1.05 0.45 0.4 0.4 0.45 1.05m-13.3 10.85q-1.95 0-3.3-1.35-1.4-1.4-1.4-3.35 0-1.9 1.4-3.25 1.35-1.4 3.3-1.45 1.9 0.05 3.3 1.45 1.4 1.35 1.4 3.25 0 1.95-1.4 3.35-1.4 1.35-3.3 1.35" fill="#b3bf15"/>
<path d="m309.4 171.85q-1.7-1.2-4.55-2.2-7.05-2.45-17.05-2.4l-8.5 0.5-3.85-1.35 0.15-0.1q4.35-1.95 8.95-2.9l0.4-0.1 6.55-0.8q9.2-0.15 15.05 5.65 1.7 1.65 2.85 3.7m-9.35 1.85q0.65-0.7 1.65-0.7 0.95 0 1.65 0.7t0.7 1.65-0.9 1h-2.15l-1.5-0.15q-0.3-0.05-0.2-0.9 0.05-0.9 0.75-1.6" fill="#dbe070"/>
<path d="m262.7 192.9 3.1 12.9 9.75 2.55 22.8 6m-43.05-39.4q-4.7 11.8 7.4 17.95m12.85 15.45 25.1 11.25" fill="none" stroke="#000" stroke-opacity=".8"/>
<path d="m298.35 214.35q5.9-6.45 9.4-13.35m-22.8-37.7 6.55-0.8q9.5-0.35 15.4 5.55 1.95 1.95 3.25 4.35m1.65 4.15q1.55 5.8-0.15 13.5-1 4.55-2.95 8.9" fill="none" stroke="#f1f3cb"/>
<path d="m300.25 157.8q-6.6-1.45-15.1 0.4-16 3.5-29.85 16.75m45.35 44.65q12.9-13.75 16.4-29.5 1.75-8.1 0.55-14.45" fill="none" stroke="#919a11"/>
<path d="m282.35 160.55q6.15-2.2 11.4-1.2 5.25 1.05 6.55 4.7 1.3 3.6-3.9 1.5-5.25-2.15-10.3 6.45-5.1 8.55-13.85 10.4-8.75 1.8-5.95-4.7 2.75-6.55 6.35-10.75 3.55-4.25 9.7-6.4" fill="#fff" fill-opacity=".6"/>
<path d="m296.35 214.05 1-0.8 9.3-8.3-5.35 10.05-0.9 1.4-12.95 19.75-3.5 1.9 1.25-0.05-1.2 1.2 0.2-0.9-6.85 7.95-9.4 5.2-3.85 2.15-1.05-1.75 1.05 1.75-3.5 1.9-3.9-3.7 6.5-9-8.85 6.75-8.55-8.35 6.45-6.35 2.65 2.85-2.65-2.85 26.6-26.6 3.6-2.3 13.25-8.65-10.65 16.55 10.1-8.9-4.35 7.55-7.4 12.8 12.95-11.25m-54.9 22.8-2.65-2.65 17.6-20 4.15-4.75 2.65 2.05-2.65-2.05 6.4-7.2 1-1.6 14.55-6.05-4.65 9.35-0.8 1.5-35.6 31.4m-5.85-5.85-0.25-0.25-11.35-11.65-0.15-0.15q-7.55-7.45-6.1-9.7l20.5-17.9-0.45-0.05 0.75-0.75-0.15-0.15 17.05-18.85 13.75-14.45-6.15 10.75-0.9 0.9 0.3 0.3-3.75 6.45-4.85 5.75-11.1 13-1.65-1.55 1.65 1.55-3.75 4.35-0.85 1.05-5.4 7.7 1.35 1.95 29-25.9 2.8-1.6 10.65-9.35-9.15 17.55-2.7 4.5-29.1 36.5m30.45 17.35 1.9 3.1-1.9-3.1m-7.85-32.15-1.8-2 1.8 2m20.45 9.45-1.9-3.4-1.1-2.1 1.1 2.1 8.3-8.4-8.3 8.4 1.9 3.4m-18.8 7.1-2.3-3.2 2.3 3.2m-20.85-34.15-2.2-2.2 2.2 2.2m29.65 31.75 4.1-4.1 0.9 1.2-0.9-1.2-4.1 4.1m8.1-8.1-4 4-2.1-2.9 2.1 2.9 4-4m-52.75-3.15 5.75-5.85 1.9 1.9-1.9-1.9-5.75 5.85m-0.15-0.15 5.05-6.55-1.4-1.4 1.4 1.4-5.05 6.55m7.95-12.95 0.95 1.35-3.85 5.05 0.85 0.85 4.35-3.95 3.05 4.35-3.05-4.35-4.35 3.95-0.85-0.85 3.85-5.05-0.95-1.35m51.6 19.3-20.2 17.5 20.2-17.5" fill="#b5cc33"/>
<path d="m290.8 212.5 6.2-1.6-0.65 3.15-12.95 11.25 7.4-12.8m9.75 3.95 3.3 3.3-16.4 16.4 12.95-19.75 0.15 0.05m-46.7-35.2 12.8-7.1-3.3 9.1-0.25 0.15-29 25.9-1.35-1.95 5.4-7.7 0.85-1.05 2.45 2.45-2.45-2.45 3.75-4.35 1.65 1.45-1.65-1.45 11.1-13" fill="#a5b92f"/>
<path d="m277.35 246.25-11.85 11.85q-3-0.8-4.9-2.6l3.5-1.9 1 1.7-1-1.7 3.85-2.15 1.6 2.6-1.6-2.6 9.4-5.2m-20.65 5.55-2.35-2.25 8.85-6.75-6.5 9m-10.9-10.6-4.35-4.35 35.6-31.4 0.8-1.5 6.85-4.25-2.25 6.25-3.6 2.3-26.6 26.6-1.35-1.45 1.35 1.45-6.45 6.35m10.6-13.3 1.15 1.65-1.15-1.65" fill="#97aa2b"/>
<path d="m238.8 234.2-3.2-3.2 29.1-36.5 2.7-4.5 0.55-0.35 4.2-1.6 5.85-3.55-3.2 5-0.45 0.75-6.4 10.4-1 1.6-6.4 7.2-0.7-0.6 0.7 0.6-4.15 4.75-2.15-2.35 2.15 2.35-17.6 20" fill="#889926"/>
<path d="m290.8 212.5 6.2-1.6-0.65 3.15 1-0.8 9.3-8.3-5.35 10.05-0.75 1.45m-38.1-47.4-3.75 6.45-4.85 5.75 12.8-7.1-3.3 9.1-0.25 0.15 2.8-1.6 10.65-9.35-9.15 17.55 0.55-0.35 4.2-1.6 5.85-3.55-3.2 5-0.45 0.75-6.4 10.4 14.55-6.05-4.65 9.35 6.85-4.25-2.25 6.25 13.25-8.65-10.65 16.55 10.1-8.9-4.35 7.55-7.4 12.8 12.95-11.25m4.95 0.95-0.9 1.4-12.95 19.75m-23.35 17.45 1 1.7m-2.05-3.45 1.05 1.75 3.85-2.15-1.9-3.1m1.9 3.1 1.6 2.6m-1.6-2.6 9.4-5.2m-16.75 9.25 3.5-1.9m10.7-64.1-0.45 0.75m-6.95-0.25-2.7 4.5-29.1 36.5m24.95-21.55 2.65 2.05m-2.65-2.05 6.4-7.2 1-1.6m-8.1 8.2 0.7 0.6-4.15 4.75 1.8 2m19.65-12.25-0.8 1.5-35.6 31.4m41-30.9-3.6 2.3-21.3 21.3 2.3 3.2m15.8-12.6 1.1 2.1 8.3-8.4m-8.3 8.4 1.9 3.4m-35.9-31.4 1.65 1.45m-3.3-3 1.65 1.55 11.1-13m-14.85 17.35-0.85 1.05-5.4 7.7 1.35 1.95 29-25.9m-24.1 15.2 2.45 2.45m-4.65-4.65 2.2 2.2 3.75-4.35m-10 13.1-3.85 5.05 0.85 0.85 4.35-3.95 3.05 4.35m-4.4-6.3-0.95-1.35m-4.3 5 1.4 1.4-5.05 6.55m7.8-3.8-1.9-1.9-5.75 5.85m46.65 4.25 2.1 2.9 4-4m-3.1 5.2-0.9-1.2-4.1 4.1m-16.4 4.5 2.65 2.85m-4-4.3 1.35 1.45 5.3-5.3-1.15-1.65m-2.15-16.05 2.15 2.35-17.6 20m17.9 17.6 6.5-9-8.85 6.75m-2.1-14.7-6.45 6.35m17.4 1.6 20.2-17.5" fill="none" stroke="#000" stroke-opacity=".6" stroke-width=".5"/>
<path d="m300.55 216.45 3.3 3.3" fill="none" stroke="#000" stroke-opacity=".6" stroke-width=".5"/>
<path d="m287.45 236.15-3.5 1.9m0.25 0.25-6.85 7.95m-31.55-5.05-4.35-4.35m-1.65-1.65-4.45-4.45m20.1-59.2 13.75-14.45-6.15 10.75" fill="none" stroke="#000" stroke-opacity=".6"/>
<path d="m303.85 219.75-16.4 16.4m-10.1 10.1-11.85 11.85q-3-0.8-4.9-2.6l-3.9-3.7-2.35-2.25-8.55-8.35m-4.35-4.35-1.65-1.65m-4.45-4.45-11.35-11.65-0.15-0.15q-7.55-7.45-6.1-9.7l20.5-17.9m0.15-0.95 17.05-18.85" fill="none" stroke="#000" stroke-opacity=".6"/>
<path d="m276.8 233.5 7.4 4.5q2.1 3.4-1.8 3.2l-0.35-0.25-7.95-4.95q2.95 0.35 2.7-2.5m-41.25-39.45-0.05-0.15q-0.4-3.9 3.1-1.8 10.05 18.55 25.9 32.2l-0.05 0.05 0.8 0.8 0.15-0.15q4 3.4 8.45 6.45 0.9 3.1-2.55 2.65-22.6-16.2-35.75-40.05" fill="#ad9d2c"/>
<path d="m276.8 233.5q0.25 2.85-2.7 2.5l-1.7 1.6-3.85 3.35q-3.8 3.5-6.7 7.8l-1.75-0.35q2.2-4.7 5.95-9.05 2-2.4 4.6-4.6l0.65-0.65q3.45 0.45 2.55-2.65l2.95 2.05" fill="#675e1b"/>
<path d="m274.1 236 7.95 4.95-3.95 4.65-9.55-4.65 3.85-3.35 1.7-1.6m-8.05 3.35-9.95-8.15 1.05-1.65-2.6-3.1-1.4 0.4-3.8-4.7 0.15-1.15-2.85-2.95-1.05 0.35-8.85-11.45 1.45-1.35-2.05-2.15-0.65 0.15-0.15 0.05-0.05-0.15-3.95-6.35 4.2-3.1q13.15 23.85 35.75 40.05l-0.65 0.65q-2.6 2.2-4.6 4.6" fill="#778622"/>
<path d="m284.2 238-7.4-4.5m-11.4-8.5q4 3.4 8.45 6.45l2.95 2.05" fill="none" stroke="#ad9d2c"/>
<path d="m282.4 241.2q3.9 0.2 1.8-3.2m-24.1 10.4q2.2-4.7 5.95-9.05m5.25-5.25-0.65 0.65q-2.6 2.2-4.6 4.6" fill="none" stroke="#ad9d2c"/>
<path d="m274.1 236 7.95 4.95 0.35 0.25m-46.85-47.15-0.05-0.15m35.8 40.2q-22.6-16.2-35.75-40.05" fill="none" stroke="#675e1b"/>
<path d="m238.6 192.1q10.05 18.55 25.9 32.2" fill="none" stroke="#d5c557"/>
<path d="m235.5 193.9q-0.4-3.9 3.1-1.8" fill="none" stroke="#d5c557"/>
<path d="m235.5 203.6-0.15 0.05" fill="none" stroke="#919a11"/>
<path d="m235.35 203.65-0.05-0.15" fill="none" stroke="#6f0"/>
<path d="m325.3 165.3 1.75 1.75q-7.1 2.5-9.6 9.6l-3.15-3.15 11-8.2m-23.5-4.3-2.85-2.85q6.75-2.85 9.6-9.6l1.45 1.45-8.2 11" fill="#e8eba2"/>
<path d="m315.35 142.85 3.55 3.55-3.55 5.25 6.1-1.2 1.25-0.25 9.75 9.75-7.15 5.35-15.3-15.3 5.35-7.15" fill="#935926"/>
<path d="m314.3 173.5-2.7 2-11.85-11.85 2.05-2.65 12.5 12.5" fill="#ad9d2c"/>
<path d="m318.9 146.4 2.55 4.05-6.1 1.2 3.55-5.25" fill="#503114"/>
<path d="m301.8 161 8.2-11 15.3 15.3-11 8.2-12.5-12.5" fill="#bb9335"/>
<path d="m332.45 159.95-7.15 5.35m-15.3-15.3 5.35-7.15" fill="none" stroke="#000" stroke-opacity=".8"/>
<path d="m315.35 142.85 3.55 3.55m3.8 3.8 9.75 9.75" fill="none" stroke="#000" stroke-opacity=".8"/>
<path d="m318.9 146.4 2.55 4.05 1.25-0.25" fill="none" stroke="#000" stroke-opacity=".6"/>
<path d="m301.8 161 8.2-11m15.3 15.3-11 8.2-12.5-12.5" fill="none" stroke="#63672c" stroke-width=".5"/>
<path d="m310 150 15.3 15.3" fill="none" stroke="#63672c" stroke-width=".5"/>
<path d="m317.45 176.65-3.15-3.15-2.7 2m-11.85-11.85 2.05-2.65-2.85-2.85" fill="none" stroke="#ad9d2c" stroke-width=".5"/>
<path d="m311.6 175.5-11.85-11.85" fill="none" stroke="#ad9d2c" stroke-width=".5"/>
<path d="m325.3 165.3 1.75 1.75q-7.1 2.5-9.6 9.6m-18.5-18.5q6.75-2.85 9.6-9.6l1.45 1.45" fill="none" stroke="#919a11"/>
</g>
</defs>
<use xlink:href="#a"/>
</svg>
