<?xml version="1.0" encoding="UTF-8"?>
<svg version="1.1" viewBox="0 0 86.969 96.067" xmlns="http://www.w3.org/2000/svg" xmlns:cc="http://creativecommons.org/ns#" xmlns:dc="http://purl.org/dc/elements/1.1/" xmlns:rdf="http://www.w3.org/1999/02/22-rdf-syntax-ns#" xmlns:xlink="http://www.w3.org/1999/xlink">
<metadata>
<rdf:RDF>
<cc:Work rdf:about="">
<dc:format>image/svg+xml</dc:format>
<dc:type rdf:resource="http://purl.org/dc/dcmitype/StillImage"/>
</cc:Work>
</rdf:RDF>
</metadata>
<g transform="translate(-231.49 -152.44)">
<use transform="translate(231.5,152.45)" width="86.949997" height="96.050003" xlink:href="#a"/>
</g>
<defs>
<g id="a" transform="translate(-231.5,-152.45)">
<path d="m296.35 225.05q-9.75 10.2-20.9 10.05t-25.05-13.7q-13.95-13.55-11.95-26.25 2.05-12.7 14.35-21.5 12.25-8.8 25.2-11.8 12.95-2.95 23.55 9.65 10.55 12.6 7.6 27.95-3.05 15.35-12.8 25.6" fill="#ffa611" fill-rule="evenodd"/>
<path d="m294.75 181.5q-6.15-9.75-4.3-10.55 1.9-0.8 7.4 3.8 5.45 4.6 7.25 12.5t-1.25 14.5q-3.15 6.55-6.65 6.35-3.5-0.15-3-4.6 0.45-4.45 3.55-8.3 3.2-3.95-3-13.7" fill="#f9ec4f" fill-rule="evenodd"/>
<path d="m306.65 168.5 0.05 0.05q0.35 0.25 0.25 0.8l-37.7 40.4q1.3 2.55-0.45 4.55-1.55 1.75-5.05 1.05h-0.05l-11.2 13.05q-1.05 0-2.55-1.05t-1.65-1.85l13.05-12.9q-0.75-3.9 2.9-4.05h0.1l40.65-40.65q0.25-0.25 1.65 0.6" fill="#fedbc0" fill-opacity=".45098" fill-rule="evenodd"/>
<path d="m304.3 169.6 0.85-0.05 0.05 0.05q0.3 0.25 0.2 0.75l-0.4 0.05-0.45-0.1v-0.05q-0.25-0.2-0.25-0.65 0 0.45 0.25 0.65l-37.15 38.85 0.25 0.2-0.35-0.1h-0.8l-0.5 0.05-0.15-0.15 38.45-39.5m-37.4 44.45-1 0.1-0.7 0.05-0.95-0.15-0.75-0.45q-0.65-0.55-0.8-1.3v-0.75l0.2-0.65 0.45-0.65q0.55-0.7 1-0.7l0.4 0.65q-0.3 0.7-0.25 1.6 0.05 0.8 0.55 1.4l0.25 0.25 0.75 0.4 0.9 0.2h-0.05m38.3-43.9-0.2 0.25 0.2-0.25m-38.65 39.05 0.25-0.05h-0.2q-0.25 0.05-0.1 0.05h0.05" fill="#c9c1b4" fill-rule="evenodd"/>
<path d="m288.6 188.2-1.15 1.25q-0.1-0.35 0.1-0.95-0.2 0.6-0.1 0.95l-18.25 19.35-0.15 0.15-0.2 0.25-0.5 0.5-0.7-0.4-0.25-0.2 37.15-38.85v0.05l0.45 0.1-0.7 1.1-15.35 16.35-0.35 0.35m-24.35 25.85-6.4 6.8 2.8-6.45 0.1-0.1 1.95-2q0.15 0.75 0.8 1.3l0.75 0.45m24.5-26-1.2 0.45 1.2-0.45m-19.7 20.9-1.4 0.35 1.4-0.35" fill="#706550" fill-rule="evenodd"/>
<path d="m305.4 170.35-1.1 1.15 0.7-1.1 0.4-0.05m-41.05 39.2 0.8-0.15 0.5-0.1 0.2-0.2 0.15 0.15-0.45 0.15q-0.5 0.2-0.7 0.65l-0.1 0.15-0.4-0.65m1.3-0.25 0.35-0.05-0.35 0.05" fill="#bb9b86" fill-rule="evenodd"/>
<path d="m268.35 209.7 0.05 0.05q0.75 0.65 0.8 1.7 0.1 0.95-0.55 1.75-0.65 0.75-1.6 0.85-0.45 0.05-0.15 0h0.05l-0.9-0.2-0.75-0.4-0.25-0.25q-0.5-0.6-0.55-1.4-0.05-0.9 0.25-1.6l0.1-0.15q0.2-0.45 0.7-0.65l0.45-0.15 0.5-0.05h0.8l0.35 0.1 0.7 0.4" fill="#b4a996" fill-rule="evenodd"/>
<path d="m257.85 220.85-0.1 0.05-6.05 6.5q-1.65-0.35-1.95-1.8l10.85-11.15 0.05-0.05-2.8 6.45" fill="#8e8066" fill-rule="evenodd"/>
<path d="m304.3 169.6 0.85-0.05 0.05 0.05q0.3 0.25 0.2 0.75l-1.1 1.15q1.4 9.6-15.55 16.55l-0.15 0.15-1.15 1.25m-18.4 19.5-0.2 0.25-0.5 0.5m-10.6 11.2-6.05 6.5q-1.65-0.35-1.95-1.8m39.2-37.75 15.35-16.35m-15.55 16.55 0.2-0.2m-19.75 20.95 18.25-19.35m-18.4 19.5 0.15-0.15" fill="none" stroke="#000" stroke-linecap="round" stroke-linejoin="round" stroke-opacity=".50196" stroke-width=".8"/>
<path d="m304.3 169.6q0 0.45 0.25 0.65v0.05l0.45 0.1 0.2-0.25m-17.65 18.35 1.2-0.45m15.55-16.55 0.7-1.1 0.4-0.05" fill="none" stroke="#000" stroke-linecap="round" stroke-linejoin="round" stroke-opacity=".50196" stroke-width=".05"/>
<path d="m265.65 209.3 0.2-0.2m21.6-19.65q-0.1-0.35 0.1-0.95m-19.2 21.2-0.7-0.4-0.35-0.1h-0.8l-0.5 0.05-0.45 0.15q-0.5 0.2-0.7 0.65l-0.1 0.15q-0.3 0.7-0.25 1.6 0.05 0.8 0.55 1.4l0.25 0.25 0.75 0.4 0.9 0.2h-0.05m-0.3-4.9-0.05 0.05 0.25-0.05h-0.2q-0.25 0.05-0.1 0.05h0.05-0.05m1.15 0.1 1.4-0.35m-3.05 0.3-0.35 0.05m-2.95 3q0.15 0.75 0.8 1.3l0.75 0.45" fill="none" stroke="#000" stroke-linecap="round" stroke-linejoin="round" stroke-opacity=".50196" stroke-width=".05"/>
<path d="m287.45 189.45q-0.35 4.65-1.85 8.1-1.5 3.4-4.95 7.05t-11.6 4.35m-0.7 0.75 0.05 0.05q0.75 0.65 0.8 1.7 0.1 0.95-0.55 1.75-0.65 0.75-1.6 0.85-0.45 0.05-0.15 0l-1 0.1-0.7 0.05-0.95-0.15m-14.5 11.55 10.85-11.15 0.15-0.15 1.95-2v-0.75l0.2-0.65 0.45-0.65q0.55-0.7 1-0.7l0.8-0.15 0.5-0.1m0.2-0.2 38.45-39.5z" fill="none" stroke="#000" stroke-linecap="round" stroke-linejoin="round" stroke-opacity=".50196" stroke-width=".8"/>
<path d="m301.95 235.15q-11.7 13.2-25.2 13-13.45-0.2-30.25-17.7-16.8-17.55-14.35-33.95t17.25-27.75q14.75-11.4 30.4-15.2 15.6-3.95 28.35 12.4 12.8 16.25 9.15 36.15-3.6 19.85-15.35 33.05m-1.85-7.2q10.6-11.15 13.95-27.8 3.2-16.7-8.3-30.4-11.5-13.65-25.55-10.45-14.1 3.25-27.4 12.8-13.35 9.55-15.6 23.35-2.15 13.8 13 28.55 15.1 14.7 27.2 14.9 12.15 0.15 22.7-10.95" fill="#b97917" fill-opacity=".6" fill-rule="evenodd"/>
<path d="m301.95 235.15q-11.7 13.2-25.2 13-13.45-0.2-30.25-17.7-16.8-17.55-14.35-33.95t17.25-27.75q14.75-11.4 30.4-15.2 15.6-3.95 28.35 12.4 12.8 16.25 9.15 36.15-3.6 19.85-15.35 33.05z" fill="none" stroke="#8b5c1d" stroke-linecap="round" stroke-linejoin="round" stroke-width=".7"/>
<path d="m300.1 227.95q-10.55 11.1-22.7 10.95-12.1-0.2-27.2-14.9-15.15-14.75-13-28.55 2.25-13.8 15.6-23.35 13.3-9.55 27.4-12.8 14.05-3.2 25.55 10.45 11.5 13.7 8.3 30.4-3.35 16.65-13.95 27.8" fill="#ffa611" fill-opacity=".6" fill-rule="evenodd"/>
<path d="m264.45 181.1q-1.25 0.7-2.7 2.4-1 1.25-1.2 0.95-0.45-0.75-0.2-2.2 0.25-1.8 1.45-2.7 2.95-2.2 7.1-3.8 4.25-1.65 8.2-2.15 1.65-0.15 3.85 0.85 1.95 0.9 2.35 1.65 0.65 1.15-2.25 1.5l-4.1 0.1-5.1 0.45q-2.3 0.5-4.2 1.35l-3.2 1.6" fill="#fff" fill-opacity=".4" fill-rule="evenodd"/>
<path d="m297.5 232.2q-7.25 8.3-14.8 12.5-3 1.75-8.2-0.05-4.45-1.7-5.85-3.65-2.1-3.2 3.45-6.4 0.8-0.5 7.95-3 6.1-2.15 9.75-4.9 4.3-3.25 7.35-7.2l5.15-7.55q2.05-2.9 3.55-9.35 1.2-4.8 1.8-3.85 1.45 2.15 2.1 6.95 0.75 5.85-1 9.5-4.25 9.2-11.25 17" fill="#8b5c1d" fill-opacity=".6" fill-rule="evenodd"/>
<path d="m248.95 184.85q-3.1 2.55-6.2 8.75-2.35 4.55-2.9 3.5-1.35-2.35-1.25-7.2 0.15-5.9 3.1-9.25 7-8.4 17.1-15.05 10.55-7.05 20.65-10.05 4.05-1.3 10.1 1.35 5.2 2.35 6.45 4.55 2 3.5-5.45 5.75l-10.4 1.7q-7.95 1.25-12.95 3.35-5.9 2.5-10.45 6-0.55 0.35-7.8 6.6" fill="#fff" fill-opacity=".4" fill-rule="evenodd"/>
</g>
</defs>
</svg>
