<?xml version="1.0" encoding="UTF-8"?>
<svg version="1.1" viewBox="0 0 47.415 44.499" xmlns="http://www.w3.org/2000/svg" xmlns:cc="http://creativecommons.org/ns#" xmlns:dc="http://purl.org/dc/elements/1.1/" xmlns:rdf="http://www.w3.org/1999/02/22-rdf-syntax-ns#" xmlns:xlink="http://www.w3.org/1999/xlink">
<metadata>
<rdf:RDF>
<cc:Work rdf:about="">
<dc:format>image/svg+xml</dc:format>
<dc:type rdf:resource="http://purl.org/dc/dcmitype/StillImage"/>
</cc:Work>
</rdf:RDF>
</metadata>
<g transform="translate(-376.74 -277.75)">
<use transform="translate(376.75,277.75)" width="47.400002" height="44.5" xlink:href="#b"/>
<use transform="translate(386.7,283.9)" width="27.700001" height="34.650002" xlink:href="#d"/>
<use transform="matrix(-.6971 -.126 -.1721 .7592 399.15 296.86)" width="9.0500002" height="9" xlink:href="#a"/>
<use transform="matrix(.6439 -.2653 .2908 .6858 401.71 297.57)" width="9.0500002" height="9" xlink:href="#a"/>
</g>
<defs>
<g id="b" transform="translate(23.7,22.2)">
<use transform="translate(-23.7,-22.2)" width="47.400002" height="44.5" xlink:href="#e"/>
</g>
<g id="e" transform="translate(23.7,22.2)">
<path d="m1.05-21q-0.05 0.25 0.05 0.55 0.2 0.5 0.7 0.75l0.2 0.1 0.8 0.15 0.75-0.5 0.1-0.35-0.1-0.5-0.65-0.75-0.35-0.15-0.65-0.05q-0.5 0.05-0.75 0.45l-0.1 0.3m3.1 3.6q-4-0.75-7.75-0.1l-0.85-3.2q4.75-2.95 9.1 0l-0.5 3.3m-7.25-1.85 0.35 0.25 0.3 0.05 0.3-0.05 0.35-0.25 0.25-0.6q0-0.4-0.25-0.65t-0.65-0.25l-0.65 0.25-0.25 0.65 0.25 0.6" fill="#a17225" fill-rule="evenodd"/>
<path d="m1.05-21 0.1-0.3q0.25-0.4 0.75-0.45l0.65 0.05 0.35 0.15 0.65 0.75 0.1 0.5-0.1 0.35-0.75 0.5-0.8-0.15-0.2-0.1q-0.5-0.25-0.7-0.75-0.1-0.3-0.05-0.55m-4.15 1.75-0.25-0.6 0.25-0.65 0.65-0.25q0.4 0 0.65 0.25t0.25 0.65l-0.25 0.6-0.35 0.25-0.3 0.05-0.3-0.05-0.35-0.25" fill="#d19430" fill-rule="evenodd"/>
<path d="m20.05-6.15-0.6-0.75h-0.05l0.4-1.45 0.9 0.15-0.65 2.05" fill="#9de8e8" fill-rule="evenodd"/>
<path d="m16.55-5.45-0.75-0.9 0.6-0.55h2.35l-2.2 1.45m-4.5-0.8q-0.75 1.45-3.45 1.6l-2.5-0.35q-5-0.55-8.6 0.9-5.15 3.15-10.85 2.75l-1.75-1.2 1.65-2.3 0.05-0.1 0.05-0.05q0.95-1.05 3.1-1.8h20.9l1.4 0.55m-32 0.05 0.75-0.5h3.1l0.2 0.05-3.9 0.95-0.15-0.5" fill="#e8e48d" fill-rule="evenodd"/>
<path d="m13.6-5.4 1.1 1.35 1.05 1.65 0.75 1.5 0.1 0.15 0.7 2.45 0.1 0.8 0.15 2.05-0.05 1.35q-3.7 4.1-9.1 3.1l-4-1.05-4.95-0.7q-5.45-0.3-7.75 2.3-1.5 1.7-1.65 3.45-0.3 2.75 2.7 5.6-2.5-1.1-4.65-3.05l-0.7-0.7q-3.65-3.65-4.2-8.5l-0.15-1.8 0.15-1.95 0.3-1.7 0.4-1.25 1-2.2 1.75 1.2q5.7 0.4 10.85-2.75 3.6-1.45 8.6-0.9l2.5 0.35q2.7-0.15 3.45-1.6l1.55 0.85m3.45 0.65-0.5-0.7 2.2-1.45h0.7l0.6 0.75-0.3 0.9-2.7 0.5m-32.95-1.9 0.7 0.25-0.85 1.1-0.5-0.2-2.6 1.85-0.65-2.05 3.9-0.95" fill="#b5b26e" fill-rule="evenodd"/>
<path d="m17.9-3.35-0.35-0.6-0.5-0.8 2.7-0.5-1.05 3.55-0.8-1.65m-25.15 21.95q-3-2.85-2.7-5.6 0.15-1.75 1.65-3.45 2.3-2.6 7.75-2.3l4.95 0.7 4 1.05q5.4 1 9.1-3.1-0.25 2.95-1.6 5.45-1.25 2.25-3.4 4.2-4.15 3.75-9.7 4.4l-2.5 0.15q-4.1 0-7.55-1.5m-8.8-23.9q-1.55 2.15-2.3 4.2l-0.6-1.85-0.2-0.7 2.6-1.85 0.5 0.2" fill="#94915a" fill-rule="evenodd"/>
<path d="m4.15-17.4 2.35 0.6q0.75 0.75 0.95 1.6 0.15 0.75-0.25 1.6l-0.1 0.25-1.55-0.75-5.5-1-4.75 0.5-1.9 1.6-0.25-0.35q-1.2-1.7 0.45-3.5l2.8-0.65q3.75-0.65 7.75 0.1m6.45 6.8-1.4-0.7-1.4-0.6 1.4 0.6 1.4 0.7q1.9 1.1 3.55 2.6l1.65 1.65 0.75 0.9 0.5 0.7 0.5 0.8 0.35 0.6-2.15 0.95-1.05-1.65-1.1-1.35-1.1-1.05q-1.45-1.35-3.1-2.3l-1.25-0.6-1.25-0.5-0.15-0.05-0.4-0.15-2.35-0.45v-0.6h2.65l0.65-0.95 0.5 0.15 13.05-2.9q2.9-0.6 2.75 2.7l-1.25 4.2-1.65-0.3 0.7-2.45q0.1-2.4-1.95-1.9l-8.85 1.95m-23.95 5.6-0.05 0.05-0.05 0.1-1.65 2.3-1 2.2-0.4 1.25-0.3 1.7-0.15 1.95 0.15 1.8q0.55 4.85 4.2 8.5l-1.65 1.45q-4.25-4.15-4.9-9.75l-0.15-2.05 0.1-1.9 0.05-0.3 0.35-1.95 0.45-1.45q0.75-2.05 2.3-4.2l0.85-1.1 1.65-1.6 2.25-1.8 0.05-0.05 0.1-0.05 2.15-1.2 0.35-0.15 2.45-0.95 1.5 1.1h1.1v0.45l-2.3 0.65-1.65 0.65-2.35 1.3-2 1.6-1.45 1.45m-7.55 2.1-2.7-8.45q-0.15-3.3 2.7-2.7l9.9 2.25-1.2 0.7-5-0.75-0.45 0.65-1.6-0.4q-1.95-0.4-1.85 1.85l1.15 3.55 0.15 0.5 0.65 2.05 0.2 0.7-1.95 0.05" fill="#65cccc" fill-opacity=".50196" fill-rule="evenodd"/>
<path d="m-6.6-13 1.9-1.6 4.75-0.5 5.5 1 1.55 0.75-0.75 1 0.7 0.2 0.25 0.1-0.65 0.95h-2.65v-2.45q-3.8-1.25-7.6 0v2.45h-1.1l-1.5-1.1 0.3-0.1-0.7-0.7m27.3 4.8 1.65 0.3-2.75 9.15-0.8-2.8-0.1-0.15 0.1 0.15 0.8 2.8 0.15 0.9 0.15 2.35q0 4.2-1.9 7.7-1.4 2.6-3.85 4.8-5.7 5.2-13.85 5.2-8.1 0-13.85-5.2l-0.7-0.7 1.65-1.45 0.7 0.7q2.15 1.95 4.65 3.05 3.45 1.5 7.55 1.5l2.5-0.15q5.55-0.65 9.7-4.4 2.15-1.95 3.4-4.2 1.35-2.5 1.6-5.45l0.05-1.35-0.15-2.05-0.1-0.8-0.7-2.45-0.1-0.15-0.75-1.5 2.15-0.95 0.8 1.65 1.05-3.55 0.3-0.9 0.65-2.05m-31.7-3.6 2.35 0.55-0.35 0.15-2.15 1.2-0.1 0.05-0.05 0.05-6.35-1.4 0.45-0.65 5 0.75 1.2-0.7m-7.35 10.7-0.45 1.45-0.35 1.95-0.1 0.1-1.65-5.3 1.95-0.05 0.6 1.85" fill="#478f8f" fill-opacity=".50196" fill-rule="evenodd"/>
<path d="m10.6-10.6 8.85-1.95q2.05-0.5 1.95 1.9l-0.7 2.45-0.9-0.15-0.4 1.45h-3l-0.6 0.55-1.65-1.65q-1.65-1.5-3.55-2.6m-6.6-0.5v0.6l2.35 0.45 0.4 0.15 0.15 0.05 1.25 0.5 1.25 0.6q1.65 0.95 3.1 2.3l1.1 1.05-1.55-0.85-1.4-0.55h-20.9q-2.15 0.75-3.1 1.8l1.45-1.45 2-1.6 2.35-1.3 1.65-0.65 2.3-0.65v-0.45h7.6m-15.3 1.3-2.25 1.8-1.65 1.6-0.7-0.25-0.2-0.05h-3.1l-0.75 0.5-1.15-3.55q-0.1-2.25 1.85-1.85l1.6 0.4 6.35 1.4" fill="#c2ffff" fill-opacity=".50196" fill-rule="evenodd"/>
<path d="m-3.6-11.1v-2.45q3.8-1.25 7.6 0v2.45h-7.6" fill="#a8dede" fill-opacity=".50196" fill-rule="evenodd"/>
<path d="m7.45-15.2q-0.2-0.85-0.95-1.6l-2.35-0.6q-4-0.75-7.75-0.1l-2.8 0.65q-1.65 1.8-0.45 3.5l0.25 0.35m13.7-0.35 0.1-0.25m0.6 1.7 1.4 0.6 1.4 0.7 8.85-1.95q2.05-0.5 1.95 1.9l-0.7 2.45m1.65 0.3 1.25-4.2q0.15-3.3-2.75-2.7l-13.05 2.9-0.5-0.15m-3.3 0.95v0.6l2.35 0.45 0.4 0.15 0.15 0.05 1.25 0.5 1.25 0.6q1.65 0.95 3.1 2.3l1.1 1.05 1.1 1.35 1.05 1.65m2.15-0.95-0.35-0.6-0.5-0.8-0.5-0.7-0.75-0.9-1.65-1.65q-1.65-1.5-3.55-2.6m-3.5-2.75-0.75 1 0.7 0.2 0.25 0.1m-20.7 7.1-0.05 0.1-1.65 2.3-1 2.2-0.4 1.25-0.3 1.7-0.15 1.95 0.15 1.8q0.55 4.85 4.2 8.5l0.7 0.7q2.15 1.95 4.65 3.05m24.75-12.7 0.05-1.35-0.15-2.05-0.1-0.8-0.7-2.45-0.1-0.15-0.75-1.5m4.3-3.75 0.65-2.05m-0.65 2.05-0.3 0.9-1.05 3.55 0.1 0.15 0.8 2.8 2.75-9.15m-4.45 4.55 0.8 1.65m-22.3-9.4v-2.45q3.8-1.25 7.6 0v2.45m-7.6 0v0.45l-2.3 0.65-1.65 0.65-2.35 1.3-2 1.6-1.45 1.45m-0.9 21.3 0.7 0.7q5.75 5.2 13.85 5.2 8.15 0 13.85-5.2 2.45-2.2 3.85-4.8 1.9-3.5 1.9-7.7l-0.15-2.35-0.15-0.9m-2.1 4.65q-0.25 2.95-1.6 5.45-1.25 2.25-3.4 4.2-4.15 3.75-9.7 4.4l-2.5 0.15q-4.1 0-7.55-1.5m-13.65-21.5-2.7-8.45q-0.15-3.3 2.7-2.7l9.9 2.25 2.35 0.55 2.45-0.95 0.3-0.1-0.7-0.7m-4.7 3.2 0.05-0.05 0.1-0.05 2.15-1.2 0.35-0.15m-6.55 4.85 1.65-1.6 2.25-1.8-6.35-1.4-1.6-0.4q-1.95-0.4-1.85 1.85l1.15 3.55m4.75-0.2-0.85 1.1q-1.55 2.15-2.3 4.2l-0.45 1.45-0.35 1.95-0.05 0.3-0.1 1.9 0.15 2.05q0.65 5.6 4.9 9.75m-4.1-17.4-0.6-1.85m-1.95 0.05 1.65 5.3 0.1-0.1m0-5.95 0.2 0.7m-0.2-0.7-0.65-2.05-0.15-0.5m0.75 8.8-0.05-0.2" fill="none" stroke="#6da6a6" stroke-linecap="round" stroke-linejoin="round" stroke-opacity=".50196" stroke-width=".2"/>
<path d="m12.05-6.25-1.4-0.55h-20.9q-2.15 0.75-3.1 1.8l-0.05 0.05m32.8-1.95h0.05l0.6 0.75m-0.65-0.75h-0.65m-2.95 0.55 0.6-0.55h2.35m-6.7 0.65 1.55 0.85m-33.55-0.8 0.75-0.5h3.1l0.2 0.05 0.7 0.25" fill="none" stroke="#94915a" stroke-linecap="round" stroke-linejoin="round" stroke-width=".05"/>
<path d="m1.05-21 0.1-0.3q0.25-0.4 0.75-0.45l0.65 0.05 0.35 0.15 0.65 0.75 0.1 0.5-0.1 0.35-0.75 0.5-0.8-0.15-0.2-0.1q-0.5-0.25-0.7-0.75-0.1-0.3-0.05-0.55m-4.65 3.5-0.85-3.2q4.75-2.95 9.1 0l-0.5 3.3m-7.25-1.85-0.25-0.6 0.25-0.65 0.65-0.25q0.4 0 0.65 0.25t0.25 0.65l-0.25 0.6-0.35 0.25-0.3 0.05-0.3-0.05-0.35-0.25" fill="none" stroke="#704f19" stroke-linecap="round" stroke-linejoin="round" stroke-width=".05"/>
<path d="m15.15-13.1 1.8-0.05q0.85 0.2 1 0.8t-0.45 1.2l-1.6 0.85-1.8 0.05q-0.75-0.25-0.9-0.85t0.35-1.15q0.6-0.6 1.6-0.85" fill="#fff" fill-rule="evenodd"/>
<path d="m19.55-13.9 0.8 0.1 0.5 0.6-0.1 0.85q-0.2 0.35-0.65 0.5l-0.8-0.1q-0.4-0.25-0.5-0.7-0.1-0.4 0.1-0.75l0.65-0.5" fill="#fff" fill-rule="evenodd"/>
<path d="m-16.05-2.55q1.25-2.2 3.05-3.2 1.85-1.05 3.15-0.3 1.3 0.8 1.3 2.85 0.05 2.1-1.2 4.3t-3.15 3.25q-1.75 1.05-3.05 0.25-1.3-0.75-1.4-2.8 0.05-2.15 1.3-4.35" fill="#fff" fill-rule="evenodd"/>
<path d="m-21.85-13.6 0.8 0.1q0.4 0.2 0.5 0.6 0.1 0.45-0.1 0.85-0.2 0.35-0.65 0.5l-0.8-0.1-0.5-0.7 0.1-0.75 0.65-0.5" fill="#fff" fill-rule="evenodd"/>
<path d="m-17.05-12.65 1.65 0.75q0.6 0.5 0.5 0.9-0.15 0.45-0.9 0.55l-1.8-0.15q-1-0.25-1.6-0.75-0.6-0.45-0.45-0.9l0.85-0.55 1.75 0.15" fill="#fff" fill-rule="evenodd"/>
<path d="m-8.55-9.8q0.6-0.6 1.45-0.65 0.8 0 1.4 0.6t0.6 1.4q-0.05 0.85-0.65 1.45-0.55 0.55-1.4 0.6-0.8 0-1.4-0.6t-0.6-1.4q0.05-0.85 0.6-1.4" fill="#fff" fill-rule="evenodd"/>
<path d="m-5.9-16.45 0.55 0.05 0.3 0.45q0.1 0.3-0.05 0.55l-0.45 0.35-0.55-0.1-0.35-0.45 0.1-0.55 0.45-0.3" fill="#fff" fill-rule="evenodd"/>
<path d="m-2.2-17.5 1.75 0.3q0.75 0.3 0.75 0.75t-0.75 0.8l-1.75 0.3-1.7-0.3q-0.75-0.35-0.75-0.8t0.75-0.75l1.7-0.3" fill="#fff" fill-rule="evenodd"/>
<path d="m11.7-8.7 2.3 2.6 0.1 0.3q2.65 10 0.3 20.9l-3.3 0.95v-2.9l-0.95 3.15q-9 2-17.8 0.35-1.6-0.35-2.05-0.75l-3.75-3.3-0.05-0.4q-1.55-11.2 1.2-20.6l2.5-0.55q7.75-1.65 14-0.85l3.1 6.8 1.1-6.3 3.3 0.6v2.9h2.4-2.4v-2.9m-19.35 17.1v8.25-8.25m-2.05 7.5-0.4-4.5-3.4 0.8 3.4-0.8 0.4 4.5m-1.2-18.25 1.1-6.6-1.1 6.6m21.5 10.5 0.5 5-0.5-5" fill="#edcb8e" fill-rule="evenodd"/>
<path d="m11.7-8.7 2.3 2.6 0.1 0.3q2.65 10 0.3 20.9l-3.3 0.95v-2.9l-0.95 3.15q-9 2-17.8 0.35-1.6-0.35-2.05-0.75l-3.75-3.3-0.05-0.4q-1.55-11.2 1.2-20.6l2.5-0.55q7.75-1.65 14-0.85l3.1 6.8 1.1-6.3 3.3 0.6v2.9h2.4m-3 18.95-0.5-5m-20.4-17.1-1.1 6.6m-2.6 14.55 3.4-0.8 0.4 4.5m2.05 0.75v-8.25" fill="none" stroke="#7a5e32" stroke-linecap="round" stroke-linejoin="round" stroke-opacity=".50196" stroke-width=".05"/>
<path d="m2-8.15q1.4 0.05 1.4 1.4 0 0.55-0.4 1-0.45 0.5-1.15 0.5-1.35 0-1.55-1.15h-0.05q-1.15 0-1.55-0.9l-0.2-0.9q0-1.75 1.75-1.8t1.75 1.85m7.4 6.15q0-1.05 1.05-1.05t1.05 1.05q-0.05 1.1-1 1.1-0.75 0-1-0.5l-0.1-0.6m5.95 0.6q-0.45 0.5-1.1 0.5-1 0-1.4-0.75l-0.2-0.85q0-1.5 1.55-1.5t1.55 1.6q0 0.55-0.4 1m-1.7 10.5-0.65 0.25q-0.85 0-1.1-0.7l-0.05-0.45q0-1.1 1.15-1.1 1.1 0.05 1.1 1.15l-0.45 0.85m-6.6-7.75q0.45-0.6 1.45-0.6 1.75 0 1.75 1.65l-0.35 1.1q-0.45 0.65-1.15 0.75v0.3q0 0.65-0.4 1.1-0.45 0.6-1.35 0.6-1.2 0-1.65-0.9l-0.2-0.85q0-0.7 0.3-1.1l-0.55-0.1-0.1 0.15q-0.65 0.8-1.55 0.8-1.25 0-1.8-1l-0.35-1q0-1.9 2.1-2 1 0 1.5 0.45l0.9-0.15q1.15 0 1.45 0.8m-4.2 4.1-0.35 1.15q-0.5 0.75-1.5 0.75-1.1 0-1.55-0.9l-0.25-0.95q0-2.05 1.85-1.8 1.8 0.25 1.8 1.75m4.1 5.5q1.45 0 1.45 1.25-0.1 0.8-0.5 1.15l0.25 0.8-0.3 0.85q-0.3 0.4-0.85 0.4-1.4 0-1.25-1.15 0-0.55 0.35-0.85-0.5-0.35-0.6-1.2 0-1.25 1.45-1.25m-1.75 3.9q-0.5 0.55-1.35 0.55-1.85 0-1.85-1.65 0-1.7 1.85-1.7 1.8 0 1.8 1.65l-0.45 1.15m-15.9-19.7q-0.15 0.35-0.8 0.55l-0.6-0.5q-0.2-0.15-0.2-0.45l0.35-0.75q0.55-0.35 1.4 0.75l-0.15 0.4m7.3-1.55q-0.45 0.6-1.1 0.6-0.85 0-1.15-0.7l-0.15-0.7q0-1.45 1.4-1.3 1.35 0.2 1.35 1.25 0 0.35-0.35 0.85m-2 1.3q1.6 0 1.6 1.8 0 0.75-0.45 1.25-0.5 0.5-1.25 0.5-1.15 0-1.45-0.9l-0.8 0.15q-1.1 0-1.55-0.95l-0.25-0.95q0-1.95 1.9-1.95 1.4 0 1.75 1.1l0.5-0.05m-3.15 4.35q0-1.1 1.15-1.1 1.1 0 1.1 1.2l-0.05 0.35q1.3 0.05 1.3 1.6l-0.4 0.95-0.55 0.45q0.25 0.4 0.25 1.1t-0.4 1.2q-0.5 0.65-1.35 0.65-1.15 0-1.5-0.85l-0.1-0.5-0.4 0.05q-0.85 0-1.15-0.65l-0.15-0.7q0-1.35 1.4-1.4 0.9 0 1.2 0.6l0.15-0.05-0.25-0.9q0-0.6 0.35-0.95l-0.55-0.6-0.05-0.45m7.3-3.25q-0.75 0-1.1-0.7l-0.15-0.55q0-1.2 1.25-1.2t1.25 1.2l-0.25 0.75q-0.35 0.5-1 0.5m-8.3 12.5q-0.4 0.4-0.95 0.4l-0.8-0.2-0.45 0.9q-0.55 0.75-1.5 0.75-1.1 0-1.55-0.9l-0.25-0.95q0-2.2 1.9-2.05 1.15 0.1 1.6 0.85 0.2-0.65 1.1-0.7 1.2-0.1 1.2 1.05 0 0.5-0.3 0.85m0.3 2.7q0-1.65 1.75-1.65 1.3 0 1.65 0.9 0.25-0.6 1.15-0.45 1.3 0.25 1.3 1.25 0 0.5-0.35 0.85l-0.05 0.05q0.3 0.4 0.3 1.1v0.05q1.7 0.1 1.7 1.75 0 0.6-0.5 1.1-0.6 0.6-1.45 0.6-1.15 0-1.55-0.9l-0.2-0.85 0.05-0.3-0.9-0.85-0.15-0.65 0.15-0.7q-0.45 0.4-1.15 0.4-0.95 0-1.45-0.75l-0.3-0.95m3.4 0.8-0.05-0.05-0.1 0.15 0.15-0.1m3.1-1.55q0-1.45 1.3-1.2t1.3 1.25q0 0.5-0.35 0.85-0.4 0.4-1 0.4-0.85 0-1.15-0.65l-0.1-0.65" fill="#b89c6e" fill-opacity=".50196" fill-rule="evenodd"/>
</g>
<g id="d" transform="translate(-386.7,-283.9)">
<path d="m400.45 296.25 0.05 0.05q-0.6-7.2-0.2-12.05l-1.55-0.1q-0.15 5.75 1.7 12.1" fill="#fff" fill-rule="evenodd"/>
<path d="m398.75 284.15-2.35 1.1q1.1 4.85 3.6 10.9l0.45 0.1q-1.85-6.35-1.7-12.1" fill="#d9cdc6" fill-rule="evenodd"/>
<path d="m399.8 295.75 0.05 0.05q-3.7-5.4-5.6-9.45l-1.3 0.7q2.55 4.6 6.85 8.7" fill="#fff" fill-rule="evenodd"/>
<path d="m392.95 287.05-1.35 1.9q3.1 3.35 7.85 6.95l0.35-0.15q-4.3-4.1-6.85-8.7" fill="#d9cdc6" fill-rule="evenodd"/>
<path d="m400.75 309.8h-0.05l0.1 0.1-0.05-0.1" fill="#282c53" fill-rule="evenodd"/>
<path d="m400.7 309.8h0.05-0.05" fill="#3d577a" fill-rule="evenodd"/>
<path d="m400.7 309.8h0.05q-0.3-0.55-0.1-2.1-1.25 0.35-2.35 2.05l2.4 0.05" fill="#314463" fill-rule="evenodd"/>
<path d="m391.6 299.9q2.3 0.55 3.4 3.95 0.05 0.8-0.25 1.4-0.2 1-0.85 1.5-2.9 0.2-5.15-2.3l-1.3-1.8q-1.35-1.8-0.25-1.9l2.65 2.05 1.75-2.9" fill="#1d293d" fill-rule="evenodd"/>
<path d="m387.2 300.75q2.6-1.3 4.4-0.85l-1.75 2.9-2.65-2.05" fill="#314463" fill-rule="evenodd"/>
<path d="m387.2 300.75q2.6-1.3 4.4-0.85 2.3 0.55 3.4 3.95m-1.1 2.9q-2.9 0.2-5.15-2.3l-1.3-1.8q-1.35-1.8-0.25-1.9z" fill="none" stroke="#000" stroke-linecap="round" stroke-linejoin="round" stroke-opacity=".30196" stroke-width=".05"/>
<path d="m392.2 312.55 0.95-0.9 1-0.75q0.9-0.7 1.8-1.1h0.15l-0.55 1.3-0.85-0.6-2.5 2.05 2.5-2.05 0.85 0.6-2.35 4.95 0.1-1.75-2.4-0.05 1.3-1.7" fill="#f90" fill-rule="evenodd"/>
<path d="m395.55 311.1 0.55-1.3 0.5-0.1 0.85 1.7 0.25 0.8 0.55 2.1 0.2 1.85-2.4-1.4-2.85 1.55v-0.25l2.35-4.95 1.7 1.1 1 2.1-1-2.1-1.7-1.1" fill="#cc7a00" fill-rule="evenodd"/>
<path d="m398.45 316.15-0.15 1.05-5.5-0.4-0.6-0.05 0.1-1.1-1.95-0.8 0.55-0.6 2.4 0.05-0.1 1.75v0.25l2.85-1.55 2.4 1.4" fill="#583f2e" fill-rule="evenodd"/>
<path d="m389.2 316.25 1.15-1.4 1.95 0.8-0.1 1.1-3-0.5" fill="#8f674b" fill-rule="evenodd"/>
<path d="m398.3 317.2 0.1 1.15-6.25-0.5-2.65-0.35-0.3-1.25 3 0.5 0.6 0.05 5.5 0.4" fill="#a87e48" fill-rule="evenodd"/>
<path d="m392.2 312.55 2.5-2.05 0.85 0.6 1.7 1.1 1 2.1" fill="none" stroke="#c60" stroke-linecap="round" stroke-linejoin="round" stroke-width=".05"/>
<path d="m398.45 316.15-0.15 1.05 0.1 1.15-6.25-0.5-2.65-0.35-0.3-1.25 1.15-1.4 0.55-0.6m7.4 2.95-5.5-0.4-0.6-0.05-3-0.5" fill="none" stroke="#000" stroke-linecap="round" stroke-linejoin="round" stroke-opacity=".30196" stroke-width=".25"/>
<path d="m404.95 309.5 0.7 1.2 0.75-0.65 2.6 1.75-2.6-1.75-0.75 0.65 2.5 4.75-0.15-1.75 2.4-0.3-1.4-1.6-0.95-0.8-1.1-0.65-1.85-0.85h-0.15" fill="#f90" fill-rule="evenodd"/>
<path d="m404.95 309.5h-0.45l-0.7 1.75-0.3 0.9-0.4 2.15 0.85-2.2 1.7-1.4-1.7 1.4-0.85 2.2-0.1 1.9 2.3-1.7 2.9 1.2-0.05-0.25-2.5-4.75-0.7-1.2" fill="#cc7a00" fill-rule="evenodd"/>
<path d="m403 316.2 0.15 1.05 5.4-1.1 0.65-0.1-0.15-1.05 1.8-1.1-0.45-0.5-2.4 0.3 0.15 1.75 0.05 0.25-2.9-1.2-2.3 1.7" fill="#583f2e" fill-rule="evenodd"/>
<path d="m412.1 315.15-1.25-1.25-1.8 1.1 0.15 1.05 2.9-0.9" fill="#8f674b" fill-rule="evenodd"/>
<path d="m403.15 317.25v1.2q3.85-0.5 6.1-1.3l2.65-0.7 0.2-1.3-2.9 0.9-0.65 0.1-5.4 1.1" fill="#a87e48" fill-rule="evenodd"/>
<path d="m405.65 310.7-1.7 1.4-0.85 2.2m5.9-2.5-2.6-1.75-0.75 0.65" fill="none" stroke="#c60" stroke-linecap="round" stroke-linejoin="round" stroke-width=".05"/>
<path d="m403 316.2 0.15 1.05v1.2q3.85-0.5 6.1-1.3l2.65-0.7 0.2-1.3-1.25-1.25-0.45-0.5m-1.2 2.65-0.65 0.1-5.4 1.1m6.05-1.2 2.9-0.9" fill="none" stroke="#000" stroke-linecap="round" stroke-linejoin="round" stroke-opacity=".30196" stroke-width=".25"/>
<path d="m409.5 299.9q-2.3 0.55-3.4 3.95-0.05 0.8 0.25 1.4 0.2 1 0.85 1.5 2.9 0.2 5.15-2.3l1.3-1.8q1.35-1.8 0.25-1.9l-2.65 2.05-1.75-2.9" fill="#1d293d" fill-rule="evenodd"/>
<path d="m413.9 300.75q-2.6-1.3-4.4-0.85l1.75 2.9 2.65-2.05" fill="#314463" fill-rule="evenodd"/>
<path d="m413.9 300.75q-2.6-1.3-4.4-0.85-2.3 0.55-3.4 3.95m1.1 2.9q2.9 0.2 5.15-2.3l1.3-1.8q1.35-1.8 0.25-1.9z" fill="none" stroke="#000" stroke-linecap="round" stroke-linejoin="round" stroke-opacity=".30196" stroke-width=".05"/>
<path d="m404.15 292.8h0.05v-0.05l-0.05 0.05" fill="#339" fill-rule="evenodd"/>
<path d="m397.65 290.65v0.25l0.3 0.6-0.3-0.85m-0.05 1.4 0.15-0.35-0.15 0.35m6.6 0.7h-0.1l0.05 0.05 0.05-0.05" fill="#3d577a" fill-rule="evenodd"/>
<path d="m397.65 290.35-0.05 0.05 0.05 0.25v-0.3m6.45 2.4-0.1-0.7 0.25 1.05-0.1-0.3-0.05-0.05" fill="#3a3f78" fill-rule="evenodd"/>
<path d="m399.4 284.45-1.2-0.05 1.2 4.4-0.4 0.15-2.5-0.95-0.3 1.35 1.45 1v0.3l0.3 0.85-0.35 0.55h-0.05l-2.95 3.3q-2.5 2.95-3.35 7.4-0.85 4.55-0.45 8.55l2.45 1.35 2.55 1.4q3.25 1.95 6.55 1.2 2.35-0.4 4.6-1.55 4.25-2.2 3.7-6.55-0.45-4.35-1.75-8.05-1.25-3.65-4.75-6.3l0.1 0.3-0.25-1.05q-0.2-3.35 0.8-6.55l0.45-1.6-1.5 1.3-2.5 3.1-0.2-0.3q-1-1.7-1.65-3.55m0.95 16.5v-0.05 0.05" fill="#314463" fill-rule="evenodd"/>
<path d="m398.2 284.4 1.2 4.4-0.4 0.15-2.5-0.95-0.3 1.35 1.45 1v0.3l0.3 0.85-0.35 0.55h-0.05l-2.95 3.3q-2.5 2.95-3.35 7.4-0.85 4.55-0.45 8.55l2.45 1.35 2.55 1.4q3.25 1.95 6.55 1.2 2.35-0.4 4.6-1.55 4.25-2.2 3.7-6.55-0.45-4.35-1.75-8.05-1.25-3.65-4.75-6.3h0.05v-0.05h-0.1m-6.5-2.35 0.05 0.25v0.25m0.1 0.8-0.15 0.35m6.4 0q-0.2-3.35 0.8-6.55l0.45-1.6m-1.5 1.3-2.5 3.1-0.2-0.3q-1-1.7-1.65-3.55m0.95 16.5v-0.05 0.05m3.9-7.85-0.25-1.05" fill="none" stroke="#000" stroke-linecap="round" stroke-linejoin="round" stroke-opacity=".30196" stroke-width=".05"/>
<path d="m403.75 303.7-0.75-0.55q-2.4-0.95-5.05 0.1 2 4.65 3.85 5.3l0.4-0.05q2.75-0.9 1.55-4.8" fill="#cfc2b9" fill-rule="evenodd"/>
<path d="m393.85 311.8v1.25l0.5 0.2 1.4 0.7 4.95 1.85 0.4-0.05q2.55-0.65 4.1-1.4l3.05-1.65q-0.05-4.85-3.55-8.15 0.2 4.05-1 7.1-5.4 3.5-9.85 0.15" fill="#eae3df" fill-rule="evenodd"/>
<path d="m404.7 304.55-0.95-0.85q1.2 3.9-1.55 4.8l-0.4 0.05q-1.85-0.65-3.85-5.3l-0.5 0.2q-3.4 3.6-3.6 8.35 4.45 3.35 9.85-0.15 1.2-3.05 1-7.1" fill="#fff" fill-rule="evenodd"/>
<path d="m398.05 291.3-0.9 0.15-0.45 0.5-0.4 0.55-0.55 0.75-0.3 0.4-0.6 0.95-0.9 1.45 2.85-0.3q-0.5-0.4 1.25-4.45" fill="#d9cdc6" fill-rule="evenodd"/>
<path d="m396.8 295.75 2.65-0.2q3.65-0.25 7.15 0.1l-2.25-3.9q-1.1-0.65-3.6-0.55l-2.7 0.1q-1.75 4.05-1.25 4.45" fill="#fefefe" fill-rule="evenodd"/>
<path d="m400.7 291.8q-0.65 0-1.1 0.4-0.5 0.4-0.45 1t0.55 1.1q0.5 0.45 1.1 0.5 0.7 0 1.2-0.45 0.45-0.4 0.35-1 0-0.6-0.5-1.05t-1.15-0.5" fill="#c00" fill-rule="evenodd"/>
<path d="m394.8 304.95q0.15-0.35-0.3-0.8-0.4-0.5-1.2-0.75l-1.35-0.25q-0.7 0-0.8 0.35-0.15 0.35 0.3 0.85l1.15 0.8 1.45 0.2q0.6-0.05 0.75-0.4" fill="#f69" fill-opacity=".70196" fill-rule="evenodd"/>
<path d="m404.85 293.4q7.4 17.15-6.3 21.8 1.85 0.45 3.8 0.05 2.35-0.4 4.6-1.55 4.25-2.2 3.7-6.55-0.45-4.35-1.75-8.05-1.15-3.3-4.05-5.7" fill-opacity=".50196" fill-rule="evenodd"/>
<path d="m405.6 303.6q-0.05-0.35 0.5-0.7 0.5-0.4 1.3-0.55l1.45 0.05q0.6 0.2 0.7 0.55 0.05 0.35-0.5 0.75l-1.35 0.5-1.45-0.1q-0.6-0.15-0.65-0.5" fill="#f69" fill-opacity=".70196" fill-rule="evenodd"/>
<path d="m401.1 306.7 0.05 0.1h0.1q2.3-1.2 2.55-3.6-0.2-0.9-1.15-1.7-0.9-0.8-1.7-0.65-0.75 0.15-1.55 0.6 0.2 2.8 1.7 5.25" fill="#f90" fill-rule="evenodd"/>
<path d="m399.4 301.45q-1.05 0.8-1.1 1.9 0.4 1.75 2.8 3.35-1.5-2.45-1.7-5.25" fill="#cc7a00" fill-rule="evenodd"/>
<path d="m401.1 306.7 0.05 0.1h0.1q2.3-1.2 2.55-3.6-0.2-0.9-1.15-1.7-0.9-0.8-1.7-0.65-0.75 0.15-1.55 0.6-1.05 0.8-1.1 1.9 0.4 1.75 2.8 3.35z" fill="none" stroke="#5c2e00" stroke-linecap="round" stroke-linejoin="round" stroke-opacity=".44314" stroke-width=".05"/>
</g>
<g id="a" transform="translate(4.55,4.5)">
<use transform="translate(-4.55,-4.5)" width="9.0500002" height="9" xlink:href="#c"/>
</g>
<g id="c" transform="translate(4.55,4.5)">
<path d="m0.5-4.4q1.85 0.2 2.95 1.6 1.15 1.4 0.9 3.2-0.25 1.85-1.7 3-1.4 1.15-3.25 0.95-1.8-0.15-2.95-1.6-1.1-1.4-0.85-3.25 0.25-1.8 1.65-2.95 1.45-1.1 3.25-0.95" fill="#fff" fill-rule="evenodd"/>
<path d="m0.5-4.4q-1.8-0.15-3.25 0.95-1.4 1.15-1.65 2.95-0.25 1.85 0.85 3.25 1.15 1.45 2.95 1.6 1.85 0.2 3.25-0.95 1.45-1.15 1.7-3 0.25-1.8-0.9-3.2-1.1-1.4-2.95-1.6z" fill="none" stroke="#2b3e4a" stroke-linecap="round" stroke-linejoin="round" stroke-opacity=".41176" stroke-width=".25"/>
<path d="m-0.55 0.85-0.25-1.05 0.5-0.9q0.35-0.35 0.85-0.3 0.55 0.05 0.8 0.45 0.3 0.4 0.2 1-0.05 0.65-0.45 0.95-0.35 0.35-0.85 0.3t-0.8-0.45" fill-rule="evenodd"/>
</g>
</defs>
</svg>
