<?xml version="1.0" encoding="UTF-8"?>
<svg version="1.1" viewBox="0 0 23.85 29.8" xmlns="http://www.w3.org/2000/svg" xmlns:cc="http://creativecommons.org/ns#" xmlns:dc="http://purl.org/dc/elements/1.1/" xmlns:rdf="http://www.w3.org/1999/02/22-rdf-syntax-ns#" xmlns:xlink="http://www.w3.org/1999/xlink">
<metadata>
<rdf:RDF>
<cc:Work rdf:about="">
<dc:format>image/svg+xml</dc:format>
<dc:type rdf:resource="http://purl.org/dc/dcmitype/StillImage"/>
</cc:Work>
</rdf:RDF>
</metadata>
<g transform="translate(-263.55,-184.95)">
<use transform="translate(263.55,184.95)" width="23.85" height="29.799999" xlink:href="#d"/>
<use transform="matrix(.1759 0 0 .1759 271.6 185.2)" width="43.25" height="21.65" xlink:href="#a"/>
<use transform="translate(266.8,188.4)" width="19.200001" height="20.15" xlink:href="#b"/>
</g>
<defs>
<g id="d" transform="translate(-263.55,-184.95)">
<path d="m285 197 0.3 0.7-0.2 0.05-0.1-0.75m-19 0.7 0.3-0.7-0.1 0.75-0.2-0.05" fill="#f66" fill-rule="evenodd"/>
<path d="m272.55 196.65 0.25 1.1q0 0.7-0.45 1.1l-0.25 0.15-1.65 0.25-1.55-0.25q-0.6-0.35-0.6-1.25 0-0.95 0.65-1.65 0.65-0.65 1.6-0.6 0.95-0.05 1.6 0.6l0.4 0.55m12.75 1.05q0.6 1.7 0.65 3.7-0.05 4.25-3.05 7.25t-7.25 3.05q-4.3-0.05-7.3-3.05t-3-7.25q0-2 0.65-3.7l0.2 0.05q0 1.95 2.75 3.3 2.8 1.35 6.7 1.35t6.65-1.35q2.8-1.35 2.8-3.3l0.2-0.05m-2.65-1.1q0 0.7-0.5 0.9l-1.15 0.2-0.8-0.1-0.3-0.1q-0.35-0.15-0.4-0.6l-0.05-0.3q0-0.65 0.45-1.15 0.5-0.45 1.15-0.45t1.15 0.45q0.45 0.5 0.45 1.15m-10.1 10.65-0.2 0.75q0 0.65 0.45 1.1t1.1 0.45 1.1-0.45 0.45-1.1v-0.05q0-0.6-0.45-1.05t-1.1-0.45-1.1 0.45l-0.2 0.3-0.05-0.05v0.1m4.75 0.45h-0.1q-0.35-0.05-0.6 0.2t-0.25 0.6l0.05 0.2 0.2 0.4 0.6 0.25 0.6-0.25 0.25-0.6-0.25-0.6-0.5-0.2m-1.5 2q-0.15 0.15-0.15 0.35l0.15 0.3 0.35 0.15 0.3-0.15 0.2-0.3-0.2-0.35-0.3-0.15q-0.2 0-0.35 0.15" fill="#7da4c4" fill-rule="evenodd"/>
<path d="m277.3 207.7 0.5 0.2 0.25 0.6-0.25 0.6-0.6 0.25-0.6-0.25-0.2-0.4-0.05-0.2q0-0.35 0.25-0.6t0.6-0.2h0.1m-4.7-0.5 0.2-0.3q0.45-0.45 1.1-0.45t1.1 0.45 0.45 1.05v0.05q0 0.65-0.45 1.1t-1.1 0.45-1.1-0.45-0.45-1.1l0.2-0.75 0.05-0.05m3.2 2.5q0.15-0.15 0.35-0.15l0.3 0.15 0.2 0.35-0.2 0.3-0.3 0.15-0.35-0.15-0.15-0.3q0-0.2 0.15-0.35" fill="#345774" fill-rule="evenodd"/>
<path d="m272.55 196.65-0.4-0.55q-0.65-0.65-1.6-0.6-0.95-0.05-1.6 0.6-0.65 0.7-0.65 1.65 0 0.9 0.6 1.25l1.55 0.25 1.65-0.25 0.25-0.15q0.45-0.4 0.45-1.1l-0.25-1.1m-6.25 0.35 0.55-1q0.7-0.85 2.1-1.55 2.8-1.35 6.7-1.35t6.65 1.35l2.1 1.5 0.6 1.05 0.1 0.75q0 1.95-2.8 3.3-2.75 1.35-6.65 1.35t-6.7-1.35q-2.75-1.35-2.75-3.3l0.1-0.75m16.35-0.4q0-0.65-0.45-1.15-0.5-0.45-1.15-0.45t-1.15 0.45q-0.45 0.5-0.45 1.15l0.05 0.3q0.05 0.45 0.4 0.6l0.3 0.1 0.8 0.1 1.15-0.2q0.5-0.2 0.5-0.9" fill="#a8c1d7" fill-rule="evenodd"/>
<path d="m286.9 210.75q0 1.65-2.3 2.8-2.35 1.15-5.6 1.2-3.3-0.05-5.6-1.2t-2.3-2.8q0-1.6 2.3-2.8 2.3-1.15 5.6-1.15 3.25 0 5.6 1.15 2.3 1.2 2.3 2.8" fill-opacity=".30196" fill-rule="evenodd"/>
<path d="m263.8 201.2 0.05-1.4q0.15-1.6 0.75-2.95 0.5-1.25 1.3-2.35l1.3-1.6q3.45-3.4 8.3-3.4 4.8 0 8.25 3.4l0.95 1.15 1.4 2.2q0.65 1.4 0.9 2.95l0.15 1.85v0.15q0 4.8-3.4 8.25-3.45 3.4-8.25 3.4-4.85 0-8.3-3.4-3.3-3.35-3.4-8v-0.25m1.65 0.15q-0.05 4.2 3 7.25 3 3 7.25 3 4.2 0 7.25-3 3-3.05 3-7.25 0-4.25-3-7.25-3.05-3.05-7.25-3.05-4.25 0-7.25 3.05-3.05 3-3 7.25" fill="#997539" fill-opacity=".50196" fill-rule="evenodd"/>
<path d="m265.45 201.35q-0.05-4.25 3-7.25 3-3.05 7.25-3.05 4.2 0 7.25 3.05 3 3 3 7.25 0 4.2-3 7.25-3.05 3-7.25 3-4.25 0-7.25-3-3.05-3.05-3-7.25" fill="#997539" fill-opacity=".30196" fill-rule="evenodd"/>
<path d="m263.8 201.2v0.25q0.1 4.65 3.4 8 3.45 3.4 8.3 3.4 4.8 0 8.25-3.4 3.4-3.45 3.4-8.25v-0.15l-0.15-1.85q-0.25-1.55-0.9-2.95l-1.4-2.2-0.95-1.15q-3.45-3.4-8.25-3.4-4.85 0-8.3 3.4l-1.3 1.6q-0.8 1.1-1.3 2.35-0.6 1.35-0.75 2.95z" fill="none" stroke="#000" stroke-linecap="round" stroke-linejoin="round" stroke-opacity=".30196" stroke-width=".5"/>
<path d="m279.55 187.65-0.75 5.05v0.1l-0.1 0.25v0.2l-0.5 0.65-0.15 0.1 0.75-5.35v-0.05l0.15-0.1 0.6-0.85m-5.9 6.55-0.2-0.1-0.35-0.2q-0.45-0.35-0.55-0.7v-0.05l-0.05-0.05-0.75-4.65-0.05-0.25-0.1-0.55 0.1 0.3 0.65 0.65 0.2 0.15h0.05l0.5 0.85q0.4 0.55 0.95 0.35l0.45 3.75-0.55 0.2-0.3 0.3m3.25-8.6 0.65 0.5q0.25 0.25 0.85 0.3l0.65 0.1-0.9 0.15-1-0.2q-0.4-0.2-0.4-0.5l0.15-0.35" fill="#8a5702" fill-rule="evenodd"/>
<path d="m279.6 187.35-0.05 0.3-0.6 0.85-0.15 0.1v0.05l-0.4 0.2-0.75 0.3-1.75 0.3h-0.3l-0.7-0.05 0.15-0.05 0.05-0.05 0.45-0.6q0-0.4-0.45-0.65l-1.05-0.25-1 0.25q-0.45 0.25-0.45 0.65v0.05h-0.05l-0.2-0.15-0.65-0.65-0.1-0.3-0.05-0.35q0.15-0.55 0.8-1 0.15-0.15 0.45-0.25 1.15-0.6 2.8-0.6l1.3 0.15-0.15 0.35q0 0.3 0.4 0.5l1 0.2 0.9-0.15 0.55 0.85" fill="#de961e" fill-rule="evenodd"/>
<path d="m275.75 189.45h0.15v5q-0.4-0.45-0.95-0.65l-0.45-0.1-0.45-3.75q0.45-0.3 0.85-0.55l0.7 0.05h0.15m2.4 0.95q0.2-0.1 0.25 0.15l0.05 0.45-0.1 0.55-0.25 0.2-0.4-0.3-0.1-0.55 0.2-0.35 0.35-0.15" fill="#774b02" fill-rule="evenodd"/>
<path d="m278.05 194-0.15 0.1-1.4 0.4h-0.4l-0.1 0.05h-0.35l-1.1-0.1-0.9-0.25 0.3-0.3 0.55-0.2 0.45 0.1q0.55 0.2 0.95 0.65v-5l1.75-0.3 0.75-0.3 0.4-0.2-0.75 5.35m-3.15-4.6q-0.4 0.25-0.85 0.55-0.55 0.2-0.95-0.35l-0.5-0.85v-0.05q0-0.4 0.45-0.65l1-0.25 1.05 0.25q0.45 0.25 0.45 0.65l-0.45 0.6-0.05 0.05-0.15 0.05m3.25 1-0.35 0.15-0.2 0.35 0.1 0.55 0.4 0.3 0.25-0.2 0.1-0.55-0.05-0.45q-0.05-0.25-0.25-0.15" fill="#6a4302" fill-rule="evenodd"/>
<path d="m278.8 192.7v0.1m-0.1 0.45-0.5 0.65-0.3 0.2-1.4 0.4h-0.15l-0.35 0.05h-0.35l-1.1-0.1-0.9-0.25-0.2-0.1-0.35-0.2q-0.45-0.35-0.55-0.7m-1-5.9q0.15-0.55 0.8-1 0.15-0.15 0.45-0.25 1.15-0.6 2.8-0.6l1.3 0.15 0.65 0.5q0.25 0.25 0.85 0.3l0.65 0.1 0.55 0.85" fill="none" stroke="#000" stroke-linecap="round" stroke-linejoin="round" stroke-opacity=".30196"/>
<path d="m279.6 187.35-0.05 0.3-0.75 5.05m0 0.1-0.1 0.25v0.2m-6.15-0.05v-0.05m-0.05-0.05-0.75-4.65m-0.05-0.25-0.1-0.55-0.05-0.35" fill="none" stroke="#000" stroke-linecap="round" stroke-linejoin="round" stroke-opacity=".30196"/>
<path d="m276.9 185.6-0.15 0.35q0 0.3 0.4 0.5l1 0.2 0.9-0.15m-3.3 2.95h-0.15l-0.7-0.05m2.75-0.25 0.75-0.3 0.1-0.05m0.45-0.3 0.6-0.85m-7.85 0.3-0.1-0.3m1 1.1h-0.05" fill="none" stroke="#000" stroke-linecap="round" stroke-linejoin="round" stroke-opacity=".30196" stroke-width=".5"/>
</g>
<g id="a">
<use width="43.25" height="21.65" xlink:href="#c"/>
</g>
<g id="c">
<path d="m36.9 3.15q6.35 3.2 6.35 7.65 0 4.5-6.35 7.65-6.3 3.2-15.25 3.2t-15.3-3.2q-6.35-3.15-6.35-7.65 0-4.45 6.35-7.65 6.35-3.15 15.3-3.15t15.25 3.15" fill="#fff" fill-rule="evenodd"/>
</g>
<g id="b" transform="translate(-266.8,-188.4)">
<path d="m266.85 199.35q-0.2-1.65 0.75-3.25 0.95-1.65 2.45-2.35t2.65 0q1.2 0.65 1.35 2.35t-0.55 3.55-2.35 2.35q-1.6 0.45-2.85-0.25-1.3-0.75-1.45-2.4" fill="#fff" fill-opacity=".25098" fill-rule="evenodd"/>
<path d="m279.6 193.15 3-0.05q1.65 0.85 2.65 2.85 0.95 2 0.7 4t-1.7 2.9-3.25 0.35q-1.85-0.6-2.55-2.85-0.75-2.3-0.5-4.35t1.65-2.85" fill-opacity=".15294" fill-rule="evenodd"/>
<path d="m279.7 192.2-0.4 0.25-0.9 0.35-1.6 0.3-1.1 0.05-2.1-0.2-0.15-0.05-0.95-0.3-0.35-0.15-0.75-0.45q-0.75-0.65-0.75-1.35 0-1 1.25-1.65l0.25 1.35v0.1l0.05 0.3q0.15 0.5 1 0.9 1 0.55 2.45 0.55l1.2-0.1 1.25-0.45q0.9-0.45 1-1.1l0.05-0.05 0.2-1.65q1.4 0.75 1.4 1.8l-0.2 0.8h-0.05l-0.75 0.75h-0.05" fill="#813a26" fill-opacity=".30196" fill-rule="evenodd"/>
<path d="m280.5 191.45v0.3l-0.2 0.55-0.55 0.4-0.05-0.5h0.05l0.75-0.75m-2.1 1.35q0.2 0.55-0.35 0.65l-1.15 0.15h-0.15l-0.9 0.1h-1.3l-0.7-0.2-0.2-0.25-0.05-0.3 2.1 0.2 1.1-0.05 1.6-0.3m-5.9-0.2-0.1 0.5-0.7-0.4-0.3-0.5v-0.2l0.75 0.45 0.35 0.15" fill="#813925" fill-opacity=".50196" fill-rule="evenodd"/>
<path d="m271.9 189 0.3 1.4 0.05 0.3 0.15 0.3 0.3 0.3 0.2 0.15 0.3 0.15 0.65 0.25 1.85 0.3 1.8-0.25 0.65-0.3 0.35-0.15 0.2-0.2 0.4-0.45 0.1-0.4-0.05-0.2 0.2-1.3q1.3 0.65 1.4 1.6v0.1q0 1.05-1.45 1.8l-0.35 0.15-0.25 0.1-2.1 0.45-0.85 0.05h-0.3l-2.35-0.35-0.55-0.2-0.4-0.2-0.55-0.3q-0.85-0.6-0.9-1.35v-0.15q0-0.95 1.2-1.6" fill="#c7bb92" fill-opacity=".50196" fill-rule="evenodd"/>
<path d="m280.75 190.5 0.15 0.6q0 1.05-1.5 1.8l-0.7 0.3-2.95 0.45-3.15-0.55h-0.1l-0.35-0.2q-1.5-0.75-1.5-1.8-0.05-0.2 0.05-0.35 0.05 0.75 0.9 1.35l0.55 0.3 0.4 0.2 0.55 0.2 2.35 0.35h0.3l0.85-0.05 2.1-0.45 0.25-0.1 0.35-0.15q1.45-0.75 1.45-1.8v-0.1" fill="#c7bb92" fill-opacity=".8" fill-rule="evenodd"/>
<path d="m278.7 193.2-0.5 0.7-0.1 0.1-0.2 0.1-1.9 0.45h-0.3l-1.1-0.1-0.95-0.25-0.2-0.1-0.35-0.2-0.5-0.8 3.15 0.55 2.95-0.45" fill="#c4b58f" fill-opacity=".30196" fill-rule="evenodd"/>
<path d="m280.75 190.5 0.15 0.6q0 1.05-1.5 1.8l-0.7 0.3-2.95 0.45-3.15-0.55h-0.1l-0.35-0.2q-1.5-0.75-1.5-1.8-0.05-0.2 0.05-0.35" fill="none" stroke="#000" stroke-linecap="round" stroke-linejoin="round" stroke-opacity=".30196" stroke-width=".5"/>
<path d="m279.35 188.9q1.3 0.65 1.4 1.6m-10.05 0.25v-0.15q0-0.95 1.2-1.6" fill="none" stroke="#000" stroke-linecap="round" stroke-linejoin="round" stroke-opacity=".30196"/>
<path d="m275.1 208.05h-0.05 0.05" fill="#cecbb3" fill-rule="evenodd"/>
<path d="m275.1 208.05h-0.05 0.05" fill="#c5c1a5" fill-rule="evenodd"/>
<path d="m275.05 208.05-1.95-0.05-1.95-0.45-2.1-0.45q-2-4.25-0.95-7.7 0.45-1.65 1.15-3.15l1.6 0.25 2.6 2.45 1.05-1.85 1.75 0.3 1.05 1.4 0.25 0.55 0.35 0.45q0.1 0.45 0.55 0.9l0.65 0.65q0.15 3.2-1.7 5.8l-2.3 0.9h-0.05" fill="#e6ddc1" fill-rule="evenodd"/>
<path d="m276.25 197.4q0.5-0.5 0.85-0.2 0.3 0.3 5-1l1.4 3.1q1.05 2.6-0.95 7.85l-1.8 0.35-2.2 0.3-1.55 0.2-1.9 0.05 2.3-0.9q1.85-2.6 1.7-5.8l-0.65-0.65q-0.45-0.45-0.55-0.9l-0.35-0.45-0.25-0.55-1.05-1.4" fill="#dacea5" fill-rule="evenodd"/>
<path d="m282.1 196.2 1.4 3.1q1.05 2.6-0.95 7.85l-1.8 0.35-2.2 0.3-1.55 0.2-1.9 0.05h-0.05l-1.95-0.05-1.95-0.45-2.1-0.45" fill="none" stroke="#8e885b" stroke-linecap="round" stroke-linejoin="round"/>
<path d="m269.05 207.1q-2-4.25-0.95-7.7 0.45-1.65 1.15-3.15l1.6 0.25 2.6 2.45 1.05-1.85" fill="none" stroke="#977200" stroke-linecap="round" stroke-linejoin="round" stroke-width=".05"/>
<path d="m273.1 202.2 0.05-0.95 0.25-1.2 0.1-0.1 0.4-0.8 1.85-1.25h0.25l0.1 0.3-0.95 1.35 0.05 0.25 0.6 0.1-0.65 0.3 0.05 1.25 1.1 2.1 0.85-0.3v0.05l-0.4 0.15-1.45 0.7-1.55 0.2-0.5-0.4-0.1-0.55 0.35-0.3 1 0.55-0.5-0.9 0.7-0.8-0.95 0.2-0.25-1-0.2 1-0.2 0.05" fill="#5c829c" fill-rule="evenodd"/>
<path d="m277.15 203.25-0.85 0.3-1.1-2.1-0.05-1.25 0.65-0.3-0.6-0.1-0.05-0.25 0.95-1.35 0.25 0.35-0.15 1v0.3l0.9 1.25 0.05 0.25 0.35 0.95-0.35 0.95m-0.95-3.4-0.25-0.4-0.15-0.3 0.15 0.3 0.25 0.4" fill="#3f596b" fill-rule="evenodd"/>
<path d="m276.75 203.45 0.4-0.15v-0.05l0.35-0.95-0.35-0.95 2.05-0.45 0.7 0.05-0.5 0.5 0.65-0.35 0.3 0.75-0.45 1.2-0.25 0.25-2.9 0.15" fill="#4d7082" fill-rule="evenodd"/>
<path d="m273.15 203.4 0.1 0.55 0.5 0.4 1.55-0.2 1.45-0.7 2.9-0.15-1.15 1.15-4.85 1.75h-1.7l-0.8-0.65-0.05-0.5 0.45-1.1 0.75-0.9 0.8-0.55v0.2l0.05 0.7" fill="#7da4c4" fill-rule="evenodd"/>
<path d="m273.1 202.2 0.2-0.05 0.2-1 0.25 1 0.95-0.2-0.7 0.8 0.5 0.9-1-0.55-0.35 0.3-0.05-0.7v-0.5" fill="#ff6" fill-rule="evenodd"/>
<path d="m276.1 198.2-0.1-0.3h-0.25l-1.85 1.25-0.4 0.8-0.1 0.1-0.25 1.2-0.05 0.95m0.05 1.2 0.1 0.55 0.5 0.4 1.55-0.2 1.45-0.7 0.4-0.15v-0.05l0.35-0.95-0.35-0.95 2.05-0.45 0.7 0.05-0.5 0.5 0.65-0.35 0.3 0.75-0.45 1.2-1.4 1.4-4.85 1.75h-1.7l-0.8-0.65-0.05-0.5 0.45-1.1 0.75-0.9 0.8-0.55v-0.3m3-4 0.25 0.35-0.15 1v0.3l0.9 1.25 0.05 0.25m-1.35-2.2 0.15 0.3 0.25 0.4m-3.1 2.65v0.2l0.05 0.7" fill="none" stroke="#47392b" stroke-linecap="round" stroke-linejoin="round" stroke-opacity=".62353" stroke-width=".05"/>
</g>
</defs>
</svg>
