<?xml version="1.0" encoding="UTF-8"?>
<svg version="1.1" viewBox="0 0 80 103.75" xmlns="http://www.w3.org/2000/svg" xmlns:cc="http://creativecommons.org/ns#" xmlns:dc="http://purl.org/dc/elements/1.1/" xmlns:rdf="http://www.w3.org/1999/02/22-rdf-syntax-ns#" xmlns:xlink="http://www.w3.org/1999/xlink">
<metadata>
<rdf:RDF>
<cc:Work rdf:about="">
<dc:format>image/svg+xml</dc:format>
<dc:type rdf:resource="http://purl.org/dc/dcmitype/StillImage"/>
</cc:Work>
</rdf:RDF>
</metadata>
<g transform="translate(-234.98 -148.08)">
<use transform="translate(235,148.1)" width="79.949997" height="103.7" xlink:href="#a"/>
</g>
<defs>
<g id="a" transform="translate(-235,-148.1)">
<path d="m238.55 184.5-3.55-8.75 2.5-7.05 5.05-3.8h6.35l39.85-16.8 3.4 2.35 0.65 4.3-1.8-1.45-0.45-0.3-0.4-1.85-38.3 17.45q-4.35-1.05-6.95 0-2.85 2.2-3.95 4.8-0.75 3.15 0 6.35 1 2.7 3.25 5.45l0.45 0.6 0.4 0.45q5.05 3.35 11.75 3.45 3.2-0.6 4.15-2.85 0-3.65-3.05-6.95h2.6l34.65-14.45 2.85 3.5-15.75 6.55-18.5 7.7q0.9 1.3 1.25 2.6l0.2 1.5-0.1 1.05q-1 2.8-4.65 4.6l-2.95 0.55q-4.1 0.55-7.85-0.65-2.5-1-10.8-8.1 8.3 7.1 10.8 8.1 3.75 1.2 7.85 0.65l0.8 9-4.45 0.15q-3.6 0-6.8-1.65l-1.05-0.75-2.6-1.8-3.65-2.55v-2.6l-1.1-8.6-0.1-0.2 0.15 0.15 0.15 0.1-0.15-0.1-0.15-0.15m16.05 60.1q-3.1-5.2-2.55-9.8l0.3 0.05 5.65 0.7h0.7l0.85-0.1 1.75-0.4q0.05 5.2-2.7 10.45l-2.85-0.55-1.15-0.35m-6.95-26.65-3.05-4.8q-2.5-6.4-0.35-11l1.6 1.2q4.15 2.75 9.45 2.6l3.05-0.45q2 4.9-0.1 10.1-0.85 2.1-0.8 4.4-3.75 0.35-8.15-1.35l-1.65-0.7m-8.95-33.3-0.05 0.05 0.05-0.05" fill="#976831" fill-rule="evenodd"/>
<path d="m257.5 193.5 2.95-0.55q3.65-1.8 4.65-4.6l0.25-0.05 1.05 7.85q-0.45 1.8-1.55 3l-1.45 1.15q-2.1 1.65-5.1 2.2l-0.8-9m40.5-24.55-2.85-3.5 7.05-2.95 0.25-0.1 9.05-3.75 3.45 3.3-1.05 24.05-2.05-0.1q-9.65-1.1-13.8-16.95h-0.05m-53.8 16.25q-2.25-2.75-3.25-5.45-0.75-3.2 0-6.35 1.1-2.6 3.95-4.8 2.6-1.05 6.95 0l38.3-17.45 0.4 1.85-37.5 17.6-7.15-0.25q-2.7 2.15-3.6 4.6-0.55 3.05 0.4 6.1l1.7 4.1-0.2 0.05m68.45 28.7-0.9 18.55-9.4 2.9-0.1-1.7q-0.35-11.1 8.5-18.3l1.9-1.45m2.3-51.95-1.1 0.45 1.1-0.45m-1.1 0.45-15.8 6.55 15.8-6.55m-48.1 39.4q1.15 2 1.9 4.75l1.05 5.5-1.55 2.2q-2.7 3.4-6.1 4.85-1.7 0.7-3.6 0.9-0.05-2.3 0.8-4.4 2.1-5.2 0.1-10.1l1.95-0.5q3.15-1.1 5.45-3.2m4.55 28.8 1.05-0.4 2.45 9.65q-2.45 1.95-5.05 3.3-3.2 1.65-6.6 2.4l-3.55-0.05q2.75-5.25 2.7-10.45 3.85-1.05 7.45-3.4l1.55-1.05" fill="#61431f" fill-rule="evenodd"/>
<path d="m265.2 187.3-0.2-1.5q-0.35-1.3-1.25-2.6l18.5-7.7-10.4 14.7v14.85l3.5 18.05 7 14.75 1.05 3.4-7.95 2.5-1.65 2.25v-6.15l-2.45-9.65-1.05 0.4-3.15-16.35 1.55-2.2-1.05-5.5q-0.75-2.75-1.9-4.75l-0.9-2.65q1.1-1.2 1.55-3l-1.05-7.85-0.15-1" fill="#bb7c3e" fill-rule="evenodd"/>
<path d="m282.25 175.5 15.75-6.55h0.05q4.15 15.85 13.8 16.95l2.05 0.1-1.25 27.9-1.9 1.45q-8.85 7.2-8.5 18.3l0.1 1.7-18.95 5.9-1.05-3.4-7-14.75-3.5-18.05v-14.85l10.4-14.7m-8.45 70.5-4.15 5.8h-10.45l-4.6-7.2 1.15 0.35 2.85 0.55 3.55 0.05q3.4-0.75 6.6-2.4 2.6-1.35 5.05-3.3v6.15m-21.75-11.2-4.4-16.85 1.65 0.7q4.4 1.7 8.15 1.35 1.9-0.2 3.6-0.9 3.4-1.45 6.1-4.85l3.15 16.35-1.55 1.05q-3.6 2.35-7.45 3.4l-1.75 0.4-1.55 0.1-5.65-0.7-0.3-0.05m-7.8-32.65-0.85-3.7 2.6 1.8 1.05 0.75q3.2 1.65 6.8 1.65l4.45-0.15q3-0.55 5.1-2.2l1.45-1.15 0.9 2.65q-2.3 2.1-5.45 3.2l-1.95 0.5-3.05 0.45q-5.3 0.15-9.45-2.6l-1.6-1.2" fill="#cf9d6b" fill-rule="evenodd"/>
<path d="m295.15 165.45-34.65 14.45h-2.6q3.05 3.3 3.05 6.95-0.95 2.25-4.15 2.85-6.7-0.1-11.75-3.45l-0.4-0.45-0.25-0.65-1.7-4.1q-0.95-3.05-0.4-6.1 0.9-2.45 3.6-4.6l7.15 0.25 37.5-17.6 0.45 0.3 1.8 1.45 9.65 7.65-0.25 0.1-7.05 2.95m-4.1-6.75-41.9 20.35 41.9-20.35" fill="#e1fccb" fill-rule="evenodd"/>
<path d="m292.8 154.75-0.65-4.3-3.4-2.35-39.85 16.8h-6.35l-5.05 3.8-2.5 7.05 3.55 8.75 0.15 0.15 0.15 0.1m52.15-31.45 1.8 1.45 9.65 7.65 9.05-3.75 3.45 3.3-1.05 24.05-1.25 27.9-0.9 18.55-9.4 2.9-18.95 5.9-7.95 2.5-1.65 2.25-4.15 5.8h-10.45l-4.6-7.2q-3.1-5.2-2.55-9.8l-4.4-16.85-3.05-4.8q-2.5-6.4-0.35-11l-0.85-3.7-3.65-2.55v-2.6l-1.1-8.6-0.1-0.2m0.1 0.2 0.05-0.05m75.15-22.25 1.1-0.45m-12.75 0.55 0.25-0.1m11.45 23.6-2.05-0.1m-1.1 29.45 1.9-1.45m-10.3 21.45-0.1-1.7m-28.45 9.7v2.65m-27.95-42.65-1.6-1.2m-0.85-3.7 2.6 1.8m1.65 17.7 1.65 0.7m2.75 16.15 0.3 0.05m3.4 10.1-1.15-0.35" fill="none" stroke="#000" stroke-linecap="round" stroke-linejoin="round" stroke-width=".05"/>
<path d="m238.85 184.75q8.3 7.1 10.8 8.1 3.75 1.2 7.85 0.65l2.95-0.55q3.65-1.8 4.65-4.6l0.1-1.05-0.2-1.5q-0.35-1.3-1.25-2.6l18.5-7.7 15.75-6.55-2.85-3.5-34.65 14.45h-2.6q3.05 3.3 3.05 6.95-0.95 2.25-4.15 2.85-6.7-0.1-11.75-3.45l-0.4-0.45-0.45-0.6q-2.25-2.75-3.25-5.45-0.75-3.2 0-6.35 1.1-2.6 3.95-4.8 2.6-1.05 6.95 0l38.3-17.45 0.4 1.85 0.45 0.3m-46.6 31.85-1.7-4.1q-0.95-3.05-0.4-6.1 0.9-2.45 3.6-4.6l7.15 0.25 37.5-17.6m-45.9 32.8-0.25-0.65m20.45 14q1.1-1.2 1.55-3l-1.05-7.85-0.15-1m32.8-18.35h0.05l15.8-6.55m-18.7 3.05 7.05-2.95m9.65 23.4q-9.65-1.1-13.8-16.95m-48.9 10.1 41.9-20.35m11.2 74.95q-0.35-11.1 8.5-18.3m-45.9-16.2 0.9 2.65q1.15 2 1.9 4.75l1.05 5.5-1.55 2.2 3.15 16.35 1.05-0.4 2.45 9.65v3.5m-15.5-40.85q3-0.55 5.1-2.2l1.45-1.15m0.9 2.65q-2.3 2.1-5.45 3.2l-1.95 0.5-3.05 0.45q-5.3 0.15-9.45-2.6m11.6 16.65q1.9-0.2 3.6-0.9 3.4-1.45 6.1-4.85m-21.15-14 1.05 0.75q3.2 1.65 6.8 1.65l4.45-0.15m-9 16.15q4.4 1.7 8.15 1.35m-5.1 14.85 5.65 0.7 1.55-0.1 1.75-0.4q3.85-1.05 7.45-3.4l1.55-1.05m3.5 9.25q-2.45 1.95-5.05 3.3-3.2 1.65-6.6 2.4l-3.55-0.05-2.85-0.55m2.25-9.4h0.7l0.85-0.1" fill="none" stroke="#000" stroke-linecap="round" stroke-linejoin="round" stroke-opacity=".30196" stroke-width=".05"/>
<path d="m280.75 224.25-0.75-1.35-0.2-0.5q-1.8-5.55-1.2-11.35l1.9-27.8 4.15 22.9q4.95-5.2 9.55-4.15l0.9-24.65 5.5 25.85q0.8 3.8 0.5 7.15 0 1.5-0.4 3.15-0.9 3.1-2.55 6.75l-1.85-0.3 1.85 0.3q-1.9 2.85-6.1 5-4.8 2.1-7.9 1.35l0.6-0.5-0.6 0.5q-2.1-0.55-3.4-2.35l2.95-0.05-2.95 0.05m8.35-10.15q-1-0.85-2.45-0.7-1.45 0.1-2.5 1.2-1 1.05-1 2.4t0.8 1.15q0.75-0.2 1.95-1.5t2.75-0.15q1.5 1.1 1.5-0.25t-1.05-2.15m3.3 1.05q0.25 1.05 1.25-0.35 0.95-1.45 2.15-0.85 1.2 0.55 1.85 0.45t0.4-1.15q-0.25-1.1-1.25-1.55l-2.2-0.1q-1.15 0.4-1.8 1.4-0.7 1.05-0.4 2.15m4.25 2.6 4.05-4.25-4.05 4.25" fill="#bb7c3e" fill-rule="evenodd"/>
<path d="m280.75 224.25-0.75-1.35-0.2-0.5q-1.8-5.55-1.2-11.35l1.9-27.8 4.15 22.9q4.95-5.2 9.55-4.15l0.9-24.65 5.5 25.85q0.8 3.8 0.5 7.15 0 1.5-0.4 3.15l9.7-10.4m-21.3 11q1.05 0.8 1.05 2.15t-1.5 0.25q-1.55-1.15-2.75 0.15t-1.95 1.5q-0.8 0.2-0.8-1.15t1-2.4q1.05-1.1 2.5-1.2 1.45-0.15 2.45 0.7m3.3 1.05q0.25 1.05 1.25-0.35 0.95-1.45 2.15-0.85 1.2 0.55 1.85 0.45t0.4-1.15q-0.25-1.1-1.25-1.55l-2.2-0.1q-1.15 0.4-1.8 1.4-0.7 1.05-0.4 2.15m3.9 4.8 1.85 0.3q1.65-3.65 2.55-6.75l-4.05 4.25m1.5 2.5 3.8 0.4m-17.2 5.45-0.6 0.5q3.1 0.75 7.9-1.35 4.2-2.15 6.1-5m-17.4 4h-4.95m8.35 2.35-4.3 3.5m3.85-5.9-2.95 0.05q1.3 1.8 3.4 2.35" fill="none" stroke="#000" stroke-linecap="round" stroke-linejoin="round" stroke-opacity=".25098" stroke-width=".05"/>
</g>
</defs>
</svg>
