<?xml version="1.0" encoding="UTF-8" standalone="no"?>
<!DOCTYPE svg PUBLIC "-//W3C//DTD SVG 1.1//EN" "http://www.w3.org/Graphics/SVG/1.1/DTD/svg11.dtd">
<svg width="100%" height="100%" viewBox="0 0 1014 1709" version="1.1" xmlns="http://www.w3.org/2000/svg" xmlns:xlink="http://www.w3.org/1999/xlink" xml:space="preserve" xmlns:serif="http://www.serif.com/" style="fill-rule:evenodd;clip-rule:evenodd;stroke-linecap:round;stroke-linejoin:round;">
    <g transform="matrix(1,0,0,1,-2077.25,-790.75)">
        <g transform="matrix(10,0,0,10,287.5,-109)">
            <g id="sprite0">
                <g id="shape0">
                    <path d="M265.35,90.1L257.15,96.4L267.9,107.15L267.9,130.15L261.1,139.75L257.35,146.75L246.6,158L245.15,157.9C246.35,155.667 246.833,153.1 246.6,150.2C244.367,152.367 242.883,154.933 242.15,157.9L236.05,158.45C235.717,157.883 235.533,157.25 235.5,156.55C235.467,155.483 235.583,154.483 235.85,153.55L237.1,153.05C237.6,153.45 237.717,153.15 237.45,152.15L237,150.05L234.75,149.95L234.6,150.05C232.867,153.25 231.317,156.517 229.95,159.85L227.55,160.65L230.6,146L232.05,123.65L233.1,107.5C233.433,106.767 235.017,104.367 237.85,100.3C240.683,96.167 247.767,92.933 259.1,90.6L265.35,90.1M224.85,161.5L210.85,119.65L207.6,106.4L210.85,101.4L216.6,111.4L222.75,139.1L227.55,160.65L224.85,161.5M185.9,251.9L179.1,241.8L179.1,227.05L186.6,217.8L208.85,194.55L219.75,177.15L221.6,179.5L224.3,180.65L227.15,190.65L231.65,187.4L234.9,199.9L228.15,214.45L222.15,224.2L211.15,236.7L194.4,249.7L185.9,251.9M231,191.55L228.1,191.55L231,196.05L231,191.55M249.9,200.85L251.65,222.4L239.4,244.95L219.65,260.7L219.65,253.2L239.4,223.2L242,211.5L249.9,200.85M236.1,189.25L241.25,190.25L237.35,197.55L236.1,189.25M237.05,203.3L239.3,203.8L233.05,213.25L237.05,203.3M216.45,221.4C220.55,217.2 223.733,212.467 226,207.2C226.533,206 226.833,204.65 226.9,203.15L223.65,200.4C220.983,205.567 218.45,210.983 216.05,216.65L215.9,216.9L216.1,216.85L218.85,216L219.15,216.15C218.417,217.883 217.417,219.55 216.15,221.15L214.9,222.9L216.45,221.4" style="fill:#ff9601;"/>
                    <path d="M267.9,130.15L267.9,107.15L257.15,96.4L265.35,90.1C273.05,90.533 278.017,95.633 280.25,105.4L280.25,108.4L269.6,147.75L258.35,163.75C255.583,161.083 251.667,159.167 246.6,158L257.35,146.75L261.1,139.75L267.9,130.15M229.95,159.85C231.317,156.517 232.867,153.25 234.6,150.05L234.75,149.95L237,150.05L237.45,152.15C237.717,153.15 237.6,153.45 237.1,153.05L235.85,153.55C235.583,154.483 235.467,155.483 235.5,156.55C235.533,157.25 235.717,157.883 236.05,158.45C233.983,158.75 231.95,159.217 229.95,159.85M242.15,157.9C242.883,154.933 244.367,152.367 246.6,150.2C246.833,153.1 246.35,155.667 245.15,157.9L242.15,157.9M251.85,178.5C248.483,176.333 244.4,174.417 239.6,172.75C234.267,171.083 228.917,170.2 223.55,170.1C229.35,168.567 235.25,167.867 241.25,168C246.217,168.267 251.083,169.183 255.85,170.75L253.85,174.65L251.85,178.5M224.3,180.65L233.85,184.75L248.85,188.5L244.55,199.75L248.85,188.5L249.9,200.85L242,211.5L244.55,199.75L237.85,217.3L212.1,246.55L202.6,256.75L186.85,253.3L185.9,251.9L194.4,249.7L211.15,236.7L222.15,224.2L228.15,214.45L234.9,199.9L231.65,187.4L227.15,190.65L224.3,180.65M231,191.55L231,196.05L228.1,191.55L231,191.55M236.1,189.25L237.35,197.55L241.25,190.25L236.1,189.25M237.05,203.3L233.05,213.25L239.3,203.8L237.05,203.3M216.05,216.65C218.45,210.983 220.983,205.567 223.65,200.4L226.9,203.15C226.833,204.65 226.533,206 226,207.2C223.733,212.467 220.55,217.2 216.45,221.4L216.15,221.15C217.417,219.55 218.417,217.883 219.15,216.15L219.25,215.85L218.85,216L216.1,216.85L216.05,216.65" style="fill:#c0590e;"/>
                    <path d="M233.1,107.5L232.05,123.65L222.75,139.1L216.6,111.4L223.1,111.4L233.1,107.5" style="fill:#fce7b8;"/>
                    <path d="M232.05,123.65L230.6,146L227.55,160.65L222.75,139.1L232.05,123.65M212.1,246.55L237.85,217.3L244.55,199.75L242,211.5L239.4,223.2L219.65,253.2L212.1,246.55" style="fill:#bdad8a;"/>
                    <path d="M227.55,160.65L229.95,159.85C231.95,159.217 233.983,158.75 236.05,158.45L242.15,157.9L245.15,157.9L246.6,158C251.667,159.167 255.583,161.083 258.35,163.75C260.217,165.95 260.8,168.283 260.1,170.75L257.75,173.55L253.85,174.65L255.85,170.75C251.083,169.183 246.217,168.267 241.25,168C235.25,167.867 229.35,168.567 223.55,170.1C228.917,170.2 234.267,171.083 239.6,172.75C244.4,174.417 248.483,176.333 251.85,178.5C252.383,179.733 252.633,181.283 252.6,183.15C252.5,185.017 251.25,186.8 248.85,188.5L233.85,184.75L224.3,180.65L221.6,179.5L219.75,177.15L217.85,174.75C218.65,172.983 219.7,171.717 221,170.95C221.333,170.75 221.683,170.583 222.05,170.45L220.85,170.75L220.85,167C221.383,165.033 222.717,163.2 224.85,161.5L227.55,160.65M230.05,163.9C230.183,165.267 230.95,166.233 232.35,166.8C233.417,167.333 234.65,167.483 236.05,167.25L242.9,167.05L245.4,166.5C246.367,164.467 246.25,162.5 245.05,160.6L243.85,159.45C242.75,158.717 241.55,158.45 240.25,158.65C236.283,158.85 232.417,159.5 228.65,160.6L228.3,161L232.5,160.65L231.8,160.9C230.5,161.467 229.917,162.467 230.05,163.9M234.75,173.3C231.283,170.733 228.183,170.633 225.45,173C223.417,177.933 225.567,180.083 231.9,179.45C234.933,179.017 235.95,177.117 234.95,173.75L234.75,173.3M223.55,170.1L222.05,170.45L223.55,170.1" style="fill:#d6a70a;"/>
                    <path d="M230.05,163.9C229.917,162.467 230.5,161.467 231.8,160.9L232.5,160.65L228.3,161L228.65,160.6C232.417,159.5 236.283,158.85 240.25,158.65C241.55,158.45 242.75,158.717 243.85,159.45L245.05,160.6C246.25,162.5 246.367,164.467 245.4,166.5L242.9,167.05L236.05,167.25C234.65,167.483 233.417,167.333 232.35,166.8C230.95,166.233 230.183,165.267 230.05,163.9M239.15,161.45C237.817,161.917 237.333,162.85 237.7,164.25L238,164.65C239.233,165.317 240.317,165.117 241.25,164.05L241.5,163.4C241.4,162.033 240.617,161.383 239.15,161.45M234.75,173.3L234.95,173.75C235.95,177.117 234.933,179.017 231.9,179.45C225.567,180.083 223.417,177.933 225.45,173C228.183,170.633 231.283,170.733 234.75,173.3M231.55,173.95C230.583,174.283 230.15,174.983 230.25,176.05C230.35,177.05 230.967,177.433 232.1,177.2C232.833,177.067 233.217,176.617 233.25,175.85C233.35,174.65 232.783,174.017 231.55,173.95" style="fill:#f2d117;"/>
                    <path d="M239.15,161.45C240.617,161.383 241.4,162.033 241.5,163.4L241.25,164.05C240.317,165.117 239.233,165.317 238,164.65L237.7,164.25C237.333,162.85 237.817,161.917 239.15,161.45M231.55,173.95C232.783,174.017 233.35,174.65 233.25,175.85C233.217,176.617 232.833,177.067 232.1,177.2C230.967,177.433 230.35,177.05 230.25,176.05C230.15,174.983 230.583,174.283 231.55,173.95" style="fill:#fff;"/>
                    <path d="M218.85,216L219.25,215.85L219.15,216.15L218.85,216" style="fill:#f1eac2;"/>
                    <path d="M216.05,216.65L216.1,216.85L215.9,216.9L216.05,216.65M216.15,221.15L216.45,221.4L214.9,222.9L216.15,221.15" style="fill:#ddd195;"/>
                    <path d="M265.35,90.1L259.1,90.6C247.767,92.933 240.683,96.167 237.85,100.3C235.017,104.367 233.433,106.767 233.1,107.5L232.05,123.65L230.6,146L227.55,160.65L229.95,159.85C231.95,159.217 233.983,158.75 236.05,158.45L242.15,157.9L245.15,157.9L246.6,158L257.35,146.75L261.1,139.75L267.9,130.15M216.6,111.4L223.1,111.4L233.1,107.5M224.85,161.5L210.85,119.65L207.6,106.4L210.85,101.4L216.6,111.4L222.75,139.1L227.55,160.65L224.85,161.5C222.717,163.2 221.383,165.033 220.85,167L220.85,170.75L222.05,170.45L223.55,170.1C228.917,170.2 234.267,171.083 239.6,172.75C244.4,174.417 248.483,176.333 251.85,178.5L253.85,174.65L257.75,173.55L260.1,170.75C260.8,168.283 260.217,165.95 258.35,163.75C255.583,161.083 251.667,159.167 246.6,158M253.85,174.65L255.85,170.75C251.083,169.183 246.217,168.267 241.25,168C235.25,167.867 229.35,168.567 223.55,170.1M219.75,177.15L217.85,174.75C218.65,172.983 219.7,171.717 221,170.95C221.333,170.75 221.683,170.583 222.05,170.45M185.9,251.9L179.1,241.8L179.1,227.05L186.6,217.8L208.85,194.55L219.75,177.15L221.6,179.5L224.3,180.65L233.85,184.75L248.85,188.5C251.25,186.8 252.5,185.017 252.6,183.15C252.633,181.283 252.383,179.733 251.85,178.5M185.9,251.9L186.85,253.3L202.6,256.75L212.1,246.55L237.85,217.3L244.55,199.75L248.85,188.5L249.9,200.85L251.65,222.4L239.4,244.95L219.65,260.7L219.65,253.2L212.1,246.55M265.35,90.1C273.05,90.533 278.017,95.633 280.25,105.4L280.25,108.4L269.6,147.75L258.35,163.75M242,211.5L239.4,223.2L219.65,253.2M244.55,199.75L242,211.5" style="fill:none;fill-rule:nonzero;stroke:#000;stroke-opacity:0.37;stroke-width:0.25px;"/>
                </g>
                <g>
                    <clipPath id="_clip1">
                        <path d="M227.55,160.65L230.6,146L233.1,107.5C233.433,106.767 235.017,104.367 237.85,100.3C240.683,96.167 247.767,92.933 259.1,90.6L265.35,90.1L257.15,96.4L267.9,107.15L267.9,130.15L261.1,139.75L257.35,146.75L246.6,158L245.15,157.9C246.35,155.667 246.833,153.1 246.6,150.2C244.367,152.367 242.883,154.933 242.15,157.9L236.05,158.45C235.717,157.883 235.533,157.25 235.5,156.55C235.467,155.483 235.583,154.483 235.85,153.55L237.1,153.05C237.6,153.45 237.717,153.15 237.45,152.15L237,150.05L234.75,149.95L234.6,150.05C232.867,153.25 231.317,156.517 229.95,159.85L227.55,160.65L224.85,161.5L210.85,119.65L207.6,106.4L210.85,101.4L216.6,111.4L227.55,160.65M249.9,200.85L250,202.25L250.1,203.6L251.65,222.4L239.4,244.95L219.65,260.7L219.65,253.2L239.4,223.2L241.9,212.05L242,211.5L242.2,211.25L249.9,200.9L249.9,200.85M185.9,251.9L179.1,241.8L179.1,227.05L186.6,217.8L208.85,194.55L219.75,177.15L221.6,179.5L224.3,180.65L227.15,190.65L231.65,187.4L234.9,199.9L228.15,214.45L222.15,224.2L211.15,236.7L194.4,249.7L185.9,251.9M231,191.55L228.1,191.55L231,196.05L231,191.55M241.25,190.25L237.35,197.55L236.1,189.25L241.25,190.25M249.9,200.9L250,202.25L249.9,200.9M237.05,203.3L239.3,203.8L233.05,213.25L237.05,203.3M216.45,221.4C220.55,217.2 223.733,212.467 226,207.2C226.533,206 226.833,204.65 226.9,203.15L223.65,200.4C220.983,205.567 218.45,210.983 216.05,216.65L215.9,216.9L216.1,216.85L218.85,216L219.15,216.15C218.417,217.883 217.417,219.55 216.15,221.15L214.9,222.9L216.45,221.4"/>
                    </clipPath>
                    <g clip-path="url(#_clip1)">
                        <g id="shape2">
                            <path d="M260.3,92.15C262.433,91.417 264.267,91.983 265.8,93.85C267.067,96.117 267.9,98.9 268.3,102.2C268.467,105.933 268.067,109.017 267.1,111.45C265.967,114.283 264.333,116.05 262.2,116.75C260.7,116.717 259.167,115.75 257.6,113.85C256.067,112.017 255.1,109.433 254.7,106.1C254.667,102.867 255.25,99.85 256.45,97.05C257.25,94.117 258.533,92.483 260.3,92.15M240.4,110.2C239.6,113.8 238.45,116.667 236.95,118.8C235.083,121.233 233.05,122.567 230.85,122.8C229.417,122.433 228.167,121.167 227.1,119C226,116.833 225.667,114.1 226.1,110.8C226.9,107.7 228.217,104.917 230.05,102.45C231.55,99.783 233.217,98.5 235.05,98.6C237.283,98.367 238.917,99.333 239.95,101.5C240.65,103.967 240.8,106.867 240.4,110.2M209.5,122.95C210.533,120.783 212.167,119.817 214.4,120.05C216.233,119.95 217.9,121.233 219.4,123.9C221.233,126.367 222.55,129.15 223.35,132.25C223.783,135.55 223.45,138.283 222.35,140.45C221.283,142.617 220.033,143.883 218.6,144.25C216.4,144.017 214.367,142.683 212.5,140.25C211,138.117 209.85,135.25 209.05,131.65C208.65,128.317 208.8,125.417 209.5,122.95M226.75,130.45C227.683,129.15 229.267,128.7 231.5,129.1C233.8,129.867 236.183,131.133 238.65,132.9C241.117,134.967 242.833,136.917 243.8,138.75C244.867,140.883 244.933,142.6 244,143.9C243,144.533 241.4,144.65 239.2,144.25C236.933,143.817 234.567,142.717 232.1,140.95C230.033,139.117 228.467,137.133 227.4,135C226.033,132.933 225.817,131.417 226.75,130.45M216.8,184.85C218.5,188.15 219.45,191.117 219.65,193.75C219.783,196.783 219.05,199.067 217.45,200.6C216.083,201.2 214.3,200.983 212.1,199.95C209.9,198.95 207.9,197.017 206.1,194.15C204.7,191.25 203.95,188.283 203.85,185.25C203.317,182.25 203.783,180.217 205.25,179.15C206.85,177.583 208.75,177.333 210.95,178.4C213.05,179.9 215,182.05 216.8,184.85M276.15,138.4C278.017,139.6 278.683,141.367 278.15,143.7C277.15,146.067 275.45,148.417 273.05,150.75C270.117,153.117 267.4,154.683 264.9,155.45C261.867,156.25 259.417,156.05 257.55,154.85C256.65,153.683 256.45,151.933 256.95,149.6C257.517,147.233 259,144.883 261.4,142.55C263.967,140.583 266.75,139.2 269.75,138.4C272.617,137.233 274.75,137.233 276.15,138.4M247.05,227.5C244.95,229.067 243.3,229.45 242.1,228.65C241.5,227.617 241.433,225.8 241.9,223.2C242.367,220.633 243.5,217.817 245.3,214.75C247.133,212.117 249.1,210.033 251.2,208.5C253.233,206.6 254.7,206.1 255.6,207C256.833,207.767 257.2,209.467 256.7,212.1C255.933,214.8 254.65,217.65 252.85,220.65C250.783,223.817 248.85,226.1 247.05,227.5M224.4,236.15C225.567,235.917 227.3,236.467 229.6,237.8C231.867,239.1 234.133,241.117 236.4,243.85C238.267,246.483 239.55,249.033 240.25,251.5C241.383,254.1 241.367,255.667 240.2,256.2C239.067,257.1 237.333,256.867 235,255.5C232.733,253.867 230.5,251.683 228.3,248.95C226,245.95 224.5,243.367 223.8,241.2C223.033,238.7 223.233,237.017 224.4,236.15M203.65,227.5C202.65,231.933 201.25,235.467 199.45,238.1C197.15,241.1 194.65,242.717 191.95,242.95C190.183,242.55 188.65,241 187.35,238.3C186.017,235.667 185.617,232.317 186.15,228.25C187.083,224.45 188.7,221.05 191,218.05C192.867,214.783 194.917,213.2 197.15,213.3C199.817,213.033 201.8,214.233 203.1,216.9C203.967,219.9 204.15,223.433 203.65,227.5" style="fill:#513904;"/>
                        </g>
                    </g>
                </g>
            </g>
        </g>
    </g>
</svg>
