<?xml version="1.0" encoding="UTF-8"?>
<svg version="1.1" viewBox="0 0 359.33 302.87" xmlns="http://www.w3.org/2000/svg" xmlns:cc="http://creativecommons.org/ns#" xmlns:dc="http://purl.org/dc/elements/1.1/" xmlns:rdf="http://www.w3.org/1999/02/22-rdf-syntax-ns#" xmlns:xlink="http://www.w3.org/1999/xlink">
<metadata>
<rdf:RDF>
<cc:Work rdf:about="">
<dc:format>image/svg+xml</dc:format>
<dc:type rdf:resource="http://purl.org/dc/dcmitype/StillImage"/>
</cc:Work>
</rdf:RDF>
</metadata>
<g transform="translate(-83.251 -53.429)">
<use transform="matrix(1.9869 .416 -.416 1.9869 357.32 223.35)" width="44.650002" height="37.099998" xlink:href="#a"/>
<use transform="matrix(2.0064 .3111 -.3111 2.0064 97.016 210.35)" width="44.650002" height="37.099998" xlink:href="#a"/>
<use transform="translate(128.35,53.45)" width="280.45001" height="282.20001" xlink:href="#d"/>
<use transform="matrix(1.8664 .7954 -.7954 1.8664 121.14 245.16)" width="44.650002" height="37.099998" xlink:href="#a"/>
<use transform="matrix(-1.6533 1.3676 1.4452 1.7472 146.23 256.11)" width="44.650002" height="37.099998" xlink:href="#a"/>
<use transform="matrix(1.4131 .2191 -.2191 1.4131 183.41 298.33)" width="44.650002" height="37.099998" xlink:href="#a"/>
<use transform="matrix(.997 .0745 -.0745 .997 227.55 191.45)" width="72.5" height="37.049999" xlink:href="#c"/>
<use transform="matrix(.9973 .07 -.07 .9973 229.15 198.6)" width="74.25" height="40.950001" xlink:href="#b"/>
</g>
<defs>
<g id="a" transform="translate(0 .05)">
<path d="m40.5 10.35q1.6-0.45 1.95-2.3-2.5-0.7-3.1 2.5l-1.6 0.25-0.6-1.15-0.2-0.5q1.45-3-1.3-5.2-1.55 3.7 0.85 5l-0.45 0.5-0.05 0.05q-1.7-0.9-2.6-3.9v-0.35q-0.05-3.35 1.6-5.05l1.1-0.2q1.7 0.3 2.6 1.65l0.4 0.65q0.55 2.5-0.2 4.5l0.7-1.05v0.1l3.7 0.2 0.35 0.3q0.65 0.7 0.9 1.55l0.1 0.6-1.45 1.5-0.25 0.25q-1.25 0.9-2.8 0.95l0.35-0.85m-3.5 8.2 0.2-0.2 0.9-0.8 0.2-0.15h2.3q0.8 1-0.3 2.6l-0.45 0.55-1.55 0.5-2.9 0.2-0.3-0.2 0.85-0.55-0.55-0.2 0.25-0.25 1.35-1.5m-15.25 17.05 0.05-2.15-0.1-0.55-0.25-1.5 0.9 0.6 0.3-1.15 1.05 0.6 0.15-0.45q1.85 2.55 2.35 5.15-1.85 0.5-4.45-0.55m-3.85-27.65 0.4 0.8-0.7 1.65-0.2 1-0.05 0.05-0.35-0.05h-0.05l-0.15-1.7-0.85 1.65-0.35 0.05h-0.1l-0.3-0.9-0.4 0.95q-2.05 0.25-4.25 1.3l-0.2-1.6q2.1 0.45 3.75-0.65l0.15-0.05q1.55-2.35 3.65-2.5m11.05 2.3-0.45 0.55-0.7 0.8-0.4-0.1 0.1-0.85-0.85 0.65-0.65-0.1-0.05-1.05-0.8 0.9-2-0.15 1.55-1.55q3.05-0.2 4.25 0.9m9.85 10.25q1.1-0.7 1.1-1.85-1.6 1.7-3.55 2.05l2.3-0.2h0.15m-15.55 13.2 0.05-0.1-0.8-0.55 0.35 1.7 0.4-1.05" fill="#b03624" fill-rule="evenodd"/>
<path d="m29.5 24.3q0.35-2.15-0.25-5.7-0.45-2.1-2.15-3.5 3 1.3 4 3.45-0.1 3.2-1.6 5.75m-7.8-9.2q3.75 1.6 4.95 4.25-0.1 3.85-1.95 7 0.45-2.6-0.25-7-0.6-2.55-2.75-4.25m-19.85 8.1 0.2 0.45-0.2 0.45q-0.15 0.2-0.4 0.2l-0.45-0.2-0.15-0.45q0-0.25 0.15-0.45l0.45-0.2 0.4 0.2m11.3 0.25 0.05 0.05q0.35 3-2.1 2.8l-0.05-0.15q0.9 0 1.5-0.75 0.45-0.55 0.6-1.7v-0.25m-3.5 0.8-0.15-0.45 0.15-0.45 0.45-0.2 0.4 0.2 0.2 0.45-0.2 0.45-0.4 0.2-0.45-0.2m9.65-3.6q-0.85-2.9-3.45-4.7 4.45 1.55 6 4.45 0.2 4.45-1.65 8.25 0.25-3.05-0.9-8" fill="#576932" fill-rule="evenodd"/>
<path d="m23.15 11.4 0.25 0.2 0.25 0.05q2.55-0.15 5 0.75l-0.55-0.5q2.15 1.15 4.35 1.25l0.4-0.05q2.65-0.2 3.9-2.15 1.3 1.25 1 2.3-2.05 4.55-4.9 9.3-1.5 2.5-4.9 4.5-3.05 1.6-7.1 2.5l-0.15-0.1q-1.5-0.05-2.45-2-1.45-1.6-1.75-5.3-0.85-1.85-4.1-3.15-2.25-0.55-6.8 0.9 0.5-4.35 5.15-6.05l1.45-0.45 0.2 0.1q2.6-1.3 6.5-0.95v-0.3l-0.1-0.15q1.9-0.9 4.35-0.7m-1.45 3.7q2.15 1.7 2.75 4.25 0.7 4.4 0.25 7 1.85-3.15 1.95-7-1.2-2.65-4.95-4.25m7.8 9.2q1.5-2.55 1.6-5.75-1-2.15-4-3.45 1.7 1.4 2.15 3.5 0.6 3.55 0.25 5.7m0.65-9.55-0.85 0.3 0.2 0.4 0.75-0.2-0.1-0.5m4 0-0.05-0.15h-1.85l-0.55 0.6 0.8 0.3 0.15 1.3v0.1l1.6 0.05 0.25-1-0.35-1.2m-24.5 3.4 0.1-0.8-0.75-0.1-0.15 0.2 0.05 0.05 0.75 0.65m0.6-2.75-0.05 0.05 0.1 0.55 3.15-0.2 0.85 0.25-0.15-1.35-1.75-0.4-2.15 1.1m2.15 2.15 0.65 0.75 1.05-0.1-0.2-1.25h-1.05l-0.5 0.55 0.05 0.05m6.9 3.1q1.15 4.95 0.9 8 1.85-3.8 1.65-8.25-1.55-2.9-6-4.45 2.6 1.8 3.45 4.7m-15.45 3.65q2.75 0.5 3.45 2v0.1q0.3 1.05-0.3 2.55-0.2 0.7-1.45 1.05l-3.2-0.35-0.6-0.05q0.2-3.4 2.1-5.3" fill="#b6af3a" fill-rule="evenodd"/>
<path d="m36 9.5 0.05-0.05 0.45-0.5 0.2-0.25 0.25 0.45 0.2 0.5 0.6 1.15 1.6-0.25 0.4-0.05q-2.75 4.75-4.1 9.55l-0.25 0.25 0.55 0.2-0.85 0.55 0.75 0.5q-4.55 6.8-9.6 9.75l-2-0.45-0.25-0.35-0.15 0.5-0.15 0.45-1.05-0.6-0.3 1.15-0.9-0.6 0.25 1.5q-3.95 2.15-8.1 2.6l-0.25-0.05h-0.05q-6.95-0.5-8.5 0.1-0.65 0.25-0.65-0.75v-0.65l0.05-0.1q2.6-1.25 4.45-0.7l7.1-0.2 0.55-0.15 0.25-0.25 0.65-0.9 0.05-0.25-0.05-0.15q-0.15-1.75-1.4-2.85 0.55 1.55-0.35 2.85-1.05 1.45-7.05 0.4-2.15 0.25-3.75 1-2.3 1-3.95 1.9-0.4-2.15-0.25-4.3v-0.15q0.3-0.55 1.05-0.65l0.25-0.05 0.6 0.05 3.2 0.35q1.25-0.35 1.45-1.05 0.6-1.5 0.3-2.55v-0.1q-0.7-1.5-3.45-2l-0.7-0.1q-0.4-0.5-1.4 0.35l1.4-2.7 0.05-0.1 0.05-0.15 1.1-1.3 0.8-0.25 0.45-0.15q4.55-1.45 6.8-0.9 3.25 1.3 4.1 3.15 0.3 3.7 1.75 5.3 0.95 1.95 2.45 2l0.15 0.1q4.05-0.9 7.1-2.5 3.4-2 4.9-4.5 2.85-4.75 4.9-9.3 0.3-1.05-1-2.3l-1.2-0.95 0.2-0.2 0.25-0.3m-26.35 8.65-0.75-0.65-0.05-0.05 0.15-0.2 0.75 0.1-0.1 0.8m3.5 5.3-0.05-0.3-0.55-1.2q-0.6-0.7-1.5-0.7-0.85 0-1.45 0.7-0.6 0.75-0.6 1.75t0.6 1.7l0.1 0.15 0.3 0.25v0.05l0.7 0.3h0.35l0.05 0.15q2.45 0.2 2.1-2.8l-0.05-0.05m2.45 4.75 0.2 0.4-0.2-0.4-0.55 0.25 0.55-0.25 1.4-0.7-1.4 0.7" fill="#eef2ce" fill-rule="evenodd"/>
<path d="m22.5 10.9h0.65l2 0.15 0.85 0.15 0.65 0.1 0.75 0.2 0.4 0.1 0.3 0.3 0.55 0.5q-2.45-0.9-5-0.75l-0.25-0.05-0.25-0.2-0.65-0.5m-3.7 1.2 0.1 0.15v0.3q-3.9-0.35-6.5 0.95l-0.2-0.1-1.6-0.3h-0.65l0.6-0.35q2.2-1.05 4.25-1.3l0.7-0.05h0.1l0.35-0.05 1 0.05h0.05l0.35 0.05 0.05-0.05q1.1 0.2 1.4 0.7" fill="#9b9631" fill-rule="evenodd"/>
<path d="m39.35 10.55q0.6-3.2 3.1-2.5-0.35 1.85-1.95 2.3l-0.1 0.05-0.65 0.1-0.4 0.05m0.8 0.65q1.55-0.05 2.8-0.95l0.25-0.25 1.45-1.5q0 1.05-1.15 1.9-1.45 1-3.6 1.3l0.25-0.5m-3.65-2.25q-2.4-1.3-0.85-5 2.75 2.2 1.3 5.2l-0.25-0.45-0.2 0.25m3.35 11.6q-1.55 1.5-3.35 1.25l-0.3-0.05h-0.05l-0.25-0.15-0.05-0.05-0.45-0.3 2.9-0.2 1.55-0.5m-14.55 11.7 2.35 2.2q-0.4 1.45-1.25 2.1-1.55 1.2-4.65-0.4v-0.55q2.6 1.05 4.45 0.55-0.5-2.6-2.35-5.15l0.15-0.5 0.25 0.35 1.05 1.4m-0.15-21.2 0.8-0.9 0.05 1.05-0.85-0.15m1.5 0.25 0.85-0.65-0.1 0.85-0.75-0.2m12.15 9.2h-0.15l-2.3 0.2q1.95-0.35 3.55-2.05 0 1.15-1.1 1.85m-24-9.05 0.4-0.95 0.3 0.9-0.7 0.05m1.15-0.1 0.85-1.65 0.15 1.7-1-0.05" fill="#892b1d" fill-rule="evenodd"/>
<path d="m1.2 26.15-0.6-0.5q-0.6-0.65-0.6-1.7 0-1 0.6-1.75 0.65-0.7 1.5-0.7 0.6 0 1.05 0.35l-1.4 2.7-0.55 1.6m1.15-4.3-0.4-0.15q-0.25 0-0.4 0.15l-0.15 0.35 0.15 0.35q0.15 0.15 0.4 0.15l0.4-0.15 0.15-0.35-0.15-0.35m-0.5 1.35-0.4-0.2-0.45 0.2q-0.15 0.2-0.15 0.45l0.15 0.45 0.45 0.2q0.25 0 0.4-0.2l0.2-0.45-0.2-0.45m7.85 2.35-0.1-0.15q-0.6-0.7-0.6-1.7t0.6-1.75q0.6-0.7 1.45-0.7 0.9 0 1.5 0.7l0.55 1.2 0.05 0.3v0.25q-0.15 1.15-0.6 1.7-0.6 0.75-1.5 0.75h-0.35l-0.7-0.3v-0.05l-0.3-0.25m-0.05-1.3 0.45 0.2 0.4-0.2 0.2-0.45-0.2-0.45-0.4-0.2-0.45 0.2-0.15 0.45 0.15 0.45m1.3-0.9q0 0.55 0.3 0.9 0.3 0.4 0.7 0.4l0.7-0.4 0.3-0.9-0.3-0.95q-0.3-0.35-0.7-0.35t-0.7 0.35q-0.3 0.4-0.3 0.95" fill="#beefce" fill-rule="evenodd"/>
<path d="m2.35 21.85 0.15 0.35-0.15 0.35-0.4 0.15q-0.25 0-0.4-0.15l-0.15-0.35 0.15-0.35q0.15-0.15 0.4-0.15l0.4 0.15m8.6 1.5q0-0.55 0.3-0.95 0.3-0.35 0.7-0.35t0.7 0.35l0.3 0.95-0.3 0.9-0.7 0.4q-0.4 0-0.7-0.4-0.3-0.35-0.3-0.9" fill="#dbf7e3" fill-rule="evenodd"/>
<path d="m40.5 10.35-0.35 0.85-0.25 0.5-0.2 0.1-1.95 4.55q-0.35 0.75-0.75 2.2l-1.35 1.5q1.35-4.8 4.1-9.55l0.65-0.1 0.1-0.05m-4.35 11.4-0.2 0.95h-0.05q-3.3 6.35-8.6 8.8l-2 0.75-1.05-1.4 2 0.45q5.05-2.95 9.6-9.75l0.05 0.05 0.25 0.15m-14.35 11.7q-2.4 2.35-8.2 2.05 4.15-0.45 8.1-2.6l0.1 0.55m-17.6 0.6 0.45-1.2q1.6-0.75 3.75-1 6 1.05 7.05-0.4 0.9-1.3 0.35-2.85 1.25 1.1 1.4 2.85l0.05 0.15-0.05 0.25-0.65 0.9-0.25 0.25-0.55 0.15-7.1 0.2q-1.85-0.55-4.45 0.7m25.95-19.3 0.1 0.5-0.75 0.2-0.2-0.4 0.85-0.3m-17.75 2.8-0.05-0.05 0.5-0.55h1.05l0.2 1.25-1.05 0.1-0.65-0.75" fill="#dde49a" fill-rule="evenodd"/>
<path d="m0.45 30.3q0.1-2.1 0.75-4.15l0.55-1.6q1-0.85 1.4-0.35l0.7 0.1q-1.9 1.9-2.1 5.3l-0.25 0.05q-0.75 0.1-1.05 0.65m2.8-8.7q0.25-2.4 1.4-4.6 1.2-2.3 2.7-3.1l2.5-1.1-0.05 0.35 0.15-0.05h0.65l1.6 0.3-1.45 0.45q-4.65 1.7-5.15 6.05l-0.45 0.15-0.8 0.25-1.1 1.3m14.35-11.2 5.4-0.3-0.8 0.8h0.3l0.65 0.5q-2.45-0.2-4.35 0.7-0.3-0.5-1.4-0.7l0.2-1m10.9 0.4 2.5 1q2.75-0.2 4.55-1.8l1.2 0.95q-1.25 1.95-3.9 2.15l-0.4 0.05q-2.2-0.1-4.35-1.25l-0.3-0.3 0.7-0.8m5.65 3.95 0.35 1.2-0.25 1-1.6-0.05v-0.1l-0.15-1.3-0.8-0.3 0.55-0.6h1.85l0.05 0.15m-23.9 0.65 2.15-1.1 1.75 0.4 0.15 1.35-0.85-0.25-3.15 0.2-0.1-0.55 0.05-0.05" fill="#bcd369" fill-rule="evenodd"/>
<path d="m43.3 6.05-3.7-0.2q1.35-1.25 2.95-0.3l0.75 0.5m-3.7-0.3-0.7 1.05q0.75-2 0.2-4.5l0.15 0.45 0.2 0.65q0.3 1.1 0.15 2.35m-4.6-5.55q-1.65 1.7-1.6 5.05v0.35q0.9 3 2.6 3.9l-0.25 0.3q-1.05-0.25-2-1.7-0.95-1.5-1.2-3.15l-0.05-1.55q0.2-1.5 1.45-2.55 0.55-0.45 1.05-0.65m3.3 17.2q0.95-0.55 1.95-0.35l0.35 0.35h-2.3m-28.45-4.6-0.35-2.1 0.8 0.05q3.1 0 4.4-1.75 2.3-1.95 3.2-1.05-2.1 0.15-3.65 2.5l-0.15 0.05q-1.65 1.1-3.75 0.65l0.2 1.6-0.6 0.35-0.15 0.05 0.05-0.35m13.15-2.7 1.1-1.15q4.55-0.2 5.1 1l-0.1 0.15-0.15 0.15q-1.2-1.1-4.25-0.9l-1.55 1.55h-0.95l0.8-0.8m0.25 23.6-0.4 1.05-0.35-1.7 0.8 0.55-0.05 0.1" fill="#d26b26" fill-rule="evenodd"/>
<path d="m40.5 10.35-0.35 0.85-0.25 0.5-0.2 0.1-1.95 4.55q-0.35 0.75-0.75 2.2m7.65-10.05-0.1-0.6q-0.25-0.85-0.9-1.55m-4.05-0.5v-0.1m-0.9-4.1q-0.9-1.35-2.6-1.65l-1.1 0.2m1 9.3 0.05-0.05 0.45-0.5 0.2-0.25 0.25 0.45m0.2 0.5 0.6 1.15 1.6-0.25 0.4-0.05 0.65-0.1m4.25-1.9q0 1.05-1.15 1.9-1.45 1-3.6 1.3m-2.7 6.65 0.9-0.8m0.2-0.15q0.95-0.55 1.95-0.35l0.35 0.35q0.8 1-0.3 2.6l-0.45 0.55q-1.55 1.5-3.35 1.25m-0.3-0.05h-0.05l-0.2 0.95h-0.05q-3.3 6.35-8.6 8.8l-2 0.75 2.35 2.2q-0.4 1.45-1.25 2.1-1.55 1.2-4.65-0.4v-0.55l0.05-2.15q-2.4 2.35-8.2 2.05m-0.25-0.05h-0.05q-6.95-0.5-8.5 0.1-0.65 0.25-0.65-0.75v-0.65m0.05-0.1 0.45-1.2q-2.3 1-3.95 1.9-0.4-2.15-0.25-4.3m0-0.15q0.1-2.1 0.75-4.15l-0.6-0.5q-0.6-0.65-0.6-1.7 0-1 0.6-1.75 0.65-0.7 1.5-0.7 0.6 0 1.05 0.35l0.05-0.1 0.05-0.15q0.25-2.4 1.4-4.6 1.2-2.3 2.7-3.1l2.5-1.1-0.35-2.1 0.8 0.05q3.1 0 4.4-1.75 2.3-1.95 3.2-1.05l0.4 0.8-0.7 1.65 5.4-0.3 1.1-1.15q4.55-0.2 5.1 1l-0.1 0.15m-0.15 0.15-0.45 0.55 2.5 1q2.75-0.2 4.55-1.8l0.2-0.2q-1.05-0.25-2-1.7-0.95-1.5-1.2-3.15l-0.05-1.55q0.2-1.5 1.45-2.55 0.55-0.45 1.05-0.65m4.6 5.65q1.35-1.25 2.95-0.3l0.75 0.5m-4.2-3.75 0.15 0.45 0.2 0.65q0.3 1.1 0.15 2.35m-3.85 4.05 0.25-0.3m-13 0.6-0.8 0.8h0.95l2 0.15 0.85 0.15 0.65 0.1 0.75 0.2 0.4 0.1 0.7-0.8m-4.25 20.05 1.05 1.4m-9.7-20.85 0.35-0.05 1 0.05m0.05 0 0.35 0.05 0.05-0.05 0.2-1m-2.8 1.05 0.7-0.05m-5.65 1.4-0.05 0.35 0.15-0.05 0.6-0.35q2.2-1.05 4.25-1.3m-13.05 13.1-0.55 1.6m0.55-1.6 1.4-2.7m6.55 3.7-0.1-0.15q-0.6-0.7-0.6-1.7t0.6-1.75q0.6-0.7 1.45-0.7 0.9 0 1.5 0.7l0.55 1.2 0.05 0.3v0.25q-0.15 1.15-0.6 1.7-0.6 0.75-1.5 0.75h-0.35m4.35 2.3 0.55-0.25 1.4-0.7m-1.2 1.1-0.2-0.4m-10.95 4.65q1.6-0.75 3.75-1 6 1.05 7.05-0.4 0.9-1.3 0.35-2.85m8.2 1.9 0.25 0.35m-2.55 2.05 0.1 0.55m-0.35-2.05 0.25 1.5" fill="none" stroke="#544225" stroke-linecap="round" stroke-linejoin="round" stroke-opacity=".41176" stroke-width=".05"/>
<path d="m37 18.55 0.2-0.2m-0.7 3.45-0.3-0.05m-22.6 13.75-0.25-0.05m23.65-16.9-1.35 1.5-0.25 0.25 0.55 0.2-0.85 0.55m-13.65 10.35 0.9 0.6 0.3-1.15 1.05 0.6 0.15-0.45 0.15-0.5" fill="none" stroke="#544225" stroke-linecap="round" stroke-linejoin="round" stroke-opacity=".41176" stroke-width=".05"/>
</g>
<g id="d" transform="translate(.5 .45)">
<use transform="translate(-.5 -.45)" width="280.45001" height="282.20001" xlink:href="#g"/>
</g>
<g id="g" transform="translate(.5 .45)">
<path d="m235.8 11.2q6.55 7.55 17.5 15.05 21.75 10.35 15.2 0 2.85 2.5 4.6 5.25-7.75 13.2-31.65 10.9l-3.7 4.85-3-1.85q-5.6-3.15-13.1-4.8 8.05 0.45 10.75-7-2.7-8.95 7.8-11l-10.1-1.7q-0.05-5.3-3.8-11.7l8.25 9.85q0.65-8.05 1.25-7.85m9.6 26-3.95 5.2 3.95-5.2m-44.55-21.15 10.1 8.05 6.1-15.4 0.5-0.2q2.5 4.2 3.5 8.4l0.1 0.6q0.95 4.75-0.05 9.55l-0.2 0.75 0.05 0.05q-1.3 6.4-5.5 11.7l-0.15-0.05-7.8-0.35 7.05-10.35-10-0.55-0.05 0.95q-23.05-0.1-24.1-12.6-1.25-11 10.45-0.8l10 3.1v-2.85m-3.75 33.05 15.8-0.45 4.45 1.6q-1.6 1.1-4.1 7.1-2.25 2.5-4.15 5.15-4.75 6.75-7.2 14.55l-1.9 3.25q-1.1 8.45 0 16.85v10.2q6.65 1.6 11.15-5.05l1.75-0.85-0.9-6.8-1.05-7.75-0.4-3.05 1.8-4.85 3.9-9.05 0.65-1.55q3.1-8.15 5.35-16.4l0.3 0.1 2.5 1.45q4.1 2.65 4.05 4.65l-2 1.3 2-1.3v0.15l0.1 0.1-1.2 1.55-0.9-0.5 0.45 1.1-1.4 1.8q2 4.4 3.05 9-2.25 23.45-13.3 33.7 3.25 2 6.7 4.45l-0.05 0.95 0.85 0.55 5.15 3.45q24.65 22.85 36.35 62 7.7 16 5.85 36.8-2.35 5.45-6.1 10.6 19.8 20.4 13.15 31.6l-25.3 6.45q-22.4 4.85-41.8-2.45l-5.85 9.1-0.35-0.05q-10 9-37.95 12l31.45-9.6q-119.05-20.65-113.6-65.45 12.35-2.55 16.5-7.65l11.9 23.75 3.6 25.15 22.85-5.45 2.35-0.1 13.55-1.5q49.65-13.2 51.1-8.5l32.35-8.4-2.05-3.25-0.4 0.25-0.25-1.3q-1.7-9.55-6.8-17.35-3.95-6.05-9.9-11.05l-4.1-0.65-2.15-3.85-35.55-21.85-1.2-2.75-1.05-2.4-0.25-1.9q17.3-21.1 13-37.9l-21.25-2.55q-1.3-13.05-17.9-34.7 16.9-3.15 27.5-3.35l-0.05-0.35q11.55-20.25 1.1-28.15l19.8-0.6m-3.2 37.7q1.5-9.05-17.65-8.6 19.15-0.45 17.65 8.6m-7.5 8.8q5.7-1.15 13.6 1.55-7.9-2.7-13.6-1.55m37.85-41.75 0.8-0.3-0.8 0.3m4.95 4.6-2.1 1.05 2.1-1.05m-18.05 43.85q2.3 1.25 4.75 2.8-2.45-1.55-4.75-2.8m-123.7 37.95-0.1 5.35 1.7 1.2-1.75 1.7-0.05 4.85q-15.8-5.25 0.2-13.1m115.45 28.55q-6.45-3.85-14.7-5.85-5.6-1.4-12-1.95 6.4 0.55 12 1.95 8.25 2 14.7 5.85m33 49.7 0.65 1.05-0.65-1.05" fill="#bca34e" fill-rule="evenodd"/>
<path d="m268.5 26.25q6.55 10.35-15.2 0-10.95-7.5-17.5-15.05 22.95 15.1 32.7 15.05m-42.2-17.05q3.75 6.4 3.8 11.7 0.05 6.9-6.2 11.9h-0.15l-2.8-4.95-0.05-0.05 0.2-0.75q1-4.8 0.05-9.55l-0.1-0.6q-1-4.2-3.5-8.4l-0.5 0.2-6.1 15.4-10.1-8.05v-0.2l-0.15-9.85q8.1-10.75 13.55-2.15l3.3 4.65-3.3-4.65 12.05 5.35m-21.8 20 0.05-0.95 10 0.55-7.05 10.35-7.25 0.5-5.25 1.1 9.5-11.55m16.45-1.35 0.15-0.8-0.15 0.8m-51.25 22.55h0.05l3.45-0.6 4.1-0.1q10.45 7.9-1.1 28.15l0.05 0.35q-10.6 0.2-27.5 3.35 16.6 21.65 17.9 34.7-19.9-3.75-45 1.15l2.9 3.7-7.4-2.8q-5.55 1.2-11.35 2.85-23.05 0.8-18.25 14.4l-0.1 4.7q-16 7.85-0.2 13.1l-0.45 24.3v0.4q4.45 3.95 8.35 8.25t7.2 9.05q6.1 8.7 10.2 18.75l4.6 0.2-2.9 4.2q3.9 11.1 5.55 23.7l7.15-1.35 7.85 0.5 4.45-0.05-22.85 5.45-3.6-25.15-11.9-23.75q-4.15 5.1-16.5 7.65-5.45 44.8 113.6 65.45l-31.45 9.6q-13.75 0.85-31.25 0.7l-50.8-18.6-3.75-1.3q-24.2-8.3-50.6-7.5l-1.65 0.05-0.4 0.05 0.4 0.5-0.9-0.35-11.5-5.15q-13.4-15.45 2.35-50.3 7.55-22.75 25.85-31.8-9.5-0.9-7.45-19.7 3.65-25.7 54.15-54.65l6.4-2.6 41.35-12.45q6.65-22.35 30.95-27.05m59.5 21q4.15 17.8-6.6 38.15-3.45-2.45-6.7-4.45 11.05-10.25 13.3-33.7m48.6 184.1q-9.5 15.95-72.95 13.1l5.85-9.1q19.4 7.3 41.8 2.45l25.3-6.45m-122.65-15.8q22.75-12.05 40.1-12l0.1-5.65 4.3 4.8 36.5-7.05 0.4-0.25 2.05 3.25-32.35 8.4q-1.45-4.7-51.1 8.5m-127.05 14.25q-0.55-0.55-0.5-0.1v0.25-0.25q-0.05-0.45 0.5 0.1" fill="#a2833e" fill-rule="evenodd"/>
<path d="m230.1 20.9 10.1 1.7q-10.5 2.05-7.8 11-2.7 7.45-10.75 7l-0.2-0.05-2.55-0.5-3.45-0.5q4.2-5.3 5.5-11.7l2.8 4.95h0.15q6.25-5 6.2-11.9m-11.2 19.15 0.7-0.55-0.7 0.55m9.65 74.45q28.4 20.15 39.7 53.3 11.15 25.1 2.5 45.5 1.85-20.8-5.85-36.8-11.7-39.15-36.35-62m-93.25 166.75q-25.45-0.3-59.55-3.55-47.9-1.25-48.15-23.6l0.9 0.35-0.4-0.5 0.4-0.05 1.65-0.05q26.4-0.8 50.6 7.5l3.75 1.3 50.8 18.6m-119.2-32.3q-33.7-16.65 3.1-90.35 21.75-44.8 71.8-66.1-50.5 28.95-54.15 54.65-2.05 18.8 7.45 19.7-18.3 9.05-25.85 31.8-15.75 34.85-2.35 50.3m64.65 12.4-50.6-7.5 50.6 7.5" fill="#886f33" fill-rule="evenodd"/>
<path d="m221.65 40.6q7.5 1.65 13.1 4.8l3 1.85 2.6 1.75q2.55 3.55 0 6.45l-7-7.9-2.5-0.8-14.4-4.55-1.95-0.65-16.9 1.05-6.1 0.35-3.95-0.6q1.7-0.75 5.1-1.45l2.35-0.15 5.25-1.1-2.65 2.95 2.65-2.95 7.25-0.5 7.8 0.35 0.15 0.05 3.45 0.5 2.55 0.5 0.2 0.05m-2.75-0.55-2.45 2.15 2.45-2.15m-4.7 4.05h1.1q2.8 0.6 5.35 1.5 3.2 1.1 6.1 2.6 6.65 3.4 11.7 8.9l-0.25 0.75 0.25-0.75 3.35 1.85-5.45 3.45-1.8 1.15-3.7-2-0.6-0.35-2.25-1.2 1.2-1.55 0.35-0.55-0.45 0.45v-0.15q0.05-2-4.05-4.65l-2.5-1.45-0.3-0.1-4.9-1.75-4.45-1.6-15.8 0.45q-1.75-2.3 3.6-4.6-5.35 2.3-3.6 4.6l-11.55 0.35q-0.6-2.3 4.3-4.6-4.9 2.3-4.3 4.6l-8.25 0.25-4.1 0.1-3.45 0.6h-0.05l-0.05-0.6q-1-4.7 8.2-4.7l3.75 0.15 5.15-0.35 3.1-0.05 5.95-0.2 4.9-0.15h0.25l13.25-0.4m2.15 4.7 4.3-3.2-4.3 3.2m1.25 0.95-0.25 0.5 0.25-0.5m17.15-4.35-3.9 1.35 3.9-1.35m-60.3 3.05 3.4-3.35-3.4 3.35m25.55 51.55v-2.85q-1.1-8.4 0-16.85l1.9-3.25q2.5 4.7 10.45 1.95l-1.8 4.85 0.4 3.05 1.05 7.75q-4.9 6.95-12 5.35 7.1 1.6 12-5.35l0.9 6.8-1.75 0.85q-4.5 6.65-11.15 5.05v-7.35m0.65-9.8q1.95 1.05 5.9-1.3 2.35 0.85 4.4-2-2.05 2.85-4.4 2-3.95 2.35-5.9 1.3m26.9-29.6-0.45-1.1 0.9 0.5-0.45 0.6m-10.65 7.8-0.65 1.55-3.9 9.05q-7.95 2.75-10.45-1.95 2.45-7.8 7.2-14.55 8.45 0.35 7.8 5.9m25.65 5.75 6.45 12.3q3.15 12.05-2.4 22.9l-8.45-6.55-4.8-3.75q7.95-2.5 6.75-11.6l-0.85-4.5 2.45-6.55 0.85-2.25m-13-16.25-0.45 0.3 0.45-0.3m2.25-0.1 4.3-0.35-4.3 0.35m-1.8-6.1-4.95 1.85 4.95-1.85m-6.5-3.1-1.25 3.4 1.25-3.4m-15.1 18.65q3.4 3.7 7.85 2.7-4.45 1-7.85-2.7m36.65 23.5q-0.2-7.5-3.35-14.35 3.15 6.85 3.35 14.35m-1.8 5.4q0.9 4-5.1 6.65 6-2.65 5.1-6.65" fill="#968138" fill-rule="evenodd"/>
<path d="m197.6 42.6 16.9-1.05 1.95 0.65 14.4 4.55-4.1 1.45 4.1-1.45 2.5 0.8 7 7.9-1.9 1.65q-5.05-5.5-11.7-8.9-2.9-1.5-6.1-2.6-2.55-0.9-5.35-1.5h-1.1l2.25-1.9-2.25 1.9-13.25 0.4h-0.25l-4.9 0.15-5.95 0.2-3.1 0.05q-2.1-1.35 0.8-2.55l3.95 0.6 6.1-0.35-1.8 2.05 1.8-2.05m24.65 9.4q-2.25 8.25-5.35 16.4 0.65-5.55-7.8-5.9 1.9-2.65 4.15-5.15 2.5-6 4.1-7.1l4.9 1.75m5.75 8 2.25 1.2 0.6 0.35 3.7 2 1.8-1.15 6.2 11.75-0.85 2.25-2.45 6.55q-2.3-9.9-7.7-17.5l-0.1-0.2-3.9-4.65 0.45-0.6m-9.25-1.8q-4.15 1.85-5.5-0.85 1.35 2.7 5.5 0.85m12.1 3.35q7.3 7 10.85 14.85-3.55-7.85-10.85-14.85" fill="#7b642f" fill-rule="evenodd"/>
<path d="m87.45 140.25q6.75-3.35 19.15-7.15l15.25 2 5.4 0.45 1.4 0.05 1.4 0.1v-0.05l3.25 0.15h0.25l6.75-0.1q17.75-0.8 23.6-8.35 3.35-4.45 2.75-11.1l21.25 2.55q4.3 16.8-13 37.9l0.25 1.9 1.05 2.4q-7.55-0.65-16.25-0.15 8.7-0.5 16.25 0.15l1.2 2.75 35.55 21.85 2.15 3.85 4.1 0.65q5.95 5 9.9 11.05 3.2 12.85-52.35 22.15l-9 1.45-1.65 0.25 0.05 0.05-2.2 0.4-0.05-0.15-1.85 0.25-8.15 1.1-12.3-1.05q6.45-10.4-38.75-35.2-0.95-6.4-9.25-15.05 12-4.05 22.95-6.9l3.15-0.85 10.65-1.8-0.05-0.05-0.65-0.25v-0.15h0.05-0.05v-0.1l0.05 0.1 4.1-0.8v0.15l0.7-0.15 0.3 0.5 14.95-2.5v-0.2l0.05-0.6v-0.3l0.05-0.4 1.7 1.1 1.6-1 0.05 0.25 0.1 0.55 1.65-0.25 1.4-0.25 0.7-0.15 2.9-0.45 14.45-2.45q-7.6 0.1-14.7-0.2l-6.15-0.3-0.4 0.75h-0.4v-0.15l-2.75 0.05v0.1l-16.3 0.15v-0.05l-7.25 0.05-8.35-0.1q-21.3-2.2-30.85-5.35l0.05-4.85 1.75-1.7-1.7-1.2 0.1-5.35m62.35 21.2 1.75 0.7-1.75-0.7" fill="#f2dec8" fill-rule="evenodd"/>
<path d="m166.65 116.25q0.6 6.65-2.75 11.1-5.85 7.55-23.6 8.35l-6.75 0.1h-0.25l-3.25-0.15v0.05l-1.4-0.1-1.4-0.05-5.4-0.45-15.25-2q-12.4 3.8-19.15 7.15l0.1-4.7q-4.8-13.6 18.25-14.4 5.8-1.65 11.35-2.85l7.4 2.8-2.9-3.7q25.1-4.9 45-1.15m-79.4 37.1q9.55 3.15 30.85 5.35l8.35 0.1 7.25-0.05v0.05l16.3-0.15v-0.1l2.75-0.05v0.15h0.4l0.4-0.75 6.15 0.3q7.1 0.3 14.7 0.2l-14.45 2.45-2.9 0.45-3.9-0.15 3.9 0.15-0.7 0.15-1.4 0.25-1.65 0.25-0.1-0.55-0.05-0.25-1.6 1-1.7-1.1-0.05 0.4-5.65 1.1-10.3 2h-0.05 0.05l10.3-2 5.65-1.1v0.3l-0.05 0.6v0.2l-14.95 2.5-0.3-0.5-0.7 0.15v-0.15l-4.1 0.8-0.05-0.1-2.2 0.5-7.75 1.85 7.75-1.85 2.2-0.5v0.25l0.65 0.25 0.05 0.05-10.65 1.8-3.15 0.85q-10.95 2.85-22.95 6.9l-6.8 2.3 6.8-2.3q8.3 8.65 9.25 15.05 45.2 24.8 38.75 35.2l12.3 1.05 8.15-1.1 1.85-0.25 0.05 0.15 2.2-0.4-0.05-0.05 1.65-0.25 9-1.45q55.55-9.3 52.35-22.15 5.1 7.8 6.8 17.35l0.25 1.3-36.5 7.05-4.3-4.8-0.1 5.65q-17.35-0.05-40.1 12l-13.55 1.5-2.35 0.1-4.45 0.05-7.85-0.5-7.15 1.35q-1.65-12.6-5.55-23.7l2.9-4.2-4.6-0.2q-4.1-10.05-10.2-18.75-3.3-4.75-7.2-9.05t-8.35-8.25v-0.4l0.45-24.3m145.35 59.85 3.3 5.3-3.3-5.3m-88.45-50.65 5.65-0.8-5.65 0.8m-14.5 2.8-2.2 0.4 2.2-0.4m25.3-3.65-1.75-0.3 1.75 0.3" fill="#e2cc83" fill-rule="evenodd"/>
<path d="m235.8 11.2q-0.6-0.2-1.25 7.85l-8.25-9.85-12.05-5.35q-5.45-8.6-13.55 2.15l0.15 9.85m20.8 24.75q7.5 1.65 13.1 4.8l3 1.85 3.7-4.85 3.95-5.2m-3.95 5.2q23.9 2.3 31.65-10.9-1.75-2.75-4.6-5.25-9.75 0.05-32.7-15.05m-34.95 4.85v2.85l-10-3.1q-11.7-10.2-10.45 0.8 1.05 12.5 24.1 12.6m3 9.95 7.8 0.35 0.15 0.05m5.65-12.5q1-4.8 0.05-9.55l-0.1-0.6m0.05 10.15-0.15 0.8m-2.05 12.2 2.55 0.5 0.2 0.05m-2.75-0.55-3.45-0.5m-1.25 4.55h1.1q2.8 0.6 5.35 1.5 3.2 1.1 6.1 2.6m-12.55-4.1-13.25 0.4m-3.85 4.6 15.8-0.45 4.45 1.6 4.9 1.75m18.1 3.45q2.55-2.9 0-6.45l-2.6-1.75m-68.1 2.55q-1-4.7 8.2-4.7l3.75 0.15 5.15-0.35m5.9-4 2.35-0.15 9.5-11.55m-14.65 15.65-3.1 0.05m13.5-5.25-5.25 1.1m0.8 3.9 4.9-0.15m-15.15 4.95 11.55-0.35m-1.3-4.45-5.95 0.2m-20.15 5.55h0.05l3.45-0.6 4.1-0.1 8.25-0.25m-9.3 28.75q19.15-0.45 17.65 8.6m6.1 10.35q-7.9-2.7-13.6-1.55m52.05-38.5 1.9-1.65m-1.9 1.65-0.25 0.75m-1.85 4.55 5.45-3.45-3.35-1.85q-5.05-5.5-11.7-8.9m0.8 12.4-0.45-1.1 2-1.3q0.05-2-4.05-4.65l-2.5-1.45-0.3-0.1m5.75 8 2.25 1.2m0.6 0.35 3.7 2 1.8-1.15 6.2 11.75 6.45 12.3q3.15 12.05-2.4 22.9l-8.45-6.55-4.8-3.75q7.95-2.5 6.75-11.6l-0.85-4.5q-2.3-9.9-7.7-17.5m-0.1-0.2-3.9-4.65-1.4 1.8q2 4.4 3.05 9 4.15 17.8-6.6 38.15l1.15 0.95m5.45-52.05-1.2 1.55-0.9-0.5 2.1-1.05-0.1-0.1v-0.15l0.45-0.3-0.35 0.55m-1.2 1.55-0.45 0.6m-20.05-21.45-7.25 0.5m22.35 69.9-0.05 0.95 0.85 0.55 5.15 3.45q28.4 20.15 39.7 53.3 11.15 25.1 2.5 45.5-2.35 5.45-6.1 10.6 19.8 20.4 13.15 31.6-9.5 15.95-72.95 13.1l-0.35-0.05q-10 9-37.95 12-13.75 0.85-31.25 0.7-25.45-0.3-59.55-3.55-47.9-1.25-48.15-23.6l-11.5-5.15q-33.7-16.65 3.1-90.35 21.75-44.8 71.8-66.1l6.4-2.6 41.35-12.45q6.65-22.35 30.95-27.05m52.9 59.15q-3.45-2.45-6.7-4.45-2.45-1.55-4.75-2.8m-123.8 43.3 1.7 1.2-1.75 1.7m34.35-31.1 2.9 3.7-7.4-2.8m102.05 71.8-4.1-0.65-2.15-3.85m-100.4 28.5 4.6 0.2-2.9 4.2m25 22.8 2.35-0.1m53.65-13.5 0.1-5.65 4.3 4.8 36.5-7.05-0.25-1.3-3.3-5.3m-204.5 40.75 0.4 0.5-0.9-0.35v-0.25q-0.05-0.45 0.5 0.1m210.5-31.15-2.05-3.25-0.65-1.05q-1.7-9.55-6.8-17.35m-80.35-119.6q16.9-3.15 27.5-3.35" fill="none" stroke="#000" stroke-linecap="round" stroke-linejoin="round" stroke-opacity=".30196"/>
<path d="m226.3 9.2q3.75 6.4 3.8 11.7m-9.15 6.95-0.05-0.05 0.2-0.75m-0.05-10.15q-1-4.2-3.5-8.4l-3.3-4.65m6.7 24 2.8 4.95m0.15 0q6.25-5 6.2-11.9m-10.5 18.6-0.7 0.55m-2.45 2.15 2.45-2.15m7.85 8.15 4.1-1.45 3.9-1.35m-18.3-3.2-2.25 1.9m-13.25 0.4h-0.25q-5.35 2.3-3.6 4.6m20.25 1.15 0.25-0.5m3.05-4.15-4.3 3.2m-38.5-3.7-3.4 3.35m12.3-3.55q-2.1-1.35 0.8-2.55 1.7-0.75 5.1-1.45m-7.1 8.55q-0.6-2.3 4.3-4.6m7.75-2.25 2.65-2.95m-2.65 2.95-1.8 2.05m6.1 32.4-1.9 3.25q-1.1 8.45 0 16.85v2.85q7.1 1.6 12-5.35l-1.05-7.75q-2.05 2.85-4.4 2-3.95 2.35-5.9 1.3m24.4-36.65-0.8 0.3m-2-1.85q-2.25 8.25-5.35 16.4l-0.65 1.55-3.9 9.05-1.8 4.85 0.4 3.05m19.3-25.7 0.6 0.35m-5.8-8 4.95-1.85m6.1 5.75-4.3 0.35m-9.55-5.8 1.25-3.4m-6.15 1.65q-1.6 1.1-4.1 7.1 1.35 2.7 5.5 0.85m-5.5-0.85q-2.25 2.5-4.15 5.15-4.75 6.75-7.2 14.55 2.5 4.7 10.45 1.95m3.9-9.05q-4.45 1-7.85-2.7m33.3 9.15q-3.55-7.85-10.85-14.85m10.85 14.85q3.15 6.85 3.35 14.35m-33.9 11.55q-4.5 6.65-11.15 5.05v-7.35m11.15 2.3 1.75-0.85-0.9-6.8m-124.55 45.6-0.1 5.35m-0.05 2.9-0.05 4.85-0.45 24.3 6.8-2.3q12-4.05 22.95-6.9l3.15-0.85 7.75-1.85 2.2-0.5m30.3-4.4q8.7-0.5 16.25 0.15l-1.05-2.4-0.25-1.9q17.3-21.1 13-37.9l-21.25-2.55q-19.9-3.75-45 1.15m-4.5 0.9q-5.55 1.2-11.35 2.85-23.05 0.8-18.25 14.4l-0.1 4.7m42.25 25.1 4.1-0.8h0.05l10.3-2 5.65-1.1m0.05-0.4 1.7 1.1 1.6-1 3.9 0.15 2.9-0.45m53 24.75-35.55-21.85-1.2-2.75q6.4 0.55 12 1.95 8.25 2 14.7 5.85m35.25-66q6-2.65 5.1-6.65m-156.45 81.5v0.4q4.45 3.95 8.35 8.25t7.2 9.05q6.1 8.7 10.2 18.75m1.7 4.4q3.9 11.1 5.55 23.7l7.15-1.35 7.85 0.5 4.45-0.05m2.35-0.1 13.55-1.5q22.75-12.05 40.1-12m33.85-26.55q-3.95-6.05-9.9-11.05m-67.65-27.95-1.75-0.7m0 0.3-5.65 0.8m12.2-1.1 0.7-0.15m-3.85 0.1 1.75 0.3m-27.5 4.05 2.2-0.4m0.05 0h-0.05m-101.15 88.55 1.65-0.05 50.6 7.5" fill="none" stroke="#000" stroke-linecap="round" stroke-linejoin="round" stroke-opacity=".30196"/>
</g>
<g id="c">
<use width="72.5" height="37.049999" xlink:href="#f"/>
</g>
<g id="f">
<path d="m60.5 14.4q-2.25-1.95-2.7-6.7l0.1-0.5q1.05-5.05 4.05-7.1l1.7 0.05q2.45 0.95 3.4 3.25l0.35 1.15q0.05 3.95-1.65 6.65l1.35-1.35v0.15q3.3-0.2 5.35 1.4h-6.55l-1.05 0.95-2.75 1.7q3.05-3.95-0.35-8.1-3.5 5.1-0.3 7.75l-0.85 0.6-0.1 0.1m-11.65-0.4-1.3 0.95-0.55-0.25 0.35-1.3-1.45 0.75-0.9-0.4 0.2-1.6-1.45 1.15-2.95-0.85 2.8-1.9q4.6 0.7 6.1 2.75l-0.85 0.7m-27.55-2.75 0.15-2.5q3.05 1.4 5.9 0.25h0.2q3.05-3.1 6.25-2.65h0.05l0.3 1.35-1.55 2.25-0.65 1.4-0.05 0.1-0.55-0.2h-0.05l0.3-2.6-1.75 2.2-0.6-0.05-0.15-0.05-0.15-1.4-0.85 1.25q-3.15-0.25-6.8 0.65" fill="#b03624" fill-rule="evenodd"/>
<path d="m61.95 0.1q-3 2.05-4.05 7.1l-0.1 0.5q0.45 4.75 2.7 6.7l-0.5 0.3q-1.45-0.65-2.45-3.15-0.95-2.5-0.8-5.1 0.05-1.3 0.45-2.3 0.75-2.2 2.95-3.4 1-0.5 1.8-0.65m10.5 11.3q-2.05-1.6-5.35-1.4 2.35-1.4 4.5 0.5l0.9 0.9h-0.05m-5.35-1.55-1.35 1.35q1.7-2.7 1.65-6.65l0.15 0.75 0.05 1q0.1 1.75-0.5 3.55m-46.85 1.7-0.2 0.1 0.2-0.5 0.05-3.3 1.2 0.3q4.65 0.95 7.15-1.2 4.15-2.2 5.15-0.6-3.2-0.45-6.25 2.65h-0.2q-2.85 1.15-5.9-0.25l-0.15 2.5-1.05 0.3m20.55-0.35 2-1.4q6.95 1.1 7.35 3.15l-0.15 0.15-0.3 0.2q-1.5-2.05-6.1-2.75l-2.8 1.9-1-0.2-0.45-0.1 1.45-0.95" fill="#d26b26" fill-rule="evenodd"/>
<path d="m60.5 14.4 0.1-0.1 0.85-0.6 0.4-0.3 0.15 0.7q-1.05 0.6-2.05 1.15l-0.3-0.3 0.35-0.25 0.5-0.3m-53 7.8 2.1-1.55 1.25-0.15 0.75-0.05q7.3-0.8 10.5 0.8 2.8 1.85 4.15 3.75-2.45 0.95-4.4 2.45-0.05-0.9-0.5-1.75-0.7-1.25-2-1.5-1.3-0.3-2.4 0.6-1.15 0.9-1.45 2.4-0.35 1.5 0.35 2.75l0.15 0.25 0.35 0.5v0.05l0.7 0.55-5.75 2.35q0.9-1.55 0.8-2.95l0.05-0.15q-0.6-2.45-4.6-4.05l-0.95-0.35-2.25 0.05q1.3-1.95 2.95-3.6l0.15-0.15 0.05-0.25m-6.95 12.4 0.05-0.2q0.65-0.7 1.75-0.65l0.45 0.05 0.9 0.25 3.1 1.15-6.8 1.85q0.2-1.25 0.55-2.45m17.7-15.55-0.95-1.15-0.05-0.1 0.25-0.25 1.15 0.35-0.4 1.15" fill="#eef2ce" fill-rule="evenodd"/>
<path d="m61.45 13.7q-3.2-2.65 0.3-7.75 3.4 4.15 0.35 8.1l-0.1 0.05-0.15-0.7-0.4 0.3m-33.35-3.1 0.85-1.25 0.15 1.4-1-0.15m1.75 0.25 1.75-2.2-0.3 2.6-1.45-0.4m16.05 3.3 1.45-0.75-0.35 1.3-1.1-0.55m-2.15-0.85 1.45-1.15-0.2 1.6-1.25-0.45" fill="#892b1d" fill-rule="evenodd"/>
<path d="m59.65 14.95 0.3 0.3q-3.5 1.8-7.15 3.1-2.6-0.9-4.9-2.9l-0.35-0.5 1.3-0.95q1.55 0.85 3.4 2.25 4.25 0.55 7.4-1.3m-39.4-3.8-0.2 0.5 0.2-0.1 1 0.2q1.35 0.3 2.3 1l-2.35 0.25q-7.45 1.1-9.6 7.45l-0.75 0.05-1.25 0.15-2.1 1.55q1.15-3.45 3.6-6.4 2.55-3.1 5-3.8l4.15-0.85m11.7 0.2 0.65-1.4q3.75 0.1 8.2 1.25l-1.45 0.95 0.45 0.1 0.8 0.9-6.7-0.25q-0.3-0.9-1.95-1.55m-31.35 23.05q0.85-3.1 2.4-5.95l1.35-2.25 2.25-0.05 0.95 0.35q-3.4 2.25-4.75 7.3l-0.45-0.05q-1.1-0.05-1.75 0.65m25.5-19.1-0.25 2.05-1.2-0.6-4.8-0.7 0.05-0.85 0.1-0.05 3.6-0.95 2.5 1.1" fill="#bcd369" fill-rule="evenodd"/>
<path d="m47.55 14.95 0.35 0.5 0.65 1q-3.35-2.1-7.25-2.75l-0.35-0.1-0.35-0.45-0.8-0.9 1 0.2 2.95 0.85 1.25 0.45 0.9 0.4 1.1 0.55 0.55 0.25m-27.3-3.4 1.05-0.3q3.65-0.9 6.8-0.65l1 0.15 0.15 0.05 0.6 0.05 1.45 0.4h0.05l0.55 0.2 0.05-0.1q1.65 0.65 1.95 1.55l0.05 0.2-0.05 0.5q-5.75-1.75-10.05-0.6l-0.3-0.25q-0.95-0.7-2.3-1l-1-0.2" fill="#9b9631" fill-rule="evenodd"/>
<path d="m6.1 22.35q-0.2-0.25-0.55-0.35l-0.65 0.1-0.3 0.5q-0.1 0.3 0.1 0.55t0.55 0.35l0.65-0.1 0.35-0.45-0.15-0.6m-1.15 1.85-0.55-0.4q-0.4-0.1-0.75 0.15-0.3 0.25-0.35 0.65-0.1 0.35 0.1 0.7l0.6 0.45 0.65-0.15 0.45-0.65-0.15-0.75m-1.95 4.25-0.7-0.95q-0.7-1.15-0.35-2.75 0.3-1.5 1.45-2.4 1.2-0.9 2.4-0.6 0.95 0.2 1.5 0.85-1.65 1.65-2.95 3.6l-1.35 2.25m18.85-1q-0.15 0.05-0.25 0.2l-0.2-1.25q-0.35-0.6-0.95-0.75-0.6-0.1-1.15 0.35-0.6 0.5-0.75 1.3-0.15 0.85 0.2 1.45 0.3 0.65 0.85 0.8l-0.7 0.85-1.85 0.9-0.7-0.55v-0.05l-0.35-0.5-0.15-0.25q-0.7-1.25-0.35-2.75 0.3-1.5 1.45-2.4 1.1-0.9 2.4-0.6 1.3 0.25 2 1.5 0.45 0.85 0.5 1.75m-4.5-0.7-0.75 0.15q-0.3 0.25-0.35 0.65-0.1 0.35 0.1 0.7l0.6 0.45 0.65-0.2 0.45-0.6-0.15-0.75-0.55-0.4" fill="#beefce" fill-rule="evenodd"/>
<path d="m6.1 22.35 0.15 0.6-0.35 0.45-0.65 0.1q-0.35-0.1-0.55-0.35t-0.1-0.55l0.3-0.5 0.65-0.1q0.35 0.1 0.55 0.35m15.5 5.3-2 1.9q-0.55-0.15-0.85-0.8-0.35-0.6-0.2-1.45 0.15-0.8 0.75-1.3 0.55-0.45 1.15-0.35 0.6 0.15 0.95 0.75l0.2 1.25" fill="#dbf7e3" fill-rule="evenodd"/>
<path d="m4.95 24.2 0.15 0.75-0.45 0.65-0.65 0.15-0.6-0.45q-0.2-0.35-0.1-0.7 0.05-0.4 0.35-0.65 0.35-0.25 0.75-0.15l0.55 0.4m40.7-3.9-0.25-0.3 0.4 0.3h-0.15m-11.15 3.1-2.9 0.25q-0.9-3.3-3.4-5.95 4.3 2.55 6.3 5.7m4.65-2.15q-0.7-1.55-1.9-3l3.35 2.85-1.45 0.15m-21.8 5.5 0.55 0.4 0.15 0.75-0.45 0.6-0.65 0.2-0.6-0.45q-0.2-0.35-0.1-0.7 0.05-0.4 0.35-0.65l0.75-0.15" fill="#576932" fill-rule="evenodd"/>
<path d="m47.9 15.45q2.3 2 4.9 2.9-3.45 1.2-7 1.95l-0.4-0.3 0.25 0.3-5.05 0.8-3.35-2.85q1.2 1.45 1.9 3l-2.25 0.15-2 2h-0.4q-2-3.15-6.3-5.7 2.5 2.65 3.4 5.95l-1.6 0.25q-2 0.4-3.75 1.1-1.35-1.9-4.15-3.75-3.2-1.6-10.5-0.8 2.15-6.35 9.6-7.45l2.35-0.25 0.3 0.25q4.3-1.15 10.05 0.6l0.05-0.5-0.05-0.2 6.7 0.25 0.35 0.45 0.35 0.1q3.9 0.65 7.25 2.75l-0.65-1m-41.1 19.75-3.1-1.15-0.9-0.25q1.35-5.05 4.75-7.3 4 1.6 4.6 4.05l-0.05 0.15q0.1 1.4-0.8 2.95l-4.5 1.55m19.3-19.9-2.5-1.1-3.6 0.95-0.1 0.05-0.05 0.85 4.8 0.7 1.2 0.6 0.25-2.05m-2.85 5.1 1.65 0.1 0.1-1.85-1.6-0.4-0.9 0.7 0.05 0.05 0.7 1.4m-5-1.35 0.4-1.15-1.15-0.35-0.25 0.25 0.05 0.1 0.95 1.15" fill="#b6af3a" fill-rule="evenodd"/>
<path d="m23.25 20.4-0.7-1.4-0.05-0.05 0.9-0.7 1.6 0.4-0.1 1.85-1.65-0.1" fill="#dde49a" fill-rule="evenodd"/>
<path d="m60.5 14.4 0.1-0.1 0.85-0.6m5.65-3.7v-0.15m-0.05-6.45q-0.95-2.3-3.4-3.25l-1.7-0.05q-0.8 0.15-1.8 0.65-2.2 1.2-2.95 3.4-0.4 1-0.45 2.3-0.15 2.6 0.8 5.1 1 2.5 2.45 3.15l0.5-0.3m6.9-9.85 0.15 0.75 0.05 1q0.1 1.75-0.5 3.55m0 0.15q2.35-1.4 4.5 0.5l0.9 0.9m-12.85 3.55q-3.15 1.85-7.4 1.3-1.85-1.4-3.4-2.25l-1.3 0.95m14.45-0.85-0.15-0.7-0.4 0.3m-1.8 1.25 0.35-0.25m-39.75-3.55-0.2 0.5 0.2-0.1 1.05-0.3m12.5-4.9q-1-1.6-5.15 0.6-2.5 2.15-7.15 1.2l-1.2-0.3-0.05 3.3-4.15 0.85q-2.45 0.7-5 3.8-2.45 2.95-3.6 6.4m21.75-11.4 0.6 0.05m1.5 0.4 0.55 0.2 0.05-0.1 0.65-1.4 1.55-2.25-0.3-1.35m-4.75 4.4-1-0.15q-3.15-0.25-6.8 0.65m10 0-1.45-0.4m2.75-0.9q3.75 0.1 8.2 1.25l2-1.4q6.95 1.1 7.35 3.15l-0.15 0.15m-0.3 0.2-0.85 0.7m-45.85 14.45-0.7-0.95q-0.7-1.15-0.35-2.75 0.3-1.5 1.45-2.4 1.2-0.9 2.4-0.6 0.95 0.2 1.5 0.85l0.15-0.15 0.05-0.25m-6.9 12.2q0.85-3.1 2.4-5.95l1.35-2.25q1.3-1.95 2.95-3.6m-7.3 14.45q0.2-1.25 0.55-2.45m46.45-19.9 0.55 0.25m-2.55-1.2 0.9 0.4 1.1 0.55m-3.25-1.4 1.25 0.45m-5.2-1.5 1 0.2 2.95 0.85m-2.95-2.1-1.45 0.95 0.45 0.1m-17.95 15.2q-0.05-0.9-0.5-1.75-0.7-1.25-2-1.5-1.3-0.3-2.4 0.6-1.15 0.9-1.45 2.4-0.35 1.5 0.35 2.75l0.15 0.25" fill="none" stroke="#544225" stroke-linecap="round" stroke-linejoin="round" stroke-opacity=".41176" stroke-width=".05"/>
</g>
<g id="b">
<use width="74.25" height="40.950001" xlink:href="#e"/>
</g>
<g id="e">
<path d="m72.85 0h0.05l0.05 0.05-0.1-0.05m-10.95 15.55 3 0.1 0.45 0.65-3.45-0.75m-28.7 21.2 0.05-2.65 1 1.05-0.05 0.15-1 1.45" fill="#d26b26" fill-rule="evenodd"/>
<path d="m72.95 0.05 0.45 0.6q0.75 1.25 0.85 2.65l-0.05 0.85q-1.15 1.2-2.65 1.8l-0.45 0.3q-2.15 1-4.5 0.55l0.8-1.1q2.55-0.2 3.65-2.9-3.5-1.85-5.45 2.8l-2.45-0.1-0.55-1.95-0.2-0.8 0.1-0.1 2.75-1.7 1.05-0.95h6.55l0.1 0.05m-13.35 16.85 0.3-0.25q0.85-0.65 1.65-0.95l0.35-0.15 3.45 0.75q0.85 1.75-1.25 3.8l-0.9 0.65-2.45 0.3q-2.5 0.3-4.4-0.6l-0.4-0.4 1.4-0.6-0.7-0.45 0.45-0.3 2.5-1.8m-28.25 20.8 0.75-3.2v-0.85l0.1-2.35 1.15 1.2 0.85-1.7 1.35 1.25 0.35-0.65q1.95 4.45 1.95 8.5-3 0.2-6.5-2.2m30.3-17.3q1.9-0.7 2.25-2.45-2.95 2.05-6 1.9 1.4 0.75 3.5 0.5l0.25 0.05m-28.45 16.35 1-1.45 0.05-0.15-1-1.05-0.05 2.65" fill="#b03624" fill-rule="evenodd"/>
<path d="m74.2 4.15q-0.35 1.65-2.3 2.5-2.5 1.1-5.85 0.85l0.55-0.7q2.35 0.45 4.5-0.55l0.45-0.3q1.5-0.6 2.65-1.8m-11 16.6q-2.8 1.8-5.45 0.85l-0.4-0.15-0.35-0.35-0.1-0.05-0.55-0.6q1.9 0.9 4.4 0.6l2.45-0.3m-25.5 13.05 2.8 4q-1 2.1-2.5 2.8-2.7 1.25-6.9-2.1l0.25-0.8q3.5 2.4 6.5 2.2 0-4.05-1.95-8.5l0.35-0.65 0.3 0.55 1.15 2.5m24.7-31.1 0.1-0.05-0.1 0.1v-0.05m3.85 2.95-0.65-0.05q1.95-4.65 5.45-2.8-1.1 2.7-3.65 2.9h-0.15l-1-0.05m-4.6 14.75-0.25-0.05q-2.1 0.25-3.5-0.5 3.05 0.15 6-1.9-0.35 1.75-2.25 2.45" fill="#892b1d" fill-rule="evenodd"/>
<path d="m19.15 34.95-0.4-0.1-0.05-0.05q-10.35-2.95-12.8-2.5-1.1 0.15-0.8-1.35l0.25-0.95 0.1-0.15q4.3-1.05 6.9 0.3 5.25 2.15 10.7 1.95l0.9-0.05 0.45-0.25 1.25-1.15 0.2-0.4-0.05-0.2q0.35-2.7-1.25-4.75 0.35 2.55-1.4 4.2-2.05 1.8-10.75-1.65l-5.9 0.35q-3.75 0.75-6.5 1.6 0.05-2.15 0.4-4.15l6.8-1.85 1.55 0.4q2-0.15 2.5-1.15l0.45-0.8 5.75-2.35 0.25 0.1 0.55 0.15v0.2q3.6 1.1 4.05-3.5l-0.05-0.1v-0.7q1.95-1.5 4.4-2.45 0.75 1.1 1 2.25-0.7 5.6 1 8.45 0.75 3.3 3 3.8l0.25 0.25q6.35-0.1 11.4-1.6 5.7-1.9 8.8-5.15 5.75-6.25 10.25-12.45 0.8-1.45-0.75-3.75l-1.25-1.55 2.05-1.15v0.05l0.2 0.8 0.55 1.95 2.45 0.1 0.65 0.05q-5.65 6.3-9.15 13.05l-0.45 0.3 0.7 0.45-1.4 0.6 0.4 0.4 0.55 0.6q-8.95 8.75-17.5 11.55-1.65-0.3-2.85-1.3l-0.3-0.55-0.7 1.3-1.35-1.25-0.85 1.7-1.15-1.2-0.1 2.35q-6.65 1.95-12.95 1.3m7.6-10.9-2.35 0.6-0.9 0.2 0.9-0.2 2.35-0.6m-2.35 0.6 0.15 0.65-0.15-0.65" fill="#eef2ce" fill-rule="evenodd"/>
<path d="m66.05 7.5-0.35 0.1-4.3 6.25q-0.8 1-1.8 3.05l-2.5 1.8q3.5-6.75 9.15-13.05l1 0.05h0.15l-0.8 1.1-0.55 0.7m-8.8 13.9-0.55 1.4h-0.1q-6.95 8.45-15.7 10.5l-3.2 0.5-1.15-2.5q1.2 1 2.85 1.3 8.55-2.8 17.5-11.55l0.1 0.05 0.3 0.3h-0.05m-25.15 13.1q-4.35 2.75-12.95 0.45 6.3 0.65 12.95-1.3v0.85m-26.65-4.65q0.35-0.9 1.05-1.65l5.9-0.35q8.7 3.45 10.75 1.65 1.75-1.65 1.4-4.2 1.6 2.05 1.25 4.75l0.05 0.2-0.2 0.4-1.25 1.15-0.45 0.25-0.9 0.05q-5.45 0.2-10.7-1.95-2.6-1.35-6.9-0.3m45.05-20.05-1.2 0.1-0.2-0.7 1.35-0.15 0.05 0.75" fill="#dde49a" fill-rule="evenodd"/>
<path d="m53.2 6.95q3.65-1.3 7.15-3.1l1.25 1.55q-2.55 2.5-6.55 2l-0.65-0.1-1.2-0.35m0.45 2.5 2.8 0.6 0.05 0.2 0.15 1.9-0.7 1.45-2.4-0.6v-0.1l0.2-2-1.05-0.75 0.95-0.7" fill="#bcd369" fill-rule="evenodd"/>
<path d="m7.2 23.8 4.5-1.55-0.45 0.8q-0.5 1-2.5 1.15l-1.55-0.4m19.45-10.2q1.75-0.7 3.75-1.1l1.6-0.25 0.35 2.2q0.2 7.8-1.2 12.3 4-5.05 5.1-11.85-0.45-1.5-1.35-2.9h0.4l2-2 2.25-0.15q0.85 2 0.9 4.3-0.3 6.8-1.8 10.6 3.8-4.15 5.15-9.95-0.6-2.7-2.8-5.1l5.05-0.8q1.85 2.45 1.9 5.6-0.3 5.55-1.45 8.65 3.05-3.35 4.2-8.1-0.75-3.35-4.5-6.15 3.55-0.75 7-1.95l1.2 0.35 0.65 0.1q4 0.5 6.55-2 1.55 2.3 0.75 3.75-4.5 6.2-10.25 12.45-3.1 3.25-8.8 5.15-5.05 1.5-11.4 1.6l-0.25-0.25q-2.25-0.5-3-3.8-1.7-2.85-1-8.45-0.25-1.15-1-2.25m27-4.15-0.95 0.7 1.05 0.75-0.2 2v0.1l2.4 0.6 0.7-1.45-0.15-1.9-0.05-0.2-2.8-0.6m-3.15 0.35-0.05-0.75-1.35 0.15 0.2 0.7 1.2-0.1" fill="#b6af3a" fill-rule="evenodd"/>
<path d="m32 12.25 2.9-0.25q0.9 1.4 1.35 2.9-1.1 6.8-5.1 11.85 1.4-4.5 1.2-12.3l-0.35-2.2m7.55-2.4 1.45-0.15q2.2 2.4 2.8 5.1-1.35 5.8-5.15 9.95 1.5-3.8 1.8-10.6-0.05-2.3-0.9-4.3m6.5-0.95h0.15q3.75 2.8 4.5 6.15-1.15 4.75-4.2 8.1 1.15-3.1 1.45-8.65-0.05-3.15-1.9-5.6m-23.8 7.85 0.05 0.1q-0.45 4.6-4.05 3.5v-0.2q1.3 0.25 2.45-0.65 0.9-0.7 1.4-2.4l0.15-0.35" fill="#576932" fill-rule="evenodd"/>
<path d="m17.45 19.9 1.85-0.9 0.7-0.85 0.05 0.05q0.6 0.1 1.2-0.4 0.55-0.45 0.7-1.25l0.05-0.3 0.25-0.2v0.7l-0.15 0.35q-0.5 1.7-1.4 2.4-1.15 0.9-2.45 0.65l-0.55-0.15-0.25-0.1" fill="#beefce" fill-rule="evenodd"/>
<path d="m20 18.15 2-1.9-0.05 0.3q-0.15 0.8-0.7 1.25-0.6 0.5-1.2 0.4l-0.05-0.05" fill="#dbf7e3" fill-rule="evenodd"/>
<path d="m72.9 0 0.05 0.05m0.45 0.6q0.75 1.25 0.85 2.65l-0.05 0.85q-0.35 1.65-2.3 2.5-2.5 1.1-5.85 0.85l-0.35 0.1-4.3 6.25q-0.8 1-1.8 3.05l0.3-0.25q0.85-0.65 1.65-0.95m0.35-0.15 3 0.1 0.45 0.65q0.85 1.75-1.25 3.8l-0.9 0.65q-2.8 1.8-5.45 0.85l-0.4-0.15-0.1-0.05-0.55 1.4h-0.1q-6.95 8.45-15.7 10.5l-3.2 0.5 2.8 4q-1 2.1-2.5 2.8-2.7 1.25-6.9-2.1l0.25-0.8 0.75-3.2q-4.35 2.75-12.95 0.45l-0.4-0.1-0.05-0.05q-10.35-2.95-12.8-2.5-1.1 0.15-0.8-1.35l0.25-0.95m0.1-0.15q0.35-0.9 1.05-1.65-3.75 0.75-6.5 1.6 0.05-2.15 0.4-4.15m65.2-20.05 0.65 0.05 1 0.05m-1.65-0.1-2.45-0.1-0.55-1.95m-0.2-0.8v-0.05m4.2 4.1-0.55 0.7m1.35-1.8-0.8 1.1m-9.5 11.9-0.45 0.3 0.7 0.45-1.4 0.6m3.65-3.15-2.5 1.8m-38.85 1.45-0.55-0.15m4.55-3.25-0.15 0.35q-0.5 1.7-1.4 2.4-1.15 0.9-2.45 0.65m4-4.1v0.7m1.25 8.1 0.9-0.2 2.35-0.6m-20.25 4.15 5.9-0.35q8.7 3.45 10.75 1.65 1.75-1.65 1.4-4.2l-0.15-0.65m11.5 6.75 0.35-0.65 0.3 0.55 1.15 2.5m-5.6-0.15v0.85m0-0.85 0.1-2.35 1.15 1.2 0.85-1.7 1.35 1.25 0.35-0.65" fill="none" stroke="#544225" stroke-linecap="round" stroke-linejoin="round" stroke-opacity=".41176" stroke-width=".05"/>
</g>
</defs>
</svg>
