<?xml version="1.0" encoding="UTF-8"?>
<svg width="70px" height="75px" version="1.1" viewBox="328.6 79 69.85 75.3" xmlns="http://www.w3.org/2000/svg" xmlns:xlink="http://www.w3.org/1999/xlink">
<defs>
<g id="a">
<path d="m378.25 79h5.1l4 9.25v-0.2-9.05h0.1 3.9v26.75l-2.95 1.1 2.95-1.1 1.5 7.5-4.1 1.55-0.4-0.55-0.5-4.25-0.3-0.05-0.45-0.15q-0.8 0.15-0.75-0.3l2.05-2.65q0.95-1.85 1.05-3.85 0.15-3.25-1.1-6-4.35-0.1-7-1l4.5-1 1.25-1.75v-1.25l-0.05-0.2q-5.3-5.85-8.8-12.8m11.05 36.55 1.1-0.1 2.85-0.35 5.1 25.4-7.05 2.9q-1.05-4.25-2.45-7.85l0.55 1.3q0.65 1.7 1.95 2.45l1.85-1.6 1.65-0.9-0.3-1.3q-2-8.45-1.95-17.25-0.7-0.1-1.3-0.4t-0.95-0.85l-1.05-1.4v-0.05m-41.45 6.75-4.75-1.3v-9.5l-6.1-15.9 7.8-1.45q-1.55 2.15-2.3 4.55l-0.15 0.3 0.75 5.75q2.4 4.4 5.7 6.75l0.9 0.6 1.4 0.9q-1.3 1.2-2.9 3.15l-0.35 0.6v5.5l-4.65-1.25v-9.5l-6.1-15.9 7.7-1.45-7.7 1.45 6.1 15.9v9.5l4.65 1.25v0.05m-2.9-28.35h-0.2l0.35-0.2-0.15 0.2m17-13.65 0.3 0.45 0.55 1 0.2 0.5-0.4-0.55-0.5-0.55-0.15-0.85m1.4 2.5 0.2 0.5 0.05 0.2 0.05-0.1 0.05 0.1 0.5 1.15q1.5 4.2 3.8 7.75l0.65 0.1q1.2 0.35 1.45 0.75v0.1h-3.35l-3.15-8.85 3.15 8.85h3.35l-0.2 0.35-0.55 0.45-0.35 0.1q0 2 0.4 3.9 0.8 3.95 2.7 7.35l1.45 1.55 0.4 0.25-2 0.4-4.3-11.85-0.9-2.5-0.9 0.65 0.9-0.65 0.9 2.5 4.3 11.85 2-0.4 2.65 1.65 1.85 0.45-1.15 1-0.9 0.75-2.7 2.1q-0.35 1.15-0.15 2.35 0.65 3.35 0.75 6.55l1 0.35 0.4 0.4q-0.35 0.55-0.25 1.6l0.25 2.1h-1l-0.4-1.9-2.35-11.95 4.45-1.6-4.45 1.6 2.35 11.95 0.4 1.9h1 3.35l4.9-1.6-5.15 3.25-2.75 0.05 0.65 2q1.65 5.1 1 10.1l-0.4-0.25-2.3-11.85h1.05-1.05l2.3 11.85-0.35-0.4q-1.4-2.3-2.25-5.6l-1.65-0.5 0.15-0.2q2.6-4.55-0.3-8.25l-7.45 2.45h-6.55l1.5-0.35 0.4-0.05 5-1.95q0.05-0.1 4-1.55l1.8-0.7-0.4-1.85q-1.15-5.6-5.65-9.2l6.4 0.75-6.4-0.75-4.4-0.5 7.3-2.55q0.85-3.15 0.25-6.5-0.65-3.45-1.95-6.55l-3.65 0.1 2.75-2-0.6-1.1-0.75-0.5-2.65-1.25 2.15-1.75h0.05q0.05-2.45-0.45-4.9l-0.6-2.25 0.35 0.55m-0.75-1.1-0.35-0.95 0.35 0.95m5.05 14.15-0.9 0.05 0.9-0.05m19.8-16.85v9.25l-0.1-0.2 0.1 0.2v-9.25m2.95 36.45-1.1 0.15 1.1-0.15m-21.95-6.5 3.5-1.25-3.5 1.25m5.85 15.75-1.4 0.5 1.4-0.5m-2.35-11.95v-5.05 5.05m3.05 15.55-0.3-1.7 0.3 1.7" fill="#f1eac2"/>
<path d="m343.45 81.15 0.25-2.15h0.1 5.75q1.05 2.85 2.75 5.3l0.05 0.2 0.1-0.1 0.45-0.9 0.2-0.5q0.45-0.7 0.25-1.5h0.1l0.4 0.05 0.2 0.1h0.05l0.2-0.45 0.05-0.2 0.4-0.15 0.1-0.1v-0.15l0.1 0.05 0.15 0.1h0.05l0.4-0.3 0.05-0.1 0.1 0.05 0.15 0.1 0.25 0.25h0.1 0.15l0.9-1.75h0.1 3.65l0.95 1.3 0.15 0.85 0.5 0.55 0.4 0.55-0.2-0.5 0.55 1.05-0.35-0.55 0.6 2.25-1-2.8 1 2.8q0.5 2.45 0.45 4.9h-0.05l-2.15 1.75 2.65 1.25 0.75 0.5 0.6 1.1-2.75 2 3.65-0.1q1.3 3.1 1.95 6.55 0.6 3.35-0.25 6.5l-7.3 2.55h-12.35 12.35l4.4 0.5q4.5 3.6 5.65 9.2l0.4 1.85-1.8 0.7q-3.95 1.45-4 1.55l-5 1.95-0.4 0.05-1.5 0.35h6.55l7.45-2.45q2.9 3.7 0.3 8.25l-0.15 0.2 1.65 0.5q0.85 3.3 2.25 5.6l0.35 0.4 0.4 0.25q0.65-5-1-10.1l-0.65-2 2.75-0.05 5.15-3.25-4.9 1.6h-3.35l-0.25-2.1q-0.1-1.05 0.25-1.6l-0.4-0.4-1-0.35q-0.1-3.2-0.75-6.55-0.2-1.2 0.15-2.35l2.7-2.1 0.9-0.75 1.15-1-1.85-0.45-2.65-1.65-0.4-0.25-1.45-1.55q-1.9-3.4-2.7-7.35-0.4-1.9-0.4-3.9l0.35-0.1 0.55-0.45 0.2-0.35v-0.1q-0.25-0.4-1.45-0.75l-0.65-0.1q-2.3-3.55-3.8-7.75l-0.5-1.15-0.05-0.1 0.05-0.05 1.4-2.35q2.3-1.3 4.95-2h0.1 8.1q3.5 6.95 8.8 12.8l0.05 0.2v1.25l-1.25 1.75-4.5 1q2.65 0.9 7 1 1.25 2.75 1.1 6-0.1 2-1.05 3.85l-2.05 2.65q-0.05 0.45 0.75 0.3l0.45 0.15 0.3 0.05 0.5 4.25 0.4 0.55-3.3 1.2h0.15l3.7-0.45v0.05l1.05 1.4q0.35 0.55 0.95 0.85t1.3 0.4q-0.05 8.8 1.95 17.25l0.3 1.3-1.65 0.9-1.85 1.6q-1.3-0.75-1.95-2.45l-0.55-1.3q1.4 3.6 2.45 7.85l-0.1 0.05h-0.1l-2.55-7.4-0.1-0.3v8.75l-9.75 3.95-0.1 0.05-1.1-7.35-0.05-0.4-0.15-0.6 0.15 0.6-0.6 5.55h-4.4-0.1l-2.2 1.2-0.05 0.05-2-2-2 0.2h-0.15-0.05l-0.55 0.05q-1.2 2.4-1.8 4.85l-1.25 0.55-19.1 3.1h-0.1v-28.55l11.25-1.75-6.5-1.7v-0.05-5.5l0.35-0.6q1.6-1.95 2.9-3.15l-1.4-0.9-0.9-0.6q-3.3-2.35-5.7-6.75l-0.75-5.75 0.15-0.3q0.75-2.4 2.3-4.55l1-0.2h-0.85l0.15-0.2-0.35 0.2h-9.35-0.1l-6.7-14.95h0.1 5.25l2.5 3.75v-0.1l0.35-3.65h0.1 4.65l1.9 2.25v-0.1l0.1 0.1 0.25-2.25-0.25 2.25-0.1-0.1m-6.55-2.15-0.35 3.75-0.1-0.1 0.1 0.1 0.35-3.75m-1.5 14.95-6.7-14.95 6.7 14.95m20.95-13.2h0.1l0.9-1.75-0.9 1.75h-0.1m13.8-1.75q-1.6 0.4-3.05 1.05l-1.9 0.95-1.45 2.4-0.05 0.1v-0.15 0.15l0.05-0.1 1.45-2.4 1.9-0.95q1.45-0.65 3.05-1.05m-15 1.75h0.05l0.45-0.3 0.05-0.05-0.05 0.05-0.45 0.3h-0.05m-1.05 0.9h0.05l0.25-0.45 0.05-0.2 0.4-0.15 0.1-0.1v-0.1 0.1l-0.1 0.1-0.4 0.15-0.05 0.2-0.25 0.45h-0.05m-1.65 2.75v0.1l0.55-1 0.2-0.5q0.45-0.7 0.25-1.5 0.2 0.8-0.25 1.5l-0.2 0.5-0.55 1v-0.1m18.65 8.95h-1 1m-26.3 0.8 1.1-0.2h-0.1 0.1l-1.1 0.2m15.8 1.85h2.5-2.5m28.7 19.6-3.75 0.4h0.05-0.05l3.75-0.4m-7.6-9.95-7.75 1.65 7.75-1.65m-3 42.8-1.15-7.7-0.05 0.4 0.05-0.4 1.15 7.7m12.5-5-2.65-7.7v0.3-0.3l2.65 7.7m-43.35-21.2 6.6 1.75-11.25 1.75v28.55-28.55l11.25-1.75-6.6-1.75m20.25 23.3h0.1l1.95 1.95-1.95-1.95h-0.1m-10.65-17.9h1.45-1.45m18.95-16.5 12-4.3-12 4.3" fill="#f9f5e3"/>
<path d="m391.2 143.45h-0.1m0.1 0 0.1-0.05" fill="none" stroke="#61431f" stroke-opacity=".50196" stroke-width=".5"/>
<path d="m362.25 80.75 0.35 0.95 1 2.8 3.15 8.85h3.35 1m-5.25 0.65 0.9-0.65 0.9 2.5 4.3 11.85 2-0.4 7.75-1.65m-32.9 5.85h12.35l7.3-2.55m-1.7-13.05-3.65 0.1h-2.5m6.15-0.1 0.9-0.05m20.75 11 2.95-1.1m-25.5-11.75-2.75 2m8.85 11.7-3.5 1.25m7.95 2.2-4.45 1.6 2.35 11.95 0.4 1.9h1 3.35l4.9-1.6-5.15 3.25-2.75 0.05h-1.05l2.3 11.85 0.15 0.6m-18.55-13.1h6.55l7.45-2.45 1.4-0.5m-2.35-11.95-6.4-0.75-4.4-0.5m10.8-3.8v5.05m2.75 13.85 0.3 1.7m13.4-21.45-12 4.3m-17.5 16.5h-1.45" fill="none" stroke="#554b42" stroke-opacity=".4" stroke-width=".5"/>
<path d="m343.8 79h5.75 0.1q1.05 2.85 2.75 5.3l0.05 0.1m1-2.9 0.5 0.05 0.15 0.1m0.85-1v-0.05l0.2 0.15m0.55-0.35v-0.05h0.05l0.2 0.15 0.25 0.25h0.15m1-1.75h3.65 0.1l0.3 0.35 0.65 0.95 0.3 0.45 0.55 1 0.55 1.05 0.2 0.5 0.05 0.05v0.15l0.05-0.1 1.45-2.4 1.9-0.95q1.45-0.65 3.05-1.05h8.1 5.1 0.1l3.9 9.05 0.1 0.2v-9.25h3.9 0.1v26.75l1.5 7.5-7.35 2.75h-0.05l3.75-0.4 1.1-0.15 2.85-0.35h0.1l5.1 25.4-7.25 2.95m-2.65-7.4v8.45l-9.85 4v-0.05m-1.2-7.3-0.55 5.15h-0.1-4.4l-0.85 0.5-1.4 0.75-2-2h-0.1l-2 0.2h-0.15-0.05l-0.45 0.05q-1.2 2.4-1.8 4.85l-1.25 0.55-19.2 3.1v-28.55l11.25-1.75-6.6-1.75m-2.05-28.3h-0.85-0.2-9.35m-6.7-14.95h5.25 0.1l2.4 3.65 0.1 0.1 0.35-3.75h4.65 0.1l1.8 2.15 0.1 0.1 0.25-2.25m-15.1 0 6.7 14.95m21.95-14.95-0.9 1.75h-0.1m-0.65-0.35-0.05 0.05-0.45 0.3h-0.05m-0.2-0.1v0.1l-0.1 0.1-0.4 0.15-0.05 0.2-0.25 0.45h-0.05m-0.65-0.15q0.2 0.8-0.25 1.5l-0.2 0.5-0.55 1v-0.1m-6.65 9.55h0.1l-1.1 0.2-7.7 1.45 6.1 15.9v9.5l4.65 1.25m29.65 18.9 0.05-0.4 1.15 7.7m9.85-12.4v-0.3l2.65 7.7" fill="none" stroke="#000" stroke-opacity=".50196" stroke-width=".5"/>
<path d="m349.2 95.8q0 0.6 0.5 0.85l0.05-0.1 0.15-0.45 0.15-0.05q0.5-0.05 0.65 0.35h0.05l0.1-0.2 0.1-0.4h0.15l0.1 0.1 0.2 0.05v-0.1l0.15-0.45 0.1-0.4 0.05-0.1 0.1-0.1 0.25-0.15 0.15-0.55 0.5-1.05h0.1 0.5l0.05 0.1 0.2 0.3 0.15 0.15 0.15 1.3 0.05 1.15q-0.8 1.05-2.15 0.95 2.6 0.25 5.1-0.85l0.05-0.1v-0.55l0.15-0.35q1.05-0.1 2.1 0.35v0.05 0.5l-0.15 0.35-0.15 0.1q-0.2 0.1-0.05 0.3l0.1 0.15q0.7-0.8 0.25-2.05l-0.75-0.95q-0.4-1.55 0.65-2.75 0.45-0.5 1-0.7l1.25 0.15 0.1 0.05q0.1 1.9-1.25 3.35-0.35 0.35-0.15 0.9l1.25 0.45 0.4 0.05 0.1-0.1 0.5-0.55 0.1-0.2 0.2-0.55v-0.4l-0.2 0.25-0.3 0.25q-0.25-0.7 0-1.6l0.35-1q0.8 1 1.25 2.45l0.3 1.1q1.05 2 3.2 1.25l0.15-0.05 0.1 0.05v0.2l-0.35 0.35q-3.5-0.05-4.15-3.6l-0.05 0.5-0.25 1.1 0.05 0.1 0.15 0.1 0.15 0.2-0.1 0.05-0.85 0.2q-1.1 0.45-2.3-0.45-0.4-1.85 1.15-3.15 0.4-0.35 0.3-0.9l-1.45-0.05v0.05l-0.1 0.2q-0.9 0.55-0.95 1.6v0.75q1.2 1 0.95 2.6l-0.25 1.05-0.1 0.05-0.6-0.1-0.1-0.2-0.15-0.25-0.05-0.1-0.8-0.2-0.1-0.1-0.15-0.55 0.1-0.3v-0.05l-0.1-0.05-0.1 0.1v0.05 0.2 0.4q-2.55 1.8-5.8 0.95 0.3-0.9 1.6-0.65l0.15-0.1 0.2-0.2 0.2-0.15-0.05-1.45-0.3-1-0.05-0.1v-0.05l-0.35 0.1q-0.35 0.85-0.4 1.75-0.05 0.65-0.5 0.9l-0.1-0.2-0.05-0.15-0.05 0.1-0.3 0.75-0.2 0.15-0.1-0.1h-0.05l-0.35 0.1-0.15-0.1-0.1-0.05-0.15-0.1-0.15 0.1-0.15 0.15-0.1 0.25h-0.1-0.35l-0.05-0.1-0.25-0.3-0.15-0.25v0.1l-0.1 0.45-0.05 0.4-0.15 0.05-0.25 0.15-0.15 0.1-2.15-0.25-0.1-0.15v-0.1l0.05-0.1 0.1-0.15 2.45 0.05 0.05-0.45q0-0.65 0.35-0.95l0.15 0.25m-2.4 1.4h-0.35l0.45 0.05-0.1-0.05m10.85-1.4q0.05 0.6 0.65 0.35v-0.05-0.1-0.45l-0.65 0.2v0.05m1-0.05 0.05 0.45h0.05q0.2-0.35-0.05-0.5l-0.05 0.05m3.65-2.45 0.5-0.3-0.35-0.65-0.15 0.85v0.1m11.5 2q0.2-0.4 0.45 0l0.05 0.35 0.2 0.05q0.65-0.45 0.3-1.15v-0.05l1.1-0.75q0.05-0.7 0.6-0.2l-0.5 0.85-0.05 0.1-0.65 0.3 0.75 0.55 1-0.1 0.05-1.1 0.05-0.2 0.8 0.1 0.05 0.6v0.25q0.6-0.55 1.4-0.95l0.35-1.1 0.15-0.05-0.15 1.95v0.2l0.8 0.1q0.5-0.35 1.1-0.5l0.25-0.5v-0.05q0-0.25 0.2-0.2l0.15 0.1-0.05 0.25 0.05 0.2 0.75 0.1 0.05-0.1 0.15-0.1 0.1 0.1 0.05 0.1q0.2 0.25 0.4 0l0.05-0.65q-0.05-0.2 0.15-0.2 0.45 0.4 0.3 1.25v0.1l0.3 0.1q0.65-0.8 1.3-1.05l0.1 0.3 0.55 0.45-0.4 0.5-0.1 0.05-0.2-0.45-0.05 0.05q-0.2 0.6-0.45 0.2v-0.1q0.15-0.4-0.65 0.15l-0.55 0.25-0.2-0.3-0.1-0.1-0.65-0.25q-1.4-0.05-2.6 0.65l-1.15-0.1v-0.55-0.3q-1.5 1.05-3.55 1.2-0.1 0-0.05-0.15-0.25-0.4-0.55-0.25-1.4 1.65-3.6 0.85l-1.2-0.05q-0.85 1.05-1.9 0.55 0.9-0.05 1.6-0.6-0.2-1.55 0.45-3 0.15-0.35 0.45-0.4 0.75 1.1 0 2.65l-0.05 0.1q-0.2 0.5 0.55 0.1l0.7-1.05-0.25 1.4v0.1 0.05h1.4l0.4-0.55v-0.1m-2.8-2.3q-0.55 1.1-0.6 2.25v0.1l0.35-0.2 0.05-0.1 0.25-2.05h-0.05m6.35 1.95v0.05q0.7-0.55 0-0.75v0.7m10.15 5.35-0.6-0.5-0.15 0.85-0.05 0.35-0.7 0.15-0.6-0.75-0.35 1.4-0.25 0.45-0.45 0.05-0.55-0.45-0.9-0.15-0.35-0.7h-0.05q-0.15 0.5-0.55 0-0.4 0.5-0.95 0.2l-0.25-0.45-0.85 0.75-0.15 0.05-0.5-0.75-0.4 0.7-0.1 0.3-0.4 0.1q-0.55-0.4-0.65-1.05l-0.05-0.2-0.8 1.1-0.25 0.15 0.15 0.25q-1 0.85-1.75-0.2l0.15 0.65 0.1 0.1q-0.1 0.4-0.65 0.2l-0.85-0.75q-0.1 0.25-0.4 0.15-1.2 1.25-2.05-0.15 0.3-0.1 0.7 0.35l0.55 0.05q0.8-0.45 0.75-1.45-0.05-0.25 0.2-0.2 0.35 0.25 0.2 0.65l-0.05 0.1 1.05 0.9-0.05-0.5v-0.1q0.5-0.65 1.3-1.05 0.45-0.05 0.55 0.35l-0.4 0.55q-0.1 0.4 0.3 0.25l0.2-0.15 0.6-1.3 0.15-0.2 0.4-0.1 0.45 0.9 0.2 0.3 0.8-1.1 0.2-0.1 0.35 0.75 0.05 0.1 0.8-0.85 0.15-0.15 0.4 0.65 0.05 0.1 0.35 0.05 0.25-0.4 0.6-0.05 0.4 0.05 0.2 0.7 0.05 0.15 0.85 0.15 0.75 0.4 0.2-0.55 0.05-0.1-0.2-0.3-0.05-0.75q0-0.2 0.15-0.25 0.35-0.05 0.25-0.45v-0.1l1.05 1.2 0.05 0.1 0.25-0.05q0.25-0.75 0-1.5-0.15-0.35 0.25-0.4l0.3 0.55 0.05 0.1 0.4 0.2 0.25 0.25h0.1q0.15-0.45 0.35-0.1l-0.1 0.35-0.05 0.1-0.45 0.05m-1.75 16.6q0.2 0.55-0.15 1.1l-0.2 0.2q-0.3 0.3-0.65 0l-0.35-0.45 0.05 0.4 0.05 0.1-0.4 0.25v0.45 0.1q-0.5 0-0.75 0.2 0.05 0.45-0.5 0.3l-0.45-0.55h0.65l0.1-0.4 0.1-0.05 0.15 0.2 0.05 0.05q0.3 0.15 0.35-0.1l-0.2-1-0.05-0.3q0.3-0.2 0.5 0.2l0.05-0.65q0.05-0.1 0.15-0.05l0.2 0.35 0.05 0.1 0.55 0.65q0.55-0.35 0.6-1.05l0.1-0.05m-0.5 6.5 0.6 0.6-0.85-0.45-0.45 0.2-0.2 0.05 0.4-0.5q-0.8-0.7-1.2-1.9h0.1l1.35 1.7q0.4-0.3 0.95-0.45h0.05l-0.75 0.75m2.15-2 0.85 1.55v-0.05q-0.05-0.35 0.3-0.35l0.6 0.45 0.4 0.05v-0.2l0.05-0.05 1.15-0.05q0.1-0.3-0.35-0.3 0.15-0.25 0.55-0.35l2.1-0.05q-0.85 0.6-1.95 0.7l-0.15 0.35-0.05 0.1-1.05 0.05q-0.15 0.4-0.75 0.15l-0.45-0.5-0.2 0.55-0.05 0.1q-0.95-0.8-1.1-2.15h0.1m-4.65-16.35q0.2 0.7-0.2 1.4v0.1l0.95-1.25 0.1 0.95v0.05l0.45-0.85 0.05-0.05q0.7-0.25 0.7 0.15l-0.5 0.25-0.3 0.75q-0.5 0.3-0.75-0.2l-0.35 0.45q-0.4 0.35-0.75 0l0.45-1.7q0.05-0.1 0.15-0.05m-7.1-3.55-0.3 0.15-0.15 0.1 0.55 0.1 0.05-0.1v-0.2l-0.05-0.05h-0.1m2.65 6.35h0.15q-0.3-0.75-0.05-1.65 0-0.1 0.1-0.05 0.2 0.8 0 1.65l3.1-1.25h0.05q-1.2 1.3-3.2 1.35h-0.15v-0.05m-0.45-0.2-0.05 0.1-0.3 0.5-0.15 0.1-0.5 0.2-0.6-0.85-0.1-0.55 0.05-0.1 0.5-0.45 0.8 0.05 0.1 0.1 0.05 0.15 0.2 0.75m-0.45-0.5v-0.1l-0.7-0.05-0.2 0.35v0.1q0.25 0.55 0.8 0.25l0.1-0.55m-1.65-0.25 0.1 1.75-0.05 0.1q-0.55-0.75-0.1-1.85h0.05m8.15 2.8 1.35-0.3q0.1 0.9-1.3 0.35l-0.05-0.05m-0.75 0.1 1.3 3.4v0.05q-0.5-0.05-0.65-0.6l-0.15 0.4-0.1 0.2-0.9-0.05 0.65-0.2q0.15-1.55-0.25-3.2h0.1m-16.6-7.85q-0.05-0.5 0.35-0.3l0.05 0.35v0.1l1.25 0.2-1.95-0.05-0.3 0.35-0.5 0.05-0.45-0.45q0 0.6-0.4 1.1l-0.05 0.1-0.5-0.1-0.35-0.5-0.55 0.35-1.2-0.1-0.55-0.55q0.25-0.35 0.75 0.25l0.4-0.15 0.05-0.35 0.05-0.1q0.25-0.3 0.5 0l-0.1 0.55-0.1 0.1q0.8-0.45 0.75-1.5 0.45 0.35 0.3 1.1l-0.05 0.2 0.35 0.45q0.55-0.8 0.6-1.9h0.15q0.05 0.6 0.5 1.1l0.05 0.05q0.35-0.1 0.2-0.55l0.75 0.2m2.25 6.15q0.35 0.25 0 0.45l-0.15 0.1-0.2 0.45-0.05 0.2-0.4 0.1-0.5-0.5q-0.2 0.1-0.35 0.3-0.9 0.5-1.05-0.3l-0.7 0.55-0.1 0.1h-0.55l-0.5-0.55-0.05-0.1-0.05-0.4 0.05-0.1q0.35-0.05 0.3 0.35l0.3 0.4 0.1 0.05h0.35l0.75-0.95 0.4 0.6 0.05 0.05 0.55 0.05 0.55-0.45 0.45 0.5 0.7-0.85 0.1-0.05m1.75-0.45 0.15 0.1 0.15 0.05 0.05 0.2 0.1 0.2 0.35 0.05 0.05 0.15q-0.05 0.4-0.4 0.25-0.55-0.5-0.55-1h0.1m-0.8 8q-0.2 0.7-0.35 0l-0.65-0.1-0.45-0.55-0.65 0.55h-0.4l-0.4-0.5-0.3 2.75-0.25 0.25q-0.3-1.05-0.05-2.3l0.05-0.3q-0.55 1.15-1.4 0.75 1-0.4 1.4-1.45 0.1-0.15 0.3-0.2 0.05-0.45 0.55-0.15-0.1 0.4 0.15 0.75l0.45-0.05q0.7-0.9 0.7-2.05h0.1l0.1 1.85 0.05 0.1q0.25 0.35 0.45 0.1l0.4-0.75 0.2 0.65 0.7 0.95 0.25-0.95 0.05-0.1 0.55 0.85q0.5-0.55 0.5-1.35 0.65 0.8-0.5 1.75l-0.4-0.4-0.4 0.65-0.75-0.75m-5.1 5 0.1 0.85v0.1l0.35-0.7 0.55 0.1v0.55 0.05q0.05-0.35 0.35-0.6 0.45 0.3 0.45 1l0.6-0.9 0.55 1.05 0.65-0.05 0.1-0.55-0.05-0.1q0.5-0.05 0.85 0.45l0.5-0.05v-0.55-0.1q0.35-0.15 0.4 0.3 0.55 0.2 0.8 0.5h-0.95q0 0.6-0.75 0.3l-0.4-0.4-0.6 0.65-0.75-0.1-0.3-0.75-0.55 0.85q-0.5-0.25-0.55-0.95l-0.3 0.8v0.1q-0.5-0.3-0.4-1.25-0.35 0.55-0.45 1.25-0.6-0.3-0.45-1.25-0.5 0.4-0.55 1.1-0.6-0.85 0.75-1.7h0.05m7.4-0.05q0.6 0.5 0.85 1.35v0.05l0.2-0.85 0.05-0.15q0.7 0.15 1.45 0.8l0.05-0.6 0.05-0.3 1.1 0.45q-0.05-0.45 0.45-0.3l0.5 0.35q-0.3 0.2-0.65 0v0.5l-0.05 0.2-1.05-0.75v0.4 0.3l-0.5 0.1-1.05-0.75q-0.25 0.5-0.25 1.1v0.25q-0.85-0.5-1.05-1.75-0.65 0.4-0.75 1.2l-0.1 0.1q-0.8-0.35-0.65-1.25l0.45 0.65 0.05 0.05 0.85-1.1 0.05-0.05m8.9-8 0.7 0.3 0.1 0.1 0.2 0.9q0.1 0.2 0.3 0.15 0.2 0.25-0.2 0.35h-0.2l-0.2-0.3-0.05-0.2-0.6 0.8-0.15 0.1q0.05-0.6 0.4-1.25v-0.25l-0.4-0.55 0.1-0.15m-0.7 2.25 0.1 0.05v0.55 0.2l-2.1 2.4 0.3 2.65v-0.1q0.35-0.05 0.45 0.4l0.05 0.1q0.7-1.2 0.05-2.7-0.1-0.3 0.15-0.25 0.65 0.55 0.5 1.4v0.1q0.25 0.5 0.6 0.25 0.4 0 0.15 0.35l-0.05 0.1-0.7-0.15-0.25 0.95-0.05 0.2q-0.45 0-0.6 0.25 0 0.5-0.45 0.2 0-0.5 0.15-0.95l-0.05 0.05q-1.4-1.2-0.65-2.9l-0.4-3.1-0.05-0.2q-0.25 0.35-0.6 0.3 0.75-1.35 0.8-2.7h0.05l0.25 0.25q-0.25 2.4 0.25 4.8v0.2l1.5-1.7-0.35-0.35v-0.6-0.15l0.7 0.1h0.25m-2.35 3.7q-0.05 0.85 0.3 1.6l0.05 0.05-0.3-1.65h-0.05m6.7 6.6v0.1q-0.1 0.3-0.45 0.1l-0.7-1.05h0.05l1.1 0.85m-2.05-0.35q0.75 0.4 0.25 1.4l-0.05 0.1q-0.75 0.4-1.15-0.2-0.05-0.45-0.7-0.4l-0.2-0.45 0.05-0.1q0.3 0 0.4 0.35l0.25-0.15 0.1-0.65 0.05-0.1q0.45 0.4 0.35 1.25v0.1q0.25 0.35 0.65 0v-0.95-0.2m-3.4-0.15q1.1 2.15-1 3.35l-0.35 0.15-0.5 0.4q-0.45-0.1-0.8-0.45l-0.35 0.5-0.1 0.05q-0.45 0-0.15-0.3 0.4-0.35 0.4-0.95l0.9 0.8 0.55-0.4q1.25-0.2 1.25-1.25-0.55-1 0.15-1.9m-0.25 7.15 0.45 1.75h0.05v0.2l0.15 0.5v0.1l-0.15-0.2q-0.2 1.15-1.35 2l-0.1 0.1-1.55-0.3 0.05-0.4v-0.05q-0.35-0.5-0.05-1.05l0.05-0.05q0.75-0.3 1.4 0 0.05 0.85-0.55 1.5l0.5 0.05q1-0.9 1.45-2-0.55-0.85-0.45-2.15h0.1m-1.8 3.8 0.4-0.75 0.05-0.1q0.05-0.5-0.75-0.15-0.45 0.5 0.2 1h0.1m5.3-4.3 0.45 1.5 0.05 0.1 0.7-0.6 0.6 0.35 0.65 0.05q0.35-0.75 0.9-1.05 0.35 0.6 0.35 1.3v0.1q-0.35 0.3-0.45-0.1 0.2-0.4-0.05-0.85-0.15 0.6-0.65 0.9l-0.7 0.05-0.5-0.4q-0.45 0.15-0.55 0.7-0.45 0-0.7-0.5-0.7 1.05-1.65 1.55-0.15-0.3 0.2-0.35l1.1-1.3q0-0.7 0.15-1.4l0.1-0.05m-12.45-2.4q-1.15 0.8-2.3 1.05 0.1-0.35-0.45-0.75l-0.25 0.35-0.05 0.1q-0.4-0.1-0.55 0.2-0.35 0.55-0.65 0-0.2-0.05-0.3 0.3l-0.05 0.1-0.95 0.05-0.1-0.4v-0.1q-0.25 0-0.65 0.35l-0.75-0.1q-0.05-0.65 0.45-1.15 0.2-0.2 0.35 0l-0.4 0.75-0.1 0.1q0.95 0.1 1.2-1l0.05-0.1q0.4 0.2 0.2 0.95v0.35l0.45 0.05 0.25-0.85 0.1-0.25q0.35 0.15 0.4 0.65l0.05 0.1 0.4-0.25 0.05-0.4v-0.1l0.35 0.35 0.35-0.35 0.1-0.3 0.15-0.05 0.35 0.65 0.05 0.1 0.75-0.05q0.95-0.5 2.2-0.7 0.4 0.15 0.55 0.45l-0.65-0.15-0.65 0.55q-0.2-0.25 0.05-0.5m-1.15 4.9 0.2 1.7v-0.15l0.05-0.1q0.85 0.05 1.45 0.6l0.1 0.1 0.05 0.2 0.1 0.25 0.1 0.2q-0.2 0.4-0.7 0l-0.25-0.2 0.25-0.1 0.2-0.05-0.85-0.6h-0.35v0.25l0.05 0.4v0.2q0.9 0.7 1.9 0.75-1.75 0.25-2.1-0.65l-0.35-0.15-0.05-0.65v-0.1l-0.45 1.1q-0.2-0.95 0.15-2.3l0.5-0.7m2.35 0 0.65 2.05 1.15-0.45h0.05q-0.3 0.7-1.1 0.75l0.3 1.05v0.05l-0.65-1.1-0.7-0.15-0.05-0.05 0.65-0.05q-0.4-0.95-0.35-2.1h0.05m-5.7 3.25q-0.55 0.1-1.05-0.45l-0.45-0.05-0.25-0.25-0.15-0.1-0.05 0.3-0.05 0.15q-0.15 0.3-0.5 0.25l-0.45-0.6-0.05-0.05-1.15 1.1q1.3-1.75 1.25-3.8v-0.05q0.8 0.85 0.2 2.2l-0.05 0.1 0.3 0.65 0.05 0.1 0.2-0.3 0.05-0.25q0.45-0.3 0.75 0.15h0.25v-0.05l0.05-0.35 0.05-0.2q0.35 0.15 0.3 0.75v0.1l0.75 0.65m28.95-7.9q0.2 0.4-0.15 0.85v0.05q-0.55 0.5-1.2 0.55l-0.5 0.55 0.3 1.1v0.2q-0.7 1.35-2 1.1l1 6.3v0.1q0 0.35-0.5 0.2-0.75-0.55-0.9-1.3l1.05 0.9-1.5-9.25-0.05-0.1-0.55 0.8-1.45-0.1q0.35-0.35 1.3-0.25 0.65-1.35 0.6-2.7h0.05l0.95 5.3q1.15-0.05 1.7-1.1 0.05-0.5-0.25-0.85l-0.05-0.1-0.9-0.1q-0.1-0.2-0.05-0.5v-0.05l1 0.2 0.45-0.55 0.05-0.4v-0.1q0.35-0.05 0.45 0.25 0.8-0.15 1.1-1h0.05m-34.7-26.2-0.05 0.55v0.2q-0.3 0.3-0.6 0l-0.45-0.85-0.05-0.1-1.1 0.75-1.1-0.1-0.25 0.1-0.15 0.05-0.55-0.1-0.5 0.1-0.55-0.45-0.35 0.45-0.1 0.1-1-0.1-0.25 0.3-0.1 0.1q-0.6 0.35-0.65-0.2-0.15-0.2-0.3 0.1l-0.15 0.2q-0.55 0.45-1.25 0l-0.15-0.55v-0.2q-1.05 0.95-2.15 0.55 2.2-0.4 2.65-2.6 0.2 1-0.1 2.1l-0.05 0.35q0.4 0.45 0.95 0l0.15-0.2 0.1-0.1 0.05-0.15 0.05-0.2q0.35 0.1 0.5 0.55v0.1l0.35-0.4v-0.05l0.6 0.05 0.75-0.1 0.2-0.4 0.05-0.15q0.65 0.5 1 0.35 0.05-0.65 0.5-0.2-0.05 0.25 0.05 0.35l0.2 0.05 0.15-0.1 0.25-0.1q-0.2-1.15 0.5-1.95 0.15-0.15 0.25-0.2 0.95 1-0.3 2.2l-0.1 0.1 0.65 0.05 0.3-0.3 0.3-1.45 0.15-0.05 0.05 1v0.2q0.55-0.25 0.55-0.95l0.05-0.1 0.55 1.75q0.05 0.2 0.05 0l0.3-0.4 0.1 0.05m-2.65-1.7q-0.45 0.5-0.4 1.2v0.1q0.65-0.45 0.45-1.3h-0.05m-1.5 6.2 0.35-0.3 0.15-0.05 0.3 0.05 0.15 0.1q0.15 1.1 0.75 2.05l0.25 0.25-0.3-1.05v-0.2q0.2-0.3 0.6-0.15l0.5 0.45 0.05 0.1 0.05 0.3v0.35q0.6-0.1 1.2-0.95l0.05-0.35 0.15-0.3q0.3 0.5 0.2 1.15l-0.05 0.3 0.2-0.45v-0.35q0.3-0.3 0.55 0l0.35 0.65 0.15 0.25 0.35-0.05v-0.05l0.1-0.75 0.05-0.4 0.75 1.3v0.1q-0.25 0.2-0.5-0.2l-0.05-0.1v0.15l-0.2 0.3-0.75-0.05-0.35-0.65-0.15-0.2-0.25 0.85-0.15 0.25h-0.05l-0.35-0.1v-0.4-0.35q-0.75 0.9-2.25 0.95-1-0.9-1.1-2.15v-0.2q0.05-0.25-0.25-0.05l-0.15 0.15q-0.6 1.25-2.1 0.95l-0.55 0.65-0.15 0.1q-0.55-0.1-0.7 0.2-0.35 0.9-1.5 0.75-0.8-0.45-0.95-1.25 0.45-0.05 0.45 0.35l0.05 0.1 0.45 0.45q0.65 0.15 1.15-0.3l0.05-0.85q-0.05-0.2 0.2-0.15l0.1 0.1 0.05 0.25 0.55 0.05q0.65-0.45 0.6-1.25l0.05-0.15q0.3 0 0.3 0.35l0.1 0.2 0.8 0.1 0.7-0.5v-0.05-0.2-0.1m2.5 1.5v-0.1q-0.2-0.4-0.6-0.35 0.05 0.5 0.5 0.8h0.1v-0.35m-4.4 5.2 0.1 0.85-0.05 0.05 1.1-0.05q-0.05-0.65 0.4-0.65l-0.05 0.6v0.05l0.65 0.05q0-0.3 0.25-0.25l0.35 0.55 0.8 0.1 0.3-0.3 0.1-0.65v-0.1q0.35 0.2 0.45 0.75 0.2 0.3-0.3 0.2l-0.45 0.45h-0.85l-0.45-0.4-0.35 0.15q-0.7-0.35-1.35 0-0.5 0.05-0.85-0.3-0.1-0.55 0.05-1.05 0-0.1 0.15-0.05m-4.7 7.75q1.2-0.95 1.7-2.25l0.05 1.55 0.05-0.05q0.2-0.4 0.45-0.15 0.2 0.65 0.75 0.75l0.45 0.75q0.45-0.05 0.55 0.25l-0.55 0.15-0.45-0.55-0.95-0.95q-0.25 0.35-0.35 0.75-0.55-0.35-0.25-1.3-0.4 0.9-1.25 1.45l-0.5-0.1q-0.05-1.65 1.05-2.05l-0.5 0.65-0.2 1.05-0.05 0.05m12.45-7.25 0.15-1.2-0.15 1.1v0.1m-0.35 0.15q-0.1-1.6 0.75-2.65 0.25 1.3-0.05 2.6l-0.05 0.1q0.1 0.3 0.35 0 0-0.35 0.35-0.55 0.35 0.05 0.25 0.45-0.4 0.35-0.45 0.85 0.5-0.65 1.15-0.75l-1.4 1.3-0.05-0.6v-0.05q-0.35-0.3-0.6 0.15-0.35 0.3-0.5 0l0.45-0.5-0.2-0.35m-3.35 4.95q-0.4 0.7-0.45 1.5l-0.05 0.1q0.65-0.55 0.5-1.65v0.05m0.1-0.5q0.7 1.45-0.55 2.75l-0.05 0.1 1.85-1.95 0.1 1.4 0.05 0.1 0.6-0.8 0.9 1.3q0 0.35-0.35 0.2l-0.5-0.95q-0.25 0.6-0.9 0.65-0.25-0.45-0.15-1.05v-0.1q-0.8 0.65-1.45 1.85l-0.45-0.05v-0.3-0.15l-1.5 0.8q-0.85-1.9 1.25-2.15-1.25 0.45-1.2 1.75 0.85-0.05 1.4-0.9 0-1.35 0.8-2.4l0.15-0.1m-1.5 9.05 0.1 0.75v0.05q0.3-0.5 0.5 0.05l0.3-0.3 0.55 1.05 0.65-1.1v-0.05q0-0.3 0.35-0.2l0.9-0.15-0.55 1.3-0.05 0.1-0.6-0.4-0.5 0.85-0.55-0.05-0.15-0.65-0.05-0.05q-0.25 0.3-0.5-0.1l-0.3 0.45-0.05 0.3v0.1l-0.45-0.05v-0.55l0.05-0.1-0.65 0.75q-0.35 0.25-0.65 0v-0.75-0.1q0.3-0.65 0.8-0.55l-0.5 0.65v0.35 0.1q0.95-0.55 1.25-1.7h0.1m2.5 0.95q0.3 0.15 0.5-0.45l-0.1-0.1-0.45 0.5 0.05 0.05m-5.65 0-1.5 1.4-0.25-1.25q-0.5 0.5-0.6 1.15-0.55-0.45-0.4-1.3-0.65 0.55-0.75 1.45l-0.1 0.1q-0.35-1.35 1.05-2.15l0.1 0.95v0.05l0.3-0.35 0.05-0.1q0.25-0.3 0.55-0.1l0.25 0.95 1.55-1.5 0.05 1.3v0.1l0.95-0.2q-0.4 0.8-1.2 0.55l-0.05-0.95v-0.1m0.7 8.55 0.05-0.3q0.25-0.25 0.3 0.1l0.1 0.4 0.15 0.2 0.25-0.1 0.05-0.1 0.05-0.45q-0.05-0.2 0.15-0.3l0.25 0.4v0.05l1.25-0.35 0.6 0.05q0-0.4 0.4-0.25l0.2 0.2 1.4-0.3q-0.25 0.7-1.4 0.55h-0.25l-0.3 0.25q-0.3 0.1-0.45-0.15-1 0.2-1.7 0.65-0.15 0.35-0.55 0.2l-0.45-0.3-0.1-0.45m-0.8 0.5 0.15 0.45-1.8-0.15 1.15-0.25-1.25-0.85 0.55-0.45 0.15-0.4 0.05-0.05q-1.3 0.4-1.4 2.15l-0.05 0.15-0.55 0.05q0.1-1.3 0.65-2.6 0.1-0.3 0.45-0.3 0.15 0.3-0.1 0.65v0.1l0.9-0.65 0.5 0.1q0 0.75-0.65 1.2l0.9 0.45 0.35 0.4" fill="#630"/>
</g>
</defs>
<use xlink:href="#a"/>
</svg>
