<?xml version="1.0" encoding="UTF-8"?>
<svg version="1.1" viewBox="0 0 59.801 93.403" xmlns="http://www.w3.org/2000/svg" xmlns:cc="http://creativecommons.org/ns#" xmlns:dc="http://purl.org/dc/elements/1.1/" xmlns:rdf="http://www.w3.org/1999/02/22-rdf-syntax-ns#" xmlns:xlink="http://www.w3.org/1999/xlink">
<metadata>
<rdf:RDF>
<cc:Work rdf:about="">
<dc:format>image/svg+xml</dc:format>
<dc:type rdf:resource="http://purl.org/dc/dcmitype/StillImage"/>
</cc:Work>
</rdf:RDF>
</metadata>
<g transform="translate(-245.05 -153.75)">
<use transform="translate(245.05,153.75)" width="59.799999" height="93.400002" xlink:href="#b"/>
<use transform="translate(254.2,197.6)" width="45.099998" height="36.349998" xlink:href="#a"/>
</g>
<defs>
<g id="b" transform="translate(.5 .5)">
<path d="m0 22.45q0-1.75 2.35-4.6l1.95-1.8q2.05-1.75 4-2.85 3.1-1.8 6-2l3 0.25h0.1q3.05 0.75 5.9 3.45-3.1 0.3-1.45 3.7-8.95-9.65-17.6-0.3 2.35-0.95 2 1.45-1.4 3.4-4.55 4.8-1.75-0.6-1.7-2.1" fill="#d17688" fill-opacity=".76078" fill-rule="evenodd"/>
<path d="m21.85 18.6q-1.65-3.4 1.45-3.7 2 1.9 3.9 4.85 1-1.9 2.6-1.5 2.2 0.05 1.35 3.5-1.5 3.4-4.45 3.35-2.45-3.95-4.85-6.5" fill="#945484" fill-opacity=".76078" fill-rule="evenodd"/>
<path d="m0 22.45q-0.05 1.5 1.7 2.1 3.15-1.4 4.55-4.8 0.35-2.4-2-1.45 8.65-9.35 17.6 0.3m1.45-3.7q-2.85-2.7-5.9-3.45m5.9 3.45q2 1.9 3.9 4.85 1-1.9 2.6-1.5 2.2 0.05 1.35 3.5-1.5 3.4-4.45 3.35-2.45-3.95-4.85-6.5" fill="none" stroke="#883392" stroke-linecap="round" stroke-linejoin="round" stroke-opacity=".31372"/>
<path d="m38.9 3.9 0.1-0.15 0.1-0.3q-0.05-0.75-2.3-1.25l-4.4-0.5-1.1-0.05-1.2 0.05h-0.65l-3.6 0.5q-2.3 0.5-2.3 1.25t2.3 1.3l5.35 0.5-5.35-0.5q-2.3-0.55-2.3-1.3t2.3-1.25l3.6-0.5q0.35 2.25 1.75 3.55h0.1l5.5-0.5 2.1-0.85m-7.5-3.9q3.95 0 6.8 1.15 2.9 1.2 2.9 2.85l-0.2 0.85q-0.6 1.1-2.7 2l-0.65 0.25q-2.7 0.9-6.25 0.9t-6.2-0.9l-0.7-0.25q-2.9-1.2-2.9-2.85t2.9-2.85q2.85-1.2 6.9-1.15h0.1m-18.65 85.65-1.95-2.2-1.85-2.6-1.45-2.55-0.8-1.45-0.05-0.05-0.75-1.45-1.3-3-0.85-3v-0.05l-0.7-3.3-0.35-3.3-0.15-3.5 0.1-3.45 0.4-3.35 0.7-3.2q0.35-1.6 0.85-3.1 0.55-1.55 1.25-2.95l0.5-1.15 0.85-1.75 1.65-2.7 1-1.35 1-1.15 2.45-2.5q0.9-0.9 1.95-1.75 2.2-1.8 4.8-3.05 1.35-0.7 2.75-1.15l2.3-0.6 0.1-0.05 0.4-0.1-0.25-0.25q3.85-6.95 2.05-13.4l3.8 2.2q0.25 8.1 2.2 14.55-2.9 0.95-5.8-1.25-1.6 0.5-3.1 1.25-2.55 1.15-4.8 2.85l-2.85 2.5-1.55 1.55-0.95 1.05-0.15 0.2-0.3 0.35-0.4 0.55-0.15 0.15v0.05q-0.9 1.25-1.65 2.6l-1.4 2.75q-0.7 1.35-1.25 2.8-0.5 1.4-0.85 2.95l-0.65 3q-0.3 1.55-0.45 3.2l-0.1 3.3 0.15 3.3 0.4 3.15 0.65 3.15 0.85 2.85 1.3 2.85 0.8 1.45 1.65 2.75 0.65 1.05 1.8 2.45 2.2 2.3 0.2 0.2 13.2 0.95 10.65-0.55 3.85 3.8-14.1 1.05q-9.45-0.05-16.05-1.6l-2.25-2.1-0.2-0.2m14.85-57.95-2-1.85 2 1.85" fill="#e09eca" fill-opacity=".76078" fill-rule="evenodd"/>
<path d="m35.2 28.1 1.95 0.85q2.55 1.15 4.8 2.85 2.3 1.85 4.4 4.05l0.95 1.05v0.05q-1.25-0.8-4.2-1.45-5.1-1.2-12.25-1.15-7.15-0.05-12.3 1.15-2 0.4-3.2 0.95l-1 0.5v-0.05l0.95-1.05 1.55-1.55 2.85-2.5q2.25-1.7 4.8-2.85 1.5-0.75 3.1-1.25 2.9 2.2 5.8 1.25l1.8-0.85" fill="#dc7f90" fill-opacity=".76078" fill-rule="evenodd"/>
<path d="m48.35 38.2 0.55 0.85 1.1 1.75 1.35 2.75 1.25 2.8 0.85 2.95 0.7 3 0.25 2.05 0.15 1.15 0.1 3.3-0.15 3.3v0.15l-0.35 3-0.7 3.15-0.85 2.85-1.3 2.85-0.8 1.45-1.95 3.25-0.3 0.55-1.85 2.45-2.15 2.3-0.35 0.3-2.4 0.3-10.65 0.55-13.2-0.95-0.2-0.2-2.2-2.3-1.8-2.45-0.65-1.05-1.65-2.75-0.8-1.45-1.3-2.85-0.85-2.85-0.65-3.15-0.4-3.15-0.15-3.3 0.1-3.3q0.15-1.65 0.45-3.2l0.65-3q0.35-1.55 0.85-2.95 0.55-1.45 1.25-2.8l1.4-2.75q0.75-1.35 1.65-2.6v-0.05l0.1 0.1q0 1.6 5.1 2.75 5.15 1.15 12.3 1.15l7.3-0.35 4.95-0.8q3.8-0.85 4.8-1.95l0.35-0.8 0.1-0.05" fill="#c44e9a" fill-opacity=".76078" fill-rule="evenodd"/>
<path d="m47.4 37 0.85 1.1v0.15l-0.35 0.8q-1 1.1-4.8 1.95l-4.95 0.8-7.3 0.35q-7.15 0-12.3-1.15-5.1-1.15-5.1-2.75l0.05-0.25 0.4-0.55 0.3-0.35 0.15-0.15 1-0.5q1.2-0.55 3.2-0.95 5.15-1.2 12.3-1.15 7.15-0.05 12.25 1.15 2.95 0.65 4.2 1.45l0.1 0.05" fill="#d17ad2" fill-opacity=".76078" fill-rule="evenodd"/>
<path d="m50.3 85.55-0.1 5.1q-18.7 3.6-37.6-0.2l0.15-4.8 0.2 0.2 2.25 2.1q6.6 1.55 16.05 1.6l14.1-1.05 2.65-0.5 2.3-2.45" fill="#c46e87" fill-opacity=".76078" fill-rule="evenodd"/>
<path d="m37.55 7.1q-5.6 9.9-0.05 19l-0.05 0.05-2.25 1.95-1.8 0.85q-1.95-6.45-2.2-14.55l-3.8-2.2q-0.7-2.6-2.3-5.1 2.65 0.9 6.2 0.9t6.25-0.9" fill="#d17688" fill-opacity=".76078" fill-rule="evenodd"/>
<path d="m30.1 1.7 1.2-0.05 1.1 0.05 4.4 0.5q2.25 0.5 2.3 1.25l-0.1 0.3-0.1 0.15-2.1 0.85-5.5 0.5h-0.1q-1.4-1.3-1.75-3.55h0.65" fill="#e5c9ff" fill-opacity=".76078" fill-rule="evenodd"/>
<path d="m37.5 26.15 3.8 1.6q2.55 1.25 4.75 3.1 2.3 1.9 4.35 4.2l1.95 2.6 0.9 1.4 1.55 2.8 1.85 4.35 0.95 3.05 0.8 5v0.1l0.35 5 0.05 2.9-0.05 0.65-0.25 3.1-0.8 5.65-0.9 3.7-0.55 1.45-1 2-0.75 1.1-2.9 4.05-1.3 1.6-2.3 2.45-2.65 0.5-3.85-3.8 2.4-0.3 0.35-0.3 2.15-2.3 1.85-2.45 0.3-0.55 1.95-3.25 0.8-1.45 1.3-2.85 0.85-2.85 0.7-3.15 0.35-3v-0.15l0.15-3.3-0.1-3.3-0.15-1.15-0.25-2.05-0.7-3-0.85-2.95-1.25-2.8-1.35-2.75-1.1-1.75-0.55-0.85-0.1-0.1-0.85-1.1-0.1-0.1-0.95-1.05q-2.1-2.2-4.4-4.05-2.25-1.7-4.8-2.85l-1.95-0.85 2.25-1.95h0.05" fill="#d67888" fill-opacity=".76078" fill-rule="evenodd"/>
<path d="m38.9 3.9-2.1 0.85-5.5 0.5h-0.1l-5.35-0.5q-2.3-0.55-2.3-1.3t2.3-1.25l3.6-0.5h0.65m10.8 3.15q-0.6 1.1-2.7 2l-0.65 0.25q-2.7 0.9-6.25 0.9t-6.2-0.9l-0.7-0.25q-2.9-1.2-2.9-2.85t2.9-2.85q2.85-1.2 6.9-1.15h0.1m6.1 26.15 3.8 1.6q2.55 1.25 4.75 3.1 2.3 1.9 4.35 4.2l1.95 2.6 0.9 1.4 1.55 2.8 1.85 4.35 0.95 3.05 0.8 5v0.1l0.35 5 0.05 2.9-0.05 0.65-0.25 3.1-0.8 5.65-0.9 3.7-0.55 1.45-1 2-0.75 1.1-2.9 4.05-1.3 1.6m-37.55 0.1-1.95-2.2-1.85-2.6-1.45-2.55-0.8-1.45-0.05-0.05-0.75-1.45-1.3-3-0.85-3v-0.05m19.05-42.7 2.3-0.6m12.35 0.15 0.05-0.05m0 0.05h-0.05l-2.25 1.95m-1.8 0.85 1.8-0.85m-9.85-2.5 0.25 0.25 2 1.85q2.9 2.2 5.8 1.25m-7.8-3.1-0.4 0.1-0.1 0.05" fill="none" stroke="#883392" stroke-linecap="round" stroke-linejoin="round" stroke-opacity=".36078"/>
<path d="m37.55 7.1q-5.6 9.9-0.05 19v0.05m12.8 59.4-0.1 5.1q-18.7 3.6-37.6-0.2l0.15-4.8m12.35-59.65 0.25-0.4q3.85-6.95 2.05-13.4-0.7-2.6-2.3-5.1" fill="none" stroke="#883392" stroke-linecap="round" stroke-linejoin="round" stroke-opacity=".36078"/>
<path d="m36.85 79.15q0-1.4 1.05-2.35t2.55-0.95 2.55 0.95 1.05 2.35-1.05 2.35-2.55 0.95-2.55-0.95-1.05-2.35" fill="#e5c9ff" fill-opacity=".76078" fill-rule="evenodd"/>
<path d="m25.8 37.1-2.15 0.25-2.2-0.1q-0.95-0.25-0.9-1.5-0.05-1.3 0.9-2.2 0.9-0.95 2.2-0.9 1.2-0.05 2.15 0.9 0.9 0.9 0.9 2.2 0 1.25-0.9 1.35" fill="#e5c9ff" fill-opacity=".76078" fill-rule="evenodd"/>
<path d="m34 34.35q-1.2-3.4 2.3-4.05 3.6-0.7 8.15 3.25 11.15 13.95 10.2 28.25-0.9 13.1-10.8 22.7-2.85 2.75-9.25 3.7-6.7 1-5.5-2.85 1.15-3.6 4.65-12.7 2.85-7.45 3.85-11.8 3.1-13.25-3.6-26.5" fill="#7a308e" fill-opacity=".36078" fill-rule="evenodd"/>
<path d="m17.4 84.45q5.35 2.55 11.4 2.75 6.05 0.25 10-1.6 4.1-2 4.15-3.1 0.05-1.15-4.4-0.05-4.5 1-10.8 0.2l-10.9-1.95q-4.6-1.1-4.65 0.05-0.05 1.1 5.2 3.7" fill="#e4e1ff" fill-opacity=".26274" fill-rule="evenodd"/>
<path d="m13.85 76.05-5.7-1.65q-1-2.6-1.65-5.1l6.75 1.85q0.15 2.45 0.6 4.9m5.5-34.5q-5.45 11.95-6.1 23l-8.35-3.6q-1.15-12.7 6.25-21.7l8.2 2.3" fill="#e7d1ff" fill-opacity=".062745" fill-rule="evenodd"/>
<path d="m25.7 33.55q-2.25 1.15-4.55 3.6t-4.35 3.65q-1.95 1.2-3.2-0.5-1.2-1.65-0.15-4.25 1.1-2.55 3.8-4.55 2.75-2 5.5-2.25 2.8-0.2 4 1.45 1.25 1.7-1.05 2.85" fill="#e4e1ff" fill-opacity=".26274" fill-rule="evenodd"/>
<path d="m27.6 25.45q0.5-1.55 0.8-4.55l0.3-5.65q-0.05-2.75 0.8-2.65t1.4 2.3q0.65 2.1 0.95 5.05 0.35 3-1.45 5.1-1.7 2.1-2.55 2t-0.25-1.6" fill="#e5d5ff" fill-opacity=".26274" fill-rule="evenodd"/>
</g>
<g id="a" transform="translate(-254.2,-197.6)">
<path d="m274.5 233.45h-0.05v-0.05l0.05 0.05" fill="#cecbb3" fill-rule="evenodd"/>
<path d="m274.5 233.4v0.05l-0.05-0.05h0.05" fill="#c5c1a5" fill-rule="evenodd"/>
<path d="m274.45 233.45h-0.05l-5.35-0.2-5.45-1.15-5.75-1.5q-5.55-12.5-2.65-23.05 1.3-4.9 3.2-9.4l19.8 0.95-0.55 2.55q11.45 16.9 3.3 29.2l-6.45 2.55h-0.05v0.05" fill="#e6ddc1" fill-rule="evenodd"/>
<path d="m278.2 199.1 1.75-0.1 13.9-0.9q0.95 1.25 3.95 9.15 2.95 7.95-2.6 23.6l-5 0.9-6.05 1-4.3 0.55-5.35 0.15v-0.05l6.45-2.55q8.15-12.3-3.3-29.2l0.55-2.55" fill="#dacea5" fill-rule="evenodd"/>
<path d="m293.85 198.1q0.95 1.25 3.95 9.15 2.95 7.95-2.6 23.6l-5 0.9-6.05 1-4.3 0.55-5.35 0.15h-0.1l-5.35-0.2-5.45-1.15-5.75-1.5" fill="none" stroke="#8e885b" stroke-linecap="round" stroke-linejoin="round"/>
<path d="m276.2 200.25 3.75 3.2 0.05 1.65h0.5l1.8 6.4-1.8-0.05 1.35 15.65-3.65 3.2h-6.8l1.15-18.9-6.8-0.05 0.95-6.1 6.2-0.05 0.15-4.85 3.15-0.1" fill="#636" fill-rule="evenodd"/>
<path d="m279.95 203.45-3.75-3.2 3.6-0.15 0.15 3.35m-1.75 26.85 3.65-3.2 0.3 3.2h-3.95m4.1-18.8-1.8-6.4 6.05-0.05 1.15 6.45h-5.4" fill="#2b152b" fill-rule="evenodd"/>
</g>
</defs>
</svg>
