<?xml version="1.0" encoding="UTF-8"?>
<svg width="59px" height="61px" version="1.1" viewBox="51 38.25 58.55 60.55" xmlns="http://www.w3.org/2000/svg" xmlns:xlink="http://www.w3.org/1999/xlink">
<defs>
<radialGradient id="a" cx="0" cy="0" r="819.2" gradientTransform="matrix(.049774 0 0 .049774 86.9 61.35)" gradientUnits="userSpaceOnUse">
<stop stop-color="#fefdfe" offset="0"/>
<stop stop-color="#e2fe98" offset=".5451"/>
<stop stop-color="#2c3c00" offset="1"/>
</radialGradient>
<g id="e">
<path d="m61.4 98.6-5.1-0.55q-5.3-0.7-5.3-1.7t5.3-1.7l0.8-0.1 12.15-0.6 12.9 0.7q5.35 0.7 5.35 1.7t-5.35 1.7l-12.9 0.75-7.85-0.2" fill="#524a3a" fill-opacity=".42353"/>
<path d="m90.6 43.3 0.55 0.4 0.05 0.05 0.2 0.15v0.1l2.55 2.45 2.35 2.65q1.95 2.4 3.55 5.15l0.05 0.1 0.75 1.45v0.1l0.45 0.8v0.1q2.4 4.6 3.8 10.25v0.15l0.2 0.9v0.05l0.45 2.25v0.15q0.6 3.35 0.35 7v0.1 0.1q0 1.45-0.35 2.6-0.8 4.45-3.05 7.5-4.3 5.7-11.8 8.2-3.8 1.25-8.35 1.65-7.6 0.6-13.4-1.25-7.65-2.4-12.05-8.05-4.15-5.25-4-14.75l0.6-0.95 0.6-0.2 1.05-1.85 0.75-1.6q0.2-1.85-0.5-2.95-0.45-0.65-1.15-1l-0.1-0.05q0.5-2.1 1.25-4v-0.1-0.1l1.3-3.05 0.05-0.1v-0.1l2.2-4.15v-0.1-0.1l0.95-1.35h0.1v-0.1l0.7-1h0.05v-0.1-0.15l3.2-3.9 0.05-0.1v-0.1q1.85-1.9 3.85-3.6l0.05-0.1v-0.1q3.85-3.4 9.95-4.35l2.85-0.05 1.45 0.4q5 1.5 8.45 4.6v0.05" fill="url(#a)"/>
</g>
<g id="d">
<path d="m43.9 9.85 1.5 3.85-0.4-0.7q1.8 3.7 0.2 9.15l-0.75 0.4v0.2q-17.2-1.2-14.6-18.45 0.35-2.3 1.55-4.3 5 0.75 8.3 3.7l2.35 2.65 1.85 3.5m-0.3 18.3 0.75 0.25q10.9 5 4.25 15.2l0.2-0.4-2.45 3.55q-3.9 4.45-10.7 4.85h-0.1l-1.15-0.05q-1.7-0.25-2.95-1.4l0.1 0.1 0.45 0.25-1.4-1.95q-1.95-5.2 0.9-11.15l-0.05-0.05q3.55-7.95 12.15-9.2m-33.25-18.8q11.25 5.8 3.95 19.2-3.15 5.7-9.5 6.3l-3-1.15q-0.95-2.6-1.4-4.95l0.5-0.85 0.75-1.6 0.25-0.6v-0.15l-0.2-1.7-0.55-0.5-1.15-1q1.5-6.8 6.85-11.5 1.5-1.25 3.5-1.5" fill="#690"/>
</g>
<g id="c">
<path d="m88.95 59.4 1 0.85-1-0.85m1 0.85-8.8 5.85h-2.4l-0.4-0.35h-0.1l-12.1-3.95 5.75-2.05 6.85 1.95 2.3 3 2.55-0.9q6.25-10 15.6-4.4l-8.8 0.5-0.45 0.35m-34.95 5.45 13-2.9-15 10.8q3.85-4.6 2.75-6.7-0.2-0.75-0.75-1.2"/>
<path d="m89.95 60.25-1-0.85m1 0.85 5.8 5m-20.45-9.25 4.9-5.35" fill="none" stroke="#000"/>
<path d="m73.7 48.95 1.7 10.75-0.3 0.8 0.9 3.2-10.75 1.9-0.25-4.65-0.85-0.9 4.05-9.15 5.5-1.95" fill="#383321"/>
<path d="m73.7 48.95 2.75-0.95-0.45 6.1 5.6-3.2-1.95 7.75-4.2 0.85-0.05 0.2-1.7-10.75"/>
<path d="m74 58.05q0 1.75-0.85 2.95-0.8 1.25-1.95 1.25t-2-1.25q-0.85-1.2-0.85-2.95t0.85-3 2-1.25 1.95 1.25q0.85 1.25 0.85 3" fill="#fff"/>
</g>
<filter id="b">
<feColorMatrix in="SourceGraphic" result="cxform" values="1.0 0.0 0.0 0.0 0.0 0.0 1.0 0.0 0.0 0.0 0.0 0.0 1.0 0.0 0.0 0.0 0.0 0.0 0.46875 0.0"/>
<feComposite in2="SourceGraphic" operator="in" result="color-xform"/>
</filter>
</defs>
<use xlink:href="#e"/>
<use transform="translate(54.3 42.8)" filter="url(#b)" xlink:href="#d"/>
<use xlink:href="#c"/>
</svg>
