<?xml version="1.0" encoding="UTF-8"?>
<svg version="1.1" viewBox="0 0 20.153 32.407" xmlns="http://www.w3.org/2000/svg" xmlns:cc="http://creativecommons.org/ns#" xmlns:dc="http://purl.org/dc/elements/1.1/" xmlns:rdf="http://www.w3.org/1999/02/22-rdf-syntax-ns#" xmlns:xlink="http://www.w3.org/1999/xlink">
<metadata>
<rdf:RDF>
<cc:Work rdf:about="">
<dc:format>image/svg+xml</dc:format>
<dc:type rdf:resource="http://purl.org/dc/dcmitype/StillImage"/>
</cc:Work>
</rdf:RDF>
</metadata>
<g transform="translate(-274.94 -205.81)">
<use transform="matrix(.4383 0 0 .3797 274.94 205.81)" width="45.950001" height="85.349998" xlink:href="#a"/>
</g>
<defs>
<g id="a" transform="translate(22.95,42.65)">
<use transform="translate(-22.95,-42.65)" width="45.950001" height="85.349998" xlink:href="#b"/>
</g>
<g id="b" transform="translate(22.95,42.65)">
<path d="m14.05-22.45q0.85 2.9 0.4 4.9v0.4q-0.05 1.45-2.55 2.85l-2.2 1-2.85 0.4-3.3 0.3q-5.1 0.25-10.45-0.25h-0.05q-1.4-1.75-1.5-3.45-0.1-1.3 0.6-2.6l0.55 0.05q7.1 0.55 13.75-0.05l2.85-0.35 2.2-0.85 0.5-0.2q2-1.05 2.05-2.15" fill="#a7d0f5" fill-rule="evenodd"/>
<path d="m-0.1-21.05 4.4-0.3q3.6-0.6 4.55-1.5h0.05l0.15-3.35 0.25 0.1 2.6 1.2q1.9 1.1 2.15 2.1v0.35q-0.05 1.1-2.05 2.15l-0.5 0.2-2.2 0.85-2.85 0.35q-6.65 0.6-13.75 0.05l-0.55-0.05q-0.7 1.3-0.6 2.6 0.1 1.7 1.5 3.45h-0.2l-3.45-0.45-1.2-0.6-1-0.6q-1.95-1.35-2.15-2.65v-0.2q-0.8-2.45-0.35-4.9l-0.05-0.6q0.25-1.65 4.2-3.2l0.15 3.1h0.05q1.95 1.05 6.8 1.65l4.05 0.25m12 6.75q-1.8 2.8-0.7 7.6 9 12.1 11.45 26.85 1 6.05-1.1 10.65l-2.25-0.3-10.55-0.3q-1.1-2.7-1.7-7.15 2 2.85 5.7 2.65l1.7-0.1q2.1-3.05 2.2-6.85 0.05-1.9-0.7-3.6l-0.65 0.25q-0.9-3.1-3.75-3.05-2.5-0.5-4.65 0.55l-0.55 1.15-0.1-4.85v-0.4q0-2.75-1.55-5.05l-0.25-0.7-2.35-3.9-0.6-1.3q-0.6-1.8-0.1-4.3 0.45-2.7 2.15-6.15l3.3-0.3 2.85-0.4 2.2-1m-8.25 11.7q0.1 1.9 1.95 3.35h2.6l1.35-1.2-0.7-4-0.05-0.15q-0.5-1-1.65-1.35l-0.45 0.25h-1.5l-1.3 1q-0.35 1.1-0.25 2.1m2.4 33.05 1.15-0.15 4.4 0.6-5.55-0.45m7.2 0.7q4.85 0.8 5.1 1.4v0.15l-0.35 0.6-0.05 0.05q-0.9 1.15-3.35 2.95-2 1.45-6.5 2.3-8.95-3.05-5.65-5.05 2.35-1.45 10.8-2.4m-28.55-53.4q0.3 1 2.25 2.1l0.85 0.4 1.2 0.5 3.15 0.35-3.15-0.35-1.2-0.5-0.85-0.4q-1.95-1.1-2.25-2.1" fill="#dbedfb" fill-rule="evenodd"/>
<path d="m-6.95-12.85h0.05q5.35 0.5 10.45 0.25-1.7 3.45-2.15 6.15-0.5 2.5 0.1 4.3l0.6 1.3 2.35 3.9 0.25 0.7-0.45-0.6-15.5-0.65 2.95-5.3 1.75-2.5 0.05-0.15q0.8-3.7-0.65-7.4h0.2m13.2 22.05 0.1 4.85q-1.3 3.85 0.1 7.7l0.6 1.3q0.6 4.45 1.7 7.15l-1.55 0.1-1.15 0.15-0.9-0.4 0.35 0.45-0.45 0.05 6.65 0.35 0.9 0.05 0.95 0.05-0.3 0.15q-8.45 0.95-10.8 2.4-3.3 2 5.65 5.05l-6.35 0.85q-9.65 0.75-15.5-3.4l-1.5-0.8q-0.45-0.45-0.35-0.1v0.1l-0.2-0.2-1.65-1.3-0.05-0.05-0.6-0.45 1.75-0.55v0.15q6.65-1.9 15.2-2.6-5.85-1-14.9-0.05v-0.05l-0.7 0.1-0.4-0.9q-0.35-4.35 0.75-10.25 2.95 2.65 7.45 4.4 9.2-2.55 14.7-11.3 0.45-1.6 0.5-3m-21.85 25.95-0.75-2.3 0.75 2.3" fill="#94c9f3" fill-rule="evenodd"/>
<path d="m-21.35 31.15q-2.25-4.7-1.25-11 0.65-3.85 1.75-7.55 0.7 1.85 1.8 3.5 1.1 1.6 2.65 3-1.1 5.9-0.75 10.25l0.2 0.95-3.15 0.55-1.25 0.3m5.3-30.15q2.15-4 4.9-7.7 1-4.05-0.65-7.2l1.2 0.6 3.45 0.45q1.45 3.7 0.65 7.4l-0.05 0.15-1.75 2.5-2.95 5.3-2.05-0.5-2.75-1" fill="#ecf5fd" fill-rule="evenodd"/>
<path d="m-20.85 12.6 0.45-1.5 2 3.4 2.55 2.9q2.5 2.15 6.4 3.55 7.9-2.05 12.6-9.05 1.35-4.15-1.25-7.2l-13.35-0.55-2.5-0.65-2.9-1 0.8-1.5 2.75 1 2.05 0.5 15.5 0.65 0.45 0.6q1.55 2.3 1.55 5.05v0.4q-0.05 1.4-0.5 3-5.5 8.75-14.7 11.3-4.5-1.75-7.45-4.4-1.55-1.4-2.65-3-1.1-1.65-1.8-3.5m24.5-15.2q-0.1-1 0.25-2.1l1.3-1h1.5l0.45-0.25q1.15 0.35 1.65 1.35l0.05 0.15 0.7 4-1.35 1.2h-2.6q-1.85-1.45-1.95-3.35m2.7 16.65 0.55-1.15q2.15-1.05 4.65-0.55 2.85-0.05 3.75 3.05l0.65-0.25q0.75 1.7 0.7 3.6-0.1 3.8-2.2 6.85l-1.7 0.1q-3.7 0.2-5.7-2.65l-0.6-1.3q-1.4-3.85-0.1-7.7" fill="#fff" fill-rule="evenodd"/>
<path d="m-20.4 11.1q1.45-4.45 3.55-8.6l2.9 1 2.5 0.65 13.35 0.55q2.6 3.05 1.25 7.2-4.7 7-12.6 9.05-3.9-1.4-6.4-3.55l-2.55-2.9-2-3.4" fill="#fc3" fill-rule="evenodd"/>
<path d="m-0.1-21.05 0.85-3.05q2.7-8.25-2.9-12.5-0.75-2.1 3.55-1.25 4.25 0.85 7.2-2l0.75 1.45 0.15 0.95-0.65 14.6q-0.95 0.9-4.55 1.5l-4.4 0.3m-9.2-20.05 0.8 1.1 0.05 0.2 2.4 1.7q-1.1 1.4-3.25 1h-0.65l-1.5 0.7-0.05-1.25q0.1-2.15 2.2-3.45" fill="#6f3700" fill-rule="evenodd"/>
<path d="m8.6-39.85q-2.95 2.85-7.2 2-4.3-0.85-3.55 1.25 5.6 4.25 2.9 12.5l-0.85 3.05-4.05-0.25q-4.85-0.6-6.8-1.65l-0.2-4.3 0.15-0.05h-0.15l-0.3-9.1 1.5-0.7h0.65q2.15 0.4 3.25-1l-2.4-1.7-0.05-0.2-0.8-1.1 1.05-0.6q4.25-1.2 8.45-0.8 4.15 0.35 6.25 1.15 1.3 0.45 2.15 1.5" fill="#ffa448" fill-rule="evenodd"/>
<path d="m21.55 30.8-0.1 0.2-0.45 0.95q-2.35 4.15-7.5 7-2.9 1.6-5.8 2.5-3.5 1.05-7 1.2h-1.35l-4.5-0.55q-3.15-0.7-6.3-2.15l-0.55-0.25-1.45-0.75-2.9-1.85q-3.35-2.6-5-5.95l1.25-0.3 3.15-0.55-0.2-0.95 0.4 0.9 0.7-0.1v0.05q9.05-0.95 14.9 0.05-8.55 0.7-15.2 2.6v-0.15l-1.75 0.55 0.6 0.45 0.05 0.05 1.65 1.3 0.2 0.2v-0.1q-0.1-0.35 0.35 0.1l1.5 0.8q5.85 4.15 15.5 3.4l6.35-0.85q4.5-0.85 6.5-2.3 2.45-1.8 3.35-2.95l0.05-0.05 0.35-0.6v-0.15q-0.25-0.6-5.1-1.4l0.3-0.15-0.95-0.05-0.9-0.05-6.65-0.35 0.45-0.05-0.35-0.45 0.9 0.4 5.55 0.45-4.4-0.6 1.55-0.1 10.55 0.3 2.25 0.3m-33.55 8.9-1.65-1.45q-1.3-1.2-2.1-2.9l-0.05-0.3 0.05 0.3q0.8 1.7 2.1 2.9l1.65 1.45m-4.95-9.4 0.6 2.4-0.6-2.4" fill="#630" fill-rule="evenodd"/>
<path d="m-0.1-21.05 4.4-0.3q3.6-0.6 4.55-1.5l0.65-14.6-0.15-0.95-0.75-1.45q-0.85-1.05-2.15-1.5-2.1-0.8-6.25-1.15-4.2-0.4-8.45 0.8l-1.05 0.6q-2.1 1.3-2.2 3.45l0.05 1.25 0.3 9.1m0.15 0-0.15 0.05 0.2 4.3q1.95 1.05 6.8 1.65l4.05 0.25m9.15-5.15 0.25 0.1 2.6 1.2q1.9 1.1 2.15 2.1m0.4 5.65q-0.05 1.45-2.55 2.85-1.8 2.8-0.7 7.6 9 12.1 11.45 26.85 1 6.05-1.1 10.65l-0.1 0.2-0.45 0.95q-2.35 4.15-7.5 7-2.9 1.6-5.8 2.5-3.5 1.05-7 1.2h-1.35l-4.5-0.55q-3.15-0.7-6.3-2.15l-0.55-0.25-1.45-0.75-2.9-1.85q-3.35-2.6-5-5.95-2.25-4.7-1.25-11 0.65-3.85 1.75-7.55l0.45-1.5q1.45-4.45 3.55-8.6l0.8-1.5q2.15-4 4.9-7.7 1-4.05-0.65-7.2l-1-0.6q-1.95-1.35-2.15-2.65m-0.4-5.7q0.25-1.65 4.2-3.2m25.2 3.6q-0.05 1.1-2.05 2.15l-0.5 0.2-2.2 0.85-2.85 0.35q-6.65 0.6-13.75 0.05l-0.55-0.05-3.15-0.35-1.2-0.5-0.85-0.4q-1.95-1.1-2.25-2.1m8.35 9.4h0.05q5.35 0.5 10.45 0.25l3.3-0.3 2.85-0.4 2.2-1m-23.15 16.8 15.5 0.65 0.45 0.6q1.55 2.3 1.55 5.05v0.4m-22.65 9.9q2.95 2.65 7.45 4.4 9.2-2.55 14.7-11.3 0.45-1.6 0.5-3m-21.85 25.95v0.1l-0.2-0.2 0.05 0.3q0.8 1.7 2.1 2.9l1.65 1.45m4.85-52.55h0.2m-4.85-1.05 1.2 0.6 3.45 0.45q1.45 3.7 0.65 7.4l-0.05 0.15-1.75 2.5-2.95 5.3-2.05-0.5-2.75-1m-0.35 18.1q-1.55-1.4-2.65-3-1.1-1.65-1.8-3.5m4.5 20.25 0.75 2.3m-1.35-4.85-0.2-0.95q-0.35-4.35 0.75-10.25m0.05 13.6-0.6-2.4m0.6 2.4v0.15" fill="none" stroke="#630" stroke-linecap="round" stroke-linejoin="round" stroke-width=".1"/>
<path d="m14.05-22.8v0.35q0.85 2.9 0.4 4.9v0.4m-29.4 0v-0.2q-0.8-2.45-0.35-4.9l-0.05-0.6m7.5 3.95q-0.7 1.3-0.6 2.6 0.1 1.7 1.5 3.45" fill="none" stroke="#630" stroke-linecap="round" stroke-linejoin="round" stroke-width=".1"/>
<path d="m-8.55-2.35-0.1-0.05 0.1 0.05" fill="#f05539" fill-rule="evenodd"/>
<path d="m-8.55-2.35 0.35 0.25q3.3 1.45 7.1 1.1h3.1v0.1l2.05 3.95-15.3-0.6 2.6-4.85 0.1 0.05m20.5 40.35q-14 6.25-27.55-2.65-3.05-9.35-0.8-16.15 3.45 3.35 7.4 4.4 11.45-4.15 14.9-11.65l0.3-1.8q-1.05 15.35 5.75 27.85" fill="#429e27" fill-rule="evenodd"/>
<path d="m-6.55-5.55 5.7-0.4 2.1-0.1h0.1q-0.75 2.2 0.65 5.05h-3.1q-3.8 0.35-7.1-1.1l-0.35-0.25 2-3.2m16 2.4 0.3-0.2 0.25 0.05h0.15q3.95 5.35 6.4 12 4.25 8.85 4.25 16.55 0.2 5.25-5.05 10.75l-3.8 2q-6.8-12.5-5.75-27.85 0.4-4.5-1.7-6.7l-0.4-0.4h-0.05l-2.05-3.95v-0.1l2-0.2q0.2 0.85 0.7 1.5 0.75 1.05 1.95 1.05t2-1.05q0.85-1.05 0.85-2.65l-0.05-0.8m-25.05 38.5-2.75-2q-4.2-5.8-1.85-13l0.95-4.4 2.85 3.25q-2.25 6.8 0.8 16.15m4.35-32.9-2.9-0.75q1.7-3.15 3.65-5.3h0.05l1.8 1.2-2.6 4.85m17.95 16.3q0 3.2 1.6 5.3 1.55 2.1 3.9 2.1 2.45 0 4.05-2.1 1.65-2.1 1.65-5.3t-1.65-5.3q-1.6-2.1-4.05-2.1-2.35 0-3.9 2.1-1.6 2.1-1.6 5.3" fill="#54c932" fill-rule="evenodd"/>
<path d="m-6.55-5.55-2 3.2-0.1-0.05-1.8-1.2h0.05q1.65-1.4 3.85-1.95m8.55 4.55q-1.4-2.85-0.65-5.05l4 0.4-0.65 0.65q-0.8 1.05-0.8 2.65l0.1 1.15-2 0.2" fill="#85db6c" fill-rule="evenodd"/>
<path d="m5.35-5.65q2.3 0.55 3.95 1.9l0.15 0.6 0.05 0.8q0 1.6-0.85 2.65-0.8 1.05-2 1.05t-1.95-1.05q-0.5-0.65-0.7-1.5l-0.1-1.15q0-1.6 0.8-2.65l0.65-0.65m1.35 24.4q0-3.2 1.6-5.3 1.55-2.1 3.9-2.1 2.45 0 4.05 2.1 1.65 2.1 1.65 5.3t-1.65 5.3q-1.6 2.1-4.05 2.1-2.35 0-3.9-2.1-1.6-2.1-1.6-5.3" fill="#caf0bf" fill-rule="evenodd"/>
</g>
</defs>
</svg>
