<?xml version="1.0" encoding="UTF-8" standalone="no"?>
<!DOCTYPE svg PUBLIC "-//W3C//DTD SVG 1.1//EN" "http://www.w3.org/Graphics/SVG/1.1/DTD/svg11.dtd">
<svg width="100%" height="100%" viewBox="0 0 479 448" version="1.1" xmlns="http://www.w3.org/2000/svg" xmlns:xlink="http://www.w3.org/1999/xlink" xml:space="preserve" xmlns:serif="http://www.serif.com/" style="fill-rule:evenodd;clip-rule:evenodd;stroke-miterlimit:3;">
    <g transform="matrix(1,0,0,1,-3760.76,-2777.46)">
        <g transform="matrix(10,0,0,10,0,0)">
            <g id="sprite0" transform="matrix(1,0,0,1,400,300)">
                <g id="shape0">
                    <path d="M1.05,-21C1.017,-20.833 1.033,-20.65 1.1,-20.45C1.233,-20.117 1.467,-19.867 1.8,-19.7L2,-19.6L2.8,-19.45L3.55,-19.95L3.65,-20.3L3.55,-20.8L2.9,-21.55L2.55,-21.7L1.9,-21.75C1.567,-21.717 1.317,-21.567 1.15,-21.3L1.05,-21M4.15,-17.4C1.483,-17.9 -1.1,-17.933 -3.6,-17.5L-4.45,-20.7C-1.283,-22.667 1.75,-22.667 4.65,-20.7L4.15,-17.4M-3.1,-19.25L-2.75,-19L-2.45,-18.95L-2.15,-19L-1.8,-19.25L-1.55,-19.85C-1.55,-20.117 -1.633,-20.333 -1.8,-20.5C-1.967,-20.667 -2.183,-20.75 -2.45,-20.75L-3.1,-20.5L-3.35,-19.85L-3.1,-19.25" style="fill:#a17225;"/>
                    <path d="M1.05,-21L1.15,-21.3C1.317,-21.567 1.567,-21.717 1.9,-21.75L2.55,-21.7L2.9,-21.55L3.55,-20.8L3.65,-20.3L3.55,-19.95L2.8,-19.45L2,-19.6L1.8,-19.7C1.467,-19.867 1.233,-20.117 1.1,-20.45C1.033,-20.65 1.017,-20.833 1.05,-21M-3.1,-19.25L-3.35,-19.85L-3.1,-20.5L-2.45,-20.75C-2.183,-20.75 -1.967,-20.667 -1.8,-20.5C-1.633,-20.333 -1.55,-20.117 -1.55,-19.85L-1.8,-19.25L-2.15,-19L-2.45,-18.95L-2.75,-19L-3.1,-19.25" style="fill:#d19430;"/>
                    <path d="M19.4,-6.9L19.8,-8.35L20.7,-8.2L20.05,-6.15L19.45,-6.9L19.4,-6.9" style="fill:#9de8e8;"/>
                    <path d="M16.55,-5.45L15.8,-6.35L16.4,-6.9L18.75,-6.9L16.55,-5.45M-19.95,-6.2L-19.2,-6.7L-16.1,-6.7L-15.9,-6.65L-19.8,-5.7L-19.95,-6.2" style="fill:#e8e48d;"/>
                    <path d="M13.6,-5.4L14.7,-4.05L15.75,-2.4L16.5,-0.9L16.6,-0.75L17.3,1.7L17.4,2.5L17.55,4.55L17.5,5.9C15.033,8.633 12,9.667 8.4,9L4.4,7.95L-0.55,7.25C-4.183,7.05 -6.767,7.817 -8.3,9.55C-9.3,10.683 -9.85,11.833 -9.95,13C-10.15,14.833 -9.25,16.7 -7.25,18.6C-8.917,17.867 -10.467,16.85 -11.9,15.55L-12.6,14.85C-15.033,12.417 -16.433,9.583 -16.8,6.35L-16.95,4.55L-16.8,2.6L-16.5,0.9L-16.1,-0.35L-15.1,-2.55L-13.35,-1.35C-9.55,-1.083 -5.933,-2 -2.5,-4.1C-0.1,-5.067 2.767,-5.367 6.1,-5L8.6,-4.65C10.4,-4.75 11.55,-5.283 12.05,-6.25L13.6,-5.4M17.05,-4.75L16.55,-5.45L18.75,-6.9L19.45,-6.9L20.05,-6.15L19.75,-5.25L17.05,-4.75M-15.2,-6.4L-16.05,-5.3L-16.55,-5.5L-19.15,-3.65L-19.8,-5.7L-15.9,-6.65L-15.2,-6.4" style="fill:#b5b26e;"/>
                    <path d="M17.9,-3.35L17.55,-3.95L17.05,-4.75L19.75,-5.25L18.7,-1.7L17.9,-3.35M17.5,5.9C17.333,7.867 16.8,9.683 15.9,11.35C15.067,12.85 13.933,14.25 12.5,15.55C9.733,18.05 6.5,19.517 2.8,19.95L0.3,20.1C-2.433,20.1 -4.95,19.6 -7.25,18.6C-9.25,16.7 -10.15,14.833 -9.95,13C-9.85,11.833 -9.3,10.683 -8.3,9.55C-6.767,7.817 -4.183,7.05 -0.55,7.25L4.4,7.95L8.4,9C12,9.667 15.033,8.633 17.5,5.9M-16.05,-5.3C-17.083,-3.867 -17.85,-2.467 -18.35,-1.1L-18.95,-2.95L-19.15,-3.65L-16.55,-5.5L-16.05,-5.3" style="fill:#94915a;"/>
                    <path d="M7.1,-13.35L5.55,-14.1L0.05,-15.1L-4.7,-14.6L-6.6,-13L-6.85,-13.35C-7.65,-14.483 -7.5,-15.65 -6.4,-16.85L-3.6,-17.5C-1.1,-17.933 1.483,-17.9 4.15,-17.4L6.5,-16.8C7,-16.3 7.317,-15.767 7.45,-15.2C7.55,-14.7 7.467,-14.167 7.2,-13.6L7.1,-13.35M-6.2,-12.2L-4.7,-11.1L-3.6,-11.1L-3.6,-10.65L-5.9,-10L-7.55,-9.35L-9.9,-8.05L-11.9,-6.45L-13.35,-5L-11.9,-6.45L-9.9,-8.05L-7.55,-9.35L-5.9,-10L-3.6,-10.65L-3.6,-11.1L6.65,-11.1L7.3,-12.05L7.8,-11.9L20.85,-14.8C22.783,-15.2 23.7,-14.3 23.6,-12.1L22.35,-7.9L20.7,-8.2L21.4,-10.65C21.467,-12.25 20.817,-12.883 19.45,-12.55L10.6,-10.6L9.2,-11.3L7.8,-11.9L9.2,-11.3L10.6,-10.6C11.867,-9.867 13.05,-9 14.15,-8L15.8,-6.35L16.55,-5.45L17.05,-4.75L17.55,-3.95L17.9,-3.35L15.75,-2.4L14.7,-4.05L13.6,-5.4L12.5,-6.45C11.533,-7.35 10.5,-8.117 9.4,-8.75L8.15,-9.35L6.9,-9.85L6.75,-9.9L6.35,-10.05L4,-10.5L4,-11.1L4,-10.5L6.35,-10.05L6.75,-9.9L6.9,-9.85L8.15,-9.35L9.4,-8.75C10.5,-8.117 11.533,-7.35 12.5,-6.45L13.6,-5.4L12.05,-6.25C11.55,-5.283 10.4,-4.75 8.6,-4.65L6.1,-5C2.767,-5.367 -0.1,-5.067 -2.5,-4.1C-5.933,-2 -9.55,-1.083 -13.35,-1.35L-15.1,-2.55L-13.45,-4.85L-13.4,-4.95L-13.35,-5C-12.717,-5.7 -11.683,-6.3 -10.25,-6.8L10.65,-6.8L12.05,-6.25L10.65,-6.8L-10.25,-6.8C-11.683,-6.3 -12.717,-5.7 -13.35,-5L-13.4,-4.95L-13.45,-4.85L-15.1,-2.55L-16.1,-0.35L-16.5,0.9L-16.8,2.6L-16.95,4.55L-16.8,6.35C-16.433,9.583 -15.033,12.417 -12.6,14.85L-14.25,16.3C-17.083,13.533 -18.717,10.283 -19.15,6.55L-19.3,4.5L-19.2,2.6L-19.15,2.3L-18.8,0.35L-18.35,-1.1C-17.85,-2.467 -17.083,-3.867 -16.05,-5.3L-15.2,-6.4L-13.55,-8L-11.3,-9.8L-11.25,-9.85L-11.15,-9.9L-9,-11.1L-8.65,-11.25L-6.2,-12.2M-20.9,-2.9L-23.6,-11.35C-23.7,-13.55 -22.8,-14.45 -20.9,-14.05L-11,-11.8L-12.2,-11.1L-17.2,-11.85L-17.65,-11.2L-19.25,-11.6C-20.55,-11.867 -21.167,-11.25 -21.1,-9.75L-19.95,-6.2L-19.8,-5.7L-19.15,-3.65L-18.95,-2.95L-20.9,-2.9" style="fill:#65cccc;fill-opacity:0.5;"/>
                    <path d="M-6.6,-13L-4.7,-14.6L0.05,-15.1L5.55,-14.1L7.1,-13.35L6.35,-12.35L7.05,-12.15L7.3,-12.05L6.65,-11.1L4,-11.1L4,-13.55C1.467,-14.383 -1.067,-14.383 -3.6,-13.55L-3.6,-11.1L-4.7,-11.1L-6.2,-12.2L-5.9,-12.3L-6.6,-13M20.7,-8.2L22.35,-7.9L19.6,1.25L18.8,-1.55L18.7,-1.7L18.8,-1.55L19.6,1.25L19.75,2.15L19.9,4.5C19.9,7.3 19.267,9.867 18,12.2C17.067,13.933 15.783,15.533 14.15,17C10.35,20.467 5.733,22.2 0.3,22.2C-5.1,22.2 -9.717,20.467 -13.55,17L-14.25,16.3L-12.6,14.85L-11.9,15.55C-10.467,16.85 -8.917,17.867 -7.25,18.6C-4.95,19.6 -2.433,20.1 0.3,20.1L2.8,19.95C6.5,19.517 9.733,18.05 12.5,15.55C13.933,14.25 15.067,12.85 15.9,11.35C16.8,9.683 17.333,7.867 17.5,5.9L17.55,4.55L17.4,2.5L17.3,1.7L16.6,-0.75L16.5,-0.9L15.75,-2.4L17.9,-3.35L18.7,-1.7L19.75,-5.25L20.05,-6.15L20.7,-8.2M-11,-11.8L-8.65,-11.25L-9,-11.1L-11.15,-9.9L-11.25,-9.85L-11.3,-9.8L-17.65,-11.2L-17.2,-11.85L-12.2,-11.1L-11,-11.8M-18.35,-1.1L-18.8,0.35L-19.15,2.3L-19.25,2.4L-20.9,-2.9L-18.95,-2.95L-18.35,-1.1" style="fill:#478f8f;fill-opacity:0.5;"/>
                    <path d="M10.6,-10.6L19.45,-12.55C20.817,-12.883 21.467,-12.25 21.4,-10.65L20.7,-8.2L19.8,-8.35L19.4,-6.9L16.4,-6.9L15.8,-6.35L14.15,-8C13.05,-9 11.867,-9.867 10.6,-10.6M-11.3,-9.8L-13.55,-8L-15.2,-6.4L-15.9,-6.65L-16.1,-6.7L-19.2,-6.7L-19.95,-6.2L-21.1,-9.75C-21.167,-11.25 -20.55,-11.867 -19.25,-11.6L-17.65,-11.2L-11.3,-9.8" style="fill:#c2ffff;fill-opacity:0.5;"/>
                    <path d="M-3.6,-11.1L-3.6,-13.55C-1.067,-14.383 1.467,-14.383 4,-13.55L4,-11.1L-3.6,-11.1" style="fill:#a8dede;fill-opacity:0.5;"/>
                    <path d="M7.1,-13.35L7.2,-13.6M7.45,-15.2C7.317,-15.767 7,-16.3 6.5,-16.8L4.15,-17.4C1.483,-17.9 -1.1,-17.933 -3.6,-17.5L-6.4,-16.85C-7.5,-15.65 -7.65,-14.483 -6.85,-13.35L-6.6,-13L-5.9,-12.3L-6.2,-12.2L-8.65,-11.25L-9,-11.1L-11.15,-9.9L-11.25,-9.85L-11.3,-9.8L-13.55,-8L-15.2,-6.4L-16.05,-5.3C-17.083,-3.867 -17.85,-2.467 -18.35,-1.1L-18.8,0.35L-19.15,2.3L-19.2,2.6L-19.3,4.5L-19.15,6.55C-18.717,10.283 -17.083,13.533 -14.25,16.3L-13.55,17C-9.717,20.467 -5.1,22.2 0.3,22.2C5.733,22.2 10.35,20.467 14.15,17C15.783,15.533 17.067,13.933 18,12.2C19.267,9.867 19.9,7.3 19.9,4.5L19.75,2.15L19.6,1.25L22.35,-7.9L23.6,-12.1C23.7,-14.3 22.783,-15.2 20.85,-14.8L7.8,-11.9L7.3,-12.05L7.05,-12.15L6.35,-12.35L7.1,-13.35M-3.6,-11.1L-3.6,-13.55C-1.067,-14.383 1.467,-14.383 4,-13.55L4,-10.5L6.35,-10.05L6.75,-9.9L6.9,-9.85L8.15,-9.35L9.4,-8.75C10.5,-8.117 11.533,-7.35 12.5,-6.45L13.6,-5.4L14.7,-4.05L15.75,-2.4L16.5,-0.9L16.6,-0.75L17.3,1.7L17.4,2.5L17.55,4.55L17.5,5.9C17.333,7.867 16.8,9.683 15.9,11.35C15.067,12.85 13.933,14.25 12.5,15.55C9.733,18.05 6.5,19.517 2.8,19.95L0.3,20.1C-2.433,20.1 -4.95,19.6 -7.25,18.6C-8.917,17.867 -10.467,16.85 -11.9,15.55L-12.6,14.85C-15.033,12.417 -16.433,9.583 -16.8,6.35L-16.95,4.55L-16.8,2.6L-16.5,0.9L-16.1,-0.35L-15.1,-2.55L-13.45,-4.85L-13.4,-4.95M7.8,-11.9L9.2,-11.3L10.6,-10.6L19.45,-12.55C20.817,-12.883 21.467,-12.25 21.4,-10.65L20.7,-8.2L20.05,-6.15L19.75,-5.25L18.7,-1.7L18.8,-1.55L19.6,1.25M17.9,-3.35L17.55,-3.95L17.05,-4.75L16.55,-5.45L15.8,-6.35L14.15,-8C13.05,-9 11.867,-9.867 10.6,-10.6M-13.35,-5L-11.9,-6.45L-9.9,-8.05L-7.55,-9.35L-5.9,-10L-3.6,-10.65L-3.6,-11.1M17.9,-3.35L18.7,-1.7M-20.9,-2.9L-23.6,-11.35C-23.7,-13.55 -22.8,-14.45 -20.9,-14.05L-11,-11.8L-8.65,-11.25M-19.8,-5.7L-19.15,-3.65L-18.95,-2.95L-18.35,-1.1M-17.65,-11.2L-19.25,-11.6C-20.55,-11.867 -21.167,-11.25 -21.1,-9.75L-19.95,-6.2L-19.8,-5.7M-20.9,-2.9L-19.25,2.4L-19.15,2.3M-11.3,-9.8L-17.65,-11.2M-19.2,2.6L-19.25,2.4" style="fill:none;fill-rule:nonzero;stroke:#6da6a6;stroke-opacity:0.5;stroke-width:0.2px;"/>
                    <path d="M12.05,-6.25L10.65,-6.8L-10.25,-6.8C-11.683,-6.3 -12.717,-5.7 -13.35,-5L-13.4,-4.95M15.8,-6.35L16.4,-6.9L19.45,-6.9L20.05,-6.15M12.05,-6.25L13.6,-5.4M-15.9,-6.65L-15.2,-6.4M-19.95,-6.2L-19.2,-6.7L-16.1,-6.7L-15.9,-6.65" style="fill:none;fill-rule:nonzero;stroke:#94915a;stroke-width:0.05px;"/>
                    <path d="M1.05,-21L1.15,-21.3C1.317,-21.567 1.567,-21.717 1.9,-21.75L2.55,-21.7L2.9,-21.55L3.55,-20.8L3.65,-20.3L3.55,-19.95L2.8,-19.45L2,-19.6L1.8,-19.7C1.467,-19.867 1.233,-20.117 1.1,-20.45C1.033,-20.65 1.017,-20.833 1.05,-21M-3.6,-17.5L-4.45,-20.7C-1.283,-22.667 1.75,-22.667 4.65,-20.7L4.15,-17.4M-3.1,-19.25L-3.35,-19.85L-3.1,-20.5L-2.45,-20.75C-2.183,-20.75 -1.967,-20.667 -1.8,-20.5C-1.633,-20.333 -1.55,-20.117 -1.55,-19.85L-1.8,-19.25L-2.15,-19L-2.45,-18.95L-2.75,-19L-3.1,-19.25" style="fill:none;fill-rule:nonzero;stroke:#704f19;stroke-width:0.05px;"/>
                    <path d="M15.15,-13.1L16.95,-13.15C17.517,-13.017 17.85,-12.75 17.95,-12.35C18.05,-11.95 17.9,-11.55 17.5,-11.15L15.9,-10.3L14.1,-10.25C13.6,-10.417 13.3,-10.7 13.2,-11.1C13.1,-11.5 13.217,-11.883 13.55,-12.25C13.95,-12.65 14.483,-12.933 15.15,-13.1" style="fill:#fff;"/>
                    <path d="M19.55,-13.9L20.35,-13.8L20.85,-13.2L20.75,-12.35C20.617,-12.117 20.4,-11.95 20.1,-11.85L19.3,-11.95C19.033,-12.117 18.867,-12.35 18.8,-12.65C18.733,-12.917 18.767,-13.167 18.9,-13.4L19.55,-13.9" style="fill:#fff;"/>
                    <path d="M-8.55,-3.2C-8.517,-1.8 -8.917,-0.367 -9.75,1.1C-10.583,2.567 -11.633,3.65 -12.9,4.35C-14.067,5.05 -15.083,5.133 -15.95,4.6C-16.817,4.1 -17.283,3.167 -17.35,1.8C-17.317,0.367 -16.883,-1.083 -16.05,-2.55C-15.217,-4.017 -14.2,-5.083 -13,-5.75C-11.767,-6.45 -10.717,-6.55 -9.85,-6.05C-8.983,-5.517 -8.55,-4.567 -8.55,-3.2" style="fill:#fff;"/>
                    <path d="M-21.85,-13.6L-21.05,-13.5C-20.783,-13.367 -20.617,-13.167 -20.55,-12.9C-20.483,-12.6 -20.517,-12.317 -20.65,-12.05C-20.783,-11.817 -21,-11.65 -21.3,-11.55L-22.1,-11.65L-22.6,-12.35L-22.5,-13.1L-21.85,-13.6" style="fill:#fff;"/>
                    <path d="M-17.05,-12.65L-15.4,-11.9C-15,-11.567 -14.833,-11.267 -14.9,-11C-15,-10.7 -15.3,-10.517 -15.8,-10.45L-17.6,-10.6C-18.267,-10.767 -18.8,-11.017 -19.2,-11.35C-19.6,-11.65 -19.75,-11.95 -19.65,-12.25L-18.8,-12.8L-17.05,-12.65" style="fill:#fff;"/>
                    <path d="M-8.55,-9.8C-8.15,-10.2 -7.667,-10.417 -7.1,-10.45C-6.567,-10.45 -6.1,-10.25 -5.7,-9.85C-5.3,-9.45 -5.1,-8.983 -5.1,-8.45C-5.133,-7.883 -5.35,-7.4 -5.75,-7C-6.117,-6.633 -6.583,-6.433 -7.15,-6.4C-7.683,-6.4 -8.15,-6.6 -8.55,-7C-8.95,-7.4 -9.15,-7.867 -9.15,-8.4C-9.117,-8.967 -8.917,-9.433 -8.55,-9.8" style="fill:#fff;"/>
                    <path d="M-5.9,-16.45L-5.35,-16.4L-5.05,-15.95C-4.983,-15.75 -5,-15.567 -5.1,-15.4L-5.55,-15.05L-6.1,-15.15L-6.45,-15.6L-6.35,-16.15L-5.9,-16.45" style="fill:#fff;"/>
                    <path d="M-2.2,-17.5L-0.45,-17.2C0.05,-17 0.3,-16.75 0.3,-16.45C0.3,-16.15 0.05,-15.883 -0.45,-15.65L-2.2,-15.35L-3.9,-15.65C-4.4,-15.883 -4.65,-16.15 -4.65,-16.45C-4.65,-16.75 -4.4,-17 -3.9,-17.2L-2.2,-17.5" style="fill:#fff;"/>
                    <path d="M14.1,-5.8L11.7,-5.8L11.7,-8.7L11.7,-5.8L14.1,-5.8C15.867,0.867 15.967,7.833 14.4,15.1L11.1,16.05L11.1,13.15L10.15,16.3C4.15,17.633 -1.783,17.75 -7.65,16.65C-8.717,16.417 -9.4,16.167 -9.7,15.9L-13.45,12.6L-13.5,12.2C-14.533,4.733 -14.133,-2.133 -12.3,-8.4L-9.8,-8.95C-4.633,-10.05 0.033,-10.333 4.2,-9.8L7.3,-3L8.4,-9.3L11.7,-8.7L14,-6.1L14.1,-5.8M-10.9,-2.35L-9.8,-8.95L-10.9,-2.35M10.6,8.15L11.1,13.15L10.6,8.15M-7.65,8.4L-7.65,16.65L-7.65,8.4M-9.7,15.9L-10.1,11.4L-13.5,12.2L-10.1,11.4L-9.7,15.9" style="fill:#edcb8e;"/>
                    <path d="M11.7,-8.7L11.7,-5.8L14.1,-5.8L14,-6.1L11.7,-8.7L8.4,-9.3L7.3,-3L4.2,-9.8C0.033,-10.333 -4.633,-10.05 -9.8,-8.95L-12.3,-8.4C-14.133,-2.133 -14.533,4.733 -13.5,12.2L-10.1,11.4L-9.7,15.9L-13.45,12.6L-13.5,12.2M14.1,-5.8C15.867,0.867 15.967,7.833 14.4,15.1L11.1,16.05L11.1,13.15L10.15,16.3C4.15,17.633 -1.783,17.75 -7.65,16.65C-8.717,16.417 -9.4,16.167 -9.7,15.9" style="fill:none;fill-rule:nonzero;stroke:#7a5e32;stroke-opacity:0.5;stroke-width:0.05px;stroke-linecap:round;"/>
                    <path d="M-9.8,-8.95L-10.9,-2.35M11.1,13.15L10.6,8.15M-7.65,16.65L-7.65,8.4" style="fill:none;fill-rule:nonzero;stroke:#7a5e32;stroke-opacity:0.5;stroke-width:0.05px;stroke-linecap:round;"/>
                    <path d="M9.4,-2C9.4,-2.7 9.75,-3.05 10.45,-3.05C11.15,-3.05 11.5,-2.7 11.5,-2C11.467,-1.267 11.133,-0.9 10.5,-0.9C10,-0.9 9.667,-1.067 9.5,-1.4L9.4,-2M2,-8.15C2.933,-8.117 3.4,-7.65 3.4,-6.75C3.4,-6.383 3.267,-6.05 3,-5.75C2.7,-5.417 2.317,-5.25 1.85,-5.25C0.95,-5.25 0.433,-5.633 0.3,-6.4L0.25,-6.4C-0.517,-6.4 -1.033,-6.7 -1.3,-7.3L-1.5,-8.2C-1.5,-9.367 -0.917,-9.967 0.25,-10C1.417,-10.033 2,-9.417 2,-8.15M15.35,-1.4C15.05,-1.067 14.683,-0.9 14.25,-0.9C13.583,-0.9 13.117,-1.15 12.85,-1.65L12.65,-2.5C12.65,-3.5 13.167,-4 14.2,-4C15.233,-4 15.75,-3.467 15.75,-2.4C15.75,-2.033 15.617,-1.7 15.35,-1.4M13.65,9.1L13,9.35C12.433,9.35 12.067,9.117 11.9,8.65L11.85,8.2C11.85,7.467 12.233,7.1 13,7.1C13.733,7.133 14.1,7.517 14.1,8.25L13.65,9.1M7.05,1.35C7.35,0.95 7.833,0.75 8.5,0.75C9.667,0.75 10.25,1.3 10.25,2.4L9.9,3.5C9.6,3.933 9.217,4.183 8.75,4.25L8.75,4.55C8.75,4.983 8.617,5.35 8.35,5.65C8.05,6.05 7.6,6.25 7,6.25C6.2,6.25 5.65,5.95 5.35,5.35L5.15,4.5C5.15,4.033 5.25,3.667 5.45,3.4L4.9,3.3L4.8,3.45C4.367,3.983 3.85,4.25 3.25,4.25C2.417,4.25 1.817,3.917 1.45,3.25L1.1,2.25C1.1,0.983 1.8,0.317 3.2,0.25C3.867,0.25 4.367,0.4 4.7,0.7L5.6,0.55C6.367,0.55 6.85,0.817 7.05,1.35M2.85,5.45L2.5,6.6C2.167,7.1 1.667,7.35 1,7.35C0.267,7.35 -0.25,7.05 -0.55,6.45L-0.8,5.5C-0.8,4.133 -0.183,3.533 1.05,3.7C2.25,3.867 2.85,4.45 2.85,5.45M6.95,10.95C7.917,10.95 8.4,11.367 8.4,12.2C8.333,12.733 8.167,13.117 7.9,13.35L8.15,14.15L7.85,15C7.65,15.267 7.367,15.4 7,15.4C6.067,15.4 5.65,15.017 5.75,14.25C5.75,13.883 5.867,13.6 6.1,13.4C5.767,13.167 5.567,12.767 5.5,12.2C5.5,11.367 5.983,10.95 6.95,10.95M5.2,14.85C4.867,15.217 4.417,15.4 3.85,15.4C2.617,15.4 2,14.85 2,13.75C2,12.617 2.617,12.05 3.85,12.05C5.05,12.05 5.65,12.6 5.65,13.7L5.2,14.85M-10.7,-4.85C-10.8,-4.617 -11.067,-4.433 -11.5,-4.3L-12.1,-4.8C-12.233,-4.9 -12.3,-5.05 -12.3,-5.25L-11.95,-6C-11.583,-6.233 -11.117,-5.983 -10.55,-5.25L-10.7,-4.85M-3.05,-7.25C-3.05,-7.017 -3.167,-6.733 -3.4,-6.4C-3.7,-6 -4.067,-5.8 -4.5,-5.8C-5.067,-5.8 -5.45,-6.033 -5.65,-6.5L-5.8,-7.2C-5.8,-8.167 -5.333,-8.6 -4.4,-8.5C-3.5,-8.367 -3.05,-7.95 -3.05,-7.25M-5.4,-5.1C-4.333,-5.1 -3.8,-4.5 -3.8,-3.3C-3.8,-2.8 -3.95,-2.383 -4.25,-2.05C-4.583,-1.717 -5,-1.55 -5.5,-1.55C-6.267,-1.55 -6.75,-1.85 -6.95,-2.45L-7.75,-2.3C-8.483,-2.3 -9,-2.617 -9.3,-3.25L-9.55,-4.2C-9.55,-5.5 -8.917,-6.15 -7.65,-6.15C-6.717,-6.15 -6.133,-5.783 -5.9,-5.05L-5.4,-5.1M-8.55,-0.75C-8.55,-1.483 -8.167,-1.85 -7.4,-1.85C-6.667,-1.85 -6.3,-1.45 -6.3,-0.65L-6.35,-0.3C-5.483,-0.267 -5.05,0.267 -5.05,1.3L-5.45,2.25L-6,2.7C-5.833,2.967 -5.75,3.333 -5.75,3.8C-5.75,4.267 -5.883,4.667 -6.15,5C-6.483,5.433 -6.933,5.65 -7.5,5.65C-8.267,5.65 -8.767,5.367 -9,4.8L-9.1,4.3L-9.5,4.35C-10.067,4.35 -10.45,4.133 -10.65,3.7L-10.8,3C-10.8,2.1 -10.333,1.633 -9.4,1.6C-8.8,1.6 -8.4,1.8 -8.2,2.2L-8.05,2.15L-8.3,1.25C-8.3,0.85 -8.183,0.533 -7.95,0.3L-8.5,-0.3L-8.55,-0.75M-1.25,-4C-1.75,-4 -2.117,-4.233 -2.35,-4.7L-2.5,-5.25C-2.5,-6.05 -2.083,-6.45 -1.25,-6.45C-0.417,-6.45 0,-6.05 0,-5.25L-0.25,-4.5C-0.483,-4.167 -0.817,-4 -1.25,-4M-5.85,12L-5.9,11.95L-6,12.1L-5.85,12M-9.25,11.2C-9.25,10.1 -8.667,9.55 -7.5,9.55C-6.633,9.55 -6.083,9.85 -5.85,10.45C-5.683,10.05 -5.3,9.9 -4.7,10C-3.833,10.167 -3.4,10.583 -3.4,11.25C-3.4,11.583 -3.517,11.867 -3.75,12.1L-3.8,12.15C-3.6,12.417 -3.5,12.783 -3.5,13.25L-3.5,13.3C-2.367,13.367 -1.8,13.95 -1.8,15.05C-1.8,15.45 -1.967,15.817 -2.3,16.15C-2.7,16.55 -3.183,16.75 -3.75,16.75C-4.517,16.75 -5.033,16.45 -5.3,15.85L-5.5,15L-5.45,14.7L-6.35,13.85L-6.5,13.2L-6.35,12.5C-6.65,12.767 -7.033,12.9 -7.5,12.9C-8.133,12.9 -8.617,12.65 -8.95,12.15L-9.25,11.2M-9.55,8.5C-9.817,8.767 -10.133,8.9 -10.5,8.9L-11.3,8.7L-11.75,9.6C-12.117,10.1 -12.617,10.35 -13.25,10.35C-13.983,10.35 -14.5,10.05 -14.8,9.45L-15.05,8.5C-15.05,7.033 -14.417,6.35 -13.15,6.45C-12.383,6.517 -11.85,6.8 -11.55,7.3C-11.417,6.867 -11.05,6.633 -10.45,6.6C-9.65,6.533 -9.25,6.883 -9.25,7.65C-9.25,7.983 -9.35,8.267 -9.55,8.5M-2.75,10.45C-2.75,9.483 -2.317,9.083 -1.45,9.25C-0.583,9.417 -0.15,9.833 -0.15,10.5C-0.15,10.833 -0.267,11.117 -0.5,11.35C-0.767,11.617 -1.1,11.75 -1.5,11.75C-2.067,11.75 -2.45,11.533 -2.65,11.1L-2.75,10.45" style="fill:#b89c6e;fill-opacity:0.5;"/>
                </g>
            </g>
            <g id="sprite1" transform="matrix(1.0733,0,0,0.9707,400.2,312.3)">
                <g id="shape1">
                    <path d="M1.95,-12.1L2.6,-12.1" style="fill:none;fill-rule:nonzero;stroke:#000;stroke-opacity:0.3;stroke-width:0.25px;"/>
                    <path d="M-5.3,-10.35L-4.9,-10.85L-4.55,-11.2C-3.75,-11.933 -2.75,-12.417 -1.55,-12.65L-0.85,-12.8L0.05,-12.85L0.1,-12.85L0.95,-12.8L1.65,-12.65C2.85,-12.417 3.85,-11.933 4.65,-11.2L5.2,-10.6L5.2,-10.65L5.85,-10.65L6.3,-9.45L6.25,-9.45L6.35,-9.2L6,-9.45L6.1,-9.45L5.75,-9.7L5.2,-10.05L5.2,-9.45C4.733,-9.917 4.1,-10.083 3.3,-9.95L2.45,-9.75C1.517,-9.017 0.95,-8.35 0.75,-7.75L0.3,-6.85L-0.15,-6.85C-0.083,-7.717 -0.6,-8.633 -1.7,-9.6C-2.1,-10.067 -2.7,-10.217 -3.5,-10.05C-3.8,-10.05 -4.183,-9.917 -4.65,-9.65L-5.2,-9.3L-5.8,-8.85L-5.3,-10.25L-5.3,-10.35" style="fill:#fcfbf8;"/>
                    <path d="M7.9,-2.1L10.05,-2.1C9.417,-0.6 8.417,0.417 7.05,0.95L5.2,1.3L4.95,1.5L4.95,1.4L3.75,2.15L3.3,2.35L0.6,3L0.55,3L0.05,3.05L-1.85,2.9L-3.55,2.4L-4.65,1.65C-6.983,1.483 -8.6,0.35 -9.5,-1.75L-7.35,-1.75L-6,-1.35C-5.7,-1.217 -5.25,-1.3 -4.65,-1.6L-4.4,-1.75L-4,-2C-4.1,-2.067 -3.217,-2.4 -1.35,-3L3.3,-2.85L4.95,-2.15L4.95,-2.1L5.2,-1.95C5.8,-1.65 6.25,-1.567 6.55,-1.7L7.9,-2.1" style="fill:#fff4e4;"/>
                    <path d="M-5.3,-10.35L-5.3,-10.25L-5.8,-8.85L-5.2,-9.3L-4.65,-9.65C-4.183,-9.917 -3.8,-10.05 -3.5,-10.05C-2.7,-10.217 -2.1,-10.067 -1.7,-9.6C-0.6,-8.633 -0.083,-7.717 -0.15,-6.85L0.3,-6.85L0.75,-7.75C0.95,-8.35 1.517,-9.017 2.45,-9.75L3.3,-9.95C4.1,-10.083 4.733,-9.917 5.2,-9.45L5.2,-10.05L5.75,-9.7L6.1,-9.45L6,-9.45L6.35,-9.2L6.25,-9.45L6.3,-9.45L5.85,-10.65L5.9,-10.65L6.6,-9.55L6.65,-9.45L7.5,-6.5L7.55,-6.25L8.35,-6.2L10.7,-6.1L10.7,-6.05L10.5,-5.4C10.033,-4.033 9.233,-2.967 8.1,-2.2L7.9,-2.1L6.55,-1.7C6.25,-1.567 5.8,-1.65 5.2,-1.95L4.95,-2.1L4.95,-2.15L3.3,-2.85L-1.35,-3C-3.217,-2.4 -4.1,-2.067 -4,-2L-4.4,-1.75L-4.65,-1.6C-5.25,-1.3 -5.7,-1.217 -6,-1.35L-7.35,-1.75C-8.75,-2.617 -9.683,-3.933 -10.15,-5.7L-7.2,-5.15L-6.05,-9.1L-6.05,-9.15L-5.35,-10.25L-5.3,-10.35M10.7,-6.05L8.35,-6.2L10.7,-6.05" style="fill:#b3aba0;"/>
                    <path d="M5.2,-10.6L4.65,-11.2C3.85,-11.933 2.85,-12.417 1.65,-12.65L0.95,-12.8L0.1,-12.85L0.05,-12.85L-0.85,-12.8L-1.55,-12.65C-2.75,-12.417 -3.75,-11.933 -4.55,-11.2L-4.9,-10.85L-5.3,-10.35L-5.35,-10.25L-6.05,-9.15L-6.05,-9.1L-7.2,-5.15L-10.15,-5.7C-9.683,-3.933 -8.75,-2.617 -7.35,-1.75L-9.5,-1.75C-8.6,0.35 -6.983,1.483 -4.65,1.65L-3.55,2.4L-1.85,2.9L0.05,3.05L0.55,3L0.6,3L3.3,2.35L3.75,2.15L4.95,1.4M5.9,-10.65L6.6,-9.55L6.65,-9.45L7.5,-6.5L7.55,-6.25L8.35,-6.2L10.7,-6.1L10.7,-6.05L10.5,-5.4C10.033,-4.033 9.233,-2.967 8.1,-2.2L7.9,-2.1L10.05,-2.1C9.417,-0.6 8.417,0.417 7.05,0.95L5.2,1.3L4.95,1.5M8.35,-6.2L10.7,-6.05" style="fill:none;fill-rule:nonzero;stroke:#000;stroke-opacity:0.3;stroke-width:0.25px;"/>
                    <path d="M-6.1,-5.15C-5.933,-5.883 -5.583,-6.45 -5.05,-6.85C-4.517,-7.283 -3.883,-7.4 -3.15,-7.2L-2.9,-7.1L-1.9,-6.35L-1.5,-5.8C-1.2,-5.167 -1.083,-4.517 -1.15,-3.85C-1.45,-5.917 -2.5,-6.95 -4.3,-6.95C-5.1,-6.717 -5.7,-6.117 -6.1,-5.15" style="fill:#1b1b1b;"/>
                    <path d="M-1.15,-3.85L-1.2,-3.65C-1.267,-2.883 -1.583,-2.283 -2.15,-1.85C-2.583,-1.55 -2.967,-1.383 -3.3,-1.35L-4.45,-1.5C-4.917,-1.667 -5.35,-2.117 -5.75,-2.85C-6.183,-3.583 -6.3,-4.317 -6.1,-5.05L-6.1,-5.15C-5.7,-6.117 -5.1,-6.717 -4.3,-6.95C-2.5,-6.95 -1.45,-5.917 -1.15,-3.85" style="fill:url(#_Radial1);"/>
                    <path d="M-6.1,-5.15C-5.933,-5.883 -5.583,-6.45 -5.05,-6.85C-4.517,-7.283 -3.883,-7.4 -3.15,-7.2L-2.9,-7.1L-1.9,-6.35L-1.5,-5.8C-1.2,-5.167 -1.083,-4.517 -1.15,-3.85L-1.2,-3.65C-1.267,-2.883 -1.583,-2.283 -2.15,-1.85C-2.583,-1.55 -2.967,-1.383 -3.3,-1.35L-4.45,-1.5C-4.917,-1.667 -5.35,-2.117 -5.75,-2.85C-6.183,-3.583 -6.3,-4.317 -6.1,-5.05L-6.1,-5.15C-5.7,-6.117 -5.1,-6.717 -4.3,-6.95C-2.5,-6.95 -1.45,-5.917 -1.15,-3.85" style="fill:none;fill-rule:nonzero;stroke:#000;stroke-opacity:0.37;stroke-width:0.05px;stroke-linecap:round;stroke-linejoin:round;stroke-miterlimit:4;"/>
                    <path d="M-4.3,-4.15L-4.95,-3.75C-5.183,-3.717 -5.383,-3.817 -5.55,-4.05L-5.7,-4.9L-5.35,-5.75L-4.7,-6.15C-4.467,-6.183 -4.283,-6.083 -4.15,-5.85C-3.983,-5.583 -3.917,-5.3 -3.95,-5C-4.017,-4.667 -4.133,-4.383 -4.3,-4.15" style="fill:#fff;"/>
                    <path d="M-1.5,-3.8C-1.533,-3.333 -1.7,-2.917 -2,-2.55C-2.267,-2.183 -2.617,-2.017 -3.05,-2.05C-3.417,-2.05 -3.75,-2.233 -4.05,-2.6C-4.283,-2.967 -4.383,-3.383 -4.35,-3.85C-4.317,-4.35 -4.167,-4.783 -3.9,-5.15C-3.6,-5.483 -3.25,-5.65 -2.85,-5.65L-1.9,-5.1C-1.6,-4.733 -1.467,-4.3 -1.5,-3.8"/>
                    <path d="M-1.5,-3.8C-1.533,-3.333 -1.7,-2.917 -2,-2.55C-2.267,-2.183 -2.617,-2.017 -3.05,-2.05C-3.417,-2.05 -3.75,-2.233 -4.05,-2.6C-4.283,-2.967 -4.383,-3.383 -4.35,-3.85C-4.317,-4.35 -4.167,-4.783 -3.9,-5.15C-3.6,-5.483 -3.25,-5.65 -2.85,-5.65L-1.9,-5.1C-1.6,-4.733 -1.467,-4.3 -1.5,-3.8Z" style="fill:none;fill-rule:nonzero;stroke:#000;stroke-opacity:0.3;stroke-width:0.05px;stroke-linecap:round;stroke-linejoin:round;stroke-miterlimit:4;"/>
                    <path d="M1.75,-4.35C1.683,-5.017 1.8,-5.667 2.1,-6.3L2.5,-6.85L3.5,-7.6L3.75,-7.7C4.483,-7.9 5.117,-7.783 5.65,-7.35C6.183,-6.95 6.533,-6.383 6.7,-5.65C6.3,-6.617 5.7,-7.217 4.9,-7.45C3.1,-7.45 2.05,-6.417 1.75,-4.35" style="fill:#1b1b1b;"/>
                    <path d="M1.75,-4.35C2.05,-6.417 3.1,-7.45 4.9,-7.45C5.7,-7.217 6.3,-6.617 6.7,-5.65L6.7,-5.55C6.9,-4.817 6.783,-4.083 6.35,-3.35C5.95,-2.617 5.517,-2.167 5.05,-2L3.9,-1.85C3.567,-1.883 3.183,-2.05 2.75,-2.35C2.183,-2.783 1.867,-3.383 1.8,-4.15L1.75,-4.35" style="fill:url(#_Radial2);"/>
                    <path d="M6.7,-5.65C6.533,-6.383 6.183,-6.95 5.65,-7.35C5.117,-7.783 4.483,-7.9 3.75,-7.7L3.5,-7.6L2.5,-6.85L2.1,-6.3C1.8,-5.667 1.683,-5.017 1.75,-4.35C2.05,-6.417 3.1,-7.45 4.9,-7.45C5.7,-7.217 6.3,-6.617 6.7,-5.65L6.7,-5.55C6.9,-4.817 6.783,-4.083 6.35,-3.35C5.95,-2.617 5.517,-2.167 5.05,-2L3.9,-1.85C3.567,-1.883 3.183,-2.05 2.75,-2.35C2.183,-2.783 1.867,-3.383 1.8,-4.15L1.75,-4.35" style="fill:none;fill-rule:nonzero;stroke:#000;stroke-opacity:0.37;stroke-width:0.05px;stroke-linecap:round;stroke-linejoin:round;stroke-miterlimit:4;"/>
                    <path d="M4.9,-4.65C5.1,-4.417 5.317,-4.283 5.55,-4.25C5.783,-4.217 5.983,-4.317 6.15,-4.55L6.3,-5.4L5.95,-6.25L5.3,-6.65C5.067,-6.683 4.883,-6.583 4.75,-6.35C4.583,-6.083 4.517,-5.8 4.55,-5.5C4.617,-5.167 4.733,-4.883 4.9,-4.65" style="fill:#fff;"/>
                    <path d="M2.1,-4.3C2.133,-3.833 2.3,-3.417 2.6,-3.05C2.867,-2.683 3.217,-2.517 3.65,-2.55C4.017,-2.55 4.35,-2.733 4.65,-3.1C4.883,-3.467 4.983,-3.883 4.95,-4.35C4.917,-4.85 4.767,-5.283 4.5,-5.65C4.2,-5.983 3.85,-6.15 3.45,-6.15C3.017,-6.117 2.7,-5.933 2.5,-5.6C2.2,-5.233 2.067,-4.8 2.1,-4.3"/>
                    <path d="M2.1,-4.3C2.133,-3.833 2.3,-3.417 2.6,-3.05C2.867,-2.683 3.217,-2.517 3.65,-2.55C4.017,-2.55 4.35,-2.733 4.65,-3.1C4.883,-3.467 4.983,-3.883 4.95,-4.35C4.917,-4.85 4.767,-5.283 4.5,-5.65C4.2,-5.983 3.85,-6.15 3.45,-6.15C3.017,-6.117 2.7,-5.933 2.5,-5.6C2.2,-5.233 2.067,-4.8 2.1,-4.3Z" style="fill:none;fill-rule:nonzero;stroke:#000;stroke-opacity:0.3;stroke-width:0.05px;stroke-linecap:round;stroke-linejoin:round;stroke-miterlimit:4;"/>
                    <path d="M0.35,-3.15L0.5,-3.3L0.8,-3.3C0.9,-3.233 0.983,-3.183 1.05,-3.15L1.1,-3L1,-2.85L0.7,-2.9C0.6,-2.9 0.517,-2.933 0.45,-3L0.35,-3.15" style="fill:#fff;"/>
                    <path d="M-2.55,-0.8L-2.15,-1.6L-1.95,-1.9C-1.717,-2.267 -1.383,-2.533 -0.95,-2.7L-0.8,-2.8L-0.45,-3.25L1.35,-3.45L1.6,-2.95L1.7,-2.8L2.15,-2.6L2.35,-2.45L2.55,-2.25L3.55,-0.8L3.95,1.1C3.95,1.733 3.617,2.3 2.95,2.8L2.9,2.8L2.6,3L1.05,3.65L-0.6,3.55L-2.1,2.7C-2.733,2.233 -3.05,1.7 -3.05,1.1C-3.017,0.433 -2.85,-0.2 -2.55,-0.8" style="fill:#fff4e4;"/>
                    <path d="M3.55,-0.8L3.95,1.1C3.95,1.733 3.617,2.3 2.95,2.8L2.9,2.8L2.6,3L1.05,3.65L-0.6,3.55L-2.1,2.7C-2.733,2.233 -3.05,1.7 -3.05,1.1C-3.017,0.433 -2.85,-0.2 -2.55,-0.8" style="fill:none;fill-rule:nonzero;stroke:#1a1900;stroke-opacity:0.3;stroke-width:0.05px;stroke-linecap:round;stroke-linejoin:round;stroke-miterlimit:4;"/>
                    <path d="M-0.95,-2.7L-0.8,-2.8L-0.45,-3.25L-0.2,-3.25L-0.3,-2.9L-0.9,-2.2L-1.75,-1.1C-1.983,-0.733 -2.15,-0.25 -2.25,0.35C-2.35,0.95 -2.3,1.433 -2.1,1.8L-1.35,2.65L0.2,3.2L1.85,3.3L2.5,3.1L1.05,3.65L-0.6,3.55L-1,3.4L-2.1,2.7C-2.733,2.233 -3.05,1.7 -3.05,1.1C-2.983,0.133 -2.683,-0.767 -2.15,-1.6L-1.95,-1.9C-1.717,-2.267 -1.383,-2.533 -0.95,-2.7" style="fill:#d4c5b8;"/>
                </g>
                <g id="sprite2" transform="matrix(0.1661,0,0,0.1675,-1.7,0.05)">
                    <g id="shape2">
                        <path d="M0.75,0.65L3.4,2.85C2.9,4.517 2.2,5.817 1.3,6.75C0.4,5.183 0.217,3.15 0.75,0.65" style="fill:#fff;"/>
                        <path d="M3.4,2.85L3.5,2.9C8.9,6.767 14.433,7.833 20.1,6.1L18.7,3.75M0.75,0.65L3.4,2.85C2.9,4.517 2.2,5.817 1.3,6.75C0.4,5.183 0.217,3.15 0.75,0.65L0,0" style="fill:none;fill-rule:nonzero;stroke:#1a1900;stroke-opacity:0.3;stroke-width:0.05px;stroke-linecap:round;stroke-linejoin:round;stroke-miterlimit:4;"/>
                    </g>
                </g>
                <g id="shape3">
                    <path d="M1,-1.75L0.7,-1.65L0.5,-1.55L0.7,-1.45C0.767,-1.383 0.867,-1.35 1,-1.35L1.25,-1.45L1.4,-1.55L1.25,-1.65L1,-1.75M0.25,-1.8L1.2,-1.9C1.467,-1.833 1.733,-1.6 2,-1.2L0.65,-0.5L-0.75,-0.95L-0.85,-1L-0.55,-1.45L0.25,-1.8"/>
                    <path d="M1,-1.75L1.25,-1.65L1.4,-1.55L1.25,-1.45L1,-1.35C0.867,-1.35 0.767,-1.383 0.7,-1.45L0.5,-1.55L0.7,-1.65L1,-1.75" style="fill:#fff;"/>
                    <path d="M4.6,-9.25L4.55,-9.25L4.6,-9.3L4.6,-9.25" style="fill:#4d4a44;"/>
                </g>
                <g id="sprite3" transform="matrix(1.3225,0,0,1.2478,-8.6,-20.7)">
                    <g id="shape4">
                        <path d="M12.05,8.7L12.55,9.3L12.7,9.75L12.75,10.4L12.65,10.8L12.55,10.95L12.55,11L12.45,11.2L12.1,11.65L11.7,11.8L10.45,12.05C9.317,12.65 7.8,12.8 5.9,12.5L2.25,12.4L1.45,12.6L0.6,12.35L0.35,12.25L0.35,12.15L0.2,11.9L0.15,11.75C-0.017,11.35 -0.05,10.967 0.05,10.6C0.117,10.233 0.3,9.883 0.6,9.55L0.65,9.5L0.75,9.5L0.75,8.95L0.8,8.95C1.2,6.65 1.983,5.067 3.15,4.2L4.35,3.5L4.45,3.15C3.95,2.65 3.767,2.25 3.9,1.95L3.9,1.9C4,1.633 4.267,1.45 4.7,1.35C4.567,1.05 4.667,1.017 5,1.25C4.833,0.45 5.15,0.167 5.95,0.4C5.917,0 6.017,-0.017 6.25,0.35C6.417,0.083 6.667,-0.033 7,0C7.333,0.067 7.55,0.467 7.65,1.2C8.25,1.067 8.4,1.2 8.1,1.6L8.25,1.65L8.45,1.75L8.6,2.2C8.667,2.567 8.517,2.85 8.15,3.05L8.15,3.35L9.3,3.95C10.733,4.65 11.633,6.133 12,8.4L12,8.45L12.05,8.7M10.2,9.25L10.25,9.25L10.25,9.2L10.2,9.25" style="fill:#417da2;"/>
                    </g>
                </g>
                <g id="sprite4" transform="matrix(1.3226,0,0,1.2479,-10.25,-17.5)">
                    <g id="shape5">
                        <path d="M15,2.9C15.033,3.7 14.917,4.3 14.65,4.7L13.85,5.5L13.85,5.55L13.35,5.75L13.2,5.8L12.6,5.9L12.5,5.85C11.867,5.55 11.333,5.067 10.9,4.4L10.45,3.7L9.95,2.5L10,2.3L10.05,2.25L10.5,1.35L11,0.7L11,0.65L11.05,0.6C11.983,-0.367 13.1,-0.167 14.4,1.2C14.667,1.467 14.833,1.85 14.9,2.35L15,2.9M4.35,1.6L4.85,2.55L5,2.85L5.05,3L4.9,3.45L4.1,4.95L2.5,6.4L2.4,6.4L1.95,6.35L1.65,6.25L1.15,6.05L0.35,5.25C0.083,4.817 -0.033,4.217 0,3.45L0.1,2.85C0.167,2.35 0.333,1.967 0.6,1.7C1.9,0.367 3.017,0.183 3.95,1.15L4,1.15L4,1.2L4.35,1.6" style="fill:#fff4e4;"/>
                    </g>
                </g>
                <g id="shape6">
                    <path d="M2.75,-18C2.883,-17.567 2.7,-17.217 2.2,-16.95L2.15,-16.95L2.15,-16.6L2.05,-16.1L1.85,-15.85C1.683,-15.683 1.383,-15.75 0.95,-16.05L0.95,-15.9L0.95,-16.05C1.383,-15.75 1.683,-15.683 1.85,-15.85L3.05,-14.7L3.65,-15.85L4.3,-16.65L3.9,-15.65C3.867,-15.183 3.983,-14.683 4.25,-14.15L5.05,-13.3L6.15,-11.85L6.65,-11.15C6.95,-11.183 7.183,-11.283 7.35,-11.45L7.45,-11.45L7.7,-11.8L7.9,-12.15L7.9,-12.2L7.95,-12.35L7.9,-12.85L7.9,-13.2L7.8,-13.4L7.8,-13.45C7.5,-14.75 6.867,-15.533 5.9,-15.8C6.667,-15.8 7.283,-15.483 7.75,-14.85L7.9,-14.4L8.2,-13.55L8.3,-12.15L8.7,-12.55C9.1,-12.983 9.367,-13.65 9.5,-14.55L9.6,-13.85C9.633,-12.883 9.483,-12.133 9.15,-11.6L8.1,-10.6L7.45,-10.3L7.3,-10.2L7.3,-9.9L7.95,-9.15L8,-8.95L8.15,-8.6L8.2,-7.8L8.1,-7.3L7.95,-7.1L7.95,-7.05L7.8,-6.8L7.45,-6.25L6.85,-6.05C6.383,-5.717 5.833,-5.617 5.2,-5.75C3.7,-4.983 1.683,-4.783 -0.85,-5.15L-5.6,-5.3L-6.65,-5.05L-7.85,-5.35L-8.1,-5.5L-8.2,-5.6L-8.4,-5.9L-8.45,-6.1C-8.683,-6.6 -8.733,-7.083 -8.6,-7.55L-7.8,-8.85L-7.7,-8.9L-7.9,-7.85C-7.967,-7.383 -7.9,-6.933 -7.7,-6.5L-6.45,-6.55L-6.2,-7.55L-6.15,-7.8L-6.05,-8L-5.95,-8.25L-5.6,-8.9L-5.75,-8.95L-7.05,-9.1L-7.6,-8.9L-7.65,-9.45L-7.65,-9.55L-8.05,-9.65L-8.7,-9.95L-9.75,-10.95L-10.1,-11.85L-10.25,-13.2L-10.15,-13.45L-10.15,-13.6L-10.1,-13.9C-9.967,-13.033 -9.7,-12.367 -9.3,-11.9L-8.9,-11.55C-9,-12.05 -8.983,-12.5 -8.85,-12.9L-8.5,-13.8L-8.4,-14.2C-7.9,-14.833 -7.283,-15.15 -6.55,-15.15C-7.517,-14.917 -8.15,-14.15 -8.45,-12.85L-8.45,-12.8L-8.5,-12.6L-8.5,-12.55L-8.6,-12.2L-8.5,-11.55L-8.3,-11.15L-8.05,-10.85L-8,-10.85L-8,-10.8L-7.6,-10.55L-7.6,-10.6L-7.25,-10.55L-6.6,-11.4L-5.65,-12.6L-4.85,-13.55C-4.517,-14.25 -4.433,-14.85 -4.6,-15.35L-5,-15.95L-4.95,-16.05L-4.5,-15.45L-3.75,-14.35L-2.45,-15.7L-2.15,-15.95L-2.25,-16.05L-2.55,-16.05L-2.9,-16.4L-2.75,-16.75L-2.75,-16.85C-3.383,-17.45 -3.633,-17.95 -3.5,-18.35C-3.3,-17.717 -2.9,-17.25 -2.3,-16.95L-2.3,-16.6L-2.05,-16.4L-1.65,-16.45L-1.55,-16.4L-1.15,-16.15C-0.717,-15.917 -0.35,-16.017 -0.05,-16.45L0.1,-16.4L0.35,-16.4L0.55,-16.7L0.6,-16.9L0.6,-17L0.95,-16.9L1.6,-16.95C1.767,-17.083 1.817,-17.317 1.75,-17.65C1.917,-17.65 2.25,-17.767 2.75,-18M0,-15.6L0.1,-15.65L0.15,-15.65L0.1,-15.65L0,-15.6L-0.5,-15.3C-1,-15.067 -1.45,-15.15 -1.85,-15.55L-2.35,-14.9L-2.55,-14.7L-3.75,-13.1C-4.05,-12.433 -4.4,-11.85 -4.8,-11.35L-5.2,-10.1L-5.35,-9.8C-4.783,-9.5 -4.233,-9.283 -3.7,-9.15L-4.95,-8.9L-5.35,-8.8L-5.45,-8.85L-5.4,-9.05L-5.35,-9.8L-5.4,-9.05L-5.45,-8.85L-5.35,-8.8L-5.45,-8.55L-5.6,-8.25L-5.65,-8.1L-5.8,-7.6L-5.85,-7.1C-6.217,-6.633 -6.2,-6.45 -5.8,-6.55L-5.8,-6.5L-4.15,-6.25L-1.35,-6.6C-1.483,-6.3 -1.467,-6.2 -1.3,-6.3L-0.5,-6.65L-0.5,-7.55L-0.6,-7.85L-0.65,-7.9L-0.7,-8.3L-0.75,-8.6L-0.85,-8.75L-1.85,-9.05L-0.6,-9.4C-0.467,-9.433 -0.35,-9.5 -0.25,-9.6L-0.3,-11.85L-0.25,-13.15L-0.1,-14.7L-0.05,-15.3L0,-15.6M-0.65,-8.8L-0.85,-8.75L-0.65,-8.8L-0.6,-8.65L-0.3,-8.05L-0.25,-7.75L-0.1,-6.6C0.9,-6.9 1.417,-6.833 1.45,-6.4C3.617,-7.3 4.55,-7.6 4.25,-7.3C3.817,-6.933 3.75,-6.75 4.05,-6.75L5.45,-7.25L5.45,-7.8L5.3,-8.4L5.3,-8.55L4.9,-9.2L4.85,-9.2L3.7,-9.45L5,-10.1L4.85,-10.4L4.25,-11.9L3.4,-13.3L2,-14.9L1.8,-15.05L1.1,-15.8L0.95,-15.9C0.983,-15.2 0.717,-15.117 0.15,-15.65L0.15,-14.95L0.1,-14.7L0.15,-11.9L0.2,-10.3L0.3,-10.1L0.3,-9.45L0.35,-9.15L0.3,-9.45L0.9,-9.3L0.35,-9.15L-0.65,-8.8M5.2,-9.55L5.1,-9.45L5,-10.1L5.1,-9.45L5.2,-9.55L5.3,-9.3L5.55,-8.8L5.7,-8.35L5.9,-7.3C5.867,-6.833 6.017,-6.817 6.35,-7.25L7.05,-7.85C6.817,-7.05 6.917,-6.933 7.35,-7.5L7.35,-7.9L7.25,-8.85L7.25,-8.9L7.1,-9.3L6.9,-9.6L6.75,-9.8L6.65,-9.9L6.25,-10.1C5.917,-10.1 5.567,-9.917 5.2,-9.55M7.3,-9.9L7.25,-9.95L6.9,-9.9L6.75,-9.8L6.9,-9.9L7.25,-9.95L7.3,-9.9M6.85,-6.05L7.1,-6.6L7.15,-6.6L7.35,-7.5L7.15,-6.6L7.1,-6.6L6.85,-6.05M5.2,-5.75L5.3,-6.15L5.3,-6.3L5.45,-7.15L5.45,-7.25L5.45,-7.15L5.3,-6.3L5.3,-6.15L5.2,-5.75M5.1,-9.45L5,-9.3L4.9,-9.2L5,-9.3L5.1,-9.45M-2.15,-15.95L-1.85,-15.55L-2.15,-15.95M-3.75,-14.35L-3.6,-13.95L-3.55,-13.8L-3.55,-13.7L-3.75,-13.1L-3.55,-13.7L-3.55,-13.8L-3.6,-13.95L-3.75,-14.35M-0.85,-5.15L-0.65,-5.75L-0.5,-6.65L-0.65,-5.75L-0.85,-5.15M-4.8,-11.35C-5.433,-10.55 -6.133,-9.95 -6.9,-9.55L-7.65,-9.55L-6.9,-9.55C-6.133,-9.95 -5.433,-10.55 -4.8,-11.35M-5.45,-8.85L-5.6,-8.9L-5.45,-8.85M-5.6,-5.3L-5.75,-5.65L-5.75,-6.05L-5.8,-6.5L-5.75,-6.05L-5.75,-5.65L-5.6,-5.3" style="fill-opacity:0.3;"/>
                    <path d="M4.25,-14.15C4.383,-14.583 4.567,-14.9 4.8,-15.1C5.067,-15.5 5.433,-15.733 5.9,-15.8C6.867,-15.533 7.5,-14.75 7.8,-13.45C6.9,-14.517 6.183,-14.817 5.65,-14.35L5.3,-13.95C5.8,-13.55 6.2,-13.017 6.5,-12.35L6.85,-11.65L7.35,-11.45C7.183,-11.283 6.95,-11.183 6.65,-11.15L6.15,-11.85L5.05,-13.3L4.25,-14.15M-8,-10.85L-7.8,-10.85L-7.4,-10.95L-7,-11.9L-5.95,-13.35L-6.35,-13.8C-6.85,-14.133 -7.55,-13.817 -8.45,-12.85C-8.15,-14.15 -7.517,-14.917 -6.55,-15.15C-6.15,-15.117 -5.817,-14.95 -5.55,-14.65C-5.283,-14.417 -5.05,-14.05 -4.85,-13.55L-5.65,-12.6L-6.6,-11.4L-7.25,-10.55L-7.6,-10.6L-8,-10.85" style="fill:#c57549;"/>
                    <path d="M7.35,-11.45L6.85,-11.65L6.5,-12.35C6.2,-13.017 5.8,-13.55 5.3,-13.95L5.65,-14.35C6.183,-14.817 6.9,-14.517 7.8,-13.45L7.8,-13.4L7.9,-13.2L7.9,-12.85L7.95,-12.35L7.9,-12.2L7.7,-11.85L7.45,-11.55L7.45,-11.45L7.35,-11.45M-8.5,-12.6L-8.45,-12.8L-8.45,-12.85C-7.55,-13.817 -6.85,-14.133 -6.35,-13.8L-5.95,-13.35L-7,-11.9L-7.4,-10.95L-7.8,-10.85L-8,-10.85L-8.3,-11.15L-8.5,-11.55L-8.6,-12.2L-8.5,-12.55L-8.5,-12.6" style="fill:#fdad81;"/>
                    <path d="M-3.5,-18.35L-3.5,-18.4C-3.367,-18.733 -2.983,-18.967 -2.35,-19.1C-2.583,-19.467 -2.45,-19.5 -1.95,-19.2C-2.183,-20.2 -1.783,-20.55 -0.75,-20.25L-0.75,-20.5C-0.75,-20.667 -0.667,-20.667 -0.5,-20.5L-0.4,-20.35L-0.2,-20.5L0.7,-20.75L1,-20.6L1.55,-19.25C2.283,-19.417 2.45,-19.25 2.05,-18.75L2.35,-18.7L2.55,-18.6L2.75,-18C2.883,-17.567 2.7,-17.217 2.2,-16.95L2.15,-16.95L2.15,-16.6L3.65,-15.85M7.3,-10.2L7.3,-9.9L7.25,-9.95L6.9,-9.9L6.75,-9.8L6.65,-9.9M8.15,-8.6L8.2,-7.8L8.1,-7.3L7.95,-7.1L7.95,-7.05L7.8,-6.8L7.45,-6.25L6.85,-6.05C6.383,-5.717 5.833,-5.617 5.2,-5.75C3.7,-4.983 1.683,-4.783 -0.85,-5.15L-5.6,-5.3L-6.65,-5.05L-7.85,-5.35L-8.1,-5.5L-8.2,-5.6L-8.4,-5.9L-8.45,-6.1C-8.683,-6.6 -8.733,-7.083 -8.6,-7.55L-7.8,-8.85L-7.7,-8.9L-7.6,-8.9L-7.65,-9.45L-7.65,-9.55L-6.9,-9.55C-6.133,-9.95 -5.433,-10.55 -4.8,-11.35L-5.2,-10.1L-5.35,-9.8L-5.4,-9.05L-5.45,-8.85L-5.35,-8.8L-5.45,-8.55L-5.6,-8.25L-5.65,-8.1L-5.8,-7.6L-5.85,-7.1C-6.217,-6.633 -6.2,-6.45 -5.8,-6.55L-5.8,-6.5L-5.75,-6.05L-5.75,-5.65L-5.6,-5.3M-4.5,-15.45L-4.4,-15.55L-2.9,-16.4L-2.75,-16.75L-2.75,-16.85C-3.383,-17.45 -3.633,-17.95 -3.5,-18.35M0.15,-15.65L0.1,-15.65L0,-15.6L-0.5,-15.3C-1,-15.067 -1.45,-15.15 -1.85,-15.55L-2.35,-14.9L-2.55,-14.7L-3.75,-13.1C-4.05,-12.433 -4.4,-11.85 -4.8,-11.35M-1.85,-9.05L-0.85,-8.75L-0.65,-8.8L0.35,-9.15L0.3,-9.45L0.3,-10.1L0.2,-10.3L0.15,-11.9L0.1,-14.7L0.15,-14.95L0.15,-15.65C0.717,-15.117 0.983,-15.2 0.95,-15.9L0.95,-16.05C1.383,-15.75 1.683,-15.683 1.85,-15.85L2.05,-16.1L2.15,-16.6M0.95,-15.9L1.1,-15.8L1.8,-15.05L2,-14.9L3.4,-13.3M4.25,-11.9L4.85,-10.4L5,-10.1L5.1,-9.45L5.2,-9.55C5.567,-9.917 5.917,-10.1 6.25,-10.1M4.25,-14.15C4.383,-14.583 4.567,-14.9 4.8,-15.1C5.067,-15.5 5.433,-15.733 5.9,-15.8M7.35,-11.45C7.183,-11.283 6.95,-11.183 6.65,-11.15L6.15,-11.85L5.05,-13.3L4.25,-14.15M7.35,-11.45L7.45,-11.45L7.45,-11.55L7.7,-11.85L7.9,-12.2L7.95,-12.35M7.35,-7.5L7.35,-7.9L7.25,-8.85L7.25,-8.9L7.1,-9.3L6.9,-9.6L6.75,-9.8M4.9,-9.2L5.3,-8.55L5.3,-8.4L5.45,-7.8L5.45,-7.15L5.3,-6.3L5.3,-6.15L5.2,-5.75M7.35,-7.5L7.15,-6.6L7.1,-6.6L6.85,-6.05M0.9,-9.3L3.7,-9.45L4.85,-9.2L4.9,-9.2L5,-9.3L5.1,-9.45M0.35,-9.15L0.9,-9.3M-8.5,-12.6L-8.5,-12.55M-8.6,-12.2L-8.5,-11.55L-8.3,-11.15L-8,-10.85L-7.6,-10.6L-7.6,-10.55M-6.55,-15.15C-6.15,-15.117 -5.817,-14.95 -5.55,-14.65C-5.283,-14.417 -5.05,-14.05 -4.85,-13.55L-5.65,-12.6L-6.6,-11.4L-7.25,-10.55L-7.6,-10.6M-2.15,-15.95L-2.25,-16.05L-2.55,-16.05L-2.9,-16.4M-1.85,-15.55L-2.15,-15.95M-3.75,-14.35L-4.5,-15.45M-3.7,-9.15L-1.85,-9.05M-3.75,-13.1L-3.55,-13.7L-3.55,-13.8L-3.6,-13.95L-3.75,-14.35M-5.35,-8.8L-4.95,-8.9L-3.7,-9.15M-0.85,-8.75L-0.75,-8.6L-0.7,-8.3L-0.65,-7.9L-0.6,-7.85L-0.5,-7.55L-0.5,-6.65L-0.65,-5.75L-0.85,-5.15M-5.6,-8.9L-5.75,-8.95L-7.05,-9.1L-7.6,-8.9M-5.6,-8.9L-5.45,-8.85" style="fill:none;fill-rule:nonzero;stroke:#000;stroke-opacity:0.3;stroke-width:0.05px;stroke-linecap:round;stroke-linejoin:round;stroke-miterlimit:4;"/>
                    <path d="M3.65,-15.85L4.3,-16.65L4.3,-16.7L4.4,-16.75L4.8,-17.1L7.35,-17.15L7.6,-17L8.8,-16.05C9.167,-15.717 9.4,-15.233 9.5,-14.6L9.6,-13.9L9.6,-13.85C9.633,-12.883 9.483,-12.133 9.15,-11.6L8.1,-10.6L7.45,-10.3L7.3,-10.2M-7.65,-9.55L-8.05,-9.65L-8.7,-9.95L-9.75,-10.95L-10.1,-11.85L-10.25,-13.2L-10.15,-13.45L-10.15,-13.6L-10.1,-13.95L-9.85,-14.8L-9.45,-15.4C-7.717,-17.067 -6.233,-17.3 -5,-16.1L-4.95,-16.1L-4.95,-16.05L-4.5,-15.45M3.05,-14.7L3.65,-15.85" style="fill:none;fill-rule:nonzero;stroke:#000;stroke-opacity:0.3;stroke-width:0.25px;"/>
                </g>
            </g>
        </g>
    </g>
    <defs>
        <radialGradient id="_Radial1" cx="0" cy="0" r="1" gradientUnits="userSpaceOnUse" gradientTransform="matrix(3.19488,1.06496,-0.8192,3.60448,-3.5,-3.9)"><stop offset="0" style="stop-color:#fff9ff;stop-opacity:1"/><stop offset="0.49" style="stop-color:#fff9ff;stop-opacity:1"/><stop offset="0.58" style="stop-color:#ecd6d6;stop-opacity:1"/><stop offset="1" style="stop-color:#ecd6d6;stop-opacity:1"/></radialGradient>
        <radialGradient id="_Radial2" cx="0" cy="0" r="1" gradientUnits="userSpaceOnUse" gradientTransform="matrix(-3.19488,1.06496,0.8192,3.60448,4.1,-4.4)"><stop offset="0" style="stop-color:#fff9ff;stop-opacity:1"/><stop offset="0.49" style="stop-color:#fff9ff;stop-opacity:1"/><stop offset="0.58" style="stop-color:#ecd6d6;stop-opacity:1"/><stop offset="1" style="stop-color:#ecd6d6;stop-opacity:1"/></radialGradient>
    </defs>
</svg>
