<?xml version="1.0" encoding="UTF-8"?>
<svg version="1.1" viewBox="0 0 78.55 98.753" xmlns="http://www.w3.org/2000/svg" xmlns:cc="http://creativecommons.org/ns#" xmlns:dc="http://purl.org/dc/elements/1.1/" xmlns:rdf="http://www.w3.org/1999/02/22-rdf-syntax-ns#" xmlns:xlink="http://www.w3.org/1999/xlink">
<metadata>
<rdf:RDF>
<cc:Work rdf:about="">
<dc:format>image/svg+xml</dc:format>
<dc:type rdf:resource="http://purl.org/dc/dcmitype/StillImage"/>
</cc:Work>
</rdf:RDF>
</metadata>
<g transform="translate(-193 -134.05)">
<use transform="translate(198,160.5)" width="68.849998" height="62.200001" xlink:href="#h"/>
<use transform="translate(211.05,206.35)" width="52.900002" height="26.450001" xlink:href="#c"/>
<use transform="translate(193,134.5)" width="78.550003" height="91.400002" xlink:href="#f"/>
<use transform="matrix(.1231 0 0 .1826 221.31 165.04)" width="354" height="177" xlink:href="#a"/>
<use transform="matrix(.0643 0 0 .0763 221.91 134.05)" width="354" height="177" xlink:href="#a"/>
<use transform="matrix(.0214 0 0 .0536 245.66 176)" width="354" height="177" xlink:href="#a"/>
<use transform="matrix(1.2766 0 0 1.2982 204.8 166.5)" width="45.099998" height="36.349998" xlink:href="#b"/>
</g>
<defs>
<g id="h" transform="translate(-198,-160.5)">
<path d="m263.7 173.55q3 6.7 3.15 14.7-0.15 14.2-10.2 24.25-10 10-24.2 10.2-14.4-0.2-24.4-10.2-10.05-10.05-10.05-24.25 0-8 3.2-14.7-0.5 1.15-0.35 2.5 0 6.55 9.2 11.05 9.35 4.5 22.4 4.5t22.2-4.5q9.4-4.5 9.4-11.05 0-1.35-0.35-2.5m-41.45 34.1-0.15-0.15v0.3q-0.7 1-0.7 2.5 0 2.2 1.5 3.7t3.7 1.5q2.15 0 3.65-1.5t1.5-3.7v-0.15q0-2-1.5-3.5t-3.65-1.5q-2.2 0-3.7 1.5-0.5 0.5-0.65 1m18.2 4.35q-0.15-1.2-0.8-2-0.7-0.7-1.7-0.7-0.15-0.15-0.35 0-1.15-0.15-2 0.7-0.8 0.8-0.8 2l0.15 0.65q0 0.7 0.65 1.35 0.85 0.65 2 0.85 1.2-0.2 2.05-0.85 0.65-0.85 0.8-2m-6.35 3.5q-0.65 0-1.15 0.5t-0.5 1.15q0 0.5 0.5 1 0.5 0.55 1.15 0.55 0.7 0 1-0.55l0.7-1-0.7-1.15q-0.3-0.5-1-0.5" fill="#476f75" fill-rule="evenodd"/>
<path d="m245.3 173.2q0.2 1.5 1.35 2l1 0.35 2.65 0.35q2.2 0 3.85-0.7 1.7-0.65 1.7-3 0-2.15-1.5-3.85-1.7-1.5-3.85-1.5-2.2 0-3.85 1.5-1.5 1.7-1.5 3.85l0.15 1m-44.1 0.35q0.8-1.85 1.85-3.35 2.3-2.85 7-5.15 9.35-4.55 22.4-4.55t22.2 4.55q4.7 2.3 7.05 5l2 3.5q0.35 1.15 0.35 2.5 0 6.55-9.4 11.05-9.15 4.5-22.2 4.5t-22.4-4.5q-9.2-4.5-9.2-11.05-0.15-1.35 0.35-2.5m14.2-5q-3.2-0.2-5.35 2-2.2 2.35-2.2 5.5 0 3 2.05 4.2 2 0.8 5.15 0.8 3.2 0 5.5-0.8l0.85-0.5q1.5-1.35 1.5-3.7 0-2.15-0.8-3.65l-1.35-1.85q-2.2-2.2-5.35-2m6.85 39.1q0.15-0.5 0.65-1 1.5-1.5 3.7-1.5 2.15 0 3.65 1.5t1.5 3.5v0.15q0 2.2-1.5 3.7t-3.65 1.5q-2.2 0-3.7-1.5t-1.5-3.7q0-1.5 0.7-2.5 0-0.15 0.15-0.15m11.85 7.85q0.7 0 1 0.5l0.7 1.15-0.7 1q-0.3 0.55-1 0.55-0.65 0-1.15-0.55-0.5-0.5-0.5-1 0-0.65 0.5-1.15t1.15-0.5m6.35-3.5q-0.15 1.15-0.8 2-0.85 0.65-2.05 0.85-1.15-0.2-2-0.85-0.65-0.65-0.65-1.35l-0.15-0.65q0-1.2 0.8-2 0.85-0.85 2-0.7 0.2-0.15 0.35 0 1 0 1.7 0.7 0.65 0.8 0.8 2" fill="#63a6ba" fill-rule="evenodd"/>
<path d="m245.3 173.2-0.15-1q0-2.15 1.5-3.85 1.65-1.5 3.85-1.5 2.15 0 3.85 1.5 1.5 1.7 1.5 3.85 0 2.35-1.7 3-1.65 0.7-3.85 0.7l-2.65-0.35-1-0.35q-1.15-0.5-1.35-2m-29.9-4.65q3.15-0.2 5.35 2l1.35 1.85q0.8 1.5 0.8 3.65 0 2.35-1.5 3.7l-0.85 0.5q-2.3 0.8-5.5 0.8-3.15 0-5.15-0.8-2.05-1.2-2.05-4.2 0-3.15 2.2-5.5 2.15-2.2 5.35-2" fill="#79b3c4" fill-rule="evenodd"/>
</g>
<g id="c">
<use width="52.900002" height="26.450001" xlink:href="#g"/>
</g>
<g id="g">
<path d="m52.9 13.25q0 5.45-7.75 9.3-7.75 3.9-18.7 3.9t-18.7-3.9q-7.8-3.85-7.75-9.3-0.05-5.5 7.75-9.35 7.75-3.9 18.7-3.9t18.7 3.9q7.75 3.85 7.75 9.35" fill-opacity=".30196" fill-rule="evenodd"/>
</g>
<g id="f" transform="translate(-193,-134.5)">
<path d="m255.55 161.35-1.6-1.3-9.75-5.5q-5.35-1.95-11.4-1.95-14.2 0-24.25 10.2-10.2 10-10 24.2-0.2 14.05 10 24.25l1.7 1.6 1.45 1.25 9.8 5.4q5.35 1.95 11.55 1.95 14.05 0 24.25-10 10-10.2 10-24.25 0-14.2-10-24.2l-1.75-1.65m-55.25 2.95q1.85-2.85 4.35-5.35 11.5-11.35 27.75-11.35 16 0 27.55 11.35 2.85 2.85 3.2 3.85 3.5 4.7 4.65 7.35 2.2 4.7 3 9.85 0.5 3.05 0.5 6.2v0.5q0 16.05-11.35 27.6-11.55 11.35-27.55 11.35-16.25 0-27.75-11.35-11.05-11.2-11.4-26.75v-0.85l0.2-4.65q0.5-5.35 2.5-9.9 1.65-4.15 4.35-7.85" fill="#997539" fill-opacity=".50196" fill-rule="evenodd"/>
<path d="m221.5 219.5-9.8-5.4-1.45-1.25-1.7-1.6q-10.2-10.2-10-24.25-0.2-14.2 10-24.2 10.05-10.2 24.25-10.2 6.05 0 11.4 1.95l9.75 5.5 1.6 1.3 1.5 1.45q10 10 10 24.2 0 14.05-10 24.25-10.2 10-24.25 10-6 0-11.3-1.75" fill="#997539" fill-opacity=".30196" fill-rule="evenodd"/>
<path d="m200.3 164.3q-2.7 3.7-4.35 7.85-2 4.55-2.5 9.9l-0.2 4.65v0.85q0.35 15.55 11.4 26.75 11.5 11.35 27.75 11.35 16 0 27.55-11.35 11.35-11.55 11.35-27.6v-0.5q0-3.15-0.5-6.2-0.8-5.15-3-9.85-1.15-2.65-4.65-7.35-0.35-1-3.2-3.85-11.55-11.35-27.55-11.35-16.25 0-27.75 11.35-2.5 2.5-4.35 5.35z" fill="none" stroke="#000" stroke-linecap="round" stroke-linejoin="round" stroke-opacity=".30196" stroke-width=".5"/>
<path d="m236.65 135.4q1.35 0.65 2.2 1.65 0.85 0.95 2.75 1.05l2.2 0.3q-1.3 0.6-3 0.6-2 0-3.3-0.7-1.4-0.65-1.4-1.7 0-0.65 0.55-1.2m8.85 6.85-2.55 16.85-0.05 0.5-0.2 0.85v0.55q-0.25 1.2-1.7 2.2l-0.45 0.3 2.5-17.85h-0.15l0.15-0.1 0.45-0.35q1.7-1.3 2-2.95m-19.7 21.9-0.75-0.3-1.15-0.75q-1.5-1.05-1.85-2.3v-0.05l-0.05-0.25-2.55-15.55-0.2-0.85-0.2-1.55 0.25 0.75q0.6 1.2 2.1 2.25l0.65 0.35 0.25 0.15q0.15 1.05 1.6 2.8 1.4 1.8 3.2 1.15l0.05-0.1 1.45 12.6h-0.05q-1.05 0.1-1.85 0.6-0.65 0.45-0.9 1.05" fill="#8a5702" fill-rule="evenodd"/>
<path d="m243.8 138.4q1.4 1.25 1.85 2.9l-0.15 0.95q-0.3 1.65-2 2.95l-0.45 0.35-0.15 0.1-0.85 0.45-0.4 0.3-0.8 0.35-2.75-4.5q-2.15-3.4-5.7-3.6l-5.3-0.75q-2.15-0.6-3.15-1.45 3.5-1.45 8.3-1.45l4.4 0.4q-0.55 0.55-0.55 1.2 0 1.05 1.4 1.7 1.3 0.7 3.3 0.7 1.7 0 3-0.6m-24.75 4.15-0.05-0.2-0.2-1.2q0.3-1.2 1.25-2.2l2.9 1.85 3.35 2.1q-1.45 0.1-2.6 0.8-1.45 0.85-1.45 2.1l0.05 0.25-0.25-0.15-0.65-0.35q-1.5-1.05-2.1-2.25l-0.25-0.75m12.4 4.7 0.9 1.1h-0.1l-2.3-0.15h-0.05l0.5-0.2 0.1-0.05 0.05-0.05h0.05l0.85-0.65" fill="#de961e" fill-rule="evenodd"/>
<path d="m232.35 148.35h0.4l0.5-0.05v1.45l-0.35-0.55-0.55-0.85 0.55 0.85 0.35 0.55v15.3q-1.25-1.5-3.15-2.15l-1.5-0.4-1.45-12.6 2.8-1.7 2.3 0.15h0.1m6.65 4.9q0.1-1.1 0.65-1.2l1.15-0.5q0.75-0.4 0.85 0.45l0.05 1.55-0.15 1.85q-0.3 0.9-0.85 0.6l-1.35-1q-0.65-0.65-0.35-1.75" fill="#774b02" fill-rule="evenodd"/>
<path d="m240.55 163.5-0.5 0.35q-2.1 0.95-4.8 1.3l-0.5 0.05-0.25 0.05h-0.6l-0.3 0.1h-1.1l-3.65-0.35-3.05-0.85q0.25-0.6 0.9-1.05 0.8-0.5 1.85-0.6h0.05l1.5 0.4q1.9 0.65 3.15 2.15v-16.75l5.95-0.95 1.65-0.6 0.8-0.35 0.4-0.3 0.85-0.45h0.15l-2.5 17.85m-14.25-20.6 0.85-0.05q2.05-0.05 3.45 0.85 1.45 0.85 1.45 2.1 0 0.75-0.6 1.45l-0.85 0.65h-0.05l-0.05 0.05-0.1 0.05-0.5 0.2h0.05l-2.8 1.7-0.05 0.1q-1.8 0.65-3.2-1.15-1.45-1.75-1.6-2.8l-0.05-0.25q0-1.25 1.45-2.1 1.15-0.7 2.6-0.8m7.5 7.65-0.55-0.8 0.55 0.8m5.2 2.7q-0.3 1.1 0.35 1.75l1.35 1q0.55 0.3 0.85-0.6l0.15-1.85-0.05-1.55q-0.1-0.85-0.85-0.45l-1.15 0.5q-0.55 0.1-0.65 1.2" fill="#6a4302" fill-rule="evenodd"/>
<path d="m223.95 136.45q1 0.85 3.15 1.45l5.3 0.75q3.55 0.2 5.7 3.6l2.75 4.5-1.65 0.6-5.95 0.95-0.5 0.05h-0.4l-0.9-1.1q0.6-0.7 0.6-1.45 0-1.25-1.45-2.1-1.4-0.9-3.45-0.85l-0.85 0.05-3.35-2.1-2.9-1.85 1.35-1.15q0.6-0.45 1.45-0.85l1.1-0.5" fill="#bb7e1a" fill-rule="evenodd"/>
<path d="m236.65 135.4q1.35 0.65 2.2 1.65 0.85 0.95 2.75 1.05l2.2 0.3q1.4 1.25 1.85 2.9m-2.7 17.8-0.05 0.5m-0.2 1.4q-0.25 1.2-1.7 2.2l-0.45 0.3-0.5 0.35q-2.1 0.95-4.8 1.3l-0.5 0.05-0.25 0.05-0.9 0.1h-1.1l-3.65-0.35-3.05-0.85-0.75-0.3-1.15-0.75q-1.5-1.05-1.85-2.3m-3.25-19.65q0.3-1.2 1.25-2.2m16.6-3.55-4.4-0.4q-4.8 0-8.3 1.45l-1.1 0.5q-0.85 0.4-1.45 0.85l-1.35 1.15" fill="none" stroke="#000" stroke-linecap="round" stroke-linejoin="round" stroke-opacity=".30196"/>
<path d="m245.65 141.3-0.15 0.95-2.55 16.85m-0.05 0.5-0.2 0.85v0.55m-20.65-0.2v-0.05m-0.05-0.25-2.55-15.55m-0.2-0.85-0.2-1.55m-0.05-0.2-0.2-1.2" fill="none" stroke="#000" stroke-linecap="round" stroke-linejoin="round" stroke-opacity=".30196"/>
<path d="m219.05 142.55-0.05-0.2m1.05-3.4-0.55-0.3m4.45-2.2q1 0.85 3.15 1.45l5.3 0.75q3.55 0.2 5.7 3.6l2.75 4.5 0.8-0.35 0.4-0.3m1.45-0.9q1.7-1.3 2-2.95m-25.45-3.3 2.9 1.85 3.35 2.1m5.15 4.35 0.9 1.1h0.4m6.45-1 1.65-0.6m2.95-8.35q-1.3 0.6-3 0.6-2 0-3.3-0.7-1.4-0.65-1.4-1.7 0-0.65 0.55-1.2m-6.7 12.8h-0.05m-10.6-4.9-0.25-0.75m3.25 3.5-0.25-0.15m10.3 2.45h-0.1l-2.3-0.15m2.4 0.15 0.55 0.85 0.35 0.55 0.55 0.8" fill="none" stroke="#000" stroke-linecap="round" stroke-linejoin="round" stroke-opacity=".30196" stroke-width=".5"/>
<path d="m201.6 184.05q-0.7-5.5 2.5-10.85 3.15-5.5 8.15-7.85 5.05-2.35 8.9 0 4 2.15 4.5 7.85 0.5 5.65-1.85 11.85t-7.85 7.85q-5.35 1.5-9.55-0.85-4.3-2.5-4.8-8" fill="#fff" fill-opacity=".25098" fill-rule="evenodd"/>
<path d="m245.65 160.7q4.5-2.85 10-0.2 5.55 2.85 8.9 9.55 3.15 6.65 2.3 13.35-0.8 6.7-5.65 9.7t-10.9 1.15q-6.15-2-8.5-9.5-2.5-7.7-1.65-14.55 0.8-6.85 5.5-9.5" fill-opacity=".15294" fill-rule="evenodd"/>
<path d="m246.05 157.5-1.45 0.8-2.95 1.15-0.05 0.05-5.3 1.05-3.65 0.2q-3.85 0-7.15-0.8l-0.45-0.05-3.05-1.05-0.15-0.05-1.15-0.5-2.5-1.55q-2.5-2-2.5-4.5 0-3.2 4.15-5.5l0.95 4.55v0.3l0.15 1q0.5 1.75 3.25 3.15 3.4 1.7 8.25 1.7l4.05-0.35q2.3-0.45 4.2-1.35 3-1.6 3.3-3.7l0.1-0.25 0.7-5.4q4.75 2.4 4.75 5.85 0 1.4-0.75 2.7l-0.15 0.1q-0.85 1.25-2.5 2.4l-0.1 0.05" fill="#813a26" fill-opacity=".30196" fill-rule="evenodd"/>
<path d="m248.65 155.05 0.05 1q0 1.05-0.75 1.85l-1.8 1.35-0.1-1.75 0.1-0.05q1.65-1.15 2.5-2.4m-7.05 4.45q0.7 1.85-1.05 2.1l-3.9 0.6-0.5 0.05-3.1 0.25-4.35-0.05-2.35-0.5q-0.3-0.1-0.5-1l-0.35-1q3.3 0.8 7.15 0.8l3.65-0.2 5.3-1.05m-19.6-0.65q0.05 1.2-0.35 1.7l-2.4-1.3q-1.05-0.7-1.05-1.7v-0.8l2.5 1.55 1.15 0.5 0.15 0.05" fill="#813925" fill-opacity=".50196" fill-rule="evenodd"/>
<path d="m219.9 146.8 1 4.7 0.2 1 0.5 1 1 1 0.65 0.5 1 0.5 2.15 0.85 6.2 1q3.35 0 6-0.85l2.2-1 1.15-0.5 0.7-0.65 1.3-1.5 0.2-0.7q0-0.35 0.15-0.65l-0.15-0.7 0.65-4.3q4.35 2.15 4.7 5.3v0.35q0 3.5-4.85 6l-1.2 0.5-0.8 0.35q-3.2 1.2-7.05 1.5l-2.85 0.2h-1q-4.3-0.2-7.85-1.2l-1.8-0.65-0.7-0.35-0.65-0.35-1.85-1q-2.85-2-3-4.5-0.15-0.35 0-0.5 0-3.15 4-5.35" fill="#c7bb92" fill-opacity=".50196" fill-rule="evenodd"/>
<path d="m249.5 151.8q0.5 1.05 0.5 2.05 0 3.5-5.05 6l-2.3 1q-4.35 1.5-9.9 1.5-6 0-10.5-1.85h-0.35l-1.15-0.65q-5-2.5-5-6-0.2-0.7 0.15-1.2 0.15 2.5 3 4.5l1.85 1 0.65 0.35 0.7 0.35 1.8 0.65q3.55 1 7.85 1.2h1l2.85-0.2q3.85-0.3 7.05-1.5l0.8-0.35 1.2-0.5q4.85-2.5 4.85-6v-0.35" fill="#c7bb92" fill-opacity=".8" fill-rule="evenodd"/>
<path d="m242.65 160.85q-0.2 1.35-1.7 2.35l-0.3 0.3-0.7 0.35q-2.5 1.2-6.35 1.5h-0.3q-0.35-0.15-0.55 0h-0.15l-3.65-0.3-3.2-0.85-0.65-0.35-1.2-0.65q-1.5-1.2-1.65-2.7 4.5 1.85 10.5 1.85 5.55 0 9.9-1.5" fill="#c4b58f" fill-opacity=".30196" fill-rule="evenodd"/>
<path d="m249.5 151.8q0.5 1.05 0.5 2.05 0 3.5-5.05 6l-2.3 1q-4.35 1.5-9.9 1.5-6 0-10.5-1.85h-0.35l-1.15-0.65q-5-2.5-5-6-0.2-0.7 0.15-1.2" fill="none" stroke="#000" stroke-linecap="round" stroke-linejoin="round" stroke-opacity=".30196" stroke-width=".5"/>
<path d="m244.8 146.5q4.35 2.15 4.7 5.3m-33.6 0.85q-0.15-0.35 0-0.5 0-3.15 4-5.35" fill="none" stroke="#000" stroke-linecap="round" stroke-linejoin="round" stroke-opacity=".30196"/>
<path d="m252.35 212.55q0 1.45-5.9 2.5l-14.25 1.05-14.25-1.05q-5.95-1.05-5.9-2.5-0.05-1.45 5.9-2.5l14.25-1.05 14.25 1.05q5.9 1.05 5.9 2.5" fill-opacity=".30196" fill-rule="evenodd"/>
<path d="m223.8 196.85q-1.05-8.6 3.9-16.95 4.95-8.6 12.75-12.25 7.85-3.65 13.85 0 6.25 3.4 7 12.25 0.8 8.85-2.85 18.5t-12.25 12.25q-8.35 2.35-14.85-1.3-6.8-3.9-7.55-12.5" fill="#fff" fill-opacity=".25098" fill-rule="evenodd"/>
</g>
<g id="a" transform="translate(177,88.5)">
<use transform="translate(-177,-88.5)" width="354" height="177" xlink:href="#e"/>
</g>
<g id="e" transform="translate(177,88.5)">
<path d="m125.15-62.6q51.85 25.95 51.85 62.6t-51.85 62.55q-51.85 25.95-125.15 25.95t-125.15-25.95q-51.85-25.9-51.85-62.55t51.85-62.6q51.85-25.9 125.15-25.9t125.15 25.9" fill="url(#i)" fill-rule="evenodd"/>
</g>
<radialGradient id="i" cx="0" cy="0" r="819.2" gradientTransform="scale(.2191 .1096)" gradientUnits="userSpaceOnUse">
<stop stop-color="#ffff50" stop-opacity=".96471" offset=".40784"/>
<stop stop-color="#fff1ba" stop-opacity="0" offset="1"/>
</radialGradient>
<g id="b" transform="translate(0 .5)">
<use transform="translate(0 -.5)" width="45.099998" height="36.349998" xlink:href="#d"/>
</g>
<g id="d" transform="translate(0 .5)">
<path d="m20.3 35.35h-0.05v-0.05l0.05 0.05" fill="#cecbb3" fill-rule="evenodd"/>
<path d="m20.25 35.3h0.05v0.05l-0.05-0.05" fill="#c5c1a5" fill-rule="evenodd"/>
<path d="m29.35 34.75-3.7 0.45-5.35 0.15v-0.05h-0.05v0.05h-0.05l-5.35-0.2-5.45-1.15-5.75-1.5q-5.55-12.5-2.65-23.05 1.3-4.9 3.2-9.4l5.15 0.25-1.25 3.2v1.6q0.05-0.7 0.95-2.25 0.85-1.45 2.15-2.45l12.8 0.6-0.15 0.7-0.1 0.45h-0.15q0-0.3 0.25-0.45-0.25 0.15-0.25 0.45l-0.45 5.4-0.25 0.25-0.8 1q-0.9 1.2-1.95 3.3l-1.5 3.05q-2.25 4.85-2.75 6.7v0.35l-0.15 0.45 0.05-0.4 0.1-0.4q0-4.1 0.35-6.7v-0.15l0.15-0.95q0.4-2.3 1.3-3.95-1.15 1.65-2.05 3.6-2.25 4.8-3.2 11.1h-0.3l-0.05-0.35-0.05-2.7q0-3.65 1.05-7.4l0.5-1.55q0.7-1.95 1.55-3.2-2.5 1.9-4.4 6.35-2 4.75-1.85 9.4l-0.65 0.15-0.2 0.15-0.2 0.7q0 0.55 2.2 1.5 3 1.25 7.45 1.25l7.9-0.7q3.7-0.6 4.95-1.3l-0.3 4.9 0.4 1.65q0 0.45-0.5 0.75l-0.6 0.35m-6.25-26.7-0.15 1.15-0.1 3.75v2.85q-2.9 6-2.9 10.15l-0.15-0.1-0.3-0.7-0.2-0.35q-0.55-1.05-0.55-2.8 0-1 0.85-4.9 0.7-3.1 1.15-4.65 0.5-1.75 1.65-3.4l0.25-0.4 0.45-0.6m7.25 18.5-0.7-0.25q-1.25-0.65-2.05-2.8l-0.5-1.8 2.55 0.55q0.8 0.35 0.8 2.5l-0.1 1.8m-5.7 7.05-4.35 1.7 4.35-1.7" fill="#e6ddc1" fill-rule="evenodd"/>
<path d="m39.65 0q0.95 1.25 3.95 9.15 2.95 7.95-2.6 23.6l-3.2 0.55-0.15-3.5q-1.2 0.55-2.9 4.05l-0.15 0.05-4.65 0.75-0.6 0.1 0.6-0.35q0.5-0.3 0.5-0.75l-0.4-1.65 0.3-4.9q-1.25 0.7-4.95 1.3l-7.9 0.7q-4.45 0-7.45-1.25-2.2-0.95-2.2-1.5l0.2-0.7 0.2-0.15 0.65 0.15v-0.3q-0.15-4.65 1.85-9.4 1.9-4.45 4.4-6.35-0.85 1.25-1.55 3.2l-0.5 1.55q-1.05 3.75-1.05 7.4l0.05 2.7 0.05 0.35h0.3q0.95-6.3 3.2-11.1l0.75 0.35-0.15 0.95v0.15q-0.35 2.6-0.35 6.7l-0.1 0.4-0.05 0.4 0.15-0.45v-0.35q0.5-1.85 2.75-6.7l1.5-3.05 0.6 0.35q-0.45 1.55-1.15 4.65-0.85 3.9-0.85 4.9 0 1.75 0.55 2.8l0.2 0.35 0.3 0.7 0.15 0.1q0-4.15 2.9-10.15v-2.85l0.1-3.75 0.15-1.15 0.9-1.1-0.4 0.25-0.45 0.35 0.45-0.35 0.4-0.25-0.9 1.1 0.05-0.5 0.45-5.4h0.15l0.1-0.45 0.15-0.7 1.75-0.1 13.9-0.9m-9.3 26.55h0.55l-0.55 0.55 0.55-0.55h-0.55l0.1-1.8q0-2.15-0.8-2.5l-2.55-0.55 0.5 1.8q0.8 2.15 2.05 2.8l0.7 0.25" fill="#dacea5" fill-rule="evenodd"/>
<path d="m8.9 25.35v0.3l-0.65-0.15 0.65-0.15" fill="#8cbb44" fill-rule="evenodd"/>
<path d="m39.65 0q0.95 1.25 3.95 9.15 2.95 7.95-2.6 23.6l-3.2 0.55m-3.2 0.6-4.65 0.75-0.6 0.1-3.7 0.45-5.35 0.15h-0.05" fill="none" stroke="#8e885b" stroke-linecap="round" stroke-linejoin="round"/>
<path d="m37.8 33.3-0.15-3.5q-1.2 0.55-2.9 4.05l-0.15 0.05m-14.35 1.45h-0.05l-5.35-0.2-5.45-1.15-5.75-1.5q-5.55-12.5-2.65-23.05 1.3-4.9 3.2-9.4l5.15 0.25-1.25 3.2v1.6q0.05-0.7 0.95-2.25 0.85-1.45 2.15-2.45l12.8 0.6 1.75-0.1 13.9-0.9m-15.9 2.15 0.1-0.45q-0.25 0.15-0.25 0.45m0.25-0.45 0.15-0.7m-0.85 6.55 0.45-0.35 0.4-0.25-0.9 1.1m7.25 19.05 0.55-0.55h-0.55m-21.45-1.2-0.65 0.15m12 9.8h0.05l4.35-1.7m-4.4 1.7v0.05m10.2-1.7q0 0.45-0.5 0.75l-0.6 0.35" fill="none" stroke="#000" stroke-linecap="round" stroke-linejoin="round" stroke-opacity=".34902" stroke-width=".05"/>
<path d="m22.25 5.5q0-0.5 0.9-0.9l2.15-0.4 2.2 0.4 0.65 0.4v1.05l-0.65 0.4-2.2 0.4-2.15-0.4-0.9-0.95 0.85-0.15q0.25-0.25 1.05-0.45l0.95-0.25h0.65-0.65l-0.95 0.25q-0.8 0.2-1.05 0.45l-0.85 0.15m5.9 4.65 0.85 0.3-1.7 1.9q-1.55 1.4-3.3 2.05l-5.1 0.35-3.8-1.3q-1.95-1.7-2.15-3.2v-0.3q-0.05-1.45 4.15-3.5l5.35 1.65 4.25 1.55h0.1l1.35 0.5v0.6-0.6m-11.1-2.55 0.6 0.2-0.6-0.2m-2.1 2.35q0.75 3.7 8.45 3.4l3.75-2.6-9.5-2.95-2.7 2.15m10.25-4.75h1.45l0.5 0.25-0.15 0.1q-0.3 0-0.9 0.3l-1.15 0.25-1.05-0.05-0.8-0.7 0.8 0.7 1.05 0.05 1.15-0.25q0.6-0.3 0.9-0.3l0.15-0.1-0.5-0.25h-1.45" fill="#968947" fill-rule="evenodd"/>
<path d="m28.15 6.05v4.1l-1.35-0.5h-0.1q-0.4-0.2-0.85-1.05l-0.55-1.35 0.55 1.35q0.45 0.85 0.85 1.05l-4.25-1.55-0.2-2.6 0.9 0.95 2.15 0.4 2.2-0.4 0.65-0.4m-0.65 19.3v5.8q-2.75 1.85-5.75 0.35v-1.25q1.5-0.7 2.8-2 1.15-1.1 1.4-1.9l1.55-1" fill="#60582e" fill-rule="evenodd"/>
<path d="m14.95 9.95 2.7-2.15 9.5 2.95-3.75 2.6q-7.7 0.3-8.45-3.4" fill="#282313" fill-rule="evenodd"/>
<path d="m29 10.45v6.8l-1.05 0.5q-1.95 0.8-4.05 1l-4.75-0.5-0.25-3.5 0.25 3.5-3.55-1.3-2.65-1.4v-5.3q0.2 1.5 2.15 3.2l0.5 3.5-0.5-3.5 3.8 1.3 5.1-0.35-0.1 4.35 0.1-4.35q1.75-0.65 3.3-2.05l0.65 5.4-0.65-5.4 1.7-1.9m0 10.55v3l-1.1 1.05-0.4 0.3-1.55 1q-1.95 0.95-4.2 1l-2.5-0.3q-1.95-0.35-4.15-1.4-1.95-1.7-2.15-3.15v-2.9l2 1.2 0.15 0.05q2.25 1.15 4.4 1.65l4.8 0.25q2.15-0.3 4.15-1.4l0.55-0.35m-4.7 1.75 0.55 3.6-0.55-3.6m-5.05 4.3 0.25-4.55-0.25 4.55m-4.15-6.2v4.8-4.8m12.8 4.2 0.55-3.7-0.55 3.7" fill="#636128" fill-rule="evenodd"/>
<path d="m29 18.25v2.75l-0.55 0.35q-2 1.1-4.15 1.4l-4.8-0.25q-2.15-0.5-4.4-1.65l-0.15-0.05-2-1.2v-3.05q1.35 0.85 2.65 1.45l3.55 1.3 4.75 0.45q2.1-0.15 4.05-0.95l1.05-0.55" fill="#6c6d4e" fill-rule="evenodd"/>
<path d="m29 17.25v1l-1.05 0.55q-1.95 0.8-4.05 0.95l-4.75-0.45-3.55-1.3q-1.3-0.6-2.65-1.45v-1l2.65 1.4 3.55 1.3 4.75 0.5q2.1-0.2 4.05-1l1.05-0.5" fill="#5f5e43" fill-rule="evenodd"/>
<path d="m21.75 30.25v-2.9q2.25-0.05 4.2-1-0.25 0.8-1.4 1.9-1.3 1.3-2.8 2" fill="#4a4224" fill-rule="evenodd"/>
<path d="m22.25 5.5q0-0.5 0.9-0.9l2.15-0.4 2.2 0.4 0.65 0.4 0.2 0.5-0.2 0.55v4.1l0.85 0.3v13.55l-1.1 1.05-0.4 0.3v5.8q-2.75 1.85-5.75 0.35v-4.15l-2.5-0.3q-1.95-0.35-4.15-1.4-1.95-1.7-2.15-3.15v-12.55q-0.05-1.45 4.15-3.5l5.35 1.65-0.2-2.6 0.85-0.15q0.25-0.25 1.05-0.45l0.95-0.25h0.65m2.4 5.5v0.6m0-5.75v1.05l-0.65 0.4-2.2 0.4-2.15-0.4-0.9-0.95m-4.6 2.3-0.6-0.2m-2.1 2.35q0.75 3.7 8.45 3.4l3.75-2.6-9.5-2.95-2.7 2.15m8.15-4.6 0.8 0.7 1.05 0.05 1.15-0.25q0.6-0.3 0.9-0.3l0.15-0.1-0.5-0.25h-1.45m1.5 4.45h0.1l1.35 0.5m-1.45-0.5q-0.4-0.2-0.85-1.05l-0.55-1.35m-2.85 0.85 4.25 1.55m-2.8 9.1 0.1-4.35-5.1 0.35 0.25 3.5 4.75 0.5q2.1-0.2 4.05-1l-0.65-5.4q-1.55 1.4-3.3 2.05m-11.05 1.15 2.65 1.4-0.5-3.5q-1.95-1.7-2.15-3.2m0 9.35 2 1.2 0.15 0.05q2.25 1.15 4.4 1.65l4.8 0.25q2.15-0.3 4.15-1.4l0.55-0.35m-13.4-4.05 3.55 1.3m-4.05-4.8 3.8 1.3m-5.95 1.8q1.35 0.85 2.65 1.45l3.55 1.3 4.75 0.45q2.1-0.15 4.05-0.95l1.05-0.55m-9.5 4.25-0.25 4.55m5.6-0.7-0.55-3.6m1.65 3.6q-1.95 0.95-4.2 1m0 2.9q1.5-0.7 2.8-2 1.15-1.1 1.4-1.9l1.55-1m-12.4 0.3v-4.8m12.85-3.1 1.05-0.5m-0.55 4.1-0.55 3.7m-0.6-12.7 1.7-1.9" fill="none" stroke="#30240c" stroke-linecap="round" stroke-linejoin="round" stroke-opacity=".36078" stroke-width=".25"/>
</g>
</defs>
</svg>
