<?xml version="1.0" encoding="UTF-8" standalone="no"?>
<!DOCTYPE svg PUBLIC "-//W3C//DTD SVG 1.1//EN" "http://www.w3.org/Graphics/SVG/1.1/DTD/svg11.dtd">
<svg width="100%" height="100%" viewBox="0 0 48 45" version="1.1" xmlns="http://www.w3.org/2000/svg" xmlns:xlink="http://www.w3.org/1999/xlink" xml:space="preserve" xmlns:serif="http://www.serif.com/" style="fill-rule:evenodd;clip-rule:evenodd;stroke-miterlimit:3;">
    <g transform="matrix(1,0,0,1,-376.076,-277.746)">
        <g>
            <g id="sprite0" transform="matrix(1,0,0,1,400,300)">
                <g id="shape0">
                    <path d="M1.15,-21.3L1.05,-21C1.017,-20.833 1.033,-20.65 1.1,-20.45C1.233,-20.117 1.467,-19.867 1.8,-19.7L2,-19.6L2.8,-19.45L3.55,-19.95L3.65,-20.3L3.55,-20.8L2.9,-21.55L2.55,-21.7L1.9,-21.75C1.567,-21.717 1.317,-21.567 1.15,-21.3M4.15,-17.4C1.483,-17.9 -1.1,-17.933 -3.6,-17.5L-4.45,-20.7C-1.283,-22.667 1.75,-22.667 4.65,-20.7L4.15,-17.4M-3.35,-19.85L-3.1,-19.25L-2.75,-19L-2.45,-18.95L-2.15,-19L-1.8,-19.25L-1.55,-19.85C-1.55,-20.117 -1.633,-20.333 -1.8,-20.5C-1.967,-20.667 -2.183,-20.75 -2.45,-20.75L-3.1,-20.5L-3.35,-19.85" style="fill:#a17225;"/>
                    <path d="M1.15,-21.3C1.317,-21.567 1.567,-21.717 1.9,-21.75L2.55,-21.7L2.9,-21.55L3.55,-20.8L3.65,-20.3L3.55,-19.95L2.8,-19.45L2,-19.6L1.8,-19.7C1.467,-19.867 1.233,-20.117 1.1,-20.45C1.033,-20.65 1.017,-20.833 1.05,-21L1.15,-21.3M-3.35,-19.85L-3.1,-20.5L-2.45,-20.75C-2.183,-20.75 -1.967,-20.667 -1.8,-20.5C-1.633,-20.333 -1.55,-20.117 -1.55,-19.85L-1.8,-19.25L-2.15,-19L-2.45,-18.95L-2.75,-19L-3.1,-19.25L-3.35,-19.85" style="fill:#d19430;"/>
                    <path d="M7.2,-13.6L7.1,-13.35L5.55,-14.1L0.05,-15.1L-4.7,-14.6L-6.6,-13L-6.85,-13.35C-7.65,-14.483 -7.5,-15.65 -6.4,-16.85L-3.6,-17.5C-1.1,-17.933 1.483,-17.9 4.15,-17.4L6.5,-16.8C7,-16.3 7.317,-15.767 7.45,-15.2C7.55,-14.7 7.467,-14.167 7.2,-13.6M7.3,-12.05L7.8,-11.9L20.85,-14.8C22.783,-15.2 23.7,-14.3 23.6,-12.1L22.35,-7.9L20.7,-8.2L21.4,-10.65C21.467,-12.25 20.817,-12.883 19.45,-12.55L10.6,-10.6C11.867,-9.867 13.05,-9 14.15,-8L15.8,-6.35L16.55,-5.45L17.05,-4.75L17.9,-3.35L15.75,-2.4L13.6,-5.4L12.5,-6.45C11.533,-7.35 10.5,-8.117 9.4,-8.75L6.35,-10.05L4,-10.5L4,-11.1L4,-10.5L6.35,-10.05L9.4,-8.75C10.5,-8.117 11.533,-7.35 12.5,-6.45L13.6,-5.4L12.05,-6.25C11.55,-5.283 10.4,-4.75 8.6,-4.65L6.1,-5C2.767,-5.367 -0.1,-5.067 -2.5,-4.1C-5.933,-2 -9.55,-1.083 -13.35,-1.35L-15.1,-2.55L-13.45,-4.85L-13.4,-4.95L-13.45,-4.85L-15.1,-2.55L-16.1,-0.35L-16.5,0.9L-16.95,4.55L-16.8,6.35C-16.433,9.583 -15.033,12.417 -12.6,14.85L-14.25,16.3C-17.083,13.533 -18.717,10.283 -19.15,6.55L-19.3,4.5L-19.2,2.6L-19.15,2.3L-18.8,0.35L-18.35,-1.1C-17.85,-2.467 -17.083,-3.867 -16.05,-5.3L-15.2,-6.4L-11.3,-9.8L-11.25,-9.85L-9,-11.1L-8.65,-11.25L-6.2,-12.2L-4.7,-11.1L6.65,-11.1L7.3,-12.05M-20.9,-2.9L-23.6,-11.35C-23.7,-13.55 -22.8,-14.45 -20.9,-14.05L-11,-11.8L-12.2,-11.1L-17.2,-11.85L-17.65,-11.2L-19.25,-11.6C-20.55,-11.867 -21.167,-11.25 -21.1,-9.75L-19.95,-6.2L-19.8,-5.7L-19.15,-3.65L-18.95,-2.95L-20.9,-2.9M7.8,-11.9L10.6,-10.6L7.8,-11.9M-13.05,-5.25C-12.417,-5.85 -11.483,-6.367 -10.25,-6.8L10.65,-6.8L12.05,-6.25L10.65,-6.8L-10.25,-6.8C-11.483,-6.367 -12.417,-5.85 -13.05,-5.25L-13.35,-5L-13.05,-5.25L-11.9,-6.45L-9.9,-8.05L-7.55,-9.35L-3.6,-10.65L-3.6,-11.1L-3.6,-10.65L-7.55,-9.35L-9.9,-8.05L-11.9,-6.45L-13.05,-5.25M-13.4,-4.95L-13.35,-5L-13.4,-4.95" style="fill:#65cccc;fill-opacity:0.5;"/>
                    <path d="M-6.6,-13L-4.7,-14.6L0.05,-15.1L5.55,-14.1L7.1,-13.35L6.35,-12.35L7.05,-12.15L7.3,-12.05L6.65,-11.1L4,-11.1L4,-13.55C1.467,-14.383 -1.067,-14.383 -3.6,-13.55L-3.6,-11.1L-4.7,-11.1L-6.2,-12.2L-5.9,-12.3L-6.6,-13M22.35,-7.9L19.6,1.25L19.75,2.15L19.9,4.5C19.9,7.3 19.267,9.867 18,12.2C17.067,13.933 15.783,15.533 14.15,17C10.35,20.467 5.733,22.2 0.3,22.2C-5.1,22.2 -9.717,20.467 -13.55,17L-14.25,16.3L-12.6,14.85L-11.9,15.55C-10.467,16.85 -8.917,17.867 -7.25,18.6C-4.95,19.6 -2.433,20.1 0.3,20.1L2.8,19.95C6.5,19.517 9.733,18.05 12.5,15.55C13.933,14.25 15.067,12.85 15.9,11.35C16.8,9.683 17.333,7.867 17.5,5.9L17.55,4.55L17.3,1.7L16.6,-0.75L16.5,-0.9L15.75,-2.4L17.9,-3.35L18.7,-1.7L19.75,-5.25L20.05,-6.15L20.7,-8.2L22.35,-7.9M-19.25,2.4L-20.9,-2.9L-18.95,-2.95L-18.35,-1.1L-18.8,0.35L-19.15,2.3L-19.25,2.4M-11,-11.8L-8.65,-11.25L-9,-11.1L-11.25,-9.85L-11.3,-9.8L-17.65,-11.2L-17.2,-11.85L-12.2,-11.1L-11,-11.8M19.6,1.25L18.8,-1.55L18.7,-1.7L18.8,-1.55L19.6,1.25" style="fill:#478f8f;fill-opacity:0.5;"/>
                    <path d="M13.6,-5.4L15.75,-2.4L16.5,-0.9L16.6,-0.75L17.3,1.7L17.55,4.55L17.5,5.9C15.033,8.633 12,9.667 8.4,9L4.4,7.95L-0.55,7.25C-4.183,7.05 -6.767,7.817 -8.3,9.55C-9.3,10.683 -9.85,11.833 -9.95,13C-10.15,14.833 -9.25,16.7 -7.25,18.6C-8.917,17.867 -10.467,16.85 -11.9,15.55L-12.6,14.85C-15.033,12.417 -16.433,9.583 -16.8,6.35L-16.95,4.55L-16.5,0.9L-16.1,-0.35L-15.1,-2.55L-13.35,-1.35C-9.55,-1.083 -5.933,-2 -2.5,-4.1C-0.1,-5.067 2.767,-5.367 6.1,-5L8.6,-4.65C10.4,-4.75 11.55,-5.283 12.05,-6.25L13.6,-5.4M17.05,-4.75L16.55,-5.45L18.75,-6.9L19.45,-6.9L20.05,-6.15L19.75,-5.25L17.05,-4.75M-15.2,-6.4L-16.05,-5.3L-16.55,-5.5L-19.15,-3.65L-19.8,-5.7L-15.9,-6.65L-15.2,-6.4" style="fill:#b5b26e;"/>
                    <path d="M15.8,-6.35L14.15,-8C13.05,-9 11.867,-9.867 10.6,-10.6L19.45,-12.55C20.817,-12.883 21.467,-12.25 21.4,-10.65L20.7,-8.2L19.8,-8.35L19.4,-6.9L16.4,-6.9L15.8,-6.35M-11.3,-9.8L-15.2,-6.4L-15.9,-6.65L-16.1,-6.7L-19.2,-6.7L-19.95,-6.2L-21.1,-9.75C-21.167,-11.25 -20.55,-11.867 -19.25,-11.6L-17.65,-11.2L-11.3,-9.8" style="fill:#c2ffff;fill-opacity:0.5;"/>
                    <path d="M16.55,-5.45L15.8,-6.35L16.4,-6.9L18.75,-6.9L16.55,-5.45M-19.95,-6.2L-19.2,-6.7L-16.1,-6.7L-15.9,-6.65L-19.8,-5.7L-19.95,-6.2" style="fill:#e8e48d;"/>
                    <path d="M19.4,-6.9L19.8,-8.35L20.7,-8.2L20.05,-6.15L19.45,-6.9L19.4,-6.9" style="fill:#9de8e8;"/>
                    <path d="M17.9,-3.35L17.05,-4.75L19.75,-5.25L18.7,-1.7L17.9,-3.35M-7.25,18.6C-9.25,16.7 -10.15,14.833 -9.95,13C-9.85,11.833 -9.3,10.683 -8.3,9.55C-6.767,7.817 -4.183,7.05 -0.55,7.25L4.4,7.95L8.4,9C12,9.667 15.033,8.633 17.5,5.9C17.333,7.867 16.8,9.683 15.9,11.35C15.067,12.85 13.933,14.25 12.5,15.55C9.733,18.05 6.5,19.517 2.8,19.95L0.3,20.1C-2.433,20.1 -4.95,19.6 -7.25,18.6M-16.05,-5.3C-17.083,-3.867 -17.85,-2.467 -18.35,-1.1L-18.95,-2.95L-19.15,-3.65L-16.55,-5.5L-16.05,-5.3" style="fill:#94915a;"/>
                    <path d="M-3.6,-11.1L-3.6,-13.55C-1.067,-14.383 1.467,-14.383 4,-13.55L4,-11.1L-3.6,-11.1" style="fill:#a8dede;fill-opacity:0.5;"/>
                    <path d="M1.15,-21.3C1.317,-21.567 1.567,-21.717 1.9,-21.75L2.55,-21.7L2.9,-21.55L3.55,-20.8L3.65,-20.3L3.55,-19.95L2.8,-19.45L2,-19.6L1.8,-19.7C1.467,-19.867 1.233,-20.117 1.1,-20.45C1.033,-20.65 1.017,-20.833 1.05,-21L1.15,-21.3M-3.6,-17.5L-4.45,-20.7C-1.283,-22.667 1.75,-22.667 4.65,-20.7L4.15,-17.4M-3.35,-19.85L-3.1,-20.5L-2.45,-20.75C-2.183,-20.75 -1.967,-20.667 -1.8,-20.5C-1.633,-20.333 -1.55,-20.117 -1.55,-19.85L-1.8,-19.25L-2.15,-19L-2.45,-18.95L-2.75,-19L-3.1,-19.25L-3.35,-19.85" style="fill:none;fill-rule:nonzero;stroke:#704f19;stroke-width:0.05px;"/>
                    <path d="M7.1,-13.35L7.2,-13.6M7.45,-15.2C7.317,-15.767 7,-16.3 6.5,-16.8L4.15,-17.4C1.483,-17.9 -1.1,-17.933 -3.6,-17.5L-6.4,-16.85C-7.5,-15.65 -7.65,-14.483 -6.85,-13.35L-6.6,-13L-5.9,-12.3L-6.2,-12.2L-8.65,-11.25L-9,-11.1L-11.25,-9.85L-11.3,-9.8L-15.2,-6.4L-16.05,-5.3C-17.083,-3.867 -17.85,-2.467 -18.35,-1.1L-18.8,0.35L-19.15,2.3L-19.2,2.6L-19.25,2.4L-20.9,-2.9L-23.6,-11.35C-23.7,-13.55 -22.8,-14.45 -20.9,-14.05L-11,-11.8L-8.65,-11.25M7.1,-13.35L6.35,-12.35L7.05,-12.15L7.3,-12.05L7.8,-11.9L20.85,-14.8C22.783,-15.2 23.7,-14.3 23.6,-12.1L22.35,-7.9L19.6,1.25L19.75,2.15L19.9,4.5C19.9,7.3 19.267,9.867 18,12.2C17.067,13.933 15.783,15.533 14.15,17C10.35,20.467 5.733,22.2 0.3,22.2C-5.1,22.2 -9.717,20.467 -13.55,17L-14.25,16.3C-17.083,13.533 -18.717,10.283 -19.15,6.55L-19.3,4.5L-19.2,2.6M4,-11.1L4,-10.5L6.35,-10.05L9.4,-8.75C10.5,-8.117 11.533,-7.35 12.5,-6.45L13.6,-5.4L15.75,-2.4L16.5,-0.9L16.6,-0.75L17.3,1.7L17.55,4.55L17.5,5.9C17.333,7.867 16.8,9.683 15.9,11.35C15.067,12.85 13.933,14.25 12.5,15.55C9.733,18.05 6.5,19.517 2.8,19.95L0.3,20.1C-2.433,20.1 -4.95,19.6 -7.25,18.6C-8.917,17.867 -10.467,16.85 -11.9,15.55L-12.6,14.85C-15.033,12.417 -16.433,9.583 -16.8,6.35L-16.95,4.55L-16.5,0.9L-16.1,-0.35L-15.1,-2.55L-13.45,-4.85L-13.4,-4.95M17.9,-3.35L17.05,-4.75L16.55,-5.45L15.8,-6.35L14.15,-8C13.05,-9 11.867,-9.867 10.6,-10.6L7.8,-11.9M-13.05,-5.25L-13.35,-5M20.7,-8.2L21.4,-10.65C21.467,-12.25 20.817,-12.883 19.45,-12.55L10.6,-10.6M20.05,-6.15L20.7,-8.2M20.05,-6.15L19.75,-5.25L18.7,-1.7L18.8,-1.55L19.6,1.25M17.9,-3.35L18.7,-1.7M-3.6,-11.1L-3.6,-13.55C-1.067,-14.383 1.467,-14.383 4,-13.55L4,-11.1M-3.6,-11.1L-3.6,-10.65L-7.55,-9.35L-9.9,-8.05L-11.9,-6.45L-13.05,-5.25M-19.8,-5.7L-19.15,-3.65L-18.95,-2.95L-18.35,-1.1M-17.65,-11.2L-19.25,-11.6C-20.55,-11.867 -21.167,-11.25 -21.1,-9.75L-19.95,-6.2L-19.8,-5.7M-11.3,-9.8L-17.65,-11.2M-19.25,2.4L-19.15,2.3" style="fill:none;fill-rule:nonzero;stroke:#6da6a6;stroke-opacity:0.5;stroke-width:0.2px;"/>
                    <path d="M12.05,-6.25L10.65,-6.8L-10.25,-6.8C-11.483,-6.367 -12.417,-5.85 -13.05,-5.25M-13.35,-5L-13.4,-4.95M15.8,-6.35L16.4,-6.9L19.45,-6.9L20.05,-6.15M12.05,-6.25L13.6,-5.4M-15.9,-6.65L-15.2,-6.4M-19.95,-6.2L-19.2,-6.7L-16.1,-6.7L-15.9,-6.65" style="fill:none;fill-rule:nonzero;stroke:#94915a;stroke-width:0.05px;"/>
                    <path d="M16.95,-13.15C17.517,-13.017 17.85,-12.75 17.95,-12.35C18.05,-11.95 17.9,-11.55 17.5,-11.15L15.9,-10.3L14.1,-10.25C13.6,-10.417 13.3,-10.7 13.2,-11.1C13.1,-11.5 13.217,-11.883 13.55,-12.25C13.95,-12.65 14.483,-12.933 15.15,-13.1L16.95,-13.15" style="fill:#fff;"/>
                    <path d="M20.35,-13.8L20.85,-13.2L20.75,-12.35C20.617,-12.117 20.4,-11.95 20.1,-11.85L19.3,-11.95C19.033,-12.117 18.867,-12.35 18.8,-12.65C18.733,-12.917 18.767,-13.167 18.9,-13.4L19.55,-13.9L20.35,-13.8" style="fill:#fff;"/>
                    <path d="M-13,-5.75C-11.767,-6.45 -10.717,-6.55 -9.85,-6.05C-8.983,-5.517 -8.55,-4.567 -8.55,-3.2C-8.517,-1.8 -8.917,-0.367 -9.75,1.1C-10.583,2.567 -11.633,3.65 -12.9,4.35C-14.067,5.05 -15.083,5.133 -15.95,4.6C-16.817,4.1 -17.283,3.167 -17.35,1.8C-17.317,0.367 -16.883,-1.083 -16.05,-2.55C-15.217,-4.017 -14.2,-5.083 -13,-5.75" style="fill:#fff;"/>
                    <path d="M-21.05,-13.5C-20.783,-13.367 -20.617,-13.167 -20.55,-12.9C-20.483,-12.6 -20.517,-12.317 -20.65,-12.05C-20.783,-11.817 -21,-11.65 -21.3,-11.55L-22.1,-11.65L-22.6,-12.35L-22.5,-13.1L-21.85,-13.6L-21.05,-13.5" style="fill:#fff;"/>
                    <path d="M-15.4,-11.9C-15,-11.567 -14.833,-11.267 -14.9,-11C-15,-10.7 -15.3,-10.517 -15.8,-10.45L-17.6,-10.6C-18.267,-10.767 -18.8,-11.017 -19.2,-11.35C-19.6,-11.65 -19.75,-11.95 -19.65,-12.25L-18.8,-12.8L-17.05,-12.65L-15.4,-11.9" style="fill:#fff;"/>
                    <path d="M-7.1,-10.45C-6.567,-10.45 -6.1,-10.25 -5.7,-9.85C-5.3,-9.45 -5.1,-8.983 -5.1,-8.45C-5.133,-7.883 -5.35,-7.4 -5.75,-7C-6.117,-6.633 -6.583,-6.433 -7.15,-6.4C-7.683,-6.4 -8.15,-6.6 -8.55,-7C-8.95,-7.4 -9.15,-7.867 -9.15,-8.4C-9.117,-8.967 -8.917,-9.433 -8.55,-9.8C-8.15,-10.2 -7.667,-10.417 -7.1,-10.45" style="fill:#fff;"/>
                    <path d="M-5.35,-16.4L-5.05,-15.95C-4.983,-15.75 -5,-15.567 -5.1,-15.4L-5.55,-15.05L-6.1,-15.15L-6.45,-15.6L-6.35,-16.15L-5.9,-16.45L-5.35,-16.4" style="fill:#fff;"/>
                    <path d="M-0.45,-17.2C0.05,-17 0.3,-16.75 0.3,-16.45C0.3,-16.15 0.05,-15.883 -0.45,-15.65L-2.2,-15.35L-3.9,-15.65C-4.4,-15.883 -4.65,-16.15 -4.65,-16.45C-4.65,-16.75 -4.4,-17 -3.9,-17.2L-2.2,-17.5L-0.45,-17.2" style="fill:#fff;"/>
                    <path d="M14,-6.1L14.1,-5.8C15.867,0.867 15.967,7.833 14.4,15.1L11.1,16.05L11.1,13.15L10.15,16.3C4.15,17.633 -1.783,17.75 -7.65,16.65C-8.717,16.417 -9.4,16.167 -9.7,15.9L-13.45,12.6L-13.5,12.2C-14.533,4.733 -14.133,-2.133 -12.3,-8.4L-9.8,-8.95C-4.633,-10.05 0.033,-10.333 4.2,-9.8L7.3,-3L8.4,-9.3L11.7,-8.7L14,-6.1M14.1,-5.8L11.7,-5.8L11.7,-8.7L11.7,-5.8L14.1,-5.8M10.6,8.15L11.1,13.15L10.6,8.15M-10.9,-2.35L-9.8,-8.95L-10.9,-2.35M-9.7,15.9L-10.1,11.4L-13.5,12.2L-10.1,11.4L-9.7,15.9M-7.65,8.4L-7.65,16.65L-7.65,8.4" style="fill:#edcb8e;"/>
                    <path d="M14,-6.1L14.1,-5.8" style="fill:none;fill-rule:nonzero;stroke:#7a5e32;stroke-opacity:0.5;stroke-width:0.05px;"/>
                    <path d="M14.1,-5.8C15.867,0.867 15.967,7.833 14.4,15.1L11.1,16.05L11.1,13.15L10.15,16.3C4.15,17.633 -1.783,17.75 -7.65,16.65C-8.717,16.417 -9.4,16.167 -9.7,15.9L-13.45,12.6L-13.5,12.2C-14.533,4.733 -14.133,-2.133 -12.3,-8.4L-9.8,-8.95C-4.633,-10.05 0.033,-10.333 4.2,-9.8L7.3,-3L8.4,-9.3L11.7,-8.7L11.7,-5.8L14.1,-5.8M-13.5,12.2L-10.1,11.4L-9.7,15.9" style="fill:none;fill-rule:nonzero;stroke:#7a5e32;stroke-opacity:0.5;stroke-width:0.05px;stroke-linecap:round;"/>
                    <path d="M11.7,-8.7L14,-6.1M11.1,13.15L10.6,8.15M-9.8,-8.95L-10.9,-2.35M-7.65,16.65L-7.65,8.4" style="fill:none;fill-rule:nonzero;stroke:#7a5e32;stroke-opacity:0.5;stroke-width:0.05px;stroke-linecap:round;"/>
                    <path d="M3.4,-6.75C3.4,-6.383 3.267,-6.05 3,-5.75C2.7,-5.417 2.317,-5.25 1.85,-5.25C0.95,-5.25 0.433,-5.633 0.3,-6.4L0.25,-6.4C-0.517,-6.4 -1.033,-6.7 -1.3,-7.3L-1.5,-8.2C-1.5,-9.367 -0.917,-9.967 0.25,-10C1.417,-10.033 2,-9.417 2,-8.15C2.933,-8.117 3.4,-7.65 3.4,-6.75M9.4,-2C9.4,-2.7 9.75,-3.05 10.45,-3.05C11.15,-3.05 11.5,-2.7 11.5,-2C11.467,-1.267 11.133,-0.9 10.5,-0.9C10,-0.9 9.667,-1.067 9.5,-1.4L9.4,-2M14.25,-0.9C13.583,-0.9 13.117,-1.15 12.85,-1.65L12.65,-2.5C12.65,-3.5 13.167,-4 14.2,-4C15.233,-4 15.75,-3.467 15.75,-2.4C15.75,-2.033 15.617,-1.7 15.35,-1.4C15.05,-1.067 14.683,-0.9 14.25,-0.9M13,9.35C12.433,9.35 12.067,9.117 11.9,8.65L11.85,8.2C11.85,7.467 12.233,7.1 13,7.1C13.733,7.133 14.1,7.517 14.1,8.25L13.65,9.1L13,9.35M7.05,1.35C7.35,0.95 7.833,0.75 8.5,0.75C9.667,0.75 10.25,1.3 10.25,2.4L9.9,3.5C9.6,3.933 9.217,4.183 8.75,4.25L8.75,4.55C8.75,4.983 8.617,5.35 8.35,5.65C8.05,6.05 7.6,6.25 7,6.25C6.2,6.25 5.65,5.95 5.35,5.35L5.15,4.5C5.15,4.033 5.25,3.667 5.45,3.4L4.9,3.3L4.8,3.45C4.367,3.983 3.85,4.25 3.25,4.25C2.417,4.25 1.817,3.917 1.45,3.25L1.1,2.25C1.1,0.983 1.8,0.317 3.2,0.25C3.867,0.25 4.367,0.4 4.7,0.7L5.6,0.55C6.367,0.55 6.85,0.817 7.05,1.35M2.85,5.45L2.5,6.6C2.167,7.1 1.667,7.35 1,7.35C0.267,7.35 -0.25,7.05 -0.55,6.45L-0.8,5.5C-0.8,4.133 -0.183,3.533 1.05,3.7C2.25,3.867 2.85,4.45 2.85,5.45M8.4,12.2C8.333,12.733 8.167,13.117 7.9,13.35L8.15,14.15L7.85,15C7.65,15.267 7.367,15.4 7,15.4C6.067,15.4 5.65,15.017 5.75,14.25C5.75,13.883 5.867,13.6 6.1,13.4C5.767,13.167 5.567,12.767 5.5,12.2C5.5,11.367 5.983,10.95 6.95,10.95C7.917,10.95 8.4,11.367 8.4,12.2M3.85,15.4C2.617,15.4 2,14.85 2,13.75C2,12.617 2.617,12.05 3.85,12.05C5.05,12.05 5.65,12.6 5.65,13.7L5.2,14.85C4.867,15.217 4.417,15.4 3.85,15.4M-11.5,-4.3L-12.1,-4.8C-12.233,-4.9 -12.3,-5.05 -12.3,-5.25L-11.95,-6C-11.583,-6.233 -11.117,-5.983 -10.55,-5.25L-10.7,-4.85C-10.8,-4.617 -11.067,-4.433 -11.5,-4.3M-3.05,-7.25C-3.05,-7.017 -3.167,-6.733 -3.4,-6.4C-3.7,-6 -4.067,-5.8 -4.5,-5.8C-5.067,-5.8 -5.45,-6.033 -5.65,-6.5L-5.8,-7.2C-5.8,-8.167 -5.333,-8.6 -4.4,-8.5C-3.5,-8.367 -3.05,-7.95 -3.05,-7.25M-5.4,-5.1C-4.333,-5.1 -3.8,-4.5 -3.8,-3.3C-3.8,-2.8 -3.95,-2.383 -4.25,-2.05C-4.583,-1.717 -5,-1.55 -5.5,-1.55C-6.267,-1.55 -6.75,-1.85 -6.95,-2.45L-7.75,-2.3C-8.483,-2.3 -9,-2.617 -9.3,-3.25L-9.55,-4.2C-9.55,-5.5 -8.917,-6.15 -7.65,-6.15C-6.717,-6.15 -6.133,-5.783 -5.9,-5.05L-5.4,-5.1M-8.55,-0.75C-8.55,-1.483 -8.167,-1.85 -7.4,-1.85C-6.667,-1.85 -6.3,-1.45 -6.3,-0.65L-6.35,-0.3C-5.483,-0.267 -5.05,0.267 -5.05,1.3L-5.45,2.25L-6,2.7C-5.833,2.967 -5.75,3.333 -5.75,3.8C-5.75,4.267 -5.883,4.667 -6.15,5C-6.483,5.433 -6.933,5.65 -7.5,5.65C-8.267,5.65 -8.767,5.367 -9,4.8L-9.1,4.3L-9.5,4.35C-10.067,4.35 -10.45,4.133 -10.65,3.7L-10.8,3C-10.8,2.1 -10.333,1.633 -9.4,1.6C-8.8,1.6 -8.4,1.8 -8.2,2.2L-8.05,2.15L-8.3,1.25C-8.3,0.85 -8.183,0.533 -7.95,0.3L-8.5,-0.3L-8.55,-0.75M-2.35,-4.7L-2.5,-5.25C-2.5,-6.05 -2.083,-6.45 -1.25,-6.45C-0.417,-6.45 0,-6.05 0,-5.25L-0.25,-4.5C-0.483,-4.167 -0.817,-4 -1.25,-4C-1.75,-4 -2.117,-4.233 -2.35,-4.7M-9.55,8.5C-9.817,8.767 -10.133,8.9 -10.5,8.9L-11.3,8.7L-11.75,9.6C-12.117,10.1 -12.617,10.35 -13.25,10.35C-13.983,10.35 -14.5,10.05 -14.8,9.45L-15.05,8.5C-15.05,7.033 -14.417,6.35 -13.15,6.45C-12.383,6.517 -11.85,6.8 -11.55,7.3C-11.417,6.867 -11.05,6.633 -10.45,6.6C-9.65,6.533 -9.25,6.883 -9.25,7.65C-9.25,7.983 -9.35,8.267 -9.55,8.5M-7.5,9.55C-6.633,9.55 -6.083,9.85 -5.85,10.45C-5.683,10.05 -5.3,9.9 -4.7,10C-3.833,10.167 -3.4,10.583 -3.4,11.25C-3.4,11.583 -3.517,11.867 -3.75,12.1L-3.8,12.15C-3.6,12.417 -3.5,12.783 -3.5,13.25L-3.5,13.3C-2.367,13.367 -1.8,13.95 -1.8,15.05C-1.8,15.45 -1.967,15.817 -2.3,16.15C-2.7,16.55 -3.183,16.75 -3.75,16.75C-4.517,16.75 -5.033,16.45 -5.3,15.85L-5.5,15L-5.45,14.7L-6.35,13.85L-6.5,13.2L-6.35,12.5C-6.65,12.767 -7.033,12.9 -7.5,12.9C-8.133,12.9 -8.617,12.65 -8.95,12.15L-9.25,11.2C-9.25,10.1 -8.667,9.55 -7.5,9.55M-5.9,11.95L-6,12.1L-5.85,12L-5.9,11.95M-2.75,10.45C-2.75,9.483 -2.317,9.083 -1.45,9.25C-0.583,9.417 -0.15,9.833 -0.15,10.5C-0.15,10.833 -0.267,11.117 -0.5,11.35C-0.767,11.617 -1.1,11.75 -1.5,11.75C-2.067,11.75 -2.45,11.533 -2.65,11.1L-2.75,10.45" style="fill:#b89c6e;fill-opacity:0.5;"/>
                </g>
            </g>
            <g id="shape1">
                <path d="M413.4,315.4L412.4,315.7L412.35,314.6L413.25,315.3L413.4,315.4" style="fill:#edcb8e;"/>
                <path d="M401.5,302.7L402.1,302.55C403.367,302.783 404.65,303.283 405.95,304.05L406.1,304.1L407.65,305.2L409.7,307.45L411.65,311L411.65,311.1C412.283,312.733 412.567,314.267 412.5,315.7L411.15,316.05L411.15,313.15L410.2,316.3C404.2,317.633 398.267,317.75 392.4,316.65L390.35,315.9L390.25,314.4C390.417,313.567 390.683,312.7 391.05,311.8L391.15,311.65L393.35,308.05C394.017,307.217 394.783,306.45 395.65,305.75L397.3,304.5L397.4,304.45C398.8,303.617 400.167,303.033 401.5,302.7" style="fill:#b0af04;fill-opacity:0.89;"/>
                <path d="M390.35,315.9L390.25,314.4C390.417,313.567 390.7,312.7 391.1,311.8L391.15,311.7L393.35,308.05L395.65,305.75L397.3,304.55L397.45,304.5C398.817,303.667 400.167,303.083 401.5,302.75L401.55,302.7L402.1,302.55C403.367,302.783 404.667,303.283 406,304.05L406.1,304.1L407.65,305.25L409.7,307.45L411.65,311.05L411.7,311.1C412.3,312.733 412.567,314.267 412.5,315.7L411.15,316.05L411.15,313.15L410.2,316.3L408.35,316.7L408.6,316.05C409.167,314.383 409.267,312.717 408.9,311.05C408.433,309.15 407.45,307.7 405.95,306.7L405.2,306.15L404.55,305.85C403.45,305.35 402.267,305.217 401,305.45C398.933,305.75 397.2,306.783 395.8,308.55L395.25,309.3C394.15,311.067 393.717,313.033 393.95,315.2L394.3,317L392.4,316.65L390.35,315.9M390.8,319.75L390.35,318.65L390.8,319.7C391.267,320.533 391.833,321.267 392.5,321.9C391.833,321.3 391.267,320.583 390.8,319.75" style="fill-opacity:0.13;"/>
                <path d="M412.5,315.7C412.567,314.267 412.3,312.733 411.7,311.1L411.65,311.05L409.7,307.45L407.65,305.25L406.1,304.1L406,304.05C404.667,303.283 403.367,302.783 402.1,302.55L401.55,302.7L401.5,302.75C400.167,303.083 398.817,303.667 397.45,304.5L397.3,304.55L395.65,305.75L393.35,308.05L391.15,311.7L391.1,311.8C390.7,312.7 390.417,313.567 390.25,314.4L390.35,315.9" style="fill:none;fill-rule:nonzero;stroke:#000;stroke-opacity:0.3;stroke-width:0.1px;stroke-linecap:round;stroke-linejoin:round;stroke-miterlimit:4;"/>
            </g>
            <g id="shape2" transform="matrix(0.4316,-0.1884,0.2589,0.5481,404.4,309.6)">
                <path d="M2.05,0.6C2.417,0.933 2.65,1.333 2.75,1.8C2.883,2.3 2.867,2.7 2.7,3C2.567,3.267 2.3,3.383 1.9,3.35C1.533,3.35 1.167,3.183 0.8,2.85C0.433,2.483 0.183,2.05 0.05,1.55C-0.05,1.083 -0.033,0.717 0.1,0.45C0.267,0.15 0.533,0 0.9,0C1.3,0.033 1.683,0.233 2.05,0.6" style="fill:#ffeeb4;fill-opacity:0.48;"/>
            </g>
            <g id="sprite1" transform="matrix(0.5115,0.0764,-0.0648,0.5642,394.6,294.75)">
                <g id="shape3">
                    <path d="M19.8,25.15L22,29.65C22.333,28.217 22.35,26.483 22.05,24.45L19.8,25.15" style="fill:#faf3e4;"/>
                    <path d="M17.7,26C18.733,27.7 20.183,29 22.05,29.9L22,29.65L19.8,25.15L17.7,26" style="fill:#f0dfb9;"/>
                    <path d="M22,29.65L22.05,29.9C20.183,29 18.733,27.7 17.7,26M22,29.65C22.333,28.217 22.35,26.483 22.05,24.45" style="fill:none;fill-rule:nonzero;stroke:#8c621e;stroke-opacity:0.6;stroke-width:0.05px;"/>
                    <path d="M25.3,20.1C26.333,21.767 26.85,23.283 26.85,24.65L26.65,24.5L23.75,20.5L25.3,20.1" style="fill:#f0dfb9;"/>
                    <path d="M23.75,20.5L26.65,24.5L22.05,20.95L23.75,20.5" style="fill:#faf3e4;"/>
                    <path d="M26.65,24.5L26.85,24.65C26.85,23.283 26.333,21.767 25.3,20.1M26.65,24.5L22.05,20.95" style="fill:none;fill-rule:nonzero;stroke:#8c621e;stroke-opacity:0.1;stroke-width:0.05px;"/>
                    <path d="M6.85,22.65C5.817,24.317 5.3,25.833 5.3,27.2L5.5,27.05C7.367,25.317 8.333,23.983 8.4,23.05L6.85,22.65" style="fill:#f0dfb9;"/>
                    <path d="M8.4,23.05C8.333,23.983 7.367,25.317 5.5,27.05L10.1,23.5L8.4,23.05" style="fill:#faf3e4;"/>
                    <path d="M5.5,27.05L5.3,27.2C5.3,25.833 5.817,24.317 6.85,22.65M5.5,27.05L10.1,23.5" style="fill:none;fill-rule:nonzero;stroke:#8c621e;stroke-opacity:0.1;stroke-width:0.05px;"/>
                </g>
                <g id="sprite2" transform="matrix(-0.9295,0,0,0.9295,12.2502,1.74992)">
                    <g id="Fleur66" transform="matrix(1,0,0,1,-7.65,-2.9)">
                        <g id="shape4">
                            <path d="M13.2,5.25C12.3,5.617 11.383,5.783 10.45,5.75C9.55,5.75 8.9,5.55 8.5,5.15C8.067,4.717 8.033,4.217 8.4,3.65C8.733,3.083 9.35,2.617 10.25,2.25C11.183,1.85 12.117,1.667 13.05,1.7C13.95,1.7 14.617,1.917 15.05,2.35C15.45,2.75 15.467,3.233 15.1,3.8C14.767,4.367 14.133,4.85 13.2,5.25M6.9,3.45C7.1,4.083 6.933,4.517 6.4,4.75L4.2,4.7C3.233,4.433 2.35,4 1.55,3.4C0.783,2.767 0.3,2.133 0.1,1.5C-0.1,0.867 0.033,0.433 0.5,0.2C1.033,-0.067 1.783,-0.067 2.75,0.2C3.683,0.467 4.55,0.917 5.35,1.55C6.183,2.183 6.7,2.817 6.9,3.45" style="fill:#ce5200;"/>
                        </g>
                    </g>
                    <g id="shape5">
                        <path d="M7.4,-0.55C7.8,-0.15 7.817,0.333 7.45,0.9C7.117,1.467 6.483,1.95 5.55,2.35C4.65,2.717 3.733,2.883 2.8,2.85C1.9,2.85 1.25,2.65 0.85,2.25C0.417,1.817 0.383,1.317 0.75,0.75C1.083,0.183 1.7,-0.283 2.6,-0.65L5.4,-1.2C6.3,-1.2 6.967,-0.983 7.4,-0.55M-7.15,-2.7C-6.617,-2.967 -5.867,-2.967 -4.9,-2.7C-3.967,-2.433 -3.1,-1.983 -2.3,-1.35C-1.467,-0.717 -0.95,-0.083 -0.75,0.55C-0.55,1.183 -0.717,1.617 -1.25,1.85L-3.45,1.8C-4.417,1.533 -5.3,1.1 -6.1,0.5C-6.867,-0.133 -7.35,-0.767 -7.55,-1.4C-7.75,-2.033 -7.617,-2.467 -7.15,-2.7" style="fill:none;fill-rule:nonzero;stroke:#000;stroke-opacity:0.3;stroke-width:0.1px;stroke-linecap:round;stroke-linejoin:round;stroke-miterlimit:4;"/>
                    </g>
                </g>
                <g id="shape6">
                    <path d="M11.8,26.55L10.9,31.3C12,30.433 13.05,29.133 14.05,27.4L11.8,26.55" style="fill:#faf3e4;"/>
                    <path d="M9.65,25.85C9.45,27.783 9.817,29.683 10.75,31.55L10.9,31.3L11.8,26.55L9.65,25.85" style="fill:#f0dfb9;"/>
                    <path d="M10.9,31.3L10.75,31.55C9.817,29.683 9.45,27.783 9.65,25.85M10.9,31.3C12,30.433 13.05,29.133 14.05,27.4" style="fill:none;fill-rule:nonzero;stroke:#8c621e;stroke-opacity:0.6;stroke-width:0.05px;"/>
                </g>
                <g id="Tete2" transform="matrix(1,0,0,1,14.25,15.25)">
                    <g id="shape7">
                        <path d="M0.25,-12.05C1.983,-11.917 4.333,-11.217 7.3,-9.95C8.533,-9.283 9.717,-8.467 10.85,-7.5C14.05,-4.767 15.6,-2.3 15.5,-0.1C15.433,2.1 15.35,2.833 15.25,2.1L15,2.85C13.367,6.617 8.85,9.717 1.45,12.15C-3.75,11.583 -8.833,10.067 -13.8,7.6L-14.2,7C-14.067,7.7 -14.4,7.017 -15.2,4.95C-16,2.883 -15.317,0.067 -13.15,-3.5C-12.417,-4.8 -11.567,-5.967 -10.6,-7C-8.2,-9.167 -6.183,-10.583 -4.55,-11.25L-2.5,-11.9L-2.5,-11.95L-2.25,-12L-1.95,-12.05L-1.95,-12L0.25,-12.05" style="fill:#b0af04;fill-opacity:0.89;"/>
                    </g>
                </g>
                <g id="shape8">
                    <path d="M18.8,11.8L18.6,11.45L18.8,11.05C18.9,10.95 19.033,10.9 19.2,10.9L19.6,11.05L19.8,11.45L19.6,11.8L19.2,11.95L18.8,11.8M16.25,8.15C16.65,8.15 16.983,8.267 17.25,8.5C17.517,8.767 17.65,9.067 17.65,9.4C17.65,9.733 17.517,10.017 17.25,10.25C16.983,10.517 16.65,10.65 16.25,10.65C15.85,10.65 15.5,10.517 15.2,10.25C14.933,10.017 14.8,9.733 14.8,9.4C14.8,9.067 14.933,8.767 15.2,8.5C15.5,8.267 15.85,8.15 16.25,8.15M14.55,11.75L14.7,12.25L14.55,12.75C14.417,12.883 14.283,12.95 14.15,12.95C13.983,12.95 13.85,12.883 13.75,12.75C13.65,12.617 13.6,12.45 13.6,12.25C13.6,12.083 13.65,11.917 13.75,11.75L14.15,11.55L14.55,11.75M13.3,7.75L13.1,8.1L12.7,8.25L12.3,8.1L12.1,7.75L12.3,7.45C12.4,7.35 12.533,7.3 12.7,7.3C12.867,7.3 13,7.35 13.1,7.45L13.3,7.75" style="fill:#e4e4e4;fill-opacity:0.3;"/>
                    <path d="M29.7,16.6C29.633,17.633 29.567,17.883 29.5,17.35C29.3,18.083 28.717,19.133 27.75,20.5C27.55,19.333 27.683,18.083 28.15,16.75L28.3,15.9C28.267,14.267 26.65,12.35 23.45,10.15L21,8.55C19.567,7.683 18.233,7.017 17,6.55C15.967,6.15 15,5.917 14.1,5.85C11.6,5.65 8.867,7.317 5.9,10.85C2.9,14.35 1.467,16.983 1.6,18.75L1.75,20.1L2.4,23.95C1.433,23.55 0.617,22.95 -0.05,22.15C-0.683,21.417 -1.15,20.5 -1.45,19.4L-1.25,17.8C-0.783,14.7 1,11.433 4.1,8C7.167,4.533 10.633,2.933 14.5,3.2C18.367,3.5 21.9,5.017 25.1,7.75C28.3,10.483 29.85,12.95 29.75,15.15L29.7,16.6" style="fill-opacity:0.13;"/>
                    <path d="M-0.05,22.15C-0.683,21.417 -1.15,20.5 -1.45,19.4L-1.25,17.8C-0.783,14.7 1,11.433 4.1,8C7.167,4.533 10.633,2.933 14.5,3.2C18.367,3.5 21.9,5.017 25.1,7.75C28.3,10.483 29.85,12.95 29.75,15.15L29.7,16.6" style="fill:none;fill-rule:nonzero;stroke:#000;stroke-opacity:0.3;stroke-width:0.1px;stroke-linecap:round;stroke-linejoin:round;stroke-miterlimit:4;"/>
                    <path d="M17.55,26.8L17.1,26.95L11.6,26.55C8.733,25.883 6.867,25.3 6,24.8C4.5,23.5 4.367,22.617 5.6,22.15" style="fill:none;fill-rule:nonzero;stroke:#000;stroke-opacity:0.3;stroke-width:0.1px;stroke-linecap:round;stroke-linejoin:round;stroke-miterlimit:4;"/>
                    <path d="M15.65,27.2C16.617,27.2 18.25,26.633 20.55,25.5C23.083,24.2 24.717,23.183 25.45,22.45C26.483,20.917 26.35,20.05 25.05,19.85" style="fill:none;fill-rule:nonzero;stroke:#000;stroke-opacity:0.3;stroke-width:0.1px;stroke-linecap:round;stroke-linejoin:round;stroke-miterlimit:4;"/>
                </g>
            </g>
            <g id="shape9" transform="matrix(0.5115,0.0764,-0.0589,0.5557,405.35,299.05)">
                <path d="M-2,2C-1.4,2.267 -0.917,2.617 -0.55,3.05C-0.117,3.483 0.083,3.867 0.05,4.2C0.017,4.533 -0.25,4.75 -0.75,4.85L-2.3,4.6C-2.9,4.367 -3.4,4.017 -3.8,3.55C-4.167,3.117 -4.333,2.733 -4.3,2.4C-4.267,2.067 -4.033,1.85 -3.6,1.75L-2,2" style="fill:#ffeeb4;fill-opacity:0.53;"/>
            </g>
            <g id="shape10" transform="matrix(-0.4826,-0.1307,-0.1336,0.4386,405.5,305.2)">
                <path d="M-1,3.95C-1.367,4.25 -1.583,4.633 -1.65,5.1L-1.1,6.6C-0.733,7.067 -0.317,7.35 0.15,7.45L1.5,7.3C1.867,7 2.05,6.567 2.05,6C2.083,5.5 1.917,5.033 1.55,4.6C1.217,4.133 0.8,3.833 0.3,3.7C-0.167,3.6 -0.6,3.683 -1,3.95" style="fill:#ffb300;"/>
                <path d="M-1.6,1.25C2.367,0.483 4.5,1.9 4.8,5.5" style="fill:none;fill-rule:nonzero;stroke:#000;stroke-opacity:0.3;stroke-width:0.1px;stroke-linecap:round;stroke-linejoin:round;stroke-miterlimit:4;"/>
            </g>
            <g id="shape101" serif:id="shape10" transform="matrix(0.4893,-0.1628,0.1602,0.5367,396.2,305.1)">
                <path d="M-1,3.95C-1.367,4.25 -1.583,4.633 -1.65,5.1L-1.1,6.6C-0.733,7.067 -0.317,7.35 0.15,7.45L1.5,7.3C1.867,7 2.05,6.567 2.05,6C2.083,5.5 1.917,5.033 1.55,4.6C1.217,4.133 0.8,3.833 0.3,3.7C-0.167,3.6 -0.6,3.683 -1,3.95" style="fill:#ffb300;"/>
                <path d="M-1.6,1.25C2.367,0.483 4.5,1.9 4.8,5.5" style="fill:none;fill-rule:nonzero;stroke:#000;stroke-opacity:0.3;stroke-width:0.1px;stroke-linecap:round;stroke-linejoin:round;stroke-miterlimit:4;"/>
            </g>
            <g id="sprite5" transform="matrix(-0.1832,-0.4859,0.4422,-0.1889,396.651,302.201)">
                <g id="Peau2" transform="matrix(1,0,0,1,6.25,-4.65)">
                    <g id="shape11">
                        <path d="M4.9,-2.3C1.133,-0.667 -1.25,0.85 -2.25,2.25C-5.217,2.55 -5.633,1.717 -3.5,-0.25C-2.067,-0.35 0.617,-1.05 4.55,-2.35L4.35,-2.2L4.9,-2.3" style="fill:#b0af04;fill-opacity:0.89;"/>
                    </g>
                </g>
                <g id="shape12">
                    <path d="M4,-2.4C1.033,-2.1 0.617,-2.933 2.75,-4.9C4.183,-5 6.867,-5.7 10.8,-7L10.6,-6.85L11.15,-6.95C7.383,-5.317 5,-3.8 4,-2.4" style="fill-opacity:0.13;"/>
                    <path d="M2.75,-4.9C2.083,-4.867 1.667,-4.933 1.5,-5.1M4,-2.4C3.533,-1.733 3.35,-1.117 3.45,-0.55M4,-2.4C5,-3.8 7.383,-5.317 11.15,-6.95L10.6,-6.85L10.8,-7C6.867,-5.7 4.183,-5 2.75,-4.9M11.95,-8L10.8,-7L11.15,-6.95L12.55,-7.3" style="fill:none;fill-rule:nonzero;stroke:#000;stroke-opacity:0.3;stroke-width:0.1px;stroke-linecap:round;stroke-linejoin:round;stroke-miterlimit:4;"/>
                </g>
                <g id="sprite7" transform="matrix(0.7712,0.4792,-0.1053,0.8192,7.20003,-21)">
                    <g id="Fleur2" transform="matrix(1,0,0,1,7.9,8.55)">
                        <g id="shape13">
                            <path d="M-0.2,4.35C-0.233,4.883 -0.4,5.45 -0.7,6.05C-1.2,6.95 -1.917,7.65 -2.85,8.15C-3.883,8.65 -4.867,8.767 -5.8,8.5C-6.767,8.2 -7.4,7.617 -7.7,6.75C-8.033,5.85 -7.95,4.917 -7.45,3.95C-6.983,2.983 -6.25,2.267 -5.25,1.8C-4.283,1.3 -3.317,1.2 -2.35,1.5C-1.417,1.767 -0.783,2.35 -0.45,3.25L-0.4,3.05L-0.4,2.8C-0.267,1.9 0.317,1.217 1.35,0.75C2.217,0.283 3.217,0.167 4.35,0.4C5.45,0.6 6.367,1.067 7.1,1.8C7.8,2.567 8.067,3.417 7.9,4.35C7.733,5.25 7.183,5.933 6.25,6.4C5.35,6.867 4.35,7 3.25,6.8L3.2,6.8C2.033,6.567 1.133,6.1 0.5,5.4L-0.2,4.35M1.55,-6.7L1.6,-6.65C1.967,-5.683 2.117,-4.5 2.05,-3.1C1.983,-1.8 1.683,-0.683 1.15,0.25C0.617,1.217 0.017,1.717 -0.65,1.75L-0.95,1.7C-1.783,1.6 -2.417,0.983 -2.85,-0.15C-3.25,-1.183 -3.417,-2.367 -3.35,-3.7C-3.283,-5.067 -2.967,-6.217 -2.4,-7.15L-2.25,-7.35C-1.717,-8.283 -1.067,-8.683 -0.3,-8.55C0.433,-8.517 1.05,-7.9 1.55,-6.7" style="fill:#ff8b17;"/>
                        </g>
                    </g>
                    <g id="shape14">
                        <path d="M12.25,8.95C11.117,8.717 10.117,8.833 9.25,9.3C8.217,9.767 7.633,10.45 7.5,11.35L7.5,11.6L7.45,11.8C7.117,10.9 6.483,10.317 5.55,10.05C4.583,9.75 3.617,9.85 2.65,10.35C1.65,10.817 0.917,11.533 0.45,12.5C-0.05,13.467 -0.133,14.4 0.2,15.3C0.5,16.167 1.133,16.75 2.1,17.05C3.033,17.317 4.017,17.2 5.05,16.7C5.983,16.2 6.7,15.5 7.2,14.6C7.5,14 7.667,13.433 7.7,12.9L8.4,13.95C9.033,14.65 9.933,15.117 11.1,15.35L11.15,15.35C12.25,15.55 13.25,15.417 14.15,14.95C15.083,14.483 15.633,13.8 15.8,12.9C15.967,11.967 15.7,11.117 15,10.35C14.267,9.617 13.35,9.15 12.25,8.95M9.5,1.9L9.45,1.85C8.95,0.65 8.333,0.033 7.6,0C6.833,-0.133 6.183,0.267 5.65,1.2L5.5,1.4C4.933,2.333 4.617,3.483 4.55,4.85C4.483,6.183 4.65,7.367 5.05,8.4C5.483,9.533 6.117,10.15 6.95,10.25L7.25,10.3C7.917,10.267 8.517,9.767 9.05,8.8C9.583,7.867 9.883,6.75 9.95,5.45C10.017,4.05 9.867,2.867 9.5,1.9" style="fill:none;fill-rule:nonzero;stroke:#000;stroke-opacity:0.3;stroke-width:0.1px;stroke-linecap:round;stroke-linejoin:round;stroke-miterlimit:4;"/>
                    </g>
                </g>
            </g>
            <g id="sprite9" transform="matrix(0.3824,0.3847,-0.3448,0.4082,407.7,295.35)">
                <g id="Peau33" transform="matrix(1,0,0,1,4.45,5.3)">
                    <g id="shape15">
                        <path d="M-1.65,3.4L1.4,-3.9C0.967,-0.8 1.05,1.817 1.65,3.95L-1.65,3.4" style="fill:#b0af04;fill-opacity:0.89;"/>
                    </g>
                </g>
                <g id="sprite11" transform="matrix(-0.9241,0.3821,0.3821,0.9241,10.5,-7.44999)">
                    <g id="Fleur2R">
                        <g id="shape16">
                            <path d="M10.4,5.2C9.767,5.767 9.183,6.033 8.65,6C8.083,5.967 7.75,5.633 7.65,5C7.55,4.4 7.7,3.683 8.1,2.85C8.5,2.017 9.017,1.333 9.65,0.8C10.317,0.233 10.933,-0.033 11.5,0C12.033,0.033 12.333,0.367 12.4,1C12.5,1.6 12.35,2.317 11.95,3.15C11.55,3.983 11.033,4.667 10.4,5.2M4.3,5.45C5.233,5.35 5.967,5.467 6.5,5.8C7,6.1 7.15,6.5 6.95,7C6.75,7.5 6.233,7.95 5.4,8.35C4.567,8.717 3.683,8.933 2.75,9L0.6,8.65C0.067,8.317 -0.1,7.917 0.1,7.45C0.3,6.917 0.817,6.467 1.65,6.1C2.483,5.7 3.367,5.483 4.3,5.45" style="fill:#f60;"/>
                        </g>
                    </g>
                    <g id="shape17">
                        <path d="M10.4,5.2C9.767,5.767 9.183,6.033 8.65,6C8.083,5.967 7.75,5.633 7.65,5C7.55,4.4 7.7,3.683 8.1,2.85C8.5,2.017 9.017,1.333 9.65,0.8C10.317,0.233 10.933,-0.033 11.5,0C12.033,0.033 12.333,0.367 12.4,1C12.5,1.6 12.35,2.317 11.95,3.15C11.55,3.983 11.033,4.667 10.4,5.2M4.3,5.45C5.233,5.35 5.967,5.467 6.5,5.8C7,6.1 7.15,6.5 6.95,7C6.75,7.5 6.233,7.95 5.4,8.35C4.567,8.717 3.683,8.933 2.75,9L0.6,8.65C0.067,8.317 -0.1,7.917 0.1,7.45C0.3,6.917 0.817,6.467 1.65,6.1C2.483,5.7 3.367,5.483 4.3,5.45" style="fill-opacity:0.2;"/>
                        <path d="M10.4,5.2C9.767,5.767 9.183,6.033 8.65,6C8.083,5.967 7.75,5.633 7.65,5C7.55,4.4 7.7,3.683 8.1,2.85C8.5,2.017 9.017,1.333 9.65,0.8C10.317,0.233 10.933,-0.033 11.5,0C12.033,0.033 12.333,0.367 12.4,1C12.5,1.6 12.35,2.317 11.95,3.15C11.55,3.983 11.033,4.667 10.4,5.2M4.3,5.45C5.233,5.35 5.967,5.467 6.5,5.8C7,6.1 7.15,6.5 6.95,7C6.75,7.5 6.233,7.95 5.4,8.35C4.567,8.717 3.683,8.933 2.75,9L0.6,8.65C0.067,8.317 -0.1,7.917 0.1,7.45C0.3,6.917 0.817,6.467 1.65,6.1C2.483,5.7 3.367,5.483 4.3,5.45" style="fill:none;fill-rule:nonzero;stroke:#000;stroke-opacity:0.3;stroke-width:0.1px;stroke-linecap:round;stroke-linejoin:round;stroke-miterlimit:4;"/>
                    </g>
                </g>
                <g id="shape18">
                    <path d="M2.8,8.7L5.85,1.4C5.417,4.5 5.5,7.117 6.1,9.25L2.8,8.7" style="fill-opacity:0.13;"/>
                    <path d="M6.1,9.25C5.5,7.117 5.417,4.5 5.85,1.4L2.8,8.7L2.45,9.55M6.1,9.25L6.75,10.8" style="fill:none;fill-rule:nonzero;stroke:#000;stroke-opacity:0.3;stroke-width:0.1px;stroke-linecap:round;stroke-linejoin:round;stroke-miterlimit:4;"/>
                </g>
            </g>
            <g id="shape21" serif:id="shape2" transform="matrix(0.4316,-0.1884,0.2589,0.5481,404.4,309.6)">
                <path d="M2.05,0.6C2.417,0.933 2.65,1.333 2.75,1.8C2.883,2.3 2.867,2.7 2.7,3C2.567,3.267 2.3,3.383 1.9,3.35C1.533,3.35 1.167,3.183 0.8,2.85C0.433,2.483 0.183,2.05 0.05,1.55C-0.05,1.083 -0.033,0.717 0.1,0.45C0.267,0.15 0.533,0 0.9,0C1.3,0.033 1.683,0.233 2.05,0.6" style="fill:#ffeeb4;fill-opacity:0.48;"/>
            </g>
            <g id="shape19">
                <path d="M412.75,309.55L413.3,309.55L413.35,309.6L413.4,309.6C413.733,309.767 413.933,310.033 414,310.4L414.05,310.55L414,311.1L413.95,311.25L413.9,311.3L414,310.45C413.933,310.083 413.717,309.817 413.35,309.65L412.75,309.55L413.35,309.65C413.717,309.817 413.933,310.083 414,310.45L413.9,311.3L413.8,311.45L413.7,311.55L413.1,312.2L413.05,312.25L412.7,312.35L413.05,312.25L412.8,312.35L412.7,312.35L412.65,312.4L411.75,312.4L412.65,312.4L412.6,312.4L412.2,312.45L412.05,312.45L411.8,312.4L411.75,312.4L411.55,312.3L410.95,311.55L410.95,311.45L410.9,311.25L410.95,310.9L411,310.85L411.2,310.4C411.467,310.033 411.817,309.783 412.25,309.65L412.5,309.6L412.6,309.55L412.75,309.55M410.95,311.45L411,310.85L410.95,311.45M412.15,314.05C411.917,313.683 411.867,313.383 412,313.15L412.65,312.95L413,312.95L414.6,313.55L414.7,313.6L414.7,313.7L414.4,315.05L413.65,315.3L413.3,315.1L412.15,314.05M412.95,312.95C413.45,313.05 413.983,313.267 414.55,313.6L414.7,313.7L414.55,313.6C413.983,313.267 413.45,313.05 412.95,312.95" style="fill:#cc5100;"/>
                <path d="M412.75,309.55L413.35,309.65C413.717,309.817 413.933,310.083 414,310.45L413.9,311.3L413.75,311.55L413.95,311.25M411.2,310.4L411,310.85L410.95,311.45L410.95,311.55C410.983,311.917 411.167,312.167 411.5,312.3L411.55,312.35L411.75,312.4L412.65,312.4L412.7,312.35L413.05,312.25L413.75,311.55M412.8,312.35L413.05,312.25M412.5,309.6L412.25,309.65L412.2,309.65C411.767,309.783 411.433,310.033 411.2,310.4M411,310.85L410.95,310.9L410.9,311.25L410.95,311.45M411.8,312.4L412.05,312.45L412.2,312.45L412.6,312.4L412.65,312.4M411.55,312.35L411.8,312.4M412.15,314.05L413.3,315.1M414.7,313.7L414.55,313.6C413.983,313.267 413.45,313.05 412.95,312.95L412.65,312.95C412.317,312.917 412.083,312.983 411.95,313.15C411.783,313.383 411.85,313.683 412.15,314.05M412.75,309.55L412.25,309.65" style="fill:none;fill-rule:nonzero;stroke:#000;stroke-opacity:0.3;stroke-width:0.1px;stroke-linecap:round;stroke-linejoin:round;stroke-miterlimit:4;"/>
                <path d="M394,316.95C394.133,316.55 394.483,316.05 395.05,315.45C394.617,314.817 394.55,314.017 394.85,313.05L395.85,312.5L396.5,312.55C397.267,312.75 397.833,313.133 398.2,313.7L398.4,313.85L400.45,314.25L403.35,313.8C404.35,312.967 405.267,312.55 406.1,312.55L407.15,313.1L407.5,313.6C407.567,314.033 407.283,314.633 406.65,315.4C407.017,315.767 407.283,316.25 407.45,316.85L403.35,317.3L403.15,317.1L401.1,316.65L398,317L397.65,317.3L394,316.95" style="fill:#e5dfc8;fill-opacity:0.5;"/>
                <path d="M394,316.95C394.133,316.55 394.483,316.05 395.05,315.45C394.617,314.817 394.55,314.017 394.85,313.05L395.85,312.5L396.5,312.55C397.267,312.75 397.833,313.133 398.2,313.7L398.4,313.85L400.45,314.25L403.35,313.8C404.35,312.967 405.267,312.55 406.1,312.55L407.15,313.1L407.5,313.6C407.567,314.033 407.283,314.633 406.65,315.4C407.017,315.767 407.283,316.25 407.45,316.85M403.35,317.3L403.15,317.1L401.1,316.65L398,317L397.65,317.3" style="fill:none;fill-rule:nonzero;stroke:#000;stroke-opacity:0.3;stroke-width:0.05px;stroke-linecap:round;stroke-linejoin:round;stroke-miterlimit:4;"/>
                <path d="M394.3,316.95L394,316.9L392.35,316.6L391.45,316.4L392,316L392.3,315.85C392.6,315.75 392.9,315.75 393.2,315.85C393.633,315.95 393.95,316.167 394.15,316.5L394.3,316.95" style="fill:#ff8b17;"/>
                <path d="M394.3,316.95L394.15,316.5C393.95,316.167 393.633,315.95 393.2,315.85C392.9,315.75 392.6,315.75 392.3,315.85L392,316L391.95,316C391.75,316.1 391.583,316.233 391.45,316.4M392,316L392.2,315.9L392.25,315.85L392.3,315.85" style="fill:none;fill-rule:nonzero;stroke:#000;stroke-opacity:0.3;stroke-width:0.1px;stroke-linecap:round;stroke-linejoin:round;stroke-miterlimit:4;"/>
            </g>
        </g>
    </g>
</svg>
