<?xml version="1.0" encoding="UTF-8" standalone="no"?>
<!DOCTYPE svg PUBLIC "-//W3C//DTD SVG 1.1//EN" "http://www.w3.org/Graphics/SVG/1.1/DTD/svg11.dtd">
<svg width="100%" height="100%" viewBox="0 0 1184 1716" version="1.1" xmlns="http://www.w3.org/2000/svg" xmlns:xlink="http://www.w3.org/1999/xlink" xml:space="preserve" xmlns:serif="http://www.serif.com/" style="fill-rule:evenodd;clip-rule:evenodd;stroke-linecap:round;stroke-linejoin:round;">
    <g transform="matrix(1,0,0,1,-2726.5,-2928)">
        <g transform="matrix(10,0,0,10,2731.5,2878.5)">
            <g id="sprite0">
                <g id="shape0" transform="matrix(1.2789,0,0,1.2789,66.2,127.55)">
                    <path d="M5.3,-8.8L5.55,-9.1L5.6,-9.05L6.75,-7.05L7.25,-5.85L6.95,-5.75L6.05,-7.7L5.3,-8.8M7.35,-4.45L7.7,-4.55L7.75,-4.4L7.95,-3.4L7.95,-3.3L8.05,-2.7L8.1,-2.5L8.1,-2L7.5,-3.95L7.5,-4.1L7.35,-4.45" style="fill:#824f3e;"/>
                    <path d="M5.6,-9.05L5.55,-9.1L5.6,-9.1L5.55,-9.1L5.6,-9.1L5.6,-9.05M-21.5,-22.7L-21.5,-22.8L-21.45,-22.85L-21.5,-22.7M-13.3,26.35L-13.35,26.4L-13.4,26.4L-13.85,26.65L-13.9,26.65L-13.85,26.6L-13.3,26.3L-13.25,26.3L-13.3,26.35L-13.3,26.3L-13.3,26.35M-13.85,26.75L-14.15,26.9L-13.85,26.75" style="fill:#975b48;"/>
                    <path d="M7.25,-5.85L6.75,-7.05L5.6,-9.05L5.6,-9.1L4.75,-11.25C2.75,-15.783 -0.017,-19 -3.55,-20.9C-4.817,-22.1 -3.733,-22.267 -0.3,-21.4C3.6,-19.6 6.6,-16.333 8.7,-11.6L9.9,-8.25C9.833,-7.75 9.817,-7.2 9.85,-6.6L7.25,-5.85M7.9,-4.6L9.9,-5.1C9.967,-3.933 10.133,-2.633 10.4,-1.2L10.25,-1.15L10.2,-1.2L8.6,-3.7L8.4,-4.05L7.9,-4.6M8.15,-2.45L9.15,-1.45L9.65,-0.85L10.8,1.45L10.8,1.65C10.067,3.35 9.4,4.417 8.8,4.85L8.3,3.9L8.1,5.1C7.633,5.067 7.2,4.683 6.8,3.95L6.8,3.85C7.767,1.917 8.2,-0.033 8.1,-2L8.1,-2.45L8.15,-2.45M-19.3,-21.35L-19.5,-21.25L-19.3,-21.35" style="fill:#fc3;"/>
                    <path d="M5.55,-9.1L5.3,-8.8L4.45,-10.95C2.35,-15.683 -0.467,-18.9 -4,-20.6L-3.55,-20.9C-0.017,-19 2.75,-15.783 4.75,-11.25L5.6,-9.1L5.55,-9.1M7.7,-4.55L7.9,-4.6L8.4,-4.05L8.6,-3.7L10.2,-1.2L10.25,-1.15L10.45,-0.9L10.5,-0.7L10.75,0.55L10.85,0.9L10.85,1.05L10.8,1.35L10.75,1.35L9.65,-0.85L9.15,-1.45L8.1,-2.5L8.05,-2.7L7.95,-3.3L7.95,-3.4L8,-3.5L7.9,-3.65L7.75,-4.4L7.7,-4.55M1.95,15.15C3.983,12.583 5.383,9.35 6.15,5.45L6.5,3.7L6.95,2.8C7.883,0.633 8.067,-1.617 7.5,-3.95L8.1,-2C8.2,-0.033 7.767,1.917 6.8,3.85L6.8,3.9L6.75,4L6.5,5.45C6.133,7.217 5.65,8.85 5.05,10.35C4.517,11.717 3.867,12.967 3.1,14.1L3.1,14.15L2.5,15L3.1,14.15L3.1,14.2L2.5,15L2.45,15.05L1.95,15.15M6.6,12.9L5.45,14.3L5.3,14.45C5.433,14.05 5.867,13.533 6.6,12.9M-13.4,26.4L-13.85,26.75L-13.8,26.7L-13.85,26.65L-13.4,26.4M-15.4,24.25L-15.45,24.25L-15.4,24.2L-15.4,24.25M-14.4,22.45L-14.4,22.4L-14.35,22.45L-14.4,22.45" style="fill:#cc7102;"/>
                    <path d="M14.2,-6.5L14.05,-6.5L12.3,-6.05L12.05,-6L11.45,-5.9L11,-5.7L10.5,-5.55L10.45,-5.55L10.05,-5.45L10,-5.45L9.9,-5.4L8.55,-5.05L8.5,-5.05L7.65,-4.8L7.6,-4.8L7.5,-4.75L7.3,-4.7L3.65,-3.75L2.95,-3.55L1.8,-3.25L1.75,-3.3L1.15,-3.2L1.1,-3.15L-0.65,-2.7L-0.75,-2.7L-2.05,-2.35L-2.15,-2.3L-5.05,-1.6L-5.1,-1.6L-6,-1.35L-7.35,-0.95L-7.95,-0.85L-14.6,0.9L-14.65,0.9L-15.3,1L-15.55,0.9L-16.05,1L-15.2,0.75L-15,0.7L-12.45,0.1L-12.35,0.05L-9.5,-0.65L-9.35,-0.7L-8.05,-1.1L-6.35,-1.55L-6.25,-1.55L-3.7,-2.2L-3.6,-2.25L-1.3,-2.85L0.95,-3.5L4.4,-4.35L5.4,-4.6L7.2,-5.1L7.5,-5.2L9.85,-5.8L11.65,-6.3L12.1,-6.4L13.85,-6.9L13.9,-6.6L14.2,-6.5M-20.7,2.35L-20.75,2.4L-21.4,2.6L-20.7,2.35" style="fill:#b48d50;"/>
                    <path d="M6.95,-5.75L7.25,-5.85L9.85,-6.6L14,-7.85L13.7,-7.55L13.7,-7.45L13.85,-6.9L12.1,-6.4L11.65,-6.3L9.85,-5.8L7.5,-5.2L7.2,-5.1L5.4,-4.6L4.4,-4.35L0.95,-3.5L-1.3,-2.85L-3.6,-2.25L-3.7,-2.2L-6.25,-1.55L-6.35,-1.55L-8.05,-1.1L-9.35,-0.7L-9.5,-0.65L-12.35,0.05L-12.45,0.1L-15,0.7L-15.2,0.75L6.95,-5.75" style="fill:#c4a773;"/>
                    <path d="M-16.05,1L-15.55,0.9L-15.3,1L-14.65,0.9L-14.6,0.9L-7.95,-0.85L-7.35,-0.95L-6,-1.35L-5.1,-1.6L-5.05,-1.6L-2.15,-2.3L-2.05,-2.35L-0.75,-2.7L-0.65,-2.7L1.1,-3.15L1.15,-3.2L1.75,-3.3L1.8,-3.25L2.95,-3.55L3.65,-3.75L7.3,-4.7L7.5,-4.75L7.6,-4.8L7.65,-4.8L8.5,-5.05L8.55,-5.05L9.9,-5.4L10,-5.45L10.05,-5.45L10.45,-5.55L10.5,-5.55L11,-5.7L11.45,-5.9L12.05,-6L12.3,-6.05L14.05,-6.5L14.2,-6.5L14.7,-6.35L10.95,-5.4L10.75,-5.35L10.45,-5.25L10.35,-5.25L9.9,-5.1L7.7,-4.55L7.35,-4.45L-7.5,-0.65L-15.4,1.4L-16.75,1.75L-16.85,1.75L-16.95,1.8L-24.15,3.65L-24.7,3.8L-24.75,3.8L-24.85,3.7L-24.85,3.65L-24.75,3.55L-24.25,3.4L-22,2.75L-21.9,2.7L-21.4,2.6L-20.75,2.4L-20.7,2.35L-19.6,2.05L-16.05,1M-24.7,3.8L-24.8,3.6L-24.7,3.8L-24.8,3.75L-24.7,3.8M-24.85,3.7L-24.8,3.6L-24.85,3.7" style="fill:#8f713f;"/>
                    <path d="M7.9,-3.65L8,-3.5L7.95,-3.4L7.9,-3.65M8.1,-2.5L8.15,-2.45L8.1,-2.45L8.1,-2.5M10.45,-0.9L10.25,-1.15L10.4,-1.2L10.45,-0.9M-14.95,20.5L-14.85,20.45L-14.85,20.5L-14.95,20.5M3.1,14.15L3.1,14.1L3.1,14.2L3.1,14.15" style="fill:#ba856d;"/>
                    <path d="M-18.7,-19.4L-19.15,-19.15L-19.3,-19.1L-20.35,-19.05C-21.25,-19.017 -21.633,-20.217 -21.5,-22.65L-21.3,-22L-21.15,-21.7L-20.6,-21.25L-20.55,-21.25L-20.1,-21.15L-20,-21.15L-19.7,-21.2L-19.6,-21.25C-19.833,-20.55 -19.733,-20.033 -19.3,-19.7L-18.7,-19.4M14.2,-6.5L13.9,-6.6L13.85,-6.9L13.7,-7.45L16.25,-8.6L26.5,-10.4L26.4,-10.05L16.7,-5.8L14.7,-6.35L14.2,-6.5M5.3,14.45C2.533,17.483 -1.033,19.617 -5.4,20.85C-3.967,20.383 -2.567,19.65 -1.2,18.65C0.167,17.617 1.383,16.417 2.45,15.05C1.95,16.45 2.9,16.25 5.3,14.45M-11.5,21.2C-10.667,22.267 -10.55,23.35 -11.15,24.45L-13,26.1L-12.6,25.55L-12.35,24.95C-12.183,24.383 -12.217,23.833 -12.45,23.3C-12.683,22.8 -13.033,22.483 -13.5,22.35L-14.2,22.45L-14.3,22.45L-14.35,22.35C-13.517,21.45 -12.567,21.067 -11.5,21.2M-19.1,-18.6L-19.3,-18.55L-19.3,-18.6L-18.85,-18.8L-18.4,-19.1L-17.95,-19.45L-17.1,-20.05L-14.15,-21.5L-11.25,-22.15C-12.683,-21.65 -14.1,-20.9 -15.5,-19.9L-15.7,-19.75L-15.85,-19.6L-15.95,-19.55L-16.7,-19.15L-16.9,-19.05L-17.6,-18.9L-19.1,-18.6M5.65,11.3C6.017,11.367 6.533,11.133 7.2,10.6L5.4,13.5C5.667,12.767 5.35,12.817 4.45,13.65L5.65,11.3"/>
                    <path d="M14,-7.85L16,-9.6L26.4,-10.5L26.5,-10.4L16.25,-8.6L13.7,-7.45L13.7,-7.55L14,-7.85M8.1,5.1L8.3,3.9L8.8,4.85L8.1,5.1" style="fill:#45138a;"/>
                    <path d="M10.75,1.35L10.8,1.35L10.8,1.45L10.75,1.35" style="fill:#9c614e;"/>
                    <path d="M10.8,1.65L10.45,4.4L10.35,5.1L10.1,6.2L10,6.6L9.8,7.1L9.15,8.65L7.2,10.6C8.733,7.867 9.633,5.533 9.9,3.6C9.467,4.667 9.1,5.083 8.8,4.85C9.4,4.417 10.067,3.35 10.8,1.65M6.8,3.95C7.2,4.683 7.633,5.067 8.1,5.1C7.7,6.7 6.883,8.767 5.65,11.3C5.35,11.2 5.15,10.883 5.05,10.35C5.65,8.85 6.133,7.217 6.5,5.45L6.75,4L6.8,3.95" style="fill:#f8ad01;"/>
                    <path d="M6.8,3.9L6.8,3.95L6.75,4L6.8,3.9" style="fill:#ad715c;"/>
                    <path d="M5.65,11.3C6.883,8.767 7.7,6.7 8.1,5.1L8.8,4.85C9.1,5.083 9.467,4.667 9.9,3.6C9.633,5.533 8.733,7.867 7.2,10.6C6.533,11.133 6.017,11.367 5.65,11.3" style="fill:#311070;"/>
                    <path d="M9.15,8.65C8.417,10.183 7.567,11.6 6.6,12.9C5.867,13.533 5.433,14.05 5.3,14.45C2.9,16.25 1.95,16.45 2.45,15.05L2.5,15L3.1,14.2L3.1,14.1C3.867,12.967 4.517,11.717 5.05,10.35C5.15,10.883 5.35,11.2 5.65,11.3L4.45,13.65C5.35,12.817 5.667,12.767 5.4,13.5L7.2,10.6L9.15,8.65" style="fill:#d28606;"/>
                    <path d="M-3.55,-20.9L-4,-20.6L-5.55,-21.25C-7.517,-21.983 -9.417,-22.283 -11.25,-22.15L-14.15,-21.5L-17.1,-20.05L-17.95,-19.45L-18.4,-19.1L-18.85,-18.8L-19.3,-18.6L-19.7,-18.45L-19.75,-18.45L-21.1,-18.4C-22.067,-18.6 -22.75,-19.15 -23.15,-20.05C-23.583,-20.983 -23.6,-22.017 -23.2,-23.15L-23.2,-23.25C-22.833,-24.35 -22.183,-25.233 -21.25,-25.9C-20.717,-26.333 -20.167,-26.6 -19.6,-26.7L-19.1,-26.75L-18.75,-26.75L-18.45,-26.7L-18.4,-26.7L-18.1,-26.6L-18.05,-26.6L-17.85,-26.55L-17.8,-26.5L-17.8,-26.45L-17.45,-26C-17.217,-25.467 -17.2,-24.8 -17.4,-24C-17.6,-23.233 -17.95,-22.567 -18.45,-22L-18.5,-22L-19.3,-21.35L-19.5,-21.25L-19.6,-21.25L-19.7,-21.2L-20,-21.15L-20.1,-21.15L-20.55,-21.25L-20.6,-21.25L-21.15,-21.7L-21.3,-22L-21.5,-22.65C-21.633,-20.217 -21.25,-19.017 -20.35,-19.05L-19.3,-19.1L-19.15,-19.15L-18.7,-19.4L-17.9,-20L-17.15,-20.5L-16.95,-20.6L-13.9,-22.05C-12.433,-22.55 -10.933,-22.733 -9.4,-22.6L-5.45,-21.75L-3.55,-20.9M-21.5,-22.7L-21.5,-22.65L-21.5,-22.7L-21.45,-22.75L-21.45,-22.85L-21.5,-22.8L-21.5,-22.7M-19.3,-23.25L-19.2,-24.1L-19.2,-24.15L-19.3,-24.45L-19.65,-24.8L-19.95,-24.85C-20.25,-24.883 -20.583,-24.7 -20.95,-24.3L-21.45,-23.25L-21.45,-22.85L-21.45,-23.25L-20.95,-24.3C-20.583,-24.7 -20.25,-24.883 -19.95,-24.85L-19.65,-24.8L-19.3,-24.45L-19.2,-24.15L-19.2,-24.1L-19.3,-23.25M-5.4,20.85L-6.75,21.2L-7.9,21.4L-8.6,21.45L-11.5,21.2C-12.567,21.067 -13.517,21.45 -14.35,22.35L-14.5,22.5L-14.8,22.65C-15.1,22.85 -15.283,23.133 -15.35,23.5L-15.4,24.2L-15.35,23.5C-15.283,23.133 -15.1,22.85 -14.8,22.65L-14.5,22.5L-14.2,22.45L-13.5,22.35C-13.033,22.483 -12.683,22.8 -12.45,23.3C-12.217,23.833 -12.183,24.383 -12.35,24.95L-12.6,25.55L-13,26.1L-13.15,26.25L-13.25,26.3L-13.3,26.3L-13.85,26.6L-13.9,26.65L-13.85,26.65L-13.8,26.7L-13.85,26.75L-14.25,26.95L-16.55,27C-17.25,26.633 -17.683,26.033 -17.85,25.2C-17.983,24.3 -17.8,23.417 -17.3,22.55C-16.833,21.683 -16.2,21.067 -15.4,20.7L-14.95,20.5L-14.85,20.5L-14.25,20.35L-13.6,20.4L-13.45,20.45C-11.817,20.983 -10.2,21.217 -8.6,21.15C-6.733,21.05 -4.9,20.5 -3.1,19.5L-1.4,18.4C-0.133,17.467 0.983,16.383 1.95,15.15L2.45,15.05C1.383,16.417 0.167,17.617 -1.2,18.65C-2.567,19.65 -3.967,20.383 -5.4,20.85M-20.45,-23.15L-20.45,-23.1L-20.45,-23.15M-20.4,-23.25L-20.3,-23.6L-20.4,-23.4L-20.4,-23.25M-15.4,24.25L-15.3,24.55L-14.65,25.15L-13.85,25.05L-13.75,24.95L-13.35,24.5L-13.75,24.95L-13.85,25.05L-14.65,25.15L-15.3,24.55L-15.4,24.25L-15.4,24.2L-15.45,24.25L-15.4,24.25" style="fill:#110e5f;"/>
                    <path d="M-0.3,-21.4C-3.733,-22.267 -4.817,-22.1 -3.55,-20.9L-5.45,-21.75L-9.4,-22.6C-7.033,-23.1 -4.6,-22.95 -2.1,-22.15L-0.3,-21.4M-18,-26.65L-18.05,-26.65L-18.5,-26.8L-17.75,-26.9L-17.7,-26.9L-16.2,-27.25L-15.8,-27.2L-15.2,-26.65C-14.967,-26.117 -14.95,-25.45 -15.15,-24.65C-15.383,-23.85 -15.75,-23.183 -16.25,-22.65L-17.45,-21.85L-19.3,-21.35L-18.5,-22L-18.45,-22C-17.95,-22.567 -17.6,-23.233 -17.4,-24C-17.2,-24.8 -17.217,-25.467 -17.45,-26L-17.8,-26.45L-17.75,-26.5L-17.95,-26.6L-18,-26.65M-3.1,19.5C-4.9,20.5 -6.733,21.05 -8.6,21.15C-10.2,21.217 -11.817,20.983 -13.45,20.45L-13.6,20.4L-14.25,20.35L-14.85,20.5L-14.85,20.45L-12.1,19.4L-12.05,19.4L-11.9,19.35L-11.85,19.3L-10.5,19.15L-10.2,19.2L-3.1,19.5" style="fill:#1a1483;"/>
                    <path d="M-13.15,26.25L-13.25,26.3L-13.3,26.35L-13.25,26.3L-13.15,26.25M-17.85,-26.55L-17.75,-26.5L-17.8,-26.45L-17.8,-26.5L-17.85,-26.55M-20.4,-23.25L-20.4,-23.4L-20.3,-23.6L-20.4,-23.25M-20.45,-23.15L-20.45,-23.1L-20.45,-23.15M-21.45,-22.75L-21.5,-22.7L-21.45,-22.85L-21.45,-22.75" style="fill:#58382b;"/>
                    <path d="M-19.3,-18.55L-19.7,-18.45L-19.3,-18.6L-19.3,-18.55M-14.5,22.5L-14.45,22.45L-14.5,22.5L-14.45,22.45L-14.35,22.45L-14.4,22.4L-14.35,22.35L-14.3,22.45L-14.2,22.45L-14.5,22.5M-14.3,22.45L-14.35,22.45L-14.3,22.45" style="fill:#913a0d;"/>
                    <path d="M-15.2,0.75L-16.05,1L-19.6,2.05L-20.85,1.65L-17.55,0.75L-15.45,0.7L-15.2,0.75" style="fill:#aa9780;"/>
                    <path d="M-24.15,3.65L-16.95,1.8L-16.85,1.75L-16.75,1.75L-15.4,1.4L-19.15,4.15L-22.25,5.55L-24.15,3.65" style="fill:#bdad9b;"/>
                    <path d="M-15.45,0.7L-17.55,0.75L-19.55,0.8L-23.65,1.95L-23.2,0.75L-18.7,-0.25L-15.45,0.7" style="fill:#f2edd5;"/>
                    <path d="M-19.6,2.05L-20.7,2.35L-21.4,2.6L-21.9,2.7L-22,2.75L-24.25,3.4L-24.5,3.45L-24.75,3.3L-26.45,2.7L-24.45,2.15L-23.65,1.95L-19.55,0.8L-17.55,0.75L-20.85,1.65L-19.6,2.05" style="fill:#9d876c;"/>
                    <path d="M5.55,-9.1L5.3,-8.8L6.05,-7.7L6.95,-5.75L7.25,-5.85L9.85,-6.6L14,-7.85M5.55,-9.1L5.6,-9.1L4.75,-11.25C2.75,-15.783 -0.017,-19 -3.55,-20.9L-4,-20.6C-0.467,-18.9 2.35,-15.683 4.45,-10.95L5.3,-8.8M9.85,-6.6C9.817,-7.2 9.833,-7.75 9.9,-8.25L8.7,-11.6C6.6,-16.333 3.6,-19.6 -0.3,-21.4C-3.733,-22.267 -4.817,-22.1 -3.55,-20.9L-5.45,-21.75L-9.4,-22.6C-10.933,-22.733 -12.433,-22.55 -13.9,-22.05L-16.95,-20.6L-17.15,-20.5L-17.9,-20L-18.7,-19.4L-19.15,-19.15L-19.3,-19.1L-20.35,-19.05C-21.25,-19.017 -21.633,-20.217 -21.5,-22.65L-21.5,-22.8L-21.45,-22.85L-21.45,-23.25L-20.95,-24.3C-20.583,-24.7 -20.25,-24.883 -19.95,-24.85L-19.65,-24.8L-19.3,-24.45L-19.2,-24.15L-19.2,-24.1L-19.3,-23.25M-15.2,0.75L-16.05,1L-19.6,2.05L-20.7,2.35L-21.4,2.6L-21.9,2.7M-22,2.75L-24.25,3.4L-24.75,3.55L-24.8,3.6L-24.7,3.8L-24.15,3.65L-16.95,1.8M-16.85,1.75L-16.75,1.75L-15.4,1.4L-7.5,-0.65L7.35,-4.45L7.7,-4.55L9.9,-5.1L10.35,-5.25L10.45,-5.25L10.75,-5.35L10.95,-5.4L14.7,-6.35M10.8,1.35L10.85,1.05L10.85,0.9L10.75,0.55L10.5,-0.7L10.45,-0.9L10.4,-1.2C10.133,-2.633 9.967,-3.933 9.9,-5.1M7.5,-3.95L7.5,-4.1L7.35,-4.45M1.95,15.15C3.983,12.583 5.383,9.35 6.15,5.45L6.5,3.7L6.95,2.8C7.883,0.633 8.067,-1.617 7.5,-3.95L8.1,-2C8.2,-0.033 7.767,1.917 6.8,3.85L6.8,3.9L6.75,4L6.5,5.45C6.133,7.217 5.65,8.85 5.05,10.35C4.517,11.717 3.867,12.967 3.1,14.1L3.1,14.15L2.5,15L2.45,15.05L1.95,15.15C0.983,16.383 -0.133,17.467 -1.4,18.4L-3.1,19.5C-4.9,20.5 -6.733,21.05 -8.6,21.15C-10.2,21.217 -11.817,20.983 -13.45,20.45L-13.6,20.4L-14.25,20.35L-14.85,20.5L-14.95,20.5L-14.85,20.45L-24.7,3.8L-24.75,3.8L-24.85,3.7L-24.85,3.65L-24.75,3.3L-26.45,2.7L-24.45,2.15L-19.1,-18.6L-19.7,-18.45L-19.75,-18.45L-21.1,-18.4C-22.067,-18.6 -22.75,-19.15 -23.15,-20.05C-23.583,-20.983 -23.6,-22.017 -23.2,-23.15L-23.2,-23.25C-22.833,-24.35 -22.183,-25.233 -21.25,-25.9C-20.717,-26.333 -20.167,-26.6 -19.6,-26.7L-18.9,-26.75L-18.4,-26.75L-18,-26.65L-18.05,-26.65M13.7,-7.45L16.25,-8.6L26.5,-10.4M10.8,1.45L10.8,1.65L10.45,4.4L10.35,5.1L10.1,6.2L10,6.6L9.8,7.1L9.15,8.65C8.417,10.183 7.567,11.6 6.6,12.9L5.45,14.3L5.3,14.45C2.533,17.483 -1.033,19.617 -5.4,20.85L-6.75,21.2L-7.9,21.4L-8.6,21.45L-11.5,21.2C-10.667,22.267 -10.55,23.35 -11.15,24.45L-13,26.1L-13.15,26.25L-13.25,26.3L-13.35,26.4L-13.4,26.4L-13.85,26.75L-13.8,26.7L-13.85,26.75L-14.25,26.95L-16.55,27C-17.25,26.633 -17.683,26.033 -17.85,25.2C-17.983,24.3 -17.8,23.417 -17.3,22.55C-16.833,21.683 -16.2,21.067 -15.4,20.7L-14.95,20.5M-18.5,-26.8L-17.75,-26.9L-17.7,-26.9L-16.2,-27.25L-15.8,-27.2L-15.2,-26.65C-14.967,-26.117 -14.95,-25.45 -15.15,-24.65C-15.383,-23.85 -15.75,-23.183 -16.25,-22.65L-17.45,-21.85L-19.3,-21.35L-19.5,-21.25L-19.6,-21.25C-19.833,-20.55 -19.733,-20.033 -19.3,-19.7L-18.7,-19.4M10.8,1.45L10.8,1.35M8.1,5.1L8.3,3.9L8.8,4.85C9.1,5.083 9.467,4.667 9.9,3.6C9.633,5.533 8.733,7.867 7.2,10.6L5.4,13.5C5.667,12.767 5.35,12.817 4.45,13.65L5.65,11.3C6.883,8.767 7.7,6.7 8.1,5.1M2.45,15.05C1.95,16.45 2.9,16.25 5.3,14.45M-19.6,-26.7L-19.1,-26.75L-18.75,-26.75L-18.45,-26.7L-18.4,-26.7L-18.1,-26.6L-18.05,-26.6L-17.85,-26.55L-17.8,-26.5L-17.8,-26.45L-17.75,-26.5L-17.95,-26.6L-18,-26.65M-17.8,-26.45L-17.45,-26C-17.217,-25.467 -17.2,-24.8 -17.4,-24C-17.6,-23.233 -17.95,-22.567 -18.45,-22L-18.5,-22L-19.3,-21.35L-19.5,-21.25M-21.5,-22.7L-21.45,-22.75M-21.45,-22.85L-21.5,-22.7M-21.5,-22.65L-21.3,-22L-21.15,-21.7L-20.6,-21.25L-20.55,-21.25L-20.1,-21.15L-20,-21.15L-19.7,-21.2L-19.6,-21.25M-11.25,-22.15C-9.417,-22.283 -7.517,-21.983 -5.55,-21.25L-4,-20.6M-9.4,-22.6C-7.033,-23.1 -4.6,-22.95 -2.1,-22.15L-0.3,-21.4M-19.3,-18.6L-18.85,-18.8L-18.4,-19.1L-17.95,-19.45L-17.1,-20.05L-14.15,-21.5L-11.25,-22.15C-12.683,-21.65 -14.1,-20.9 -15.5,-19.9L-15.7,-19.75L-15.85,-19.6L-15.95,-19.55L-16.7,-19.15L-16.9,-19.05L-17.6,-18.9L-19.1,-18.6M-19.7,-18.45L-19.3,-18.6M-15.45,0.7L-15.2,0.75L6.95,-5.75M-15.45,0.7L-17.55,0.75L-19.55,0.8L-23.65,1.95L-24.45,2.15M-15.4,1.4L-19.15,4.15L-22.25,5.55L-24.15,3.65M-15.4,24.2L-15.35,23.5C-15.283,23.133 -15.1,22.85 -14.8,22.65L-14.5,22.5L-14.35,22.35C-13.517,21.45 -12.567,21.067 -11.5,21.2M-13.35,24.5L-13.75,24.95L-13.85,25.05L-14.65,25.15L-15.3,24.55L-15.4,24.25L-15.45,24.25L-15.4,24.2L-15.4,24.25M-11.9,19.35L-11.85,19.3L-10.5,19.15L-10.2,19.2L-3.1,19.5M-11.9,19.35L-12.05,19.4M-12.1,19.4L-14.85,20.45M-12.1,19.4L-11.9,19.35M-14.3,22.45L-14.2,22.45L-13.5,22.35C-13.033,22.483 -12.683,22.8 -12.45,23.3C-12.217,23.833 -12.183,24.383 -12.35,24.95L-12.6,25.55L-13,26.1M-14.45,22.45L-14.5,22.5M-14.45,22.45L-14.4,22.45L-14.4,22.4M-14.35,22.45L-14.3,22.45M-14.4,22.45L-14.35,22.45M-5.4,20.85C-3.967,20.383 -2.567,19.65 -1.2,18.65C0.167,17.617 1.383,16.417 2.45,15.05M-23.65,1.95L-23.2,0.75L-18.7,-0.25L-15.45,0.7M-24.75,3.3L-24.5,3.45L-24.25,3.4M-24.8,3.75L-24.7,3.8M-24.8,3.6L-24.85,3.7M-24.8,3.6L-24.85,3.65M-13.25,26.3L-13.15,26.25M-13.3,26.3L-13.3,26.35M-13.3,26.3L-13.25,26.3" style="fill:none;fill-rule:nonzero;stroke:#000;stroke-opacity:0.52;stroke-width:0.05px;"/>
                    <path d="M0.75,-20.15C4.65,-17.617 7.217,-14.267 8.45,-10.1C7.35,-11.4 6.733,-11.283 6.6,-9.75C5.767,-13.55 3.433,-16.95 -0.4,-19.95C0.767,-19.583 1.15,-19.65 0.75,-20.15" style="fill:#1a1483;"/>
                </g>
                <g id="shape1">
                    <path d="M55.7,5.65L63.5,5.45C73.433,5.483 82.183,6.283 89.75,7.85C99.383,9.817 104.25,12.467 104.35,15.8L104.45,16.45L104.2,17.3L91.75,60.85L90.8,63.4L90.9,63.9L89.95,67.9C88.45,70.1 85.517,72.033 81.15,73.7L74.7,75.65C74.367,73.717 73.85,71.817 73.15,69.95C71.05,64.717 73.133,60.333 79.4,56.8C80.2,53.167 77.567,50.25 71.5,48.05C77.067,49.55 80.817,47.533 82.75,42C84.25,37.767 83.117,35.8 79.35,36.1C81.15,35.7 82.433,34.517 83.2,32.55C84.367,29.95 84.85,27.867 84.65,26.3C84.117,23 80.533,21.833 73.9,22.8L77.35,17.05C72.517,12.817 66.983,12.4 60.75,15.8C62.517,13.733 63.417,11.6 63.45,9.4C60.717,8.267 58.133,7.017 55.7,5.65M104.2,17.3C102.933,20.067 98.333,22.583 90.4,24.85L84.65,26.3L90.4,24.85C98.333,22.583 102.933,20.067 104.2,17.3" style="fill:#825a33;"/>
                    <path d="M41.85,6.55L54.65,5.65L55.7,5.65C58.133,7.017 60.717,8.267 63.45,9.4C63.417,11.6 62.517,13.733 60.75,15.8C66.983,12.4 72.517,12.817 77.35,17.05L73.9,22.8C80.533,21.833 84.117,23 84.65,26.3C84.85,27.867 84.367,29.95 83.2,32.55C82.433,34.517 81.15,35.7 79.35,36.1C83.117,35.8 84.25,37.767 82.75,42C80.817,47.533 77.067,49.55 71.5,48.05C77.567,50.25 80.2,53.167 79.4,56.8C73.133,60.333 71.05,64.717 73.15,69.95C73.85,71.817 74.367,73.717 74.7,75.65C69.6,76.917 63.85,77.5 57.45,77.4L55.25,76.95L65.25,29.05L65.4,29.15L41.85,6.55M84.65,26.3C78.85,27.6 72.433,28.55 65.4,29.15C72.433,28.55 78.85,27.6 84.65,26.3" style="fill:#b9874a;"/>
                    <path d="M91.75,60.85C94.583,63.617 96,66.017 96,68.05C96,70.717 94.8,73.15 92.4,75.35C90.533,77.083 87.9,78.683 84.5,80.15L83.85,80.35C76.45,83.417 67.683,85 57.55,85.1L56.9,77.35L57.45,77.4C63.85,77.5 69.6,76.917 74.7,75.65L81.15,73.7C85.517,72.033 88.45,70.1 89.95,67.9C90.517,66.867 90.817,65.75 90.85,64.55L90.95,64.45L90.9,63.9L91.05,63.6L91.75,60.85" style="fill:#9898cc;fill-opacity:0.7;"/>
                    <path d="M27.7,8.65C32.033,7.75 36.75,7.05 41.85,6.55L65.4,29.15L65.25,29.05L53.6,29.65L65.25,29.05L55.25,76.95L57.45,77.4L56.9,77.35L50,77.05C46.067,76.75 42.433,76.167 39.1,75.3L33.85,73.6L32.1,72.85L13.85,25.3C15.917,26.067 18.5,26.767 21.6,27.4L24.9,28.05L33.45,28.8L35.75,43.2L35.75,29L36.8,24.1L35.15,26.4L33.8,24.65C31.567,21.517 29.533,16.183 27.7,8.65M90.8,63.4L91.75,60.85L90.9,63.5L90.8,63.4M53.6,27.15L53.6,29.65C53.5,34.617 53.167,39.4 52.6,44C53.167,39.4 53.5,34.617 53.6,29.65L53.6,27.15M36.7,72.75C34.167,65.75 31.517,56.933 28.75,46.3C26.15,36.233 24.867,30.15 24.9,28.05C24.867,30.15 26.15,36.233 28.75,46.3C31.517,56.933 34.167,65.75 36.7,72.75M35.9,47.4L35.75,43.2L35.9,47.4M50,77.05C50.4,75.183 51.233,71.883 52.5,67.15C54.467,59.75 55.833,55.333 56.6,53.9C55.833,55.333 54.467,59.75 52.5,67.15C51.233,71.883 50.4,75.183 50,77.05M42.6,16.05L36.8,24.1L42.6,16.05M53.6,29.65L35.75,29L53.6,29.65M41.6,38.35L39.1,75.3L41.6,38.35" style="fill:#d2b88c;"/>
                    <path d="M91.75,60.85L91.05,63.6L90.9,63.5L91.75,60.85" style="fill:#990;"/>
                    <path d="M22.35,60.6L7.9,21.9C7.233,21.167 6.867,20.35 6.8,19.45C6.667,16.083 11.383,13.05 20.95,10.35L27.7,8.65C29.533,16.183 31.567,21.517 33.8,24.65L35.15,26.4L33.45,28.8L24.9,28.05L21.6,27.4C18.5,26.767 15.917,26.067 13.85,25.3C11.017,24.3 9.033,23.167 7.9,21.9C9.033,23.167 11.017,24.3 13.85,25.3L32.1,72.85C27.633,70.817 25.05,68.483 24.35,65.85L22.35,60.6" style="fill:#dbc5a4;"/>
                    <path d="M35.15,26.4L36.8,24.1L35.75,29L35.75,43.2L33.45,28.8L35.15,26.4" style="fill:#a57341;"/>
                    <path d="M22.85,76.75C19.117,74.217 17.283,71.25 17.35,67.85C17.217,65.583 18.883,63.167 22.35,60.6L24.35,65.85C25.05,68.483 27.633,70.817 32.1,72.85L33.85,73.6L39.1,75.3C42.433,76.167 46.067,76.75 50,77.05L56.9,77.35L57.55,85.1L56.6,85.15C45.733,85.15 36.483,83.45 28.85,80.05C26.45,79.017 24.45,77.917 22.85,76.75M49.7,78.75L50,77.05L49.7,78.75" style="fill:#9999cb;fill-opacity:0.5;"/>
                    <path d="M84.65,26.3L90.4,24.85C98.333,22.583 102.933,20.067 104.2,17.3M65.25,29.05L65.4,29.15C72.433,28.55 78.85,27.6 84.65,26.3M53.6,29.65L65.25,29.05M33.45,28.8L35.75,43.2L35.75,29L36.8,24.1L35.15,26.4L33.45,28.8L24.9,28.05L21.6,27.4C18.5,26.767 15.917,26.067 13.85,25.3C11.017,24.3 9.033,23.167 7.9,21.9M35.75,43.2L35.9,47.4M39.1,75.3L41.6,38.35M35.75,29L53.6,29.65M36.8,24.1L42.6,16.05" style="fill:none;fill-rule:nonzero;stroke:#003200;stroke-opacity:0.5;stroke-width:0.05px;"/>
                    <path d="M55.7,5.65L63.5,5.45C73.433,5.483 82.183,6.283 89.75,7.85C99.383,9.817 104.25,12.467 104.35,15.8L104.45,16.45L104.2,17.3L91.75,60.85M22.35,60.6L7.9,21.9C7.233,21.167 6.867,20.35 6.8,19.45C6.667,16.083 11.383,13.05 20.95,10.35L27.7,8.65C32.033,7.75 36.75,7.05 41.85,6.55L54.65,5.65L55.7,5.65" style="fill:none;fill-rule:nonzero;stroke:#960;stroke-width:1px;"/>
                    <path d="M74.7,75.65L81.15,73.7C85.517,72.033 88.45,70.1 89.95,67.9C90.517,66.867 90.817,65.75 90.85,64.55L90.95,64.45L90.9,63.9M92.4,75.35C90.533,77.083 87.9,78.683 84.5,80.15L83.85,80.35C76.45,83.417 67.683,85 57.55,85.1L56.6,85.15C45.733,85.15 36.483,83.45 28.85,80.05C26.45,79.017 24.45,77.917 22.85,76.75M57.45,77.4C63.85,77.5 69.6,76.917 74.7,75.65M32.1,72.85C27.633,70.817 25.05,68.483 24.35,65.85M50,77.05C46.067,76.75 42.433,76.167 39.1,75.3L33.85,73.6L32.1,72.85M50,77.05L56.9,77.35L57.45,77.4" style="fill:none;fill-rule:nonzero;stroke:#67afaf;stroke-width:0.05px;"/>
                    <path d="M89.95,67.9L90.9,63.9L91.05,63.6L91.75,60.85M24.35,65.85L22.35,60.6" style="fill:none;fill-rule:nonzero;stroke:#960;stroke-width:0.05px;"/>
                    <path d="M91.75,60.85C94.583,63.617 96,66.017 96,68.05C96,70.717 94.8,73.15 92.4,75.35C95.067,77.15 97.683,79.217 100.25,81.55C111.65,92.25 117.35,105.183 117.35,120.35C117.25,135.45 111.533,148.333 100.2,159C87.9,170.367 74,176.05 58.5,176.05C51.1,176.05 44.133,174.717 37.6,172.05C30.3,169.217 23.5,164.783 17.2,158.75C5.7,148.083 -0.033,135.2 0,120.1C0.033,104.967 5.817,92.067 17.35,81.4C19.05,79.733 20.883,78.183 22.85,76.75C19.117,74.217 17.283,71.25 17.35,67.85C17.217,65.583 18.883,63.167 22.35,60.6" style="fill:none;fill-rule:nonzero;stroke:#67afaf;stroke-width:1px;"/>
                    <path d="M53.6,29.65C53.5,34.617 53.167,39.4 52.6,44M53.6,29.65L53.6,27.15M24.9,28.05C24.867,30.15 26.15,36.233 28.75,46.3C31.517,56.933 34.167,65.75 36.7,72.75M56.6,53.9C55.833,55.333 54.467,59.75 52.5,67.15C51.233,71.883 50.4,75.183 50,77.05L49.7,78.75" style="fill:none;fill-rule:nonzero;stroke:#b9874a;stroke-opacity:0.5;stroke-width:0.05px;"/>
                </g>
                <g id="shape2" transform="matrix(-0.6712,-0.5337,-0.5337,0.6712,100.1,14.25)">
                    <path d="M26.4,22.9C26.233,23.133 25.967,23.283 25.6,23.35C24.567,23.55 22.917,23.067 20.65,21.9C17.55,20.333 14.2,18 10.6,14.9C7,11.833 4.2,8.883 2.2,6.05C0.467,3.65 -0.25,1.95 0.05,0.95L0.15,0.65L0.3,0.5C1.067,-0.4 2.983,-0.067 6.05,1.5C9.15,3.067 12.5,5.4 16.1,8.5C19.7,11.6 22.517,14.55 24.55,17.35C26.55,20.15 27.167,22 26.4,22.9" style="fill:#6d532c;"/>
                    <path d="M26.4,22.9C26.233,23.133 25.967,23.283 25.6,23.35C24.567,23.55 22.917,23.067 20.65,21.9C17.55,20.333 14.2,18 10.6,14.9C7,11.833 4.2,8.883 2.2,6.05C0.467,3.65 -0.25,1.95 0.05,0.95L0.15,0.65L0.3,0.5C1.067,-0.4 2.983,-0.067 6.05,1.5C9.15,3.067 12.5,5.4 16.1,8.5C19.7,11.6 22.517,14.55 24.55,17.35C26.55,20.15 27.167,22 26.4,22.9Z" style="fill:none;fill-rule:nonzero;stroke:#960;stroke-width:0.05px;"/>
                </g>
                <g id="shape21" serif:id="shape2" transform="matrix(-0.3193,-0.2539,-0.2539,0.3193,73.4,23.2)">
                    <path d="M26.4,22.9C26.233,23.133 25.967,23.283 25.6,23.35C24.567,23.55 22.917,23.067 20.65,21.9C17.55,20.333 14.2,18 10.6,14.9C7,11.833 4.2,8.883 2.2,6.05C0.467,3.65 -0.25,1.95 0.05,0.95L0.15,0.65L0.3,0.5C1.067,-0.4 2.983,-0.067 6.05,1.5C9.15,3.067 12.5,5.4 16.1,8.5C19.7,11.6 22.517,14.55 24.55,17.35C26.55,20.15 27.167,22 26.4,22.9" style="fill:#6d532c;"/>
                    <path d="M26.4,22.9C26.233,23.133 25.967,23.283 25.6,23.35C24.567,23.55 22.917,23.067 20.65,21.9C17.55,20.333 14.2,18 10.6,14.9C7,11.833 4.2,8.883 2.2,6.05C0.467,3.65 -0.25,1.95 0.05,0.95L0.15,0.65L0.3,0.5C1.067,-0.4 2.983,-0.067 6.05,1.5C9.15,3.067 12.5,5.4 16.1,8.5C19.7,11.6 22.517,14.55 24.55,17.35C26.55,20.15 27.167,22 26.4,22.9Z" style="fill:none;fill-rule:nonzero;stroke:#960;stroke-width:0.05px;"/>
                </g>
                <g id="shape22" serif:id="shape2" transform="matrix(-0.2665,-0.2119,-0.2119,0.2665,30.2,19.7)">
                    <path d="M26.4,22.9C26.233,23.133 25.967,23.283 25.6,23.35C24.567,23.55 22.917,23.067 20.65,21.9C17.55,20.333 14.2,18 10.6,14.9C7,11.833 4.2,8.883 2.2,6.05C0.467,3.65 -0.25,1.95 0.05,0.95L0.15,0.65L0.3,0.5C1.067,-0.4 2.983,-0.067 6.05,1.5C9.15,3.067 12.5,5.4 16.1,8.5C19.7,11.6 22.517,14.55 24.55,17.35C26.55,20.15 27.167,22 26.4,22.9" style="fill:#6d532c;"/>
                    <path d="M26.4,22.9C26.233,23.133 25.967,23.283 25.6,23.35C24.567,23.55 22.917,23.067 20.65,21.9C17.55,20.333 14.2,18 10.6,14.9C7,11.833 4.2,8.883 2.2,6.05C0.467,3.65 -0.25,1.95 0.05,0.95L0.15,0.65L0.3,0.5C1.067,-0.4 2.983,-0.067 6.05,1.5C9.15,3.067 12.5,5.4 16.1,8.5C19.7,11.6 22.517,14.55 24.55,17.35C26.55,20.15 27.167,22 26.4,22.9Z" style="fill:none;fill-rule:nonzero;stroke:#960;stroke-width:0.05px;"/>
                </g>
                <g id="shape23" serif:id="shape2" transform="matrix(-0.3193,-0.2539,-0.2539,0.3193,74.15,9.85)">
                    <path d="M26.4,22.9C26.233,23.133 25.967,23.283 25.6,23.35C24.567,23.55 22.917,23.067 20.65,21.9C17.55,20.333 14.2,18 10.6,14.9C7,11.833 4.2,8.883 2.2,6.05C0.467,3.65 -0.25,1.95 0.05,0.95L0.15,0.65L0.3,0.5C1.067,-0.4 2.983,-0.067 6.05,1.5C9.15,3.067 12.5,5.4 16.1,8.5C19.7,11.6 22.517,14.55 24.55,17.35C26.55,20.15 27.167,22 26.4,22.9" style="fill:#6d532c;"/>
                    <path d="M26.4,22.9C26.233,23.133 25.967,23.283 25.6,23.35C24.567,23.55 22.917,23.067 20.65,21.9C17.55,20.333 14.2,18 10.6,14.9C7,11.833 4.2,8.883 2.2,6.05C0.467,3.65 -0.25,1.95 0.05,0.95L0.15,0.65L0.3,0.5C1.067,-0.4 2.983,-0.067 6.05,1.5C9.15,3.067 12.5,5.4 16.1,8.5C19.7,11.6 22.517,14.55 24.55,17.35C26.55,20.15 27.167,22 26.4,22.9Z" style="fill:none;fill-rule:nonzero;stroke:#960;stroke-width:0.05px;"/>
                </g>
                <g id="shape24" serif:id="shape2" transform="matrix(-0.5619,-0.4467,-0.4467,0.5619,57.2,13.4)">
                    <path d="M26.4,22.9C26.233,23.133 25.967,23.283 25.6,23.35C24.567,23.55 22.917,23.067 20.65,21.9C17.55,20.333 14.2,18 10.6,14.9C7,11.833 4.2,8.883 2.2,6.05C0.467,3.65 -0.25,1.95 0.05,0.95L0.15,0.65L0.3,0.5C1.067,-0.4 2.983,-0.067 6.05,1.5C9.15,3.067 12.5,5.4 16.1,8.5C19.7,11.6 22.517,14.55 24.55,17.35C26.55,20.15 27.167,22 26.4,22.9" style="fill:#6d532c;"/>
                    <path d="M26.4,22.9C26.233,23.133 25.967,23.283 25.6,23.35C24.567,23.55 22.917,23.067 20.65,21.9C17.55,20.333 14.2,18 10.6,14.9C7,11.833 4.2,8.883 2.2,6.05C0.467,3.65 -0.25,1.95 0.05,0.95L0.15,0.65L0.3,0.5C1.067,-0.4 2.983,-0.067 6.05,1.5C9.15,3.067 12.5,5.4 16.1,8.5C19.7,11.6 22.517,14.55 24.55,17.35C26.55,20.15 27.167,22 26.4,22.9Z" style="fill:none;fill-rule:nonzero;stroke:#960;stroke-width:0.05px;"/>
                </g>
                <g id="shape3">
                    <path d="M22.9,76.6C24.5,77.733 26.5,78.8 28.9,79.8C36.533,83.2 45.783,84.917 56.65,84.95L57.6,84.9L57.8,86.1L77.8,118.8L76.75,154.6L62.55,168.5L37.65,171.85C30.317,169.017 23.517,164.583 17.25,158.55C5.75,147.917 0.017,135.017 0.05,119.85C0.083,104.717 5.883,91.817 17.45,81.15C19.117,79.483 20.933,77.967 22.9,76.6" style="fill:#9999cb;fill-opacity:0.5;"/>
                    <path d="M92.4,75.35C95.067,77.15 97.683,79.217 100.25,81.55C111.65,92.25 117.35,105.183 117.35,120.35C117.25,135.45 111.533,148.333 100.2,159C87.9,170.367 74,176.05 58.5,176.05C51.1,176.05 44.133,174.717 37.6,172.05L62.5,168.75L76.7,154.8L77.75,119.05L57.75,86.25L57.55,85.1C67.683,85 76.45,83.417 83.85,80.35L84.5,80.15C87.9,78.683 90.533,77.083 92.4,75.35" style="fill:#9898cc;fill-opacity:0.7;"/>
                    <path d="M95.3,78.9C98.033,81.7 100.55,84.783 102.85,88.15C114.917,105.917 116.05,124.4 106.25,143.6C101.483,118.633 87.35,101.017 63.85,90.75L63.25,89.4L63.6,87.85L67.25,88.6L68.35,87.05L95.3,78.9M93.9,66.25C91.5,73.25 86.717,77.783 79.55,79.85C74.383,81.35 69.217,81.283 64.05,79.65C62.117,78.983 60.517,77.867 59.25,76.3L59.5,76.2C70.333,76.1 80.483,73.533 89.95,68.5L93.9,66.25M36,164L35.4,161.75C52.433,162.883 69.267,161.217 85.9,156.75C88.833,150.15 93.083,144.417 98.65,139.55L98.85,141.55C96.883,150.817 91.967,157.883 84.1,162.75C68.1,172.55 52.067,172.967 36,164" style="fill:#404280;fill-opacity:0.7;"/>
                    <path d="M11.85,99.2L16.7,102.55C16.233,120.35 19.283,137.45 25.85,153.85L23,152.3C2.567,137.133 -1.15,119.433 11.85,99.2M29.15,75.75C29.083,75.317 29.117,74.85 29.25,74.35L29.5,74.2C36.3,76.033 43.35,76.983 50.65,77.05L51.1,77.75C51.5,78.55 51.5,79.217 51.1,79.75C43.9,82.55 36.717,81.667 29.55,77.1C29.283,76.667 29.15,76.217 29.15,75.75M12,90.1L15.2,85.45C22.533,81.683 29.467,81.967 36,86.3C36.467,87.7 36.3,89.033 35.5,90.3C26.267,103.133 18.433,103.067 12,90.1M26.85,71.35C26.817,72.05 26.517,72.617 25.95,73.05C23.217,73.65 21.05,72.45 19.45,69.45C19.25,68.717 19.283,68.017 19.55,67.35C19.55,66.983 19.683,66.6 19.95,66.2L20.6,66.1C22.5,66.167 24.233,67.05 25.8,68.75C26.3,69.383 26.65,70.25 26.85,71.35" style="fill:#f2f2f9;fill-opacity:0.7;"/>
                </g>
            </g>
        </g>
    </g>
</svg>
