<?xml version="1.0" encoding="UTF-8" standalone="no"?>
<!DOCTYPE svg PUBLIC "-//W3C//DTD SVG 1.1//EN" "http://www.w3.org/Graphics/SVG/1.1/DTD/svg11.dtd">
<svg width="100%" height="100%" viewBox="0 0 156 215" version="1.1" xmlns="http://www.w3.org/2000/svg" xmlns:xlink="http://www.w3.org/1999/xlink" xml:space="preserve" xmlns:serif="http://www.serif.com/" style="fill-rule:evenodd;clip-rule:evenodd;stroke-linecap:round;stroke-linejoin:round;">
    <g transform="matrix(1,0,0,1,-68.45,-59.45)">
        <g transform="matrix(1,0,0,1,68.7,59.7)">
            <g id="sprite0">
                <g id="sprite1" transform="matrix(1,0,0,1,77.3,107.15)">
                    <g id="shape0">
                        <path d="M72.85,-83.7L77.3,-33.45L77.3,107.2L63.45,105.45L66.65,93.3L43.8,98.35L43.8,93.85L19.75,99.95L-77.3,87.7L-73.95,77.05L-65.2,-80.35L-56.35,-104.35L-47.25,-104.35L-52,-65.3L-41.5,-107.15L-20.95,-104.35L-20.95,-74.2L-14.05,-104.35L67.25,-104.35L67.25,-74.75L72.85,-83.7M0.55,51.45L-59.05,44.5L-55.55,73.75L43.8,73.75L43.8,56.45L0.55,51.45M-3.1,78.75L-4.75,88.25L31.5,88.25L36,78.75L-3.1,78.75" style="fill:#c5d9d7;"/>
                        <path d="M-31.9,73.75L-55.55,73.75L-59.05,44.5L0.55,51.45C-9.617,59.817 -20.433,67.25 -31.9,73.75" style="fill:#b9cfcc;"/>
                        <path d="M0.55,51.45L43.8,56.45L43.8,73.75L-31.9,73.75C-20.433,67.25 -9.617,59.817 0.55,51.45M-3.1,78.75L36,78.75L31.5,88.25L-4.75,88.25L-3.1,78.75" style="fill:#a6bbac;"/>
                        <path d="M72.85,-83.7L77.3,-33.45L77.3,107.2L63.45,105.45L66.65,93.3L43.8,98.35L43.8,93.85L19.75,99.95L-77.3,87.7L-73.95,77.05L-65.2,-80.35L-56.35,-104.35L-47.25,-104.35L-52,-65.3L-41.5,-107.15L-20.95,-104.35L-20.95,-74.2L-14.05,-104.35L67.25,-104.35L67.25,-74.75L72.85,-83.7Z" style="fill:none;fill-rule:nonzero;stroke:#656f53;stroke-opacity:0.5;stroke-width:0.5px;"/>
                        <path d="M67.25,-74.75L72.85,-83.7L77.3,-33.45L77.3,107.2L63.45,105.45L66.65,93.3L43.8,98.35L43.8,93.85L19.75,99.95L-65,89.25C-53.433,84.85 -42.4,79.683 -31.9,73.75L43.8,73.75L43.8,56.45L0.55,51.45C8.45,44.917 15.967,37.833 23.1,30.2C38.467,-15.3 48.7,-60.15 53.8,-104.35L67.25,-104.35L67.25,-74.75M-3.1,78.75L-4.75,88.25L31.5,88.25L36,78.75L-3.1,78.75" style="fill:#656f53;fill-opacity:0.22;"/>
                    </g>
                </g>
                <g id="shape1">
                    <path d="M85.55,84.95L84.85,84.05C84.217,83.05 83.9,81.85 83.9,80.45C83.9,79.017 84.217,77.783 84.85,76.75C85.45,75.817 86.15,75.333 86.95,75.3L87.1,75.3C87.967,75.3 88.717,75.783 89.35,76.75C89.983,77.783 90.3,79.017 90.3,80.45C90.3,81.85 89.983,83.05 89.35,84.05C88.717,85.05 87.967,85.55 87.1,85.55C86.533,85.55 86.017,85.35 85.55,84.95M62.55,74.95C62.917,75.083 63.233,75.433 63.5,76C63.933,76.8 64.15,77.767 64.15,78.9C64.15,80.033 63.933,81 63.5,81.8C63.1,82.6 62.583,83 61.95,83C61.617,83 61.317,82.883 61.05,82.65L60.4,81.8C60,81 59.8,80.033 59.8,78.9C59.8,77.767 60,76.8 60.4,76C60.833,75.167 61.35,74.75 61.95,74.75L62.55,74.95" style="fill:#846846;"/>
                    <path d="M59.8,150.7C58.533,152.033 57.55,152.033 56.85,150.7L53.9,140.95L57.45,140.55L59.8,150.7M18.3,136.95C18.133,136.517 18.283,135.967 18.75,135.3L26.05,129.55C26.183,131.083 26.417,132.6 26.75,134.1L18.3,136.95M49.15,86C47.483,83.933 46.3,81.35 45.6,78.25C44.633,73.883 44.933,69.85 46.5,66.15C47.833,62.817 49.783,60.583 52.35,59.45L53.5,59L56,58.6L56.2,58.6C61,64.367 63.117,69.817 62.55,74.95L61.95,74.75C61.35,74.75 60.833,75.167 60.4,76C60,76.8 59.8,77.767 59.8,78.9C59.8,80.033 60,81 60.4,81.8L61.05,82.65C58.65,86.75 54.683,87.867 49.15,86M85.7,54.35L86.45,56.45C88.117,61.683 88.283,67.967 86.95,75.3C86.15,75.333 85.45,75.817 84.85,76.75C84.217,77.783 83.9,79.017 83.9,80.45C83.9,81.85 84.217,83.05 84.85,84.05L85.55,84.95C82.05,91.617 76.95,95.217 70.25,95.75C69.05,94.483 67.933,92.9 66.9,91C67.1,91.033 67.05,90.567 66.75,89.6C66.35,88.567 66.05,87.483 65.85,86.35C64.983,82.117 65.167,77.55 66.4,72.65L67.7,68.7C68.7,66.033 69.983,63.667 71.55,61.6C72.517,60.333 73.583,59.2 74.75,58.2C75.483,57.533 76.233,56.95 77,56.45C79.867,54.517 82.767,53.817 85.7,54.35" style="fill:#ede6dc;"/>
                    <path d="M61.8,140.25L59.8,150.7L57.45,140.55L61.8,140.25M27.45,137.3L20.45,137.9L20.05,137.85C19.083,137.65 18.5,137.35 18.3,136.95L26.75,134.1L27.45,137.3M50.6,87.6L49.15,86C54.683,87.867 58.65,86.75 61.05,82.65C61.317,82.883 61.617,83 61.95,83C62.583,83 63.1,82.6 63.5,81.8C63.933,81 64.15,80.033 64.15,78.9C64.15,77.767 63.933,76.8 63.5,76C63.233,75.433 62.917,75.083 62.55,74.95C63.117,69.817 61,64.367 56.2,58.6L57.7,58.7C59.333,58.967 60.95,59.767 62.55,61.1C64.883,63 66.6,65.533 67.7,68.7L66.4,72.65C65.167,77.55 64.983,82.117 65.85,86.35C64.45,88.35 62.667,89.683 60.5,90.35L55.7,90.55C54.8,90.35 53.917,89.983 53.05,89.45L51.45,88.3L50.6,87.6M86.95,75.3C88.283,67.967 88.117,61.683 86.45,56.45L85.7,54.35L86.9,54.55C88,54.883 89.017,55.35 89.95,55.95L90.65,56.45C91.95,57.45 93.083,58.783 94.05,60.45L95.6,64.05C97.433,69.217 97.55,74.867 95.95,81C94.717,85.867 92.717,89.917 89.95,93.15L87.6,95.5C85.167,97.667 82.717,98.967 80.25,99.4L75.5,99.1C73.633,98.6 71.883,97.483 70.25,95.75C76.95,95.217 82.05,91.617 85.55,84.95C86.017,85.35 86.533,85.55 87.1,85.55C87.967,85.55 88.717,85.05 89.35,84.05C89.983,83.05 90.3,81.85 90.3,80.45C90.3,79.017 89.983,77.783 89.35,76.75C88.717,75.783 87.967,75.3 87.1,75.3L86.95,75.3" style="fill:#dbccb9;"/>
                    <path d="M82.05,32.85C91.55,30.283 97.983,30.85 101.35,34.55C98.15,37.317 96.083,42.05 95.15,48.75C95.45,51.783 94.65,54.25 92.75,56.15L90.05,52.5C82.217,49.3 75.483,50.617 69.85,56.45L67.6,59.05C65.767,57.95 64.183,57.083 62.85,56.45C59.217,54.717 57.35,54.717 57.25,56.45C57.217,57.017 57.367,57.767 57.7,58.7L56.2,58.6L56,58.6L53.5,59L52.35,59.45C52.25,58.35 52.3,57.35 52.5,56.45C53.1,53.45 55.2,51.633 58.8,51C61.767,51.533 64.3,53.067 66.4,55.6C73.7,49.067 77.767,43.867 78.6,40C79.733,37.033 80.883,34.65 82.05,32.85M101.5,106.35L98.1,107.1C89.5,106.333 83,107.217 78.6,109.75C75.467,111.517 73.383,114.117 72.35,117.55C72.117,115.083 71.75,112.967 71.25,111.2C69.183,104.233 64.8,102.8 58.1,106.9C41.867,117.2 35.6,116.383 39.3,104.45C43.1,99.183 46.883,95.35 50.65,92.95C48.883,90.55 48.867,88.767 50.6,87.6L51.45,88.3L53.05,89.45C53.883,91.583 56.05,93.05 59.55,93.85C62.85,93.55 65.3,92.6 66.9,91C67.933,92.9 69.05,94.483 70.25,95.75C71.883,97.483 73.633,98.6 75.5,99.1L80.25,99.4C88.283,100.433 93.333,98.233 95.4,92.8C101.833,94.633 105.65,96.767 106.85,99.2C106.883,102.2 105.1,104.583 101.5,106.35M101.95,110.7L104.05,112.95C103.55,118.617 102.05,123.917 99.55,128.85L96.85,121C99.717,117.867 101.417,114.433 101.95,110.7M108.4,118.75L110.55,122.25C118.15,121.05 122.933,117.633 124.9,112L127.2,132.75L122.7,134.35L122.75,133.9C122.883,130.267 121.9,126.4 119.8,122.3C120.6,127.267 120.183,131.65 118.55,135.45C109.983,136.983 103.95,135.417 100.45,130.75C104.217,127.517 106.867,123.517 108.4,118.75M111.95,126.65L110.55,122.25L111.95,126.65" style="fill:#d8a4d8;"/>
                    <path d="M101.35,34.55L101.4,34.55C101.633,42.017 102.65,49.317 104.45,56.45C106.017,62.783 108.217,68.983 111.05,75.05C107.817,77.917 107.567,80.483 110.3,82.75L104.95,90.4C109.183,93.267 112.267,96.45 114.2,99.95C111.033,102.75 106.8,104.883 101.5,106.35C105.1,104.583 106.883,102.2 106.85,99.2C105.65,96.767 101.833,94.633 95.4,92.8C93.333,98.233 88.283,100.433 80.25,99.4C82.717,98.967 85.167,97.667 87.6,95.5L89.95,93.15C92.717,89.917 94.717,85.867 95.95,81C97.55,74.867 97.433,69.217 95.6,64.05L94.05,60.45C93.083,58.783 91.95,57.45 90.65,56.45L89.95,55.95C89.017,55.35 88,54.883 86.9,54.55L85.7,54.35C82.767,53.817 79.867,54.517 77,56.45C76.233,56.95 75.483,57.533 74.75,58.2C73.583,59.2 72.517,60.333 71.55,61.6C69.983,63.667 68.7,66.033 67.7,68.7C66.6,65.533 64.883,63 62.55,61.1C60.95,59.767 59.333,58.967 57.7,58.7C57.367,57.767 57.217,57.017 57.25,56.45C57.35,54.717 59.217,54.717 62.85,56.45C64.183,57.083 65.767,57.95 67.6,59.05L69.85,56.45C75.483,50.617 82.217,49.3 90.05,52.5L92.75,56.15C94.65,54.25 95.45,51.783 95.15,48.75C96.083,42.05 98.15,37.317 101.35,34.55M98.1,107.1L101.95,110.7C101.417,114.433 99.717,117.867 96.85,121L99.55,128.85L96.9,133.25L100.45,130.75C103.95,135.417 109.983,136.983 118.55,135.45C117.45,137.883 115.85,140.083 113.75,142.05C108.383,142.517 102.333,142 95.6,140.5C95.067,133.633 89.4,123.383 78.6,109.75C83,107.217 89.5,106.333 98.1,107.1M127.2,132.75L127.75,137.45C125.717,138.783 123.5,139.817 121.1,140.55C122.033,138.55 122.567,136.483 122.7,134.35L127.2,132.75M65.85,86.35C66.05,87.483 66.35,88.567 66.75,89.6C67.05,90.567 67.1,91.033 66.9,91C65.3,92.6 62.85,93.55 59.55,93.85C56.05,93.05 53.883,91.583 53.05,89.45C53.917,89.983 54.8,90.35 55.7,90.55L60.5,90.35C62.667,89.683 64.45,88.35 65.85,86.35" style="fill:#a070a0;"/>
                    <path d="M82.05,32.85C83.683,30.15 85.3,28.867 86.9,29C105.1,26.833 119.417,29.3 129.85,36.4L130.1,37.8L119.55,33.6C111.583,30.7 105.533,31.017 101.4,34.55L101.35,34.55C97.983,30.85 91.55,30.283 82.05,32.85M104.05,112.95L108.4,118.75C106.867,123.517 104.217,127.517 100.45,130.75L99.55,128.85C102.05,123.917 103.55,118.617 104.05,112.95M34.75,144.8C32.317,145.2 30.567,144.683 29.5,143.25C28.667,141.25 27.983,139.267 27.45,137.3L26.75,134.1C26.417,132.6 26.183,131.083 26.05,129.55C25.517,122.817 26.667,116.2 29.5,109.7C31.6,107.633 33.7,107.633 35.8,109.7L39.3,104.45C35.6,116.383 41.867,117.2 58.1,106.9C64.8,102.8 69.183,104.233 71.25,111.2C69.05,108.233 66.283,106.8 62.95,106.9C66.05,116.333 63.283,123.667 54.65,128.9C38.05,134.467 31.417,139.767 34.75,144.8M48.7,126.65C55,122.117 58.6,117.917 59.5,114.05C58.4,112.683 56.883,112.683 54.95,114.05L53.45,115.35L54.95,114.05C54.283,119.083 52.2,123.283 48.7,126.65L46.85,127.85L48.7,126.65M31.15,111.95L30.45,110.2L31.15,111.95C28.45,114.983 28.583,119.1 31.55,124.3C32.617,119.833 32.483,115.717 31.15,111.95M31.2,125.6L31.55,124.3L31.2,125.6M118.55,135.45C120.183,131.65 120.6,127.267 119.8,122.3C121.9,126.4 122.883,130.267 122.75,133.9L122.7,134.35L118.55,135.45" style="fill:#898066;"/>
                    <path d="M101.4,34.55C105.533,31.017 111.583,30.7 119.55,33.6L130.1,37.8L133.25,54.85L128.85,58.25C122.85,63.05 116.917,68.65 111.05,75.05C108.217,68.983 106.017,62.783 104.45,56.45C102.65,49.317 101.633,42.017 101.4,34.55M121.1,140.55C118.833,141.283 116.383,141.783 113.75,142.05C115.85,140.083 117.45,137.883 118.55,135.45L122.7,134.35C122.567,136.483 122.033,138.55 121.1,140.55M72.35,117.55C71.983,118.783 71.75,120.117 71.65,121.55L71.3,124.8C70.767,128.6 69.817,132.433 68.45,136.3L66.9,140.2L61.8,140.25L57.45,140.55L53.9,140.95C48,141.683 41.967,142.883 35.8,144.55L34.75,144.8C31.417,139.767 38.05,134.467 54.65,128.9C63.283,123.667 66.05,116.333 62.95,106.9C66.283,106.8 69.05,108.233 71.25,111.2C71.75,112.967 72.117,115.083 72.35,117.55M54.95,114.05C56.883,112.683 58.4,112.683 59.5,114.05C58.6,117.917 55,122.117 48.7,126.65C52.2,123.283 54.283,119.083 54.95,114.05M31.15,111.95C32.483,115.717 32.617,119.833 31.55,124.3C28.583,119.1 28.45,114.983 31.15,111.95M99.55,128.85L100.45,130.75L96.9,133.25L99.55,128.85" style="fill:#200000;"/>
                    <path d="M130.1,37.8L129.85,36.4C119.417,29.3 105.1,26.833 86.9,29C85.3,28.867 83.683,30.15 82.05,32.85C80.883,34.65 79.733,37.033 78.6,40C77.767,43.867 73.7,49.067 66.4,55.6C64.3,53.067 61.767,51.533 58.8,51C55.2,51.633 53.1,53.45 52.5,56.45C52.3,57.35 52.25,58.35 52.35,59.45L53.5,59L56,58.6L56.2,58.6L57.7,58.7C59.333,58.967 60.95,59.767 62.55,61.1C64.883,63 66.6,65.533 67.7,68.7L66.4,72.65C65.167,77.55 64.983,82.117 65.85,86.35C66.05,87.483 66.35,88.567 66.75,89.6C67.05,90.567 67.1,91.033 66.9,91C67.933,92.9 69.05,94.483 70.25,95.75C71.883,97.483 73.633,98.6 75.5,99.1L80.25,99.4C82.717,98.967 85.167,97.667 87.6,95.5L89.95,93.15C92.717,89.917 94.717,85.867 95.95,81C97.55,74.867 97.433,69.217 95.6,64.05L94.05,60.45C93.083,58.783 91.95,57.45 90.65,56.45L89.95,55.95C89.017,55.35 88,54.883 86.9,54.55L85.7,54.35C82.767,53.817 79.867,54.517 77,56.45C76.233,56.95 75.483,57.533 74.75,58.2C73.583,59.2 72.517,60.333 71.55,61.6C69.983,63.667 68.7,66.033 67.7,68.7M101.35,34.55L101.4,34.55C105.533,31.017 111.583,30.7 119.55,33.6M130.1,37.8L133.25,54.85L128.85,58.25C122.85,63.05 116.917,68.65 111.05,75.05C107.817,77.917 107.567,80.483 110.3,82.75L104.95,90.4C109.183,93.267 112.267,96.45 114.2,99.95C111.033,102.75 106.8,104.883 101.5,106.35L98.1,107.1L101.95,110.7L104.05,112.95L108.4,118.75L110.55,122.25C118.15,121.05 122.933,117.633 124.9,112M127.75,137.45C125.717,138.783 123.5,139.817 121.1,140.55C118.833,141.283 116.383,141.783 113.75,142.05C108.383,142.517 102.333,142 95.6,140.5C95.067,133.633 89.4,123.383 78.6,109.75C75.467,111.517 73.383,114.117 72.35,117.55C71.983,118.783 71.75,120.117 71.65,121.55L71.3,124.8C70.767,128.6 69.817,132.433 68.45,136.3L66.9,140.2L61.8,140.25L59.8,150.7C58.533,152.033 57.55,152.033 56.85,150.7L53.9,140.95C48,141.683 41.967,142.883 35.8,144.55L34.75,144.8C32.317,145.2 30.567,144.683 29.5,143.25C28.667,141.25 27.983,139.267 27.45,137.3L20.45,137.9L20.05,137.85C19.083,137.65 18.5,137.35 18.3,136.95C18.133,136.517 18.283,135.967 18.75,135.3L26.05,129.55C25.517,122.817 26.667,116.2 29.5,109.7C31.6,107.633 33.7,107.633 35.8,109.7L39.3,104.45C43.1,99.183 46.883,95.35 50.65,92.95C48.883,90.55 48.867,88.767 50.6,87.6L49.15,86C47.483,83.933 46.3,81.35 45.6,78.25C44.633,73.883 44.933,69.85 46.5,66.15C47.833,62.817 49.783,60.583 52.35,59.45M95.15,48.75C96.083,42.05 98.15,37.317 101.35,34.55M50.6,87.6L51.45,88.3L53.05,89.45C53.917,89.983 54.8,90.35 55.7,90.55L60.5,90.35C62.667,89.683 64.45,88.35 65.85,86.35M54.95,114.05C56.883,112.683 58.4,112.683 59.5,114.05C58.6,117.917 55,122.117 48.7,126.65L46.85,127.85M53.45,115.35L54.95,114.05M53.9,140.95L57.45,140.55L61.8,140.25M30.45,110.2L31.15,111.95C32.483,115.717 32.617,119.833 31.55,124.3L31.2,125.6M26.75,134.1L27.45,137.3M26.05,129.55C26.183,131.083 26.417,132.6 26.75,134.1M110.55,122.25L111.95,126.65M78.6,109.75C83,107.217 89.5,106.333 98.1,107.1" style="fill:none;fill-rule:nonzero;stroke:#786836;stroke-width:0.5px;"/>
                </g>
            </g>
        </g>
    </g>
</svg>
