<?xml version="1.0" encoding="UTF-8"?>
<svg version="1.1" viewBox="0 0 169.1 211.15" xmlns="http://www.w3.org/2000/svg" xmlns:cc="http://creativecommons.org/ns#" xmlns:dc="http://purl.org/dc/elements/1.1/" xmlns:rdf="http://www.w3.org/1999/02/22-rdf-syntax-ns#" xmlns:xlink="http://www.w3.org/1999/xlink">
<metadata>
<rdf:RDF>
<cc:Work rdf:about="">
<dc:format>image/svg+xml</dc:format>
<dc:type rdf:resource="http://purl.org/dc/dcmitype/StillImage"/>
</cc:Work>
</rdf:RDF>
</metadata>
<g transform="translate(-171.78 -55.575)">
<use transform="translate(171.8,55.6)" width="169.05" height="211.10001" xlink:href="#a"/>
</g>
<defs>
<g id="a" transform="translate(-171.8,-55.6)">
<path d="m249.3 241.35-5.8 2.85-6.45-1.85-6.45-1.9-8.15-7.85-1.1-3.5-6.05-18.75v-12.1l6.15-4.2h19.3v13.1l6.2-13.6 3.7 5.7 2.75 20.5-3.75 12.1-4.1 5.1-0.1 0.1 3.85 4.3m-65.6-95.95-6.7-9.2-3.95-10.4 26.1-11.25 3.05 5.35h-8.15l8.15 10.6h-11.35l3.5 6.55 1.4 2.6h-4.9v3.7h-5.2l-0.2 0.25-1.75 1.8m83.75-51q9.45-8.8 24.75-7.15l9.4 8 3.9 3.35 10.4 24.25v14.85l-13.6 11.1-10.1 1.25-5.7-8.65-8.4-9.15h-8.05l3.5-3.6 16.05-12.5 2.2-6.05-13.95 5.2-10.15 7.9v-2.35l9.15-14.3h-4.7l13.35-7.7 5.45-4.95h-11.6l-11.9 6.6v-6.1m-33.35 118.9-1.5-1.5q-0.85-0.3-0.8 2 0.05 5.9 3.85 9.7l-4.5-4.3v6.2l-2 0.25-1.05-1.35q-3.8-6.35-5.15-12.75-1.35 13.05 6.7 21 0-0.65 0.15-1.25l0.7-1.9q0.35-0.9 0.15-2.05 1.7 0.65 2.7 2.05 1.65 2.45 3.95 4.15h1.25q0.85 0.2 1-0.5v-0.25q-0.15-2.25-0.75-4.25-0.5-1.6 0-2.65l1.45 0.25 1 0.3 0.75-0.05q0.15-1.4-0.75-2.5l-2.7-2.95-4.45-7.65" fill="#d8d366" fill-rule="evenodd"/>
<path d="m267.45 100.5 11.9-6.6h11.6l-5.45 4.95-13.35 7.7h-4.7v-6.05m0.25 22.7 10.15-7.9 13.95-5.2-2.2 6.05-16.05 12.5-3.5 3.6h-2.35v-9.05m-33.6 90.1 4.45 7.65 2.7 2.95q0.9 1.1 0.75 2.5l-0.75 0.05-1-0.3-1.45-0.25q-0.5 1.05 0 2.65 0.6 2 0.75 4.25v0.25q-0.15 0.7-1 0.5h-1.25q-2.3-1.7-3.95-4.15-1-1.4-2.7-2.05 0.2 1.15-0.15 2.05l-0.7 1.9q-0.15 0.6-0.15 1.25-8.05-7.95-6.7-21 1.35 6.4 5.15 12.75l1.05 1.35 2-0.25v-6.2l4.5 4.3q-3.8-3.8-3.85-9.7-0.05-2.3 0.8-2l1.5 1.5" fill="#e8e672" fill-rule="evenodd"/>
<path d="m240.25 181.15h11.65l4.25 2.35 20.2 11.25v23l-5.45 8.65-15.8 12.1-5.8 2.85-3.85-4.3 0.1-0.1 0.25-0.05q6.55-1.05 9.8-6.55l0.25-0.75 0.7-0.25q2.65-3.55 5.55-9.75 2.85-6.25 0.6-16.5-2.3-10.25-14.8-13.3l-4.95 7.15-0.55-0.85q-2.25-2.5-3.4-5.3l-0.95-1h-2.5l-0.55 0.1q-5.05 1.4-10.55 2.1l15.8-10.85" fill="#93813f" fill-rule="evenodd"/>
<path d="m245.55 236.95 4.1-5.1 3.75-12.1-2.75-20.5-3.7-5.7-6.2 13.6v-13.1h-19.3l3-2.05q5.5-0.7 10.55-2.1l0.55-0.1h2.5l0.95 1q1.15 2.8 3.4 5.3l0.55 0.85 4.95-7.15q12.5 3.05 14.8 13.3 2.25 10.25-0.6 16.5-2.9 6.2-5.55 9.75l-0.7 0.25-0.25 0.75q-3.25 5.5-9.8 6.55l-0.25 0.05" fill="#cdc757" fill-rule="evenodd"/>
<path d="m335.05 136.7 0.9 0.75-0.5 0.7-0.4-1.45m-16.8 15.35-2.35 3.7 12.1 7.15h9.9v6.4l-5.55-0.7 8.5 12.85v14.1l-5.9 4.95v12.85l-13.35-13.1-6.2 2.95 1.9 12 0.6 3.8-16.1 5.2h-14.3l6.15 8.4 5.45 13.85h-17.05l-12.35-7.9v12.85l-14.1 15.3v-9.6l-6.3-15.75 5.8-2.85 15.8-12.1 5.45-8.65v-6.4l13.85 8.4-5.2-9.15h7.95l-8.7-11.1v-6.2l-13.8-6.65-14.3-3.15-4.25-2.35h-11.65l2-3.65-4.2-2.75 5.45-3.2v-9.4h-0.15l0.4-0.55q3.35 2.55 5.45 6.45-0.05-3.9 1.95-5.95 1.8 3.2 2 6.95l0.05-0.45q0.85-3.9 2.9-6.5l1.15 1.25 5.75 7.65 2.5-2.95 0.5 4.45q1.45-4.2 1.95-1 1.55-0.5 4.45-2.95l2 3.95 0.3-0.1-2.3 4.3 3.95 3.25 2.7 5.4 5.2 2.25-0.9-5.65 6.1 4.2 0.25 0.35 2.85 5.9 1.6 2.5 5.7 1.85 2-4.35-4.85-1.6-2.15-3.5 7.2-3.45q-1.15-2.35-3.8-4.6l-0.65-0.8 16.3 1.95h2.5l-2.5-1.5 6.9-0.65 0.55-0.3-1.5-3.95q3.9 0.3 7.45 0 1.3-0.15 1.45-1l0.5-3-1.35-2-1.1-0.15-6.2 3.95h-11.6l-11.9-8.65-22.75-9.9 4.1 5.05-1.2 2.8-0.4-2.45-1.25 0.3-5.15 0.2-0.5-11.35q-0.2 6-4.95 8.4-1.55-0.75-1-3-1.35-1.15-1.95 1-1.35 0.1-1.5-3.45l-2.95 2 0.95-4.45q-0.6 2.55-3.45 2.95-1.15 2.3-3.45 2.45l-0.65-2.65h0.15v-24l4.45-16.8v-30.4h3.95l2.95-4.95 3.5 11.55 4.4-20.2 6.2 4.95 4.95 7.15 5.7-19.05 4.95 23.25 9.35-20.25h4.95l2.75-6.7 2.7 19.55h4.45v14.55l-4.65 6.3q-0.2-7.1 0.7-11-2.95 2.25-5.95 4.45l-0.6 0.9-4.3 4.9-9.4-8q-15.3-1.65-24.75 7.15v-3.2l-1.45-4.75 1.45 4.75v15.35h9.4l-9.15 14.3v11.4h10.4l8.4 9.15 5.7 8.65 3.7 7.45 0.4-0.2q2-1 5.75-4.05 2.9 1.3 6.2 0.45 5-1.25 10-1.65m-81.2 90.3-5.95 7.05-9.8 3.5 0.05-23.8 1.1 3.5 8.15 7.85 6.45 1.9m-54.05-45.9-5.05-2.45-4.9-5.95 11.85-6.4v-4.95h4.95l-2.75-4.45-15.3-8.4v-4.95l14.8-2.7-2-3.65q10.55 4.45 24.55 5.65-5.7-3.25-8.2-9l-0.2-0.9 7.4-1q6.3-1.15 16.8 0.3l4.95 2.65 0.85 1.3q0.35-3.75 5.05-6.7l1-2q2.95-2.6 6.7-2.9l0.7 6.4-9.6 11.5-15.5 17.25q-1.4 1.5-3.55 2.4h-6.45q1.3 1.1 3.95 1.45h1.5v5.45l-6.45 4.95q-12.3 4.55-25.1 7.1m-1.25-49.05-0.05-0.05 2-1.95 1.75-1.8q1.35 1.95 3.5 3.15 1.8 1 2.4 2.05-4-1.1-7.9-1.5l-1.7 0.1m17.4-32.85-7.1-12.45h14.6l-4.45-12.85h6.2l3.45-15.1 5.45 11.6 3.7 10.9 8.9-8.4h10.6v3.95l-10.35 6.2v6.15l2.45-0.8q-1.85 3.15-1.7 6.95v1l0.95 2.45 4.95 4.45q-5 0.65-9.15-1.45-1.25-0.65-1.7-1.5h-3.5l-2.95-0.5q1.8 3.15 8.6 6.15l2.3 0.8-27.2-3h-1l2.45 3q13.55 7.3 22.75 16.3-6.25 0-12.15-1.25 3 1.2 5.25 4.2l-5.2-0.3q-10-3.5-20.95-4l-3.5-6.55h11.35l-8.15-10.6h8.15l-3.05-5.35m112.6-17.9 9.85-6.95h4.95l3.45 19.55-6.65-7.45v-0.45q0-1.75 0.15-3.45 0.15-1.5-1.15-1.5l-0.1 0.45q-0.85 1.3-2.5 2.35l-1.35 1.15-4 1.3q-1.15 0.4-1.95-0.3-0.55-1.2-0.65-3.5l-0.05-1.2m20.6 71.95-4.45-0.6 4.45 0.6m-101.6-17.05q-0.15 1.75 0.6 3.65l-0.45-3.45-0.15-0.2m66.6 8.85-1.45-2.9 1.45 2.9m19.95 54.8-2.6 0.1-4-4.1-1.1-8h5.8-5.8l1.1 8 4 4.1 2.6-0.1" fill="#96a419" fill-rule="evenodd"/>
<path d="m330 109.25 0.5 2.95-4.7 17.05 9.25 7.45 0.4 1.45-3.95 5.2 2.7 7.95-11.85-5.7-4.1 6.45q-5 0.4-10 1.65-3.3 0.85-6.2-0.45-3.75 3.05-5.75 4.05l-0.4 0.2-3.7-7.45 10.1-1.25 13.6-11.1v-14.85l-10.4-24.25-3.9-3.35 4.3-4.9 0.6-0.9q3-2.2 5.95-4.45-0.9 3.9-0.7 11l-1.05 1.4 1.05-0.75 0.05 1.2q0.1 2.3 0.65 3.5 0.8 0.7 1.95 0.3l4-1.3 1.35-1.15q1.65-1.05 2.5-2.35l0.1-0.45q1.3 0 1.15 1.5-0.15 1.7-0.15 3.45v0.45l6.65 7.45m-52.75 51.85 1.2-2.8-4.1-5.05 22.75 9.9 11.9 8.65h11.6l6.2-3.95 1.1 0.15 1.35 2-0.5 3q-0.15 0.85-1.45 1-3.55 0.3-7.45 0l1.5 3.95-0.55 0.3-6.9 0.65 2.5 1.5h-2.5l-16.3-1.95 0.65 0.8q2.65 2.25 3.8 4.6l-7.2 3.45 2.15 3.5 4.85 1.6-2 4.35-5.7-1.85-1.6-2.5-2.85-5.9-0.25-0.35-7.3-11.65 1.2 7.45-1.2-7.45 7.3 11.65-6.1-4.2 0.9 5.65-5.2-2.25-2.7-5.4-3.95-3.25 2.3-4.3 0.65-1.25v-5.7l1.9-4.35m-21.1 22.4 14.3 3.15 13.8 6.65v6.2l8.7 11.1h-7.95l5.2 9.15-13.85-8.4v-16.6l-20.2-11.25m29.75-10.85 8.95 14.65-8.95-14.65" fill="#605a0a" fill-rule="evenodd"/>
<path d="m215.3 198.25-24.25 3.4-5.4-3.95-2.65-1.25q12.8-2.55 25.1-7.1l6.45-4.95v-5.45h-1.5q-2.65-0.35-3.95-1.45h6.45q2.15-0.9 3.55-2.4l15.5-17.25 9.6-11.5-0.7-6.4q-3.75 0.3-6.7 2.9l-1 2q-4.7 2.95-5.05 6.7l-0.85-1.3-4.95-2.65q-10.5-1.45-16.8-0.3l-7.4 1 0.2 0.9q2.5 5.75 8.2 9-14-1.2-24.55-5.65l-2.85-5.15 1.7-0.1q3.9 0.4 7.9 1.5-0.6-1.05-2.4-2.05-2.15-1.2-3.5-3.15l0.2-0.25h5.2v-3.7h4.9l-1.4-2.6q10.95 0.5 20.95 4l5.2 0.3q-2.25-3-5.25-4.2 5.9 1.25 12.15 1.25-9.2-9-22.75-16.3l-2.45-3h1l27.2 3-2.3-0.8q-6.8-3-8.6-6.15l2.95 0.5h3.5q0.45 0.85 1.7 1.5 4.15 2.1 9.15 1.45l-4.95-4.45-0.95-2.45v-1q-0.15-3.8 1.7-6.95l6.9-2.4 16.1 8.9-4.45 16.8v24h-0.15l0.65 2.65q2.3-0.15 3.45-2.45 2.85-0.4 3.45-2.95l-0.95 4.45 2.95-2q0.15 3.55 1.5 3.45 0.6-2.15 1.95-1-0.55 2.25 1 3 4.75-2.4 4.95-8.4l0.5 11.35 5.15-0.2 1.25-0.3 0.4 2.45-1.9 4.35v5.7l-0.65 1.25-0.3 0.1-2-3.95q-2.9 2.45-4.45 2.95-0.5-3.2-1.95 1l-0.5-4.45-2.5 2.95-5.75-7.65-1.15-1.25q-2.05 2.6-2.9 6.5l-0.05 0.45q-0.2-3.75-2-6.95-2 2.05-1.95 5.95-2.1-3.9-5.45-6.45l-0.4 0.55h0.15v9.4l-5.45 3.2 4.2 2.75-2 3.65-15.8 10.85-3 2.05-6.15 4.2m15.45-46.7 0.15 0.2 0.45 3.45q-0.75-1.9-0.6-3.65m20.25-0.5h-4.3l-11.15 11.1h7.8-7.8l11.15-11.1h4.3" fill="#818c15" fill-rule="evenodd"/>
<path d="m330 109.25 0.5 2.95-4.7 17.05 9.25 7.45 0.9 0.75-0.5 0.7-3.95 5.2 2.7 7.95-11.85-5.7-4.1 6.45-2.35 3.7 12.1 7.15h9.9v6.4l-5.55-0.7 8.5 12.85v14.1l-5.9 4.95v12.85l-13.35-13.1-6.2 2.95 1.9 12 0.6 3.8-16.1 5.2h-14.3l6.15 8.4 5.45 13.85h-17.05l-12.35-7.9v12.85l-14.1 15.3v-9.6l-6.3-15.75-5.8 2.85-6.45-1.85-5.95 7.05-9.8 3.5 0.05-23.8-6.05-18.75v-12.1l-24.25 3.4-5.4-3.95-2.65-1.25-5.05-2.45-4.9-5.95 11.85-6.4v-4.95h4.95l-2.75-4.45-15.3-8.4v-4.95l14.8-2.7-2-3.65-2.85-5.15-0.05-0.05 2-1.95-6.7-9.2-3.95-10.4 26.1-11.25-7.1-12.45h14.6l-4.45-12.85h6.2l3.45-15.1 5.45 11.6 3.7 10.9 8.9-8.4h10.6v3.95l-10.35 6.2v6.15l2.45-0.8 6.9-2.4 16.1 8.9v-30.4h3.95l2.95-4.95 3.5 11.55 4.4-20.2 6.2 4.95 4.95 7.15 5.7-19.05 4.95 23.25 9.35-20.25h4.95l2.75-6.7 2.7 19.55h4.45v14.55l-4.65 6.3-1.05 1.4 1.05-0.75 9.85-6.95h4.95l3.45 19.55m-52.75 51.85 1.2-2.8-4.1-5.05 22.75 9.9 11.9 8.65h11.6l6.2-3.95 1.1 0.15 4.45 0.6m-66.35-82.15 1.45 4.75v3.2q9.45-8.8 24.75-7.15l9.4 8m-29.45 11.3h4.7l-9.15 14.3v11.4h10.4l8.4 9.15 5.7 8.65 10.1-1.25 13.6-11.1v-14.85l-10.4-24.25-3.9-3.35m-107.25 41.8 1.4 2.6h-4.9v3.7h-5.2l-0.2 0.25m8.9-6.55-3.5-6.55h11.35l-8.15-10.6h8.15l-3.05-5.35m-15.45 30.85 1.75-1.8m57.9 18.55h0.15v9.4l-5.45 3.2 4.2 2.75-2 3.65h11.65l4.25 2.35 14.3 3.15 13.8 6.65v6.2l8.7 11.1h-7.95l5.2 9.15-13.85-8.4v6.4l-5.45 8.65-15.8 12.1-5.8 2.85m-27.85-47.3-6.15 4.2m24.95-17.1-15.8 10.85-3 2.05m46-93.55v6.05h4.7m-16.55 3.7-4.45 16.8v24h-0.15m26.25 10.05-1.9 4.35v5.7l-0.65 1.25-2.3 4.3 3.95 3.25 2.7 5.4 5.2 2.25-0.9-5.65-1.2-7.45 7.3 11.65 0.25 0.35 2.85 5.9 1.6 2.5 5.7 1.85 2-4.35-4.85-1.6-2.15-3.5-8.95-14.65m-42.55-10.5h-7.8l11.15-11.1h4.3m25.35 60.3v-16.6l-20.2-11.25m39.75-26 1.45 2.9m-5.15-10.35 3.7 7.45m-28.45-63.1v6.1m47.95 102.7h-5.8l1.1 8 4 4.1 2.6-0.1m-95.95 13.9 1.1 3.5 8.15 7.85 6.45 1.9" fill="none" stroke="#000" stroke-linecap="round" stroke-linejoin="round" stroke-opacity=".30196" stroke-width=".05"/>
</g>
</defs>
</svg>
