<?xml version="1.0" encoding="UTF-8"?>
<svg version="1.1" viewBox="0 0 332.32 325.62" xmlns="http://www.w3.org/2000/svg" xmlns:cc="http://creativecommons.org/ns#" xmlns:dc="http://purl.org/dc/elements/1.1/" xmlns:rdf="http://www.w3.org/1999/02/22-rdf-syntax-ns#" xmlns:xlink="http://www.w3.org/1999/xlink">
<metadata>
<rdf:RDF>
<cc:Work rdf:about="">
<dc:format>image/svg+xml</dc:format>
<dc:type rdf:resource="http://purl.org/dc/dcmitype/StillImage"/>
</cc:Work>
</rdf:RDF>
</metadata>
<g transform="translate(-112.46 -53.429)">
<use transform="translate(350.7,175)" width="71.900002" height="87.150002" xlink:href="#d"/>
<use transform="translate(350.7,233.35)" width="94.050003" height="60.450001" xlink:href="#j"/>
<use transform="translate(128.35,53.45)" width="280.45001" height="282.20001" xlink:href="#c"/>
<use transform="translate(112.5,280.45)" width="94.349998" height="72.75" xlink:href="#g"/>
<use transform="translate(194.05,288.45)" width="99.699997" height="74" xlink:href="#a"/>
<use transform="translate(114.5,152.2)" width="298.25" height="226.8" xlink:href="#e"/>
</g>
<defs>
<g id="d">
<use width="71.900002" height="87.150002" xlink:href="#k"/>
</g>
<g id="k">
<path d="m36.15 1.35-5.6 7.4 0.05-0.65 1.95-5.35 3.6-1.4m-30.2 56.6q0.6-2.9 3.25-4.9l13.35-15.7-0.15 0.3-0.4 0.6-0.3 1.1q-2.95 7.3-8.85 12.3l-3.6 3.75 7.6 9.05q2.95 3.35-3.95-1.35-7.2-4.7-6.95-5.15l0.75-0.8 2.1-1.3 0.45-0.45-0.45 0.45-2.1 1.3-0.75 0.8m10.4-5.35 20.6-27.2-7 26.3-2.05-0.25q-6.4-0.2-11.55 1.15m17.8-0.4 13.4-19.3-5.35 5.55q5.8-9.8 8.6-18.95l-4 4.15 11.55-21.15 6.25 4.05 2.85 2.4-18.4 51.35-3.15-2.55-1.8-1.15-2 3.25-8.85 7.75q-3.5 2.4-0.1-1.15l3.1-4.2 7.45-6.05 0.4 0.4-0.4-0.4q-4.5-2.6-9.55-4m18-51.35q-5.9 9.15-13.15 17.05-0.25-1.45 0.8-2.55l8.55-15.15 3.8 0.65m0.85 70.05-0.45 0.95 0.2-1.15 0.25 0.2m-1.25 3.85-4.4 5.4-12-8.05 7.5 1.45q7.75 1.7 8.9 1.2m-13.75 10.9-8.8 1.5q0.25-1.1 1.15-2.2l-3.3-6q4.6 6.2 10.95 6.7m-20.1 0.4-2.9-0.7 7.3-12.2q-3.5 9.05-4.1 12.85l-0.3 0.05m-12.4-6.5-0.1-0.05q-0.9-0.35-1.25-1.25l-1-1.15q17.6-4.55 11.4-1.8l-7.45 3.55q-1.45 0.9-1.6 0.7m44.4-17.8 0.8 1.2-0.2 0.5 0.6 0.6 0.4-0.05 0.15 0.15-4.4 1.4-10.95 3.75q-3.2 1.15 11.8-6.65l1.8-0.9m-27.05-24.55 7.6-10.25-2.85 4.5-4.75 5.75" fill="#815d20" fill-rule="evenodd"/>
<path d="m32.55 2.75-1.95 5.35-0.05 0.65 5.6-7.4q4.85-1.65 11-1.25l1.2 0.1-8.55 15.15q-1.05 1.1-0.8 2.55 7.25-7.9 13.15-17.05l6.2 1.65-11.55 21.15 4-4.15q-2.8 9.15-8.6 18.95l5.35-5.55-13.4 19.3-4.2-0.5 7-26.3-20.6 27.2q-4 1.05-7.1 2.8l3.6-3.75q5.9-5 8.85-12.3l0.3-1.1 0.4-0.6 0.15-0.3-13.35 15.7q-2.65 2-3.25 4.9l-4.7 5.25 23.65-54.1 0.1 0.1 5-4.65q1.25-0.95 2.55-1.8m-9.7 34.45 4.75-5.75 2.85-4.5-7.6 10.25" fill="#ab802a" fill-rule="evenodd"/>
<path d="m1.25 63.2 4.7-5.25q-0.25 0.45 6.95 5.15 6.9 4.7 3.95 1.35l-7.6-9.05q3.1-1.75 7.1-2.8 5.15-1.35 11.55-1.15l2.05 0.25 4.2 0.5q5.05 1.4 9.55 4l-7.45 6.05-3.1 4.2q-3.4 3.55 0.1 1.15l8.85-7.75 2-3.25 1.8 1.15 3.15 2.55 0.85 1.45-1.8 0.9q-15 7.8-11.8 6.65l10.95-3.75 4.4-1.4q1.15 3.25 1.1 6.55l-0.2 1.15v0.55l-0.8 2.35q-1.15 0.5-8.9-1.2l-7.5-1.45 12 8.05q2.8-2.35 1.5-0.8l-4.7 3.65q-5.3 2.95-6.15 2.65-6.35-0.5-10.95-6.7l3.3 6q-0.9 1.1-1.15 2.2l-4.1-0.1-7.2-1 0.3-0.05q0.6-3.8 4.1-12.85l-7.3 12.2q-4.5-1.85-7.95-4.65l-1.55-1.15q0.15 0.2 1.6-0.7l7.45-3.55q6.2-2.75-11.4 1.8-3.45-4-3.15-9.1 0.3-3.6 1.25-4.8m49.45-0.25 0.8 1.05-0.4 0.05-0.6-0.6 0.2-0.5" fill="#c1a983" fill-rule="evenodd"/>
<path d="m67.45 8.95q4.25 4.75 4.45 10.2l-0.1 1.9-18.8 49.85-0.25-0.2q0.05-3.3-1.1-6.55l-0.15-0.15-0.8-1.05-0.8-1.2-0.85-1.45 18.4-51.35" fill="#543816" fill-rule="evenodd"/>
<path d="m32.55 2.75q-1.3 0.85-2.55 1.8l-5 4.65-0.1-0.1-23.65 54.1 4.7-5.25 0.75-0.8 2.1-1.3 0.45-0.45q3.1-1.75 7.1-2.8 5.15-1.35 11.55-1.15l2.05 0.25 4.2 0.5m24.2-49.7-6.2-1.65m-3.8-0.65-1.2-0.1q-6.15-0.4-11 1.25l-3.6 1.4m15.8-2.55 3.8 0.65m15.3 8.1q4.25 4.75 4.45 10.2l-0.1 1.9-18.8 49.85-0.45 0.95v0.55l-0.8 2.35-4.4 5.4q2.8-2.35 1.5-0.8l-4.7 3.65q-5.3 2.95-6.15 2.65l-8.8 1.5-4.1-0.1-7.2-1-2.9-0.7q-4.5-1.85-7.95-4.65l-1.55-1.15-0.1-0.05q-0.9-0.35-1.25-1.25l-1-1.15q-3.45-4-3.15-9.1 0.3-3.6 1.25-4.8m57.1-60.7 6.25 4.05 2.85 2.4m-18.4 51.35 0.85 1.45 0.8 1.2 0.8 1.05 0.15 0.15q1.15 3.25 1.1 6.55m-8.65-14.1-0.4-0.4q-4.5-2.6-9.55-4m14.9 8.1-3.15-2.55-1.8-1.15m8.45 15.25 0.2-1.15" fill="none" stroke="#552a00" stroke-linecap="round" stroke-linejoin="round" stroke-width=".05"/>
</g>
<g id="j" transform="translate(-350.7,-233.35)">
<path d="m432.35 238-9.25-0.3 0.55-0.25 5.45-1.65 3.25 2.2m-63.7 8.4 5.9-0.2 20.5 1.65-0.25 0.05-0.75 0.05-1.1 0.4q-7.65 1.9-15.15-0.05l-5.1-0.75-2.95 11.45q-1.05 4.4-1.2-3.95-0.45-8.6 0.1-8.65l1.15 0.15 2.25 0.9 0.65 0.1-0.65-0.1-2.25-0.9-1.15-0.15m10.45 5.3 34.15 0.95-25.5 9.6-1-1.8q-3.55-5.3-7.65-8.75m10.65 14.3 23.5-0.35-7.6-1.15q11.4-0.95 20.45-4.05l-5.7-0.8 24-2.9q0.1 3.7 0.35 7.4l-0.3 3.8-52.55 14.9 0.2-4-0.05-2.2-3.9 0.3-11.5-2.75q-3.95-1.4 0.9-0.7l5.25 0.05 9.35 2.5-0.1 0.6 0.1-0.6q-0.55-5.15-2.4-10.05m52.35-15.3-21.55-0.8q1.05-1.05 2.55-0.8l17.35-1.85 1.65 3.45m-56.55 41.55-1.05 0.25 1.1-0.6-0.05 0.35m-3.9 1.25-6.95-0.45-0.4-14.45 3.2 6.9q3.1 7.35 4.15 8m-16.9-4.85-6.3-6.3 2.45-0.35 2.95-6.2q-2.35 7.35 0.9 12.85m-12.05-16.2-1.1-2.75 14.2-1.15q-9.45 2.45-12.85 4.2l-0.25-0.3m-1.9-13.8v-0.15q-0.25-0.95 0.3-1.75l0.3-1.5q13.95 11.7 8.1 8.25l-7.2-4.05q-1.55-0.6-1.5-0.8m40.35 25.75-0.45 1.35-0.5 0.15-0.15 0.85 0.25 0.25-0.05 0.25-3.7-2.8-9.45-6.75q-2.8-1.95 12.25 5.75l1.8 0.95m4.3-36.4 12.7 0.25-5.25 0.3-7.45-0.55" fill="#9a6f27" fill-rule="evenodd"/>
<path d="m429.1 235.8-5.45 1.65-0.55 0.25 9.25 0.3q4.2 2.95 7.5 8.15l0.6 1.1-17.35 1.85q-1.5-0.25-2.55 0.8l21.55 0.8 2.3 6.05-24 2.9 5.7 0.8q-9.05 3.1-20.45 4.05l7.6 1.15-23.5 0.35-2-3.75 25.5-9.6-34.15-0.95q-3.2-2.6-6.4-4.15l5.1 0.75q7.5 1.95 15.15 0.05l1.1-0.4 0.75-0.05 0.25-0.05-20.5-1.65-5.9 0.2-7.05-0.8 57.9-12.25v0.1l6.7 1.35 2.9 1m-33.65 12.2 7.45 0.55 5.25-0.3-12.7-0.25" fill="#c93" fill-rule="evenodd"/>
<path d="m361.6 245.6 7.05 0.8q-0.55 0.05-0.1 8.65 0.15 8.35 1.2 3.95l2.95-11.45q3.2 1.55 6.4 4.15 4.1 3.45 7.65 8.75l1 1.8 2 3.75q1.85 4.9 2.4 10.05l-9.35-2.5-5.25-0.05q-4.85-0.7-0.9 0.7l11.5 2.75 3.9-0.3 0.05 2.2-0.2 4-0.75 1.55-1.8-0.95q-15.05-7.7-12.25-5.75l9.45 6.75 3.7 2.8q-1.95 2.75-4.65 4.65l-1.1 0.6q-0.3 0.05-0.45 0.25l-2.4 0.75q-1.05-0.65-4.15-8l-3.2-6.9 0.4 14.45q3.6 0.85 1.55 0.75-2.8-0.95-5.7-1.75-5.5-2.55-5.8-3.4-3.25-5.5-0.9-12.85l-2.95 6.2-2.45 0.35-2.35-3.4q-2.2-3.35-3.4-6.5l0.25 0.3q3.4-1.75 12.85-4.2l-14.2 1.15q-1.1-4.7-0.8-9.15v-1.9q-0.05 0.2 1.5 0.8l7.2 4.05q5.85 3.45-8.1-8.25 1.25-5.15 5.6-7.85 3.1-1.9 4.6-1.8m29.1 40.15-0.4 1.25-0.25-0.25 0.15-0.85 0.5-0.15" fill="#e6ca9d" fill-rule="evenodd"/>
<path d="m444.45 267.95q-1.45 6.15-5.75 9.45l-1.55 1.1-51.6 13.75 0.05-0.35q2.7-1.9 4.65-4.65l0.05-0.25 0.4-1.25 0.45-1.35 0.75-1.55 52.55-14.9" fill="#65431b" fill-rule="evenodd"/>
<path d="m429.1 235.8-2.9-1-6.7-1.35v-0.1l-57.9 12.25 7.05 0.8 1.15 0.15 2.25 0.9 0.65 0.1q3.2 1.55 6.4 4.15 4.1 3.45 7.65 8.75l1 1.8 2 3.75m54.65-9.25-2.3-6.05m-1.65-3.45-0.6-1.1q-3.3-5.2-7.5-8.15l-3.25-2.2m11.35 11.45 1.65 3.45m2.35 17.25q-1.45 6.15-5.75 9.45l-1.55 1.1-51.6 13.75-1.05 0.25q-0.3 0.05-0.45 0.25l-2.4 0.75-6.95-0.45q3.6 0.85 1.55 0.75-2.8-0.95-5.7-1.75-5.5-2.55-5.8-3.4l-6.3-6.3-2.35-3.4q-2.2-3.35-3.4-6.5l-1.1-2.75q-1.1-4.7-0.8-9.15v-2.05q-0.25-0.95 0.3-1.75l0.3-1.5q1.25-5.15 5.6-7.85 3.1-1.9 4.6-1.8m82.8 11.15q0.1 3.7 0.35 7.4l-0.3 3.8m-52.55 14.9-0.75 1.55-0.45 1.35-0.4 1.25-0.05 0.25q-1.95 2.75-4.65 4.65m6.45-15.25 0.1-0.6q-0.55-5.15-2.4-10.05m2.15 16.85 0.2-4-0.05-2.2m-7.55 15.85 1.1-0.6" fill="none" stroke="#630" stroke-linecap="round" stroke-linejoin="round" stroke-width=".05"/>
</g>
<g id="c" transform="translate(.5 .5)">
<use transform="translate(-.5 -.5)" width="280.45001" height="282.20001" xlink:href="#b"/>
<use transform="translate(117,155.5)" width="73.599998" height="59.25" xlink:href="#h"/>
</g>
<g id="b" transform="translate(.5 .45)">
<use transform="translate(-.5 -.45)" width="280.45001" height="282.20001" xlink:href="#i"/>
</g>
<g id="i" transform="translate(.5 .45)">
<path d="m268.5 26.25q2.85 2.5 4.6 5.25-7.75 13.2-31.65 10.9l-3.7 4.85-3-1.85q-5.6-3.15-13.1-4.8 8.05 0.45 10.75-7-2.7-8.95 7.8-11l-10.1-1.7q-0.05-5.3-3.8-11.7l8.25 9.85q0.65-8.05 1.25-7.85 6.55 7.55 17.5 15.05 21.75 10.35 15.2 0m-23.1 10.95-3.95 5.2 3.95-5.2m-27.85-28.7q2.5 4.2 3.5 8.4l0.1 0.6q0.95 4.75-0.05 9.55l-0.2 0.75 0.05 0.05q-1.3 6.4-5.5 11.7l-0.15-0.05-7.8-0.35 7.05-10.35-10-0.55-0.05 0.95q-23.05-0.1-24.1-12.6-1.25-11 10.45-0.8l10 3.1v-2.85l10.1 8.05 6.1-15.4 0.5-0.2m-20.45 40.6 15.8-0.45 4.45 1.6q-1.6 1.1-4.1 7.1-2.25 2.5-4.15 5.15-4.75 6.75-7.2 14.55l-1.9 3.25q-1.1 8.45 0 16.85v10.2q6.65 1.6 11.15-5.05l1.75-0.85-0.9-6.8-1.05-7.75-0.4-3.05 1.8-4.85 3.9-9.05 0.65-1.55q3.1-8.15 5.35-16.4l0.3 0.1 2.5 1.45q4.1 2.65 4.05 4.65l-2 1.3 2-1.3v0.15l0.1 0.1-1.2 1.55-0.9-0.5 2.1-1.05-2.1 1.05 0.45 1.1-1.4 1.8q2 4.4 3.05 9-2.25 23.45-13.3 33.7-2.45-1.55-4.75-2.8 2.3 1.25 4.75 2.8 3.25 2 6.7 4.45l-0.05 0.95 0.85 0.55 5.15 3.45q24.65 22.85 36.35 62 7.7 16 5.85 36.8-2.35 5.45-6.1 10.6 19.8 20.4 13.15 31.6l-25.3 6.45q-22.4 4.85-41.8-2.45l-5.85 9.1-0.35-0.05q-10 9-37.95 12l31.45-9.6q-119.05-20.65-113.6-65.45 12.35-2.55 16.5-7.65l11.9 23.75 3.6 25.15 22.85-5.45 2.35-0.1 13.55-1.5q49.65-13.2 51.1-8.5l32.35-8.4-2.05-3.25-0.65-1.05q-1.7-9.55-6.8-17.35-3.95-6.05-9.9-11.05l-4.1-0.65-2.15-3.85-35.55-21.85-1.2-2.75-1.05-2.4-0.25-1.9q17.3-21.1 13-37.9l-21.25-2.55q-1.3-13.05-17.9-34.7 16.9-3.15 27.5-3.35l-0.05-0.35q11.55-20.25 1.1-28.15l19.8-0.6m-10.7 46.5q5.7-1.15 13.6 1.55-7.9-2.7-13.6-1.55m7.5-8.8q1.5-9.05-17.65-8.6 19.15-0.45 17.65 8.6m30.35-32.95 0.8-0.3-0.8 0.3m-136.8 86.4-0.1 5.35 1.7 1.2-1.75 1.7-0.05 4.85q-15.8-5.25 0.2-13.1m115.45 28.55q-6.45-3.85-14.7-5.85-5.6-1.4-12-1.95 6.4 0.55 12 1.95 8.25 2 14.7 5.85m33.25 51-0.25-1.3 0.65 1.05-0.4 0.25" fill="#bca34e" fill-rule="evenodd"/>
<path d="m268.5 26.25q6.55 10.35-15.2 0-10.95-7.5-17.5-15.05 22.95 15.1 32.7 15.05m-42.2-17.05q3.75 6.4 3.8 11.7 0.05 6.9-6.2 11.9h-0.15l-2.8-4.95 0.15-0.8-0.15 0.8-0.05-0.05 0.2-0.75q1-4.8 0.05-9.55l-0.1-0.6q-1-4.2-3.5-8.4l-0.5 0.2-6.1 15.4-10.1-8.05v-0.2l-0.15-9.85q8.1-10.75 13.55-2.15l12.05 5.35m-8.75-0.7-3.3-4.65 3.3 4.65m-13.05 20.7 0.05-0.95 10 0.55-7.05 10.35-7.25 0.5-5.25 1.1 9.5-11.55m-34.8 21.2h0.05l3.45-0.6 4.1-0.1q10.45 7.9-1.1 28.15l0.05 0.35q-10.6 0.2-27.5 3.35 16.6 21.65 17.9 34.7-19.9-3.75-45 1.15l2.9 3.7-7.4-2.8q-5.55 1.2-11.35 2.85-23.05 0.8-18.25 14.4l-0.1 4.7q-16 7.85-0.2 13.1l-0.45 24.3v0.4q4.45 3.95 8.35 8.25t7.2 9.05q6.1 8.7 10.2 18.75l4.6 0.2-2.9 4.2q3.9 11.1 5.55 23.7l7.15-1.35 7.85 0.5 4.45-0.05-22.85 5.45-3.6-25.15-11.9-23.75q-4.15 5.1-16.5 7.65-5.45 44.8 113.6 65.45l-31.45 9.6q-13.75 0.85-31.25 0.7l-50.8-18.6-3.75-1.3q-24.2-8.3-50.6-7.5l-1.65 0.05-0.4 0.05q-0.55-0.55-0.5-0.1v0.25-0.25q-0.05-0.45 0.5 0.1l0.4 0.5-0.9-0.35-11.5-5.15q-13.4-15.45 2.35-50.3 7.55-22.75 25.85-31.8-9.5-0.9-7.45-19.7 3.65-25.7 54.15-54.65l6.4-2.6 41.35-12.45q6.65-22.35 30.95-27.05m59.5 21q4.15 17.8-6.6 38.15-3.45-2.45-6.7-4.45 11.05-10.25 13.3-33.7m48.6 184.1q-9.5 15.95-72.95 13.1l5.85-9.1q19.4 7.3 41.8 2.45l25.3-6.45m-122.65-15.8q22.75-12.05 40.1-12l0.1-5.65 4.3 4.8 36.5-7.05 0.4-0.25 2.05 3.25-32.35 8.4q-1.45-4.7-51.1 8.5" fill="#a2833e" fill-rule="evenodd"/>
<path d="m230.1 20.9 10.1 1.7q-10.5 2.05-7.8 11-2.7 7.45-10.75 7l-0.2-0.05-2.55-0.5-3.45-0.5q4.2-5.3 5.5-11.7l2.8 4.95h0.15q6.25-5 6.2-11.9m-11.2 19.15 0.7-0.55-0.7 0.55m9.65 74.45q28.4 20.15 39.7 53.3 11.15 25.1 2.5 45.5 1.85-20.8-5.85-36.8-11.7-39.15-36.35-62m-93.25 166.75q-25.45-0.3-59.55-3.55-47.9-1.25-48.15-23.6l0.9 0.35-0.4-0.5 0.4-0.05 1.65-0.05q26.4-0.8 50.6 7.5l3.75 1.3 50.8 18.6m-119.2-32.3q-33.7-16.65 3.1-90.35 21.75-44.8 71.8-66.1-50.5 28.95-54.15 54.65-2.05 18.8 7.45 19.7-18.3 9.05-25.85 31.8-15.75 34.85-2.35 50.3m64.65 12.4-50.6-7.5 50.6 7.5" fill="#886f33" fill-rule="evenodd"/>
<path d="m221.65 40.6q7.5 1.65 13.1 4.8l3 1.85 2.6 1.75q2.55 3.55 0 6.45l-7-7.9-2.5-0.8-14.4-4.55-1.95-0.65-16.9 1.05-6.1 0.35-3.95-0.6q1.7-0.75 5.1-1.45l2.35-0.15 5.25-1.1-2.65 2.95 2.65-2.95 7.25-0.5 7.8 0.35 0.15 0.05 3.45 0.5 2.55 0.5 0.2 0.05m-2.75-0.55-2.45 2.15 2.45-2.15m-4.7 4.05h1.1q2.8 0.6 5.35 1.5 3.2 1.1 6.1 2.6 6.65 3.4 11.7 8.9l3.35 1.85-5.45 3.45-1.8 1.15-3.7-2-0.6-0.35-2.25-1.2 1.2-1.55 0.35-0.55-0.45 0.45v-0.15q0.05-2-4.05-4.65l-2.5-1.45-0.3-0.1-4.9-1.75-4.45-1.6-15.8 0.45q-1.75-2.3 3.6-4.6-5.35 2.3-3.6 4.6l-11.55 0.35q-0.6-2.3 4.3-4.6-4.9 2.3-4.3 4.6l-8.25 0.25-4.1 0.1-3.45 0.6h-0.05l-0.05-0.6q-1-4.7 8.2-4.7l3.75 0.15 5.15-0.35 3.1-0.05 5.95-0.2 4.9-0.15h0.25l13.25-0.4m2.15 4.7 4.3-3.2-4.3 3.2m1.25 0.95-0.25 0.5 0.25-0.5m17.15-4.35-3.9 1.35 3.9-1.35m-60.3 3.05 3.4-3.35-3.4 3.35m25.55 51.55v-2.85q-1.1-8.4 0-16.85l1.9-3.25q2.45-7.8 7.2-14.55 8.45 0.35 7.8 5.9l-0.65 1.55-3.9 9.05-1.8 4.85 0.4 3.05 1.05 7.75q-4.9 6.95-12 5.35 7.1 1.6 12-5.35l0.9 6.8-1.75 0.85q-4.5 6.65-11.15 5.05v-7.35m0.65-9.8q1.95 1.05 5.9-1.3 2.35 0.85 4.4-2-2.05 2.85-4.4 2-3.95 2.35-5.9 1.3m37.55-32.35 0.25-0.75-0.25 0.75m-10.65 2.75-0.45-1.1 0.9 0.5-0.45 0.6m15 13.55 6.45 12.3q3.15 12.05-2.4 22.9l-8.45-6.55-4.8-3.75q7.95-2.5 6.75-11.6l-0.85-4.5 2.45-6.55 0.85-2.25m-13-16.25-0.45 0.3 0.45-0.3m0.45-6.2-4.95 1.85 4.95-1.85m1.8 6.1 4.3-0.35-4.3 0.35m-8.3-9.2-1.25 3.4 1.25-3.4m-15.1 18.65q3.4 3.7 7.85 2.7-4.45 1-7.85-2.7m3.95 11.75q-7.95 2.75-10.45-1.95 2.5 4.7 10.45 1.95m32.7 11.75q-0.2-7.5-3.35-14.35 3.15 6.85 3.35 14.35m-1.8 5.4q0.9 4-5.1 6.65 6-2.65 5.1-6.65" fill="#968138" fill-rule="evenodd"/>
<path d="m197.6 42.6 16.9-1.05 1.95 0.65 14.4 4.55-4.1 1.45 4.1-1.45 2.5 0.8 7 7.9-1.9 1.65q-5.05-5.5-11.7-8.9-2.9-1.5-6.1-2.6-2.55-0.9-5.35-1.5h-1.1l2.25-1.9-2.25 1.9-13.25 0.4h-0.25l-4.9 0.15 1.8-2.05-1.8 2.05-5.95 0.2-3.1 0.05q-2.1-1.35 0.8-2.55l3.95 0.6 6.1-0.35m24.65 9.4q-2.25 8.25-5.35 16.4 0.65-5.55-7.8-5.9 1.9-2.65 4.15-5.15 2.5-6 4.1-7.1l4.9 1.75m5.75 8 2.25 1.2 0.6 0.35 3.7 2 1.8-1.15 6.2 11.75-0.85 2.25-2.45 6.55q-2.3-9.9-7.7-17.5l-0.1-0.2-3.9-4.65 0.45-0.6m-9.25-1.8q-4.15 1.85-5.5-0.85 1.35 2.7 5.5 0.85m12.1 3.35q7.3 7 10.85 14.85-3.55-7.85-10.85-14.85" fill="#7b642f" fill-rule="evenodd"/>
<path d="m166.65 116.25 21.25 2.55q4.3 16.8-13 37.9l0.25 1.9 1.05 2.4q-7.55-0.65-16.25-0.15 8.7-0.5 16.25 0.15l1.2 2.75 35.55 21.85 2.15 3.85 4.1 0.65q5.95 5 9.9 11.05 3.2 12.85-52.35 22.15l-9 1.45-1.65 0.25 0.05 0.05-2.2 0.4-0.05-0.15-1.85 0.25-8.15 1.1-12.3-1.05q6.45-10.4-38.75-35.2-0.95-6.4-9.25-15.05 12-4.05 22.95-6.9l3.15-0.85 10.65-1.8-0.05-0.05-0.65-0.25v-0.25l0.05 0.1 4.1-0.8v0.15l0.7-0.15 0.3 0.5 14.95-2.5v-0.2l0.05-0.6v-0.3l1.75 0.7-1.75-0.7 0.05-0.4 1.7 1.1 1.6-1 0.05 0.25 0.1 0.55 1.65-0.25 1.4-0.25 0.7-0.15 2.9-0.45 14.45-2.45q-7.6 0.1-14.7-0.2l-6.15-0.3-0.4 0.75h-0.4v-0.15l-2.75 0.05v0.1l-16.3 0.15v-0.05l-7.25 0.05-8.35-0.1q-21.3-2.2-30.85-5.35l0.05-4.85 1.75-1.7-1.7-1.2 0.1-5.35q6.75-3.35 19.15-7.15l15.25 2 5.4 0.45 1.4 0.05 1.4 0.1v-0.05l3.25 0.15h0.25l6.75-0.1q17.75-0.8 23.6-8.35 3.35-4.45 2.75-11.1m-36.95 49.1h-0.05 0.05" fill="#f2dec8" fill-rule="evenodd"/>
<path d="m166.65 116.25q0.6 6.65-2.75 11.1-5.85 7.55-23.6 8.35l-6.75 0.1h-0.25l-3.25-0.15v0.05l-1.4-0.1-1.4-0.05-5.4-0.45-15.25-2q-12.4 3.8-19.15 7.15l0.1-4.7q-4.8-13.6 18.25-14.4 5.8-1.65 11.35-2.85l7.4 2.8-2.9-3.7q25.1-4.9 45-1.15m-79.4 37.1q9.55 3.15 30.85 5.35l8.35 0.1 7.25-0.05v0.05l16.3-0.15v-0.1l2.75-0.05v0.15h0.4l0.4-0.75 6.15 0.3q7.1 0.3 14.7 0.2l-14.45 2.45-2.9 0.45-3.9-0.15 3.9 0.15-0.7 0.15-1.4 0.25-1.65 0.25-0.1-0.55-0.05-0.25-1.6 1-1.7-1.1-0.05 0.4-5.65 1.1-10.3 2h-0.05 0.05l10.3-2 5.65-1.1v0.3l-0.05 0.6v0.2l-14.95 2.5-0.3-0.5-0.7 0.15v-0.15l-4.1 0.8-0.05-0.1-2.2 0.5-7.75 1.85 7.75-1.85 2.2-0.5v0.1l-2.2 0.4 2.2-0.4v0.15l0.65 0.25 0.05 0.05-10.65 1.8-3.15 0.85q-10.95 2.85-22.95 6.9l-6.8 2.3 6.8-2.3q8.3 8.65 9.25 15.05 45.2 24.8 38.75 35.2l12.3 1.05 8.15-1.1 1.85-0.25 0.05 0.15 2.2-0.4-0.05-0.05 1.65-0.25 9-1.45q55.55-9.3 52.35-22.15 5.1 7.8 6.8 17.35l0.25 1.3-36.5 7.05-4.3-4.8-0.1 5.65q-17.35-0.05-40.1 12l-13.55 1.5-2.35 0.1-4.45 0.05-7.85-0.5-7.15 1.35q-1.65-12.6-5.55-23.7l2.9-4.2-4.6-0.2q-4.1-10.05-10.2-18.75-3.3-4.75-7.2-9.05t-8.35-8.25v-0.4l0.45-24.3m145.35 59.85 3.3 5.3-3.3-5.3m-88.45-50.65 5.65-0.8-5.65 0.8m10.8-0.85-1.75-0.3 1.75 0.3" fill="#e2cc83" fill-rule="evenodd"/>
<path d="m241.45 42.4q23.9 2.3 31.65-10.9-1.75-2.75-4.6-5.25-9.75 0.05-32.7-15.05-0.6-0.2-1.25 7.85l-8.25-9.85-12.05-5.35q-5.45-8.6-13.55 2.15l0.15 9.85m20.8 24.75q7.5 1.65 13.1 4.8l3 1.85 3.7-4.85 3.95-5.2m-24.35-20.3 0.1 0.6q0.95 4.75-0.05 9.55l-0.15 0.8m-20.1-11.8v2.85l-10-3.1q-11.7-10.2-10.45 0.8 1.05 12.5 24.1 12.6m3 9.95 7.8 0.35 0.15 0.05m3.45 0.5 2.55 0.5 0.2 0.05m-2.75-0.55-3.45-0.5m-1.25 4.55h1.1q2.8 0.6 5.35 1.5 3.2 1.1 6.1 2.6m-12.55-4.1-13.25 0.4m-3.85 4.6 15.8-0.45 4.45 1.6 4.9 1.75m18.1 3.45q2.55-2.9 0-6.45l-2.6-1.75m-68.1 2.55q-1-4.7 8.2-4.7l3.75 0.15 5.15-0.35m5.9-4 2.35-0.15 9.5-11.55m-14.65 15.65-3.1 0.05m13.5-5.25-5.25 1.1m0.8 3.9 4.9-0.15m-4.9 0.15-5.95 0.2m-4.3 4.6 11.55-0.35m-27.4 1.3h0.05l3.45-0.6 4.1-0.1 8.25-0.25m-9.3 28.75q19.15-0.45 17.65 8.6m6.1 10.35q-7.9-2.7-13.6-1.55m49.95-33.2 5.45-3.45-3.35-1.85-0.25 0.75m0.25-0.75 1.9-1.65m-12.8 5.15-0.45-1.1 2-1.3q0.05-2-4.05-4.65l-2.5-1.45-0.3-0.1m6.95 6.45-1.2 1.55 2.25 1.2m0.6 0.35 3.7 2 1.8-1.15 6.2 11.75 6.45 12.3q3.15 12.05-2.4 22.9l-8.45-6.55-4.8-3.75q7.95-2.5 6.75-11.6l-0.85-4.5q-2.3-9.9-7.7-17.5m-0.1-0.2-3.9-4.65-1.4 1.8q2 4.4 3.05 9 4.15 17.8-6.6 38.15l1.15 0.95m5.35-52.15 0.1 0.1 0.35-0.55m-0.45 0.45v-0.15l0.45-0.3m-2.45 1.6 0.9 0.5-0.45 0.6m1.65-2.15-2.1 1.05m11.35-2.4q-5.05-5.5-11.7-8.9m-19.25-9.05-7.25 0.5m15.65 65.45q-2.45-1.55-4.75-2.8m11.45 7.25q-3.45-2.45-6.7-4.45m6.7 4.45-0.05 0.95 0.85 0.55 5.15 3.45q28.4 20.15 39.7 53.3 11.15 25.1 2.5 45.5-2.35 5.45-6.1 10.6 19.8 20.4 13.15 31.6-9.5 15.95-72.95 13.1l-0.35-0.05q-10 9-37.95 12-13.75 0.85-31.25 0.7-25.45-0.3-59.55-3.55-47.9-1.25-48.15-23.6l-11.5-5.15q-33.7-16.65 3.1-90.35 21.75-44.8 71.8-66.1l6.4-2.6 41.35-12.45q6.65-22.35 30.95-27.05m-82.35 95.2 1.7 1.2-1.75 1.7m131.9 41.6-4.1-0.65-2.15-3.85m-91.3-68.2 2.9 3.7-7.4-2.8m-4.6 95.8 4.6 0.2-2.9 4.2m25 22.8 2.35-0.1m53.65-13.5 0.1-5.65 4.3 4.8 36.5-7.05-0.25-1.3-3.3-5.3m-205 40.9v-0.25q-0.05-0.45 0.5 0.1l0.4 0.5-0.9-0.35m208.95-34.55-0.65-1.05q-1.7-9.55-6.8-17.35m9.5 21.65-2.05-3.25m-87.8-138q16.9-3.15 27.5-3.35" fill="none" stroke="#000" stroke-linecap="round" stroke-linejoin="round" stroke-opacity=".30196"/>
<path d="m226.3 9.2q3.75 6.4 3.8 11.7m-15.85-17.05 3.3 4.65q2.5 4.2 3.5 8.4m-0.1 10.95 2.8 4.95m0.15 0q6.25-5 6.2-11.9m-9.15 6.95-0.05-0.05 0.2-0.75m-1.5 12.45-0.7 0.55m-2.45 2.15 2.45-2.15m7.85 8.15 4.1-1.45 3.9-1.35m-18.3-3.2-2.25 1.9m-13.25 0.4h-0.25q-5.35 2.3-3.6 4.6m20.25 1.15 0.25-0.5m3.05-4.15-4.3 3.2m-38.5-3.7-3.4 3.35m12.3-3.55q-2.1-1.35 0.8-2.55 1.7-0.75 5.1-1.45m-7.1 8.55q-0.6-2.3 4.3-4.6m7.75-2.25 2.65-2.95m-2.65 2.95-1.8 2.05m6.1 32.4-1.9 3.25q-1.1 8.45 0 16.85v2.85q7.1 1.6 12-5.35l-1.05-7.75q-2.05 2.85-4.4 2-3.95 2.35-5.9 1.3m24.4-36.65-0.8 0.3m-2-1.85q-2.25 8.25-5.35 16.4l-0.65 1.55-3.9 9.05-1.8 4.85 0.4 3.05m19.3-25.7 0.6 0.35m-5.8-8 4.95-1.85m6.1 5.75-4.3 0.35m-9.55-5.8 1.25-3.4m-6.15 1.65q-1.6 1.1-4.1 7.1 1.35 2.7 5.5 0.85m-9.65 4.3q-4.75 6.75-7.2 14.55 2.5 4.7 10.45 1.95m3.9-9.05q-4.45 1-7.85-2.7m4.85-9.9q-2.25 2.5-4.15 5.15m32.6 13.9q-3.55-7.85-10.85-14.85m10.85 14.85q3.15 6.85 3.35 14.35m-45.05 9.25v7.35q6.65 1.6 11.15-5.05l1.75-0.85-0.9-6.8m-35.8 66.35-1.05-2.4-0.25-1.9q17.3-21.1 13-37.9l-21.25-2.55q-19.9-3.75-45 1.15m-34.2 22.85-0.1 5.35m-0.05 2.9-0.05 4.85-0.45 24.3 6.8-2.3q12-4.05 22.95-6.9l3.15-0.85 7.75-1.85 2.2-0.5m30.3-4.4q8.7-0.5 16.25 0.15 6.4 0.55 12 1.95 8.25 2 14.7 5.85m10.05 16.8-35.55-21.85-1.2-2.75m61.95-58.2q6-2.65 5.1-6.65m-126.1 22.15q-5.55 1.2-11.35 2.85-23.05 0.8-18.25 14.4l-0.1 4.7m42.25 25.1 4.1-0.8h0.05l10.3-2 5.65-1.1m0.05-0.4 1.7 1.1 1.6-1 3.9 0.15 2.9-0.45m-73.15 16.8v0.4q4.45 3.95 8.35 8.25t7.2 9.05q6.1 8.7 10.2 18.75m1.7 4.4q3.9 11.1 5.55 23.7l7.15-1.35 7.85 0.5 4.45-0.05m2.35-0.1 13.55-1.5q22.75-12.05 40.1-12m33.85-26.55q-3.95-6.05-9.9-11.05m-69.4-28.35-5.65 0.8m7.4-0.4-1.75-0.7m3.4-0.05 1.75 0.3m1.4-0.25 0.7-0.15m-29.6 4.45 2.2-0.4h0.05m-101.2 88.55 1.65-0.05 50.6 7.5" fill="none" stroke="#000" stroke-linecap="round" stroke-linejoin="round" stroke-opacity=".30196"/>
</g>
<g id="h" transform="translate(-117,-155.5)">
<path d="m161.8 176.05-5.3 0.7 0.25-0.2 2.95-1.3 2.1 0.8m-35.65 10.05q1.45-0.8 3.35-0.6l11.9-1-0.15 0.05h-0.45l-0.55 0.4q-4.2 1.65-8.65 1.3l-3 0.1h-0.35l-1.45-0.25h-0.65 0.65l1.45 0.25h0.35l-0.65 6.15q-0.2 2.3-1.05-2-1.05-4.35-0.75-4.4m6.45 1.8 19.6-2.6-13.65 7.25-0.75-0.85q-2.55-2.45-5.2-3.8m7.4 6.35 13.4-2.3-4.45 0.1q6.4-1.5 11.3-3.9l-3.35 0.1 13.45-3.7 1 3.8 0.05 1.95-28.6 12.4-0.3-2.05-0.2-1.1-2.2 0.5-6.75-0.35q-2.45-0.4 0.4-0.5l2.95-0.4 5.6 0.4v0.35-0.35q-0.75-2.6-2.3-4.95m28.5-12.65q-6.15 1.3-12.35 1.55 0.5-0.55 1.35-0.6l9.85-2.5 1.15 1.55m-28.5 26.5-0.8 0.4 0.8-0.55v0.15m-2.05 1-4.05 0.4-1.6-7.35 2.45 3.25q2.45 3.5 3.2 3.7m-10.15-0.95-4.2-2.65 1.4-0.4 1.1-3.5q-0.65 4.05 1.7 6.55m-8.25-7.2-0.95-1.3 7.95-1.95q-5.1 2.15-6.95 3.3l-0.05-0.05m-2.45-7q-0.2-0.5-0.05-0.95l0.1-0.75q9.05 4.7 5.35 3.45l-5.4-1.75m25.4 9.6-0.15 0.8-0.3 0.1v0.45l0.15 0.1v0.05l-8.35-3.65q-1.75-0.75 7.65 1.85l1 0.3m-0.9-19 7.3-1.05-3 0.65-4.3 0.4" fill="#9a6f27" fill-rule="evenodd"/>
<path d="m159.7 175.25-2.95 1.3-0.25 0.2 5.3-0.7q2.65 1.1 5 3.5l0.55 0.5-9.85 2.5q-0.85 0.05-1.35 0.6 6.2-0.25 12.35-1.55l1.85 2.95-13.45 3.7 3.35-0.1q-4.9 2.4-11.3 3.9l4.45-0.1-13.4 2.3-1.45-1.7 13.65-7.25-19.6 2.6q-2-1.05-4-1.55l3-0.1q4.45 0.35 8.65-1.3l0.55-0.4h0.45l0.15-0.05-11.9 1q-1.9-0.2-3.35 0.6l-4.1 0.2 32.05-11.45-0.1 0.05 3.95 0.05 1.75 0.3m-18.1 9.3 4.3-0.4 3-0.65-7.3 1.05" fill="#c93" fill-rule="evenodd"/>
<path d="m122.05 186.3 4.1-0.2q-0.3 0.05 0.75 4.4 0.85 4.3 1.05 2l0.65-6.15q2 0.5 4 1.55 2.65 1.35 5.2 3.8l0.75 0.85 1.45 1.7q1.55 2.35 2.3 4.95l-5.6-0.4-2.95 0.4q-2.85 0.1-0.4 0.5l6.75 0.35 2.2-0.5 0.2 1.1 0.3 2.05-0.3 0.85-1-0.3q-9.4-2.6-7.65-1.85l8.35 3.65q-0.8 1.65-2.2 2.9l-0.8 0.55-1.25 0.6q-0.75-0.2-3.2-3.7l-2.45-3.25 1.6 7.35q2.15 0.1 0.95 0.15l-3.4-0.25q-3.4-0.9-3.65-1.25-2.35-2.5-1.7-6.55l-1.1 3.5-1.4 0.4-1.6-1.55q-1.6-1.45-2.45-3l0.05 0.05q1.85-1.15 6.95-3.3l-7.95 1.95q-1.1-2.4-1.35-4.65l-0.15-1.05 5.4 1.75q3.7 1.25-5.35-3.45 0.2-2.85 2.5-4.55 1.6-1.25 2.4-1.4m20.3 18.05-0.15 0.65-0.15-0.1v-0.45l0.3-0.1" fill="#e6ca9d" fill-rule="evenodd"/>
<path d="m171.4 190.3q-0.25 3.3-2.35 5.4l-0.8 0.7q-14.15 5.8-28.25 11.7v-0.15q1.4-1.25 2.2-2.9v-0.05l0.15-0.65 0.15-0.8 0.3-0.85 28.6-12.4" fill="#65431b" fill-rule="evenodd"/>
<path d="m159.7 175.25-1.75-0.3-3.95-0.05 0.1-0.05-32.05 11.45 4.1-0.2h0.65l1.45 0.25h0.35q2 0.5 4 1.55 2.65 1.35 5.2 3.8l0.75 0.85 1.45 1.7m30.35-9.7-1.85-2.95m-1.15-1.55-0.55-0.5q-2.35-2.4-5-3.5l-2.1-0.8m7.65 4.8 1.15 1.55m2.9 8.7q-0.25 3.3-2.35 5.4l-0.8 0.7q-14.15 5.8-28.25 11.7l-0.8 0.4-1.25 0.6-4.05 0.4q2.15 0.1 0.95 0.15l-3.4-0.25q-3.4-0.9-3.65-1.25l-4.2-2.65-1.6-1.55q-1.6-1.45-2.45-3l-0.95-1.3q-1.1-2.4-1.35-4.65l-0.15-1.05q-0.2-0.5-0.05-0.95l0.1-0.75q0.2-2.85 2.5-4.55 1.6-1.25 2.4-1.4m48.3-1.75 1 3.8 0.05 1.95m-28.6 12.4-0.3 0.85-0.15 0.8-0.15 0.65v0.05q-0.8 1.65-2.2 2.9m2.3-8.4v-0.35q-0.75-2.6-2.3-4.95m2.8 8.45-0.3-2.05-0.2-1.1m-3.1 8.95 0.8-0.55" fill="none" stroke="#630" stroke-linecap="round" stroke-linejoin="round" stroke-width=".05"/>
<path d="m133.85 176.8 3.7 7.75" fill="none" stroke="#9a6f27" stroke-linecap="round" stroke-linejoin="round" stroke-width=".05"/>
<path d="m124 169.45 8.95 2.6q3.5 1.8 2 5.85-4.4 0.4-8.75-1.65 0.05-5.15-2.2-6.8" fill="#4f992f" fill-rule="evenodd"/>
<path d="m124 169.45q2.25 1.65 2.2 6.8 4.35 2.05 8.75 1.65 1.5-4.05-2-5.85z" fill="none" stroke="#660" stroke-linecap="round" stroke-linejoin="round" stroke-width=".05"/>
<path d="m131.15 199.6q-0.15 1.05-1.2 1.3l-2.15-0.25q-1.05-0.7-1.7-1.85-0.55-1.1-0.4-2.05 0.25-1.05 1.25-1.35 1.05-0.3 2.1 0.3 1.2 0.65 1.75 1.75 0.65 1.2 0.35 2.15" fill="#9a6f27" fill-rule="evenodd"/>
<path d="m180.95 181.1q2.7 1.15 5 3.55l0.5 0.45-9.85 2.55q-0.8 0-1.3 0.6 6.2-0.3 12.4-1.55l1.85 2.9-13.5 3.7 3.35-0.1q-4.85 2.4-11.25 3.95l4.45-0.15-13.45 2.3-1.45-1.7 13.65-7.25-19.6 2.65q-2-1.05-4-1.55l2.95-0.1q4.55 0.35 8.7-1.35l0.6-0.35h0.45l0.1-0.05-1 0.05-5.05 0.25-5.8 0.6q-1.9-0.15-3.4 0.65l-4.05 0.2 31.95-11.5v0.1l3.95 0.05 1.75 0.3-3 1.25-0.25 0.25 5.3-0.7m-12.85 7.45-7.3 1.05 4.3-0.4 3-0.65" fill="#c93" fill-rule="evenodd"/>
<path d="m178.9 180.3 2.05 0.8-5.3 0.7 0.25-0.25 3-1.25m7.55 4.8 1.25 1.6q-6.2 1.25-12.4 1.55 0.5-0.6 1.3-0.6l9.85-2.55m3.1 4.5 0.9 3.8 0.15 1.95-28.7 12.45-0.15-2.1-0.3-1.1-2.2 0.45-6.8-0.35q-2.4-0.35 0.45-0.4l3-0.45 5.55 0.4v0.35-0.35q-0.75-2.5-2.3-4.95l13.45-2.3-4.45 0.15q6.4-1.55 11.25-3.95l-3.35 0.1 13.5-3.7m-30.4 23.55-0.6 0.25 0.6-0.45v0.2m-2.05 1-4 0.45-1.65-7.4 2.5 3.25q2.5 3.45 3.15 3.7m-10.15-0.95-4.15-2.65 1.35-0.4 1.15-3.45q-0.6 4 1.65 6.5m-8.25-7.2-0.95-1.3 2-0.5 5.95-1.4q-5.15 2.15-6.9 3.3l-0.1-0.1m-2.45-6.95q-0.2-0.5 0-0.95l0.05-0.8q9.05 4.75 5.4 3.5l-5.45-1.75m9.05-7.9q1.5-0.8 3.4-0.65l5.8-0.6 5.05-0.25 1-0.05-0.1 0.05h-0.45l-0.6 0.35q-4.15 1.7-8.7 1.35l-2.95 0.1h-0.4l-1.35-0.3h-0.7 0.7l1.35 0.3h0.4l-0.6 6.1q-0.2 2.35-1.1-1.9-1-4.4-0.75-4.5m6.45 1.85 19.6-2.65-13.65 7.25-0.75-0.85q-2.5-2.4-5.2-3.75m16.35-4.45-3 0.65-4.3 0.4 7.3-1.05m-6.7 21.5v0.1l-8.35-3.65q-1.75-0.75 7.55 1.8l1.1 0.3-0.15 0.75-0.3 0.1v0.5l0.15 0.1" fill="#9a6f27" fill-rule="evenodd"/>
<path d="m190.6 195.35q-0.2 3.4-2.4 5.45l-0.85 0.65q-14.15 5.8-28.2 11.7v-0.2q1.4-1.15 2.25-2.8v-0.1l0.15-0.7 0.15-0.75 0.2-0.8 28.7-12.45" fill="#65431b" fill-rule="evenodd"/>
<path d="m158.55 213.4-0.2 0.15-1.25 0.6q-0.65-0.25-3.15-3.7l-2.5-3.25 1.65 7.4q2.1 0.15 0.95 0.15l-3.45-0.3q-3.35-0.85-3.65-1.25-2.25-2.5-1.65-6.5l-1.15 3.45-1.35 0.4-1.6-1.55q-1.6-1.5-2.5-3l0.1 0.1q1.75-1.15 6.9-3.3l-5.95 1.4-2 0.5q-1.05-2.3-1.35-4.6l-0.15-1.05 5.45 1.75q3.65 1.25-5.4-3.5 0.3-2.75 2.55-4.5 1.6-1.3 2.4-1.45l4.05-0.2q-0.25 0.1 0.75 4.5 0.9 4.25 1.1 1.9l0.6-6.1q2 0.5 4 1.55 2.7 1.35 5.2 3.75l0.75 0.85 1.45 1.7q1.55 2.45 2.3 4.95l-5.55-0.4-3 0.45q-2.85 0.05-0.45 0.4l6.8 0.35 2.2-0.45 0.3 1.1 0.15 2.1-0.2 0.8-1.1-0.3q-9.3-2.55-7.55-1.8l8.35 3.65q-0.85 1.65-2.25 2.8l-0.6 0.45m3-4.05-0.15 0.7-0.15-0.1v-0.5l0.3-0.1" fill="#e6ca9d" fill-rule="evenodd"/>
<path d="m178.9 180.3 2.05 0.8q2.7 1.15 5 3.55l0.5 0.45 1.25 1.6 1.85 2.9 0.9 3.8 0.15 1.95q-0.2 3.4-2.4 5.45l-0.85 0.65q-14.15 5.8-28.2 11.7l-0.6 0.25-0.2 0.15-1.25 0.6-4 0.45q2.1 0.15 0.95 0.15l-3.45-0.3q-3.35-0.85-3.65-1.25l-4.15-2.65-1.6-1.55q-1.6-1.5-2.5-3l-0.95-1.3q-1.05-2.3-1.35-4.6l-0.15-1.05q-0.2-0.5 0-0.95l0.05-0.8q0.3-2.75 2.55-4.5 1.6-1.3 2.4-1.45l31.95-11.5v0.1l3.95 0.05 1.75 0.3m-33.6 10.85h0.7l1.35 0.3h0.4q2 0.5 4 1.55 2.7 1.35 5.2 3.75l0.75 0.85 1.45 1.7m2.3 5.3v-0.35q-0.75-2.5-2.3-4.95m2.3 5.3 0.3 1.1 0.15 2.1m-0.5 2.25v0.1q-0.85 1.65-2.25 2.8l-0.6 0.45m3-4.05-0.15 0.7m0.15-0.7 0.15-0.75 0.2-0.8m-20.65-16.45 4.05-0.2" fill="none" stroke="#630" stroke-linecap="round" stroke-linejoin="round" stroke-width=".05"/>
<path d="m153.1 181.85 3.7 7.75" fill="none" stroke="#9a6f27" stroke-linecap="round" stroke-linejoin="round" stroke-width=".05"/>
<path d="m152.1 177.1-8.9-2.6q2.2 1.65 2.2 6.85 4.4 2.05 8.7 1.65 1.45-4.05-2-5.9z" fill="none" stroke="#660" stroke-linecap="round" stroke-linejoin="round" stroke-width=".05"/>
<path d="m150.35 204.6q-0.15 1-1.15 1.3-1.05 0.3-2.2-0.3-1.05-0.6-1.7-1.8-0.55-1.1-0.35-2.1t1.2-1.25q1.05-0.3 2.15 0.25 1.15 0.65 1.7 1.75 0.65 1.15 0.35 2.15" fill="#9a6f27" fill-rule="evenodd"/>
<path d="m168.55 162.05-5.35 0.7 0.3-0.15 2.95-1.35 2.1 0.8m-35.65 10.15q1.45-0.85 3.35-0.65l10.85-0.85 1.05-0.2-0.15 0.05q-0.25 0-0.45 0.15l-0.6 0.3q-4.15 1.6-8.65 1.35l-3 0.05-0.65 6.15q-0.15 2.35-1-1.95-1.05-4.35-0.75-4.4l0.65-0.05 1.35 0.25h0.4-0.4l-1.35-0.25-0.65 0.05m6.45 1.75 19.6-2.65-13.7 7.25-0.75-0.85q-2.5-2.35-5.15-3.75m7.4 6.35 13.35-2.3-4.45 0.1q6.45-1.5 11.35-3.95l-3.35 0.1 13.45-3.65 0.85 3.75 0.2 1.95-28.7 12.45-0.2-2.1-0.25-1.1-2.15 0.5-6.85-0.35q-2.4-0.4 0.45-0.45l3-0.45 5.55 0.45v0.3-0.3q-0.75-2.6-2.25-4.95m28.45-12.55q-6.15 1.25-12.35 1.5 0.5-0.6 1.35-0.6l9.8-2.6 1.2 1.7m-28.45 26.4-0.6 0.2 0.6-0.4v0.2m-2.15 0.95-4 0.45-1.55-7.4 2.45 3.25q2.45 3.5 3.1 3.7m-10.05-0.9-4.2-2.7 1.35-0.4 1.15-3.4q-0.7 3.95 1.7 6.5m-8.35-7.25-0.95-1.3 8.05-1.9q-5.2 2.15-6.95 3.35l-0.15-0.15m-2.35-6.85v-0.05q-0.3-0.5-0.05-0.95l0.05-0.8q9.1 4.7 5.4 3.45l-4.45-1.4-0.95-0.25m25.4 9.5-0.15 0.75-0.3 0.1v0.45l0.15 0.1v0.15q-0.3-0.25-2.35-1.1l-6.05-2.55q-1.75-0.8 7.6 1.75l1.1 0.35m-0.9-19.05 7.3-1.05-3 0.65-4.3 0.4" fill="#9a6f27" fill-rule="evenodd"/>
<path d="m166.45 161.25-2.95 1.35-0.3 0.15 5.35-0.7q2.6 1.2 5 3.55l0.45 0.45-9.8 2.6q-0.85 0-1.35 0.6 6.2-0.25 12.35-1.5l1.9 2.85-13.45 3.65 3.35-0.1q-4.9 2.45-11.35 3.95l4.45-0.1-13.35 2.3-1.5-1.75 13.7-7.25-19.6 2.65q-2.05-1.05-4.05-1.55l3-0.05q4.5 0.25 8.65-1.35l0.6-0.3q0.2-0.15 0.45-0.15l0.15-0.05-1.05 0.2-10.85 0.85q-1.9-0.2-3.35 0.65l-4.1 0.2 31.95-11.55v0.05l3.95 0.1 1.75 0.25m-18.1 9.3 4.3-0.4 3-0.65-7.3 1.05" fill="#c93" fill-rule="evenodd"/>
<path d="m128.8 172.4 4.1-0.2q-0.3 0.05 0.75 4.4 0.85 4.3 1 1.95l0.65-6.15q2 0.5 4.05 1.55 2.65 1.4 5.15 3.75l0.75 0.85 1.5 1.75q1.5 2.35 2.25 4.95l-5.55-0.45-3 0.45q-2.85 0.05-0.45 0.45l6.85 0.35 2.15-0.5 0.25 1.1 0.2 2.1-0.2 0.85-1.1-0.35q-9.35-2.55-7.6-1.75l6.05 2.55q2.05 0.85 2.35 1.1-0.85 1.6-2.2 2.8l-0.6 0.4-0.2 0.2-1.35 0.55q-0.65-0.2-3.1-3.7l-2.45-3.25 1.55 7.4q2.15 0.1 1 0.2l-3.5-0.3q-3.35-0.85-3.55-1.25-2.4-2.55-1.7-6.5l-1.15 3.4-1.35 0.4-1.6-1.5q-1.6-1.5-2.55-3.05l0.15 0.15q1.75-1.2 6.95-3.35l-8.05 1.9q-1-2.3-1.25-4.65l-0.15-0.9 0.95 0.25 4.45 1.4q3.7 1.25-5.4-3.45 0.25-2.8 2.5-4.55 1.55-1.3 2.45-1.35m20.3 17.95-0.15 0.65-0.15-0.1v-0.45l0.3-0.1" fill="#e6ca9d" fill-rule="evenodd"/>
<path d="m178.15 176.3q-0.25 3.35-2.4 5.4l-0.8 0.7-28.2 11.75v-0.2q1.35-1.2 2.2-2.8v-0.15l0.15-0.65 0.15-0.75 0.2-0.85 28.7-12.45" fill="#65431b" fill-rule="evenodd"/>
<path d="m166.45 161.25-1.75-0.25-3.95-0.1v-0.05l-31.95 11.55 4.1-0.2 0.65-0.05 1.35 0.25h0.4q2 0.5 4.05 1.55 2.65 1.4 5.15 3.75l0.75 0.85 1.5 1.75m30.35-9.7-1.9-2.85m-1.2-1.7-0.45-0.45q-2.4-2.35-5-3.55l-2.1-0.8m7.55 4.8 1.2 1.7m2.95 8.55q-0.25 3.35-2.4 5.4l-0.8 0.7-28.2 11.75-0.6 0.2-0.2 0.2-1.35 0.55-4 0.45q2.15 0.1 1 0.2l-3.5-0.3q-3.35-0.85-3.55-1.25l-4.2-2.7-1.6-1.5q-1.6-1.5-2.55-3.05l-0.95-1.3q-1-2.3-1.25-4.65l-0.15-0.9v-0.05q-0.3-0.5-0.05-0.95l0.05-0.8q0.25-2.8 2.5-4.55 1.55-1.3 2.45-1.35m48.3-1.8 0.85 3.75 0.2 1.95m-28.7 12.45-0.2 0.85-0.15 0.75-0.15 0.65v0.15q-0.85 1.6-2.2 2.8m2.25-8.4v-0.3q-0.75-2.6-2.25-4.95m2.7 8.45-0.2-2.1-0.25-1.1m-2.85 8.8 0.6-0.4" fill="none" stroke="#630" stroke-linecap="round" stroke-linejoin="round" stroke-width=".05"/>
<path d="m140.6 162.9 3.7 7.75" fill="none" stroke="#9a6f27" stroke-linecap="round" stroke-linejoin="round" stroke-width=".05"/>
<path d="m130.75 155.5 8.95 2.6q3.45 1.8 1.9 5.85-4.3 0.35-8.65-1.7 0-5.1-2.2-6.75" fill="#4f992f" fill-rule="evenodd"/>
<path d="m130.75 155.5q2.2 1.65 2.2 6.75 4.35 2.05 8.65 1.7 1.55-4.05-1.9-5.85z" fill="none" stroke="#660" stroke-linecap="round" stroke-linejoin="round" stroke-width=".05"/>
<path d="m137.85 185.65q-0.15 1-1.15 1.3-1.05 0.25-2.2-0.3-1-0.6-1.7-1.8-0.5-1.1-0.35-2.1 0.2-1 1.2-1.3 1.05-0.3 2.15 0.3 1.15 0.65 1.75 1.75 0.6 1.15 0.3 2.15" fill="#9a6f27" fill-rule="evenodd"/>
</g>
<g id="g" transform="translate(-112.5,-280.45)">
<path d="m130.9 297.25q2.75-1.45 5.95-0.4l20.55 1.45-0.25 0.1-0.8 0.05-1.1 0.5q-7.75 2.45-15.2 0.35l-5.1-0.75-0.65-0.1-2.25-1.05-1.15-0.15 1.15 0.15 2.25 1.05 0.65 0.1-3.25 13.65q-1.2 5.2-1.1-4.7-0.2-10.15 0.3-10.25m10.35 6.05 34.3 0.2q-13.05 6.05-25.85 12.05l-1-2.1q-3.4-6.2-7.45-10.15m10.35 16.65 23.6-1.05-7.6-1.15q11.45-1.45 20.65-5.35l-5.7-0.8 24.15-4.1 0.15 8.75-0.4 4.5-53.15 19.1 0.3-4.75v-2.6l-3.9 0.5-11.45-2.95q-4-1.6 0.85-0.9l5.3-0.05 9.3 2.7-0.1 0.7 0.1-0.7q-0.4-6.1-2.1-11.85m52.95-19.55q-10.95 0.95-21.6-0.35 1.05-1.25 2.55-1l17.5-2.7 1.55 4.05m-9.45-14.8-9.25-0.1 0.55-0.35q2.65-1 5.5-2.05l3.2 2.5m-48.45 65.55-1.1 0.3 1.15-0.7-0.05 0.4m-3.9 1.6-7-0.35-0.05-17.1 3.05 8.1q2.9 8.6 4 9.35m-16.85-5.3-6.2-7.25q1.1-0.55 2.45-0.5l3.15-7.45q-2.55 8.8 0.6 15.2m-11.65-18.85-1.1-3.25 14.3-1.75q-9.55 3.15-13 5.35l-0.2-0.35m-1.55-16.35v-0.1q-0.25-1.15 0.3-2.1l0.35-1.8q13.75 13.45 7.95 9.55l-7.1-4.6q-1.55-0.65-1.5-0.95m45.1-13.75 12.75-0.1-5.3 0.5-7.45-0.4m-5.8 44.8-0.55 0.25-0.1 0.95 0.2 0.35-0.05 0.25q-0.4-0.65-3.6-3.2l-9.35-7.75q-2.75-2.25 12.2 6.45l1.75 1.1-0.5 1.6" fill="#9a6f27" fill-rule="evenodd"/>
<path d="m123.85 296.55 58.5-16.1-0.05 0.15 6.7 1.4 2.9 1.1q-2.85 1.05-5.5 2.05l-0.55 0.35 9.25 0.1q4.1 3.4 7.3 9.5l0.6 1.25-17.5 2.7q-1.5-0.25-2.55 1 10.65 1.3 21.6 0.35l2.15 7.1-24.15 4.1 5.7 0.8q-9.2 3.9-20.65 5.35l7.6 1.15-23.6 1.05-1.9-4.4q12.8-6 25.85-12.05l-34.3-0.2q-3.1-3-6.3-4.75l5.1 0.75q7.45 2.1 15.2-0.35l1.1-0.5 0.8-0.05 0.25-0.1-20.55-1.45q-3.2-1.05-5.95 0.4l-7.05-0.7m33.95 1.95 7.45 0.4 5.3-0.5-12.75 0.1" fill="#c93" fill-rule="evenodd"/>
<path d="m123.85 296.55 7.05 0.7q-0.5 0.1-0.3 10.25-0.1 9.9 1.1 4.7l3.25-13.65q3.2 1.75 6.3 4.75 4.05 3.95 7.45 10.15l1 2.1 1.9 4.4q1.7 5.75 2.1 11.85l-9.3-2.7-5.3 0.05q-4.85-0.7-0.85 0.9l11.45 2.95 3.9-0.5v2.6l-0.3 4.75-0.8 1.85-1.75-1.1q-14.95-8.7-12.2-6.45l9.35 7.75q3.2 2.55 3.6 3.2-2 3.35-4.8 5.65l-1.15 0.7-0.4 0.35-2.4 0.95q-1.1-0.75-4-9.35l-3.05-8.1 0.05 17.1q3.55 0.95 1.55 0.8-2.8-1-5.7-1.85-5.45-2.85-5.7-3.9-3.15-6.4-0.6-15.2l-3.15 7.45q-1.35-0.05-2.45 0.5l-2.25-4q-2.15-3.9-3.2-7.6l0.2 0.35q3.45-2.2 13-5.35l-14.3 1.75q-0.95-5.5-0.55-10.8l0.1-2.3q-0.05 0.3 1.5 0.95l7.1 4.6q5.8 3.9-7.95-9.55 1.45-6.1 5.85-9.45 3.15-2.35 4.65-2.25m27.7 48.3-0.2-0.35 0.1-0.95 0.55-0.25-0.45 1.55" fill="#e6ca9d" fill-rule="evenodd"/>
<path d="m206.45 320.75q-1.6 7.4-6.05 11.4l-1.55 1.3-52.2 17.7 0.05-0.4q2.8-2.3 4.8-5.65l0.05-0.25 0.45-1.55 0.5-1.6 0.8-1.85 53.15-19.1" fill="#65431b" fill-rule="evenodd"/>
<path d="m191.9 283.1-2.9-1.1-6.7-1.4 0.05-0.15-58.5 16.1 7.05 0.7 1.15 0.15 2.25 1.05 0.65 0.1q3.2 1.75 6.3 4.75 4.05 3.95 7.45 10.15l1 2.1 1.9 4.4m55.1-12.45-2.15-7.1m-1.55-4.05-0.6-1.25q-3.2-6.1-7.3-9.5m-3.2-2.5 3.2 2.5m7.9 10.75 1.55 4.05m2.15 7.1 0.15 8.75-0.4 4.5q-1.6 7.4-6.05 11.4l-1.55 1.3-52.2 17.7-1.1 0.3-0.4 0.35-2.4 0.95-7-0.35q3.55 0.95 1.55 0.8-2.8-1-5.7-1.85-5.45-2.85-5.7-3.9l-6.2-7.25-2.25-4q-2.15-3.9-3.2-7.6l-1.1-3.25q-0.95-5.5-0.55-10.8l0.1-2.3v-0.1q-0.25-1.15 0.3-2.1l0.35-1.8q1.45-6.1 5.85-9.45 3.15-2.35 4.65-2.25m29.75 35.95 0.1-0.7q-0.4-6.1-2.1-11.85m1.7 19.9 0.3-4.75v-2.6m-1.6 10.8 0.5-1.6 0.8-1.85m-1.8 5.25 0.05-0.25 0.45-1.55m-6.45 8.15 1.15-0.7q2.8-2.3 4.8-5.65" fill="none" stroke="#630" stroke-linecap="round" stroke-linejoin="round" stroke-width=".05"/>
</g>
<g id="a">
<use width="99.699997" height="74" xlink:href="#f"/>
</g>
<g id="f">
<path d="m1.4 46.7 8.35 4.95h-0.75l-6.1-0.95-1.5-4m64.35 22.45q-3.3-0.1-5.55-2.7l-17.75-12.05 0.3 0.05 0.7 0.4 1.3 0.05q8.35 1.75 13.9 7.6l4.2 3.35 10.55-11.1q3.9-4.25-1.6 4.95-5.5 9.6-6.05 9.45l-0.9-0.75-1.5-2.15-0.5-0.4 0.5 0.4 1.5 2.15 0.9 0.75m-5.95-11-30.8-18 30 2.15-0.3 2.45q-0.35 7.6 1.1 13.4m-0.1-20.95-21.9-11.25 6.25 4.95q-11.1-4.55-21.6-5.7l4.7 3.75-24.05-8.75 4.75-8.25 2.8-4 58.6 9.75-2.95 4.3-1.35 2.4 3.7 1.6 8.7 8.7q2.7 3.5-1.3 0.3l-4.8-2.6-6.8-7.4 0.5-0.6-0.5 0.6q-3.1 5.9-4.75 12.2m-58.65-9.25q10.45 4.8 19.35 11.6-1.7 0.6-2.9-0.35l-17.25-6.6 0.8-4.65m80.45-17.4 1.15 0.3-1.45 0.05 0.3-0.35m4.4 0.55 6.1 3.95-9.45 16.05 1.8-9.15q2.1-9.6 1.55-10.85m12.25 13.7 1.55 10.05q-1.3-0.05-2.55-0.85l-6.9 5.35q7.2-6.9 7.9-14.55m0.05 23.65-0.8 3.6q-7-2.8-13.9-5.75 10.35 2 14.7 1.75v0.4m-7.6 16.1-0.1 0.15-0.5 1-0.95 0.75-1.35 1.5q-4.9-19.7-1.85-13l3.85 7.95q1.05 1.45 0.9 1.65m-19.65-48.2 1.4-1.25 0.6 0.1 0.65-0.85v-0.4l0.2-0.25q0 0.85 1.45 4.9l4.1 12.1q1.25 3.5-7.4-12.4l-1-1.95m-28.7 37.7-11.6-6.55 5.05 2.3 6.55 4.25" fill="#8d6623" fill-rule="evenodd"/>
<path d="m2.9 50.7 6.1 0.95h0.75l-8.35-4.95q-1.8-5.3-1.3-12.65l0.15-1.45 17.25 6.6q1.2 0.95 2.9 0.35-8.9-6.8-19.35-11.6l2.05-7.75 24.05 8.75-4.7-3.75q10.5 1.15 21.6 5.7l-6.25-4.95 21.9 11.25-0.7 5.1-30-2.15 30.8 18q1.15 4.4 3.05 7.7l-4.2-3.35q-5.55-5.85-13.9-7.6l-1.3-0.05-0.7-0.4-0.3-0.05 17.75 12.05q2.25 2.6 5.55 2.7l5.95 4.35-61.65-15.35 0.1-0.1-5.3-4.8-1.95-2.55m39.35 3.35-6.55-4.25-5.05-2.3 11.6 6.55" fill="#bc8d2f" fill-rule="evenodd"/>
<path d="m71.7 73.5-5.95-4.35q0.55 0.15 6.05-9.45 5.5-9.2 1.6-4.95l-10.55 11.1q-1.9-3.3-3.05-7.7-1.45-5.8-1.1-13.4l0.3-2.45 0.7-5.1q1.65-6.3 4.75-12.2l6.8 7.4 4.8 2.6q4 3.2 1.3-0.3l-8.7-8.7-3.7-1.6 1.35-2.4 2.95-4.3 1.7-1.35 1 1.95q8.65 15.9 7.4 12.4l-4.1-12.1q-1.45-4.05-1.45-4.9 3.65-2.05 7.4-2.8l1.45-0.05 0.55-0.1 2.7 0.35q0.55 1.25-1.55 10.85l-1.8 9.15 9.45-16.05q-2.65-2.75-0.9-1.55l4.1 4.7q3.3 5.5 2.95 6.6-0.7 7.65-7.9 14.55l6.9-5.35q1.25 0.8 2.55 0.85l-0.2 4.9q-0.2 4.7-1.3 8.7v-0.4q-4.35 0.25-14.7-1.75 6.9 2.95 13.9 5.75-2.2 5.7-5.5 10.45l-1.3 2.05q0.15-0.2-0.9-1.65l-3.85-7.95q-3.05-6.7 1.85 13-4.65 5-10.5 5.8l-5.5-0.25m0.65-58.4 1.25-1.15v0.4l-0.65 0.85-0.6-0.1" fill="#d4ba90" fill-rule="evenodd"/>
<path d="m10.65 7.95q5.6-6.1 11.8-7.55l2.2-0.4 56.85 10.55-0.3 0.35q-3.75 0.75-7.4 2.8l-0.2 0.25-1.25 1.15-1.4 1.25-1.7 1.35-58.6-9.75" fill="#5d3d18" fill-rule="evenodd"/>
<path d="m2.9 50.7 1.95 2.55 5.3 4.8-0.1 0.1 61.65 15.35-5.95-4.35-0.9-0.75-1.5-2.15-0.5-0.4q-1.9-3.3-3.05-7.7-1.45-5.8-1.1-13.4l0.3-2.45 0.7-5.1m-56.6-17-2.05 7.75m-0.8 4.65-0.15 1.45q-0.5 7.35 1.3 12.65l1.5 4m-2.65-18.1 0.8-4.65m9.6-20q5.6-6.1 11.8-7.55l2.2-0.4 56.85 10.55 1.15 0.3 0.55-0.1 2.7 0.35 6.1 3.95q-2.65-2.75-0.9-1.55l4.1 4.7q3.3 5.5 2.95 6.6l1.55 10.05-0.2 4.9q-0.2 4.7-1.3 8.7l-0.8 3.6q-2.2 5.7-5.5 10.45l-1.3 2.05-0.1 0.15-0.5 1-0.95 0.75-1.35 1.5q-4.65 5-10.5 5.8l-5.5-0.25m-68.6-53.3 4.75-8.25 2.8-4m58.6 9.75 1.7-1.35 1.4-1.25 1.25-1.15 0.2-0.25q3.65-2.05 7.4-2.8m-16.25 13.5-0.5 0.6q-3.1 5.9-4.75 12.2m9.55-19.5-2.95 4.3-1.35 2.4m17.7-13.55-1.45 0.05" fill="none" stroke="#5e2f00" stroke-linecap="round" stroke-linejoin="round" stroke-width=".05"/>
</g>
<g id="e" transform="translate(-114.5,-152.2)">
<path d="m161.65 338.2 4.45-0.2 15.35 1.45q-0.1 0-0.25 0.1h-0.55q-0.45 0.15-0.85 0.35-5.8 1.6-11.35-0.05l-3.8-0.65-0.5-0.05-1.65-0.8-0.85-0.15 0.85 0.15 1.65 0.8 0.5 0.05-2.6 9.9q-0.9 3.75-0.8-3.45 0.05-7.4 0.4-7.45m7.65 4.6 25.6 0.75-19.5 8.3-0.65-1.6q-2.5-4.5-5.45-7.45m7.5 12.3 17.6-0.35-5.65-0.95q8.55-0.85 15.5-3.5l-4.3-0.75 18.1-2.5v6.35l-0.4 3.25-39.9 12.9 0.35-3.45v-1.85l-2.85 0.25-8.5-2.35q-2.95-1.25 0.65-0.6h3.9l6.9 2.2-0.1 0.5 0.1-0.5q-0.2-4.45-1.4-8.65m39.75-13.25-16.15-0.65q0.85-0.9 1.95-0.7l13.05-1.6 1.15 2.95m-6.85-10.95-6.95-0.25 0.4-0.25 4.2-1.35 2.35 1.85m-37 46.8-0.8 0.15 0.85-0.45-0.05 0.3m-2.95 1.05-5.2-0.35 0.2-12.5 2.15 6q2.05 6.3 2.85 6.85m-12.45-4.15-4.55-5.4q0.85-0.45 1.85-0.35l2.45-5.35q-2.05 6.4 0.25 11.1m-8.5-13.9-0.7-2.4 10.65-1q-7.15 2.1-9.75 3.6l-0.2-0.2m-0.95-11.9v-0.1q-0.1-0.85 0.25-1.5l0.35-1.35q10.05 10.1 5.8 7.1l-5.3-3.45-1.1-0.7m33.8-9.2 9.55 0.15-3.95 0.3-5.6-0.45m-4.85 32.45-0.4 0.15-0.1 0.7 0.15 0.25-0.05 0.2-2.65-2.45-6.85-5.75q-2.05-1.7 9 4.9l1.3 0.85-0.4 1.15" fill="#9a6f27" fill-rule="evenodd"/>
<path d="m156.4 337.55 43.85-10.6-0.05 0.1 4.95 1.15q1.1 0.35 2.2 0.85l-4.2 1.35-0.4 0.25 6.95 0.25q2.95 2.55 5.3 7.1l0.4 0.9-13.05 1.6q-1.1-0.2-1.95 0.7l16.15 0.65 1.5 5.2-18.1 2.5 4.3 0.75q-6.95 2.65-15.5 3.5l5.65 0.95-17.6 0.35-1.4-3.25 19.5-8.3-25.6-0.75q-2.3-2.25-4.65-3.6l3.8 0.65q5.55 1.65 11.35 0.05 0.4-0.2 0.85-0.35h0.55q0.15-0.1 0.25-0.1l-15.35-1.45-4.45 0.2-5.25-0.65m25.25 2.05 5.6 0.45 3.95-0.3-9.55-0.15" fill="#c93" fill-rule="evenodd"/>
<path d="m156.4 337.55 5.25 0.65q-0.35 0.05-0.4 7.45-0.1 7.2 0.8 3.45l2.6-9.9q2.35 1.35 4.65 3.6 2.95 2.95 5.45 7.45l0.65 1.6 1.4 3.25q1.2 4.2 1.4 8.65l-6.9-2.2h-3.9q-3.6-0.65-0.65 0.6l8.5 2.35 2.85-0.25v1.85l-0.35 3.45-0.55 1.35-1.3-0.85q-11.05-6.6-9-4.9l6.85 5.75 2.65 2.45q-1.55 2.45-3.65 4.05l-0.85 0.45-0.3 0.25-1.85 0.65q-0.8-0.55-2.85-6.85l-2.15-6-0.2 12.5q2.65 0.75 1.15 0.6l-4.25-1.45q-4.05-2.2-4.15-2.95-2.3-4.7-0.25-11.1l-2.45 5.35q-1-0.1-1.85 0.35l-1.6-3q-1.55-2.8-2.35-5.5l0.2 0.2q2.6-1.5 9.75-3.6l-10.65 1q-0.65-4.05-0.35-7.9l0.1-1.6 1.1 0.7 5.3 3.45q4.25 3-5.8-7.1 1.15-4.45 4.45-6.75 2.4-1.65 3.5-1.55m20.05 35.6-0.15-0.25 0.1-0.7 0.4-0.15-0.35 1.1" fill="#e6ca9d" fill-rule="evenodd"/>
<path d="m217.65 356.65q-1.25 5.4-4.6 8.2l-1.2 0.95-39.15 11.9 0.05-0.3q2.1-1.6 3.65-4.05l0.05-0.2 0.35-1.1 0.4-1.15 0.55-1.35 39.9-12.9" fill="#65431b" fill-rule="evenodd"/>
<path d="m207.35 329.05q-1.1-0.5-2.2-0.85l-4.95-1.15 0.05-0.1-43.85 10.6 5.25 0.65 0.85 0.15 1.65 0.8 0.5 0.05q2.35 1.35 4.65 3.6 2.95 2.95 5.45 7.45l0.65 1.6 1.4 3.25m41.25-8.05-1.5-5.2m-1.15-2.95-0.4-0.9q-2.35-4.55-5.3-7.1m-2.35-1.85 2.35 1.85m5.7 8 1.15 2.95m1.5 5.2v6.35l-0.4 3.25q-1.25 5.4-4.6 8.2l-1.2 0.95-39.15 11.9-0.8 0.15-0.3 0.25-1.85 0.65-5.2-0.35q2.65 0.75 1.15 0.6l-4.25-1.45q-4.05-2.2-4.15-2.95l-4.55-5.4-1.6-3q-1.55-2.8-2.35-5.5l-0.7-2.4q-0.65-4.05-0.35-7.9l0.1-1.6v-0.1q-0.1-0.85 0.25-1.5l0.35-1.35q1.15-4.45 4.45-6.75 2.4-1.65 3.5-1.55m21.7 26.7 0.1-0.5q-0.2-4.45-1.4-8.65m0.95 14.45 0.35-3.45v-1.85m-1.3 7.8 0.4-1.15 0.55-1.35m-1.35 3.8 0.05-0.2 0.35-1.1m-4.9 5.8 0.85-0.45q2.1-1.6 3.65-4.05" fill="none" stroke="#630" stroke-linecap="round" stroke-linejoin="round" stroke-width=".05"/>
<path d="m137.2 283.25 8.4 15.5" fill="none" stroke="#9a6f27" stroke-linecap="round" stroke-linejoin="round" stroke-width=".05"/>
<path d="m114.5 268.2 20.75 5.55q8 3.8 4.25 11.8-10 0.5-20.05-3.75 0.15-10.2-4.95-13.6" fill="#4f992f" fill-rule="evenodd"/>
<path d="m114.5 268.2q5.1 3.4 4.95 13.6 10.05 4.25 20.05 3.75 3.75-8-4.25-11.8z" fill="none" stroke="#660" stroke-linecap="round" stroke-linejoin="round" stroke-width=".05"/>
<path d="m404.2 178.25-12.5 12.35" fill="none" stroke="#9a6f27" stroke-linecap="round" stroke-linejoin="round" stroke-width=".05"/>
<path d="m412.25 152.2 0.5 21.45q-1.35 8.75-10.1 7.4-3.3-9.5-2.05-20.3 9.85-2.7 11.65-8.55" fill="#4f992f" fill-rule="evenodd"/>
<path d="m412.25 152.2q-1.8 5.85-11.65 8.55-1.25 10.8 2.05 20.3 8.75 1.35 10.1-7.4z" fill="none" stroke="#660" stroke-linecap="round" stroke-linejoin="round" stroke-width=".05"/>
<path d="m234.2 316.95-21.25-3.55q-8.3-2.95-5.3-11.35 9.95-1.4 20.3 1.85 0.8 10.15 6.25 13.05" fill="#4f992f" fill-rule="evenodd"/>
<path d="m234.2 316.95q-5.45-2.9-6.25-13.05-10.35-3.25-20.3-1.85-3 8.4 5.3 11.35z" fill="none" stroke="#660" stroke-linecap="round" stroke-linejoin="round" stroke-width=".05"/>
</g>
</defs>
</svg>
